<?xml version="1.0" encoding="utf-8" standalone="no"?>
<!DOCTYPE svg PUBLIC "-//W3C//DTD SVG 1.1//EN"
  "http://www.w3.org/Graphics/SVG/1.1/DTD/svg11.dtd">
<svg xmlns:xlink="http://www.w3.org/1999/xlink" width="1080pt" height="360pt" viewBox="0 0 1080 360" xmlns="http://www.w3.org/2000/svg" version="1.1">
 <metadata>
  <rdf:RDF xmlns:dc="http://purl.org/dc/elements/1.1/" xmlns:cc="http://creativecommons.org/ns#" xmlns:rdf="http://www.w3.org/1999/02/22-rdf-syntax-ns#">
   <cc:Work>
    <dc:type rdf:resource="http://purl.org/dc/dcmitype/StillImage"/>
    <dc:date>2024-03-29T11:51:26.111337</dc:date>
    <dc:format>image/svg+xml</dc:format>
    <dc:creator>
     <cc:Agent>
      <dc:title>Matplotlib v3.8.3, https://matplotlib.org/</dc:title>
     </cc:Agent>
    </dc:creator>
   </cc:Work>
  </rdf:RDF>
 </metadata>
 <defs>
  <style type="text/css">*{stroke-linejoin: round; stroke-linecap: butt}</style>
 </defs>
 <g id="figure_1">
  <g id="patch_1">
   <path d="M 0 360 
L 1080 360 
L 1080 0 
L 0 0 
z
" style="fill: #ffffff"/>
  </g>
  <g id="axes_1">
   <g id="patch_2">
    <path d="M 135 320.4 
L 381.176471 320.4 
L 381.176471 43.2 
L 135 43.2 
z
" style="fill: #ffffff"/>
   </g>
   <g id="matplotlib.axis_1">
    <g id="xtick_1">
     <g id="line2d_1">
      <defs>
       <path id="m6273ccfdff" d="M 0 0 
L 0 3.5 
" style="stroke: #000000; stroke-width: 0.8"/>
      </defs>
      <g>
       <use xlink:href="#m6273ccfdff" x="148.858123" y="320.4" style="stroke: #000000; stroke-width: 0.8"/>
      </g>
     </g>
     <g id="text_1">
      <!-- −0.08 -->
      <g transform="translate(133.535466 334.998438) scale(0.1 -0.1)">
       <defs>
        <path id="DejaVuSans-2212" d="M 678 2272 
L 4684 2272 
L 4684 1741 
L 678 1741 
L 678 2272 
z
" transform="scale(0.015625)"/>
        <path id="DejaVuSans-30" d="M 2034 4250 
Q 1547 4250 1301 3770 
Q 1056 3291 1056 2328 
Q 1056 1369 1301 889 
Q 1547 409 2034 409 
Q 2525 409 2770 889 
Q 3016 1369 3016 2328 
Q 3016 3291 2770 3770 
Q 2525 4250 2034 4250 
z
M 2034 4750 
Q 2819 4750 3233 4129 
Q 3647 3509 3647 2328 
Q 3647 1150 3233 529 
Q 2819 -91 2034 -91 
Q 1250 -91 836 529 
Q 422 1150 422 2328 
Q 422 3509 836 4129 
Q 1250 4750 2034 4750 
z
" transform="scale(0.015625)"/>
        <path id="DejaVuSans-2e" d="M 684 794 
L 1344 794 
L 1344 0 
L 684 0 
L 684 794 
z
" transform="scale(0.015625)"/>
        <path id="DejaVuSans-38" d="M 2034 2216 
Q 1584 2216 1326 1975 
Q 1069 1734 1069 1313 
Q 1069 891 1326 650 
Q 1584 409 2034 409 
Q 2484 409 2743 651 
Q 3003 894 3003 1313 
Q 3003 1734 2745 1975 
Q 2488 2216 2034 2216 
z
M 1403 2484 
Q 997 2584 770 2862 
Q 544 3141 544 3541 
Q 544 4100 942 4425 
Q 1341 4750 2034 4750 
Q 2731 4750 3128 4425 
Q 3525 4100 3525 3541 
Q 3525 3141 3298 2862 
Q 3072 2584 2669 2484 
Q 3125 2378 3379 2068 
Q 3634 1759 3634 1313 
Q 3634 634 3220 271 
Q 2806 -91 2034 -91 
Q 1263 -91 848 271 
Q 434 634 434 1313 
Q 434 1759 690 2068 
Q 947 2378 1403 2484 
z
M 1172 3481 
Q 1172 3119 1398 2916 
Q 1625 2713 2034 2713 
Q 2441 2713 2670 2916 
Q 2900 3119 2900 3481 
Q 2900 3844 2670 4047 
Q 2441 4250 2034 4250 
Q 1625 4250 1398 4047 
Q 1172 3844 1172 3481 
z
" transform="scale(0.015625)"/>
       </defs>
       <use xlink:href="#DejaVuSans-2212"/>
       <use xlink:href="#DejaVuSans-30" x="83.789062"/>
       <use xlink:href="#DejaVuSans-2e" x="147.412109"/>
       <use xlink:href="#DejaVuSans-30" x="179.199219"/>
       <use xlink:href="#DejaVuSans-38" x="242.822266"/>
      </g>
     </g>
    </g>
    <g id="xtick_2">
     <g id="line2d_2">
      <g>
       <use xlink:href="#m6273ccfdff" x="179.815577" y="320.4" style="stroke: #000000; stroke-width: 0.8"/>
      </g>
     </g>
     <g id="text_2">
      <!-- −0.06 -->
      <g transform="translate(164.492921 334.998438) scale(0.1 -0.1)">
       <defs>
        <path id="DejaVuSans-36" d="M 2113 2584 
Q 1688 2584 1439 2293 
Q 1191 2003 1191 1497 
Q 1191 994 1439 701 
Q 1688 409 2113 409 
Q 2538 409 2786 701 
Q 3034 994 3034 1497 
Q 3034 2003 2786 2293 
Q 2538 2584 2113 2584 
z
M 3366 4563 
L 3366 3988 
Q 3128 4100 2886 4159 
Q 2644 4219 2406 4219 
Q 1781 4219 1451 3797 
Q 1122 3375 1075 2522 
Q 1259 2794 1537 2939 
Q 1816 3084 2150 3084 
Q 2853 3084 3261 2657 
Q 3669 2231 3669 1497 
Q 3669 778 3244 343 
Q 2819 -91 2113 -91 
Q 1303 -91 875 529 
Q 447 1150 447 2328 
Q 447 3434 972 4092 
Q 1497 4750 2381 4750 
Q 2619 4750 2861 4703 
Q 3103 4656 3366 4563 
z
" transform="scale(0.015625)"/>
       </defs>
       <use xlink:href="#DejaVuSans-2212"/>
       <use xlink:href="#DejaVuSans-30" x="83.789062"/>
       <use xlink:href="#DejaVuSans-2e" x="147.412109"/>
       <use xlink:href="#DejaVuSans-30" x="179.199219"/>
       <use xlink:href="#DejaVuSans-36" x="242.822266"/>
      </g>
     </g>
    </g>
    <g id="xtick_3">
     <g id="line2d_3">
      <g>
       <use xlink:href="#m6273ccfdff" x="210.773031" y="320.4" style="stroke: #000000; stroke-width: 0.8"/>
      </g>
     </g>
     <g id="text_3">
      <!-- −0.04 -->
      <g transform="translate(195.450375 334.998438) scale(0.1 -0.1)">
       <defs>
        <path id="DejaVuSans-34" d="M 2419 4116 
L 825 1625 
L 2419 1625 
L 2419 4116 
z
M 2253 4666 
L 3047 4666 
L 3047 1625 
L 3713 1625 
L 3713 1100 
L 3047 1100 
L 3047 0 
L 2419 0 
L 2419 1100 
L 313 1100 
L 313 1709 
L 2253 4666 
z
" transform="scale(0.015625)"/>
       </defs>
       <use xlink:href="#DejaVuSans-2212"/>
       <use xlink:href="#DejaVuSans-30" x="83.789062"/>
       <use xlink:href="#DejaVuSans-2e" x="147.412109"/>
       <use xlink:href="#DejaVuSans-30" x="179.199219"/>
       <use xlink:href="#DejaVuSans-34" x="242.822266"/>
      </g>
     </g>
    </g>
    <g id="xtick_4">
     <g id="line2d_4">
      <g>
       <use xlink:href="#m6273ccfdff" x="241.730486" y="320.4" style="stroke: #000000; stroke-width: 0.8"/>
      </g>
     </g>
     <g id="text_4">
      <!-- −0.02 -->
      <g transform="translate(226.407829 334.998438) scale(0.1 -0.1)">
       <defs>
        <path id="DejaVuSans-32" d="M 1228 531 
L 3431 531 
L 3431 0 
L 469 0 
L 469 531 
Q 828 903 1448 1529 
Q 2069 2156 2228 2338 
Q 2531 2678 2651 2914 
Q 2772 3150 2772 3378 
Q 2772 3750 2511 3984 
Q 2250 4219 1831 4219 
Q 1534 4219 1204 4116 
Q 875 4013 500 3803 
L 500 4441 
Q 881 4594 1212 4672 
Q 1544 4750 1819 4750 
Q 2544 4750 2975 4387 
Q 3406 4025 3406 3419 
Q 3406 3131 3298 2873 
Q 3191 2616 2906 2266 
Q 2828 2175 2409 1742 
Q 1991 1309 1228 531 
z
" transform="scale(0.015625)"/>
       </defs>
       <use xlink:href="#DejaVuSans-2212"/>
       <use xlink:href="#DejaVuSans-30" x="83.789062"/>
       <use xlink:href="#DejaVuSans-2e" x="147.412109"/>
       <use xlink:href="#DejaVuSans-30" x="179.199219"/>
       <use xlink:href="#DejaVuSans-32" x="242.822266"/>
      </g>
     </g>
    </g>
    <g id="xtick_5">
     <g id="line2d_5">
      <g>
       <use xlink:href="#m6273ccfdff" x="272.68794" y="320.4" style="stroke: #000000; stroke-width: 0.8"/>
      </g>
     </g>
     <g id="text_5">
      <!-- 0.00 -->
      <g transform="translate(261.555128 334.998438) scale(0.1 -0.1)">
       <use xlink:href="#DejaVuSans-30"/>
       <use xlink:href="#DejaVuSans-2e" x="63.623047"/>
       <use xlink:href="#DejaVuSans-30" x="95.410156"/>
       <use xlink:href="#DejaVuSans-30" x="159.033203"/>
      </g>
     </g>
    </g>
    <g id="xtick_6">
     <g id="line2d_6">
      <g>
       <use xlink:href="#m6273ccfdff" x="303.645394" y="320.4" style="stroke: #000000; stroke-width: 0.8"/>
      </g>
     </g>
     <g id="text_6">
      <!-- 0.02 -->
      <g transform="translate(292.512582 334.998438) scale(0.1 -0.1)">
       <use xlink:href="#DejaVuSans-30"/>
       <use xlink:href="#DejaVuSans-2e" x="63.623047"/>
       <use xlink:href="#DejaVuSans-30" x="95.410156"/>
       <use xlink:href="#DejaVuSans-32" x="159.033203"/>
      </g>
     </g>
    </g>
    <g id="xtick_7">
     <g id="line2d_7">
      <g>
       <use xlink:href="#m6273ccfdff" x="334.602849" y="320.4" style="stroke: #000000; stroke-width: 0.8"/>
      </g>
     </g>
     <g id="text_7">
      <!-- 0.04 -->
      <g transform="translate(323.470036 334.998438) scale(0.1 -0.1)">
       <use xlink:href="#DejaVuSans-30"/>
       <use xlink:href="#DejaVuSans-2e" x="63.623047"/>
       <use xlink:href="#DejaVuSans-30" x="95.410156"/>
       <use xlink:href="#DejaVuSans-34" x="159.033203"/>
      </g>
     </g>
    </g>
    <g id="xtick_8">
     <g id="line2d_8">
      <g>
       <use xlink:href="#m6273ccfdff" x="365.560303" y="320.4" style="stroke: #000000; stroke-width: 0.8"/>
      </g>
     </g>
     <g id="text_8">
      <!-- 0.06 -->
      <g transform="translate(354.427491 334.998438) scale(0.1 -0.1)">
       <use xlink:href="#DejaVuSans-30"/>
       <use xlink:href="#DejaVuSans-2e" x="63.623047"/>
       <use xlink:href="#DejaVuSans-30" x="95.410156"/>
       <use xlink:href="#DejaVuSans-36" x="159.033203"/>
      </g>
     </g>
    </g>
   </g>
   <g id="matplotlib.axis_2">
    <g id="ytick_1">
     <g id="line2d_9">
      <defs>
       <path id="mab5f42de40" d="M 0 0 
L -3.5 0 
" style="stroke: #000000; stroke-width: 0.8"/>
      </defs>
      <g>
       <use xlink:href="#mab5f42de40" x="135" y="293.498469" style="stroke: #000000; stroke-width: 0.8"/>
      </g>
     </g>
     <g id="text_9">
      <!-- −0.06 -->
      <g transform="translate(97.354687 297.297688) scale(0.1 -0.1)">
       <use xlink:href="#DejaVuSans-2212"/>
       <use xlink:href="#DejaVuSans-30" x="83.789062"/>
       <use xlink:href="#DejaVuSans-2e" x="147.412109"/>
       <use xlink:href="#DejaVuSans-30" x="179.199219"/>
       <use xlink:href="#DejaVuSans-36" x="242.822266"/>
      </g>
     </g>
    </g>
    <g id="ytick_2">
     <g id="line2d_10">
      <g>
       <use xlink:href="#mab5f42de40" x="135" y="262.541015" style="stroke: #000000; stroke-width: 0.8"/>
      </g>
     </g>
     <g id="text_10">
      <!-- −0.04 -->
      <g transform="translate(97.354687 266.340233) scale(0.1 -0.1)">
       <use xlink:href="#DejaVuSans-2212"/>
       <use xlink:href="#DejaVuSans-30" x="83.789062"/>
       <use xlink:href="#DejaVuSans-2e" x="147.412109"/>
       <use xlink:href="#DejaVuSans-30" x="179.199219"/>
       <use xlink:href="#DejaVuSans-34" x="242.822266"/>
      </g>
     </g>
    </g>
    <g id="ytick_3">
     <g id="line2d_11">
      <g>
       <use xlink:href="#mab5f42de40" x="135" y="231.58356" style="stroke: #000000; stroke-width: 0.8"/>
      </g>
     </g>
     <g id="text_11">
      <!-- −0.02 -->
      <g transform="translate(97.354687 235.382779) scale(0.1 -0.1)">
       <use xlink:href="#DejaVuSans-2212"/>
       <use xlink:href="#DejaVuSans-30" x="83.789062"/>
       <use xlink:href="#DejaVuSans-2e" x="147.412109"/>
       <use xlink:href="#DejaVuSans-30" x="179.199219"/>
       <use xlink:href="#DejaVuSans-32" x="242.822266"/>
      </g>
     </g>
    </g>
    <g id="ytick_4">
     <g id="line2d_12">
      <g>
       <use xlink:href="#mab5f42de40" x="135" y="200.626106" style="stroke: #000000; stroke-width: 0.8"/>
      </g>
     </g>
     <g id="text_12">
      <!-- 0.00 -->
      <g transform="translate(105.734375 204.425325) scale(0.1 -0.1)">
       <use xlink:href="#DejaVuSans-30"/>
       <use xlink:href="#DejaVuSans-2e" x="63.623047"/>
       <use xlink:href="#DejaVuSans-30" x="95.410156"/>
       <use xlink:href="#DejaVuSans-30" x="159.033203"/>
      </g>
     </g>
    </g>
    <g id="ytick_5">
     <g id="line2d_13">
      <g>
       <use xlink:href="#mab5f42de40" x="135" y="169.668652" style="stroke: #000000; stroke-width: 0.8"/>
      </g>
     </g>
     <g id="text_13">
      <!-- 0.02 -->
      <g transform="translate(105.734375 173.46787) scale(0.1 -0.1)">
       <use xlink:href="#DejaVuSans-30"/>
       <use xlink:href="#DejaVuSans-2e" x="63.623047"/>
       <use xlink:href="#DejaVuSans-30" x="95.410156"/>
       <use xlink:href="#DejaVuSans-32" x="159.033203"/>
      </g>
     </g>
    </g>
    <g id="ytick_6">
     <g id="line2d_14">
      <g>
       <use xlink:href="#mab5f42de40" x="135" y="138.711197" style="stroke: #000000; stroke-width: 0.8"/>
      </g>
     </g>
     <g id="text_14">
      <!-- 0.04 -->
      <g transform="translate(105.734375 142.510416) scale(0.1 -0.1)">
       <use xlink:href="#DejaVuSans-30"/>
       <use xlink:href="#DejaVuSans-2e" x="63.623047"/>
       <use xlink:href="#DejaVuSans-30" x="95.410156"/>
       <use xlink:href="#DejaVuSans-34" x="159.033203"/>
      </g>
     </g>
    </g>
    <g id="ytick_7">
     <g id="line2d_15">
      <g>
       <use xlink:href="#mab5f42de40" x="135" y="107.753743" style="stroke: #000000; stroke-width: 0.8"/>
      </g>
     </g>
     <g id="text_15">
      <!-- 0.06 -->
      <g transform="translate(105.734375 111.552962) scale(0.1 -0.1)">
       <use xlink:href="#DejaVuSans-30"/>
       <use xlink:href="#DejaVuSans-2e" x="63.623047"/>
       <use xlink:href="#DejaVuSans-30" x="95.410156"/>
       <use xlink:href="#DejaVuSans-36" x="159.033203"/>
      </g>
     </g>
    </g>
    <g id="ytick_8">
     <g id="line2d_16">
      <g>
       <use xlink:href="#mab5f42de40" x="135" y="76.796289" style="stroke: #000000; stroke-width: 0.8"/>
      </g>
     </g>
     <g id="text_16">
      <!-- 0.08 -->
      <g transform="translate(105.734375 80.595507) scale(0.1 -0.1)">
       <use xlink:href="#DejaVuSans-30"/>
       <use xlink:href="#DejaVuSans-2e" x="63.623047"/>
       <use xlink:href="#DejaVuSans-30" x="95.410156"/>
       <use xlink:href="#DejaVuSans-38" x="159.033203"/>
      </g>
     </g>
    </g>
    <g id="ytick_9">
     <g id="line2d_17">
      <g>
       <use xlink:href="#mab5f42de40" x="135" y="45.838834" style="stroke: #000000; stroke-width: 0.8"/>
      </g>
     </g>
     <g id="text_17">
      <!-- 0.10 -->
      <g transform="translate(105.734375 49.638053) scale(0.1 -0.1)">
       <defs>
        <path id="DejaVuSans-31" d="M 794 531 
L 1825 531 
L 1825 4091 
L 703 3866 
L 703 4441 
L 1819 4666 
L 2450 4666 
L 2450 531 
L 3481 531 
L 3481 0 
L 794 0 
L 794 531 
z
" transform="scale(0.015625)"/>
       </defs>
       <use xlink:href="#DejaVuSans-30"/>
       <use xlink:href="#DejaVuSans-2e" x="63.623047"/>
       <use xlink:href="#DejaVuSans-31" x="95.410156"/>
       <use xlink:href="#DejaVuSans-30" x="159.033203"/>
      </g>
     </g>
    </g>
   </g>
   <g id="line2d_18">
    <path d="M 290.059206 53.916119 
L 288.252838 55.722487 
L 286.862108 57.528854 
L 286.862108 59.335222 
L 286.030832 61.14159 
L 284.224464 62.947957 
L 283.665011 64.754325 
L 283.665011 66.560595 
L 282.002556 68.366963 
L 280.467914 70.445154 
L 280.467914 74.057791 
L 279.093186 77.670527 
L 275.480451 81.283262 
L 272.970718 82.689992 
L 271.16435 82.689992 
L 267.839342 85.727274 
L 264.482429 89.339911 
L 264.482429 92.952646 
L 263.395428 96.565382 
L 259.782693 100.178117 
L 258.088235 103.790852 
L 258.088235 107.403587 
L 256.713507 109.641497 
L 254.907139 111.447864 
L 254.891138 115.044599 
L 254.491501 118.257697 
L 252.685134 120.064064 
L 251.694041 121.870432 
L 251.694041 123.6768 
L 248.001398 127.944897 
L 242.582295 133.364 
L 242.10275 135.490096 
L 240.056561 139.086831 
L 225.605718 153.537674 
L 215.854611 162.617418 
L 214.048243 162.617418 
L 210.067873 165.878422 
L 204.64877 171.297525 
L 199.229667 172.208709 
L 194.146295 172.768162 
L 194.146295 181.8 
L 193.618747 188.721742 
L 191.812379 190.52811 
L 190.949198 192.334478 
L 190.949198 194.140748 
L 189.590471 195.947115 
L 187.784103 197.753483 
L 187.752101 215.529335 
L 187.368465 230.140091 
L 185.562097 231.946459 
L 184.555004 233.752827 
L 184.555004 235.559194 
L 183.340091 237.365562 
L 181.533724 239.171929 
L 181.118085 242.784665 
L 179.311718 244.591032 
L 177.505448 245.74194 
L 175.69908 245.74194 
L 172.821615 247.884038 
L 169.208977 251.496676 
L 167.08288 252.136134 
L 165.276513 252.232043 
L 163.470145 254.038411 
L 161.663777 255.333231 
L 159.85741 255.333231 
L 158.051042 256.260417 
L 156.244675 258.066785 
L 154.438307 258.530328 
L 152.632037 258.530328 
L 149.067207 262.047155 
L 146.18984 265.292157 
L 146.18984 267.098525 
L 152.456122 268.12162 
L 166.907063 268.12162 
L 172.965527 269.320531 
L 174.771895 271.126899 
L 184.778824 271.542537 
L 186.585192 273.348904 
L 187.752101 275.155272 
L 187.752101 276.96164 
L 188.8071 278.76791 
L 190.613468 280.574277 
L 196.831845 280.910008 
L 203.817494 280.989916 
L 205.623861 282.796283 
L 206.934683 286.089289 
L 206.934683 293.31476 
L 207.845867 297.806677 
L 209.652235 299.613045 
L 215.438973 300.09259 
L 222.664443 300.09259 
L 224.662629 301.835051 
L 226.117265 303.641321 
L 226.117265 305.447688 
L 228.419179 306.486784 
L 233.838282 306.486784 
L 236.891466 307.669694 
L 238.697834 309.476062 
L 240.504202 309.683881 
L 242.310569 309.476062 
L 244.116937 307.669694 
L 245.923305 306.486784 
L 247.729672 306.486784 
L 249.53604 305.447688 
L 251.342407 303.641321 
L 257.512781 303.289687 
L 264.610341 303.417598 
L 268.223076 307.030333 
L 271.835713 309.683881 
L 275.448449 309.683881 
L 278.166001 308.788698 
L 279.972368 306.98233 
L 283.089557 306.486784 
L 286.702293 306.486784 
L 288.588568 304.760324 
L 290.394936 303.289687 
L 292.201303 303.289687 
L 294.758942 301.787047 
L 298.371677 298.174312 
L 300.817406 296.895493 
L 302.623773 296.895493 
L 312.630703 287.304202 
L 314.43707 287.304202 
L 318.065807 284.874377 
L 325.29118 277.649004 
L 336.60893 274.515814 
L 351.059774 274.515814 
L 355.439879 273.077081 
L 357.246246 271.318717 
L 359.052516 271.318717 
L 360.39534 269.000802 
L 360.39534 259.969061 
L 361.274522 254.454049 
L 363.08089 252.647682 
L 361.002796 249.546494 
L 357.390061 245.933758 
L 357.198243 240.610565 
L 357.517972 235.83092 
L 359.32434 234.024553 
L 360.39534 232.218185 
L 360.39534 230.411817 
L 361.546248 228.605547 
L 363.352616 226.79918 
L 365.158983 226.559358 
L 366.789534 225.855993 
L 366.789534 218.630523 
L 367.380989 213.179515 
L 369.187357 211.373147 
L 369.986631 208.559686 
L 369.986631 204.946951 
L 368.563899 202.756948 
L 366.789534 200.95058 
L 366.789534 199.144212 
L 366.341894 197.785485 
L 364.535624 197.785485 
L 361.002796 195.195844 
L 355.583693 189.776741 
L 354.001146 185.636555 
L 354.001146 182.02382 
L 357.390061 178.411085 
L 360.39534 173.583437 
L 360.39534 162.745329 
L 361.114706 155.503857 
L 362.921074 153.69749 
L 363.592437 151.891122 
L 363.592437 150.084755 
L 365.142982 148.278485 
L 366.469805 146.312204 
L 362.85707 142.699468 
L 360.39534 139.086831 
L 360.39534 135.474095 
L 359.404248 133.843545 
L 357.59788 133.843545 
L 354.384782 131.030084 
L 350.804049 127.43335 
L 350.804049 125.626982 
L 349.940868 123.389073 
L 346.328133 119.776337 
L 344.409855 112.774687 
L 344.409855 101.936481 
L 339.358484 93.624107 
L 332.133014 86.398637 
L 329.94301 85.887089 
L 328.136643 85.599362 
L 326.330275 83.792995 
L 325.227273 80.579897 
L 325.227273 75.160794 
L 322.989266 70.860694 
L 319.376628 67.248057 
L 318.833079 63.635321 
L 318.689166 60.166401 
L 316.882896 58.360131 
L 313.957525 57.113216 
L 308.538422 57.113216 
L 305.069599 56.138125 
L 303.263232 54.331757 
L 297.284676 53.916119 
L 297.284676 53.916119 
" clip-path="url(#pd927a10e05)" style="fill: none; stroke: #1f77b4; stroke-width: 1.5; stroke-linecap: square"/>
   </g>
   <g id="patch_3">
    <path d="M 135 320.4 
L 135 43.2 
" style="fill: none; stroke: #000000; stroke-width: 0.8; stroke-linejoin: miter; stroke-linecap: square"/>
   </g>
   <g id="patch_4">
    <path d="M 381.176471 320.4 
L 381.176471 43.2 
" style="fill: none; stroke: #000000; stroke-width: 0.8; stroke-linejoin: miter; stroke-linecap: square"/>
   </g>
   <g id="patch_5">
    <path d="M 135 320.4 
L 381.176471 320.4 
" style="fill: none; stroke: #000000; stroke-width: 0.8; stroke-linejoin: miter; stroke-linecap: square"/>
   </g>
   <g id="patch_6">
    <path d="M 135 43.2 
L 381.176471 43.2 
" style="fill: none; stroke: #000000; stroke-width: 0.8; stroke-linejoin: miter; stroke-linecap: square"/>
   </g>
   <g id="text_18">
    <!-- Reference curve -->
    <g transform="translate(209.158235 37.2) scale(0.12 -0.12)">
     <defs>
      <path id="DejaVuSans-52" d="M 2841 2188 
Q 3044 2119 3236 1894 
Q 3428 1669 3622 1275 
L 4263 0 
L 3584 0 
L 2988 1197 
Q 2756 1666 2539 1819 
Q 2322 1972 1947 1972 
L 1259 1972 
L 1259 0 
L 628 0 
L 628 4666 
L 2053 4666 
Q 2853 4666 3247 4331 
Q 3641 3997 3641 3322 
Q 3641 2881 3436 2590 
Q 3231 2300 2841 2188 
z
M 1259 4147 
L 1259 2491 
L 2053 2491 
Q 2509 2491 2742 2702 
Q 2975 2913 2975 3322 
Q 2975 3731 2742 3939 
Q 2509 4147 2053 4147 
L 1259 4147 
z
" transform="scale(0.015625)"/>
      <path id="DejaVuSans-65" d="M 3597 1894 
L 3597 1613 
L 953 1613 
Q 991 1019 1311 708 
Q 1631 397 2203 397 
Q 2534 397 2845 478 
Q 3156 559 3463 722 
L 3463 178 
Q 3153 47 2828 -22 
Q 2503 -91 2169 -91 
Q 1331 -91 842 396 
Q 353 884 353 1716 
Q 353 2575 817 3079 
Q 1281 3584 2069 3584 
Q 2775 3584 3186 3129 
Q 3597 2675 3597 1894 
z
M 3022 2063 
Q 3016 2534 2758 2815 
Q 2500 3097 2075 3097 
Q 1594 3097 1305 2825 
Q 1016 2553 972 2059 
L 3022 2063 
z
" transform="scale(0.015625)"/>
      <path id="DejaVuSans-66" d="M 2375 4863 
L 2375 4384 
L 1825 4384 
Q 1516 4384 1395 4259 
Q 1275 4134 1275 3809 
L 1275 3500 
L 2222 3500 
L 2222 3053 
L 1275 3053 
L 1275 0 
L 697 0 
L 697 3053 
L 147 3053 
L 147 3500 
L 697 3500 
L 697 3744 
Q 697 4328 969 4595 
Q 1241 4863 1831 4863 
L 2375 4863 
z
" transform="scale(0.015625)"/>
      <path id="DejaVuSans-72" d="M 2631 2963 
Q 2534 3019 2420 3045 
Q 2306 3072 2169 3072 
Q 1681 3072 1420 2755 
Q 1159 2438 1159 1844 
L 1159 0 
L 581 0 
L 581 3500 
L 1159 3500 
L 1159 2956 
Q 1341 3275 1631 3429 
Q 1922 3584 2338 3584 
Q 2397 3584 2469 3576 
Q 2541 3569 2628 3553 
L 2631 2963 
z
" transform="scale(0.015625)"/>
      <path id="DejaVuSans-6e" d="M 3513 2113 
L 3513 0 
L 2938 0 
L 2938 2094 
Q 2938 2591 2744 2837 
Q 2550 3084 2163 3084 
Q 1697 3084 1428 2787 
Q 1159 2491 1159 1978 
L 1159 0 
L 581 0 
L 581 3500 
L 1159 3500 
L 1159 2956 
Q 1366 3272 1645 3428 
Q 1925 3584 2291 3584 
Q 2894 3584 3203 3211 
Q 3513 2838 3513 2113 
z
" transform="scale(0.015625)"/>
      <path id="DejaVuSans-63" d="M 3122 3366 
L 3122 2828 
Q 2878 2963 2633 3030 
Q 2388 3097 2138 3097 
Q 1578 3097 1268 2742 
Q 959 2388 959 1747 
Q 959 1106 1268 751 
Q 1578 397 2138 397 
Q 2388 397 2633 464 
Q 2878 531 3122 666 
L 3122 134 
Q 2881 22 2623 -34 
Q 2366 -91 2075 -91 
Q 1284 -91 818 406 
Q 353 903 353 1747 
Q 353 2603 823 3093 
Q 1294 3584 2113 3584 
Q 2378 3584 2631 3529 
Q 2884 3475 3122 3366 
z
" transform="scale(0.015625)"/>
      <path id="DejaVuSans-20" transform="scale(0.015625)"/>
      <path id="DejaVuSans-75" d="M 544 1381 
L 544 3500 
L 1119 3500 
L 1119 1403 
Q 1119 906 1312 657 
Q 1506 409 1894 409 
Q 2359 409 2629 706 
Q 2900 1003 2900 1516 
L 2900 3500 
L 3475 3500 
L 3475 0 
L 2900 0 
L 2900 538 
Q 2691 219 2414 64 
Q 2138 -91 1772 -91 
Q 1169 -91 856 284 
Q 544 659 544 1381 
z
M 1991 3584 
L 1991 3584 
z
" transform="scale(0.015625)"/>
      <path id="DejaVuSans-76" d="M 191 3500 
L 800 3500 
L 1894 563 
L 2988 3500 
L 3597 3500 
L 2284 0 
L 1503 0 
L 191 3500 
z
" transform="scale(0.015625)"/>
     </defs>
     <use xlink:href="#DejaVuSans-52"/>
     <use xlink:href="#DejaVuSans-65" x="64.982422"/>
     <use xlink:href="#DejaVuSans-66" x="126.505859"/>
     <use xlink:href="#DejaVuSans-65" x="161.710938"/>
     <use xlink:href="#DejaVuSans-72" x="223.234375"/>
     <use xlink:href="#DejaVuSans-65" x="262.097656"/>
     <use xlink:href="#DejaVuSans-6e" x="323.621094"/>
     <use xlink:href="#DejaVuSans-63" x="387"/>
     <use xlink:href="#DejaVuSans-65" x="441.980469"/>
     <use xlink:href="#DejaVuSans-20" x="503.503906"/>
     <use xlink:href="#DejaVuSans-63" x="535.291016"/>
     <use xlink:href="#DejaVuSans-75" x="590.271484"/>
     <use xlink:href="#DejaVuSans-72" x="653.650391"/>
     <use xlink:href="#DejaVuSans-76" x="694.763672"/>
     <use xlink:href="#DejaVuSans-65" x="753.943359"/>
    </g>
   </g>
  </g>
  <g id="axes_2">
   <g id="patch_7">
    <path d="M 430.411765 320.4 
L 676.588235 320.4 
L 676.588235 43.2 
L 430.411765 43.2 
z
" style="fill: #ffffff"/>
   </g>
   <g id="matplotlib.axis_3">
    <g id="xtick_9">
     <g id="line2d_19">
      <g>
       <use xlink:href="#m6273ccfdff" x="442.982787" y="320.4" style="stroke: #000000; stroke-width: 0.8"/>
      </g>
     </g>
     <g id="text_19">
      <!-- −0.075 -->
      <g transform="translate(424.478881 334.998438) scale(0.1 -0.1)">
       <defs>
        <path id="DejaVuSans-37" d="M 525 4666 
L 3525 4666 
L 3525 4397 
L 1831 0 
L 1172 0 
L 2766 4134 
L 525 4134 
L 525 4666 
z
" transform="scale(0.015625)"/>
        <path id="DejaVuSans-35" d="M 691 4666 
L 3169 4666 
L 3169 4134 
L 1269 4134 
L 1269 2991 
Q 1406 3038 1543 3061 
Q 1681 3084 1819 3084 
Q 2600 3084 3056 2656 
Q 3513 2228 3513 1497 
Q 3513 744 3044 326 
Q 2575 -91 1722 -91 
Q 1428 -91 1123 -41 
Q 819 9 494 109 
L 494 744 
Q 775 591 1075 516 
Q 1375 441 1709 441 
Q 2250 441 2565 725 
Q 2881 1009 2881 1497 
Q 2881 1984 2565 2268 
Q 2250 2553 1709 2553 
Q 1456 2553 1204 2497 
Q 953 2441 691 2322 
L 691 4666 
z
" transform="scale(0.015625)"/>
       </defs>
       <use xlink:href="#DejaVuSans-2212"/>
       <use xlink:href="#DejaVuSans-30" x="83.789062"/>
       <use xlink:href="#DejaVuSans-2e" x="147.412109"/>
       <use xlink:href="#DejaVuSans-30" x="179.199219"/>
       <use xlink:href="#DejaVuSans-37" x="242.822266"/>
       <use xlink:href="#DejaVuSans-35" x="306.445312"/>
      </g>
     </g>
    </g>
    <g id="xtick_10">
     <g id="line2d_20">
      <g>
       <use xlink:href="#m6273ccfdff" x="479.223923" y="320.4" style="stroke: #000000; stroke-width: 0.8"/>
      </g>
     </g>
     <g id="text_20">
      <!-- −0.050 -->
      <g transform="translate(460.720017 334.998438) scale(0.1 -0.1)">
       <use xlink:href="#DejaVuSans-2212"/>
       <use xlink:href="#DejaVuSans-30" x="83.789062"/>
       <use xlink:href="#DejaVuSans-2e" x="147.412109"/>
       <use xlink:href="#DejaVuSans-30" x="179.199219"/>
       <use xlink:href="#DejaVuSans-35" x="242.822266"/>
       <use xlink:href="#DejaVuSans-30" x="306.445312"/>
      </g>
     </g>
    </g>
    <g id="xtick_11">
     <g id="line2d_21">
      <g>
       <use xlink:href="#m6273ccfdff" x="515.465059" y="320.4" style="stroke: #000000; stroke-width: 0.8"/>
      </g>
     </g>
     <g id="text_21">
      <!-- −0.025 -->
      <g transform="translate(496.961152 334.998438) scale(0.1 -0.1)">
       <use xlink:href="#DejaVuSans-2212"/>
       <use xlink:href="#DejaVuSans-30" x="83.789062"/>
       <use xlink:href="#DejaVuSans-2e" x="147.412109"/>
       <use xlink:href="#DejaVuSans-30" x="179.199219"/>
       <use xlink:href="#DejaVuSans-32" x="242.822266"/>
       <use xlink:href="#DejaVuSans-35" x="306.445312"/>
      </g>
     </g>
    </g>
    <g id="xtick_12">
     <g id="line2d_22">
      <g>
       <use xlink:href="#m6273ccfdff" x="551.706194" y="320.4" style="stroke: #000000; stroke-width: 0.8"/>
      </g>
     </g>
     <g id="text_22">
      <!-- 0.000 -->
      <g transform="translate(537.392132 334.998438) scale(0.1 -0.1)">
       <use xlink:href="#DejaVuSans-30"/>
       <use xlink:href="#DejaVuSans-2e" x="63.623047"/>
       <use xlink:href="#DejaVuSans-30" x="95.410156"/>
       <use xlink:href="#DejaVuSans-30" x="159.033203"/>
       <use xlink:href="#DejaVuSans-30" x="222.65625"/>
      </g>
     </g>
    </g>
    <g id="xtick_13">
     <g id="line2d_23">
      <g>
       <use xlink:href="#m6273ccfdff" x="587.94733" y="320.4" style="stroke: #000000; stroke-width: 0.8"/>
      </g>
     </g>
     <g id="text_23">
      <!-- 0.025 -->
      <g transform="translate(573.633267 334.998438) scale(0.1 -0.1)">
       <use xlink:href="#DejaVuSans-30"/>
       <use xlink:href="#DejaVuSans-2e" x="63.623047"/>
       <use xlink:href="#DejaVuSans-30" x="95.410156"/>
       <use xlink:href="#DejaVuSans-32" x="159.033203"/>
       <use xlink:href="#DejaVuSans-35" x="222.65625"/>
      </g>
     </g>
    </g>
    <g id="xtick_14">
     <g id="line2d_24">
      <g>
       <use xlink:href="#m6273ccfdff" x="624.188465" y="320.4" style="stroke: #000000; stroke-width: 0.8"/>
      </g>
     </g>
     <g id="text_24">
      <!-- 0.050 -->
      <g transform="translate(609.874403 334.998438) scale(0.1 -0.1)">
       <use xlink:href="#DejaVuSans-30"/>
       <use xlink:href="#DejaVuSans-2e" x="63.623047"/>
       <use xlink:href="#DejaVuSans-30" x="95.410156"/>
       <use xlink:href="#DejaVuSans-35" x="159.033203"/>
       <use xlink:href="#DejaVuSans-30" x="222.65625"/>
      </g>
     </g>
    </g>
    <g id="xtick_15">
     <g id="line2d_25">
      <g>
       <use xlink:href="#m6273ccfdff" x="660.429601" y="320.4" style="stroke: #000000; stroke-width: 0.8"/>
      </g>
     </g>
     <g id="text_25">
      <!-- 0.075 -->
      <g transform="translate(646.115539 334.998438) scale(0.1 -0.1)">
       <use xlink:href="#DejaVuSans-30"/>
       <use xlink:href="#DejaVuSans-2e" x="63.623047"/>
       <use xlink:href="#DejaVuSans-30" x="95.410156"/>
       <use xlink:href="#DejaVuSans-37" x="159.033203"/>
       <use xlink:href="#DejaVuSans-35" x="222.65625"/>
      </g>
     </g>
    </g>
   </g>
   <g id="matplotlib.axis_4">
    <g id="ytick_10">
     <g id="line2d_26">
      <g>
       <use xlink:href="#mab5f42de40" x="430.411765" y="284.510633" style="stroke: #000000; stroke-width: 0.8"/>
      </g>
     </g>
     <g id="text_26">
      <!-- −0.075 -->
      <g transform="translate(386.403952 288.309852) scale(0.1 -0.1)">
       <use xlink:href="#DejaVuSans-2212"/>
       <use xlink:href="#DejaVuSans-30" x="83.789062"/>
       <use xlink:href="#DejaVuSans-2e" x="147.412109"/>
       <use xlink:href="#DejaVuSans-30" x="179.199219"/>
       <use xlink:href="#DejaVuSans-37" x="242.822266"/>
       <use xlink:href="#DejaVuSans-35" x="306.445312"/>
      </g>
     </g>
    </g>
    <g id="ytick_11">
     <g id="line2d_27">
      <g>
       <use xlink:href="#mab5f42de40" x="430.411765" y="248.269498" style="stroke: #000000; stroke-width: 0.8"/>
      </g>
     </g>
     <g id="text_27">
      <!-- −0.050 -->
      <g transform="translate(386.403952 252.068716) scale(0.1 -0.1)">
       <use xlink:href="#DejaVuSans-2212"/>
       <use xlink:href="#DejaVuSans-30" x="83.789062"/>
       <use xlink:href="#DejaVuSans-2e" x="147.412109"/>
       <use xlink:href="#DejaVuSans-30" x="179.199219"/>
       <use xlink:href="#DejaVuSans-35" x="242.822266"/>
       <use xlink:href="#DejaVuSans-30" x="306.445312"/>
      </g>
     </g>
    </g>
    <g id="ytick_12">
     <g id="line2d_28">
      <g>
       <use xlink:href="#mab5f42de40" x="430.411765" y="212.028362" style="stroke: #000000; stroke-width: 0.8"/>
      </g>
     </g>
     <g id="text_28">
      <!-- −0.025 -->
      <g transform="translate(386.403952 215.827581) scale(0.1 -0.1)">
       <use xlink:href="#DejaVuSans-2212"/>
       <use xlink:href="#DejaVuSans-30" x="83.789062"/>
       <use xlink:href="#DejaVuSans-2e" x="147.412109"/>
       <use xlink:href="#DejaVuSans-30" x="179.199219"/>
       <use xlink:href="#DejaVuSans-32" x="242.822266"/>
       <use xlink:href="#DejaVuSans-35" x="306.445312"/>
      </g>
     </g>
    </g>
    <g id="ytick_13">
     <g id="line2d_29">
      <g>
       <use xlink:href="#mab5f42de40" x="430.411765" y="175.787226" style="stroke: #000000; stroke-width: 0.8"/>
      </g>
     </g>
     <g id="text_29">
      <!-- 0.000 -->
      <g transform="translate(394.78364 179.586445) scale(0.1 -0.1)">
       <use xlink:href="#DejaVuSans-30"/>
       <use xlink:href="#DejaVuSans-2e" x="63.623047"/>
       <use xlink:href="#DejaVuSans-30" x="95.410156"/>
       <use xlink:href="#DejaVuSans-30" x="159.033203"/>
       <use xlink:href="#DejaVuSans-30" x="222.65625"/>
      </g>
     </g>
    </g>
    <g id="ytick_14">
     <g id="line2d_30">
      <g>
       <use xlink:href="#mab5f42de40" x="430.411765" y="139.546091" style="stroke: #000000; stroke-width: 0.8"/>
      </g>
     </g>
     <g id="text_30">
      <!-- 0.025 -->
      <g transform="translate(394.78364 143.34531) scale(0.1 -0.1)">
       <use xlink:href="#DejaVuSans-30"/>
       <use xlink:href="#DejaVuSans-2e" x="63.623047"/>
       <use xlink:href="#DejaVuSans-30" x="95.410156"/>
       <use xlink:href="#DejaVuSans-32" x="159.033203"/>
       <use xlink:href="#DejaVuSans-35" x="222.65625"/>
      </g>
     </g>
    </g>
    <g id="ytick_15">
     <g id="line2d_31">
      <g>
       <use xlink:href="#mab5f42de40" x="430.411765" y="103.304955" style="stroke: #000000; stroke-width: 0.8"/>
      </g>
     </g>
     <g id="text_31">
      <!-- 0.050 -->
      <g transform="translate(394.78364 107.104174) scale(0.1 -0.1)">
       <use xlink:href="#DejaVuSans-30"/>
       <use xlink:href="#DejaVuSans-2e" x="63.623047"/>
       <use xlink:href="#DejaVuSans-30" x="95.410156"/>
       <use xlink:href="#DejaVuSans-35" x="159.033203"/>
       <use xlink:href="#DejaVuSans-30" x="222.65625"/>
      </g>
     </g>
    </g>
    <g id="ytick_16">
     <g id="line2d_32">
      <g>
       <use xlink:href="#mab5f42de40" x="430.411765" y="67.06382" style="stroke: #000000; stroke-width: 0.8"/>
      </g>
     </g>
     <g id="text_32">
      <!-- 0.075 -->
      <g transform="translate(394.78364 70.863038) scale(0.1 -0.1)">
       <use xlink:href="#DejaVuSans-30"/>
       <use xlink:href="#DejaVuSans-2e" x="63.623047"/>
       <use xlink:href="#DejaVuSans-30" x="95.410156"/>
       <use xlink:href="#DejaVuSans-37" x="159.033203"/>
       <use xlink:href="#DejaVuSans-35" x="222.65625"/>
      </g>
     </g>
    </g>
   </g>
   <g id="line2d_33">
    <path d="M 598.209677 55.8 
L 596.583854 57.425823 
L 594.416146 58.509677 
L 591.1645 58.509677 
L 588.996791 59.593532 
L 587.370968 61.219355 
L 584.119322 61.219355 
L 581.409644 61.761323 
L 579.783904 63.387064 
L 577.074227 63.929032 
L 573.822581 63.929032 
L 572.196758 62.303209 
L 569.48708 61.219355 
L 564.609694 61.219355 
L 561.900017 62.303209 
L 560.274194 63.929032 
L 558.648371 63.929032 
L 555.938693 65.554855 
L 551.061307 70.432242 
L 548.351629 72.058065 
L 546.725806 72.058065 
L 545.099983 73.683888 
L 544.016129 75.30971 
L 544.016129 76.935451 
L 538.596774 82.896774 
L 530.467742 91.025806 
L 522.33871 91.025806 
L 516.919355 91.567775 
L 516.919355 93.193515 
L 514.751646 95.903193 
L 511.5 99.154839 
L 511.5 100.780662 
L 509.874177 103.490339 
L 504.996791 108.367725 
L 496.867758 109.993548 
L 487.112903 109.993548 
L 487.112903 113.245194 
L 486.570976 115.954872 
L 484.945153 117.580612 
L 484.403226 119.206435 
L 484.403226 120.832258 
L 482.777403 122.458081 
L 481.693548 124.083904 
L 481.693548 125.709644 
L 480.609694 127.335467 
L 478.983871 128.96129 
L 478.983871 135.4645 
L 477.900017 140.883854 
L 474.648371 144.1355 
L 473.564516 147.387064 
L 473.564516 150.63871 
L 471.938693 152.264533 
L 470.854839 154.97421 
L 470.854839 159.851596 
L 469.770984 162.561274 
L 468.145161 164.187097 
L 464.893557 164.187097 
L 462.725806 165.81292 
L 462.725806 170.690306 
L 461.641952 173.399983 
L 460.016129 175.025806 
L 460.016129 183.154839 
L 460.558056 189.116162 
L 462.183879 190.741902 
L 462.725806 194.535517 
L 462.725806 199.412903 
L 461.099983 201.038726 
L 461.099983 203.206435 
L 464.351629 206.458081 
L 465.435484 208.62579 
L 465.435484 210.251613 
L 467.061307 211.877436 
L 468.145161 213.503259 
L 468.145161 215.128999 
L 469.229016 216.754822 
L 470.854839 218.380645 
L 470.854839 221.632291 
L 471.396766 224.341969 
L 473.022589 225.967709 
L 473.564516 227.593532 
L 473.564516 229.219355 
L 475.190339 230.845178 
L 476.274194 232.471001 
L 476.274194 234.096741 
L 477.358048 235.722564 
L 478.983871 237.348387 
L 478.983871 238.97421 
L 479.525798 240.600033 
L 481.151621 242.225773 
L 481.693548 249.270951 
L 481.693548 259.025806 
L 483.319371 260.651629 
L 484.403226 268.780662 
L 484.403226 289.916112 
L 486.570976 294.793581 
L 489.822581 291.541935 
L 502.829041 291.541935 
L 512.583854 292.62579 
L 515.8355 295.877436 
L 518.003209 296.96129 
L 519.629032 296.96129 
L 521.254855 298.587113 
L 522.33871 300.212936 
L 522.33871 301.838677 
L 523.422564 303.4645 
L 525.048387 305.090323 
L 525.048387 306.716146 
L 525.590356 307.8 
L 527.216096 307.8 
L 528.841919 306.716146 
L 530.467742 305.090323 
L 532.093565 305.090323 
L 533.719388 304.548354 
L 535.345128 302.922614 
L 536.970951 302.380645 
L 538.596774 302.380645 
L 543.47416 297.503259 
L 547.267775 294.251613 
L 548.893515 294.251613 
L 557.022548 286.664549 
L 568.403226 275.283871 
L 571.654872 275.283871 
L 574.364549 274.741902 
L 575.99029 273.116162 
L 577.616112 272.574194 
L 579.241935 272.574194 
L 582.493581 269.322548 
L 585.745145 267.154839 
L 588.996791 267.154839 
L 590.080645 266.070984 
L 590.080645 264.445161 
L 598.209677 256.316129 
L 603.629032 250.354806 
L 603.629032 248.729065 
L 604.712887 247.103242 
L 606.33871 245.477419 
L 606.33871 240.600033 
L 607.422564 236.264533 
L 610.67421 233.012887 
L 611.758065 230.845178 
L 611.758065 229.219355 
L 613.383888 227.593532 
L 614.467742 225.425823 
L 614.467742 222.174177 
L 618.803242 216.754822 
L 625.306452 210.251613 
L 628.558098 210.251613 
L 631.267775 209.709644 
L 632.893515 208.083904 
L 633.435484 206.458081 
L 633.435484 204.832258 
L 636.68713 201.580612 
L 638.854839 198.870935 
L 638.854839 197.245194 
L 639.938693 195.619371 
L 641.564516 193.993548 
L 641.564516 192.367725 
L 642.648371 190.200017 
L 645.900017 186.948371 
L 646.983871 184.780662 
L 646.983871 183.154839 
L 645.358048 181.529016 
L 644.274194 177.735484 
L 644.274194 169.606452 
L 643.190339 165.81292 
L 641.564516 164.187097 
L 641.564516 157.683888 
L 641.022548 152.806419 
L 639.396807 151.180678 
L 638.854839 141.967709 
L 638.854839 128.96129 
L 630.725806 128.96129 
L 624.764483 128.419322 
L 623.138743 126.793581 
L 622.596774 122.999967 
L 622.596774 118.122581 
L 620.970951 116.496758 
L 619.887097 114.329049 
L 619.887097 111.077403 
L 618.803242 108.909694 
L 617.177419 107.283871 
L 617.177419 102.406485 
L 616.635451 98.61287 
L 615.00971 96.98713 
L 614.467742 89.941952 
L 614.467742 80.187097 
L 616.093565 78.561274 
L 616.635451 76.935451 
L 615.00971 75.30971 
L 614.467742 73.683888 
L 614.467742 72.058065 
L 612.841919 70.432242 
L 611.758065 68.806419 
L 611.758065 67.180678 
L 610.67421 65.554855 
L 609.048387 63.929032 
L 609.048387 62.303209 
L 607.964533 60.1355 
L 604.712887 56.883854 
L 601.461323 55.8 
L 601.461323 55.8 
" clip-path="url(#pfcb5aee349)" style="fill: none; stroke: #1f77b4; stroke-width: 1.5; stroke-linecap: square"/>
   </g>
   <g id="line2d_34">
    <defs>
     <path id="m4800c22c81" d="M 0 3 
C 0.795609 3 1.55874 2.683901 2.12132 2.12132 
C 2.683901 1.55874 3 0.795609 3 0 
C 3 -0.795609 2.683901 -1.55874 2.12132 -2.12132 
C 1.55874 -2.683901 0.795609 -3 0 -3 
C -0.795609 -3 -1.55874 -2.683901 -2.12132 -2.12132 
C -2.683901 -1.55874 -3 -0.795609 -3 0 
C -3 0.795609 -2.683901 1.55874 -2.12132 2.12132 
C -1.55874 2.683901 -0.795609 3 0 3 
z
" style="stroke: #ff0000"/>
    </defs>
    <g clip-path="url(#pfcb5aee349)">
     <use xlink:href="#m4800c22c81" x="598.209677" y="55.8" style="fill: #ff0000; stroke: #ff0000"/>
    </g>
   </g>
   <g id="patch_8">
    <path d="M 430.411765 320.4 
L 430.411765 43.2 
" style="fill: none; stroke: #000000; stroke-width: 0.8; stroke-linejoin: miter; stroke-linecap: square"/>
   </g>
   <g id="patch_9">
    <path d="M 676.588235 320.4 
L 676.588235 43.2 
" style="fill: none; stroke: #000000; stroke-width: 0.8; stroke-linejoin: miter; stroke-linecap: square"/>
   </g>
   <g id="patch_10">
    <path d="M 430.411765 320.4 
L 676.588235 320.4 
" style="fill: none; stroke: #000000; stroke-width: 0.8; stroke-linejoin: miter; stroke-linecap: square"/>
   </g>
   <g id="patch_11">
    <path d="M 430.411765 43.2 
L 676.588235 43.2 
" style="fill: none; stroke: #000000; stroke-width: 0.8; stroke-linejoin: miter; stroke-linecap: square"/>
   </g>
   <g id="text_33">
    <!-- Unaligned curve -->
    <g transform="translate(504.465 37.2) scale(0.12 -0.12)">
     <defs>
      <path id="DejaVuSans-55" d="M 556 4666 
L 1191 4666 
L 1191 1831 
Q 1191 1081 1462 751 
Q 1734 422 2344 422 
Q 2950 422 3222 751 
Q 3494 1081 3494 1831 
L 3494 4666 
L 4128 4666 
L 4128 1753 
Q 4128 841 3676 375 
Q 3225 -91 2344 -91 
Q 1459 -91 1007 375 
Q 556 841 556 1753 
L 556 4666 
z
" transform="scale(0.015625)"/>
      <path id="DejaVuSans-61" d="M 2194 1759 
Q 1497 1759 1228 1600 
Q 959 1441 959 1056 
Q 959 750 1161 570 
Q 1363 391 1709 391 
Q 2188 391 2477 730 
Q 2766 1069 2766 1631 
L 2766 1759 
L 2194 1759 
z
M 3341 1997 
L 3341 0 
L 2766 0 
L 2766 531 
Q 2569 213 2275 61 
Q 1981 -91 1556 -91 
Q 1019 -91 701 211 
Q 384 513 384 1019 
Q 384 1609 779 1909 
Q 1175 2209 1959 2209 
L 2766 2209 
L 2766 2266 
Q 2766 2663 2505 2880 
Q 2244 3097 1772 3097 
Q 1472 3097 1187 3025 
Q 903 2953 641 2809 
L 641 3341 
Q 956 3463 1253 3523 
Q 1550 3584 1831 3584 
Q 2591 3584 2966 3190 
Q 3341 2797 3341 1997 
z
" transform="scale(0.015625)"/>
      <path id="DejaVuSans-6c" d="M 603 4863 
L 1178 4863 
L 1178 0 
L 603 0 
L 603 4863 
z
" transform="scale(0.015625)"/>
      <path id="DejaVuSans-69" d="M 603 3500 
L 1178 3500 
L 1178 0 
L 603 0 
L 603 3500 
z
M 603 4863 
L 1178 4863 
L 1178 4134 
L 603 4134 
L 603 4863 
z
" transform="scale(0.015625)"/>
      <path id="DejaVuSans-67" d="M 2906 1791 
Q 2906 2416 2648 2759 
Q 2391 3103 1925 3103 
Q 1463 3103 1205 2759 
Q 947 2416 947 1791 
Q 947 1169 1205 825 
Q 1463 481 1925 481 
Q 2391 481 2648 825 
Q 2906 1169 2906 1791 
z
M 3481 434 
Q 3481 -459 3084 -895 
Q 2688 -1331 1869 -1331 
Q 1566 -1331 1297 -1286 
Q 1028 -1241 775 -1147 
L 775 -588 
Q 1028 -725 1275 -790 
Q 1522 -856 1778 -856 
Q 2344 -856 2625 -561 
Q 2906 -266 2906 331 
L 2906 616 
Q 2728 306 2450 153 
Q 2172 0 1784 0 
Q 1141 0 747 490 
Q 353 981 353 1791 
Q 353 2603 747 3093 
Q 1141 3584 1784 3584 
Q 2172 3584 2450 3431 
Q 2728 3278 2906 2969 
L 2906 3500 
L 3481 3500 
L 3481 434 
z
" transform="scale(0.015625)"/>
      <path id="DejaVuSans-64" d="M 2906 2969 
L 2906 4863 
L 3481 4863 
L 3481 0 
L 2906 0 
L 2906 525 
Q 2725 213 2448 61 
Q 2172 -91 1784 -91 
Q 1150 -91 751 415 
Q 353 922 353 1747 
Q 353 2572 751 3078 
Q 1150 3584 1784 3584 
Q 2172 3584 2448 3432 
Q 2725 3281 2906 2969 
z
M 947 1747 
Q 947 1113 1208 752 
Q 1469 391 1925 391 
Q 2381 391 2643 752 
Q 2906 1113 2906 1747 
Q 2906 2381 2643 2742 
Q 2381 3103 1925 3103 
Q 1469 3103 1208 2742 
Q 947 2381 947 1747 
z
" transform="scale(0.015625)"/>
     </defs>
     <use xlink:href="#DejaVuSans-55"/>
     <use xlink:href="#DejaVuSans-6e" x="73.193359"/>
     <use xlink:href="#DejaVuSans-61" x="136.572266"/>
     <use xlink:href="#DejaVuSans-6c" x="197.851562"/>
     <use xlink:href="#DejaVuSans-69" x="225.634766"/>
     <use xlink:href="#DejaVuSans-67" x="253.417969"/>
     <use xlink:href="#DejaVuSans-6e" x="316.894531"/>
     <use xlink:href="#DejaVuSans-65" x="380.273438"/>
     <use xlink:href="#DejaVuSans-64" x="441.796875"/>
     <use xlink:href="#DejaVuSans-20" x="505.273438"/>
     <use xlink:href="#DejaVuSans-63" x="537.060547"/>
     <use xlink:href="#DejaVuSans-75" x="592.041016"/>
     <use xlink:href="#DejaVuSans-72" x="655.419922"/>
     <use xlink:href="#DejaVuSans-76" x="696.533203"/>
     <use xlink:href="#DejaVuSans-65" x="755.712891"/>
    </g>
   </g>
  </g>
  <g id="axes_3">
   <g id="patch_12">
    <path d="M 725.823529 320.4 
L 972 320.4 
L 972 43.2 
L 725.823529 43.2 
z
" style="fill: #ffffff"/>
   </g>
   <g id="matplotlib.axis_5">
    <g id="xtick_16">
     <g id="line2d_35">
      <g>
       <use xlink:href="#m6273ccfdff" x="734.130246" y="320.4" style="stroke: #000000; stroke-width: 0.8"/>
      </g>
     </g>
     <g id="text_34">
      <!-- −0.075 -->
      <g transform="translate(715.62634 334.998438) scale(0.1 -0.1)">
       <use xlink:href="#DejaVuSans-2212"/>
       <use xlink:href="#DejaVuSans-30" x="83.789062"/>
       <use xlink:href="#DejaVuSans-2e" x="147.412109"/>
       <use xlink:href="#DejaVuSans-30" x="179.199219"/>
       <use xlink:href="#DejaVuSans-37" x="242.822266"/>
       <use xlink:href="#DejaVuSans-35" x="306.445312"/>
      </g>
     </g>
    </g>
    <g id="xtick_17">
     <g id="line2d_36">
      <g>
       <use xlink:href="#m6273ccfdff" x="772.321733" y="320.4" style="stroke: #000000; stroke-width: 0.8"/>
      </g>
     </g>
     <g id="text_35">
      <!-- −0.050 -->
      <g transform="translate(753.817827 334.998438) scale(0.1 -0.1)">
       <use xlink:href="#DejaVuSans-2212"/>
       <use xlink:href="#DejaVuSans-30" x="83.789062"/>
       <use xlink:href="#DejaVuSans-2e" x="147.412109"/>
       <use xlink:href="#DejaVuSans-30" x="179.199219"/>
       <use xlink:href="#DejaVuSans-35" x="242.822266"/>
       <use xlink:href="#DejaVuSans-30" x="306.445312"/>
      </g>
     </g>
    </g>
    <g id="xtick_18">
     <g id="line2d_37">
      <g>
       <use xlink:href="#m6273ccfdff" x="810.51322" y="320.4" style="stroke: #000000; stroke-width: 0.8"/>
      </g>
     </g>
     <g id="text_36">
      <!-- −0.025 -->
      <g transform="translate(792.009314 334.998438) scale(0.1 -0.1)">
       <use xlink:href="#DejaVuSans-2212"/>
       <use xlink:href="#DejaVuSans-30" x="83.789062"/>
       <use xlink:href="#DejaVuSans-2e" x="147.412109"/>
       <use xlink:href="#DejaVuSans-30" x="179.199219"/>
       <use xlink:href="#DejaVuSans-32" x="242.822266"/>
       <use xlink:href="#DejaVuSans-35" x="306.445312"/>
      </g>
     </g>
    </g>
    <g id="xtick_19">
     <g id="line2d_38">
      <g>
       <use xlink:href="#m6273ccfdff" x="848.704707" y="320.4" style="stroke: #000000; stroke-width: 0.8"/>
      </g>
     </g>
     <g id="text_37">
      <!-- 0.000 -->
      <g transform="translate(834.390645 334.998438) scale(0.1 -0.1)">
       <use xlink:href="#DejaVuSans-30"/>
       <use xlink:href="#DejaVuSans-2e" x="63.623047"/>
       <use xlink:href="#DejaVuSans-30" x="95.410156"/>
       <use xlink:href="#DejaVuSans-30" x="159.033203"/>
       <use xlink:href="#DejaVuSans-30" x="222.65625"/>
      </g>
     </g>
    </g>
    <g id="xtick_20">
     <g id="line2d_39">
      <g>
       <use xlink:href="#m6273ccfdff" x="886.896194" y="320.4" style="stroke: #000000; stroke-width: 0.8"/>
      </g>
     </g>
     <g id="text_38">
      <!-- 0.025 -->
      <g transform="translate(872.582132 334.998438) scale(0.1 -0.1)">
       <use xlink:href="#DejaVuSans-30"/>
       <use xlink:href="#DejaVuSans-2e" x="63.623047"/>
       <use xlink:href="#DejaVuSans-30" x="95.410156"/>
       <use xlink:href="#DejaVuSans-32" x="159.033203"/>
       <use xlink:href="#DejaVuSans-35" x="222.65625"/>
      </g>
     </g>
    </g>
    <g id="xtick_21">
     <g id="line2d_40">
      <g>
       <use xlink:href="#m6273ccfdff" x="925.087682" y="320.4" style="stroke: #000000; stroke-width: 0.8"/>
      </g>
     </g>
     <g id="text_39">
      <!-- 0.050 -->
      <g transform="translate(910.773619 334.998438) scale(0.1 -0.1)">
       <use xlink:href="#DejaVuSans-30"/>
       <use xlink:href="#DejaVuSans-2e" x="63.623047"/>
       <use xlink:href="#DejaVuSans-30" x="95.410156"/>
       <use xlink:href="#DejaVuSans-35" x="159.033203"/>
       <use xlink:href="#DejaVuSans-30" x="222.65625"/>
      </g>
     </g>
    </g>
    <g id="xtick_22">
     <g id="line2d_41">
      <g>
       <use xlink:href="#m6273ccfdff" x="963.279169" y="320.4" style="stroke: #000000; stroke-width: 0.8"/>
      </g>
     </g>
     <g id="text_40">
      <!-- 0.075 -->
      <g transform="translate(948.965106 334.998438) scale(0.1 -0.1)">
       <use xlink:href="#DejaVuSans-30"/>
       <use xlink:href="#DejaVuSans-2e" x="63.623047"/>
       <use xlink:href="#DejaVuSans-30" x="95.410156"/>
       <use xlink:href="#DejaVuSans-37" x="159.033203"/>
       <use xlink:href="#DejaVuSans-35" x="222.65625"/>
      </g>
     </g>
    </g>
   </g>
   <g id="matplotlib.axis_6">
    <g id="ytick_17">
     <g id="line2d_42">
      <g>
       <use xlink:href="#mab5f42de40" x="725.823529" y="304.316978" style="stroke: #000000; stroke-width: 0.8"/>
      </g>
     </g>
     <g id="text_41">
      <!-- −0.075 -->
      <g transform="translate(681.815717 308.116197) scale(0.1 -0.1)">
       <use xlink:href="#DejaVuSans-2212"/>
       <use xlink:href="#DejaVuSans-30" x="83.789062"/>
       <use xlink:href="#DejaVuSans-2e" x="147.412109"/>
       <use xlink:href="#DejaVuSans-30" x="179.199219"/>
       <use xlink:href="#DejaVuSans-37" x="242.822266"/>
       <use xlink:href="#DejaVuSans-35" x="306.445312"/>
      </g>
     </g>
    </g>
    <g id="ytick_18">
     <g id="line2d_43">
      <g>
       <use xlink:href="#mab5f42de40" x="725.823529" y="266.125491" style="stroke: #000000; stroke-width: 0.8"/>
      </g>
     </g>
     <g id="text_42">
      <!-- −0.050 -->
      <g transform="translate(681.815717 269.92471) scale(0.1 -0.1)">
       <use xlink:href="#DejaVuSans-2212"/>
       <use xlink:href="#DejaVuSans-30" x="83.789062"/>
       <use xlink:href="#DejaVuSans-2e" x="147.412109"/>
       <use xlink:href="#DejaVuSans-30" x="179.199219"/>
       <use xlink:href="#DejaVuSans-35" x="242.822266"/>
       <use xlink:href="#DejaVuSans-30" x="306.445312"/>
      </g>
     </g>
    </g>
    <g id="ytick_19">
     <g id="line2d_44">
      <g>
       <use xlink:href="#mab5f42de40" x="725.823529" y="227.934004" style="stroke: #000000; stroke-width: 0.8"/>
      </g>
     </g>
     <g id="text_43">
      <!-- −0.025 -->
      <g transform="translate(681.815717 231.733223) scale(0.1 -0.1)">
       <use xlink:href="#DejaVuSans-2212"/>
       <use xlink:href="#DejaVuSans-30" x="83.789062"/>
       <use xlink:href="#DejaVuSans-2e" x="147.412109"/>
       <use xlink:href="#DejaVuSans-30" x="179.199219"/>
       <use xlink:href="#DejaVuSans-32" x="242.822266"/>
       <use xlink:href="#DejaVuSans-35" x="306.445312"/>
      </g>
     </g>
    </g>
    <g id="ytick_20">
     <g id="line2d_45">
      <g>
       <use xlink:href="#mab5f42de40" x="725.823529" y="189.742517" style="stroke: #000000; stroke-width: 0.8"/>
      </g>
     </g>
     <g id="text_44">
      <!-- 0.000 -->
      <g transform="translate(690.195404 193.541736) scale(0.1 -0.1)">
       <use xlink:href="#DejaVuSans-30"/>
       <use xlink:href="#DejaVuSans-2e" x="63.623047"/>
       <use xlink:href="#DejaVuSans-30" x="95.410156"/>
       <use xlink:href="#DejaVuSans-30" x="159.033203"/>
       <use xlink:href="#DejaVuSans-30" x="222.65625"/>
      </g>
     </g>
    </g>
    <g id="ytick_21">
     <g id="line2d_46">
      <g>
       <use xlink:href="#mab5f42de40" x="725.823529" y="151.55103" style="stroke: #000000; stroke-width: 0.8"/>
      </g>
     </g>
     <g id="text_45">
      <!-- 0.025 -->
      <g transform="translate(690.195404 155.350248) scale(0.1 -0.1)">
       <use xlink:href="#DejaVuSans-30"/>
       <use xlink:href="#DejaVuSans-2e" x="63.623047"/>
       <use xlink:href="#DejaVuSans-30" x="95.410156"/>
       <use xlink:href="#DejaVuSans-32" x="159.033203"/>
       <use xlink:href="#DejaVuSans-35" x="222.65625"/>
      </g>
     </g>
    </g>
    <g id="ytick_22">
     <g id="line2d_47">
      <g>
       <use xlink:href="#mab5f42de40" x="725.823529" y="113.359543" style="stroke: #000000; stroke-width: 0.8"/>
      </g>
     </g>
     <g id="text_46">
      <!-- 0.050 -->
      <g transform="translate(690.195404 117.158761) scale(0.1 -0.1)">
       <use xlink:href="#DejaVuSans-30"/>
       <use xlink:href="#DejaVuSans-2e" x="63.623047"/>
       <use xlink:href="#DejaVuSans-30" x="95.410156"/>
       <use xlink:href="#DejaVuSans-35" x="159.033203"/>
       <use xlink:href="#DejaVuSans-30" x="222.65625"/>
      </g>
     </g>
    </g>
    <g id="ytick_23">
     <g id="line2d_48">
      <g>
       <use xlink:href="#mab5f42de40" x="725.823529" y="75.168055" style="stroke: #000000; stroke-width: 0.8"/>
      </g>
     </g>
     <g id="text_47">
      <!-- 0.075 -->
      <g transform="translate(690.195404 78.967274) scale(0.1 -0.1)">
       <use xlink:href="#DejaVuSans-30"/>
       <use xlink:href="#DejaVuSans-2e" x="63.623047"/>
       <use xlink:href="#DejaVuSans-30" x="95.410156"/>
       <use xlink:href="#DejaVuSans-37" x="159.033203"/>
       <use xlink:href="#DejaVuSans-35" x="222.65625"/>
      </g>
     </g>
    </g>
   </g>
   <g id="line2d_49">
    <path d="M 888.803287 57.884578 
L 887.025523 58.202716 
L 885.083177 59.651029 
L 883.305414 59.969168 
L 881.609997 59.722139 
L 875.782761 64.067226 
L 871.332703 66.881653 
L 869.637373 66.634637 
L 860.007593 73.311331 
L 846.410575 83.449967 
L 843.019742 82.955909 
L 840.11173 83.109365 
L 838.169384 84.557679 
L 836.391621 84.875817 
L 834.696204 84.628788 
L 830.811314 87.525562 
L 827.091204 89.292014 
L 823.700372 88.797956 
L 822.405441 89.763523 
L 822.158412 91.458939 
L 812.446285 98.700801 
L 805.889186 104.093876 
L 805.64217 105.789206 
L 804.264892 107.31994 
L 802.322447 108.768327 
L 801.581372 113.85449 
L 799.792383 118.210889 
L 795.907493 121.107663 
L 794.44788 123.203479 
L 794.200851 124.898895 
L 792.258406 126.347282 
L 790.798794 128.443097 
L 790.304736 131.83393 
L 784.960233 136.826519 
L 777.190551 142.619994 
L 773.799718 142.125936 
L 770.891706 142.279392 
L 768.94936 143.727706 
L 768.137163 145.340775 
L 767.890134 147.036191 
L 764.005244 149.932965 
L 761.333035 152.429266 
L 761.086019 154.124596 
L 759.708741 155.65533 
L 757.766296 157.103718 
L 757.519267 158.799134 
L 756.059654 160.894949 
L 752.174764 163.791723 
L 750.715151 165.887539 
L 750.468122 167.582955 
L 751.91651 169.5254 
L 752.470365 173.645996 
L 751.235233 182.12299 
L 751.789089 186.243586 
L 753.237476 188.186031 
L 752.249372 194.967609 
L 752.073452 200.136205 
L 753.521766 202.078551 
L 752.687106 211.768228 
L 750.710898 225.331385 
L 759.187893 226.566518 
L 765.322043 228.037454 
L 766.770356 229.979801 
L 766.759118 234.018148 
L 766.018044 239.10431 
L 767.466431 241.046755 
L 768.267316 243.471934 
L 767.773258 246.862767 
L 768.574143 249.287946 
L 770.02253 251.230391 
L 769.281455 256.316554 
L 769.270217 260.354901 
L 770.718531 262.297247 
L 770.213247 269.72634 
L 768.731085 279.898751 
L 766.78864 281.347138 
L 765.97653 282.960219 
L 767.424843 284.902566 
L 767.742982 286.680329 
L 767.495953 288.375745 
L 768.94434 290.318191 
L 769.827559 292.178289 
L 769.580543 293.873618 
L 770.463762 295.733716 
L 771.912149 297.676162 
L 771.66512 299.371578 
L 772.466005 301.796757 
L 775.36278 305.681648 
L 778.588844 307.305942 
L 781.979676 307.8 
L 783.922121 306.351613 
L 786.347301 305.550728 
L 789.738133 306.044786 
L 792.163312 305.243901 
L 794.105757 303.795514 
L 797.49659 304.289572 
L 800.404602 304.136116 
L 802.346948 302.687802 
L 805.25496 302.534346 
L 808.645793 303.028404 
L 810.09418 304.970849 
L 812.755163 306.512809 
L 817.841325 307.253883 
L 820.831672 306.535346 
L 822.774117 305.086958 
L 824.469533 305.333988 
L 827.542227 304.050282 
L 833.369464 299.705195 
L 836.442158 298.421489 
L 838.137574 298.668519 
L 840.080019 297.220131 
L 841.457297 295.689397 
L 841.704313 293.994067 
L 848.261412 288.600992 
L 857.97354 281.35913 
L 866.450534 282.594263 
L 872.184211 282.852517 
L 872.431227 281.157187 
L 875.103436 278.660886 
L 878.988326 275.764112 
L 879.235355 274.068696 
L 881.342482 271.49006 
L 887.169719 267.144973 
L 895.893743 266.684689 
L 906.066154 268.166851 
L 906.560212 264.776019 
L 907.537047 262.032695 
L 909.47948 260.584394 
L 910.291633 258.971319 
L 910.538662 257.275903 
L 912.481107 255.827515 
L 913.858385 254.296781 
L 914.105402 252.601451 
L 915.48268 251.070717 
L 917.425125 249.62233 
L 918.413228 242.840751 
L 920.366899 237.354104 
L 924.251789 234.457329 
L 925.876084 231.231265 
L 926.370142 227.840433 
L 928.312587 226.392046 
L 929.854547 223.731063 
L 930.595621 218.644901 
L 932.137581 215.983918 
L 934.080026 214.53553 
L 937.470815 215.029582 
L 939.978385 213.663536 
L 940.71946 208.577374 
L 942.261419 205.916391 
L 944.203865 204.468004 
L 945.438997 195.991009 
L 945.779642 189.692171 
L 944.331242 187.749812 
L 944.342523 183.711471 
L 945.083598 178.625309 
L 947.026043 177.176922 
L 947.355407 174.916425 
L 944.458633 171.031534 
L 943.657748 168.606355 
L 943.904777 166.910939 
L 942.45639 164.968494 
L 941.57317 163.108396 
L 941.820187 161.413066 
L 940.936967 159.552968 
L 939.48858 157.610522 
L 939.982638 154.21969 
L 939.829225 151.311684 
L 938.380825 149.369325 
L 938.06273 147.591568 
L 938.309759 145.896152 
L 936.861372 143.953707 
L 935.978152 142.093609 
L 936.225169 140.398279 
L 935.341949 138.538181 
L 933.893562 136.595736 
L 934.140591 134.90032 
L 933.822496 133.122562 
L 932.374096 131.180203 
L 932.879423 123.751117 
L 934.361585 113.578706 
L 932.913197 111.636261 
L 933.018082 102.994584 
L 936.229422 80.954433 
L 934.709968 75.538814 
L 930.825121 78.435595 
L 917.261921 76.459381 
L 907.254235 73.846977 
L 904.357461 69.962086 
L 902.261646 68.502474 
L 900.56623 68.255445 
L 899.117843 66.313 
L 898.234623 64.452902 
L 898.481639 62.757572 
L 897.59842 60.897474 
L 896.150033 58.955029 
L 896.397062 57.259612 
L 895.996576 56.047017 
L 894.301246 55.8 
L 892.441148 56.68322 
L 890.498703 58.131607 
L 890.498703 58.131607 
" clip-path="url(#pdec0f810a3)" style="fill: none; stroke: #1f77b4; stroke-width: 1.5; stroke-linecap: square"/>
   </g>
   <g id="line2d_50">
    <g clip-path="url(#pdec0f810a3)">
     <use xlink:href="#m4800c22c81" x="781.979676" y="307.8" style="fill: #ff0000; stroke: #ff0000"/>
    </g>
   </g>
   <g id="patch_13">
    <path d="M 725.823529 320.4 
L 725.823529 43.2 
" style="fill: none; stroke: #000000; stroke-width: 0.8; stroke-linejoin: miter; stroke-linecap: square"/>
   </g>
   <g id="patch_14">
    <path d="M 972 320.4 
L 972 43.2 
" style="fill: none; stroke: #000000; stroke-width: 0.8; stroke-linejoin: miter; stroke-linecap: square"/>
   </g>
   <g id="patch_15">
    <path d="M 725.823529 320.4 
L 972 320.4 
" style="fill: none; stroke: #000000; stroke-width: 0.8; stroke-linejoin: miter; stroke-linecap: square"/>
   </g>
   <g id="patch_16">
    <path d="M 725.823529 43.2 
L 972 43.2 
" style="fill: none; stroke: #000000; stroke-width: 0.8; stroke-linejoin: miter; stroke-linecap: square"/>
   </g>
   <g id="text_48">
    <!-- Aligned curve -->
    <g transform="translate(807.643015 37.2) scale(0.12 -0.12)">
     <defs>
      <path id="DejaVuSans-41" d="M 2188 4044 
L 1331 1722 
L 3047 1722 
L 2188 4044 
z
M 1831 4666 
L 2547 4666 
L 4325 0 
L 3669 0 
L 3244 1197 
L 1141 1197 
L 716 0 
L 50 0 
L 1831 4666 
z
" transform="scale(0.015625)"/>
     </defs>
     <use xlink:href="#DejaVuSans-41"/>
     <use xlink:href="#DejaVuSans-6c" x="68.408203"/>
     <use xlink:href="#DejaVuSans-69" x="96.191406"/>
     <use xlink:href="#DejaVuSans-67" x="123.974609"/>
     <use xlink:href="#DejaVuSans-6e" x="187.451172"/>
     <use xlink:href="#DejaVuSans-65" x="250.830078"/>
     <use xlink:href="#DejaVuSans-64" x="312.353516"/>
     <use xlink:href="#DejaVuSans-20" x="375.830078"/>
     <use xlink:href="#DejaVuSans-63" x="407.617188"/>
     <use xlink:href="#DejaVuSans-75" x="462.597656"/>
     <use xlink:href="#DejaVuSans-72" x="525.976562"/>
     <use xlink:href="#DejaVuSans-76" x="567.089844"/>
     <use xlink:href="#DejaVuSans-65" x="626.269531"/>
    </g>
   </g>
  </g>
 </g>
 <defs>
  <clipPath id="pd927a10e05">
   <rect x="135" y="43.2" width="246.176471" height="277.2"/>
  </clipPath>
  <clipPath id="pfcb5aee349">
   <rect x="430.411765" y="43.2" width="246.176471" height="277.2"/>
  </clipPath>
  <clipPath id="pdec0f810a3">
   <rect x="725.823529" y="43.2" width="246.176471" height="277.2"/>
  </clipPath>
 </defs>
</svg>
