<?xml version="1.0" encoding="utf-8" standalone="no"?>
<!DOCTYPE svg PUBLIC "-//W3C//DTD SVG 1.1//EN"
  "http://www.w3.org/Graphics/SVG/1.1/DTD/svg11.dtd">
<svg xmlns:xlink="http://www.w3.org/1999/xlink" width="1152pt" height="360pt" viewBox="0 0 1152 360" xmlns="http://www.w3.org/2000/svg" version="1.1">
 <metadata>
  <rdf:RDF xmlns:dc="http://purl.org/dc/elements/1.1/" xmlns:cc="http://creativecommons.org/ns#" xmlns:rdf="http://www.w3.org/1999/02/22-rdf-syntax-ns#">
   <cc:Work>
    <dc:type rdf:resource="http://purl.org/dc/dcmitype/StillImage"/>
    <dc:date>2023-12-26T03:32:26.879238</dc:date>
    <dc:format>image/svg+xml</dc:format>
    <dc:creator>
     <cc:Agent>
      <dc:title>Matplotlib v3.6.2, https://matplotlib.org/</dc:title>
     </cc:Agent>
    </dc:creator>
   </cc:Work>
  </rdf:RDF>
 </metadata>
 <defs>
  <style type="text/css">*{stroke-linejoin: round; stroke-linecap: butt}</style>
 </defs>
 <g id="figure_1">
  <g id="patch_1">
   <path d="M 0 360 
L 1152 360 
L 1152 0 
L 0 0 
z
" style="fill: #ffffff"/>
  </g>
  <g id="axes_1">
   <g id="patch_2">
    <path d="M 144 320.4 
L 406.588235 320.4 
L 406.588235 43.2 
L 144 43.2 
z
" style="fill: #ffffff"/>
   </g>
   <g id="matplotlib.axis_1">
    <g id="xtick_1">
     <g id="line2d_1">
      <defs>
       <path id="m51ea8891d5" d="M 0 0 
L 0 3.5 
" style="stroke: #000000; stroke-width: 0.8"/>
      </defs>
      <g>
       <use xlink:href="#m51ea8891d5" x="175.298447" y="320.4" style="stroke: #000000; stroke-width: 0.8"/>
      </g>
     </g>
     <g id="text_1">
      <!-- −0.075 -->
      <g transform="translate(154.795216 362.518085) rotate(-30) scale(0.14 -0.14)">
       <defs>
        <path id="DejaVuSans-2212" d="M 678 2272 
L 4684 2272 
L 4684 1741 
L 678 1741 
L 678 2272 
z
" transform="scale(0.015625)"/>
        <path id="DejaVuSans-30" d="M 2034 4250 
Q 1547 4250 1301 3770 
Q 1056 3291 1056 2328 
Q 1056 1369 1301 889 
Q 1547 409 2034 409 
Q 2525 409 2770 889 
Q 3016 1369 3016 2328 
Q 3016 3291 2770 3770 
Q 2525 4250 2034 4250 
z
M 2034 4750 
Q 2819 4750 3233 4129 
Q 3647 3509 3647 2328 
Q 3647 1150 3233 529 
Q 2819 -91 2034 -91 
Q 1250 -91 836 529 
Q 422 1150 422 2328 
Q 422 3509 836 4129 
Q 1250 4750 2034 4750 
z
" transform="scale(0.015625)"/>
        <path id="DejaVuSans-2e" d="M 684 794 
L 1344 794 
L 1344 0 
L 684 0 
L 684 794 
z
" transform="scale(0.015625)"/>
        <path id="DejaVuSans-37" d="M 525 4666 
L 3525 4666 
L 3525 4397 
L 1831 0 
L 1172 0 
L 2766 4134 
L 525 4134 
L 525 4666 
z
" transform="scale(0.015625)"/>
        <path id="DejaVuSans-35" d="M 691 4666 
L 3169 4666 
L 3169 4134 
L 1269 4134 
L 1269 2991 
Q 1406 3038 1543 3061 
Q 1681 3084 1819 3084 
Q 2600 3084 3056 2656 
Q 3513 2228 3513 1497 
Q 3513 744 3044 326 
Q 2575 -91 1722 -91 
Q 1428 -91 1123 -41 
Q 819 9 494 109 
L 494 744 
Q 775 591 1075 516 
Q 1375 441 1709 441 
Q 2250 441 2565 725 
Q 2881 1009 2881 1497 
Q 2881 1984 2565 2268 
Q 2250 2553 1709 2553 
Q 1456 2553 1204 2497 
Q 953 2441 691 2322 
L 691 4666 
z
" transform="scale(0.015625)"/>
       </defs>
       <use xlink:href="#DejaVuSans-2212"/>
       <use xlink:href="#DejaVuSans-30" x="83.789062"/>
       <use xlink:href="#DejaVuSans-2e" x="147.412109"/>
       <use xlink:href="#DejaVuSans-30" x="179.199219"/>
       <use xlink:href="#DejaVuSans-37" x="242.822266"/>
       <use xlink:href="#DejaVuSans-35" x="306.445312"/>
      </g>
     </g>
    </g>
    <g id="xtick_2">
     <g id="line2d_2">
      <g>
       <use xlink:href="#m51ea8891d5" x="213.425215" y="320.4" style="stroke: #000000; stroke-width: 0.8"/>
      </g>
     </g>
     <g id="text_2">
      <!-- −0.050 -->
      <g transform="translate(192.921984 362.518085) rotate(-30) scale(0.14 -0.14)">
       <use xlink:href="#DejaVuSans-2212"/>
       <use xlink:href="#DejaVuSans-30" x="83.789062"/>
       <use xlink:href="#DejaVuSans-2e" x="147.412109"/>
       <use xlink:href="#DejaVuSans-30" x="179.199219"/>
       <use xlink:href="#DejaVuSans-35" x="242.822266"/>
       <use xlink:href="#DejaVuSans-30" x="306.445312"/>
      </g>
     </g>
    </g>
    <g id="xtick_3">
     <g id="line2d_3">
      <g>
       <use xlink:href="#m51ea8891d5" x="251.551983" y="320.4" style="stroke: #000000; stroke-width: 0.8"/>
      </g>
     </g>
     <g id="text_3">
      <!-- −0.025 -->
      <g transform="translate(231.048752 362.518085) rotate(-30) scale(0.14 -0.14)">
       <defs>
        <path id="DejaVuSans-32" d="M 1228 531 
L 3431 531 
L 3431 0 
L 469 0 
L 469 531 
Q 828 903 1448 1529 
Q 2069 2156 2228 2338 
Q 2531 2678 2651 2914 
Q 2772 3150 2772 3378 
Q 2772 3750 2511 3984 
Q 2250 4219 1831 4219 
Q 1534 4219 1204 4116 
Q 875 4013 500 3803 
L 500 4441 
Q 881 4594 1212 4672 
Q 1544 4750 1819 4750 
Q 2544 4750 2975 4387 
Q 3406 4025 3406 3419 
Q 3406 3131 3298 2873 
Q 3191 2616 2906 2266 
Q 2828 2175 2409 1742 
Q 1991 1309 1228 531 
z
" transform="scale(0.015625)"/>
       </defs>
       <use xlink:href="#DejaVuSans-2212"/>
       <use xlink:href="#DejaVuSans-30" x="83.789062"/>
       <use xlink:href="#DejaVuSans-2e" x="147.412109"/>
       <use xlink:href="#DejaVuSans-30" x="179.199219"/>
       <use xlink:href="#DejaVuSans-32" x="242.822266"/>
       <use xlink:href="#DejaVuSans-35" x="306.445312"/>
      </g>
     </g>
    </g>
    <g id="xtick_4">
     <g id="line2d_4">
      <g>
       <use xlink:href="#m51ea8891d5" x="289.678752" y="320.4" style="stroke: #000000; stroke-width: 0.8"/>
      </g>
     </g>
     <g id="text_4">
      <!-- 0.000 -->
      <g transform="translate(274.255436 356.652303) rotate(-30) scale(0.14 -0.14)">
       <use xlink:href="#DejaVuSans-30"/>
       <use xlink:href="#DejaVuSans-2e" x="63.623047"/>
       <use xlink:href="#DejaVuSans-30" x="95.410156"/>
       <use xlink:href="#DejaVuSans-30" x="159.033203"/>
       <use xlink:href="#DejaVuSans-30" x="222.65625"/>
      </g>
     </g>
    </g>
    <g id="xtick_5">
     <g id="line2d_5">
      <g>
       <use xlink:href="#m51ea8891d5" x="327.80552" y="320.4" style="stroke: #000000; stroke-width: 0.8"/>
      </g>
     </g>
     <g id="text_5">
      <!-- 0.025 -->
      <g transform="translate(312.382204 356.652303) rotate(-30) scale(0.14 -0.14)">
       <use xlink:href="#DejaVuSans-30"/>
       <use xlink:href="#DejaVuSans-2e" x="63.623047"/>
       <use xlink:href="#DejaVuSans-30" x="95.410156"/>
       <use xlink:href="#DejaVuSans-32" x="159.033203"/>
       <use xlink:href="#DejaVuSans-35" x="222.65625"/>
      </g>
     </g>
    </g>
    <g id="xtick_6">
     <g id="line2d_6">
      <g>
       <use xlink:href="#m51ea8891d5" x="365.932288" y="320.4" style="stroke: #000000; stroke-width: 0.8"/>
      </g>
     </g>
     <g id="text_6">
      <!-- 0.050 -->
      <g transform="translate(350.508972 356.652303) rotate(-30) scale(0.14 -0.14)">
       <use xlink:href="#DejaVuSans-30"/>
       <use xlink:href="#DejaVuSans-2e" x="63.623047"/>
       <use xlink:href="#DejaVuSans-30" x="95.410156"/>
       <use xlink:href="#DejaVuSans-35" x="159.033203"/>
       <use xlink:href="#DejaVuSans-30" x="222.65625"/>
      </g>
     </g>
    </g>
    <g id="xtick_7">
     <g id="line2d_7">
      <g>
       <use xlink:href="#m51ea8891d5" x="404.059056" y="320.4" style="stroke: #000000; stroke-width: 0.8"/>
      </g>
     </g>
     <g id="text_7">
      <!-- 0.075 -->
      <g transform="translate(388.63574 356.652303) rotate(-30) scale(0.14 -0.14)">
       <use xlink:href="#DejaVuSans-30"/>
       <use xlink:href="#DejaVuSans-2e" x="63.623047"/>
       <use xlink:href="#DejaVuSans-30" x="95.410156"/>
       <use xlink:href="#DejaVuSans-37" x="159.033203"/>
       <use xlink:href="#DejaVuSans-35" x="222.65625"/>
      </g>
     </g>
    </g>
   </g>
   <g id="matplotlib.axis_2">
    <g id="ytick_1">
     <g id="line2d_8">
      <defs>
       <path id="m0131e2718d" d="M 0 0 
L -3.5 0 
" style="stroke: #000000; stroke-width: 0.8"/>
      </defs>
      <g>
       <use xlink:href="#m0131e2718d" x="144" y="314.729079" style="stroke: #000000; stroke-width: 0.8"/>
      </g>
     </g>
     <g id="text_8">
      <!-- −0.075 -->
      <g transform="translate(85.189063 320.047986) scale(0.14 -0.14)">
       <use xlink:href="#DejaVuSans-2212"/>
       <use xlink:href="#DejaVuSans-30" x="83.789062"/>
       <use xlink:href="#DejaVuSans-2e" x="147.412109"/>
       <use xlink:href="#DejaVuSans-30" x="179.199219"/>
       <use xlink:href="#DejaVuSans-37" x="242.822266"/>
       <use xlink:href="#DejaVuSans-35" x="306.445312"/>
      </g>
     </g>
    </g>
    <g id="ytick_2">
     <g id="line2d_9">
      <g>
       <use xlink:href="#m0131e2718d" x="144" y="276.602311" style="stroke: #000000; stroke-width: 0.8"/>
      </g>
     </g>
     <g id="text_9">
      <!-- −0.050 -->
      <g transform="translate(85.189063 281.921218) scale(0.14 -0.14)">
       <use xlink:href="#DejaVuSans-2212"/>
       <use xlink:href="#DejaVuSans-30" x="83.789062"/>
       <use xlink:href="#DejaVuSans-2e" x="147.412109"/>
       <use xlink:href="#DejaVuSans-30" x="179.199219"/>
       <use xlink:href="#DejaVuSans-35" x="242.822266"/>
       <use xlink:href="#DejaVuSans-30" x="306.445312"/>
      </g>
     </g>
    </g>
    <g id="ytick_3">
     <g id="line2d_10">
      <g>
       <use xlink:href="#m0131e2718d" x="144" y="238.475543" style="stroke: #000000; stroke-width: 0.8"/>
      </g>
     </g>
     <g id="text_10">
      <!-- −0.025 -->
      <g transform="translate(85.189063 243.79445) scale(0.14 -0.14)">
       <use xlink:href="#DejaVuSans-2212"/>
       <use xlink:href="#DejaVuSans-30" x="83.789062"/>
       <use xlink:href="#DejaVuSans-2e" x="147.412109"/>
       <use xlink:href="#DejaVuSans-30" x="179.199219"/>
       <use xlink:href="#DejaVuSans-32" x="242.822266"/>
       <use xlink:href="#DejaVuSans-35" x="306.445312"/>
      </g>
     </g>
    </g>
    <g id="ytick_4">
     <g id="line2d_11">
      <g>
       <use xlink:href="#m0131e2718d" x="144" y="200.348775" style="stroke: #000000; stroke-width: 0.8"/>
      </g>
     </g>
     <g id="text_11">
      <!-- 0.000 -->
      <g transform="translate(96.920625 205.667681) scale(0.14 -0.14)">
       <use xlink:href="#DejaVuSans-30"/>
       <use xlink:href="#DejaVuSans-2e" x="63.623047"/>
       <use xlink:href="#DejaVuSans-30" x="95.410156"/>
       <use xlink:href="#DejaVuSans-30" x="159.033203"/>
       <use xlink:href="#DejaVuSans-30" x="222.65625"/>
      </g>
     </g>
    </g>
    <g id="ytick_5">
     <g id="line2d_12">
      <g>
       <use xlink:href="#m0131e2718d" x="144" y="162.222007" style="stroke: #000000; stroke-width: 0.8"/>
      </g>
     </g>
     <g id="text_12">
      <!-- 0.025 -->
      <g transform="translate(96.920625 167.540913) scale(0.14 -0.14)">
       <use xlink:href="#DejaVuSans-30"/>
       <use xlink:href="#DejaVuSans-2e" x="63.623047"/>
       <use xlink:href="#DejaVuSans-30" x="95.410156"/>
       <use xlink:href="#DejaVuSans-32" x="159.033203"/>
       <use xlink:href="#DejaVuSans-35" x="222.65625"/>
      </g>
     </g>
    </g>
    <g id="ytick_6">
     <g id="line2d_13">
      <g>
       <use xlink:href="#m0131e2718d" x="144" y="124.095239" style="stroke: #000000; stroke-width: 0.8"/>
      </g>
     </g>
     <g id="text_13">
      <!-- 0.050 -->
      <g transform="translate(96.920625 129.414145) scale(0.14 -0.14)">
       <use xlink:href="#DejaVuSans-30"/>
       <use xlink:href="#DejaVuSans-2e" x="63.623047"/>
       <use xlink:href="#DejaVuSans-30" x="95.410156"/>
       <use xlink:href="#DejaVuSans-35" x="159.033203"/>
       <use xlink:href="#DejaVuSans-30" x="222.65625"/>
      </g>
     </g>
    </g>
    <g id="ytick_7">
     <g id="line2d_14">
      <g>
       <use xlink:href="#m0131e2718d" x="144" y="85.968471" style="stroke: #000000; stroke-width: 0.8"/>
      </g>
     </g>
     <g id="text_14">
      <!-- 0.075 -->
      <g transform="translate(96.920625 91.287377) scale(0.14 -0.14)">
       <use xlink:href="#DejaVuSans-30"/>
       <use xlink:href="#DejaVuSans-2e" x="63.623047"/>
       <use xlink:href="#DejaVuSans-30" x="95.410156"/>
       <use xlink:href="#DejaVuSans-37" x="159.033203"/>
       <use xlink:href="#DejaVuSans-35" x="222.65625"/>
      </g>
     </g>
    </g>
    <g id="ytick_8">
     <g id="line2d_15">
      <g>
       <use xlink:href="#m0131e2718d" x="144" y="47.841703" style="stroke: #000000; stroke-width: 0.8"/>
      </g>
     </g>
     <g id="text_15">
      <!-- 0.100 -->
      <g transform="translate(96.920625 53.160609) scale(0.14 -0.14)">
       <defs>
        <path id="DejaVuSans-31" d="M 794 531 
L 1825 531 
L 1825 4091 
L 703 3866 
L 703 4441 
L 1819 4666 
L 2450 4666 
L 2450 531 
L 3481 531 
L 3481 0 
L 794 0 
L 794 531 
z
" transform="scale(0.015625)"/>
       </defs>
       <use xlink:href="#DejaVuSans-30"/>
       <use xlink:href="#DejaVuSans-2e" x="63.623047"/>
       <use xlink:href="#DejaVuSans-31" x="95.410156"/>
       <use xlink:href="#DejaVuSans-30" x="159.033203"/>
       <use xlink:href="#DejaVuSans-30" x="222.65625"/>
      </g>
     </g>
    </g>
   </g>
   <g id="line2d_16">
    <path d="M 306.794118 55.8 
L 305.01436 57.579758 
L 303.644118 59.359515 
L 303.644118 61.139273 
L 302.825087 62.919031 
L 301.045329 64.698788 
L 300.494118 66.478546 
L 300.494118 68.258208 
L 298.856152 70.037965 
L 297.344118 72.085542 
L 297.344118 75.644962 
L 295.989641 79.204477 
L 292.430125 82.763992 
L 289.957364 84.15 
L 288.177606 84.15 
L 284.901579 87.142538 
L 281.594118 90.701958 
L 281.594118 94.261473 
L 280.523129 97.820988 
L 276.963614 101.380504 
L 275.294118 104.940019 
L 275.294118 108.499535 
L 273.939641 110.704477 
L 272.159883 112.484235 
L 272.144118 116.027985 
L 271.750368 119.19375 
L 269.97061 120.973508 
L 268.994118 122.753265 
L 268.994118 124.533023 
L 265.355871 128.738246 
L 260.016598 134.077519 
L 259.544118 136.172296 
L 257.528072 139.716046 
L 243.290106 153.954012 
L 233.682645 162.9 
L 231.902887 162.9 
L 227.981152 166.112965 
L 222.641879 171.452238 
L 217.302606 172.35 
L 212.294118 172.901212 
L 212.294118 181.8 
L 211.774341 188.619777 
L 209.994583 190.399535 
L 209.144118 192.179292 
L 209.144118 193.958954 
L 207.805406 195.738712 
L 206.025648 197.518469 
L 205.994118 215.032462 
L 205.616133 229.427985 
L 203.836375 231.207742 
L 202.844118 232.9875 
L 202.844118 234.767258 
L 201.647102 236.547015 
L 199.867345 238.326773 
L 199.457829 241.886288 
L 197.678072 243.666046 
L 195.89841 244.8 
L 194.118652 244.8 
L 191.283575 246.910542 
L 187.724156 250.469962 
L 185.629379 251.1 
L 183.849621 251.194496 
L 182.069864 252.974254 
L 180.290106 254.25 
L 178.510348 254.25 
L 176.730591 255.163527 
L 174.950833 256.943285 
L 173.171075 257.4 
L 171.391414 257.4 
L 167.879098 260.865019 
L 165.044118 264.062219 
L 165.044118 265.841977 
L 171.218091 266.85 
L 185.456152 266.85 
L 191.425368 268.03125 
L 193.205125 269.811008 
L 203.064641 270.220523 
L 204.844398 272.000281 
L 205.994118 273.780038 
L 205.994118 275.559796 
L 207.033575 277.339458 
L 208.813333 279.119215 
L 214.940106 279.45 
L 221.822848 279.528731 
L 223.602606 281.308488 
L 224.894118 284.552985 
L 224.894118 291.672015 
L 225.791879 296.097762 
L 227.571637 297.877519 
L 233.273129 298.35 
L 240.39216 298.35 
L 242.36091 300.066792 
L 243.794118 301.846454 
L 243.794118 303.626212 
L 246.062121 304.65 
L 251.401395 304.65 
L 254.409602 305.815485 
L 256.18936 307.595242 
L 257.969118 307.8 
L 259.748875 307.595242 
L 261.528633 305.815485 
L 263.308391 304.65 
L 265.088148 304.65 
L 266.867906 303.626212 
L 268.647664 301.846454 
L 274.727141 301.5 
L 281.720145 301.626027 
L 285.27966 305.185542 
L 288.839079 307.8 
L 292.398595 307.8 
L 295.076114 306.918004 
L 296.855871 305.138246 
L 299.927141 304.65 
L 303.486656 304.65 
L 305.345145 302.948973 
L 307.124902 301.5 
L 308.90466 301.5 
L 311.424621 300.019496 
L 314.984137 296.459981 
L 317.393837 295.2 
L 319.173595 295.2 
L 329.03311 285.75 
L 330.812868 285.75 
L 334.388148 283.355969 
L 341.507083 276.237035 
L 352.65811 273.15 
L 366.896075 273.15 
L 371.211656 271.732462 
L 372.991414 270 
L 374.771075 270 
L 376.094118 267.716231 
L 376.094118 258.817538 
L 376.960348 253.383769 
L 378.740106 251.604012 
L 376.692625 248.548508 
L 373.13311 244.988992 
L 372.944118 239.744215 
L 373.259137 235.034981 
L 375.038895 233.255223 
L 376.094118 231.475465 
L 376.094118 229.695708 
L 377.228072 227.916046 
L 379.007829 226.136288 
L 380.787587 225.9 
L 382.394118 225.206996 
L 382.394118 218.087965 
L 382.97686 212.717258 
L 384.756618 210.9375 
L 385.544118 208.165485 
L 385.544118 204.605969 
L 384.142345 202.448227 
L 382.394118 200.668469 
L 382.394118 198.888712 
L 381.953072 197.55 
L 380.17341 197.55 
L 376.692625 194.998508 
L 371.353352 189.659235 
L 369.794118 185.580038 
L 369.794118 182.020523 
L 373.13311 178.461008 
L 376.094118 173.704477 
L 376.094118 163.026027 
L 376.802887 155.891231 
L 378.582645 154.111473 
L 379.244118 152.331715 
L 379.244118 150.551958 
L 380.771822 148.772296 
L 382.079098 146.834981 
L 378.519583 143.275465 
L 376.094118 139.716046 
L 376.094118 136.156531 
L 375.117625 134.55 
L 373.337868 134.55 
L 370.172102 131.777985 
L 366.644118 128.234235 
L 366.644118 126.454477 
L 365.793652 124.249535 
L 362.234137 120.690019 
L 360.344118 113.791512 
L 360.344118 103.112965 
L 355.36716 94.923042 
L 348.248129 87.804012 
L 346.090387 87.3 
L 344.310629 87.016512 
L 342.530871 85.236754 
L 341.444118 82.070988 
L 341.444118 76.731715 
L 339.239079 72.494962 
L 335.67966 68.935542 
L 335.144118 65.376027 
L 335.002325 61.958208 
L 333.222664 60.178546 
L 330.340387 58.95 
L 325.001114 58.95 
L 321.583391 57.989273 
L 319.803633 56.209515 
L 313.913148 55.8 
L 313.913148 55.8 
" clip-path="url(#p349c49efba)" style="fill: none; stroke: #1f77b4; stroke-width: 1.5; stroke-linecap: square"/>
   </g>
   <g id="line2d_17">
    <defs>
     <path id="m6bb504fa1f" d="M 0 3 
C 0.795609 3 1.55874 2.683901 2.12132 2.12132 
C 2.683901 1.55874 3 0.795609 3 0 
C 3 -0.795609 2.683901 -1.55874 2.12132 -2.12132 
C 1.55874 -2.683901 0.795609 -3 0 -3 
C -0.795609 -3 -1.55874 -2.683901 -2.12132 -2.12132 
C -2.683901 -1.55874 -3 -0.795609 -3 0 
C -3 0.795609 -2.683901 1.55874 -2.12132 2.12132 
C -1.55874 2.683901 -0.795609 3 0 3 
z
" style="stroke: #ff0000"/>
    </defs>
    <g clip-path="url(#p349c49efba)">
     <use xlink:href="#m6bb504fa1f" x="306.794118" y="55.8" style="fill: #ff0000; stroke: #ff0000"/>
    </g>
   </g>
   <g id="patch_3">
    <path d="M 144 320.4 
L 144 43.2 
" style="fill: none; stroke: #000000; stroke-width: 0.8; stroke-linejoin: miter; stroke-linecap: square"/>
   </g>
   <g id="patch_4">
    <path d="M 406.588235 320.4 
L 406.588235 43.2 
" style="fill: none; stroke: #000000; stroke-width: 0.8; stroke-linejoin: miter; stroke-linecap: square"/>
   </g>
   <g id="patch_5">
    <path d="M 144 320.4 
L 406.588235 320.4 
" style="fill: none; stroke: #000000; stroke-width: 0.8; stroke-linejoin: miter; stroke-linecap: square"/>
   </g>
   <g id="patch_6">
    <path d="M 144 43.2 
L 406.588235 43.2 
" style="fill: none; stroke: #000000; stroke-width: 0.8; stroke-linejoin: miter; stroke-linecap: square"/>
   </g>
   <g id="text_16">
    <!-- Reference curve -->
    <g transform="translate(226.364118 37.2) scale(0.12 -0.12)">
     <defs>
      <path id="DejaVuSans-52" d="M 2841 2188 
Q 3044 2119 3236 1894 
Q 3428 1669 3622 1275 
L 4263 0 
L 3584 0 
L 2988 1197 
Q 2756 1666 2539 1819 
Q 2322 1972 1947 1972 
L 1259 1972 
L 1259 0 
L 628 0 
L 628 4666 
L 2053 4666 
Q 2853 4666 3247 4331 
Q 3641 3997 3641 3322 
Q 3641 2881 3436 2590 
Q 3231 2300 2841 2188 
z
M 1259 4147 
L 1259 2491 
L 2053 2491 
Q 2509 2491 2742 2702 
Q 2975 2913 2975 3322 
Q 2975 3731 2742 3939 
Q 2509 4147 2053 4147 
L 1259 4147 
z
" transform="scale(0.015625)"/>
      <path id="DejaVuSans-65" d="M 3597 1894 
L 3597 1613 
L 953 1613 
Q 991 1019 1311 708 
Q 1631 397 2203 397 
Q 2534 397 2845 478 
Q 3156 559 3463 722 
L 3463 178 
Q 3153 47 2828 -22 
Q 2503 -91 2169 -91 
Q 1331 -91 842 396 
Q 353 884 353 1716 
Q 353 2575 817 3079 
Q 1281 3584 2069 3584 
Q 2775 3584 3186 3129 
Q 3597 2675 3597 1894 
z
M 3022 2063 
Q 3016 2534 2758 2815 
Q 2500 3097 2075 3097 
Q 1594 3097 1305 2825 
Q 1016 2553 972 2059 
L 3022 2063 
z
" transform="scale(0.015625)"/>
      <path id="DejaVuSans-66" d="M 2375 4863 
L 2375 4384 
L 1825 4384 
Q 1516 4384 1395 4259 
Q 1275 4134 1275 3809 
L 1275 3500 
L 2222 3500 
L 2222 3053 
L 1275 3053 
L 1275 0 
L 697 0 
L 697 3053 
L 147 3053 
L 147 3500 
L 697 3500 
L 697 3744 
Q 697 4328 969 4595 
Q 1241 4863 1831 4863 
L 2375 4863 
z
" transform="scale(0.015625)"/>
      <path id="DejaVuSans-72" d="M 2631 2963 
Q 2534 3019 2420 3045 
Q 2306 3072 2169 3072 
Q 1681 3072 1420 2755 
Q 1159 2438 1159 1844 
L 1159 0 
L 581 0 
L 581 3500 
L 1159 3500 
L 1159 2956 
Q 1341 3275 1631 3429 
Q 1922 3584 2338 3584 
Q 2397 3584 2469 3576 
Q 2541 3569 2628 3553 
L 2631 2963 
z
" transform="scale(0.015625)"/>
      <path id="DejaVuSans-6e" d="M 3513 2113 
L 3513 0 
L 2938 0 
L 2938 2094 
Q 2938 2591 2744 2837 
Q 2550 3084 2163 3084 
Q 1697 3084 1428 2787 
Q 1159 2491 1159 1978 
L 1159 0 
L 581 0 
L 581 3500 
L 1159 3500 
L 1159 2956 
Q 1366 3272 1645 3428 
Q 1925 3584 2291 3584 
Q 2894 3584 3203 3211 
Q 3513 2838 3513 2113 
z
" transform="scale(0.015625)"/>
      <path id="DejaVuSans-63" d="M 3122 3366 
L 3122 2828 
Q 2878 2963 2633 3030 
Q 2388 3097 2138 3097 
Q 1578 3097 1268 2742 
Q 959 2388 959 1747 
Q 959 1106 1268 751 
Q 1578 397 2138 397 
Q 2388 397 2633 464 
Q 2878 531 3122 666 
L 3122 134 
Q 2881 22 2623 -34 
Q 2366 -91 2075 -91 
Q 1284 -91 818 406 
Q 353 903 353 1747 
Q 353 2603 823 3093 
Q 1294 3584 2113 3584 
Q 2378 3584 2631 3529 
Q 2884 3475 3122 3366 
z
" transform="scale(0.015625)"/>
      <path id="DejaVuSans-20" transform="scale(0.015625)"/>
      <path id="DejaVuSans-75" d="M 544 1381 
L 544 3500 
L 1119 3500 
L 1119 1403 
Q 1119 906 1312 657 
Q 1506 409 1894 409 
Q 2359 409 2629 706 
Q 2900 1003 2900 1516 
L 2900 3500 
L 3475 3500 
L 3475 0 
L 2900 0 
L 2900 538 
Q 2691 219 2414 64 
Q 2138 -91 1772 -91 
Q 1169 -91 856 284 
Q 544 659 544 1381 
z
M 1991 3584 
L 1991 3584 
z
" transform="scale(0.015625)"/>
      <path id="DejaVuSans-76" d="M 191 3500 
L 800 3500 
L 1894 563 
L 2988 3500 
L 3597 3500 
L 2284 0 
L 1503 0 
L 191 3500 
z
" transform="scale(0.015625)"/>
     </defs>
     <use xlink:href="#DejaVuSans-52"/>
     <use xlink:href="#DejaVuSans-65" x="64.982422"/>
     <use xlink:href="#DejaVuSans-66" x="126.505859"/>
     <use xlink:href="#DejaVuSans-65" x="161.710938"/>
     <use xlink:href="#DejaVuSans-72" x="223.234375"/>
     <use xlink:href="#DejaVuSans-65" x="262.097656"/>
     <use xlink:href="#DejaVuSans-6e" x="323.621094"/>
     <use xlink:href="#DejaVuSans-63" x="387"/>
     <use xlink:href="#DejaVuSans-65" x="441.980469"/>
     <use xlink:href="#DejaVuSans-20" x="503.503906"/>
     <use xlink:href="#DejaVuSans-63" x="535.291016"/>
     <use xlink:href="#DejaVuSans-75" x="590.271484"/>
     <use xlink:href="#DejaVuSans-72" x="653.650391"/>
     <use xlink:href="#DejaVuSans-76" x="694.763672"/>
     <use xlink:href="#DejaVuSans-65" x="753.943359"/>
    </g>
   </g>
  </g>
  <g id="axes_2">
   <g id="patch_7">
    <path d="M 459.105882 320.4 
L 721.694118 320.4 
L 721.694118 43.2 
L 459.105882 43.2 
z
" style="fill: #ffffff"/>
   </g>
   <g id="matplotlib.axis_3">
    <g id="xtick_8">
     <g id="line2d_18">
      <g>
       <use xlink:href="#m51ea8891d5" x="477.890323" y="320.4" style="stroke: #000000; stroke-width: 0.8"/>
      </g>
     </g>
     <g id="text_17">
      <!-- −0.075 -->
      <g transform="translate(457.387092 362.518085) rotate(-30) scale(0.14 -0.14)">
       <use xlink:href="#DejaVuSans-2212"/>
       <use xlink:href="#DejaVuSans-30" x="83.789062"/>
       <use xlink:href="#DejaVuSans-2e" x="147.412109"/>
       <use xlink:href="#DejaVuSans-30" x="179.199219"/>
       <use xlink:href="#DejaVuSans-37" x="242.822266"/>
       <use xlink:href="#DejaVuSans-35" x="306.445312"/>
      </g>
     </g>
    </g>
    <g id="xtick_9">
     <g id="line2d_19">
      <g>
       <use xlink:href="#m51ea8891d5" x="518.745698" y="320.4" style="stroke: #000000; stroke-width: 0.8"/>
      </g>
     </g>
     <g id="text_18">
      <!-- −0.050 -->
      <g transform="translate(498.242466 362.518085) rotate(-30) scale(0.14 -0.14)">
       <use xlink:href="#DejaVuSans-2212"/>
       <use xlink:href="#DejaVuSans-30" x="83.789062"/>
       <use xlink:href="#DejaVuSans-2e" x="147.412109"/>
       <use xlink:href="#DejaVuSans-30" x="179.199219"/>
       <use xlink:href="#DejaVuSans-35" x="242.822266"/>
       <use xlink:href="#DejaVuSans-30" x="306.445312"/>
      </g>
     </g>
    </g>
    <g id="xtick_10">
     <g id="line2d_20">
      <g>
       <use xlink:href="#m51ea8891d5" x="559.601073" y="320.4" style="stroke: #000000; stroke-width: 0.8"/>
      </g>
     </g>
     <g id="text_19">
      <!-- −0.025 -->
      <g transform="translate(539.097841 362.518085) rotate(-30) scale(0.14 -0.14)">
       <use xlink:href="#DejaVuSans-2212"/>
       <use xlink:href="#DejaVuSans-30" x="83.789062"/>
       <use xlink:href="#DejaVuSans-2e" x="147.412109"/>
       <use xlink:href="#DejaVuSans-30" x="179.199219"/>
       <use xlink:href="#DejaVuSans-32" x="242.822266"/>
       <use xlink:href="#DejaVuSans-35" x="306.445312"/>
      </g>
     </g>
    </g>
    <g id="xtick_11">
     <g id="line2d_21">
      <g>
       <use xlink:href="#m51ea8891d5" x="600.456447" y="320.4" style="stroke: #000000; stroke-width: 0.8"/>
      </g>
     </g>
     <g id="text_20">
      <!-- 0.000 -->
      <g transform="translate(585.033131 356.652303) rotate(-30) scale(0.14 -0.14)">
       <use xlink:href="#DejaVuSans-30"/>
       <use xlink:href="#DejaVuSans-2e" x="63.623047"/>
       <use xlink:href="#DejaVuSans-30" x="95.410156"/>
       <use xlink:href="#DejaVuSans-30" x="159.033203"/>
       <use xlink:href="#DejaVuSans-30" x="222.65625"/>
      </g>
     </g>
    </g>
    <g id="xtick_12">
     <g id="line2d_22">
      <g>
       <use xlink:href="#m51ea8891d5" x="641.311822" y="320.4" style="stroke: #000000; stroke-width: 0.8"/>
      </g>
     </g>
     <g id="text_21">
      <!-- 0.025 -->
      <g transform="translate(625.888506 356.652303) rotate(-30) scale(0.14 -0.14)">
       <use xlink:href="#DejaVuSans-30"/>
       <use xlink:href="#DejaVuSans-2e" x="63.623047"/>
       <use xlink:href="#DejaVuSans-30" x="95.410156"/>
       <use xlink:href="#DejaVuSans-32" x="159.033203"/>
       <use xlink:href="#DejaVuSans-35" x="222.65625"/>
      </g>
     </g>
    </g>
    <g id="xtick_13">
     <g id="line2d_23">
      <g>
       <use xlink:href="#m51ea8891d5" x="682.167197" y="320.4" style="stroke: #000000; stroke-width: 0.8"/>
      </g>
     </g>
     <g id="text_22">
      <!-- 0.050 -->
      <g transform="translate(666.743881 356.652303) rotate(-30) scale(0.14 -0.14)">
       <use xlink:href="#DejaVuSans-30"/>
       <use xlink:href="#DejaVuSans-2e" x="63.623047"/>
       <use xlink:href="#DejaVuSans-30" x="95.410156"/>
       <use xlink:href="#DejaVuSans-35" x="159.033203"/>
       <use xlink:href="#DejaVuSans-30" x="222.65625"/>
      </g>
     </g>
    </g>
   </g>
   <g id="matplotlib.axis_4">
    <g id="ytick_9">
     <g id="line2d_24">
      <g>
       <use xlink:href="#m0131e2718d" x="459.105882" y="311.370484" style="stroke: #000000; stroke-width: 0.8"/>
      </g>
     </g>
     <g id="text_23">
      <!-- −0.08 -->
      <g transform="translate(409.202445 316.689391) scale(0.14 -0.14)">
       <defs>
        <path id="DejaVuSans-38" d="M 2034 2216 
Q 1584 2216 1326 1975 
Q 1069 1734 1069 1313 
Q 1069 891 1326 650 
Q 1584 409 2034 409 
Q 2484 409 2743 651 
Q 3003 894 3003 1313 
Q 3003 1734 2745 1975 
Q 2488 2216 2034 2216 
z
M 1403 2484 
Q 997 2584 770 2862 
Q 544 3141 544 3541 
Q 544 4100 942 4425 
Q 1341 4750 2034 4750 
Q 2731 4750 3128 4425 
Q 3525 4100 3525 3541 
Q 3525 3141 3298 2862 
Q 3072 2584 2669 2484 
Q 3125 2378 3379 2068 
Q 3634 1759 3634 1313 
Q 3634 634 3220 271 
Q 2806 -91 2034 -91 
Q 1263 -91 848 271 
Q 434 634 434 1313 
Q 434 1759 690 2068 
Q 947 2378 1403 2484 
z
M 1172 3481 
Q 1172 3119 1398 2916 
Q 1625 2713 2034 2713 
Q 2441 2713 2670 2916 
Q 2900 3119 2900 3481 
Q 2900 3844 2670 4047 
Q 2441 4250 2034 4250 
Q 1625 4250 1398 4047 
Q 1172 3844 1172 3481 
z
" transform="scale(0.015625)"/>
       </defs>
       <use xlink:href="#DejaVuSans-2212"/>
       <use xlink:href="#DejaVuSans-30" x="83.789062"/>
       <use xlink:href="#DejaVuSans-2e" x="147.412109"/>
       <use xlink:href="#DejaVuSans-30" x="179.199219"/>
       <use xlink:href="#DejaVuSans-38" x="242.822266"/>
      </g>
     </g>
    </g>
    <g id="ytick_10">
     <g id="line2d_25">
      <g>
       <use xlink:href="#m0131e2718d" x="459.105882" y="278.686185" style="stroke: #000000; stroke-width: 0.8"/>
      </g>
     </g>
     <g id="text_24">
      <!-- −0.06 -->
      <g transform="translate(409.202445 284.005091) scale(0.14 -0.14)">
       <defs>
        <path id="DejaVuSans-36" d="M 2113 2584 
Q 1688 2584 1439 2293 
Q 1191 2003 1191 1497 
Q 1191 994 1439 701 
Q 1688 409 2113 409 
Q 2538 409 2786 701 
Q 3034 994 3034 1497 
Q 3034 2003 2786 2293 
Q 2538 2584 2113 2584 
z
M 3366 4563 
L 3366 3988 
Q 3128 4100 2886 4159 
Q 2644 4219 2406 4219 
Q 1781 4219 1451 3797 
Q 1122 3375 1075 2522 
Q 1259 2794 1537 2939 
Q 1816 3084 2150 3084 
Q 2853 3084 3261 2657 
Q 3669 2231 3669 1497 
Q 3669 778 3244 343 
Q 2819 -91 2113 -91 
Q 1303 -91 875 529 
Q 447 1150 447 2328 
Q 447 3434 972 4092 
Q 1497 4750 2381 4750 
Q 2619 4750 2861 4703 
Q 3103 4656 3366 4563 
z
" transform="scale(0.015625)"/>
       </defs>
       <use xlink:href="#DejaVuSans-2212"/>
       <use xlink:href="#DejaVuSans-30" x="83.789062"/>
       <use xlink:href="#DejaVuSans-2e" x="147.412109"/>
       <use xlink:href="#DejaVuSans-30" x="179.199219"/>
       <use xlink:href="#DejaVuSans-36" x="242.822266"/>
      </g>
     </g>
    </g>
    <g id="ytick_11">
     <g id="line2d_26">
      <g>
       <use xlink:href="#m0131e2718d" x="459.105882" y="246.001885" style="stroke: #000000; stroke-width: 0.8"/>
      </g>
     </g>
     <g id="text_25">
      <!-- −0.04 -->
      <g transform="translate(409.202445 251.320791) scale(0.14 -0.14)">
       <defs>
        <path id="DejaVuSans-34" d="M 2419 4116 
L 825 1625 
L 2419 1625 
L 2419 4116 
z
M 2253 4666 
L 3047 4666 
L 3047 1625 
L 3713 1625 
L 3713 1100 
L 3047 1100 
L 3047 0 
L 2419 0 
L 2419 1100 
L 313 1100 
L 313 1709 
L 2253 4666 
z
" transform="scale(0.015625)"/>
       </defs>
       <use xlink:href="#DejaVuSans-2212"/>
       <use xlink:href="#DejaVuSans-30" x="83.789062"/>
       <use xlink:href="#DejaVuSans-2e" x="147.412109"/>
       <use xlink:href="#DejaVuSans-30" x="179.199219"/>
       <use xlink:href="#DejaVuSans-34" x="242.822266"/>
      </g>
     </g>
    </g>
    <g id="ytick_12">
     <g id="line2d_27">
      <g>
       <use xlink:href="#m0131e2718d" x="459.105882" y="213.317585" style="stroke: #000000; stroke-width: 0.8"/>
      </g>
     </g>
     <g id="text_26">
      <!-- −0.02 -->
      <g transform="translate(409.202445 218.636491) scale(0.14 -0.14)">
       <use xlink:href="#DejaVuSans-2212"/>
       <use xlink:href="#DejaVuSans-30" x="83.789062"/>
       <use xlink:href="#DejaVuSans-2e" x="147.412109"/>
       <use xlink:href="#DejaVuSans-30" x="179.199219"/>
       <use xlink:href="#DejaVuSans-32" x="242.822266"/>
      </g>
     </g>
    </g>
    <g id="ytick_13">
     <g id="line2d_28">
      <g>
       <use xlink:href="#m0131e2718d" x="459.105882" y="180.633285" style="stroke: #000000; stroke-width: 0.8"/>
      </g>
     </g>
     <g id="text_27">
      <!-- 0.00 -->
      <g transform="translate(420.934007 185.952191) scale(0.14 -0.14)">
       <use xlink:href="#DejaVuSans-30"/>
       <use xlink:href="#DejaVuSans-2e" x="63.623047"/>
       <use xlink:href="#DejaVuSans-30" x="95.410156"/>
       <use xlink:href="#DejaVuSans-30" x="159.033203"/>
      </g>
     </g>
    </g>
    <g id="ytick_14">
     <g id="line2d_29">
      <g>
       <use xlink:href="#m0131e2718d" x="459.105882" y="147.948985" style="stroke: #000000; stroke-width: 0.8"/>
      </g>
     </g>
     <g id="text_28">
      <!-- 0.02 -->
      <g transform="translate(420.934007 153.267892) scale(0.14 -0.14)">
       <use xlink:href="#DejaVuSans-30"/>
       <use xlink:href="#DejaVuSans-2e" x="63.623047"/>
       <use xlink:href="#DejaVuSans-30" x="95.410156"/>
       <use xlink:href="#DejaVuSans-32" x="159.033203"/>
      </g>
     </g>
    </g>
    <g id="ytick_15">
     <g id="line2d_30">
      <g>
       <use xlink:href="#m0131e2718d" x="459.105882" y="115.264686" style="stroke: #000000; stroke-width: 0.8"/>
      </g>
     </g>
     <g id="text_29">
      <!-- 0.04 -->
      <g transform="translate(420.934007 120.583592) scale(0.14 -0.14)">
       <use xlink:href="#DejaVuSans-30"/>
       <use xlink:href="#DejaVuSans-2e" x="63.623047"/>
       <use xlink:href="#DejaVuSans-30" x="95.410156"/>
       <use xlink:href="#DejaVuSans-34" x="159.033203"/>
      </g>
     </g>
    </g>
    <g id="ytick_16">
     <g id="line2d_31">
      <g>
       <use xlink:href="#m0131e2718d" x="459.105882" y="82.580386" style="stroke: #000000; stroke-width: 0.8"/>
      </g>
     </g>
     <g id="text_30">
      <!-- 0.06 -->
      <g transform="translate(420.934007 87.899292) scale(0.14 -0.14)">
       <use xlink:href="#DejaVuSans-30"/>
       <use xlink:href="#DejaVuSans-2e" x="63.623047"/>
       <use xlink:href="#DejaVuSans-30" x="95.410156"/>
       <use xlink:href="#DejaVuSans-36" x="159.033203"/>
      </g>
     </g>
    </g>
    <g id="ytick_17">
     <g id="line2d_32">
      <g>
       <use xlink:href="#m0131e2718d" x="459.105882" y="49.896086" style="stroke: #000000; stroke-width: 0.8"/>
      </g>
     </g>
     <g id="text_31">
      <!-- 0.08 -->
      <g transform="translate(420.934007 55.214992) scale(0.14 -0.14)">
       <use xlink:href="#DejaVuSans-30"/>
       <use xlink:href="#DejaVuSans-2e" x="63.623047"/>
       <use xlink:href="#DejaVuSans-30" x="95.410156"/>
       <use xlink:href="#DejaVuSans-38" x="159.033203"/>
      </g>
     </g>
    </g>
   </g>
   <g id="line2d_33">
    <path d="M 564.322769 64.242332 
L 562.326027 66.238846 
L 559.807208 67.974322 
L 553.817438 67.974322 
L 548.872278 68.496855 
L 546.875536 70.493369 
L 544.87925 71.706311 
L 542.882508 71.706311 
L 539.8407 73.796216 
L 535.847672 77.789472 
L 533.160748 79.17029 
L 531.164007 79.17029 
L 530.734864 80.737662 
L 530.734864 82.734404 
L 528.906226 84.730918 
L 526.909484 86.634269 
L 524.912742 86.634269 
L 523.270885 86.988699 
L 523.270885 88.985441 
L 522.039493 91.597879 
L 518.046009 95.591135 
L 514.929944 97.830237 
L 512.933202 97.830237 
L 510.93646 98.968467 
L 508.940173 100.965209 
L 508.342928 105.760715 
L 508.342928 111.750485 
L 506.682393 114.418958 
L 504.685651 116.415472 
L 504.610938 118.412214 
L 503.677941 121.155171 
L 493.694687 131.138198 
L 485.950991 139.777762 
L 485.950991 143.771018 
L 484.532817 147.764274 
L 480.539788 151.75753 
L 478.487012 156.72114 
L 478.487012 162.71091 
L 477.255619 166.237668 
L 475.258878 168.234182 
L 474.755023 176.202016 
L 474.755023 186.185042 
L 473.001097 189.15191 
L 471.041711 191.148652 
L 473.038453 193.145166 
L 474.755023 195.70157 
L 474.755023 201.691568 
L 475.296234 206.599143 
L 477.292976 208.595657 
L 477.684762 210.592399 
L 475.68802 212.588913 
L 476.882056 215.649172 
L 480.87554 219.642428 
L 482.219001 223.635684 
L 482.219001 227.62894 
L 485.391101 231.621968 
L 489.384585 235.615224 
L 490.018732 239.981816 
L 496.008502 245.971586 
L 500.878949 251.214913 
L 500.878949 253.211655 
L 502.7823 256.477145 
L 508.77207 262.466915 
L 512.970558 265.769763 
L 514.9673 265.769763 
L 516.964042 266.92667 
L 518.960328 268.923184 
L 520.95707 269.501752 
L 522.953812 269.501752 
L 524.950098 271.181193 
L 526.94684 273.177707 
L 528.943582 273.233741 
L 530.940324 273.438974 
L 532.93661 275.435715 
L 536.332848 276.965731 
L 544.319361 276.965731 
L 550.122349 277.693496 
L 552.119091 279.69001 
L 558.071505 280.69772 
L 568.054759 280.69772 
L 573.036819 281.948019 
L 575.033561 283.944533 
L 577.030303 284.42971 
L 579.026589 284.42971 
L 581.023331 286.202314 
L 583.020073 288.161699 
L 585.016815 288.161699 
L 587.013101 288.460322 
L 589.009843 290.456836 
L 591.566474 291.893689 
L 595.559503 291.893689 
L 598.731603 292.714617 
L 600.728345 294.711359 
L 602.725086 295.625678 
L 604.721373 295.625678 
L 606.718115 296.96914 
L 608.714857 298.965882 
L 620.339967 299.357668 
L 634.31625 299.357668 
L 637.096564 297.491673 
L 639.354344 295.625678 
L 645.344114 295.625678 
L 650.942099 294.841878 
L 654.935582 290.848622 
L 658.928611 288.161699 
L 662.922095 288.161699 
L 666.000804 287.24738 
L 667.997546 285.250638 
L 668.818474 282.078538 
L 668.818474 278.085282 
L 673.129031 272.655174 
L 679.118801 266.665404 
L 683.41068 265.769763 
L 687.403708 265.769763 
L 687.478421 263.810377 
L 687.702559 261.813863 
L 689.698845 259.817349 
L 691.210411 257.33543 
L 691.210411 253.342174 
L 693.449513 248.602702 
L 699.439283 242.612704 
L 701.398669 238.638126 
L 699.401927 236.641612 
L 699.943138 234.64487 
L 701.93988 232.648356 
L 702.406379 227.591583 
L 702.406379 221.601585 
L 704.197661 219.194607 
L 706.082334 217.197865 
L 704.085592 215.201351 
L 702.723452 213.204609 
L 704.720194 211.208095 
L 706.138368 209.211353 
L 706.138368 207.214839 
L 705.298762 205.218325 
L 703.30202 203.221583 
L 703.50748 201.225069 
L 705.503766 199.228327 
L 706.138368 195.869673 
L 706.138368 191.876417 
L 707.762002 189.506567 
L 709.758289 187.510053 
L 707.985685 185.513311 
L 706.138368 182.919551 
L 706.138368 172.936525 
L 705.31744 164.185119 
L 701.323956 160.191863 
L 699.346348 156.870338 
L 701.342634 154.873596 
L 702.406379 152.877082 
L 702.406379 150.880568 
L 701.212343 148.883826 
L 699.215601 146.887312 
L 698.674389 144.89057 
L 698.674389 142.894056 
L 696.95782 140.897314 
L 694.961078 138.9008 
L 694.9424 134.926222 
L 694.457223 130.932966 
L 690.464195 126.93971 
L 687.478421 123.450309 
L 687.478421 121.453794 
L 685.948178 118.692159 
L 681.95515 114.698903 
L 680.014442 111.731807 
L 680.014442 109.735293 
L 676.151706 105.163697 
L 670.161935 99.173699 
L 668.818474 96.281544 
L 668.818474 94.284802 
L 664.937059 93.94905 
L 660.944031 89.955794 
L 657.622506 86.29829 
L 657.622506 84.301776 
L 657.02526 82.90228 
L 655.028973 82.90228 
L 653.032231 82.043995 
L 651.035489 80.047253 
L 649.038748 80.289841 
L 647.042461 82.286583 
L 645.045719 81.521462 
L 643.048977 79.52472 
L 641.052691 79.17029 
L 639.055949 79.17029 
L 637.059207 77.266939 
L 634.894817 75.438301 
L 630.901333 75.438301 
L 627.337448 75.009158 
L 625.340706 73.012416 
L 623.343964 71.706311 
L 621.347677 71.706311 
L 619.350935 70.754636 
L 617.354194 68.758122 
L 614.144737 67.974322 
L 610.151709 67.974322 
L 607.632434 66.500113 
L 605.635692 64.503599 
L 586.285564 64.242332 
L 586.285564 64.242332 
" clip-path="url(#p7f7960bfdd)" style="fill: none; stroke: #1f77b4; stroke-width: 1.5; stroke-linecap: square"/>
   </g>
   <g id="line2d_34">
    <g clip-path="url(#p7f7960bfdd)">
     <use xlink:href="#m6bb504fa1f" x="564.322769" y="64.242332" style="fill: #ff0000; stroke: #ff0000"/>
    </g>
   </g>
   <g id="patch_8">
    <path d="M 459.105882 320.4 
L 459.105882 43.2 
" style="fill: none; stroke: #000000; stroke-width: 0.8; stroke-linejoin: miter; stroke-linecap: square"/>
   </g>
   <g id="patch_9">
    <path d="M 721.694118 320.4 
L 721.694118 43.2 
" style="fill: none; stroke: #000000; stroke-width: 0.8; stroke-linejoin: miter; stroke-linecap: square"/>
   </g>
   <g id="patch_10">
    <path d="M 459.105882 320.4 
L 721.694118 320.4 
" style="fill: none; stroke: #000000; stroke-width: 0.8; stroke-linejoin: miter; stroke-linecap: square"/>
   </g>
   <g id="patch_11">
    <path d="M 459.105882 43.2 
L 721.694118 43.2 
" style="fill: none; stroke: #000000; stroke-width: 0.8; stroke-linejoin: miter; stroke-linecap: square"/>
   </g>
   <g id="text_32">
    <!-- Unaligned curve -->
    <g transform="translate(541.365 37.2) scale(0.12 -0.12)">
     <defs>
      <path id="DejaVuSans-55" d="M 556 4666 
L 1191 4666 
L 1191 1831 
Q 1191 1081 1462 751 
Q 1734 422 2344 422 
Q 2950 422 3222 751 
Q 3494 1081 3494 1831 
L 3494 4666 
L 4128 4666 
L 4128 1753 
Q 4128 841 3676 375 
Q 3225 -91 2344 -91 
Q 1459 -91 1007 375 
Q 556 841 556 1753 
L 556 4666 
z
" transform="scale(0.015625)"/>
      <path id="DejaVuSans-61" d="M 2194 1759 
Q 1497 1759 1228 1600 
Q 959 1441 959 1056 
Q 959 750 1161 570 
Q 1363 391 1709 391 
Q 2188 391 2477 730 
Q 2766 1069 2766 1631 
L 2766 1759 
L 2194 1759 
z
M 3341 1997 
L 3341 0 
L 2766 0 
L 2766 531 
Q 2569 213 2275 61 
Q 1981 -91 1556 -91 
Q 1019 -91 701 211 
Q 384 513 384 1019 
Q 384 1609 779 1909 
Q 1175 2209 1959 2209 
L 2766 2209 
L 2766 2266 
Q 2766 2663 2505 2880 
Q 2244 3097 1772 3097 
Q 1472 3097 1187 3025 
Q 903 2953 641 2809 
L 641 3341 
Q 956 3463 1253 3523 
Q 1550 3584 1831 3584 
Q 2591 3584 2966 3190 
Q 3341 2797 3341 1997 
z
" transform="scale(0.015625)"/>
      <path id="DejaVuSans-6c" d="M 603 4863 
L 1178 4863 
L 1178 0 
L 603 0 
L 603 4863 
z
" transform="scale(0.015625)"/>
      <path id="DejaVuSans-69" d="M 603 3500 
L 1178 3500 
L 1178 0 
L 603 0 
L 603 3500 
z
M 603 4863 
L 1178 4863 
L 1178 4134 
L 603 4134 
L 603 4863 
z
" transform="scale(0.015625)"/>
      <path id="DejaVuSans-67" d="M 2906 1791 
Q 2906 2416 2648 2759 
Q 2391 3103 1925 3103 
Q 1463 3103 1205 2759 
Q 947 2416 947 1791 
Q 947 1169 1205 825 
Q 1463 481 1925 481 
Q 2391 481 2648 825 
Q 2906 1169 2906 1791 
z
M 3481 434 
Q 3481 -459 3084 -895 
Q 2688 -1331 1869 -1331 
Q 1566 -1331 1297 -1286 
Q 1028 -1241 775 -1147 
L 775 -588 
Q 1028 -725 1275 -790 
Q 1522 -856 1778 -856 
Q 2344 -856 2625 -561 
Q 2906 -266 2906 331 
L 2906 616 
Q 2728 306 2450 153 
Q 2172 0 1784 0 
Q 1141 0 747 490 
Q 353 981 353 1791 
Q 353 2603 747 3093 
Q 1141 3584 1784 3584 
Q 2172 3584 2450 3431 
Q 2728 3278 2906 2969 
L 2906 3500 
L 3481 3500 
L 3481 434 
z
" transform="scale(0.015625)"/>
      <path id="DejaVuSans-64" d="M 2906 2969 
L 2906 4863 
L 3481 4863 
L 3481 0 
L 2906 0 
L 2906 525 
Q 2725 213 2448 61 
Q 2172 -91 1784 -91 
Q 1150 -91 751 415 
Q 353 922 353 1747 
Q 353 2572 751 3078 
Q 1150 3584 1784 3584 
Q 2172 3584 2448 3432 
Q 2725 3281 2906 2969 
z
M 947 1747 
Q 947 1113 1208 752 
Q 1469 391 1925 391 
Q 2381 391 2643 752 
Q 2906 1113 2906 1747 
Q 2906 2381 2643 2742 
Q 2381 3103 1925 3103 
Q 1469 3103 1208 2742 
Q 947 2381 947 1747 
z
" transform="scale(0.015625)"/>
     </defs>
     <use xlink:href="#DejaVuSans-55"/>
     <use xlink:href="#DejaVuSans-6e" x="73.193359"/>
     <use xlink:href="#DejaVuSans-61" x="136.572266"/>
     <use xlink:href="#DejaVuSans-6c" x="197.851562"/>
     <use xlink:href="#DejaVuSans-69" x="225.634766"/>
     <use xlink:href="#DejaVuSans-67" x="253.417969"/>
     <use xlink:href="#DejaVuSans-6e" x="316.894531"/>
     <use xlink:href="#DejaVuSans-65" x="380.273438"/>
     <use xlink:href="#DejaVuSans-64" x="441.796875"/>
     <use xlink:href="#DejaVuSans-20" x="505.273438"/>
     <use xlink:href="#DejaVuSans-63" x="537.060547"/>
     <use xlink:href="#DejaVuSans-75" x="592.041016"/>
     <use xlink:href="#DejaVuSans-72" x="655.419922"/>
     <use xlink:href="#DejaVuSans-76" x="696.533203"/>
     <use xlink:href="#DejaVuSans-65" x="755.712891"/>
    </g>
   </g>
  </g>
  <g id="axes_3">
   <g id="patch_12">
    <path d="M 774.211765 320.4 
L 1036.8 320.4 
L 1036.8 43.2 
L 774.211765 43.2 
z
" style="fill: #ffffff"/>
   </g>
   <g id="matplotlib.axis_5">
    <g id="xtick_14">
     <g id="line2d_35">
      <g>
       <use xlink:href="#m51ea8891d5" x="797.87141" y="320.4" style="stroke: #000000; stroke-width: 0.8"/>
      </g>
     </g>
     <g id="text_33">
      <!-- −0.06 -->
      <g transform="translate(781.225239 358.064335) rotate(-30) scale(0.14 -0.14)">
       <use xlink:href="#DejaVuSans-2212"/>
       <use xlink:href="#DejaVuSans-30" x="83.789062"/>
       <use xlink:href="#DejaVuSans-2e" x="147.412109"/>
       <use xlink:href="#DejaVuSans-30" x="179.199219"/>
       <use xlink:href="#DejaVuSans-36" x="242.822266"/>
      </g>
     </g>
    </g>
    <g id="xtick_15">
     <g id="line2d_36">
      <g>
       <use xlink:href="#m51ea8891d5" x="831.785274" y="320.4" style="stroke: #000000; stroke-width: 0.8"/>
      </g>
     </g>
     <g id="text_34">
      <!-- −0.04 -->
      <g transform="translate(815.139104 358.064335) rotate(-30) scale(0.14 -0.14)">
       <use xlink:href="#DejaVuSans-2212"/>
       <use xlink:href="#DejaVuSans-30" x="83.789062"/>
       <use xlink:href="#DejaVuSans-2e" x="147.412109"/>
       <use xlink:href="#DejaVuSans-30" x="179.199219"/>
       <use xlink:href="#DejaVuSans-34" x="242.822266"/>
      </g>
     </g>
    </g>
    <g id="xtick_16">
     <g id="line2d_37">
      <g>
       <use xlink:href="#m51ea8891d5" x="865.699139" y="320.4" style="stroke: #000000; stroke-width: 0.8"/>
      </g>
     </g>
     <g id="text_35">
      <!-- −0.02 -->
      <g transform="translate(849.052968 358.064335) rotate(-30) scale(0.14 -0.14)">
       <use xlink:href="#DejaVuSans-2212"/>
       <use xlink:href="#DejaVuSans-30" x="83.789062"/>
       <use xlink:href="#DejaVuSans-2e" x="147.412109"/>
       <use xlink:href="#DejaVuSans-30" x="179.199219"/>
       <use xlink:href="#DejaVuSans-32" x="242.822266"/>
      </g>
     </g>
    </g>
    <g id="xtick_17">
     <g id="line2d_38">
      <g>
       <use xlink:href="#m51ea8891d5" x="899.613004" y="320.4" style="stroke: #000000; stroke-width: 0.8"/>
      </g>
     </g>
     <g id="text_36">
      <!-- 0.00 -->
      <g transform="translate(888.046748 352.198553) rotate(-30) scale(0.14 -0.14)">
       <use xlink:href="#DejaVuSans-30"/>
       <use xlink:href="#DejaVuSans-2e" x="63.623047"/>
       <use xlink:href="#DejaVuSans-30" x="95.410156"/>
       <use xlink:href="#DejaVuSans-30" x="159.033203"/>
      </g>
     </g>
    </g>
    <g id="xtick_18">
     <g id="line2d_39">
      <g>
       <use xlink:href="#m51ea8891d5" x="933.526868" y="320.4" style="stroke: #000000; stroke-width: 0.8"/>
      </g>
     </g>
     <g id="text_37">
      <!-- 0.02 -->
      <g transform="translate(921.960613 352.198553) rotate(-30) scale(0.14 -0.14)">
       <use xlink:href="#DejaVuSans-30"/>
       <use xlink:href="#DejaVuSans-2e" x="63.623047"/>
       <use xlink:href="#DejaVuSans-30" x="95.410156"/>
       <use xlink:href="#DejaVuSans-32" x="159.033203"/>
      </g>
     </g>
    </g>
    <g id="xtick_19">
     <g id="line2d_40">
      <g>
       <use xlink:href="#m51ea8891d5" x="967.440733" y="320.4" style="stroke: #000000; stroke-width: 0.8"/>
      </g>
     </g>
     <g id="text_38">
      <!-- 0.04 -->
      <g transform="translate(955.874477 352.198553) rotate(-30) scale(0.14 -0.14)">
       <use xlink:href="#DejaVuSans-30"/>
       <use xlink:href="#DejaVuSans-2e" x="63.623047"/>
       <use xlink:href="#DejaVuSans-30" x="95.410156"/>
       <use xlink:href="#DejaVuSans-34" x="159.033203"/>
      </g>
     </g>
    </g>
    <g id="xtick_20">
     <g id="line2d_41">
      <g>
       <use xlink:href="#m51ea8891d5" x="1001.354597" y="320.4" style="stroke: #000000; stroke-width: 0.8"/>
      </g>
     </g>
     <g id="text_39">
      <!-- 0.06 -->
      <g transform="translate(989.788342 352.198553) rotate(-30) scale(0.14 -0.14)">
       <use xlink:href="#DejaVuSans-30"/>
       <use xlink:href="#DejaVuSans-2e" x="63.623047"/>
       <use xlink:href="#DejaVuSans-30" x="95.410156"/>
       <use xlink:href="#DejaVuSans-36" x="159.033203"/>
      </g>
     </g>
    </g>
    <g id="xtick_21">
     <g id="line2d_42">
      <g>
       <use xlink:href="#m51ea8891d5" x="1035.268462" y="320.4" style="stroke: #000000; stroke-width: 0.8"/>
      </g>
     </g>
     <g id="text_40">
      <!-- 0.08 -->
      <g transform="translate(1023.702206 352.198553) rotate(-30) scale(0.14 -0.14)">
       <use xlink:href="#DejaVuSans-30"/>
       <use xlink:href="#DejaVuSans-2e" x="63.623047"/>
       <use xlink:href="#DejaVuSans-30" x="95.410156"/>
       <use xlink:href="#DejaVuSans-38" x="159.033203"/>
      </g>
     </g>
    </g>
   </g>
   <g id="matplotlib.axis_6">
    <g id="ytick_18">
     <g id="line2d_43">
      <g>
       <use xlink:href="#m0131e2718d" x="774.211765" y="317.55965" style="stroke: #000000; stroke-width: 0.8"/>
      </g>
     </g>
     <g id="text_41">
      <!-- −0.08 -->
      <g transform="translate(724.308327 322.878556) scale(0.14 -0.14)">
       <use xlink:href="#DejaVuSans-2212"/>
       <use xlink:href="#DejaVuSans-30" x="83.789062"/>
       <use xlink:href="#DejaVuSans-2e" x="147.412109"/>
       <use xlink:href="#DejaVuSans-30" x="179.199219"/>
       <use xlink:href="#DejaVuSans-38" x="242.822266"/>
      </g>
     </g>
    </g>
    <g id="ytick_19">
     <g id="line2d_44">
      <g>
       <use xlink:href="#m0131e2718d" x="774.211765" y="283.645785" style="stroke: #000000; stroke-width: 0.8"/>
      </g>
     </g>
     <g id="text_42">
      <!-- −0.06 -->
      <g transform="translate(724.308327 288.964692) scale(0.14 -0.14)">
       <use xlink:href="#DejaVuSans-2212"/>
       <use xlink:href="#DejaVuSans-30" x="83.789062"/>
       <use xlink:href="#DejaVuSans-2e" x="147.412109"/>
       <use xlink:href="#DejaVuSans-30" x="179.199219"/>
       <use xlink:href="#DejaVuSans-36" x="242.822266"/>
      </g>
     </g>
    </g>
    <g id="ytick_20">
     <g id="line2d_45">
      <g>
       <use xlink:href="#m0131e2718d" x="774.211765" y="249.731921" style="stroke: #000000; stroke-width: 0.8"/>
      </g>
     </g>
     <g id="text_43">
      <!-- −0.04 -->
      <g transform="translate(724.308327 255.050827) scale(0.14 -0.14)">
       <use xlink:href="#DejaVuSans-2212"/>
       <use xlink:href="#DejaVuSans-30" x="83.789062"/>
       <use xlink:href="#DejaVuSans-2e" x="147.412109"/>
       <use xlink:href="#DejaVuSans-30" x="179.199219"/>
       <use xlink:href="#DejaVuSans-34" x="242.822266"/>
      </g>
     </g>
    </g>
    <g id="ytick_21">
     <g id="line2d_46">
      <g>
       <use xlink:href="#m0131e2718d" x="774.211765" y="215.818056" style="stroke: #000000; stroke-width: 0.8"/>
      </g>
     </g>
     <g id="text_44">
      <!-- −0.02 -->
      <g transform="translate(724.308327 221.136963) scale(0.14 -0.14)">
       <use xlink:href="#DejaVuSans-2212"/>
       <use xlink:href="#DejaVuSans-30" x="83.789062"/>
       <use xlink:href="#DejaVuSans-2e" x="147.412109"/>
       <use xlink:href="#DejaVuSans-30" x="179.199219"/>
       <use xlink:href="#DejaVuSans-32" x="242.822266"/>
      </g>
     </g>
    </g>
    <g id="ytick_22">
     <g id="line2d_47">
      <g>
       <use xlink:href="#m0131e2718d" x="774.211765" y="181.904192" style="stroke: #000000; stroke-width: 0.8"/>
      </g>
     </g>
     <g id="text_45">
      <!-- 0.00 -->
      <g transform="translate(736.03989 187.223098) scale(0.14 -0.14)">
       <use xlink:href="#DejaVuSans-30"/>
       <use xlink:href="#DejaVuSans-2e" x="63.623047"/>
       <use xlink:href="#DejaVuSans-30" x="95.410156"/>
       <use xlink:href="#DejaVuSans-30" x="159.033203"/>
      </g>
     </g>
    </g>
    <g id="ytick_23">
     <g id="line2d_48">
      <g>
       <use xlink:href="#m0131e2718d" x="774.211765" y="147.990327" style="stroke: #000000; stroke-width: 0.8"/>
      </g>
     </g>
     <g id="text_46">
      <!-- 0.02 -->
      <g transform="translate(736.03989 153.309234) scale(0.14 -0.14)">
       <use xlink:href="#DejaVuSans-30"/>
       <use xlink:href="#DejaVuSans-2e" x="63.623047"/>
       <use xlink:href="#DejaVuSans-30" x="95.410156"/>
       <use xlink:href="#DejaVuSans-32" x="159.033203"/>
      </g>
     </g>
    </g>
    <g id="ytick_24">
     <g id="line2d_49">
      <g>
       <use xlink:href="#m0131e2718d" x="774.211765" y="114.076463" style="stroke: #000000; stroke-width: 0.8"/>
      </g>
     </g>
     <g id="text_47">
      <!-- 0.04 -->
      <g transform="translate(736.03989 119.395369) scale(0.14 -0.14)">
       <use xlink:href="#DejaVuSans-30"/>
       <use xlink:href="#DejaVuSans-2e" x="63.623047"/>
       <use xlink:href="#DejaVuSans-30" x="95.410156"/>
       <use xlink:href="#DejaVuSans-34" x="159.033203"/>
      </g>
     </g>
    </g>
    <g id="ytick_25">
     <g id="line2d_50">
      <g>
       <use xlink:href="#m0131e2718d" x="774.211765" y="80.162598" style="stroke: #000000; stroke-width: 0.8"/>
      </g>
     </g>
     <g id="text_48">
      <!-- 0.06 -->
      <g transform="translate(736.03989 85.481504) scale(0.14 -0.14)">
       <use xlink:href="#DejaVuSans-30"/>
       <use xlink:href="#DejaVuSans-2e" x="63.623047"/>
       <use xlink:href="#DejaVuSans-30" x="95.410156"/>
       <use xlink:href="#DejaVuSans-36" x="159.033203"/>
      </g>
     </g>
    </g>
    <g id="ytick_26">
     <g id="line2d_51">
      <g>
       <use xlink:href="#m0131e2718d" x="774.211765" y="46.248734" style="stroke: #000000; stroke-width: 0.8"/>
      </g>
     </g>
     <g id="text_49">
      <!-- 0.08 -->
      <g transform="translate(736.03989 51.56764) scale(0.14 -0.14)">
       <use xlink:href="#DejaVuSans-30"/>
       <use xlink:href="#DejaVuSans-2e" x="63.623047"/>
       <use xlink:href="#DejaVuSans-30" x="95.410156"/>
       <use xlink:href="#DejaVuSans-38" x="159.033203"/>
      </g>
     </g>
    </g>
   </g>
   <g id="line2d_52">
    <path d="M 906.006434 55.8 
L 904.432247 57.088964 
L 902.726479 58.287321 
L 899.8024 58.108374 
L 896.834303 58.639854 
L 893.730767 61.385121 
L 888.507948 62.903176 
L 879.734733 62.365941 
L 875.298683 63.575544 
L 875.119716 66.499956 
L 873.19579 67.452042 
L 870.271399 67.272741 
L 866.020597 70.386591 
L 861.365205 74.50457 
L 858.263052 74.767136 
L 855.415529 74.675091 
L 855.236561 77.599503 
L 854.621143 80.030862 
L 851.696752 79.851561 
L 849.169935 80.122076 
L 847.618256 81.494631 
L 846.643786 83.519724 
L 846.464641 86.444293 
L 844.771713 87.657166 
L 841.847458 87.478376 
L 838.800858 89.29416 
L 835.697322 92.039428 
L 832.739279 92.406763 
L 829.815201 92.227816 
L 829.481967 94.978186 
L 828.736098 98.197057 
L 820.977347 105.060148 
L 814.740173 111.71455 
L 814.382062 117.56353 
L 813.160149 121.383984 
L 810.235894 121.205194 
L 807.952916 121.751013 
L 806.401237 123.123569 
L 805.670252 125.424279 
L 805.491284 128.348691 
L 804.311498 130.142029 
L 802.759819 131.514584 
L 802.388062 134.221404 
L 802.209095 137.145816 
L 799.132917 139.892759 
L 796.362929 143.015103 
L 796.004504 148.86373 
L 795.345209 153.583135 
L 793.79353 154.95569 
L 792.699208 158.043545 
L 792.340783 163.892171 
L 791.368963 167.440284 
L 789.817284 168.81284 
L 788.919804 174.957799 
L 788.382235 183.730993 
L 787.058066 186.763411 
L 785.50621 188.136123 
L 787.913645 191.383557 
L 787.55522 197.232183 
L 786.996097 202.3281 
L 785.444418 203.700656 
L 784.76733 205.126952 
L 786.139729 206.678454 
L 786.845387 208.82036 
L 786.666243 211.744929 
L 788.227493 213.130011 
L 791.151748 213.308801 
L 791.929812 215.386661 
L 791.750668 218.311229 
L 792.847606 220.106393 
L 794.220318 221.658249 
L 794.113757 224.518614 
L 794.180515 227.45791 
L 796.925939 230.561623 
L 799.042498 233.626479 
L 798.863354 236.551048 
L 799.220969 239.00082 
L 800.593367 240.552322 
L 801.226443 242.758433 
L 801.047475 245.682844 
L 802.644735 248.716059 
L 805.389846 251.819418 
L 805.97604 254.790867 
L 805.797073 257.715278 
L 818.896766 272.933702 
L 833.995659 290.003059 
L 836.92005 290.18236 
L 840.000479 290.946874 
L 844.118302 295.602089 
L 847.92409 299.08621 
L 850.848481 299.265511 
L 853.163572 299.983144 
L 854.536284 301.535001 
L 858.251716 302.462317 
L 864.100363 302.820408 
L 867.020721 303.959391 
L 868.393433 305.511247 
L 869.906611 304.767243 
L 871.458467 303.394531 
L 874.267291 303.443183 
L 877.119277 303.686531 
L 878.491989 305.238388 
L 879.896186 306.270768 
L 881.448043 304.898055 
L 884.324967 304.059098 
L 890.173927 304.417543 
L 894.056365 305.300002 
L 895.429077 306.851859 
L 897.686414 307.62121 
L 900.610669 307.8 
L 904.748301 304.967381 
L 909.403516 300.849558 
L 912.619016 300.305605 
L 915.543407 300.484906 
L 917.146627 299.17026 
L 919.919851 298.009663 
L 934.541848 298.905501 
L 946.580073 298.984364 
L 949.683609 296.239096 
L 953.762105 294.596025 
L 959.610751 294.954117 
L 964.879675 293.13716 
L 969.53489 289.019337 
L 973.122418 287.551808 
L 976.046809 287.731109 
L 982.585752 282.645008 
L 990.344503 275.781917 
L 993.856117 275.105408 
L 996.755004 275.255519 
L 996.933971 272.331107 
L 997.740693 269.239534 
L 1002.396085 265.121554 
L 1005.838155 261.327088 
L 1006.017122 258.402676 
L 1007.299635 256.72547 
L 1010.224026 256.904771 
L 1011.781571 253.872919 
L 1012.139682 248.023939 
L 1014.31962 244.23454 
L 1017.423156 241.489273 
L 1018.345772 236.278824 
L 1018.703884 230.429844 
L 1021.661613 226.935062 
L 1022.199005 218.162024 
L 1022.925774 210.77208 
L 1024.47763 209.399368 
L 1025.707043 205.675148 
L 1026.244435 196.902111 
L 1025.925029 191.368442 
L 1024.552317 189.816585 
L 1024.078747 187.469383 
L 1024.258027 184.545325 
L 1023.334975 182.595717 
L 1021.962263 181.043861 
L 1021.895115 178.337784 
L 1022.074083 175.413372 
L 1020.74492 173.822993 
L 1019.531714 172.130045 
L 1019.711171 169.20583 
L 1018.565458 165.514445 
L 1013.074923 159.307374 
L 1009.651123 154.297003 
L 1009.830091 151.372592 
L 1006.521136 146.053633 
L 999.657889 138.294706 
L 997.204567 133.563127 
L 997.383534 130.638715 
L 996.387899 128.753312 
L 995.0155 127.201809 
L 995.020446 124.43133 
L 995.170557 121.532444 
L 993.797845 119.980587 
L 992.657534 118.223789 
L 992.836501 115.299377 
L 992.195592 112.324576 
L 989.450481 109.221218 
L 987.90776 106.191512 
L 988.086904 103.266943 
L 987.424795 101.086514 
L 986.052397 99.535012 
L 985.723815 97.059558 
L 985.902959 94.13499 
L 978.215469 84.830677 
L 968.607111 73.968391 
L 965.245472 73.090374 
L 962.243062 72.618466 
L 958.125239 67.963251 
L 953.667595 64.151373 
L 947.818635 63.792928 
L 942.985263 62.536764 
L 940.239839 59.433052 
L 937.412697 57.668869 
L 934.488129 57.489725 
L 931.458422 59.032446 
L 928.354887 61.777714 
L 921.171233 62.160643 
L 912.398195 61.623251 
L 908.751545 58.903359 
L 908.751545 58.903359 
" clip-path="url(#p4beb078a32)" style="fill: none; stroke: #1f77b4; stroke-width: 1.5; stroke-linecap: square"/>
   </g>
   <g id="line2d_53">
    <g clip-path="url(#p4beb078a32)">
     <use xlink:href="#m6bb504fa1f" x="906.006434" y="55.8" style="fill: #ff0000; stroke: #ff0000"/>
    </g>
   </g>
   <g id="patch_13">
    <path d="M 774.211765 320.4 
L 774.211765 43.2 
" style="fill: none; stroke: #000000; stroke-width: 0.8; stroke-linejoin: miter; stroke-linecap: square"/>
   </g>
   <g id="patch_14">
    <path d="M 1036.8 320.4 
L 1036.8 43.2 
" style="fill: none; stroke: #000000; stroke-width: 0.8; stroke-linejoin: miter; stroke-linecap: square"/>
   </g>
   <g id="patch_15">
    <path d="M 774.211765 320.4 
L 1036.8 320.4 
" style="fill: none; stroke: #000000; stroke-width: 0.8; stroke-linejoin: miter; stroke-linecap: square"/>
   </g>
   <g id="patch_16">
    <path d="M 774.211765 43.2 
L 1036.8 43.2 
" style="fill: none; stroke: #000000; stroke-width: 0.8; stroke-linejoin: miter; stroke-linecap: square"/>
   </g>
   <g id="text_50">
    <!-- Aligned curve -->
    <g transform="translate(853.919945 37.2) scale(0.15 -0.15)">
     <defs>
      <path id="DejaVuSans-41" d="M 2188 4044 
L 1331 1722 
L 3047 1722 
L 2188 4044 
z
M 1831 4666 
L 2547 4666 
L 4325 0 
L 3669 0 
L 3244 1197 
L 1141 1197 
L 716 0 
L 50 0 
L 1831 4666 
z
" transform="scale(0.015625)"/>
     </defs>
     <use xlink:href="#DejaVuSans-41"/>
     <use xlink:href="#DejaVuSans-6c" x="68.408203"/>
     <use xlink:href="#DejaVuSans-69" x="96.191406"/>
     <use xlink:href="#DejaVuSans-67" x="123.974609"/>
     <use xlink:href="#DejaVuSans-6e" x="187.451172"/>
     <use xlink:href="#DejaVuSans-65" x="250.830078"/>
     <use xlink:href="#DejaVuSans-64" x="312.353516"/>
     <use xlink:href="#DejaVuSans-20" x="375.830078"/>
     <use xlink:href="#DejaVuSans-63" x="407.617188"/>
     <use xlink:href="#DejaVuSans-75" x="462.597656"/>
     <use xlink:href="#DejaVuSans-72" x="525.976562"/>
     <use xlink:href="#DejaVuSans-76" x="567.089844"/>
     <use xlink:href="#DejaVuSans-65" x="626.269531"/>
    </g>
   </g>
  </g>
 </g>
 <defs>
  <clipPath id="p349c49efba">
   <rect x="144" y="43.2" width="262.588235" height="277.2"/>
  </clipPath>
  <clipPath id="p7f7960bfdd">
   <rect x="459.105882" y="43.2" width="262.588235" height="277.2"/>
  </clipPath>
  <clipPath id="p4beb078a32">
   <rect x="774.211765" y="43.2" width="262.588235" height="277.2"/>
  </clipPath>
 </defs>
</svg>
