<?xml version="1.0" encoding="utf-8" standalone="no"?>
<!DOCTYPE svg PUBLIC "-//W3C//DTD SVG 1.1//EN"
  "http://www.w3.org/Graphics/SVG/1.1/DTD/svg11.dtd">
<svg xmlns:xlink="http://www.w3.org/1999/xlink" width="286.90625pt" height="252.838125pt" viewBox="0 0 286.90625 252.838125" xmlns="http://www.w3.org/2000/svg" version="1.1">
 <metadata>
  <rdf:RDF xmlns:dc="http://purl.org/dc/elements/1.1/" xmlns:cc="http://creativecommons.org/ns#" xmlns:rdf="http://www.w3.org/1999/02/22-rdf-syntax-ns#">
   <cc:Work>
    <dc:type rdf:resource="http://purl.org/dc/dcmitype/StillImage"/>
    <dc:date>2024-03-26T16:50:13.064595</dc:date>
    <dc:format>image/svg+xml</dc:format>
    <dc:creator>
     <cc:Agent>
      <dc:title>Matplotlib v3.8.3, https://matplotlib.org/</dc:title>
     </cc:Agent>
    </dc:creator>
   </cc:Work>
  </rdf:RDF>
 </metadata>
 <defs>
  <style type="text/css">*{stroke-linejoin: round; stroke-linecap: butt}</style>
 </defs>
 <g id="figure_1">
  <g id="patch_1">
   <path d="M 0 252.838125 
L 286.90625 252.838125 
L 286.90625 0 
L 0 0 
z
" style="fill: #ffffff"/>
  </g>
  <g id="axes_1">
   <g id="patch_2">
    <path d="M 56.50625 228.96 
L 279.70625 228.96 
L 279.70625 7.2 
L 56.50625 7.2 
z
" style="fill: #ffffff"/>
   </g>
   <g id="patch_3">
    <path d="M 66.651705 228.96 
L 73.415341 228.96 
L 73.415341 224.861961 
L 66.651705 224.861961 
z
" clip-path="url(#pad5ee6c2e1)" style="fill: #1f77b4; opacity: 0.4"/>
   </g>
   <g id="patch_4">
    <path d="M 73.415341 228.96 
L 80.178977 228.96 
L 80.178977 228.96 
L 73.415341 228.96 
z
" clip-path="url(#pad5ee6c2e1)" style="fill: #1f77b4; opacity: 0.4"/>
   </g>
   <g id="patch_5">
    <path d="M 80.178977 228.96 
L 86.942614 228.96 
L 86.942614 228.96 
L 80.178977 228.96 
z
" clip-path="url(#pad5ee6c2e1)" style="fill: #1f77b4; opacity: 0.4"/>
   </g>
   <g id="patch_6">
    <path d="M 86.942614 228.96 
L 93.70625 228.96 
L 93.70625 224.861961 
L 86.942614 224.861961 
z
" clip-path="url(#pad5ee6c2e1)" style="fill: #1f77b4; opacity: 0.4"/>
   </g>
   <g id="patch_7">
    <path d="M 93.70625 228.96 
L 100.469886 228.96 
L 100.469886 101.920784 
L 93.70625 101.920784 
z
" clip-path="url(#pad5ee6c2e1)" style="fill: #1f77b4; opacity: 0.4"/>
   </g>
   <g id="patch_8">
    <path d="M 100.469886 228.96 
L 107.233523 228.96 
L 107.233523 73.23451 
L 100.469886 73.23451 
z
" clip-path="url(#pad5ee6c2e1)" style="fill: #1f77b4; opacity: 0.4"/>
   </g>
   <g id="patch_9">
    <path d="M 107.233523 228.96 
L 113.997159 228.96 
L 113.997159 146.999216 
L 107.233523 146.999216 
z
" clip-path="url(#pad5ee6c2e1)" style="fill: #1f77b4; opacity: 0.4"/>
   </g>
   <g id="patch_10">
    <path d="M 113.997159 228.96 
L 120.760795 228.96 
L 120.760795 216.665882 
L 113.997159 216.665882 
z
" clip-path="url(#pad5ee6c2e1)" style="fill: #1f77b4; opacity: 0.4"/>
   </g>
   <g id="patch_11">
    <path d="M 120.760795 228.96 
L 127.524432 228.96 
L 127.524432 216.665882 
L 120.760795 216.665882 
z
" clip-path="url(#pad5ee6c2e1)" style="fill: #1f77b4; opacity: 0.4"/>
   </g>
   <g id="patch_12">
    <path d="M 127.524432 228.96 
L 134.288068 228.96 
L 134.288068 208.469804 
L 127.524432 208.469804 
z
" clip-path="url(#pad5ee6c2e1)" style="fill: #1f77b4; opacity: 0.4"/>
   </g>
   <g id="patch_13">
    <path d="M 134.288068 228.96 
L 141.051705 228.96 
L 141.051705 196.175686 
L 134.288068 196.175686 
z
" clip-path="url(#pad5ee6c2e1)" style="fill: #1f77b4; opacity: 0.4"/>
   </g>
   <g id="patch_14">
    <path d="M 141.051705 228.96 
L 147.815341 228.96 
L 147.815341 167.489412 
L 141.051705 167.489412 
z
" clip-path="url(#pad5ee6c2e1)" style="fill: #1f77b4; opacity: 0.4"/>
   </g>
   <g id="patch_15">
    <path d="M 147.815341 228.96 
L 154.578977 228.96 
L 154.578977 126.50902 
L 147.815341 126.50902 
z
" clip-path="url(#pad5ee6c2e1)" style="fill: #1f77b4; opacity: 0.4"/>
   </g>
   <g id="patch_16">
    <path d="M 154.578977 228.96 
L 161.342614 228.96 
L 161.342614 167.489412 
L 154.578977 167.489412 
z
" clip-path="url(#pad5ee6c2e1)" style="fill: #1f77b4; opacity: 0.4"/>
   </g>
   <g id="patch_17">
    <path d="M 161.342614 228.96 
L 168.10625 228.96 
L 168.10625 163.391373 
L 161.342614 163.391373 
z
" clip-path="url(#pad5ee6c2e1)" style="fill: #1f77b4; opacity: 0.4"/>
   </g>
   <g id="patch_18">
    <path d="M 168.10625 228.96 
L 174.869886 228.96 
L 174.869886 208.469804 
L 168.10625 208.469804 
z
" clip-path="url(#pad5ee6c2e1)" style="fill: #1f77b4; opacity: 0.4"/>
   </g>
   <g id="patch_19">
    <path d="M 174.869886 228.96 
L 181.633523 228.96 
L 181.633523 192.077647 
L 174.869886 192.077647 
z
" clip-path="url(#pad5ee6c2e1)" style="fill: #1f77b4; opacity: 0.4"/>
   </g>
   <g id="patch_20">
    <path d="M 181.633523 228.96 
L 188.397159 228.96 
L 188.397159 216.665882 
L 181.633523 216.665882 
z
" clip-path="url(#pad5ee6c2e1)" style="fill: #1f77b4; opacity: 0.4"/>
   </g>
   <g id="patch_21">
    <path d="M 188.397159 228.96 
L 195.160795 228.96 
L 195.160795 216.665882 
L 188.397159 216.665882 
z
" clip-path="url(#pad5ee6c2e1)" style="fill: #1f77b4; opacity: 0.4"/>
   </g>
   <g id="patch_22">
    <path d="M 195.160795 228.96 
L 201.924432 228.96 
L 201.924432 220.763922 
L 195.160795 220.763922 
z
" clip-path="url(#pad5ee6c2e1)" style="fill: #1f77b4; opacity: 0.4"/>
   </g>
   <g id="patch_23">
    <path d="M 201.924432 228.96 
L 208.688068 228.96 
L 208.688068 224.861961 
L 201.924432 224.861961 
z
" clip-path="url(#pad5ee6c2e1)" style="fill: #1f77b4; opacity: 0.4"/>
   </g>
   <g id="patch_24">
    <path d="M 208.688068 228.96 
L 215.451705 228.96 
L 215.451705 228.96 
L 208.688068 228.96 
z
" clip-path="url(#pad5ee6c2e1)" style="fill: #1f77b4; opacity: 0.4"/>
   </g>
   <g id="patch_25">
    <path d="M 215.451705 228.96 
L 222.215341 228.96 
L 222.215341 228.96 
L 215.451705 228.96 
z
" clip-path="url(#pad5ee6c2e1)" style="fill: #1f77b4; opacity: 0.4"/>
   </g>
   <g id="patch_26">
    <path d="M 222.215341 228.96 
L 228.978977 228.96 
L 228.978977 228.96 
L 222.215341 228.96 
z
" clip-path="url(#pad5ee6c2e1)" style="fill: #1f77b4; opacity: 0.4"/>
   </g>
   <g id="patch_27">
    <path d="M 228.978977 228.96 
L 235.742614 228.96 
L 235.742614 228.96 
L 228.978977 228.96 
z
" clip-path="url(#pad5ee6c2e1)" style="fill: #1f77b4; opacity: 0.4"/>
   </g>
   <g id="patch_28">
    <path d="M 235.742614 228.96 
L 242.50625 228.96 
L 242.50625 228.96 
L 235.742614 228.96 
z
" clip-path="url(#pad5ee6c2e1)" style="fill: #1f77b4; opacity: 0.4"/>
   </g>
   <g id="patch_29">
    <path d="M 242.50625 228.96 
L 249.269886 228.96 
L 249.269886 228.96 
L 242.50625 228.96 
z
" clip-path="url(#pad5ee6c2e1)" style="fill: #1f77b4; opacity: 0.4"/>
   </g>
   <g id="patch_30">
    <path d="M 249.269886 228.96 
L 256.033523 228.96 
L 256.033523 228.96 
L 249.269886 228.96 
z
" clip-path="url(#pad5ee6c2e1)" style="fill: #1f77b4; opacity: 0.4"/>
   </g>
   <g id="patch_31">
    <path d="M 256.033523 228.96 
L 262.797159 228.96 
L 262.797159 228.96 
L 256.033523 228.96 
z
" clip-path="url(#pad5ee6c2e1)" style="fill: #1f77b4; opacity: 0.4"/>
   </g>
   <g id="patch_32">
    <path d="M 262.797159 228.96 
L 269.560795 228.96 
L 269.560795 228.96 
L 262.797159 228.96 
z
" clip-path="url(#pad5ee6c2e1)" style="fill: #1f77b4; opacity: 0.4"/>
   </g>
   <g id="patch_33">
    <path d="M 66.651705 228.96 
L 73.415341 228.96 
L 73.415341 228.96 
L 66.651705 228.96 
z
" clip-path="url(#pad5ee6c2e1)" style="fill: #ff7f0e; opacity: 0.4"/>
   </g>
   <g id="patch_34">
    <path d="M 73.415341 228.96 
L 80.178977 228.96 
L 80.178977 228.96 
L 73.415341 228.96 
z
" clip-path="url(#pad5ee6c2e1)" style="fill: #ff7f0e; opacity: 0.4"/>
   </g>
   <g id="patch_35">
    <path d="M 80.178977 228.96 
L 86.942614 228.96 
L 86.942614 228.96 
L 80.178977 228.96 
z
" clip-path="url(#pad5ee6c2e1)" style="fill: #ff7f0e; opacity: 0.4"/>
   </g>
   <g id="patch_36">
    <path d="M 86.942614 228.96 
L 93.70625 228.96 
L 93.70625 228.96 
L 86.942614 228.96 
z
" clip-path="url(#pad5ee6c2e1)" style="fill: #ff7f0e; opacity: 0.4"/>
   </g>
   <g id="patch_37">
    <path d="M 93.70625 228.96 
L 100.469886 228.96 
L 100.469886 228.96 
L 93.70625 228.96 
z
" clip-path="url(#pad5ee6c2e1)" style="fill: #ff7f0e; opacity: 0.4"/>
   </g>
   <g id="patch_38">
    <path d="M 100.469886 228.96 
L 107.233523 228.96 
L 107.233523 228.96 
L 100.469886 228.96 
z
" clip-path="url(#pad5ee6c2e1)" style="fill: #ff7f0e; opacity: 0.4"/>
   </g>
   <g id="patch_39">
    <path d="M 107.233523 228.96 
L 113.997159 228.96 
L 113.997159 228.96 
L 107.233523 228.96 
z
" clip-path="url(#pad5ee6c2e1)" style="fill: #ff7f0e; opacity: 0.4"/>
   </g>
   <g id="patch_40">
    <path d="M 113.997159 228.96 
L 120.760795 228.96 
L 120.760795 219.970753 
L 113.997159 219.970753 
z
" clip-path="url(#pad5ee6c2e1)" style="fill: #ff7f0e; opacity: 0.4"/>
   </g>
   <g id="patch_41">
    <path d="M 120.760795 228.96 
L 127.524432 228.96 
L 127.524432 228.96 
L 120.760795 228.96 
z
" clip-path="url(#pad5ee6c2e1)" style="fill: #ff7f0e; opacity: 0.4"/>
   </g>
   <g id="patch_42">
    <path d="M 127.524432 228.96 
L 134.288068 228.96 
L 134.288068 219.970753 
L 127.524432 219.970753 
z
" clip-path="url(#pad5ee6c2e1)" style="fill: #ff7f0e; opacity: 0.4"/>
   </g>
   <g id="patch_43">
    <path d="M 134.288068 228.96 
L 141.051705 228.96 
L 141.051705 210.981505 
L 134.288068 210.981505 
z
" clip-path="url(#pad5ee6c2e1)" style="fill: #ff7f0e; opacity: 0.4"/>
   </g>
   <g id="patch_44">
    <path d="M 141.051705 228.96 
L 147.815341 228.96 
L 147.815341 219.970753 
L 141.051705 219.970753 
z
" clip-path="url(#pad5ee6c2e1)" style="fill: #ff7f0e; opacity: 0.4"/>
   </g>
   <g id="patch_45">
    <path d="M 147.815341 228.96 
L 154.578977 228.96 
L 154.578977 166.035269 
L 147.815341 166.035269 
z
" clip-path="url(#pad5ee6c2e1)" style="fill: #ff7f0e; opacity: 0.4"/>
   </g>
   <g id="patch_46">
    <path d="M 154.578977 228.96 
L 161.342614 228.96 
L 161.342614 184.013763 
L 154.578977 184.013763 
z
" clip-path="url(#pad5ee6c2e1)" style="fill: #ff7f0e; opacity: 0.4"/>
   </g>
   <g id="patch_47">
    <path d="M 161.342614 228.96 
L 168.10625 228.96 
L 168.10625 175.024516 
L 161.342614 175.024516 
z
" clip-path="url(#pad5ee6c2e1)" style="fill: #ff7f0e; opacity: 0.4"/>
   </g>
   <g id="patch_48">
    <path d="M 168.10625 228.96 
L 174.869886 228.96 
L 174.869886 148.056774 
L 168.10625 148.056774 
z
" clip-path="url(#pad5ee6c2e1)" style="fill: #ff7f0e; opacity: 0.4"/>
   </g>
   <g id="patch_49">
    <path d="M 174.869886 228.96 
L 181.633523 228.96 
L 181.633523 184.013763 
L 174.869886 184.013763 
z
" clip-path="url(#pad5ee6c2e1)" style="fill: #ff7f0e; opacity: 0.4"/>
   </g>
   <g id="patch_50">
    <path d="M 181.633523 228.96 
L 188.397159 228.96 
L 188.397159 148.056774 
L 181.633523 148.056774 
z
" clip-path="url(#pad5ee6c2e1)" style="fill: #ff7f0e; opacity: 0.4"/>
   </g>
   <g id="patch_51">
    <path d="M 188.397159 228.96 
L 195.160795 228.96 
L 195.160795 157.046022 
L 188.397159 157.046022 
z
" clip-path="url(#pad5ee6c2e1)" style="fill: #ff7f0e; opacity: 0.4"/>
   </g>
   <g id="patch_52">
    <path d="M 195.160795 228.96 
L 201.924432 228.96 
L 201.924432 139.067527 
L 195.160795 139.067527 
z
" clip-path="url(#pad5ee6c2e1)" style="fill: #ff7f0e; opacity: 0.4"/>
   </g>
   <g id="patch_53">
    <path d="M 201.924432 228.96 
L 208.688068 228.96 
L 208.688068 175.024516 
L 201.924432 175.024516 
z
" clip-path="url(#pad5ee6c2e1)" style="fill: #ff7f0e; opacity: 0.4"/>
   </g>
   <g id="patch_54">
    <path d="M 208.688068 228.96 
L 215.451705 228.96 
L 215.451705 184.013763 
L 208.688068 184.013763 
z
" clip-path="url(#pad5ee6c2e1)" style="fill: #ff7f0e; opacity: 0.4"/>
   </g>
   <g id="patch_55">
    <path d="M 215.451705 228.96 
L 222.215341 228.96 
L 222.215341 175.024516 
L 215.451705 175.024516 
z
" clip-path="url(#pad5ee6c2e1)" style="fill: #ff7f0e; opacity: 0.4"/>
   </g>
   <g id="patch_56">
    <path d="M 222.215341 228.96 
L 228.978977 228.96 
L 228.978977 210.981505 
L 222.215341 210.981505 
z
" clip-path="url(#pad5ee6c2e1)" style="fill: #ff7f0e; opacity: 0.4"/>
   </g>
   <g id="patch_57">
    <path d="M 228.978977 228.96 
L 235.742614 228.96 
L 235.742614 219.970753 
L 228.978977 219.970753 
z
" clip-path="url(#pad5ee6c2e1)" style="fill: #ff7f0e; opacity: 0.4"/>
   </g>
   <g id="patch_58">
    <path d="M 235.742614 228.96 
L 242.50625 228.96 
L 242.50625 210.981505 
L 235.742614 210.981505 
z
" clip-path="url(#pad5ee6c2e1)" style="fill: #ff7f0e; opacity: 0.4"/>
   </g>
   <g id="patch_59">
    <path d="M 242.50625 228.96 
L 249.269886 228.96 
L 249.269886 219.970753 
L 242.50625 219.970753 
z
" clip-path="url(#pad5ee6c2e1)" style="fill: #ff7f0e; opacity: 0.4"/>
   </g>
   <g id="patch_60">
    <path d="M 249.269886 228.96 
L 256.033523 228.96 
L 256.033523 201.992258 
L 249.269886 201.992258 
z
" clip-path="url(#pad5ee6c2e1)" style="fill: #ff7f0e; opacity: 0.4"/>
   </g>
   <g id="patch_61">
    <path d="M 256.033523 228.96 
L 262.797159 228.96 
L 262.797159 210.981505 
L 256.033523 210.981505 
z
" clip-path="url(#pad5ee6c2e1)" style="fill: #ff7f0e; opacity: 0.4"/>
   </g>
   <g id="patch_62">
    <path d="M 262.797159 228.96 
L 269.560795 228.96 
L 269.560795 219.970753 
L 262.797159 219.970753 
z
" clip-path="url(#pad5ee6c2e1)" style="fill: #ff7f0e; opacity: 0.4"/>
   </g>
   <g id="patch_63">
    <path d="M 66.651705 228.96 
L 73.415341 228.96 
L 73.415341 228.96 
L 66.651705 228.96 
z
" clip-path="url(#pad5ee6c2e1)" style="fill: #2ca02c; opacity: 0.4"/>
   </g>
   <g id="patch_64">
    <path d="M 73.415341 228.96 
L 80.178977 228.96 
L 80.178977 228.96 
L 73.415341 228.96 
z
" clip-path="url(#pad5ee6c2e1)" style="fill: #2ca02c; opacity: 0.4"/>
   </g>
   <g id="patch_65">
    <path d="M 80.178977 228.96 
L 86.942614 228.96 
L 86.942614 228.96 
L 80.178977 228.96 
z
" clip-path="url(#pad5ee6c2e1)" style="fill: #2ca02c; opacity: 0.4"/>
   </g>
   <g id="patch_66">
    <path d="M 86.942614 228.96 
L 93.70625 228.96 
L 93.70625 228.96 
L 86.942614 228.96 
z
" clip-path="url(#pad5ee6c2e1)" style="fill: #2ca02c; opacity: 0.4"/>
   </g>
   <g id="patch_67">
    <path d="M 93.70625 228.96 
L 100.469886 228.96 
L 100.469886 228.96 
L 93.70625 228.96 
z
" clip-path="url(#pad5ee6c2e1)" style="fill: #2ca02c; opacity: 0.4"/>
   </g>
   <g id="patch_68">
    <path d="M 100.469886 228.96 
L 107.233523 228.96 
L 107.233523 228.96 
L 100.469886 228.96 
z
" clip-path="url(#pad5ee6c2e1)" style="fill: #2ca02c; opacity: 0.4"/>
   </g>
   <g id="patch_69">
    <path d="M 107.233523 228.96 
L 113.997159 228.96 
L 113.997159 228.96 
L 107.233523 228.96 
z
" clip-path="url(#pad5ee6c2e1)" style="fill: #2ca02c; opacity: 0.4"/>
   </g>
   <g id="patch_70">
    <path d="M 113.997159 228.96 
L 120.760795 228.96 
L 120.760795 220.16 
L 113.997159 220.16 
z
" clip-path="url(#pad5ee6c2e1)" style="fill: #2ca02c; opacity: 0.4"/>
   </g>
   <g id="patch_71">
    <path d="M 120.760795 228.96 
L 127.524432 228.96 
L 127.524432 184.96 
L 120.760795 184.96 
z
" clip-path="url(#pad5ee6c2e1)" style="fill: #2ca02c; opacity: 0.4"/>
   </g>
   <g id="patch_72">
    <path d="M 127.524432 228.96 
L 134.288068 228.96 
L 134.288068 140.96 
L 127.524432 140.96 
z
" clip-path="url(#pad5ee6c2e1)" style="fill: #2ca02c; opacity: 0.4"/>
   </g>
   <g id="patch_73">
    <path d="M 134.288068 228.96 
L 141.051705 228.96 
L 141.051705 96.96 
L 134.288068 96.96 
z
" clip-path="url(#pad5ee6c2e1)" style="fill: #2ca02c; opacity: 0.4"/>
   </g>
   <g id="patch_74">
    <path d="M 141.051705 228.96 
L 147.815341 228.96 
L 147.815341 17.76 
L 141.051705 17.76 
z
" clip-path="url(#pad5ee6c2e1)" style="fill: #2ca02c; opacity: 0.4"/>
   </g>
   <g id="patch_75">
    <path d="M 147.815341 228.96 
L 154.578977 228.96 
L 154.578977 70.56 
L 147.815341 70.56 
z
" clip-path="url(#pad5ee6c2e1)" style="fill: #2ca02c; opacity: 0.4"/>
   </g>
   <g id="patch_76">
    <path d="M 154.578977 228.96 
L 161.342614 228.96 
L 161.342614 96.96 
L 154.578977 96.96 
z
" clip-path="url(#pad5ee6c2e1)" style="fill: #2ca02c; opacity: 0.4"/>
   </g>
   <g id="patch_77">
    <path d="M 161.342614 228.96 
L 168.10625 228.96 
L 168.10625 193.76 
L 161.342614 193.76 
z
" clip-path="url(#pad5ee6c2e1)" style="fill: #2ca02c; opacity: 0.4"/>
   </g>
   <g id="patch_78">
    <path d="M 168.10625 228.96 
L 174.869886 228.96 
L 174.869886 220.16 
L 168.10625 220.16 
z
" clip-path="url(#pad5ee6c2e1)" style="fill: #2ca02c; opacity: 0.4"/>
   </g>
   <g id="patch_79">
    <path d="M 174.869886 228.96 
L 181.633523 228.96 
L 181.633523 228.96 
L 174.869886 228.96 
z
" clip-path="url(#pad5ee6c2e1)" style="fill: #2ca02c; opacity: 0.4"/>
   </g>
   <g id="patch_80">
    <path d="M 181.633523 228.96 
L 188.397159 228.96 
L 188.397159 228.96 
L 181.633523 228.96 
z
" clip-path="url(#pad5ee6c2e1)" style="fill: #2ca02c; opacity: 0.4"/>
   </g>
   <g id="patch_81">
    <path d="M 188.397159 228.96 
L 195.160795 228.96 
L 195.160795 220.16 
L 188.397159 220.16 
z
" clip-path="url(#pad5ee6c2e1)" style="fill: #2ca02c; opacity: 0.4"/>
   </g>
   <g id="patch_82">
    <path d="M 195.160795 228.96 
L 201.924432 228.96 
L 201.924432 228.96 
L 195.160795 228.96 
z
" clip-path="url(#pad5ee6c2e1)" style="fill: #2ca02c; opacity: 0.4"/>
   </g>
   <g id="patch_83">
    <path d="M 201.924432 228.96 
L 208.688068 228.96 
L 208.688068 220.16 
L 201.924432 220.16 
z
" clip-path="url(#pad5ee6c2e1)" style="fill: #2ca02c; opacity: 0.4"/>
   </g>
   <g id="patch_84">
    <path d="M 208.688068 228.96 
L 215.451705 228.96 
L 215.451705 228.96 
L 208.688068 228.96 
z
" clip-path="url(#pad5ee6c2e1)" style="fill: #2ca02c; opacity: 0.4"/>
   </g>
   <g id="patch_85">
    <path d="M 215.451705 228.96 
L 222.215341 228.96 
L 222.215341 228.96 
L 215.451705 228.96 
z
" clip-path="url(#pad5ee6c2e1)" style="fill: #2ca02c; opacity: 0.4"/>
   </g>
   <g id="patch_86">
    <path d="M 222.215341 228.96 
L 228.978977 228.96 
L 228.978977 228.96 
L 222.215341 228.96 
z
" clip-path="url(#pad5ee6c2e1)" style="fill: #2ca02c; opacity: 0.4"/>
   </g>
   <g id="patch_87">
    <path d="M 228.978977 228.96 
L 235.742614 228.96 
L 235.742614 228.96 
L 228.978977 228.96 
z
" clip-path="url(#pad5ee6c2e1)" style="fill: #2ca02c; opacity: 0.4"/>
   </g>
   <g id="patch_88">
    <path d="M 235.742614 228.96 
L 242.50625 228.96 
L 242.50625 228.96 
L 235.742614 228.96 
z
" clip-path="url(#pad5ee6c2e1)" style="fill: #2ca02c; opacity: 0.4"/>
   </g>
   <g id="patch_89">
    <path d="M 242.50625 228.96 
L 249.269886 228.96 
L 249.269886 228.96 
L 242.50625 228.96 
z
" clip-path="url(#pad5ee6c2e1)" style="fill: #2ca02c; opacity: 0.4"/>
   </g>
   <g id="patch_90">
    <path d="M 249.269886 228.96 
L 256.033523 228.96 
L 256.033523 228.96 
L 249.269886 228.96 
z
" clip-path="url(#pad5ee6c2e1)" style="fill: #2ca02c; opacity: 0.4"/>
   </g>
   <g id="patch_91">
    <path d="M 256.033523 228.96 
L 262.797159 228.96 
L 262.797159 228.96 
L 256.033523 228.96 
z
" clip-path="url(#pad5ee6c2e1)" style="fill: #2ca02c; opacity: 0.4"/>
   </g>
   <g id="patch_92">
    <path d="M 262.797159 228.96 
L 269.560795 228.96 
L 269.560795 228.96 
L 262.797159 228.96 
z
" clip-path="url(#pad5ee6c2e1)" style="fill: #2ca02c; opacity: 0.4"/>
   </g>
   <g id="matplotlib.axis_1">
    <g id="xtick_1">
     <g id="line2d_1">
      <defs>
       <path id="m0ad72a976e" d="M 0 0 
L 0 3.5 
" style="stroke: #000000; stroke-width: 0.8"/>
      </defs>
      <g>
       <use xlink:href="#m0ad72a976e" x="86.771849" y="228.96" style="stroke: #000000; stroke-width: 0.8"/>
      </g>
     </g>
     <g id="text_1">
      <!-- 250 -->
      <g transform="translate(77.228099 243.558437) scale(0.1 -0.1)">
       <defs>
        <path id="DejaVuSans-32" d="M 1228 531 
L 3431 531 
L 3431 0 
L 469 0 
L 469 531 
Q 828 903 1448 1529 
Q 2069 2156 2228 2338 
Q 2531 2678 2651 2914 
Q 2772 3150 2772 3378 
Q 2772 3750 2511 3984 
Q 2250 4219 1831 4219 
Q 1534 4219 1204 4116 
Q 875 4013 500 3803 
L 500 4441 
Q 881 4594 1212 4672 
Q 1544 4750 1819 4750 
Q 2544 4750 2975 4387 
Q 3406 4025 3406 3419 
Q 3406 3131 3298 2873 
Q 3191 2616 2906 2266 
Q 2828 2175 2409 1742 
Q 1991 1309 1228 531 
z
" transform="scale(0.015625)"/>
        <path id="DejaVuSans-35" d="M 691 4666 
L 3169 4666 
L 3169 4134 
L 1269 4134 
L 1269 2991 
Q 1406 3038 1543 3061 
Q 1681 3084 1819 3084 
Q 2600 3084 3056 2656 
Q 3513 2228 3513 1497 
Q 3513 744 3044 326 
Q 2575 -91 1722 -91 
Q 1428 -91 1123 -41 
Q 819 9 494 109 
L 494 744 
Q 775 591 1075 516 
Q 1375 441 1709 441 
Q 2250 441 2565 725 
Q 2881 1009 2881 1497 
Q 2881 1984 2565 2268 
Q 2250 2553 1709 2553 
Q 1456 2553 1204 2497 
Q 953 2441 691 2322 
L 691 4666 
z
" transform="scale(0.015625)"/>
        <path id="DejaVuSans-30" d="M 2034 4250 
Q 1547 4250 1301 3770 
Q 1056 3291 1056 2328 
Q 1056 1369 1301 889 
Q 1547 409 2034 409 
Q 2525 409 2770 889 
Q 3016 1369 3016 2328 
Q 3016 3291 2770 3770 
Q 2525 4250 2034 4250 
z
M 2034 4750 
Q 2819 4750 3233 4129 
Q 3647 3509 3647 2328 
Q 3647 1150 3233 529 
Q 2819 -91 2034 -91 
Q 1250 -91 836 529 
Q 422 1150 422 2328 
Q 422 3509 836 4129 
Q 1250 4750 2034 4750 
z
" transform="scale(0.015625)"/>
       </defs>
       <use xlink:href="#DejaVuSans-32"/>
       <use xlink:href="#DejaVuSans-35" x="63.623047"/>
       <use xlink:href="#DejaVuSans-30" x="127.246094"/>
      </g>
     </g>
    </g>
    <g id="xtick_2">
     <g id="line2d_2">
      <g>
       <use xlink:href="#m0ad72a976e" x="120.590031" y="228.96" style="stroke: #000000; stroke-width: 0.8"/>
      </g>
     </g>
     <g id="text_2">
      <!-- 500 -->
      <g transform="translate(111.046281 243.558437) scale(0.1 -0.1)">
       <use xlink:href="#DejaVuSans-35"/>
       <use xlink:href="#DejaVuSans-30" x="63.623047"/>
       <use xlink:href="#DejaVuSans-30" x="127.246094"/>
      </g>
     </g>
    </g>
    <g id="xtick_3">
     <g id="line2d_3">
      <g>
       <use xlink:href="#m0ad72a976e" x="154.408213" y="228.96" style="stroke: #000000; stroke-width: 0.8"/>
      </g>
     </g>
     <g id="text_3">
      <!-- 750 -->
      <g transform="translate(144.864463 243.558437) scale(0.1 -0.1)">
       <defs>
        <path id="DejaVuSans-37" d="M 525 4666 
L 3525 4666 
L 3525 4397 
L 1831 0 
L 1172 0 
L 2766 4134 
L 525 4134 
L 525 4666 
z
" transform="scale(0.015625)"/>
       </defs>
       <use xlink:href="#DejaVuSans-37"/>
       <use xlink:href="#DejaVuSans-35" x="63.623047"/>
       <use xlink:href="#DejaVuSans-30" x="127.246094"/>
      </g>
     </g>
    </g>
    <g id="xtick_4">
     <g id="line2d_4">
      <g>
       <use xlink:href="#m0ad72a976e" x="188.226395" y="228.96" style="stroke: #000000; stroke-width: 0.8"/>
      </g>
     </g>
     <g id="text_4">
      <!-- 1000 -->
      <g transform="translate(175.501395 243.558437) scale(0.1 -0.1)">
       <defs>
        <path id="DejaVuSans-31" d="M 794 531 
L 1825 531 
L 1825 4091 
L 703 3866 
L 703 4441 
L 1819 4666 
L 2450 4666 
L 2450 531 
L 3481 531 
L 3481 0 
L 794 0 
L 794 531 
z
" transform="scale(0.015625)"/>
       </defs>
       <use xlink:href="#DejaVuSans-31"/>
       <use xlink:href="#DejaVuSans-30" x="63.623047"/>
       <use xlink:href="#DejaVuSans-30" x="127.246094"/>
       <use xlink:href="#DejaVuSans-30" x="190.869141"/>
      </g>
     </g>
    </g>
    <g id="xtick_5">
     <g id="line2d_5">
      <g>
       <use xlink:href="#m0ad72a976e" x="222.044576" y="228.96" style="stroke: #000000; stroke-width: 0.8"/>
      </g>
     </g>
     <g id="text_5">
      <!-- 1250 -->
      <g transform="translate(209.319576 243.558437) scale(0.1 -0.1)">
       <use xlink:href="#DejaVuSans-31"/>
       <use xlink:href="#DejaVuSans-32" x="63.623047"/>
       <use xlink:href="#DejaVuSans-35" x="127.246094"/>
       <use xlink:href="#DejaVuSans-30" x="190.869141"/>
      </g>
     </g>
    </g>
    <g id="xtick_6">
     <g id="line2d_6">
      <g>
       <use xlink:href="#m0ad72a976e" x="255.862758" y="228.96" style="stroke: #000000; stroke-width: 0.8"/>
      </g>
     </g>
     <g id="text_6">
      <!-- 1500 -->
      <g transform="translate(243.137758 243.558437) scale(0.1 -0.1)">
       <use xlink:href="#DejaVuSans-31"/>
       <use xlink:href="#DejaVuSans-35" x="63.623047"/>
       <use xlink:href="#DejaVuSans-30" x="127.246094"/>
       <use xlink:href="#DejaVuSans-30" x="190.869141"/>
      </g>
     </g>
    </g>
   </g>
   <g id="matplotlib.axis_2">
    <g id="ytick_1">
     <g id="line2d_7">
      <defs>
       <path id="mc3844f0be5" d="M 0 0 
L -3.5 0 
" style="stroke: #000000; stroke-width: 0.8"/>
      </defs>
      <g>
       <use xlink:href="#mc3844f0be5" x="56.50625" y="228.96" style="stroke: #000000; stroke-width: 0.8"/>
      </g>
     </g>
     <g id="text_7">
      <!-- 0.000 -->
      <g transform="translate(20.878125 232.759219) scale(0.1 -0.1)">
       <defs>
        <path id="DejaVuSans-2e" d="M 684 794 
L 1344 794 
L 1344 0 
L 684 0 
L 684 794 
z
" transform="scale(0.015625)"/>
       </defs>
       <use xlink:href="#DejaVuSans-30"/>
       <use xlink:href="#DejaVuSans-2e" x="63.623047"/>
       <use xlink:href="#DejaVuSans-30" x="95.410156"/>
       <use xlink:href="#DejaVuSans-30" x="159.033203"/>
       <use xlink:href="#DejaVuSans-30" x="222.65625"/>
      </g>
     </g>
    </g>
    <g id="ytick_2">
     <g id="line2d_8">
      <g>
       <use xlink:href="#mc3844f0be5" x="56.50625" y="187.16" style="stroke: #000000; stroke-width: 0.8"/>
      </g>
     </g>
     <g id="text_8">
      <!-- 0.001 -->
      <g transform="translate(20.878125 190.959219) scale(0.1 -0.1)">
       <use xlink:href="#DejaVuSans-30"/>
       <use xlink:href="#DejaVuSans-2e" x="63.623047"/>
       <use xlink:href="#DejaVuSans-30" x="95.410156"/>
       <use xlink:href="#DejaVuSans-30" x="159.033203"/>
       <use xlink:href="#DejaVuSans-31" x="222.65625"/>
      </g>
     </g>
    </g>
    <g id="ytick_3">
     <g id="line2d_9">
      <g>
       <use xlink:href="#mc3844f0be5" x="56.50625" y="145.36" style="stroke: #000000; stroke-width: 0.8"/>
      </g>
     </g>
     <g id="text_9">
      <!-- 0.002 -->
      <g transform="translate(20.878125 149.159219) scale(0.1 -0.1)">
       <use xlink:href="#DejaVuSans-30"/>
       <use xlink:href="#DejaVuSans-2e" x="63.623047"/>
       <use xlink:href="#DejaVuSans-30" x="95.410156"/>
       <use xlink:href="#DejaVuSans-30" x="159.033203"/>
       <use xlink:href="#DejaVuSans-32" x="222.65625"/>
      </g>
     </g>
    </g>
    <g id="ytick_4">
     <g id="line2d_10">
      <g>
       <use xlink:href="#mc3844f0be5" x="56.50625" y="103.56" style="stroke: #000000; stroke-width: 0.8"/>
      </g>
     </g>
     <g id="text_10">
      <!-- 0.003 -->
      <g transform="translate(20.878125 107.359219) scale(0.1 -0.1)">
       <defs>
        <path id="DejaVuSans-33" d="M 2597 2516 
Q 3050 2419 3304 2112 
Q 3559 1806 3559 1356 
Q 3559 666 3084 287 
Q 2609 -91 1734 -91 
Q 1441 -91 1130 -33 
Q 819 25 488 141 
L 488 750 
Q 750 597 1062 519 
Q 1375 441 1716 441 
Q 2309 441 2620 675 
Q 2931 909 2931 1356 
Q 2931 1769 2642 2001 
Q 2353 2234 1838 2234 
L 1294 2234 
L 1294 2753 
L 1863 2753 
Q 2328 2753 2575 2939 
Q 2822 3125 2822 3475 
Q 2822 3834 2567 4026 
Q 2313 4219 1838 4219 
Q 1578 4219 1281 4162 
Q 984 4106 628 3988 
L 628 4550 
Q 988 4650 1302 4700 
Q 1616 4750 1894 4750 
Q 2613 4750 3031 4423 
Q 3450 4097 3450 3541 
Q 3450 3153 3228 2886 
Q 3006 2619 2597 2516 
z
" transform="scale(0.015625)"/>
       </defs>
       <use xlink:href="#DejaVuSans-30"/>
       <use xlink:href="#DejaVuSans-2e" x="63.623047"/>
       <use xlink:href="#DejaVuSans-30" x="95.410156"/>
       <use xlink:href="#DejaVuSans-30" x="159.033203"/>
       <use xlink:href="#DejaVuSans-33" x="222.65625"/>
      </g>
     </g>
    </g>
    <g id="ytick_5">
     <g id="line2d_11">
      <g>
       <use xlink:href="#mc3844f0be5" x="56.50625" y="61.76" style="stroke: #000000; stroke-width: 0.8"/>
      </g>
     </g>
     <g id="text_11">
      <!-- 0.004 -->
      <g transform="translate(20.878125 65.559219) scale(0.1 -0.1)">
       <defs>
        <path id="DejaVuSans-34" d="M 2419 4116 
L 825 1625 
L 2419 1625 
L 2419 4116 
z
M 2253 4666 
L 3047 4666 
L 3047 1625 
L 3713 1625 
L 3713 1100 
L 3047 1100 
L 3047 0 
L 2419 0 
L 2419 1100 
L 313 1100 
L 313 1709 
L 2253 4666 
z
" transform="scale(0.015625)"/>
       </defs>
       <use xlink:href="#DejaVuSans-30"/>
       <use xlink:href="#DejaVuSans-2e" x="63.623047"/>
       <use xlink:href="#DejaVuSans-30" x="95.410156"/>
       <use xlink:href="#DejaVuSans-30" x="159.033203"/>
       <use xlink:href="#DejaVuSans-34" x="222.65625"/>
      </g>
     </g>
    </g>
    <g id="ytick_6">
     <g id="line2d_12">
      <g>
       <use xlink:href="#mc3844f0be5" x="56.50625" y="19.96" style="stroke: #000000; stroke-width: 0.8"/>
      </g>
     </g>
     <g id="text_12">
      <!-- 0.005 -->
      <g transform="translate(20.878125 23.759219) scale(0.1 -0.1)">
       <use xlink:href="#DejaVuSans-30"/>
       <use xlink:href="#DejaVuSans-2e" x="63.623047"/>
       <use xlink:href="#DejaVuSans-30" x="95.410156"/>
       <use xlink:href="#DejaVuSans-30" x="159.033203"/>
       <use xlink:href="#DejaVuSans-35" x="222.65625"/>
      </g>
     </g>
    </g>
    <g id="text_13">
     <!-- density -->
     <g transform="translate(14.798438 136.412812) rotate(-90) scale(0.1 -0.1)">
      <defs>
       <path id="DejaVuSans-64" d="M 2906 2969 
L 2906 4863 
L 3481 4863 
L 3481 0 
L 2906 0 
L 2906 525 
Q 2725 213 2448 61 
Q 2172 -91 1784 -91 
Q 1150 -91 751 415 
Q 353 922 353 1747 
Q 353 2572 751 3078 
Q 1150 3584 1784 3584 
Q 2172 3584 2448 3432 
Q 2725 3281 2906 2969 
z
M 947 1747 
Q 947 1113 1208 752 
Q 1469 391 1925 391 
Q 2381 391 2643 752 
Q 2906 1113 2906 1747 
Q 2906 2381 2643 2742 
Q 2381 3103 1925 3103 
Q 1469 3103 1208 2742 
Q 947 2381 947 1747 
z
" transform="scale(0.015625)"/>
       <path id="DejaVuSans-65" d="M 3597 1894 
L 3597 1613 
L 953 1613 
Q 991 1019 1311 708 
Q 1631 397 2203 397 
Q 2534 397 2845 478 
Q 3156 559 3463 722 
L 3463 178 
Q 3153 47 2828 -22 
Q 2503 -91 2169 -91 
Q 1331 -91 842 396 
Q 353 884 353 1716 
Q 353 2575 817 3079 
Q 1281 3584 2069 3584 
Q 2775 3584 3186 3129 
Q 3597 2675 3597 1894 
z
M 3022 2063 
Q 3016 2534 2758 2815 
Q 2500 3097 2075 3097 
Q 1594 3097 1305 2825 
Q 1016 2553 972 2059 
L 3022 2063 
z
" transform="scale(0.015625)"/>
       <path id="DejaVuSans-6e" d="M 3513 2113 
L 3513 0 
L 2938 0 
L 2938 2094 
Q 2938 2591 2744 2837 
Q 2550 3084 2163 3084 
Q 1697 3084 1428 2787 
Q 1159 2491 1159 1978 
L 1159 0 
L 581 0 
L 581 3500 
L 1159 3500 
L 1159 2956 
Q 1366 3272 1645 3428 
Q 1925 3584 2291 3584 
Q 2894 3584 3203 3211 
Q 3513 2838 3513 2113 
z
" transform="scale(0.015625)"/>
       <path id="DejaVuSans-73" d="M 2834 3397 
L 2834 2853 
Q 2591 2978 2328 3040 
Q 2066 3103 1784 3103 
Q 1356 3103 1142 2972 
Q 928 2841 928 2578 
Q 928 2378 1081 2264 
Q 1234 2150 1697 2047 
L 1894 2003 
Q 2506 1872 2764 1633 
Q 3022 1394 3022 966 
Q 3022 478 2636 193 
Q 2250 -91 1575 -91 
Q 1294 -91 989 -36 
Q 684 19 347 128 
L 347 722 
Q 666 556 975 473 
Q 1284 391 1588 391 
Q 1994 391 2212 530 
Q 2431 669 2431 922 
Q 2431 1156 2273 1281 
Q 2116 1406 1581 1522 
L 1381 1569 
Q 847 1681 609 1914 
Q 372 2147 372 2553 
Q 372 3047 722 3315 
Q 1072 3584 1716 3584 
Q 2034 3584 2315 3537 
Q 2597 3491 2834 3397 
z
" transform="scale(0.015625)"/>
       <path id="DejaVuSans-69" d="M 603 3500 
L 1178 3500 
L 1178 0 
L 603 0 
L 603 3500 
z
M 603 4863 
L 1178 4863 
L 1178 4134 
L 603 4134 
L 603 4863 
z
" transform="scale(0.015625)"/>
       <path id="DejaVuSans-74" d="M 1172 4494 
L 1172 3500 
L 2356 3500 
L 2356 3053 
L 1172 3053 
L 1172 1153 
Q 1172 725 1289 603 
Q 1406 481 1766 481 
L 2356 481 
L 2356 0 
L 1766 0 
Q 1100 0 847 248 
Q 594 497 594 1153 
L 594 3053 
L 172 3053 
L 172 3500 
L 594 3500 
L 594 4494 
L 1172 4494 
z
" transform="scale(0.015625)"/>
       <path id="DejaVuSans-79" d="M 2059 -325 
Q 1816 -950 1584 -1140 
Q 1353 -1331 966 -1331 
L 506 -1331 
L 506 -850 
L 844 -850 
Q 1081 -850 1212 -737 
Q 1344 -625 1503 -206 
L 1606 56 
L 191 3500 
L 800 3500 
L 1894 763 
L 2988 3500 
L 3597 3500 
L 2059 -325 
z
" transform="scale(0.015625)"/>
      </defs>
      <use xlink:href="#DejaVuSans-64"/>
      <use xlink:href="#DejaVuSans-65" x="63.476562"/>
      <use xlink:href="#DejaVuSans-6e" x="125"/>
      <use xlink:href="#DejaVuSans-73" x="188.378906"/>
      <use xlink:href="#DejaVuSans-69" x="240.478516"/>
      <use xlink:href="#DejaVuSans-74" x="268.261719"/>
      <use xlink:href="#DejaVuSans-79" x="307.470703"/>
     </g>
    </g>
   </g>
   <g id="line2d_13">
    <path d="M 66.651705 227.299923 
L 69.037713 226.775679 
L 70.827219 226.161881 
L 72.417891 225.377907 
L 73.809729 224.445645 
L 75.201567 223.223331 
L 76.394571 221.898269 
L 77.587576 220.275734 
L 78.78058 218.317818 
L 80.172418 215.564095 
L 81.564256 212.263194 
L 82.956094 208.387607 
L 84.546766 203.249093 
L 86.336272 196.611141 
L 88.324613 188.334273 
L 91.505957 173.944295 
L 94.488467 160.728064 
L 96.277973 153.756589 
L 97.669811 149.16445 
L 98.862815 145.95082 
L 99.856986 143.850461 
L 100.652322 142.576973 
L 101.447658 141.68072 
L 102.04416 141.261519 
L 102.640662 141.061093 
L 103.237164 141.079224 
L 103.833666 141.31389 
L 104.430168 141.761301 
L 105.225504 142.679009 
L 106.02084 143.947328 
L 107.01501 145.991205 
L 108.208014 149.044945 
L 109.599852 153.298409 
L 111.389359 159.560765 
L 118.348549 184.832434 
L 119.939221 189.372436 
L 121.33106 192.686231 
L 122.524064 194.99698 
L 123.717068 196.80251 
L 124.711238 197.91927 
L 125.705408 198.687999 
L 126.500744 199.058269 
L 127.29608 199.217725 
L 128.091416 199.173924 
L 128.886752 198.935488 
L 129.880922 198.378309 
L 130.875092 197.552135 
L 132.068096 196.236264 
L 133.459935 194.304217 
L 135.050607 191.654995 
L 137.038947 187.836954 
L 140.021457 181.508436 
L 143.799304 173.551231 
L 145.787644 169.878125 
L 147.378316 167.381033 
L 148.770154 165.593804 
L 149.963158 164.39495 
L 151.156162 163.526623 
L 152.150332 163.065789 
L 153.144502 162.848162 
L 154.138672 162.873777 
L 155.132843 163.138924 
L 156.127013 163.636339 
L 157.320017 164.524739 
L 158.513021 165.708421 
L 159.904859 167.423733 
L 161.495531 169.759966 
L 163.483871 173.117599 
L 166.267548 178.32671 
L 173.027904 191.171873 
L 175.81158 195.915786 
L 178.595257 200.219768 
L 181.378933 204.109262 
L 184.162609 207.628104 
L 186.946285 210.805451 
L 189.729962 213.647615 
L 192.314804 215.982659 
L 194.899646 218.026861 
L 197.484488 219.796983 
L 200.268165 221.433264 
L 203.250675 222.93041 
L 206.630853 224.37434 
L 210.209866 225.662026 
L 213.788878 226.718076 
L 217.36789 227.539116 
L 220.946903 228.129492 
L 224.923583 228.548193 
L 229.695599 228.808263 
L 236.65479 228.93444 
L 255.742856 228.959977 
L 265.286889 228.96 
L 265.286889 228.96 
" clip-path="url(#pad5ee6c2e1)" style="fill: none; stroke: #1f77b4; stroke-width: 1.5; stroke-linecap: square"/>
   </g>
   <g id="line2d_14">
    <path d="M 66.651705 228.958883 
L 85.540936 228.842054 
L 92.500127 228.579451 
L 98.266313 228.143736 
L 103.833666 227.502613 
L 109.401018 226.644836 
L 113.974201 225.728988 
L 117.354379 224.843048 
L 120.138055 223.901399 
L 122.722898 222.788807 
L 125.108906 221.504141 
L 127.29608 220.069503 
L 129.483254 218.359152 
L 131.670428 216.353138 
L 133.857603 214.043169 
L 136.243611 211.183462 
L 138.828453 207.718002 
L 141.810963 203.329673 
L 146.185312 196.446161 
L 151.55383 188.079072 
L 154.536341 183.857799 
L 157.121183 180.595808 
L 159.507191 177.957846 
L 161.694365 175.858292 
L 164.080373 173.88844 
L 166.665216 172.067558 
L 169.647726 170.248419 
L 175.612746 166.949837 
L 184.560277 162.130453 
L 186.946285 161.128546 
L 188.934626 160.517915 
L 190.724132 160.193755 
L 192.314804 160.116122 
L 193.905476 160.258824 
L 195.496148 160.637637 
L 197.08682 161.262478 
L 198.677493 162.137314 
L 200.268165 163.260401 
L 202.057671 164.811741 
L 203.847177 166.651497 
L 205.835517 169.005863 
L 208.221525 172.208907 
L 211.005202 176.367681 
L 214.584214 182.166295 
L 222.935243 195.88853 
L 225.718919 199.950708 
L 228.104927 203.042197 
L 230.292101 205.501184 
L 232.280442 207.398712 
L 234.069948 208.82395 
L 235.859454 209.985685 
L 237.64896 210.897544 
L 239.6373 211.645087 
L 241.62564 212.153538 
L 244.011649 212.520315 
L 247.192993 212.761694 
L 252.561511 213.159049 
L 255.146354 213.593439 
L 257.532362 214.22235 
L 259.91837 215.090695 
L 262.503212 216.287766 
L 265.286889 217.817096 
L 265.286889 217.817096 
" clip-path="url(#pad5ee6c2e1)" style="fill: none; stroke: #ff7f0e; stroke-width: 1.5; stroke-linecap: square"/>
   </g>
   <g id="line2d_15">
    <path d="M 66.651705 228.96 
L 100.851156 228.857368 
L 103.237164 228.629368 
L 105.02667 228.253186 
L 106.617342 227.678697 
L 108.00918 226.926278 
L 109.401018 225.891485 
L 110.792857 224.538458 
L 112.184695 222.842005 
L 113.576533 220.780244 
L 114.968371 218.321498 
L 116.360209 215.409919 
L 117.752047 211.956018 
L 119.143885 207.837939 
L 120.535723 202.917032 
L 121.927562 197.067446 
L 123.3194 190.214264 
L 124.910072 181.173096 
L 126.898412 168.354217 
L 130.079756 146.003527 
L 141.612129 64.630954 
L 143.003967 56.522627 
L 143.998138 51.990919 
L 144.793474 49.35069 
L 145.389976 48.032196 
L 145.787644 47.493255 
L 146.185312 47.238012 
L 146.58298 47.273303 
L 146.980648 47.602897 
L 147.378316 48.227323 
L 147.974818 49.709702 
L 148.57132 51.824673 
L 149.366656 55.557054 
L 150.360826 61.490514 
L 151.752664 71.533025 
L 157.916519 118.708883 
L 161.694365 145.415401 
L 164.279207 165.831225 
L 167.062884 187.576955 
L 168.653556 198.255899 
L 170.045394 206.005828 
L 171.238398 211.395026 
L 172.431402 215.69708 
L 173.425572 218.547196 
L 174.419742 220.82498 
L 175.413912 222.617204 
L 176.408083 223.998981 
L 177.402253 225.030651 
L 178.396423 225.758835 
L 179.390593 226.220194 
L 180.384763 226.446357 
L 181.378933 226.468754 
L 182.571937 226.276342 
L 184.162609 225.767135 
L 187.741622 224.525562 
L 189.13346 224.317146 
L 190.525298 224.32475 
L 192.513638 224.598298 
L 195.09848 224.957523 
L 196.689152 224.957566 
L 198.677493 224.702745 
L 201.461169 224.320775 
L 202.853007 224.355942 
L 204.244845 224.62449 
L 205.835517 225.198131 
L 208.221525 226.361956 
L 210.806368 227.564495 
L 212.595874 228.167972 
L 214.584214 228.589803 
L 216.970222 228.836186 
L 220.549235 228.943519 
L 233.473446 228.96 
L 265.286889 228.96 
L 265.286889 228.96 
" clip-path="url(#pad5ee6c2e1)" style="fill: none; stroke: #2ca02c; stroke-width: 1.5; stroke-linecap: square"/>
   </g>
   <g id="patch_93">
    <path d="M 56.50625 228.96 
L 56.50625 7.2 
" style="fill: none; stroke: #000000; stroke-width: 0.8; stroke-linejoin: miter; stroke-linecap: square"/>
   </g>
   <g id="patch_94">
    <path d="M 279.70625 228.96 
L 279.70625 7.2 
" style="fill: none; stroke: #000000; stroke-width: 0.8; stroke-linejoin: miter; stroke-linecap: square"/>
   </g>
   <g id="patch_95">
    <path d="M 56.50625 228.96 
L 279.70625 228.96 
" style="fill: none; stroke: #000000; stroke-width: 0.8; stroke-linejoin: miter; stroke-linecap: square"/>
   </g>
   <g id="patch_96">
    <path d="M 56.50625 7.2 
L 279.70625 7.2 
" style="fill: none; stroke: #000000; stroke-width: 0.8; stroke-linejoin: miter; stroke-linecap: square"/>
   </g>
   <g id="legend_1">
    <g id="patch_97">
     <path d="M 206.048437 59.234375 
L 272.70625 59.234375 
Q 274.70625 59.234375 274.70625 57.234375 
L 274.70625 14.2 
Q 274.70625 12.2 272.70625 12.2 
L 206.048437 12.2 
Q 204.048437 12.2 204.048437 14.2 
L 204.048437 57.234375 
Q 204.048437 59.234375 206.048437 59.234375 
z
" style="fill: #ffffff; opacity: 0.8; stroke: #cccccc; stroke-linejoin: miter"/>
    </g>
    <g id="patch_98">
     <path d="M 208.048437 23.798437 
L 228.048437 23.798437 
L 228.048437 16.798437 
L 208.048437 16.798437 
z
" style="fill: #1f77b4; opacity: 0.4"/>
    </g>
    <g id="text_14">
     <!-- control -->
     <g transform="translate(236.048437 23.798437) scale(0.1 -0.1)">
      <defs>
       <path id="DejaVuSans-63" d="M 3122 3366 
L 3122 2828 
Q 2878 2963 2633 3030 
Q 2388 3097 2138 3097 
Q 1578 3097 1268 2742 
Q 959 2388 959 1747 
Q 959 1106 1268 751 
Q 1578 397 2138 397 
Q 2388 397 2633 464 
Q 2878 531 3122 666 
L 3122 134 
Q 2881 22 2623 -34 
Q 2366 -91 2075 -91 
Q 1284 -91 818 406 
Q 353 903 353 1747 
Q 353 2603 823 3093 
Q 1294 3584 2113 3584 
Q 2378 3584 2631 3529 
Q 2884 3475 3122 3366 
z
" transform="scale(0.015625)"/>
       <path id="DejaVuSans-6f" d="M 1959 3097 
Q 1497 3097 1228 2736 
Q 959 2375 959 1747 
Q 959 1119 1226 758 
Q 1494 397 1959 397 
Q 2419 397 2687 759 
Q 2956 1122 2956 1747 
Q 2956 2369 2687 2733 
Q 2419 3097 1959 3097 
z
M 1959 3584 
Q 2709 3584 3137 3096 
Q 3566 2609 3566 1747 
Q 3566 888 3137 398 
Q 2709 -91 1959 -91 
Q 1206 -91 779 398 
Q 353 888 353 1747 
Q 353 2609 779 3096 
Q 1206 3584 1959 3584 
z
" transform="scale(0.015625)"/>
       <path id="DejaVuSans-72" d="M 2631 2963 
Q 2534 3019 2420 3045 
Q 2306 3072 2169 3072 
Q 1681 3072 1420 2755 
Q 1159 2438 1159 1844 
L 1159 0 
L 581 0 
L 581 3500 
L 1159 3500 
L 1159 2956 
Q 1341 3275 1631 3429 
Q 1922 3584 2338 3584 
Q 2397 3584 2469 3576 
Q 2541 3569 2628 3553 
L 2631 2963 
z
" transform="scale(0.015625)"/>
       <path id="DejaVuSans-6c" d="M 603 4863 
L 1178 4863 
L 1178 0 
L 603 0 
L 603 4863 
z
" transform="scale(0.015625)"/>
      </defs>
      <use xlink:href="#DejaVuSans-63"/>
      <use xlink:href="#DejaVuSans-6f" x="54.980469"/>
      <use xlink:href="#DejaVuSans-6e" x="116.162109"/>
      <use xlink:href="#DejaVuSans-74" x="179.541016"/>
      <use xlink:href="#DejaVuSans-72" x="218.75"/>
      <use xlink:href="#DejaVuSans-6f" x="257.613281"/>
      <use xlink:href="#DejaVuSans-6c" x="318.794922"/>
     </g>
    </g>
    <g id="patch_99">
     <path d="M 208.048437 38.476562 
L 228.048437 38.476562 
L 228.048437 31.476562 
L 208.048437 31.476562 
z
" style="fill: #ff7f0e; opacity: 0.4"/>
    </g>
    <g id="text_15">
     <!-- cytd -->
     <g transform="translate(236.048437 38.476562) scale(0.1 -0.1)">
      <use xlink:href="#DejaVuSans-63"/>
      <use xlink:href="#DejaVuSans-79" x="54.980469"/>
      <use xlink:href="#DejaVuSans-74" x="114.160156"/>
      <use xlink:href="#DejaVuSans-64" x="153.369141"/>
     </g>
    </g>
    <g id="patch_100">
     <path d="M 208.048437 53.154687 
L 228.048437 53.154687 
L 228.048437 46.154687 
L 208.048437 46.154687 
z
" style="fill: #2ca02c; opacity: 0.4"/>
    </g>
    <g id="text_16">
     <!-- jasp -->
     <g transform="translate(236.048437 53.154687) scale(0.1 -0.1)">
      <defs>
       <path id="DejaVuSans-6a" d="M 603 3500 
L 1178 3500 
L 1178 -63 
Q 1178 -731 923 -1031 
Q 669 -1331 103 -1331 
L -116 -1331 
L -116 -844 
L 38 -844 
Q 366 -844 484 -692 
Q 603 -541 603 -63 
L 603 3500 
z
M 603 4863 
L 1178 4863 
L 1178 4134 
L 603 4134 
L 603 4863 
z
" transform="scale(0.015625)"/>
       <path id="DejaVuSans-61" d="M 2194 1759 
Q 1497 1759 1228 1600 
Q 959 1441 959 1056 
Q 959 750 1161 570 
Q 1363 391 1709 391 
Q 2188 391 2477 730 
Q 2766 1069 2766 1631 
L 2766 1759 
L 2194 1759 
z
M 3341 1997 
L 3341 0 
L 2766 0 
L 2766 531 
Q 2569 213 2275 61 
Q 1981 -91 1556 -91 
Q 1019 -91 701 211 
Q 384 513 384 1019 
Q 384 1609 779 1909 
Q 1175 2209 1959 2209 
L 2766 2209 
L 2766 2266 
Q 2766 2663 2505 2880 
Q 2244 3097 1772 3097 
Q 1472 3097 1187 3025 
Q 903 2953 641 2809 
L 641 3341 
Q 956 3463 1253 3523 
Q 1550 3584 1831 3584 
Q 2591 3584 2966 3190 
Q 3341 2797 3341 1997 
z
" transform="scale(0.015625)"/>
       <path id="DejaVuSans-70" d="M 1159 525 
L 1159 -1331 
L 581 -1331 
L 581 3500 
L 1159 3500 
L 1159 2969 
Q 1341 3281 1617 3432 
Q 1894 3584 2278 3584 
Q 2916 3584 3314 3078 
Q 3713 2572 3713 1747 
Q 3713 922 3314 415 
Q 2916 -91 2278 -91 
Q 1894 -91 1617 61 
Q 1341 213 1159 525 
z
M 3116 1747 
Q 3116 2381 2855 2742 
Q 2594 3103 2138 3103 
Q 1681 3103 1420 2742 
Q 1159 2381 1159 1747 
Q 1159 1113 1420 752 
Q 1681 391 2138 391 
Q 2594 391 2855 752 
Q 3116 1113 3116 1747 
z
" transform="scale(0.015625)"/>
      </defs>
      <use xlink:href="#DejaVuSans-6a"/>
      <use xlink:href="#DejaVuSans-61" x="27.783203"/>
      <use xlink:href="#DejaVuSans-73" x="89.0625"/>
      <use xlink:href="#DejaVuSans-70" x="141.162109"/>
     </g>
    </g>
   </g>
  </g>
 </g>
 <defs>
  <clipPath id="pad5ee6c2e1">
   <rect x="56.50625" y="7.2" width="223.2" height="221.76"/>
  </clipPath>
 </defs>
</svg>
