<?xml version="1.0" encoding="utf-8" standalone="no"?>
<!DOCTYPE svg PUBLIC "-//W3C//DTD SVG 1.1//EN"
  "http://www.w3.org/Graphics/SVG/1.1/DTD/svg11.dtd">
<svg xmlns:xlink="http://www.w3.org/1999/xlink" width="288pt" height="144pt" viewBox="0 0 288 144" xmlns="http://www.w3.org/2000/svg" version="1.1">
 <metadata>
  <rdf:RDF xmlns:dc="http://purl.org/dc/elements/1.1/" xmlns:cc="http://creativecommons.org/ns#" xmlns:rdf="http://www.w3.org/1999/02/22-rdf-syntax-ns#">
   <cc:Work>
    <dc:type rdf:resource="http://purl.org/dc/dcmitype/StillImage"/>
    <dc:date>2024-04-03T18:00:10.394657</dc:date>
    <dc:format>image/svg+xml</dc:format>
    <dc:creator>
     <cc:Agent>
      <dc:title>Matplotlib v3.8.3, https://matplotlib.org/</dc:title>
     </cc:Agent>
    </dc:creator>
   </cc:Work>
  </rdf:RDF>
 </metadata>
 <defs>
  <style type="text/css">*{stroke-linejoin: round; stroke-linecap: butt}</style>
 </defs>
 <g id="figure_1">
  <g id="patch_1">
   <path d="M 0 144 
L 288 144 
L 288 0 
L 0 0 
z
" style="fill: #ffffff"/>
  </g>
  <g id="axes_1">
   <g id="patch_2">
    <path d="M 10.8 133.2 
L 138.6 133.2 
L 138.6 27.6 
L 10.8 27.6 
z
" style="fill: #ffffff"/>
   </g>
   <g id="matplotlib.axis_1"/>
   <g id="matplotlib.axis_2"/>
   <g id="line2d_1">
    <path d="M 106.708916 32.4 
L 107.34193 34.256172 
L 108.181378 37.509345 
L 108.615421 41.710856 
L 110.073434 45.908619 
L 110.830139 50.54958 
L 110.297238 53.040041 
L 106.299843 64.247384 
L 103.757186 68.170734 
L 101.931323 68.89878 
L 95.801793 70.606412 
L 80.204526 70.491616 
L 80.817602 71.350183 
L 80.81936 71.402766 
L 80.466718 71.607444 
L 93.214445 76.311717 
L 97.070636 78.541211 
L 85.20454 78.232117 
L 86.957864 84.080481 
L 87.849777 85.993292 
L 87.368031 88.076285 
L 86.767136 88.132138 
L 85.397768 88.09322 
L 76.894689 88.034126 
L 77.550824 89.22767 
L 83.634864 92.762369 
L 83.787378 92.993179 
L 85.708719 96.700811 
L 81.22577 99.153264 
L 73.504605 100.158479 
L 71.641758 100.743613 
L 63.065719 101.06024 
L 60.38256 102.082917 
L 58.449367 102.725499 
L 56.445349 103.238321 
L 54.154516 103.259136 
L 50.250153 105.247256 
L 43.567121 107.448525 
L 39.838665 108.554486 
L 37.726371 109.387497 
L 35.328563 110.114376 
L 32.204626 110.392999 
L 28.630174 111.619013 
L 25.756823 112.740538 
L 23.746397 113.357336 
L 19.153574 114.082734 
L 16.609091 114.935051 
L 25.572516 113.921332 
L 53.599347 105.598885 
L 66.019563 103.633916 
L 67.365681 103.633608 
L 75.202517 102.723738 
L 82.932972 103.237799 
L 85.811766 104.534755 
L 86.985126 106.221902 
L 86.786225 108.310115 
L 86.37663 109.397487 
L 85.739519 110.684557 
L 82.704596 113.570908 
L 73.556713 124.35315 
L 71.464499 128.014277 
L 71.42404 128.4 
L 85.199412 115.764089 
L 88.23254 120.546174 
L 89.138263 117.105056 
L 94.06765 112.979697 
L 95.522433 113.279659 
L 96.968001 113.814369 
L 97.537694 117.166355 
L 97.107195 124.701548 
L 97.586673 123.580386 
L 98.003111 122.918328 
L 98.765999 122.059833 
L 100.033178 121.103207 
L 100.911682 119.927414 
L 101.357923 118.903471 
L 102.499557 116.692661 
L 103.309939 116.21023 
L 117.614831 123.979365 
L 114.957032 116.536827 
L 114.258646 113.420495 
L 115.308582 113.426098 
L 116.367732 113.163609 
L 110.476026 90.876843 
L 110.480775 90.888119 
L 117.166482 98.819216 
L 117.197056 98.78623 
L 131.289849 96.689357 
L 131.827348 93.874179 
L 131.960485 92.659075 
L 131.995917 91.115311 
L 131.787911 87.013636 
L 132.279423 83.683795 
L 131.887569 82.534305 
L 130.439765 79.933985 
L 132.399218 77.201683 
L 132.790909 75.943107 
L 128.928504 75.209778 
L 128.249622 74.063517 
L 130.048022 71.355123 
L 128.672557 70.661662 
L 125.828431 70.001612 
L 124.725543 69.479291 
L 123.636955 68.408463 
L 122.842211 66.186231 
L 130.487555 57.311021 
L 122.257751 54.242516 
L 113.675773 49.681517 
L 112.691225 45.876065 
L 111.945758 42.301733 
L 111.372716 40.562624 
L 110.733503 39.468532 
L 110.208134 38.256395 
L 108.924233 34.712508 
L 108.924233 34.712508 
" clip-path="url(#p54b8b67620)" style="fill: none; stroke: #808080; stroke-width: 1.5; stroke-linecap: square"/>
   </g>
   <g id="text_1">
    <!-- 363 -->
    <g transform="translate(61.33875 21.6) scale(0.14 -0.14)">
     <defs>
      <path id="DejaVuSans-33" d="M 2597 2516 
Q 3050 2419 3304 2112 
Q 3559 1806 3559 1356 
Q 3559 666 3084 287 
Q 2609 -91 1734 -91 
Q 1441 -91 1130 -33 
Q 819 25 488 141 
L 488 750 
Q 750 597 1062 519 
Q 1375 441 1716 441 
Q 2309 441 2620 675 
Q 2931 909 2931 1356 
Q 2931 1769 2642 2001 
Q 2353 2234 1838 2234 
L 1294 2234 
L 1294 2753 
L 1863 2753 
Q 2328 2753 2575 2939 
Q 2822 3125 2822 3475 
Q 2822 3834 2567 4026 
Q 2313 4219 1838 4219 
Q 1578 4219 1281 4162 
Q 984 4106 628 3988 
L 628 4550 
Q 988 4650 1302 4700 
Q 1616 4750 1894 4750 
Q 2613 4750 3031 4423 
Q 3450 4097 3450 3541 
Q 3450 3153 3228 2886 
Q 3006 2619 2597 2516 
z
" transform="scale(0.015625)"/>
      <path id="DejaVuSans-36" d="M 2113 2584 
Q 1688 2584 1439 2293 
Q 1191 2003 1191 1497 
Q 1191 994 1439 701 
Q 1688 409 2113 409 
Q 2538 409 2786 701 
Q 3034 994 3034 1497 
Q 3034 2003 2786 2293 
Q 2538 2584 2113 2584 
z
M 3366 4563 
L 3366 3988 
Q 3128 4100 2886 4159 
Q 2644 4219 2406 4219 
Q 1781 4219 1451 3797 
Q 1122 3375 1075 2522 
Q 1259 2794 1537 2939 
Q 1816 3084 2150 3084 
Q 2853 3084 3261 2657 
Q 3669 2231 3669 1497 
Q 3669 778 3244 343 
Q 2819 -91 2113 -91 
Q 1303 -91 875 529 
Q 447 1150 447 2328 
Q 447 3434 972 4092 
Q 1497 4750 2381 4750 
Q 2619 4750 2861 4703 
Q 3103 4656 3366 4563 
z
" transform="scale(0.015625)"/>
     </defs>
     <use xlink:href="#DejaVuSans-33"/>
     <use xlink:href="#DejaVuSans-36" x="63.623047"/>
     <use xlink:href="#DejaVuSans-33" x="127.246094"/>
    </g>
   </g>
  </g>
  <g id="axes_2">
   <g id="patch_3">
    <path d="M 149.4 133.2 
L 277.2 133.2 
L 277.2 27.6 
L 149.4 27.6 
z
" style="fill: #ffffff"/>
   </g>
   <g id="matplotlib.axis_3"/>
   <g id="matplotlib.axis_4"/>
   <g id="line2d_2">
    <path d="M 245.308916 32.4 
L 245.94193 34.256172 
L 246.781378 37.509345 
L 247.215421 41.710856 
L 248.673434 45.908619 
L 249.430139 50.54958 
L 248.897238 53.040041 
L 244.899843 64.247384 
L 242.357186 68.170734 
L 240.531323 68.89878 
L 234.401793 70.606412 
L 218.804526 70.491616 
L 219.417602 71.350183 
L 219.41936 71.402766 
L 219.066718 71.607444 
L 231.814445 76.311717 
L 235.670636 78.541211 
L 223.80454 78.232117 
L 225.557864 84.080481 
L 226.449777 85.993292 
L 225.968031 88.076285 
L 225.367136 88.132138 
L 223.997768 88.09322 
L 215.494689 88.034126 
L 216.150824 89.22767 
L 222.234864 92.762369 
L 222.387378 92.993179 
L 224.308719 96.700811 
L 219.82577 99.153264 
L 212.104605 100.158479 
L 210.241758 100.743613 
L 201.665719 101.06024 
L 198.98256 102.082917 
L 197.049367 102.725499 
L 195.045349 103.238321 
L 192.754516 103.259136 
L 188.850153 105.247256 
L 182.167121 107.448525 
L 178.438665 108.554486 
L 176.326371 109.387497 
L 173.928563 110.114376 
L 170.804626 110.392999 
L 167.230174 111.619013 
L 164.356823 112.740538 
L 162.346397 113.357336 
L 157.753574 114.082734 
L 155.209091 114.935051 
L 164.172516 113.921332 
L 192.199347 105.598885 
L 204.619563 103.633916 
L 205.965681 103.633608 
L 213.802517 102.723738 
L 221.532972 103.237799 
L 224.411766 104.534755 
L 225.585126 106.221902 
L 225.386225 108.310115 
L 224.97663 109.397487 
L 224.339519 110.684557 
L 221.304596 113.570908 
L 212.156713 124.35315 
L 210.064499 128.014277 
L 210.02404 128.4 
L 223.799412 115.764089 
L 226.83254 120.546174 
L 227.738263 117.105056 
L 232.66765 112.979697 
L 234.122433 113.279659 
L 235.568001 113.814369 
L 236.137694 117.166355 
L 235.707195 124.701548 
L 236.186673 123.580386 
L 236.603111 122.918328 
L 237.365999 122.059833 
L 238.633178 121.103207 
L 239.511682 119.927414 
L 239.957923 118.903471 
L 241.099557 116.692661 
L 241.909939 116.21023 
L 256.214831 123.979365 
L 253.557032 116.536827 
L 252.858646 113.420495 
L 253.908582 113.426098 
L 254.967732 113.163609 
L 249.076026 90.876843 
L 249.080775 90.888119 
L 255.766482 98.819216 
L 255.797056 98.78623 
L 269.889849 96.689357 
L 270.427348 93.874179 
L 270.560485 92.659075 
L 270.595917 91.115311 
L 270.387911 87.013636 
L 270.879423 83.683795 
L 270.487569 82.534305 
L 269.039765 79.933985 
L 270.999218 77.201683 
L 271.390909 75.943107 
L 267.528504 75.209778 
L 266.849622 74.063517 
L 268.648022 71.355123 
L 267.272557 70.661662 
L 264.428431 70.001612 
L 263.325543 69.479291 
L 262.236955 68.408463 
L 261.442211 66.186231 
L 269.087555 57.311021 
L 260.857751 54.242516 
L 252.275773 49.681517 
L 251.291225 45.876065 
L 250.545758 42.301733 
L 249.972716 40.562624 
L 249.333503 39.468532 
L 248.808134 38.256395 
L 247.524233 34.712508 
L 247.524233 34.712508 
" clip-path="url(#pfcb60888f8)" style="fill: none; stroke: #808080; stroke-width: 1.5; stroke-linecap: square"/>
   </g>
   <g id="text_2">
    <!-- 396 -->
    <g transform="translate(199.93875 21.6) scale(0.14 -0.14)">
     <defs>
      <path id="DejaVuSans-39" d="M 703 97 
L 703 672 
Q 941 559 1184 500 
Q 1428 441 1663 441 
Q 2288 441 2617 861 
Q 2947 1281 2994 2138 
Q 2813 1869 2534 1725 
Q 2256 1581 1919 1581 
Q 1219 1581 811 2004 
Q 403 2428 403 3163 
Q 403 3881 828 4315 
Q 1253 4750 1959 4750 
Q 2769 4750 3195 4129 
Q 3622 3509 3622 2328 
Q 3622 1225 3098 567 
Q 2575 -91 1691 -91 
Q 1453 -91 1209 -44 
Q 966 3 703 97 
z
M 1959 2075 
Q 2384 2075 2632 2365 
Q 2881 2656 2881 3163 
Q 2881 3666 2632 3958 
Q 2384 4250 1959 4250 
Q 1534 4250 1286 3958 
Q 1038 3666 1038 3163 
Q 1038 2656 1286 2365 
Q 1534 2075 1959 2075 
z
" transform="scale(0.015625)"/>
     </defs>
     <use xlink:href="#DejaVuSans-33"/>
     <use xlink:href="#DejaVuSans-39" x="63.623047"/>
     <use xlink:href="#DejaVuSans-36" x="127.246094"/>
    </g>
   </g>
  </g>
 </g>
 <defs>
  <clipPath id="p54b8b67620">
   <rect x="10.8" y="27.6" width="127.8" height="105.6"/>
  </clipPath>
  <clipPath id="pfcb60888f8">
   <rect x="149.4" y="27.6" width="127.8" height="105.6"/>
  </clipPath>
 </defs>
</svg>
