<?xml version="1.0" encoding="utf-8" standalone="no"?>
<!DOCTYPE svg PUBLIC "-//W3C//DTD SVG 1.1//EN"
  "http://www.w3.org/Graphics/SVG/1.1/DTD/svg11.dtd">
<svg xmlns:xlink="http://www.w3.org/1999/xlink" width="288pt" height="144pt" viewBox="0 0 288 144" xmlns="http://www.w3.org/2000/svg" version="1.1">
 <metadata>
  <rdf:RDF xmlns:dc="http://purl.org/dc/elements/1.1/" xmlns:cc="http://creativecommons.org/ns#" xmlns:rdf="http://www.w3.org/1999/02/22-rdf-syntax-ns#">
   <cc:Work>
    <dc:type rdf:resource="http://purl.org/dc/dcmitype/StillImage"/>
    <dc:date>2024-05-09T10:17:03.043547</dc:date>
    <dc:format>image/svg+xml</dc:format>
    <dc:creator>
     <cc:Agent>
      <dc:title>Matplotlib v3.8.4, https://matplotlib.org/</dc:title>
     </cc:Agent>
    </dc:creator>
   </cc:Work>
  </rdf:RDF>
 </metadata>
 <defs>
  <style type="text/css">*{stroke-linejoin: round; stroke-linecap: butt}</style>
 </defs>
 <g id="figure_1">
  <g id="patch_1">
   <path d="M 0 144 
L 288 144 
L 288 0 
L 0 0 
z
" style="fill: #ffffff"/>
  </g>
  <g id="axes_1">
   <g id="patch_2">
    <path d="M 10.8 133.2 
L 138.6 133.2 
L 138.6 27.6 
L 10.8 27.6 
z
" style="fill: #ffffff"/>
   </g>
   <g id="matplotlib.axis_1"/>
   <g id="matplotlib.axis_2"/>
   <g id="line2d_1">
    <path d="M 124.269524 97.723895 
L 124.884295 97.688867 
L 124.946125 96.977169 
L 125.585767 96.374585 
L 126.062387 96.378683 
L 126.103001 95.700401 
L 126.703485 94.68676 
L 127.271097 91.744034 
L 128.864798 91.027449 
L 129.977161 91.708928 
L 132.123632 91.147426 
L 132.585912 89.879171 
L 132.138434 88.985037 
L 131.655175 88.363775 
L 129.637978 86.871785 
L 129.209133 84.278402 
L 130.635095 82.030175 
L 131.576584 81.460521 
L 131.827541 78.046931 
L 132.624846 77.621458 
L 132.790909 76.979336 
L 132.023591 76.721594 
L 131.634985 74.945646 
L 130.978275 73.617066 
L 128.099633 72.933108 
L 126.607144 71.522481 
L 125.653923 71.514286 
L 124.943489 71.372641 
L 124.628186 71.013816 
L 124.311679 70.830831 
L 123.993939 70.828099 
L 123.677678 70.609217 
L 123.365903 70.238812 
L 123.281178 69.124132 
L 123.35996 67.700351 
L 124.359933 66.284482 
L 125.546506 65.009484 
L 126.282989 64.750242 
L 126.311088 64.423353 
L 125.960999 64.129996 
L 122.62578 63.995242 
L 122.310478 63.636417 
L 121.867268 63.418742 
L 121.231788 63.413279 
L 120.598806 63.042697 
L 119.9682 62.325047 
L 119.735325 61.610816 
L 119.745908 60.905124 
L 120.278884 60.076178 
L 120.454968 58.690359 
L 122.100475 56.72324 
L 122.233163 55.962464 
L 122.776565 55.254907 
L 122.779002 54.898813 
L 122.914362 54.543862 
L 123.23454 54.1905 
L 123.553422 54.026416 
L 123.871163 54.029148 
L 123.987554 53.516975 
L 123.886833 52.685451 
L 121.532143 52.735335 
L 120.922462 53.297544 
L 120.476263 53.328046 
L 119.819389 53.399736 
L 119.7892 53.739984 
L 119.695715 54.095295 
L 119.147836 54.655163 
L 118.586536 54.739454 
L 118.46911 55.447009 
L 117.990669 55.977058 
L 116.761068 55.954746 
L 116.04439 55.305692 
L 114.920131 55.203522 
L 114.657885 54.927511 
L 114.410421 54.619728 
L 114.233935 51.258633 
L 113.748467 51.344158 
L 113.446944 51.656498 
L 112.481353 52.587397 
L 111.987099 52.629303 
L 111.240288 53.246436 
L 109.513503 53.135693 
L 109.0064 52.419104 
L 108.937716 51.924719 
L 108.532225 51.88153 
L 107.766512 51.802648 
L 106.966507 51.196154 
L 106.553777 51.096912 
L 106.04984 50.548149 
L 105.546912 49.925188 
L 105.431771 49.109836 
L 105.346116 47.069945 
L 104.985681 46.627816 
L 104.850911 46.3797 
L 104.938344 45.043737 
L 105.464447 44.336026 
L 105.551613 43.713575 
L 106.026844 43.135193 
L 105.886084 43.123876 
L 105.409954 43.048838 
L 104.903676 42.320846 
L 104.885624 41.308322 
L 104.963537 40.401369 
L 105.268061 40.012242 
L 105.4758 39.710365 
L 105.492101 38.669895 
L 105.470766 38.501732 
L 105.263411 38.415112 
L 102.423765 38.296235 
L 101.971153 37.713283 
L 101.917086 37.043015 
L 101.839327 35.635701 
L 101.334068 34.628296 
L 101.291253 34.33572 
L 100.725495 33.655107 
L 100.146956 32.87783 
L 100.125001 32.4 
L 100.06388 32.429597 
L 99.433375 32.986021 
L 98.946793 33.034051 
L 98.862613 33.745556 
L 98.373125 34.384744 
L 98.333398 35.057269 
L 98.266111 35.698419 
L 97.72386 36.5168 
L 97.685571 37.66945 
L 97.277551 38.162101 
L 97.003773 38.329014 
L 95.977404 38.313697 
L 95.619905 38.001425 
L 95.278726 37.671154 
L 94.017869 37.532475 
L 93.386206 36.969171 
L 92.856033 37.052278 
L 92.057677 37.629665 
L 91.720276 37.702545 
L 91.618101 39.073708 
L 91.033952 39.605151 
L 90.214493 39.629566 
L 89.865815 39.543178 
L 89.217995 39.062306 
L 88.711026 39.644488 
L 88.642277 40.356126 
L 88.0469 40.909061 
L 87.492655 40.949998 
L 86.307646 40.988169 
L 85.321242 41.603246 
L 82.002996 41.464017 
L 81.531474 40.989329 
L 81.505071 41.049552 
L 81.502633 41.405645 
L 81.084763 42.030351 
L 80.447856 42.233265 
L 80.275537 45.496688 
L 79.219318 47.423133 
L 78.504614 47.591885 
L 77.818919 48.233983 
L 75.478558 48.186478 
L 74.799557 47.571739 
L 74.164966 47.434859 
L 73.680578 45.48855 
L 73.364918 40.828541 
L 72.305303 40.584354 
L 71.924174 39.318085 
L 71.09376 37.174258 
L 70.150015 35.741474 
L 69.798553 35.422554 
L 69.546689 36.293679 
L 69.114641 37.237463 
L 68.477826 37.426947 
L 68.189013 38.259033 
L 67.730154 38.907968 
L 67.704796 39.454029 
L 66.394693 40.768617 
L 64.696486 40.645017 
L 64.461506 40.46029 
L 63.529089 39.526974 
L 63.527169 39.807529 
L 63.04048 40.607156 
L 62.316234 41.537378 
L 62.279633 42.071232 
L 61.837515 42.601606 
L 59.617402 42.7261 
L 57.887485 42.458379 
L 57.520386 41.46061 
L 57.5147 38.89395 
L 57.086529 38.161304 
L 56.947087 37.625937 
L 56.73851 37.326023 
L 56.26261 37.217687 
L 55.803181 36.6855 
L 55.758089 36.150943 
L 54.959564 36.638813 
L 54.482314 36.728098 
L 53.994406 37.241856 
L 52.672252 37.291065 
L 52.150707 37.626782 
L 52.149242 37.840792 
L 51.719705 38.431654 
L 50.857295 39.275939 
L 50.213922 39.428206 
L 49.756555 39.956927 
L 49.678287 40.668483 
L 49.09091 41.249915 
L 48.492483 41.286626 
L 47.956875 41.301873 
L 45.900829 43.280093 
L 44.317574 43.32802 
L 44.221814 44.039445 
L 43.708313 44.74726 
L 43.631719 45.355708 
L 43.16826 45.903065 
L 43.096501 46.53915 
L 43.059835 47.215154 
L 42.787429 47.622882 
L 42.62734 47.799562 
L 42.321382 47.920358 
L 40.501367 47.937084 
L 40.126228 48.153958 
L 39.898022 50.144969 
L 39.444592 50.55628 
L 39.073546 50.612472 
L 37.58367 50.699938 
L 36.943572 51.26589 
L 36.468532 51.353479 
L 36.426152 51.908904 
L 35.978523 52.470285 
L 35.318043 53.131023 
L 34.901537 53.264268 
L 33.532433 53.218597 
L 33.147099 52.898256 
L 32.871854 52.539776 
L 32.820957 52.012502 
L 32.39633 51.898899 
L 29.190725 51.889666 
L 28.773401 51.983506 
L 29.103035 52.358641 
L 29.251357 54.657264 
L 28.736155 55.792031 
L 28.116167 55.911925 
L 28.009931 56.541999 
L 27.164432 57.199313 
L 23.210057 57.132944 
L 22.468105 56.516956 
L 21.441732 56.924103 
L 21.26987 58.701381 
L 20.435351 59.187143 
L 19.394247 59.437799 
L 18.755935 59.844621 
L 17.506331 60.854583 
L 16.609091 62.222458 
L 17.701621 62.581858 
L 19.965992 65.011677 
L 20.259901 65.868452 
L 21.464956 66.032436 
L 22.568811 67.44501 
L 22.512363 68.631369 
L 22.047419 69.178859 
L 21.730247 69.265816 
L 20.280326 69.38712 
L 20.730025 69.925765 
L 20.919304 71.483898 
L 21.234607 71.842723 
L 21.324099 72.318008 
L 21.459631 75.484365 
L 21.903092 76.055147 
L 21.843077 77.40598 
L 21.150485 78.006934 
L 20.705524 78.098667 
L 20.693647 78.624669 
L 20.108547 79.331868 
L 20.126049 80.044248 
L 20.668622 80.842857 
L 20.673663 81.544101 
L 20.460477 82.254497 
L 19.830348 82.961318 
L 19.192068 83.364542 
L 18.556581 83.359961 
L 18.432738 83.550532 
L 18.748042 83.909358 
L 19.094439 84.98068 
L 19.409742 85.339505 
L 19.459337 86.052161 
L 20.03739 86.909647 
L 20.092774 87.444295 
L 20.627152 88.339186 
L 20.731628 88.753987 
L 21.233432 88.815653 
L 22.271394 89.962777 
L 22.411683 90.400388 
L 22.44161 90.774965 
L 23.305959 91.80486 
L 23.578079 92.187433 
L 23.710793 94.296905 
L 24.179359 94.924144 
L 24.237105 95.547841 
L 24.754099 96.438196 
L 24.750167 98.512242 
L 24.668469 98.959381 
L 24.029025 99.532988 
L 23.664654 99.614151 
L 24.691447 101.136555 
L 24.71997 103.534281 
L 24.752075 104.258699 
L 25.30846 105.149596 
L 25.198118 106.963383 
L 24.765538 107.520661 
L 24.224768 108.117478 
L 25.331056 106.970891 
L 26.125657 106.942087 
L 26.598262 107.062481 
L 27.755076 108.275493 
L 28.284476 108.304478 
L 28.947128 108.397764 
L 29.427406 108.927921 
L 29.472495 109.94046 
L 29.370072 111.774109 
L 28.934195 112.255162 
L 30.035686 111.129224 
L 30.9353 111.01493 
L 31.80755 111.067629 
L 32.502649 111.689804 
L 32.820317 111.703052 
L 33.217185 111.886596 
L 33.847791 112.604247 
L 34.244845 113.450269 
L 34.237532 114.51855 
L 34.080257 115.244156 
L 33.76008 115.597518 
L 33.626726 116.163496 
L 33.624108 116.873195 
L 33.842934 117.338489 
L 34.142555 117.697184 
L 34.269373 118.377863 
L 35.298969 118.443519 
L 35.674114 118.152712 
L 36.014343 117.621465 
L 36.11518 116.999132 
L 36.733862 116.447166 
L 37.796407 116.497395 
L 38.067053 116.728798 
L 38.382365 117.087633 
L 40.33143 117.142952 
L 41.488818 117.23733 
L 42.697534 118.447862 
L 42.898444 118.508853 
L 45.070522 118.617983 
L 45.964845 119.207131 
L 46.281914 119.307968 
L 46.790411 120.012213 
L 46.874292 121.230697 
L 47.366034 121.269369 
L 48.108946 122.062816 
L 48.558095 122.676829 
L 48.765403 123.486995 
L 49.294313 123.939165 
L 49.612054 123.941897 
L 49.763824 123.565366 
L 49.768699 122.853179 
L 50.182633 122.144508 
L 50.820057 121.432771 
L 50.987882 119.918324 
L 51.018765 118.224482 
L 51.610556 116.539568 
L 51.669903 115.889372 
L 51.966044 115.508655 
L 52.503759 115.23864 
L 54.617904 115.135025 
L 54.620341 114.778922 
L 54.901007 114.269905 
L 55.541363 113.563181 
L 56.353597 113.249201 
L 57.639539 113.324462 
L 58.064304 113.756155 
L 58.379376 113.938533 
L 59.449136 113.994813 
L 60.239101 114.620702 
L 61.795805 114.582909 
L 62.083237 114.344896 
L 62.403415 113.991534 
L 63.628404 114.014882 
L 64.268663 114.653716 
L 64.903367 114.772684 
L 65.534987 115.342219 
L 66.025305 115.37932 
L 67.309205 116.702967 
L 68.487725 116.815925 
L 69.119311 117.390444 
L 69.67471 117.489643 
L 70.185098 118.20626 
L 70.18327 118.473331 
L 70.380203 118.969627 
L 71.884399 119.429963 
L 72.601155 118.073287 
L 74.807941 116.767434 
L 75.42507 116.100824 
L 73.435799 114.321677 
L 73.500761 112.412838 
L 73.680791 110.751768 
L 71.651932 110.260247 
L 70.562129 109.697125 
L 69.156811 108.655861 
L 67.872984 105.631387 
L 69.101967 101.990392 
L 70.299127 101.547307 
L 70.902499 100.484151 
L 69.981493 99.928045 
L 69.119116 98.759369 
L 70.062397 96.203544 
L 71.344599 95.908269 
L 71.756743 96.160216 
L 72.072046 96.519041 
L 71.578269 95.824967 
L 71.484465 91.347571 
L 71.230263 90.821293 
L 70.599657 90.103643 
L 70.419599 89.521189 
L 70.399289 86.91429 
L 70.498546 86.427899 
L 70.811592 86.041489 
L 71.130815 85.827694 
L 71.448555 85.830425 
L 71.929261 85.474782 
L 72.569626 84.768048 
L 72.421058 84.494955 
L 71.785577 84.489491 
L 71.384322 84.225517 
L 71.069019 83.866692 
L 71.085339 77.461956 
L 71.372791 76.753725 
L 71.645008 76.39995 
L 71.749346 75.688603 
L 72.273888 74.980884 
L 72.282049 74.624839 
L 72.546549 74.124716 
L 73.583943 73.089713 
L 74.654944 73.137349 
L 74.929868 73.364046 
L 75.245171 73.722871 
L 75.275612 75.234221 
L 75.271956 75.768371 
L 77.15903 75.800782 
L 77.670739 75.68123 
L 77.744763 75.05867 
L 78.338247 74.484393 
L 78.974625 74.36017 
L 79.48399 73.851855 
L 80.353968 73.812501 
L 80.830582 73.816599 
L 81.190238 73.508264 
L 81.289761 72.50502 
L 81.247111 69.273547 
L 81.109298 69.115584 
L 80.783534 69.112784 
L 79.803532 67.760527 
L 79.013128 67.177179 
L 78.835856 64.277249 
L 78.35452 63.375181 
L 75.383124 59.660556 
L 74.691803 58.203541 
L 74.20588 56.335299 
L 74.703559 54.407322 
L 74.235727 53.412564 
L 74.845098 50.539582 
L 76.775079 48.294743 
L 78.116093 48.551452 
L 78.446387 49.953946 
L 77.853987 51.453706 
L 78.297156 55.653092 
L 79.443003 56.155506 
L 79.584909 58.803164 
L 79.964884 57.269104 
L 80.605244 56.56238 
L 80.992626 56.362572 
L 82.404824 56.385294 
L 82.793451 56.582874 
L 83.683648 57.658891 
L 83.784687 58.371989 
L 83.735584 59.033843 
L 83.288757 59.601936 
L 82.970157 59.724761 
L 82.811287 59.723395 
L 83.198068 59.769995 
L 83.759238 62.09004 
L 84.327327 66.562041 
L 85.220734 77.627184 
L 85.667839 80.844445 
L 86.643732 81.300915 
L 88.407854 83.676615 
L 89.583213 85.657808 
L 90.0326 87.843018 
L 90.379005 88.91434 
L 90.749919 91.875688 
L 90.137381 93.773615 
L 88.490622 97.202985 
L 87.109436 98.187278 
L 86.024183 101.258654 
L 85.286585 101.724313 
L 84.585644 102.726058 
L 82.425823 103.394609 
L 83.158621 103.719052 
L 83.46449 105.150822 
L 82.847933 107.635993 
L 81.9827 109.053012 
L 82.563951 109.443039 
L 83.827251 110.573965 
L 84.021899 112.580897 
L 84.551451 113.636287 
L 84.53227 117.965092 
L 83.986832 118.911474 
L 83.884944 119.622827 
L 83.360587 120.330548 
L 83.65848 121.215658 
L 84.766009 122.900287 
L 85.399501 123.196998 
L 85.734258 123.912111 
L 86.063751 124.255275 
L 86.702053 123.848552 
L 87.559494 123.596219 
L 88.818513 123.702398 
L 89.328069 124.419008 
L 89.413205 124.920826 
L 90.510382 124.965419 
L 91.148392 124.927636 
L 91.867236 124.305168 
L 92.396803 124.309721 
L 93.031354 124.451053 
L 93.662075 125.151873 
L 94.387807 125.660353 
L 95.336355 125.678824 
L 96.035118 125.826882 
L 96.353826 126.183836 
L 96.670364 126.362209 
L 96.988104 126.36494 
L 97.619636 126.94727 
L 97.699539 127.660187 
L 98.285837 127.719929 
L 98.916797 128.386138 
L 99.234461 128.4 
L 99.48709 128.25394 
L 99.602183 126.957393 
L 100.091309 126.408413 
L 101.326255 126.425755 
L 101.957298 127.079577 
L 102.592066 127.18918 
L 103.223661 127.76238 
L 103.700326 127.759762 
L 104.38233 127.100425 
L 105.498011 127.022664 
L 105.501667 126.488524 
L 105.936972 125.958094 
L 106.097052 125.781413 
L 106.223613 124.974949 
L 106.715967 124.266952 
L 106.718404 123.910859 
L 106.53687 123.553184 
L 106.221568 123.194348 
L 106.12958 122.344435 
L 106.143209 121.290595 
L 107.40776 119.000464 
L 108.239704 118.43927 
L 109.77437 118.411875 
L 111.02865 118.516182 
L 111.349532 118.873492 
L 111.666646 118.96778 
L 111.986824 118.614413 
L 112.153007 118.259727 
L 112.155444 117.903633 
L 112.347846 117.549173 
L 112.668023 117.195811 
L 113.033653 115.458695 
L 113.325389 115.040337 
L 113.435413 113.121779 
L 114.043711 112.418506 
L 114.679985 112.30812 
L 115.319389 111.740388 
L 115.637129 111.74312 
L 115.956107 111.566549 
L 116.276285 111.213187 
L 116.400498 110.85814 
L 116.402935 110.502047 
L 116.942356 109.831748 
L 117.177618 109.740616 
L 118.085184 109.696838 
L 118.208582 109.478408 
L 118.252431 108.451703 
L 118.694207 107.877854 
L 119.005783 107.759215 
L 120.852114 107.760327 
L 121.287523 107.838625 
L 121.912523 108.437491 
L 122.230263 108.440222 
L 122.681411 108.747823 
L 123.312017 109.465474 
L 123.775113 109.605156 
L 124.095291 109.251794 
L 124.711034 109.133466 
L 124.24498 109.104075 
L 123.613631 108.494026 
L 122.884818 108.286625 
L 121.966149 107.256703 
L 121.228346 106.259962 
L 121.342804 104.954745 
L 121.662982 104.601383 
L 121.846244 103.578972 
L 121.915685 102.412109 
L 122.502294 101.674688 
L 123.063214 100.967281 
L 123.148073 99.62838 
L 123.67677 98.920696 
L 123.789248 98.253948 
L 124.109426 97.900576 
L 124.109426 97.900576 
" clip-path="url(#p5e56a4b329)" style="fill: none; stroke: #808080; stroke-width: 1.5; stroke-linecap: square"/>
   </g>
   <g id="text_1">
    <!-- 132 -->
    <g transform="translate(61.33875 21.6) scale(0.14 -0.14)">
     <defs>
      <path id="DejaVuSans-31" d="M 794 531 
L 1825 531 
L 1825 4091 
L 703 3866 
L 703 4441 
L 1819 4666 
L 2450 4666 
L 2450 531 
L 3481 531 
L 3481 0 
L 794 0 
L 794 531 
z
" transform="scale(0.015625)"/>
      <path id="DejaVuSans-33" d="M 2597 2516 
Q 3050 2419 3304 2112 
Q 3559 1806 3559 1356 
Q 3559 666 3084 287 
Q 2609 -91 1734 -91 
Q 1441 -91 1130 -33 
Q 819 25 488 141 
L 488 750 
Q 750 597 1062 519 
Q 1375 441 1716 441 
Q 2309 441 2620 675 
Q 2931 909 2931 1356 
Q 2931 1769 2642 2001 
Q 2353 2234 1838 2234 
L 1294 2234 
L 1294 2753 
L 1863 2753 
Q 2328 2753 2575 2939 
Q 2822 3125 2822 3475 
Q 2822 3834 2567 4026 
Q 2313 4219 1838 4219 
Q 1578 4219 1281 4162 
Q 984 4106 628 3988 
L 628 4550 
Q 988 4650 1302 4700 
Q 1616 4750 1894 4750 
Q 2613 4750 3031 4423 
Q 3450 4097 3450 3541 
Q 3450 3153 3228 2886 
Q 3006 2619 2597 2516 
z
" transform="scale(0.015625)"/>
      <path id="DejaVuSans-32" d="M 1228 531 
L 3431 531 
L 3431 0 
L 469 0 
L 469 531 
Q 828 903 1448 1529 
Q 2069 2156 2228 2338 
Q 2531 2678 2651 2914 
Q 2772 3150 2772 3378 
Q 2772 3750 2511 3984 
Q 2250 4219 1831 4219 
Q 1534 4219 1204 4116 
Q 875 4013 500 3803 
L 500 4441 
Q 881 4594 1212 4672 
Q 1544 4750 1819 4750 
Q 2544 4750 2975 4387 
Q 3406 4025 3406 3419 
Q 3406 3131 3298 2873 
Q 3191 2616 2906 2266 
Q 2828 2175 2409 1742 
Q 1991 1309 1228 531 
z
" transform="scale(0.015625)"/>
     </defs>
     <use xlink:href="#DejaVuSans-31"/>
     <use xlink:href="#DejaVuSans-33" x="63.623047"/>
     <use xlink:href="#DejaVuSans-32" x="127.246094"/>
    </g>
   </g>
  </g>
  <g id="axes_2">
   <g id="patch_3">
    <path d="M 149.4 133.2 
L 277.2 133.2 
L 277.2 27.6 
L 149.4 27.6 
z
" style="fill: #ffffff"/>
   </g>
   <g id="matplotlib.axis_3"/>
   <g id="matplotlib.axis_4"/>
   <g id="line2d_2">
    <path d="M 268.935569 91.195486 
L 267.449226 90.316333 
L 267.252734 89.331814 
L 267.587351 88.3556 
L 268.118732 88.061283 
L 268.403427 88.100009 
L 268.651142 88.24653 
L 269.204344 87.520721 
L 269.486317 87.406744 
L 270.174014 87.756928 
L 270.715808 88.032661 
L 270.871443 88.03805 
L 271.390909 86.522554 
L 271.119032 87.04668 
L 270.526288 87.228266 
L 270.009977 86.964722 
L 269.206788 86.577678 
L 268.462439 86.712272 
L 268.183797 86.57974 
L 265.98906 85.163789 
L 265.85418 84.799967 
L 265.807936 84.283391 
L 265.902295 83.703171 
L 265.610199 82.971948 
L 264.800598 82.386249 
L 264.473627 81.6045 
L 263.687652 81.051303 
L 263.488085 80.257755 
L 263.608344 79.546087 
L 263.444435 78.893288 
L 264.543599 75.62574 
L 264.866916 74.82077 
L 265.542096 74.589501 
L 265.784264 74.732741 
L 263.902865 73.624916 
L 263.648268 73.60096 
L 263.466034 74.08028 
L 262.923062 74.342016 
L 262.638512 74.262429 
L 261.533043 73.593136 
L 261.071615 71.854622 
L 261.232606 71.36966 
L 260.755098 70.92261 
L 260.357682 69.501301 
L 260.499931 68.890711 
L 261.068828 67.155217 
L 260.90622 66.387979 
L 261.147236 65.458343 
L 261.135797 64.654413 
L 261.255006 63.600019 
L 261.517684 62.476587 
L 261.166674 62.196725 
L 260.956845 61.505072 
L 261.089092 60.996227 
L 260.693541 59.327991 
L 260.769691 57.296306 
L 261.392881 55.938767 
L 261.861932 55.629137 
L 262.050119 55.153338 
L 262.569562 54.873514 
L 262.974455 54.996084 
L 263.426438 54.177234 
L 263.622877 53.040111 
L 263.554874 52.264375 
L 263.776961 51.344164 
L 263.015065 50.861214 
L 262.118876 51.014118 
L 261.8481 50.93482 
L 261.085809 51.098252 
L 260.461344 50.747057 
L 259.962362 50.898928 
L 259.080473 51.417041 
L 258.695407 52.386554 
L 258.317924 52.676437 
L 257.240154 53.213095 
L 256.545904 53.259218 
L 252.288348 50.88531 
L 251.77395 51.168118 
L 251.47096 51.77166 
L 251.068142 51.972236 
L 249.277796 51.065764 
L 248.195119 50.751856 
L 247.288203 51.457667 
L 245.397969 52.246797 
L 244.672137 51.867312 
L 244.116677 52.078183 
L 243.745193 52.926706 
L 242.938308 53.623622 
L 242.179268 53.818877 
L 241.762996 53.729503 
L 241.107971 53.857221 
L 239.705417 53.071433 
L 239.35845 53.373309 
L 238.54034 53.896135 
L 237.442941 53.798121 
L 236.643706 53.121949 
L 236.385111 52.572568 
L 235.831331 52.78938 
L 235.107482 52.416726 
L 234.247604 50.517758 
L 233.752174 50.224718 
L 233.356808 49.415819 
L 233.148528 49.875383 
L 233.156557 50.513885 
L 234.759667 51.65107 
L 234.895843 52.122995 
L 234.82748 52.696767 
L 234.602883 53.342346 
L 234.273283 53.624117 
L 233.796892 53.681573 
L 232.660535 53.054929 
L 231.703371 52.388866 
L 231.551169 51.913152 
L 230.90285 51.3201 
L 229.664249 50.587483 
L 229.030944 50.482308 
L 228.505505 50.597281 
L 228.25779 50.45076 
L 228.028965 50.916005 
L 227.838997 51.531367 
L 228.409324 52.406221 
L 228.467363 52.647212 
L 228.164823 53.607482 
L 227.94981 53.871691 
L 226.895015 54.421928 
L 225.715544 53.813316 
L 224.660492 53.124086 
L 224.115106 52.176765 
L 223.056215 51.593761 
L 222.270631 51.766491 
L 221.560061 51.323376 
L 221.167039 50.60331 
L 220.197207 51.767654 
L 220.803855 52.605433 
L 220.778276 53.764481 
L 221.888345 55.720658 
L 222.268173 56.915188 
L 222.340463 58.078434 
L 223.127236 59.929349 
L 223.588071 62.327995 
L 222.405094 64.306983 
L 221.799831 64.457192 
L 220.257496 65.837192 
L 219.361883 65.842444 
L 218.217578 65.6446 
L 216.271093 67.38145 
L 213.928566 67.111362 
L 212.847549 67.05747 
L 212.599813 66.910937 
L 212.398297 66.471541 
L 212.328271 65.843053 
L 212.390253 65.407369 
L 212.037589 65.156269 
L 211.817672 64.279286 
L 211.922652 63.558582 
L 211.916909 62.41049 
L 211.569862 60.336067 
L 211.625223 58.630641 
L 212.807386 56.663108 
L 213.409963 56.511655 
L 211.914751 54.679085 
L 211.580829 52.328614 
L 210.83354 50.57224 
L 209.401197 48.183389 
L 209.052249 46.737907 
L 208.411487 45.663724 
L 202.881071 47.926244 
L 201.548501 46.575261 
L 200.371606 45.025852 
L 200.291429 43.483406 
L 200.815221 40.739276 
L 200.388765 39.528024 
L 199.785385 38.680652 
L 198.056879 37.991957 
L 196.855718 34.706082 
L 195.784843 33.961436 
L 195.462427 33.0712 
L 195.168972 32.4 
L 194.377509 32.496539 
L 194.253651 32.423279 
L 194.112 32.579913 
L 193.617071 33.975395 
L 193.755929 34.949096 
L 192.984277 37.23879 
L 192.622206 37.453983 
L 192.271151 37.898635 
L 191.936534 38.874849 
L 191.588167 39.4069 
L 191.238559 39.59149 
L 190.978567 40.220465 
L 191.117502 41.264301 
L 190.782882 42.240525 
L 190.437113 42.856118 
L 190.078692 43.037886 
L 189.24194 44.409925 
L 188.826531 44.498343 
L 187.583716 43.698099 
L 187.403008 42.887636 
L 187.604562 41.698853 
L 187.300808 41.426084 
L 187.111577 40.723433 
L 187.172055 40.423463 
L 187.406226 39.479043 
L 187.239869 38.719387 
L 186.832224 37.332372 
L 186.641928 37.076344 
L 186.282653 37.255239 
L 186.015924 37.239209 
L 184.600773 36.446248 
L 184.325578 36.182618 
L 184.074444 35.493376 
L 183.380511 35.029298 
L 183.169721 35.174248 
L 182.488676 36.687079 
L 182.092161 36.945097 
L 180.173913 37.828404 
L 179.188396 37.415977 
L 177.54502 36.536379 
L 177.39007 36.539302 
L 176.921133 38.161627 
L 177.044124 38.793983 
L 177.271744 39.972336 
L 176.923922 40.847886 
L 176.043141 41.395138 
L 173.701437 42.679573 
L 173.387013 43.824312 
L 173.531386 44.673086 
L 172.874676 47.107134 
L 172.974794 47.823623 
L 172.543381 49.752777 
L 172.648985 50.257449 
L 172.208252 51.646422 
L 172.037345 52.017968 
L 171.413421 52.431716 
L 171.219925 52.904333 
L 170.860672 53.083217 
L 170.642146 53.325097 
L 169.601985 56.172501 
L 168.313786 59.602207 
L 167.984031 59.788387 
L 167.825001 59.971782 
L 167.582445 60.520411 
L 166.718127 62.741884 
L 166.152082 63.097315 
L 165.570674 63.425104 
L 165.644988 63.46906 
L 166.00884 63.798284 
L 166.179827 64.474787 
L 166.120521 64.785442 
L 165.67584 66.419782 
L 165.847908 67.0592 
L 165.384325 69.203253 
L 165.472413 69.7437 
L 164.758489 72.092777 
L 164.940074 72.722038 
L 164.493342 74.164334 
L 164.01915 75.652371 
L 164.116123 76.189559 
L 164.169511 76.55746 
L 163.638621 78.20182 
L 163.356649 78.869577 
L 162.737701 79.286256 
L 162.479373 79.785776 
L 161.944805 79.994801 
L 161.468689 79.768701 
L 160.939129 79.916396 
L 160.271356 81.84985 
L 159.729709 83.072304 
L 159.370428 83.251173 
L 158.67246 84.970567 
L 157.813988 87.419874 
L 157.345826 88.094065 
L 157.024695 88.29552 
L 156.860054 88.980902 
L 156.996227 89.452837 
L 156.823404 90.365021 
L 156.37908 91.642907 
L 155.996636 92.121289 
L 155.640118 92.389147 
L 155.302213 93.259041 
L 155.209091 94.140917 
L 155.446719 94.316865 
L 155.670744 94.975975 
L 155.649426 95.307705 
L 155.276084 96.739125 
L 155.597745 97.151523 
L 156.836346 97.88414 
L 157.368456 98.067632 
L 158.118349 97.775641 
L 158.466343 97.629606 
L 158.763003 97.633373 
L 159.453917 98.098958 
L 159.622606 98.5547 
L 159.664783 98.841708 
L 159.20272 100.406646 
L 158.386754 103.123892 
L 158.518863 103.945652 
L 158.404324 104.27981 
L 158.706729 103.716285 
L 159.17646 103.538555 
L 159.782639 103.797917 
L 161.863541 104.900608 
L 161.934968 104.786884 
L 162.183751 104.379562 
L 162.737476 103.989554 
L 163.001158 103.493202 
L 163.577168 103.083742 
L 163.848504 102.591937 
L 164.377018 102.405085 
L 165.06061 102.748689 
L 165.695777 103.194014 
L 165.967729 103.829075 
L 166.079271 103.50366 
L 165.971475 103.287454 
L 165.729907 103.123003 
L 165.48277 102.226177 
L 165.938359 101.071999 
L 166.297615 100.893108 
L 166.349922 100.730579 
L 166.103983 100.578877 
L 165.835437 99.710397 
L 166.005978 99.085742 
L 166.319835 98.488607 
L 167.466517 98.012354 
L 167.711181 98.059845 
L 168.799461 98.800478 
L 168.983923 99.435572 
L 168.92852 99.82298 
L 168.7176 100.671828 
L 169.251914 101.05671 
L 169.948845 101.545798 
L 170.194396 102.312459 
L 170.365768 103.126707 
L 170.086056 104.165551 
L 169.547912 105.50617 
L 169.188647 105.685048 
L 168.841398 106.252811 
L 168.507642 107.228114 
L 168.507132 107.846457 
L 168.619894 108.304541 
L 168.482635 109.006124 
L 168.61185 109.473953 
L 168.52504 110.263588 
L 168.078875 111.565234 
L 169.406362 112.966131 
L 171.768324 114.323181 
L 172.488681 114.139176 
L 172.78301 113.530498 
L 174.044769 112.928969 
L 174.292511 113.075505 
L 174.77652 112.968904 
L 175.742868 112.364957 
L 176.421362 110.711844 
L 177.017675 110.523822 
L 177.950594 110.909086 
L 178.456835 110.567877 
L 178.994344 108.963058 
L 178.966175 108.684332 
L 178.820565 108.101735 
L 178.961079 107.402069 
L 178.824884 106.930133 
L 179.111046 105.626432 
L 179.887637 103.369451 
L 180.384135 102.507165 
L 180.734718 102.353578 
L 181.265331 102.544068 
L 181.94264 102.306493 
L 182.190355 102.453013 
L 182.359158 102.326021 
L 182.419968 101.988618 
L 180.803005 100.89268 
L 180.592761 100.410844 
L 180.658718 99.567324 
L 181.779033 96.560041 
L 182.338598 96.296608 
L 183.441023 96.936144 
L 183.694101 97.28287 
L 184.110278 98.690508 
L 185.01913 99.339387 
L 185.230564 100.043746 
L 186.20912 100.905836 
L 186.345296 101.377761 
L 185.760769 103.209536 
L 185.546858 103.741741 
L 184.868678 104.278203 
L 184.524744 105.222132 
L 183.839977 105.508337 
L 183.714425 105.440022 
L 183.353257 105.601487 
L 183.423009 106.425523 
L 183.033444 108.078429 
L 183.49507 108.148296 
L 184.019678 108.356306 
L 184.65568 107.964426 
L 185.012513 107.39271 
L 186.018493 107.49803 
L 186.914479 108.408644 
L 186.490129 110.345185 
L 187.335306 112.396251 
L 186.865989 114.213489 
L 188.187067 114.9086 
L 188.777225 114.480195 
L 189.463435 113.804691 
L 191.06637 113.485882 
L 191.429555 112.917924 
L 192.063397 112.510055 
L 193.216751 112.894467 
L 193.714378 112.746494 
L 194.072554 112.917513 
L 194.092597 112.868314 
L 194.376089 112.318447 
L 194.94158 111.935401 
L 195.1709 111.454961 
L 195.780194 111.032573 
L 196.599357 110.25147 
L 198.473617 109.998817 
L 199.313831 110.912405 
L 199.267062 111.66752 
L 199.418551 112.539897 
L 199.292318 113.227735 
L 200.176403 113.965265 
L 200.821936 115.558901 
L 201.414234 115.662242 
L 202.49786 111.505449 
L 204.22135 107.414916 
L 204.794606 107.48098 
L 205.933402 104.570397 
L 205.88497 103.245237 
L 206.417676 102.029647 
L 207.740076 101.576204 
L 208.587013 102.582261 
L 208.798088 103.932513 
L 209.37598 104.629362 
L 209.59645 104.647791 
L 210.243218 103.937099 
L 211.144255 103.589733 
L 211.502331 103.762703 
L 211.520921 103.708469 
L 211.754503 103.216823 
L 212.520236 102.803288 
L 213.008023 102.457816 
L 213.119566 102.132399 
L 214.316192 101.429662 
L 215.202582 101.8191 
L 214.409817 101.234452 
L 214.074453 100.456646 
L 213.561218 99.587179 
L 212.674938 97.780357 
L 211.901642 97.085915 
L 211.272942 95.447412 
L 211.66055 94.171359 
L 212.359549 93.528538 
L 213.226266 91.906139 
L 214.298095 90.974571 
L 214.39902 89.844825 
L 214.684452 88.303495 
L 215.388394 87.47411 
L 216.325942 87.875347 
L 216.719364 86.85648 
L 215.616504 86.765587 
L 212.988883 84.957887 
L 213.91629 81.281047 
L 216.076589 78.982583 
L 216.718508 77.711461 
L 216.19349 77.094794 
L 216.373707 75.655671 
L 215.075273 74.47472 
L 214.854632 72.389007 
L 214.646676 71.597533 
L 213.414153 69.991773 
L 213.632646 68.213317 
L 215.437317 67.214809 
L 219.182881 69.750448 
L 219.699852 70.415341 
L 220.383639 71.514973 
L 221.48047 72.654506 
L 222.036138 73.017149 
L 222.669452 71.865019 
L 222.849092 71.77557 
L 223.190634 71.828004 
L 225.640337 73.233883 
L 226.084356 73.60012 
L 226.392346 74.323725 
L 227.692484 75.323182 
L 228.100879 76.698775 
L 227.950176 77.392421 
L 227.700401 77.950788 
L 227.098421 78.333425 
L 226.778127 78.926732 
L 226.143521 79.575344 
L 225.510172 80.803876 
L 226.212697 82.731334 
L 226.790887 83.677495 
L 227.503362 86.069997 
L 227.22699 87.380796 
L 227.677062 87.806164 
L 227.722922 88.862821 
L 228.10219 89.984007 
L 228.934138 90.898034 
L 228.448355 92.922096 
L 228.651514 94.955458 
L 229.16928 95.593848 
L 229.820185 98.183397 
L 229.349082 99.923608 
L 229.550678 101.268475 
L 229.92428 101.916963 
L 229.87062 102.668002 
L 230.196924 103.054524 
L 230.474741 103.895686 
L 230.331835 104.593937 
L 230.496411 105.47406 
L 230.293331 107.61044 
L 230.295706 109.527091 
L 230.032956 111.457891 
L 230.103964 112.601563 
L 230.804311 112.477756 
L 232.114458 113.300879 
L 232.548236 114.164379 
L 233.447457 114.432807 
L 233.721617 113.812205 
L 233.976887 112.303153 
L 234.013135 111.028724 
L 234.310018 109.824428 
L 235.040048 109.121256 
L 236.532421 105.22717 
L 237.100968 105.061617 
L 237.526672 105.290995 
L 237.928972 105.630437 
L 238.25635 106.411955 
L 239.07751 107.082578 
L 239.353476 107.754778 
L 240.206424 108.464745 
L 240.242043 109.46428 
L 240.645443 109.986155 
L 240.652632 113.396585 
L 241.127234 114.184994 
L 240.158425 116.36399 
L 236.403663 117.859731 
L 237.45545 121.238017 
L 237.922055 122.04777 
L 237.907887 123.261597 
L 238.390856 125.672355 
L 239.166673 126.46688 
L 240.179663 127.857699 
L 241.110674 127.011282 
L 242.065343 126.745432 
L 243.404525 128.4 
L 243.147176 127.267169 
L 244.051643 124.319678 
L 243.881422 123.729772 
L 244.064771 123.031609 
L 245.005623 120.038198 
L 244.842236 119.286492 
L 245.299157 117.889059 
L 245.560988 117.508639 
L 246.008225 117.225464 
L 246.275253 116.565577 
L 246.592641 115.607798 
L 246.512258 114.368745 
L 247.318068 111.979346 
L 247.697787 111.65122 
L 247.970285 111.420999 
L 247.852748 110.429394 
L 248.201358 109.517866 
L 248.731473 109.219122 
L 249.07121 108.408626 
L 249.408057 107.504492 
L 250.118065 106.87102 
L 250.799513 105.313303 
L 251.307221 104.936946 
L 251.535975 104.30573 
L 252.155072 103.679635 
L 252.988485 103.155994 
L 253.250587 102.662827 
L 254.273107 102.129102 
L 254.568541 101.634152 
L 255.343158 100.918193 
L 255.827079 100.413187 
L 256.838034 99.644858 
L 257.498397 97.807113 
L 258.048046 97.391894 
L 258.45467 97.509413 
L 258.928506 97.43085 
L 260.030735 97.746455 
L 261.486881 98.750395 
L 261.742536 99.432693 
L 262.43556 99.845203 
L 262.380451 99.317931 
L 262.060647 98.947122 
L 261.670359 98.121658 
L 261.452141 97.186066 
L 261.563865 96.665082 
L 261.814394 96.017928 
L 263.123541 95.342004 
L 263.601407 95.16061 
L 263.932648 95.188125 
L 264.649229 95.535581 
L 265.304773 95.315544 
L 266.142343 95.647552 
L 266.261786 95.310646 
L 266.633405 95.032363 
L 270.171243 93.16865 
L 270.363849 92.695507 
L 270.90273 92.42718 
L 270.852799 92.006226 
L 270.705522 91.566686 
L 270.166641 91.835013 
L 269.678714 91.635047 
L 269.678714 91.635047 
" clip-path="url(#pf5fd2e2889)" style="fill: none; stroke: #808080; stroke-width: 1.5; stroke-linecap: square"/>
   </g>
   <g id="text_2">
    <!-- 199 -->
    <g transform="translate(199.93875 21.6) scale(0.14 -0.14)">
     <defs>
      <path id="DejaVuSans-39" d="M 703 97 
L 703 672 
Q 941 559 1184 500 
Q 1428 441 1663 441 
Q 2288 441 2617 861 
Q 2947 1281 2994 2138 
Q 2813 1869 2534 1725 
Q 2256 1581 1919 1581 
Q 1219 1581 811 2004 
Q 403 2428 403 3163 
Q 403 3881 828 4315 
Q 1253 4750 1959 4750 
Q 2769 4750 3195 4129 
Q 3622 3509 3622 2328 
Q 3622 1225 3098 567 
Q 2575 -91 1691 -91 
Q 1453 -91 1209 -44 
Q 966 3 703 97 
z
M 1959 2075 
Q 2384 2075 2632 2365 
Q 2881 2656 2881 3163 
Q 2881 3666 2632 3958 
Q 2384 4250 1959 4250 
Q 1534 4250 1286 3958 
Q 1038 3666 1038 3163 
Q 1038 2656 1286 2365 
Q 1534 2075 1959 2075 
z
" transform="scale(0.015625)"/>
     </defs>
     <use xlink:href="#DejaVuSans-31"/>
     <use xlink:href="#DejaVuSans-39" x="63.623047"/>
     <use xlink:href="#DejaVuSans-39" x="127.246094"/>
    </g>
   </g>
  </g>
 </g>
 <defs>
  <clipPath id="p5e56a4b329">
   <rect x="10.8" y="27.6" width="127.8" height="105.6"/>
  </clipPath>
  <clipPath id="pf5fd2e2889">
   <rect x="149.4" y="27.6" width="127.8" height="105.6"/>
  </clipPath>
 </defs>
</svg>
