<?xml version="1.0" encoding="utf-8" standalone="no"?>
<!DOCTYPE svg PUBLIC "-//W3C//DTD SVG 1.1//EN"
  "http://www.w3.org/Graphics/SVG/1.1/DTD/svg11.dtd">
<svg xmlns:xlink="http://www.w3.org/1999/xlink" width="288pt" height="144pt" viewBox="0 0 288 144" xmlns="http://www.w3.org/2000/svg" version="1.1">
 <metadata>
  <rdf:RDF xmlns:dc="http://purl.org/dc/elements/1.1/" xmlns:cc="http://creativecommons.org/ns#" xmlns:rdf="http://www.w3.org/1999/02/22-rdf-syntax-ns#">
   <cc:Work>
    <dc:type rdf:resource="http://purl.org/dc/dcmitype/StillImage"/>
    <dc:date>2024-04-21T11:12:22.600822</dc:date>
    <dc:format>image/svg+xml</dc:format>
    <dc:creator>
     <cc:Agent>
      <dc:title>Matplotlib v3.8.4, https://matplotlib.org/</dc:title>
     </cc:Agent>
    </dc:creator>
   </cc:Work>
  </rdf:RDF>
 </metadata>
 <defs>
  <style type="text/css">*{stroke-linejoin: round; stroke-linecap: butt}</style>
 </defs>
 <g id="figure_1">
  <g id="patch_1">
   <path d="M 0 144 
L 288 144 
L 288 0 
L 0 0 
z
" style="fill: #ffffff"/>
  </g>
  <g id="axes_1">
   <g id="patch_2">
    <path d="M 10.8 133.2 
L 138.6 133.2 
L 138.6 27.6 
L 10.8 27.6 
z
" style="fill: #ffffff"/>
   </g>
   <g id="matplotlib.axis_1"/>
   <g id="matplotlib.axis_2"/>
   <g id="line2d_1">
    <path d="M 132.237404 64.590477 
L 131.683552 64.905313 
L 131.268541 64.979798 
L 128.085255 64.17947 
L 127.835548 63.786654 
L 127.343825 64.009005 
L 126.789973 64.323842 
L 125.068668 63.909937 
L 124.482273 62.881172 
L 124.647956 62.252228 
L 125.329238 61.790973 
L 126.160025 61.318714 
L 125.836831 61.179556 
L 125.395524 61.067203 
L 124.715053 60.075084 
L 124.049966 59.918411 
L 123.732868 59.570637 
L 122.484354 57.606588 
L 121.985923 57.331635 
L 121.542529 57.227182 
L 120.911171 56.20042 
L 121.165066 55.413717 
L 121.580886 55.066363 
L 121.33118 54.673547 
L 121.437514 53.721851 
L 121.146011 53.352804 
L 120.480919 53.196124 
L 120.121932 52.771269 
L 119.788996 52.247525 
L 119.941985 51.447557 
L 120.162905 50.608964 
L 121.163989 49.996186 
L 120.337278 49.753117 
L 119.912903 49.281352 
L 119.148903 49.002645 
L 118.883527 48.618747 
L 118.043762 48.383109 
L 117.632453 47.903916 
L 116.855381 47.63263 
L 116.604636 47.243781 
L 115.975986 47.51369 
L 114.372297 47.083383 
L 114.122595 46.690575 
L 112.901143 46.369219 
L 112.457736 46.264762 
L 111.226849 44.714473 
L 110.613999 44.528086 
L 110.19746 44.051865 
L 109.532369 43.895185 
L 108.241485 41.898052 
L 108.485958 41.096527 
L 108.901347 40.8604 
L 108.743391 40.768573 
L 107.413209 40.455212 
L 106.573675 39.29119 
L 105.741336 37.981829 
L 104.841924 37.685928 
L 104.092813 36.507496 
L 103.992613 36.103695 
L 104.323988 34.845823 
L 103.961353 36.222358 
L 103.152554 36.729208 
L 102.859923 36.86192 
L 101.139741 36.528101 
L 100.062248 37.043064 
L 99.397157 36.886384 
L 98.423535 35.421906 
L 98.090599 34.898161 
L 98.274003 34.201975 
L 97.942624 35.459859 
L 97.694085 35.796204 
L 96.164094 36.544854 
L 95.352677 36.45453 
L 94.897009 36.666464 
L 93.566826 36.353103 
L 93.19287 36.145275 
L 92.372418 34.681175 
L 92.538105 34.052239 
L 91.911983 33.022512 
L 91.061761 32.792808 
L 90.812059 32.4 
L 90.63381 32.410522 
L 89.685052 33.077646 
L 89.594761 33.841973 
L 89.820951 34.248147 
L 89.512188 35.06604 
L 88.438877 35.56518 
L 87.773773 35.408496 
L 85.094338 36.877815 
L 83.764143 36.564451 
L 83.287402 36.586579 
L 81.24747 37.652006 
L 80.423498 37.541917 
L 80.008109 37.778045 
L 79.134349 37.528097 
L 78.480626 36.628408 
L 78.065237 36.864536 
L 76.838612 36.613379 
L 76.271212 36.380987 
L 76.005836 35.997089 
L 75.147314 35.832649 
L 74.731925 36.068776 
L 74.766062 36.251166 
L 75.265466 37.036783 
L 74.991567 38.261982 
L 74.891042 38.685715 
L 76.4401 41.195288 
L 76.323757 42.058504 
L 76.834861 43.069533 
L 76.669173 43.698469 
L 74.587551 44.922121 
L 74.837258 45.314937 
L 74.847399 45.554681 
L 74.516023 46.812553 
L 74.221456 47.121259 
L 72.975279 47.829647 
L 72.277298 47.72193 
L 72.052475 47.681569 
L 70.9604 48.251912 
L 70.295309 48.095231 
L 69.559545 48.426029 
L 68.728766 48.898284 
L 68.523165 49.324578 
L 68.412707 49.743869 
L 67.323784 50.335954 
L 66.471546 50.181398 
L 65.864299 50.412239 
L 65.04975 50.316972 
L 64.605587 50.535821 
L 62.885406 50.202002 
L 61.807913 50.716965 
L 60.985514 50.609349 
L 60.570124 50.845477 
L 59.714685 50.618749 
L 59.319051 50.130646 
L 58.65396 49.973965 
L 58.117816 50.221556 
L 57.563963 50.536393 
L 57.837337 51.100728 
L 57.385464 52.655794 
L 56.880295 53.047215 
L 56.59185 53.779567 
L 56.1796 54.020633 
L 56.009849 54.783049 
L 56.425239 54.546921 
L 57.487136 54.740368 
L 58.817319 55.053729 
L 59.291382 55.547706 
L 59.624318 56.071451 
L 59.453595 56.921856 
L 59.952999 57.707473 
L 60.2181 57.772027 
L 61.759053 57.007056 
L 62.575182 57.104791 
L 63.013578 56.882486 
L 64.69511 57.245008 
L 65.1105 57.008881 
L 65.853452 57.13139 
L 66.740241 57.340298 
L 67.725314 58.744454 
L 68.724127 60.315694 
L 68.259248 61.94542 
L 67.307839 62.563606 
L 67.549335 63.139329 
L 67.451207 63.908111 
L 67.722835 64.268276 
L 68.811784 63.7098 
L 69.476875 63.866481 
L 69.833784 64.29925 
L 70.16672 64.822994 
L 70.047044 65.462776 
L 69.99443 65.670934 
L 70.293402 66.213985 
L 69.967911 67.027931 
L 68.898761 67.51125 
L 68.23367 67.35457 
L 68.86529 67.503365 
L 69.141474 67.686057 
L 70.889392 70.435722 
L 71.419483 71.045822 
L 72.749666 71.359183 
L 73.17663 71.795853 
L 74.42514 73.759894 
L 74.394732 74.254761 
L 74.279562 74.666641 
L 73.733635 75.077865 
L 73.402257 76.335749 
L 73.489149 76.461239 
L 74.319928 75.988983 
L 74.999614 76.090287 
L 75.221312 76.142514 
L 78.360158 81.125029 
L 78.196717 81.930939 
L 78.440838 82.50519 
L 78.340095 83.275459 
L 78.571515 83.695461 
L 78.076291 85.288634 
L 76.998804 85.803605 
L 76.333708 85.646917 
L 75.590947 84.54561 
L 75.341241 84.152794 
L 73.270071 85.370505 
L 73.540309 85.92989 
L 73.262858 86.679537 
L 72.84746 86.915669 
L 72.571128 87.745394 
L 71.324951 88.453781 
L 71.267351 88.933839 
L 73.338103 92.017917 
L 73.753492 91.78179 
L 74.619358 91.968967 
L 74.966884 92.437327 
L 75.56157 92.186725 
L 76.226656 92.343398 
L 76.861051 93.257451 
L 77.526923 94.30494 
L 78.47973 94.684837 
L 78.646198 94.946709 
L 79.223512 95.14993 
L 83.76785 96.289795 
L 84.017547 96.682595 
L 84.891831 96.938968 
L 86.106394 98.939128 
L 85.940712 99.568071 
L 86.031788 99.69456 
L 86.696874 99.851233 
L 87.209825 100.585424 
L 87.376293 100.847297 
L 87.20557 101.697702 
L 87.704983 102.483334 
L 87.727304 102.904493 
L 87.230246 104.791308 
L 86.99109 105.108863 
L 86.160311 105.581119 
L 85.273522 105.372211 
L 84.682941 104.342459 
L 84.848624 103.713516 
L 83.960163 102.187183 
L 82.794888 100.354078 
L 82.454509 100.288591 
L 81.624765 100.756891 
L 80.710691 100.432324 
L 79.614516 98.707922 
L 80.113919 99.493538 
L 79.976605 100.284596 
L 79.75568 101.123181 
L 78.532531 101.845391 
L 78.112915 102.030118 
L 76.443828 101.552886 
L 75.911814 100.536932 
L 76.201831 99.807053 
L 76.601546 99.579835 
L 76.024133 99.857609 
L 75.359047 99.700936 
L 75.080673 99.408496 
L 74.081866 97.837263 
L 73.609086 97.608264 
L 73.165692 97.503811 
L 67.10593 88.094234 
L 65.775747 87.780873 
L 65.378204 87.502373 
L 64.117821 85.709876 
L 63.303272 85.614609 
L 62.8382 85.828533 
L 60.364458 85.210063 
L 60.114756 84.817255 
L 59.391053 84.596356 
L 58.504264 84.387448 
L 57.961008 83.667117 
L 57.461604 82.881501 
L 56.606164 82.654773 
L 56.210531 82.16667 
L 55.545431 82.009994 
L 54.915241 81.113739 
L 54.24937 80.066251 
L 54.393393 79.173843 
L 53.644283 77.995411 
L 53.523697 77.593109 
L 53.852239 76.084606 
L 53.602537 75.691798 
L 53.805697 74.870034 
L 54.636476 74.397779 
L 54.752307 74.143595 
L 53.753494 72.572355 
L 53.638073 72.099859 
L 54.099989 70.666879 
L 54.515379 70.430751 
L 54.218503 69.896598 
L 54.527267 69.078705 
L 55.496931 68.416518 
L 55.788524 67.689101 
L 56.183009 67.464856 
L 55.604028 67.740164 
L 54.938937 67.583484 
L 54.452743 66.958519 
L 53.953339 66.172903 
L 53.989 65.708684 
L 54.099459 65.289393 
L 53.495245 64.210211 
L 53.768971 62.783315 
L 52.938184 63.255575 
L 52.10793 63.135602 
L 51.221141 62.926694 
L 49.98188 61.374432 
L 49.538486 61.269979 
L 49.194201 60.924204 
L 47.224702 57.65813 
L 47.335893 56.881912 
L 47.088806 56.487617 
L 47.275759 55.668343 
L 47.026057 55.275535 
L 46.329542 55.052637 
L 45.250789 54.720788 
L 45.001087 54.32798 
L 44.438842 54.607231 
L 43.604295 54.368617 
L 43.238012 53.971454 
L 42.822622 54.207582 
L 42.567187 55.025428 
L 40.960445 55.888332 
L 40.144192 55.639329 
L 39.89449 55.246521 
L 38.736062 55.857938 
L 38.320665 56.09407 
L 38.044324 56.9238 
L 37.213545 57.396055 
L 36.867519 57.444771 
L 35.537336 57.13141 
L 35.111899 57.245445 
L 33.865739 57.953823 
L 32.684289 57.952772 
L 32.380663 58.068189 
L 31.569632 57.816218 
L 31.31993 57.423409 
L 30.917053 57.612068 
L 30.778582 57.690781 
L 29.910638 57.511519 
L 29.495241 57.747651 
L 29.494867 57.909302 
L 30.010153 58.921309 
L 29.844462 59.550257 
L 28.764962 60.157165 
L 27.908013 59.995197 
L 27.305476 60.233449 
L 26.486216 60.130771 
L 26.073958 60.371842 
L 25.794478 61.196633 
L 24.863463 61.813315 
L 25.113164 62.206123 
L 24.986663 62.812784 
L 25.00683 63.15782 
L 25.233013 63.563998 
L 25.066965 64.371389 
L 25.486118 64.846123 
L 26.151206 65.002816 
L 27.122784 66.508813 
L 26.943661 67.323637 
L 27.193363 67.716445 
L 27.06381 68.419009 
L 26.842894 69.25759 
L 25.600972 70.051007 
L 24.21634 70.838099 
L 23.355225 70.691945 
L 23.194396 71.49638 
L 23.4359 72.072098 
L 23.270204 72.701039 
L 23.885882 73.736703 
L 23.720186 74.365643 
L 23.768528 74.637495 
L 24.594734 76.105047 
L 24.307861 76.839872 
L 23.894036 77.078477 
L 23.652702 77.88494 
L 23.138111 78.261539 
L 23.013856 79.045173 
L 23.263558 79.437981 
L 23.019635 80.262739 
L 22.18884 80.735003 
L 22.079239 80.931833 
L 22.611257 81.947795 
L 22.445577 82.576726 
L 20.33362 83.797444 
L 19.470387 83.625593 
L 19.055006 83.861716 
L 18.317807 83.742658 
L 17.431019 83.533751 
L 17.273246 83.660437 
L 16.972235 84.373021 
L 16.609091 84.579449 
L 17.197494 84.318964 
L 18.030903 84.443866 
L 18.446285 84.207743 
L 20.990064 84.813301 
L 21.584832 85.84404 
L 21.419137 86.47298 
L 21.780459 87.17565 
L 22.279867 87.961274 
L 22.140493 88.793859 
L 21.919576 89.632441 
L 22.535254 90.668104 
L 22.377036 91.471045 
L 22.615925 92.04825 
L 22.319629 92.768252 
L 21.933515 93.011283 
L 22.216813 93.563244 
L 21.947212 94.32524 
L 21.531815 94.561373 
L 21.762475 95.287871 
L 21.652017 95.707162 
L 21.69932 95.999783 
L 22.698132 97.571023 
L 22.813545 98.043524 
L 22.482175 99.301403 
L 21.975434 99.690352 
L 21.421581 100.005188 
L 20.475265 99.870476 
L 18.813707 100.814987 
L 18.545258 101.108846 
L 19.073085 102.123814 
L 18.90741 102.752753 
L 19.908413 103.253236 
L 20.133355 103.428056 
L 20.964134 102.9558 
L 21.446136 102.964316 
L 23.441402 103.434362 
L 23.793001 103.769258 
L 24.542107 104.947682 
L 24.355678 105.773381 
L 24.605385 106.166197 
L 24.494096 106.841557 
L 24.144239 107.874515 
L 23.728842 108.110647 
L 25.277371 110.613787 
L 25.028187 111.407901 
L 24.599819 111.7523 
L 24.849525 112.145115 
L 25.253446 111.952498 
L 25.393489 111.876257 
L 26.287147 112.168706 
L 27.272744 113.579287 
L 27.937848 113.735971 
L 28.945265 113.217108 
L 30.052986 112.587426 
L 32.667262 113.119276 
L 34.255739 112.283577 
L 35.092272 112.413426 
L 35.507653 112.177303 
L 36.386613 112.390661 
L 37.38542 113.961894 
L 37.561611 114.574739 
L 36.719939 117.541979 
L 36.304558 117.778102 
L 36.495696 118.15712 
L 36.578926 118.288049 
L 39.758911 116.520747 
L 40.668638 116.642634 
L 41.499417 116.170379 
L 42.326527 116.285406 
L 43.213315 116.494313 
L 43.749298 117.259136 
L 43.894856 117.516083 
L 43.745053 118.371429 
L 44.244456 119.157046 
L 44.229176 119.619758 
L 43.758982 121.750257 
L 44.008689 122.143072 
L 43.819121 122.963833 
L 44.089359 123.523218 
L 43.811908 124.272865 
L 43.39651 124.508997 
L 43.867154 125.277338 
L 44.084791 125.463033 
L 46.121447 124.241396 
L 46.287138 123.612448 
L 46.748962 123.275944 
L 47.302814 122.961107 
L 47.204301 122.694231 
L 47.043063 122.429385 
L 47.285968 121.625395 
L 47.731059 121.284936 
L 47.481362 120.892136 
L 47.607859 120.285468 
L 47.663085 120.075834 
L 48.74888 119.478794 
L 49.657538 119.604635 
L 50.730869 119.105493 
L 51.395947 119.262171 
L 53.148789 121.655902 
L 53.555724 121.316955 
L 54.012361 119.819717 
L 54.427742 119.583594 
L 54.669076 118.777131 
L 56.283637 117.89296 
L 57.110342 118.136021 
L 57.360049 118.528837 
L 57.848122 118.311928 
L 58.401974 117.997091 
L 59.424064 118.08873 
L 59.943003 117.914811 
L 61.273185 118.228172 
L 61.654068 118.569966 
L 62.652875 120.141198 
L 63.119363 120.343516 
L 63.561714 120.45193 
L 64.173205 121.486607 
L 64.017601 122.288061 
L 64.253875 122.866753 
L 64.088185 123.495701 
L 64.212029 123.438747 
L 64.639993 123.222383 
L 65.305072 123.37906 
L 65.537341 123.559804 
L 66.352044 125.020461 
L 66.186359 125.649384 
L 66.648115 126.426144 
L 66.844354 126.650914 
L 69.480433 125.202895 
L 70.145512 125.359572 
L 70.38148 125.585304 
L 71.13059 126.763736 
L 71.581373 126.958149 
L 72.113236 127.190573 
L 72.430897 127.578384 
L 74.054967 128.007184 
L 74.304674 128.4 
L 74.369946 128.31244 
L 74.663107 127.587507 
L 75.057579 127.346458 
L 74.769051 126.79747 
L 74.934742 126.168522 
L 74.702194 125.668427 
L 74.369258 125.144682 
L 74.484749 124.503934 
L 74.539981 124.294277 
L 73.924303 123.258613 
L 74.245607 122.443681 
L 75.3158 121.956402 
L 75.980904 122.113086 
L 77.076105 121.530877 
L 77.933054 121.692844 
L 78.438223 121.301423 
L 78.726668 120.569071 
L 79.130557 120.326035 
L 78.523244 119.292329 
L 78.688928 118.663405 
L 79.129848 118.321951 
L 79.921028 118.00001 
L 80.586115 118.156683 
L 80.792942 117.346289 
L 80.514867 116.79136 
L 80.680559 116.162431 
L 81.375428 115.700166 
L 82.206215 115.227906 
L 82.540023 114.365509 
L 85.679272 112.634809 
L 86.404965 112.746951 
L 86.155268 112.354151 
L 86.34222 111.534876 
L 86.756038 111.296276 
L 86.762121 111.070854 
L 85.263901 108.71399 
L 85.02915 108.087343 
L 85.489485 106.635093 
L 85.904875 106.398965 
L 86.19166 105.563298 
L 88.294267 104.428609 
L 89.133944 104.563405 
L 89.549341 104.327272 
L 90.428808 104.530263 
L 93.309418 108.916303 
L 94.391071 108.385519 
L 95.056167 108.542207 
L 95.547117 109.225004 
L 96.04652 110.01062 
L 98.670945 110.78221 
L 98.941494 111.09591 
L 99.356884 110.859782 
L 99.144765 110.408609 
L 98.811829 109.884865 
L 98.939871 109.247061 
L 99.138275 108.966117 
L 99.490918 108.715201 
L 99.228517 108.151362 
L 99.34755 107.370696 
L 99.097853 106.977896 
L 99.589906 105.346167 
L 100.836082 104.63778 
L 101.263096 104.543027 
L 102.698834 104.80983 
L 102.449137 104.41703 
L 102.763879 102.674209 
L 102.558598 102.25616 
L 102.724281 101.627217 
L 103.203865 101.273884 
L 105.69621 99.857113 
L 106.277512 99.842816 
L 106.720906 99.94727 
L 108.341556 102.429592 
L 109.165646 102.67414 
L 109.536095 103.055489 
L 109.951492 102.819357 
L 110.812141 103.026311 
L 111.135037 103.427959 
L 111.404637 102.665962 
L 111.820027 102.429835 
L 112.070241 101.614957 
L 113.600088 100.698226 
L 113.350391 100.305426 
L 113.472626 99.613734 
L 113.824088 98.600052 
L 114.239477 98.363924 
L 114.441589 97.546112 
L 114.163514 96.991182 
L 114.329206 96.362254 
L 114.799402 96.027703 
L 115.353255 95.712866 
L 116.051643 93.297936 
L 117.562682 92.385185 
L 117.302886 91.819843 
L 117.419304 91.040665 
L 117.169607 90.647864 
L 117.341902 89.799931 
L 116.772239 88.775101 
L 116.937921 88.146158 
L 117.876281 87.552212 
L 118.983995 86.922534 
L 118.575556 86.145744 
L 118.110671 85.380863 
L 118.276354 84.751919 
L 118.45391 84.533283 
L 119.911603 83.603767 
L 120.198484 82.868938 
L 120.609687 82.631824 
L 120.324262 82.037348 
L 120.655638 80.779477 
L 120.909932 80.446584 
L 122.436272 79.703375 
L 123.195049 79.98505 
L 123.361517 80.246922 
L 123.57849 80.274933 
L 127.006051 78.259272 
L 126.340964 78.102599 
L 125.719162 77.241923 
L 125.05329 76.194435 
L 125.097841 75.721816 
L 125.213006 75.30993 
L 125.704112 74.980305 
L 125.441711 74.416465 
L 125.607403 73.787536 
L 128.273698 72.224794 
L 129.24294 71.67383 
L 130.168368 71.820416 
L 130.999147 71.348161 
L 131.057476 71.09304 
L 130.254273 69.639292 
L 130.419965 69.010364 
L 131.532701 68.159213 
L 131.725097 67.572274 
L 132.140486 67.336146 
L 132.459526 66.327429 
L 132.764037 64.825874 
L 132.597569 64.564002 
L 132.597569 64.564002 
" clip-path="url(#p1bd3da2702)" style="fill: none; stroke: #808080; stroke-width: 1.5; stroke-linecap: square"/>
   </g>
   <g id="text_1">
    <!-- 134 -->
    <g transform="translate(61.33875 21.6) scale(0.14 -0.14)">
     <defs>
      <path id="DejaVuSans-31" d="M 794 531 
L 1825 531 
L 1825 4091 
L 703 3866 
L 703 4441 
L 1819 4666 
L 2450 4666 
L 2450 531 
L 3481 531 
L 3481 0 
L 794 0 
L 794 531 
z
" transform="scale(0.015625)"/>
      <path id="DejaVuSans-33" d="M 2597 2516 
Q 3050 2419 3304 2112 
Q 3559 1806 3559 1356 
Q 3559 666 3084 287 
Q 2609 -91 1734 -91 
Q 1441 -91 1130 -33 
Q 819 25 488 141 
L 488 750 
Q 750 597 1062 519 
Q 1375 441 1716 441 
Q 2309 441 2620 675 
Q 2931 909 2931 1356 
Q 2931 1769 2642 2001 
Q 2353 2234 1838 2234 
L 1294 2234 
L 1294 2753 
L 1863 2753 
Q 2328 2753 2575 2939 
Q 2822 3125 2822 3475 
Q 2822 3834 2567 4026 
Q 2313 4219 1838 4219 
Q 1578 4219 1281 4162 
Q 984 4106 628 3988 
L 628 4550 
Q 988 4650 1302 4700 
Q 1616 4750 1894 4750 
Q 2613 4750 3031 4423 
Q 3450 4097 3450 3541 
Q 3450 3153 3228 2886 
Q 3006 2619 2597 2516 
z
" transform="scale(0.015625)"/>
      <path id="DejaVuSans-34" d="M 2419 4116 
L 825 1625 
L 2419 1625 
L 2419 4116 
z
M 2253 4666 
L 3047 4666 
L 3047 1625 
L 3713 1625 
L 3713 1100 
L 3047 1100 
L 3047 0 
L 2419 0 
L 2419 1100 
L 313 1100 
L 313 1709 
L 2253 4666 
z
" transform="scale(0.015625)"/>
     </defs>
     <use xlink:href="#DejaVuSans-31"/>
     <use xlink:href="#DejaVuSans-33" x="63.623047"/>
     <use xlink:href="#DejaVuSans-34" x="127.246094"/>
    </g>
   </g>
  </g>
  <g id="axes_2">
   <g id="patch_3">
    <path d="M 149.4 133.2 
L 277.2 133.2 
L 277.2 27.6 
L 149.4 27.6 
z
" style="fill: #ffffff"/>
   </g>
   <g id="matplotlib.axis_3"/>
   <g id="matplotlib.axis_4"/>
   <g id="line2d_2">
    <path d="M 271.305069 45.592355 
L 270.888704 45.442589 
L 270.519712 44.838423 
L 270.668153 43.27098 
L 270.462137 42.879942 
L 268.338678 42.529568 
L 267.937185 42.749609 
L 266.98523 43.592911 
L 266.13584 43.45276 
L 265.839521 43.098614 
L 265.62724 42.556626 
L 266.000333 38.178554 
L 265.635393 37.575055 
L 265.692003 37.032416 
L 265.636285 37.566505 
L 265.166689 38.032323 
L 264.750682 38.077552 
L 262.202574 37.657111 
L 262.033468 37.777495 
L 261.940025 38.305379 
L 261.400569 38.940745 
L 261.321982 39.47108 
L 260.767669 40.104014 
L 260.703909 40.636776 
L 260.223509 41.100811 
L 259.929897 41.142107 
L 258.655859 40.931888 
L 258.191148 40.284246 
L 258.135428 40.818354 
L 258.794732 41.189298 
L 259.040706 41.592073 
L 258.970514 42.620447 
L 258.90998 42.938231 
L 258.461832 43.473201 
L 258.884929 43.558444 
L 259.253919 44.16263 
L 259.254417 44.80251 
L 259.180124 45.514648 
L 258.224851 46.443611 
L 257.859867 46.590535 
L 256.585798 46.380312 
L 256.179323 45.79246 
L 256.108105 45.541069 
L 256.219543 44.472872 
L 255.475995 44.267197 
L 254.665659 44.05437 
L 253.92771 42.846003 
L 253.895061 42.237178 
L 254.127689 40.164139 
L 254.608117 39.700128 
L 254.765353 38.798377 
L 254.875203 37.733137 
L 254.447867 36.93823 
L 254.503585 36.404141 
L 254.148193 35.802199 
L 254.094587 35.421192 
L 254.317463 33.284798 
L 253.200879 32.955158 
L 249.294332 32.4 
L 249.182893 33.468197 
L 248.628856 34.101176 
L 248.013708 34.672595 
L 247.588998 34.602517 
L 247.021781 35.0847 
L 246.391115 35.711789 
L 246.117618 37.664214 
L 245.637189 38.128225 
L 244.559749 38.03151 
L 244.07935 38.495546 
L 243.89419 40.032468 
L 243.887678 40.47498 
L 244.277293 41.263643 
L 244.245698 41.801732 
L 244.61469 42.405899 
L 244.451274 44.49937 
L 244.189275 46.920092 
L 243.558277 47.447411 
L 243.133566 47.377333 
L 242.501348 47.916348 
L 242.076669 47.846275 
L 242.003242 48.351389 
L 242.162286 48.503734 
L 243.861035 48.78403 
L 244.217243 49.159975 
L 244.34023 49.361362 
L 244.416597 49.735189 
L 243.939354 53.417366 
L 243.434031 53.860228 
L 242.159993 53.65001 
L 241.83211 53.399697 
L 241.094159 52.19135 
L 240.032039 51.93311 
L 239.663049 51.328924 
L 238.602237 51.072824 
L 238.233276 50.468663 
L 238.412697 48.444741 
L 238.506519 47.859356 
L 238.986918 47.395321 
L 239.13833 46.392579 
L 239.19054 46.06121 
L 239.820514 45.54401 
L 240.243007 45.610503 
L 240.251431 44.887496 
L 239.882439 44.28333 
L 240.011944 42.424236 
L 239.386422 42.899057 
L 238.956962 42.87451 
L 238.416001 43.509647 
L 238.338918 44.04023 
L 237.85849 44.504241 
L 237.115334 44.45432 
L 236.279878 44.308105 
L 235.910918 43.703924 
L 235.885334 43.250344 
L 236.108211 41.11395 
L 234.935964 40.626524 
L 234.689992 40.22373 
L 234.747132 38.273576 
L 233.473064 38.063353 
L 233.081843 38.312417 
L 232.78696 38.625969 
L 232.731242 39.160058 
L 232.203225 39.729774 
L 231.576022 40.323666 
L 231.000084 40.323207 
L 230.519656 40.787218 
L 230.382011 41.488902 
L 229.901611 41.952938 
L 228.82414 41.856218 
L 228.197729 42.33957 
L 227.798594 42.311348 
L 227.631514 43.008176 
L 227.165696 43.474598 
L 227.013441 44.173871 
L 226.533041 44.637907 
L 226.477077 45.171955 
L 226.252593 45.47749 
L 224.811397 46.869577 
L 223.956069 46.786344 
L 223.209577 46.601407 
L 222.829262 45.814277 
L 222.851526 45.274649 
L 222.456388 44.485054 
L 222.472465 43.96822 
L 221.623075 43.828069 
L 221.361464 43.575184 
L 220.622524 42.376313 
L 219.682619 42.307121 
L 220.051611 42.911288 
L 219.144316 51.205962 
L 218.51896 51.6792 
L 218.23581 51.632479 
L 218.102235 51.898003 
L 217.823453 55.553419 
L 218.166823 56.182317 
L 218.055385 57.250514 
L 217.525964 57.887555 
L 216.887478 58.486653 
L 216.038119 58.346507 
L 215.77364 58.120812 
L 215.041128 56.723256 
L 215.078275 56.367178 
L 214.976812 56.241395 
L 214.127423 56.101244 
L 213.603557 57.126481 
L 212.775122 57.808108 
L 212.373588 57.775957 
L 212.317869 58.310046 
L 211.787171 58.880929 
L 211.171823 59.488674 
L 211.116103 60.022782 
L 210.617032 60.579899 
L 209.9765 61.198607 
L 209.084575 61.059153 
L 209.933965 61.199304 
L 210.593649 61.951485 
L 210.876768 61.9982 
L 211.955527 63.46286 
L 212.238647 63.509575 
L 213.037864 64.284779 
L 213.604134 64.378215 
L 213.86647 64.624152 
L 214.602396 65.832165 
L 214.397892 67.164854 
L 213.917492 67.628889 
L 213.591821 69.649569 
L 212.631024 70.57762 
L 212.499395 71.280297 
L 212.464339 71.954519 
L 212.833328 72.558705 
L 212.72108 74.058752 
L 212.650714 74.539614 
L 212.170314 75.003649 
L 211.65474 74.993203 
L 211.097216 74.91409 
L 211.043937 76.091599 
L 211.52437 75.62755 
L 215.102189 76.273889 
L 215.471151 76.87805 
L 215.125161 80.434873 
L 214.94311 81.424844 
L 213.879584 82.567555 
L 213.799986 83.097703 
L 213.319554 83.561753 
L 213.198093 84.196588 
L 213.135229 84.887464 
L 213.691969 85.071955 
L 214.060957 85.67616 
L 213.956048 86.738033 
L 214.106756 86.977763 
L 215.380825 87.187986 
L 215.793741 87.773053 
L 215.855399 88.145415 
L 215.905789 88.697012 
L 216.24685 89.29657 
L 216.191128 89.830698 
L 216.650218 89.970766 
L 217.201666 90.078483 
L 217.703642 90.787914 
L 218.128352 90.857992 
L 218.497543 91.459953 
L 218.542763 91.806122 
L 218.375604 93.408427 
L 217.44581 94.362817 
L 216.810436 94.500525 
L 212.988229 93.869855 
L 212.609674 93.666507 
L 212.236525 93.102491 
L 211.811815 93.032413 
L 211.277362 92.300895 
L 209.750096 91.945978 
L 209.23925 91.321272 
L 208.956131 91.274557 
L 208.862975 91.427087 
L 208.751534 92.495303 
L 208.282039 92.977217 
L 207.823843 93.017723 
L 204.850995 92.527199 
L 204.436998 92.131765 
L 204.114393 91.762327 
L 202.840324 91.552103 
L 202.295028 90.845812 
L 201.845314 90.047232 
L 202.067318 88.74313 
L 202.541423 88.278075 
L 202.685358 87.577448 
L 203.165756 87.113432 
L 203.369413 85.779288 
L 203.84981 85.315272 
L 203.758096 85.270219 
L 203.474977 85.223503 
L 203.269166 85.036093 
L 201.95931 83.043421 
L 201.494222 82.870165 
L 200.387338 81.05768 
L 200.272268 80.608614 
L 200.370689 79.564636 
L 199.814115 79.378563 
L 199.445127 78.774358 
L 199.551459 77.71111 
L 199.396645 77.473922 
L 198.122576 77.263699 
L 197.712342 76.677465 
L 197.650686 76.317354 
L 197.873567 74.180921 
L 197.458977 73.300652 
L 196.988536 72.573258 
L 196.563826 72.50318 
L 195.535683 70.89183 
L 195.209725 70.294744 
L 195.334529 68.340951 
L 194.983619 67.558674 
L 194.968231 67.093249 
L 194.543551 67.023177 
L 194.097597 66.24483 
L 194.153317 65.710722 
L 193.502576 65.34119 
L 193.230147 64.752957 
L 193.267512 64.21582 
L 192.857273 63.423733 
L 192.909461 62.889062 
L 192.540502 62.284881 
L 192.501947 61.926305 
L 192.669105 60.324 
L 191.820228 58.654096 
L 191.987387 57.051791 
L 191.651441 56.386149 
L 191.518688 56.27837 
L 191.03826 56.742381 
L 190.265475 56.66731 
L 189.463804 56.506408 
L 189.094845 55.902227 
L 188.59173 55.747807 
L 188.03202 55.665114 
L 187.551622 56.12913 
L 187.533295 56.3072 
L 187.902255 56.911381 
L 187.759386 58.898867 
L 188.128347 59.503029 
L 187.968984 60.844462 
L 187.488554 61.308492 
L 186.794902 65.95952 
L 186.474637 66.268864 
L 185.953382 66.249118 
L 185.400202 66.143039 
L 185.031241 65.538877 
L 184.54035 65.372633 
L 183.974111 65.279203 
L 183.410468 64.542869 
L 182.561109 64.402724 
L 182.171664 63.818329 
L 182.112493 63.446378 
L 182.045336 63.030957 
L 181.624647 62.92263 
L 181.255657 62.318444 
L 181.275923 61.658509 
L 181.332577 60.963408 
L 180.919575 60.170866 
L 180.974428 59.637596 
L 180.416601 59.463527 
L 180.04764 58.859366 
L 180.197015 57.290153 
L 180.512076 56.672753 
L 183.190315 54.213234 
L 183.619514 54.239976 
L 184.099943 53.775965 
L 183.317552 52.365998 
L 182.382176 50.86323 
L 181.826824 50.665441 
L 181.46262 50.062065 
L 181.51834 49.527956 
L 180.981413 48.540626 
L 180.234502 47.123967 
L 180.176628 46.639321 
L 179.327238 46.49917 
L 178.316592 45.144188 
L 177.252543 46.287126 
L 177.17319 46.817315 
L 176.692791 47.281351 
L 175.945359 47.227819 
L 175.107119 47.066989 
L 174.369168 45.858641 
L 175.111917 47.074868 
L 174.842315 50.335823 
L 175.211277 50.939984 
L 174.87044 54.824801 
L 175.239432 55.428968 
L 175.11734 56.947357 
L 175.041223 57.407323 
L 174.560823 57.871358 
L 174.412093 58.8041 
L 174.31685 59.842162 
L 174.685811 60.446324 
L 174.599766 61.908581 
L 174.414035 63.688916 
L 173.897156 64.338314 
L 174.266118 64.942476 
L 174.096165 66.282162 
L 173.615765 66.746197 
L 173.186032 68.867425 
L 172.865766 69.176769 
L 172.72 70.120307 
L 172.596131 71.143358 
L 172.115733 71.607374 
L 171.988131 72.232243 
L 171.90982 72.943698 
L 170.768058 74.120462 
L 170.71234 74.654551 
L 169.566291 75.833199 
L 169.510573 76.367288 
L 168.914822 77.174459 
L 168.877673 77.530556 
L 167.723413 78.787913 
L 167.375176 81.304723 
L 166.895537 81.761168 
L 166.320193 81.755016 
L 165.839796 82.219032 
L 163.267981 81.736133 
L 162.89902 81.131971 
L 162.076396 80.966002 
L 161.907219 80.988898 
L 162.412721 81.664828 
L 162.855761 81.80162 
L 163.59371 83.009987 
L 163.626019 83.739694 
L 163.520235 84.459496 
L 162.079007 85.851578 
L 161.700927 86.050704 
L 160.851538 85.910554 
L 160.155968 86.439116 
L 159.306578 86.298965 
L 158.90444 87.211745 
L 155.77412 90.356465 
L 155.689488 90.885783 
L 155.209091 91.349799 
L 155.356503 91.73635 
L 155.606174 92.103688 
L 156.086572 91.639672 
L 156.623777 91.646285 
L 159.171915 92.066732 
L 159.596905 92.940393 
L 159.485468 94.00857 
L 158.864751 94.589377 
L 158.440041 94.519299 
L 158.146256 95.337383 
L 157.825991 95.646727 
L 157.061178 95.578448 
L 156.258993 95.515548 
L 156.078867 97.24215 
L 156.137839 96.708598 
L 156.618271 96.244548 
L 156.902933 96.19567 
L 158.177002 96.405893 
L 158.678994 95.960243 
L 159.091327 95.913426 
L 161.639465 96.333873 
L 162.020917 96.725232 
L 162.229935 97.121909 
L 162.255979 97.850622 
L 162.649974 98.430604 
L 163.685754 98.710865 
L 164.062975 99.307083 
L 165.115557 99.571151 
L 165.473496 100.354588 
L 165.473606 100.897927 
L 165.842567 101.502089 
L 165.492526 105.075599 
L 165.353801 106.00581 
L 164.726929 106.493287 
L 164.443809 106.446571 
L 166.582584 106.799473 
L 166.854579 106.729853 
L 166.921627 106.197594 
L 167.402025 105.733578 
L 167.701716 105.697467 
L 168.975785 105.907691 
L 169.852307 107.41555 
L 169.796589 107.949639 
L 170.375281 108.183772 
L 171.113204 109.392095 
L 171.039719 110.743831 
L 170.933181 112.059249 
L 171.302142 112.663411 
L 171.282186 113.323083 
L 171.225251 114.018471 
L 171.594212 114.622633 
L 171.562128 115.54311 
L 171.45138 116.609477 
L 172.009269 116.783242 
L 172.373992 117.567798 
L 172.336847 117.923858 
L 172.452492 118.249488 
L 173.559403 120.062016 
L 173.50215 121.46406 
L 173.332834 122.753649 
L 172.789849 123.388432 
L 172.714759 123.919364 
L 172.085082 124.434021 
L 171.663134 124.381755 
L 171.525964 126.358618 
L 171.894925 126.962779 
L 171.878036 128.259849 
L 172.727425 128.4 
L 173.667901 127.911848 
L 173.809461 127.935206 
L 174.465099 127.400055 
L 175.314458 127.540201 
L 175.620338 127.368741 
L 176.564071 126.437854 
L 176.675512 125.369638 
L 176.937839 124.958734 
L 178.379067 123.566652 
L 183.493838 124.313453 
L 184.013926 123.674892 
L 184.111879 123.147772 
L 184.592311 122.683722 
L 186.115971 122.889148 
L 187.653889 123.107842 
L 187.709607 122.573754 
L 188.767549 121.494439 
L 190.016875 120.316144 
L 191.083411 120.39498 
L 191.563808 119.930964 
L 191.677222 118.865979 
L 191.836559 118.530082 
L 192.960532 117.585192 
L 193.39128 117.597093 
L 193.871712 117.133043 
L 195.942067 117.212516 
L 195.979212 116.856457 
L 196.84035 115.971783 
L 197.172868 115.706907 
L 198.701211 116.061373 
L 199.070631 116.661134 
L 199.767752 116.135067 
L 200.617142 116.275217 
L 201.617693 117.726973 
L 202.467051 117.867119 
L 202.969094 118.502584 
L 203.080534 117.434368 
L 202.696475 117.261642 
L 201.062281 116.965611 
L 200.69332 116.361449 
L 200.702474 115.712246 
L 200.781778 115.008337 
L 201.262211 114.544287 
L 201.689852 114.52222 
L 203.81328 114.872589 
L 204.56701 115.640288 
L 206.690468 115.990662 
L 207.10315 115.727115 
L 207.418236 115.467412 
L 207.842915 115.537485 
L 207.982927 114.57309 
L 207.988962 114.274919 
L 207.434268 114.070819 
L 207.076387 113.45592 
L 207.187827 112.387704 
L 207.371321 112.055793 
L 208.332116 111.12776 
L 210.908634 111.614655 
L 211.277595 112.218816 
L 212.50931 112.447456 
L 212.85271 112.448478 
L 213.333142 111.984428 
L 214.152368 112.075231 
L 214.403058 112.15327 
L 214.772019 112.757432 
L 215.02328 112.626788 
L 215.940765 111.709279 
L 215.438689 111.000813 
L 215.014009 110.93074 
L 214.584271 110.136712 
L 214.63999 109.602624 
L 214.157645 108.859443 
L 213.732935 108.789365 
L 213.091115 108.040132 
L 212.807996 107.993417 
L 212.433036 107.446457 
L 212.330252 107.22559 
L 212.376311 105.992193 
L 211.949386 105.914014 
L 211.014433 104.480817 
L 210.589753 104.410744 
L 209.86052 103.23405 
L 209.731169 102.718664 
L 209.95405 100.582231 
L 210.258163 100.167935 
L 210.573612 99.904758 
L 210.998292 99.974831 
L 211.071494 99.677769 
L 211.130525 99.325321 
L 211.685818 98.692569 
L 211.748565 98.15964 
L 212.379892 97.629469 
L 212.804571 97.699542 
L 213.492376 97.169699 
L 214.341735 97.309845 
L 214.439758 96.811675 
L 214.659194 96.485694 
L 215.035509 96.004504 
L 215.146441 95.446346 
L 216.107237 94.518314 
L 216.40408 94.433475 
L 217.243839 94.557901 
L 217.874638 94.032788 
L 218.299318 94.102861 
L 218.991144 93.573681 
L 219.840533 93.713832 
L 220.230535 94.29767 
L 220.290198 94.669703 
L 220.356797 95.08568 
L 220.77755 95.193389 
L 221.17622 95.983547 
L 221.135599 96.520166 
L 221.549094 97.31277 
L 221.493835 97.847248 
L 222.358877 99.357415 
L 222.303158 99.891504 
L 222.712554 100.870651 
L 222.489677 103.007045 
L 222.187235 103.432259 
L 221.871424 103.69891 
L 221.446744 103.628837 
L 221.371145 103.92193 
L 221.393841 104.263439 
L 222.66791 104.473663 
L 223.060127 104.854901 
L 224.155331 106.654543 
L 224.099609 107.188671 
L 224.453406 107.876833 
L 225.094729 108.734083 
L 225.512482 108.87055 
L 225.88147 109.474755 
L 227.065272 109.932223 
L 227.311246 110.334998 
L 227.260504 111.664766 
L 228.295169 111.946139 
L 228.665218 112.539878 
L 229.089928 112.609956 
L 231.089429 110.757676 
L 233.651584 108.28289 
L 234.540524 108.362658 
L 235.26877 108.5555 
L 235.637758 109.159706 
L 236.735053 109.475521 
L 237.522088 110.919376 
L 237.49353 111.457986 
L 237.862491 112.062147 
L 237.78504 113.302263 
L 237.653615 114.682055 
L 238.15552 115.392456 
L 238.5802 115.462529 
L 239.088442 116.111896 
L 239.568874 115.647847 
L 240.810503 115.830532 
L 241.257073 116.139694 
L 242.732945 118.556384 
L 243.172933 118.793664 
L 244.407634 119.07718 
L 245.145556 120.285503 
L 245.334204 120.316002 
L 245.812459 119.872522 
L 246.237169 119.9426 
L 246.38611 119.117972 
L 246.495647 118.053329 
L 246.126686 117.449168 
L 246.094091 117.01371 
L 246.316967 114.877316 
L 246.912525 114.071998 
L 247.079679 112.469732 
L 247.379192 112.084871 
L 247.664251 111.769718 
L 247.639984 111.041338 
L 247.296721 110.389271 
L 247.581359 108.477302 
L 248.056956 108.005426 
L 248.265413 106.679142 
L 248.745811 106.215126 
L 250.311953 106.530791 
L 250.680941 107.134997 
L 250.750729 108.464039 
L 251.033849 108.510754 
L 251.407951 109.065935 
L 251.503339 109.293946 
L 251.391899 110.362162 
L 251.975462 111.476183 
L 252.699302 112.633336 
L 253.179735 112.169286 
L 253.549054 112.142426 
L 255.247802 112.422722 
L 255.822004 113.160798 
L 256.671362 113.300943 
L 257.105226 111.221233 
L 259.026851 109.365135 
L 259.824663 109.31792 
L 262.213511 109.603042 
L 262.380669 108.000737 
L 262.240798 107.55178 
L 261.530013 106.347895 
L 261.641449 105.279717 
L 262.093598 104.696816 
L 264.49562 102.376702 
L 264.58075 101.0166 
L 264.211762 100.412395 
L 264.420638 97.792488 
L 264.051676 97.188326 
L 264.07156 94.999433 
L 263.825586 94.596659 
L 263.879253 93.636001 
L 264.003658 92.615001 
L 264.563252 91.982919 
L 264.621733 91.449286 
L 265.10213 90.985269 
L 265.282911 89.988021 
L 265.895827 84.11289 
L 266.219864 83.649774 
L 266.379996 83.495102 
L 266.51576 83.073917 
L 266.794357 80.403415 
L 267.391672 79.674327 
L 267.913274 79.129292 
L 267.488595 79.059219 
L 267.114159 78.507536 
L 267.018454 78.255325 
L 267.13404 76.318662 
L 266.773644 75.698539 
L 266.907947 73.727014 
L 266.538988 73.122833 
L 266.747864 70.502926 
L 266.378874 69.89874 
L 266.530744 66.444981 
L 266.28477 66.042207 
L 266.45508 64.041873 
L 266.544937 63.430743 
L 267.096458 62.797348 
L 267.162982 62.265023 
L 267.64341 61.801012 
L 268.151087 61.798571 
L 268.717357 61.892007 
L 269.188391 58.033816 
L 269.668819 57.569805 
L 270.268317 52.441004 
L 270.800992 51.8045 
L 270.827029 51.265514 
L 270.45807 50.661333 
L 270.539026 49.412156 
L 270.696598 48.046298 
L 271.177026 47.582287 
L 271.335191 46.683909 
L 271.390909 46.149821 
L 271.390909 46.149821 
" clip-path="url(#p05563b58ae)" style="fill: none; stroke: #808080; stroke-width: 1.5; stroke-linecap: square"/>
   </g>
   <g id="text_2">
    <!-- 203 -->
    <g transform="translate(199.93875 21.6) scale(0.14 -0.14)">
     <defs>
      <path id="DejaVuSans-32" d="M 1228 531 
L 3431 531 
L 3431 0 
L 469 0 
L 469 531 
Q 828 903 1448 1529 
Q 2069 2156 2228 2338 
Q 2531 2678 2651 2914 
Q 2772 3150 2772 3378 
Q 2772 3750 2511 3984 
Q 2250 4219 1831 4219 
Q 1534 4219 1204 4116 
Q 875 4013 500 3803 
L 500 4441 
Q 881 4594 1212 4672 
Q 1544 4750 1819 4750 
Q 2544 4750 2975 4387 
Q 3406 4025 3406 3419 
Q 3406 3131 3298 2873 
Q 3191 2616 2906 2266 
Q 2828 2175 2409 1742 
Q 1991 1309 1228 531 
z
" transform="scale(0.015625)"/>
      <path id="DejaVuSans-30" d="M 2034 4250 
Q 1547 4250 1301 3770 
Q 1056 3291 1056 2328 
Q 1056 1369 1301 889 
Q 1547 409 2034 409 
Q 2525 409 2770 889 
Q 3016 1369 3016 2328 
Q 3016 3291 2770 3770 
Q 2525 4250 2034 4250 
z
M 2034 4750 
Q 2819 4750 3233 4129 
Q 3647 3509 3647 2328 
Q 3647 1150 3233 529 
Q 2819 -91 2034 -91 
Q 1250 -91 836 529 
Q 422 1150 422 2328 
Q 422 3509 836 4129 
Q 1250 4750 2034 4750 
z
" transform="scale(0.015625)"/>
     </defs>
     <use xlink:href="#DejaVuSans-32"/>
     <use xlink:href="#DejaVuSans-30" x="63.623047"/>
     <use xlink:href="#DejaVuSans-33" x="127.246094"/>
    </g>
   </g>
  </g>
 </g>
 <defs>
  <clipPath id="p1bd3da2702">
   <rect x="10.8" y="27.6" width="127.8" height="105.6"/>
  </clipPath>
  <clipPath id="p05563b58ae">
   <rect x="149.4" y="27.6" width="127.8" height="105.6"/>
  </clipPath>
 </defs>
</svg>
