<?xml version="1.0" encoding="utf-8" standalone="no"?>
<!DOCTYPE svg PUBLIC "-//W3C//DTD SVG 1.1//EN"
  "http://www.w3.org/Graphics/SVG/1.1/DTD/svg11.dtd">
<svg xmlns:xlink="http://www.w3.org/1999/xlink" width="288pt" height="144pt" viewBox="0 0 288 144" xmlns="http://www.w3.org/2000/svg" version="1.1">
 <metadata>
  <rdf:RDF xmlns:dc="http://purl.org/dc/elements/1.1/" xmlns:cc="http://creativecommons.org/ns#" xmlns:rdf="http://www.w3.org/1999/02/22-rdf-syntax-ns#">
   <cc:Work>
    <dc:type rdf:resource="http://purl.org/dc/dcmitype/StillImage"/>
    <dc:date>2023-12-18T21:33:56.531571</dc:date>
    <dc:format>image/svg+xml</dc:format>
    <dc:creator>
     <cc:Agent>
      <dc:title>Matplotlib v3.6.2, https://matplotlib.org/</dc:title>
     </cc:Agent>
    </dc:creator>
   </cc:Work>
  </rdf:RDF>
 </metadata>
 <defs>
  <style type="text/css">*{stroke-linejoin: round; stroke-linecap: butt}</style>
 </defs>
 <g id="figure_1">
  <g id="patch_1">
   <path d="M 0 144 
L 288 144 
L 288 0 
L 0 0 
z
" style="fill: #ffffff"/>
  </g>
  <g id="axes_1">
   <g id="patch_2">
    <path d="M 10.8 133.2 
L 138.6 133.2 
L 138.6 27.6 
L 10.8 27.6 
z
" style="fill: #ffffff"/>
   </g>
   <g id="matplotlib.axis_1"/>
   <g id="matplotlib.axis_2"/>
   <g id="line2d_1">
    <path d="M 100.793265 32.4 
L 101.597167 34.860383 
L 102.620715 37.174872 
L 103.257906 40.452212 
L 104.108157 43.896277 
L 105.354287 46.235017 
L 106.657552 51.715427 
L 105.73804 54.766864 
L 105.256193 58.407161 
L 104.223972 60.397194 
L 103.682101 63.044328 
L 102.664064 65.678562 
L 101.150001 68.311508 
L 97.877116 69.674463 
L 92.01714 71.489673 
L 89.332026 72.016713 
L 85.298958 72.370572 
L 80.536196 71.330485 
L 76.989169 70.94285 
L 78.063122 72.467601 
L 75.085318 72.306451 
L 70.491593 71.342308 
L 67.897455 72.506516 
L 78.927059 73.066493 
L 87.087308 75.304045 
L 90.209936 76.545686 
L 94.839269 78.654175 
L 92.95011 79.29844 
L 89.621007 78.576581 
L 86.161719 77.447292 
L 83.599552 75.671162 
L 79.153487 74.175009 
L 81.137674 76.819213 
L 83.336131 79.469215 
L 83.966286 81.317522 
L 86.810292 88.154634 
L 82.921741 88.523039 
L 78.622983 87.677734 
L 75.652427 87.372532 
L 76.099717 89.887025 
L 79.673278 91.44761 
L 82.364016 92.941757 
L 85.467988 98.744269 
L 82.29683 98.585472 
L 82.122576 97.62414 
L 78.820361 101.174364 
L 75.594345 100.730134 
L 71.840036 101.159877 
L 66.479425 102.854992 
L 64.998755 101.099051 
L 62.941623 101.829868 
L 57.537549 103.961115 
L 51.957902 104.936632 
L 48.988449 107.255311 
L 39.640309 110.157365 
L 35.705257 111.721037 
L 32.047292 112.208051 
L 25.694635 114.756982 
L 18.175376 116.560646 
L 16.609091 117.726884 
L 22.169994 116.817671 
L 31.461202 114.33924 
L 37.546192 112.226438 
L 41.838513 112.061811 
L 45.825795 109.395655 
L 50.511367 108.02238 
L 53.72204 106.590928 
L 57.693817 105.369899 
L 63.970333 104.566622 
L 66.836898 104.39374 
L 71.365077 103.983442 
L 76.692357 103.001088 
L 83.154726 103.592214 
L 87.031313 106.257312 
L 86.280985 110.345868 
L 84.973152 112.141667 
L 82.544398 114.435516 
L 81.534213 116.773869 
L 79.500778 119.005539 
L 74.414825 122.943234 
L 75.045689 124.995025 
L 73.107939 128.4 
L 76.39515 127.643288 
L 75.998367 125.836232 
L 77.07111 123.239921 
L 79.624779 120.718656 
L 81.120149 118.472407 
L 85.602895 115.85156 
L 89.451224 114.300722 
L 88.599744 117.012354 
L 87.608557 119.030832 
L 86.275695 121.12964 
L 84.963096 122.925311 
L 81.316473 127.096354 
L 84.246206 126.513689 
L 86.542191 123.458544 
L 89.21252 120.440876 
L 90.082895 118.766845 
L 90.422396 116.185598 
L 93.614077 113.789423 
L 94.238412 112.620438 
L 97.711425 113.365936 
L 98.394513 115.742569 
L 99.145527 121.277866 
L 98.012653 123.953025 
L 98.327222 125.598418 
L 98.739866 123.778365 
L 100.116804 121.377066 
L 101.862105 119.744959 
L 103.031954 116.730677 
L 105.269839 115.579592 
L 108.886455 118.280168 
L 108.903067 120.172585 
L 111.771299 122.436833 
L 115.761969 122.396137 
L 119.123135 122.816698 
L 118.11392 121.393916 
L 113.793895 118.012249 
L 108.028754 115.125918 
L 107.709527 113.122051 
L 111.72765 113.883831 
L 116.317321 115.479534 
L 115.61245 114.356539 
L 111.056311 112.33051 
L 113.400315 111.554318 
L 115.594975 112.441318 
L 120.107153 111.128642 
L 123.815918 110.987687 
L 126.310473 110.671104 
L 120.443911 110.372473 
L 116.909556 108.867612 
L 117.178746 107.195522 
L 115.1782 105.259984 
L 112.755584 104.928626 
L 109.204251 103.570598 
L 108.993472 101.407195 
L 108.661233 99.705141 
L 107.261358 98.417545 
L 98.419691 93.52857 
L 91.339535 88.192305 
L 89.843367 86.025965 
L 87.192048 82.44352 
L 86.884823 80.438458 
L 95.770421 79.639052 
L 100.834686 81.592295 
L 103.688887 84.88718 
L 105.794903 85.030786 
L 107.877104 87.742935 
L 110.391602 92.194777 
L 111.516967 95.341089 
L 111.01901 99.436479 
L 112.805038 97.90873 
L 115.202426 100.116191 
L 117.637 97.414041 
L 123.265317 100.313365 
L 130.766683 104.879048 
L 131.992002 102.71203 
L 130.682504 99.073314 
L 130.732506 96.291377 
L 131.204378 90.909167 
L 130.596824 86.082306 
L 130.920216 83.099756 
L 129.113635 79.725445 
L 128.505768 78.114621 
L 130.373656 76.932258 
L 130.489255 75.416956 
L 132.790909 73.989728 
L 131.630637 74.184539 
L 126.832714 74.598159 
L 125.99953 72.076242 
L 126.554623 72.121651 
L 127.365215 70.48548 
L 122.438684 69.29063 
L 119.913141 65.789034 
L 120.691832 62.988882 
L 123.188663 60.961083 
L 126.162168 58.867241 
L 127.359984 56.005553 
L 128.652163 53.980054 
L 124.445444 55.361741 
L 120.563943 55.303658 
L 118.876548 54.463806 
L 110.950536 51.719367 
L 109.304425 49.084325 
L 107.98434 46.139245 
L 106.865868 42.318933 
L 105.565534 40.148785 
L 103.436878 35.669444 
L 103.436878 35.669444 
" clip-path="url(#p0d49a80420)" style="fill: none; stroke: #808080; stroke-width: 1.5; stroke-linecap: square"/>
   </g>
   <g id="text_1">
    <!-- 363 -->
    <g transform="translate(61.33875 21.6) scale(0.14 -0.14)">
     <defs>
      <path id="DejaVuSans-33" d="M 2597 2516 
Q 3050 2419 3304 2112 
Q 3559 1806 3559 1356 
Q 3559 666 3084 287 
Q 2609 -91 1734 -91 
Q 1441 -91 1130 -33 
Q 819 25 488 141 
L 488 750 
Q 750 597 1062 519 
Q 1375 441 1716 441 
Q 2309 441 2620 675 
Q 2931 909 2931 1356 
Q 2931 1769 2642 2001 
Q 2353 2234 1838 2234 
L 1294 2234 
L 1294 2753 
L 1863 2753 
Q 2328 2753 2575 2939 
Q 2822 3125 2822 3475 
Q 2822 3834 2567 4026 
Q 2313 4219 1838 4219 
Q 1578 4219 1281 4162 
Q 984 4106 628 3988 
L 628 4550 
Q 988 4650 1302 4700 
Q 1616 4750 1894 4750 
Q 2613 4750 3031 4423 
Q 3450 4097 3450 3541 
Q 3450 3153 3228 2886 
Q 3006 2619 2597 2516 
z
" transform="scale(0.015625)"/>
      <path id="DejaVuSans-36" d="M 2113 2584 
Q 1688 2584 1439 2293 
Q 1191 2003 1191 1497 
Q 1191 994 1439 701 
Q 1688 409 2113 409 
Q 2538 409 2786 701 
Q 3034 994 3034 1497 
Q 3034 2003 2786 2293 
Q 2538 2584 2113 2584 
z
M 3366 4563 
L 3366 3988 
Q 3128 4100 2886 4159 
Q 2644 4219 2406 4219 
Q 1781 4219 1451 3797 
Q 1122 3375 1075 2522 
Q 1259 2794 1537 2939 
Q 1816 3084 2150 3084 
Q 2853 3084 3261 2657 
Q 3669 2231 3669 1497 
Q 3669 778 3244 343 
Q 2819 -91 2113 -91 
Q 1303 -91 875 529 
Q 447 1150 447 2328 
Q 447 3434 972 4092 
Q 1497 4750 2381 4750 
Q 2619 4750 2861 4703 
Q 3103 4656 3366 4563 
z
" transform="scale(0.015625)"/>
     </defs>
     <use xlink:href="#DejaVuSans-33"/>
     <use xlink:href="#DejaVuSans-36" x="63.623047"/>
     <use xlink:href="#DejaVuSans-33" x="127.246094"/>
    </g>
   </g>
  </g>
  <g id="axes_2">
   <g id="patch_3">
    <path d="M 149.4 133.2 
L 277.2 133.2 
L 277.2 27.6 
L 149.4 27.6 
z
" style="fill: #ffffff"/>
   </g>
   <g id="matplotlib.axis_3"/>
   <g id="matplotlib.axis_4"/>
   <g id="line2d_2">
    <path d="M 239.393265 32.4 
L 240.197167 34.860383 
L 241.220715 37.174872 
L 241.857906 40.452212 
L 242.708157 43.896277 
L 243.954287 46.235017 
L 245.257552 51.715427 
L 244.33804 54.766864 
L 243.856193 58.407161 
L 242.823972 60.397194 
L 242.282101 63.044328 
L 241.264064 65.678562 
L 239.750001 68.311508 
L 236.477116 69.674463 
L 230.61714 71.489673 
L 227.932026 72.016713 
L 223.898958 72.370572 
L 219.136196 71.330485 
L 215.589169 70.94285 
L 216.663122 72.467601 
L 213.685318 72.306451 
L 209.091593 71.342308 
L 206.497455 72.506516 
L 217.527059 73.066493 
L 225.687308 75.304045 
L 228.809936 76.545686 
L 233.439269 78.654175 
L 231.55011 79.29844 
L 228.221007 78.576581 
L 224.761719 77.447292 
L 222.199552 75.671162 
L 217.753487 74.175009 
L 219.737674 76.819213 
L 221.936131 79.469215 
L 222.566286 81.317522 
L 225.410292 88.154634 
L 221.521741 88.523039 
L 217.222983 87.677734 
L 214.252427 87.372532 
L 214.699717 89.887025 
L 218.273278 91.44761 
L 220.964016 92.941757 
L 224.067988 98.744269 
L 220.89683 98.585472 
L 220.722576 97.62414 
L 217.420361 101.174364 
L 214.194345 100.730134 
L 210.440036 101.159877 
L 205.079425 102.854992 
L 203.598755 101.099051 
L 201.541623 101.829868 
L 196.137549 103.961115 
L 190.557902 104.936632 
L 187.588449 107.255311 
L 178.240309 110.157365 
L 174.305257 111.721037 
L 170.647292 112.208051 
L 164.294635 114.756982 
L 156.775376 116.560646 
L 155.209091 117.726884 
L 160.769994 116.817671 
L 170.061202 114.33924 
L 176.146192 112.226438 
L 180.438513 112.061811 
L 184.425795 109.395655 
L 189.111367 108.02238 
L 192.32204 106.590928 
L 196.293817 105.369899 
L 202.570333 104.566622 
L 205.436898 104.39374 
L 209.965077 103.983442 
L 215.292357 103.001088 
L 221.754726 103.592214 
L 225.631313 106.257312 
L 224.880985 110.345868 
L 223.573152 112.141667 
L 221.144398 114.435516 
L 220.134213 116.773869 
L 218.100778 119.005539 
L 213.014825 122.943234 
L 213.645689 124.995025 
L 211.707939 128.4 
L 214.99515 127.643288 
L 214.598367 125.836232 
L 215.67111 123.239921 
L 218.224779 120.718656 
L 219.720149 118.472407 
L 224.202895 115.85156 
L 228.051224 114.300722 
L 227.199744 117.012354 
L 226.208557 119.030832 
L 224.875695 121.12964 
L 223.563096 122.925311 
L 219.916473 127.096354 
L 222.846206 126.513689 
L 225.142191 123.458544 
L 227.81252 120.440876 
L 228.682895 118.766845 
L 229.022396 116.185598 
L 232.214077 113.789423 
L 232.838412 112.620438 
L 236.311425 113.365936 
L 236.994513 115.742569 
L 237.745527 121.277866 
L 236.612653 123.953025 
L 236.927222 125.598418 
L 237.339866 123.778365 
L 238.716804 121.377066 
L 240.462105 119.744959 
L 241.631954 116.730677 
L 243.869839 115.579592 
L 247.486455 118.280168 
L 247.503067 120.172585 
L 250.371299 122.436833 
L 254.361969 122.396137 
L 257.723135 122.816698 
L 256.71392 121.393916 
L 252.393895 118.012249 
L 246.628754 115.125918 
L 246.309527 113.122051 
L 250.32765 113.883831 
L 254.917321 115.479534 
L 254.21245 114.356539 
L 249.656311 112.33051 
L 252.000315 111.554318 
L 254.194975 112.441318 
L 258.707153 111.128642 
L 262.415918 110.987687 
L 264.910473 110.671104 
L 259.043911 110.372473 
L 255.509556 108.867612 
L 255.778746 107.195522 
L 253.7782 105.259984 
L 251.355584 104.928626 
L 247.804251 103.570598 
L 247.593472 101.407195 
L 247.261233 99.705141 
L 245.861358 98.417545 
L 237.019691 93.52857 
L 229.939535 88.192305 
L 228.443367 86.025965 
L 225.792048 82.44352 
L 225.484823 80.438458 
L 234.370421 79.639052 
L 239.434686 81.592295 
L 242.288887 84.88718 
L 244.394903 85.030786 
L 246.477104 87.742935 
L 248.991602 92.194777 
L 250.116967 95.341089 
L 249.61901 99.436479 
L 251.405038 97.90873 
L 253.802426 100.116191 
L 256.237 97.414041 
L 261.865317 100.313365 
L 269.366683 104.879048 
L 270.592002 102.71203 
L 269.282504 99.073314 
L 269.332506 96.291377 
L 269.804378 90.909167 
L 269.196824 86.082306 
L 269.520216 83.099756 
L 267.713635 79.725445 
L 267.105768 78.114621 
L 268.973656 76.932258 
L 269.089255 75.416956 
L 271.390909 73.989728 
L 270.230637 74.184539 
L 265.432714 74.598159 
L 264.59953 72.076242 
L 265.154623 72.121651 
L 265.965215 70.48548 
L 261.038684 69.29063 
L 258.513141 65.789034 
L 259.291832 62.988882 
L 261.788663 60.961083 
L 264.762168 58.867241 
L 265.959984 56.005553 
L 267.252163 53.980054 
L 263.045444 55.361741 
L 259.163943 55.303658 
L 257.476548 54.463806 
L 249.550536 51.719367 
L 247.904425 49.084325 
L 246.58434 46.139245 
L 245.465868 42.318933 
L 244.165534 40.148785 
L 242.036878 35.669444 
L 242.036878 35.669444 
" clip-path="url(#p5c0526b620)" style="fill: none; stroke: #808080; stroke-width: 1.5; stroke-linecap: square"/>
   </g>
   <g id="text_2">
    <!-- 396 -->
    <g transform="translate(199.93875 21.6) scale(0.14 -0.14)">
     <defs>
      <path id="DejaVuSans-39" d="M 703 97 
L 703 672 
Q 941 559 1184 500 
Q 1428 441 1663 441 
Q 2288 441 2617 861 
Q 2947 1281 2994 2138 
Q 2813 1869 2534 1725 
Q 2256 1581 1919 1581 
Q 1219 1581 811 2004 
Q 403 2428 403 3163 
Q 403 3881 828 4315 
Q 1253 4750 1959 4750 
Q 2769 4750 3195 4129 
Q 3622 3509 3622 2328 
Q 3622 1225 3098 567 
Q 2575 -91 1691 -91 
Q 1453 -91 1209 -44 
Q 966 3 703 97 
z
M 1959 2075 
Q 2384 2075 2632 2365 
Q 2881 2656 2881 3163 
Q 2881 3666 2632 3958 
Q 2384 4250 1959 4250 
Q 1534 4250 1286 3958 
Q 1038 3666 1038 3163 
Q 1038 2656 1286 2365 
Q 1534 2075 1959 2075 
z
" transform="scale(0.015625)"/>
     </defs>
     <use xlink:href="#DejaVuSans-33"/>
     <use xlink:href="#DejaVuSans-39" x="63.623047"/>
     <use xlink:href="#DejaVuSans-36" x="127.246094"/>
    </g>
   </g>
  </g>
 </g>
 <defs>
  <clipPath id="p0d49a80420">
   <rect x="10.8" y="27.6" width="127.8" height="105.6"/>
  </clipPath>
  <clipPath id="p5c0526b620">
   <rect x="149.4" y="27.6" width="127.8" height="105.6"/>
  </clipPath>
 </defs>
</svg>
