<?xml version="1.0" encoding="utf-8" standalone="no"?>
<!DOCTYPE svg PUBLIC "-//W3C//DTD SVG 1.1//EN"
  "http://www.w3.org/Graphics/SVG/1.1/DTD/svg11.dtd">
<svg xmlns:xlink="http://www.w3.org/1999/xlink" width="540pt" height="288pt" viewBox="0 0 540 288" xmlns="http://www.w3.org/2000/svg" version="1.1">
 <metadata>
  <rdf:RDF xmlns:dc="http://purl.org/dc/elements/1.1/" xmlns:cc="http://creativecommons.org/ns#" xmlns:rdf="http://www.w3.org/1999/02/22-rdf-syntax-ns#">
   <cc:Work>
    <dc:type rdf:resource="http://purl.org/dc/dcmitype/StillImage"/>
    <dc:date>2024-04-08T18:37:21.498399</dc:date>
    <dc:format>image/svg+xml</dc:format>
    <dc:creator>
     <cc:Agent>
      <dc:title>Matplotlib v3.8.4, https://matplotlib.org/</dc:title>
     </cc:Agent>
    </dc:creator>
   </cc:Work>
  </rdf:RDF>
 </metadata>
 <defs>
  <style type="text/css">*{stroke-linejoin: round; stroke-linecap: butt}</style>
 </defs>
 <g id="figure_1">
  <g id="patch_1">
   <path d="M 0 288 
L 540 288 
L 540 0 
L 0 0 
z
" style="fill: #ffffff"/>
  </g>
  <g id="axes_1">
   <g id="line2d_1">
    <path d="M 108.342591 39.141818 
L 107.817198 41.016135 
L 106.944154 41.933824 
L 104.142388 47.302109 
L 104.060474 47.925692 
L 103.700756 49.006557 
L 101.554637 51.466724 
L 99.240828 52.919224 
L 98.845067 53.767442 
L 98.240491 56.07429 
L 98.222837 57.518236 
L 97.798413 58.623921 
L 97.689757 59.332338 
L 97.172915 60.715474 
L 97.266435 61.11468 
L 96.903288 62.459132 
L 95.502734 64.376224 
L 94.693696 66.942342 
L 93.790919 68.176909 
L 93.243286 69.125925 
L 93.14384 70.149459 
L 93.432194 71.656711 
L 92.393083 73.802602 
L 91.940682 75.068882 
L 91.990767 77.13147 
L 92.345946 79.579355 
L 92.578669 80.455017 
L 92.627326 81.498986 
L 92.843561 82.31647 
L 92.777879 83.519697 
L 92.950783 84.41703 
L 93.067536 86.435265 
L 94.060979 88.385715 
L 94.265544 91.004838 
L 94.210999 94.714149 
L 94.534628 95.763361 
L 94.815594 96.29524 
L 95.419078 96.953326 
L 96.156631 99.013774 
L 96.63765 101.338968 
L 97.98004 102.55141 
L 98.411757 104.934696 
L 99.012213 106.43657 
L 100.296054 107.755473 
L 100.780168 109.632918 
L 100.730579 110.655751 
L 100.99153 111.592879 
L 101.336379 112.272662 
L 102.034181 112.703021 
L 104.613106 116.089961 
L 104.957651 116.753394 
L 105.883717 117.139252 
L 108.485277 118.484557 
L 109.176403 119.186317 
L 109.534819 120.005975 
L 110.122377 120.800344 
L 111.038762 121.832483 
L 114.912752 123.460301 
L 116.763256 126.210937 
L 117.62166 126.840252 
L 119.206248 127.309489 
L 120.587718 127.915154 
L 120.850778 127.867053 
L 121.544303 127.457801 
L 123.738141 127.617388 
L 125.042438 128.40554 
L 128.447135 128.85285 
L 129.401117 129.498578 
L 131.019173 129.803442 
L 132.30935 129.674607 
L 133.24814 129.808477 
L 136.443273 130.705282 
L 138.326697 130.778182 
L 140.540059 130.172558 
L 142.406889 130.652762 
L 144.465155 130.757643 
L 146.541282 129.876633 
L 148.180093 130.23165 
L 150.46873 129.280711 
L 150.909115 129.352911 
L 151.39862 129.17416 
L 154.422628 127.672399 
L 156.099379 127.585769 
L 157.777495 126.831431 
L 158.204939 126.868309 
L 159.241991 126.623459 
L 160.770122 125.400832 
L 161.645429 123.884125 
L 162.864776 122.403304 
L 163.736826 118.851682 
L 164.103482 117.877147 
L 164.161545 117.391282 
L 165.685575 114.194583 
L 165.452534 113.208324 
L 165.222199 111.670979 
L 165.492164 108.663057 
L 165.425678 108.39123 
L 165.768745 107.01807 
L 165.676745 106.691624 
L 165.13154 105.385086 
L 164.742806 102.596738 
L 164.89833 101.484179 
L 165.724307 100.21795 
L 166.147554 97.951042 
L 165.607945 96.995727 
L 165.365213 95.215132 
L 163.911188 91.107686 
L 163.967287 90.060437 
L 164.550253 88.780851 
L 164.56583 86.579899 
L 163.880589 84.092737 
L 161.101395 80.489072 
L 159.779554 79.494211 
L 158.306979 77.087409 
L 157.723094 75.007943 
L 157.164078 74.470765 
L 155.111738 72.284563 
L 154.276737 71.592026 
L 153.460754 70.719604 
L 152.782773 70.371319 
L 151.892564 69.523082 
L 151.15332 69.047982 
L 150.408807 68.264245 
L 149.638332 66.582735 
L 149.206124 65.9491 
L 147.009119 64.627297 
L 144.23151 62.335631 
L 143.049536 60.817474 
L 140.340546 59.461318 
L 139.558825 58.506834 
L 137.00139 57.69388 
L 132.435729 54.266367 
L 130.782739 53.828576 
L 127.015227 51.326961 
L 125.280618 51.434187 
L 124.400225 50.895177 
L 123.599309 50.239369 
L 121.300485 48.856581 
L 120.169782 48.676813 
L 116.712333 49.221771 
L 114.274852 49.165309 
L 113.727932 48.783407 
L 112.268796 48.093037 
L 109.946786 47.51943 
L 109.537691 47.119156 
L 107.637207 46.037364 
L 105.045574 46.286581 
L 103.247892 46.275618 
L 103.247892 46.275618 
" clip-path="url(#p185af0dbea)" style="fill: none; stroke: #1f77b4; stroke-width: 1.5; stroke-linecap: square"/>
   </g>
   <g id="text_1">
    <!-- SRV-control -->
    <g transform="translate(71.778493 28.56) scale(0.2 -0.2)">
     <defs>
      <path id="DejaVuSans-53" d="M 3425 4513 
L 3425 3897 
Q 3066 4069 2747 4153 
Q 2428 4238 2131 4238 
Q 1616 4238 1336 4038 
Q 1056 3838 1056 3469 
Q 1056 3159 1242 3001 
Q 1428 2844 1947 2747 
L 2328 2669 
Q 3034 2534 3370 2195 
Q 3706 1856 3706 1288 
Q 3706 609 3251 259 
Q 2797 -91 1919 -91 
Q 1588 -91 1214 -16 
Q 841 59 441 206 
L 441 856 
Q 825 641 1194 531 
Q 1563 422 1919 422 
Q 2459 422 2753 634 
Q 3047 847 3047 1241 
Q 3047 1584 2836 1778 
Q 2625 1972 2144 2069 
L 1759 2144 
Q 1053 2284 737 2584 
Q 422 2884 422 3419 
Q 422 4038 858 4394 
Q 1294 4750 2059 4750 
Q 2388 4750 2728 4690 
Q 3069 4631 3425 4513 
z
" transform="scale(0.015625)"/>
      <path id="DejaVuSans-52" d="M 2841 2188 
Q 3044 2119 3236 1894 
Q 3428 1669 3622 1275 
L 4263 0 
L 3584 0 
L 2988 1197 
Q 2756 1666 2539 1819 
Q 2322 1972 1947 1972 
L 1259 1972 
L 1259 0 
L 628 0 
L 628 4666 
L 2053 4666 
Q 2853 4666 3247 4331 
Q 3641 3997 3641 3322 
Q 3641 2881 3436 2590 
Q 3231 2300 2841 2188 
z
M 1259 4147 
L 1259 2491 
L 2053 2491 
Q 2509 2491 2742 2702 
Q 2975 2913 2975 3322 
Q 2975 3731 2742 3939 
Q 2509 4147 2053 4147 
L 1259 4147 
z
" transform="scale(0.015625)"/>
      <path id="DejaVuSans-56" d="M 1831 0 
L 50 4666 
L 709 4666 
L 2188 738 
L 3669 4666 
L 4325 4666 
L 2547 0 
L 1831 0 
z
" transform="scale(0.015625)"/>
      <path id="DejaVuSans-2d" d="M 313 2009 
L 1997 2009 
L 1997 1497 
L 313 1497 
L 313 2009 
z
" transform="scale(0.015625)"/>
      <path id="DejaVuSans-63" d="M 3122 3366 
L 3122 2828 
Q 2878 2963 2633 3030 
Q 2388 3097 2138 3097 
Q 1578 3097 1268 2742 
Q 959 2388 959 1747 
Q 959 1106 1268 751 
Q 1578 397 2138 397 
Q 2388 397 2633 464 
Q 2878 531 3122 666 
L 3122 134 
Q 2881 22 2623 -34 
Q 2366 -91 2075 -91 
Q 1284 -91 818 406 
Q 353 903 353 1747 
Q 353 2603 823 3093 
Q 1294 3584 2113 3584 
Q 2378 3584 2631 3529 
Q 2884 3475 3122 3366 
z
" transform="scale(0.015625)"/>
      <path id="DejaVuSans-6f" d="M 1959 3097 
Q 1497 3097 1228 2736 
Q 959 2375 959 1747 
Q 959 1119 1226 758 
Q 1494 397 1959 397 
Q 2419 397 2687 759 
Q 2956 1122 2956 1747 
Q 2956 2369 2687 2733 
Q 2419 3097 1959 3097 
z
M 1959 3584 
Q 2709 3584 3137 3096 
Q 3566 2609 3566 1747 
Q 3566 888 3137 398 
Q 2709 -91 1959 -91 
Q 1206 -91 779 398 
Q 353 888 353 1747 
Q 353 2609 779 3096 
Q 1206 3584 1959 3584 
z
" transform="scale(0.015625)"/>
      <path id="DejaVuSans-6e" d="M 3513 2113 
L 3513 0 
L 2938 0 
L 2938 2094 
Q 2938 2591 2744 2837 
Q 2550 3084 2163 3084 
Q 1697 3084 1428 2787 
Q 1159 2491 1159 1978 
L 1159 0 
L 581 0 
L 581 3500 
L 1159 3500 
L 1159 2956 
Q 1366 3272 1645 3428 
Q 1925 3584 2291 3584 
Q 2894 3584 3203 3211 
Q 3513 2838 3513 2113 
z
" transform="scale(0.015625)"/>
      <path id="DejaVuSans-74" d="M 1172 4494 
L 1172 3500 
L 2356 3500 
L 2356 3053 
L 1172 3053 
L 1172 1153 
Q 1172 725 1289 603 
Q 1406 481 1766 481 
L 2356 481 
L 2356 0 
L 1766 0 
Q 1100 0 847 248 
Q 594 497 594 1153 
L 594 3053 
L 172 3053 
L 172 3500 
L 594 3500 
L 594 4494 
L 1172 4494 
z
" transform="scale(0.015625)"/>
      <path id="DejaVuSans-72" d="M 2631 2963 
Q 2534 3019 2420 3045 
Q 2306 3072 2169 3072 
Q 1681 3072 1420 2755 
Q 1159 2438 1159 1844 
L 1159 0 
L 581 0 
L 581 3500 
L 1159 3500 
L 1159 2956 
Q 1341 3275 1631 3429 
Q 1922 3584 2338 3584 
Q 2397 3584 2469 3576 
Q 2541 3569 2628 3553 
L 2631 2963 
z
" transform="scale(0.015625)"/>
      <path id="DejaVuSans-6c" d="M 603 4863 
L 1178 4863 
L 1178 0 
L 603 0 
L 603 4863 
z
" transform="scale(0.015625)"/>
     </defs>
     <use xlink:href="#DejaVuSans-53"/>
     <use xlink:href="#DejaVuSans-52" x="63.476562"/>
     <use xlink:href="#DejaVuSans-56" x="127.458984"/>
     <use xlink:href="#DejaVuSans-2d" x="189.992188"/>
     <use xlink:href="#DejaVuSans-63" x="226.076172"/>
     <use xlink:href="#DejaVuSans-6f" x="281.056641"/>
     <use xlink:href="#DejaVuSans-6e" x="342.238281"/>
     <use xlink:href="#DejaVuSans-74" x="405.617188"/>
     <use xlink:href="#DejaVuSans-72" x="444.826172"/>
     <use xlink:href="#DejaVuSans-6f" x="483.689453"/>
     <use xlink:href="#DejaVuSans-6c" x="544.871094"/>
    </g>
   </g>
  </g>
  <g id="axes_2">
   <g id="line2d_2">
    <path d="M 271.893558 39.141818 
L 272.250536 42.277548 
L 272.76026 43.518278 
L 272.910976 45.269565 
L 273.324333 47.798596 
L 273.497831 52.448534 
L 274.118319 56.678258 
L 274.940907 58.707797 
L 275.305882 61.339221 
L 273.877274 63.947963 
L 271.075658 65.129579 
L 270.984195 65.737401 
L 270.949172 67.795138 
L 271.532777 69.788765 
L 271.443029 70.944909 
L 271.564572 71.562317 
L 270.731569 73.479201 
L 270.925529 73.613966 
L 271.168724 74.204734 
L 271.011582 75.770296 
L 270.047566 77.385102 
L 269.675033 80.140537 
L 267.840383 82.184543 
L 267.664623 82.966594 
L 268.045227 84.236209 
L 267.079713 85.990166 
L 266.88162 86.804036 
L 267.965049 90.572763 
L 268.460194 91.404529 
L 268.446103 92.466016 
L 268.834421 93.26392 
L 268.6271 94.626626 
L 268.912265 95.448863 
L 269.163231 97.125355 
L 270.018358 98.9874 
L 270.022154 101.166953 
L 269.542352 104.763671 
L 269.880612 106.081886 
L 270.504084 106.54973 
L 271.183285 107.630213 
L 271.306756 109.211419 
L 273.223514 110.069456 
L 273.4328 111.382934 
L 273.792581 112.138126 
L 275.190902 112.954176 
L 275.298831 114.179543 
L 275.056496 115.183587 
L 275.39226 116.066459 
L 276.070105 116.302185 
L 278.021657 117.710859 
L 278.073744 118.441342 
L 278.611313 118.555681 
L 279.339146 118.908249 
L 280.117703 119.007768 
L 280.555521 119.451859 
L 280.681672 120.201424 
L 281.537196 121.592499 
L 282.75834 122.2266 
L 283.844728 122.426342 
L 284.210313 123.706867 
L 284.380767 124.961656 
L 284.593949 125.500539 
L 285.030025 125.896335 
L 287.332628 126.493646 
L 287.974376 125.963421 
L 289.459918 125.751919 
L 290.167004 126.197044 
L 291.870358 126.541085 
L 292.375469 126.934974 
L 292.529219 127.340808 
L 292.976114 127.410104 
L 293.463771 127.628689 
L 293.957202 127.724755 
L 295.014977 128.348891 
L 295.71727 128.93569 
L 296.275111 129.161879 
L 296.861497 129.268769 
L 297.322587 129.529298 
L 298.471799 129.52131 
L 299.783804 129.994486 
L 300.807495 130.609444 
L 301.856477 130.283952 
L 302.518932 130.579284 
L 302.948242 130.770763 
L 303.986781 130.255521 
L 304.241482 130.421203 
L 305.136146 130.081523 
L 305.825023 130.105585 
L 306.196159 130.243483 
L 306.695436 130.306849 
L 307.203071 130.518605 
L 307.81786 130.598232 
L 308.083675 130.756182 
L 308.688573 130.778182 
L 309.26407 130.424179 
L 310.127403 128.959554 
L 309.977958 128.365311 
L 309.956844 125.830353 
L 309.855833 125.729292 
L 309.888557 125.297957 
L 310.499521 123.375612 
L 309.377297 122.087647 
L 308.852227 121.373807 
L 308.579423 119.086232 
L 308.408897 118.877907 
L 309.059199 116.573622 
L 308.733783 116.328408 
L 307.539942 115.105813 
L 306.566604 112.340053 
L 307.347841 111.56573 
L 307.214519 110.075401 
L 306.378996 109.018439 
L 306.089757 107.387277 
L 304.264869 103.299633 
L 304.523427 102.173668 
L 305.202776 101.349915 
L 306.179557 100.675433 
L 306.94631 98.813882 
L 306.518041 97.291597 
L 303.475691 94.696003 
L 301.719775 93.818166 
L 300.15478 92.030162 
L 299.581358 90.695709 
L 298.613048 90.559113 
L 295.613339 88.1649 
L 294.836042 87.624188 
L 293.966274 87.436849 
L 293.086936 86.846175 
L 292.355493 86.554817 
L 291.872977 85.953905 
L 291.59598 84.933501 
L 290.786622 83.476008 
L 288.720584 81.993167 
L 286.073911 79.497706 
L 285.214175 77.598966 
L 282.739174 76.746213 
L 282.514641 75.966226 
L 282.162781 75.333782 
L 280.905597 75.223352 
L 279.633395 74.310678 
L 278.895944 73.392723 
L 274.304398 68.803701 
L 272.646312 67.934834 
L 269.539339 64.674903 
L 269.196092 63.839443 
L 268.486681 63.37886 
L 266.926669 63.210092 
L 265.673957 61.887334 
L 264.454488 60.058483 
L 261.834028 56.764277 
L 260.591539 56.33163 
L 257.541397 56.039745 
L 255.673932 55.14899 
L 254.695859 53.817988 
L 252.535396 51.12191 
L 249.885091 48.643721 
L 248.991592 47.001479 
L 245.677744 43.026601 
L 244.357298 42.689196 
L 243.000479 41.474122 
L 243.000479 41.474122 
" clip-path="url(#p583e086a76)" style="fill: none; stroke: #ff7f0e; stroke-width: 1.5; stroke-linecap: square"/>
   </g>
   <g id="text_2">
    <!-- SRV-cytd -->
    <g transform="translate(232.45625 28.56) scale(0.2 -0.2)">
     <defs>
      <path id="DejaVuSans-79" d="M 2059 -325 
Q 1816 -950 1584 -1140 
Q 1353 -1331 966 -1331 
L 506 -1331 
L 506 -850 
L 844 -850 
Q 1081 -850 1212 -737 
Q 1344 -625 1503 -206 
L 1606 56 
L 191 3500 
L 800 3500 
L 1894 763 
L 2988 3500 
L 3597 3500 
L 2059 -325 
z
" transform="scale(0.015625)"/>
      <path id="DejaVuSans-64" d="M 2906 2969 
L 2906 4863 
L 3481 4863 
L 3481 0 
L 2906 0 
L 2906 525 
Q 2725 213 2448 61 
Q 2172 -91 1784 -91 
Q 1150 -91 751 415 
Q 353 922 353 1747 
Q 353 2572 751 3078 
Q 1150 3584 1784 3584 
Q 2172 3584 2448 3432 
Q 2725 3281 2906 2969 
z
M 947 1747 
Q 947 1113 1208 752 
Q 1469 391 1925 391 
Q 2381 391 2643 752 
Q 2906 1113 2906 1747 
Q 2906 2381 2643 2742 
Q 2381 3103 1925 3103 
Q 1469 3103 1208 2742 
Q 947 2381 947 1747 
z
" transform="scale(0.015625)"/>
     </defs>
     <use xlink:href="#DejaVuSans-53"/>
     <use xlink:href="#DejaVuSans-52" x="63.476562"/>
     <use xlink:href="#DejaVuSans-56" x="127.458984"/>
     <use xlink:href="#DejaVuSans-2d" x="189.992188"/>
     <use xlink:href="#DejaVuSans-63" x="226.076172"/>
     <use xlink:href="#DejaVuSans-79" x="281.056641"/>
     <use xlink:href="#DejaVuSans-74" x="340.236328"/>
     <use xlink:href="#DejaVuSans-64" x="379.445312"/>
    </g>
   </g>
  </g>
  <g id="axes_3">
   <g id="line2d_3">
    <path d="M 409.463319 39.141818 
L 409.152464 40.408402 
L 409.195896 40.796394 
L 408.715196 41.764427 
L 408.187227 43.08928 
L 406.929803 45.810819 
L 406.313877 48.091437 
L 406.342355 48.435315 
L 406.066895 49.666214 
L 404.315383 51.949981 
L 402.753603 53.10791 
L 402.532171 53.785201 
L 402.305614 56.015144 
L 402.628671 57.737421 
L 402.328424 59.719718 
L 401.574018 61.620229 
L 401.719634 62.050791 
L 401.356633 63.563533 
L 400.346398 65.381821 
L 399.61681 68.442742 
L 398.130014 70.730238 
L 397.990928 71.677248 
L 398.287944 73.066917 
L 397.515256 74.892938 
L 397.40674 76.029701 
L 397.75671 78.252941 
L 397.842401 80.251669 
L 398.028505 81.264659 
L 398.396016 82.223369 
L 398.361801 83.600737 
L 398.627841 84.499582 
L 398.629814 85.569288 
L 398.964735 86.491004 
L 399.021856 88.460005 
L 400.062658 90.390432 
L 400.266851 92.561374 
L 400.360102 95.768608 
L 400.641982 97.195225 
L 401.361272 97.722274 
L 401.999483 99.517182 
L 402.397151 101.435951 
L 403.409459 102.123898 
L 404.013491 102.699697 
L 404.501425 105.203353 
L 404.997639 106.716763 
L 406.29102 107.919573 
L 406.773302 109.944557 
L 406.529051 111.043121 
L 406.976061 112.363401 
L 407.528406 112.646989 
L 409.525216 115.797174 
L 409.696647 116.433376 
L 410.470107 116.794236 
L 413.206239 118.364182 
L 413.903462 119.283013 
L 414.245502 120.327046 
L 415.422739 122.711324 
L 417.48366 123.740206 
L 419.168799 124.114641 
L 420.649647 126.762381 
L 421.309737 127.279661 
L 423.597114 128.221491 
L 423.827234 128.128506 
L 424.52134 127.600206 
L 426.018661 127.655414 
L 426.915976 128.285897 
L 429.379542 128.769153 
L 429.98142 129.38767 
L 430.201871 129.779028 
L 431.982573 130.019699 
L 434.703608 130.178306 
L 435.543355 130.579945 
L 436.253408 130.697377 
L 437.032209 130.666958 
L 437.635374 130.778182 
L 439.400697 130.210593 
L 441.397657 130.623371 
L 441.775334 130.684019 
L 443.502051 129.623552 
L 444.657642 129.5823 
L 445.927166 128.992743 
L 446.213381 129.08638 
L 446.755966 128.741062 
L 447.542172 128.428643 
L 448.979523 127.733512 
L 450.222607 127.803711 
L 451.446128 127.181124 
L 451.708173 127.175634 
L 452.461182 127.039555 
L 453.468038 126.219137 
L 454.102381 124.645663 
L 454.994566 123.339342 
L 455.041809 122.774151 
L 455.738392 120.765383 
L 455.745776 120.171008 
L 455.955822 119.260434 
L 455.864791 118.891608 
L 456.615953 116.933726 
L 456.412517 116.57438 
L 456.37867 116.126673 
L 456.007927 115.276714 
L 455.674686 114.348472 
L 455.37531 111.858388 
L 455.546119 110.46776 
L 455.427317 110.187082 
L 454.648818 108.798507 
L 454.267081 105.287267 
L 455.142005 104.274522 
L 455.100606 102.209492 
L 454.656853 101.169109 
L 454.421024 99.349893 
L 453.361662 95.926384 
L 452.655856 94.719436 
L 452.668516 93.640895 
L 453.060223 93.051896 
L 453.409438 92.290785 
L 453.521541 90.447314 
L 452.873383 88.348402 
L 450.928784 86.465061 
L 449.504767 84.623446 
L 448.131037 83.426059 
L 446.508882 81.152683 
L 445.886849 79.339989 
L 445.150098 78.974516 
L 442.077217 75.855329 
L 441.162678 74.559464 
L 440.556865 74.199829 
L 439.664229 73.256016 
L 438.963233 72.894807 
L 438.265375 72.175451 
L 438.007336 71.337113 
L 437.214428 70.135076 
L 435.241465 69.104207 
L 432.72983 66.770432 
L 431.646681 65.298755 
L 429.124354 63.979911 
L 428.38831 62.765786 
L 427.373858 62.589503 
L 425.937365 61.855925 
L 425.35281 61.275825 
L 421.304598 58.151934 
L 419.884699 57.35562 
L 417.044081 55.13618 
L 416.838357 54.747309 
L 416.019533 54.373323 
L 414.388063 54.350184 
L 413.20385 53.594512 
L 412.349653 52.642221 
L 409.591555 50.804201 
L 408.318405 50.531801 
L 404.787132 50.70508 
L 402.454525 50.482742 
L 401.997605 50.157014 
L 400.352889 49.441357 
L 398.893155 49.049038 
L 398.327387 48.776475 
L 398.02082 48.384982 
L 396.225635 47.254629 
L 393.550611 48.004666 
L 392.295812 47.581714 
L 392.295812 47.581714 
" clip-path="url(#p6299d8fa98)" style="fill: none; stroke: #2ca02c; stroke-width: 1.5; stroke-linecap: square"/>
   </g>
   <g id="text_3">
    <!-- SRV-jasp -->
    <g transform="translate(381.384007 28.56) scale(0.2 -0.2)">
     <defs>
      <path id="DejaVuSans-6a" d="M 603 3500 
L 1178 3500 
L 1178 -63 
Q 1178 -731 923 -1031 
Q 669 -1331 103 -1331 
L -116 -1331 
L -116 -844 
L 38 -844 
Q 366 -844 484 -692 
Q 603 -541 603 -63 
L 603 3500 
z
M 603 4863 
L 1178 4863 
L 1178 4134 
L 603 4134 
L 603 4863 
z
" transform="scale(0.015625)"/>
      <path id="DejaVuSans-61" d="M 2194 1759 
Q 1497 1759 1228 1600 
Q 959 1441 959 1056 
Q 959 750 1161 570 
Q 1363 391 1709 391 
Q 2188 391 2477 730 
Q 2766 1069 2766 1631 
L 2766 1759 
L 2194 1759 
z
M 3341 1997 
L 3341 0 
L 2766 0 
L 2766 531 
Q 2569 213 2275 61 
Q 1981 -91 1556 -91 
Q 1019 -91 701 211 
Q 384 513 384 1019 
Q 384 1609 779 1909 
Q 1175 2209 1959 2209 
L 2766 2209 
L 2766 2266 
Q 2766 2663 2505 2880 
Q 2244 3097 1772 3097 
Q 1472 3097 1187 3025 
Q 903 2953 641 2809 
L 641 3341 
Q 956 3463 1253 3523 
Q 1550 3584 1831 3584 
Q 2591 3584 2966 3190 
Q 3341 2797 3341 1997 
z
" transform="scale(0.015625)"/>
      <path id="DejaVuSans-73" d="M 2834 3397 
L 2834 2853 
Q 2591 2978 2328 3040 
Q 2066 3103 1784 3103 
Q 1356 3103 1142 2972 
Q 928 2841 928 2578 
Q 928 2378 1081 2264 
Q 1234 2150 1697 2047 
L 1894 2003 
Q 2506 1872 2764 1633 
Q 3022 1394 3022 966 
Q 3022 478 2636 193 
Q 2250 -91 1575 -91 
Q 1294 -91 989 -36 
Q 684 19 347 128 
L 347 722 
Q 666 556 975 473 
Q 1284 391 1588 391 
Q 1994 391 2212 530 
Q 2431 669 2431 922 
Q 2431 1156 2273 1281 
Q 2116 1406 1581 1522 
L 1381 1569 
Q 847 1681 609 1914 
Q 372 2147 372 2553 
Q 372 3047 722 3315 
Q 1072 3584 1716 3584 
Q 2034 3584 2315 3537 
Q 2597 3491 2834 3397 
z
" transform="scale(0.015625)"/>
      <path id="DejaVuSans-70" d="M 1159 525 
L 1159 -1331 
L 581 -1331 
L 581 3500 
L 1159 3500 
L 1159 2969 
Q 1341 3281 1617 3432 
Q 1894 3584 2278 3584 
Q 2916 3584 3314 3078 
Q 3713 2572 3713 1747 
Q 3713 922 3314 415 
Q 2916 -91 2278 -91 
Q 1894 -91 1617 61 
Q 1341 213 1159 525 
z
M 3116 1747 
Q 3116 2381 2855 2742 
Q 2594 3103 2138 3103 
Q 1681 3103 1420 2742 
Q 1159 2381 1159 1747 
Q 1159 1113 1420 752 
Q 1681 391 2138 391 
Q 2594 391 2855 752 
Q 3116 1113 3116 1747 
z
" transform="scale(0.015625)"/>
     </defs>
     <use xlink:href="#DejaVuSans-53"/>
     <use xlink:href="#DejaVuSans-52" x="63.476562"/>
     <use xlink:href="#DejaVuSans-56" x="127.458984"/>
     <use xlink:href="#DejaVuSans-2d" x="189.992188"/>
     <use xlink:href="#DejaVuSans-6a" x="226.076172"/>
     <use xlink:href="#DejaVuSans-61" x="253.859375"/>
     <use xlink:href="#DejaVuSans-73" x="315.138672"/>
     <use xlink:href="#DejaVuSans-70" x="367.238281"/>
    </g>
   </g>
  </g>
  <g id="axes_4">
   <g id="line2d_4">
    <path d="M 107.736085 161.88908 
L 106.961651 163.209046 
L 106.045064 164.460816 
L 103.816036 166.318925 
L 102.838944 167.290949 
L 100.339344 170.731983 
L 97.790119 173.658827 
L 96.037466 175.999747 
L 92.656592 182.002248 
L 92.115926 183.368389 
L 90.40701 187.058259 
L 88.462553 192.099259 
L 87.76751 194.717861 
L 87.319988 197.212886 
L 86.790021 201.038201 
L 86.861486 202.298023 
L 86.804347 206.540522 
L 86.850106 209.646341 
L 88.220273 217.164129 
L 90.083002 222.972343 
L 91.185426 225.707106 
L 91.557359 227.028567 
L 92.690402 229.218773 
L 93.923019 231.71426 
L 98.131971 237.70282 
L 100.181104 239.671503 
L 102.151257 241.765949 
L 104.220322 243.406332 
L 109.740431 247.071382 
L 115.878936 249.520006 
L 119.769846 250.772109 
L 124.60934 251.563172 
L 127.527465 251.738182 
L 128.886391 251.585385 
L 131.438347 251.659272 
L 134.397064 251.175967 
L 135.724472 251.216305 
L 139.53735 250.771357 
L 142.400706 250.149657 
L 145.058266 249.384523 
L 147.456214 248.505622 
L 149.793161 247.394526 
L 154.084452 244.572651 
L 155.019256 243.882845 
L 156.834196 242.11829 
L 157.860774 241.082299 
L 159.892895 239.269731 
L 160.727106 238.299405 
L 162.621492 236.462436 
L 164.475032 234.408317 
L 167.113305 229.802271 
L 168.178586 227.42187 
L 168.914182 224.951767 
L 169.905275 221.234346 
L 170.989307 213.457591 
L 171.351867 207.090288 
L 171.152825 204.521223 
L 169.801939 197.828004 
L 168.729009 195.099234 
L 166.919889 190.577325 
L 164.614747 186.404561 
L 163.079388 183.942675 
L 161.236851 181.607799 
L 155.875199 175.479094 
L 152.648053 172.663712 
L 150.328322 170.927755 
L 147.960985 169.387842 
L 140.343994 165.428206 
L 135.109476 163.208707 
L 132.712397 162.297104 
L 131.487325 161.968577 
L 127.199949 161.409862 
L 124.396195 160.850203 
L 123.138764 160.774287 
L 120.500387 160.906556 
L 119.09057 160.841107 
L 117.691975 160.664275 
L 114.957684 160.101818 
L 110.606019 160.227852 
L 110.606019 160.227852 
" clip-path="url(#pd38f5ab82e)" style="fill: none; stroke: #1f77b4; stroke-width: 1.5; stroke-linecap: square"/>
   </g>
   <g id="text_4">
    <!-- Linear-control -->
    <g transform="translate(60.336305 149.52) scale(0.2 -0.2)">
     <defs>
      <path id="DejaVuSans-4c" d="M 628 4666 
L 1259 4666 
L 1259 531 
L 3531 531 
L 3531 0 
L 628 0 
L 628 4666 
z
" transform="scale(0.015625)"/>
      <path id="DejaVuSans-69" d="M 603 3500 
L 1178 3500 
L 1178 0 
L 603 0 
L 603 3500 
z
M 603 4863 
L 1178 4863 
L 1178 4134 
L 603 4134 
L 603 4863 
z
" transform="scale(0.015625)"/>
      <path id="DejaVuSans-65" d="M 3597 1894 
L 3597 1613 
L 953 1613 
Q 991 1019 1311 708 
Q 1631 397 2203 397 
Q 2534 397 2845 478 
Q 3156 559 3463 722 
L 3463 178 
Q 3153 47 2828 -22 
Q 2503 -91 2169 -91 
Q 1331 -91 842 396 
Q 353 884 353 1716 
Q 353 2575 817 3079 
Q 1281 3584 2069 3584 
Q 2775 3584 3186 3129 
Q 3597 2675 3597 1894 
z
M 3022 2063 
Q 3016 2534 2758 2815 
Q 2500 3097 2075 3097 
Q 1594 3097 1305 2825 
Q 1016 2553 972 2059 
L 3022 2063 
z
" transform="scale(0.015625)"/>
     </defs>
     <use xlink:href="#DejaVuSans-4c"/>
     <use xlink:href="#DejaVuSans-69" x="55.712891"/>
     <use xlink:href="#DejaVuSans-6e" x="83.496094"/>
     <use xlink:href="#DejaVuSans-65" x="146.875"/>
     <use xlink:href="#DejaVuSans-61" x="208.398438"/>
     <use xlink:href="#DejaVuSans-72" x="269.677734"/>
     <use xlink:href="#DejaVuSans-2d" x="304.416016"/>
     <use xlink:href="#DejaVuSans-63" x="340.5"/>
     <use xlink:href="#DejaVuSans-6f" x="395.480469"/>
     <use xlink:href="#DejaVuSans-6e" x="456.662109"/>
     <use xlink:href="#DejaVuSans-74" x="520.041016"/>
     <use xlink:href="#DejaVuSans-72" x="559.25"/>
     <use xlink:href="#DejaVuSans-6f" x="598.113281"/>
     <use xlink:href="#DejaVuSans-6c" x="659.294922"/>
    </g>
   </g>
  </g>
  <g id="axes_5">
   <g id="line2d_5">
    <path d="M 254.10106 161.488964 
L 254.118688 163.233713 
L 253.751696 166.678022 
L 253.319991 169.594116 
L 252.620743 176.436078 
L 252.274136 177.851983 
L 251.70042 179.379444 
L 250.936973 180.763323 
L 249.972222 183.661461 
L 249.006653 184.852724 
L 248.418904 186.117188 
L 247.638557 187.37844 
L 247.253883 188.620357 
L 246.677284 189.814226 
L 244.286298 193.815542 
L 243.220806 196.10197 
L 242.478244 197.352599 
L 241.884382 199.593003 
L 241.744539 200.956563 
L 241.43743 202.260814 
L 241.005597 206.104794 
L 241.210811 208.595467 
L 240.52043 213.817105 
L 240.229475 215.031772 
L 240.116938 216.101753 
L 240.219221 218.639295 
L 240.515756 219.818553 
L 240.586469 221.090885 
L 240.580824 223.707628 
L 242.760976 228.412734 
L 244.601629 231.098528 
L 245.474668 232.032241 
L 247.608868 235.137391 
L 249.86573 237.682673 
L 252.143343 239.809353 
L 254.02874 241.279706 
L 255.973306 242.301251 
L 256.834231 242.999582 
L 259.896177 244.63989 
L 265.979749 248.826341 
L 267.001826 249.114096 
L 269.97771 250.579876 
L 272.459782 250.986712 
L 273.491781 251.556654 
L 274.644032 251.657564 
L 275.892745 251.617654 
L 277.108742 251.738182 
L 279.827569 251.380415 
L 282.490765 251.1582 
L 283.745577 250.856161 
L 286.369694 250.565487 
L 288.501024 250.560768 
L 289.49668 250.41032 
L 290.700867 250.417046 
L 291.949655 249.959367 
L 294.794715 249.525099 
L 296.917943 248.741861 
L 301.571732 245.579661 
L 302.76204 244.178798 
L 303.518316 243.556828 
L 304.581462 241.973456 
L 306.431425 240.482994 
L 308.40777 237.676577 
L 310.141578 233.802624 
L 310.723921 230.153456 
L 311.149761 229.085007 
L 311.486475 227.772485 
L 312.519733 225.1808 
L 313.000373 224.152316 
L 313.060756 222.925756 
L 313.383062 221.645715 
L 313.348737 220.429295 
L 312.882061 218.144829 
L 312.33097 215.671533 
L 312.068959 214.412798 
L 312.082026 213.353335 
L 311.443272 209.412516 
L 310.979926 208.305791 
L 310.888344 206.896599 
L 310.475233 205.669798 
L 309.743451 204.224568 
L 308.423132 200.66588 
L 306.861394 197.473429 
L 306.173606 196.508308 
L 305.038667 194.406608 
L 304.38962 193.424723 
L 303.746356 192.694587 
L 302.727539 191.865266 
L 301.940292 190.78555 
L 300.952772 189.969406 
L 299.712927 189.155211 
L 297.431441 187.331753 
L 296.184624 186.667177 
L 293.710561 185.052288 
L 292.575776 184.086422 
L 290.663775 181.98489 
L 289.463933 181.051386 
L 285.520593 178.958059 
L 284.402657 178.46606 
L 281.903918 176.997834 
L 280.714437 176.641991 
L 279.536708 176.088877 
L 278.229142 175.632286 
L 277.025214 174.976407 
L 274.239432 173.021617 
L 269.156752 169.684454 
L 266.591008 168.46638 
L 264.123322 166.769741 
L 261.394435 164.896546 
L 257.221062 161.477568 
L 255.891758 160.101818 
L 255.891758 160.101818 
" clip-path="url(#pd631a7e7a6)" style="fill: none; stroke: #ff7f0e; stroke-width: 1.5; stroke-linecap: square"/>
   </g>
   <g id="text_5">
    <!-- Linear-cytd -->
    <g transform="translate(221.014062 149.52) scale(0.2 -0.2)">
     <use xlink:href="#DejaVuSans-4c"/>
     <use xlink:href="#DejaVuSans-69" x="55.712891"/>
     <use xlink:href="#DejaVuSans-6e" x="83.496094"/>
     <use xlink:href="#DejaVuSans-65" x="146.875"/>
     <use xlink:href="#DejaVuSans-61" x="208.398438"/>
     <use xlink:href="#DejaVuSans-72" x="269.677734"/>
     <use xlink:href="#DejaVuSans-2d" x="304.416016"/>
     <use xlink:href="#DejaVuSans-63" x="340.5"/>
     <use xlink:href="#DejaVuSans-79" x="395.480469"/>
     <use xlink:href="#DejaVuSans-74" x="454.660156"/>
     <use xlink:href="#DejaVuSans-64" x="493.869141"/>
    </g>
   </g>
  </g>
  <g id="axes_6">
   <g id="line2d_6">
    <path d="M 405.219728 161.334235 
L 403.247768 163.300316 
L 402.555921 164.384109 
L 398.381093 169.653047 
L 396.158266 172.864994 
L 395.487169 174.022555 
L 395.076153 175.22227 
L 393.392212 178.807773 
L 392.36341 181.572427 
L 390.506004 185.046194 
L 389.312255 187.839993 
L 387.467319 194.559635 
L 387.489981 196.012286 
L 387.359342 197.274815 
L 387.313095 200.138233 
L 387.189126 203.982999 
L 387.264484 206.732706 
L 387.647524 209.182181 
L 387.917865 210.241078 
L 388.387814 212.823534 
L 388.755881 214.085874 
L 388.910384 215.364907 
L 390.046775 219.014514 
L 390.659945 220.190565 
L 390.906065 221.443091 
L 391.529847 222.63355 
L 392.024171 223.936641 
L 392.675034 225.241845 
L 393.47155 227.44717 
L 394.678405 230.263157 
L 395.378614 231.30876 
L 395.863044 232.409374 
L 396.517187 233.51049 
L 397.416714 234.488917 
L 400.58383 238.804017 
L 401.262263 239.976957 
L 402.701135 241.869114 
L 404.533192 243.65594 
L 406.507786 244.927343 
L 408.823996 246.277999 
L 410.928019 247.756291 
L 413.190584 248.65032 
L 415.740461 249.480045 
L 417.958084 250.594546 
L 419.182847 251.188601 
L 420.488582 251.538321 
L 421.771623 251.535036 
L 423.051466 251.738182 
L 427.636537 251.26403 
L 430.468602 251.291664 
L 431.884848 251.140649 
L 434.42362 250.469729 
L 435.594946 250.253046 
L 438.160545 249.390315 
L 441.05844 248.46478 
L 442.341581 247.876002 
L 445.81333 245.532536 
L 447.0706 244.942106 
L 449.831257 242.810174 
L 452.570554 240.444458 
L 454.075615 238.389984 
L 455.633667 236.465779 
L 456.355994 235.298862 
L 457.365713 234.043603 
L 458.410888 231.668508 
L 458.80456 230.419768 
L 459.259453 229.484732 
L 460.348007 225.802415 
L 460.809139 223.760273 
L 461.107178 222.823736 
L 461.343517 220.513459 
L 461.67991 219.447203 
L 461.722639 217.417475 
L 461.710644 215.05286 
L 461.709555 213.9664 
L 461.265008 211.755128 
L 461.39484 210.570004 
L 461.272826 207.825064 
L 460.803948 203.827098 
L 460.662274 202.400451 
L 459.765152 198.763914 
L 458.500995 196.238079 
L 457.638806 194.166589 
L 456.196697 191.524029 
L 455.647429 190.090507 
L 454.111617 187.462504 
L 451.803152 184.242805 
L 448.944253 179.653383 
L 448.283858 178.830131 
L 445.696495 176.565235 
L 443.819015 175.153477 
L 442.98244 174.268994 
L 436.332599 169.412617 
L 430.444328 165.833837 
L 428.167711 164.682392 
L 426.978093 164.116263 
L 423.011162 162.657194 
L 421.796571 162.380802 
L 420.435874 161.945227 
L 417.446976 161.448959 
L 413.506967 160.80913 
L 411.061631 160.436797 
L 409.520603 160.536516 
L 406.947912 160.101818 
L 406.947912 160.101818 
" clip-path="url(#pe93bb34fb3)" style="fill: none; stroke: #2ca02c; stroke-width: 1.5; stroke-linecap: square"/>
   </g>
   <g id="text_6">
    <!-- Linear-jasp -->
    <g transform="translate(369.94182 149.52) scale(0.2 -0.2)">
     <use xlink:href="#DejaVuSans-4c"/>
     <use xlink:href="#DejaVuSans-69" x="55.712891"/>
     <use xlink:href="#DejaVuSans-6e" x="83.496094"/>
     <use xlink:href="#DejaVuSans-65" x="146.875"/>
     <use xlink:href="#DejaVuSans-61" x="208.398438"/>
     <use xlink:href="#DejaVuSans-72" x="269.677734"/>
     <use xlink:href="#DejaVuSans-2d" x="304.416016"/>
     <use xlink:href="#DejaVuSans-6a" x="340.5"/>
     <use xlink:href="#DejaVuSans-61" x="368.283203"/>
     <use xlink:href="#DejaVuSans-73" x="429.5625"/>
     <use xlink:href="#DejaVuSans-70" x="481.662109"/>
    </g>
   </g>
  </g>
 </g>
 <defs>
  <clipPath id="p185af0dbea">
   <rect x="67.5" y="34.56" width="123.088235" height="100.8"/>
  </clipPath>
  <clipPath id="p583e086a76">
   <rect x="215.205882" y="34.56" width="123.088235" height="100.8"/>
  </clipPath>
  <clipPath id="p6299d8fa98">
   <rect x="362.911765" y="34.56" width="123.088235" height="100.8"/>
  </clipPath>
  <clipPath id="pd38f5ab82e">
   <rect x="67.5" y="155.52" width="123.088235" height="100.8"/>
  </clipPath>
  <clipPath id="pd631a7e7a6">
   <rect x="215.205882" y="155.52" width="123.088235" height="100.8"/>
  </clipPath>
  <clipPath id="pe93bb34fb3">
   <rect x="362.911765" y="155.52" width="123.088235" height="100.8"/>
  </clipPath>
 </defs>
</svg>
