<?xml version="1.0" encoding="utf-8" standalone="no"?>
<!DOCTYPE svg PUBLIC "-//W3C//DTD SVG 1.1//EN"
  "http://www.w3.org/Graphics/SVG/1.1/DTD/svg11.dtd">
<svg xmlns:xlink="http://www.w3.org/1999/xlink" width="576pt" height="288pt" viewBox="0 0 576 288" xmlns="http://www.w3.org/2000/svg" version="1.1">
 <metadata>
  <rdf:RDF xmlns:dc="http://purl.org/dc/elements/1.1/" xmlns:cc="http://creativecommons.org/ns#" xmlns:rdf="http://www.w3.org/1999/02/22-rdf-syntax-ns#">
   <cc:Work>
    <dc:type rdf:resource="http://purl.org/dc/dcmitype/StillImage"/>
    <dc:date>2024-04-04T11:08:18.059536</dc:date>
    <dc:format>image/svg+xml</dc:format>
    <dc:creator>
     <cc:Agent>
      <dc:title>Matplotlib v3.8.3, https://matplotlib.org/</dc:title>
     </cc:Agent>
    </dc:creator>
   </cc:Work>
  </rdf:RDF>
 </metadata>
 <defs>
  <style type="text/css">*{stroke-linejoin: round; stroke-linecap: butt}</style>
 </defs>
 <g id="figure_1">
  <g id="patch_1">
   <path d="M 0 288 
L 576 288 
L 576 0 
L 0 0 
z
" style="fill: #ffffff"/>
  </g>
  <g id="axes_1">
   <g id="patch_2">
    <path d="M 41.711875 260.521875 
L 284.529831 260.521875 
L 284.529831 27.437812 
L 41.711875 27.437812 
z
" style="fill: #ffffff"/>
   </g>
   <g id="patch_3">
    <path d="M 41.711875 260.521875 
L 50.920451 260.521875 
L 50.920451 197.09764 
L 41.711875 197.09764 
z
" clip-path="url(#p512ca6c17d)" style="fill: #1f77b4; opacity: 0.4"/>
   </g>
   <g id="patch_4">
    <path d="M 50.920451 260.521875 
L 60.129026 260.521875 
L 60.129026 133.673406 
L 50.920451 133.673406 
z
" clip-path="url(#p512ca6c17d)" style="fill: #1f77b4; opacity: 0.4"/>
   </g>
   <g id="patch_5">
    <path d="M 60.129026 260.521875 
L 69.337602 260.521875 
L 69.337602 70.249171 
L 60.129026 70.249171 
z
" clip-path="url(#p512ca6c17d)" style="fill: #1f77b4; opacity: 0.4"/>
   </g>
   <g id="patch_6">
    <path d="M 69.337602 260.521875 
L 78.546177 260.521875 
L 78.546177 38.537054 
L 69.337602 38.537054 
z
" clip-path="url(#p512ca6c17d)" style="fill: #1f77b4; opacity: 0.4"/>
   </g>
   <g id="patch_7">
    <path d="M 78.546177 260.521875 
L 87.754753 260.521875 
L 87.754753 154.814817 
L 78.546177 154.814817 
z
" clip-path="url(#p512ca6c17d)" style="fill: #1f77b4; opacity: 0.4"/>
   </g>
   <g id="patch_8">
    <path d="M 87.754753 260.521875 
L 96.963329 260.521875 
L 96.963329 133.673406 
L 87.754753 133.673406 
z
" clip-path="url(#p512ca6c17d)" style="fill: #1f77b4; opacity: 0.4"/>
   </g>
   <g id="patch_9">
    <path d="M 96.963329 260.521875 
L 106.171904 260.521875 
L 106.171904 175.956229 
L 96.963329 175.956229 
z
" clip-path="url(#p512ca6c17d)" style="fill: #1f77b4; opacity: 0.4"/>
   </g>
   <g id="patch_10">
    <path d="M 106.171904 260.521875 
L 115.38048 260.521875 
L 115.38048 186.526935 
L 106.171904 186.526935 
z
" clip-path="url(#p512ca6c17d)" style="fill: #1f77b4; opacity: 0.4"/>
   </g>
   <g id="patch_11">
    <path d="M 115.38048 260.521875 
L 124.589056 260.521875 
L 124.589056 218.239052 
L 115.38048 218.239052 
z
" clip-path="url(#p512ca6c17d)" style="fill: #1f77b4; opacity: 0.4"/>
   </g>
   <g id="patch_12">
    <path d="M 124.589056 260.521875 
L 133.797631 260.521875 
L 133.797631 239.380463 
L 124.589056 239.380463 
z
" clip-path="url(#p512ca6c17d)" style="fill: #1f77b4; opacity: 0.4"/>
   </g>
   <g id="patch_13">
    <path d="M 133.797631 260.521875 
L 143.006207 260.521875 
L 143.006207 218.239052 
L 133.797631 218.239052 
z
" clip-path="url(#p512ca6c17d)" style="fill: #1f77b4; opacity: 0.4"/>
   </g>
   <g id="patch_14">
    <path d="M 143.006207 260.521875 
L 152.214782 260.521875 
L 152.214782 239.380463 
L 143.006207 239.380463 
z
" clip-path="url(#p512ca6c17d)" style="fill: #1f77b4; opacity: 0.4"/>
   </g>
   <g id="patch_15">
    <path d="M 152.214782 260.521875 
L 161.423358 260.521875 
L 161.423358 249.951169 
L 152.214782 249.951169 
z
" clip-path="url(#p512ca6c17d)" style="fill: #1f77b4; opacity: 0.4"/>
   </g>
   <g id="patch_16">
    <path d="M 161.423358 260.521875 
L 170.631934 260.521875 
L 170.631934 239.380463 
L 161.423358 239.380463 
z
" clip-path="url(#p512ca6c17d)" style="fill: #1f77b4; opacity: 0.4"/>
   </g>
   <g id="patch_17">
    <path d="M 170.631934 260.521875 
L 179.840509 260.521875 
L 179.840509 260.521875 
L 170.631934 260.521875 
z
" clip-path="url(#p512ca6c17d)" style="fill: #1f77b4; opacity: 0.4"/>
   </g>
   <g id="patch_18">
    <path d="M 179.840509 260.521875 
L 189.049085 260.521875 
L 189.049085 239.380463 
L 179.840509 239.380463 
z
" clip-path="url(#p512ca6c17d)" style="fill: #1f77b4; opacity: 0.4"/>
   </g>
   <g id="patch_19">
    <path d="M 189.049085 260.521875 
L 198.25766 260.521875 
L 198.25766 239.380463 
L 189.049085 239.380463 
z
" clip-path="url(#p512ca6c17d)" style="fill: #1f77b4; opacity: 0.4"/>
   </g>
   <g id="patch_20">
    <path d="M 198.25766 260.521875 
L 207.466236 260.521875 
L 207.466236 260.521875 
L 198.25766 260.521875 
z
" clip-path="url(#p512ca6c17d)" style="fill: #1f77b4; opacity: 0.4"/>
   </g>
   <g id="patch_21">
    <path d="M 207.466236 260.521875 
L 216.674812 260.521875 
L 216.674812 260.521875 
L 207.466236 260.521875 
z
" clip-path="url(#p512ca6c17d)" style="fill: #1f77b4; opacity: 0.4"/>
   </g>
   <g id="patch_22">
    <path d="M 216.674812 260.521875 
L 225.883387 260.521875 
L 225.883387 249.951169 
L 216.674812 249.951169 
z
" clip-path="url(#p512ca6c17d)" style="fill: #1f77b4; opacity: 0.4"/>
   </g>
   <g id="patch_23">
    <path d="M 67.163241 260.521875 
L 77.972968 260.521875 
L 77.972968 248.002786 
L 67.163241 248.002786 
z
" clip-path="url(#p512ca6c17d)" style="fill: #ff7f0e; opacity: 0.4"/>
   </g>
   <g id="patch_24">
    <path d="M 77.972968 260.521875 
L 88.782694 260.521875 
L 88.782694 235.483696 
L 77.972968 235.483696 
z
" clip-path="url(#p512ca6c17d)" style="fill: #ff7f0e; opacity: 0.4"/>
   </g>
   <g id="patch_25">
    <path d="M 88.782694 260.521875 
L 99.592421 260.521875 
L 99.592421 235.483696 
L 88.782694 235.483696 
z
" clip-path="url(#p512ca6c17d)" style="fill: #ff7f0e; opacity: 0.4"/>
   </g>
   <g id="patch_26">
    <path d="M 99.592421 260.521875 
L 110.402147 260.521875 
L 110.402147 160.36916 
L 99.592421 160.36916 
z
" clip-path="url(#p512ca6c17d)" style="fill: #ff7f0e; opacity: 0.4"/>
   </g>
   <g id="patch_27">
    <path d="M 110.402147 260.521875 
L 121.211874 260.521875 
L 121.211874 197.926428 
L 110.402147 197.926428 
z
" clip-path="url(#p512ca6c17d)" style="fill: #ff7f0e; opacity: 0.4"/>
   </g>
   <g id="patch_28">
    <path d="M 121.211874 260.521875 
L 132.0216 260.521875 
L 132.0216 210.445518 
L 121.211874 210.445518 
z
" clip-path="url(#p512ca6c17d)" style="fill: #ff7f0e; opacity: 0.4"/>
   </g>
   <g id="patch_29">
    <path d="M 132.0216 260.521875 
L 142.831327 260.521875 
L 142.831327 147.850071 
L 132.0216 147.850071 
z
" clip-path="url(#p512ca6c17d)" style="fill: #ff7f0e; opacity: 0.4"/>
   </g>
   <g id="patch_30">
    <path d="M 142.831327 260.521875 
L 153.641053 260.521875 
L 153.641053 160.36916 
L 142.831327 160.36916 
z
" clip-path="url(#p512ca6c17d)" style="fill: #ff7f0e; opacity: 0.4"/>
   </g>
   <g id="patch_31">
    <path d="M 153.641053 260.521875 
L 164.45078 260.521875 
L 164.45078 172.88825 
L 153.641053 172.88825 
z
" clip-path="url(#p512ca6c17d)" style="fill: #ff7f0e; opacity: 0.4"/>
   </g>
   <g id="patch_32">
    <path d="M 164.45078 260.521875 
L 175.260506 260.521875 
L 175.260506 135.330982 
L 164.45078 135.330982 
z
" clip-path="url(#p512ca6c17d)" style="fill: #ff7f0e; opacity: 0.4"/>
   </g>
   <g id="patch_33">
    <path d="M 175.260506 260.521875 
L 186.070232 260.521875 
L 186.070232 222.964607 
L 175.260506 222.964607 
z
" clip-path="url(#p512ca6c17d)" style="fill: #ff7f0e; opacity: 0.4"/>
   </g>
   <g id="patch_34">
    <path d="M 186.070232 260.521875 
L 196.879959 260.521875 
L 196.879959 222.964607 
L 186.070232 222.964607 
z
" clip-path="url(#p512ca6c17d)" style="fill: #ff7f0e; opacity: 0.4"/>
   </g>
   <g id="patch_35">
    <path d="M 196.879959 260.521875 
L 207.689685 260.521875 
L 207.689685 210.445518 
L 196.879959 210.445518 
z
" clip-path="url(#p512ca6c17d)" style="fill: #ff7f0e; opacity: 0.4"/>
   </g>
   <g id="patch_36">
    <path d="M 207.689685 260.521875 
L 218.499412 260.521875 
L 218.499412 260.521875 
L 207.689685 260.521875 
z
" clip-path="url(#p512ca6c17d)" style="fill: #ff7f0e; opacity: 0.4"/>
   </g>
   <g id="patch_37">
    <path d="M 218.499412 260.521875 
L 229.309138 260.521875 
L 229.309138 197.926428 
L 218.499412 197.926428 
z
" clip-path="url(#p512ca6c17d)" style="fill: #ff7f0e; opacity: 0.4"/>
   </g>
   <g id="patch_38">
    <path d="M 229.309138 260.521875 
L 240.118865 260.521875 
L 240.118865 210.445518 
L 229.309138 210.445518 
z
" clip-path="url(#p512ca6c17d)" style="fill: #ff7f0e; opacity: 0.4"/>
   </g>
   <g id="patch_39">
    <path d="M 240.118865 260.521875 
L 250.928591 260.521875 
L 250.928591 260.521875 
L 240.118865 260.521875 
z
" clip-path="url(#p512ca6c17d)" style="fill: #ff7f0e; opacity: 0.4"/>
   </g>
   <g id="patch_40">
    <path d="M 250.928591 260.521875 
L 261.738318 260.521875 
L 261.738318 222.964607 
L 250.928591 222.964607 
z
" clip-path="url(#p512ca6c17d)" style="fill: #ff7f0e; opacity: 0.4"/>
   </g>
   <g id="patch_41">
    <path d="M 261.738318 260.521875 
L 272.548044 260.521875 
L 272.548044 260.521875 
L 261.738318 260.521875 
z
" clip-path="url(#p512ca6c17d)" style="fill: #ff7f0e; opacity: 0.4"/>
   </g>
   <g id="patch_42">
    <path d="M 272.548044 260.521875 
L 283.357771 260.521875 
L 283.357771 210.445518 
L 272.548044 210.445518 
z
" clip-path="url(#p512ca6c17d)" style="fill: #ff7f0e; opacity: 0.4"/>
   </g>
   <g id="patch_43">
    <path d="M 55.317789 260.521875 
L 64.393281 260.521875 
L 64.393281 221.078922 
L 55.317789 221.078922 
z
" clip-path="url(#p512ca6c17d)" style="fill: #2ca02c; opacity: 0.4"/>
   </g>
   <g id="patch_44">
    <path d="M 64.393281 260.521875 
L 73.468773 260.521875 
L 73.468773 161.914493 
L 64.393281 161.914493 
z
" clip-path="url(#p512ca6c17d)" style="fill: #2ca02c; opacity: 0.4"/>
   </g>
   <g id="patch_45">
    <path d="M 73.468773 260.521875 
L 82.544265 260.521875 
L 82.544265 83.028587 
L 73.468773 83.028587 
z
" clip-path="url(#p512ca6c17d)" style="fill: #2ca02c; opacity: 0.4"/>
   </g>
   <g id="patch_46">
    <path d="M 82.544265 260.521875 
L 91.619757 260.521875 
L 91.619757 43.585634 
L 82.544265 43.585634 
z
" clip-path="url(#p512ca6c17d)" style="fill: #2ca02c; opacity: 0.4"/>
   </g>
   <g id="patch_47">
    <path d="M 91.619757 260.521875 
L 100.695249 260.521875 
L 100.695249 142.193016 
L 91.619757 142.193016 
z
" clip-path="url(#p512ca6c17d)" style="fill: #2ca02c; opacity: 0.4"/>
   </g>
   <g id="patch_48">
    <path d="M 100.695249 260.521875 
L 109.770742 260.521875 
L 109.770742 161.914493 
L 100.695249 161.914493 
z
" clip-path="url(#p512ca6c17d)" style="fill: #2ca02c; opacity: 0.4"/>
   </g>
   <g id="patch_49">
    <path d="M 109.770742 260.521875 
L 118.846234 260.521875 
L 118.846234 240.800399 
L 109.770742 240.800399 
z
" clip-path="url(#p512ca6c17d)" style="fill: #2ca02c; opacity: 0.4"/>
   </g>
   <g id="patch_50">
    <path d="M 118.846234 260.521875 
L 127.921726 260.521875 
L 127.921726 221.078922 
L 118.846234 221.078922 
z
" clip-path="url(#p512ca6c17d)" style="fill: #2ca02c; opacity: 0.4"/>
   </g>
   <g id="patch_51">
    <path d="M 127.921726 260.521875 
L 136.997218 260.521875 
L 136.997218 221.078922 
L 127.921726 221.078922 
z
" clip-path="url(#p512ca6c17d)" style="fill: #2ca02c; opacity: 0.4"/>
   </g>
   <g id="patch_52">
    <path d="M 136.997218 260.521875 
L 146.07271 260.521875 
L 146.07271 181.635969 
L 136.997218 181.635969 
z
" clip-path="url(#p512ca6c17d)" style="fill: #2ca02c; opacity: 0.4"/>
   </g>
   <g id="patch_53">
    <path d="M 146.07271 260.521875 
L 155.148202 260.521875 
L 155.148202 221.078922 
L 146.07271 221.078922 
z
" clip-path="url(#p512ca6c17d)" style="fill: #2ca02c; opacity: 0.4"/>
   </g>
   <g id="patch_54">
    <path d="M 155.148202 260.521875 
L 164.223694 260.521875 
L 164.223694 260.521875 
L 155.148202 260.521875 
z
" clip-path="url(#p512ca6c17d)" style="fill: #2ca02c; opacity: 0.4"/>
   </g>
   <g id="patch_55">
    <path d="M 164.223694 260.521875 
L 173.299186 260.521875 
L 173.299186 240.800399 
L 164.223694 240.800399 
z
" clip-path="url(#p512ca6c17d)" style="fill: #2ca02c; opacity: 0.4"/>
   </g>
   <g id="patch_56">
    <path d="M 173.299186 260.521875 
L 182.374678 260.521875 
L 182.374678 181.635969 
L 173.299186 181.635969 
z
" clip-path="url(#p512ca6c17d)" style="fill: #2ca02c; opacity: 0.4"/>
   </g>
   <g id="patch_57">
    <path d="M 182.374678 260.521875 
L 191.45017 260.521875 
L 191.45017 201.357446 
L 182.374678 201.357446 
z
" clip-path="url(#p512ca6c17d)" style="fill: #2ca02c; opacity: 0.4"/>
   </g>
   <g id="patch_58">
    <path d="M 191.45017 260.521875 
L 200.525662 260.521875 
L 200.525662 260.521875 
L 191.45017 260.521875 
z
" clip-path="url(#p512ca6c17d)" style="fill: #2ca02c; opacity: 0.4"/>
   </g>
   <g id="patch_59">
    <path d="M 200.525662 260.521875 
L 209.601154 260.521875 
L 209.601154 221.078922 
L 200.525662 221.078922 
z
" clip-path="url(#p512ca6c17d)" style="fill: #2ca02c; opacity: 0.4"/>
   </g>
   <g id="patch_60">
    <path d="M 209.601154 260.521875 
L 218.676646 260.521875 
L 218.676646 240.800399 
L 209.601154 240.800399 
z
" clip-path="url(#p512ca6c17d)" style="fill: #2ca02c; opacity: 0.4"/>
   </g>
   <g id="patch_61">
    <path d="M 218.676646 260.521875 
L 227.752138 260.521875 
L 227.752138 240.800399 
L 218.676646 240.800399 
z
" clip-path="url(#p512ca6c17d)" style="fill: #2ca02c; opacity: 0.4"/>
   </g>
   <g id="patch_62">
    <path d="M 227.752138 260.521875 
L 236.82763 260.521875 
L 236.82763 240.800399 
L 227.752138 240.800399 
z
" clip-path="url(#p512ca6c17d)" style="fill: #2ca02c; opacity: 0.4"/>
   </g>
   <g id="matplotlib.axis_1">
    <g id="xtick_1">
     <g id="line2d_1">
      <defs>
       <path id="m8dbcb9bf63" d="M 0 0 
L 0 3.5 
" style="stroke: #000000; stroke-width: 0.8"/>
      </defs>
      <g>
       <use xlink:href="#m8dbcb9bf63" x="43.2479" y="260.521875" style="stroke: #000000; stroke-width: 0.8"/>
      </g>
     </g>
     <g id="text_1">
      <!-- 0.4 -->
      <g transform="translate(35.296338 275.120313) scale(0.1 -0.1)">
       <defs>
        <path id="DejaVuSans-30" d="M 2034 4250 
Q 1547 4250 1301 3770 
Q 1056 3291 1056 2328 
Q 1056 1369 1301 889 
Q 1547 409 2034 409 
Q 2525 409 2770 889 
Q 3016 1369 3016 2328 
Q 3016 3291 2770 3770 
Q 2525 4250 2034 4250 
z
M 2034 4750 
Q 2819 4750 3233 4129 
Q 3647 3509 3647 2328 
Q 3647 1150 3233 529 
Q 2819 -91 2034 -91 
Q 1250 -91 836 529 
Q 422 1150 422 2328 
Q 422 3509 836 4129 
Q 1250 4750 2034 4750 
z
" transform="scale(0.015625)"/>
        <path id="DejaVuSans-2e" d="M 684 794 
L 1344 794 
L 1344 0 
L 684 0 
L 684 794 
z
" transform="scale(0.015625)"/>
        <path id="DejaVuSans-34" d="M 2419 4116 
L 825 1625 
L 2419 1625 
L 2419 4116 
z
M 2253 4666 
L 3047 4666 
L 3047 1625 
L 3713 1625 
L 3713 1100 
L 3047 1100 
L 3047 0 
L 2419 0 
L 2419 1100 
L 313 1100 
L 313 1709 
L 2253 4666 
z
" transform="scale(0.015625)"/>
       </defs>
       <use xlink:href="#DejaVuSans-30"/>
       <use xlink:href="#DejaVuSans-2e" x="63.623047"/>
       <use xlink:href="#DejaVuSans-34" x="95.410156"/>
      </g>
     </g>
    </g>
    <g id="xtick_2">
     <g id="line2d_2">
      <g>
       <use xlink:href="#m8dbcb9bf63" x="83.072888" y="260.521875" style="stroke: #000000; stroke-width: 0.8"/>
      </g>
     </g>
     <g id="text_2">
      <!-- 0.5 -->
      <g transform="translate(75.121325 275.120313) scale(0.1 -0.1)">
       <defs>
        <path id="DejaVuSans-35" d="M 691 4666 
L 3169 4666 
L 3169 4134 
L 1269 4134 
L 1269 2991 
Q 1406 3038 1543 3061 
Q 1681 3084 1819 3084 
Q 2600 3084 3056 2656 
Q 3513 2228 3513 1497 
Q 3513 744 3044 326 
Q 2575 -91 1722 -91 
Q 1428 -91 1123 -41 
Q 819 9 494 109 
L 494 744 
Q 775 591 1075 516 
Q 1375 441 1709 441 
Q 2250 441 2565 725 
Q 2881 1009 2881 1497 
Q 2881 1984 2565 2268 
Q 2250 2553 1709 2553 
Q 1456 2553 1204 2497 
Q 953 2441 691 2322 
L 691 4666 
z
" transform="scale(0.015625)"/>
       </defs>
       <use xlink:href="#DejaVuSans-30"/>
       <use xlink:href="#DejaVuSans-2e" x="63.623047"/>
       <use xlink:href="#DejaVuSans-35" x="95.410156"/>
      </g>
     </g>
    </g>
    <g id="xtick_3">
     <g id="line2d_3">
      <g>
       <use xlink:href="#m8dbcb9bf63" x="122.897875" y="260.521875" style="stroke: #000000; stroke-width: 0.8"/>
      </g>
     </g>
     <g id="text_3">
      <!-- 0.6 -->
      <g transform="translate(114.946312 275.120313) scale(0.1 -0.1)">
       <defs>
        <path id="DejaVuSans-36" d="M 2113 2584 
Q 1688 2584 1439 2293 
Q 1191 2003 1191 1497 
Q 1191 994 1439 701 
Q 1688 409 2113 409 
Q 2538 409 2786 701 
Q 3034 994 3034 1497 
Q 3034 2003 2786 2293 
Q 2538 2584 2113 2584 
z
M 3366 4563 
L 3366 3988 
Q 3128 4100 2886 4159 
Q 2644 4219 2406 4219 
Q 1781 4219 1451 3797 
Q 1122 3375 1075 2522 
Q 1259 2794 1537 2939 
Q 1816 3084 2150 3084 
Q 2853 3084 3261 2657 
Q 3669 2231 3669 1497 
Q 3669 778 3244 343 
Q 2819 -91 2113 -91 
Q 1303 -91 875 529 
Q 447 1150 447 2328 
Q 447 3434 972 4092 
Q 1497 4750 2381 4750 
Q 2619 4750 2861 4703 
Q 3103 4656 3366 4563 
z
" transform="scale(0.015625)"/>
       </defs>
       <use xlink:href="#DejaVuSans-30"/>
       <use xlink:href="#DejaVuSans-2e" x="63.623047"/>
       <use xlink:href="#DejaVuSans-36" x="95.410156"/>
      </g>
     </g>
    </g>
    <g id="xtick_4">
     <g id="line2d_4">
      <g>
       <use xlink:href="#m8dbcb9bf63" x="162.722862" y="260.521875" style="stroke: #000000; stroke-width: 0.8"/>
      </g>
     </g>
     <g id="text_4">
      <!-- 0.7 -->
      <g transform="translate(154.7713 275.120313) scale(0.1 -0.1)">
       <defs>
        <path id="DejaVuSans-37" d="M 525 4666 
L 3525 4666 
L 3525 4397 
L 1831 0 
L 1172 0 
L 2766 4134 
L 525 4134 
L 525 4666 
z
" transform="scale(0.015625)"/>
       </defs>
       <use xlink:href="#DejaVuSans-30"/>
       <use xlink:href="#DejaVuSans-2e" x="63.623047"/>
       <use xlink:href="#DejaVuSans-37" x="95.410156"/>
      </g>
     </g>
    </g>
    <g id="xtick_5">
     <g id="line2d_5">
      <g>
       <use xlink:href="#m8dbcb9bf63" x="202.54785" y="260.521875" style="stroke: #000000; stroke-width: 0.8"/>
      </g>
     </g>
     <g id="text_5">
      <!-- 0.8 -->
      <g transform="translate(194.596287 275.120313) scale(0.1 -0.1)">
       <defs>
        <path id="DejaVuSans-38" d="M 2034 2216 
Q 1584 2216 1326 1975 
Q 1069 1734 1069 1313 
Q 1069 891 1326 650 
Q 1584 409 2034 409 
Q 2484 409 2743 651 
Q 3003 894 3003 1313 
Q 3003 1734 2745 1975 
Q 2488 2216 2034 2216 
z
M 1403 2484 
Q 997 2584 770 2862 
Q 544 3141 544 3541 
Q 544 4100 942 4425 
Q 1341 4750 2034 4750 
Q 2731 4750 3128 4425 
Q 3525 4100 3525 3541 
Q 3525 3141 3298 2862 
Q 3072 2584 2669 2484 
Q 3125 2378 3379 2068 
Q 3634 1759 3634 1313 
Q 3634 634 3220 271 
Q 2806 -91 2034 -91 
Q 1263 -91 848 271 
Q 434 634 434 1313 
Q 434 1759 690 2068 
Q 947 2378 1403 2484 
z
M 1172 3481 
Q 1172 3119 1398 2916 
Q 1625 2713 2034 2713 
Q 2441 2713 2670 2916 
Q 2900 3119 2900 3481 
Q 2900 3844 2670 4047 
Q 2441 4250 2034 4250 
Q 1625 4250 1398 4047 
Q 1172 3844 1172 3481 
z
" transform="scale(0.015625)"/>
       </defs>
       <use xlink:href="#DejaVuSans-30"/>
       <use xlink:href="#DejaVuSans-2e" x="63.623047"/>
       <use xlink:href="#DejaVuSans-38" x="95.410156"/>
      </g>
     </g>
    </g>
    <g id="xtick_6">
     <g id="line2d_6">
      <g>
       <use xlink:href="#m8dbcb9bf63" x="242.372837" y="260.521875" style="stroke: #000000; stroke-width: 0.8"/>
      </g>
     </g>
     <g id="text_6">
      <!-- 0.9 -->
      <g transform="translate(234.421274 275.120313) scale(0.1 -0.1)">
       <defs>
        <path id="DejaVuSans-39" d="M 703 97 
L 703 672 
Q 941 559 1184 500 
Q 1428 441 1663 441 
Q 2288 441 2617 861 
Q 2947 1281 2994 2138 
Q 2813 1869 2534 1725 
Q 2256 1581 1919 1581 
Q 1219 1581 811 2004 
Q 403 2428 403 3163 
Q 403 3881 828 4315 
Q 1253 4750 1959 4750 
Q 2769 4750 3195 4129 
Q 3622 3509 3622 2328 
Q 3622 1225 3098 567 
Q 2575 -91 1691 -91 
Q 1453 -91 1209 -44 
Q 966 3 703 97 
z
M 1959 2075 
Q 2384 2075 2632 2365 
Q 2881 2656 2881 3163 
Q 2881 3666 2632 3958 
Q 2384 4250 1959 4250 
Q 1534 4250 1286 3958 
Q 1038 3666 1038 3163 
Q 1038 2656 1286 2365 
Q 1534 2075 1959 2075 
z
" transform="scale(0.015625)"/>
       </defs>
       <use xlink:href="#DejaVuSans-30"/>
       <use xlink:href="#DejaVuSans-2e" x="63.623047"/>
       <use xlink:href="#DejaVuSans-39" x="95.410156"/>
      </g>
     </g>
    </g>
    <g id="xtick_7">
     <g id="line2d_7">
      <g>
       <use xlink:href="#m8dbcb9bf63" x="282.197824" y="260.521875" style="stroke: #000000; stroke-width: 0.8"/>
      </g>
     </g>
     <g id="text_7">
      <!-- 1.0 -->
      <g transform="translate(274.246262 275.120313) scale(0.1 -0.1)">
       <defs>
        <path id="DejaVuSans-31" d="M 794 531 
L 1825 531 
L 1825 4091 
L 703 3866 
L 703 4441 
L 1819 4666 
L 2450 4666 
L 2450 531 
L 3481 531 
L 3481 0 
L 794 0 
L 794 531 
z
" transform="scale(0.015625)"/>
       </defs>
       <use xlink:href="#DejaVuSans-31"/>
       <use xlink:href="#DejaVuSans-2e" x="63.623047"/>
       <use xlink:href="#DejaVuSans-30" x="95.410156"/>
      </g>
     </g>
    </g>
   </g>
   <g id="matplotlib.axis_2">
    <g id="ytick_1">
     <g id="line2d_8">
      <defs>
       <path id="m1dd49e7f81" d="M 0 0 
L -3.5 0 
" style="stroke: #000000; stroke-width: 0.8"/>
      </defs>
      <g>
       <use xlink:href="#m1dd49e7f81" x="41.711875" y="260.521875" style="stroke: #000000; stroke-width: 0.8"/>
      </g>
     </g>
     <g id="text_8">
      <!-- 0 -->
      <g transform="translate(28.349375 264.321094) scale(0.1 -0.1)">
       <use xlink:href="#DejaVuSans-30"/>
      </g>
     </g>
    </g>
    <g id="ytick_2">
     <g id="line2d_9">
      <g>
       <use xlink:href="#m1dd49e7f81" x="41.711875" y="232.657735" style="stroke: #000000; stroke-width: 0.8"/>
      </g>
     </g>
     <g id="text_9">
      <!-- 1 -->
      <g transform="translate(28.349375 236.456953) scale(0.1 -0.1)">
       <use xlink:href="#DejaVuSans-31"/>
      </g>
     </g>
    </g>
    <g id="ytick_3">
     <g id="line2d_10">
      <g>
       <use xlink:href="#m1dd49e7f81" x="41.711875" y="204.793594" style="stroke: #000000; stroke-width: 0.8"/>
      </g>
     </g>
     <g id="text_10">
      <!-- 2 -->
      <g transform="translate(28.349375 208.592813) scale(0.1 -0.1)">
       <defs>
        <path id="DejaVuSans-32" d="M 1228 531 
L 3431 531 
L 3431 0 
L 469 0 
L 469 531 
Q 828 903 1448 1529 
Q 2069 2156 2228 2338 
Q 2531 2678 2651 2914 
Q 2772 3150 2772 3378 
Q 2772 3750 2511 3984 
Q 2250 4219 1831 4219 
Q 1534 4219 1204 4116 
Q 875 4013 500 3803 
L 500 4441 
Q 881 4594 1212 4672 
Q 1544 4750 1819 4750 
Q 2544 4750 2975 4387 
Q 3406 4025 3406 3419 
Q 3406 3131 3298 2873 
Q 3191 2616 2906 2266 
Q 2828 2175 2409 1742 
Q 1991 1309 1228 531 
z
" transform="scale(0.015625)"/>
       </defs>
       <use xlink:href="#DejaVuSans-32"/>
      </g>
     </g>
    </g>
    <g id="ytick_4">
     <g id="line2d_11">
      <g>
       <use xlink:href="#m1dd49e7f81" x="41.711875" y="176.929454" style="stroke: #000000; stroke-width: 0.8"/>
      </g>
     </g>
     <g id="text_11">
      <!-- 3 -->
      <g transform="translate(28.349375 180.728673) scale(0.1 -0.1)">
       <defs>
        <path id="DejaVuSans-33" d="M 2597 2516 
Q 3050 2419 3304 2112 
Q 3559 1806 3559 1356 
Q 3559 666 3084 287 
Q 2609 -91 1734 -91 
Q 1441 -91 1130 -33 
Q 819 25 488 141 
L 488 750 
Q 750 597 1062 519 
Q 1375 441 1716 441 
Q 2309 441 2620 675 
Q 2931 909 2931 1356 
Q 2931 1769 2642 2001 
Q 2353 2234 1838 2234 
L 1294 2234 
L 1294 2753 
L 1863 2753 
Q 2328 2753 2575 2939 
Q 2822 3125 2822 3475 
Q 2822 3834 2567 4026 
Q 2313 4219 1838 4219 
Q 1578 4219 1281 4162 
Q 984 4106 628 3988 
L 628 4550 
Q 988 4650 1302 4700 
Q 1616 4750 1894 4750 
Q 2613 4750 3031 4423 
Q 3450 4097 3450 3541 
Q 3450 3153 3228 2886 
Q 3006 2619 2597 2516 
z
" transform="scale(0.015625)"/>
       </defs>
       <use xlink:href="#DejaVuSans-33"/>
      </g>
     </g>
    </g>
    <g id="ytick_5">
     <g id="line2d_12">
      <g>
       <use xlink:href="#m1dd49e7f81" x="41.711875" y="149.065314" style="stroke: #000000; stroke-width: 0.8"/>
      </g>
     </g>
     <g id="text_12">
      <!-- 4 -->
      <g transform="translate(28.349375 152.864532) scale(0.1 -0.1)">
       <use xlink:href="#DejaVuSans-34"/>
      </g>
     </g>
    </g>
    <g id="ytick_6">
     <g id="line2d_13">
      <g>
       <use xlink:href="#m1dd49e7f81" x="41.711875" y="121.201173" style="stroke: #000000; stroke-width: 0.8"/>
      </g>
     </g>
     <g id="text_13">
      <!-- 5 -->
      <g transform="translate(28.349375 125.000392) scale(0.1 -0.1)">
       <use xlink:href="#DejaVuSans-35"/>
      </g>
     </g>
    </g>
    <g id="ytick_7">
     <g id="line2d_14">
      <g>
       <use xlink:href="#m1dd49e7f81" x="41.711875" y="93.337033" style="stroke: #000000; stroke-width: 0.8"/>
      </g>
     </g>
     <g id="text_14">
      <!-- 6 -->
      <g transform="translate(28.349375 97.136252) scale(0.1 -0.1)">
       <use xlink:href="#DejaVuSans-36"/>
      </g>
     </g>
    </g>
    <g id="ytick_8">
     <g id="line2d_15">
      <g>
       <use xlink:href="#m1dd49e7f81" x="41.711875" y="65.472893" style="stroke: #000000; stroke-width: 0.8"/>
      </g>
     </g>
     <g id="text_15">
      <!-- 7 -->
      <g transform="translate(28.349375 69.272111) scale(0.1 -0.1)">
       <use xlink:href="#DejaVuSans-37"/>
      </g>
     </g>
    </g>
    <g id="ytick_9">
     <g id="line2d_16">
      <g>
       <use xlink:href="#m1dd49e7f81" x="41.711875" y="37.608752" style="stroke: #000000; stroke-width: 0.8"/>
      </g>
     </g>
     <g id="text_16">
      <!-- 8 -->
      <g transform="translate(28.349375 41.407971) scale(0.1 -0.1)">
       <use xlink:href="#DejaVuSans-38"/>
      </g>
     </g>
    </g>
    <g id="text_17">
     <!-- Fraction of cells -->
     <g transform="translate(21.437812 198.811719) rotate(-90) scale(0.14 -0.14)">
      <defs>
       <path id="DejaVuSans-46" d="M 628 4666 
L 3309 4666 
L 3309 4134 
L 1259 4134 
L 1259 2759 
L 3109 2759 
L 3109 2228 
L 1259 2228 
L 1259 0 
L 628 0 
L 628 4666 
z
" transform="scale(0.015625)"/>
       <path id="DejaVuSans-72" d="M 2631 2963 
Q 2534 3019 2420 3045 
Q 2306 3072 2169 3072 
Q 1681 3072 1420 2755 
Q 1159 2438 1159 1844 
L 1159 0 
L 581 0 
L 581 3500 
L 1159 3500 
L 1159 2956 
Q 1341 3275 1631 3429 
Q 1922 3584 2338 3584 
Q 2397 3584 2469 3576 
Q 2541 3569 2628 3553 
L 2631 2963 
z
" transform="scale(0.015625)"/>
       <path id="DejaVuSans-61" d="M 2194 1759 
Q 1497 1759 1228 1600 
Q 959 1441 959 1056 
Q 959 750 1161 570 
Q 1363 391 1709 391 
Q 2188 391 2477 730 
Q 2766 1069 2766 1631 
L 2766 1759 
L 2194 1759 
z
M 3341 1997 
L 3341 0 
L 2766 0 
L 2766 531 
Q 2569 213 2275 61 
Q 1981 -91 1556 -91 
Q 1019 -91 701 211 
Q 384 513 384 1019 
Q 384 1609 779 1909 
Q 1175 2209 1959 2209 
L 2766 2209 
L 2766 2266 
Q 2766 2663 2505 2880 
Q 2244 3097 1772 3097 
Q 1472 3097 1187 3025 
Q 903 2953 641 2809 
L 641 3341 
Q 956 3463 1253 3523 
Q 1550 3584 1831 3584 
Q 2591 3584 2966 3190 
Q 3341 2797 3341 1997 
z
" transform="scale(0.015625)"/>
       <path id="DejaVuSans-63" d="M 3122 3366 
L 3122 2828 
Q 2878 2963 2633 3030 
Q 2388 3097 2138 3097 
Q 1578 3097 1268 2742 
Q 959 2388 959 1747 
Q 959 1106 1268 751 
Q 1578 397 2138 397 
Q 2388 397 2633 464 
Q 2878 531 3122 666 
L 3122 134 
Q 2881 22 2623 -34 
Q 2366 -91 2075 -91 
Q 1284 -91 818 406 
Q 353 903 353 1747 
Q 353 2603 823 3093 
Q 1294 3584 2113 3584 
Q 2378 3584 2631 3529 
Q 2884 3475 3122 3366 
z
" transform="scale(0.015625)"/>
       <path id="DejaVuSans-74" d="M 1172 4494 
L 1172 3500 
L 2356 3500 
L 2356 3053 
L 1172 3053 
L 1172 1153 
Q 1172 725 1289 603 
Q 1406 481 1766 481 
L 2356 481 
L 2356 0 
L 1766 0 
Q 1100 0 847 248 
Q 594 497 594 1153 
L 594 3053 
L 172 3053 
L 172 3500 
L 594 3500 
L 594 4494 
L 1172 4494 
z
" transform="scale(0.015625)"/>
       <path id="DejaVuSans-69" d="M 603 3500 
L 1178 3500 
L 1178 0 
L 603 0 
L 603 3500 
z
M 603 4863 
L 1178 4863 
L 1178 4134 
L 603 4134 
L 603 4863 
z
" transform="scale(0.015625)"/>
       <path id="DejaVuSans-6f" d="M 1959 3097 
Q 1497 3097 1228 2736 
Q 959 2375 959 1747 
Q 959 1119 1226 758 
Q 1494 397 1959 397 
Q 2419 397 2687 759 
Q 2956 1122 2956 1747 
Q 2956 2369 2687 2733 
Q 2419 3097 1959 3097 
z
M 1959 3584 
Q 2709 3584 3137 3096 
Q 3566 2609 3566 1747 
Q 3566 888 3137 398 
Q 2709 -91 1959 -91 
Q 1206 -91 779 398 
Q 353 888 353 1747 
Q 353 2609 779 3096 
Q 1206 3584 1959 3584 
z
" transform="scale(0.015625)"/>
       <path id="DejaVuSans-6e" d="M 3513 2113 
L 3513 0 
L 2938 0 
L 2938 2094 
Q 2938 2591 2744 2837 
Q 2550 3084 2163 3084 
Q 1697 3084 1428 2787 
Q 1159 2491 1159 1978 
L 1159 0 
L 581 0 
L 581 3500 
L 1159 3500 
L 1159 2956 
Q 1366 3272 1645 3428 
Q 1925 3584 2291 3584 
Q 2894 3584 3203 3211 
Q 3513 2838 3513 2113 
z
" transform="scale(0.015625)"/>
       <path id="DejaVuSans-20" transform="scale(0.015625)"/>
       <path id="DejaVuSans-66" d="M 2375 4863 
L 2375 4384 
L 1825 4384 
Q 1516 4384 1395 4259 
Q 1275 4134 1275 3809 
L 1275 3500 
L 2222 3500 
L 2222 3053 
L 1275 3053 
L 1275 0 
L 697 0 
L 697 3053 
L 147 3053 
L 147 3500 
L 697 3500 
L 697 3744 
Q 697 4328 969 4595 
Q 1241 4863 1831 4863 
L 2375 4863 
z
" transform="scale(0.015625)"/>
       <path id="DejaVuSans-65" d="M 3597 1894 
L 3597 1613 
L 953 1613 
Q 991 1019 1311 708 
Q 1631 397 2203 397 
Q 2534 397 2845 478 
Q 3156 559 3463 722 
L 3463 178 
Q 3153 47 2828 -22 
Q 2503 -91 2169 -91 
Q 1331 -91 842 396 
Q 353 884 353 1716 
Q 353 2575 817 3079 
Q 1281 3584 2069 3584 
Q 2775 3584 3186 3129 
Q 3597 2675 3597 1894 
z
M 3022 2063 
Q 3016 2534 2758 2815 
Q 2500 3097 2075 3097 
Q 1594 3097 1305 2825 
Q 1016 2553 972 2059 
L 3022 2063 
z
" transform="scale(0.015625)"/>
       <path id="DejaVuSans-6c" d="M 603 4863 
L 1178 4863 
L 1178 0 
L 603 0 
L 603 4863 
z
" transform="scale(0.015625)"/>
       <path id="DejaVuSans-73" d="M 2834 3397 
L 2834 2853 
Q 2591 2978 2328 3040 
Q 2066 3103 1784 3103 
Q 1356 3103 1142 2972 
Q 928 2841 928 2578 
Q 928 2378 1081 2264 
Q 1234 2150 1697 2047 
L 1894 2003 
Q 2506 1872 2764 1633 
Q 3022 1394 3022 966 
Q 3022 478 2636 193 
Q 2250 -91 1575 -91 
Q 1294 -91 989 -36 
Q 684 19 347 128 
L 347 722 
Q 666 556 975 473 
Q 1284 391 1588 391 
Q 1994 391 2212 530 
Q 2431 669 2431 922 
Q 2431 1156 2273 1281 
Q 2116 1406 1581 1522 
L 1381 1569 
Q 847 1681 609 1914 
Q 372 2147 372 2553 
Q 372 3047 722 3315 
Q 1072 3584 1716 3584 
Q 2034 3584 2315 3537 
Q 2597 3491 2834 3397 
z
" transform="scale(0.015625)"/>
      </defs>
      <use xlink:href="#DejaVuSans-46"/>
      <use xlink:href="#DejaVuSans-72" x="50.269531"/>
      <use xlink:href="#DejaVuSans-61" x="91.382812"/>
      <use xlink:href="#DejaVuSans-63" x="152.662109"/>
      <use xlink:href="#DejaVuSans-74" x="207.642578"/>
      <use xlink:href="#DejaVuSans-69" x="246.851562"/>
      <use xlink:href="#DejaVuSans-6f" x="274.634766"/>
      <use xlink:href="#DejaVuSans-6e" x="335.816406"/>
      <use xlink:href="#DejaVuSans-20" x="399.195312"/>
      <use xlink:href="#DejaVuSans-6f" x="430.982422"/>
      <use xlink:href="#DejaVuSans-66" x="492.164062"/>
      <use xlink:href="#DejaVuSans-20" x="527.369141"/>
      <use xlink:href="#DejaVuSans-63" x="559.15625"/>
      <use xlink:href="#DejaVuSans-65" x="614.136719"/>
      <use xlink:href="#DejaVuSans-6c" x="675.660156"/>
      <use xlink:href="#DejaVuSans-6c" x="703.443359"/>
      <use xlink:href="#DejaVuSans-73" x="731.226562"/>
     </g>
    </g>
   </g>
   <g id="line2d_17">
    <path d="M -1 260.435487 
L 4.629731 260.236776 
L 8.652457 259.866202 
L 12.675183 259.118269 
L 16.697909 257.718442 
L 20.720635 255.283493 
L 24.743361 251.33683 
L 28.766087 245.35958 
L 32.788813 236.877669 
L 36.811539 225.574064 
L 40.834265 211.40689 
L 44.856991 194.709888 
L 48.879717 176.249406 
L 52.902443 157.210551 
L 56.925169 139.088695 
L 60.947895 123.479847 
L 64.970621 111.798181 
L 68.993347 104.990576 
L 73.016073 103.34211 
L 77.038799 106.449518 
L 81.061525 113.378689 
L 85.084251 122.944557 
L 89.106977 134.001364 
L 97.152429 157.241782 
L 101.175155 168.433336 
L 105.197881 178.979751 
L 109.220607 188.708262 
L 113.243333 197.473148 
L 117.266059 205.163136 
L 121.288785 211.728862 
L 125.311511 217.207794 
L 129.334237 221.73021 
L 133.356962 225.498293 
L 137.379688 228.740917 
L 141.402414 231.658371 
L 145.42514 234.378426 
L 149.447866 236.941461 
L 153.470592 239.317741 
L 157.493318 241.443762 
L 161.516044 243.258263 
L 165.53877 244.72561 
L 169.561496 245.846764 
L 173.584222 246.664378 
L 181.629674 247.772418 
L 185.6524 248.328885 
L 189.675126 249.058105 
L 193.697852 250.026254 
L 197.720578 251.214864 
L 205.76603 253.798297 
L 209.788756 254.899934 
L 213.811482 255.745572 
L 217.834208 256.34132 
L 237.947838 258.544975 
L 245.99329 259.535485 
L 254.038742 260.165061 
L 262.084194 260.429318 
L 274.152372 260.515361 
L 382.765974 260.521875 
L 577 260.521875 
L 577 260.521875 
" clip-path="url(#p512ca6c17d)" style="fill: none; stroke: #1f77b4; stroke-width: 1.5; stroke-linecap: square"/>
   </g>
   <g id="line2d_18">
    <path d="M -1 260.50472 
L 12.675183 260.407557 
L 20.720635 260.218862 
L 28.766087 259.803961 
L 32.788813 259.458909 
L 36.811539 258.985175 
L 40.834265 258.349318 
L 44.856991 257.513297 
L 48.879717 256.434634 
L 52.902443 255.066947 
L 56.925169 253.361216 
L 60.947895 251.268213 
L 64.970621 248.742492 
L 68.993347 245.748082 
L 73.016073 242.265519 
L 77.038799 238.299241 
L 81.061525 233.883762 
L 85.084251 229.086684 
L 93.129703 218.766765 
L 101.175155 208.334199 
L 105.197881 203.37811 
L 109.220607 198.708202 
L 113.243333 194.36645 
L 117.266059 190.365433 
L 121.288785 186.701135 
L 125.311511 183.369606 
L 129.334237 180.382654 
L 133.356962 177.778067 
L 137.379688 175.62164 
L 141.402414 174.000776 
L 145.42514 173.011813 
L 149.447866 172.744541 
L 153.470592 173.267412 
L 157.493318 174.615863 
L 161.516044 176.78473 
L 165.53877 179.724588 
L 169.561496 183.341515 
L 173.584222 187.500089 
L 177.606948 192.030027 
L 185.6524 201.418565 
L 189.675126 205.881835 
L 193.697852 209.964531 
L 197.720578 213.552028 
L 201.743304 216.589267 
L 205.76603 219.084059 
L 209.788756 221.100841 
L 213.811482 222.745845 
L 217.834208 224.146438 
L 229.902386 228.018695 
L 237.947838 230.893914 
L 245.99329 233.871886 
L 254.038742 236.577106 
L 262.084194 238.87911 
L 270.129646 241.044524 
L 274.152372 242.218613 
L 278.175098 243.51808 
L 282.197824 244.96461 
L 290.243276 248.245998 
L 302.311454 253.372673 
L 306.33418 254.879936 
L 310.356906 256.202461 
L 314.379632 257.316646 
L 318.402358 258.218237 
L 322.425084 258.919253 
L 326.44781 259.443186 
L 330.470536 259.819719 
L 338.515988 260.253115 
L 346.56144 260.432188 
L 362.652344 260.515291 
L 499.425028 260.521875 
L 577 260.521875 
L 577 260.521875 
" clip-path="url(#p512ca6c17d)" style="fill: none; stroke: #ff7f0e; stroke-width: 1.5; stroke-linecap: square"/>
   </g>
   <g id="line2d_19">
    <path d="M -1 260.339877 
L 4.629731 260.117904 
L 8.652457 259.814162 
L 12.675183 259.319997 
L 16.697909 258.542475 
L 20.720635 257.359273 
L 24.743361 255.617854 
L 28.766087 253.139353 
L 32.788813 249.729005 
L 36.811539 245.194419 
L 40.834265 239.371861 
L 44.856991 232.158958 
L 48.879717 223.550114 
L 52.902443 213.668822 
L 56.925169 202.789653 
L 64.970621 179.89353 
L 68.993347 169.100441 
L 73.016073 159.645607 
L 77.038799 152.155115 
L 81.061525 147.117006 
L 85.084251 144.813544 
L 89.106977 145.280996 
L 93.129703 148.305538 
L 97.152429 153.456718 
L 101.175155 160.152272 
L 105.197881 167.741871 
L 109.220607 175.594193 
L 113.243333 183.172048 
L 117.266059 190.083821 
L 121.288785 196.105011 
L 125.311511 201.169869 
L 129.334237 205.33869 
L 133.356962 208.750334 
L 137.379688 211.571423 
L 141.402414 213.953152 
L 145.42514 216.003896 
L 149.447866 217.781309 
L 153.470592 219.30243 
L 157.493318 220.565726 
L 161.516044 221.576299 
L 165.53877 222.365497 
L 181.629674 224.946457 
L 185.6524 225.921184 
L 189.675126 227.145456 
L 193.697852 228.615606 
L 197.720578 230.297717 
L 205.76603 234.089579 
L 229.902386 246.11316 
L 237.947838 249.841235 
L 241.970564 251.56902 
L 245.99329 253.170179 
L 250.016016 254.619444 
L 254.038742 255.896993 
L 258.061468 256.991141 
L 262.084194 257.899747 
L 266.10692 258.63014 
L 270.129646 259.19772 
L 274.152372 259.623613 
L 282.197824 260.147057 
L 290.243276 260.385331 
L 306.33418 260.510039 
L 386.7887 260.521875 
L 577 260.521875 
L 577 260.521875 
" clip-path="url(#p512ca6c17d)" style="fill: none; stroke: #2ca02c; stroke-width: 1.5; stroke-linecap: square"/>
   </g>
   <g id="patch_63">
    <path d="M 41.711875 260.521875 
L 41.711875 27.437812 
" style="fill: none; stroke: #000000; stroke-width: 0.8; stroke-linejoin: miter; stroke-linecap: square"/>
   </g>
   <g id="patch_64">
    <path d="M 284.529831 260.521875 
L 284.529831 27.437812 
" style="fill: none; stroke: #000000; stroke-width: 0.8; stroke-linejoin: miter; stroke-linecap: square"/>
   </g>
   <g id="patch_65">
    <path d="M 41.711875 260.521875 
L 284.529831 260.521875 
" style="fill: none; stroke: #000000; stroke-width: 0.8; stroke-linejoin: miter; stroke-linecap: square"/>
   </g>
   <g id="patch_66">
    <path d="M 41.711875 27.437812 
L 284.529831 27.437812 
" style="fill: none; stroke: #000000; stroke-width: 0.8; stroke-linejoin: miter; stroke-linecap: square"/>
   </g>
   <g id="text_18">
    <!-- SRV -->
    <g transform="translate(149.409603 21.437813) scale(0.14 -0.14)">
     <defs>
      <path id="DejaVuSans-53" d="M 3425 4513 
L 3425 3897 
Q 3066 4069 2747 4153 
Q 2428 4238 2131 4238 
Q 1616 4238 1336 4038 
Q 1056 3838 1056 3469 
Q 1056 3159 1242 3001 
Q 1428 2844 1947 2747 
L 2328 2669 
Q 3034 2534 3370 2195 
Q 3706 1856 3706 1288 
Q 3706 609 3251 259 
Q 2797 -91 1919 -91 
Q 1588 -91 1214 -16 
Q 841 59 441 206 
L 441 856 
Q 825 641 1194 531 
Q 1563 422 1919 422 
Q 2459 422 2753 634 
Q 3047 847 3047 1241 
Q 3047 1584 2836 1778 
Q 2625 1972 2144 2069 
L 1759 2144 
Q 1053 2284 737 2584 
Q 422 2884 422 3419 
Q 422 4038 858 4394 
Q 1294 4750 2059 4750 
Q 2388 4750 2728 4690 
Q 3069 4631 3425 4513 
z
" transform="scale(0.015625)"/>
      <path id="DejaVuSans-52" d="M 2841 2188 
Q 3044 2119 3236 1894 
Q 3428 1669 3622 1275 
L 4263 0 
L 3584 0 
L 2988 1197 
Q 2756 1666 2539 1819 
Q 2322 1972 1947 1972 
L 1259 1972 
L 1259 0 
L 628 0 
L 628 4666 
L 2053 4666 
Q 2853 4666 3247 4331 
Q 3641 3997 3641 3322 
Q 3641 2881 3436 2590 
Q 3231 2300 2841 2188 
z
M 1259 4147 
L 1259 2491 
L 2053 2491 
Q 2509 2491 2742 2702 
Q 2975 2913 2975 3322 
Q 2975 3731 2742 3939 
Q 2509 4147 2053 4147 
L 1259 4147 
z
" transform="scale(0.015625)"/>
      <path id="DejaVuSans-56" d="M 1831 0 
L 50 4666 
L 709 4666 
L 2188 738 
L 3669 4666 
L 4325 4666 
L 2547 0 
L 1831 0 
z
" transform="scale(0.015625)"/>
     </defs>
     <use xlink:href="#DejaVuSans-53"/>
     <use xlink:href="#DejaVuSans-52" x="63.476562"/>
     <use xlink:href="#DejaVuSans-56" x="127.458984"/>
    </g>
   </g>
   <g id="legend_1">
    <g id="patch_67">
     <path d="M 196.140456 89.879062 
L 276.129831 89.879062 
Q 278.529831 89.879062 278.529831 87.479062 
L 278.529831 35.837812 
Q 278.529831 33.437812 276.129831 33.437812 
L 196.140456 33.437812 
Q 193.740456 33.437812 193.740456 35.837812 
L 193.740456 87.479062 
Q 193.740456 89.879062 196.140456 89.879062 
z
" style="fill: #ffffff; opacity: 0.8; stroke: #cccccc; stroke-linejoin: miter"/>
    </g>
    <g id="patch_68">
     <path d="M 198.540456 47.355937 
L 222.540456 47.355937 
L 222.540456 38.955937 
L 198.540456 38.955937 
z
" style="fill: #1f77b4; opacity: 0.4"/>
    </g>
    <g id="text_19">
     <!-- control -->
     <g transform="translate(232.140456 47.355937) scale(0.12 -0.12)">
      <use xlink:href="#DejaVuSans-63"/>
      <use xlink:href="#DejaVuSans-6f" x="54.980469"/>
      <use xlink:href="#DejaVuSans-6e" x="116.162109"/>
      <use xlink:href="#DejaVuSans-74" x="179.541016"/>
      <use xlink:href="#DejaVuSans-72" x="218.75"/>
      <use xlink:href="#DejaVuSans-6f" x="257.613281"/>
      <use xlink:href="#DejaVuSans-6c" x="318.794922"/>
     </g>
    </g>
    <g id="patch_69">
     <path d="M 198.540456 64.969687 
L 222.540456 64.969687 
L 222.540456 56.569687 
L 198.540456 56.569687 
z
" style="fill: #ff7f0e; opacity: 0.4"/>
    </g>
    <g id="text_20">
     <!-- cytd -->
     <g transform="translate(232.140456 64.969687) scale(0.12 -0.12)">
      <defs>
       <path id="DejaVuSans-79" d="M 2059 -325 
Q 1816 -950 1584 -1140 
Q 1353 -1331 966 -1331 
L 506 -1331 
L 506 -850 
L 844 -850 
Q 1081 -850 1212 -737 
Q 1344 -625 1503 -206 
L 1606 56 
L 191 3500 
L 800 3500 
L 1894 763 
L 2988 3500 
L 3597 3500 
L 2059 -325 
z
" transform="scale(0.015625)"/>
       <path id="DejaVuSans-64" d="M 2906 2969 
L 2906 4863 
L 3481 4863 
L 3481 0 
L 2906 0 
L 2906 525 
Q 2725 213 2448 61 
Q 2172 -91 1784 -91 
Q 1150 -91 751 415 
Q 353 922 353 1747 
Q 353 2572 751 3078 
Q 1150 3584 1784 3584 
Q 2172 3584 2448 3432 
Q 2725 3281 2906 2969 
z
M 947 1747 
Q 947 1113 1208 752 
Q 1469 391 1925 391 
Q 2381 391 2643 752 
Q 2906 1113 2906 1747 
Q 2906 2381 2643 2742 
Q 2381 3103 1925 3103 
Q 1469 3103 1208 2742 
Q 947 2381 947 1747 
z
" transform="scale(0.015625)"/>
      </defs>
      <use xlink:href="#DejaVuSans-63"/>
      <use xlink:href="#DejaVuSans-79" x="54.980469"/>
      <use xlink:href="#DejaVuSans-74" x="114.160156"/>
      <use xlink:href="#DejaVuSans-64" x="153.369141"/>
     </g>
    </g>
    <g id="patch_70">
     <path d="M 198.540456 82.583437 
L 222.540456 82.583437 
L 222.540456 74.183437 
L 198.540456 74.183437 
z
" style="fill: #2ca02c; opacity: 0.4"/>
    </g>
    <g id="text_21">
     <!-- jasp -->
     <g transform="translate(232.140456 82.583437) scale(0.12 -0.12)">
      <defs>
       <path id="DejaVuSans-6a" d="M 603 3500 
L 1178 3500 
L 1178 -63 
Q 1178 -731 923 -1031 
Q 669 -1331 103 -1331 
L -116 -1331 
L -116 -844 
L 38 -844 
Q 366 -844 484 -692 
Q 603 -541 603 -63 
L 603 3500 
z
M 603 4863 
L 1178 4863 
L 1178 4134 
L 603 4134 
L 603 4863 
z
" transform="scale(0.015625)"/>
       <path id="DejaVuSans-70" d="M 1159 525 
L 1159 -1331 
L 581 -1331 
L 581 3500 
L 1159 3500 
L 1159 2969 
Q 1341 3281 1617 3432 
Q 1894 3584 2278 3584 
Q 2916 3584 3314 3078 
Q 3713 2572 3713 1747 
Q 3713 922 3314 415 
Q 2916 -91 2278 -91 
Q 1894 -91 1617 61 
Q 1341 213 1159 525 
z
M 3116 1747 
Q 3116 2381 2855 2742 
Q 2594 3103 2138 3103 
Q 1681 3103 1420 2742 
Q 1159 2381 1159 1747 
Q 1159 1113 1420 752 
Q 1681 391 2138 391 
Q 2594 391 2855 752 
Q 3116 1113 3116 1747 
z
" transform="scale(0.015625)"/>
      </defs>
      <use xlink:href="#DejaVuSans-6a"/>
      <use xlink:href="#DejaVuSans-61" x="27.783203"/>
      <use xlink:href="#DejaVuSans-73" x="89.0625"/>
      <use xlink:href="#DejaVuSans-70" x="141.162109"/>
     </g>
    </g>
   </g>
  </g>
  <g id="axes_2">
   <g id="patch_71">
    <path d="M 322.382044 260.521875 
L 565.2 260.521875 
L 565.2 27.437812 
L 322.382044 27.437812 
z
" style="fill: #ffffff"/>
   </g>
   <g id="patch_72">
    <path d="M 366.109143 260.521875 
L 374.755568 260.521875 
L 374.755568 242.533361 
L 366.109143 242.533361 
z
" clip-path="url(#pcb7fcb7ceb)" style="fill: #1f77b4; opacity: 0.4"/>
   </g>
   <g id="patch_73">
    <path d="M 374.755568 260.521875 
L 383.401993 260.521875 
L 383.401993 253.326469 
L 374.755568 253.326469 
z
" clip-path="url(#pcb7fcb7ceb)" style="fill: #1f77b4; opacity: 0.4"/>
   </g>
   <g id="patch_74">
    <path d="M 383.401993 260.521875 
L 392.048418 260.521875 
L 392.048418 249.728767 
L 383.401993 249.728767 
z
" clip-path="url(#pcb7fcb7ceb)" style="fill: #1f77b4; opacity: 0.4"/>
   </g>
   <g id="patch_75">
    <path d="M 392.048418 260.521875 
L 400.694843 260.521875 
L 400.694843 246.131064 
L 392.048418 246.131064 
z
" clip-path="url(#pcb7fcb7ceb)" style="fill: #1f77b4; opacity: 0.4"/>
   </g>
   <g id="patch_76">
    <path d="M 400.694843 260.521875 
L 409.341268 260.521875 
L 409.341268 228.14255 
L 400.694843 228.14255 
z
" clip-path="url(#pcb7fcb7ceb)" style="fill: #1f77b4; opacity: 0.4"/>
   </g>
   <g id="patch_77">
    <path d="M 409.341268 260.521875 
L 417.987693 260.521875 
L 417.987693 228.14255 
L 409.341268 228.14255 
z
" clip-path="url(#pcb7fcb7ceb)" style="fill: #1f77b4; opacity: 0.4"/>
   </g>
   <g id="patch_78">
    <path d="M 417.987693 260.521875 
L 426.634118 260.521875 
L 426.634118 231.740253 
L 417.987693 231.740253 
z
" clip-path="url(#pcb7fcb7ceb)" style="fill: #1f77b4; opacity: 0.4"/>
   </g>
   <g id="patch_79">
    <path d="M 426.634118 260.521875 
L 435.280543 260.521875 
L 435.280543 213.751739 
L 426.634118 213.751739 
z
" clip-path="url(#pcb7fcb7ceb)" style="fill: #1f77b4; opacity: 0.4"/>
   </g>
   <g id="patch_80">
    <path d="M 435.280543 260.521875 
L 443.926968 260.521875 
L 443.926968 199.360928 
L 435.280543 199.360928 
z
" clip-path="url(#pcb7fcb7ceb)" style="fill: #1f77b4; opacity: 0.4"/>
   </g>
   <g id="patch_81">
    <path d="M 443.926968 260.521875 
L 452.573393 260.521875 
L 452.573393 228.14255 
L 443.926968 228.14255 
z
" clip-path="url(#pcb7fcb7ceb)" style="fill: #1f77b4; opacity: 0.4"/>
   </g>
   <g id="patch_82">
    <path d="M 452.573393 260.521875 
L 461.219818 260.521875 
L 461.219818 231.740253 
L 452.573393 231.740253 
z
" clip-path="url(#pcb7fcb7ceb)" style="fill: #1f77b4; opacity: 0.4"/>
   </g>
   <g id="patch_83">
    <path d="M 461.219818 260.521875 
L 469.866242 260.521875 
L 469.866242 224.544847 
L 461.219818 224.544847 
z
" clip-path="url(#pcb7fcb7ceb)" style="fill: #1f77b4; opacity: 0.4"/>
   </g>
   <g id="patch_84">
    <path d="M 469.866242 260.521875 
L 478.512667 260.521875 
L 478.512667 238.935658 
L 469.866242 238.935658 
z
" clip-path="url(#pcb7fcb7ceb)" style="fill: #1f77b4; opacity: 0.4"/>
   </g>
   <g id="patch_85">
    <path d="M 478.512667 260.521875 
L 487.159092 260.521875 
L 487.159092 249.728767 
L 478.512667 249.728767 
z
" clip-path="url(#pcb7fcb7ceb)" style="fill: #1f77b4; opacity: 0.4"/>
   </g>
   <g id="patch_86">
    <path d="M 487.159092 260.521875 
L 495.805517 260.521875 
L 495.805517 253.326469 
L 487.159092 253.326469 
z
" clip-path="url(#pcb7fcb7ceb)" style="fill: #1f77b4; opacity: 0.4"/>
   </g>
   <g id="patch_87">
    <path d="M 495.805517 260.521875 
L 504.451942 260.521875 
L 504.451942 253.326469 
L 495.805517 253.326469 
z
" clip-path="url(#pcb7fcb7ceb)" style="fill: #1f77b4; opacity: 0.4"/>
   </g>
   <g id="patch_88">
    <path d="M 504.451942 260.521875 
L 513.098367 260.521875 
L 513.098367 253.326469 
L 504.451942 253.326469 
z
" clip-path="url(#pcb7fcb7ceb)" style="fill: #1f77b4; opacity: 0.4"/>
   </g>
   <g id="patch_89">
    <path d="M 513.098367 260.521875 
L 521.744792 260.521875 
L 521.744792 260.521875 
L 513.098367 260.521875 
z
" clip-path="url(#pcb7fcb7ceb)" style="fill: #1f77b4; opacity: 0.4"/>
   </g>
   <g id="patch_90">
    <path d="M 521.744792 260.521875 
L 530.391217 260.521875 
L 530.391217 256.924172 
L 521.744792 256.924172 
z
" clip-path="url(#pcb7fcb7ceb)" style="fill: #1f77b4; opacity: 0.4"/>
   </g>
   <g id="patch_91">
    <path d="M 530.391217 260.521875 
L 539.037642 260.521875 
L 539.037642 256.924172 
L 530.391217 256.924172 
z
" clip-path="url(#pcb7fcb7ceb)" style="fill: #1f77b4; opacity: 0.4"/>
   </g>
   <g id="patch_92">
    <path d="M 329.214588 260.521875 
L 341.013859 260.521875 
L 341.013859 249.526275 
L 329.214588 249.526275 
z
" clip-path="url(#pcb7fcb7ceb)" style="fill: #ff7f0e; opacity: 0.4"/>
   </g>
   <g id="patch_93">
    <path d="M 341.013859 260.521875 
L 352.813129 260.521875 
L 352.813129 253.191475 
L 341.013859 253.191475 
z
" clip-path="url(#pcb7fcb7ceb)" style="fill: #ff7f0e; opacity: 0.4"/>
   </g>
   <g id="patch_94">
    <path d="M 352.813129 260.521875 
L 364.6124 260.521875 
L 364.6124 238.530674 
L 352.813129 238.530674 
z
" clip-path="url(#pcb7fcb7ceb)" style="fill: #ff7f0e; opacity: 0.4"/>
   </g>
   <g id="patch_95">
    <path d="M 364.6124 260.521875 
L 376.41167 260.521875 
L 376.41167 216.539474 
L 364.6124 216.539474 
z
" clip-path="url(#pcb7fcb7ceb)" style="fill: #ff7f0e; opacity: 0.4"/>
   </g>
   <g id="patch_96">
    <path d="M 376.41167 260.521875 
L 388.210941 260.521875 
L 388.210941 220.204674 
L 376.41167 220.204674 
z
" clip-path="url(#pcb7fcb7ceb)" style="fill: #ff7f0e; opacity: 0.4"/>
   </g>
   <g id="patch_97">
    <path d="M 388.210941 260.521875 
L 400.010212 260.521875 
L 400.010212 253.191475 
L 388.210941 253.191475 
z
" clip-path="url(#pcb7fcb7ceb)" style="fill: #ff7f0e; opacity: 0.4"/>
   </g>
   <g id="patch_98">
    <path d="M 400.010212 260.521875 
L 411.809482 260.521875 
L 411.809482 231.200274 
L 400.010212 231.200274 
z
" clip-path="url(#pcb7fcb7ceb)" style="fill: #ff7f0e; opacity: 0.4"/>
   </g>
   <g id="patch_99">
    <path d="M 411.809482 260.521875 
L 423.608753 260.521875 
L 423.608753 253.191475 
L 411.809482 253.191475 
z
" clip-path="url(#pcb7fcb7ceb)" style="fill: #ff7f0e; opacity: 0.4"/>
   </g>
   <g id="patch_100">
    <path d="M 423.608753 260.521875 
L 435.408023 260.521875 
L 435.408023 242.195874 
L 423.608753 242.195874 
z
" clip-path="url(#pcb7fcb7ceb)" style="fill: #ff7f0e; opacity: 0.4"/>
   </g>
   <g id="patch_101">
    <path d="M 435.408023 260.521875 
L 447.207294 260.521875 
L 447.207294 249.526275 
L 435.408023 249.526275 
z
" clip-path="url(#pcb7fcb7ceb)" style="fill: #ff7f0e; opacity: 0.4"/>
   </g>
   <g id="patch_102">
    <path d="M 447.207294 260.521875 
L 459.006565 260.521875 
L 459.006565 242.195874 
L 447.207294 242.195874 
z
" clip-path="url(#pcb7fcb7ceb)" style="fill: #ff7f0e; opacity: 0.4"/>
   </g>
   <g id="patch_103">
    <path d="M 459.006565 260.521875 
L 470.805835 260.521875 
L 470.805835 242.195874 
L 459.006565 242.195874 
z
" clip-path="url(#pcb7fcb7ceb)" style="fill: #ff7f0e; opacity: 0.4"/>
   </g>
   <g id="patch_104">
    <path d="M 470.805835 260.521875 
L 482.605106 260.521875 
L 482.605106 249.526275 
L 470.805835 249.526275 
z
" clip-path="url(#pcb7fcb7ceb)" style="fill: #ff7f0e; opacity: 0.4"/>
   </g>
   <g id="patch_105">
    <path d="M 482.605106 260.521875 
L 494.404376 260.521875 
L 494.404376 242.195874 
L 482.605106 242.195874 
z
" clip-path="url(#pcb7fcb7ceb)" style="fill: #ff7f0e; opacity: 0.4"/>
   </g>
   <g id="patch_106">
    <path d="M 494.404376 260.521875 
L 506.203647 260.521875 
L 506.203647 245.861075 
L 494.404376 245.861075 
z
" clip-path="url(#pcb7fcb7ceb)" style="fill: #ff7f0e; opacity: 0.4"/>
   </g>
   <g id="patch_107">
    <path d="M 506.203647 260.521875 
L 518.002918 260.521875 
L 518.002918 253.191475 
L 506.203647 253.191475 
z
" clip-path="url(#pcb7fcb7ceb)" style="fill: #ff7f0e; opacity: 0.4"/>
   </g>
   <g id="patch_108">
    <path d="M 518.002918 260.521875 
L 529.802188 260.521875 
L 529.802188 260.521875 
L 518.002918 260.521875 
z
" clip-path="url(#pcb7fcb7ceb)" style="fill: #ff7f0e; opacity: 0.4"/>
   </g>
   <g id="patch_109">
    <path d="M 529.802188 260.521875 
L 541.601459 260.521875 
L 541.601459 260.521875 
L 529.802188 260.521875 
z
" clip-path="url(#pcb7fcb7ceb)" style="fill: #ff7f0e; opacity: 0.4"/>
   </g>
   <g id="patch_110">
    <path d="M 541.601459 260.521875 
L 553.400729 260.521875 
L 553.400729 256.856675 
L 541.601459 256.856675 
z
" clip-path="url(#pcb7fcb7ceb)" style="fill: #ff7f0e; opacity: 0.4"/>
   </g>
   <g id="patch_111">
    <path d="M 553.400729 260.521875 
L 565.2 260.521875 
L 565.2 249.526275 
L 553.400729 249.526275 
z
" clip-path="url(#pcb7fcb7ceb)" style="fill: #ff7f0e; opacity: 0.4"/>
   </g>
   <g id="patch_112">
    <path d="M 356.885391 260.521875 
L 366.944764 260.521875 
L 366.944764 249.149947 
L 356.885391 249.149947 
z
" clip-path="url(#pcb7fcb7ceb)" style="fill: #2ca02c; opacity: 0.4"/>
   </g>
   <g id="patch_113">
    <path d="M 366.944764 260.521875 
L 377.004137 260.521875 
L 377.004137 260.521875 
L 366.944764 260.521875 
z
" clip-path="url(#pcb7fcb7ceb)" style="fill: #2ca02c; opacity: 0.4"/>
   </g>
   <g id="patch_114">
    <path d="M 377.004137 260.521875 
L 387.06351 260.521875 
L 387.06351 249.149947 
L 377.004137 249.149947 
z
" clip-path="url(#pcb7fcb7ceb)" style="fill: #2ca02c; opacity: 0.4"/>
   </g>
   <g id="patch_115">
    <path d="M 387.06351 260.521875 
L 397.122883 260.521875 
L 397.122883 249.149947 
L 387.06351 249.149947 
z
" clip-path="url(#pcb7fcb7ceb)" style="fill: #2ca02c; opacity: 0.4"/>
   </g>
   <g id="patch_116">
    <path d="M 397.122883 260.521875 
L 407.182256 260.521875 
L 407.182256 237.778019 
L 397.122883 237.778019 
z
" clip-path="url(#pcb7fcb7ceb)" style="fill: #2ca02c; opacity: 0.4"/>
   </g>
   <g id="patch_117">
    <path d="M 407.182256 260.521875 
L 417.241629 260.521875 
L 417.241629 215.034163 
L 407.182256 215.034163 
z
" clip-path="url(#pcb7fcb7ceb)" style="fill: #2ca02c; opacity: 0.4"/>
   </g>
   <g id="patch_118">
    <path d="M 417.241629 260.521875 
L 427.301002 260.521875 
L 427.301002 243.463983 
L 417.241629 243.463983 
z
" clip-path="url(#pcb7fcb7ceb)" style="fill: #2ca02c; opacity: 0.4"/>
   </g>
   <g id="patch_119">
    <path d="M 427.301002 260.521875 
L 437.360375 260.521875 
L 437.360375 237.778019 
L 427.301002 237.778019 
z
" clip-path="url(#pcb7fcb7ceb)" style="fill: #2ca02c; opacity: 0.4"/>
   </g>
   <g id="patch_120">
    <path d="M 437.360375 260.521875 
L 447.419748 260.521875 
L 447.419748 220.720127 
L 437.360375 220.720127 
z
" clip-path="url(#pcb7fcb7ceb)" style="fill: #2ca02c; opacity: 0.4"/>
   </g>
   <g id="patch_121">
    <path d="M 447.419748 260.521875 
L 457.479121 260.521875 
L 457.479121 232.092055 
L 447.419748 232.092055 
z
" clip-path="url(#pcb7fcb7ceb)" style="fill: #2ca02c; opacity: 0.4"/>
   </g>
   <g id="patch_122">
    <path d="M 457.479121 260.521875 
L 467.538494 260.521875 
L 467.538494 226.406091 
L 457.479121 226.406091 
z
" clip-path="url(#pcb7fcb7ceb)" style="fill: #2ca02c; opacity: 0.4"/>
   </g>
   <g id="patch_123">
    <path d="M 467.538494 260.521875 
L 477.597867 260.521875 
L 477.597867 232.092055 
L 467.538494 232.092055 
z
" clip-path="url(#pcb7fcb7ceb)" style="fill: #2ca02c; opacity: 0.4"/>
   </g>
   <g id="patch_124">
    <path d="M 477.597867 260.521875 
L 487.65724 260.521875 
L 487.65724 243.463983 
L 477.597867 243.463983 
z
" clip-path="url(#pcb7fcb7ceb)" style="fill: #2ca02c; opacity: 0.4"/>
   </g>
   <g id="patch_125">
    <path d="M 487.65724 260.521875 
L 497.716613 260.521875 
L 497.716613 243.463983 
L 487.65724 243.463983 
z
" clip-path="url(#pcb7fcb7ceb)" style="fill: #2ca02c; opacity: 0.4"/>
   </g>
   <g id="patch_126">
    <path d="M 497.716613 260.521875 
L 507.775986 260.521875 
L 507.775986 254.835911 
L 497.716613 254.835911 
z
" clip-path="url(#pcb7fcb7ceb)" style="fill: #2ca02c; opacity: 0.4"/>
   </g>
   <g id="patch_127">
    <path d="M 507.775986 260.521875 
L 517.835359 260.521875 
L 517.835359 243.463983 
L 507.775986 243.463983 
z
" clip-path="url(#pcb7fcb7ceb)" style="fill: #2ca02c; opacity: 0.4"/>
   </g>
   <g id="patch_128">
    <path d="M 517.835359 260.521875 
L 527.894732 260.521875 
L 527.894732 260.521875 
L 517.835359 260.521875 
z
" clip-path="url(#pcb7fcb7ceb)" style="fill: #2ca02c; opacity: 0.4"/>
   </g>
   <g id="patch_129">
    <path d="M 527.894732 260.521875 
L 537.954105 260.521875 
L 537.954105 254.835911 
L 527.894732 254.835911 
z
" clip-path="url(#pcb7fcb7ceb)" style="fill: #2ca02c; opacity: 0.4"/>
   </g>
   <g id="patch_130">
    <path d="M 537.954105 260.521875 
L 548.013478 260.521875 
L 548.013478 254.835911 
L 537.954105 254.835911 
z
" clip-path="url(#pcb7fcb7ceb)" style="fill: #2ca02c; opacity: 0.4"/>
   </g>
   <g id="patch_131">
    <path d="M 548.013478 260.521875 
L 558.072851 260.521875 
L 558.072851 249.149947 
L 548.013478 249.149947 
z
" clip-path="url(#pcb7fcb7ceb)" style="fill: #2ca02c; opacity: 0.4"/>
   </g>
   <g id="matplotlib.axis_3">
    <g id="xtick_8">
     <g id="line2d_20">
      <g>
       <use xlink:href="#m8dbcb9bf63" x="328.964138" y="260.521875" style="stroke: #000000; stroke-width: 0.8"/>
      </g>
     </g>
     <g id="text_22">
      <!-- 1.00 -->
      <g transform="translate(317.831325 275.120313) scale(0.1 -0.1)">
       <use xlink:href="#DejaVuSans-31"/>
       <use xlink:href="#DejaVuSans-2e" x="63.623047"/>
       <use xlink:href="#DejaVuSans-30" x="95.410156"/>
       <use xlink:href="#DejaVuSans-30" x="159.033203"/>
      </g>
     </g>
    </g>
    <g id="xtick_9">
     <g id="line2d_21">
      <g>
       <use xlink:href="#m8dbcb9bf63" x="360.781272" y="260.521875" style="stroke: #000000; stroke-width: 0.8"/>
      </g>
     </g>
     <g id="text_23">
      <!-- 1.25 -->
      <g transform="translate(349.64846 275.120313) scale(0.1 -0.1)">
       <use xlink:href="#DejaVuSans-31"/>
       <use xlink:href="#DejaVuSans-2e" x="63.623047"/>
       <use xlink:href="#DejaVuSans-32" x="95.410156"/>
       <use xlink:href="#DejaVuSans-35" x="159.033203"/>
      </g>
     </g>
    </g>
    <g id="xtick_10">
     <g id="line2d_22">
      <g>
       <use xlink:href="#m8dbcb9bf63" x="392.598407" y="260.521875" style="stroke: #000000; stroke-width: 0.8"/>
      </g>
     </g>
     <g id="text_24">
      <!-- 1.50 -->
      <g transform="translate(381.465594 275.120313) scale(0.1 -0.1)">
       <use xlink:href="#DejaVuSans-31"/>
       <use xlink:href="#DejaVuSans-2e" x="63.623047"/>
       <use xlink:href="#DejaVuSans-35" x="95.410156"/>
       <use xlink:href="#DejaVuSans-30" x="159.033203"/>
      </g>
     </g>
    </g>
    <g id="xtick_11">
     <g id="line2d_23">
      <g>
       <use xlink:href="#m8dbcb9bf63" x="424.415542" y="260.521875" style="stroke: #000000; stroke-width: 0.8"/>
      </g>
     </g>
     <g id="text_25">
      <!-- 1.75 -->
      <g transform="translate(413.282729 275.120313) scale(0.1 -0.1)">
       <use xlink:href="#DejaVuSans-31"/>
       <use xlink:href="#DejaVuSans-2e" x="63.623047"/>
       <use xlink:href="#DejaVuSans-37" x="95.410156"/>
       <use xlink:href="#DejaVuSans-35" x="159.033203"/>
      </g>
     </g>
    </g>
    <g id="xtick_12">
     <g id="line2d_24">
      <g>
       <use xlink:href="#m8dbcb9bf63" x="456.232676" y="260.521875" style="stroke: #000000; stroke-width: 0.8"/>
      </g>
     </g>
     <g id="text_26">
      <!-- 2.00 -->
      <g transform="translate(445.099864 275.120313) scale(0.1 -0.1)">
       <use xlink:href="#DejaVuSans-32"/>
       <use xlink:href="#DejaVuSans-2e" x="63.623047"/>
       <use xlink:href="#DejaVuSans-30" x="95.410156"/>
       <use xlink:href="#DejaVuSans-30" x="159.033203"/>
      </g>
     </g>
    </g>
    <g id="xtick_13">
     <g id="line2d_25">
      <g>
       <use xlink:href="#m8dbcb9bf63" x="488.049811" y="260.521875" style="stroke: #000000; stroke-width: 0.8"/>
      </g>
     </g>
     <g id="text_27">
      <!-- 2.25 -->
      <g transform="translate(476.916998 275.120313) scale(0.1 -0.1)">
       <use xlink:href="#DejaVuSans-32"/>
       <use xlink:href="#DejaVuSans-2e" x="63.623047"/>
       <use xlink:href="#DejaVuSans-32" x="95.410156"/>
       <use xlink:href="#DejaVuSans-35" x="159.033203"/>
      </g>
     </g>
    </g>
    <g id="xtick_14">
     <g id="line2d_26">
      <g>
       <use xlink:href="#m8dbcb9bf63" x="519.866945" y="260.521875" style="stroke: #000000; stroke-width: 0.8"/>
      </g>
     </g>
     <g id="text_28">
      <!-- 2.50 -->
      <g transform="translate(508.734133 275.120313) scale(0.1 -0.1)">
       <use xlink:href="#DejaVuSans-32"/>
       <use xlink:href="#DejaVuSans-2e" x="63.623047"/>
       <use xlink:href="#DejaVuSans-35" x="95.410156"/>
       <use xlink:href="#DejaVuSans-30" x="159.033203"/>
      </g>
     </g>
    </g>
    <g id="xtick_15">
     <g id="line2d_27">
      <g>
       <use xlink:href="#m8dbcb9bf63" x="551.68408" y="260.521875" style="stroke: #000000; stroke-width: 0.8"/>
      </g>
     </g>
     <g id="text_29">
      <!-- 2.75 -->
      <g transform="translate(540.551267 275.120313) scale(0.1 -0.1)">
       <use xlink:href="#DejaVuSans-32"/>
       <use xlink:href="#DejaVuSans-2e" x="63.623047"/>
       <use xlink:href="#DejaVuSans-37" x="95.410156"/>
       <use xlink:href="#DejaVuSans-35" x="159.033203"/>
      </g>
     </g>
    </g>
   </g>
   <g id="matplotlib.axis_4">
    <g id="ytick_10">
     <g id="line2d_28">
      <g>
       <use xlink:href="#m1dd49e7f81" x="322.382044" y="260.521875" style="stroke: #000000; stroke-width: 0.8"/>
      </g>
     </g>
    </g>
    <g id="ytick_11">
     <g id="line2d_29">
      <g>
       <use xlink:href="#m1dd49e7f81" x="322.382044" y="232.657735" style="stroke: #000000; stroke-width: 0.8"/>
      </g>
     </g>
    </g>
    <g id="ytick_12">
     <g id="line2d_30">
      <g>
       <use xlink:href="#m1dd49e7f81" x="322.382044" y="204.793594" style="stroke: #000000; stroke-width: 0.8"/>
      </g>
     </g>
    </g>
    <g id="ytick_13">
     <g id="line2d_31">
      <g>
       <use xlink:href="#m1dd49e7f81" x="322.382044" y="176.929454" style="stroke: #000000; stroke-width: 0.8"/>
      </g>
     </g>
    </g>
    <g id="ytick_14">
     <g id="line2d_32">
      <g>
       <use xlink:href="#m1dd49e7f81" x="322.382044" y="149.065314" style="stroke: #000000; stroke-width: 0.8"/>
      </g>
     </g>
    </g>
    <g id="ytick_15">
     <g id="line2d_33">
      <g>
       <use xlink:href="#m1dd49e7f81" x="322.382044" y="121.201173" style="stroke: #000000; stroke-width: 0.8"/>
      </g>
     </g>
    </g>
    <g id="ytick_16">
     <g id="line2d_34">
      <g>
       <use xlink:href="#m1dd49e7f81" x="322.382044" y="93.337033" style="stroke: #000000; stroke-width: 0.8"/>
      </g>
     </g>
    </g>
    <g id="ytick_17">
     <g id="line2d_35">
      <g>
       <use xlink:href="#m1dd49e7f81" x="322.382044" y="65.472893" style="stroke: #000000; stroke-width: 0.8"/>
      </g>
     </g>
    </g>
    <g id="ytick_18">
     <g id="line2d_36">
      <g>
       <use xlink:href="#m1dd49e7f81" x="322.382044" y="37.608752" style="stroke: #000000; stroke-width: 0.8"/>
      </g>
     </g>
    </g>
    <g id="text_30">
     <!-- Fraction of cells -->
     <g transform="translate(311.970481 198.811719) rotate(-90) scale(0.14 -0.14)">
      <use xlink:href="#DejaVuSans-46"/>
      <use xlink:href="#DejaVuSans-72" x="50.269531"/>
      <use xlink:href="#DejaVuSans-61" x="91.382812"/>
      <use xlink:href="#DejaVuSans-63" x="152.662109"/>
      <use xlink:href="#DejaVuSans-74" x="207.642578"/>
      <use xlink:href="#DejaVuSans-69" x="246.851562"/>
      <use xlink:href="#DejaVuSans-6f" x="274.634766"/>
      <use xlink:href="#DejaVuSans-6e" x="335.816406"/>
      <use xlink:href="#DejaVuSans-20" x="399.195312"/>
      <use xlink:href="#DejaVuSans-6f" x="430.982422"/>
      <use xlink:href="#DejaVuSans-66" x="492.164062"/>
      <use xlink:href="#DejaVuSans-20" x="527.369141"/>
      <use xlink:href="#DejaVuSans-63" x="559.15625"/>
      <use xlink:href="#DejaVuSans-65" x="614.136719"/>
      <use xlink:href="#DejaVuSans-6c" x="675.660156"/>
      <use xlink:href="#DejaVuSans-6c" x="703.443359"/>
      <use xlink:href="#DejaVuSans-73" x="731.226562"/>
     </g>
    </g>
   </g>
   <g id="line2d_37">
    <path d="M 201.6956 260.521875 
L 332.82076 260.427031 
L 338.605694 260.225596 
L 342.462316 259.949085 
L 346.318939 259.498015 
L 350.175561 258.826483 
L 354.032183 257.91469 
L 357.888806 256.785881 
L 365.60205 254.187536 
L 371.386984 252.306731 
L 382.956851 248.750131 
L 386.813473 247.197697 
L 390.670096 245.245312 
L 394.526718 242.861304 
L 398.383341 240.11181 
L 406.096585 234.094178 
L 411.881519 229.659898 
L 417.666452 225.516715 
L 421.523075 222.969048 
L 425.379697 220.716787 
L 427.308008 219.762714 
L 429.23632 218.963163 
L 431.164631 218.347534 
L 433.092942 217.9407 
L 435.021253 217.759748 
L 436.949564 217.811525 
L 438.877875 218.091395 
L 440.806187 218.583444 
L 442.734498 219.262122 
L 446.59112 221.046796 
L 450.447743 223.171129 
L 460.089299 228.866736 
L 465.874232 232.53708 
L 469.730854 235.216469 
L 475.515788 239.543411 
L 481.300722 243.907666 
L 485.157344 246.59672 
L 489.013966 248.968052 
L 492.870589 250.955666 
L 496.727211 252.550115 
L 500.583833 253.790611 
L 504.440456 254.747892 
L 508.297078 255.502898 
L 514.082012 256.40643 
L 521.795256 257.379154 
L 529.508501 258.154927 
L 543.00668 259.220961 
L 554.576547 259.998467 
L 562.289791 260.320065 
L 571.931347 260.48302 
L 577 260.508401 
L 577 260.508401 
" clip-path="url(#pcb7fcb7ceb)" style="fill: none; stroke: #1f77b4; stroke-width: 1.5; stroke-linecap: square"/>
   </g>
   <g id="line2d_38">
    <path d="M 201.6956 260.521874 
L 271.114802 260.419719 
L 282.684669 260.182453 
L 290.397914 259.838971 
L 298.111159 259.246878 
L 303.896092 258.575875 
L 309.681026 257.657076 
L 315.46596 256.444703 
L 321.250893 254.901927 
L 325.107515 253.679602 
L 330.892449 251.559358 
L 336.677383 249.132585 
L 344.390627 245.57989 
L 354.032183 241.148806 
L 357.888806 239.566986 
L 361.745428 238.184779 
L 365.60205 237.054397 
L 369.458673 236.215721 
L 373.315295 235.692483 
L 377.171918 235.489979 
L 381.02854 235.594631 
L 384.885162 235.975439 
L 388.741785 236.587103 
L 394.526718 237.815071 
L 411.881519 241.925973 
L 417.666452 242.95365 
L 423.451386 243.705432 
L 429.23632 244.201185 
L 436.949564 244.564945 
L 465.874232 245.481869 
L 473.587477 246.042202 
L 481.300722 246.831325 
L 489.013966 247.892331 
L 496.727211 249.235899 
L 506.368767 251.210092 
L 517.938634 253.599612 
L 523.723568 254.615996 
L 529.508501 255.43738 
L 535.293435 256.05086 
L 543.00668 256.595188 
L 556.504858 257.202097 
L 568.074725 257.82403 
L 577 258.447469 
L 577 258.447469 
" clip-path="url(#pcb7fcb7ceb)" style="fill: none; stroke: #ff7f0e; stroke-width: 1.5; stroke-linecap: square"/>
   </g>
   <g id="line2d_39">
    <path d="M 201.6956 260.521875 
L 309.681026 260.42917 
L 321.250893 260.160747 
L 328.964138 259.772654 
L 336.677383 259.155754 
L 344.390627 258.29257 
L 352.103872 257.17761 
L 357.888806 256.146233 
L 363.673739 254.885569 
L 367.530362 253.878107 
L 371.386984 252.709767 
L 375.243606 251.36529 
L 379.100229 249.843173 
L 384.885162 247.268771 
L 402.239963 239.091618 
L 406.096585 237.585511 
L 409.953208 236.285346 
L 413.80983 235.193859 
L 417.666452 234.292476 
L 423.451386 233.223918 
L 429.23632 232.391204 
L 436.949564 231.541281 
L 442.734498 231.138398 
L 446.59112 231.036996 
L 450.447743 231.112012 
L 454.304365 231.395134 
L 458.160987 231.907263 
L 462.01761 232.654987 
L 465.874232 233.629414 
L 469.730854 234.80717 
L 475.515788 236.875942 
L 483.229033 239.965092 
L 494.7989 244.620926 
L 500.583833 246.739038 
L 506.368767 248.644163 
L 512.153701 250.30892 
L 517.938634 251.716384 
L 523.723568 252.861936 
L 529.508501 253.763217 
L 537.221746 254.672435 
L 562.289791 257.295667 
L 577 259.010046 
L 577 259.010046 
" clip-path="url(#pcb7fcb7ceb)" style="fill: none; stroke: #2ca02c; stroke-width: 1.5; stroke-linecap: square"/>
   </g>
   <g id="patch_132">
    <path d="M 322.382044 260.521875 
L 322.382044 27.437812 
" style="fill: none; stroke: #000000; stroke-width: 0.8; stroke-linejoin: miter; stroke-linecap: square"/>
   </g>
   <g id="patch_133">
    <path d="M 565.2 260.521875 
L 565.2 27.437812 
" style="fill: none; stroke: #000000; stroke-width: 0.8; stroke-linejoin: miter; stroke-linecap: square"/>
   </g>
   <g id="patch_134">
    <path d="M 322.382044 260.521875 
L 565.2 260.521875 
" style="fill: none; stroke: #000000; stroke-width: 0.8; stroke-linejoin: miter; stroke-linecap: square"/>
   </g>
   <g id="patch_135">
    <path d="M 322.382044 27.437812 
L 565.2 27.437812 
" style="fill: none; stroke: #000000; stroke-width: 0.8; stroke-linejoin: miter; stroke-linecap: square"/>
   </g>
   <g id="text_31">
    <!-- Linear -->
    <g transform="translate(422.035241 21.437813) scale(0.14 -0.14)">
     <defs>
      <path id="DejaVuSans-4c" d="M 628 4666 
L 1259 4666 
L 1259 531 
L 3531 531 
L 3531 0 
L 628 0 
L 628 4666 
z
" transform="scale(0.015625)"/>
     </defs>
     <use xlink:href="#DejaVuSans-4c"/>
     <use xlink:href="#DejaVuSans-69" x="55.712891"/>
     <use xlink:href="#DejaVuSans-6e" x="83.496094"/>
     <use xlink:href="#DejaVuSans-65" x="146.875"/>
     <use xlink:href="#DejaVuSans-61" x="208.398438"/>
     <use xlink:href="#DejaVuSans-72" x="269.677734"/>
    </g>
   </g>
   <g id="legend_2">
    <g id="patch_136">
     <path d="M 476.810625 89.879062 
L 556.8 89.879062 
Q 559.2 89.879062 559.2 87.479062 
L 559.2 35.837812 
Q 559.2 33.437812 556.8 33.437812 
L 476.810625 33.437812 
Q 474.410625 33.437812 474.410625 35.837812 
L 474.410625 87.479062 
Q 474.410625 89.879062 476.810625 89.879062 
z
" style="fill: #ffffff; opacity: 0.8; stroke: #cccccc; stroke-linejoin: miter"/>
    </g>
    <g id="patch_137">
     <path d="M 479.210625 47.355937 
L 503.210625 47.355937 
L 503.210625 38.955937 
L 479.210625 38.955937 
z
" style="fill: #1f77b4; opacity: 0.4"/>
    </g>
    <g id="text_32">
     <!-- control -->
     <g transform="translate(512.810625 47.355937) scale(0.12 -0.12)">
      <use xlink:href="#DejaVuSans-63"/>
      <use xlink:href="#DejaVuSans-6f" x="54.980469"/>
      <use xlink:href="#DejaVuSans-6e" x="116.162109"/>
      <use xlink:href="#DejaVuSans-74" x="179.541016"/>
      <use xlink:href="#DejaVuSans-72" x="218.75"/>
      <use xlink:href="#DejaVuSans-6f" x="257.613281"/>
      <use xlink:href="#DejaVuSans-6c" x="318.794922"/>
     </g>
    </g>
    <g id="patch_138">
     <path d="M 479.210625 64.969687 
L 503.210625 64.969687 
L 503.210625 56.569687 
L 479.210625 56.569687 
z
" style="fill: #ff7f0e; opacity: 0.4"/>
    </g>
    <g id="text_33">
     <!-- cytd -->
     <g transform="translate(512.810625 64.969687) scale(0.12 -0.12)">
      <use xlink:href="#DejaVuSans-63"/>
      <use xlink:href="#DejaVuSans-79" x="54.980469"/>
      <use xlink:href="#DejaVuSans-74" x="114.160156"/>
      <use xlink:href="#DejaVuSans-64" x="153.369141"/>
     </g>
    </g>
    <g id="patch_139">
     <path d="M 479.210625 82.583437 
L 503.210625 82.583437 
L 503.210625 74.183437 
L 479.210625 74.183437 
z
" style="fill: #2ca02c; opacity: 0.4"/>
    </g>
    <g id="text_34">
     <!-- jasp -->
     <g transform="translate(512.810625 82.583437) scale(0.12 -0.12)">
      <use xlink:href="#DejaVuSans-6a"/>
      <use xlink:href="#DejaVuSans-61" x="27.783203"/>
      <use xlink:href="#DejaVuSans-73" x="89.0625"/>
      <use xlink:href="#DejaVuSans-70" x="141.162109"/>
     </g>
    </g>
   </g>
  </g>
 </g>
 <defs>
  <clipPath id="p512ca6c17d">
   <rect x="41.711875" y="27.437813" width="242.817956" height="233.084062"/>
  </clipPath>
  <clipPath id="pcb7fcb7ceb">
   <rect x="322.382044" y="27.437813" width="242.817956" height="233.084062"/>
  </clipPath>
 </defs>
</svg>
