<?xml version="1.0" encoding="utf-8" standalone="no"?>
<!DOCTYPE svg PUBLIC "-//W3C//DTD SVG 1.1//EN"
  "http://www.w3.org/Graphics/SVG/1.1/DTD/svg11.dtd">
<svg xmlns:xlink="http://www.w3.org/1999/xlink" width="540pt" height="288pt" viewBox="0 0 540 288" xmlns="http://www.w3.org/2000/svg" version="1.1">
 <metadata>
  <rdf:RDF xmlns:dc="http://purl.org/dc/elements/1.1/" xmlns:cc="http://creativecommons.org/ns#" xmlns:rdf="http://www.w3.org/1999/02/22-rdf-syntax-ns#">
   <cc:Work>
    <dc:type rdf:resource="http://purl.org/dc/dcmitype/StillImage"/>
    <dc:date>2024-04-04T11:19:59.685051</dc:date>
    <dc:format>image/svg+xml</dc:format>
    <dc:creator>
     <cc:Agent>
      <dc:title>Matplotlib v3.8.3, https://matplotlib.org/</dc:title>
     </cc:Agent>
    </dc:creator>
   </cc:Work>
  </rdf:RDF>
 </metadata>
 <defs>
  <style type="text/css">*{stroke-linejoin: round; stroke-linecap: butt}</style>
 </defs>
 <g id="figure_1">
  <g id="patch_1">
   <path d="M 0 288 
L 540 288 
L 540 0 
L 0 0 
z
" style="fill: #ffffff"/>
  </g>
  <g id="axes_1">
   <g id="line2d_1">
    <path d="M 138.367055 45.294573 
L 138.033535 45.706914 
L 137.393615 46.268674 
L 133.054169 46.855902 
L 132.441752 47.514724 
L 129.665186 48.756968 
L 129.274569 49.231293 
L 128.538188 49.912201 
L 126.497201 50.983526 
L 124.635239 51.433357 
L 123.079996 51.446777 
L 121.345872 52.277297 
L 119.941054 53.36358 
L 119.60047 53.988254 
L 118.999561 54.72573 
L 116.670265 55.878475 
L 115.810705 56.74381 
L 115.448819 57.321249 
L 114.33576 58.054894 
L 112.7991 58.879464 
L 112.158553 60.082839 
L 110.74726 60.837523 
L 110.183224 61.39144 
L 109.986938 61.829703 
L 109.078851 62.807247 
L 107.514782 64.134526 
L 106.88497 65.664158 
L 104.381872 68.773071 
L 101.429955 71.660532 
L 100.294126 73.513424 
L 99.596691 73.946267 
L 98.929611 74.492962 
L 97.936085 78.65309 
L 97.162281 79.515187 
L 96.784885 80.274083 
L 96.617982 81.058513 
L 95.527498 82.639887 
L 94.741062 86.683204 
L 94.218538 89.974007 
L 93.72365 90.815637 
L 93.462371 91.631133 
L 93.564903 92.766963 
L 92.692936 94.413097 
L 93.404635 98.341365 
L 93.000985 99.464467 
L 92.878104 99.633333 
L 92.59992 100.345202 
L 92.580269 103.668513 
L 92.506649 103.805138 
L 92.669352 106.649253 
L 93.353628 109.396127 
L 93.301023 111.080376 
L 93.887933 112.761136 
L 94.8461 113.682793 
L 96.369511 114.492873 
L 97.395187 115.599941 
L 98.408475 117.390088 
L 100.223255 118.330796 
L 100.976003 119.189278 
L 101.446156 120.063397 
L 101.678482 120.871368 
L 102.075255 121.736403 
L 102.856661 122.495336 
L 106.279461 123.268755 
L 106.946626 123.794249 
L 107.453801 124.492363 
L 108.338592 126.247562 
L 109.031497 126.744654 
L 112.998174 127.176674 
L 113.819708 127.761944 
L 114.577904 128.887426 
L 115.587047 129.282315 
L 118.009106 129.298478 
L 119.343093 129.847371 
L 120.230039 130.593218 
L 121.027184 130.778182 
L 121.762076 130.719825 
L 122.426284 130.289797 
L 123.222096 130.027672 
L 124.540076 130.328724 
L 125.341531 130.015812 
L 126.140522 129.552369 
L 127.951387 129.098705 
L 130.030799 128.972776 
L 131.796074 129.728044 
L 132.999886 129.61457 
L 134.072949 128.997571 
L 135.072676 128.113877 
L 136.473699 127.856078 
L 138.124185 127.778237 
L 139.841262 126.617856 
L 140.804931 126.546361 
L 141.943307 126.112159 
L 143.279272 124.787318 
L 144.259751 124.395358 
L 145.169265 124.334801 
L 146.503219 123.436157 
L 147.654665 122.294958 
L 148.346671 122.161369 
L 149.160208 121.607088 
L 150.675132 119.342875 
L 152.393753 118.359192 
L 154.138938 117.902425 
L 154.936269 117.248252 
L 155.422497 116.569486 
L 155.775181 116.270347 
L 156.270618 115.541262 
L 156.914051 113.655444 
L 158.559696 111.305645 
L 158.55709 110.44418 
L 158.860591 109.283038 
L 159.599756 107.883135 
L 160.963155 106.689763 
L 161.632492 105.507436 
L 161.558692 103.988198 
L 161.954232 102.758635 
L 162.686713 101.863574 
L 163.233178 101.529933 
L 163.821209 100.914623 
L 164.318559 97.869694 
L 164.532714 95.209792 
L 165.144735 94.100143 
L 165.540448 92.566553 
L 165.581586 90.616995 
L 164.827523 88.566691 
L 165.398052 86.318966 
L 165.281125 85.45333 
L 165.115031 85.238623 
L 164.630351 84.424984 
L 163.155736 80.955257 
L 163.038257 79.863432 
L 163.575405 78.162105 
L 162.212283 72.553383 
L 162.257049 72.114173 
L 162.129848 71.425983 
L 161.731559 70.384999 
L 161.748786 69.324298 
L 159.290362 65.691343 
L 159.046857 64.110864 
L 158.576748 63.349824 
L 158.04383 63.094596 
L 157.006661 62.212362 
L 156.016852 60.805659 
L 155.591084 59.149936 
L 154.170573 57.876187 
L 153.17352 56.296623 
L 152.634868 54.37963 
L 151.265577 52.337959 
L 149.013876 50.640314 
L 147.23127 50.192077 
L 146.487921 49.557454 
L 145.95147 48.701604 
L 145.555502 47.729356 
L 144.514707 46.491587 
L 142.065464 45.249223 
L 141.434512 43.81652 
L 140.609249 43.093237 
L 139.356219 42.480149 
L 137.37652 42.017005 
L 135.964297 41.200818 
L 134.854785 40.159654 
L 133.185858 39.141818 
L 133.185858 39.141818 
" clip-path="url(#p6364ff0366)" style="fill: none; stroke: #1f77b4; stroke-width: 1.5; stroke-linecap: square"/>
   </g>
   <g id="text_1">
    <!-- SRV-control -->
    <g transform="translate(71.778493 28.56) scale(0.2 -0.2)">
     <defs>
      <path id="DejaVuSans-53" d="M 3425 4513 
L 3425 3897 
Q 3066 4069 2747 4153 
Q 2428 4238 2131 4238 
Q 1616 4238 1336 4038 
Q 1056 3838 1056 3469 
Q 1056 3159 1242 3001 
Q 1428 2844 1947 2747 
L 2328 2669 
Q 3034 2534 3370 2195 
Q 3706 1856 3706 1288 
Q 3706 609 3251 259 
Q 2797 -91 1919 -91 
Q 1588 -91 1214 -16 
Q 841 59 441 206 
L 441 856 
Q 825 641 1194 531 
Q 1563 422 1919 422 
Q 2459 422 2753 634 
Q 3047 847 3047 1241 
Q 3047 1584 2836 1778 
Q 2625 1972 2144 2069 
L 1759 2144 
Q 1053 2284 737 2584 
Q 422 2884 422 3419 
Q 422 4038 858 4394 
Q 1294 4750 2059 4750 
Q 2388 4750 2728 4690 
Q 3069 4631 3425 4513 
z
" transform="scale(0.015625)"/>
      <path id="DejaVuSans-52" d="M 2841 2188 
Q 3044 2119 3236 1894 
Q 3428 1669 3622 1275 
L 4263 0 
L 3584 0 
L 2988 1197 
Q 2756 1666 2539 1819 
Q 2322 1972 1947 1972 
L 1259 1972 
L 1259 0 
L 628 0 
L 628 4666 
L 2053 4666 
Q 2853 4666 3247 4331 
Q 3641 3997 3641 3322 
Q 3641 2881 3436 2590 
Q 3231 2300 2841 2188 
z
M 1259 4147 
L 1259 2491 
L 2053 2491 
Q 2509 2491 2742 2702 
Q 2975 2913 2975 3322 
Q 2975 3731 2742 3939 
Q 2509 4147 2053 4147 
L 1259 4147 
z
" transform="scale(0.015625)"/>
      <path id="DejaVuSans-56" d="M 1831 0 
L 50 4666 
L 709 4666 
L 2188 738 
L 3669 4666 
L 4325 4666 
L 2547 0 
L 1831 0 
z
" transform="scale(0.015625)"/>
      <path id="DejaVuSans-2d" d="M 313 2009 
L 1997 2009 
L 1997 1497 
L 313 1497 
L 313 2009 
z
" transform="scale(0.015625)"/>
      <path id="DejaVuSans-63" d="M 3122 3366 
L 3122 2828 
Q 2878 2963 2633 3030 
Q 2388 3097 2138 3097 
Q 1578 3097 1268 2742 
Q 959 2388 959 1747 
Q 959 1106 1268 751 
Q 1578 397 2138 397 
Q 2388 397 2633 464 
Q 2878 531 3122 666 
L 3122 134 
Q 2881 22 2623 -34 
Q 2366 -91 2075 -91 
Q 1284 -91 818 406 
Q 353 903 353 1747 
Q 353 2603 823 3093 
Q 1294 3584 2113 3584 
Q 2378 3584 2631 3529 
Q 2884 3475 3122 3366 
z
" transform="scale(0.015625)"/>
      <path id="DejaVuSans-6f" d="M 1959 3097 
Q 1497 3097 1228 2736 
Q 959 2375 959 1747 
Q 959 1119 1226 758 
Q 1494 397 1959 397 
Q 2419 397 2687 759 
Q 2956 1122 2956 1747 
Q 2956 2369 2687 2733 
Q 2419 3097 1959 3097 
z
M 1959 3584 
Q 2709 3584 3137 3096 
Q 3566 2609 3566 1747 
Q 3566 888 3137 398 
Q 2709 -91 1959 -91 
Q 1206 -91 779 398 
Q 353 888 353 1747 
Q 353 2609 779 3096 
Q 1206 3584 1959 3584 
z
" transform="scale(0.015625)"/>
      <path id="DejaVuSans-6e" d="M 3513 2113 
L 3513 0 
L 2938 0 
L 2938 2094 
Q 2938 2591 2744 2837 
Q 2550 3084 2163 3084 
Q 1697 3084 1428 2787 
Q 1159 2491 1159 1978 
L 1159 0 
L 581 0 
L 581 3500 
L 1159 3500 
L 1159 2956 
Q 1366 3272 1645 3428 
Q 1925 3584 2291 3584 
Q 2894 3584 3203 3211 
Q 3513 2838 3513 2113 
z
" transform="scale(0.015625)"/>
      <path id="DejaVuSans-74" d="M 1172 4494 
L 1172 3500 
L 2356 3500 
L 2356 3053 
L 1172 3053 
L 1172 1153 
Q 1172 725 1289 603 
Q 1406 481 1766 481 
L 2356 481 
L 2356 0 
L 1766 0 
Q 1100 0 847 248 
Q 594 497 594 1153 
L 594 3053 
L 172 3053 
L 172 3500 
L 594 3500 
L 594 4494 
L 1172 4494 
z
" transform="scale(0.015625)"/>
      <path id="DejaVuSans-72" d="M 2631 2963 
Q 2534 3019 2420 3045 
Q 2306 3072 2169 3072 
Q 1681 3072 1420 2755 
Q 1159 2438 1159 1844 
L 1159 0 
L 581 0 
L 581 3500 
L 1159 3500 
L 1159 2956 
Q 1341 3275 1631 3429 
Q 1922 3584 2338 3584 
Q 2397 3584 2469 3576 
Q 2541 3569 2628 3553 
L 2631 2963 
z
" transform="scale(0.015625)"/>
      <path id="DejaVuSans-6c" d="M 603 4863 
L 1178 4863 
L 1178 0 
L 603 0 
L 603 4863 
z
" transform="scale(0.015625)"/>
     </defs>
     <use xlink:href="#DejaVuSans-53"/>
     <use xlink:href="#DejaVuSans-52" x="63.476562"/>
     <use xlink:href="#DejaVuSans-56" x="127.458984"/>
     <use xlink:href="#DejaVuSans-2d" x="189.992188"/>
     <use xlink:href="#DejaVuSans-63" x="226.076172"/>
     <use xlink:href="#DejaVuSans-6f" x="281.056641"/>
     <use xlink:href="#DejaVuSans-6e" x="342.238281"/>
     <use xlink:href="#DejaVuSans-74" x="405.617188"/>
     <use xlink:href="#DejaVuSans-72" x="444.826172"/>
     <use xlink:href="#DejaVuSans-6f" x="483.689453"/>
     <use xlink:href="#DejaVuSans-6c" x="544.871094"/>
    </g>
   </g>
  </g>
  <g id="axes_2">
   <g id="line2d_2">
    <path d="M 296.042887 50.625811 
L 295.573437 52.666674 
L 294.669906 54.579891 
L 293.086455 56.146204 
L 292.447749 57.507999 
L 292.024593 58.996302 
L 291.054994 60.452469 
L 289.738315 61.964319 
L 289.168618 63.891313 
L 288.168026 65.788706 
L 286.468237 67.58653 
L 284.911274 68.38002 
L 283.569536 68.715065 
L 282.169071 69.707178 
L 280.992112 70.900522 
L 280.524559 72.049094 
L 279.738462 73.047064 
L 277.939935 74.443447 
L 276.904817 75.476759 
L 276.3421 76.363436 
L 273.567267 78.053411 
L 272.624236 79.685207 
L 271.54936 80.339098 
L 271.023397 80.932856 
L 270.832909 81.587358 
L 270.034584 82.554734 
L 268.370649 83.69293 
L 268.188357 84.690294 
L 267.652312 85.69989 
L 264.015305 89.903024 
L 263.46401 90.304608 
L 262.673814 91.186469 
L 261.514057 92.914987 
L 260.59102 93.460369 
L 259.5328 93.949544 
L 258.565427 96.707162 
L 257.949313 97.239322 
L 257.690168 97.933497 
L 257.853949 98.859258 
L 257.468851 99.396776 
L 256.66191 100.125212 
L 256.235295 101.94247 
L 255.962571 103.989785 
L 255.382809 104.975026 
L 255.070333 105.778798 
L 255.197888 106.857589 
L 254.590751 108.255676 
L 254.678916 109.293639 
L 255.178675 110.503807 
L 254.900979 111.67342 
L 254.684305 112.279752 
L 254.306262 114.223343 
L 254.191337 114.499784 
L 254.059908 115.292049 
L 254.016375 116.590484 
L 253.846941 117.078065 
L 253.83819 119.009321 
L 253.829268 120.878631 
L 254.317636 121.330864 
L 254.763204 121.445043 
L 255.080658 121.752821 
L 255.322776 122.456472 
L 256.565369 123.388562 
L 256.707887 123.722929 
L 256.628294 124.638629 
L 256.714694 124.992743 
L 257.085961 125.28139 
L 259.196065 125.462403 
L 260.058069 126.359544 
L 260.675634 127.674864 
L 261.018248 127.888574 
L 262.273114 127.886748 
L 263.636187 128.063377 
L 264.721548 128.775792 
L 264.968546 129.183045 
L 265.406044 129.327972 
L 266.215493 129.44593 
L 266.778343 129.747621 
L 267.189872 130.239954 
L 267.493527 130.32542 
L 267.994031 130.325348 
L 269.105694 130.153292 
L 270.176633 130.778182 
L 270.898012 130.542307 
L 271.580438 130.123253 
L 273.646534 129.688789 
L 274.56335 129.774878 
L 274.980271 129.638441 
L 275.457083 129.326159 
L 276.106835 128.752891 
L 276.719204 128.554924 
L 277.470593 128.472283 
L 278.129304 127.844394 
L 278.763624 127.477226 
L 279.536703 127.411211 
L 280.246432 127.010938 
L 281.310031 126.209561 
L 282.204938 125.969808 
L 283.409792 126.144139 
L 284.425448 124.90044 
L 285.198024 124.177529 
L 285.92184 123.93962 
L 286.757719 123.470514 
L 287.880578 121.8122 
L 289.366924 121.094281 
L 291.283251 120.891843 
L 292.880761 119.865452 
L 293.943845 119.92078 
L 294.275918 119.361722 
L 294.383513 117.892585 
L 295.670723 116.119433 
L 295.274799 114.756095 
L 295.334024 113.728196 
L 295.6915 112.547881 
L 297.280698 110.925966 
L 297.192807 109.993025 
L 297.426632 109.223029 
L 297.813185 108.437926 
L 298.769833 107.69314 
L 298.810829 104.308583 
L 299.485343 103.476367 
L 299.785973 102.448194 
L 299.744742 101.010531 
L 298.869368 98.901031 
L 299.024319 97.709779 
L 298.970787 96.993649 
L 298.046855 95.717441 
L 297.234863 93.967747 
L 296.889154 92.705062 
L 296.719008 91.373239 
L 296.953978 89.660235 
L 295.513159 86.358153 
L 295.209384 84.344497 
L 295.302907 83.599023 
L 294.975733 82.859758 
L 294.349038 81.774092 
L 294.253137 80.308305 
L 292.540385 77.383204 
L 292.301165 75.493481 
L 291.89304 74.637104 
L 290.890055 74.365538 
L 289.647191 73.388206 
L 288.787789 72.210306 
L 288.734794 71.19439 
L 288.502727 70.2249 
L 287.167728 69.243068 
L 286.388551 67.402601 
L 285.780834 64.91245 
L 284.70817 62.686968 
L 283.077858 60.863806 
L 281.686381 59.793507 
L 281.003618 58.749496 
L 280.457689 57.214177 
L 280.140815 55.085561 
L 278.840364 53.187146 
L 277.206559 51.243505 
L 276.779267 49.292083 
L 276.48547 47.415765 
L 275.952183 46.065256 
L 275.295075 45.091197 
L 274.374713 44.423065 
L 273.560831 43.113242 
L 272.782967 40.494388 
L 272.181703 39.141818 
L 272.181703 39.141818 
" clip-path="url(#pa2378e6bf5)" style="fill: none; stroke: #ff7f0e; stroke-width: 1.5; stroke-linecap: square"/>
   </g>
   <g id="text_2">
    <!-- SRV-cytd -->
    <g transform="translate(232.45625 28.56) scale(0.2 -0.2)">
     <defs>
      <path id="DejaVuSans-79" d="M 2059 -325 
Q 1816 -950 1584 -1140 
Q 1353 -1331 966 -1331 
L 506 -1331 
L 506 -850 
L 844 -850 
Q 1081 -850 1212 -737 
Q 1344 -625 1503 -206 
L 1606 56 
L 191 3500 
L 800 3500 
L 1894 763 
L 2988 3500 
L 3597 3500 
L 2059 -325 
z
" transform="scale(0.015625)"/>
      <path id="DejaVuSans-64" d="M 2906 2969 
L 2906 4863 
L 3481 4863 
L 3481 0 
L 2906 0 
L 2906 525 
Q 2725 213 2448 61 
Q 2172 -91 1784 -91 
Q 1150 -91 751 415 
Q 353 922 353 1747 
Q 353 2572 751 3078 
Q 1150 3584 1784 3584 
Q 2172 3584 2448 3432 
Q 2725 3281 2906 2969 
z
M 947 1747 
Q 947 1113 1208 752 
Q 1469 391 1925 391 
Q 2381 391 2643 752 
Q 2906 1113 2906 1747 
Q 2906 2381 2643 2742 
Q 2381 3103 1925 3103 
Q 1469 3103 1208 2742 
Q 947 2381 947 1747 
z
" transform="scale(0.015625)"/>
     </defs>
     <use xlink:href="#DejaVuSans-53"/>
     <use xlink:href="#DejaVuSans-52" x="63.476562"/>
     <use xlink:href="#DejaVuSans-56" x="127.458984"/>
     <use xlink:href="#DejaVuSans-2d" x="189.992188"/>
     <use xlink:href="#DejaVuSans-63" x="226.076172"/>
     <use xlink:href="#DejaVuSans-79" x="281.056641"/>
     <use xlink:href="#DejaVuSans-74" x="340.236328"/>
     <use xlink:href="#DejaVuSans-64" x="379.445312"/>
    </g>
   </g>
  </g>
  <g id="axes_3">
   <g id="line2d_3">
    <path d="M 437.575172 42.047539 
L 437.262851 42.395794 
L 436.534243 42.904074 
L 433.480348 43.594676 
L 432.793384 44.412582 
L 429.27734 46.074467 
L 428.813741 46.540186 
L 427.919582 47.178838 
L 425.968326 48.31492 
L 423.310409 49.072105 
L 421.561919 50.01412 
L 420.050074 51.401521 
L 419.573311 52.310271 
L 418.739943 53.367209 
L 416.191145 54.76314 
L 414.956101 55.994335 
L 414.476736 56.89316 
L 413.088283 57.803457 
L 411.234473 58.871498 
L 410.181397 60.586738 
L 408.773813 61.467618 
L 408.145699 62.156195 
L 407.829421 62.789386 
L 406.80347 64.012875 
L 405.145889 65.57776 
L 404.635834 67.426972 
L 402.588815 70.673211 
L 401.105061 72.490276 
L 400.733815 72.717164 
L 400.026163 73.676052 
L 399.074738 75.434773 
L 398.082793 76.322823 
L 397.822737 78.267946 
L 397.446346 79.721722 
L 396.93245 80.468071 
L 396.649248 81.348001 
L 396.683418 82.171769 
L 396.261893 82.903828 
L 395.647372 83.72298 
L 395.307095 86.953317 
L 394.771678 89.67665 
L 394.226688 90.436055 
L 393.958822 91.147172 
L 394.058983 92.318166 
L 392.952542 94.300513 
L 393.170623 96.179744 
L 393.222834 97.769582 
L 392.78974 99.277393 
L 392.612595 99.540398 
L 392.295526 100.443164 
L 392.106028 103.282439 
L 392.010457 103.447091 
L 391.845001 106.410502 
L 391.705422 106.930209 
L 391.596429 109.247982 
L 391.430178 110.149812 
L 391.351352 111.410032 
L 391.731183 112.821861 
L 392.260612 113.355135 
L 393.382267 113.904351 
L 394.14996 114.728483 
L 394.809776 116.645037 
L 396.13242 117.380823 
L 396.796724 118.299323 
L 397.210281 119.345161 
L 397.317574 120.490159 
L 397.635597 121.498568 
L 398.294911 122.275987 
L 399.243434 122.632764 
L 400.576484 122.819322 
L 401.701224 123.96729 
L 402.16799 125.187215 
L 402.701994 126.085871 
L 403.386921 126.669124 
L 407.238658 127.556528 
L 408.17427 128.135796 
L 408.797411 128.709557 
L 409.137903 129.19013 
L 409.923792 129.510975 
L 412.286954 129.398784 
L 413.634993 129.916337 
L 414.606446 130.485086 
L 415.552609 130.778182 
L 416.464354 130.711126 
L 417.273296 130.21645 
L 418.177442 130.024067 
L 419.731322 130.279922 
L 420.621141 130.101199 
L 421.491959 129.577982 
L 423.007899 129.331164 
L 424.674275 129.337966 
L 426.26347 129.892361 
L 427.375002 129.684051 
L 428.527619 128.810814 
L 429.746336 127.584497 
L 431.0531 127.113257 
L 432.290988 126.895542 
L 434.160155 125.502608 
L 435.074752 125.323592 
L 436.107775 124.776939 
L 437.502167 123.357365 
L 438.482562 122.791005 
L 439.287037 122.611026 
L 440.451844 121.619186 
L 441.428098 120.509766 
L 442.369214 119.917581 
L 443.490381 118.457886 
L 444.970329 117.702619 
L 446.702559 117.417804 
L 447.597304 116.656923 
L 448.24585 115.782109 
L 448.851841 115.526427 
L 449.24801 114.85337 
L 449.642874 113.121371 
L 450.51674 111.851255 
L 451.226906 111.023383 
L 451.24392 110.17177 
L 451.790299 108.878865 
L 452.641289 107.492155 
L 453.992995 106.313982 
L 454.659619 105.136679 
L 454.625163 103.707485 
L 454.988321 102.529838 
L 455.625456 101.657369 
L 456.102761 101.357517 
L 456.496319 100.893536 
L 456.608146 96.471175 
L 457.218814 95.583552 
L 457.507459 94.349532 
L 457.560413 92.847423 
L 456.917033 90.808463 
L 457.139457 88.987881 
L 457.032592 88.042944 
L 456.409872 87.135961 
L 455.742869 85.329962 
L 455.287793 83.69773 
L 455.283985 82.311829 
L 456.203592 80.384219 
L 455.716205 77.71977 
L 455.261508 75.983256 
L 455.321085 75.627575 
L 455.149503 75.040111 
L 454.565872 73.97397 
L 454.685613 73.452536 
L 454.683909 72.705769 
L 453.542582 71.227649 
L 452.708551 69.635403 
L 452.603259 67.822163 
L 452.275631 67.074127 
L 450.982609 65.804975 
L 450.018254 64.344732 
L 449.690521 62.514133 
L 448.486605 61.146188 
L 447.555469 59.347225 
L 447.030636 57.024573 
L 445.792668 54.833545 
L 443.947826 52.981879 
L 442.600046 52.331261 
L 441.885655 51.585313 
L 441.307274 50.580949 
L 440.867686 49.068562 
L 439.231884 47.415147 
L 436.767343 45.688204 
L 436.123446 44.618258 
L 435.734556 43.64709 
L 434.98364 42.839404 
L 433.845324 42.245746 
L 432.096244 41.752512 
L 430.74993 41.032528 
L 429.928959 40.06691 
L 428.755307 39.141818 
L 428.755307 39.141818 
" clip-path="url(#pbdc52a3ed1)" style="fill: none; stroke: #2ca02c; stroke-width: 1.5; stroke-linecap: square"/>
   </g>
   <g id="text_3">
    <!-- SRV-jasp -->
    <g transform="translate(381.384007 28.56) scale(0.2 -0.2)">
     <defs>
      <path id="DejaVuSans-6a" d="M 603 3500 
L 1178 3500 
L 1178 -63 
Q 1178 -731 923 -1031 
Q 669 -1331 103 -1331 
L -116 -1331 
L -116 -844 
L 38 -844 
Q 366 -844 484 -692 
Q 603 -541 603 -63 
L 603 3500 
z
M 603 4863 
L 1178 4863 
L 1178 4134 
L 603 4134 
L 603 4863 
z
" transform="scale(0.015625)"/>
      <path id="DejaVuSans-61" d="M 2194 1759 
Q 1497 1759 1228 1600 
Q 959 1441 959 1056 
Q 959 750 1161 570 
Q 1363 391 1709 391 
Q 2188 391 2477 730 
Q 2766 1069 2766 1631 
L 2766 1759 
L 2194 1759 
z
M 3341 1997 
L 3341 0 
L 2766 0 
L 2766 531 
Q 2569 213 2275 61 
Q 1981 -91 1556 -91 
Q 1019 -91 701 211 
Q 384 513 384 1019 
Q 384 1609 779 1909 
Q 1175 2209 1959 2209 
L 2766 2209 
L 2766 2266 
Q 2766 2663 2505 2880 
Q 2244 3097 1772 3097 
Q 1472 3097 1187 3025 
Q 903 2953 641 2809 
L 641 3341 
Q 956 3463 1253 3523 
Q 1550 3584 1831 3584 
Q 2591 3584 2966 3190 
Q 3341 2797 3341 1997 
z
" transform="scale(0.015625)"/>
      <path id="DejaVuSans-73" d="M 2834 3397 
L 2834 2853 
Q 2591 2978 2328 3040 
Q 2066 3103 1784 3103 
Q 1356 3103 1142 2972 
Q 928 2841 928 2578 
Q 928 2378 1081 2264 
Q 1234 2150 1697 2047 
L 1894 2003 
Q 2506 1872 2764 1633 
Q 3022 1394 3022 966 
Q 3022 478 2636 193 
Q 2250 -91 1575 -91 
Q 1294 -91 989 -36 
Q 684 19 347 128 
L 347 722 
Q 666 556 975 473 
Q 1284 391 1588 391 
Q 1994 391 2212 530 
Q 2431 669 2431 922 
Q 2431 1156 2273 1281 
Q 2116 1406 1581 1522 
L 1381 1569 
Q 847 1681 609 1914 
Q 372 2147 372 2553 
Q 372 3047 722 3315 
Q 1072 3584 1716 3584 
Q 2034 3584 2315 3537 
Q 2597 3491 2834 3397 
z
" transform="scale(0.015625)"/>
      <path id="DejaVuSans-70" d="M 1159 525 
L 1159 -1331 
L 581 -1331 
L 581 3500 
L 1159 3500 
L 1159 2969 
Q 1341 3281 1617 3432 
Q 1894 3584 2278 3584 
Q 2916 3584 3314 3078 
Q 3713 2572 3713 1747 
Q 3713 922 3314 415 
Q 2916 -91 2278 -91 
Q 1894 -91 1617 61 
Q 1341 213 1159 525 
z
M 3116 1747 
Q 3116 2381 2855 2742 
Q 2594 3103 2138 3103 
Q 1681 3103 1420 2742 
Q 1159 2381 1159 1747 
Q 1159 1113 1420 752 
Q 1681 391 2138 391 
Q 2594 391 2855 752 
Q 3116 1113 3116 1747 
z
" transform="scale(0.015625)"/>
     </defs>
     <use xlink:href="#DejaVuSans-53"/>
     <use xlink:href="#DejaVuSans-52" x="63.476562"/>
     <use xlink:href="#DejaVuSans-56" x="127.458984"/>
     <use xlink:href="#DejaVuSans-2d" x="189.992188"/>
     <use xlink:href="#DejaVuSans-6a" x="226.076172"/>
     <use xlink:href="#DejaVuSans-61" x="253.859375"/>
     <use xlink:href="#DejaVuSans-73" x="315.138672"/>
     <use xlink:href="#DejaVuSans-70" x="367.238281"/>
    </g>
   </g>
  </g>
  <g id="axes_4">
   <g id="line2d_4">
    <path d="M 133.741066 160.101818 
L 132.788147 160.783626 
L 132.483942 161.227908 
L 131.890922 161.771359 
L 127.358881 162.008156 
L 126.737826 162.739941 
L 123.518813 163.685813 
L 123.153797 164.185173 
L 122.436204 164.852417 
L 120.430442 165.807892 
L 118.638544 166.183414 
L 117.040953 166.041576 
L 115.364156 166.837435 
L 113.972383 167.862771 
L 113.647666 168.558563 
L 113.041954 169.314297 
L 110.522813 170.282198 
L 109.666278 171.122437 
L 109.344225 171.756002 
L 108.14098 172.39525 
L 106.480313 173.081613 
L 105.914382 174.398028 
L 104.297796 175.023191 
L 103.726077 175.541635 
L 103.576204 176.015467 
L 102.627006 176.883343 
L 100.984805 178.051238 
L 100.853069 178.824663 
L 100.531653 179.658789 
L 98.25335 182.492149 
L 96.179012 184.334676 
L 95.491906 185.357364 
L 94.557008 187.360581 
L 93.800002 187.745274 
L 93.094916 188.273934 
L 92.345 192.446252 
L 91.468179 193.286241 
L 91.119205 194.085564 
L 91.131281 195.065404 
L 89.977711 196.671016 
L 89.309221 200.507998 
L 89.234254 203.724729 
L 88.71052 204.56008 
L 88.495669 205.402138 
L 88.824423 206.739911 
L 87.779954 208.457064 
L 88.861778 212.424532 
L 88.422595 213.662662 
L 88.245118 213.855342 
L 88.000323 214.776651 
L 88.382619 218.38117 
L 88.141737 218.998033 
L 88.623346 221.194613 
L 89.343183 223.366746 
L 89.312402 223.272833 
L 90.777992 227.082948 
L 90.758079 227.231315 
L 90.748028 228.205657 
L 90.862547 229.587912 
L 91.545851 231.508494 
L 92.663584 232.635334 
L 94.519496 233.558728 
L 95.615101 234.863704 
L 96.622961 237.179325 
L 97.621496 237.686308 
L 98.679631 238.067008 
L 99.422064 238.944436 
L 99.906197 239.848064 
L 100.076661 240.786794 
L 100.508823 241.713245 
L 101.35363 242.547304 
L 105.301315 243.142708 
L 106.021512 243.680346 
L 106.56724 244.4496 
L 107.000889 245.616892 
L 107.525678 246.514461 
L 108.349769 247.050348 
L 110.457533 247.260473 
L 112.83999 247.360936 
L 113.712387 248.023738 
L 114.274802 248.769415 
L 114.483533 249.560979 
L 115.681694 249.938103 
L 118.485772 249.824489 
L 119.993313 250.42282 
L 120.969263 251.5032 
L 121.881558 251.738182 
L 122.739166 251.724763 
L 123.454587 251.03965 
L 124.357065 250.735744 
L 126.002152 251.353515 
L 126.91801 250.916191 
L 127.782884 250.287175 
L 129.698447 249.837463 
L 132.144544 249.442832 
L 134.149985 250.497958 
L 135.412213 250.394371 
L 136.520455 249.735128 
L 137.531875 248.61912 
L 139.005276 248.432678 
L 140.72843 248.469812 
L 141.571443 247.476256 
L 142.381212 246.862094 
L 143.517195 246.956822 
L 144.728986 246.571773 
L 146.056716 245.088201 
L 147.103235 244.739198 
L 148.168773 244.836694 
L 149.487023 243.907143 
L 150.594585 242.600746 
L 151.763645 242.917745 
L 152.582705 242.245058 
L 153.986255 239.929795 
L 155.914833 239.116683 
L 158.138291 238.898997 
L 159.025181 238.160321 
L 159.484908 237.177092 
L 159.920418 236.830479 
L 160.413168 236.114539 
L 161.137145 234.195652 
L 163.171057 231.809778 
L 163.086406 230.768455 
L 163.465823 229.545843 
L 164.216638 228.159444 
L 165.752633 227.022725 
L 166.428192 225.874192 
L 166.164348 224.269119 
L 166.523979 223.085523 
L 167.280563 222.197475 
L 167.969674 221.922877 
L 168.620256 221.313534 
L 169.040167 218.311267 
L 169.113381 215.677159 
L 169.815045 214.5803 
L 170.205614 213.019591 
L 170.308281 211.060536 
L 169.390373 208.970404 
L 170.265454 206.581454 
L 170.166687 205.673658 
L 169.903507 205.435752 
L 169.397472 204.563274 
L 167.951668 201.133529 
L 167.822753 200.08844 
L 168.511323 198.348858 
L 166.929434 192.951716 
L 166.999948 192.487413 
L 166.748672 191.698055 
L 166.090576 190.522434 
L 166.161497 189.347821 
L 163.623845 185.932996 
L 163.498348 184.287808 
L 163.033177 183.564206 
L 162.342196 183.369305 
L 161.303924 182.505245 
L 160.353796 181.189783 
L 160.069986 179.518029 
L 158.523918 178.340975 
L 157.521845 176.827282 
L 157.071228 174.84727 
L 155.707989 172.885961 
L 153.449474 171.275526 
L 151.469113 171.010458 
L 150.782436 170.420628 
L 150.303192 169.578369 
L 149.98943 168.567327 
L 148.95842 167.422846 
L 146.131558 166.424957 
L 145.591567 164.739093 
L 144.778848 164.054235 
L 143.55957 163.444864 
L 141.557313 163.061872 
L 140.188334 162.297561 
L 139.14606 161.197678 
L 137.328828 160.242106 
L 137.328828 160.242106 
" clip-path="url(#p3bccf55033)" style="fill: none; stroke: #1f77b4; stroke-width: 1.5; stroke-linecap: square"/>
   </g>
   <g id="text_4">
    <!-- Linear-control -->
    <g transform="translate(60.336305 149.52) scale(0.2 -0.2)">
     <defs>
      <path id="DejaVuSans-4c" d="M 628 4666 
L 1259 4666 
L 1259 531 
L 3531 531 
L 3531 0 
L 628 0 
L 628 4666 
z
" transform="scale(0.015625)"/>
      <path id="DejaVuSans-69" d="M 603 3500 
L 1178 3500 
L 1178 0 
L 603 0 
L 603 3500 
z
M 603 4863 
L 1178 4863 
L 1178 4134 
L 603 4134 
L 603 4863 
z
" transform="scale(0.015625)"/>
      <path id="DejaVuSans-65" d="M 3597 1894 
L 3597 1613 
L 953 1613 
Q 991 1019 1311 708 
Q 1631 397 2203 397 
Q 2534 397 2845 478 
Q 3156 559 3463 722 
L 3463 178 
Q 3153 47 2828 -22 
Q 2503 -91 2169 -91 
Q 1331 -91 842 396 
Q 353 884 353 1716 
Q 353 2575 817 3079 
Q 1281 3584 2069 3584 
Q 2775 3584 3186 3129 
Q 3597 2675 3597 1894 
z
M 3022 2063 
Q 3016 2534 2758 2815 
Q 2500 3097 2075 3097 
Q 1594 3097 1305 2825 
Q 1016 2553 972 2059 
L 3022 2063 
z
" transform="scale(0.015625)"/>
     </defs>
     <use xlink:href="#DejaVuSans-4c"/>
     <use xlink:href="#DejaVuSans-69" x="55.712891"/>
     <use xlink:href="#DejaVuSans-6e" x="83.496094"/>
     <use xlink:href="#DejaVuSans-65" x="146.875"/>
     <use xlink:href="#DejaVuSans-61" x="208.398438"/>
     <use xlink:href="#DejaVuSans-72" x="269.677734"/>
     <use xlink:href="#DejaVuSans-2d" x="304.416016"/>
     <use xlink:href="#DejaVuSans-63" x="340.5"/>
     <use xlink:href="#DejaVuSans-6f" x="395.480469"/>
     <use xlink:href="#DejaVuSans-6e" x="456.662109"/>
     <use xlink:href="#DejaVuSans-74" x="520.041016"/>
     <use xlink:href="#DejaVuSans-72" x="559.25"/>
     <use xlink:href="#DejaVuSans-6f" x="598.113281"/>
     <use xlink:href="#DejaVuSans-6c" x="659.294922"/>
    </g>
   </g>
  </g>
  <g id="axes_5">
   <g id="line2d_5">
    <path d="M 281.410929 160.101818 
L 280.662721 161.510594 
L 280.439833 163.25607 
L 279.674248 164.703165 
L 278.035679 165.865393 
L 277.53644 167.077584 
L 277.309142 168.437549 
L 276.410317 169.654976 
L 275.118485 170.866308 
L 274.934121 172.827445 
L 274.133898 174.475574 
L 272.589158 175.982711 
L 271.100407 176.579638 
L 269.355816 176.539512 
L 268.098396 177.40058 
L 266.978277 178.458165 
L 266.551738 179.615025 
L 265.723376 180.577296 
L 263.851441 181.727463 
L 262.700335 182.627629 
L 262.110357 183.573077 
L 258.898976 184.888209 
L 258.344943 185.789224 
L 258.025124 186.566711 
L 256.640445 187.020504 
L 255.950557 187.65403 
L 255.848211 188.489188 
L 254.984801 189.469625 
L 252.955098 190.462958 
L 253.052955 191.723707 
L 252.43848 192.777789 
L 249.338431 196.999947 
L 248.709082 197.366462 
L 248.037311 198.330493 
L 247.146881 200.107124 
L 246.269518 200.721232 
L 245.165405 201.118394 
L 244.390942 204.454329 
L 243.463958 204.937253 
L 243.178417 205.691096 
L 244.184205 207.075038 
L 243.715777 207.593225 
L 242.623268 208.3175 
L 242.196311 210.214191 
L 241.997832 212.297009 
L 241.318982 213.269922 
L 241.023259 214.076731 
L 241.413065 215.374155 
L 241.167929 216.148251 
L 240.694689 216.927396 
L 241.082196 218.265013 
L 242.447543 219.669871 
L 242.364668 220.40926 
L 242.444026 221.10463 
L 241.995874 222.344701 
L 241.945985 224.500739 
L 241.605195 225.510676 
L 241.557473 226.755869 
L 242.199629 229.197798 
L 242.00129 229.901672 
L 242.505169 231.910927 
L 242.997778 232.769191 
L 242.88856 233.30934 
L 243.229111 233.828724 
L 243.139716 234.871634 
L 243.400752 236.055966 
L 244.460123 236.642502 
L 245.745299 236.586752 
L 246.384628 237.08756 
L 246.592772 238.395436 
L 247.422638 238.815427 
L 249.344954 238.751916 
L 249.99728 239.851499 
L 249.56273 241.405985 
L 249.640448 242.022454 
L 250.24919 242.420015 
L 251.86775 242.072537 
L 253.774684 242.041847 
L 255.070255 243.376022 
L 255.387879 244.897021 
L 255.398011 246.252236 
L 255.972695 246.58351 
L 258.031248 246.240172 
L 259.981546 246.209643 
L 261.786865 247.570089 
L 262.083591 248.63815 
L 264.478798 248.737496 
L 265.346187 249.190297 
L 265.924722 250.60987 
L 266.401472 250.847035 
L 267.115374 250.862663 
L 267.941891 250.570072 
L 268.805111 250.458871 
L 270.380363 251.738182 
L 271.315884 251.330214 
L 272.130069 250.563487 
L 273.471747 250.188831 
L 274.821595 249.936465 
L 276.307714 250.317059 
L 276.905909 250.144929 
L 277.53716 249.638608 
L 278.362666 248.641494 
L 279.158458 248.507615 
L 280.22326 248.62657 
L 280.871663 247.721479 
L 281.640417 247.294736 
L 283.194537 247.931856 
L 284.046974 247.522946 
L 285.188006 246.417574 
L 286.275355 246.201055 
L 288.43225 247.204188 
L 289.486066 244.963995 
L 290.246667 243.952345 
L 291.324667 243.850183 
L 292.596498 243.403977 
L 293.713207 241.141648 
L 295.829838 240.652233 
L 298.818265 241.081131 
L 299.958336 240.261233 
L 300.693644 239.588884 
L 303.433943 240.953599 
L 303.836674 240.215921 
L 303.628906 238.101135 
L 305.354494 236.778508 
L 306.030392 235.868524 
L 305.732056 234.924992 
L 305.098778 233.835868 
L 305.31947 232.61784 
L 305.79467 231.24557 
L 307.937355 230.431487 
L 309.558855 230.076711 
L 309.238032 228.86383 
L 309.545125 227.967856 
L 310.077565 226.941544 
L 311.725761 226.085747 
L 311.409938 222.13709 
L 312.44816 221.298203 
L 312.805311 220.163855 
L 312.735031 218.654552 
L 311.347762 216.440642 
L 311.757829 215.024329 
L 311.758103 214.129828 
L 311.397157 213.61341 
L 310.495287 212.627352 
L 309.448467 210.673803 
L 309.040781 209.312753 
L 308.780752 208.032327 
L 309.254811 206.105001 
L 307.75032 202.961672 
L 307.33991 200.960338 
L 307.540364 200.077474 
L 307.060686 199.343566 
L 306.160739 198.239075 
L 306.003138 197.563527 
L 305.940682 196.652349 
L 305.013187 195.271415 
L 303.973819 193.962841 
L 303.930014 192.133279 
L 303.559137 191.292904 
L 301.872218 191.38692 
L 300.566067 190.607053 
L 299.739923 189.524157 
L 299.764568 188.423414 
L 299.516883 187.42688 
L 297.88907 186.569478 
L 297.180009 184.854299 
L 296.779049 182.481297 
L 295.835377 180.521986 
L 294.294825 179.037802 
L 293.274856 178.671137 
L 292.621647 178.178738 
L 292.053421 177.300618 
L 291.643882 175.99871 
L 291.592377 173.974787 
L 290.374762 172.329205 
L 288.667286 170.800746 
L 288.393146 169.115594 
L 288.269063 167.42183 
L 287.853814 166.306892 
L 287.260457 165.385519 
L 286.004772 164.923616 
L 285.281661 163.786209 
L 284.72632 161.462838 
L 284.121968 160.171066 
L 284.121968 160.171066 
" clip-path="url(#p682ee0e71b)" style="fill: none; stroke: #ff7f0e; stroke-width: 1.5; stroke-linecap: square"/>
   </g>
   <g id="text_5">
    <!-- Linear-cytd -->
    <g transform="translate(221.014062 149.52) scale(0.2 -0.2)">
     <use xlink:href="#DejaVuSans-4c"/>
     <use xlink:href="#DejaVuSans-69" x="55.712891"/>
     <use xlink:href="#DejaVuSans-6e" x="83.496094"/>
     <use xlink:href="#DejaVuSans-65" x="146.875"/>
     <use xlink:href="#DejaVuSans-61" x="208.398438"/>
     <use xlink:href="#DejaVuSans-72" x="269.677734"/>
     <use xlink:href="#DejaVuSans-2d" x="304.416016"/>
     <use xlink:href="#DejaVuSans-63" x="340.5"/>
     <use xlink:href="#DejaVuSans-79" x="395.480469"/>
     <use xlink:href="#DejaVuSans-74" x="454.660156"/>
     <use xlink:href="#DejaVuSans-64" x="493.869141"/>
    </g>
   </g>
  </g>
  <g id="axes_6">
   <g id="line2d_6">
    <path d="M 431.818731 160.160028 
L 430.335127 160.622506 
L 429.976378 161.006454 
L 429.224529 161.468168 
L 426.230388 161.94667 
L 425.475398 162.918351 
L 423.519746 163.48749 
L 421.942921 164.146392 
L 421.480443 164.61192 
L 420.558684 165.233642 
L 418.748242 166.283627 
L 417.240616 166.670086 
L 416.000107 166.795097 
L 414.349617 167.686758 
L 412.870455 169.002008 
L 412.386474 169.885729 
L 411.593875 170.875235 
L 409.121834 172.029208 
L 407.98311 173.210317 
L 407.611363 174.239215 
L 406.257265 175.021318 
L 404.491549 175.889815 
L 403.520414 177.638893 
L 402.066575 178.356496 
L 401.419519 178.978556 
L 401.105218 179.604825 
L 400.161554 180.778923 
L 398.516095 182.215602 
L 398.898588 182.831501 
L 398.66402 183.935081 
L 396.867615 186.937001 
L 395.49183 188.610436 
L 395.041431 188.835785 
L 394.392667 189.817836 
L 393.548072 191.490465 
L 392.520999 192.367507 
L 392.344923 194.171394 
L 391.975142 195.54645 
L 391.382125 196.274825 
L 391.125265 197.169671 
L 391.440947 198.093526 
L 390.992894 198.791359 
L 390.275871 199.611386 
L 389.975394 202.617133 
L 389.565251 205.126745 
L 388.941398 205.881618 
L 388.640314 206.616305 
L 388.947023 207.840031 
L 388.220822 208.752484 
L 387.680052 209.73044 
L 388.077417 211.49858 
L 388.290994 213.125102 
L 387.851233 214.936218 
L 387.561299 215.326373 
L 387.243778 216.444356 
L 387.338404 219.897255 
L 387.121263 220.0966 
L 387.135431 221.900627 
L 387.364435 223.463414 
L 387.70313 224.400632 
L 387.584012 225.11024 
L 387.720783 227.517134 
L 387.886176 228.310476 
L 387.691277 229.481989 
L 387.585146 231.082166 
L 388.144914 232.709663 
L 388.897775 233.395595 
L 390.645181 233.926252 
L 391.597127 234.879506 
L 392.102898 237.180291 
L 393.872383 237.919417 
L 394.459954 238.844769 
L 394.844147 239.904681 
L 394.831674 241.223921 
L 395.143841 242.325225 
L 395.854345 243.208042 
L 397.089071 243.510215 
L 398.873916 243.078953 
L 399.448908 243.60981 
L 400.046568 244.31851 
L 400.507174 245.825265 
L 401.069021 246.860495 
L 401.807995 247.496848 
L 405.987843 248.024513 
L 406.922841 248.671509 
L 407.65213 249.367748 
L 408.045555 250.001921 
L 408.942137 250.384068 
L 411.457778 250.069432 
L 412.83519 250.682606 
L 413.875144 251.377565 
L 414.852704 251.738182 
L 415.837173 251.692864 
L 416.667913 251.067394 
L 417.620849 250.893486 
L 419.165363 251.251946 
L 420.158142 251.101264 
L 421.09965 250.471325 
L 422.685498 250.201202 
L 424.406636 250.176903 
L 426.093499 250.939577 
L 427.300616 250.688362 
L 428.478212 249.772713 
L 429.594735 247.67891 
L 430.897555 247.1474 
L 432.22264 246.939337 
L 433.204518 246.234657 
L 434.11505 245.377978 
L 435.142484 245.289857 
L 436.197966 244.769129 
L 437.512908 243.24829 
L 438.587647 242.658312 
L 439.588053 242.539043 
L 440.728002 241.508649 
L 441.673485 240.20404 
L 442.820291 239.557092 
L 444.071569 237.740111 
L 446.264812 237.168507 
L 449.082894 237.063919 
L 450.200826 236.156847 
L 450.923535 235.027157 
L 451.954577 234.873431 
L 452.425821 234.138737 
L 452.740392 232.219076 
L 453.769892 230.943874 
L 454.627624 230.108848 
L 454.62757 229.004719 
L 455.220434 227.603981 
L 456.401063 226.659928 
L 458.225675 225.638537 
L 458.903827 224.517432 
L 458.751677 223.133288 
L 459.105437 222.008438 
L 459.723773 221.123651 
L 460.325596 220.811441 
L 460.743124 220.281325 
L 460.512643 215.756058 
L 461.37693 214.826449 
L 461.680031 213.575331 
L 461.790502 212.078002 
L 461.031208 210.075027 
L 461.428118 208.184327 
L 461.369208 207.252851 
L 461.105794 206.989479 
L 460.593099 206.260535 
L 459.920253 204.493045 
L 459.508327 202.94996 
L 459.525323 201.639982 
L 460.248134 200.845071 
L 460.864871 199.747648 
L 459.546727 194.019355 
L 458.714367 192.85217 
L 459.043398 192.23804 
L 459.045475 191.43268 
L 457.823312 190.053894 
L 456.991624 188.556207 
L 457.23481 186.588737 
L 456.920439 185.887067 
L 455.503755 184.630851 
L 454.584987 183.29991 
L 454.349778 181.423177 
L 453.087418 180.139032 
L 452.262334 178.485318 
L 451.852087 176.26045 
L 450.71371 174.269537 
L 449.050118 172.62716 
L 447.575347 172.125615 
L 446.852955 171.407246 
L 446.320556 170.470032 
L 446.018746 168.921158 
L 444.491323 167.519554 
L 442.172219 166.068059 
L 441.596743 165.079845 
L 441.292849 164.11986 
L 440.637257 163.382904 
L 439.559179 162.888065 
L 437.813516 162.560638 
L 436.520514 161.998469 
L 435.808192 160.960013 
L 434.572837 160.101818 
L 434.572837 160.101818 
" clip-path="url(#pcad8661a24)" style="fill: none; stroke: #2ca02c; stroke-width: 1.5; stroke-linecap: square"/>
   </g>
   <g id="text_6">
    <!-- Linear-jasp -->
    <g transform="translate(369.94182 149.52) scale(0.2 -0.2)">
     <use xlink:href="#DejaVuSans-4c"/>
     <use xlink:href="#DejaVuSans-69" x="55.712891"/>
     <use xlink:href="#DejaVuSans-6e" x="83.496094"/>
     <use xlink:href="#DejaVuSans-65" x="146.875"/>
     <use xlink:href="#DejaVuSans-61" x="208.398438"/>
     <use xlink:href="#DejaVuSans-72" x="269.677734"/>
     <use xlink:href="#DejaVuSans-2d" x="304.416016"/>
     <use xlink:href="#DejaVuSans-6a" x="340.5"/>
     <use xlink:href="#DejaVuSans-61" x="368.283203"/>
     <use xlink:href="#DejaVuSans-73" x="429.5625"/>
     <use xlink:href="#DejaVuSans-70" x="481.662109"/>
    </g>
   </g>
  </g>
 </g>
 <defs>
  <clipPath id="p6364ff0366">
   <rect x="67.5" y="34.56" width="123.088235" height="100.8"/>
  </clipPath>
  <clipPath id="pa2378e6bf5">
   <rect x="215.205882" y="34.56" width="123.088235" height="100.8"/>
  </clipPath>
  <clipPath id="pbdc52a3ed1">
   <rect x="362.911765" y="34.56" width="123.088235" height="100.8"/>
  </clipPath>
  <clipPath id="p3bccf55033">
   <rect x="67.5" y="155.52" width="123.088235" height="100.8"/>
  </clipPath>
  <clipPath id="p682ee0e71b">
   <rect x="215.205882" y="155.52" width="123.088235" height="100.8"/>
  </clipPath>
  <clipPath id="pcad8661a24">
   <rect x="362.911765" y="155.52" width="123.088235" height="100.8"/>
  </clipPath>
 </defs>
</svg>
