<?xml version="1.0" encoding="utf-8" standalone="no"?>
<!DOCTYPE svg PUBLIC "-//W3C//DTD SVG 1.1//EN"
  "http://www.w3.org/Graphics/SVG/1.1/DTD/svg11.dtd">
<svg xmlns:xlink="http://www.w3.org/1999/xlink" width="540pt" height="288pt" viewBox="0 0 540 288" xmlns="http://www.w3.org/2000/svg" version="1.1">
 <metadata>
  <rdf:RDF xmlns:dc="http://purl.org/dc/elements/1.1/" xmlns:cc="http://creativecommons.org/ns#" xmlns:rdf="http://www.w3.org/1999/02/22-rdf-syntax-ns#">
   <cc:Work>
    <dc:type rdf:resource="http://purl.org/dc/dcmitype/StillImage"/>
    <dc:date>2024-04-25T17:12:29.623564</dc:date>
    <dc:format>image/svg+xml</dc:format>
    <dc:creator>
     <cc:Agent>
      <dc:title>Matplotlib v3.8.4, https://matplotlib.org/</dc:title>
     </cc:Agent>
    </dc:creator>
   </cc:Work>
  </rdf:RDF>
 </metadata>
 <defs>
  <style type="text/css">*{stroke-linejoin: round; stroke-linecap: butt}</style>
 </defs>
 <g id="figure_1">
  <g id="patch_1">
   <path d="M 0 288 
L 540 288 
L 540 0 
L 0 0 
z
" style="fill: #ffffff"/>
  </g>
  <g id="axes_1">
   <g id="line2d_1">
    <path d="M 184.43238 85.676931 
L 183.206143 84.541681 
L 182.515416 83.696359 
L 182.11561 82.844858 
L 181.704524 81.399691 
L 181.459836 79.955703 
L 181.253598 78.629995 
L 180.315356 75.765739 
L 178.49003 72.575513 
L 177.134826 70.463486 
L 175.666478 67.949425 
L 173.636108 65.197833 
L 169.362428 60.361866 
L 165.857434 57.249365 
L 161.952225 54.54825 
L 153.19499 48.677335 
L 152.073384 48.134251 
L 138.661004 43.378041 
L 135.93839 42.855856 
L 133.568096 42.438139 
L 131.486676 42.148226 
L 128.811133 41.784054 
L 122.793278 41.702239 
L 119.557644 42.040777 
L 113.574016 42.713816 
L 111.583532 43.18776 
L 107.473985 43.937838 
L 104.715749 44.895257 
L 103.616874 45.294705 
L 102.474807 45.745072 
L 100.071482 46.80624 
L 99.013407 47.312079 
L 94.400257 49.667882 
L 91.540107 51.471733 
L 88.795855 53.583989 
L 86.331931 55.64353 
L 83.899256 58.153495 
L 81.252072 61.471021 
L 80.14905 63.240733 
L 76.381676 70.063459 
L 75.290325 72.980999 
L 74.71395 74.971835 
L 74.303706 76.281955 
L 73.926371 77.860507 
L 73.477654 79.586692 
L 73.116665 83.484379 
L 73.240854 85.47217 
L 73.362901 88.16551 
L 73.588451 90.005908 
L 74.169064 92.773507 
L 74.371188 93.708813 
L 75.359311 96.692472 
L 76.122137 98.341304 
L 76.694261 99.554911 
L 77.676099 101.294516 
L 78.330334 102.490447 
L 81.685488 107.141635 
L 82.460442 108.200067 
L 88.297394 114.266567 
L 91.84056 116.743268 
L 98.820014 121.10069 
L 101.148167 122.141023 
L 103.923001 123.444346 
L 109.297365 125.539658 
L 111.661774 126.143062 
L 113.138101 126.542192 
L 115.268981 127.089406 
L 118.82732 127.559217 
L 121.646671 127.820268 
L 125.298684 128.049797 
L 127.484197 128.235196 
L 129.591011 128.208341 
L 131.150484 128.022802 
L 134.858807 127.534699 
L 136.916542 127.209529 
L 139.202548 126.732467 
L 141.726702 126.000277 
L 143.235631 125.655583 
L 146.823452 124.727538 
L 148.285832 124.239853 
L 153.544824 122.162649 
L 158.790263 119.227933 
L 160.212625 118.413997 
L 162.583771 117.067791 
L 163.52714 116.555104 
L 165.206855 115.761928 
L 166.114698 115.207109 
L 167.174846 114.309606 
L 170.74626 111.228813 
L 171.986537 109.768118 
L 173.557413 107.923784 
L 174.661531 106.55611 
L 179.41189 99.434093 
L 180.519927 97.470712 
L 181.3493 95.4294 
L 181.676798 94.4173 
L 182.072396 93.10474 
L 182.658857 91.364836 
L 184.016716 86.142392 
L 184.701712 84.611623 
L 184.993316 83.823441 
L 184.993316 83.823441 
" clip-path="url(#p769a608a99)" style="fill: none; stroke: #1f77b4; stroke-width: 1.5; stroke-linecap: square"/>
   </g>
   <g id="text_1">
    <!-- SRV-control -->
    <g transform="translate(71.778493 28.56) scale(0.2 -0.2)">
     <defs>
      <path id="DejaVuSans-53" d="M 3425 4513 
L 3425 3897 
Q 3066 4069 2747 4153 
Q 2428 4238 2131 4238 
Q 1616 4238 1336 4038 
Q 1056 3838 1056 3469 
Q 1056 3159 1242 3001 
Q 1428 2844 1947 2747 
L 2328 2669 
Q 3034 2534 3370 2195 
Q 3706 1856 3706 1288 
Q 3706 609 3251 259 
Q 2797 -91 1919 -91 
Q 1588 -91 1214 -16 
Q 841 59 441 206 
L 441 856 
Q 825 641 1194 531 
Q 1563 422 1919 422 
Q 2459 422 2753 634 
Q 3047 847 3047 1241 
Q 3047 1584 2836 1778 
Q 2625 1972 2144 2069 
L 1759 2144 
Q 1053 2284 737 2584 
Q 422 2884 422 3419 
Q 422 4038 858 4394 
Q 1294 4750 2059 4750 
Q 2388 4750 2728 4690 
Q 3069 4631 3425 4513 
z
" transform="scale(0.015625)"/>
      <path id="DejaVuSans-52" d="M 2841 2188 
Q 3044 2119 3236 1894 
Q 3428 1669 3622 1275 
L 4263 0 
L 3584 0 
L 2988 1197 
Q 2756 1666 2539 1819 
Q 2322 1972 1947 1972 
L 1259 1972 
L 1259 0 
L 628 0 
L 628 4666 
L 2053 4666 
Q 2853 4666 3247 4331 
Q 3641 3997 3641 3322 
Q 3641 2881 3436 2590 
Q 3231 2300 2841 2188 
z
M 1259 4147 
L 1259 2491 
L 2053 2491 
Q 2509 2491 2742 2702 
Q 2975 2913 2975 3322 
Q 2975 3731 2742 3939 
Q 2509 4147 2053 4147 
L 1259 4147 
z
" transform="scale(0.015625)"/>
      <path id="DejaVuSans-56" d="M 1831 0 
L 50 4666 
L 709 4666 
L 2188 738 
L 3669 4666 
L 4325 4666 
L 2547 0 
L 1831 0 
z
" transform="scale(0.015625)"/>
      <path id="DejaVuSans-2d" d="M 313 2009 
L 1997 2009 
L 1997 1497 
L 313 1497 
L 313 2009 
z
" transform="scale(0.015625)"/>
      <path id="DejaVuSans-63" d="M 3122 3366 
L 3122 2828 
Q 2878 2963 2633 3030 
Q 2388 3097 2138 3097 
Q 1578 3097 1268 2742 
Q 959 2388 959 1747 
Q 959 1106 1268 751 
Q 1578 397 2138 397 
Q 2388 397 2633 464 
Q 2878 531 3122 666 
L 3122 134 
Q 2881 22 2623 -34 
Q 2366 -91 2075 -91 
Q 1284 -91 818 406 
Q 353 903 353 1747 
Q 353 2603 823 3093 
Q 1294 3584 2113 3584 
Q 2378 3584 2631 3529 
Q 2884 3475 3122 3366 
z
" transform="scale(0.015625)"/>
      <path id="DejaVuSans-6f" d="M 1959 3097 
Q 1497 3097 1228 2736 
Q 959 2375 959 1747 
Q 959 1119 1226 758 
Q 1494 397 1959 397 
Q 2419 397 2687 759 
Q 2956 1122 2956 1747 
Q 2956 2369 2687 2733 
Q 2419 3097 1959 3097 
z
M 1959 3584 
Q 2709 3584 3137 3096 
Q 3566 2609 3566 1747 
Q 3566 888 3137 398 
Q 2709 -91 1959 -91 
Q 1206 -91 779 398 
Q 353 888 353 1747 
Q 353 2609 779 3096 
Q 1206 3584 1959 3584 
z
" transform="scale(0.015625)"/>
      <path id="DejaVuSans-6e" d="M 3513 2113 
L 3513 0 
L 2938 0 
L 2938 2094 
Q 2938 2591 2744 2837 
Q 2550 3084 2163 3084 
Q 1697 3084 1428 2787 
Q 1159 2491 1159 1978 
L 1159 0 
L 581 0 
L 581 3500 
L 1159 3500 
L 1159 2956 
Q 1366 3272 1645 3428 
Q 1925 3584 2291 3584 
Q 2894 3584 3203 3211 
Q 3513 2838 3513 2113 
z
" transform="scale(0.015625)"/>
      <path id="DejaVuSans-74" d="M 1172 4494 
L 1172 3500 
L 2356 3500 
L 2356 3053 
L 1172 3053 
L 1172 1153 
Q 1172 725 1289 603 
Q 1406 481 1766 481 
L 2356 481 
L 2356 0 
L 1766 0 
Q 1100 0 847 248 
Q 594 497 594 1153 
L 594 3053 
L 172 3053 
L 172 3500 
L 594 3500 
L 594 4494 
L 1172 4494 
z
" transform="scale(0.015625)"/>
      <path id="DejaVuSans-72" d="M 2631 2963 
Q 2534 3019 2420 3045 
Q 2306 3072 2169 3072 
Q 1681 3072 1420 2755 
Q 1159 2438 1159 1844 
L 1159 0 
L 581 0 
L 581 3500 
L 1159 3500 
L 1159 2956 
Q 1341 3275 1631 3429 
Q 1922 3584 2338 3584 
Q 2397 3584 2469 3576 
Q 2541 3569 2628 3553 
L 2631 2963 
z
" transform="scale(0.015625)"/>
      <path id="DejaVuSans-6c" d="M 603 4863 
L 1178 4863 
L 1178 0 
L 603 0 
L 603 4863 
z
" transform="scale(0.015625)"/>
     </defs>
     <use xlink:href="#DejaVuSans-53"/>
     <use xlink:href="#DejaVuSans-52" x="63.476562"/>
     <use xlink:href="#DejaVuSans-56" x="127.458984"/>
     <use xlink:href="#DejaVuSans-2d" x="189.992188"/>
     <use xlink:href="#DejaVuSans-63" x="226.076172"/>
     <use xlink:href="#DejaVuSans-6f" x="281.056641"/>
     <use xlink:href="#DejaVuSans-6e" x="342.238281"/>
     <use xlink:href="#DejaVuSans-74" x="405.617188"/>
     <use xlink:href="#DejaVuSans-72" x="444.826172"/>
     <use xlink:href="#DejaVuSans-6f" x="483.689453"/>
     <use xlink:href="#DejaVuSans-6c" x="544.871094"/>
    </g>
   </g>
  </g>
  <g id="axes_2">
   <g id="line2d_2">
    <path d="M 329.724985 88.54248 
L 329.043259 88.298875 
L 328.209506 87.703701 
L 327.117712 86.857921 
L 324.237108 83.636098 
L 323.607234 82.93358 
L 322.909745 82.249208 
L 321.066606 80.760483 
L 320.718981 80.516069 
L 318.925656 79.578085 
L 317.218504 78.455234 
L 315.639533 77.127768 
L 314.805528 76.596933 
L 313.985159 76.041599 
L 313.29673 75.719155 
L 311.899199 74.951464 
L 310.021768 73.833126 
L 309.16308 73.673715 
L 307.847793 73.385412 
L 307.179781 73.289355 
L 306.314231 73.069318 
L 302.555142 71.582544 
L 301.011039 70.953594 
L 299.711666 70.348396 
L 298.401565 69.619406 
L 297.170738 68.752906 
L 295.499912 67.767059 
L 293.484691 66.739753 
L 292.982588 66.44221 
L 292.372893 66.020894 
L 291.71016 65.633439 
L 291.011267 65.204146 
L 288.811269 64.208496 
L 288.165544 63.683431 
L 286.768711 62.947145 
L 280.72308 61.591397 
L 279.885371 61.204246 
L 278.464394 60.75119 
L 276.882803 60.009705 
L 276.142953 59.809998 
L 274.824084 59.843996 
L 273.836694 59.991968 
L 272.350732 60.062565 
L 270.238674 60.057559 
L 267.645847 60.287478 
L 266.246987 60.413028 
L 265.568839 60.386341 
L 264.770176 60.286027 
L 263.515774 60.045881 
L 263.016705 60.01331 
L 259.903411 60.287111 
L 258.381702 60.227198 
L 257.489447 60.205635 
L 256.829739 60.234627 
L 256.185623 60.499092 
L 254.770242 60.589753 
L 253.87403 60.61313 
L 252.54675 61.049967 
L 249.942101 61.893176 
L 248.365233 62.567052 
L 246.128062 63.184483 
L 238.10204 66.214044 
L 236.955929 66.549785 
L 235.23738 66.855909 
L 234.060584 67.263288 
L 233.361976 67.610895 
L 232.832846 67.893062 
L 232.121843 68.3087 
L 231.317434 68.941568 
L 230.39812 69.791371 
L 228.838724 71.007925 
L 225.768125 73.016015 
L 224.957529 73.761202 
L 223.075908 76.048556 
L 222.227542 77.730301 
L 221.773977 79.165651 
L 221.307934 80.474333 
L 220.800802 82.912564 
L 220.910469 84.155151 
L 221.164182 85.447198 
L 221.592711 86.599409 
L 222.02913 87.587085 
L 222.264344 88.033276 
L 224.007723 90.252582 
L 225.259774 91.612514 
L 225.604149 92.124144 
L 226.183973 92.626743 
L 226.666289 93.116038 
L 227.97377 93.934454 
L 228.483369 94.245948 
L 232.04956 96.785048 
L 233.48166 97.524171 
L 238.817651 100.296068 
L 241.56792 101.069175 
L 250.432656 105.409271 
L 254.127058 106.827819 
L 257.134534 107.359308 
L 257.930643 107.358538 
L 258.878781 107.721719 
L 259.310411 107.864704 
L 260.498557 108.181997 
L 261.439771 108.330797 
L 262.194794 108.475676 
L 263.83911 108.963227 
L 264.578351 109.113549 
L 265.316936 109.286911 
L 269.160766 109.69483 
L 270.359159 109.721998 
L 271.101875 109.835659 
L 272.014229 110.053037 
L 274.51885 110.12192 
L 275.550998 109.904653 
L 275.957322 109.749594 
L 276.617385 109.514323 
L 277.234148 109.41041 
L 278.254008 109.372138 
L 279.314227 109.157767 
L 280.257681 109.033159 
L 281.047019 108.990484 
L 283.69424 108.34976 
L 284.911823 108.112955 
L 286.912809 107.768829 
L 289.017564 106.914658 
L 289.806349 106.610777 
L 290.80809 106.175095 
L 292.920306 105.567169 
L 294.871499 104.614802 
L 295.681124 104.179955 
L 296.527945 103.757989 
L 298.249921 102.760793 
L 301.273694 101.447616 
L 302.417469 100.843931 
L 303.070415 100.605978 
L 304.142183 100.021393 
L 305.490947 99.365112 
L 306.414716 98.810393 
L 309.50695 97.167352 
L 311.742414 95.678589 
L 313.235536 94.848229 
L 314.001287 94.469696 
L 314.988573 93.991759 
L 315.898842 93.530997 
L 317.17792 92.797886 
L 318.278408 92.355857 
L 319.282382 91.83586 
L 320.102852 91.396676 
L 321.576491 90.599606 
L 323.220084 89.45243 
L 323.93935 89.193189 
L 325.056527 88.858026 
L 326.277839 87.720312 
L 327.27085 86.820633 
L 329.573773 84.825316 
L 330.069985 84.337553 
L 331.317296 83.021459 
L 331.876785 82.402555 
L 332.609479 81.640461 
L 332.699198 81.467591 
L 332.699198 81.467591 
" clip-path="url(#p8edc7ecdb2)" style="fill: none; stroke: #ff7f0e; stroke-width: 1.5; stroke-linecap: square"/>
   </g>
   <g id="text_2">
    <!-- SRV-cytd -->
    <g transform="translate(232.45625 28.56) scale(0.2 -0.2)">
     <defs>
      <path id="DejaVuSans-79" d="M 2059 -325 
Q 1816 -950 1584 -1140 
Q 1353 -1331 966 -1331 
L 506 -1331 
L 506 -850 
L 844 -850 
Q 1081 -850 1212 -737 
Q 1344 -625 1503 -206 
L 1606 56 
L 191 3500 
L 800 3500 
L 1894 763 
L 2988 3500 
L 3597 3500 
L 2059 -325 
z
" transform="scale(0.015625)"/>
      <path id="DejaVuSans-64" d="M 2906 2969 
L 2906 4863 
L 3481 4863 
L 3481 0 
L 2906 0 
L 2906 525 
Q 2725 213 2448 61 
Q 2172 -91 1784 -91 
Q 1150 -91 751 415 
Q 353 922 353 1747 
Q 353 2572 751 3078 
Q 1150 3584 1784 3584 
Q 2172 3584 2448 3432 
Q 2725 3281 2906 2969 
z
M 947 1747 
Q 947 1113 1208 752 
Q 1469 391 1925 391 
Q 2381 391 2643 752 
Q 2906 1113 2906 1747 
Q 2906 2381 2643 2742 
Q 2381 3103 1925 3103 
Q 1469 3103 1208 2742 
Q 947 2381 947 1747 
z
" transform="scale(0.015625)"/>
     </defs>
     <use xlink:href="#DejaVuSans-53"/>
     <use xlink:href="#DejaVuSans-52" x="63.476562"/>
     <use xlink:href="#DejaVuSans-56" x="127.458984"/>
     <use xlink:href="#DejaVuSans-2d" x="189.992188"/>
     <use xlink:href="#DejaVuSans-63" x="226.076172"/>
     <use xlink:href="#DejaVuSans-79" x="281.056641"/>
     <use xlink:href="#DejaVuSans-74" x="340.236328"/>
     <use xlink:href="#DejaVuSans-64" x="379.445312"/>
    </g>
   </g>
  </g>
  <g id="axes_3">
   <g id="line2d_3">
    <path d="M 480.40508 88.05129 
L 479.847049 87.647877 
L 479.365257 86.998931 
L 478.974148 86.110126 
L 477.891205 82.988236 
L 477.660716 82.354413 
L 475.643478 78.528041 
L 475.349787 77.923236 
L 474.62726 76.764681 
L 472.372717 73.523273 
L 471.086173 72.139617 
L 469.304363 70.17247 
L 466.118291 67.557843 
L 464.780523 66.816098 
L 463.721747 66.032265 
L 462.97671 65.404419 
L 462.39077 64.926875 
L 460.430088 63.183596 
L 459.07875 62.089313 
L 458.55168 61.631963 
L 456.523606 60.432203 
L 455.674668 59.946594 
L 453.827551 58.987042 
L 453.116262 58.656669 
L 451.907222 58.129019 
L 450.021435 57.222327 
L 448.518136 56.479491 
L 447.391528 56.020418 
L 445.896164 55.403877 
L 444.925608 54.933327 
L 443.467791 54.487251 
L 441.367245 53.745565 
L 439.559705 53.314131 
L 434.470361 51.580149 
L 431.887625 51.122508 
L 428.570812 50.879894 
L 427.361267 50.676214 
L 425.924955 50.332483 
L 420.528891 49.697694 
L 417.014055 49.856589 
L 414.276349 49.827435 
L 412.223411 50.027747 
L 409.485773 50.086545 
L 408.758477 50.158336 
L 407.445852 50.207297 
L 406.277572 50.449597 
L 405.224067 50.600074 
L 404.383978 50.682929 
L 403.10491 50.981399 
L 401.638156 51.30101 
L 400.065473 51.451467 
L 399.004073 51.487707 
L 396.152333 52.336216 
L 394.841371 52.722222 
L 391.934097 53.502019 
L 390.491061 54.064712 
L 384.339695 57.431498 
L 383.03254 58.450932 
L 381.780153 59.154804 
L 381.173969 59.588115 
L 378.37473 61.772801 
L 377.264322 63.039782 
L 376.657586 63.566288 
L 376.111193 64.068457 
L 375.370998 65.041849 
L 372.232295 68.926913 
L 371.432314 70.171619 
L 371.045969 70.950752 
L 370.681736 71.826439 
L 369.428595 74.713691 
L 369.109078 75.925167 
L 368.524304 80.023374 
L 368.55938 83.149262 
L 369.102909 86.002761 
L 369.380174 87.11331 
L 369.591928 87.832808 
L 369.911252 88.540768 
L 370.608735 90.242526 
L 370.984282 91.140385 
L 372.137955 93.123394 
L 373.203746 94.656201 
L 374.488939 96.519643 
L 374.908626 97.141507 
L 375.314751 98.000841 
L 376.562669 99.673152 
L 377.422324 100.703785 
L 377.970893 101.300251 
L 378.783429 102.298749 
L 379.963353 103.367574 
L 381.394242 105.035017 
L 383.546614 106.673871 
L 385.062836 107.819738 
L 386.427085 108.870755 
L 387.146746 109.40099 
L 388.580205 110.310417 
L 391.016237 111.681857 
L 393.346515 113.062939 
L 394.700612 113.827092 
L 395.265068 114.133981 
L 396.167698 114.519639 
L 398.072203 115.536581 
L 399.097509 115.922321 
L 400.476899 116.660037 
L 401.472344 117.076452 
L 402.524575 117.505678 
L 404.07603 117.852598 
L 405.099676 117.957604 
L 407.982639 118.620995 
L 408.913254 118.817869 
L 410.629171 119.043477 
L 412.060781 119.429228 
L 414.495662 119.938146 
L 422.196128 120.169633 
L 423.124789 120.002558 
L 424.090164 119.775965 
L 425.061507 119.821842 
L 426.940389 119.959286 
L 427.651909 119.914487 
L 428.530016 119.820085 
L 430.010711 119.717173 
L 431.199254 119.606521 
L 438.895915 117.9959 
L 440.441122 117.626819 
L 441.466213 117.36225 
L 442.758815 116.919007 
L 444.292779 116.519164 
L 446.640604 115.879094 
L 447.860795 115.551586 
L 453.092844 113.526616 
L 454.55893 112.631859 
L 456.747039 111.389342 
L 460.264248 109.161005 
L 461.69059 108.295419 
L 462.561864 107.760133 
L 463.346283 107.264602 
L 464.355497 106.427644 
L 468.012792 102.966897 
L 469.186168 101.790528 
L 470.003292 101.13651 
L 472.029466 98.927562 
L 474.497479 95.26594 
L 474.787755 94.6753 
L 475.492305 93.273875 
L 475.931949 92.227052 
L 477.668904 88.402045 
L 477.843689 87.74018 
L 479.410659 84.447358 
L 479.410659 84.447358 
" clip-path="url(#pe889c46f6d)" style="fill: none; stroke: #2ca02c; stroke-width: 1.5; stroke-linecap: square"/>
   </g>
   <g id="text_3">
    <!-- SRV-jasp -->
    <g transform="translate(381.384007 28.56) scale(0.2 -0.2)">
     <defs>
      <path id="DejaVuSans-6a" d="M 603 3500 
L 1178 3500 
L 1178 -63 
Q 1178 -731 923 -1031 
Q 669 -1331 103 -1331 
L -116 -1331 
L -116 -844 
L 38 -844 
Q 366 -844 484 -692 
Q 603 -541 603 -63 
L 603 3500 
z
M 603 4863 
L 1178 4863 
L 1178 4134 
L 603 4134 
L 603 4863 
z
" transform="scale(0.015625)"/>
      <path id="DejaVuSans-61" d="M 2194 1759 
Q 1497 1759 1228 1600 
Q 959 1441 959 1056 
Q 959 750 1161 570 
Q 1363 391 1709 391 
Q 2188 391 2477 730 
Q 2766 1069 2766 1631 
L 2766 1759 
L 2194 1759 
z
M 3341 1997 
L 3341 0 
L 2766 0 
L 2766 531 
Q 2569 213 2275 61 
Q 1981 -91 1556 -91 
Q 1019 -91 701 211 
Q 384 513 384 1019 
Q 384 1609 779 1909 
Q 1175 2209 1959 2209 
L 2766 2209 
L 2766 2266 
Q 2766 2663 2505 2880 
Q 2244 3097 1772 3097 
Q 1472 3097 1187 3025 
Q 903 2953 641 2809 
L 641 3341 
Q 956 3463 1253 3523 
Q 1550 3584 1831 3584 
Q 2591 3584 2966 3190 
Q 3341 2797 3341 1997 
z
" transform="scale(0.015625)"/>
      <path id="DejaVuSans-73" d="M 2834 3397 
L 2834 2853 
Q 2591 2978 2328 3040 
Q 2066 3103 1784 3103 
Q 1356 3103 1142 2972 
Q 928 2841 928 2578 
Q 928 2378 1081 2264 
Q 1234 2150 1697 2047 
L 1894 2003 
Q 2506 1872 2764 1633 
Q 3022 1394 3022 966 
Q 3022 478 2636 193 
Q 2250 -91 1575 -91 
Q 1294 -91 989 -36 
Q 684 19 347 128 
L 347 722 
Q 666 556 975 473 
Q 1284 391 1588 391 
Q 1994 391 2212 530 
Q 2431 669 2431 922 
Q 2431 1156 2273 1281 
Q 2116 1406 1581 1522 
L 1381 1569 
Q 847 1681 609 1914 
Q 372 2147 372 2553 
Q 372 3047 722 3315 
Q 1072 3584 1716 3584 
Q 2034 3584 2315 3537 
Q 2597 3491 2834 3397 
z
" transform="scale(0.015625)"/>
      <path id="DejaVuSans-70" d="M 1159 525 
L 1159 -1331 
L 581 -1331 
L 581 3500 
L 1159 3500 
L 1159 2969 
Q 1341 3281 1617 3432 
Q 1894 3584 2278 3584 
Q 2916 3584 3314 3078 
Q 3713 2572 3713 1747 
Q 3713 922 3314 415 
Q 2916 -91 2278 -91 
Q 1894 -91 1617 61 
Q 1341 213 1159 525 
z
M 3116 1747 
Q 3116 2381 2855 2742 
Q 2594 3103 2138 3103 
Q 1681 3103 1420 2742 
Q 1159 2381 1159 1747 
Q 1159 1113 1420 752 
Q 1681 391 2138 391 
Q 2594 391 2855 752 
Q 3116 1113 3116 1747 
z
" transform="scale(0.015625)"/>
     </defs>
     <use xlink:href="#DejaVuSans-53"/>
     <use xlink:href="#DejaVuSans-52" x="63.476562"/>
     <use xlink:href="#DejaVuSans-56" x="127.458984"/>
     <use xlink:href="#DejaVuSans-2d" x="189.992188"/>
     <use xlink:href="#DejaVuSans-6a" x="226.076172"/>
     <use xlink:href="#DejaVuSans-61" x="253.859375"/>
     <use xlink:href="#DejaVuSans-73" x="315.138672"/>
     <use xlink:href="#DejaVuSans-70" x="367.238281"/>
    </g>
   </g>
  </g>
  <g id="axes_4">
   <g id="line2d_4">
    <path d="M 181.476819 204.484439 
L 179.984068 203.018617 
L 179.206886 201.915066 
L 178.391582 200.456621 
L 176.89568 196.195688 
L 174.489784 192.239249 
L 171.668976 186.945077 
L 170.459549 185.123614 
L 168.64157 182.708461 
L 166.46471 180.062633 
L 164.678534 178.294 
L 163.450107 177.039219 
L 157.76224 171.520659 
L 154.45824 169.100154 
L 148.695623 165.923862 
L 146.988059 165.198924 
L 145.320786 164.427307 
L 140.99177 162.789357 
L 139.785331 162.503454 
L 133.354959 161.053638 
L 130.075552 160.6915 
L 125.88491 160.291679 
L 124.150829 160.272265 
L 121.877065 160.194094 
L 120.716827 160.101818 
L 119.159846 160.244477 
L 117.400024 160.400796 
L 114.577595 160.708496 
L 112.360485 161.196059 
L 109.367293 161.846936 
L 106.870658 162.625448 
L 103.214614 164.180678 
L 101.547722 164.877435 
L 99.165871 166.271606 
L 97.351332 167.617892 
L 96.126111 168.516159 
L 93.015894 170.560293 
L 88.107813 175.735029 
L 85.178988 179.253578 
L 84.672983 180.090016 
L 83.783188 181.670576 
L 81.828319 185.105062 
L 81.063303 187.168186 
L 80.635123 188.496032 
L 79.517934 191.17385 
L 79.20153 193.018076 
L 78.920697 194.039481 
L 77.930724 196.979976 
L 77.103146 200.570798 
L 76.634954 205.288463 
L 76.581615 208.471143 
L 76.880928 211.357887 
L 78.486025 218.155832 
L 83.308976 229.275643 
L 84.272482 231.123348 
L 86.733666 234.431459 
L 90.452174 238.337635 
L 91.637536 239.230762 
L 93.628013 240.774688 
L 98.733142 244.123302 
L 102.3097 246.190249 
L 109.70065 249.643523 
L 111.984808 250.315106 
L 115.75548 251.007841 
L 116.962475 251.267462 
L 120.124213 251.70933 
L 125.732162 251.736797 
L 131.456329 251.279209 
L 136.564217 250.397332 
L 140.288326 249.237234 
L 142.117813 248.578275 
L 145.290129 247.60433 
L 147.805083 246.514339 
L 150.710291 245.02211 
L 153.096787 243.695677 
L 155.65163 242.030763 
L 157.195931 240.869386 
L 158.6127 239.64474 
L 160.643818 237.871566 
L 163.223824 235.597631 
L 164.419151 234.501044 
L 167.115954 231.720044 
L 168.469691 230.359949 
L 170.452281 228.111251 
L 171.17346 226.973363 
L 172.09982 225.070579 
L 172.672636 224.09108 
L 175.049751 220.460265 
L 175.446992 219.4408 
L 176.239202 216.996823 
L 177.916284 213.753006 
L 179.424864 211.413105 
L 180.056299 209.691724 
L 181.203433 206.116587 
L 181.531042 204.844864 
L 181.531042 204.844864 
" clip-path="url(#p43f06c3231)" style="fill: none; stroke: #1f77b4; stroke-width: 1.5; stroke-linecap: square"/>
   </g>
   <g id="text_4">
    <!-- Linear-control -->
    <g transform="translate(60.336305 149.52) scale(0.2 -0.2)">
     <defs>
      <path id="DejaVuSans-4c" d="M 628 4666 
L 1259 4666 
L 1259 531 
L 3531 531 
L 3531 0 
L 628 0 
L 628 4666 
z
" transform="scale(0.015625)"/>
      <path id="DejaVuSans-69" d="M 603 3500 
L 1178 3500 
L 1178 0 
L 603 0 
L 603 3500 
z
M 603 4863 
L 1178 4863 
L 1178 4134 
L 603 4134 
L 603 4863 
z
" transform="scale(0.015625)"/>
      <path id="DejaVuSans-65" d="M 3597 1894 
L 3597 1613 
L 953 1613 
Q 991 1019 1311 708 
Q 1631 397 2203 397 
Q 2534 397 2845 478 
Q 3156 559 3463 722 
L 3463 178 
Q 3153 47 2828 -22 
Q 2503 -91 2169 -91 
Q 1331 -91 842 396 
Q 353 884 353 1716 
Q 353 2575 817 3079 
Q 1281 3584 2069 3584 
Q 2775 3584 3186 3129 
Q 3597 2675 3597 1894 
z
M 3022 2063 
Q 3016 2534 2758 2815 
Q 2500 3097 2075 3097 
Q 1594 3097 1305 2825 
Q 1016 2553 972 2059 
L 3022 2063 
z
" transform="scale(0.015625)"/>
     </defs>
     <use xlink:href="#DejaVuSans-4c"/>
     <use xlink:href="#DejaVuSans-69" x="55.712891"/>
     <use xlink:href="#DejaVuSans-6e" x="83.496094"/>
     <use xlink:href="#DejaVuSans-65" x="146.875"/>
     <use xlink:href="#DejaVuSans-61" x="208.398438"/>
     <use xlink:href="#DejaVuSans-72" x="269.677734"/>
     <use xlink:href="#DejaVuSans-2d" x="304.416016"/>
     <use xlink:href="#DejaVuSans-63" x="340.5"/>
     <use xlink:href="#DejaVuSans-6f" x="395.480469"/>
     <use xlink:href="#DejaVuSans-6e" x="456.662109"/>
     <use xlink:href="#DejaVuSans-74" x="520.041016"/>
     <use xlink:href="#DejaVuSans-72" x="559.25"/>
     <use xlink:href="#DejaVuSans-6f" x="598.113281"/>
     <use xlink:href="#DejaVuSans-6c" x="659.294922"/>
    </g>
   </g>
  </g>
  <g id="axes_5">
   <g id="line2d_5">
    <path d="M 332.550124 205.484217 
L 330.503828 204.575751 
L 325.958806 202.3682 
L 324.879537 201.669752 
L 319.439084 198.450044 
L 317.530186 197.366827 
L 315.192594 195.934684 
L 313.724283 194.550405 
L 312.522163 193.102578 
L 311.308239 192.22685 
L 310.198526 191.314552 
L 309.534554 190.485879 
L 308.781192 189.13737 
L 307.469145 187.975195 
L 306.763294 186.93495 
L 306.022804 186.386947 
L 304.875228 185.149041 
L 303.563943 183.539403 
L 302.535536 182.234379 
L 301.876129 181.5585 
L 301.211819 180.674011 
L 300.442198 179.928156 
L 299.869278 179.04494 
L 299.301933 178.526397 
L 298.511795 177.422161 
L 295.793837 175.343818 
L 294.981352 174.965462 
L 294.550298 174.644704 
L 293.198119 173.858584 
L 292.636729 173.626837 
L 290.1413 172.413444 
L 289.107076 172.087056 
L 288.567409 171.925403 
L 287.869761 171.73404 
L 286.292497 171.118178 
L 282.502698 168.885982 
L 281.584493 168.405447 
L 280.866268 168.036753 
L 279.615204 167.218789 
L 278.580577 166.998161 
L 277.758792 166.689041 
L 276.793272 166.394112 
L 276.222718 166.217153 
L 274.326577 165.76343 
L 272.52607 164.950618 
L 271.574406 164.614571 
L 270.766114 164.39633 
L 267.452929 164.706897 
L 265.032118 164.934845 
L 262.210636 165.620731 
L 261.667167 165.65436 
L 260.773917 166.24578 
L 258.437103 166.914264 
L 256.834395 167.407692 
L 255.614024 167.738401 
L 254.62909 168.117132 
L 253.696707 168.583709 
L 251.441959 169.719071 
L 251.004551 169.928427 
L 246.302462 173.040841 
L 245.590639 173.532514 
L 244.916965 173.960134 
L 244.124163 174.425959 
L 242.993034 175.027438 
L 241.354057 176.406598 
L 239.310416 177.76033 
L 238.387388 178.230932 
L 237.789119 178.627772 
L 236.899108 179.075715 
L 236.574595 179.246757 
L 236.119309 179.552754 
L 234.627025 180.239013 
L 234.225234 180.497568 
L 233.805747 180.792419 
L 233.378396 181.161193 
L 232.584104 181.626211 
L 232.210326 182.166404 
L 230.721633 183.414957 
L 230.417964 183.744431 
L 230.06109 184.116003 
L 229.132954 185.106167 
L 227.813463 187.482692 
L 227.059307 188.071116 
L 226.77957 188.683931 
L 226.214905 190.436562 
L 225.960837 191.047034 
L 225.358014 192.769076 
L 225.00492 194.391669 
L 224.580938 195.699644 
L 224.232508 196.853198 
L 223.783378 197.982056 
L 223.660939 198.509965 
L 222.882039 201.628849 
L 222.082984 203.980392 
L 221.868589 205.283695 
L 221.759904 205.921577 
L 221.483087 206.664212 
L 221.582155 207.92559 
L 221.489544 208.549703 
L 221.135276 210.229854 
L 220.848397 212.173125 
L 220.927997 214.174101 
L 221.855362 217.524577 
L 222.016058 218.301292 
L 222.666576 220.038071 
L 223.41012 221.007317 
L 223.562343 221.381763 
L 224.165855 222.334222 
L 224.309903 222.753778 
L 224.526632 223.156123 
L 225.523173 224.665977 
L 226.09324 226.106316 
L 226.197866 226.510885 
L 226.729493 227.9375 
L 227.273549 228.695489 
L 228.043208 229.727648 
L 228.495088 230.257432 
L 228.717586 230.62594 
L 229.281995 231.304916 
L 229.954161 231.81104 
L 230.507841 232.258825 
L 231.1203 232.940344 
L 231.800858 233.608767 
L 232.401437 234.540592 
L 232.917134 234.890762 
L 235.447342 236.585185 
L 236.350019 237.060813 
L 237.126384 237.781151 
L 237.95519 238.260175 
L 239.210446 239.328043 
L 241.220243 241.357412 
L 241.717947 241.841491 
L 242.770095 242.362218 
L 243.866991 242.928015 
L 244.812791 243.627503 
L 245.510689 243.74972 
L 246.648521 244.040225 
L 247.650585 244.167625 
L 248.132853 244.287663 
L 249.235595 244.484429 
L 250.078848 244.615363 
L 251.567492 244.906374 
L 252.286281 245.044466 
L 254.039057 245.694652 
L 258.852862 246.725464 
L 259.532421 246.64591 
L 261.526972 247.439921 
L 263.21834 247.381871 
L 264.903088 247.28567 
L 265.683625 247.239524 
L 266.440432 247.174393 
L 268.396983 247.138003 
L 270.035987 246.908735 
L 270.570575 246.783149 
L 271.054709 246.640762 
L 272.661149 246.453093 
L 273.670907 246.081691 
L 275.633948 245.741638 
L 276.842122 245.609483 
L 277.64855 245.458072 
L 278.482216 245.243917 
L 279.029103 245.04025 
L 280.83756 244.142555 
L 282.141522 243.799544 
L 284.064504 242.697563 
L 287.580075 240.330748 
L 288.104394 239.988427 
L 290.597438 238.0386 
L 291.073886 237.74616 
L 291.720958 237.169792 
L 292.808157 236.501884 
L 293.292857 236.280396 
L 294.627087 235.806971 
L 295.954746 235.174266 
L 296.540373 234.983167 
L 297.199469 234.46478 
L 298.564095 233.483633 
L 299.018174 232.936606 
L 299.925686 232.04351 
L 303.03064 229.032511 
L 303.687186 228.572286 
L 304.747653 227.725349 
L 305.693062 226.381761 
L 306.374832 225.73274 
L 307.647847 224.184247 
L 308.600848 223.462885 
L 309.098166 223.063701 
L 310.486875 222.039761 
L 311.606709 221.323355 
L 314.575314 219.147083 
L 319.351376 214.817878 
L 321.7319 213.200075 
L 324.327011 211.217413 
L 326.225705 210.026894 
L 327.236759 209.35181 
L 330.085571 207.729094 
L 331.567872 207.013899 
L 332.382146 206.344551 
L 332.699198 205.780978 
L 332.699198 205.780978 
" clip-path="url(#p9e7be978de)" style="fill: none; stroke: #ff7f0e; stroke-width: 1.5; stroke-linecap: square"/>
   </g>
   <g id="text_5">
    <!-- Linear-cytd -->
    <g transform="translate(221.014062 149.52) scale(0.2 -0.2)">
     <use xlink:href="#DejaVuSans-4c"/>
     <use xlink:href="#DejaVuSans-69" x="55.712891"/>
     <use xlink:href="#DejaVuSans-6e" x="83.496094"/>
     <use xlink:href="#DejaVuSans-65" x="146.875"/>
     <use xlink:href="#DejaVuSans-61" x="208.398438"/>
     <use xlink:href="#DejaVuSans-72" x="269.677734"/>
     <use xlink:href="#DejaVuSans-2d" x="304.416016"/>
     <use xlink:href="#DejaVuSans-63" x="340.5"/>
     <use xlink:href="#DejaVuSans-79" x="395.480469"/>
     <use xlink:href="#DejaVuSans-74" x="454.660156"/>
     <use xlink:href="#DejaVuSans-64" x="493.869141"/>
    </g>
   </g>
  </g>
  <g id="axes_6">
   <g id="line2d_6">
    <path d="M 482.942012 205.80607 
L 481.698509 205.049513 
L 481.389195 204.462309 
L 480.957159 203.214485 
L 479.75027 201.030972 
L 479.051974 200.151828 
L 478.451227 199.02747 
L 477.224938 196.850433 
L 476.575611 195.778214 
L 475.542093 193.947793 
L 474.390543 192.083416 
L 473.309325 190.193256 
L 471.206454 187.892456 
L 470.260955 186.97979 
L 464.894649 181.435599 
L 464.077191 180.578849 
L 462.773267 178.921756 
L 461.940008 178.07675 
L 461.103806 176.993322 
L 460.182362 176.007279 
L 459.110125 174.948561 
L 453.256652 170.049268 
L 452.871915 169.717859 
L 451.409124 169.100953 
L 450.541141 168.721467 
L 448.993544 167.850004 
L 445.856212 166.465959 
L 443.570877 165.430687 
L 442.37403 164.826474 
L 440.965628 164.168879 
L 439.50749 163.592816 
L 438.325012 163.150636 
L 433.260138 162.00384 
L 427.769747 161.036473 
L 426.497154 160.662152 
L 421.555365 160.314234 
L 420.768609 160.356748 
L 418.736453 160.146278 
L 417.028418 160.349178 
L 414.599449 160.48512 
L 413.41498 160.595032 
L 410.399438 160.714028 
L 408.220097 160.781912 
L 407.325167 160.844799 
L 405.280257 161.345993 
L 404.025759 161.440258 
L 403.041258 161.548164 
L 402.214016 161.773271 
L 398.470718 163.080912 
L 395.464197 163.953916 
L 394.264395 164.322399 
L 390.240809 165.356606 
L 388.815826 165.908666 
L 386.137414 167.364611 
L 380.846257 171.703102 
L 378.909625 173.197571 
L 377.795035 174.308041 
L 375.590429 177.053689 
L 374.920654 177.675561 
L 373.974619 178.439396 
L 372.4554 179.974238 
L 371.979505 180.418061 
L 371.462379 181.225705 
L 371.032469 182.14343 
L 370.35741 183.754722 
L 369.816538 184.83065 
L 368.765361 189.206199 
L 368.379468 190.339207 
L 367.909186 191.567462 
L 367.016326 194.092955 
L 366.768638 195.419007 
L 366.676033 196.500767 
L 366.250908 199.431208 
L 366.237586 200.687081 
L 366.127166 202.828338 
L 366.03053 207.915111 
L 367.106929 212.657354 
L 367.310881 214.80483 
L 369.322083 221.112208 
L 370.405375 223.222376 
L 371.504651 224.864003 
L 372.480698 226.651584 
L 373.860235 228.66076 
L 374.220708 229.233365 
L 375.039141 230.806886 
L 376.28488 232.216657 
L 377.762826 233.565217 
L 378.60779 234.357495 
L 380.298383 236.142769 
L 381.04171 236.808533 
L 381.857198 237.563414 
L 385.813799 240.645775 
L 386.670268 241.176355 
L 388.064176 242.015376 
L 389.240434 242.832632 
L 390.240247 243.653501 
L 391.269203 244.087629 
L 393.6778 245.246713 
L 395.96007 246.440687 
L 397.943533 247.049377 
L 398.752651 247.232618 
L 399.567358 247.737636 
L 400.188253 248.103336 
L 401.412676 248.672997 
L 403.260156 249.341496 
L 405.2907 250.059308 
L 407.614158 250.744224 
L 409.116194 250.919929 
L 411.140484 251.32872 
L 413.862448 251.729232 
L 414.923821 251.685453 
L 417.40432 251.309376 
L 419.165568 251.183111 
L 422.226292 250.961529 
L 424.620903 250.571927 
L 426.14759 250.473044 
L 427.177824 250.473708 
L 428.50834 250.27647 
L 429.971034 249.94286 
L 431.475308 249.572087 
L 437.759279 247.884978 
L 440.699165 247.247622 
L 442.27108 246.94339 
L 444.67735 245.85826 
L 446.88784 244.63746 
L 450.116728 242.624536 
L 451.318062 242.043738 
L 453.978721 240.12881 
L 457.954834 237.651243 
L 458.989867 236.801845 
L 460.497666 235.684014 
L 462.074318 234.621865 
L 463.189715 233.762799 
L 464.127058 233.053383 
L 465.612548 231.709109 
L 466.709925 230.806115 
L 469.280439 228.308152 
L 471.460773 225.860382 
L 472.219303 225.125497 
L 473.983342 222.638936 
L 474.654038 221.629365 
L 476.52551 218.417886 
L 479.382829 213.610988 
L 479.860092 212.875715 
L 480.231648 211.874014 
L 480.655373 210.384072 
L 481.059265 209.602605 
L 482.416144 207.457634 
L 483.01512 206.058141 
L 483.01512 206.058141 
" clip-path="url(#p4835629bed)" style="fill: none; stroke: #2ca02c; stroke-width: 1.5; stroke-linecap: square"/>
   </g>
   <g id="text_6">
    <!-- Linear-jasp -->
    <g transform="translate(369.94182 149.52) scale(0.2 -0.2)">
     <use xlink:href="#DejaVuSans-4c"/>
     <use xlink:href="#DejaVuSans-69" x="55.712891"/>
     <use xlink:href="#DejaVuSans-6e" x="83.496094"/>
     <use xlink:href="#DejaVuSans-65" x="146.875"/>
     <use xlink:href="#DejaVuSans-61" x="208.398438"/>
     <use xlink:href="#DejaVuSans-72" x="269.677734"/>
     <use xlink:href="#DejaVuSans-2d" x="304.416016"/>
     <use xlink:href="#DejaVuSans-6a" x="340.5"/>
     <use xlink:href="#DejaVuSans-61" x="368.283203"/>
     <use xlink:href="#DejaVuSans-73" x="429.5625"/>
     <use xlink:href="#DejaVuSans-70" x="481.662109"/>
    </g>
   </g>
  </g>
 </g>
 <defs>
  <clipPath id="p769a608a99">
   <rect x="67.5" y="34.56" width="123.088235" height="100.8"/>
  </clipPath>
  <clipPath id="p8edc7ecdb2">
   <rect x="215.205882" y="34.56" width="123.088235" height="100.8"/>
  </clipPath>
  <clipPath id="pe889c46f6d">
   <rect x="362.911765" y="34.56" width="123.088235" height="100.8"/>
  </clipPath>
  <clipPath id="p43f06c3231">
   <rect x="67.5" y="155.52" width="123.088235" height="100.8"/>
  </clipPath>
  <clipPath id="p9e7be978de">
   <rect x="215.205882" y="155.52" width="123.088235" height="100.8"/>
  </clipPath>
  <clipPath id="p4835629bed">
   <rect x="362.911765" y="155.52" width="123.088235" height="100.8"/>
  </clipPath>
 </defs>
</svg>
