<?xml version="1.0" encoding="utf-8" standalone="no"?>
<!DOCTYPE svg PUBLIC "-//W3C//DTD SVG 1.1//EN"
  "http://www.w3.org/Graphics/SVG/1.1/DTD/svg11.dtd">
<svg xmlns:xlink="http://www.w3.org/1999/xlink" width="540pt" height="288pt" viewBox="0 0 540 288" xmlns="http://www.w3.org/2000/svg" version="1.1">
 <metadata>
  <rdf:RDF xmlns:dc="http://purl.org/dc/elements/1.1/" xmlns:cc="http://creativecommons.org/ns#" xmlns:rdf="http://www.w3.org/1999/02/22-rdf-syntax-ns#">
   <cc:Work>
    <dc:type rdf:resource="http://purl.org/dc/dcmitype/StillImage"/>
    <dc:date>2024-03-29T11:54:28.382669</dc:date>
    <dc:format>image/svg+xml</dc:format>
    <dc:creator>
     <cc:Agent>
      <dc:title>Matplotlib v3.8.3, https://matplotlib.org/</dc:title>
     </cc:Agent>
    </dc:creator>
   </cc:Work>
  </rdf:RDF>
 </metadata>
 <defs>
  <style type="text/css">*{stroke-linejoin: round; stroke-linecap: butt}</style>
 </defs>
 <g id="figure_1">
  <g id="patch_1">
   <path d="M 0 288 
L 540 288 
L 540 0 
L 0 0 
z
" style="fill: #ffffff"/>
  </g>
  <g id="axes_1">
   <g id="line2d_1">
    <path d="M 140.416003 39.507491 
L 139.504922 39.642167 
L 136.993539 40.510308 
L 132.30102 40.977646 
L 131.135138 41.295753 
L 128.648657 41.438897 
L 127.563898 41.836846 
L 126.478903 42.553313 
L 125.287588 43.569722 
L 124.033196 44.301665 
L 121.702612 45.025194 
L 120.042562 45.680761 
L 117.567757 46.966982 
L 116.356802 47.884394 
L 110.105085 54.120146 
L 107.420282 57.081819 
L 103.455042 62.655779 
L 102.564845 64.332857 
L 100.759526 66.733456 
L 99.540716 68.024015 
L 98.503395 69.655912 
L 95.747006 75.767931 
L 94.541197 77.707619 
L 93.807017 78.698004 
L 92.471947 82.21308 
L 91.935626 84.047748 
L 91.634049 87.384758 
L 91.353357 88.47309 
L 90.949476 92.215912 
L 90.664099 96.295895 
L 90.386717 99.047383 
L 89.846445 104.054264 
L 89.985259 107.049067 
L 90.078735 108.29561 
L 90.729545 112.256021 
L 91.561217 114.54652 
L 92.055984 115.839831 
L 92.629887 116.625938 
L 93.502331 117.586954 
L 94.190633 118.539461 
L 96.059434 120.572376 
L 96.571725 121.291111 
L 97.839733 122.254558 
L 98.891766 123.127928 
L 101.22122 124.420899 
L 103.686252 126.230108 
L 106.311591 127.68701 
L 107.038571 128.334195 
L 107.747348 128.78189 
L 108.797735 129.235578 
L 114.895481 129.881481 
L 116.987347 130.634864 
L 118.191666 130.778182 
L 119.450625 130.736538 
L 120.74352 130.58164 
L 122.850524 130.522177 
L 124.105924 130.442977 
L 126.27339 129.683025 
L 127.213658 129.197968 
L 131.614007 127.78575 
L 133.082876 127.03278 
L 134.551843 126.557724 
L 138.396857 124.602498 
L 141.447734 123.269927 
L 146.829347 120.209025 
L 148.179142 119.106577 
L 149.639509 117.718732 
L 153.304861 115.960772 
L 155.131991 114.580012 
L 155.860992 113.87116 
L 156.514629 112.970721 
L 157.333978 112.139462 
L 159.593066 109.586314 
L 160.512185 108.642116 
L 161.82108 106.45753 
L 162.388675 105.003173 
L 163.017097 102.615603 
L 164.274426 100.405403 
L 166.513703 97.054544 
L 166.997773 95.8591 
L 168.07585 91.980156 
L 168.297688 90.875798 
L 168.292002 89.756524 
L 168.028295 85.80894 
L 168.011963 84.579265 
L 168.284448 83.514106 
L 168.159559 79.500107 
L 168.180007 78.003745 
L 167.82304 75.35847 
L 166.954699 71.088055 
L 164.196788 63.326962 
L 164.012316 62.02375 
L 163.454192 60.428141 
L 158.468143 52.474358 
L 157.584205 50.234283 
L 156.784471 49.132217 
L 155.872385 47.533327 
L 154.872017 46.068304 
L 153.881696 45.169526 
L 151.932414 43.746677 
L 150.606112 42.238086 
L 149.8899 41.841925 
L 146.683722 40.931616 
L 146.071222 40.465049 
L 144.665246 40.016972 
L 143.928165 39.916675 
L 141.60176 39.141818 
L 141.60176 39.141818 
" clip-path="url(#p90dbf38868)" style="fill: none; stroke: #1f77b4; stroke-width: 1.5; stroke-linecap: square"/>
   </g>
   <g id="text_1">
    <!-- SRV-control -->
    <g transform="translate(71.778493 28.56) scale(0.2 -0.2)">
     <defs>
      <path id="DejaVuSans-53" d="M 3425 4513 
L 3425 3897 
Q 3066 4069 2747 4153 
Q 2428 4238 2131 4238 
Q 1616 4238 1336 4038 
Q 1056 3838 1056 3469 
Q 1056 3159 1242 3001 
Q 1428 2844 1947 2747 
L 2328 2669 
Q 3034 2534 3370 2195 
Q 3706 1856 3706 1288 
Q 3706 609 3251 259 
Q 2797 -91 1919 -91 
Q 1588 -91 1214 -16 
Q 841 59 441 206 
L 441 856 
Q 825 641 1194 531 
Q 1563 422 1919 422 
Q 2459 422 2753 634 
Q 3047 847 3047 1241 
Q 3047 1584 2836 1778 
Q 2625 1972 2144 2069 
L 1759 2144 
Q 1053 2284 737 2584 
Q 422 2884 422 3419 
Q 422 4038 858 4394 
Q 1294 4750 2059 4750 
Q 2388 4750 2728 4690 
Q 3069 4631 3425 4513 
z
" transform="scale(0.015625)"/>
      <path id="DejaVuSans-52" d="M 2841 2188 
Q 3044 2119 3236 1894 
Q 3428 1669 3622 1275 
L 4263 0 
L 3584 0 
L 2988 1197 
Q 2756 1666 2539 1819 
Q 2322 1972 1947 1972 
L 1259 1972 
L 1259 0 
L 628 0 
L 628 4666 
L 2053 4666 
Q 2853 4666 3247 4331 
Q 3641 3997 3641 3322 
Q 3641 2881 3436 2590 
Q 3231 2300 2841 2188 
z
M 1259 4147 
L 1259 2491 
L 2053 2491 
Q 2509 2491 2742 2702 
Q 2975 2913 2975 3322 
Q 2975 3731 2742 3939 
Q 2509 4147 2053 4147 
L 1259 4147 
z
" transform="scale(0.015625)"/>
      <path id="DejaVuSans-56" d="M 1831 0 
L 50 4666 
L 709 4666 
L 2188 738 
L 3669 4666 
L 4325 4666 
L 2547 0 
L 1831 0 
z
" transform="scale(0.015625)"/>
      <path id="DejaVuSans-2d" d="M 313 2009 
L 1997 2009 
L 1997 1497 
L 313 1497 
L 313 2009 
z
" transform="scale(0.015625)"/>
      <path id="DejaVuSans-63" d="M 3122 3366 
L 3122 2828 
Q 2878 2963 2633 3030 
Q 2388 3097 2138 3097 
Q 1578 3097 1268 2742 
Q 959 2388 959 1747 
Q 959 1106 1268 751 
Q 1578 397 2138 397 
Q 2388 397 2633 464 
Q 2878 531 3122 666 
L 3122 134 
Q 2881 22 2623 -34 
Q 2366 -91 2075 -91 
Q 1284 -91 818 406 
Q 353 903 353 1747 
Q 353 2603 823 3093 
Q 1294 3584 2113 3584 
Q 2378 3584 2631 3529 
Q 2884 3475 3122 3366 
z
" transform="scale(0.015625)"/>
      <path id="DejaVuSans-6f" d="M 1959 3097 
Q 1497 3097 1228 2736 
Q 959 2375 959 1747 
Q 959 1119 1226 758 
Q 1494 397 1959 397 
Q 2419 397 2687 759 
Q 2956 1122 2956 1747 
Q 2956 2369 2687 2733 
Q 2419 3097 1959 3097 
z
M 1959 3584 
Q 2709 3584 3137 3096 
Q 3566 2609 3566 1747 
Q 3566 888 3137 398 
Q 2709 -91 1959 -91 
Q 1206 -91 779 398 
Q 353 888 353 1747 
Q 353 2609 779 3096 
Q 1206 3584 1959 3584 
z
" transform="scale(0.015625)"/>
      <path id="DejaVuSans-6e" d="M 3513 2113 
L 3513 0 
L 2938 0 
L 2938 2094 
Q 2938 2591 2744 2837 
Q 2550 3084 2163 3084 
Q 1697 3084 1428 2787 
Q 1159 2491 1159 1978 
L 1159 0 
L 581 0 
L 581 3500 
L 1159 3500 
L 1159 2956 
Q 1366 3272 1645 3428 
Q 1925 3584 2291 3584 
Q 2894 3584 3203 3211 
Q 3513 2838 3513 2113 
z
" transform="scale(0.015625)"/>
      <path id="DejaVuSans-74" d="M 1172 4494 
L 1172 3500 
L 2356 3500 
L 2356 3053 
L 1172 3053 
L 1172 1153 
Q 1172 725 1289 603 
Q 1406 481 1766 481 
L 2356 481 
L 2356 0 
L 1766 0 
Q 1100 0 847 248 
Q 594 497 594 1153 
L 594 3053 
L 172 3053 
L 172 3500 
L 594 3500 
L 594 4494 
L 1172 4494 
z
" transform="scale(0.015625)"/>
      <path id="DejaVuSans-72" d="M 2631 2963 
Q 2534 3019 2420 3045 
Q 2306 3072 2169 3072 
Q 1681 3072 1420 2755 
Q 1159 2438 1159 1844 
L 1159 0 
L 581 0 
L 581 3500 
L 1159 3500 
L 1159 2956 
Q 1341 3275 1631 3429 
Q 1922 3584 2338 3584 
Q 2397 3584 2469 3576 
Q 2541 3569 2628 3553 
L 2631 2963 
z
" transform="scale(0.015625)"/>
      <path id="DejaVuSans-6c" d="M 603 4863 
L 1178 4863 
L 1178 0 
L 603 0 
L 603 4863 
z
" transform="scale(0.015625)"/>
     </defs>
     <use xlink:href="#DejaVuSans-53"/>
     <use xlink:href="#DejaVuSans-52" x="63.476562"/>
     <use xlink:href="#DejaVuSans-56" x="127.458984"/>
     <use xlink:href="#DejaVuSans-2d" x="189.992188"/>
     <use xlink:href="#DejaVuSans-63" x="226.076172"/>
     <use xlink:href="#DejaVuSans-6f" x="281.056641"/>
     <use xlink:href="#DejaVuSans-6e" x="342.238281"/>
     <use xlink:href="#DejaVuSans-74" x="405.617188"/>
     <use xlink:href="#DejaVuSans-72" x="444.826172"/>
     <use xlink:href="#DejaVuSans-6f" x="483.689453"/>
     <use xlink:href="#DejaVuSans-6c" x="544.871094"/>
    </g>
   </g>
  </g>
  <g id="axes_2">
   <g id="line2d_2">
    <path d="M 295.680869 46.044229 
L 294.555628 46.97069 
L 292.703519 48.020089 
L 291.543487 48.368154 
L 290.672657 48.9037 
L 289.005477 50.459339 
L 286.699192 55.333109 
L 285.888005 56.249191 
L 285.176369 56.782326 
L 284.249754 57.900491 
L 281.031731 60.624374 
L 277.671177 64.176288 
L 276.263907 65.476115 
L 275.573589 66.328745 
L 273.720397 69.967389 
L 273.214146 71.017404 
L 270.839829 74.630024 
L 269.604555 75.753426 
L 267.991414 76.828332 
L 266.504773 78.247721 
L 265.98584 79.364939 
L 265.186246 80.574189 
L 264.079286 81.969068 
L 262.956596 83.021457 
L 262.098865 84.140209 
L 261.52147 85.536455 
L 260.8529 89.159565 
L 259.991708 90.480644 
L 259.225314 94.221466 
L 258.405284 95.919879 
L 257.030434 97.899802 
L 255.781248 99.941502 
L 255.264804 101.505352 
L 254.109369 103.72906 
L 253.029805 105.538502 
L 252.269301 107.802647 
L 251.330519 109.974564 
L 249.276183 112.058789 
L 246.11122 116.017249 
L 245.268769 116.849479 
L 244.75809 118.337897 
L 244.234091 119.052169 
L 244.03035 119.722988 
L 244.263431 120.131147 
L 244.751263 120.406303 
L 244.988959 121.70877 
L 244.941088 122.730619 
L 244.690549 123.649294 
L 244.708978 123.933086 
L 244.963925 124.423777 
L 246.054004 124.856565 
L 247.004534 125.129058 
L 247.223076 125.767315 
L 247.551736 126.303284 
L 247.747075 126.872223 
L 249.778368 129.599882 
L 250.656224 130.415187 
L 251.235962 130.671502 
L 251.961531 130.778182 
L 253.822346 130.085557 
L 255.390303 129.890938 
L 257.395998 130.10594 
L 258.305559 130.331154 
L 259.82786 130.017236 
L 261.295808 129.563783 
L 262.603656 129.282882 
L 265.206671 128.038029 
L 267.089638 127.435749 
L 268.10063 126.793699 
L 270.323169 126.08092 
L 271.675274 125.885152 
L 273.000756 125.401585 
L 273.9667 125.169654 
L 275.376954 125.487501 
L 278.016978 125.748291 
L 279.057211 125.623386 
L 280.100184 125.245813 
L 280.668039 124.884237 
L 281.812185 124.522179 
L 282.369118 123.728952 
L 284.786312 121.558207 
L 285.286902 121.410191 
L 286.337124 120.934609 
L 288.003584 120.707442 
L 290.424854 119.074433 
L 291.119432 118.477131 
L 292.351246 117.744828 
L 293.231664 117.059087 
L 295.115206 114.416697 
L 296.384631 112.633594 
L 297.311259 112.049707 
L 298.198421 111.219837 
L 299.426698 110.462272 
L 300.477231 109.007048 
L 301.88227 107.590286 
L 302.677826 106.613162 
L 306.909688 101.986391 
L 308.065948 100.151082 
L 308.547505 99.438061 
L 308.924531 98.490975 
L 308.871854 97.437521 
L 308.454289 94.902659 
L 308.557668 93.248918 
L 309.022263 91.01666 
L 309.171159 88.936307 
L 309.464309 87.442097 
L 309.335188 86.253993 
L 309.46965 83.70257 
L 308.865469 80.807845 
L 307.918421 76.175382 
L 306.039635 72.33994 
L 305.79595 71.575564 
L 305.761807 68.408173 
L 305.40457 63.031069 
L 304.859398 61.648041 
L 303.595773 60.364865 
L 302.982251 59.579857 
L 300.934051 55.396706 
L 300.1691 54.474891 
L 299.51199 51.998689 
L 299.308586 50.090306 
L 299.047417 48.863105 
L 297.194569 46.537272 
L 296.441286 45.268442 
L 294.881626 41.344104 
L 294.22736 40.646259 
L 293.459895 39.416597 
L 292.651038 39.167105 
L 292.125946 39.141818 
L 291.482921 39.305786 
L 291.001925 40.052884 
L 291.001925 40.052884 
" clip-path="url(#p8fa18b02ea)" style="fill: none; stroke: #ff7f0e; stroke-width: 1.5; stroke-linecap: square"/>
   </g>
   <g id="text_2">
    <!-- SRV-cytd -->
    <g transform="translate(232.45625 28.56) scale(0.2 -0.2)">
     <defs>
      <path id="DejaVuSans-79" d="M 2059 -325 
Q 1816 -950 1584 -1140 
Q 1353 -1331 966 -1331 
L 506 -1331 
L 506 -850 
L 844 -850 
Q 1081 -850 1212 -737 
Q 1344 -625 1503 -206 
L 1606 56 
L 191 3500 
L 800 3500 
L 1894 763 
L 2988 3500 
L 3597 3500 
L 2059 -325 
z
" transform="scale(0.015625)"/>
      <path id="DejaVuSans-64" d="M 2906 2969 
L 2906 4863 
L 3481 4863 
L 3481 0 
L 2906 0 
L 2906 525 
Q 2725 213 2448 61 
Q 2172 -91 1784 -91 
Q 1150 -91 751 415 
Q 353 922 353 1747 
Q 353 2572 751 3078 
Q 1150 3584 1784 3584 
Q 2172 3584 2448 3432 
Q 2725 3281 2906 2969 
z
M 947 1747 
Q 947 1113 1208 752 
Q 1469 391 1925 391 
Q 2381 391 2643 752 
Q 2906 1113 2906 1747 
Q 2906 2381 2643 2742 
Q 2381 3103 1925 3103 
Q 1469 3103 1208 2742 
Q 947 2381 947 1747 
z
" transform="scale(0.015625)"/>
     </defs>
     <use xlink:href="#DejaVuSans-53"/>
     <use xlink:href="#DejaVuSans-52" x="63.476562"/>
     <use xlink:href="#DejaVuSans-56" x="127.458984"/>
     <use xlink:href="#DejaVuSans-2d" x="189.992188"/>
     <use xlink:href="#DejaVuSans-63" x="226.076172"/>
     <use xlink:href="#DejaVuSans-79" x="281.056641"/>
     <use xlink:href="#DejaVuSans-74" x="340.236328"/>
     <use xlink:href="#DejaVuSans-64" x="379.445312"/>
    </g>
   </g>
  </g>
  <g id="axes_3">
   <g id="line2d_3">
    <path d="M 439.800803 39.141818 
L 438.512697 39.313266 
L 437.452245 39.328545 
L 435.710234 40.04339 
L 433.547861 41.630131 
L 432.571077 42.788508 
L 431.883978 43.676785 
L 430.839855 44.734066 
L 429.649679 45.488499 
L 428.643846 46.440361 
L 427.761761 47.103028 
L 427.158336 47.837857 
L 426.387982 48.982392 
L 424.702173 51.052089 
L 423.97895 51.703671 
L 423.036917 52.824477 
L 422.610941 54.0691 
L 421.584884 55.451844 
L 420.49831 56.614068 
L 418.794622 59.318153 
L 418.181673 60.658524 
L 417.26131 62.107766 
L 415.823205 63.993003 
L 413.956115 66.089725 
L 411.282148 70.557472 
L 410.308595 72.080106 
L 409.14625 73.525151 
L 407.630599 75.041245 
L 404.695877 79.211931 
L 403.595985 80.368476 
L 399.051346 86.61494 
L 398.48961 88.090322 
L 397.169379 90.616268 
L 396.357429 92.464781 
L 395.70966 93.39168 
L 395.34544 94.691704 
L 394.516508 96.453688 
L 393.786952 97.714209 
L 391.161605 101.096433 
L 389.501167 105.271713 
L 388.975968 108.906018 
L 389.424794 112.508238 
L 389.850014 114.174738 
L 390.434889 116.125097 
L 390.832196 116.708015 
L 391.658619 118.389371 
L 392.908893 120.960769 
L 393.650239 121.620714 
L 394.154349 122.234634 
L 396.491673 123.400694 
L 397.769853 124.409361 
L 399.352391 125.918489 
L 401.321402 127.647996 
L 402.749624 128.355122 
L 404.650593 129.51046 
L 406.512909 130.338991 
L 410.724143 130.778182 
L 414.184903 130.77171 
L 415.55889 130.432836 
L 416.720869 130.366787 
L 418.691036 130.476238 
L 422.085043 130.241837 
L 423.559088 129.876197 
L 424.755913 129.900325 
L 425.541081 129.705028 
L 428.201351 128.54461 
L 431.514175 127.475139 
L 433.998804 125.825269 
L 437.205667 124.46929 
L 439.172332 123.126685 
L 440.390395 122.106943 
L 440.862149 121.364961 
L 441.994952 120.194821 
L 444.158349 118.399906 
L 444.870648 117.561254 
L 446.384569 115.252125 
L 449.428619 112.758283 
L 449.969679 111.720932 
L 450.476251 111.171106 
L 452.864472 106.421945 
L 453.406612 105.447866 
L 454.212759 104.281859 
L 454.710494 103.130703 
L 455.090554 101.208076 
L 455.815243 100.061206 
L 456.680091 97.914656 
L 458.065089 95.689952 
L 459.315321 93.245598 
L 459.42391 92.093976 
L 459.749081 90.533825 
L 459.935796 87.966603 
L 459.35694 85.138962 
L 459.310918 83.794717 
L 459.616685 82.35493 
L 459.743648 80.807948 
L 459.575683 78.186556 
L 459.400309 76.813933 
L 458.980151 75.264309 
L 458.73396 73.569429 
L 458.440135 70.792963 
L 457.255821 68.369141 
L 456.9198 66.911882 
L 456.37875 65.527332 
L 455.703484 64.39301 
L 454.546868 60.945804 
L 453.7446 59.38592 
L 453.105361 57.578671 
L 452.540484 56.402741 
L 450.570581 53.810375 
L 448.529283 50.124039 
L 446.670709 48.111736 
L 444.686869 44.998531 
L 443.283096 43.933771 
L 442.21026 42.866681 
L 441.54513 42.419172 
L 438.545913 41.487248 
L 437.468804 41.525313 
L 437.468804 41.525313 
" clip-path="url(#pd0b1722de0)" style="fill: none; stroke: #2ca02c; stroke-width: 1.5; stroke-linecap: square"/>
   </g>
   <g id="text_3">
    <!-- SRV-jasp -->
    <g transform="translate(381.384007 28.56) scale(0.2 -0.2)">
     <defs>
      <path id="DejaVuSans-6a" d="M 603 3500 
L 1178 3500 
L 1178 -63 
Q 1178 -731 923 -1031 
Q 669 -1331 103 -1331 
L -116 -1331 
L -116 -844 
L 38 -844 
Q 366 -844 484 -692 
Q 603 -541 603 -63 
L 603 3500 
z
M 603 4863 
L 1178 4863 
L 1178 4134 
L 603 4134 
L 603 4863 
z
" transform="scale(0.015625)"/>
      <path id="DejaVuSans-61" d="M 2194 1759 
Q 1497 1759 1228 1600 
Q 959 1441 959 1056 
Q 959 750 1161 570 
Q 1363 391 1709 391 
Q 2188 391 2477 730 
Q 2766 1069 2766 1631 
L 2766 1759 
L 2194 1759 
z
M 3341 1997 
L 3341 0 
L 2766 0 
L 2766 531 
Q 2569 213 2275 61 
Q 1981 -91 1556 -91 
Q 1019 -91 701 211 
Q 384 513 384 1019 
Q 384 1609 779 1909 
Q 1175 2209 1959 2209 
L 2766 2209 
L 2766 2266 
Q 2766 2663 2505 2880 
Q 2244 3097 1772 3097 
Q 1472 3097 1187 3025 
Q 903 2953 641 2809 
L 641 3341 
Q 956 3463 1253 3523 
Q 1550 3584 1831 3584 
Q 2591 3584 2966 3190 
Q 3341 2797 3341 1997 
z
" transform="scale(0.015625)"/>
      <path id="DejaVuSans-73" d="M 2834 3397 
L 2834 2853 
Q 2591 2978 2328 3040 
Q 2066 3103 1784 3103 
Q 1356 3103 1142 2972 
Q 928 2841 928 2578 
Q 928 2378 1081 2264 
Q 1234 2150 1697 2047 
L 1894 2003 
Q 2506 1872 2764 1633 
Q 3022 1394 3022 966 
Q 3022 478 2636 193 
Q 2250 -91 1575 -91 
Q 1294 -91 989 -36 
Q 684 19 347 128 
L 347 722 
Q 666 556 975 473 
Q 1284 391 1588 391 
Q 1994 391 2212 530 
Q 2431 669 2431 922 
Q 2431 1156 2273 1281 
Q 2116 1406 1581 1522 
L 1381 1569 
Q 847 1681 609 1914 
Q 372 2147 372 2553 
Q 372 3047 722 3315 
Q 1072 3584 1716 3584 
Q 2034 3584 2315 3537 
Q 2597 3491 2834 3397 
z
" transform="scale(0.015625)"/>
      <path id="DejaVuSans-70" d="M 1159 525 
L 1159 -1331 
L 581 -1331 
L 581 3500 
L 1159 3500 
L 1159 2969 
Q 1341 3281 1617 3432 
Q 1894 3584 2278 3584 
Q 2916 3584 3314 3078 
Q 3713 2572 3713 1747 
Q 3713 922 3314 415 
Q 2916 -91 2278 -91 
Q 1894 -91 1617 61 
Q 1341 213 1159 525 
z
M 3116 1747 
Q 3116 2381 2855 2742 
Q 2594 3103 2138 3103 
Q 1681 3103 1420 2742 
Q 1159 2381 1159 1747 
Q 1159 1113 1420 752 
Q 1681 391 2138 391 
Q 2594 391 2855 752 
Q 3116 1113 3116 1747 
z
" transform="scale(0.015625)"/>
     </defs>
     <use xlink:href="#DejaVuSans-53"/>
     <use xlink:href="#DejaVuSans-52" x="63.476562"/>
     <use xlink:href="#DejaVuSans-56" x="127.458984"/>
     <use xlink:href="#DejaVuSans-2d" x="189.992188"/>
     <use xlink:href="#DejaVuSans-6a" x="226.076172"/>
     <use xlink:href="#DejaVuSans-61" x="253.859375"/>
     <use xlink:href="#DejaVuSans-73" x="315.138672"/>
     <use xlink:href="#DejaVuSans-70" x="367.238281"/>
    </g>
   </g>
  </g>
  <g id="axes_4">
   <g id="line2d_4">
    <path d="M 141.109924 160.101818 
L 139.950634 160.158876 
L 138.664197 160.45338 
L 137.524676 160.552539 
L 134.172828 161.128309 
L 132.058698 161.599032 
L 131.037369 161.966795 
L 128.683209 162.624215 
L 126.564395 163.810845 
L 123.511164 165.737734 
L 122.528651 166.302846 
L 119.228806 168.714642 
L 117.029434 170.747091 
L 115.964948 171.888038 
L 112.325173 175.297494 
L 110.097474 177.67123 
L 108.969739 178.987608 
L 105.208068 184.243149 
L 102.692225 187.886955 
L 96.089142 199.032757 
L 94.679754 201.891743 
L 92.083386 209.184803 
L 90.519483 215.923159 
L 90.060497 218.554613 
L 89.543512 220.91839 
L 89.123085 223.252343 
L 88.933787 224.293618 
L 89.030512 226.353451 
L 89.069228 227.552856 
L 89.600546 231.319128 
L 90.057142 233.285828 
L 91.485845 237.343673 
L 93.397628 240.061624 
L 95.504525 242.765484 
L 98.877598 245.409729 
L 105.13115 248.948656 
L 106.141522 249.465601 
L 108.392458 250.253673 
L 116.890388 251.660681 
L 119.332564 251.692814 
L 124.399058 251.672589 
L 129.555576 250.934683 
L 131.88866 250.336177 
L 137.030679 248.698191 
L 140.823738 247.088863 
L 141.906907 246.440072 
L 144.448352 245.140129 
L 146.785146 243.776559 
L 149.129666 242.098538 
L 151.339694 240.319021 
L 153.693259 238.605684 
L 154.618495 237.745668 
L 156.191296 235.913608 
L 158.909735 232.287328 
L 162.102722 228.118392 
L 164.066614 224.800878 
L 165.249972 222.163651 
L 167.26049 216.782305 
L 168.550096 211.827652 
L 168.93829 208.127849 
L 169.154448 202.928558 
L 169.072608 198.589877 
L 168.79627 195.739643 
L 168.50042 192.835014 
L 166.585718 184.401972 
L 165.570783 181.550358 
L 163.465932 177.585844 
L 161.432278 173.879723 
L 160.682655 172.541908 
L 157.92622 169.032008 
L 156.944553 167.989177 
L 154.8372 166.173999 
L 149.858163 162.754293 
L 144.450877 160.842091 
L 142.217095 160.24575 
L 142.217095 160.24575 
" clip-path="url(#p6709e3b762)" style="fill: none; stroke: #1f77b4; stroke-width: 1.5; stroke-linecap: square"/>
   </g>
   <g id="text_4">
    <!-- Linear-control -->
    <g transform="translate(60.336305 149.52) scale(0.2 -0.2)">
     <defs>
      <path id="DejaVuSans-4c" d="M 628 4666 
L 1259 4666 
L 1259 531 
L 3531 531 
L 3531 0 
L 628 0 
L 628 4666 
z
" transform="scale(0.015625)"/>
      <path id="DejaVuSans-69" d="M 603 3500 
L 1178 3500 
L 1178 0 
L 603 0 
L 603 3500 
z
M 603 4863 
L 1178 4863 
L 1178 4134 
L 603 4134 
L 603 4863 
z
" transform="scale(0.015625)"/>
      <path id="DejaVuSans-65" d="M 3597 1894 
L 3597 1613 
L 953 1613 
Q 991 1019 1311 708 
Q 1631 397 2203 397 
Q 2534 397 2845 478 
Q 3156 559 3463 722 
L 3463 178 
Q 3153 47 2828 -22 
Q 2503 -91 2169 -91 
Q 1331 -91 842 396 
Q 353 884 353 1716 
Q 353 2575 817 3079 
Q 1281 3584 2069 3584 
Q 2775 3584 3186 3129 
Q 3597 2675 3597 1894 
z
M 3022 2063 
Q 3016 2534 2758 2815 
Q 2500 3097 2075 3097 
Q 1594 3097 1305 2825 
Q 1016 2553 972 2059 
L 3022 2063 
z
" transform="scale(0.015625)"/>
     </defs>
     <use xlink:href="#DejaVuSans-4c"/>
     <use xlink:href="#DejaVuSans-69" x="55.712891"/>
     <use xlink:href="#DejaVuSans-6e" x="83.496094"/>
     <use xlink:href="#DejaVuSans-65" x="146.875"/>
     <use xlink:href="#DejaVuSans-61" x="208.398438"/>
     <use xlink:href="#DejaVuSans-72" x="269.677734"/>
     <use xlink:href="#DejaVuSans-2d" x="304.416016"/>
     <use xlink:href="#DejaVuSans-63" x="340.5"/>
     <use xlink:href="#DejaVuSans-6f" x="395.480469"/>
     <use xlink:href="#DejaVuSans-6e" x="456.662109"/>
     <use xlink:href="#DejaVuSans-74" x="520.041016"/>
     <use xlink:href="#DejaVuSans-72" x="559.25"/>
     <use xlink:href="#DejaVuSans-6f" x="598.113281"/>
     <use xlink:href="#DejaVuSans-6c" x="659.294922"/>
    </g>
   </g>
  </g>
  <g id="axes_5">
   <g id="line2d_5">
    <path d="M 295.815048 160.150564 
L 294.828503 160.564155 
L 293.66962 161.307547 
L 292.619807 161.755971 
L 290.563366 163.049119 
L 288.552919 164.872986 
L 287.673395 165.8967 
L 286.031487 168.470631 
L 284.657435 171.386269 
L 283.815556 172.474012 
L 280.534513 175.749951 
L 272.679866 182.392957 
L 271.861781 183.476995 
L 271.31324 184.746941 
L 267.937578 190.819328 
L 267.029766 191.881688 
L 264.881651 193.93531 
L 263.57778 194.860787 
L 261.978993 197.447299 
L 261.512107 198.793352 
L 259.623513 201.62158 
L 256.240499 206.86106 
L 255.425739 208.495091 
L 252.651001 216.461202 
L 250.340025 221.426418 
L 248.770533 224.191138 
L 247.452492 227.131641 
L 246.986828 228.716329 
L 245.568199 231.72596 
L 243.749552 234.700477 
L 242.689503 235.825182 
L 242.089304 236.937667 
L 241.38034 237.847265 
L 239.877911 240.551596 
L 239.968952 241.23082 
L 240.228407 241.850097 
L 240.422084 242.745049 
L 241.039672 243.953687 
L 241.329221 244.500055 
L 242.070748 244.944599 
L 242.564934 245.38716 
L 244.24674 245.553334 
L 245.379971 245.611705 
L 246.287416 245.813846 
L 247.03972 246.492209 
L 248.561899 247.084721 
L 250.033317 248.275414 
L 251.983829 249.165959 
L 253.004496 249.323456 
L 255.938353 250.557594 
L 257.430956 250.855614 
L 259.000697 251.02285 
L 260.110079 250.972065 
L 262.142142 251.387299 
L 263.038591 251.377873 
L 266.171076 251.723634 
L 267.12515 251.738182 
L 272.211683 250.762685 
L 273.262343 250.78525 
L 276.808114 250.614695 
L 278.93419 250.862332 
L 280.286814 250.81169 
L 282.504046 250.366894 
L 283.47938 249.950746 
L 285.345419 248.800572 
L 286.212611 248.000787 
L 286.941564 246.926347 
L 289.092332 245.355858 
L 291.09079 243.541682 
L 294.311593 241.680665 
L 299.225513 238.920593 
L 300.400953 237.96092 
L 301.814469 235.786979 
L 305.693139 231.364833 
L 306.782782 229.256543 
L 307.44416 228.20414 
L 308.473268 225.804742 
L 308.772136 224.793118 
L 309.670268 223.668502 
L 310.825389 221.294694 
L 311.23971 220.018299 
L 311.439227 218.606351 
L 311.791843 217.399544 
L 311.969658 214.834362 
L 313.222798 211.936308 
L 313.622089 210.731394 
L 313.492591 208.803566 
L 313.411554 207.695432 
L 313.431536 205.108308 
L 312.647998 199.198705 
L 312.285518 198.014387 
L 311.811673 197.005998 
L 311.586866 195.948763 
L 311.185931 194.688741 
L 310.877509 193.236793 
L 310.943953 190.009018 
L 311.291587 186.183733 
L 311.03499 184.527783 
L 310.662354 183.561847 
L 310.341552 182.339527 
L 309.053832 178.907264 
L 308.386352 177.699642 
L 307.684008 175.352567 
L 307.359292 173.87672 
L 306.861972 172.525801 
L 306.257836 171.364004 
L 304.260394 168.526224 
L 303.730144 167.294726 
L 302.808878 164.355746 
L 301.729548 162.18285 
L 300.477177 160.667841 
L 300.005308 160.29956 
L 297.512994 160.101818 
L 296.745879 160.195744 
L 296.745879 160.195744 
" clip-path="url(#pfd86aa81ba)" style="fill: none; stroke: #ff7f0e; stroke-width: 1.5; stroke-linecap: square"/>
   </g>
   <g id="text_5">
    <!-- Linear-cytd -->
    <g transform="translate(221.014062 149.52) scale(0.2 -0.2)">
     <use xlink:href="#DejaVuSans-4c"/>
     <use xlink:href="#DejaVuSans-69" x="55.712891"/>
     <use xlink:href="#DejaVuSans-6e" x="83.496094"/>
     <use xlink:href="#DejaVuSans-65" x="146.875"/>
     <use xlink:href="#DejaVuSans-61" x="208.398438"/>
     <use xlink:href="#DejaVuSans-72" x="269.677734"/>
     <use xlink:href="#DejaVuSans-2d" x="304.416016"/>
     <use xlink:href="#DejaVuSans-63" x="340.5"/>
     <use xlink:href="#DejaVuSans-79" x="395.480469"/>
     <use xlink:href="#DejaVuSans-74" x="454.660156"/>
     <use xlink:href="#DejaVuSans-64" x="493.869141"/>
    </g>
   </g>
  </g>
  <g id="axes_6">
   <g id="line2d_6">
    <path d="M 437.255975 160.519509 
L 435.192832 160.945997 
L 433.327961 162.066264 
L 432.368089 162.755293 
L 430.57473 164.55055 
L 429.012072 166.181015 
L 426.142555 169.109973 
L 425.153967 169.880086 
L 423.68103 171.771755 
L 421.691656 173.817551 
L 420.927635 174.727014 
L 420.205535 175.772355 
L 419.827672 176.829366 
L 418.334125 179.169949 
L 414.703867 185.116235 
L 410.32374 193.38185 
L 409.506388 194.698398 
L 403.653362 202.59534 
L 402.736496 203.92282 
L 401.850276 204.972401 
L 401.170766 206.046602 
L 399.84152 208.557402 
L 398.344956 210.743918 
L 397.621475 211.768993 
L 395.903126 215.059876 
L 393.915645 218.155535 
L 392.908799 220.239257 
L 392.367257 221.270733 
L 391.794307 223.401744 
L 391.530233 224.469937 
L 390.653223 226.346056 
L 389.885839 230.693698 
L 390.077502 231.634371 
L 390.094385 232.555929 
L 390.790115 235.635781 
L 391.169436 236.618507 
L 391.372834 237.584185 
L 392.022445 239.539198 
L 392.331849 240.432009 
L 392.848587 241.424577 
L 393.571314 242.479399 
L 394.071659 243.488403 
L 396.359742 246.173415 
L 397.946541 247.978736 
L 398.829787 248.492415 
L 399.885865 249.282119 
L 401.116359 249.854184 
L 402.042794 250.449524 
L 405.185784 251.318459 
L 407.230728 251.738182 
L 410.595719 251.696836 
L 412.717026 251.706141 
L 417.292139 250.978677 
L 420.797101 249.938729 
L 422.0409 249.497936 
L 424.076899 249.020461 
L 426.446061 248.278559 
L 429.937356 246.424885 
L 431.132566 245.965903 
L 432.091433 245.280086 
L 434.320772 244.19158 
L 436.301094 242.931345 
L 438.157142 241.408036 
L 439.118481 240.558378 
L 439.954452 239.380102 
L 445.505691 233.640154 
L 449.441388 228.935329 
L 450.53833 227.173423 
L 451.591897 225.123924 
L 452.64282 222.985152 
L 453.246387 222.027993 
L 455.919437 215.195123 
L 456.464966 212.742661 
L 457.503485 209.550604 
L 457.524196 208.546097 
L 458.589282 201.003507 
L 458.635976 199.680319 
L 459.025926 196.998437 
L 458.762755 191.393217 
L 458.216362 186.109103 
L 457.833361 184.844419 
L 457.695779 183.633764 
L 456.130741 178.765867 
L 454.64892 175.017578 
L 450.529834 167.530414 
L 447.277259 163.621446 
L 444.394574 161.419838 
L 442.686217 160.614539 
L 440.771163 160.101818 
L 439.47234 160.113911 
L 438.420979 160.271286 
L 438.420979 160.271286 
" clip-path="url(#p5dc27db4d9)" style="fill: none; stroke: #2ca02c; stroke-width: 1.5; stroke-linecap: square"/>
   </g>
   <g id="text_6">
    <!-- Linear-jasp -->
    <g transform="translate(369.94182 149.52) scale(0.2 -0.2)">
     <use xlink:href="#DejaVuSans-4c"/>
     <use xlink:href="#DejaVuSans-69" x="55.712891"/>
     <use xlink:href="#DejaVuSans-6e" x="83.496094"/>
     <use xlink:href="#DejaVuSans-65" x="146.875"/>
     <use xlink:href="#DejaVuSans-61" x="208.398438"/>
     <use xlink:href="#DejaVuSans-72" x="269.677734"/>
     <use xlink:href="#DejaVuSans-2d" x="304.416016"/>
     <use xlink:href="#DejaVuSans-6a" x="340.5"/>
     <use xlink:href="#DejaVuSans-61" x="368.283203"/>
     <use xlink:href="#DejaVuSans-73" x="429.5625"/>
     <use xlink:href="#DejaVuSans-70" x="481.662109"/>
    </g>
   </g>
  </g>
 </g>
 <defs>
  <clipPath id="p90dbf38868">
   <rect x="67.5" y="34.56" width="123.088235" height="100.8"/>
  </clipPath>
  <clipPath id="p8fa18b02ea">
   <rect x="215.205882" y="34.56" width="123.088235" height="100.8"/>
  </clipPath>
  <clipPath id="pd0b1722de0">
   <rect x="362.911765" y="34.56" width="123.088235" height="100.8"/>
  </clipPath>
  <clipPath id="p6709e3b762">
   <rect x="67.5" y="155.52" width="123.088235" height="100.8"/>
  </clipPath>
  <clipPath id="pfd86aa81ba">
   <rect x="215.205882" y="155.52" width="123.088235" height="100.8"/>
  </clipPath>
  <clipPath id="p5dc27db4d9">
   <rect x="362.911765" y="155.52" width="123.088235" height="100.8"/>
  </clipPath>
 </defs>
</svg>
