<?xml version="1.0" encoding="utf-8" standalone="no"?>
<!DOCTYPE svg PUBLIC "-//W3C//DTD SVG 1.1//EN"
  "http://www.w3.org/Graphics/SVG/1.1/DTD/svg11.dtd">
<svg xmlns:xlink="http://www.w3.org/1999/xlink" width="576pt" height="288pt" viewBox="0 0 576 288" xmlns="http://www.w3.org/2000/svg" version="1.1">
 <metadata>
  <rdf:RDF xmlns:dc="http://purl.org/dc/elements/1.1/" xmlns:cc="http://creativecommons.org/ns#" xmlns:rdf="http://www.w3.org/1999/02/22-rdf-syntax-ns#">
   <cc:Work>
    <dc:type rdf:resource="http://purl.org/dc/dcmitype/StillImage"/>
    <dc:date>2024-04-25T17:12:26.070182</dc:date>
    <dc:format>image/svg+xml</dc:format>
    <dc:creator>
     <cc:Agent>
      <dc:title>Matplotlib v3.8.4, https://matplotlib.org/</dc:title>
     </cc:Agent>
    </dc:creator>
   </cc:Work>
  </rdf:RDF>
 </metadata>
 <defs>
  <style type="text/css">*{stroke-linejoin: round; stroke-linecap: butt}</style>
 </defs>
 <g id="figure_1">
  <g id="patch_1">
   <path d="M 0 288 
L 576 288 
L 576 0 
L 0 0 
z
" style="fill: #ffffff"/>
  </g>
  <g id="axes_1">
   <g id="patch_2">
    <path d="M 57.615 260.521875 
L 285.78125 260.521875 
L 285.78125 27.437812 
L 57.615 27.437812 
z
" style="fill: #ffffff"/>
   </g>
   <g id="patch_3">
    <path d="M 59.059726 260.521875 
L 66.552933 260.521875 
L 66.552933 231.587556 
L 59.059726 231.587556 
z
" clip-path="url(#p44a1daab58)" style="fill: #1f77b4; opacity: 0.4"/>
   </g>
   <g id="patch_4">
    <path d="M 66.552933 260.521875 
L 74.04614 260.521875 
L 74.04614 231.587556 
L 66.552933 231.587556 
z
" clip-path="url(#p44a1daab58)" style="fill: #1f77b4; opacity: 0.4"/>
   </g>
   <g id="patch_5">
    <path d="M 74.04614 260.521875 
L 81.539347 260.521875 
L 81.539347 217.120396 
L 74.04614 217.120396 
z
" clip-path="url(#p44a1daab58)" style="fill: #1f77b4; opacity: 0.4"/>
   </g>
   <g id="patch_6">
    <path d="M 81.539347 260.521875 
L 89.032554 260.521875 
L 89.032554 173.718917 
L 81.539347 173.718917 
z
" clip-path="url(#p44a1daab58)" style="fill: #1f77b4; opacity: 0.4"/>
   </g>
   <g id="patch_7">
    <path d="M 89.032554 260.521875 
L 96.525761 260.521875 
L 96.525761 195.419657 
L 89.032554 195.419657 
z
" clip-path="url(#p44a1daab58)" style="fill: #1f77b4; opacity: 0.4"/>
   </g>
   <g id="patch_8">
    <path d="M 96.525761 260.521875 
L 104.018969 260.521875 
L 104.018969 209.886816 
L 96.525761 209.886816 
z
" clip-path="url(#p44a1daab58)" style="fill: #1f77b4; opacity: 0.4"/>
   </g>
   <g id="patch_9">
    <path d="M 104.018969 260.521875 
L 111.512176 260.521875 
L 111.512176 209.886816 
L 104.018969 209.886816 
z
" clip-path="url(#p44a1daab58)" style="fill: #1f77b4; opacity: 0.4"/>
   </g>
   <g id="patch_10">
    <path d="M 111.512176 260.521875 
L 119.005383 260.521875 
L 119.005383 209.886816 
L 111.512176 209.886816 
z
" clip-path="url(#p44a1daab58)" style="fill: #1f77b4; opacity: 0.4"/>
   </g>
   <g id="patch_11">
    <path d="M 119.005383 260.521875 
L 126.49859 260.521875 
L 126.49859 217.120396 
L 119.005383 217.120396 
z
" clip-path="url(#p44a1daab58)" style="fill: #1f77b4; opacity: 0.4"/>
   </g>
   <g id="patch_12">
    <path d="M 126.49859 260.521875 
L 133.991797 260.521875 
L 133.991797 217.120396 
L 126.49859 217.120396 
z
" clip-path="url(#p44a1daab58)" style="fill: #1f77b4; opacity: 0.4"/>
   </g>
   <g id="patch_13">
    <path d="M 133.991797 260.521875 
L 141.485004 260.521875 
L 141.485004 202.653237 
L 133.991797 202.653237 
z
" clip-path="url(#p44a1daab58)" style="fill: #1f77b4; opacity: 0.4"/>
   </g>
   <g id="patch_14">
    <path d="M 141.485004 260.521875 
L 148.978211 260.521875 
L 148.978211 217.120396 
L 141.485004 217.120396 
z
" clip-path="url(#p44a1daab58)" style="fill: #1f77b4; opacity: 0.4"/>
   </g>
   <g id="patch_15">
    <path d="M 148.978211 260.521875 
L 156.471419 260.521875 
L 156.471419 224.353976 
L 148.978211 224.353976 
z
" clip-path="url(#p44a1daab58)" style="fill: #1f77b4; opacity: 0.4"/>
   </g>
   <g id="patch_16">
    <path d="M 156.471419 260.521875 
L 163.964626 260.521875 
L 163.964626 238.821136 
L 156.471419 238.821136 
z
" clip-path="url(#p44a1daab58)" style="fill: #1f77b4; opacity: 0.4"/>
   </g>
   <g id="patch_17">
    <path d="M 163.964626 260.521875 
L 171.457833 260.521875 
L 171.457833 195.419657 
L 163.964626 195.419657 
z
" clip-path="url(#p44a1daab58)" style="fill: #1f77b4; opacity: 0.4"/>
   </g>
   <g id="patch_18">
    <path d="M 171.457833 260.521875 
L 178.95104 260.521875 
L 178.95104 238.821136 
L 171.457833 238.821136 
z
" clip-path="url(#p44a1daab58)" style="fill: #1f77b4; opacity: 0.4"/>
   </g>
   <g id="patch_19">
    <path d="M 178.95104 260.521875 
L 186.444247 260.521875 
L 186.444247 231.587556 
L 178.95104 231.587556 
z
" clip-path="url(#p44a1daab58)" style="fill: #1f77b4; opacity: 0.4"/>
   </g>
   <g id="patch_20">
    <path d="M 186.444247 260.521875 
L 193.937454 260.521875 
L 193.937454 231.587556 
L 186.444247 231.587556 
z
" clip-path="url(#p44a1daab58)" style="fill: #1f77b4; opacity: 0.4"/>
   </g>
   <g id="patch_21">
    <path d="M 193.937454 260.521875 
L 201.430662 260.521875 
L 201.430662 260.521875 
L 193.937454 260.521875 
z
" clip-path="url(#p44a1daab58)" style="fill: #1f77b4; opacity: 0.4"/>
   </g>
   <g id="patch_22">
    <path d="M 201.430662 260.521875 
L 208.923869 260.521875 
L 208.923869 231.587556 
L 201.430662 231.587556 
z
" clip-path="url(#p44a1daab58)" style="fill: #1f77b4; opacity: 0.4"/>
   </g>
   <g id="patch_23">
    <path d="M 130.913021 260.521875 
L 137.894882 260.521875 
L 137.894882 249.459084 
L 130.913021 249.459084 
z
" clip-path="url(#p44a1daab58)" style="fill: #ff7f0e; opacity: 0.4"/>
   </g>
   <g id="patch_24">
    <path d="M 137.894882 260.521875 
L 144.876742 260.521875 
L 144.876742 216.270709 
L 137.894882 216.270709 
z
" clip-path="url(#p44a1daab58)" style="fill: #ff7f0e; opacity: 0.4"/>
   </g>
   <g id="patch_25">
    <path d="M 144.876742 260.521875 
L 151.858602 260.521875 
L 151.858602 249.459084 
L 144.876742 249.459084 
z
" clip-path="url(#p44a1daab58)" style="fill: #ff7f0e; opacity: 0.4"/>
   </g>
   <g id="patch_26">
    <path d="M 151.858602 260.521875 
L 158.840463 260.521875 
L 158.840463 227.333501 
L 151.858602 227.333501 
z
" clip-path="url(#p44a1daab58)" style="fill: #ff7f0e; opacity: 0.4"/>
   </g>
   <g id="patch_27">
    <path d="M 158.840463 260.521875 
L 165.822323 260.521875 
L 165.822323 194.145126 
L 158.840463 194.145126 
z
" clip-path="url(#p44a1daab58)" style="fill: #ff7f0e; opacity: 0.4"/>
   </g>
   <g id="patch_28">
    <path d="M 165.822323 260.521875 
L 172.804183 260.521875 
L 172.804183 194.145126 
L 165.822323 194.145126 
z
" clip-path="url(#p44a1daab58)" style="fill: #ff7f0e; opacity: 0.4"/>
   </g>
   <g id="patch_29">
    <path d="M 172.804183 260.521875 
L 179.786043 260.521875 
L 179.786043 227.333501 
L 172.804183 227.333501 
z
" clip-path="url(#p44a1daab58)" style="fill: #ff7f0e; opacity: 0.4"/>
   </g>
   <g id="patch_30">
    <path d="M 179.786043 260.521875 
L 186.767904 260.521875 
L 186.767904 172.019544 
L 179.786043 172.019544 
z
" clip-path="url(#p44a1daab58)" style="fill: #ff7f0e; opacity: 0.4"/>
   </g>
   <g id="patch_31">
    <path d="M 186.767904 260.521875 
L 193.749764 260.521875 
L 193.749764 172.019544 
L 186.767904 172.019544 
z
" clip-path="url(#p44a1daab58)" style="fill: #ff7f0e; opacity: 0.4"/>
   </g>
   <g id="patch_32">
    <path d="M 193.749764 260.521875 
L 200.731624 260.521875 
L 200.731624 194.145126 
L 193.749764 194.145126 
z
" clip-path="url(#p44a1daab58)" style="fill: #ff7f0e; opacity: 0.4"/>
   </g>
   <g id="patch_33">
    <path d="M 200.731624 260.521875 
L 207.713485 260.521875 
L 207.713485 205.207918 
L 200.731624 205.207918 
z
" clip-path="url(#p44a1daab58)" style="fill: #ff7f0e; opacity: 0.4"/>
   </g>
   <g id="patch_34">
    <path d="M 207.713485 260.521875 
L 214.695345 260.521875 
L 214.695345 227.333501 
L 207.713485 227.333501 
z
" clip-path="url(#p44a1daab58)" style="fill: #ff7f0e; opacity: 0.4"/>
   </g>
   <g id="patch_35">
    <path d="M 214.695345 260.521875 
L 221.677205 260.521875 
L 221.677205 205.207918 
L 214.695345 205.207918 
z
" clip-path="url(#p44a1daab58)" style="fill: #ff7f0e; opacity: 0.4"/>
   </g>
   <g id="patch_36">
    <path d="M 221.677205 260.521875 
L 228.659066 260.521875 
L 228.659066 205.207918 
L 221.677205 205.207918 
z
" clip-path="url(#p44a1daab58)" style="fill: #ff7f0e; opacity: 0.4"/>
   </g>
   <g id="patch_37">
    <path d="M 228.659066 260.521875 
L 235.640926 260.521875 
L 235.640926 249.459084 
L 228.659066 249.459084 
z
" clip-path="url(#p44a1daab58)" style="fill: #ff7f0e; opacity: 0.4"/>
   </g>
   <g id="patch_38">
    <path d="M 235.640926 260.521875 
L 242.622786 260.521875 
L 242.622786 238.396292 
L 235.640926 238.396292 
z
" clip-path="url(#p44a1daab58)" style="fill: #ff7f0e; opacity: 0.4"/>
   </g>
   <g id="patch_39">
    <path d="M 242.622786 260.521875 
L 249.604647 260.521875 
L 249.604647 227.333501 
L 242.622786 227.333501 
z
" clip-path="url(#p44a1daab58)" style="fill: #ff7f0e; opacity: 0.4"/>
   </g>
   <g id="patch_40">
    <path d="M 249.604647 260.521875 
L 256.586507 260.521875 
L 256.586507 194.145126 
L 249.604647 194.145126 
z
" clip-path="url(#p44a1daab58)" style="fill: #ff7f0e; opacity: 0.4"/>
   </g>
   <g id="patch_41">
    <path d="M 256.586507 260.521875 
L 263.568367 260.521875 
L 263.568367 249.459084 
L 256.586507 249.459084 
z
" clip-path="url(#p44a1daab58)" style="fill: #ff7f0e; opacity: 0.4"/>
   </g>
   <g id="patch_42">
    <path d="M 263.568367 260.521875 
L 270.550228 260.521875 
L 270.550228 227.333501 
L 263.568367 227.333501 
z
" clip-path="url(#p44a1daab58)" style="fill: #ff7f0e; opacity: 0.4"/>
   </g>
   <g id="patch_43">
    <path d="M 124.673708 260.521875 
L 129.312996 260.521875 
L 129.312996 149.529464 
L 124.673708 149.529464 
z
" clip-path="url(#p44a1daab58)" style="fill: #2ca02c; opacity: 0.4"/>
   </g>
   <g id="patch_44">
    <path d="M 129.312996 260.521875 
L 133.952284 260.521875 
L 133.952284 171.727946 
L 129.312996 171.727946 
z
" clip-path="url(#p44a1daab58)" style="fill: #2ca02c; opacity: 0.4"/>
   </g>
   <g id="patch_45">
    <path d="M 133.952284 260.521875 
L 138.591572 260.521875 
L 138.591572 149.529464 
L 133.952284 149.529464 
z
" clip-path="url(#p44a1daab58)" style="fill: #2ca02c; opacity: 0.4"/>
   </g>
   <g id="patch_46">
    <path d="M 138.591572 260.521875 
L 143.23086 260.521875 
L 143.23086 193.926429 
L 138.591572 193.926429 
z
" clip-path="url(#p44a1daab58)" style="fill: #2ca02c; opacity: 0.4"/>
   </g>
   <g id="patch_47">
    <path d="M 143.23086 260.521875 
L 147.870148 260.521875 
L 147.870148 193.926429 
L 143.23086 193.926429 
z
" clip-path="url(#p44a1daab58)" style="fill: #2ca02c; opacity: 0.4"/>
   </g>
   <g id="patch_48">
    <path d="M 147.870148 260.521875 
L 152.509436 260.521875 
L 152.509436 171.727946 
L 147.870148 171.727946 
z
" clip-path="url(#p44a1daab58)" style="fill: #2ca02c; opacity: 0.4"/>
   </g>
   <g id="patch_49">
    <path d="M 152.509436 260.521875 
L 157.148724 260.521875 
L 157.148724 38.537054 
L 152.509436 38.537054 
z
" clip-path="url(#p44a1daab58)" style="fill: #2ca02c; opacity: 0.4"/>
   </g>
   <g id="patch_50">
    <path d="M 157.148724 260.521875 
L 161.788012 260.521875 
L 161.788012 149.529464 
L 157.148724 149.529464 
z
" clip-path="url(#p44a1daab58)" style="fill: #2ca02c; opacity: 0.4"/>
   </g>
   <g id="patch_51">
    <path d="M 161.788012 260.521875 
L 166.4273 260.521875 
L 166.4273 238.323393 
L 161.788012 238.323393 
z
" clip-path="url(#p44a1daab58)" style="fill: #2ca02c; opacity: 0.4"/>
   </g>
   <g id="patch_52">
    <path d="M 166.4273 260.521875 
L 171.066588 260.521875 
L 171.066588 193.926429 
L 166.4273 193.926429 
z
" clip-path="url(#p44a1daab58)" style="fill: #2ca02c; opacity: 0.4"/>
   </g>
   <g id="patch_53">
    <path d="M 171.066588 260.521875 
L 175.705876 260.521875 
L 175.705876 216.124911 
L 171.066588 216.124911 
z
" clip-path="url(#p44a1daab58)" style="fill: #2ca02c; opacity: 0.4"/>
   </g>
   <g id="patch_54">
    <path d="M 175.705876 260.521875 
L 180.345164 260.521875 
L 180.345164 149.529464 
L 175.705876 149.529464 
z
" clip-path="url(#p44a1daab58)" style="fill: #2ca02c; opacity: 0.4"/>
   </g>
   <g id="patch_55">
    <path d="M 180.345164 260.521875 
L 184.984452 260.521875 
L 184.984452 238.323393 
L 180.345164 238.323393 
z
" clip-path="url(#p44a1daab58)" style="fill: #2ca02c; opacity: 0.4"/>
   </g>
   <g id="patch_56">
    <path d="M 184.984452 260.521875 
L 189.62374 260.521875 
L 189.62374 216.124911 
L 184.984452 216.124911 
z
" clip-path="url(#p44a1daab58)" style="fill: #2ca02c; opacity: 0.4"/>
   </g>
   <g id="patch_57">
    <path d="M 189.62374 260.521875 
L 194.263028 260.521875 
L 194.263028 216.124911 
L 189.62374 216.124911 
z
" clip-path="url(#p44a1daab58)" style="fill: #2ca02c; opacity: 0.4"/>
   </g>
   <g id="patch_58">
    <path d="M 194.263028 260.521875 
L 198.902316 260.521875 
L 198.902316 216.124911 
L 194.263028 216.124911 
z
" clip-path="url(#p44a1daab58)" style="fill: #2ca02c; opacity: 0.4"/>
   </g>
   <g id="patch_59">
    <path d="M 198.902316 260.521875 
L 203.541605 260.521875 
L 203.541605 238.323393 
L 198.902316 238.323393 
z
" clip-path="url(#p44a1daab58)" style="fill: #2ca02c; opacity: 0.4"/>
   </g>
   <g id="patch_60">
    <path d="M 203.541605 260.521875 
L 208.180893 260.521875 
L 208.180893 260.521875 
L 203.541605 260.521875 
z
" clip-path="url(#p44a1daab58)" style="fill: #2ca02c; opacity: 0.4"/>
   </g>
   <g id="patch_61">
    <path d="M 208.180893 260.521875 
L 212.820181 260.521875 
L 212.820181 260.521875 
L 208.180893 260.521875 
z
" clip-path="url(#p44a1daab58)" style="fill: #2ca02c; opacity: 0.4"/>
   </g>
   <g id="patch_62">
    <path d="M 212.820181 260.521875 
L 217.459469 260.521875 
L 217.459469 216.124911 
L 212.820181 216.124911 
z
" clip-path="url(#p44a1daab58)" style="fill: #2ca02c; opacity: 0.4"/>
   </g>
   <g id="matplotlib.axis_1">
    <g id="xtick_1">
     <g id="line2d_1">
      <defs>
       <path id="md8dc9a1e93" d="M 0 0 
L 0 3.5 
" style="stroke: #000000; stroke-width: 0.8"/>
      </defs>
      <g>
       <use xlink:href="#md8dc9a1e93" x="103.000033" y="260.521875" style="stroke: #000000; stroke-width: 0.8"/>
      </g>
     </g>
     <g id="text_1">
      <!-- 0.6 -->
      <g transform="translate(95.04847 275.120313) scale(0.1 -0.1)">
       <defs>
        <path id="DejaVuSans-30" d="M 2034 4250 
Q 1547 4250 1301 3770 
Q 1056 3291 1056 2328 
Q 1056 1369 1301 889 
Q 1547 409 2034 409 
Q 2525 409 2770 889 
Q 3016 1369 3016 2328 
Q 3016 3291 2770 3770 
Q 2525 4250 2034 4250 
z
M 2034 4750 
Q 2819 4750 3233 4129 
Q 3647 3509 3647 2328 
Q 3647 1150 3233 529 
Q 2819 -91 2034 -91 
Q 1250 -91 836 529 
Q 422 1150 422 2328 
Q 422 3509 836 4129 
Q 1250 4750 2034 4750 
z
" transform="scale(0.015625)"/>
        <path id="DejaVuSans-2e" d="M 684 794 
L 1344 794 
L 1344 0 
L 684 0 
L 684 794 
z
" transform="scale(0.015625)"/>
        <path id="DejaVuSans-36" d="M 2113 2584 
Q 1688 2584 1439 2293 
Q 1191 2003 1191 1497 
Q 1191 994 1439 701 
Q 1688 409 2113 409 
Q 2538 409 2786 701 
Q 3034 994 3034 1497 
Q 3034 2003 2786 2293 
Q 2538 2584 2113 2584 
z
M 3366 4563 
L 3366 3988 
Q 3128 4100 2886 4159 
Q 2644 4219 2406 4219 
Q 1781 4219 1451 3797 
Q 1122 3375 1075 2522 
Q 1259 2794 1537 2939 
Q 1816 3084 2150 3084 
Q 2853 3084 3261 2657 
Q 3669 2231 3669 1497 
Q 3669 778 3244 343 
Q 2819 -91 2113 -91 
Q 1303 -91 875 529 
Q 447 1150 447 2328 
Q 447 3434 972 4092 
Q 1497 4750 2381 4750 
Q 2619 4750 2861 4703 
Q 3103 4656 3366 4563 
z
" transform="scale(0.015625)"/>
       </defs>
       <use xlink:href="#DejaVuSans-30"/>
       <use xlink:href="#DejaVuSans-2e" x="63.623047"/>
       <use xlink:href="#DejaVuSans-36" x="95.410156"/>
      </g>
     </g>
    </g>
    <g id="xtick_2">
     <g id="line2d_2">
      <g>
       <use xlink:href="#md8dc9a1e93" x="154.498976" y="260.521875" style="stroke: #000000; stroke-width: 0.8"/>
      </g>
     </g>
     <g id="text_2">
      <!-- 0.7 -->
      <g transform="translate(146.547414 275.120313) scale(0.1 -0.1)">
       <defs>
        <path id="DejaVuSans-37" d="M 525 4666 
L 3525 4666 
L 3525 4397 
L 1831 0 
L 1172 0 
L 2766 4134 
L 525 4134 
L 525 4666 
z
" transform="scale(0.015625)"/>
       </defs>
       <use xlink:href="#DejaVuSans-30"/>
       <use xlink:href="#DejaVuSans-2e" x="63.623047"/>
       <use xlink:href="#DejaVuSans-37" x="95.410156"/>
      </g>
     </g>
    </g>
    <g id="xtick_3">
     <g id="line2d_3">
      <g>
       <use xlink:href="#md8dc9a1e93" x="205.99792" y="260.521875" style="stroke: #000000; stroke-width: 0.8"/>
      </g>
     </g>
     <g id="text_3">
      <!-- 0.8 -->
      <g transform="translate(198.046357 275.120313) scale(0.1 -0.1)">
       <defs>
        <path id="DejaVuSans-38" d="M 2034 2216 
Q 1584 2216 1326 1975 
Q 1069 1734 1069 1313 
Q 1069 891 1326 650 
Q 1584 409 2034 409 
Q 2484 409 2743 651 
Q 3003 894 3003 1313 
Q 3003 1734 2745 1975 
Q 2488 2216 2034 2216 
z
M 1403 2484 
Q 997 2584 770 2862 
Q 544 3141 544 3541 
Q 544 4100 942 4425 
Q 1341 4750 2034 4750 
Q 2731 4750 3128 4425 
Q 3525 4100 3525 3541 
Q 3525 3141 3298 2862 
Q 3072 2584 2669 2484 
Q 3125 2378 3379 2068 
Q 3634 1759 3634 1313 
Q 3634 634 3220 271 
Q 2806 -91 2034 -91 
Q 1263 -91 848 271 
Q 434 634 434 1313 
Q 434 1759 690 2068 
Q 947 2378 1403 2484 
z
M 1172 3481 
Q 1172 3119 1398 2916 
Q 1625 2713 2034 2713 
Q 2441 2713 2670 2916 
Q 2900 3119 2900 3481 
Q 2900 3844 2670 4047 
Q 2441 4250 2034 4250 
Q 1625 4250 1398 4047 
Q 1172 3844 1172 3481 
z
" transform="scale(0.015625)"/>
       </defs>
       <use xlink:href="#DejaVuSans-30"/>
       <use xlink:href="#DejaVuSans-2e" x="63.623047"/>
       <use xlink:href="#DejaVuSans-38" x="95.410156"/>
      </g>
     </g>
    </g>
    <g id="xtick_4">
     <g id="line2d_4">
      <g>
       <use xlink:href="#md8dc9a1e93" x="257.496863" y="260.521875" style="stroke: #000000; stroke-width: 0.8"/>
      </g>
     </g>
     <g id="text_4">
      <!-- 0.9 -->
      <g transform="translate(249.5453 275.120313) scale(0.1 -0.1)">
       <defs>
        <path id="DejaVuSans-39" d="M 703 97 
L 703 672 
Q 941 559 1184 500 
Q 1428 441 1663 441 
Q 2288 441 2617 861 
Q 2947 1281 2994 2138 
Q 2813 1869 2534 1725 
Q 2256 1581 1919 1581 
Q 1219 1581 811 2004 
Q 403 2428 403 3163 
Q 403 3881 828 4315 
Q 1253 4750 1959 4750 
Q 2769 4750 3195 4129 
Q 3622 3509 3622 2328 
Q 3622 1225 3098 567 
Q 2575 -91 1691 -91 
Q 1453 -91 1209 -44 
Q 966 3 703 97 
z
M 1959 2075 
Q 2384 2075 2632 2365 
Q 2881 2656 2881 3163 
Q 2881 3666 2632 3958 
Q 2384 4250 1959 4250 
Q 1534 4250 1286 3958 
Q 1038 3666 1038 3163 
Q 1038 2656 1286 2365 
Q 1534 2075 1959 2075 
z
" transform="scale(0.015625)"/>
       </defs>
       <use xlink:href="#DejaVuSans-30"/>
       <use xlink:href="#DejaVuSans-2e" x="63.623047"/>
       <use xlink:href="#DejaVuSans-39" x="95.410156"/>
      </g>
     </g>
    </g>
   </g>
   <g id="matplotlib.axis_2">
    <g id="ytick_1">
     <g id="line2d_5">
      <defs>
       <path id="m22e6342a0f" d="M 0 0 
L -3.5 0 
" style="stroke: #000000; stroke-width: 0.8"/>
      </defs>
      <g>
       <use xlink:href="#m22e6342a0f" x="57.615" y="260.521875" style="stroke: #000000; stroke-width: 0.8"/>
      </g>
     </g>
     <g id="text_5">
      <!-- 0.0 -->
      <g transform="translate(34.711875 264.321094) scale(0.1 -0.1)">
       <use xlink:href="#DejaVuSans-30"/>
       <use xlink:href="#DejaVuSans-2e" x="63.623047"/>
       <use xlink:href="#DejaVuSans-30" x="95.410156"/>
      </g>
     </g>
    </g>
    <g id="ytick_2">
     <g id="line2d_6">
      <g>
       <use xlink:href="#m22e6342a0f" x="57.615" y="230.525584" style="stroke: #000000; stroke-width: 0.8"/>
      </g>
     </g>
     <g id="text_6">
      <!-- 2.5 -->
      <g transform="translate(34.711875 234.324803) scale(0.1 -0.1)">
       <defs>
        <path id="DejaVuSans-32" d="M 1228 531 
L 3431 531 
L 3431 0 
L 469 0 
L 469 531 
Q 828 903 1448 1529 
Q 2069 2156 2228 2338 
Q 2531 2678 2651 2914 
Q 2772 3150 2772 3378 
Q 2772 3750 2511 3984 
Q 2250 4219 1831 4219 
Q 1534 4219 1204 4116 
Q 875 4013 500 3803 
L 500 4441 
Q 881 4594 1212 4672 
Q 1544 4750 1819 4750 
Q 2544 4750 2975 4387 
Q 3406 4025 3406 3419 
Q 3406 3131 3298 2873 
Q 3191 2616 2906 2266 
Q 2828 2175 2409 1742 
Q 1991 1309 1228 531 
z
" transform="scale(0.015625)"/>
        <path id="DejaVuSans-35" d="M 691 4666 
L 3169 4666 
L 3169 4134 
L 1269 4134 
L 1269 2991 
Q 1406 3038 1543 3061 
Q 1681 3084 1819 3084 
Q 2600 3084 3056 2656 
Q 3513 2228 3513 1497 
Q 3513 744 3044 326 
Q 2575 -91 1722 -91 
Q 1428 -91 1123 -41 
Q 819 9 494 109 
L 494 744 
Q 775 591 1075 516 
Q 1375 441 1709 441 
Q 2250 441 2565 725 
Q 2881 1009 2881 1497 
Q 2881 1984 2565 2268 
Q 2250 2553 1709 2553 
Q 1456 2553 1204 2497 
Q 953 2441 691 2322 
L 691 4666 
z
" transform="scale(0.015625)"/>
       </defs>
       <use xlink:href="#DejaVuSans-32"/>
       <use xlink:href="#DejaVuSans-2e" x="63.623047"/>
       <use xlink:href="#DejaVuSans-35" x="95.410156"/>
      </g>
     </g>
    </g>
    <g id="ytick_3">
     <g id="line2d_7">
      <g>
       <use xlink:href="#m22e6342a0f" x="57.615" y="200.529293" style="stroke: #000000; stroke-width: 0.8"/>
      </g>
     </g>
     <g id="text_7">
      <!-- 5.0 -->
      <g transform="translate(34.711875 204.328512) scale(0.1 -0.1)">
       <use xlink:href="#DejaVuSans-35"/>
       <use xlink:href="#DejaVuSans-2e" x="63.623047"/>
       <use xlink:href="#DejaVuSans-30" x="95.410156"/>
      </g>
     </g>
    </g>
    <g id="ytick_4">
     <g id="line2d_8">
      <g>
       <use xlink:href="#m22e6342a0f" x="57.615" y="170.533002" style="stroke: #000000; stroke-width: 0.8"/>
      </g>
     </g>
     <g id="text_8">
      <!-- 7.5 -->
      <g transform="translate(34.711875 174.332221) scale(0.1 -0.1)">
       <use xlink:href="#DejaVuSans-37"/>
       <use xlink:href="#DejaVuSans-2e" x="63.623047"/>
       <use xlink:href="#DejaVuSans-35" x="95.410156"/>
      </g>
     </g>
    </g>
    <g id="ytick_5">
     <g id="line2d_9">
      <g>
       <use xlink:href="#m22e6342a0f" x="57.615" y="140.536711" style="stroke: #000000; stroke-width: 0.8"/>
      </g>
     </g>
     <g id="text_9">
      <!-- 10.0 -->
      <g transform="translate(28.349375 144.33593) scale(0.1 -0.1)">
       <defs>
        <path id="DejaVuSans-31" d="M 794 531 
L 1825 531 
L 1825 4091 
L 703 3866 
L 703 4441 
L 1819 4666 
L 2450 4666 
L 2450 531 
L 3481 531 
L 3481 0 
L 794 0 
L 794 531 
z
" transform="scale(0.015625)"/>
       </defs>
       <use xlink:href="#DejaVuSans-31"/>
       <use xlink:href="#DejaVuSans-30" x="63.623047"/>
       <use xlink:href="#DejaVuSans-2e" x="127.246094"/>
       <use xlink:href="#DejaVuSans-30" x="159.033203"/>
      </g>
     </g>
    </g>
    <g id="ytick_6">
     <g id="line2d_10">
      <g>
       <use xlink:href="#m22e6342a0f" x="57.615" y="110.54042" style="stroke: #000000; stroke-width: 0.8"/>
      </g>
     </g>
     <g id="text_10">
      <!-- 12.5 -->
      <g transform="translate(28.349375 114.339639) scale(0.1 -0.1)">
       <use xlink:href="#DejaVuSans-31"/>
       <use xlink:href="#DejaVuSans-32" x="63.623047"/>
       <use xlink:href="#DejaVuSans-2e" x="127.246094"/>
       <use xlink:href="#DejaVuSans-35" x="159.033203"/>
      </g>
     </g>
    </g>
    <g id="ytick_7">
     <g id="line2d_11">
      <g>
       <use xlink:href="#m22e6342a0f" x="57.615" y="80.544129" style="stroke: #000000; stroke-width: 0.8"/>
      </g>
     </g>
     <g id="text_11">
      <!-- 15.0 -->
      <g transform="translate(28.349375 84.343348) scale(0.1 -0.1)">
       <use xlink:href="#DejaVuSans-31"/>
       <use xlink:href="#DejaVuSans-35" x="63.623047"/>
       <use xlink:href="#DejaVuSans-2e" x="127.246094"/>
       <use xlink:href="#DejaVuSans-30" x="159.033203"/>
      </g>
     </g>
    </g>
    <g id="ytick_8">
     <g id="line2d_12">
      <g>
       <use xlink:href="#m22e6342a0f" x="57.615" y="50.547838" style="stroke: #000000; stroke-width: 0.8"/>
      </g>
     </g>
     <g id="text_12">
      <!-- 17.5 -->
      <g transform="translate(28.349375 54.347057) scale(0.1 -0.1)">
       <use xlink:href="#DejaVuSans-31"/>
       <use xlink:href="#DejaVuSans-37" x="63.623047"/>
       <use xlink:href="#DejaVuSans-2e" x="127.246094"/>
       <use xlink:href="#DejaVuSans-35" x="159.033203"/>
      </g>
     </g>
    </g>
    <g id="text_13">
     <!-- Fraction of cells -->
     <g transform="translate(21.437813 198.811719) rotate(-90) scale(0.14 -0.14)">
      <defs>
       <path id="DejaVuSans-46" d="M 628 4666 
L 3309 4666 
L 3309 4134 
L 1259 4134 
L 1259 2759 
L 3109 2759 
L 3109 2228 
L 1259 2228 
L 1259 0 
L 628 0 
L 628 4666 
z
" transform="scale(0.015625)"/>
       <path id="DejaVuSans-72" d="M 2631 2963 
Q 2534 3019 2420 3045 
Q 2306 3072 2169 3072 
Q 1681 3072 1420 2755 
Q 1159 2438 1159 1844 
L 1159 0 
L 581 0 
L 581 3500 
L 1159 3500 
L 1159 2956 
Q 1341 3275 1631 3429 
Q 1922 3584 2338 3584 
Q 2397 3584 2469 3576 
Q 2541 3569 2628 3553 
L 2631 2963 
z
" transform="scale(0.015625)"/>
       <path id="DejaVuSans-61" d="M 2194 1759 
Q 1497 1759 1228 1600 
Q 959 1441 959 1056 
Q 959 750 1161 570 
Q 1363 391 1709 391 
Q 2188 391 2477 730 
Q 2766 1069 2766 1631 
L 2766 1759 
L 2194 1759 
z
M 3341 1997 
L 3341 0 
L 2766 0 
L 2766 531 
Q 2569 213 2275 61 
Q 1981 -91 1556 -91 
Q 1019 -91 701 211 
Q 384 513 384 1019 
Q 384 1609 779 1909 
Q 1175 2209 1959 2209 
L 2766 2209 
L 2766 2266 
Q 2766 2663 2505 2880 
Q 2244 3097 1772 3097 
Q 1472 3097 1187 3025 
Q 903 2953 641 2809 
L 641 3341 
Q 956 3463 1253 3523 
Q 1550 3584 1831 3584 
Q 2591 3584 2966 3190 
Q 3341 2797 3341 1997 
z
" transform="scale(0.015625)"/>
       <path id="DejaVuSans-63" d="M 3122 3366 
L 3122 2828 
Q 2878 2963 2633 3030 
Q 2388 3097 2138 3097 
Q 1578 3097 1268 2742 
Q 959 2388 959 1747 
Q 959 1106 1268 751 
Q 1578 397 2138 397 
Q 2388 397 2633 464 
Q 2878 531 3122 666 
L 3122 134 
Q 2881 22 2623 -34 
Q 2366 -91 2075 -91 
Q 1284 -91 818 406 
Q 353 903 353 1747 
Q 353 2603 823 3093 
Q 1294 3584 2113 3584 
Q 2378 3584 2631 3529 
Q 2884 3475 3122 3366 
z
" transform="scale(0.015625)"/>
       <path id="DejaVuSans-74" d="M 1172 4494 
L 1172 3500 
L 2356 3500 
L 2356 3053 
L 1172 3053 
L 1172 1153 
Q 1172 725 1289 603 
Q 1406 481 1766 481 
L 2356 481 
L 2356 0 
L 1766 0 
Q 1100 0 847 248 
Q 594 497 594 1153 
L 594 3053 
L 172 3053 
L 172 3500 
L 594 3500 
L 594 4494 
L 1172 4494 
z
" transform="scale(0.015625)"/>
       <path id="DejaVuSans-69" d="M 603 3500 
L 1178 3500 
L 1178 0 
L 603 0 
L 603 3500 
z
M 603 4863 
L 1178 4863 
L 1178 4134 
L 603 4134 
L 603 4863 
z
" transform="scale(0.015625)"/>
       <path id="DejaVuSans-6f" d="M 1959 3097 
Q 1497 3097 1228 2736 
Q 959 2375 959 1747 
Q 959 1119 1226 758 
Q 1494 397 1959 397 
Q 2419 397 2687 759 
Q 2956 1122 2956 1747 
Q 2956 2369 2687 2733 
Q 2419 3097 1959 3097 
z
M 1959 3584 
Q 2709 3584 3137 3096 
Q 3566 2609 3566 1747 
Q 3566 888 3137 398 
Q 2709 -91 1959 -91 
Q 1206 -91 779 398 
Q 353 888 353 1747 
Q 353 2609 779 3096 
Q 1206 3584 1959 3584 
z
" transform="scale(0.015625)"/>
       <path id="DejaVuSans-6e" d="M 3513 2113 
L 3513 0 
L 2938 0 
L 2938 2094 
Q 2938 2591 2744 2837 
Q 2550 3084 2163 3084 
Q 1697 3084 1428 2787 
Q 1159 2491 1159 1978 
L 1159 0 
L 581 0 
L 581 3500 
L 1159 3500 
L 1159 2956 
Q 1366 3272 1645 3428 
Q 1925 3584 2291 3584 
Q 2894 3584 3203 3211 
Q 3513 2838 3513 2113 
z
" transform="scale(0.015625)"/>
       <path id="DejaVuSans-20" transform="scale(0.015625)"/>
       <path id="DejaVuSans-66" d="M 2375 4863 
L 2375 4384 
L 1825 4384 
Q 1516 4384 1395 4259 
Q 1275 4134 1275 3809 
L 1275 3500 
L 2222 3500 
L 2222 3053 
L 1275 3053 
L 1275 0 
L 697 0 
L 697 3053 
L 147 3053 
L 147 3500 
L 697 3500 
L 697 3744 
Q 697 4328 969 4595 
Q 1241 4863 1831 4863 
L 2375 4863 
z
" transform="scale(0.015625)"/>
       <path id="DejaVuSans-65" d="M 3597 1894 
L 3597 1613 
L 953 1613 
Q 991 1019 1311 708 
Q 1631 397 2203 397 
Q 2534 397 2845 478 
Q 3156 559 3463 722 
L 3463 178 
Q 3153 47 2828 -22 
Q 2503 -91 2169 -91 
Q 1331 -91 842 396 
Q 353 884 353 1716 
Q 353 2575 817 3079 
Q 1281 3584 2069 3584 
Q 2775 3584 3186 3129 
Q 3597 2675 3597 1894 
z
M 3022 2063 
Q 3016 2534 2758 2815 
Q 2500 3097 2075 3097 
Q 1594 3097 1305 2825 
Q 1016 2553 972 2059 
L 3022 2063 
z
" transform="scale(0.015625)"/>
       <path id="DejaVuSans-6c" d="M 603 4863 
L 1178 4863 
L 1178 0 
L 603 0 
L 603 4863 
z
" transform="scale(0.015625)"/>
       <path id="DejaVuSans-73" d="M 2834 3397 
L 2834 2853 
Q 2591 2978 2328 3040 
Q 2066 3103 1784 3103 
Q 1356 3103 1142 2972 
Q 928 2841 928 2578 
Q 928 2378 1081 2264 
Q 1234 2150 1697 2047 
L 1894 2003 
Q 2506 1872 2764 1633 
Q 3022 1394 3022 966 
Q 3022 478 2636 193 
Q 2250 -91 1575 -91 
Q 1294 -91 989 -36 
Q 684 19 347 128 
L 347 722 
Q 666 556 975 473 
Q 1284 391 1588 391 
Q 1994 391 2212 530 
Q 2431 669 2431 922 
Q 2431 1156 2273 1281 
Q 2116 1406 1581 1522 
L 1381 1569 
Q 847 1681 609 1914 
Q 372 2147 372 2553 
Q 372 3047 722 3315 
Q 1072 3584 1716 3584 
Q 2034 3584 2315 3537 
Q 2597 3491 2834 3397 
z
" transform="scale(0.015625)"/>
      </defs>
      <use xlink:href="#DejaVuSans-46"/>
      <use xlink:href="#DejaVuSans-72" x="50.269531"/>
      <use xlink:href="#DejaVuSans-61" x="91.382812"/>
      <use xlink:href="#DejaVuSans-63" x="152.662109"/>
      <use xlink:href="#DejaVuSans-74" x="207.642578"/>
      <use xlink:href="#DejaVuSans-69" x="246.851562"/>
      <use xlink:href="#DejaVuSans-6f" x="274.634766"/>
      <use xlink:href="#DejaVuSans-6e" x="335.816406"/>
      <use xlink:href="#DejaVuSans-20" x="399.195312"/>
      <use xlink:href="#DejaVuSans-6f" x="430.982422"/>
      <use xlink:href="#DejaVuSans-66" x="492.164062"/>
      <use xlink:href="#DejaVuSans-20" x="527.369141"/>
      <use xlink:href="#DejaVuSans-63" x="559.15625"/>
      <use xlink:href="#DejaVuSans-65" x="614.136719"/>
      <use xlink:href="#DejaVuSans-6c" x="675.660156"/>
      <use xlink:href="#DejaVuSans-6c" x="703.443359"/>
      <use xlink:href="#DejaVuSans-73" x="731.226562"/>
     </g>
    </g>
   </g>
   <g id="line2d_13">
    <path d="M 57.555243 243.790591 
L 60.389101 240.186603 
L 63.480584 235.887632 
L 67.60256 229.738082 
L 75.331266 218.108044 
L 78.165125 214.270764 
L 80.483737 211.465091 
L 82.544725 209.282443 
L 84.605713 207.431611 
L 86.409078 206.104498 
L 88.212442 205.059592 
L 90.015807 204.297367 
L 91.819172 203.810223 
L 93.622537 203.58299 
L 95.425901 203.593824 
L 97.229266 203.815427 
L 99.290254 204.286485 
L 101.866489 205.127817 
L 105.215595 206.486913 
L 114.232419 210.288137 
L 117.839148 211.501109 
L 121.445878 212.480319 
L 125.825478 213.428613 
L 138.44903 216.003302 
L 144.374372 217.559066 
L 164.211383 223.175817 
L 167.818113 224.502597 
L 170.909595 225.863145 
L 174.001077 227.455115 
L 177.350183 229.432828 
L 181.214536 231.98317 
L 187.139877 236.205306 
L 195.38383 242.042491 
L 200.793924 245.585555 
L 205.946395 248.70038 
L 210.841242 251.412949 
L 215.220842 253.601326 
L 219.085195 255.302348 
L 222.691924 256.66204 
L 226.298654 257.78237 
L 229.905383 258.661716 
L 233.512112 259.316679 
L 237.634089 259.830815 
L 242.271312 260.180527 
L 248.454277 260.405483 
L 258.243971 260.506585 
L 285.809689 260.521869 
L 285.809689 260.521869 
" clip-path="url(#p44a1daab58)" style="fill: none; stroke: #1f77b4; stroke-width: 1.5; stroke-linecap: square"/>
   </g>
   <g id="line2d_14">
    <path d="M 57.555243 260.521868 
L 93.364913 260.414912 
L 100.063125 260.164802 
L 104.700348 259.777935 
L 108.564701 259.230421 
L 111.913807 258.525486 
L 115.005289 257.635975 
L 117.839148 256.584476 
L 120.673007 255.280978 
L 123.249242 253.861839 
L 126.083101 252.033706 
L 128.91696 249.923739 
L 131.750819 247.537099 
L 134.842301 244.631067 
L 138.191407 241.150033 
L 141.798136 237.052132 
L 145.920113 231.997347 
L 151.330207 224.965099 
L 159.316536 214.592933 
L 162.923266 210.283063 
L 166.014748 206.917019 
L 168.848607 204.151979 
L 171.424842 201.933946 
L 174.001077 200.018643 
L 176.319689 198.569657 
L 178.638301 197.396601 
L 180.699289 196.598809 
L 182.760277 196.043837 
L 184.821266 195.742382 
L 186.62463 195.692811 
L 188.427995 195.845642 
L 190.23136 196.199396 
L 192.292348 196.841962 
L 194.353336 197.722849 
L 196.671948 198.968629 
L 199.248183 200.617553 
L 202.339665 202.869932 
L 206.976889 206.561414 
L 217.024207 214.622253 
L 221.919054 218.248554 
L 225.783407 220.859851 
L 229.132512 222.861612 
L 231.966371 224.313059 
L 234.80023 225.514248 
L 237.634089 226.467259 
L 240.725571 227.270336 
L 251.030512 229.705173 
L 253.606748 230.696919 
L 255.925359 231.833265 
L 258.243971 233.218154 
L 260.820206 235.041592 
L 263.654065 237.350317 
L 267.260795 240.617621 
L 276.792865 249.436228 
L 279.884348 251.896026 
L 282.718206 253.855455 
L 285.294442 255.37093 
L 285.809689 255.643346 
L 285.809689 255.643346 
" clip-path="url(#p44a1daab58)" style="fill: none; stroke: #ff7f0e; stroke-width: 1.5; stroke-linecap: square"/>
   </g>
   <g id="line2d_15">
    <path d="M 57.555243 260.521875 
L 93.107289 260.411391 
L 96.971642 260.15765 
L 99.547878 259.772185 
L 101.608866 259.240718 
L 103.412231 258.534831 
L 104.957972 257.690361 
L 106.503713 256.567287 
L 107.791831 255.376599 
L 109.079948 253.918173 
L 110.368066 252.159999 
L 111.656184 250.074009 
L 113.201925 247.107949 
L 114.747666 243.61784 
L 116.293407 239.605645 
L 118.096772 234.305032 
L 120.15776 227.551342 
L 123.249242 216.521466 
L 127.886466 199.958036 
L 130.205078 192.54949 
L 132.266066 186.734957 
L 134.06943 182.273686 
L 135.872795 178.349726 
L 137.933783 174.40316 
L 140.252395 170.454296 
L 143.086254 166.094648 
L 145.404866 162.891388 
L 147.20823 160.744865 
L 148.753972 159.269857 
L 150.042089 158.384276 
L 151.072583 157.947665 
L 152.103077 157.784853 
L 152.875948 157.856922 
L 153.648819 158.103688 
L 154.679313 158.71173 
L 155.709807 159.640067 
L 156.740301 160.880862 
L 158.028419 162.843437 
L 159.316536 165.211809 
L 161.119901 169.069727 
L 163.696136 175.247335 
L 168.075736 185.817954 
L 170.394348 190.791544 
L 172.455336 194.708206 
L 174.516324 198.180434 
L 176.834936 201.66374 
L 179.926419 205.860374 
L 186.62463 214.407329 
L 191.519477 220.873196 
L 196.414324 227.736758 
L 201.824418 235.267334 
L 204.658277 238.803338 
L 206.976889 241.355586 
L 209.295501 243.583275 
L 211.871736 245.726827 
L 214.963218 247.984926 
L 220.88856 251.965841 
L 225.783407 255.071019 
L 228.874889 256.768421 
L 231.451124 257.929714 
L 234.027359 258.830923 
L 236.603595 259.481999 
L 239.437454 259.953764 
L 242.786559 260.2692 
L 247.423783 260.452687 
L 256.182983 260.518438 
L 285.809689 260.521875 
L 285.809689 260.521875 
" clip-path="url(#p44a1daab58)" style="fill: none; stroke: #2ca02c; stroke-width: 1.5; stroke-linecap: square"/>
   </g>
   <g id="patch_63">
    <path d="M 57.615 260.521875 
L 57.615 27.437812 
" style="fill: none; stroke: #000000; stroke-width: 0.8; stroke-linejoin: miter; stroke-linecap: square"/>
   </g>
   <g id="patch_64">
    <path d="M 285.78125 260.521875 
L 285.78125 27.437812 
" style="fill: none; stroke: #000000; stroke-width: 0.8; stroke-linejoin: miter; stroke-linecap: square"/>
   </g>
   <g id="patch_65">
    <path d="M 57.615 260.521875 
L 285.78125 260.521875 
" style="fill: none; stroke: #000000; stroke-width: 0.8; stroke-linejoin: miter; stroke-linecap: square"/>
   </g>
   <g id="patch_66">
    <path d="M 57.615 27.437812 
L 285.78125 27.437812 
" style="fill: none; stroke: #000000; stroke-width: 0.8; stroke-linejoin: miter; stroke-linecap: square"/>
   </g>
   <g id="text_14">
    <!-- SRV -->
    <g transform="translate(157.986875 21.437813) scale(0.14 -0.14)">
     <defs>
      <path id="DejaVuSans-53" d="M 3425 4513 
L 3425 3897 
Q 3066 4069 2747 4153 
Q 2428 4238 2131 4238 
Q 1616 4238 1336 4038 
Q 1056 3838 1056 3469 
Q 1056 3159 1242 3001 
Q 1428 2844 1947 2747 
L 2328 2669 
Q 3034 2534 3370 2195 
Q 3706 1856 3706 1288 
Q 3706 609 3251 259 
Q 2797 -91 1919 -91 
Q 1588 -91 1214 -16 
Q 841 59 441 206 
L 441 856 
Q 825 641 1194 531 
Q 1563 422 1919 422 
Q 2459 422 2753 634 
Q 3047 847 3047 1241 
Q 3047 1584 2836 1778 
Q 2625 1972 2144 2069 
L 1759 2144 
Q 1053 2284 737 2584 
Q 422 2884 422 3419 
Q 422 4038 858 4394 
Q 1294 4750 2059 4750 
Q 2388 4750 2728 4690 
Q 3069 4631 3425 4513 
z
" transform="scale(0.015625)"/>
      <path id="DejaVuSans-52" d="M 2841 2188 
Q 3044 2119 3236 1894 
Q 3428 1669 3622 1275 
L 4263 0 
L 3584 0 
L 2988 1197 
Q 2756 1666 2539 1819 
Q 2322 1972 1947 1972 
L 1259 1972 
L 1259 0 
L 628 0 
L 628 4666 
L 2053 4666 
Q 2853 4666 3247 4331 
Q 3641 3997 3641 3322 
Q 3641 2881 3436 2590 
Q 3231 2300 2841 2188 
z
M 1259 4147 
L 1259 2491 
L 2053 2491 
Q 2509 2491 2742 2702 
Q 2975 2913 2975 3322 
Q 2975 3731 2742 3939 
Q 2509 4147 2053 4147 
L 1259 4147 
z
" transform="scale(0.015625)"/>
      <path id="DejaVuSans-56" d="M 1831 0 
L 50 4666 
L 709 4666 
L 2188 738 
L 3669 4666 
L 4325 4666 
L 2547 0 
L 1831 0 
z
" transform="scale(0.015625)"/>
     </defs>
     <use xlink:href="#DejaVuSans-53"/>
     <use xlink:href="#DejaVuSans-52" x="63.476562"/>
     <use xlink:href="#DejaVuSans-56" x="127.458984"/>
    </g>
   </g>
   <g id="legend_1">
    <g id="patch_67">
     <path d="M 197.391875 89.879062 
L 277.38125 89.879062 
Q 279.78125 89.879062 279.78125 87.479062 
L 279.78125 35.837812 
Q 279.78125 33.437812 277.38125 33.437812 
L 197.391875 33.437812 
Q 194.991875 33.437812 194.991875 35.837812 
L 194.991875 87.479062 
Q 194.991875 89.879062 197.391875 89.879062 
z
" style="fill: #ffffff; opacity: 0.8; stroke: #cccccc; stroke-linejoin: miter"/>
    </g>
    <g id="patch_68">
     <path d="M 199.791875 47.355937 
L 223.791875 47.355937 
L 223.791875 38.955937 
L 199.791875 38.955937 
z
" style="fill: #1f77b4; opacity: 0.4"/>
    </g>
    <g id="text_15">
     <!-- control -->
     <g transform="translate(233.391875 47.355937) scale(0.12 -0.12)">
      <use xlink:href="#DejaVuSans-63"/>
      <use xlink:href="#DejaVuSans-6f" x="54.980469"/>
      <use xlink:href="#DejaVuSans-6e" x="116.162109"/>
      <use xlink:href="#DejaVuSans-74" x="179.541016"/>
      <use xlink:href="#DejaVuSans-72" x="218.75"/>
      <use xlink:href="#DejaVuSans-6f" x="257.613281"/>
      <use xlink:href="#DejaVuSans-6c" x="318.794922"/>
     </g>
    </g>
    <g id="patch_69">
     <path d="M 199.791875 64.969687 
L 223.791875 64.969687 
L 223.791875 56.569687 
L 199.791875 56.569687 
z
" style="fill: #ff7f0e; opacity: 0.4"/>
    </g>
    <g id="text_16">
     <!-- cytd -->
     <g transform="translate(233.391875 64.969687) scale(0.12 -0.12)">
      <defs>
       <path id="DejaVuSans-79" d="M 2059 -325 
Q 1816 -950 1584 -1140 
Q 1353 -1331 966 -1331 
L 506 -1331 
L 506 -850 
L 844 -850 
Q 1081 -850 1212 -737 
Q 1344 -625 1503 -206 
L 1606 56 
L 191 3500 
L 800 3500 
L 1894 763 
L 2988 3500 
L 3597 3500 
L 2059 -325 
z
" transform="scale(0.015625)"/>
       <path id="DejaVuSans-64" d="M 2906 2969 
L 2906 4863 
L 3481 4863 
L 3481 0 
L 2906 0 
L 2906 525 
Q 2725 213 2448 61 
Q 2172 -91 1784 -91 
Q 1150 -91 751 415 
Q 353 922 353 1747 
Q 353 2572 751 3078 
Q 1150 3584 1784 3584 
Q 2172 3584 2448 3432 
Q 2725 3281 2906 2969 
z
M 947 1747 
Q 947 1113 1208 752 
Q 1469 391 1925 391 
Q 2381 391 2643 752 
Q 2906 1113 2906 1747 
Q 2906 2381 2643 2742 
Q 2381 3103 1925 3103 
Q 1469 3103 1208 2742 
Q 947 2381 947 1747 
z
" transform="scale(0.015625)"/>
      </defs>
      <use xlink:href="#DejaVuSans-63"/>
      <use xlink:href="#DejaVuSans-79" x="54.980469"/>
      <use xlink:href="#DejaVuSans-74" x="114.160156"/>
      <use xlink:href="#DejaVuSans-64" x="153.369141"/>
     </g>
    </g>
    <g id="patch_70">
     <path d="M 199.791875 82.583437 
L 223.791875 82.583437 
L 223.791875 74.183437 
L 199.791875 74.183437 
z
" style="fill: #2ca02c; opacity: 0.4"/>
    </g>
    <g id="text_17">
     <!-- jasp -->
     <g transform="translate(233.391875 82.583437) scale(0.12 -0.12)">
      <defs>
       <path id="DejaVuSans-6a" d="M 603 3500 
L 1178 3500 
L 1178 -63 
Q 1178 -731 923 -1031 
Q 669 -1331 103 -1331 
L -116 -1331 
L -116 -844 
L 38 -844 
Q 366 -844 484 -692 
Q 603 -541 603 -63 
L 603 3500 
z
M 603 4863 
L 1178 4863 
L 1178 4134 
L 603 4134 
L 603 4863 
z
" transform="scale(0.015625)"/>
       <path id="DejaVuSans-70" d="M 1159 525 
L 1159 -1331 
L 581 -1331 
L 581 3500 
L 1159 3500 
L 1159 2969 
Q 1341 3281 1617 3432 
Q 1894 3584 2278 3584 
Q 2916 3584 3314 3078 
Q 3713 2572 3713 1747 
Q 3713 922 3314 415 
Q 2916 -91 2278 -91 
Q 1894 -91 1617 61 
Q 1341 213 1159 525 
z
M 3116 1747 
Q 3116 2381 2855 2742 
Q 2594 3103 2138 3103 
Q 1681 3103 1420 2742 
Q 1159 2381 1159 1747 
Q 1159 1113 1420 752 
Q 1681 391 2138 391 
Q 2594 391 2855 752 
Q 3116 1113 3116 1747 
z
" transform="scale(0.015625)"/>
      </defs>
      <use xlink:href="#DejaVuSans-6a"/>
      <use xlink:href="#DejaVuSans-61" x="27.783203"/>
      <use xlink:href="#DejaVuSans-73" x="89.0625"/>
      <use xlink:href="#DejaVuSans-70" x="141.162109"/>
     </g>
    </g>
   </g>
  </g>
  <g id="axes_2">
   <g id="patch_71">
    <path d="M 337.03375 260.521875 
L 565.2 260.521875 
L 565.2 27.437812 
L 337.03375 27.437812 
z
" style="fill: #ffffff"/>
   </g>
   <g id="patch_72">
    <path d="M 380.422298 260.521875 
L 388.330294 260.521875 
L 388.330294 208.290152 
L 380.422298 208.290152 
z
" clip-path="url(#pb5d0e6ee87)" style="fill: #1f77b4; opacity: 0.4"/>
   </g>
   <g id="patch_73">
    <path d="M 388.330294 260.521875 
L 396.23829 260.521875 
L 396.23829 221.348083 
L 388.330294 221.348083 
z
" clip-path="url(#pb5d0e6ee87)" style="fill: #1f77b4; opacity: 0.4"/>
   </g>
   <g id="patch_74">
    <path d="M 396.23829 260.521875 
L 404.146286 260.521875 
L 404.146286 260.521875 
L 396.23829 260.521875 
z
" clip-path="url(#pb5d0e6ee87)" style="fill: #1f77b4; opacity: 0.4"/>
   </g>
   <g id="patch_75">
    <path d="M 404.146286 260.521875 
L 412.054282 260.521875 
L 412.054282 182.174291 
L 404.146286 182.174291 
z
" clip-path="url(#pb5d0e6ee87)" style="fill: #1f77b4; opacity: 0.4"/>
   </g>
   <g id="patch_76">
    <path d="M 412.054282 260.521875 
L 419.962278 260.521875 
L 419.962278 208.290152 
L 412.054282 208.290152 
z
" clip-path="url(#pb5d0e6ee87)" style="fill: #1f77b4; opacity: 0.4"/>
   </g>
   <g id="patch_77">
    <path d="M 419.962278 260.521875 
L 427.870274 260.521875 
L 427.870274 143.000499 
L 419.962278 143.000499 
z
" clip-path="url(#pb5d0e6ee87)" style="fill: #1f77b4; opacity: 0.4"/>
   </g>
   <g id="patch_78">
    <path d="M 427.870274 260.521875 
L 435.77827 260.521875 
L 435.77827 195.232222 
L 427.870274 195.232222 
z
" clip-path="url(#pb5d0e6ee87)" style="fill: #1f77b4; opacity: 0.4"/>
   </g>
   <g id="patch_79">
    <path d="M 435.77827 260.521875 
L 443.686266 260.521875 
L 443.686266 116.884638 
L 435.77827 116.884638 
z
" clip-path="url(#pb5d0e6ee87)" style="fill: #1f77b4; opacity: 0.4"/>
   </g>
   <g id="patch_80">
    <path d="M 443.686266 260.521875 
L 451.594262 260.521875 
L 451.594262 156.05843 
L 443.686266 156.05843 
z
" clip-path="url(#pb5d0e6ee87)" style="fill: #1f77b4; opacity: 0.4"/>
   </g>
   <g id="patch_81">
    <path d="M 451.594262 260.521875 
L 459.502258 260.521875 
L 459.502258 38.537054 
L 451.594262 38.537054 
z
" clip-path="url(#pb5d0e6ee87)" style="fill: #1f77b4; opacity: 0.4"/>
   </g>
   <g id="patch_82">
    <path d="M 459.502258 260.521875 
L 467.410254 260.521875 
L 467.410254 129.942568 
L 459.502258 129.942568 
z
" clip-path="url(#pb5d0e6ee87)" style="fill: #1f77b4; opacity: 0.4"/>
   </g>
   <g id="patch_83">
    <path d="M 467.410254 260.521875 
L 475.31825 260.521875 
L 475.31825 90.768776 
L 467.410254 90.768776 
z
" clip-path="url(#pb5d0e6ee87)" style="fill: #1f77b4; opacity: 0.4"/>
   </g>
   <g id="patch_84">
    <path d="M 475.31825 260.521875 
L 483.226246 260.521875 
L 483.226246 182.174291 
L 475.31825 182.174291 
z
" clip-path="url(#pb5d0e6ee87)" style="fill: #1f77b4; opacity: 0.4"/>
   </g>
   <g id="patch_85">
    <path d="M 483.226246 260.521875 
L 491.134241 260.521875 
L 491.134241 169.11636 
L 483.226246 169.11636 
z
" clip-path="url(#pb5d0e6ee87)" style="fill: #1f77b4; opacity: 0.4"/>
   </g>
   <g id="patch_86">
    <path d="M 491.134241 260.521875 
L 499.042237 260.521875 
L 499.042237 234.406014 
L 491.134241 234.406014 
z
" clip-path="url(#pb5d0e6ee87)" style="fill: #1f77b4; opacity: 0.4"/>
   </g>
   <g id="patch_87">
    <path d="M 499.042237 260.521875 
L 506.950233 260.521875 
L 506.950233 195.232222 
L 499.042237 195.232222 
z
" clip-path="url(#pb5d0e6ee87)" style="fill: #1f77b4; opacity: 0.4"/>
   </g>
   <g id="patch_88">
    <path d="M 506.950233 260.521875 
L 514.858229 260.521875 
L 514.858229 247.463944 
L 506.950233 247.463944 
z
" clip-path="url(#pb5d0e6ee87)" style="fill: #1f77b4; opacity: 0.4"/>
   </g>
   <g id="patch_89">
    <path d="M 514.858229 260.521875 
L 522.766225 260.521875 
L 522.766225 247.463944 
L 514.858229 247.463944 
z
" clip-path="url(#pb5d0e6ee87)" style="fill: #1f77b4; opacity: 0.4"/>
   </g>
   <g id="patch_90">
    <path d="M 522.766225 260.521875 
L 530.674221 260.521875 
L 530.674221 247.463944 
L 522.766225 247.463944 
z
" clip-path="url(#pb5d0e6ee87)" style="fill: #1f77b4; opacity: 0.4"/>
   </g>
   <g id="patch_91">
    <path d="M 530.674221 260.521875 
L 538.582217 260.521875 
L 538.582217 247.463944 
L 530.674221 247.463944 
z
" clip-path="url(#pb5d0e6ee87)" style="fill: #1f77b4; opacity: 0.4"/>
   </g>
   <g id="patch_92">
    <path d="M 337.841949 260.521875 
L 347.314693 260.521875 
L 347.314693 213.920243 
L 337.841949 213.920243 
z
" clip-path="url(#pb5d0e6ee87)" style="fill: #ff7f0e; opacity: 0.4"/>
   </g>
   <g id="patch_93">
    <path d="M 347.314693 260.521875 
L 356.787437 260.521875 
L 356.787437 167.31861 
L 347.314693 167.31861 
z
" clip-path="url(#pb5d0e6ee87)" style="fill: #ff7f0e; opacity: 0.4"/>
   </g>
   <g id="patch_94">
    <path d="M 356.787437 260.521875 
L 366.26018 260.521875 
L 366.26018 198.386365 
L 356.787437 198.386365 
z
" clip-path="url(#pb5d0e6ee87)" style="fill: #ff7f0e; opacity: 0.4"/>
   </g>
   <g id="patch_95">
    <path d="M 366.26018 260.521875 
L 375.732924 260.521875 
L 375.732924 89.649223 
L 366.26018 89.649223 
z
" clip-path="url(#pb5d0e6ee87)" style="fill: #ff7f0e; opacity: 0.4"/>
   </g>
   <g id="patch_96">
    <path d="M 375.732924 260.521875 
L 385.205667 260.521875 
L 385.205667 105.1831 
L 375.732924 105.1831 
z
" clip-path="url(#pb5d0e6ee87)" style="fill: #ff7f0e; opacity: 0.4"/>
   </g>
   <g id="patch_97">
    <path d="M 385.205667 260.521875 
L 394.678411 260.521875 
L 394.678411 213.920243 
L 385.205667 213.920243 
z
" clip-path="url(#pb5d0e6ee87)" style="fill: #ff7f0e; opacity: 0.4"/>
   </g>
   <g id="patch_98">
    <path d="M 394.678411 260.521875 
L 404.151155 260.521875 
L 404.151155 151.784733 
L 394.678411 151.784733 
z
" clip-path="url(#pb5d0e6ee87)" style="fill: #ff7f0e; opacity: 0.4"/>
   </g>
   <g id="patch_99">
    <path d="M 404.151155 260.521875 
L 413.623898 260.521875 
L 413.623898 229.45412 
L 404.151155 229.45412 
z
" clip-path="url(#pb5d0e6ee87)" style="fill: #ff7f0e; opacity: 0.4"/>
   </g>
   <g id="patch_100">
    <path d="M 413.623898 260.521875 
L 423.096642 260.521875 
L 423.096642 229.45412 
L 413.623898 229.45412 
z
" clip-path="url(#pb5d0e6ee87)" style="fill: #ff7f0e; opacity: 0.4"/>
   </g>
   <g id="patch_101">
    <path d="M 423.096642 260.521875 
L 432.569386 260.521875 
L 432.569386 151.784733 
L 423.096642 151.784733 
z
" clip-path="url(#pb5d0e6ee87)" style="fill: #ff7f0e; opacity: 0.4"/>
   </g>
   <g id="patch_102">
    <path d="M 432.569386 260.521875 
L 442.042129 260.521875 
L 442.042129 229.45412 
L 432.569386 229.45412 
z
" clip-path="url(#pb5d0e6ee87)" style="fill: #ff7f0e; opacity: 0.4"/>
   </g>
   <g id="patch_103">
    <path d="M 442.042129 260.521875 
L 451.514873 260.521875 
L 451.514873 229.45412 
L 442.042129 229.45412 
z
" clip-path="url(#pb5d0e6ee87)" style="fill: #ff7f0e; opacity: 0.4"/>
   </g>
   <g id="patch_104">
    <path d="M 451.514873 260.521875 
L 460.987617 260.521875 
L 460.987617 213.920243 
L 451.514873 213.920243 
z
" clip-path="url(#pb5d0e6ee87)" style="fill: #ff7f0e; opacity: 0.4"/>
   </g>
   <g id="patch_105">
    <path d="M 460.987617 260.521875 
L 470.46036 260.521875 
L 470.46036 136.250855 
L 460.987617 136.250855 
z
" clip-path="url(#pb5d0e6ee87)" style="fill: #ff7f0e; opacity: 0.4"/>
   </g>
   <g id="patch_106">
    <path d="M 470.46036 260.521875 
L 479.933104 260.521875 
L 479.933104 213.920243 
L 470.46036 213.920243 
z
" clip-path="url(#pb5d0e6ee87)" style="fill: #ff7f0e; opacity: 0.4"/>
   </g>
   <g id="patch_107">
    <path d="M 479.933104 260.521875 
L 489.405848 260.521875 
L 489.405848 229.45412 
L 479.933104 229.45412 
z
" clip-path="url(#pb5d0e6ee87)" style="fill: #ff7f0e; opacity: 0.4"/>
   </g>
   <g id="patch_108">
    <path d="M 489.405848 260.521875 
L 498.878591 260.521875 
L 498.878591 244.987998 
L 489.405848 244.987998 
z
" clip-path="url(#pb5d0e6ee87)" style="fill: #ff7f0e; opacity: 0.4"/>
   </g>
   <g id="patch_109">
    <path d="M 498.878591 260.521875 
L 508.351335 260.521875 
L 508.351335 260.521875 
L 498.878591 260.521875 
z
" clip-path="url(#pb5d0e6ee87)" style="fill: #ff7f0e; opacity: 0.4"/>
   </g>
   <g id="patch_110">
    <path d="M 508.351335 260.521875 
L 517.824079 260.521875 
L 517.824079 260.521875 
L 508.351335 260.521875 
z
" clip-path="url(#pb5d0e6ee87)" style="fill: #ff7f0e; opacity: 0.4"/>
   </g>
   <g id="patch_111">
    <path d="M 517.824079 260.521875 
L 527.296822 260.521875 
L 527.296822 198.386365 
L 517.824079 198.386365 
z
" clip-path="url(#pb5d0e6ee87)" style="fill: #ff7f0e; opacity: 0.4"/>
   </g>
   <g id="patch_112">
    <path d="M 361.60045 260.521875 
L 371.780428 260.521875 
L 371.780428 221.97603 
L 361.60045 221.97603 
z
" clip-path="url(#pb5d0e6ee87)" style="fill: #2ca02c; opacity: 0.4"/>
   </g>
   <g id="patch_113">
    <path d="M 371.780428 260.521875 
L 381.960405 260.521875 
L 381.960405 260.521875 
L 371.780428 260.521875 
z
" clip-path="url(#pb5d0e6ee87)" style="fill: #2ca02c; opacity: 0.4"/>
   </g>
   <g id="patch_114">
    <path d="M 381.960405 260.521875 
L 392.140383 260.521875 
L 392.140383 260.521875 
L 381.960405 260.521875 
z
" clip-path="url(#pb5d0e6ee87)" style="fill: #2ca02c; opacity: 0.4"/>
   </g>
   <g id="patch_115">
    <path d="M 392.140383 260.521875 
L 402.32036 260.521875 
L 402.32036 183.430184 
L 392.140383 183.430184 
z
" clip-path="url(#pb5d0e6ee87)" style="fill: #2ca02c; opacity: 0.4"/>
   </g>
   <g id="patch_116">
    <path d="M 402.32036 260.521875 
L 412.500338 260.521875 
L 412.500338 106.338493 
L 402.32036 106.338493 
z
" clip-path="url(#pb5d0e6ee87)" style="fill: #2ca02c; opacity: 0.4"/>
   </g>
   <g id="patch_117">
    <path d="M 412.500338 260.521875 
L 422.680315 260.521875 
L 422.680315 183.430184 
L 412.500338 183.430184 
z
" clip-path="url(#pb5d0e6ee87)" style="fill: #2ca02c; opacity: 0.4"/>
   </g>
   <g id="patch_118">
    <path d="M 422.680315 260.521875 
L 432.860293 260.521875 
L 432.860293 183.430184 
L 422.680315 183.430184 
z
" clip-path="url(#pb5d0e6ee87)" style="fill: #2ca02c; opacity: 0.4"/>
   </g>
   <g id="patch_119">
    <path d="M 432.860293 260.521875 
L 443.04027 260.521875 
L 443.04027 164.157262 
L 432.860293 164.157262 
z
" clip-path="url(#pb5d0e6ee87)" style="fill: #2ca02c; opacity: 0.4"/>
   </g>
   <g id="patch_120">
    <path d="M 443.04027 260.521875 
L 453.220248 260.521875 
L 453.220248 144.884339 
L 443.04027 144.884339 
z
" clip-path="url(#pb5d0e6ee87)" style="fill: #2ca02c; opacity: 0.4"/>
   </g>
   <g id="patch_121">
    <path d="M 453.220248 260.521875 
L 463.400225 260.521875 
L 463.400225 164.157262 
L 453.220248 164.157262 
z
" clip-path="url(#pb5d0e6ee87)" style="fill: #2ca02c; opacity: 0.4"/>
   </g>
   <g id="patch_122">
    <path d="M 463.400225 260.521875 
L 473.580203 260.521875 
L 473.580203 144.884339 
L 463.400225 144.884339 
z
" clip-path="url(#pb5d0e6ee87)" style="fill: #2ca02c; opacity: 0.4"/>
   </g>
   <g id="patch_123">
    <path d="M 473.580203 260.521875 
L 483.76018 260.521875 
L 483.76018 202.703107 
L 473.580203 202.703107 
z
" clip-path="url(#pb5d0e6ee87)" style="fill: #2ca02c; opacity: 0.4"/>
   </g>
   <g id="patch_124">
    <path d="M 483.76018 260.521875 
L 493.940158 260.521875 
L 493.940158 202.703107 
L 483.76018 202.703107 
z
" clip-path="url(#pb5d0e6ee87)" style="fill: #2ca02c; opacity: 0.4"/>
   </g>
   <g id="patch_125">
    <path d="M 493.940158 260.521875 
L 504.120135 260.521875 
L 504.120135 164.157262 
L 493.940158 164.157262 
z
" clip-path="url(#pb5d0e6ee87)" style="fill: #2ca02c; opacity: 0.4"/>
   </g>
   <g id="patch_126">
    <path d="M 504.120135 260.521875 
L 514.300113 260.521875 
L 514.300113 241.248952 
L 504.120135 241.248952 
z
" clip-path="url(#pb5d0e6ee87)" style="fill: #2ca02c; opacity: 0.4"/>
   </g>
   <g id="patch_127">
    <path d="M 514.300113 260.521875 
L 524.48009 260.521875 
L 524.48009 241.248952 
L 514.300113 241.248952 
z
" clip-path="url(#pb5d0e6ee87)" style="fill: #2ca02c; opacity: 0.4"/>
   </g>
   <g id="patch_128">
    <path d="M 524.48009 260.521875 
L 534.660068 260.521875 
L 534.660068 241.248952 
L 524.48009 241.248952 
z
" clip-path="url(#pb5d0e6ee87)" style="fill: #2ca02c; opacity: 0.4"/>
   </g>
   <g id="patch_129">
    <path d="M 534.660068 260.521875 
L 544.840045 260.521875 
L 544.840045 260.521875 
L 534.660068 260.521875 
z
" clip-path="url(#pb5d0e6ee87)" style="fill: #2ca02c; opacity: 0.4"/>
   </g>
   <g id="patch_130">
    <path d="M 544.840045 260.521875 
L 555.020023 260.521875 
L 555.020023 241.248952 
L 544.840045 241.248952 
z
" clip-path="url(#pb5d0e6ee87)" style="fill: #2ca02c; opacity: 0.4"/>
   </g>
   <g id="patch_131">
    <path d="M 555.020023 260.521875 
L 565.2 260.521875 
L 565.2 241.248952 
L 555.020023 241.248952 
z
" clip-path="url(#pb5d0e6ee87)" style="fill: #2ca02c; opacity: 0.4"/>
   </g>
   <g id="matplotlib.axis_3">
    <g id="xtick_5">
     <g id="line2d_16">
      <g>
       <use xlink:href="#md8dc9a1e93" x="348.770197" y="260.521875" style="stroke: #000000; stroke-width: 0.8"/>
      </g>
     </g>
     <g id="text_18">
      <!-- 3 -->
      <g transform="translate(345.588947 275.120313) scale(0.1 -0.1)">
       <defs>
        <path id="DejaVuSans-33" d="M 2597 2516 
Q 3050 2419 3304 2112 
Q 3559 1806 3559 1356 
Q 3559 666 3084 287 
Q 2609 -91 1734 -91 
Q 1441 -91 1130 -33 
Q 819 25 488 141 
L 488 750 
Q 750 597 1062 519 
Q 1375 441 1716 441 
Q 2309 441 2620 675 
Q 2931 909 2931 1356 
Q 2931 1769 2642 2001 
Q 2353 2234 1838 2234 
L 1294 2234 
L 1294 2753 
L 1863 2753 
Q 2328 2753 2575 2939 
Q 2822 3125 2822 3475 
Q 2822 3834 2567 4026 
Q 2313 4219 1838 4219 
Q 1578 4219 1281 4162 
Q 984 4106 628 3988 
L 628 4550 
Q 988 4650 1302 4700 
Q 1616 4750 1894 4750 
Q 2613 4750 3031 4423 
Q 3450 4097 3450 3541 
Q 3450 3153 3228 2886 
Q 3006 2619 2597 2516 
z
" transform="scale(0.015625)"/>
       </defs>
       <use xlink:href="#DejaVuSans-33"/>
      </g>
     </g>
    </g>
    <g id="xtick_6">
     <g id="line2d_17">
      <g>
       <use xlink:href="#md8dc9a1e93" x="390.320286" y="260.521875" style="stroke: #000000; stroke-width: 0.8"/>
      </g>
     </g>
     <g id="text_19">
      <!-- 4 -->
      <g transform="translate(387.139036 275.120313) scale(0.1 -0.1)">
       <defs>
        <path id="DejaVuSans-34" d="M 2419 4116 
L 825 1625 
L 2419 1625 
L 2419 4116 
z
M 2253 4666 
L 3047 4666 
L 3047 1625 
L 3713 1625 
L 3713 1100 
L 3047 1100 
L 3047 0 
L 2419 0 
L 2419 1100 
L 313 1100 
L 313 1709 
L 2253 4666 
z
" transform="scale(0.015625)"/>
       </defs>
       <use xlink:href="#DejaVuSans-34"/>
      </g>
     </g>
    </g>
    <g id="xtick_7">
     <g id="line2d_18">
      <g>
       <use xlink:href="#md8dc9a1e93" x="431.870375" y="260.521875" style="stroke: #000000; stroke-width: 0.8"/>
      </g>
     </g>
     <g id="text_20">
      <!-- 5 -->
      <g transform="translate(428.689125 275.120313) scale(0.1 -0.1)">
       <use xlink:href="#DejaVuSans-35"/>
      </g>
     </g>
    </g>
    <g id="xtick_8">
     <g id="line2d_19">
      <g>
       <use xlink:href="#md8dc9a1e93" x="473.420463" y="260.521875" style="stroke: #000000; stroke-width: 0.8"/>
      </g>
     </g>
     <g id="text_21">
      <!-- 6 -->
      <g transform="translate(470.239213 275.120313) scale(0.1 -0.1)">
       <use xlink:href="#DejaVuSans-36"/>
      </g>
     </g>
    </g>
    <g id="xtick_9">
     <g id="line2d_20">
      <g>
       <use xlink:href="#md8dc9a1e93" x="514.970552" y="260.521875" style="stroke: #000000; stroke-width: 0.8"/>
      </g>
     </g>
     <g id="text_22">
      <!-- 7 -->
      <g transform="translate(511.789302 275.120313) scale(0.1 -0.1)">
       <use xlink:href="#DejaVuSans-37"/>
      </g>
     </g>
    </g>
    <g id="xtick_10">
     <g id="line2d_21">
      <g>
       <use xlink:href="#md8dc9a1e93" x="556.52064" y="260.521875" style="stroke: #000000; stroke-width: 0.8"/>
      </g>
     </g>
     <g id="text_23">
      <!-- 8 -->
      <g transform="translate(553.33939 275.120313) scale(0.1 -0.1)">
       <use xlink:href="#DejaVuSans-38"/>
      </g>
     </g>
    </g>
   </g>
   <g id="matplotlib.axis_4">
    <g id="ytick_9">
     <g id="line2d_22">
      <g>
       <use xlink:href="#m22e6342a0f" x="337.03375" y="260.521875" style="stroke: #000000; stroke-width: 0.8"/>
      </g>
     </g>
     <g id="text_24">
      <!-- 0.0 -->
      <g transform="translate(314.130625 264.321094) scale(0.1 -0.1)">
       <use xlink:href="#DejaVuSans-30"/>
       <use xlink:href="#DejaVuSans-2e" x="63.623047"/>
       <use xlink:href="#DejaVuSans-30" x="95.410156"/>
      </g>
     </g>
    </g>
    <g id="ytick_10">
     <g id="line2d_23">
      <g>
       <use xlink:href="#m22e6342a0f" x="337.03375" y="232.190106" style="stroke: #000000; stroke-width: 0.8"/>
      </g>
     </g>
     <g id="text_25">
      <!-- 0.1 -->
      <g transform="translate(314.130625 235.989325) scale(0.1 -0.1)">
       <use xlink:href="#DejaVuSans-30"/>
       <use xlink:href="#DejaVuSans-2e" x="63.623047"/>
       <use xlink:href="#DejaVuSans-31" x="95.410156"/>
      </g>
     </g>
    </g>
    <g id="ytick_11">
     <g id="line2d_24">
      <g>
       <use xlink:href="#m22e6342a0f" x="337.03375" y="203.858337" style="stroke: #000000; stroke-width: 0.8"/>
      </g>
     </g>
     <g id="text_26">
      <!-- 0.2 -->
      <g transform="translate(314.130625 207.657556) scale(0.1 -0.1)">
       <use xlink:href="#DejaVuSans-30"/>
       <use xlink:href="#DejaVuSans-2e" x="63.623047"/>
       <use xlink:href="#DejaVuSans-32" x="95.410156"/>
      </g>
     </g>
    </g>
    <g id="ytick_12">
     <g id="line2d_25">
      <g>
       <use xlink:href="#m22e6342a0f" x="337.03375" y="175.526568" style="stroke: #000000; stroke-width: 0.8"/>
      </g>
     </g>
     <g id="text_27">
      <!-- 0.3 -->
      <g transform="translate(314.130625 179.325787) scale(0.1 -0.1)">
       <use xlink:href="#DejaVuSans-30"/>
       <use xlink:href="#DejaVuSans-2e" x="63.623047"/>
       <use xlink:href="#DejaVuSans-33" x="95.410156"/>
      </g>
     </g>
    </g>
    <g id="ytick_13">
     <g id="line2d_26">
      <g>
       <use xlink:href="#m22e6342a0f" x="337.03375" y="147.194799" style="stroke: #000000; stroke-width: 0.8"/>
      </g>
     </g>
     <g id="text_28">
      <!-- 0.4 -->
      <g transform="translate(314.130625 150.994017) scale(0.1 -0.1)">
       <use xlink:href="#DejaVuSans-30"/>
       <use xlink:href="#DejaVuSans-2e" x="63.623047"/>
       <use xlink:href="#DejaVuSans-34" x="95.410156"/>
      </g>
     </g>
    </g>
    <g id="ytick_14">
     <g id="line2d_27">
      <g>
       <use xlink:href="#m22e6342a0f" x="337.03375" y="118.86303" style="stroke: #000000; stroke-width: 0.8"/>
      </g>
     </g>
     <g id="text_29">
      <!-- 0.5 -->
      <g transform="translate(314.130625 122.662248) scale(0.1 -0.1)">
       <use xlink:href="#DejaVuSans-30"/>
       <use xlink:href="#DejaVuSans-2e" x="63.623047"/>
       <use xlink:href="#DejaVuSans-35" x="95.410156"/>
      </g>
     </g>
    </g>
    <g id="ytick_15">
     <g id="line2d_28">
      <g>
       <use xlink:href="#m22e6342a0f" x="337.03375" y="90.531261" style="stroke: #000000; stroke-width: 0.8"/>
      </g>
     </g>
     <g id="text_30">
      <!-- 0.6 -->
      <g transform="translate(314.130625 94.330479) scale(0.1 -0.1)">
       <use xlink:href="#DejaVuSans-30"/>
       <use xlink:href="#DejaVuSans-2e" x="63.623047"/>
       <use xlink:href="#DejaVuSans-36" x="95.410156"/>
      </g>
     </g>
    </g>
    <g id="ytick_16">
     <g id="line2d_29">
      <g>
       <use xlink:href="#m22e6342a0f" x="337.03375" y="62.199491" style="stroke: #000000; stroke-width: 0.8"/>
      </g>
     </g>
     <g id="text_31">
      <!-- 0.7 -->
      <g transform="translate(314.130625 65.99871) scale(0.1 -0.1)">
       <use xlink:href="#DejaVuSans-30"/>
       <use xlink:href="#DejaVuSans-2e" x="63.623047"/>
       <use xlink:href="#DejaVuSans-37" x="95.410156"/>
      </g>
     </g>
    </g>
    <g id="ytick_17">
     <g id="line2d_30">
      <g>
       <use xlink:href="#m22e6342a0f" x="337.03375" y="33.867722" style="stroke: #000000; stroke-width: 0.8"/>
      </g>
     </g>
     <g id="text_32">
      <!-- 0.8 -->
      <g transform="translate(314.130625 37.666941) scale(0.1 -0.1)">
       <use xlink:href="#DejaVuSans-30"/>
       <use xlink:href="#DejaVuSans-2e" x="63.623047"/>
       <use xlink:href="#DejaVuSans-38" x="95.410156"/>
      </g>
     </g>
    </g>
    <g id="text_33">
     <!-- Fraction of cells -->
     <g transform="translate(307.219062 198.811719) rotate(-90) scale(0.14 -0.14)">
      <use xlink:href="#DejaVuSans-46"/>
      <use xlink:href="#DejaVuSans-72" x="50.269531"/>
      <use xlink:href="#DejaVuSans-61" x="91.382812"/>
      <use xlink:href="#DejaVuSans-63" x="152.662109"/>
      <use xlink:href="#DejaVuSans-74" x="207.642578"/>
      <use xlink:href="#DejaVuSans-69" x="246.851562"/>
      <use xlink:href="#DejaVuSans-6f" x="274.634766"/>
      <use xlink:href="#DejaVuSans-6e" x="335.816406"/>
      <use xlink:href="#DejaVuSans-20" x="399.195312"/>
      <use xlink:href="#DejaVuSans-6f" x="430.982422"/>
      <use xlink:href="#DejaVuSans-66" x="492.164062"/>
      <use xlink:href="#DejaVuSans-20" x="527.369141"/>
      <use xlink:href="#DejaVuSans-63" x="559.15625"/>
      <use xlink:href="#DejaVuSans-65" x="614.136719"/>
      <use xlink:href="#DejaVuSans-6c" x="675.660156"/>
      <use xlink:href="#DejaVuSans-6c" x="703.443359"/>
      <use xlink:href="#DejaVuSans-73" x="731.226562"/>
     </g>
    </g>
   </g>
   <g id="line2d_31">
    <path d="M 336.901713 260.506472 
L 345.777095 260.357912 
L 350.287534 260.070192 
L 353.63399 259.638173 
L 356.398453 259.059934 
L 358.87192 258.314711 
L 361.199889 257.373601 
L 363.38236 256.251328 
L 365.564831 254.880288 
L 367.8928 253.140911 
L 370.366267 250.997906 
L 373.13073 248.2967 
L 376.622683 244.557165 
L 383.60659 236.658655 
L 391.026991 228.046962 
L 394.518944 223.646261 
L 397.719902 219.249494 
L 400.920859 214.465799 
L 404.55831 208.607116 
L 409.06875 200.894226 
L 415.034171 190.239338 
L 420.854093 179.406078 
L 425.946525 169.452253 
L 430.893459 159.283708 
L 436.131389 147.985086 
L 445.588763 127.411969 
L 448.06223 122.683118 
L 449.953705 119.512223 
L 451.554183 117.221351 
L 453.009164 115.508233 
L 454.318646 114.304623 
L 455.482631 113.526617 
L 456.501117 113.083987 
L 457.519604 112.871944 
L 458.53809 112.895962 
L 459.556577 113.159046 
L 460.575063 113.661752 
L 461.593549 114.402278 
L 462.757534 115.534567 
L 464.067016 117.161858 
L 465.376499 119.146591 
L 466.83148 121.74544 
L 468.431958 125.04488 
L 470.323433 129.477063 
L 472.505904 135.208651 
L 474.979371 142.354548 
L 478.180328 152.345817 
L 484.145749 171.922853 
L 488.219694 184.884 
L 491.129655 193.430397 
L 493.603122 200.052821 
L 495.931091 205.687502 
L 498.25906 210.742349 
L 500.587029 215.262417 
L 503.060496 219.565589 
L 505.679461 223.681785 
L 508.734921 228.073745 
L 512.372372 232.906561 
L 516.009823 237.38767 
L 519.210781 241.004467 
L 522.120742 243.965143 
L 524.739707 246.323835 
L 527.358672 248.378543 
L 529.977637 250.139578 
L 532.596602 251.63807 
L 535.506563 253.049582 
L 538.853019 254.425829 
L 542.926964 255.858544 
L 547.582902 257.263046 
L 552.093342 258.393822 
L 556.167288 259.190026 
L 560.241233 259.760105 
L 564.606175 260.145889 
L 565.333665 260.191355 
L 565.333665 260.191355 
" clip-path="url(#pb5d0e6ee87)" style="fill: none; stroke: #1f77b4; stroke-width: 1.5; stroke-linecap: square"/>
   </g>
   <g id="line2d_32">
    <path d="M 336.901713 221.900294 
L 340.684662 214.509425 
L 346.213589 203.154162 
L 352.761001 189.799697 
L 356.252955 183.180086 
L 359.017418 178.379336 
L 361.490885 174.505807 
L 363.673356 171.474716 
L 365.710329 169.010018 
L 367.601803 167.060918 
L 369.34778 165.567435 
L 370.948259 164.46503 
L 372.548737 163.622691 
L 374.149216 163.042448 
L 375.604197 162.741746 
L 377.059177 162.654298 
L 378.514158 162.775449 
L 380.114636 163.141764 
L 381.715115 163.741226 
L 383.461092 164.644835 
L 385.352567 165.893915 
L 387.389539 167.519223 
L 389.717508 169.67965 
L 392.481971 172.575165 
L 396.119423 176.742296 
L 405.722295 187.910001 
L 408.923252 191.201321 
L 411.833213 193.869941 
L 414.452178 195.977839 
L 417.071143 197.796531 
L 419.54461 199.250569 
L 422.018077 200.458708 
L 424.637042 201.487739 
L 427.256008 202.282829 
L 430.020471 202.89765 
L 433.07593 203.347686 
L 436.422385 203.615349 
L 440.496331 203.707673 
L 447.771234 203.589153 
L 452.57267 203.634445 
L 455.919125 203.891733 
L 458.683588 204.321092 
L 461.302553 204.95636 
L 463.77602 205.792436 
L 466.103989 206.808406 
L 468.431958 208.056542 
L 470.905425 209.637862 
L 473.52439 211.586736 
L 476.434351 214.04993 
L 479.780807 217.196314 
L 484.436745 221.91943 
L 491.857146 229.452209 
L 495.349099 232.66798 
L 498.404558 235.192703 
L 501.31452 237.309891 
L 504.078983 239.052874 
L 506.988944 240.616651 
L 510.044403 241.99242 
L 513.390858 243.246987 
L 517.610302 244.576417 
L 532.451104 249.037609 
L 538.998517 251.400715 
L 549.474377 255.195947 
L 554.275813 256.670401 
L 558.640755 257.777923 
L 563.005696 258.649331 
L 565.333665 259.021471 
L 565.333665 259.021471 
" clip-path="url(#pb5d0e6ee87)" style="fill: none; stroke: #ff7f0e; stroke-width: 1.5; stroke-linecap: square"/>
   </g>
   <g id="line2d_33">
    <path d="M 336.901713 256.964913 
L 341.412153 255.650614 
L 346.359087 253.97383 
L 351.597017 251.965004 
L 356.398453 249.890723 
L 360.181402 248.02429 
L 363.38236 246.199996 
L 366.146823 244.372228 
L 368.62029 242.483113 
L 371.093757 240.305723 
L 373.421726 237.954913 
L 375.749695 235.282854 
L 378.077664 232.27203 
L 380.551131 228.697907 
L 383.170096 224.509783 
L 386.080057 219.424794 
L 389.717508 212.584903 
L 400.484365 191.97884 
L 403.248828 187.319192 
L 405.722295 183.558184 
L 408.050264 180.41305 
L 410.232735 177.827152 
L 412.415206 175.589205 
L 414.597676 173.681363 
L 416.780147 172.073377 
L 419.108116 170.643993 
L 421.581583 169.388111 
L 424.491544 168.166763 
L 428.274494 166.83629 
L 434.239914 164.999926 
L 439.623343 163.541748 
L 442.969798 162.85049 
L 445.734261 162.504021 
L 448.06223 162.427816 
L 450.244701 162.574189 
L 452.281674 162.926516 
L 454.318646 163.504441 
L 456.355619 164.317692 
L 458.392592 165.368155 
L 460.575063 166.749692 
L 462.903032 168.495621 
L 465.521997 170.755365 
L 468.577456 173.708768 
L 472.651402 177.994632 
L 485.164235 191.383152 
L 491.711648 197.876632 
L 499.714041 205.855185 
L 504.660975 211.132729 
L 510.044403 217.221319 
L 520.956757 229.658877 
L 524.739707 233.560268 
L 527.940664 236.555342 
L 530.996124 239.112371 
L 533.906085 241.258706 
L 536.816046 243.125236 
L 539.726007 244.727715 
L 542.781466 246.155481 
L 546.127922 247.466785 
L 549.910871 248.70456 
L 554.857805 250.070635 
L 565.333665 252.662676 
L 565.333665 252.662676 
" clip-path="url(#pb5d0e6ee87)" style="fill: none; stroke: #2ca02c; stroke-width: 1.5; stroke-linecap: square"/>
   </g>
   <g id="patch_132">
    <path d="M 337.03375 260.521875 
L 337.03375 27.437812 
" style="fill: none; stroke: #000000; stroke-width: 0.8; stroke-linejoin: miter; stroke-linecap: square"/>
   </g>
   <g id="patch_133">
    <path d="M 565.2 260.521875 
L 565.2 27.437812 
" style="fill: none; stroke: #000000; stroke-width: 0.8; stroke-linejoin: miter; stroke-linecap: square"/>
   </g>
   <g id="patch_134">
    <path d="M 337.03375 260.521875 
L 565.2 260.521875 
" style="fill: none; stroke: #000000; stroke-width: 0.8; stroke-linejoin: miter; stroke-linecap: square"/>
   </g>
   <g id="patch_135">
    <path d="M 337.03375 27.437812 
L 565.2 27.437812 
" style="fill: none; stroke: #000000; stroke-width: 0.8; stroke-linejoin: miter; stroke-linecap: square"/>
   </g>
   <g id="text_34">
    <!-- Linear -->
    <g transform="translate(429.361094 21.437813) scale(0.14 -0.14)">
     <defs>
      <path id="DejaVuSans-4c" d="M 628 4666 
L 1259 4666 
L 1259 531 
L 3531 531 
L 3531 0 
L 628 0 
L 628 4666 
z
" transform="scale(0.015625)"/>
     </defs>
     <use xlink:href="#DejaVuSans-4c"/>
     <use xlink:href="#DejaVuSans-69" x="55.712891"/>
     <use xlink:href="#DejaVuSans-6e" x="83.496094"/>
     <use xlink:href="#DejaVuSans-65" x="146.875"/>
     <use xlink:href="#DejaVuSans-61" x="208.398438"/>
     <use xlink:href="#DejaVuSans-72" x="269.677734"/>
    </g>
   </g>
   <g id="legend_2">
    <g id="patch_136">
     <path d="M 476.810625 89.879062 
L 556.8 89.879062 
Q 559.2 89.879062 559.2 87.479062 
L 559.2 35.837812 
Q 559.2 33.437812 556.8 33.437812 
L 476.810625 33.437812 
Q 474.410625 33.437812 474.410625 35.837812 
L 474.410625 87.479062 
Q 474.410625 89.879062 476.810625 89.879062 
z
" style="fill: #ffffff; opacity: 0.8; stroke: #cccccc; stroke-linejoin: miter"/>
    </g>
    <g id="patch_137">
     <path d="M 479.210625 47.355937 
L 503.210625 47.355937 
L 503.210625 38.955937 
L 479.210625 38.955937 
z
" style="fill: #1f77b4; opacity: 0.4"/>
    </g>
    <g id="text_35">
     <!-- control -->
     <g transform="translate(512.810625 47.355937) scale(0.12 -0.12)">
      <use xlink:href="#DejaVuSans-63"/>
      <use xlink:href="#DejaVuSans-6f" x="54.980469"/>
      <use xlink:href="#DejaVuSans-6e" x="116.162109"/>
      <use xlink:href="#DejaVuSans-74" x="179.541016"/>
      <use xlink:href="#DejaVuSans-72" x="218.75"/>
      <use xlink:href="#DejaVuSans-6f" x="257.613281"/>
      <use xlink:href="#DejaVuSans-6c" x="318.794922"/>
     </g>
    </g>
    <g id="patch_138">
     <path d="M 479.210625 64.969687 
L 503.210625 64.969687 
L 503.210625 56.569687 
L 479.210625 56.569687 
z
" style="fill: #ff7f0e; opacity: 0.4"/>
    </g>
    <g id="text_36">
     <!-- cytd -->
     <g transform="translate(512.810625 64.969687) scale(0.12 -0.12)">
      <use xlink:href="#DejaVuSans-63"/>
      <use xlink:href="#DejaVuSans-79" x="54.980469"/>
      <use xlink:href="#DejaVuSans-74" x="114.160156"/>
      <use xlink:href="#DejaVuSans-64" x="153.369141"/>
     </g>
    </g>
    <g id="patch_139">
     <path d="M 479.210625 82.583437 
L 503.210625 82.583437 
L 503.210625 74.183437 
L 479.210625 74.183437 
z
" style="fill: #2ca02c; opacity: 0.4"/>
    </g>
    <g id="text_37">
     <!-- jasp -->
     <g transform="translate(512.810625 82.583437) scale(0.12 -0.12)">
      <use xlink:href="#DejaVuSans-6a"/>
      <use xlink:href="#DejaVuSans-61" x="27.783203"/>
      <use xlink:href="#DejaVuSans-73" x="89.0625"/>
      <use xlink:href="#DejaVuSans-70" x="141.162109"/>
     </g>
    </g>
   </g>
  </g>
 </g>
 <defs>
  <clipPath id="p44a1daab58">
   <rect x="57.615" y="27.437813" width="228.16625" height="233.084062"/>
  </clipPath>
  <clipPath id="pb5d0e6ee87">
   <rect x="337.03375" y="27.437813" width="228.16625" height="233.084062"/>
  </clipPath>
 </defs>
</svg>
