<?xml version="1.0" encoding="utf-8" standalone="no"?>
<!DOCTYPE svg PUBLIC "-//W3C//DTD SVG 1.1//EN"
  "http://www.w3.org/Graphics/SVG/1.1/DTD/svg11.dtd">
<svg xmlns:xlink="http://www.w3.org/1999/xlink" width="540pt" height="288pt" viewBox="0 0 540 288" xmlns="http://www.w3.org/2000/svg" version="1.1">
 <metadata>
  <rdf:RDF xmlns:dc="http://purl.org/dc/elements/1.1/" xmlns:cc="http://creativecommons.org/ns#" xmlns:rdf="http://www.w3.org/1999/02/22-rdf-syntax-ns#">
   <cc:Work>
    <dc:type rdf:resource="http://purl.org/dc/dcmitype/StillImage"/>
    <dc:date>2024-04-08T12:10:55.006008</dc:date>
    <dc:format>image/svg+xml</dc:format>
    <dc:creator>
     <cc:Agent>
      <dc:title>Matplotlib v3.8.4, https://matplotlib.org/</dc:title>
     </cc:Agent>
    </dc:creator>
   </cc:Work>
  </rdf:RDF>
 </metadata>
 <defs>
  <style type="text/css">*{stroke-linejoin: round; stroke-linecap: butt}</style>
 </defs>
 <g id="figure_1">
  <g id="patch_1">
   <path d="M 0 288 
L 540 288 
L 540 0 
L 0 0 
z
" style="fill: #ffffff"/>
  </g>
  <g id="axes_1">
   <g id="line2d_1">
    <path d="M 108.112626 39.141818 
L 107.590975 41.007348 
L 106.710032 41.92567 
L 103.914797 47.282029 
L 103.832875 47.908318 
L 103.470366 48.994311 
L 101.360471 51.43745 
L 99.069593 52.871936 
L 98.677607 53.719952 
L 98.074652 56.027302 
L 98.050763 57.482507 
L 97.616962 58.60085 
L 97.504726 59.315714 
L 97.008703 60.670527 
L 97.103294 61.070421 
L 96.73807 62.417967 
L 95.360289 64.328436 
L 94.546519 66.900132 
L 93.634081 68.141689 
L 93.081465 69.094039 
L 92.981729 70.121097 
L 93.274127 71.637763 
L 92.259836 73.763626 
L 91.804983 75.029104 
L 91.872502 77.080797 
L 92.232283 79.537063 
L 92.477155 80.401926 
L 92.519221 81.459759 
L 92.726697 82.283801 
L 92.654607 83.503974 
L 92.822503 84.410113 
L 92.933163 86.452591 
L 93.930122 88.410501 
L 94.151966 91.013036 
L 94.083716 94.730156 
L 94.409753 95.781126 
L 94.69391 96.310513 
L 95.30281 96.962066 
L 96.039429 99.019992 
L 96.512546 101.345816 
L 97.849339 102.547771 
L 98.276073 104.909639 
L 98.878337 106.403385 
L 100.165594 107.723704 
L 100.650372 109.589387 
L 100.602145 110.606362 
L 100.86189 111.539412 
L 101.205025 112.216257 
L 101.879616 112.645563 
L 104.473091 116.070605 
L 104.817943 116.739653 
L 105.746275 117.122683 
L 108.328323 118.485993 
L 109.021813 119.190717 
L 109.381415 120.015143 
L 109.972697 120.813265 
L 110.895026 121.849776 
L 114.80774 123.484987 
L 116.642661 126.210774 
L 117.474199 126.824305 
L 119.06045 127.266558 
L 120.420304 127.856445 
L 120.679558 127.816558 
L 121.345881 127.429042 
L 123.501674 127.611446 
L 124.791306 128.399557 
L 128.098424 128.869325 
L 129.050119 129.509131 
L 130.679118 129.808294 
L 131.984495 129.673781 
L 132.932479 129.80573 
L 136.161907 130.702177 
L 138.076223 130.778182 
L 140.324569 130.162986 
L 142.220907 130.650781 
L 144.311706 130.75732 
L 146.420648 129.862385 
L 147.457241 130.068134 
L 148.085362 130.223014 
L 150.410172 129.257045 
L 150.857518 129.330386 
L 151.354761 129.148812 
L 154.426566 127.623326 
L 156.129824 127.535339 
L 157.834466 126.76909 
L 158.268669 126.806556 
L 159.322115 126.557849 
L 160.874397 125.315917 
L 161.763281 123.778254 
L 163.001626 122.276229 
L 163.886914 118.681782 
L 164.259345 117.694987 
L 164.318182 117.204941 
L 165.863181 113.971528 
L 165.626986 112.976049 
L 165.393187 111.420952 
L 165.631309 108.465879 
L 165.5644 108.192868 
L 165.911398 106.810972 
L 165.818209 106.482323 
L 165.266609 105.18026 
L 164.871776 102.418155 
L 165.027935 101.309068 
L 165.860635 100.038432 
L 166.283252 97.772854 
L 165.735145 96.810551 
L 165.477064 95.045481 
L 163.994565 90.963485 
L 164.047965 89.928211 
L 164.620854 88.65907 
L 164.629794 86.467201 
L 163.935592 83.977426 
L 162.312723 82.103973 
L 161.116296 80.338137 
L 159.775304 79.337618 
L 158.280264 76.898446 
L 157.677796 74.90193 
L 157.117755 74.365999 
L 155.061238 72.178273 
L 154.224574 71.486268 
L 153.406083 70.611857 
L 152.72609 70.26526 
L 151.83436 69.417477 
L 151.091979 68.942982 
L 150.348818 68.163696 
L 149.572601 66.491243 
L 149.134881 65.861367 
L 146.943495 64.53778 
L 144.160582 62.249954 
L 142.970766 60.740035 
L 140.272793 59.380763 
L 139.492655 58.425894 
L 136.926899 57.623899 
L 132.392018 54.230547 
L 130.776751 53.783237 
L 127.041917 51.276843 
L 125.350595 51.368612 
L 124.463871 50.828575 
L 123.658252 50.171615 
L 121.349507 48.785447 
L 120.21002 48.605171 
L 116.723798 49.160689 
L 114.268211 49.106494 
L 113.718777 48.721453 
L 112.249227 48.024777 
L 109.948085 47.44268 
L 109.534443 47.037098 
L 107.66754 45.944504 
L 105.062607 46.197784 
L 103.262987 46.17896 
L 103.262987 46.17896 
" clip-path="url(#pa0557d57f9)" style="fill: none; stroke: #1f77b4; stroke-width: 1.5; stroke-linecap: square"/>
   </g>
   <g id="text_1">
    <!-- SRV-control -->
    <g transform="translate(71.778493 28.56) scale(0.2 -0.2)">
     <defs>
      <path id="DejaVuSans-53" d="M 3425 4513 
L 3425 3897 
Q 3066 4069 2747 4153 
Q 2428 4238 2131 4238 
Q 1616 4238 1336 4038 
Q 1056 3838 1056 3469 
Q 1056 3159 1242 3001 
Q 1428 2844 1947 2747 
L 2328 2669 
Q 3034 2534 3370 2195 
Q 3706 1856 3706 1288 
Q 3706 609 3251 259 
Q 2797 -91 1919 -91 
Q 1588 -91 1214 -16 
Q 841 59 441 206 
L 441 856 
Q 825 641 1194 531 
Q 1563 422 1919 422 
Q 2459 422 2753 634 
Q 3047 847 3047 1241 
Q 3047 1584 2836 1778 
Q 2625 1972 2144 2069 
L 1759 2144 
Q 1053 2284 737 2584 
Q 422 2884 422 3419 
Q 422 4038 858 4394 
Q 1294 4750 2059 4750 
Q 2388 4750 2728 4690 
Q 3069 4631 3425 4513 
z
" transform="scale(0.015625)"/>
      <path id="DejaVuSans-52" d="M 2841 2188 
Q 3044 2119 3236 1894 
Q 3428 1669 3622 1275 
L 4263 0 
L 3584 0 
L 2988 1197 
Q 2756 1666 2539 1819 
Q 2322 1972 1947 1972 
L 1259 1972 
L 1259 0 
L 628 0 
L 628 4666 
L 2053 4666 
Q 2853 4666 3247 4331 
Q 3641 3997 3641 3322 
Q 3641 2881 3436 2590 
Q 3231 2300 2841 2188 
z
M 1259 4147 
L 1259 2491 
L 2053 2491 
Q 2509 2491 2742 2702 
Q 2975 2913 2975 3322 
Q 2975 3731 2742 3939 
Q 2509 4147 2053 4147 
L 1259 4147 
z
" transform="scale(0.015625)"/>
      <path id="DejaVuSans-56" d="M 1831 0 
L 50 4666 
L 709 4666 
L 2188 738 
L 3669 4666 
L 4325 4666 
L 2547 0 
L 1831 0 
z
" transform="scale(0.015625)"/>
      <path id="DejaVuSans-2d" d="M 313 2009 
L 1997 2009 
L 1997 1497 
L 313 1497 
L 313 2009 
z
" transform="scale(0.015625)"/>
      <path id="DejaVuSans-63" d="M 3122 3366 
L 3122 2828 
Q 2878 2963 2633 3030 
Q 2388 3097 2138 3097 
Q 1578 3097 1268 2742 
Q 959 2388 959 1747 
Q 959 1106 1268 751 
Q 1578 397 2138 397 
Q 2388 397 2633 464 
Q 2878 531 3122 666 
L 3122 134 
Q 2881 22 2623 -34 
Q 2366 -91 2075 -91 
Q 1284 -91 818 406 
Q 353 903 353 1747 
Q 353 2603 823 3093 
Q 1294 3584 2113 3584 
Q 2378 3584 2631 3529 
Q 2884 3475 3122 3366 
z
" transform="scale(0.015625)"/>
      <path id="DejaVuSans-6f" d="M 1959 3097 
Q 1497 3097 1228 2736 
Q 959 2375 959 1747 
Q 959 1119 1226 758 
Q 1494 397 1959 397 
Q 2419 397 2687 759 
Q 2956 1122 2956 1747 
Q 2956 2369 2687 2733 
Q 2419 3097 1959 3097 
z
M 1959 3584 
Q 2709 3584 3137 3096 
Q 3566 2609 3566 1747 
Q 3566 888 3137 398 
Q 2709 -91 1959 -91 
Q 1206 -91 779 398 
Q 353 888 353 1747 
Q 353 2609 779 3096 
Q 1206 3584 1959 3584 
z
" transform="scale(0.015625)"/>
      <path id="DejaVuSans-6e" d="M 3513 2113 
L 3513 0 
L 2938 0 
L 2938 2094 
Q 2938 2591 2744 2837 
Q 2550 3084 2163 3084 
Q 1697 3084 1428 2787 
Q 1159 2491 1159 1978 
L 1159 0 
L 581 0 
L 581 3500 
L 1159 3500 
L 1159 2956 
Q 1366 3272 1645 3428 
Q 1925 3584 2291 3584 
Q 2894 3584 3203 3211 
Q 3513 2838 3513 2113 
z
" transform="scale(0.015625)"/>
      <path id="DejaVuSans-74" d="M 1172 4494 
L 1172 3500 
L 2356 3500 
L 2356 3053 
L 1172 3053 
L 1172 1153 
Q 1172 725 1289 603 
Q 1406 481 1766 481 
L 2356 481 
L 2356 0 
L 1766 0 
Q 1100 0 847 248 
Q 594 497 594 1153 
L 594 3053 
L 172 3053 
L 172 3500 
L 594 3500 
L 594 4494 
L 1172 4494 
z
" transform="scale(0.015625)"/>
      <path id="DejaVuSans-72" d="M 2631 2963 
Q 2534 3019 2420 3045 
Q 2306 3072 2169 3072 
Q 1681 3072 1420 2755 
Q 1159 2438 1159 1844 
L 1159 0 
L 581 0 
L 581 3500 
L 1159 3500 
L 1159 2956 
Q 1341 3275 1631 3429 
Q 1922 3584 2338 3584 
Q 2397 3584 2469 3576 
Q 2541 3569 2628 3553 
L 2631 2963 
z
" transform="scale(0.015625)"/>
      <path id="DejaVuSans-6c" d="M 603 4863 
L 1178 4863 
L 1178 0 
L 603 0 
L 603 4863 
z
" transform="scale(0.015625)"/>
     </defs>
     <use xlink:href="#DejaVuSans-53"/>
     <use xlink:href="#DejaVuSans-52" x="63.476562"/>
     <use xlink:href="#DejaVuSans-56" x="127.458984"/>
     <use xlink:href="#DejaVuSans-2d" x="189.992188"/>
     <use xlink:href="#DejaVuSans-63" x="226.076172"/>
     <use xlink:href="#DejaVuSans-6f" x="281.056641"/>
     <use xlink:href="#DejaVuSans-6e" x="342.238281"/>
     <use xlink:href="#DejaVuSans-74" x="405.617188"/>
     <use xlink:href="#DejaVuSans-72" x="444.826172"/>
     <use xlink:href="#DejaVuSans-6f" x="483.689453"/>
     <use xlink:href="#DejaVuSans-6c" x="544.871094"/>
    </g>
   </g>
  </g>
  <g id="axes_2">
   <g id="line2d_2">
    <path d="M 271.817547 39.141818 
L 272.179636 42.261611 
L 272.700874 43.506429 
L 272.85496 45.243433 
L 273.276435 47.78252 
L 273.465784 52.416701 
L 273.878306 54.3724 
L 274.167424 56.653026 
L 275.019524 58.709867 
L 275.409786 61.352178 
L 274.016183 63.919205 
L 271.309237 65.078703 
L 271.212746 65.686317 
L 271.173319 67.750678 
L 271.780658 69.751153 
L 271.69278 70.908399 
L 271.819808 71.529287 
L 271.028199 73.386928 
L 271.22905 73.521141 
L 271.479739 74.112727 
L 271.336602 75.640903 
L 270.406784 77.207249 
L 270.010166 79.835805 
L 268.182823 81.848798 
L 268.012821 82.616726 
L 268.398749 83.875597 
L 267.442347 85.590591 
L 267.274789 86.381971 
L 268.366028 90.109194 
L 268.867844 90.95269 
L 268.842107 92.047605 
L 269.218782 92.858242 
L 269.003476 94.260735 
L 269.300781 95.109212 
L 269.564588 96.831715 
L 270.384576 98.709038 
L 270.284255 100.937234 
L 269.843914 104.51855 
L 270.19413 105.887622 
L 270.844239 106.37525 
L 271.539796 107.486478 
L 271.71386 109.051013 
L 273.675518 109.934564 
L 273.888703 111.243437 
L 274.259942 111.977544 
L 275.713829 112.812835 
L 275.821357 114.052945 
L 275.604416 115.017502 
L 275.967122 115.869695 
L 276.65064 116.091713 
L 278.576246 117.538724 
L 278.627316 118.28666 
L 279.183472 118.401077 
L 279.886182 118.778644 
L 280.663038 118.873773 
L 281.107266 119.315084 
L 281.242542 120.047438 
L 282.110941 121.424983 
L 283.37368 122.065165 
L 284.498095 122.255089 
L 284.868153 123.509863 
L 285.062801 124.754271 
L 285.269296 125.296382 
L 285.70297 125.691327 
L 287.774272 126.457205 
L 288.569467 125.797465 
L 290.006669 125.592894 
L 290.699655 126.022465 
L 292.357609 126.356821 
L 292.85704 126.755079 
L 293.011846 127.175344 
L 293.453391 127.242712 
L 295.446358 128.1963 
L 296.143741 128.789221 
L 297.701757 129.408256 
L 298.856951 129.389549 
L 300.15701 129.857083 
L 301.165742 130.472476 
L 302.135996 130.206337 
L 302.776816 130.502353 
L 303.2027 130.691661 
L 304.205262 130.186636 
L 304.454302 130.35868 
L 304.936565 130.106206 
L 305.37356 130.007584 
L 306.085044 130.033091 
L 306.465396 130.176382 
L 306.960871 130.24153 
L 307.524673 130.474069 
L 308.141279 130.589791 
L 308.419467 130.755097 
L 309.052168 130.778182 
L 309.649613 130.416993 
L 310.534412 128.931065 
L 310.378048 128.324441 
L 310.342295 125.79234 
L 310.257976 125.694218 
L 310.313649 125.241167 
L 310.909703 123.383294 
L 310.149024 122.510098 
L 309.253926 121.320984 
L 308.997964 118.929314 
L 308.822294 118.713041 
L 309.385861 116.461152 
L 309.070849 116.209844 
L 307.843152 114.959484 
L 306.847042 112.128622 
L 307.595507 111.378932 
L 307.433321 109.910818 
L 306.676903 108.885624 
L 306.405412 107.240022 
L 304.623604 103.148117 
L 304.876407 102.035976 
L 305.555635 101.220379 
L 306.54154 100.557084 
L 307.292829 98.721281 
L 306.851857 97.189771 
L 303.764435 94.546894 
L 301.983291 93.660573 
L 300.399326 91.837963 
L 299.819496 90.709984 
L 298.867051 90.562482 
L 295.813205 88.104001 
L 295.03227 87.548182 
L 294.225945 87.315906 
L 293.339205 86.717822 
L 292.601314 86.428022 
L 292.122615 85.825208 
L 291.846393 84.784918 
L 291.027309 83.312494 
L 288.905829 81.811179 
L 286.203325 79.304575 
L 285.316989 77.41825 
L 283.433077 76.865451 
L 282.829356 76.554906 
L 282.595654 75.741004 
L 282.229091 75.081397 
L 280.917231 74.967197 
L 279.591129 74.015864 
L 278.802059 73.103558 
L 274.090281 68.302772 
L 272.365129 67.41646 
L 269.129874 64.097835 
L 268.764282 63.283244 
L 268.066096 62.810068 
L 266.532944 62.632342 
L 265.278063 61.27461 
L 264.034794 59.393079 
L 261.386702 56.009756 
L 260.143828 55.568799 
L 257.225322 55.172867 
L 255.353992 54.303142 
L 254.378652 52.997423 
L 252.178484 50.328174 
L 249.507676 47.851772 
L 248.616407 46.21169 
L 245.281665 42.211618 
L 243.954399 41.895672 
L 242.590297 40.686762 
L 242.590297 40.686762 
" clip-path="url(#p1b0475cffa)" style="fill: none; stroke: #ff7f0e; stroke-width: 1.5; stroke-linecap: square"/>
   </g>
   <g id="text_2">
    <!-- SRV-cytd -->
    <g transform="translate(232.45625 28.56) scale(0.2 -0.2)">
     <defs>
      <path id="DejaVuSans-79" d="M 2059 -325 
Q 1816 -950 1584 -1140 
Q 1353 -1331 966 -1331 
L 506 -1331 
L 506 -850 
L 844 -850 
Q 1081 -850 1212 -737 
Q 1344 -625 1503 -206 
L 1606 56 
L 191 3500 
L 800 3500 
L 1894 763 
L 2988 3500 
L 3597 3500 
L 2059 -325 
z
" transform="scale(0.015625)"/>
      <path id="DejaVuSans-64" d="M 2906 2969 
L 2906 4863 
L 3481 4863 
L 3481 0 
L 2906 0 
L 2906 525 
Q 2725 213 2448 61 
Q 2172 -91 1784 -91 
Q 1150 -91 751 415 
Q 353 922 353 1747 
Q 353 2572 751 3078 
Q 1150 3584 1784 3584 
Q 2172 3584 2448 3432 
Q 2725 3281 2906 2969 
z
M 947 1747 
Q 947 1113 1208 752 
Q 1469 391 1925 391 
Q 2381 391 2643 752 
Q 2906 1113 2906 1747 
Q 2906 2381 2643 2742 
Q 2381 3103 1925 3103 
Q 1469 3103 1208 2742 
Q 947 2381 947 1747 
z
" transform="scale(0.015625)"/>
     </defs>
     <use xlink:href="#DejaVuSans-53"/>
     <use xlink:href="#DejaVuSans-52" x="63.476562"/>
     <use xlink:href="#DejaVuSans-56" x="127.458984"/>
     <use xlink:href="#DejaVuSans-2d" x="189.992188"/>
     <use xlink:href="#DejaVuSans-63" x="226.076172"/>
     <use xlink:href="#DejaVuSans-79" x="281.056641"/>
     <use xlink:href="#DejaVuSans-74" x="340.236328"/>
     <use xlink:href="#DejaVuSans-64" x="379.445312"/>
    </g>
   </g>
  </g>
  <g id="axes_3">
   <g id="line2d_3">
    <path d="M 409.939656 39.141818 
L 409.643374 40.40338 
L 409.689362 40.790091 
L 409.197966 41.770873 
L 408.661079 43.103076 
L 407.372687 45.868466 
L 406.748815 48.166679 
L 406.779525 48.511486 
L 406.51422 49.73751 
L 404.778637 52.00848 
L 403.170773 53.192896 
L 402.976939 53.841405 
L 402.781845 56.056855 
L 403.117491 57.821606 
L 402.819389 59.834433 
L 402.036036 61.808142 
L 402.187444 62.255114 
L 401.833813 63.773306 
L 400.83374 65.60069 
L 400.099224 68.674082 
L 398.641228 70.951455 
L 398.499536 71.894567 
L 398.803916 73.283272 
L 398.017908 75.111299 
L 397.908806 76.246949 
L 398.264137 78.46829 
L 398.335756 80.472225 
L 398.508335 81.48994 
L 398.875763 82.444667 
L 398.838968 83.819655 
L 399.095365 84.71541 
L 399.09741 85.778383 
L 399.463665 86.666052 
L 399.533424 88.648319 
L 400.565952 90.559633 
L 400.779813 92.723104 
L 400.881627 95.911865 
L 401.16722 97.339071 
L 401.878077 97.867685 
L 402.511135 99.659295 
L 402.901513 101.57889 
L 403.921417 102.26058 
L 404.531298 102.829861 
L 405.001724 105.314999 
L 405.486179 106.814635 
L 406.784099 108.000707 
L 407.253014 109.996469 
L 406.998338 111.097149 
L 407.444215 112.395819 
L 408.012938 112.681577 
L 410.028475 115.824313 
L 410.198431 116.459048 
L 410.969902 116.81932 
L 413.72486 118.348419 
L 414.410952 119.265483 
L 414.74621 120.316708 
L 415.925724 122.705337 
L 417.953316 123.732972 
L 419.62477 124.099551 
L 421.121606 126.751945 
L 421.762394 127.26803 
L 424.01475 128.187899 
L 424.248651 128.093389 
L 424.949395 127.557549 
L 426.431823 127.60739 
L 427.3345 128.257043 
L 429.750356 128.762383 
L 430.35919 129.387417 
L 430.581122 129.785057 
L 432.377961 130.024917 
L 435.12035 130.169976 
L 435.963838 130.562517 
L 436.650749 130.688904 
L 437.406515 130.667613 
L 437.997915 130.778182 
L 439.745469 130.206128 
L 441.696909 130.610263 
L 442.067426 130.667479 
L 443.740736 129.631349 
L 444.857697 129.59884 
L 446.09611 129.017319 
L 446.375436 129.111664 
L 446.915262 128.760138 
L 449.450297 127.833362 
L 449.845389 127.777421 
L 450.322073 127.851632 
L 451.511476 127.259619 
L 451.77633 127.254312 
L 452.543792 127.115186 
L 453.573473 126.271447 
L 454.216329 124.712973 
L 455.10838 123.415291 
L 455.160476 122.858315 
L 455.876608 120.861164 
L 455.885344 120.277763 
L 456.11154 119.368172 
L 456.029032 119.007185 
L 456.784352 117.062072 
L 456.580805 116.707951 
L 456.542878 116.304773 
L 456.174859 115.463783 
L 455.852337 114.518361 
L 455.557161 112.02968 
L 455.737022 110.622582 
L 455.618719 110.340007 
L 454.846603 108.964728 
L 454.460807 105.521706 
L 455.354798 104.508059 
L 455.301169 102.460748 
L 454.85497 101.41056 
L 454.607111 99.611491 
L 453.534521 96.202159 
L 452.819707 94.991438 
L 452.838339 93.917402 
L 453.242631 93.323055 
L 453.601311 92.553457 
L 453.717534 90.695807 
L 453.074088 88.590937 
L 451.132887 86.700925 
L 449.710456 84.863905 
L 448.329754 83.675215 
L 446.711879 81.438136 
L 446.095105 79.663848 
L 445.349203 79.291914 
L 442.255339 76.228433 
L 441.338744 74.929278 
L 440.727059 74.564175 
L 439.822421 73.596423 
L 439.112966 73.230256 
L 438.410866 72.510352 
L 438.144086 71.686475 
L 437.339522 70.487227 
L 435.341029 69.463239 
L 432.802995 67.142392 
L 431.722643 65.674565 
L 429.206011 64.359816 
L 428.471236 63.160726 
L 427.452359 62.986607 
L 426.012654 62.241282 
L 425.419326 61.648491 
L 421.324191 58.496634 
L 419.892081 57.667067 
L 417.031616 55.362346 
L 416.820888 54.958892 
L 415.994768 54.569894 
L 414.354264 54.539634 
L 413.143962 53.765171 
L 412.270875 52.786947 
L 409.448587 50.904232 
L 408.140591 50.626746 
L 404.632031 50.734896 
L 402.270999 50.521194 
L 401.812705 50.201081 
L 400.167747 49.497679 
L 398.706627 49.114143 
L 398.141514 48.846462 
L 397.84333 48.458167 
L 396.100307 47.356001 
L 393.378447 48.141688 
L 392.127413 47.722083 
L 392.127413 47.722083 
" clip-path="url(#p0f811cfd12)" style="fill: none; stroke: #2ca02c; stroke-width: 1.5; stroke-linecap: square"/>
   </g>
   <g id="text_3">
    <!-- SRV-jasp -->
    <g transform="translate(381.384007 28.56) scale(0.2 -0.2)">
     <defs>
      <path id="DejaVuSans-6a" d="M 603 3500 
L 1178 3500 
L 1178 -63 
Q 1178 -731 923 -1031 
Q 669 -1331 103 -1331 
L -116 -1331 
L -116 -844 
L 38 -844 
Q 366 -844 484 -692 
Q 603 -541 603 -63 
L 603 3500 
z
M 603 4863 
L 1178 4863 
L 1178 4134 
L 603 4134 
L 603 4863 
z
" transform="scale(0.015625)"/>
      <path id="DejaVuSans-61" d="M 2194 1759 
Q 1497 1759 1228 1600 
Q 959 1441 959 1056 
Q 959 750 1161 570 
Q 1363 391 1709 391 
Q 2188 391 2477 730 
Q 2766 1069 2766 1631 
L 2766 1759 
L 2194 1759 
z
M 3341 1997 
L 3341 0 
L 2766 0 
L 2766 531 
Q 2569 213 2275 61 
Q 1981 -91 1556 -91 
Q 1019 -91 701 211 
Q 384 513 384 1019 
Q 384 1609 779 1909 
Q 1175 2209 1959 2209 
L 2766 2209 
L 2766 2266 
Q 2766 2663 2505 2880 
Q 2244 3097 1772 3097 
Q 1472 3097 1187 3025 
Q 903 2953 641 2809 
L 641 3341 
Q 956 3463 1253 3523 
Q 1550 3584 1831 3584 
Q 2591 3584 2966 3190 
Q 3341 2797 3341 1997 
z
" transform="scale(0.015625)"/>
      <path id="DejaVuSans-73" d="M 2834 3397 
L 2834 2853 
Q 2591 2978 2328 3040 
Q 2066 3103 1784 3103 
Q 1356 3103 1142 2972 
Q 928 2841 928 2578 
Q 928 2378 1081 2264 
Q 1234 2150 1697 2047 
L 1894 2003 
Q 2506 1872 2764 1633 
Q 3022 1394 3022 966 
Q 3022 478 2636 193 
Q 2250 -91 1575 -91 
Q 1294 -91 989 -36 
Q 684 19 347 128 
L 347 722 
Q 666 556 975 473 
Q 1284 391 1588 391 
Q 1994 391 2212 530 
Q 2431 669 2431 922 
Q 2431 1156 2273 1281 
Q 2116 1406 1581 1522 
L 1381 1569 
Q 847 1681 609 1914 
Q 372 2147 372 2553 
Q 372 3047 722 3315 
Q 1072 3584 1716 3584 
Q 2034 3584 2315 3537 
Q 2597 3491 2834 3397 
z
" transform="scale(0.015625)"/>
      <path id="DejaVuSans-70" d="M 1159 525 
L 1159 -1331 
L 581 -1331 
L 581 3500 
L 1159 3500 
L 1159 2969 
Q 1341 3281 1617 3432 
Q 1894 3584 2278 3584 
Q 2916 3584 3314 3078 
Q 3713 2572 3713 1747 
Q 3713 922 3314 415 
Q 2916 -91 2278 -91 
Q 1894 -91 1617 61 
Q 1341 213 1159 525 
z
M 3116 1747 
Q 3116 2381 2855 2742 
Q 2594 3103 2138 3103 
Q 1681 3103 1420 2742 
Q 1159 2381 1159 1747 
Q 1159 1113 1420 752 
Q 1681 391 2138 391 
Q 2594 391 2855 752 
Q 3116 1113 3116 1747 
z
" transform="scale(0.015625)"/>
     </defs>
     <use xlink:href="#DejaVuSans-53"/>
     <use xlink:href="#DejaVuSans-52" x="63.476562"/>
     <use xlink:href="#DejaVuSans-56" x="127.458984"/>
     <use xlink:href="#DejaVuSans-2d" x="189.992188"/>
     <use xlink:href="#DejaVuSans-6a" x="226.076172"/>
     <use xlink:href="#DejaVuSans-61" x="253.859375"/>
     <use xlink:href="#DejaVuSans-73" x="315.138672"/>
     <use xlink:href="#DejaVuSans-70" x="367.238281"/>
    </g>
   </g>
  </g>
  <g id="axes_4">
   <g id="line2d_4">
    <path d="M 106.680866 162.94426 
L 105.667154 163.715445 
L 105.254535 165.004746 
L 105.247257 165.548018 
L 103.524984 166.56259 
L 99.436838 172.075109 
L 98.95231 173.791237 
L 96.933184 175.997422 
L 94.445462 177.276126 
L 94.047624 178.101759 
L 93.341685 180.446347 
L 93.34662 181.994214 
L 92.53921 183.226667 
L 92.35513 184.021532 
L 91.396234 185.437568 
L 91.573747 185.621652 
L 91.82927 186.180152 
L 91.532414 187.463257 
L 90.011871 189.227414 
L 89.320875 191.661578 
L 88.277705 192.802202 
L 87.690195 193.671008 
L 87.606236 194.618714 
L 88.000039 196.089667 
L 86.783134 198.103843 
L 86.261776 199.292496 
L 86.266891 201.27703 
L 86.542032 203.712292 
L 86.825534 204.600518 
L 86.738116 205.696428 
L 86.957864 206.500958 
L 86.555021 207.897771 
L 86.630844 208.812681 
L 86.572553 210.905879 
L 87.687313 212.770006 
L 87.793801 215.32793 
L 87.599235 218.749452 
L 87.925009 219.799306 
L 88.216375 220.340117 
L 88.985282 220.958035 
L 89.672992 223.031741 
L 89.987301 225.397185 
L 90.932987 226.097265 
L 91.622268 225.934863 
L 91.888533 228.293485 
L 92.424508 229.778075 
L 93.941209 231.029117 
L 94.348896 232.848388 
L 94.140996 233.966781 
L 94.361693 234.945908 
L 94.675324 235.670076 
L 95.476583 236.040269 
L 98.000365 239.395961 
L 98.300172 240.140142 
L 99.580651 240.187505 
L 101.178164 241.128783 
L 102.183732 241.480514 
L 102.85793 242.121287 
L 103.155065 243.005465 
L 104.698911 244.864244 
L 107.135134 245.734033 
L 108.702522 246.159392 
L 109.992646 248.533109 
L 110.567702 249.10323 
L 111.439606 249.715535 
L 113.27001 250.046613 
L 114.713238 250.695064 
L 115.085809 250.534872 
L 115.983391 249.1331 
L 118.193165 249.309452 
L 119.529674 250.263821 
L 123.022867 250.58006 
L 123.76416 250.997243 
L 124.043252 251.300928 
L 124.992351 251.238272 
L 126.009337 251.300561 
L 127.484954 250.91671 
L 128.500069 251.015023 
L 129.632672 251.294626 
L 130.811203 251.738182 
L 131.87237 251.72255 
L 132.96644 251.583628 
L 133.99579 251.648332 
L 136.431206 250.549489 
L 138.449154 251.061756 
L 140.869024 250.963857 
L 143.384614 249.518348 
L 144.725417 249.747565 
L 145.621926 249.936396 
L 149.182498 248.160813 
L 149.355798 248.266055 
L 151.45795 246.566649 
L 153.926266 245.057672 
L 154.522642 245.035387 
L 156.154134 244.709554 
L 158.48214 243.15343 
L 159.1204 243.490106 
L 160.396329 243.179663 
L 162.12522 241.769352 
L 163.047277 239.926853 
L 165.098666 237.653468 
L 165.815832 234.460762 
L 166.164289 233.584603 
L 167.100106 232.357223 
L 167.040538 232.198674 
L 167.667481 231.558767 
L 169.801355 227.836146 
L 169.603514 227.324409 
L 169.719194 226.757124 
L 169.96824 226.122361 
L 169.995679 224.0219 
L 170.783776 220.430076 
L 170.701989 220.093209 
L 171.426774 218.288537 
L 171.289652 217.925459 
L 170.400158 216.483738 
L 170.288383 214.348721 
L 170.068312 213.589196 
L 170.226494 212.53746 
L 171.371568 211.260347 
L 171.826459 209.068143 
L 171.027049 208.068172 
L 170.908408 206.166441 
L 170.40044 205.005763 
L 169.890935 203.136557 
L 169.222148 202.069148 
L 169.291041 201.057484 
L 170.281023 200.511131 
L 170.657742 199.793542 
L 170.615292 197.421591 
L 169.992436 194.940497 
L 168.392687 193.117305 
L 167.353642 191.179724 
L 165.984356 190.268566 
L 164.68217 187.934385 
L 164.247871 185.878516 
L 163.81878 185.560867 
L 160.512105 181.66451 
L 159.813854 181.378966 
L 159.05829 180.390525 
L 158.332471 179.968293 
L 157.665744 179.242607 
L 157.429689 178.280604 
L 156.673823 176.863732 
L 154.644571 175.743477 
L 152.100968 173.682148 
L 151.02878 172.203593 
L 148.387794 171.073458 
L 147.740595 170.002636 
L 146.719307 169.874299 
L 145.058092 169.494441 
L 140.857686 166.284872 
L 139.191381 165.967439 
L 136.526856 164.20888 
L 136.2832 163.870513 
L 135.628252 163.635082 
L 133.681941 164.0434 
L 132.824317 163.529899 
L 132.019121 162.860457 
L 129.74345 161.547843 
L 128.555486 161.514816 
L 125.202624 162.331377 
L 122.773053 162.552884 
L 122.244577 162.182963 
L 120.585149 161.623161 
L 117.758473 161.434469 
L 117.345727 161.002219 
L 115.251663 160.101818 
L 112.320824 160.698216 
L 110.333217 160.811379 
L 110.333217 160.811379 
" clip-path="url(#p5945fabf9e)" style="fill: none; stroke: #1f77b4; stroke-width: 1.5; stroke-linecap: square"/>
   </g>
   <g id="text_4">
    <!-- Linear-control -->
    <g transform="translate(60.336305 149.52) scale(0.2 -0.2)">
     <defs>
      <path id="DejaVuSans-4c" d="M 628 4666 
L 1259 4666 
L 1259 531 
L 3531 531 
L 3531 0 
L 628 0 
L 628 4666 
z
" transform="scale(0.015625)"/>
      <path id="DejaVuSans-69" d="M 603 3500 
L 1178 3500 
L 1178 0 
L 603 0 
L 603 3500 
z
M 603 4863 
L 1178 4863 
L 1178 4134 
L 603 4134 
L 603 4863 
z
" transform="scale(0.015625)"/>
      <path id="DejaVuSans-65" d="M 3597 1894 
L 3597 1613 
L 953 1613 
Q 991 1019 1311 708 
Q 1631 397 2203 397 
Q 2534 397 2845 478 
Q 3156 559 3463 722 
L 3463 178 
Q 3153 47 2828 -22 
Q 2503 -91 2169 -91 
Q 1331 -91 842 396 
Q 353 884 353 1716 
Q 353 2575 817 3079 
Q 1281 3584 2069 3584 
Q 2775 3584 3186 3129 
Q 3597 2675 3597 1894 
z
M 3022 2063 
Q 3016 2534 2758 2815 
Q 2500 3097 2075 3097 
Q 1594 3097 1305 2825 
Q 1016 2553 972 2059 
L 3022 2063 
z
" transform="scale(0.015625)"/>
     </defs>
     <use xlink:href="#DejaVuSans-4c"/>
     <use xlink:href="#DejaVuSans-69" x="55.712891"/>
     <use xlink:href="#DejaVuSans-6e" x="83.496094"/>
     <use xlink:href="#DejaVuSans-65" x="146.875"/>
     <use xlink:href="#DejaVuSans-61" x="208.398438"/>
     <use xlink:href="#DejaVuSans-72" x="269.677734"/>
     <use xlink:href="#DejaVuSans-2d" x="304.416016"/>
     <use xlink:href="#DejaVuSans-63" x="340.5"/>
     <use xlink:href="#DejaVuSans-6f" x="395.480469"/>
     <use xlink:href="#DejaVuSans-6e" x="456.662109"/>
     <use xlink:href="#DejaVuSans-74" x="520.041016"/>
     <use xlink:href="#DejaVuSans-72" x="559.25"/>
     <use xlink:href="#DejaVuSans-6f" x="598.113281"/>
     <use xlink:href="#DejaVuSans-6c" x="659.294922"/>
    </g>
   </g>
  </g>
  <g id="axes_5">
   <g id="line2d_5">
    <path d="M 251.867254 161.02505 
L 251.225491 161.473334 
L 251.55626 164.015145 
L 252.127819 165.068225 
L 252.05296 166.613653 
L 252.18369 168.817244 
L 252.100889 172.596386 
L 252.403492 174.220446 
L 252.4757 176.167681 
L 253.300461 177.878065 
L 253.643545 180.004474 
L 251.941786 182.277938 
L 248.135027 183.271027 
L 247.996574 183.882205 
L 247.744809 185.894478 
L 248.409631 187.851639 
L 247.938026 189.140397 
L 248.0781 189.780811 
L 246.410559 192.015219 
L 246.966677 192.069059 
L 247.309545 192.770189 
L 247.193502 194.26869 
L 245.857509 195.745862 
L 245.789182 198.458477 
L 244.504693 199.531126 
L 243.305239 200.228381 
L 243.053638 201.032349 
L 243.659349 202.400171 
L 242.145054 204.093384 
L 241.86899 204.889498 
L 243.002144 208.749356 
L 243.648894 209.595834 
L 243.287524 210.862848 
L 243.800512 211.692598 
L 242.729836 213.536185 
L 243.08241 214.450179 
L 243.344994 216.258797 
L 244.131356 218.295028 
L 243.82221 219.429276 
L 243.205628 220.732012 
L 242.279707 224.504198 
L 242.583346 226.07056 
L 243.495587 226.785922 
L 244.573372 227.805767 
L 244.432444 229.626207 
L 247.623821 230.185328 
L 247.684516 231.904705 
L 248.180647 232.811352 
L 250.202564 233.52163 
L 250.187693 235.004545 
L 249.543015 236.431552 
L 250.081455 236.842564 
L 250.217125 237.36864 
L 251.605643 237.377875 
L 254.052626 239.147904 
L 253.637593 240.566968 
L 254.743332 240.357319 
L 255.653663 239.943044 
L 257.165031 239.459219 
L 257.826953 240.002786 
L 257.679598 241.20588 
L 258.104416 242.129598 
L 258.666254 243.064905 
L 260.519646 243.651684 
L 262.461881 243.132523 
L 262.709503 244.911134 
L 262.629894 246.77141 
L 262.871869 247.517611 
L 263.56499 247.994979 
L 265.274722 248.484105 
L 267.951994 249.01291 
L 268.226242 248.263276 
L 269.306287 246.833919 
L 271.558881 246.295892 
L 272.512706 247.025633 
L 275.041721 247.578438 
L 275.830114 248.131951 
L 275.887317 249.079039 
L 276.760755 248.899381 
L 277.560864 249.120103 
L 278.311021 249.060095 
L 278.986867 249.212589 
L 279.724506 249.701122 
L 280.542508 250.4766 
L 281.326132 250.710259 
L 282.19762 250.777609 
L 282.752397 251.233986 
L 284.598792 250.62801 
L 286.392817 250.873706 
L 287.689936 251.738182 
L 289.455815 250.739568 
L 291.647359 250.958266 
L 293.690494 249.183396 
L 294.084203 249.393637 
L 294.147257 249.6393 
L 295.244702 248.421176 
L 296.112547 247.885081 
L 297.474148 247.748813 
L 298.199296 247.954095 
L 299.389007 247.415279 
L 300.529547 247.804941 
L 301.292771 247.4896 
L 301.823028 247.646995 
L 302.329711 248.036787 
L 303.405446 248.031111 
L 304.337603 247.23621 
L 306.616697 244.528661 
L 306.367648 243.298785 
L 306.716091 239.757975 
L 306.96024 239.208125 
L 306.684179 239.057932 
L 307.499879 238.183354 
L 309.416377 234.792663 
L 309.136887 234.542391 
L 308.821247 234.450689 
L 308.65274 233.927149 
L 308.576891 233.20007 
L 307.576107 231.753133 
L 307.88603 228.765539 
L 308.129598 228.27985 
L 307.898899 228.033434 
L 309.472619 224.479005 
L 309.054338 224.24726 
L 307.705984 223.75678 
L 307.211751 222.106576 
L 306.726322 221.295543 
L 306.894298 220.708472 
L 308.933868 220.103469 
L 308.925417 215.700832 
L 308.322321 214.52623 
L 307.578547 212.583718 
L 306.609754 211.572779 
L 307.388017 210.415278 
L 308.633282 209.580092 
L 310.395492 209.07566 
L 311.63101 206.886527 
L 311.30664 205.167545 
L 310.369637 204.428218 
L 309.421249 203.822908 
L 308.138813 202.506601 
L 306.134092 201.849736 
L 304.629886 199.985987 
L 304.467308 199.340822 
L 303.232512 199.636448 
L 301.146856 197.697296 
L 299.644138 196.586953 
L 298.668603 196.59203 
L 297.817547 195.872485 
L 297.009638 195.723714 
L 297.088204 195.202355 
L 297.108639 193.984074 
L 296.459808 192.607388 
L 294.327696 191.575676 
L 291.888381 189.467504 
L 291.341178 187.608424 
L 289.234732 187.625257 
L 289.003494 187.502048 
L 289.53956 186.211795 
L 289.328684 185.459188 
L 287.576541 185.96334 
L 286.347951 185.116719 
L 285.697063 184.14923 
L 281.70198 179.926283 
L 279.791639 179.357216 
L 276.970268 176.63978 
L 276.74 175.748127 
L 276.013434 175.426234 
L 274.086774 175.776529 
L 273.0709 174.719565 
L 272.368486 173.0364 
L 270.238411 170.291296 
L 266.070832 170.692185 
L 264.506524 170.149633 
L 263.817469 169.142552 
L 262.121119 167.124559 
L 260.622056 165.887504 
L 259.829701 165.439852 
L 259.206434 164.05032 
L 256.584242 160.911901 
L 255.048419 161.121734 
L 253.920516 160.101818 
L 253.920516 160.101818 
" clip-path="url(#p46a00a40fe)" style="fill: none; stroke: #ff7f0e; stroke-width: 1.5; stroke-linecap: square"/>
   </g>
   <g id="text_5">
    <!-- Linear-cytd -->
    <g transform="translate(221.014062 149.52) scale(0.2 -0.2)">
     <use xlink:href="#DejaVuSans-4c"/>
     <use xlink:href="#DejaVuSans-69" x="55.712891"/>
     <use xlink:href="#DejaVuSans-6e" x="83.496094"/>
     <use xlink:href="#DejaVuSans-65" x="146.875"/>
     <use xlink:href="#DejaVuSans-61" x="208.398438"/>
     <use xlink:href="#DejaVuSans-72" x="269.677734"/>
     <use xlink:href="#DejaVuSans-2d" x="304.416016"/>
     <use xlink:href="#DejaVuSans-63" x="340.5"/>
     <use xlink:href="#DejaVuSans-79" x="395.480469"/>
     <use xlink:href="#DejaVuSans-74" x="454.660156"/>
     <use xlink:href="#DejaVuSans-64" x="493.869141"/>
    </g>
   </g>
  </g>
  <g id="axes_6">
   <g id="line2d_6">
    <path d="M 401.539038 163.208436 
L 400.244425 163.838236 
L 399.97273 165.109309 
L 400.02652 165.530914 
L 399.20579 166.551583 
L 398.453741 167.893232 
L 395.42309 172.601714 
L 395.628378 173.340193 
L 395.370714 174.586047 
L 393.575006 176.604054 
L 391.434091 177.722476 
L 390.820252 180.738426 
L 391.15776 182.528109 
L 390.607139 184.671824 
L 389.081837 186.7426 
L 389.425322 187.466153 
L 389.089503 188.931088 
L 387.920278 190.678698 
L 387.377822 193.660041 
L 385.680487 195.803706 
L 385.534637 196.724523 
L 385.945671 198.129398 
L 384.969259 199.909091 
L 384.808714 201.000004 
L 385.06765 203.222838 
L 385.121569 205.16066 
L 385.286774 206.1726 
L 385.69883 207.09605 
L 385.480879 208.522726 
L 385.718321 209.349313 
L 385.34798 210.469601 
L 385.883658 211.285608 
L 385.855303 213.177858 
L 386.950987 215.001958 
L 386.940795 220.225205 
L 387.124215 221.085115 
L 386.939755 221.820156 
L 387.85621 222.275287 
L 388.389856 224.088791 
L 388.645814 225.998999 
L 389.869412 226.659516 
L 390.541986 227.20097 
L 390.873941 229.670105 
L 391.271401 231.158003 
L 392.748675 232.198878 
L 393.132479 234.103116 
L 392.492248 235.380897 
L 392.979265 236.819056 
L 393.833534 237.027446 
L 395.846964 240.099192 
L 395.834372 240.953233 
L 396.839724 241.201335 
L 398.982549 241.303172 
L 400.294368 241.675739 
L 400.945138 242.581327 
L 401.157416 243.712219 
L 402.286974 246.255609 
L 404.479739 247.16915 
L 407.752972 246.651383 
L 409.358241 249.88217 
L 410.080674 250.461742 
L 412.9892 251.325227 
L 413.373313 251.053084 
L 414.43647 249.404413 
L 416.347138 249.230383 
L 417.396724 250.164254 
L 420.410598 250.356383 
L 421.07058 251.151253 
L 421.298868 251.738182 
L 425.485363 251.166242 
L 426.783401 250.72591 
L 428.023319 250.585059 
L 428.9991 251.048664 
L 429.873751 251.176189 
L 430.92312 250.871358 
L 431.663924 250.921596 
L 434.126804 249.5151 
L 435.650099 249.889282 
L 437.380165 249.862222 
L 439.849923 247.659862 
L 440.583169 247.572581 
L 442.190765 246.593582 
L 444.236009 245.217027 
L 444.808234 245.730566 
L 445.712889 244.564547 
L 449.0398 242.548889 
L 449.686838 242.788452 
L 450.497099 242.594795 
L 451.341881 242.837126 
L 452.68509 241.897964 
L 453.258132 241.653111 
L 453.742498 241.70339 
L 455.042221 241.478069 
L 456.430611 240.308123 
L 457.314475 238.049073 
L 458.681572 236.359771 
L 458.730004 235.621222 
L 460.189886 233.019267 
L 460.358427 232.116997 
L 461.0839 230.900353 
L 460.873007 230.721132 
L 460.711497 230.158281 
L 462.314041 227.42078 
L 461.994058 226.937212 
L 462.16365 226.139761 
L 461.980905 225.749902 
L 461.411767 223.773645 
L 461.537565 221.241124 
L 461.745167 220.680559 
L 462.177724 220.113922 
L 462.674341 218.2886 
L 462.557015 217.915776 
L 461.580744 216.420163 
L 461.393094 214.354254 
L 461.14584 213.630531 
L 462.064281 213.809902 
L 464.098842 213.053383 
L 464.103051 211.135908 
L 463.5922 210.109346 
L 463.381868 208.318552 
L 462.830203 207.10763 
L 462.227188 205.063874 
L 461.164363 203.907621 
L 461.198955 202.865255 
L 462.492954 202.583493 
L 463.107436 201.685815 
L 463.297586 199.739977 
L 462.697969 197.759558 
L 461.694523 196.92387 
L 460.83994 195.991026 
L 459.565142 194.172615 
L 458.278506 192.890935 
L 456.867977 190.741405 
L 456.431208 188.814698 
L 455.655029 188.488266 
L 452.950977 185.295157 
L 452.196367 183.922997 
L 451.531439 183.654219 
L 450.7678 182.567783 
L 450.10577 182.263154 
L 449.50605 181.620478 
L 449.498668 180.622914 
L 448.745887 179.510316 
L 446.715315 178.843255 
L 444.510284 176.785175 
L 443.59198 175.362786 
L 442.002922 174.629631 
L 440.995994 174.374893 
L 440.771632 173.72971 
L 440.431687 173.103356 
L 439.164964 173.251597 
L 437.859008 172.676135 
L 437.352593 172.099005 
L 433.750764 169.348466 
L 432.378605 168.638286 
L 429.805253 166.581182 
L 429.626795 166.110367 
L 428.787551 165.805323 
L 427.154511 165.992038 
L 426.076114 165.313169 
L 425.292451 164.305097 
L 422.621485 162.586872 
L 421.354647 162.528727 
L 418.139299 162.964046 
L 416.044799 162.932892 
L 415.624161 162.592779 
L 413.808153 161.998667 
L 411.350305 161.689919 
L 411.068731 161.218338 
L 408.936624 160.101818 
L 406.006075 161.535032 
L 404.543342 161.05679 
L 404.543342 161.05679 
" clip-path="url(#p0400ee5186)" style="fill: none; stroke: #2ca02c; stroke-width: 1.5; stroke-linecap: square"/>
   </g>
   <g id="text_6">
    <!-- Linear-jasp -->
    <g transform="translate(369.94182 149.52) scale(0.2 -0.2)">
     <use xlink:href="#DejaVuSans-4c"/>
     <use xlink:href="#DejaVuSans-69" x="55.712891"/>
     <use xlink:href="#DejaVuSans-6e" x="83.496094"/>
     <use xlink:href="#DejaVuSans-65" x="146.875"/>
     <use xlink:href="#DejaVuSans-61" x="208.398438"/>
     <use xlink:href="#DejaVuSans-72" x="269.677734"/>
     <use xlink:href="#DejaVuSans-2d" x="304.416016"/>
     <use xlink:href="#DejaVuSans-6a" x="340.5"/>
     <use xlink:href="#DejaVuSans-61" x="368.283203"/>
     <use xlink:href="#DejaVuSans-73" x="429.5625"/>
     <use xlink:href="#DejaVuSans-70" x="481.662109"/>
    </g>
   </g>
  </g>
 </g>
 <defs>
  <clipPath id="pa0557d57f9">
   <rect x="67.5" y="34.56" width="123.088235" height="100.8"/>
  </clipPath>
  <clipPath id="p1b0475cffa">
   <rect x="215.205882" y="34.56" width="123.088235" height="100.8"/>
  </clipPath>
  <clipPath id="p0f811cfd12">
   <rect x="362.911765" y="34.56" width="123.088235" height="100.8"/>
  </clipPath>
  <clipPath id="p5945fabf9e">
   <rect x="67.5" y="155.52" width="123.088235" height="100.8"/>
  </clipPath>
  <clipPath id="p46a00a40fe">
   <rect x="215.205882" y="155.52" width="123.088235" height="100.8"/>
  </clipPath>
  <clipPath id="p0400ee5186">
   <rect x="362.911765" y="155.52" width="123.088235" height="100.8"/>
  </clipPath>
 </defs>
</svg>
