<?xml version="1.0" encoding="utf-8" standalone="no"?>
<!DOCTYPE svg PUBLIC "-//W3C//DTD SVG 1.1//EN"
  "http://www.w3.org/Graphics/SVG/1.1/DTD/svg11.dtd">
<svg xmlns:xlink="http://www.w3.org/1999/xlink" width="576pt" height="288pt" viewBox="0 0 576 288" xmlns="http://www.w3.org/2000/svg" version="1.1">
 <metadata>
  <rdf:RDF xmlns:dc="http://purl.org/dc/elements/1.1/" xmlns:cc="http://creativecommons.org/ns#" xmlns:rdf="http://www.w3.org/1999/02/22-rdf-syntax-ns#">
   <cc:Work>
    <dc:type rdf:resource="http://purl.org/dc/dcmitype/StillImage"/>
    <dc:date>2024-04-21T14:20:02.074528</dc:date>
    <dc:format>image/svg+xml</dc:format>
    <dc:creator>
     <cc:Agent>
      <dc:title>Matplotlib v3.8.4, https://matplotlib.org/</dc:title>
     </cc:Agent>
    </dc:creator>
   </cc:Work>
  </rdf:RDF>
 </metadata>
 <defs>
  <style type="text/css">*{stroke-linejoin: round; stroke-linecap: butt}</style>
 </defs>
 <g id="figure_1">
  <g id="patch_1">
   <path d="M 0 288 
L 576 288 
L 576 0 
L 0 0 
z
" style="fill: #ffffff"/>
  </g>
  <g id="axes_1">
   <g id="patch_2">
    <path d="M 48.074375 260.521875 
L 281.010937 260.521875 
L 281.010937 27.437812 
L 48.074375 27.437812 
z
" style="fill: #ffffff"/>
   </g>
   <g id="patch_3">
    <path d="M 48.074375 260.521875 
L 56.099068 260.521875 
L 56.099068 227.679488 
L 48.074375 227.679488 
z
" clip-path="url(#p9741553a07)" style="fill: #1f77b4; opacity: 0.4"/>
   </g>
   <g id="patch_4">
    <path d="M 56.099068 260.521875 
L 64.12376 260.521875 
L 64.12376 216.732026 
L 56.099068 216.732026 
z
" clip-path="url(#p9741553a07)" style="fill: #1f77b4; opacity: 0.4"/>
   </g>
   <g id="patch_5">
    <path d="M 64.12376 260.521875 
L 72.148453 260.521875 
L 72.148453 238.62695 
L 64.12376 238.62695 
z
" clip-path="url(#p9741553a07)" style="fill: #1f77b4; opacity: 0.4"/>
   </g>
   <g id="patch_6">
    <path d="M 72.148453 260.521875 
L 80.173145 260.521875 
L 80.173145 107.257403 
L 72.148453 107.257403 
z
" clip-path="url(#p9741553a07)" style="fill: #1f77b4; opacity: 0.4"/>
   </g>
   <g id="patch_7">
    <path d="M 80.173145 260.521875 
L 88.197838 260.521875 
L 88.197838 96.309941 
L 80.173145 96.309941 
z
" clip-path="url(#p9741553a07)" style="fill: #1f77b4; opacity: 0.4"/>
   </g>
   <g id="patch_8">
    <path d="M 88.197838 260.521875 
L 96.22253 260.521875 
L 96.22253 205.784564 
L 88.197838 205.784564 
z
" clip-path="url(#p9741553a07)" style="fill: #1f77b4; opacity: 0.4"/>
   </g>
   <g id="patch_9">
    <path d="M 96.22253 260.521875 
L 104.247223 260.521875 
L 104.247223 161.994715 
L 96.22253 161.994715 
z
" clip-path="url(#p9741553a07)" style="fill: #1f77b4; opacity: 0.4"/>
   </g>
   <g id="patch_10">
    <path d="M 104.247223 260.521875 
L 112.271915 260.521875 
L 112.271915 216.732026 
L 104.247223 216.732026 
z
" clip-path="url(#p9741553a07)" style="fill: #1f77b4; opacity: 0.4"/>
   </g>
   <g id="patch_11">
    <path d="M 112.271915 260.521875 
L 120.296608 260.521875 
L 120.296608 161.994715 
L 112.271915 161.994715 
z
" clip-path="url(#p9741553a07)" style="fill: #1f77b4; opacity: 0.4"/>
   </g>
   <g id="patch_12">
    <path d="M 120.296608 260.521875 
L 128.3213 260.521875 
L 128.3213 227.679488 
L 120.296608 227.679488 
z
" clip-path="url(#p9741553a07)" style="fill: #1f77b4; opacity: 0.4"/>
   </g>
   <g id="patch_13">
    <path d="M 128.3213 260.521875 
L 136.345993 260.521875 
L 136.345993 183.889639 
L 128.3213 183.889639 
z
" clip-path="url(#p9741553a07)" style="fill: #1f77b4; opacity: 0.4"/>
   </g>
   <g id="patch_14">
    <path d="M 136.345993 260.521875 
L 144.370685 260.521875 
L 144.370685 227.679488 
L 136.345993 227.679488 
z
" clip-path="url(#p9741553a07)" style="fill: #1f77b4; opacity: 0.4"/>
   </g>
   <g id="patch_15">
    <path d="M 144.370685 260.521875 
L 152.395378 260.521875 
L 152.395378 172.942177 
L 144.370685 172.942177 
z
" clip-path="url(#p9741553a07)" style="fill: #1f77b4; opacity: 0.4"/>
   </g>
   <g id="patch_16">
    <path d="M 152.395378 260.521875 
L 160.42007 260.521875 
L 160.42007 183.889639 
L 152.395378 183.889639 
z
" clip-path="url(#p9741553a07)" style="fill: #1f77b4; opacity: 0.4"/>
   </g>
   <g id="patch_17">
    <path d="M 160.42007 260.521875 
L 168.444763 260.521875 
L 168.444763 194.837101 
L 160.42007 194.837101 
z
" clip-path="url(#p9741553a07)" style="fill: #1f77b4; opacity: 0.4"/>
   </g>
   <g id="patch_18">
    <path d="M 168.444763 260.521875 
L 176.469455 260.521875 
L 176.469455 238.62695 
L 168.444763 238.62695 
z
" clip-path="url(#p9741553a07)" style="fill: #1f77b4; opacity: 0.4"/>
   </g>
   <g id="patch_19">
    <path d="M 176.469455 260.521875 
L 184.494148 260.521875 
L 184.494148 183.889639 
L 176.469455 183.889639 
z
" clip-path="url(#p9741553a07)" style="fill: #1f77b4; opacity: 0.4"/>
   </g>
   <g id="patch_20">
    <path d="M 184.494148 260.521875 
L 192.51884 260.521875 
L 192.51884 227.679488 
L 184.494148 227.679488 
z
" clip-path="url(#p9741553a07)" style="fill: #1f77b4; opacity: 0.4"/>
   </g>
   <g id="patch_21">
    <path d="M 192.51884 260.521875 
L 200.543533 260.521875 
L 200.543533 238.62695 
L 192.51884 238.62695 
z
" clip-path="url(#p9741553a07)" style="fill: #1f77b4; opacity: 0.4"/>
   </g>
   <g id="patch_22">
    <path d="M 200.543533 260.521875 
L 208.568225 260.521875 
L 208.568225 249.574413 
L 200.543533 249.574413 
z
" clip-path="url(#p9741553a07)" style="fill: #1f77b4; opacity: 0.4"/>
   </g>
   <g id="patch_23">
    <path d="M 133.851677 260.521875 
L 140.737308 260.521875 
L 140.737308 205.979479 
L 133.851677 205.979479 
z
" clip-path="url(#p9741553a07)" style="fill: #ff7f0e; opacity: 0.4"/>
   </g>
   <g id="patch_24">
    <path d="M 140.737308 260.521875 
L 147.62294 260.521875 
L 147.62294 169.617882 
L 140.737308 169.617882 
z
" clip-path="url(#p9741553a07)" style="fill: #ff7f0e; opacity: 0.4"/>
   </g>
   <g id="patch_25">
    <path d="M 147.62294 260.521875 
L 154.508571 260.521875 
L 154.508571 242.341076 
L 147.62294 242.341076 
z
" clip-path="url(#p9741553a07)" style="fill: #ff7f0e; opacity: 0.4"/>
   </g>
   <g id="patch_26">
    <path d="M 154.508571 260.521875 
L 161.394203 260.521875 
L 161.394203 224.160278 
L 154.508571 224.160278 
z
" clip-path="url(#p9741553a07)" style="fill: #ff7f0e; opacity: 0.4"/>
   </g>
   <g id="patch_27">
    <path d="M 161.394203 260.521875 
L 168.279834 260.521875 
L 168.279834 151.437084 
L 161.394203 151.437084 
z
" clip-path="url(#p9741553a07)" style="fill: #ff7f0e; opacity: 0.4"/>
   </g>
   <g id="patch_28">
    <path d="M 168.279834 260.521875 
L 175.165465 260.521875 
L 175.165465 133.256285 
L 168.279834 133.256285 
z
" clip-path="url(#p9741553a07)" style="fill: #ff7f0e; opacity: 0.4"/>
   </g>
   <g id="patch_29">
    <path d="M 175.165465 260.521875 
L 182.051097 260.521875 
L 182.051097 133.256285 
L 175.165465 133.256285 
z
" clip-path="url(#p9741553a07)" style="fill: #ff7f0e; opacity: 0.4"/>
   </g>
   <g id="patch_30">
    <path d="M 182.051097 260.521875 
L 188.936728 260.521875 
L 188.936728 96.894688 
L 182.051097 96.894688 
z
" clip-path="url(#p9741553a07)" style="fill: #ff7f0e; opacity: 0.4"/>
   </g>
   <g id="patch_31">
    <path d="M 188.936728 260.521875 
L 195.822359 260.521875 
L 195.822359 169.617882 
L 188.936728 169.617882 
z
" clip-path="url(#p9741553a07)" style="fill: #ff7f0e; opacity: 0.4"/>
   </g>
   <g id="patch_32">
    <path d="M 195.822359 260.521875 
L 202.707991 260.521875 
L 202.707991 187.798681 
L 195.822359 187.798681 
z
" clip-path="url(#p9741553a07)" style="fill: #ff7f0e; opacity: 0.4"/>
   </g>
   <g id="patch_33">
    <path d="M 202.707991 260.521875 
L 209.593622 260.521875 
L 209.593622 169.617882 
L 202.707991 169.617882 
z
" clip-path="url(#p9741553a07)" style="fill: #ff7f0e; opacity: 0.4"/>
   </g>
   <g id="patch_34">
    <path d="M 209.593622 260.521875 
L 216.479254 260.521875 
L 216.479254 169.617882 
L 209.593622 169.617882 
z
" clip-path="url(#p9741553a07)" style="fill: #ff7f0e; opacity: 0.4"/>
   </g>
   <g id="patch_35">
    <path d="M 216.479254 260.521875 
L 223.364885 260.521875 
L 223.364885 242.341076 
L 216.479254 242.341076 
z
" clip-path="url(#p9741553a07)" style="fill: #ff7f0e; opacity: 0.4"/>
   </g>
   <g id="patch_36">
    <path d="M 223.364885 260.521875 
L 230.250516 260.521875 
L 230.250516 151.437084 
L 223.364885 151.437084 
z
" clip-path="url(#p9741553a07)" style="fill: #ff7f0e; opacity: 0.4"/>
   </g>
   <g id="patch_37">
    <path d="M 230.250516 260.521875 
L 237.136148 260.521875 
L 237.136148 260.521875 
L 230.250516 260.521875 
z
" clip-path="url(#p9741553a07)" style="fill: #ff7f0e; opacity: 0.4"/>
   </g>
   <g id="patch_38">
    <path d="M 237.136148 260.521875 
L 244.021779 260.521875 
L 244.021779 205.979479 
L 237.136148 205.979479 
z
" clip-path="url(#p9741553a07)" style="fill: #ff7f0e; opacity: 0.4"/>
   </g>
   <g id="patch_39">
    <path d="M 244.021779 260.521875 
L 250.90741 260.521875 
L 250.90741 242.341076 
L 244.021779 242.341076 
z
" clip-path="url(#p9741553a07)" style="fill: #ff7f0e; opacity: 0.4"/>
   </g>
   <g id="patch_40">
    <path d="M 250.90741 260.521875 
L 257.793042 260.521875 
L 257.793042 169.617882 
L 250.90741 169.617882 
z
" clip-path="url(#p9741553a07)" style="fill: #ff7f0e; opacity: 0.4"/>
   </g>
   <g id="patch_41">
    <path d="M 257.793042 260.521875 
L 264.678673 260.521875 
L 264.678673 205.979479 
L 257.793042 205.979479 
z
" clip-path="url(#p9741553a07)" style="fill: #ff7f0e; opacity: 0.4"/>
   </g>
   <g id="patch_42">
    <path d="M 264.678673 260.521875 
L 271.564305 260.521875 
L 271.564305 224.160278 
L 264.678673 224.160278 
z
" clip-path="url(#p9741553a07)" style="fill: #ff7f0e; opacity: 0.4"/>
   </g>
   <g id="patch_43">
    <path d="M 118.407883 260.521875 
L 123.67133 260.521875 
L 123.67133 197.09764 
L 118.407883 197.09764 
z
" clip-path="url(#p9741553a07)" style="fill: #2ca02c; opacity: 0.4"/>
   </g>
   <g id="patch_44">
    <path d="M 123.67133 260.521875 
L 128.934776 260.521875 
L 128.934776 101.961288 
L 123.67133 101.961288 
z
" clip-path="url(#p9741553a07)" style="fill: #2ca02c; opacity: 0.4"/>
   </g>
   <g id="patch_45">
    <path d="M 128.934776 260.521875 
L 134.198223 260.521875 
L 134.198223 133.673406 
L 128.934776 133.673406 
z
" clip-path="url(#p9741553a07)" style="fill: #2ca02c; opacity: 0.4"/>
   </g>
   <g id="patch_46">
    <path d="M 134.198223 260.521875 
L 139.46167 260.521875 
L 139.46167 38.537054 
L 134.198223 38.537054 
z
" clip-path="url(#p9741553a07)" style="fill: #2ca02c; opacity: 0.4"/>
   </g>
   <g id="patch_47">
    <path d="M 139.46167 260.521875 
L 144.725116 260.521875 
L 144.725116 133.673406 
L 139.46167 133.673406 
z
" clip-path="url(#p9741553a07)" style="fill: #2ca02c; opacity: 0.4"/>
   </g>
   <g id="patch_48">
    <path d="M 144.725116 260.521875 
L 149.988563 260.521875 
L 149.988563 101.961288 
L 144.725116 101.961288 
z
" clip-path="url(#p9741553a07)" style="fill: #2ca02c; opacity: 0.4"/>
   </g>
   <g id="patch_49">
    <path d="M 149.988563 260.521875 
L 155.252009 260.521875 
L 155.252009 70.249171 
L 149.988563 70.249171 
z
" clip-path="url(#p9741553a07)" style="fill: #2ca02c; opacity: 0.4"/>
   </g>
   <g id="patch_50">
    <path d="M 155.252009 260.521875 
L 160.515456 260.521875 
L 160.515456 133.673406 
L 155.252009 133.673406 
z
" clip-path="url(#p9741553a07)" style="fill: #2ca02c; opacity: 0.4"/>
   </g>
   <g id="patch_51">
    <path d="M 160.515456 260.521875 
L 165.778902 260.521875 
L 165.778902 38.537054 
L 160.515456 38.537054 
z
" clip-path="url(#p9741553a07)" style="fill: #2ca02c; opacity: 0.4"/>
   </g>
   <g id="patch_52">
    <path d="M 165.778902 260.521875 
L 171.042349 260.521875 
L 171.042349 165.385523 
L 165.778902 165.385523 
z
" clip-path="url(#p9741553a07)" style="fill: #2ca02c; opacity: 0.4"/>
   </g>
   <g id="patch_53">
    <path d="M 171.042349 260.521875 
L 176.305796 260.521875 
L 176.305796 228.809758 
L 171.042349 228.809758 
z
" clip-path="url(#p9741553a07)" style="fill: #2ca02c; opacity: 0.4"/>
   </g>
   <g id="patch_54">
    <path d="M 176.305796 260.521875 
L 181.569242 260.521875 
L 181.569242 197.09764 
L 176.305796 197.09764 
z
" clip-path="url(#p9741553a07)" style="fill: #2ca02c; opacity: 0.4"/>
   </g>
   <g id="patch_55">
    <path d="M 181.569242 260.521875 
L 186.832689 260.521875 
L 186.832689 165.385523 
L 181.569242 165.385523 
z
" clip-path="url(#p9741553a07)" style="fill: #2ca02c; opacity: 0.4"/>
   </g>
   <g id="patch_56">
    <path d="M 186.832689 260.521875 
L 192.096135 260.521875 
L 192.096135 133.673406 
L 186.832689 133.673406 
z
" clip-path="url(#p9741553a07)" style="fill: #2ca02c; opacity: 0.4"/>
   </g>
   <g id="patch_57">
    <path d="M 192.096135 260.521875 
L 197.359582 260.521875 
L 197.359582 260.521875 
L 192.096135 260.521875 
z
" clip-path="url(#p9741553a07)" style="fill: #2ca02c; opacity: 0.4"/>
   </g>
   <g id="patch_58">
    <path d="M 197.359582 260.521875 
L 202.623028 260.521875 
L 202.623028 260.521875 
L 197.359582 260.521875 
z
" clip-path="url(#p9741553a07)" style="fill: #2ca02c; opacity: 0.4"/>
   </g>
   <g id="patch_59">
    <path d="M 202.623028 260.521875 
L 207.886475 260.521875 
L 207.886475 228.809758 
L 202.623028 228.809758 
z
" clip-path="url(#p9741553a07)" style="fill: #2ca02c; opacity: 0.4"/>
   </g>
   <g id="patch_60">
    <path d="M 207.886475 260.521875 
L 213.149922 260.521875 
L 213.149922 260.521875 
L 207.886475 260.521875 
z
" clip-path="url(#p9741553a07)" style="fill: #2ca02c; opacity: 0.4"/>
   </g>
   <g id="patch_61">
    <path d="M 213.149922 260.521875 
L 218.413368 260.521875 
L 218.413368 228.809758 
L 213.149922 228.809758 
z
" clip-path="url(#p9741553a07)" style="fill: #2ca02c; opacity: 0.4"/>
   </g>
   <g id="patch_62">
    <path d="M 218.413368 260.521875 
L 223.676815 260.521875 
L 223.676815 228.809758 
L 218.413368 228.809758 
z
" clip-path="url(#p9741553a07)" style="fill: #2ca02c; opacity: 0.4"/>
   </g>
   <g id="matplotlib.axis_1">
    <g id="xtick_1">
     <g id="line2d_1">
      <defs>
       <path id="m9fa2219ca7" d="M 0 0 
L 0 3.5 
" style="stroke: #000000; stroke-width: 0.8"/>
      </defs>
      <g>
       <use xlink:href="#m9fa2219ca7" x="100.381037" y="260.521875" style="stroke: #000000; stroke-width: 0.8"/>
      </g>
     </g>
     <g id="text_1">
      <!-- 0.6 -->
      <g transform="translate(92.429475 275.120313) scale(0.1 -0.1)">
       <defs>
        <path id="DejaVuSans-30" d="M 2034 4250 
Q 1547 4250 1301 3770 
Q 1056 3291 1056 2328 
Q 1056 1369 1301 889 
Q 1547 409 2034 409 
Q 2525 409 2770 889 
Q 3016 1369 3016 2328 
Q 3016 3291 2770 3770 
Q 2525 4250 2034 4250 
z
M 2034 4750 
Q 2819 4750 3233 4129 
Q 3647 3509 3647 2328 
Q 3647 1150 3233 529 
Q 2819 -91 2034 -91 
Q 1250 -91 836 529 
Q 422 1150 422 2328 
Q 422 3509 836 4129 
Q 1250 4750 2034 4750 
z
" transform="scale(0.015625)"/>
        <path id="DejaVuSans-2e" d="M 684 794 
L 1344 794 
L 1344 0 
L 684 0 
L 684 794 
z
" transform="scale(0.015625)"/>
        <path id="DejaVuSans-36" d="M 2113 2584 
Q 1688 2584 1439 2293 
Q 1191 2003 1191 1497 
Q 1191 994 1439 701 
Q 1688 409 2113 409 
Q 2538 409 2786 701 
Q 3034 994 3034 1497 
Q 3034 2003 2786 2293 
Q 2538 2584 2113 2584 
z
M 3366 4563 
L 3366 3988 
Q 3128 4100 2886 4159 
Q 2644 4219 2406 4219 
Q 1781 4219 1451 3797 
Q 1122 3375 1075 2522 
Q 1259 2794 1537 2939 
Q 1816 3084 2150 3084 
Q 2853 3084 3261 2657 
Q 3669 2231 3669 1497 
Q 3669 778 3244 343 
Q 2819 -91 2113 -91 
Q 1303 -91 875 529 
Q 447 1150 447 2328 
Q 447 3434 972 4092 
Q 1497 4750 2381 4750 
Q 2619 4750 2861 4703 
Q 3103 4656 3366 4563 
z
" transform="scale(0.015625)"/>
       </defs>
       <use xlink:href="#DejaVuSans-30"/>
       <use xlink:href="#DejaVuSans-2e" x="63.623047"/>
       <use xlink:href="#DejaVuSans-36" x="95.410156"/>
      </g>
     </g>
    </g>
    <g id="xtick_2">
     <g id="line2d_2">
      <g>
       <use xlink:href="#m9fa2219ca7" x="152.689941" y="260.521875" style="stroke: #000000; stroke-width: 0.8"/>
      </g>
     </g>
     <g id="text_2">
      <!-- 0.7 -->
      <g transform="translate(144.738378 275.120313) scale(0.1 -0.1)">
       <defs>
        <path id="DejaVuSans-37" d="M 525 4666 
L 3525 4666 
L 3525 4397 
L 1831 0 
L 1172 0 
L 2766 4134 
L 525 4134 
L 525 4666 
z
" transform="scale(0.015625)"/>
       </defs>
       <use xlink:href="#DejaVuSans-30"/>
       <use xlink:href="#DejaVuSans-2e" x="63.623047"/>
       <use xlink:href="#DejaVuSans-37" x="95.410156"/>
      </g>
     </g>
    </g>
    <g id="xtick_3">
     <g id="line2d_3">
      <g>
       <use xlink:href="#m9fa2219ca7" x="204.998844" y="260.521875" style="stroke: #000000; stroke-width: 0.8"/>
      </g>
     </g>
     <g id="text_3">
      <!-- 0.8 -->
      <g transform="translate(197.047282 275.120313) scale(0.1 -0.1)">
       <defs>
        <path id="DejaVuSans-38" d="M 2034 2216 
Q 1584 2216 1326 1975 
Q 1069 1734 1069 1313 
Q 1069 891 1326 650 
Q 1584 409 2034 409 
Q 2484 409 2743 651 
Q 3003 894 3003 1313 
Q 3003 1734 2745 1975 
Q 2488 2216 2034 2216 
z
M 1403 2484 
Q 997 2584 770 2862 
Q 544 3141 544 3541 
Q 544 4100 942 4425 
Q 1341 4750 2034 4750 
Q 2731 4750 3128 4425 
Q 3525 4100 3525 3541 
Q 3525 3141 3298 2862 
Q 3072 2584 2669 2484 
Q 3125 2378 3379 2068 
Q 3634 1759 3634 1313 
Q 3634 634 3220 271 
Q 2806 -91 2034 -91 
Q 1263 -91 848 271 
Q 434 634 434 1313 
Q 434 1759 690 2068 
Q 947 2378 1403 2484 
z
M 1172 3481 
Q 1172 3119 1398 2916 
Q 1625 2713 2034 2713 
Q 2441 2713 2670 2916 
Q 2900 3119 2900 3481 
Q 2900 3844 2670 4047 
Q 2441 4250 2034 4250 
Q 1625 4250 1398 4047 
Q 1172 3844 1172 3481 
z
" transform="scale(0.015625)"/>
       </defs>
       <use xlink:href="#DejaVuSans-30"/>
       <use xlink:href="#DejaVuSans-2e" x="63.623047"/>
       <use xlink:href="#DejaVuSans-38" x="95.410156"/>
      </g>
     </g>
    </g>
    <g id="xtick_4">
     <g id="line2d_4">
      <g>
       <use xlink:href="#m9fa2219ca7" x="257.307748" y="260.521875" style="stroke: #000000; stroke-width: 0.8"/>
      </g>
     </g>
     <g id="text_4">
      <!-- 0.9 -->
      <g transform="translate(249.356185 275.120313) scale(0.1 -0.1)">
       <defs>
        <path id="DejaVuSans-39" d="M 703 97 
L 703 672 
Q 941 559 1184 500 
Q 1428 441 1663 441 
Q 2288 441 2617 861 
Q 2947 1281 2994 2138 
Q 2813 1869 2534 1725 
Q 2256 1581 1919 1581 
Q 1219 1581 811 2004 
Q 403 2428 403 3163 
Q 403 3881 828 4315 
Q 1253 4750 1959 4750 
Q 2769 4750 3195 4129 
Q 3622 3509 3622 2328 
Q 3622 1225 3098 567 
Q 2575 -91 1691 -91 
Q 1453 -91 1209 -44 
Q 966 3 703 97 
z
M 1959 2075 
Q 2384 2075 2632 2365 
Q 2881 2656 2881 3163 
Q 2881 3666 2632 3958 
Q 2384 4250 1959 4250 
Q 1534 4250 1286 3958 
Q 1038 3666 1038 3163 
Q 1038 2656 1286 2365 
Q 1534 2075 1959 2075 
z
" transform="scale(0.015625)"/>
       </defs>
       <use xlink:href="#DejaVuSans-30"/>
       <use xlink:href="#DejaVuSans-2e" x="63.623047"/>
       <use xlink:href="#DejaVuSans-39" x="95.410156"/>
      </g>
     </g>
    </g>
   </g>
   <g id="matplotlib.axis_2">
    <g id="ytick_1">
     <g id="line2d_5">
      <defs>
       <path id="m555b3c87c6" d="M 0 0 
L -3.5 0 
" style="stroke: #000000; stroke-width: 0.8"/>
      </defs>
      <g>
       <use xlink:href="#m555b3c87c6" x="48.074375" y="260.521875" style="stroke: #000000; stroke-width: 0.8"/>
      </g>
     </g>
     <g id="text_5">
      <!-- 0 -->
      <g transform="translate(34.711875 264.321094) scale(0.1 -0.1)">
       <use xlink:href="#DejaVuSans-30"/>
      </g>
     </g>
    </g>
    <g id="ytick_2">
     <g id="line2d_6">
      <g>
       <use xlink:href="#m555b3c87c6" x="48.074375" y="222.230489" style="stroke: #000000; stroke-width: 0.8"/>
      </g>
     </g>
     <g id="text_6">
      <!-- 2 -->
      <g transform="translate(34.711875 226.029708) scale(0.1 -0.1)">
       <defs>
        <path id="DejaVuSans-32" d="M 1228 531 
L 3431 531 
L 3431 0 
L 469 0 
L 469 531 
Q 828 903 1448 1529 
Q 2069 2156 2228 2338 
Q 2531 2678 2651 2914 
Q 2772 3150 2772 3378 
Q 2772 3750 2511 3984 
Q 2250 4219 1831 4219 
Q 1534 4219 1204 4116 
Q 875 4013 500 3803 
L 500 4441 
Q 881 4594 1212 4672 
Q 1544 4750 1819 4750 
Q 2544 4750 2975 4387 
Q 3406 4025 3406 3419 
Q 3406 3131 3298 2873 
Q 3191 2616 2906 2266 
Q 2828 2175 2409 1742 
Q 1991 1309 1228 531 
z
" transform="scale(0.015625)"/>
       </defs>
       <use xlink:href="#DejaVuSans-32"/>
      </g>
     </g>
    </g>
    <g id="ytick_3">
     <g id="line2d_7">
      <g>
       <use xlink:href="#m555b3c87c6" x="48.074375" y="183.939103" style="stroke: #000000; stroke-width: 0.8"/>
      </g>
     </g>
     <g id="text_7">
      <!-- 4 -->
      <g transform="translate(34.711875 187.738321) scale(0.1 -0.1)">
       <defs>
        <path id="DejaVuSans-34" d="M 2419 4116 
L 825 1625 
L 2419 1625 
L 2419 4116 
z
M 2253 4666 
L 3047 4666 
L 3047 1625 
L 3713 1625 
L 3713 1100 
L 3047 1100 
L 3047 0 
L 2419 0 
L 2419 1100 
L 313 1100 
L 313 1709 
L 2253 4666 
z
" transform="scale(0.015625)"/>
       </defs>
       <use xlink:href="#DejaVuSans-34"/>
      </g>
     </g>
    </g>
    <g id="ytick_4">
     <g id="line2d_8">
      <g>
       <use xlink:href="#m555b3c87c6" x="48.074375" y="145.647716" style="stroke: #000000; stroke-width: 0.8"/>
      </g>
     </g>
     <g id="text_8">
      <!-- 6 -->
      <g transform="translate(34.711875 149.446935) scale(0.1 -0.1)">
       <use xlink:href="#DejaVuSans-36"/>
      </g>
     </g>
    </g>
    <g id="ytick_5">
     <g id="line2d_9">
      <g>
       <use xlink:href="#m555b3c87c6" x="48.074375" y="107.35633" style="stroke: #000000; stroke-width: 0.8"/>
      </g>
     </g>
     <g id="text_9">
      <!-- 8 -->
      <g transform="translate(34.711875 111.155549) scale(0.1 -0.1)">
       <use xlink:href="#DejaVuSans-38"/>
      </g>
     </g>
    </g>
    <g id="ytick_6">
     <g id="line2d_10">
      <g>
       <use xlink:href="#m555b3c87c6" x="48.074375" y="69.064944" style="stroke: #000000; stroke-width: 0.8"/>
      </g>
     </g>
     <g id="text_10">
      <!-- 10 -->
      <g transform="translate(28.349375 72.864163) scale(0.1 -0.1)">
       <defs>
        <path id="DejaVuSans-31" d="M 794 531 
L 1825 531 
L 1825 4091 
L 703 3866 
L 703 4441 
L 1819 4666 
L 2450 4666 
L 2450 531 
L 3481 531 
L 3481 0 
L 794 0 
L 794 531 
z
" transform="scale(0.015625)"/>
       </defs>
       <use xlink:href="#DejaVuSans-31"/>
       <use xlink:href="#DejaVuSans-30" x="63.623047"/>
      </g>
     </g>
    </g>
    <g id="ytick_7">
     <g id="line2d_11">
      <g>
       <use xlink:href="#m555b3c87c6" x="48.074375" y="30.773558" style="stroke: #000000; stroke-width: 0.8"/>
      </g>
     </g>
     <g id="text_11">
      <!-- 12 -->
      <g transform="translate(28.349375 34.572777) scale(0.1 -0.1)">
       <use xlink:href="#DejaVuSans-31"/>
       <use xlink:href="#DejaVuSans-32" x="63.623047"/>
      </g>
     </g>
    </g>
    <g id="text_12">
     <!-- Fraction of cells -->
     <g transform="translate(21.437813 198.811719) rotate(-90) scale(0.14 -0.14)">
      <defs>
       <path id="DejaVuSans-46" d="M 628 4666 
L 3309 4666 
L 3309 4134 
L 1259 4134 
L 1259 2759 
L 3109 2759 
L 3109 2228 
L 1259 2228 
L 1259 0 
L 628 0 
L 628 4666 
z
" transform="scale(0.015625)"/>
       <path id="DejaVuSans-72" d="M 2631 2963 
Q 2534 3019 2420 3045 
Q 2306 3072 2169 3072 
Q 1681 3072 1420 2755 
Q 1159 2438 1159 1844 
L 1159 0 
L 581 0 
L 581 3500 
L 1159 3500 
L 1159 2956 
Q 1341 3275 1631 3429 
Q 1922 3584 2338 3584 
Q 2397 3584 2469 3576 
Q 2541 3569 2628 3553 
L 2631 2963 
z
" transform="scale(0.015625)"/>
       <path id="DejaVuSans-61" d="M 2194 1759 
Q 1497 1759 1228 1600 
Q 959 1441 959 1056 
Q 959 750 1161 570 
Q 1363 391 1709 391 
Q 2188 391 2477 730 
Q 2766 1069 2766 1631 
L 2766 1759 
L 2194 1759 
z
M 3341 1997 
L 3341 0 
L 2766 0 
L 2766 531 
Q 2569 213 2275 61 
Q 1981 -91 1556 -91 
Q 1019 -91 701 211 
Q 384 513 384 1019 
Q 384 1609 779 1909 
Q 1175 2209 1959 2209 
L 2766 2209 
L 2766 2266 
Q 2766 2663 2505 2880 
Q 2244 3097 1772 3097 
Q 1472 3097 1187 3025 
Q 903 2953 641 2809 
L 641 3341 
Q 956 3463 1253 3523 
Q 1550 3584 1831 3584 
Q 2591 3584 2966 3190 
Q 3341 2797 3341 1997 
z
" transform="scale(0.015625)"/>
       <path id="DejaVuSans-63" d="M 3122 3366 
L 3122 2828 
Q 2878 2963 2633 3030 
Q 2388 3097 2138 3097 
Q 1578 3097 1268 2742 
Q 959 2388 959 1747 
Q 959 1106 1268 751 
Q 1578 397 2138 397 
Q 2388 397 2633 464 
Q 2878 531 3122 666 
L 3122 134 
Q 2881 22 2623 -34 
Q 2366 -91 2075 -91 
Q 1284 -91 818 406 
Q 353 903 353 1747 
Q 353 2603 823 3093 
Q 1294 3584 2113 3584 
Q 2378 3584 2631 3529 
Q 2884 3475 3122 3366 
z
" transform="scale(0.015625)"/>
       <path id="DejaVuSans-74" d="M 1172 4494 
L 1172 3500 
L 2356 3500 
L 2356 3053 
L 1172 3053 
L 1172 1153 
Q 1172 725 1289 603 
Q 1406 481 1766 481 
L 2356 481 
L 2356 0 
L 1766 0 
Q 1100 0 847 248 
Q 594 497 594 1153 
L 594 3053 
L 172 3053 
L 172 3500 
L 594 3500 
L 594 4494 
L 1172 4494 
z
" transform="scale(0.015625)"/>
       <path id="DejaVuSans-69" d="M 603 3500 
L 1178 3500 
L 1178 0 
L 603 0 
L 603 3500 
z
M 603 4863 
L 1178 4863 
L 1178 4134 
L 603 4134 
L 603 4863 
z
" transform="scale(0.015625)"/>
       <path id="DejaVuSans-6f" d="M 1959 3097 
Q 1497 3097 1228 2736 
Q 959 2375 959 1747 
Q 959 1119 1226 758 
Q 1494 397 1959 397 
Q 2419 397 2687 759 
Q 2956 1122 2956 1747 
Q 2956 2369 2687 2733 
Q 2419 3097 1959 3097 
z
M 1959 3584 
Q 2709 3584 3137 3096 
Q 3566 2609 3566 1747 
Q 3566 888 3137 398 
Q 2709 -91 1959 -91 
Q 1206 -91 779 398 
Q 353 888 353 1747 
Q 353 2609 779 3096 
Q 1206 3584 1959 3584 
z
" transform="scale(0.015625)"/>
       <path id="DejaVuSans-6e" d="M 3513 2113 
L 3513 0 
L 2938 0 
L 2938 2094 
Q 2938 2591 2744 2837 
Q 2550 3084 2163 3084 
Q 1697 3084 1428 2787 
Q 1159 2491 1159 1978 
L 1159 0 
L 581 0 
L 581 3500 
L 1159 3500 
L 1159 2956 
Q 1366 3272 1645 3428 
Q 1925 3584 2291 3584 
Q 2894 3584 3203 3211 
Q 3513 2838 3513 2113 
z
" transform="scale(0.015625)"/>
       <path id="DejaVuSans-20" transform="scale(0.015625)"/>
       <path id="DejaVuSans-66" d="M 2375 4863 
L 2375 4384 
L 1825 4384 
Q 1516 4384 1395 4259 
Q 1275 4134 1275 3809 
L 1275 3500 
L 2222 3500 
L 2222 3053 
L 1275 3053 
L 1275 0 
L 697 0 
L 697 3053 
L 147 3053 
L 147 3500 
L 697 3500 
L 697 3744 
Q 697 4328 969 4595 
Q 1241 4863 1831 4863 
L 2375 4863 
z
" transform="scale(0.015625)"/>
       <path id="DejaVuSans-65" d="M 3597 1894 
L 3597 1613 
L 953 1613 
Q 991 1019 1311 708 
Q 1631 397 2203 397 
Q 2534 397 2845 478 
Q 3156 559 3463 722 
L 3463 178 
Q 3153 47 2828 -22 
Q 2503 -91 2169 -91 
Q 1331 -91 842 396 
Q 353 884 353 1716 
Q 353 2575 817 3079 
Q 1281 3584 2069 3584 
Q 2775 3584 3186 3129 
Q 3597 2675 3597 1894 
z
M 3022 2063 
Q 3016 2534 2758 2815 
Q 2500 3097 2075 3097 
Q 1594 3097 1305 2825 
Q 1016 2553 972 2059 
L 3022 2063 
z
" transform="scale(0.015625)"/>
       <path id="DejaVuSans-6c" d="M 603 4863 
L 1178 4863 
L 1178 0 
L 603 0 
L 603 4863 
z
" transform="scale(0.015625)"/>
       <path id="DejaVuSans-73" d="M 2834 3397 
L 2834 2853 
Q 2591 2978 2328 3040 
Q 2066 3103 1784 3103 
Q 1356 3103 1142 2972 
Q 928 2841 928 2578 
Q 928 2378 1081 2264 
Q 1234 2150 1697 2047 
L 1894 2003 
Q 2506 1872 2764 1633 
Q 3022 1394 3022 966 
Q 3022 478 2636 193 
Q 2250 -91 1575 -91 
Q 1294 -91 989 -36 
Q 684 19 347 128 
L 347 722 
Q 666 556 975 473 
Q 1284 391 1588 391 
Q 1994 391 2212 530 
Q 2431 669 2431 922 
Q 2431 1156 2273 1281 
Q 2116 1406 1581 1522 
L 1381 1569 
Q 847 1681 609 1914 
Q 372 2147 372 2553 
Q 372 3047 722 3315 
Q 1072 3584 1716 3584 
Q 2034 3584 2315 3537 
Q 2597 3491 2834 3397 
z
" transform="scale(0.015625)"/>
      </defs>
      <use xlink:href="#DejaVuSans-46"/>
      <use xlink:href="#DejaVuSans-72" x="50.269531"/>
      <use xlink:href="#DejaVuSans-61" x="91.382812"/>
      <use xlink:href="#DejaVuSans-63" x="152.662109"/>
      <use xlink:href="#DejaVuSans-74" x="207.642578"/>
      <use xlink:href="#DejaVuSans-69" x="246.851562"/>
      <use xlink:href="#DejaVuSans-6f" x="274.634766"/>
      <use xlink:href="#DejaVuSans-6e" x="335.816406"/>
      <use xlink:href="#DejaVuSans-20" x="399.195312"/>
      <use xlink:href="#DejaVuSans-6f" x="430.982422"/>
      <use xlink:href="#DejaVuSans-66" x="492.164062"/>
      <use xlink:href="#DejaVuSans-20" x="527.369141"/>
      <use xlink:href="#DejaVuSans-63" x="559.15625"/>
      <use xlink:href="#DejaVuSans-65" x="614.136719"/>
      <use xlink:href="#DejaVuSans-6c" x="675.660156"/>
      <use xlink:href="#DejaVuSans-6c" x="703.443359"/>
      <use xlink:href="#DejaVuSans-73" x="731.226562"/>
     </g>
    </g>
   </g>
   <g id="line2d_12">
    <path d="M 47.941296 236.741429 
L 50.296374 232.429009 
L 52.651452 227.670839 
L 55.268206 221.889285 
L 58.40831 214.352456 
L 62.333441 204.289808 
L 68.875324 187.466811 
L 71.492078 181.386469 
L 73.585481 177.043737 
L 75.417208 173.723196 
L 76.98726 171.28562 
L 78.557313 169.259699 
L 79.865689 167.902636 
L 81.174066 166.855059 
L 82.482443 166.119229 
L 83.529144 165.753085 
L 84.575846 165.580468 
L 85.622547 165.595212 
L 86.930924 165.864545 
L 88.239301 166.393986 
L 89.547677 167.159971 
L 91.11773 168.353761 
L 92.949457 170.061456 
L 95.04286 172.325706 
L 98.182964 176.085234 
L 103.939822 183.004793 
L 106.556576 185.795721 
L 108.911654 188.011464 
L 111.266732 189.920158 
L 113.62181 191.519418 
L 115.976888 192.822488 
L 118.331967 193.851702 
L 120.687045 194.633153 
L 123.042123 195.193176 
L 125.658876 195.586182 
L 128.537305 195.778115 
L 131.67741 195.753791 
L 135.864215 195.467505 
L 142.92945 194.951364 
L 145.807879 194.992739 
L 148.162957 195.231018 
L 150.518035 195.693581 
L 152.873113 196.403633 
L 155.228192 197.368541 
L 157.58327 198.579726 
L 160.200023 200.186597 
L 163.078452 202.219058 
L 166.741907 205.102786 
L 171.452064 209.120562 
L 176.947246 214.103549 
L 181.657402 218.66843 
L 185.844208 223.035579 
L 190.292689 228.009722 
L 204.423158 244.144139 
L 207.563263 247.21245 
L 210.441692 249.718071 
L 213.058445 251.720618 
L 215.675199 253.45718 
L 218.291952 254.935362 
L 220.908706 256.171151 
L 223.787135 257.276549 
L 226.665564 258.148241 
L 229.805668 258.873595 
L 233.469123 259.479385 
L 237.655928 259.931972 
L 242.889436 260.252972 
L 249.95467 260.440988 
L 262.776763 260.516051 
L 281.094037 260.521829 
L 281.094037 260.521829 
" clip-path="url(#p9741553a07)" style="fill: none; stroke: #1f77b4; stroke-width: 1.5; stroke-linecap: square"/>
   </g>
   <g id="line2d_13">
    <path d="M 47.941296 260.521875 
L 91.379405 260.411296 
L 97.136263 260.167294 
L 101.061393 259.796049 
L 104.201497 259.291051 
L 106.818251 258.667357 
L 109.173329 257.901283 
L 111.528407 256.898178 
L 113.62181 255.774367 
L 115.715213 254.404742 
L 117.808616 252.767991 
L 119.902019 250.84981 
L 121.995421 248.64481 
L 124.3505 245.827792 
L 126.967253 242.30808 
L 129.845682 238.026246 
L 133.247462 232.540336 
L 137.957618 224.482219 
L 145.546203 211.024987 
L 150.518035 201.831834 
L 154.443166 194.125665 
L 158.368296 185.923976 
L 169.620336 161.959099 
L 171.713739 158.205075 
L 173.545466 155.324388 
L 175.115519 153.210447 
L 176.685571 151.463182 
L 177.993948 150.308107 
L 179.302324 149.439402 
L 180.610701 148.864058 
L 181.657402 148.616564 
L 182.704104 148.557035 
L 183.750805 148.682289 
L 185.059182 149.090816 
L 186.367559 149.7663 
L 187.675936 150.691239 
L 189.245988 152.101146 
L 191.077715 154.10825 
L 193.171118 156.794329 
L 195.787872 160.584304 
L 199.451327 166.347751 
L 207.301587 178.781538 
L 211.226718 184.537638 
L 215.151848 189.90817 
L 219.076978 194.91757 
L 222.740433 199.264156 
L 226.142213 202.96377 
L 229.020642 205.774177 
L 231.637395 208.017325 
L 233.992474 209.745953 
L 236.347552 211.180888 
L 238.440955 212.210755 
L 240.796033 213.115737 
L 243.412786 213.86712 
L 247.599592 214.783931 
L 251.001372 215.619714 
L 253.35645 216.435072 
L 255.449853 217.413015 
L 257.28158 218.506454 
L 259.113308 219.844566 
L 260.945035 221.435473 
L 263.038438 223.555509 
L 265.393516 226.289087 
L 268.01027 229.674811 
L 271.9354 235.159603 
L 277.430582 242.806002 
L 280.309011 246.433453 
L 281.094037 247.353239 
L 281.094037 247.353239 
" clip-path="url(#p9741553a07)" style="fill: none; stroke: #ff7f0e; stroke-width: 1.5; stroke-linecap: square"/>
   </g>
   <g id="line2d_14">
    <path d="M 47.941296 260.521875 
L 85.884222 260.414714 
L 89.809353 260.172217 
L 92.426106 259.805251 
L 94.519509 259.299129 
L 96.351237 258.62493 
L 97.921289 257.814416 
L 99.491341 256.729087 
L 100.799718 255.568739 
L 102.108095 254.133571 
L 103.416471 252.382725 
L 104.724848 250.275539 
L 106.033225 247.773187 
L 107.341602 244.840494 
L 108.911654 240.712022 
L 110.481706 235.884926 
L 112.051758 230.342211 
L 113.883485 222.980844 
L 115.715213 214.708473 
L 117.808616 204.27188 
L 120.425369 190.092291 
L 129.322331 140.69801 
L 131.415734 130.810479 
L 133.247462 123.213888 
L 134.817514 117.594811 
L 136.387566 112.857264 
L 137.695943 109.600181 
L 139.00432 106.968119 
L 140.051021 105.300412 
L 141.097722 104.004975 
L 142.144424 103.060661 
L 143.191125 102.442094 
L 144.237827 102.120736 
L 145.284528 102.06613 
L 146.33123 102.24726 
L 147.377931 102.633972 
L 148.686308 103.364261 
L 150.25636 104.542791 
L 151.826412 105.99769 
L 153.658139 108.00807 
L 155.489867 110.36245 
L 157.321594 113.111411 
L 158.891647 115.839489 
L 160.461699 118.96281 
L 162.293426 123.153264 
L 164.125154 127.944279 
L 166.218557 134.092349 
L 168.83531 142.522575 
L 175.377194 163.943638 
L 177.993948 171.530097 
L 180.610701 178.432883 
L 189.507663 201.198614 
L 198.404625 225.583153 
L 200.236353 229.704806 
L 202.06808 233.251214 
L 203.638132 235.809821 
L 205.208184 237.936439 
L 206.778237 239.667698 
L 208.348289 241.057906 
L 209.918341 242.172074 
L 211.750068 243.2151 
L 214.366822 244.424144 
L 220.12368 246.987538 
L 223.002109 248.554163 
L 226.403888 250.684921 
L 234.254149 255.753275 
L 236.870902 257.125737 
L 239.225981 258.132085 
L 241.581059 258.914493 
L 244.197812 259.54225 
L 247.076241 259.991 
L 250.478021 260.287533 
L 255.188177 260.458206 
L 264.346815 260.519042 
L 281.094037 260.521874 
L 281.094037 260.521874 
" clip-path="url(#p9741553a07)" style="fill: none; stroke: #2ca02c; stroke-width: 1.5; stroke-linecap: square"/>
   </g>
   <g id="patch_63">
    <path d="M 48.074375 260.521875 
L 48.074375 27.437812 
" style="fill: none; stroke: #000000; stroke-width: 0.8; stroke-linejoin: miter; stroke-linecap: square"/>
   </g>
   <g id="patch_64">
    <path d="M 281.010937 260.521875 
L 281.010937 27.437812 
" style="fill: none; stroke: #000000; stroke-width: 0.8; stroke-linejoin: miter; stroke-linecap: square"/>
   </g>
   <g id="patch_65">
    <path d="M 48.074375 260.521875 
L 281.010937 260.521875 
" style="fill: none; stroke: #000000; stroke-width: 0.8; stroke-linejoin: miter; stroke-linecap: square"/>
   </g>
   <g id="patch_66">
    <path d="M 48.074375 27.437812 
L 281.010937 27.437812 
" style="fill: none; stroke: #000000; stroke-width: 0.8; stroke-linejoin: miter; stroke-linecap: square"/>
   </g>
   <g id="text_13">
    <!-- SRV -->
    <g transform="translate(150.831406 21.437813) scale(0.14 -0.14)">
     <defs>
      <path id="DejaVuSans-53" d="M 3425 4513 
L 3425 3897 
Q 3066 4069 2747 4153 
Q 2428 4238 2131 4238 
Q 1616 4238 1336 4038 
Q 1056 3838 1056 3469 
Q 1056 3159 1242 3001 
Q 1428 2844 1947 2747 
L 2328 2669 
Q 3034 2534 3370 2195 
Q 3706 1856 3706 1288 
Q 3706 609 3251 259 
Q 2797 -91 1919 -91 
Q 1588 -91 1214 -16 
Q 841 59 441 206 
L 441 856 
Q 825 641 1194 531 
Q 1563 422 1919 422 
Q 2459 422 2753 634 
Q 3047 847 3047 1241 
Q 3047 1584 2836 1778 
Q 2625 1972 2144 2069 
L 1759 2144 
Q 1053 2284 737 2584 
Q 422 2884 422 3419 
Q 422 4038 858 4394 
Q 1294 4750 2059 4750 
Q 2388 4750 2728 4690 
Q 3069 4631 3425 4513 
z
" transform="scale(0.015625)"/>
      <path id="DejaVuSans-52" d="M 2841 2188 
Q 3044 2119 3236 1894 
Q 3428 1669 3622 1275 
L 4263 0 
L 3584 0 
L 2988 1197 
Q 2756 1666 2539 1819 
Q 2322 1972 1947 1972 
L 1259 1972 
L 1259 0 
L 628 0 
L 628 4666 
L 2053 4666 
Q 2853 4666 3247 4331 
Q 3641 3997 3641 3322 
Q 3641 2881 3436 2590 
Q 3231 2300 2841 2188 
z
M 1259 4147 
L 1259 2491 
L 2053 2491 
Q 2509 2491 2742 2702 
Q 2975 2913 2975 3322 
Q 2975 3731 2742 3939 
Q 2509 4147 2053 4147 
L 1259 4147 
z
" transform="scale(0.015625)"/>
      <path id="DejaVuSans-56" d="M 1831 0 
L 50 4666 
L 709 4666 
L 2188 738 
L 3669 4666 
L 4325 4666 
L 2547 0 
L 1831 0 
z
" transform="scale(0.015625)"/>
     </defs>
     <use xlink:href="#DejaVuSans-53"/>
     <use xlink:href="#DejaVuSans-52" x="63.476562"/>
     <use xlink:href="#DejaVuSans-56" x="127.458984"/>
    </g>
   </g>
   <g id="legend_1">
    <g id="patch_67">
     <path d="M 192.621562 89.879062 
L 272.610937 89.879062 
Q 275.010937 89.879062 275.010937 87.479062 
L 275.010937 35.837812 
Q 275.010937 33.437812 272.610937 33.437812 
L 192.621562 33.437812 
Q 190.221562 33.437812 190.221562 35.837812 
L 190.221562 87.479062 
Q 190.221562 89.879062 192.621562 89.879062 
z
" style="fill: #ffffff; opacity: 0.8; stroke: #cccccc; stroke-linejoin: miter"/>
    </g>
    <g id="patch_68">
     <path d="M 195.021562 47.355937 
L 219.021562 47.355937 
L 219.021562 38.955937 
L 195.021562 38.955937 
z
" style="fill: #1f77b4; opacity: 0.4"/>
    </g>
    <g id="text_14">
     <!-- control -->
     <g transform="translate(228.621562 47.355937) scale(0.12 -0.12)">
      <use xlink:href="#DejaVuSans-63"/>
      <use xlink:href="#DejaVuSans-6f" x="54.980469"/>
      <use xlink:href="#DejaVuSans-6e" x="116.162109"/>
      <use xlink:href="#DejaVuSans-74" x="179.541016"/>
      <use xlink:href="#DejaVuSans-72" x="218.75"/>
      <use xlink:href="#DejaVuSans-6f" x="257.613281"/>
      <use xlink:href="#DejaVuSans-6c" x="318.794922"/>
     </g>
    </g>
    <g id="patch_69">
     <path d="M 195.021562 64.969687 
L 219.021562 64.969687 
L 219.021562 56.569687 
L 195.021562 56.569687 
z
" style="fill: #ff7f0e; opacity: 0.4"/>
    </g>
    <g id="text_15">
     <!-- cytd -->
     <g transform="translate(228.621562 64.969687) scale(0.12 -0.12)">
      <defs>
       <path id="DejaVuSans-79" d="M 2059 -325 
Q 1816 -950 1584 -1140 
Q 1353 -1331 966 -1331 
L 506 -1331 
L 506 -850 
L 844 -850 
Q 1081 -850 1212 -737 
Q 1344 -625 1503 -206 
L 1606 56 
L 191 3500 
L 800 3500 
L 1894 763 
L 2988 3500 
L 3597 3500 
L 2059 -325 
z
" transform="scale(0.015625)"/>
       <path id="DejaVuSans-64" d="M 2906 2969 
L 2906 4863 
L 3481 4863 
L 3481 0 
L 2906 0 
L 2906 525 
Q 2725 213 2448 61 
Q 2172 -91 1784 -91 
Q 1150 -91 751 415 
Q 353 922 353 1747 
Q 353 2572 751 3078 
Q 1150 3584 1784 3584 
Q 2172 3584 2448 3432 
Q 2725 3281 2906 2969 
z
M 947 1747 
Q 947 1113 1208 752 
Q 1469 391 1925 391 
Q 2381 391 2643 752 
Q 2906 1113 2906 1747 
Q 2906 2381 2643 2742 
Q 2381 3103 1925 3103 
Q 1469 3103 1208 2742 
Q 947 2381 947 1747 
z
" transform="scale(0.015625)"/>
      </defs>
      <use xlink:href="#DejaVuSans-63"/>
      <use xlink:href="#DejaVuSans-79" x="54.980469"/>
      <use xlink:href="#DejaVuSans-74" x="114.160156"/>
      <use xlink:href="#DejaVuSans-64" x="153.369141"/>
     </g>
    </g>
    <g id="patch_70">
     <path d="M 195.021562 82.583437 
L 219.021562 82.583437 
L 219.021562 74.183437 
L 195.021562 74.183437 
z
" style="fill: #2ca02c; opacity: 0.4"/>
    </g>
    <g id="text_16">
     <!-- jasp -->
     <g transform="translate(228.621562 82.583437) scale(0.12 -0.12)">
      <defs>
       <path id="DejaVuSans-6a" d="M 603 3500 
L 1178 3500 
L 1178 -63 
Q 1178 -731 923 -1031 
Q 669 -1331 103 -1331 
L -116 -1331 
L -116 -844 
L 38 -844 
Q 366 -844 484 -692 
Q 603 -541 603 -63 
L 603 3500 
z
M 603 4863 
L 1178 4863 
L 1178 4134 
L 603 4134 
L 603 4863 
z
" transform="scale(0.015625)"/>
       <path id="DejaVuSans-70" d="M 1159 525 
L 1159 -1331 
L 581 -1331 
L 581 3500 
L 1159 3500 
L 1159 2969 
Q 1341 3281 1617 3432 
Q 1894 3584 2278 3584 
Q 2916 3584 3314 3078 
Q 3713 2572 3713 1747 
Q 3713 922 3314 415 
Q 2916 -91 2278 -91 
Q 1894 -91 1617 61 
Q 1341 213 1159 525 
z
M 3116 1747 
Q 3116 2381 2855 2742 
Q 2594 3103 2138 3103 
Q 1681 3103 1420 2742 
Q 1159 2381 1159 1747 
Q 1159 1113 1420 752 
Q 1681 391 2138 391 
Q 2594 391 2855 752 
Q 3116 1113 3116 1747 
z
" transform="scale(0.015625)"/>
      </defs>
      <use xlink:href="#DejaVuSans-6a"/>
      <use xlink:href="#DejaVuSans-61" x="27.783203"/>
      <use xlink:href="#DejaVuSans-73" x="89.0625"/>
      <use xlink:href="#DejaVuSans-70" x="141.162109"/>
     </g>
    </g>
   </g>
  </g>
  <g id="axes_2">
   <g id="patch_71">
    <path d="M 332.263437 260.521875 
L 565.2 260.521875 
L 565.2 27.437812 
L 332.263437 27.437812 
z
" style="fill: #ffffff"/>
   </g>
   <g id="patch_72">
    <path d="M 374.889706 260.521875 
L 383.027906 260.521875 
L 383.027906 218.899721 
L 374.889706 218.899721 
z
" clip-path="url(#p6711145245)" style="fill: #1f77b4; opacity: 0.4"/>
   </g>
   <g id="patch_73">
    <path d="M 383.027906 260.521875 
L 391.166107 260.521875 
L 391.166107 218.899721 
L 383.027906 218.899721 
z
" clip-path="url(#p6711145245)" style="fill: #1f77b4; opacity: 0.4"/>
   </g>
   <g id="patch_74">
    <path d="M 391.166107 260.521875 
L 399.304308 260.521875 
L 399.304308 246.647824 
L 391.166107 246.647824 
z
" clip-path="url(#p6711145245)" style="fill: #1f77b4; opacity: 0.4"/>
   </g>
   <g id="patch_75">
    <path d="M 399.304308 260.521875 
L 407.442508 260.521875 
L 407.442508 177.277567 
L 399.304308 177.277567 
z
" clip-path="url(#p6711145245)" style="fill: #1f77b4; opacity: 0.4"/>
   </g>
   <g id="patch_76">
    <path d="M 407.442508 260.521875 
L 415.580709 260.521875 
L 415.580709 205.02567 
L 407.442508 205.02567 
z
" clip-path="url(#p6711145245)" style="fill: #1f77b4; opacity: 0.4"/>
   </g>
   <g id="patch_77">
    <path d="M 415.580709 260.521875 
L 423.71891 260.521875 
L 423.71891 163.403516 
L 415.580709 163.403516 
z
" clip-path="url(#p6711145245)" style="fill: #1f77b4; opacity: 0.4"/>
   </g>
   <g id="patch_78">
    <path d="M 423.71891 260.521875 
L 431.857111 260.521875 
L 431.857111 163.403516 
L 423.71891 163.403516 
z
" clip-path="url(#p6711145245)" style="fill: #1f77b4; opacity: 0.4"/>
   </g>
   <g id="patch_79">
    <path d="M 431.857111 260.521875 
L 439.995311 260.521875 
L 439.995311 121.781362 
L 431.857111 121.781362 
z
" clip-path="url(#p6711145245)" style="fill: #1f77b4; opacity: 0.4"/>
   </g>
   <g id="patch_80">
    <path d="M 439.995311 260.521875 
L 448.133512 260.521875 
L 448.133512 149.529464 
L 439.995311 149.529464 
z
" clip-path="url(#p6711145245)" style="fill: #1f77b4; opacity: 0.4"/>
   </g>
   <g id="patch_81">
    <path d="M 448.133512 260.521875 
L 456.271713 260.521875 
L 456.271713 38.537054 
L 448.133512 38.537054 
z
" clip-path="url(#p6711145245)" style="fill: #1f77b4; opacity: 0.4"/>
   </g>
   <g id="patch_82">
    <path d="M 456.271713 260.521875 
L 464.409913 260.521875 
L 464.409913 94.033259 
L 456.271713 94.033259 
z
" clip-path="url(#p6711145245)" style="fill: #1f77b4; opacity: 0.4"/>
   </g>
   <g id="patch_83">
    <path d="M 464.409913 260.521875 
L 472.548114 260.521875 
L 472.548114 121.781362 
L 464.409913 121.781362 
z
" clip-path="url(#p6711145245)" style="fill: #1f77b4; opacity: 0.4"/>
   </g>
   <g id="patch_84">
    <path d="M 472.548114 260.521875 
L 480.686315 260.521875 
L 480.686315 163.403516 
L 472.548114 163.403516 
z
" clip-path="url(#p6711145245)" style="fill: #1f77b4; opacity: 0.4"/>
   </g>
   <g id="patch_85">
    <path d="M 480.686315 260.521875 
L 488.824516 260.521875 
L 488.824516 149.529464 
L 480.686315 149.529464 
z
" clip-path="url(#p6711145245)" style="fill: #1f77b4; opacity: 0.4"/>
   </g>
   <g id="patch_86">
    <path d="M 488.824516 260.521875 
L 496.962716 260.521875 
L 496.962716 218.899721 
L 488.824516 218.899721 
z
" clip-path="url(#p6711145245)" style="fill: #1f77b4; opacity: 0.4"/>
   </g>
   <g id="patch_87">
    <path d="M 496.962716 260.521875 
L 505.100917 260.521875 
L 505.100917 191.151618 
L 496.962716 191.151618 
z
" clip-path="url(#p6711145245)" style="fill: #1f77b4; opacity: 0.4"/>
   </g>
   <g id="patch_88">
    <path d="M 505.100917 260.521875 
L 513.239118 260.521875 
L 513.239118 246.647824 
L 505.100917 246.647824 
z
" clip-path="url(#p6711145245)" style="fill: #1f77b4; opacity: 0.4"/>
   </g>
   <g id="patch_89">
    <path d="M 513.239118 260.521875 
L 521.377318 260.521875 
L 521.377318 246.647824 
L 513.239118 246.647824 
z
" clip-path="url(#p6711145245)" style="fill: #1f77b4; opacity: 0.4"/>
   </g>
   <g id="patch_90">
    <path d="M 521.377318 260.521875 
L 529.515519 260.521875 
L 529.515519 246.647824 
L 521.377318 246.647824 
z
" clip-path="url(#p6711145245)" style="fill: #1f77b4; opacity: 0.4"/>
   </g>
   <g id="patch_91">
    <path d="M 529.515519 260.521875 
L 537.65372 260.521875 
L 537.65372 246.647824 
L 529.515519 246.647824 
z
" clip-path="url(#p6711145245)" style="fill: #1f77b4; opacity: 0.4"/>
   </g>
   <g id="patch_92">
    <path d="M 333.683418 260.521875 
L 343.343246 260.521875 
L 343.343246 210.553131 
L 333.683418 210.553131 
z
" clip-path="url(#p6711145245)" style="fill: #ff7f0e; opacity: 0.4"/>
   </g>
   <g id="patch_93">
    <path d="M 343.343246 260.521875 
L 353.003074 260.521875 
L 353.003074 160.584388 
L 343.343246 160.584388 
z
" clip-path="url(#p6711145245)" style="fill: #ff7f0e; opacity: 0.4"/>
   </g>
   <g id="patch_94">
    <path d="M 353.003074 260.521875 
L 362.662902 260.521875 
L 362.662902 193.896884 
L 353.003074 193.896884 
z
" clip-path="url(#p6711145245)" style="fill: #ff7f0e; opacity: 0.4"/>
   </g>
   <g id="patch_95">
    <path d="M 362.662902 260.521875 
L 372.322729 260.521875 
L 372.322729 60.646901 
L 362.662902 60.646901 
z
" clip-path="url(#p6711145245)" style="fill: #ff7f0e; opacity: 0.4"/>
   </g>
   <g id="patch_96">
    <path d="M 372.322729 260.521875 
L 381.982557 260.521875 
L 381.982557 110.615644 
L 372.322729 110.615644 
z
" clip-path="url(#p6711145245)" style="fill: #ff7f0e; opacity: 0.4"/>
   </g>
   <g id="patch_97">
    <path d="M 381.982557 260.521875 
L 391.642385 260.521875 
L 391.642385 210.553131 
L 381.982557 210.553131 
z
" clip-path="url(#p6711145245)" style="fill: #ff7f0e; opacity: 0.4"/>
   </g>
   <g id="patch_98">
    <path d="M 391.642385 260.521875 
L 401.302213 260.521875 
L 401.302213 143.92814 
L 391.642385 143.92814 
z
" clip-path="url(#p6711145245)" style="fill: #ff7f0e; opacity: 0.4"/>
   </g>
   <g id="patch_99">
    <path d="M 401.302213 260.521875 
L 410.962041 260.521875 
L 410.962041 227.209379 
L 401.302213 227.209379 
z
" clip-path="url(#p6711145245)" style="fill: #ff7f0e; opacity: 0.4"/>
   </g>
   <g id="patch_100">
    <path d="M 410.962041 260.521875 
L 420.621868 260.521875 
L 420.621868 210.553131 
L 410.962041 210.553131 
z
" clip-path="url(#p6711145245)" style="fill: #ff7f0e; opacity: 0.4"/>
   </g>
   <g id="patch_101">
    <path d="M 420.621868 260.521875 
L 430.281696 260.521875 
L 430.281696 160.584388 
L 420.621868 160.584388 
z
" clip-path="url(#p6711145245)" style="fill: #ff7f0e; opacity: 0.4"/>
   </g>
   <g id="patch_102">
    <path d="M 430.281696 260.521875 
L 439.941524 260.521875 
L 439.941524 227.209379 
L 430.281696 227.209379 
z
" clip-path="url(#p6711145245)" style="fill: #ff7f0e; opacity: 0.4"/>
   </g>
   <g id="patch_103">
    <path d="M 439.941524 260.521875 
L 449.601352 260.521875 
L 449.601352 227.209379 
L 439.941524 227.209379 
z
" clip-path="url(#p6711145245)" style="fill: #ff7f0e; opacity: 0.4"/>
   </g>
   <g id="patch_104">
    <path d="M 449.601352 260.521875 
L 459.261179 260.521875 
L 459.261179 210.553131 
L 449.601352 210.553131 
z
" clip-path="url(#p6711145245)" style="fill: #ff7f0e; opacity: 0.4"/>
   </g>
   <g id="patch_105">
    <path d="M 459.261179 260.521875 
L 468.921007 260.521875 
L 468.921007 127.271892 
L 459.261179 127.271892 
z
" clip-path="url(#p6711145245)" style="fill: #ff7f0e; opacity: 0.4"/>
   </g>
   <g id="patch_106">
    <path d="M 468.921007 260.521875 
L 478.580835 260.521875 
L 478.580835 210.553131 
L 468.921007 210.553131 
z
" clip-path="url(#p6711145245)" style="fill: #ff7f0e; opacity: 0.4"/>
   </g>
   <g id="patch_107">
    <path d="M 478.580835 260.521875 
L 488.240663 260.521875 
L 488.240663 227.209379 
L 478.580835 227.209379 
z
" clip-path="url(#p6711145245)" style="fill: #ff7f0e; opacity: 0.4"/>
   </g>
   <g id="patch_108">
    <path d="M 488.240663 260.521875 
L 497.90049 260.521875 
L 497.90049 243.865627 
L 488.240663 243.865627 
z
" clip-path="url(#p6711145245)" style="fill: #ff7f0e; opacity: 0.4"/>
   </g>
   <g id="patch_109">
    <path d="M 497.90049 260.521875 
L 507.560318 260.521875 
L 507.560318 260.521875 
L 497.90049 260.521875 
z
" clip-path="url(#p6711145245)" style="fill: #ff7f0e; opacity: 0.4"/>
   </g>
   <g id="patch_110">
    <path d="M 507.560318 260.521875 
L 517.220146 260.521875 
L 517.220146 260.521875 
L 507.560318 260.521875 
z
" clip-path="url(#p6711145245)" style="fill: #ff7f0e; opacity: 0.4"/>
   </g>
   <g id="patch_111">
    <path d="M 517.220146 260.521875 
L 526.879974 260.521875 
L 526.879974 193.896884 
L 517.220146 193.896884 
z
" clip-path="url(#p6711145245)" style="fill: #ff7f0e; opacity: 0.4"/>
   </g>
   <g id="patch_112">
    <path d="M 356.989019 260.521875 
L 367.399568 260.521875 
L 367.399568 219.30817 
L 356.989019 219.30817 
z
" clip-path="url(#p6711145245)" style="fill: #2ca02c; opacity: 0.4"/>
   </g>
   <g id="patch_113">
    <path d="M 367.399568 260.521875 
L 377.810117 260.521875 
L 377.810117 260.521875 
L 367.399568 260.521875 
z
" clip-path="url(#p6711145245)" style="fill: #2ca02c; opacity: 0.4"/>
   </g>
   <g id="patch_114">
    <path d="M 377.810117 260.521875 
L 388.220666 260.521875 
L 388.220666 260.521875 
L 377.810117 260.521875 
z
" clip-path="url(#p6711145245)" style="fill: #2ca02c; opacity: 0.4"/>
   </g>
   <g id="patch_115">
    <path d="M 388.220666 260.521875 
L 398.631215 260.521875 
L 398.631215 178.094466 
L 388.220666 178.094466 
z
" clip-path="url(#p6711145245)" style="fill: #2ca02c; opacity: 0.4"/>
   </g>
   <g id="patch_116">
    <path d="M 398.631215 260.521875 
L 409.041764 260.521875 
L 409.041764 136.880761 
L 398.631215 136.880761 
z
" clip-path="url(#p6711145245)" style="fill: #2ca02c; opacity: 0.4"/>
   </g>
   <g id="patch_117">
    <path d="M 409.041764 260.521875 
L 419.452313 260.521875 
L 419.452313 136.880761 
L 409.041764 136.880761 
z
" clip-path="url(#p6711145245)" style="fill: #2ca02c; opacity: 0.4"/>
   </g>
   <g id="patch_118">
    <path d="M 419.452313 260.521875 
L 429.862862 260.521875 
L 429.862862 178.094466 
L 419.452313 178.094466 
z
" clip-path="url(#p6711145245)" style="fill: #2ca02c; opacity: 0.4"/>
   </g>
   <g id="patch_119">
    <path d="M 429.862862 260.521875 
L 440.273411 260.521875 
L 440.273411 157.487613 
L 429.862862 157.487613 
z
" clip-path="url(#p6711145245)" style="fill: #2ca02c; opacity: 0.4"/>
   </g>
   <g id="patch_120">
    <path d="M 440.273411 260.521875 
L 450.68396 260.521875 
L 450.68396 136.880761 
L 440.273411 136.880761 
z
" clip-path="url(#p6711145245)" style="fill: #2ca02c; opacity: 0.4"/>
   </g>
   <g id="patch_121">
    <path d="M 450.68396 260.521875 
L 461.094509 260.521875 
L 461.094509 178.094466 
L 450.68396 178.094466 
z
" clip-path="url(#p6711145245)" style="fill: #2ca02c; opacity: 0.4"/>
   </g>
   <g id="patch_122">
    <path d="M 461.094509 260.521875 
L 471.505059 260.521875 
L 471.505059 116.273908 
L 461.094509 116.273908 
z
" clip-path="url(#p6711145245)" style="fill: #2ca02c; opacity: 0.4"/>
   </g>
   <g id="patch_123">
    <path d="M 471.505059 260.521875 
L 481.915608 260.521875 
L 481.915608 219.30817 
L 471.505059 219.30817 
z
" clip-path="url(#p6711145245)" style="fill: #2ca02c; opacity: 0.4"/>
   </g>
   <g id="patch_124">
    <path d="M 481.915608 260.521875 
L 492.326157 260.521875 
L 492.326157 178.094466 
L 481.915608 178.094466 
z
" clip-path="url(#p6711145245)" style="fill: #2ca02c; opacity: 0.4"/>
   </g>
   <g id="patch_125">
    <path d="M 492.326157 260.521875 
L 502.736706 260.521875 
L 502.736706 157.487613 
L 492.326157 157.487613 
z
" clip-path="url(#p6711145245)" style="fill: #2ca02c; opacity: 0.4"/>
   </g>
   <g id="patch_126">
    <path d="M 502.736706 260.521875 
L 513.147255 260.521875 
L 513.147255 239.915023 
L 502.736706 239.915023 
z
" clip-path="url(#p6711145245)" style="fill: #2ca02c; opacity: 0.4"/>
   </g>
   <g id="patch_127">
    <path d="M 513.147255 260.521875 
L 523.557804 260.521875 
L 523.557804 239.915023 
L 513.147255 239.915023 
z
" clip-path="url(#p6711145245)" style="fill: #2ca02c; opacity: 0.4"/>
   </g>
   <g id="patch_128">
    <path d="M 523.557804 260.521875 
L 533.968353 260.521875 
L 533.968353 239.915023 
L 523.557804 239.915023 
z
" clip-path="url(#p6711145245)" style="fill: #2ca02c; opacity: 0.4"/>
   </g>
   <g id="patch_129">
    <path d="M 533.968353 260.521875 
L 544.378902 260.521875 
L 544.378902 260.521875 
L 533.968353 260.521875 
z
" clip-path="url(#p6711145245)" style="fill: #2ca02c; opacity: 0.4"/>
   </g>
   <g id="patch_130">
    <path d="M 544.378902 260.521875 
L 554.789451 260.521875 
L 554.789451 239.915023 
L 544.378902 239.915023 
z
" clip-path="url(#p6711145245)" style="fill: #2ca02c; opacity: 0.4"/>
   </g>
   <g id="patch_131">
    <path d="M 554.789451 260.521875 
L 565.2 260.521875 
L 565.2 239.915023 
L 554.789451 239.915023 
z
" clip-path="url(#p6711145245)" style="fill: #2ca02c; opacity: 0.4"/>
   </g>
   <g id="matplotlib.axis_3">
    <g id="xtick_5">
     <g id="line2d_15">
      <g>
       <use xlink:href="#m9fa2219ca7" x="344.82444" y="260.521875" style="stroke: #000000; stroke-width: 0.8"/>
      </g>
     </g>
     <g id="text_17">
      <!-- 3 -->
      <g transform="translate(341.64319 275.120313) scale(0.1 -0.1)">
       <defs>
        <path id="DejaVuSans-33" d="M 2597 2516 
Q 3050 2419 3304 2112 
Q 3559 1806 3559 1356 
Q 3559 666 3084 287 
Q 2609 -91 1734 -91 
Q 1441 -91 1130 -33 
Q 819 25 488 141 
L 488 750 
Q 750 597 1062 519 
Q 1375 441 1716 441 
Q 2309 441 2620 675 
Q 2931 909 2931 1356 
Q 2931 1769 2642 2001 
Q 2353 2234 1838 2234 
L 1294 2234 
L 1294 2753 
L 1863 2753 
Q 2328 2753 2575 2939 
Q 2822 3125 2822 3475 
Q 2822 3834 2567 4026 
Q 2313 4219 1838 4219 
Q 1578 4219 1281 4162 
Q 984 4106 628 3988 
L 628 4550 
Q 988 4650 1302 4700 
Q 1616 4750 1894 4750 
Q 2613 4750 3031 4423 
Q 3450 4097 3450 3541 
Q 3450 3153 3228 2886 
Q 3006 2619 2597 2516 
z
" transform="scale(0.015625)"/>
       </defs>
       <use xlink:href="#DejaVuSans-33"/>
      </g>
     </g>
    </g>
    <g id="xtick_6">
     <g id="line2d_16">
      <g>
       <use xlink:href="#m9fa2219ca7" x="387.115349" y="260.521875" style="stroke: #000000; stroke-width: 0.8"/>
      </g>
     </g>
     <g id="text_18">
      <!-- 4 -->
      <g transform="translate(383.934099 275.120313) scale(0.1 -0.1)">
       <use xlink:href="#DejaVuSans-34"/>
      </g>
     </g>
    </g>
    <g id="xtick_7">
     <g id="line2d_17">
      <g>
       <use xlink:href="#m9fa2219ca7" x="429.406259" y="260.521875" style="stroke: #000000; stroke-width: 0.8"/>
      </g>
     </g>
     <g id="text_19">
      <!-- 5 -->
      <g transform="translate(426.225009 275.120313) scale(0.1 -0.1)">
       <defs>
        <path id="DejaVuSans-35" d="M 691 4666 
L 3169 4666 
L 3169 4134 
L 1269 4134 
L 1269 2991 
Q 1406 3038 1543 3061 
Q 1681 3084 1819 3084 
Q 2600 3084 3056 2656 
Q 3513 2228 3513 1497 
Q 3513 744 3044 326 
Q 2575 -91 1722 -91 
Q 1428 -91 1123 -41 
Q 819 9 494 109 
L 494 744 
Q 775 591 1075 516 
Q 1375 441 1709 441 
Q 2250 441 2565 725 
Q 2881 1009 2881 1497 
Q 2881 1984 2565 2268 
Q 2250 2553 1709 2553 
Q 1456 2553 1204 2497 
Q 953 2441 691 2322 
L 691 4666 
z
" transform="scale(0.015625)"/>
       </defs>
       <use xlink:href="#DejaVuSans-35"/>
      </g>
     </g>
    </g>
    <g id="xtick_8">
     <g id="line2d_18">
      <g>
       <use xlink:href="#m9fa2219ca7" x="471.697168" y="260.521875" style="stroke: #000000; stroke-width: 0.8"/>
      </g>
     </g>
     <g id="text_20">
      <!-- 6 -->
      <g transform="translate(468.515918 275.120313) scale(0.1 -0.1)">
       <use xlink:href="#DejaVuSans-36"/>
      </g>
     </g>
    </g>
    <g id="xtick_9">
     <g id="line2d_19">
      <g>
       <use xlink:href="#m9fa2219ca7" x="513.988078" y="260.521875" style="stroke: #000000; stroke-width: 0.8"/>
      </g>
     </g>
     <g id="text_21">
      <!-- 7 -->
      <g transform="translate(510.806828 275.120313) scale(0.1 -0.1)">
       <use xlink:href="#DejaVuSans-37"/>
      </g>
     </g>
    </g>
    <g id="xtick_10">
     <g id="line2d_20">
      <g>
       <use xlink:href="#m9fa2219ca7" x="556.278987" y="260.521875" style="stroke: #000000; stroke-width: 0.8"/>
      </g>
     </g>
     <g id="text_22">
      <!-- 8 -->
      <g transform="translate(553.097737 275.120313) scale(0.1 -0.1)">
       <use xlink:href="#DejaVuSans-38"/>
      </g>
     </g>
    </g>
   </g>
   <g id="matplotlib.axis_4">
    <g id="ytick_8">
     <g id="line2d_21">
      <g>
       <use xlink:href="#m555b3c87c6" x="332.263437" y="260.521875" style="stroke: #000000; stroke-width: 0.8"/>
      </g>
     </g>
     <g id="text_23">
      <!-- 0.0 -->
      <g transform="translate(309.360312 264.321094) scale(0.1 -0.1)">
       <use xlink:href="#DejaVuSans-30"/>
       <use xlink:href="#DejaVuSans-2e" x="63.623047"/>
       <use xlink:href="#DejaVuSans-30" x="95.410156"/>
      </g>
     </g>
    </g>
    <g id="ytick_9">
     <g id="line2d_22">
      <g>
       <use xlink:href="#m555b3c87c6" x="332.263437" y="230.085739" style="stroke: #000000; stroke-width: 0.8"/>
      </g>
     </g>
     <g id="text_24">
      <!-- 0.1 -->
      <g transform="translate(309.360312 233.884958) scale(0.1 -0.1)">
       <use xlink:href="#DejaVuSans-30"/>
       <use xlink:href="#DejaVuSans-2e" x="63.623047"/>
       <use xlink:href="#DejaVuSans-31" x="95.410156"/>
      </g>
     </g>
    </g>
    <g id="ytick_10">
     <g id="line2d_23">
      <g>
       <use xlink:href="#m555b3c87c6" x="332.263437" y="199.649603" style="stroke: #000000; stroke-width: 0.8"/>
      </g>
     </g>
     <g id="text_25">
      <!-- 0.2 -->
      <g transform="translate(309.360312 203.448821) scale(0.1 -0.1)">
       <use xlink:href="#DejaVuSans-30"/>
       <use xlink:href="#DejaVuSans-2e" x="63.623047"/>
       <use xlink:href="#DejaVuSans-32" x="95.410156"/>
      </g>
     </g>
    </g>
    <g id="ytick_11">
     <g id="line2d_24">
      <g>
       <use xlink:href="#m555b3c87c6" x="332.263437" y="169.213466" style="stroke: #000000; stroke-width: 0.8"/>
      </g>
     </g>
     <g id="text_26">
      <!-- 0.3 -->
      <g transform="translate(309.360312 173.012685) scale(0.1 -0.1)">
       <use xlink:href="#DejaVuSans-30"/>
       <use xlink:href="#DejaVuSans-2e" x="63.623047"/>
       <use xlink:href="#DejaVuSans-33" x="95.410156"/>
      </g>
     </g>
    </g>
    <g id="ytick_12">
     <g id="line2d_25">
      <g>
       <use xlink:href="#m555b3c87c6" x="332.263437" y="138.77733" style="stroke: #000000; stroke-width: 0.8"/>
      </g>
     </g>
     <g id="text_27">
      <!-- 0.4 -->
      <g transform="translate(309.360312 142.576549) scale(0.1 -0.1)">
       <use xlink:href="#DejaVuSans-30"/>
       <use xlink:href="#DejaVuSans-2e" x="63.623047"/>
       <use xlink:href="#DejaVuSans-34" x="95.410156"/>
      </g>
     </g>
    </g>
    <g id="ytick_13">
     <g id="line2d_26">
      <g>
       <use xlink:href="#m555b3c87c6" x="332.263437" y="108.341194" style="stroke: #000000; stroke-width: 0.8"/>
      </g>
     </g>
     <g id="text_28">
      <!-- 0.5 -->
      <g transform="translate(309.360312 112.140413) scale(0.1 -0.1)">
       <use xlink:href="#DejaVuSans-30"/>
       <use xlink:href="#DejaVuSans-2e" x="63.623047"/>
       <use xlink:href="#DejaVuSans-35" x="95.410156"/>
      </g>
     </g>
    </g>
    <g id="ytick_14">
     <g id="line2d_27">
      <g>
       <use xlink:href="#m555b3c87c6" x="332.263437" y="77.905058" style="stroke: #000000; stroke-width: 0.8"/>
      </g>
     </g>
     <g id="text_29">
      <!-- 0.6 -->
      <g transform="translate(309.360312 81.704276) scale(0.1 -0.1)">
       <use xlink:href="#DejaVuSans-30"/>
       <use xlink:href="#DejaVuSans-2e" x="63.623047"/>
       <use xlink:href="#DejaVuSans-36" x="95.410156"/>
      </g>
     </g>
    </g>
    <g id="ytick_15">
     <g id="line2d_28">
      <g>
       <use xlink:href="#m555b3c87c6" x="332.263437" y="47.468921" style="stroke: #000000; stroke-width: 0.8"/>
      </g>
     </g>
     <g id="text_30">
      <!-- 0.7 -->
      <g transform="translate(309.360312 51.26814) scale(0.1 -0.1)">
       <use xlink:href="#DejaVuSans-30"/>
       <use xlink:href="#DejaVuSans-2e" x="63.623047"/>
       <use xlink:href="#DejaVuSans-37" x="95.410156"/>
      </g>
     </g>
    </g>
    <g id="text_31">
     <!-- Fraction of cells -->
     <g transform="translate(302.44875 198.811719) rotate(-90) scale(0.14 -0.14)">
      <use xlink:href="#DejaVuSans-46"/>
      <use xlink:href="#DejaVuSans-72" x="50.269531"/>
      <use xlink:href="#DejaVuSans-61" x="91.382812"/>
      <use xlink:href="#DejaVuSans-63" x="152.662109"/>
      <use xlink:href="#DejaVuSans-74" x="207.642578"/>
      <use xlink:href="#DejaVuSans-69" x="246.851562"/>
      <use xlink:href="#DejaVuSans-6f" x="274.634766"/>
      <use xlink:href="#DejaVuSans-6e" x="335.816406"/>
      <use xlink:href="#DejaVuSans-20" x="399.195312"/>
      <use xlink:href="#DejaVuSans-6f" x="430.982422"/>
      <use xlink:href="#DejaVuSans-66" x="492.164062"/>
      <use xlink:href="#DejaVuSans-20" x="527.369141"/>
      <use xlink:href="#DejaVuSans-63" x="559.15625"/>
      <use xlink:href="#DejaVuSans-65" x="614.136719"/>
      <use xlink:href="#DejaVuSans-6c" x="675.660156"/>
      <use xlink:href="#DejaVuSans-6c" x="703.443359"/>
      <use xlink:href="#DejaVuSans-73" x="731.226562"/>
     </g>
    </g>
   </g>
   <g id="line2d_29">
    <path d="M 332.151976 260.499446 
L 340.445141 260.336897 
L 344.887908 260.036799 
L 348.145937 259.606888 
L 350.959689 259.013958 
L 353.477257 258.250811 
L 355.69864 257.355078 
L 357.920024 256.221676 
L 360.141407 254.832087 
L 362.362791 253.180928 
L 364.732266 251.143474 
L 367.397927 248.552349 
L 370.655956 245.063629 
L 376.875829 237.989379 
L 390.20413 222.63929 
L 393.165975 218.711817 
L 395.979727 214.622106 
L 398.941571 209.930681 
L 402.347693 204.104943 
L 406.494275 196.553139 
L 411.973688 186.086903 
L 417.897377 174.294999 
L 423.228697 163.195557 
L 428.411925 151.886653 
L 433.743245 139.70662 
L 443.073056 118.221431 
L 445.590624 113.087202 
L 447.515823 109.624911 
L 449.144837 107.106299 
L 450.62576 105.205566 
L 451.95859 103.852172 
L 453.143327 102.958476 
L 454.179973 102.429576 
L 455.216619 102.146403 
L 456.253264 102.115438 
L 457.28991 102.34056 
L 458.326556 102.823045 
L 459.363201 103.561639 
L 460.547939 104.714579 
L 461.732677 106.18831 
L 463.065507 108.214508 
L 464.546429 110.897983 
L 466.175444 114.335959 
L 467.95255 118.610701 
L 470.025842 124.201093 
L 472.395317 131.251068 
L 475.357162 140.814713 
L 479.651837 155.543473 
L 485.87171 176.807241 
L 488.981647 186.598328 
L 491.647307 194.246764 
L 494.016783 200.386707 
L 496.386259 205.895825 
L 498.755734 210.814353 
L 501.12521 215.220576 
L 503.79087 219.689146 
L 506.752715 224.214126 
L 510.306928 229.237513 
L 514.305418 234.501566 
L 517.859632 238.816783 
L 520.821476 242.07814 
L 523.487137 244.702001 
L 526.004704 246.887178 
L 528.522272 248.78893 
L 531.187932 250.516851 
L 534.001685 252.067591 
L 537.111622 253.52436 
L 540.813927 255.003681 
L 545.108602 256.473169 
L 549.551369 257.756869 
L 553.697951 258.722944 
L 557.696442 259.424076 
L 561.843024 259.920994 
L 565.249145 260.181347 
L 565.249145 260.181347 
" clip-path="url(#p6711145245)" style="fill: none; stroke: #1f77b4; stroke-width: 1.5; stroke-linecap: square"/>
   </g>
   <g id="line2d_30">
    <path d="M 332.151976 219.333899 
L 335.854282 211.725317 
L 341.185602 200.194411 
L 348.442121 184.54188 
L 351.996335 177.427861 
L 354.810087 172.269616 
L 357.327655 168.108565 
L 359.549038 164.853154 
L 361.62233 162.206469 
L 363.547529 160.113606 
L 365.324635 158.509874 
L 366.95365 157.325781 
L 368.582664 156.420461 
L 370.063587 155.841099 
L 371.544509 155.493138 
L 373.025431 155.373802 
L 374.506354 155.478245 
L 375.987276 155.799611 
L 377.61629 156.393117 
L 379.245305 157.224215 
L 381.022412 158.382243 
L 382.947611 159.90503 
L 385.168994 161.964663 
L 387.686562 164.621362 
L 390.796499 168.250131 
L 395.831635 174.53543 
L 401.459139 181.46106 
L 404.865261 185.302107 
L 407.827105 188.31599 
L 410.492765 190.728303 
L 413.158426 192.837961 
L 415.675993 194.548907 
L 418.193561 195.992302 
L 420.711129 197.180995 
L 423.228697 198.132816 
L 425.894357 198.905893 
L 428.70811 199.489613 
L 431.818046 199.896915 
L 435.224168 200.110115 
L 439.37075 200.132594 
L 452.106682 200.016995 
L 455.068526 200.316296 
L 457.734187 200.808113 
L 460.251755 201.506128 
L 462.62123 202.396842 
L 464.990706 203.531255 
L 467.360182 204.917186 
L 469.877749 206.662991 
L 472.54341 208.801676 
L 475.505254 211.487656 
L 478.911375 214.894923 
L 483.946511 220.288578 
L 490.462569 227.213702 
L 494.016783 230.660827 
L 497.12672 233.371232 
L 499.940472 235.540233 
L 502.754224 237.429315 
L 505.567977 239.047297 
L 508.529821 240.485642 
L 511.78785 241.80765 
L 515.638248 243.117747 
L 522.302399 245.099098 
L 528.966549 247.166855 
L 534.594054 249.15849 
L 543.479588 252.596405 
L 549.847553 254.942892 
L 554.586505 256.452773 
L 558.881179 257.588654 
L 563.175854 258.490281 
L 565.249145 258.844755 
L 565.249145 258.844755 
" clip-path="url(#p6711145245)" style="fill: none; stroke: #ff7f0e; stroke-width: 1.5; stroke-linecap: square"/>
   </g>
   <g id="line2d_31">
    <path d="M 332.151976 256.642657 
L 336.742835 255.231999 
L 341.629879 253.494803 
L 346.813107 251.420979 
L 351.552058 249.296239 
L 355.402456 247.335052 
L 358.660485 245.424632 
L 361.474237 243.515369 
L 363.991805 241.544942 
L 366.361281 239.417866 
L 368.730757 236.987109 
L 371.100232 234.220886 
L 373.469708 231.097888 
L 375.839184 227.610676 
L 378.356752 223.516953 
L 381.170504 218.509486 
L 384.576625 211.954064 
L 389.759853 201.40848 
L 394.943081 191.0137 
L 398.053018 185.250056 
L 400.718678 180.755962 
L 403.088154 177.173039 
L 405.309537 174.195175 
L 407.530921 171.593742 
L 409.604212 169.497025 
L 411.677503 167.699991 
L 413.898887 166.073426 
L 416.268362 164.628902 
L 418.78593 163.354986 
L 421.895867 162.043216 
L 426.338634 160.442797 
L 434.779891 157.674452 
L 438.926473 156.509957 
L 441.888318 155.899399 
L 444.405886 155.606818 
L 446.627269 155.571014 
L 448.700561 155.758554 
L 450.62576 156.14454 
L 452.550959 156.74788 
L 454.476158 157.575369 
L 456.549449 158.717319 
L 458.62274 160.111143 
L 460.844123 161.864893 
L 463.361691 164.140498 
L 466.323536 167.136138 
L 470.173934 171.381598 
L 484.686972 187.718636 
L 491.795399 195.093462 
L 498.755734 202.414234 
L 503.642778 207.88594 
L 509.12219 214.370943 
L 519.784831 227.081205 
L 523.635229 231.260794 
L 526.893258 234.480568 
L 530.003195 237.238593 
L 532.965039 239.561324 
L 535.778792 241.493406 
L 538.740636 243.252294 
L 541.702481 244.755283 
L 544.96051 246.155124 
L 548.662816 247.490361 
L 553.105582 248.844802 
L 560.214009 250.744297 
L 565.249145 252.054654 
L 565.249145 252.054654 
" clip-path="url(#p6711145245)" style="fill: none; stroke: #2ca02c; stroke-width: 1.5; stroke-linecap: square"/>
   </g>
   <g id="patch_132">
    <path d="M 332.263437 260.521875 
L 332.263437 27.437812 
" style="fill: none; stroke: #000000; stroke-width: 0.8; stroke-linejoin: miter; stroke-linecap: square"/>
   </g>
   <g id="patch_133">
    <path d="M 565.2 260.521875 
L 565.2 27.437812 
" style="fill: none; stroke: #000000; stroke-width: 0.8; stroke-linejoin: miter; stroke-linecap: square"/>
   </g>
   <g id="patch_134">
    <path d="M 332.263437 260.521875 
L 565.2 260.521875 
" style="fill: none; stroke: #000000; stroke-width: 0.8; stroke-linejoin: miter; stroke-linecap: square"/>
   </g>
   <g id="patch_135">
    <path d="M 332.263437 27.437812 
L 565.2 27.437812 
" style="fill: none; stroke: #000000; stroke-width: 0.8; stroke-linejoin: miter; stroke-linecap: square"/>
   </g>
   <g id="text_32">
    <!-- Linear -->
    <g transform="translate(426.975937 21.437813) scale(0.14 -0.14)">
     <defs>
      <path id="DejaVuSans-4c" d="M 628 4666 
L 1259 4666 
L 1259 531 
L 3531 531 
L 3531 0 
L 628 0 
L 628 4666 
z
" transform="scale(0.015625)"/>
     </defs>
     <use xlink:href="#DejaVuSans-4c"/>
     <use xlink:href="#DejaVuSans-69" x="55.712891"/>
     <use xlink:href="#DejaVuSans-6e" x="83.496094"/>
     <use xlink:href="#DejaVuSans-65" x="146.875"/>
     <use xlink:href="#DejaVuSans-61" x="208.398438"/>
     <use xlink:href="#DejaVuSans-72" x="269.677734"/>
    </g>
   </g>
   <g id="legend_2">
    <g id="patch_136">
     <path d="M 476.810625 89.879062 
L 556.8 89.879062 
Q 559.2 89.879062 559.2 87.479062 
L 559.2 35.837812 
Q 559.2 33.437812 556.8 33.437812 
L 476.810625 33.437812 
Q 474.410625 33.437812 474.410625 35.837812 
L 474.410625 87.479062 
Q 474.410625 89.879062 476.810625 89.879062 
z
" style="fill: #ffffff; opacity: 0.8; stroke: #cccccc; stroke-linejoin: miter"/>
    </g>
    <g id="patch_137">
     <path d="M 479.210625 47.355937 
L 503.210625 47.355937 
L 503.210625 38.955937 
L 479.210625 38.955937 
z
" style="fill: #1f77b4; opacity: 0.4"/>
    </g>
    <g id="text_33">
     <!-- control -->
     <g transform="translate(512.810625 47.355937) scale(0.12 -0.12)">
      <use xlink:href="#DejaVuSans-63"/>
      <use xlink:href="#DejaVuSans-6f" x="54.980469"/>
      <use xlink:href="#DejaVuSans-6e" x="116.162109"/>
      <use xlink:href="#DejaVuSans-74" x="179.541016"/>
      <use xlink:href="#DejaVuSans-72" x="218.75"/>
      <use xlink:href="#DejaVuSans-6f" x="257.613281"/>
      <use xlink:href="#DejaVuSans-6c" x="318.794922"/>
     </g>
    </g>
    <g id="patch_138">
     <path d="M 479.210625 64.969687 
L 503.210625 64.969687 
L 503.210625 56.569687 
L 479.210625 56.569687 
z
" style="fill: #ff7f0e; opacity: 0.4"/>
    </g>
    <g id="text_34">
     <!-- cytd -->
     <g transform="translate(512.810625 64.969687) scale(0.12 -0.12)">
      <use xlink:href="#DejaVuSans-63"/>
      <use xlink:href="#DejaVuSans-79" x="54.980469"/>
      <use xlink:href="#DejaVuSans-74" x="114.160156"/>
      <use xlink:href="#DejaVuSans-64" x="153.369141"/>
     </g>
    </g>
    <g id="patch_139">
     <path d="M 479.210625 82.583437 
L 503.210625 82.583437 
L 503.210625 74.183437 
L 479.210625 74.183437 
z
" style="fill: #2ca02c; opacity: 0.4"/>
    </g>
    <g id="text_35">
     <!-- jasp -->
     <g transform="translate(512.810625 82.583437) scale(0.12 -0.12)">
      <use xlink:href="#DejaVuSans-6a"/>
      <use xlink:href="#DejaVuSans-61" x="27.783203"/>
      <use xlink:href="#DejaVuSans-73" x="89.0625"/>
      <use xlink:href="#DejaVuSans-70" x="141.162109"/>
     </g>
    </g>
   </g>
  </g>
 </g>
 <defs>
  <clipPath id="p9741553a07">
   <rect x="48.074375" y="27.437813" width="232.936562" height="233.084062"/>
  </clipPath>
  <clipPath id="p6711145245">
   <rect x="332.263437" y="27.437813" width="232.936563" height="233.084062"/>
  </clipPath>
 </defs>
</svg>
