<?xml version="1.0" encoding="utf-8" standalone="no"?>
<!DOCTYPE svg PUBLIC "-//W3C//DTD SVG 1.1//EN"
  "http://www.w3.org/Graphics/SVG/1.1/DTD/svg11.dtd">
<svg xmlns:xlink="http://www.w3.org/1999/xlink" width="540pt" height="288pt" viewBox="0 0 540 288" xmlns="http://www.w3.org/2000/svg" version="1.1">
 <metadata>
  <rdf:RDF xmlns:dc="http://purl.org/dc/elements/1.1/" xmlns:cc="http://creativecommons.org/ns#" xmlns:rdf="http://www.w3.org/1999/02/22-rdf-syntax-ns#">
   <cc:Work>
    <dc:type rdf:resource="http://purl.org/dc/dcmitype/StillImage"/>
    <dc:date>2024-04-21T14:20:05.483353</dc:date>
    <dc:format>image/svg+xml</dc:format>
    <dc:creator>
     <cc:Agent>
      <dc:title>Matplotlib v3.8.4, https://matplotlib.org/</dc:title>
     </cc:Agent>
    </dc:creator>
   </cc:Work>
  </rdf:RDF>
 </metadata>
 <defs>
  <style type="text/css">*{stroke-linejoin: round; stroke-linecap: butt}</style>
 </defs>
 <g id="figure_1">
  <g id="patch_1">
   <path d="M 0 288 
L 540 288 
L 540 0 
L 0 0 
z
" style="fill: #ffffff"/>
  </g>
  <g id="axes_1">
   <g id="line2d_1">
    <path d="M 181.365853 85.558247 
L 179.998945 84.377709 
L 178.93208 83.238941 
L 178.44956 82.213984 
L 178.069052 80.580667 
L 177.446486 77.902336 
L 176.086061 73.781757 
L 173.514145 68.400129 
L 171.142578 64.445098 
L 169.422541 61.981073 
L 168.01121 60.107803 
L 166.911892 58.849194 
L 164.370163 55.788625 
L 163.585625 55.183167 
L 161.382743 53.386063 
L 159.65644 51.963502 
L 155.644331 49.02857 
L 154.565304 48.152893 
L 152.391127 46.910238 
L 147.157911 44.276741 
L 144.245664 43.035671 
L 141.373549 41.905737 
L 133.735383 40.087547 
L 132.45649 39.917003 
L 130.213109 39.631332 
L 128.451818 39.499882 
L 125.959147 39.35088 
L 124.6766 39.238731 
L 122.745791 39.16477 
L 120.726798 39.205885 
L 112.598819 40.223513 
L 106.183567 42.384181 
L 104.373068 43.12673 
L 100.581923 44.86972 
L 94.347191 48.531598 
L 92.449689 49.915966 
L 89.534689 52.75197 
L 85.347574 58.06325 
L 83.534889 60.916326 
L 82.247549 63.920373 
L 80.762173 67.803914 
L 79.286436 71.852212 
L 78.779473 73.816655 
L 78.353226 74.815027 
L 78.038583 75.796458 
L 76.896312 80.905682 
L 76.41384 86.475424 
L 76.670896 89.186206 
L 77.517262 93.221463 
L 77.97073 94.553878 
L 78.405191 95.924588 
L 79.59367 99.428482 
L 80.020342 100.677748 
L 80.375872 101.70133 
L 81.97163 104.700387 
L 83.069901 106.328959 
L 84.656132 109.441204 
L 86.744332 112.497987 
L 89.141346 115.195042 
L 90.023113 116.168775 
L 90.885937 117.157898 
L 92.788648 118.788474 
L 96.452293 121.410849 
L 100.632958 123.845955 
L 107.537386 127.211122 
L 109.856143 128.087115 
L 115.451281 129.538591 
L 116.831387 129.924107 
L 120.623893 130.496779 
L 122.845144 130.765781 
L 124.468026 130.753618 
L 127.638696 130.679761 
L 130.319401 130.587051 
L 135.540506 129.953943 
L 144.225943 127.184777 
L 147.386215 125.657591 
L 157.29561 119.974942 
L 164.258221 114.317508 
L 168.338129 110.12843 
L 172.979148 103.830208 
L 173.808787 102.274633 
L 175.345536 99.278541 
L 176.204986 97.511755 
L 176.665774 96.248761 
L 177.927182 92.970626 
L 178.294437 91.99166 
L 179.797546 87.184984 
L 180.471575 85.736112 
L 181.55718 83.746562 
L 181.688258 83.403399 
L 181.688258 83.403399 
" clip-path="url(#p0c07ac3b1a)" style="fill: none; stroke: #1f77b4; stroke-width: 1.5; stroke-linecap: square"/>
   </g>
   <g id="text_1">
    <!-- SRV-control -->
    <g transform="translate(71.778493 28.56) scale(0.2 -0.2)">
     <defs>
      <path id="DejaVuSans-53" d="M 3425 4513 
L 3425 3897 
Q 3066 4069 2747 4153 
Q 2428 4238 2131 4238 
Q 1616 4238 1336 4038 
Q 1056 3838 1056 3469 
Q 1056 3159 1242 3001 
Q 1428 2844 1947 2747 
L 2328 2669 
Q 3034 2534 3370 2195 
Q 3706 1856 3706 1288 
Q 3706 609 3251 259 
Q 2797 -91 1919 -91 
Q 1588 -91 1214 -16 
Q 841 59 441 206 
L 441 856 
Q 825 641 1194 531 
Q 1563 422 1919 422 
Q 2459 422 2753 634 
Q 3047 847 3047 1241 
Q 3047 1584 2836 1778 
Q 2625 1972 2144 2069 
L 1759 2144 
Q 1053 2284 737 2584 
Q 422 2884 422 3419 
Q 422 4038 858 4394 
Q 1294 4750 2059 4750 
Q 2388 4750 2728 4690 
Q 3069 4631 3425 4513 
z
" transform="scale(0.015625)"/>
      <path id="DejaVuSans-52" d="M 2841 2188 
Q 3044 2119 3236 1894 
Q 3428 1669 3622 1275 
L 4263 0 
L 3584 0 
L 2988 1197 
Q 2756 1666 2539 1819 
Q 2322 1972 1947 1972 
L 1259 1972 
L 1259 0 
L 628 0 
L 628 4666 
L 2053 4666 
Q 2853 4666 3247 4331 
Q 3641 3997 3641 3322 
Q 3641 2881 3436 2590 
Q 3231 2300 2841 2188 
z
M 1259 4147 
L 1259 2491 
L 2053 2491 
Q 2509 2491 2742 2702 
Q 2975 2913 2975 3322 
Q 2975 3731 2742 3939 
Q 2509 4147 2053 4147 
L 1259 4147 
z
" transform="scale(0.015625)"/>
      <path id="DejaVuSans-56" d="M 1831 0 
L 50 4666 
L 709 4666 
L 2188 738 
L 3669 4666 
L 4325 4666 
L 2547 0 
L 1831 0 
z
" transform="scale(0.015625)"/>
      <path id="DejaVuSans-2d" d="M 313 2009 
L 1997 2009 
L 1997 1497 
L 313 1497 
L 313 2009 
z
" transform="scale(0.015625)"/>
      <path id="DejaVuSans-63" d="M 3122 3366 
L 3122 2828 
Q 2878 2963 2633 3030 
Q 2388 3097 2138 3097 
Q 1578 3097 1268 2742 
Q 959 2388 959 1747 
Q 959 1106 1268 751 
Q 1578 397 2138 397 
Q 2388 397 2633 464 
Q 2878 531 3122 666 
L 3122 134 
Q 2881 22 2623 -34 
Q 2366 -91 2075 -91 
Q 1284 -91 818 406 
Q 353 903 353 1747 
Q 353 2603 823 3093 
Q 1294 3584 2113 3584 
Q 2378 3584 2631 3529 
Q 2884 3475 3122 3366 
z
" transform="scale(0.015625)"/>
      <path id="DejaVuSans-6f" d="M 1959 3097 
Q 1497 3097 1228 2736 
Q 959 2375 959 1747 
Q 959 1119 1226 758 
Q 1494 397 1959 397 
Q 2419 397 2687 759 
Q 2956 1122 2956 1747 
Q 2956 2369 2687 2733 
Q 2419 3097 1959 3097 
z
M 1959 3584 
Q 2709 3584 3137 3096 
Q 3566 2609 3566 1747 
Q 3566 888 3137 398 
Q 2709 -91 1959 -91 
Q 1206 -91 779 398 
Q 353 888 353 1747 
Q 353 2609 779 3096 
Q 1206 3584 1959 3584 
z
" transform="scale(0.015625)"/>
      <path id="DejaVuSans-6e" d="M 3513 2113 
L 3513 0 
L 2938 0 
L 2938 2094 
Q 2938 2591 2744 2837 
Q 2550 3084 2163 3084 
Q 1697 3084 1428 2787 
Q 1159 2491 1159 1978 
L 1159 0 
L 581 0 
L 581 3500 
L 1159 3500 
L 1159 2956 
Q 1366 3272 1645 3428 
Q 1925 3584 2291 3584 
Q 2894 3584 3203 3211 
Q 3513 2838 3513 2113 
z
" transform="scale(0.015625)"/>
      <path id="DejaVuSans-74" d="M 1172 4494 
L 1172 3500 
L 2356 3500 
L 2356 3053 
L 1172 3053 
L 1172 1153 
Q 1172 725 1289 603 
Q 1406 481 1766 481 
L 2356 481 
L 2356 0 
L 1766 0 
Q 1100 0 847 248 
Q 594 497 594 1153 
L 594 3053 
L 172 3053 
L 172 3500 
L 594 3500 
L 594 4494 
L 1172 4494 
z
" transform="scale(0.015625)"/>
      <path id="DejaVuSans-72" d="M 2631 2963 
Q 2534 3019 2420 3045 
Q 2306 3072 2169 3072 
Q 1681 3072 1420 2755 
Q 1159 2438 1159 1844 
L 1159 0 
L 581 0 
L 581 3500 
L 1159 3500 
L 1159 2956 
Q 1341 3275 1631 3429 
Q 1922 3584 2338 3584 
Q 2397 3584 2469 3576 
Q 2541 3569 2628 3553 
L 2631 2963 
z
" transform="scale(0.015625)"/>
      <path id="DejaVuSans-6c" d="M 603 4863 
L 1178 4863 
L 1178 0 
L 603 0 
L 603 4863 
z
" transform="scale(0.015625)"/>
     </defs>
     <use xlink:href="#DejaVuSans-53"/>
     <use xlink:href="#DejaVuSans-52" x="63.476562"/>
     <use xlink:href="#DejaVuSans-56" x="127.458984"/>
     <use xlink:href="#DejaVuSans-2d" x="189.992188"/>
     <use xlink:href="#DejaVuSans-63" x="226.076172"/>
     <use xlink:href="#DejaVuSans-6f" x="281.056641"/>
     <use xlink:href="#DejaVuSans-6e" x="342.238281"/>
     <use xlink:href="#DejaVuSans-74" x="405.617188"/>
     <use xlink:href="#DejaVuSans-72" x="444.826172"/>
     <use xlink:href="#DejaVuSans-6f" x="483.689453"/>
     <use xlink:href="#DejaVuSans-6c" x="544.871094"/>
    </g>
   </g>
  </g>
  <g id="axes_2">
   <g id="line2d_2">
    <path d="M 328.501557 91.282037 
L 327.555897 91.026647 
L 326.262714 90.487288 
L 323.943556 89.737646 
L 323.245352 89.462409 
L 321.618933 88.393897 
L 320.060192 86.502349 
L 318.928499 85.3339 
L 318.262907 84.47733 
L 316.415068 81.966727 
L 315.629408 80.422667 
L 315.360289 79.798138 
L 314.638593 78.594207 
L 313.921664 77.484911 
L 312.698348 75.882889 
L 312.187001 75.274332 
L 311.608441 74.566221 
L 310.450773 73.45052 
L 308.818475 71.433795 
L 306.487463 69.549934 
L 305.764053 69.221128 
L 304.100849 68.41703 
L 302.590345 66.837191 
L 300.72027 64.399399 
L 299.621739 63.279611 
L 297.413097 61.19548 
L 296.423201 60.240485 
L 294.27276 58.209945 
L 293.492499 57.407113 
L 292.429877 56.018444 
L 290.873525 54.484879 
L 290.481849 54.024495 
L 289.982578 53.445734 
L 289.639722 53.116277 
L 288.126941 52.235445 
L 285.825302 50.643968 
L 284.466382 49.608842 
L 283.817689 48.928363 
L 281.780793 47.863969 
L 280.392386 47.338653 
L 278.974907 46.70215 
L 276.908613 46.18223 
L 275.167499 45.597533 
L 272.60589 45.181099 
L 271.475274 45.02222 
L 267.370254 44.365474 
L 266.663147 44.203376 
L 261.094619 44.093491 
L 260.585967 44.229682 
L 259.779143 44.424308 
L 258.862047 44.710864 
L 257.477182 45.015719 
L 256.195338 45.29201 
L 254.649738 45.762381 
L 250.100673 47.428503 
L 248.699414 47.734655 
L 247.234544 48.208787 
L 246.044214 48.751219 
L 245.254849 49.09529 
L 243.887772 49.576341 
L 241.815332 50.638112 
L 240.387581 51.176843 
L 239.517813 51.633639 
L 237.631894 52.643081 
L 237.009127 53.094986 
L 234.914203 54.017495 
L 233.729357 54.457362 
L 232.27528 54.970687 
L 230.778576 56.715342 
L 228.471263 60.31588 
L 228.003138 60.976095 
L 227.297519 61.700023 
L 225.618909 65.060809 
L 225.535529 65.740185 
L 225.341311 66.848662 
L 225.089492 67.631832 
L 224.998386 68.3701 
L 224.507734 70.06957 
L 224.219126 70.924438 
L 223.760758 72.221851 
L 222.751291 74.187553 
L 222.19185 75.229534 
L 221.41286 77.585452 
L 221.3218 77.981726 
L 220.979689 81.656369 
L 220.832118 82.542099 
L 220.95995 84.920591 
L 221.153584 85.799082 
L 221.050643 87.05239 
L 220.891842 88.623193 
L 221.230797 91.214195 
L 221.448476 92.261576 
L 221.638158 92.865506 
L 224.067198 100.396553 
L 224.339498 101.05821 
L 224.714849 101.849982 
L 225.32795 102.592581 
L 226.031627 103.384119 
L 227.445279 104.978982 
L 228.054102 105.832968 
L 229.90144 108.393492 
L 230.691681 109.049519 
L 231.967721 110.557496 
L 232.411366 111.199912 
L 233.538408 112.438346 
L 235.371372 114.954619 
L 235.952268 115.563669 
L 236.780261 116.487007 
L 237.926745 117.649476 
L 239.588565 118.811821 
L 240.316024 119.255787 
L 241.253679 119.982465 
L 242.1025 120.519428 
L 242.838516 120.915242 
L 243.491876 121.216999 
L 244.300599 121.721245 
L 245.385611 122.213044 
L 248.197694 123.648828 
L 249.093738 123.916221 
L 251.663282 124.746795 
L 252.90971 124.959164 
L 253.608118 125.129609 
L 257.949244 125.944503 
L 259.111277 125.910652 
L 260.241871 125.633466 
L 261.742798 125.416308 
L 263.111627 125.181457 
L 264.383403 125.093942 
L 266.869187 124.971755 
L 269.20674 124.366085 
L 270.801702 123.885175 
L 271.804401 123.675276 
L 277.080161 122.17779 
L 279.42147 121.181407 
L 285.746967 118.12847 
L 287.030073 117.041926 
L 288.688487 115.926226 
L 289.527017 115.322363 
L 291.162106 114.18496 
L 291.893592 113.669918 
L 292.502113 113.165753 
L 295.059672 111.451027 
L 295.988958 111.068196 
L 297.502268 110.083331 
L 300.202738 107.797693 
L 300.809309 107.302311 
L 301.659346 106.752884 
L 302.811742 105.803292 
L 303.623773 105.194533 
L 305.246955 103.970898 
L 308.320766 101.567858 
L 312.274756 96.774756 
L 315.209826 93.089472 
L 315.751969 92.544632 
L 316.62595 91.45516 
L 317.339313 90.605078 
L 318.916206 88.601735 
L 319.933195 87.719993 
L 321.891344 85.974929 
L 322.411127 85.394441 
L 324.034089 83.787126 
L 324.46531 83.40611 
L 325.526196 82.301677 
L 326.3442 81.741003 
L 329.956667 79.742881 
L 330.768058 79.303863 
L 332.491002 78.28529 
L 332.699198 77.994843 
L 332.699198 77.994843 
" clip-path="url(#p4f1af2216a)" style="fill: none; stroke: #ff7f0e; stroke-width: 1.5; stroke-linecap: square"/>
   </g>
   <g id="text_2">
    <!-- SRV-cytd -->
    <g transform="translate(232.45625 28.56) scale(0.2 -0.2)">
     <defs>
      <path id="DejaVuSans-79" d="M 2059 -325 
Q 1816 -950 1584 -1140 
Q 1353 -1331 966 -1331 
L 506 -1331 
L 506 -850 
L 844 -850 
Q 1081 -850 1212 -737 
Q 1344 -625 1503 -206 
L 1606 56 
L 191 3500 
L 800 3500 
L 1894 763 
L 2988 3500 
L 3597 3500 
L 2059 -325 
z
" transform="scale(0.015625)"/>
      <path id="DejaVuSans-64" d="M 2906 2969 
L 2906 4863 
L 3481 4863 
L 3481 0 
L 2906 0 
L 2906 525 
Q 2725 213 2448 61 
Q 2172 -91 1784 -91 
Q 1150 -91 751 415 
Q 353 922 353 1747 
Q 353 2572 751 3078 
Q 1150 3584 1784 3584 
Q 2172 3584 2448 3432 
Q 2725 3281 2906 2969 
z
M 947 1747 
Q 947 1113 1208 752 
Q 1469 391 1925 391 
Q 2381 391 2643 752 
Q 2906 1113 2906 1747 
Q 2906 2381 2643 2742 
Q 2381 3103 1925 3103 
Q 1469 3103 1208 2742 
Q 947 2381 947 1747 
z
" transform="scale(0.015625)"/>
     </defs>
     <use xlink:href="#DejaVuSans-53"/>
     <use xlink:href="#DejaVuSans-52" x="63.476562"/>
     <use xlink:href="#DejaVuSans-56" x="127.458984"/>
     <use xlink:href="#DejaVuSans-2d" x="189.992188"/>
     <use xlink:href="#DejaVuSans-63" x="226.076172"/>
     <use xlink:href="#DejaVuSans-79" x="281.056641"/>
     <use xlink:href="#DejaVuSans-74" x="340.236328"/>
     <use xlink:href="#DejaVuSans-64" x="379.445312"/>
    </g>
   </g>
  </g>
  <g id="axes_3">
   <g id="line2d_3">
    <path d="M 480.40508 90.329708 
L 479.488512 89.858665 
L 478.771393 89.273402 
L 476.747075 86.616101 
L 476.380462 85.702084 
L 475.867759 84.310689 
L 475.020673 81.96292 
L 474.662346 80.767796 
L 474.164497 79.672591 
L 472.778808 75.900734 
L 471.930477 74.790187 
L 471.076415 73.414018 
L 469.977393 71.478332 
L 466.550997 67.172926 
L 464.819203 65.382913 
L 461.980889 62.057387 
L 461.486669 61.516323 
L 459.987276 60.073353 
L 459.293418 59.39975 
L 457.827883 58.111251 
L 456.482951 56.996901 
L 453.354246 54.411028 
L 452.024279 53.169607 
L 449.673754 52.279281 
L 448.947394 51.721129 
L 448.550036 51.42696 
L 447.673881 51.128376 
L 446.955459 50.841985 
L 445.806471 50.088922 
L 445.096625 49.740492 
L 443.784555 49.000715 
L 442.812722 48.4687 
L 434.720622 45.614083 
L 431.609401 44.96524 
L 430.404292 44.901718 
L 429.308815 44.662072 
L 428.215945 44.366625 
L 426.602412 44.002228 
L 424.815785 43.562092 
L 423.922284 43.436246 
L 420.911061 43.208748 
L 417.518804 42.798452 
L 412.838539 42.906044 
L 406.061849 43.727386 
L 404.371177 44.279202 
L 403.213475 44.390426 
L 402.420984 44.523113 
L 401.291437 44.71896 
L 398.80572 45.338968 
L 397.605918 45.795291 
L 395.035122 46.483036 
L 394.067923 46.94841 
L 389.155806 49.105927 
L 388.595367 49.534131 
L 386.827752 50.458962 
L 385.19108 51.377956 
L 383.293996 52.879815 
L 380.859774 54.83806 
L 380.028853 55.713103 
L 375.480236 61.478396 
L 373.075878 65.87322 
L 371.799947 68.941878 
L 371.597978 69.682408 
L 371.295375 70.627392 
L 370.926023 71.3733 
L 369.571263 75.972247 
L 369.091333 77.805689 
L 368.972324 79.400215 
L 368.904453 79.883188 
L 368.643955 81.50964 
L 368.553312 82.462697 
L 368.547956 84.530393 
L 368.834421 86.912804 
L 368.957314 87.780064 
L 369.186398 90.148425 
L 370.56284 95.19224 
L 371.188847 96.495962 
L 371.917897 97.832776 
L 373.643214 101.089949 
L 374.213159 102.033881 
L 376.491805 105.777429 
L 379.577024 109.293422 
L 382.880588 112.450608 
L 383.730367 113.339719 
L 384.756135 114.185677 
L 386.227492 115.578142 
L 386.991787 116.07076 
L 387.87089 116.662026 
L 389.527307 117.838519 
L 390.330888 118.347768 
L 391.244023 119.029121 
L 392.0889 119.42586 
L 392.937229 119.973656 
L 393.613671 120.425031 
L 395.247038 121.392984 
L 397.14344 122.530863 
L 401.864628 124.413036 
L 404.059528 124.966273 
L 405.103449 125.110602 
L 406.907575 125.410098 
L 408.164357 125.73532 
L 410.195881 126.267446 
L 411.638489 126.552638 
L 412.620643 126.775074 
L 416.782237 127.224629 
L 420.242821 127.11181 
L 424.040508 126.592807 
L 426.635932 126.630833 
L 428.493211 126.268095 
L 429.697964 126.094392 
L 430.470299 125.914375 
L 432.027091 125.525149 
L 435.10992 124.98729 
L 438.548773 124.326196 
L 444.635535 121.907931 
L 445.63003 121.375816 
L 446.570704 120.916454 
L 447.15244 120.437526 
L 448.073839 119.780801 
L 449.30627 119.046189 
L 451.182027 118.119986 
L 452.087417 117.631187 
L 453.387395 116.940432 
L 454.832411 116.154335 
L 456.146265 115.272259 
L 456.86397 114.779732 
L 458.162268 113.73828 
L 459.366806 112.956574 
L 460.429483 112.028278 
L 461.854911 110.859614 
L 462.918587 110.06195 
L 463.954251 108.775588 
L 464.878317 107.601967 
L 468.113817 103.977431 
L 468.98096 102.857268 
L 469.685382 101.892088 
L 470.589323 100.609776 
L 471.248759 99.768242 
L 471.867309 99.012795 
L 472.670347 98.050421 
L 473.252256 97.223466 
L 473.656867 96.498834 
L 474.36511 94.659467 
L 474.714406 93.668466 
L 475.805384 91.26959 
L 475.990849 90.740052 
L 476.436531 89.780986 
L 477.228328 88.214335 
L 478.099597 86.427753 
L 479.21846 84.827183 
L 479.777442 83.990125 
L 480.000811 83.571103 
L 480.000811 83.571103 
" clip-path="url(#pf8ddb6700c)" style="fill: none; stroke: #2ca02c; stroke-width: 1.5; stroke-linecap: square"/>
   </g>
   <g id="text_3">
    <!-- SRV-jasp -->
    <g transform="translate(381.384007 28.56) scale(0.2 -0.2)">
     <defs>
      <path id="DejaVuSans-6a" d="M 603 3500 
L 1178 3500 
L 1178 -63 
Q 1178 -731 923 -1031 
Q 669 -1331 103 -1331 
L -116 -1331 
L -116 -844 
L 38 -844 
Q 366 -844 484 -692 
Q 603 -541 603 -63 
L 603 3500 
z
M 603 4863 
L 1178 4863 
L 1178 4134 
L 603 4134 
L 603 4863 
z
" transform="scale(0.015625)"/>
      <path id="DejaVuSans-61" d="M 2194 1759 
Q 1497 1759 1228 1600 
Q 959 1441 959 1056 
Q 959 750 1161 570 
Q 1363 391 1709 391 
Q 2188 391 2477 730 
Q 2766 1069 2766 1631 
L 2766 1759 
L 2194 1759 
z
M 3341 1997 
L 3341 0 
L 2766 0 
L 2766 531 
Q 2569 213 2275 61 
Q 1981 -91 1556 -91 
Q 1019 -91 701 211 
Q 384 513 384 1019 
Q 384 1609 779 1909 
Q 1175 2209 1959 2209 
L 2766 2209 
L 2766 2266 
Q 2766 2663 2505 2880 
Q 2244 3097 1772 3097 
Q 1472 3097 1187 3025 
Q 903 2953 641 2809 
L 641 3341 
Q 956 3463 1253 3523 
Q 1550 3584 1831 3584 
Q 2591 3584 2966 3190 
Q 3341 2797 3341 1997 
z
" transform="scale(0.015625)"/>
      <path id="DejaVuSans-73" d="M 2834 3397 
L 2834 2853 
Q 2591 2978 2328 3040 
Q 2066 3103 1784 3103 
Q 1356 3103 1142 2972 
Q 928 2841 928 2578 
Q 928 2378 1081 2264 
Q 1234 2150 1697 2047 
L 1894 2003 
Q 2506 1872 2764 1633 
Q 3022 1394 3022 966 
Q 3022 478 2636 193 
Q 2250 -91 1575 -91 
Q 1294 -91 989 -36 
Q 684 19 347 128 
L 347 722 
Q 666 556 975 473 
Q 1284 391 1588 391 
Q 1994 391 2212 530 
Q 2431 669 2431 922 
Q 2431 1156 2273 1281 
Q 2116 1406 1581 1522 
L 1381 1569 
Q 847 1681 609 1914 
Q 372 2147 372 2553 
Q 372 3047 722 3315 
Q 1072 3584 1716 3584 
Q 2034 3584 2315 3537 
Q 2597 3491 2834 3397 
z
" transform="scale(0.015625)"/>
      <path id="DejaVuSans-70" d="M 1159 525 
L 1159 -1331 
L 581 -1331 
L 581 3500 
L 1159 3500 
L 1159 2969 
Q 1341 3281 1617 3432 
Q 1894 3584 2278 3584 
Q 2916 3584 3314 3078 
Q 3713 2572 3713 1747 
Q 3713 922 3314 415 
Q 2916 -91 2278 -91 
Q 1894 -91 1617 61 
Q 1341 213 1159 525 
z
M 3116 1747 
Q 3116 2381 2855 2742 
Q 2594 3103 2138 3103 
Q 1681 3103 1420 2742 
Q 1159 2381 1159 1747 
Q 1159 1113 1420 752 
Q 1681 391 2138 391 
Q 2594 391 2855 752 
Q 3116 1113 3116 1747 
z
" transform="scale(0.015625)"/>
     </defs>
     <use xlink:href="#DejaVuSans-53"/>
     <use xlink:href="#DejaVuSans-52" x="63.476562"/>
     <use xlink:href="#DejaVuSans-56" x="127.458984"/>
     <use xlink:href="#DejaVuSans-2d" x="189.992188"/>
     <use xlink:href="#DejaVuSans-6a" x="226.076172"/>
     <use xlink:href="#DejaVuSans-61" x="253.859375"/>
     <use xlink:href="#DejaVuSans-73" x="315.138672"/>
     <use xlink:href="#DejaVuSans-70" x="367.238281"/>
    </g>
   </g>
  </g>
  <g id="axes_4">
   <g id="line2d_4">
    <path d="M 180.994404 204.624074 
L 179.512286 203.158232 
L 178.758018 202.054336 
L 177.957676 200.596041 
L 176.476003 196.334956 
L 174.110068 192.388827 
L 171.255915 186.988919 
L 170.145249 185.307104 
L 167.582406 181.922282 
L 166.409966 180.471527 
L 160.540425 174.426435 
L 157.01989 171.272744 
L 153.920946 169.067123 
L 151.593581 167.644624 
L 149.312242 166.349919 
L 147.266135 165.563467 
L 145.334235 164.636417 
L 140.900342 162.929876 
L 136.746818 161.854083 
L 134.624302 161.343997 
L 130.19592 160.764381 
L 125.709749 160.296149 
L 119.611785 160.197252 
L 117.901627 160.380002 
L 115.232903 160.619036 
L 113.278029 161.060009 
L 109.007114 161.983666 
L 107.446845 162.460341 
L 100.617771 165.522983 
L 98.065553 167.237362 
L 96.530376 168.399607 
L 93.338629 170.5156 
L 87.699819 176.539449 
L 85.244913 179.620447 
L 84.350211 181.306097 
L 82.333255 184.822748 
L 81.474264 187.179756 
L 81.025067 188.487251 
L 80.176492 190.434063 
L 79.90633 191.348491 
L 79.269633 194.179243 
L 78.586348 196.175303 
L 77.972205 198.467713 
L 77.585395 200.280452 
L 77.117826 205.176694 
L 77.064758 208.35052 
L 77.368157 211.233852 
L 78.898464 217.789225 
L 79.417532 219.070927 
L 80.725439 222.207688 
L 81.50217 224.258164 
L 82.459649 226.288509 
L 83.459732 228.587702 
L 84.762612 231.148377 
L 87.395433 234.681019 
L 89.86679 237.439897 
L 92.025753 239.268915 
L 93.997622 240.832935 
L 98.095 243.610327 
L 102.321804 246.131386 
L 109.903554 249.687529 
L 112.292997 250.357392 
L 120.216033 251.706559 
L 122.549479 251.667267 
L 128.828673 251.553749 
L 134.116738 250.862633 
L 136.812372 250.273317 
L 142.675792 248.388189 
L 144.04917 247.967151 
L 146.775459 246.911226 
L 150.356485 245.07446 
L 152.589903 243.808361 
L 154.627907 242.462357 
L 156.079393 241.449738 
L 158.777602 239.234091 
L 164.205259 234.309553 
L 166.16615 232.268856 
L 169.427046 228.876091 
L 170.576848 227.296384 
L 171.523033 225.413309 
L 172.129838 224.287039 
L 174.942474 219.647714 
L 176.244563 216.06829 
L 176.912553 214.747229 
L 177.719715 213.487512 
L 178.800165 211.857435 
L 179.266092 210.714274 
L 180.517738 207.000629 
L 181.048404 204.984084 
L 181.048404 204.984084 
" clip-path="url(#p508423466b)" style="fill: none; stroke: #1f77b4; stroke-width: 1.5; stroke-linecap: square"/>
   </g>
   <g id="text_4">
    <!-- Linear-control -->
    <g transform="translate(60.336305 149.52) scale(0.2 -0.2)">
     <defs>
      <path id="DejaVuSans-4c" d="M 628 4666 
L 1259 4666 
L 1259 531 
L 3531 531 
L 3531 0 
L 628 0 
L 628 4666 
z
" transform="scale(0.015625)"/>
      <path id="DejaVuSans-69" d="M 603 3500 
L 1178 3500 
L 1178 0 
L 603 0 
L 603 3500 
z
M 603 4863 
L 1178 4863 
L 1178 4134 
L 603 4134 
L 603 4863 
z
" transform="scale(0.015625)"/>
      <path id="DejaVuSans-65" d="M 3597 1894 
L 3597 1613 
L 953 1613 
Q 991 1019 1311 708 
Q 1631 397 2203 397 
Q 2534 397 2845 478 
Q 3156 559 3463 722 
L 3463 178 
Q 3153 47 2828 -22 
Q 2503 -91 2169 -91 
Q 1331 -91 842 396 
Q 353 884 353 1716 
Q 353 2575 817 3079 
Q 1281 3584 2069 3584 
Q 2775 3584 3186 3129 
Q 3597 2675 3597 1894 
z
M 3022 2063 
Q 3016 2534 2758 2815 
Q 2500 3097 2075 3097 
Q 1594 3097 1305 2825 
Q 1016 2553 972 2059 
L 3022 2063 
z
" transform="scale(0.015625)"/>
     </defs>
     <use xlink:href="#DejaVuSans-4c"/>
     <use xlink:href="#DejaVuSans-69" x="55.712891"/>
     <use xlink:href="#DejaVuSans-6e" x="83.496094"/>
     <use xlink:href="#DejaVuSans-65" x="146.875"/>
     <use xlink:href="#DejaVuSans-61" x="208.398438"/>
     <use xlink:href="#DejaVuSans-72" x="269.677734"/>
     <use xlink:href="#DejaVuSans-2d" x="304.416016"/>
     <use xlink:href="#DejaVuSans-63" x="340.5"/>
     <use xlink:href="#DejaVuSans-6f" x="395.480469"/>
     <use xlink:href="#DejaVuSans-6e" x="456.662109"/>
     <use xlink:href="#DejaVuSans-74" x="520.041016"/>
     <use xlink:href="#DejaVuSans-72" x="559.25"/>
     <use xlink:href="#DejaVuSans-6f" x="598.113281"/>
     <use xlink:href="#DejaVuSans-6c" x="659.294922"/>
    </g>
   </g>
  </g>
  <g id="axes_5">
   <g id="line2d_5">
    <path d="M 332.546418 205.013061 
L 330.633497 204.162695 
L 329.410936 203.633488 
L 328.295567 203.164697 
L 327.28014 202.622225 
L 326.005043 201.931983 
L 324.772862 201.119226 
L 323.136611 200.019855 
L 322.440279 199.572729 
L 319.40543 197.909861 
L 314.945127 195.265873 
L 313.454476 193.821023 
L 312.183703 192.336003 
L 310.934606 191.43751 
L 309.804067 190.506237 
L 309.133298 189.647149 
L 308.451658 188.373222 
L 306.742879 186.663025 
L 306.491415 186.256918 
L 305.897898 185.844211 
L 305.403494 185.395562 
L 304.855426 184.733116 
L 303.555162 183.493497 
L 303.188552 182.906343 
L 302.387327 181.827341 
L 301.692207 181.027432 
L 301.30479 180.586809 
L 300.614564 179.693018 
L 299.811379 178.926038 
L 299.228517 178.012853 
L 298.651928 177.486048 
L 297.851569 176.358618 
L 295.17257 174.239041 
L 294.3523 173.849038 
L 293.924967 173.52068 
L 292.589086 172.716622 
L 292.028011 172.471871 
L 289.439498 171.175716 
L 286.827308 170.324927 
L 285.581588 169.736777 
L 284.350488 169.0141 
L 283.788694 168.741296 
L 282.522714 167.989488 
L 281.31616 167.167063 
L 280.158705 166.584683 
L 278.990725 165.824439 
L 277.968883 165.587198 
L 277.130088 165.267338 
L 276.137962 164.956647 
L 275.562646 164.771425 
L 273.64917 164.315939 
L 271.838134 163.495458 
L 270.872846 163.144024 
L 270.065058 162.918879 
L 265.890787 163.365466 
L 265.032882 163.328849 
L 264.5002 163.455791 
L 261.611528 164.233545 
L 260.963675 164.264489 
L 260.081754 164.874055 
L 257.934542 165.513884 
L 253.588252 166.988444 
L 249.868807 169.162577 
L 249.450978 169.427664 
L 248.812546 169.740497 
L 248.323108 170.14552 
L 247.741616 170.591406 
L 246.450565 171.311521 
L 245.47508 172.195717 
L 243.814273 173.316809 
L 243.186036 173.588493 
L 242.619947 173.891322 
L 242.007865 174.472818 
L 241.638195 174.762332 
L 240.796248 175.547343 
L 238.776402 176.914034 
L 238.175979 177.167265 
L 237.726832 177.580654 
L 235.621638 178.836856 
L 234.505102 179.422542 
L 232.73281 180.677456 
L 232.443528 180.879151 
L 231.824543 181.661109 
L 231.378082 182.019566 
L 229.046528 184.386909 
L 228.437447 185.665342 
L 227.939168 186.716939 
L 227.466586 187.178805 
L 226.697555 187.950517 
L 226.237549 189.230769 
L 226.072204 189.906483 
L 225.347391 191.908799 
L 225.073906 193.106381 
L 224.900745 194.02215 
L 223.488933 198.703509 
L 223.32188 199.734829 
L 222.246452 203.39132 
L 221.885339 205.0636 
L 221.580918 206.427198 
L 221.355953 206.933592 
L 221.481039 207.843076 
L 221.516321 208.516621 
L 221.207088 210.357444 
L 220.846886 211.945492 
L 220.992259 214.962355 
L 221.272801 216.072578 
L 221.494147 216.876145 
L 221.931094 218.27932 
L 222.105857 219.078189 
L 222.771095 220.874729 
L 223.505092 221.745196 
L 223.770632 222.365614 
L 224.328946 223.393209 
L 224.613093 224.039045 
L 226.142345 226.570996 
L 226.256113 227.122937 
L 226.352574 227.671994 
L 226.83406 229.081285 
L 228.017588 230.853011 
L 228.597119 231.464007 
L 229.292391 232.495202 
L 231.017157 234.062929 
L 231.508274 234.494017 
L 231.853419 234.825982 
L 232.760728 236.097836 
L 234.076987 237.051669 
L 234.831314 237.617613 
L 235.437891 237.942243 
L 236.592495 238.61076 
L 236.889784 239.003207 
L 238.679901 240.284181 
L 239.914542 241.495604 
L 240.743971 242.235094 
L 241.701563 243.34705 
L 242.251223 243.666457 
L 243.435266 244.180245 
L 244.038858 244.610998 
L 244.876152 245.209068 
L 245.586285 245.338768 
L 246.59431 245.615947 
L 247.559767 245.763007 
L 248.055672 245.850284 
L 249.24083 246.073588 
L 250.060871 246.187733 
L 251.559673 246.456081 
L 252.276413 246.590057 
L 253.9092 247.211829 
L 256.732793 247.824924 
L 257.809457 248.07461 
L 258.877687 248.188054 
L 259.578533 248.121872 
L 261.563638 248.916372 
L 263.06927 248.867429 
L 264.059602 248.681973 
L 264.707939 248.665205 
L 265.202174 248.707685 
L 270.69842 248.130446 
L 271.18842 247.98043 
L 272.68545 247.819503 
L 274.370846 247.320837 
L 275.236524 247.192969 
L 276.217332 246.893077 
L 278.954182 246.29189 
L 281.255473 245.168686 
L 282.242745 244.857644 
L 284.013486 243.796916 
L 284.791575 243.147441 
L 285.316757 242.698757 
L 287.53362 241.293046 
L 288.15223 240.941216 
L 290.331558 239.036466 
L 291.471346 238.308333 
L 292.105842 237.823776 
L 292.902817 237.33621 
L 293.299139 237.071818 
L 295.252582 236.260034 
L 297.400542 235.135052 
L 298.761219 234.163016 
L 299.202182 233.596774 
L 300.094886 232.668979 
L 303.217459 229.471442 
L 304.700543 228.254889 
L 305.934085 226.554475 
L 306.762879 225.553368 
L 307.529408 224.587566 
L 310.933173 221.961137 
L 315.020616 218.759102 
L 315.689942 218.184517 
L 316.471744 217.505187 
L 317.37375 216.509397 
L 318.602084 215.286968 
L 319.302196 214.697455 
L 321.568545 213.085234 
L 325.334053 210.212582 
L 326.355349 209.562789 
L 327.209272 209.007699 
L 330.074984 207.343566 
L 331.568443 206.58912 
L 332.381835 205.899648 
L 332.699198 205.316455 
L 332.699198 205.316455 
" clip-path="url(#pe0fe87aef3)" style="fill: none; stroke: #ff7f0e; stroke-width: 1.5; stroke-linecap: square"/>
   </g>
   <g id="text_5">
    <!-- Linear-cytd -->
    <g transform="translate(221.014062 149.52) scale(0.2 -0.2)">
     <use xlink:href="#DejaVuSans-4c"/>
     <use xlink:href="#DejaVuSans-69" x="55.712891"/>
     <use xlink:href="#DejaVuSans-6e" x="83.496094"/>
     <use xlink:href="#DejaVuSans-65" x="146.875"/>
     <use xlink:href="#DejaVuSans-61" x="208.398438"/>
     <use xlink:href="#DejaVuSans-72" x="269.677734"/>
     <use xlink:href="#DejaVuSans-2d" x="304.416016"/>
     <use xlink:href="#DejaVuSans-63" x="340.5"/>
     <use xlink:href="#DejaVuSans-79" x="395.480469"/>
     <use xlink:href="#DejaVuSans-74" x="454.660156"/>
     <use xlink:href="#DejaVuSans-64" x="493.869141"/>
    </g>
   </g>
  </g>
  <g id="axes_6">
   <g id="line2d_6">
    <path d="M 481.775111 206.113806 
L 480.529469 205.344457 
L 480.218505 204.750268 
L 479.793833 203.503666 
L 478.599642 201.311572 
L 477.904676 200.42499 
L 477.320792 199.292348 
L 476.101813 197.093642 
L 475.37441 195.854976 
L 472.035646 190.126086 
L 471.331646 189.371469 
L 470.552106 188.295554 
L 469.472212 187.337128 
L 464.383996 181.979438 
L 462.982154 180.522291 
L 461.791826 179.015521 
L 460.972101 178.169712 
L 460.122757 177.074963 
L 459.226132 176.083386 
L 458.184213 175.019368 
L 452.596265 170.219388 
L 452.109506 169.757338 
L 450.686273 169.139812 
L 449.836286 168.76612 
L 448.175459 167.836503 
L 445.248863 166.513005 
L 440.681253 164.274281 
L 438.623053 163.426591 
L 437.340081 163.032771 
L 434.779678 162.381703 
L 432.727843 162.025738 
L 430.937782 161.663774 
L 427.258344 160.933948 
L 426.43893 160.716492 
L 421.652518 160.331643 
L 420.88592 160.363444 
L 418.917301 160.135027 
L 417.082328 160.326836 
L 415.249377 160.392576 
L 413.624707 160.562204 
L 411.363904 160.608471 
L 409.349884 160.739405 
L 407.852815 160.787717 
L 405.873418 161.285621 
L 404.805926 161.357043 
L 403.693414 161.440694 
L 402.881606 161.65314 
L 399.095494 162.958216 
L 396.471336 163.706832 
L 394.964939 164.168886 
L 391.199271 165.109852 
L 389.796661 165.654761 
L 387.170633 167.081004 
L 382.635923 170.883287 
L 380.265053 172.660818 
L 378.268307 174.882134 
L 376.203047 177.23613 
L 374.942048 178.283833 
L 372.751584 180.682254 
L 372.239508 181.733349 
L 371.560708 183.342043 
L 370.994088 184.417366 
L 370.083407 188.218081 
L 369.633524 189.730084 
L 368.755561 191.846718 
L 368.061297 194.15293 
L 367.950755 194.878105 
L 367.679767 197.623555 
L 367.452232 199.354033 
L 367.381129 200.678846 
L 367.294964 202.694484 
L 367.099192 207.182268 
L 367.619101 209.249331 
L 367.90129 210.437041 
L 368.228614 212.26366 
L 368.57681 215.010527 
L 369.521815 218.053734 
L 370.101002 219.958064 
L 370.365142 220.795919 
L 371.095184 222.456693 
L 374.729558 228.406516 
L 375.193757 229.126639 
L 375.983151 230.716042 
L 377.222917 232.115121 
L 378.668493 233.482215 
L 379.49222 234.276835 
L 381.255662 236.149013 
L 381.982179 236.859966 
L 383.089024 237.833036 
L 386.006772 240.086402 
L 386.818814 240.872981 
L 389.891677 242.847448 
L 390.866159 243.667765 
L 391.882324 244.111713 
L 394.332837 245.330031 
L 397.257578 246.774596 
L 398.476592 247.064895 
L 399.136342 247.231498 
L 399.938103 247.724878 
L 400.654788 248.153559 
L 401.714524 248.653182 
L 403.353665 249.248547 
L 405.854417 250.161515 
L 407.75663 250.701149 
L 409.043333 250.838344 
L 412.397674 251.573625 
L 413.677337 251.716588 
L 414.848526 251.68977 
L 416.271945 251.439441 
L 418.001829 251.220215 
L 422.096218 250.949183 
L 424.973108 250.522391 
L 425.911415 250.533795 
L 426.955448 250.505382 
L 428.940502 250.120664 
L 431.782511 249.394769 
L 434.982263 248.473071 
L 439.951744 247.369214 
L 441.489825 247.052175 
L 443.852137 245.997551 
L 445.895811 244.84277 
L 448.360906 243.195673 
L 449.174338 242.761941 
L 450.222158 242.293872 
L 451.609453 241.220607 
L 454.929638 239.056838 
L 457.565459 237.290682 
L 458.652284 236.370441 
L 459.99408 235.477861 
L 461.321094 234.519322 
L 462.206488 233.88617 
L 463.121323 233.168668 
L 468.111153 228.59058 
L 470.384317 226.05162 
L 471.107074 225.296263 
L 472.005241 223.883686 
L 473.615814 221.633017 
L 475.598939 218.30619 
L 477.42238 215.19154 
L 479.005747 212.386155 
L 479.696299 210.184338 
L 481.61095 206.890872 
L 481.845376 206.36643 
L 481.845376 206.36643 
" clip-path="url(#pef1599c44d)" style="fill: none; stroke: #2ca02c; stroke-width: 1.5; stroke-linecap: square"/>
   </g>
   <g id="text_6">
    <!-- Linear-jasp -->
    <g transform="translate(369.94182 149.52) scale(0.2 -0.2)">
     <use xlink:href="#DejaVuSans-4c"/>
     <use xlink:href="#DejaVuSans-69" x="55.712891"/>
     <use xlink:href="#DejaVuSans-6e" x="83.496094"/>
     <use xlink:href="#DejaVuSans-65" x="146.875"/>
     <use xlink:href="#DejaVuSans-61" x="208.398438"/>
     <use xlink:href="#DejaVuSans-72" x="269.677734"/>
     <use xlink:href="#DejaVuSans-2d" x="304.416016"/>
     <use xlink:href="#DejaVuSans-6a" x="340.5"/>
     <use xlink:href="#DejaVuSans-61" x="368.283203"/>
     <use xlink:href="#DejaVuSans-73" x="429.5625"/>
     <use xlink:href="#DejaVuSans-70" x="481.662109"/>
    </g>
   </g>
  </g>
 </g>
 <defs>
  <clipPath id="p0c07ac3b1a">
   <rect x="67.5" y="34.56" width="123.088235" height="100.8"/>
  </clipPath>
  <clipPath id="p4f1af2216a">
   <rect x="215.205882" y="34.56" width="123.088235" height="100.8"/>
  </clipPath>
  <clipPath id="pf8ddb6700c">
   <rect x="362.911765" y="34.56" width="123.088235" height="100.8"/>
  </clipPath>
  <clipPath id="p508423466b">
   <rect x="67.5" y="155.52" width="123.088235" height="100.8"/>
  </clipPath>
  <clipPath id="pe0fe87aef3">
   <rect x="215.205882" y="155.52" width="123.088235" height="100.8"/>
  </clipPath>
  <clipPath id="pef1599c44d">
   <rect x="362.911765" y="155.52" width="123.088235" height="100.8"/>
  </clipPath>
 </defs>
</svg>
