<?xml version="1.0" encoding="utf-8" standalone="no"?>
<!DOCTYPE svg PUBLIC "-//W3C//DTD SVG 1.1//EN"
  "http://www.w3.org/Graphics/SVG/1.1/DTD/svg11.dtd">
<svg xmlns:xlink="http://www.w3.org/1999/xlink" width="540pt" height="288pt" viewBox="0 0 540 288" xmlns="http://www.w3.org/2000/svg" version="1.1">
 <metadata>
  <rdf:RDF xmlns:dc="http://purl.org/dc/elements/1.1/" xmlns:cc="http://creativecommons.org/ns#" xmlns:rdf="http://www.w3.org/1999/02/22-rdf-syntax-ns#">
   <cc:Work>
    <dc:type rdf:resource="http://purl.org/dc/dcmitype/StillImage"/>
    <dc:date>2024-05-25T17:37:16.293900</dc:date>
    <dc:format>image/svg+xml</dc:format>
    <dc:creator>
     <cc:Agent>
      <dc:title>Matplotlib v3.8.4, https://matplotlib.org/</dc:title>
     </cc:Agent>
    </dc:creator>
   </cc:Work>
  </rdf:RDF>
 </metadata>
 <defs>
  <style type="text/css">*{stroke-linejoin: round; stroke-linecap: butt}</style>
 </defs>
 <g id="figure_1">
  <g id="patch_1">
   <path d="M 0 288 
L 540 288 
L 540 0 
L 0 0 
z
" style="fill: #ffffff"/>
  </g>
  <g id="axes_1">
   <g id="line2d_1">
    <path d="M 183.737924 85.438893 
L 183.846594 82.412559 
L 184.059538 79.864893 
L 184.012003 78.380273 
L 183.697582 77.338251 
L 183.254088 76.039233 
L 181.015555 67.978718 
L 180.091262 66.426878 
L 178.851182 64.349194 
L 177.803616 63.396208 
L 176.909548 62.499603 
L 173.6851 59.138732 
L 172.557958 58.161502 
L 171.273755 57.354972 
L 169.686679 56.353367 
L 168.429196 55.43528 
L 166.753893 54.509662 
L 166.020804 53.787024 
L 165.446735 53.200685 
L 164.71063 52.748574 
L 162.85171 51.994528 
L 161.419516 51.022225 
L 160.319977 50.229266 
L 159.455583 49.839534 
L 156.799622 49.188085 
L 153.267767 48.853831 
L 150.539251 48.301808 
L 148.518105 47.546693 
L 145.29298 46.385813 
L 144.430584 46.229694 
L 141.818566 46.078035 
L 140.883002 45.973713 
L 133.291608 45.041945 
L 131.926448 45.234779 
L 129.410375 45.705789 
L 127.738115 46.036406 
L 126.149176 46.181864 
L 124.06159 46.26418 
L 118.146698 46.828687 
L 117.221963 47.272277 
L 115.91581 47.789771 
L 114.073741 48.246735 
L 111.394585 48.83534 
L 108.178473 50.215078 
L 106.66539 50.849668 
L 103.891038 51.870086 
L 100.646129 53.332315 
L 99.269204 53.67324 
L 97.695116 53.956162 
L 96.398383 54.395415 
L 92.644464 56.178121 
L 91.472882 56.798263 
L 91.021547 57.390403 
L 90.369924 58.824889 
L 89.852155 59.549761 
L 89.091696 60.291659 
L 86.877684 61.946042 
L 83.926115 63.843641 
L 82.788034 64.849219 
L 81.813127 65.608279 
L 80.498465 66.788802 
L 79.540469 67.629827 
L 79.246418 68.164019 
L 78.702987 69.93482 
L 78.202888 70.782416 
L 77.362064 71.778384 
L 76.514776 72.792824 
L 76.254165 73.423044 
L 75.895216 74.544339 
L 75.133766 76.453433 
L 73.993258 78.625005 
L 73.505024 80.447193 
L 73.12011 81.357178 
L 73.120125 81.900877 
L 73.340876 82.788242 
L 73.66766 84.07219 
L 74.066572 85.618314 
L 74.567149 87.791073 
L 75.358474 91.912339 
L 75.430169 93.626961 
L 75.838385 94.361681 
L 76.75287 95.960935 
L 77.829353 98.39379 
L 78.365472 99.891 
L 78.813689 100.386491 
L 80.080433 101.267915 
L 80.762265 101.896876 
L 81.396995 102.766533 
L 82.58281 104.751389 
L 83.345763 106.129565 
L 83.810967 106.630972 
L 86.496809 108.726774 
L 89.069517 110.192702 
L 90.472953 111.262993 
L 92.804358 112.748301 
L 94.597119 114.13994 
L 95.730324 114.329926 
L 96.87311 114.600681 
L 99.335753 115.585285 
L 101.107842 116.749054 
L 102.059733 117.42036 
L 102.934953 117.803811 
L 107.037773 119.120472 
L 108.218558 119.495179 
L 110.763747 120.18803 
L 112.045652 120.505538 
L 113.910313 120.857598 
L 114.755541 121.284314 
L 116.097086 122.094583 
L 118.059945 122.840846 
L 119.336696 123.214404 
L 122.11756 123.308138 
L 124.064363 123.177731 
L 125.510253 123.059864 
L 127.167474 123.110184 
L 133.454244 124.123589 
L 135.840137 124.333822 
L 138.578618 124.886458 
L 139.683087 124.675852 
L 141.077241 124.405766 
L 142.820333 124.169285 
L 146.039684 123.458081 
L 148.492118 122.998474 
L 153.686964 122.743254 
L 155.332345 121.930166 
L 156.343069 121.528139 
L 158.020844 120.87708 
L 159.237885 120.226697 
L 160.325799 119.721945 
L 163.420399 118.619623 
L 165.547949 117.821887 
L 167.407445 117.132189 
L 168.213802 116.573115 
L 170.08283 114.943684 
L 172.089141 113.669641 
L 175.205144 111.979163 
L 177.558418 110.181658 
L 178.347966 109.568979 
L 178.858962 108.78888 
L 179.810345 106.696325 
L 180.945557 104.948522 
L 182.244697 103.175355 
L 183.654642 100.811375 
L 183.711338 100.154365 
L 183.649876 98.365266 
L 183.869091 97.35887 
L 184.458982 96.118835 
L 184.84088 95.118048 
L 184.984065 93.491737 
L 184.937587 91.976549 
L 184.689784 90.6814 
L 184.577067 89.251565 
L 184.511815 85.342365 
L 184.511815 85.342365 
" clip-path="url(#p0c34532e1c)" style="fill: none; stroke: #1f77b4; stroke-width: 1.5; stroke-linecap: square"/>
   </g>
   <g id="text_1">
    <!-- SRV-control -->
    <g transform="translate(71.778493 28.56) scale(0.2 -0.2)">
     <defs>
      <path id="DejaVuSans-53" d="M 3425 4513 
L 3425 3897 
Q 3066 4069 2747 4153 
Q 2428 4238 2131 4238 
Q 1616 4238 1336 4038 
Q 1056 3838 1056 3469 
Q 1056 3159 1242 3001 
Q 1428 2844 1947 2747 
L 2328 2669 
Q 3034 2534 3370 2195 
Q 3706 1856 3706 1288 
Q 3706 609 3251 259 
Q 2797 -91 1919 -91 
Q 1588 -91 1214 -16 
Q 841 59 441 206 
L 441 856 
Q 825 641 1194 531 
Q 1563 422 1919 422 
Q 2459 422 2753 634 
Q 3047 847 3047 1241 
Q 3047 1584 2836 1778 
Q 2625 1972 2144 2069 
L 1759 2144 
Q 1053 2284 737 2584 
Q 422 2884 422 3419 
Q 422 4038 858 4394 
Q 1294 4750 2059 4750 
Q 2388 4750 2728 4690 
Q 3069 4631 3425 4513 
z
" transform="scale(0.015625)"/>
      <path id="DejaVuSans-52" d="M 2841 2188 
Q 3044 2119 3236 1894 
Q 3428 1669 3622 1275 
L 4263 0 
L 3584 0 
L 2988 1197 
Q 2756 1666 2539 1819 
Q 2322 1972 1947 1972 
L 1259 1972 
L 1259 0 
L 628 0 
L 628 4666 
L 2053 4666 
Q 2853 4666 3247 4331 
Q 3641 3997 3641 3322 
Q 3641 2881 3436 2590 
Q 3231 2300 2841 2188 
z
M 1259 4147 
L 1259 2491 
L 2053 2491 
Q 2509 2491 2742 2702 
Q 2975 2913 2975 3322 
Q 2975 3731 2742 3939 
Q 2509 4147 2053 4147 
L 1259 4147 
z
" transform="scale(0.015625)"/>
      <path id="DejaVuSans-56" d="M 1831 0 
L 50 4666 
L 709 4666 
L 2188 738 
L 3669 4666 
L 4325 4666 
L 2547 0 
L 1831 0 
z
" transform="scale(0.015625)"/>
      <path id="DejaVuSans-2d" d="M 313 2009 
L 1997 2009 
L 1997 1497 
L 313 1497 
L 313 2009 
z
" transform="scale(0.015625)"/>
      <path id="DejaVuSans-63" d="M 3122 3366 
L 3122 2828 
Q 2878 2963 2633 3030 
Q 2388 3097 2138 3097 
Q 1578 3097 1268 2742 
Q 959 2388 959 1747 
Q 959 1106 1268 751 
Q 1578 397 2138 397 
Q 2388 397 2633 464 
Q 2878 531 3122 666 
L 3122 134 
Q 2881 22 2623 -34 
Q 2366 -91 2075 -91 
Q 1284 -91 818 406 
Q 353 903 353 1747 
Q 353 2603 823 3093 
Q 1294 3584 2113 3584 
Q 2378 3584 2631 3529 
Q 2884 3475 3122 3366 
z
" transform="scale(0.015625)"/>
      <path id="DejaVuSans-6f" d="M 1959 3097 
Q 1497 3097 1228 2736 
Q 959 2375 959 1747 
Q 959 1119 1226 758 
Q 1494 397 1959 397 
Q 2419 397 2687 759 
Q 2956 1122 2956 1747 
Q 2956 2369 2687 2733 
Q 2419 3097 1959 3097 
z
M 1959 3584 
Q 2709 3584 3137 3096 
Q 3566 2609 3566 1747 
Q 3566 888 3137 398 
Q 2709 -91 1959 -91 
Q 1206 -91 779 398 
Q 353 888 353 1747 
Q 353 2609 779 3096 
Q 1206 3584 1959 3584 
z
" transform="scale(0.015625)"/>
      <path id="DejaVuSans-6e" d="M 3513 2113 
L 3513 0 
L 2938 0 
L 2938 2094 
Q 2938 2591 2744 2837 
Q 2550 3084 2163 3084 
Q 1697 3084 1428 2787 
Q 1159 2491 1159 1978 
L 1159 0 
L 581 0 
L 581 3500 
L 1159 3500 
L 1159 2956 
Q 1366 3272 1645 3428 
Q 1925 3584 2291 3584 
Q 2894 3584 3203 3211 
Q 3513 2838 3513 2113 
z
" transform="scale(0.015625)"/>
      <path id="DejaVuSans-74" d="M 1172 4494 
L 1172 3500 
L 2356 3500 
L 2356 3053 
L 1172 3053 
L 1172 1153 
Q 1172 725 1289 603 
Q 1406 481 1766 481 
L 2356 481 
L 2356 0 
L 1766 0 
Q 1100 0 847 248 
Q 594 497 594 1153 
L 594 3053 
L 172 3053 
L 172 3500 
L 594 3500 
L 594 4494 
L 1172 4494 
z
" transform="scale(0.015625)"/>
      <path id="DejaVuSans-72" d="M 2631 2963 
Q 2534 3019 2420 3045 
Q 2306 3072 2169 3072 
Q 1681 3072 1420 2755 
Q 1159 2438 1159 1844 
L 1159 0 
L 581 0 
L 581 3500 
L 1159 3500 
L 1159 2956 
Q 1341 3275 1631 3429 
Q 1922 3584 2338 3584 
Q 2397 3584 2469 3576 
Q 2541 3569 2628 3553 
L 2631 2963 
z
" transform="scale(0.015625)"/>
      <path id="DejaVuSans-6c" d="M 603 4863 
L 1178 4863 
L 1178 0 
L 603 0 
L 603 4863 
z
" transform="scale(0.015625)"/>
     </defs>
     <use xlink:href="#DejaVuSans-53"/>
     <use xlink:href="#DejaVuSans-52" x="63.476562"/>
     <use xlink:href="#DejaVuSans-56" x="127.458984"/>
     <use xlink:href="#DejaVuSans-2d" x="189.992188"/>
     <use xlink:href="#DejaVuSans-63" x="226.076172"/>
     <use xlink:href="#DejaVuSans-6f" x="281.056641"/>
     <use xlink:href="#DejaVuSans-6e" x="342.238281"/>
     <use xlink:href="#DejaVuSans-74" x="405.617188"/>
     <use xlink:href="#DejaVuSans-72" x="444.826172"/>
     <use xlink:href="#DejaVuSans-6f" x="483.689453"/>
     <use xlink:href="#DejaVuSans-6c" x="544.871094"/>
    </g>
   </g>
  </g>
  <g id="axes_2">
   <g id="line2d_2">
    <path d="M 330.940873 84.024904 
L 330.999042 82.33608 
L 331.291074 80.590168 
L 331.991311 78.968453 
L 332.699198 77.816488 
L 332.584755 76.371143 
L 332.277282 75.312795 
L 331.574345 72.819595 
L 331.324092 71.843548 
L 330.994415 71.231527 
L 330.467397 69.904296 
L 329.901085 69.402636 
L 327.580227 68.168524 
L 326.732554 67.709972 
L 325.289482 67.215247 
L 324.686209 66.912477 
L 321.08792 66.397227 
L 319.4187 66.009755 
L 316.783002 65.35646 
L 316.557485 65.083731 
L 316.391817 64.823624 
L 315.663491 64.333189 
L 311.91721 62.501383 
L 311.377735 62.138176 
L 310.8332 61.841133 
L 307.46333 62.02216 
L 306.424432 62.153691 
L 304.887889 62.212405 
L 303.920901 62.212634 
L 301.251361 62.225653 
L 300.275913 62.325224 
L 299.539945 62.231242 
L 296.62033 61.038429 
L 296.237821 60.866151 
L 295.512603 60.684627 
L 294.452186 60.427496 
L 293.600157 60.456742 
L 292.789455 60.497098 
L 290.54774 60.350325 
L 289.202442 60.249464 
L 288.33601 60.266636 
L 287.064672 60.465622 
L 285.75426 60.355234 
L 284.954645 60.262497 
L 284.127345 60.456323 
L 282.322781 61.109655 
L 281.438547 61.480605 
L 280.625722 61.85373 
L 278.838178 62.394553 
L 277.064866 62.878539 
L 274.091401 63.113127 
L 269.35964 63.685931 
L 268.090582 63.676347 
L 267.051735 63.815504 
L 264.778478 64.737048 
L 263.232619 65.416336 
L 261.958391 65.738801 
L 260.600331 66.0132 
L 258.178951 66.403493 
L 257.521159 66.570417 
L 255.807849 66.824498 
L 253.693798 67.061752 
L 252.167878 66.96629 
L 250.786122 66.9523 
L 249.535117 67.277992 
L 248.362201 67.551914 
L 247.356337 67.537732 
L 245.860612 67.665928 
L 244.33932 67.757181 
L 243.003602 67.886702 
L 242.081943 68.040248 
L 240.832449 68.218092 
L 240.223082 68.435417 
L 237.777825 69.257772 
L 237.479407 69.475002 
L 236.963872 71.479379 
L 236.753083 71.972186 
L 236.167492 72.450943 
L 234.936504 73.181014 
L 234.015635 73.562898 
L 228.425144 74.729097 
L 227.264858 74.973534 
L 226.241161 75.466565 
L 224.621676 76.328022 
L 223.73085 77.739649 
L 222.995601 78.366645 
L 222.240267 79.006245 
L 221.191548 80.359787 
L 220.875941 80.829205 
L 220.809693 81.3885 
L 220.912831 81.826533 
L 221.300946 82.571683 
L 223.237793 85.678099 
L 223.490941 86.125313 
L 223.925901 86.508543 
L 224.77026 87.179809 
L 225.351714 87.679974 
L 226.219838 88.070046 
L 226.896703 88.205947 
L 229.24701 88.87398 
L 230.335546 89.545132 
L 231.869347 90.617512 
L 232.989377 90.994815 
L 233.935132 91.182932 
L 234.737643 91.347301 
L 239.019442 92.634554 
L 240.344237 92.975882 
L 241.979666 93.628823 
L 242.487175 93.784585 
L 246.168257 94.128731 
L 247.788741 94.576681 
L 248.875292 94.997319 
L 249.942642 95.573878 
L 250.826535 96.331167 
L 251.357759 97.176867 
L 252.274089 97.540176 
L 253.266863 97.844473 
L 259.302921 99.823059 
L 262.803277 101.468772 
L 263.243927 102.083067 
L 263.76994 102.774882 
L 264.174423 103.214659 
L 264.581306 103.701734 
L 265.425115 104.321403 
L 267.022599 105.509272 
L 268.598633 105.654171 
L 269.475463 105.621601 
L 273.022085 105.18067 
L 273.655665 105.374286 
L 275.725916 105.964665 
L 276.381945 106.214316 
L 277.854934 106.837955 
L 279.328549 107.343611 
L 281.415796 108.066307 
L 282.661067 108.738088 
L 283.892226 109.51136 
L 284.664461 109.685883 
L 285.301593 109.571212 
L 287.30175 108.917131 
L 288.81505 108.32204 
L 290.028705 108.005246 
L 291.354367 107.486253 
L 293.355207 107.10214 
L 295.037583 107.103781 
L 296.241136 107.149259 
L 298.580323 107.063959 
L 299.336632 107.161698 
L 300.092314 107.273635 
L 301.166277 107.489819 
L 302.14442 107.527614 
L 302.743072 107.345553 
L 306.920418 105.826654 
L 308.593964 105.843892 
L 309.367957 105.779177 
L 310.050733 105.574516 
L 310.548016 105.392568 
L 311.815431 104.986127 
L 314.174363 104.894417 
L 314.594846 104.63844 
L 317.107167 103.026286 
L 318.801805 102.215951 
L 319.700849 102.008045 
L 320.362096 101.798503 
L 321.81575 101.411804 
L 322.621058 101.2069 
L 325.87938 99.586022 
L 326.578861 98.68808 
L 327.24792 97.559096 
L 327.683278 96.939709 
L 329.630125 95.006042 
L 329.622587 94.690081 
L 329.467137 93.791671 
L 329.419428 92.426939 
L 329.793497 90.594649 
L 329.780385 89.258294 
L 329.171754 85.100796 
L 329.050275 83.808805 
L 329.050275 83.808805 
" clip-path="url(#p986b97535a)" style="fill: none; stroke: #ff7f0e; stroke-width: 1.5; stroke-linecap: square"/>
   </g>
   <g id="text_2">
    <!-- SRV-cytd -->
    <g transform="translate(232.45625 28.56) scale(0.2 -0.2)">
     <defs>
      <path id="DejaVuSans-79" d="M 2059 -325 
Q 1816 -950 1584 -1140 
Q 1353 -1331 966 -1331 
L 506 -1331 
L 506 -850 
L 844 -850 
Q 1081 -850 1212 -737 
Q 1344 -625 1503 -206 
L 1606 56 
L 191 3500 
L 800 3500 
L 1894 763 
L 2988 3500 
L 3597 3500 
L 2059 -325 
z
" transform="scale(0.015625)"/>
      <path id="DejaVuSans-64" d="M 2906 2969 
L 2906 4863 
L 3481 4863 
L 3481 0 
L 2906 0 
L 2906 525 
Q 2725 213 2448 61 
Q 2172 -91 1784 -91 
Q 1150 -91 751 415 
Q 353 922 353 1747 
Q 353 2572 751 3078 
Q 1150 3584 1784 3584 
Q 2172 3584 2448 3432 
Q 2725 3281 2906 2969 
z
M 947 1747 
Q 947 1113 1208 752 
Q 1469 391 1925 391 
Q 2381 391 2643 752 
Q 2906 1113 2906 1747 
Q 2906 2381 2643 2742 
Q 2381 3103 1925 3103 
Q 1469 3103 1208 2742 
Q 947 2381 947 1747 
z
" transform="scale(0.015625)"/>
     </defs>
     <use xlink:href="#DejaVuSans-53"/>
     <use xlink:href="#DejaVuSans-52" x="63.476562"/>
     <use xlink:href="#DejaVuSans-56" x="127.458984"/>
     <use xlink:href="#DejaVuSans-2d" x="189.992188"/>
     <use xlink:href="#DejaVuSans-63" x="226.076172"/>
     <use xlink:href="#DejaVuSans-79" x="281.056641"/>
     <use xlink:href="#DejaVuSans-74" x="340.236328"/>
     <use xlink:href="#DejaVuSans-64" x="379.445312"/>
    </g>
   </g>
  </g>
  <g id="axes_3">
   <g id="line2d_3">
    <path d="M 480.272147 86.005715 
L 480.113219 83.55066 
L 480.173393 82.489862 
L 480.316262 80.365411 
L 480.393724 79.630939 
L 479.736247 77.051445 
L 479.473779 76.145976 
L 479.310418 74.980028 
L 478.872033 73.355673 
L 478.473435 71.00722 
L 478.289982 70.394119 
L 477.460651 68.985312 
L 476.638274 67.78884 
L 475.269092 66.351964 
L 474.845738 66.045911 
L 473.201618 65.125962 
L 471.044859 63.703509 
L 470.439413 63.359906 
L 469.280396 62.626486 
L 468.695177 62.369457 
L 466.438996 61.00418 
L 465.26101 60.465819 
L 463.993624 59.788027 
L 463.555169 59.483949 
L 461.65665 58.650428 
L 457.15938 56.973754 
L 456.298956 56.714529 
L 455.260615 56.318904 
L 451.779287 56.331962 
L 450.96678 56.208441 
L 450.283797 56.1832 
L 448.772717 55.945572 
L 447.700141 55.784762 
L 444.684259 54.762858 
L 442.909576 54.454301 
L 441.973145 54.421791 
L 438.807255 54.296466 
L 435.695837 54.106156 
L 434.491694 53.985114 
L 433.633707 53.900895 
L 432.818542 53.793731 
L 430.259243 54.101335 
L 429.608623 54.128243 
L 427.442079 54.821932 
L 424.801902 55.225811 
L 423.107318 55.391137 
L 421.722984 55.47269 
L 419.236706 55.740906 
L 417.672631 55.845938 
L 415.565411 56.183505 
L 414.295611 56.702618 
L 404.754903 59.0021 
L 399.006755 60.682463 
L 398.141202 60.9946 
L 397.048575 61.315919 
L 394.427783 61.795883 
L 393.329145 62.134116 
L 392.239737 62.638187 
L 386.626272 65.51825 
L 385.621276 66.709603 
L 382.275471 69.61084 
L 381.509854 70.107933 
L 380.525991 70.427248 
L 379.629807 70.776584 
L 377.435091 71.879249 
L 376.702646 72.392426 
L 375.026226 73.69125 
L 374.143118 74.148741 
L 373.247712 74.452409 
L 372.705823 75.07893 
L 371.32367 77.738363 
L 370.415569 79.067617 
L 369.671916 81.007421 
L 369.131412 82.023183 
L 368.83874 82.750491 
L 368.53745 83.672448 
L 368.881127 85.849652 
L 369.647681 90.691229 
L 371.280348 93.444342 
L 371.70267 94.336211 
L 372.460335 94.785701 
L 373.257246 95.272062 
L 374.292607 96.202355 
L 375.137732 97.349834 
L 375.537383 97.914659 
L 376.08662 98.516575 
L 377.588038 99.395753 
L 378.429787 99.936023 
L 379.481301 100.314726 
L 380.49138 100.776878 
L 381.40512 101.255703 
L 382.799875 102.099904 
L 387.470327 104.978138 
L 388.229658 105.094286 
L 389.022736 105.0689 
L 391.68541 105.127602 
L 392.925266 105.514204 
L 394.488622 105.992425 
L 397.171942 107.320059 
L 398.541501 107.668537 
L 401.346252 108.198138 
L 403.011534 108.535474 
L 407.256184 109.666379 
L 407.822143 110.002813 
L 408.564991 110.338378 
L 413.549798 111.859974 
L 414.485355 111.968793 
L 416.00845 112.201174 
L 419.387584 112.307831 
L 421.766193 112.722888 
L 423.67911 113.218587 
L 426.812902 114.190627 
L 428.261315 114.383794 
L 430.508711 115.181745 
L 431.209341 115.487135 
L 432.354807 115.762135 
L 435.088535 115.872734 
L 442.161856 115.514508 
L 447.435826 116.111596 
L 448.310498 115.938939 
L 452.23824 114.539616 
L 454.529901 113.230403 
L 455.826038 112.642829 
L 457.32501 112.363537 
L 458.204422 112.226851 
L 459.352386 111.991348 
L 461.532502 111.601362 
L 463.341903 110.968752 
L 464.375867 110.251875 
L 465.226041 109.606022 
L 467.076293 108.493327 
L 468.500233 107.89284 
L 469.163542 107.559932 
L 471.671481 105.919218 
L 473.063063 105.006061 
L 473.343123 104.636988 
L 475.216609 101.196387 
L 475.823916 100.369863 
L 477.030948 98.74636 
L 477.567607 97.960435 
L 478.063849 95.770951 
L 479.267899 92.910403 
L 479.487499 91.861726 
L 479.705992 90.79551 
L 479.937037 89.205419 
L 480.168695 87.769277 
L 479.956634 86.764072 
L 479.956634 86.764072 
" clip-path="url(#p6b941c1341)" style="fill: none; stroke: #2ca02c; stroke-width: 1.5; stroke-linecap: square"/>
   </g>
   <g id="text_3">
    <!-- SRV-jasp -->
    <g transform="translate(381.384007 28.56) scale(0.2 -0.2)">
     <defs>
      <path id="DejaVuSans-6a" d="M 603 3500 
L 1178 3500 
L 1178 -63 
Q 1178 -731 923 -1031 
Q 669 -1331 103 -1331 
L -116 -1331 
L -116 -844 
L 38 -844 
Q 366 -844 484 -692 
Q 603 -541 603 -63 
L 603 3500 
z
M 603 4863 
L 1178 4863 
L 1178 4134 
L 603 4134 
L 603 4863 
z
" transform="scale(0.015625)"/>
      <path id="DejaVuSans-61" d="M 2194 1759 
Q 1497 1759 1228 1600 
Q 959 1441 959 1056 
Q 959 750 1161 570 
Q 1363 391 1709 391 
Q 2188 391 2477 730 
Q 2766 1069 2766 1631 
L 2766 1759 
L 2194 1759 
z
M 3341 1997 
L 3341 0 
L 2766 0 
L 2766 531 
Q 2569 213 2275 61 
Q 1981 -91 1556 -91 
Q 1019 -91 701 211 
Q 384 513 384 1019 
Q 384 1609 779 1909 
Q 1175 2209 1959 2209 
L 2766 2209 
L 2766 2266 
Q 2766 2663 2505 2880 
Q 2244 3097 1772 3097 
Q 1472 3097 1187 3025 
Q 903 2953 641 2809 
L 641 3341 
Q 956 3463 1253 3523 
Q 1550 3584 1831 3584 
Q 2591 3584 2966 3190 
Q 3341 2797 3341 1997 
z
" transform="scale(0.015625)"/>
      <path id="DejaVuSans-73" d="M 2834 3397 
L 2834 2853 
Q 2591 2978 2328 3040 
Q 2066 3103 1784 3103 
Q 1356 3103 1142 2972 
Q 928 2841 928 2578 
Q 928 2378 1081 2264 
Q 1234 2150 1697 2047 
L 1894 2003 
Q 2506 1872 2764 1633 
Q 3022 1394 3022 966 
Q 3022 478 2636 193 
Q 2250 -91 1575 -91 
Q 1294 -91 989 -36 
Q 684 19 347 128 
L 347 722 
Q 666 556 975 473 
Q 1284 391 1588 391 
Q 1994 391 2212 530 
Q 2431 669 2431 922 
Q 2431 1156 2273 1281 
Q 2116 1406 1581 1522 
L 1381 1569 
Q 847 1681 609 1914 
Q 372 2147 372 2553 
Q 372 3047 722 3315 
Q 1072 3584 1716 3584 
Q 2034 3584 2315 3537 
Q 2597 3491 2834 3397 
z
" transform="scale(0.015625)"/>
      <path id="DejaVuSans-70" d="M 1159 525 
L 1159 -1331 
L 581 -1331 
L 581 3500 
L 1159 3500 
L 1159 2969 
Q 1341 3281 1617 3432 
Q 1894 3584 2278 3584 
Q 2916 3584 3314 3078 
Q 3713 2572 3713 1747 
Q 3713 922 3314 415 
Q 2916 -91 2278 -91 
Q 1894 -91 1617 61 
Q 1341 213 1159 525 
z
M 3116 1747 
Q 3116 2381 2855 2742 
Q 2594 3103 2138 3103 
Q 1681 3103 1420 2742 
Q 1159 2381 1159 1747 
Q 1159 1113 1420 752 
Q 1681 391 2138 391 
Q 2594 391 2855 752 
Q 3116 1113 3116 1747 
z
" transform="scale(0.015625)"/>
     </defs>
     <use xlink:href="#DejaVuSans-53"/>
     <use xlink:href="#DejaVuSans-52" x="63.476562"/>
     <use xlink:href="#DejaVuSans-56" x="127.458984"/>
     <use xlink:href="#DejaVuSans-2d" x="189.992188"/>
     <use xlink:href="#DejaVuSans-6a" x="226.076172"/>
     <use xlink:href="#DejaVuSans-61" x="253.859375"/>
     <use xlink:href="#DejaVuSans-73" x="315.138672"/>
     <use xlink:href="#DejaVuSans-70" x="367.238281"/>
    </g>
   </g>
  </g>
  <g id="axes_4">
   <g id="line2d_4">
    <path d="M 184.053706 205.62749 
L 184.0971 202.586714 
L 184.466316 199.462339 
L 184.540537 198.370714 
L 184.345113 197.310074 
L 183.776358 195.487261 
L 182.88906 191.26556 
L 182.052215 187.74199 
L 181.112852 185.999469 
L 179.647679 183.544367 
L 175.848102 179.610543 
L 174.864645 178.60802 
L 173.762406 177.580669 
L 172.947668 176.996149 
L 171.00922 175.951305 
L 170.275859 175.336489 
L 169.351213 174.616677 
L 167.026526 173.331368 
L 166.618244 172.836283 
L 166.187329 172.230241 
L 165.743821 171.843576 
L 164.881247 171.623145 
L 163.201862 170.988778 
L 161.678604 169.871354 
L 160.947739 169.346576 
L 159.903074 168.817978 
L 157.204831 168.16698 
L 153.619831 167.913641 
L 150.586797 167.369043 
L 149.404595 166.985008 
L 146.538603 165.849604 
L 145.084812 165.456389 
L 134.990125 164.465373 
L 134.421342 164.368332 
L 133.04674 164.42324 
L 130.725225 164.850251 
L 128.438445 165.490699 
L 127.283527 165.682513 
L 120.823223 165.903631 
L 119.878552 165.807016 
L 119.295665 165.807439 
L 117.757095 166.213479 
L 115.54991 167.350079 
L 113.82305 167.757781 
L 112.0327 168.139945 
L 108.401617 169.74899 
L 107.130672 170.313525 
L 104.270907 171.381159 
L 100.211779 173.403098 
L 99.686458 173.573488 
L 98.173029 173.755356 
L 96.920294 174.144112 
L 94.630841 175.286168 
L 94.019034 175.494192 
L 93.361487 175.732981 
L 91.720321 176.33527 
L 91.222733 176.952494 
L 90.864498 178.217041 
L 90.444939 178.928815 
L 89.344921 180.011118 
L 87.921215 181.244222 
L 87.162547 181.812909 
L 86.606022 182.072614 
L 85.664417 182.627357 
L 84.727346 183.26927 
L 83.607815 184.303529 
L 81.760709 185.69622 
L 80.694398 186.533609 
L 79.97645 187.058392 
L 79.445761 187.693342 
L 79.320346 188.280123 
L 78.973564 189.649044 
L 78.601992 190.397835 
L 78.018392 191.245126 
L 76.86251 192.558311 
L 76.590562 193.250984 
L 76.389358 194.165079 
L 76.094563 195.002091 
L 75.660764 196.163911 
L 75.220366 196.89563 
L 74.192334 198.542063 
L 73.652882 200.673273 
L 73.135366 201.66841 
L 73.098376 202.061097 
L 73.315566 203.135291 
L 73.630746 204.143265 
L 73.884912 205.811279 
L 74.330948 206.985784 
L 75.615472 212.421836 
L 75.539253 213.360877 
L 75.410059 214.186142 
L 75.588073 214.776686 
L 76.090588 215.627484 
L 76.851571 216.983069 
L 77.911141 219.426603 
L 78.179621 220.359369 
L 78.487002 221.471485 
L 78.969832 222.063559 
L 80.478757 222.87611 
L 81.00715 223.252791 
L 81.745584 224.100371 
L 83.136249 226.62889 
L 83.936142 228.475362 
L 85.048363 229.428193 
L 87.031011 231.070842 
L 89.40603 232.334303 
L 90.606043 233.325872 
L 93.374027 234.935876 
L 93.7639 235.344697 
L 94.493375 236.187633 
L 95.205811 236.546521 
L 96.038869 236.682084 
L 97.102006 236.826353 
L 100.349269 238.133225 
L 102.003017 239.34842 
L 102.583822 239.745629 
L 103.519167 240.227144 
L 107.173891 241.403227 
L 108.115685 241.787696 
L 113.042779 243.05561 
L 114.16976 243.261602 
L 115.028063 243.688861 
L 116.234259 244.460215 
L 116.951046 244.768542 
L 118.138513 245.246939 
L 119.619298 245.911699 
L 122.341532 245.981926 
L 124.44961 245.855172 
L 126.405706 245.535634 
L 127.773762 245.545165 
L 130.237744 245.900224 
L 131.248448 246.0467 
L 132.086208 246.343618 
L 133.065038 246.550735 
L 136.517231 246.923302 
L 138.436579 247.477228 
L 139.649766 247.334233 
L 140.914345 247.056309 
L 143.714955 246.688068 
L 145.482995 246.248483 
L 148.847319 245.579323 
L 150.171428 245.574279 
L 153.967117 245.176743 
L 158.623889 242.927197 
L 159.898664 242.105682 
L 160.762415 241.7881 
L 164.317567 240.37903 
L 165.894807 239.871647 
L 167.222262 239.401116 
L 167.981979 238.913157 
L 170.420247 236.808138 
L 172.184998 235.642194 
L 174.495109 234.461041 
L 177.357222 232.239168 
L 178.210512 231.573122 
L 178.825383 230.658961 
L 178.972735 230.001854 
L 179.246374 229.328637 
L 180.24554 227.698613 
L 181.252291 226.34884 
L 183.007286 223.771118 
L 183.752362 222.509706 
L 183.845373 221.949481 
L 183.775471 221.291881 
L 183.635761 219.796031 
L 183.813121 218.902658 
L 184.268367 217.949522 
L 184.820314 216.8609 
L 184.937012 215.502754 
L 184.931851 213.168999 
L 184.406261 210.55992 
L 184.330179 208.4831 
L 184.276984 207.487949 
L 184.059806 205.796483 
L 184.059806 205.796483 
" clip-path="url(#p40fe24b76f)" style="fill: none; stroke: #1f77b4; stroke-width: 1.5; stroke-linecap: square"/>
   </g>
   <g id="text_4">
    <!-- Linear-control -->
    <g transform="translate(60.336305 149.52) scale(0.2 -0.2)">
     <defs>
      <path id="DejaVuSans-4c" d="M 628 4666 
L 1259 4666 
L 1259 531 
L 3531 531 
L 3531 0 
L 628 0 
L 628 4666 
z
" transform="scale(0.015625)"/>
      <path id="DejaVuSans-69" d="M 603 3500 
L 1178 3500 
L 1178 0 
L 603 0 
L 603 3500 
z
M 603 4863 
L 1178 4863 
L 1178 4134 
L 603 4134 
L 603 4863 
z
" transform="scale(0.015625)"/>
      <path id="DejaVuSans-65" d="M 3597 1894 
L 3597 1613 
L 953 1613 
Q 991 1019 1311 708 
Q 1631 397 2203 397 
Q 2534 397 2845 478 
Q 3156 559 3463 722 
L 3463 178 
Q 3153 47 2828 -22 
Q 2503 -91 2169 -91 
Q 1331 -91 842 396 
Q 353 884 353 1716 
Q 353 2575 817 3079 
Q 1281 3584 2069 3584 
Q 2775 3584 3186 3129 
Q 3597 2675 3597 1894 
z
M 3022 2063 
Q 3016 2534 2758 2815 
Q 2500 3097 2075 3097 
Q 1594 3097 1305 2825 
Q 1016 2553 972 2059 
L 3022 2063 
z
" transform="scale(0.015625)"/>
     </defs>
     <use xlink:href="#DejaVuSans-4c"/>
     <use xlink:href="#DejaVuSans-69" x="55.712891"/>
     <use xlink:href="#DejaVuSans-6e" x="83.496094"/>
     <use xlink:href="#DejaVuSans-65" x="146.875"/>
     <use xlink:href="#DejaVuSans-61" x="208.398438"/>
     <use xlink:href="#DejaVuSans-72" x="269.677734"/>
     <use xlink:href="#DejaVuSans-2d" x="304.416016"/>
     <use xlink:href="#DejaVuSans-63" x="340.5"/>
     <use xlink:href="#DejaVuSans-6f" x="395.480469"/>
     <use xlink:href="#DejaVuSans-6e" x="456.662109"/>
     <use xlink:href="#DejaVuSans-74" x="520.041016"/>
     <use xlink:href="#DejaVuSans-72" x="559.25"/>
     <use xlink:href="#DejaVuSans-6f" x="598.113281"/>
     <use xlink:href="#DejaVuSans-6c" x="659.294922"/>
    </g>
   </g>
  </g>
  <g id="axes_5">
   <g id="line2d_5">
    <path d="M 329.329224 203.56459 
L 329.498082 201.834103 
L 329.72308 200.818642 
L 329.666377 200.464958 
L 330.229408 199.259737 
L 331.492375 197.341105 
L 332.296727 196.640442 
L 332.678681 196.047389 
L 332.68313 195.327116 
L 332.322666 194.21183 
L 332.034849 193.712706 
L 331.814283 193.207123 
L 331.267834 190.197145 
L 331.284298 189.428051 
L 331.198794 189.174161 
L 330.942746 188.787048 
L 330.660557 187.975462 
L 330.544184 186.865999 
L 330.06806 186.119014 
L 329.51991 185.847089 
L 328.162072 185.32211 
L 327.091428 184.862092 
L 326.570147 184.526455 
L 326.368885 184.380862 
L 325.967454 184.405118 
L 325.268569 184.23457 
L 324.715471 184.201391 
L 324.447552 183.961778 
L 324.072451 183.597658 
L 323.658849 183.491913 
L 322.79046 183.327982 
L 322.13599 183.496935 
L 321.09251 183.41644 
L 320.005439 183.484638 
L 318.227121 183.097435 
L 315.544918 182.767209 
L 315.382464 182.609412 
L 315.099154 182.212351 
L 315.043769 182.03099 
L 315.08809 181.685191 
L 314.747731 181.24697 
L 314.574053 180.971176 
L 314.233894 180.595087 
L 313.609062 180.189782 
L 313.318325 180.082229 
L 312.649316 179.659797 
L 312.09503 179.183282 
L 311.606979 178.985144 
L 311.339811 178.788083 
L 310.703915 178.51272 
L 310.339487 178.269782 
L 309.885467 177.292024 
L 309.627797 177.137161 
L 308.28809 177.494765 
L 307.852989 177.462436 
L 307.374682 177.570768 
L 305.471158 178.060673 
L 304.854296 178.199844 
L 303.986587 178.320647 
L 301.21049 178.640416 
L 301.095806 178.835739 
L 297.969067 179.442248 
L 297.412636 179.309016 
L 296.230484 178.816324 
L 296.031491 178.590806 
L 295.621561 178.435515 
L 294.697433 177.76805 
L 293.841261 177.528017 
L 292.552775 177.116025 
L 292.02135 177.119099 
L 291.626149 177.206435 
L 290.892204 177.176222 
L 290.096329 177.071638 
L 289.622869 177.078743 
L 287.976253 176.842627 
L 286.982942 176.842412 
L 286.793265 176.693085 
L 286.584224 176.780141 
L 286.242569 177.046857 
L 284.213695 177.206213 
L 283.467927 176.797831 
L 282.508853 176.664598 
L 282.112285 176.820508 
L 280.677711 177.438603 
L 280.658224 177.548982 
L 280.155206 177.73606 
L 279.798213 177.93928 
L 278.729677 178.686233 
L 277.259096 179.238675 
L 275.763664 179.809689 
L 272.546996 180.127881 
L 271.858353 180.248438 
L 269.969807 180.601447 
L 267.367793 180.646376 
L 266.833758 180.630107 
L 266.079553 181.135771 
L 265.754004 181.322034 
L 264.65149 181.754672 
L 263.044494 183.108318 
L 262.332921 183.414448 
L 258.449875 184.370705 
L 257.987939 184.623908 
L 256.977721 184.574635 
L 256.435685 184.815165 
L 255.739432 184.985386 
L 254.669582 185.139022 
L 253.335185 185.148685 
L 251.930794 184.91135 
L 251.559568 184.849259 
L 251.101355 184.896033 
L 249.486001 185.561499 
L 249.086207 185.833435 
L 248.729409 185.846337 
L 247.995514 185.674738 
L 247.598425 185.681071 
L 247.041949 185.887359 
L 246.294181 185.829597 
L 245.41274 185.849631 
L 243.139061 185.949914 
L 241.802882 185.802639 
L 241.360169 186.023938 
L 240.60855 186.257444 
L 239.875982 186.486724 
L 238.811729 186.767082 
L 238.129377 186.818902 
L 237.859754 187.030543 
L 237.822434 187.487865 
L 237.803251 187.965033 
L 238.153642 188.640291 
L 238.709272 189.790481 
L 238.670551 190.556498 
L 238.726521 191.196563 
L 238.515815 191.707086 
L 237.950255 192.202492 
L 236.412055 193.103546 
L 235.569718 193.389391 
L 234.310861 193.647698 
L 233.386001 193.739694 
L 231.934602 193.969229 
L 230.65496 194.01544 
L 228.511132 194.491329 
L 225.980683 195.257982 
L 225.110036 196.879945 
L 224.132411 197.61411 
L 223.605536 197.889937 
L 223.381838 198.060583 
L 223.242691 198.228918 
L 222.227229 199.558079 
L 221.113484 200.284096 
L 220.812693 201.275066 
L 221.137812 201.806575 
L 221.264969 201.88891 
L 221.310088 202.071241 
L 221.421965 202.283032 
L 221.517525 202.505899 
L 222.139957 202.966118 
L 223.278752 203.875365 
L 223.712918 204.440707 
L 224.337866 205.785588 
L 224.464442 206.855217 
L 224.6796 207.042425 
L 225.018142 207.142092 
L 225.396246 207.363796 
L 226.684984 208.821556 
L 227.820924 209.487884 
L 228.651963 209.578096 
L 230.530825 209.92631 
L 232.17817 210.502062 
L 232.329795 210.779667 
L 232.483571 211.008865 
L 232.419486 211.556032 
L 233.118775 212.575728 
L 233.718505 212.752324 
L 234.513527 212.945289 
L 235.072198 213.038389 
L 236.707449 213.314571 
L 238.080738 213.690438 
L 239.203411 213.885486 
L 239.150642 213.941557 
L 239.173366 214.09193 
L 239.49374 214.132403 
L 241.354003 214.659296 
L 242.261373 214.691229 
L 243.200049 215.209973 
L 243.549666 215.738923 
L 243.736544 215.996546 
L 245.578666 216.091378 
L 247.400832 216.031634 
L 249.799379 216.633691 
L 250.507359 217.034675 
L 251.278379 217.722885 
L 251.504174 218.083163 
L 251.688614 218.281343 
L 251.993783 218.528929 
L 252.064594 218.75713 
L 251.584732 220.582012 
L 251.884662 220.875027 
L 252.211103 221.072774 
L 253.854445 221.522785 
L 255.912915 222.134041 
L 256.295515 222.32701 
L 258.5445 222.880476 
L 260.025793 223.562303 
L 261.164103 224.208358 
L 262.183748 224.292925 
L 262.680205 224.291772 
L 262.8142 224.399133 
L 263.354931 224.519892 
L 263.558273 224.622431 
L 263.99386 225.920075 
L 264.163343 226.498316 
L 264.480101 226.927353 
L 264.92862 228.185935 
L 266.184135 229.344889 
L 266.61212 229.788434 
L 266.999696 230.76686 
L 267.094895 230.909971 
L 267.01486 231.161247 
L 267.088919 231.164092 
L 267.73929 231.186894 
L 270.627075 230.849001 
L 272.2367 229.942783 
L 273.464337 229.801413 
L 275.827011 230.517746 
L 276.335347 230.648388 
L 276.744942 230.90501 
L 276.792354 231.032352 
L 280.391182 232.193187 
L 281.827281 232.795715 
L 282.870261 233.575769 
L 283.306609 234.153387 
L 283.637345 234.446072 
L 284.842265 235.244721 
L 285.272341 235.199842 
L 286.494496 234.705834 
L 287.000963 234.180169 
L 287.99213 233.3407 
L 288.941031 232.798775 
L 289.561013 232.540655 
L 291.517922 231.513831 
L 294.008469 230.875254 
L 294.99861 230.848928 
L 296.054481 230.947229 
L 297.794216 230.610853 
L 298.344457 230.632153 
L 298.991711 230.910687 
L 299.966132 231.153253 
L 300.856578 231.501058 
L 302.343945 231.580757 
L 304.14106 230.567141 
L 304.665826 230.342962 
L 305.39753 229.6611 
L 305.557137 229.343338 
L 306.497632 228.867455 
L 307.899509 228.854177 
L 309.416617 228.993088 
L 309.65825 228.926723 
L 310.755639 228.731261 
L 312.238814 227.966896 
L 314.088803 228.34656 
L 314.771718 228.510799 
L 315.019417 228.338005 
L 315.785364 227.668738 
L 317.923636 226.023179 
L 319.095867 225.487276 
L 321.071729 225.031585 
L 322.91238 224.838581 
L 323.242305 224.652886 
L 323.163267 224.654035 
L 323.230599 224.502094 
L 323.557716 224.291576 
L 323.735154 224.216938 
L 324.132362 224.103614 
L 324.697562 223.947148 
L 325.213998 223.814427 
L 326.984168 223.373519 
L 327.214961 223.0202 
L 327.393288 222.726539 
L 327.521256 222.426544 
L 327.758964 221.740265 
L 328.716528 220.112921 
L 329.878803 219.31325 
L 330.007951 219.106218 
L 330.836019 218.627472 
L 331.375701 218.390303 
L 331.484256 218.181396 
L 331.350313 217.740562 
L 330.795258 216.699724 
L 330.403064 216.053618 
L 330.363853 215.497434 
L 330.3743 214.99967 
L 330.77094 214.409824 
L 331.34403 213.682245 
L 331.377253 213.298176 
L 331.376251 212.810678 
L 331.354196 212.100014 
L 331.281195 211.253061 
L 331.149068 210.639228 
L 331.049319 210.056118 
L 330.936578 209.640406 
L 329.574454 206.582001 
L 329.536859 205.812809 
L 329.432158 205.36856 
L 329.479639 204.626501 
L 329.347901 204.178586 
L 329.318297 203.776148 
L 329.318297 203.776148 
" clip-path="url(#p6268a0c4be)" style="fill: none; stroke: #ff7f0e; stroke-width: 1.5; stroke-linecap: square"/>
   </g>
   <g id="text_5">
    <!-- Linear-cytd -->
    <g transform="translate(221.014062 149.52) scale(0.2 -0.2)">
     <use xlink:href="#DejaVuSans-4c"/>
     <use xlink:href="#DejaVuSans-69" x="55.712891"/>
     <use xlink:href="#DejaVuSans-6e" x="83.496094"/>
     <use xlink:href="#DejaVuSans-65" x="146.875"/>
     <use xlink:href="#DejaVuSans-61" x="208.398438"/>
     <use xlink:href="#DejaVuSans-72" x="269.677734"/>
     <use xlink:href="#DejaVuSans-2d" x="304.416016"/>
     <use xlink:href="#DejaVuSans-63" x="340.5"/>
     <use xlink:href="#DejaVuSans-79" x="395.480469"/>
     <use xlink:href="#DejaVuSans-74" x="454.660156"/>
     <use xlink:href="#DejaVuSans-64" x="493.869141"/>
    </g>
   </g>
  </g>
  <g id="axes_6">
   <g id="line2d_6">
    <path d="M 480.069183 206.152662 
L 479.763397 203.739594 
L 479.812801 202.906609 
L 479.815518 201.454256 
L 480.034671 199.796895 
L 479.470368 197.490038 
L 479.274975 196.860887 
L 479.052303 195.695532 
L 478.509971 194.097252 
L 478.170626 192.765082 
L 477.758539 190.571 
L 477.166497 189.532877 
L 475.4913 187.343647 
L 474.741907 186.434571 
L 474.345984 186.081356 
L 472.122053 184.836612 
L 470.230157 183.746533 
L 469.681033 183.454463 
L 468.585443 182.779216 
L 467.794804 182.585816 
L 466.001347 181.494656 
L 463.607611 180.53295 
L 462.525782 179.916425 
L 460.21288 178.859061 
L 458.732365 178.332197 
L 457.130659 177.538624 
L 456.465433 177.297948 
L 455.568146 177.069011 
L 454.408726 176.457352 
L 450.405868 176.733797 
L 449.736996 176.650553 
L 449.260345 176.705599 
L 447.774625 176.485603 
L 446.10966 176.347534 
L 444.804957 175.832809 
L 443.946116 175.561863 
L 443.332863 175.304159 
L 442.735872 175.08814 
L 442.137171 174.895309 
L 439.504001 174.802668 
L 435.84809 174.678607 
L 434.525732 174.674106 
L 433.338691 174.508841 
L 432.151206 174.442507 
L 431.392284 174.318794 
L 428.923389 174.617943 
L 428.317435 174.654986 
L 427.763022 175.009782 
L 427.212466 175.273116 
L 425.999563 175.641934 
L 423.700795 176.054343 
L 422.632163 176.169255 
L 419.759198 176.333211 
L 418.145546 176.400718 
L 417.42886 176.358605 
L 415.279308 176.57682 
L 414.275765 176.735265 
L 413.790047 177.000655 
L 411.84945 177.454761 
L 403.202446 179.912358 
L 402.224206 180.249205 
L 401.123537 180.636161 
L 398.013326 181.685389 
L 396.35239 182.289276 
L 394.896659 182.469281 
L 393.103898 182.880859 
L 390.405453 184.100909 
L 388.954191 184.899004 
L 387.723077 185.415426 
L 386.589927 185.775861 
L 386.229075 186.137193 
L 385.173377 187.435721 
L 384.52416 188.171126 
L 382.915707 189.722796 
L 381.71415 190.504062 
L 379.588262 191.223995 
L 378.65062 191.432819 
L 377.306751 192.030071 
L 376.548793 192.608084 
L 375.877654 193.075105 
L 375.412161 193.444177 
L 374.76276 193.952836 
L 373.939629 194.251386 
L 373.30931 194.365253 
L 372.758508 195.006779 
L 372.432559 195.688688 
L 371.994388 197.047968 
L 371.79603 197.720522 
L 371.425492 198.236721 
L 370.574302 199.423143 
L 369.868663 201.656139 
L 369.26626 202.643684 
L 369.193471 203.122733 
L 368.7908 203.901817 
L 368.506684 204.436847 
L 368.666318 205.582597 
L 368.671307 206.381695 
L 369.154652 208.636257 
L 369.439628 212.030181 
L 369.482049 212.419639 
L 369.950653 213.146286 
L 370.486365 213.659094 
L 371.226471 215.324572 
L 371.557716 216.385542 
L 372.096031 216.76678 
L 372.611992 216.872181 
L 373.5646 217.437336 
L 374.079799 217.806319 
L 374.409638 218.165507 
L 375.371976 219.410489 
L 375.759687 220.00136 
L 376.118073 220.720752 
L 376.36611 220.96085 
L 379.115473 222.662988 
L 381.166004 223.516115 
L 381.944722 223.987457 
L 385.409612 226.334433 
L 386.037384 226.598464 
L 387.866547 227.408224 
L 389.011119 227.376995 
L 391.611235 227.120616 
L 392.417572 227.364596 
L 393.481293 227.613892 
L 394.145051 227.821307 
L 396.135455 228.84519 
L 396.721153 229.155405 
L 403.712434 230.254304 
L 405.326505 230.646543 
L 407.140665 231.097747 
L 407.635061 231.325253 
L 408.036641 231.573986 
L 409.609023 232.184241 
L 412.701005 233.296122 
L 413.11022 233.433715 
L 416.263913 233.680813 
L 418.299065 233.689903 
L 420.101407 233.759238 
L 422.626042 234.219428 
L 424.829302 235.187615 
L 425.435126 235.48601 
L 425.858761 235.542227 
L 427.389634 235.630074 
L 428.855229 236.051648 
L 429.132904 236.198658 
L 429.866973 236.4328 
L 430.413245 236.808964 
L 431.145038 237.127746 
L 431.982098 237.398219 
L 433.774602 237.497503 
L 434.516774 237.45541 
L 435.175243 237.398857 
L 436.12132 237.335827 
L 436.884538 237.240274 
L 437.819858 237.119756 
L 439.601993 236.874698 
L 441.922515 236.820178 
L 442.26108 236.916265 
L 443.119251 236.97837 
L 443.710369 237.102907 
L 446.149481 237.349376 
L 446.888176 237.526847 
L 447.905648 237.400504 
L 451.765786 236.121816 
L 452.510408 235.654943 
L 454.493215 234.3985 
L 455.253497 234.022198 
L 456.425908 233.740745 
L 457.378125 233.597408 
L 458.24906 233.390306 
L 459.235331 233.302028 
L 459.642486 233.187812 
L 460.768482 232.949225 
L 462.458531 232.509328 
L 462.85471 232.310322 
L 463.979246 231.417305 
L 464.584257 230.888841 
L 468.158838 228.936202 
L 469.151336 228.559757 
L 472.267698 226.354668 
L 473.554818 225.499783 
L 475.55818 221.642342 
L 475.900002 221.137132 
L 476.246632 220.510903 
L 477.11711 219.330606 
L 477.832899 218.382478 
L 477.923722 217.581932 
L 478.695539 215.354709 
L 479.567893 213.042929 
L 479.764633 212.147454 
L 480.039518 210.947574 
L 480.092886 209.883568 
L 480.207797 208.351652 
L 480.397728 207.576351 
L 480.086478 206.315022 
L 480.086478 206.315022 
" clip-path="url(#p224d93de65)" style="fill: none; stroke: #2ca02c; stroke-width: 1.5; stroke-linecap: square"/>
   </g>
   <g id="text_6">
    <!-- Linear-jasp -->
    <g transform="translate(369.94182 149.52) scale(0.2 -0.2)">
     <use xlink:href="#DejaVuSans-4c"/>
     <use xlink:href="#DejaVuSans-69" x="55.712891"/>
     <use xlink:href="#DejaVuSans-6e" x="83.496094"/>
     <use xlink:href="#DejaVuSans-65" x="146.875"/>
     <use xlink:href="#DejaVuSans-61" x="208.398438"/>
     <use xlink:href="#DejaVuSans-72" x="269.677734"/>
     <use xlink:href="#DejaVuSans-2d" x="304.416016"/>
     <use xlink:href="#DejaVuSans-6a" x="340.5"/>
     <use xlink:href="#DejaVuSans-61" x="368.283203"/>
     <use xlink:href="#DejaVuSans-73" x="429.5625"/>
     <use xlink:href="#DejaVuSans-70" x="481.662109"/>
    </g>
   </g>
  </g>
 </g>
 <defs>
  <clipPath id="p0c34532e1c">
   <rect x="67.5" y="34.56" width="123.088235" height="100.8"/>
  </clipPath>
  <clipPath id="p986b97535a">
   <rect x="215.205882" y="34.56" width="123.088235" height="100.8"/>
  </clipPath>
  <clipPath id="p6b941c1341">
   <rect x="362.911765" y="34.56" width="123.088235" height="100.8"/>
  </clipPath>
  <clipPath id="p40fe24b76f">
   <rect x="67.5" y="155.52" width="123.088235" height="100.8"/>
  </clipPath>
  <clipPath id="p6268a0c4be">
   <rect x="215.205882" y="155.52" width="123.088235" height="100.8"/>
  </clipPath>
  <clipPath id="p224d93de65">
   <rect x="362.911765" y="155.52" width="123.088235" height="100.8"/>
  </clipPath>
 </defs>
</svg>
