<?xml version="1.0" encoding="utf-8" standalone="no"?>
<!DOCTYPE svg PUBLIC "-//W3C//DTD SVG 1.1//EN"
  "http://www.w3.org/Graphics/SVG/1.1/DTD/svg11.dtd">
<svg xmlns:xlink="http://www.w3.org/1999/xlink" width="576pt" height="288pt" viewBox="0 0 576 288" xmlns="http://www.w3.org/2000/svg" version="1.1">
 <metadata>
  <rdf:RDF xmlns:dc="http://purl.org/dc/elements/1.1/" xmlns:cc="http://creativecommons.org/ns#" xmlns:rdf="http://www.w3.org/1999/02/22-rdf-syntax-ns#">
   <cc:Work>
    <dc:type rdf:resource="http://purl.org/dc/dcmitype/StillImage"/>
    <dc:date>2024-03-26T17:18:01.075431</dc:date>
    <dc:format>image/svg+xml</dc:format>
    <dc:creator>
     <cc:Agent>
      <dc:title>Matplotlib v3.8.3, https://matplotlib.org/</dc:title>
     </cc:Agent>
    </dc:creator>
   </cc:Work>
  </rdf:RDF>
 </metadata>
 <defs>
  <style type="text/css">*{stroke-linejoin: round; stroke-linecap: butt}</style>
 </defs>
 <g id="figure_1">
  <g id="patch_1">
   <path d="M 0 288 
L 576 288 
L 576 0 
L 0 0 
z
" style="fill: #ffffff"/>
  </g>
  <g id="axes_1">
   <g id="patch_2">
    <path d="M 57.615 260.521875 
L 278.653084 260.521875 
L 278.653084 27.437812 
L 57.615 27.437812 
z
" style="fill: #ffffff"/>
   </g>
   <g id="patch_3">
    <path d="M 73.430695 260.521875 
L 76.665312 260.521875 
L 76.665312 160.270665 
L 73.430695 160.270665 
z
" clip-path="url(#p3baefabe9a)" style="fill: #1f77b4; opacity: 0.4"/>
   </g>
   <g id="patch_4">
    <path d="M 76.665312 260.521875 
L 79.89993 260.521875 
L 79.89993 38.537054 
L 76.665312 38.537054 
z
" clip-path="url(#p3baefabe9a)" style="fill: #1f77b4; opacity: 0.4"/>
   </g>
   <g id="patch_5">
    <path d="M 79.89993 260.521875 
L 83.134547 260.521875 
L 83.134547 145.949064 
L 79.89993 145.949064 
z
" clip-path="url(#p3baefabe9a)" style="fill: #1f77b4; opacity: 0.4"/>
   </g>
   <g id="patch_6">
    <path d="M 83.134547 260.521875 
L 86.369165 260.521875 
L 86.369165 188.913868 
L 83.134547 188.913868 
z
" clip-path="url(#p3baefabe9a)" style="fill: #1f77b4; opacity: 0.4"/>
   </g>
   <g id="patch_7">
    <path d="M 86.369165 260.521875 
L 89.603783 260.521875 
L 89.603783 217.557071 
L 86.369165 217.557071 
z
" clip-path="url(#p3baefabe9a)" style="fill: #1f77b4; opacity: 0.4"/>
   </g>
   <g id="patch_8">
    <path d="M 89.603783 260.521875 
L 92.8384 260.521875 
L 92.8384 239.039473 
L 89.603783 239.039473 
z
" clip-path="url(#p3baefabe9a)" style="fill: #1f77b4; opacity: 0.4"/>
   </g>
   <g id="patch_9">
    <path d="M 92.8384 260.521875 
L 96.073018 260.521875 
L 96.073018 239.039473 
L 92.8384 239.039473 
z
" clip-path="url(#p3baefabe9a)" style="fill: #1f77b4; opacity: 0.4"/>
   </g>
   <g id="patch_10">
    <path d="M 96.073018 260.521875 
L 99.307635 260.521875 
L 99.307635 231.878672 
L 96.073018 231.878672 
z
" clip-path="url(#p3baefabe9a)" style="fill: #1f77b4; opacity: 0.4"/>
   </g>
   <g id="patch_11">
    <path d="M 99.307635 260.521875 
L 102.542253 260.521875 
L 102.542253 203.235469 
L 99.307635 203.235469 
z
" clip-path="url(#p3baefabe9a)" style="fill: #1f77b4; opacity: 0.4"/>
   </g>
   <g id="patch_12">
    <path d="M 102.542253 260.521875 
L 105.776871 260.521875 
L 105.776871 224.717872 
L 102.542253 224.717872 
z
" clip-path="url(#p3baefabe9a)" style="fill: #1f77b4; opacity: 0.4"/>
   </g>
   <g id="patch_13">
    <path d="M 105.776871 260.521875 
L 109.011488 260.521875 
L 109.011488 246.200274 
L 105.776871 246.200274 
z
" clip-path="url(#p3baefabe9a)" style="fill: #1f77b4; opacity: 0.4"/>
   </g>
   <g id="patch_14">
    <path d="M 109.011488 260.521875 
L 112.246106 260.521875 
L 112.246106 239.039473 
L 109.011488 239.039473 
z
" clip-path="url(#p3baefabe9a)" style="fill: #1f77b4; opacity: 0.4"/>
   </g>
   <g id="patch_15">
    <path d="M 112.246106 260.521875 
L 115.480723 260.521875 
L 115.480723 231.878672 
L 112.246106 231.878672 
z
" clip-path="url(#p3baefabe9a)" style="fill: #1f77b4; opacity: 0.4"/>
   </g>
   <g id="patch_16">
    <path d="M 115.480723 260.521875 
L 118.715341 260.521875 
L 118.715341 253.361074 
L 115.480723 253.361074 
z
" clip-path="url(#p3baefabe9a)" style="fill: #1f77b4; opacity: 0.4"/>
   </g>
   <g id="patch_17">
    <path d="M 118.715341 260.521875 
L 121.949959 260.521875 
L 121.949959 253.361074 
L 118.715341 253.361074 
z
" clip-path="url(#p3baefabe9a)" style="fill: #1f77b4; opacity: 0.4"/>
   </g>
   <g id="patch_18">
    <path d="M 121.949959 260.521875 
L 125.184576 260.521875 
L 125.184576 253.361074 
L 121.949959 253.361074 
z
" clip-path="url(#p3baefabe9a)" style="fill: #1f77b4; opacity: 0.4"/>
   </g>
   <g id="patch_19">
    <path d="M 125.184576 260.521875 
L 128.419194 260.521875 
L 128.419194 253.361074 
L 125.184576 253.361074 
z
" clip-path="url(#p3baefabe9a)" style="fill: #1f77b4; opacity: 0.4"/>
   </g>
   <g id="patch_20">
    <path d="M 128.419194 260.521875 
L 131.653811 260.521875 
L 131.653811 260.521875 
L 128.419194 260.521875 
z
" clip-path="url(#p3baefabe9a)" style="fill: #1f77b4; opacity: 0.4"/>
   </g>
   <g id="patch_21">
    <path d="M 131.653811 260.521875 
L 134.888429 260.521875 
L 134.888429 260.521875 
L 131.653811 260.521875 
z
" clip-path="url(#p3baefabe9a)" style="fill: #1f77b4; opacity: 0.4"/>
   </g>
   <g id="patch_22">
    <path d="M 134.888429 260.521875 
L 138.123047 260.521875 
L 138.123047 253.361074 
L 134.888429 253.361074 
z
" clip-path="url(#p3baefabe9a)" style="fill: #1f77b4; opacity: 0.4"/>
   </g>
   <g id="patch_23">
    <path d="M 97.098083 260.521875 
L 105.645317 260.521875 
L 105.645317 237.351929 
L 97.098083 237.351929 
z
" clip-path="url(#p3baefabe9a)" style="fill: #ff7f0e; opacity: 0.4"/>
   </g>
   <g id="patch_24">
    <path d="M 105.645317 260.521875 
L 114.192552 260.521875 
L 114.192552 225.766956 
L 105.645317 225.766956 
z
" clip-path="url(#p3baefabe9a)" style="fill: #ff7f0e; opacity: 0.4"/>
   </g>
   <g id="patch_25">
    <path d="M 114.192552 260.521875 
L 122.739786 260.521875 
L 122.739786 233.490271 
L 114.192552 233.490271 
z
" clip-path="url(#p3baefabe9a)" style="fill: #ff7f0e; opacity: 0.4"/>
   </g>
   <g id="patch_26">
    <path d="M 122.739786 260.521875 
L 131.287021 260.521875 
L 131.287021 221.905298 
L 122.739786 221.905298 
z
" clip-path="url(#p3baefabe9a)" style="fill: #ff7f0e; opacity: 0.4"/>
   </g>
   <g id="patch_27">
    <path d="M 131.287021 260.521875 
L 139.834255 260.521875 
L 139.834255 221.905298 
L 131.287021 221.905298 
z
" clip-path="url(#p3baefabe9a)" style="fill: #ff7f0e; opacity: 0.4"/>
   </g>
   <g id="patch_28">
    <path d="M 139.834255 260.521875 
L 148.38149 260.521875 
L 148.38149 241.213587 
L 139.834255 241.213587 
z
" clip-path="url(#p3baefabe9a)" style="fill: #ff7f0e; opacity: 0.4"/>
   </g>
   <g id="patch_29">
    <path d="M 148.38149 260.521875 
L 156.928725 260.521875 
L 156.928725 245.075244 
L 148.38149 245.075244 
z
" clip-path="url(#p3baefabe9a)" style="fill: #ff7f0e; opacity: 0.4"/>
   </g>
   <g id="patch_30">
    <path d="M 156.928725 260.521875 
L 165.475959 260.521875 
L 165.475959 241.213587 
L 156.928725 241.213587 
z
" clip-path="url(#p3baefabe9a)" style="fill: #ff7f0e; opacity: 0.4"/>
   </g>
   <g id="patch_31">
    <path d="M 165.475959 260.521875 
L 174.023194 260.521875 
L 174.023194 221.905298 
L 165.475959 221.905298 
z
" clip-path="url(#p3baefabe9a)" style="fill: #ff7f0e; opacity: 0.4"/>
   </g>
   <g id="patch_32">
    <path d="M 174.023194 260.521875 
L 182.570428 260.521875 
L 182.570428 252.79856 
L 174.023194 252.79856 
z
" clip-path="url(#p3baefabe9a)" style="fill: #ff7f0e; opacity: 0.4"/>
   </g>
   <g id="patch_33">
    <path d="M 182.570428 260.521875 
L 191.117663 260.521875 
L 191.117663 248.936902 
L 182.570428 248.936902 
z
" clip-path="url(#p3baefabe9a)" style="fill: #ff7f0e; opacity: 0.4"/>
   </g>
   <g id="patch_34">
    <path d="M 191.117663 260.521875 
L 199.664897 260.521875 
L 199.664897 260.521875 
L 191.117663 260.521875 
z
" clip-path="url(#p3baefabe9a)" style="fill: #ff7f0e; opacity: 0.4"/>
   </g>
   <g id="patch_35">
    <path d="M 199.664897 260.521875 
L 208.212132 260.521875 
L 208.212132 260.521875 
L 199.664897 260.521875 
z
" clip-path="url(#p3baefabe9a)" style="fill: #ff7f0e; opacity: 0.4"/>
   </g>
   <g id="patch_36">
    <path d="M 208.212132 260.521875 
L 216.759366 260.521875 
L 216.759366 252.79856 
L 208.212132 252.79856 
z
" clip-path="url(#p3baefabe9a)" style="fill: #ff7f0e; opacity: 0.4"/>
   </g>
   <g id="patch_37">
    <path d="M 216.759366 260.521875 
L 225.306601 260.521875 
L 225.306601 252.79856 
L 216.759366 252.79856 
z
" clip-path="url(#p3baefabe9a)" style="fill: #ff7f0e; opacity: 0.4"/>
   </g>
   <g id="patch_38">
    <path d="M 225.306601 260.521875 
L 233.853835 260.521875 
L 233.853835 260.521875 
L 225.306601 260.521875 
z
" clip-path="url(#p3baefabe9a)" style="fill: #ff7f0e; opacity: 0.4"/>
   </g>
   <g id="patch_39">
    <path d="M 233.853835 260.521875 
L 242.40107 260.521875 
L 242.40107 260.521875 
L 233.853835 260.521875 
z
" clip-path="url(#p3baefabe9a)" style="fill: #ff7f0e; opacity: 0.4"/>
   </g>
   <g id="patch_40">
    <path d="M 242.40107 260.521875 
L 250.948305 260.521875 
L 250.948305 260.521875 
L 242.40107 260.521875 
z
" clip-path="url(#p3baefabe9a)" style="fill: #ff7f0e; opacity: 0.4"/>
   </g>
   <g id="patch_41">
    <path d="M 250.948305 260.521875 
L 259.495539 260.521875 
L 259.495539 260.521875 
L 250.948305 260.521875 
z
" clip-path="url(#p3baefabe9a)" style="fill: #ff7f0e; opacity: 0.4"/>
   </g>
   <g id="patch_42">
    <path d="M 259.495539 260.521875 
L 268.042774 260.521875 
L 268.042774 241.213587 
L 259.495539 241.213587 
z
" clip-path="url(#p3baefabe9a)" style="fill: #ff7f0e; opacity: 0.4"/>
   </g>
   <g id="patch_43">
    <path d="M 78.868393 260.521875 
L 81.884088 260.521875 
L 81.884088 175.787131 
L 78.868393 175.787131 
z
" clip-path="url(#p3baefabe9a)" style="fill: #2ca02c; opacity: 0.4"/>
   </g>
   <g id="patch_44">
    <path d="M 81.884088 260.521875 
L 84.899783 260.521875 
L 84.899783 119.297302 
L 81.884088 119.297302 
z
" clip-path="url(#p3baefabe9a)" style="fill: #2ca02c; opacity: 0.4"/>
   </g>
   <g id="patch_45">
    <path d="M 84.899783 260.521875 
L 87.915478 260.521875 
L 87.915478 218.154503 
L 84.899783 218.154503 
z
" clip-path="url(#p3baefabe9a)" style="fill: #2ca02c; opacity: 0.4"/>
   </g>
   <g id="patch_46">
    <path d="M 87.915478 260.521875 
L 90.931173 260.521875 
L 90.931173 147.542216 
L 87.915478 147.542216 
z
" clip-path="url(#p3baefabe9a)" style="fill: #2ca02c; opacity: 0.4"/>
   </g>
   <g id="patch_47">
    <path d="M 90.931173 260.521875 
L 93.946868 260.521875 
L 93.946868 161.664674 
L 90.931173 161.664674 
z
" clip-path="url(#p3baefabe9a)" style="fill: #2ca02c; opacity: 0.4"/>
   </g>
   <g id="patch_48">
    <path d="M 93.946868 260.521875 
L 96.962563 260.521875 
L 96.962563 204.032046 
L 93.946868 204.032046 
z
" clip-path="url(#p3baefabe9a)" style="fill: #2ca02c; opacity: 0.4"/>
   </g>
   <g id="patch_49">
    <path d="M 96.962563 260.521875 
L 99.978258 260.521875 
L 99.978258 189.909588 
L 96.962563 189.909588 
z
" clip-path="url(#p3baefabe9a)" style="fill: #2ca02c; opacity: 0.4"/>
   </g>
   <g id="patch_50">
    <path d="M 99.978258 260.521875 
L 102.993953 260.521875 
L 102.993953 204.032046 
L 99.978258 204.032046 
z
" clip-path="url(#p3baefabe9a)" style="fill: #2ca02c; opacity: 0.4"/>
   </g>
   <g id="patch_51">
    <path d="M 102.993953 260.521875 
L 106.009648 260.521875 
L 106.009648 204.032046 
L 102.993953 204.032046 
z
" clip-path="url(#p3baefabe9a)" style="fill: #2ca02c; opacity: 0.4"/>
   </g>
   <g id="patch_52">
    <path d="M 106.009648 260.521875 
L 109.025343 260.521875 
L 109.025343 204.032046 
L 106.009648 204.032046 
z
" clip-path="url(#p3baefabe9a)" style="fill: #2ca02c; opacity: 0.4"/>
   </g>
   <g id="patch_53">
    <path d="M 109.025343 260.521875 
L 112.041038 260.521875 
L 112.041038 246.399418 
L 109.025343 246.399418 
z
" clip-path="url(#p3baefabe9a)" style="fill: #2ca02c; opacity: 0.4"/>
   </g>
   <g id="patch_54">
    <path d="M 112.041038 260.521875 
L 115.056733 260.521875 
L 115.056733 260.521875 
L 112.041038 260.521875 
z
" clip-path="url(#p3baefabe9a)" style="fill: #2ca02c; opacity: 0.4"/>
   </g>
   <g id="patch_55">
    <path d="M 115.056733 260.521875 
L 118.072428 260.521875 
L 118.072428 246.399418 
L 115.056733 246.399418 
z
" clip-path="url(#p3baefabe9a)" style="fill: #2ca02c; opacity: 0.4"/>
   </g>
   <g id="patch_56">
    <path d="M 118.072428 260.521875 
L 121.088123 260.521875 
L 121.088123 260.521875 
L 118.072428 260.521875 
z
" clip-path="url(#p3baefabe9a)" style="fill: #2ca02c; opacity: 0.4"/>
   </g>
   <g id="patch_57">
    <path d="M 121.088123 260.521875 
L 124.103818 260.521875 
L 124.103818 260.521875 
L 121.088123 260.521875 
z
" clip-path="url(#p3baefabe9a)" style="fill: #2ca02c; opacity: 0.4"/>
   </g>
   <g id="patch_58">
    <path d="M 124.103818 260.521875 
L 127.119514 260.521875 
L 127.119514 246.399418 
L 124.103818 246.399418 
z
" clip-path="url(#p3baefabe9a)" style="fill: #2ca02c; opacity: 0.4"/>
   </g>
   <g id="patch_59">
    <path d="M 127.119514 260.521875 
L 130.135209 260.521875 
L 130.135209 260.521875 
L 127.119514 260.521875 
z
" clip-path="url(#p3baefabe9a)" style="fill: #2ca02c; opacity: 0.4"/>
   </g>
   <g id="patch_60">
    <path d="M 130.135209 260.521875 
L 133.150904 260.521875 
L 133.150904 260.521875 
L 130.135209 260.521875 
z
" clip-path="url(#p3baefabe9a)" style="fill: #2ca02c; opacity: 0.4"/>
   </g>
   <g id="patch_61">
    <path d="M 133.150904 260.521875 
L 136.166599 260.521875 
L 136.166599 246.399418 
L 133.150904 246.399418 
z
" clip-path="url(#p3baefabe9a)" style="fill: #2ca02c; opacity: 0.4"/>
   </g>
   <g id="patch_62">
    <path d="M 136.166599 260.521875 
L 139.182294 260.521875 
L 139.182294 218.154503 
L 136.166599 218.154503 
z
" clip-path="url(#p3baefabe9a)" style="fill: #2ca02c; opacity: 0.4"/>
   </g>
   <g id="matplotlib.axis_1">
    <g id="xtick_1">
     <g id="line2d_1">
      <defs>
       <path id="mbec4b35d2e" d="M 0 0 
L 0 3.5 
" style="stroke: #000000; stroke-width: 0.8"/>
      </defs>
      <g>
       <use xlink:href="#mbec4b35d2e" x="82.015308" y="260.521875" style="stroke: #000000; stroke-width: 0.8"/>
      </g>
     </g>
     <g id="text_1">
      <!-- 10 -->
      <g transform="translate(75.652808 275.120313) scale(0.1 -0.1)">
       <defs>
        <path id="DejaVuSans-31" d="M 794 531 
L 1825 531 
L 1825 4091 
L 703 3866 
L 703 4441 
L 1819 4666 
L 2450 4666 
L 2450 531 
L 3481 531 
L 3481 0 
L 794 0 
L 794 531 
z
" transform="scale(0.015625)"/>
        <path id="DejaVuSans-30" d="M 2034 4250 
Q 1547 4250 1301 3770 
Q 1056 3291 1056 2328 
Q 1056 1369 1301 889 
Q 1547 409 2034 409 
Q 2525 409 2770 889 
Q 3016 1369 3016 2328 
Q 3016 3291 2770 3770 
Q 2525 4250 2034 4250 
z
M 2034 4750 
Q 2819 4750 3233 4129 
Q 3647 3509 3647 2328 
Q 3647 1150 3233 529 
Q 2819 -91 2034 -91 
Q 1250 -91 836 529 
Q 422 1150 422 2328 
Q 422 3509 836 4129 
Q 1250 4750 2034 4750 
z
" transform="scale(0.015625)"/>
       </defs>
       <use xlink:href="#DejaVuSans-31"/>
       <use xlink:href="#DejaVuSans-30" x="63.623047"/>
      </g>
     </g>
    </g>
    <g id="xtick_2">
     <g id="line2d_2">
      <g>
       <use xlink:href="#mbec4b35d2e" x="129.859049" y="260.521875" style="stroke: #000000; stroke-width: 0.8"/>
      </g>
     </g>
     <g id="text_2">
      <!-- 20 -->
      <g transform="translate(123.496549 275.120313) scale(0.1 -0.1)">
       <defs>
        <path id="DejaVuSans-32" d="M 1228 531 
L 3431 531 
L 3431 0 
L 469 0 
L 469 531 
Q 828 903 1448 1529 
Q 2069 2156 2228 2338 
Q 2531 2678 2651 2914 
Q 2772 3150 2772 3378 
Q 2772 3750 2511 3984 
Q 2250 4219 1831 4219 
Q 1534 4219 1204 4116 
Q 875 4013 500 3803 
L 500 4441 
Q 881 4594 1212 4672 
Q 1544 4750 1819 4750 
Q 2544 4750 2975 4387 
Q 3406 4025 3406 3419 
Q 3406 3131 3298 2873 
Q 3191 2616 2906 2266 
Q 2828 2175 2409 1742 
Q 1991 1309 1228 531 
z
" transform="scale(0.015625)"/>
       </defs>
       <use xlink:href="#DejaVuSans-32"/>
       <use xlink:href="#DejaVuSans-30" x="63.623047"/>
      </g>
     </g>
    </g>
    <g id="xtick_3">
     <g id="line2d_3">
      <g>
       <use xlink:href="#mbec4b35d2e" x="177.70279" y="260.521875" style="stroke: #000000; stroke-width: 0.8"/>
      </g>
     </g>
     <g id="text_3">
      <!-- 30 -->
      <g transform="translate(171.34029 275.120313) scale(0.1 -0.1)">
       <defs>
        <path id="DejaVuSans-33" d="M 2597 2516 
Q 3050 2419 3304 2112 
Q 3559 1806 3559 1356 
Q 3559 666 3084 287 
Q 2609 -91 1734 -91 
Q 1441 -91 1130 -33 
Q 819 25 488 141 
L 488 750 
Q 750 597 1062 519 
Q 1375 441 1716 441 
Q 2309 441 2620 675 
Q 2931 909 2931 1356 
Q 2931 1769 2642 2001 
Q 2353 2234 1838 2234 
L 1294 2234 
L 1294 2753 
L 1863 2753 
Q 2328 2753 2575 2939 
Q 2822 3125 2822 3475 
Q 2822 3834 2567 4026 
Q 2313 4219 1838 4219 
Q 1578 4219 1281 4162 
Q 984 4106 628 3988 
L 628 4550 
Q 988 4650 1302 4700 
Q 1616 4750 1894 4750 
Q 2613 4750 3031 4423 
Q 3450 4097 3450 3541 
Q 3450 3153 3228 2886 
Q 3006 2619 2597 2516 
z
" transform="scale(0.015625)"/>
       </defs>
       <use xlink:href="#DejaVuSans-33"/>
       <use xlink:href="#DejaVuSans-30" x="63.623047"/>
      </g>
     </g>
    </g>
    <g id="xtick_4">
     <g id="line2d_4">
      <g>
       <use xlink:href="#mbec4b35d2e" x="225.546532" y="260.521875" style="stroke: #000000; stroke-width: 0.8"/>
      </g>
     </g>
     <g id="text_4">
      <!-- 40 -->
      <g transform="translate(219.184032 275.120313) scale(0.1 -0.1)">
       <defs>
        <path id="DejaVuSans-34" d="M 2419 4116 
L 825 1625 
L 2419 1625 
L 2419 4116 
z
M 2253 4666 
L 3047 4666 
L 3047 1625 
L 3713 1625 
L 3713 1100 
L 3047 1100 
L 3047 0 
L 2419 0 
L 2419 1100 
L 313 1100 
L 313 1709 
L 2253 4666 
z
" transform="scale(0.015625)"/>
       </defs>
       <use xlink:href="#DejaVuSans-34"/>
       <use xlink:href="#DejaVuSans-30" x="63.623047"/>
      </g>
     </g>
    </g>
    <g id="xtick_5">
     <g id="line2d_5">
      <g>
       <use xlink:href="#mbec4b35d2e" x="273.390273" y="260.521875" style="stroke: #000000; stroke-width: 0.8"/>
      </g>
     </g>
     <g id="text_5">
      <!-- 50 -->
      <g transform="translate(267.027773 275.120313) scale(0.1 -0.1)">
       <defs>
        <path id="DejaVuSans-35" d="M 691 4666 
L 3169 4666 
L 3169 4134 
L 1269 4134 
L 1269 2991 
Q 1406 3038 1543 3061 
Q 1681 3084 1819 3084 
Q 2600 3084 3056 2656 
Q 3513 2228 3513 1497 
Q 3513 744 3044 326 
Q 2575 -91 1722 -91 
Q 1428 -91 1123 -41 
Q 819 9 494 109 
L 494 744 
Q 775 591 1075 516 
Q 1375 441 1709 441 
Q 2250 441 2565 725 
Q 2881 1009 2881 1497 
Q 2881 1984 2565 2268 
Q 2250 2553 1709 2553 
Q 1456 2553 1204 2497 
Q 953 2441 691 2322 
L 691 4666 
z
" transform="scale(0.015625)"/>
       </defs>
       <use xlink:href="#DejaVuSans-35"/>
       <use xlink:href="#DejaVuSans-30" x="63.623047"/>
      </g>
     </g>
    </g>
   </g>
   <g id="matplotlib.axis_2">
    <g id="ytick_1">
     <g id="line2d_6">
      <defs>
       <path id="mbc8ad6dfc5" d="M 0 0 
L -3.5 0 
" style="stroke: #000000; stroke-width: 0.8"/>
      </defs>
      <g>
       <use xlink:href="#mbc8ad6dfc5" x="57.615" y="260.521875" style="stroke: #000000; stroke-width: 0.8"/>
      </g>
     </g>
     <g id="text_6">
      <!-- 0.00 -->
      <g transform="translate(28.349375 264.321094) scale(0.1 -0.1)">
       <defs>
        <path id="DejaVuSans-2e" d="M 684 794 
L 1344 794 
L 1344 0 
L 684 0 
L 684 794 
z
" transform="scale(0.015625)"/>
       </defs>
       <use xlink:href="#DejaVuSans-30"/>
       <use xlink:href="#DejaVuSans-2e" x="63.623047"/>
       <use xlink:href="#DejaVuSans-30" x="95.410156"/>
       <use xlink:href="#DejaVuSans-30" x="159.033203"/>
      </g>
     </g>
    </g>
    <g id="ytick_2">
     <g id="line2d_7">
      <g>
       <use xlink:href="#mbc8ad6dfc5" x="57.615" y="232.92663" style="stroke: #000000; stroke-width: 0.8"/>
      </g>
     </g>
     <g id="text_7">
      <!-- 0.05 -->
      <g transform="translate(28.349375 236.725849) scale(0.1 -0.1)">
       <use xlink:href="#DejaVuSans-30"/>
       <use xlink:href="#DejaVuSans-2e" x="63.623047"/>
       <use xlink:href="#DejaVuSans-30" x="95.410156"/>
       <use xlink:href="#DejaVuSans-35" x="159.033203"/>
      </g>
     </g>
    </g>
    <g id="ytick_3">
     <g id="line2d_8">
      <g>
       <use xlink:href="#mbc8ad6dfc5" x="57.615" y="205.331385" style="stroke: #000000; stroke-width: 0.8"/>
      </g>
     </g>
     <g id="text_8">
      <!-- 0.10 -->
      <g transform="translate(28.349375 209.130604) scale(0.1 -0.1)">
       <use xlink:href="#DejaVuSans-30"/>
       <use xlink:href="#DejaVuSans-2e" x="63.623047"/>
       <use xlink:href="#DejaVuSans-31" x="95.410156"/>
       <use xlink:href="#DejaVuSans-30" x="159.033203"/>
      </g>
     </g>
    </g>
    <g id="ytick_4">
     <g id="line2d_9">
      <g>
       <use xlink:href="#mbc8ad6dfc5" x="57.615" y="177.73614" style="stroke: #000000; stroke-width: 0.8"/>
      </g>
     </g>
     <g id="text_9">
      <!-- 0.15 -->
      <g transform="translate(28.349375 181.535359) scale(0.1 -0.1)">
       <use xlink:href="#DejaVuSans-30"/>
       <use xlink:href="#DejaVuSans-2e" x="63.623047"/>
       <use xlink:href="#DejaVuSans-31" x="95.410156"/>
       <use xlink:href="#DejaVuSans-35" x="159.033203"/>
      </g>
     </g>
    </g>
    <g id="ytick_5">
     <g id="line2d_10">
      <g>
       <use xlink:href="#mbc8ad6dfc5" x="57.615" y="150.140895" style="stroke: #000000; stroke-width: 0.8"/>
      </g>
     </g>
     <g id="text_10">
      <!-- 0.20 -->
      <g transform="translate(28.349375 153.940113) scale(0.1 -0.1)">
       <use xlink:href="#DejaVuSans-30"/>
       <use xlink:href="#DejaVuSans-2e" x="63.623047"/>
       <use xlink:href="#DejaVuSans-32" x="95.410156"/>
       <use xlink:href="#DejaVuSans-30" x="159.033203"/>
      </g>
     </g>
    </g>
    <g id="ytick_6">
     <g id="line2d_11">
      <g>
       <use xlink:href="#mbc8ad6dfc5" x="57.615" y="122.54565" style="stroke: #000000; stroke-width: 0.8"/>
      </g>
     </g>
     <g id="text_11">
      <!-- 0.25 -->
      <g transform="translate(28.349375 126.344868) scale(0.1 -0.1)">
       <use xlink:href="#DejaVuSans-30"/>
       <use xlink:href="#DejaVuSans-2e" x="63.623047"/>
       <use xlink:href="#DejaVuSans-32" x="95.410156"/>
       <use xlink:href="#DejaVuSans-35" x="159.033203"/>
      </g>
     </g>
    </g>
    <g id="ytick_7">
     <g id="line2d_12">
      <g>
       <use xlink:href="#mbc8ad6dfc5" x="57.615" y="94.950405" style="stroke: #000000; stroke-width: 0.8"/>
      </g>
     </g>
     <g id="text_12">
      <!-- 0.30 -->
      <g transform="translate(28.349375 98.749623) scale(0.1 -0.1)">
       <use xlink:href="#DejaVuSans-30"/>
       <use xlink:href="#DejaVuSans-2e" x="63.623047"/>
       <use xlink:href="#DejaVuSans-33" x="95.410156"/>
       <use xlink:href="#DejaVuSans-30" x="159.033203"/>
      </g>
     </g>
    </g>
    <g id="ytick_8">
     <g id="line2d_13">
      <g>
       <use xlink:href="#mbc8ad6dfc5" x="57.615" y="67.35516" style="stroke: #000000; stroke-width: 0.8"/>
      </g>
     </g>
     <g id="text_13">
      <!-- 0.35 -->
      <g transform="translate(28.349375 71.154378) scale(0.1 -0.1)">
       <use xlink:href="#DejaVuSans-30"/>
       <use xlink:href="#DejaVuSans-2e" x="63.623047"/>
       <use xlink:href="#DejaVuSans-33" x="95.410156"/>
       <use xlink:href="#DejaVuSans-35" x="159.033203"/>
      </g>
     </g>
    </g>
    <g id="ytick_9">
     <g id="line2d_14">
      <g>
       <use xlink:href="#mbc8ad6dfc5" x="57.615" y="39.759914" style="stroke: #000000; stroke-width: 0.8"/>
      </g>
     </g>
     <g id="text_14">
      <!-- 0.40 -->
      <g transform="translate(28.349375 43.559133) scale(0.1 -0.1)">
       <use xlink:href="#DejaVuSans-30"/>
       <use xlink:href="#DejaVuSans-2e" x="63.623047"/>
       <use xlink:href="#DejaVuSans-34" x="95.410156"/>
       <use xlink:href="#DejaVuSans-30" x="159.033203"/>
      </g>
     </g>
    </g>
    <g id="text_15">
     <!-- Fraction of cells -->
     <g transform="translate(21.437813 198.811719) rotate(-90) scale(0.14 -0.14)">
      <defs>
       <path id="DejaVuSans-46" d="M 628 4666 
L 3309 4666 
L 3309 4134 
L 1259 4134 
L 1259 2759 
L 3109 2759 
L 3109 2228 
L 1259 2228 
L 1259 0 
L 628 0 
L 628 4666 
z
" transform="scale(0.015625)"/>
       <path id="DejaVuSans-72" d="M 2631 2963 
Q 2534 3019 2420 3045 
Q 2306 3072 2169 3072 
Q 1681 3072 1420 2755 
Q 1159 2438 1159 1844 
L 1159 0 
L 581 0 
L 581 3500 
L 1159 3500 
L 1159 2956 
Q 1341 3275 1631 3429 
Q 1922 3584 2338 3584 
Q 2397 3584 2469 3576 
Q 2541 3569 2628 3553 
L 2631 2963 
z
" transform="scale(0.015625)"/>
       <path id="DejaVuSans-61" d="M 2194 1759 
Q 1497 1759 1228 1600 
Q 959 1441 959 1056 
Q 959 750 1161 570 
Q 1363 391 1709 391 
Q 2188 391 2477 730 
Q 2766 1069 2766 1631 
L 2766 1759 
L 2194 1759 
z
M 3341 1997 
L 3341 0 
L 2766 0 
L 2766 531 
Q 2569 213 2275 61 
Q 1981 -91 1556 -91 
Q 1019 -91 701 211 
Q 384 513 384 1019 
Q 384 1609 779 1909 
Q 1175 2209 1959 2209 
L 2766 2209 
L 2766 2266 
Q 2766 2663 2505 2880 
Q 2244 3097 1772 3097 
Q 1472 3097 1187 3025 
Q 903 2953 641 2809 
L 641 3341 
Q 956 3463 1253 3523 
Q 1550 3584 1831 3584 
Q 2591 3584 2966 3190 
Q 3341 2797 3341 1997 
z
" transform="scale(0.015625)"/>
       <path id="DejaVuSans-63" d="M 3122 3366 
L 3122 2828 
Q 2878 2963 2633 3030 
Q 2388 3097 2138 3097 
Q 1578 3097 1268 2742 
Q 959 2388 959 1747 
Q 959 1106 1268 751 
Q 1578 397 2138 397 
Q 2388 397 2633 464 
Q 2878 531 3122 666 
L 3122 134 
Q 2881 22 2623 -34 
Q 2366 -91 2075 -91 
Q 1284 -91 818 406 
Q 353 903 353 1747 
Q 353 2603 823 3093 
Q 1294 3584 2113 3584 
Q 2378 3584 2631 3529 
Q 2884 3475 3122 3366 
z
" transform="scale(0.015625)"/>
       <path id="DejaVuSans-74" d="M 1172 4494 
L 1172 3500 
L 2356 3500 
L 2356 3053 
L 1172 3053 
L 1172 1153 
Q 1172 725 1289 603 
Q 1406 481 1766 481 
L 2356 481 
L 2356 0 
L 1766 0 
Q 1100 0 847 248 
Q 594 497 594 1153 
L 594 3053 
L 172 3053 
L 172 3500 
L 594 3500 
L 594 4494 
L 1172 4494 
z
" transform="scale(0.015625)"/>
       <path id="DejaVuSans-69" d="M 603 3500 
L 1178 3500 
L 1178 0 
L 603 0 
L 603 3500 
z
M 603 4863 
L 1178 4863 
L 1178 4134 
L 603 4134 
L 603 4863 
z
" transform="scale(0.015625)"/>
       <path id="DejaVuSans-6f" d="M 1959 3097 
Q 1497 3097 1228 2736 
Q 959 2375 959 1747 
Q 959 1119 1226 758 
Q 1494 397 1959 397 
Q 2419 397 2687 759 
Q 2956 1122 2956 1747 
Q 2956 2369 2687 2733 
Q 2419 3097 1959 3097 
z
M 1959 3584 
Q 2709 3584 3137 3096 
Q 3566 2609 3566 1747 
Q 3566 888 3137 398 
Q 2709 -91 1959 -91 
Q 1206 -91 779 398 
Q 353 888 353 1747 
Q 353 2609 779 3096 
Q 1206 3584 1959 3584 
z
" transform="scale(0.015625)"/>
       <path id="DejaVuSans-6e" d="M 3513 2113 
L 3513 0 
L 2938 0 
L 2938 2094 
Q 2938 2591 2744 2837 
Q 2550 3084 2163 3084 
Q 1697 3084 1428 2787 
Q 1159 2491 1159 1978 
L 1159 0 
L 581 0 
L 581 3500 
L 1159 3500 
L 1159 2956 
Q 1366 3272 1645 3428 
Q 1925 3584 2291 3584 
Q 2894 3584 3203 3211 
Q 3513 2838 3513 2113 
z
" transform="scale(0.015625)"/>
       <path id="DejaVuSans-20" transform="scale(0.015625)"/>
       <path id="DejaVuSans-66" d="M 2375 4863 
L 2375 4384 
L 1825 4384 
Q 1516 4384 1395 4259 
Q 1275 4134 1275 3809 
L 1275 3500 
L 2222 3500 
L 2222 3053 
L 1275 3053 
L 1275 0 
L 697 0 
L 697 3053 
L 147 3053 
L 147 3500 
L 697 3500 
L 697 3744 
Q 697 4328 969 4595 
Q 1241 4863 1831 4863 
L 2375 4863 
z
" transform="scale(0.015625)"/>
       <path id="DejaVuSans-65" d="M 3597 1894 
L 3597 1613 
L 953 1613 
Q 991 1019 1311 708 
Q 1631 397 2203 397 
Q 2534 397 2845 478 
Q 3156 559 3463 722 
L 3463 178 
Q 3153 47 2828 -22 
Q 2503 -91 2169 -91 
Q 1331 -91 842 396 
Q 353 884 353 1716 
Q 353 2575 817 3079 
Q 1281 3584 2069 3584 
Q 2775 3584 3186 3129 
Q 3597 2675 3597 1894 
z
M 3022 2063 
Q 3016 2534 2758 2815 
Q 2500 3097 2075 3097 
Q 1594 3097 1305 2825 
Q 1016 2553 972 2059 
L 3022 2063 
z
" transform="scale(0.015625)"/>
       <path id="DejaVuSans-6c" d="M 603 4863 
L 1178 4863 
L 1178 0 
L 603 0 
L 603 4863 
z
" transform="scale(0.015625)"/>
       <path id="DejaVuSans-73" d="M 2834 3397 
L 2834 2853 
Q 2591 2978 2328 3040 
Q 2066 3103 1784 3103 
Q 1356 3103 1142 2972 
Q 928 2841 928 2578 
Q 928 2378 1081 2264 
Q 1234 2150 1697 2047 
L 1894 2003 
Q 2506 1872 2764 1633 
Q 3022 1394 3022 966 
Q 3022 478 2636 193 
Q 2250 -91 1575 -91 
Q 1294 -91 989 -36 
Q 684 19 347 128 
L 347 722 
Q 666 556 975 473 
Q 1284 391 1588 391 
Q 1994 391 2212 530 
Q 2431 669 2431 922 
Q 2431 1156 2273 1281 
Q 2116 1406 1581 1522 
L 1381 1569 
Q 847 1681 609 1914 
Q 372 2147 372 2553 
Q 372 3047 722 3315 
Q 1072 3584 1716 3584 
Q 2034 3584 2315 3537 
Q 2597 3491 2834 3397 
z
" transform="scale(0.015625)"/>
      </defs>
      <use xlink:href="#DejaVuSans-46"/>
      <use xlink:href="#DejaVuSans-72" x="50.269531"/>
      <use xlink:href="#DejaVuSans-61" x="91.382812"/>
      <use xlink:href="#DejaVuSans-63" x="152.662109"/>
      <use xlink:href="#DejaVuSans-74" x="207.642578"/>
      <use xlink:href="#DejaVuSans-69" x="246.851562"/>
      <use xlink:href="#DejaVuSans-6f" x="274.634766"/>
      <use xlink:href="#DejaVuSans-6e" x="335.816406"/>
      <use xlink:href="#DejaVuSans-20" x="399.195312"/>
      <use xlink:href="#DejaVuSans-6f" x="430.982422"/>
      <use xlink:href="#DejaVuSans-66" x="492.164062"/>
      <use xlink:href="#DejaVuSans-20" x="527.369141"/>
      <use xlink:href="#DejaVuSans-63" x="559.15625"/>
      <use xlink:href="#DejaVuSans-65" x="614.136719"/>
      <use xlink:href="#DejaVuSans-6c" x="675.660156"/>
      <use xlink:href="#DejaVuSans-6c" x="703.443359"/>
      <use xlink:href="#DejaVuSans-73" x="731.226562"/>
     </g>
    </g>
   </g>
   <g id="line2d_15">
    <path d="M 67.662186 242.942104 
L 68.671953 236.520563 
L 69.68172 228.736488 
L 70.691488 219.679563 
L 72.711023 198.845107 
L 74.730557 177.597187 
L 75.740325 168.341182 
L 76.750092 160.799803 
L 77.75986 155.440854 
L 78.769627 152.552215 
L 79.779394 152.21012 
L 80.789162 154.278991 
L 81.798929 158.441403 
L 82.808697 164.25054 
L 84.828231 178.753036 
L 86.847766 193.913426 
L 88.867301 206.96666 
L 89.877069 212.227445 
L 90.886836 216.544183 
L 91.896603 219.91686 
L 92.906371 222.394572 
L 93.916138 224.069393 
L 94.925906 225.070749 
L 95.935673 225.557919 
L 96.94544 225.709045 
L 98.964975 225.719308 
L 99.974743 225.887205 
L 100.98451 226.306058 
L 101.994277 227.020809 
L 103.004045 228.025598 
L 105.02358 230.683027 
L 108.052882 235.086433 
L 110.072417 237.673356 
L 116.131021 244.903314 
L 120.170091 250.024465 
L 122.189625 252.207197 
L 124.20916 254.015189 
L 126.228695 255.472597 
L 128.24823 256.613814 
L 130.267765 257.445795 
L 132.287299 257.972738 
L 134.306834 258.248399 
L 139.355671 258.685628 
L 142.384973 259.229116 
L 146.424043 260.004333 
L 149.453345 260.341254 
L 153.492415 260.494955 
L 164.599856 260.521868 
L 268.605899 260.521875 
L 268.605899 260.521875 
" clip-path="url(#p3baefabe9a)" style="fill: none; stroke: #1f77b4; stroke-width: 1.5; stroke-linecap: square"/>
   </g>
   <g id="line2d_16">
    <path d="M 67.662186 259.294357 
L 71.701255 258.537546 
L 74.730557 257.761455 
L 77.75986 256.777908 
L 80.789162 255.568559 
L 83.818464 254.12589 
L 86.847766 252.456267 
L 90.886836 249.917654 
L 95.935673 246.385596 
L 105.02358 239.899913 
L 109.062649 237.364132 
L 112.091951 235.728659 
L 115.121254 234.36969 
L 118.150556 233.314928 
L 121.179858 232.576767 
L 124.20916 232.152366 
L 127.238462 232.024374 
L 130.267765 232.16235 
L 133.297067 232.524989 
L 137.336136 233.272873 
L 143.394741 234.714137 
L 165.609624 240.428699 
L 169.648693 241.787823 
L 173.687763 243.35517 
L 178.7366 245.555752 
L 189.844041 250.523552 
L 193.883111 252.062278 
L 197.922181 253.356031 
L 201.96125 254.396926 
L 206.00032 255.213038 
L 211.049157 255.994492 
L 218.117529 256.825608 
L 226.195668 257.567749 
L 232.254272 257.938987 
L 237.303109 258.052096 
L 242.351946 257.95244 
L 248.410551 257.592235 
L 260.52776 256.781132 
L 265.576597 256.731896 
L 268.605899 256.831694 
L 268.605899 256.831694 
" clip-path="url(#p3baefabe9a)" style="fill: none; stroke: #ff7f0e; stroke-width: 1.5; stroke-linecap: square"/>
   </g>
   <g id="line2d_17">
    <path d="M 67.662186 256.979193 
L 68.671953 255.575917 
L 69.68172 253.758391 
L 70.691488 251.460764 
L 71.701255 248.62637 
L 72.711023 245.214996 
L 73.72079 241.210264 
L 74.730557 236.62615 
L 76.750092 225.952468 
L 81.798929 196.553956 
L 82.808697 191.548784 
L 83.818464 187.195267 
L 84.828231 183.592305 
L 85.837999 180.798995 
L 86.847766 178.833915 
L 87.857534 177.677936 
L 88.867301 177.279877 
L 89.877069 177.564045 
L 90.886836 178.438672 
L 91.896603 179.80437 
L 92.906371 181.561881 
L 94.925906 185.893968 
L 97.955208 193.463415 
L 100.98451 201.648161 
L 104.013812 210.557934 
L 107.043114 220.349415 
L 111.082184 233.676008 
L 113.101719 239.618474 
L 115.121254 244.620347 
L 116.131021 246.709688 
L 117.140788 248.515582 
L 118.150556 250.043831 
L 119.160323 251.307997 
L 120.170091 252.326908 
L 121.179858 253.122071 
L 122.189625 253.715271 
L 123.199393 254.126648 
L 124.20916 254.373461 
L 125.218928 254.469684 
L 126.228695 254.426497 
L 127.238462 254.253602 
L 129.257997 253.562176 
L 131.277532 252.522432 
L 134.306834 250.827199 
L 135.316602 250.388021 
L 136.326369 250.08209 
L 137.336136 249.943613 
L 138.345904 249.995953 
L 139.355671 250.248869 
L 140.365439 250.697276 
L 141.375206 251.321751 
L 143.394741 252.963935 
L 147.43381 256.630447 
L 149.453345 258.091006 
L 151.47288 259.13928 
L 153.492415 259.806358 
L 155.51195 260.185119 
L 158.541252 260.430951 
L 163.590089 260.515526 
L 203.980785 260.521875 
L 268.605899 260.521875 
L 268.605899 260.521875 
" clip-path="url(#p3baefabe9a)" style="fill: none; stroke: #2ca02c; stroke-width: 1.5; stroke-linecap: square"/>
   </g>
   <g id="patch_63">
    <path d="M 57.615 260.521875 
L 57.615 27.437812 
" style="fill: none; stroke: #000000; stroke-width: 0.8; stroke-linejoin: miter; stroke-linecap: square"/>
   </g>
   <g id="patch_64">
    <path d="M 278.653084 260.521875 
L 278.653084 27.437812 
" style="fill: none; stroke: #000000; stroke-width: 0.8; stroke-linejoin: miter; stroke-linecap: square"/>
   </g>
   <g id="patch_65">
    <path d="M 57.615 260.521875 
L 278.653084 260.521875 
" style="fill: none; stroke: #000000; stroke-width: 0.8; stroke-linejoin: miter; stroke-linecap: square"/>
   </g>
   <g id="patch_66">
    <path d="M 57.615 27.437812 
L 278.653084 27.437812 
" style="fill: none; stroke: #000000; stroke-width: 0.8; stroke-linejoin: miter; stroke-linecap: square"/>
   </g>
   <g id="text_16">
    <!-- SRV -->
    <g transform="translate(154.422792 21.437813) scale(0.14 -0.14)">
     <defs>
      <path id="DejaVuSans-53" d="M 3425 4513 
L 3425 3897 
Q 3066 4069 2747 4153 
Q 2428 4238 2131 4238 
Q 1616 4238 1336 4038 
Q 1056 3838 1056 3469 
Q 1056 3159 1242 3001 
Q 1428 2844 1947 2747 
L 2328 2669 
Q 3034 2534 3370 2195 
Q 3706 1856 3706 1288 
Q 3706 609 3251 259 
Q 2797 -91 1919 -91 
Q 1588 -91 1214 -16 
Q 841 59 441 206 
L 441 856 
Q 825 641 1194 531 
Q 1563 422 1919 422 
Q 2459 422 2753 634 
Q 3047 847 3047 1241 
Q 3047 1584 2836 1778 
Q 2625 1972 2144 2069 
L 1759 2144 
Q 1053 2284 737 2584 
Q 422 2884 422 3419 
Q 422 4038 858 4394 
Q 1294 4750 2059 4750 
Q 2388 4750 2728 4690 
Q 3069 4631 3425 4513 
z
" transform="scale(0.015625)"/>
      <path id="DejaVuSans-52" d="M 2841 2188 
Q 3044 2119 3236 1894 
Q 3428 1669 3622 1275 
L 4263 0 
L 3584 0 
L 2988 1197 
Q 2756 1666 2539 1819 
Q 2322 1972 1947 1972 
L 1259 1972 
L 1259 0 
L 628 0 
L 628 4666 
L 2053 4666 
Q 2853 4666 3247 4331 
Q 3641 3997 3641 3322 
Q 3641 2881 3436 2590 
Q 3231 2300 2841 2188 
z
M 1259 4147 
L 1259 2491 
L 2053 2491 
Q 2509 2491 2742 2702 
Q 2975 2913 2975 3322 
Q 2975 3731 2742 3939 
Q 2509 4147 2053 4147 
L 1259 4147 
z
" transform="scale(0.015625)"/>
      <path id="DejaVuSans-56" d="M 1831 0 
L 50 4666 
L 709 4666 
L 2188 738 
L 3669 4666 
L 4325 4666 
L 2547 0 
L 1831 0 
z
" transform="scale(0.015625)"/>
     </defs>
     <use xlink:href="#DejaVuSans-53"/>
     <use xlink:href="#DejaVuSans-52" x="63.476562"/>
     <use xlink:href="#DejaVuSans-56" x="127.458984"/>
    </g>
   </g>
   <g id="legend_1">
    <g id="patch_67">
     <path d="M 190.263709 89.879062 
L 270.253084 89.879062 
Q 272.653084 89.879062 272.653084 87.479062 
L 272.653084 35.837812 
Q 272.653084 33.437812 270.253084 33.437812 
L 190.263709 33.437812 
Q 187.863709 33.437812 187.863709 35.837812 
L 187.863709 87.479062 
Q 187.863709 89.879062 190.263709 89.879062 
z
" style="fill: #ffffff; opacity: 0.8; stroke: #cccccc; stroke-linejoin: miter"/>
    </g>
    <g id="patch_68">
     <path d="M 192.663709 47.355937 
L 216.663709 47.355937 
L 216.663709 38.955937 
L 192.663709 38.955937 
z
" style="fill: #1f77b4; opacity: 0.4"/>
    </g>
    <g id="text_17">
     <!-- control -->
     <g transform="translate(226.263709 47.355937) scale(0.12 -0.12)">
      <use xlink:href="#DejaVuSans-63"/>
      <use xlink:href="#DejaVuSans-6f" x="54.980469"/>
      <use xlink:href="#DejaVuSans-6e" x="116.162109"/>
      <use xlink:href="#DejaVuSans-74" x="179.541016"/>
      <use xlink:href="#DejaVuSans-72" x="218.75"/>
      <use xlink:href="#DejaVuSans-6f" x="257.613281"/>
      <use xlink:href="#DejaVuSans-6c" x="318.794922"/>
     </g>
    </g>
    <g id="patch_69">
     <path d="M 192.663709 64.969687 
L 216.663709 64.969687 
L 216.663709 56.569687 
L 192.663709 56.569687 
z
" style="fill: #ff7f0e; opacity: 0.4"/>
    </g>
    <g id="text_18">
     <!-- cytd -->
     <g transform="translate(226.263709 64.969687) scale(0.12 -0.12)">
      <defs>
       <path id="DejaVuSans-79" d="M 2059 -325 
Q 1816 -950 1584 -1140 
Q 1353 -1331 966 -1331 
L 506 -1331 
L 506 -850 
L 844 -850 
Q 1081 -850 1212 -737 
Q 1344 -625 1503 -206 
L 1606 56 
L 191 3500 
L 800 3500 
L 1894 763 
L 2988 3500 
L 3597 3500 
L 2059 -325 
z
" transform="scale(0.015625)"/>
       <path id="DejaVuSans-64" d="M 2906 2969 
L 2906 4863 
L 3481 4863 
L 3481 0 
L 2906 0 
L 2906 525 
Q 2725 213 2448 61 
Q 2172 -91 1784 -91 
Q 1150 -91 751 415 
Q 353 922 353 1747 
Q 353 2572 751 3078 
Q 1150 3584 1784 3584 
Q 2172 3584 2448 3432 
Q 2725 3281 2906 2969 
z
M 947 1747 
Q 947 1113 1208 752 
Q 1469 391 1925 391 
Q 2381 391 2643 752 
Q 2906 1113 2906 1747 
Q 2906 2381 2643 2742 
Q 2381 3103 1925 3103 
Q 1469 3103 1208 2742 
Q 947 2381 947 1747 
z
" transform="scale(0.015625)"/>
      </defs>
      <use xlink:href="#DejaVuSans-63"/>
      <use xlink:href="#DejaVuSans-79" x="54.980469"/>
      <use xlink:href="#DejaVuSans-74" x="114.160156"/>
      <use xlink:href="#DejaVuSans-64" x="153.369141"/>
     </g>
    </g>
    <g id="patch_70">
     <path d="M 192.663709 82.583437 
L 216.663709 82.583437 
L 216.663709 74.183437 
L 192.663709 74.183437 
z
" style="fill: #2ca02c; opacity: 0.4"/>
    </g>
    <g id="text_19">
     <!-- jasp -->
     <g transform="translate(226.263709 82.583437) scale(0.12 -0.12)">
      <defs>
       <path id="DejaVuSans-6a" d="M 603 3500 
L 1178 3500 
L 1178 -63 
Q 1178 -731 923 -1031 
Q 669 -1331 103 -1331 
L -116 -1331 
L -116 -844 
L 38 -844 
Q 366 -844 484 -692 
Q 603 -541 603 -63 
L 603 3500 
z
M 603 4863 
L 1178 4863 
L 1178 4134 
L 603 4134 
L 603 4863 
z
" transform="scale(0.015625)"/>
       <path id="DejaVuSans-70" d="M 1159 525 
L 1159 -1331 
L 581 -1331 
L 581 3500 
L 1159 3500 
L 1159 2969 
Q 1341 3281 1617 3432 
Q 1894 3584 2278 3584 
Q 2916 3584 3314 3078 
Q 3713 2572 3713 1747 
Q 3713 922 3314 415 
Q 2916 -91 2278 -91 
Q 1894 -91 1617 61 
Q 1341 213 1159 525 
z
M 3116 1747 
Q 3116 2381 2855 2742 
Q 2594 3103 2138 3103 
Q 1681 3103 1420 2742 
Q 1159 2381 1159 1747 
Q 1159 1113 1420 752 
Q 1681 391 2138 391 
Q 2594 391 2855 752 
Q 3116 1113 3116 1747 
z
" transform="scale(0.015625)"/>
      </defs>
      <use xlink:href="#DejaVuSans-6a"/>
      <use xlink:href="#DejaVuSans-61" x="27.783203"/>
      <use xlink:href="#DejaVuSans-73" x="89.0625"/>
      <use xlink:href="#DejaVuSans-70" x="141.162109"/>
     </g>
    </g>
   </g>
  </g>
  <g id="axes_2">
   <g id="patch_71">
    <path d="M 344.161916 260.521875 
L 565.2 260.521875 
L 565.2 27.437812 
L 344.161916 27.437812 
z
" style="fill: #ffffff"/>
   </g>
   <g id="patch_72">
    <path d="M 362.259947 260.521875 
L 370.860762 260.521875 
L 370.860762 249.414979 
L 362.259947 249.414979 
z
" clip-path="url(#pf682271f1a)" style="fill: #1f77b4; opacity: 0.4"/>
   </g>
   <g id="patch_73">
    <path d="M 370.860762 260.521875 
L 379.461576 260.521875 
L 379.461576 254.968427 
L 370.860762 254.968427 
z
" clip-path="url(#pf682271f1a)" style="fill: #1f77b4; opacity: 0.4"/>
   </g>
   <g id="patch_74">
    <path d="M 379.461576 260.521875 
L 388.062391 260.521875 
L 388.062391 232.754636 
L 379.461576 232.754636 
z
" clip-path="url(#pf682271f1a)" style="fill: #1f77b4; opacity: 0.4"/>
   </g>
   <g id="patch_75">
    <path d="M 388.062391 260.521875 
L 396.663206 260.521875 
L 396.663206 249.414979 
L 388.062391 249.414979 
z
" clip-path="url(#pf682271f1a)" style="fill: #1f77b4; opacity: 0.4"/>
   </g>
   <g id="patch_76">
    <path d="M 396.663206 260.521875 
L 405.26402 260.521875 
L 405.26402 199.433949 
L 396.663206 199.433949 
z
" clip-path="url(#pf682271f1a)" style="fill: #1f77b4; opacity: 0.4"/>
   </g>
   <g id="patch_77">
    <path d="M 405.26402 260.521875 
L 413.864835 260.521875 
L 413.864835 254.968427 
L 405.26402 254.968427 
z
" clip-path="url(#pf682271f1a)" style="fill: #1f77b4; opacity: 0.4"/>
   </g>
   <g id="patch_78">
    <path d="M 413.864835 260.521875 
L 422.46565 260.521875 
L 422.46565 243.861531 
L 413.864835 243.861531 
z
" clip-path="url(#pf682271f1a)" style="fill: #1f77b4; opacity: 0.4"/>
   </g>
   <g id="patch_79">
    <path d="M 422.46565 260.521875 
L 431.066464 260.521875 
L 431.066464 243.861531 
L 422.46565 243.861531 
z
" clip-path="url(#pf682271f1a)" style="fill: #1f77b4; opacity: 0.4"/>
   </g>
   <g id="patch_80">
    <path d="M 431.066464 260.521875 
L 439.667279 260.521875 
L 439.667279 232.754636 
L 431.066464 232.754636 
z
" clip-path="url(#pf682271f1a)" style="fill: #1f77b4; opacity: 0.4"/>
   </g>
   <g id="patch_81">
    <path d="M 439.667279 260.521875 
L 448.268093 260.521875 
L 448.268093 232.754636 
L 439.667279 232.754636 
z
" clip-path="url(#pf682271f1a)" style="fill: #1f77b4; opacity: 0.4"/>
   </g>
   <g id="patch_82">
    <path d="M 448.268093 260.521875 
L 456.868908 260.521875 
L 456.868908 254.968427 
L 448.268093 254.968427 
z
" clip-path="url(#pf682271f1a)" style="fill: #1f77b4; opacity: 0.4"/>
   </g>
   <g id="patch_83">
    <path d="M 456.868908 260.521875 
L 465.469723 260.521875 
L 465.469723 221.64774 
L 456.868908 221.64774 
z
" clip-path="url(#pf682271f1a)" style="fill: #1f77b4; opacity: 0.4"/>
   </g>
   <g id="patch_84">
    <path d="M 465.469723 260.521875 
L 474.070537 260.521875 
L 474.070537 238.308084 
L 465.469723 238.308084 
z
" clip-path="url(#pf682271f1a)" style="fill: #1f77b4; opacity: 0.4"/>
   </g>
   <g id="patch_85">
    <path d="M 474.070537 260.521875 
L 482.671352 260.521875 
L 482.671352 204.987397 
L 474.070537 204.987397 
z
" clip-path="url(#pf682271f1a)" style="fill: #1f77b4; opacity: 0.4"/>
   </g>
   <g id="patch_86">
    <path d="M 482.671352 260.521875 
L 491.272166 260.521875 
L 491.272166 143.89947 
L 482.671352 143.89947 
z
" clip-path="url(#pf682271f1a)" style="fill: #1f77b4; opacity: 0.4"/>
   </g>
   <g id="patch_87">
    <path d="M 491.272166 260.521875 
L 499.872981 260.521875 
L 499.872981 116.132231 
L 491.272166 116.132231 
z
" clip-path="url(#pf682271f1a)" style="fill: #1f77b4; opacity: 0.4"/>
   </g>
   <g id="patch_88">
    <path d="M 499.872981 260.521875 
L 508.473796 260.521875 
L 508.473796 227.201188 
L 499.872981 227.201188 
z
" clip-path="url(#pf682271f1a)" style="fill: #1f77b4; opacity: 0.4"/>
   </g>
   <g id="patch_89">
    <path d="M 508.473796 260.521875 
L 517.07461 260.521875 
L 517.07461 260.521875 
L 508.473796 260.521875 
z
" clip-path="url(#pf682271f1a)" style="fill: #1f77b4; opacity: 0.4"/>
   </g>
   <g id="patch_90">
    <path d="M 517.07461 260.521875 
L 525.675425 260.521875 
L 525.675425 260.521875 
L 517.07461 260.521875 
z
" clip-path="url(#pf682271f1a)" style="fill: #1f77b4; opacity: 0.4"/>
   </g>
   <g id="patch_91">
    <path d="M 525.675425 260.521875 
L 534.27624 260.521875 
L 534.27624 254.968427 
L 525.675425 254.968427 
z
" clip-path="url(#pf682271f1a)" style="fill: #1f77b4; opacity: 0.4"/>
   </g>
   <g id="patch_92">
    <path d="M 354.391296 260.521875 
L 364.424173 260.521875 
L 364.424173 240.169602 
L 354.391296 240.169602 
z
" clip-path="url(#pf682271f1a)" style="fill: #ff7f0e; opacity: 0.4"/>
   </g>
   <g id="patch_93">
    <path d="M 364.424173 260.521875 
L 374.45705 260.521875 
L 374.45705 192.680964 
L 364.424173 192.680964 
z
" clip-path="url(#pf682271f1a)" style="fill: #ff7f0e; opacity: 0.4"/>
   </g>
   <g id="patch_94">
    <path d="M 374.45705 260.521875 
L 384.489927 260.521875 
L 384.489927 179.112782 
L 374.45705 179.112782 
z
" clip-path="url(#pf682271f1a)" style="fill: #ff7f0e; opacity: 0.4"/>
   </g>
   <g id="patch_95">
    <path d="M 384.489927 260.521875 
L 394.522804 260.521875 
L 394.522804 213.033238 
L 384.489927 213.033238 
z
" clip-path="url(#pf682271f1a)" style="fill: #ff7f0e; opacity: 0.4"/>
   </g>
   <g id="patch_96">
    <path d="M 394.522804 260.521875 
L 404.55568 260.521875 
L 404.55568 151.976418 
L 394.522804 151.976418 
z
" clip-path="url(#pf682271f1a)" style="fill: #ff7f0e; opacity: 0.4"/>
   </g>
   <g id="patch_97">
    <path d="M 404.55568 260.521875 
L 414.588557 260.521875 
L 414.588557 199.465055 
L 404.55568 199.465055 
z
" clip-path="url(#pf682271f1a)" style="fill: #ff7f0e; opacity: 0.4"/>
   </g>
   <g id="patch_98">
    <path d="M 414.588557 260.521875 
L 424.621434 260.521875 
L 424.621434 233.385511 
L 414.588557 233.385511 
z
" clip-path="url(#pf682271f1a)" style="fill: #ff7f0e; opacity: 0.4"/>
   </g>
   <g id="patch_99">
    <path d="M 424.621434 260.521875 
L 434.654311 260.521875 
L 434.654311 246.953693 
L 424.621434 246.953693 
z
" clip-path="url(#pf682271f1a)" style="fill: #ff7f0e; opacity: 0.4"/>
   </g>
   <g id="patch_100">
    <path d="M 434.654311 260.521875 
L 444.687188 260.521875 
L 444.687188 240.169602 
L 434.654311 240.169602 
z
" clip-path="url(#pf682271f1a)" style="fill: #ff7f0e; opacity: 0.4"/>
   </g>
   <g id="patch_101">
    <path d="M 444.687188 260.521875 
L 454.720065 260.521875 
L 454.720065 240.169602 
L 444.687188 240.169602 
z
" clip-path="url(#pf682271f1a)" style="fill: #ff7f0e; opacity: 0.4"/>
   </g>
   <g id="patch_102">
    <path d="M 454.720065 260.521875 
L 464.752941 260.521875 
L 464.752941 246.953693 
L 454.720065 246.953693 
z
" clip-path="url(#pf682271f1a)" style="fill: #ff7f0e; opacity: 0.4"/>
   </g>
   <g id="patch_103">
    <path d="M 464.752941 260.521875 
L 474.785818 260.521875 
L 474.785818 246.953693 
L 464.752941 246.953693 
z
" clip-path="url(#pf682271f1a)" style="fill: #ff7f0e; opacity: 0.4"/>
   </g>
   <g id="patch_104">
    <path d="M 474.785818 260.521875 
L 484.818695 260.521875 
L 484.818695 246.953693 
L 474.785818 246.953693 
z
" clip-path="url(#pf682271f1a)" style="fill: #ff7f0e; opacity: 0.4"/>
   </g>
   <g id="patch_105">
    <path d="M 484.818695 260.521875 
L 494.851572 260.521875 
L 494.851572 246.953693 
L 484.818695 246.953693 
z
" clip-path="url(#pf682271f1a)" style="fill: #ff7f0e; opacity: 0.4"/>
   </g>
   <g id="patch_106">
    <path d="M 494.851572 260.521875 
L 504.884449 260.521875 
L 504.884449 253.737784 
L 494.851572 253.737784 
z
" clip-path="url(#pf682271f1a)" style="fill: #ff7f0e; opacity: 0.4"/>
   </g>
   <g id="patch_107">
    <path d="M 504.884449 260.521875 
L 514.917325 260.521875 
L 514.917325 260.521875 
L 504.884449 260.521875 
z
" clip-path="url(#pf682271f1a)" style="fill: #ff7f0e; opacity: 0.4"/>
   </g>
   <g id="patch_108">
    <path d="M 514.917325 260.521875 
L 524.950202 260.521875 
L 524.950202 260.521875 
L 514.917325 260.521875 
z
" clip-path="url(#pf682271f1a)" style="fill: #ff7f0e; opacity: 0.4"/>
   </g>
   <g id="patch_109">
    <path d="M 524.950202 260.521875 
L 534.983079 260.521875 
L 534.983079 260.521875 
L 524.950202 260.521875 
z
" clip-path="url(#pf682271f1a)" style="fill: #ff7f0e; opacity: 0.4"/>
   </g>
   <g id="patch_110">
    <path d="M 534.983079 260.521875 
L 545.015956 260.521875 
L 545.015956 260.521875 
L 534.983079 260.521875 
z
" clip-path="url(#pf682271f1a)" style="fill: #ff7f0e; opacity: 0.4"/>
   </g>
   <g id="patch_111">
    <path d="M 545.015956 260.521875 
L 555.048833 260.521875 
L 555.048833 246.953693 
L 545.015956 246.953693 
z
" clip-path="url(#pf682271f1a)" style="fill: #ff7f0e; opacity: 0.4"/>
   </g>
   <g id="patch_112">
    <path d="M 367.653016 260.521875 
L 372.400608 260.521875 
L 372.400608 242.02314 
L 367.653016 242.02314 
z
" clip-path="url(#pf682271f1a)" style="fill: #2ca02c; opacity: 0.4"/>
   </g>
   <g id="patch_113">
    <path d="M 372.400608 260.521875 
L 377.148201 260.521875 
L 377.148201 223.524405 
L 372.400608 223.524405 
z
" clip-path="url(#pf682271f1a)" style="fill: #2ca02c; opacity: 0.4"/>
   </g>
   <g id="patch_114">
    <path d="M 377.148201 260.521875 
L 381.895793 260.521875 
L 381.895793 242.02314 
L 377.148201 242.02314 
z
" clip-path="url(#pf682271f1a)" style="fill: #2ca02c; opacity: 0.4"/>
   </g>
   <g id="patch_115">
    <path d="M 381.895793 260.521875 
L 386.643385 260.521875 
L 386.643385 260.521875 
L 381.895793 260.521875 
z
" clip-path="url(#pf682271f1a)" style="fill: #2ca02c; opacity: 0.4"/>
   </g>
   <g id="patch_116">
    <path d="M 386.643385 260.521875 
L 391.390977 260.521875 
L 391.390977 205.02567 
L 386.643385 205.02567 
z
" clip-path="url(#pf682271f1a)" style="fill: #2ca02c; opacity: 0.4"/>
   </g>
   <g id="patch_117">
    <path d="M 391.390977 260.521875 
L 396.13857 260.521875 
L 396.13857 149.529464 
L 391.390977 149.529464 
z
" clip-path="url(#pf682271f1a)" style="fill: #2ca02c; opacity: 0.4"/>
   </g>
   <g id="patch_118">
    <path d="M 396.13857 260.521875 
L 400.886162 260.521875 
L 400.886162 242.02314 
L 396.13857 242.02314 
z
" clip-path="url(#pf682271f1a)" style="fill: #2ca02c; opacity: 0.4"/>
   </g>
   <g id="patch_119">
    <path d="M 400.886162 260.521875 
L 405.633754 260.521875 
L 405.633754 242.02314 
L 400.886162 242.02314 
z
" clip-path="url(#pf682271f1a)" style="fill: #2ca02c; opacity: 0.4"/>
   </g>
   <g id="patch_120">
    <path d="M 405.633754 260.521875 
L 410.381346 260.521875 
L 410.381346 168.028199 
L 405.633754 168.028199 
z
" clip-path="url(#pf682271f1a)" style="fill: #2ca02c; opacity: 0.4"/>
   </g>
   <g id="patch_121">
    <path d="M 410.381346 260.521875 
L 415.128939 260.521875 
L 415.128939 168.028199 
L 410.381346 168.028199 
z
" clip-path="url(#pf682271f1a)" style="fill: #2ca02c; opacity: 0.4"/>
   </g>
   <g id="patch_122">
    <path d="M 415.128939 260.521875 
L 419.876531 260.521875 
L 419.876531 38.537054 
L 415.128939 38.537054 
z
" clip-path="url(#pf682271f1a)" style="fill: #2ca02c; opacity: 0.4"/>
   </g>
   <g id="patch_123">
    <path d="M 419.876531 260.521875 
L 424.624123 260.521875 
L 424.624123 223.524405 
L 419.876531 223.524405 
z
" clip-path="url(#pf682271f1a)" style="fill: #2ca02c; opacity: 0.4"/>
   </g>
   <g id="patch_124">
    <path d="M 424.624123 260.521875 
L 429.371715 260.521875 
L 429.371715 168.028199 
L 424.624123 168.028199 
z
" clip-path="url(#pf682271f1a)" style="fill: #2ca02c; opacity: 0.4"/>
   </g>
   <g id="patch_125">
    <path d="M 429.371715 260.521875 
L 434.119308 260.521875 
L 434.119308 149.529464 
L 429.371715 149.529464 
z
" clip-path="url(#pf682271f1a)" style="fill: #2ca02c; opacity: 0.4"/>
   </g>
   <g id="patch_126">
    <path d="M 434.119308 260.521875 
L 438.8669 260.521875 
L 438.8669 205.02567 
L 434.119308 205.02567 
z
" clip-path="url(#pf682271f1a)" style="fill: #2ca02c; opacity: 0.4"/>
   </g>
   <g id="patch_127">
    <path d="M 438.8669 260.521875 
L 443.614492 260.521875 
L 443.614492 186.526935 
L 438.8669 186.526935 
z
" clip-path="url(#pf682271f1a)" style="fill: #2ca02c; opacity: 0.4"/>
   </g>
   <g id="patch_128">
    <path d="M 443.614492 260.521875 
L 448.362084 260.521875 
L 448.362084 223.524405 
L 443.614492 223.524405 
z
" clip-path="url(#pf682271f1a)" style="fill: #2ca02c; opacity: 0.4"/>
   </g>
   <g id="patch_129">
    <path d="M 448.362084 260.521875 
L 453.109677 260.521875 
L 453.109677 242.02314 
L 448.362084 242.02314 
z
" clip-path="url(#pf682271f1a)" style="fill: #2ca02c; opacity: 0.4"/>
   </g>
   <g id="patch_130">
    <path d="M 453.109677 260.521875 
L 457.857269 260.521875 
L 457.857269 242.02314 
L 453.109677 242.02314 
z
" clip-path="url(#pf682271f1a)" style="fill: #2ca02c; opacity: 0.4"/>
   </g>
   <g id="patch_131">
    <path d="M 457.857269 260.521875 
L 462.604861 260.521875 
L 462.604861 242.02314 
L 457.857269 242.02314 
z
" clip-path="url(#pf682271f1a)" style="fill: #2ca02c; opacity: 0.4"/>
   </g>
   <g id="matplotlib.axis_3">
    <g id="xtick_6">
     <g id="line2d_18">
      <g>
       <use xlink:href="#mbec4b35d2e" x="361.224028" y="260.521875" style="stroke: #000000; stroke-width: 0.8"/>
      </g>
     </g>
     <g id="text_20">
      <!-- 200 -->
      <g transform="translate(351.680278 275.120313) scale(0.1 -0.1)">
       <use xlink:href="#DejaVuSans-32"/>
       <use xlink:href="#DejaVuSans-30" x="63.623047"/>
       <use xlink:href="#DejaVuSans-30" x="127.246094"/>
      </g>
     </g>
    </g>
    <g id="xtick_7">
     <g id="line2d_19">
      <g>
       <use xlink:href="#mbec4b35d2e" x="406.481621" y="260.521875" style="stroke: #000000; stroke-width: 0.8"/>
      </g>
     </g>
     <g id="text_21">
      <!-- 400 -->
      <g transform="translate(396.937871 275.120313) scale(0.1 -0.1)">
       <use xlink:href="#DejaVuSans-34"/>
       <use xlink:href="#DejaVuSans-30" x="63.623047"/>
       <use xlink:href="#DejaVuSans-30" x="127.246094"/>
      </g>
     </g>
    </g>
    <g id="xtick_8">
     <g id="line2d_20">
      <g>
       <use xlink:href="#mbec4b35d2e" x="451.739214" y="260.521875" style="stroke: #000000; stroke-width: 0.8"/>
      </g>
     </g>
     <g id="text_22">
      <!-- 600 -->
      <g transform="translate(442.195464 275.120313) scale(0.1 -0.1)">
       <defs>
        <path id="DejaVuSans-36" d="M 2113 2584 
Q 1688 2584 1439 2293 
Q 1191 2003 1191 1497 
Q 1191 994 1439 701 
Q 1688 409 2113 409 
Q 2538 409 2786 701 
Q 3034 994 3034 1497 
Q 3034 2003 2786 2293 
Q 2538 2584 2113 2584 
z
M 3366 4563 
L 3366 3988 
Q 3128 4100 2886 4159 
Q 2644 4219 2406 4219 
Q 1781 4219 1451 3797 
Q 1122 3375 1075 2522 
Q 1259 2794 1537 2939 
Q 1816 3084 2150 3084 
Q 2853 3084 3261 2657 
Q 3669 2231 3669 1497 
Q 3669 778 3244 343 
Q 2819 -91 2113 -91 
Q 1303 -91 875 529 
Q 447 1150 447 2328 
Q 447 3434 972 4092 
Q 1497 4750 2381 4750 
Q 2619 4750 2861 4703 
Q 3103 4656 3366 4563 
z
" transform="scale(0.015625)"/>
       </defs>
       <use xlink:href="#DejaVuSans-36"/>
       <use xlink:href="#DejaVuSans-30" x="63.623047"/>
       <use xlink:href="#DejaVuSans-30" x="127.246094"/>
      </g>
     </g>
    </g>
    <g id="xtick_9">
     <g id="line2d_21">
      <g>
       <use xlink:href="#mbec4b35d2e" x="496.996807" y="260.521875" style="stroke: #000000; stroke-width: 0.8"/>
      </g>
     </g>
     <g id="text_23">
      <!-- 800 -->
      <g transform="translate(487.453057 275.120313) scale(0.1 -0.1)">
       <defs>
        <path id="DejaVuSans-38" d="M 2034 2216 
Q 1584 2216 1326 1975 
Q 1069 1734 1069 1313 
Q 1069 891 1326 650 
Q 1584 409 2034 409 
Q 2484 409 2743 651 
Q 3003 894 3003 1313 
Q 3003 1734 2745 1975 
Q 2488 2216 2034 2216 
z
M 1403 2484 
Q 997 2584 770 2862 
Q 544 3141 544 3541 
Q 544 4100 942 4425 
Q 1341 4750 2034 4750 
Q 2731 4750 3128 4425 
Q 3525 4100 3525 3541 
Q 3525 3141 3298 2862 
Q 3072 2584 2669 2484 
Q 3125 2378 3379 2068 
Q 3634 1759 3634 1313 
Q 3634 634 3220 271 
Q 2806 -91 2034 -91 
Q 1263 -91 848 271 
Q 434 634 434 1313 
Q 434 1759 690 2068 
Q 947 2378 1403 2484 
z
M 1172 3481 
Q 1172 3119 1398 2916 
Q 1625 2713 2034 2713 
Q 2441 2713 2670 2916 
Q 2900 3119 2900 3481 
Q 2900 3844 2670 4047 
Q 2441 4250 2034 4250 
Q 1625 4250 1398 4047 
Q 1172 3844 1172 3481 
z
" transform="scale(0.015625)"/>
       </defs>
       <use xlink:href="#DejaVuSans-38"/>
       <use xlink:href="#DejaVuSans-30" x="63.623047"/>
       <use xlink:href="#DejaVuSans-30" x="127.246094"/>
      </g>
     </g>
    </g>
    <g id="xtick_10">
     <g id="line2d_22">
      <g>
       <use xlink:href="#mbec4b35d2e" x="542.2544" y="260.521875" style="stroke: #000000; stroke-width: 0.8"/>
      </g>
     </g>
     <g id="text_24">
      <!-- 1000 -->
      <g transform="translate(529.5294 275.120313) scale(0.1 -0.1)">
       <use xlink:href="#DejaVuSans-31"/>
       <use xlink:href="#DejaVuSans-30" x="63.623047"/>
       <use xlink:href="#DejaVuSans-30" x="127.246094"/>
       <use xlink:href="#DejaVuSans-30" x="190.869141"/>
      </g>
     </g>
    </g>
   </g>
   <g id="matplotlib.axis_4">
    <g id="ytick_10">
     <g id="line2d_23">
      <g>
       <use xlink:href="#mbc8ad6dfc5" x="344.161916" y="260.521875" style="stroke: #000000; stroke-width: 0.8"/>
      </g>
     </g>
     <g id="text_25">
      <!-- 0.000 -->
      <g transform="translate(308.533791 264.321094) scale(0.1 -0.1)">
       <use xlink:href="#DejaVuSans-30"/>
       <use xlink:href="#DejaVuSans-2e" x="63.623047"/>
       <use xlink:href="#DejaVuSans-30" x="95.410156"/>
       <use xlink:href="#DejaVuSans-30" x="159.033203"/>
       <use xlink:href="#DejaVuSans-30" x="222.65625"/>
      </g>
     </g>
    </g>
    <g id="ytick_11">
     <g id="line2d_24">
      <g>
       <use xlink:href="#mbc8ad6dfc5" x="344.161916" y="212.396329" style="stroke: #000000; stroke-width: 0.8"/>
      </g>
     </g>
     <g id="text_26">
      <!-- 0.002 -->
      <g transform="translate(308.533791 216.195547) scale(0.1 -0.1)">
       <use xlink:href="#DejaVuSans-30"/>
       <use xlink:href="#DejaVuSans-2e" x="63.623047"/>
       <use xlink:href="#DejaVuSans-30" x="95.410156"/>
       <use xlink:href="#DejaVuSans-30" x="159.033203"/>
       <use xlink:href="#DejaVuSans-32" x="222.65625"/>
      </g>
     </g>
    </g>
    <g id="ytick_12">
     <g id="line2d_25">
      <g>
       <use xlink:href="#mbc8ad6dfc5" x="344.161916" y="164.270782" style="stroke: #000000; stroke-width: 0.8"/>
      </g>
     </g>
     <g id="text_27">
      <!-- 0.004 -->
      <g transform="translate(308.533791 168.070001) scale(0.1 -0.1)">
       <use xlink:href="#DejaVuSans-30"/>
       <use xlink:href="#DejaVuSans-2e" x="63.623047"/>
       <use xlink:href="#DejaVuSans-30" x="95.410156"/>
       <use xlink:href="#DejaVuSans-30" x="159.033203"/>
       <use xlink:href="#DejaVuSans-34" x="222.65625"/>
      </g>
     </g>
    </g>
    <g id="ytick_13">
     <g id="line2d_26">
      <g>
       <use xlink:href="#mbc8ad6dfc5" x="344.161916" y="116.145236" style="stroke: #000000; stroke-width: 0.8"/>
      </g>
     </g>
     <g id="text_28">
      <!-- 0.006 -->
      <g transform="translate(308.533791 119.944454) scale(0.1 -0.1)">
       <use xlink:href="#DejaVuSans-30"/>
       <use xlink:href="#DejaVuSans-2e" x="63.623047"/>
       <use xlink:href="#DejaVuSans-30" x="95.410156"/>
       <use xlink:href="#DejaVuSans-30" x="159.033203"/>
       <use xlink:href="#DejaVuSans-36" x="222.65625"/>
      </g>
     </g>
    </g>
    <g id="ytick_14">
     <g id="line2d_27">
      <g>
       <use xlink:href="#mbc8ad6dfc5" x="344.161916" y="68.019689" style="stroke: #000000; stroke-width: 0.8"/>
      </g>
     </g>
     <g id="text_29">
      <!-- 0.008 -->
      <g transform="translate(308.533791 71.818908) scale(0.1 -0.1)">
       <use xlink:href="#DejaVuSans-30"/>
       <use xlink:href="#DejaVuSans-2e" x="63.623047"/>
       <use xlink:href="#DejaVuSans-30" x="95.410156"/>
       <use xlink:href="#DejaVuSans-30" x="159.033203"/>
       <use xlink:href="#DejaVuSans-38" x="222.65625"/>
      </g>
     </g>
    </g>
    <g id="text_30">
     <!-- Fraction of cells -->
     <g transform="translate(301.622228 198.811719) rotate(-90) scale(0.14 -0.14)">
      <use xlink:href="#DejaVuSans-46"/>
      <use xlink:href="#DejaVuSans-72" x="50.269531"/>
      <use xlink:href="#DejaVuSans-61" x="91.382812"/>
      <use xlink:href="#DejaVuSans-63" x="152.662109"/>
      <use xlink:href="#DejaVuSans-74" x="207.642578"/>
      <use xlink:href="#DejaVuSans-69" x="246.851562"/>
      <use xlink:href="#DejaVuSans-6f" x="274.634766"/>
      <use xlink:href="#DejaVuSans-6e" x="335.816406"/>
      <use xlink:href="#DejaVuSans-20" x="399.195312"/>
      <use xlink:href="#DejaVuSans-6f" x="430.982422"/>
      <use xlink:href="#DejaVuSans-66" x="492.164062"/>
      <use xlink:href="#DejaVuSans-20" x="527.369141"/>
      <use xlink:href="#DejaVuSans-63" x="559.15625"/>
      <use xlink:href="#DejaVuSans-65" x="614.136719"/>
      <use xlink:href="#DejaVuSans-6c" x="675.660156"/>
      <use xlink:href="#DejaVuSans-6c" x="703.443359"/>
      <use xlink:href="#DejaVuSans-73" x="731.226562"/>
     </g>
    </g>
   </g>
   <g id="line2d_28">
    <path d="M 354.209101 256.850719 
L 358.248171 255.511523 
L 362.28724 253.889667 
L 366.32631 251.982538 
L 370.36538 249.808217 
L 375.414217 246.796603 
L 384.502123 241.258127 
L 387.531426 239.664835 
L 390.560728 238.342218 
L 392.580263 237.648146 
L 394.599797 237.123668 
L 396.619332 236.778339 
L 398.638867 236.614169 
L 400.658402 236.625014 
L 403.687704 236.935974 
L 406.717006 237.527413 
L 411.765843 238.837656 
L 416.81468 240.074736 
L 419.843982 240.586326 
L 422.873285 240.848111 
L 425.902587 240.83895 
L 428.931889 240.570083 
L 431.961191 240.075642 
L 436.000261 239.140993 
L 440.03933 237.968702 
L 444.0784 236.580607 
L 447.107702 235.358406 
L 450.137004 233.909825 
L 453.166307 232.143187 
L 455.185841 230.736696 
L 457.205376 229.110371 
L 459.224911 227.235769 
L 461.244446 225.09049 
L 463.263981 222.661364 
L 465.283516 219.947627 
L 468.312818 215.380119 
L 471.34212 210.335208 
L 478.410492 198.14162 
L 480.430027 195.028323 
L 482.449561 192.305629 
L 484.469096 190.096334 
L 485.478864 189.219704 
L 486.488631 188.511944 
L 487.498398 187.98401 
L 488.508166 187.645269 
L 489.517933 187.50332 
L 490.527701 187.563843 
L 491.537468 187.830485 
L 492.547235 188.304771 
L 493.557003 188.986057 
L 494.56677 189.871519 
L 495.576538 190.956183 
L 496.586305 192.232984 
L 498.60584 195.324961 
L 500.625375 199.053913 
L 502.644909 203.302718 
L 505.674212 210.356098 
L 513.752351 229.856684 
L 516.781653 236.302462 
L 518.801188 240.12535 
L 520.820723 243.528142 
L 522.840257 246.500443 
L 524.859792 249.050442 
L 526.879327 251.201217 
L 528.898862 252.986713 
L 530.918397 254.447765 
L 532.937931 255.628453 
L 534.957466 256.573013 
L 536.977001 257.323418 
L 540.006303 258.166791 
L 543.035606 258.764505 
L 547.074675 259.313677 
L 552.123512 259.763775 
L 555.152814 259.956208 
L 555.152814 259.956208 
" clip-path="url(#pf682271f1a)" style="fill: none; stroke: #1f77b4; stroke-width: 1.5; stroke-linecap: square"/>
   </g>
   <g id="line2d_29">
    <path d="M 354.209101 236.749894 
L 358.248171 230.848223 
L 371.375147 211.046356 
L 374.404449 207.050879 
L 377.433751 203.489473 
L 379.453286 201.39501 
L 381.472821 199.547527 
L 383.492356 197.964368 
L 385.511891 196.661072 
L 387.531426 195.651589 
L 389.55096 194.948261 
L 391.570495 194.56153 
L 393.59003 194.49938 
L 395.609565 194.766562 
L 397.6291 195.363691 
L 399.648634 196.28633 
L 401.668169 197.524195 
L 403.687704 199.060598 
L 405.707239 200.872229 
L 407.726774 202.929349 
L 410.756076 206.396203 
L 414.795145 211.50978 
L 423.883052 223.33607 
L 426.912354 226.911911 
L 429.941656 230.156381 
L 432.970959 233.030281 
L 436.000261 235.525594 
L 439.029563 237.659236 
L 442.058865 239.464838 
L 445.088167 240.984178 
L 448.11747 242.259775 
L 451.146772 243.329764 
L 455.185841 244.489994 
L 459.224911 245.398175 
L 464.273748 246.255295 
L 471.34212 247.144396 
L 478.410492 248.046908 
L 483.459329 248.930175 
L 487.498398 249.848804 
L 492.547235 251.254408 
L 499.615607 253.516838 
L 506.683979 255.73176 
L 511.732816 257.053704 
L 515.771886 257.874345 
L 519.810955 258.45535 
L 523.850025 258.79174 
L 527.889094 258.897069 
L 531.928164 258.802259 
L 537.986769 258.39288 
L 550.103977 257.448064 
L 555.152814 257.335626 
L 555.152814 257.335626 
" clip-path="url(#pf682271f1a)" style="fill: none; stroke: #ff7f0e; stroke-width: 1.5; stroke-linecap: square"/>
   </g>
   <g id="line2d_30">
    <path d="M 354.209101 258.413249 
L 356.228636 257.438255 
L 358.248171 256.19192 
L 360.267706 254.674892 
L 362.28724 252.914434 
L 365.316543 249.933311 
L 370.36538 244.556252 
L 374.404449 240.059859 
L 377.433751 236.311476 
L 379.453286 233.491485 
L 382.482589 228.739724 
L 388.541193 218.731247 
L 390.560728 215.84703 
L 392.580263 213.309098 
L 396.619332 208.545879 
L 398.638867 205.617386 
L 399.648634 203.837092 
L 400.658402 201.787984 
L 401.668169 199.439834 
L 403.687704 193.800963 
L 405.707239 187.006796 
L 411.765843 164.524634 
L 412.775611 161.386622 
L 413.785378 158.65212 
L 414.795145 156.384247 
L 415.804913 154.629203 
L 416.81468 153.414747 
L 417.824448 152.749877 
L 418.834215 152.625669 
L 419.843982 153.017141 
L 420.85375 153.885919 
L 421.863517 155.18346 
L 422.873285 156.854511 
L 423.883052 158.840551 
L 425.902587 163.525735 
L 428.931889 171.575294 
L 437.010028 193.719625 
L 448.11747 223.130916 
L 451.146772 230.562542 
L 453.166307 235.075492 
L 455.185841 239.142836 
L 457.205376 242.729063 
L 459.224911 245.83943 
L 461.244446 248.510499 
L 463.263981 250.795153 
L 465.283516 252.747692 
L 467.30305 254.413484 
L 469.322585 255.825084 
L 471.34212 257.004154 
L 473.361655 257.966703 
L 475.38119 258.728733 
L 477.400724 259.310045 
L 480.430027 259.898084 
L 483.459329 260.230596 
L 487.498398 260.431928 
L 494.56677 260.514597 
L 543.035606 260.521875 
L 555.152814 260.521875 
L 555.152814 260.521875 
" clip-path="url(#pf682271f1a)" style="fill: none; stroke: #2ca02c; stroke-width: 1.5; stroke-linecap: square"/>
   </g>
   <g id="patch_132">
    <path d="M 344.161916 260.521875 
L 344.161916 27.437812 
" style="fill: none; stroke: #000000; stroke-width: 0.8; stroke-linejoin: miter; stroke-linecap: square"/>
   </g>
   <g id="patch_133">
    <path d="M 565.2 260.521875 
L 565.2 27.437812 
" style="fill: none; stroke: #000000; stroke-width: 0.8; stroke-linejoin: miter; stroke-linecap: square"/>
   </g>
   <g id="patch_134">
    <path d="M 344.161916 260.521875 
L 565.2 260.521875 
" style="fill: none; stroke: #000000; stroke-width: 0.8; stroke-linejoin: miter; stroke-linecap: square"/>
   </g>
   <g id="patch_135">
    <path d="M 344.161916 27.437812 
L 565.2 27.437812 
" style="fill: none; stroke: #000000; stroke-width: 0.8; stroke-linejoin: miter; stroke-linecap: square"/>
   </g>
   <g id="text_31">
    <!-- Linear -->
    <g transform="translate(432.925177 21.437813) scale(0.14 -0.14)">
     <defs>
      <path id="DejaVuSans-4c" d="M 628 4666 
L 1259 4666 
L 1259 531 
L 3531 531 
L 3531 0 
L 628 0 
L 628 4666 
z
" transform="scale(0.015625)"/>
     </defs>
     <use xlink:href="#DejaVuSans-4c"/>
     <use xlink:href="#DejaVuSans-69" x="55.712891"/>
     <use xlink:href="#DejaVuSans-6e" x="83.496094"/>
     <use xlink:href="#DejaVuSans-65" x="146.875"/>
     <use xlink:href="#DejaVuSans-61" x="208.398438"/>
     <use xlink:href="#DejaVuSans-72" x="269.677734"/>
    </g>
   </g>
   <g id="legend_2">
    <g id="patch_136">
     <path d="M 476.810625 89.879062 
L 556.8 89.879062 
Q 559.2 89.879062 559.2 87.479062 
L 559.2 35.837812 
Q 559.2 33.437812 556.8 33.437812 
L 476.810625 33.437812 
Q 474.410625 33.437812 474.410625 35.837812 
L 474.410625 87.479062 
Q 474.410625 89.879062 476.810625 89.879062 
z
" style="fill: #ffffff; opacity: 0.8; stroke: #cccccc; stroke-linejoin: miter"/>
    </g>
    <g id="patch_137">
     <path d="M 479.210625 47.355937 
L 503.210625 47.355937 
L 503.210625 38.955937 
L 479.210625 38.955937 
z
" style="fill: #1f77b4; opacity: 0.4"/>
    </g>
    <g id="text_32">
     <!-- control -->
     <g transform="translate(512.810625 47.355937) scale(0.12 -0.12)">
      <use xlink:href="#DejaVuSans-63"/>
      <use xlink:href="#DejaVuSans-6f" x="54.980469"/>
      <use xlink:href="#DejaVuSans-6e" x="116.162109"/>
      <use xlink:href="#DejaVuSans-74" x="179.541016"/>
      <use xlink:href="#DejaVuSans-72" x="218.75"/>
      <use xlink:href="#DejaVuSans-6f" x="257.613281"/>
      <use xlink:href="#DejaVuSans-6c" x="318.794922"/>
     </g>
    </g>
    <g id="patch_138">
     <path d="M 479.210625 64.969687 
L 503.210625 64.969687 
L 503.210625 56.569687 
L 479.210625 56.569687 
z
" style="fill: #ff7f0e; opacity: 0.4"/>
    </g>
    <g id="text_33">
     <!-- cytd -->
     <g transform="translate(512.810625 64.969687) scale(0.12 -0.12)">
      <use xlink:href="#DejaVuSans-63"/>
      <use xlink:href="#DejaVuSans-79" x="54.980469"/>
      <use xlink:href="#DejaVuSans-74" x="114.160156"/>
      <use xlink:href="#DejaVuSans-64" x="153.369141"/>
     </g>
    </g>
    <g id="patch_139">
     <path d="M 479.210625 82.583437 
L 503.210625 82.583437 
L 503.210625 74.183437 
L 479.210625 74.183437 
z
" style="fill: #2ca02c; opacity: 0.4"/>
    </g>
    <g id="text_34">
     <!-- jasp -->
     <g transform="translate(512.810625 82.583437) scale(0.12 -0.12)">
      <use xlink:href="#DejaVuSans-6a"/>
      <use xlink:href="#DejaVuSans-61" x="27.783203"/>
      <use xlink:href="#DejaVuSans-73" x="89.0625"/>
      <use xlink:href="#DejaVuSans-70" x="141.162109"/>
     </g>
    </g>
   </g>
  </g>
 </g>
 <defs>
  <clipPath id="p3baefabe9a">
   <rect x="57.615" y="27.437813" width="221.038084" height="233.084062"/>
  </clipPath>
  <clipPath id="pf682271f1a">
   <rect x="344.161916" y="27.437813" width="221.038084" height="233.084062"/>
  </clipPath>
 </defs>
</svg>
