<?xml version="1.0" encoding="utf-8" standalone="no"?>
<!DOCTYPE svg PUBLIC "-//W3C//DTD SVG 1.1//EN"
  "http://www.w3.org/Graphics/SVG/1.1/DTD/svg11.dtd">
<svg xmlns:xlink="http://www.w3.org/1999/xlink" width="576pt" height="288pt" viewBox="0 0 576 288" xmlns="http://www.w3.org/2000/svg" version="1.1">
 <metadata>
  <rdf:RDF xmlns:dc="http://purl.org/dc/elements/1.1/" xmlns:cc="http://creativecommons.org/ns#" xmlns:rdf="http://www.w3.org/1999/02/22-rdf-syntax-ns#">
   <cc:Work>
    <dc:type rdf:resource="http://purl.org/dc/dcmitype/StillImage"/>
    <dc:date>2024-04-08T18:34:28.487600</dc:date>
    <dc:format>image/svg+xml</dc:format>
    <dc:creator>
     <cc:Agent>
      <dc:title>Matplotlib v3.8.4, https://matplotlib.org/</dc:title>
     </cc:Agent>
    </dc:creator>
   </cc:Work>
  </rdf:RDF>
 </metadata>
 <defs>
  <style type="text/css">*{stroke-linejoin: round; stroke-linecap: butt}</style>
 </defs>
 <g id="figure_1">
  <g id="patch_1">
   <path d="M 0 288 
L 576 288 
L 576 0 
L 0 0 
z
" style="fill: #ffffff"/>
  </g>
  <g id="axes_1">
   <g id="patch_2">
    <path d="M 41.711875 260.521875 
L 287.53125 260.521875 
L 287.53125 57.594062 
L 41.711875 57.594062 
z
" style="fill: #ffffff"/>
   </g>
   <g id="patch_3">
    <path d="M 41.711875 260.521875 
L 53.706123 260.521875 
L 53.706123 247.193283 
L 41.711875 247.193283 
z
" clip-path="url(#p4d65ee2a8b)" style="fill: #1f77b4; opacity: 0.4"/>
   </g>
   <g id="patch_4">
    <path d="M 53.706123 260.521875 
L 65.70037 260.521875 
L 65.70037 260.521875 
L 53.706123 260.521875 
z
" clip-path="url(#p4d65ee2a8b)" style="fill: #1f77b4; opacity: 0.4"/>
   </g>
   <g id="patch_5">
    <path d="M 65.70037 260.521875 
L 77.694618 260.521875 
L 77.694618 260.521875 
L 65.70037 260.521875 
z
" clip-path="url(#p4d65ee2a8b)" style="fill: #1f77b4; opacity: 0.4"/>
   </g>
   <g id="patch_6">
    <path d="M 77.694618 260.521875 
L 89.688866 260.521875 
L 89.688866 260.521875 
L 77.694618 260.521875 
z
" clip-path="url(#p4d65ee2a8b)" style="fill: #1f77b4; opacity: 0.4"/>
   </g>
   <g id="patch_7">
    <path d="M 89.688866 260.521875 
L 101.683113 260.521875 
L 101.683113 260.521875 
L 89.688866 260.521875 
z
" clip-path="url(#p4d65ee2a8b)" style="fill: #1f77b4; opacity: 0.4"/>
   </g>
   <g id="patch_8">
    <path d="M 101.683113 260.521875 
L 113.677361 260.521875 
L 113.677361 220.536099 
L 101.683113 220.536099 
z
" clip-path="url(#p4d65ee2a8b)" style="fill: #1f77b4; opacity: 0.4"/>
   </g>
   <g id="patch_9">
    <path d="M 113.677361 260.521875 
L 125.671609 260.521875 
L 125.671609 207.207507 
L 113.677361 207.207507 
z
" clip-path="url(#p4d65ee2a8b)" style="fill: #1f77b4; opacity: 0.4"/>
   </g>
   <g id="patch_10">
    <path d="M 125.671609 260.521875 
L 137.665856 260.521875 
L 137.665856 67.257292 
L 125.671609 67.257292 
z
" clip-path="url(#p4d65ee2a8b)" style="fill: #1f77b4; opacity: 0.4"/>
   </g>
   <g id="patch_11">
    <path d="M 137.665856 260.521875 
L 149.660104 260.521875 
L 149.660104 67.257292 
L 137.665856 67.257292 
z
" clip-path="url(#p4d65ee2a8b)" style="fill: #1f77b4; opacity: 0.4"/>
   </g>
   <g id="patch_12">
    <path d="M 149.660104 260.521875 
L 161.654352 260.521875 
L 161.654352 153.893139 
L 149.660104 153.893139 
z
" clip-path="url(#p4d65ee2a8b)" style="fill: #1f77b4; opacity: 0.4"/>
   </g>
   <g id="patch_13">
    <path d="M 161.654352 260.521875 
L 173.648599 260.521875 
L 173.648599 200.543211 
L 161.654352 200.543211 
z
" clip-path="url(#p4d65ee2a8b)" style="fill: #1f77b4; opacity: 0.4"/>
   </g>
   <g id="patch_14">
    <path d="M 173.648599 260.521875 
L 185.642847 260.521875 
L 185.642847 247.193283 
L 173.648599 247.193283 
z
" clip-path="url(#p4d65ee2a8b)" style="fill: #1f77b4; opacity: 0.4"/>
   </g>
   <g id="patch_15">
    <path d="M 185.642847 260.521875 
L 197.637095 260.521875 
L 197.637095 253.857579 
L 185.642847 253.857579 
z
" clip-path="url(#p4d65ee2a8b)" style="fill: #1f77b4; opacity: 0.4"/>
   </g>
   <g id="patch_16">
    <path d="M 197.637095 260.521875 
L 209.631342 260.521875 
L 209.631342 233.864691 
L 197.637095 233.864691 
z
" clip-path="url(#p4d65ee2a8b)" style="fill: #1f77b4; opacity: 0.4"/>
   </g>
   <g id="patch_17">
    <path d="M 209.631342 260.521875 
L 221.62559 260.521875 
L 221.62559 247.193283 
L 209.631342 247.193283 
z
" clip-path="url(#p4d65ee2a8b)" style="fill: #1f77b4; opacity: 0.4"/>
   </g>
   <g id="patch_18">
    <path d="M 221.62559 260.521875 
L 233.619838 260.521875 
L 233.619838 240.528987 
L 221.62559 240.528987 
z
" clip-path="url(#p4d65ee2a8b)" style="fill: #1f77b4; opacity: 0.4"/>
   </g>
   <g id="patch_19">
    <path d="M 233.619838 260.521875 
L 245.614085 260.521875 
L 245.614085 253.857579 
L 233.619838 253.857579 
z
" clip-path="url(#p4d65ee2a8b)" style="fill: #1f77b4; opacity: 0.4"/>
   </g>
   <g id="patch_20">
    <path d="M 245.614085 260.521875 
L 257.608333 260.521875 
L 257.608333 260.521875 
L 245.614085 260.521875 
z
" clip-path="url(#p4d65ee2a8b)" style="fill: #1f77b4; opacity: 0.4"/>
   </g>
   <g id="patch_21">
    <path d="M 257.608333 260.521875 
L 269.602581 260.521875 
L 269.602581 253.857579 
L 257.608333 253.857579 
z
" clip-path="url(#p4d65ee2a8b)" style="fill: #1f77b4; opacity: 0.4"/>
   </g>
   <g id="patch_22">
    <path d="M 269.602581 260.521875 
L 281.596828 260.521875 
L 281.596828 253.857579 
L 269.602581 253.857579 
z
" clip-path="url(#p4d65ee2a8b)" style="fill: #1f77b4; opacity: 0.4"/>
   </g>
   <g id="patch_23">
    <path d="M 106.738348 260.521875 
L 115.777993 260.521875 
L 115.777993 248.22862 
L 106.738348 248.22862 
z
" clip-path="url(#p4d65ee2a8b)" style="fill: #ff7f0e; opacity: 0.4"/>
   </g>
   <g id="patch_24">
    <path d="M 115.777993 260.521875 
L 124.817638 260.521875 
L 124.817638 235.935364 
L 115.777993 235.935364 
z
" clip-path="url(#p4d65ee2a8b)" style="fill: #ff7f0e; opacity: 0.4"/>
   </g>
   <g id="patch_25">
    <path d="M 124.817638 260.521875 
L 133.857283 260.521875 
L 133.857283 235.935364 
L 124.817638 235.935364 
z
" clip-path="url(#p4d65ee2a8b)" style="fill: #ff7f0e; opacity: 0.4"/>
   </g>
   <g id="patch_26">
    <path d="M 133.857283 260.521875 
L 142.896928 260.521875 
L 142.896928 248.22862 
L 133.857283 248.22862 
z
" clip-path="url(#p4d65ee2a8b)" style="fill: #ff7f0e; opacity: 0.4"/>
   </g>
   <g id="patch_27">
    <path d="M 142.896928 260.521875 
L 151.936573 260.521875 
L 151.936573 162.175831 
L 142.896928 162.175831 
z
" clip-path="url(#p4d65ee2a8b)" style="fill: #ff7f0e; opacity: 0.4"/>
   </g>
   <g id="patch_28">
    <path d="M 151.936573 260.521875 
L 160.976218 260.521875 
L 160.976218 186.762342 
L 151.936573 186.762342 
z
" clip-path="url(#p4d65ee2a8b)" style="fill: #ff7f0e; opacity: 0.4"/>
   </g>
   <g id="patch_29">
    <path d="M 160.976218 260.521875 
L 170.015863 260.521875 
L 170.015863 186.762342 
L 160.976218 186.762342 
z
" clip-path="url(#p4d65ee2a8b)" style="fill: #ff7f0e; opacity: 0.4"/>
   </g>
   <g id="patch_30">
    <path d="M 170.015863 260.521875 
L 179.055509 260.521875 
L 179.055509 186.762342 
L 170.015863 186.762342 
z
" clip-path="url(#p4d65ee2a8b)" style="fill: #ff7f0e; opacity: 0.4"/>
   </g>
   <g id="patch_31">
    <path d="M 179.055509 260.521875 
L 188.095154 260.521875 
L 188.095154 174.469087 
L 179.055509 174.469087 
z
" clip-path="url(#p4d65ee2a8b)" style="fill: #ff7f0e; opacity: 0.4"/>
   </g>
   <g id="patch_32">
    <path d="M 188.095154 260.521875 
L 197.134799 260.521875 
L 197.134799 162.175831 
L 188.095154 162.175831 
z
" clip-path="url(#p4d65ee2a8b)" style="fill: #ff7f0e; opacity: 0.4"/>
   </g>
   <g id="patch_33">
    <path d="M 197.134799 260.521875 
L 206.174444 260.521875 
L 206.174444 137.58932 
L 197.134799 137.58932 
z
" clip-path="url(#p4d65ee2a8b)" style="fill: #ff7f0e; opacity: 0.4"/>
   </g>
   <g id="patch_34">
    <path d="M 206.174444 260.521875 
L 215.214089 260.521875 
L 215.214089 186.762342 
L 206.174444 186.762342 
z
" clip-path="url(#p4d65ee2a8b)" style="fill: #ff7f0e; opacity: 0.4"/>
   </g>
   <g id="patch_35">
    <path d="M 215.214089 260.521875 
L 224.253734 260.521875 
L 224.253734 186.762342 
L 215.214089 186.762342 
z
" clip-path="url(#p4d65ee2a8b)" style="fill: #ff7f0e; opacity: 0.4"/>
   </g>
   <g id="patch_36">
    <path d="M 224.253734 260.521875 
L 233.293379 260.521875 
L 233.293379 235.935364 
L 224.253734 235.935364 
z
" clip-path="url(#p4d65ee2a8b)" style="fill: #ff7f0e; opacity: 0.4"/>
   </g>
   <g id="patch_37">
    <path d="M 233.293379 260.521875 
L 242.333024 260.521875 
L 242.333024 223.642109 
L 233.293379 223.642109 
z
" clip-path="url(#p4d65ee2a8b)" style="fill: #ff7f0e; opacity: 0.4"/>
   </g>
   <g id="patch_38">
    <path d="M 242.333024 260.521875 
L 251.37267 260.521875 
L 251.37267 223.642109 
L 242.333024 223.642109 
z
" clip-path="url(#p4d65ee2a8b)" style="fill: #ff7f0e; opacity: 0.4"/>
   </g>
   <g id="patch_39">
    <path d="M 251.37267 260.521875 
L 260.412315 260.521875 
L 260.412315 248.22862 
L 251.37267 248.22862 
z
" clip-path="url(#p4d65ee2a8b)" style="fill: #ff7f0e; opacity: 0.4"/>
   </g>
   <g id="patch_40">
    <path d="M 260.412315 260.521875 
L 269.45196 260.521875 
L 269.45196 235.935364 
L 260.412315 235.935364 
z
" clip-path="url(#p4d65ee2a8b)" style="fill: #ff7f0e; opacity: 0.4"/>
   </g>
   <g id="patch_41">
    <path d="M 269.45196 260.521875 
L 278.491605 260.521875 
L 278.491605 260.521875 
L 269.45196 260.521875 
z
" clip-path="url(#p4d65ee2a8b)" style="fill: #ff7f0e; opacity: 0.4"/>
   </g>
   <g id="patch_42">
    <path d="M 278.491605 260.521875 
L 287.53125 260.521875 
L 287.53125 235.935364 
L 278.491605 235.935364 
z
" clip-path="url(#p4d65ee2a8b)" style="fill: #ff7f0e; opacity: 0.4"/>
   </g>
   <g id="patch_43">
    <path d="M 112.070901 260.521875 
L 119.775726 260.521875 
L 119.775726 203.295149 
L 112.070901 203.295149 
z
" clip-path="url(#p4d65ee2a8b)" style="fill: #2ca02c; opacity: 0.4"/>
   </g>
   <g id="patch_44">
    <path d="M 119.775726 260.521875 
L 127.480552 260.521875 
L 127.480552 126.992847 
L 119.775726 126.992847 
z
" clip-path="url(#p4d65ee2a8b)" style="fill: #2ca02c; opacity: 0.4"/>
   </g>
   <g id="patch_45">
    <path d="M 127.480552 260.521875 
L 135.185377 260.521875 
L 135.185377 241.4463 
L 127.480552 241.4463 
z
" clip-path="url(#p4d65ee2a8b)" style="fill: #2ca02c; opacity: 0.4"/>
   </g>
   <g id="patch_46">
    <path d="M 135.185377 260.521875 
L 142.890203 260.521875 
L 142.890203 126.992847 
L 135.185377 126.992847 
z
" clip-path="url(#p4d65ee2a8b)" style="fill: #2ca02c; opacity: 0.4"/>
   </g>
   <g id="patch_47">
    <path d="M 142.890203 260.521875 
L 150.595028 260.521875 
L 150.595028 88.841696 
L 142.890203 88.841696 
z
" clip-path="url(#p4d65ee2a8b)" style="fill: #2ca02c; opacity: 0.4"/>
   </g>
   <g id="patch_48">
    <path d="M 150.595028 260.521875 
L 158.299854 260.521875 
L 158.299854 165.143998 
L 150.595028 165.143998 
z
" clip-path="url(#p4d65ee2a8b)" style="fill: #2ca02c; opacity: 0.4"/>
   </g>
   <g id="patch_49">
    <path d="M 158.299854 260.521875 
L 166.004679 260.521875 
L 166.004679 126.992847 
L 158.299854 126.992847 
z
" clip-path="url(#p4d65ee2a8b)" style="fill: #2ca02c; opacity: 0.4"/>
   </g>
   <g id="patch_50">
    <path d="M 166.004679 260.521875 
L 173.709504 260.521875 
L 173.709504 146.068422 
L 166.004679 146.068422 
z
" clip-path="url(#p4d65ee2a8b)" style="fill: #2ca02c; opacity: 0.4"/>
   </g>
   <g id="patch_51">
    <path d="M 173.709504 260.521875 
L 181.41433 260.521875 
L 181.41433 222.370724 
L 173.709504 222.370724 
z
" clip-path="url(#p4d65ee2a8b)" style="fill: #2ca02c; opacity: 0.4"/>
   </g>
   <g id="patch_52">
    <path d="M 181.41433 260.521875 
L 189.119155 260.521875 
L 189.119155 241.4463 
L 181.41433 241.4463 
z
" clip-path="url(#p4d65ee2a8b)" style="fill: #2ca02c; opacity: 0.4"/>
   </g>
   <g id="patch_53">
    <path d="M 189.119155 260.521875 
L 196.823981 260.521875 
L 196.823981 165.143998 
L 189.119155 165.143998 
z
" clip-path="url(#p4d65ee2a8b)" style="fill: #2ca02c; opacity: 0.4"/>
   </g>
   <g id="patch_54">
    <path d="M 196.823981 260.521875 
L 204.528806 260.521875 
L 204.528806 184.219573 
L 196.823981 184.219573 
z
" clip-path="url(#p4d65ee2a8b)" style="fill: #2ca02c; opacity: 0.4"/>
   </g>
   <g id="patch_55">
    <path d="M 204.528806 260.521875 
L 212.233631 260.521875 
L 212.233631 241.4463 
L 204.528806 241.4463 
z
" clip-path="url(#p4d65ee2a8b)" style="fill: #2ca02c; opacity: 0.4"/>
   </g>
   <g id="patch_56">
    <path d="M 212.233631 260.521875 
L 219.938457 260.521875 
L 219.938457 260.521875 
L 212.233631 260.521875 
z
" clip-path="url(#p4d65ee2a8b)" style="fill: #2ca02c; opacity: 0.4"/>
   </g>
   <g id="patch_57">
    <path d="M 219.938457 260.521875 
L 227.643282 260.521875 
L 227.643282 260.521875 
L 219.938457 260.521875 
z
" clip-path="url(#p4d65ee2a8b)" style="fill: #2ca02c; opacity: 0.4"/>
   </g>
   <g id="patch_58">
    <path d="M 227.643282 260.521875 
L 235.348108 260.521875 
L 235.348108 241.4463 
L 227.643282 241.4463 
z
" clip-path="url(#p4d65ee2a8b)" style="fill: #2ca02c; opacity: 0.4"/>
   </g>
   <g id="patch_59">
    <path d="M 235.348108 260.521875 
L 243.052933 260.521875 
L 243.052933 241.4463 
L 235.348108 241.4463 
z
" clip-path="url(#p4d65ee2a8b)" style="fill: #2ca02c; opacity: 0.4"/>
   </g>
   <g id="patch_60">
    <path d="M 243.052933 260.521875 
L 250.757759 260.521875 
L 250.757759 260.521875 
L 243.052933 260.521875 
z
" clip-path="url(#p4d65ee2a8b)" style="fill: #2ca02c; opacity: 0.4"/>
   </g>
   <g id="patch_61">
    <path d="M 250.757759 260.521875 
L 258.462584 260.521875 
L 258.462584 260.521875 
L 250.757759 260.521875 
z
" clip-path="url(#p4d65ee2a8b)" style="fill: #2ca02c; opacity: 0.4"/>
   </g>
   <g id="patch_62">
    <path d="M 258.462584 260.521875 
L 266.167409 260.521875 
L 266.167409 222.370724 
L 258.462584 222.370724 
z
" clip-path="url(#p4d65ee2a8b)" style="fill: #2ca02c; opacity: 0.4"/>
   </g>
   <g id="matplotlib.axis_1">
    <g id="xtick_1">
     <g id="line2d_1">
      <defs>
       <path id="mb986aa7f69" d="M 0 0 
L 0 3.5 
" style="stroke: #000000; stroke-width: 0.8"/>
      </defs>
      <g>
       <use xlink:href="#mb986aa7f69" x="74.791398" y="260.521875" style="stroke: #000000; stroke-width: 0.8"/>
      </g>
     </g>
     <g id="text_1">
      <!-- 0.4 -->
      <g transform="translate(66.839835 275.120313) scale(0.1 -0.1)">
       <defs>
        <path id="DejaVuSans-30" d="M 2034 4250 
Q 1547 4250 1301 3770 
Q 1056 3291 1056 2328 
Q 1056 1369 1301 889 
Q 1547 409 2034 409 
Q 2525 409 2770 889 
Q 3016 1369 3016 2328 
Q 3016 3291 2770 3770 
Q 2525 4250 2034 4250 
z
M 2034 4750 
Q 2819 4750 3233 4129 
Q 3647 3509 3647 2328 
Q 3647 1150 3233 529 
Q 2819 -91 2034 -91 
Q 1250 -91 836 529 
Q 422 1150 422 2328 
Q 422 3509 836 4129 
Q 1250 4750 2034 4750 
z
" transform="scale(0.015625)"/>
        <path id="DejaVuSans-2e" d="M 684 794 
L 1344 794 
L 1344 0 
L 684 0 
L 684 794 
z
" transform="scale(0.015625)"/>
        <path id="DejaVuSans-34" d="M 2419 4116 
L 825 1625 
L 2419 1625 
L 2419 4116 
z
M 2253 4666 
L 3047 4666 
L 3047 1625 
L 3713 1625 
L 3713 1100 
L 3047 1100 
L 3047 0 
L 2419 0 
L 2419 1100 
L 313 1100 
L 313 1709 
L 2253 4666 
z
" transform="scale(0.015625)"/>
       </defs>
       <use xlink:href="#DejaVuSans-30"/>
       <use xlink:href="#DejaVuSans-2e" x="63.623047"/>
       <use xlink:href="#DejaVuSans-34" x="95.410156"/>
      </g>
     </g>
    </g>
    <g id="xtick_2">
     <g id="line2d_2">
      <g>
       <use xlink:href="#mb986aa7f69" x="110.427302" y="260.521875" style="stroke: #000000; stroke-width: 0.8"/>
      </g>
     </g>
     <g id="text_2">
      <!-- 0.5 -->
      <g transform="translate(102.475739 275.120313) scale(0.1 -0.1)">
       <defs>
        <path id="DejaVuSans-35" d="M 691 4666 
L 3169 4666 
L 3169 4134 
L 1269 4134 
L 1269 2991 
Q 1406 3038 1543 3061 
Q 1681 3084 1819 3084 
Q 2600 3084 3056 2656 
Q 3513 2228 3513 1497 
Q 3513 744 3044 326 
Q 2575 -91 1722 -91 
Q 1428 -91 1123 -41 
Q 819 9 494 109 
L 494 744 
Q 775 591 1075 516 
Q 1375 441 1709 441 
Q 2250 441 2565 725 
Q 2881 1009 2881 1497 
Q 2881 1984 2565 2268 
Q 2250 2553 1709 2553 
Q 1456 2553 1204 2497 
Q 953 2441 691 2322 
L 691 4666 
z
" transform="scale(0.015625)"/>
       </defs>
       <use xlink:href="#DejaVuSans-30"/>
       <use xlink:href="#DejaVuSans-2e" x="63.623047"/>
       <use xlink:href="#DejaVuSans-35" x="95.410156"/>
      </g>
     </g>
    </g>
    <g id="xtick_3">
     <g id="line2d_3">
      <g>
       <use xlink:href="#mb986aa7f69" x="146.063206" y="260.521875" style="stroke: #000000; stroke-width: 0.8"/>
      </g>
     </g>
     <g id="text_3">
      <!-- 0.6 -->
      <g transform="translate(138.111643 275.120313) scale(0.1 -0.1)">
       <defs>
        <path id="DejaVuSans-36" d="M 2113 2584 
Q 1688 2584 1439 2293 
Q 1191 2003 1191 1497 
Q 1191 994 1439 701 
Q 1688 409 2113 409 
Q 2538 409 2786 701 
Q 3034 994 3034 1497 
Q 3034 2003 2786 2293 
Q 2538 2584 2113 2584 
z
M 3366 4563 
L 3366 3988 
Q 3128 4100 2886 4159 
Q 2644 4219 2406 4219 
Q 1781 4219 1451 3797 
Q 1122 3375 1075 2522 
Q 1259 2794 1537 2939 
Q 1816 3084 2150 3084 
Q 2853 3084 3261 2657 
Q 3669 2231 3669 1497 
Q 3669 778 3244 343 
Q 2819 -91 2113 -91 
Q 1303 -91 875 529 
Q 447 1150 447 2328 
Q 447 3434 972 4092 
Q 1497 4750 2381 4750 
Q 2619 4750 2861 4703 
Q 3103 4656 3366 4563 
z
" transform="scale(0.015625)"/>
       </defs>
       <use xlink:href="#DejaVuSans-30"/>
       <use xlink:href="#DejaVuSans-2e" x="63.623047"/>
       <use xlink:href="#DejaVuSans-36" x="95.410156"/>
      </g>
     </g>
    </g>
    <g id="xtick_4">
     <g id="line2d_4">
      <g>
       <use xlink:href="#mb986aa7f69" x="181.699109" y="260.521875" style="stroke: #000000; stroke-width: 0.8"/>
      </g>
     </g>
     <g id="text_4">
      <!-- 0.7 -->
      <g transform="translate(173.747547 275.120313) scale(0.1 -0.1)">
       <defs>
        <path id="DejaVuSans-37" d="M 525 4666 
L 3525 4666 
L 3525 4397 
L 1831 0 
L 1172 0 
L 2766 4134 
L 525 4134 
L 525 4666 
z
" transform="scale(0.015625)"/>
       </defs>
       <use xlink:href="#DejaVuSans-30"/>
       <use xlink:href="#DejaVuSans-2e" x="63.623047"/>
       <use xlink:href="#DejaVuSans-37" x="95.410156"/>
      </g>
     </g>
    </g>
    <g id="xtick_5">
     <g id="line2d_5">
      <g>
       <use xlink:href="#mb986aa7f69" x="217.335013" y="260.521875" style="stroke: #000000; stroke-width: 0.8"/>
      </g>
     </g>
     <g id="text_5">
      <!-- 0.8 -->
      <g transform="translate(209.383451 275.120313) scale(0.1 -0.1)">
       <defs>
        <path id="DejaVuSans-38" d="M 2034 2216 
Q 1584 2216 1326 1975 
Q 1069 1734 1069 1313 
Q 1069 891 1326 650 
Q 1584 409 2034 409 
Q 2484 409 2743 651 
Q 3003 894 3003 1313 
Q 3003 1734 2745 1975 
Q 2488 2216 2034 2216 
z
M 1403 2484 
Q 997 2584 770 2862 
Q 544 3141 544 3541 
Q 544 4100 942 4425 
Q 1341 4750 2034 4750 
Q 2731 4750 3128 4425 
Q 3525 4100 3525 3541 
Q 3525 3141 3298 2862 
Q 3072 2584 2669 2484 
Q 3125 2378 3379 2068 
Q 3634 1759 3634 1313 
Q 3634 634 3220 271 
Q 2806 -91 2034 -91 
Q 1263 -91 848 271 
Q 434 634 434 1313 
Q 434 1759 690 2068 
Q 947 2378 1403 2484 
z
M 1172 3481 
Q 1172 3119 1398 2916 
Q 1625 2713 2034 2713 
Q 2441 2713 2670 2916 
Q 2900 3119 2900 3481 
Q 2900 3844 2670 4047 
Q 2441 4250 2034 4250 
Q 1625 4250 1398 4047 
Q 1172 3844 1172 3481 
z
" transform="scale(0.015625)"/>
       </defs>
       <use xlink:href="#DejaVuSans-30"/>
       <use xlink:href="#DejaVuSans-2e" x="63.623047"/>
       <use xlink:href="#DejaVuSans-38" x="95.410156"/>
      </g>
     </g>
    </g>
    <g id="xtick_6">
     <g id="line2d_6">
      <g>
       <use xlink:href="#mb986aa7f69" x="252.970917" y="260.521875" style="stroke: #000000; stroke-width: 0.8"/>
      </g>
     </g>
     <g id="text_6">
      <!-- 0.9 -->
      <g transform="translate(245.019355 275.120313) scale(0.1 -0.1)">
       <defs>
        <path id="DejaVuSans-39" d="M 703 97 
L 703 672 
Q 941 559 1184 500 
Q 1428 441 1663 441 
Q 2288 441 2617 861 
Q 2947 1281 2994 2138 
Q 2813 1869 2534 1725 
Q 2256 1581 1919 1581 
Q 1219 1581 811 2004 
Q 403 2428 403 3163 
Q 403 3881 828 4315 
Q 1253 4750 1959 4750 
Q 2769 4750 3195 4129 
Q 3622 3509 3622 2328 
Q 3622 1225 3098 567 
Q 2575 -91 1691 -91 
Q 1453 -91 1209 -44 
Q 966 3 703 97 
z
M 1959 2075 
Q 2384 2075 2632 2365 
Q 2881 2656 2881 3163 
Q 2881 3666 2632 3958 
Q 2384 4250 1959 4250 
Q 1534 4250 1286 3958 
Q 1038 3666 1038 3163 
Q 1038 2656 1286 2365 
Q 1534 2075 1959 2075 
z
" transform="scale(0.015625)"/>
       </defs>
       <use xlink:href="#DejaVuSans-30"/>
       <use xlink:href="#DejaVuSans-2e" x="63.623047"/>
       <use xlink:href="#DejaVuSans-39" x="95.410156"/>
      </g>
     </g>
    </g>
   </g>
   <g id="matplotlib.axis_2">
    <g id="ytick_1">
     <g id="line2d_7">
      <defs>
       <path id="m845df3e8c5" d="M 0 0 
L -3.5 0 
" style="stroke: #000000; stroke-width: 0.8"/>
      </defs>
      <g>
       <use xlink:href="#m845df3e8c5" x="41.711875" y="260.521875" style="stroke: #000000; stroke-width: 0.8"/>
      </g>
     </g>
     <g id="text_7">
      <!-- 0 -->
      <g transform="translate(28.349375 264.321094) scale(0.1 -0.1)">
       <use xlink:href="#DejaVuSans-30"/>
      </g>
     </g>
    </g>
    <g id="ytick_2">
     <g id="line2d_8">
      <g>
       <use xlink:href="#m845df3e8c5" x="41.711875" y="234.951072" style="stroke: #000000; stroke-width: 0.8"/>
      </g>
     </g>
     <g id="text_8">
      <!-- 1 -->
      <g transform="translate(28.349375 238.750291) scale(0.1 -0.1)">
       <defs>
        <path id="DejaVuSans-31" d="M 794 531 
L 1825 531 
L 1825 4091 
L 703 3866 
L 703 4441 
L 1819 4666 
L 2450 4666 
L 2450 531 
L 3481 531 
L 3481 0 
L 794 0 
L 794 531 
z
" transform="scale(0.015625)"/>
       </defs>
       <use xlink:href="#DejaVuSans-31"/>
      </g>
     </g>
    </g>
    <g id="ytick_3">
     <g id="line2d_9">
      <g>
       <use xlink:href="#m845df3e8c5" x="41.711875" y="209.38027" style="stroke: #000000; stroke-width: 0.8"/>
      </g>
     </g>
     <g id="text_9">
      <!-- 2 -->
      <g transform="translate(28.349375 213.179488) scale(0.1 -0.1)">
       <defs>
        <path id="DejaVuSans-32" d="M 1228 531 
L 3431 531 
L 3431 0 
L 469 0 
L 469 531 
Q 828 903 1448 1529 
Q 2069 2156 2228 2338 
Q 2531 2678 2651 2914 
Q 2772 3150 2772 3378 
Q 2772 3750 2511 3984 
Q 2250 4219 1831 4219 
Q 1534 4219 1204 4116 
Q 875 4013 500 3803 
L 500 4441 
Q 881 4594 1212 4672 
Q 1544 4750 1819 4750 
Q 2544 4750 2975 4387 
Q 3406 4025 3406 3419 
Q 3406 3131 3298 2873 
Q 3191 2616 2906 2266 
Q 2828 2175 2409 1742 
Q 1991 1309 1228 531 
z
" transform="scale(0.015625)"/>
       </defs>
       <use xlink:href="#DejaVuSans-32"/>
      </g>
     </g>
    </g>
    <g id="ytick_4">
     <g id="line2d_10">
      <g>
       <use xlink:href="#m845df3e8c5" x="41.711875" y="183.809467" style="stroke: #000000; stroke-width: 0.8"/>
      </g>
     </g>
     <g id="text_10">
      <!-- 3 -->
      <g transform="translate(28.349375 187.608686) scale(0.1 -0.1)">
       <defs>
        <path id="DejaVuSans-33" d="M 2597 2516 
Q 3050 2419 3304 2112 
Q 3559 1806 3559 1356 
Q 3559 666 3084 287 
Q 2609 -91 1734 -91 
Q 1441 -91 1130 -33 
Q 819 25 488 141 
L 488 750 
Q 750 597 1062 519 
Q 1375 441 1716 441 
Q 2309 441 2620 675 
Q 2931 909 2931 1356 
Q 2931 1769 2642 2001 
Q 2353 2234 1838 2234 
L 1294 2234 
L 1294 2753 
L 1863 2753 
Q 2328 2753 2575 2939 
Q 2822 3125 2822 3475 
Q 2822 3834 2567 4026 
Q 2313 4219 1838 4219 
Q 1578 4219 1281 4162 
Q 984 4106 628 3988 
L 628 4550 
Q 988 4650 1302 4700 
Q 1616 4750 1894 4750 
Q 2613 4750 3031 4423 
Q 3450 4097 3450 3541 
Q 3450 3153 3228 2886 
Q 3006 2619 2597 2516 
z
" transform="scale(0.015625)"/>
       </defs>
       <use xlink:href="#DejaVuSans-33"/>
      </g>
     </g>
    </g>
    <g id="ytick_5">
     <g id="line2d_11">
      <g>
       <use xlink:href="#m845df3e8c5" x="41.711875" y="158.238664" style="stroke: #000000; stroke-width: 0.8"/>
      </g>
     </g>
     <g id="text_11">
      <!-- 4 -->
      <g transform="translate(28.349375 162.037883) scale(0.1 -0.1)">
       <use xlink:href="#DejaVuSans-34"/>
      </g>
     </g>
    </g>
    <g id="ytick_6">
     <g id="line2d_12">
      <g>
       <use xlink:href="#m845df3e8c5" x="41.711875" y="132.667862" style="stroke: #000000; stroke-width: 0.8"/>
      </g>
     </g>
     <g id="text_12">
      <!-- 5 -->
      <g transform="translate(28.349375 136.46708) scale(0.1 -0.1)">
       <use xlink:href="#DejaVuSans-35"/>
      </g>
     </g>
    </g>
    <g id="ytick_7">
     <g id="line2d_13">
      <g>
       <use xlink:href="#m845df3e8c5" x="41.711875" y="107.097059" style="stroke: #000000; stroke-width: 0.8"/>
      </g>
     </g>
     <g id="text_13">
      <!-- 6 -->
      <g transform="translate(28.349375 110.896278) scale(0.1 -0.1)">
       <use xlink:href="#DejaVuSans-36"/>
      </g>
     </g>
    </g>
    <g id="ytick_8">
     <g id="line2d_14">
      <g>
       <use xlink:href="#m845df3e8c5" x="41.711875" y="81.526256" style="stroke: #000000; stroke-width: 0.8"/>
      </g>
     </g>
     <g id="text_14">
      <!-- 7 -->
      <g transform="translate(28.349375 85.325475) scale(0.1 -0.1)">
       <use xlink:href="#DejaVuSans-37"/>
      </g>
     </g>
    </g>
    <g id="text_15">
     <!-- Fraction of cells -->
     <g transform="translate(21.437812 213.889844) rotate(-90) scale(0.14 -0.14)">
      <defs>
       <path id="DejaVuSans-46" d="M 628 4666 
L 3309 4666 
L 3309 4134 
L 1259 4134 
L 1259 2759 
L 3109 2759 
L 3109 2228 
L 1259 2228 
L 1259 0 
L 628 0 
L 628 4666 
z
" transform="scale(0.015625)"/>
       <path id="DejaVuSans-72" d="M 2631 2963 
Q 2534 3019 2420 3045 
Q 2306 3072 2169 3072 
Q 1681 3072 1420 2755 
Q 1159 2438 1159 1844 
L 1159 0 
L 581 0 
L 581 3500 
L 1159 3500 
L 1159 2956 
Q 1341 3275 1631 3429 
Q 1922 3584 2338 3584 
Q 2397 3584 2469 3576 
Q 2541 3569 2628 3553 
L 2631 2963 
z
" transform="scale(0.015625)"/>
       <path id="DejaVuSans-61" d="M 2194 1759 
Q 1497 1759 1228 1600 
Q 959 1441 959 1056 
Q 959 750 1161 570 
Q 1363 391 1709 391 
Q 2188 391 2477 730 
Q 2766 1069 2766 1631 
L 2766 1759 
L 2194 1759 
z
M 3341 1997 
L 3341 0 
L 2766 0 
L 2766 531 
Q 2569 213 2275 61 
Q 1981 -91 1556 -91 
Q 1019 -91 701 211 
Q 384 513 384 1019 
Q 384 1609 779 1909 
Q 1175 2209 1959 2209 
L 2766 2209 
L 2766 2266 
Q 2766 2663 2505 2880 
Q 2244 3097 1772 3097 
Q 1472 3097 1187 3025 
Q 903 2953 641 2809 
L 641 3341 
Q 956 3463 1253 3523 
Q 1550 3584 1831 3584 
Q 2591 3584 2966 3190 
Q 3341 2797 3341 1997 
z
" transform="scale(0.015625)"/>
       <path id="DejaVuSans-63" d="M 3122 3366 
L 3122 2828 
Q 2878 2963 2633 3030 
Q 2388 3097 2138 3097 
Q 1578 3097 1268 2742 
Q 959 2388 959 1747 
Q 959 1106 1268 751 
Q 1578 397 2138 397 
Q 2388 397 2633 464 
Q 2878 531 3122 666 
L 3122 134 
Q 2881 22 2623 -34 
Q 2366 -91 2075 -91 
Q 1284 -91 818 406 
Q 353 903 353 1747 
Q 353 2603 823 3093 
Q 1294 3584 2113 3584 
Q 2378 3584 2631 3529 
Q 2884 3475 3122 3366 
z
" transform="scale(0.015625)"/>
       <path id="DejaVuSans-74" d="M 1172 4494 
L 1172 3500 
L 2356 3500 
L 2356 3053 
L 1172 3053 
L 1172 1153 
Q 1172 725 1289 603 
Q 1406 481 1766 481 
L 2356 481 
L 2356 0 
L 1766 0 
Q 1100 0 847 248 
Q 594 497 594 1153 
L 594 3053 
L 172 3053 
L 172 3500 
L 594 3500 
L 594 4494 
L 1172 4494 
z
" transform="scale(0.015625)"/>
       <path id="DejaVuSans-69" d="M 603 3500 
L 1178 3500 
L 1178 0 
L 603 0 
L 603 3500 
z
M 603 4863 
L 1178 4863 
L 1178 4134 
L 603 4134 
L 603 4863 
z
" transform="scale(0.015625)"/>
       <path id="DejaVuSans-6f" d="M 1959 3097 
Q 1497 3097 1228 2736 
Q 959 2375 959 1747 
Q 959 1119 1226 758 
Q 1494 397 1959 397 
Q 2419 397 2687 759 
Q 2956 1122 2956 1747 
Q 2956 2369 2687 2733 
Q 2419 3097 1959 3097 
z
M 1959 3584 
Q 2709 3584 3137 3096 
Q 3566 2609 3566 1747 
Q 3566 888 3137 398 
Q 2709 -91 1959 -91 
Q 1206 -91 779 398 
Q 353 888 353 1747 
Q 353 2609 779 3096 
Q 1206 3584 1959 3584 
z
" transform="scale(0.015625)"/>
       <path id="DejaVuSans-6e" d="M 3513 2113 
L 3513 0 
L 2938 0 
L 2938 2094 
Q 2938 2591 2744 2837 
Q 2550 3084 2163 3084 
Q 1697 3084 1428 2787 
Q 1159 2491 1159 1978 
L 1159 0 
L 581 0 
L 581 3500 
L 1159 3500 
L 1159 2956 
Q 1366 3272 1645 3428 
Q 1925 3584 2291 3584 
Q 2894 3584 3203 3211 
Q 3513 2838 3513 2113 
z
" transform="scale(0.015625)"/>
       <path id="DejaVuSans-20" transform="scale(0.015625)"/>
       <path id="DejaVuSans-66" d="M 2375 4863 
L 2375 4384 
L 1825 4384 
Q 1516 4384 1395 4259 
Q 1275 4134 1275 3809 
L 1275 3500 
L 2222 3500 
L 2222 3053 
L 1275 3053 
L 1275 0 
L 697 0 
L 697 3053 
L 147 3053 
L 147 3500 
L 697 3500 
L 697 3744 
Q 697 4328 969 4595 
Q 1241 4863 1831 4863 
L 2375 4863 
z
" transform="scale(0.015625)"/>
       <path id="DejaVuSans-65" d="M 3597 1894 
L 3597 1613 
L 953 1613 
Q 991 1019 1311 708 
Q 1631 397 2203 397 
Q 2534 397 2845 478 
Q 3156 559 3463 722 
L 3463 178 
Q 3153 47 2828 -22 
Q 2503 -91 2169 -91 
Q 1331 -91 842 396 
Q 353 884 353 1716 
Q 353 2575 817 3079 
Q 1281 3584 2069 3584 
Q 2775 3584 3186 3129 
Q 3597 2675 3597 1894 
z
M 3022 2063 
Q 3016 2534 2758 2815 
Q 2500 3097 2075 3097 
Q 1594 3097 1305 2825 
Q 1016 2553 972 2059 
L 3022 2063 
z
" transform="scale(0.015625)"/>
       <path id="DejaVuSans-6c" d="M 603 4863 
L 1178 4863 
L 1178 0 
L 603 0 
L 603 4863 
z
" transform="scale(0.015625)"/>
       <path id="DejaVuSans-73" d="M 2834 3397 
L 2834 2853 
Q 2591 2978 2328 3040 
Q 2066 3103 1784 3103 
Q 1356 3103 1142 2972 
Q 928 2841 928 2578 
Q 928 2378 1081 2264 
Q 1234 2150 1697 2047 
L 1894 2003 
Q 2506 1872 2764 1633 
Q 3022 1394 3022 966 
Q 3022 478 2636 193 
Q 2250 -91 1575 -91 
Q 1294 -91 989 -36 
Q 684 19 347 128 
L 347 722 
Q 666 556 975 473 
Q 1284 391 1588 391 
Q 1994 391 2212 530 
Q 2431 669 2431 922 
Q 2431 1156 2273 1281 
Q 2116 1406 1581 1522 
L 1381 1569 
Q 847 1681 609 1914 
Q 372 2147 372 2553 
Q 372 3047 722 3315 
Q 1072 3584 1716 3584 
Q 2034 3584 2315 3537 
Q 2597 3491 2834 3397 
z
" transform="scale(0.015625)"/>
      </defs>
      <use xlink:href="#DejaVuSans-46"/>
      <use xlink:href="#DejaVuSans-72" x="50.269531"/>
      <use xlink:href="#DejaVuSans-61" x="91.382812"/>
      <use xlink:href="#DejaVuSans-63" x="152.662109"/>
      <use xlink:href="#DejaVuSans-74" x="207.642578"/>
      <use xlink:href="#DejaVuSans-69" x="246.851562"/>
      <use xlink:href="#DejaVuSans-6f" x="274.634766"/>
      <use xlink:href="#DejaVuSans-6e" x="335.816406"/>
      <use xlink:href="#DejaVuSans-20" x="399.195312"/>
      <use xlink:href="#DejaVuSans-6f" x="430.982422"/>
      <use xlink:href="#DejaVuSans-66" x="492.164062"/>
      <use xlink:href="#DejaVuSans-20" x="527.369141"/>
      <use xlink:href="#DejaVuSans-63" x="559.15625"/>
      <use xlink:href="#DejaVuSans-65" x="614.136719"/>
      <use xlink:href="#DejaVuSans-6c" x="675.660156"/>
      <use xlink:href="#DejaVuSans-6c" x="703.443359"/>
      <use xlink:href="#DejaVuSans-73" x="731.226562"/>
     </g>
    </g>
   </g>
   <g id="line2d_15">
    <path d="M -1 260.491954 
L 7.839093 260.326821 
L 13.238473 260.024496 
L 18.637852 259.443221 
L 24.037231 258.532399 
L 34.83599 256.358588 
L 38.435576 255.910681 
L 42.035163 255.769273 
L 45.634749 255.963626 
L 49.234335 256.453312 
L 54.633715 257.521597 
L 61.832887 258.945017 
L 65.432473 259.453911 
L 69.03206 259.763258 
L 72.631646 259.84077 
L 76.231232 259.637115 
L 79.830818 259.062333 
L 81.630612 258.592623 
L 83.430405 257.970863 
L 85.230198 257.16968 
L 87.029991 256.158524 
L 88.829784 254.904208 
L 90.629577 253.371547 
L 92.42937 251.524093 
L 94.229163 249.324914 
L 96.028957 246.737431 
L 97.82875 243.726329 
L 99.628543 240.25859 
L 101.428336 236.304713 
L 103.228129 231.840208 
L 105.027922 226.847409 
L 106.827715 221.317631 
L 108.627508 215.253628 
L 110.427302 208.672201 
L 114.026888 194.109522 
L 117.626474 178.130826 
L 124.825647 145.501353 
L 126.62544 138.050534 
L 128.425233 131.194255 
L 130.225026 125.078445 
L 132.024819 119.833169 
L 133.824612 115.567294 
L 135.624405 112.364347 
L 137.424199 110.279815 
L 139.223992 109.339948 
L 141.023785 109.542038 
L 142.823578 110.856019 
L 144.623371 113.227158 
L 146.423164 116.57957 
L 148.222957 120.820272 
L 150.02275 125.843485 
L 151.822544 131.534943 
L 153.622337 137.775958 
L 157.221923 151.431236 
L 168.020682 194.142305 
L 171.620268 206.702962 
L 173.420061 212.392032 
L 175.219854 217.632377 
L 177.019647 222.393638 
L 178.81944 226.654399 
L 180.619234 230.402717 
L 182.419027 233.636585 
L 184.21882 236.364226 
L 186.018613 238.604052 
L 187.818406 240.38419 
L 189.618199 241.741518 
L 191.417992 242.720187 
L 193.217785 243.369725 
L 195.017579 243.742829 
L 196.817372 243.893042 
L 198.617165 243.872515 
L 202.216751 243.509714 
L 209.415924 242.527357 
L 213.01551 242.301796 
L 216.615096 242.411776 
L 220.214682 242.931507 
L 222.014476 243.359879 
L 225.614062 244.559102 
L 229.213648 246.177246 
L 232.813234 248.108608 
L 241.8122 253.165831 
L 245.411786 254.800505 
L 249.011372 256.018527 
L 252.610959 256.780474 
L 256.210545 257.116172 
L 259.810131 257.112107 
L 265.209511 256.742572 
L 270.60889 256.335203 
L 274.208476 256.2226 
L 277.808063 256.307349 
L 281.407649 256.598303 
L 286.807028 257.342618 
L 288.606821 257.641236 
L 288.606821 257.641236 
" clip-path="url(#p4d65ee2a8b)" style="fill: none; stroke: #1f77b4; stroke-width: 1.5; stroke-linecap: square"/>
   </g>
   <g id="line2d_16">
    <path d="M -1 260.521875 
L 63.63268 260.438993 
L 70.831853 260.240098 
L 76.231232 259.89569 
L 79.830818 259.512176 
L 83.430405 258.960755 
L 87.029991 258.2036 
L 90.629577 257.208863 
L 94.229163 255.955272 
L 97.82875 254.434606 
L 101.428336 252.650554 
L 105.027922 250.613169 
L 108.627508 248.32955 
L 112.227095 245.793018 
L 115.826681 242.974636 
L 119.426267 239.821697 
L 123.025853 236.266978 
L 126.62544 232.249776 
L 130.225026 227.745169 
L 133.824612 222.7931 
L 139.223992 214.815627 
L 144.623371 206.835715 
L 148.222957 201.92574 
L 151.822544 197.567133 
L 155.42213 193.834715 
L 159.021716 190.676775 
L 162.621302 187.932756 
L 173.420061 180.102693 
L 184.21882 171.656804 
L 186.018613 170.507961 
L 187.818406 169.541616 
L 189.618199 168.79939 
L 191.417992 168.318981 
L 193.217785 168.132267 
L 195.017579 168.263761 
L 196.817372 168.729511 
L 198.617165 169.536477 
L 200.416958 170.682407 
L 202.216751 172.156193 
L 204.016544 173.938639 
L 205.816337 176.003572 
L 207.616131 178.319185 
L 211.215717 183.555948 
L 214.815303 189.337996 
L 223.814269 204.232479 
L 227.413855 209.755971 
L 231.013441 214.817431 
L 234.613027 219.369746 
L 238.212614 223.426373 
L 241.8122 227.044919 
L 245.411786 230.305029 
L 249.011372 233.284937 
L 252.610959 236.042414 
L 256.210545 238.604895 
L 259.810131 240.970778 
L 263.409717 243.120282 
L 267.009304 245.031542 
L 270.60889 246.696371 
L 274.208476 248.130692 
L 279.607856 249.947079 
L 288.606821 252.594535 
L 288.606821 252.594535 
" clip-path="url(#p4d65ee2a8b)" style="fill: none; stroke: #ff7f0e; stroke-width: 1.5; stroke-linecap: square"/>
   </g>
   <g id="line2d_17">
    <path d="M -1 260.521875 
L 67.232267 260.412625 
L 72.631646 260.189088 
L 76.231232 259.867583 
L 79.830818 259.300745 
L 83.430405 258.356025 
L 85.230198 257.690899 
L 87.029991 256.866544 
L 88.829784 255.858712 
L 90.629577 254.643149 
L 92.42937 253.196576 
L 94.229163 251.497787 
L 96.028957 249.528798 
L 97.82875 247.275959 
L 99.628543 244.73097 
L 101.428336 241.891676 
L 103.228129 238.762603 
L 105.027922 235.355127 
L 108.627508 227.783119 
L 112.227095 219.386415 
L 117.626474 205.842652 
L 126.62544 182.980028 
L 130.225026 174.367657 
L 133.824612 166.343253 
L 137.424199 159.136453 
L 139.223992 155.929287 
L 141.023785 153.042277 
L 142.823578 150.520905 
L 144.623371 148.411321 
L 146.423164 146.757991 
L 148.222957 145.601033 
L 150.02275 144.973429 
L 151.822544 144.898345 
L 153.622337 145.386773 
L 155.42213 146.435675 
L 157.221923 148.026825 
L 159.021716 150.126443 
L 160.821509 152.685702 
L 162.621302 155.642136 
L 164.421095 158.921896 
L 168.020682 166.117884 
L 173.420061 177.21606 
L 177.019647 183.959514 
L 178.81944 186.991194 
L 180.619234 189.773453 
L 182.419027 192.313003 
L 186.018613 196.777186 
L 191.417992 202.678812 
L 195.017579 206.753576 
L 198.617165 211.357966 
L 202.216751 216.603247 
L 205.816337 222.341264 
L 211.215717 231.071074 
L 214.815303 236.333067 
L 216.615096 238.655815 
L 218.414889 240.73268 
L 220.214682 242.548546 
L 222.014476 244.100552 
L 223.814269 245.397073 
L 225.614062 246.455941 
L 227.413855 247.302125 
L 229.213648 247.96513 
L 231.013441 248.476366 
L 234.613027 249.164635 
L 238.212614 249.576045 
L 243.611993 249.956517 
L 259.810131 250.87112 
L 263.409717 251.367505 
L 267.009304 252.100033 
L 270.60889 253.065927 
L 276.008269 254.815904 
L 283.207442 257.177976 
L 286.807028 258.161432 
L 288.606821 258.579591 
L 288.606821 258.579591 
" clip-path="url(#p4d65ee2a8b)" style="fill: none; stroke: #2ca02c; stroke-width: 1.5; stroke-linecap: square"/>
   </g>
   <g id="patch_63">
    <path d="M 41.711875 260.521875 
L 41.711875 57.594062 
" style="fill: none; stroke: #000000; stroke-width: 0.8; stroke-linejoin: miter; stroke-linecap: square"/>
   </g>
   <g id="patch_64">
    <path d="M 287.53125 260.521875 
L 287.53125 57.594062 
" style="fill: none; stroke: #000000; stroke-width: 0.8; stroke-linejoin: miter; stroke-linecap: square"/>
   </g>
   <g id="patch_65">
    <path d="M 41.711875 260.521875 
L 287.53125 260.521875 
" style="fill: none; stroke: #000000; stroke-width: 0.8; stroke-linejoin: miter; stroke-linecap: square"/>
   </g>
   <g id="patch_66">
    <path d="M 41.711875 57.594062 
L 287.53125 57.594062 
" style="fill: none; stroke: #000000; stroke-width: 0.8; stroke-linejoin: miter; stroke-linecap: square"/>
   </g>
   <g id="text_16">
    <!-- SRV -->
    <g transform="translate(150.910312 51.594062) scale(0.14 -0.14)">
     <defs>
      <path id="DejaVuSans-53" d="M 3425 4513 
L 3425 3897 
Q 3066 4069 2747 4153 
Q 2428 4238 2131 4238 
Q 1616 4238 1336 4038 
Q 1056 3838 1056 3469 
Q 1056 3159 1242 3001 
Q 1428 2844 1947 2747 
L 2328 2669 
Q 3034 2534 3370 2195 
Q 3706 1856 3706 1288 
Q 3706 609 3251 259 
Q 2797 -91 1919 -91 
Q 1588 -91 1214 -16 
Q 841 59 441 206 
L 441 856 
Q 825 641 1194 531 
Q 1563 422 1919 422 
Q 2459 422 2753 634 
Q 3047 847 3047 1241 
Q 3047 1584 2836 1778 
Q 2625 1972 2144 2069 
L 1759 2144 
Q 1053 2284 737 2584 
Q 422 2884 422 3419 
Q 422 4038 858 4394 
Q 1294 4750 2059 4750 
Q 2388 4750 2728 4690 
Q 3069 4631 3425 4513 
z
" transform="scale(0.015625)"/>
      <path id="DejaVuSans-52" d="M 2841 2188 
Q 3044 2119 3236 1894 
Q 3428 1669 3622 1275 
L 4263 0 
L 3584 0 
L 2988 1197 
Q 2756 1666 2539 1819 
Q 2322 1972 1947 1972 
L 1259 1972 
L 1259 0 
L 628 0 
L 628 4666 
L 2053 4666 
Q 2853 4666 3247 4331 
Q 3641 3997 3641 3322 
Q 3641 2881 3436 2590 
Q 3231 2300 2841 2188 
z
M 1259 4147 
L 1259 2491 
L 2053 2491 
Q 2509 2491 2742 2702 
Q 2975 2913 2975 3322 
Q 2975 3731 2742 3939 
Q 2509 4147 2053 4147 
L 1259 4147 
z
" transform="scale(0.015625)"/>
      <path id="DejaVuSans-56" d="M 1831 0 
L 50 4666 
L 709 4666 
L 2188 738 
L 3669 4666 
L 4325 4666 
L 2547 0 
L 1831 0 
z
" transform="scale(0.015625)"/>
     </defs>
     <use xlink:href="#DejaVuSans-53"/>
     <use xlink:href="#DejaVuSans-52" x="63.476562"/>
     <use xlink:href="#DejaVuSans-56" x="127.458984"/>
    </g>
   </g>
   <g id="legend_1">
    <g id="patch_67">
     <path d="M 199.141875 120.035312 
L 279.13125 120.035312 
Q 281.53125 120.035312 281.53125 117.635312 
L 281.53125 65.994062 
Q 281.53125 63.594062 279.13125 63.594062 
L 199.141875 63.594062 
Q 196.741875 63.594062 196.741875 65.994062 
L 196.741875 117.635312 
Q 196.741875 120.035312 199.141875 120.035312 
z
" style="fill: #ffffff; opacity: 0.8; stroke: #cccccc; stroke-linejoin: miter"/>
    </g>
    <g id="patch_68">
     <path d="M 201.541875 77.512187 
L 225.541875 77.512187 
L 225.541875 69.112187 
L 201.541875 69.112187 
z
" style="fill: #1f77b4; opacity: 0.4"/>
    </g>
    <g id="text_17">
     <!-- control -->
     <g transform="translate(235.141875 77.512187) scale(0.12 -0.12)">
      <use xlink:href="#DejaVuSans-63"/>
      <use xlink:href="#DejaVuSans-6f" x="54.980469"/>
      <use xlink:href="#DejaVuSans-6e" x="116.162109"/>
      <use xlink:href="#DejaVuSans-74" x="179.541016"/>
      <use xlink:href="#DejaVuSans-72" x="218.75"/>
      <use xlink:href="#DejaVuSans-6f" x="257.613281"/>
      <use xlink:href="#DejaVuSans-6c" x="318.794922"/>
     </g>
    </g>
    <g id="patch_69">
     <path d="M 201.541875 95.125937 
L 225.541875 95.125937 
L 225.541875 86.725937 
L 201.541875 86.725937 
z
" style="fill: #ff7f0e; opacity: 0.4"/>
    </g>
    <g id="text_18">
     <!-- cytd -->
     <g transform="translate(235.141875 95.125937) scale(0.12 -0.12)">
      <defs>
       <path id="DejaVuSans-79" d="M 2059 -325 
Q 1816 -950 1584 -1140 
Q 1353 -1331 966 -1331 
L 506 -1331 
L 506 -850 
L 844 -850 
Q 1081 -850 1212 -737 
Q 1344 -625 1503 -206 
L 1606 56 
L 191 3500 
L 800 3500 
L 1894 763 
L 2988 3500 
L 3597 3500 
L 2059 -325 
z
" transform="scale(0.015625)"/>
       <path id="DejaVuSans-64" d="M 2906 2969 
L 2906 4863 
L 3481 4863 
L 3481 0 
L 2906 0 
L 2906 525 
Q 2725 213 2448 61 
Q 2172 -91 1784 -91 
Q 1150 -91 751 415 
Q 353 922 353 1747 
Q 353 2572 751 3078 
Q 1150 3584 1784 3584 
Q 2172 3584 2448 3432 
Q 2725 3281 2906 2969 
z
M 947 1747 
Q 947 1113 1208 752 
Q 1469 391 1925 391 
Q 2381 391 2643 752 
Q 2906 1113 2906 1747 
Q 2906 2381 2643 2742 
Q 2381 3103 1925 3103 
Q 1469 3103 1208 2742 
Q 947 2381 947 1747 
z
" transform="scale(0.015625)"/>
      </defs>
      <use xlink:href="#DejaVuSans-63"/>
      <use xlink:href="#DejaVuSans-79" x="54.980469"/>
      <use xlink:href="#DejaVuSans-74" x="114.160156"/>
      <use xlink:href="#DejaVuSans-64" x="153.369141"/>
     </g>
    </g>
    <g id="patch_70">
     <path d="M 201.541875 112.739687 
L 225.541875 112.739687 
L 225.541875 104.339687 
L 201.541875 104.339687 
z
" style="fill: #2ca02c; opacity: 0.4"/>
    </g>
    <g id="text_19">
     <!-- jasp -->
     <g transform="translate(235.141875 112.739687) scale(0.12 -0.12)">
      <defs>
       <path id="DejaVuSans-6a" d="M 603 3500 
L 1178 3500 
L 1178 -63 
Q 1178 -731 923 -1031 
Q 669 -1331 103 -1331 
L -116 -1331 
L -116 -844 
L 38 -844 
Q 366 -844 484 -692 
Q 603 -541 603 -63 
L 603 3500 
z
M 603 4863 
L 1178 4863 
L 1178 4134 
L 603 4134 
L 603 4863 
z
" transform="scale(0.015625)"/>
       <path id="DejaVuSans-70" d="M 1159 525 
L 1159 -1331 
L 581 -1331 
L 581 3500 
L 1159 3500 
L 1159 2969 
Q 1341 3281 1617 3432 
Q 1894 3584 2278 3584 
Q 2916 3584 3314 3078 
Q 3713 2572 3713 1747 
Q 3713 922 3314 415 
Q 2916 -91 2278 -91 
Q 1894 -91 1617 61 
Q 1341 213 1159 525 
z
M 3116 1747 
Q 3116 2381 2855 2742 
Q 2594 3103 2138 3103 
Q 1681 3103 1420 2742 
Q 1159 2381 1159 1747 
Q 1159 1113 1420 752 
Q 1681 391 2138 391 
Q 2594 391 2855 752 
Q 3116 1113 3116 1747 
z
" transform="scale(0.015625)"/>
      </defs>
      <use xlink:href="#DejaVuSans-6a"/>
      <use xlink:href="#DejaVuSans-61" x="27.783203"/>
      <use xlink:href="#DejaVuSans-73" x="89.0625"/>
      <use xlink:href="#DejaVuSans-70" x="141.162109"/>
     </g>
    </g>
   </g>
  </g>
  <g id="axes_2">
   <g id="patch_71">
    <path d="M 319.380625 260.521875 
L 565.2 260.521875 
L 565.2 57.594062 
L 319.380625 57.594062 
z
" style="fill: #ffffff"/>
   </g>
   <g id="patch_72">
    <path d="M 362.43682 260.521875 
L 371.269995 260.521875 
L 371.269995 253.698043 
L 362.43682 253.698043 
z
" clip-path="url(#pb57dae0b46)" style="fill: #1f77b4; opacity: 0.4"/>
   </g>
   <g id="patch_73">
    <path d="M 371.269995 260.521875 
L 380.103171 260.521875 
L 380.103171 246.874211 
L 371.269995 246.874211 
z
" clip-path="url(#pb57dae0b46)" style="fill: #1f77b4; opacity: 0.4"/>
   </g>
   <g id="patch_74">
    <path d="M 380.103171 260.521875 
L 388.936347 260.521875 
L 388.936347 246.874211 
L 380.103171 246.874211 
z
" clip-path="url(#pb57dae0b46)" style="fill: #1f77b4; opacity: 0.4"/>
   </g>
   <g id="patch_75">
    <path d="M 388.936347 260.521875 
L 397.769522 260.521875 
L 397.769522 233.226547 
L 388.936347 233.226547 
z
" clip-path="url(#pb57dae0b46)" style="fill: #1f77b4; opacity: 0.4"/>
   </g>
   <g id="patch_76">
    <path d="M 397.769522 260.521875 
L 406.602698 260.521875 
L 406.602698 236.638463 
L 397.769522 236.638463 
z
" clip-path="url(#pb57dae0b46)" style="fill: #1f77b4; opacity: 0.4"/>
   </g>
   <g id="patch_77">
    <path d="M 406.602698 260.521875 
L 415.435874 260.521875 
L 415.435874 222.990799 
L 406.602698 222.990799 
z
" clip-path="url(#pb57dae0b46)" style="fill: #1f77b4; opacity: 0.4"/>
   </g>
   <g id="patch_78">
    <path d="M 415.435874 260.521875 
L 424.269049 260.521875 
L 424.269049 233.226547 
L 415.435874 233.226547 
z
" clip-path="url(#pb57dae0b46)" style="fill: #1f77b4; opacity: 0.4"/>
   </g>
   <g id="patch_79">
    <path d="M 424.269049 260.521875 
L 433.102225 260.521875 
L 433.102225 216.166966 
L 424.269049 216.166966 
z
" clip-path="url(#pb57dae0b46)" style="fill: #1f77b4; opacity: 0.4"/>
   </g>
   <g id="patch_80">
    <path d="M 433.102225 260.521875 
L 441.935401 260.521875 
L 441.935401 202.519302 
L 433.102225 202.519302 
z
" clip-path="url(#pb57dae0b46)" style="fill: #1f77b4; opacity: 0.4"/>
   </g>
   <g id="patch_81">
    <path d="M 441.935401 260.521875 
L 450.768576 260.521875 
L 450.768576 236.638463 
L 441.935401 236.638463 
z
" clip-path="url(#pb57dae0b46)" style="fill: #1f77b4; opacity: 0.4"/>
   </g>
   <g id="patch_82">
    <path d="M 450.768576 260.521875 
L 459.601752 260.521875 
L 459.601752 233.226547 
L 450.768576 233.226547 
z
" clip-path="url(#pb57dae0b46)" style="fill: #1f77b4; opacity: 0.4"/>
   </g>
   <g id="patch_83">
    <path d="M 459.601752 260.521875 
L 468.434928 260.521875 
L 468.434928 229.814631 
L 459.601752 229.814631 
z
" clip-path="url(#pb57dae0b46)" style="fill: #1f77b4; opacity: 0.4"/>
   </g>
   <g id="patch_84">
    <path d="M 468.434928 260.521875 
L 477.268103 260.521875 
L 477.268103 243.462295 
L 468.434928 243.462295 
z
" clip-path="url(#pb57dae0b46)" style="fill: #1f77b4; opacity: 0.4"/>
   </g>
   <g id="patch_85">
    <path d="M 477.268103 260.521875 
L 486.101279 260.521875 
L 486.101279 250.286127 
L 477.268103 250.286127 
z
" clip-path="url(#pb57dae0b46)" style="fill: #1f77b4; opacity: 0.4"/>
   </g>
   <g id="patch_86">
    <path d="M 486.101279 260.521875 
L 494.934455 260.521875 
L 494.934455 250.286127 
L 486.101279 250.286127 
z
" clip-path="url(#pb57dae0b46)" style="fill: #1f77b4; opacity: 0.4"/>
   </g>
   <g id="patch_87">
    <path d="M 494.934455 260.521875 
L 503.76763 260.521875 
L 503.76763 257.109959 
L 494.934455 257.109959 
z
" clip-path="url(#pb57dae0b46)" style="fill: #1f77b4; opacity: 0.4"/>
   </g>
   <g id="patch_88">
    <path d="M 503.76763 260.521875 
L 512.600806 260.521875 
L 512.600806 253.698043 
L 503.76763 253.698043 
z
" clip-path="url(#pb57dae0b46)" style="fill: #1f77b4; opacity: 0.4"/>
   </g>
   <g id="patch_89">
    <path d="M 512.600806 260.521875 
L 521.433982 260.521875 
L 521.433982 260.521875 
L 512.600806 260.521875 
z
" clip-path="url(#pb57dae0b46)" style="fill: #1f77b4; opacity: 0.4"/>
   </g>
   <g id="patch_90">
    <path d="M 521.433982 260.521875 
L 530.267157 260.521875 
L 530.267157 257.109959 
L 521.433982 257.109959 
z
" clip-path="url(#pb57dae0b46)" style="fill: #1f77b4; opacity: 0.4"/>
   </g>
   <g id="patch_91">
    <path d="M 530.267157 260.521875 
L 539.100333 260.521875 
L 539.100333 257.109959 
L 530.267157 257.109959 
z
" clip-path="url(#pb57dae0b46)" style="fill: #1f77b4; opacity: 0.4"/>
   </g>
   <g id="patch_92">
    <path d="M 320.634179 260.521875 
L 332.86247 260.521875 
L 332.86247 246.8162 
L 320.634179 246.8162 
z
" clip-path="url(#pb57dae0b46)" style="fill: #ff7f0e; opacity: 0.4"/>
   </g>
   <g id="patch_93">
    <path d="M 332.86247 260.521875 
L 345.090761 260.521875 
L 345.090761 246.8162 
L 332.86247 246.8162 
z
" clip-path="url(#pb57dae0b46)" style="fill: #ff7f0e; opacity: 0.4"/>
   </g>
   <g id="patch_94">
    <path d="M 345.090761 260.521875 
L 357.319052 260.521875 
L 357.319052 239.963363 
L 345.090761 239.963363 
z
" clip-path="url(#pb57dae0b46)" style="fill: #ff7f0e; opacity: 0.4"/>
   </g>
   <g id="patch_95">
    <path d="M 357.319052 260.521875 
L 369.547343 260.521875 
L 369.547343 236.536944 
L 357.319052 236.536944 
z
" clip-path="url(#pb57dae0b46)" style="fill: #ff7f0e; opacity: 0.4"/>
   </g>
   <g id="patch_96">
    <path d="M 369.547343 260.521875 
L 381.775634 260.521875 
L 381.775634 229.684106 
L 369.547343 229.684106 
z
" clip-path="url(#pb57dae0b46)" style="fill: #ff7f0e; opacity: 0.4"/>
   </g>
   <g id="patch_97">
    <path d="M 381.775634 260.521875 
L 394.003925 260.521875 
L 394.003925 239.963363 
L 381.775634 239.963363 
z
" clip-path="url(#pb57dae0b46)" style="fill: #ff7f0e; opacity: 0.4"/>
   </g>
   <g id="patch_98">
    <path d="M 394.003925 260.521875 
L 406.232216 260.521875 
L 406.232216 229.684106 
L 394.003925 229.684106 
z
" clip-path="url(#pb57dae0b46)" style="fill: #ff7f0e; opacity: 0.4"/>
   </g>
   <g id="patch_99">
    <path d="M 406.232216 260.521875 
L 418.460507 260.521875 
L 418.460507 253.669038 
L 406.232216 253.669038 
z
" clip-path="url(#pb57dae0b46)" style="fill: #ff7f0e; opacity: 0.4"/>
   </g>
   <g id="patch_100">
    <path d="M 418.460507 260.521875 
L 430.688798 260.521875 
L 430.688798 250.242619 
L 418.460507 250.242619 
z
" clip-path="url(#pb57dae0b46)" style="fill: #ff7f0e; opacity: 0.4"/>
   </g>
   <g id="patch_101">
    <path d="M 430.688798 260.521875 
L 442.91709 260.521875 
L 442.91709 243.389781 
L 430.688798 243.389781 
z
" clip-path="url(#pb57dae0b46)" style="fill: #ff7f0e; opacity: 0.4"/>
   </g>
   <g id="patch_102">
    <path d="M 442.91709 260.521875 
L 455.145381 260.521875 
L 455.145381 250.242619 
L 442.91709 250.242619 
z
" clip-path="url(#pb57dae0b46)" style="fill: #ff7f0e; opacity: 0.4"/>
   </g>
   <g id="patch_103">
    <path d="M 455.145381 260.521875 
L 467.373672 260.521875 
L 467.373672 239.963363 
L 455.145381 239.963363 
z
" clip-path="url(#pb57dae0b46)" style="fill: #ff7f0e; opacity: 0.4"/>
   </g>
   <g id="patch_104">
    <path d="M 467.373672 260.521875 
L 479.601963 260.521875 
L 479.601963 250.242619 
L 467.373672 250.242619 
z
" clip-path="url(#pb57dae0b46)" style="fill: #ff7f0e; opacity: 0.4"/>
   </g>
   <g id="patch_105">
    <path d="M 479.601963 260.521875 
L 491.830254 260.521875 
L 491.830254 243.389781 
L 479.601963 243.389781 
z
" clip-path="url(#pb57dae0b46)" style="fill: #ff7f0e; opacity: 0.4"/>
   </g>
   <g id="patch_106">
    <path d="M 491.830254 260.521875 
L 504.058545 260.521875 
L 504.058545 250.242619 
L 491.830254 250.242619 
z
" clip-path="url(#pb57dae0b46)" style="fill: #ff7f0e; opacity: 0.4"/>
   </g>
   <g id="patch_107">
    <path d="M 504.058545 260.521875 
L 516.286836 260.521875 
L 516.286836 250.242619 
L 504.058545 250.242619 
z
" clip-path="url(#pb57dae0b46)" style="fill: #ff7f0e; opacity: 0.4"/>
   </g>
   <g id="patch_108">
    <path d="M 516.286836 260.521875 
L 528.515127 260.521875 
L 528.515127 260.521875 
L 516.286836 260.521875 
z
" clip-path="url(#pb57dae0b46)" style="fill: #ff7f0e; opacity: 0.4"/>
   </g>
   <g id="patch_109">
    <path d="M 528.515127 260.521875 
L 540.743418 260.521875 
L 540.743418 260.521875 
L 528.515127 260.521875 
z
" clip-path="url(#pb57dae0b46)" style="fill: #ff7f0e; opacity: 0.4"/>
   </g>
   <g id="patch_110">
    <path d="M 540.743418 260.521875 
L 552.971709 260.521875 
L 552.971709 260.521875 
L 540.743418 260.521875 
z
" clip-path="url(#pb57dae0b46)" style="fill: #ff7f0e; opacity: 0.4"/>
   </g>
   <g id="patch_111">
    <path d="M 552.971709 260.521875 
L 565.2 260.521875 
L 565.2 246.8162 
L 552.971709 246.8162 
z
" clip-path="url(#pb57dae0b46)" style="fill: #ff7f0e; opacity: 0.4"/>
   </g>
   <g id="patch_112">
    <path d="M 354.728161 260.521875 
L 365.135649 260.521875 
L 365.135649 249.872786 
L 354.728161 249.872786 
z
" clip-path="url(#pb57dae0b46)" style="fill: #2ca02c; opacity: 0.4"/>
   </g>
   <g id="patch_113">
    <path d="M 365.135649 260.521875 
L 375.543137 260.521875 
L 375.543137 255.197331 
L 365.135649 255.197331 
z
" clip-path="url(#pb57dae0b46)" style="fill: #2ca02c; opacity: 0.4"/>
   </g>
   <g id="patch_114">
    <path d="M 375.543137 260.521875 
L 385.950625 260.521875 
L 385.950625 244.548242 
L 375.543137 244.548242 
z
" clip-path="url(#pb57dae0b46)" style="fill: #2ca02c; opacity: 0.4"/>
   </g>
   <g id="patch_115">
    <path d="M 385.950625 260.521875 
L 396.358113 260.521875 
L 396.358113 233.899153 
L 385.950625 233.899153 
z
" clip-path="url(#pb57dae0b46)" style="fill: #2ca02c; opacity: 0.4"/>
   </g>
   <g id="patch_116">
    <path d="M 396.358113 260.521875 
L 406.765601 260.521875 
L 406.765601 233.899153 
L 396.358113 233.899153 
z
" clip-path="url(#pb57dae0b46)" style="fill: #2ca02c; opacity: 0.4"/>
   </g>
   <g id="patch_117">
    <path d="M 406.765601 260.521875 
L 417.173089 260.521875 
L 417.173089 239.223698 
L 406.765601 239.223698 
z
" clip-path="url(#pb57dae0b46)" style="fill: #2ca02c; opacity: 0.4"/>
   </g>
   <g id="patch_118">
    <path d="M 417.173089 260.521875 
L 427.580577 260.521875 
L 427.580577 244.548242 
L 417.173089 244.548242 
z
" clip-path="url(#pb57dae0b46)" style="fill: #2ca02c; opacity: 0.4"/>
   </g>
   <g id="patch_119">
    <path d="M 427.580577 260.521875 
L 437.988065 260.521875 
L 437.988065 228.574609 
L 427.580577 228.574609 
z
" clip-path="url(#pb57dae0b46)" style="fill: #2ca02c; opacity: 0.4"/>
   </g>
   <g id="patch_120">
    <path d="M 437.988065 260.521875 
L 448.395553 260.521875 
L 448.395553 228.574609 
L 437.988065 228.574609 
z
" clip-path="url(#pb57dae0b46)" style="fill: #2ca02c; opacity: 0.4"/>
   </g>
   <g id="patch_121">
    <path d="M 448.395553 260.521875 
L 458.803041 260.521875 
L 458.803041 233.899153 
L 448.395553 233.899153 
z
" clip-path="url(#pb57dae0b46)" style="fill: #2ca02c; opacity: 0.4"/>
   </g>
   <g id="patch_122">
    <path d="M 458.803041 260.521875 
L 469.210529 260.521875 
L 469.210529 223.250065 
L 458.803041 223.250065 
z
" clip-path="url(#pb57dae0b46)" style="fill: #2ca02c; opacity: 0.4"/>
   </g>
   <g id="patch_123">
    <path d="M 469.210529 260.521875 
L 479.618017 260.521875 
L 479.618017 255.197331 
L 469.210529 255.197331 
z
" clip-path="url(#pb57dae0b46)" style="fill: #2ca02c; opacity: 0.4"/>
   </g>
   <g id="patch_124">
    <path d="M 479.618017 260.521875 
L 490.025505 260.521875 
L 490.025505 228.574609 
L 479.618017 228.574609 
z
" clip-path="url(#pb57dae0b46)" style="fill: #2ca02c; opacity: 0.4"/>
   </g>
   <g id="patch_125">
    <path d="M 490.025505 260.521875 
L 500.432993 260.521875 
L 500.432993 255.197331 
L 490.025505 255.197331 
z
" clip-path="url(#pb57dae0b46)" style="fill: #2ca02c; opacity: 0.4"/>
   </g>
   <g id="patch_126">
    <path d="M 500.432993 260.521875 
L 510.840481 260.521875 
L 510.840481 249.872786 
L 500.432993 249.872786 
z
" clip-path="url(#pb57dae0b46)" style="fill: #2ca02c; opacity: 0.4"/>
   </g>
   <g id="patch_127">
    <path d="M 510.840481 260.521875 
L 521.247969 260.521875 
L 521.247969 255.197331 
L 510.840481 255.197331 
z
" clip-path="url(#pb57dae0b46)" style="fill: #2ca02c; opacity: 0.4"/>
   </g>
   <g id="patch_128">
    <path d="M 521.247969 260.521875 
L 531.655457 260.521875 
L 531.655457 255.197331 
L 521.247969 255.197331 
z
" clip-path="url(#pb57dae0b46)" style="fill: #2ca02c; opacity: 0.4"/>
   </g>
   <g id="patch_129">
    <path d="M 531.655457 260.521875 
L 542.062946 260.521875 
L 542.062946 255.197331 
L 531.655457 255.197331 
z
" clip-path="url(#pb57dae0b46)" style="fill: #2ca02c; opacity: 0.4"/>
   </g>
   <g id="patch_130">
    <path d="M 542.062946 260.521875 
L 552.470434 260.521875 
L 552.470434 260.521875 
L 542.062946 260.521875 
z
" clip-path="url(#pb57dae0b46)" style="fill: #2ca02c; opacity: 0.4"/>
   </g>
   <g id="patch_131">
    <path d="M 552.470434 260.521875 
L 562.877922 260.521875 
L 562.877922 249.872786 
L 552.470434 249.872786 
z
" clip-path="url(#pb57dae0b46)" style="fill: #2ca02c; opacity: 0.4"/>
   </g>
   <g id="matplotlib.axis_3">
    <g id="xtick_7">
     <g id="line2d_18">
      <g>
       <use xlink:href="#mb986aa7f69" x="352.62419" y="260.521875" style="stroke: #000000; stroke-width: 0.8"/>
      </g>
     </g>
     <g id="text_20">
      <!-- 1.25 -->
      <g transform="translate(341.491377 275.120313) scale(0.1 -0.1)">
       <use xlink:href="#DejaVuSans-31"/>
       <use xlink:href="#DejaVuSans-2e" x="63.623047"/>
       <use xlink:href="#DejaVuSans-32" x="95.410156"/>
       <use xlink:href="#DejaVuSans-35" x="159.033203"/>
      </g>
     </g>
    </g>
    <g id="xtick_8">
     <g id="line2d_19">
      <g>
       <use xlink:href="#mb986aa7f69" x="386.21463" y="260.521875" style="stroke: #000000; stroke-width: 0.8"/>
      </g>
     </g>
     <g id="text_21">
      <!-- 1.50 -->
      <g transform="translate(375.081818 275.120313) scale(0.1 -0.1)">
       <use xlink:href="#DejaVuSans-31"/>
       <use xlink:href="#DejaVuSans-2e" x="63.623047"/>
       <use xlink:href="#DejaVuSans-35" x="95.410156"/>
       <use xlink:href="#DejaVuSans-30" x="159.033203"/>
      </g>
     </g>
    </g>
    <g id="xtick_9">
     <g id="line2d_20">
      <g>
       <use xlink:href="#mb986aa7f69" x="419.805071" y="260.521875" style="stroke: #000000; stroke-width: 0.8"/>
      </g>
     </g>
     <g id="text_22">
      <!-- 1.75 -->
      <g transform="translate(408.672259 275.120313) scale(0.1 -0.1)">
       <use xlink:href="#DejaVuSans-31"/>
       <use xlink:href="#DejaVuSans-2e" x="63.623047"/>
       <use xlink:href="#DejaVuSans-37" x="95.410156"/>
       <use xlink:href="#DejaVuSans-35" x="159.033203"/>
      </g>
     </g>
    </g>
    <g id="xtick_10">
     <g id="line2d_21">
      <g>
       <use xlink:href="#mb986aa7f69" x="453.395512" y="260.521875" style="stroke: #000000; stroke-width: 0.8"/>
      </g>
     </g>
     <g id="text_23">
      <!-- 2.00 -->
      <g transform="translate(442.262699 275.120313) scale(0.1 -0.1)">
       <use xlink:href="#DejaVuSans-32"/>
       <use xlink:href="#DejaVuSans-2e" x="63.623047"/>
       <use xlink:href="#DejaVuSans-30" x="95.410156"/>
       <use xlink:href="#DejaVuSans-30" x="159.033203"/>
      </g>
     </g>
    </g>
    <g id="xtick_11">
     <g id="line2d_22">
      <g>
       <use xlink:href="#mb986aa7f69" x="486.985953" y="260.521875" style="stroke: #000000; stroke-width: 0.8"/>
      </g>
     </g>
     <g id="text_24">
      <!-- 2.25 -->
      <g transform="translate(475.85314 275.120313) scale(0.1 -0.1)">
       <use xlink:href="#DejaVuSans-32"/>
       <use xlink:href="#DejaVuSans-2e" x="63.623047"/>
       <use xlink:href="#DejaVuSans-32" x="95.410156"/>
       <use xlink:href="#DejaVuSans-35" x="159.033203"/>
      </g>
     </g>
    </g>
    <g id="xtick_12">
     <g id="line2d_23">
      <g>
       <use xlink:href="#mb986aa7f69" x="520.576393" y="260.521875" style="stroke: #000000; stroke-width: 0.8"/>
      </g>
     </g>
     <g id="text_25">
      <!-- 2.50 -->
      <g transform="translate(509.443581 275.120313) scale(0.1 -0.1)">
       <use xlink:href="#DejaVuSans-32"/>
       <use xlink:href="#DejaVuSans-2e" x="63.623047"/>
       <use xlink:href="#DejaVuSans-35" x="95.410156"/>
       <use xlink:href="#DejaVuSans-30" x="159.033203"/>
      </g>
     </g>
    </g>
    <g id="xtick_13">
     <g id="line2d_24">
      <g>
       <use xlink:href="#mb986aa7f69" x="554.166834" y="260.521875" style="stroke: #000000; stroke-width: 0.8"/>
      </g>
     </g>
     <g id="text_26">
      <!-- 2.75 -->
      <g transform="translate(543.034022 275.120313) scale(0.1 -0.1)">
       <use xlink:href="#DejaVuSans-32"/>
       <use xlink:href="#DejaVuSans-2e" x="63.623047"/>
       <use xlink:href="#DejaVuSans-37" x="95.410156"/>
       <use xlink:href="#DejaVuSans-35" x="159.033203"/>
      </g>
     </g>
    </g>
   </g>
   <g id="matplotlib.axis_4">
    <g id="ytick_9">
     <g id="line2d_25">
      <g>
       <use xlink:href="#m845df3e8c5" x="319.380625" y="260.521875" style="stroke: #000000; stroke-width: 0.8"/>
      </g>
     </g>
    </g>
    <g id="ytick_10">
     <g id="line2d_26">
      <g>
       <use xlink:href="#m845df3e8c5" x="319.380625" y="234.951072" style="stroke: #000000; stroke-width: 0.8"/>
      </g>
     </g>
    </g>
    <g id="ytick_11">
     <g id="line2d_27">
      <g>
       <use xlink:href="#m845df3e8c5" x="319.380625" y="209.38027" style="stroke: #000000; stroke-width: 0.8"/>
      </g>
     </g>
    </g>
    <g id="ytick_12">
     <g id="line2d_28">
      <g>
       <use xlink:href="#m845df3e8c5" x="319.380625" y="183.809467" style="stroke: #000000; stroke-width: 0.8"/>
      </g>
     </g>
    </g>
    <g id="ytick_13">
     <g id="line2d_29">
      <g>
       <use xlink:href="#m845df3e8c5" x="319.380625" y="158.238664" style="stroke: #000000; stroke-width: 0.8"/>
      </g>
     </g>
    </g>
    <g id="ytick_14">
     <g id="line2d_30">
      <g>
       <use xlink:href="#m845df3e8c5" x="319.380625" y="132.667862" style="stroke: #000000; stroke-width: 0.8"/>
      </g>
     </g>
    </g>
    <g id="ytick_15">
     <g id="line2d_31">
      <g>
       <use xlink:href="#m845df3e8c5" x="319.380625" y="107.097059" style="stroke: #000000; stroke-width: 0.8"/>
      </g>
     </g>
    </g>
    <g id="ytick_16">
     <g id="line2d_32">
      <g>
       <use xlink:href="#m845df3e8c5" x="319.380625" y="81.526256" style="stroke: #000000; stroke-width: 0.8"/>
      </g>
     </g>
    </g>
    <g id="text_27">
     <!-- Fraction of cells -->
     <g transform="translate(308.969062 213.889844) rotate(-90) scale(0.14 -0.14)">
      <use xlink:href="#DejaVuSans-46"/>
      <use xlink:href="#DejaVuSans-72" x="50.269531"/>
      <use xlink:href="#DejaVuSans-61" x="91.382812"/>
      <use xlink:href="#DejaVuSans-63" x="152.662109"/>
      <use xlink:href="#DejaVuSans-74" x="207.642578"/>
      <use xlink:href="#DejaVuSans-69" x="246.851562"/>
      <use xlink:href="#DejaVuSans-6f" x="274.634766"/>
      <use xlink:href="#DejaVuSans-6e" x="335.816406"/>
      <use xlink:href="#DejaVuSans-20" x="399.195312"/>
      <use xlink:href="#DejaVuSans-6f" x="430.982422"/>
      <use xlink:href="#DejaVuSans-66" x="492.164062"/>
      <use xlink:href="#DejaVuSans-20" x="527.369141"/>
      <use xlink:href="#DejaVuSans-63" x="559.15625"/>
      <use xlink:href="#DejaVuSans-65" x="614.136719"/>
      <use xlink:href="#DejaVuSans-6c" x="675.660156"/>
      <use xlink:href="#DejaVuSans-6c" x="703.443359"/>
      <use xlink:href="#DejaVuSans-73" x="731.226562"/>
     </g>
    </g>
   </g>
   <g id="line2d_33">
    <path d="M 319.033749 260.514048 
L 331.248454 260.39902 
L 338.034402 260.114504 
L 342.105971 259.770572 
L 346.177539 259.237751 
L 350.249108 258.478713 
L 354.320676 257.479134 
L 358.392245 256.252763 
L 363.821003 254.327232 
L 369.249761 252.151323 
L 374.678519 249.75721 
L 380.107277 247.10082 
L 384.178846 244.895682 
L 389.607604 241.660668 
L 396.393552 237.273217 
L 405.893878 231.081987 
L 411.322636 227.782314 
L 415.394205 225.498543 
L 419.465774 223.462456 
L 422.180153 222.310249 
L 424.894532 221.386428 
L 427.608911 220.750654 
L 430.32329 220.455118 
L 433.037669 220.533143 
L 435.752048 220.990495 
L 438.466427 221.802225 
L 441.180806 222.916287 
L 443.895185 224.263097 
L 447.966754 226.558996 
L 458.82427 233.137491 
L 471.038976 240.717335 
L 479.182113 245.7001 
L 483.253681 247.973747 
L 487.32525 250.001075 
L 491.396818 251.731584 
L 495.468387 253.148965 
L 499.539956 254.274111 
L 503.611524 255.157779 
L 509.040282 256.071309 
L 515.82623 256.965397 
L 523.969367 257.824431 
L 533.469694 258.59833 
L 553.827537 259.96311 
L 561.970674 260.305318 
L 571.471 260.475446 
L 577 260.506739 
L 577 260.506739 
" clip-path="url(#pb57dae0b46)" style="fill: none; stroke: #1f77b4; stroke-width: 1.5; stroke-linecap: square"/>
   </g>
   <g id="line2d_34">
    <path d="M 319.033749 252.69681 
L 325.819696 250.500111 
L 350.249108 242.277754 
L 355.677866 240.818488 
L 359.749435 239.90808 
L 363.821003 239.181165 
L 367.892572 238.654511 
L 371.96414 238.337513 
L 376.035709 238.231183 
L 380.107277 238.32767 
L 384.178846 238.610407 
L 389.607604 239.233936 
L 396.393552 240.302075 
L 419.465774 244.265079 
L 426.251721 245.082208 
L 433.037669 245.685143 
L 441.180806 246.185202 
L 454.752701 246.748375 
L 469.681786 247.431728 
L 477.824923 248.000603 
L 485.96806 248.800342 
L 492.754008 249.675669 
L 500.897145 250.962828 
L 526.683746 255.305968 
L 533.469694 256.075438 
L 540.255641 256.618372 
L 548.398779 257.045164 
L 574.18538 258.215237 
L 577 258.388909 
L 577 258.388909 
" clip-path="url(#pb57dae0b46)" style="fill: none; stroke: #ff7f0e; stroke-width: 1.5; stroke-linecap: square"/>
   </g>
   <g id="line2d_35">
    <path d="M 319.033749 259.954722 
L 325.819696 259.496651 
L 332.605644 258.804784 
L 338.034402 258.04889 
L 343.46316 257.086861 
L 348.891918 255.895686 
L 354.320676 254.456521 
L 359.749435 252.763643 
L 365.178193 250.838421 
L 373.32133 247.662204 
L 381.464467 244.493102 
L 386.893225 242.614279 
L 390.964794 241.405874 
L 395.036362 240.391491 
L 399.107931 239.56324 
L 404.536689 238.690514 
L 433.037669 234.613307 
L 438.466427 233.908706 
L 442.537996 233.562914 
L 446.609564 233.435374 
L 450.681133 233.565445 
L 454.752701 233.97297 
L 458.82427 234.657374 
L 462.895838 235.599563 
L 466.967407 236.765767 
L 472.396165 238.592917 
L 479.182113 241.150842 
L 492.754008 246.372239 
L 499.539956 248.703584 
L 504.968714 250.33626 
L 510.397472 251.733739 
L 515.82623 252.889285 
L 521.254988 253.813302 
L 526.683746 254.532069 
L 533.469694 255.204266 
L 544.32721 255.996638 
L 557.899105 257.008388 
L 572.82819 258.40452 
L 577 258.792401 
L 577 258.792401 
" clip-path="url(#pb57dae0b46)" style="fill: none; stroke: #2ca02c; stroke-width: 1.5; stroke-linecap: square"/>
   </g>
   <g id="patch_132">
    <path d="M 319.380625 260.521875 
L 319.380625 57.594062 
" style="fill: none; stroke: #000000; stroke-width: 0.8; stroke-linejoin: miter; stroke-linecap: square"/>
   </g>
   <g id="patch_133">
    <path d="M 565.2 260.521875 
L 565.2 57.594062 
" style="fill: none; stroke: #000000; stroke-width: 0.8; stroke-linejoin: miter; stroke-linecap: square"/>
   </g>
   <g id="patch_134">
    <path d="M 319.380625 260.521875 
L 565.2 260.521875 
" style="fill: none; stroke: #000000; stroke-width: 0.8; stroke-linejoin: miter; stroke-linecap: square"/>
   </g>
   <g id="patch_135">
    <path d="M 319.380625 57.594062 
L 565.2 57.594062 
" style="fill: none; stroke: #000000; stroke-width: 0.8; stroke-linejoin: miter; stroke-linecap: square"/>
   </g>
   <g id="text_28">
    <!-- Linear -->
    <g transform="translate(420.534531 51.594062) scale(0.14 -0.14)">
     <defs>
      <path id="DejaVuSans-4c" d="M 628 4666 
L 1259 4666 
L 1259 531 
L 3531 531 
L 3531 0 
L 628 0 
L 628 4666 
z
" transform="scale(0.015625)"/>
     </defs>
     <use xlink:href="#DejaVuSans-4c"/>
     <use xlink:href="#DejaVuSans-69" x="55.712891"/>
     <use xlink:href="#DejaVuSans-6e" x="83.496094"/>
     <use xlink:href="#DejaVuSans-65" x="146.875"/>
     <use xlink:href="#DejaVuSans-61" x="208.398438"/>
     <use xlink:href="#DejaVuSans-72" x="269.677734"/>
    </g>
   </g>
   <g id="legend_2">
    <g id="patch_136">
     <path d="M 476.810625 120.035312 
L 556.8 120.035312 
Q 559.2 120.035312 559.2 117.635312 
L 559.2 65.994062 
Q 559.2 63.594062 556.8 63.594062 
L 476.810625 63.594062 
Q 474.410625 63.594062 474.410625 65.994062 
L 474.410625 117.635312 
Q 474.410625 120.035312 476.810625 120.035312 
z
" style="fill: #ffffff; opacity: 0.8; stroke: #cccccc; stroke-linejoin: miter"/>
    </g>
    <g id="patch_137">
     <path d="M 479.210625 77.512187 
L 503.210625 77.512187 
L 503.210625 69.112187 
L 479.210625 69.112187 
z
" style="fill: #1f77b4; opacity: 0.4"/>
    </g>
    <g id="text_29">
     <!-- control -->
     <g transform="translate(512.810625 77.512187) scale(0.12 -0.12)">
      <use xlink:href="#DejaVuSans-63"/>
      <use xlink:href="#DejaVuSans-6f" x="54.980469"/>
      <use xlink:href="#DejaVuSans-6e" x="116.162109"/>
      <use xlink:href="#DejaVuSans-74" x="179.541016"/>
      <use xlink:href="#DejaVuSans-72" x="218.75"/>
      <use xlink:href="#DejaVuSans-6f" x="257.613281"/>
      <use xlink:href="#DejaVuSans-6c" x="318.794922"/>
     </g>
    </g>
    <g id="patch_138">
     <path d="M 479.210625 95.125937 
L 503.210625 95.125937 
L 503.210625 86.725937 
L 479.210625 86.725937 
z
" style="fill: #ff7f0e; opacity: 0.4"/>
    </g>
    <g id="text_30">
     <!-- cytd -->
     <g transform="translate(512.810625 95.125937) scale(0.12 -0.12)">
      <use xlink:href="#DejaVuSans-63"/>
      <use xlink:href="#DejaVuSans-79" x="54.980469"/>
      <use xlink:href="#DejaVuSans-74" x="114.160156"/>
      <use xlink:href="#DejaVuSans-64" x="153.369141"/>
     </g>
    </g>
    <g id="patch_139">
     <path d="M 479.210625 112.739687 
L 503.210625 112.739687 
L 503.210625 104.339687 
L 479.210625 104.339687 
z
" style="fill: #2ca02c; opacity: 0.4"/>
    </g>
    <g id="text_31">
     <!-- jasp -->
     <g transform="translate(512.810625 112.739687) scale(0.12 -0.12)">
      <use xlink:href="#DejaVuSans-6a"/>
      <use xlink:href="#DejaVuSans-61" x="27.783203"/>
      <use xlink:href="#DejaVuSans-73" x="89.0625"/>
      <use xlink:href="#DejaVuSans-70" x="141.162109"/>
     </g>
    </g>
   </g>
  </g>
  <g id="text_32">
   <!-- Histograms of SRV distances to global mean cell -->
   <g transform="translate(45.753125 20.956875) scale(0.2 -0.2)">
    <defs>
     <path id="DejaVuSans-48" d="M 628 4666 
L 1259 4666 
L 1259 2753 
L 3553 2753 
L 3553 4666 
L 4184 4666 
L 4184 0 
L 3553 0 
L 3553 2222 
L 1259 2222 
L 1259 0 
L 628 0 
L 628 4666 
z
" transform="scale(0.015625)"/>
     <path id="DejaVuSans-67" d="M 2906 1791 
Q 2906 2416 2648 2759 
Q 2391 3103 1925 3103 
Q 1463 3103 1205 2759 
Q 947 2416 947 1791 
Q 947 1169 1205 825 
Q 1463 481 1925 481 
Q 2391 481 2648 825 
Q 2906 1169 2906 1791 
z
M 3481 434 
Q 3481 -459 3084 -895 
Q 2688 -1331 1869 -1331 
Q 1566 -1331 1297 -1286 
Q 1028 -1241 775 -1147 
L 775 -588 
Q 1028 -725 1275 -790 
Q 1522 -856 1778 -856 
Q 2344 -856 2625 -561 
Q 2906 -266 2906 331 
L 2906 616 
Q 2728 306 2450 153 
Q 2172 0 1784 0 
Q 1141 0 747 490 
Q 353 981 353 1791 
Q 353 2603 747 3093 
Q 1141 3584 1784 3584 
Q 2172 3584 2450 3431 
Q 2728 3278 2906 2969 
L 2906 3500 
L 3481 3500 
L 3481 434 
z
" transform="scale(0.015625)"/>
     <path id="DejaVuSans-6d" d="M 3328 2828 
Q 3544 3216 3844 3400 
Q 4144 3584 4550 3584 
Q 5097 3584 5394 3201 
Q 5691 2819 5691 2113 
L 5691 0 
L 5113 0 
L 5113 2094 
Q 5113 2597 4934 2840 
Q 4756 3084 4391 3084 
Q 3944 3084 3684 2787 
Q 3425 2491 3425 1978 
L 3425 0 
L 2847 0 
L 2847 2094 
Q 2847 2600 2669 2842 
Q 2491 3084 2119 3084 
Q 1678 3084 1418 2786 
Q 1159 2488 1159 1978 
L 1159 0 
L 581 0 
L 581 3500 
L 1159 3500 
L 1159 2956 
Q 1356 3278 1631 3431 
Q 1906 3584 2284 3584 
Q 2666 3584 2933 3390 
Q 3200 3197 3328 2828 
z
" transform="scale(0.015625)"/>
     <path id="DejaVuSans-62" d="M 3116 1747 
Q 3116 2381 2855 2742 
Q 2594 3103 2138 3103 
Q 1681 3103 1420 2742 
Q 1159 2381 1159 1747 
Q 1159 1113 1420 752 
Q 1681 391 2138 391 
Q 2594 391 2855 752 
Q 3116 1113 3116 1747 
z
M 1159 2969 
Q 1341 3281 1617 3432 
Q 1894 3584 2278 3584 
Q 2916 3584 3314 3078 
Q 3713 2572 3713 1747 
Q 3713 922 3314 415 
Q 2916 -91 2278 -91 
Q 1894 -91 1617 61 
Q 1341 213 1159 525 
L 1159 0 
L 581 0 
L 581 4863 
L 1159 4863 
L 1159 2969 
z
" transform="scale(0.015625)"/>
    </defs>
    <use xlink:href="#DejaVuSans-48"/>
    <use xlink:href="#DejaVuSans-69" x="75.195312"/>
    <use xlink:href="#DejaVuSans-73" x="102.978516"/>
    <use xlink:href="#DejaVuSans-74" x="155.078125"/>
    <use xlink:href="#DejaVuSans-6f" x="194.287109"/>
    <use xlink:href="#DejaVuSans-67" x="255.46875"/>
    <use xlink:href="#DejaVuSans-72" x="318.945312"/>
    <use xlink:href="#DejaVuSans-61" x="360.058594"/>
    <use xlink:href="#DejaVuSans-6d" x="421.337891"/>
    <use xlink:href="#DejaVuSans-73" x="518.75"/>
    <use xlink:href="#DejaVuSans-20" x="570.849609"/>
    <use xlink:href="#DejaVuSans-6f" x="602.636719"/>
    <use xlink:href="#DejaVuSans-66" x="663.818359"/>
    <use xlink:href="#DejaVuSans-20" x="699.023438"/>
    <use xlink:href="#DejaVuSans-53" x="730.810547"/>
    <use xlink:href="#DejaVuSans-52" x="794.287109"/>
    <use xlink:href="#DejaVuSans-56" x="858.269531"/>
    <use xlink:href="#DejaVuSans-20" x="926.677734"/>
    <use xlink:href="#DejaVuSans-64" x="958.464844"/>
    <use xlink:href="#DejaVuSans-69" x="1021.941406"/>
    <use xlink:href="#DejaVuSans-73" x="1049.724609"/>
    <use xlink:href="#DejaVuSans-74" x="1101.824219"/>
    <use xlink:href="#DejaVuSans-61" x="1141.033203"/>
    <use xlink:href="#DejaVuSans-6e" x="1202.3125"/>
    <use xlink:href="#DejaVuSans-63" x="1265.691406"/>
    <use xlink:href="#DejaVuSans-65" x="1320.671875"/>
    <use xlink:href="#DejaVuSans-73" x="1382.195312"/>
    <use xlink:href="#DejaVuSans-20" x="1434.294922"/>
    <use xlink:href="#DejaVuSans-74" x="1466.082031"/>
    <use xlink:href="#DejaVuSans-6f" x="1505.291016"/>
    <use xlink:href="#DejaVuSans-20" x="1566.472656"/>
    <use xlink:href="#DejaVuSans-67" x="1598.259766"/>
    <use xlink:href="#DejaVuSans-6c" x="1661.736328"/>
    <use xlink:href="#DejaVuSans-6f" x="1689.519531"/>
    <use xlink:href="#DejaVuSans-62" x="1750.701172"/>
    <use xlink:href="#DejaVuSans-61" x="1814.177734"/>
    <use xlink:href="#DejaVuSans-6c" x="1875.457031"/>
    <use xlink:href="#DejaVuSans-20" x="1903.240234"/>
    <use xlink:href="#DejaVuSans-6d" x="1935.027344"/>
    <use xlink:href="#DejaVuSans-65" x="2032.439453"/>
    <use xlink:href="#DejaVuSans-61" x="2093.962891"/>
    <use xlink:href="#DejaVuSans-6e" x="2155.242188"/>
    <use xlink:href="#DejaVuSans-20" x="2218.621094"/>
    <use xlink:href="#DejaVuSans-63" x="2250.408203"/>
    <use xlink:href="#DejaVuSans-65" x="2305.388672"/>
    <use xlink:href="#DejaVuSans-6c" x="2366.912109"/>
    <use xlink:href="#DejaVuSans-6c" x="2394.695312"/>
   </g>
  </g>
 </g>
 <defs>
  <clipPath id="p4d65ee2a8b">
   <rect x="41.711875" y="57.594062" width="245.819375" height="202.927813"/>
  </clipPath>
  <clipPath id="pb57dae0b46">
   <rect x="319.380625" y="57.594062" width="245.819375" height="202.927813"/>
  </clipPath>
 </defs>
</svg>
