<?xml version="1.0" encoding="utf-8" standalone="no"?>
<!DOCTYPE svg PUBLIC "-//W3C//DTD SVG 1.1//EN"
  "http://www.w3.org/Graphics/SVG/1.1/DTD/svg11.dtd">
<svg xmlns:xlink="http://www.w3.org/1999/xlink" width="576pt" height="288pt" viewBox="0 0 576 288" xmlns="http://www.w3.org/2000/svg" version="1.1">
 <metadata>
  <rdf:RDF xmlns:dc="http://purl.org/dc/elements/1.1/" xmlns:cc="http://creativecommons.org/ns#" xmlns:rdf="http://www.w3.org/1999/02/22-rdf-syntax-ns#">
   <cc:Work>
    <dc:type rdf:resource="http://purl.org/dc/dcmitype/StillImage"/>
    <dc:date>2023-12-18T05:20:17.021904</dc:date>
    <dc:format>image/svg+xml</dc:format>
    <dc:creator>
     <cc:Agent>
      <dc:title>Matplotlib v3.6.2, https://matplotlib.org/</dc:title>
     </cc:Agent>
    </dc:creator>
   </cc:Work>
  </rdf:RDF>
 </metadata>
 <defs>
  <style type="text/css">*{stroke-linejoin: round; stroke-linecap: butt}</style>
 </defs>
 <g id="figure_1">
  <g id="patch_1">
   <path d="M 0 288 
L 576 288 
L 576 0 
L 0 0 
z
" style="fill: #ffffff"/>
  </g>
  <g id="axes_1">
   <g id="patch_2">
    <path d="M 57.615 260.521875 
L 295.482813 260.521875 
L 295.482813 27.437812 
L 57.615 27.437812 
z
" style="fill: #ffffff"/>
   </g>
   <g id="patch_3">
    <path d="M 58.819692 260.521875 
L 64.484888 260.521875 
L 64.484888 238.379708 
L 58.819692 238.379708 
z
" clip-path="url(#pb9f6da4434)" style="fill: #1f77b4; opacity: 0.4"/>
   </g>
   <g id="patch_4">
    <path d="M 64.484888 260.521875 
L 70.150085 260.521875 
L 70.150085 180.810075 
L 64.484888 180.810075 
z
" clip-path="url(#pb9f6da4434)" style="fill: #1f77b4; opacity: 0.4"/>
   </g>
   <g id="patch_5">
    <path d="M 70.150085 260.521875 
L 75.815282 260.521875 
L 75.815282 189.666942 
L 70.150085 189.666942 
z
" clip-path="url(#pb9f6da4434)" style="fill: #1f77b4; opacity: 0.4"/>
   </g>
   <g id="patch_6">
    <path d="M 75.815282 260.521875 
L 81.480479 260.521875 
L 81.480479 202.952242 
L 75.815282 202.952242 
z
" clip-path="url(#pb9f6da4434)" style="fill: #1f77b4; opacity: 0.4"/>
   </g>
   <g id="patch_7">
    <path d="M 81.480479 260.521875 
L 87.145675 260.521875 
L 87.145675 225.094408 
L 81.480479 225.094408 
z
" clip-path="url(#pb9f6da4434)" style="fill: #1f77b4; opacity: 0.4"/>
   </g>
   <g id="patch_8">
    <path d="M 87.145675 260.521875 
L 92.810872 260.521875 
L 92.810872 238.379708 
L 87.145675 238.379708 
z
" clip-path="url(#pb9f6da4434)" style="fill: #1f77b4; opacity: 0.4"/>
   </g>
   <g id="patch_9">
    <path d="M 92.810872 260.521875 
L 98.476069 260.521875 
L 98.476069 220.665975 
L 92.810872 220.665975 
z
" clip-path="url(#pb9f6da4434)" style="fill: #1f77b4; opacity: 0.4"/>
   </g>
   <g id="patch_10">
    <path d="M 98.476069 260.521875 
L 104.141266 260.521875 
L 104.141266 207.380675 
L 98.476069 207.380675 
z
" clip-path="url(#pb9f6da4434)" style="fill: #1f77b4; opacity: 0.4"/>
   </g>
   <g id="patch_11">
    <path d="M 104.141266 260.521875 
L 109.806462 260.521875 
L 109.806462 242.808142 
L 104.141266 242.808142 
z
" clip-path="url(#pb9f6da4434)" style="fill: #1f77b4; opacity: 0.4"/>
   </g>
   <g id="patch_12">
    <path d="M 109.806462 260.521875 
L 115.471659 260.521875 
L 115.471659 251.665008 
L 109.806462 251.665008 
z
" clip-path="url(#pb9f6da4434)" style="fill: #1f77b4; opacity: 0.4"/>
   </g>
   <g id="patch_13">
    <path d="M 115.471659 260.521875 
L 121.136856 260.521875 
L 121.136856 233.951275 
L 115.471659 233.951275 
z
" clip-path="url(#pb9f6da4434)" style="fill: #1f77b4; opacity: 0.4"/>
   </g>
   <g id="patch_14">
    <path d="M 121.136856 260.521875 
L 126.802053 260.521875 
L 126.802053 242.808142 
L 121.136856 242.808142 
z
" clip-path="url(#pb9f6da4434)" style="fill: #1f77b4; opacity: 0.4"/>
   </g>
   <g id="patch_15">
    <path d="M 126.802053 260.521875 
L 132.467249 260.521875 
L 132.467249 242.808142 
L 126.802053 242.808142 
z
" clip-path="url(#pb9f6da4434)" style="fill: #1f77b4; opacity: 0.4"/>
   </g>
   <g id="patch_16">
    <path d="M 132.467249 260.521875 
L 138.132446 260.521875 
L 138.132446 251.665008 
L 132.467249 251.665008 
z
" clip-path="url(#pb9f6da4434)" style="fill: #1f77b4; opacity: 0.4"/>
   </g>
   <g id="patch_17">
    <path d="M 138.132446 260.521875 
L 143.797643 260.521875 
L 143.797643 256.093442 
L 138.132446 256.093442 
z
" clip-path="url(#pb9f6da4434)" style="fill: #1f77b4; opacity: 0.4"/>
   </g>
   <g id="patch_18">
    <path d="M 143.797643 260.521875 
L 149.46284 260.521875 
L 149.46284 256.093442 
L 143.797643 256.093442 
z
" clip-path="url(#pb9f6da4434)" style="fill: #1f77b4; opacity: 0.4"/>
   </g>
   <g id="patch_19">
    <path d="M 149.46284 260.521875 
L 155.128036 260.521875 
L 155.128036 251.665008 
L 149.46284 251.665008 
z
" clip-path="url(#pb9f6da4434)" style="fill: #1f77b4; opacity: 0.4"/>
   </g>
   <g id="patch_20">
    <path d="M 155.128036 260.521875 
L 160.793233 260.521875 
L 160.793233 260.521875 
L 155.128036 260.521875 
z
" clip-path="url(#pb9f6da4434)" style="fill: #1f77b4; opacity: 0.4"/>
   </g>
   <g id="patch_21">
    <path d="M 160.793233 260.521875 
L 166.45843 260.521875 
L 166.45843 260.521875 
L 160.793233 260.521875 
z
" clip-path="url(#pb9f6da4434)" style="fill: #1f77b4; opacity: 0.4"/>
   </g>
   <g id="patch_22">
    <path d="M 166.45843 260.521875 
L 172.123627 260.521875 
L 172.123627 251.665008 
L 166.45843 251.665008 
z
" clip-path="url(#pb9f6da4434)" style="fill: #1f77b4; opacity: 0.4"/>
   </g>
   <g id="patch_23">
    <path d="M 86.30296 260.521875 
L 96.761953 260.521875 
L 96.761953 246.849307 
L 86.30296 246.849307 
z
" clip-path="url(#pb9f6da4434)" style="fill: #ff7f0e; opacity: 0.4"/>
   </g>
   <g id="patch_24">
    <path d="M 96.761953 260.521875 
L 107.220945 260.521875 
L 107.220945 233.176738 
L 96.761953 233.176738 
z
" clip-path="url(#pb9f6da4434)" style="fill: #ff7f0e; opacity: 0.4"/>
   </g>
   <g id="patch_25">
    <path d="M 107.220945 260.521875 
L 117.679938 260.521875 
L 117.679938 236.59488 
L 107.220945 236.59488 
z
" clip-path="url(#pb9f6da4434)" style="fill: #ff7f0e; opacity: 0.4"/>
   </g>
   <g id="patch_26">
    <path d="M 117.679938 260.521875 
L 128.138931 260.521875 
L 128.138931 243.431164 
L 117.679938 243.431164 
z
" clip-path="url(#pb9f6da4434)" style="fill: #ff7f0e; opacity: 0.4"/>
   </g>
   <g id="patch_27">
    <path d="M 128.138931 260.521875 
L 138.597923 260.521875 
L 138.597923 229.758596 
L 128.138931 229.758596 
z
" clip-path="url(#pb9f6da4434)" style="fill: #ff7f0e; opacity: 0.4"/>
   </g>
   <g id="patch_28">
    <path d="M 138.597923 260.521875 
L 149.056916 260.521875 
L 149.056916 243.431164 
L 138.597923 243.431164 
z
" clip-path="url(#pb9f6da4434)" style="fill: #ff7f0e; opacity: 0.4"/>
   </g>
   <g id="patch_29">
    <path d="M 149.056916 260.521875 
L 159.515908 260.521875 
L 159.515908 243.431164 
L 149.056916 243.431164 
z
" clip-path="url(#pb9f6da4434)" style="fill: #ff7f0e; opacity: 0.4"/>
   </g>
   <g id="patch_30">
    <path d="M 159.515908 260.521875 
L 169.974901 260.521875 
L 169.974901 250.267449 
L 159.515908 250.267449 
z
" clip-path="url(#pb9f6da4434)" style="fill: #ff7f0e; opacity: 0.4"/>
   </g>
   <g id="patch_31">
    <path d="M 169.974901 260.521875 
L 180.433894 260.521875 
L 180.433894 229.758596 
L 169.974901 229.758596 
z
" clip-path="url(#pb9f6da4434)" style="fill: #ff7f0e; opacity: 0.4"/>
   </g>
   <g id="patch_32">
    <path d="M 180.433894 260.521875 
L 190.892886 260.521875 
L 190.892886 243.431164 
L 180.433894 243.431164 
z
" clip-path="url(#pb9f6da4434)" style="fill: #ff7f0e; opacity: 0.4"/>
   </g>
   <g id="patch_33">
    <path d="M 190.892886 260.521875 
L 201.351879 260.521875 
L 201.351879 253.685591 
L 190.892886 253.685591 
z
" clip-path="url(#pb9f6da4434)" style="fill: #ff7f0e; opacity: 0.4"/>
   </g>
   <g id="patch_34">
    <path d="M 201.351879 260.521875 
L 211.810872 260.521875 
L 211.810872 246.849307 
L 201.351879 246.849307 
z
" clip-path="url(#pb9f6da4434)" style="fill: #ff7f0e; opacity: 0.4"/>
   </g>
   <g id="patch_35">
    <path d="M 211.810872 260.521875 
L 222.269864 260.521875 
L 222.269864 253.685591 
L 211.810872 253.685591 
z
" clip-path="url(#pb9f6da4434)" style="fill: #ff7f0e; opacity: 0.4"/>
   </g>
   <g id="patch_36">
    <path d="M 222.269864 260.521875 
L 232.728857 260.521875 
L 232.728857 257.103733 
L 222.269864 257.103733 
z
" clip-path="url(#pb9f6da4434)" style="fill: #ff7f0e; opacity: 0.4"/>
   </g>
   <g id="patch_37">
    <path d="M 232.728857 260.521875 
L 243.187849 260.521875 
L 243.187849 260.521875 
L 232.728857 260.521875 
z
" clip-path="url(#pb9f6da4434)" style="fill: #ff7f0e; opacity: 0.4"/>
   </g>
   <g id="patch_38">
    <path d="M 243.187849 260.521875 
L 253.646842 260.521875 
L 253.646842 246.849307 
L 243.187849 246.849307 
z
" clip-path="url(#pb9f6da4434)" style="fill: #ff7f0e; opacity: 0.4"/>
   </g>
   <g id="patch_39">
    <path d="M 253.646842 260.521875 
L 264.105835 260.521875 
L 264.105835 250.267449 
L 253.646842 250.267449 
z
" clip-path="url(#pb9f6da4434)" style="fill: #ff7f0e; opacity: 0.4"/>
   </g>
   <g id="patch_40">
    <path d="M 264.105835 260.521875 
L 274.564827 260.521875 
L 274.564827 260.521875 
L 264.105835 260.521875 
z
" clip-path="url(#pb9f6da4434)" style="fill: #ff7f0e; opacity: 0.4"/>
   </g>
   <g id="patch_41">
    <path d="M 274.564827 260.521875 
L 285.02382 260.521875 
L 285.02382 253.685591 
L 274.564827 253.685591 
z
" clip-path="url(#pb9f6da4434)" style="fill: #ff7f0e; opacity: 0.4"/>
   </g>
   <g id="patch_42">
    <path d="M 285.02382 260.521875 
L 295.482812 260.521875 
L 295.482812 253.685591 
L 285.02382 253.685591 
z
" clip-path="url(#pb9f6da4434)" style="fill: #ff7f0e; opacity: 0.4"/>
   </g>
   <g id="patch_43">
    <path d="M 73.124787 260.521875 
L 78.681507 260.521875 
L 78.681507 219.014073 
L 73.124787 219.014073 
z
" clip-path="url(#pb9f6da4434)" style="fill: #2ca02c; opacity: 0.4"/>
   </g>
   <g id="patch_44">
    <path d="M 78.681507 260.521875 
L 84.238228 260.521875 
L 84.238228 185.807831 
L 78.681507 185.807831 
z
" clip-path="url(#pb9f6da4434)" style="fill: #2ca02c; opacity: 0.4"/>
   </g>
   <g id="patch_45">
    <path d="M 84.238228 260.521875 
L 89.794948 260.521875 
L 89.794948 169.20471 
L 84.238228 169.20471 
z
" clip-path="url(#pb9f6da4434)" style="fill: #2ca02c; opacity: 0.4"/>
   </g>
   <g id="patch_46">
    <path d="M 89.794948 260.521875 
L 95.351668 260.521875 
L 95.351668 219.014073 
L 89.794948 219.014073 
z
" clip-path="url(#pb9f6da4434)" style="fill: #2ca02c; opacity: 0.4"/>
   </g>
   <g id="patch_47">
    <path d="M 95.351668 260.521875 
L 100.908388 260.521875 
L 100.908388 202.410952 
L 95.351668 202.410952 
z
" clip-path="url(#pb9f6da4434)" style="fill: #2ca02c; opacity: 0.4"/>
   </g>
   <g id="patch_48">
    <path d="M 100.908388 260.521875 
L 106.465109 260.521875 
L 106.465109 210.712512 
L 100.908388 210.712512 
z
" clip-path="url(#pb9f6da4434)" style="fill: #2ca02c; opacity: 0.4"/>
   </g>
   <g id="patch_49">
    <path d="M 106.465109 260.521875 
L 112.021829 260.521875 
L 112.021829 219.014073 
L 106.465109 219.014073 
z
" clip-path="url(#pb9f6da4434)" style="fill: #2ca02c; opacity: 0.4"/>
   </g>
   <g id="patch_50">
    <path d="M 112.021829 260.521875 
L 117.578549 260.521875 
L 117.578549 243.918754 
L 112.021829 243.918754 
z
" clip-path="url(#pb9f6da4434)" style="fill: #2ca02c; opacity: 0.4"/>
   </g>
   <g id="patch_51">
    <path d="M 117.578549 260.521875 
L 123.13527 260.521875 
L 123.13527 252.220315 
L 117.578549 252.220315 
z
" clip-path="url(#pb9f6da4434)" style="fill: #2ca02c; opacity: 0.4"/>
   </g>
   <g id="patch_52">
    <path d="M 123.13527 260.521875 
L 128.69199 260.521875 
L 128.69199 252.220315 
L 123.13527 252.220315 
z
" clip-path="url(#pb9f6da4434)" style="fill: #2ca02c; opacity: 0.4"/>
   </g>
   <g id="patch_53">
    <path d="M 128.69199 260.521875 
L 134.24871 260.521875 
L 134.24871 227.315633 
L 128.69199 227.315633 
z
" clip-path="url(#pb9f6da4434)" style="fill: #2ca02c; opacity: 0.4"/>
   </g>
   <g id="patch_54">
    <path d="M 134.24871 260.521875 
L 139.805431 260.521875 
L 139.805431 260.521875 
L 134.24871 260.521875 
z
" clip-path="url(#pb9f6da4434)" style="fill: #2ca02c; opacity: 0.4"/>
   </g>
   <g id="patch_55">
    <path d="M 139.805431 260.521875 
L 145.362151 260.521875 
L 145.362151 252.220315 
L 139.805431 252.220315 
z
" clip-path="url(#pb9f6da4434)" style="fill: #2ca02c; opacity: 0.4"/>
   </g>
   <g id="patch_56">
    <path d="M 145.362151 260.521875 
L 150.918871 260.521875 
L 150.918871 252.220315 
L 145.362151 252.220315 
z
" clip-path="url(#pb9f6da4434)" style="fill: #2ca02c; opacity: 0.4"/>
   </g>
   <g id="patch_57">
    <path d="M 150.918871 260.521875 
L 156.475591 260.521875 
L 156.475591 252.220315 
L 150.918871 252.220315 
z
" clip-path="url(#pb9f6da4434)" style="fill: #2ca02c; opacity: 0.4"/>
   </g>
   <g id="patch_58">
    <path d="M 156.475591 260.521875 
L 162.032312 260.521875 
L 162.032312 260.521875 
L 156.475591 260.521875 
z
" clip-path="url(#pb9f6da4434)" style="fill: #2ca02c; opacity: 0.4"/>
   </g>
   <g id="patch_59">
    <path d="M 162.032312 260.521875 
L 167.589032 260.521875 
L 167.589032 260.521875 
L 162.032312 260.521875 
z
" clip-path="url(#pb9f6da4434)" style="fill: #2ca02c; opacity: 0.4"/>
   </g>
   <g id="patch_60">
    <path d="M 167.589032 260.521875 
L 173.145752 260.521875 
L 173.145752 260.521875 
L 167.589032 260.521875 
z
" clip-path="url(#pb9f6da4434)" style="fill: #2ca02c; opacity: 0.4"/>
   </g>
   <g id="patch_61">
    <path d="M 173.145752 260.521875 
L 178.702473 260.521875 
L 178.702473 243.918754 
L 173.145752 243.918754 
z
" clip-path="url(#pb9f6da4434)" style="fill: #2ca02c; opacity: 0.4"/>
   </g>
   <g id="patch_62">
    <path d="M 178.702473 260.521875 
L 184.259193 260.521875 
L 184.259193 252.220315 
L 178.702473 252.220315 
z
" clip-path="url(#pb9f6da4434)" style="fill: #2ca02c; opacity: 0.4"/>
   </g>
   <g id="matplotlib.axis_1">
    <g id="xtick_1">
     <g id="line2d_1">
      <defs>
       <path id="m9ad6fc1d14" d="M 0 0 
L 0 3.5 
" style="stroke: #000000; stroke-width: 0.8"/>
      </defs>
      <g>
       <use xlink:href="#m9ad6fc1d14" x="75.676036" y="260.521875" style="stroke: #000000; stroke-width: 0.8"/>
      </g>
     </g>
     <g id="text_1">
      <!-- 0.4 -->
      <g transform="translate(67.724473 275.120313) scale(0.1 -0.1)">
       <defs>
        <path id="DejaVuSans-30" d="M 2034 4250 
Q 1547 4250 1301 3770 
Q 1056 3291 1056 2328 
Q 1056 1369 1301 889 
Q 1547 409 2034 409 
Q 2525 409 2770 889 
Q 3016 1369 3016 2328 
Q 3016 3291 2770 3770 
Q 2525 4250 2034 4250 
z
M 2034 4750 
Q 2819 4750 3233 4129 
Q 3647 3509 3647 2328 
Q 3647 1150 3233 529 
Q 2819 -91 2034 -91 
Q 1250 -91 836 529 
Q 422 1150 422 2328 
Q 422 3509 836 4129 
Q 1250 4750 2034 4750 
z
" transform="scale(0.015625)"/>
        <path id="DejaVuSans-2e" d="M 684 794 
L 1344 794 
L 1344 0 
L 684 0 
L 684 794 
z
" transform="scale(0.015625)"/>
        <path id="DejaVuSans-34" d="M 2419 4116 
L 825 1625 
L 2419 1625 
L 2419 4116 
z
M 2253 4666 
L 3047 4666 
L 3047 1625 
L 3713 1625 
L 3713 1100 
L 3047 1100 
L 3047 0 
L 2419 0 
L 2419 1100 
L 313 1100 
L 313 1709 
L 2253 4666 
z
" transform="scale(0.015625)"/>
       </defs>
       <use xlink:href="#DejaVuSans-30"/>
       <use xlink:href="#DejaVuSans-2e" x="63.623047"/>
       <use xlink:href="#DejaVuSans-34" x="95.410156"/>
      </g>
     </g>
    </g>
    <g id="xtick_2">
     <g id="line2d_2">
      <g>
       <use xlink:href="#m9ad6fc1d14" x="126.254791" y="260.521875" style="stroke: #000000; stroke-width: 0.8"/>
      </g>
     </g>
     <g id="text_2">
      <!-- 0.6 -->
      <g transform="translate(118.303229 275.120313) scale(0.1 -0.1)">
       <defs>
        <path id="DejaVuSans-36" d="M 2113 2584 
Q 1688 2584 1439 2293 
Q 1191 2003 1191 1497 
Q 1191 994 1439 701 
Q 1688 409 2113 409 
Q 2538 409 2786 701 
Q 3034 994 3034 1497 
Q 3034 2003 2786 2293 
Q 2538 2584 2113 2584 
z
M 3366 4563 
L 3366 3988 
Q 3128 4100 2886 4159 
Q 2644 4219 2406 4219 
Q 1781 4219 1451 3797 
Q 1122 3375 1075 2522 
Q 1259 2794 1537 2939 
Q 1816 3084 2150 3084 
Q 2853 3084 3261 2657 
Q 3669 2231 3669 1497 
Q 3669 778 3244 343 
Q 2819 -91 2113 -91 
Q 1303 -91 875 529 
Q 447 1150 447 2328 
Q 447 3434 972 4092 
Q 1497 4750 2381 4750 
Q 2619 4750 2861 4703 
Q 3103 4656 3366 4563 
z
" transform="scale(0.015625)"/>
       </defs>
       <use xlink:href="#DejaVuSans-30"/>
       <use xlink:href="#DejaVuSans-2e" x="63.623047"/>
       <use xlink:href="#DejaVuSans-36" x="95.410156"/>
      </g>
     </g>
    </g>
    <g id="xtick_3">
     <g id="line2d_3">
      <g>
       <use xlink:href="#m9ad6fc1d14" x="176.833546" y="260.521875" style="stroke: #000000; stroke-width: 0.8"/>
      </g>
     </g>
     <g id="text_3">
      <!-- 0.8 -->
      <g transform="translate(168.881984 275.120313) scale(0.1 -0.1)">
       <defs>
        <path id="DejaVuSans-38" d="M 2034 2216 
Q 1584 2216 1326 1975 
Q 1069 1734 1069 1313 
Q 1069 891 1326 650 
Q 1584 409 2034 409 
Q 2484 409 2743 651 
Q 3003 894 3003 1313 
Q 3003 1734 2745 1975 
Q 2488 2216 2034 2216 
z
M 1403 2484 
Q 997 2584 770 2862 
Q 544 3141 544 3541 
Q 544 4100 942 4425 
Q 1341 4750 2034 4750 
Q 2731 4750 3128 4425 
Q 3525 4100 3525 3541 
Q 3525 3141 3298 2862 
Q 3072 2584 2669 2484 
Q 3125 2378 3379 2068 
Q 3634 1759 3634 1313 
Q 3634 634 3220 271 
Q 2806 -91 2034 -91 
Q 1263 -91 848 271 
Q 434 634 434 1313 
Q 434 1759 690 2068 
Q 947 2378 1403 2484 
z
M 1172 3481 
Q 1172 3119 1398 2916 
Q 1625 2713 2034 2713 
Q 2441 2713 2670 2916 
Q 2900 3119 2900 3481 
Q 2900 3844 2670 4047 
Q 2441 4250 2034 4250 
Q 1625 4250 1398 4047 
Q 1172 3844 1172 3481 
z
" transform="scale(0.015625)"/>
       </defs>
       <use xlink:href="#DejaVuSans-30"/>
       <use xlink:href="#DejaVuSans-2e" x="63.623047"/>
       <use xlink:href="#DejaVuSans-38" x="95.410156"/>
      </g>
     </g>
    </g>
    <g id="xtick_4">
     <g id="line2d_4">
      <g>
       <use xlink:href="#m9ad6fc1d14" x="227.412302" y="260.521875" style="stroke: #000000; stroke-width: 0.8"/>
      </g>
     </g>
     <g id="text_4">
      <!-- 1.0 -->
      <g transform="translate(219.460739 275.120313) scale(0.1 -0.1)">
       <defs>
        <path id="DejaVuSans-31" d="M 794 531 
L 1825 531 
L 1825 4091 
L 703 3866 
L 703 4441 
L 1819 4666 
L 2450 4666 
L 2450 531 
L 3481 531 
L 3481 0 
L 794 0 
L 794 531 
z
" transform="scale(0.015625)"/>
       </defs>
       <use xlink:href="#DejaVuSans-31"/>
       <use xlink:href="#DejaVuSans-2e" x="63.623047"/>
       <use xlink:href="#DejaVuSans-30" x="95.410156"/>
      </g>
     </g>
    </g>
    <g id="xtick_5">
     <g id="line2d_5">
      <g>
       <use xlink:href="#m9ad6fc1d14" x="277.991057" y="260.521875" style="stroke: #000000; stroke-width: 0.8"/>
      </g>
     </g>
     <g id="text_5">
      <!-- 1.2 -->
      <g transform="translate(270.039494 275.120313) scale(0.1 -0.1)">
       <defs>
        <path id="DejaVuSans-32" d="M 1228 531 
L 3431 531 
L 3431 0 
L 469 0 
L 469 531 
Q 828 903 1448 1529 
Q 2069 2156 2228 2338 
Q 2531 2678 2651 2914 
Q 2772 3150 2772 3378 
Q 2772 3750 2511 3984 
Q 2250 4219 1831 4219 
Q 1534 4219 1204 4116 
Q 875 4013 500 3803 
L 500 4441 
Q 881 4594 1212 4672 
Q 1544 4750 1819 4750 
Q 2544 4750 2975 4387 
Q 3406 4025 3406 3419 
Q 3406 3131 3298 2873 
Q 3191 2616 2906 2266 
Q 2828 2175 2409 1742 
Q 1991 1309 1228 531 
z
" transform="scale(0.015625)"/>
       </defs>
       <use xlink:href="#DejaVuSans-31"/>
       <use xlink:href="#DejaVuSans-2e" x="63.623047"/>
       <use xlink:href="#DejaVuSans-32" x="95.410156"/>
      </g>
     </g>
    </g>
   </g>
   <g id="matplotlib.axis_2">
    <g id="ytick_1">
     <g id="line2d_6">
      <defs>
       <path id="m6e2d177216" d="M 0 0 
L -3.5 0 
" style="stroke: #000000; stroke-width: 0.8"/>
      </defs>
      <g>
       <use xlink:href="#m6e2d177216" x="57.615" y="260.521875" style="stroke: #000000; stroke-width: 0.8"/>
      </g>
     </g>
     <g id="text_6">
      <!-- 0.0 -->
      <g transform="translate(34.711875 264.321094) scale(0.1 -0.1)">
       <use xlink:href="#DejaVuSans-30"/>
       <use xlink:href="#DejaVuSans-2e" x="63.623047"/>
       <use xlink:href="#DejaVuSans-30" x="95.410156"/>
      </g>
     </g>
    </g>
    <g id="ytick_2">
     <g id="line2d_7">
      <g>
       <use xlink:href="#m6e2d177216" x="57.615" y="232.248879" style="stroke: #000000; stroke-width: 0.8"/>
      </g>
     </g>
     <g id="text_7">
      <!-- 2.5 -->
      <g transform="translate(34.711875 236.048098) scale(0.1 -0.1)">
       <defs>
        <path id="DejaVuSans-35" d="M 691 4666 
L 3169 4666 
L 3169 4134 
L 1269 4134 
L 1269 2991 
Q 1406 3038 1543 3061 
Q 1681 3084 1819 3084 
Q 2600 3084 3056 2656 
Q 3513 2228 3513 1497 
Q 3513 744 3044 326 
Q 2575 -91 1722 -91 
Q 1428 -91 1123 -41 
Q 819 9 494 109 
L 494 744 
Q 775 591 1075 516 
Q 1375 441 1709 441 
Q 2250 441 2565 725 
Q 2881 1009 2881 1497 
Q 2881 1984 2565 2268 
Q 2250 2553 1709 2553 
Q 1456 2553 1204 2497 
Q 953 2441 691 2322 
L 691 4666 
z
" transform="scale(0.015625)"/>
       </defs>
       <use xlink:href="#DejaVuSans-32"/>
       <use xlink:href="#DejaVuSans-2e" x="63.623047"/>
       <use xlink:href="#DejaVuSans-35" x="95.410156"/>
      </g>
     </g>
    </g>
    <g id="ytick_3">
     <g id="line2d_8">
      <g>
       <use xlink:href="#m6e2d177216" x="57.615" y="203.975884" style="stroke: #000000; stroke-width: 0.8"/>
      </g>
     </g>
     <g id="text_8">
      <!-- 5.0 -->
      <g transform="translate(34.711875 207.775102) scale(0.1 -0.1)">
       <use xlink:href="#DejaVuSans-35"/>
       <use xlink:href="#DejaVuSans-2e" x="63.623047"/>
       <use xlink:href="#DejaVuSans-30" x="95.410156"/>
      </g>
     </g>
    </g>
    <g id="ytick_4">
     <g id="line2d_9">
      <g>
       <use xlink:href="#m6e2d177216" x="57.615" y="175.702888" style="stroke: #000000; stroke-width: 0.8"/>
      </g>
     </g>
     <g id="text_9">
      <!-- 7.5 -->
      <g transform="translate(34.711875 179.502107) scale(0.1 -0.1)">
       <defs>
        <path id="DejaVuSans-37" d="M 525 4666 
L 3525 4666 
L 3525 4397 
L 1831 0 
L 1172 0 
L 2766 4134 
L 525 4134 
L 525 4666 
z
" transform="scale(0.015625)"/>
       </defs>
       <use xlink:href="#DejaVuSans-37"/>
       <use xlink:href="#DejaVuSans-2e" x="63.623047"/>
       <use xlink:href="#DejaVuSans-35" x="95.410156"/>
      </g>
     </g>
    </g>
    <g id="ytick_5">
     <g id="line2d_10">
      <g>
       <use xlink:href="#m6e2d177216" x="57.615" y="147.429892" style="stroke: #000000; stroke-width: 0.8"/>
      </g>
     </g>
     <g id="text_10">
      <!-- 10.0 -->
      <g transform="translate(28.349375 151.229111) scale(0.1 -0.1)">
       <use xlink:href="#DejaVuSans-31"/>
       <use xlink:href="#DejaVuSans-30" x="63.623047"/>
       <use xlink:href="#DejaVuSans-2e" x="127.246094"/>
       <use xlink:href="#DejaVuSans-30" x="159.033203"/>
      </g>
     </g>
    </g>
    <g id="ytick_6">
     <g id="line2d_11">
      <g>
       <use xlink:href="#m6e2d177216" x="57.615" y="119.156896" style="stroke: #000000; stroke-width: 0.8"/>
      </g>
     </g>
     <g id="text_11">
      <!-- 12.5 -->
      <g transform="translate(28.349375 122.956115) scale(0.1 -0.1)">
       <use xlink:href="#DejaVuSans-31"/>
       <use xlink:href="#DejaVuSans-32" x="63.623047"/>
       <use xlink:href="#DejaVuSans-2e" x="127.246094"/>
       <use xlink:href="#DejaVuSans-35" x="159.033203"/>
      </g>
     </g>
    </g>
    <g id="ytick_7">
     <g id="line2d_12">
      <g>
       <use xlink:href="#m6e2d177216" x="57.615" y="90.883901" style="stroke: #000000; stroke-width: 0.8"/>
      </g>
     </g>
     <g id="text_12">
      <!-- 15.0 -->
      <g transform="translate(28.349375 94.68312) scale(0.1 -0.1)">
       <use xlink:href="#DejaVuSans-31"/>
       <use xlink:href="#DejaVuSans-35" x="63.623047"/>
       <use xlink:href="#DejaVuSans-2e" x="127.246094"/>
       <use xlink:href="#DejaVuSans-30" x="159.033203"/>
      </g>
     </g>
    </g>
    <g id="ytick_8">
     <g id="line2d_13">
      <g>
       <use xlink:href="#m6e2d177216" x="57.615" y="62.610905" style="stroke: #000000; stroke-width: 0.8"/>
      </g>
     </g>
     <g id="text_13">
      <!-- 17.5 -->
      <g transform="translate(28.349375 66.410124) scale(0.1 -0.1)">
       <use xlink:href="#DejaVuSans-31"/>
       <use xlink:href="#DejaVuSans-37" x="63.623047"/>
       <use xlink:href="#DejaVuSans-2e" x="127.246094"/>
       <use xlink:href="#DejaVuSans-35" x="159.033203"/>
      </g>
     </g>
    </g>
    <g id="ytick_9">
     <g id="line2d_14">
      <g>
       <use xlink:href="#m6e2d177216" x="57.615" y="34.337909" style="stroke: #000000; stroke-width: 0.8"/>
      </g>
     </g>
     <g id="text_14">
      <!-- 20.0 -->
      <g transform="translate(28.349375 38.137128) scale(0.1 -0.1)">
       <use xlink:href="#DejaVuSans-32"/>
       <use xlink:href="#DejaVuSans-30" x="63.623047"/>
       <use xlink:href="#DejaVuSans-2e" x="127.246094"/>
       <use xlink:href="#DejaVuSans-30" x="159.033203"/>
      </g>
     </g>
    </g>
    <g id="text_15">
     <!-- Fraction of cells -->
     <g transform="translate(21.437813 198.811719) rotate(-90) scale(0.14 -0.14)">
      <defs>
       <path id="DejaVuSans-46" d="M 628 4666 
L 3309 4666 
L 3309 4134 
L 1259 4134 
L 1259 2759 
L 3109 2759 
L 3109 2228 
L 1259 2228 
L 1259 0 
L 628 0 
L 628 4666 
z
" transform="scale(0.015625)"/>
       <path id="DejaVuSans-72" d="M 2631 2963 
Q 2534 3019 2420 3045 
Q 2306 3072 2169 3072 
Q 1681 3072 1420 2755 
Q 1159 2438 1159 1844 
L 1159 0 
L 581 0 
L 581 3500 
L 1159 3500 
L 1159 2956 
Q 1341 3275 1631 3429 
Q 1922 3584 2338 3584 
Q 2397 3584 2469 3576 
Q 2541 3569 2628 3553 
L 2631 2963 
z
" transform="scale(0.015625)"/>
       <path id="DejaVuSans-61" d="M 2194 1759 
Q 1497 1759 1228 1600 
Q 959 1441 959 1056 
Q 959 750 1161 570 
Q 1363 391 1709 391 
Q 2188 391 2477 730 
Q 2766 1069 2766 1631 
L 2766 1759 
L 2194 1759 
z
M 3341 1997 
L 3341 0 
L 2766 0 
L 2766 531 
Q 2569 213 2275 61 
Q 1981 -91 1556 -91 
Q 1019 -91 701 211 
Q 384 513 384 1019 
Q 384 1609 779 1909 
Q 1175 2209 1959 2209 
L 2766 2209 
L 2766 2266 
Q 2766 2663 2505 2880 
Q 2244 3097 1772 3097 
Q 1472 3097 1187 3025 
Q 903 2953 641 2809 
L 641 3341 
Q 956 3463 1253 3523 
Q 1550 3584 1831 3584 
Q 2591 3584 2966 3190 
Q 3341 2797 3341 1997 
z
" transform="scale(0.015625)"/>
       <path id="DejaVuSans-63" d="M 3122 3366 
L 3122 2828 
Q 2878 2963 2633 3030 
Q 2388 3097 2138 3097 
Q 1578 3097 1268 2742 
Q 959 2388 959 1747 
Q 959 1106 1268 751 
Q 1578 397 2138 397 
Q 2388 397 2633 464 
Q 2878 531 3122 666 
L 3122 134 
Q 2881 22 2623 -34 
Q 2366 -91 2075 -91 
Q 1284 -91 818 406 
Q 353 903 353 1747 
Q 353 2603 823 3093 
Q 1294 3584 2113 3584 
Q 2378 3584 2631 3529 
Q 2884 3475 3122 3366 
z
" transform="scale(0.015625)"/>
       <path id="DejaVuSans-74" d="M 1172 4494 
L 1172 3500 
L 2356 3500 
L 2356 3053 
L 1172 3053 
L 1172 1153 
Q 1172 725 1289 603 
Q 1406 481 1766 481 
L 2356 481 
L 2356 0 
L 1766 0 
Q 1100 0 847 248 
Q 594 497 594 1153 
L 594 3053 
L 172 3053 
L 172 3500 
L 594 3500 
L 594 4494 
L 1172 4494 
z
" transform="scale(0.015625)"/>
       <path id="DejaVuSans-69" d="M 603 3500 
L 1178 3500 
L 1178 0 
L 603 0 
L 603 3500 
z
M 603 4863 
L 1178 4863 
L 1178 4134 
L 603 4134 
L 603 4863 
z
" transform="scale(0.015625)"/>
       <path id="DejaVuSans-6f" d="M 1959 3097 
Q 1497 3097 1228 2736 
Q 959 2375 959 1747 
Q 959 1119 1226 758 
Q 1494 397 1959 397 
Q 2419 397 2687 759 
Q 2956 1122 2956 1747 
Q 2956 2369 2687 2733 
Q 2419 3097 1959 3097 
z
M 1959 3584 
Q 2709 3584 3137 3096 
Q 3566 2609 3566 1747 
Q 3566 888 3137 398 
Q 2709 -91 1959 -91 
Q 1206 -91 779 398 
Q 353 888 353 1747 
Q 353 2609 779 3096 
Q 1206 3584 1959 3584 
z
" transform="scale(0.015625)"/>
       <path id="DejaVuSans-6e" d="M 3513 2113 
L 3513 0 
L 2938 0 
L 2938 2094 
Q 2938 2591 2744 2837 
Q 2550 3084 2163 3084 
Q 1697 3084 1428 2787 
Q 1159 2491 1159 1978 
L 1159 0 
L 581 0 
L 581 3500 
L 1159 3500 
L 1159 2956 
Q 1366 3272 1645 3428 
Q 1925 3584 2291 3584 
Q 2894 3584 3203 3211 
Q 3513 2838 3513 2113 
z
" transform="scale(0.015625)"/>
       <path id="DejaVuSans-20" transform="scale(0.015625)"/>
       <path id="DejaVuSans-66" d="M 2375 4863 
L 2375 4384 
L 1825 4384 
Q 1516 4384 1395 4259 
Q 1275 4134 1275 3809 
L 1275 3500 
L 2222 3500 
L 2222 3053 
L 1275 3053 
L 1275 0 
L 697 0 
L 697 3053 
L 147 3053 
L 147 3500 
L 697 3500 
L 697 3744 
Q 697 4328 969 4595 
Q 1241 4863 1831 4863 
L 2375 4863 
z
" transform="scale(0.015625)"/>
       <path id="DejaVuSans-65" d="M 3597 1894 
L 3597 1613 
L 953 1613 
Q 991 1019 1311 708 
Q 1631 397 2203 397 
Q 2534 397 2845 478 
Q 3156 559 3463 722 
L 3463 178 
Q 3153 47 2828 -22 
Q 2503 -91 2169 -91 
Q 1331 -91 842 396 
Q 353 884 353 1716 
Q 353 2575 817 3079 
Q 1281 3584 2069 3584 
Q 2775 3584 3186 3129 
Q 3597 2675 3597 1894 
z
M 3022 2063 
Q 3016 2534 2758 2815 
Q 2500 3097 2075 3097 
Q 1594 3097 1305 2825 
Q 1016 2553 972 2059 
L 3022 2063 
z
" transform="scale(0.015625)"/>
       <path id="DejaVuSans-6c" d="M 603 4863 
L 1178 4863 
L 1178 0 
L 603 0 
L 603 4863 
z
" transform="scale(0.015625)"/>
       <path id="DejaVuSans-73" d="M 2834 3397 
L 2834 2853 
Q 2591 2978 2328 3040 
Q 2066 3103 1784 3103 
Q 1356 3103 1142 2972 
Q 928 2841 928 2578 
Q 928 2378 1081 2264 
Q 1234 2150 1697 2047 
L 1894 2003 
Q 2506 1872 2764 1633 
Q 3022 1394 3022 966 
Q 3022 478 2636 193 
Q 2250 -91 1575 -91 
Q 1294 -91 989 -36 
Q 684 19 347 128 
L 347 722 
Q 666 556 975 473 
Q 1284 391 1588 391 
Q 1994 391 2212 530 
Q 2431 669 2431 922 
Q 2431 1156 2273 1281 
Q 2116 1406 1581 1522 
L 1381 1569 
Q 847 1681 609 1914 
Q 372 2147 372 2553 
Q 372 3047 722 3315 
Q 1072 3584 1716 3584 
Q 2034 3584 2315 3537 
Q 2597 3491 2834 3397 
z
" transform="scale(0.015625)"/>
      </defs>
      <use xlink:href="#DejaVuSans-46"/>
      <use xlink:href="#DejaVuSans-72" x="50.269531"/>
      <use xlink:href="#DejaVuSans-61" x="91.382812"/>
      <use xlink:href="#DejaVuSans-63" x="152.662109"/>
      <use xlink:href="#DejaVuSans-74" x="207.642578"/>
      <use xlink:href="#DejaVuSans-69" x="246.851562"/>
      <use xlink:href="#DejaVuSans-6f" x="274.634766"/>
      <use xlink:href="#DejaVuSans-6e" x="335.816406"/>
      <use xlink:href="#DejaVuSans-20" x="399.195312"/>
      <use xlink:href="#DejaVuSans-6f" x="430.982422"/>
      <use xlink:href="#DejaVuSans-66" x="492.164062"/>
      <use xlink:href="#DejaVuSans-20" x="527.369141"/>
      <use xlink:href="#DejaVuSans-63" x="559.15625"/>
      <use xlink:href="#DejaVuSans-65" x="614.136719"/>
      <use xlink:href="#DejaVuSans-6c" x="675.660156"/>
      <use xlink:href="#DejaVuSans-6c" x="703.443359"/>
      <use xlink:href="#DejaVuSans-73" x="731.226562"/>
     </g>
    </g>
   </g>
   <g id="line2d_15">
    <path d="M -1 260.521875 
L 0.063351 260.521875 
L 5.172317 260.521875 
L 10.281282 260.521869 
L 15.390247 260.521796 
L 20.499212 260.521017 
L 25.608177 260.514642 
L 30.717142 260.474066 
L 35.826108 260.272831 
L 40.935073 259.494493 
L 46.044038 257.149881 
L 51.153003 251.674407 
L 56.261968 241.858694 
L 61.370933 228.630897 
L 66.479899 215.89575 
L 71.588864 208.519626 
L 76.697829 208.616898 
L 81.806794 213.886777 
L 86.915759 219.8516 
L 92.024725 223.706602 
L 97.13369 225.994526 
L 102.242655 228.790195 
L 107.35162 232.869169 
L 112.460585 237.170805 
L 117.56955 240.5572 
L 122.678516 243.100151 
L 127.787481 245.558555 
L 132.896446 248.274407 
L 138.005411 250.907682 
L 143.114376 253.045516 
L 148.223341 254.708653 
L 153.332307 256.112813 
L 158.441272 257.21281 
L 163.550237 257.819322 
L 168.659202 258.052459 
L 173.768167 258.330308 
L 178.877132 258.88923 
L 183.986098 259.569077 
L 189.095063 260.096683 
L 194.204028 260.377894 
L 199.312993 260.484967 
L 204.421958 260.514719 
L 209.530923 260.520826 
L 214.639889 260.521759 
L 219.748854 260.521865 
L 224.857819 260.521874 
L 229.966784 260.521875 
L 235.075749 260.521875 
L 240.184715 260.521875 
L 245.29368 260.521875 
L 250.402645 260.521875 
L 255.51161 260.521875 
L 260.620575 260.521875 
L 265.72954 260.521875 
L 270.838506 260.521875 
L 275.947471 260.521875 
L 281.056436 260.521875 
L 286.165401 260.521875 
L 291.274366 260.521875 
L 296.383331 260.521875 
L 301.492297 260.521875 
L 306.601262 260.521875 
L 311.710227 260.521875 
L 316.819192 260.521875 
L 321.928157 260.521875 
L 327.037122 260.521875 
L 332.146088 260.521875 
L 337.255053 260.521875 
L 342.364018 260.521875 
L 347.472983 260.521875 
L 352.581948 260.521875 
L 357.690913 260.521875 
L 362.799879 260.521875 
L 367.908844 260.521875 
L 373.017809 260.521875 
L 378.126774 260.521875 
L 383.235739 260.521875 
L 388.344705 260.521875 
L 393.45367 260.521875 
L 398.562635 260.521875 
L 403.6716 260.521875 
L 408.780565 260.521875 
L 413.88953 260.521875 
L 418.998496 260.521875 
L 424.107461 260.521875 
L 429.216426 260.521875 
L 434.325391 260.521875 
L 439.434356 260.521875 
L 444.543321 260.521875 
L 449.652287 260.521875 
L 454.761252 260.521875 
L 459.870217 260.521875 
L 464.979182 260.521875 
L 470.088147 260.521875 
L 475.197112 260.521875 
L 480.306078 260.521875 
" clip-path="url(#pb9f6da4434)" style="fill: none; stroke: #808080; stroke-width: 1.5; stroke-linecap: square"/>
   </g>
   <g id="line2d_16">
    <path d="M -1 260.520865 
L 0.063351 260.520717 
L 5.172317 260.519025 
L 10.281282 260.515187 
L 15.390247 260.506908 
L 20.499212 260.489919 
L 25.608177 260.456759 
L 30.717142 260.395195 
L 35.826108 260.286478 
L 40.935073 260.103883 
L 46.044038 259.812227 
L 51.153003 259.369236 
L 56.261968 258.729504 
L 61.370933 257.851299 
L 66.479899 256.705557 
L 71.588864 255.285389 
L 76.697829 253.613579 
L 81.806794 251.74546 
L 86.915759 249.765418 
L 92.024725 247.776971 
L 97.13369 245.888383 
L 102.242655 244.19723 
L 107.35162 242.777644 
L 112.460585 241.672876 
L 117.56955 240.893973 
L 122.678516 240.423476 
L 127.787481 240.222091 
L 132.896446 240.236458 
L 138.005411 240.407096 
L 143.114376 240.676469 
L 148.223341 240.997234 
L 153.332307 241.339922 
L 158.441272 241.698219 
L 163.550237 242.089543 
L 168.659202 242.549482 
L 173.768167 243.120679 
L 178.877132 243.839018 
L 183.986098 244.721311 
L 189.095063 245.758218 
L 194.204028 246.914174 
L 199.312993 248.133539 
L 204.421958 249.350377 
L 209.530923 250.498865 
L 214.639889 251.522219 
L 219.748854 252.379317 
L 224.857819 253.049034 
L 229.966784 253.532328 
L 235.075749 253.851661 
L 240.184715 254.047198 
L 245.29368 254.169735 
L 250.402645 254.271527 
L 255.51161 254.39726 
L 260.620575 254.577707 
L 265.72954 254.8277 
L 270.838506 255.148365 
L 275.947471 255.531925 
L 281.056436 255.966657 
L 286.165401 256.440063 
L 291.274366 256.939622 
L 296.383331 257.451912 
L 301.492297 257.96156 
L 306.601262 258.451317 
L 311.710227 258.90366 
L 316.819192 259.303397 
L 321.928157 259.6402 
L 327.037122 259.910107 
L 332.146088 260.11551 
L 337.255053 260.263817 
L 342.364018 260.365367 
L 347.472983 260.431296 
L 352.581948 260.471882 
L 357.690913 260.495575 
L 362.799879 260.508692 
L 367.908844 260.515581 
L 373.017809 260.519014 
L 378.126774 260.520637 
L 383.235739 260.521365 
L 388.344705 260.521675 
L 393.45367 260.5218 
L 398.562635 260.521849 
L 403.6716 260.521866 
L 408.780565 260.521872 
L 413.88953 260.521874 
L 418.998496 260.521875 
L 424.107461 260.521875 
L 429.216426 260.521875 
L 434.325391 260.521875 
L 439.434356 260.521875 
L 444.543321 260.521875 
L 449.652287 260.521875 
L 454.761252 260.521875 
L 459.870217 260.521875 
L 464.979182 260.521875 
L 470.088147 260.521875 
L 475.197112 260.521875 
L 480.306078 260.521875 
" clip-path="url(#pb9f6da4434)" style="fill: none; stroke: #808080; stroke-width: 1.5; stroke-linecap: square"/>
   </g>
   <g id="line2d_17">
    <path d="M -1 260.521875 
L 0.063351 260.521875 
L 5.172317 260.521875 
L 10.281282 260.521874 
L 15.390247 260.521868 
L 20.499212 260.521807 
L 25.608177 260.521298 
L 30.717142 260.517883 
L 35.826108 260.499176 
L 40.935073 260.415517 
L 46.044038 260.109459 
L 51.153003 259.191297 
L 56.261968 256.926692 
L 61.370933 252.32393 
L 66.479899 244.609629 
L 71.588864 233.98499 
L 76.697829 222.115385 
L 81.806794 211.742233 
L 86.915759 205.426833 
L 92.024725 204.290454 
L 97.13369 207.744099 
L 102.242655 214.253671 
L 107.35162 222.208818 
L 112.460585 230.20788 
L 117.56955 237.064204 
L 122.678516 242.059789 
L 127.787481 245.263948 
L 132.896446 247.386912 
L 138.005411 249.201814 
L 143.114376 251.100129 
L 148.223341 253.070262 
L 153.332307 254.867902 
L 158.441272 256.152649 
L 163.550237 256.654897 
L 168.659202 256.414482 
L 173.768167 255.88125 
L 178.877132 255.676466 
L 183.986098 256.164592 
L 189.095063 257.230357 
L 194.204028 258.449425 
L 199.312993 259.437322 
L 204.421958 260.051074 
L 209.530923 260.352731 
L 214.639889 260.471717 
L 219.748854 260.509633 
L 224.857819 260.519423 
L 229.966784 260.521473 
L 235.075749 260.521821 
L 240.184715 260.521869 
L 245.29368 260.521874 
L 250.402645 260.521875 
L 255.51161 260.521875 
L 260.620575 260.521875 
L 265.72954 260.521875 
L 270.838506 260.521875 
L 275.947471 260.521875 
L 281.056436 260.521875 
L 286.165401 260.521875 
L 291.274366 260.521875 
L 296.383331 260.521875 
L 301.492297 260.521875 
L 306.601262 260.521875 
L 311.710227 260.521875 
L 316.819192 260.521875 
L 321.928157 260.521875 
L 327.037122 260.521875 
L 332.146088 260.521875 
L 337.255053 260.521875 
L 342.364018 260.521875 
L 347.472983 260.521875 
L 352.581948 260.521875 
L 357.690913 260.521875 
L 362.799879 260.521875 
L 367.908844 260.521875 
L 373.017809 260.521875 
L 378.126774 260.521875 
L 383.235739 260.521875 
L 388.344705 260.521875 
L 393.45367 260.521875 
L 398.562635 260.521875 
L 403.6716 260.521875 
L 408.780565 260.521875 
L 413.88953 260.521875 
L 418.998496 260.521875 
L 424.107461 260.521875 
L 429.216426 260.521875 
L 434.325391 260.521875 
L 439.434356 260.521875 
L 444.543321 260.521875 
L 449.652287 260.521875 
L 454.761252 260.521875 
L 459.870217 260.521875 
L 464.979182 260.521875 
L 470.088147 260.521875 
L 475.197112 260.521875 
L 480.306078 260.521875 
" clip-path="url(#pb9f6da4434)" style="fill: none; stroke: #808080; stroke-width: 1.5; stroke-linecap: square"/>
   </g>
   <g id="patch_63">
    <path d="M 57.615 260.521875 
L 57.615 27.437812 
" style="fill: none; stroke: #000000; stroke-width: 0.8; stroke-linejoin: miter; stroke-linecap: square"/>
   </g>
   <g id="patch_64">
    <path d="M 295.482813 260.521875 
L 295.482813 27.437812 
" style="fill: none; stroke: #000000; stroke-width: 0.8; stroke-linejoin: miter; stroke-linecap: square"/>
   </g>
   <g id="patch_65">
    <path d="M 57.615 260.521875 
L 295.482812 260.521875 
" style="fill: none; stroke: #000000; stroke-width: 0.8; stroke-linejoin: miter; stroke-linecap: square"/>
   </g>
   <g id="patch_66">
    <path d="M 57.615 27.437812 
L 295.482812 27.437812 
" style="fill: none; stroke: #000000; stroke-width: 0.8; stroke-linejoin: miter; stroke-linecap: square"/>
   </g>
   <g id="text_16">
    <!-- SRV -->
    <g transform="translate(162.837656 21.437813) scale(0.14 -0.14)">
     <defs>
      <path id="DejaVuSans-53" d="M 3425 4513 
L 3425 3897 
Q 3066 4069 2747 4153 
Q 2428 4238 2131 4238 
Q 1616 4238 1336 4038 
Q 1056 3838 1056 3469 
Q 1056 3159 1242 3001 
Q 1428 2844 1947 2747 
L 2328 2669 
Q 3034 2534 3370 2195 
Q 3706 1856 3706 1288 
Q 3706 609 3251 259 
Q 2797 -91 1919 -91 
Q 1588 -91 1214 -16 
Q 841 59 441 206 
L 441 856 
Q 825 641 1194 531 
Q 1563 422 1919 422 
Q 2459 422 2753 634 
Q 3047 847 3047 1241 
Q 3047 1584 2836 1778 
Q 2625 1972 2144 2069 
L 1759 2144 
Q 1053 2284 737 2584 
Q 422 2884 422 3419 
Q 422 4038 858 4394 
Q 1294 4750 2059 4750 
Q 2388 4750 2728 4690 
Q 3069 4631 3425 4513 
z
" transform="scale(0.015625)"/>
      <path id="DejaVuSans-52" d="M 2841 2188 
Q 3044 2119 3236 1894 
Q 3428 1669 3622 1275 
L 4263 0 
L 3584 0 
L 2988 1197 
Q 2756 1666 2539 1819 
Q 2322 1972 1947 1972 
L 1259 1972 
L 1259 0 
L 628 0 
L 628 4666 
L 2053 4666 
Q 2853 4666 3247 4331 
Q 3641 3997 3641 3322 
Q 3641 2881 3436 2590 
Q 3231 2300 2841 2188 
z
M 1259 4147 
L 1259 2491 
L 2053 2491 
Q 2509 2491 2742 2702 
Q 2975 2913 2975 3322 
Q 2975 3731 2742 3939 
Q 2509 4147 2053 4147 
L 1259 4147 
z
" transform="scale(0.015625)"/>
      <path id="DejaVuSans-56" d="M 1831 0 
L 50 4666 
L 709 4666 
L 2188 738 
L 3669 4666 
L 4325 4666 
L 2547 0 
L 1831 0 
z
" transform="scale(0.015625)"/>
     </defs>
     <use xlink:href="#DejaVuSans-53"/>
     <use xlink:href="#DejaVuSans-52" x="63.476562"/>
     <use xlink:href="#DejaVuSans-56" x="127.458984"/>
    </g>
   </g>
   <g id="legend_1">
    <g id="patch_67">
     <path d="M 207.093438 89.879062 
L 287.082813 89.879062 
Q 289.482813 89.879062 289.482813 87.479062 
L 289.482813 35.837812 
Q 289.482813 33.437812 287.082813 33.437812 
L 207.093438 33.437812 
Q 204.693438 33.437812 204.693438 35.837812 
L 204.693438 87.479062 
Q 204.693438 89.879062 207.093438 89.879062 
z
" style="fill: #ffffff; opacity: 0.8; stroke: #cccccc; stroke-linejoin: miter"/>
    </g>
    <g id="patch_68">
     <path d="M 209.493438 47.355937 
L 233.493438 47.355937 
L 233.493438 38.955937 
L 209.493438 38.955937 
z
" style="fill: #1f77b4; opacity: 0.4"/>
    </g>
    <g id="text_17">
     <!-- control -->
     <g transform="translate(243.093438 47.355937) scale(0.12 -0.12)">
      <use xlink:href="#DejaVuSans-63"/>
      <use xlink:href="#DejaVuSans-6f" x="54.980469"/>
      <use xlink:href="#DejaVuSans-6e" x="116.162109"/>
      <use xlink:href="#DejaVuSans-74" x="179.541016"/>
      <use xlink:href="#DejaVuSans-72" x="218.75"/>
      <use xlink:href="#DejaVuSans-6f" x="257.613281"/>
      <use xlink:href="#DejaVuSans-6c" x="318.794922"/>
     </g>
    </g>
    <g id="patch_69">
     <path d="M 209.493438 64.969687 
L 233.493438 64.969687 
L 233.493438 56.569687 
L 209.493438 56.569687 
z
" style="fill: #ff7f0e; opacity: 0.4"/>
    </g>
    <g id="text_18">
     <!-- cytd -->
     <g transform="translate(243.093438 64.969687) scale(0.12 -0.12)">
      <defs>
       <path id="DejaVuSans-79" d="M 2059 -325 
Q 1816 -950 1584 -1140 
Q 1353 -1331 966 -1331 
L 506 -1331 
L 506 -850 
L 844 -850 
Q 1081 -850 1212 -737 
Q 1344 -625 1503 -206 
L 1606 56 
L 191 3500 
L 800 3500 
L 1894 763 
L 2988 3500 
L 3597 3500 
L 2059 -325 
z
" transform="scale(0.015625)"/>
       <path id="DejaVuSans-64" d="M 2906 2969 
L 2906 4863 
L 3481 4863 
L 3481 0 
L 2906 0 
L 2906 525 
Q 2725 213 2448 61 
Q 2172 -91 1784 -91 
Q 1150 -91 751 415 
Q 353 922 353 1747 
Q 353 2572 751 3078 
Q 1150 3584 1784 3584 
Q 2172 3584 2448 3432 
Q 2725 3281 2906 2969 
z
M 947 1747 
Q 947 1113 1208 752 
Q 1469 391 1925 391 
Q 2381 391 2643 752 
Q 2906 1113 2906 1747 
Q 2906 2381 2643 2742 
Q 2381 3103 1925 3103 
Q 1469 3103 1208 2742 
Q 947 2381 947 1747 
z
" transform="scale(0.015625)"/>
      </defs>
      <use xlink:href="#DejaVuSans-63"/>
      <use xlink:href="#DejaVuSans-79" x="54.980469"/>
      <use xlink:href="#DejaVuSans-74" x="114.160156"/>
      <use xlink:href="#DejaVuSans-64" x="153.369141"/>
     </g>
    </g>
    <g id="patch_70">
     <path d="M 209.493438 82.583437 
L 233.493438 82.583437 
L 233.493438 74.183437 
L 209.493438 74.183437 
z
" style="fill: #2ca02c; opacity: 0.4"/>
    </g>
    <g id="text_19">
     <!-- jasp -->
     <g transform="translate(243.093438 82.583437) scale(0.12 -0.12)">
      <defs>
       <path id="DejaVuSans-6a" d="M 603 3500 
L 1178 3500 
L 1178 -63 
Q 1178 -731 923 -1031 
Q 669 -1331 103 -1331 
L -116 -1331 
L -116 -844 
L 38 -844 
Q 366 -844 484 -692 
Q 603 -541 603 -63 
L 603 3500 
z
M 603 4863 
L 1178 4863 
L 1178 4134 
L 603 4134 
L 603 4863 
z
" transform="scale(0.015625)"/>
       <path id="DejaVuSans-70" d="M 1159 525 
L 1159 -1331 
L 581 -1331 
L 581 3500 
L 1159 3500 
L 1159 2969 
Q 1341 3281 1617 3432 
Q 1894 3584 2278 3584 
Q 2916 3584 3314 3078 
Q 3713 2572 3713 1747 
Q 3713 922 3314 415 
Q 2916 -91 2278 -91 
Q 1894 -91 1617 61 
Q 1341 213 1159 525 
z
M 3116 1747 
Q 3116 2381 2855 2742 
Q 2594 3103 2138 3103 
Q 1681 3103 1420 2742 
Q 1159 2381 1159 1747 
Q 1159 1113 1420 752 
Q 1681 391 2138 391 
Q 2594 391 2855 752 
Q 3116 1113 3116 1747 
z
" transform="scale(0.015625)"/>
      </defs>
      <use xlink:href="#DejaVuSans-6a"/>
      <use xlink:href="#DejaVuSans-61" x="27.783203"/>
      <use xlink:href="#DejaVuSans-73" x="89.0625"/>
      <use xlink:href="#DejaVuSans-70" x="141.162109"/>
     </g>
    </g>
   </g>
  </g>
  <g id="axes_2">
   <g id="patch_71">
    <path d="M 327.332187 260.521875 
L 565.2 260.521875 
L 565.2 27.437812 
L 327.332187 27.437812 
z
" style="fill: #ffffff"/>
   </g>
   <g id="patch_72">
    <path d="M 373.398013 260.521875 
L 378.935822 260.521875 
L 378.935822 138.203708 
L 373.398013 138.203708 
z
" clip-path="url(#pa31f07c4a5)" style="fill: #1f77b4; opacity: 0.4"/>
   </g>
   <g id="patch_73">
    <path d="M 378.935822 260.521875 
L 384.47363 260.521875 
L 384.47363 38.537054 
L 378.935822 38.537054 
z
" clip-path="url(#pa31f07c4a5)" style="fill: #1f77b4; opacity: 0.4"/>
   </g>
   <g id="patch_74">
    <path d="M 384.47363 260.521875 
L 390.011438 260.521875 
L 390.011438 169.915825 
L 384.47363 169.915825 
z
" clip-path="url(#pa31f07c4a5)" style="fill: #1f77b4; opacity: 0.4"/>
   </g>
   <g id="patch_75">
    <path d="M 390.011438 260.521875 
L 395.549246 260.521875 
L 395.549246 246.930968 
L 390.011438 246.930968 
z
" clip-path="url(#pa31f07c4a5)" style="fill: #1f77b4; opacity: 0.4"/>
   </g>
   <g id="patch_76">
    <path d="M 395.549246 260.521875 
L 401.087054 260.521875 
L 401.087054 228.809758 
L 395.549246 228.809758 
z
" clip-path="url(#pa31f07c4a5)" style="fill: #1f77b4; opacity: 0.4"/>
   </g>
   <g id="patch_77">
    <path d="M 401.087054 260.521875 
L 406.624863 260.521875 
L 406.624863 246.930968 
L 401.087054 246.930968 
z
" clip-path="url(#pa31f07c4a5)" style="fill: #1f77b4; opacity: 0.4"/>
   </g>
   <g id="patch_78">
    <path d="M 406.624863 260.521875 
L 412.162671 260.521875 
L 412.162671 251.46127 
L 406.624863 251.46127 
z
" clip-path="url(#pa31f07c4a5)" style="fill: #1f77b4; opacity: 0.4"/>
   </g>
   <g id="patch_79">
    <path d="M 412.162671 260.521875 
L 417.700479 260.521875 
L 417.700479 255.991573 
L 412.162671 255.991573 
z
" clip-path="url(#pa31f07c4a5)" style="fill: #1f77b4; opacity: 0.4"/>
   </g>
   <g id="patch_80">
    <path d="M 417.700479 260.521875 
L 423.238287 260.521875 
L 423.238287 260.521875 
L 417.700479 260.521875 
z
" clip-path="url(#pa31f07c4a5)" style="fill: #1f77b4; opacity: 0.4"/>
   </g>
   <g id="patch_81">
    <path d="M 423.238287 260.521875 
L 428.776095 260.521875 
L 428.776095 260.521875 
L 423.238287 260.521875 
z
" clip-path="url(#pa31f07c4a5)" style="fill: #1f77b4; opacity: 0.4"/>
   </g>
   <g id="patch_82">
    <path d="M 428.776095 260.521875 
L 434.313903 260.521875 
L 434.313903 255.991573 
L 428.776095 255.991573 
z
" clip-path="url(#pa31f07c4a5)" style="fill: #1f77b4; opacity: 0.4"/>
   </g>
   <g id="patch_83">
    <path d="M 434.313903 260.521875 
L 439.851712 260.521875 
L 439.851712 260.521875 
L 434.313903 260.521875 
z
" clip-path="url(#pa31f07c4a5)" style="fill: #1f77b4; opacity: 0.4"/>
   </g>
   <g id="patch_84">
    <path d="M 439.851712 260.521875 
L 445.38952 260.521875 
L 445.38952 260.521875 
L 439.851712 260.521875 
z
" clip-path="url(#pa31f07c4a5)" style="fill: #1f77b4; opacity: 0.4"/>
   </g>
   <g id="patch_85">
    <path d="M 445.38952 260.521875 
L 450.927328 260.521875 
L 450.927328 260.521875 
L 445.38952 260.521875 
z
" clip-path="url(#pa31f07c4a5)" style="fill: #1f77b4; opacity: 0.4"/>
   </g>
   <g id="patch_86">
    <path d="M 450.927328 260.521875 
L 456.465136 260.521875 
L 456.465136 260.521875 
L 450.927328 260.521875 
z
" clip-path="url(#pa31f07c4a5)" style="fill: #1f77b4; opacity: 0.4"/>
   </g>
   <g id="patch_87">
    <path d="M 456.465136 260.521875 
L 462.002944 260.521875 
L 462.002944 260.521875 
L 456.465136 260.521875 
z
" clip-path="url(#pa31f07c4a5)" style="fill: #1f77b4; opacity: 0.4"/>
   </g>
   <g id="patch_88">
    <path d="M 462.002944 260.521875 
L 467.540753 260.521875 
L 467.540753 260.521875 
L 462.002944 260.521875 
z
" clip-path="url(#pa31f07c4a5)" style="fill: #1f77b4; opacity: 0.4"/>
   </g>
   <g id="patch_89">
    <path d="M 467.540753 260.521875 
L 473.078561 260.521875 
L 473.078561 260.521875 
L 467.540753 260.521875 
z
" clip-path="url(#pa31f07c4a5)" style="fill: #1f77b4; opacity: 0.4"/>
   </g>
   <g id="patch_90">
    <path d="M 473.078561 260.521875 
L 478.616369 260.521875 
L 478.616369 260.521875 
L 473.078561 260.521875 
z
" clip-path="url(#pa31f07c4a5)" style="fill: #1f77b4; opacity: 0.4"/>
   </g>
   <g id="patch_91">
    <path d="M 478.616369 260.521875 
L 484.154177 260.521875 
L 484.154177 255.991573 
L 478.616369 255.991573 
z
" clip-path="url(#pa31f07c4a5)" style="fill: #1f77b4; opacity: 0.4"/>
   </g>
   <g id="patch_92">
    <path d="M 377.4582 260.521875 
L 381.818095 260.521875 
L 381.818095 211.322996 
L 377.4582 211.322996 
z
" clip-path="url(#pa31f07c4a5)" style="fill: #ff7f0e; opacity: 0.4"/>
   </g>
   <g id="patch_93">
    <path d="M 381.818095 260.521875 
L 386.17799 260.521875 
L 386.17799 211.322996 
L 381.818095 211.322996 
z
" clip-path="url(#pa31f07c4a5)" style="fill: #ff7f0e; opacity: 0.4"/>
   </g>
   <g id="patch_94">
    <path d="M 386.17799 260.521875 
L 390.537885 260.521875 
L 390.537885 194.92337 
L 386.17799 194.92337 
z
" clip-path="url(#pa31f07c4a5)" style="fill: #ff7f0e; opacity: 0.4"/>
   </g>
   <g id="patch_95">
    <path d="M 390.537885 260.521875 
L 394.89778 260.521875 
L 394.89778 211.322996 
L 390.537885 211.322996 
z
" clip-path="url(#pa31f07c4a5)" style="fill: #ff7f0e; opacity: 0.4"/>
   </g>
   <g id="patch_96">
    <path d="M 394.89778 260.521875 
L 399.257675 260.521875 
L 399.257675 211.322996 
L 394.89778 211.322996 
z
" clip-path="url(#pa31f07c4a5)" style="fill: #ff7f0e; opacity: 0.4"/>
   </g>
   <g id="patch_97">
    <path d="M 399.257675 260.521875 
L 403.61757 260.521875 
L 403.61757 219.52281 
L 399.257675 219.52281 
z
" clip-path="url(#pa31f07c4a5)" style="fill: #ff7f0e; opacity: 0.4"/>
   </g>
   <g id="patch_98">
    <path d="M 403.61757 260.521875 
L 407.977465 260.521875 
L 407.977465 186.723557 
L 403.61757 186.723557 
z
" clip-path="url(#pa31f07c4a5)" style="fill: #ff7f0e; opacity: 0.4"/>
   </g>
   <g id="patch_99">
    <path d="M 407.977465 260.521875 
L 412.33736 260.521875 
L 412.33736 186.723557 
L 407.977465 186.723557 
z
" clip-path="url(#pa31f07c4a5)" style="fill: #ff7f0e; opacity: 0.4"/>
   </g>
   <g id="patch_100">
    <path d="M 412.33736 260.521875 
L 416.697254 260.521875 
L 416.697254 227.722623 
L 412.33736 227.722623 
z
" clip-path="url(#pa31f07c4a5)" style="fill: #ff7f0e; opacity: 0.4"/>
   </g>
   <g id="patch_101">
    <path d="M 416.697254 260.521875 
L 421.057149 260.521875 
L 421.057149 219.52281 
L 416.697254 219.52281 
z
" clip-path="url(#pa31f07c4a5)" style="fill: #ff7f0e; opacity: 0.4"/>
   </g>
   <g id="patch_102">
    <path d="M 421.057149 260.521875 
L 425.417044 260.521875 
L 425.417044 244.122249 
L 421.057149 244.122249 
z
" clip-path="url(#pa31f07c4a5)" style="fill: #ff7f0e; opacity: 0.4"/>
   </g>
   <g id="patch_103">
    <path d="M 425.417044 260.521875 
L 429.776939 260.521875 
L 429.776939 227.722623 
L 425.417044 227.722623 
z
" clip-path="url(#pa31f07c4a5)" style="fill: #ff7f0e; opacity: 0.4"/>
   </g>
   <g id="patch_104">
    <path d="M 429.776939 260.521875 
L 434.136834 260.521875 
L 434.136834 235.922436 
L 429.776939 235.922436 
z
" clip-path="url(#pa31f07c4a5)" style="fill: #ff7f0e; opacity: 0.4"/>
   </g>
   <g id="patch_105">
    <path d="M 434.136834 260.521875 
L 438.496729 260.521875 
L 438.496729 244.122249 
L 434.136834 244.122249 
z
" clip-path="url(#pa31f07c4a5)" style="fill: #ff7f0e; opacity: 0.4"/>
   </g>
   <g id="patch_106">
    <path d="M 438.496729 260.521875 
L 442.856624 260.521875 
L 442.856624 260.521875 
L 438.496729 260.521875 
z
" clip-path="url(#pa31f07c4a5)" style="fill: #ff7f0e; opacity: 0.4"/>
   </g>
   <g id="patch_107">
    <path d="M 442.856624 260.521875 
L 447.216519 260.521875 
L 447.216519 252.322062 
L 442.856624 252.322062 
z
" clip-path="url(#pa31f07c4a5)" style="fill: #ff7f0e; opacity: 0.4"/>
   </g>
   <g id="patch_108">
    <path d="M 447.216519 260.521875 
L 451.576414 260.521875 
L 451.576414 252.322062 
L 447.216519 252.322062 
z
" clip-path="url(#pa31f07c4a5)" style="fill: #ff7f0e; opacity: 0.4"/>
   </g>
   <g id="patch_109">
    <path d="M 451.576414 260.521875 
L 455.936309 260.521875 
L 455.936309 260.521875 
L 451.576414 260.521875 
z
" clip-path="url(#pa31f07c4a5)" style="fill: #ff7f0e; opacity: 0.4"/>
   </g>
   <g id="patch_110">
    <path d="M 455.936309 260.521875 
L 460.296203 260.521875 
L 460.296203 244.122249 
L 455.936309 244.122249 
z
" clip-path="url(#pa31f07c4a5)" style="fill: #ff7f0e; opacity: 0.4"/>
   </g>
   <g id="patch_111">
    <path d="M 460.296203 260.521875 
L 464.656098 260.521875 
L 464.656098 252.322062 
L 460.296203 252.322062 
z
" clip-path="url(#pa31f07c4a5)" style="fill: #ff7f0e; opacity: 0.4"/>
   </g>
   <g id="patch_112">
    <path d="M 374.241961 260.521875 
L 377.671443 260.521875 
L 377.671443 99.111653 
L 374.241961 99.111653 
z
" clip-path="url(#pa31f07c4a5)" style="fill: #2ca02c; opacity: 0.4"/>
   </g>
   <g id="patch_113">
    <path d="M 377.671443 260.521875 
L 381.100925 260.521875 
L 381.100925 58.759097 
L 377.671443 58.759097 
z
" clip-path="url(#pa31f07c4a5)" style="fill: #2ca02c; opacity: 0.4"/>
   </g>
   <g id="patch_114">
    <path d="M 381.100925 260.521875 
L 384.530406 260.521875 
L 384.530406 152.91506 
L 381.100925 152.91506 
z
" clip-path="url(#pa31f07c4a5)" style="fill: #2ca02c; opacity: 0.4"/>
   </g>
   <g id="patch_115">
    <path d="M 384.530406 260.521875 
L 387.959888 260.521875 
L 387.959888 152.91506 
L 384.530406 152.91506 
z
" clip-path="url(#pa31f07c4a5)" style="fill: #2ca02c; opacity: 0.4"/>
   </g>
   <g id="patch_116">
    <path d="M 387.959888 260.521875 
L 391.389369 260.521875 
L 391.389369 247.071023 
L 387.959888 247.071023 
z
" clip-path="url(#pa31f07c4a5)" style="fill: #2ca02c; opacity: 0.4"/>
   </g>
   <g id="patch_117">
    <path d="M 391.389369 260.521875 
L 394.818851 260.521875 
L 394.818851 179.816764 
L 391.389369 179.816764 
z
" clip-path="url(#pa31f07c4a5)" style="fill: #2ca02c; opacity: 0.4"/>
   </g>
   <g id="patch_118">
    <path d="M 394.818851 260.521875 
L 398.248333 260.521875 
L 398.248333 260.521875 
L 394.818851 260.521875 
z
" clip-path="url(#pa31f07c4a5)" style="fill: #2ca02c; opacity: 0.4"/>
   </g>
   <g id="patch_119">
    <path d="M 398.248333 260.521875 
L 401.677814 260.521875 
L 401.677814 233.620171 
L 398.248333 233.620171 
z
" clip-path="url(#pa31f07c4a5)" style="fill: #2ca02c; opacity: 0.4"/>
   </g>
   <g id="patch_120">
    <path d="M 401.677814 260.521875 
L 405.107296 260.521875 
L 405.107296 247.071023 
L 401.677814 247.071023 
z
" clip-path="url(#pa31f07c4a5)" style="fill: #2ca02c; opacity: 0.4"/>
   </g>
   <g id="patch_121">
    <path d="M 405.107296 260.521875 
L 408.536777 260.521875 
L 408.536777 247.071023 
L 405.107296 247.071023 
z
" clip-path="url(#pa31f07c4a5)" style="fill: #2ca02c; opacity: 0.4"/>
   </g>
   <g id="patch_122">
    <path d="M 408.536777 260.521875 
L 411.966259 260.521875 
L 411.966259 233.620171 
L 408.536777 233.620171 
z
" clip-path="url(#pa31f07c4a5)" style="fill: #2ca02c; opacity: 0.4"/>
   </g>
   <g id="patch_123">
    <path d="M 411.966259 260.521875 
L 415.395741 260.521875 
L 415.395741 247.071023 
L 411.966259 247.071023 
z
" clip-path="url(#pa31f07c4a5)" style="fill: #2ca02c; opacity: 0.4"/>
   </g>
   <g id="patch_124">
    <path d="M 415.395741 260.521875 
L 418.825222 260.521875 
L 418.825222 247.071023 
L 415.395741 247.071023 
z
" clip-path="url(#pa31f07c4a5)" style="fill: #2ca02c; opacity: 0.4"/>
   </g>
   <g id="patch_125">
    <path d="M 418.825222 260.521875 
L 422.254704 260.521875 
L 422.254704 260.521875 
L 418.825222 260.521875 
z
" clip-path="url(#pa31f07c4a5)" style="fill: #2ca02c; opacity: 0.4"/>
   </g>
   <g id="patch_126">
    <path d="M 422.254704 260.521875 
L 425.684186 260.521875 
L 425.684186 233.620171 
L 422.254704 233.620171 
z
" clip-path="url(#pa31f07c4a5)" style="fill: #2ca02c; opacity: 0.4"/>
   </g>
   <g id="patch_127">
    <path d="M 425.684186 260.521875 
L 429.113667 260.521875 
L 429.113667 260.521875 
L 425.684186 260.521875 
z
" clip-path="url(#pa31f07c4a5)" style="fill: #2ca02c; opacity: 0.4"/>
   </g>
   <g id="patch_128">
    <path d="M 429.113667 260.521875 
L 432.543149 260.521875 
L 432.543149 247.071023 
L 429.113667 247.071023 
z
" clip-path="url(#pa31f07c4a5)" style="fill: #2ca02c; opacity: 0.4"/>
   </g>
   <g id="patch_129">
    <path d="M 432.543149 260.521875 
L 435.97263 260.521875 
L 435.97263 260.521875 
L 432.543149 260.521875 
z
" clip-path="url(#pa31f07c4a5)" style="fill: #2ca02c; opacity: 0.4"/>
   </g>
   <g id="patch_130">
    <path d="M 435.97263 260.521875 
L 439.402112 260.521875 
L 439.402112 260.521875 
L 435.97263 260.521875 
z
" clip-path="url(#pa31f07c4a5)" style="fill: #2ca02c; opacity: 0.4"/>
   </g>
   <g id="patch_131">
    <path d="M 439.402112 260.521875 
L 442.831594 260.521875 
L 442.831594 247.071023 
L 439.402112 247.071023 
z
" clip-path="url(#pa31f07c4a5)" style="fill: #2ca02c; opacity: 0.4"/>
   </g>
   <g id="matplotlib.axis_3">
    <g id="xtick_6">
     <g id="line2d_18">
      <g>
       <use xlink:href="#m9ad6fc1d14" x="345.393223" y="260.521875" style="stroke: #000000; stroke-width: 0.8"/>
      </g>
     </g>
     <g id="text_20">
      <!-- 0.4 -->
      <g transform="translate(337.441661 275.120313) scale(0.1 -0.1)">
       <use xlink:href="#DejaVuSans-30"/>
       <use xlink:href="#DejaVuSans-2e" x="63.623047"/>
       <use xlink:href="#DejaVuSans-34" x="95.410156"/>
      </g>
     </g>
    </g>
    <g id="xtick_7">
     <g id="line2d_19">
      <g>
       <use xlink:href="#m9ad6fc1d14" x="395.971979" y="260.521875" style="stroke: #000000; stroke-width: 0.8"/>
      </g>
     </g>
     <g id="text_21">
      <!-- 0.6 -->
      <g transform="translate(388.020416 275.120313) scale(0.1 -0.1)">
       <use xlink:href="#DejaVuSans-30"/>
       <use xlink:href="#DejaVuSans-2e" x="63.623047"/>
       <use xlink:href="#DejaVuSans-36" x="95.410156"/>
      </g>
     </g>
    </g>
    <g id="xtick_8">
     <g id="line2d_20">
      <g>
       <use xlink:href="#m9ad6fc1d14" x="446.550734" y="260.521875" style="stroke: #000000; stroke-width: 0.8"/>
      </g>
     </g>
     <g id="text_22">
      <!-- 0.8 -->
      <g transform="translate(438.599171 275.120313) scale(0.1 -0.1)">
       <use xlink:href="#DejaVuSans-30"/>
       <use xlink:href="#DejaVuSans-2e" x="63.623047"/>
       <use xlink:href="#DejaVuSans-38" x="95.410156"/>
      </g>
     </g>
    </g>
    <g id="xtick_9">
     <g id="line2d_21">
      <g>
       <use xlink:href="#m9ad6fc1d14" x="497.129489" y="260.521875" style="stroke: #000000; stroke-width: 0.8"/>
      </g>
     </g>
     <g id="text_23">
      <!-- 1.0 -->
      <g transform="translate(489.177927 275.120313) scale(0.1 -0.1)">
       <use xlink:href="#DejaVuSans-31"/>
       <use xlink:href="#DejaVuSans-2e" x="63.623047"/>
       <use xlink:href="#DejaVuSans-30" x="95.410156"/>
      </g>
     </g>
    </g>
    <g id="xtick_10">
     <g id="line2d_22">
      <g>
       <use xlink:href="#m9ad6fc1d14" x="547.708244" y="260.521875" style="stroke: #000000; stroke-width: 0.8"/>
      </g>
     </g>
     <g id="text_24">
      <!-- 1.2 -->
      <g transform="translate(539.756682 275.120313) scale(0.1 -0.1)">
       <use xlink:href="#DejaVuSans-31"/>
       <use xlink:href="#DejaVuSans-2e" x="63.623047"/>
       <use xlink:href="#DejaVuSans-32" x="95.410156"/>
      </g>
     </g>
    </g>
   </g>
   <g id="matplotlib.axis_4">
    <g id="ytick_10">
     <g id="line2d_23">
      <g>
       <use xlink:href="#m6e2d177216" x="327.332187" y="260.521875" style="stroke: #000000; stroke-width: 0.8"/>
      </g>
     </g>
    </g>
    <g id="ytick_11">
     <g id="line2d_24">
      <g>
       <use xlink:href="#m6e2d177216" x="327.332187" y="232.248879" style="stroke: #000000; stroke-width: 0.8"/>
      </g>
     </g>
    </g>
    <g id="ytick_12">
     <g id="line2d_25">
      <g>
       <use xlink:href="#m6e2d177216" x="327.332187" y="203.975884" style="stroke: #000000; stroke-width: 0.8"/>
      </g>
     </g>
    </g>
    <g id="ytick_13">
     <g id="line2d_26">
      <g>
       <use xlink:href="#m6e2d177216" x="327.332187" y="175.702888" style="stroke: #000000; stroke-width: 0.8"/>
      </g>
     </g>
    </g>
    <g id="ytick_14">
     <g id="line2d_27">
      <g>
       <use xlink:href="#m6e2d177216" x="327.332187" y="147.429892" style="stroke: #000000; stroke-width: 0.8"/>
      </g>
     </g>
    </g>
    <g id="ytick_15">
     <g id="line2d_28">
      <g>
       <use xlink:href="#m6e2d177216" x="327.332187" y="119.156896" style="stroke: #000000; stroke-width: 0.8"/>
      </g>
     </g>
    </g>
    <g id="ytick_16">
     <g id="line2d_29">
      <g>
       <use xlink:href="#m6e2d177216" x="327.332187" y="90.883901" style="stroke: #000000; stroke-width: 0.8"/>
      </g>
     </g>
    </g>
    <g id="ytick_17">
     <g id="line2d_30">
      <g>
       <use xlink:href="#m6e2d177216" x="327.332187" y="62.610905" style="stroke: #000000; stroke-width: 0.8"/>
      </g>
     </g>
    </g>
    <g id="ytick_18">
     <g id="line2d_31">
      <g>
       <use xlink:href="#m6e2d177216" x="327.332187" y="34.337909" style="stroke: #000000; stroke-width: 0.8"/>
      </g>
     </g>
    </g>
    <g id="text_25">
     <!-- Fraction of cells -->
     <g transform="translate(316.920625 198.811719) rotate(-90) scale(0.14 -0.14)">
      <use xlink:href="#DejaVuSans-46"/>
      <use xlink:href="#DejaVuSans-72" x="50.269531"/>
      <use xlink:href="#DejaVuSans-61" x="91.382812"/>
      <use xlink:href="#DejaVuSans-63" x="152.662109"/>
      <use xlink:href="#DejaVuSans-74" x="207.642578"/>
      <use xlink:href="#DejaVuSans-69" x="246.851562"/>
      <use xlink:href="#DejaVuSans-6f" x="274.634766"/>
      <use xlink:href="#DejaVuSans-6e" x="335.816406"/>
      <use xlink:href="#DejaVuSans-20" x="399.195312"/>
      <use xlink:href="#DejaVuSans-6f" x="430.982422"/>
      <use xlink:href="#DejaVuSans-66" x="492.164062"/>
      <use xlink:href="#DejaVuSans-20" x="527.369141"/>
      <use xlink:href="#DejaVuSans-63" x="559.15625"/>
      <use xlink:href="#DejaVuSans-65" x="614.136719"/>
      <use xlink:href="#DejaVuSans-6c" x="675.660156"/>
      <use xlink:href="#DejaVuSans-6c" x="703.443359"/>
      <use xlink:href="#DejaVuSans-73" x="731.226562"/>
     </g>
    </g>
   </g>
   <g id="line2d_32">
    <path d="M 244.235713 260.521875 
L 249.344678 260.521875 
L 254.453643 260.521875 
L 259.562609 260.521875 
L 264.671574 260.521875 
L 269.780539 260.521875 
L 274.889504 260.521875 
L 279.998469 260.521875 
L 285.107434 260.521875 
L 290.2164 260.521875 
L 295.325365 260.521875 
L 300.43433 260.521875 
L 305.543295 260.521875 
L 310.65226 260.521875 
L 315.761225 260.521875 
L 320.870191 260.521875 
L 325.979156 260.521875 
L 331.088121 260.521875 
L 336.197086 260.521875 
L 341.306051 260.521875 
L 346.415016 260.521872 
L 351.523982 260.521383 
L 356.632947 260.489434 
L 361.741912 259.645814 
L 366.850877 250.378486 
L 371.959842 208.165988 
L 377.068808 135.110018 
L 382.177773 110.685125 
L 387.286738 159.352964 
L 392.395703 213.633947 
L 397.504668 235.749673 
L 402.613633 243.226962 
L 407.722599 250.172538 
L 412.831564 254.454586 
L 417.940529 257.019463 
L 423.049494 258.375653 
L 428.158459 258.37896 
L 433.267424 259.050202 
L 438.37639 260.127379 
L 443.485355 260.483655 
L 448.59432 260.520546 
L 453.703285 260.521858 
L 458.81225 260.521868 
L 463.921215 260.521237 
L 469.030181 260.499697 
L 474.139146 260.245344 
L 479.248111 259.285464 
L 484.357076 258.539542 
L 489.466041 259.38219 
L 494.575007 260.286918 
L 499.683972 260.504506 
L 504.792937 260.521415 
L 509.901902 260.521871 
L 515.010867 260.521875 
L 520.119832 260.521875 
L 525.228798 260.521875 
L 530.337763 260.521875 
L 535.446728 260.521875 
L 540.555693 260.521875 
L 545.664658 260.521875 
L 550.773623 260.521875 
L 555.882589 260.521875 
L 560.991554 260.521875 
L 566.100519 260.521875 
L 571.209484 260.521875 
L 576.318449 260.521875 
L 577 260.521875 
" clip-path="url(#pa31f07c4a5)" style="fill: none; stroke: #808080; stroke-width: 1.5; stroke-linecap: square"/>
   </g>
   <g id="line2d_33">
    <path d="M 244.235713 260.521875 
L 249.344678 260.521875 
L 254.453643 260.521875 
L 259.562609 260.521875 
L 264.671574 260.521875 
L 269.780539 260.521875 
L 274.889504 260.521875 
L 279.998469 260.521875 
L 285.107434 260.521875 
L 290.2164 260.521875 
L 295.325365 260.521875 
L 300.43433 260.521875 
L 305.543295 260.521875 
L 310.65226 260.521875 
L 315.761225 260.521875 
L 320.870191 260.521875 
L 325.979156 260.521875 
L 331.088121 260.521874 
L 336.197086 260.521854 
L 341.306051 260.521462 
L 346.415016 260.516362 
L 351.523982 260.470696 
L 356.632947 260.188579 
L 361.741912 258.978766 
L 366.850877 255.343047 
L 371.959842 247.587261 
L 377.068808 235.699064 
L 382.177773 222.617381 
L 387.286738 212.655948 
L 392.395703 207.89177 
L 397.504668 206.552138 
L 402.613633 206.266825 
L 407.722599 207.887207 
L 412.831564 213.336827 
L 417.940529 221.326526 
L 423.049494 228.900561 
L 428.158459 235.340371 
L 433.267424 241.476239 
L 438.37639 247.026303 
L 443.485355 250.89622 
L 448.59432 252.876812 
L 453.703285 253.73549 
L 458.81225 254.466143 
L 463.921215 255.755855 
L 469.030181 257.52132 
L 474.139146 259.094846 
L 479.248111 260.025538 
L 484.357076 260.398198 
L 489.466041 260.500118 
L 494.575007 260.519202 
L 499.683972 260.521647 
L 504.792937 260.521862 
L 509.901902 260.521874 
L 515.010867 260.521875 
L 520.119832 260.521875 
L 525.228798 260.521875 
L 530.337763 260.521875 
L 535.446728 260.521875 
L 540.555693 260.521875 
L 545.664658 260.521875 
L 550.773623 260.521875 
L 555.882589 260.521875 
L 560.991554 260.521875 
L 566.100519 260.521875 
L 571.209484 260.521875 
L 576.318449 260.521875 
L 577 260.521875 
" clip-path="url(#pa31f07c4a5)" style="fill: none; stroke: #808080; stroke-width: 1.5; stroke-linecap: square"/>
   </g>
   <g id="line2d_34">
    <path d="M 244.235713 260.521875 
L 249.344678 260.521875 
L 254.453643 260.521875 
L 259.562609 260.521875 
L 264.671574 260.521875 
L 269.780539 260.521875 
L 274.889504 260.521875 
L 279.998469 260.521875 
L 285.107434 260.521875 
L 290.2164 260.521875 
L 295.325365 260.521875 
L 300.43433 260.521875 
L 305.543295 260.521875 
L 310.65226 260.521875 
L 315.761225 260.521875 
L 320.870191 260.521875 
L 325.979156 260.521875 
L 331.088121 260.521875 
L 336.197086 260.521874 
L 341.306051 260.521835 
L 346.415016 260.520163 
L 351.523982 260.480412 
L 356.632947 259.950174 
L 361.741912 255.985918 
L 366.850877 239.509384 
L 371.959842 202.512367 
L 377.068808 162.121774 
L 382.177773 152.772244 
L 387.286738 177.481834 
L 392.395703 208.593507 
L 397.504668 228.962432 
L 402.613633 238.597029 
L 407.722599 242.478757 
L 412.831564 244.793715 
L 417.940529 247.11509 
L 423.049494 249.782075 
L 428.158459 252.821784 
L 433.267424 255.286893 
L 438.37639 256.494805 
L 443.485355 257.244568 
L 448.59432 258.535894 
L 453.703285 259.799831 
L 458.81225 260.374758 
L 463.921215 260.505369 
L 469.030181 260.52086 
L 474.139146 260.521841 
L 479.248111 260.521874 
L 484.357076 260.521875 
L 489.466041 260.521875 
L 494.575007 260.521875 
L 499.683972 260.521875 
L 504.792937 260.521875 
L 509.901902 260.521875 
L 515.010867 260.521875 
L 520.119832 260.521875 
L 525.228798 260.521875 
L 530.337763 260.521875 
L 535.446728 260.521875 
L 540.555693 260.521875 
L 545.664658 260.521875 
L 550.773623 260.521875 
L 555.882589 260.521875 
L 560.991554 260.521875 
L 566.100519 260.521875 
L 571.209484 260.521875 
L 576.318449 260.521875 
L 577 260.521875 
" clip-path="url(#pa31f07c4a5)" style="fill: none; stroke: #808080; stroke-width: 1.5; stroke-linecap: square"/>
   </g>
   <g id="patch_132">
    <path d="M 327.332187 260.521875 
L 327.332187 27.437812 
" style="fill: none; stroke: #000000; stroke-width: 0.8; stroke-linejoin: miter; stroke-linecap: square"/>
   </g>
   <g id="patch_133">
    <path d="M 565.2 260.521875 
L 565.2 27.437812 
" style="fill: none; stroke: #000000; stroke-width: 0.8; stroke-linejoin: miter; stroke-linecap: square"/>
   </g>
   <g id="patch_134">
    <path d="M 327.332187 260.521875 
L 565.2 260.521875 
" style="fill: none; stroke: #000000; stroke-width: 0.8; stroke-linejoin: miter; stroke-linecap: square"/>
   </g>
   <g id="patch_135">
    <path d="M 327.332187 27.437812 
L 565.2 27.437812 
" style="fill: none; stroke: #000000; stroke-width: 0.8; stroke-linejoin: miter; stroke-linecap: square"/>
   </g>
   <g id="text_26">
    <!-- Linear -->
    <g transform="translate(424.510312 21.437813) scale(0.14 -0.14)">
     <defs>
      <path id="DejaVuSans-4c" d="M 628 4666 
L 1259 4666 
L 1259 531 
L 3531 531 
L 3531 0 
L 628 0 
L 628 4666 
z
" transform="scale(0.015625)"/>
     </defs>
     <use xlink:href="#DejaVuSans-4c"/>
     <use xlink:href="#DejaVuSans-69" x="55.712891"/>
     <use xlink:href="#DejaVuSans-6e" x="83.496094"/>
     <use xlink:href="#DejaVuSans-65" x="146.875"/>
     <use xlink:href="#DejaVuSans-61" x="208.398438"/>
     <use xlink:href="#DejaVuSans-72" x="269.677734"/>
    </g>
   </g>
   <g id="legend_2">
    <g id="patch_136">
     <path d="M 476.810625 89.879062 
L 556.8 89.879062 
Q 559.2 89.879062 559.2 87.479062 
L 559.2 35.837812 
Q 559.2 33.437812 556.8 33.437812 
L 476.810625 33.437812 
Q 474.410625 33.437812 474.410625 35.837812 
L 474.410625 87.479062 
Q 474.410625 89.879062 476.810625 89.879062 
z
" style="fill: #ffffff; opacity: 0.8; stroke: #cccccc; stroke-linejoin: miter"/>
    </g>
    <g id="patch_137">
     <path d="M 479.210625 47.355937 
L 503.210625 47.355937 
L 503.210625 38.955937 
L 479.210625 38.955937 
z
" style="fill: #1f77b4; opacity: 0.4"/>
    </g>
    <g id="text_27">
     <!-- control -->
     <g transform="translate(512.810625 47.355937) scale(0.12 -0.12)">
      <use xlink:href="#DejaVuSans-63"/>
      <use xlink:href="#DejaVuSans-6f" x="54.980469"/>
      <use xlink:href="#DejaVuSans-6e" x="116.162109"/>
      <use xlink:href="#DejaVuSans-74" x="179.541016"/>
      <use xlink:href="#DejaVuSans-72" x="218.75"/>
      <use xlink:href="#DejaVuSans-6f" x="257.613281"/>
      <use xlink:href="#DejaVuSans-6c" x="318.794922"/>
     </g>
    </g>
    <g id="patch_138">
     <path d="M 479.210625 64.969687 
L 503.210625 64.969687 
L 503.210625 56.569687 
L 479.210625 56.569687 
z
" style="fill: #ff7f0e; opacity: 0.4"/>
    </g>
    <g id="text_28">
     <!-- cytd -->
     <g transform="translate(512.810625 64.969687) scale(0.12 -0.12)">
      <use xlink:href="#DejaVuSans-63"/>
      <use xlink:href="#DejaVuSans-79" x="54.980469"/>
      <use xlink:href="#DejaVuSans-74" x="114.160156"/>
      <use xlink:href="#DejaVuSans-64" x="153.369141"/>
     </g>
    </g>
    <g id="patch_139">
     <path d="M 479.210625 82.583437 
L 503.210625 82.583437 
L 503.210625 74.183437 
L 479.210625 74.183437 
z
" style="fill: #2ca02c; opacity: 0.4"/>
    </g>
    <g id="text_29">
     <!-- jasp -->
     <g transform="translate(512.810625 82.583437) scale(0.12 -0.12)">
      <use xlink:href="#DejaVuSans-6a"/>
      <use xlink:href="#DejaVuSans-61" x="27.783203"/>
      <use xlink:href="#DejaVuSans-73" x="89.0625"/>
      <use xlink:href="#DejaVuSans-70" x="141.162109"/>
     </g>
    </g>
   </g>
  </g>
 </g>
 <defs>
  <clipPath id="pb9f6da4434">
   <rect x="57.615" y="27.437813" width="237.867813" height="233.084062"/>
  </clipPath>
  <clipPath id="pa31f07c4a5">
   <rect x="327.332187" y="27.437813" width="237.867812" height="233.084062"/>
  </clipPath>
 </defs>
</svg>
