<?xml version="1.0" encoding="utf-8" standalone="no"?>
<!DOCTYPE svg PUBLIC "-//W3C//DTD SVG 1.1//EN"
  "http://www.w3.org/Graphics/SVG/1.1/DTD/svg11.dtd">
<svg xmlns:xlink="http://www.w3.org/1999/xlink" width="540pt" height="288pt" viewBox="0 0 540 288" xmlns="http://www.w3.org/2000/svg" version="1.1">
 <metadata>
  <rdf:RDF xmlns:dc="http://purl.org/dc/elements/1.1/" xmlns:cc="http://creativecommons.org/ns#" xmlns:rdf="http://www.w3.org/1999/02/22-rdf-syntax-ns#">
   <cc:Work>
    <dc:type rdf:resource="http://purl.org/dc/dcmitype/StillImage"/>
    <dc:date>2024-04-15T20:28:25.078037</dc:date>
    <dc:format>image/svg+xml</dc:format>
    <dc:creator>
     <cc:Agent>
      <dc:title>Matplotlib v3.8.4, https://matplotlib.org/</dc:title>
     </cc:Agent>
    </dc:creator>
   </cc:Work>
  </rdf:RDF>
 </metadata>
 <defs>
  <style type="text/css">*{stroke-linejoin: round; stroke-linecap: butt}</style>
 </defs>
 <g id="figure_1">
  <g id="patch_1">
   <path d="M 0 288 
L 540 288 
L 540 0 
L 0 0 
z
" style="fill: #ffffff"/>
  </g>
  <g id="axes_1">
   <g id="line2d_1">
    <path d="M 121.615844 42.234987 
L 119.970507 43.211614 
L 118.393931 43.912043 
L 117.104431 44.152241 
L 115.726129 44.50182 
L 112.997055 45.286095 
L 111.818991 45.909233 
L 108.633858 47.263488 
L 107.798542 47.734518 
L 104.068627 50.080016 
L 102.370013 51.246955 
L 100.646767 52.74047 
L 96.834147 55.991521 
L 94.969994 58.084269 
L 93.3394 60.140496 
L 91.816556 62.642281 
L 90.876783 64.523819 
L 89.014898 68.802773 
L 87.165542 72.997993 
L 85.171132 80.334786 
L 84.665675 83.883645 
L 85.043572 92.97865 
L 85.945236 97.91409 
L 86.71025 100.263898 
L 87.838734 102.596347 
L 88.908709 105.294543 
L 91.563375 110.293497 
L 93.059207 112.702377 
L 95.328701 115.993078 
L 100.100914 120.646128 
L 102.121757 122.235851 
L 104.315164 123.670741 
L 106.267099 124.982071 
L 110.084601 126.337659 
L 119.054272 128.983318 
L 120.394716 129.294357 
L 121.750279 129.486895 
L 123.316818 129.847303 
L 126.620188 130.327963 
L 129.60164 130.774749 
L 130.964921 130.778182 
L 133.847367 130.530904 
L 139.301376 129.457938 
L 140.620647 129.096534 
L 143.294894 127.958551 
L 146.159434 126.659843 
L 150.581137 124.301565 
L 155.214628 121.29798 
L 156.500359 120.395059 
L 157.986113 119.157786 
L 159.398029 118.139107 
L 162.176913 115.597189 
L 164.372465 113.082538 
L 166.501676 110.057325 
L 167.354132 108.446735 
L 170.111022 102.279177 
L 172.893269 92.794937 
L 173.422561 87.17583 
L 172.7484 81.084032 
L 172.117628 78.328643 
L 171.097553 75.337382 
L 169.778529 72.315218 
L 167.670791 68.030595 
L 164.777019 63.409056 
L 161.058234 58.009104 
L 156.825703 53.949845 
L 151.211302 49.18009 
L 144.52909 45.768225 
L 126.825872 39.141818 
L 126.825872 39.141818 
" clip-path="url(#pef5cdf2733)" style="fill: none; stroke: #1f77b4; stroke-width: 1.5; stroke-linecap: square"/>
   </g>
   <g id="text_1">
    <!-- SRV-control -->
    <g transform="translate(71.778493 28.56) scale(0.2 -0.2)">
     <defs>
      <path id="DejaVuSans-53" d="M 3425 4513 
L 3425 3897 
Q 3066 4069 2747 4153 
Q 2428 4238 2131 4238 
Q 1616 4238 1336 4038 
Q 1056 3838 1056 3469 
Q 1056 3159 1242 3001 
Q 1428 2844 1947 2747 
L 2328 2669 
Q 3034 2534 3370 2195 
Q 3706 1856 3706 1288 
Q 3706 609 3251 259 
Q 2797 -91 1919 -91 
Q 1588 -91 1214 -16 
Q 841 59 441 206 
L 441 856 
Q 825 641 1194 531 
Q 1563 422 1919 422 
Q 2459 422 2753 634 
Q 3047 847 3047 1241 
Q 3047 1584 2836 1778 
Q 2625 1972 2144 2069 
L 1759 2144 
Q 1053 2284 737 2584 
Q 422 2884 422 3419 
Q 422 4038 858 4394 
Q 1294 4750 2059 4750 
Q 2388 4750 2728 4690 
Q 3069 4631 3425 4513 
z
" transform="scale(0.015625)"/>
      <path id="DejaVuSans-52" d="M 2841 2188 
Q 3044 2119 3236 1894 
Q 3428 1669 3622 1275 
L 4263 0 
L 3584 0 
L 2988 1197 
Q 2756 1666 2539 1819 
Q 2322 1972 1947 1972 
L 1259 1972 
L 1259 0 
L 628 0 
L 628 4666 
L 2053 4666 
Q 2853 4666 3247 4331 
Q 3641 3997 3641 3322 
Q 3641 2881 3436 2590 
Q 3231 2300 2841 2188 
z
M 1259 4147 
L 1259 2491 
L 2053 2491 
Q 2509 2491 2742 2702 
Q 2975 2913 2975 3322 
Q 2975 3731 2742 3939 
Q 2509 4147 2053 4147 
L 1259 4147 
z
" transform="scale(0.015625)"/>
      <path id="DejaVuSans-56" d="M 1831 0 
L 50 4666 
L 709 4666 
L 2188 738 
L 3669 4666 
L 4325 4666 
L 2547 0 
L 1831 0 
z
" transform="scale(0.015625)"/>
      <path id="DejaVuSans-2d" d="M 313 2009 
L 1997 2009 
L 1997 1497 
L 313 1497 
L 313 2009 
z
" transform="scale(0.015625)"/>
      <path id="DejaVuSans-63" d="M 3122 3366 
L 3122 2828 
Q 2878 2963 2633 3030 
Q 2388 3097 2138 3097 
Q 1578 3097 1268 2742 
Q 959 2388 959 1747 
Q 959 1106 1268 751 
Q 1578 397 2138 397 
Q 2388 397 2633 464 
Q 2878 531 3122 666 
L 3122 134 
Q 2881 22 2623 -34 
Q 2366 -91 2075 -91 
Q 1284 -91 818 406 
Q 353 903 353 1747 
Q 353 2603 823 3093 
Q 1294 3584 2113 3584 
Q 2378 3584 2631 3529 
Q 2884 3475 3122 3366 
z
" transform="scale(0.015625)"/>
      <path id="DejaVuSans-6f" d="M 1959 3097 
Q 1497 3097 1228 2736 
Q 959 2375 959 1747 
Q 959 1119 1226 758 
Q 1494 397 1959 397 
Q 2419 397 2687 759 
Q 2956 1122 2956 1747 
Q 2956 2369 2687 2733 
Q 2419 3097 1959 3097 
z
M 1959 3584 
Q 2709 3584 3137 3096 
Q 3566 2609 3566 1747 
Q 3566 888 3137 398 
Q 2709 -91 1959 -91 
Q 1206 -91 779 398 
Q 353 888 353 1747 
Q 353 2609 779 3096 
Q 1206 3584 1959 3584 
z
" transform="scale(0.015625)"/>
      <path id="DejaVuSans-6e" d="M 3513 2113 
L 3513 0 
L 2938 0 
L 2938 2094 
Q 2938 2591 2744 2837 
Q 2550 3084 2163 3084 
Q 1697 3084 1428 2787 
Q 1159 2491 1159 1978 
L 1159 0 
L 581 0 
L 581 3500 
L 1159 3500 
L 1159 2956 
Q 1366 3272 1645 3428 
Q 1925 3584 2291 3584 
Q 2894 3584 3203 3211 
Q 3513 2838 3513 2113 
z
" transform="scale(0.015625)"/>
      <path id="DejaVuSans-74" d="M 1172 4494 
L 1172 3500 
L 2356 3500 
L 2356 3053 
L 1172 3053 
L 1172 1153 
Q 1172 725 1289 603 
Q 1406 481 1766 481 
L 2356 481 
L 2356 0 
L 1766 0 
Q 1100 0 847 248 
Q 594 497 594 1153 
L 594 3053 
L 172 3053 
L 172 3500 
L 594 3500 
L 594 4494 
L 1172 4494 
z
" transform="scale(0.015625)"/>
      <path id="DejaVuSans-72" d="M 2631 2963 
Q 2534 3019 2420 3045 
Q 2306 3072 2169 3072 
Q 1681 3072 1420 2755 
Q 1159 2438 1159 1844 
L 1159 0 
L 581 0 
L 581 3500 
L 1159 3500 
L 1159 2956 
Q 1341 3275 1631 3429 
Q 1922 3584 2338 3584 
Q 2397 3584 2469 3576 
Q 2541 3569 2628 3553 
L 2631 2963 
z
" transform="scale(0.015625)"/>
      <path id="DejaVuSans-6c" d="M 603 4863 
L 1178 4863 
L 1178 0 
L 603 0 
L 603 4863 
z
" transform="scale(0.015625)"/>
     </defs>
     <use xlink:href="#DejaVuSans-53"/>
     <use xlink:href="#DejaVuSans-52" x="63.476562"/>
     <use xlink:href="#DejaVuSans-56" x="127.458984"/>
     <use xlink:href="#DejaVuSans-2d" x="189.992188"/>
     <use xlink:href="#DejaVuSans-63" x="226.076172"/>
     <use xlink:href="#DejaVuSans-6f" x="281.056641"/>
     <use xlink:href="#DejaVuSans-6e" x="342.238281"/>
     <use xlink:href="#DejaVuSans-74" x="405.617188"/>
     <use xlink:href="#DejaVuSans-72" x="444.826172"/>
     <use xlink:href="#DejaVuSans-6f" x="483.689453"/>
     <use xlink:href="#DejaVuSans-6c" x="544.871094"/>
    </g>
   </g>
  </g>
  <g id="axes_2">
   <g id="line2d_2">
    <path d="M 271.686817 51.21021 
L 270.835323 51.890063 
L 269.668187 51.975178 
L 268.997688 52.021462 
L 267.660379 52.756922 
L 266.110868 52.887992 
L 265.246232 53.138739 
L 263.966002 53.970645 
L 262.493244 54.692379 
L 260.576944 54.949 
L 258.863692 55.185221 
L 251.298342 57.474791 
L 247.281354 59.124906 
L 245.98158 59.838875 
L 242.726465 61.995419 
L 240.401897 63.792626 
L 238.884414 64.850583 
L 237.653247 66.03776 
L 235.816304 68.605581 
L 234.826328 70.030914 
L 234.149006 71.616018 
L 232.725041 75.038613 
L 231.501066 78.798676 
L 231.132042 80.739108 
L 231.143442 82.891663 
L 231.018565 85.141173 
L 230.847635 86.147426 
L 230.748271 88.403048 
L 230.353431 93.178145 
L 230.639991 96.852358 
L 231.129596 99.296992 
L 232.115307 103.433565 
L 234.049449 106.458155 
L 235.462146 108.570418 
L 236.820521 110.564808 
L 237.754535 111.510133 
L 239.972355 113.217248 
L 242.352318 115.435779 
L 245.354723 118.787744 
L 246.105893 119.683254 
L 248.34762 121.724406 
L 249.441216 122.548743 
L 250.016939 123.192597 
L 252.218371 124.498973 
L 253.801811 125.244412 
L 255.08166 126.089152 
L 256.155921 127.040387 
L 257.437011 127.852702 
L 260.356036 129.162541 
L 261.779105 129.488981 
L 264.450709 129.831818 
L 265.71573 130.15061 
L 268.512362 130.445988 
L 270.313343 130.493208 
L 271.75883 130.68203 
L 274.445871 130.778182 
L 278.379452 130.699742 
L 281.490094 130.621668 
L 283.294153 130.487213 
L 284.821117 130.535946 
L 286.39467 130.471468 
L 288.582739 130.047286 
L 290.087575 129.354068 
L 291.725487 128.281689 
L 293.011001 127.721241 
L 294.398015 127.252776 
L 295.737425 126.64924 
L 296.989024 125.87682 
L 300.226159 124.26916 
L 301.750795 123.255334 
L 310.118918 117.057251 
L 312.381643 115.484193 
L 313.053764 114.440079 
L 314.404759 111.336599 
L 315.112551 109.245591 
L 318.414205 101.983375 
L 319.457047 100.059478 
L 320.814077 97.164661 
L 322.509991 92.677505 
L 322.845728 90.888639 
L 323.155089 86.627434 
L 323.011685 84.762601 
L 321.664984 82.255842 
L 320.097936 78.955665 
L 319.134708 75.022815 
L 317.327153 71.37651 
L 315.137164 68.529074 
L 313.011762 66.144987 
L 309.700606 63.178687 
L 306.227509 59.5623 
L 301.93073 56.11365 
L 297.749729 51.44171 
L 292.250836 46.634917 
L 286.040642 39.141818 
L 286.040642 39.141818 
" clip-path="url(#pa7e5493b38)" style="fill: none; stroke: #ff7f0e; stroke-width: 1.5; stroke-linecap: square"/>
   </g>
   <g id="text_2">
    <!-- SRV-cytd -->
    <g transform="translate(232.45625 28.56) scale(0.2 -0.2)">
     <defs>
      <path id="DejaVuSans-79" d="M 2059 -325 
Q 1816 -950 1584 -1140 
Q 1353 -1331 966 -1331 
L 506 -1331 
L 506 -850 
L 844 -850 
Q 1081 -850 1212 -737 
Q 1344 -625 1503 -206 
L 1606 56 
L 191 3500 
L 800 3500 
L 1894 763 
L 2988 3500 
L 3597 3500 
L 2059 -325 
z
" transform="scale(0.015625)"/>
      <path id="DejaVuSans-64" d="M 2906 2969 
L 2906 4863 
L 3481 4863 
L 3481 0 
L 2906 0 
L 2906 525 
Q 2725 213 2448 61 
Q 2172 -91 1784 -91 
Q 1150 -91 751 415 
Q 353 922 353 1747 
Q 353 2572 751 3078 
Q 1150 3584 1784 3584 
Q 2172 3584 2448 3432 
Q 2725 3281 2906 2969 
z
M 947 1747 
Q 947 1113 1208 752 
Q 1469 391 1925 391 
Q 2381 391 2643 752 
Q 2906 1113 2906 1747 
Q 2906 2381 2643 2742 
Q 2381 3103 1925 3103 
Q 1469 3103 1208 2742 
Q 947 2381 947 1747 
z
" transform="scale(0.015625)"/>
     </defs>
     <use xlink:href="#DejaVuSans-53"/>
     <use xlink:href="#DejaVuSans-52" x="63.476562"/>
     <use xlink:href="#DejaVuSans-56" x="127.458984"/>
     <use xlink:href="#DejaVuSans-2d" x="189.992188"/>
     <use xlink:href="#DejaVuSans-63" x="226.076172"/>
     <use xlink:href="#DejaVuSans-79" x="281.056641"/>
     <use xlink:href="#DejaVuSans-74" x="340.236328"/>
     <use xlink:href="#DejaVuSans-64" x="379.445312"/>
    </g>
   </g>
  </g>
  <g id="axes_3">
   <g id="line2d_3">
    <path d="M 420.339034 40.407674 
L 419.737927 40.788044 
L 418.792076 41.037326 
L 416.215074 41.817911 
L 415.17674 42.159655 
L 414.135046 42.706448 
L 412.758589 43.324386 
L 409.503266 44.518362 
L 407.424979 45.481398 
L 404.046186 46.700996 
L 396.8231 50.708768 
L 393.31602 53.367381 
L 391.214912 55.195373 
L 388.854004 58.148872 
L 388.199401 58.99903 
L 387.033185 60.778877 
L 384.567437 64.190978 
L 382.992348 66.825182 
L 380.943583 71.017037 
L 379.828327 74.276566 
L 379.331774 75.326673 
L 378.366548 79.929454 
L 378.231592 82.015333 
L 378.33028 87.922663 
L 378.529056 89.067523 
L 380.21518 94.559379 
L 381.532628 98.310915 
L 383.993476 104.759788 
L 386.351003 109.44923 
L 387.138941 110.551949 
L 387.815637 111.750428 
L 388.691389 112.903381 
L 390.609204 114.884442 
L 392.665629 116.763306 
L 395.102859 119.027566 
L 403.664097 125.440552 
L 405.189995 126.215742 
L 406.711512 126.812001 
L 409.584343 128.160478 
L 416.665631 130.034382 
L 418.225306 130.31161 
L 419.960191 130.502512 
L 426.717456 130.719944 
L 429.557048 130.488895 
L 432.255702 129.820198 
L 436.866609 128.790176 
L 444.40284 126.257018 
L 445.978879 125.538839 
L 450.608179 123.001458 
L 454.694976 119.714494 
L 455.950958 118.526937 
L 457.083854 117.298781 
L 458.645324 116.014368 
L 459.818743 114.496703 
L 461.020157 112.680617 
L 462.182132 110.392105 
L 463.301233 108.822218 
L 465.368641 105.217172 
L 467.531773 100.951304 
L 468.435563 98.887831 
L 469.102934 96.808762 
L 469.580756 94.347288 
L 469.766374 92.411784 
L 469.877375 89.165108 
L 470.451298 86.524531 
L 470.681731 83.798578 
L 470.638795 81.152437 
L 470.084144 77.780898 
L 469.150317 74.507953 
L 467.638085 70.980937 
L 465.772939 67.561418 
L 463.717999 64.135418 
L 460.479185 60.349075 
L 456.767678 56.28014 
L 452.347153 51.922205 
L 445.71659 47.505111 
L 437.611732 43.210328 
L 428.546505 39.141818 
L 428.546505 39.141818 
" clip-path="url(#p4a4c6122a3)" style="fill: none; stroke: #2ca02c; stroke-width: 1.5; stroke-linecap: square"/>
   </g>
   <g id="text_3">
    <!-- SRV-jasp -->
    <g transform="translate(381.384007 28.56) scale(0.2 -0.2)">
     <defs>
      <path id="DejaVuSans-6a" d="M 603 3500 
L 1178 3500 
L 1178 -63 
Q 1178 -731 923 -1031 
Q 669 -1331 103 -1331 
L -116 -1331 
L -116 -844 
L 38 -844 
Q 366 -844 484 -692 
Q 603 -541 603 -63 
L 603 3500 
z
M 603 4863 
L 1178 4863 
L 1178 4134 
L 603 4134 
L 603 4863 
z
" transform="scale(0.015625)"/>
      <path id="DejaVuSans-61" d="M 2194 1759 
Q 1497 1759 1228 1600 
Q 959 1441 959 1056 
Q 959 750 1161 570 
Q 1363 391 1709 391 
Q 2188 391 2477 730 
Q 2766 1069 2766 1631 
L 2766 1759 
L 2194 1759 
z
M 3341 1997 
L 3341 0 
L 2766 0 
L 2766 531 
Q 2569 213 2275 61 
Q 1981 -91 1556 -91 
Q 1019 -91 701 211 
Q 384 513 384 1019 
Q 384 1609 779 1909 
Q 1175 2209 1959 2209 
L 2766 2209 
L 2766 2266 
Q 2766 2663 2505 2880 
Q 2244 3097 1772 3097 
Q 1472 3097 1187 3025 
Q 903 2953 641 2809 
L 641 3341 
Q 956 3463 1253 3523 
Q 1550 3584 1831 3584 
Q 2591 3584 2966 3190 
Q 3341 2797 3341 1997 
z
" transform="scale(0.015625)"/>
      <path id="DejaVuSans-73" d="M 2834 3397 
L 2834 2853 
Q 2591 2978 2328 3040 
Q 2066 3103 1784 3103 
Q 1356 3103 1142 2972 
Q 928 2841 928 2578 
Q 928 2378 1081 2264 
Q 1234 2150 1697 2047 
L 1894 2003 
Q 2506 1872 2764 1633 
Q 3022 1394 3022 966 
Q 3022 478 2636 193 
Q 2250 -91 1575 -91 
Q 1294 -91 989 -36 
Q 684 19 347 128 
L 347 722 
Q 666 556 975 473 
Q 1284 391 1588 391 
Q 1994 391 2212 530 
Q 2431 669 2431 922 
Q 2431 1156 2273 1281 
Q 2116 1406 1581 1522 
L 1381 1569 
Q 847 1681 609 1914 
Q 372 2147 372 2553 
Q 372 3047 722 3315 
Q 1072 3584 1716 3584 
Q 2034 3584 2315 3537 
Q 2597 3491 2834 3397 
z
" transform="scale(0.015625)"/>
      <path id="DejaVuSans-70" d="M 1159 525 
L 1159 -1331 
L 581 -1331 
L 581 3500 
L 1159 3500 
L 1159 2969 
Q 1341 3281 1617 3432 
Q 1894 3584 2278 3584 
Q 2916 3584 3314 3078 
Q 3713 2572 3713 1747 
Q 3713 922 3314 415 
Q 2916 -91 2278 -91 
Q 1894 -91 1617 61 
Q 1341 213 1159 525 
z
M 3116 1747 
Q 3116 2381 2855 2742 
Q 2594 3103 2138 3103 
Q 1681 3103 1420 2742 
Q 1159 2381 1159 1747 
Q 1159 1113 1420 752 
Q 1681 391 2138 391 
Q 2594 391 2855 752 
Q 3116 1113 3116 1747 
z
" transform="scale(0.015625)"/>
     </defs>
     <use xlink:href="#DejaVuSans-53"/>
     <use xlink:href="#DejaVuSans-52" x="63.476562"/>
     <use xlink:href="#DejaVuSans-56" x="127.458984"/>
     <use xlink:href="#DejaVuSans-2d" x="189.992188"/>
     <use xlink:href="#DejaVuSans-6a" x="226.076172"/>
     <use xlink:href="#DejaVuSans-61" x="253.859375"/>
     <use xlink:href="#DejaVuSans-73" x="315.138672"/>
     <use xlink:href="#DejaVuSans-70" x="367.238281"/>
    </g>
   </g>
  </g>
  <g id="axes_4">
   <g id="line2d_4">
    <path d="M 107.736085 161.88908 
L 106.961651 163.209046 
L 106.045064 164.460816 
L 103.816036 166.318925 
L 102.838944 167.290949 
L 100.339344 170.731983 
L 97.790119 173.658827 
L 96.037466 175.999747 
L 92.656592 182.002248 
L 92.115926 183.368389 
L 90.40701 187.058259 
L 88.462553 192.099259 
L 87.76751 194.717861 
L 87.319988 197.212886 
L 86.790021 201.038201 
L 86.861486 202.298023 
L 86.804347 206.540522 
L 86.850106 209.646341 
L 88.220273 217.164129 
L 90.083002 222.972343 
L 91.185426 225.707106 
L 91.557359 227.028567 
L 92.690402 229.218773 
L 93.923019 231.71426 
L 98.131971 237.70282 
L 100.181104 239.671503 
L 102.151257 241.765949 
L 104.220322 243.406332 
L 109.740431 247.071382 
L 115.878936 249.520006 
L 119.769846 250.772109 
L 124.60934 251.563172 
L 127.527465 251.738182 
L 128.886391 251.585385 
L 131.438347 251.659272 
L 134.397064 251.175967 
L 135.724472 251.216305 
L 139.53735 250.771357 
L 142.400706 250.149657 
L 145.058266 249.384523 
L 147.456214 248.505622 
L 149.793161 247.394526 
L 154.084452 244.572651 
L 155.019256 243.882845 
L 156.834196 242.11829 
L 157.860774 241.082299 
L 159.892895 239.269731 
L 160.727106 238.299405 
L 162.621492 236.462436 
L 164.475032 234.408317 
L 167.113305 229.802271 
L 168.178586 227.42187 
L 168.914182 224.951767 
L 169.905275 221.234346 
L 170.989307 213.457591 
L 171.351867 207.090288 
L 171.152825 204.521223 
L 169.801939 197.828004 
L 168.729009 195.099234 
L 166.919889 190.577325 
L 164.614747 186.404561 
L 163.079388 183.942675 
L 161.236851 181.607799 
L 155.875199 175.479094 
L 152.648053 172.663712 
L 150.328322 170.927755 
L 147.960985 169.387842 
L 140.343994 165.428206 
L 135.109476 163.208707 
L 132.712397 162.297104 
L 131.487325 161.968577 
L 127.199949 161.409862 
L 124.396195 160.850203 
L 123.138764 160.774287 
L 120.500387 160.906556 
L 119.09057 160.841107 
L 117.691975 160.664275 
L 114.957684 160.101818 
L 110.606019 160.227852 
L 110.606019 160.227852 
" clip-path="url(#p0c8e93bd85)" style="fill: none; stroke: #1f77b4; stroke-width: 1.5; stroke-linecap: square"/>
   </g>
   <g id="text_4">
    <!-- Linear-control -->
    <g transform="translate(60.336305 149.52) scale(0.2 -0.2)">
     <defs>
      <path id="DejaVuSans-4c" d="M 628 4666 
L 1259 4666 
L 1259 531 
L 3531 531 
L 3531 0 
L 628 0 
L 628 4666 
z
" transform="scale(0.015625)"/>
      <path id="DejaVuSans-69" d="M 603 3500 
L 1178 3500 
L 1178 0 
L 603 0 
L 603 3500 
z
M 603 4863 
L 1178 4863 
L 1178 4134 
L 603 4134 
L 603 4863 
z
" transform="scale(0.015625)"/>
      <path id="DejaVuSans-65" d="M 3597 1894 
L 3597 1613 
L 953 1613 
Q 991 1019 1311 708 
Q 1631 397 2203 397 
Q 2534 397 2845 478 
Q 3156 559 3463 722 
L 3463 178 
Q 3153 47 2828 -22 
Q 2503 -91 2169 -91 
Q 1331 -91 842 396 
Q 353 884 353 1716 
Q 353 2575 817 3079 
Q 1281 3584 2069 3584 
Q 2775 3584 3186 3129 
Q 3597 2675 3597 1894 
z
M 3022 2063 
Q 3016 2534 2758 2815 
Q 2500 3097 2075 3097 
Q 1594 3097 1305 2825 
Q 1016 2553 972 2059 
L 3022 2063 
z
" transform="scale(0.015625)"/>
     </defs>
     <use xlink:href="#DejaVuSans-4c"/>
     <use xlink:href="#DejaVuSans-69" x="55.712891"/>
     <use xlink:href="#DejaVuSans-6e" x="83.496094"/>
     <use xlink:href="#DejaVuSans-65" x="146.875"/>
     <use xlink:href="#DejaVuSans-61" x="208.398438"/>
     <use xlink:href="#DejaVuSans-72" x="269.677734"/>
     <use xlink:href="#DejaVuSans-2d" x="304.416016"/>
     <use xlink:href="#DejaVuSans-63" x="340.5"/>
     <use xlink:href="#DejaVuSans-6f" x="395.480469"/>
     <use xlink:href="#DejaVuSans-6e" x="456.662109"/>
     <use xlink:href="#DejaVuSans-74" x="520.041016"/>
     <use xlink:href="#DejaVuSans-72" x="559.25"/>
     <use xlink:href="#DejaVuSans-6f" x="598.113281"/>
     <use xlink:href="#DejaVuSans-6c" x="659.294922"/>
    </g>
   </g>
  </g>
  <g id="axes_5">
   <g id="line2d_5">
    <path d="M 254.10106 161.488964 
L 254.118688 163.233713 
L 253.751696 166.678022 
L 253.319991 169.594116 
L 252.620743 176.436078 
L 252.274136 177.851983 
L 251.70042 179.379444 
L 250.936973 180.763323 
L 249.972222 183.661461 
L 249.006653 184.852724 
L 248.418904 186.117188 
L 247.638557 187.37844 
L 247.253883 188.620357 
L 246.677284 189.814226 
L 244.286298 193.815542 
L 243.220806 196.10197 
L 242.478244 197.352599 
L 241.884382 199.593003 
L 241.744539 200.956563 
L 241.43743 202.260814 
L 241.005597 206.104794 
L 241.210811 208.595467 
L 240.52043 213.817105 
L 240.229475 215.031772 
L 240.116938 216.101753 
L 240.219221 218.639295 
L 240.515756 219.818553 
L 240.586469 221.090885 
L 240.580824 223.707628 
L 242.760976 228.412734 
L 244.601629 231.098528 
L 245.474668 232.032241 
L 247.608868 235.137391 
L 249.86573 237.682673 
L 252.143343 239.809353 
L 254.02874 241.279706 
L 255.973306 242.301251 
L 256.834231 242.999582 
L 259.896177 244.63989 
L 265.979749 248.826341 
L 267.001826 249.114096 
L 269.97771 250.579876 
L 272.459782 250.986712 
L 273.491781 251.556654 
L 274.644032 251.657564 
L 275.892745 251.617654 
L 277.108742 251.738182 
L 279.827569 251.380415 
L 282.490765 251.1582 
L 283.745577 250.856161 
L 286.369694 250.565487 
L 288.501024 250.560768 
L 289.49668 250.41032 
L 290.700867 250.417046 
L 291.949655 249.959367 
L 294.794715 249.525099 
L 296.917943 248.741861 
L 301.571732 245.579661 
L 302.76204 244.178798 
L 303.518316 243.556828 
L 304.581462 241.973456 
L 306.431425 240.482994 
L 308.40777 237.676577 
L 310.141578 233.802624 
L 310.723921 230.153456 
L 311.149761 229.085007 
L 311.486475 227.772485 
L 312.519733 225.1808 
L 313.000373 224.152316 
L 313.060756 222.925756 
L 313.383062 221.645715 
L 313.348737 220.429295 
L 312.882061 218.144829 
L 312.33097 215.671533 
L 312.068959 214.412798 
L 312.082026 213.353335 
L 311.443272 209.412516 
L 310.979926 208.305791 
L 310.888344 206.896599 
L 310.475233 205.669798 
L 309.743451 204.224568 
L 308.423132 200.66588 
L 306.861394 197.473429 
L 306.173606 196.508308 
L 305.038667 194.406608 
L 304.38962 193.424723 
L 303.746356 192.694587 
L 302.727539 191.865266 
L 301.940292 190.78555 
L 300.952772 189.969406 
L 299.712927 189.155211 
L 297.431441 187.331753 
L 296.184624 186.667177 
L 293.710561 185.052288 
L 292.575776 184.086422 
L 290.663775 181.98489 
L 289.463933 181.051386 
L 285.520593 178.958059 
L 284.402657 178.46606 
L 281.903918 176.997834 
L 280.714437 176.641991 
L 279.536708 176.088877 
L 278.229142 175.632286 
L 277.025214 174.976407 
L 274.239432 173.021617 
L 269.156752 169.684454 
L 266.591008 168.46638 
L 264.123322 166.769741 
L 261.394435 164.896546 
L 257.221062 161.477568 
L 255.891758 160.101818 
L 255.891758 160.101818 
" clip-path="url(#pbcefd0b686)" style="fill: none; stroke: #ff7f0e; stroke-width: 1.5; stroke-linecap: square"/>
   </g>
   <g id="text_5">
    <!-- Linear-cytd -->
    <g transform="translate(221.014062 149.52) scale(0.2 -0.2)">
     <use xlink:href="#DejaVuSans-4c"/>
     <use xlink:href="#DejaVuSans-69" x="55.712891"/>
     <use xlink:href="#DejaVuSans-6e" x="83.496094"/>
     <use xlink:href="#DejaVuSans-65" x="146.875"/>
     <use xlink:href="#DejaVuSans-61" x="208.398438"/>
     <use xlink:href="#DejaVuSans-72" x="269.677734"/>
     <use xlink:href="#DejaVuSans-2d" x="304.416016"/>
     <use xlink:href="#DejaVuSans-63" x="340.5"/>
     <use xlink:href="#DejaVuSans-79" x="395.480469"/>
     <use xlink:href="#DejaVuSans-74" x="454.660156"/>
     <use xlink:href="#DejaVuSans-64" x="493.869141"/>
    </g>
   </g>
  </g>
  <g id="axes_6">
   <g id="line2d_6">
    <path d="M 405.219728 161.334235 
L 403.247768 163.300316 
L 402.555921 164.384109 
L 398.381093 169.653047 
L 396.158266 172.864994 
L 395.487169 174.022555 
L 395.076153 175.22227 
L 393.392212 178.807773 
L 392.36341 181.572427 
L 390.506004 185.046194 
L 389.312255 187.839993 
L 387.467319 194.559635 
L 387.489981 196.012286 
L 387.359342 197.274815 
L 387.313095 200.138233 
L 387.189126 203.982999 
L 387.264484 206.732706 
L 387.647524 209.182181 
L 387.917865 210.241078 
L 388.387814 212.823534 
L 388.755881 214.085874 
L 388.910384 215.364907 
L 390.046775 219.014514 
L 390.659945 220.190565 
L 390.906065 221.443091 
L 391.529847 222.63355 
L 392.024171 223.936641 
L 392.675034 225.241845 
L 393.47155 227.44717 
L 394.678405 230.263157 
L 395.378614 231.30876 
L 395.863044 232.409374 
L 396.517187 233.51049 
L 397.416714 234.488917 
L 400.58383 238.804017 
L 401.262263 239.976957 
L 402.701135 241.869114 
L 404.533192 243.65594 
L 406.507786 244.927343 
L 408.823996 246.277999 
L 410.928019 247.756291 
L 413.190584 248.65032 
L 415.740461 249.480045 
L 417.958084 250.594546 
L 419.182847 251.188601 
L 420.488582 251.538321 
L 421.771623 251.535036 
L 423.051466 251.738182 
L 427.636537 251.26403 
L 430.468602 251.291664 
L 431.884848 251.140649 
L 434.42362 250.469729 
L 435.594946 250.253046 
L 438.160545 249.390315 
L 441.05844 248.46478 
L 442.341581 247.876002 
L 445.81333 245.532536 
L 447.0706 244.942106 
L 449.831257 242.810174 
L 452.570554 240.444458 
L 454.075615 238.389984 
L 455.633667 236.465779 
L 456.355994 235.298862 
L 457.365713 234.043603 
L 458.410888 231.668508 
L 458.80456 230.419768 
L 459.259453 229.484732 
L 460.348007 225.802415 
L 460.809139 223.760273 
L 461.107178 222.823736 
L 461.343517 220.513459 
L 461.67991 219.447203 
L 461.722639 217.417475 
L 461.710644 215.05286 
L 461.709555 213.9664 
L 461.265008 211.755128 
L 461.39484 210.570004 
L 461.272826 207.825064 
L 460.803948 203.827098 
L 460.662274 202.400451 
L 459.765152 198.763914 
L 458.500995 196.238079 
L 457.638806 194.166589 
L 456.196697 191.524029 
L 455.647429 190.090507 
L 454.111617 187.462504 
L 451.803152 184.242805 
L 448.944253 179.653383 
L 448.283858 178.830131 
L 445.696495 176.565235 
L 443.819015 175.153477 
L 442.98244 174.268994 
L 436.332599 169.412617 
L 430.444328 165.833837 
L 428.167711 164.682392 
L 426.978093 164.116263 
L 423.011162 162.657194 
L 421.796571 162.380802 
L 420.435874 161.945227 
L 417.446976 161.448959 
L 413.506967 160.80913 
L 411.061631 160.436797 
L 409.520603 160.536516 
L 406.947912 160.101818 
L 406.947912 160.101818 
" clip-path="url(#p58ceb68297)" style="fill: none; stroke: #2ca02c; stroke-width: 1.5; stroke-linecap: square"/>
   </g>
   <g id="text_6">
    <!-- Linear-jasp -->
    <g transform="translate(369.94182 149.52) scale(0.2 -0.2)">
     <use xlink:href="#DejaVuSans-4c"/>
     <use xlink:href="#DejaVuSans-69" x="55.712891"/>
     <use xlink:href="#DejaVuSans-6e" x="83.496094"/>
     <use xlink:href="#DejaVuSans-65" x="146.875"/>
     <use xlink:href="#DejaVuSans-61" x="208.398438"/>
     <use xlink:href="#DejaVuSans-72" x="269.677734"/>
     <use xlink:href="#DejaVuSans-2d" x="304.416016"/>
     <use xlink:href="#DejaVuSans-6a" x="340.5"/>
     <use xlink:href="#DejaVuSans-61" x="368.283203"/>
     <use xlink:href="#DejaVuSans-73" x="429.5625"/>
     <use xlink:href="#DejaVuSans-70" x="481.662109"/>
    </g>
   </g>
  </g>
 </g>
 <defs>
  <clipPath id="pef5cdf2733">
   <rect x="67.5" y="34.56" width="123.088235" height="100.8"/>
  </clipPath>
  <clipPath id="pa7e5493b38">
   <rect x="215.205882" y="34.56" width="123.088235" height="100.8"/>
  </clipPath>
  <clipPath id="p4a4c6122a3">
   <rect x="362.911765" y="34.56" width="123.088235" height="100.8"/>
  </clipPath>
  <clipPath id="p0c8e93bd85">
   <rect x="67.5" y="155.52" width="123.088235" height="100.8"/>
  </clipPath>
  <clipPath id="pbcefd0b686">
   <rect x="215.205882" y="155.52" width="123.088235" height="100.8"/>
  </clipPath>
  <clipPath id="p58ceb68297">
   <rect x="362.911765" y="155.52" width="123.088235" height="100.8"/>
  </clipPath>
 </defs>
</svg>
