<?xml version="1.0" encoding="utf-8" standalone="no"?>
<!DOCTYPE svg PUBLIC "-//W3C//DTD SVG 1.1//EN"
  "http://www.w3.org/Graphics/SVG/1.1/DTD/svg11.dtd">
<svg xmlns:xlink="http://www.w3.org/1999/xlink" width="576pt" height="288pt" viewBox="0 0 576 288" xmlns="http://www.w3.org/2000/svg" version="1.1">
 <metadata>
  <rdf:RDF xmlns:dc="http://purl.org/dc/elements/1.1/" xmlns:cc="http://creativecommons.org/ns#" xmlns:rdf="http://www.w3.org/1999/02/22-rdf-syntax-ns#">
   <cc:Work>
    <dc:type rdf:resource="http://purl.org/dc/dcmitype/StillImage"/>
    <dc:date>2023-12-20T18:39:38.378370</dc:date>
    <dc:format>image/svg+xml</dc:format>
    <dc:creator>
     <cc:Agent>
      <dc:title>Matplotlib v3.6.2, https://matplotlib.org/</dc:title>
     </cc:Agent>
    </dc:creator>
   </cc:Work>
  </rdf:RDF>
 </metadata>
 <defs>
  <style type="text/css">*{stroke-linejoin: round; stroke-linecap: butt}</style>
 </defs>
 <g id="figure_1">
  <g id="patch_1">
   <path d="M 0 288 
L 576 288 
L 576 0 
L 0 0 
z
" style="fill: #ffffff"/>
  </g>
  <g id="axes_1">
   <g id="patch_2">
    <path d="M 57.615 260.521875 
L 295.482813 260.521875 
L 295.482813 27.437812 
L 57.615 27.437812 
z
" style="fill: #ffffff"/>
   </g>
   <g id="patch_3">
    <path d="M 57.615 260.521875 
L 65.9892 260.521875 
L 65.9892 226.204891 
L 57.615 226.204891 
z
" clip-path="url(#pcfbbd8d326)" style="fill: #1f77b4; opacity: 0.4"/>
   </g>
   <g id="patch_4">
    <path d="M 65.9892 260.521875 
L 74.3634 260.521875 
L 74.3634 184.663278 
L 65.9892 184.663278 
z
" clip-path="url(#pcfbbd8d326)" style="fill: #1f77b4; opacity: 0.4"/>
   </g>
   <g id="patch_5">
    <path d="M 74.3634 260.521875 
L 82.737599 260.521875 
L 82.737599 222.592576 
L 74.3634 222.592576 
z
" clip-path="url(#pcfbbd8d326)" style="fill: #1f77b4; opacity: 0.4"/>
   </g>
   <g id="patch_6">
    <path d="M 82.737599 260.521875 
L 91.111799 260.521875 
L 91.111799 244.266461 
L 82.737599 244.266461 
z
" clip-path="url(#pcfbbd8d326)" style="fill: #1f77b4; opacity: 0.4"/>
   </g>
   <g id="patch_7">
    <path d="M 91.111799 260.521875 
L 99.485999 260.521875 
L 99.485999 249.684933 
L 91.111799 249.684933 
z
" clip-path="url(#pcfbbd8d326)" style="fill: #1f77b4; opacity: 0.4"/>
   </g>
   <g id="patch_8">
    <path d="M 99.485999 260.521875 
L 107.860199 260.521875 
L 107.860199 249.684933 
L 99.485999 249.684933 
z
" clip-path="url(#pcfbbd8d326)" style="fill: #1f77b4; opacity: 0.4"/>
   </g>
   <g id="patch_9">
    <path d="M 107.860199 260.521875 
L 116.234399 260.521875 
L 116.234399 242.460304 
L 107.860199 242.460304 
z
" clip-path="url(#pcfbbd8d326)" style="fill: #1f77b4; opacity: 0.4"/>
   </g>
   <g id="patch_10">
    <path d="M 116.234399 260.521875 
L 124.608598 260.521875 
L 124.608598 238.84799 
L 116.234399 238.84799 
z
" clip-path="url(#pcfbbd8d326)" style="fill: #1f77b4; opacity: 0.4"/>
   </g>
   <g id="patch_11">
    <path d="M 124.608598 260.521875 
L 132.982798 260.521875 
L 132.982798 240.654147 
L 124.608598 240.654147 
z
" clip-path="url(#pcfbbd8d326)" style="fill: #1f77b4; opacity: 0.4"/>
   </g>
   <g id="patch_12">
    <path d="M 132.982798 260.521875 
L 141.356998 260.521875 
L 141.356998 229.817205 
L 132.982798 229.817205 
z
" clip-path="url(#pcfbbd8d326)" style="fill: #1f77b4; opacity: 0.4"/>
   </g>
   <g id="patch_13">
    <path d="M 141.356998 260.521875 
L 149.731198 260.521875 
L 149.731198 242.460304 
L 141.356998 242.460304 
z
" clip-path="url(#pcfbbd8d326)" style="fill: #1f77b4; opacity: 0.4"/>
   </g>
   <g id="patch_14">
    <path d="M 149.731198 260.521875 
L 158.105398 260.521875 
L 158.105398 251.49109 
L 149.731198 251.49109 
z
" clip-path="url(#pcfbbd8d326)" style="fill: #1f77b4; opacity: 0.4"/>
   </g>
   <g id="patch_15">
    <path d="M 158.105398 260.521875 
L 166.479597 260.521875 
L 166.479597 240.654147 
L 158.105398 240.654147 
z
" clip-path="url(#pcfbbd8d326)" style="fill: #1f77b4; opacity: 0.4"/>
   </g>
   <g id="patch_16">
    <path d="M 166.479597 260.521875 
L 174.853797 260.521875 
L 174.853797 247.878775 
L 166.479597 247.878775 
z
" clip-path="url(#pcfbbd8d326)" style="fill: #1f77b4; opacity: 0.4"/>
   </g>
   <g id="patch_17">
    <path d="M 174.853797 260.521875 
L 183.227997 260.521875 
L 183.227997 247.878775 
L 174.853797 247.878775 
z
" clip-path="url(#pcfbbd8d326)" style="fill: #1f77b4; opacity: 0.4"/>
   </g>
   <g id="patch_18">
    <path d="M 183.227997 260.521875 
L 191.602197 260.521875 
L 191.602197 256.909561 
L 183.227997 256.909561 
z
" clip-path="url(#pcfbbd8d326)" style="fill: #1f77b4; opacity: 0.4"/>
   </g>
   <g id="patch_19">
    <path d="M 191.602197 260.521875 
L 199.976397 260.521875 
L 199.976397 255.103404 
L 191.602197 255.103404 
z
" clip-path="url(#pcfbbd8d326)" style="fill: #1f77b4; opacity: 0.4"/>
   </g>
   <g id="patch_20">
    <path d="M 199.976397 260.521875 
L 208.350596 260.521875 
L 208.350596 255.103404 
L 199.976397 255.103404 
z
" clip-path="url(#pcfbbd8d326)" style="fill: #1f77b4; opacity: 0.4"/>
   </g>
   <g id="patch_21">
    <path d="M 208.350596 260.521875 
L 216.724796 260.521875 
L 216.724796 256.909561 
L 208.350596 256.909561 
z
" clip-path="url(#pcfbbd8d326)" style="fill: #1f77b4; opacity: 0.4"/>
   </g>
   <g id="patch_22">
    <path d="M 216.724796 260.521875 
L 225.098996 260.521875 
L 225.098996 258.715718 
L 216.724796 258.715718 
z
" clip-path="url(#pcfbbd8d326)" style="fill: #1f77b4; opacity: 0.4"/>
   </g>
   <g id="patch_23">
    <path d="M 91.176229 260.521875 
L 101.046271 260.521875 
L 101.046271 257.160422 
L 91.176229 257.160422 
z
" clip-path="url(#pcfbbd8d326)" style="fill: #ff7f0e; opacity: 0.4"/>
   </g>
   <g id="patch_24">
    <path d="M 101.046271 260.521875 
L 110.916313 260.521875 
L 110.916313 260.521875 
L 101.046271 260.521875 
z
" clip-path="url(#pcfbbd8d326)" style="fill: #ff7f0e; opacity: 0.4"/>
   </g>
   <g id="patch_25">
    <path d="M 110.916313 260.521875 
L 120.786356 260.521875 
L 120.786356 257.160422 
L 110.916313 257.160422 
z
" clip-path="url(#pcfbbd8d326)" style="fill: #ff7f0e; opacity: 0.4"/>
   </g>
   <g id="patch_26">
    <path d="M 120.786356 260.521875 
L 130.656398 260.521875 
L 130.656398 257.160422 
L 120.786356 257.160422 
z
" clip-path="url(#pcfbbd8d326)" style="fill: #ff7f0e; opacity: 0.4"/>
   </g>
   <g id="patch_27">
    <path d="M 130.656398 260.521875 
L 140.52644 260.521875 
L 140.52644 260.521875 
L 130.656398 260.521875 
z
" clip-path="url(#pcfbbd8d326)" style="fill: #ff7f0e; opacity: 0.4"/>
   </g>
   <g id="patch_28">
    <path d="M 140.52644 260.521875 
L 150.396482 260.521875 
L 150.396482 247.076063 
L 140.52644 247.076063 
z
" clip-path="url(#pcfbbd8d326)" style="fill: #ff7f0e; opacity: 0.4"/>
   </g>
   <g id="patch_29">
    <path d="M 150.396482 260.521875 
L 160.266524 260.521875 
L 160.266524 253.798969 
L 150.396482 253.798969 
z
" clip-path="url(#pcfbbd8d326)" style="fill: #ff7f0e; opacity: 0.4"/>
   </g>
   <g id="patch_30">
    <path d="M 160.266524 260.521875 
L 170.136567 260.521875 
L 170.136567 250.437516 
L 160.266524 250.437516 
z
" clip-path="url(#pcfbbd8d326)" style="fill: #ff7f0e; opacity: 0.4"/>
   </g>
   <g id="patch_31">
    <path d="M 170.136567 260.521875 
L 180.006609 260.521875 
L 180.006609 240.353157 
L 170.136567 240.353157 
z
" clip-path="url(#pcfbbd8d326)" style="fill: #ff7f0e; opacity: 0.4"/>
   </g>
   <g id="patch_32">
    <path d="M 180.006609 260.521875 
L 189.876651 260.521875 
L 189.876651 236.991704 
L 180.006609 236.991704 
z
" clip-path="url(#pcfbbd8d326)" style="fill: #ff7f0e; opacity: 0.4"/>
   </g>
   <g id="patch_33">
    <path d="M 189.876651 260.521875 
L 199.746693 260.521875 
L 199.746693 236.991704 
L 189.876651 236.991704 
z
" clip-path="url(#pcfbbd8d326)" style="fill: #ff7f0e; opacity: 0.4"/>
   </g>
   <g id="patch_34">
    <path d="M 199.746693 260.521875 
L 209.616735 260.521875 
L 209.616735 236.991704 
L 199.746693 236.991704 
z
" clip-path="url(#pcfbbd8d326)" style="fill: #ff7f0e; opacity: 0.4"/>
   </g>
   <g id="patch_35">
    <path d="M 209.616735 260.521875 
L 219.486778 260.521875 
L 219.486778 236.991704 
L 209.616735 236.991704 
z
" clip-path="url(#pcfbbd8d326)" style="fill: #ff7f0e; opacity: 0.4"/>
   </g>
   <g id="patch_36">
    <path d="M 219.486778 260.521875 
L 229.35682 260.521875 
L 229.35682 220.184439 
L 219.486778 220.184439 
z
" clip-path="url(#pcfbbd8d326)" style="fill: #ff7f0e; opacity: 0.4"/>
   </g>
   <g id="patch_37">
    <path d="M 229.35682 260.521875 
L 239.226862 260.521875 
L 239.226862 220.184439 
L 229.35682 220.184439 
z
" clip-path="url(#pcfbbd8d326)" style="fill: #ff7f0e; opacity: 0.4"/>
   </g>
   <g id="patch_38">
    <path d="M 239.226862 260.521875 
L 249.096904 260.521875 
L 249.096904 250.437516 
L 239.226862 250.437516 
z
" clip-path="url(#pcfbbd8d326)" style="fill: #ff7f0e; opacity: 0.4"/>
   </g>
   <g id="patch_39">
    <path d="M 249.096904 260.521875 
L 258.966946 260.521875 
L 258.966946 233.630251 
L 249.096904 233.630251 
z
" clip-path="url(#pcfbbd8d326)" style="fill: #ff7f0e; opacity: 0.4"/>
   </g>
   <g id="patch_40">
    <path d="M 258.966946 260.521875 
L 268.836989 260.521875 
L 268.836989 236.991704 
L 258.966946 236.991704 
z
" clip-path="url(#pcfbbd8d326)" style="fill: #ff7f0e; opacity: 0.4"/>
   </g>
   <g id="patch_41">
    <path d="M 268.836989 260.521875 
L 278.707031 260.521875 
L 278.707031 253.798969 
L 268.836989 253.798969 
z
" clip-path="url(#pcfbbd8d326)" style="fill: #ff7f0e; opacity: 0.4"/>
   </g>
   <g id="patch_42">
    <path d="M 278.707031 260.521875 
L 288.577073 260.521875 
L 288.577073 250.437516 
L 278.707031 250.437516 
z
" clip-path="url(#pcfbbd8d326)" style="fill: #ff7f0e; opacity: 0.4"/>
   </g>
   <g id="patch_43">
    <path d="M 96.218471 260.521875 
L 102.139072 260.521875 
L 102.139072 244.064491 
L 96.218471 244.064491 
z
" clip-path="url(#pcfbbd8d326)" style="fill: #2ca02c; opacity: 0.4"/>
   </g>
   <g id="patch_44">
    <path d="M 102.139072 260.521875 
L 108.059674 260.521875 
L 108.059674 255.03608 
L 102.139072 255.03608 
z
" clip-path="url(#pcfbbd8d326)" style="fill: #2ca02c; opacity: 0.4"/>
   </g>
   <g id="patch_45">
    <path d="M 108.059674 260.521875 
L 113.980276 260.521875 
L 113.980276 255.03608 
L 108.059674 255.03608 
z
" clip-path="url(#pcfbbd8d326)" style="fill: #2ca02c; opacity: 0.4"/>
   </g>
   <g id="patch_46">
    <path d="M 113.980276 260.521875 
L 119.900877 260.521875 
L 119.900877 260.521875 
L 113.980276 260.521875 
z
" clip-path="url(#pcfbbd8d326)" style="fill: #2ca02c; opacity: 0.4"/>
   </g>
   <g id="patch_47">
    <path d="M 119.900877 260.521875 
L 125.821479 260.521875 
L 125.821479 233.092901 
L 119.900877 233.092901 
z
" clip-path="url(#pcfbbd8d326)" style="fill: #2ca02c; opacity: 0.4"/>
   </g>
   <g id="patch_48">
    <path d="M 125.821479 260.521875 
L 131.742081 260.521875 
L 131.742081 238.578696 
L 125.821479 238.578696 
z
" clip-path="url(#pcfbbd8d326)" style="fill: #2ca02c; opacity: 0.4"/>
   </g>
   <g id="patch_49">
    <path d="M 131.742081 260.521875 
L 137.662682 260.521875 
L 137.662682 233.092901 
L 131.742081 233.092901 
z
" clip-path="url(#pcfbbd8d326)" style="fill: #2ca02c; opacity: 0.4"/>
   </g>
   <g id="patch_50">
    <path d="M 137.662682 260.521875 
L 143.583284 260.521875 
L 143.583284 233.092901 
L 137.662682 233.092901 
z
" clip-path="url(#pcfbbd8d326)" style="fill: #2ca02c; opacity: 0.4"/>
   </g>
   <g id="patch_51">
    <path d="M 143.583284 260.521875 
L 149.503886 260.521875 
L 149.503886 227.607107 
L 143.583284 227.607107 
z
" clip-path="url(#pcfbbd8d326)" style="fill: #2ca02c; opacity: 0.4"/>
   </g>
   <g id="patch_52">
    <path d="M 149.503886 260.521875 
L 155.424487 260.521875 
L 155.424487 233.092901 
L 149.503886 233.092901 
z
" clip-path="url(#pcfbbd8d326)" style="fill: #2ca02c; opacity: 0.4"/>
   </g>
   <g id="patch_53">
    <path d="M 155.424487 260.521875 
L 161.345089 260.521875 
L 161.345089 211.149722 
L 155.424487 211.149722 
z
" clip-path="url(#pcfbbd8d326)" style="fill: #2ca02c; opacity: 0.4"/>
   </g>
   <g id="patch_54">
    <path d="M 161.345089 260.521875 
L 167.265691 260.521875 
L 167.265691 227.607107 
L 161.345089 227.607107 
z
" clip-path="url(#pcfbbd8d326)" style="fill: #2ca02c; opacity: 0.4"/>
   </g>
   <g id="patch_55">
    <path d="M 167.265691 260.521875 
L 173.186292 260.521875 
L 173.186292 194.692338 
L 167.265691 194.692338 
z
" clip-path="url(#pcfbbd8d326)" style="fill: #2ca02c; opacity: 0.4"/>
   </g>
   <g id="patch_56">
    <path d="M 173.186292 260.521875 
L 179.106894 260.521875 
L 179.106894 216.635517 
L 173.186292 216.635517 
z
" clip-path="url(#pcfbbd8d326)" style="fill: #2ca02c; opacity: 0.4"/>
   </g>
   <g id="patch_57">
    <path d="M 179.106894 260.521875 
L 185.027496 260.521875 
L 185.027496 216.635517 
L 179.106894 216.635517 
z
" clip-path="url(#pcfbbd8d326)" style="fill: #2ca02c; opacity: 0.4"/>
   </g>
   <g id="patch_58">
    <path d="M 185.027496 260.521875 
L 190.948097 260.521875 
L 190.948097 222.121312 
L 185.027496 222.121312 
z
" clip-path="url(#pcfbbd8d326)" style="fill: #2ca02c; opacity: 0.4"/>
   </g>
   <g id="patch_59">
    <path d="M 190.948097 260.521875 
L 196.868699 260.521875 
L 196.868699 244.064491 
L 190.948097 244.064491 
z
" clip-path="url(#pcfbbd8d326)" style="fill: #2ca02c; opacity: 0.4"/>
   </g>
   <g id="patch_60">
    <path d="M 196.868699 260.521875 
L 202.789301 260.521875 
L 202.789301 244.064491 
L 196.868699 244.064491 
z
" clip-path="url(#pcfbbd8d326)" style="fill: #2ca02c; opacity: 0.4"/>
   </g>
   <g id="patch_61">
    <path d="M 202.789301 260.521875 
L 208.709902 260.521875 
L 208.709902 255.03608 
L 202.789301 255.03608 
z
" clip-path="url(#pcfbbd8d326)" style="fill: #2ca02c; opacity: 0.4"/>
   </g>
   <g id="patch_62">
    <path d="M 208.709902 260.521875 
L 214.630504 260.521875 
L 214.630504 244.064491 
L 208.709902 244.064491 
z
" clip-path="url(#pcfbbd8d326)" style="fill: #2ca02c; opacity: 0.4"/>
   </g>
   <g id="matplotlib.axis_1">
    <g id="xtick_1">
     <g id="line2d_1">
      <defs>
       <path id="mb50a671331" d="M 0 0 
L 0 3.5 
" style="stroke: #000000; stroke-width: 0.8"/>
      </defs>
      <g>
       <use xlink:href="#mb50a671331" x="75.960815" y="260.521875" style="stroke: #000000; stroke-width: 0.8"/>
      </g>
     </g>
     <g id="text_1">
      <!-- 0.4 -->
      <g transform="translate(68.009252 275.120313) scale(0.1 -0.1)">
       <defs>
        <path id="DejaVuSans-30" d="M 2034 4250 
Q 1547 4250 1301 3770 
Q 1056 3291 1056 2328 
Q 1056 1369 1301 889 
Q 1547 409 2034 409 
Q 2525 409 2770 889 
Q 3016 1369 3016 2328 
Q 3016 3291 2770 3770 
Q 2525 4250 2034 4250 
z
M 2034 4750 
Q 2819 4750 3233 4129 
Q 3647 3509 3647 2328 
Q 3647 1150 3233 529 
Q 2819 -91 2034 -91 
Q 1250 -91 836 529 
Q 422 1150 422 2328 
Q 422 3509 836 4129 
Q 1250 4750 2034 4750 
z
" transform="scale(0.015625)"/>
        <path id="DejaVuSans-2e" d="M 684 794 
L 1344 794 
L 1344 0 
L 684 0 
L 684 794 
z
" transform="scale(0.015625)"/>
        <path id="DejaVuSans-34" d="M 2419 4116 
L 825 1625 
L 2419 1625 
L 2419 4116 
z
M 2253 4666 
L 3047 4666 
L 3047 1625 
L 3713 1625 
L 3713 1100 
L 3047 1100 
L 3047 0 
L 2419 0 
L 2419 1100 
L 313 1100 
L 313 1709 
L 2253 4666 
z
" transform="scale(0.015625)"/>
       </defs>
       <use xlink:href="#DejaVuSans-30"/>
       <use xlink:href="#DejaVuSans-2e" x="63.623047"/>
       <use xlink:href="#DejaVuSans-34" x="95.410156"/>
      </g>
     </g>
    </g>
    <g id="xtick_2">
     <g id="line2d_2">
      <g>
       <use xlink:href="#mb50a671331" x="126.58138" y="260.521875" style="stroke: #000000; stroke-width: 0.8"/>
      </g>
     </g>
     <g id="text_2">
      <!-- 0.6 -->
      <g transform="translate(118.629818 275.120313) scale(0.1 -0.1)">
       <defs>
        <path id="DejaVuSans-36" d="M 2113 2584 
Q 1688 2584 1439 2293 
Q 1191 2003 1191 1497 
Q 1191 994 1439 701 
Q 1688 409 2113 409 
Q 2538 409 2786 701 
Q 3034 994 3034 1497 
Q 3034 2003 2786 2293 
Q 2538 2584 2113 2584 
z
M 3366 4563 
L 3366 3988 
Q 3128 4100 2886 4159 
Q 2644 4219 2406 4219 
Q 1781 4219 1451 3797 
Q 1122 3375 1075 2522 
Q 1259 2794 1537 2939 
Q 1816 3084 2150 3084 
Q 2853 3084 3261 2657 
Q 3669 2231 3669 1497 
Q 3669 778 3244 343 
Q 2819 -91 2113 -91 
Q 1303 -91 875 529 
Q 447 1150 447 2328 
Q 447 3434 972 4092 
Q 1497 4750 2381 4750 
Q 2619 4750 2861 4703 
Q 3103 4656 3366 4563 
z
" transform="scale(0.015625)"/>
       </defs>
       <use xlink:href="#DejaVuSans-30"/>
       <use xlink:href="#DejaVuSans-2e" x="63.623047"/>
       <use xlink:href="#DejaVuSans-36" x="95.410156"/>
      </g>
     </g>
    </g>
    <g id="xtick_3">
     <g id="line2d_3">
      <g>
       <use xlink:href="#mb50a671331" x="177.201946" y="260.521875" style="stroke: #000000; stroke-width: 0.8"/>
      </g>
     </g>
     <g id="text_3">
      <!-- 0.8 -->
      <g transform="translate(169.250384 275.120313) scale(0.1 -0.1)">
       <defs>
        <path id="DejaVuSans-38" d="M 2034 2216 
Q 1584 2216 1326 1975 
Q 1069 1734 1069 1313 
Q 1069 891 1326 650 
Q 1584 409 2034 409 
Q 2484 409 2743 651 
Q 3003 894 3003 1313 
Q 3003 1734 2745 1975 
Q 2488 2216 2034 2216 
z
M 1403 2484 
Q 997 2584 770 2862 
Q 544 3141 544 3541 
Q 544 4100 942 4425 
Q 1341 4750 2034 4750 
Q 2731 4750 3128 4425 
Q 3525 4100 3525 3541 
Q 3525 3141 3298 2862 
Q 3072 2584 2669 2484 
Q 3125 2378 3379 2068 
Q 3634 1759 3634 1313 
Q 3634 634 3220 271 
Q 2806 -91 2034 -91 
Q 1263 -91 848 271 
Q 434 634 434 1313 
Q 434 1759 690 2068 
Q 947 2378 1403 2484 
z
M 1172 3481 
Q 1172 3119 1398 2916 
Q 1625 2713 2034 2713 
Q 2441 2713 2670 2916 
Q 2900 3119 2900 3481 
Q 2900 3844 2670 4047 
Q 2441 4250 2034 4250 
Q 1625 4250 1398 4047 
Q 1172 3844 1172 3481 
z
" transform="scale(0.015625)"/>
       </defs>
       <use xlink:href="#DejaVuSans-30"/>
       <use xlink:href="#DejaVuSans-2e" x="63.623047"/>
       <use xlink:href="#DejaVuSans-38" x="95.410156"/>
      </g>
     </g>
    </g>
    <g id="xtick_4">
     <g id="line2d_4">
      <g>
       <use xlink:href="#mb50a671331" x="227.822512" y="260.521875" style="stroke: #000000; stroke-width: 0.8"/>
      </g>
     </g>
     <g id="text_4">
      <!-- 1.0 -->
      <g transform="translate(219.870949 275.120313) scale(0.1 -0.1)">
       <defs>
        <path id="DejaVuSans-31" d="M 794 531 
L 1825 531 
L 1825 4091 
L 703 3866 
L 703 4441 
L 1819 4666 
L 2450 4666 
L 2450 531 
L 3481 531 
L 3481 0 
L 794 0 
L 794 531 
z
" transform="scale(0.015625)"/>
       </defs>
       <use xlink:href="#DejaVuSans-31"/>
       <use xlink:href="#DejaVuSans-2e" x="63.623047"/>
       <use xlink:href="#DejaVuSans-30" x="95.410156"/>
      </g>
     </g>
    </g>
    <g id="xtick_5">
     <g id="line2d_5">
      <g>
       <use xlink:href="#mb50a671331" x="278.443078" y="260.521875" style="stroke: #000000; stroke-width: 0.8"/>
      </g>
     </g>
     <g id="text_5">
      <!-- 1.2 -->
      <g transform="translate(270.491515 275.120313) scale(0.1 -0.1)">
       <defs>
        <path id="DejaVuSans-32" d="M 1228 531 
L 3431 531 
L 3431 0 
L 469 0 
L 469 531 
Q 828 903 1448 1529 
Q 2069 2156 2228 2338 
Q 2531 2678 2651 2914 
Q 2772 3150 2772 3378 
Q 2772 3750 2511 3984 
Q 2250 4219 1831 4219 
Q 1534 4219 1204 4116 
Q 875 4013 500 3803 
L 500 4441 
Q 881 4594 1212 4672 
Q 1544 4750 1819 4750 
Q 2544 4750 2975 4387 
Q 3406 4025 3406 3419 
Q 3406 3131 3298 2873 
Q 3191 2616 2906 2266 
Q 2828 2175 2409 1742 
Q 1991 1309 1228 531 
z
" transform="scale(0.015625)"/>
       </defs>
       <use xlink:href="#DejaVuSans-31"/>
       <use xlink:href="#DejaVuSans-2e" x="63.623047"/>
       <use xlink:href="#DejaVuSans-32" x="95.410156"/>
      </g>
     </g>
    </g>
   </g>
   <g id="matplotlib.axis_2">
    <g id="ytick_1">
     <g id="line2d_6">
      <defs>
       <path id="mba1cc49a81" d="M 0 0 
L -3.5 0 
" style="stroke: #000000; stroke-width: 0.8"/>
      </defs>
      <g>
       <use xlink:href="#mba1cc49a81" x="57.615" y="260.521875" style="stroke: #000000; stroke-width: 0.8"/>
      </g>
     </g>
     <g id="text_6">
      <!-- 0.0 -->
      <g transform="translate(34.711875 264.321094) scale(0.1 -0.1)">
       <use xlink:href="#DejaVuSans-30"/>
       <use xlink:href="#DejaVuSans-2e" x="63.623047"/>
       <use xlink:href="#DejaVuSans-30" x="95.410156"/>
      </g>
     </g>
    </g>
    <g id="ytick_2">
     <g id="line2d_7">
      <g>
       <use xlink:href="#mba1cc49a81" x="57.615" y="230.044889" style="stroke: #000000; stroke-width: 0.8"/>
      </g>
     </g>
     <g id="text_7">
      <!-- 2.5 -->
      <g transform="translate(34.711875 233.844108) scale(0.1 -0.1)">
       <defs>
        <path id="DejaVuSans-35" d="M 691 4666 
L 3169 4666 
L 3169 4134 
L 1269 4134 
L 1269 2991 
Q 1406 3038 1543 3061 
Q 1681 3084 1819 3084 
Q 2600 3084 3056 2656 
Q 3513 2228 3513 1497 
Q 3513 744 3044 326 
Q 2575 -91 1722 -91 
Q 1428 -91 1123 -41 
Q 819 9 494 109 
L 494 744 
Q 775 591 1075 516 
Q 1375 441 1709 441 
Q 2250 441 2565 725 
Q 2881 1009 2881 1497 
Q 2881 1984 2565 2268 
Q 2250 2553 1709 2553 
Q 1456 2553 1204 2497 
Q 953 2441 691 2322 
L 691 4666 
z
" transform="scale(0.015625)"/>
       </defs>
       <use xlink:href="#DejaVuSans-32"/>
       <use xlink:href="#DejaVuSans-2e" x="63.623047"/>
       <use xlink:href="#DejaVuSans-35" x="95.410156"/>
      </g>
     </g>
    </g>
    <g id="ytick_3">
     <g id="line2d_8">
      <g>
       <use xlink:href="#mba1cc49a81" x="57.615" y="199.567903" style="stroke: #000000; stroke-width: 0.8"/>
      </g>
     </g>
     <g id="text_8">
      <!-- 5.0 -->
      <g transform="translate(34.711875 203.367122) scale(0.1 -0.1)">
       <use xlink:href="#DejaVuSans-35"/>
       <use xlink:href="#DejaVuSans-2e" x="63.623047"/>
       <use xlink:href="#DejaVuSans-30" x="95.410156"/>
      </g>
     </g>
    </g>
    <g id="ytick_4">
     <g id="line2d_9">
      <g>
       <use xlink:href="#mba1cc49a81" x="57.615" y="169.090918" style="stroke: #000000; stroke-width: 0.8"/>
      </g>
     </g>
     <g id="text_9">
      <!-- 7.5 -->
      <g transform="translate(34.711875 172.890136) scale(0.1 -0.1)">
       <defs>
        <path id="DejaVuSans-37" d="M 525 4666 
L 3525 4666 
L 3525 4397 
L 1831 0 
L 1172 0 
L 2766 4134 
L 525 4134 
L 525 4666 
z
" transform="scale(0.015625)"/>
       </defs>
       <use xlink:href="#DejaVuSans-37"/>
       <use xlink:href="#DejaVuSans-2e" x="63.623047"/>
       <use xlink:href="#DejaVuSans-35" x="95.410156"/>
      </g>
     </g>
    </g>
    <g id="ytick_5">
     <g id="line2d_10">
      <g>
       <use xlink:href="#mba1cc49a81" x="57.615" y="138.613932" style="stroke: #000000; stroke-width: 0.8"/>
      </g>
     </g>
     <g id="text_10">
      <!-- 10.0 -->
      <g transform="translate(28.349375 142.41315) scale(0.1 -0.1)">
       <use xlink:href="#DejaVuSans-31"/>
       <use xlink:href="#DejaVuSans-30" x="63.623047"/>
       <use xlink:href="#DejaVuSans-2e" x="127.246094"/>
       <use xlink:href="#DejaVuSans-30" x="159.033203"/>
      </g>
     </g>
    </g>
    <g id="ytick_6">
     <g id="line2d_11">
      <g>
       <use xlink:href="#mba1cc49a81" x="57.615" y="108.136946" style="stroke: #000000; stroke-width: 0.8"/>
      </g>
     </g>
     <g id="text_11">
      <!-- 12.5 -->
      <g transform="translate(28.349375 111.936165) scale(0.1 -0.1)">
       <use xlink:href="#DejaVuSans-31"/>
       <use xlink:href="#DejaVuSans-32" x="63.623047"/>
       <use xlink:href="#DejaVuSans-2e" x="127.246094"/>
       <use xlink:href="#DejaVuSans-35" x="159.033203"/>
      </g>
     </g>
    </g>
    <g id="ytick_7">
     <g id="line2d_12">
      <g>
       <use xlink:href="#mba1cc49a81" x="57.615" y="77.65996" style="stroke: #000000; stroke-width: 0.8"/>
      </g>
     </g>
     <g id="text_12">
      <!-- 15.0 -->
      <g transform="translate(28.349375 81.459179) scale(0.1 -0.1)">
       <use xlink:href="#DejaVuSans-31"/>
       <use xlink:href="#DejaVuSans-35" x="63.623047"/>
       <use xlink:href="#DejaVuSans-2e" x="127.246094"/>
       <use xlink:href="#DejaVuSans-30" x="159.033203"/>
      </g>
     </g>
    </g>
    <g id="ytick_8">
     <g id="line2d_13">
      <g>
       <use xlink:href="#mba1cc49a81" x="57.615" y="47.182974" style="stroke: #000000; stroke-width: 0.8"/>
      </g>
     </g>
     <g id="text_13">
      <!-- 17.5 -->
      <g transform="translate(28.349375 50.982193) scale(0.1 -0.1)">
       <use xlink:href="#DejaVuSans-31"/>
       <use xlink:href="#DejaVuSans-37" x="63.623047"/>
       <use xlink:href="#DejaVuSans-2e" x="127.246094"/>
       <use xlink:href="#DejaVuSans-35" x="159.033203"/>
      </g>
     </g>
    </g>
    <g id="text_14">
     <!-- Fraction of cells -->
     <g transform="translate(21.437813 198.811719) rotate(-90) scale(0.14 -0.14)">
      <defs>
       <path id="DejaVuSans-46" d="M 628 4666 
L 3309 4666 
L 3309 4134 
L 1259 4134 
L 1259 2759 
L 3109 2759 
L 3109 2228 
L 1259 2228 
L 1259 0 
L 628 0 
L 628 4666 
z
" transform="scale(0.015625)"/>
       <path id="DejaVuSans-72" d="M 2631 2963 
Q 2534 3019 2420 3045 
Q 2306 3072 2169 3072 
Q 1681 3072 1420 2755 
Q 1159 2438 1159 1844 
L 1159 0 
L 581 0 
L 581 3500 
L 1159 3500 
L 1159 2956 
Q 1341 3275 1631 3429 
Q 1922 3584 2338 3584 
Q 2397 3584 2469 3576 
Q 2541 3569 2628 3553 
L 2631 2963 
z
" transform="scale(0.015625)"/>
       <path id="DejaVuSans-61" d="M 2194 1759 
Q 1497 1759 1228 1600 
Q 959 1441 959 1056 
Q 959 750 1161 570 
Q 1363 391 1709 391 
Q 2188 391 2477 730 
Q 2766 1069 2766 1631 
L 2766 1759 
L 2194 1759 
z
M 3341 1997 
L 3341 0 
L 2766 0 
L 2766 531 
Q 2569 213 2275 61 
Q 1981 -91 1556 -91 
Q 1019 -91 701 211 
Q 384 513 384 1019 
Q 384 1609 779 1909 
Q 1175 2209 1959 2209 
L 2766 2209 
L 2766 2266 
Q 2766 2663 2505 2880 
Q 2244 3097 1772 3097 
Q 1472 3097 1187 3025 
Q 903 2953 641 2809 
L 641 3341 
Q 956 3463 1253 3523 
Q 1550 3584 1831 3584 
Q 2591 3584 2966 3190 
Q 3341 2797 3341 1997 
z
" transform="scale(0.015625)"/>
       <path id="DejaVuSans-63" d="M 3122 3366 
L 3122 2828 
Q 2878 2963 2633 3030 
Q 2388 3097 2138 3097 
Q 1578 3097 1268 2742 
Q 959 2388 959 1747 
Q 959 1106 1268 751 
Q 1578 397 2138 397 
Q 2388 397 2633 464 
Q 2878 531 3122 666 
L 3122 134 
Q 2881 22 2623 -34 
Q 2366 -91 2075 -91 
Q 1284 -91 818 406 
Q 353 903 353 1747 
Q 353 2603 823 3093 
Q 1294 3584 2113 3584 
Q 2378 3584 2631 3529 
Q 2884 3475 3122 3366 
z
" transform="scale(0.015625)"/>
       <path id="DejaVuSans-74" d="M 1172 4494 
L 1172 3500 
L 2356 3500 
L 2356 3053 
L 1172 3053 
L 1172 1153 
Q 1172 725 1289 603 
Q 1406 481 1766 481 
L 2356 481 
L 2356 0 
L 1766 0 
Q 1100 0 847 248 
Q 594 497 594 1153 
L 594 3053 
L 172 3053 
L 172 3500 
L 594 3500 
L 594 4494 
L 1172 4494 
z
" transform="scale(0.015625)"/>
       <path id="DejaVuSans-69" d="M 603 3500 
L 1178 3500 
L 1178 0 
L 603 0 
L 603 3500 
z
M 603 4863 
L 1178 4863 
L 1178 4134 
L 603 4134 
L 603 4863 
z
" transform="scale(0.015625)"/>
       <path id="DejaVuSans-6f" d="M 1959 3097 
Q 1497 3097 1228 2736 
Q 959 2375 959 1747 
Q 959 1119 1226 758 
Q 1494 397 1959 397 
Q 2419 397 2687 759 
Q 2956 1122 2956 1747 
Q 2956 2369 2687 2733 
Q 2419 3097 1959 3097 
z
M 1959 3584 
Q 2709 3584 3137 3096 
Q 3566 2609 3566 1747 
Q 3566 888 3137 398 
Q 2709 -91 1959 -91 
Q 1206 -91 779 398 
Q 353 888 353 1747 
Q 353 2609 779 3096 
Q 1206 3584 1959 3584 
z
" transform="scale(0.015625)"/>
       <path id="DejaVuSans-6e" d="M 3513 2113 
L 3513 0 
L 2938 0 
L 2938 2094 
Q 2938 2591 2744 2837 
Q 2550 3084 2163 3084 
Q 1697 3084 1428 2787 
Q 1159 2491 1159 1978 
L 1159 0 
L 581 0 
L 581 3500 
L 1159 3500 
L 1159 2956 
Q 1366 3272 1645 3428 
Q 1925 3584 2291 3584 
Q 2894 3584 3203 3211 
Q 3513 2838 3513 2113 
z
" transform="scale(0.015625)"/>
       <path id="DejaVuSans-20" transform="scale(0.015625)"/>
       <path id="DejaVuSans-66" d="M 2375 4863 
L 2375 4384 
L 1825 4384 
Q 1516 4384 1395 4259 
Q 1275 4134 1275 3809 
L 1275 3500 
L 2222 3500 
L 2222 3053 
L 1275 3053 
L 1275 0 
L 697 0 
L 697 3053 
L 147 3053 
L 147 3500 
L 697 3500 
L 697 3744 
Q 697 4328 969 4595 
Q 1241 4863 1831 4863 
L 2375 4863 
z
" transform="scale(0.015625)"/>
       <path id="DejaVuSans-65" d="M 3597 1894 
L 3597 1613 
L 953 1613 
Q 991 1019 1311 708 
Q 1631 397 2203 397 
Q 2534 397 2845 478 
Q 3156 559 3463 722 
L 3463 178 
Q 3153 47 2828 -22 
Q 2503 -91 2169 -91 
Q 1331 -91 842 396 
Q 353 884 353 1716 
Q 353 2575 817 3079 
Q 1281 3584 2069 3584 
Q 2775 3584 3186 3129 
Q 3597 2675 3597 1894 
z
M 3022 2063 
Q 3016 2534 2758 2815 
Q 2500 3097 2075 3097 
Q 1594 3097 1305 2825 
Q 1016 2553 972 2059 
L 3022 2063 
z
" transform="scale(0.015625)"/>
       <path id="DejaVuSans-6c" d="M 603 4863 
L 1178 4863 
L 1178 0 
L 603 0 
L 603 4863 
z
" transform="scale(0.015625)"/>
       <path id="DejaVuSans-73" d="M 2834 3397 
L 2834 2853 
Q 2591 2978 2328 3040 
Q 2066 3103 1784 3103 
Q 1356 3103 1142 2972 
Q 928 2841 928 2578 
Q 928 2378 1081 2264 
Q 1234 2150 1697 2047 
L 1894 2003 
Q 2506 1872 2764 1633 
Q 3022 1394 3022 966 
Q 3022 478 2636 193 
Q 2250 -91 1575 -91 
Q 1294 -91 989 -36 
Q 684 19 347 128 
L 347 722 
Q 666 556 975 473 
Q 1284 391 1588 391 
Q 1994 391 2212 530 
Q 2431 669 2431 922 
Q 2431 1156 2273 1281 
Q 2116 1406 1581 1522 
L 1381 1569 
Q 847 1681 609 1914 
Q 372 2147 372 2553 
Q 372 3047 722 3315 
Q 1072 3584 1716 3584 
Q 2034 3584 2315 3537 
Q 2597 3491 2834 3397 
z
" transform="scale(0.015625)"/>
      </defs>
      <use xlink:href="#DejaVuSans-46"/>
      <use xlink:href="#DejaVuSans-72" x="50.269531"/>
      <use xlink:href="#DejaVuSans-61" x="91.382812"/>
      <use xlink:href="#DejaVuSans-63" x="152.662109"/>
      <use xlink:href="#DejaVuSans-74" x="207.642578"/>
      <use xlink:href="#DejaVuSans-69" x="246.851562"/>
      <use xlink:href="#DejaVuSans-6f" x="274.634766"/>
      <use xlink:href="#DejaVuSans-6e" x="335.816406"/>
      <use xlink:href="#DejaVuSans-20" x="399.195312"/>
      <use xlink:href="#DejaVuSans-6f" x="430.982422"/>
      <use xlink:href="#DejaVuSans-66" x="492.164062"/>
      <use xlink:href="#DejaVuSans-20" x="527.369141"/>
      <use xlink:href="#DejaVuSans-63" x="559.15625"/>
      <use xlink:href="#DejaVuSans-65" x="614.136719"/>
      <use xlink:href="#DejaVuSans-6c" x="675.660156"/>
      <use xlink:href="#DejaVuSans-6c" x="703.443359"/>
      <use xlink:href="#DejaVuSans-73" x="731.226562"/>
     </g>
    </g>
   </g>
   <g id="line2d_14">
    <path d="M -1 260.521077 
L 0.285625 260.520878 
L 5.398814 260.517558 
L 10.512002 260.505187 
L 15.625191 260.464275 
L 20.738379 260.34423 
L 25.851568 260.031952 
L 30.964756 259.312726 
L 36.077945 257.849087 
L 41.191133 255.225564 
L 46.304321 251.103921 
L 51.41751 245.474476 
L 56.530698 238.884849 
L 61.643887 232.458285 
L 66.757075 227.581612 
L 71.870264 225.354351 
L 76.983452 226.095991 
L 82.096641 229.214092 
L 87.209829 233.506866 
L 92.323018 237.693945 
L 97.436206 240.864422 
L 102.549395 242.652682 
L 107.662583 243.157511 
L 112.775771 242.742818 
L 117.88896 241.852606 
L 123.002148 240.898386 
L 128.115337 240.208234 
L 133.228525 239.9993 
L 138.341714 240.351691 
L 143.454902 241.198141 
L 148.568091 242.361265 
L 153.681279 243.642685 
L 158.794468 244.918282 
L 163.907656 246.176321 
L 169.020845 247.475765 
L 174.134033 248.864529 
L 179.247221 250.323025 
L 184.36041 251.768755 
L 189.473598 253.1065 
L 194.586787 254.2801 
L 199.699975 255.290932 
L 204.813164 256.178681 
L 209.926352 256.985704 
L 215.039541 257.731324 
L 220.152729 258.408535 
L 225.265918 258.997346 
L 230.379106 259.480636 
L 235.492295 259.852802 
L 240.605483 260.120426 
L 245.718671 260.298912 
L 250.83186 260.40829 
L 255.945048 260.469252 
L 261.058237 260.499867 
L 266.171425 260.513615 
L 271.284614 260.519106 
L 276.397802 260.521048 
L 281.510991 260.521656 
L 286.624179 260.521823 
L 291.737368 260.521864 
L 296.850556 260.521873 
L 301.963745 260.521875 
L 307.076933 260.521875 
L 312.190121 260.521875 
L 317.30331 260.521875 
L 322.416498 260.521875 
L 327.529687 260.521875 
L 332.642875 260.521875 
L 337.756064 260.521875 
L 342.869252 260.521875 
L 347.982441 260.521875 
L 353.095629 260.521875 
L 358.208818 260.521875 
L 363.322006 260.521875 
L 368.435195 260.521875 
L 373.548383 260.521875 
L 378.661571 260.521875 
L 383.77476 260.521875 
L 388.887948 260.521875 
L 394.001137 260.521875 
L 399.114325 260.521875 
L 404.227514 260.521875 
L 409.340702 260.521875 
L 414.453891 260.521875 
L 419.567079 260.521875 
L 424.680268 260.521875 
L 429.793456 260.521875 
L 434.906645 260.521875 
L 440.019833 260.521875 
L 445.133021 260.521875 
L 450.24621 260.521875 
L 455.359398 260.521875 
L 460.472587 260.521875 
L 465.585775 260.521875 
L 470.698964 260.521875 
L 475.812152 260.521875 
L 480.925341 260.521875 
" clip-path="url(#pcfbbd8d326)" style="fill: none; stroke: #1f77b4; stroke-width: 1.5; stroke-linecap: square"/>
   </g>
   <g id="line2d_15">
    <path d="M -1 260.521875 
L 0.285625 260.521875 
L 5.398814 260.521875 
L 10.512002 260.521873 
L 15.625191 260.521863 
L 20.738379 260.521825 
L 25.851568 260.521681 
L 30.964756 260.521191 
L 36.077945 260.519705 
L 41.191133 260.515657 
L 46.304321 260.505788 
L 51.41751 260.484285 
L 56.530698 260.442505 
L 61.643887 260.370319 
L 66.757075 260.259779 
L 71.870264 260.110278 
L 76.983452 259.932119 
L 82.096641 259.744421 
L 87.209829 259.565667 
L 92.323018 259.400614 
L 97.436206 259.231621 
L 102.549395 259.021062 
L 107.662583 258.7241 
L 112.775771 258.303833 
L 117.88896 257.740431 
L 123.002148 257.032455 
L 128.115337 256.194643 
L 133.228525 255.255214 
L 138.341714 254.24942 
L 143.454902 253.204282 
L 148.568091 252.1175 
L 153.681279 250.944711 
L 158.794468 249.610694 
L 163.907656 248.04625 
L 169.020845 246.232995 
L 174.134033 244.229003 
L 179.247221 242.157329 
L 184.36041 240.160709 
L 189.473598 238.345132 
L 194.586787 236.742054 
L 199.699975 235.311363 
L 204.813164 233.988382 
L 209.926352 232.754256 
L 215.039541 231.69019 
L 220.152729 230.975791 
L 225.265918 230.818922 
L 230.379106 231.349182 
L 235.492295 232.539837 
L 240.605483 234.213422 
L 245.718671 236.132957 
L 250.83186 238.120227 
L 255.945048 240.123317 
L 261.058237 242.194841 
L 266.171425 244.407974 
L 271.284614 246.775666 
L 276.397802 249.22319 
L 281.510991 251.616887 
L 286.624179 253.816157 
L 291.737368 255.714167 
L 296.850556 257.254178 
L 301.963745 258.427517 
L 307.076933 259.263597 
L 312.190121 259.81751 
L 317.30331 260.156543 
L 322.416498 260.347153 
L 327.529687 260.445131 
L 332.642875 260.491016 
L 337.756064 260.510544 
L 342.869252 260.518083 
L 347.982441 260.52072 
L 353.095629 260.521555 
L 358.208818 260.521795 
L 363.322006 260.521857 
L 368.435195 260.521871 
L 373.548383 260.521874 
L 378.661571 260.521875 
L 383.77476 260.521875 
L 388.887948 260.521875 
L 394.001137 260.521875 
L 399.114325 260.521875 
L 404.227514 260.521875 
L 409.340702 260.521875 
L 414.453891 260.521875 
L 419.567079 260.521875 
L 424.680268 260.521875 
L 429.793456 260.521875 
L 434.906645 260.521875 
L 440.019833 260.521875 
L 445.133021 260.521875 
L 450.24621 260.521875 
L 455.359398 260.521875 
L 460.472587 260.521875 
L 465.585775 260.521875 
L 470.698964 260.521875 
L 475.812152 260.521875 
L 480.925341 260.521875 
" clip-path="url(#pcfbbd8d326)" style="fill: none; stroke: #ff7f0e; stroke-width: 1.5; stroke-linecap: square"/>
   </g>
   <g id="line2d_16">
    <path d="M -1 260.521875 
L 0.285625 260.521875 
L 5.398814 260.521875 
L 10.512002 260.521875 
L 15.625191 260.521875 
L 20.738379 260.521875 
L 25.851568 260.521875 
L 30.964756 260.521875 
L 36.077945 260.521875 
L 41.191133 260.521871 
L 46.304321 260.521827 
L 51.41751 260.52146 
L 56.530698 260.519031 
L 61.643887 260.506323 
L 66.757075 260.453953 
L 71.870264 260.284466 
L 76.983452 259.855535 
L 82.096641 259.011415 
L 87.209829 257.728232 
L 92.323018 256.225457 
L 97.436206 254.828565 
L 102.549395 253.610272 
L 107.662583 252.200633 
L 112.775771 250.07057 
L 117.88896 247.039877 
L 123.002148 243.450569 
L 128.115337 239.843502 
L 133.228525 236.559549 
L 138.341714 233.635992 
L 143.454902 230.877267 
L 148.568091 227.907867 
L 153.681279 224.342377 
L 158.794468 220.199071 
L 163.907656 216.267539 
L 169.020845 213.945757 
L 174.134033 214.480431 
L 179.247221 218.190276 
L 184.36041 224.302106 
L 189.473598 231.413094 
L 194.586787 238.154475 
L 199.699975 243.696306 
L 204.813164 247.901183 
L 209.926352 251.11035 
L 215.039541 253.754283 
L 220.152729 256.044442 
L 225.265918 257.92018 
L 230.379106 259.241482 
L 235.492295 260.001195 
L 240.605483 260.349604 
L 245.718671 260.47593 
L 250.83186 260.512052 
L 255.945048 260.520196 
L 261.058237 260.521646 
L 266.171425 260.52185 
L 271.284614 260.521873 
L 276.397802 260.521875 
L 281.510991 260.521875 
L 286.624179 260.521875 
L 291.737368 260.521875 
L 296.850556 260.521875 
L 301.963745 260.521875 
L 307.076933 260.521875 
L 312.190121 260.521875 
L 317.30331 260.521875 
L 322.416498 260.521875 
L 327.529687 260.521875 
L 332.642875 260.521875 
L 337.756064 260.521875 
L 342.869252 260.521875 
L 347.982441 260.521875 
L 353.095629 260.521875 
L 358.208818 260.521875 
L 363.322006 260.521875 
L 368.435195 260.521875 
L 373.548383 260.521875 
L 378.661571 260.521875 
L 383.77476 260.521875 
L 388.887948 260.521875 
L 394.001137 260.521875 
L 399.114325 260.521875 
L 404.227514 260.521875 
L 409.340702 260.521875 
L 414.453891 260.521875 
L 419.567079 260.521875 
L 424.680268 260.521875 
L 429.793456 260.521875 
L 434.906645 260.521875 
L 440.019833 260.521875 
L 445.133021 260.521875 
L 450.24621 260.521875 
L 455.359398 260.521875 
L 460.472587 260.521875 
L 465.585775 260.521875 
L 470.698964 260.521875 
L 475.812152 260.521875 
L 480.925341 260.521875 
" clip-path="url(#pcfbbd8d326)" style="fill: none; stroke: #2ca02c; stroke-width: 1.5; stroke-linecap: square"/>
   </g>
   <g id="patch_63">
    <path d="M 57.615 260.521875 
L 57.615 27.437813 
" style="fill: none; stroke: #000000; stroke-width: 0.8; stroke-linejoin: miter; stroke-linecap: square"/>
   </g>
   <g id="patch_64">
    <path d="M 295.482813 260.521875 
L 295.482813 27.437813 
" style="fill: none; stroke: #000000; stroke-width: 0.8; stroke-linejoin: miter; stroke-linecap: square"/>
   </g>
   <g id="patch_65">
    <path d="M 57.615 260.521875 
L 295.482813 260.521875 
" style="fill: none; stroke: #000000; stroke-width: 0.8; stroke-linejoin: miter; stroke-linecap: square"/>
   </g>
   <g id="patch_66">
    <path d="M 57.615 27.437812 
L 295.482813 27.437812 
" style="fill: none; stroke: #000000; stroke-width: 0.8; stroke-linejoin: miter; stroke-linecap: square"/>
   </g>
   <g id="text_15">
    <!-- SRV -->
    <g transform="translate(162.837656 21.437813) scale(0.14 -0.14)">
     <defs>
      <path id="DejaVuSans-53" d="M 3425 4513 
L 3425 3897 
Q 3066 4069 2747 4153 
Q 2428 4238 2131 4238 
Q 1616 4238 1336 4038 
Q 1056 3838 1056 3469 
Q 1056 3159 1242 3001 
Q 1428 2844 1947 2747 
L 2328 2669 
Q 3034 2534 3370 2195 
Q 3706 1856 3706 1288 
Q 3706 609 3251 259 
Q 2797 -91 1919 -91 
Q 1588 -91 1214 -16 
Q 841 59 441 206 
L 441 856 
Q 825 641 1194 531 
Q 1563 422 1919 422 
Q 2459 422 2753 634 
Q 3047 847 3047 1241 
Q 3047 1584 2836 1778 
Q 2625 1972 2144 2069 
L 1759 2144 
Q 1053 2284 737 2584 
Q 422 2884 422 3419 
Q 422 4038 858 4394 
Q 1294 4750 2059 4750 
Q 2388 4750 2728 4690 
Q 3069 4631 3425 4513 
z
" transform="scale(0.015625)"/>
      <path id="DejaVuSans-52" d="M 2841 2188 
Q 3044 2119 3236 1894 
Q 3428 1669 3622 1275 
L 4263 0 
L 3584 0 
L 2988 1197 
Q 2756 1666 2539 1819 
Q 2322 1972 1947 1972 
L 1259 1972 
L 1259 0 
L 628 0 
L 628 4666 
L 2053 4666 
Q 2853 4666 3247 4331 
Q 3641 3997 3641 3322 
Q 3641 2881 3436 2590 
Q 3231 2300 2841 2188 
z
M 1259 4147 
L 1259 2491 
L 2053 2491 
Q 2509 2491 2742 2702 
Q 2975 2913 2975 3322 
Q 2975 3731 2742 3939 
Q 2509 4147 2053 4147 
L 1259 4147 
z
" transform="scale(0.015625)"/>
      <path id="DejaVuSans-56" d="M 1831 0 
L 50 4666 
L 709 4666 
L 2188 738 
L 3669 4666 
L 4325 4666 
L 2547 0 
L 1831 0 
z
" transform="scale(0.015625)"/>
     </defs>
     <use xlink:href="#DejaVuSans-53"/>
     <use xlink:href="#DejaVuSans-52" x="63.476562"/>
     <use xlink:href="#DejaVuSans-56" x="127.458984"/>
    </g>
   </g>
   <g id="legend_1">
    <g id="patch_67">
     <path d="M 207.093438 89.879062 
L 287.082813 89.879062 
Q 289.482813 89.879062 289.482813 87.479062 
L 289.482813 35.837812 
Q 289.482813 33.437812 287.082813 33.437812 
L 207.093438 33.437812 
Q 204.693438 33.437812 204.693438 35.837812 
L 204.693438 87.479062 
Q 204.693438 89.879062 207.093438 89.879062 
z
" style="fill: #ffffff; opacity: 0.8; stroke: #cccccc; stroke-linejoin: miter"/>
    </g>
    <g id="patch_68">
     <path d="M 209.493438 47.355937 
L 233.493438 47.355937 
L 233.493438 38.955937 
L 209.493438 38.955937 
z
" style="fill: #1f77b4; opacity: 0.4"/>
    </g>
    <g id="text_16">
     <!-- control -->
     <g transform="translate(243.093438 47.355937) scale(0.12 -0.12)">
      <use xlink:href="#DejaVuSans-63"/>
      <use xlink:href="#DejaVuSans-6f" x="54.980469"/>
      <use xlink:href="#DejaVuSans-6e" x="116.162109"/>
      <use xlink:href="#DejaVuSans-74" x="179.541016"/>
      <use xlink:href="#DejaVuSans-72" x="218.75"/>
      <use xlink:href="#DejaVuSans-6f" x="257.613281"/>
      <use xlink:href="#DejaVuSans-6c" x="318.794922"/>
     </g>
    </g>
    <g id="patch_69">
     <path d="M 209.493438 64.969687 
L 233.493438 64.969687 
L 233.493438 56.569687 
L 209.493438 56.569687 
z
" style="fill: #ff7f0e; opacity: 0.4"/>
    </g>
    <g id="text_17">
     <!-- cytd -->
     <g transform="translate(243.093438 64.969687) scale(0.12 -0.12)">
      <defs>
       <path id="DejaVuSans-79" d="M 2059 -325 
Q 1816 -950 1584 -1140 
Q 1353 -1331 966 -1331 
L 506 -1331 
L 506 -850 
L 844 -850 
Q 1081 -850 1212 -737 
Q 1344 -625 1503 -206 
L 1606 56 
L 191 3500 
L 800 3500 
L 1894 763 
L 2988 3500 
L 3597 3500 
L 2059 -325 
z
" transform="scale(0.015625)"/>
       <path id="DejaVuSans-64" d="M 2906 2969 
L 2906 4863 
L 3481 4863 
L 3481 0 
L 2906 0 
L 2906 525 
Q 2725 213 2448 61 
Q 2172 -91 1784 -91 
Q 1150 -91 751 415 
Q 353 922 353 1747 
Q 353 2572 751 3078 
Q 1150 3584 1784 3584 
Q 2172 3584 2448 3432 
Q 2725 3281 2906 2969 
z
M 947 1747 
Q 947 1113 1208 752 
Q 1469 391 1925 391 
Q 2381 391 2643 752 
Q 2906 1113 2906 1747 
Q 2906 2381 2643 2742 
Q 2381 3103 1925 3103 
Q 1469 3103 1208 2742 
Q 947 2381 947 1747 
z
" transform="scale(0.015625)"/>
      </defs>
      <use xlink:href="#DejaVuSans-63"/>
      <use xlink:href="#DejaVuSans-79" x="54.980469"/>
      <use xlink:href="#DejaVuSans-74" x="114.160156"/>
      <use xlink:href="#DejaVuSans-64" x="153.369141"/>
     </g>
    </g>
    <g id="patch_70">
     <path d="M 209.493438 82.583437 
L 233.493438 82.583437 
L 233.493438 74.183437 
L 209.493438 74.183437 
z
" style="fill: #2ca02c; opacity: 0.4"/>
    </g>
    <g id="text_18">
     <!-- jasp -->
     <g transform="translate(243.093438 82.583437) scale(0.12 -0.12)">
      <defs>
       <path id="DejaVuSans-6a" d="M 603 3500 
L 1178 3500 
L 1178 -63 
Q 1178 -731 923 -1031 
Q 669 -1331 103 -1331 
L -116 -1331 
L -116 -844 
L 38 -844 
Q 366 -844 484 -692 
Q 603 -541 603 -63 
L 603 3500 
z
M 603 4863 
L 1178 4863 
L 1178 4134 
L 603 4134 
L 603 4863 
z
" transform="scale(0.015625)"/>
       <path id="DejaVuSans-70" d="M 1159 525 
L 1159 -1331 
L 581 -1331 
L 581 3500 
L 1159 3500 
L 1159 2969 
Q 1341 3281 1617 3432 
Q 1894 3584 2278 3584 
Q 2916 3584 3314 3078 
Q 3713 2572 3713 1747 
Q 3713 922 3314 415 
Q 2916 -91 2278 -91 
Q 1894 -91 1617 61 
Q 1341 213 1159 525 
z
M 3116 1747 
Q 3116 2381 2855 2742 
Q 2594 3103 2138 3103 
Q 1681 3103 1420 2742 
Q 1159 2381 1159 1747 
Q 1159 1113 1420 752 
Q 1681 391 2138 391 
Q 2594 391 2855 752 
Q 3116 1113 3116 1747 
z
" transform="scale(0.015625)"/>
      </defs>
      <use xlink:href="#DejaVuSans-6a"/>
      <use xlink:href="#DejaVuSans-61" x="27.783203"/>
      <use xlink:href="#DejaVuSans-73" x="89.0625"/>
      <use xlink:href="#DejaVuSans-70" x="141.162109"/>
     </g>
    </g>
   </g>
  </g>
  <g id="axes_2">
   <g id="patch_71">
    <path d="M 327.332187 260.521875 
L 565.2 260.521875 
L 565.2 27.437812 
L 327.332187 27.437812 
z
" style="fill: #ffffff"/>
   </g>
   <g id="patch_72">
    <path d="M 373.71902 260.521875 
L 378.215985 260.521875 
L 378.215985 125.98562 
L 373.71902 125.98562 
z
" clip-path="url(#p563e7893e0)" style="fill: #1f77b4; opacity: 0.4"/>
   </g>
   <g id="patch_73">
    <path d="M 378.215985 260.521875 
L 382.71295 260.521875 
L 382.71295 38.537054 
L 378.215985 38.537054 
z
" clip-path="url(#p563e7893e0)" style="fill: #1f77b4; opacity: 0.4"/>
   </g>
   <g id="patch_74">
    <path d="M 382.71295 260.521875 
L 387.209915 260.521875 
L 387.209915 125.98562 
L 382.71295 125.98562 
z
" clip-path="url(#p563e7893e0)" style="fill: #1f77b4; opacity: 0.4"/>
   </g>
   <g id="patch_75">
    <path d="M 387.209915 260.521875 
L 391.706879 260.521875 
L 391.706879 179.800122 
L 387.209915 179.800122 
z
" clip-path="url(#p563e7893e0)" style="fill: #1f77b4; opacity: 0.4"/>
   </g>
   <g id="patch_76">
    <path d="M 391.706879 260.521875 
L 396.203844 260.521875 
L 396.203844 223.524405 
L 391.706879 223.524405 
z
" clip-path="url(#p563e7893e0)" style="fill: #1f77b4; opacity: 0.4"/>
   </g>
   <g id="patch_77">
    <path d="M 396.203844 260.521875 
L 400.700809 260.521875 
L 400.700809 230.251218 
L 396.203844 230.251218 
z
" clip-path="url(#p563e7893e0)" style="fill: #1f77b4; opacity: 0.4"/>
   </g>
   <g id="patch_78">
    <path d="M 400.700809 260.521875 
L 405.197774 260.521875 
L 405.197774 243.704843 
L 400.700809 243.704843 
z
" clip-path="url(#p563e7893e0)" style="fill: #1f77b4; opacity: 0.4"/>
   </g>
   <g id="patch_79">
    <path d="M 405.197774 260.521875 
L 409.694739 260.521875 
L 409.694739 250.431656 
L 405.197774 250.431656 
z
" clip-path="url(#p563e7893e0)" style="fill: #1f77b4; opacity: 0.4"/>
   </g>
   <g id="patch_80">
    <path d="M 409.694739 260.521875 
L 414.191704 260.521875 
L 414.191704 257.158469 
L 409.694739 257.158469 
z
" clip-path="url(#p563e7893e0)" style="fill: #1f77b4; opacity: 0.4"/>
   </g>
   <g id="patch_81">
    <path d="M 414.191704 260.521875 
L 418.688668 260.521875 
L 418.688668 257.158469 
L 414.191704 257.158469 
z
" clip-path="url(#p563e7893e0)" style="fill: #1f77b4; opacity: 0.4"/>
   </g>
   <g id="patch_82">
    <path d="M 418.688668 260.521875 
L 423.185633 260.521875 
L 423.185633 257.158469 
L 418.688668 257.158469 
z
" clip-path="url(#p563e7893e0)" style="fill: #1f77b4; opacity: 0.4"/>
   </g>
   <g id="patch_83">
    <path d="M 423.185633 260.521875 
L 427.682598 260.521875 
L 427.682598 257.158469 
L 423.185633 257.158469 
z
" clip-path="url(#p563e7893e0)" style="fill: #1f77b4; opacity: 0.4"/>
   </g>
   <g id="patch_84">
    <path d="M 427.682598 260.521875 
L 432.179563 260.521875 
L 432.179563 257.158469 
L 427.682598 257.158469 
z
" clip-path="url(#p563e7893e0)" style="fill: #1f77b4; opacity: 0.4"/>
   </g>
   <g id="patch_85">
    <path d="M 432.179563 260.521875 
L 436.676528 260.521875 
L 436.676528 260.521875 
L 432.179563 260.521875 
z
" clip-path="url(#p563e7893e0)" style="fill: #1f77b4; opacity: 0.4"/>
   </g>
   <g id="patch_86">
    <path d="M 436.676528 260.521875 
L 441.173493 260.521875 
L 441.173493 260.521875 
L 436.676528 260.521875 
z
" clip-path="url(#p563e7893e0)" style="fill: #1f77b4; opacity: 0.4"/>
   </g>
   <g id="patch_87">
    <path d="M 441.173493 260.521875 
L 445.670457 260.521875 
L 445.670457 260.521875 
L 441.173493 260.521875 
z
" clip-path="url(#p563e7893e0)" style="fill: #1f77b4; opacity: 0.4"/>
   </g>
   <g id="patch_88">
    <path d="M 445.670457 260.521875 
L 450.167422 260.521875 
L 450.167422 260.521875 
L 445.670457 260.521875 
z
" clip-path="url(#p563e7893e0)" style="fill: #1f77b4; opacity: 0.4"/>
   </g>
   <g id="patch_89">
    <path d="M 450.167422 260.521875 
L 454.664387 260.521875 
L 454.664387 260.521875 
L 450.167422 260.521875 
z
" clip-path="url(#p563e7893e0)" style="fill: #1f77b4; opacity: 0.4"/>
   </g>
   <g id="patch_90">
    <path d="M 454.664387 260.521875 
L 459.161352 260.521875 
L 459.161352 260.521875 
L 454.664387 260.521875 
z
" clip-path="url(#p563e7893e0)" style="fill: #1f77b4; opacity: 0.4"/>
   </g>
   <g id="patch_91">
    <path d="M 459.161352 260.521875 
L 463.658317 260.521875 
L 463.658317 257.158469 
L 459.161352 257.158469 
z
" clip-path="url(#p563e7893e0)" style="fill: #1f77b4; opacity: 0.4"/>
   </g>
   <g id="patch_92">
    <path d="M 381.096401 260.521875 
L 385.181138 260.521875 
L 385.181138 236.154812 
L 381.096401 236.154812 
z
" clip-path="url(#p563e7893e0)" style="fill: #ff7f0e; opacity: 0.4"/>
   </g>
   <g id="patch_93">
    <path d="M 385.181138 260.521875 
L 389.265876 260.521875 
L 389.265876 211.787749 
L 385.181138 211.787749 
z
" clip-path="url(#p563e7893e0)" style="fill: #ff7f0e; opacity: 0.4"/>
   </g>
   <g id="patch_94">
    <path d="M 389.265876 260.521875 
L 393.350613 260.521875 
L 393.350613 203.665395 
L 389.265876 203.665395 
z
" clip-path="url(#p563e7893e0)" style="fill: #ff7f0e; opacity: 0.4"/>
   </g>
   <g id="patch_95">
    <path d="M 393.350613 260.521875 
L 397.43535 260.521875 
L 397.43535 211.787749 
L 393.350613 211.787749 
z
" clip-path="url(#p563e7893e0)" style="fill: #ff7f0e; opacity: 0.4"/>
   </g>
   <g id="patch_96">
    <path d="M 397.43535 260.521875 
L 401.520087 260.521875 
L 401.520087 187.420686 
L 397.43535 187.420686 
z
" clip-path="url(#p563e7893e0)" style="fill: #ff7f0e; opacity: 0.4"/>
   </g>
   <g id="patch_97">
    <path d="M 401.520087 260.521875 
L 405.604824 260.521875 
L 405.604824 219.910103 
L 401.520087 219.910103 
z
" clip-path="url(#p563e7893e0)" style="fill: #ff7f0e; opacity: 0.4"/>
   </g>
   <g id="patch_98">
    <path d="M 405.604824 260.521875 
L 409.689562 260.521875 
L 409.689562 195.54304 
L 405.604824 195.54304 
z
" clip-path="url(#p563e7893e0)" style="fill: #ff7f0e; opacity: 0.4"/>
   </g>
   <g id="patch_99">
    <path d="M 409.689562 260.521875 
L 413.774299 260.521875 
L 413.774299 195.54304 
L 409.689562 195.54304 
z
" clip-path="url(#p563e7893e0)" style="fill: #ff7f0e; opacity: 0.4"/>
   </g>
   <g id="patch_100">
    <path d="M 413.774299 260.521875 
L 417.859036 260.521875 
L 417.859036 203.665395 
L 413.774299 203.665395 
z
" clip-path="url(#p563e7893e0)" style="fill: #ff7f0e; opacity: 0.4"/>
   </g>
   <g id="patch_101">
    <path d="M 417.859036 260.521875 
L 421.943773 260.521875 
L 421.943773 163.053623 
L 417.859036 163.053623 
z
" clip-path="url(#p563e7893e0)" style="fill: #ff7f0e; opacity: 0.4"/>
   </g>
   <g id="patch_102">
    <path d="M 421.943773 260.521875 
L 426.028511 260.521875 
L 426.028511 211.787749 
L 421.943773 211.787749 
z
" clip-path="url(#p563e7893e0)" style="fill: #ff7f0e; opacity: 0.4"/>
   </g>
   <g id="patch_103">
    <path d="M 426.028511 260.521875 
L 430.113248 260.521875 
L 430.113248 244.277166 
L 426.028511 244.277166 
z
" clip-path="url(#p563e7893e0)" style="fill: #ff7f0e; opacity: 0.4"/>
   </g>
   <g id="patch_104">
    <path d="M 430.113248 260.521875 
L 434.197985 260.521875 
L 434.197985 203.665395 
L 430.113248 203.665395 
z
" clip-path="url(#p563e7893e0)" style="fill: #ff7f0e; opacity: 0.4"/>
   </g>
   <g id="patch_105">
    <path d="M 434.197985 260.521875 
L 438.282722 260.521875 
L 438.282722 252.399521 
L 434.197985 252.399521 
z
" clip-path="url(#p563e7893e0)" style="fill: #ff7f0e; opacity: 0.4"/>
   </g>
   <g id="patch_106">
    <path d="M 438.282722 260.521875 
L 442.36746 260.521875 
L 442.36746 244.277166 
L 438.282722 244.277166 
z
" clip-path="url(#p563e7893e0)" style="fill: #ff7f0e; opacity: 0.4"/>
   </g>
   <g id="patch_107">
    <path d="M 442.36746 260.521875 
L 446.452197 260.521875 
L 446.452197 252.399521 
L 442.36746 252.399521 
z
" clip-path="url(#p563e7893e0)" style="fill: #ff7f0e; opacity: 0.4"/>
   </g>
   <g id="patch_108">
    <path d="M 446.452197 260.521875 
L 450.536934 260.521875 
L 450.536934 252.399521 
L 446.452197 252.399521 
z
" clip-path="url(#p563e7893e0)" style="fill: #ff7f0e; opacity: 0.4"/>
   </g>
   <g id="patch_109">
    <path d="M 450.536934 260.521875 
L 454.621671 260.521875 
L 454.621671 260.521875 
L 450.536934 260.521875 
z
" clip-path="url(#p563e7893e0)" style="fill: #ff7f0e; opacity: 0.4"/>
   </g>
   <g id="patch_110">
    <path d="M 454.621671 260.521875 
L 458.706409 260.521875 
L 458.706409 252.399521 
L 454.621671 252.399521 
z
" clip-path="url(#p563e7893e0)" style="fill: #ff7f0e; opacity: 0.4"/>
   </g>
   <g id="patch_111">
    <path d="M 458.706409 260.521875 
L 462.791146 260.521875 
L 462.791146 252.399521 
L 458.706409 252.399521 
z
" clip-path="url(#p563e7893e0)" style="fill: #ff7f0e; opacity: 0.4"/>
   </g>
   <g id="patch_112">
    <path d="M 375.249763 260.521875 
L 378.143057 260.521875 
L 378.143057 238.070508 
L 375.249763 238.070508 
z
" clip-path="url(#p563e7893e0)" style="fill: #2ca02c; opacity: 0.4"/>
   </g>
   <g id="patch_113">
    <path d="M 378.143057 260.521875 
L 381.036352 260.521875 
L 381.036352 193.167773 
L 378.143057 193.167773 
z
" clip-path="url(#p563e7893e0)" style="fill: #2ca02c; opacity: 0.4"/>
   </g>
   <g id="patch_114">
    <path d="M 381.036352 260.521875 
L 383.929646 260.521875 
L 383.929646 125.813672 
L 381.036352 125.813672 
z
" clip-path="url(#p563e7893e0)" style="fill: #2ca02c; opacity: 0.4"/>
   </g>
   <g id="patch_115">
    <path d="M 383.929646 260.521875 
L 386.82294 260.521875 
L 386.82294 125.813672 
L 383.929646 125.813672 
z
" clip-path="url(#p563e7893e0)" style="fill: #2ca02c; opacity: 0.4"/>
   </g>
   <g id="patch_116">
    <path d="M 386.82294 260.521875 
L 389.716234 260.521875 
L 389.716234 137.039355 
L 386.82294 137.039355 
z
" clip-path="url(#p563e7893e0)" style="fill: #2ca02c; opacity: 0.4"/>
   </g>
   <g id="patch_117">
    <path d="M 389.716234 260.521875 
L 392.609528 260.521875 
L 392.609528 92.136621 
L 389.716234 92.136621 
z
" clip-path="url(#p563e7893e0)" style="fill: #2ca02c; opacity: 0.4"/>
   </g>
   <g id="patch_118">
    <path d="M 392.609528 260.521875 
L 395.502823 260.521875 
L 395.502823 137.039355 
L 392.609528 137.039355 
z
" clip-path="url(#p563e7893e0)" style="fill: #2ca02c; opacity: 0.4"/>
   </g>
   <g id="patch_119">
    <path d="M 395.502823 260.521875 
L 398.396117 260.521875 
L 398.396117 103.362304 
L 395.502823 103.362304 
z
" clip-path="url(#p563e7893e0)" style="fill: #2ca02c; opacity: 0.4"/>
   </g>
   <g id="patch_120">
    <path d="M 398.396117 260.521875 
L 401.289411 260.521875 
L 401.289411 238.070508 
L 398.396117 238.070508 
z
" clip-path="url(#p563e7893e0)" style="fill: #2ca02c; opacity: 0.4"/>
   </g>
   <g id="patch_121">
    <path d="M 401.289411 260.521875 
L 404.182705 260.521875 
L 404.182705 238.070508 
L 401.289411 238.070508 
z
" clip-path="url(#p563e7893e0)" style="fill: #2ca02c; opacity: 0.4"/>
   </g>
   <g id="patch_122">
    <path d="M 404.182705 260.521875 
L 407.076 260.521875 
L 407.076 238.070508 
L 404.182705 238.070508 
z
" clip-path="url(#p563e7893e0)" style="fill: #2ca02c; opacity: 0.4"/>
   </g>
   <g id="patch_123">
    <path d="M 407.076 260.521875 
L 409.969294 260.521875 
L 409.969294 249.296191 
L 407.076 249.296191 
z
" clip-path="url(#p563e7893e0)" style="fill: #2ca02c; opacity: 0.4"/>
   </g>
   <g id="patch_124">
    <path d="M 409.969294 260.521875 
L 412.862588 260.521875 
L 412.862588 238.070508 
L 409.969294 238.070508 
z
" clip-path="url(#p563e7893e0)" style="fill: #2ca02c; opacity: 0.4"/>
   </g>
   <g id="patch_125">
    <path d="M 412.862588 260.521875 
L 415.755882 260.521875 
L 415.755882 260.521875 
L 412.862588 260.521875 
z
" clip-path="url(#p563e7893e0)" style="fill: #2ca02c; opacity: 0.4"/>
   </g>
   <g id="patch_126">
    <path d="M 415.755882 260.521875 
L 418.649176 260.521875 
L 418.649176 249.296191 
L 415.755882 249.296191 
z
" clip-path="url(#p563e7893e0)" style="fill: #2ca02c; opacity: 0.4"/>
   </g>
   <g id="patch_127">
    <path d="M 418.649176 260.521875 
L 421.542471 260.521875 
L 421.542471 260.521875 
L 418.649176 260.521875 
z
" clip-path="url(#p563e7893e0)" style="fill: #2ca02c; opacity: 0.4"/>
   </g>
   <g id="patch_128">
    <path d="M 421.542471 260.521875 
L 424.435765 260.521875 
L 424.435765 249.296191 
L 421.542471 249.296191 
z
" clip-path="url(#p563e7893e0)" style="fill: #2ca02c; opacity: 0.4"/>
   </g>
   <g id="patch_129">
    <path d="M 424.435765 260.521875 
L 427.329059 260.521875 
L 427.329059 260.521875 
L 424.435765 260.521875 
z
" clip-path="url(#p563e7893e0)" style="fill: #2ca02c; opacity: 0.4"/>
   </g>
   <g id="patch_130">
    <path d="M 427.329059 260.521875 
L 430.222353 260.521875 
L 430.222353 260.521875 
L 427.329059 260.521875 
z
" clip-path="url(#p563e7893e0)" style="fill: #2ca02c; opacity: 0.4"/>
   </g>
   <g id="patch_131">
    <path d="M 430.222353 260.521875 
L 433.115648 260.521875 
L 433.115648 249.296191 
L 430.222353 249.296191 
z
" clip-path="url(#p563e7893e0)" style="fill: #2ca02c; opacity: 0.4"/>
   </g>
   <g id="matplotlib.axis_3">
    <g id="xtick_6">
     <g id="line2d_17">
      <g>
       <use xlink:href="#mb50a671331" x="345.678002" y="260.521875" style="stroke: #000000; stroke-width: 0.8"/>
      </g>
     </g>
     <g id="text_19">
      <!-- 0.4 -->
      <g transform="translate(337.72644 275.120313) scale(0.1 -0.1)">
       <use xlink:href="#DejaVuSans-30"/>
       <use xlink:href="#DejaVuSans-2e" x="63.623047"/>
       <use xlink:href="#DejaVuSans-34" x="95.410156"/>
      </g>
     </g>
    </g>
    <g id="xtick_7">
     <g id="line2d_18">
      <g>
       <use xlink:href="#mb50a671331" x="396.298568" y="260.521875" style="stroke: #000000; stroke-width: 0.8"/>
      </g>
     </g>
     <g id="text_20">
      <!-- 0.6 -->
      <g transform="translate(388.347005 275.120313) scale(0.1 -0.1)">
       <use xlink:href="#DejaVuSans-30"/>
       <use xlink:href="#DejaVuSans-2e" x="63.623047"/>
       <use xlink:href="#DejaVuSans-36" x="95.410156"/>
      </g>
     </g>
    </g>
    <g id="xtick_8">
     <g id="line2d_19">
      <g>
       <use xlink:href="#mb50a671331" x="446.919134" y="260.521875" style="stroke: #000000; stroke-width: 0.8"/>
      </g>
     </g>
     <g id="text_21">
      <!-- 0.8 -->
      <g transform="translate(438.967571 275.120313) scale(0.1 -0.1)">
       <use xlink:href="#DejaVuSans-30"/>
       <use xlink:href="#DejaVuSans-2e" x="63.623047"/>
       <use xlink:href="#DejaVuSans-38" x="95.410156"/>
      </g>
     </g>
    </g>
    <g id="xtick_9">
     <g id="line2d_20">
      <g>
       <use xlink:href="#mb50a671331" x="497.539699" y="260.521875" style="stroke: #000000; stroke-width: 0.8"/>
      </g>
     </g>
     <g id="text_22">
      <!-- 1.0 -->
      <g transform="translate(489.588137 275.120313) scale(0.1 -0.1)">
       <use xlink:href="#DejaVuSans-31"/>
       <use xlink:href="#DejaVuSans-2e" x="63.623047"/>
       <use xlink:href="#DejaVuSans-30" x="95.410156"/>
      </g>
     </g>
    </g>
    <g id="xtick_10">
     <g id="line2d_21">
      <g>
       <use xlink:href="#mb50a671331" x="548.160265" y="260.521875" style="stroke: #000000; stroke-width: 0.8"/>
      </g>
     </g>
     <g id="text_23">
      <!-- 1.2 -->
      <g transform="translate(540.208703 275.120313) scale(0.1 -0.1)">
       <use xlink:href="#DejaVuSans-31"/>
       <use xlink:href="#DejaVuSans-2e" x="63.623047"/>
       <use xlink:href="#DejaVuSans-32" x="95.410156"/>
      </g>
     </g>
    </g>
   </g>
   <g id="matplotlib.axis_4">
    <g id="ytick_9">
     <g id="line2d_22">
      <g>
       <use xlink:href="#mba1cc49a81" x="327.332187" y="260.521875" style="stroke: #000000; stroke-width: 0.8"/>
      </g>
     </g>
    </g>
    <g id="ytick_10">
     <g id="line2d_23">
      <g>
       <use xlink:href="#mba1cc49a81" x="327.332187" y="230.044889" style="stroke: #000000; stroke-width: 0.8"/>
      </g>
     </g>
    </g>
    <g id="ytick_11">
     <g id="line2d_24">
      <g>
       <use xlink:href="#mba1cc49a81" x="327.332187" y="199.567903" style="stroke: #000000; stroke-width: 0.8"/>
      </g>
     </g>
    </g>
    <g id="ytick_12">
     <g id="line2d_25">
      <g>
       <use xlink:href="#mba1cc49a81" x="327.332187" y="169.090918" style="stroke: #000000; stroke-width: 0.8"/>
      </g>
     </g>
    </g>
    <g id="ytick_13">
     <g id="line2d_26">
      <g>
       <use xlink:href="#mba1cc49a81" x="327.332187" y="138.613932" style="stroke: #000000; stroke-width: 0.8"/>
      </g>
     </g>
    </g>
    <g id="ytick_14">
     <g id="line2d_27">
      <g>
       <use xlink:href="#mba1cc49a81" x="327.332187" y="108.136946" style="stroke: #000000; stroke-width: 0.8"/>
      </g>
     </g>
    </g>
    <g id="ytick_15">
     <g id="line2d_28">
      <g>
       <use xlink:href="#mba1cc49a81" x="327.332187" y="77.65996" style="stroke: #000000; stroke-width: 0.8"/>
      </g>
     </g>
    </g>
    <g id="ytick_16">
     <g id="line2d_29">
      <g>
       <use xlink:href="#mba1cc49a81" x="327.332187" y="47.182974" style="stroke: #000000; stroke-width: 0.8"/>
      </g>
     </g>
    </g>
    <g id="text_24">
     <!-- Fraction of cells -->
     <g transform="translate(316.920625 198.811719) rotate(-90) scale(0.14 -0.14)">
      <use xlink:href="#DejaVuSans-46"/>
      <use xlink:href="#DejaVuSans-72" x="50.269531"/>
      <use xlink:href="#DejaVuSans-61" x="91.382812"/>
      <use xlink:href="#DejaVuSans-63" x="152.662109"/>
      <use xlink:href="#DejaVuSans-74" x="207.642578"/>
      <use xlink:href="#DejaVuSans-69" x="246.851562"/>
      <use xlink:href="#DejaVuSans-6f" x="274.634766"/>
      <use xlink:href="#DejaVuSans-6e" x="335.816406"/>
      <use xlink:href="#DejaVuSans-20" x="399.195312"/>
      <use xlink:href="#DejaVuSans-6f" x="430.982422"/>
      <use xlink:href="#DejaVuSans-66" x="492.164062"/>
      <use xlink:href="#DejaVuSans-20" x="527.369141"/>
      <use xlink:href="#DejaVuSans-63" x="559.15625"/>
      <use xlink:href="#DejaVuSans-65" x="614.136719"/>
      <use xlink:href="#DejaVuSans-6c" x="675.660156"/>
      <use xlink:href="#DejaVuSans-6c" x="703.443359"/>
      <use xlink:href="#DejaVuSans-73" x="731.226562"/>
     </g>
    </g>
   </g>
   <g id="line2d_30">
    <path d="M 244.43687 260.521875 
L 249.550059 260.521875 
L 254.663247 260.521875 
L 259.776436 260.521875 
L 264.889624 260.521875 
L 270.002813 260.521875 
L 275.116001 260.521875 
L 280.22919 260.521875 
L 285.342378 260.521875 
L 290.455567 260.521875 
L 295.568755 260.521875 
L 300.681944 260.521875 
L 305.795132 260.521875 
L 310.90832 260.521875 
L 316.021509 260.521875 
L 321.134697 260.521875 
L 326.247886 260.521875 
L 331.361074 260.521875 
L 336.474263 260.521875 
L 341.587451 260.521875 
L 346.70064 260.521875 
L 351.813828 260.521875 
L 356.927017 260.521673 
L 362.040205 260.4553 
L 367.153394 256.582407 
L 372.266582 212.816393 
L 377.37977 112.441967 
L 382.492959 93.878085 
L 387.606147 155.389106 
L 392.719336 205.101102 
L 397.832524 228.885084 
L 402.945713 242.590922 
L 408.058901 251.269107 
L 413.17209 257.059135 
L 418.285278 257.294741 
L 423.398467 256.187171 
L 428.511655 257.71205 
L 433.624844 259.729425 
L 438.738032 260.473134 
L 443.85122 260.521405 
L 448.964409 260.52128 
L 454.077597 260.465473 
L 459.190786 259.735898 
L 464.303974 258.912456 
L 469.417163 260.037618 
L 474.530351 260.500464 
L 479.64354 260.521736 
L 484.756728 260.521875 
L 489.869917 260.521875 
L 494.983105 260.521875 
L 500.096294 260.521875 
L 505.209482 260.521875 
L 510.32267 260.521875 
L 515.435859 260.521875 
L 520.549047 260.521875 
L 525.662236 260.521875 
L 530.775424 260.521875 
L 535.888613 260.521875 
L 541.001801 260.521875 
L 546.11499 260.521875 
L 551.228178 260.521875 
L 556.341367 260.521875 
L 561.454555 260.521875 
L 566.567744 260.521875 
L 571.680932 260.521875 
L 576.79412 260.521875 
L 577 260.521875 
" clip-path="url(#p563e7893e0)" style="fill: none; stroke: #1f77b4; stroke-width: 1.5; stroke-linecap: square"/>
   </g>
   <g id="line2d_31">
    <path d="M 244.43687 260.521875 
L 249.550059 260.521875 
L 254.663247 260.521875 
L 259.776436 260.521875 
L 264.889624 260.521875 
L 270.002813 260.521875 
L 275.116001 260.521875 
L 280.22919 260.521875 
L 285.342378 260.521875 
L 290.455567 260.521875 
L 295.568755 260.521875 
L 300.681944 260.521875 
L 305.795132 260.521875 
L 310.90832 260.521875 
L 316.021509 260.521875 
L 321.134697 260.521875 
L 326.247886 260.521875 
L 331.361074 260.521875 
L 336.474263 260.521875 
L 341.587451 260.521875 
L 346.70064 260.521863 
L 351.813828 260.521504 
L 356.927017 260.514668 
L 362.040205 260.43562 
L 367.153394 259.870795 
L 372.266582 257.3353 
L 377.37977 250.094319 
L 382.492959 236.888048 
L 387.606147 221.585351 
L 392.719336 210.454334 
L 397.832524 205.337035 
L 402.945713 203.003672 
L 408.058901 200.528345 
L 413.17209 198.219542 
L 418.285278 198.759472 
L 423.398467 205.845319 
L 428.511655 218.617628 
L 433.624844 231.830577 
L 438.738032 241.868458 
L 443.85122 248.312355 
L 448.964409 252.485691 
L 454.077597 254.943644 
L 459.190786 256.12278 
L 464.303974 257.324621 
L 469.417163 258.860537 
L 474.530351 259.970064 
L 479.64354 260.409538 
L 484.756728 260.508143 
L 489.869917 260.520879 
L 494.983105 260.521833 
L 500.096294 260.521874 
L 505.209482 260.521875 
L 510.32267 260.521875 
L 515.435859 260.521875 
L 520.549047 260.521875 
L 525.662236 260.521875 
L 530.775424 260.521875 
L 535.888613 260.521875 
L 541.001801 260.521875 
L 546.11499 260.521875 
L 551.228178 260.521875 
L 556.341367 260.521875 
L 561.454555 260.521875 
L 566.567744 260.521875 
L 571.680932 260.521875 
L 576.79412 260.521875 
L 577 260.521875 
" clip-path="url(#p563e7893e0)" style="fill: none; stroke: #ff7f0e; stroke-width: 1.5; stroke-linecap: square"/>
   </g>
   <g id="line2d_32">
    <path d="M 244.43687 260.521875 
L 249.550059 260.521875 
L 254.663247 260.521875 
L 259.776436 260.521875 
L 264.889624 260.521875 
L 270.002813 260.521875 
L 275.116001 260.521875 
L 280.22919 260.521875 
L 285.342378 260.521875 
L 290.455567 260.521875 
L 295.568755 260.521875 
L 300.681944 260.521875 
L 305.795132 260.521875 
L 310.90832 260.521875 
L 316.021509 260.521875 
L 321.134697 260.521875 
L 326.247886 260.521875 
L 331.361074 260.521875 
L 336.474263 260.521875 
L 341.587451 260.521875 
L 346.70064 260.521875 
L 351.813828 260.521875 
L 356.927017 260.521824 
L 362.040205 260.508147 
L 367.153394 259.820688 
L 372.266582 251.636764 
L 377.37977 215.624482 
L 382.492959 152.35347 
L 387.606147 121.418053 
L 392.719336 123.826932 
L 397.832524 174.400046 
L 402.945713 228.725165 
L 408.058901 243.433284 
L 413.17209 248.659928 
L 418.285278 254.209602 
L 423.398467 256.260767 
L 428.511655 257.631307 
L 433.624844 257.100627 
L 438.738032 259.366408 
L 443.85122 260.454309 
L 448.964409 260.521205 
L 454.077597 260.521874 
L 459.190786 260.521875 
L 464.303974 260.521875 
L 469.417163 260.521875 
L 474.530351 260.521875 
L 479.64354 260.521875 
L 484.756728 260.521875 
L 489.869917 260.521875 
L 494.983105 260.521875 
L 500.096294 260.521875 
L 505.209482 260.521875 
L 510.32267 260.521875 
L 515.435859 260.521875 
L 520.549047 260.521875 
L 525.662236 260.521875 
L 530.775424 260.521875 
L 535.888613 260.521875 
L 541.001801 260.521875 
L 546.11499 260.521875 
L 551.228178 260.521875 
L 556.341367 260.521875 
L 561.454555 260.521875 
L 566.567744 260.521875 
L 571.680932 260.521875 
L 576.79412 260.521875 
L 577 260.521875 
" clip-path="url(#p563e7893e0)" style="fill: none; stroke: #2ca02c; stroke-width: 1.5; stroke-linecap: square"/>
   </g>
   <g id="patch_132">
    <path d="M 327.332187 260.521875 
L 327.332187 27.437813 
" style="fill: none; stroke: #000000; stroke-width: 0.8; stroke-linejoin: miter; stroke-linecap: square"/>
   </g>
   <g id="patch_133">
    <path d="M 565.2 260.521875 
L 565.2 27.437813 
" style="fill: none; stroke: #000000; stroke-width: 0.8; stroke-linejoin: miter; stroke-linecap: square"/>
   </g>
   <g id="patch_134">
    <path d="M 327.332187 260.521875 
L 565.2 260.521875 
" style="fill: none; stroke: #000000; stroke-width: 0.8; stroke-linejoin: miter; stroke-linecap: square"/>
   </g>
   <g id="patch_135">
    <path d="M 327.332187 27.437812 
L 565.2 27.437812 
" style="fill: none; stroke: #000000; stroke-width: 0.8; stroke-linejoin: miter; stroke-linecap: square"/>
   </g>
   <g id="text_25">
    <!-- Linear -->
    <g transform="translate(424.510312 21.437813) scale(0.14 -0.14)">
     <defs>
      <path id="DejaVuSans-4c" d="M 628 4666 
L 1259 4666 
L 1259 531 
L 3531 531 
L 3531 0 
L 628 0 
L 628 4666 
z
" transform="scale(0.015625)"/>
     </defs>
     <use xlink:href="#DejaVuSans-4c"/>
     <use xlink:href="#DejaVuSans-69" x="55.712891"/>
     <use xlink:href="#DejaVuSans-6e" x="83.496094"/>
     <use xlink:href="#DejaVuSans-65" x="146.875"/>
     <use xlink:href="#DejaVuSans-61" x="208.398438"/>
     <use xlink:href="#DejaVuSans-72" x="269.677734"/>
    </g>
   </g>
   <g id="legend_2">
    <g id="patch_136">
     <path d="M 476.810625 89.879062 
L 556.8 89.879062 
Q 559.2 89.879062 559.2 87.479062 
L 559.2 35.837812 
Q 559.2 33.437812 556.8 33.437812 
L 476.810625 33.437812 
Q 474.410625 33.437812 474.410625 35.837812 
L 474.410625 87.479062 
Q 474.410625 89.879062 476.810625 89.879062 
z
" style="fill: #ffffff; opacity: 0.8; stroke: #cccccc; stroke-linejoin: miter"/>
    </g>
    <g id="patch_137">
     <path d="M 479.210625 47.355937 
L 503.210625 47.355937 
L 503.210625 38.955937 
L 479.210625 38.955937 
z
" style="fill: #1f77b4; opacity: 0.4"/>
    </g>
    <g id="text_26">
     <!-- control -->
     <g transform="translate(512.810625 47.355937) scale(0.12 -0.12)">
      <use xlink:href="#DejaVuSans-63"/>
      <use xlink:href="#DejaVuSans-6f" x="54.980469"/>
      <use xlink:href="#DejaVuSans-6e" x="116.162109"/>
      <use xlink:href="#DejaVuSans-74" x="179.541016"/>
      <use xlink:href="#DejaVuSans-72" x="218.75"/>
      <use xlink:href="#DejaVuSans-6f" x="257.613281"/>
      <use xlink:href="#DejaVuSans-6c" x="318.794922"/>
     </g>
    </g>
    <g id="patch_138">
     <path d="M 479.210625 64.969687 
L 503.210625 64.969687 
L 503.210625 56.569687 
L 479.210625 56.569687 
z
" style="fill: #ff7f0e; opacity: 0.4"/>
    </g>
    <g id="text_27">
     <!-- cytd -->
     <g transform="translate(512.810625 64.969687) scale(0.12 -0.12)">
      <use xlink:href="#DejaVuSans-63"/>
      <use xlink:href="#DejaVuSans-79" x="54.980469"/>
      <use xlink:href="#DejaVuSans-74" x="114.160156"/>
      <use xlink:href="#DejaVuSans-64" x="153.369141"/>
     </g>
    </g>
    <g id="patch_139">
     <path d="M 479.210625 82.583437 
L 503.210625 82.583437 
L 503.210625 74.183437 
L 479.210625 74.183437 
z
" style="fill: #2ca02c; opacity: 0.4"/>
    </g>
    <g id="text_28">
     <!-- jasp -->
     <g transform="translate(512.810625 82.583437) scale(0.12 -0.12)">
      <use xlink:href="#DejaVuSans-6a"/>
      <use xlink:href="#DejaVuSans-61" x="27.783203"/>
      <use xlink:href="#DejaVuSans-73" x="89.0625"/>
      <use xlink:href="#DejaVuSans-70" x="141.162109"/>
     </g>
    </g>
   </g>
  </g>
 </g>
 <defs>
  <clipPath id="pcfbbd8d326">
   <rect x="57.615" y="27.437813" width="237.867813" height="233.084062"/>
  </clipPath>
  <clipPath id="p563e7893e0">
   <rect x="327.332187" y="27.437813" width="237.867812" height="233.084062"/>
  </clipPath>
 </defs>
</svg>
