<?xml version="1.0" encoding="utf-8" standalone="no"?>
<!DOCTYPE svg PUBLIC "-//W3C//DTD SVG 1.1//EN"
  "http://www.w3.org/Graphics/SVG/1.1/DTD/svg11.dtd">
<svg xmlns:xlink="http://www.w3.org/1999/xlink" width="576pt" height="288pt" viewBox="0 0 576 288" xmlns="http://www.w3.org/2000/svg" version="1.1">
 <metadata>
  <rdf:RDF xmlns:dc="http://purl.org/dc/elements/1.1/" xmlns:cc="http://creativecommons.org/ns#" xmlns:rdf="http://www.w3.org/1999/02/22-rdf-syntax-ns#">
   <cc:Work>
    <dc:type rdf:resource="http://purl.org/dc/dcmitype/StillImage"/>
    <dc:date>2024-05-25T17:37:13.900599</dc:date>
    <dc:format>image/svg+xml</dc:format>
    <dc:creator>
     <cc:Agent>
      <dc:title>Matplotlib v3.8.4, https://matplotlib.org/</dc:title>
     </cc:Agent>
    </dc:creator>
   </cc:Work>
  </rdf:RDF>
 </metadata>
 <defs>
  <style type="text/css">*{stroke-linejoin: round; stroke-linecap: butt}</style>
 </defs>
 <g id="figure_1">
  <g id="patch_1">
   <path d="M 0 288 
L 576 288 
L 576 0 
L 0 0 
z
" style="fill: #ffffff"/>
  </g>
  <g id="axes_1">
   <g id="patch_2">
    <path d="M 41.711875 260.521875 
L 280.642827 260.521875 
L 280.642827 27.437812 
L 41.711875 27.437812 
z
" style="fill: #ffffff"/>
   </g>
   <g id="patch_3">
    <path d="M 47.352482 260.521875 
L 57.580818 260.521875 
L 57.580818 175.645326 
L 47.352482 175.645326 
z
" clip-path="url(#p850c7a2971)" style="fill: #1f77b4; opacity: 0.4"/>
   </g>
   <g id="patch_4">
    <path d="M 57.580818 260.521875 
L 67.809154 260.521875 
L 67.809154 38.537054 
L 57.580818 38.537054 
z
" clip-path="url(#p850c7a2971)" style="fill: #1f77b4; opacity: 0.4"/>
   </g>
   <g id="patch_5">
    <path d="M 67.809154 260.521875 
L 78.037489 260.521875 
L 78.037489 45.066019 
L 67.809154 45.066019 
z
" clip-path="url(#p850c7a2971)" style="fill: #1f77b4; opacity: 0.4"/>
   </g>
   <g id="patch_6">
    <path d="M 78.037489 260.521875 
L 88.265825 260.521875 
L 88.265825 201.761187 
L 78.037489 201.761187 
z
" clip-path="url(#p850c7a2971)" style="fill: #1f77b4; opacity: 0.4"/>
   </g>
   <g id="patch_7">
    <path d="M 88.265825 260.521875 
L 98.494161 260.521875 
L 98.494161 208.290152 
L 88.265825 208.290152 
z
" clip-path="url(#p850c7a2971)" style="fill: #1f77b4; opacity: 0.4"/>
   </g>
   <g id="patch_8">
    <path d="M 98.494161 260.521875 
L 108.722497 260.521875 
L 108.722497 208.290152 
L 98.494161 208.290152 
z
" clip-path="url(#p850c7a2971)" style="fill: #1f77b4; opacity: 0.4"/>
   </g>
   <g id="patch_9">
    <path d="M 108.722497 260.521875 
L 118.950832 260.521875 
L 118.950832 201.761187 
L 108.722497 201.761187 
z
" clip-path="url(#p850c7a2971)" style="fill: #1f77b4; opacity: 0.4"/>
   </g>
   <g id="patch_10">
    <path d="M 118.950832 260.521875 
L 129.179168 260.521875 
L 129.179168 162.587395 
L 118.950832 162.587395 
z
" clip-path="url(#p850c7a2971)" style="fill: #1f77b4; opacity: 0.4"/>
   </g>
   <g id="patch_11">
    <path d="M 129.179168 260.521875 
L 139.407504 260.521875 
L 139.407504 116.884638 
L 129.179168 116.884638 
z
" clip-path="url(#p850c7a2971)" style="fill: #1f77b4; opacity: 0.4"/>
   </g>
   <g id="patch_12">
    <path d="M 139.407504 260.521875 
L 149.635839 260.521875 
L 149.635839 169.11636 
L 139.407504 169.11636 
z
" clip-path="url(#p850c7a2971)" style="fill: #1f77b4; opacity: 0.4"/>
   </g>
   <g id="patch_13">
    <path d="M 149.635839 260.521875 
L 159.864175 260.521875 
L 159.864175 201.761187 
L 149.635839 201.761187 
z
" clip-path="url(#p850c7a2971)" style="fill: #1f77b4; opacity: 0.4"/>
   </g>
   <g id="patch_14">
    <path d="M 159.864175 260.521875 
L 170.092511 260.521875 
L 170.092511 227.877048 
L 159.864175 227.877048 
z
" clip-path="url(#p850c7a2971)" style="fill: #1f77b4; opacity: 0.4"/>
   </g>
   <g id="patch_15">
    <path d="M 170.092511 260.521875 
L 180.320846 260.521875 
L 180.320846 234.406014 
L 170.092511 234.406014 
z
" clip-path="url(#p850c7a2971)" style="fill: #1f77b4; opacity: 0.4"/>
   </g>
   <g id="patch_16">
    <path d="M 180.320846 260.521875 
L 190.549182 260.521875 
L 190.549182 201.761187 
L 180.320846 201.761187 
z
" clip-path="url(#p850c7a2971)" style="fill: #1f77b4; opacity: 0.4"/>
   </g>
   <g id="patch_17">
    <path d="M 190.549182 260.521875 
L 200.777518 260.521875 
L 200.777518 247.463944 
L 190.549182 247.463944 
z
" clip-path="url(#p850c7a2971)" style="fill: #1f77b4; opacity: 0.4"/>
   </g>
   <g id="patch_18">
    <path d="M 200.777518 260.521875 
L 211.005853 260.521875 
L 211.005853 260.521875 
L 200.777518 260.521875 
z
" clip-path="url(#p850c7a2971)" style="fill: #1f77b4; opacity: 0.4"/>
   </g>
   <g id="patch_19">
    <path d="M 211.005853 260.521875 
L 221.234189 260.521875 
L 221.234189 247.463944 
L 211.005853 247.463944 
z
" clip-path="url(#p850c7a2971)" style="fill: #1f77b4; opacity: 0.4"/>
   </g>
   <g id="patch_20">
    <path d="M 221.234189 260.521875 
L 231.462525 260.521875 
L 231.462525 260.521875 
L 221.234189 260.521875 
z
" clip-path="url(#p850c7a2971)" style="fill: #1f77b4; opacity: 0.4"/>
   </g>
   <g id="patch_21">
    <path d="M 231.462525 260.521875 
L 241.690861 260.521875 
L 241.690861 260.521875 
L 231.462525 260.521875 
z
" clip-path="url(#p850c7a2971)" style="fill: #1f77b4; opacity: 0.4"/>
   </g>
   <g id="patch_22">
    <path d="M 241.690861 260.521875 
L 251.919196 260.521875 
L 251.919196 253.99291 
L 241.690861 253.99291 
z
" clip-path="url(#p850c7a2971)" style="fill: #1f77b4; opacity: 0.4"/>
   </g>
   <g id="patch_23">
    <path d="M 87.417786 260.521875 
L 97.079039 260.521875 
L 97.079039 245.720764 
L 87.417786 245.720764 
z
" clip-path="url(#p850c7a2971)" style="fill: #ff7f0e; opacity: 0.4"/>
   </g>
   <g id="patch_24">
    <path d="M 97.079039 260.521875 
L 106.740291 260.521875 
L 106.740291 260.521875 
L 97.079039 260.521875 
z
" clip-path="url(#p850c7a2971)" style="fill: #ff7f0e; opacity: 0.4"/>
   </g>
   <g id="patch_25">
    <path d="M 106.740291 260.521875 
L 116.401543 260.521875 
L 116.401543 216.118541 
L 106.740291 216.118541 
z
" clip-path="url(#p850c7a2971)" style="fill: #ff7f0e; opacity: 0.4"/>
   </g>
   <g id="patch_26">
    <path d="M 116.401543 260.521875 
L 126.062795 260.521875 
L 126.062795 230.919652 
L 116.401543 230.919652 
z
" clip-path="url(#p850c7a2971)" style="fill: #ff7f0e; opacity: 0.4"/>
   </g>
   <g id="patch_27">
    <path d="M 126.062795 260.521875 
L 135.724047 260.521875 
L 135.724047 230.919652 
L 126.062795 230.919652 
z
" clip-path="url(#p850c7a2971)" style="fill: #ff7f0e; opacity: 0.4"/>
   </g>
   <g id="patch_28">
    <path d="M 135.724047 260.521875 
L 145.385299 260.521875 
L 145.385299 230.919652 
L 135.724047 230.919652 
z
" clip-path="url(#p850c7a2971)" style="fill: #ff7f0e; opacity: 0.4"/>
   </g>
   <g id="patch_29">
    <path d="M 145.385299 260.521875 
L 155.046551 260.521875 
L 155.046551 216.118541 
L 145.385299 216.118541 
z
" clip-path="url(#p850c7a2971)" style="fill: #ff7f0e; opacity: 0.4"/>
   </g>
   <g id="patch_30">
    <path d="M 155.046551 260.521875 
L 164.707803 260.521875 
L 164.707803 127.311874 
L 155.046551 127.311874 
z
" clip-path="url(#p850c7a2971)" style="fill: #ff7f0e; opacity: 0.4"/>
   </g>
   <g id="patch_31">
    <path d="M 164.707803 260.521875 
L 174.369055 260.521875 
L 174.369055 156.914096 
L 164.707803 156.914096 
z
" clip-path="url(#p850c7a2971)" style="fill: #ff7f0e; opacity: 0.4"/>
   </g>
   <g id="patch_32">
    <path d="M 174.369055 260.521875 
L 184.030307 260.521875 
L 184.030307 127.311874 
L 174.369055 127.311874 
z
" clip-path="url(#p850c7a2971)" style="fill: #ff7f0e; opacity: 0.4"/>
   </g>
   <g id="patch_33">
    <path d="M 184.030307 260.521875 
L 193.691559 260.521875 
L 193.691559 68.107429 
L 184.030307 68.107429 
z
" clip-path="url(#p850c7a2971)" style="fill: #ff7f0e; opacity: 0.4"/>
   </g>
   <g id="patch_34">
    <path d="M 193.691559 260.521875 
L 203.352811 260.521875 
L 203.352811 127.311874 
L 193.691559 127.311874 
z
" clip-path="url(#p850c7a2971)" style="fill: #ff7f0e; opacity: 0.4"/>
   </g>
   <g id="patch_35">
    <path d="M 203.352811 260.521875 
L 213.014063 260.521875 
L 213.014063 97.709651 
L 203.352811 97.709651 
z
" clip-path="url(#p850c7a2971)" style="fill: #ff7f0e; opacity: 0.4"/>
   </g>
   <g id="patch_36">
    <path d="M 213.014063 260.521875 
L 222.675315 260.521875 
L 222.675315 186.516319 
L 213.014063 186.516319 
z
" clip-path="url(#p850c7a2971)" style="fill: #ff7f0e; opacity: 0.4"/>
   </g>
   <g id="patch_37">
    <path d="M 222.675315 260.521875 
L 232.336567 260.521875 
L 232.336567 201.31743 
L 222.675315 201.31743 
z
" clip-path="url(#p850c7a2971)" style="fill: #ff7f0e; opacity: 0.4"/>
   </g>
   <g id="patch_38">
    <path d="M 232.336567 260.521875 
L 241.997819 260.521875 
L 241.997819 230.919652 
L 232.336567 230.919652 
z
" clip-path="url(#p850c7a2971)" style="fill: #ff7f0e; opacity: 0.4"/>
   </g>
   <g id="patch_39">
    <path d="M 241.997819 260.521875 
L 251.659071 260.521875 
L 251.659071 186.516319 
L 241.997819 186.516319 
z
" clip-path="url(#p850c7a2971)" style="fill: #ff7f0e; opacity: 0.4"/>
   </g>
   <g id="patch_40">
    <path d="M 251.659071 260.521875 
L 261.320323 260.521875 
L 261.320323 216.118541 
L 251.659071 216.118541 
z
" clip-path="url(#p850c7a2971)" style="fill: #ff7f0e; opacity: 0.4"/>
   </g>
   <g id="patch_41">
    <path d="M 261.320323 260.521875 
L 270.981575 260.521875 
L 270.981575 245.720764 
L 261.320323 245.720764 
z
" clip-path="url(#p850c7a2971)" style="fill: #ff7f0e; opacity: 0.4"/>
   </g>
   <g id="patch_42">
    <path d="M 270.981575 260.521875 
L 280.642827 260.521875 
L 280.642827 245.720764 
L 270.981575 245.720764 
z
" clip-path="url(#p850c7a2971)" style="fill: #ff7f0e; opacity: 0.4"/>
   </g>
   <g id="patch_43">
    <path d="M 77.42739 260.521875 
L 84.031584 260.521875 
L 84.031584 238.63144 
L 77.42739 238.63144 
z
" clip-path="url(#p850c7a2971)" style="fill: #2ca02c; opacity: 0.4"/>
   </g>
   <g id="patch_44">
    <path d="M 84.031584 260.521875 
L 90.635777 260.521875 
L 90.635777 238.63144 
L 84.031584 238.63144 
z
" clip-path="url(#p850c7a2971)" style="fill: #2ca02c; opacity: 0.4"/>
   </g>
   <g id="patch_45">
    <path d="M 90.635777 260.521875 
L 97.23997 260.521875 
L 97.23997 238.63144 
L 90.635777 238.63144 
z
" clip-path="url(#p850c7a2971)" style="fill: #2ca02c; opacity: 0.4"/>
   </g>
   <g id="patch_46">
    <path d="M 97.23997 260.521875 
L 103.844164 260.521875 
L 103.844164 194.85057 
L 97.23997 194.85057 
z
" clip-path="url(#p850c7a2971)" style="fill: #2ca02c; opacity: 0.4"/>
   </g>
   <g id="patch_47">
    <path d="M 103.844164 260.521875 
L 110.448357 260.521875 
L 110.448357 172.960135 
L 103.844164 172.960135 
z
" clip-path="url(#p850c7a2971)" style="fill: #2ca02c; opacity: 0.4"/>
   </g>
   <g id="patch_48">
    <path d="M 110.448357 260.521875 
L 117.05255 260.521875 
L 117.05255 172.960135 
L 110.448357 172.960135 
z
" clip-path="url(#p850c7a2971)" style="fill: #2ca02c; opacity: 0.4"/>
   </g>
   <g id="patch_49">
    <path d="M 117.05255 260.521875 
L 123.656744 260.521875 
L 123.656744 151.0697 
L 117.05255 151.0697 
z
" clip-path="url(#p850c7a2971)" style="fill: #2ca02c; opacity: 0.4"/>
   </g>
   <g id="patch_50">
    <path d="M 123.656744 260.521875 
L 130.260937 260.521875 
L 130.260937 107.288831 
L 123.656744 107.288831 
z
" clip-path="url(#p850c7a2971)" style="fill: #2ca02c; opacity: 0.4"/>
   </g>
   <g id="patch_51">
    <path d="M 130.260937 260.521875 
L 136.86513 260.521875 
L 136.86513 107.288831 
L 130.260937 107.288831 
z
" clip-path="url(#p850c7a2971)" style="fill: #2ca02c; opacity: 0.4"/>
   </g>
   <g id="patch_52">
    <path d="M 136.86513 260.521875 
L 143.469324 260.521875 
L 143.469324 107.288831 
L 136.86513 107.288831 
z
" clip-path="url(#p850c7a2971)" style="fill: #2ca02c; opacity: 0.4"/>
   </g>
   <g id="patch_53">
    <path d="M 143.469324 260.521875 
L 150.073517 260.521875 
L 150.073517 41.617526 
L 143.469324 41.617526 
z
" clip-path="url(#p850c7a2971)" style="fill: #2ca02c; opacity: 0.4"/>
   </g>
   <g id="patch_54">
    <path d="M 150.073517 260.521875 
L 156.67771 260.521875 
L 156.67771 63.507961 
L 150.073517 63.507961 
z
" clip-path="url(#p850c7a2971)" style="fill: #2ca02c; opacity: 0.4"/>
   </g>
   <g id="patch_55">
    <path d="M 156.67771 260.521875 
L 163.281904 260.521875 
L 163.281904 107.288831 
L 156.67771 107.288831 
z
" clip-path="url(#p850c7a2971)" style="fill: #2ca02c; opacity: 0.4"/>
   </g>
   <g id="patch_56">
    <path d="M 163.281904 260.521875 
L 169.886097 260.521875 
L 169.886097 85.398396 
L 163.281904 85.398396 
z
" clip-path="url(#p850c7a2971)" style="fill: #2ca02c; opacity: 0.4"/>
   </g>
   <g id="patch_57">
    <path d="M 169.886097 260.521875 
L 176.49029 260.521875 
L 176.49029 194.85057 
L 169.886097 194.85057 
z
" clip-path="url(#p850c7a2971)" style="fill: #2ca02c; opacity: 0.4"/>
   </g>
   <g id="patch_58">
    <path d="M 176.49029 260.521875 
L 183.094484 260.521875 
L 183.094484 151.0697 
L 176.49029 151.0697 
z
" clip-path="url(#p850c7a2971)" style="fill: #2ca02c; opacity: 0.4"/>
   </g>
   <g id="patch_59">
    <path d="M 183.094484 260.521875 
L 189.698677 260.521875 
L 189.698677 216.741005 
L 183.094484 216.741005 
z
" clip-path="url(#p850c7a2971)" style="fill: #2ca02c; opacity: 0.4"/>
   </g>
   <g id="patch_60">
    <path d="M 189.698677 260.521875 
L 196.302871 260.521875 
L 196.302871 194.85057 
L 189.698677 194.85057 
z
" clip-path="url(#p850c7a2971)" style="fill: #2ca02c; opacity: 0.4"/>
   </g>
   <g id="patch_61">
    <path d="M 196.302871 260.521875 
L 202.907064 260.521875 
L 202.907064 216.741005 
L 196.302871 216.741005 
z
" clip-path="url(#p850c7a2971)" style="fill: #2ca02c; opacity: 0.4"/>
   </g>
   <g id="patch_62">
    <path d="M 202.907064 260.521875 
L 209.511257 260.521875 
L 209.511257 216.741005 
L 202.907064 216.741005 
z
" clip-path="url(#p850c7a2971)" style="fill: #2ca02c; opacity: 0.4"/>
   </g>
   <g id="matplotlib.axis_1">
    <g id="xtick_1">
     <g id="line2d_1">
      <defs>
       <path id="ma2c33b9af1" d="M 0 0 
L 0 3.5 
" style="stroke: #000000; stroke-width: 0.8"/>
      </defs>
      <g>
       <use xlink:href="#ma2c33b9af1" x="52.701806" y="260.521875" style="stroke: #000000; stroke-width: 0.8"/>
      </g>
     </g>
     <g id="text_1">
      <!-- 0.2 -->
      <g transform="translate(44.750243 275.120313) scale(0.1 -0.1)">
       <defs>
        <path id="DejaVuSans-30" d="M 2034 4250 
Q 1547 4250 1301 3770 
Q 1056 3291 1056 2328 
Q 1056 1369 1301 889 
Q 1547 409 2034 409 
Q 2525 409 2770 889 
Q 3016 1369 3016 2328 
Q 3016 3291 2770 3770 
Q 2525 4250 2034 4250 
z
M 2034 4750 
Q 2819 4750 3233 4129 
Q 3647 3509 3647 2328 
Q 3647 1150 3233 529 
Q 2819 -91 2034 -91 
Q 1250 -91 836 529 
Q 422 1150 422 2328 
Q 422 3509 836 4129 
Q 1250 4750 2034 4750 
z
" transform="scale(0.015625)"/>
        <path id="DejaVuSans-2e" d="M 684 794 
L 1344 794 
L 1344 0 
L 684 0 
L 684 794 
z
" transform="scale(0.015625)"/>
        <path id="DejaVuSans-32" d="M 1228 531 
L 3431 531 
L 3431 0 
L 469 0 
L 469 531 
Q 828 903 1448 1529 
Q 2069 2156 2228 2338 
Q 2531 2678 2651 2914 
Q 2772 3150 2772 3378 
Q 2772 3750 2511 3984 
Q 2250 4219 1831 4219 
Q 1534 4219 1204 4116 
Q 875 4013 500 3803 
L 500 4441 
Q 881 4594 1212 4672 
Q 1544 4750 1819 4750 
Q 2544 4750 2975 4387 
Q 3406 4025 3406 3419 
Q 3406 3131 3298 2873 
Q 3191 2616 2906 2266 
Q 2828 2175 2409 1742 
Q 1991 1309 1228 531 
z
" transform="scale(0.015625)"/>
       </defs>
       <use xlink:href="#DejaVuSans-30"/>
       <use xlink:href="#DejaVuSans-2e" x="63.623047"/>
       <use xlink:href="#DejaVuSans-32" x="95.410156"/>
      </g>
     </g>
    </g>
    <g id="xtick_2">
     <g id="line2d_2">
      <g>
       <use xlink:href="#ma2c33b9af1" x="108.498578" y="260.521875" style="stroke: #000000; stroke-width: 0.8"/>
      </g>
     </g>
     <g id="text_2">
      <!-- 0.3 -->
      <g transform="translate(100.547015 275.120313) scale(0.1 -0.1)">
       <defs>
        <path id="DejaVuSans-33" d="M 2597 2516 
Q 3050 2419 3304 2112 
Q 3559 1806 3559 1356 
Q 3559 666 3084 287 
Q 2609 -91 1734 -91 
Q 1441 -91 1130 -33 
Q 819 25 488 141 
L 488 750 
Q 750 597 1062 519 
Q 1375 441 1716 441 
Q 2309 441 2620 675 
Q 2931 909 2931 1356 
Q 2931 1769 2642 2001 
Q 2353 2234 1838 2234 
L 1294 2234 
L 1294 2753 
L 1863 2753 
Q 2328 2753 2575 2939 
Q 2822 3125 2822 3475 
Q 2822 3834 2567 4026 
Q 2313 4219 1838 4219 
Q 1578 4219 1281 4162 
Q 984 4106 628 3988 
L 628 4550 
Q 988 4650 1302 4700 
Q 1616 4750 1894 4750 
Q 2613 4750 3031 4423 
Q 3450 4097 3450 3541 
Q 3450 3153 3228 2886 
Q 3006 2619 2597 2516 
z
" transform="scale(0.015625)"/>
       </defs>
       <use xlink:href="#DejaVuSans-30"/>
       <use xlink:href="#DejaVuSans-2e" x="63.623047"/>
       <use xlink:href="#DejaVuSans-33" x="95.410156"/>
      </g>
     </g>
    </g>
    <g id="xtick_3">
     <g id="line2d_3">
      <g>
       <use xlink:href="#ma2c33b9af1" x="164.29535" y="260.521875" style="stroke: #000000; stroke-width: 0.8"/>
      </g>
     </g>
     <g id="text_3">
      <!-- 0.4 -->
      <g transform="translate(156.343788 275.120313) scale(0.1 -0.1)">
       <defs>
        <path id="DejaVuSans-34" d="M 2419 4116 
L 825 1625 
L 2419 1625 
L 2419 4116 
z
M 2253 4666 
L 3047 4666 
L 3047 1625 
L 3713 1625 
L 3713 1100 
L 3047 1100 
L 3047 0 
L 2419 0 
L 2419 1100 
L 313 1100 
L 313 1709 
L 2253 4666 
z
" transform="scale(0.015625)"/>
       </defs>
       <use xlink:href="#DejaVuSans-30"/>
       <use xlink:href="#DejaVuSans-2e" x="63.623047"/>
       <use xlink:href="#DejaVuSans-34" x="95.410156"/>
      </g>
     </g>
    </g>
    <g id="xtick_4">
     <g id="line2d_4">
      <g>
       <use xlink:href="#ma2c33b9af1" x="220.092123" y="260.521875" style="stroke: #000000; stroke-width: 0.8"/>
      </g>
     </g>
     <g id="text_4">
      <!-- 0.5 -->
      <g transform="translate(212.14056 275.120313) scale(0.1 -0.1)">
       <defs>
        <path id="DejaVuSans-35" d="M 691 4666 
L 3169 4666 
L 3169 4134 
L 1269 4134 
L 1269 2991 
Q 1406 3038 1543 3061 
Q 1681 3084 1819 3084 
Q 2600 3084 3056 2656 
Q 3513 2228 3513 1497 
Q 3513 744 3044 326 
Q 2575 -91 1722 -91 
Q 1428 -91 1123 -41 
Q 819 9 494 109 
L 494 744 
Q 775 591 1075 516 
Q 1375 441 1709 441 
Q 2250 441 2565 725 
Q 2881 1009 2881 1497 
Q 2881 1984 2565 2268 
Q 2250 2553 1709 2553 
Q 1456 2553 1204 2497 
Q 953 2441 691 2322 
L 691 4666 
z
" transform="scale(0.015625)"/>
       </defs>
       <use xlink:href="#DejaVuSans-30"/>
       <use xlink:href="#DejaVuSans-2e" x="63.623047"/>
       <use xlink:href="#DejaVuSans-35" x="95.410156"/>
      </g>
     </g>
    </g>
    <g id="xtick_5">
     <g id="line2d_5">
      <g>
       <use xlink:href="#ma2c33b9af1" x="275.888895" y="260.521875" style="stroke: #000000; stroke-width: 0.8"/>
      </g>
     </g>
     <g id="text_5">
      <!-- 0.6 -->
      <g transform="translate(267.937333 275.120313) scale(0.1 -0.1)">
       <defs>
        <path id="DejaVuSans-36" d="M 2113 2584 
Q 1688 2584 1439 2293 
Q 1191 2003 1191 1497 
Q 1191 994 1439 701 
Q 1688 409 2113 409 
Q 2538 409 2786 701 
Q 3034 994 3034 1497 
Q 3034 2003 2786 2293 
Q 2538 2584 2113 2584 
z
M 3366 4563 
L 3366 3988 
Q 3128 4100 2886 4159 
Q 2644 4219 2406 4219 
Q 1781 4219 1451 3797 
Q 1122 3375 1075 2522 
Q 1259 2794 1537 2939 
Q 1816 3084 2150 3084 
Q 2853 3084 3261 2657 
Q 3669 2231 3669 1497 
Q 3669 778 3244 343 
Q 2819 -91 2113 -91 
Q 1303 -91 875 529 
Q 447 1150 447 2328 
Q 447 3434 972 4092 
Q 1497 4750 2381 4750 
Q 2619 4750 2861 4703 
Q 3103 4656 3366 4563 
z
" transform="scale(0.015625)"/>
       </defs>
       <use xlink:href="#DejaVuSans-30"/>
       <use xlink:href="#DejaVuSans-2e" x="63.623047"/>
       <use xlink:href="#DejaVuSans-36" x="95.410156"/>
      </g>
     </g>
    </g>
   </g>
   <g id="matplotlib.axis_2">
    <g id="ytick_1">
     <g id="line2d_6">
      <defs>
       <path id="m776497dcaf" d="M 0 0 
L -3.5 0 
" style="stroke: #000000; stroke-width: 0.8"/>
      </defs>
      <g>
       <use xlink:href="#m776497dcaf" x="41.711875" y="260.521875" style="stroke: #000000; stroke-width: 0.8"/>
      </g>
     </g>
     <g id="text_6">
      <!-- 0 -->
      <g transform="translate(28.349375 264.321094) scale(0.1 -0.1)">
       <use xlink:href="#DejaVuSans-30"/>
      </g>
     </g>
    </g>
    <g id="ytick_2">
     <g id="line2d_7">
      <g>
       <use xlink:href="#m776497dcaf" x="41.711875" y="213.365927" style="stroke: #000000; stroke-width: 0.8"/>
      </g>
     </g>
     <g id="text_7">
      <!-- 2 -->
      <g transform="translate(28.349375 217.165146) scale(0.1 -0.1)">
       <use xlink:href="#DejaVuSans-32"/>
      </g>
     </g>
    </g>
    <g id="ytick_3">
     <g id="line2d_8">
      <g>
       <use xlink:href="#m776497dcaf" x="41.711875" y="166.209979" style="stroke: #000000; stroke-width: 0.8"/>
      </g>
     </g>
     <g id="text_8">
      <!-- 4 -->
      <g transform="translate(28.349375 170.009198) scale(0.1 -0.1)">
       <use xlink:href="#DejaVuSans-34"/>
      </g>
     </g>
    </g>
    <g id="ytick_4">
     <g id="line2d_9">
      <g>
       <use xlink:href="#m776497dcaf" x="41.711875" y="119.054031" style="stroke: #000000; stroke-width: 0.8"/>
      </g>
     </g>
     <g id="text_9">
      <!-- 6 -->
      <g transform="translate(28.349375 122.85325) scale(0.1 -0.1)">
       <use xlink:href="#DejaVuSans-36"/>
      </g>
     </g>
    </g>
    <g id="ytick_5">
     <g id="line2d_10">
      <g>
       <use xlink:href="#m776497dcaf" x="41.711875" y="71.898083" style="stroke: #000000; stroke-width: 0.8"/>
      </g>
     </g>
     <g id="text_10">
      <!-- 8 -->
      <g transform="translate(28.349375 75.697302) scale(0.1 -0.1)">
       <defs>
        <path id="DejaVuSans-38" d="M 2034 2216 
Q 1584 2216 1326 1975 
Q 1069 1734 1069 1313 
Q 1069 891 1326 650 
Q 1584 409 2034 409 
Q 2484 409 2743 651 
Q 3003 894 3003 1313 
Q 3003 1734 2745 1975 
Q 2488 2216 2034 2216 
z
M 1403 2484 
Q 997 2584 770 2862 
Q 544 3141 544 3541 
Q 544 4100 942 4425 
Q 1341 4750 2034 4750 
Q 2731 4750 3128 4425 
Q 3525 4100 3525 3541 
Q 3525 3141 3298 2862 
Q 3072 2584 2669 2484 
Q 3125 2378 3379 2068 
Q 3634 1759 3634 1313 
Q 3634 634 3220 271 
Q 2806 -91 2034 -91 
Q 1263 -91 848 271 
Q 434 634 434 1313 
Q 434 1759 690 2068 
Q 947 2378 1403 2484 
z
M 1172 3481 
Q 1172 3119 1398 2916 
Q 1625 2713 2034 2713 
Q 2441 2713 2670 2916 
Q 2900 3119 2900 3481 
Q 2900 3844 2670 4047 
Q 2441 4250 2034 4250 
Q 1625 4250 1398 4047 
Q 1172 3844 1172 3481 
z
" transform="scale(0.015625)"/>
       </defs>
       <use xlink:href="#DejaVuSans-38"/>
      </g>
     </g>
    </g>
    <g id="text_11">
     <!-- Fraction of cells -->
     <g transform="translate(21.437812 198.811719) rotate(-90) scale(0.14 -0.14)">
      <defs>
       <path id="DejaVuSans-46" d="M 628 4666 
L 3309 4666 
L 3309 4134 
L 1259 4134 
L 1259 2759 
L 3109 2759 
L 3109 2228 
L 1259 2228 
L 1259 0 
L 628 0 
L 628 4666 
z
" transform="scale(0.015625)"/>
       <path id="DejaVuSans-72" d="M 2631 2963 
Q 2534 3019 2420 3045 
Q 2306 3072 2169 3072 
Q 1681 3072 1420 2755 
Q 1159 2438 1159 1844 
L 1159 0 
L 581 0 
L 581 3500 
L 1159 3500 
L 1159 2956 
Q 1341 3275 1631 3429 
Q 1922 3584 2338 3584 
Q 2397 3584 2469 3576 
Q 2541 3569 2628 3553 
L 2631 2963 
z
" transform="scale(0.015625)"/>
       <path id="DejaVuSans-61" d="M 2194 1759 
Q 1497 1759 1228 1600 
Q 959 1441 959 1056 
Q 959 750 1161 570 
Q 1363 391 1709 391 
Q 2188 391 2477 730 
Q 2766 1069 2766 1631 
L 2766 1759 
L 2194 1759 
z
M 3341 1997 
L 3341 0 
L 2766 0 
L 2766 531 
Q 2569 213 2275 61 
Q 1981 -91 1556 -91 
Q 1019 -91 701 211 
Q 384 513 384 1019 
Q 384 1609 779 1909 
Q 1175 2209 1959 2209 
L 2766 2209 
L 2766 2266 
Q 2766 2663 2505 2880 
Q 2244 3097 1772 3097 
Q 1472 3097 1187 3025 
Q 903 2953 641 2809 
L 641 3341 
Q 956 3463 1253 3523 
Q 1550 3584 1831 3584 
Q 2591 3584 2966 3190 
Q 3341 2797 3341 1997 
z
" transform="scale(0.015625)"/>
       <path id="DejaVuSans-63" d="M 3122 3366 
L 3122 2828 
Q 2878 2963 2633 3030 
Q 2388 3097 2138 3097 
Q 1578 3097 1268 2742 
Q 959 2388 959 1747 
Q 959 1106 1268 751 
Q 1578 397 2138 397 
Q 2388 397 2633 464 
Q 2878 531 3122 666 
L 3122 134 
Q 2881 22 2623 -34 
Q 2366 -91 2075 -91 
Q 1284 -91 818 406 
Q 353 903 353 1747 
Q 353 2603 823 3093 
Q 1294 3584 2113 3584 
Q 2378 3584 2631 3529 
Q 2884 3475 3122 3366 
z
" transform="scale(0.015625)"/>
       <path id="DejaVuSans-74" d="M 1172 4494 
L 1172 3500 
L 2356 3500 
L 2356 3053 
L 1172 3053 
L 1172 1153 
Q 1172 725 1289 603 
Q 1406 481 1766 481 
L 2356 481 
L 2356 0 
L 1766 0 
Q 1100 0 847 248 
Q 594 497 594 1153 
L 594 3053 
L 172 3053 
L 172 3500 
L 594 3500 
L 594 4494 
L 1172 4494 
z
" transform="scale(0.015625)"/>
       <path id="DejaVuSans-69" d="M 603 3500 
L 1178 3500 
L 1178 0 
L 603 0 
L 603 3500 
z
M 603 4863 
L 1178 4863 
L 1178 4134 
L 603 4134 
L 603 4863 
z
" transform="scale(0.015625)"/>
       <path id="DejaVuSans-6f" d="M 1959 3097 
Q 1497 3097 1228 2736 
Q 959 2375 959 1747 
Q 959 1119 1226 758 
Q 1494 397 1959 397 
Q 2419 397 2687 759 
Q 2956 1122 2956 1747 
Q 2956 2369 2687 2733 
Q 2419 3097 1959 3097 
z
M 1959 3584 
Q 2709 3584 3137 3096 
Q 3566 2609 3566 1747 
Q 3566 888 3137 398 
Q 2709 -91 1959 -91 
Q 1206 -91 779 398 
Q 353 888 353 1747 
Q 353 2609 779 3096 
Q 1206 3584 1959 3584 
z
" transform="scale(0.015625)"/>
       <path id="DejaVuSans-6e" d="M 3513 2113 
L 3513 0 
L 2938 0 
L 2938 2094 
Q 2938 2591 2744 2837 
Q 2550 3084 2163 3084 
Q 1697 3084 1428 2787 
Q 1159 2491 1159 1978 
L 1159 0 
L 581 0 
L 581 3500 
L 1159 3500 
L 1159 2956 
Q 1366 3272 1645 3428 
Q 1925 3584 2291 3584 
Q 2894 3584 3203 3211 
Q 3513 2838 3513 2113 
z
" transform="scale(0.015625)"/>
       <path id="DejaVuSans-20" transform="scale(0.015625)"/>
       <path id="DejaVuSans-66" d="M 2375 4863 
L 2375 4384 
L 1825 4384 
Q 1516 4384 1395 4259 
Q 1275 4134 1275 3809 
L 1275 3500 
L 2222 3500 
L 2222 3053 
L 1275 3053 
L 1275 0 
L 697 0 
L 697 3053 
L 147 3053 
L 147 3500 
L 697 3500 
L 697 3744 
Q 697 4328 969 4595 
Q 1241 4863 1831 4863 
L 2375 4863 
z
" transform="scale(0.015625)"/>
       <path id="DejaVuSans-65" d="M 3597 1894 
L 3597 1613 
L 953 1613 
Q 991 1019 1311 708 
Q 1631 397 2203 397 
Q 2534 397 2845 478 
Q 3156 559 3463 722 
L 3463 178 
Q 3153 47 2828 -22 
Q 2503 -91 2169 -91 
Q 1331 -91 842 396 
Q 353 884 353 1716 
Q 353 2575 817 3079 
Q 1281 3584 2069 3584 
Q 2775 3584 3186 3129 
Q 3597 2675 3597 1894 
z
M 3022 2063 
Q 3016 2534 2758 2815 
Q 2500 3097 2075 3097 
Q 1594 3097 1305 2825 
Q 1016 2553 972 2059 
L 3022 2063 
z
" transform="scale(0.015625)"/>
       <path id="DejaVuSans-6c" d="M 603 4863 
L 1178 4863 
L 1178 0 
L 603 0 
L 603 4863 
z
" transform="scale(0.015625)"/>
       <path id="DejaVuSans-73" d="M 2834 3397 
L 2834 2853 
Q 2591 2978 2328 3040 
Q 2066 3103 1784 3103 
Q 1356 3103 1142 2972 
Q 928 2841 928 2578 
Q 928 2378 1081 2264 
Q 1234 2150 1697 2047 
L 1894 2003 
Q 2506 1872 2764 1633 
Q 3022 1394 3022 966 
Q 3022 478 2636 193 
Q 2250 -91 1575 -91 
Q 1294 -91 989 -36 
Q 684 19 347 128 
L 347 722 
Q 666 556 975 473 
Q 1284 391 1588 391 
Q 1994 391 2212 530 
Q 2431 669 2431 922 
Q 2431 1156 2273 1281 
Q 2116 1406 1581 1522 
L 1381 1569 
Q 847 1681 609 1914 
Q 372 2147 372 2553 
Q 372 3047 722 3315 
Q 1072 3584 1716 3584 
Q 2034 3584 2315 3537 
Q 2597 3491 2834 3397 
z
" transform="scale(0.015625)"/>
      </defs>
      <use xlink:href="#DejaVuSans-46"/>
      <use xlink:href="#DejaVuSans-72" x="50.269531"/>
      <use xlink:href="#DejaVuSans-61" x="91.382812"/>
      <use xlink:href="#DejaVuSans-63" x="152.662109"/>
      <use xlink:href="#DejaVuSans-74" x="207.642578"/>
      <use xlink:href="#DejaVuSans-69" x="246.851562"/>
      <use xlink:href="#DejaVuSans-6f" x="274.634766"/>
      <use xlink:href="#DejaVuSans-6e" x="335.816406"/>
      <use xlink:href="#DejaVuSans-20" x="399.195312"/>
      <use xlink:href="#DejaVuSans-6f" x="430.982422"/>
      <use xlink:href="#DejaVuSans-66" x="492.164062"/>
      <use xlink:href="#DejaVuSans-20" x="527.369141"/>
      <use xlink:href="#DejaVuSans-63" x="559.15625"/>
      <use xlink:href="#DejaVuSans-65" x="614.136719"/>
      <use xlink:href="#DejaVuSans-6c" x="675.660156"/>
      <use xlink:href="#DejaVuSans-6c" x="703.443359"/>
      <use xlink:href="#DejaVuSans-73" x="731.226562"/>
     </g>
    </g>
   </g>
   <g id="line2d_11">
    <path d="M 41.592693 213.984735 
L 43.825681 204.850296 
L 46.616915 192.442787 
L 51.362013 170.051952 
L 54.990618 153.403578 
L 57.223605 144.100734 
L 59.177469 136.890189 
L 60.852209 131.572092 
L 62.247827 127.837682 
L 63.643444 124.795568 
L 64.759937 122.888215 
L 65.876431 121.464457 
L 66.713801 120.718937 
L 67.551172 120.250852 
L 68.388542 120.059013 
L 69.225912 120.140162 
L 70.063282 120.489018 
L 70.900653 121.098331 
L 71.738023 121.958976 
L 72.854517 123.47839 
L 73.97101 125.394761 
L 75.366628 128.294993 
L 77.041368 132.413889 
L 78.995232 137.915985 
L 81.507343 145.718058 
L 88.206305 166.921291 
L 90.439292 173.106324 
L 92.393156 177.867089 
L 94.067897 181.392594 
L 95.742637 184.367131 
L 97.138255 186.410366 
L 98.533872 188.053221 
L 99.650365 189.080528 
L 100.766859 189.856478 
L 101.883353 190.386558 
L 102.999846 190.67796 
L 104.11634 190.739395 
L 105.232834 190.58095 
L 106.349328 190.213961 
L 107.744945 189.481117 
L 109.140562 188.468868 
L 110.815302 186.926886 
L 112.490043 185.080387 
L 114.72303 182.24945 
L 117.793388 177.935217 
L 122.538486 171.252253 
L 124.771473 168.506706 
L 126.446214 166.754905 
L 128.120955 165.334677 
L 129.516572 164.4425 
L 130.912189 163.842041 
L 132.028682 163.584918 
L 133.145176 163.53414 
L 134.26167 163.694259 
L 135.378164 164.067181 
L 136.494657 164.652148 
L 137.890274 165.676152 
L 139.285892 167.013857 
L 140.681509 168.647326 
L 142.356249 170.964968 
L 144.310113 174.099625 
L 146.543101 178.13968 
L 149.613458 184.229581 
L 157.708037 200.584078 
L 160.220148 205.075362 
L 162.453136 208.668678 
L 164.686123 211.852256 
L 166.91911 214.62428 
L 169.152098 217.011045 
L 171.385085 219.063105 
L 173.897196 221.058382 
L 177.246677 223.397976 
L 183.945639 227.99089 
L 187.015997 230.399907 
L 190.365478 233.332451 
L 194.552329 237.339363 
L 201.809538 244.329912 
L 204.879896 246.968402 
L 207.67113 249.096148 
L 210.462365 250.943061 
L 213.253599 252.514254 
L 216.044833 253.832763 
L 219.115191 255.028585 
L 222.464672 256.075587 
L 225.814153 256.894858 
L 229.442757 257.559051 
L 233.350485 258.044896 
L 237.537337 258.342595 
L 243.119805 258.492524 
L 256.238606 258.7429 
L 263.495815 259.185073 
L 278.289356 260.149709 
L 280.801467 260.250034 
L 280.801467 260.250034 
" clip-path="url(#p850c7a2971)" style="fill: none; stroke: #1f77b4; stroke-width: 1.5; stroke-linecap: square"/>
   </g>
   <g id="line2d_12">
    <path d="M 41.592693 260.482377 
L 51.362013 260.296284 
L 57.502728 259.972993 
L 62.806073 259.47617 
L 67.830295 258.777589 
L 72.854517 257.851843 
L 78.157862 256.639536 
L 82.90296 255.327625 
L 86.810688 254.021718 
L 90.160169 252.670695 
L 93.230527 251.190003 
L 96.300884 249.441808 
L 99.371242 247.417854 
L 102.720723 244.929414 
L 107.465821 241.079897 
L 114.443907 235.424785 
L 118.630758 232.344912 
L 128.679201 225.157622 
L 130.912189 223.191427 
L 133.145176 220.922646 
L 135.09904 218.633093 
L 137.052904 216.018882 
L 139.006768 213.053224 
L 141.239755 209.217458 
L 143.472743 204.91046 
L 145.984854 199.540156 
L 148.776088 193.015145 
L 152.404692 183.898772 
L 164.127876 153.913492 
L 167.477357 146.221785 
L 170.547715 139.75087 
L 173.338949 134.410973 
L 175.85106 130.095457 
L 178.084047 126.692153 
L 180.037911 124.084108 
L 181.991775 121.856594 
L 183.666516 120.27794 
L 185.341256 119.02959 
L 186.736874 118.258489 
L 188.132491 117.745738 
L 189.528108 117.502893 
L 190.644601 117.509702 
L 191.761095 117.699854 
L 192.877589 118.076608 
L 194.273206 118.813239 
L 195.668823 119.846672 
L 197.06444 121.175784 
L 198.460057 122.79633 
L 200.134798 125.114924 
L 201.809538 127.823137 
L 203.763402 131.440395 
L 205.99639 136.113413 
L 208.508501 141.943564 
L 211.578858 149.669367 
L 222.743795 178.382216 
L 225.255906 183.996381 
L 227.768017 189.05326 
L 230.001004 193.04401 
L 232.233992 196.558153 
L 234.466979 199.622099 
L 236.699966 202.28733 
L 239.212077 204.899763 
L 242.003311 207.470614 
L 251.493508 215.934225 
L 254.284742 218.862325 
L 257.3551 222.414821 
L 260.983704 226.976255 
L 271.032147 239.848831 
L 274.102505 243.305648 
L 276.893739 246.116385 
L 279.684974 248.590462 
L 280.801467 249.486382 
L 280.801467 249.486382 
" clip-path="url(#p850c7a2971)" style="fill: none; stroke: #ff7f0e; stroke-width: 1.5; stroke-linecap: square"/>
   </g>
   <g id="line2d_13">
    <path d="M 41.592693 260.483562 
L 48.570779 260.300486 
L 52.75763 259.98466 
L 56.107111 259.519523 
L 58.898346 258.926553 
L 61.68958 258.099039 
L 64.201691 257.121025 
L 66.713801 255.897018 
L 69.225912 254.405721 
L 71.4589 252.837443 
L 73.691887 251.019823 
L 75.924874 248.926126 
L 78.157862 246.522531 
L 80.390849 243.769991 
L 82.623837 240.628657 
L 84.856824 237.064219 
L 87.089811 233.054888 
L 89.322799 228.597432 
L 91.834909 223.071566 
L 94.626144 216.369727 
L 97.975625 207.717819 
L 102.720723 194.782723 
L 120.026375 146.500648 
L 126.167091 128.676269 
L 133.4243 107.622363 
L 136.215534 100.254475 
L 138.448521 94.9985 
L 140.123262 91.550161 
L 141.798002 88.60761 
L 143.193619 86.590919 
L 144.589237 85.007451 
L 145.70573 84.073138 
L 146.822224 83.448906 
L 147.659594 83.191078 
L 148.496964 83.118025 
L 149.334335 83.233035 
L 150.171705 83.538683 
L 151.009075 84.036808 
L 152.125569 85.002096 
L 153.242063 86.311579 
L 154.358556 87.962677 
L 155.754174 90.498081 
L 157.149791 93.540045 
L 158.824531 97.820792 
L 160.499272 102.728994 
L 162.453136 109.139381 
L 164.965246 118.220638 
L 168.872974 133.379106 
L 173.897196 152.710485 
L 176.967554 163.56764 
L 179.479665 171.697738 
L 181.991775 179.132715 
L 184.503886 185.9209 
L 187.29512 192.801034 
L 190.086355 199.099983 
L 193.156712 205.495661 
L 196.785317 212.525739 
L 201.530415 221.199394 
L 208.508501 233.465326 
L 212.695352 240.432239 
L 215.76571 245.107666 
L 218.27782 248.523323 
L 220.510808 251.18214 
L 222.464672 253.189931 
L 224.418536 254.893225 
L 226.3724 256.299855 
L 228.326264 257.429855 
L 230.280128 258.312417 
L 232.513115 259.062776 
L 235.025226 259.64305 
L 237.81646 260.0464 
L 241.445065 260.324718 
L 246.74841 260.475913 
L 258.750717 260.521079 
L 280.801467 260.521875 
L 280.801467 260.521875 
" clip-path="url(#p850c7a2971)" style="fill: none; stroke: #2ca02c; stroke-width: 1.5; stroke-linecap: square"/>
   </g>
   <g id="patch_63">
    <path d="M 41.711875 260.521875 
L 41.711875 27.437812 
" style="fill: none; stroke: #000000; stroke-width: 0.8; stroke-linejoin: miter; stroke-linecap: square"/>
   </g>
   <g id="patch_64">
    <path d="M 280.642827 260.521875 
L 280.642827 27.437812 
" style="fill: none; stroke: #000000; stroke-width: 0.8; stroke-linejoin: miter; stroke-linecap: square"/>
   </g>
   <g id="patch_65">
    <path d="M 41.711875 260.521875 
L 280.642827 260.521875 
" style="fill: none; stroke: #000000; stroke-width: 0.8; stroke-linejoin: miter; stroke-linecap: square"/>
   </g>
   <g id="patch_66">
    <path d="M 41.711875 27.437812 
L 280.642827 27.437812 
" style="fill: none; stroke: #000000; stroke-width: 0.8; stroke-linejoin: miter; stroke-linecap: square"/>
   </g>
   <g id="text_12">
    <!-- SRV -->
    <g transform="translate(147.466101 21.437813) scale(0.14 -0.14)">
     <defs>
      <path id="DejaVuSans-53" d="M 3425 4513 
L 3425 3897 
Q 3066 4069 2747 4153 
Q 2428 4238 2131 4238 
Q 1616 4238 1336 4038 
Q 1056 3838 1056 3469 
Q 1056 3159 1242 3001 
Q 1428 2844 1947 2747 
L 2328 2669 
Q 3034 2534 3370 2195 
Q 3706 1856 3706 1288 
Q 3706 609 3251 259 
Q 2797 -91 1919 -91 
Q 1588 -91 1214 -16 
Q 841 59 441 206 
L 441 856 
Q 825 641 1194 531 
Q 1563 422 1919 422 
Q 2459 422 2753 634 
Q 3047 847 3047 1241 
Q 3047 1584 2836 1778 
Q 2625 1972 2144 2069 
L 1759 2144 
Q 1053 2284 737 2584 
Q 422 2884 422 3419 
Q 422 4038 858 4394 
Q 1294 4750 2059 4750 
Q 2388 4750 2728 4690 
Q 3069 4631 3425 4513 
z
" transform="scale(0.015625)"/>
      <path id="DejaVuSans-52" d="M 2841 2188 
Q 3044 2119 3236 1894 
Q 3428 1669 3622 1275 
L 4263 0 
L 3584 0 
L 2988 1197 
Q 2756 1666 2539 1819 
Q 2322 1972 1947 1972 
L 1259 1972 
L 1259 0 
L 628 0 
L 628 4666 
L 2053 4666 
Q 2853 4666 3247 4331 
Q 3641 3997 3641 3322 
Q 3641 2881 3436 2590 
Q 3231 2300 2841 2188 
z
M 1259 4147 
L 1259 2491 
L 2053 2491 
Q 2509 2491 2742 2702 
Q 2975 2913 2975 3322 
Q 2975 3731 2742 3939 
Q 2509 4147 2053 4147 
L 1259 4147 
z
" transform="scale(0.015625)"/>
      <path id="DejaVuSans-56" d="M 1831 0 
L 50 4666 
L 709 4666 
L 2188 738 
L 3669 4666 
L 4325 4666 
L 2547 0 
L 1831 0 
z
" transform="scale(0.015625)"/>
     </defs>
     <use xlink:href="#DejaVuSans-53"/>
     <use xlink:href="#DejaVuSans-52" x="63.476562"/>
     <use xlink:href="#DejaVuSans-56" x="127.458984"/>
    </g>
   </g>
   <g id="legend_1">
    <g id="patch_67">
     <path d="M 192.253452 89.879062 
L 272.242827 89.879062 
Q 274.642827 89.879062 274.642827 87.479062 
L 274.642827 35.837812 
Q 274.642827 33.437812 272.242827 33.437812 
L 192.253452 33.437812 
Q 189.853452 33.437812 189.853452 35.837812 
L 189.853452 87.479062 
Q 189.853452 89.879062 192.253452 89.879062 
z
" style="fill: #ffffff; opacity: 0.8; stroke: #cccccc; stroke-linejoin: miter"/>
    </g>
    <g id="patch_68">
     <path d="M 194.653452 47.355937 
L 218.653452 47.355937 
L 218.653452 38.955937 
L 194.653452 38.955937 
z
" style="fill: #1f77b4; opacity: 0.4"/>
    </g>
    <g id="text_13">
     <!-- control -->
     <g transform="translate(228.253452 47.355937) scale(0.12 -0.12)">
      <use xlink:href="#DejaVuSans-63"/>
      <use xlink:href="#DejaVuSans-6f" x="54.980469"/>
      <use xlink:href="#DejaVuSans-6e" x="116.162109"/>
      <use xlink:href="#DejaVuSans-74" x="179.541016"/>
      <use xlink:href="#DejaVuSans-72" x="218.75"/>
      <use xlink:href="#DejaVuSans-6f" x="257.613281"/>
      <use xlink:href="#DejaVuSans-6c" x="318.794922"/>
     </g>
    </g>
    <g id="patch_69">
     <path d="M 194.653452 64.969687 
L 218.653452 64.969687 
L 218.653452 56.569687 
L 194.653452 56.569687 
z
" style="fill: #ff7f0e; opacity: 0.4"/>
    </g>
    <g id="text_14">
     <!-- cytd -->
     <g transform="translate(228.253452 64.969687) scale(0.12 -0.12)">
      <defs>
       <path id="DejaVuSans-79" d="M 2059 -325 
Q 1816 -950 1584 -1140 
Q 1353 -1331 966 -1331 
L 506 -1331 
L 506 -850 
L 844 -850 
Q 1081 -850 1212 -737 
Q 1344 -625 1503 -206 
L 1606 56 
L 191 3500 
L 800 3500 
L 1894 763 
L 2988 3500 
L 3597 3500 
L 2059 -325 
z
" transform="scale(0.015625)"/>
       <path id="DejaVuSans-64" d="M 2906 2969 
L 2906 4863 
L 3481 4863 
L 3481 0 
L 2906 0 
L 2906 525 
Q 2725 213 2448 61 
Q 2172 -91 1784 -91 
Q 1150 -91 751 415 
Q 353 922 353 1747 
Q 353 2572 751 3078 
Q 1150 3584 1784 3584 
Q 2172 3584 2448 3432 
Q 2725 3281 2906 2969 
z
M 947 1747 
Q 947 1113 1208 752 
Q 1469 391 1925 391 
Q 2381 391 2643 752 
Q 2906 1113 2906 1747 
Q 2906 2381 2643 2742 
Q 2381 3103 1925 3103 
Q 1469 3103 1208 2742 
Q 947 2381 947 1747 
z
" transform="scale(0.015625)"/>
      </defs>
      <use xlink:href="#DejaVuSans-63"/>
      <use xlink:href="#DejaVuSans-79" x="54.980469"/>
      <use xlink:href="#DejaVuSans-74" x="114.160156"/>
      <use xlink:href="#DejaVuSans-64" x="153.369141"/>
     </g>
    </g>
    <g id="patch_70">
     <path d="M 194.653452 82.583437 
L 218.653452 82.583437 
L 218.653452 74.183437 
L 194.653452 74.183437 
z
" style="fill: #2ca02c; opacity: 0.4"/>
    </g>
    <g id="text_15">
     <!-- jasp -->
     <g transform="translate(228.253452 82.583437) scale(0.12 -0.12)">
      <defs>
       <path id="DejaVuSans-6a" d="M 603 3500 
L 1178 3500 
L 1178 -63 
Q 1178 -731 923 -1031 
Q 669 -1331 103 -1331 
L -116 -1331 
L -116 -844 
L 38 -844 
Q 366 -844 484 -692 
Q 603 -541 603 -63 
L 603 3500 
z
M 603 4863 
L 1178 4863 
L 1178 4134 
L 603 4134 
L 603 4863 
z
" transform="scale(0.015625)"/>
       <path id="DejaVuSans-70" d="M 1159 525 
L 1159 -1331 
L 581 -1331 
L 581 3500 
L 1159 3500 
L 1159 2969 
Q 1341 3281 1617 3432 
Q 1894 3584 2278 3584 
Q 2916 3584 3314 3078 
Q 3713 2572 3713 1747 
Q 3713 922 3314 415 
Q 2916 -91 2278 -91 
Q 1894 -91 1617 61 
Q 1341 213 1159 525 
z
M 3116 1747 
Q 3116 2381 2855 2742 
Q 2594 3103 2138 3103 
Q 1681 3103 1420 2742 
Q 1159 2381 1159 1747 
Q 1159 1113 1420 752 
Q 1681 391 2138 391 
Q 2594 391 2855 752 
Q 3116 1113 3116 1747 
z
" transform="scale(0.015625)"/>
      </defs>
      <use xlink:href="#DejaVuSans-6a"/>
      <use xlink:href="#DejaVuSans-61" x="27.783203"/>
      <use xlink:href="#DejaVuSans-73" x="89.0625"/>
      <use xlink:href="#DejaVuSans-70" x="141.162109"/>
     </g>
    </g>
   </g>
  </g>
  <g id="axes_2">
   <g id="patch_71">
    <path d="M 326.269048 260.521875 
L 565.2 260.521875 
L 565.2 27.437812 
L 326.269048 27.437812 
z
" style="fill: #ffffff"/>
   </g>
   <g id="patch_72">
    <path d="M 327.528675 260.521875 
L 334.519964 260.521875 
L 334.519964 229.440359 
L 327.528675 229.440359 
z
" clip-path="url(#p8ffe4b62a0)" style="fill: #1f77b4; opacity: 0.4"/>
   </g>
   <g id="patch_73">
    <path d="M 334.519964 260.521875 
L 341.511254 260.521875 
L 341.511254 206.129222 
L 334.519964 206.129222 
z
" clip-path="url(#p8ffe4b62a0)" style="fill: #1f77b4; opacity: 0.4"/>
   </g>
   <g id="patch_74">
    <path d="M 341.511254 260.521875 
L 348.502543 260.521875 
L 348.502543 136.195812 
L 341.511254 136.195812 
z
" clip-path="url(#p8ffe4b62a0)" style="fill: #1f77b4; opacity: 0.4"/>
   </g>
   <g id="patch_75">
    <path d="M 348.502543 260.521875 
L 355.493832 260.521875 
L 355.493832 159.506949 
L 348.502543 159.506949 
z
" clip-path="url(#p8ffe4b62a0)" style="fill: #1f77b4; opacity: 0.4"/>
   </g>
   <g id="patch_76">
    <path d="M 355.493832 260.521875 
L 362.485121 260.521875 
L 362.485121 112.884675 
L 355.493832 112.884675 
z
" clip-path="url(#p8ffe4b62a0)" style="fill: #1f77b4; opacity: 0.4"/>
   </g>
   <g id="patch_77">
    <path d="M 362.485121 260.521875 
L 369.47641 260.521875 
L 369.47641 128.425433 
L 362.485121 128.425433 
z
" clip-path="url(#p8ffe4b62a0)" style="fill: #1f77b4; opacity: 0.4"/>
   </g>
   <g id="patch_78">
    <path d="M 369.47641 260.521875 
L 376.467699 260.521875 
L 376.467699 89.573538 
L 369.47641 89.573538 
z
" clip-path="url(#p8ffe4b62a0)" style="fill: #1f77b4; opacity: 0.4"/>
   </g>
   <g id="patch_79">
    <path d="M 376.467699 260.521875 
L 383.458988 260.521875 
L 383.458988 74.03278 
L 376.467699 74.03278 
z
" clip-path="url(#p8ffe4b62a0)" style="fill: #1f77b4; opacity: 0.4"/>
   </g>
   <g id="patch_80">
    <path d="M 383.458988 260.521875 
L 390.450277 260.521875 
L 390.450277 112.884675 
L 383.458988 112.884675 
z
" clip-path="url(#p8ffe4b62a0)" style="fill: #1f77b4; opacity: 0.4"/>
   </g>
   <g id="patch_81">
    <path d="M 390.450277 260.521875 
L 397.441566 260.521875 
L 397.441566 151.73657 
L 390.450277 151.73657 
z
" clip-path="url(#p8ffe4b62a0)" style="fill: #1f77b4; opacity: 0.4"/>
   </g>
   <g id="patch_82">
    <path d="M 397.441566 260.521875 
L 404.432855 260.521875 
L 404.432855 190.588464 
L 397.441566 190.588464 
z
" clip-path="url(#p8ffe4b62a0)" style="fill: #1f77b4; opacity: 0.4"/>
   </g>
   <g id="patch_83">
    <path d="M 404.432855 260.521875 
L 411.424144 260.521875 
L 411.424144 175.047707 
L 404.432855 175.047707 
z
" clip-path="url(#p8ffe4b62a0)" style="fill: #1f77b4; opacity: 0.4"/>
   </g>
   <g id="patch_84">
    <path d="M 411.424144 260.521875 
L 418.415433 260.521875 
L 418.415433 213.899601 
L 411.424144 213.899601 
z
" clip-path="url(#p8ffe4b62a0)" style="fill: #1f77b4; opacity: 0.4"/>
   </g>
   <g id="patch_85">
    <path d="M 418.415433 260.521875 
L 425.406722 260.521875 
L 425.406722 237.210738 
L 418.415433 237.210738 
z
" clip-path="url(#p8ffe4b62a0)" style="fill: #1f77b4; opacity: 0.4"/>
   </g>
   <g id="patch_86">
    <path d="M 425.406722 260.521875 
L 432.398011 260.521875 
L 432.398011 229.440359 
L 425.406722 229.440359 
z
" clip-path="url(#p8ffe4b62a0)" style="fill: #1f77b4; opacity: 0.4"/>
   </g>
   <g id="patch_87">
    <path d="M 432.398011 260.521875 
L 439.3893 260.521875 
L 439.3893 252.751496 
L 432.398011 252.751496 
z
" clip-path="url(#p8ffe4b62a0)" style="fill: #1f77b4; opacity: 0.4"/>
   </g>
   <g id="patch_88">
    <path d="M 439.3893 260.521875 
L 446.380589 260.521875 
L 446.380589 237.210738 
L 439.3893 237.210738 
z
" clip-path="url(#p8ffe4b62a0)" style="fill: #1f77b4; opacity: 0.4"/>
   </g>
   <g id="patch_89">
    <path d="M 446.380589 260.521875 
L 453.371878 260.521875 
L 453.371878 260.521875 
L 446.380589 260.521875 
z
" clip-path="url(#p8ffe4b62a0)" style="fill: #1f77b4; opacity: 0.4"/>
   </g>
   <g id="patch_90">
    <path d="M 453.371878 260.521875 
L 460.363167 260.521875 
L 460.363167 252.751496 
L 453.371878 252.751496 
z
" clip-path="url(#p8ffe4b62a0)" style="fill: #1f77b4; opacity: 0.4"/>
   </g>
   <g id="patch_91">
    <path d="M 460.363167 260.521875 
L 467.354456 260.521875 
L 467.354456 229.440359 
L 460.363167 229.440359 
z
" clip-path="url(#p8ffe4b62a0)" style="fill: #1f77b4; opacity: 0.4"/>
   </g>
   <g id="patch_92">
    <path d="M 360.782193 260.521875 
L 368.921909 260.521875 
L 368.921909 174.774694 
L 360.782193 174.774694 
z
" clip-path="url(#p8ffe4b62a0)" style="fill: #ff7f0e; opacity: 0.4"/>
   </g>
   <g id="patch_93">
    <path d="M 368.921909 260.521875 
L 377.061625 260.521875 
L 377.061625 217.648285 
L 368.921909 217.648285 
z
" clip-path="url(#p8ffe4b62a0)" style="fill: #ff7f0e; opacity: 0.4"/>
   </g>
   <g id="patch_94">
    <path d="M 377.061625 260.521875 
L 385.201341 260.521875 
L 385.201341 203.357088 
L 377.061625 203.357088 
z
" clip-path="url(#p8ffe4b62a0)" style="fill: #ff7f0e; opacity: 0.4"/>
   </g>
   <g id="patch_95">
    <path d="M 385.201341 260.521875 
L 393.341057 260.521875 
L 393.341057 189.065891 
L 385.201341 189.065891 
z
" clip-path="url(#p8ffe4b62a0)" style="fill: #ff7f0e; opacity: 0.4"/>
   </g>
   <g id="patch_96">
    <path d="M 393.341057 260.521875 
L 401.480773 260.521875 
L 401.480773 174.774694 
L 393.341057 174.774694 
z
" clip-path="url(#p8ffe4b62a0)" style="fill: #ff7f0e; opacity: 0.4"/>
   </g>
   <g id="patch_97">
    <path d="M 401.480773 260.521875 
L 409.620489 260.521875 
L 409.620489 146.1923 
L 401.480773 146.1923 
z
" clip-path="url(#p8ffe4b62a0)" style="fill: #ff7f0e; opacity: 0.4"/>
   </g>
   <g id="patch_98">
    <path d="M 409.620489 260.521875 
L 417.760205 260.521875 
L 417.760205 117.609907 
L 409.620489 117.609907 
z
" clip-path="url(#p8ffe4b62a0)" style="fill: #ff7f0e; opacity: 0.4"/>
   </g>
   <g id="patch_99">
    <path d="M 417.760205 260.521875 
L 425.899921 260.521875 
L 425.899921 117.609907 
L 417.760205 117.609907 
z
" clip-path="url(#p8ffe4b62a0)" style="fill: #ff7f0e; opacity: 0.4"/>
   </g>
   <g id="patch_100">
    <path d="M 425.899921 260.521875 
L 434.039637 260.521875 
L 434.039637 74.736316 
L 425.899921 74.736316 
z
" clip-path="url(#p8ffe4b62a0)" style="fill: #ff7f0e; opacity: 0.4"/>
   </g>
   <g id="patch_101">
    <path d="M 434.039637 260.521875 
L 442.179353 260.521875 
L 442.179353 131.901104 
L 434.039637 131.901104 
z
" clip-path="url(#p8ffe4b62a0)" style="fill: #ff7f0e; opacity: 0.4"/>
   </g>
   <g id="patch_102">
    <path d="M 442.179353 260.521875 
L 450.319069 260.521875 
L 450.319069 131.901104 
L 442.179353 131.901104 
z
" clip-path="url(#p8ffe4b62a0)" style="fill: #ff7f0e; opacity: 0.4"/>
   </g>
   <g id="patch_103">
    <path d="M 450.319069 260.521875 
L 458.458785 260.521875 
L 458.458785 217.648285 
L 450.319069 217.648285 
z
" clip-path="url(#p8ffe4b62a0)" style="fill: #ff7f0e; opacity: 0.4"/>
   </g>
   <g id="patch_104">
    <path d="M 458.458785 260.521875 
L 466.598501 260.521875 
L 466.598501 217.648285 
L 458.458785 217.648285 
z
" clip-path="url(#p8ffe4b62a0)" style="fill: #ff7f0e; opacity: 0.4"/>
   </g>
   <g id="patch_105">
    <path d="M 466.598501 260.521875 
L 474.738217 260.521875 
L 474.738217 246.230678 
L 466.598501 246.230678 
z
" clip-path="url(#p8ffe4b62a0)" style="fill: #ff7f0e; opacity: 0.4"/>
   </g>
   <g id="patch_106">
    <path d="M 474.738217 260.521875 
L 482.877933 260.521875 
L 482.877933 260.521875 
L 474.738217 260.521875 
z
" clip-path="url(#p8ffe4b62a0)" style="fill: #ff7f0e; opacity: 0.4"/>
   </g>
   <g id="patch_107">
    <path d="M 482.877933 260.521875 
L 491.017649 260.521875 
L 491.017649 260.521875 
L 482.877933 260.521875 
z
" clip-path="url(#p8ffe4b62a0)" style="fill: #ff7f0e; opacity: 0.4"/>
   </g>
   <g id="patch_108">
    <path d="M 491.017649 260.521875 
L 499.157365 260.521875 
L 499.157365 246.230678 
L 491.017649 246.230678 
z
" clip-path="url(#p8ffe4b62a0)" style="fill: #ff7f0e; opacity: 0.4"/>
   </g>
   <g id="patch_109">
    <path d="M 499.157365 260.521875 
L 507.297081 260.521875 
L 507.297081 260.521875 
L 499.157365 260.521875 
z
" clip-path="url(#p8ffe4b62a0)" style="fill: #ff7f0e; opacity: 0.4"/>
   </g>
   <g id="patch_110">
    <path d="M 507.297081 260.521875 
L 515.436797 260.521875 
L 515.436797 260.521875 
L 507.297081 260.521875 
z
" clip-path="url(#p8ffe4b62a0)" style="fill: #ff7f0e; opacity: 0.4"/>
   </g>
   <g id="patch_111">
    <path d="M 515.436797 260.521875 
L 523.576513 260.521875 
L 523.576513 246.230678 
L 515.436797 246.230678 
z
" clip-path="url(#p8ffe4b62a0)" style="fill: #ff7f0e; opacity: 0.4"/>
   </g>
   <g id="patch_112">
    <path d="M 350.935184 260.521875 
L 359.41177 260.521875 
L 359.41177 149.529464 
L 350.935184 149.529464 
z
" clip-path="url(#p8ffe4b62a0)" style="fill: #2ca02c; opacity: 0.4"/>
   </g>
   <g id="patch_113">
    <path d="M 359.41177 260.521875 
L 367.888356 260.521875 
L 367.888356 94.033259 
L 359.41177 94.033259 
z
" clip-path="url(#p8ffe4b62a0)" style="fill: #2ca02c; opacity: 0.4"/>
   </g>
   <g id="patch_114">
    <path d="M 367.888356 260.521875 
L 376.364943 260.521875 
L 376.364943 177.277567 
L 367.888356 177.277567 
z
" clip-path="url(#p8ffe4b62a0)" style="fill: #2ca02c; opacity: 0.4"/>
   </g>
   <g id="patch_115">
    <path d="M 376.364943 260.521875 
L 384.841529 260.521875 
L 384.841529 38.537054 
L 376.364943 38.537054 
z
" clip-path="url(#p8ffe4b62a0)" style="fill: #2ca02c; opacity: 0.4"/>
   </g>
   <g id="patch_116">
    <path d="M 384.841529 260.521875 
L 393.318115 260.521875 
L 393.318115 52.411105 
L 384.841529 52.411105 
z
" clip-path="url(#p8ffe4b62a0)" style="fill: #2ca02c; opacity: 0.4"/>
   </g>
   <g id="patch_117">
    <path d="M 393.318115 260.521875 
L 401.794702 260.521875 
L 401.794702 66.285156 
L 393.318115 66.285156 
z
" clip-path="url(#p8ffe4b62a0)" style="fill: #2ca02c; opacity: 0.4"/>
   </g>
   <g id="patch_118">
    <path d="M 401.794702 260.521875 
L 410.271288 260.521875 
L 410.271288 135.655413 
L 401.794702 135.655413 
z
" clip-path="url(#p8ffe4b62a0)" style="fill: #2ca02c; opacity: 0.4"/>
   </g>
   <g id="patch_119">
    <path d="M 410.271288 260.521875 
L 418.747874 260.521875 
L 418.747874 246.647824 
L 410.271288 246.647824 
z
" clip-path="url(#p8ffe4b62a0)" style="fill: #2ca02c; opacity: 0.4"/>
   </g>
   <g id="patch_120">
    <path d="M 418.747874 260.521875 
L 427.224461 260.521875 
L 427.224461 205.02567 
L 418.747874 205.02567 
z
" clip-path="url(#p8ffe4b62a0)" style="fill: #2ca02c; opacity: 0.4"/>
   </g>
   <g id="patch_121">
    <path d="M 427.224461 260.521875 
L 435.701047 260.521875 
L 435.701047 246.647824 
L 427.224461 246.647824 
z
" clip-path="url(#p8ffe4b62a0)" style="fill: #2ca02c; opacity: 0.4"/>
   </g>
   <g id="patch_122">
    <path d="M 435.701047 260.521875 
L 444.177634 260.521875 
L 444.177634 246.647824 
L 435.701047 246.647824 
z
" clip-path="url(#p8ffe4b62a0)" style="fill: #2ca02c; opacity: 0.4"/>
   </g>
   <g id="patch_123">
    <path d="M 444.177634 260.521875 
L 452.65422 260.521875 
L 452.65422 260.521875 
L 444.177634 260.521875 
z
" clip-path="url(#p8ffe4b62a0)" style="fill: #2ca02c; opacity: 0.4"/>
   </g>
   <g id="patch_124">
    <path d="M 452.65422 260.521875 
L 461.130806 260.521875 
L 461.130806 246.647824 
L 452.65422 246.647824 
z
" clip-path="url(#p8ffe4b62a0)" style="fill: #2ca02c; opacity: 0.4"/>
   </g>
   <g id="patch_125">
    <path d="M 461.130806 260.521875 
L 469.607393 260.521875 
L 469.607393 246.647824 
L 461.130806 246.647824 
z
" clip-path="url(#p8ffe4b62a0)" style="fill: #2ca02c; opacity: 0.4"/>
   </g>
   <g id="patch_126">
    <path d="M 469.607393 260.521875 
L 478.083979 260.521875 
L 478.083979 260.521875 
L 469.607393 260.521875 
z
" clip-path="url(#p8ffe4b62a0)" style="fill: #2ca02c; opacity: 0.4"/>
   </g>
   <g id="patch_127">
    <path d="M 478.083979 260.521875 
L 486.560565 260.521875 
L 486.560565 260.521875 
L 478.083979 260.521875 
z
" clip-path="url(#p8ffe4b62a0)" style="fill: #2ca02c; opacity: 0.4"/>
   </g>
   <g id="patch_128">
    <path d="M 486.560565 260.521875 
L 495.037152 260.521875 
L 495.037152 260.521875 
L 486.560565 260.521875 
z
" clip-path="url(#p8ffe4b62a0)" style="fill: #2ca02c; opacity: 0.4"/>
   </g>
   <g id="patch_129">
    <path d="M 495.037152 260.521875 
L 503.513738 260.521875 
L 503.513738 260.521875 
L 495.037152 260.521875 
z
" clip-path="url(#p8ffe4b62a0)" style="fill: #2ca02c; opacity: 0.4"/>
   </g>
   <g id="patch_130">
    <path d="M 503.513738 260.521875 
L 511.990324 260.521875 
L 511.990324 246.647824 
L 503.513738 246.647824 
z
" clip-path="url(#p8ffe4b62a0)" style="fill: #2ca02c; opacity: 0.4"/>
   </g>
   <g id="patch_131">
    <path d="M 511.990324 260.521875 
L 520.466911 260.521875 
L 520.466911 246.647824 
L 511.990324 246.647824 
z
" clip-path="url(#p8ffe4b62a0)" style="fill: #2ca02c; opacity: 0.4"/>
   </g>
   <g id="matplotlib.axis_3">
    <g id="xtick_6">
     <g id="line2d_14">
      <g>
       <use xlink:href="#ma2c33b9af1" x="366.246061" y="260.521875" style="stroke: #000000; stroke-width: 0.8"/>
      </g>
     </g>
     <g id="text_16">
      <!-- 0.2 -->
      <g transform="translate(358.294499 275.120313) scale(0.1 -0.1)">
       <use xlink:href="#DejaVuSans-30"/>
       <use xlink:href="#DejaVuSans-2e" x="63.623047"/>
       <use xlink:href="#DejaVuSans-32" x="95.410156"/>
      </g>
     </g>
    </g>
    <g id="xtick_7">
     <g id="line2d_15">
      <g>
       <use xlink:href="#ma2c33b9af1" x="433.318201" y="260.521875" style="stroke: #000000; stroke-width: 0.8"/>
      </g>
     </g>
     <g id="text_17">
      <!-- 0.4 -->
      <g transform="translate(425.366638 275.120313) scale(0.1 -0.1)">
       <use xlink:href="#DejaVuSans-30"/>
       <use xlink:href="#DejaVuSans-2e" x="63.623047"/>
       <use xlink:href="#DejaVuSans-34" x="95.410156"/>
      </g>
     </g>
    </g>
    <g id="xtick_8">
     <g id="line2d_16">
      <g>
       <use xlink:href="#ma2c33b9af1" x="500.390341" y="260.521875" style="stroke: #000000; stroke-width: 0.8"/>
      </g>
     </g>
     <g id="text_18">
      <!-- 0.6 -->
      <g transform="translate(492.438778 275.120313) scale(0.1 -0.1)">
       <use xlink:href="#DejaVuSans-30"/>
       <use xlink:href="#DejaVuSans-2e" x="63.623047"/>
       <use xlink:href="#DejaVuSans-36" x="95.410156"/>
      </g>
     </g>
    </g>
   </g>
   <g id="matplotlib.axis_4">
    <g id="ytick_6">
     <g id="line2d_17">
      <g>
       <use xlink:href="#m776497dcaf" x="326.269048" y="260.521875" style="stroke: #000000; stroke-width: 0.8"/>
      </g>
     </g>
     <g id="text_19">
      <!-- 0 -->
      <g transform="translate(312.906548 264.321094) scale(0.1 -0.1)">
       <use xlink:href="#DejaVuSans-30"/>
      </g>
     </g>
    </g>
    <g id="ytick_7">
     <g id="line2d_18">
      <g>
       <use xlink:href="#m776497dcaf" x="326.269048" y="228.609912" style="stroke: #000000; stroke-width: 0.8"/>
      </g>
     </g>
     <g id="text_20">
      <!-- 1 -->
      <g transform="translate(312.906548 232.409131) scale(0.1 -0.1)">
       <defs>
        <path id="DejaVuSans-31" d="M 794 531 
L 1825 531 
L 1825 4091 
L 703 3866 
L 703 4441 
L 1819 4666 
L 2450 4666 
L 2450 531 
L 3481 531 
L 3481 0 
L 794 0 
L 794 531 
z
" transform="scale(0.015625)"/>
       </defs>
       <use xlink:href="#DejaVuSans-31"/>
      </g>
     </g>
    </g>
    <g id="ytick_8">
     <g id="line2d_19">
      <g>
       <use xlink:href="#m776497dcaf" x="326.269048" y="196.69795" style="stroke: #000000; stroke-width: 0.8"/>
      </g>
     </g>
     <g id="text_21">
      <!-- 2 -->
      <g transform="translate(312.906548 200.497168) scale(0.1 -0.1)">
       <use xlink:href="#DejaVuSans-32"/>
      </g>
     </g>
    </g>
    <g id="ytick_9">
     <g id="line2d_20">
      <g>
       <use xlink:href="#m776497dcaf" x="326.269048" y="164.785987" style="stroke: #000000; stroke-width: 0.8"/>
      </g>
     </g>
     <g id="text_22">
      <!-- 3 -->
      <g transform="translate(312.906548 168.585206) scale(0.1 -0.1)">
       <use xlink:href="#DejaVuSans-33"/>
      </g>
     </g>
    </g>
    <g id="ytick_10">
     <g id="line2d_21">
      <g>
       <use xlink:href="#m776497dcaf" x="326.269048" y="132.874024" style="stroke: #000000; stroke-width: 0.8"/>
      </g>
     </g>
     <g id="text_23">
      <!-- 4 -->
      <g transform="translate(312.906548 136.673243) scale(0.1 -0.1)">
       <use xlink:href="#DejaVuSans-34"/>
      </g>
     </g>
    </g>
    <g id="ytick_11">
     <g id="line2d_22">
      <g>
       <use xlink:href="#m776497dcaf" x="326.269048" y="100.962062" style="stroke: #000000; stroke-width: 0.8"/>
      </g>
     </g>
     <g id="text_24">
      <!-- 5 -->
      <g transform="translate(312.906548 104.76128) scale(0.1 -0.1)">
       <use xlink:href="#DejaVuSans-35"/>
      </g>
     </g>
    </g>
    <g id="ytick_12">
     <g id="line2d_23">
      <g>
       <use xlink:href="#m776497dcaf" x="326.269048" y="69.050099" style="stroke: #000000; stroke-width: 0.8"/>
      </g>
     </g>
     <g id="text_25">
      <!-- 6 -->
      <g transform="translate(312.906548 72.849318) scale(0.1 -0.1)">
       <use xlink:href="#DejaVuSans-36"/>
      </g>
     </g>
    </g>
    <g id="ytick_13">
     <g id="line2d_24">
      <g>
       <use xlink:href="#m776497dcaf" x="326.269048" y="37.138136" style="stroke: #000000; stroke-width: 0.8"/>
      </g>
     </g>
     <g id="text_26">
      <!-- 7 -->
      <g transform="translate(312.906548 40.937355) scale(0.1 -0.1)">
       <defs>
        <path id="DejaVuSans-37" d="M 525 4666 
L 3525 4666 
L 3525 4397 
L 1831 0 
L 1172 0 
L 2766 4134 
L 525 4134 
L 525 4666 
z
" transform="scale(0.015625)"/>
       </defs>
       <use xlink:href="#DejaVuSans-37"/>
      </g>
     </g>
    </g>
    <g id="text_27">
     <!-- Fraction of cells -->
     <g transform="translate(305.994985 198.811719) rotate(-90) scale(0.14 -0.14)">
      <use xlink:href="#DejaVuSans-46"/>
      <use xlink:href="#DejaVuSans-72" x="50.269531"/>
      <use xlink:href="#DejaVuSans-61" x="91.382812"/>
      <use xlink:href="#DejaVuSans-63" x="152.662109"/>
      <use xlink:href="#DejaVuSans-74" x="207.642578"/>
      <use xlink:href="#DejaVuSans-69" x="246.851562"/>
      <use xlink:href="#DejaVuSans-6f" x="274.634766"/>
      <use xlink:href="#DejaVuSans-6e" x="335.816406"/>
      <use xlink:href="#DejaVuSans-20" x="399.195312"/>
      <use xlink:href="#DejaVuSans-6f" x="430.982422"/>
      <use xlink:href="#DejaVuSans-66" x="492.164062"/>
      <use xlink:href="#DejaVuSans-20" x="527.369141"/>
      <use xlink:href="#DejaVuSans-63" x="559.15625"/>
      <use xlink:href="#DejaVuSans-65" x="614.136719"/>
      <use xlink:href="#DejaVuSans-6c" x="675.660156"/>
      <use xlink:href="#DejaVuSans-6c" x="703.443359"/>
      <use xlink:href="#DejaVuSans-73" x="731.226562"/>
     </g>
    </g>
   </g>
   <g id="line2d_25">
    <path d="M 326.183963 237.739414 
L 328.029369 232.528154 
L 330.04254 226.157473 
L 332.391239 217.928071 
L 335.243231 207.058962 
L 344.973557 169.175071 
L 347.49002 160.634933 
L 349.838719 153.391367 
L 352.187419 146.82169 
L 354.703882 140.421584 
L 357.723638 133.372996 
L 362.253273 123.438286 
L 367.118435 113.209876 
L 369.467135 108.765046 
L 371.144777 106.037328 
L 372.486891 104.243233 
L 373.66124 103.026715 
L 374.667826 102.287846 
L 375.506647 101.908691 
L 376.345468 101.759865 
L 377.184289 101.852772 
L 378.02311 102.195658 
L 378.861931 102.793346 
L 379.700753 103.647082 
L 380.707338 105.005945 
L 381.881688 107.037873 
L 383.056037 109.522721 
L 384.398151 112.865282 
L 386.075793 117.687751 
L 388.088964 124.199486 
L 391.10872 134.831117 
L 397.315997 156.839193 
L 400.839046 168.388749 
L 404.865387 180.798938 
L 410.066078 196.103607 
L 413.924656 206.854803 
L 416.776648 214.193887 
L 419.293111 220.063926 
L 421.474046 224.614324 
L 423.487217 228.345269 
L 425.500388 231.625514 
L 427.513559 234.472795 
L 429.526729 236.91754 
L 431.5399 238.998567 
L 433.553071 240.759375 
L 435.734006 242.357305 
L 437.914941 243.684795 
L 440.26364 244.861253 
L 442.780104 245.86829 
L 445.296567 246.628985 
L 447.81303 247.145081 
L 450.329494 247.428983 
L 453.517014 247.541756 
L 458.214413 247.697291 
L 460.395348 248.012251 
L 462.408519 248.540873 
L 464.253925 249.249344 
L 466.267096 250.254451 
L 468.783559 251.77625 
L 476.836242 256.876597 
L 479.184942 257.990441 
L 481.533641 258.850824 
L 483.88234 259.473735 
L 486.566568 259.944397 
L 489.754088 260.261326 
L 494.115958 260.44689 
L 502.168641 260.517233 
L 565.247992 260.521875 
L 565.247992 260.521875 
" clip-path="url(#p8ffe4b62a0)" style="fill: none; stroke: #1f77b4; stroke-width: 1.5; stroke-linecap: square"/>
   </g>
   <g id="line2d_26">
    <path d="M 326.183963 260.370041 
L 330.378069 260.091349 
L 333.397825 259.673079 
L 335.746524 259.140418 
L 337.927459 258.417944 
L 339.94063 257.501234 
L 341.786036 256.40596 
L 343.631443 255.029051 
L 345.309085 253.506767 
L 347.154492 251.514201 
L 348.999898 249.17884 
L 351.013069 246.246279 
L 353.194004 242.649305 
L 355.710468 238.042571 
L 359.065752 231.385749 
L 366.447378 216.574074 
L 369.29937 211.408867 
L 371.983598 207.004927 
L 374.500061 203.28926 
L 377.184289 199.712726 
L 380.707338 195.419545 
L 385.740265 189.283107 
L 388.088964 186.055851 
L 390.269899 182.683034 
L 392.28307 179.177034 
L 394.464005 174.913602 
L 396.812704 169.782497 
L 399.329168 163.729269 
L 402.516688 155.453762 
L 410.737135 133.813825 
L 413.085835 128.386756 
L 415.099005 124.272979 
L 416.776648 121.310391 
L 418.286526 119.059342 
L 419.62864 117.421841 
L 420.802989 116.289282 
L 421.977339 115.450812 
L 422.983924 114.973971 
L 423.99051 114.725173 
L 424.997095 114.707019 
L 426.00368 114.920188 
L 427.010266 115.363452 
L 428.016851 116.033749 
L 429.191201 117.09625 
L 430.36555 118.451031 
L 431.707664 120.341099 
L 433.217542 122.877307 
L 434.895185 126.165077 
L 436.740591 130.298214 
L 438.753762 135.354533 
L 441.102461 141.88013 
L 443.786689 150.036142 
L 446.974209 160.499476 
L 451.000551 174.566292 
L 461.234169 210.76209 
L 464.086161 219.865959 
L 466.602624 227.188016 
L 468.783559 232.889193 
L 470.79673 237.561791 
L 472.642137 241.318822 
L 474.487543 244.562075 
L 476.165186 247.068669 
L 477.842828 249.169348 
L 479.52047 250.888479 
L 481.030348 252.136581 
L 482.707991 253.227452 
L 484.385633 254.049962 
L 486.231039 254.70121 
L 488.411974 255.21212 
L 491.096202 255.59128 
L 495.961365 255.99712 
L 507.872625 256.785492 
L 511.898967 256.757139 
L 524.31352 256.453593 
L 527.50104 256.739913 
L 531.191853 257.307741 
L 538.741244 258.787967 
L 543.438642 259.554826 
L 547.800512 260.032578 
L 552.665675 260.326581 
L 559.20848 260.478265 
L 565.247992 260.513523 
L 565.247992 260.513523 
" clip-path="url(#p8ffe4b62a0)" style="fill: none; stroke: #ff7f0e; stroke-width: 1.5; stroke-linecap: square"/>
   </g>
   <g id="line2d_27">
    <path d="M 326.183963 258.169623 
L 327.861605 257.223456 
L 329.371483 256.11805 
L 330.881361 254.725363 
L 332.391239 252.998738 
L 333.901118 250.892086 
L 335.410996 248.362332 
L 336.920874 245.372124 
L 338.430752 241.892644 
L 340.108394 237.431726 
L 341.786036 232.340808 
L 343.631443 226.036118 
L 345.812378 217.714281 
L 348.328841 207.139976 
L 351.684126 191.97131 
L 359.065752 158.287774 
L 362.085508 145.66894 
L 364.9375 134.691431 
L 367.621728 125.212147 
L 370.305956 116.532361 
L 372.822419 109.107756 
L 375.171118 102.823559 
L 377.352053 97.601286 
L 379.19746 93.705289 
L 380.875102 90.638703 
L 382.38498 88.317847 
L 383.727094 86.647022 
L 384.901444 85.520486 
L 385.908029 84.826874 
L 386.914615 84.404298 
L 387.753436 84.273192 
L 388.592257 84.35509 
L 389.431078 84.661167 
L 390.269899 85.202255 
L 391.10872 85.988609 
L 392.115306 87.269149 
L 393.121891 88.9304 
L 394.296241 91.364114 
L 395.47059 94.341479 
L 396.812704 98.412107 
L 398.154818 103.182308 
L 399.664696 109.344763 
L 401.510103 117.912017 
L 403.691038 129.241743 
L 406.710794 146.297672 
L 411.911485 175.780817 
L 414.260184 187.756987 
L 416.273355 196.934125 
L 418.118762 204.368124 
L 419.964168 210.860589 
L 421.64181 215.990186 
L 423.319453 220.456023 
L 424.997095 224.344862 
L 426.842502 228.065611 
L 428.855672 231.589806 
L 430.868843 234.676692 
L 433.049778 237.631443 
L 435.398477 240.435538 
L 437.747177 242.880862 
L 439.928112 244.832573 
L 441.941282 246.356221 
L 443.954453 247.612871 
L 445.967624 248.613578 
L 448.148559 249.438354 
L 450.497258 250.081831 
L 453.517014 250.66575 
L 460.730876 251.968547 
L 463.918397 252.837424 
L 467.441446 254.049973 
L 477.339535 257.643919 
L 480.191527 258.343559 
L 482.875755 258.763478 
L 485.392218 258.931614 
L 487.908682 258.881896 
L 490.592909 258.602832 
L 493.444901 258.082458 
L 496.96795 257.198311 
L 507.872625 254.264786 
L 510.724617 253.841534 
L 513.408845 253.677606 
L 515.925308 253.745242 
L 518.609536 254.047477 
L 521.461528 254.598018 
L 524.984577 255.520439 
L 537.063601 258.89948 
L 540.754415 259.564251 
L 544.612992 260.021396 
L 549.142626 260.316866 
L 555.349903 260.474141 
L 565.247992 260.519234 
L 565.247992 260.519234 
" clip-path="url(#p8ffe4b62a0)" style="fill: none; stroke: #2ca02c; stroke-width: 1.5; stroke-linecap: square"/>
   </g>
   <g id="patch_132">
    <path d="M 326.269048 260.521875 
L 326.269048 27.437812 
" style="fill: none; stroke: #000000; stroke-width: 0.8; stroke-linejoin: miter; stroke-linecap: square"/>
   </g>
   <g id="patch_133">
    <path d="M 565.2 260.521875 
L 565.2 27.437812 
" style="fill: none; stroke: #000000; stroke-width: 0.8; stroke-linejoin: miter; stroke-linecap: square"/>
   </g>
   <g id="patch_134">
    <path d="M 326.269048 260.521875 
L 565.2 260.521875 
" style="fill: none; stroke: #000000; stroke-width: 0.8; stroke-linejoin: miter; stroke-linecap: square"/>
   </g>
   <g id="patch_135">
    <path d="M 326.269048 27.437812 
L 565.2 27.437812 
" style="fill: none; stroke: #000000; stroke-width: 0.8; stroke-linejoin: miter; stroke-linecap: square"/>
   </g>
   <g id="text_28">
    <!-- Linear -->
    <g transform="translate(423.978743 21.437813) scale(0.14 -0.14)">
     <defs>
      <path id="DejaVuSans-4c" d="M 628 4666 
L 1259 4666 
L 1259 531 
L 3531 531 
L 3531 0 
L 628 0 
L 628 4666 
z
" transform="scale(0.015625)"/>
     </defs>
     <use xlink:href="#DejaVuSans-4c"/>
     <use xlink:href="#DejaVuSans-69" x="55.712891"/>
     <use xlink:href="#DejaVuSans-6e" x="83.496094"/>
     <use xlink:href="#DejaVuSans-65" x="146.875"/>
     <use xlink:href="#DejaVuSans-61" x="208.398438"/>
     <use xlink:href="#DejaVuSans-72" x="269.677734"/>
    </g>
   </g>
   <g id="legend_2">
    <g id="patch_136">
     <path d="M 476.810625 89.879062 
L 556.8 89.879062 
Q 559.2 89.879062 559.2 87.479062 
L 559.2 35.837812 
Q 559.2 33.437812 556.8 33.437812 
L 476.810625 33.437812 
Q 474.410625 33.437812 474.410625 35.837812 
L 474.410625 87.479062 
Q 474.410625 89.879062 476.810625 89.879062 
z
" style="fill: #ffffff; opacity: 0.8; stroke: #cccccc; stroke-linejoin: miter"/>
    </g>
    <g id="patch_137">
     <path d="M 479.210625 47.355937 
L 503.210625 47.355937 
L 503.210625 38.955937 
L 479.210625 38.955937 
z
" style="fill: #1f77b4; opacity: 0.4"/>
    </g>
    <g id="text_29">
     <!-- control -->
     <g transform="translate(512.810625 47.355937) scale(0.12 -0.12)">
      <use xlink:href="#DejaVuSans-63"/>
      <use xlink:href="#DejaVuSans-6f" x="54.980469"/>
      <use xlink:href="#DejaVuSans-6e" x="116.162109"/>
      <use xlink:href="#DejaVuSans-74" x="179.541016"/>
      <use xlink:href="#DejaVuSans-72" x="218.75"/>
      <use xlink:href="#DejaVuSans-6f" x="257.613281"/>
      <use xlink:href="#DejaVuSans-6c" x="318.794922"/>
     </g>
    </g>
    <g id="patch_138">
     <path d="M 479.210625 64.969687 
L 503.210625 64.969687 
L 503.210625 56.569687 
L 479.210625 56.569687 
z
" style="fill: #ff7f0e; opacity: 0.4"/>
    </g>
    <g id="text_30">
     <!-- cytd -->
     <g transform="translate(512.810625 64.969687) scale(0.12 -0.12)">
      <use xlink:href="#DejaVuSans-63"/>
      <use xlink:href="#DejaVuSans-79" x="54.980469"/>
      <use xlink:href="#DejaVuSans-74" x="114.160156"/>
      <use xlink:href="#DejaVuSans-64" x="153.369141"/>
     </g>
    </g>
    <g id="patch_139">
     <path d="M 479.210625 82.583437 
L 503.210625 82.583437 
L 503.210625 74.183437 
L 479.210625 74.183437 
z
" style="fill: #2ca02c; opacity: 0.4"/>
    </g>
    <g id="text_31">
     <!-- jasp -->
     <g transform="translate(512.810625 82.583437) scale(0.12 -0.12)">
      <use xlink:href="#DejaVuSans-6a"/>
      <use xlink:href="#DejaVuSans-61" x="27.783203"/>
      <use xlink:href="#DejaVuSans-73" x="89.0625"/>
      <use xlink:href="#DejaVuSans-70" x="141.162109"/>
     </g>
    </g>
   </g>
  </g>
 </g>
 <defs>
  <clipPath id="p850c7a2971">
   <rect x="41.711875" y="27.437813" width="238.930952" height="233.084062"/>
  </clipPath>
  <clipPath id="p8ffe4b62a0">
   <rect x="326.269048" y="27.437813" width="238.930952" height="233.084062"/>
  </clipPath>
 </defs>
</svg>
