<?xml version="1.0" encoding="utf-8" standalone="no"?>
<!DOCTYPE svg PUBLIC "-//W3C//DTD SVG 1.1//EN"
  "http://www.w3.org/Graphics/SVG/1.1/DTD/svg11.dtd">
<svg xmlns:xlink="http://www.w3.org/1999/xlink" width="540pt" height="288pt" viewBox="0 0 540 288" xmlns="http://www.w3.org/2000/svg" version="1.1">
 <metadata>
  <rdf:RDF xmlns:dc="http://purl.org/dc/elements/1.1/" xmlns:cc="http://creativecommons.org/ns#" xmlns:rdf="http://www.w3.org/1999/02/22-rdf-syntax-ns#">
   <cc:Work>
    <dc:type rdf:resource="http://purl.org/dc/dcmitype/StillImage"/>
    <dc:date>2024-04-25T17:12:29.342330</dc:date>
    <dc:format>image/svg+xml</dc:format>
    <dc:creator>
     <cc:Agent>
      <dc:title>Matplotlib v3.8.4, https://matplotlib.org/</dc:title>
     </cc:Agent>
    </dc:creator>
   </cc:Work>
  </rdf:RDF>
 </metadata>
 <defs>
  <style type="text/css">*{stroke-linejoin: round; stroke-linecap: butt}</style>
 </defs>
 <g id="figure_1">
  <g id="patch_1">
   <path d="M 0 288 
L 540 288 
L 540 0 
L 0 0 
z
" style="fill: #ffffff"/>
  </g>
  <g id="axes_1">
   <g id="line2d_1">
    <path d="M 185.718939 85.57196 
L 184.616269 84.724251 
L 183.919372 83.966335 
L 183.52783 83.075538 
L 182.423047 79.707758 
L 181.926084 77.970122 
L 181.2647 76.42469 
L 180.783866 74.5268 
L 179.152668 71.253849 
L 178.598483 70.186011 
L 177.882016 68.975292 
L 173.260022 63.354506 
L 172.433055 62.262633 
L 171.747628 61.442362 
L 168.3128 58.180735 
L 166.29627 56.430977 
L 163.23715 53.965613 
L 161.148486 52.588658 
L 157.419186 50.101136 
L 156.1164 49.250039 
L 154.681493 48.365941 
L 151.330903 46.654574 
L 149.820835 45.966145 
L 145.098683 43.813734 
L 142.008825 42.700424 
L 133.782755 40.847035 
L 132.689086 40.752193 
L 127.703387 39.70168 
L 124.776847 39.397605 
L 118.464919 39.155249 
L 115.243749 39.273309 
L 113.54883 39.688559 
L 112.444816 39.964904 
L 107.414795 40.921773 
L 101.680284 42.675695 
L 93.466492 46.377388 
L 91.326163 47.695485 
L 87.127087 50.916916 
L 83.686079 54.173308 
L 80.240005 58.033764 
L 76.850866 62.77496 
L 74.333225 67.520963 
L 73.589768 69.386388 
L 73.064511 70.755444 
L 71.785281 75.604637 
L 71.49108 77.595133 
L 71.345399 79.326721 
L 71.207004 80.379853 
L 71.173378 84.322979 
L 71.536201 87.341457 
L 71.633975 88.15857 
L 72.289954 91.218183 
L 72.505094 91.928373 
L 72.99292 93.259273 
L 73.845501 95.772532 
L 74.291991 96.66454 
L 74.658477 97.715753 
L 75.111702 98.80012 
L 75.788722 100.082184 
L 76.265094 101.283341 
L 76.579525 101.88895 
L 77.194564 102.861754 
L 78.605668 105.233037 
L 83.57509 111.336804 
L 84.933124 112.686919 
L 85.802744 113.513102 
L 87.377096 115.139965 
L 89.369338 117.040888 
L 92.063408 119.125453 
L 93.316703 119.992677 
L 94.451179 120.804077 
L 95.34493 121.457814 
L 96.9468 122.557888 
L 102.166244 125.543924 
L 105.050941 126.712646 
L 110.289295 128.351131 
L 118.058605 129.854516 
L 119.262934 130.104993 
L 120.38697 130.282173 
L 126.435203 130.749151 
L 130.953005 130.664733 
L 132.408155 130.68262 
L 136.154752 130.277887 
L 137.659884 130.01796 
L 139.275828 129.598802 
L 145.158116 127.981904 
L 147.950271 127.077491 
L 154.077401 124.766708 
L 155.095975 124.218015 
L 158.160285 122.611717 
L 166.479564 117.474793 
L 171.196395 113.30794 
L 172.303135 112.15178 
L 173.480786 110.998086 
L 175.758622 108.360594 
L 176.52418 107.479108 
L 177.487586 106.219145 
L 178.498247 104.644278 
L 179.690319 102.664868 
L 182.411655 96.64658 
L 182.726035 95.638669 
L 183.54948 93.71752 
L 183.97213 92.304546 
L 185.661377 88.520282 
L 186.572068 86.957877 
L 186.939066 86.121169 
L 186.939066 86.121169 
" clip-path="url(#pbf57175d69)" style="fill: none; stroke: #1f77b4; stroke-width: 1.5; stroke-linecap: square"/>
   </g>
   <g id="text_1">
    <!-- SRV-control -->
    <g transform="translate(71.778493 28.56) scale(0.2 -0.2)">
     <defs>
      <path id="DejaVuSans-53" d="M 3425 4513 
L 3425 3897 
Q 3066 4069 2747 4153 
Q 2428 4238 2131 4238 
Q 1616 4238 1336 4038 
Q 1056 3838 1056 3469 
Q 1056 3159 1242 3001 
Q 1428 2844 1947 2747 
L 2328 2669 
Q 3034 2534 3370 2195 
Q 3706 1856 3706 1288 
Q 3706 609 3251 259 
Q 2797 -91 1919 -91 
Q 1588 -91 1214 -16 
Q 841 59 441 206 
L 441 856 
Q 825 641 1194 531 
Q 1563 422 1919 422 
Q 2459 422 2753 634 
Q 3047 847 3047 1241 
Q 3047 1584 2836 1778 
Q 2625 1972 2144 2069 
L 1759 2144 
Q 1053 2284 737 2584 
Q 422 2884 422 3419 
Q 422 4038 858 4394 
Q 1294 4750 2059 4750 
Q 2388 4750 2728 4690 
Q 3069 4631 3425 4513 
z
" transform="scale(0.015625)"/>
      <path id="DejaVuSans-52" d="M 2841 2188 
Q 3044 2119 3236 1894 
Q 3428 1669 3622 1275 
L 4263 0 
L 3584 0 
L 2988 1197 
Q 2756 1666 2539 1819 
Q 2322 1972 1947 1972 
L 1259 1972 
L 1259 0 
L 628 0 
L 628 4666 
L 2053 4666 
Q 2853 4666 3247 4331 
Q 3641 3997 3641 3322 
Q 3641 2881 3436 2590 
Q 3231 2300 2841 2188 
z
M 1259 4147 
L 1259 2491 
L 2053 2491 
Q 2509 2491 2742 2702 
Q 2975 2913 2975 3322 
Q 2975 3731 2742 3939 
Q 2509 4147 2053 4147 
L 1259 4147 
z
" transform="scale(0.015625)"/>
      <path id="DejaVuSans-56" d="M 1831 0 
L 50 4666 
L 709 4666 
L 2188 738 
L 3669 4666 
L 4325 4666 
L 2547 0 
L 1831 0 
z
" transform="scale(0.015625)"/>
      <path id="DejaVuSans-2d" d="M 313 2009 
L 1997 2009 
L 1997 1497 
L 313 1497 
L 313 2009 
z
" transform="scale(0.015625)"/>
      <path id="DejaVuSans-63" d="M 3122 3366 
L 3122 2828 
Q 2878 2963 2633 3030 
Q 2388 3097 2138 3097 
Q 1578 3097 1268 2742 
Q 959 2388 959 1747 
Q 959 1106 1268 751 
Q 1578 397 2138 397 
Q 2388 397 2633 464 
Q 2878 531 3122 666 
L 3122 134 
Q 2881 22 2623 -34 
Q 2366 -91 2075 -91 
Q 1284 -91 818 406 
Q 353 903 353 1747 
Q 353 2603 823 3093 
Q 1294 3584 2113 3584 
Q 2378 3584 2631 3529 
Q 2884 3475 3122 3366 
z
" transform="scale(0.015625)"/>
      <path id="DejaVuSans-6f" d="M 1959 3097 
Q 1497 3097 1228 2736 
Q 959 2375 959 1747 
Q 959 1119 1226 758 
Q 1494 397 1959 397 
Q 2419 397 2687 759 
Q 2956 1122 2956 1747 
Q 2956 2369 2687 2733 
Q 2419 3097 1959 3097 
z
M 1959 3584 
Q 2709 3584 3137 3096 
Q 3566 2609 3566 1747 
Q 3566 888 3137 398 
Q 2709 -91 1959 -91 
Q 1206 -91 779 398 
Q 353 888 353 1747 
Q 353 2609 779 3096 
Q 1206 3584 1959 3584 
z
" transform="scale(0.015625)"/>
      <path id="DejaVuSans-6e" d="M 3513 2113 
L 3513 0 
L 2938 0 
L 2938 2094 
Q 2938 2591 2744 2837 
Q 2550 3084 2163 3084 
Q 1697 3084 1428 2787 
Q 1159 2491 1159 1978 
L 1159 0 
L 581 0 
L 581 3500 
L 1159 3500 
L 1159 2956 
Q 1366 3272 1645 3428 
Q 1925 3584 2291 3584 
Q 2894 3584 3203 3211 
Q 3513 2838 3513 2113 
z
" transform="scale(0.015625)"/>
      <path id="DejaVuSans-74" d="M 1172 4494 
L 1172 3500 
L 2356 3500 
L 2356 3053 
L 1172 3053 
L 1172 1153 
Q 1172 725 1289 603 
Q 1406 481 1766 481 
L 2356 481 
L 2356 0 
L 1766 0 
Q 1100 0 847 248 
Q 594 497 594 1153 
L 594 3053 
L 172 3053 
L 172 3500 
L 594 3500 
L 594 4494 
L 1172 4494 
z
" transform="scale(0.015625)"/>
      <path id="DejaVuSans-72" d="M 2631 2963 
Q 2534 3019 2420 3045 
Q 2306 3072 2169 3072 
Q 1681 3072 1420 2755 
Q 1159 2438 1159 1844 
L 1159 0 
L 581 0 
L 581 3500 
L 1159 3500 
L 1159 2956 
Q 1341 3275 1631 3429 
Q 1922 3584 2338 3584 
Q 2397 3584 2469 3576 
Q 2541 3569 2628 3553 
L 2631 2963 
z
" transform="scale(0.015625)"/>
      <path id="DejaVuSans-6c" d="M 603 4863 
L 1178 4863 
L 1178 0 
L 603 0 
L 603 4863 
z
" transform="scale(0.015625)"/>
     </defs>
     <use xlink:href="#DejaVuSans-53"/>
     <use xlink:href="#DejaVuSans-52" x="63.476562"/>
     <use xlink:href="#DejaVuSans-56" x="127.458984"/>
     <use xlink:href="#DejaVuSans-2d" x="189.992188"/>
     <use xlink:href="#DejaVuSans-63" x="226.076172"/>
     <use xlink:href="#DejaVuSans-6f" x="281.056641"/>
     <use xlink:href="#DejaVuSans-6e" x="342.238281"/>
     <use xlink:href="#DejaVuSans-74" x="405.617188"/>
     <use xlink:href="#DejaVuSans-72" x="444.826172"/>
     <use xlink:href="#DejaVuSans-6f" x="483.689453"/>
     <use xlink:href="#DejaVuSans-6c" x="544.871094"/>
    </g>
   </g>
  </g>
  <g id="axes_2">
   <g id="line2d_2">
    <path d="M 332.699198 87.615381 
L 329.932258 86.072078 
L 329.166911 85.50301 
L 327.37517 83.915422 
L 324.886744 80.586546 
L 324.103 79.752771 
L 323.571465 79.249333 
L 319.789307 76.676091 
L 318.817905 76.262025 
L 316.827197 75.550504 
L 314.736337 74.62125 
L 313.300936 74.328152 
L 312.97635 74.234435 
L 312.294609 74.116698 
L 309.023093 72.802921 
L 307.82644 72.026132 
L 306.374402 71.159986 
L 305.421689 70.501159 
L 304.550393 70.098163 
L 303.560173 69.399615 
L 302.891223 69.028002 
L 302.038347 68.377451 
L 298.887752 67.417774 
L 297.632773 66.78295 
L 295.071406 65.730367 
L 294.135604 65.299245 
L 293.470658 64.872815 
L 292.57525 64.560994 
L 290.764382 63.967627 
L 288.047366 62.828902 
L 287.159696 62.655415 
L 285.877987 62.531188 
L 285.369021 62.313101 
L 284.335956 61.713053 
L 281.726878 61.516507 
L 281.214698 61.577795 
L 280.300801 61.36089 
L 277.425122 60.759583 
L 276.802089 60.548221 
L 275.371089 60.469775 
L 274.265494 60.297922 
L 273.500988 60.435576 
L 271.863646 60.29841 
L 271.50622 60.265733 
L 270.108639 60.3921 
L 265.34256 60.170686 
L 264.824396 60.323373 
L 264.148957 60.547885 
L 261.806955 60.886691 
L 261.009736 60.988095 
L 260.461553 60.975909 
L 259.896134 61.009233 
L 259.408275 61.391047 
L 258.48898 62.024592 
L 257.788186 62.335997 
L 257.16813 62.561009 
L 255.602855 62.996617 
L 254.046435 63.362421 
L 253.265399 63.654278 
L 251.59645 64.119643 
L 250.989685 64.248945 
L 249.476313 64.953019 
L 247.74122 65.567874 
L 247.300736 65.732082 
L 245.674958 66.125984 
L 244.842636 66.430135 
L 244.093688 66.573674 
L 243.673714 66.816821 
L 243.257104 67.037184 
L 242.481335 67.179801 
L 241.309505 67.252458 
L 239.712137 67.427327 
L 237.364349 68.068423 
L 235.508834 68.876424 
L 231.847781 70.040688 
L 231.182011 70.445744 
L 230.565618 70.906979 
L 229.18206 71.904203 
L 228.741842 72.183697 
L 227.793481 72.598843 
L 226.862674 73.413358 
L 225.676626 74.580284 
L 224.320002 75.80066 
L 223.249319 76.771371 
L 222.490245 77.60373 
L 221.918041 78.428258 
L 221.56096 79.213169 
L 220.806237 82.245157 
L 221.013763 83.619698 
L 221.324123 84.592979 
L 222.261973 86.55791 
L 222.949625 87.371824 
L 224.877578 89.539527 
L 228.870307 93.569009 
L 229.674968 94.097992 
L 231.24146 94.940808 
L 232.042771 95.355203 
L 232.53937 95.583795 
L 233.165069 95.927533 
L 234.401681 96.535096 
L 237.025315 98.00668 
L 239.947241 99.376182 
L 240.640299 99.739922 
L 241.500426 100.00006 
L 243.179581 100.564133 
L 244.124596 101.329825 
L 244.454606 101.509285 
L 247.388719 102.261793 
L 248.122453 102.460126 
L 250.211378 103.420622 
L 250.799037 103.717215 
L 253.293641 104.830889 
L 254.438899 104.983703 
L 255.20246 105.221315 
L 255.928111 105.757377 
L 257.084091 106.329167 
L 258.089442 106.584158 
L 259.066317 106.894536 
L 260.219203 107.175711 
L 262.224951 107.424927 
L 263.099816 107.342739 
L 265.110979 107.403001 
L 269.104083 108.665125 
L 270.929258 108.963628 
L 272.1736 109.502924 
L 273.295465 109.537296 
L 274.041955 109.6491 
L 275.007216 109.743294 
L 275.560966 109.781584 
L 276.995615 109.530249 
L 279.48986 109.573748 
L 280.359263 109.684515 
L 281.039484 109.613091 
L 283.183375 109.466027 
L 284.662778 109.084231 
L 287.216471 108.953941 
L 288.00764 108.908499 
L 288.785617 108.849326 
L 289.996152 108.327144 
L 290.210957 108.213695 
L 290.689884 107.828913 
L 291.037771 107.43469 
L 292.095989 106.85832 
L 293.366599 106.302648 
L 294.692866 105.922186 
L 296.288531 105.337499 
L 296.952468 104.959995 
L 297.720692 104.517707 
L 299.285911 103.368396 
L 300.38024 103.11638 
L 302.066594 102.356503 
L 303.307106 101.832669 
L 304.352253 101.070138 
L 306.793861 99.668108 
L 308.359612 98.683728 
L 309.603028 97.96254 
L 310.264786 97.668627 
L 312.569491 96.791778 
L 315.363576 95.30493 
L 317.556496 93.370154 
L 318.849652 92.3021 
L 319.336479 91.967904 
L 320.414579 91.386676 
L 321.20313 90.912238 
L 322.254987 89.750132 
L 323.273192 88.665984 
L 324.6344 87.29953 
L 325.310404 86.31233 
L 328.821407 82.711897 
L 329.583408 82.27937 
L 331.567159 80.952611 
L 331.896568 80.227103 
L 331.896568 80.227103 
" clip-path="url(#p6fb7988b81)" style="fill: none; stroke: #ff7f0e; stroke-width: 1.5; stroke-linecap: square"/>
   </g>
   <g id="text_2">
    <!-- SRV-cytd -->
    <g transform="translate(232.45625 28.56) scale(0.2 -0.2)">
     <defs>
      <path id="DejaVuSans-79" d="M 2059 -325 
Q 1816 -950 1584 -1140 
Q 1353 -1331 966 -1331 
L 506 -1331 
L 506 -850 
L 844 -850 
Q 1081 -850 1212 -737 
Q 1344 -625 1503 -206 
L 1606 56 
L 191 3500 
L 800 3500 
L 1894 763 
L 2988 3500 
L 3597 3500 
L 2059 -325 
z
" transform="scale(0.015625)"/>
      <path id="DejaVuSans-64" d="M 2906 2969 
L 2906 4863 
L 3481 4863 
L 3481 0 
L 2906 0 
L 2906 525 
Q 2725 213 2448 61 
Q 2172 -91 1784 -91 
Q 1150 -91 751 415 
Q 353 922 353 1747 
Q 353 2572 751 3078 
Q 1150 3584 1784 3584 
Q 2172 3584 2448 3432 
Q 2725 3281 2906 2969 
z
M 947 1747 
Q 947 1113 1208 752 
Q 1469 391 1925 391 
Q 2381 391 2643 752 
Q 2906 1113 2906 1747 
Q 2906 2381 2643 2742 
Q 2381 3103 1925 3103 
Q 1469 3103 1208 2742 
Q 947 2381 947 1747 
z
" transform="scale(0.015625)"/>
     </defs>
     <use xlink:href="#DejaVuSans-53"/>
     <use xlink:href="#DejaVuSans-52" x="63.476562"/>
     <use xlink:href="#DejaVuSans-56" x="127.458984"/>
     <use xlink:href="#DejaVuSans-2d" x="189.992188"/>
     <use xlink:href="#DejaVuSans-63" x="226.076172"/>
     <use xlink:href="#DejaVuSans-79" x="281.056641"/>
     <use xlink:href="#DejaVuSans-74" x="340.236328"/>
     <use xlink:href="#DejaVuSans-64" x="379.445312"/>
    </g>
   </g>
  </g>
  <g id="axes_3">
   <g id="line2d_3">
    <path d="M 480.156802 87.25403 
L 478.916549 86.745655 
L 478.188755 86.263319 
L 477.208124 85.265998 
L 476.10311 83.647965 
L 474.268385 81.126885 
L 473.566794 80.262836 
L 472.92691 79.331584 
L 470.743726 77.28018 
L 468.867086 75.807267 
L 468.161059 75.261643 
L 467.167262 74.590915 
L 465.55211 73.330853 
L 464.88351 72.807733 
L 463.984476 72.089861 
L 462.963354 71.355296 
L 461.779958 70.433925 
L 458.418247 68.568132 
L 457.076512 67.856168 
L 456.30799 67.482362 
L 455.259058 67.043187 
L 453.476109 66.156779 
L 452.19911 65.351631 
L 451.475003 64.799922 
L 448.692692 63.065683 
L 448.248459 62.752258 
L 447.235373 62.139985 
L 445.219438 60.419328 
L 444.561605 60.183958 
L 442.739724 59.283134 
L 441.449581 58.794548 
L 440.714137 58.396829 
L 439.36782 57.788725 
L 436.324983 56.185325 
L 434.695227 55.645111 
L 433.826206 55.391794 
L 432.610948 54.885971 
L 430.356513 54.026512 
L 428.575957 53.124483 
L 427.868184 52.767469 
L 427.118197 52.610978 
L 423.955578 52.388186 
L 421.094093 52.116368 
L 419.433559 51.928693 
L 415.882313 51.926487 
L 414.45906 52.011944 
L 413.290856 52.078327 
L 411.74664 52.13384 
L 410.487972 52.413521 
L 409.187962 52.649429 
L 408.431119 52.751985 
L 406.622371 52.961508 
L 405.412734 53.112021 
L 404.803404 53.195717 
L 403.748598 53.297834 
L 402.622267 53.646189 
L 401.273028 54.113637 
L 400.822137 54.332273 
L 399.657592 54.985932 
L 396.567266 56.154915 
L 395.274702 56.622131 
L 394.133959 56.921808 
L 390.817556 58.464357 
L 390.280386 58.698315 
L 388.885084 59.178451 
L 386.073897 60.513878 
L 385.367595 60.843459 
L 384.604442 61.443509 
L 382.484311 63.271842 
L 381.83231 63.867293 
L 378.868373 66.15501 
L 377.750406 66.920504 
L 376.087316 68.396094 
L 375.362326 69.462725 
L 374.898258 70.121519 
L 374.571856 70.559536 
L 373.352885 72.196772 
L 372.348216 73.544148 
L 371.301043 75.347177 
L 370.998235 76.025337 
L 370.39542 77.006309 
L 369.432533 79.245485 
L 369.243021 80.317441 
L 368.978172 81.010513 
L 368.744182 81.889724 
L 368.551457 83.536732 
L 368.712891 84.735106 
L 368.870266 85.298835 
L 368.86557 85.656812 
L 368.842254 86.11345 
L 369.311028 87.240525 
L 369.696412 88.385786 
L 370.085875 90.134065 
L 370.223266 90.920073 
L 371.333572 92.718986 
L 373.223052 95.114291 
L 374.132131 96.547799 
L 374.820329 97.387535 
L 375.306381 98.192699 
L 376.296154 99.233723 
L 376.895273 100.018097 
L 377.450459 100.659029 
L 378.797803 102.407707 
L 379.60038 103.053294 
L 380.926607 104.179816 
L 382.532128 105.146611 
L 384.879526 107.135453 
L 385.32026 107.587493 
L 385.953185 107.967463 
L 386.698167 108.494453 
L 387.927653 109.294761 
L 389.816439 110.191912 
L 390.680986 110.550862 
L 392.970771 112.114134 
L 393.953819 112.546606 
L 400.188474 114.783556 
L 400.853451 115.070453 
L 401.511841 115.405766 
L 402.53654 115.6437 
L 403.172326 115.814478 
L 403.885443 116.224235 
L 404.892026 116.485164 
L 406.062833 116.655387 
L 407.808405 117.241623 
L 408.339446 117.287258 
L 411.396948 117.402401 
L 412.332552 117.542489 
L 413.536433 117.760627 
L 419.817547 117.740356 
L 420.83557 117.582466 
L 424.4334 117.466892 
L 426.489151 118.034691 
L 427.932058 117.981512 
L 428.392462 117.940914 
L 430.061014 117.878263 
L 431.102096 117.76391 
L 432.639496 117.372474 
L 434.938653 116.790057 
L 435.794444 116.570005 
L 438.359988 116.167352 
L 440.348493 115.234951 
L 441.588033 114.853278 
L 443.952865 114.416195 
L 445.9664 113.601981 
L 446.556912 113.297708 
L 449.591571 112.109729 
L 450.88827 111.148607 
L 452.110077 110.442903 
L 453.071256 109.619014 
L 454.204796 108.551206 
L 456.530135 106.778225 
L 461.070645 103.599053 
L 463.15261 102.087161 
L 464.48257 101.332424 
L 465.835014 100.288361 
L 466.879225 99.296007 
L 468.022223 98.377864 
L 469.63466 96.53216 
L 470.93982 95.034371 
L 472.76614 92.941468 
L 473.734077 91.410523 
L 474.647975 89.800889 
L 477.002439 86.228099 
L 477.534999 85.765083 
L 480.065475 83.630454 
L 480.40508 83.035123 
L 480.40508 83.035123 
" clip-path="url(#p53b3c6cb73)" style="fill: none; stroke: #2ca02c; stroke-width: 1.5; stroke-linecap: square"/>
   </g>
   <g id="text_3">
    <!-- SRV-jasp -->
    <g transform="translate(381.384007 28.56) scale(0.2 -0.2)">
     <defs>
      <path id="DejaVuSans-6a" d="M 603 3500 
L 1178 3500 
L 1178 -63 
Q 1178 -731 923 -1031 
Q 669 -1331 103 -1331 
L -116 -1331 
L -116 -844 
L 38 -844 
Q 366 -844 484 -692 
Q 603 -541 603 -63 
L 603 3500 
z
M 603 4863 
L 1178 4863 
L 1178 4134 
L 603 4134 
L 603 4863 
z
" transform="scale(0.015625)"/>
      <path id="DejaVuSans-61" d="M 2194 1759 
Q 1497 1759 1228 1600 
Q 959 1441 959 1056 
Q 959 750 1161 570 
Q 1363 391 1709 391 
Q 2188 391 2477 730 
Q 2766 1069 2766 1631 
L 2766 1759 
L 2194 1759 
z
M 3341 1997 
L 3341 0 
L 2766 0 
L 2766 531 
Q 2569 213 2275 61 
Q 1981 -91 1556 -91 
Q 1019 -91 701 211 
Q 384 513 384 1019 
Q 384 1609 779 1909 
Q 1175 2209 1959 2209 
L 2766 2209 
L 2766 2266 
Q 2766 2663 2505 2880 
Q 2244 3097 1772 3097 
Q 1472 3097 1187 3025 
Q 903 2953 641 2809 
L 641 3341 
Q 956 3463 1253 3523 
Q 1550 3584 1831 3584 
Q 2591 3584 2966 3190 
Q 3341 2797 3341 1997 
z
" transform="scale(0.015625)"/>
      <path id="DejaVuSans-73" d="M 2834 3397 
L 2834 2853 
Q 2591 2978 2328 3040 
Q 2066 3103 1784 3103 
Q 1356 3103 1142 2972 
Q 928 2841 928 2578 
Q 928 2378 1081 2264 
Q 1234 2150 1697 2047 
L 1894 2003 
Q 2506 1872 2764 1633 
Q 3022 1394 3022 966 
Q 3022 478 2636 193 
Q 2250 -91 1575 -91 
Q 1294 -91 989 -36 
Q 684 19 347 128 
L 347 722 
Q 666 556 975 473 
Q 1284 391 1588 391 
Q 1994 391 2212 530 
Q 2431 669 2431 922 
Q 2431 1156 2273 1281 
Q 2116 1406 1581 1522 
L 1381 1569 
Q 847 1681 609 1914 
Q 372 2147 372 2553 
Q 372 3047 722 3315 
Q 1072 3584 1716 3584 
Q 2034 3584 2315 3537 
Q 2597 3491 2834 3397 
z
" transform="scale(0.015625)"/>
      <path id="DejaVuSans-70" d="M 1159 525 
L 1159 -1331 
L 581 -1331 
L 581 3500 
L 1159 3500 
L 1159 2969 
Q 1341 3281 1617 3432 
Q 1894 3584 2278 3584 
Q 2916 3584 3314 3078 
Q 3713 2572 3713 1747 
Q 3713 922 3314 415 
Q 2916 -91 2278 -91 
Q 1894 -91 1617 61 
Q 1341 213 1159 525 
z
M 3116 1747 
Q 3116 2381 2855 2742 
Q 2594 3103 2138 3103 
Q 1681 3103 1420 2742 
Q 1159 2381 1159 1747 
Q 1159 1113 1420 752 
Q 1681 391 2138 391 
Q 2594 391 2855 752 
Q 3116 1113 3116 1747 
z
" transform="scale(0.015625)"/>
     </defs>
     <use xlink:href="#DejaVuSans-53"/>
     <use xlink:href="#DejaVuSans-52" x="63.476562"/>
     <use xlink:href="#DejaVuSans-56" x="127.458984"/>
     <use xlink:href="#DejaVuSans-2d" x="189.992188"/>
     <use xlink:href="#DejaVuSans-6a" x="226.076172"/>
     <use xlink:href="#DejaVuSans-61" x="253.859375"/>
     <use xlink:href="#DejaVuSans-73" x="315.138672"/>
     <use xlink:href="#DejaVuSans-70" x="367.238281"/>
    </g>
   </g>
  </g>
  <g id="axes_4">
   <g id="line2d_4">
    <path d="M 179.907552 205.507789 
L 178.833228 204.662038 
L 177.29925 202.657834 
L 176.930027 201.27423 
L 176.556697 199.838398 
L 175.876035 198.626483 
L 174.803512 197.07268 
L 174.15505 195.739684 
L 173.400806 194.095709 
L 171.967323 191.583949 
L 170.942916 189.485911 
L 169.390978 186.98456 
L 166.280956 182.711091 
L 160.882323 176.849566 
L 159.457399 175.528142 
L 152.714423 169.936051 
L 149.598992 167.859296 
L 148.533532 167.216811 
L 145.377482 165.534644 
L 140.049182 163.51865 
L 138.130123 162.848855 
L 133.463571 161.579436 
L 128.898247 160.79301 
L 123.441852 160.21345 
L 118.023739 160.221038 
L 113.408065 160.640467 
L 111.578909 161.142541 
L 104.123062 164.18127 
L 102.148933 165.248042 
L 100.700579 165.922157 
L 98.718854 167.221152 
L 95.911624 169.364362 
L 92.989478 171.78765 
L 90.338543 174.159918 
L 87.626495 177.555656 
L 84.287654 182.512426 
L 82.414509 185.967494 
L 81.050542 188.57324 
L 79.263865 194.089023 
L 78.467449 197.304413 
L 78.345081 198.144426 
L 78.233756 203.363397 
L 78.13534 206.365642 
L 78.366501 209.209132 
L 78.459856 210.837208 
L 78.603139 212.161427 
L 78.962731 214.77302 
L 81.298322 222.216404 
L 84.066018 227.564065 
L 84.967363 228.84526 
L 90.497875 236.32384 
L 92.705823 238.764834 
L 93.734241 239.740941 
L 96.267945 242.053518 
L 101.46296 246.043283 
L 103.472094 247.007923 
L 111.430535 250.045154 
L 113.138108 250.511673 
L 114.187144 250.802888 
L 119.513378 251.724371 
L 121.945035 251.724455 
L 124.731833 251.529471 
L 126.782063 251.459198 
L 127.854812 251.365283 
L 131.630282 250.896263 
L 134.14599 250.611237 
L 138.624731 249.488712 
L 140.335281 248.787859 
L 144.588174 247.121927 
L 146.120425 246.485678 
L 148.016496 245.52541 
L 151.939944 243.524013 
L 154.308097 241.904837 
L 158.169344 238.656671 
L 161.949472 235.164018 
L 166.956263 229.69555 
L 168.081895 227.88149 
L 168.910319 226.383505 
L 170.377552 223.874463 
L 171.377868 222.277877 
L 172.877264 219.926289 
L 173.683739 218.573341 
L 175.790494 213.908127 
L 176.59531 212.418478 
L 178.951421 208.346511 
L 179.871345 206.090611 
L 179.962292 205.848723 
L 179.962292 205.848723 
" clip-path="url(#p89219be7f1)" style="fill: none; stroke: #1f77b4; stroke-width: 1.5; stroke-linecap: square"/>
   </g>
   <g id="text_4">
    <!-- Linear-control -->
    <g transform="translate(60.336305 149.52) scale(0.2 -0.2)">
     <defs>
      <path id="DejaVuSans-4c" d="M 628 4666 
L 1259 4666 
L 1259 531 
L 3531 531 
L 3531 0 
L 628 0 
L 628 4666 
z
" transform="scale(0.015625)"/>
      <path id="DejaVuSans-69" d="M 603 3500 
L 1178 3500 
L 1178 0 
L 603 0 
L 603 3500 
z
M 603 4863 
L 1178 4863 
L 1178 4134 
L 603 4134 
L 603 4863 
z
" transform="scale(0.015625)"/>
      <path id="DejaVuSans-65" d="M 3597 1894 
L 3597 1613 
L 953 1613 
Q 991 1019 1311 708 
Q 1631 397 2203 397 
Q 2534 397 2845 478 
Q 3156 559 3463 722 
L 3463 178 
Q 3153 47 2828 -22 
Q 2503 -91 2169 -91 
Q 1331 -91 842 396 
Q 353 884 353 1716 
Q 353 2575 817 3079 
Q 1281 3584 2069 3584 
Q 2775 3584 3186 3129 
Q 3597 2675 3597 1894 
z
M 3022 2063 
Q 3016 2534 2758 2815 
Q 2500 3097 2075 3097 
Q 1594 3097 1305 2825 
Q 1016 2553 972 2059 
L 3022 2063 
z
" transform="scale(0.015625)"/>
     </defs>
     <use xlink:href="#DejaVuSans-4c"/>
     <use xlink:href="#DejaVuSans-69" x="55.712891"/>
     <use xlink:href="#DejaVuSans-6e" x="83.496094"/>
     <use xlink:href="#DejaVuSans-65" x="146.875"/>
     <use xlink:href="#DejaVuSans-61" x="208.398438"/>
     <use xlink:href="#DejaVuSans-72" x="269.677734"/>
     <use xlink:href="#DejaVuSans-2d" x="304.416016"/>
     <use xlink:href="#DejaVuSans-63" x="340.5"/>
     <use xlink:href="#DejaVuSans-6f" x="395.480469"/>
     <use xlink:href="#DejaVuSans-6e" x="456.662109"/>
     <use xlink:href="#DejaVuSans-74" x="520.041016"/>
     <use xlink:href="#DejaVuSans-72" x="559.25"/>
     <use xlink:href="#DejaVuSans-6f" x="598.113281"/>
     <use xlink:href="#DejaVuSans-6c" x="659.294922"/>
    </g>
   </g>
  </g>
  <g id="axes_5">
   <g id="line2d_5">
    <path d="M 334.623316 203.555069 
L 332.368997 202.503449 
L 331.10422 202.164681 
L 329.863595 201.80148 
L 328.68039 201.376606 
L 327.228492 200.839987 
L 325.764244 200.057383 
L 323.038503 198.293121 
L 321.640006 197.904246 
L 319.691097 196.74273 
L 316.040717 193.776214 
L 315.591679 193.474681 
L 313.841344 191.99368 
L 312.491625 191.348885 
L 311.887056 190.905937 
L 311.227008 190.257765 
L 309.524093 189.116734 
L 309.037133 188.811922 
L 308.715863 188.704411 
L 308.219289 188.166866 
L 307.427602 187.600281 
L 306.820081 187.161805 
L 305.054918 185.56944 
L 304.264391 184.462018 
L 303.446795 183.725772 
L 301.847157 182.352311 
L 301.371285 181.658677 
L 300.480592 180.395532 
L 299.937417 179.67302 
L 298.606631 178.526035 
L 297.51334 177.374856 
L 295.195384 174.056291 
L 294.886592 173.688103 
L 294.28161 173.104811 
L 290.826434 171.065906 
L 288.596872 169.000819 
L 287.791109 168.494516 
L 286.959377 167.692933 
L 286.330283 167.379912 
L 285.109847 166.666377 
L 284.642197 166.223849 
L 284.249363 165.581173 
L 282.749964 163.022564 
L 282.47133 162.79695 
L 281.333291 162.139498 
L 280.317935 161.426462 
L 279.596487 161.262514 
L 278.946558 161.264247 
L 278.51246 161.275399 
L 277.857688 161.199139 
L 274.852751 161.188646 
L 274.149997 161.222684 
L 273.492863 161.230326 
L 271.27323 160.558613 
L 269.650471 160.103955 
L 268.219263 160.494801 
L 267.402693 160.886409 
L 265.776269 161.680866 
L 264.530019 162.382381 
L 264.03749 162.426662 
L 262.897243 162.732691 
L 262.170014 163.033924 
L 261.82047 163.210376 
L 260.426195 163.335127 
L 259.453828 163.410638 
L 258.343185 163.625616 
L 255.358197 163.887551 
L 254.868848 164.127434 
L 254.334855 164.445105 
L 253.809549 164.750364 
L 252.466141 165.105728 
L 251.647915 165.287208 
L 250.655976 165.636509 
L 250.149711 165.861395 
L 249.666832 165.954008 
L 249.264715 166.059143 
L 248.392172 166.266945 
L 244.078171 167.473429 
L 242.926389 168.173689 
L 241.973972 168.703704 
L 241.468506 168.999472 
L 240.684808 169.658419 
L 240.257472 170.349065 
L 239.450157 171.248026 
L 238.767537 171.669235 
L 238.290508 172.283612 
L 237.39493 173.829379 
L 235.804314 174.897439 
L 234.90259 175.89604 
L 234.602882 176.477925 
L 232.726745 178.804507 
L 232.485678 179.17221 
L 232.197937 179.512393 
L 231.947852 179.89981 
L 231.620465 180.228705 
L 231.520935 180.527311 
L 230.581107 181.633755 
L 229.917782 182.509075 
L 229.654463 183.253841 
L 229.321974 184.699454 
L 228.515421 186.302741 
L 228.224573 186.795448 
L 227.565031 187.504334 
L 227.140951 187.850403 
L 225.558096 190.226872 
L 224.777555 191.003827 
L 224.537843 191.477118 
L 222.236227 194.79187 
L 220.863018 199.584875 
L 219.508354 203.585759 
L 219.375317 204.30283 
L 218.745708 207.49204 
L 218.774812 208.204729 
L 218.878747 209.793044 
L 218.955039 210.14446 
L 219.070782 210.642929 
L 219.176362 211.165925 
L 219.371191 212.530847 
L 220.077327 213.961237 
L 220.322225 214.402645 
L 220.514459 214.722144 
L 220.973172 215.172601 
L 221.329257 216.225423 
L 221.495165 216.62057 
L 221.627507 216.937598 
L 221.72873 217.501711 
L 222.255776 218.561417 
L 222.50621 219.24816 
L 222.824276 219.829037 
L 223.103153 220.473917 
L 223.949778 221.939913 
L 224.381842 223.258313 
L 224.255803 224.675705 
L 225.503338 225.958347 
L 225.723918 226.546362 
L 225.803924 226.914193 
L 225.917966 227.383057 
L 226.918271 227.997637 
L 227.440082 228.25182 
L 228.938582 228.982722 
L 229.56536 229.564449 
L 230.013853 230.010415 
L 230.628921 230.620542 
L 232.204319 232.06823 
L 232.611122 232.496248 
L 233.653439 233.328849 
L 234.143853 234.238217 
L 235.139127 235.316583 
L 235.39686 235.682479 
L 235.716271 236.090977 
L 236.207828 236.759836 
L 237.018431 237.529544 
L 237.420067 237.915642 
L 237.99117 238.272653 
L 238.703878 238.884745 
L 239.785784 239.763891 
L 240.169892 240.12787 
L 240.794624 240.464286 
L 241.918542 241.373384 
L 245.409348 243.585626 
L 246.064906 244.093253 
L 247.948225 245.749633 
L 249.594004 246.220135 
L 252.106344 247.390739 
L 252.572807 247.496575 
L 253.358648 247.687093 
L 254.685542 247.900735 
L 256.683586 248.89949 
L 258.255817 249.335192 
L 259.307715 249.924578 
L 259.803834 250.008515 
L 261.420516 250.393787 
L 262.809576 250.660165 
L 263.596924 250.913139 
L 264.364549 251.083086 
L 265.511555 251.312609 
L 266.795067 251.728535 
L 267.150761 251.690862 
L 267.860587 251.393961 
L 268.571105 251.423944 
L 268.89106 251.576882 
L 269.795864 251.599011 
L 271.775703 251.276991 
L 272.515053 250.897335 
L 273.493175 250.482414 
L 273.881603 250.459476 
L 274.329218 250.463421 
L 276.521532 250.530216 
L 277.579623 250.364998 
L 277.99533 250.316987 
L 279.526073 249.932639 
L 280.639813 249.533919 
L 281.13396 249.408866 
L 282.035161 249.129401 
L 282.448879 248.88665 
L 285.032615 246.7357 
L 285.607912 246.173034 
L 286.216968 245.658038 
L 286.904422 245.231603 
L 288.046067 244.425974 
L 289.056384 243.939223 
L 289.24247 243.747598 
L 289.627184 243.256311 
L 290.451719 242.639619 
L 291.671033 241.683137 
L 292.587019 240.532391 
L 293.567826 239.640484 
L 295.016352 238.468574 
L 295.856356 237.446674 
L 296.122009 237.008115 
L 297.447023 235.192189 
L 298.202603 233.807758 
L 298.439194 233.387064 
L 300.270477 231.46882 
L 300.795173 230.886864 
L 301.236075 230.399076 
L 302.037051 229.314719 
L 302.936121 228.326656 
L 303.339374 227.488562 
L 303.584509 226.500746 
L 303.946573 225.766949 
L 305.020725 224.858233 
L 305.46687 224.519143 
L 308.224586 221.259423 
L 308.655232 220.921025 
L 309.016913 220.647485 
L 309.744533 220.001038 
L 310.667737 219.330727 
L 311.462081 218.55086 
L 312.362964 217.473082 
L 314.178897 216.099736 
L 315.247283 215.418277 
L 316.356985 214.558992 
L 317.4416 213.705338 
L 318.583526 212.54951 
L 320.749025 211.562144 
L 321.575188 211.319683 
L 322.555049 210.939779 
L 323.889804 210.32959 
L 324.998949 209.719827 
L 326.092522 209.276235 
L 331.126743 207.637865 
L 333.02047 206.401341 
L 334.349271 205.048748 
L 334.670171 204.411615 
L 334.789532 204.058228 
L 334.789532 204.058228 
" clip-path="url(#pbe7442466d)" style="fill: none; stroke: #ff7f0e; stroke-width: 1.5; stroke-linecap: square"/>
   </g>
   <g id="text_5">
    <!-- Linear-cytd -->
    <g transform="translate(221.014062 149.52) scale(0.2 -0.2)">
     <use xlink:href="#DejaVuSans-4c"/>
     <use xlink:href="#DejaVuSans-69" x="55.712891"/>
     <use xlink:href="#DejaVuSans-6e" x="83.496094"/>
     <use xlink:href="#DejaVuSans-65" x="146.875"/>
     <use xlink:href="#DejaVuSans-61" x="208.398438"/>
     <use xlink:href="#DejaVuSans-72" x="269.677734"/>
     <use xlink:href="#DejaVuSans-2d" x="304.416016"/>
     <use xlink:href="#DejaVuSans-63" x="340.5"/>
     <use xlink:href="#DejaVuSans-79" x="395.480469"/>
     <use xlink:href="#DejaVuSans-74" x="454.660156"/>
     <use xlink:href="#DejaVuSans-64" x="493.869141"/>
    </g>
   </g>
  </g>
  <g id="axes_6">
   <g id="line2d_6">
    <path d="M 480.320451 204.905198 
L 478.180021 203.917999 
L 476.883549 203.159805 
L 475.506699 202.508003 
L 474.787417 202.09209 
L 472.050507 200.101967 
L 470.513834 198.460792 
L 469.135368 196.99866 
L 467.681479 195.55484 
L 466.65617 193.965604 
L 466.027489 192.539906 
L 465.270874 190.954606 
L 464.817584 190.381068 
L 463.697468 189.425634 
L 461.584985 187.743187 
L 460.165692 186.607579 
L 458.620344 184.888649 
L 457.991326 184.102524 
L 457.366258 183.251366 
L 454.565832 180.305026 
L 452.793972 177.913167 
L 452.284902 177.265444 
L 451.533959 176.568402 
L 448.744267 174.24465 
L 447.454727 172.844183 
L 446.603879 172.03545 
L 443.940359 170.042607 
L 443.060777 169.115519 
L 441.531875 168.134687 
L 439.785389 167.189329 
L 438.894296 166.610744 
L 437.782563 165.979862 
L 436.765848 165.297831 
L 435.861027 164.701994 
L 433.759302 163.399905 
L 431.652429 162.137186 
L 430.759346 161.525617 
L 429.281058 160.645617 
L 428.597731 160.362744 
L 427.10692 160.101818 
L 423.38875 160.352383 
L 422.54341 160.424448 
L 419.322769 160.202415 
L 417.22395 160.623153 
L 415.198716 160.841475 
L 414.218117 160.877704 
L 411.479484 160.827872 
L 408.85057 160.78407 
L 407.974684 160.947282 
L 405.775 161.703325 
L 403.762022 162.393981 
L 401.619279 163.27073 
L 400.311717 163.737046 
L 398.685349 164.386625 
L 397.247033 165.495823 
L 396.172336 166.100481 
L 395.212044 166.505021 
L 394.27384 167.066251 
L 392.719511 168.110234 
L 390.750934 168.971251 
L 390.160238 169.301971 
L 388.303607 170.692484 
L 384.568527 172.045416 
L 383.584503 172.780729 
L 379.073276 176.722536 
L 378.594495 177.341663 
L 378.08536 178.665852 
L 377.755111 179.762144 
L 377.036733 181.635596 
L 375.658743 183.648035 
L 375.005756 184.974553 
L 374.615603 185.596639 
L 373.830831 186.672776 
L 372.729727 188.372162 
L 372.002074 189.128709 
L 371.732432 189.563195 
L 370.696343 193.022112 
L 370.557471 195.970328 
L 370.345708 197.303484 
L 369.79987 198.802663 
L 369.596145 199.399303 
L 368.973898 204.38035 
L 368.794441 205.233717 
L 368.577712 207.958983 
L 368.770145 209.705362 
L 368.771043 211.644635 
L 369.044279 213.480119 
L 369.264101 215.221059 
L 370.173499 220.354319 
L 370.678725 221.480201 
L 372.066878 223.795734 
L 372.413473 224.738569 
L 373.235075 226.63306 
L 373.661079 227.794829 
L 373.966514 228.539182 
L 374.318853 229.499955 
L 374.616667 230.062895 
L 375.170892 231.012534 
L 375.621043 231.713589 
L 377.085514 233.220999 
L 377.94988 234.174101 
L 379.359579 235.534256 
L 380.084877 236.514698 
L 380.731565 237.548646 
L 382.489989 239.702698 
L 383.560054 240.347978 
L 385.900701 241.955983 
L 386.892799 242.741504 
L 389.389885 244.845536 
L 391.399543 246.135018 
L 392.127923 246.544055 
L 392.989829 247.167869 
L 394.257429 247.776176 
L 399.097223 249.21826 
L 399.970058 249.646454 
L 401.136145 250.294434 
L 402.918372 251.236094 
L 404.125692 251.356276 
L 408.661425 251.407364 
L 410.41868 251.476111 
L 410.952702 251.406176 
L 412.157416 251.254098 
L 413.856891 251.06653 
L 416.227773 251.341505 
L 418.118096 251.725173 
L 419.457559 251.596055 
L 421.275444 250.980877 
L 422.488217 250.513701 
L 423.445827 250.372097 
L 424.926639 250.401168 
L 426.867333 249.763009 
L 427.540091 249.549354 
L 429.972744 249.248544 
L 431.649213 248.843344 
L 433.751867 248.53325 
L 438.803589 246.480506 
L 440.115101 245.695427 
L 441.159587 244.846323 
L 442.214487 244.187013 
L 443.528443 243.601608 
L 445.635304 242.290318 
L 448.995881 239.039009 
L 449.635656 238.210137 
L 450.836032 237.042859 
L 451.179743 236.510041 
L 452.890566 234.535082 
L 454.917188 232.999122 
L 455.713685 232.346929 
L 459.288996 228.738481 
L 462.40997 224.094984 
L 462.849191 223.398467 
L 466.068059 219.185241 
L 467.132125 217.648017 
L 472.207634 212.617686 
L 472.897209 211.926713 
L 474.261491 210.449548 
L 475.349712 209.445779 
L 477.375639 207.951655 
L 479.530625 206.597342 
L 480.166969 205.604238 
L 480.40508 205.194356 
L 480.40508 205.194356 
" clip-path="url(#p5482538b5c)" style="fill: none; stroke: #2ca02c; stroke-width: 1.5; stroke-linecap: square"/>
   </g>
   <g id="text_6">
    <!-- Linear-jasp -->
    <g transform="translate(369.94182 149.52) scale(0.2 -0.2)">
     <use xlink:href="#DejaVuSans-4c"/>
     <use xlink:href="#DejaVuSans-69" x="55.712891"/>
     <use xlink:href="#DejaVuSans-6e" x="83.496094"/>
     <use xlink:href="#DejaVuSans-65" x="146.875"/>
     <use xlink:href="#DejaVuSans-61" x="208.398438"/>
     <use xlink:href="#DejaVuSans-72" x="269.677734"/>
     <use xlink:href="#DejaVuSans-2d" x="304.416016"/>
     <use xlink:href="#DejaVuSans-6a" x="340.5"/>
     <use xlink:href="#DejaVuSans-61" x="368.283203"/>
     <use xlink:href="#DejaVuSans-73" x="429.5625"/>
     <use xlink:href="#DejaVuSans-70" x="481.662109"/>
    </g>
   </g>
  </g>
 </g>
 <defs>
  <clipPath id="pbf57175d69">
   <rect x="67.5" y="34.56" width="123.088235" height="100.8"/>
  </clipPath>
  <clipPath id="p6fb7988b81">
   <rect x="215.205882" y="34.56" width="123.088235" height="100.8"/>
  </clipPath>
  <clipPath id="p53b3c6cb73">
   <rect x="362.911765" y="34.56" width="123.088235" height="100.8"/>
  </clipPath>
  <clipPath id="p89219be7f1">
   <rect x="67.5" y="155.52" width="123.088235" height="100.8"/>
  </clipPath>
  <clipPath id="pbe7442466d">
   <rect x="215.205882" y="155.52" width="123.088235" height="100.8"/>
  </clipPath>
  <clipPath id="p5482538b5c">
   <rect x="362.911765" y="155.52" width="123.088235" height="100.8"/>
  </clipPath>
 </defs>
</svg>
