<?xml version="1.0" encoding="utf-8" standalone="no"?>
<!DOCTYPE svg PUBLIC "-//W3C//DTD SVG 1.1//EN"
  "http://www.w3.org/Graphics/SVG/1.1/DTD/svg11.dtd">
<svg xmlns:xlink="http://www.w3.org/1999/xlink" width="576pt" height="288pt" viewBox="0 0 576 288" xmlns="http://www.w3.org/2000/svg" version="1.1">
 <metadata>
  <rdf:RDF xmlns:dc="http://purl.org/dc/elements/1.1/" xmlns:cc="http://creativecommons.org/ns#" xmlns:rdf="http://www.w3.org/1999/02/22-rdf-syntax-ns#">
   <cc:Work>
    <dc:type rdf:resource="http://purl.org/dc/dcmitype/StillImage"/>
    <dc:date>2024-04-23T15:20:45.505609</dc:date>
    <dc:format>image/svg+xml</dc:format>
    <dc:creator>
     <cc:Agent>
      <dc:title>Matplotlib v3.8.4, https://matplotlib.org/</dc:title>
     </cc:Agent>
    </dc:creator>
   </cc:Work>
  </rdf:RDF>
 </metadata>
 <defs>
  <style type="text/css">*{stroke-linejoin: round; stroke-linecap: butt}</style>
 </defs>
 <g id="figure_1">
  <g id="patch_1">
   <path d="M 0 288 
L 576 288 
L 576 0 
L 0 0 
z
" style="fill: #ffffff"/>
  </g>
  <g id="axes_1">
   <g id="patch_2">
    <path d="M 48.074375 260.521875 
L 281.010937 260.521875 
L 281.010937 27.437812 
L 48.074375 27.437812 
z
" style="fill: #ffffff"/>
   </g>
   <g id="patch_3">
    <path d="M 53.251397 260.521875 
L 63.327968 260.521875 
L 63.327968 250.319959 
L 53.251397 250.319959 
z
" clip-path="url(#p7de445b499)" style="fill: #1f77b4; opacity: 0.4"/>
   </g>
   <g id="patch_4">
    <path d="M 63.327968 260.521875 
L 73.404539 260.521875 
L 73.404539 235.017085 
L 63.327968 235.017085 
z
" clip-path="url(#p7de445b499)" style="fill: #1f77b4; opacity: 0.4"/>
   </g>
   <g id="patch_5">
    <path d="M 73.404539 260.521875 
L 83.48111 260.521875 
L 83.48111 178.906547 
L 73.404539 178.906547 
z
" clip-path="url(#p7de445b499)" style="fill: #1f77b4; opacity: 0.4"/>
   </g>
   <g id="patch_6">
    <path d="M 83.48111 260.521875 
L 93.557681 260.521875 
L 93.557681 178.906547 
L 83.48111 178.906547 
z
" clip-path="url(#p7de445b499)" style="fill: #1f77b4; opacity: 0.4"/>
   </g>
   <g id="patch_7">
    <path d="M 93.557681 260.521875 
L 103.634251 260.521875 
L 103.634251 158.502714 
L 93.557681 158.502714 
z
" clip-path="url(#p7de445b499)" style="fill: #1f77b4; opacity: 0.4"/>
   </g>
   <g id="patch_8">
    <path d="M 103.634251 260.521875 
L 113.710822 260.521875 
L 113.710822 173.805589 
L 103.634251 173.805589 
z
" clip-path="url(#p7de445b499)" style="fill: #1f77b4; opacity: 0.4"/>
   </g>
   <g id="patch_9">
    <path d="M 113.710822 260.521875 
L 123.787393 260.521875 
L 123.787393 209.512295 
L 113.710822 209.512295 
z
" clip-path="url(#p7de445b499)" style="fill: #1f77b4; opacity: 0.4"/>
   </g>
   <g id="patch_10">
    <path d="M 123.787393 260.521875 
L 133.863964 260.521875 
L 133.863964 219.714211 
L 123.787393 219.714211 
z
" clip-path="url(#p7de445b499)" style="fill: #1f77b4; opacity: 0.4"/>
   </g>
   <g id="patch_11">
    <path d="M 133.863964 260.521875 
L 143.940535 260.521875 
L 143.940535 235.017085 
L 133.863964 235.017085 
z
" clip-path="url(#p7de445b499)" style="fill: #1f77b4; opacity: 0.4"/>
   </g>
   <g id="patch_12">
    <path d="M 143.940535 260.521875 
L 154.017106 260.521875 
L 154.017106 250.319959 
L 143.940535 250.319959 
z
" clip-path="url(#p7de445b499)" style="fill: #1f77b4; opacity: 0.4"/>
   </g>
   <g id="patch_13">
    <path d="M 154.017106 260.521875 
L 164.093677 260.521875 
L 164.093677 245.219001 
L 154.017106 245.219001 
z
" clip-path="url(#p7de445b499)" style="fill: #1f77b4; opacity: 0.4"/>
   </g>
   <g id="patch_14">
    <path d="M 164.093677 260.521875 
L 174.170248 260.521875 
L 174.170248 204.411337 
L 164.093677 204.411337 
z
" clip-path="url(#p7de445b499)" style="fill: #1f77b4; opacity: 0.4"/>
   </g>
   <g id="patch_15">
    <path d="M 174.170248 260.521875 
L 184.246818 260.521875 
L 184.246818 209.512295 
L 174.170248 209.512295 
z
" clip-path="url(#p7de445b499)" style="fill: #1f77b4; opacity: 0.4"/>
   </g>
   <g id="patch_16">
    <path d="M 184.246818 260.521875 
L 194.323389 260.521875 
L 194.323389 178.906547 
L 184.246818 178.906547 
z
" clip-path="url(#p7de445b499)" style="fill: #1f77b4; opacity: 0.4"/>
   </g>
   <g id="patch_17">
    <path d="M 194.323389 260.521875 
L 204.39996 260.521875 
L 204.39996 178.906547 
L 194.323389 178.906547 
z
" clip-path="url(#p7de445b499)" style="fill: #1f77b4; opacity: 0.4"/>
   </g>
   <g id="patch_18">
    <path d="M 204.39996 260.521875 
L 214.476531 260.521875 
L 214.476531 189.108463 
L 204.39996 189.108463 
z
" clip-path="url(#p7de445b499)" style="fill: #1f77b4; opacity: 0.4"/>
   </g>
   <g id="patch_19">
    <path d="M 214.476531 260.521875 
L 224.553102 260.521875 
L 224.553102 204.411337 
L 214.476531 204.411337 
z
" clip-path="url(#p7de445b499)" style="fill: #1f77b4; opacity: 0.4"/>
   </g>
   <g id="patch_20">
    <path d="M 224.553102 260.521875 
L 234.629673 260.521875 
L 234.629673 204.411337 
L 224.553102 204.411337 
z
" clip-path="url(#p7de445b499)" style="fill: #1f77b4; opacity: 0.4"/>
   </g>
   <g id="patch_21">
    <path d="M 234.629673 260.521875 
L 244.706244 260.521875 
L 244.706244 240.118043 
L 234.629673 240.118043 
z
" clip-path="url(#p7de445b499)" style="fill: #1f77b4; opacity: 0.4"/>
   </g>
   <g id="patch_22">
    <path d="M 244.706244 260.521875 
L 254.782815 260.521875 
L 254.782815 235.017085 
L 244.706244 235.017085 
z
" clip-path="url(#p7de445b499)" style="fill: #1f77b4; opacity: 0.4"/>
   </g>
   <g id="patch_23">
    <path d="M 99.507744 260.521875 
L 108.582903 260.521875 
L 108.582903 248.219792 
L 99.507744 248.219792 
z
" clip-path="url(#p7de445b499)" style="fill: #ff7f0e; opacity: 0.4"/>
   </g>
   <g id="patch_24">
    <path d="M 108.582903 260.521875 
L 117.658063 260.521875 
L 117.658063 260.521875 
L 108.582903 260.521875 
z
" clip-path="url(#p7de445b499)" style="fill: #ff7f0e; opacity: 0.4"/>
   </g>
   <g id="patch_25">
    <path d="M 117.658063 260.521875 
L 126.733223 260.521875 
L 126.733223 260.521875 
L 117.658063 260.521875 
z
" clip-path="url(#p7de445b499)" style="fill: #ff7f0e; opacity: 0.4"/>
   </g>
   <g id="patch_26">
    <path d="M 126.733223 260.521875 
L 135.808382 260.521875 
L 135.808382 260.521875 
L 126.733223 260.521875 
z
" clip-path="url(#p7de445b499)" style="fill: #ff7f0e; opacity: 0.4"/>
   </g>
   <g id="patch_27">
    <path d="M 135.808382 260.521875 
L 144.883542 260.521875 
L 144.883542 260.521875 
L 135.808382 260.521875 
z
" clip-path="url(#p7de445b499)" style="fill: #ff7f0e; opacity: 0.4"/>
   </g>
   <g id="patch_28">
    <path d="M 144.883542 260.521875 
L 153.958702 260.521875 
L 153.958702 260.521875 
L 144.883542 260.521875 
z
" clip-path="url(#p7de445b499)" style="fill: #ff7f0e; opacity: 0.4"/>
   </g>
   <g id="patch_29">
    <path d="M 153.958702 260.521875 
L 163.033862 260.521875 
L 163.033862 248.219792 
L 153.958702 248.219792 
z
" clip-path="url(#p7de445b499)" style="fill: #ff7f0e; opacity: 0.4"/>
   </g>
   <g id="patch_30">
    <path d="M 163.033862 260.521875 
L 172.109021 260.521875 
L 172.109021 260.521875 
L 163.033862 260.521875 
z
" clip-path="url(#p7de445b499)" style="fill: #ff7f0e; opacity: 0.4"/>
   </g>
   <g id="patch_31">
    <path d="M 172.109021 260.521875 
L 181.184181 260.521875 
L 181.184181 260.521875 
L 172.109021 260.521875 
z
" clip-path="url(#p7de445b499)" style="fill: #ff7f0e; opacity: 0.4"/>
   </g>
   <g id="patch_32">
    <path d="M 181.184181 260.521875 
L 190.259341 260.521875 
L 190.259341 223.615625 
L 181.184181 223.615625 
z
" clip-path="url(#p7de445b499)" style="fill: #ff7f0e; opacity: 0.4"/>
   </g>
   <g id="patch_33">
    <path d="M 190.259341 260.521875 
L 199.3345 260.521875 
L 199.3345 223.615625 
L 190.259341 223.615625 
z
" clip-path="url(#p7de445b499)" style="fill: #ff7f0e; opacity: 0.4"/>
   </g>
   <g id="patch_34">
    <path d="M 199.3345 260.521875 
L 208.40966 260.521875 
L 208.40966 211.313542 
L 199.3345 211.313542 
z
" clip-path="url(#p7de445b499)" style="fill: #ff7f0e; opacity: 0.4"/>
   </g>
   <g id="patch_35">
    <path d="M 208.40966 260.521875 
L 217.48482 260.521875 
L 217.48482 211.313542 
L 208.40966 211.313542 
z
" clip-path="url(#p7de445b499)" style="fill: #ff7f0e; opacity: 0.4"/>
   </g>
   <g id="patch_36">
    <path d="M 217.48482 260.521875 
L 226.559979 260.521875 
L 226.559979 162.10521 
L 217.48482 162.10521 
z
" clip-path="url(#p7de445b499)" style="fill: #ff7f0e; opacity: 0.4"/>
   </g>
   <g id="patch_37">
    <path d="M 226.559979 260.521875 
L 235.635139 260.521875 
L 235.635139 137.501043 
L 226.559979 137.501043 
z
" clip-path="url(#p7de445b499)" style="fill: #ff7f0e; opacity: 0.4"/>
   </g>
   <g id="patch_38">
    <path d="M 235.635139 260.521875 
L 244.710299 260.521875 
L 244.710299 75.990627 
L 235.635139 75.990627 
z
" clip-path="url(#p7de445b499)" style="fill: #ff7f0e; opacity: 0.4"/>
   </g>
   <g id="patch_39">
    <path d="M 244.710299 260.521875 
L 253.785458 260.521875 
L 253.785458 88.29271 
L 244.710299 88.29271 
z
" clip-path="url(#p7de445b499)" style="fill: #ff7f0e; opacity: 0.4"/>
   </g>
   <g id="patch_40">
    <path d="M 253.785458 260.521875 
L 262.860618 260.521875 
L 262.860618 112.896877 
L 253.785458 112.896877 
z
" clip-path="url(#p7de445b499)" style="fill: #ff7f0e; opacity: 0.4"/>
   </g>
   <g id="patch_41">
    <path d="M 262.860618 260.521875 
L 271.935778 260.521875 
L 271.935778 137.501043 
L 262.860618 137.501043 
z
" clip-path="url(#p7de445b499)" style="fill: #ff7f0e; opacity: 0.4"/>
   </g>
   <g id="patch_42">
    <path d="M 271.935778 260.521875 
L 281.010938 260.521875 
L 281.010938 162.10521 
L 271.935778 162.10521 
z
" clip-path="url(#p7de445b499)" style="fill: #ff7f0e; opacity: 0.4"/>
   </g>
   <g id="patch_43">
    <path d="M 142.30796 260.521875 
L 148.216093 260.521875 
L 148.216093 242.02314 
L 142.30796 242.02314 
z
" clip-path="url(#p7de445b499)" style="fill: #2ca02c; opacity: 0.4"/>
   </g>
   <g id="patch_44">
    <path d="M 148.216093 260.521875 
L 154.124226 260.521875 
L 154.124226 205.02567 
L 148.216093 205.02567 
z
" clip-path="url(#p7de445b499)" style="fill: #2ca02c; opacity: 0.4"/>
   </g>
   <g id="patch_45">
    <path d="M 154.124226 260.521875 
L 160.032359 260.521875 
L 160.032359 260.521875 
L 154.124226 260.521875 
z
" clip-path="url(#p7de445b499)" style="fill: #2ca02c; opacity: 0.4"/>
   </g>
   <g id="patch_46">
    <path d="M 160.032359 260.521875 
L 165.940491 260.521875 
L 165.940491 260.521875 
L 160.032359 260.521875 
z
" clip-path="url(#p7de445b499)" style="fill: #2ca02c; opacity: 0.4"/>
   </g>
   <g id="patch_47">
    <path d="M 165.940491 260.521875 
L 171.848624 260.521875 
L 171.848624 205.02567 
L 165.940491 205.02567 
z
" clip-path="url(#p7de445b499)" style="fill: #2ca02c; opacity: 0.4"/>
   </g>
   <g id="patch_48">
    <path d="M 171.848624 260.521875 
L 177.756757 260.521875 
L 177.756757 131.030729 
L 171.848624 131.030729 
z
" clip-path="url(#p7de445b499)" style="fill: #2ca02c; opacity: 0.4"/>
   </g>
   <g id="patch_49">
    <path d="M 177.756757 260.521875 
L 183.66489 260.521875 
L 183.66489 205.02567 
L 177.756757 205.02567 
z
" clip-path="url(#p7de445b499)" style="fill: #2ca02c; opacity: 0.4"/>
   </g>
   <g id="patch_50">
    <path d="M 183.66489 260.521875 
L 189.573022 260.521875 
L 189.573022 149.529464 
L 183.66489 149.529464 
z
" clip-path="url(#p7de445b499)" style="fill: #2ca02c; opacity: 0.4"/>
   </g>
   <g id="patch_51">
    <path d="M 189.573022 260.521875 
L 195.481155 260.521875 
L 195.481155 149.529464 
L 189.573022 149.529464 
z
" clip-path="url(#p7de445b499)" style="fill: #2ca02c; opacity: 0.4"/>
   </g>
   <g id="patch_52">
    <path d="M 195.481155 260.521875 
L 201.389288 260.521875 
L 201.389288 149.529464 
L 195.481155 149.529464 
z
" clip-path="url(#p7de445b499)" style="fill: #2ca02c; opacity: 0.4"/>
   </g>
   <g id="patch_53">
    <path d="M 201.389288 260.521875 
L 207.297421 260.521875 
L 207.297421 94.033259 
L 201.389288 94.033259 
z
" clip-path="url(#p7de445b499)" style="fill: #2ca02c; opacity: 0.4"/>
   </g>
   <g id="patch_54">
    <path d="M 207.297421 260.521875 
L 213.205553 260.521875 
L 213.205553 38.537054 
L 207.297421 38.537054 
z
" clip-path="url(#p7de445b499)" style="fill: #2ca02c; opacity: 0.4"/>
   </g>
   <g id="patch_55">
    <path d="M 213.205553 260.521875 
L 219.113686 260.521875 
L 219.113686 94.033259 
L 213.205553 94.033259 
z
" clip-path="url(#p7de445b499)" style="fill: #2ca02c; opacity: 0.4"/>
   </g>
   <g id="patch_56">
    <path d="M 219.113686 260.521875 
L 225.021819 260.521875 
L 225.021819 149.529464 
L 219.113686 149.529464 
z
" clip-path="url(#p7de445b499)" style="fill: #2ca02c; opacity: 0.4"/>
   </g>
   <g id="patch_57">
    <path d="M 225.021819 260.521875 
L 230.929952 260.521875 
L 230.929952 131.030729 
L 225.021819 131.030729 
z
" clip-path="url(#p7de445b499)" style="fill: #2ca02c; opacity: 0.4"/>
   </g>
   <g id="patch_58">
    <path d="M 230.929952 260.521875 
L 236.838084 260.521875 
L 236.838084 75.534524 
L 230.929952 75.534524 
z
" clip-path="url(#p7de445b499)" style="fill: #2ca02c; opacity: 0.4"/>
   </g>
   <g id="patch_59">
    <path d="M 236.838084 260.521875 
L 242.746217 260.521875 
L 242.746217 223.524405 
L 236.838084 223.524405 
z
" clip-path="url(#p7de445b499)" style="fill: #2ca02c; opacity: 0.4"/>
   </g>
   <g id="patch_60">
    <path d="M 242.746217 260.521875 
L 248.65435 260.521875 
L 248.65435 205.02567 
L 242.746217 205.02567 
z
" clip-path="url(#p7de445b499)" style="fill: #2ca02c; opacity: 0.4"/>
   </g>
   <g id="patch_61">
    <path d="M 248.65435 260.521875 
L 254.562483 260.521875 
L 254.562483 260.521875 
L 248.65435 260.521875 
z
" clip-path="url(#p7de445b499)" style="fill: #2ca02c; opacity: 0.4"/>
   </g>
   <g id="patch_62">
    <path d="M 254.562483 260.521875 
L 260.470615 260.521875 
L 260.470615 223.524405 
L 254.562483 223.524405 
z
" clip-path="url(#p7de445b499)" style="fill: #2ca02c; opacity: 0.4"/>
   </g>
   <g id="matplotlib.axis_1">
    <g id="xtick_1">
     <g id="line2d_1">
      <defs>
       <path id="m76abc6fb37" d="M 0 0 
L 0 3.5 
" style="stroke: #000000; stroke-width: 0.8"/>
      </defs>
      <g>
       <use xlink:href="#m76abc6fb37" x="100.381037" y="260.521875" style="stroke: #000000; stroke-width: 0.8"/>
      </g>
     </g>
     <g id="text_1">
      <!-- 0.6 -->
      <g transform="translate(92.429475 275.120313) scale(0.1 -0.1)">
       <defs>
        <path id="DejaVuSans-30" d="M 2034 4250 
Q 1547 4250 1301 3770 
Q 1056 3291 1056 2328 
Q 1056 1369 1301 889 
Q 1547 409 2034 409 
Q 2525 409 2770 889 
Q 3016 1369 3016 2328 
Q 3016 3291 2770 3770 
Q 2525 4250 2034 4250 
z
M 2034 4750 
Q 2819 4750 3233 4129 
Q 3647 3509 3647 2328 
Q 3647 1150 3233 529 
Q 2819 -91 2034 -91 
Q 1250 -91 836 529 
Q 422 1150 422 2328 
Q 422 3509 836 4129 
Q 1250 4750 2034 4750 
z
" transform="scale(0.015625)"/>
        <path id="DejaVuSans-2e" d="M 684 794 
L 1344 794 
L 1344 0 
L 684 0 
L 684 794 
z
" transform="scale(0.015625)"/>
        <path id="DejaVuSans-36" d="M 2113 2584 
Q 1688 2584 1439 2293 
Q 1191 2003 1191 1497 
Q 1191 994 1439 701 
Q 1688 409 2113 409 
Q 2538 409 2786 701 
Q 3034 994 3034 1497 
Q 3034 2003 2786 2293 
Q 2538 2584 2113 2584 
z
M 3366 4563 
L 3366 3988 
Q 3128 4100 2886 4159 
Q 2644 4219 2406 4219 
Q 1781 4219 1451 3797 
Q 1122 3375 1075 2522 
Q 1259 2794 1537 2939 
Q 1816 3084 2150 3084 
Q 2853 3084 3261 2657 
Q 3669 2231 3669 1497 
Q 3669 778 3244 343 
Q 2819 -91 2113 -91 
Q 1303 -91 875 529 
Q 447 1150 447 2328 
Q 447 3434 972 4092 
Q 1497 4750 2381 4750 
Q 2619 4750 2861 4703 
Q 3103 4656 3366 4563 
z
" transform="scale(0.015625)"/>
       </defs>
       <use xlink:href="#DejaVuSans-30"/>
       <use xlink:href="#DejaVuSans-2e" x="63.623047"/>
       <use xlink:href="#DejaVuSans-36" x="95.410156"/>
      </g>
     </g>
    </g>
    <g id="xtick_2">
     <g id="line2d_2">
      <g>
       <use xlink:href="#m76abc6fb37" x="152.689941" y="260.521875" style="stroke: #000000; stroke-width: 0.8"/>
      </g>
     </g>
     <g id="text_2">
      <!-- 0.7 -->
      <g transform="translate(144.738378 275.120313) scale(0.1 -0.1)">
       <defs>
        <path id="DejaVuSans-37" d="M 525 4666 
L 3525 4666 
L 3525 4397 
L 1831 0 
L 1172 0 
L 2766 4134 
L 525 4134 
L 525 4666 
z
" transform="scale(0.015625)"/>
       </defs>
       <use xlink:href="#DejaVuSans-30"/>
       <use xlink:href="#DejaVuSans-2e" x="63.623047"/>
       <use xlink:href="#DejaVuSans-37" x="95.410156"/>
      </g>
     </g>
    </g>
    <g id="xtick_3">
     <g id="line2d_3">
      <g>
       <use xlink:href="#m76abc6fb37" x="204.998844" y="260.521875" style="stroke: #000000; stroke-width: 0.8"/>
      </g>
     </g>
     <g id="text_3">
      <!-- 0.8 -->
      <g transform="translate(197.047282 275.120313) scale(0.1 -0.1)">
       <defs>
        <path id="DejaVuSans-38" d="M 2034 2216 
Q 1584 2216 1326 1975 
Q 1069 1734 1069 1313 
Q 1069 891 1326 650 
Q 1584 409 2034 409 
Q 2484 409 2743 651 
Q 3003 894 3003 1313 
Q 3003 1734 2745 1975 
Q 2488 2216 2034 2216 
z
M 1403 2484 
Q 997 2584 770 2862 
Q 544 3141 544 3541 
Q 544 4100 942 4425 
Q 1341 4750 2034 4750 
Q 2731 4750 3128 4425 
Q 3525 4100 3525 3541 
Q 3525 3141 3298 2862 
Q 3072 2584 2669 2484 
Q 3125 2378 3379 2068 
Q 3634 1759 3634 1313 
Q 3634 634 3220 271 
Q 2806 -91 2034 -91 
Q 1263 -91 848 271 
Q 434 634 434 1313 
Q 434 1759 690 2068 
Q 947 2378 1403 2484 
z
M 1172 3481 
Q 1172 3119 1398 2916 
Q 1625 2713 2034 2713 
Q 2441 2713 2670 2916 
Q 2900 3119 2900 3481 
Q 2900 3844 2670 4047 
Q 2441 4250 2034 4250 
Q 1625 4250 1398 4047 
Q 1172 3844 1172 3481 
z
" transform="scale(0.015625)"/>
       </defs>
       <use xlink:href="#DejaVuSans-30"/>
       <use xlink:href="#DejaVuSans-2e" x="63.623047"/>
       <use xlink:href="#DejaVuSans-38" x="95.410156"/>
      </g>
     </g>
    </g>
    <g id="xtick_4">
     <g id="line2d_4">
      <g>
       <use xlink:href="#m76abc6fb37" x="257.307748" y="260.521875" style="stroke: #000000; stroke-width: 0.8"/>
      </g>
     </g>
     <g id="text_4">
      <!-- 0.9 -->
      <g transform="translate(249.356185 275.120313) scale(0.1 -0.1)">
       <defs>
        <path id="DejaVuSans-39" d="M 703 97 
L 703 672 
Q 941 559 1184 500 
Q 1428 441 1663 441 
Q 2288 441 2617 861 
Q 2947 1281 2994 2138 
Q 2813 1869 2534 1725 
Q 2256 1581 1919 1581 
Q 1219 1581 811 2004 
Q 403 2428 403 3163 
Q 403 3881 828 4315 
Q 1253 4750 1959 4750 
Q 2769 4750 3195 4129 
Q 3622 3509 3622 2328 
Q 3622 1225 3098 567 
Q 2575 -91 1691 -91 
Q 1453 -91 1209 -44 
Q 966 3 703 97 
z
M 1959 2075 
Q 2384 2075 2632 2365 
Q 2881 2656 2881 3163 
Q 2881 3666 2632 3958 
Q 2384 4250 1959 4250 
Q 1534 4250 1286 3958 
Q 1038 3666 1038 3163 
Q 1038 2656 1286 2365 
Q 1534 2075 1959 2075 
z
" transform="scale(0.015625)"/>
       </defs>
       <use xlink:href="#DejaVuSans-30"/>
       <use xlink:href="#DejaVuSans-2e" x="63.623047"/>
       <use xlink:href="#DejaVuSans-39" x="95.410156"/>
      </g>
     </g>
    </g>
   </g>
   <g id="matplotlib.axis_2">
    <g id="ytick_1">
     <g id="line2d_5">
      <defs>
       <path id="m6981ef4d67" d="M 0 0 
L -3.5 0 
" style="stroke: #000000; stroke-width: 0.8"/>
      </defs>
      <g>
       <use xlink:href="#m6981ef4d67" x="48.074375" y="260.521875" style="stroke: #000000; stroke-width: 0.8"/>
      </g>
     </g>
     <g id="text_5">
      <!-- 0 -->
      <g transform="translate(34.711875 264.321094) scale(0.1 -0.1)">
       <use xlink:href="#DejaVuSans-30"/>
      </g>
     </g>
    </g>
    <g id="ytick_2">
     <g id="line2d_6">
      <g>
       <use xlink:href="#m6981ef4d67" x="48.074375" y="220.823726" style="stroke: #000000; stroke-width: 0.8"/>
      </g>
     </g>
     <g id="text_6">
      <!-- 2 -->
      <g transform="translate(34.711875 224.622944) scale(0.1 -0.1)">
       <defs>
        <path id="DejaVuSans-32" d="M 1228 531 
L 3431 531 
L 3431 0 
L 469 0 
L 469 531 
Q 828 903 1448 1529 
Q 2069 2156 2228 2338 
Q 2531 2678 2651 2914 
Q 2772 3150 2772 3378 
Q 2772 3750 2511 3984 
Q 2250 4219 1831 4219 
Q 1534 4219 1204 4116 
Q 875 4013 500 3803 
L 500 4441 
Q 881 4594 1212 4672 
Q 1544 4750 1819 4750 
Q 2544 4750 2975 4387 
Q 3406 4025 3406 3419 
Q 3406 3131 3298 2873 
Q 3191 2616 2906 2266 
Q 2828 2175 2409 1742 
Q 1991 1309 1228 531 
z
" transform="scale(0.015625)"/>
       </defs>
       <use xlink:href="#DejaVuSans-32"/>
      </g>
     </g>
    </g>
    <g id="ytick_3">
     <g id="line2d_7">
      <g>
       <use xlink:href="#m6981ef4d67" x="48.074375" y="181.125576" style="stroke: #000000; stroke-width: 0.8"/>
      </g>
     </g>
     <g id="text_7">
      <!-- 4 -->
      <g transform="translate(34.711875 184.924795) scale(0.1 -0.1)">
       <defs>
        <path id="DejaVuSans-34" d="M 2419 4116 
L 825 1625 
L 2419 1625 
L 2419 4116 
z
M 2253 4666 
L 3047 4666 
L 3047 1625 
L 3713 1625 
L 3713 1100 
L 3047 1100 
L 3047 0 
L 2419 0 
L 2419 1100 
L 313 1100 
L 313 1709 
L 2253 4666 
z
" transform="scale(0.015625)"/>
       </defs>
       <use xlink:href="#DejaVuSans-34"/>
      </g>
     </g>
    </g>
    <g id="ytick_4">
     <g id="line2d_8">
      <g>
       <use xlink:href="#m6981ef4d67" x="48.074375" y="141.427427" style="stroke: #000000; stroke-width: 0.8"/>
      </g>
     </g>
     <g id="text_8">
      <!-- 6 -->
      <g transform="translate(34.711875 145.226645) scale(0.1 -0.1)">
       <use xlink:href="#DejaVuSans-36"/>
      </g>
     </g>
    </g>
    <g id="ytick_5">
     <g id="line2d_9">
      <g>
       <use xlink:href="#m6981ef4d67" x="48.074375" y="101.729277" style="stroke: #000000; stroke-width: 0.8"/>
      </g>
     </g>
     <g id="text_9">
      <!-- 8 -->
      <g transform="translate(34.711875 105.528496) scale(0.1 -0.1)">
       <use xlink:href="#DejaVuSans-38"/>
      </g>
     </g>
    </g>
    <g id="ytick_6">
     <g id="line2d_10">
      <g>
       <use xlink:href="#m6981ef4d67" x="48.074375" y="62.031128" style="stroke: #000000; stroke-width: 0.8"/>
      </g>
     </g>
     <g id="text_10">
      <!-- 10 -->
      <g transform="translate(28.349375 65.830346) scale(0.1 -0.1)">
       <defs>
        <path id="DejaVuSans-31" d="M 794 531 
L 1825 531 
L 1825 4091 
L 703 3866 
L 703 4441 
L 1819 4666 
L 2450 4666 
L 2450 531 
L 3481 531 
L 3481 0 
L 794 0 
L 794 531 
z
" transform="scale(0.015625)"/>
       </defs>
       <use xlink:href="#DejaVuSans-31"/>
       <use xlink:href="#DejaVuSans-30" x="63.623047"/>
      </g>
     </g>
    </g>
    <g id="text_11">
     <!-- Fraction of cells -->
     <g transform="translate(21.437813 198.811719) rotate(-90) scale(0.14 -0.14)">
      <defs>
       <path id="DejaVuSans-46" d="M 628 4666 
L 3309 4666 
L 3309 4134 
L 1259 4134 
L 1259 2759 
L 3109 2759 
L 3109 2228 
L 1259 2228 
L 1259 0 
L 628 0 
L 628 4666 
z
" transform="scale(0.015625)"/>
       <path id="DejaVuSans-72" d="M 2631 2963 
Q 2534 3019 2420 3045 
Q 2306 3072 2169 3072 
Q 1681 3072 1420 2755 
Q 1159 2438 1159 1844 
L 1159 0 
L 581 0 
L 581 3500 
L 1159 3500 
L 1159 2956 
Q 1341 3275 1631 3429 
Q 1922 3584 2338 3584 
Q 2397 3584 2469 3576 
Q 2541 3569 2628 3553 
L 2631 2963 
z
" transform="scale(0.015625)"/>
       <path id="DejaVuSans-61" d="M 2194 1759 
Q 1497 1759 1228 1600 
Q 959 1441 959 1056 
Q 959 750 1161 570 
Q 1363 391 1709 391 
Q 2188 391 2477 730 
Q 2766 1069 2766 1631 
L 2766 1759 
L 2194 1759 
z
M 3341 1997 
L 3341 0 
L 2766 0 
L 2766 531 
Q 2569 213 2275 61 
Q 1981 -91 1556 -91 
Q 1019 -91 701 211 
Q 384 513 384 1019 
Q 384 1609 779 1909 
Q 1175 2209 1959 2209 
L 2766 2209 
L 2766 2266 
Q 2766 2663 2505 2880 
Q 2244 3097 1772 3097 
Q 1472 3097 1187 3025 
Q 903 2953 641 2809 
L 641 3341 
Q 956 3463 1253 3523 
Q 1550 3584 1831 3584 
Q 2591 3584 2966 3190 
Q 3341 2797 3341 1997 
z
" transform="scale(0.015625)"/>
       <path id="DejaVuSans-63" d="M 3122 3366 
L 3122 2828 
Q 2878 2963 2633 3030 
Q 2388 3097 2138 3097 
Q 1578 3097 1268 2742 
Q 959 2388 959 1747 
Q 959 1106 1268 751 
Q 1578 397 2138 397 
Q 2388 397 2633 464 
Q 2878 531 3122 666 
L 3122 134 
Q 2881 22 2623 -34 
Q 2366 -91 2075 -91 
Q 1284 -91 818 406 
Q 353 903 353 1747 
Q 353 2603 823 3093 
Q 1294 3584 2113 3584 
Q 2378 3584 2631 3529 
Q 2884 3475 3122 3366 
z
" transform="scale(0.015625)"/>
       <path id="DejaVuSans-74" d="M 1172 4494 
L 1172 3500 
L 2356 3500 
L 2356 3053 
L 1172 3053 
L 1172 1153 
Q 1172 725 1289 603 
Q 1406 481 1766 481 
L 2356 481 
L 2356 0 
L 1766 0 
Q 1100 0 847 248 
Q 594 497 594 1153 
L 594 3053 
L 172 3053 
L 172 3500 
L 594 3500 
L 594 4494 
L 1172 4494 
z
" transform="scale(0.015625)"/>
       <path id="DejaVuSans-69" d="M 603 3500 
L 1178 3500 
L 1178 0 
L 603 0 
L 603 3500 
z
M 603 4863 
L 1178 4863 
L 1178 4134 
L 603 4134 
L 603 4863 
z
" transform="scale(0.015625)"/>
       <path id="DejaVuSans-6f" d="M 1959 3097 
Q 1497 3097 1228 2736 
Q 959 2375 959 1747 
Q 959 1119 1226 758 
Q 1494 397 1959 397 
Q 2419 397 2687 759 
Q 2956 1122 2956 1747 
Q 2956 2369 2687 2733 
Q 2419 3097 1959 3097 
z
M 1959 3584 
Q 2709 3584 3137 3096 
Q 3566 2609 3566 1747 
Q 3566 888 3137 398 
Q 2709 -91 1959 -91 
Q 1206 -91 779 398 
Q 353 888 353 1747 
Q 353 2609 779 3096 
Q 1206 3584 1959 3584 
z
" transform="scale(0.015625)"/>
       <path id="DejaVuSans-6e" d="M 3513 2113 
L 3513 0 
L 2938 0 
L 2938 2094 
Q 2938 2591 2744 2837 
Q 2550 3084 2163 3084 
Q 1697 3084 1428 2787 
Q 1159 2491 1159 1978 
L 1159 0 
L 581 0 
L 581 3500 
L 1159 3500 
L 1159 2956 
Q 1366 3272 1645 3428 
Q 1925 3584 2291 3584 
Q 2894 3584 3203 3211 
Q 3513 2838 3513 2113 
z
" transform="scale(0.015625)"/>
       <path id="DejaVuSans-20" transform="scale(0.015625)"/>
       <path id="DejaVuSans-66" d="M 2375 4863 
L 2375 4384 
L 1825 4384 
Q 1516 4384 1395 4259 
Q 1275 4134 1275 3809 
L 1275 3500 
L 2222 3500 
L 2222 3053 
L 1275 3053 
L 1275 0 
L 697 0 
L 697 3053 
L 147 3053 
L 147 3500 
L 697 3500 
L 697 3744 
Q 697 4328 969 4595 
Q 1241 4863 1831 4863 
L 2375 4863 
z
" transform="scale(0.015625)"/>
       <path id="DejaVuSans-65" d="M 3597 1894 
L 3597 1613 
L 953 1613 
Q 991 1019 1311 708 
Q 1631 397 2203 397 
Q 2534 397 2845 478 
Q 3156 559 3463 722 
L 3463 178 
Q 3153 47 2828 -22 
Q 2503 -91 2169 -91 
Q 1331 -91 842 396 
Q 353 884 353 1716 
Q 353 2575 817 3079 
Q 1281 3584 2069 3584 
Q 2775 3584 3186 3129 
Q 3597 2675 3597 1894 
z
M 3022 2063 
Q 3016 2534 2758 2815 
Q 2500 3097 2075 3097 
Q 1594 3097 1305 2825 
Q 1016 2553 972 2059 
L 3022 2063 
z
" transform="scale(0.015625)"/>
       <path id="DejaVuSans-6c" d="M 603 4863 
L 1178 4863 
L 1178 0 
L 603 0 
L 603 4863 
z
" transform="scale(0.015625)"/>
       <path id="DejaVuSans-73" d="M 2834 3397 
L 2834 2853 
Q 2591 2978 2328 3040 
Q 2066 3103 1784 3103 
Q 1356 3103 1142 2972 
Q 928 2841 928 2578 
Q 928 2378 1081 2264 
Q 1234 2150 1697 2047 
L 1894 2003 
Q 2506 1872 2764 1633 
Q 3022 1394 3022 966 
Q 3022 478 2636 193 
Q 2250 -91 1575 -91 
Q 1294 -91 989 -36 
Q 684 19 347 128 
L 347 722 
Q 666 556 975 473 
Q 1284 391 1588 391 
Q 1994 391 2212 530 
Q 2431 669 2431 922 
Q 2431 1156 2273 1281 
Q 2116 1406 1581 1522 
L 1381 1569 
Q 847 1681 609 1914 
Q 372 2147 372 2553 
Q 372 3047 722 3315 
Q 1072 3584 1716 3584 
Q 2034 3584 2315 3537 
Q 2597 3491 2834 3397 
z
" transform="scale(0.015625)"/>
      </defs>
      <use xlink:href="#DejaVuSans-46"/>
      <use xlink:href="#DejaVuSans-72" x="50.269531"/>
      <use xlink:href="#DejaVuSans-61" x="91.382812"/>
      <use xlink:href="#DejaVuSans-63" x="152.662109"/>
      <use xlink:href="#DejaVuSans-74" x="207.642578"/>
      <use xlink:href="#DejaVuSans-69" x="246.851562"/>
      <use xlink:href="#DejaVuSans-6f" x="274.634766"/>
      <use xlink:href="#DejaVuSans-6e" x="335.816406"/>
      <use xlink:href="#DejaVuSans-20" x="399.195312"/>
      <use xlink:href="#DejaVuSans-6f" x="430.982422"/>
      <use xlink:href="#DejaVuSans-66" x="492.164062"/>
      <use xlink:href="#DejaVuSans-20" x="527.369141"/>
      <use xlink:href="#DejaVuSans-63" x="559.15625"/>
      <use xlink:href="#DejaVuSans-65" x="614.136719"/>
      <use xlink:href="#DejaVuSans-6c" x="675.660156"/>
      <use xlink:href="#DejaVuSans-6c" x="703.443359"/>
      <use xlink:href="#DejaVuSans-73" x="731.226562"/>
     </g>
    </g>
   </g>
   <g id="line2d_11">
    <path d="M 47.941296 248.28749 
L 50.296374 245.975192 
L 52.913128 243.078508 
L 55.529881 239.839732 
L 58.40831 235.90016 
L 61.548414 231.197792 
L 65.211869 225.283385 
L 70.968727 215.480644 
L 76.46391 206.271129 
L 79.604014 201.416361 
L 82.220768 197.745766 
L 84.575846 194.810059 
L 86.669249 192.539726 
L 88.500976 190.842279 
L 90.332704 189.433598 
L 92.164431 188.327474 
L 93.734483 187.627415 
L 95.304535 187.159846 
L 96.874587 186.925499 
L 98.44464 186.922604 
L 100.014692 187.146937 
L 101.584744 187.5919 
L 103.154796 188.248643 
L 104.986523 189.267789 
L 106.818251 190.53954 
L 108.911654 192.271668 
L 111.266732 194.528066 
L 113.883485 197.34512 
L 117.285265 201.352687 
L 129.584007 216.190557 
L 132.462436 219.14542 
L 135.079189 221.508317 
L 137.434267 223.330859 
L 139.52767 224.685116 
L 141.621073 225.772599 
L 143.452801 226.495728 
L 145.284528 226.999652 
L 147.116256 227.281035 
L 148.947983 227.338933 
L 150.779711 227.174857 
L 152.611438 226.792844 
L 154.443166 226.199494 
L 156.536568 225.274497 
L 158.629971 224.103344 
L 160.985049 222.519138 
L 163.601803 220.471918 
L 166.741907 217.698087 
L 170.928713 213.652688 
L 179.302324 205.484688 
L 182.442429 202.76523 
L 185.059182 200.76255 
L 187.41426 199.206907 
L 189.769338 197.913123 
L 191.862741 196.999107 
L 193.956144 196.317055 
L 196.049547 195.872161 
L 198.14295 195.665879 
L 200.236353 195.696393 
L 202.329756 195.959145 
L 204.423158 196.447386 
L 206.516561 197.1527 
L 208.871639 198.19363 
L 211.226718 199.482143 
L 213.843471 201.184878 
L 216.460225 203.150877 
L 219.338654 205.588956 
L 222.478758 208.539038 
L 226.142213 212.301222 
L 230.590694 217.21655 
L 238.179279 226.018933 
L 244.721163 233.460634 
L 249.169644 238.174394 
L 252.833099 241.748209 
L 256.234879 244.776169 
L 259.636658 247.502653 
L 262.776763 249.743572 
L 265.916867 251.719654 
L 269.056971 253.436997 
L 272.197075 254.906704 
L 275.33718 256.144032 
L 278.738959 257.243914 
L 281.094037 257.872561 
L 281.094037 257.872561 
" clip-path="url(#p7de445b499)" style="fill: none; stroke: #1f77b4; stroke-width: 1.5; stroke-linecap: square"/>
   </g>
   <g id="line2d_12">
    <path d="M 47.941296 260.521637 
L 68.351974 260.410855 
L 74.108831 260.158751 
L 78.557313 259.752784 
L 82.744118 259.155473 
L 88.500976 258.076806 
L 93.734483 257.155915 
L 96.874587 256.816466 
L 99.753016 256.722585 
L 102.631445 256.854306 
L 105.771549 257.22729 
L 109.958355 257.967367 
L 117.808616 259.387838 
L 121.995421 259.883562 
L 125.920552 260.129282 
L 130.107358 260.165834 
L 134.294163 259.971691 
L 138.219294 259.570108 
L 142.406099 258.913526 
L 148.424632 257.707443 
L 154.443166 256.574216 
L 165.695206 254.665403 
L 167.788609 253.964498 
L 169.620336 253.141536 
L 171.452064 252.085747 
L 173.283791 250.771657 
L 175.115519 249.185882 
L 176.947246 247.328301 
L 179.040649 244.889811 
L 181.395727 241.79119 
L 184.274156 237.604417 
L 188.460962 231.059605 
L 196.311222 218.747229 
L 206.516561 203.076598 
L 209.133315 198.491798 
L 211.488393 193.919393 
L 213.843471 188.824761 
L 216.198549 183.137834 
L 218.553628 176.823999 
L 221.170381 169.088979 
L 224.04881 159.824475 
L 228.758966 143.716969 
L 232.422421 131.495649 
L 234.7775 124.376126 
L 236.609227 119.467922 
L 238.179279 115.797443 
L 239.749331 112.681631 
L 241.057708 110.536305 
L 242.366085 108.813978 
L 243.412786 107.742898 
L 244.459488 106.942437 
L 245.506189 106.407802 
L 246.552891 106.132065 
L 247.599592 106.106789 
L 248.646293 106.322658 
L 249.692995 106.770097 
L 250.739696 107.439838 
L 252.048073 108.576818 
L 253.35645 110.034048 
L 254.664827 111.801093 
L 256.234879 114.321243 
L 257.804931 117.272604 
L 259.636658 121.260541 
L 261.468386 125.837825 
L 263.300113 131.004429 
L 265.393516 137.617849 
L 267.486919 144.949641 
L 269.841997 153.968462 
L 272.720426 165.884102 
L 277.168907 185.391455 
L 281.094037 202.531133 
L 281.094037 202.531133 
" clip-path="url(#p7de445b499)" style="fill: none; stroke: #ff7f0e; stroke-width: 1.5; stroke-linecap: square"/>
   </g>
   <g id="line2d_13">
    <path d="M 47.941296 260.521875 
L 114.668512 260.418145 
L 118.855317 260.179413 
L 121.733746 259.814246 
L 124.088824 259.311375 
L 126.182227 258.652276 
L 128.27563 257.746502 
L 130.107358 256.724765 
L 132.20076 255.283707 
L 134.294163 253.569149 
L 136.910917 251.132637 
L 142.667775 245.65631 
L 144.761177 244.028555 
L 146.592905 242.873141 
L 148.424632 241.959607 
L 151.303061 240.821316 
L 153.658139 239.80475 
L 155.228192 238.85625 
L 156.536568 237.783699 
L 157.844945 236.375543 
L 159.153322 234.569883 
L 160.461699 232.322276 
L 161.770075 229.610046 
L 163.340128 225.746225 
L 164.91018 221.267213 
L 167.003583 214.511493 
L 169.882011 204.331031 
L 174.330493 188.579937 
L 176.947246 180.190044 
L 179.302324 173.36936 
L 181.919078 166.451079 
L 191.339391 142.243675 
L 194.74117 132.392356 
L 201.021379 113.904781 
L 202.853106 109.240011 
L 204.423158 105.831874 
L 205.731535 103.521017 
L 206.778237 102.071319 
L 207.824938 101.006971 
L 208.609964 100.472769 
L 209.39499 100.169029 
L 210.180016 100.095376 
L 210.965042 100.247586 
L 211.750068 100.617674 
L 212.79677 101.429677 
L 213.843471 102.572388 
L 215.151848 104.399085 
L 216.7219 107.049407 
L 218.815303 111.091994 
L 222.478758 118.754398 
L 225.880537 126.254519 
L 227.97394 131.369764 
L 229.805668 136.445857 
L 231.37572 141.395303 
L 233.207447 147.977114 
L 235.039175 155.450535 
L 237.132578 164.962644 
L 240.272682 180.483198 
L 244.459488 201.148512 
L 246.814566 211.58702 
L 248.646293 218.770458 
L 250.478021 225.044705 
L 252.048073 229.699747 
L 253.618125 233.728986 
L 255.188177 237.198001 
L 256.758229 240.186448 
L 258.589957 243.176636 
L 260.421684 245.748856 
L 262.515087 248.304296 
L 264.870165 250.809366 
L 267.225244 252.993728 
L 269.580322 254.877207 
L 271.673725 256.293801 
L 273.767127 257.462922 
L 275.86053 258.389896 
L 277.953933 259.093267 
L 280.309011 259.654703 
L 281.094037 259.796215 
L 281.094037 259.796215 
" clip-path="url(#p7de445b499)" style="fill: none; stroke: #2ca02c; stroke-width: 1.5; stroke-linecap: square"/>
   </g>
   <g id="patch_63">
    <path d="M 48.074375 260.521875 
L 48.074375 27.437812 
" style="fill: none; stroke: #000000; stroke-width: 0.8; stroke-linejoin: miter; stroke-linecap: square"/>
   </g>
   <g id="patch_64">
    <path d="M 281.010937 260.521875 
L 281.010937 27.437812 
" style="fill: none; stroke: #000000; stroke-width: 0.8; stroke-linejoin: miter; stroke-linecap: square"/>
   </g>
   <g id="patch_65">
    <path d="M 48.074375 260.521875 
L 281.010937 260.521875 
" style="fill: none; stroke: #000000; stroke-width: 0.8; stroke-linejoin: miter; stroke-linecap: square"/>
   </g>
   <g id="patch_66">
    <path d="M 48.074375 27.437812 
L 281.010937 27.437812 
" style="fill: none; stroke: #000000; stroke-width: 0.8; stroke-linejoin: miter; stroke-linecap: square"/>
   </g>
   <g id="text_12">
    <!-- SRV -->
    <g transform="translate(150.831406 21.437813) scale(0.14 -0.14)">
     <defs>
      <path id="DejaVuSans-53" d="M 3425 4513 
L 3425 3897 
Q 3066 4069 2747 4153 
Q 2428 4238 2131 4238 
Q 1616 4238 1336 4038 
Q 1056 3838 1056 3469 
Q 1056 3159 1242 3001 
Q 1428 2844 1947 2747 
L 2328 2669 
Q 3034 2534 3370 2195 
Q 3706 1856 3706 1288 
Q 3706 609 3251 259 
Q 2797 -91 1919 -91 
Q 1588 -91 1214 -16 
Q 841 59 441 206 
L 441 856 
Q 825 641 1194 531 
Q 1563 422 1919 422 
Q 2459 422 2753 634 
Q 3047 847 3047 1241 
Q 3047 1584 2836 1778 
Q 2625 1972 2144 2069 
L 1759 2144 
Q 1053 2284 737 2584 
Q 422 2884 422 3419 
Q 422 4038 858 4394 
Q 1294 4750 2059 4750 
Q 2388 4750 2728 4690 
Q 3069 4631 3425 4513 
z
" transform="scale(0.015625)"/>
      <path id="DejaVuSans-52" d="M 2841 2188 
Q 3044 2119 3236 1894 
Q 3428 1669 3622 1275 
L 4263 0 
L 3584 0 
L 2988 1197 
Q 2756 1666 2539 1819 
Q 2322 1972 1947 1972 
L 1259 1972 
L 1259 0 
L 628 0 
L 628 4666 
L 2053 4666 
Q 2853 4666 3247 4331 
Q 3641 3997 3641 3322 
Q 3641 2881 3436 2590 
Q 3231 2300 2841 2188 
z
M 1259 4147 
L 1259 2491 
L 2053 2491 
Q 2509 2491 2742 2702 
Q 2975 2913 2975 3322 
Q 2975 3731 2742 3939 
Q 2509 4147 2053 4147 
L 1259 4147 
z
" transform="scale(0.015625)"/>
      <path id="DejaVuSans-56" d="M 1831 0 
L 50 4666 
L 709 4666 
L 2188 738 
L 3669 4666 
L 4325 4666 
L 2547 0 
L 1831 0 
z
" transform="scale(0.015625)"/>
     </defs>
     <use xlink:href="#DejaVuSans-53"/>
     <use xlink:href="#DejaVuSans-52" x="63.476562"/>
     <use xlink:href="#DejaVuSans-56" x="127.458984"/>
    </g>
   </g>
   <g id="legend_1">
    <g id="patch_67">
     <path d="M 56.474375 89.879062 
L 136.46375 89.879062 
Q 138.86375 89.879062 138.86375 87.479062 
L 138.86375 35.837812 
Q 138.86375 33.437812 136.46375 33.437812 
L 56.474375 33.437812 
Q 54.074375 33.437812 54.074375 35.837812 
L 54.074375 87.479062 
Q 54.074375 89.879062 56.474375 89.879062 
z
" style="fill: #ffffff; opacity: 0.8; stroke: #cccccc; stroke-linejoin: miter"/>
    </g>
    <g id="patch_68">
     <path d="M 58.874375 47.355937 
L 82.874375 47.355937 
L 82.874375 38.955937 
L 58.874375 38.955937 
z
" style="fill: #1f77b4; opacity: 0.4"/>
    </g>
    <g id="text_13">
     <!-- control -->
     <g transform="translate(92.474375 47.355937) scale(0.12 -0.12)">
      <use xlink:href="#DejaVuSans-63"/>
      <use xlink:href="#DejaVuSans-6f" x="54.980469"/>
      <use xlink:href="#DejaVuSans-6e" x="116.162109"/>
      <use xlink:href="#DejaVuSans-74" x="179.541016"/>
      <use xlink:href="#DejaVuSans-72" x="218.75"/>
      <use xlink:href="#DejaVuSans-6f" x="257.613281"/>
      <use xlink:href="#DejaVuSans-6c" x="318.794922"/>
     </g>
    </g>
    <g id="patch_69">
     <path d="M 58.874375 64.969687 
L 82.874375 64.969687 
L 82.874375 56.569687 
L 58.874375 56.569687 
z
" style="fill: #ff7f0e; opacity: 0.4"/>
    </g>
    <g id="text_14">
     <!-- cytd -->
     <g transform="translate(92.474375 64.969687) scale(0.12 -0.12)">
      <defs>
       <path id="DejaVuSans-79" d="M 2059 -325 
Q 1816 -950 1584 -1140 
Q 1353 -1331 966 -1331 
L 506 -1331 
L 506 -850 
L 844 -850 
Q 1081 -850 1212 -737 
Q 1344 -625 1503 -206 
L 1606 56 
L 191 3500 
L 800 3500 
L 1894 763 
L 2988 3500 
L 3597 3500 
L 2059 -325 
z
" transform="scale(0.015625)"/>
       <path id="DejaVuSans-64" d="M 2906 2969 
L 2906 4863 
L 3481 4863 
L 3481 0 
L 2906 0 
L 2906 525 
Q 2725 213 2448 61 
Q 2172 -91 1784 -91 
Q 1150 -91 751 415 
Q 353 922 353 1747 
Q 353 2572 751 3078 
Q 1150 3584 1784 3584 
Q 2172 3584 2448 3432 
Q 2725 3281 2906 2969 
z
M 947 1747 
Q 947 1113 1208 752 
Q 1469 391 1925 391 
Q 2381 391 2643 752 
Q 2906 1113 2906 1747 
Q 2906 2381 2643 2742 
Q 2381 3103 1925 3103 
Q 1469 3103 1208 2742 
Q 947 2381 947 1747 
z
" transform="scale(0.015625)"/>
      </defs>
      <use xlink:href="#DejaVuSans-63"/>
      <use xlink:href="#DejaVuSans-79" x="54.980469"/>
      <use xlink:href="#DejaVuSans-74" x="114.160156"/>
      <use xlink:href="#DejaVuSans-64" x="153.369141"/>
     </g>
    </g>
    <g id="patch_70">
     <path d="M 58.874375 82.583437 
L 82.874375 82.583437 
L 82.874375 74.183437 
L 58.874375 74.183437 
z
" style="fill: #2ca02c; opacity: 0.4"/>
    </g>
    <g id="text_15">
     <!-- jasp -->
     <g transform="translate(92.474375 82.583437) scale(0.12 -0.12)">
      <defs>
       <path id="DejaVuSans-6a" d="M 603 3500 
L 1178 3500 
L 1178 -63 
Q 1178 -731 923 -1031 
Q 669 -1331 103 -1331 
L -116 -1331 
L -116 -844 
L 38 -844 
Q 366 -844 484 -692 
Q 603 -541 603 -63 
L 603 3500 
z
M 603 4863 
L 1178 4863 
L 1178 4134 
L 603 4134 
L 603 4863 
z
" transform="scale(0.015625)"/>
       <path id="DejaVuSans-70" d="M 1159 525 
L 1159 -1331 
L 581 -1331 
L 581 3500 
L 1159 3500 
L 1159 2969 
Q 1341 3281 1617 3432 
Q 1894 3584 2278 3584 
Q 2916 3584 3314 3078 
Q 3713 2572 3713 1747 
Q 3713 922 3314 415 
Q 2916 -91 2278 -91 
Q 1894 -91 1617 61 
Q 1341 213 1159 525 
z
M 3116 1747 
Q 3116 2381 2855 2742 
Q 2594 3103 2138 3103 
Q 1681 3103 1420 2742 
Q 1159 2381 1159 1747 
Q 1159 1113 1420 752 
Q 1681 391 2138 391 
Q 2594 391 2855 752 
Q 3116 1113 3116 1747 
z
" transform="scale(0.015625)"/>
      </defs>
      <use xlink:href="#DejaVuSans-6a"/>
      <use xlink:href="#DejaVuSans-61" x="27.783203"/>
      <use xlink:href="#DejaVuSans-73" x="89.0625"/>
      <use xlink:href="#DejaVuSans-70" x="141.162109"/>
     </g>
    </g>
   </g>
  </g>
  <g id="axes_2">
   <g id="patch_71">
    <path d="M 332.263437 260.521875 
L 565.2 260.521875 
L 565.2 27.437812 
L 332.263437 27.437812 
z
" style="fill: #ffffff"/>
   </g>
   <g id="patch_72">
    <path d="M 332.263437 260.521875 
L 340.827374 260.521875 
L 340.827374 254.364298 
L 332.263437 254.364298 
z
" clip-path="url(#pf0bf14146a)" style="fill: #1f77b4; opacity: 0.4"/>
   </g>
   <g id="patch_73">
    <path d="M 340.827374 260.521875 
L 349.391311 260.521875 
L 349.391311 229.733992 
L 340.827374 229.733992 
z
" clip-path="url(#pf0bf14146a)" style="fill: #1f77b4; opacity: 0.4"/>
   </g>
   <g id="patch_74">
    <path d="M 349.391311 260.521875 
L 357.955248 260.521875 
L 357.955248 242.049145 
L 349.391311 242.049145 
z
" clip-path="url(#pf0bf14146a)" style="fill: #1f77b4; opacity: 0.4"/>
   </g>
   <g id="patch_75">
    <path d="M 357.955248 260.521875 
L 366.519185 260.521875 
L 366.519185 229.733992 
L 357.955248 229.733992 
z
" clip-path="url(#pf0bf14146a)" style="fill: #1f77b4; opacity: 0.4"/>
   </g>
   <g id="patch_76">
    <path d="M 366.519185 260.521875 
L 375.083122 260.521875 
L 375.083122 242.049145 
L 366.519185 242.049145 
z
" clip-path="url(#pf0bf14146a)" style="fill: #1f77b4; opacity: 0.4"/>
   </g>
   <g id="patch_77">
    <path d="M 375.083122 260.521875 
L 383.647059 260.521875 
L 383.647059 180.47338 
L 375.083122 180.47338 
z
" clip-path="url(#pf0bf14146a)" style="fill: #1f77b4; opacity: 0.4"/>
   </g>
   <g id="patch_78">
    <path d="M 383.647059 260.521875 
L 392.210996 260.521875 
L 392.210996 186.630956 
L 383.647059 186.630956 
z
" clip-path="url(#pf0bf14146a)" style="fill: #1f77b4; opacity: 0.4"/>
   </g>
   <g id="patch_79">
    <path d="M 392.210996 260.521875 
L 400.774933 260.521875 
L 400.774933 217.418839 
L 392.210996 217.418839 
z
" clip-path="url(#pf0bf14146a)" style="fill: #1f77b4; opacity: 0.4"/>
   </g>
   <g id="patch_80">
    <path d="M 400.774933 260.521875 
L 409.33887 260.521875 
L 409.33887 149.685497 
L 400.774933 149.685497 
z
" clip-path="url(#pf0bf14146a)" style="fill: #1f77b4; opacity: 0.4"/>
   </g>
   <g id="patch_81">
    <path d="M 409.33887 260.521875 
L 417.902807 260.521875 
L 417.902807 198.946109 
L 409.33887 198.946109 
z
" clip-path="url(#pf0bf14146a)" style="fill: #1f77b4; opacity: 0.4"/>
   </g>
   <g id="patch_82">
    <path d="M 417.902807 260.521875 
L 426.466743 260.521875 
L 426.466743 149.685497 
L 417.902807 149.685497 
z
" clip-path="url(#pf0bf14146a)" style="fill: #1f77b4; opacity: 0.4"/>
   </g>
   <g id="patch_83">
    <path d="M 426.466743 260.521875 
L 435.03068 260.521875 
L 435.03068 198.946109 
L 426.466743 198.946109 
z
" clip-path="url(#pf0bf14146a)" style="fill: #1f77b4; opacity: 0.4"/>
   </g>
   <g id="patch_84">
    <path d="M 435.03068 260.521875 
L 443.594617 260.521875 
L 443.594617 149.685497 
L 435.03068 149.685497 
z
" clip-path="url(#pf0bf14146a)" style="fill: #1f77b4; opacity: 0.4"/>
   </g>
   <g id="patch_85">
    <path d="M 443.594617 260.521875 
L 452.158554 260.521875 
L 452.158554 131.212767 
L 443.594617 131.212767 
z
" clip-path="url(#pf0bf14146a)" style="fill: #1f77b4; opacity: 0.4"/>
   </g>
   <g id="patch_86">
    <path d="M 452.158554 260.521875 
L 460.722491 260.521875 
L 460.722491 192.788533 
L 452.158554 192.788533 
z
" clip-path="url(#pf0bf14146a)" style="fill: #1f77b4; opacity: 0.4"/>
   </g>
   <g id="patch_87">
    <path d="M 460.722491 260.521875 
L 469.286428 260.521875 
L 469.286428 168.158227 
L 460.722491 168.158227 
z
" clip-path="url(#pf0bf14146a)" style="fill: #1f77b4; opacity: 0.4"/>
   </g>
   <g id="patch_88">
    <path d="M 469.286428 260.521875 
L 477.850365 260.521875 
L 477.850365 205.103686 
L 469.286428 205.103686 
z
" clip-path="url(#pf0bf14146a)" style="fill: #1f77b4; opacity: 0.4"/>
   </g>
   <g id="patch_89">
    <path d="M 477.850365 260.521875 
L 486.414302 260.521875 
L 486.414302 211.261263 
L 477.850365 211.261263 
z
" clip-path="url(#pf0bf14146a)" style="fill: #1f77b4; opacity: 0.4"/>
   </g>
   <g id="patch_90">
    <path d="M 486.414302 260.521875 
L 494.978239 260.521875 
L 494.978239 192.788533 
L 486.414302 192.788533 
z
" clip-path="url(#pf0bf14146a)" style="fill: #1f77b4; opacity: 0.4"/>
   </g>
   <g id="patch_91">
    <path d="M 494.978239 260.521875 
L 503.542176 260.521875 
L 503.542176 235.891569 
L 494.978239 235.891569 
z
" clip-path="url(#pf0bf14146a)" style="fill: #1f77b4; opacity: 0.4"/>
   </g>
   <g id="patch_92">
    <path d="M 336.380563 260.521875 
L 343.604209 260.521875 
L 343.604209 149.529464 
L 336.380563 149.529464 
z
" clip-path="url(#pf0bf14146a)" style="fill: #ff7f0e; opacity: 0.4"/>
   </g>
   <g id="patch_93">
    <path d="M 343.604209 260.521875 
L 350.827855 260.521875 
L 350.827855 86.10523 
L 343.604209 86.10523 
z
" clip-path="url(#pf0bf14146a)" style="fill: #ff7f0e; opacity: 0.4"/>
   </g>
   <g id="patch_94">
    <path d="M 350.827855 260.521875 
L 358.051501 260.521875 
L 358.051501 117.817347 
L 350.827855 117.817347 
z
" clip-path="url(#pf0bf14146a)" style="fill: #ff7f0e; opacity: 0.4"/>
   </g>
   <g id="patch_95">
    <path d="M 358.051501 260.521875 
L 365.275147 260.521875 
L 365.275147 133.673406 
L 358.051501 133.673406 
z
" clip-path="url(#pf0bf14146a)" style="fill: #ff7f0e; opacity: 0.4"/>
   </g>
   <g id="patch_96">
    <path d="M 365.275147 260.521875 
L 372.498793 260.521875 
L 372.498793 54.393112 
L 365.275147 54.393112 
z
" clip-path="url(#pf0bf14146a)" style="fill: #ff7f0e; opacity: 0.4"/>
   </g>
   <g id="patch_97">
    <path d="M 372.498793 260.521875 
L 379.722439 260.521875 
L 379.722439 38.537054 
L 372.498793 38.537054 
z
" clip-path="url(#pf0bf14146a)" style="fill: #ff7f0e; opacity: 0.4"/>
   </g>
   <g id="patch_98">
    <path d="M 379.722439 260.521875 
L 386.946085 260.521875 
L 386.946085 117.817347 
L 379.722439 117.817347 
z
" clip-path="url(#pf0bf14146a)" style="fill: #ff7f0e; opacity: 0.4"/>
   </g>
   <g id="patch_99">
    <path d="M 386.946085 260.521875 
L 394.169731 260.521875 
L 394.169731 165.385523 
L 386.946085 165.385523 
z
" clip-path="url(#pf0bf14146a)" style="fill: #ff7f0e; opacity: 0.4"/>
   </g>
   <g id="patch_100">
    <path d="M 394.169731 260.521875 
L 401.393377 260.521875 
L 401.393377 149.529464 
L 394.169731 149.529464 
z
" clip-path="url(#pf0bf14146a)" style="fill: #ff7f0e; opacity: 0.4"/>
   </g>
   <g id="patch_101">
    <path d="M 401.393377 260.521875 
L 408.617023 260.521875 
L 408.617023 228.809758 
L 401.393377 228.809758 
z
" clip-path="url(#pf0bf14146a)" style="fill: #ff7f0e; opacity: 0.4"/>
   </g>
   <g id="patch_102">
    <path d="M 408.617023 260.521875 
L 415.840669 260.521875 
L 415.840669 244.665816 
L 408.617023 244.665816 
z
" clip-path="url(#pf0bf14146a)" style="fill: #ff7f0e; opacity: 0.4"/>
   </g>
   <g id="patch_103">
    <path d="M 415.840669 260.521875 
L 423.064315 260.521875 
L 423.064315 244.665816 
L 415.840669 244.665816 
z
" clip-path="url(#pf0bf14146a)" style="fill: #ff7f0e; opacity: 0.4"/>
   </g>
   <g id="patch_104">
    <path d="M 423.064315 260.521875 
L 430.287961 260.521875 
L 430.287961 228.809758 
L 423.064315 228.809758 
z
" clip-path="url(#pf0bf14146a)" style="fill: #ff7f0e; opacity: 0.4"/>
   </g>
   <g id="patch_105">
    <path d="M 430.287961 260.521875 
L 437.511607 260.521875 
L 437.511607 260.521875 
L 430.287961 260.521875 
z
" clip-path="url(#pf0bf14146a)" style="fill: #ff7f0e; opacity: 0.4"/>
   </g>
   <g id="patch_106">
    <path d="M 437.511607 260.521875 
L 444.735253 260.521875 
L 444.735253 260.521875 
L 437.511607 260.521875 
z
" clip-path="url(#pf0bf14146a)" style="fill: #ff7f0e; opacity: 0.4"/>
   </g>
   <g id="patch_107">
    <path d="M 444.735253 260.521875 
L 451.958899 260.521875 
L 451.958899 244.665816 
L 444.735253 244.665816 
z
" clip-path="url(#pf0bf14146a)" style="fill: #ff7f0e; opacity: 0.4"/>
   </g>
   <g id="patch_108">
    <path d="M 451.958899 260.521875 
L 459.182545 260.521875 
L 459.182545 260.521875 
L 451.958899 260.521875 
z
" clip-path="url(#pf0bf14146a)" style="fill: #ff7f0e; opacity: 0.4"/>
   </g>
   <g id="patch_109">
    <path d="M 459.182545 260.521875 
L 466.406191 260.521875 
L 466.406191 244.665816 
L 459.182545 244.665816 
z
" clip-path="url(#pf0bf14146a)" style="fill: #ff7f0e; opacity: 0.4"/>
   </g>
   <g id="patch_110">
    <path d="M 466.406191 260.521875 
L 473.629837 260.521875 
L 473.629837 260.521875 
L 466.406191 260.521875 
z
" clip-path="url(#pf0bf14146a)" style="fill: #ff7f0e; opacity: 0.4"/>
   </g>
   <g id="patch_111">
    <path d="M 473.629837 260.521875 
L 480.853483 260.521875 
L 480.853483 244.665816 
L 473.629837 244.665816 
z
" clip-path="url(#pf0bf14146a)" style="fill: #ff7f0e; opacity: 0.4"/>
   </g>
   <g id="patch_112">
    <path d="M 335.274964 260.521875 
L 343.047903 260.521875 
L 343.047903 231.671214 
L 335.274964 231.671214 
z
" clip-path="url(#pf0bf14146a)" style="fill: #2ca02c; opacity: 0.4"/>
   </g>
   <g id="patch_113">
    <path d="M 343.047903 260.521875 
L 350.820843 260.521875 
L 350.820843 231.671214 
L 343.047903 231.671214 
z
" clip-path="url(#pf0bf14146a)" style="fill: #2ca02c; opacity: 0.4"/>
   </g>
   <g id="patch_114">
    <path d="M 350.820843 260.521875 
L 358.593782 260.521875 
L 358.593782 173.969892 
L 350.820843 173.969892 
z
" clip-path="url(#pf0bf14146a)" style="fill: #2ca02c; opacity: 0.4"/>
   </g>
   <g id="patch_115">
    <path d="M 358.593782 260.521875 
L 366.366721 260.521875 
L 366.366721 145.119231 
L 358.593782 145.119231 
z
" clip-path="url(#pf0bf14146a)" style="fill: #2ca02c; opacity: 0.4"/>
   </g>
   <g id="patch_116">
    <path d="M 366.366721 260.521875 
L 374.13966 260.521875 
L 374.13966 202.820553 
L 366.366721 202.820553 
z
" clip-path="url(#pf0bf14146a)" style="fill: #2ca02c; opacity: 0.4"/>
   </g>
   <g id="patch_117">
    <path d="M 374.13966 260.521875 
L 381.912599 260.521875 
L 381.912599 159.544562 
L 374.13966 159.544562 
z
" clip-path="url(#pf0bf14146a)" style="fill: #2ca02c; opacity: 0.4"/>
   </g>
   <g id="patch_118">
    <path d="M 381.912599 260.521875 
L 389.685539 260.521875 
L 389.685539 159.544562 
L 381.912599 159.544562 
z
" clip-path="url(#pf0bf14146a)" style="fill: #2ca02c; opacity: 0.4"/>
   </g>
   <g id="patch_119">
    <path d="M 389.685539 260.521875 
L 397.458478 260.521875 
L 397.458478 72.992579 
L 389.685539 72.992579 
z
" clip-path="url(#pf0bf14146a)" style="fill: #2ca02c; opacity: 0.4"/>
   </g>
   <g id="patch_120">
    <path d="M 397.458478 260.521875 
L 405.231417 260.521875 
L 405.231417 72.992579 
L 397.458478 72.992579 
z
" clip-path="url(#pf0bf14146a)" style="fill: #2ca02c; opacity: 0.4"/>
   </g>
   <g id="patch_121">
    <path d="M 405.231417 260.521875 
L 413.004356 260.521875 
L 413.004356 188.395223 
L 405.231417 188.395223 
z
" clip-path="url(#pf0bf14146a)" style="fill: #2ca02c; opacity: 0.4"/>
   </g>
   <g id="patch_122">
    <path d="M 413.004356 260.521875 
L 420.777295 260.521875 
L 420.777295 188.395223 
L 413.004356 188.395223 
z
" clip-path="url(#pf0bf14146a)" style="fill: #2ca02c; opacity: 0.4"/>
   </g>
   <g id="patch_123">
    <path d="M 420.777295 260.521875 
L 428.550235 260.521875 
L 428.550235 188.395223 
L 420.777295 188.395223 
z
" clip-path="url(#pf0bf14146a)" style="fill: #2ca02c; opacity: 0.4"/>
   </g>
   <g id="patch_124">
    <path d="M 428.550235 260.521875 
L 436.323174 260.521875 
L 436.323174 202.820553 
L 428.550235 202.820553 
z
" clip-path="url(#pf0bf14146a)" style="fill: #2ca02c; opacity: 0.4"/>
   </g>
   <g id="patch_125">
    <path d="M 436.323174 260.521875 
L 444.096113 260.521875 
L 444.096113 188.395223 
L 436.323174 188.395223 
z
" clip-path="url(#pf0bf14146a)" style="fill: #2ca02c; opacity: 0.4"/>
   </g>
   <g id="patch_126">
    <path d="M 444.096113 260.521875 
L 451.869052 260.521875 
L 451.869052 231.671214 
L 444.096113 231.671214 
z
" clip-path="url(#pf0bf14146a)" style="fill: #2ca02c; opacity: 0.4"/>
   </g>
   <g id="patch_127">
    <path d="M 451.869052 260.521875 
L 459.641991 260.521875 
L 459.641991 202.820553 
L 451.869052 202.820553 
z
" clip-path="url(#pf0bf14146a)" style="fill: #2ca02c; opacity: 0.4"/>
   </g>
   <g id="patch_128">
    <path d="M 459.641991 260.521875 
L 467.414931 260.521875 
L 467.414931 231.671214 
L 459.641991 231.671214 
z
" clip-path="url(#pf0bf14146a)" style="fill: #2ca02c; opacity: 0.4"/>
   </g>
   <g id="patch_129">
    <path d="M 467.414931 260.521875 
L 475.18787 260.521875 
L 475.18787 260.521875 
L 467.414931 260.521875 
z
" clip-path="url(#pf0bf14146a)" style="fill: #2ca02c; opacity: 0.4"/>
   </g>
   <g id="patch_130">
    <path d="M 475.18787 260.521875 
L 482.960809 260.521875 
L 482.960809 260.521875 
L 475.18787 260.521875 
z
" clip-path="url(#pf0bf14146a)" style="fill: #2ca02c; opacity: 0.4"/>
   </g>
   <g id="patch_131">
    <path d="M 482.960809 260.521875 
L 490.733748 260.521875 
L 490.733748 246.096545 
L 482.960809 246.096545 
z
" clip-path="url(#pf0bf14146a)" style="fill: #2ca02c; opacity: 0.4"/>
   </g>
   <g id="matplotlib.axis_3">
    <g id="xtick_5">
     <g id="line2d_14">
      <g>
       <use xlink:href="#m76abc6fb37" x="344.82444" y="260.521875" style="stroke: #000000; stroke-width: 0.8"/>
      </g>
     </g>
     <g id="text_16">
      <!-- 3 -->
      <g transform="translate(341.64319 275.120313) scale(0.1 -0.1)">
       <defs>
        <path id="DejaVuSans-33" d="M 2597 2516 
Q 3050 2419 3304 2112 
Q 3559 1806 3559 1356 
Q 3559 666 3084 287 
Q 2609 -91 1734 -91 
Q 1441 -91 1130 -33 
Q 819 25 488 141 
L 488 750 
Q 750 597 1062 519 
Q 1375 441 1716 441 
Q 2309 441 2620 675 
Q 2931 909 2931 1356 
Q 2931 1769 2642 2001 
Q 2353 2234 1838 2234 
L 1294 2234 
L 1294 2753 
L 1863 2753 
Q 2328 2753 2575 2939 
Q 2822 3125 2822 3475 
Q 2822 3834 2567 4026 
Q 2313 4219 1838 4219 
Q 1578 4219 1281 4162 
Q 984 4106 628 3988 
L 628 4550 
Q 988 4650 1302 4700 
Q 1616 4750 1894 4750 
Q 2613 4750 3031 4423 
Q 3450 4097 3450 3541 
Q 3450 3153 3228 2886 
Q 3006 2619 2597 2516 
z
" transform="scale(0.015625)"/>
       </defs>
       <use xlink:href="#DejaVuSans-33"/>
      </g>
     </g>
    </g>
    <g id="xtick_6">
     <g id="line2d_15">
      <g>
       <use xlink:href="#m76abc6fb37" x="387.115349" y="260.521875" style="stroke: #000000; stroke-width: 0.8"/>
      </g>
     </g>
     <g id="text_17">
      <!-- 4 -->
      <g transform="translate(383.934099 275.120313) scale(0.1 -0.1)">
       <use xlink:href="#DejaVuSans-34"/>
      </g>
     </g>
    </g>
    <g id="xtick_7">
     <g id="line2d_16">
      <g>
       <use xlink:href="#m76abc6fb37" x="429.406259" y="260.521875" style="stroke: #000000; stroke-width: 0.8"/>
      </g>
     </g>
     <g id="text_18">
      <!-- 5 -->
      <g transform="translate(426.225009 275.120313) scale(0.1 -0.1)">
       <defs>
        <path id="DejaVuSans-35" d="M 691 4666 
L 3169 4666 
L 3169 4134 
L 1269 4134 
L 1269 2991 
Q 1406 3038 1543 3061 
Q 1681 3084 1819 3084 
Q 2600 3084 3056 2656 
Q 3513 2228 3513 1497 
Q 3513 744 3044 326 
Q 2575 -91 1722 -91 
Q 1428 -91 1123 -41 
Q 819 9 494 109 
L 494 744 
Q 775 591 1075 516 
Q 1375 441 1709 441 
Q 2250 441 2565 725 
Q 2881 1009 2881 1497 
Q 2881 1984 2565 2268 
Q 2250 2553 1709 2553 
Q 1456 2553 1204 2497 
Q 953 2441 691 2322 
L 691 4666 
z
" transform="scale(0.015625)"/>
       </defs>
       <use xlink:href="#DejaVuSans-35"/>
      </g>
     </g>
    </g>
    <g id="xtick_8">
     <g id="line2d_17">
      <g>
       <use xlink:href="#m76abc6fb37" x="471.697168" y="260.521875" style="stroke: #000000; stroke-width: 0.8"/>
      </g>
     </g>
     <g id="text_19">
      <!-- 6 -->
      <g transform="translate(468.515918 275.120313) scale(0.1 -0.1)">
       <use xlink:href="#DejaVuSans-36"/>
      </g>
     </g>
    </g>
    <g id="xtick_9">
     <g id="line2d_18">
      <g>
       <use xlink:href="#m76abc6fb37" x="513.988078" y="260.521875" style="stroke: #000000; stroke-width: 0.8"/>
      </g>
     </g>
     <g id="text_20">
      <!-- 7 -->
      <g transform="translate(510.806828 275.120313) scale(0.1 -0.1)">
       <use xlink:href="#DejaVuSans-37"/>
      </g>
     </g>
    </g>
    <g id="xtick_10">
     <g id="line2d_19">
      <g>
       <use xlink:href="#m76abc6fb37" x="556.278987" y="260.521875" style="stroke: #000000; stroke-width: 0.8"/>
      </g>
     </g>
     <g id="text_21">
      <!-- 8 -->
      <g transform="translate(553.097737 275.120313) scale(0.1 -0.1)">
       <use xlink:href="#DejaVuSans-38"/>
      </g>
     </g>
    </g>
   </g>
   <g id="matplotlib.axis_4">
    <g id="ytick_7">
     <g id="line2d_20">
      <g>
       <use xlink:href="#m6981ef4d67" x="332.263437" y="260.521875" style="stroke: #000000; stroke-width: 0.8"/>
      </g>
     </g>
     <g id="text_22">
      <!-- 0.0 -->
      <g transform="translate(309.360312 264.321094) scale(0.1 -0.1)">
       <use xlink:href="#DejaVuSans-30"/>
       <use xlink:href="#DejaVuSans-2e" x="63.623047"/>
       <use xlink:href="#DejaVuSans-30" x="95.410156"/>
      </g>
     </g>
    </g>
    <g id="ytick_8">
     <g id="line2d_21">
      <g>
       <use xlink:href="#m6981ef4d67" x="332.263437" y="210.146578" style="stroke: #000000; stroke-width: 0.8"/>
      </g>
     </g>
     <g id="text_23">
      <!-- 0.2 -->
      <g transform="translate(309.360312 213.945797) scale(0.1 -0.1)">
       <use xlink:href="#DejaVuSans-30"/>
       <use xlink:href="#DejaVuSans-2e" x="63.623047"/>
       <use xlink:href="#DejaVuSans-32" x="95.410156"/>
      </g>
     </g>
    </g>
    <g id="ytick_9">
     <g id="line2d_22">
      <g>
       <use xlink:href="#m6981ef4d67" x="332.263437" y="159.771281" style="stroke: #000000; stroke-width: 0.8"/>
      </g>
     </g>
     <g id="text_24">
      <!-- 0.4 -->
      <g transform="translate(309.360312 163.5705) scale(0.1 -0.1)">
       <use xlink:href="#DejaVuSans-30"/>
       <use xlink:href="#DejaVuSans-2e" x="63.623047"/>
       <use xlink:href="#DejaVuSans-34" x="95.410156"/>
      </g>
     </g>
    </g>
    <g id="ytick_10">
     <g id="line2d_23">
      <g>
       <use xlink:href="#m6981ef4d67" x="332.263437" y="109.395984" style="stroke: #000000; stroke-width: 0.8"/>
      </g>
     </g>
     <g id="text_25">
      <!-- 0.6 -->
      <g transform="translate(309.360312 113.195203) scale(0.1 -0.1)">
       <use xlink:href="#DejaVuSans-30"/>
       <use xlink:href="#DejaVuSans-2e" x="63.623047"/>
       <use xlink:href="#DejaVuSans-36" x="95.410156"/>
      </g>
     </g>
    </g>
    <g id="ytick_11">
     <g id="line2d_24">
      <g>
       <use xlink:href="#m6981ef4d67" x="332.263437" y="59.020688" style="stroke: #000000; stroke-width: 0.8"/>
      </g>
     </g>
     <g id="text_26">
      <!-- 0.8 -->
      <g transform="translate(309.360312 62.819906) scale(0.1 -0.1)">
       <use xlink:href="#DejaVuSans-30"/>
       <use xlink:href="#DejaVuSans-2e" x="63.623047"/>
       <use xlink:href="#DejaVuSans-38" x="95.410156"/>
      </g>
     </g>
    </g>
    <g id="text_27">
     <!-- Fraction of cells -->
     <g transform="translate(302.44875 198.811719) rotate(-90) scale(0.14 -0.14)">
      <use xlink:href="#DejaVuSans-46"/>
      <use xlink:href="#DejaVuSans-72" x="50.269531"/>
      <use xlink:href="#DejaVuSans-61" x="91.382812"/>
      <use xlink:href="#DejaVuSans-63" x="152.662109"/>
      <use xlink:href="#DejaVuSans-74" x="207.642578"/>
      <use xlink:href="#DejaVuSans-69" x="246.851562"/>
      <use xlink:href="#DejaVuSans-6f" x="274.634766"/>
      <use xlink:href="#DejaVuSans-6e" x="335.816406"/>
      <use xlink:href="#DejaVuSans-20" x="399.195312"/>
      <use xlink:href="#DejaVuSans-6f" x="430.982422"/>
      <use xlink:href="#DejaVuSans-66" x="492.164062"/>
      <use xlink:href="#DejaVuSans-20" x="527.369141"/>
      <use xlink:href="#DejaVuSans-63" x="559.15625"/>
      <use xlink:href="#DejaVuSans-65" x="614.136719"/>
      <use xlink:href="#DejaVuSans-6c" x="675.660156"/>
      <use xlink:href="#DejaVuSans-6c" x="703.443359"/>
      <use xlink:href="#DejaVuSans-73" x="731.226562"/>
     </g>
    </g>
   </g>
   <g id="line2d_25">
    <path d="M 332.151976 252.540703 
L 335.706189 250.229718 
L 340.445141 246.863896 
L 350.219228 239.587833 
L 354.513903 236.159079 
L 357.623839 233.391292 
L 360.2895 230.728576 
L 362.95516 227.743098 
L 365.62082 224.421363 
L 368.730757 220.168726 
L 373.321616 213.443776 
L 378.356752 206.162052 
L 381.318596 202.253279 
L 383.984256 199.083145 
L 386.649916 196.260348 
L 389.315577 193.753813 
L 392.425513 191.142577 
L 396.572096 187.983411 
L 403.532431 183.001113 
L 408.567566 179.620664 
L 412.12178 177.486953 
L 415.379809 175.78868 
L 418.637838 174.342337 
L 422.636328 172.823813 
L 431.818046 169.420064 
L 439.815027 166.287422 
L 442.03641 165.696183 
L 443.961609 165.402704 
L 445.738716 165.359493 
L 447.367731 165.541984 
L 448.996745 165.95725 
L 450.62576 166.617484 
L 452.254774 167.52699 
L 453.883789 168.682231 
L 455.660895 170.209862 
L 457.586094 172.153784 
L 459.807478 174.721389 
L 462.473138 178.168568 
L 465.879259 182.96497 
L 484.390788 209.649065 
L 490.314477 218.183695 
L 495.349613 225.847965 
L 504.827516 240.392344 
L 507.937452 244.669486 
L 510.603113 247.951975 
L 512.972588 250.520134 
L 515.193972 252.60787 
L 517.415355 254.383014 
L 519.488646 255.767125 
L 521.71003 256.978234 
L 523.931413 257.936801 
L 526.300889 258.719273 
L 528.966549 259.35618 
L 531.928394 259.83075 
L 535.482607 260.172344 
L 540.221558 260.393713 
L 547.922354 260.502044 
L 565.249145 260.521776 
L 565.249145 260.521776 
" clip-path="url(#pf0bf14146a)" style="fill: none; stroke: #1f77b4; stroke-width: 1.5; stroke-linecap: square"/>
   </g>
   <g id="line2d_26">
    <path d="M 332.151976 216.882007 
L 334.373359 205.752493 
L 337.483296 188.884853 
L 342.37034 162.374593 
L 344.739815 150.843348 
L 346.665014 142.504398 
L 348.590213 135.167218 
L 350.36732 129.239497 
L 352.292519 123.588761 
L 354.513903 117.776364 
L 358.512393 108.09782 
L 365.472728 91.610408 
L 367.101742 88.41232 
L 368.434572 86.281105 
L 369.471218 85.010625 
L 370.359771 84.235749 
L 371.100232 83.833988 
L 371.840693 83.669282 
L 372.581155 83.753016 
L 373.321616 84.093488 
L 374.062077 84.695706 
L 374.95063 85.765888 
L 375.839184 87.211396 
L 376.875829 89.357698 
L 378.060567 92.38211 
L 379.393397 96.443188 
L 381.022412 102.208205 
L 382.947611 109.884889 
L 385.761363 122.100144 
L 394.943081 162.542741 
L 400.718678 186.678324 
L 404.1248 200.059718 
L 406.642367 209.07415 
L 408.715659 215.7015 
L 410.640858 221.100566 
L 412.417964 225.4053 
L 414.046979 228.791755 
L 415.675993 231.685744 
L 417.305008 234.151158 
L 419.082115 236.44295 
L 421.155406 238.729103 
L 423.672974 241.151559 
L 427.37528 244.376681 
L 431.37377 247.592019 
L 434.03943 249.480086 
L 436.260813 250.797635 
L 438.334105 251.763582 
L 440.259304 252.412278 
L 442.184503 252.826293 
L 444.257794 253.03922 
L 446.627269 253.054541 
L 450.329575 252.822909 
L 454.920434 252.582576 
L 458.030371 252.651632 
L 461.2884 252.94919 
L 466.915905 253.740955 
L 472.395317 254.412499 
L 481.280851 255.413646 
L 484.835065 256.10793 
L 489.129739 257.197462 
L 495.941982 258.937919 
L 499.496195 259.600222 
L 503.198501 260.055401 
L 507.345083 260.333368 
L 513.12068 260.480493 
L 526.004704 260.521394 
L 565.249145 260.521875 
L 565.249145 260.521875 
" clip-path="url(#pf0bf14146a)" style="fill: none; stroke: #ff7f0e; stroke-width: 1.5; stroke-linecap: square"/>
   </g>
   <g id="line2d_27">
    <path d="M 332.151976 244.05474 
L 334.373359 240.519336 
L 336.742835 236.294276 
L 339.260403 231.32767 
L 342.074155 225.277086 
L 345.776461 216.744988 
L 354.217718 197.091398 
L 357.179563 190.872085 
L 359.845223 185.768459 
L 362.658975 180.876919 
L 365.917004 175.688305 
L 372.581155 165.219315 
L 375.246815 160.521764 
L 377.912475 155.364388 
L 381.170504 148.543982 
L 386.20564 137.980184 
L 388.278931 134.19126 
L 389.907945 131.670708 
L 391.240776 129.989438 
L 392.425513 128.828189 
L 393.462159 128.094684 
L 394.498805 127.64224 
L 395.387358 127.487437 
L 396.275911 127.553044 
L 397.164465 127.841418 
L 398.053018 128.352287 
L 399.089664 129.225507 
L 400.126309 130.388561 
L 401.311047 132.055247 
L 402.643877 134.328374 
L 404.1248 137.293065 
L 405.901906 141.357563 
L 408.271382 147.399982 
L 413.158426 160.723246 
L 416.416455 169.208631 
L 418.934022 175.145489 
L 421.155406 179.827052 
L 423.228697 183.705971 
L 425.301988 187.13158 
L 427.37528 190.149969 
L 429.596663 193.003972 
L 432.114231 195.87329 
L 435.37226 199.216666 
L 445.738716 209.577414 
L 448.996745 213.287537 
L 452.106682 217.165427 
L 455.364711 221.602693 
L 458.918924 226.834686 
L 469.433473 242.60774 
L 471.802948 245.608332 
L 474.024332 248.063915 
L 476.097623 250.012234 
L 478.022822 251.519652 
L 479.948021 252.749693 
L 481.87322 253.729293 
L 483.946511 254.54691 
L 486.315987 255.247635 
L 489.425924 255.920277 
L 495.79389 256.994128 
L 512.676404 259.712506 
L 517.563447 260.130736 
L 523.190952 260.380241 
L 531.484117 260.499543 
L 555.919335 260.521867 
L 565.249145 260.521875 
L 565.249145 260.521875 
" clip-path="url(#pf0bf14146a)" style="fill: none; stroke: #2ca02c; stroke-width: 1.5; stroke-linecap: square"/>
   </g>
   <g id="patch_132">
    <path d="M 332.263437 260.521875 
L 332.263437 27.437812 
" style="fill: none; stroke: #000000; stroke-width: 0.8; stroke-linejoin: miter; stroke-linecap: square"/>
   </g>
   <g id="patch_133">
    <path d="M 565.2 260.521875 
L 565.2 27.437812 
" style="fill: none; stroke: #000000; stroke-width: 0.8; stroke-linejoin: miter; stroke-linecap: square"/>
   </g>
   <g id="patch_134">
    <path d="M 332.263437 260.521875 
L 565.2 260.521875 
" style="fill: none; stroke: #000000; stroke-width: 0.8; stroke-linejoin: miter; stroke-linecap: square"/>
   </g>
   <g id="patch_135">
    <path d="M 332.263437 27.437812 
L 565.2 27.437812 
" style="fill: none; stroke: #000000; stroke-width: 0.8; stroke-linejoin: miter; stroke-linecap: square"/>
   </g>
   <g id="text_28">
    <!-- Linear -->
    <g transform="translate(426.975937 21.437813) scale(0.14 -0.14)">
     <defs>
      <path id="DejaVuSans-4c" d="M 628 4666 
L 1259 4666 
L 1259 531 
L 3531 531 
L 3531 0 
L 628 0 
L 628 4666 
z
" transform="scale(0.015625)"/>
     </defs>
     <use xlink:href="#DejaVuSans-4c"/>
     <use xlink:href="#DejaVuSans-69" x="55.712891"/>
     <use xlink:href="#DejaVuSans-6e" x="83.496094"/>
     <use xlink:href="#DejaVuSans-65" x="146.875"/>
     <use xlink:href="#DejaVuSans-61" x="208.398438"/>
     <use xlink:href="#DejaVuSans-72" x="269.677734"/>
    </g>
   </g>
   <g id="legend_2">
    <g id="patch_136">
     <path d="M 476.810625 89.879062 
L 556.8 89.879062 
Q 559.2 89.879062 559.2 87.479062 
L 559.2 35.837812 
Q 559.2 33.437812 556.8 33.437812 
L 476.810625 33.437812 
Q 474.410625 33.437812 474.410625 35.837812 
L 474.410625 87.479062 
Q 474.410625 89.879062 476.810625 89.879062 
z
" style="fill: #ffffff; opacity: 0.8; stroke: #cccccc; stroke-linejoin: miter"/>
    </g>
    <g id="patch_137">
     <path d="M 479.210625 47.355937 
L 503.210625 47.355937 
L 503.210625 38.955937 
L 479.210625 38.955937 
z
" style="fill: #1f77b4; opacity: 0.4"/>
    </g>
    <g id="text_29">
     <!-- control -->
     <g transform="translate(512.810625 47.355937) scale(0.12 -0.12)">
      <use xlink:href="#DejaVuSans-63"/>
      <use xlink:href="#DejaVuSans-6f" x="54.980469"/>
      <use xlink:href="#DejaVuSans-6e" x="116.162109"/>
      <use xlink:href="#DejaVuSans-74" x="179.541016"/>
      <use xlink:href="#DejaVuSans-72" x="218.75"/>
      <use xlink:href="#DejaVuSans-6f" x="257.613281"/>
      <use xlink:href="#DejaVuSans-6c" x="318.794922"/>
     </g>
    </g>
    <g id="patch_138">
     <path d="M 479.210625 64.969687 
L 503.210625 64.969687 
L 503.210625 56.569687 
L 479.210625 56.569687 
z
" style="fill: #ff7f0e; opacity: 0.4"/>
    </g>
    <g id="text_30">
     <!-- cytd -->
     <g transform="translate(512.810625 64.969687) scale(0.12 -0.12)">
      <use xlink:href="#DejaVuSans-63"/>
      <use xlink:href="#DejaVuSans-79" x="54.980469"/>
      <use xlink:href="#DejaVuSans-74" x="114.160156"/>
      <use xlink:href="#DejaVuSans-64" x="153.369141"/>
     </g>
    </g>
    <g id="patch_139">
     <path d="M 479.210625 82.583437 
L 503.210625 82.583437 
L 503.210625 74.183437 
L 479.210625 74.183437 
z
" style="fill: #2ca02c; opacity: 0.4"/>
    </g>
    <g id="text_31">
     <!-- jasp -->
     <g transform="translate(512.810625 82.583437) scale(0.12 -0.12)">
      <use xlink:href="#DejaVuSans-6a"/>
      <use xlink:href="#DejaVuSans-61" x="27.783203"/>
      <use xlink:href="#DejaVuSans-73" x="89.0625"/>
      <use xlink:href="#DejaVuSans-70" x="141.162109"/>
     </g>
    </g>
   </g>
  </g>
 </g>
 <defs>
  <clipPath id="p7de445b499">
   <rect x="48.074375" y="27.437813" width="232.936562" height="233.084062"/>
  </clipPath>
  <clipPath id="pf0bf14146a">
   <rect x="332.263437" y="27.437813" width="232.936563" height="233.084062"/>
  </clipPath>
 </defs>
</svg>
