<?xml version="1.0" encoding="utf-8" standalone="no"?>
<!DOCTYPE svg PUBLIC "-//W3C//DTD SVG 1.1//EN"
  "http://www.w3.org/Graphics/SVG/1.1/DTD/svg11.dtd">
<svg xmlns:xlink="http://www.w3.org/1999/xlink" width="576pt" height="288pt" viewBox="0 0 576 288" xmlns="http://www.w3.org/2000/svg" version="1.1">
 <metadata>
  <rdf:RDF xmlns:dc="http://purl.org/dc/elements/1.1/" xmlns:cc="http://creativecommons.org/ns#" xmlns:rdf="http://www.w3.org/1999/02/22-rdf-syntax-ns#">
   <cc:Work>
    <dc:type rdf:resource="http://purl.org/dc/dcmitype/StillImage"/>
    <dc:date>2024-04-25T17:12:27.568757</dc:date>
    <dc:format>image/svg+xml</dc:format>
    <dc:creator>
     <cc:Agent>
      <dc:title>Matplotlib v3.8.4, https://matplotlib.org/</dc:title>
     </cc:Agent>
    </dc:creator>
   </cc:Work>
  </rdf:RDF>
 </metadata>
 <defs>
  <style type="text/css">*{stroke-linejoin: round; stroke-linecap: butt}</style>
 </defs>
 <g id="figure_1">
  <g id="patch_1">
   <path d="M 0 288 
L 576 288 
L 576 0 
L 0 0 
z
" style="fill: #ffffff"/>
  </g>
  <g id="axes_1">
   <g id="patch_2">
    <path d="M 48.074375 260.521875 
L 281.010937 260.521875 
L 281.010937 27.437812 
L 48.074375 27.437812 
z
" style="fill: #ffffff"/>
   </g>
   <g id="patch_3">
    <path d="M 48.074375 260.521875 
L 58.799831 260.521875 
L 58.799831 255.752234 
L 48.074375 255.752234 
z
" clip-path="url(#p64e105406b)" style="fill: #1f77b4; opacity: 0.4"/>
   </g>
   <g id="patch_4">
    <path d="M 58.799831 260.521875 
L 69.525286 260.521875 
L 69.525286 246.212953 
L 58.799831 246.212953 
z
" clip-path="url(#p64e105406b)" style="fill: #1f77b4; opacity: 0.4"/>
   </g>
   <g id="patch_5">
    <path d="M 69.525286 260.521875 
L 80.250742 260.521875 
L 80.250742 179.437982 
L 69.525286 179.437982 
z
" clip-path="url(#p64e105406b)" style="fill: #1f77b4; opacity: 0.4"/>
   </g>
   <g id="patch_6">
    <path d="M 80.250742 260.521875 
L 90.976197 260.521875 
L 90.976197 174.668341 
L 80.250742 174.668341 
z
" clip-path="url(#p64e105406b)" style="fill: #1f77b4; opacity: 0.4"/>
   </g>
   <g id="patch_7">
    <path d="M 90.976197 260.521875 
L 101.701653 260.521875 
L 101.701653 174.668341 
L 90.976197 174.668341 
z
" clip-path="url(#p64e105406b)" style="fill: #1f77b4; opacity: 0.4"/>
   </g>
   <g id="patch_8">
    <path d="M 101.701653 260.521875 
L 112.427108 260.521875 
L 112.427108 169.8987 
L 101.701653 169.8987 
z
" clip-path="url(#p64e105406b)" style="fill: #1f77b4; opacity: 0.4"/>
   </g>
   <g id="patch_9">
    <path d="M 112.427108 260.521875 
L 123.152564 260.521875 
L 123.152564 208.055826 
L 112.427108 208.055826 
z
" clip-path="url(#p64e105406b)" style="fill: #1f77b4; opacity: 0.4"/>
   </g>
   <g id="patch_10">
    <path d="M 123.152564 260.521875 
L 133.87802 260.521875 
L 133.87802 227.13439 
L 123.152564 227.13439 
z
" clip-path="url(#p64e105406b)" style="fill: #1f77b4; opacity: 0.4"/>
   </g>
   <g id="patch_11">
    <path d="M 133.87802 260.521875 
L 144.603475 260.521875 
L 144.603475 236.673671 
L 133.87802 236.673671 
z
" clip-path="url(#p64e105406b)" style="fill: #1f77b4; opacity: 0.4"/>
   </g>
   <g id="patch_12">
    <path d="M 144.603475 260.521875 
L 155.328931 260.521875 
L 155.328931 241.443312 
L 144.603475 241.443312 
z
" clip-path="url(#p64e105406b)" style="fill: #1f77b4; opacity: 0.4"/>
   </g>
   <g id="patch_13">
    <path d="M 155.328931 260.521875 
L 166.054386 260.521875 
L 166.054386 255.752234 
L 155.328931 255.752234 
z
" clip-path="url(#p64e105406b)" style="fill: #1f77b4; opacity: 0.4"/>
   </g>
   <g id="patch_14">
    <path d="M 166.054386 260.521875 
L 176.779842 260.521875 
L 176.779842 179.437982 
L 166.054386 179.437982 
z
" clip-path="url(#p64e105406b)" style="fill: #1f77b4; opacity: 0.4"/>
   </g>
   <g id="patch_15">
    <path d="M 176.779842 260.521875 
L 187.505297 260.521875 
L 187.505297 203.286186 
L 176.779842 203.286186 
z
" clip-path="url(#p64e105406b)" style="fill: #1f77b4; opacity: 0.4"/>
   </g>
   <g id="patch_16">
    <path d="M 187.505297 260.521875 
L 198.230753 260.521875 
L 198.230753 179.437982 
L 187.505297 179.437982 
z
" clip-path="url(#p64e105406b)" style="fill: #1f77b4; opacity: 0.4"/>
   </g>
   <g id="patch_17">
    <path d="M 198.230753 260.521875 
L 208.956209 260.521875 
L 208.956209 193.746904 
L 198.230753 193.746904 
z
" clip-path="url(#p64e105406b)" style="fill: #1f77b4; opacity: 0.4"/>
   </g>
   <g id="patch_18">
    <path d="M 208.956209 260.521875 
L 219.681664 260.521875 
L 219.681664 184.207622 
L 208.956209 184.207622 
z
" clip-path="url(#p64e105406b)" style="fill: #1f77b4; opacity: 0.4"/>
   </g>
   <g id="patch_19">
    <path d="M 219.681664 260.521875 
L 230.40712 260.521875 
L 230.40712 203.286186 
L 219.681664 203.286186 
z
" clip-path="url(#p64e105406b)" style="fill: #1f77b4; opacity: 0.4"/>
   </g>
   <g id="patch_20">
    <path d="M 230.40712 260.521875 
L 241.132575 260.521875 
L 241.132575 236.673671 
L 230.40712 236.673671 
z
" clip-path="url(#p64e105406b)" style="fill: #1f77b4; opacity: 0.4"/>
   </g>
   <g id="patch_21">
    <path d="M 241.132575 260.521875 
L 251.858031 260.521875 
L 251.858031 250.982593 
L 241.132575 250.982593 
z
" clip-path="url(#p64e105406b)" style="fill: #1f77b4; opacity: 0.4"/>
   </g>
   <g id="patch_22">
    <path d="M 251.858031 260.521875 
L 262.583486 260.521875 
L 262.583486 246.212953 
L 251.858031 246.212953 
z
" clip-path="url(#p64e105406b)" style="fill: #1f77b4; opacity: 0.4"/>
   </g>
   <g id="patch_23">
    <path d="M 103.795989 260.521875 
L 112.656737 260.521875 
L 112.656737 247.981819 
L 103.795989 247.981819 
z
" clip-path="url(#p64e105406b)" style="fill: #ff7f0e; opacity: 0.4"/>
   </g>
   <g id="patch_24">
    <path d="M 112.656737 260.521875 
L 121.517484 260.521875 
L 121.517484 260.521875 
L 112.656737 260.521875 
z
" clip-path="url(#p64e105406b)" style="fill: #ff7f0e; opacity: 0.4"/>
   </g>
   <g id="patch_25">
    <path d="M 121.517484 260.521875 
L 130.378232 260.521875 
L 130.378232 260.521875 
L 121.517484 260.521875 
z
" clip-path="url(#p64e105406b)" style="fill: #ff7f0e; opacity: 0.4"/>
   </g>
   <g id="patch_26">
    <path d="M 130.378232 260.521875 
L 139.238979 260.521875 
L 139.238979 260.521875 
L 130.378232 260.521875 
z
" clip-path="url(#p64e105406b)" style="fill: #ff7f0e; opacity: 0.4"/>
   </g>
   <g id="patch_27">
    <path d="M 139.238979 260.521875 
L 148.099726 260.521875 
L 148.099726 260.521875 
L 139.238979 260.521875 
z
" clip-path="url(#p64e105406b)" style="fill: #ff7f0e; opacity: 0.4"/>
   </g>
   <g id="patch_28">
    <path d="M 148.099726 260.521875 
L 156.960474 260.521875 
L 156.960474 260.521875 
L 148.099726 260.521875 
z
" clip-path="url(#p64e105406b)" style="fill: #ff7f0e; opacity: 0.4"/>
   </g>
   <g id="patch_29">
    <path d="M 156.960474 260.521875 
L 165.821221 260.521875 
L 165.821221 247.981819 
L 156.960474 247.981819 
z
" clip-path="url(#p64e105406b)" style="fill: #ff7f0e; opacity: 0.4"/>
   </g>
   <g id="patch_30">
    <path d="M 165.821221 260.521875 
L 174.681969 260.521875 
L 174.681969 260.521875 
L 165.821221 260.521875 
z
" clip-path="url(#p64e105406b)" style="fill: #ff7f0e; opacity: 0.4"/>
   </g>
   <g id="patch_31">
    <path d="M 174.681969 260.521875 
L 183.542716 260.521875 
L 183.542716 235.441762 
L 174.681969 235.441762 
z
" clip-path="url(#p64e105406b)" style="fill: #ff7f0e; opacity: 0.4"/>
   </g>
   <g id="patch_32">
    <path d="M 183.542716 260.521875 
L 192.403463 260.521875 
L 192.403463 222.901706 
L 183.542716 222.901706 
z
" clip-path="url(#p64e105406b)" style="fill: #ff7f0e; opacity: 0.4"/>
   </g>
   <g id="patch_33">
    <path d="M 192.403463 260.521875 
L 201.264211 260.521875 
L 201.264211 222.901706 
L 192.403463 222.901706 
z
" clip-path="url(#p64e105406b)" style="fill: #ff7f0e; opacity: 0.4"/>
   </g>
   <g id="patch_34">
    <path d="M 201.264211 260.521875 
L 210.124958 260.521875 
L 210.124958 222.901706 
L 201.264211 222.901706 
z
" clip-path="url(#p64e105406b)" style="fill: #ff7f0e; opacity: 0.4"/>
   </g>
   <g id="patch_35">
    <path d="M 210.124958 260.521875 
L 218.985706 260.521875 
L 218.985706 122.581256 
L 210.124958 122.581256 
z
" clip-path="url(#p64e105406b)" style="fill: #ff7f0e; opacity: 0.4"/>
   </g>
   <g id="patch_36">
    <path d="M 218.985706 260.521875 
L 227.846453 260.521875 
L 227.846453 185.281537 
L 218.985706 185.281537 
z
" clip-path="url(#p64e105406b)" style="fill: #ff7f0e; opacity: 0.4"/>
   </g>
   <g id="patch_37">
    <path d="M 227.846453 260.521875 
L 236.7072 260.521875 
L 236.7072 72.421031 
L 227.846453 72.421031 
z
" clip-path="url(#p64e105406b)" style="fill: #ff7f0e; opacity: 0.4"/>
   </g>
   <g id="patch_38">
    <path d="M 236.7072 260.521875 
L 245.567948 260.521875 
L 245.567948 84.961087 
L 236.7072 84.961087 
z
" clip-path="url(#p64e105406b)" style="fill: #ff7f0e; opacity: 0.4"/>
   </g>
   <g id="patch_39">
    <path d="M 245.567948 260.521875 
L 254.428695 260.521875 
L 254.428695 84.961087 
L 245.567948 84.961087 
z
" clip-path="url(#p64e105406b)" style="fill: #ff7f0e; opacity: 0.4"/>
   </g>
   <g id="patch_40">
    <path d="M 254.428695 260.521875 
L 263.289443 260.521875 
L 263.289443 110.0412 
L 254.428695 110.0412 
z
" clip-path="url(#p64e105406b)" style="fill: #ff7f0e; opacity: 0.4"/>
   </g>
   <g id="patch_41">
    <path d="M 263.289443 260.521875 
L 272.15019 260.521875 
L 272.15019 185.281537 
L 263.289443 185.281537 
z
" clip-path="url(#p64e105406b)" style="fill: #ff7f0e; opacity: 0.4"/>
   </g>
   <g id="patch_42">
    <path d="M 272.15019 260.521875 
L 281.010937 260.521875 
L 281.010937 235.441762 
L 272.15019 235.441762 
z
" clip-path="url(#p64e105406b)" style="fill: #ff7f0e; opacity: 0.4"/>
   </g>
   <g id="patch_43">
    <path d="M 136.017604 260.521875 
L 141.897737 260.521875 
L 141.897737 223.524405 
L 136.017604 223.524405 
z
" clip-path="url(#p64e105406b)" style="fill: #2ca02c; opacity: 0.4"/>
   </g>
   <g id="patch_44">
    <path d="M 141.897737 260.521875 
L 147.77787 260.521875 
L 147.77787 260.521875 
L 141.897737 260.521875 
z
" clip-path="url(#p64e105406b)" style="fill: #2ca02c; opacity: 0.4"/>
   </g>
   <g id="patch_45">
    <path d="M 147.77787 260.521875 
L 153.658003 260.521875 
L 153.658003 223.524405 
L 147.77787 223.524405 
z
" clip-path="url(#p64e105406b)" style="fill: #2ca02c; opacity: 0.4"/>
   </g>
   <g id="patch_46">
    <path d="M 153.658003 260.521875 
L 159.538136 260.521875 
L 159.538136 260.521875 
L 153.658003 260.521875 
z
" clip-path="url(#p64e105406b)" style="fill: #2ca02c; opacity: 0.4"/>
   </g>
   <g id="patch_47">
    <path d="M 159.538136 260.521875 
L 165.418269 260.521875 
L 165.418269 260.521875 
L 159.538136 260.521875 
z
" clip-path="url(#p64e105406b)" style="fill: #2ca02c; opacity: 0.4"/>
   </g>
   <g id="patch_48">
    <path d="M 165.418269 260.521875 
L 171.298403 260.521875 
L 171.298403 168.028199 
L 165.418269 168.028199 
z
" clip-path="url(#p64e105406b)" style="fill: #2ca02c; opacity: 0.4"/>
   </g>
   <g id="patch_49">
    <path d="M 171.298403 260.521875 
L 177.178536 260.521875 
L 177.178536 186.526935 
L 171.298403 186.526935 
z
" clip-path="url(#p64e105406b)" style="fill: #2ca02c; opacity: 0.4"/>
   </g>
   <g id="patch_50">
    <path d="M 177.178536 260.521875 
L 183.058669 260.521875 
L 183.058669 168.028199 
L 177.178536 168.028199 
z
" clip-path="url(#p64e105406b)" style="fill: #2ca02c; opacity: 0.4"/>
   </g>
   <g id="patch_51">
    <path d="M 183.058669 260.521875 
L 188.938802 260.521875 
L 188.938802 223.524405 
L 183.058669 223.524405 
z
" clip-path="url(#p64e105406b)" style="fill: #2ca02c; opacity: 0.4"/>
   </g>
   <g id="patch_52">
    <path d="M 188.938802 260.521875 
L 194.818935 260.521875 
L 194.818935 112.531994 
L 188.938802 112.531994 
z
" clip-path="url(#p64e105406b)" style="fill: #2ca02c; opacity: 0.4"/>
   </g>
   <g id="patch_53">
    <path d="M 194.818935 260.521875 
L 200.699068 260.521875 
L 200.699068 38.537054 
L 194.818935 38.537054 
z
" clip-path="url(#p64e105406b)" style="fill: #2ca02c; opacity: 0.4"/>
   </g>
   <g id="patch_54">
    <path d="M 200.699068 260.521875 
L 206.579201 260.521875 
L 206.579201 57.035789 
L 200.699068 57.035789 
z
" clip-path="url(#p64e105406b)" style="fill: #2ca02c; opacity: 0.4"/>
   </g>
   <g id="patch_55">
    <path d="M 206.579201 260.521875 
L 212.459334 260.521875 
L 212.459334 57.035789 
L 206.579201 57.035789 
z
" clip-path="url(#p64e105406b)" style="fill: #2ca02c; opacity: 0.4"/>
   </g>
   <g id="patch_56">
    <path d="M 212.459334 260.521875 
L 218.339467 260.521875 
L 218.339467 131.030729 
L 212.459334 131.030729 
z
" clip-path="url(#p64e105406b)" style="fill: #2ca02c; opacity: 0.4"/>
   </g>
   <g id="patch_57">
    <path d="M 218.339467 260.521875 
L 224.2196 260.521875 
L 224.2196 149.529464 
L 218.339467 149.529464 
z
" clip-path="url(#p64e105406b)" style="fill: #2ca02c; opacity: 0.4"/>
   </g>
   <g id="patch_58">
    <path d="M 224.2196 260.521875 
L 230.099733 260.521875 
L 230.099733 94.033259 
L 224.2196 94.033259 
z
" clip-path="url(#p64e105406b)" style="fill: #2ca02c; opacity: 0.4"/>
   </g>
   <g id="patch_59">
    <path d="M 230.099733 260.521875 
L 235.979866 260.521875 
L 235.979866 168.028199 
L 230.099733 168.028199 
z
" clip-path="url(#p64e105406b)" style="fill: #2ca02c; opacity: 0.4"/>
   </g>
   <g id="patch_60">
    <path d="M 235.979866 260.521875 
L 241.859999 260.521875 
L 241.859999 186.526935 
L 235.979866 186.526935 
z
" clip-path="url(#p64e105406b)" style="fill: #2ca02c; opacity: 0.4"/>
   </g>
   <g id="patch_61">
    <path d="M 241.859999 260.521875 
L 247.740132 260.521875 
L 247.740132 260.521875 
L 241.859999 260.521875 
z
" clip-path="url(#p64e105406b)" style="fill: #2ca02c; opacity: 0.4"/>
   </g>
   <g id="patch_62">
    <path d="M 247.740132 260.521875 
L 253.620265 260.521875 
L 253.620265 223.524405 
L 247.740132 223.524405 
z
" clip-path="url(#p64e105406b)" style="fill: #2ca02c; opacity: 0.4"/>
   </g>
   <g id="matplotlib.axis_1">
    <g id="xtick_1">
     <g id="line2d_1">
      <defs>
       <path id="m5423305f6a" d="M 0 0 
L 0 3.5 
" style="stroke: #000000; stroke-width: 0.8"/>
      </defs>
      <g>
       <use xlink:href="#m5423305f6a" x="94.408281" y="260.521875" style="stroke: #000000; stroke-width: 0.8"/>
      </g>
     </g>
     <g id="text_1">
      <!-- 0.6 -->
      <g transform="translate(86.456718 275.120313) scale(0.1 -0.1)">
       <defs>
        <path id="DejaVuSans-30" d="M 2034 4250 
Q 1547 4250 1301 3770 
Q 1056 3291 1056 2328 
Q 1056 1369 1301 889 
Q 1547 409 2034 409 
Q 2525 409 2770 889 
Q 3016 1369 3016 2328 
Q 3016 3291 2770 3770 
Q 2525 4250 2034 4250 
z
M 2034 4750 
Q 2819 4750 3233 4129 
Q 3647 3509 3647 2328 
Q 3647 1150 3233 529 
Q 2819 -91 2034 -91 
Q 1250 -91 836 529 
Q 422 1150 422 2328 
Q 422 3509 836 4129 
Q 1250 4750 2034 4750 
z
" transform="scale(0.015625)"/>
        <path id="DejaVuSans-2e" d="M 684 794 
L 1344 794 
L 1344 0 
L 684 0 
L 684 794 
z
" transform="scale(0.015625)"/>
        <path id="DejaVuSans-36" d="M 2113 2584 
Q 1688 2584 1439 2293 
Q 1191 2003 1191 1497 
Q 1191 994 1439 701 
Q 1688 409 2113 409 
Q 2538 409 2786 701 
Q 3034 994 3034 1497 
Q 3034 2003 2786 2293 
Q 2538 2584 2113 2584 
z
M 3366 4563 
L 3366 3988 
Q 3128 4100 2886 4159 
Q 2644 4219 2406 4219 
Q 1781 4219 1451 3797 
Q 1122 3375 1075 2522 
Q 1259 2794 1537 2939 
Q 1816 3084 2150 3084 
Q 2853 3084 3261 2657 
Q 3669 2231 3669 1497 
Q 3669 778 3244 343 
Q 2819 -91 2113 -91 
Q 1303 -91 875 529 
Q 447 1150 447 2328 
Q 447 3434 972 4092 
Q 1497 4750 2381 4750 
Q 2619 4750 2861 4703 
Q 3103 4656 3366 4563 
z
" transform="scale(0.015625)"/>
       </defs>
       <use xlink:href="#DejaVuSans-30"/>
       <use xlink:href="#DejaVuSans-2e" x="63.623047"/>
       <use xlink:href="#DejaVuSans-36" x="95.410156"/>
      </g>
     </g>
    </g>
    <g id="xtick_2">
     <g id="line2d_2">
      <g>
       <use xlink:href="#m5423305f6a" x="146.983922" y="260.521875" style="stroke: #000000; stroke-width: 0.8"/>
      </g>
     </g>
     <g id="text_2">
      <!-- 0.7 -->
      <g transform="translate(139.032359 275.120313) scale(0.1 -0.1)">
       <defs>
        <path id="DejaVuSans-37" d="M 525 4666 
L 3525 4666 
L 3525 4397 
L 1831 0 
L 1172 0 
L 2766 4134 
L 525 4134 
L 525 4666 
z
" transform="scale(0.015625)"/>
       </defs>
       <use xlink:href="#DejaVuSans-30"/>
       <use xlink:href="#DejaVuSans-2e" x="63.623047"/>
       <use xlink:href="#DejaVuSans-37" x="95.410156"/>
      </g>
     </g>
    </g>
    <g id="xtick_3">
     <g id="line2d_3">
      <g>
       <use xlink:href="#m5423305f6a" x="199.559563" y="260.521875" style="stroke: #000000; stroke-width: 0.8"/>
      </g>
     </g>
     <g id="text_3">
      <!-- 0.8 -->
      <g transform="translate(191.608 275.120313) scale(0.1 -0.1)">
       <defs>
        <path id="DejaVuSans-38" d="M 2034 2216 
Q 1584 2216 1326 1975 
Q 1069 1734 1069 1313 
Q 1069 891 1326 650 
Q 1584 409 2034 409 
Q 2484 409 2743 651 
Q 3003 894 3003 1313 
Q 3003 1734 2745 1975 
Q 2488 2216 2034 2216 
z
M 1403 2484 
Q 997 2584 770 2862 
Q 544 3141 544 3541 
Q 544 4100 942 4425 
Q 1341 4750 2034 4750 
Q 2731 4750 3128 4425 
Q 3525 4100 3525 3541 
Q 3525 3141 3298 2862 
Q 3072 2584 2669 2484 
Q 3125 2378 3379 2068 
Q 3634 1759 3634 1313 
Q 3634 634 3220 271 
Q 2806 -91 2034 -91 
Q 1263 -91 848 271 
Q 434 634 434 1313 
Q 434 1759 690 2068 
Q 947 2378 1403 2484 
z
M 1172 3481 
Q 1172 3119 1398 2916 
Q 1625 2713 2034 2713 
Q 2441 2713 2670 2916 
Q 2900 3119 2900 3481 
Q 2900 3844 2670 4047 
Q 2441 4250 2034 4250 
Q 1625 4250 1398 4047 
Q 1172 3844 1172 3481 
z
" transform="scale(0.015625)"/>
       </defs>
       <use xlink:href="#DejaVuSans-30"/>
       <use xlink:href="#DejaVuSans-2e" x="63.623047"/>
       <use xlink:href="#DejaVuSans-38" x="95.410156"/>
      </g>
     </g>
    </g>
    <g id="xtick_4">
     <g id="line2d_4">
      <g>
       <use xlink:href="#m5423305f6a" x="252.135204" y="260.521875" style="stroke: #000000; stroke-width: 0.8"/>
      </g>
     </g>
     <g id="text_4">
      <!-- 0.9 -->
      <g transform="translate(244.183641 275.120313) scale(0.1 -0.1)">
       <defs>
        <path id="DejaVuSans-39" d="M 703 97 
L 703 672 
Q 941 559 1184 500 
Q 1428 441 1663 441 
Q 2288 441 2617 861 
Q 2947 1281 2994 2138 
Q 2813 1869 2534 1725 
Q 2256 1581 1919 1581 
Q 1219 1581 811 2004 
Q 403 2428 403 3163 
Q 403 3881 828 4315 
Q 1253 4750 1959 4750 
Q 2769 4750 3195 4129 
Q 3622 3509 3622 2328 
Q 3622 1225 3098 567 
Q 2575 -91 1691 -91 
Q 1453 -91 1209 -44 
Q 966 3 703 97 
z
M 1959 2075 
Q 2384 2075 2632 2365 
Q 2881 2656 2881 3163 
Q 2881 3666 2632 3958 
Q 2384 4250 1959 4250 
Q 1534 4250 1286 3958 
Q 1038 3666 1038 3163 
Q 1038 2656 1286 2365 
Q 1534 2075 1959 2075 
z
" transform="scale(0.015625)"/>
       </defs>
       <use xlink:href="#DejaVuSans-30"/>
       <use xlink:href="#DejaVuSans-2e" x="63.623047"/>
       <use xlink:href="#DejaVuSans-39" x="95.410156"/>
      </g>
     </g>
    </g>
   </g>
   <g id="matplotlib.axis_2">
    <g id="ytick_1">
     <g id="line2d_5">
      <defs>
       <path id="m580fa30d5f" d="M 0 0 
L -3.5 0 
" style="stroke: #000000; stroke-width: 0.8"/>
      </defs>
      <g>
       <use xlink:href="#m580fa30d5f" x="48.074375" y="260.521875" style="stroke: #000000; stroke-width: 0.8"/>
      </g>
     </g>
     <g id="text_5">
      <!-- 0 -->
      <g transform="translate(34.711875 264.321094) scale(0.1 -0.1)">
       <use xlink:href="#DejaVuSans-30"/>
      </g>
     </g>
    </g>
    <g id="ytick_2">
     <g id="line2d_6">
      <g>
       <use xlink:href="#m580fa30d5f" x="48.074375" y="221.212313" style="stroke: #000000; stroke-width: 0.8"/>
      </g>
     </g>
     <g id="text_6">
      <!-- 2 -->
      <g transform="translate(34.711875 225.011531) scale(0.1 -0.1)">
       <defs>
        <path id="DejaVuSans-32" d="M 1228 531 
L 3431 531 
L 3431 0 
L 469 0 
L 469 531 
Q 828 903 1448 1529 
Q 2069 2156 2228 2338 
Q 2531 2678 2651 2914 
Q 2772 3150 2772 3378 
Q 2772 3750 2511 3984 
Q 2250 4219 1831 4219 
Q 1534 4219 1204 4116 
Q 875 4013 500 3803 
L 500 4441 
Q 881 4594 1212 4672 
Q 1544 4750 1819 4750 
Q 2544 4750 2975 4387 
Q 3406 4025 3406 3419 
Q 3406 3131 3298 2873 
Q 3191 2616 2906 2266 
Q 2828 2175 2409 1742 
Q 1991 1309 1228 531 
z
" transform="scale(0.015625)"/>
       </defs>
       <use xlink:href="#DejaVuSans-32"/>
      </g>
     </g>
    </g>
    <g id="ytick_3">
     <g id="line2d_7">
      <g>
       <use xlink:href="#m580fa30d5f" x="48.074375" y="181.90275" style="stroke: #000000; stroke-width: 0.8"/>
      </g>
     </g>
     <g id="text_7">
      <!-- 4 -->
      <g transform="translate(34.711875 185.701969) scale(0.1 -0.1)">
       <defs>
        <path id="DejaVuSans-34" d="M 2419 4116 
L 825 1625 
L 2419 1625 
L 2419 4116 
z
M 2253 4666 
L 3047 4666 
L 3047 1625 
L 3713 1625 
L 3713 1100 
L 3047 1100 
L 3047 0 
L 2419 0 
L 2419 1100 
L 313 1100 
L 313 1709 
L 2253 4666 
z
" transform="scale(0.015625)"/>
       </defs>
       <use xlink:href="#DejaVuSans-34"/>
      </g>
     </g>
    </g>
    <g id="ytick_4">
     <g id="line2d_8">
      <g>
       <use xlink:href="#m580fa30d5f" x="48.074375" y="142.593188" style="stroke: #000000; stroke-width: 0.8"/>
      </g>
     </g>
     <g id="text_8">
      <!-- 6 -->
      <g transform="translate(34.711875 146.392406) scale(0.1 -0.1)">
       <use xlink:href="#DejaVuSans-36"/>
      </g>
     </g>
    </g>
    <g id="ytick_5">
     <g id="line2d_9">
      <g>
       <use xlink:href="#m580fa30d5f" x="48.074375" y="103.283625" style="stroke: #000000; stroke-width: 0.8"/>
      </g>
     </g>
     <g id="text_9">
      <!-- 8 -->
      <g transform="translate(34.711875 107.082844) scale(0.1 -0.1)">
       <use xlink:href="#DejaVuSans-38"/>
      </g>
     </g>
    </g>
    <g id="ytick_6">
     <g id="line2d_10">
      <g>
       <use xlink:href="#m580fa30d5f" x="48.074375" y="63.974063" style="stroke: #000000; stroke-width: 0.8"/>
      </g>
     </g>
     <g id="text_10">
      <!-- 10 -->
      <g transform="translate(28.349375 67.773281) scale(0.1 -0.1)">
       <defs>
        <path id="DejaVuSans-31" d="M 794 531 
L 1825 531 
L 1825 4091 
L 703 3866 
L 703 4441 
L 1819 4666 
L 2450 4666 
L 2450 531 
L 3481 531 
L 3481 0 
L 794 0 
L 794 531 
z
" transform="scale(0.015625)"/>
       </defs>
       <use xlink:href="#DejaVuSans-31"/>
       <use xlink:href="#DejaVuSans-30" x="63.623047"/>
      </g>
     </g>
    </g>
    <g id="text_11">
     <!-- Fraction of cells -->
     <g transform="translate(21.437813 198.811719) rotate(-90) scale(0.14 -0.14)">
      <defs>
       <path id="DejaVuSans-46" d="M 628 4666 
L 3309 4666 
L 3309 4134 
L 1259 4134 
L 1259 2759 
L 3109 2759 
L 3109 2228 
L 1259 2228 
L 1259 0 
L 628 0 
L 628 4666 
z
" transform="scale(0.015625)"/>
       <path id="DejaVuSans-72" d="M 2631 2963 
Q 2534 3019 2420 3045 
Q 2306 3072 2169 3072 
Q 1681 3072 1420 2755 
Q 1159 2438 1159 1844 
L 1159 0 
L 581 0 
L 581 3500 
L 1159 3500 
L 1159 2956 
Q 1341 3275 1631 3429 
Q 1922 3584 2338 3584 
Q 2397 3584 2469 3576 
Q 2541 3569 2628 3553 
L 2631 2963 
z
" transform="scale(0.015625)"/>
       <path id="DejaVuSans-61" d="M 2194 1759 
Q 1497 1759 1228 1600 
Q 959 1441 959 1056 
Q 959 750 1161 570 
Q 1363 391 1709 391 
Q 2188 391 2477 730 
Q 2766 1069 2766 1631 
L 2766 1759 
L 2194 1759 
z
M 3341 1997 
L 3341 0 
L 2766 0 
L 2766 531 
Q 2569 213 2275 61 
Q 1981 -91 1556 -91 
Q 1019 -91 701 211 
Q 384 513 384 1019 
Q 384 1609 779 1909 
Q 1175 2209 1959 2209 
L 2766 2209 
L 2766 2266 
Q 2766 2663 2505 2880 
Q 2244 3097 1772 3097 
Q 1472 3097 1187 3025 
Q 903 2953 641 2809 
L 641 3341 
Q 956 3463 1253 3523 
Q 1550 3584 1831 3584 
Q 2591 3584 2966 3190 
Q 3341 2797 3341 1997 
z
" transform="scale(0.015625)"/>
       <path id="DejaVuSans-63" d="M 3122 3366 
L 3122 2828 
Q 2878 2963 2633 3030 
Q 2388 3097 2138 3097 
Q 1578 3097 1268 2742 
Q 959 2388 959 1747 
Q 959 1106 1268 751 
Q 1578 397 2138 397 
Q 2388 397 2633 464 
Q 2878 531 3122 666 
L 3122 134 
Q 2881 22 2623 -34 
Q 2366 -91 2075 -91 
Q 1284 -91 818 406 
Q 353 903 353 1747 
Q 353 2603 823 3093 
Q 1294 3584 2113 3584 
Q 2378 3584 2631 3529 
Q 2884 3475 3122 3366 
z
" transform="scale(0.015625)"/>
       <path id="DejaVuSans-74" d="M 1172 4494 
L 1172 3500 
L 2356 3500 
L 2356 3053 
L 1172 3053 
L 1172 1153 
Q 1172 725 1289 603 
Q 1406 481 1766 481 
L 2356 481 
L 2356 0 
L 1766 0 
Q 1100 0 847 248 
Q 594 497 594 1153 
L 594 3053 
L 172 3053 
L 172 3500 
L 594 3500 
L 594 4494 
L 1172 4494 
z
" transform="scale(0.015625)"/>
       <path id="DejaVuSans-69" d="M 603 3500 
L 1178 3500 
L 1178 0 
L 603 0 
L 603 3500 
z
M 603 4863 
L 1178 4863 
L 1178 4134 
L 603 4134 
L 603 4863 
z
" transform="scale(0.015625)"/>
       <path id="DejaVuSans-6f" d="M 1959 3097 
Q 1497 3097 1228 2736 
Q 959 2375 959 1747 
Q 959 1119 1226 758 
Q 1494 397 1959 397 
Q 2419 397 2687 759 
Q 2956 1122 2956 1747 
Q 2956 2369 2687 2733 
Q 2419 3097 1959 3097 
z
M 1959 3584 
Q 2709 3584 3137 3096 
Q 3566 2609 3566 1747 
Q 3566 888 3137 398 
Q 2709 -91 1959 -91 
Q 1206 -91 779 398 
Q 353 888 353 1747 
Q 353 2609 779 3096 
Q 1206 3584 1959 3584 
z
" transform="scale(0.015625)"/>
       <path id="DejaVuSans-6e" d="M 3513 2113 
L 3513 0 
L 2938 0 
L 2938 2094 
Q 2938 2591 2744 2837 
Q 2550 3084 2163 3084 
Q 1697 3084 1428 2787 
Q 1159 2491 1159 1978 
L 1159 0 
L 581 0 
L 581 3500 
L 1159 3500 
L 1159 2956 
Q 1366 3272 1645 3428 
Q 1925 3584 2291 3584 
Q 2894 3584 3203 3211 
Q 3513 2838 3513 2113 
z
" transform="scale(0.015625)"/>
       <path id="DejaVuSans-20" transform="scale(0.015625)"/>
       <path id="DejaVuSans-66" d="M 2375 4863 
L 2375 4384 
L 1825 4384 
Q 1516 4384 1395 4259 
Q 1275 4134 1275 3809 
L 1275 3500 
L 2222 3500 
L 2222 3053 
L 1275 3053 
L 1275 0 
L 697 0 
L 697 3053 
L 147 3053 
L 147 3500 
L 697 3500 
L 697 3744 
Q 697 4328 969 4595 
Q 1241 4863 1831 4863 
L 2375 4863 
z
" transform="scale(0.015625)"/>
       <path id="DejaVuSans-65" d="M 3597 1894 
L 3597 1613 
L 953 1613 
Q 991 1019 1311 708 
Q 1631 397 2203 397 
Q 2534 397 2845 478 
Q 3156 559 3463 722 
L 3463 178 
Q 3153 47 2828 -22 
Q 2503 -91 2169 -91 
Q 1331 -91 842 396 
Q 353 884 353 1716 
Q 353 2575 817 3079 
Q 1281 3584 2069 3584 
Q 2775 3584 3186 3129 
Q 3597 2675 3597 1894 
z
M 3022 2063 
Q 3016 2534 2758 2815 
Q 2500 3097 2075 3097 
Q 1594 3097 1305 2825 
Q 1016 2553 972 2059 
L 3022 2063 
z
" transform="scale(0.015625)"/>
       <path id="DejaVuSans-6c" d="M 603 4863 
L 1178 4863 
L 1178 0 
L 603 0 
L 603 4863 
z
" transform="scale(0.015625)"/>
       <path id="DejaVuSans-73" d="M 2834 3397 
L 2834 2853 
Q 2591 2978 2328 3040 
Q 2066 3103 1784 3103 
Q 1356 3103 1142 2972 
Q 928 2841 928 2578 
Q 928 2378 1081 2264 
Q 1234 2150 1697 2047 
L 1894 2003 
Q 2506 1872 2764 1633 
Q 3022 1394 3022 966 
Q 3022 478 2636 193 
Q 2250 -91 1575 -91 
Q 1294 -91 989 -36 
Q 684 19 347 128 
L 347 722 
Q 666 556 975 473 
Q 1284 391 1588 391 
Q 1994 391 2212 530 
Q 2431 669 2431 922 
Q 2431 1156 2273 1281 
Q 2116 1406 1581 1522 
L 1381 1569 
Q 847 1681 609 1914 
Q 372 2147 372 2553 
Q 372 3047 722 3315 
Q 1072 3584 1716 3584 
Q 2034 3584 2315 3537 
Q 2597 3491 2834 3397 
z
" transform="scale(0.015625)"/>
      </defs>
      <use xlink:href="#DejaVuSans-46"/>
      <use xlink:href="#DejaVuSans-72" x="50.269531"/>
      <use xlink:href="#DejaVuSans-61" x="91.382812"/>
      <use xlink:href="#DejaVuSans-63" x="152.662109"/>
      <use xlink:href="#DejaVuSans-74" x="207.642578"/>
      <use xlink:href="#DejaVuSans-69" x="246.851562"/>
      <use xlink:href="#DejaVuSans-6f" x="274.634766"/>
      <use xlink:href="#DejaVuSans-6e" x="335.816406"/>
      <use xlink:href="#DejaVuSans-20" x="399.195312"/>
      <use xlink:href="#DejaVuSans-6f" x="430.982422"/>
      <use xlink:href="#DejaVuSans-66" x="492.164062"/>
      <use xlink:href="#DejaVuSans-20" x="527.369141"/>
      <use xlink:href="#DejaVuSans-63" x="559.15625"/>
      <use xlink:href="#DejaVuSans-65" x="614.136719"/>
      <use xlink:href="#DejaVuSans-6c" x="675.660156"/>
      <use xlink:href="#DejaVuSans-6c" x="703.443359"/>
      <use xlink:href="#DejaVuSans-73" x="731.226562"/>
     </g>
    </g>
   </g>
   <g id="line2d_11">
    <path d="M 48.013368 247.129697 
L 50.380456 244.629443 
L 53.010553 241.507559 
L 55.64065 238.034479 
L 58.533757 233.840674 
L 61.952883 228.4603 
L 66.424048 220.961009 
L 74.051329 208.104349 
L 77.207446 203.228801 
L 79.837543 199.544397 
L 82.20463 196.596686 
L 84.308708 194.31271 
L 86.412786 192.375602 
L 88.253854 190.98265 
L 90.094922 189.882419 
L 91.67298 189.176963 
L 93.251038 188.692296 
L 94.829096 188.427538 
L 96.407155 188.379728 
L 97.985213 188.543943 
L 99.563271 188.913422 
L 101.404339 189.592544 
L 103.245407 190.523406 
L 105.349485 191.871493 
L 107.453563 193.492623 
L 109.82065 195.59967 
L 112.713757 198.507302 
L 116.132883 202.282325 
L 129.020359 216.889649 
L 131.913465 219.654511 
L 134.543563 221.847034 
L 136.91065 223.515677 
L 139.014728 224.730634 
L 141.118805 225.674781 
L 142.959873 226.268181 
L 144.800941 226.637816 
L 146.642009 226.780253 
L 148.483077 226.694909 
L 150.324145 226.384146 
L 152.165213 225.853331 
L 154.006281 225.110844 
L 156.110359 224.017789 
L 158.214436 222.684676 
L 160.581524 220.930503 
L 163.474631 218.481874 
L 166.893757 215.271424 
L 173.995019 208.180145 
L 178.203174 204.1776 
L 181.359291 201.477517 
L 183.989388 199.50177 
L 186.356475 197.976469 
L 188.723563 196.717777 
L 190.82764 195.839072 
L 192.931718 195.197241 
L 195.035796 194.799338 
L 197.139873 194.649414 
L 199.243951 194.748794 
L 201.348029 195.09634 
L 203.452106 195.688677 
L 205.556184 196.520369 
L 207.660262 197.584031 
L 210.027349 199.046315 
L 212.394437 200.774371 
L 215.024534 202.982854 
L 217.91764 205.727254 
L 221.073757 209.043474 
L 224.755893 213.246282 
L 230.016087 219.637977 
L 239.221427 230.878291 
L 243.429582 235.630384 
L 247.111718 239.446093 
L 250.530844 242.65747 
L 253.686961 245.321616 
L 256.843077 247.696255 
L 259.999194 249.790278 
L 263.155311 251.619541 
L 266.311427 253.204041 
L 269.730553 254.669661 
L 273.149679 255.901376 
L 276.831815 256.996569 
L 280.776961 257.93775 
L 281.039971 257.992789 
L 281.039971 257.992789 
" clip-path="url(#p64e105406b)" style="fill: none; stroke: #1f77b4; stroke-width: 1.5; stroke-linecap: square"/>
   </g>
   <g id="line2d_12">
    <path d="M 48.013368 260.521865 
L 74.314339 260.412601 
L 79.837543 260.14952 
L 84.045698 259.722494 
L 87.990844 259.09038 
L 92.988029 258.034783 
L 98.248223 256.966469 
L 101.141329 256.598166 
L 103.771427 256.481624 
L 106.401524 256.593943 
L 109.29463 256.958409 
L 112.976766 257.674849 
L 121.393077 259.401359 
L 125.075213 259.892302 
L 129.020359 260.1915 
L 133.228514 260.284088 
L 137.436669 260.158295 
L 141.381815 259.813616 
L 144.800941 259.298846 
L 148.220067 258.560436 
L 151.902203 257.521142 
L 155.847349 256.161195 
L 159.792495 254.556915 
L 162.948611 253.043803 
L 165.578708 251.556229 
L 167.945796 249.986381 
L 170.312883 248.160888 
L 172.67997 246.066577 
L 175.310068 243.443475 
L 178.466184 239.966083 
L 182.937349 234.671336 
L 188.197543 228.128157 
L 191.35366 223.888344 
L 193.720747 220.37588 
L 195.824825 216.89596 
L 197.928903 212.988134 
L 200.03298 208.584939 
L 202.137058 203.648888 
L 204.504145 197.455736 
L 206.871233 190.625122 
L 209.50133 182.376646 
L 212.657446 171.720038 
L 216.339582 158.486144 
L 226.859971 120.07252 
L 228.964048 113.524206 
L 230.805116 108.493898 
L 232.383175 104.798887 
L 233.698223 102.200591 
L 235.013272 100.066041 
L 236.06531 98.70307 
L 237.117349 97.651156 
L 238.169388 96.91135 
L 239.221427 96.482103 
L 240.010456 96.361858 
L 240.799485 96.412186 
L 241.851524 96.740336 
L 242.903563 97.360903 
L 243.955602 98.267182 
L 245.007641 99.452537 
L 246.322689 101.317091 
L 247.637738 103.596494 
L 249.215796 106.864965 
L 250.793854 110.699535 
L 252.371912 115.083406 
L 254.21298 120.866084 
L 256.317058 128.306144 
L 258.684145 137.635028 
L 261.314243 148.993834 
L 264.733369 164.82828 
L 272.097641 199.252669 
L 274.727738 210.405316 
L 277.094825 219.52201 
L 279.198903 226.783549 
L 281.039971 232.446947 
L 281.039971 232.446947 
" clip-path="url(#p64e105406b)" style="fill: none; stroke: #ff7f0e; stroke-width: 1.5; stroke-linecap: square"/>
   </g>
   <g id="line2d_13">
    <path d="M 48.013368 260.521875 
L 109.55764 260.417571 
L 113.765796 260.176356 
L 116.658902 259.813984 
L 119.288999 259.259098 
L 121.656087 258.515961 
L 123.760165 257.628024 
L 125.864242 256.514164 
L 128.23133 255.006008 
L 131.124436 252.876892 
L 138.488708 247.287091 
L 140.855796 245.843893 
L 143.222883 244.677045 
L 145.85298 243.64501 
L 149.798126 242.11665 
L 151.376184 241.25767 
L 152.691233 240.318192 
L 154.006281 239.109392 
L 155.32133 237.575963 
L 156.636378 235.674536 
L 157.951427 233.378821 
L 159.529485 230.098011 
L 161.107543 226.279809 
L 163.211621 220.507046 
L 166.630747 210.258359 
L 169.786864 201.033744 
L 172.153951 194.817114 
L 174.521038 189.237159 
L 178.992203 178.961146 
L 180.570262 174.725482 
L 182.14832 169.828395 
L 183.726378 164.113057 
L 185.304437 157.499978 
L 187.145504 148.677517 
L 189.249582 137.398299 
L 195.561815 102.49633 
L 197.139873 95.367934 
L 198.454922 90.387971 
L 199.506961 87.12397 
L 200.559 84.548307 
L 201.348029 83.084196 
L 202.137058 82.02577 
L 202.926087 81.371197 
L 203.452106 81.155774 
L 203.978126 81.113219 
L 204.504145 81.239083 
L 205.293174 81.731682 
L 206.082204 82.569273 
L 206.871233 83.726388 
L 207.923272 85.716306 
L 209.23832 88.816077 
L 210.816378 93.226754 
L 213.183466 100.690617 
L 218.44366 117.540522 
L 221.599776 126.668385 
L 226.070941 139.509179 
L 228.175019 146.342806 
L 230.016087 153.044913 
L 232.120165 161.610482 
L 234.487252 172.274418 
L 238.695408 192.580699 
L 241.851524 207.23595 
L 243.955602 216.006615 
L 245.79667 222.800052 
L 247.637738 228.707816 
L 249.215796 233.08142 
L 250.793854 236.869722 
L 252.371912 240.144427 
L 254.21298 243.423257 
L 256.054048 246.235238 
L 258.158126 249.005333 
L 260.262204 251.398449 
L 262.366281 253.467107 
L 264.470359 255.22941 
L 266.574437 256.689124 
L 268.678514 257.852888 
L 270.782592 258.739935 
L 272.88667 259.383677 
L 275.253757 259.871145 
L 278.146864 260.218856 
L 281.039971 260.393013 
L 281.039971 260.393013 
" clip-path="url(#p64e105406b)" style="fill: none; stroke: #2ca02c; stroke-width: 1.5; stroke-linecap: square"/>
   </g>
   <g id="patch_63">
    <path d="M 48.074375 260.521875 
L 48.074375 27.437813 
" style="fill: none; stroke: #000000; stroke-width: 0.8; stroke-linejoin: miter; stroke-linecap: square"/>
   </g>
   <g id="patch_64">
    <path d="M 281.010937 260.521875 
L 281.010937 27.437813 
" style="fill: none; stroke: #000000; stroke-width: 0.8; stroke-linejoin: miter; stroke-linecap: square"/>
   </g>
   <g id="patch_65">
    <path d="M 48.074375 260.521875 
L 281.010938 260.521875 
" style="fill: none; stroke: #000000; stroke-width: 0.8; stroke-linejoin: miter; stroke-linecap: square"/>
   </g>
   <g id="patch_66">
    <path d="M 48.074375 27.437812 
L 281.010938 27.437812 
" style="fill: none; stroke: #000000; stroke-width: 0.8; stroke-linejoin: miter; stroke-linecap: square"/>
   </g>
   <g id="text_12">
    <!-- SRV -->
    <g transform="translate(150.831406 21.437813) scale(0.14 -0.14)">
     <defs>
      <path id="DejaVuSans-53" d="M 3425 4513 
L 3425 3897 
Q 3066 4069 2747 4153 
Q 2428 4238 2131 4238 
Q 1616 4238 1336 4038 
Q 1056 3838 1056 3469 
Q 1056 3159 1242 3001 
Q 1428 2844 1947 2747 
L 2328 2669 
Q 3034 2534 3370 2195 
Q 3706 1856 3706 1288 
Q 3706 609 3251 259 
Q 2797 -91 1919 -91 
Q 1588 -91 1214 -16 
Q 841 59 441 206 
L 441 856 
Q 825 641 1194 531 
Q 1563 422 1919 422 
Q 2459 422 2753 634 
Q 3047 847 3047 1241 
Q 3047 1584 2836 1778 
Q 2625 1972 2144 2069 
L 1759 2144 
Q 1053 2284 737 2584 
Q 422 2884 422 3419 
Q 422 4038 858 4394 
Q 1294 4750 2059 4750 
Q 2388 4750 2728 4690 
Q 3069 4631 3425 4513 
z
" transform="scale(0.015625)"/>
      <path id="DejaVuSans-52" d="M 2841 2188 
Q 3044 2119 3236 1894 
Q 3428 1669 3622 1275 
L 4263 0 
L 3584 0 
L 2988 1197 
Q 2756 1666 2539 1819 
Q 2322 1972 1947 1972 
L 1259 1972 
L 1259 0 
L 628 0 
L 628 4666 
L 2053 4666 
Q 2853 4666 3247 4331 
Q 3641 3997 3641 3322 
Q 3641 2881 3436 2590 
Q 3231 2300 2841 2188 
z
M 1259 4147 
L 1259 2491 
L 2053 2491 
Q 2509 2491 2742 2702 
Q 2975 2913 2975 3322 
Q 2975 3731 2742 3939 
Q 2509 4147 2053 4147 
L 1259 4147 
z
" transform="scale(0.015625)"/>
      <path id="DejaVuSans-56" d="M 1831 0 
L 50 4666 
L 709 4666 
L 2188 738 
L 3669 4666 
L 4325 4666 
L 2547 0 
L 1831 0 
z
" transform="scale(0.015625)"/>
     </defs>
     <use xlink:href="#DejaVuSans-53"/>
     <use xlink:href="#DejaVuSans-52" x="63.476562"/>
     <use xlink:href="#DejaVuSans-56" x="127.458984"/>
    </g>
   </g>
   <g id="legend_1">
    <g id="patch_67">
     <path d="M 56.474375 89.879062 
L 136.46375 89.879062 
Q 138.86375 89.879062 138.86375 87.479062 
L 138.86375 35.837812 
Q 138.86375 33.437812 136.46375 33.437812 
L 56.474375 33.437812 
Q 54.074375 33.437812 54.074375 35.837812 
L 54.074375 87.479062 
Q 54.074375 89.879062 56.474375 89.879062 
z
" style="fill: #ffffff; opacity: 0.8; stroke: #cccccc; stroke-linejoin: miter"/>
    </g>
    <g id="patch_68">
     <path d="M 58.874375 47.355937 
L 82.874375 47.355937 
L 82.874375 38.955937 
L 58.874375 38.955937 
z
" style="fill: #1f77b4; opacity: 0.4"/>
    </g>
    <g id="text_13">
     <!-- control -->
     <g transform="translate(92.474375 47.355937) scale(0.12 -0.12)">
      <use xlink:href="#DejaVuSans-63"/>
      <use xlink:href="#DejaVuSans-6f" x="54.980469"/>
      <use xlink:href="#DejaVuSans-6e" x="116.162109"/>
      <use xlink:href="#DejaVuSans-74" x="179.541016"/>
      <use xlink:href="#DejaVuSans-72" x="218.75"/>
      <use xlink:href="#DejaVuSans-6f" x="257.613281"/>
      <use xlink:href="#DejaVuSans-6c" x="318.794922"/>
     </g>
    </g>
    <g id="patch_69">
     <path d="M 58.874375 64.969687 
L 82.874375 64.969687 
L 82.874375 56.569687 
L 58.874375 56.569687 
z
" style="fill: #ff7f0e; opacity: 0.4"/>
    </g>
    <g id="text_14">
     <!-- cytd -->
     <g transform="translate(92.474375 64.969687) scale(0.12 -0.12)">
      <defs>
       <path id="DejaVuSans-79" d="M 2059 -325 
Q 1816 -950 1584 -1140 
Q 1353 -1331 966 -1331 
L 506 -1331 
L 506 -850 
L 844 -850 
Q 1081 -850 1212 -737 
Q 1344 -625 1503 -206 
L 1606 56 
L 191 3500 
L 800 3500 
L 1894 763 
L 2988 3500 
L 3597 3500 
L 2059 -325 
z
" transform="scale(0.015625)"/>
       <path id="DejaVuSans-64" d="M 2906 2969 
L 2906 4863 
L 3481 4863 
L 3481 0 
L 2906 0 
L 2906 525 
Q 2725 213 2448 61 
Q 2172 -91 1784 -91 
Q 1150 -91 751 415 
Q 353 922 353 1747 
Q 353 2572 751 3078 
Q 1150 3584 1784 3584 
Q 2172 3584 2448 3432 
Q 2725 3281 2906 2969 
z
M 947 1747 
Q 947 1113 1208 752 
Q 1469 391 1925 391 
Q 2381 391 2643 752 
Q 2906 1113 2906 1747 
Q 2906 2381 2643 2742 
Q 2381 3103 1925 3103 
Q 1469 3103 1208 2742 
Q 947 2381 947 1747 
z
" transform="scale(0.015625)"/>
      </defs>
      <use xlink:href="#DejaVuSans-63"/>
      <use xlink:href="#DejaVuSans-79" x="54.980469"/>
      <use xlink:href="#DejaVuSans-74" x="114.160156"/>
      <use xlink:href="#DejaVuSans-64" x="153.369141"/>
     </g>
    </g>
    <g id="patch_70">
     <path d="M 58.874375 82.583437 
L 82.874375 82.583437 
L 82.874375 74.183437 
L 58.874375 74.183437 
z
" style="fill: #2ca02c; opacity: 0.4"/>
    </g>
    <g id="text_15">
     <!-- jasp -->
     <g transform="translate(92.474375 82.583437) scale(0.12 -0.12)">
      <defs>
       <path id="DejaVuSans-6a" d="M 603 3500 
L 1178 3500 
L 1178 -63 
Q 1178 -731 923 -1031 
Q 669 -1331 103 -1331 
L -116 -1331 
L -116 -844 
L 38 -844 
Q 366 -844 484 -692 
Q 603 -541 603 -63 
L 603 3500 
z
M 603 4863 
L 1178 4863 
L 1178 4134 
L 603 4134 
L 603 4863 
z
" transform="scale(0.015625)"/>
       <path id="DejaVuSans-70" d="M 1159 525 
L 1159 -1331 
L 581 -1331 
L 581 3500 
L 1159 3500 
L 1159 2969 
Q 1341 3281 1617 3432 
Q 1894 3584 2278 3584 
Q 2916 3584 3314 3078 
Q 3713 2572 3713 1747 
Q 3713 922 3314 415 
Q 2916 -91 2278 -91 
Q 1894 -91 1617 61 
Q 1341 213 1159 525 
z
M 3116 1747 
Q 3116 2381 2855 2742 
Q 2594 3103 2138 3103 
Q 1681 3103 1420 2742 
Q 1159 2381 1159 1747 
Q 1159 1113 1420 752 
Q 1681 391 2138 391 
Q 2594 391 2855 752 
Q 3116 1113 3116 1747 
z
" transform="scale(0.015625)"/>
      </defs>
      <use xlink:href="#DejaVuSans-6a"/>
      <use xlink:href="#DejaVuSans-61" x="27.783203"/>
      <use xlink:href="#DejaVuSans-73" x="89.0625"/>
      <use xlink:href="#DejaVuSans-70" x="141.162109"/>
     </g>
    </g>
   </g>
  </g>
  <g id="axes_2">
   <g id="patch_71">
    <path d="M 332.263437 260.521875 
L 565.2 260.521875 
L 565.2 27.437812 
L 332.263437 27.437812 
z
" style="fill: #ffffff"/>
   </g>
   <g id="patch_72">
    <path d="M 332.263437 260.521875 
L 340.823719 260.521875 
L 340.823719 254.766799 
L 332.263437 254.766799 
z
" clip-path="url(#p0fbb9100e2)" style="fill: #1f77b4; opacity: 0.4"/>
   </g>
   <g id="patch_73">
    <path d="M 340.823719 260.521875 
L 349.384001 260.521875 
L 349.384001 231.746493 
L 340.823719 231.746493 
z
" clip-path="url(#p0fbb9100e2)" style="fill: #1f77b4; opacity: 0.4"/>
   </g>
   <g id="patch_74">
    <path d="M 349.384001 260.521875 
L 357.944282 260.521875 
L 357.944282 243.256646 
L 349.384001 243.256646 
z
" clip-path="url(#p0fbb9100e2)" style="fill: #1f77b4; opacity: 0.4"/>
   </g>
   <g id="patch_75">
    <path d="M 357.944282 260.521875 
L 366.504564 260.521875 
L 366.504564 231.746493 
L 357.944282 231.746493 
z
" clip-path="url(#p0fbb9100e2)" style="fill: #1f77b4; opacity: 0.4"/>
   </g>
   <g id="patch_76">
    <path d="M 366.504564 260.521875 
L 375.064845 260.521875 
L 375.064845 237.501569 
L 366.504564 237.501569 
z
" clip-path="url(#p0fbb9100e2)" style="fill: #1f77b4; opacity: 0.4"/>
   </g>
   <g id="patch_77">
    <path d="M 375.064845 260.521875 
L 383.625127 260.521875 
L 383.625127 191.460957 
L 375.064845 191.460957 
z
" clip-path="url(#p0fbb9100e2)" style="fill: #1f77b4; opacity: 0.4"/>
   </g>
   <g id="patch_78">
    <path d="M 383.625127 260.521875 
L 392.185408 260.521875 
L 392.185408 197.216034 
L 383.625127 197.216034 
z
" clip-path="url(#p0fbb9100e2)" style="fill: #1f77b4; opacity: 0.4"/>
   </g>
   <g id="patch_79">
    <path d="M 392.185408 260.521875 
L 400.74569 260.521875 
L 400.74569 208.726187 
L 392.185408 208.726187 
z
" clip-path="url(#p0fbb9100e2)" style="fill: #1f77b4; opacity: 0.4"/>
   </g>
   <g id="patch_80">
    <path d="M 400.74569 260.521875 
L 409.305971 260.521875 
L 409.305971 162.685575 
L 400.74569 162.685575 
z
" clip-path="url(#p0fbb9100e2)" style="fill: #1f77b4; opacity: 0.4"/>
   </g>
   <g id="patch_81">
    <path d="M 409.305971 260.521875 
L 417.866253 260.521875 
L 417.866253 202.97111 
L 409.305971 202.97111 
z
" clip-path="url(#p0fbb9100e2)" style="fill: #1f77b4; opacity: 0.4"/>
   </g>
   <g id="patch_82">
    <path d="M 417.866253 260.521875 
L 426.426534 260.521875 
L 426.426534 156.930498 
L 417.866253 156.930498 
z
" clip-path="url(#p0fbb9100e2)" style="fill: #1f77b4; opacity: 0.4"/>
   </g>
   <g id="patch_83">
    <path d="M 426.426534 260.521875 
L 434.986816 260.521875 
L 434.986816 197.216034 
L 426.426534 197.216034 
z
" clip-path="url(#p0fbb9100e2)" style="fill: #1f77b4; opacity: 0.4"/>
   </g>
   <g id="patch_84">
    <path d="M 434.986816 260.521875 
L 443.547097 260.521875 
L 443.547097 168.440651 
L 434.986816 168.440651 
z
" clip-path="url(#p0fbb9100e2)" style="fill: #1f77b4; opacity: 0.4"/>
   </g>
   <g id="patch_85">
    <path d="M 443.547097 260.521875 
L 452.107379 260.521875 
L 452.107379 133.910192 
L 443.547097 133.910192 
z
" clip-path="url(#p0fbb9100e2)" style="fill: #1f77b4; opacity: 0.4"/>
   </g>
   <g id="patch_86">
    <path d="M 452.107379 260.521875 
L 460.667661 260.521875 
L 460.667661 197.216034 
L 452.107379 197.216034 
z
" clip-path="url(#p0fbb9100e2)" style="fill: #1f77b4; opacity: 0.4"/>
   </g>
   <g id="patch_87">
    <path d="M 460.667661 260.521875 
L 469.227942 260.521875 
L 469.227942 174.195728 
L 460.667661 174.195728 
z
" clip-path="url(#p0fbb9100e2)" style="fill: #1f77b4; opacity: 0.4"/>
   </g>
   <g id="patch_88">
    <path d="M 469.227942 260.521875 
L 477.788224 260.521875 
L 477.788224 208.726187 
L 469.227942 208.726187 
z
" clip-path="url(#p0fbb9100e2)" style="fill: #1f77b4; opacity: 0.4"/>
   </g>
   <g id="patch_89">
    <path d="M 477.788224 260.521875 
L 486.348505 260.521875 
L 486.348505 214.481263 
L 477.788224 214.481263 
z
" clip-path="url(#p0fbb9100e2)" style="fill: #1f77b4; opacity: 0.4"/>
   </g>
   <g id="patch_90">
    <path d="M 486.348505 260.521875 
L 494.908787 260.521875 
L 494.908787 197.216034 
L 486.348505 197.216034 
z
" clip-path="url(#p0fbb9100e2)" style="fill: #1f77b4; opacity: 0.4"/>
   </g>
   <g id="patch_91">
    <path d="M 494.908787 260.521875 
L 503.469068 260.521875 
L 503.469068 237.501569 
L 494.908787 237.501569 
z
" clip-path="url(#p0fbb9100e2)" style="fill: #1f77b4; opacity: 0.4"/>
   </g>
   <g id="patch_92">
    <path d="M 335.761583 260.521875 
L 342.992204 260.521875 
L 342.992204 156.928958 
L 335.761583 156.928958 
z
" clip-path="url(#p0fbb9100e2)" style="fill: #ff7f0e; opacity: 0.4"/>
   </g>
   <g id="patch_93">
    <path d="M 342.992204 260.521875 
L 350.222824 260.521875 
L 350.222824 112.531994 
L 342.992204 112.531994 
z
" clip-path="url(#p0fbb9100e2)" style="fill: #ff7f0e; opacity: 0.4"/>
   </g>
   <g id="patch_94">
    <path d="M 350.222824 260.521875 
L 357.453444 260.521875 
L 357.453444 127.330982 
L 350.222824 127.330982 
z
" clip-path="url(#p0fbb9100e2)" style="fill: #ff7f0e; opacity: 0.4"/>
   </g>
   <g id="patch_95">
    <path d="M 357.453444 260.521875 
L 364.684064 260.521875 
L 364.684064 142.12997 
L 357.453444 142.12997 
z
" clip-path="url(#p0fbb9100e2)" style="fill: #ff7f0e; opacity: 0.4"/>
   </g>
   <g id="patch_96">
    <path d="M 364.684064 260.521875 
L 371.914684 260.521875 
L 371.914684 68.13503 
L 364.684064 68.13503 
z
" clip-path="url(#p0fbb9100e2)" style="fill: #ff7f0e; opacity: 0.4"/>
   </g>
   <g id="patch_97">
    <path d="M 371.914684 260.521875 
L 379.145304 260.521875 
L 379.145304 38.537054 
L 371.914684 38.537054 
z
" clip-path="url(#p0fbb9100e2)" style="fill: #ff7f0e; opacity: 0.4"/>
   </g>
   <g id="patch_98">
    <path d="M 379.145304 260.521875 
L 386.375925 260.521875 
L 386.375925 142.12997 
L 379.145304 142.12997 
z
" clip-path="url(#p0fbb9100e2)" style="fill: #ff7f0e; opacity: 0.4"/>
   </g>
   <g id="patch_99">
    <path d="M 386.375925 260.521875 
L 393.606545 260.521875 
L 393.606545 171.727946 
L 386.375925 171.727946 
z
" clip-path="url(#p0fbb9100e2)" style="fill: #ff7f0e; opacity: 0.4"/>
   </g>
   <g id="patch_100">
    <path d="M 393.606545 260.521875 
L 400.837165 260.521875 
L 400.837165 142.12997 
L 393.606545 142.12997 
z
" clip-path="url(#p0fbb9100e2)" style="fill: #ff7f0e; opacity: 0.4"/>
   </g>
   <g id="patch_101">
    <path d="M 400.837165 260.521875 
L 408.067785 260.521875 
L 408.067785 230.923899 
L 400.837165 230.923899 
z
" clip-path="url(#p0fbb9100e2)" style="fill: #ff7f0e; opacity: 0.4"/>
   </g>
   <g id="patch_102">
    <path d="M 408.067785 260.521875 
L 415.298405 260.521875 
L 415.298405 245.722887 
L 408.067785 245.722887 
z
" clip-path="url(#p0fbb9100e2)" style="fill: #ff7f0e; opacity: 0.4"/>
   </g>
   <g id="patch_103">
    <path d="M 415.298405 260.521875 
L 422.529025 260.521875 
L 422.529025 245.722887 
L 415.298405 245.722887 
z
" clip-path="url(#p0fbb9100e2)" style="fill: #ff7f0e; opacity: 0.4"/>
   </g>
   <g id="patch_104">
    <path d="M 422.529025 260.521875 
L 429.759645 260.521875 
L 429.759645 230.923899 
L 422.529025 230.923899 
z
" clip-path="url(#p0fbb9100e2)" style="fill: #ff7f0e; opacity: 0.4"/>
   </g>
   <g id="patch_105">
    <path d="M 429.759645 260.521875 
L 436.990266 260.521875 
L 436.990266 260.521875 
L 429.759645 260.521875 
z
" clip-path="url(#p0fbb9100e2)" style="fill: #ff7f0e; opacity: 0.4"/>
   </g>
   <g id="patch_106">
    <path d="M 436.990266 260.521875 
L 444.220886 260.521875 
L 444.220886 260.521875 
L 436.990266 260.521875 
z
" clip-path="url(#p0fbb9100e2)" style="fill: #ff7f0e; opacity: 0.4"/>
   </g>
   <g id="patch_107">
    <path d="M 444.220886 260.521875 
L 451.451506 260.521875 
L 451.451506 245.722887 
L 444.220886 245.722887 
z
" clip-path="url(#p0fbb9100e2)" style="fill: #ff7f0e; opacity: 0.4"/>
   </g>
   <g id="patch_108">
    <path d="M 451.451506 260.521875 
L 458.682126 260.521875 
L 458.682126 260.521875 
L 451.451506 260.521875 
z
" clip-path="url(#p0fbb9100e2)" style="fill: #ff7f0e; opacity: 0.4"/>
   </g>
   <g id="patch_109">
    <path d="M 458.682126 260.521875 
L 465.912746 260.521875 
L 465.912746 245.722887 
L 458.682126 245.722887 
z
" clip-path="url(#p0fbb9100e2)" style="fill: #ff7f0e; opacity: 0.4"/>
   </g>
   <g id="patch_110">
    <path d="M 465.912746 260.521875 
L 473.143366 260.521875 
L 473.143366 260.521875 
L 465.912746 260.521875 
z
" clip-path="url(#p0fbb9100e2)" style="fill: #ff7f0e; opacity: 0.4"/>
   </g>
   <g id="patch_111">
    <path d="M 473.143366 260.521875 
L 480.373987 260.521875 
L 480.373987 245.722887 
L 473.143366 245.722887 
z
" clip-path="url(#p0fbb9100e2)" style="fill: #ff7f0e; opacity: 0.4"/>
   </g>
   <g id="patch_112">
    <path d="M 335.164692 260.521875 
L 342.924994 260.521875 
L 342.924994 233.524704 
L 335.164692 233.524704 
z
" clip-path="url(#p0fbb9100e2)" style="fill: #2ca02c; opacity: 0.4"/>
   </g>
   <g id="patch_113">
    <path d="M 342.924994 260.521875 
L 350.685297 260.521875 
L 350.685297 220.026118 
L 342.924994 220.026118 
z
" clip-path="url(#p0fbb9100e2)" style="fill: #2ca02c; opacity: 0.4"/>
   </g>
   <g id="patch_114">
    <path d="M 350.685297 260.521875 
L 358.445599 260.521875 
L 358.445599 193.028947 
L 350.685297 193.028947 
z
" clip-path="url(#p0fbb9100e2)" style="fill: #2ca02c; opacity: 0.4"/>
   </g>
   <g id="patch_115">
    <path d="M 358.445599 260.521875 
L 366.205901 260.521875 
L 366.205901 139.034604 
L 358.445599 139.034604 
z
" clip-path="url(#p0fbb9100e2)" style="fill: #2ca02c; opacity: 0.4"/>
   </g>
   <g id="patch_116">
    <path d="M 366.205901 260.521875 
L 373.966204 260.521875 
L 373.966204 206.527532 
L 366.205901 206.527532 
z
" clip-path="url(#p0fbb9100e2)" style="fill: #2ca02c; opacity: 0.4"/>
   </g>
   <g id="patch_117">
    <path d="M 373.966204 260.521875 
L 381.726506 260.521875 
L 381.726506 179.530361 
L 373.966204 179.530361 
z
" clip-path="url(#p0fbb9100e2)" style="fill: #2ca02c; opacity: 0.4"/>
   </g>
   <g id="patch_118">
    <path d="M 381.726506 260.521875 
L 389.486809 260.521875 
L 389.486809 166.031775 
L 381.726506 166.031775 
z
" clip-path="url(#p0fbb9100e2)" style="fill: #2ca02c; opacity: 0.4"/>
   </g>
   <g id="patch_119">
    <path d="M 389.486809 260.521875 
L 397.247111 260.521875 
L 397.247111 85.040261 
L 389.486809 85.040261 
z
" clip-path="url(#p0fbb9100e2)" style="fill: #2ca02c; opacity: 0.4"/>
   </g>
   <g id="patch_120">
    <path d="M 397.247111 260.521875 
L 405.007413 260.521875 
L 405.007413 85.040261 
L 397.247111 85.040261 
z
" clip-path="url(#p0fbb9100e2)" style="fill: #2ca02c; opacity: 0.4"/>
   </g>
   <g id="patch_121">
    <path d="M 405.007413 260.521875 
L 412.767716 260.521875 
L 412.767716 193.028947 
L 405.007413 193.028947 
z
" clip-path="url(#p0fbb9100e2)" style="fill: #2ca02c; opacity: 0.4"/>
   </g>
   <g id="patch_122">
    <path d="M 412.767716 260.521875 
L 420.528018 260.521875 
L 420.528018 193.028947 
L 412.767716 193.028947 
z
" clip-path="url(#p0fbb9100e2)" style="fill: #2ca02c; opacity: 0.4"/>
   </g>
   <g id="patch_123">
    <path d="M 420.528018 260.521875 
L 428.28832 260.521875 
L 428.28832 179.530361 
L 420.528018 179.530361 
z
" clip-path="url(#p0fbb9100e2)" style="fill: #2ca02c; opacity: 0.4"/>
   </g>
   <g id="patch_124">
    <path d="M 428.28832 260.521875 
L 436.048623 260.521875 
L 436.048623 220.026118 
L 428.28832 220.026118 
z
" clip-path="url(#p0fbb9100e2)" style="fill: #2ca02c; opacity: 0.4"/>
   </g>
   <g id="patch_125">
    <path d="M 436.048623 260.521875 
L 443.808925 260.521875 
L 443.808925 193.028947 
L 436.048623 193.028947 
z
" clip-path="url(#p0fbb9100e2)" style="fill: #2ca02c; opacity: 0.4"/>
   </g>
   <g id="patch_126">
    <path d="M 443.808925 260.521875 
L 451.569228 260.521875 
L 451.569228 233.524704 
L 443.808925 233.524704 
z
" clip-path="url(#p0fbb9100e2)" style="fill: #2ca02c; opacity: 0.4"/>
   </g>
   <g id="patch_127">
    <path d="M 451.569228 260.521875 
L 459.32953 260.521875 
L 459.32953 206.527532 
L 451.569228 206.527532 
z
" clip-path="url(#p0fbb9100e2)" style="fill: #2ca02c; opacity: 0.4"/>
   </g>
   <g id="patch_128">
    <path d="M 459.32953 260.521875 
L 467.089832 260.521875 
L 467.089832 233.524704 
L 459.32953 233.524704 
z
" clip-path="url(#p0fbb9100e2)" style="fill: #2ca02c; opacity: 0.4"/>
   </g>
   <g id="patch_129">
    <path d="M 467.089832 260.521875 
L 474.850135 260.521875 
L 474.850135 260.521875 
L 467.089832 260.521875 
z
" clip-path="url(#p0fbb9100e2)" style="fill: #2ca02c; opacity: 0.4"/>
   </g>
   <g id="patch_130">
    <path d="M 474.850135 260.521875 
L 482.610437 260.521875 
L 482.610437 260.521875 
L 474.850135 260.521875 
z
" clip-path="url(#p0fbb9100e2)" style="fill: #2ca02c; opacity: 0.4"/>
   </g>
   <g id="patch_131">
    <path d="M 482.610437 260.521875 
L 490.37074 260.521875 
L 490.37074 247.023289 
L 482.610437 247.023289 
z
" clip-path="url(#p0fbb9100e2)" style="fill: #2ca02c; opacity: 0.4"/>
   </g>
   <g id="matplotlib.axis_3">
    <g id="xtick_5">
     <g id="line2d_14">
      <g>
       <use xlink:href="#m5423305f6a" x="344.245261" y="260.521875" style="stroke: #000000; stroke-width: 0.8"/>
      </g>
     </g>
     <g id="text_16">
      <!-- 3 -->
      <g transform="translate(341.064011 275.120313) scale(0.1 -0.1)">
       <defs>
        <path id="DejaVuSans-33" d="M 2597 2516 
Q 3050 2419 3304 2112 
Q 3559 1806 3559 1356 
Q 3559 666 3084 287 
Q 2609 -91 1734 -91 
Q 1441 -91 1130 -33 
Q 819 25 488 141 
L 488 750 
Q 750 597 1062 519 
Q 1375 441 1716 441 
Q 2309 441 2620 675 
Q 2931 909 2931 1356 
Q 2931 1769 2642 2001 
Q 2353 2234 1838 2234 
L 1294 2234 
L 1294 2753 
L 1863 2753 
Q 2328 2753 2575 2939 
Q 2822 3125 2822 3475 
Q 2822 3834 2567 4026 
Q 2313 4219 1838 4219 
Q 1578 4219 1281 4162 
Q 984 4106 628 3988 
L 628 4550 
Q 988 4650 1302 4700 
Q 1616 4750 1894 4750 
Q 2613 4750 3031 4423 
Q 3450 4097 3450 3541 
Q 3450 3153 3228 2886 
Q 3006 2619 2597 2516 
z
" transform="scale(0.015625)"/>
       </defs>
       <use xlink:href="#DejaVuSans-33"/>
      </g>
     </g>
    </g>
    <g id="xtick_6">
     <g id="line2d_15">
      <g>
       <use xlink:href="#m5423305f6a" x="386.664045" y="260.521875" style="stroke: #000000; stroke-width: 0.8"/>
      </g>
     </g>
     <g id="text_17">
      <!-- 4 -->
      <g transform="translate(383.482795 275.120313) scale(0.1 -0.1)">
       <use xlink:href="#DejaVuSans-34"/>
      </g>
     </g>
    </g>
    <g id="xtick_7">
     <g id="line2d_16">
      <g>
       <use xlink:href="#m5423305f6a" x="429.082828" y="260.521875" style="stroke: #000000; stroke-width: 0.8"/>
      </g>
     </g>
     <g id="text_18">
      <!-- 5 -->
      <g transform="translate(425.901578 275.120313) scale(0.1 -0.1)">
       <defs>
        <path id="DejaVuSans-35" d="M 691 4666 
L 3169 4666 
L 3169 4134 
L 1269 4134 
L 1269 2991 
Q 1406 3038 1543 3061 
Q 1681 3084 1819 3084 
Q 2600 3084 3056 2656 
Q 3513 2228 3513 1497 
Q 3513 744 3044 326 
Q 2575 -91 1722 -91 
Q 1428 -91 1123 -41 
Q 819 9 494 109 
L 494 744 
Q 775 591 1075 516 
Q 1375 441 1709 441 
Q 2250 441 2565 725 
Q 2881 1009 2881 1497 
Q 2881 1984 2565 2268 
Q 2250 2553 1709 2553 
Q 1456 2553 1204 2497 
Q 953 2441 691 2322 
L 691 4666 
z
" transform="scale(0.015625)"/>
       </defs>
       <use xlink:href="#DejaVuSans-35"/>
      </g>
     </g>
    </g>
    <g id="xtick_8">
     <g id="line2d_17">
      <g>
       <use xlink:href="#m5423305f6a" x="471.501612" y="260.521875" style="stroke: #000000; stroke-width: 0.8"/>
      </g>
     </g>
     <g id="text_19">
      <!-- 6 -->
      <g transform="translate(468.320362 275.120313) scale(0.1 -0.1)">
       <use xlink:href="#DejaVuSans-36"/>
      </g>
     </g>
    </g>
    <g id="xtick_9">
     <g id="line2d_18">
      <g>
       <use xlink:href="#m5423305f6a" x="513.920396" y="260.521875" style="stroke: #000000; stroke-width: 0.8"/>
      </g>
     </g>
     <g id="text_20">
      <!-- 7 -->
      <g transform="translate(510.739146 275.120313) scale(0.1 -0.1)">
       <use xlink:href="#DejaVuSans-37"/>
      </g>
     </g>
    </g>
    <g id="xtick_10">
     <g id="line2d_19">
      <g>
       <use xlink:href="#m5423305f6a" x="556.339179" y="260.521875" style="stroke: #000000; stroke-width: 0.8"/>
      </g>
     </g>
     <g id="text_21">
      <!-- 8 -->
      <g transform="translate(553.157929 275.120313) scale(0.1 -0.1)">
       <use xlink:href="#DejaVuSans-38"/>
      </g>
     </g>
    </g>
   </g>
   <g id="matplotlib.axis_4">
    <g id="ytick_7">
     <g id="line2d_20">
      <g>
       <use xlink:href="#m580fa30d5f" x="332.263437" y="260.521875" style="stroke: #000000; stroke-width: 0.8"/>
      </g>
     </g>
     <g id="text_22">
      <!-- 0.0 -->
      <g transform="translate(309.360312 264.321094) scale(0.1 -0.1)">
       <use xlink:href="#DejaVuSans-30"/>
       <use xlink:href="#DejaVuSans-2e" x="63.623047"/>
       <use xlink:href="#DejaVuSans-30" x="95.410156"/>
      </g>
     </g>
    </g>
    <g id="ytick_8">
     <g id="line2d_21">
      <g>
       <use xlink:href="#m580fa30d5f" x="332.263437" y="213.601411" style="stroke: #000000; stroke-width: 0.8"/>
      </g>
     </g>
     <g id="text_23">
      <!-- 0.2 -->
      <g transform="translate(309.360312 217.400629) scale(0.1 -0.1)">
       <use xlink:href="#DejaVuSans-30"/>
       <use xlink:href="#DejaVuSans-2e" x="63.623047"/>
       <use xlink:href="#DejaVuSans-32" x="95.410156"/>
      </g>
     </g>
    </g>
    <g id="ytick_9">
     <g id="line2d_22">
      <g>
       <use xlink:href="#m580fa30d5f" x="332.263437" y="166.680946" style="stroke: #000000; stroke-width: 0.8"/>
      </g>
     </g>
     <g id="text_24">
      <!-- 0.4 -->
      <g transform="translate(309.360312 170.480165) scale(0.1 -0.1)">
       <use xlink:href="#DejaVuSans-30"/>
       <use xlink:href="#DejaVuSans-2e" x="63.623047"/>
       <use xlink:href="#DejaVuSans-34" x="95.410156"/>
      </g>
     </g>
    </g>
    <g id="ytick_10">
     <g id="line2d_23">
      <g>
       <use xlink:href="#m580fa30d5f" x="332.263437" y="119.760482" style="stroke: #000000; stroke-width: 0.8"/>
      </g>
     </g>
     <g id="text_25">
      <!-- 0.6 -->
      <g transform="translate(309.360312 123.559701) scale(0.1 -0.1)">
       <use xlink:href="#DejaVuSans-30"/>
       <use xlink:href="#DejaVuSans-2e" x="63.623047"/>
       <use xlink:href="#DejaVuSans-36" x="95.410156"/>
      </g>
     </g>
    </g>
    <g id="ytick_11">
     <g id="line2d_24">
      <g>
       <use xlink:href="#m580fa30d5f" x="332.263437" y="72.840017" style="stroke: #000000; stroke-width: 0.8"/>
      </g>
     </g>
     <g id="text_26">
      <!-- 0.8 -->
      <g transform="translate(309.360312 76.639236) scale(0.1 -0.1)">
       <use xlink:href="#DejaVuSans-30"/>
       <use xlink:href="#DejaVuSans-2e" x="63.623047"/>
       <use xlink:href="#DejaVuSans-38" x="95.410156"/>
      </g>
     </g>
    </g>
    <g id="text_27">
     <!-- Fraction of cells -->
     <g transform="translate(302.44875 198.811719) rotate(-90) scale(0.14 -0.14)">
      <use xlink:href="#DejaVuSans-46"/>
      <use xlink:href="#DejaVuSans-72" x="50.269531"/>
      <use xlink:href="#DejaVuSans-61" x="91.382812"/>
      <use xlink:href="#DejaVuSans-63" x="152.662109"/>
      <use xlink:href="#DejaVuSans-74" x="207.642578"/>
      <use xlink:href="#DejaVuSans-69" x="246.851562"/>
      <use xlink:href="#DejaVuSans-6f" x="274.634766"/>
      <use xlink:href="#DejaVuSans-6e" x="335.816406"/>
      <use xlink:href="#DejaVuSans-20" x="399.195312"/>
      <use xlink:href="#DejaVuSans-6f" x="430.982422"/>
      <use xlink:href="#DejaVuSans-66" x="492.164062"/>
      <use xlink:href="#DejaVuSans-20" x="527.369141"/>
      <use xlink:href="#DejaVuSans-63" x="559.15625"/>
      <use xlink:href="#DejaVuSans-65" x="614.136719"/>
      <use xlink:href="#DejaVuSans-6c" x="675.660156"/>
      <use xlink:href="#DejaVuSans-6c" x="703.443359"/>
      <use xlink:href="#DejaVuSans-73" x="731.226562"/>
     </g>
    </g>
   </g>
   <g id="line2d_25">
    <path d="M 332.12864 252.889183 
L 335.84214 250.586755 
L 341.189581 246.972633 
L 352.478622 239.029482 
L 356.043582 236.253054 
L 359.014382 233.653256 
L 361.688102 231.014781 
L 364.361823 228.060047 
L 367.332623 224.420983 
L 371.046123 219.475106 
L 379.067284 208.669434 
L 382.038084 205.114127 
L 384.711804 202.246584 
L 387.385525 199.694888 
L 390.356325 197.180081 
L 393.772745 194.590971 
L 398.674566 191.178195 
L 405.507406 186.687637 
L 409.815067 184.106764 
L 413.231487 182.312565 
L 416.499367 180.847181 
L 420.064328 179.502543 
L 425.857388 177.608002 
L 431.204828 175.760848 
L 440.414309 172.463173 
L 442.642409 171.978833 
L 444.57343 171.783317 
L 446.35591 171.830372 
L 447.98985 172.091392 
L 449.62379 172.577265 
L 451.25773 173.296512 
L 452.89167 174.25012 
L 454.67415 175.550131 
L 456.605171 177.244661 
L 458.684731 179.366485 
L 461.209911 182.286661 
L 464.329251 186.274449 
L 469.082532 192.770584 
L 477.252232 203.921563 
L 493.591634 225.784589 
L 506.514615 244.02623 
L 509.336875 247.443185 
L 511.862055 250.155025 
L 514.238696 252.375334 
L 516.466796 254.154107 
L 518.694896 255.64472 
L 520.922996 256.863603 
L 523.151096 257.835906 
L 525.527737 258.635939 
L 528.201457 259.29276 
L 531.172257 259.786815 
L 534.737217 260.146249 
L 539.490498 260.382236 
L 546.917498 260.49803 
L 565.33646 260.521786 
L 565.33646 260.521786 
" clip-path="url(#p0fbb9100e2)" style="fill: none; stroke: #1f77b4; stroke-width: 1.5; stroke-linecap: square"/>
   </g>
   <g id="line2d_26">
    <path d="M 332.12864 217.40648 
L 334.50528 206.05533 
L 338.6644 184.804974 
L 341.932281 168.616548 
L 344.160381 158.637096 
L 346.091401 150.947759 
L 347.873881 144.702181 
L 349.656361 139.236482 
L 351.587382 134.062011 
L 353.815482 128.7793 
L 357.826062 120.014715 
L 366.144303 102.12585 
L 367.629703 99.677833 
L 368.818023 98.137649 
L 369.857803 97.160888 
L 370.749043 96.635362 
L 371.491743 96.435493 
L 372.234443 96.463724 
L 372.977143 96.728034 
L 373.719844 97.233376 
L 374.611084 98.160309 
L 375.502324 99.434019 
L 376.542104 101.345846 
L 377.730424 104.061502 
L 379.067284 107.73077 
L 380.552684 112.461973 
L 382.483704 119.413612 
L 385.157424 129.985367 
L 398.971646 185.923794 
L 402.982226 201.123717 
L 405.655946 210.42346 
L 407.735506 216.925275 
L 409.666527 222.259481 
L 411.449007 226.530765 
L 413.082947 229.893673 
L 414.716887 232.758337 
L 416.350827 235.179138 
L 418.133307 237.398095 
L 420.064328 239.422272 
L 422.292428 241.429866 
L 425.560308 244.049014 
L 430.610668 247.798545 
L 433.730009 249.863528 
L 436.106649 251.179789 
L 438.186209 252.087989 
L 440.265769 252.744434 
L 442.345329 253.153634 
L 444.57343 253.352916 
L 447.24715 253.354233 
L 457.347871 253.112402 
L 460.764291 253.403771 
L 466.557352 254.174944 
L 472.201872 254.82747 
L 480.817193 255.756893 
L 484.530693 256.440806 
L 489.135433 257.539731 
L 495.522654 259.048259 
L 499.236154 259.685567 
L 503.098195 260.112989 
L 507.554395 260.369621 
L 514.090156 260.495827 
L 531.914957 260.521844 
L 565.33646 260.521875 
L 565.33646 260.521875 
" clip-path="url(#p0fbb9100e2)" style="fill: none; stroke: #ff7f0e; stroke-width: 1.5; stroke-linecap: square"/>
   </g>
   <g id="line2d_27">
    <path d="M 332.12864 244.871428 
L 334.35674 241.491375 
L 336.73338 237.447748 
L 339.258561 232.691636 
L 342.229361 226.581891 
L 346.091401 218.074164 
L 353.369862 201.946882 
L 356.340662 195.951086 
L 359.014382 191.035362 
L 361.688102 186.586755 
L 364.658903 182.09632 
L 374.016924 168.358144 
L 376.690644 163.778067 
L 379.661444 158.220504 
L 386.791365 144.643802 
L 388.573845 141.828646 
L 390.059245 139.858691 
L 391.396105 138.442073 
L 392.584425 137.504823 
L 393.624205 136.955087 
L 394.663985 136.671985 
L 395.555225 136.648749 
L 396.446465 136.831659 
L 397.337706 137.221577 
L 398.377486 137.935849 
L 399.417266 138.922924 
L 400.605586 140.370812 
L 401.942446 142.379908 
L 403.427846 145.035672 
L 405.210326 148.718278 
L 407.438426 153.891247 
L 411.003387 162.851367 
L 415.311047 173.547112 
L 417.984767 179.575629 
L 420.212868 184.085824 
L 422.440968 188.092789 
L 424.520528 191.38976 
L 426.748628 194.491613 
L 428.976728 197.215586 
L 431.501908 199.948777 
L 434.621249 202.981 
L 446.65299 214.319268 
L 449.92087 217.880588 
L 453.18875 221.779194 
L 456.605171 226.222401 
L 460.764291 232.031776 
L 467.745672 241.821806 
L 470.419392 245.165184 
L 472.796032 247.787507 
L 474.875592 249.765496 
L 476.955152 251.43122 
L 478.886173 252.702955 
L 480.965733 253.798914 
L 483.045293 254.648885 
L 485.421933 255.38082 
L 488.392733 256.048391 
L 493.146014 256.850607 
L 512.456215 259.778625 
L 517.506576 260.173301 
L 523.448176 260.404372 
L 532.509117 260.507047 
L 565.33646 260.521875 
L 565.33646 260.521875 
" clip-path="url(#p0fbb9100e2)" style="fill: none; stroke: #2ca02c; stroke-width: 1.5; stroke-linecap: square"/>
   </g>
   <g id="patch_132">
    <path d="M 332.263437 260.521875 
L 332.263437 27.437813 
" style="fill: none; stroke: #000000; stroke-width: 0.8; stroke-linejoin: miter; stroke-linecap: square"/>
   </g>
   <g id="patch_133">
    <path d="M 565.2 260.521875 
L 565.2 27.437813 
" style="fill: none; stroke: #000000; stroke-width: 0.8; stroke-linejoin: miter; stroke-linecap: square"/>
   </g>
   <g id="patch_134">
    <path d="M 332.263437 260.521875 
L 565.2 260.521875 
" style="fill: none; stroke: #000000; stroke-width: 0.8; stroke-linejoin: miter; stroke-linecap: square"/>
   </g>
   <g id="patch_135">
    <path d="M 332.263437 27.437812 
L 565.2 27.437812 
" style="fill: none; stroke: #000000; stroke-width: 0.8; stroke-linejoin: miter; stroke-linecap: square"/>
   </g>
   <g id="text_28">
    <!-- Linear -->
    <g transform="translate(426.975937 21.437813) scale(0.14 -0.14)">
     <defs>
      <path id="DejaVuSans-4c" d="M 628 4666 
L 1259 4666 
L 1259 531 
L 3531 531 
L 3531 0 
L 628 0 
L 628 4666 
z
" transform="scale(0.015625)"/>
     </defs>
     <use xlink:href="#DejaVuSans-4c"/>
     <use xlink:href="#DejaVuSans-69" x="55.712891"/>
     <use xlink:href="#DejaVuSans-6e" x="83.496094"/>
     <use xlink:href="#DejaVuSans-65" x="146.875"/>
     <use xlink:href="#DejaVuSans-61" x="208.398438"/>
     <use xlink:href="#DejaVuSans-72" x="269.677734"/>
    </g>
   </g>
   <g id="legend_2">
    <g id="patch_136">
     <path d="M 476.810625 89.879062 
L 556.8 89.879062 
Q 559.2 89.879062 559.2 87.479062 
L 559.2 35.837812 
Q 559.2 33.437812 556.8 33.437812 
L 476.810625 33.437812 
Q 474.410625 33.437812 474.410625 35.837812 
L 474.410625 87.479062 
Q 474.410625 89.879062 476.810625 89.879062 
z
" style="fill: #ffffff; opacity: 0.8; stroke: #cccccc; stroke-linejoin: miter"/>
    </g>
    <g id="patch_137">
     <path d="M 479.210625 47.355937 
L 503.210625 47.355937 
L 503.210625 38.955937 
L 479.210625 38.955937 
z
" style="fill: #1f77b4; opacity: 0.4"/>
    </g>
    <g id="text_29">
     <!-- control -->
     <g transform="translate(512.810625 47.355937) scale(0.12 -0.12)">
      <use xlink:href="#DejaVuSans-63"/>
      <use xlink:href="#DejaVuSans-6f" x="54.980469"/>
      <use xlink:href="#DejaVuSans-6e" x="116.162109"/>
      <use xlink:href="#DejaVuSans-74" x="179.541016"/>
      <use xlink:href="#DejaVuSans-72" x="218.75"/>
      <use xlink:href="#DejaVuSans-6f" x="257.613281"/>
      <use xlink:href="#DejaVuSans-6c" x="318.794922"/>
     </g>
    </g>
    <g id="patch_138">
     <path d="M 479.210625 64.969687 
L 503.210625 64.969687 
L 503.210625 56.569687 
L 479.210625 56.569687 
z
" style="fill: #ff7f0e; opacity: 0.4"/>
    </g>
    <g id="text_30">
     <!-- cytd -->
     <g transform="translate(512.810625 64.969687) scale(0.12 -0.12)">
      <use xlink:href="#DejaVuSans-63"/>
      <use xlink:href="#DejaVuSans-79" x="54.980469"/>
      <use xlink:href="#DejaVuSans-74" x="114.160156"/>
      <use xlink:href="#DejaVuSans-64" x="153.369141"/>
     </g>
    </g>
    <g id="patch_139">
     <path d="M 479.210625 82.583437 
L 503.210625 82.583437 
L 503.210625 74.183437 
L 479.210625 74.183437 
z
" style="fill: #2ca02c; opacity: 0.4"/>
    </g>
    <g id="text_31">
     <!-- jasp -->
     <g transform="translate(512.810625 82.583437) scale(0.12 -0.12)">
      <use xlink:href="#DejaVuSans-6a"/>
      <use xlink:href="#DejaVuSans-61" x="27.783203"/>
      <use xlink:href="#DejaVuSans-73" x="89.0625"/>
      <use xlink:href="#DejaVuSans-70" x="141.162109"/>
     </g>
    </g>
   </g>
  </g>
 </g>
 <defs>
  <clipPath id="p64e105406b">
   <rect x="48.074375" y="27.437813" width="232.936562" height="233.084062"/>
  </clipPath>
  <clipPath id="p0fbb9100e2">
   <rect x="332.263437" y="27.437813" width="232.936563" height="233.084062"/>
  </clipPath>
 </defs>
</svg>
