<?xml version="1.0" encoding="utf-8" standalone="no"?>
<!DOCTYPE svg PUBLIC "-//W3C//DTD SVG 1.1//EN"
  "http://www.w3.org/Graphics/SVG/1.1/DTD/svg11.dtd">
<svg xmlns:xlink="http://www.w3.org/1999/xlink" width="576pt" height="288pt" viewBox="0 0 576 288" xmlns="http://www.w3.org/2000/svg" version="1.1">
 <metadata>
  <rdf:RDF xmlns:dc="http://purl.org/dc/elements/1.1/" xmlns:cc="http://creativecommons.org/ns#" xmlns:rdf="http://www.w3.org/1999/02/22-rdf-syntax-ns#">
   <cc:Work>
    <dc:type rdf:resource="http://purl.org/dc/dcmitype/StillImage"/>
    <dc:date>2024-04-08T18:34:38.803011</dc:date>
    <dc:format>image/svg+xml</dc:format>
    <dc:creator>
     <cc:Agent>
      <dc:title>Matplotlib v3.8.4, https://matplotlib.org/</dc:title>
     </cc:Agent>
    </dc:creator>
   </cc:Work>
  </rdf:RDF>
 </metadata>
 <defs>
  <style type="text/css">*{stroke-linejoin: round; stroke-linecap: butt}</style>
 </defs>
 <g id="figure_1">
  <g id="patch_1">
   <path d="M 0 288 
L 576 288 
L 576 0 
L 0 0 
z
" style="fill: #ffffff"/>
  </g>
  <g id="axes_1">
   <g id="patch_2">
    <path d="M 41.711875 260.521875 
L 287.53125 260.521875 
L 287.53125 57.594062 
L 41.711875 57.594062 
z
" style="fill: #ffffff"/>
   </g>
   <g id="patch_3">
    <path d="M 98.517062 260.521875 
L 107.897612 260.521875 
L 107.897612 255.953736 
L 98.517062 255.953736 
z
" clip-path="url(#p5a9a0e5ed7)" style="fill: #1f77b4; opacity: 0.4"/>
   </g>
   <g id="patch_4">
    <path d="M 107.897612 260.521875 
L 117.278163 260.521875 
L 117.278163 233.113038 
L 107.897612 233.113038 
z
" clip-path="url(#p5a9a0e5ed7)" style="fill: #1f77b4; opacity: 0.4"/>
   </g>
   <g id="patch_5">
    <path d="M 117.278163 260.521875 
L 126.658714 260.521875 
L 126.658714 205.704201 
L 117.278163 205.704201 
z
" clip-path="url(#p5a9a0e5ed7)" style="fill: #1f77b4; opacity: 0.4"/>
   </g>
   <g id="patch_6">
    <path d="M 126.658714 260.521875 
L 136.039265 260.521875 
L 136.039265 109.773272 
L 126.658714 109.773272 
z
" clip-path="url(#p5a9a0e5ed7)" style="fill: #1f77b4; opacity: 0.4"/>
   </g>
   <g id="patch_7">
    <path d="M 136.039265 260.521875 
L 145.419816 260.521875 
L 145.419816 132.61397 
L 136.039265 132.61397 
z
" clip-path="url(#p5a9a0e5ed7)" style="fill: #1f77b4; opacity: 0.4"/>
   </g>
   <g id="patch_8">
    <path d="M 145.419816 260.521875 
L 154.800367 260.521875 
L 154.800367 173.727225 
L 145.419816 173.727225 
z
" clip-path="url(#p5a9a0e5ed7)" style="fill: #1f77b4; opacity: 0.4"/>
   </g>
   <g id="patch_9">
    <path d="M 154.800367 260.521875 
L 164.180918 260.521875 
L 164.180918 155.454667 
L 154.800367 155.454667 
z
" clip-path="url(#p5a9a0e5ed7)" style="fill: #1f77b4; opacity: 0.4"/>
   </g>
   <g id="patch_10">
    <path d="M 164.180918 260.521875 
L 173.561469 260.521875 
L 173.561469 182.863504 
L 164.180918 182.863504 
z
" clip-path="url(#p5a9a0e5ed7)" style="fill: #1f77b4; opacity: 0.4"/>
   </g>
   <g id="patch_11">
    <path d="M 173.561469 260.521875 
L 182.94202 260.521875 
L 182.94202 210.272341 
L 173.561469 210.272341 
z
" clip-path="url(#p5a9a0e5ed7)" style="fill: #1f77b4; opacity: 0.4"/>
   </g>
   <g id="patch_12">
    <path d="M 182.94202 260.521875 
L 192.322571 260.521875 
L 192.322571 178.295365 
L 182.94202 178.295365 
z
" clip-path="url(#p5a9a0e5ed7)" style="fill: #1f77b4; opacity: 0.4"/>
   </g>
   <g id="patch_13">
    <path d="M 192.322571 260.521875 
L 201.703122 260.521875 
L 201.703122 223.976759 
L 192.322571 223.976759 
z
" clip-path="url(#p5a9a0e5ed7)" style="fill: #1f77b4; opacity: 0.4"/>
   </g>
   <g id="patch_14">
    <path d="M 201.703122 260.521875 
L 211.083672 260.521875 
L 211.083672 228.544899 
L 201.703122 228.544899 
z
" clip-path="url(#p5a9a0e5ed7)" style="fill: #1f77b4; opacity: 0.4"/>
   </g>
   <g id="patch_15">
    <path d="M 211.083672 260.521875 
L 220.464223 260.521875 
L 220.464223 237.681178 
L 211.083672 237.681178 
z
" clip-path="url(#p5a9a0e5ed7)" style="fill: #1f77b4; opacity: 0.4"/>
   </g>
   <g id="patch_16">
    <path d="M 220.464223 260.521875 
L 229.844774 260.521875 
L 229.844774 228.544899 
L 220.464223 228.544899 
z
" clip-path="url(#p5a9a0e5ed7)" style="fill: #1f77b4; opacity: 0.4"/>
   </g>
   <g id="patch_17">
    <path d="M 229.844774 260.521875 
L 239.225325 260.521875 
L 239.225325 251.385596 
L 229.844774 251.385596 
z
" clip-path="url(#p5a9a0e5ed7)" style="fill: #1f77b4; opacity: 0.4"/>
   </g>
   <g id="patch_18">
    <path d="M 239.225325 260.521875 
L 248.605876 260.521875 
L 248.605876 251.385596 
L 239.225325 251.385596 
z
" clip-path="url(#p5a9a0e5ed7)" style="fill: #1f77b4; opacity: 0.4"/>
   </g>
   <g id="patch_19">
    <path d="M 248.605876 260.521875 
L 257.986427 260.521875 
L 257.986427 255.953736 
L 248.605876 255.953736 
z
" clip-path="url(#p5a9a0e5ed7)" style="fill: #1f77b4; opacity: 0.4"/>
   </g>
   <g id="patch_20">
    <path d="M 257.986427 260.521875 
L 267.366978 260.521875 
L 267.366978 255.953736 
L 257.986427 255.953736 
z
" clip-path="url(#p5a9a0e5ed7)" style="fill: #1f77b4; opacity: 0.4"/>
   </g>
   <g id="patch_21">
    <path d="M 267.366978 260.521875 
L 276.747529 260.521875 
L 276.747529 255.953736 
L 267.366978 255.953736 
z
" clip-path="url(#p5a9a0e5ed7)" style="fill: #1f77b4; opacity: 0.4"/>
   </g>
   <g id="patch_22">
    <path d="M 276.747529 260.521875 
L 286.12808 260.521875 
L 286.12808 251.385596 
L 276.747529 251.385596 
z
" clip-path="url(#p5a9a0e5ed7)" style="fill: #1f77b4; opacity: 0.4"/>
   </g>
   <g id="patch_23">
    <path d="M 154.376254 260.521875 
L 160.212638 260.521875 
L 160.212638 212.205729 
L 154.376254 212.205729 
z
" clip-path="url(#p5a9a0e5ed7)" style="fill: #ff7f0e; opacity: 0.4"/>
   </g>
   <g id="patch_24">
    <path d="M 160.212638 260.521875 
L 166.049023 260.521875 
L 166.049023 212.205729 
L 160.212638 212.205729 
z
" clip-path="url(#p5a9a0e5ed7)" style="fill: #ff7f0e; opacity: 0.4"/>
   </g>
   <g id="patch_25">
    <path d="M 166.049023 260.521875 
L 171.885407 260.521875 
L 171.885407 244.416493 
L 166.049023 244.416493 
z
" clip-path="url(#p5a9a0e5ed7)" style="fill: #ff7f0e; opacity: 0.4"/>
   </g>
   <g id="patch_26">
    <path d="M 171.885407 260.521875 
L 177.721792 260.521875 
L 177.721792 260.521875 
L 171.885407 260.521875 
z
" clip-path="url(#p5a9a0e5ed7)" style="fill: #ff7f0e; opacity: 0.4"/>
   </g>
   <g id="patch_27">
    <path d="M 177.721792 260.521875 
L 183.558176 260.521875 
L 183.558176 196.100347 
L 177.721792 196.100347 
z
" clip-path="url(#p5a9a0e5ed7)" style="fill: #ff7f0e; opacity: 0.4"/>
   </g>
   <g id="patch_28">
    <path d="M 183.558176 260.521875 
L 189.39456 260.521875 
L 189.39456 196.100347 
L 183.558176 196.100347 
z
" clip-path="url(#p5a9a0e5ed7)" style="fill: #ff7f0e; opacity: 0.4"/>
   </g>
   <g id="patch_29">
    <path d="M 189.39456 260.521875 
L 195.230945 260.521875 
L 195.230945 212.205729 
L 189.39456 212.205729 
z
" clip-path="url(#p5a9a0e5ed7)" style="fill: #ff7f0e; opacity: 0.4"/>
   </g>
   <g id="patch_30">
    <path d="M 195.230945 260.521875 
L 201.067329 260.521875 
L 201.067329 115.573437 
L 195.230945 115.573437 
z
" clip-path="url(#p5a9a0e5ed7)" style="fill: #ff7f0e; opacity: 0.4"/>
   </g>
   <g id="patch_31">
    <path d="M 201.067329 260.521875 
L 206.903714 260.521875 
L 206.903714 67.257292 
L 201.067329 67.257292 
z
" clip-path="url(#p5a9a0e5ed7)" style="fill: #ff7f0e; opacity: 0.4"/>
   </g>
   <g id="patch_32">
    <path d="M 206.903714 260.521875 
L 212.740098 260.521875 
L 212.740098 131.678819 
L 206.903714 131.678819 
z
" clip-path="url(#p5a9a0e5ed7)" style="fill: #ff7f0e; opacity: 0.4"/>
   </g>
   <g id="patch_33">
    <path d="M 212.740098 260.521875 
L 218.576483 260.521875 
L 218.576483 99.468056 
L 212.740098 99.468056 
z
" clip-path="url(#p5a9a0e5ed7)" style="fill: #ff7f0e; opacity: 0.4"/>
   </g>
   <g id="patch_34">
    <path d="M 218.576483 260.521875 
L 224.412867 260.521875 
L 224.412867 147.784201 
L 218.576483 147.784201 
z
" clip-path="url(#p5a9a0e5ed7)" style="fill: #ff7f0e; opacity: 0.4"/>
   </g>
   <g id="patch_35">
    <path d="M 224.412867 260.521875 
L 230.249251 260.521875 
L 230.249251 163.889583 
L 224.412867 163.889583 
z
" clip-path="url(#p5a9a0e5ed7)" style="fill: #ff7f0e; opacity: 0.4"/>
   </g>
   <g id="patch_36">
    <path d="M 230.249251 260.521875 
L 236.085636 260.521875 
L 236.085636 131.678819 
L 230.249251 131.678819 
z
" clip-path="url(#p5a9a0e5ed7)" style="fill: #ff7f0e; opacity: 0.4"/>
   </g>
   <g id="patch_37">
    <path d="M 236.085636 260.521875 
L 241.92202 260.521875 
L 241.92202 163.889583 
L 236.085636 163.889583 
z
" clip-path="url(#p5a9a0e5ed7)" style="fill: #ff7f0e; opacity: 0.4"/>
   </g>
   <g id="patch_38">
    <path d="M 241.92202 260.521875 
L 247.758405 260.521875 
L 247.758405 212.205729 
L 241.92202 212.205729 
z
" clip-path="url(#p5a9a0e5ed7)" style="fill: #ff7f0e; opacity: 0.4"/>
   </g>
   <g id="patch_39">
    <path d="M 247.758405 260.521875 
L 253.594789 260.521875 
L 253.594789 212.205729 
L 247.758405 212.205729 
z
" clip-path="url(#p5a9a0e5ed7)" style="fill: #ff7f0e; opacity: 0.4"/>
   </g>
   <g id="patch_40">
    <path d="M 253.594789 260.521875 
L 259.431174 260.521875 
L 259.431174 260.521875 
L 253.594789 260.521875 
z
" clip-path="url(#p5a9a0e5ed7)" style="fill: #ff7f0e; opacity: 0.4"/>
   </g>
   <g id="patch_41">
    <path d="M 259.431174 260.521875 
L 265.267558 260.521875 
L 265.267558 260.521875 
L 259.431174 260.521875 
z
" clip-path="url(#p5a9a0e5ed7)" style="fill: #ff7f0e; opacity: 0.4"/>
   </g>
   <g id="patch_42">
    <path d="M 265.267558 260.521875 
L 271.103942 260.521875 
L 271.103942 212.205729 
L 265.267558 212.205729 
z
" clip-path="url(#p5a9a0e5ed7)" style="fill: #ff7f0e; opacity: 0.4"/>
   </g>
   <g id="patch_43">
    <path d="M 127.920907 260.521875 
L 135.050943 260.521875 
L 135.050943 234.710415 
L 127.920907 234.710415 
z
" clip-path="url(#p5a9a0e5ed7)" style="fill: #2ca02c; opacity: 0.4"/>
   </g>
   <g id="patch_44">
    <path d="M 135.050943 260.521875 
L 142.180978 260.521875 
L 142.180978 260.521875 
L 135.050943 260.521875 
z
" clip-path="url(#p5a9a0e5ed7)" style="fill: #2ca02c; opacity: 0.4"/>
   </g>
   <g id="patch_45">
    <path d="M 142.180978 260.521875 
L 149.311014 260.521875 
L 149.311014 247.616145 
L 142.180978 247.616145 
z
" clip-path="url(#p5a9a0e5ed7)" style="fill: #2ca02c; opacity: 0.4"/>
   </g>
   <g id="patch_46">
    <path d="M 149.311014 260.521875 
L 156.441049 260.521875 
L 156.441049 221.804685 
L 149.311014 221.804685 
z
" clip-path="url(#p5a9a0e5ed7)" style="fill: #2ca02c; opacity: 0.4"/>
   </g>
   <g id="patch_47">
    <path d="M 156.441049 260.521875 
L 163.571084 260.521875 
L 163.571084 144.370306 
L 156.441049 144.370306 
z
" clip-path="url(#p5a9a0e5ed7)" style="fill: #2ca02c; opacity: 0.4"/>
   </g>
   <g id="patch_48">
    <path d="M 163.571084 260.521875 
L 170.70112 260.521875 
L 170.70112 208.898956 
L 163.571084 208.898956 
z
" clip-path="url(#p5a9a0e5ed7)" style="fill: #2ca02c; opacity: 0.4"/>
   </g>
   <g id="patch_49">
    <path d="M 170.70112 260.521875 
L 177.831155 260.521875 
L 177.831155 105.653117 
L 170.70112 105.653117 
z
" clip-path="url(#p5a9a0e5ed7)" style="fill: #2ca02c; opacity: 0.4"/>
   </g>
   <g id="patch_50">
    <path d="M 177.831155 260.521875 
L 184.961191 260.521875 
L 184.961191 105.653117 
L 177.831155 105.653117 
z
" clip-path="url(#p5a9a0e5ed7)" style="fill: #2ca02c; opacity: 0.4"/>
   </g>
   <g id="patch_51">
    <path d="M 184.961191 260.521875 
L 192.091226 260.521875 
L 192.091226 157.276036 
L 184.961191 157.276036 
z
" clip-path="url(#p5a9a0e5ed7)" style="fill: #2ca02c; opacity: 0.4"/>
   </g>
   <g id="patch_52">
    <path d="M 192.091226 260.521875 
L 199.221262 260.521875 
L 199.221262 118.558846 
L 192.091226 118.558846 
z
" clip-path="url(#p5a9a0e5ed7)" style="fill: #2ca02c; opacity: 0.4"/>
   </g>
   <g id="patch_53">
    <path d="M 199.221262 260.521875 
L 206.351297 260.521875 
L 206.351297 183.087496 
L 199.221262 183.087496 
z
" clip-path="url(#p5a9a0e5ed7)" style="fill: #2ca02c; opacity: 0.4"/>
   </g>
   <g id="patch_54">
    <path d="M 206.351297 260.521875 
L 213.481333 260.521875 
L 213.481333 208.898956 
L 206.351297 208.898956 
z
" clip-path="url(#p5a9a0e5ed7)" style="fill: #2ca02c; opacity: 0.4"/>
   </g>
   <g id="patch_55">
    <path d="M 213.481333 260.521875 
L 220.611368 260.521875 
L 220.611368 234.710415 
L 213.481333 234.710415 
z
" clip-path="url(#p5a9a0e5ed7)" style="fill: #2ca02c; opacity: 0.4"/>
   </g>
   <g id="patch_56">
    <path d="M 220.611368 260.521875 
L 227.741404 260.521875 
L 227.741404 221.804685 
L 220.611368 221.804685 
z
" clip-path="url(#p5a9a0e5ed7)" style="fill: #2ca02c; opacity: 0.4"/>
   </g>
   <g id="patch_57">
    <path d="M 227.741404 260.521875 
L 234.871439 260.521875 
L 234.871439 234.710415 
L 227.741404 234.710415 
z
" clip-path="url(#p5a9a0e5ed7)" style="fill: #2ca02c; opacity: 0.4"/>
   </g>
   <g id="patch_58">
    <path d="M 234.871439 260.521875 
L 242.001475 260.521875 
L 242.001475 195.993226 
L 234.871439 195.993226 
z
" clip-path="url(#p5a9a0e5ed7)" style="fill: #2ca02c; opacity: 0.4"/>
   </g>
   <g id="patch_59">
    <path d="M 242.001475 260.521875 
L 249.13151 260.521875 
L 249.13151 183.087496 
L 242.001475 183.087496 
z
" clip-path="url(#p5a9a0e5ed7)" style="fill: #2ca02c; opacity: 0.4"/>
   </g>
   <g id="patch_60">
    <path d="M 249.13151 260.521875 
L 256.261546 260.521875 
L 256.261546 247.616145 
L 249.13151 247.616145 
z
" clip-path="url(#p5a9a0e5ed7)" style="fill: #2ca02c; opacity: 0.4"/>
   </g>
   <g id="patch_61">
    <path d="M 256.261546 260.521875 
L 263.391581 260.521875 
L 263.391581 247.616145 
L 256.261546 247.616145 
z
" clip-path="url(#p5a9a0e5ed7)" style="fill: #2ca02c; opacity: 0.4"/>
   </g>
   <g id="patch_62">
    <path d="M 263.391581 260.521875 
L 270.521617 260.521875 
L 270.521617 221.804685 
L 263.391581 221.804685 
z
" clip-path="url(#p5a9a0e5ed7)" style="fill: #2ca02c; opacity: 0.4"/>
   </g>
   <g id="matplotlib.axis_1">
    <g id="xtick_1">
     <g id="line2d_1">
      <defs>
       <path id="m71e77f0b96" d="M 0 0 
L 0 3.5 
" style="stroke: #000000; stroke-width: 0.8"/>
      </defs>
      <g>
       <use xlink:href="#m71e77f0b96" x="74.791398" y="260.521875" style="stroke: #000000; stroke-width: 0.8"/>
      </g>
     </g>
     <g id="text_1">
      <!-- 0.4 -->
      <g transform="translate(66.839835 275.120313) scale(0.1 -0.1)">
       <defs>
        <path id="DejaVuSans-30" d="M 2034 4250 
Q 1547 4250 1301 3770 
Q 1056 3291 1056 2328 
Q 1056 1369 1301 889 
Q 1547 409 2034 409 
Q 2525 409 2770 889 
Q 3016 1369 3016 2328 
Q 3016 3291 2770 3770 
Q 2525 4250 2034 4250 
z
M 2034 4750 
Q 2819 4750 3233 4129 
Q 3647 3509 3647 2328 
Q 3647 1150 3233 529 
Q 2819 -91 2034 -91 
Q 1250 -91 836 529 
Q 422 1150 422 2328 
Q 422 3509 836 4129 
Q 1250 4750 2034 4750 
z
" transform="scale(0.015625)"/>
        <path id="DejaVuSans-2e" d="M 684 794 
L 1344 794 
L 1344 0 
L 684 0 
L 684 794 
z
" transform="scale(0.015625)"/>
        <path id="DejaVuSans-34" d="M 2419 4116 
L 825 1625 
L 2419 1625 
L 2419 4116 
z
M 2253 4666 
L 3047 4666 
L 3047 1625 
L 3713 1625 
L 3713 1100 
L 3047 1100 
L 3047 0 
L 2419 0 
L 2419 1100 
L 313 1100 
L 313 1709 
L 2253 4666 
z
" transform="scale(0.015625)"/>
       </defs>
       <use xlink:href="#DejaVuSans-30"/>
       <use xlink:href="#DejaVuSans-2e" x="63.623047"/>
       <use xlink:href="#DejaVuSans-34" x="95.410156"/>
      </g>
     </g>
    </g>
    <g id="xtick_2">
     <g id="line2d_2">
      <g>
       <use xlink:href="#m71e77f0b96" x="110.427302" y="260.521875" style="stroke: #000000; stroke-width: 0.8"/>
      </g>
     </g>
     <g id="text_2">
      <!-- 0.5 -->
      <g transform="translate(102.475739 275.120313) scale(0.1 -0.1)">
       <defs>
        <path id="DejaVuSans-35" d="M 691 4666 
L 3169 4666 
L 3169 4134 
L 1269 4134 
L 1269 2991 
Q 1406 3038 1543 3061 
Q 1681 3084 1819 3084 
Q 2600 3084 3056 2656 
Q 3513 2228 3513 1497 
Q 3513 744 3044 326 
Q 2575 -91 1722 -91 
Q 1428 -91 1123 -41 
Q 819 9 494 109 
L 494 744 
Q 775 591 1075 516 
Q 1375 441 1709 441 
Q 2250 441 2565 725 
Q 2881 1009 2881 1497 
Q 2881 1984 2565 2268 
Q 2250 2553 1709 2553 
Q 1456 2553 1204 2497 
Q 953 2441 691 2322 
L 691 4666 
z
" transform="scale(0.015625)"/>
       </defs>
       <use xlink:href="#DejaVuSans-30"/>
       <use xlink:href="#DejaVuSans-2e" x="63.623047"/>
       <use xlink:href="#DejaVuSans-35" x="95.410156"/>
      </g>
     </g>
    </g>
    <g id="xtick_3">
     <g id="line2d_3">
      <g>
       <use xlink:href="#m71e77f0b96" x="146.063206" y="260.521875" style="stroke: #000000; stroke-width: 0.8"/>
      </g>
     </g>
     <g id="text_3">
      <!-- 0.6 -->
      <g transform="translate(138.111643 275.120313) scale(0.1 -0.1)">
       <defs>
        <path id="DejaVuSans-36" d="M 2113 2584 
Q 1688 2584 1439 2293 
Q 1191 2003 1191 1497 
Q 1191 994 1439 701 
Q 1688 409 2113 409 
Q 2538 409 2786 701 
Q 3034 994 3034 1497 
Q 3034 2003 2786 2293 
Q 2538 2584 2113 2584 
z
M 3366 4563 
L 3366 3988 
Q 3128 4100 2886 4159 
Q 2644 4219 2406 4219 
Q 1781 4219 1451 3797 
Q 1122 3375 1075 2522 
Q 1259 2794 1537 2939 
Q 1816 3084 2150 3084 
Q 2853 3084 3261 2657 
Q 3669 2231 3669 1497 
Q 3669 778 3244 343 
Q 2819 -91 2113 -91 
Q 1303 -91 875 529 
Q 447 1150 447 2328 
Q 447 3434 972 4092 
Q 1497 4750 2381 4750 
Q 2619 4750 2861 4703 
Q 3103 4656 3366 4563 
z
" transform="scale(0.015625)"/>
       </defs>
       <use xlink:href="#DejaVuSans-30"/>
       <use xlink:href="#DejaVuSans-2e" x="63.623047"/>
       <use xlink:href="#DejaVuSans-36" x="95.410156"/>
      </g>
     </g>
    </g>
    <g id="xtick_4">
     <g id="line2d_4">
      <g>
       <use xlink:href="#m71e77f0b96" x="181.699109" y="260.521875" style="stroke: #000000; stroke-width: 0.8"/>
      </g>
     </g>
     <g id="text_4">
      <!-- 0.7 -->
      <g transform="translate(173.747547 275.120313) scale(0.1 -0.1)">
       <defs>
        <path id="DejaVuSans-37" d="M 525 4666 
L 3525 4666 
L 3525 4397 
L 1831 0 
L 1172 0 
L 2766 4134 
L 525 4134 
L 525 4666 
z
" transform="scale(0.015625)"/>
       </defs>
       <use xlink:href="#DejaVuSans-30"/>
       <use xlink:href="#DejaVuSans-2e" x="63.623047"/>
       <use xlink:href="#DejaVuSans-37" x="95.410156"/>
      </g>
     </g>
    </g>
    <g id="xtick_5">
     <g id="line2d_5">
      <g>
       <use xlink:href="#m71e77f0b96" x="217.335013" y="260.521875" style="stroke: #000000; stroke-width: 0.8"/>
      </g>
     </g>
     <g id="text_5">
      <!-- 0.8 -->
      <g transform="translate(209.383451 275.120313) scale(0.1 -0.1)">
       <defs>
        <path id="DejaVuSans-38" d="M 2034 2216 
Q 1584 2216 1326 1975 
Q 1069 1734 1069 1313 
Q 1069 891 1326 650 
Q 1584 409 2034 409 
Q 2484 409 2743 651 
Q 3003 894 3003 1313 
Q 3003 1734 2745 1975 
Q 2488 2216 2034 2216 
z
M 1403 2484 
Q 997 2584 770 2862 
Q 544 3141 544 3541 
Q 544 4100 942 4425 
Q 1341 4750 2034 4750 
Q 2731 4750 3128 4425 
Q 3525 4100 3525 3541 
Q 3525 3141 3298 2862 
Q 3072 2584 2669 2484 
Q 3125 2378 3379 2068 
Q 3634 1759 3634 1313 
Q 3634 634 3220 271 
Q 2806 -91 2034 -91 
Q 1263 -91 848 271 
Q 434 634 434 1313 
Q 434 1759 690 2068 
Q 947 2378 1403 2484 
z
M 1172 3481 
Q 1172 3119 1398 2916 
Q 1625 2713 2034 2713 
Q 2441 2713 2670 2916 
Q 2900 3119 2900 3481 
Q 2900 3844 2670 4047 
Q 2441 4250 2034 4250 
Q 1625 4250 1398 4047 
Q 1172 3844 1172 3481 
z
" transform="scale(0.015625)"/>
       </defs>
       <use xlink:href="#DejaVuSans-30"/>
       <use xlink:href="#DejaVuSans-2e" x="63.623047"/>
       <use xlink:href="#DejaVuSans-38" x="95.410156"/>
      </g>
     </g>
    </g>
    <g id="xtick_6">
     <g id="line2d_6">
      <g>
       <use xlink:href="#m71e77f0b96" x="252.970917" y="260.521875" style="stroke: #000000; stroke-width: 0.8"/>
      </g>
     </g>
     <g id="text_6">
      <!-- 0.9 -->
      <g transform="translate(245.019355 275.120313) scale(0.1 -0.1)">
       <defs>
        <path id="DejaVuSans-39" d="M 703 97 
L 703 672 
Q 941 559 1184 500 
Q 1428 441 1663 441 
Q 2288 441 2617 861 
Q 2947 1281 2994 2138 
Q 2813 1869 2534 1725 
Q 2256 1581 1919 1581 
Q 1219 1581 811 2004 
Q 403 2428 403 3163 
Q 403 3881 828 4315 
Q 1253 4750 1959 4750 
Q 2769 4750 3195 4129 
Q 3622 3509 3622 2328 
Q 3622 1225 3098 567 
Q 2575 -91 1691 -91 
Q 1453 -91 1209 -44 
Q 966 3 703 97 
z
M 1959 2075 
Q 2384 2075 2632 2365 
Q 2881 2656 2881 3163 
Q 2881 3666 2632 3958 
Q 2384 4250 1959 4250 
Q 1534 4250 1286 3958 
Q 1038 3666 1038 3163 
Q 1038 2656 1286 2365 
Q 1534 2075 1959 2075 
z
" transform="scale(0.015625)"/>
       </defs>
       <use xlink:href="#DejaVuSans-30"/>
       <use xlink:href="#DejaVuSans-2e" x="63.623047"/>
       <use xlink:href="#DejaVuSans-39" x="95.410156"/>
      </g>
     </g>
    </g>
   </g>
   <g id="matplotlib.axis_2">
    <g id="ytick_1">
     <g id="line2d_7">
      <defs>
       <path id="mc21170d444" d="M 0 0 
L -3.5 0 
" style="stroke: #000000; stroke-width: 0.8"/>
      </defs>
      <g>
       <use xlink:href="#mc21170d444" x="41.711875" y="260.521875" style="stroke: #000000; stroke-width: 0.8"/>
      </g>
     </g>
     <g id="text_7">
      <!-- 0 -->
      <g transform="translate(28.349375 264.321094) scale(0.1 -0.1)">
       <use xlink:href="#DejaVuSans-30"/>
      </g>
     </g>
    </g>
    <g id="ytick_2">
     <g id="line2d_8">
      <g>
       <use xlink:href="#mc21170d444" x="41.711875" y="235.991167" style="stroke: #000000; stroke-width: 0.8"/>
      </g>
     </g>
     <g id="text_8">
      <!-- 1 -->
      <g transform="translate(28.349375 239.790385) scale(0.1 -0.1)">
       <defs>
        <path id="DejaVuSans-31" d="M 794 531 
L 1825 531 
L 1825 4091 
L 703 3866 
L 703 4441 
L 1819 4666 
L 2450 4666 
L 2450 531 
L 3481 531 
L 3481 0 
L 794 0 
L 794 531 
z
" transform="scale(0.015625)"/>
       </defs>
       <use xlink:href="#DejaVuSans-31"/>
      </g>
     </g>
    </g>
    <g id="ytick_3">
     <g id="line2d_9">
      <g>
       <use xlink:href="#mc21170d444" x="41.711875" y="211.460458" style="stroke: #000000; stroke-width: 0.8"/>
      </g>
     </g>
     <g id="text_9">
      <!-- 2 -->
      <g transform="translate(28.349375 215.259677) scale(0.1 -0.1)">
       <defs>
        <path id="DejaVuSans-32" d="M 1228 531 
L 3431 531 
L 3431 0 
L 469 0 
L 469 531 
Q 828 903 1448 1529 
Q 2069 2156 2228 2338 
Q 2531 2678 2651 2914 
Q 2772 3150 2772 3378 
Q 2772 3750 2511 3984 
Q 2250 4219 1831 4219 
Q 1534 4219 1204 4116 
Q 875 4013 500 3803 
L 500 4441 
Q 881 4594 1212 4672 
Q 1544 4750 1819 4750 
Q 2544 4750 2975 4387 
Q 3406 4025 3406 3419 
Q 3406 3131 3298 2873 
Q 3191 2616 2906 2266 
Q 2828 2175 2409 1742 
Q 1991 1309 1228 531 
z
" transform="scale(0.015625)"/>
       </defs>
       <use xlink:href="#DejaVuSans-32"/>
      </g>
     </g>
    </g>
    <g id="ytick_4">
     <g id="line2d_10">
      <g>
       <use xlink:href="#mc21170d444" x="41.711875" y="186.92975" style="stroke: #000000; stroke-width: 0.8"/>
      </g>
     </g>
     <g id="text_10">
      <!-- 3 -->
      <g transform="translate(28.349375 190.728969) scale(0.1 -0.1)">
       <defs>
        <path id="DejaVuSans-33" d="M 2597 2516 
Q 3050 2419 3304 2112 
Q 3559 1806 3559 1356 
Q 3559 666 3084 287 
Q 2609 -91 1734 -91 
Q 1441 -91 1130 -33 
Q 819 25 488 141 
L 488 750 
Q 750 597 1062 519 
Q 1375 441 1716 441 
Q 2309 441 2620 675 
Q 2931 909 2931 1356 
Q 2931 1769 2642 2001 
Q 2353 2234 1838 2234 
L 1294 2234 
L 1294 2753 
L 1863 2753 
Q 2328 2753 2575 2939 
Q 2822 3125 2822 3475 
Q 2822 3834 2567 4026 
Q 2313 4219 1838 4219 
Q 1578 4219 1281 4162 
Q 984 4106 628 3988 
L 628 4550 
Q 988 4650 1302 4700 
Q 1616 4750 1894 4750 
Q 2613 4750 3031 4423 
Q 3450 4097 3450 3541 
Q 3450 3153 3228 2886 
Q 3006 2619 2597 2516 
z
" transform="scale(0.015625)"/>
       </defs>
       <use xlink:href="#DejaVuSans-33"/>
      </g>
     </g>
    </g>
    <g id="ytick_5">
     <g id="line2d_11">
      <g>
       <use xlink:href="#mc21170d444" x="41.711875" y="162.399042" style="stroke: #000000; stroke-width: 0.8"/>
      </g>
     </g>
     <g id="text_11">
      <!-- 4 -->
      <g transform="translate(28.349375 166.198261) scale(0.1 -0.1)">
       <use xlink:href="#DejaVuSans-34"/>
      </g>
     </g>
    </g>
    <g id="ytick_6">
     <g id="line2d_12">
      <g>
       <use xlink:href="#mc21170d444" x="41.711875" y="137.868334" style="stroke: #000000; stroke-width: 0.8"/>
      </g>
     </g>
     <g id="text_12">
      <!-- 5 -->
      <g transform="translate(28.349375 141.667552) scale(0.1 -0.1)">
       <use xlink:href="#DejaVuSans-35"/>
      </g>
     </g>
    </g>
    <g id="ytick_7">
     <g id="line2d_13">
      <g>
       <use xlink:href="#mc21170d444" x="41.711875" y="113.337625" style="stroke: #000000; stroke-width: 0.8"/>
      </g>
     </g>
     <g id="text_13">
      <!-- 6 -->
      <g transform="translate(28.349375 117.136844) scale(0.1 -0.1)">
       <use xlink:href="#DejaVuSans-36"/>
      </g>
     </g>
    </g>
    <g id="ytick_8">
     <g id="line2d_14">
      <g>
       <use xlink:href="#mc21170d444" x="41.711875" y="88.806917" style="stroke: #000000; stroke-width: 0.8"/>
      </g>
     </g>
     <g id="text_14">
      <!-- 7 -->
      <g transform="translate(28.349375 92.606136) scale(0.1 -0.1)">
       <use xlink:href="#DejaVuSans-37"/>
      </g>
     </g>
    </g>
    <g id="ytick_9">
     <g id="line2d_15">
      <g>
       <use xlink:href="#mc21170d444" x="41.711875" y="64.276209" style="stroke: #000000; stroke-width: 0.8"/>
      </g>
     </g>
     <g id="text_15">
      <!-- 8 -->
      <g transform="translate(28.349375 68.075428) scale(0.1 -0.1)">
       <use xlink:href="#DejaVuSans-38"/>
      </g>
     </g>
    </g>
    <g id="text_16">
     <!-- Fraction of cells -->
     <g transform="translate(21.437812 213.889844) rotate(-90) scale(0.14 -0.14)">
      <defs>
       <path id="DejaVuSans-46" d="M 628 4666 
L 3309 4666 
L 3309 4134 
L 1259 4134 
L 1259 2759 
L 3109 2759 
L 3109 2228 
L 1259 2228 
L 1259 0 
L 628 0 
L 628 4666 
z
" transform="scale(0.015625)"/>
       <path id="DejaVuSans-72" d="M 2631 2963 
Q 2534 3019 2420 3045 
Q 2306 3072 2169 3072 
Q 1681 3072 1420 2755 
Q 1159 2438 1159 1844 
L 1159 0 
L 581 0 
L 581 3500 
L 1159 3500 
L 1159 2956 
Q 1341 3275 1631 3429 
Q 1922 3584 2338 3584 
Q 2397 3584 2469 3576 
Q 2541 3569 2628 3553 
L 2631 2963 
z
" transform="scale(0.015625)"/>
       <path id="DejaVuSans-61" d="M 2194 1759 
Q 1497 1759 1228 1600 
Q 959 1441 959 1056 
Q 959 750 1161 570 
Q 1363 391 1709 391 
Q 2188 391 2477 730 
Q 2766 1069 2766 1631 
L 2766 1759 
L 2194 1759 
z
M 3341 1997 
L 3341 0 
L 2766 0 
L 2766 531 
Q 2569 213 2275 61 
Q 1981 -91 1556 -91 
Q 1019 -91 701 211 
Q 384 513 384 1019 
Q 384 1609 779 1909 
Q 1175 2209 1959 2209 
L 2766 2209 
L 2766 2266 
Q 2766 2663 2505 2880 
Q 2244 3097 1772 3097 
Q 1472 3097 1187 3025 
Q 903 2953 641 2809 
L 641 3341 
Q 956 3463 1253 3523 
Q 1550 3584 1831 3584 
Q 2591 3584 2966 3190 
Q 3341 2797 3341 1997 
z
" transform="scale(0.015625)"/>
       <path id="DejaVuSans-63" d="M 3122 3366 
L 3122 2828 
Q 2878 2963 2633 3030 
Q 2388 3097 2138 3097 
Q 1578 3097 1268 2742 
Q 959 2388 959 1747 
Q 959 1106 1268 751 
Q 1578 397 2138 397 
Q 2388 397 2633 464 
Q 2878 531 3122 666 
L 3122 134 
Q 2881 22 2623 -34 
Q 2366 -91 2075 -91 
Q 1284 -91 818 406 
Q 353 903 353 1747 
Q 353 2603 823 3093 
Q 1294 3584 2113 3584 
Q 2378 3584 2631 3529 
Q 2884 3475 3122 3366 
z
" transform="scale(0.015625)"/>
       <path id="DejaVuSans-74" d="M 1172 4494 
L 1172 3500 
L 2356 3500 
L 2356 3053 
L 1172 3053 
L 1172 1153 
Q 1172 725 1289 603 
Q 1406 481 1766 481 
L 2356 481 
L 2356 0 
L 1766 0 
Q 1100 0 847 248 
Q 594 497 594 1153 
L 594 3053 
L 172 3053 
L 172 3500 
L 594 3500 
L 594 4494 
L 1172 4494 
z
" transform="scale(0.015625)"/>
       <path id="DejaVuSans-69" d="M 603 3500 
L 1178 3500 
L 1178 0 
L 603 0 
L 603 3500 
z
M 603 4863 
L 1178 4863 
L 1178 4134 
L 603 4134 
L 603 4863 
z
" transform="scale(0.015625)"/>
       <path id="DejaVuSans-6f" d="M 1959 3097 
Q 1497 3097 1228 2736 
Q 959 2375 959 1747 
Q 959 1119 1226 758 
Q 1494 397 1959 397 
Q 2419 397 2687 759 
Q 2956 1122 2956 1747 
Q 2956 2369 2687 2733 
Q 2419 3097 1959 3097 
z
M 1959 3584 
Q 2709 3584 3137 3096 
Q 3566 2609 3566 1747 
Q 3566 888 3137 398 
Q 2709 -91 1959 -91 
Q 1206 -91 779 398 
Q 353 888 353 1747 
Q 353 2609 779 3096 
Q 1206 3584 1959 3584 
z
" transform="scale(0.015625)"/>
       <path id="DejaVuSans-6e" d="M 3513 2113 
L 3513 0 
L 2938 0 
L 2938 2094 
Q 2938 2591 2744 2837 
Q 2550 3084 2163 3084 
Q 1697 3084 1428 2787 
Q 1159 2491 1159 1978 
L 1159 0 
L 581 0 
L 581 3500 
L 1159 3500 
L 1159 2956 
Q 1366 3272 1645 3428 
Q 1925 3584 2291 3584 
Q 2894 3584 3203 3211 
Q 3513 2838 3513 2113 
z
" transform="scale(0.015625)"/>
       <path id="DejaVuSans-20" transform="scale(0.015625)"/>
       <path id="DejaVuSans-66" d="M 2375 4863 
L 2375 4384 
L 1825 4384 
Q 1516 4384 1395 4259 
Q 1275 4134 1275 3809 
L 1275 3500 
L 2222 3500 
L 2222 3053 
L 1275 3053 
L 1275 0 
L 697 0 
L 697 3053 
L 147 3053 
L 147 3500 
L 697 3500 
L 697 3744 
Q 697 4328 969 4595 
Q 1241 4863 1831 4863 
L 2375 4863 
z
" transform="scale(0.015625)"/>
       <path id="DejaVuSans-65" d="M 3597 1894 
L 3597 1613 
L 953 1613 
Q 991 1019 1311 708 
Q 1631 397 2203 397 
Q 2534 397 2845 478 
Q 3156 559 3463 722 
L 3463 178 
Q 3153 47 2828 -22 
Q 2503 -91 2169 -91 
Q 1331 -91 842 396 
Q 353 884 353 1716 
Q 353 2575 817 3079 
Q 1281 3584 2069 3584 
Q 2775 3584 3186 3129 
Q 3597 2675 3597 1894 
z
M 3022 2063 
Q 3016 2534 2758 2815 
Q 2500 3097 2075 3097 
Q 1594 3097 1305 2825 
Q 1016 2553 972 2059 
L 3022 2063 
z
" transform="scale(0.015625)"/>
       <path id="DejaVuSans-6c" d="M 603 4863 
L 1178 4863 
L 1178 0 
L 603 0 
L 603 4863 
z
" transform="scale(0.015625)"/>
       <path id="DejaVuSans-73" d="M 2834 3397 
L 2834 2853 
Q 2591 2978 2328 3040 
Q 2066 3103 1784 3103 
Q 1356 3103 1142 2972 
Q 928 2841 928 2578 
Q 928 2378 1081 2264 
Q 1234 2150 1697 2047 
L 1894 2003 
Q 2506 1872 2764 1633 
Q 3022 1394 3022 966 
Q 3022 478 2636 193 
Q 2250 -91 1575 -91 
Q 1294 -91 989 -36 
Q 684 19 347 128 
L 347 722 
Q 666 556 975 473 
Q 1284 391 1588 391 
Q 1994 391 2212 530 
Q 2431 669 2431 922 
Q 2431 1156 2273 1281 
Q 2116 1406 1581 1522 
L 1381 1569 
Q 847 1681 609 1914 
Q 372 2147 372 2553 
Q 372 3047 722 3315 
Q 1072 3584 1716 3584 
Q 2034 3584 2315 3537 
Q 2597 3491 2834 3397 
z
" transform="scale(0.015625)"/>
      </defs>
      <use xlink:href="#DejaVuSans-46"/>
      <use xlink:href="#DejaVuSans-72" x="50.269531"/>
      <use xlink:href="#DejaVuSans-61" x="91.382812"/>
      <use xlink:href="#DejaVuSans-63" x="152.662109"/>
      <use xlink:href="#DejaVuSans-74" x="207.642578"/>
      <use xlink:href="#DejaVuSans-69" x="246.851562"/>
      <use xlink:href="#DejaVuSans-6f" x="274.634766"/>
      <use xlink:href="#DejaVuSans-6e" x="335.816406"/>
      <use xlink:href="#DejaVuSans-20" x="399.195312"/>
      <use xlink:href="#DejaVuSans-6f" x="430.982422"/>
      <use xlink:href="#DejaVuSans-66" x="492.164062"/>
      <use xlink:href="#DejaVuSans-20" x="527.369141"/>
      <use xlink:href="#DejaVuSans-63" x="559.15625"/>
      <use xlink:href="#DejaVuSans-65" x="614.136719"/>
      <use xlink:href="#DejaVuSans-6c" x="675.660156"/>
      <use xlink:href="#DejaVuSans-6c" x="703.443359"/>
      <use xlink:href="#DejaVuSans-73" x="731.226562"/>
     </g>
    </g>
   </g>
   <g id="line2d_16">
    <path d="M -1 260.521875 
L 69.03206 260.437875 
L 76.231232 260.173503 
L 79.830818 259.875544 
L 83.430405 259.382033 
L 87.029991 258.592779 
L 88.829784 258.043721 
L 90.629577 257.361061 
L 92.42937 256.51619 
L 94.229163 255.475559 
L 96.028957 254.200634 
L 97.82875 252.648288 
L 99.628543 250.771707 
L 101.428336 248.521928 
L 103.228129 245.850014 
L 105.027922 242.709906 
L 106.827715 239.061867 
L 108.627508 234.8764 
L 110.427302 230.138466 
L 112.227095 224.851692 
L 114.026888 219.042235 
L 117.626474 206.089733 
L 126.62544 171.366977 
L 128.425233 165.273269 
L 130.225026 159.841298 
L 132.024819 155.198825 
L 133.824612 151.439874 
L 135.624405 148.61892 
L 137.424199 146.748369 
L 139.223992 145.799614 
L 141.023785 145.707536 
L 142.823578 146.377877 
L 144.623371 147.696579 
L 146.423164 149.539985 
L 148.222957 151.784722 
L 151.822544 157.035085 
L 164.421095 176.716061 
L 168.020682 181.867104 
L 171.620268 186.612488 
L 175.219854 190.856591 
L 178.81944 194.598211 
L 184.21882 199.63092 
L 187.818406 203.013555 
L 191.417992 206.722887 
L 195.017579 210.849828 
L 205.816337 223.882961 
L 209.415924 227.495388 
L 213.01551 230.494183 
L 216.615096 232.989697 
L 229.213648 240.977959 
L 238.212614 247.13971 
L 241.8122 249.245126 
L 245.411786 250.996288 
L 249.011372 252.397271 
L 252.610959 253.497238 
L 256.210545 254.349294 
L 259.810131 254.986243 
L 263.409717 255.423502 
L 267.009304 255.681294 
L 274.208476 255.883682 
L 279.607856 256.116193 
L 283.207442 256.456588 
L 288.606821 257.271333 
L 288.606821 257.271333 
" clip-path="url(#p5a9a0e5ed7)" style="fill: none; stroke: #1f77b4; stroke-width: 1.5; stroke-linecap: square"/>
   </g>
   <g id="line2d_17">
    <path d="M -1 260.521875 
L 123.025853 260.458285 
L 128.425233 260.209636 
L 132.024819 259.744248 
L 133.824612 259.346962 
L 135.624405 258.796592 
L 137.424199 258.058543 
L 139.223992 257.100522 
L 141.023785 255.896947 
L 142.823578 254.433792 
L 144.623371 252.713176 
L 146.423164 250.756848 
L 150.02275 246.32864 
L 153.622337 241.703787 
L 155.42213 239.530943 
L 157.221923 237.553069 
L 159.021716 235.819774 
L 160.821509 234.347526 
L 162.621302 233.113655 
L 169.820475 228.818045 
L 171.620268 227.26728 
L 173.420061 225.264329 
L 175.219854 222.711391 
L 177.019647 219.542496 
L 178.81944 215.724347 
L 180.619234 211.252947 
L 182.419027 206.147972 
L 184.21882 200.447292 
L 186.018613 194.203706 
L 189.618199 180.377552 
L 198.617165 143.830806 
L 200.416958 137.625276 
L 202.216751 132.260219 
L 204.016544 127.895874 
L 205.816337 124.639674 
L 207.616131 122.535151 
L 209.415924 121.55865 
L 211.215717 121.6246 
L 213.01551 122.59851 
L 214.815303 124.315534 
L 216.615096 126.601625 
L 218.414889 129.294049 
L 222.014476 135.400369 
L 225.614062 142.062514 
L 229.213648 149.359718 
L 231.013441 153.387068 
L 232.813234 157.75379 
L 234.613027 162.510052 
L 236.412821 167.682471 
L 238.212614 173.268606 
L 241.8122 185.517947 
L 250.811166 217.801883 
L 252.610959 223.468224 
L 254.410752 228.555394 
L 256.210545 232.969642 
L 258.010338 236.658901 
L 259.810131 239.620554 
L 261.609924 241.903577 
L 263.409717 243.603771 
L 265.209511 244.85219 
L 267.009304 245.798306 
L 272.408683 248.198264 
L 274.208476 249.163579 
L 277.808063 251.485244 
L 283.207442 255.290257 
L 285.007235 256.41496 
L 286.807028 257.396476 
L 288.606821 258.216985 
L 288.606821 258.216985 
" clip-path="url(#p5a9a0e5ed7)" style="fill: none; stroke: #ff7f0e; stroke-width: 1.5; stroke-linecap: square"/>
   </g>
   <g id="line2d_18">
    <path d="M -1 260.521875 
L 92.42937 260.422982 
L 97.82875 260.216267 
L 101.428336 259.933777 
L 105.027922 259.473556 
L 108.627508 258.787017 
L 112.227095 257.846914 
L 115.826681 256.657053 
L 119.426267 255.243231 
L 123.025853 253.618436 
L 126.62544 251.729956 
L 128.425233 250.640327 
L 130.225026 249.413017 
L 132.024819 248.008528 
L 133.824612 246.382514 
L 135.624405 244.488743 
L 137.424199 242.282672 
L 139.223992 239.725259 
L 141.023785 236.786587 
L 142.823578 233.448891 
L 144.623371 229.708608 
L 146.423164 225.577237 
L 148.222957 221.080928 
L 151.822544 211.161025 
L 155.42213 200.372067 
L 164.421095 172.879607 
L 168.020682 162.967087 
L 169.820475 158.485802 
L 171.620268 154.403648 
L 173.420061 150.782042 
L 175.219854 147.679884 
L 177.019647 145.151093 
L 178.81944 143.241956 
L 180.619234 141.988673 
L 182.419027 141.415415 
L 184.21882 141.533116 
L 186.018613 142.339035 
L 187.818406 143.816995 
L 189.618199 145.938095 
L 191.417992 148.661625 
L 193.217785 151.935998 
L 195.017579 155.699563 
L 196.817372 159.88133 
L 200.416958 169.173547 
L 207.616131 188.864753 
L 209.415924 193.456641 
L 211.215717 197.740562 
L 213.01551 201.647149 
L 214.815303 205.122389 
L 216.615096 208.129582 
L 218.414889 210.650408 
L 220.214682 212.68511 
L 222.014476 214.251908 
L 223.814269 215.385747 
L 225.614062 216.136514 
L 227.413855 216.566777 
L 229.213648 216.749098 
L 232.813234 216.690911 
L 236.412821 216.613342 
L 238.212614 216.753743 
L 240.012407 217.092534 
L 241.8122 217.670323 
L 243.611993 218.510416 
L 245.411786 219.618331 
L 247.211579 220.982801 
L 249.011372 222.578151 
L 252.610959 226.30839 
L 258.010338 232.589923 
L 263.409717 238.819765 
L 267.009304 242.6793 
L 270.60889 246.238514 
L 274.208476 249.464759 
L 277.808063 252.310262 
L 281.407649 254.716752 
L 285.007235 256.641708 
L 288.606821 258.083105 
L 288.606821 258.083105 
" clip-path="url(#p5a9a0e5ed7)" style="fill: none; stroke: #2ca02c; stroke-width: 1.5; stroke-linecap: square"/>
   </g>
   <g id="patch_63">
    <path d="M 41.711875 260.521875 
L 41.711875 57.594062 
" style="fill: none; stroke: #000000; stroke-width: 0.8; stroke-linejoin: miter; stroke-linecap: square"/>
   </g>
   <g id="patch_64">
    <path d="M 287.53125 260.521875 
L 287.53125 57.594062 
" style="fill: none; stroke: #000000; stroke-width: 0.8; stroke-linejoin: miter; stroke-linecap: square"/>
   </g>
   <g id="patch_65">
    <path d="M 41.711875 260.521875 
L 287.53125 260.521875 
" style="fill: none; stroke: #000000; stroke-width: 0.8; stroke-linejoin: miter; stroke-linecap: square"/>
   </g>
   <g id="patch_66">
    <path d="M 41.711875 57.594062 
L 287.53125 57.594062 
" style="fill: none; stroke: #000000; stroke-width: 0.8; stroke-linejoin: miter; stroke-linecap: square"/>
   </g>
   <g id="text_17">
    <!-- SRV -->
    <g transform="translate(150.910312 51.594062) scale(0.14 -0.14)">
     <defs>
      <path id="DejaVuSans-53" d="M 3425 4513 
L 3425 3897 
Q 3066 4069 2747 4153 
Q 2428 4238 2131 4238 
Q 1616 4238 1336 4038 
Q 1056 3838 1056 3469 
Q 1056 3159 1242 3001 
Q 1428 2844 1947 2747 
L 2328 2669 
Q 3034 2534 3370 2195 
Q 3706 1856 3706 1288 
Q 3706 609 3251 259 
Q 2797 -91 1919 -91 
Q 1588 -91 1214 -16 
Q 841 59 441 206 
L 441 856 
Q 825 641 1194 531 
Q 1563 422 1919 422 
Q 2459 422 2753 634 
Q 3047 847 3047 1241 
Q 3047 1584 2836 1778 
Q 2625 1972 2144 2069 
L 1759 2144 
Q 1053 2284 737 2584 
Q 422 2884 422 3419 
Q 422 4038 858 4394 
Q 1294 4750 2059 4750 
Q 2388 4750 2728 4690 
Q 3069 4631 3425 4513 
z
" transform="scale(0.015625)"/>
      <path id="DejaVuSans-52" d="M 2841 2188 
Q 3044 2119 3236 1894 
Q 3428 1669 3622 1275 
L 4263 0 
L 3584 0 
L 2988 1197 
Q 2756 1666 2539 1819 
Q 2322 1972 1947 1972 
L 1259 1972 
L 1259 0 
L 628 0 
L 628 4666 
L 2053 4666 
Q 2853 4666 3247 4331 
Q 3641 3997 3641 3322 
Q 3641 2881 3436 2590 
Q 3231 2300 2841 2188 
z
M 1259 4147 
L 1259 2491 
L 2053 2491 
Q 2509 2491 2742 2702 
Q 2975 2913 2975 3322 
Q 2975 3731 2742 3939 
Q 2509 4147 2053 4147 
L 1259 4147 
z
" transform="scale(0.015625)"/>
      <path id="DejaVuSans-56" d="M 1831 0 
L 50 4666 
L 709 4666 
L 2188 738 
L 3669 4666 
L 4325 4666 
L 2547 0 
L 1831 0 
z
" transform="scale(0.015625)"/>
     </defs>
     <use xlink:href="#DejaVuSans-53"/>
     <use xlink:href="#DejaVuSans-52" x="63.476562"/>
     <use xlink:href="#DejaVuSans-56" x="127.458984"/>
    </g>
   </g>
   <g id="legend_1">
    <g id="patch_67">
     <path d="M 50.111875 120.035312 
L 130.10125 120.035312 
Q 132.50125 120.035312 132.50125 117.635312 
L 132.50125 65.994062 
Q 132.50125 63.594062 130.10125 63.594062 
L 50.111875 63.594062 
Q 47.711875 63.594062 47.711875 65.994062 
L 47.711875 117.635312 
Q 47.711875 120.035312 50.111875 120.035312 
z
" style="fill: #ffffff; opacity: 0.8; stroke: #cccccc; stroke-linejoin: miter"/>
    </g>
    <g id="patch_68">
     <path d="M 52.511875 77.512187 
L 76.511875 77.512187 
L 76.511875 69.112187 
L 52.511875 69.112187 
z
" style="fill: #1f77b4; opacity: 0.4"/>
    </g>
    <g id="text_18">
     <!-- control -->
     <g transform="translate(86.111875 77.512187) scale(0.12 -0.12)">
      <use xlink:href="#DejaVuSans-63"/>
      <use xlink:href="#DejaVuSans-6f" x="54.980469"/>
      <use xlink:href="#DejaVuSans-6e" x="116.162109"/>
      <use xlink:href="#DejaVuSans-74" x="179.541016"/>
      <use xlink:href="#DejaVuSans-72" x="218.75"/>
      <use xlink:href="#DejaVuSans-6f" x="257.613281"/>
      <use xlink:href="#DejaVuSans-6c" x="318.794922"/>
     </g>
    </g>
    <g id="patch_69">
     <path d="M 52.511875 95.125937 
L 76.511875 95.125937 
L 76.511875 86.725937 
L 52.511875 86.725937 
z
" style="fill: #ff7f0e; opacity: 0.4"/>
    </g>
    <g id="text_19">
     <!-- cytd -->
     <g transform="translate(86.111875 95.125937) scale(0.12 -0.12)">
      <defs>
       <path id="DejaVuSans-79" d="M 2059 -325 
Q 1816 -950 1584 -1140 
Q 1353 -1331 966 -1331 
L 506 -1331 
L 506 -850 
L 844 -850 
Q 1081 -850 1212 -737 
Q 1344 -625 1503 -206 
L 1606 56 
L 191 3500 
L 800 3500 
L 1894 763 
L 2988 3500 
L 3597 3500 
L 2059 -325 
z
" transform="scale(0.015625)"/>
       <path id="DejaVuSans-64" d="M 2906 2969 
L 2906 4863 
L 3481 4863 
L 3481 0 
L 2906 0 
L 2906 525 
Q 2725 213 2448 61 
Q 2172 -91 1784 -91 
Q 1150 -91 751 415 
Q 353 922 353 1747 
Q 353 2572 751 3078 
Q 1150 3584 1784 3584 
Q 2172 3584 2448 3432 
Q 2725 3281 2906 2969 
z
M 947 1747 
Q 947 1113 1208 752 
Q 1469 391 1925 391 
Q 2381 391 2643 752 
Q 2906 1113 2906 1747 
Q 2906 2381 2643 2742 
Q 2381 3103 1925 3103 
Q 1469 3103 1208 2742 
Q 947 2381 947 1747 
z
" transform="scale(0.015625)"/>
      </defs>
      <use xlink:href="#DejaVuSans-63"/>
      <use xlink:href="#DejaVuSans-79" x="54.980469"/>
      <use xlink:href="#DejaVuSans-74" x="114.160156"/>
      <use xlink:href="#DejaVuSans-64" x="153.369141"/>
     </g>
    </g>
    <g id="patch_70">
     <path d="M 52.511875 112.739687 
L 76.511875 112.739687 
L 76.511875 104.339687 
L 52.511875 104.339687 
z
" style="fill: #2ca02c; opacity: 0.4"/>
    </g>
    <g id="text_20">
     <!-- jasp -->
     <g transform="translate(86.111875 112.739687) scale(0.12 -0.12)">
      <defs>
       <path id="DejaVuSans-6a" d="M 603 3500 
L 1178 3500 
L 1178 -63 
Q 1178 -731 923 -1031 
Q 669 -1331 103 -1331 
L -116 -1331 
L -116 -844 
L 38 -844 
Q 366 -844 484 -692 
Q 603 -541 603 -63 
L 603 3500 
z
M 603 4863 
L 1178 4863 
L 1178 4134 
L 603 4134 
L 603 4863 
z
" transform="scale(0.015625)"/>
       <path id="DejaVuSans-70" d="M 1159 525 
L 1159 -1331 
L 581 -1331 
L 581 3500 
L 1159 3500 
L 1159 2969 
Q 1341 3281 1617 3432 
Q 1894 3584 2278 3584 
Q 2916 3584 3314 3078 
Q 3713 2572 3713 1747 
Q 3713 922 3314 415 
Q 2916 -91 2278 -91 
Q 1894 -91 1617 61 
Q 1341 213 1159 525 
z
M 3116 1747 
Q 3116 2381 2855 2742 
Q 2594 3103 2138 3103 
Q 1681 3103 1420 2742 
Q 1159 2381 1159 1747 
Q 1159 1113 1420 752 
Q 1681 391 2138 391 
Q 2594 391 2855 752 
Q 3116 1113 3116 1747 
z
" transform="scale(0.015625)"/>
      </defs>
      <use xlink:href="#DejaVuSans-6a"/>
      <use xlink:href="#DejaVuSans-61" x="27.783203"/>
      <use xlink:href="#DejaVuSans-73" x="89.0625"/>
      <use xlink:href="#DejaVuSans-70" x="141.162109"/>
     </g>
    </g>
   </g>
  </g>
  <g id="axes_2">
   <g id="patch_71">
    <path d="M 319.380625 260.521875 
L 565.2 260.521875 
L 565.2 57.594062 
L 319.380625 57.594062 
z
" style="fill: #ffffff"/>
   </g>
   <g id="patch_72">
    <path d="M 319.380625 260.521875 
L 328.512858 260.521875 
L 328.512858 258.752668 
L 319.380625 258.752668 
z
" clip-path="url(#p53fb2608c8)" style="fill: #1f77b4; opacity: 0.4"/>
   </g>
   <g id="patch_73">
    <path d="M 328.512858 260.521875 
L 337.645091 260.521875 
L 337.645091 256.983461 
L 328.512858 256.983461 
z
" clip-path="url(#p53fb2608c8)" style="fill: #1f77b4; opacity: 0.4"/>
   </g>
   <g id="patch_74">
    <path d="M 337.645091 260.521875 
L 346.777324 260.521875 
L 346.777324 249.906633 
L 337.645091 249.906633 
z
" clip-path="url(#p53fb2608c8)" style="fill: #1f77b4; opacity: 0.4"/>
   </g>
   <g id="patch_75">
    <path d="M 346.777324 260.521875 
L 355.909557 260.521875 
L 355.909557 258.752668 
L 346.777324 258.752668 
z
" clip-path="url(#p53fb2608c8)" style="fill: #1f77b4; opacity: 0.4"/>
   </g>
   <g id="patch_76">
    <path d="M 355.909557 260.521875 
L 365.041789 260.521875 
L 365.041789 246.368219 
L 355.909557 246.368219 
z
" clip-path="url(#p53fb2608c8)" style="fill: #1f77b4; opacity: 0.4"/>
   </g>
   <g id="patch_77">
    <path d="M 365.041789 260.521875 
L 374.174022 260.521875 
L 374.174022 249.906633 
L 365.041789 249.906633 
z
" clip-path="url(#p53fb2608c8)" style="fill: #1f77b4; opacity: 0.4"/>
   </g>
   <g id="patch_78">
    <path d="M 374.174022 260.521875 
L 383.306255 260.521875 
L 383.306255 242.829806 
L 374.174022 242.829806 
z
" clip-path="url(#p53fb2608c8)" style="fill: #1f77b4; opacity: 0.4"/>
   </g>
   <g id="patch_79">
    <path d="M 383.306255 260.521875 
L 392.438488 260.521875 
L 392.438488 233.983771 
L 383.306255 233.983771 
z
" clip-path="url(#p53fb2608c8)" style="fill: #1f77b4; opacity: 0.4"/>
   </g>
   <g id="patch_80">
    <path d="M 392.438488 260.521875 
L 401.570721 260.521875 
L 401.570721 235.752978 
L 392.438488 235.752978 
z
" clip-path="url(#p53fb2608c8)" style="fill: #1f77b4; opacity: 0.4"/>
   </g>
   <g id="patch_81">
    <path d="M 401.570721 260.521875 
L 410.702954 260.521875 
L 410.702954 223.368529 
L 401.570721 223.368529 
z
" clip-path="url(#p53fb2608c8)" style="fill: #1f77b4; opacity: 0.4"/>
   </g>
   <g id="patch_82">
    <path d="M 410.702954 260.521875 
L 419.835187 260.521875 
L 419.835187 228.67615 
L 410.702954 228.67615 
z
" clip-path="url(#p53fb2608c8)" style="fill: #1f77b4; opacity: 0.4"/>
   </g>
   <g id="patch_83">
    <path d="M 419.835187 260.521875 
L 428.96742 260.521875 
L 428.96742 230.445357 
L 419.835187 230.445357 
z
" clip-path="url(#p53fb2608c8)" style="fill: #1f77b4; opacity: 0.4"/>
   </g>
   <g id="patch_84">
    <path d="M 428.96742 260.521875 
L 438.099653 260.521875 
L 438.099653 232.214564 
L 428.96742 232.214564 
z
" clip-path="url(#p53fb2608c8)" style="fill: #1f77b4; opacity: 0.4"/>
   </g>
   <g id="patch_85">
    <path d="M 438.099653 260.521875 
L 447.231886 260.521875 
L 447.231886 218.060908 
L 438.099653 218.060908 
z
" clip-path="url(#p53fb2608c8)" style="fill: #1f77b4; opacity: 0.4"/>
   </g>
   <g id="patch_86">
    <path d="M 447.231886 260.521875 
L 456.364118 260.521875 
L 456.364118 230.445357 
L 447.231886 230.445357 
z
" clip-path="url(#p53fb2608c8)" style="fill: #1f77b4; opacity: 0.4"/>
   </g>
   <g id="patch_87">
    <path d="M 456.364118 260.521875 
L 465.496351 260.521875 
L 465.496351 246.368219 
L 456.364118 246.368219 
z
" clip-path="url(#p53fb2608c8)" style="fill: #1f77b4; opacity: 0.4"/>
   </g>
   <g id="patch_88">
    <path d="M 465.496351 260.521875 
L 474.628584 260.521875 
L 474.628584 241.060599 
L 465.496351 241.060599 
z
" clip-path="url(#p53fb2608c8)" style="fill: #1f77b4; opacity: 0.4"/>
   </g>
   <g id="patch_89">
    <path d="M 474.628584 260.521875 
L 483.760817 260.521875 
L 483.760817 249.906633 
L 474.628584 249.906633 
z
" clip-path="url(#p53fb2608c8)" style="fill: #1f77b4; opacity: 0.4"/>
   </g>
   <g id="patch_90">
    <path d="M 483.760817 260.521875 
L 492.89305 260.521875 
L 492.89305 256.983461 
L 483.760817 256.983461 
z
" clip-path="url(#p53fb2608c8)" style="fill: #1f77b4; opacity: 0.4"/>
   </g>
   <g id="patch_91">
    <path d="M 492.89305 260.521875 
L 502.025283 260.521875 
L 502.025283 258.752668 
L 492.89305 258.752668 
z
" clip-path="url(#p53fb2608c8)" style="fill: #1f77b4; opacity: 0.4"/>
   </g>
   <g id="patch_92">
    <path d="M 324.550538 260.521875 
L 333.801788 260.521875 
L 333.801788 233.705477 
L 324.550538 233.705477 
z
" clip-path="url(#p53fb2608c8)" style="fill: #ff7f0e; opacity: 0.4"/>
   </g>
   <g id="patch_93">
    <path d="M 333.801788 260.521875 
L 343.053038 260.521875 
L 343.053038 229.874563 
L 333.801788 229.874563 
z
" clip-path="url(#p53fb2608c8)" style="fill: #ff7f0e; opacity: 0.4"/>
   </g>
   <g id="patch_94">
    <path d="M 343.053038 260.521875 
L 352.304288 260.521875 
L 352.304288 222.212734 
L 343.053038 222.212734 
z
" clip-path="url(#p53fb2608c8)" style="fill: #ff7f0e; opacity: 0.4"/>
   </g>
   <g id="patch_95">
    <path d="M 352.304288 260.521875 
L 361.555538 260.521875 
L 361.555538 214.550906 
L 352.304288 214.550906 
z
" clip-path="url(#p53fb2608c8)" style="fill: #ff7f0e; opacity: 0.4"/>
   </g>
   <g id="patch_96">
    <path d="M 361.555538 260.521875 
L 370.806788 260.521875 
L 370.806788 226.043648 
L 361.555538 226.043648 
z
" clip-path="url(#p53fb2608c8)" style="fill: #ff7f0e; opacity: 0.4"/>
   </g>
   <g id="patch_97">
    <path d="M 370.806788 260.521875 
L 380.058038 260.521875 
L 380.058038 191.565422 
L 370.806788 191.565422 
z
" clip-path="url(#p53fb2608c8)" style="fill: #ff7f0e; opacity: 0.4"/>
   </g>
   <g id="patch_98">
    <path d="M 380.058038 260.521875 
L 389.309289 260.521875 
L 389.309289 229.874563 
L 380.058038 229.874563 
z
" clip-path="url(#p53fb2608c8)" style="fill: #ff7f0e; opacity: 0.4"/>
   </g>
   <g id="patch_99">
    <path d="M 389.309289 260.521875 
L 398.560539 260.521875 
L 398.560539 245.198219 
L 389.309289 245.198219 
z
" clip-path="url(#p53fb2608c8)" style="fill: #ff7f0e; opacity: 0.4"/>
   </g>
   <g id="patch_100">
    <path d="M 398.560539 260.521875 
L 407.811789 260.521875 
L 407.811789 237.536391 
L 398.560539 237.536391 
z
" clip-path="url(#p53fb2608c8)" style="fill: #ff7f0e; opacity: 0.4"/>
   </g>
   <g id="patch_101">
    <path d="M 407.811789 260.521875 
L 417.063039 260.521875 
L 417.063039 249.029133 
L 407.811789 249.029133 
z
" clip-path="url(#p53fb2608c8)" style="fill: #ff7f0e; opacity: 0.4"/>
   </g>
   <g id="patch_102">
    <path d="M 417.063039 260.521875 
L 426.314289 260.521875 
L 426.314289 249.029133 
L 417.063039 249.029133 
z
" clip-path="url(#p53fb2608c8)" style="fill: #ff7f0e; opacity: 0.4"/>
   </g>
   <g id="patch_103">
    <path d="M 426.314289 260.521875 
L 435.565539 260.521875 
L 435.565539 256.690961 
L 426.314289 256.690961 
z
" clip-path="url(#p53fb2608c8)" style="fill: #ff7f0e; opacity: 0.4"/>
   </g>
   <g id="patch_104">
    <path d="M 435.565539 260.521875 
L 444.816789 260.521875 
L 444.816789 256.690961 
L 435.565539 256.690961 
z
" clip-path="url(#p53fb2608c8)" style="fill: #ff7f0e; opacity: 0.4"/>
   </g>
   <g id="patch_105">
    <path d="M 444.816789 260.521875 
L 454.06804 260.521875 
L 454.06804 260.521875 
L 444.816789 260.521875 
z
" clip-path="url(#p53fb2608c8)" style="fill: #ff7f0e; opacity: 0.4"/>
   </g>
   <g id="patch_106">
    <path d="M 454.06804 260.521875 
L 463.31929 260.521875 
L 463.31929 252.860047 
L 454.06804 252.860047 
z
" clip-path="url(#p53fb2608c8)" style="fill: #ff7f0e; opacity: 0.4"/>
   </g>
   <g id="patch_107">
    <path d="M 463.31929 260.521875 
L 472.57054 260.521875 
L 472.57054 260.521875 
L 463.31929 260.521875 
z
" clip-path="url(#p53fb2608c8)" style="fill: #ff7f0e; opacity: 0.4"/>
   </g>
   <g id="patch_108">
    <path d="M 472.57054 260.521875 
L 481.82179 260.521875 
L 481.82179 260.521875 
L 472.57054 260.521875 
z
" clip-path="url(#p53fb2608c8)" style="fill: #ff7f0e; opacity: 0.4"/>
   </g>
   <g id="patch_109">
    <path d="M 481.82179 260.521875 
L 491.07304 260.521875 
L 491.07304 260.521875 
L 481.82179 260.521875 
z
" clip-path="url(#p53fb2608c8)" style="fill: #ff7f0e; opacity: 0.4"/>
   </g>
   <g id="patch_110">
    <path d="M 491.07304 260.521875 
L 500.32429 260.521875 
L 500.32429 260.521875 
L 491.07304 260.521875 
z
" clip-path="url(#p53fb2608c8)" style="fill: #ff7f0e; opacity: 0.4"/>
   </g>
   <g id="patch_111">
    <path d="M 500.32429 260.521875 
L 509.57554 260.521875 
L 509.57554 256.690961 
L 500.32429 256.690961 
z
" clip-path="url(#p53fb2608c8)" style="fill: #ff7f0e; opacity: 0.4"/>
   </g>
   <g id="patch_112">
    <path d="M 322.671482 260.521875 
L 330.821467 260.521875 
L 330.821467 247.750825 
L 322.671482 247.750825 
z
" clip-path="url(#p53fb2608c8)" style="fill: #2ca02c; opacity: 0.4"/>
   </g>
   <g id="patch_113">
    <path d="M 330.821467 260.521875 
L 338.971452 260.521875 
L 338.971452 252.007842 
L 330.821467 252.007842 
z
" clip-path="url(#p53fb2608c8)" style="fill: #2ca02c; opacity: 0.4"/>
   </g>
   <g id="patch_114">
    <path d="M 338.971452 260.521875 
L 347.121438 260.521875 
L 347.121438 243.493808 
L 338.971452 243.493808 
z
" clip-path="url(#p53fb2608c8)" style="fill: #2ca02c; opacity: 0.4"/>
   </g>
   <g id="patch_115">
    <path d="M 347.121438 260.521875 
L 355.271423 260.521875 
L 355.271423 239.236791 
L 347.121438 239.236791 
z
" clip-path="url(#p53fb2608c8)" style="fill: #2ca02c; opacity: 0.4"/>
   </g>
   <g id="patch_116">
    <path d="M 355.271423 260.521875 
L 363.421408 260.521875 
L 363.421408 234.979775 
L 355.271423 234.979775 
z
" clip-path="url(#p53fb2608c8)" style="fill: #2ca02c; opacity: 0.4"/>
   </g>
   <g id="patch_117">
    <path d="M 363.421408 260.521875 
L 371.571393 260.521875 
L 371.571393 234.979775 
L 363.421408 234.979775 
z
" clip-path="url(#p53fb2608c8)" style="fill: #2ca02c; opacity: 0.4"/>
   </g>
   <g id="patch_118">
    <path d="M 371.571393 260.521875 
L 379.721378 260.521875 
L 379.721378 243.493808 
L 371.571393 243.493808 
z
" clip-path="url(#p53fb2608c8)" style="fill: #2ca02c; opacity: 0.4"/>
   </g>
   <g id="patch_119">
    <path d="M 379.721378 260.521875 
L 387.871364 260.521875 
L 387.871364 209.437674 
L 379.721378 209.437674 
z
" clip-path="url(#p53fb2608c8)" style="fill: #2ca02c; opacity: 0.4"/>
   </g>
   <g id="patch_120">
    <path d="M 387.871364 260.521875 
L 396.021349 260.521875 
L 396.021349 196.666624 
L 387.871364 196.666624 
z
" clip-path="url(#p53fb2608c8)" style="fill: #2ca02c; opacity: 0.4"/>
   </g>
   <g id="patch_121">
    <path d="M 396.021349 260.521875 
L 404.171334 260.521875 
L 404.171334 226.465741 
L 396.021349 226.465741 
z
" clip-path="url(#p53fb2608c8)" style="fill: #2ca02c; opacity: 0.4"/>
   </g>
   <g id="patch_122">
    <path d="M 404.171334 260.521875 
L 412.321319 260.521875 
L 412.321319 239.236791 
L 404.171334 239.236791 
z
" clip-path="url(#p53fb2608c8)" style="fill: #2ca02c; opacity: 0.4"/>
   </g>
   <g id="patch_123">
    <path d="M 412.321319 260.521875 
L 420.471304 260.521875 
L 420.471304 239.236791 
L 412.321319 239.236791 
z
" clip-path="url(#p53fb2608c8)" style="fill: #2ca02c; opacity: 0.4"/>
   </g>
   <g id="patch_124">
    <path d="M 420.471304 260.521875 
L 428.62129 260.521875 
L 428.62129 243.493808 
L 420.471304 243.493808 
z
" clip-path="url(#p53fb2608c8)" style="fill: #2ca02c; opacity: 0.4"/>
   </g>
   <g id="patch_125">
    <path d="M 428.62129 260.521875 
L 436.771275 260.521875 
L 436.771275 234.979775 
L 428.62129 234.979775 
z
" clip-path="url(#p53fb2608c8)" style="fill: #2ca02c; opacity: 0.4"/>
   </g>
   <g id="patch_126">
    <path d="M 436.771275 260.521875 
L 444.92126 260.521875 
L 444.92126 247.750825 
L 436.771275 247.750825 
z
" clip-path="url(#p53fb2608c8)" style="fill: #2ca02c; opacity: 0.4"/>
   </g>
   <g id="patch_127">
    <path d="M 444.92126 260.521875 
L 453.071245 260.521875 
L 453.071245 247.750825 
L 444.92126 247.750825 
z
" clip-path="url(#p53fb2608c8)" style="fill: #2ca02c; opacity: 0.4"/>
   </g>
   <g id="patch_128">
    <path d="M 453.071245 260.521875 
L 461.22123 260.521875 
L 461.22123 247.750825 
L 453.071245 247.750825 
z
" clip-path="url(#p53fb2608c8)" style="fill: #2ca02c; opacity: 0.4"/>
   </g>
   <g id="patch_129">
    <path d="M 461.22123 260.521875 
L 469.371216 260.521875 
L 469.371216 260.521875 
L 461.22123 260.521875 
z
" clip-path="url(#p53fb2608c8)" style="fill: #2ca02c; opacity: 0.4"/>
   </g>
   <g id="patch_130">
    <path d="M 469.371216 260.521875 
L 477.521201 260.521875 
L 477.521201 260.521875 
L 469.371216 260.521875 
z
" clip-path="url(#p53fb2608c8)" style="fill: #2ca02c; opacity: 0.4"/>
   </g>
   <g id="patch_131">
    <path d="M 477.521201 260.521875 
L 485.671186 260.521875 
L 485.671186 256.264858 
L 477.521201 256.264858 
z
" clip-path="url(#p53fb2608c8)" style="fill: #2ca02c; opacity: 0.4"/>
   </g>
   <g id="matplotlib.axis_3">
    <g id="xtick_7">
     <g id="line2d_19">
      <g>
       <use xlink:href="#m71e77f0b96" x="352.62419" y="260.521875" style="stroke: #000000; stroke-width: 0.8"/>
      </g>
     </g>
     <g id="text_21">
      <!-- 1.25 -->
      <g transform="translate(341.491377 275.120313) scale(0.1 -0.1)">
       <use xlink:href="#DejaVuSans-31"/>
       <use xlink:href="#DejaVuSans-2e" x="63.623047"/>
       <use xlink:href="#DejaVuSans-32" x="95.410156"/>
       <use xlink:href="#DejaVuSans-35" x="159.033203"/>
      </g>
     </g>
    </g>
    <g id="xtick_8">
     <g id="line2d_20">
      <g>
       <use xlink:href="#m71e77f0b96" x="386.21463" y="260.521875" style="stroke: #000000; stroke-width: 0.8"/>
      </g>
     </g>
     <g id="text_22">
      <!-- 1.50 -->
      <g transform="translate(375.081818 275.120313) scale(0.1 -0.1)">
       <use xlink:href="#DejaVuSans-31"/>
       <use xlink:href="#DejaVuSans-2e" x="63.623047"/>
       <use xlink:href="#DejaVuSans-35" x="95.410156"/>
       <use xlink:href="#DejaVuSans-30" x="159.033203"/>
      </g>
     </g>
    </g>
    <g id="xtick_9">
     <g id="line2d_21">
      <g>
       <use xlink:href="#m71e77f0b96" x="419.805071" y="260.521875" style="stroke: #000000; stroke-width: 0.8"/>
      </g>
     </g>
     <g id="text_23">
      <!-- 1.75 -->
      <g transform="translate(408.672259 275.120313) scale(0.1 -0.1)">
       <use xlink:href="#DejaVuSans-31"/>
       <use xlink:href="#DejaVuSans-2e" x="63.623047"/>
       <use xlink:href="#DejaVuSans-37" x="95.410156"/>
       <use xlink:href="#DejaVuSans-35" x="159.033203"/>
      </g>
     </g>
    </g>
    <g id="xtick_10">
     <g id="line2d_22">
      <g>
       <use xlink:href="#m71e77f0b96" x="453.395512" y="260.521875" style="stroke: #000000; stroke-width: 0.8"/>
      </g>
     </g>
     <g id="text_24">
      <!-- 2.00 -->
      <g transform="translate(442.262699 275.120313) scale(0.1 -0.1)">
       <use xlink:href="#DejaVuSans-32"/>
       <use xlink:href="#DejaVuSans-2e" x="63.623047"/>
       <use xlink:href="#DejaVuSans-30" x="95.410156"/>
       <use xlink:href="#DejaVuSans-30" x="159.033203"/>
      </g>
     </g>
    </g>
    <g id="xtick_11">
     <g id="line2d_23">
      <g>
       <use xlink:href="#m71e77f0b96" x="486.985953" y="260.521875" style="stroke: #000000; stroke-width: 0.8"/>
      </g>
     </g>
     <g id="text_25">
      <!-- 2.25 -->
      <g transform="translate(475.85314 275.120313) scale(0.1 -0.1)">
       <use xlink:href="#DejaVuSans-32"/>
       <use xlink:href="#DejaVuSans-2e" x="63.623047"/>
       <use xlink:href="#DejaVuSans-32" x="95.410156"/>
       <use xlink:href="#DejaVuSans-35" x="159.033203"/>
      </g>
     </g>
    </g>
    <g id="xtick_12">
     <g id="line2d_24">
      <g>
       <use xlink:href="#m71e77f0b96" x="520.576393" y="260.521875" style="stroke: #000000; stroke-width: 0.8"/>
      </g>
     </g>
     <g id="text_26">
      <!-- 2.50 -->
      <g transform="translate(509.443581 275.120313) scale(0.1 -0.1)">
       <use xlink:href="#DejaVuSans-32"/>
       <use xlink:href="#DejaVuSans-2e" x="63.623047"/>
       <use xlink:href="#DejaVuSans-35" x="95.410156"/>
       <use xlink:href="#DejaVuSans-30" x="159.033203"/>
      </g>
     </g>
    </g>
    <g id="xtick_13">
     <g id="line2d_25">
      <g>
       <use xlink:href="#m71e77f0b96" x="554.166834" y="260.521875" style="stroke: #000000; stroke-width: 0.8"/>
      </g>
     </g>
     <g id="text_27">
      <!-- 2.75 -->
      <g transform="translate(543.034022 275.120313) scale(0.1 -0.1)">
       <use xlink:href="#DejaVuSans-32"/>
       <use xlink:href="#DejaVuSans-2e" x="63.623047"/>
       <use xlink:href="#DejaVuSans-37" x="95.410156"/>
       <use xlink:href="#DejaVuSans-35" x="159.033203"/>
      </g>
     </g>
    </g>
   </g>
   <g id="matplotlib.axis_4">
    <g id="ytick_10">
     <g id="line2d_26">
      <g>
       <use xlink:href="#mc21170d444" x="319.380625" y="260.521875" style="stroke: #000000; stroke-width: 0.8"/>
      </g>
     </g>
    </g>
    <g id="ytick_11">
     <g id="line2d_27">
      <g>
       <use xlink:href="#mc21170d444" x="319.380625" y="235.991167" style="stroke: #000000; stroke-width: 0.8"/>
      </g>
     </g>
    </g>
    <g id="ytick_12">
     <g id="line2d_28">
      <g>
       <use xlink:href="#mc21170d444" x="319.380625" y="211.460458" style="stroke: #000000; stroke-width: 0.8"/>
      </g>
     </g>
    </g>
    <g id="ytick_13">
     <g id="line2d_29">
      <g>
       <use xlink:href="#mc21170d444" x="319.380625" y="186.92975" style="stroke: #000000; stroke-width: 0.8"/>
      </g>
     </g>
    </g>
    <g id="ytick_14">
     <g id="line2d_30">
      <g>
       <use xlink:href="#mc21170d444" x="319.380625" y="162.399042" style="stroke: #000000; stroke-width: 0.8"/>
      </g>
     </g>
    </g>
    <g id="ytick_15">
     <g id="line2d_31">
      <g>
       <use xlink:href="#mc21170d444" x="319.380625" y="137.868334" style="stroke: #000000; stroke-width: 0.8"/>
      </g>
     </g>
    </g>
    <g id="ytick_16">
     <g id="line2d_32">
      <g>
       <use xlink:href="#mc21170d444" x="319.380625" y="113.337625" style="stroke: #000000; stroke-width: 0.8"/>
      </g>
     </g>
    </g>
    <g id="ytick_17">
     <g id="line2d_33">
      <g>
       <use xlink:href="#mc21170d444" x="319.380625" y="88.806917" style="stroke: #000000; stroke-width: 0.8"/>
      </g>
     </g>
    </g>
    <g id="ytick_18">
     <g id="line2d_34">
      <g>
       <use xlink:href="#mc21170d444" x="319.380625" y="64.276209" style="stroke: #000000; stroke-width: 0.8"/>
      </g>
     </g>
    </g>
    <g id="text_28">
     <!-- Fraction of cells -->
     <g transform="translate(308.969062 213.889844) rotate(-90) scale(0.14 -0.14)">
      <use xlink:href="#DejaVuSans-46"/>
      <use xlink:href="#DejaVuSans-72" x="50.269531"/>
      <use xlink:href="#DejaVuSans-61" x="91.382812"/>
      <use xlink:href="#DejaVuSans-63" x="152.662109"/>
      <use xlink:href="#DejaVuSans-74" x="207.642578"/>
      <use xlink:href="#DejaVuSans-69" x="246.851562"/>
      <use xlink:href="#DejaVuSans-6f" x="274.634766"/>
      <use xlink:href="#DejaVuSans-6e" x="335.816406"/>
      <use xlink:href="#DejaVuSans-20" x="399.195312"/>
      <use xlink:href="#DejaVuSans-6f" x="430.982422"/>
      <use xlink:href="#DejaVuSans-66" x="492.164062"/>
      <use xlink:href="#DejaVuSans-20" x="527.369141"/>
      <use xlink:href="#DejaVuSans-63" x="559.15625"/>
      <use xlink:href="#DejaVuSans-65" x="614.136719"/>
      <use xlink:href="#DejaVuSans-6c" x="675.660156"/>
      <use xlink:href="#DejaVuSans-6c" x="703.443359"/>
      <use xlink:href="#DejaVuSans-73" x="731.226562"/>
     </g>
    </g>
   </g>
   <g id="line2d_35">
    <path d="M 319.033749 258.867995 
L 324.462507 258.062701 
L 331.248454 256.799449 
L 342.105971 254.464025 
L 351.606297 252.275757 
L 357.035055 250.782416 
L 361.106624 249.451287 
L 365.178193 247.908297 
L 369.249761 246.156348 
L 374.678519 243.560857 
L 389.607604 236.198272 
L 395.036362 233.838221 
L 399.107931 232.27897 
L 403.179499 230.979978 
L 405.893878 230.294586 
L 408.608257 229.766186 
L 412.679826 229.247491 
L 418.108584 228.900221 
L 427.608911 228.384009 
L 433.037669 228.094518 
L 435.752048 228.103099 
L 438.466427 228.311373 
L 441.180806 228.783844 
L 443.895185 229.561751 
L 446.609564 230.653459 
L 449.323943 232.031166 
L 452.038322 233.635057 
L 457.46708 237.192192 
L 462.895838 240.702016 
L 466.967407 243.103683 
L 472.396165 246.045178 
L 485.96806 253.097473 
L 490.039629 254.984392 
L 494.111198 256.577374 
L 496.825577 257.445733 
L 500.897145 258.459234 
L 504.968714 259.171254 
L 509.040282 259.654308 
L 514.46904 260.059335 
L 521.254988 260.333041 
L 530.755315 260.48326 
L 552.470347 260.521731 
L 577 260.521875 
L 577 260.521875 
" clip-path="url(#p53fb2608c8)" style="fill: none; stroke: #1f77b4; stroke-width: 1.5; stroke-linecap: square"/>
   </g>
   <g id="line2d_36">
    <path d="M 319.033749 250.137228 
L 323.105317 246.470106 
L 329.891265 239.817315 
L 333.962834 235.911422 
L 338.034402 232.342091 
L 340.748781 230.218143 
L 343.46316 228.313558 
L 346.177539 226.614066 
L 350.249108 224.372417 
L 355.677866 221.736948 
L 361.106624 219.371682 
L 363.821003 218.366415 
L 366.535382 217.585683 
L 369.249761 217.134466 
L 370.606951 217.065408 
L 371.96414 217.116233 
L 373.32133 217.29612 
L 374.678519 217.611587 
L 376.035709 218.066047 
L 377.392898 218.659511 
L 378.750088 219.38847 
L 381.464467 221.221783 
L 384.178846 223.4743 
L 388.250415 227.357298 
L 395.036362 234.060222 
L 399.107931 237.691177 
L 401.82231 239.861892 
L 404.536689 241.832874 
L 408.608257 244.452522 
L 412.679826 246.730228 
L 416.751395 248.724633 
L 420.822963 250.477255 
L 424.894532 252.016558 
L 428.9661 253.358375 
L 433.037669 254.503743 
L 437.109237 255.443212 
L 441.180806 256.17179 
L 445.252375 256.707964 
L 452.038322 257.326858 
L 461.538649 258.17715 
L 477.824923 259.849194 
L 483.253681 260.091056 
L 488.682439 260.107399 
L 495.468387 259.889174 
L 507.683093 259.441351 
L 513.111851 259.47066 
L 519.897799 259.727452 
L 533.469694 260.322438 
L 542.97002 260.4824 
L 563.327863 260.521674 
L 577 260.521874 
L 577 260.521874 
" clip-path="url(#p53fb2608c8)" style="fill: none; stroke: #ff7f0e; stroke-width: 1.5; stroke-linecap: square"/>
   </g>
   <g id="line2d_37">
    <path d="M 319.033749 255.671654 
L 323.105317 254.179183 
L 328.534075 251.912485 
L 333.962834 249.365562 
L 342.105971 245.213616 
L 348.891918 241.822461 
L 354.320676 239.379822 
L 363.821003 235.310006 
L 366.535382 233.946608 
L 369.249761 232.392061 
L 371.96414 230.625988 
L 376.035709 227.645988 
L 381.464467 223.576717 
L 384.178846 221.84698 
L 385.536036 221.134388 
L 386.893225 220.550112 
L 388.250415 220.111285 
L 389.607604 219.831764 
L 390.964794 219.721531 
L 392.321983 219.786263 
L 393.679173 220.02709 
L 395.036362 220.440553 
L 396.393552 221.018762 
L 397.750741 221.749729 
L 400.46512 223.604627 
L 403.179499 225.849338 
L 412.679826 234.260472 
L 415.394205 236.244975 
L 418.108584 237.91061 
L 420.822963 239.260391 
L 423.537342 240.334439 
L 426.251721 241.197523 
L 431.680479 242.591827 
L 437.109237 243.974488 
L 441.180806 245.190543 
L 445.252375 246.598797 
L 450.681133 248.729471 
L 465.610218 254.86543 
L 469.681786 256.202935 
L 473.753355 257.263813 
L 477.824923 258.046657 
L 481.896492 258.598391 
L 487.32525 259.101091 
L 498.182766 259.804595 
L 507.683093 260.242134 
L 517.183419 260.452042 
L 533.469694 260.519755 
L 577 260.521875 
L 577 260.521875 
" clip-path="url(#p53fb2608c8)" style="fill: none; stroke: #2ca02c; stroke-width: 1.5; stroke-linecap: square"/>
   </g>
   <g id="patch_132">
    <path d="M 319.380625 260.521875 
L 319.380625 57.594062 
" style="fill: none; stroke: #000000; stroke-width: 0.8; stroke-linejoin: miter; stroke-linecap: square"/>
   </g>
   <g id="patch_133">
    <path d="M 565.2 260.521875 
L 565.2 57.594062 
" style="fill: none; stroke: #000000; stroke-width: 0.8; stroke-linejoin: miter; stroke-linecap: square"/>
   </g>
   <g id="patch_134">
    <path d="M 319.380625 260.521875 
L 565.2 260.521875 
" style="fill: none; stroke: #000000; stroke-width: 0.8; stroke-linejoin: miter; stroke-linecap: square"/>
   </g>
   <g id="patch_135">
    <path d="M 319.380625 57.594062 
L 565.2 57.594062 
" style="fill: none; stroke: #000000; stroke-width: 0.8; stroke-linejoin: miter; stroke-linecap: square"/>
   </g>
   <g id="text_29">
    <!-- Linear -->
    <g transform="translate(420.534531 51.594062) scale(0.14 -0.14)">
     <defs>
      <path id="DejaVuSans-4c" d="M 628 4666 
L 1259 4666 
L 1259 531 
L 3531 531 
L 3531 0 
L 628 0 
L 628 4666 
z
" transform="scale(0.015625)"/>
     </defs>
     <use xlink:href="#DejaVuSans-4c"/>
     <use xlink:href="#DejaVuSans-69" x="55.712891"/>
     <use xlink:href="#DejaVuSans-6e" x="83.496094"/>
     <use xlink:href="#DejaVuSans-65" x="146.875"/>
     <use xlink:href="#DejaVuSans-61" x="208.398438"/>
     <use xlink:href="#DejaVuSans-72" x="269.677734"/>
    </g>
   </g>
   <g id="legend_2">
    <g id="patch_136">
     <path d="M 476.810625 120.035312 
L 556.8 120.035312 
Q 559.2 120.035312 559.2 117.635312 
L 559.2 65.994062 
Q 559.2 63.594062 556.8 63.594062 
L 476.810625 63.594062 
Q 474.410625 63.594062 474.410625 65.994062 
L 474.410625 117.635312 
Q 474.410625 120.035312 476.810625 120.035312 
z
" style="fill: #ffffff; opacity: 0.8; stroke: #cccccc; stroke-linejoin: miter"/>
    </g>
    <g id="patch_137">
     <path d="M 479.210625 77.512187 
L 503.210625 77.512187 
L 503.210625 69.112187 
L 479.210625 69.112187 
z
" style="fill: #1f77b4; opacity: 0.4"/>
    </g>
    <g id="text_30">
     <!-- control -->
     <g transform="translate(512.810625 77.512187) scale(0.12 -0.12)">
      <use xlink:href="#DejaVuSans-63"/>
      <use xlink:href="#DejaVuSans-6f" x="54.980469"/>
      <use xlink:href="#DejaVuSans-6e" x="116.162109"/>
      <use xlink:href="#DejaVuSans-74" x="179.541016"/>
      <use xlink:href="#DejaVuSans-72" x="218.75"/>
      <use xlink:href="#DejaVuSans-6f" x="257.613281"/>
      <use xlink:href="#DejaVuSans-6c" x="318.794922"/>
     </g>
    </g>
    <g id="patch_138">
     <path d="M 479.210625 95.125937 
L 503.210625 95.125937 
L 503.210625 86.725937 
L 479.210625 86.725937 
z
" style="fill: #ff7f0e; opacity: 0.4"/>
    </g>
    <g id="text_31">
     <!-- cytd -->
     <g transform="translate(512.810625 95.125937) scale(0.12 -0.12)">
      <use xlink:href="#DejaVuSans-63"/>
      <use xlink:href="#DejaVuSans-79" x="54.980469"/>
      <use xlink:href="#DejaVuSans-74" x="114.160156"/>
      <use xlink:href="#DejaVuSans-64" x="153.369141"/>
     </g>
    </g>
    <g id="patch_139">
     <path d="M 479.210625 112.739687 
L 503.210625 112.739687 
L 503.210625 104.339687 
L 479.210625 104.339687 
z
" style="fill: #2ca02c; opacity: 0.4"/>
    </g>
    <g id="text_32">
     <!-- jasp -->
     <g transform="translate(512.810625 112.739687) scale(0.12 -0.12)">
      <use xlink:href="#DejaVuSans-6a"/>
      <use xlink:href="#DejaVuSans-61" x="27.783203"/>
      <use xlink:href="#DejaVuSans-73" x="89.0625"/>
      <use xlink:href="#DejaVuSans-70" x="141.162109"/>
     </g>
    </g>
   </g>
  </g>
  <g id="text_33">
   <!-- Histograms of SRV distances to global mean cell -->
   <g transform="translate(45.753125 20.956875) scale(0.2 -0.2)">
    <defs>
     <path id="DejaVuSans-48" d="M 628 4666 
L 1259 4666 
L 1259 2753 
L 3553 2753 
L 3553 4666 
L 4184 4666 
L 4184 0 
L 3553 0 
L 3553 2222 
L 1259 2222 
L 1259 0 
L 628 0 
L 628 4666 
z
" transform="scale(0.015625)"/>
     <path id="DejaVuSans-67" d="M 2906 1791 
Q 2906 2416 2648 2759 
Q 2391 3103 1925 3103 
Q 1463 3103 1205 2759 
Q 947 2416 947 1791 
Q 947 1169 1205 825 
Q 1463 481 1925 481 
Q 2391 481 2648 825 
Q 2906 1169 2906 1791 
z
M 3481 434 
Q 3481 -459 3084 -895 
Q 2688 -1331 1869 -1331 
Q 1566 -1331 1297 -1286 
Q 1028 -1241 775 -1147 
L 775 -588 
Q 1028 -725 1275 -790 
Q 1522 -856 1778 -856 
Q 2344 -856 2625 -561 
Q 2906 -266 2906 331 
L 2906 616 
Q 2728 306 2450 153 
Q 2172 0 1784 0 
Q 1141 0 747 490 
Q 353 981 353 1791 
Q 353 2603 747 3093 
Q 1141 3584 1784 3584 
Q 2172 3584 2450 3431 
Q 2728 3278 2906 2969 
L 2906 3500 
L 3481 3500 
L 3481 434 
z
" transform="scale(0.015625)"/>
     <path id="DejaVuSans-6d" d="M 3328 2828 
Q 3544 3216 3844 3400 
Q 4144 3584 4550 3584 
Q 5097 3584 5394 3201 
Q 5691 2819 5691 2113 
L 5691 0 
L 5113 0 
L 5113 2094 
Q 5113 2597 4934 2840 
Q 4756 3084 4391 3084 
Q 3944 3084 3684 2787 
Q 3425 2491 3425 1978 
L 3425 0 
L 2847 0 
L 2847 2094 
Q 2847 2600 2669 2842 
Q 2491 3084 2119 3084 
Q 1678 3084 1418 2786 
Q 1159 2488 1159 1978 
L 1159 0 
L 581 0 
L 581 3500 
L 1159 3500 
L 1159 2956 
Q 1356 3278 1631 3431 
Q 1906 3584 2284 3584 
Q 2666 3584 2933 3390 
Q 3200 3197 3328 2828 
z
" transform="scale(0.015625)"/>
     <path id="DejaVuSans-62" d="M 3116 1747 
Q 3116 2381 2855 2742 
Q 2594 3103 2138 3103 
Q 1681 3103 1420 2742 
Q 1159 2381 1159 1747 
Q 1159 1113 1420 752 
Q 1681 391 2138 391 
Q 2594 391 2855 752 
Q 3116 1113 3116 1747 
z
M 1159 2969 
Q 1341 3281 1617 3432 
Q 1894 3584 2278 3584 
Q 2916 3584 3314 3078 
Q 3713 2572 3713 1747 
Q 3713 922 3314 415 
Q 2916 -91 2278 -91 
Q 1894 -91 1617 61 
Q 1341 213 1159 525 
L 1159 0 
L 581 0 
L 581 4863 
L 1159 4863 
L 1159 2969 
z
" transform="scale(0.015625)"/>
    </defs>
    <use xlink:href="#DejaVuSans-48"/>
    <use xlink:href="#DejaVuSans-69" x="75.195312"/>
    <use xlink:href="#DejaVuSans-73" x="102.978516"/>
    <use xlink:href="#DejaVuSans-74" x="155.078125"/>
    <use xlink:href="#DejaVuSans-6f" x="194.287109"/>
    <use xlink:href="#DejaVuSans-67" x="255.46875"/>
    <use xlink:href="#DejaVuSans-72" x="318.945312"/>
    <use xlink:href="#DejaVuSans-61" x="360.058594"/>
    <use xlink:href="#DejaVuSans-6d" x="421.337891"/>
    <use xlink:href="#DejaVuSans-73" x="518.75"/>
    <use xlink:href="#DejaVuSans-20" x="570.849609"/>
    <use xlink:href="#DejaVuSans-6f" x="602.636719"/>
    <use xlink:href="#DejaVuSans-66" x="663.818359"/>
    <use xlink:href="#DejaVuSans-20" x="699.023438"/>
    <use xlink:href="#DejaVuSans-53" x="730.810547"/>
    <use xlink:href="#DejaVuSans-52" x="794.287109"/>
    <use xlink:href="#DejaVuSans-56" x="858.269531"/>
    <use xlink:href="#DejaVuSans-20" x="926.677734"/>
    <use xlink:href="#DejaVuSans-64" x="958.464844"/>
    <use xlink:href="#DejaVuSans-69" x="1021.941406"/>
    <use xlink:href="#DejaVuSans-73" x="1049.724609"/>
    <use xlink:href="#DejaVuSans-74" x="1101.824219"/>
    <use xlink:href="#DejaVuSans-61" x="1141.033203"/>
    <use xlink:href="#DejaVuSans-6e" x="1202.3125"/>
    <use xlink:href="#DejaVuSans-63" x="1265.691406"/>
    <use xlink:href="#DejaVuSans-65" x="1320.671875"/>
    <use xlink:href="#DejaVuSans-73" x="1382.195312"/>
    <use xlink:href="#DejaVuSans-20" x="1434.294922"/>
    <use xlink:href="#DejaVuSans-74" x="1466.082031"/>
    <use xlink:href="#DejaVuSans-6f" x="1505.291016"/>
    <use xlink:href="#DejaVuSans-20" x="1566.472656"/>
    <use xlink:href="#DejaVuSans-67" x="1598.259766"/>
    <use xlink:href="#DejaVuSans-6c" x="1661.736328"/>
    <use xlink:href="#DejaVuSans-6f" x="1689.519531"/>
    <use xlink:href="#DejaVuSans-62" x="1750.701172"/>
    <use xlink:href="#DejaVuSans-61" x="1814.177734"/>
    <use xlink:href="#DejaVuSans-6c" x="1875.457031"/>
    <use xlink:href="#DejaVuSans-20" x="1903.240234"/>
    <use xlink:href="#DejaVuSans-6d" x="1935.027344"/>
    <use xlink:href="#DejaVuSans-65" x="2032.439453"/>
    <use xlink:href="#DejaVuSans-61" x="2093.962891"/>
    <use xlink:href="#DejaVuSans-6e" x="2155.242188"/>
    <use xlink:href="#DejaVuSans-20" x="2218.621094"/>
    <use xlink:href="#DejaVuSans-63" x="2250.408203"/>
    <use xlink:href="#DejaVuSans-65" x="2305.388672"/>
    <use xlink:href="#DejaVuSans-6c" x="2366.912109"/>
    <use xlink:href="#DejaVuSans-6c" x="2394.695312"/>
   </g>
  </g>
 </g>
 <defs>
  <clipPath id="p5a9a0e5ed7">
   <rect x="41.711875" y="57.594062" width="245.819375" height="202.927813"/>
  </clipPath>
  <clipPath id="p53fb2608c8">
   <rect x="319.380625" y="57.594062" width="245.819375" height="202.927813"/>
  </clipPath>
 </defs>
</svg>
