<?xml version="1.0" encoding="utf-8" standalone="no"?>
<!DOCTYPE svg PUBLIC "-//W3C//DTD SVG 1.1//EN"
  "http://www.w3.org/Graphics/SVG/1.1/DTD/svg11.dtd">
<svg xmlns:xlink="http://www.w3.org/1999/xlink" width="576pt" height="288pt" viewBox="0 0 576 288" xmlns="http://www.w3.org/2000/svg" version="1.1">
 <metadata>
  <rdf:RDF xmlns:dc="http://purl.org/dc/elements/1.1/" xmlns:cc="http://creativecommons.org/ns#" xmlns:rdf="http://www.w3.org/1999/02/22-rdf-syntax-ns#">
   <cc:Work>
    <dc:type rdf:resource="http://purl.org/dc/dcmitype/StillImage"/>
    <dc:date>2023-12-20T00:39:24.582856</dc:date>
    <dc:format>image/svg+xml</dc:format>
    <dc:creator>
     <cc:Agent>
      <dc:title>Matplotlib v3.6.2, https://matplotlib.org/</dc:title>
     </cc:Agent>
    </dc:creator>
   </cc:Work>
  </rdf:RDF>
 </metadata>
 <defs>
  <style type="text/css">*{stroke-linejoin: round; stroke-linecap: butt}</style>
 </defs>
 <g id="figure_1">
  <g id="patch_1">
   <path d="M 0 288 
L 576 288 
L 576 0 
L 0 0 
z
" style="fill: #ffffff"/>
  </g>
  <g id="axes_1">
   <g id="patch_2">
    <path d="M 57.615 260.521875 
L 295.482813 260.521875 
L 295.482813 27.437812 
L 57.615 27.437812 
z
" style="fill: #ffffff"/>
   </g>
   <g id="patch_3">
    <path d="M 57.615 260.521875 
L 65.963582 260.521875 
L 65.963582 222.507613 
L 57.615 222.507613 
z
" clip-path="url(#p742bc4b91d)" style="fill: #1f77b4; opacity: 0.4"/>
   </g>
   <g id="patch_4">
    <path d="M 65.963582 260.521875 
L 74.312164 260.521875 
L 74.312164 179.062742 
L 65.963582 179.062742 
z
" clip-path="url(#p742bc4b91d)" style="fill: #1f77b4; opacity: 0.4"/>
   </g>
   <g id="patch_5">
    <path d="M 74.312164 260.521875 
L 82.660746 260.521875 
L 82.660746 233.368831 
L 74.312164 233.368831 
z
" clip-path="url(#p742bc4b91d)" style="fill: #1f77b4; opacity: 0.4"/>
   </g>
   <g id="patch_6">
    <path d="M 82.660746 260.521875 
L 91.009327 260.521875 
L 91.009327 242.419845 
L 82.660746 242.419845 
z
" clip-path="url(#p742bc4b91d)" style="fill: #1f77b4; opacity: 0.4"/>
   </g>
   <g id="patch_7">
    <path d="M 91.009327 260.521875 
L 99.357909 260.521875 
L 99.357909 249.660657 
L 91.009327 249.660657 
z
" clip-path="url(#p742bc4b91d)" style="fill: #1f77b4; opacity: 0.4"/>
   </g>
   <g id="patch_8">
    <path d="M 99.357909 260.521875 
L 107.706491 260.521875 
L 107.706491 249.660657 
L 99.357909 249.660657 
z
" clip-path="url(#p742bc4b91d)" style="fill: #1f77b4; opacity: 0.4"/>
   </g>
   <g id="patch_9">
    <path d="M 107.706491 260.521875 
L 116.055073 260.521875 
L 116.055073 242.419845 
L 107.706491 242.419845 
z
" clip-path="url(#p742bc4b91d)" style="fill: #1f77b4; opacity: 0.4"/>
   </g>
   <g id="patch_10">
    <path d="M 116.055073 260.521875 
L 124.403655 260.521875 
L 124.403655 238.79944 
L 116.055073 238.79944 
z
" clip-path="url(#p742bc4b91d)" style="fill: #1f77b4; opacity: 0.4"/>
   </g>
   <g id="patch_11">
    <path d="M 124.403655 260.521875 
L 132.752237 260.521875 
L 132.752237 242.419845 
L 124.403655 242.419845 
z
" clip-path="url(#p742bc4b91d)" style="fill: #1f77b4; opacity: 0.4"/>
   </g>
   <g id="patch_12">
    <path d="M 132.752237 260.521875 
L 141.100818 260.521875 
L 141.100818 226.128019 
L 132.752237 226.128019 
z
" clip-path="url(#p742bc4b91d)" style="fill: #1f77b4; opacity: 0.4"/>
   </g>
   <g id="patch_13">
    <path d="M 141.100818 260.521875 
L 149.4494 260.521875 
L 149.4494 244.230048 
L 141.100818 244.230048 
z
" clip-path="url(#p742bc4b91d)" style="fill: #1f77b4; opacity: 0.4"/>
   </g>
   <g id="patch_14">
    <path d="M 149.4494 260.521875 
L 157.797982 260.521875 
L 157.797982 249.660657 
L 149.4494 249.660657 
z
" clip-path="url(#p742bc4b91d)" style="fill: #1f77b4; opacity: 0.4"/>
   </g>
   <g id="patch_15">
    <path d="M 157.797982 260.521875 
L 166.146564 260.521875 
L 166.146564 242.419845 
L 157.797982 242.419845 
z
" clip-path="url(#p742bc4b91d)" style="fill: #1f77b4; opacity: 0.4"/>
   </g>
   <g id="patch_16">
    <path d="M 166.146564 260.521875 
L 174.495146 260.521875 
L 174.495146 247.850454 
L 166.146564 247.850454 
z
" clip-path="url(#p742bc4b91d)" style="fill: #1f77b4; opacity: 0.4"/>
   </g>
   <g id="patch_17">
    <path d="M 174.495146 260.521875 
L 182.843728 260.521875 
L 182.843728 247.850454 
L 174.495146 247.850454 
z
" clip-path="url(#p742bc4b91d)" style="fill: #1f77b4; opacity: 0.4"/>
   </g>
   <g id="patch_18">
    <path d="M 182.843728 260.521875 
L 191.19231 260.521875 
L 191.19231 256.901469 
L 182.843728 256.901469 
z
" clip-path="url(#p742bc4b91d)" style="fill: #1f77b4; opacity: 0.4"/>
   </g>
   <g id="patch_19">
    <path d="M 191.19231 260.521875 
L 199.540891 260.521875 
L 199.540891 255.091266 
L 191.19231 255.091266 
z
" clip-path="url(#p742bc4b91d)" style="fill: #1f77b4; opacity: 0.4"/>
   </g>
   <g id="patch_20">
    <path d="M 199.540891 260.521875 
L 207.889473 260.521875 
L 207.889473 255.091266 
L 199.540891 255.091266 
z
" clip-path="url(#p742bc4b91d)" style="fill: #1f77b4; opacity: 0.4"/>
   </g>
   <g id="patch_21">
    <path d="M 207.889473 260.521875 
L 216.238055 260.521875 
L 216.238055 256.901469 
L 207.889473 256.901469 
z
" clip-path="url(#p742bc4b91d)" style="fill: #1f77b4; opacity: 0.4"/>
   </g>
   <g id="patch_22">
    <path d="M 216.238055 260.521875 
L 224.586637 260.521875 
L 224.586637 258.711672 
L 216.238055 258.711672 
z
" clip-path="url(#p742bc4b91d)" style="fill: #1f77b4; opacity: 0.4"/>
   </g>
   <g id="patch_23">
    <path d="M 91.066682 260.521875 
L 100.912854 260.521875 
L 100.912854 257.155056 
L 91.066682 257.155056 
z
" clip-path="url(#p742bc4b91d)" style="fill: #ff7f0e; opacity: 0.4"/>
   </g>
   <g id="patch_24">
    <path d="M 100.912854 260.521875 
L 110.759026 260.521875 
L 110.759026 260.521875 
L 100.912854 260.521875 
z
" clip-path="url(#p742bc4b91d)" style="fill: #ff7f0e; opacity: 0.4"/>
   </g>
   <g id="patch_25">
    <path d="M 110.759026 260.521875 
L 120.605197 260.521875 
L 120.605197 257.155056 
L 110.759026 257.155056 
z
" clip-path="url(#p742bc4b91d)" style="fill: #ff7f0e; opacity: 0.4"/>
   </g>
   <g id="patch_26">
    <path d="M 120.605197 260.521875 
L 130.451369 260.521875 
L 130.451369 257.155056 
L 120.605197 257.155056 
z
" clip-path="url(#p742bc4b91d)" style="fill: #ff7f0e; opacity: 0.4"/>
   </g>
   <g id="patch_27">
    <path d="M 130.451369 260.521875 
L 140.297541 260.521875 
L 140.297541 260.521875 
L 130.451369 260.521875 
z
" clip-path="url(#p742bc4b91d)" style="fill: #ff7f0e; opacity: 0.4"/>
   </g>
   <g id="patch_28">
    <path d="M 140.297541 260.521875 
L 150.143713 260.521875 
L 150.143713 247.054598 
L 140.297541 247.054598 
z
" clip-path="url(#p742bc4b91d)" style="fill: #ff7f0e; opacity: 0.4"/>
   </g>
   <g id="patch_29">
    <path d="M 150.143713 260.521875 
L 159.989884 260.521875 
L 159.989884 253.788237 
L 150.143713 253.788237 
z
" clip-path="url(#p742bc4b91d)" style="fill: #ff7f0e; opacity: 0.4"/>
   </g>
   <g id="patch_30">
    <path d="M 159.989884 260.521875 
L 169.836056 260.521875 
L 169.836056 250.421418 
L 159.989884 250.421418 
z
" clip-path="url(#p742bc4b91d)" style="fill: #ff7f0e; opacity: 0.4"/>
   </g>
   <g id="patch_31">
    <path d="M 169.836056 260.521875 
L 179.682228 260.521875 
L 179.682228 240.32096 
L 169.836056 240.32096 
z
" clip-path="url(#p742bc4b91d)" style="fill: #ff7f0e; opacity: 0.4"/>
   </g>
   <g id="patch_32">
    <path d="M 179.682228 260.521875 
L 189.5284 260.521875 
L 189.5284 236.954141 
L 179.682228 236.954141 
z
" clip-path="url(#p742bc4b91d)" style="fill: #ff7f0e; opacity: 0.4"/>
   </g>
   <g id="patch_33">
    <path d="M 189.5284 260.521875 
L 199.374571 260.521875 
L 199.374571 236.954141 
L 189.5284 236.954141 
z
" clip-path="url(#p742bc4b91d)" style="fill: #ff7f0e; opacity: 0.4"/>
   </g>
   <g id="patch_34">
    <path d="M 199.374571 260.521875 
L 209.220743 260.521875 
L 209.220743 236.954141 
L 199.374571 236.954141 
z
" clip-path="url(#p742bc4b91d)" style="fill: #ff7f0e; opacity: 0.4"/>
   </g>
   <g id="patch_35">
    <path d="M 209.220743 260.521875 
L 219.066915 260.521875 
L 219.066915 236.954141 
L 209.220743 236.954141 
z
" clip-path="url(#p742bc4b91d)" style="fill: #ff7f0e; opacity: 0.4"/>
   </g>
   <g id="patch_36">
    <path d="M 219.066915 260.521875 
L 228.913087 260.521875 
L 228.913087 220.120045 
L 219.066915 220.120045 
z
" clip-path="url(#p742bc4b91d)" style="fill: #ff7f0e; opacity: 0.4"/>
   </g>
   <g id="patch_37">
    <path d="M 228.913087 260.521875 
L 238.759258 260.521875 
L 238.759258 216.753226 
L 228.913087 216.753226 
z
" clip-path="url(#p742bc4b91d)" style="fill: #ff7f0e; opacity: 0.4"/>
   </g>
   <g id="patch_38">
    <path d="M 238.759258 260.521875 
L 248.60543 260.521875 
L 248.60543 253.788237 
L 238.759258 253.788237 
z
" clip-path="url(#p742bc4b91d)" style="fill: #ff7f0e; opacity: 0.4"/>
   </g>
   <g id="patch_39">
    <path d="M 248.60543 260.521875 
L 258.451602 260.521875 
L 258.451602 233.587322 
L 248.60543 233.587322 
z
" clip-path="url(#p742bc4b91d)" style="fill: #ff7f0e; opacity: 0.4"/>
   </g>
   <g id="patch_40">
    <path d="M 258.451602 260.521875 
L 268.297774 260.521875 
L 268.297774 236.954141 
L 258.451602 236.954141 
z
" clip-path="url(#p742bc4b91d)" style="fill: #ff7f0e; opacity: 0.4"/>
   </g>
   <g id="patch_41">
    <path d="M 268.297774 260.521875 
L 278.143946 260.521875 
L 278.143946 253.788237 
L 268.297774 253.788237 
z
" clip-path="url(#p742bc4b91d)" style="fill: #ff7f0e; opacity: 0.4"/>
   </g>
   <g id="patch_42">
    <path d="M 278.143946 260.521875 
L 287.990117 260.521875 
L 287.990117 250.421418 
L 278.143946 250.421418 
z
" clip-path="url(#p742bc4b91d)" style="fill: #ff7f0e; opacity: 0.4"/>
   </g>
   <g id="patch_43">
    <path d="M 96.120313 260.521875 
L 102.051101 260.521875 
L 102.051101 244.106326 
L 96.120313 244.106326 
z
" clip-path="url(#p742bc4b91d)" style="fill: #2ca02c; opacity: 0.4"/>
   </g>
   <g id="patch_44">
    <path d="M 102.051101 260.521875 
L 107.981888 260.521875 
L 107.981888 255.050025 
L 102.051101 255.050025 
z
" clip-path="url(#p742bc4b91d)" style="fill: #2ca02c; opacity: 0.4"/>
   </g>
   <g id="patch_45">
    <path d="M 107.981888 260.521875 
L 113.912676 260.521875 
L 113.912676 255.050025 
L 107.981888 255.050025 
z
" clip-path="url(#p742bc4b91d)" style="fill: #2ca02c; opacity: 0.4"/>
   </g>
   <g id="patch_46">
    <path d="M 113.912676 260.521875 
L 119.843464 260.521875 
L 119.843464 260.521875 
L 113.912676 260.521875 
z
" clip-path="url(#p742bc4b91d)" style="fill: #2ca02c; opacity: 0.4"/>
   </g>
   <g id="patch_47">
    <path d="M 119.843464 260.521875 
L 125.774252 260.521875 
L 125.774252 233.162627 
L 119.843464 233.162627 
z
" clip-path="url(#p742bc4b91d)" style="fill: #2ca02c; opacity: 0.4"/>
   </g>
   <g id="patch_48">
    <path d="M 125.774252 260.521875 
L 131.70504 260.521875 
L 131.70504 238.634477 
L 125.774252 238.634477 
z
" clip-path="url(#p742bc4b91d)" style="fill: #2ca02c; opacity: 0.4"/>
   </g>
   <g id="patch_49">
    <path d="M 131.70504 260.521875 
L 137.635828 260.521875 
L 137.635828 227.690778 
L 131.70504 227.690778 
z
" clip-path="url(#p742bc4b91d)" style="fill: #2ca02c; opacity: 0.4"/>
   </g>
   <g id="patch_50">
    <path d="M 137.635828 260.521875 
L 143.566616 260.521875 
L 143.566616 244.106326 
L 137.635828 244.106326 
z
" clip-path="url(#p742bc4b91d)" style="fill: #2ca02c; opacity: 0.4"/>
   </g>
   <g id="patch_51">
    <path d="M 143.566616 260.521875 
L 149.497404 260.521875 
L 149.497404 222.218928 
L 143.566616 222.218928 
z
" clip-path="url(#p742bc4b91d)" style="fill: #2ca02c; opacity: 0.4"/>
   </g>
   <g id="patch_52">
    <path d="M 149.497404 260.521875 
L 155.428192 260.521875 
L 155.428192 233.162627 
L 149.497404 233.162627 
z
" clip-path="url(#p742bc4b91d)" style="fill: #2ca02c; opacity: 0.4"/>
   </g>
   <g id="patch_53">
    <path d="M 155.428192 260.521875 
L 161.35898 260.521875 
L 161.35898 216.747079 
L 155.428192 216.747079 
z
" clip-path="url(#p742bc4b91d)" style="fill: #2ca02c; opacity: 0.4"/>
   </g>
   <g id="patch_54">
    <path d="M 161.35898 260.521875 
L 167.289768 260.521875 
L 167.289768 222.218928 
L 161.35898 222.218928 
z
" clip-path="url(#p742bc4b91d)" style="fill: #2ca02c; opacity: 0.4"/>
   </g>
   <g id="patch_55">
    <path d="M 167.289768 260.521875 
L 173.220556 260.521875 
L 173.220556 189.387831 
L 167.289768 189.387831 
z
" clip-path="url(#p742bc4b91d)" style="fill: #2ca02c; opacity: 0.4"/>
   </g>
   <g id="patch_56">
    <path d="M 173.220556 260.521875 
L 179.151344 260.521875 
L 179.151344 216.747079 
L 173.220556 216.747079 
z
" clip-path="url(#p742bc4b91d)" style="fill: #2ca02c; opacity: 0.4"/>
   </g>
   <g id="patch_57">
    <path d="M 179.151344 260.521875 
L 185.082131 260.521875 
L 185.082131 216.747079 
L 179.151344 216.747079 
z
" clip-path="url(#p742bc4b91d)" style="fill: #2ca02c; opacity: 0.4"/>
   </g>
   <g id="patch_58">
    <path d="M 185.082131 260.521875 
L 191.012919 260.521875 
L 191.012919 227.690778 
L 185.082131 227.690778 
z
" clip-path="url(#p742bc4b91d)" style="fill: #2ca02c; opacity: 0.4"/>
   </g>
   <g id="patch_59">
    <path d="M 191.012919 260.521875 
L 196.943707 260.521875 
L 196.943707 249.578176 
L 191.012919 249.578176 
z
" clip-path="url(#p742bc4b91d)" style="fill: #2ca02c; opacity: 0.4"/>
   </g>
   <g id="patch_60">
    <path d="M 196.943707 260.521875 
L 202.874495 260.521875 
L 202.874495 238.634477 
L 196.943707 238.634477 
z
" clip-path="url(#p742bc4b91d)" style="fill: #2ca02c; opacity: 0.4"/>
   </g>
   <g id="patch_61">
    <path d="M 202.874495 260.521875 
L 208.805283 260.521875 
L 208.805283 255.050025 
L 202.874495 255.050025 
z
" clip-path="url(#p742bc4b91d)" style="fill: #2ca02c; opacity: 0.4"/>
   </g>
   <g id="patch_62">
    <path d="M 208.805283 260.521875 
L 214.736071 260.521875 
L 214.736071 244.106326 
L 208.805283 244.106326 
z
" clip-path="url(#p742bc4b91d)" style="fill: #2ca02c; opacity: 0.4"/>
   </g>
   <g id="matplotlib.axis_1">
    <g id="xtick_1">
     <g id="line2d_1">
      <defs>
       <path id="m3a23072dff" d="M 0 0 
L 0 3.5 
" style="stroke: #000000; stroke-width: 0.8"/>
      </defs>
      <g>
       <use xlink:href="#m3a23072dff" x="75.676036" y="260.521875" style="stroke: #000000; stroke-width: 0.8"/>
      </g>
     </g>
     <g id="text_1">
      <!-- 0.4 -->
      <g transform="translate(67.724473 275.120313) scale(0.1 -0.1)">
       <defs>
        <path id="DejaVuSans-30" d="M 2034 4250 
Q 1547 4250 1301 3770 
Q 1056 3291 1056 2328 
Q 1056 1369 1301 889 
Q 1547 409 2034 409 
Q 2525 409 2770 889 
Q 3016 1369 3016 2328 
Q 3016 3291 2770 3770 
Q 2525 4250 2034 4250 
z
M 2034 4750 
Q 2819 4750 3233 4129 
Q 3647 3509 3647 2328 
Q 3647 1150 3233 529 
Q 2819 -91 2034 -91 
Q 1250 -91 836 529 
Q 422 1150 422 2328 
Q 422 3509 836 4129 
Q 1250 4750 2034 4750 
z
" transform="scale(0.015625)"/>
        <path id="DejaVuSans-2e" d="M 684 794 
L 1344 794 
L 1344 0 
L 684 0 
L 684 794 
z
" transform="scale(0.015625)"/>
        <path id="DejaVuSans-34" d="M 2419 4116 
L 825 1625 
L 2419 1625 
L 2419 4116 
z
M 2253 4666 
L 3047 4666 
L 3047 1625 
L 3713 1625 
L 3713 1100 
L 3047 1100 
L 3047 0 
L 2419 0 
L 2419 1100 
L 313 1100 
L 313 1709 
L 2253 4666 
z
" transform="scale(0.015625)"/>
       </defs>
       <use xlink:href="#DejaVuSans-30"/>
       <use xlink:href="#DejaVuSans-2e" x="63.623047"/>
       <use xlink:href="#DejaVuSans-34" x="95.410156"/>
      </g>
     </g>
    </g>
    <g id="xtick_2">
     <g id="line2d_2">
      <g>
       <use xlink:href="#m3a23072dff" x="126.254791" y="260.521875" style="stroke: #000000; stroke-width: 0.8"/>
      </g>
     </g>
     <g id="text_2">
      <!-- 0.6 -->
      <g transform="translate(118.303229 275.120313) scale(0.1 -0.1)">
       <defs>
        <path id="DejaVuSans-36" d="M 2113 2584 
Q 1688 2584 1439 2293 
Q 1191 2003 1191 1497 
Q 1191 994 1439 701 
Q 1688 409 2113 409 
Q 2538 409 2786 701 
Q 3034 994 3034 1497 
Q 3034 2003 2786 2293 
Q 2538 2584 2113 2584 
z
M 3366 4563 
L 3366 3988 
Q 3128 4100 2886 4159 
Q 2644 4219 2406 4219 
Q 1781 4219 1451 3797 
Q 1122 3375 1075 2522 
Q 1259 2794 1537 2939 
Q 1816 3084 2150 3084 
Q 2853 3084 3261 2657 
Q 3669 2231 3669 1497 
Q 3669 778 3244 343 
Q 2819 -91 2113 -91 
Q 1303 -91 875 529 
Q 447 1150 447 2328 
Q 447 3434 972 4092 
Q 1497 4750 2381 4750 
Q 2619 4750 2861 4703 
Q 3103 4656 3366 4563 
z
" transform="scale(0.015625)"/>
       </defs>
       <use xlink:href="#DejaVuSans-30"/>
       <use xlink:href="#DejaVuSans-2e" x="63.623047"/>
       <use xlink:href="#DejaVuSans-36" x="95.410156"/>
      </g>
     </g>
    </g>
    <g id="xtick_3">
     <g id="line2d_3">
      <g>
       <use xlink:href="#m3a23072dff" x="176.833546" y="260.521875" style="stroke: #000000; stroke-width: 0.8"/>
      </g>
     </g>
     <g id="text_3">
      <!-- 0.8 -->
      <g transform="translate(168.881984 275.120313) scale(0.1 -0.1)">
       <defs>
        <path id="DejaVuSans-38" d="M 2034 2216 
Q 1584 2216 1326 1975 
Q 1069 1734 1069 1313 
Q 1069 891 1326 650 
Q 1584 409 2034 409 
Q 2484 409 2743 651 
Q 3003 894 3003 1313 
Q 3003 1734 2745 1975 
Q 2488 2216 2034 2216 
z
M 1403 2484 
Q 997 2584 770 2862 
Q 544 3141 544 3541 
Q 544 4100 942 4425 
Q 1341 4750 2034 4750 
Q 2731 4750 3128 4425 
Q 3525 4100 3525 3541 
Q 3525 3141 3298 2862 
Q 3072 2584 2669 2484 
Q 3125 2378 3379 2068 
Q 3634 1759 3634 1313 
Q 3634 634 3220 271 
Q 2806 -91 2034 -91 
Q 1263 -91 848 271 
Q 434 634 434 1313 
Q 434 1759 690 2068 
Q 947 2378 1403 2484 
z
M 1172 3481 
Q 1172 3119 1398 2916 
Q 1625 2713 2034 2713 
Q 2441 2713 2670 2916 
Q 2900 3119 2900 3481 
Q 2900 3844 2670 4047 
Q 2441 4250 2034 4250 
Q 1625 4250 1398 4047 
Q 1172 3844 1172 3481 
z
" transform="scale(0.015625)"/>
       </defs>
       <use xlink:href="#DejaVuSans-30"/>
       <use xlink:href="#DejaVuSans-2e" x="63.623047"/>
       <use xlink:href="#DejaVuSans-38" x="95.410156"/>
      </g>
     </g>
    </g>
    <g id="xtick_4">
     <g id="line2d_4">
      <g>
       <use xlink:href="#m3a23072dff" x="227.412302" y="260.521875" style="stroke: #000000; stroke-width: 0.8"/>
      </g>
     </g>
     <g id="text_4">
      <!-- 1.0 -->
      <g transform="translate(219.460739 275.120313) scale(0.1 -0.1)">
       <defs>
        <path id="DejaVuSans-31" d="M 794 531 
L 1825 531 
L 1825 4091 
L 703 3866 
L 703 4441 
L 1819 4666 
L 2450 4666 
L 2450 531 
L 3481 531 
L 3481 0 
L 794 0 
L 794 531 
z
" transform="scale(0.015625)"/>
       </defs>
       <use xlink:href="#DejaVuSans-31"/>
       <use xlink:href="#DejaVuSans-2e" x="63.623047"/>
       <use xlink:href="#DejaVuSans-30" x="95.410156"/>
      </g>
     </g>
    </g>
    <g id="xtick_5">
     <g id="line2d_5">
      <g>
       <use xlink:href="#m3a23072dff" x="277.991057" y="260.521875" style="stroke: #000000; stroke-width: 0.8"/>
      </g>
     </g>
     <g id="text_5">
      <!-- 1.2 -->
      <g transform="translate(270.039494 275.120313) scale(0.1 -0.1)">
       <defs>
        <path id="DejaVuSans-32" d="M 1228 531 
L 3431 531 
L 3431 0 
L 469 0 
L 469 531 
Q 828 903 1448 1529 
Q 2069 2156 2228 2338 
Q 2531 2678 2651 2914 
Q 2772 3150 2772 3378 
Q 2772 3750 2511 3984 
Q 2250 4219 1831 4219 
Q 1534 4219 1204 4116 
Q 875 4013 500 3803 
L 500 4441 
Q 881 4594 1212 4672 
Q 1544 4750 1819 4750 
Q 2544 4750 2975 4387 
Q 3406 4025 3406 3419 
Q 3406 3131 3298 2873 
Q 3191 2616 2906 2266 
Q 2828 2175 2409 1742 
Q 1991 1309 1228 531 
z
" transform="scale(0.015625)"/>
       </defs>
       <use xlink:href="#DejaVuSans-31"/>
       <use xlink:href="#DejaVuSans-2e" x="63.623047"/>
       <use xlink:href="#DejaVuSans-32" x="95.410156"/>
      </g>
     </g>
    </g>
   </g>
   <g id="matplotlib.axis_2">
    <g id="ytick_1">
     <g id="line2d_6">
      <defs>
       <path id="m89ae49e50a" d="M 0 0 
L -3.5 0 
" style="stroke: #000000; stroke-width: 0.8"/>
      </defs>
      <g>
       <use xlink:href="#m89ae49e50a" x="57.615" y="260.521875" style="stroke: #000000; stroke-width: 0.8"/>
      </g>
     </g>
     <g id="text_6">
      <!-- 0.0 -->
      <g transform="translate(34.711875 264.321094) scale(0.1 -0.1)">
       <use xlink:href="#DejaVuSans-30"/>
       <use xlink:href="#DejaVuSans-2e" x="63.623047"/>
       <use xlink:href="#DejaVuSans-30" x="95.410156"/>
      </g>
     </g>
    </g>
    <g id="ytick_2">
     <g id="line2d_7">
      <g>
       <use xlink:href="#m89ae49e50a" x="57.615" y="230.044889" style="stroke: #000000; stroke-width: 0.8"/>
      </g>
     </g>
     <g id="text_7">
      <!-- 2.5 -->
      <g transform="translate(34.711875 233.844108) scale(0.1 -0.1)">
       <defs>
        <path id="DejaVuSans-35" d="M 691 4666 
L 3169 4666 
L 3169 4134 
L 1269 4134 
L 1269 2991 
Q 1406 3038 1543 3061 
Q 1681 3084 1819 3084 
Q 2600 3084 3056 2656 
Q 3513 2228 3513 1497 
Q 3513 744 3044 326 
Q 2575 -91 1722 -91 
Q 1428 -91 1123 -41 
Q 819 9 494 109 
L 494 744 
Q 775 591 1075 516 
Q 1375 441 1709 441 
Q 2250 441 2565 725 
Q 2881 1009 2881 1497 
Q 2881 1984 2565 2268 
Q 2250 2553 1709 2553 
Q 1456 2553 1204 2497 
Q 953 2441 691 2322 
L 691 4666 
z
" transform="scale(0.015625)"/>
       </defs>
       <use xlink:href="#DejaVuSans-32"/>
       <use xlink:href="#DejaVuSans-2e" x="63.623047"/>
       <use xlink:href="#DejaVuSans-35" x="95.410156"/>
      </g>
     </g>
    </g>
    <g id="ytick_3">
     <g id="line2d_8">
      <g>
       <use xlink:href="#m89ae49e50a" x="57.615" y="199.567903" style="stroke: #000000; stroke-width: 0.8"/>
      </g>
     </g>
     <g id="text_8">
      <!-- 5.0 -->
      <g transform="translate(34.711875 203.367122) scale(0.1 -0.1)">
       <use xlink:href="#DejaVuSans-35"/>
       <use xlink:href="#DejaVuSans-2e" x="63.623047"/>
       <use xlink:href="#DejaVuSans-30" x="95.410156"/>
      </g>
     </g>
    </g>
    <g id="ytick_4">
     <g id="line2d_9">
      <g>
       <use xlink:href="#m89ae49e50a" x="57.615" y="169.090918" style="stroke: #000000; stroke-width: 0.8"/>
      </g>
     </g>
     <g id="text_9">
      <!-- 7.5 -->
      <g transform="translate(34.711875 172.890136) scale(0.1 -0.1)">
       <defs>
        <path id="DejaVuSans-37" d="M 525 4666 
L 3525 4666 
L 3525 4397 
L 1831 0 
L 1172 0 
L 2766 4134 
L 525 4134 
L 525 4666 
z
" transform="scale(0.015625)"/>
       </defs>
       <use xlink:href="#DejaVuSans-37"/>
       <use xlink:href="#DejaVuSans-2e" x="63.623047"/>
       <use xlink:href="#DejaVuSans-35" x="95.410156"/>
      </g>
     </g>
    </g>
    <g id="ytick_5">
     <g id="line2d_10">
      <g>
       <use xlink:href="#m89ae49e50a" x="57.615" y="138.613932" style="stroke: #000000; stroke-width: 0.8"/>
      </g>
     </g>
     <g id="text_10">
      <!-- 10.0 -->
      <g transform="translate(28.349375 142.41315) scale(0.1 -0.1)">
       <use xlink:href="#DejaVuSans-31"/>
       <use xlink:href="#DejaVuSans-30" x="63.623047"/>
       <use xlink:href="#DejaVuSans-2e" x="127.246094"/>
       <use xlink:href="#DejaVuSans-30" x="159.033203"/>
      </g>
     </g>
    </g>
    <g id="ytick_6">
     <g id="line2d_11">
      <g>
       <use xlink:href="#m89ae49e50a" x="57.615" y="108.136946" style="stroke: #000000; stroke-width: 0.8"/>
      </g>
     </g>
     <g id="text_11">
      <!-- 12.5 -->
      <g transform="translate(28.349375 111.936165) scale(0.1 -0.1)">
       <use xlink:href="#DejaVuSans-31"/>
       <use xlink:href="#DejaVuSans-32" x="63.623047"/>
       <use xlink:href="#DejaVuSans-2e" x="127.246094"/>
       <use xlink:href="#DejaVuSans-35" x="159.033203"/>
      </g>
     </g>
    </g>
    <g id="ytick_7">
     <g id="line2d_12">
      <g>
       <use xlink:href="#m89ae49e50a" x="57.615" y="77.65996" style="stroke: #000000; stroke-width: 0.8"/>
      </g>
     </g>
     <g id="text_12">
      <!-- 15.0 -->
      <g transform="translate(28.349375 81.459179) scale(0.1 -0.1)">
       <use xlink:href="#DejaVuSans-31"/>
       <use xlink:href="#DejaVuSans-35" x="63.623047"/>
       <use xlink:href="#DejaVuSans-2e" x="127.246094"/>
       <use xlink:href="#DejaVuSans-30" x="159.033203"/>
      </g>
     </g>
    </g>
    <g id="ytick_8">
     <g id="line2d_13">
      <g>
       <use xlink:href="#m89ae49e50a" x="57.615" y="47.182974" style="stroke: #000000; stroke-width: 0.8"/>
      </g>
     </g>
     <g id="text_13">
      <!-- 17.5 -->
      <g transform="translate(28.349375 50.982193) scale(0.1 -0.1)">
       <use xlink:href="#DejaVuSans-31"/>
       <use xlink:href="#DejaVuSans-37" x="63.623047"/>
       <use xlink:href="#DejaVuSans-2e" x="127.246094"/>
       <use xlink:href="#DejaVuSans-35" x="159.033203"/>
      </g>
     </g>
    </g>
    <g id="text_14">
     <!-- Fraction of cells -->
     <g transform="translate(21.437813 198.811719) rotate(-90) scale(0.14 -0.14)">
      <defs>
       <path id="DejaVuSans-46" d="M 628 4666 
L 3309 4666 
L 3309 4134 
L 1259 4134 
L 1259 2759 
L 3109 2759 
L 3109 2228 
L 1259 2228 
L 1259 0 
L 628 0 
L 628 4666 
z
" transform="scale(0.015625)"/>
       <path id="DejaVuSans-72" d="M 2631 2963 
Q 2534 3019 2420 3045 
Q 2306 3072 2169 3072 
Q 1681 3072 1420 2755 
Q 1159 2438 1159 1844 
L 1159 0 
L 581 0 
L 581 3500 
L 1159 3500 
L 1159 2956 
Q 1341 3275 1631 3429 
Q 1922 3584 2338 3584 
Q 2397 3584 2469 3576 
Q 2541 3569 2628 3553 
L 2631 2963 
z
" transform="scale(0.015625)"/>
       <path id="DejaVuSans-61" d="M 2194 1759 
Q 1497 1759 1228 1600 
Q 959 1441 959 1056 
Q 959 750 1161 570 
Q 1363 391 1709 391 
Q 2188 391 2477 730 
Q 2766 1069 2766 1631 
L 2766 1759 
L 2194 1759 
z
M 3341 1997 
L 3341 0 
L 2766 0 
L 2766 531 
Q 2569 213 2275 61 
Q 1981 -91 1556 -91 
Q 1019 -91 701 211 
Q 384 513 384 1019 
Q 384 1609 779 1909 
Q 1175 2209 1959 2209 
L 2766 2209 
L 2766 2266 
Q 2766 2663 2505 2880 
Q 2244 3097 1772 3097 
Q 1472 3097 1187 3025 
Q 903 2953 641 2809 
L 641 3341 
Q 956 3463 1253 3523 
Q 1550 3584 1831 3584 
Q 2591 3584 2966 3190 
Q 3341 2797 3341 1997 
z
" transform="scale(0.015625)"/>
       <path id="DejaVuSans-63" d="M 3122 3366 
L 3122 2828 
Q 2878 2963 2633 3030 
Q 2388 3097 2138 3097 
Q 1578 3097 1268 2742 
Q 959 2388 959 1747 
Q 959 1106 1268 751 
Q 1578 397 2138 397 
Q 2388 397 2633 464 
Q 2878 531 3122 666 
L 3122 134 
Q 2881 22 2623 -34 
Q 2366 -91 2075 -91 
Q 1284 -91 818 406 
Q 353 903 353 1747 
Q 353 2603 823 3093 
Q 1294 3584 2113 3584 
Q 2378 3584 2631 3529 
Q 2884 3475 3122 3366 
z
" transform="scale(0.015625)"/>
       <path id="DejaVuSans-74" d="M 1172 4494 
L 1172 3500 
L 2356 3500 
L 2356 3053 
L 1172 3053 
L 1172 1153 
Q 1172 725 1289 603 
Q 1406 481 1766 481 
L 2356 481 
L 2356 0 
L 1766 0 
Q 1100 0 847 248 
Q 594 497 594 1153 
L 594 3053 
L 172 3053 
L 172 3500 
L 594 3500 
L 594 4494 
L 1172 4494 
z
" transform="scale(0.015625)"/>
       <path id="DejaVuSans-69" d="M 603 3500 
L 1178 3500 
L 1178 0 
L 603 0 
L 603 3500 
z
M 603 4863 
L 1178 4863 
L 1178 4134 
L 603 4134 
L 603 4863 
z
" transform="scale(0.015625)"/>
       <path id="DejaVuSans-6f" d="M 1959 3097 
Q 1497 3097 1228 2736 
Q 959 2375 959 1747 
Q 959 1119 1226 758 
Q 1494 397 1959 397 
Q 2419 397 2687 759 
Q 2956 1122 2956 1747 
Q 2956 2369 2687 2733 
Q 2419 3097 1959 3097 
z
M 1959 3584 
Q 2709 3584 3137 3096 
Q 3566 2609 3566 1747 
Q 3566 888 3137 398 
Q 2709 -91 1959 -91 
Q 1206 -91 779 398 
Q 353 888 353 1747 
Q 353 2609 779 3096 
Q 1206 3584 1959 3584 
z
" transform="scale(0.015625)"/>
       <path id="DejaVuSans-6e" d="M 3513 2113 
L 3513 0 
L 2938 0 
L 2938 2094 
Q 2938 2591 2744 2837 
Q 2550 3084 2163 3084 
Q 1697 3084 1428 2787 
Q 1159 2491 1159 1978 
L 1159 0 
L 581 0 
L 581 3500 
L 1159 3500 
L 1159 2956 
Q 1366 3272 1645 3428 
Q 1925 3584 2291 3584 
Q 2894 3584 3203 3211 
Q 3513 2838 3513 2113 
z
" transform="scale(0.015625)"/>
       <path id="DejaVuSans-20" transform="scale(0.015625)"/>
       <path id="DejaVuSans-66" d="M 2375 4863 
L 2375 4384 
L 1825 4384 
Q 1516 4384 1395 4259 
Q 1275 4134 1275 3809 
L 1275 3500 
L 2222 3500 
L 2222 3053 
L 1275 3053 
L 1275 0 
L 697 0 
L 697 3053 
L 147 3053 
L 147 3500 
L 697 3500 
L 697 3744 
Q 697 4328 969 4595 
Q 1241 4863 1831 4863 
L 2375 4863 
z
" transform="scale(0.015625)"/>
       <path id="DejaVuSans-65" d="M 3597 1894 
L 3597 1613 
L 953 1613 
Q 991 1019 1311 708 
Q 1631 397 2203 397 
Q 2534 397 2845 478 
Q 3156 559 3463 722 
L 3463 178 
Q 3153 47 2828 -22 
Q 2503 -91 2169 -91 
Q 1331 -91 842 396 
Q 353 884 353 1716 
Q 353 2575 817 3079 
Q 1281 3584 2069 3584 
Q 2775 3584 3186 3129 
Q 3597 2675 3597 1894 
z
M 3022 2063 
Q 3016 2534 2758 2815 
Q 2500 3097 2075 3097 
Q 1594 3097 1305 2825 
Q 1016 2553 972 2059 
L 3022 2063 
z
" transform="scale(0.015625)"/>
       <path id="DejaVuSans-6c" d="M 603 4863 
L 1178 4863 
L 1178 0 
L 603 0 
L 603 4863 
z
" transform="scale(0.015625)"/>
       <path id="DejaVuSans-73" d="M 2834 3397 
L 2834 2853 
Q 2591 2978 2328 3040 
Q 2066 3103 1784 3103 
Q 1356 3103 1142 2972 
Q 928 2841 928 2578 
Q 928 2378 1081 2264 
Q 1234 2150 1697 2047 
L 1894 2003 
Q 2506 1872 2764 1633 
Q 3022 1394 3022 966 
Q 3022 478 2636 193 
Q 2250 -91 1575 -91 
Q 1294 -91 989 -36 
Q 684 19 347 128 
L 347 722 
Q 666 556 975 473 
Q 1284 391 1588 391 
Q 1994 391 2212 530 
Q 2431 669 2431 922 
Q 2431 1156 2273 1281 
Q 2116 1406 1581 1522 
L 1381 1569 
Q 847 1681 609 1914 
Q 372 2147 372 2553 
Q 372 3047 722 3315 
Q 1072 3584 1716 3584 
Q 2034 3584 2315 3537 
Q 2597 3491 2834 3397 
z
" transform="scale(0.015625)"/>
      </defs>
      <use xlink:href="#DejaVuSans-46"/>
      <use xlink:href="#DejaVuSans-72" x="50.269531"/>
      <use xlink:href="#DejaVuSans-61" x="91.382812"/>
      <use xlink:href="#DejaVuSans-63" x="152.662109"/>
      <use xlink:href="#DejaVuSans-74" x="207.642578"/>
      <use xlink:href="#DejaVuSans-69" x="246.851562"/>
      <use xlink:href="#DejaVuSans-6f" x="274.634766"/>
      <use xlink:href="#DejaVuSans-6e" x="335.816406"/>
      <use xlink:href="#DejaVuSans-20" x="399.195312"/>
      <use xlink:href="#DejaVuSans-6f" x="430.982422"/>
      <use xlink:href="#DejaVuSans-66" x="492.164062"/>
      <use xlink:href="#DejaVuSans-20" x="527.369141"/>
      <use xlink:href="#DejaVuSans-63" x="559.15625"/>
      <use xlink:href="#DejaVuSans-65" x="614.136719"/>
      <use xlink:href="#DejaVuSans-6c" x="675.660156"/>
      <use xlink:href="#DejaVuSans-6c" x="703.443359"/>
      <use xlink:href="#DejaVuSans-73" x="731.226562"/>
     </g>
    </g>
   </g>
   <g id="line2d_14">
    <path d="M -1 260.520971 
L 0.063351 260.520793 
L 5.172317 260.517226 
L 10.281282 260.50405 
L 15.390247 260.460822 
L 20.499212 260.334954 
L 25.608177 260.009969 
L 30.717142 259.26694 
L 35.826108 257.765758 
L 40.935073 255.094255 
L 46.044038 250.927537 
L 51.153003 245.278451 
L 56.261968 238.716908 
L 61.370933 232.373018 
L 66.479899 227.614691 
L 71.588864 225.502069 
L 76.697829 226.315385 
L 81.806794 229.444715 
L 86.915759 233.699043 
L 92.024725 237.825222 
L 97.13369 240.937847 
L 102.242655 242.684763 
L 107.35162 243.167247 
L 112.460585 242.746412 
L 117.56955 241.861243 
L 122.678516 240.916078 
L 127.787481 240.23076 
L 132.896446 240.017049 
L 138.005411 240.356163 
L 143.114376 241.187854 
L 148.223341 242.342638 
L 153.332307 243.625483 
L 158.441272 244.90952 
L 163.550237 246.177197 
L 168.659202 247.483041 
L 173.768167 248.874006 
L 178.877132 250.331755 
L 183.986098 251.77474 
L 189.095063 253.10738 
L 194.204028 254.272926 
L 199.312993 255.273552 
L 204.421958 256.151503 
L 209.530923 256.952242 
L 214.639889 257.697007 
L 219.748854 258.378556 
L 224.857819 258.974844 
L 229.966784 259.466121 
L 235.075749 259.844805 
L 240.184715 260.116712 
L 245.29368 260.29749 
L 250.402645 260.407858 
L 255.51161 260.469155 
L 260.620575 260.499851 
L 265.72954 260.513612 
L 270.838506 260.519103 
L 275.947471 260.521046 
L 281.056436 260.521655 
L 286.165401 260.521823 
L 291.274366 260.521864 
L 296.383331 260.521873 
L 301.492297 260.521875 
L 306.601262 260.521875 
L 311.710227 260.521875 
L 316.819192 260.521875 
L 321.928157 260.521875 
L 327.037122 260.521875 
L 332.146088 260.521875 
L 337.255053 260.521875 
L 342.364018 260.521875 
L 347.472983 260.521875 
L 352.581948 260.521875 
L 357.690913 260.521875 
L 362.799879 260.521875 
L 367.908844 260.521875 
L 373.017809 260.521875 
L 378.126774 260.521875 
L 383.235739 260.521875 
L 388.344705 260.521875 
L 393.45367 260.521875 
L 398.562635 260.521875 
L 403.6716 260.521875 
L 408.780565 260.521875 
L 413.88953 260.521875 
L 418.998496 260.521875 
L 424.107461 260.521875 
L 429.216426 260.521875 
L 434.325391 260.521875 
L 439.434356 260.521875 
L 444.543321 260.521875 
L 449.652287 260.521875 
L 454.761252 260.521875 
L 459.870217 260.521875 
L 464.979182 260.521875 
L 470.088147 260.521875 
L 475.197112 260.521875 
L 480.306078 260.521875 
" clip-path="url(#p742bc4b91d)" style="fill: none; stroke: #1f77b4; stroke-width: 1.5; stroke-linecap: square"/>
   </g>
   <g id="line2d_15">
    <path d="M -1 260.521875 
L 0.063351 260.521875 
L 5.172317 260.521875 
L 10.281282 260.521873 
L 15.390247 260.521864 
L 20.499212 260.521829 
L 25.608177 260.521693 
L 30.717142 260.521232 
L 35.826108 260.519821 
L 40.935073 260.515951 
L 46.044038 260.506452 
L 51.153003 260.485618 
L 56.261968 260.444874 
L 61.370933 260.374029 
L 66.479899 260.264844 
L 71.588864 260.11622 
L 76.697829 259.937954 
L 81.806794 259.74899 
L 86.915759 259.568265 
L 92.024725 259.401606 
L 97.13369 259.232643 
L 102.242655 259.024527 
L 107.35162 258.73213 
L 112.460585 258.317131 
L 117.56955 257.757768 
L 122.678516 257.051212 
L 127.787481 256.212244 
L 132.896446 255.270649 
L 138.005411 254.263856 
L 143.114376 253.220283 
L 148.223341 252.13731 
L 153.332307 250.96874 
L 158.441272 249.637125 
L 163.550237 248.071854 
L 168.659202 246.254435 
L 173.768167 244.243841 
L 178.877132 242.164445 
L 183.986098 240.160282 
L 189.095063 238.338387 
L 194.204028 236.730733 
L 199.312993 235.296873 
L 204.421958 233.97084 
L 209.530923 232.732073 
L 214.639889 231.660851 
L 219.748854 230.937798 
L 224.857819 230.773779 
L 229.966784 231.301839 
L 235.075749 232.496735 
L 240.184715 234.179075 
L 245.29368 236.107386 
L 250.402645 238.099269 
L 255.51161 240.101807 
L 260.620575 242.170525 
L 265.72954 244.383422 
L 270.838506 246.75692 
L 275.947471 249.216217 
L 281.056436 251.624261 
L 286.165401 253.835913 
L 291.274366 255.741082 
L 296.383331 257.282258 
L 301.492297 258.452135 
L 306.601262 259.282434 
L 311.710227 259.830333 
L 316.819192 260.164391 
L 321.928157 260.351497 
L 327.037122 260.447312 
L 332.146088 260.492009 
L 337.255053 260.510954 
L 342.364018 260.518237 
L 347.472983 260.520773 
L 352.581948 260.521571 
L 357.690913 260.521799 
L 362.799879 260.521858 
L 367.908844 260.521871 
L 373.017809 260.521874 
L 378.126774 260.521875 
L 383.235739 260.521875 
L 388.344705 260.521875 
L 393.45367 260.521875 
L 398.562635 260.521875 
L 403.6716 260.521875 
L 408.780565 260.521875 
L 413.88953 260.521875 
L 418.998496 260.521875 
L 424.107461 260.521875 
L 429.216426 260.521875 
L 434.325391 260.521875 
L 439.434356 260.521875 
L 444.543321 260.521875 
L 449.652287 260.521875 
L 454.761252 260.521875 
L 459.870217 260.521875 
L 464.979182 260.521875 
L 470.088147 260.521875 
L 475.197112 260.521875 
L 480.306078 260.521875 
" clip-path="url(#p742bc4b91d)" style="fill: none; stroke: #ff7f0e; stroke-width: 1.5; stroke-linecap: square"/>
   </g>
   <g id="line2d_16">
    <path d="M -1 260.521875 
L 0.063351 260.521875 
L 5.172317 260.521875 
L 10.281282 260.521875 
L 15.390247 260.521875 
L 20.499212 260.521875 
L 25.608177 260.521875 
L 30.717142 260.521875 
L 35.826108 260.521875 
L 40.935073 260.521871 
L 46.044038 260.52183 
L 51.153003 260.521489 
L 56.261968 260.51921 
L 61.370933 260.507211 
L 66.479899 260.457408 
L 71.588864 260.295029 
L 76.697829 259.880896 
L 81.806794 259.05947 
L 86.915759 257.801364 
L 92.024725 256.319623 
L 97.13369 254.943624 
L 102.242655 253.761617 
L 107.35162 252.410752 
L 112.460585 250.340371 
L 117.56955 247.336096 
L 122.678516 243.73602 
L 127.787481 240.114748 
L 132.896446 236.838941 
L 138.005411 233.936178 
L 143.114376 231.196146 
L 148.223341 228.246955 
L 153.332307 224.696056 
L 158.441272 220.520038 
L 163.550237 216.466475 
L 168.659202 213.943085 
L 173.768167 214.260313 
L 178.877132 217.804899 
L 183.986098 223.833662 
L 189.095063 230.934584 
L 194.204028 237.709056 
L 199.312993 243.296563 
L 204.421958 247.544183 
L 209.530923 250.792032 
L 214.639889 253.474592 
L 219.748854 255.810556 
L 224.857819 257.74477 
L 229.966784 259.130325 
L 235.075749 259.944019 
L 240.184715 260.326221 
L 245.29368 260.468394 
L 250.402645 260.510142 
L 255.51161 260.519816 
L 260.620575 260.521587 
L 265.72954 260.521843 
L 270.838506 260.521872 
L 275.947471 260.521875 
L 281.056436 260.521875 
L 286.165401 260.521875 
L 291.274366 260.521875 
L 296.383331 260.521875 
L 301.492297 260.521875 
L 306.601262 260.521875 
L 311.710227 260.521875 
L 316.819192 260.521875 
L 321.928157 260.521875 
L 327.037122 260.521875 
L 332.146088 260.521875 
L 337.255053 260.521875 
L 342.364018 260.521875 
L 347.472983 260.521875 
L 352.581948 260.521875 
L 357.690913 260.521875 
L 362.799879 260.521875 
L 367.908844 260.521875 
L 373.017809 260.521875 
L 378.126774 260.521875 
L 383.235739 260.521875 
L 388.344705 260.521875 
L 393.45367 260.521875 
L 398.562635 260.521875 
L 403.6716 260.521875 
L 408.780565 260.521875 
L 413.88953 260.521875 
L 418.998496 260.521875 
L 424.107461 260.521875 
L 429.216426 260.521875 
L 434.325391 260.521875 
L 439.434356 260.521875 
L 444.543321 260.521875 
L 449.652287 260.521875 
L 454.761252 260.521875 
L 459.870217 260.521875 
L 464.979182 260.521875 
L 470.088147 260.521875 
L 475.197112 260.521875 
L 480.306078 260.521875 
" clip-path="url(#p742bc4b91d)" style="fill: none; stroke: #2ca02c; stroke-width: 1.5; stroke-linecap: square"/>
   </g>
   <g id="patch_63">
    <path d="M 57.615 260.521875 
L 57.615 27.437813 
" style="fill: none; stroke: #000000; stroke-width: 0.8; stroke-linejoin: miter; stroke-linecap: square"/>
   </g>
   <g id="patch_64">
    <path d="M 295.482813 260.521875 
L 295.482813 27.437813 
" style="fill: none; stroke: #000000; stroke-width: 0.8; stroke-linejoin: miter; stroke-linecap: square"/>
   </g>
   <g id="patch_65">
    <path d="M 57.615 260.521875 
L 295.482812 260.521875 
" style="fill: none; stroke: #000000; stroke-width: 0.8; stroke-linejoin: miter; stroke-linecap: square"/>
   </g>
   <g id="patch_66">
    <path d="M 57.615 27.437812 
L 295.482812 27.437812 
" style="fill: none; stroke: #000000; stroke-width: 0.8; stroke-linejoin: miter; stroke-linecap: square"/>
   </g>
   <g id="text_15">
    <!-- SRV -->
    <g transform="translate(162.837656 21.437813) scale(0.14 -0.14)">
     <defs>
      <path id="DejaVuSans-53" d="M 3425 4513 
L 3425 3897 
Q 3066 4069 2747 4153 
Q 2428 4238 2131 4238 
Q 1616 4238 1336 4038 
Q 1056 3838 1056 3469 
Q 1056 3159 1242 3001 
Q 1428 2844 1947 2747 
L 2328 2669 
Q 3034 2534 3370 2195 
Q 3706 1856 3706 1288 
Q 3706 609 3251 259 
Q 2797 -91 1919 -91 
Q 1588 -91 1214 -16 
Q 841 59 441 206 
L 441 856 
Q 825 641 1194 531 
Q 1563 422 1919 422 
Q 2459 422 2753 634 
Q 3047 847 3047 1241 
Q 3047 1584 2836 1778 
Q 2625 1972 2144 2069 
L 1759 2144 
Q 1053 2284 737 2584 
Q 422 2884 422 3419 
Q 422 4038 858 4394 
Q 1294 4750 2059 4750 
Q 2388 4750 2728 4690 
Q 3069 4631 3425 4513 
z
" transform="scale(0.015625)"/>
      <path id="DejaVuSans-52" d="M 2841 2188 
Q 3044 2119 3236 1894 
Q 3428 1669 3622 1275 
L 4263 0 
L 3584 0 
L 2988 1197 
Q 2756 1666 2539 1819 
Q 2322 1972 1947 1972 
L 1259 1972 
L 1259 0 
L 628 0 
L 628 4666 
L 2053 4666 
Q 2853 4666 3247 4331 
Q 3641 3997 3641 3322 
Q 3641 2881 3436 2590 
Q 3231 2300 2841 2188 
z
M 1259 4147 
L 1259 2491 
L 2053 2491 
Q 2509 2491 2742 2702 
Q 2975 2913 2975 3322 
Q 2975 3731 2742 3939 
Q 2509 4147 2053 4147 
L 1259 4147 
z
" transform="scale(0.015625)"/>
      <path id="DejaVuSans-56" d="M 1831 0 
L 50 4666 
L 709 4666 
L 2188 738 
L 3669 4666 
L 4325 4666 
L 2547 0 
L 1831 0 
z
" transform="scale(0.015625)"/>
     </defs>
     <use xlink:href="#DejaVuSans-53"/>
     <use xlink:href="#DejaVuSans-52" x="63.476562"/>
     <use xlink:href="#DejaVuSans-56" x="127.458984"/>
    </g>
   </g>
   <g id="legend_1">
    <g id="patch_67">
     <path d="M 207.093438 89.879062 
L 287.082813 89.879062 
Q 289.482813 89.879062 289.482813 87.479062 
L 289.482813 35.837812 
Q 289.482813 33.437812 287.082813 33.437812 
L 207.093438 33.437812 
Q 204.693438 33.437812 204.693438 35.837812 
L 204.693438 87.479062 
Q 204.693438 89.879062 207.093438 89.879062 
z
" style="fill: #ffffff; opacity: 0.8; stroke: #cccccc; stroke-linejoin: miter"/>
    </g>
    <g id="patch_68">
     <path d="M 209.493438 47.355937 
L 233.493438 47.355937 
L 233.493438 38.955937 
L 209.493438 38.955937 
z
" style="fill: #1f77b4; opacity: 0.4"/>
    </g>
    <g id="text_16">
     <!-- control -->
     <g transform="translate(243.093438 47.355937) scale(0.12 -0.12)">
      <use xlink:href="#DejaVuSans-63"/>
      <use xlink:href="#DejaVuSans-6f" x="54.980469"/>
      <use xlink:href="#DejaVuSans-6e" x="116.162109"/>
      <use xlink:href="#DejaVuSans-74" x="179.541016"/>
      <use xlink:href="#DejaVuSans-72" x="218.75"/>
      <use xlink:href="#DejaVuSans-6f" x="257.613281"/>
      <use xlink:href="#DejaVuSans-6c" x="318.794922"/>
     </g>
    </g>
    <g id="patch_69">
     <path d="M 209.493438 64.969687 
L 233.493438 64.969687 
L 233.493438 56.569687 
L 209.493438 56.569687 
z
" style="fill: #ff7f0e; opacity: 0.4"/>
    </g>
    <g id="text_17">
     <!-- cytd -->
     <g transform="translate(243.093438 64.969687) scale(0.12 -0.12)">
      <defs>
       <path id="DejaVuSans-79" d="M 2059 -325 
Q 1816 -950 1584 -1140 
Q 1353 -1331 966 -1331 
L 506 -1331 
L 506 -850 
L 844 -850 
Q 1081 -850 1212 -737 
Q 1344 -625 1503 -206 
L 1606 56 
L 191 3500 
L 800 3500 
L 1894 763 
L 2988 3500 
L 3597 3500 
L 2059 -325 
z
" transform="scale(0.015625)"/>
       <path id="DejaVuSans-64" d="M 2906 2969 
L 2906 4863 
L 3481 4863 
L 3481 0 
L 2906 0 
L 2906 525 
Q 2725 213 2448 61 
Q 2172 -91 1784 -91 
Q 1150 -91 751 415 
Q 353 922 353 1747 
Q 353 2572 751 3078 
Q 1150 3584 1784 3584 
Q 2172 3584 2448 3432 
Q 2725 3281 2906 2969 
z
M 947 1747 
Q 947 1113 1208 752 
Q 1469 391 1925 391 
Q 2381 391 2643 752 
Q 2906 1113 2906 1747 
Q 2906 2381 2643 2742 
Q 2381 3103 1925 3103 
Q 1469 3103 1208 2742 
Q 947 2381 947 1747 
z
" transform="scale(0.015625)"/>
      </defs>
      <use xlink:href="#DejaVuSans-63"/>
      <use xlink:href="#DejaVuSans-79" x="54.980469"/>
      <use xlink:href="#DejaVuSans-74" x="114.160156"/>
      <use xlink:href="#DejaVuSans-64" x="153.369141"/>
     </g>
    </g>
    <g id="patch_70">
     <path d="M 209.493438 82.583437 
L 233.493438 82.583437 
L 233.493438 74.183437 
L 209.493438 74.183437 
z
" style="fill: #2ca02c; opacity: 0.4"/>
    </g>
    <g id="text_18">
     <!-- jasp -->
     <g transform="translate(243.093438 82.583437) scale(0.12 -0.12)">
      <defs>
       <path id="DejaVuSans-6a" d="M 603 3500 
L 1178 3500 
L 1178 -63 
Q 1178 -731 923 -1031 
Q 669 -1331 103 -1331 
L -116 -1331 
L -116 -844 
L 38 -844 
Q 366 -844 484 -692 
Q 603 -541 603 -63 
L 603 3500 
z
M 603 4863 
L 1178 4863 
L 1178 4134 
L 603 4134 
L 603 4863 
z
" transform="scale(0.015625)"/>
       <path id="DejaVuSans-70" d="M 1159 525 
L 1159 -1331 
L 581 -1331 
L 581 3500 
L 1159 3500 
L 1159 2969 
Q 1341 3281 1617 3432 
Q 1894 3584 2278 3584 
Q 2916 3584 3314 3078 
Q 3713 2572 3713 1747 
Q 3713 922 3314 415 
Q 2916 -91 2278 -91 
Q 1894 -91 1617 61 
Q 1341 213 1159 525 
z
M 3116 1747 
Q 3116 2381 2855 2742 
Q 2594 3103 2138 3103 
Q 1681 3103 1420 2742 
Q 1159 2381 1159 1747 
Q 1159 1113 1420 752 
Q 1681 391 2138 391 
Q 2594 391 2855 752 
Q 3116 1113 3116 1747 
z
" transform="scale(0.015625)"/>
      </defs>
      <use xlink:href="#DejaVuSans-6a"/>
      <use xlink:href="#DejaVuSans-61" x="27.783203"/>
      <use xlink:href="#DejaVuSans-73" x="89.0625"/>
      <use xlink:href="#DejaVuSans-70" x="141.162109"/>
     </g>
    </g>
   </g>
  </g>
  <g id="axes_2">
   <g id="patch_71">
    <path d="M 327.332187 260.521875 
L 565.2 260.521875 
L 565.2 27.437812 
L 327.332187 27.437812 
z
" style="fill: #ffffff"/>
   </g>
   <g id="patch_72">
    <path d="M 373.411081 260.521875 
L 377.904331 260.521875 
L 377.904331 125.98562 
L 373.411081 125.98562 
z
" clip-path="url(#p935e582114)" style="fill: #1f77b4; opacity: 0.4"/>
   </g>
   <g id="patch_73">
    <path d="M 377.904331 260.521875 
L 382.397582 260.521875 
L 382.397582 38.537054 
L 377.904331 38.537054 
z
" clip-path="url(#p935e582114)" style="fill: #1f77b4; opacity: 0.4"/>
   </g>
   <g id="patch_74">
    <path d="M 382.397582 260.521875 
L 386.890832 260.521875 
L 386.890832 125.98562 
L 382.397582 125.98562 
z
" clip-path="url(#p935e582114)" style="fill: #1f77b4; opacity: 0.4"/>
   </g>
   <g id="patch_75">
    <path d="M 386.890832 260.521875 
L 391.384083 260.521875 
L 391.384083 179.800122 
L 386.890832 179.800122 
z
" clip-path="url(#p935e582114)" style="fill: #1f77b4; opacity: 0.4"/>
   </g>
   <g id="patch_76">
    <path d="M 391.384083 260.521875 
L 395.877333 260.521875 
L 395.877333 223.524405 
L 391.384083 223.524405 
z
" clip-path="url(#p935e582114)" style="fill: #1f77b4; opacity: 0.4"/>
   </g>
   <g id="patch_77">
    <path d="M 395.877333 260.521875 
L 400.370584 260.521875 
L 400.370584 230.251218 
L 395.877333 230.251218 
z
" clip-path="url(#p935e582114)" style="fill: #1f77b4; opacity: 0.4"/>
   </g>
   <g id="patch_78">
    <path d="M 400.370584 260.521875 
L 404.863834 260.521875 
L 404.863834 243.704843 
L 400.370584 243.704843 
z
" clip-path="url(#p935e582114)" style="fill: #1f77b4; opacity: 0.4"/>
   </g>
   <g id="patch_79">
    <path d="M 404.863834 260.521875 
L 409.357085 260.521875 
L 409.357085 250.431656 
L 404.863834 250.431656 
z
" clip-path="url(#p935e582114)" style="fill: #1f77b4; opacity: 0.4"/>
   </g>
   <g id="patch_80">
    <path d="M 409.357085 260.521875 
L 413.850335 260.521875 
L 413.850335 257.158469 
L 409.357085 257.158469 
z
" clip-path="url(#p935e582114)" style="fill: #1f77b4; opacity: 0.4"/>
   </g>
   <g id="patch_81">
    <path d="M 413.850335 260.521875 
L 418.343586 260.521875 
L 418.343586 257.158469 
L 413.850335 257.158469 
z
" clip-path="url(#p935e582114)" style="fill: #1f77b4; opacity: 0.4"/>
   </g>
   <g id="patch_82">
    <path d="M 418.343586 260.521875 
L 422.836837 260.521875 
L 422.836837 257.158469 
L 418.343586 257.158469 
z
" clip-path="url(#p935e582114)" style="fill: #1f77b4; opacity: 0.4"/>
   </g>
   <g id="patch_83">
    <path d="M 422.836837 260.521875 
L 427.330087 260.521875 
L 427.330087 257.158469 
L 422.836837 257.158469 
z
" clip-path="url(#p935e582114)" style="fill: #1f77b4; opacity: 0.4"/>
   </g>
   <g id="patch_84">
    <path d="M 427.330087 260.521875 
L 431.823338 260.521875 
L 431.823338 257.158469 
L 427.330087 257.158469 
z
" clip-path="url(#p935e582114)" style="fill: #1f77b4; opacity: 0.4"/>
   </g>
   <g id="patch_85">
    <path d="M 431.823338 260.521875 
L 436.316588 260.521875 
L 436.316588 260.521875 
L 431.823338 260.521875 
z
" clip-path="url(#p935e582114)" style="fill: #1f77b4; opacity: 0.4"/>
   </g>
   <g id="patch_86">
    <path d="M 436.316588 260.521875 
L 440.809839 260.521875 
L 440.809839 260.521875 
L 436.316588 260.521875 
z
" clip-path="url(#p935e582114)" style="fill: #1f77b4; opacity: 0.4"/>
   </g>
   <g id="patch_87">
    <path d="M 440.809839 260.521875 
L 445.303089 260.521875 
L 445.303089 260.521875 
L 440.809839 260.521875 
z
" clip-path="url(#p935e582114)" style="fill: #1f77b4; opacity: 0.4"/>
   </g>
   <g id="patch_88">
    <path d="M 445.303089 260.521875 
L 449.79634 260.521875 
L 449.79634 260.521875 
L 445.303089 260.521875 
z
" clip-path="url(#p935e582114)" style="fill: #1f77b4; opacity: 0.4"/>
   </g>
   <g id="patch_89">
    <path d="M 449.79634 260.521875 
L 454.28959 260.521875 
L 454.28959 260.521875 
L 449.79634 260.521875 
z
" clip-path="url(#p935e582114)" style="fill: #1f77b4; opacity: 0.4"/>
   </g>
   <g id="patch_90">
    <path d="M 454.28959 260.521875 
L 458.782841 260.521875 
L 458.782841 260.521875 
L 454.28959 260.521875 
z
" clip-path="url(#p935e582114)" style="fill: #1f77b4; opacity: 0.4"/>
   </g>
   <g id="patch_91">
    <path d="M 458.782841 260.521875 
L 463.276091 260.521875 
L 463.276091 257.158469 
L 458.782841 257.158469 
z
" clip-path="url(#p935e582114)" style="fill: #1f77b4; opacity: 0.4"/>
   </g>
   <g id="patch_92">
    <path d="M 380.782368 260.521875 
L 384.863732 260.521875 
L 384.863732 236.154812 
L 380.782368 236.154812 
z
" clip-path="url(#p935e582114)" style="fill: #ff7f0e; opacity: 0.4"/>
   </g>
   <g id="patch_93">
    <path d="M 384.863732 260.521875 
L 388.945095 260.521875 
L 388.945095 211.787749 
L 384.863732 211.787749 
z
" clip-path="url(#p935e582114)" style="fill: #ff7f0e; opacity: 0.4"/>
   </g>
   <g id="patch_94">
    <path d="M 388.945095 260.521875 
L 393.026459 260.521875 
L 393.026459 203.665395 
L 388.945095 203.665395 
z
" clip-path="url(#p935e582114)" style="fill: #ff7f0e; opacity: 0.4"/>
   </g>
   <g id="patch_95">
    <path d="M 393.026459 260.521875 
L 397.107822 260.521875 
L 397.107822 211.787749 
L 393.026459 211.787749 
z
" clip-path="url(#p935e582114)" style="fill: #ff7f0e; opacity: 0.4"/>
   </g>
   <g id="patch_96">
    <path d="M 397.107822 260.521875 
L 401.189185 260.521875 
L 401.189185 187.420686 
L 397.107822 187.420686 
z
" clip-path="url(#p935e582114)" style="fill: #ff7f0e; opacity: 0.4"/>
   </g>
   <g id="patch_97">
    <path d="M 401.189185 260.521875 
L 405.270549 260.521875 
L 405.270549 219.910103 
L 401.189185 219.910103 
z
" clip-path="url(#p935e582114)" style="fill: #ff7f0e; opacity: 0.4"/>
   </g>
   <g id="patch_98">
    <path d="M 405.270549 260.521875 
L 409.351912 260.521875 
L 409.351912 195.54304 
L 405.270549 195.54304 
z
" clip-path="url(#p935e582114)" style="fill: #ff7f0e; opacity: 0.4"/>
   </g>
   <g id="patch_99">
    <path d="M 409.351912 260.521875 
L 413.433276 260.521875 
L 413.433276 195.54304 
L 409.351912 195.54304 
z
" clip-path="url(#p935e582114)" style="fill: #ff7f0e; opacity: 0.4"/>
   </g>
   <g id="patch_100">
    <path d="M 413.433276 260.521875 
L 417.514639 260.521875 
L 417.514639 203.665395 
L 413.433276 203.665395 
z
" clip-path="url(#p935e582114)" style="fill: #ff7f0e; opacity: 0.4"/>
   </g>
   <g id="patch_101">
    <path d="M 417.514639 260.521875 
L 421.596002 260.521875 
L 421.596002 163.053623 
L 417.514639 163.053623 
z
" clip-path="url(#p935e582114)" style="fill: #ff7f0e; opacity: 0.4"/>
   </g>
   <g id="patch_102">
    <path d="M 421.596002 260.521875 
L 425.677366 260.521875 
L 425.677366 211.787749 
L 421.596002 211.787749 
z
" clip-path="url(#p935e582114)" style="fill: #ff7f0e; opacity: 0.4"/>
   </g>
   <g id="patch_103">
    <path d="M 425.677366 260.521875 
L 429.758729 260.521875 
L 429.758729 244.277166 
L 425.677366 244.277166 
z
" clip-path="url(#p935e582114)" style="fill: #ff7f0e; opacity: 0.4"/>
   </g>
   <g id="patch_104">
    <path d="M 429.758729 260.521875 
L 433.840093 260.521875 
L 433.840093 203.665395 
L 429.758729 203.665395 
z
" clip-path="url(#p935e582114)" style="fill: #ff7f0e; opacity: 0.4"/>
   </g>
   <g id="patch_105">
    <path d="M 433.840093 260.521875 
L 437.921456 260.521875 
L 437.921456 252.399521 
L 433.840093 252.399521 
z
" clip-path="url(#p935e582114)" style="fill: #ff7f0e; opacity: 0.4"/>
   </g>
   <g id="patch_106">
    <path d="M 437.921456 260.521875 
L 442.002819 260.521875 
L 442.002819 244.277166 
L 437.921456 244.277166 
z
" clip-path="url(#p935e582114)" style="fill: #ff7f0e; opacity: 0.4"/>
   </g>
   <g id="patch_107">
    <path d="M 442.002819 260.521875 
L 446.084183 260.521875 
L 446.084183 252.399521 
L 442.002819 252.399521 
z
" clip-path="url(#p935e582114)" style="fill: #ff7f0e; opacity: 0.4"/>
   </g>
   <g id="patch_108">
    <path d="M 446.084183 260.521875 
L 450.165546 260.521875 
L 450.165546 252.399521 
L 446.084183 252.399521 
z
" clip-path="url(#p935e582114)" style="fill: #ff7f0e; opacity: 0.4"/>
   </g>
   <g id="patch_109">
    <path d="M 450.165546 260.521875 
L 454.24691 260.521875 
L 454.24691 260.521875 
L 450.165546 260.521875 
z
" clip-path="url(#p935e582114)" style="fill: #ff7f0e; opacity: 0.4"/>
   </g>
   <g id="patch_110">
    <path d="M 454.24691 260.521875 
L 458.328273 260.521875 
L 458.328273 252.399521 
L 454.24691 252.399521 
z
" clip-path="url(#p935e582114)" style="fill: #ff7f0e; opacity: 0.4"/>
   </g>
   <g id="patch_111">
    <path d="M 458.328273 260.521875 
L 462.409636 260.521875 
L 462.409636 252.399521 
L 458.328273 252.399521 
z
" clip-path="url(#p935e582114)" style="fill: #ff7f0e; opacity: 0.4"/>
   </g>
   <g id="patch_112">
    <path d="M 374.940559 260.521875 
L 377.831464 260.521875 
L 377.831464 238.070508 
L 374.940559 238.070508 
z
" clip-path="url(#p935e582114)" style="fill: #2ca02c; opacity: 0.4"/>
   </g>
   <g id="patch_113">
    <path d="M 377.831464 260.521875 
L 380.722368 260.521875 
L 380.722368 193.167773 
L 377.831464 193.167773 
z
" clip-path="url(#p935e582114)" style="fill: #2ca02c; opacity: 0.4"/>
   </g>
   <g id="patch_114">
    <path d="M 380.722368 260.521875 
L 383.613273 260.521875 
L 383.613273 125.813672 
L 380.722368 125.813672 
z
" clip-path="url(#p935e582114)" style="fill: #2ca02c; opacity: 0.4"/>
   </g>
   <g id="patch_115">
    <path d="M 383.613273 260.521875 
L 386.504177 260.521875 
L 386.504177 125.813672 
L 383.613273 125.813672 
z
" clip-path="url(#p935e582114)" style="fill: #2ca02c; opacity: 0.4"/>
   </g>
   <g id="patch_116">
    <path d="M 386.504177 260.521875 
L 389.395082 260.521875 
L 389.395082 137.039355 
L 386.504177 137.039355 
z
" clip-path="url(#p935e582114)" style="fill: #2ca02c; opacity: 0.4"/>
   </g>
   <g id="patch_117">
    <path d="M 389.395082 260.521875 
L 392.285986 260.521875 
L 392.285986 92.136621 
L 389.395082 92.136621 
z
" clip-path="url(#p935e582114)" style="fill: #2ca02c; opacity: 0.4"/>
   </g>
   <g id="patch_118">
    <path d="M 392.285986 260.521875 
L 395.176891 260.521875 
L 395.176891 137.039355 
L 392.285986 137.039355 
z
" clip-path="url(#p935e582114)" style="fill: #2ca02c; opacity: 0.4"/>
   </g>
   <g id="patch_119">
    <path d="M 395.176891 260.521875 
L 398.067795 260.521875 
L 398.067795 103.362304 
L 395.176891 103.362304 
z
" clip-path="url(#p935e582114)" style="fill: #2ca02c; opacity: 0.4"/>
   </g>
   <g id="patch_120">
    <path d="M 398.067795 260.521875 
L 400.9587 260.521875 
L 400.9587 238.070508 
L 398.067795 238.070508 
z
" clip-path="url(#p935e582114)" style="fill: #2ca02c; opacity: 0.4"/>
   </g>
   <g id="patch_121">
    <path d="M 400.9587 260.521875 
L 403.849604 260.521875 
L 403.849604 238.070508 
L 400.9587 238.070508 
z
" clip-path="url(#p935e582114)" style="fill: #2ca02c; opacity: 0.4"/>
   </g>
   <g id="patch_122">
    <path d="M 403.849604 260.521875 
L 406.740509 260.521875 
L 406.740509 238.070508 
L 403.849604 238.070508 
z
" clip-path="url(#p935e582114)" style="fill: #2ca02c; opacity: 0.4"/>
   </g>
   <g id="patch_123">
    <path d="M 406.740509 260.521875 
L 409.631413 260.521875 
L 409.631413 249.296191 
L 406.740509 249.296191 
z
" clip-path="url(#p935e582114)" style="fill: #2ca02c; opacity: 0.4"/>
   </g>
   <g id="patch_124">
    <path d="M 409.631413 260.521875 
L 412.522318 260.521875 
L 412.522318 238.070508 
L 409.631413 238.070508 
z
" clip-path="url(#p935e582114)" style="fill: #2ca02c; opacity: 0.4"/>
   </g>
   <g id="patch_125">
    <path d="M 412.522318 260.521875 
L 415.413222 260.521875 
L 415.413222 260.521875 
L 412.522318 260.521875 
z
" clip-path="url(#p935e582114)" style="fill: #2ca02c; opacity: 0.4"/>
   </g>
   <g id="patch_126">
    <path d="M 415.413222 260.521875 
L 418.304127 260.521875 
L 418.304127 249.296191 
L 415.413222 249.296191 
z
" clip-path="url(#p935e582114)" style="fill: #2ca02c; opacity: 0.4"/>
   </g>
   <g id="patch_127">
    <path d="M 418.304127 260.521875 
L 421.195031 260.521875 
L 421.195031 260.521875 
L 418.304127 260.521875 
z
" clip-path="url(#p935e582114)" style="fill: #2ca02c; opacity: 0.4"/>
   </g>
   <g id="patch_128">
    <path d="M 421.195031 260.521875 
L 424.085936 260.521875 
L 424.085936 249.296191 
L 421.195031 249.296191 
z
" clip-path="url(#p935e582114)" style="fill: #2ca02c; opacity: 0.4"/>
   </g>
   <g id="patch_129">
    <path d="M 424.085936 260.521875 
L 426.97684 260.521875 
L 426.97684 260.521875 
L 424.085936 260.521875 
z
" clip-path="url(#p935e582114)" style="fill: #2ca02c; opacity: 0.4"/>
   </g>
   <g id="patch_130">
    <path d="M 426.97684 260.521875 
L 429.867745 260.521875 
L 429.867745 260.521875 
L 426.97684 260.521875 
z
" clip-path="url(#p935e582114)" style="fill: #2ca02c; opacity: 0.4"/>
   </g>
   <g id="patch_131">
    <path d="M 429.867745 260.521875 
L 432.758649 260.521875 
L 432.758649 249.296191 
L 429.867745 249.296191 
z
" clip-path="url(#p935e582114)" style="fill: #2ca02c; opacity: 0.4"/>
   </g>
   <g id="matplotlib.axis_3">
    <g id="xtick_6">
     <g id="line2d_17">
      <g>
       <use xlink:href="#m3a23072dff" x="345.393223" y="260.521875" style="stroke: #000000; stroke-width: 0.8"/>
      </g>
     </g>
     <g id="text_19">
      <!-- 0.4 -->
      <g transform="translate(337.441661 275.120313) scale(0.1 -0.1)">
       <use xlink:href="#DejaVuSans-30"/>
       <use xlink:href="#DejaVuSans-2e" x="63.623047"/>
       <use xlink:href="#DejaVuSans-34" x="95.410156"/>
      </g>
     </g>
    </g>
    <g id="xtick_7">
     <g id="line2d_18">
      <g>
       <use xlink:href="#m3a23072dff" x="395.971979" y="260.521875" style="stroke: #000000; stroke-width: 0.8"/>
      </g>
     </g>
     <g id="text_20">
      <!-- 0.6 -->
      <g transform="translate(388.020416 275.120313) scale(0.1 -0.1)">
       <use xlink:href="#DejaVuSans-30"/>
       <use xlink:href="#DejaVuSans-2e" x="63.623047"/>
       <use xlink:href="#DejaVuSans-36" x="95.410156"/>
      </g>
     </g>
    </g>
    <g id="xtick_8">
     <g id="line2d_19">
      <g>
       <use xlink:href="#m3a23072dff" x="446.550734" y="260.521875" style="stroke: #000000; stroke-width: 0.8"/>
      </g>
     </g>
     <g id="text_21">
      <!-- 0.8 -->
      <g transform="translate(438.599171 275.120313) scale(0.1 -0.1)">
       <use xlink:href="#DejaVuSans-30"/>
       <use xlink:href="#DejaVuSans-2e" x="63.623047"/>
       <use xlink:href="#DejaVuSans-38" x="95.410156"/>
      </g>
     </g>
    </g>
    <g id="xtick_9">
     <g id="line2d_20">
      <g>
       <use xlink:href="#m3a23072dff" x="497.129489" y="260.521875" style="stroke: #000000; stroke-width: 0.8"/>
      </g>
     </g>
     <g id="text_22">
      <!-- 1.0 -->
      <g transform="translate(489.177927 275.120313) scale(0.1 -0.1)">
       <use xlink:href="#DejaVuSans-31"/>
       <use xlink:href="#DejaVuSans-2e" x="63.623047"/>
       <use xlink:href="#DejaVuSans-30" x="95.410156"/>
      </g>
     </g>
    </g>
    <g id="xtick_10">
     <g id="line2d_21">
      <g>
       <use xlink:href="#m3a23072dff" x="547.708244" y="260.521875" style="stroke: #000000; stroke-width: 0.8"/>
      </g>
     </g>
     <g id="text_23">
      <!-- 1.2 -->
      <g transform="translate(539.756682 275.120313) scale(0.1 -0.1)">
       <use xlink:href="#DejaVuSans-31"/>
       <use xlink:href="#DejaVuSans-2e" x="63.623047"/>
       <use xlink:href="#DejaVuSans-32" x="95.410156"/>
      </g>
     </g>
    </g>
   </g>
   <g id="matplotlib.axis_4">
    <g id="ytick_9">
     <g id="line2d_22">
      <g>
       <use xlink:href="#m89ae49e50a" x="327.332187" y="260.521875" style="stroke: #000000; stroke-width: 0.8"/>
      </g>
     </g>
    </g>
    <g id="ytick_10">
     <g id="line2d_23">
      <g>
       <use xlink:href="#m89ae49e50a" x="327.332187" y="230.044889" style="stroke: #000000; stroke-width: 0.8"/>
      </g>
     </g>
    </g>
    <g id="ytick_11">
     <g id="line2d_24">
      <g>
       <use xlink:href="#m89ae49e50a" x="327.332187" y="199.567903" style="stroke: #000000; stroke-width: 0.8"/>
      </g>
     </g>
    </g>
    <g id="ytick_12">
     <g id="line2d_25">
      <g>
       <use xlink:href="#m89ae49e50a" x="327.332187" y="169.090918" style="stroke: #000000; stroke-width: 0.8"/>
      </g>
     </g>
    </g>
    <g id="ytick_13">
     <g id="line2d_26">
      <g>
       <use xlink:href="#m89ae49e50a" x="327.332187" y="138.613932" style="stroke: #000000; stroke-width: 0.8"/>
      </g>
     </g>
    </g>
    <g id="ytick_14">
     <g id="line2d_27">
      <g>
       <use xlink:href="#m89ae49e50a" x="327.332187" y="108.136946" style="stroke: #000000; stroke-width: 0.8"/>
      </g>
     </g>
    </g>
    <g id="ytick_15">
     <g id="line2d_28">
      <g>
       <use xlink:href="#m89ae49e50a" x="327.332187" y="77.65996" style="stroke: #000000; stroke-width: 0.8"/>
      </g>
     </g>
    </g>
    <g id="ytick_16">
     <g id="line2d_29">
      <g>
       <use xlink:href="#m89ae49e50a" x="327.332187" y="47.182974" style="stroke: #000000; stroke-width: 0.8"/>
      </g>
     </g>
    </g>
    <g id="text_24">
     <!-- Fraction of cells -->
     <g transform="translate(316.920625 198.811719) rotate(-90) scale(0.14 -0.14)">
      <use xlink:href="#DejaVuSans-46"/>
      <use xlink:href="#DejaVuSans-72" x="50.269531"/>
      <use xlink:href="#DejaVuSans-61" x="91.382812"/>
      <use xlink:href="#DejaVuSans-63" x="152.662109"/>
      <use xlink:href="#DejaVuSans-74" x="207.642578"/>
      <use xlink:href="#DejaVuSans-69" x="246.851562"/>
      <use xlink:href="#DejaVuSans-6f" x="274.634766"/>
      <use xlink:href="#DejaVuSans-6e" x="335.816406"/>
      <use xlink:href="#DejaVuSans-20" x="399.195312"/>
      <use xlink:href="#DejaVuSans-6f" x="430.982422"/>
      <use xlink:href="#DejaVuSans-66" x="492.164062"/>
      <use xlink:href="#DejaVuSans-20" x="527.369141"/>
      <use xlink:href="#DejaVuSans-63" x="559.15625"/>
      <use xlink:href="#DejaVuSans-65" x="614.136719"/>
      <use xlink:href="#DejaVuSans-6c" x="675.660156"/>
      <use xlink:href="#DejaVuSans-6c" x="703.443359"/>
      <use xlink:href="#DejaVuSans-73" x="731.226562"/>
     </g>
    </g>
   </g>
   <g id="line2d_30">
    <path d="M 244.235713 260.521875 
L 249.344678 260.521875 
L 254.453643 260.521875 
L 259.562609 260.521875 
L 264.671574 260.521875 
L 269.780539 260.521875 
L 274.889504 260.521875 
L 279.998469 260.521875 
L 285.107434 260.521875 
L 290.2164 260.521875 
L 295.325365 260.521875 
L 300.43433 260.521875 
L 305.543295 260.521875 
L 310.65226 260.521875 
L 315.761225 260.521875 
L 320.870191 260.521875 
L 325.979156 260.521875 
L 331.088121 260.521875 
L 336.197086 260.521875 
L 341.306051 260.521875 
L 346.415016 260.521875 
L 351.523982 260.521875 
L 356.632947 260.521673 
L 361.741912 260.4553 
L 366.850877 256.582407 
L 371.959842 212.816393 
L 377.068808 112.441967 
L 382.177773 93.878085 
L 387.286738 155.389106 
L 392.395703 205.101102 
L 397.504668 228.885084 
L 402.613633 242.590922 
L 407.722599 251.269107 
L 412.831564 257.059135 
L 417.940529 257.294741 
L 423.049494 256.187171 
L 428.158459 257.71205 
L 433.267424 259.729425 
L 438.37639 260.473134 
L 443.485355 260.521405 
L 448.59432 260.52128 
L 453.703285 260.465473 
L 458.81225 259.735898 
L 463.921215 258.912456 
L 469.030181 260.037618 
L 474.139146 260.500464 
L 479.248111 260.521736 
L 484.357076 260.521875 
L 489.466041 260.521875 
L 494.575007 260.521875 
L 499.683972 260.521875 
L 504.792937 260.521875 
L 509.901902 260.521875 
L 515.010867 260.521875 
L 520.119832 260.521875 
L 525.228798 260.521875 
L 530.337763 260.521875 
L 535.446728 260.521875 
L 540.555693 260.521875 
L 545.664658 260.521875 
L 550.773623 260.521875 
L 555.882589 260.521875 
L 560.991554 260.521875 
L 566.100519 260.521875 
L 571.209484 260.521875 
L 576.318449 260.521875 
L 577 260.521875 
" clip-path="url(#p935e582114)" style="fill: none; stroke: #1f77b4; stroke-width: 1.5; stroke-linecap: square"/>
   </g>
   <g id="line2d_31">
    <path d="M 244.235713 260.521875 
L 249.344678 260.521875 
L 254.453643 260.521875 
L 259.562609 260.521875 
L 264.671574 260.521875 
L 269.780539 260.521875 
L 274.889504 260.521875 
L 279.998469 260.521875 
L 285.107434 260.521875 
L 290.2164 260.521875 
L 295.325365 260.521875 
L 300.43433 260.521875 
L 305.543295 260.521875 
L 310.65226 260.521875 
L 315.761225 260.521875 
L 320.870191 260.521875 
L 325.979156 260.521875 
L 331.088121 260.521875 
L 336.197086 260.521875 
L 341.306051 260.521875 
L 346.415016 260.521863 
L 351.523982 260.521504 
L 356.632947 260.514668 
L 361.741912 260.43562 
L 366.850877 259.870795 
L 371.959842 257.3353 
L 377.068808 250.094319 
L 382.177773 236.888048 
L 387.286738 221.585351 
L 392.395703 210.454334 
L 397.504668 205.337035 
L 402.613633 203.003672 
L 407.722599 200.528345 
L 412.831564 198.219542 
L 417.940529 198.759472 
L 423.049494 205.845319 
L 428.158459 218.617628 
L 433.267424 231.830577 
L 438.37639 241.868458 
L 443.485355 248.312355 
L 448.59432 252.485691 
L 453.703285 254.943644 
L 458.81225 256.12278 
L 463.921215 257.324621 
L 469.030181 258.860537 
L 474.139146 259.970064 
L 479.248111 260.409538 
L 484.357076 260.508143 
L 489.466041 260.520879 
L 494.575007 260.521833 
L 499.683972 260.521874 
L 504.792937 260.521875 
L 509.901902 260.521875 
L 515.010867 260.521875 
L 520.119832 260.521875 
L 525.228798 260.521875 
L 530.337763 260.521875 
L 535.446728 260.521875 
L 540.555693 260.521875 
L 545.664658 260.521875 
L 550.773623 260.521875 
L 555.882589 260.521875 
L 560.991554 260.521875 
L 566.100519 260.521875 
L 571.209484 260.521875 
L 576.318449 260.521875 
L 577 260.521875 
" clip-path="url(#p935e582114)" style="fill: none; stroke: #ff7f0e; stroke-width: 1.5; stroke-linecap: square"/>
   </g>
   <g id="line2d_32">
    <path d="M 244.235713 260.521875 
L 249.344678 260.521875 
L 254.453643 260.521875 
L 259.562609 260.521875 
L 264.671574 260.521875 
L 269.780539 260.521875 
L 274.889504 260.521875 
L 279.998469 260.521875 
L 285.107434 260.521875 
L 290.2164 260.521875 
L 295.325365 260.521875 
L 300.43433 260.521875 
L 305.543295 260.521875 
L 310.65226 260.521875 
L 315.761225 260.521875 
L 320.870191 260.521875 
L 325.979156 260.521875 
L 331.088121 260.521875 
L 336.197086 260.521875 
L 341.306051 260.521875 
L 346.415016 260.521875 
L 351.523982 260.521875 
L 356.632947 260.521824 
L 361.741912 260.508147 
L 366.850877 259.820688 
L 371.959842 251.636764 
L 377.068808 215.624482 
L 382.177773 152.35347 
L 387.286738 121.418053 
L 392.395703 123.826932 
L 397.504668 174.400046 
L 402.613633 228.725165 
L 407.722599 243.433284 
L 412.831564 248.659928 
L 417.940529 254.209602 
L 423.049494 256.260767 
L 428.158459 257.631307 
L 433.267424 257.100627 
L 438.37639 259.366408 
L 443.485355 260.454309 
L 448.59432 260.521205 
L 453.703285 260.521874 
L 458.81225 260.521875 
L 463.921215 260.521875 
L 469.030181 260.521875 
L 474.139146 260.521875 
L 479.248111 260.521875 
L 484.357076 260.521875 
L 489.466041 260.521875 
L 494.575007 260.521875 
L 499.683972 260.521875 
L 504.792937 260.521875 
L 509.901902 260.521875 
L 515.010867 260.521875 
L 520.119832 260.521875 
L 525.228798 260.521875 
L 530.337763 260.521875 
L 535.446728 260.521875 
L 540.555693 260.521875 
L 545.664658 260.521875 
L 550.773623 260.521875 
L 555.882589 260.521875 
L 560.991554 260.521875 
L 566.100519 260.521875 
L 571.209484 260.521875 
L 576.318449 260.521875 
L 577 260.521875 
" clip-path="url(#p935e582114)" style="fill: none; stroke: #2ca02c; stroke-width: 1.5; stroke-linecap: square"/>
   </g>
   <g id="patch_132">
    <path d="M 327.332187 260.521875 
L 327.332187 27.437813 
" style="fill: none; stroke: #000000; stroke-width: 0.8; stroke-linejoin: miter; stroke-linecap: square"/>
   </g>
   <g id="patch_133">
    <path d="M 565.2 260.521875 
L 565.2 27.437813 
" style="fill: none; stroke: #000000; stroke-width: 0.8; stroke-linejoin: miter; stroke-linecap: square"/>
   </g>
   <g id="patch_134">
    <path d="M 327.332187 260.521875 
L 565.2 260.521875 
" style="fill: none; stroke: #000000; stroke-width: 0.8; stroke-linejoin: miter; stroke-linecap: square"/>
   </g>
   <g id="patch_135">
    <path d="M 327.332187 27.437812 
L 565.2 27.437812 
" style="fill: none; stroke: #000000; stroke-width: 0.8; stroke-linejoin: miter; stroke-linecap: square"/>
   </g>
   <g id="text_25">
    <!-- Linear -->
    <g transform="translate(424.510312 21.437813) scale(0.14 -0.14)">
     <defs>
      <path id="DejaVuSans-4c" d="M 628 4666 
L 1259 4666 
L 1259 531 
L 3531 531 
L 3531 0 
L 628 0 
L 628 4666 
z
" transform="scale(0.015625)"/>
     </defs>
     <use xlink:href="#DejaVuSans-4c"/>
     <use xlink:href="#DejaVuSans-69" x="55.712891"/>
     <use xlink:href="#DejaVuSans-6e" x="83.496094"/>
     <use xlink:href="#DejaVuSans-65" x="146.875"/>
     <use xlink:href="#DejaVuSans-61" x="208.398438"/>
     <use xlink:href="#DejaVuSans-72" x="269.677734"/>
    </g>
   </g>
   <g id="legend_2">
    <g id="patch_136">
     <path d="M 476.810625 89.879062 
L 556.8 89.879062 
Q 559.2 89.879062 559.2 87.479062 
L 559.2 35.837812 
Q 559.2 33.437812 556.8 33.437812 
L 476.810625 33.437812 
Q 474.410625 33.437812 474.410625 35.837812 
L 474.410625 87.479062 
Q 474.410625 89.879062 476.810625 89.879062 
z
" style="fill: #ffffff; opacity: 0.8; stroke: #cccccc; stroke-linejoin: miter"/>
    </g>
    <g id="patch_137">
     <path d="M 479.210625 47.355937 
L 503.210625 47.355937 
L 503.210625 38.955937 
L 479.210625 38.955937 
z
" style="fill: #1f77b4; opacity: 0.4"/>
    </g>
    <g id="text_26">
     <!-- control -->
     <g transform="translate(512.810625 47.355937) scale(0.12 -0.12)">
      <use xlink:href="#DejaVuSans-63"/>
      <use xlink:href="#DejaVuSans-6f" x="54.980469"/>
      <use xlink:href="#DejaVuSans-6e" x="116.162109"/>
      <use xlink:href="#DejaVuSans-74" x="179.541016"/>
      <use xlink:href="#DejaVuSans-72" x="218.75"/>
      <use xlink:href="#DejaVuSans-6f" x="257.613281"/>
      <use xlink:href="#DejaVuSans-6c" x="318.794922"/>
     </g>
    </g>
    <g id="patch_138">
     <path d="M 479.210625 64.969687 
L 503.210625 64.969687 
L 503.210625 56.569687 
L 479.210625 56.569687 
z
" style="fill: #ff7f0e; opacity: 0.4"/>
    </g>
    <g id="text_27">
     <!-- cytd -->
     <g transform="translate(512.810625 64.969687) scale(0.12 -0.12)">
      <use xlink:href="#DejaVuSans-63"/>
      <use xlink:href="#DejaVuSans-79" x="54.980469"/>
      <use xlink:href="#DejaVuSans-74" x="114.160156"/>
      <use xlink:href="#DejaVuSans-64" x="153.369141"/>
     </g>
    </g>
    <g id="patch_139">
     <path d="M 479.210625 82.583437 
L 503.210625 82.583437 
L 503.210625 74.183437 
L 479.210625 74.183437 
z
" style="fill: #2ca02c; opacity: 0.4"/>
    </g>
    <g id="text_28">
     <!-- jasp -->
     <g transform="translate(512.810625 82.583437) scale(0.12 -0.12)">
      <use xlink:href="#DejaVuSans-6a"/>
      <use xlink:href="#DejaVuSans-61" x="27.783203"/>
      <use xlink:href="#DejaVuSans-73" x="89.0625"/>
      <use xlink:href="#DejaVuSans-70" x="141.162109"/>
     </g>
    </g>
   </g>
  </g>
 </g>
 <defs>
  <clipPath id="p742bc4b91d">
   <rect x="57.615" y="27.437813" width="237.867813" height="233.084062"/>
  </clipPath>
  <clipPath id="p935e582114">
   <rect x="327.332187" y="27.437813" width="237.867812" height="233.084062"/>
  </clipPath>
 </defs>
</svg>
