<?xml version="1.0" encoding="utf-8" standalone="no"?>
<!DOCTYPE svg PUBLIC "-//W3C//DTD SVG 1.1//EN"
  "http://www.w3.org/Graphics/SVG/1.1/DTD/svg11.dtd">
<svg xmlns:xlink="http://www.w3.org/1999/xlink" width="540pt" height="288pt" viewBox="0 0 540 288" xmlns="http://www.w3.org/2000/svg" version="1.1">
 <metadata>
  <rdf:RDF xmlns:dc="http://purl.org/dc/elements/1.1/" xmlns:cc="http://creativecommons.org/ns#" xmlns:rdf="http://www.w3.org/1999/02/22-rdf-syntax-ns#">
   <cc:Work>
    <dc:type rdf:resource="http://purl.org/dc/dcmitype/StillImage"/>
    <dc:date>2024-04-21T14:20:05.200308</dc:date>
    <dc:format>image/svg+xml</dc:format>
    <dc:creator>
     <cc:Agent>
      <dc:title>Matplotlib v3.8.4, https://matplotlib.org/</dc:title>
     </cc:Agent>
    </dc:creator>
   </cc:Work>
  </rdf:RDF>
 </metadata>
 <defs>
  <style type="text/css">*{stroke-linejoin: round; stroke-linecap: butt}</style>
 </defs>
 <g id="figure_1">
  <g id="patch_1">
   <path d="M 0 288 
L 540 288 
L 540 0 
L 0 0 
z
" style="fill: #ffffff"/>
  </g>
  <g id="axes_1">
   <g id="line2d_1">
    <path d="M 178.314518 85.522074 
L 177.131502 84.701824 
L 176.127254 83.741274 
L 175.414321 82.548048 
L 174.881111 81.269507 
L 173.188057 75.208759 
L 171.872602 71.77874 
L 169.135557 66.489904 
L 167.146062 63.413077 
L 166.148182 61.856894 
L 165.228942 60.61626 
L 161.537945 55.984582 
L 158.261518 52.638896 
L 153.708554 49.094219 
L 151.94807 47.940828 
L 149.710542 46.657597 
L 147.87522 45.702109 
L 146.689892 45.042035 
L 145.809028 44.473592 
L 144.651591 43.759545 
L 140.878917 41.989378 
L 135.326714 40.301796 
L 131.926256 39.799447 
L 130.926262 39.551345 
L 129.778018 39.515828 
L 120.122582 39.27092 
L 116.63995 39.592052 
L 113.107398 40.431227 
L 109.039746 41.708842 
L 108.110911 42.023019 
L 105.318495 43.128034 
L 99.884495 45.7911 
L 97.484463 47.509823 
L 93.706582 50.720274 
L 92.815907 51.656808 
L 89.463353 55.697213 
L 86.70468 60.152947 
L 83.12605 67.450739 
L 82.294528 70.141354 
L 81.805229 71.537085 
L 80.784374 74.565339 
L 79.879941 80.447233 
L 79.780836 86.541675 
L 79.988538 89.585071 
L 80.08449 91.108375 
L 81.419982 96.427664 
L 83.178181 100.827614 
L 83.482861 101.716815 
L 83.765834 102.728805 
L 84.49143 104.321868 
L 85.391503 106.728216 
L 86.208924 108.39834 
L 87.704054 110.610726 
L 88.389123 111.475392 
L 89.256705 112.658116 
L 90.23865 113.936553 
L 92.877974 117.057879 
L 95.313298 119.341059 
L 101.755863 123.940872 
L 105.11676 125.946761 
L 106.195662 126.469352 
L 107.352442 126.975352 
L 109.012173 127.668792 
L 110.07645 128.094714 
L 111.070799 128.477433 
L 112.717799 129.061493 
L 114.566792 129.631016 
L 119.086018 130.477058 
L 122.336798 130.711341 
L 123.966638 130.690368 
L 125.201896 130.753285 
L 127.921514 130.697839 
L 133.578861 130.163572 
L 137.874425 129.065925 
L 139.419895 128.687185 
L 141.772048 127.897659 
L 143.040534 127.369226 
L 145.188502 126.334505 
L 147.212371 125.306903 
L 148.101185 124.828065 
L 150.152085 123.740999 
L 153.218489 122.04528 
L 155.117874 120.604009 
L 155.795181 120.095939 
L 158.266316 117.947394 
L 161.60427 114.624991 
L 162.582989 113.563546 
L 163.793951 112.254783 
L 164.908456 110.677758 
L 169.04695 104.652096 
L 171.442751 99.545006 
L 175.280441 90.272114 
L 176.046219 88.930951 
L 176.840385 87.718746 
L 178.018557 86.012806 
L 178.386131 85.345602 
L 178.386131 85.345602 
" clip-path="url(#p086c26ce08)" style="fill: none; stroke: #1f77b4; stroke-width: 1.5; stroke-linecap: square"/>
   </g>
   <g id="text_1">
    <!-- SRV-control -->
    <g transform="translate(71.778493 28.56) scale(0.2 -0.2)">
     <defs>
      <path id="DejaVuSans-53" d="M 3425 4513 
L 3425 3897 
Q 3066 4069 2747 4153 
Q 2428 4238 2131 4238 
Q 1616 4238 1336 4038 
Q 1056 3838 1056 3469 
Q 1056 3159 1242 3001 
Q 1428 2844 1947 2747 
L 2328 2669 
Q 3034 2534 3370 2195 
Q 3706 1856 3706 1288 
Q 3706 609 3251 259 
Q 2797 -91 1919 -91 
Q 1588 -91 1214 -16 
Q 841 59 441 206 
L 441 856 
Q 825 641 1194 531 
Q 1563 422 1919 422 
Q 2459 422 2753 634 
Q 3047 847 3047 1241 
Q 3047 1584 2836 1778 
Q 2625 1972 2144 2069 
L 1759 2144 
Q 1053 2284 737 2584 
Q 422 2884 422 3419 
Q 422 4038 858 4394 
Q 1294 4750 2059 4750 
Q 2388 4750 2728 4690 
Q 3069 4631 3425 4513 
z
" transform="scale(0.015625)"/>
      <path id="DejaVuSans-52" d="M 2841 2188 
Q 3044 2119 3236 1894 
Q 3428 1669 3622 1275 
L 4263 0 
L 3584 0 
L 2988 1197 
Q 2756 1666 2539 1819 
Q 2322 1972 1947 1972 
L 1259 1972 
L 1259 0 
L 628 0 
L 628 4666 
L 2053 4666 
Q 2853 4666 3247 4331 
Q 3641 3997 3641 3322 
Q 3641 2881 3436 2590 
Q 3231 2300 2841 2188 
z
M 1259 4147 
L 1259 2491 
L 2053 2491 
Q 2509 2491 2742 2702 
Q 2975 2913 2975 3322 
Q 2975 3731 2742 3939 
Q 2509 4147 2053 4147 
L 1259 4147 
z
" transform="scale(0.015625)"/>
      <path id="DejaVuSans-56" d="M 1831 0 
L 50 4666 
L 709 4666 
L 2188 738 
L 3669 4666 
L 4325 4666 
L 2547 0 
L 1831 0 
z
" transform="scale(0.015625)"/>
      <path id="DejaVuSans-2d" d="M 313 2009 
L 1997 2009 
L 1997 1497 
L 313 1497 
L 313 2009 
z
" transform="scale(0.015625)"/>
      <path id="DejaVuSans-63" d="M 3122 3366 
L 3122 2828 
Q 2878 2963 2633 3030 
Q 2388 3097 2138 3097 
Q 1578 3097 1268 2742 
Q 959 2388 959 1747 
Q 959 1106 1268 751 
Q 1578 397 2138 397 
Q 2388 397 2633 464 
Q 2878 531 3122 666 
L 3122 134 
Q 2881 22 2623 -34 
Q 2366 -91 2075 -91 
Q 1284 -91 818 406 
Q 353 903 353 1747 
Q 353 2603 823 3093 
Q 1294 3584 2113 3584 
Q 2378 3584 2631 3529 
Q 2884 3475 3122 3366 
z
" transform="scale(0.015625)"/>
      <path id="DejaVuSans-6f" d="M 1959 3097 
Q 1497 3097 1228 2736 
Q 959 2375 959 1747 
Q 959 1119 1226 758 
Q 1494 397 1959 397 
Q 2419 397 2687 759 
Q 2956 1122 2956 1747 
Q 2956 2369 2687 2733 
Q 2419 3097 1959 3097 
z
M 1959 3584 
Q 2709 3584 3137 3096 
Q 3566 2609 3566 1747 
Q 3566 888 3137 398 
Q 2709 -91 1959 -91 
Q 1206 -91 779 398 
Q 353 888 353 1747 
Q 353 2609 779 3096 
Q 1206 3584 1959 3584 
z
" transform="scale(0.015625)"/>
      <path id="DejaVuSans-6e" d="M 3513 2113 
L 3513 0 
L 2938 0 
L 2938 2094 
Q 2938 2591 2744 2837 
Q 2550 3084 2163 3084 
Q 1697 3084 1428 2787 
Q 1159 2491 1159 1978 
L 1159 0 
L 581 0 
L 581 3500 
L 1159 3500 
L 1159 2956 
Q 1366 3272 1645 3428 
Q 1925 3584 2291 3584 
Q 2894 3584 3203 3211 
Q 3513 2838 3513 2113 
z
" transform="scale(0.015625)"/>
      <path id="DejaVuSans-74" d="M 1172 4494 
L 1172 3500 
L 2356 3500 
L 2356 3053 
L 1172 3053 
L 1172 1153 
Q 1172 725 1289 603 
Q 1406 481 1766 481 
L 2356 481 
L 2356 0 
L 1766 0 
Q 1100 0 847 248 
Q 594 497 594 1153 
L 594 3053 
L 172 3053 
L 172 3500 
L 594 3500 
L 594 4494 
L 1172 4494 
z
" transform="scale(0.015625)"/>
      <path id="DejaVuSans-72" d="M 2631 2963 
Q 2534 3019 2420 3045 
Q 2306 3072 2169 3072 
Q 1681 3072 1420 2755 
Q 1159 2438 1159 1844 
L 1159 0 
L 581 0 
L 581 3500 
L 1159 3500 
L 1159 2956 
Q 1341 3275 1631 3429 
Q 1922 3584 2338 3584 
Q 2397 3584 2469 3576 
Q 2541 3569 2628 3553 
L 2631 2963 
z
" transform="scale(0.015625)"/>
      <path id="DejaVuSans-6c" d="M 603 4863 
L 1178 4863 
L 1178 0 
L 603 0 
L 603 4863 
z
" transform="scale(0.015625)"/>
     </defs>
     <use xlink:href="#DejaVuSans-53"/>
     <use xlink:href="#DejaVuSans-52" x="63.476562"/>
     <use xlink:href="#DejaVuSans-56" x="127.458984"/>
     <use xlink:href="#DejaVuSans-2d" x="189.992188"/>
     <use xlink:href="#DejaVuSans-63" x="226.076172"/>
     <use xlink:href="#DejaVuSans-6f" x="281.056641"/>
     <use xlink:href="#DejaVuSans-6e" x="342.238281"/>
     <use xlink:href="#DejaVuSans-74" x="405.617188"/>
     <use xlink:href="#DejaVuSans-72" x="444.826172"/>
     <use xlink:href="#DejaVuSans-6f" x="483.689453"/>
     <use xlink:href="#DejaVuSans-6c" x="544.871094"/>
    </g>
   </g>
  </g>
  <g id="axes_2">
   <g id="line2d_2">
    <path d="M 330.415334 89.369079 
L 327.052971 87.936255 
L 325.534057 87.416157 
L 322.479711 86.642707 
L 321.735818 86.222073 
L 320.53804 85.379817 
L 319.881541 84.74682 
L 318.538625 83.734504 
L 318.212736 83.31135 
L 317.840737 82.791686 
L 316.876508 81.979395 
L 316.526352 81.470141 
L 315.867414 80.02697 
L 315.269728 79.083844 
L 314.74854 77.962376 
L 313.341 75.297249 
L 312.945971 74.517955 
L 311.967971 71.988988 
L 311.549893 71.421501 
L 309.750148 69.544654 
L 308.95344 68.934958 
L 308.052305 67.627879 
L 307.745065 67.189152 
L 307.301516 66.549223 
L 306.973055 65.899407 
L 306.337916 65.016376 
L 304.46144 62.584022 
L 303.508764 61.292925 
L 302.869592 60.600452 
L 301.510281 59.100701 
L 300.819999 58.140247 
L 298.630259 55.879375 
L 297.550329 54.601262 
L 296.23462 53.12407 
L 295.024053 51.927732 
L 294.216095 51.295408 
L 292.932611 50.403756 
L 292.042584 50.109296 
L 290.982797 49.469913 
L 290.374655 49.167505 
L 288.251409 47.306818 
L 286.096648 46.369342 
L 284.87306 45.748878 
L 283.675733 45.31636 
L 281.77808 44.505444 
L 281.088396 44.073222 
L 279.605676 43.880508 
L 278.660848 43.692876 
L 276.5176 42.8114 
L 275.530877 42.267548 
L 272.446066 42.087268 
L 271.975376 42.049703 
L 271.104115 42.051885 
L 270.483584 42.024341 
L 269.367552 42.197957 
L 268.076602 42.09122 
L 267.163469 41.63817 
L 264.53934 41.588514 
L 261.110598 42.238251 
L 258.470712 43.21234 
L 258.000933 43.469475 
L 255.75967 44.207877 
L 252.806914 45.546383 
L 251.608842 46.151355 
L 250.586885 46.722559 
L 249.046244 47.476808 
L 248.729319 47.717047 
L 247.584878 48.17209 
L 246.523906 48.906304 
L 245.321305 49.556674 
L 244.150753 50.522584 
L 241.737315 51.141501 
L 238.884998 53.787172 
L 238.385401 54.115294 
L 237.969032 54.378938 
L 236.929063 55.146009 
L 234.911456 55.866454 
L 233.680613 57.004481 
L 232.675889 57.660879 
L 231.603973 58.462736 
L 230.950497 58.885837 
L 230.268967 59.904591 
L 229.128059 61.374748 
L 227.325817 64.314916 
L 226.844086 65.2293 
L 226.270772 65.894979 
L 225.946409 66.194395 
L 224.47189 68.682143 
L 223.708005 69.936167 
L 223.457506 70.478445 
L 223.092415 71.170992 
L 222.250254 72.469022 
L 220.841149 78.817595 
L 221.057876 80.191547 
L 221.233489 80.858066 
L 221.232711 82.385737 
L 221.049413 82.937462 
L 220.949896 83.328935 
L 220.873341 86.085901 
L 221.333569 89.695087 
L 221.279769 90.308509 
L 221.354258 91.424829 
L 221.541465 91.851899 
L 221.861597 92.740767 
L 222.156298 93.468047 
L 223.3155 96.035039 
L 224.194223 97.579694 
L 224.498161 98.230014 
L 225.042398 99.114338 
L 225.484526 100.080347 
L 225.816839 100.548509 
L 226.093173 100.993378 
L 226.523242 102.05185 
L 226.726429 102.96261 
L 226.91425 103.979095 
L 227.384966 105.0817 
L 228.582698 107.011435 
L 228.948395 107.62205 
L 229.446078 108.991516 
L 229.645291 109.388332 
L 230.821821 111.139094 
L 231.120913 111.625796 
L 231.587214 112.462642 
L 232.035979 113.065257 
L 232.97161 114.498567 
L 233.517493 115.047536 
L 235.587571 115.78352 
L 238.222464 117.66251 
L 238.767534 118.137538 
L 239.190864 118.457656 
L 239.801418 118.768926 
L 240.543433 119.130772 
L 243.77754 120.691754 
L 245.348685 121.428521 
L 245.967444 121.851699 
L 247.883936 122.725918 
L 249.607494 123.469203 
L 250.654193 124.213636 
L 252.42315 125.080973 
L 253.051876 125.415429 
L 254.05325 125.767203 
L 255.470342 126.594176 
L 256.033891 126.878675 
L 256.424419 127.002142 
L 257.129652 127.173418 
L 258.335781 127.601179 
L 259.496181 127.670903 
L 260.66171 128.049049 
L 261.512716 128.123568 
L 262.084557 128.125194 
L 262.579028 128.112694 
L 263.566869 128.308864 
L 264.186008 128.285133 
L 264.903145 128.289917 
L 266.15751 128.376363 
L 266.924406 128.381716 
L 267.52964 128.323142 
L 268.055928 128.364183 
L 268.971755 128.385759 
L 271.054191 128.062388 
L 273.004937 127.422014 
L 273.891981 127.168781 
L 275.507341 126.848716 
L 279.386392 125.946808 
L 280.707165 125.351331 
L 281.152064 125.182948 
L 282.669139 124.331216 
L 285.997534 121.692312 
L 287.191946 121.094166 
L 287.982576 120.688863 
L 289.437008 119.76395 
L 290.205802 118.940654 
L 290.715798 118.364484 
L 294.505064 115.617301 
L 296.883839 113.000724 
L 298.396237 110.722261 
L 299.214989 109.840922 
L 300.720944 108.391553 
L 301.294578 107.484259 
L 301.755718 106.787222 
L 307.033647 100.437221 
L 307.977591 98.761518 
L 308.681725 97.856493 
L 310.321478 96.102913 
L 311.156167 94.901846 
L 314.457803 91.084212 
L 315.146788 89.756269 
L 315.492514 89.274769 
L 315.830962 88.846436 
L 316.812316 87.125505 
L 317.12104 86.535189 
L 317.937463 85.736343 
L 319.306664 84.644516 
L 321.657935 82.635981 
L 322.33912 82.090354 
L 323.02869 81.587976 
L 330.527173 78.225383 
L 331.188591 77.990597 
L 331.790643 77.614222 
L 332.284404 77.032533 
L 332.699198 76.104783 
L 332.699198 76.104783 
" clip-path="url(#pf28bd8eb13)" style="fill: none; stroke: #ff7f0e; stroke-width: 1.5; stroke-linecap: square"/>
   </g>
   <g id="text_2">
    <!-- SRV-cytd -->
    <g transform="translate(232.45625 28.56) scale(0.2 -0.2)">
     <defs>
      <path id="DejaVuSans-79" d="M 2059 -325 
Q 1816 -950 1584 -1140 
Q 1353 -1331 966 -1331 
L 506 -1331 
L 506 -850 
L 844 -850 
Q 1081 -850 1212 -737 
Q 1344 -625 1503 -206 
L 1606 56 
L 191 3500 
L 800 3500 
L 1894 763 
L 2988 3500 
L 3597 3500 
L 2059 -325 
z
" transform="scale(0.015625)"/>
      <path id="DejaVuSans-64" d="M 2906 2969 
L 2906 4863 
L 3481 4863 
L 3481 0 
L 2906 0 
L 2906 525 
Q 2725 213 2448 61 
Q 2172 -91 1784 -91 
Q 1150 -91 751 415 
Q 353 922 353 1747 
Q 353 2572 751 3078 
Q 1150 3584 1784 3584 
Q 2172 3584 2448 3432 
Q 2725 3281 2906 2969 
z
M 947 1747 
Q 947 1113 1208 752 
Q 1469 391 1925 391 
Q 2381 391 2643 752 
Q 2906 1113 2906 1747 
Q 2906 2381 2643 2742 
Q 2381 3103 1925 3103 
Q 1469 3103 1208 2742 
Q 947 2381 947 1747 
z
" transform="scale(0.015625)"/>
     </defs>
     <use xlink:href="#DejaVuSans-53"/>
     <use xlink:href="#DejaVuSans-52" x="63.476562"/>
     <use xlink:href="#DejaVuSans-56" x="127.458984"/>
     <use xlink:href="#DejaVuSans-2d" x="189.992188"/>
     <use xlink:href="#DejaVuSans-63" x="226.076172"/>
     <use xlink:href="#DejaVuSans-79" x="281.056641"/>
     <use xlink:href="#DejaVuSans-74" x="340.236328"/>
     <use xlink:href="#DejaVuSans-64" x="379.445312"/>
    </g>
   </g>
  </g>
  <g id="axes_3">
   <g id="line2d_3">
    <path d="M 478.420609 88.688508 
L 477.022361 88.297009 
L 475.320212 87.765226 
L 474.018771 87.068175 
L 471.667752 85.183354 
L 470.623428 83.582522 
L 470.133906 82.624892 
L 469.259992 81.447922 
L 468.895952 80.910217 
L 468.60112 80.350568 
L 467.803163 79.186499 
L 467.185297 78.126627 
L 466.418756 76.862996 
L 465.613408 75.488308 
L 465.100034 74.660014 
L 464.701575 73.902207 
L 464.289661 73.088729 
L 461.585402 68.535907 
L 460.964954 67.63113 
L 460.386197 66.782321 
L 459.551618 65.788671 
L 455.649872 59.306894 
L 454.773561 57.920086 
L 453.177104 56.24985 
L 451.066195 54.251869 
L 449.991998 53.135008 
L 447.706176 50.861478 
L 447.073046 50.234095 
L 445.661685 49.15195 
L 444.73022 48.617966 
L 441.511664 46.572382 
L 439.422851 45.426943 
L 438.600784 45.006269 
L 437.883682 44.607318 
L 436.848922 44.314326 
L 435.933112 43.973815 
L 434.512968 43.371095 
L 433.063892 42.76041 
L 432.4625 42.52647 
L 431.60391 42.388244 
L 429.83183 41.837765 
L 428.446369 41.384229 
L 427.028135 40.817569 
L 426.037217 40.635361 
L 424.72134 40.415905 
L 423.980415 40.22484 
L 421.515343 39.662682 
L 420.499843 39.543604 
L 419.362368 39.564938 
L 411.657385 39.283456 
L 409.480547 39.768824 
L 407.923102 40.30272 
L 406.093879 40.804017 
L 405.239741 41.065386 
L 399.558512 42.909709 
L 398.589537 43.349705 
L 397.613964 43.802718 
L 394.919618 45.10463 
L 393.685533 45.555352 
L 392.217747 46.240284 
L 388.563883 48.469673 
L 383.70648 52.77947 
L 382.272188 53.991736 
L 381.400473 55.056978 
L 380.897899 55.694576 
L 380.195563 56.586045 
L 379.341494 57.467269 
L 377.896754 58.799294 
L 377.410605 59.532176 
L 376.185419 61.185001 
L 374.047265 64.256945 
L 373.450818 65.28709 
L 371.859131 68.357396 
L 371.254731 69.420195 
L 370.886481 70.894218 
L 370.404085 72.3827 
L 370.169362 73.243991 
L 369.669731 74.581638 
L 369.334518 76.714011 
L 369.205149 77.403947 
L 369.062748 79.665522 
L 369.035972 80.468329 
L 369.043727 81.402951 
L 368.829899 82.757756 
L 368.503044 84.171946 
L 368.313766 85.835369 
L 368.092328 87.077502 
L 368.097659 87.841683 
L 368.18901 89.238138 
L 368.084852 90.164378 
L 367.985368 90.725205 
L 368.939053 95.845044 
L 369.098071 96.624803 
L 369.202562 97.253315 
L 369.588054 98.815692 
L 370.493868 102.057342 
L 370.860571 103.827347 
L 371.67527 106.150334 
L 372.115528 107.256877 
L 373.558382 109.643596 
L 374.344957 110.576753 
L 375.005203 111.423518 
L 377.097533 114.161539 
L 377.932004 115.002329 
L 378.801135 115.834958 
L 379.854421 116.492115 
L 382.181791 118.64833 
L 383.498847 119.721542 
L 385.427762 121.157742 
L 386.261967 121.753651 
L 387.188303 122.723245 
L 387.946294 123.490093 
L 390.288552 125.308963 
L 393.266952 127.895781 
L 394.229435 128.366124 
L 396.582969 129.251576 
L 397.804213 129.575091 
L 398.469363 129.753257 
L 400.070761 129.831802 
L 405.89281 130.055456 
L 407.108142 130.134022 
L 407.976027 130.305521 
L 409.802764 130.488299 
L 410.543052 130.549165 
L 412.737547 130.579817 
L 414.11905 130.645289 
L 415.92723 130.485755 
L 417.290613 130.461864 
L 418.607987 130.38141 
L 419.738531 130.524738 
L 420.83058 130.760194 
L 422.810535 130.766927 
L 423.442916 130.723411 
L 425.690565 130.40322 
L 426.738469 130.069403 
L 430.401122 128.838166 
L 431.474865 128.380981 
L 433.186059 127.931064 
L 437.17252 126.25949 
L 439.006289 125.645728 
L 442.408134 123.568291 
L 445.196274 121.479238 
L 449.025716 118.013686 
L 449.881914 117.495429 
L 452.462587 115.122913 
L 453.836688 113.475198 
L 456.940278 110.236195 
L 458.013474 108.76465 
L 458.610793 108.024257 
L 459.325275 106.971156 
L 460.476888 105.829757 
L 461.336227 104.669392 
L 461.896407 103.866075 
L 462.569957 103.121766 
L 463.733262 101.209369 
L 464.238308 100.432557 
L 464.656613 99.714881 
L 466.994084 95.522182 
L 468.173934 93.539974 
L 468.596231 92.616289 
L 469.851656 90.31923 
L 470.345677 89.366013 
L 471.422898 87.993041 
L 472.692101 86.871045 
L 477.494892 83.580549 
L 480.401927 81.789403 
L 480.93494 80.894351 
L 480.93494 80.894351 
" clip-path="url(#paddf32d658)" style="fill: none; stroke: #2ca02c; stroke-width: 1.5; stroke-linecap: square"/>
   </g>
   <g id="text_3">
    <!-- SRV-jasp -->
    <g transform="translate(381.384007 28.56) scale(0.2 -0.2)">
     <defs>
      <path id="DejaVuSans-6a" d="M 603 3500 
L 1178 3500 
L 1178 -63 
Q 1178 -731 923 -1031 
Q 669 -1331 103 -1331 
L -116 -1331 
L -116 -844 
L 38 -844 
Q 366 -844 484 -692 
Q 603 -541 603 -63 
L 603 3500 
z
M 603 4863 
L 1178 4863 
L 1178 4134 
L 603 4134 
L 603 4863 
z
" transform="scale(0.015625)"/>
      <path id="DejaVuSans-61" d="M 2194 1759 
Q 1497 1759 1228 1600 
Q 959 1441 959 1056 
Q 959 750 1161 570 
Q 1363 391 1709 391 
Q 2188 391 2477 730 
Q 2766 1069 2766 1631 
L 2766 1759 
L 2194 1759 
z
M 3341 1997 
L 3341 0 
L 2766 0 
L 2766 531 
Q 2569 213 2275 61 
Q 1981 -91 1556 -91 
Q 1019 -91 701 211 
Q 384 513 384 1019 
Q 384 1609 779 1909 
Q 1175 2209 1959 2209 
L 2766 2209 
L 2766 2266 
Q 2766 2663 2505 2880 
Q 2244 3097 1772 3097 
Q 1472 3097 1187 3025 
Q 903 2953 641 2809 
L 641 3341 
Q 956 3463 1253 3523 
Q 1550 3584 1831 3584 
Q 2591 3584 2966 3190 
Q 3341 2797 3341 1997 
z
" transform="scale(0.015625)"/>
      <path id="DejaVuSans-73" d="M 2834 3397 
L 2834 2853 
Q 2591 2978 2328 3040 
Q 2066 3103 1784 3103 
Q 1356 3103 1142 2972 
Q 928 2841 928 2578 
Q 928 2378 1081 2264 
Q 1234 2150 1697 2047 
L 1894 2003 
Q 2506 1872 2764 1633 
Q 3022 1394 3022 966 
Q 3022 478 2636 193 
Q 2250 -91 1575 -91 
Q 1294 -91 989 -36 
Q 684 19 347 128 
L 347 722 
Q 666 556 975 473 
Q 1284 391 1588 391 
Q 1994 391 2212 530 
Q 2431 669 2431 922 
Q 2431 1156 2273 1281 
Q 2116 1406 1581 1522 
L 1381 1569 
Q 847 1681 609 1914 
Q 372 2147 372 2553 
Q 372 3047 722 3315 
Q 1072 3584 1716 3584 
Q 2034 3584 2315 3537 
Q 2597 3491 2834 3397 
z
" transform="scale(0.015625)"/>
      <path id="DejaVuSans-70" d="M 1159 525 
L 1159 -1331 
L 581 -1331 
L 581 3500 
L 1159 3500 
L 1159 2969 
Q 1341 3281 1617 3432 
Q 1894 3584 2278 3584 
Q 2916 3584 3314 3078 
Q 3713 2572 3713 1747 
Q 3713 922 3314 415 
Q 2916 -91 2278 -91 
Q 1894 -91 1617 61 
Q 1341 213 1159 525 
z
M 3116 1747 
Q 3116 2381 2855 2742 
Q 2594 3103 2138 3103 
Q 1681 3103 1420 2742 
Q 1159 2381 1159 1747 
Q 1159 1113 1420 752 
Q 1681 391 2138 391 
Q 2594 391 2855 752 
Q 3116 1113 3116 1747 
z
" transform="scale(0.015625)"/>
     </defs>
     <use xlink:href="#DejaVuSans-53"/>
     <use xlink:href="#DejaVuSans-52" x="63.476562"/>
     <use xlink:href="#DejaVuSans-56" x="127.458984"/>
     <use xlink:href="#DejaVuSans-2d" x="189.992188"/>
     <use xlink:href="#DejaVuSans-6a" x="226.076172"/>
     <use xlink:href="#DejaVuSans-61" x="253.859375"/>
     <use xlink:href="#DejaVuSans-73" x="315.138672"/>
     <use xlink:href="#DejaVuSans-70" x="367.238281"/>
    </g>
   </g>
  </g>
  <g id="axes_4">
   <g id="line2d_4">
    <path d="M 179.552941 205.540917 
L 178.480879 204.696924 
L 176.948967 202.698298 
L 176.58301 201.313194 
L 176.216103 199.877394 
L 175.542098 198.670251 
L 174.471627 197.118712 
L 173.825332 195.789628 
L 173.076817 194.14151 
L 171.590234 191.48588 
L 170.249945 188.80439 
L 169.447411 187.536895 
L 166.123351 182.871695 
L 160.967158 177.150785 
L 158.586424 174.963214 
L 155.06437 171.893164 
L 153.998724 170.993258 
L 152.342319 169.791036 
L 148.195716 167.093185 
L 145.688122 165.713897 
L 144.023056 165.103121 
L 141.17164 164.014716 
L 139.777288 163.434035 
L 137.54818 162.703247 
L 136.077136 162.281111 
L 134.553339 161.850099 
L 132.323205 161.368114 
L 125.851515 160.448919 
L 123.259372 160.209239 
L 118.777746 160.160337 
L 113.464826 160.66409 
L 111.682059 161.179726 
L 107.734158 162.759052 
L 105.854918 163.449479 
L 104.003052 164.381763 
L 102.690759 165.085928 
L 100.653472 166.077785 
L 97.685273 168.220706 
L 96.103221 169.39202 
L 91.827481 172.993484 
L 90.402684 174.40488 
L 86.035243 180.169293 
L 84.651463 182.413511 
L 82.802778 185.883914 
L 81.442725 188.493044 
L 79.643307 194.013103 
L 79.195617 195.968397 
L 78.714441 198.214273 
L 78.671849 202.410963 
L 78.480719 205.86464 
L 78.630294 208.412079 
L 79.280538 214.704041 
L 81.692112 222.400434 
L 83.426138 225.997445 
L 84.050291 227.129851 
L 85.971069 229.92143 
L 87.864743 232.585678 
L 90.074337 235.57423 
L 91.601263 237.340974 
L 92.967695 238.783555 
L 94.111191 239.900046 
L 95.986529 241.668447 
L 100.474407 245.280962 
L 102.69401 246.641228 
L 111.453724 250.03799 
L 113.146076 250.506439 
L 114.18201 250.80106 
L 119.309182 251.713372 
L 120.645937 251.723374 
L 124.616456 251.544343 
L 126.647917 251.475823 
L 127.715163 251.384414 
L 131.606597 250.914834 
L 133.707035 250.680912 
L 134.711774 250.404 
L 136.139303 250.074837 
L 138.911098 249.327143 
L 140.680961 248.608365 
L 148.309829 245.282777 
L 151.773805 243.461137 
L 153.903256 241.997971 
L 157.226564 239.228131 
L 164.530526 232.151727 
L 167.103801 228.929212 
L 171.901406 220.910271 
L 174.078226 217.045835 
L 176.699908 211.719704 
L 178.104474 209.459935 
L 179.336571 206.610765 
L 179.607611 205.882927 
L 179.607611 205.882927 
" clip-path="url(#p1890c0b4d3)" style="fill: none; stroke: #1f77b4; stroke-width: 1.5; stroke-linecap: square"/>
   </g>
   <g id="text_4">
    <!-- Linear-control -->
    <g transform="translate(60.336305 149.52) scale(0.2 -0.2)">
     <defs>
      <path id="DejaVuSans-4c" d="M 628 4666 
L 1259 4666 
L 1259 531 
L 3531 531 
L 3531 0 
L 628 0 
L 628 4666 
z
" transform="scale(0.015625)"/>
      <path id="DejaVuSans-69" d="M 603 3500 
L 1178 3500 
L 1178 0 
L 603 0 
L 603 3500 
z
M 603 4863 
L 1178 4863 
L 1178 4134 
L 603 4134 
L 603 4863 
z
" transform="scale(0.015625)"/>
      <path id="DejaVuSans-65" d="M 3597 1894 
L 3597 1613 
L 953 1613 
Q 991 1019 1311 708 
Q 1631 397 2203 397 
Q 2534 397 2845 478 
Q 3156 559 3463 722 
L 3463 178 
Q 3153 47 2828 -22 
Q 2503 -91 2169 -91 
Q 1331 -91 842 396 
Q 353 884 353 1716 
Q 353 2575 817 3079 
Q 1281 3584 2069 3584 
Q 2775 3584 3186 3129 
Q 3597 2675 3597 1894 
z
M 3022 2063 
Q 3016 2534 2758 2815 
Q 2500 3097 2075 3097 
Q 1594 3097 1305 2825 
Q 1016 2553 972 2059 
L 3022 2063 
z
" transform="scale(0.015625)"/>
     </defs>
     <use xlink:href="#DejaVuSans-4c"/>
     <use xlink:href="#DejaVuSans-69" x="55.712891"/>
     <use xlink:href="#DejaVuSans-6e" x="83.496094"/>
     <use xlink:href="#DejaVuSans-65" x="146.875"/>
     <use xlink:href="#DejaVuSans-61" x="208.398438"/>
     <use xlink:href="#DejaVuSans-72" x="269.677734"/>
     <use xlink:href="#DejaVuSans-2d" x="304.416016"/>
     <use xlink:href="#DejaVuSans-63" x="340.5"/>
     <use xlink:href="#DejaVuSans-6f" x="395.480469"/>
     <use xlink:href="#DejaVuSans-6e" x="456.662109"/>
     <use xlink:href="#DejaVuSans-74" x="520.041016"/>
     <use xlink:href="#DejaVuSans-72" x="559.25"/>
     <use xlink:href="#DejaVuSans-6f" x="598.113281"/>
     <use xlink:href="#DejaVuSans-6c" x="659.294922"/>
    </g>
   </g>
  </g>
  <g id="axes_5">
   <g id="line2d_5">
    <path d="M 332.90281 202.815864 
L 330.655464 201.797974 
L 329.409631 201.485504 
L 328.199726 201.149083 
L 326.792815 200.692465 
L 325.638331 200.252711 
L 324.230724 199.496667 
L 321.743637 197.876043 
L 320.874907 197.613544 
L 320.017147 197.315749 
L 317.966433 196.028078 
L 315.616979 193.964076 
L 315.260839 193.620734 
L 314.35238 193.146777 
L 312.667843 191.729466 
L 310.555882 190.436594 
L 309.961632 189.943617 
L 309.148897 189.484859 
L 307.970539 188.612344 
L 307.644101 188.51401 
L 307.135304 187.973069 
L 306.217501 187.321909 
L 305.458594 186.735934 
L 304.07004 185.408829 
L 303.318777 184.296802 
L 302.538194 183.585878 
L 300.934915 182.260045 
L 300.459022 181.573956 
L 299.636774 180.527243 
L 299.249201 179.841689 
L 298.184878 178.782732 
L 297.344557 178.210381 
L 296.785647 177.608531 
L 295.562359 176.032806 
L 294.76643 174.767496 
L 293.377901 173.206214 
L 292.373054 172.522627 
L 291.490078 172.129561 
L 289.952757 171.157423 
L 288.097107 169.357021 
L 287.72242 169.163103 
L 287.395477 168.883599 
L 286.8663 168.579668 
L 285.39275 167.42875 
L 284.806144 167.154282 
L 284.282412 166.845272 
L 283.675224 166.327976 
L 283.347296 165.912461 
L 281.527092 162.879341 
L 280.289865 162.144428 
L 279.296275 161.436704 
L 278.730191 161.266133 
L 277.398941 161.228045 
L 276.764134 161.183428 
L 276.312357 161.251597 
L 275.872355 161.334725 
L 275.246379 161.274641 
L 273.921849 161.212859 
L 273.230948 161.240713 
L 272.466209 161.209081 
L 271.633027 160.903843 
L 270.9713 160.740612 
L 270.108745 160.422198 
L 269.573132 160.252321 
L 268.421796 160.190779 
L 267.52959 160.441182 
L 266.754288 160.811769 
L 265.087932 161.656516 
L 264.172027 162.278002 
L 263.531365 162.309181 
L 262.449689 162.617564 
L 261.872709 162.862145 
L 261.237215 163.13617 
L 260.370986 163.221806 
L 259.841361 163.265261 
L 258.953413 163.428962 
L 258.116954 163.583824 
L 255.251991 163.880011 
L 254.794018 164.119806 
L 254.395115 164.356351 
L 253.959033 164.700076 
L 252.668067 165.125863 
L 251.262466 165.493155 
L 250.281255 165.952415 
L 249.812018 166.063097 
L 249.425417 166.184229 
L 248.582333 166.413268 
L 244.264765 167.800381 
L 243.536327 168.246306 
L 242.706283 168.780117 
L 241.142091 169.821523 
L 240.410174 170.907589 
L 239.540417 171.733812 
L 239.105402 172.084658 
L 238.696466 172.725247 
L 237.826486 174.181953 
L 237.118046 174.66613 
L 236.727731 175.030348 
L 236.25318 175.407483 
L 235.522003 176.396753 
L 235.065373 177.092104 
L 234.760556 177.465374 
L 234.575179 177.882369 
L 234.133047 178.351395 
L 233.508733 179.206467 
L 233.270396 179.590282 
L 232.997758 179.938177 
L 232.760956 180.331807 
L 232.442039 180.678728 
L 232.348335 180.987702 
L 230.642214 183.610055 
L 230.49245 184.607683 
L 230.320688 185.202057 
L 229.628041 186.667191 
L 229.438387 187.165437 
L 228.718973 188.029004 
L 228.315339 188.381562 
L 226.812728 190.821816 
L 226.040649 191.625895 
L 225.798905 192.109434 
L 223.812465 195.059674 
L 223.558707 195.692046 
L 222.392899 200.229596 
L 221.687141 202.420966 
L 221.496017 203.14471 
L 221.238645 203.649311 
L 221.070812 204.576155 
L 220.753693 206.732106 
L 220.44884 208.814226 
L 220.447512 209.231888 
L 220.462725 209.558914 
L 220.570736 210.327515 
L 220.783038 211.340337 
L 220.87452 211.850458 
L 221.011114 213.054412 
L 221.826995 214.621986 
L 222.930104 216.37565 
L 223.703694 218.435912 
L 223.94171 218.935722 
L 224.241294 219.797931 
L 224.567787 220.369658 
L 224.856527 221.010689 
L 225.804526 222.575496 
L 226.213826 223.937329 
L 226.080783 225.092395 
L 226.219156 225.284253 
L 226.811344 225.732718 
L 227.046455 226.097286 
L 227.352462 226.487692 
L 227.724352 227.916721 
L 228.724942 228.552597 
L 229.229562 228.822305 
L 230.563311 229.466911 
L 231.387691 230.301486 
L 232.137543 231.057992 
L 233.084788 231.879219 
L 233.635733 232.338028 
L 234.350008 233.143628 
L 234.795265 233.456518 
L 235.302881 233.994941 
L 235.519841 234.538558 
L 237.466369 236.810245 
L 237.832942 237.277263 
L 238.254235 237.757471 
L 239.295848 238.586018 
L 241.027317 240.000303 
L 241.515651 240.499605 
L 242.128736 240.834424 
L 243.31139 241.783889 
L 244.245704 242.452853 
L 244.923869 242.823738 
L 245.84062 243.453696 
L 247.272607 244.390678 
L 249.131435 246.031743 
L 250.6386 246.42428 
L 252.989656 247.586007 
L 255.860762 248.121006 
L 257.820327 249.089992 
L 259.387076 249.502741 
L 260.416809 250.07083 
L 260.907932 250.150917 
L 262.441527 250.508285 
L 263.760239 250.730886 
L 264.634775 251.009177 
L 265.418131 251.140899 
L 266.090849 251.282507 
L 266.840925 251.525867 
L 267.600148 251.732448 
L 267.932058 251.687969 
L 268.593028 251.38079 
L 269.275819 251.399537 
L 269.601829 251.540245 
L 270.486238 251.552209 
L 272.576265 251.206904 
L 274.438536 250.462746 
L 274.856767 250.461009 
L 276.924897 250.515287 
L 277.91803 250.327135 
L 278.307391 250.279496 
L 282.692533 248.700723 
L 284.172207 247.427943 
L 284.991853 246.695204 
L 285.286479 246.330285 
L 286.123363 245.583769 
L 287.030072 244.968985 
L 288.031357 244.25065 
L 288.779024 243.839247 
L 289.210189 243.533328 
L 289.59103 243.035849 
L 290.550995 242.296942 
L 291.503547 241.500425 
L 293.595847 239.222483 
L 294.797672 238.267508 
L 296.679413 235.852972 
L 297.745163 234.060605 
L 298.491634 232.794555 
L 298.808001 232.381689 
L 299.414782 231.839934 
L 299.993938 231.101039 
L 300.52757 230.543273 
L 300.872817 230.070512 
L 301.915685 228.654688 
L 302.462073 227.968632 
L 302.771326 226.915652 
L 303.004441 226.039695 
L 303.200329 225.588825 
L 303.765292 224.98251 
L 305.015383 223.888666 
L 305.648893 223.185144 
L 306.632664 221.647218 
L 310.683278 217.870558 
L 311.336686 217.060681 
L 312.946063 215.759265 
L 314.272152 214.829572 
L 315.192403 214.097499 
L 316.099276 213.362097 
L 317.532625 211.936387 
L 319.812338 210.863071 
L 320.701386 210.591515 
L 322.736443 209.600286 
L 324.872047 208.522587 
L 326.478684 207.937642 
L 328.6697 207.206767 
L 329.552591 206.897284 
L 331.175803 205.841896 
L 332.059221 205.041758 
L 332.680343 204.309129 
L 332.975584 203.668943 
L 333.081411 203.314808 
L 333.081411 203.314808 
" clip-path="url(#p925aed9abe)" style="fill: none; stroke: #ff7f0e; stroke-width: 1.5; stroke-linecap: square"/>
   </g>
   <g id="text_5">
    <!-- Linear-cytd -->
    <g transform="translate(221.014062 149.52) scale(0.2 -0.2)">
     <use xlink:href="#DejaVuSans-4c"/>
     <use xlink:href="#DejaVuSans-69" x="55.712891"/>
     <use xlink:href="#DejaVuSans-6e" x="83.496094"/>
     <use xlink:href="#DejaVuSans-65" x="146.875"/>
     <use xlink:href="#DejaVuSans-61" x="208.398438"/>
     <use xlink:href="#DejaVuSans-72" x="269.677734"/>
     <use xlink:href="#DejaVuSans-2d" x="304.416016"/>
     <use xlink:href="#DejaVuSans-63" x="340.5"/>
     <use xlink:href="#DejaVuSans-79" x="395.480469"/>
     <use xlink:href="#DejaVuSans-74" x="454.660156"/>
     <use xlink:href="#DejaVuSans-64" x="493.869141"/>
    </g>
   </g>
  </g>
  <g id="axes_6">
   <g id="line2d_6">
    <path d="M 480.319048 204.931135 
L 478.167137 203.932387 
L 476.857658 203.166308 
L 473.021024 200.943298 
L 471.323834 199.365352 
L 469.869902 197.740637 
L 468.698318 196.558328 
L 467.491832 195.244728 
L 466.303372 193.125154 
L 465.045652 190.556534 
L 464.187355 189.745586 
L 462.297649 188.232011 
L 461.720533 187.753187 
L 460.155175 186.494199 
L 458.756631 184.863667 
L 458.271416 184.402441 
L 456.42853 182.076922 
L 454.70413 180.351207 
L 451.611956 176.427232 
L 448.465435 173.752004 
L 446.82007 171.963295 
L 446.17502 171.506482 
L 444.135713 169.986762 
L 442.509711 168.422683 
L 441.530598 167.816022 
L 439.786158 166.851237 
L 438.903862 166.257117 
L 437.802638 165.605888 
L 436.799623 164.905987 
L 436.000342 164.363703 
L 433.540128 162.807185 
L 432.429062 162.075042 
L 431.306081 161.457245 
L 429.97949 160.586162 
L 429.465389 160.270832 
L 428.554072 159.867382 
L 427.033835 159.608155 
L 423.151631 159.895394 
L 422.280938 159.921608 
L 419.75107 159.681112 
L 418.944143 159.787087 
L 418.043452 160.032261 
L 413.894317 160.390164 
L 412.779134 160.330624 
L 407.884573 160.446332 
L 405.865293 161.141846 
L 398.627533 163.902077 
L 397.189459 165.002857 
L 396.132959 165.597818 
L 395.175268 165.996263 
L 394.239353 166.553353 
L 392.691383 167.60226 
L 390.857352 168.420591 
L 390.257898 168.713304 
L 389.322117 169.519552 
L 388.734997 169.995579 
L 387.948646 170.312853 
L 386.510363 170.783002 
L 383.692068 172.221825 
L 378.720675 176.678143 
L 378.386212 177.283096 
L 378.089158 178.036657 
L 377.669779 179.539144 
L 377.088324 181.166526 
L 375.572907 183.396895 
L 374.99108 184.631071 
L 374.604769 185.254878 
L 373.822582 186.345629 
L 372.740046 188.058664 
L 372.014348 188.815196 
L 371.748487 189.253958 
L 370.715902 192.763372 
L 370.60496 195.622215 
L 370.155868 197.80436 
L 369.600813 199.511671 
L 369.191046 203.388555 
L 368.506684 207.172432 
L 368.680177 208.367224 
L 368.766354 209.428492 
L 368.773602 211.67649 
L 369.050085 213.732502 
L 370.092269 220.380997 
L 370.58716 221.528214 
L 371.953909 223.898166 
L 372.286245 224.830686 
L 373.112544 226.723177 
L 373.546087 227.890981 
L 373.845877 228.64454 
L 374.187988 229.616751 
L 374.484031 230.188732 
L 375.03398 231.162985 
L 375.492942 231.877663 
L 376.861428 233.267058 
L 377.934934 234.460258 
L 378.974075 235.478541 
L 379.759398 236.423038 
L 381.219283 238.497174 
L 381.93118 239.351249 
L 382.299949 239.894985 
L 385.612157 242.1247 
L 386.735085 242.983199 
L 387.976639 243.9826 
L 388.510144 244.493483 
L 389.750227 245.43473 
L 390.573718 246.010408 
L 391.539889 246.588258 
L 392.109996 246.926819 
L 392.980799 247.560297 
L 394.253938 248.163091 
L 398.999049 249.541936 
L 399.863553 249.983175 
L 401.804493 251.084524 
L 402.801256 251.58993 
L 403.750529 251.72552 
L 405.164679 251.686484 
L 411.454168 251.77245 
L 413.417253 251.543659 
L 414.320639 251.561637 
L 417.195872 252.083515 
L 417.861691 252.231845 
L 419.657884 252.056156 
L 423.485075 250.880524 
L 424.964388 250.906058 
L 426.901928 250.253611 
L 427.573505 250.040306 
L 430.00832 249.750386 
L 431.676662 249.351331 
L 433.761477 249.043519 
L 438.819905 246.951486 
L 440.138925 246.1682 
L 441.058574 245.410425 
L 442.391259 244.600187 
L 443.432259 244.138976 
L 445.782119 242.633359 
L 446.457221 242.011549 
L 447.242159 241.358392 
L 448.316837 240.23518 
L 449.026861 239.41498 
L 449.5535 238.704698 
L 450.193812 238.146186 
L 450.810564 237.498945 
L 451.5293 236.445802 
L 452.926091 234.850981 
L 455.070057 233.214869 
L 455.631227 232.743958 
L 458.522808 229.782079 
L 460.52557 227.346718 
L 461.880351 224.978908 
L 467.22121 217.634756 
L 471.682775 213.045917 
L 472.447038 212.444958 
L 475.632581 209.249965 
L 477.134206 208.131506 
L 479.168087 206.943437 
L 479.675835 206.449141 
L 480.40508 205.223204 
L 480.40508 205.223204 
" clip-path="url(#p2961b084d6)" style="fill: none; stroke: #2ca02c; stroke-width: 1.5; stroke-linecap: square"/>
   </g>
   <g id="text_6">
    <!-- Linear-jasp -->
    <g transform="translate(369.94182 149.52) scale(0.2 -0.2)">
     <use xlink:href="#DejaVuSans-4c"/>
     <use xlink:href="#DejaVuSans-69" x="55.712891"/>
     <use xlink:href="#DejaVuSans-6e" x="83.496094"/>
     <use xlink:href="#DejaVuSans-65" x="146.875"/>
     <use xlink:href="#DejaVuSans-61" x="208.398438"/>
     <use xlink:href="#DejaVuSans-72" x="269.677734"/>
     <use xlink:href="#DejaVuSans-2d" x="304.416016"/>
     <use xlink:href="#DejaVuSans-6a" x="340.5"/>
     <use xlink:href="#DejaVuSans-61" x="368.283203"/>
     <use xlink:href="#DejaVuSans-73" x="429.5625"/>
     <use xlink:href="#DejaVuSans-70" x="481.662109"/>
    </g>
   </g>
  </g>
 </g>
 <defs>
  <clipPath id="p086c26ce08">
   <rect x="67.5" y="34.56" width="123.088235" height="100.8"/>
  </clipPath>
  <clipPath id="pf28bd8eb13">
   <rect x="215.205882" y="34.56" width="123.088235" height="100.8"/>
  </clipPath>
  <clipPath id="paddf32d658">
   <rect x="362.911765" y="34.56" width="123.088235" height="100.8"/>
  </clipPath>
  <clipPath id="p1890c0b4d3">
   <rect x="67.5" y="155.52" width="123.088235" height="100.8"/>
  </clipPath>
  <clipPath id="p925aed9abe">
   <rect x="215.205882" y="155.52" width="123.088235" height="100.8"/>
  </clipPath>
  <clipPath id="p2961b084d6">
   <rect x="362.911765" y="155.52" width="123.088235" height="100.8"/>
  </clipPath>
 </defs>
</svg>
