<?xml version="1.0" encoding="utf-8" standalone="no"?>
<!DOCTYPE svg PUBLIC "-//W3C//DTD SVG 1.1//EN"
  "http://www.w3.org/Graphics/SVG/1.1/DTD/svg11.dtd">
<svg xmlns:xlink="http://www.w3.org/1999/xlink" width="576pt" height="288pt" viewBox="0 0 576 288" xmlns="http://www.w3.org/2000/svg" version="1.1">
 <metadata>
  <rdf:RDF xmlns:dc="http://purl.org/dc/elements/1.1/" xmlns:cc="http://creativecommons.org/ns#" xmlns:rdf="http://www.w3.org/1999/02/22-rdf-syntax-ns#">
   <cc:Work>
    <dc:type rdf:resource="http://purl.org/dc/dcmitype/StillImage"/>
    <dc:date>2024-04-04T11:09:10.426125</dc:date>
    <dc:format>image/svg+xml</dc:format>
    <dc:creator>
     <cc:Agent>
      <dc:title>Matplotlib v3.8.3, https://matplotlib.org/</dc:title>
     </cc:Agent>
    </dc:creator>
   </cc:Work>
  </rdf:RDF>
 </metadata>
 <defs>
  <style type="text/css">*{stroke-linejoin: round; stroke-linecap: butt}</style>
 </defs>
 <g id="figure_1">
  <g id="patch_1">
   <path d="M 0 288 
L 576 288 
L 576 0 
L 0 0 
z
" style="fill: #ffffff"/>
  </g>
  <g id="axes_1">
   <g id="patch_2">
    <path d="M 41.711875 260.521875 
L 284.529831 260.521875 
L 284.529831 27.437812 
L 41.711875 27.437812 
z
" style="fill: #ffffff"/>
   </g>
   <g id="patch_3">
    <path d="M 42.126464 260.521875 
L 52.867875 260.521875 
L 52.867875 168.222438 
L 42.126464 168.222438 
z
" clip-path="url(#pc019749903)" style="fill: #1f77b4; opacity: 0.4"/>
   </g>
   <g id="patch_4">
    <path d="M 52.867875 260.521875 
L 63.609285 260.521875 
L 63.609285 57.463115 
L 52.867875 57.463115 
z
" clip-path="url(#pc019749903)" style="fill: #1f77b4; opacity: 0.4"/>
   </g>
   <g id="patch_5">
    <path d="M 63.609285 260.521875 
L 74.350696 260.521875 
L 74.350696 82.076298 
L 63.609285 82.076298 
z
" clip-path="url(#pc019749903)" style="fill: #1f77b4; opacity: 0.4"/>
   </g>
   <g id="patch_6">
    <path d="M 74.350696 260.521875 
L 85.092106 260.521875 
L 85.092106 186.682326 
L 74.350696 186.682326 
z
" clip-path="url(#pc019749903)" style="fill: #1f77b4; opacity: 0.4"/>
   </g>
   <g id="patch_7">
    <path d="M 85.092106 260.521875 
L 95.833517 260.521875 
L 95.833517 174.375734 
L 85.092106 174.375734 
z
" clip-path="url(#pc019749903)" style="fill: #1f77b4; opacity: 0.4"/>
   </g>
   <g id="patch_8">
    <path d="M 95.833517 260.521875 
L 106.574927 260.521875 
L 106.574927 217.448805 
L 95.833517 217.448805 
z
" clip-path="url(#pc019749903)" style="fill: #1f77b4; opacity: 0.4"/>
   </g>
   <g id="patch_9">
    <path d="M 106.574927 260.521875 
L 117.316338 260.521875 
L 117.316338 192.835622 
L 106.574927 192.835622 
z
" clip-path="url(#pc019749903)" style="fill: #1f77b4; opacity: 0.4"/>
   </g>
   <g id="patch_10">
    <path d="M 117.316338 260.521875 
L 128.057748 260.521875 
L 128.057748 162.069143 
L 117.316338 162.069143 
z
" clip-path="url(#pc019749903)" style="fill: #1f77b4; opacity: 0.4"/>
   </g>
   <g id="patch_11">
    <path d="M 128.057748 260.521875 
L 138.799159 260.521875 
L 138.799159 217.448805 
L 128.057748 217.448805 
z
" clip-path="url(#pc019749903)" style="fill: #1f77b4; opacity: 0.4"/>
   </g>
   <g id="patch_12">
    <path d="M 138.799159 260.521875 
L 149.54057 260.521875 
L 149.54057 205.142213 
L 138.799159 205.142213 
z
" clip-path="url(#pc019749903)" style="fill: #1f77b4; opacity: 0.4"/>
   </g>
   <g id="patch_13">
    <path d="M 149.54057 260.521875 
L 160.28198 260.521875 
L 160.28198 205.142213 
L 149.54057 205.142213 
z
" clip-path="url(#pc019749903)" style="fill: #1f77b4; opacity: 0.4"/>
   </g>
   <g id="patch_14">
    <path d="M 160.28198 260.521875 
L 171.023391 260.521875 
L 171.023391 229.755396 
L 160.28198 229.755396 
z
" clip-path="url(#pc019749903)" style="fill: #1f77b4; opacity: 0.4"/>
   </g>
   <g id="patch_15">
    <path d="M 171.023391 260.521875 
L 181.764801 260.521875 
L 181.764801 235.908692 
L 171.023391 235.908692 
z
" clip-path="url(#pc019749903)" style="fill: #1f77b4; opacity: 0.4"/>
   </g>
   <g id="patch_16">
    <path d="M 181.764801 260.521875 
L 192.506212 260.521875 
L 192.506212 223.6021 
L 181.764801 223.6021 
z
" clip-path="url(#pc019749903)" style="fill: #1f77b4; opacity: 0.4"/>
   </g>
   <g id="patch_17">
    <path d="M 192.506212 260.521875 
L 203.247622 260.521875 
L 203.247622 192.835622 
L 192.506212 192.835622 
z
" clip-path="url(#pc019749903)" style="fill: #1f77b4; opacity: 0.4"/>
   </g>
   <g id="patch_18">
    <path d="M 203.247622 260.521875 
L 213.989033 260.521875 
L 213.989033 229.755396 
L 203.247622 229.755396 
z
" clip-path="url(#pc019749903)" style="fill: #1f77b4; opacity: 0.4"/>
   </g>
   <g id="patch_19">
    <path d="M 213.989033 260.521875 
L 224.730443 260.521875 
L 224.730443 229.755396 
L 213.989033 229.755396 
z
" clip-path="url(#pc019749903)" style="fill: #1f77b4; opacity: 0.4"/>
   </g>
   <g id="patch_20">
    <path d="M 224.730443 260.521875 
L 235.471854 260.521875 
L 235.471854 248.215283 
L 224.730443 248.215283 
z
" clip-path="url(#pc019749903)" style="fill: #1f77b4; opacity: 0.4"/>
   </g>
   <g id="patch_21">
    <path d="M 235.471854 260.521875 
L 246.213264 260.521875 
L 246.213264 248.215283 
L 235.471854 248.215283 
z
" clip-path="url(#pc019749903)" style="fill: #1f77b4; opacity: 0.4"/>
   </g>
   <g id="patch_22">
    <path d="M 246.213264 260.521875 
L 256.954675 260.521875 
L 256.954675 248.215283 
L 246.213264 248.215283 
z
" clip-path="url(#pc019749903)" style="fill: #1f77b4; opacity: 0.4"/>
   </g>
   <g id="patch_23">
    <path d="M 76.464345 260.521875 
L 86.867619 260.521875 
L 86.867619 246.585614 
L 76.464345 246.585614 
z
" clip-path="url(#pc019749903)" style="fill: #ff7f0e; opacity: 0.4"/>
   </g>
   <g id="patch_24">
    <path d="M 86.867619 260.521875 
L 97.270893 260.521875 
L 97.270893 260.521875 
L 86.867619 260.521875 
z
" clip-path="url(#pc019749903)" style="fill: #ff7f0e; opacity: 0.4"/>
   </g>
   <g id="patch_25">
    <path d="M 97.270893 260.521875 
L 107.674168 260.521875 
L 107.674168 260.521875 
L 97.270893 260.521875 
z
" clip-path="url(#pc019749903)" style="fill: #ff7f0e; opacity: 0.4"/>
   </g>
   <g id="patch_26">
    <path d="M 107.674168 260.521875 
L 118.077442 260.521875 
L 118.077442 232.649353 
L 107.674168 232.649353 
z
" clip-path="url(#pc019749903)" style="fill: #ff7f0e; opacity: 0.4"/>
   </g>
   <g id="patch_27">
    <path d="M 118.077442 260.521875 
L 128.480716 260.521875 
L 128.480716 246.585614 
L 118.077442 246.585614 
z
" clip-path="url(#pc019749903)" style="fill: #ff7f0e; opacity: 0.4"/>
   </g>
   <g id="patch_28">
    <path d="M 128.480716 260.521875 
L 138.883991 260.521875 
L 138.883991 190.84057 
L 128.480716 190.84057 
z
" clip-path="url(#pc019749903)" style="fill: #ff7f0e; opacity: 0.4"/>
   </g>
   <g id="patch_29">
    <path d="M 138.883991 260.521875 
L 149.287265 260.521875 
L 149.287265 149.031786 
L 138.883991 149.031786 
z
" clip-path="url(#pc019749903)" style="fill: #ff7f0e; opacity: 0.4"/>
   </g>
   <g id="patch_30">
    <path d="M 149.287265 260.521875 
L 159.690539 260.521875 
L 159.690539 190.84057 
L 149.287265 190.84057 
z
" clip-path="url(#pc019749903)" style="fill: #ff7f0e; opacity: 0.4"/>
   </g>
   <g id="patch_31">
    <path d="M 159.690539 260.521875 
L 170.093814 260.521875 
L 170.093814 79.350481 
L 159.690539 79.350481 
z
" clip-path="url(#pc019749903)" style="fill: #ff7f0e; opacity: 0.4"/>
   </g>
   <g id="patch_32">
    <path d="M 170.093814 260.521875 
L 180.497088 260.521875 
L 180.497088 162.968047 
L 170.093814 162.968047 
z
" clip-path="url(#pc019749903)" style="fill: #ff7f0e; opacity: 0.4"/>
   </g>
   <g id="patch_33">
    <path d="M 180.497088 260.521875 
L 190.900362 260.521875 
L 190.900362 204.776831 
L 180.497088 204.776831 
z
" clip-path="url(#pc019749903)" style="fill: #ff7f0e; opacity: 0.4"/>
   </g>
   <g id="patch_34">
    <path d="M 190.900362 260.521875 
L 201.303637 260.521875 
L 201.303637 232.649353 
L 190.900362 232.649353 
z
" clip-path="url(#pc019749903)" style="fill: #ff7f0e; opacity: 0.4"/>
   </g>
   <g id="patch_35">
    <path d="M 201.303637 260.521875 
L 211.706911 260.521875 
L 211.706911 260.521875 
L 201.303637 260.521875 
z
" clip-path="url(#pc019749903)" style="fill: #ff7f0e; opacity: 0.4"/>
   </g>
   <g id="patch_36">
    <path d="M 211.706911 260.521875 
L 222.110185 260.521875 
L 222.110185 204.776831 
L 211.706911 204.776831 
z
" clip-path="url(#pc019749903)" style="fill: #ff7f0e; opacity: 0.4"/>
   </g>
   <g id="patch_37">
    <path d="M 222.110185 260.521875 
L 232.51346 260.521875 
L 232.51346 204.776831 
L 222.110185 204.776831 
z
" clip-path="url(#pc019749903)" style="fill: #ff7f0e; opacity: 0.4"/>
   </g>
   <g id="patch_38">
    <path d="M 232.51346 260.521875 
L 242.916734 260.521875 
L 242.916734 176.904308 
L 232.51346 176.904308 
z
" clip-path="url(#pc019749903)" style="fill: #ff7f0e; opacity: 0.4"/>
   </g>
   <g id="patch_39">
    <path d="M 242.916734 260.521875 
L 253.320008 260.521875 
L 253.320008 93.286742 
L 242.916734 93.286742 
z
" clip-path="url(#pc019749903)" style="fill: #ff7f0e; opacity: 0.4"/>
   </g>
   <g id="patch_40">
    <path d="M 253.320008 260.521875 
L 263.723283 260.521875 
L 263.723283 176.904308 
L 253.320008 176.904308 
z
" clip-path="url(#pc019749903)" style="fill: #ff7f0e; opacity: 0.4"/>
   </g>
   <g id="patch_41">
    <path d="M 263.723283 260.521875 
L 274.126557 260.521875 
L 274.126557 121.159264 
L 263.723283 121.159264 
z
" clip-path="url(#pc019749903)" style="fill: #ff7f0e; opacity: 0.4"/>
   </g>
   <g id="patch_42">
    <path d="M 274.126557 260.521875 
L 284.529831 260.521875 
L 284.529831 218.713092 
L 274.126557 218.713092 
z
" clip-path="url(#pc019749903)" style="fill: #ff7f0e; opacity: 0.4"/>
   </g>
   <g id="patch_43">
    <path d="M 83.203708 260.521875 
L 91.515521 260.521875 
L 91.515521 209.294609 
L 83.203708 209.294609 
z
" clip-path="url(#pc019749903)" style="fill: #2ca02c; opacity: 0.4"/>
   </g>
   <g id="patch_44">
    <path d="M 91.515521 260.521875 
L 99.827333 260.521875 
L 99.827333 243.44612 
L 91.515521 243.44612 
z
" clip-path="url(#pc019749903)" style="fill: #2ca02c; opacity: 0.4"/>
   </g>
   <g id="patch_45">
    <path d="M 99.827333 260.521875 
L 108.139146 260.521875 
L 108.139146 226.370364 
L 99.827333 226.370364 
z
" clip-path="url(#pc019749903)" style="fill: #2ca02c; opacity: 0.4"/>
   </g>
   <g id="patch_46">
    <path d="M 108.139146 260.521875 
L 116.450958 260.521875 
L 116.450958 192.218853 
L 108.139146 192.218853 
z
" clip-path="url(#pc019749903)" style="fill: #2ca02c; opacity: 0.4"/>
   </g>
   <g id="patch_47">
    <path d="M 116.450958 260.521875 
L 124.762771 260.521875 
L 124.762771 89.76432 
L 116.450958 89.76432 
z
" clip-path="url(#pc019749903)" style="fill: #2ca02c; opacity: 0.4"/>
   </g>
   <g id="patch_48">
    <path d="M 124.762771 260.521875 
L 133.074584 260.521875 
L 133.074584 89.76432 
L 124.762771 89.76432 
z
" clip-path="url(#pc019749903)" style="fill: #2ca02c; opacity: 0.4"/>
   </g>
   <g id="patch_49">
    <path d="M 133.074584 260.521875 
L 141.386396 260.521875 
L 141.386396 38.537054 
L 133.074584 38.537054 
z
" clip-path="url(#pc019749903)" style="fill: #2ca02c; opacity: 0.4"/>
   </g>
   <g id="patch_50">
    <path d="M 141.386396 260.521875 
L 149.698209 260.521875 
L 149.698209 192.218853 
L 141.386396 192.218853 
z
" clip-path="url(#pc019749903)" style="fill: #2ca02c; opacity: 0.4"/>
   </g>
   <g id="patch_51">
    <path d="M 149.698209 260.521875 
L 158.010021 260.521875 
L 158.010021 209.294609 
L 149.698209 209.294609 
z
" clip-path="url(#pc019749903)" style="fill: #2ca02c; opacity: 0.4"/>
   </g>
   <g id="patch_52">
    <path d="M 158.010021 260.521875 
L 166.321834 260.521875 
L 166.321834 123.915831 
L 158.010021 123.915831 
z
" clip-path="url(#pc019749903)" style="fill: #2ca02c; opacity: 0.4"/>
   </g>
   <g id="patch_53">
    <path d="M 166.321834 260.521875 
L 174.633646 260.521875 
L 174.633646 209.294609 
L 166.321834 209.294609 
z
" clip-path="url(#pc019749903)" style="fill: #2ca02c; opacity: 0.4"/>
   </g>
   <g id="patch_54">
    <path d="M 174.633646 260.521875 
L 182.945459 260.521875 
L 182.945459 175.143098 
L 174.633646 175.143098 
z
" clip-path="url(#pc019749903)" style="fill: #2ca02c; opacity: 0.4"/>
   </g>
   <g id="patch_55">
    <path d="M 182.945459 260.521875 
L 191.257271 260.521875 
L 191.257271 226.370364 
L 182.945459 226.370364 
z
" clip-path="url(#pc019749903)" style="fill: #2ca02c; opacity: 0.4"/>
   </g>
   <g id="patch_56">
    <path d="M 191.257271 260.521875 
L 199.569084 260.521875 
L 199.569084 158.067342 
L 191.257271 158.067342 
z
" clip-path="url(#pc019749903)" style="fill: #2ca02c; opacity: 0.4"/>
   </g>
   <g id="patch_57">
    <path d="M 199.569084 260.521875 
L 207.880897 260.521875 
L 207.880897 209.294609 
L 199.569084 209.294609 
z
" clip-path="url(#pc019749903)" style="fill: #2ca02c; opacity: 0.4"/>
   </g>
   <g id="patch_58">
    <path d="M 207.880897 260.521875 
L 216.192709 260.521875 
L 216.192709 158.067342 
L 207.880897 158.067342 
z
" clip-path="url(#pc019749903)" style="fill: #2ca02c; opacity: 0.4"/>
   </g>
   <g id="patch_59">
    <path d="M 216.192709 260.521875 
L 224.504522 260.521875 
L 224.504522 226.370364 
L 216.192709 226.370364 
z
" clip-path="url(#pc019749903)" style="fill: #2ca02c; opacity: 0.4"/>
   </g>
   <g id="patch_60">
    <path d="M 224.504522 260.521875 
L 232.816334 260.521875 
L 232.816334 175.143098 
L 224.504522 175.143098 
z
" clip-path="url(#pc019749903)" style="fill: #2ca02c; opacity: 0.4"/>
   </g>
   <g id="patch_61">
    <path d="M 232.816334 260.521875 
L 241.128147 260.521875 
L 241.128147 243.44612 
L 232.816334 243.44612 
z
" clip-path="url(#pc019749903)" style="fill: #2ca02c; opacity: 0.4"/>
   </g>
   <g id="patch_62">
    <path d="M 241.128147 260.521875 
L 249.439959 260.521875 
L 249.439959 192.218853 
L 241.128147 192.218853 
z
" clip-path="url(#pc019749903)" style="fill: #2ca02c; opacity: 0.4"/>
   </g>
   <g id="matplotlib.axis_1">
    <g id="xtick_1">
     <g id="line2d_1">
      <defs>
       <path id="m8321854d6b" d="M 0 0 
L 0 3.5 
" style="stroke: #000000; stroke-width: 0.8"/>
      </defs>
      <g>
       <use xlink:href="#m8321854d6b" x="43.2479" y="260.521875" style="stroke: #000000; stroke-width: 0.8"/>
      </g>
     </g>
     <g id="text_1">
      <!-- 0.4 -->
      <g transform="translate(35.296338 275.120313) scale(0.1 -0.1)">
       <defs>
        <path id="DejaVuSans-30" d="M 2034 4250 
Q 1547 4250 1301 3770 
Q 1056 3291 1056 2328 
Q 1056 1369 1301 889 
Q 1547 409 2034 409 
Q 2525 409 2770 889 
Q 3016 1369 3016 2328 
Q 3016 3291 2770 3770 
Q 2525 4250 2034 4250 
z
M 2034 4750 
Q 2819 4750 3233 4129 
Q 3647 3509 3647 2328 
Q 3647 1150 3233 529 
Q 2819 -91 2034 -91 
Q 1250 -91 836 529 
Q 422 1150 422 2328 
Q 422 3509 836 4129 
Q 1250 4750 2034 4750 
z
" transform="scale(0.015625)"/>
        <path id="DejaVuSans-2e" d="M 684 794 
L 1344 794 
L 1344 0 
L 684 0 
L 684 794 
z
" transform="scale(0.015625)"/>
        <path id="DejaVuSans-34" d="M 2419 4116 
L 825 1625 
L 2419 1625 
L 2419 4116 
z
M 2253 4666 
L 3047 4666 
L 3047 1625 
L 3713 1625 
L 3713 1100 
L 3047 1100 
L 3047 0 
L 2419 0 
L 2419 1100 
L 313 1100 
L 313 1709 
L 2253 4666 
z
" transform="scale(0.015625)"/>
       </defs>
       <use xlink:href="#DejaVuSans-30"/>
       <use xlink:href="#DejaVuSans-2e" x="63.623047"/>
       <use xlink:href="#DejaVuSans-34" x="95.410156"/>
      </g>
     </g>
    </g>
    <g id="xtick_2">
     <g id="line2d_2">
      <g>
       <use xlink:href="#m8321854d6b" x="83.072888" y="260.521875" style="stroke: #000000; stroke-width: 0.8"/>
      </g>
     </g>
     <g id="text_2">
      <!-- 0.5 -->
      <g transform="translate(75.121325 275.120313) scale(0.1 -0.1)">
       <defs>
        <path id="DejaVuSans-35" d="M 691 4666 
L 3169 4666 
L 3169 4134 
L 1269 4134 
L 1269 2991 
Q 1406 3038 1543 3061 
Q 1681 3084 1819 3084 
Q 2600 3084 3056 2656 
Q 3513 2228 3513 1497 
Q 3513 744 3044 326 
Q 2575 -91 1722 -91 
Q 1428 -91 1123 -41 
Q 819 9 494 109 
L 494 744 
Q 775 591 1075 516 
Q 1375 441 1709 441 
Q 2250 441 2565 725 
Q 2881 1009 2881 1497 
Q 2881 1984 2565 2268 
Q 2250 2553 1709 2553 
Q 1456 2553 1204 2497 
Q 953 2441 691 2322 
L 691 4666 
z
" transform="scale(0.015625)"/>
       </defs>
       <use xlink:href="#DejaVuSans-30"/>
       <use xlink:href="#DejaVuSans-2e" x="63.623047"/>
       <use xlink:href="#DejaVuSans-35" x="95.410156"/>
      </g>
     </g>
    </g>
    <g id="xtick_3">
     <g id="line2d_3">
      <g>
       <use xlink:href="#m8321854d6b" x="122.897875" y="260.521875" style="stroke: #000000; stroke-width: 0.8"/>
      </g>
     </g>
     <g id="text_3">
      <!-- 0.6 -->
      <g transform="translate(114.946312 275.120313) scale(0.1 -0.1)">
       <defs>
        <path id="DejaVuSans-36" d="M 2113 2584 
Q 1688 2584 1439 2293 
Q 1191 2003 1191 1497 
Q 1191 994 1439 701 
Q 1688 409 2113 409 
Q 2538 409 2786 701 
Q 3034 994 3034 1497 
Q 3034 2003 2786 2293 
Q 2538 2584 2113 2584 
z
M 3366 4563 
L 3366 3988 
Q 3128 4100 2886 4159 
Q 2644 4219 2406 4219 
Q 1781 4219 1451 3797 
Q 1122 3375 1075 2522 
Q 1259 2794 1537 2939 
Q 1816 3084 2150 3084 
Q 2853 3084 3261 2657 
Q 3669 2231 3669 1497 
Q 3669 778 3244 343 
Q 2819 -91 2113 -91 
Q 1303 -91 875 529 
Q 447 1150 447 2328 
Q 447 3434 972 4092 
Q 1497 4750 2381 4750 
Q 2619 4750 2861 4703 
Q 3103 4656 3366 4563 
z
" transform="scale(0.015625)"/>
       </defs>
       <use xlink:href="#DejaVuSans-30"/>
       <use xlink:href="#DejaVuSans-2e" x="63.623047"/>
       <use xlink:href="#DejaVuSans-36" x="95.410156"/>
      </g>
     </g>
    </g>
    <g id="xtick_4">
     <g id="line2d_4">
      <g>
       <use xlink:href="#m8321854d6b" x="162.722862" y="260.521875" style="stroke: #000000; stroke-width: 0.8"/>
      </g>
     </g>
     <g id="text_4">
      <!-- 0.7 -->
      <g transform="translate(154.7713 275.120313) scale(0.1 -0.1)">
       <defs>
        <path id="DejaVuSans-37" d="M 525 4666 
L 3525 4666 
L 3525 4397 
L 1831 0 
L 1172 0 
L 2766 4134 
L 525 4134 
L 525 4666 
z
" transform="scale(0.015625)"/>
       </defs>
       <use xlink:href="#DejaVuSans-30"/>
       <use xlink:href="#DejaVuSans-2e" x="63.623047"/>
       <use xlink:href="#DejaVuSans-37" x="95.410156"/>
      </g>
     </g>
    </g>
    <g id="xtick_5">
     <g id="line2d_5">
      <g>
       <use xlink:href="#m8321854d6b" x="202.54785" y="260.521875" style="stroke: #000000; stroke-width: 0.8"/>
      </g>
     </g>
     <g id="text_5">
      <!-- 0.8 -->
      <g transform="translate(194.596287 275.120313) scale(0.1 -0.1)">
       <defs>
        <path id="DejaVuSans-38" d="M 2034 2216 
Q 1584 2216 1326 1975 
Q 1069 1734 1069 1313 
Q 1069 891 1326 650 
Q 1584 409 2034 409 
Q 2484 409 2743 651 
Q 3003 894 3003 1313 
Q 3003 1734 2745 1975 
Q 2488 2216 2034 2216 
z
M 1403 2484 
Q 997 2584 770 2862 
Q 544 3141 544 3541 
Q 544 4100 942 4425 
Q 1341 4750 2034 4750 
Q 2731 4750 3128 4425 
Q 3525 4100 3525 3541 
Q 3525 3141 3298 2862 
Q 3072 2584 2669 2484 
Q 3125 2378 3379 2068 
Q 3634 1759 3634 1313 
Q 3634 634 3220 271 
Q 2806 -91 2034 -91 
Q 1263 -91 848 271 
Q 434 634 434 1313 
Q 434 1759 690 2068 
Q 947 2378 1403 2484 
z
M 1172 3481 
Q 1172 3119 1398 2916 
Q 1625 2713 2034 2713 
Q 2441 2713 2670 2916 
Q 2900 3119 2900 3481 
Q 2900 3844 2670 4047 
Q 2441 4250 2034 4250 
Q 1625 4250 1398 4047 
Q 1172 3844 1172 3481 
z
" transform="scale(0.015625)"/>
       </defs>
       <use xlink:href="#DejaVuSans-30"/>
       <use xlink:href="#DejaVuSans-2e" x="63.623047"/>
       <use xlink:href="#DejaVuSans-38" x="95.410156"/>
      </g>
     </g>
    </g>
    <g id="xtick_6">
     <g id="line2d_6">
      <g>
       <use xlink:href="#m8321854d6b" x="242.372837" y="260.521875" style="stroke: #000000; stroke-width: 0.8"/>
      </g>
     </g>
     <g id="text_6">
      <!-- 0.9 -->
      <g transform="translate(234.421274 275.120313) scale(0.1 -0.1)">
       <defs>
        <path id="DejaVuSans-39" d="M 703 97 
L 703 672 
Q 941 559 1184 500 
Q 1428 441 1663 441 
Q 2288 441 2617 861 
Q 2947 1281 2994 2138 
Q 2813 1869 2534 1725 
Q 2256 1581 1919 1581 
Q 1219 1581 811 2004 
Q 403 2428 403 3163 
Q 403 3881 828 4315 
Q 1253 4750 1959 4750 
Q 2769 4750 3195 4129 
Q 3622 3509 3622 2328 
Q 3622 1225 3098 567 
Q 2575 -91 1691 -91 
Q 1453 -91 1209 -44 
Q 966 3 703 97 
z
M 1959 2075 
Q 2384 2075 2632 2365 
Q 2881 2656 2881 3163 
Q 2881 3666 2632 3958 
Q 2384 4250 1959 4250 
Q 1534 4250 1286 3958 
Q 1038 3666 1038 3163 
Q 1038 2656 1286 2365 
Q 1534 2075 1959 2075 
z
" transform="scale(0.015625)"/>
       </defs>
       <use xlink:href="#DejaVuSans-30"/>
       <use xlink:href="#DejaVuSans-2e" x="63.623047"/>
       <use xlink:href="#DejaVuSans-39" x="95.410156"/>
      </g>
     </g>
    </g>
    <g id="xtick_7">
     <g id="line2d_7">
      <g>
       <use xlink:href="#m8321854d6b" x="282.197824" y="260.521875" style="stroke: #000000; stroke-width: 0.8"/>
      </g>
     </g>
     <g id="text_7">
      <!-- 1.0 -->
      <g transform="translate(274.246262 275.120313) scale(0.1 -0.1)">
       <defs>
        <path id="DejaVuSans-31" d="M 794 531 
L 1825 531 
L 1825 4091 
L 703 3866 
L 703 4441 
L 1819 4666 
L 2450 4666 
L 2450 531 
L 3481 531 
L 3481 0 
L 794 0 
L 794 531 
z
" transform="scale(0.015625)"/>
       </defs>
       <use xlink:href="#DejaVuSans-31"/>
       <use xlink:href="#DejaVuSans-2e" x="63.623047"/>
       <use xlink:href="#DejaVuSans-30" x="95.410156"/>
      </g>
     </g>
    </g>
   </g>
   <g id="matplotlib.axis_2">
    <g id="ytick_1">
     <g id="line2d_8">
      <defs>
       <path id="m095f99778f" d="M 0 0 
L -3.5 0 
" style="stroke: #000000; stroke-width: 0.8"/>
      </defs>
      <g>
       <use xlink:href="#m095f99778f" x="41.711875" y="260.521875" style="stroke: #000000; stroke-width: 0.8"/>
      </g>
     </g>
     <g id="text_8">
      <!-- 0 -->
      <g transform="translate(28.349375 264.321094) scale(0.1 -0.1)">
       <use xlink:href="#DejaVuSans-30"/>
      </g>
     </g>
    </g>
    <g id="ytick_2">
     <g id="line2d_9">
      <g>
       <use xlink:href="#m095f99778f" x="41.711875" y="226.665253" style="stroke: #000000; stroke-width: 0.8"/>
      </g>
     </g>
     <g id="text_9">
      <!-- 1 -->
      <g transform="translate(28.349375 230.464472) scale(0.1 -0.1)">
       <use xlink:href="#DejaVuSans-31"/>
      </g>
     </g>
    </g>
    <g id="ytick_3">
     <g id="line2d_10">
      <g>
       <use xlink:href="#m095f99778f" x="41.711875" y="192.808631" style="stroke: #000000; stroke-width: 0.8"/>
      </g>
     </g>
     <g id="text_10">
      <!-- 2 -->
      <g transform="translate(28.349375 196.607849) scale(0.1 -0.1)">
       <defs>
        <path id="DejaVuSans-32" d="M 1228 531 
L 3431 531 
L 3431 0 
L 469 0 
L 469 531 
Q 828 903 1448 1529 
Q 2069 2156 2228 2338 
Q 2531 2678 2651 2914 
Q 2772 3150 2772 3378 
Q 2772 3750 2511 3984 
Q 2250 4219 1831 4219 
Q 1534 4219 1204 4116 
Q 875 4013 500 3803 
L 500 4441 
Q 881 4594 1212 4672 
Q 1544 4750 1819 4750 
Q 2544 4750 2975 4387 
Q 3406 4025 3406 3419 
Q 3406 3131 3298 2873 
Q 3191 2616 2906 2266 
Q 2828 2175 2409 1742 
Q 1991 1309 1228 531 
z
" transform="scale(0.015625)"/>
       </defs>
       <use xlink:href="#DejaVuSans-32"/>
      </g>
     </g>
    </g>
    <g id="ytick_4">
     <g id="line2d_11">
      <g>
       <use xlink:href="#m095f99778f" x="41.711875" y="158.952008" style="stroke: #000000; stroke-width: 0.8"/>
      </g>
     </g>
     <g id="text_11">
      <!-- 3 -->
      <g transform="translate(28.349375 162.751227) scale(0.1 -0.1)">
       <defs>
        <path id="DejaVuSans-33" d="M 2597 2516 
Q 3050 2419 3304 2112 
Q 3559 1806 3559 1356 
Q 3559 666 3084 287 
Q 2609 -91 1734 -91 
Q 1441 -91 1130 -33 
Q 819 25 488 141 
L 488 750 
Q 750 597 1062 519 
Q 1375 441 1716 441 
Q 2309 441 2620 675 
Q 2931 909 2931 1356 
Q 2931 1769 2642 2001 
Q 2353 2234 1838 2234 
L 1294 2234 
L 1294 2753 
L 1863 2753 
Q 2328 2753 2575 2939 
Q 2822 3125 2822 3475 
Q 2822 3834 2567 4026 
Q 2313 4219 1838 4219 
Q 1578 4219 1281 4162 
Q 984 4106 628 3988 
L 628 4550 
Q 988 4650 1302 4700 
Q 1616 4750 1894 4750 
Q 2613 4750 3031 4423 
Q 3450 4097 3450 3541 
Q 3450 3153 3228 2886 
Q 3006 2619 2597 2516 
z
" transform="scale(0.015625)"/>
       </defs>
       <use xlink:href="#DejaVuSans-33"/>
      </g>
     </g>
    </g>
    <g id="ytick_5">
     <g id="line2d_12">
      <g>
       <use xlink:href="#m095f99778f" x="41.711875" y="125.095386" style="stroke: #000000; stroke-width: 0.8"/>
      </g>
     </g>
     <g id="text_12">
      <!-- 4 -->
      <g transform="translate(28.349375 128.894605) scale(0.1 -0.1)">
       <use xlink:href="#DejaVuSans-34"/>
      </g>
     </g>
    </g>
    <g id="ytick_6">
     <g id="line2d_13">
      <g>
       <use xlink:href="#m095f99778f" x="41.711875" y="91.238764" style="stroke: #000000; stroke-width: 0.8"/>
      </g>
     </g>
     <g id="text_13">
      <!-- 5 -->
      <g transform="translate(28.349375 95.037983) scale(0.1 -0.1)">
       <use xlink:href="#DejaVuSans-35"/>
      </g>
     </g>
    </g>
    <g id="ytick_7">
     <g id="line2d_14">
      <g>
       <use xlink:href="#m095f99778f" x="41.711875" y="57.382142" style="stroke: #000000; stroke-width: 0.8"/>
      </g>
     </g>
     <g id="text_14">
      <!-- 6 -->
      <g transform="translate(28.349375 61.181361) scale(0.1 -0.1)">
       <use xlink:href="#DejaVuSans-36"/>
      </g>
     </g>
    </g>
    <g id="text_15">
     <!-- Fraction of cells -->
     <g transform="translate(21.437812 198.811719) rotate(-90) scale(0.14 -0.14)">
      <defs>
       <path id="DejaVuSans-46" d="M 628 4666 
L 3309 4666 
L 3309 4134 
L 1259 4134 
L 1259 2759 
L 3109 2759 
L 3109 2228 
L 1259 2228 
L 1259 0 
L 628 0 
L 628 4666 
z
" transform="scale(0.015625)"/>
       <path id="DejaVuSans-72" d="M 2631 2963 
Q 2534 3019 2420 3045 
Q 2306 3072 2169 3072 
Q 1681 3072 1420 2755 
Q 1159 2438 1159 1844 
L 1159 0 
L 581 0 
L 581 3500 
L 1159 3500 
L 1159 2956 
Q 1341 3275 1631 3429 
Q 1922 3584 2338 3584 
Q 2397 3584 2469 3576 
Q 2541 3569 2628 3553 
L 2631 2963 
z
" transform="scale(0.015625)"/>
       <path id="DejaVuSans-61" d="M 2194 1759 
Q 1497 1759 1228 1600 
Q 959 1441 959 1056 
Q 959 750 1161 570 
Q 1363 391 1709 391 
Q 2188 391 2477 730 
Q 2766 1069 2766 1631 
L 2766 1759 
L 2194 1759 
z
M 3341 1997 
L 3341 0 
L 2766 0 
L 2766 531 
Q 2569 213 2275 61 
Q 1981 -91 1556 -91 
Q 1019 -91 701 211 
Q 384 513 384 1019 
Q 384 1609 779 1909 
Q 1175 2209 1959 2209 
L 2766 2209 
L 2766 2266 
Q 2766 2663 2505 2880 
Q 2244 3097 1772 3097 
Q 1472 3097 1187 3025 
Q 903 2953 641 2809 
L 641 3341 
Q 956 3463 1253 3523 
Q 1550 3584 1831 3584 
Q 2591 3584 2966 3190 
Q 3341 2797 3341 1997 
z
" transform="scale(0.015625)"/>
       <path id="DejaVuSans-63" d="M 3122 3366 
L 3122 2828 
Q 2878 2963 2633 3030 
Q 2388 3097 2138 3097 
Q 1578 3097 1268 2742 
Q 959 2388 959 1747 
Q 959 1106 1268 751 
Q 1578 397 2138 397 
Q 2388 397 2633 464 
Q 2878 531 3122 666 
L 3122 134 
Q 2881 22 2623 -34 
Q 2366 -91 2075 -91 
Q 1284 -91 818 406 
Q 353 903 353 1747 
Q 353 2603 823 3093 
Q 1294 3584 2113 3584 
Q 2378 3584 2631 3529 
Q 2884 3475 3122 3366 
z
" transform="scale(0.015625)"/>
       <path id="DejaVuSans-74" d="M 1172 4494 
L 1172 3500 
L 2356 3500 
L 2356 3053 
L 1172 3053 
L 1172 1153 
Q 1172 725 1289 603 
Q 1406 481 1766 481 
L 2356 481 
L 2356 0 
L 1766 0 
Q 1100 0 847 248 
Q 594 497 594 1153 
L 594 3053 
L 172 3053 
L 172 3500 
L 594 3500 
L 594 4494 
L 1172 4494 
z
" transform="scale(0.015625)"/>
       <path id="DejaVuSans-69" d="M 603 3500 
L 1178 3500 
L 1178 0 
L 603 0 
L 603 3500 
z
M 603 4863 
L 1178 4863 
L 1178 4134 
L 603 4134 
L 603 4863 
z
" transform="scale(0.015625)"/>
       <path id="DejaVuSans-6f" d="M 1959 3097 
Q 1497 3097 1228 2736 
Q 959 2375 959 1747 
Q 959 1119 1226 758 
Q 1494 397 1959 397 
Q 2419 397 2687 759 
Q 2956 1122 2956 1747 
Q 2956 2369 2687 2733 
Q 2419 3097 1959 3097 
z
M 1959 3584 
Q 2709 3584 3137 3096 
Q 3566 2609 3566 1747 
Q 3566 888 3137 398 
Q 2709 -91 1959 -91 
Q 1206 -91 779 398 
Q 353 888 353 1747 
Q 353 2609 779 3096 
Q 1206 3584 1959 3584 
z
" transform="scale(0.015625)"/>
       <path id="DejaVuSans-6e" d="M 3513 2113 
L 3513 0 
L 2938 0 
L 2938 2094 
Q 2938 2591 2744 2837 
Q 2550 3084 2163 3084 
Q 1697 3084 1428 2787 
Q 1159 2491 1159 1978 
L 1159 0 
L 581 0 
L 581 3500 
L 1159 3500 
L 1159 2956 
Q 1366 3272 1645 3428 
Q 1925 3584 2291 3584 
Q 2894 3584 3203 3211 
Q 3513 2838 3513 2113 
z
" transform="scale(0.015625)"/>
       <path id="DejaVuSans-20" transform="scale(0.015625)"/>
       <path id="DejaVuSans-66" d="M 2375 4863 
L 2375 4384 
L 1825 4384 
Q 1516 4384 1395 4259 
Q 1275 4134 1275 3809 
L 1275 3500 
L 2222 3500 
L 2222 3053 
L 1275 3053 
L 1275 0 
L 697 0 
L 697 3053 
L 147 3053 
L 147 3500 
L 697 3500 
L 697 3744 
Q 697 4328 969 4595 
Q 1241 4863 1831 4863 
L 2375 4863 
z
" transform="scale(0.015625)"/>
       <path id="DejaVuSans-65" d="M 3597 1894 
L 3597 1613 
L 953 1613 
Q 991 1019 1311 708 
Q 1631 397 2203 397 
Q 2534 397 2845 478 
Q 3156 559 3463 722 
L 3463 178 
Q 3153 47 2828 -22 
Q 2503 -91 2169 -91 
Q 1331 -91 842 396 
Q 353 884 353 1716 
Q 353 2575 817 3079 
Q 1281 3584 2069 3584 
Q 2775 3584 3186 3129 
Q 3597 2675 3597 1894 
z
M 3022 2063 
Q 3016 2534 2758 2815 
Q 2500 3097 2075 3097 
Q 1594 3097 1305 2825 
Q 1016 2553 972 2059 
L 3022 2063 
z
" transform="scale(0.015625)"/>
       <path id="DejaVuSans-6c" d="M 603 4863 
L 1178 4863 
L 1178 0 
L 603 0 
L 603 4863 
z
" transform="scale(0.015625)"/>
       <path id="DejaVuSans-73" d="M 2834 3397 
L 2834 2853 
Q 2591 2978 2328 3040 
Q 2066 3103 1784 3103 
Q 1356 3103 1142 2972 
Q 928 2841 928 2578 
Q 928 2378 1081 2264 
Q 1234 2150 1697 2047 
L 1894 2003 
Q 2506 1872 2764 1633 
Q 3022 1394 3022 966 
Q 3022 478 2636 193 
Q 2250 -91 1575 -91 
Q 1294 -91 989 -36 
Q 684 19 347 128 
L 347 722 
Q 666 556 975 473 
Q 1284 391 1588 391 
Q 1994 391 2212 530 
Q 2431 669 2431 922 
Q 2431 1156 2273 1281 
Q 2116 1406 1581 1522 
L 1381 1569 
Q 847 1681 609 1914 
Q 372 2147 372 2553 
Q 372 3047 722 3315 
Q 1072 3584 1716 3584 
Q 2034 3584 2315 3537 
Q 2597 3491 2834 3397 
z
" transform="scale(0.015625)"/>
      </defs>
      <use xlink:href="#DejaVuSans-46"/>
      <use xlink:href="#DejaVuSans-72" x="50.269531"/>
      <use xlink:href="#DejaVuSans-61" x="91.382812"/>
      <use xlink:href="#DejaVuSans-63" x="152.662109"/>
      <use xlink:href="#DejaVuSans-74" x="207.642578"/>
      <use xlink:href="#DejaVuSans-69" x="246.851562"/>
      <use xlink:href="#DejaVuSans-6f" x="274.634766"/>
      <use xlink:href="#DejaVuSans-6e" x="335.816406"/>
      <use xlink:href="#DejaVuSans-20" x="399.195312"/>
      <use xlink:href="#DejaVuSans-6f" x="430.982422"/>
      <use xlink:href="#DejaVuSans-66" x="492.164062"/>
      <use xlink:href="#DejaVuSans-20" x="527.369141"/>
      <use xlink:href="#DejaVuSans-63" x="559.15625"/>
      <use xlink:href="#DejaVuSans-65" x="614.136719"/>
      <use xlink:href="#DejaVuSans-6c" x="675.660156"/>
      <use xlink:href="#DejaVuSans-6c" x="703.443359"/>
      <use xlink:href="#DejaVuSans-73" x="731.226562"/>
     </g>
    </g>
   </g>
   <g id="line2d_15">
    <path d="M -1 259.348811 
L 0.607005 259.093183 
L 4.629731 258.034487 
L 8.652457 256.357932 
L 12.675183 253.817555 
L 16.697909 250.136238 
L 20.720635 245.037679 
L 24.743361 238.294797 
L 28.766087 229.789769 
L 32.788813 219.57509 
L 36.811539 207.92038 
L 48.879717 170.300121 
L 52.902443 159.565266 
L 56.925169 151.056082 
L 60.947895 145.299632 
L 64.970621 142.519181 
L 68.993347 142.612464 
L 73.016073 145.189523 
L 77.038799 149.657514 
L 81.061525 155.329216 
L 89.106977 167.678962 
L 93.129703 173.345788 
L 97.152429 178.263984 
L 101.175155 182.326893 
L 105.197881 185.563535 
L 109.220607 188.105258 
L 113.243333 190.147185 
L 129.334237 197.292885 
L 133.356962 199.436047 
L 141.402414 204.206813 
L 153.470592 211.601215 
L 157.493318 213.865581 
L 161.516044 215.91985 
L 165.53877 217.693801 
L 169.561496 219.124575 
L 173.584222 220.174644 
L 177.606948 220.851432 
L 181.629674 221.220438 
L 189.675126 221.570858 
L 193.697852 221.897024 
L 197.720578 222.543152 
L 201.743304 223.619897 
L 205.76603 225.17146 
L 209.788756 227.173393 
L 213.811482 229.544587 
L 221.856934 234.917566 
L 229.902386 240.341659 
L 233.925112 242.857408 
L 237.947838 245.184673 
L 241.970564 247.310823 
L 245.99329 249.239048 
L 250.016016 250.980772 
L 254.038742 252.549405 
L 258.061468 253.956187 
L 262.084194 255.208322 
L 266.10692 256.309197 
L 270.129646 257.26012 
L 274.152372 258.062786 
L 278.175098 258.721612 
L 282.197824 259.245236 
L 290.243276 259.943212 
L 298.288728 260.296005 
L 310.356906 260.481103 
L 338.515988 260.521706 
L 577 260.521875 
L 577 260.521875 
" clip-path="url(#pc019749903)" style="fill: none; stroke: #1f77b4; stroke-width: 1.5; stroke-linecap: square"/>
   </g>
   <g id="line2d_16">
    <path d="M -1 260.518982 
L 20.720635 260.444415 
L 32.788813 260.210252 
L 40.834265 259.863366 
L 48.879717 259.308849 
L 56.925169 258.550112 
L 64.970621 257.625528 
L 73.016073 256.512454 
L 77.038799 255.823719 
L 81.061525 254.975576 
L 85.084251 253.888184 
L 89.106977 252.463878 
L 93.129703 250.593785 
L 97.152429 248.167394 
L 101.175155 245.084288 
L 105.197881 241.266942 
L 109.220607 236.673223 
L 113.243333 231.30699 
L 117.266059 225.225196 
L 121.288785 218.540189 
L 125.311511 211.416629 
L 133.356962 196.72243 
L 137.379688 189.654878 
L 141.402414 183.128952 
L 145.42514 177.407577 
L 149.447866 172.736908 
L 153.470592 169.333702 
L 157.493318 167.370136 
L 161.516044 166.955788 
L 165.53877 168.118446 
L 169.561496 170.787373 
L 173.584222 174.78374 
L 177.606948 179.822448 
L 181.629674 185.527654 
L 185.6524 191.46136 
L 189.675126 197.161544 
L 193.697852 202.184276 
L 197.720578 206.143592 
L 201.743304 208.74381 
L 205.76603 209.800873 
L 209.788756 209.251714 
L 213.811482 207.152749 
L 217.834208 203.669939 
L 221.856934 199.06324 
L 225.87966 193.667714 
L 233.925112 182.09903 
L 237.947838 176.775488 
L 241.970564 172.31256 
L 245.99329 169.076277 
L 250.016016 167.362484 
L 254.038742 167.374187 
L 258.061468 169.204431 
L 262.084194 172.827084 
L 266.10692 178.097355 
L 270.129646 184.762982 
L 274.152372 192.485839 
L 282.197824 209.509316 
L 286.22055 218.001581 
L 290.243276 226.005379 
L 294.266002 233.254098 
L 298.288728 239.572568 
L 302.311454 244.87901 
L 306.33418 249.175797 
L 310.356906 252.531997 
L 314.379632 255.061709 
L 318.402358 256.902184 
L 322.425084 258.194935 
L 326.44781 259.071732 
L 330.470536 259.646033 
L 334.493262 260.009347 
L 342.538714 260.36239 
L 354.606892 260.500157 
L 398.856878 260.521874 
L 577 260.521875 
L 577 260.521875 
" clip-path="url(#pc019749903)" style="fill: none; stroke: #ff7f0e; stroke-width: 1.5; stroke-linecap: square"/>
   </g>
   <g id="line2d_17">
    <path d="M -1 260.52185 
L 32.788813 260.444865 
L 40.834265 260.214474 
L 44.856991 259.953834 
L 48.879717 259.524007 
L 52.902443 258.852993 
L 56.925169 257.859508 
L 60.947895 256.460527 
L 64.970621 254.579068 
L 68.993347 252.148157 
L 73.016073 249.107183 
L 77.038799 245.38966 
L 81.061525 240.90635 
L 85.084251 235.532895 
L 89.106977 229.113447 
L 93.129703 221.488982 
L 97.152429 212.550757 
L 101.175155 202.308389 
L 105.197881 190.952905 
L 113.243333 166.741459 
L 117.266059 155.26268 
L 121.288785 145.261479 
L 125.311511 137.461322 
L 129.334237 132.382365 
L 133.356962 130.252634 
L 137.379688 130.973413 
L 141.402414 134.14878 
L 145.42514 139.173128 
L 149.447866 145.354041 
L 157.493318 158.697914 
L 161.516044 164.983334 
L 165.53877 170.695474 
L 169.561496 175.742835 
L 173.584222 180.08422 
L 177.606948 183.692152 
L 181.629674 186.547115 
L 185.6524 188.657183 
L 189.675126 190.086358 
L 193.697852 190.973591 
L 205.76603 192.732669 
L 209.788756 193.909807 
L 213.811482 195.748502 
L 217.834208 198.353069 
L 221.856934 201.728951 
L 225.87966 205.789827 
L 229.902386 210.381785 
L 237.947838 220.417705 
L 245.99329 230.524901 
L 250.016016 235.327547 
L 254.038742 239.856832 
L 258.061468 244.03545 
L 262.084194 247.783748 
L 266.10692 251.030031 
L 270.129646 253.726716 
L 274.152372 255.86372 
L 278.175098 257.472608 
L 282.197824 258.620036 
L 286.22055 259.393695 
L 290.243276 259.886242 
L 294.266002 260.182103 
L 302.311454 260.439226 
L 318.402358 260.519341 
L 577 260.521875 
L 577 260.521875 
" clip-path="url(#pc019749903)" style="fill: none; stroke: #2ca02c; stroke-width: 1.5; stroke-linecap: square"/>
   </g>
   <g id="patch_63">
    <path d="M 41.711875 260.521875 
L 41.711875 27.437812 
" style="fill: none; stroke: #000000; stroke-width: 0.8; stroke-linejoin: miter; stroke-linecap: square"/>
   </g>
   <g id="patch_64">
    <path d="M 284.529831 260.521875 
L 284.529831 27.437812 
" style="fill: none; stroke: #000000; stroke-width: 0.8; stroke-linejoin: miter; stroke-linecap: square"/>
   </g>
   <g id="patch_65">
    <path d="M 41.711875 260.521875 
L 284.529831 260.521875 
" style="fill: none; stroke: #000000; stroke-width: 0.8; stroke-linejoin: miter; stroke-linecap: square"/>
   </g>
   <g id="patch_66">
    <path d="M 41.711875 27.437812 
L 284.529831 27.437812 
" style="fill: none; stroke: #000000; stroke-width: 0.8; stroke-linejoin: miter; stroke-linecap: square"/>
   </g>
   <g id="text_16">
    <!-- SRV -->
    <g transform="translate(149.409603 21.437813) scale(0.14 -0.14)">
     <defs>
      <path id="DejaVuSans-53" d="M 3425 4513 
L 3425 3897 
Q 3066 4069 2747 4153 
Q 2428 4238 2131 4238 
Q 1616 4238 1336 4038 
Q 1056 3838 1056 3469 
Q 1056 3159 1242 3001 
Q 1428 2844 1947 2747 
L 2328 2669 
Q 3034 2534 3370 2195 
Q 3706 1856 3706 1288 
Q 3706 609 3251 259 
Q 2797 -91 1919 -91 
Q 1588 -91 1214 -16 
Q 841 59 441 206 
L 441 856 
Q 825 641 1194 531 
Q 1563 422 1919 422 
Q 2459 422 2753 634 
Q 3047 847 3047 1241 
Q 3047 1584 2836 1778 
Q 2625 1972 2144 2069 
L 1759 2144 
Q 1053 2284 737 2584 
Q 422 2884 422 3419 
Q 422 4038 858 4394 
Q 1294 4750 2059 4750 
Q 2388 4750 2728 4690 
Q 3069 4631 3425 4513 
z
" transform="scale(0.015625)"/>
      <path id="DejaVuSans-52" d="M 2841 2188 
Q 3044 2119 3236 1894 
Q 3428 1669 3622 1275 
L 4263 0 
L 3584 0 
L 2988 1197 
Q 2756 1666 2539 1819 
Q 2322 1972 1947 1972 
L 1259 1972 
L 1259 0 
L 628 0 
L 628 4666 
L 2053 4666 
Q 2853 4666 3247 4331 
Q 3641 3997 3641 3322 
Q 3641 2881 3436 2590 
Q 3231 2300 2841 2188 
z
M 1259 4147 
L 1259 2491 
L 2053 2491 
Q 2509 2491 2742 2702 
Q 2975 2913 2975 3322 
Q 2975 3731 2742 3939 
Q 2509 4147 2053 4147 
L 1259 4147 
z
" transform="scale(0.015625)"/>
      <path id="DejaVuSans-56" d="M 1831 0 
L 50 4666 
L 709 4666 
L 2188 738 
L 3669 4666 
L 4325 4666 
L 2547 0 
L 1831 0 
z
" transform="scale(0.015625)"/>
     </defs>
     <use xlink:href="#DejaVuSans-53"/>
     <use xlink:href="#DejaVuSans-52" x="63.476562"/>
     <use xlink:href="#DejaVuSans-56" x="127.458984"/>
    </g>
   </g>
   <g id="legend_1">
    <g id="patch_67">
     <path d="M 196.140456 89.879062 
L 276.129831 89.879062 
Q 278.529831 89.879062 278.529831 87.479062 
L 278.529831 35.837812 
Q 278.529831 33.437812 276.129831 33.437812 
L 196.140456 33.437812 
Q 193.740456 33.437812 193.740456 35.837812 
L 193.740456 87.479062 
Q 193.740456 89.879062 196.140456 89.879062 
z
" style="fill: #ffffff; opacity: 0.8; stroke: #cccccc; stroke-linejoin: miter"/>
    </g>
    <g id="patch_68">
     <path d="M 198.540456 47.355937 
L 222.540456 47.355937 
L 222.540456 38.955937 
L 198.540456 38.955937 
z
" style="fill: #1f77b4; opacity: 0.4"/>
    </g>
    <g id="text_17">
     <!-- control -->
     <g transform="translate(232.140456 47.355937) scale(0.12 -0.12)">
      <use xlink:href="#DejaVuSans-63"/>
      <use xlink:href="#DejaVuSans-6f" x="54.980469"/>
      <use xlink:href="#DejaVuSans-6e" x="116.162109"/>
      <use xlink:href="#DejaVuSans-74" x="179.541016"/>
      <use xlink:href="#DejaVuSans-72" x="218.75"/>
      <use xlink:href="#DejaVuSans-6f" x="257.613281"/>
      <use xlink:href="#DejaVuSans-6c" x="318.794922"/>
     </g>
    </g>
    <g id="patch_69">
     <path d="M 198.540456 64.969687 
L 222.540456 64.969687 
L 222.540456 56.569687 
L 198.540456 56.569687 
z
" style="fill: #ff7f0e; opacity: 0.4"/>
    </g>
    <g id="text_18">
     <!-- cytd -->
     <g transform="translate(232.140456 64.969687) scale(0.12 -0.12)">
      <defs>
       <path id="DejaVuSans-79" d="M 2059 -325 
Q 1816 -950 1584 -1140 
Q 1353 -1331 966 -1331 
L 506 -1331 
L 506 -850 
L 844 -850 
Q 1081 -850 1212 -737 
Q 1344 -625 1503 -206 
L 1606 56 
L 191 3500 
L 800 3500 
L 1894 763 
L 2988 3500 
L 3597 3500 
L 2059 -325 
z
" transform="scale(0.015625)"/>
       <path id="DejaVuSans-64" d="M 2906 2969 
L 2906 4863 
L 3481 4863 
L 3481 0 
L 2906 0 
L 2906 525 
Q 2725 213 2448 61 
Q 2172 -91 1784 -91 
Q 1150 -91 751 415 
Q 353 922 353 1747 
Q 353 2572 751 3078 
Q 1150 3584 1784 3584 
Q 2172 3584 2448 3432 
Q 2725 3281 2906 2969 
z
M 947 1747 
Q 947 1113 1208 752 
Q 1469 391 1925 391 
Q 2381 391 2643 752 
Q 2906 1113 2906 1747 
Q 2906 2381 2643 2742 
Q 2381 3103 1925 3103 
Q 1469 3103 1208 2742 
Q 947 2381 947 1747 
z
" transform="scale(0.015625)"/>
      </defs>
      <use xlink:href="#DejaVuSans-63"/>
      <use xlink:href="#DejaVuSans-79" x="54.980469"/>
      <use xlink:href="#DejaVuSans-74" x="114.160156"/>
      <use xlink:href="#DejaVuSans-64" x="153.369141"/>
     </g>
    </g>
    <g id="patch_70">
     <path d="M 198.540456 82.583437 
L 222.540456 82.583437 
L 222.540456 74.183437 
L 198.540456 74.183437 
z
" style="fill: #2ca02c; opacity: 0.4"/>
    </g>
    <g id="text_19">
     <!-- jasp -->
     <g transform="translate(232.140456 82.583437) scale(0.12 -0.12)">
      <defs>
       <path id="DejaVuSans-6a" d="M 603 3500 
L 1178 3500 
L 1178 -63 
Q 1178 -731 923 -1031 
Q 669 -1331 103 -1331 
L -116 -1331 
L -116 -844 
L 38 -844 
Q 366 -844 484 -692 
Q 603 -541 603 -63 
L 603 3500 
z
M 603 4863 
L 1178 4863 
L 1178 4134 
L 603 4134 
L 603 4863 
z
" transform="scale(0.015625)"/>
       <path id="DejaVuSans-70" d="M 1159 525 
L 1159 -1331 
L 581 -1331 
L 581 3500 
L 1159 3500 
L 1159 2969 
Q 1341 3281 1617 3432 
Q 1894 3584 2278 3584 
Q 2916 3584 3314 3078 
Q 3713 2572 3713 1747 
Q 3713 922 3314 415 
Q 2916 -91 2278 -91 
Q 1894 -91 1617 61 
Q 1341 213 1159 525 
z
M 3116 1747 
Q 3116 2381 2855 2742 
Q 2594 3103 2138 3103 
Q 1681 3103 1420 2742 
Q 1159 2381 1159 1747 
Q 1159 1113 1420 752 
Q 1681 391 2138 391 
Q 2594 391 2855 752 
Q 3116 1113 3116 1747 
z
" transform="scale(0.015625)"/>
      </defs>
      <use xlink:href="#DejaVuSans-6a"/>
      <use xlink:href="#DejaVuSans-61" x="27.783203"/>
      <use xlink:href="#DejaVuSans-73" x="89.0625"/>
      <use xlink:href="#DejaVuSans-70" x="141.162109"/>
     </g>
    </g>
   </g>
  </g>
  <g id="axes_2">
   <g id="patch_71">
    <path d="M 322.382044 260.521875 
L 565.2 260.521875 
L 565.2 27.437812 
L 322.382044 27.437812 
z
" style="fill: #ffffff"/>
   </g>
   <g id="patch_72">
    <path d="M 327.851199 260.521875 
L 336.601762 260.521875 
L 336.601762 258.108091 
L 327.851199 258.108091 
z
" clip-path="url(#p24b14568f2)" style="fill: #1f77b4; opacity: 0.4"/>
   </g>
   <g id="patch_73">
    <path d="M 336.601762 260.521875 
L 345.352326 260.521875 
L 345.352326 258.108091 
L 336.601762 258.108091 
z
" clip-path="url(#p24b14568f2)" style="fill: #1f77b4; opacity: 0.4"/>
   </g>
   <g id="patch_74">
    <path d="M 345.352326 260.521875 
L 354.10289 260.521875 
L 354.10289 248.452953 
L 345.352326 248.452953 
z
" clip-path="url(#p24b14568f2)" style="fill: #1f77b4; opacity: 0.4"/>
   </g>
   <g id="patch_75">
    <path d="M 354.10289 260.521875 
L 362.853453 260.521875 
L 362.853453 253.280522 
L 354.10289 253.280522 
z
" clip-path="url(#p24b14568f2)" style="fill: #1f77b4; opacity: 0.4"/>
   </g>
   <g id="patch_76">
    <path d="M 362.853453 260.521875 
L 371.604017 260.521875 
L 371.604017 246.039168 
L 362.853453 246.039168 
z
" clip-path="url(#p24b14568f2)" style="fill: #1f77b4; opacity: 0.4"/>
   </g>
   <g id="patch_77">
    <path d="M 371.604017 260.521875 
L 380.354581 260.521875 
L 380.354581 246.039168 
L 371.604017 246.039168 
z
" clip-path="url(#p24b14568f2)" style="fill: #1f77b4; opacity: 0.4"/>
   </g>
   <g id="patch_78">
    <path d="M 380.354581 260.521875 
L 389.105145 260.521875 
L 389.105145 236.384031 
L 380.354581 236.384031 
z
" clip-path="url(#p24b14568f2)" style="fill: #1f77b4; opacity: 0.4"/>
   </g>
   <g id="patch_79">
    <path d="M 389.105145 260.521875 
L 397.855708 260.521875 
L 397.855708 229.142677 
L 389.105145 229.142677 
z
" clip-path="url(#p24b14568f2)" style="fill: #1f77b4; opacity: 0.4"/>
   </g>
   <g id="patch_80">
    <path d="M 397.855708 260.521875 
L 406.606272 260.521875 
L 406.606272 217.073755 
L 397.855708 217.073755 
z
" clip-path="url(#p24b14568f2)" style="fill: #1f77b4; opacity: 0.4"/>
   </g>
   <g id="patch_81">
    <path d="M 406.606272 260.521875 
L 415.356836 260.521875 
L 415.356836 207.418617 
L 406.606272 207.418617 
z
" clip-path="url(#p24b14568f2)" style="fill: #1f77b4; opacity: 0.4"/>
   </g>
   <g id="patch_82">
    <path d="M 415.356836 260.521875 
L 424.107399 260.521875 
L 424.107399 214.659971 
L 415.356836 214.659971 
z
" clip-path="url(#p24b14568f2)" style="fill: #1f77b4; opacity: 0.4"/>
   </g>
   <g id="patch_83">
    <path d="M 424.107399 260.521875 
L 432.857963 260.521875 
L 432.857963 226.728893 
L 424.107399 226.728893 
z
" clip-path="url(#p24b14568f2)" style="fill: #1f77b4; opacity: 0.4"/>
   </g>
   <g id="patch_84">
    <path d="M 432.857963 260.521875 
L 441.608527 260.521875 
L 441.608527 212.246186 
L 432.857963 212.246186 
z
" clip-path="url(#p24b14568f2)" style="fill: #1f77b4; opacity: 0.4"/>
   </g>
   <g id="patch_85">
    <path d="M 441.608527 260.521875 
L 450.359091 260.521875 
L 450.359091 221.901324 
L 441.608527 221.901324 
z
" clip-path="url(#p24b14568f2)" style="fill: #1f77b4; opacity: 0.4"/>
   </g>
   <g id="patch_86">
    <path d="M 450.359091 260.521875 
L 459.109654 260.521875 
L 459.109654 209.832402 
L 450.359091 209.832402 
z
" clip-path="url(#p24b14568f2)" style="fill: #1f77b4; opacity: 0.4"/>
   </g>
   <g id="patch_87">
    <path d="M 459.109654 260.521875 
L 467.860218 260.521875 
L 467.860218 233.970246 
L 459.109654 233.970246 
z
" clip-path="url(#p24b14568f2)" style="fill: #1f77b4; opacity: 0.4"/>
   </g>
   <g id="patch_88">
    <path d="M 467.860218 260.521875 
L 476.610782 260.521875 
L 476.610782 236.384031 
L 467.860218 236.384031 
z
" clip-path="url(#p24b14568f2)" style="fill: #1f77b4; opacity: 0.4"/>
   </g>
   <g id="patch_89">
    <path d="M 476.610782 260.521875 
L 485.361345 260.521875 
L 485.361345 250.866737 
L 476.610782 250.866737 
z
" clip-path="url(#p24b14568f2)" style="fill: #1f77b4; opacity: 0.4"/>
   </g>
   <g id="patch_90">
    <path d="M 485.361345 260.521875 
L 494.111909 260.521875 
L 494.111909 253.280522 
L 485.361345 253.280522 
z
" clip-path="url(#p24b14568f2)" style="fill: #1f77b4; opacity: 0.4"/>
   </g>
   <g id="patch_91">
    <path d="M 494.111909 260.521875 
L 502.862473 260.521875 
L 502.862473 258.108091 
L 494.111909 258.108091 
z
" clip-path="url(#p24b14568f2)" style="fill: #1f77b4; opacity: 0.4"/>
   </g>
   <g id="patch_92">
    <path d="M 322.382044 260.521875 
L 331.599476 260.521875 
L 331.599476 255.495304 
L 322.382044 255.495304 
z
" clip-path="url(#p24b14568f2)" style="fill: #ff7f0e; opacity: 0.4"/>
   </g>
   <g id="patch_93">
    <path d="M 331.599476 260.521875 
L 340.816908 260.521875 
L 340.816908 215.282739 
L 331.599476 215.282739 
z
" clip-path="url(#p24b14568f2)" style="fill: #ff7f0e; opacity: 0.4"/>
   </g>
   <g id="patch_94">
    <path d="M 340.816908 260.521875 
L 350.03434 260.521875 
L 350.03434 230.362451 
L 340.816908 230.362451 
z
" clip-path="url(#p24b14568f2)" style="fill: #ff7f0e; opacity: 0.4"/>
   </g>
   <g id="patch_95">
    <path d="M 350.03434 260.521875 
L 359.251772 260.521875 
L 359.251772 215.282739 
L 350.03434 215.282739 
z
" clip-path="url(#p24b14568f2)" style="fill: #ff7f0e; opacity: 0.4"/>
   </g>
   <g id="patch_96">
    <path d="M 359.251772 260.521875 
L 368.469204 260.521875 
L 368.469204 220.30931 
L 359.251772 220.30931 
z
" clip-path="url(#p24b14568f2)" style="fill: #ff7f0e; opacity: 0.4"/>
   </g>
   <g id="patch_97">
    <path d="M 368.469204 260.521875 
L 377.686636 260.521875 
L 377.686636 185.123316 
L 368.469204 185.123316 
z
" clip-path="url(#p24b14568f2)" style="fill: #ff7f0e; opacity: 0.4"/>
   </g>
   <g id="patch_98">
    <path d="M 377.686636 260.521875 
L 386.904068 260.521875 
L 386.904068 180.096745 
L 377.686636 180.096745 
z
" clip-path="url(#p24b14568f2)" style="fill: #ff7f0e; opacity: 0.4"/>
   </g>
   <g id="patch_99">
    <path d="M 386.904068 260.521875 
L 396.1215 260.521875 
L 396.1215 225.335881 
L 386.904068 225.335881 
z
" clip-path="url(#p24b14568f2)" style="fill: #ff7f0e; opacity: 0.4"/>
   </g>
   <g id="patch_100">
    <path d="M 396.1215 260.521875 
L 405.338932 260.521875 
L 405.338932 225.335881 
L 396.1215 225.335881 
z
" clip-path="url(#p24b14568f2)" style="fill: #ff7f0e; opacity: 0.4"/>
   </g>
   <g id="patch_101">
    <path d="M 405.338932 260.521875 
L 414.556364 260.521875 
L 414.556364 235.389022 
L 405.338932 235.389022 
z
" clip-path="url(#p24b14568f2)" style="fill: #ff7f0e; opacity: 0.4"/>
   </g>
   <g id="patch_102">
    <path d="M 414.556364 260.521875 
L 423.773797 260.521875 
L 423.773797 240.415592 
L 414.556364 240.415592 
z
" clip-path="url(#p24b14568f2)" style="fill: #ff7f0e; opacity: 0.4"/>
   </g>
   <g id="patch_103">
    <path d="M 423.773797 260.521875 
L 432.991229 260.521875 
L 432.991229 250.468734 
L 423.773797 250.468734 
z
" clip-path="url(#p24b14568f2)" style="fill: #ff7f0e; opacity: 0.4"/>
   </g>
   <g id="patch_104">
    <path d="M 432.991229 260.521875 
L 442.208661 260.521875 
L 442.208661 255.495304 
L 432.991229 255.495304 
z
" clip-path="url(#p24b14568f2)" style="fill: #ff7f0e; opacity: 0.4"/>
   </g>
   <g id="patch_105">
    <path d="M 442.208661 260.521875 
L 451.426093 260.521875 
L 451.426093 260.521875 
L 442.208661 260.521875 
z
" clip-path="url(#p24b14568f2)" style="fill: #ff7f0e; opacity: 0.4"/>
   </g>
   <g id="patch_106">
    <path d="M 451.426093 260.521875 
L 460.643525 260.521875 
L 460.643525 255.495304 
L 451.426093 255.495304 
z
" clip-path="url(#p24b14568f2)" style="fill: #ff7f0e; opacity: 0.4"/>
   </g>
   <g id="patch_107">
    <path d="M 460.643525 260.521875 
L 469.860957 260.521875 
L 469.860957 255.495304 
L 460.643525 255.495304 
z
" clip-path="url(#p24b14568f2)" style="fill: #ff7f0e; opacity: 0.4"/>
   </g>
   <g id="patch_108">
    <path d="M 469.860957 260.521875 
L 479.078389 260.521875 
L 479.078389 260.521875 
L 469.860957 260.521875 
z
" clip-path="url(#p24b14568f2)" style="fill: #ff7f0e; opacity: 0.4"/>
   </g>
   <g id="patch_109">
    <path d="M 479.078389 260.521875 
L 488.295821 260.521875 
L 488.295821 260.521875 
L 479.078389 260.521875 
z
" clip-path="url(#p24b14568f2)" style="fill: #ff7f0e; opacity: 0.4"/>
   </g>
   <g id="patch_110">
    <path d="M 488.295821 260.521875 
L 497.513253 260.521875 
L 497.513253 260.521875 
L 488.295821 260.521875 
z
" clip-path="url(#p24b14568f2)" style="fill: #ff7f0e; opacity: 0.4"/>
   </g>
   <g id="patch_111">
    <path d="M 497.513253 260.521875 
L 506.730685 260.521875 
L 506.730685 255.495304 
L 497.513253 255.495304 
z
" clip-path="url(#p24b14568f2)" style="fill: #ff7f0e; opacity: 0.4"/>
   </g>
   <g id="patch_112">
    <path d="M 329.219705 260.521875 
L 337.11122 260.521875 
L 337.11122 249.026829 
L 329.219705 249.026829 
z
" clip-path="url(#p24b14568f2)" style="fill: #2ca02c; opacity: 0.4"/>
   </g>
   <g id="patch_113">
    <path d="M 337.11122 260.521875 
L 345.002735 260.521875 
L 345.002735 254.774352 
L 337.11122 254.774352 
z
" clip-path="url(#p24b14568f2)" style="fill: #2ca02c; opacity: 0.4"/>
   </g>
   <g id="patch_114">
    <path d="M 345.002735 260.521875 
L 352.89425 260.521875 
L 352.89425 231.784261 
L 345.002735 231.784261 
z
" clip-path="url(#p24b14568f2)" style="fill: #2ca02c; opacity: 0.4"/>
   </g>
   <g id="patch_115">
    <path d="M 352.89425 260.521875 
L 360.785764 260.521875 
L 360.785764 243.279306 
L 352.89425 243.279306 
z
" clip-path="url(#p24b14568f2)" style="fill: #2ca02c; opacity: 0.4"/>
   </g>
   <g id="patch_116">
    <path d="M 360.785764 260.521875 
L 368.677279 260.521875 
L 368.677279 237.531784 
L 360.785764 237.531784 
z
" clip-path="url(#p24b14568f2)" style="fill: #2ca02c; opacity: 0.4"/>
   </g>
   <g id="patch_117">
    <path d="M 368.677279 260.521875 
L 376.568794 260.521875 
L 376.568794 203.046646 
L 368.677279 203.046646 
z
" clip-path="url(#p24b14568f2)" style="fill: #2ca02c; opacity: 0.4"/>
   </g>
   <g id="patch_118">
    <path d="M 376.568794 260.521875 
L 384.460309 260.521875 
L 384.460309 220.289215 
L 376.568794 220.289215 
z
" clip-path="url(#p24b14568f2)" style="fill: #2ca02c; opacity: 0.4"/>
   </g>
   <g id="patch_119">
    <path d="M 384.460309 260.521875 
L 392.351823 260.521875 
L 392.351823 231.784261 
L 384.460309 231.784261 
z
" clip-path="url(#p24b14568f2)" style="fill: #2ca02c; opacity: 0.4"/>
   </g>
   <g id="patch_120">
    <path d="M 392.351823 260.521875 
L 400.243338 260.521875 
L 400.243338 151.318941 
L 392.351823 151.318941 
z
" clip-path="url(#p24b14568f2)" style="fill: #2ca02c; opacity: 0.4"/>
   </g>
   <g id="patch_121">
    <path d="M 400.243338 260.521875 
L 408.134853 260.521875 
L 408.134853 237.531784 
L 400.243338 237.531784 
z
" clip-path="url(#p24b14568f2)" style="fill: #2ca02c; opacity: 0.4"/>
   </g>
   <g id="patch_122">
    <path d="M 408.134853 260.521875 
L 416.026367 260.521875 
L 416.026367 214.541692 
L 408.134853 214.541692 
z
" clip-path="url(#p24b14568f2)" style="fill: #2ca02c; opacity: 0.4"/>
   </g>
   <g id="patch_123">
    <path d="M 416.026367 260.521875 
L 423.917882 260.521875 
L 423.917882 220.289215 
L 416.026367 220.289215 
z
" clip-path="url(#p24b14568f2)" style="fill: #2ca02c; opacity: 0.4"/>
   </g>
   <g id="patch_124">
    <path d="M 423.917882 260.521875 
L 431.809397 260.521875 
L 431.809397 249.026829 
L 423.917882 249.026829 
z
" clip-path="url(#p24b14568f2)" style="fill: #2ca02c; opacity: 0.4"/>
   </g>
   <g id="patch_125">
    <path d="M 431.809397 260.521875 
L 439.700912 260.521875 
L 439.700912 214.541692 
L 431.809397 214.541692 
z
" clip-path="url(#p24b14568f2)" style="fill: #2ca02c; opacity: 0.4"/>
   </g>
   <g id="patch_126">
    <path d="M 439.700912 260.521875 
L 447.592426 260.521875 
L 447.592426 237.531784 
L 439.700912 237.531784 
z
" clip-path="url(#p24b14568f2)" style="fill: #2ca02c; opacity: 0.4"/>
   </g>
   <g id="patch_127">
    <path d="M 447.592426 260.521875 
L 455.483941 260.521875 
L 455.483941 254.774352 
L 447.592426 254.774352 
z
" clip-path="url(#p24b14568f2)" style="fill: #2ca02c; opacity: 0.4"/>
   </g>
   <g id="patch_128">
    <path d="M 455.483941 260.521875 
L 463.375456 260.521875 
L 463.375456 243.279306 
L 455.483941 243.279306 
z
" clip-path="url(#p24b14568f2)" style="fill: #2ca02c; opacity: 0.4"/>
   </g>
   <g id="patch_129">
    <path d="M 463.375456 260.521875 
L 471.266971 260.521875 
L 471.266971 254.774352 
L 463.375456 254.774352 
z
" clip-path="url(#p24b14568f2)" style="fill: #2ca02c; opacity: 0.4"/>
   </g>
   <g id="patch_130">
    <path d="M 471.266971 260.521875 
L 479.158485 260.521875 
L 479.158485 260.521875 
L 471.266971 260.521875 
z
" clip-path="url(#p24b14568f2)" style="fill: #2ca02c; opacity: 0.4"/>
   </g>
   <g id="patch_131">
    <path d="M 479.158485 260.521875 
L 487.05 260.521875 
L 487.05 254.774352 
L 479.158485 254.774352 
z
" clip-path="url(#p24b14568f2)" style="fill: #2ca02c; opacity: 0.4"/>
   </g>
   <g id="matplotlib.axis_3">
    <g id="xtick_8">
     <g id="line2d_18">
      <g>
       <use xlink:href="#m8321854d6b" x="328.964138" y="260.521875" style="stroke: #000000; stroke-width: 0.8"/>
      </g>
     </g>
     <g id="text_20">
      <!-- 1.00 -->
      <g transform="translate(317.831325 275.120313) scale(0.1 -0.1)">
       <use xlink:href="#DejaVuSans-31"/>
       <use xlink:href="#DejaVuSans-2e" x="63.623047"/>
       <use xlink:href="#DejaVuSans-30" x="95.410156"/>
       <use xlink:href="#DejaVuSans-30" x="159.033203"/>
      </g>
     </g>
    </g>
    <g id="xtick_9">
     <g id="line2d_19">
      <g>
       <use xlink:href="#m8321854d6b" x="360.781272" y="260.521875" style="stroke: #000000; stroke-width: 0.8"/>
      </g>
     </g>
     <g id="text_21">
      <!-- 1.25 -->
      <g transform="translate(349.64846 275.120313) scale(0.1 -0.1)">
       <use xlink:href="#DejaVuSans-31"/>
       <use xlink:href="#DejaVuSans-2e" x="63.623047"/>
       <use xlink:href="#DejaVuSans-32" x="95.410156"/>
       <use xlink:href="#DejaVuSans-35" x="159.033203"/>
      </g>
     </g>
    </g>
    <g id="xtick_10">
     <g id="line2d_20">
      <g>
       <use xlink:href="#m8321854d6b" x="392.598407" y="260.521875" style="stroke: #000000; stroke-width: 0.8"/>
      </g>
     </g>
     <g id="text_22">
      <!-- 1.50 -->
      <g transform="translate(381.465594 275.120313) scale(0.1 -0.1)">
       <use xlink:href="#DejaVuSans-31"/>
       <use xlink:href="#DejaVuSans-2e" x="63.623047"/>
       <use xlink:href="#DejaVuSans-35" x="95.410156"/>
       <use xlink:href="#DejaVuSans-30" x="159.033203"/>
      </g>
     </g>
    </g>
    <g id="xtick_11">
     <g id="line2d_21">
      <g>
       <use xlink:href="#m8321854d6b" x="424.415542" y="260.521875" style="stroke: #000000; stroke-width: 0.8"/>
      </g>
     </g>
     <g id="text_23">
      <!-- 1.75 -->
      <g transform="translate(413.282729 275.120313) scale(0.1 -0.1)">
       <use xlink:href="#DejaVuSans-31"/>
       <use xlink:href="#DejaVuSans-2e" x="63.623047"/>
       <use xlink:href="#DejaVuSans-37" x="95.410156"/>
       <use xlink:href="#DejaVuSans-35" x="159.033203"/>
      </g>
     </g>
    </g>
    <g id="xtick_12">
     <g id="line2d_22">
      <g>
       <use xlink:href="#m8321854d6b" x="456.232676" y="260.521875" style="stroke: #000000; stroke-width: 0.8"/>
      </g>
     </g>
     <g id="text_24">
      <!-- 2.00 -->
      <g transform="translate(445.099864 275.120313) scale(0.1 -0.1)">
       <use xlink:href="#DejaVuSans-32"/>
       <use xlink:href="#DejaVuSans-2e" x="63.623047"/>
       <use xlink:href="#DejaVuSans-30" x="95.410156"/>
       <use xlink:href="#DejaVuSans-30" x="159.033203"/>
      </g>
     </g>
    </g>
    <g id="xtick_13">
     <g id="line2d_23">
      <g>
       <use xlink:href="#m8321854d6b" x="488.049811" y="260.521875" style="stroke: #000000; stroke-width: 0.8"/>
      </g>
     </g>
     <g id="text_25">
      <!-- 2.25 -->
      <g transform="translate(476.916998 275.120313) scale(0.1 -0.1)">
       <use xlink:href="#DejaVuSans-32"/>
       <use xlink:href="#DejaVuSans-2e" x="63.623047"/>
       <use xlink:href="#DejaVuSans-32" x="95.410156"/>
       <use xlink:href="#DejaVuSans-35" x="159.033203"/>
      </g>
     </g>
    </g>
    <g id="xtick_14">
     <g id="line2d_24">
      <g>
       <use xlink:href="#m8321854d6b" x="519.866945" y="260.521875" style="stroke: #000000; stroke-width: 0.8"/>
      </g>
     </g>
     <g id="text_26">
      <!-- 2.50 -->
      <g transform="translate(508.734133 275.120313) scale(0.1 -0.1)">
       <use xlink:href="#DejaVuSans-32"/>
       <use xlink:href="#DejaVuSans-2e" x="63.623047"/>
       <use xlink:href="#DejaVuSans-35" x="95.410156"/>
       <use xlink:href="#DejaVuSans-30" x="159.033203"/>
      </g>
     </g>
    </g>
    <g id="xtick_15">
     <g id="line2d_25">
      <g>
       <use xlink:href="#m8321854d6b" x="551.68408" y="260.521875" style="stroke: #000000; stroke-width: 0.8"/>
      </g>
     </g>
     <g id="text_27">
      <!-- 2.75 -->
      <g transform="translate(540.551267 275.120313) scale(0.1 -0.1)">
       <use xlink:href="#DejaVuSans-32"/>
       <use xlink:href="#DejaVuSans-2e" x="63.623047"/>
       <use xlink:href="#DejaVuSans-37" x="95.410156"/>
       <use xlink:href="#DejaVuSans-35" x="159.033203"/>
      </g>
     </g>
    </g>
   </g>
   <g id="matplotlib.axis_4">
    <g id="ytick_8">
     <g id="line2d_26">
      <g>
       <use xlink:href="#m095f99778f" x="322.382044" y="260.521875" style="stroke: #000000; stroke-width: 0.8"/>
      </g>
     </g>
    </g>
    <g id="ytick_9">
     <g id="line2d_27">
      <g>
       <use xlink:href="#m095f99778f" x="322.382044" y="226.665253" style="stroke: #000000; stroke-width: 0.8"/>
      </g>
     </g>
    </g>
    <g id="ytick_10">
     <g id="line2d_28">
      <g>
       <use xlink:href="#m095f99778f" x="322.382044" y="192.808631" style="stroke: #000000; stroke-width: 0.8"/>
      </g>
     </g>
    </g>
    <g id="ytick_11">
     <g id="line2d_29">
      <g>
       <use xlink:href="#m095f99778f" x="322.382044" y="158.952008" style="stroke: #000000; stroke-width: 0.8"/>
      </g>
     </g>
    </g>
    <g id="ytick_12">
     <g id="line2d_30">
      <g>
       <use xlink:href="#m095f99778f" x="322.382044" y="125.095386" style="stroke: #000000; stroke-width: 0.8"/>
      </g>
     </g>
    </g>
    <g id="ytick_13">
     <g id="line2d_31">
      <g>
       <use xlink:href="#m095f99778f" x="322.382044" y="91.238764" style="stroke: #000000; stroke-width: 0.8"/>
      </g>
     </g>
    </g>
    <g id="ytick_14">
     <g id="line2d_32">
      <g>
       <use xlink:href="#m095f99778f" x="322.382044" y="57.382142" style="stroke: #000000; stroke-width: 0.8"/>
      </g>
     </g>
    </g>
    <g id="text_28">
     <!-- Fraction of cells -->
     <g transform="translate(311.970481 198.811719) rotate(-90) scale(0.14 -0.14)">
      <use xlink:href="#DejaVuSans-46"/>
      <use xlink:href="#DejaVuSans-72" x="50.269531"/>
      <use xlink:href="#DejaVuSans-61" x="91.382812"/>
      <use xlink:href="#DejaVuSans-63" x="152.662109"/>
      <use xlink:href="#DejaVuSans-74" x="207.642578"/>
      <use xlink:href="#DejaVuSans-69" x="246.851562"/>
      <use xlink:href="#DejaVuSans-6f" x="274.634766"/>
      <use xlink:href="#DejaVuSans-6e" x="335.816406"/>
      <use xlink:href="#DejaVuSans-20" x="399.195312"/>
      <use xlink:href="#DejaVuSans-6f" x="430.982422"/>
      <use xlink:href="#DejaVuSans-66" x="492.164062"/>
      <use xlink:href="#DejaVuSans-20" x="527.369141"/>
      <use xlink:href="#DejaVuSans-63" x="559.15625"/>
      <use xlink:href="#DejaVuSans-65" x="614.136719"/>
      <use xlink:href="#DejaVuSans-6c" x="675.660156"/>
      <use xlink:href="#DejaVuSans-6c" x="703.443359"/>
      <use xlink:href="#DejaVuSans-73" x="731.226562"/>
     </g>
    </g>
   </g>
   <g id="line2d_33">
    <path d="M 201.6956 260.521875 
L 303.896092 260.418129 
L 311.609337 260.156615 
L 317.394271 259.769419 
L 323.179204 259.18675 
L 328.964138 258.3795 
L 334.749071 257.283288 
L 340.534005 255.86203 
L 350.175561 253.104953 
L 357.888806 250.832025 
L 361.745428 249.511227 
L 365.60205 247.907457 
L 369.458673 245.938027 
L 373.315295 243.584339 
L 377.171918 240.880956 
L 381.02854 237.886967 
L 386.813473 232.990569 
L 396.455029 224.534267 
L 400.311652 221.554341 
L 402.239963 220.274824 
L 404.168274 219.177588 
L 406.096585 218.287735 
L 408.024896 217.621471 
L 409.953208 217.183321 
L 411.881519 216.964163 
L 413.80983 216.940524 
L 417.666452 217.321217 
L 423.451386 218.179732 
L 425.379697 218.342911 
L 427.308008 218.390717 
L 429.23632 218.315487 
L 433.092942 217.854168 
L 438.877875 216.955749 
L 440.806187 216.798632 
L 442.734498 216.792718 
L 444.662809 216.976334 
L 446.59112 217.378368 
L 448.519431 218.017257 
L 450.447743 218.900586 
L 452.376054 220.025107 
L 454.304365 221.377166 
L 456.232676 222.933587 
L 460.089299 226.528518 
L 465.874232 232.534773 
L 471.659166 238.425031 
L 475.515788 242.01423 
L 479.37241 245.288775 
L 483.229033 248.258728 
L 487.085655 250.921363 
L 490.942277 253.246445 
L 494.7989 255.194917 
L 498.655522 256.74868 
L 502.512145 257.92803 
L 506.368767 258.787259 
L 510.225389 259.395428 
L 514.082012 259.816907 
L 519.866945 260.204994 
L 527.58019 260.436925 
L 541.078368 260.518394 
L 577 260.521875 
L 577 260.521875 
" clip-path="url(#p24b14568f2)" style="fill: none; stroke: #1f77b4; stroke-width: 1.5; stroke-linecap: square"/>
   </g>
   <g id="line2d_34">
    <path d="M 201.6956 260.521875 
L 292.326225 260.420682 
L 298.111159 260.198196 
L 301.967781 259.874813 
L 305.824404 259.303404 
L 307.752715 258.884755 
L 309.681026 258.351969 
L 311.609337 257.684045 
L 313.537648 256.859562 
L 315.46596 255.858055 
L 317.394271 254.661772 
L 319.322582 253.257735 
L 321.250893 251.639873 
L 323.179204 249.810993 
L 325.107515 247.784235 
L 328.964138 243.243986 
L 338.605694 231.106583 
L 342.462316 226.87219 
L 346.318939 223.237951 
L 350.175561 220.06182 
L 355.960494 215.482255 
L 359.817117 212.140099 
L 369.458673 203.296137 
L 371.386984 201.925612 
L 373.315295 200.884465 
L 375.243606 200.249423 
L 377.171918 200.078771 
L 379.100229 200.406118 
L 381.02854 201.236724 
L 382.956851 202.546913 
L 384.885162 204.286624 
L 386.813473 206.384762 
L 388.741785 208.75655 
L 392.598407 213.963383 
L 398.383341 221.795281 
L 402.239963 226.499008 
L 406.096585 230.683246 
L 409.953208 234.421328 
L 413.80983 237.816882 
L 417.666452 240.944846 
L 421.523075 243.837779 
L 425.379697 246.492347 
L 429.23632 248.877672 
L 433.092942 250.945092 
L 436.949564 252.645932 
L 440.806187 253.956897 
L 444.662809 254.902555 
L 448.519431 255.561915 
L 456.232676 256.497862 
L 462.01761 257.262637 
L 477.444099 259.501182 
L 481.300722 259.783739 
L 485.157344 259.888404 
L 490.942277 259.754119 
L 506.368767 259.032098 
L 512.153701 259.168621 
L 519.866945 259.671194 
L 527.58019 260.158169 
L 535.293435 260.416133 
L 546.863302 260.513832 
L 577 260.521875 
L 577 260.521875 
" clip-path="url(#p24b14568f2)" style="fill: none; stroke: #ff7f0e; stroke-width: 1.5; stroke-linecap: square"/>
   </g>
   <g id="line2d_35">
    <path d="M 201.6956 260.521875 
L 298.111159 260.419041 
L 303.896092 260.215724 
L 309.681026 259.753047 
L 313.537648 259.220032 
L 317.394271 258.452299 
L 321.250893 257.412262 
L 325.107515 256.074229 
L 328.964138 254.424465 
L 332.82076 252.461891 
L 336.677383 250.201559 
L 340.534005 247.678346 
L 346.318939 243.518887 
L 354.032183 237.580612 
L 373.315295 222.288755 
L 381.02854 215.73084 
L 384.885162 212.512543 
L 386.813473 211.044649 
L 388.741785 209.742266 
L 390.670096 208.662361 
L 392.598407 207.858555 
L 394.526718 207.375851 
L 396.455029 207.246014 
L 398.383341 207.484233 
L 400.311652 208.087461 
L 402.239963 209.034573 
L 404.168274 210.288211 
L 406.096585 211.797954 
L 409.953208 215.343322 
L 415.738141 221.032893 
L 419.594764 224.464412 
L 421.523075 225.975919 
L 423.451386 227.338574 
L 427.308008 229.655828 
L 431.164631 231.593023 
L 436.949564 234.368095 
L 440.806187 236.448853 
L 444.662809 238.802937 
L 450.447743 242.678352 
L 458.160987 247.818992 
L 462.01761 250.162969 
L 465.874232 252.27507 
L 469.730854 254.100325 
L 473.587477 255.592452 
L 477.444099 256.737164 
L 481.300722 257.569106 
L 485.157344 258.1654 
L 490.942277 258.8141 
L 500.583833 259.667843 
L 508.297078 260.159723 
L 516.010323 260.412226 
L 527.58019 260.512512 
L 577 260.521875 
L 577 260.521875 
" clip-path="url(#p24b14568f2)" style="fill: none; stroke: #2ca02c; stroke-width: 1.5; stroke-linecap: square"/>
   </g>
   <g id="patch_132">
    <path d="M 322.382044 260.521875 
L 322.382044 27.437812 
" style="fill: none; stroke: #000000; stroke-width: 0.8; stroke-linejoin: miter; stroke-linecap: square"/>
   </g>
   <g id="patch_133">
    <path d="M 565.2 260.521875 
L 565.2 27.437812 
" style="fill: none; stroke: #000000; stroke-width: 0.8; stroke-linejoin: miter; stroke-linecap: square"/>
   </g>
   <g id="patch_134">
    <path d="M 322.382044 260.521875 
L 565.2 260.521875 
" style="fill: none; stroke: #000000; stroke-width: 0.8; stroke-linejoin: miter; stroke-linecap: square"/>
   </g>
   <g id="patch_135">
    <path d="M 322.382044 27.437812 
L 565.2 27.437812 
" style="fill: none; stroke: #000000; stroke-width: 0.8; stroke-linejoin: miter; stroke-linecap: square"/>
   </g>
   <g id="text_29">
    <!-- Linear -->
    <g transform="translate(422.035241 21.437813) scale(0.14 -0.14)">
     <defs>
      <path id="DejaVuSans-4c" d="M 628 4666 
L 1259 4666 
L 1259 531 
L 3531 531 
L 3531 0 
L 628 0 
L 628 4666 
z
" transform="scale(0.015625)"/>
     </defs>
     <use xlink:href="#DejaVuSans-4c"/>
     <use xlink:href="#DejaVuSans-69" x="55.712891"/>
     <use xlink:href="#DejaVuSans-6e" x="83.496094"/>
     <use xlink:href="#DejaVuSans-65" x="146.875"/>
     <use xlink:href="#DejaVuSans-61" x="208.398438"/>
     <use xlink:href="#DejaVuSans-72" x="269.677734"/>
    </g>
   </g>
   <g id="legend_2">
    <g id="patch_136">
     <path d="M 476.810625 89.879062 
L 556.8 89.879062 
Q 559.2 89.879062 559.2 87.479062 
L 559.2 35.837812 
Q 559.2 33.437812 556.8 33.437812 
L 476.810625 33.437812 
Q 474.410625 33.437812 474.410625 35.837812 
L 474.410625 87.479062 
Q 474.410625 89.879062 476.810625 89.879062 
z
" style="fill: #ffffff; opacity: 0.8; stroke: #cccccc; stroke-linejoin: miter"/>
    </g>
    <g id="patch_137">
     <path d="M 479.210625 47.355937 
L 503.210625 47.355937 
L 503.210625 38.955937 
L 479.210625 38.955937 
z
" style="fill: #1f77b4; opacity: 0.4"/>
    </g>
    <g id="text_30">
     <!-- control -->
     <g transform="translate(512.810625 47.355937) scale(0.12 -0.12)">
      <use xlink:href="#DejaVuSans-63"/>
      <use xlink:href="#DejaVuSans-6f" x="54.980469"/>
      <use xlink:href="#DejaVuSans-6e" x="116.162109"/>
      <use xlink:href="#DejaVuSans-74" x="179.541016"/>
      <use xlink:href="#DejaVuSans-72" x="218.75"/>
      <use xlink:href="#DejaVuSans-6f" x="257.613281"/>
      <use xlink:href="#DejaVuSans-6c" x="318.794922"/>
     </g>
    </g>
    <g id="patch_138">
     <path d="M 479.210625 64.969687 
L 503.210625 64.969687 
L 503.210625 56.569687 
L 479.210625 56.569687 
z
" style="fill: #ff7f0e; opacity: 0.4"/>
    </g>
    <g id="text_31">
     <!-- cytd -->
     <g transform="translate(512.810625 64.969687) scale(0.12 -0.12)">
      <use xlink:href="#DejaVuSans-63"/>
      <use xlink:href="#DejaVuSans-79" x="54.980469"/>
      <use xlink:href="#DejaVuSans-74" x="114.160156"/>
      <use xlink:href="#DejaVuSans-64" x="153.369141"/>
     </g>
    </g>
    <g id="patch_139">
     <path d="M 479.210625 82.583437 
L 503.210625 82.583437 
L 503.210625 74.183437 
L 479.210625 74.183437 
z
" style="fill: #2ca02c; opacity: 0.4"/>
    </g>
    <g id="text_32">
     <!-- jasp -->
     <g transform="translate(512.810625 82.583437) scale(0.12 -0.12)">
      <use xlink:href="#DejaVuSans-6a"/>
      <use xlink:href="#DejaVuSans-61" x="27.783203"/>
      <use xlink:href="#DejaVuSans-73" x="89.0625"/>
      <use xlink:href="#DejaVuSans-70" x="141.162109"/>
     </g>
    </g>
   </g>
  </g>
 </g>
 <defs>
  <clipPath id="pc019749903">
   <rect x="41.711875" y="27.437813" width="242.817956" height="233.084062"/>
  </clipPath>
  <clipPath id="p24b14568f2">
   <rect x="322.382044" y="27.437813" width="242.817956" height="233.084062"/>
  </clipPath>
 </defs>
</svg>
