<?xml version="1.0" encoding="utf-8" standalone="no"?>
<!DOCTYPE svg PUBLIC "-//W3C//DTD SVG 1.1//EN"
  "http://www.w3.org/Graphics/SVG/1.1/DTD/svg11.dtd">
<svg xmlns:xlink="http://www.w3.org/1999/xlink" width="540pt" height="288pt" viewBox="0 0 540 288" xmlns="http://www.w3.org/2000/svg" version="1.1">
 <metadata>
  <rdf:RDF xmlns:dc="http://purl.org/dc/elements/1.1/" xmlns:cc="http://creativecommons.org/ns#" xmlns:rdf="http://www.w3.org/1999/02/22-rdf-syntax-ns#">
   <cc:Work>
    <dc:type rdf:resource="http://purl.org/dc/dcmitype/StillImage"/>
    <dc:date>2024-04-15T20:28:19.140403</dc:date>
    <dc:format>image/svg+xml</dc:format>
    <dc:creator>
     <cc:Agent>
      <dc:title>Matplotlib v3.8.4, https://matplotlib.org/</dc:title>
     </cc:Agent>
    </dc:creator>
   </cc:Work>
  </rdf:RDF>
 </metadata>
 <defs>
  <style type="text/css">*{stroke-linejoin: round; stroke-linecap: butt}</style>
 </defs>
 <g id="figure_1">
  <g id="patch_1">
   <path d="M 0 288 
L 540 288 
L 540 0 
L 0 0 
z
" style="fill: #ffffff"/>
  </g>
  <g id="axes_1">
   <g id="line2d_1">
    <path d="M 123.513634 43.919744 
L 122.657181 44.371842 
L 120.2061 45.308077 
L 117.043075 45.619968 
L 113.496791 46.694063 
L 110.425377 47.807452 
L 109.114472 48.274416 
L 108.227916 48.757154 
L 103.682583 51.573105 
L 99.753449 54.640241 
L 93.633772 60.170947 
L 92.513401 61.509302 
L 91.535453 63.147007 
L 89.337542 66.595191 
L 88.377235 68.585161 
L 87.498111 70.717277 
L 85.297978 76.350478 
L 83.924703 82.895173 
L 83.630376 85.389706 
L 83.707033 87.81751 
L 84.113597 92.732663 
L 84.809949 97.473458 
L 85.815013 100.914942 
L 87.154552 104.30051 
L 90.291986 109.952038 
L 91.801868 112.190862 
L 92.608221 113.336538 
L 97.159499 118.624879 
L 100.145265 121.214567 
L 102.252593 122.716111 
L 105.894066 124.669619 
L 107.187451 125.366334 
L 114.287248 128.282382 
L 115.801722 128.786413 
L 122.044121 130.088773 
L 128.087118 130.68466 
L 131.157167 130.778182 
L 135.270025 130.328182 
L 139.246195 129.310131 
L 145.146797 127.278625 
L 149.829619 125.235179 
L 151.404334 124.438722 
L 155.942515 121.422691 
L 157.512315 120.387718 
L 160.334407 118.107645 
L 161.585116 116.89155 
L 163.846004 114.202827 
L 166.071886 111.088387 
L 168.110415 107.575378 
L 169.134259 105.623848 
L 170.96652 101.547614 
L 173.997917 91.959955 
L 174.457859 86.791413 
L 173.912132 80.636683 
L 173.230877 77.422333 
L 172.383357 74.562221 
L 171.180574 71.612484 
L 169.057857 67.298968 
L 166.421753 63.262646 
L 162.979202 58.659943 
L 158.995017 54.734581 
L 152.675977 50.185556 
L 146.031236 46.274635 
L 139.085586 42.826784 
L 130.110574 39.141818 
L 130.110574 39.141818 
" clip-path="url(#p7e049788ee)" style="fill: none; stroke: #1f77b4; stroke-width: 1.5; stroke-linecap: square"/>
   </g>
   <g id="text_1">
    <!-- SRV-control -->
    <g transform="translate(71.778493 28.56) scale(0.2 -0.2)">
     <defs>
      <path id="DejaVuSans-53" d="M 3425 4513 
L 3425 3897 
Q 3066 4069 2747 4153 
Q 2428 4238 2131 4238 
Q 1616 4238 1336 4038 
Q 1056 3838 1056 3469 
Q 1056 3159 1242 3001 
Q 1428 2844 1947 2747 
L 2328 2669 
Q 3034 2534 3370 2195 
Q 3706 1856 3706 1288 
Q 3706 609 3251 259 
Q 2797 -91 1919 -91 
Q 1588 -91 1214 -16 
Q 841 59 441 206 
L 441 856 
Q 825 641 1194 531 
Q 1563 422 1919 422 
Q 2459 422 2753 634 
Q 3047 847 3047 1241 
Q 3047 1584 2836 1778 
Q 2625 1972 2144 2069 
L 1759 2144 
Q 1053 2284 737 2584 
Q 422 2884 422 3419 
Q 422 4038 858 4394 
Q 1294 4750 2059 4750 
Q 2388 4750 2728 4690 
Q 3069 4631 3425 4513 
z
" transform="scale(0.015625)"/>
      <path id="DejaVuSans-52" d="M 2841 2188 
Q 3044 2119 3236 1894 
Q 3428 1669 3622 1275 
L 4263 0 
L 3584 0 
L 2988 1197 
Q 2756 1666 2539 1819 
Q 2322 1972 1947 1972 
L 1259 1972 
L 1259 0 
L 628 0 
L 628 4666 
L 2053 4666 
Q 2853 4666 3247 4331 
Q 3641 3997 3641 3322 
Q 3641 2881 3436 2590 
Q 3231 2300 2841 2188 
z
M 1259 4147 
L 1259 2491 
L 2053 2491 
Q 2509 2491 2742 2702 
Q 2975 2913 2975 3322 
Q 2975 3731 2742 3939 
Q 2509 4147 2053 4147 
L 1259 4147 
z
" transform="scale(0.015625)"/>
      <path id="DejaVuSans-56" d="M 1831 0 
L 50 4666 
L 709 4666 
L 2188 738 
L 3669 4666 
L 4325 4666 
L 2547 0 
L 1831 0 
z
" transform="scale(0.015625)"/>
      <path id="DejaVuSans-2d" d="M 313 2009 
L 1997 2009 
L 1997 1497 
L 313 1497 
L 313 2009 
z
" transform="scale(0.015625)"/>
      <path id="DejaVuSans-63" d="M 3122 3366 
L 3122 2828 
Q 2878 2963 2633 3030 
Q 2388 3097 2138 3097 
Q 1578 3097 1268 2742 
Q 959 2388 959 1747 
Q 959 1106 1268 751 
Q 1578 397 2138 397 
Q 2388 397 2633 464 
Q 2878 531 3122 666 
L 3122 134 
Q 2881 22 2623 -34 
Q 2366 -91 2075 -91 
Q 1284 -91 818 406 
Q 353 903 353 1747 
Q 353 2603 823 3093 
Q 1294 3584 2113 3584 
Q 2378 3584 2631 3529 
Q 2884 3475 3122 3366 
z
" transform="scale(0.015625)"/>
      <path id="DejaVuSans-6f" d="M 1959 3097 
Q 1497 3097 1228 2736 
Q 959 2375 959 1747 
Q 959 1119 1226 758 
Q 1494 397 1959 397 
Q 2419 397 2687 759 
Q 2956 1122 2956 1747 
Q 2956 2369 2687 2733 
Q 2419 3097 1959 3097 
z
M 1959 3584 
Q 2709 3584 3137 3096 
Q 3566 2609 3566 1747 
Q 3566 888 3137 398 
Q 2709 -91 1959 -91 
Q 1206 -91 779 398 
Q 353 888 353 1747 
Q 353 2609 779 3096 
Q 1206 3584 1959 3584 
z
" transform="scale(0.015625)"/>
      <path id="DejaVuSans-6e" d="M 3513 2113 
L 3513 0 
L 2938 0 
L 2938 2094 
Q 2938 2591 2744 2837 
Q 2550 3084 2163 3084 
Q 1697 3084 1428 2787 
Q 1159 2491 1159 1978 
L 1159 0 
L 581 0 
L 581 3500 
L 1159 3500 
L 1159 2956 
Q 1366 3272 1645 3428 
Q 1925 3584 2291 3584 
Q 2894 3584 3203 3211 
Q 3513 2838 3513 2113 
z
" transform="scale(0.015625)"/>
      <path id="DejaVuSans-74" d="M 1172 4494 
L 1172 3500 
L 2356 3500 
L 2356 3053 
L 1172 3053 
L 1172 1153 
Q 1172 725 1289 603 
Q 1406 481 1766 481 
L 2356 481 
L 2356 0 
L 1766 0 
Q 1100 0 847 248 
Q 594 497 594 1153 
L 594 3053 
L 172 3053 
L 172 3500 
L 594 3500 
L 594 4494 
L 1172 4494 
z
" transform="scale(0.015625)"/>
      <path id="DejaVuSans-72" d="M 2631 2963 
Q 2534 3019 2420 3045 
Q 2306 3072 2169 3072 
Q 1681 3072 1420 2755 
Q 1159 2438 1159 1844 
L 1159 0 
L 581 0 
L 581 3500 
L 1159 3500 
L 1159 2956 
Q 1341 3275 1631 3429 
Q 1922 3584 2338 3584 
Q 2397 3584 2469 3576 
Q 2541 3569 2628 3553 
L 2631 2963 
z
" transform="scale(0.015625)"/>
      <path id="DejaVuSans-6c" d="M 603 4863 
L 1178 4863 
L 1178 0 
L 603 0 
L 603 4863 
z
" transform="scale(0.015625)"/>
     </defs>
     <use xlink:href="#DejaVuSans-53"/>
     <use xlink:href="#DejaVuSans-52" x="63.476562"/>
     <use xlink:href="#DejaVuSans-56" x="127.458984"/>
     <use xlink:href="#DejaVuSans-2d" x="189.992188"/>
     <use xlink:href="#DejaVuSans-63" x="226.076172"/>
     <use xlink:href="#DejaVuSans-6f" x="281.056641"/>
     <use xlink:href="#DejaVuSans-6e" x="342.238281"/>
     <use xlink:href="#DejaVuSans-74" x="405.617188"/>
     <use xlink:href="#DejaVuSans-72" x="444.826172"/>
     <use xlink:href="#DejaVuSans-6f" x="483.689453"/>
     <use xlink:href="#DejaVuSans-6c" x="544.871094"/>
    </g>
   </g>
  </g>
  <g id="axes_2">
   <g id="line2d_2">
    <path d="M 279.976233 48.355102 
L 279.35568 49.120434 
L 278.221901 49.61184 
L 277.209078 49.261874 
L 276.178862 48.749181 
L 275.406805 48.546953 
L 273.810419 48.718908 
L 272.491493 48.104197 
L 271.707223 47.840065 
L 271.37748 47.694797 
L 270.570125 47.653306 
L 269.515325 47.512892 
L 269.010306 47.520134 
L 267.714356 47.826266 
L 265.434964 47.753479 
L 263.912037 47.561133 
L 261.624674 47.755216 
L 261.04854 47.983801 
L 259.26425 48.48527 
L 258.504768 48.740591 
L 256.171034 49.129256 
L 252.637311 50.419893 
L 250.583589 51.435246 
L 248.962498 52.49978 
L 246.660877 53.556542 
L 245.83206 53.99124 
L 240.75147 58.136615 
L 235.533543 61.046028 
L 233.366597 63.584909 
L 232.635969 64.679811 
L 232.220393 65.692462 
L 230.942185 70.427464 
L 230.75545 71.422955 
L 230.721225 72.356726 
L 231.018855 74.834896 
L 231.030869 76.914843 
L 230.725314 78.845624 
L 230.50711 79.97512 
L 230.879368 83.34185 
L 230.686928 85.761886 
L 230.785752 87.354344 
L 231.249222 88.636048 
L 231.759391 89.460731 
L 232.264168 90.559759 
L 232.578149 91.756615 
L 232.991312 94.19102 
L 233.301006 95.496583 
L 233.858067 96.507421 
L 236.00595 101.460309 
L 237.347546 103.557094 
L 239.617862 105.958539 
L 241.13953 107.947021 
L 242.809779 110.438149 
L 244.257575 112.966672 
L 246.337556 115.437225 
L 247.103147 116.797198 
L 248.086885 117.880446 
L 249.564802 118.612906 
L 250.935835 119.549508 
L 252.231786 120.61045 
L 254.963773 122.356183 
L 256.590257 122.941089 
L 259.649847 124.857079 
L 262.301163 126.561122 
L 265.117061 127.686087 
L 269.49383 129.436182 
L 270.887276 130.054417 
L 272.166475 130.42874 
L 281.061629 130.677076 
L 282.270419 130.482849 
L 283.557854 130.022262 
L 284.63117 129.955976 
L 285.894804 129.472865 
L 289.565143 128.732642 
L 292.931487 127.7976 
L 296.040233 126.764552 
L 298.928377 124.633212 
L 301.647191 123.352663 
L 306.174035 119.886731 
L 307.671473 119.098793 
L 313.995121 112.204352 
L 314.922934 110.838503 
L 315.963046 109.015519 
L 317.040656 107.694582 
L 318.471818 106.190184 
L 319.477514 104.655153 
L 320.110435 102.55972 
L 320.993196 100.745721 
L 321.999155 98.320661 
L 322.51947 95.143252 
L 322.375858 90.086066 
L 322.84015 87.061443 
L 322.797533 85.572472 
L 322.99289 84.161951 
L 322.426232 82.106117 
L 321.7413 79.118608 
L 320.499217 76.873354 
L 318.852585 74.430822 
L 316.401914 72.292691 
L 313.560433 68.723009 
L 306.671463 62.524773 
L 302.669183 59.602006 
L 297.133085 54.125634 
L 292.105321 47.654042 
L 286.436791 39.141818 
L 286.436791 39.141818 
" clip-path="url(#pfda149ebba)" style="fill: none; stroke: #ff7f0e; stroke-width: 1.5; stroke-linecap: square"/>
   </g>
   <g id="text_2">
    <!-- SRV-cytd -->
    <g transform="translate(232.45625 28.56) scale(0.2 -0.2)">
     <defs>
      <path id="DejaVuSans-79" d="M 2059 -325 
Q 1816 -950 1584 -1140 
Q 1353 -1331 966 -1331 
L 506 -1331 
L 506 -850 
L 844 -850 
Q 1081 -850 1212 -737 
Q 1344 -625 1503 -206 
L 1606 56 
L 191 3500 
L 800 3500 
L 1894 763 
L 2988 3500 
L 3597 3500 
L 2059 -325 
z
" transform="scale(0.015625)"/>
      <path id="DejaVuSans-64" d="M 2906 2969 
L 2906 4863 
L 3481 4863 
L 3481 0 
L 2906 0 
L 2906 525 
Q 2725 213 2448 61 
Q 2172 -91 1784 -91 
Q 1150 -91 751 415 
Q 353 922 353 1747 
Q 353 2572 751 3078 
Q 1150 3584 1784 3584 
Q 2172 3584 2448 3432 
Q 2725 3281 2906 2969 
z
M 947 1747 
Q 947 1113 1208 752 
Q 1469 391 1925 391 
Q 2381 391 2643 752 
Q 2906 1113 2906 1747 
Q 2906 2381 2643 2742 
Q 2381 3103 1925 3103 
Q 1469 3103 1208 2742 
Q 947 2381 947 1747 
z
" transform="scale(0.015625)"/>
     </defs>
     <use xlink:href="#DejaVuSans-53"/>
     <use xlink:href="#DejaVuSans-52" x="63.476562"/>
     <use xlink:href="#DejaVuSans-56" x="127.458984"/>
     <use xlink:href="#DejaVuSans-2d" x="189.992188"/>
     <use xlink:href="#DejaVuSans-63" x="226.076172"/>
     <use xlink:href="#DejaVuSans-79" x="281.056641"/>
     <use xlink:href="#DejaVuSans-74" x="340.236328"/>
     <use xlink:href="#DejaVuSans-64" x="379.445312"/>
    </g>
   </g>
  </g>
  <g id="axes_3">
   <g id="line2d_3">
    <path d="M 419.532696 48.151126 
L 419.098458 48.597683 
L 418.336366 48.848839 
L 417.163257 48.993401 
L 416.993498 49.033019 
L 416.483495 49.421462 
L 416.142859 49.69996 
L 415.328958 49.911683 
L 411.78245 50.193517 
L 410.888071 50.30368 
L 408.823965 50.195732 
L 407.634966 50.520932 
L 404.730953 51.70677 
L 402.468817 52.605553 
L 400.351786 54.404526 
L 398.020761 55.959335 
L 395.282067 57.94973 
L 394.036571 59.085715 
L 392.102766 60.508834 
L 391.47627 61.106661 
L 387.423331 66.190172 
L 385.805133 68.945287 
L 385.15862 70.836908 
L 383.979035 73.442712 
L 382.003317 78.049426 
L 381.802491 79.329051 
L 380.810999 82.788659 
L 380.565071 85.533829 
L 380.666717 89.570177 
L 380.713678 91.686056 
L 381.033832 93.919252 
L 381.580901 96.022735 
L 383.062454 98.931442 
L 383.696124 99.925194 
L 384.248214 101.138735 
L 384.579689 102.299309 
L 385.846052 104.332406 
L 388.528379 107.861018 
L 391.080189 111.055952 
L 392.121773 111.810606 
L 393.230846 112.889873 
L 394.677825 113.839015 
L 397.203647 115.856756 
L 398.22652 116.759416 
L 399.512518 117.547811 
L 401.821085 119.592172 
L 409.291561 124.423029 
L 410.68449 125.1739 
L 411.775322 125.924727 
L 413.273471 126.525178 
L 414.702898 127.32055 
L 420.415419 129.433596 
L 421.497963 129.906223 
L 424.285961 130.51477 
L 425.65478 130.595028 
L 427.149437 130.510466 
L 429.437012 130.777157 
L 430.584636 130.778182 
L 431.954494 130.617864 
L 438.987312 128.833464 
L 440.258455 128.490483 
L 444.331431 126.707544 
L 445.806017 125.944156 
L 450.003842 124.054989 
L 452.423773 122.385719 
L 458.003414 117.589488 
L 459.975914 115.338415 
L 462.222838 112.080872 
L 464.968099 107.095268 
L 466.669495 102.785215 
L 467.516598 100.954534 
L 468.094858 99.016327 
L 468.299558 96.945156 
L 468.317067 92.005455 
L 467.48958 85.903771 
L 467.502071 82.327581 
L 466.092703 76.471259 
L 464.271448 69.654112 
L 461.881367 67.179868 
L 459.451135 63.701404 
L 456.848192 60.931261 
L 453.230605 57.464285 
L 449.667589 55.5223 
L 444.640501 51.895363 
L 438.686763 46.517357 
L 431.368773 39.141818 
L 431.368773 39.141818 
" clip-path="url(#pb04006a662)" style="fill: none; stroke: #2ca02c; stroke-width: 1.5; stroke-linecap: square"/>
   </g>
   <g id="text_3">
    <!-- SRV-jasp -->
    <g transform="translate(381.384007 28.56) scale(0.2 -0.2)">
     <defs>
      <path id="DejaVuSans-6a" d="M 603 3500 
L 1178 3500 
L 1178 -63 
Q 1178 -731 923 -1031 
Q 669 -1331 103 -1331 
L -116 -1331 
L -116 -844 
L 38 -844 
Q 366 -844 484 -692 
Q 603 -541 603 -63 
L 603 3500 
z
M 603 4863 
L 1178 4863 
L 1178 4134 
L 603 4134 
L 603 4863 
z
" transform="scale(0.015625)"/>
      <path id="DejaVuSans-61" d="M 2194 1759 
Q 1497 1759 1228 1600 
Q 959 1441 959 1056 
Q 959 750 1161 570 
Q 1363 391 1709 391 
Q 2188 391 2477 730 
Q 2766 1069 2766 1631 
L 2766 1759 
L 2194 1759 
z
M 3341 1997 
L 3341 0 
L 2766 0 
L 2766 531 
Q 2569 213 2275 61 
Q 1981 -91 1556 -91 
Q 1019 -91 701 211 
Q 384 513 384 1019 
Q 384 1609 779 1909 
Q 1175 2209 1959 2209 
L 2766 2209 
L 2766 2266 
Q 2766 2663 2505 2880 
Q 2244 3097 1772 3097 
Q 1472 3097 1187 3025 
Q 903 2953 641 2809 
L 641 3341 
Q 956 3463 1253 3523 
Q 1550 3584 1831 3584 
Q 2591 3584 2966 3190 
Q 3341 2797 3341 1997 
z
" transform="scale(0.015625)"/>
      <path id="DejaVuSans-73" d="M 2834 3397 
L 2834 2853 
Q 2591 2978 2328 3040 
Q 2066 3103 1784 3103 
Q 1356 3103 1142 2972 
Q 928 2841 928 2578 
Q 928 2378 1081 2264 
Q 1234 2150 1697 2047 
L 1894 2003 
Q 2506 1872 2764 1633 
Q 3022 1394 3022 966 
Q 3022 478 2636 193 
Q 2250 -91 1575 -91 
Q 1294 -91 989 -36 
Q 684 19 347 128 
L 347 722 
Q 666 556 975 473 
Q 1284 391 1588 391 
Q 1994 391 2212 530 
Q 2431 669 2431 922 
Q 2431 1156 2273 1281 
Q 2116 1406 1581 1522 
L 1381 1569 
Q 847 1681 609 1914 
Q 372 2147 372 2553 
Q 372 3047 722 3315 
Q 1072 3584 1716 3584 
Q 2034 3584 2315 3537 
Q 2597 3491 2834 3397 
z
" transform="scale(0.015625)"/>
      <path id="DejaVuSans-70" d="M 1159 525 
L 1159 -1331 
L 581 -1331 
L 581 3500 
L 1159 3500 
L 1159 2969 
Q 1341 3281 1617 3432 
Q 1894 3584 2278 3584 
Q 2916 3584 3314 3078 
Q 3713 2572 3713 1747 
Q 3713 922 3314 415 
Q 2916 -91 2278 -91 
Q 1894 -91 1617 61 
Q 1341 213 1159 525 
z
M 3116 1747 
Q 3116 2381 2855 2742 
Q 2594 3103 2138 3103 
Q 1681 3103 1420 2742 
Q 1159 2381 1159 1747 
Q 1159 1113 1420 752 
Q 1681 391 2138 391 
Q 2594 391 2855 752 
Q 3116 1113 3116 1747 
z
" transform="scale(0.015625)"/>
     </defs>
     <use xlink:href="#DejaVuSans-53"/>
     <use xlink:href="#DejaVuSans-52" x="63.476562"/>
     <use xlink:href="#DejaVuSans-56" x="127.458984"/>
     <use xlink:href="#DejaVuSans-2d" x="189.992188"/>
     <use xlink:href="#DejaVuSans-6a" x="226.076172"/>
     <use xlink:href="#DejaVuSans-61" x="253.859375"/>
     <use xlink:href="#DejaVuSans-73" x="315.138672"/>
     <use xlink:href="#DejaVuSans-70" x="367.238281"/>
    </g>
   </g>
  </g>
  <g id="axes_4">
   <g id="line2d_4">
    <path d="M 108.927301 161.607333 
L 108.190714 163.040447 
L 107.016286 164.141134 
L 105.747319 165.068392 
L 104.839051 166.209988 
L 104.100806 167.351421 
L 103.191809 168.449918 
L 102.326848 169.307927 
L 96.975489 175.902311 
L 94.718524 179.302757 
L 92.122429 184.440283 
L 90.492851 188.321728 
L 87.835146 196.213732 
L 87.231026 198.866979 
L 86.741208 201.666072 
L 86.56251 203.013138 
L 86.605975 205.748697 
L 86.642269 211.120369 
L 86.939695 213.904587 
L 87.356563 216.751756 
L 87.920026 219.466931 
L 89.460835 224.93592 
L 90.511434 227.755566 
L 91.621589 230.157599 
L 92.89694 232.721125 
L 93.653376 233.837797 
L 95.327066 235.728266 
L 96.314483 236.65471 
L 98.247312 238.794194 
L 99.224269 239.736214 
L 100.283355 240.523752 
L 102.088992 242.267935 
L 104.25659 243.729817 
L 111.251668 247.865979 
L 112.353167 248.408181 
L 114.757794 249.232853 
L 117.376201 250.044123 
L 120.020734 250.7164 
L 121.265339 250.95025 
L 124.106229 251.268239 
L 126.829811 251.670512 
L 129.702586 251.700699 
L 132.373435 251.623162 
L 136.800302 251.080103 
L 146.438223 247.608808 
L 151.341674 245.25443 
L 153.407887 243.772263 
L 155.405237 242.230729 
L 156.42123 241.515498 
L 157.366732 240.692264 
L 161.58317 235.856959 
L 166.22067 228.648483 
L 167.995804 225.172272 
L 169.548226 221.448419 
L 171.409448 215.225259 
L 171.539625 213.713739 
L 171.514788 205.396492 
L 171.327752 204.06047 
L 171.270519 202.756225 
L 170.764562 200.080281 
L 170.218453 197.551606 
L 169.320253 195.174129 
L 167.532642 191.226241 
L 164.364391 185.279196 
L 161.070733 180.95016 
L 156.421723 176.044818 
L 152.302544 172.337293 
L 150.082079 170.787177 
L 147.897054 169.509643 
L 145.512084 168.265731 
L 137.871408 164.742933 
L 135.191939 163.777126 
L 130.891465 162.982165 
L 125.424099 161.994555 
L 122.759612 161.467339 
L 120.014815 161.202878 
L 118.443354 161.157749 
L 116.917342 160.979053 
L 113.902089 160.290146 
L 111.732995 160.101818 
L 111.732995 160.101818 
" clip-path="url(#p78fcb337be)" style="fill: none; stroke: #1f77b4; stroke-width: 1.5; stroke-linecap: square"/>
   </g>
   <g id="text_4">
    <!-- Linear-control -->
    <g transform="translate(60.336305 149.52) scale(0.2 -0.2)">
     <defs>
      <path id="DejaVuSans-4c" d="M 628 4666 
L 1259 4666 
L 1259 531 
L 3531 531 
L 3531 0 
L 628 0 
L 628 4666 
z
" transform="scale(0.015625)"/>
      <path id="DejaVuSans-69" d="M 603 3500 
L 1178 3500 
L 1178 0 
L 603 0 
L 603 3500 
z
M 603 4863 
L 1178 4863 
L 1178 4134 
L 603 4134 
L 603 4863 
z
" transform="scale(0.015625)"/>
      <path id="DejaVuSans-65" d="M 3597 1894 
L 3597 1613 
L 953 1613 
Q 991 1019 1311 708 
Q 1631 397 2203 397 
Q 2534 397 2845 478 
Q 3156 559 3463 722 
L 3463 178 
Q 3153 47 2828 -22 
Q 2503 -91 2169 -91 
Q 1331 -91 842 396 
Q 353 884 353 1716 
Q 353 2575 817 3079 
Q 1281 3584 2069 3584 
Q 2775 3584 3186 3129 
Q 3597 2675 3597 1894 
z
M 3022 2063 
Q 3016 2534 2758 2815 
Q 2500 3097 2075 3097 
Q 1594 3097 1305 2825 
Q 1016 2553 972 2059 
L 3022 2063 
z
" transform="scale(0.015625)"/>
     </defs>
     <use xlink:href="#DejaVuSans-4c"/>
     <use xlink:href="#DejaVuSans-69" x="55.712891"/>
     <use xlink:href="#DejaVuSans-6e" x="83.496094"/>
     <use xlink:href="#DejaVuSans-65" x="146.875"/>
     <use xlink:href="#DejaVuSans-61" x="208.398438"/>
     <use xlink:href="#DejaVuSans-72" x="269.677734"/>
     <use xlink:href="#DejaVuSans-2d" x="304.416016"/>
     <use xlink:href="#DejaVuSans-63" x="340.5"/>
     <use xlink:href="#DejaVuSans-6f" x="395.480469"/>
     <use xlink:href="#DejaVuSans-6e" x="456.662109"/>
     <use xlink:href="#DejaVuSans-74" x="520.041016"/>
     <use xlink:href="#DejaVuSans-72" x="559.25"/>
     <use xlink:href="#DejaVuSans-6f" x="598.113281"/>
     <use xlink:href="#DejaVuSans-6c" x="659.294922"/>
    </g>
   </g>
  </g>
  <g id="axes_5">
   <g id="line2d_5">
    <path d="M 254.386626 161.80234 
L 254.59714 164.127503 
L 254.705273 166.592726 
L 254.063425 170.470598 
L 254.075654 172.557405 
L 253.797603 174.191878 
L 253.233184 176.034994 
L 252.631362 177.496489 
L 252.297015 179.146442 
L 251.844865 180.684523 
L 251.659314 182.305901 
L 250.750476 185.251678 
L 249.674712 189.211109 
L 248.933768 190.386819 
L 248.190571 192.620204 
L 246.59584 195.234164 
L 245.586152 197.825763 
L 244.933909 198.858312 
L 244.01312 200.009494 
L 243.019431 201.749265 
L 242.513154 205.256524 
L 241.983287 206.395091 
L 240.722804 211.220178 
L 238.917291 213.648061 
L 238.187263 216.11398 
L 238.293488 217.262986 
L 239.992402 221.690667 
L 240.286527 223.869055 
L 240.327827 224.829831 
L 240.653464 225.633974 
L 242.184315 227.348158 
L 242.860584 228.005271 
L 243.872142 228.576012 
L 244.541101 229.663903 
L 245.753248 231.245462 
L 246.212183 232.208619 
L 247.106103 233.733113 
L 247.631668 234.927817 
L 248.487169 236.002482 
L 249.443297 236.82236 
L 250.132879 237.83462 
L 250.975795 238.705672 
L 253.859991 242.718861 
L 254.641115 243.59376 
L 256.898446 245.110306 
L 258.166742 245.379879 
L 259.617455 246.11954 
L 261.042123 246.336943 
L 263.479011 247.602574 
L 269.117577 248.93078 
L 270.456686 249.388455 
L 272.948662 249.341379 
L 274.197481 249.383498 
L 276.601154 250.169808 
L 277.920722 250.383846 
L 280.635916 251.284202 
L 282.039478 251.689492 
L 283.574887 251.738182 
L 286.064085 251.476398 
L 291.92981 251.275324 
L 294.428234 250.862564 
L 295.427157 250.506429 
L 296.851983 249.703328 
L 297.846703 249.334485 
L 299.17808 248.17133 
L 299.791449 247.349852 
L 303.328439 244.082197 
L 304.080171 243.170787 
L 304.948034 242.493902 
L 306.177512 242.103567 
L 307.100012 240.511078 
L 307.859567 239.934197 
L 308.104751 238.993166 
L 308.122097 237.835065 
L 308.383797 236.448031 
L 308.823523 235.360809 
L 309.198442 234.082854 
L 310.129301 231.924416 
L 311.203227 230.036848 
L 311.802001 229.105306 
L 312.264633 228.123633 
L 313.179458 224.751927 
L 313.710226 222.756187 
L 314.102311 220.198432 
L 314.420198 219.006708 
L 314.977353 218.001013 
L 315.168837 217.107782 
L 315.079553 215.943241 
L 315.312737 214.690528 
L 315.291144 213.405636 
L 314.973017 211.700535 
L 315.03545 204.891622 
L 314.857446 203.859504 
L 314.816719 202.708241 
L 314.56067 201.390448 
L 314.574078 200.365942 
L 314.264536 199.626842 
L 313.791574 198.954708 
L 313.72219 198.286283 
L 313.359949 197.363789 
L 312.575324 196.227683 
L 311.504629 195.256101 
L 311.039033 194.324936 
L 310.551515 192.971796 
L 309.818114 191.781948 
L 308.920556 190.553474 
L 307.874815 189.346037 
L 305.623124 187.738914 
L 303.6854 186.755633 
L 302.467506 185.945723 
L 301.523968 185.095339 
L 300.325403 184.586947 
L 299.176067 183.759633 
L 296.475782 182.699028 
L 295.199302 182.022269 
L 292.673837 181.223166 
L 289.760123 180.708796 
L 288.401548 180.0608 
L 286.883887 179.462929 
L 285.684055 179.133735 
L 284.144821 178.549996 
L 282.749029 178.603849 
L 281.321132 178.286552 
L 279.91496 177.483793 
L 278.428627 177.045495 
L 276.996608 176.409912 
L 273.848716 174.508995 
L 272.496033 173.950105 
L 271.277811 173.172105 
L 269.989271 172.18931 
L 268.298746 171.072469 
L 266.583657 170.166796 
L 265.127915 168.666939 
L 263.753405 167.016316 
L 262.16967 165.515201 
L 259.221891 161.737441 
L 257.300329 160.101818 
L 257.300329 160.101818 
" clip-path="url(#pbb80453fc5)" style="fill: none; stroke: #ff7f0e; stroke-width: 1.5; stroke-linecap: square"/>
   </g>
   <g id="text_5">
    <!-- Linear-cytd -->
    <g transform="translate(221.014062 149.52) scale(0.2 -0.2)">
     <use xlink:href="#DejaVuSans-4c"/>
     <use xlink:href="#DejaVuSans-69" x="55.712891"/>
     <use xlink:href="#DejaVuSans-6e" x="83.496094"/>
     <use xlink:href="#DejaVuSans-65" x="146.875"/>
     <use xlink:href="#DejaVuSans-61" x="208.398438"/>
     <use xlink:href="#DejaVuSans-72" x="269.677734"/>
     <use xlink:href="#DejaVuSans-2d" x="304.416016"/>
     <use xlink:href="#DejaVuSans-63" x="340.5"/>
     <use xlink:href="#DejaVuSans-79" x="395.480469"/>
     <use xlink:href="#DejaVuSans-74" x="454.660156"/>
     <use xlink:href="#DejaVuSans-64" x="493.869141"/>
    </g>
   </g>
  </g>
  <g id="axes_6">
   <g id="line2d_6">
    <path d="M 403.455078 161.479496 
L 403.173923 163.336313 
L 403.006821 165.205087 
L 402.619868 166.95218 
L 402.048089 168.47808 
L 400.646771 171.4917 
L 400.197755 172.686957 
L 399.4992 173.842963 
L 398.773601 174.784862 
L 397.637277 175.874114 
L 396.653143 177.174898 
L 395.712487 179.91877 
L 395.355009 181.520667 
L 394.653654 182.686455 
L 394.20055 183.823673 
L 393.437231 185.060057 
L 392.831422 186.272963 
L 392.492943 187.400859 
L 390.279689 190.897457 
L 389.704923 192.176965 
L 388.762962 194.882879 
L 387.548461 197.598251 
L 387.259785 199.061897 
L 386.205261 201.958874 
L 386.002466 203.673403 
L 385.264387 207.602309 
L 383.983799 215.3115 
L 384.183199 216.400307 
L 385.08303 218.626658 
L 385.665956 219.670981 
L 386.526615 222.308015 
L 387.854597 224.579738 
L 389.00243 226.810047 
L 389.862624 229.012586 
L 390.658518 231.077168 
L 392.169672 233.015167 
L 396.55992 237.989036 
L 397.703058 238.57653 
L 401.960715 242.025917 
L 402.938084 243.056691 
L 404.906442 244.357629 
L 405.549934 245.246625 
L 407.057178 246.93201 
L 408.307738 247.719478 
L 409.480088 248.312585 
L 410.618918 249.051293 
L 412.716865 250.012716 
L 413.695002 250.194221 
L 416.168924 250.044843 
L 417.529666 250.151414 
L 419.636412 250.664848 
L 420.78415 250.712887 
L 422.018265 251.029588 
L 423.350199 251.211828 
L 424.726414 251.738182 
L 427.571143 251.725726 
L 428.677136 251.397663 
L 429.720803 250.957158 
L 432.13806 250.496061 
L 433.628411 250.516333 
L 436.176991 249.796154 
L 438.682851 249.462569 
L 440.029 249.255649 
L 442.671761 248.053847 
L 443.770432 247.649656 
L 444.756118 247.035341 
L 447.168511 245.806551 
L 449.267104 244.555546 
L 450.432633 243.869882 
L 452.192718 241.762271 
L 457.097572 237.131087 
L 457.842973 236.109828 
L 458.357697 234.937095 
L 459.026587 233.742703 
L 459.516514 232.533199 
L 460.320966 231.083789 
L 461.011053 230.130554 
L 462.127599 228.15598 
L 462.320539 227.11862 
L 462.683984 225.870083 
L 462.950601 224.528423 
L 464.126488 220.87693 
L 464.724704 218.052325 
L 464.880137 216.837581 
L 464.580604 213.107262 
L 464.563218 211.998428 
L 464.668464 210.773251 
L 464.927966 209.288383 
L 464.894994 207.921367 
L 463.294009 203.20407 
L 462.998982 202.224644 
L 461.838013 199.993103 
L 461.379848 198.432369 
L 461.121324 196.801005 
L 460.729771 195.51308 
L 460.163922 194.644285 
L 458.34552 192.606868 
L 457.853863 191.366675 
L 457.302728 190.409932 
L 456.429119 189.414756 
L 455.762271 188.098493 
L 454.216073 185.725144 
L 453.626518 184.553059 
L 450.043535 180.680928 
L 447.783022 179.17401 
L 446.831994 178.238123 
L 445.785439 177.394084 
L 443.430141 175.938384 
L 439.655249 174.468322 
L 437.128493 173.68608 
L 435.726268 172.995497 
L 433.545695 171.627055 
L 429.071138 169.685571 
L 427.6751 169.285313 
L 423.688181 168.472106 
L 422.247613 168.084467 
L 420.753862 167.55 
L 419.138634 167.135568 
L 417.585809 166.609796 
L 413.458046 164.799013 
L 412.03326 163.947333 
L 408.762939 162.455262 
L 407.224684 161.523544 
L 405.494174 160.101818 
L 405.494174 160.101818 
" clip-path="url(#p5e6ab907f2)" style="fill: none; stroke: #2ca02c; stroke-width: 1.5; stroke-linecap: square"/>
   </g>
   <g id="text_6">
    <!-- Linear-jasp -->
    <g transform="translate(369.94182 149.52) scale(0.2 -0.2)">
     <use xlink:href="#DejaVuSans-4c"/>
     <use xlink:href="#DejaVuSans-69" x="55.712891"/>
     <use xlink:href="#DejaVuSans-6e" x="83.496094"/>
     <use xlink:href="#DejaVuSans-65" x="146.875"/>
     <use xlink:href="#DejaVuSans-61" x="208.398438"/>
     <use xlink:href="#DejaVuSans-72" x="269.677734"/>
     <use xlink:href="#DejaVuSans-2d" x="304.416016"/>
     <use xlink:href="#DejaVuSans-6a" x="340.5"/>
     <use xlink:href="#DejaVuSans-61" x="368.283203"/>
     <use xlink:href="#DejaVuSans-73" x="429.5625"/>
     <use xlink:href="#DejaVuSans-70" x="481.662109"/>
    </g>
   </g>
  </g>
 </g>
 <defs>
  <clipPath id="p7e049788ee">
   <rect x="67.5" y="34.56" width="123.088235" height="100.8"/>
  </clipPath>
  <clipPath id="pfda149ebba">
   <rect x="215.205882" y="34.56" width="123.088235" height="100.8"/>
  </clipPath>
  <clipPath id="pb04006a662">
   <rect x="362.911765" y="34.56" width="123.088235" height="100.8"/>
  </clipPath>
  <clipPath id="p78fcb337be">
   <rect x="67.5" y="155.52" width="123.088235" height="100.8"/>
  </clipPath>
  <clipPath id="pbb80453fc5">
   <rect x="215.205882" y="155.52" width="123.088235" height="100.8"/>
  </clipPath>
  <clipPath id="p5e6ab907f2">
   <rect x="362.911765" y="155.52" width="123.088235" height="100.8"/>
  </clipPath>
 </defs>
</svg>
