<?xml version="1.0" encoding="utf-8" standalone="no"?>
<!DOCTYPE svg PUBLIC "-//W3C//DTD SVG 1.1//EN"
  "http://www.w3.org/Graphics/SVG/1.1/DTD/svg11.dtd">
<svg xmlns:xlink="http://www.w3.org/1999/xlink" width="576pt" height="288pt" viewBox="0 0 576 288" xmlns="http://www.w3.org/2000/svg" version="1.1">
 <metadata>
  <rdf:RDF xmlns:dc="http://purl.org/dc/elements/1.1/" xmlns:cc="http://creativecommons.org/ns#" xmlns:rdf="http://www.w3.org/1999/02/22-rdf-syntax-ns#">
   <cc:Work>
    <dc:type rdf:resource="http://purl.org/dc/dcmitype/StillImage"/>
    <dc:date>2024-04-15T20:28:03.506239</dc:date>
    <dc:format>image/svg+xml</dc:format>
    <dc:creator>
     <cc:Agent>
      <dc:title>Matplotlib v3.8.4, https://matplotlib.org/</dc:title>
     </cc:Agent>
    </dc:creator>
   </cc:Work>
  </rdf:RDF>
 </metadata>
 <defs>
  <style type="text/css">*{stroke-linejoin: round; stroke-linecap: butt}</style>
 </defs>
 <g id="figure_1">
  <g id="patch_1">
   <path d="M 0 288 
L 576 288 
L 576 0 
L 0 0 
z
" style="fill: #ffffff"/>
  </g>
  <g id="axes_1">
   <g id="patch_2">
    <path d="M 41.711875 260.521875 
L 287.53125 260.521875 
L 287.53125 57.594062 
L 41.711875 57.594062 
z
" style="fill: #ffffff"/>
   </g>
   <g id="patch_3">
    <path d="M 86.78197 260.521875 
L 95.317356 260.521875 
L 95.317356 255.949157 
L 86.78197 255.949157 
z
" clip-path="url(#p59a812762a)" style="fill: #1f77b4; opacity: 0.4"/>
   </g>
   <g id="patch_4">
    <path d="M 95.317356 260.521875 
L 103.852742 260.521875 
L 103.852742 251.37644 
L 95.317356 251.37644 
z
" clip-path="url(#p59a812762a)" style="fill: #1f77b4; opacity: 0.4"/>
   </g>
   <g id="patch_5">
    <path d="M 103.852742 260.521875 
L 112.388128 260.521875 
L 112.388128 210.22198 
L 103.852742 210.22198 
z
" clip-path="url(#p59a812762a)" style="fill: #1f77b4; opacity: 0.4"/>
   </g>
   <g id="patch_6">
    <path d="M 112.388128 260.521875 
L 120.923513 260.521875 
L 120.923513 150.77665 
L 112.388128 150.77665 
z
" clip-path="url(#p59a812762a)" style="fill: #1f77b4; opacity: 0.4"/>
   </g>
   <g id="patch_7">
    <path d="M 120.923513 260.521875 
L 129.458899 260.521875 
L 129.458899 146.203932 
L 120.923513 146.203932 
z
" clip-path="url(#p59a812762a)" style="fill: #1f77b4; opacity: 0.4"/>
   </g>
   <g id="patch_8">
    <path d="M 129.458899 260.521875 
L 137.994285 260.521875 
L 137.994285 182.785674 
L 129.458899 182.785674 
z
" clip-path="url(#p59a812762a)" style="fill: #1f77b4; opacity: 0.4"/>
   </g>
   <g id="patch_9">
    <path d="M 137.994285 260.521875 
L 146.529671 260.521875 
L 146.529671 205.649262 
L 137.994285 205.649262 
z
" clip-path="url(#p59a812762a)" style="fill: #1f77b4; opacity: 0.4"/>
   </g>
   <g id="patch_10">
    <path d="M 146.529671 260.521875 
L 155.065057 260.521875 
L 155.065057 214.794698 
L 146.529671 214.794698 
z
" clip-path="url(#p59a812762a)" style="fill: #1f77b4; opacity: 0.4"/>
   </g>
   <g id="patch_11">
    <path d="M 155.065057 260.521875 
L 163.600442 260.521875 
L 163.600442 219.367415 
L 155.065057 219.367415 
z
" clip-path="url(#p59a812762a)" style="fill: #1f77b4; opacity: 0.4"/>
   </g>
   <g id="patch_12">
    <path d="M 163.600442 260.521875 
L 172.135828 260.521875 
L 172.135828 182.785674 
L 163.600442 182.785674 
z
" clip-path="url(#p59a812762a)" style="fill: #1f77b4; opacity: 0.4"/>
   </g>
   <g id="patch_13">
    <path d="M 172.135828 260.521875 
L 180.671214 260.521875 
L 180.671214 196.503827 
L 172.135828 196.503827 
z
" clip-path="url(#p59a812762a)" style="fill: #1f77b4; opacity: 0.4"/>
   </g>
   <g id="patch_14">
    <path d="M 180.671214 260.521875 
L 189.2066 260.521875 
L 189.2066 191.931109 
L 180.671214 191.931109 
z
" clip-path="url(#p59a812762a)" style="fill: #1f77b4; opacity: 0.4"/>
   </g>
   <g id="patch_15">
    <path d="M 189.2066 260.521875 
L 197.741986 260.521875 
L 197.741986 219.367415 
L 189.2066 219.367415 
z
" clip-path="url(#p59a812762a)" style="fill: #1f77b4; opacity: 0.4"/>
   </g>
   <g id="patch_16">
    <path d="M 197.741986 260.521875 
L 206.277371 260.521875 
L 206.277371 196.503827 
L 197.741986 196.503827 
z
" clip-path="url(#p59a812762a)" style="fill: #1f77b4; opacity: 0.4"/>
   </g>
   <g id="patch_17">
    <path d="M 206.277371 260.521875 
L 214.812757 260.521875 
L 214.812757 196.503827 
L 206.277371 196.503827 
z
" clip-path="url(#p59a812762a)" style="fill: #1f77b4; opacity: 0.4"/>
   </g>
   <g id="patch_18">
    <path d="M 214.812757 260.521875 
L 223.348143 260.521875 
L 223.348143 246.803722 
L 214.812757 246.803722 
z
" clip-path="url(#p59a812762a)" style="fill: #1f77b4; opacity: 0.4"/>
   </g>
   <g id="patch_19">
    <path d="M 223.348143 260.521875 
L 231.883529 260.521875 
L 231.883529 237.658286 
L 223.348143 237.658286 
z
" clip-path="url(#p59a812762a)" style="fill: #1f77b4; opacity: 0.4"/>
   </g>
   <g id="patch_20">
    <path d="M 231.883529 260.521875 
L 240.418915 260.521875 
L 240.418915 255.949157 
L 231.883529 255.949157 
z
" clip-path="url(#p59a812762a)" style="fill: #1f77b4; opacity: 0.4"/>
   </g>
   <g id="patch_21">
    <path d="M 240.418915 260.521875 
L 248.9543 260.521875 
L 248.9543 260.521875 
L 240.418915 260.521875 
z
" clip-path="url(#p59a812762a)" style="fill: #1f77b4; opacity: 0.4"/>
   </g>
   <g id="patch_22">
    <path d="M 248.9543 260.521875 
L 257.489686 260.521875 
L 257.489686 255.949157 
L 248.9543 255.949157 
z
" clip-path="url(#p59a812762a)" style="fill: #1f77b4; opacity: 0.4"/>
   </g>
   <g id="patch_23">
    <path d="M 145.756781 260.521875 
L 152.383791 260.521875 
L 152.383791 247.602928 
L 145.756781 247.602928 
z
" clip-path="url(#p59a812762a)" style="fill: #ff7f0e; opacity: 0.4"/>
   </g>
   <g id="patch_24">
    <path d="M 152.383791 260.521875 
L 159.010802 260.521875 
L 159.010802 260.521875 
L 152.383791 260.521875 
z
" clip-path="url(#p59a812762a)" style="fill: #ff7f0e; opacity: 0.4"/>
   </g>
   <g id="patch_25">
    <path d="M 159.010802 260.521875 
L 165.637812 260.521875 
L 165.637812 260.521875 
L 159.010802 260.521875 
z
" clip-path="url(#p59a812762a)" style="fill: #ff7f0e; opacity: 0.4"/>
   </g>
   <g id="patch_26">
    <path d="M 165.637812 260.521875 
L 172.264823 260.521875 
L 172.264823 234.683982 
L 165.637812 234.683982 
z
" clip-path="url(#p59a812762a)" style="fill: #ff7f0e; opacity: 0.4"/>
   </g>
   <g id="patch_27">
    <path d="M 172.264823 260.521875 
L 178.891834 260.521875 
L 178.891834 247.602928 
L 172.264823 247.602928 
z
" clip-path="url(#p59a812762a)" style="fill: #ff7f0e; opacity: 0.4"/>
   </g>
   <g id="patch_28">
    <path d="M 178.891834 260.521875 
L 185.518844 260.521875 
L 185.518844 234.683982 
L 178.891834 234.683982 
z
" clip-path="url(#p59a812762a)" style="fill: #ff7f0e; opacity: 0.4"/>
   </g>
   <g id="patch_29">
    <path d="M 185.518844 260.521875 
L 192.145855 260.521875 
L 192.145855 221.765035 
L 185.518844 221.765035 
z
" clip-path="url(#p59a812762a)" style="fill: #ff7f0e; opacity: 0.4"/>
   </g>
   <g id="patch_30">
    <path d="M 192.145855 260.521875 
L 198.772865 260.521875 
L 198.772865 195.927142 
L 192.145855 195.927142 
z
" clip-path="url(#p59a812762a)" style="fill: #ff7f0e; opacity: 0.4"/>
   </g>
   <g id="patch_31">
    <path d="M 198.772865 260.521875 
L 205.399876 260.521875 
L 205.399876 195.927142 
L 198.772865 195.927142 
z
" clip-path="url(#p59a812762a)" style="fill: #ff7f0e; opacity: 0.4"/>
   </g>
   <g id="patch_32">
    <path d="M 205.399876 260.521875 
L 212.026887 260.521875 
L 212.026887 170.089249 
L 205.399876 170.089249 
z
" clip-path="url(#p59a812762a)" style="fill: #ff7f0e; opacity: 0.4"/>
   </g>
   <g id="patch_33">
    <path d="M 212.026887 260.521875 
L 218.653897 260.521875 
L 218.653897 183.008195 
L 212.026887 183.008195 
z
" clip-path="url(#p59a812762a)" style="fill: #ff7f0e; opacity: 0.4"/>
   </g>
   <g id="patch_34">
    <path d="M 218.653897 260.521875 
L 225.280908 260.521875 
L 225.280908 208.846089 
L 218.653897 208.846089 
z
" clip-path="url(#p59a812762a)" style="fill: #ff7f0e; opacity: 0.4"/>
   </g>
   <g id="patch_35">
    <path d="M 225.280908 260.521875 
L 231.907918 260.521875 
L 231.907918 131.332409 
L 225.280908 131.332409 
z
" clip-path="url(#p59a812762a)" style="fill: #ff7f0e; opacity: 0.4"/>
   </g>
   <g id="patch_36">
    <path d="M 231.907918 260.521875 
L 238.534929 260.521875 
L 238.534929 92.575569 
L 231.907918 92.575569 
z
" clip-path="url(#p59a812762a)" style="fill: #ff7f0e; opacity: 0.4"/>
   </g>
   <g id="patch_37">
    <path d="M 238.534929 260.521875 
L 245.161939 260.521875 
L 245.161939 144.251356 
L 238.534929 144.251356 
z
" clip-path="url(#p59a812762a)" style="fill: #ff7f0e; opacity: 0.4"/>
   </g>
   <g id="patch_38">
    <path d="M 245.161939 260.521875 
L 251.78895 260.521875 
L 251.78895 170.089249 
L 245.161939 170.089249 
z
" clip-path="url(#p59a812762a)" style="fill: #ff7f0e; opacity: 0.4"/>
   </g>
   <g id="patch_39">
    <path d="M 251.78895 260.521875 
L 258.415961 260.521875 
L 258.415961 157.170302 
L 251.78895 157.170302 
z
" clip-path="url(#p59a812762a)" style="fill: #ff7f0e; opacity: 0.4"/>
   </g>
   <g id="patch_40">
    <path d="M 258.415961 260.521875 
L 265.042971 260.521875 
L 265.042971 195.927142 
L 258.415961 195.927142 
z
" clip-path="url(#p59a812762a)" style="fill: #ff7f0e; opacity: 0.4"/>
   </g>
   <g id="patch_41">
    <path d="M 265.042971 260.521875 
L 271.669982 260.521875 
L 271.669982 247.602928 
L 265.042971 247.602928 
z
" clip-path="url(#p59a812762a)" style="fill: #ff7f0e; opacity: 0.4"/>
   </g>
   <g id="patch_42">
    <path d="M 271.669982 260.521875 
L 278.296992 260.521875 
L 278.296992 208.846089 
L 271.669982 208.846089 
z
" clip-path="url(#p59a812762a)" style="fill: #ff7f0e; opacity: 0.4"/>
   </g>
   <g id="patch_43">
    <path d="M 129.690257 260.521875 
L 135.761532 260.521875 
L 135.761532 232.912649 
L 129.690257 232.912649 
z
" clip-path="url(#p59a812762a)" style="fill: #2ca02c; opacity: 0.4"/>
   </g>
   <g id="patch_44">
    <path d="M 135.761532 260.521875 
L 141.832806 260.521875 
L 141.832806 246.717262 
L 135.761532 246.717262 
z
" clip-path="url(#p59a812762a)" style="fill: #2ca02c; opacity: 0.4"/>
   </g>
   <g id="patch_45">
    <path d="M 141.832806 260.521875 
L 147.904081 260.521875 
L 147.904081 232.912649 
L 141.832806 232.912649 
z
" clip-path="url(#p59a812762a)" style="fill: #2ca02c; opacity: 0.4"/>
   </g>
   <g id="patch_46">
    <path d="M 147.904081 260.521875 
L 153.975355 260.521875 
L 153.975355 246.717262 
L 147.904081 246.717262 
z
" clip-path="url(#p59a812762a)" style="fill: #2ca02c; opacity: 0.4"/>
   </g>
   <g id="patch_47">
    <path d="M 153.975355 260.521875 
L 160.04663 260.521875 
L 160.04663 246.717262 
L 153.975355 246.717262 
z
" clip-path="url(#p59a812762a)" style="fill: #2ca02c; opacity: 0.4"/>
   </g>
   <g id="patch_48">
    <path d="M 160.04663 260.521875 
L 166.117904 260.521875 
L 166.117904 205.303423 
L 160.04663 205.303423 
z
" clip-path="url(#p59a812762a)" style="fill: #2ca02c; opacity: 0.4"/>
   </g>
   <g id="patch_49">
    <path d="M 166.117904 260.521875 
L 172.189179 260.521875 
L 172.189179 191.49881 
L 166.117904 191.49881 
z
" clip-path="url(#p59a812762a)" style="fill: #2ca02c; opacity: 0.4"/>
   </g>
   <g id="patch_50">
    <path d="M 172.189179 260.521875 
L 178.260453 260.521875 
L 178.260453 232.912649 
L 172.189179 232.912649 
z
" clip-path="url(#p59a812762a)" style="fill: #2ca02c; opacity: 0.4"/>
   </g>
   <g id="patch_51">
    <path d="M 178.260453 260.521875 
L 184.331728 260.521875 
L 184.331728 232.912649 
L 178.260453 232.912649 
z
" clip-path="url(#p59a812762a)" style="fill: #2ca02c; opacity: 0.4"/>
   </g>
   <g id="patch_52">
    <path d="M 184.331728 260.521875 
L 190.403002 260.521875 
L 190.403002 81.061905 
L 184.331728 81.061905 
z
" clip-path="url(#p59a812762a)" style="fill: #2ca02c; opacity: 0.4"/>
   </g>
   <g id="patch_53">
    <path d="M 190.403002 260.521875 
L 196.474277 260.521875 
L 196.474277 108.671131 
L 190.403002 108.671131 
z
" clip-path="url(#p59a812762a)" style="fill: #2ca02c; opacity: 0.4"/>
   </g>
   <g id="patch_54">
    <path d="M 196.474277 260.521875 
L 202.545551 260.521875 
L 202.545551 67.257292 
L 196.474277 67.257292 
z
" clip-path="url(#p59a812762a)" style="fill: #2ca02c; opacity: 0.4"/>
   </g>
   <g id="patch_55">
    <path d="M 202.545551 260.521875 
L 208.616826 260.521875 
L 208.616826 122.475744 
L 202.545551 122.475744 
z
" clip-path="url(#p59a812762a)" style="fill: #2ca02c; opacity: 0.4"/>
   </g>
   <g id="patch_56">
    <path d="M 208.616826 260.521875 
L 214.688101 260.521875 
L 214.688101 150.08497 
L 208.616826 150.08497 
z
" clip-path="url(#p59a812762a)" style="fill: #2ca02c; opacity: 0.4"/>
   </g>
   <g id="patch_57">
    <path d="M 214.688101 260.521875 
L 220.759375 260.521875 
L 220.759375 191.49881 
L 214.688101 191.49881 
z
" clip-path="url(#p59a812762a)" style="fill: #2ca02c; opacity: 0.4"/>
   </g>
   <g id="patch_58">
    <path d="M 220.759375 260.521875 
L 226.83065 260.521875 
L 226.83065 219.108036 
L 220.759375 219.108036 
z
" clip-path="url(#p59a812762a)" style="fill: #2ca02c; opacity: 0.4"/>
   </g>
   <g id="patch_59">
    <path d="M 226.83065 260.521875 
L 232.901924 260.521875 
L 232.901924 205.303423 
L 226.83065 205.303423 
z
" clip-path="url(#p59a812762a)" style="fill: #2ca02c; opacity: 0.4"/>
   </g>
   <g id="patch_60">
    <path d="M 232.901924 260.521875 
L 238.973199 260.521875 
L 238.973199 191.49881 
L 232.901924 191.49881 
z
" clip-path="url(#p59a812762a)" style="fill: #2ca02c; opacity: 0.4"/>
   </g>
   <g id="patch_61">
    <path d="M 238.973199 260.521875 
L 245.044473 260.521875 
L 245.044473 246.717262 
L 238.973199 246.717262 
z
" clip-path="url(#p59a812762a)" style="fill: #2ca02c; opacity: 0.4"/>
   </g>
   <g id="patch_62">
    <path d="M 245.044473 260.521875 
L 251.115748 260.521875 
L 251.115748 246.717262 
L 245.044473 246.717262 
z
" clip-path="url(#p59a812762a)" style="fill: #2ca02c; opacity: 0.4"/>
   </g>
   <g id="matplotlib.axis_1">
    <g id="xtick_1">
     <g id="line2d_1">
      <defs>
       <path id="m7055e37f66" d="M 0 0 
L 0 3.5 
" style="stroke: #000000; stroke-width: 0.8"/>
      </defs>
      <g>
       <use xlink:href="#m7055e37f66" x="63.634619" y="260.521875" style="stroke: #000000; stroke-width: 0.8"/>
      </g>
     </g>
     <g id="text_1">
      <!-- 0.4 -->
      <g transform="translate(55.683056 275.120313) scale(0.1 -0.1)">
       <defs>
        <path id="DejaVuSans-30" d="M 2034 4250 
Q 1547 4250 1301 3770 
Q 1056 3291 1056 2328 
Q 1056 1369 1301 889 
Q 1547 409 2034 409 
Q 2525 409 2770 889 
Q 3016 1369 3016 2328 
Q 3016 3291 2770 3770 
Q 2525 4250 2034 4250 
z
M 2034 4750 
Q 2819 4750 3233 4129 
Q 3647 3509 3647 2328 
Q 3647 1150 3233 529 
Q 2819 -91 2034 -91 
Q 1250 -91 836 529 
Q 422 1150 422 2328 
Q 422 3509 836 4129 
Q 1250 4750 2034 4750 
z
" transform="scale(0.015625)"/>
        <path id="DejaVuSans-2e" d="M 684 794 
L 1344 794 
L 1344 0 
L 684 0 
L 684 794 
z
" transform="scale(0.015625)"/>
        <path id="DejaVuSans-34" d="M 2419 4116 
L 825 1625 
L 2419 1625 
L 2419 4116 
z
M 2253 4666 
L 3047 4666 
L 3047 1625 
L 3713 1625 
L 3713 1100 
L 3047 1100 
L 3047 0 
L 2419 0 
L 2419 1100 
L 313 1100 
L 313 1709 
L 2253 4666 
z
" transform="scale(0.015625)"/>
       </defs>
       <use xlink:href="#DejaVuSans-30"/>
       <use xlink:href="#DejaVuSans-2e" x="63.623047"/>
       <use xlink:href="#DejaVuSans-34" x="95.410156"/>
      </g>
     </g>
    </g>
    <g id="xtick_2">
     <g id="line2d_2">
      <g>
       <use xlink:href="#m7055e37f66" x="96.081074" y="260.521875" style="stroke: #000000; stroke-width: 0.8"/>
      </g>
     </g>
     <g id="text_2">
      <!-- 0.5 -->
      <g transform="translate(88.129511 275.120313) scale(0.1 -0.1)">
       <defs>
        <path id="DejaVuSans-35" d="M 691 4666 
L 3169 4666 
L 3169 4134 
L 1269 4134 
L 1269 2991 
Q 1406 3038 1543 3061 
Q 1681 3084 1819 3084 
Q 2600 3084 3056 2656 
Q 3513 2228 3513 1497 
Q 3513 744 3044 326 
Q 2575 -91 1722 -91 
Q 1428 -91 1123 -41 
Q 819 9 494 109 
L 494 744 
Q 775 591 1075 516 
Q 1375 441 1709 441 
Q 2250 441 2565 725 
Q 2881 1009 2881 1497 
Q 2881 1984 2565 2268 
Q 2250 2553 1709 2553 
Q 1456 2553 1204 2497 
Q 953 2441 691 2322 
L 691 4666 
z
" transform="scale(0.015625)"/>
       </defs>
       <use xlink:href="#DejaVuSans-30"/>
       <use xlink:href="#DejaVuSans-2e" x="63.623047"/>
       <use xlink:href="#DejaVuSans-35" x="95.410156"/>
      </g>
     </g>
    </g>
    <g id="xtick_3">
     <g id="line2d_3">
      <g>
       <use xlink:href="#m7055e37f66" x="128.527529" y="260.521875" style="stroke: #000000; stroke-width: 0.8"/>
      </g>
     </g>
     <g id="text_3">
      <!-- 0.6 -->
      <g transform="translate(120.575966 275.120313) scale(0.1 -0.1)">
       <defs>
        <path id="DejaVuSans-36" d="M 2113 2584 
Q 1688 2584 1439 2293 
Q 1191 2003 1191 1497 
Q 1191 994 1439 701 
Q 1688 409 2113 409 
Q 2538 409 2786 701 
Q 3034 994 3034 1497 
Q 3034 2003 2786 2293 
Q 2538 2584 2113 2584 
z
M 3366 4563 
L 3366 3988 
Q 3128 4100 2886 4159 
Q 2644 4219 2406 4219 
Q 1781 4219 1451 3797 
Q 1122 3375 1075 2522 
Q 1259 2794 1537 2939 
Q 1816 3084 2150 3084 
Q 2853 3084 3261 2657 
Q 3669 2231 3669 1497 
Q 3669 778 3244 343 
Q 2819 -91 2113 -91 
Q 1303 -91 875 529 
Q 447 1150 447 2328 
Q 447 3434 972 4092 
Q 1497 4750 2381 4750 
Q 2619 4750 2861 4703 
Q 3103 4656 3366 4563 
z
" transform="scale(0.015625)"/>
       </defs>
       <use xlink:href="#DejaVuSans-30"/>
       <use xlink:href="#DejaVuSans-2e" x="63.623047"/>
       <use xlink:href="#DejaVuSans-36" x="95.410156"/>
      </g>
     </g>
    </g>
    <g id="xtick_4">
     <g id="line2d_4">
      <g>
       <use xlink:href="#m7055e37f66" x="160.973984" y="260.521875" style="stroke: #000000; stroke-width: 0.8"/>
      </g>
     </g>
     <g id="text_4">
      <!-- 0.7 -->
      <g transform="translate(153.022422 275.120313) scale(0.1 -0.1)">
       <defs>
        <path id="DejaVuSans-37" d="M 525 4666 
L 3525 4666 
L 3525 4397 
L 1831 0 
L 1172 0 
L 2766 4134 
L 525 4134 
L 525 4666 
z
" transform="scale(0.015625)"/>
       </defs>
       <use xlink:href="#DejaVuSans-30"/>
       <use xlink:href="#DejaVuSans-2e" x="63.623047"/>
       <use xlink:href="#DejaVuSans-37" x="95.410156"/>
      </g>
     </g>
    </g>
    <g id="xtick_5">
     <g id="line2d_5">
      <g>
       <use xlink:href="#m7055e37f66" x="193.420439" y="260.521875" style="stroke: #000000; stroke-width: 0.8"/>
      </g>
     </g>
     <g id="text_5">
      <!-- 0.8 -->
      <g transform="translate(185.468877 275.120313) scale(0.1 -0.1)">
       <defs>
        <path id="DejaVuSans-38" d="M 2034 2216 
Q 1584 2216 1326 1975 
Q 1069 1734 1069 1313 
Q 1069 891 1326 650 
Q 1584 409 2034 409 
Q 2484 409 2743 651 
Q 3003 894 3003 1313 
Q 3003 1734 2745 1975 
Q 2488 2216 2034 2216 
z
M 1403 2484 
Q 997 2584 770 2862 
Q 544 3141 544 3541 
Q 544 4100 942 4425 
Q 1341 4750 2034 4750 
Q 2731 4750 3128 4425 
Q 3525 4100 3525 3541 
Q 3525 3141 3298 2862 
Q 3072 2584 2669 2484 
Q 3125 2378 3379 2068 
Q 3634 1759 3634 1313 
Q 3634 634 3220 271 
Q 2806 -91 2034 -91 
Q 1263 -91 848 271 
Q 434 634 434 1313 
Q 434 1759 690 2068 
Q 947 2378 1403 2484 
z
M 1172 3481 
Q 1172 3119 1398 2916 
Q 1625 2713 2034 2713 
Q 2441 2713 2670 2916 
Q 2900 3119 2900 3481 
Q 2900 3844 2670 4047 
Q 2441 4250 2034 4250 
Q 1625 4250 1398 4047 
Q 1172 3844 1172 3481 
z
" transform="scale(0.015625)"/>
       </defs>
       <use xlink:href="#DejaVuSans-30"/>
       <use xlink:href="#DejaVuSans-2e" x="63.623047"/>
       <use xlink:href="#DejaVuSans-38" x="95.410156"/>
      </g>
     </g>
    </g>
    <g id="xtick_6">
     <g id="line2d_6">
      <g>
       <use xlink:href="#m7055e37f66" x="225.866894" y="260.521875" style="stroke: #000000; stroke-width: 0.8"/>
      </g>
     </g>
     <g id="text_6">
      <!-- 0.9 -->
      <g transform="translate(217.915332 275.120313) scale(0.1 -0.1)">
       <defs>
        <path id="DejaVuSans-39" d="M 703 97 
L 703 672 
Q 941 559 1184 500 
Q 1428 441 1663 441 
Q 2288 441 2617 861 
Q 2947 1281 2994 2138 
Q 2813 1869 2534 1725 
Q 2256 1581 1919 1581 
Q 1219 1581 811 2004 
Q 403 2428 403 3163 
Q 403 3881 828 4315 
Q 1253 4750 1959 4750 
Q 2769 4750 3195 4129 
Q 3622 3509 3622 2328 
Q 3622 1225 3098 567 
Q 2575 -91 1691 -91 
Q 1453 -91 1209 -44 
Q 966 3 703 97 
z
M 1959 2075 
Q 2384 2075 2632 2365 
Q 2881 2656 2881 3163 
Q 2881 3666 2632 3958 
Q 2384 4250 1959 4250 
Q 1534 4250 1286 3958 
Q 1038 3666 1038 3163 
Q 1038 2656 1286 2365 
Q 1534 2075 1959 2075 
z
" transform="scale(0.015625)"/>
       </defs>
       <use xlink:href="#DejaVuSans-30"/>
       <use xlink:href="#DejaVuSans-2e" x="63.623047"/>
       <use xlink:href="#DejaVuSans-39" x="95.410156"/>
      </g>
     </g>
    </g>
    <g id="xtick_7">
     <g id="line2d_7">
      <g>
       <use xlink:href="#m7055e37f66" x="258.31335" y="260.521875" style="stroke: #000000; stroke-width: 0.8"/>
      </g>
     </g>
     <g id="text_7">
      <!-- 1.0 -->
      <g transform="translate(250.361787 275.120313) scale(0.1 -0.1)">
       <defs>
        <path id="DejaVuSans-31" d="M 794 531 
L 1825 531 
L 1825 4091 
L 703 3866 
L 703 4441 
L 1819 4666 
L 2450 4666 
L 2450 531 
L 3481 531 
L 3481 0 
L 794 0 
L 794 531 
z
" transform="scale(0.015625)"/>
       </defs>
       <use xlink:href="#DejaVuSans-31"/>
       <use xlink:href="#DejaVuSans-2e" x="63.623047"/>
       <use xlink:href="#DejaVuSans-30" x="95.410156"/>
      </g>
     </g>
    </g>
   </g>
   <g id="matplotlib.axis_2">
    <g id="ytick_1">
     <g id="line2d_8">
      <defs>
       <path id="m961b5dd79e" d="M 0 0 
L -3.5 0 
" style="stroke: #000000; stroke-width: 0.8"/>
      </defs>
      <g>
       <use xlink:href="#m961b5dd79e" x="41.711875" y="260.521875" style="stroke: #000000; stroke-width: 0.8"/>
      </g>
     </g>
     <g id="text_8">
      <!-- 0 -->
      <g transform="translate(28.349375 264.321094) scale(0.1 -0.1)">
       <use xlink:href="#DejaVuSans-30"/>
      </g>
     </g>
    </g>
    <g id="ytick_2">
     <g id="line2d_9">
      <g>
       <use xlink:href="#m961b5dd79e" x="41.711875" y="235.982672" style="stroke: #000000; stroke-width: 0.8"/>
      </g>
     </g>
     <g id="text_9">
      <!-- 1 -->
      <g transform="translate(28.349375 239.78189) scale(0.1 -0.1)">
       <use xlink:href="#DejaVuSans-31"/>
      </g>
     </g>
    </g>
    <g id="ytick_3">
     <g id="line2d_10">
      <g>
       <use xlink:href="#m961b5dd79e" x="41.711875" y="211.443468" style="stroke: #000000; stroke-width: 0.8"/>
      </g>
     </g>
     <g id="text_10">
      <!-- 2 -->
      <g transform="translate(28.349375 215.242687) scale(0.1 -0.1)">
       <defs>
        <path id="DejaVuSans-32" d="M 1228 531 
L 3431 531 
L 3431 0 
L 469 0 
L 469 531 
Q 828 903 1448 1529 
Q 2069 2156 2228 2338 
Q 2531 2678 2651 2914 
Q 2772 3150 2772 3378 
Q 2772 3750 2511 3984 
Q 2250 4219 1831 4219 
Q 1534 4219 1204 4116 
Q 875 4013 500 3803 
L 500 4441 
Q 881 4594 1212 4672 
Q 1544 4750 1819 4750 
Q 2544 4750 2975 4387 
Q 3406 4025 3406 3419 
Q 3406 3131 3298 2873 
Q 3191 2616 2906 2266 
Q 2828 2175 2409 1742 
Q 1991 1309 1228 531 
z
" transform="scale(0.015625)"/>
       </defs>
       <use xlink:href="#DejaVuSans-32"/>
      </g>
     </g>
    </g>
    <g id="ytick_4">
     <g id="line2d_11">
      <g>
       <use xlink:href="#m961b5dd79e" x="41.711875" y="186.904265" style="stroke: #000000; stroke-width: 0.8"/>
      </g>
     </g>
     <g id="text_11">
      <!-- 3 -->
      <g transform="translate(28.349375 190.703484) scale(0.1 -0.1)">
       <defs>
        <path id="DejaVuSans-33" d="M 2597 2516 
Q 3050 2419 3304 2112 
Q 3559 1806 3559 1356 
Q 3559 666 3084 287 
Q 2609 -91 1734 -91 
Q 1441 -91 1130 -33 
Q 819 25 488 141 
L 488 750 
Q 750 597 1062 519 
Q 1375 441 1716 441 
Q 2309 441 2620 675 
Q 2931 909 2931 1356 
Q 2931 1769 2642 2001 
Q 2353 2234 1838 2234 
L 1294 2234 
L 1294 2753 
L 1863 2753 
Q 2328 2753 2575 2939 
Q 2822 3125 2822 3475 
Q 2822 3834 2567 4026 
Q 2313 4219 1838 4219 
Q 1578 4219 1281 4162 
Q 984 4106 628 3988 
L 628 4550 
Q 988 4650 1302 4700 
Q 1616 4750 1894 4750 
Q 2613 4750 3031 4423 
Q 3450 4097 3450 3541 
Q 3450 3153 3228 2886 
Q 3006 2619 2597 2516 
z
" transform="scale(0.015625)"/>
       </defs>
       <use xlink:href="#DejaVuSans-33"/>
      </g>
     </g>
    </g>
    <g id="ytick_5">
     <g id="line2d_12">
      <g>
       <use xlink:href="#m961b5dd79e" x="41.711875" y="162.365062" style="stroke: #000000; stroke-width: 0.8"/>
      </g>
     </g>
     <g id="text_12">
      <!-- 4 -->
      <g transform="translate(28.349375 166.16428) scale(0.1 -0.1)">
       <use xlink:href="#DejaVuSans-34"/>
      </g>
     </g>
    </g>
    <g id="ytick_6">
     <g id="line2d_13">
      <g>
       <use xlink:href="#m961b5dd79e" x="41.711875" y="137.825858" style="stroke: #000000; stroke-width: 0.8"/>
      </g>
     </g>
     <g id="text_13">
      <!-- 5 -->
      <g transform="translate(28.349375 141.625077) scale(0.1 -0.1)">
       <use xlink:href="#DejaVuSans-35"/>
      </g>
     </g>
    </g>
    <g id="ytick_7">
     <g id="line2d_14">
      <g>
       <use xlink:href="#m961b5dd79e" x="41.711875" y="113.286655" style="stroke: #000000; stroke-width: 0.8"/>
      </g>
     </g>
     <g id="text_14">
      <!-- 6 -->
      <g transform="translate(28.349375 117.085874) scale(0.1 -0.1)">
       <use xlink:href="#DejaVuSans-36"/>
      </g>
     </g>
    </g>
    <g id="ytick_8">
     <g id="line2d_15">
      <g>
       <use xlink:href="#m961b5dd79e" x="41.711875" y="88.747451" style="stroke: #000000; stroke-width: 0.8"/>
      </g>
     </g>
     <g id="text_15">
      <!-- 7 -->
      <g transform="translate(28.349375 92.54667) scale(0.1 -0.1)">
       <use xlink:href="#DejaVuSans-37"/>
      </g>
     </g>
    </g>
    <g id="ytick_9">
     <g id="line2d_16">
      <g>
       <use xlink:href="#m961b5dd79e" x="41.711875" y="64.208248" style="stroke: #000000; stroke-width: 0.8"/>
      </g>
     </g>
     <g id="text_16">
      <!-- 8 -->
      <g transform="translate(28.349375 68.007467) scale(0.1 -0.1)">
       <use xlink:href="#DejaVuSans-38"/>
      </g>
     </g>
    </g>
    <g id="text_17">
     <!-- Fraction of cells -->
     <g transform="translate(21.437812 213.889844) rotate(-90) scale(0.14 -0.14)">
      <defs>
       <path id="DejaVuSans-46" d="M 628 4666 
L 3309 4666 
L 3309 4134 
L 1259 4134 
L 1259 2759 
L 3109 2759 
L 3109 2228 
L 1259 2228 
L 1259 0 
L 628 0 
L 628 4666 
z
" transform="scale(0.015625)"/>
       <path id="DejaVuSans-72" d="M 2631 2963 
Q 2534 3019 2420 3045 
Q 2306 3072 2169 3072 
Q 1681 3072 1420 2755 
Q 1159 2438 1159 1844 
L 1159 0 
L 581 0 
L 581 3500 
L 1159 3500 
L 1159 2956 
Q 1341 3275 1631 3429 
Q 1922 3584 2338 3584 
Q 2397 3584 2469 3576 
Q 2541 3569 2628 3553 
L 2631 2963 
z
" transform="scale(0.015625)"/>
       <path id="DejaVuSans-61" d="M 2194 1759 
Q 1497 1759 1228 1600 
Q 959 1441 959 1056 
Q 959 750 1161 570 
Q 1363 391 1709 391 
Q 2188 391 2477 730 
Q 2766 1069 2766 1631 
L 2766 1759 
L 2194 1759 
z
M 3341 1997 
L 3341 0 
L 2766 0 
L 2766 531 
Q 2569 213 2275 61 
Q 1981 -91 1556 -91 
Q 1019 -91 701 211 
Q 384 513 384 1019 
Q 384 1609 779 1909 
Q 1175 2209 1959 2209 
L 2766 2209 
L 2766 2266 
Q 2766 2663 2505 2880 
Q 2244 3097 1772 3097 
Q 1472 3097 1187 3025 
Q 903 2953 641 2809 
L 641 3341 
Q 956 3463 1253 3523 
Q 1550 3584 1831 3584 
Q 2591 3584 2966 3190 
Q 3341 2797 3341 1997 
z
" transform="scale(0.015625)"/>
       <path id="DejaVuSans-63" d="M 3122 3366 
L 3122 2828 
Q 2878 2963 2633 3030 
Q 2388 3097 2138 3097 
Q 1578 3097 1268 2742 
Q 959 2388 959 1747 
Q 959 1106 1268 751 
Q 1578 397 2138 397 
Q 2388 397 2633 464 
Q 2878 531 3122 666 
L 3122 134 
Q 2881 22 2623 -34 
Q 2366 -91 2075 -91 
Q 1284 -91 818 406 
Q 353 903 353 1747 
Q 353 2603 823 3093 
Q 1294 3584 2113 3584 
Q 2378 3584 2631 3529 
Q 2884 3475 3122 3366 
z
" transform="scale(0.015625)"/>
       <path id="DejaVuSans-74" d="M 1172 4494 
L 1172 3500 
L 2356 3500 
L 2356 3053 
L 1172 3053 
L 1172 1153 
Q 1172 725 1289 603 
Q 1406 481 1766 481 
L 2356 481 
L 2356 0 
L 1766 0 
Q 1100 0 847 248 
Q 594 497 594 1153 
L 594 3053 
L 172 3053 
L 172 3500 
L 594 3500 
L 594 4494 
L 1172 4494 
z
" transform="scale(0.015625)"/>
       <path id="DejaVuSans-69" d="M 603 3500 
L 1178 3500 
L 1178 0 
L 603 0 
L 603 3500 
z
M 603 4863 
L 1178 4863 
L 1178 4134 
L 603 4134 
L 603 4863 
z
" transform="scale(0.015625)"/>
       <path id="DejaVuSans-6f" d="M 1959 3097 
Q 1497 3097 1228 2736 
Q 959 2375 959 1747 
Q 959 1119 1226 758 
Q 1494 397 1959 397 
Q 2419 397 2687 759 
Q 2956 1122 2956 1747 
Q 2956 2369 2687 2733 
Q 2419 3097 1959 3097 
z
M 1959 3584 
Q 2709 3584 3137 3096 
Q 3566 2609 3566 1747 
Q 3566 888 3137 398 
Q 2709 -91 1959 -91 
Q 1206 -91 779 398 
Q 353 888 353 1747 
Q 353 2609 779 3096 
Q 1206 3584 1959 3584 
z
" transform="scale(0.015625)"/>
       <path id="DejaVuSans-6e" d="M 3513 2113 
L 3513 0 
L 2938 0 
L 2938 2094 
Q 2938 2591 2744 2837 
Q 2550 3084 2163 3084 
Q 1697 3084 1428 2787 
Q 1159 2491 1159 1978 
L 1159 0 
L 581 0 
L 581 3500 
L 1159 3500 
L 1159 2956 
Q 1366 3272 1645 3428 
Q 1925 3584 2291 3584 
Q 2894 3584 3203 3211 
Q 3513 2838 3513 2113 
z
" transform="scale(0.015625)"/>
       <path id="DejaVuSans-20" transform="scale(0.015625)"/>
       <path id="DejaVuSans-66" d="M 2375 4863 
L 2375 4384 
L 1825 4384 
Q 1516 4384 1395 4259 
Q 1275 4134 1275 3809 
L 1275 3500 
L 2222 3500 
L 2222 3053 
L 1275 3053 
L 1275 0 
L 697 0 
L 697 3053 
L 147 3053 
L 147 3500 
L 697 3500 
L 697 3744 
Q 697 4328 969 4595 
Q 1241 4863 1831 4863 
L 2375 4863 
z
" transform="scale(0.015625)"/>
       <path id="DejaVuSans-65" d="M 3597 1894 
L 3597 1613 
L 953 1613 
Q 991 1019 1311 708 
Q 1631 397 2203 397 
Q 2534 397 2845 478 
Q 3156 559 3463 722 
L 3463 178 
Q 3153 47 2828 -22 
Q 2503 -91 2169 -91 
Q 1331 -91 842 396 
Q 353 884 353 1716 
Q 353 2575 817 3079 
Q 1281 3584 2069 3584 
Q 2775 3584 3186 3129 
Q 3597 2675 3597 1894 
z
M 3022 2063 
Q 3016 2534 2758 2815 
Q 2500 3097 2075 3097 
Q 1594 3097 1305 2825 
Q 1016 2553 972 2059 
L 3022 2063 
z
" transform="scale(0.015625)"/>
       <path id="DejaVuSans-6c" d="M 603 4863 
L 1178 4863 
L 1178 0 
L 603 0 
L 603 4863 
z
" transform="scale(0.015625)"/>
       <path id="DejaVuSans-73" d="M 2834 3397 
L 2834 2853 
Q 2591 2978 2328 3040 
Q 2066 3103 1784 3103 
Q 1356 3103 1142 2972 
Q 928 2841 928 2578 
Q 928 2378 1081 2264 
Q 1234 2150 1697 2047 
L 1894 2003 
Q 2506 1872 2764 1633 
Q 3022 1394 3022 966 
Q 3022 478 2636 193 
Q 2250 -91 1575 -91 
Q 1294 -91 989 -36 
Q 684 19 347 128 
L 347 722 
Q 666 556 975 473 
Q 1284 391 1588 391 
Q 1994 391 2212 530 
Q 2431 669 2431 922 
Q 2431 1156 2273 1281 
Q 2116 1406 1581 1522 
L 1381 1569 
Q 847 1681 609 1914 
Q 372 2147 372 2553 
Q 372 3047 722 3315 
Q 1072 3584 1716 3584 
Q 2034 3584 2315 3537 
Q 2597 3491 2834 3397 
z
" transform="scale(0.015625)"/>
      </defs>
      <use xlink:href="#DejaVuSans-46"/>
      <use xlink:href="#DejaVuSans-72" x="50.269531"/>
      <use xlink:href="#DejaVuSans-61" x="91.382812"/>
      <use xlink:href="#DejaVuSans-63" x="152.662109"/>
      <use xlink:href="#DejaVuSans-74" x="207.642578"/>
      <use xlink:href="#DejaVuSans-69" x="246.851562"/>
      <use xlink:href="#DejaVuSans-6f" x="274.634766"/>
      <use xlink:href="#DejaVuSans-6e" x="335.816406"/>
      <use xlink:href="#DejaVuSans-20" x="399.195312"/>
      <use xlink:href="#DejaVuSans-6f" x="430.982422"/>
      <use xlink:href="#DejaVuSans-66" x="492.164062"/>
      <use xlink:href="#DejaVuSans-20" x="527.369141"/>
      <use xlink:href="#DejaVuSans-63" x="559.15625"/>
      <use xlink:href="#DejaVuSans-65" x="614.136719"/>
      <use xlink:href="#DejaVuSans-6c" x="675.660156"/>
      <use xlink:href="#DejaVuSans-6c" x="703.443359"/>
      <use xlink:href="#DejaVuSans-73" x="731.226562"/>
     </g>
    </g>
   </g>
   <g id="line2d_17">
    <path d="M -1 260.521875 
L 58.390747 260.418099 
L 64.945587 260.186127 
L 68.223006 259.9544 
L 71.500426 259.590447 
L 74.777846 259.023554 
L 78.055265 258.143502 
L 81.332685 256.786598 
L 84.610105 254.729607 
L 87.887525 251.701981 
L 91.164944 247.424806 
L 94.442364 241.676974 
L 97.719784 234.376977 
L 100.997203 225.657469 
L 104.274623 215.905269 
L 107.552043 205.745754 
L 110.829463 195.966318 
L 114.106882 187.393017 
L 117.384302 180.749632 
L 120.661722 176.533515 
L 123.939141 174.936582 
L 127.216561 175.826247 
L 130.493981 178.785399 
L 133.771401 183.197361 
L 140.32624 193.562692 
L 143.60366 198.234288 
L 146.881079 201.938428 
L 150.158499 204.428095 
L 153.435919 205.638232 
L 156.713339 205.667483 
L 159.990758 204.748644 
L 163.268178 203.209191 
L 169.823017 199.745436 
L 173.100437 198.469994 
L 176.377857 197.768785 
L 179.655277 197.681372 
L 182.932696 198.130733 
L 186.210116 198.975195 
L 189.487536 200.08054 
L 192.764955 201.387469 
L 196.042375 202.947585 
L 199.319795 204.91081 
L 202.597215 207.466388 
L 205.874634 210.760147 
L 209.152054 214.822362 
L 212.429474 219.536522 
L 222.261733 234.933712 
L 225.539153 239.567057 
L 228.816572 243.660542 
L 232.093992 247.166516 
L 235.371412 250.092275 
L 238.648831 252.472969 
L 241.926251 254.356062 
L 245.203671 255.797946 
L 248.481091 256.866044 
L 251.75851 257.638661 
L 255.03593 258.198697 
L 261.590769 258.969681 
L 271.423029 259.804388 
L 277.977868 260.188147 
L 287.810127 260.45607 
L 304.197226 260.520736 
L 577 260.521875 
L 577 260.521875 
" clip-path="url(#p59a812762a)" style="fill: none; stroke: #1f77b4; stroke-width: 1.5; stroke-linecap: square"/>
   </g>
   <g id="line2d_18">
    <path d="M -1 260.521875 
L 117.384302 260.430953 
L 123.939141 260.131211 
L 127.216561 259.819395 
L 130.493981 259.372207 
L 143.60366 257.136794 
L 153.435919 256.11047 
L 156.713339 255.323036 
L 159.990758 253.965221 
L 163.268178 251.94015 
L 166.545598 249.27158 
L 169.823017 246.061305 
L 173.100437 242.411163 
L 176.377857 238.35611 
L 179.655277 233.848084 
L 182.932696 228.798921 
L 186.210116 223.155119 
L 189.487536 216.96176 
L 199.319795 197.229646 
L 202.597215 191.295074 
L 205.874634 186.11103 
L 209.152054 181.681743 
L 215.706893 173.751786 
L 218.984313 169.228401 
L 222.261733 163.936802 
L 225.539153 158.165744 
L 228.816572 152.683174 
L 232.093992 148.440449 
L 235.371412 146.185987 
L 238.648831 146.226012 
L 241.926251 148.458598 
L 245.203671 152.607421 
L 248.481091 158.452273 
L 251.75851 165.887678 
L 255.03593 174.796262 
L 258.31335 184.869916 
L 264.868189 206.097431 
L 268.145609 215.896065 
L 271.423029 224.558491 
L 274.700448 232.010667 
L 277.977868 238.379246 
L 281.255288 243.829187 
L 284.532707 248.451315 
L 287.810127 252.25018 
L 291.087547 255.205681 
L 294.364967 257.343496 
L 297.642386 258.764754 
L 300.919806 259.627481 
L 304.197226 260.10397 
L 307.474645 260.343012 
L 314.029485 260.496835 
L 340.248842 260.521875 
L 577 260.521875 
L 577 260.521875 
" clip-path="url(#p59a812762a)" style="fill: none; stroke: #ff7f0e; stroke-width: 1.5; stroke-linecap: square"/>
   </g>
   <g id="line2d_19">
    <path d="M -1 260.521875 
L 100.997203 260.462482 
L 104.274623 260.36349 
L 107.552043 260.141424 
L 110.829463 259.696864 
L 114.106882 258.902073 
L 117.384302 257.631804 
L 120.661722 255.814439 
L 123.939141 253.484006 
L 133.771401 245.55067 
L 137.04882 243.573898 
L 140.32624 242.244463 
L 146.881079 240.695747 
L 150.158499 239.412193 
L 153.435919 236.973856 
L 156.713339 233.0979 
L 159.990758 227.979909 
L 166.545598 216.154688 
L 169.823017 209.953978 
L 173.100437 202.898361 
L 176.377857 193.917013 
L 179.655277 182.157485 
L 182.932696 167.624225 
L 189.487536 135.699446 
L 192.764955 122.680155 
L 196.042375 114.357347 
L 199.319795 111.853249 
L 202.597215 115.292258 
L 205.874634 123.886972 
L 209.152054 136.183737 
L 215.706893 164.786462 
L 218.984313 177.988486 
L 222.261733 189.258612 
L 225.539153 198.517724 
L 228.816572 206.210026 
L 232.093992 213.021075 
L 245.203671 239.01448 
L 248.481091 244.608438 
L 251.75851 249.264961 
L 255.03593 252.908159 
L 258.31335 255.610593 
L 261.590769 257.519446 
L 264.868189 258.798623 
L 268.145609 259.603106 
L 271.423029 260.071383 
L 274.700448 260.32043 
L 281.255288 260.492043 
L 304.197226 260.521874 
L 577 260.521875 
L 577 260.521875 
" clip-path="url(#p59a812762a)" style="fill: none; stroke: #2ca02c; stroke-width: 1.5; stroke-linecap: square"/>
   </g>
   <g id="patch_63">
    <path d="M 41.711875 260.521875 
L 41.711875 57.594062 
" style="fill: none; stroke: #000000; stroke-width: 0.8; stroke-linejoin: miter; stroke-linecap: square"/>
   </g>
   <g id="patch_64">
    <path d="M 287.53125 260.521875 
L 287.53125 57.594062 
" style="fill: none; stroke: #000000; stroke-width: 0.8; stroke-linejoin: miter; stroke-linecap: square"/>
   </g>
   <g id="patch_65">
    <path d="M 41.711875 260.521875 
L 287.53125 260.521875 
" style="fill: none; stroke: #000000; stroke-width: 0.8; stroke-linejoin: miter; stroke-linecap: square"/>
   </g>
   <g id="patch_66">
    <path d="M 41.711875 57.594062 
L 287.53125 57.594062 
" style="fill: none; stroke: #000000; stroke-width: 0.8; stroke-linejoin: miter; stroke-linecap: square"/>
   </g>
   <g id="text_18">
    <!-- SRV -->
    <g transform="translate(150.910312 51.594062) scale(0.14 -0.14)">
     <defs>
      <path id="DejaVuSans-53" d="M 3425 4513 
L 3425 3897 
Q 3066 4069 2747 4153 
Q 2428 4238 2131 4238 
Q 1616 4238 1336 4038 
Q 1056 3838 1056 3469 
Q 1056 3159 1242 3001 
Q 1428 2844 1947 2747 
L 2328 2669 
Q 3034 2534 3370 2195 
Q 3706 1856 3706 1288 
Q 3706 609 3251 259 
Q 2797 -91 1919 -91 
Q 1588 -91 1214 -16 
Q 841 59 441 206 
L 441 856 
Q 825 641 1194 531 
Q 1563 422 1919 422 
Q 2459 422 2753 634 
Q 3047 847 3047 1241 
Q 3047 1584 2836 1778 
Q 2625 1972 2144 2069 
L 1759 2144 
Q 1053 2284 737 2584 
Q 422 2884 422 3419 
Q 422 4038 858 4394 
Q 1294 4750 2059 4750 
Q 2388 4750 2728 4690 
Q 3069 4631 3425 4513 
z
" transform="scale(0.015625)"/>
      <path id="DejaVuSans-52" d="M 2841 2188 
Q 3044 2119 3236 1894 
Q 3428 1669 3622 1275 
L 4263 0 
L 3584 0 
L 2988 1197 
Q 2756 1666 2539 1819 
Q 2322 1972 1947 1972 
L 1259 1972 
L 1259 0 
L 628 0 
L 628 4666 
L 2053 4666 
Q 2853 4666 3247 4331 
Q 3641 3997 3641 3322 
Q 3641 2881 3436 2590 
Q 3231 2300 2841 2188 
z
M 1259 4147 
L 1259 2491 
L 2053 2491 
Q 2509 2491 2742 2702 
Q 2975 2913 2975 3322 
Q 2975 3731 2742 3939 
Q 2509 4147 2053 4147 
L 1259 4147 
z
" transform="scale(0.015625)"/>
      <path id="DejaVuSans-56" d="M 1831 0 
L 50 4666 
L 709 4666 
L 2188 738 
L 3669 4666 
L 4325 4666 
L 2547 0 
L 1831 0 
z
" transform="scale(0.015625)"/>
     </defs>
     <use xlink:href="#DejaVuSans-53"/>
     <use xlink:href="#DejaVuSans-52" x="63.476562"/>
     <use xlink:href="#DejaVuSans-56" x="127.458984"/>
    </g>
   </g>
   <g id="legend_1">
    <g id="patch_67">
     <path d="M 50.111875 120.035312 
L 130.10125 120.035312 
Q 132.50125 120.035312 132.50125 117.635312 
L 132.50125 65.994062 
Q 132.50125 63.594062 130.10125 63.594062 
L 50.111875 63.594062 
Q 47.711875 63.594062 47.711875 65.994062 
L 47.711875 117.635312 
Q 47.711875 120.035312 50.111875 120.035312 
z
" style="fill: #ffffff; opacity: 0.8; stroke: #cccccc; stroke-linejoin: miter"/>
    </g>
    <g id="patch_68">
     <path d="M 52.511875 77.512187 
L 76.511875 77.512187 
L 76.511875 69.112187 
L 52.511875 69.112187 
z
" style="fill: #1f77b4; opacity: 0.4"/>
    </g>
    <g id="text_19">
     <!-- control -->
     <g transform="translate(86.111875 77.512187) scale(0.12 -0.12)">
      <use xlink:href="#DejaVuSans-63"/>
      <use xlink:href="#DejaVuSans-6f" x="54.980469"/>
      <use xlink:href="#DejaVuSans-6e" x="116.162109"/>
      <use xlink:href="#DejaVuSans-74" x="179.541016"/>
      <use xlink:href="#DejaVuSans-72" x="218.75"/>
      <use xlink:href="#DejaVuSans-6f" x="257.613281"/>
      <use xlink:href="#DejaVuSans-6c" x="318.794922"/>
     </g>
    </g>
    <g id="patch_69">
     <path d="M 52.511875 95.125937 
L 76.511875 95.125937 
L 76.511875 86.725937 
L 52.511875 86.725937 
z
" style="fill: #ff7f0e; opacity: 0.4"/>
    </g>
    <g id="text_20">
     <!-- cytd -->
     <g transform="translate(86.111875 95.125937) scale(0.12 -0.12)">
      <defs>
       <path id="DejaVuSans-79" d="M 2059 -325 
Q 1816 -950 1584 -1140 
Q 1353 -1331 966 -1331 
L 506 -1331 
L 506 -850 
L 844 -850 
Q 1081 -850 1212 -737 
Q 1344 -625 1503 -206 
L 1606 56 
L 191 3500 
L 800 3500 
L 1894 763 
L 2988 3500 
L 3597 3500 
L 2059 -325 
z
" transform="scale(0.015625)"/>
       <path id="DejaVuSans-64" d="M 2906 2969 
L 2906 4863 
L 3481 4863 
L 3481 0 
L 2906 0 
L 2906 525 
Q 2725 213 2448 61 
Q 2172 -91 1784 -91 
Q 1150 -91 751 415 
Q 353 922 353 1747 
Q 353 2572 751 3078 
Q 1150 3584 1784 3584 
Q 2172 3584 2448 3432 
Q 2725 3281 2906 2969 
z
M 947 1747 
Q 947 1113 1208 752 
Q 1469 391 1925 391 
Q 2381 391 2643 752 
Q 2906 1113 2906 1747 
Q 2906 2381 2643 2742 
Q 2381 3103 1925 3103 
Q 1469 3103 1208 2742 
Q 947 2381 947 1747 
z
" transform="scale(0.015625)"/>
      </defs>
      <use xlink:href="#DejaVuSans-63"/>
      <use xlink:href="#DejaVuSans-79" x="54.980469"/>
      <use xlink:href="#DejaVuSans-74" x="114.160156"/>
      <use xlink:href="#DejaVuSans-64" x="153.369141"/>
     </g>
    </g>
    <g id="patch_70">
     <path d="M 52.511875 112.739687 
L 76.511875 112.739687 
L 76.511875 104.339687 
L 52.511875 104.339687 
z
" style="fill: #2ca02c; opacity: 0.4"/>
    </g>
    <g id="text_21">
     <!-- jasp -->
     <g transform="translate(86.111875 112.739687) scale(0.12 -0.12)">
      <defs>
       <path id="DejaVuSans-6a" d="M 603 3500 
L 1178 3500 
L 1178 -63 
Q 1178 -731 923 -1031 
Q 669 -1331 103 -1331 
L -116 -1331 
L -116 -844 
L 38 -844 
Q 366 -844 484 -692 
Q 603 -541 603 -63 
L 603 3500 
z
M 603 4863 
L 1178 4863 
L 1178 4134 
L 603 4134 
L 603 4863 
z
" transform="scale(0.015625)"/>
       <path id="DejaVuSans-70" d="M 1159 525 
L 1159 -1331 
L 581 -1331 
L 581 3500 
L 1159 3500 
L 1159 2969 
Q 1341 3281 1617 3432 
Q 1894 3584 2278 3584 
Q 2916 3584 3314 3078 
Q 3713 2572 3713 1747 
Q 3713 922 3314 415 
Q 2916 -91 2278 -91 
Q 1894 -91 1617 61 
Q 1341 213 1159 525 
z
M 3116 1747 
Q 3116 2381 2855 2742 
Q 2594 3103 2138 3103 
Q 1681 3103 1420 2742 
Q 1159 2381 1159 1747 
Q 1159 1113 1420 752 
Q 1681 391 2138 391 
Q 2594 391 2855 752 
Q 3116 1113 3116 1747 
z
" transform="scale(0.015625)"/>
      </defs>
      <use xlink:href="#DejaVuSans-6a"/>
      <use xlink:href="#DejaVuSans-61" x="27.783203"/>
      <use xlink:href="#DejaVuSans-73" x="89.0625"/>
      <use xlink:href="#DejaVuSans-70" x="141.162109"/>
     </g>
    </g>
   </g>
  </g>
  <g id="axes_2">
   <g id="patch_71">
    <path d="M 319.380625 260.521875 
L 565.2 260.521875 
L 565.2 57.594062 
L 319.380625 57.594062 
z
" style="fill: #ffffff"/>
   </g>
   <g id="patch_72">
    <path d="M 319.380625 260.521875 
L 328.513762 260.521875 
L 328.513762 258.752508 
L 319.380625 258.752508 
z
" clip-path="url(#p11c761a8e6)" style="fill: #1f77b4; opacity: 0.4"/>
   </g>
   <g id="patch_73">
    <path d="M 328.513762 260.521875 
L 337.646899 260.521875 
L 337.646899 256.983141 
L 328.513762 256.983141 
z
" clip-path="url(#p11c761a8e6)" style="fill: #1f77b4; opacity: 0.4"/>
   </g>
   <g id="patch_74">
    <path d="M 337.646899 260.521875 
L 346.780036 260.521875 
L 346.780036 249.905672 
L 337.646899 249.905672 
z
" clip-path="url(#p11c761a8e6)" style="fill: #1f77b4; opacity: 0.4"/>
   </g>
   <g id="patch_75">
    <path d="M 346.780036 260.521875 
L 355.913174 260.521875 
L 355.913174 258.752508 
L 346.780036 258.752508 
z
" clip-path="url(#p11c761a8e6)" style="fill: #1f77b4; opacity: 0.4"/>
   </g>
   <g id="patch_76">
    <path d="M 355.913174 260.521875 
L 365.046311 260.521875 
L 365.046311 246.366938 
L 355.913174 246.366938 
z
" clip-path="url(#p11c761a8e6)" style="fill: #1f77b4; opacity: 0.4"/>
   </g>
   <g id="patch_77">
    <path d="M 365.046311 260.521875 
L 374.179448 260.521875 
L 374.179448 249.905672 
L 365.046311 249.905672 
z
" clip-path="url(#p11c761a8e6)" style="fill: #1f77b4; opacity: 0.4"/>
   </g>
   <g id="patch_78">
    <path d="M 374.179448 260.521875 
L 383.312585 260.521875 
L 383.312585 242.828204 
L 374.179448 242.828204 
z
" clip-path="url(#p11c761a8e6)" style="fill: #1f77b4; opacity: 0.4"/>
   </g>
   <g id="patch_79">
    <path d="M 383.312585 260.521875 
L 392.445722 260.521875 
L 392.445722 233.981369 
L 383.312585 233.981369 
z
" clip-path="url(#p11c761a8e6)" style="fill: #1f77b4; opacity: 0.4"/>
   </g>
   <g id="patch_80">
    <path d="M 392.445722 260.521875 
L 401.578859 260.521875 
L 401.578859 235.750736 
L 392.445722 235.750736 
z
" clip-path="url(#p11c761a8e6)" style="fill: #1f77b4; opacity: 0.4"/>
   </g>
   <g id="patch_81">
    <path d="M 401.578859 260.521875 
L 410.711996 260.521875 
L 410.711996 223.365166 
L 401.578859 223.365166 
z
" clip-path="url(#p11c761a8e6)" style="fill: #1f77b4; opacity: 0.4"/>
   </g>
   <g id="patch_82">
    <path d="M 410.711996 260.521875 
L 419.845134 260.521875 
L 419.845134 228.673267 
L 410.711996 228.673267 
z
" clip-path="url(#p11c761a8e6)" style="fill: #1f77b4; opacity: 0.4"/>
   </g>
   <g id="patch_83">
    <path d="M 419.845134 260.521875 
L 428.978271 260.521875 
L 428.978271 230.442634 
L 419.845134 230.442634 
z
" clip-path="url(#p11c761a8e6)" style="fill: #1f77b4; opacity: 0.4"/>
   </g>
   <g id="patch_84">
    <path d="M 428.978271 260.521875 
L 438.111408 260.521875 
L 438.111408 232.212002 
L 428.978271 232.212002 
z
" clip-path="url(#p11c761a8e6)" style="fill: #1f77b4; opacity: 0.4"/>
   </g>
   <g id="patch_85">
    <path d="M 438.111408 260.521875 
L 447.244545 260.521875 
L 447.244545 218.057065 
L 438.111408 218.057065 
z
" clip-path="url(#p11c761a8e6)" style="fill: #1f77b4; opacity: 0.4"/>
   </g>
   <g id="patch_86">
    <path d="M 447.244545 260.521875 
L 456.377682 260.521875 
L 456.377682 230.442634 
L 447.244545 230.442634 
z
" clip-path="url(#p11c761a8e6)" style="fill: #1f77b4; opacity: 0.4"/>
   </g>
   <g id="patch_87">
    <path d="M 456.377682 260.521875 
L 465.510819 260.521875 
L 465.510819 246.366938 
L 456.377682 246.366938 
z
" clip-path="url(#p11c761a8e6)" style="fill: #1f77b4; opacity: 0.4"/>
   </g>
   <g id="patch_88">
    <path d="M 465.510819 260.521875 
L 474.643956 260.521875 
L 474.643956 241.058837 
L 465.510819 241.058837 
z
" clip-path="url(#p11c761a8e6)" style="fill: #1f77b4; opacity: 0.4"/>
   </g>
   <g id="patch_89">
    <path d="M 474.643956 260.521875 
L 483.777094 260.521875 
L 483.777094 249.905672 
L 474.643956 249.905672 
z
" clip-path="url(#p11c761a8e6)" style="fill: #1f77b4; opacity: 0.4"/>
   </g>
   <g id="patch_90">
    <path d="M 483.777094 260.521875 
L 492.910231 260.521875 
L 492.910231 256.983141 
L 483.777094 256.983141 
z
" clip-path="url(#p11c761a8e6)" style="fill: #1f77b4; opacity: 0.4"/>
   </g>
   <g id="patch_91">
    <path d="M 492.910231 260.521875 
L 502.043368 260.521875 
L 502.043368 258.752508 
L 492.910231 258.752508 
z
" clip-path="url(#p11c761a8e6)" style="fill: #1f77b4; opacity: 0.4"/>
   </g>
   <g id="patch_92">
    <path d="M 324.563472 260.521875 
L 333.81452 260.521875 
L 333.81452 233.699809 
L 324.563472 233.699809 
z
" clip-path="url(#p11c761a8e6)" style="fill: #ff7f0e; opacity: 0.4"/>
   </g>
   <g id="patch_93">
    <path d="M 333.81452 260.521875 
L 343.065569 260.521875 
L 343.065569 229.868085 
L 333.81452 229.868085 
z
" clip-path="url(#p11c761a8e6)" style="fill: #ff7f0e; opacity: 0.4"/>
   </g>
   <g id="patch_94">
    <path d="M 343.065569 260.521875 
L 352.316617 260.521875 
L 352.316617 222.204638 
L 343.065569 222.204638 
z
" clip-path="url(#p11c761a8e6)" style="fill: #ff7f0e; opacity: 0.4"/>
   </g>
   <g id="patch_95">
    <path d="M 352.316617 260.521875 
L 361.567666 260.521875 
L 361.567666 214.541191 
L 352.316617 214.541191 
z
" clip-path="url(#p11c761a8e6)" style="fill: #ff7f0e; opacity: 0.4"/>
   </g>
   <g id="patch_96">
    <path d="M 361.567666 260.521875 
L 370.818714 260.521875 
L 370.818714 226.036362 
L 361.567666 226.036362 
z
" clip-path="url(#p11c761a8e6)" style="fill: #ff7f0e; opacity: 0.4"/>
   </g>
   <g id="patch_97">
    <path d="M 370.818714 260.521875 
L 380.069763 260.521875 
L 380.069763 191.550848 
L 370.818714 191.550848 
z
" clip-path="url(#p11c761a8e6)" style="fill: #ff7f0e; opacity: 0.4"/>
   </g>
   <g id="patch_98">
    <path d="M 380.069763 260.521875 
L 389.320811 260.521875 
L 389.320811 229.868085 
L 380.069763 229.868085 
z
" clip-path="url(#p11c761a8e6)" style="fill: #ff7f0e; opacity: 0.4"/>
   </g>
   <g id="patch_99">
    <path d="M 389.320811 260.521875 
L 398.57186 260.521875 
L 398.57186 245.19498 
L 389.320811 245.19498 
z
" clip-path="url(#p11c761a8e6)" style="fill: #ff7f0e; opacity: 0.4"/>
   </g>
   <g id="patch_100">
    <path d="M 398.57186 260.521875 
L 407.822908 260.521875 
L 407.822908 237.531533 
L 398.57186 237.531533 
z
" clip-path="url(#p11c761a8e6)" style="fill: #ff7f0e; opacity: 0.4"/>
   </g>
   <g id="patch_101">
    <path d="M 407.822908 260.521875 
L 417.073957 260.521875 
L 417.073957 249.026704 
L 407.822908 249.026704 
z
" clip-path="url(#p11c761a8e6)" style="fill: #ff7f0e; opacity: 0.4"/>
   </g>
   <g id="patch_102">
    <path d="M 417.073957 260.521875 
L 426.325005 260.521875 
L 426.325005 249.026704 
L 417.073957 249.026704 
z
" clip-path="url(#p11c761a8e6)" style="fill: #ff7f0e; opacity: 0.4"/>
   </g>
   <g id="patch_103">
    <path d="M 426.325005 260.521875 
L 435.576054 260.521875 
L 435.576054 256.690151 
L 426.325005 256.690151 
z
" clip-path="url(#p11c761a8e6)" style="fill: #ff7f0e; opacity: 0.4"/>
   </g>
   <g id="patch_104">
    <path d="M 435.576054 260.521875 
L 444.827102 260.521875 
L 444.827102 256.690151 
L 435.576054 256.690151 
z
" clip-path="url(#p11c761a8e6)" style="fill: #ff7f0e; opacity: 0.4"/>
   </g>
   <g id="patch_105">
    <path d="M 444.827102 260.521875 
L 454.078151 260.521875 
L 454.078151 260.521875 
L 444.827102 260.521875 
z
" clip-path="url(#p11c761a8e6)" style="fill: #ff7f0e; opacity: 0.4"/>
   </g>
   <g id="patch_106">
    <path d="M 454.078151 260.521875 
L 463.329199 260.521875 
L 463.329199 252.858428 
L 454.078151 252.858428 
z
" clip-path="url(#p11c761a8e6)" style="fill: #ff7f0e; opacity: 0.4"/>
   </g>
   <g id="patch_107">
    <path d="M 463.329199 260.521875 
L 472.580248 260.521875 
L 472.580248 260.521875 
L 463.329199 260.521875 
z
" clip-path="url(#p11c761a8e6)" style="fill: #ff7f0e; opacity: 0.4"/>
   </g>
   <g id="patch_108">
    <path d="M 472.580248 260.521875 
L 481.831296 260.521875 
L 481.831296 260.521875 
L 472.580248 260.521875 
z
" clip-path="url(#p11c761a8e6)" style="fill: #ff7f0e; opacity: 0.4"/>
   </g>
   <g id="patch_109">
    <path d="M 481.831296 260.521875 
L 491.082345 260.521875 
L 491.082345 260.521875 
L 481.831296 260.521875 
z
" clip-path="url(#p11c761a8e6)" style="fill: #ff7f0e; opacity: 0.4"/>
   </g>
   <g id="patch_110">
    <path d="M 491.082345 260.521875 
L 500.333394 260.521875 
L 500.333394 260.521875 
L 491.082345 260.521875 
z
" clip-path="url(#p11c761a8e6)" style="fill: #ff7f0e; opacity: 0.4"/>
   </g>
   <g id="patch_111">
    <path d="M 500.333394 260.521875 
L 509.584442 260.521875 
L 509.584442 256.690151 
L 500.333394 256.690151 
z
" clip-path="url(#p11c761a8e6)" style="fill: #ff7f0e; opacity: 0.4"/>
   </g>
   <g id="patch_112">
    <path d="M 322.647058 260.521875 
L 330.799518 260.521875 
L 330.799518 247.752281 
L 322.647058 247.752281 
z
" clip-path="url(#p11c761a8e6)" style="fill: #2ca02c; opacity: 0.4"/>
   </g>
   <g id="patch_113">
    <path d="M 330.799518 260.521875 
L 338.951977 260.521875 
L 338.951977 252.008812 
L 330.799518 252.008812 
z
" clip-path="url(#p11c761a8e6)" style="fill: #2ca02c; opacity: 0.4"/>
   </g>
   <g id="patch_114">
    <path d="M 338.951977 260.521875 
L 347.104437 260.521875 
L 347.104437 243.49575 
L 338.951977 243.49575 
z
" clip-path="url(#p11c761a8e6)" style="fill: #2ca02c; opacity: 0.4"/>
   </g>
   <g id="patch_115">
    <path d="M 347.104437 260.521875 
L 355.256896 260.521875 
L 355.256896 239.239218 
L 347.104437 239.239218 
z
" clip-path="url(#p11c761a8e6)" style="fill: #2ca02c; opacity: 0.4"/>
   </g>
   <g id="patch_116">
    <path d="M 355.256896 260.521875 
L 363.409356 260.521875 
L 363.409356 234.982687 
L 355.256896 234.982687 
z
" clip-path="url(#p11c761a8e6)" style="fill: #2ca02c; opacity: 0.4"/>
   </g>
   <g id="patch_117">
    <path d="M 363.409356 260.521875 
L 371.561815 260.521875 
L 371.561815 234.982687 
L 363.409356 234.982687 
z
" clip-path="url(#p11c761a8e6)" style="fill: #2ca02c; opacity: 0.4"/>
   </g>
   <g id="patch_118">
    <path d="M 371.561815 260.521875 
L 379.714275 260.521875 
L 379.714275 243.49575 
L 371.561815 243.49575 
z
" clip-path="url(#p11c761a8e6)" style="fill: #2ca02c; opacity: 0.4"/>
   </g>
   <g id="patch_119">
    <path d="M 379.714275 260.521875 
L 387.866734 260.521875 
L 387.866734 209.443499 
L 379.714275 209.443499 
z
" clip-path="url(#p11c761a8e6)" style="fill: #2ca02c; opacity: 0.4"/>
   </g>
   <g id="patch_120">
    <path d="M 387.866734 260.521875 
L 396.019194 260.521875 
L 396.019194 196.673905 
L 387.866734 196.673905 
z
" clip-path="url(#p11c761a8e6)" style="fill: #2ca02c; opacity: 0.4"/>
   </g>
   <g id="patch_121">
    <path d="M 396.019194 260.521875 
L 404.171653 260.521875 
L 404.171653 226.469624 
L 396.019194 226.469624 
z
" clip-path="url(#p11c761a8e6)" style="fill: #2ca02c; opacity: 0.4"/>
   </g>
   <g id="patch_122">
    <path d="M 404.171653 260.521875 
L 412.324113 260.521875 
L 412.324113 239.239218 
L 404.171653 239.239218 
z
" clip-path="url(#p11c761a8e6)" style="fill: #2ca02c; opacity: 0.4"/>
   </g>
   <g id="patch_123">
    <path d="M 412.324113 260.521875 
L 420.476572 260.521875 
L 420.476572 239.239218 
L 412.324113 239.239218 
z
" clip-path="url(#p11c761a8e6)" style="fill: #2ca02c; opacity: 0.4"/>
   </g>
   <g id="patch_124">
    <path d="M 420.476572 260.521875 
L 428.629032 260.521875 
L 428.629032 243.49575 
L 420.476572 243.49575 
z
" clip-path="url(#p11c761a8e6)" style="fill: #2ca02c; opacity: 0.4"/>
   </g>
   <g id="patch_125">
    <path d="M 428.629032 260.521875 
L 436.781491 260.521875 
L 436.781491 234.982687 
L 428.629032 234.982687 
z
" clip-path="url(#p11c761a8e6)" style="fill: #2ca02c; opacity: 0.4"/>
   </g>
   <g id="patch_126">
    <path d="M 436.781491 260.521875 
L 444.933951 260.521875 
L 444.933951 247.752281 
L 436.781491 247.752281 
z
" clip-path="url(#p11c761a8e6)" style="fill: #2ca02c; opacity: 0.4"/>
   </g>
   <g id="patch_127">
    <path d="M 444.933951 260.521875 
L 453.08641 260.521875 
L 453.08641 247.752281 
L 444.933951 247.752281 
z
" clip-path="url(#p11c761a8e6)" style="fill: #2ca02c; opacity: 0.4"/>
   </g>
   <g id="patch_128">
    <path d="M 453.08641 260.521875 
L 461.23887 260.521875 
L 461.23887 247.752281 
L 453.08641 247.752281 
z
" clip-path="url(#p11c761a8e6)" style="fill: #2ca02c; opacity: 0.4"/>
   </g>
   <g id="patch_129">
    <path d="M 461.23887 260.521875 
L 469.39133 260.521875 
L 469.39133 260.521875 
L 461.23887 260.521875 
z
" clip-path="url(#p11c761a8e6)" style="fill: #2ca02c; opacity: 0.4"/>
   </g>
   <g id="patch_130">
    <path d="M 469.39133 260.521875 
L 477.543789 260.521875 
L 477.543789 260.521875 
L 469.39133 260.521875 
z
" clip-path="url(#p11c761a8e6)" style="fill: #2ca02c; opacity: 0.4"/>
   </g>
   <g id="patch_131">
    <path d="M 477.543789 260.521875 
L 485.696249 260.521875 
L 485.696249 256.265344 
L 477.543789 256.265344 
z
" clip-path="url(#p11c761a8e6)" style="fill: #2ca02c; opacity: 0.4"/>
   </g>
   <g id="matplotlib.axis_3">
    <g id="xtick_8">
     <g id="line2d_20">
      <g>
       <use xlink:href="#m7055e37f66" x="352.659728" y="260.521875" style="stroke: #000000; stroke-width: 0.8"/>
      </g>
     </g>
     <g id="text_22">
      <!-- 1.25 -->
      <g transform="translate(341.526916 275.120313) scale(0.1 -0.1)">
       <use xlink:href="#DejaVuSans-31"/>
       <use xlink:href="#DejaVuSans-2e" x="63.623047"/>
       <use xlink:href="#DejaVuSans-32" x="95.410156"/>
       <use xlink:href="#DejaVuSans-35" x="159.033203"/>
      </g>
     </g>
    </g>
    <g id="xtick_9">
     <g id="line2d_21">
      <g>
       <use xlink:href="#m7055e37f66" x="386.244905" y="260.521875" style="stroke: #000000; stroke-width: 0.8"/>
      </g>
     </g>
     <g id="text_23">
      <!-- 1.50 -->
      <g transform="translate(375.112093 275.120313) scale(0.1 -0.1)">
       <use xlink:href="#DejaVuSans-31"/>
       <use xlink:href="#DejaVuSans-2e" x="63.623047"/>
       <use xlink:href="#DejaVuSans-35" x="95.410156"/>
       <use xlink:href="#DejaVuSans-30" x="159.033203"/>
      </g>
     </g>
    </g>
    <g id="xtick_10">
     <g id="line2d_22">
      <g>
       <use xlink:href="#m7055e37f66" x="419.830082" y="260.521875" style="stroke: #000000; stroke-width: 0.8"/>
      </g>
     </g>
     <g id="text_24">
      <!-- 1.75 -->
      <g transform="translate(408.69727 275.120313) scale(0.1 -0.1)">
       <use xlink:href="#DejaVuSans-31"/>
       <use xlink:href="#DejaVuSans-2e" x="63.623047"/>
       <use xlink:href="#DejaVuSans-37" x="95.410156"/>
       <use xlink:href="#DejaVuSans-35" x="159.033203"/>
      </g>
     </g>
    </g>
    <g id="xtick_11">
     <g id="line2d_23">
      <g>
       <use xlink:href="#m7055e37f66" x="453.415259" y="260.521875" style="stroke: #000000; stroke-width: 0.8"/>
      </g>
     </g>
     <g id="text_25">
      <!-- 2.00 -->
      <g transform="translate(442.282447 275.120313) scale(0.1 -0.1)">
       <use xlink:href="#DejaVuSans-32"/>
       <use xlink:href="#DejaVuSans-2e" x="63.623047"/>
       <use xlink:href="#DejaVuSans-30" x="95.410156"/>
       <use xlink:href="#DejaVuSans-30" x="159.033203"/>
      </g>
     </g>
    </g>
    <g id="xtick_12">
     <g id="line2d_24">
      <g>
       <use xlink:href="#m7055e37f66" x="487.000436" y="260.521875" style="stroke: #000000; stroke-width: 0.8"/>
      </g>
     </g>
     <g id="text_26">
      <!-- 2.25 -->
      <g transform="translate(475.867624 275.120313) scale(0.1 -0.1)">
       <use xlink:href="#DejaVuSans-32"/>
       <use xlink:href="#DejaVuSans-2e" x="63.623047"/>
       <use xlink:href="#DejaVuSans-32" x="95.410156"/>
       <use xlink:href="#DejaVuSans-35" x="159.033203"/>
      </g>
     </g>
    </g>
    <g id="xtick_13">
     <g id="line2d_25">
      <g>
       <use xlink:href="#m7055e37f66" x="520.585613" y="260.521875" style="stroke: #000000; stroke-width: 0.8"/>
      </g>
     </g>
     <g id="text_27">
      <!-- 2.50 -->
      <g transform="translate(509.452801 275.120313) scale(0.1 -0.1)">
       <use xlink:href="#DejaVuSans-32"/>
       <use xlink:href="#DejaVuSans-2e" x="63.623047"/>
       <use xlink:href="#DejaVuSans-35" x="95.410156"/>
       <use xlink:href="#DejaVuSans-30" x="159.033203"/>
      </g>
     </g>
    </g>
    <g id="xtick_14">
     <g id="line2d_26">
      <g>
       <use xlink:href="#m7055e37f66" x="554.17079" y="260.521875" style="stroke: #000000; stroke-width: 0.8"/>
      </g>
     </g>
     <g id="text_28">
      <!-- 2.75 -->
      <g transform="translate(543.037978 275.120313) scale(0.1 -0.1)">
       <use xlink:href="#DejaVuSans-32"/>
       <use xlink:href="#DejaVuSans-2e" x="63.623047"/>
       <use xlink:href="#DejaVuSans-37" x="95.410156"/>
       <use xlink:href="#DejaVuSans-35" x="159.033203"/>
      </g>
     </g>
    </g>
   </g>
   <g id="matplotlib.axis_4">
    <g id="ytick_10">
     <g id="line2d_27">
      <g>
       <use xlink:href="#m961b5dd79e" x="319.380625" y="260.521875" style="stroke: #000000; stroke-width: 0.8"/>
      </g>
     </g>
    </g>
    <g id="ytick_11">
     <g id="line2d_28">
      <g>
       <use xlink:href="#m961b5dd79e" x="319.380625" y="235.982672" style="stroke: #000000; stroke-width: 0.8"/>
      </g>
     </g>
    </g>
    <g id="ytick_12">
     <g id="line2d_29">
      <g>
       <use xlink:href="#m961b5dd79e" x="319.380625" y="211.443468" style="stroke: #000000; stroke-width: 0.8"/>
      </g>
     </g>
    </g>
    <g id="ytick_13">
     <g id="line2d_30">
      <g>
       <use xlink:href="#m961b5dd79e" x="319.380625" y="186.904265" style="stroke: #000000; stroke-width: 0.8"/>
      </g>
     </g>
    </g>
    <g id="ytick_14">
     <g id="line2d_31">
      <g>
       <use xlink:href="#m961b5dd79e" x="319.380625" y="162.365062" style="stroke: #000000; stroke-width: 0.8"/>
      </g>
     </g>
    </g>
    <g id="ytick_15">
     <g id="line2d_32">
      <g>
       <use xlink:href="#m961b5dd79e" x="319.380625" y="137.825858" style="stroke: #000000; stroke-width: 0.8"/>
      </g>
     </g>
    </g>
    <g id="ytick_16">
     <g id="line2d_33">
      <g>
       <use xlink:href="#m961b5dd79e" x="319.380625" y="113.286655" style="stroke: #000000; stroke-width: 0.8"/>
      </g>
     </g>
    </g>
    <g id="ytick_17">
     <g id="line2d_34">
      <g>
       <use xlink:href="#m961b5dd79e" x="319.380625" y="88.747451" style="stroke: #000000; stroke-width: 0.8"/>
      </g>
     </g>
    </g>
    <g id="ytick_18">
     <g id="line2d_35">
      <g>
       <use xlink:href="#m961b5dd79e" x="319.380625" y="64.208248" style="stroke: #000000; stroke-width: 0.8"/>
      </g>
     </g>
    </g>
    <g id="text_29">
     <!-- Fraction of cells -->
     <g transform="translate(308.969062 213.889844) rotate(-90) scale(0.14 -0.14)">
      <use xlink:href="#DejaVuSans-46"/>
      <use xlink:href="#DejaVuSans-72" x="50.269531"/>
      <use xlink:href="#DejaVuSans-61" x="91.382812"/>
      <use xlink:href="#DejaVuSans-63" x="152.662109"/>
      <use xlink:href="#DejaVuSans-74" x="207.642578"/>
      <use xlink:href="#DejaVuSans-69" x="246.851562"/>
      <use xlink:href="#DejaVuSans-6f" x="274.634766"/>
      <use xlink:href="#DejaVuSans-6e" x="335.816406"/>
      <use xlink:href="#DejaVuSans-20" x="399.195312"/>
      <use xlink:href="#DejaVuSans-6f" x="430.982422"/>
      <use xlink:href="#DejaVuSans-66" x="492.164062"/>
      <use xlink:href="#DejaVuSans-20" x="527.369141"/>
      <use xlink:href="#DejaVuSans-63" x="559.15625"/>
      <use xlink:href="#DejaVuSans-65" x="614.136719"/>
      <use xlink:href="#DejaVuSans-6c" x="675.660156"/>
      <use xlink:href="#DejaVuSans-6c" x="703.443359"/>
      <use xlink:href="#DejaVuSans-73" x="731.226562"/>
     </g>
    </g>
   </g>
   <g id="line2d_36">
    <path d="M 319.074551 258.86488 
L 324.502459 258.059548 
L 331.287343 256.797004 
L 342.143158 254.463964 
L 351.641996 252.276268 
L 357.069903 250.781901 
L 361.140833 249.449501 
L 365.211764 247.905053 
L 369.282695 246.151711 
L 374.710602 243.55477 
L 389.637347 236.190811 
L 395.065255 233.831655 
L 399.136185 232.273587 
L 403.207116 230.975671 
L 405.921069 230.2906 
L 408.635023 229.762031 
L 412.705954 229.24214 
L 418.133861 228.892322 
L 427.632699 228.373792 
L 433.060606 228.084891 
L 435.77456 228.093856 
L 438.488514 228.302355 
L 441.202467 228.774798 
L 443.916421 229.552415 
L 446.630375 230.643629 
L 449.344329 232.020742 
L 452.058282 233.624052 
L 457.48619 237.180411 
L 462.914097 240.690155 
L 466.985028 243.092155 
L 472.412935 246.034582 
L 485.982703 253.092122 
L 490.053634 254.980866 
L 494.124565 256.575311 
L 496.838518 257.444375 
L 500.909449 258.458536 
L 504.980379 259.170858 
L 509.05131 259.654013 
L 514.479217 260.059079 
L 521.264101 260.332852 
L 530.762939 260.483192 
L 552.474569 260.52173 
L 577 260.521875 
L 577 260.521875 
" clip-path="url(#p11c761a8e6)" style="fill: none; stroke: #1f77b4; stroke-width: 1.5; stroke-linecap: square"/>
   </g>
   <g id="line2d_37">
    <path d="M 319.074551 250.114427 
L 323.145482 246.445442 
L 329.930366 239.793514 
L 334.001297 235.889802 
L 338.072227 232.322851 
L 340.786181 230.200185 
L 343.500134 228.296467 
L 346.214088 226.597402 
L 350.285019 224.355765 
L 355.712926 221.720044 
L 361.140833 219.35553 
L 363.854787 218.351346 
L 366.568741 217.572269 
L 369.282695 217.123299 
L 370.639671 217.055581 
L 371.996648 217.107879 
L 373.353625 217.28936 
L 374.710602 217.606524 
L 376.067579 218.062762 
L 377.424556 218.658059 
L 378.781533 219.388877 
L 381.495486 221.225859 
L 384.20944 223.481758 
L 388.28037 227.368747 
L 395.065255 234.074135 
L 399.136185 237.703908 
L 401.850139 239.872918 
L 404.564093 241.841652 
L 408.635023 244.457327 
L 412.705954 246.730931 
L 416.776884 248.721739 
L 420.847815 250.471807 
L 424.918745 252.009942 
L 428.989676 253.352013 
L 433.060606 254.498758 
L 437.131537 255.440165 
L 441.202467 256.170631 
L 445.273398 256.70817 
L 452.058282 257.327759 
L 461.55712 258.176921 
L 477.840842 259.848154 
L 483.26875 260.090253 
L 488.696657 260.106797 
L 495.481541 259.88873 
L 507.694333 259.441157 
L 513.12224 259.470535 
L 519.907125 259.727335 
L 533.476893 260.322331 
L 542.975731 260.482358 
L 563.330384 260.521673 
L 577 260.521874 
L 577 260.521874 
" clip-path="url(#p11c761a8e6)" style="fill: none; stroke: #ff7f0e; stroke-width: 1.5; stroke-linecap: square"/>
   </g>
   <g id="line2d_38">
    <path d="M 319.074551 255.665578 
L 323.145482 254.172451 
L 328.573389 251.90465 
L 334.001297 249.356687 
L 342.143158 245.205282 
L 348.928042 241.817482 
L 354.355949 239.377739 
L 363.854787 235.306088 
L 366.568741 233.940124 
L 369.282695 232.382556 
L 371.996648 230.61348 
L 376.067579 227.630064 
L 381.495486 223.559887 
L 384.20944 221.831332 
L 385.566417 221.119642 
L 386.923394 220.536411 
L 388.28037 220.098721 
L 389.637347 219.820374 
L 390.994324 219.711301 
L 392.351301 219.777129 
L 393.708278 220.018948 
L 395.065255 220.433266 
L 396.422232 221.012166 
L 397.779208 221.743646 
L 400.493162 223.599018 
L 403.207116 225.843521 
L 412.705954 234.251262 
L 415.419907 236.235005 
L 418.133861 237.900354 
L 420.847815 239.250439 
L 423.561768 240.325414 
L 426.275722 241.189986 
L 431.70363 242.588292 
L 438.488514 244.359785 
L 442.559444 245.641218 
L 447.987352 247.635634 
L 454.772236 250.445052 
L 462.914097 253.840851 
L 466.985028 255.33559 
L 471.055958 256.584489 
L 475.126889 257.550702 
L 479.197819 258.250108 
L 484.625727 258.871838 
L 492.767588 259.476937 
L 504.980379 260.139086 
L 514.479217 260.412677 
L 526.692009 260.511021 
L 577 260.521875 
L 577 260.521875 
" clip-path="url(#p11c761a8e6)" style="fill: none; stroke: #2ca02c; stroke-width: 1.5; stroke-linecap: square"/>
   </g>
   <g id="patch_132">
    <path d="M 319.380625 260.521875 
L 319.380625 57.594062 
" style="fill: none; stroke: #000000; stroke-width: 0.8; stroke-linejoin: miter; stroke-linecap: square"/>
   </g>
   <g id="patch_133">
    <path d="M 565.2 260.521875 
L 565.2 57.594062 
" style="fill: none; stroke: #000000; stroke-width: 0.8; stroke-linejoin: miter; stroke-linecap: square"/>
   </g>
   <g id="patch_134">
    <path d="M 319.380625 260.521875 
L 565.2 260.521875 
" style="fill: none; stroke: #000000; stroke-width: 0.8; stroke-linejoin: miter; stroke-linecap: square"/>
   </g>
   <g id="patch_135">
    <path d="M 319.380625 57.594062 
L 565.2 57.594062 
" style="fill: none; stroke: #000000; stroke-width: 0.8; stroke-linejoin: miter; stroke-linecap: square"/>
   </g>
   <g id="text_30">
    <!-- Linear -->
    <g transform="translate(420.534531 51.594062) scale(0.14 -0.14)">
     <defs>
      <path id="DejaVuSans-4c" d="M 628 4666 
L 1259 4666 
L 1259 531 
L 3531 531 
L 3531 0 
L 628 0 
L 628 4666 
z
" transform="scale(0.015625)"/>
     </defs>
     <use xlink:href="#DejaVuSans-4c"/>
     <use xlink:href="#DejaVuSans-69" x="55.712891"/>
     <use xlink:href="#DejaVuSans-6e" x="83.496094"/>
     <use xlink:href="#DejaVuSans-65" x="146.875"/>
     <use xlink:href="#DejaVuSans-61" x="208.398438"/>
     <use xlink:href="#DejaVuSans-72" x="269.677734"/>
    </g>
   </g>
   <g id="legend_2">
    <g id="patch_136">
     <path d="M 476.810625 120.035312 
L 556.8 120.035312 
Q 559.2 120.035312 559.2 117.635312 
L 559.2 65.994062 
Q 559.2 63.594062 556.8 63.594062 
L 476.810625 63.594062 
Q 474.410625 63.594062 474.410625 65.994062 
L 474.410625 117.635312 
Q 474.410625 120.035312 476.810625 120.035312 
z
" style="fill: #ffffff; opacity: 0.8; stroke: #cccccc; stroke-linejoin: miter"/>
    </g>
    <g id="patch_137">
     <path d="M 479.210625 77.512187 
L 503.210625 77.512187 
L 503.210625 69.112187 
L 479.210625 69.112187 
z
" style="fill: #1f77b4; opacity: 0.4"/>
    </g>
    <g id="text_31">
     <!-- control -->
     <g transform="translate(512.810625 77.512187) scale(0.12 -0.12)">
      <use xlink:href="#DejaVuSans-63"/>
      <use xlink:href="#DejaVuSans-6f" x="54.980469"/>
      <use xlink:href="#DejaVuSans-6e" x="116.162109"/>
      <use xlink:href="#DejaVuSans-74" x="179.541016"/>
      <use xlink:href="#DejaVuSans-72" x="218.75"/>
      <use xlink:href="#DejaVuSans-6f" x="257.613281"/>
      <use xlink:href="#DejaVuSans-6c" x="318.794922"/>
     </g>
    </g>
    <g id="patch_138">
     <path d="M 479.210625 95.125937 
L 503.210625 95.125937 
L 503.210625 86.725937 
L 479.210625 86.725937 
z
" style="fill: #ff7f0e; opacity: 0.4"/>
    </g>
    <g id="text_32">
     <!-- cytd -->
     <g transform="translate(512.810625 95.125937) scale(0.12 -0.12)">
      <use xlink:href="#DejaVuSans-63"/>
      <use xlink:href="#DejaVuSans-79" x="54.980469"/>
      <use xlink:href="#DejaVuSans-74" x="114.160156"/>
      <use xlink:href="#DejaVuSans-64" x="153.369141"/>
     </g>
    </g>
    <g id="patch_139">
     <path d="M 479.210625 112.739687 
L 503.210625 112.739687 
L 503.210625 104.339687 
L 479.210625 104.339687 
z
" style="fill: #2ca02c; opacity: 0.4"/>
    </g>
    <g id="text_33">
     <!-- jasp -->
     <g transform="translate(512.810625 112.739687) scale(0.12 -0.12)">
      <use xlink:href="#DejaVuSans-6a"/>
      <use xlink:href="#DejaVuSans-61" x="27.783203"/>
      <use xlink:href="#DejaVuSans-73" x="89.0625"/>
      <use xlink:href="#DejaVuSans-70" x="141.162109"/>
     </g>
    </g>
   </g>
  </g>
  <g id="text_34">
   <!-- Histograms of SRV distances to global mean cell -->
   <g transform="translate(45.753125 20.956875) scale(0.2 -0.2)">
    <defs>
     <path id="DejaVuSans-48" d="M 628 4666 
L 1259 4666 
L 1259 2753 
L 3553 2753 
L 3553 4666 
L 4184 4666 
L 4184 0 
L 3553 0 
L 3553 2222 
L 1259 2222 
L 1259 0 
L 628 0 
L 628 4666 
z
" transform="scale(0.015625)"/>
     <path id="DejaVuSans-67" d="M 2906 1791 
Q 2906 2416 2648 2759 
Q 2391 3103 1925 3103 
Q 1463 3103 1205 2759 
Q 947 2416 947 1791 
Q 947 1169 1205 825 
Q 1463 481 1925 481 
Q 2391 481 2648 825 
Q 2906 1169 2906 1791 
z
M 3481 434 
Q 3481 -459 3084 -895 
Q 2688 -1331 1869 -1331 
Q 1566 -1331 1297 -1286 
Q 1028 -1241 775 -1147 
L 775 -588 
Q 1028 -725 1275 -790 
Q 1522 -856 1778 -856 
Q 2344 -856 2625 -561 
Q 2906 -266 2906 331 
L 2906 616 
Q 2728 306 2450 153 
Q 2172 0 1784 0 
Q 1141 0 747 490 
Q 353 981 353 1791 
Q 353 2603 747 3093 
Q 1141 3584 1784 3584 
Q 2172 3584 2450 3431 
Q 2728 3278 2906 2969 
L 2906 3500 
L 3481 3500 
L 3481 434 
z
" transform="scale(0.015625)"/>
     <path id="DejaVuSans-6d" d="M 3328 2828 
Q 3544 3216 3844 3400 
Q 4144 3584 4550 3584 
Q 5097 3584 5394 3201 
Q 5691 2819 5691 2113 
L 5691 0 
L 5113 0 
L 5113 2094 
Q 5113 2597 4934 2840 
Q 4756 3084 4391 3084 
Q 3944 3084 3684 2787 
Q 3425 2491 3425 1978 
L 3425 0 
L 2847 0 
L 2847 2094 
Q 2847 2600 2669 2842 
Q 2491 3084 2119 3084 
Q 1678 3084 1418 2786 
Q 1159 2488 1159 1978 
L 1159 0 
L 581 0 
L 581 3500 
L 1159 3500 
L 1159 2956 
Q 1356 3278 1631 3431 
Q 1906 3584 2284 3584 
Q 2666 3584 2933 3390 
Q 3200 3197 3328 2828 
z
" transform="scale(0.015625)"/>
     <path id="DejaVuSans-62" d="M 3116 1747 
Q 3116 2381 2855 2742 
Q 2594 3103 2138 3103 
Q 1681 3103 1420 2742 
Q 1159 2381 1159 1747 
Q 1159 1113 1420 752 
Q 1681 391 2138 391 
Q 2594 391 2855 752 
Q 3116 1113 3116 1747 
z
M 1159 2969 
Q 1341 3281 1617 3432 
Q 1894 3584 2278 3584 
Q 2916 3584 3314 3078 
Q 3713 2572 3713 1747 
Q 3713 922 3314 415 
Q 2916 -91 2278 -91 
Q 1894 -91 1617 61 
Q 1341 213 1159 525 
L 1159 0 
L 581 0 
L 581 4863 
L 1159 4863 
L 1159 2969 
z
" transform="scale(0.015625)"/>
    </defs>
    <use xlink:href="#DejaVuSans-48"/>
    <use xlink:href="#DejaVuSans-69" x="75.195312"/>
    <use xlink:href="#DejaVuSans-73" x="102.978516"/>
    <use xlink:href="#DejaVuSans-74" x="155.078125"/>
    <use xlink:href="#DejaVuSans-6f" x="194.287109"/>
    <use xlink:href="#DejaVuSans-67" x="255.46875"/>
    <use xlink:href="#DejaVuSans-72" x="318.945312"/>
    <use xlink:href="#DejaVuSans-61" x="360.058594"/>
    <use xlink:href="#DejaVuSans-6d" x="421.337891"/>
    <use xlink:href="#DejaVuSans-73" x="518.75"/>
    <use xlink:href="#DejaVuSans-20" x="570.849609"/>
    <use xlink:href="#DejaVuSans-6f" x="602.636719"/>
    <use xlink:href="#DejaVuSans-66" x="663.818359"/>
    <use xlink:href="#DejaVuSans-20" x="699.023438"/>
    <use xlink:href="#DejaVuSans-53" x="730.810547"/>
    <use xlink:href="#DejaVuSans-52" x="794.287109"/>
    <use xlink:href="#DejaVuSans-56" x="858.269531"/>
    <use xlink:href="#DejaVuSans-20" x="926.677734"/>
    <use xlink:href="#DejaVuSans-64" x="958.464844"/>
    <use xlink:href="#DejaVuSans-69" x="1021.941406"/>
    <use xlink:href="#DejaVuSans-73" x="1049.724609"/>
    <use xlink:href="#DejaVuSans-74" x="1101.824219"/>
    <use xlink:href="#DejaVuSans-61" x="1141.033203"/>
    <use xlink:href="#DejaVuSans-6e" x="1202.3125"/>
    <use xlink:href="#DejaVuSans-63" x="1265.691406"/>
    <use xlink:href="#DejaVuSans-65" x="1320.671875"/>
    <use xlink:href="#DejaVuSans-73" x="1382.195312"/>
    <use xlink:href="#DejaVuSans-20" x="1434.294922"/>
    <use xlink:href="#DejaVuSans-74" x="1466.082031"/>
    <use xlink:href="#DejaVuSans-6f" x="1505.291016"/>
    <use xlink:href="#DejaVuSans-20" x="1566.472656"/>
    <use xlink:href="#DejaVuSans-67" x="1598.259766"/>
    <use xlink:href="#DejaVuSans-6c" x="1661.736328"/>
    <use xlink:href="#DejaVuSans-6f" x="1689.519531"/>
    <use xlink:href="#DejaVuSans-62" x="1750.701172"/>
    <use xlink:href="#DejaVuSans-61" x="1814.177734"/>
    <use xlink:href="#DejaVuSans-6c" x="1875.457031"/>
    <use xlink:href="#DejaVuSans-20" x="1903.240234"/>
    <use xlink:href="#DejaVuSans-6d" x="1935.027344"/>
    <use xlink:href="#DejaVuSans-65" x="2032.439453"/>
    <use xlink:href="#DejaVuSans-61" x="2093.962891"/>
    <use xlink:href="#DejaVuSans-6e" x="2155.242188"/>
    <use xlink:href="#DejaVuSans-20" x="2218.621094"/>
    <use xlink:href="#DejaVuSans-63" x="2250.408203"/>
    <use xlink:href="#DejaVuSans-65" x="2305.388672"/>
    <use xlink:href="#DejaVuSans-6c" x="2366.912109"/>
    <use xlink:href="#DejaVuSans-6c" x="2394.695312"/>
   </g>
  </g>
 </g>
 <defs>
  <clipPath id="p59a812762a">
   <rect x="41.711875" y="57.594062" width="245.819375" height="202.927813"/>
  </clipPath>
  <clipPath id="p11c761a8e6">
   <rect x="319.380625" y="57.594062" width="245.819375" height="202.927813"/>
  </clipPath>
 </defs>
</svg>
