<?xml version="1.0" encoding="utf-8" standalone="no"?>
<!DOCTYPE svg PUBLIC "-//W3C//DTD SVG 1.1//EN"
  "http://www.w3.org/Graphics/SVG/1.1/DTD/svg11.dtd">
<svg xmlns:xlink="http://www.w3.org/1999/xlink" width="540pt" height="288pt" viewBox="0 0 540 288" xmlns="http://www.w3.org/2000/svg" version="1.1">
 <metadata>
  <rdf:RDF xmlns:dc="http://purl.org/dc/elements/1.1/" xmlns:cc="http://creativecommons.org/ns#" xmlns:rdf="http://www.w3.org/1999/02/22-rdf-syntax-ns#">
   <cc:Work>
    <dc:type rdf:resource="http://purl.org/dc/dcmitype/StillImage"/>
    <dc:date>2024-04-08T18:37:12.309455</dc:date>
    <dc:format>image/svg+xml</dc:format>
    <dc:creator>
     <cc:Agent>
      <dc:title>Matplotlib v3.8.4, https://matplotlib.org/</dc:title>
     </cc:Agent>
    </dc:creator>
   </cc:Work>
  </rdf:RDF>
 </metadata>
 <defs>
  <style type="text/css">*{stroke-linejoin: round; stroke-linecap: butt}</style>
 </defs>
 <g id="figure_1">
  <g id="patch_1">
   <path d="M 0 288 
L 540 288 
L 540 0 
L 0 0 
z
" style="fill: #ffffff"/>
  </g>
  <g id="axes_1">
   <g id="line2d_1">
    <path d="M 109.502813 39.141818 
L 109.216843 40.304452 
L 109.257273 40.749378 
L 108.61519 42.590339 
L 106.790001 45.407589 
L 106.562271 46.286313 
L 106.130708 47.275115 
L 106.158606 47.922967 
L 105.891081 49.051704 
L 103.686096 51.455208 
L 100.913282 53.02051 
L 100.567359 53.764649 
L 99.832558 55.954616 
L 99.960822 57.129913 
L 99.644212 58.671976 
L 98.743914 60.30212 
L 98.928205 60.843092 
L 98.422058 62.432036 
L 97.157561 64.477515 
L 96.403636 67.678524 
L 94.270923 70.167535 
L 94.098045 71.227522 
L 94.381151 72.739516 
L 93.035705 75.095075 
L 92.561928 76.395161 
L 92.785115 78.428027 
L 92.747287 80.22288 
L 92.885247 81.166849 
L 93.216846 82.006476 
L 93.317289 82.998627 
L 93.627244 83.862405 
L 93.493823 85.133285 
L 93.707621 85.980124 
L 93.622798 88.237915 
L 94.709866 90.044457 
L 94.98559 92.397576 
L 94.666591 95.921051 
L 95.102466 97.341029 
L 95.794175 97.88405 
L 96.385066 99.667666 
L 96.642731 101.882772 
L 97.486512 102.494447 
L 98.060649 103.063395 
L 98.460848 105.395172 
L 99.028788 106.876216 
L 100.561676 108.072186 
L 100.996696 109.995808 
L 100.770869 111.078994 
L 101.392789 112.59254 
L 102.411792 113.037693 
L 105.145247 116.005715 
L 105.401165 116.703063 
L 107.971329 118.018645 
L 108.94435 118.36357 
L 109.633637 119.112342 
L 109.942027 119.995667 
L 110.468794 120.833685 
L 111.366859 121.888929 
L 114.367744 122.765199 
L 115.998272 123.482017 
L 117.778438 126.67739 
L 118.56855 127.252676 
L 121.241398 128.296436 
L 121.566658 128.200793 
L 122.554209 127.514244 
L 124.791729 127.581288 
L 125.935852 128.216167 
L 129.133439 128.624501 
L 129.869856 129.132872 
L 130.092748 129.469522 
L 131.059131 129.524556 
L 132.001444 129.696346 
L 134.084437 129.814413 
L 137.37004 130.577648 
L 139.129688 130.778182 
L 141.535297 130.092609 
L 144.453608 130.64495 
L 145.233776 130.57332 
L 148.018151 129.035019 
L 149.247958 129.187068 
L 151.295749 128.164215 
L 151.605817 128.262951 
L 155.229344 126.693631 
L 156.21616 126.774378 
L 157.809026 125.957029 
L 158.121131 125.960021 
L 159.033833 125.692306 
L 160.595825 124.357947 
L 161.511333 122.806522 
L 162.692797 121.318656 
L 162.788665 120.677374 
L 164.108999 117.019841 
L 164.126054 116.540808 
L 165.464911 113.57478 
L 165.203126 112.638431 
L 164.929688 111.040177 
L 165.255423 107.842312 
L 165.165281 107.582558 
L 165.526307 106.070735 
L 164.771377 104.304188 
L 164.571419 102.11949 
L 164.356262 101.312942 
L 164.398663 100.249675 
L 165.240894 99.122241 
L 165.409022 96.844721 
L 164.775298 95.774785 
L 164.726672 93.844322 
L 164.141224 92.557986 
L 163.508113 90.49569 
L 162.905738 89.35762 
L 162.953328 88.253059 
L 163.78661 86.886098 
L 164.048019 84.876428 
L 163.67656 83.059527 
L 162.081254 81.788714 
L 160.972852 80.47442 
L 159.600534 79.718605 
L 158.191662 77.807341 
L 157.80779 75.969918 
L 157.2081 75.59 
L 155.210517 73.552134 
L 154.41199 72.915844 
L 153.630324 72.06219 
L 152.890847 71.782436 
L 151.972651 71.01552 
L 151.167728 70.656349 
L 150.445593 69.853813 
L 149.912444 68.108258 
L 149.574173 67.531107 
L 147.608572 66.290433 
L 145.332074 64.072668 
L 144.336193 62.56635 
L 141.432029 61.491796 
L 140.757029 60.446355 
L 139.591707 60.330297 
L 138.180183 59.770073 
L 137.576067 59.217154 
L 134.058791 56.630361 
L 132.315516 56.095596 
L 129.750263 54.107974 
L 129.457661 53.699407 
L 128.711697 53.41523 
L 126.181971 53.767773 
L 125.179215 53.195344 
L 124.376258 52.457569 
L 122.107028 51.04407 
L 121.019631 50.817528 
L 117.518877 51.280305 
L 115.299599 51.094685 
L 114.756895 50.579288 
L 113.580583 49.633704 
L 110.92203 48.938637 
L 110.474436 48.385321 
L 108.33367 47.007626 
L 105.761954 47.23794 
L 104.003571 46.990688 
L 104.003571 46.990688 
" clip-path="url(#pa7422887ab)" style="fill: none; stroke: #1f77b4; stroke-width: 1.5; stroke-linecap: square"/>
   </g>
   <g id="text_1">
    <!-- SRV-control -->
    <g transform="translate(71.778493 28.56) scale(0.2 -0.2)">
     <defs>
      <path id="DejaVuSans-53" d="M 3425 4513 
L 3425 3897 
Q 3066 4069 2747 4153 
Q 2428 4238 2131 4238 
Q 1616 4238 1336 4038 
Q 1056 3838 1056 3469 
Q 1056 3159 1242 3001 
Q 1428 2844 1947 2747 
L 2328 2669 
Q 3034 2534 3370 2195 
Q 3706 1856 3706 1288 
Q 3706 609 3251 259 
Q 2797 -91 1919 -91 
Q 1588 -91 1214 -16 
Q 841 59 441 206 
L 441 856 
Q 825 641 1194 531 
Q 1563 422 1919 422 
Q 2459 422 2753 634 
Q 3047 847 3047 1241 
Q 3047 1584 2836 1778 
Q 2625 1972 2144 2069 
L 1759 2144 
Q 1053 2284 737 2584 
Q 422 2884 422 3419 
Q 422 4038 858 4394 
Q 1294 4750 2059 4750 
Q 2388 4750 2728 4690 
Q 3069 4631 3425 4513 
z
" transform="scale(0.015625)"/>
      <path id="DejaVuSans-52" d="M 2841 2188 
Q 3044 2119 3236 1894 
Q 3428 1669 3622 1275 
L 4263 0 
L 3584 0 
L 2988 1197 
Q 2756 1666 2539 1819 
Q 2322 1972 1947 1972 
L 1259 1972 
L 1259 0 
L 628 0 
L 628 4666 
L 2053 4666 
Q 2853 4666 3247 4331 
Q 3641 3997 3641 3322 
Q 3641 2881 3436 2590 
Q 3231 2300 2841 2188 
z
M 1259 4147 
L 1259 2491 
L 2053 2491 
Q 2509 2491 2742 2702 
Q 2975 2913 2975 3322 
Q 2975 3731 2742 3939 
Q 2509 4147 2053 4147 
L 1259 4147 
z
" transform="scale(0.015625)"/>
      <path id="DejaVuSans-56" d="M 1831 0 
L 50 4666 
L 709 4666 
L 2188 738 
L 3669 4666 
L 4325 4666 
L 2547 0 
L 1831 0 
z
" transform="scale(0.015625)"/>
      <path id="DejaVuSans-2d" d="M 313 2009 
L 1997 2009 
L 1997 1497 
L 313 1497 
L 313 2009 
z
" transform="scale(0.015625)"/>
      <path id="DejaVuSans-63" d="M 3122 3366 
L 3122 2828 
Q 2878 2963 2633 3030 
Q 2388 3097 2138 3097 
Q 1578 3097 1268 2742 
Q 959 2388 959 1747 
Q 959 1106 1268 751 
Q 1578 397 2138 397 
Q 2388 397 2633 464 
Q 2878 531 3122 666 
L 3122 134 
Q 2881 22 2623 -34 
Q 2366 -91 2075 -91 
Q 1284 -91 818 406 
Q 353 903 353 1747 
Q 353 2603 823 3093 
Q 1294 3584 2113 3584 
Q 2378 3584 2631 3529 
Q 2884 3475 3122 3366 
z
" transform="scale(0.015625)"/>
      <path id="DejaVuSans-6f" d="M 1959 3097 
Q 1497 3097 1228 2736 
Q 959 2375 959 1747 
Q 959 1119 1226 758 
Q 1494 397 1959 397 
Q 2419 397 2687 759 
Q 2956 1122 2956 1747 
Q 2956 2369 2687 2733 
Q 2419 3097 1959 3097 
z
M 1959 3584 
Q 2709 3584 3137 3096 
Q 3566 2609 3566 1747 
Q 3566 888 3137 398 
Q 2709 -91 1959 -91 
Q 1206 -91 779 398 
Q 353 888 353 1747 
Q 353 2609 779 3096 
Q 1206 3584 1959 3584 
z
" transform="scale(0.015625)"/>
      <path id="DejaVuSans-6e" d="M 3513 2113 
L 3513 0 
L 2938 0 
L 2938 2094 
Q 2938 2591 2744 2837 
Q 2550 3084 2163 3084 
Q 1697 3084 1428 2787 
Q 1159 2491 1159 1978 
L 1159 0 
L 581 0 
L 581 3500 
L 1159 3500 
L 1159 2956 
Q 1366 3272 1645 3428 
Q 1925 3584 2291 3584 
Q 2894 3584 3203 3211 
Q 3513 2838 3513 2113 
z
" transform="scale(0.015625)"/>
      <path id="DejaVuSans-74" d="M 1172 4494 
L 1172 3500 
L 2356 3500 
L 2356 3053 
L 1172 3053 
L 1172 1153 
Q 1172 725 1289 603 
Q 1406 481 1766 481 
L 2356 481 
L 2356 0 
L 1766 0 
Q 1100 0 847 248 
Q 594 497 594 1153 
L 594 3053 
L 172 3053 
L 172 3500 
L 594 3500 
L 594 4494 
L 1172 4494 
z
" transform="scale(0.015625)"/>
      <path id="DejaVuSans-72" d="M 2631 2963 
Q 2534 3019 2420 3045 
Q 2306 3072 2169 3072 
Q 1681 3072 1420 2755 
Q 1159 2438 1159 1844 
L 1159 0 
L 581 0 
L 581 3500 
L 1159 3500 
L 1159 2956 
Q 1341 3275 1631 3429 
Q 1922 3584 2338 3584 
Q 2397 3584 2469 3576 
Q 2541 3569 2628 3553 
L 2631 2963 
z
" transform="scale(0.015625)"/>
      <path id="DejaVuSans-6c" d="M 603 4863 
L 1178 4863 
L 1178 0 
L 603 0 
L 603 4863 
z
" transform="scale(0.015625)"/>
     </defs>
     <use xlink:href="#DejaVuSans-53"/>
     <use xlink:href="#DejaVuSans-52" x="63.476562"/>
     <use xlink:href="#DejaVuSans-56" x="127.458984"/>
     <use xlink:href="#DejaVuSans-2d" x="189.992188"/>
     <use xlink:href="#DejaVuSans-63" x="226.076172"/>
     <use xlink:href="#DejaVuSans-6f" x="281.056641"/>
     <use xlink:href="#DejaVuSans-6e" x="342.238281"/>
     <use xlink:href="#DejaVuSans-74" x="405.617188"/>
     <use xlink:href="#DejaVuSans-72" x="444.826172"/>
     <use xlink:href="#DejaVuSans-6f" x="483.689453"/>
     <use xlink:href="#DejaVuSans-6c" x="544.871094"/>
    </g>
   </g>
  </g>
  <g id="axes_2">
   <g id="line2d_2">
    <path d="M 273.188878 39.141818 
L 273.28926 43.167766 
L 274.604358 45.245228 
L 274.756012 47.644254 
L 275.286894 51.342092 
L 275.476889 57.99388 
L 276.153141 60.66982 
L 276.455129 63.679583 
L 277.890117 66.352487 
L 278.546954 69.433174 
L 276.764428 72.62863 
L 271.640497 74.252813 
L 271.707943 77.234027 
L 273.74496 79.9808 
L 274.001218 81.40269 
L 274.343465 82.379295 
L 274.087535 83.958958 
L 274.450931 84.288239 
L 275.216746 85.256676 
L 275.322958 86.696742 
L 274.102225 88.251152 
L 273.784819 90.544851 
L 270.688028 92.670419 
L 270.551973 93.245202 
L 271.335499 94.635151 
L 269.294753 96.298749 
L 269.115282 97.061359 
L 269.766446 99.463765 
L 270.684507 100.053153 
L 270.718836 100.746344 
L 270.990995 101.195142 
L 270.979012 101.768133 
L 271.273244 102.163321 
L 270.890469 103.512859 
L 271.89944 104.447227 
L 271.712008 106.063625 
L 271.065845 108.54495 
L 271.190584 109.433689 
L 271.86513 109.719822 
L 272.396206 111.286121 
L 273.267908 111.558441 
L 274.013256 111.945569 
L 274.166944 113.146953 
L 274.607121 113.940622 
L 276.650477 114.750337 
L 276.701103 115.887365 
L 275.713479 117.261576 
L 275.825635 117.789584 
L 276.839525 117.974891 
L 278.561998 119.458815 
L 278.539081 120.088135 
L 279.079346 120.126868 
L 279.962541 120.457233 
L 281.054129 120.341676 
L 281.365062 120.692195 
L 281.406791 121.32822 
L 281.767394 122.704961 
L 284.230246 122.820363 
L 285.721209 123.064608 
L 286.033969 124.44069 
L 286.102296 125.576093 
L 286.354327 126.091417 
L 286.704857 126.519299 
L 287.77409 126.579617 
L 288.585934 126.891547 
L 288.943576 126.520175 
L 290.210717 124.895242 
L 291.473872 124.536816 
L 292.276286 125.165927 
L 294.605663 125.13432 
L 295.112241 125.917993 
L 295.316148 127.085278 
L 296.341727 127.245933 
L 297.535863 126.869062 
L 298.53225 127.45807 
L 299.007136 128.096594 
L 299.378151 128.375356 
L 299.75562 128.460351 
L 300.110743 128.682194 
L 301.119578 128.400847 
L 302.601924 129.163601 
L 303.089751 129.11858 
L 303.855761 129.704348 
L 304.369716 129.464046 
L 304.579257 129.693254 
L 305.214332 129.067115 
L 306.327431 128.945725 
L 307.350768 129.737641 
L 307.983016 130.331966 
L 308.727856 130.209514 
L 309.131174 130.339271 
L 309.461121 130.778182 
L 310.226212 130.706787 
L 310.851471 130.399334 
L 311.180027 129.625074 
L 311.593989 129.029827 
L 311.382988 128.503205 
L 310.869353 126.459072 
L 310.919623 125.825209 
L 310.780568 125.710145 
L 310.751564 125.480648 
L 311.057004 124.015727 
L 310.846609 123.770934 
L 310.620735 123.678947 
L 309.930204 122.920347 
L 309.507327 122.117081 
L 309.0584 120.731066 
L 308.877543 120.623094 
L 308.902345 120.103191 
L 308.608895 119.943802 
L 307.236144 118.76621 
L 306.710586 117.079787 
L 306.764476 116.418529 
L 309.710462 114.839172 
L 309.741022 113.477694 
L 308.390752 112.427995 
L 308.099526 111.121186 
L 307.372347 110.20717 
L 307.161425 108.553896 
L 306.829119 107.707595 
L 307.025259 106.691295 
L 310.230057 104.555727 
L 311.437693 102.715607 
L 311.185576 101.797231 
L 310.515807 101.441862 
L 309.563781 101.240419 
L 308.51137 100.676467 
L 306.211863 100.555625 
L 304.923668 99.545773 
L 304.763223 97.623915 
L 303.82578 97.529433 
L 302.669628 96.626374 
L 301.927236 96.290805 
L 301.218366 95.68112 
L 300.4101 95.600526 
L 299.737968 94.959303 
L 298.883137 94.845761 
L 298.479762 94.335924 
L 299.097946 92.208186 
L 298.930767 91.498268 
L 298.737868 91.19818 
L 295.486775 90.355805 
L 293.746915 88.143739 
L 293.017196 86.560078 
L 290.268962 85.83708 
L 290.128219 84.892111 
L 289.863472 84.099287 
L 287.544808 84.367912 
L 285.695908 83.821184 
L 285.05183 82.927967 
L 281.06546 78.960905 
L 279.042616 78.313866 
L 276.597711 75.378084 
L 276.332983 74.161921 
L 275.380044 73.73998 
L 270.623565 74.525665 
L 269.278796 73.16345 
L 268.341647 70.447432 
L 266.147594 66.705401 
L 265.324676 66.064639 
L 260.476106 67.384195 
L 258.521376 66.219957 
L 257.438361 63.988154 
L 254.795343 59.863692 
L 252.009517 57.445594 
L 251.029422 55.888725 
L 250.065241 52.413968 
L 245.604594 46.234548 
L 243.976844 45.556334 
L 241.906011 44.107098 
L 241.906011 44.107098 
" clip-path="url(#pf91196e396)" style="fill: none; stroke: #ff7f0e; stroke-width: 1.5; stroke-linecap: square"/>
   </g>
   <g id="text_2">
    <!-- SRV-cytd -->
    <g transform="translate(232.45625 28.56) scale(0.2 -0.2)">
     <defs>
      <path id="DejaVuSans-79" d="M 2059 -325 
Q 1816 -950 1584 -1140 
Q 1353 -1331 966 -1331 
L 506 -1331 
L 506 -850 
L 844 -850 
Q 1081 -850 1212 -737 
Q 1344 -625 1503 -206 
L 1606 56 
L 191 3500 
L 800 3500 
L 1894 763 
L 2988 3500 
L 3597 3500 
L 2059 -325 
z
" transform="scale(0.015625)"/>
      <path id="DejaVuSans-64" d="M 2906 2969 
L 2906 4863 
L 3481 4863 
L 3481 0 
L 2906 0 
L 2906 525 
Q 2725 213 2448 61 
Q 2172 -91 1784 -91 
Q 1150 -91 751 415 
Q 353 922 353 1747 
Q 353 2572 751 3078 
Q 1150 3584 1784 3584 
Q 2172 3584 2448 3432 
Q 2725 3281 2906 2969 
z
M 947 1747 
Q 947 1113 1208 752 
Q 1469 391 1925 391 
Q 2381 391 2643 752 
Q 2906 1113 2906 1747 
Q 2906 2381 2643 2742 
Q 2381 3103 1925 3103 
Q 1469 3103 1208 2742 
Q 947 2381 947 1747 
z
" transform="scale(0.015625)"/>
     </defs>
     <use xlink:href="#DejaVuSans-53"/>
     <use xlink:href="#DejaVuSans-52" x="63.476562"/>
     <use xlink:href="#DejaVuSans-56" x="127.458984"/>
     <use xlink:href="#DejaVuSans-2d" x="189.992188"/>
     <use xlink:href="#DejaVuSans-63" x="226.076172"/>
     <use xlink:href="#DejaVuSans-79" x="281.056641"/>
     <use xlink:href="#DejaVuSans-74" x="340.236328"/>
     <use xlink:href="#DejaVuSans-64" x="379.445312"/>
    </g>
   </g>
  </g>
  <g id="axes_3">
   <g id="line2d_3">
    <path d="M 416.088743 39.141818 
L 415.968046 41.810434 
L 416.595459 42.866161 
L 416.703218 46.451692 
L 415.118 51.521223 
L 415.294457 53.221361 
L 414.499111 55.571689 
L 415.088033 56.899582 
L 415.011627 58.791878 
L 413.362454 61.402082 
L 409.762595 62.886184 
L 409.480965 63.605556 
L 409.641467 65.385746 
L 410.533608 67.322248 
L 410.301328 68.759786 
L 410.472763 69.539594 
L 410.026453 71.027568 
L 410.212294 71.210326 
L 410.628053 71.985701 
L 410.485978 73.724979 
L 409.621726 75.501835 
L 409.030662 78.557153 
L 405.695331 81.136572 
L 405.591417 82.045021 
L 405.926923 83.453675 
L 404.614881 85.476636 
L 404.388498 86.483469 
L 404.692942 88.13815 
L 404.799541 89.605727 
L 405.022599 90.353819 
L 405.711264 91.074799 
L 405.737937 91.971098 
L 406.05813 92.660174 
L 406.02302 93.58364 
L 406.395431 94.243172 
L 405.989542 96.014799 
L 407.298977 97.355575 
L 407.313814 97.926523 
L 407.511348 98.644406 
L 406.834254 101.507182 
L 407.28151 102.331459 
L 408.541681 102.691764 
L 409.122094 104.147328 
L 409.580625 105.724607 
L 411.979559 106.794363 
L 412.303757 108.349164 
L 412.661562 109.404013 
L 414.051119 110.331522 
L 414.24937 111.991869 
L 413.61869 113.25027 
L 414.039943 114.167281 
L 415.051932 114.386219 
L 417.263851 116.877519 
L 417.523287 117.404752 
L 418.621303 117.513271 
L 420.730582 118.375812 
L 421.314049 119.195828 
L 421.403839 120.407831 
L 421.641514 121.347056 
L 422.276281 122.418671 
L 425.399883 123.802356 
L 425.809598 125.606485 
L 425.789051 128.231038 
L 426.088368 128.685997 
L 427.069694 128.976228 
L 427.355722 128.714125 
L 428.379473 127.495532 
L 429.610254 127.377434 
L 430.291604 127.875495 
L 432.650542 127.909123 
L 432.965651 128.158418 
L 433.088084 128.590023 
L 433.875332 128.818831 
L 434.632048 128.746274 
L 435.213156 128.88578 
L 436.078304 129.210858 
L 436.867576 129.781107 
L 437.508995 129.996229 
L 438.784472 130.207824 
L 440.241427 130.015768 
L 442.581724 130.778182 
L 443.797497 130.356356 
L 444.764332 130.7171 
L 446.09192 129.864178 
L 446.39862 130.095249 
L 446.975893 129.782501 
L 449.503404 129.212746 
L 450.601966 129.646842 
L 451.509723 129.960437 
L 452.407704 129.788303 
L 453.290289 130.160517 
L 454.225249 130.213507 
L 455.03149 129.675326 
L 455.626117 128.609086 
L 456.33503 127.618705 
L 456.19754 127.06542 
L 456.647831 125.089772 
L 456.871578 124.399778 
L 456.777675 124.300617 
L 456.551816 123.846303 
L 457.181703 122.120021 
L 456.183636 120.483213 
L 456.01827 118.340748 
L 455.884254 118.200173 
L 456.413904 116.522635 
L 454.873386 115.05498 
L 454.430169 113.128515 
L 454.457245 112.418497 
L 456.593928 110.744613 
L 456.718432 108.884121 
L 455.471249 107.802206 
L 455.110353 106.452072 
L 454.371554 105.375651 
L 453.554599 102.737868 
L 453.822181 101.578028 
L 455.367948 100.079509 
L 456.122234 98.182887 
L 455.895775 96.796803 
L 455.123959 96.308534 
L 454.172137 96.023886 
L 452.997184 95.174191 
L 451.482724 94.653242 
L 449.997344 93.089273 
L 449.567036 90.884868 
L 448.94706 90.640438 
L 447.152836 89.126631 
L 446.396835 88.639239 
L 445.785954 88.097913 
L 444.924815 87.923376 
L 444.314504 87.217575 
L 443.632592 86.838957 
L 442.990202 86.15492 
L 442.910958 85.004345 
L 442.454235 83.600757 
L 439.892793 82.531741 
L 437.636533 80.106762 
L 436.661476 78.406755 
L 434.5809 77.786725 
L 433.662286 77.372532 
L 433.412301 76.638636 
L 433.061051 76.000708 
L 431.298814 76.222676 
L 429.724832 75.614319 
L 429.141787 74.892899 
L 425.20981 71.677238 
L 423.524904 70.974094 
L 420.821394 68.387363 
L 420.641056 67.602771 
L 420.080433 67.260022 
L 417.026518 67.830958 
L 416.039291 66.992076 
L 415.165097 65.663663 
L 412.855673 63.48421 
L 411.479391 63.200228 
L 407.50926 63.689875 
L 404.894472 63.031271 
L 404.119811 62.050965 
L 402.091888 59.968459 
L 400.304436 58.725204 
L 399.713811 57.890286 
L 399.14374 56.233185 
L 395.572485 52.815579 
L 393.6933 52.420448 
L 391.730062 51.170512 
L 391.730062 51.170512 
" clip-path="url(#p4622630ec7)" style="fill: none; stroke: #2ca02c; stroke-width: 1.5; stroke-linecap: square"/>
   </g>
   <g id="text_3">
    <!-- SRV-jasp -->
    <g transform="translate(381.384007 28.56) scale(0.2 -0.2)">
     <defs>
      <path id="DejaVuSans-6a" d="M 603 3500 
L 1178 3500 
L 1178 -63 
Q 1178 -731 923 -1031 
Q 669 -1331 103 -1331 
L -116 -1331 
L -116 -844 
L 38 -844 
Q 366 -844 484 -692 
Q 603 -541 603 -63 
L 603 3500 
z
M 603 4863 
L 1178 4863 
L 1178 4134 
L 603 4134 
L 603 4863 
z
" transform="scale(0.015625)"/>
      <path id="DejaVuSans-61" d="M 2194 1759 
Q 1497 1759 1228 1600 
Q 959 1441 959 1056 
Q 959 750 1161 570 
Q 1363 391 1709 391 
Q 2188 391 2477 730 
Q 2766 1069 2766 1631 
L 2766 1759 
L 2194 1759 
z
M 3341 1997 
L 3341 0 
L 2766 0 
L 2766 531 
Q 2569 213 2275 61 
Q 1981 -91 1556 -91 
Q 1019 -91 701 211 
Q 384 513 384 1019 
Q 384 1609 779 1909 
Q 1175 2209 1959 2209 
L 2766 2209 
L 2766 2266 
Q 2766 2663 2505 2880 
Q 2244 3097 1772 3097 
Q 1472 3097 1187 3025 
Q 903 2953 641 2809 
L 641 3341 
Q 956 3463 1253 3523 
Q 1550 3584 1831 3584 
Q 2591 3584 2966 3190 
Q 3341 2797 3341 1997 
z
" transform="scale(0.015625)"/>
      <path id="DejaVuSans-73" d="M 2834 3397 
L 2834 2853 
Q 2591 2978 2328 3040 
Q 2066 3103 1784 3103 
Q 1356 3103 1142 2972 
Q 928 2841 928 2578 
Q 928 2378 1081 2264 
Q 1234 2150 1697 2047 
L 1894 2003 
Q 2506 1872 2764 1633 
Q 3022 1394 3022 966 
Q 3022 478 2636 193 
Q 2250 -91 1575 -91 
Q 1294 -91 989 -36 
Q 684 19 347 128 
L 347 722 
Q 666 556 975 473 
Q 1284 391 1588 391 
Q 1994 391 2212 530 
Q 2431 669 2431 922 
Q 2431 1156 2273 1281 
Q 2116 1406 1581 1522 
L 1381 1569 
Q 847 1681 609 1914 
Q 372 2147 372 2553 
Q 372 3047 722 3315 
Q 1072 3584 1716 3584 
Q 2034 3584 2315 3537 
Q 2597 3491 2834 3397 
z
" transform="scale(0.015625)"/>
      <path id="DejaVuSans-70" d="M 1159 525 
L 1159 -1331 
L 581 -1331 
L 581 3500 
L 1159 3500 
L 1159 2969 
Q 1341 3281 1617 3432 
Q 1894 3584 2278 3584 
Q 2916 3584 3314 3078 
Q 3713 2572 3713 1747 
Q 3713 922 3314 415 
Q 2916 -91 2278 -91 
Q 1894 -91 1617 61 
Q 1341 213 1159 525 
z
M 3116 1747 
Q 3116 2381 2855 2742 
Q 2594 3103 2138 3103 
Q 1681 3103 1420 2742 
Q 1159 2381 1159 1747 
Q 1159 1113 1420 752 
Q 1681 391 2138 391 
Q 2594 391 2855 752 
Q 3116 1113 3116 1747 
z
" transform="scale(0.015625)"/>
     </defs>
     <use xlink:href="#DejaVuSans-53"/>
     <use xlink:href="#DejaVuSans-52" x="63.476562"/>
     <use xlink:href="#DejaVuSans-56" x="127.458984"/>
     <use xlink:href="#DejaVuSans-2d" x="189.992188"/>
     <use xlink:href="#DejaVuSans-6a" x="226.076172"/>
     <use xlink:href="#DejaVuSans-61" x="253.859375"/>
     <use xlink:href="#DejaVuSans-73" x="315.138672"/>
     <use xlink:href="#DejaVuSans-70" x="367.238281"/>
    </g>
   </g>
  </g>
  <g id="axes_4">
   <g id="line2d_4">
    <path d="M 108.927301 161.607333 
L 108.190714 163.040447 
L 107.016286 164.141134 
L 105.747319 165.068392 
L 104.839051 166.209988 
L 104.100806 167.351421 
L 103.191809 168.449918 
L 102.326848 169.307927 
L 96.975489 175.902311 
L 94.718524 179.302757 
L 92.122429 184.440283 
L 90.492851 188.321728 
L 87.835146 196.213732 
L 87.231026 198.866979 
L 86.741208 201.666072 
L 86.56251 203.013138 
L 86.605975 205.748697 
L 86.642269 211.120369 
L 86.939695 213.904587 
L 87.356563 216.751756 
L 87.920026 219.466931 
L 89.460835 224.93592 
L 90.511434 227.755566 
L 91.621589 230.157599 
L 92.89694 232.721125 
L 93.653376 233.837797 
L 95.327066 235.728266 
L 96.314483 236.65471 
L 98.247312 238.794194 
L 99.224269 239.736214 
L 100.283355 240.523752 
L 102.088992 242.267935 
L 104.25659 243.729817 
L 111.251668 247.865979 
L 112.353167 248.408181 
L 114.757794 249.232853 
L 117.376201 250.044123 
L 120.020734 250.7164 
L 121.265339 250.95025 
L 124.106229 251.268239 
L 126.829811 251.670512 
L 129.702586 251.700699 
L 132.373435 251.623162 
L 136.800302 251.080103 
L 146.438223 247.608808 
L 151.341674 245.25443 
L 153.407887 243.772263 
L 155.405237 242.230729 
L 156.42123 241.515498 
L 157.366732 240.692264 
L 161.58317 235.856959 
L 166.22067 228.648483 
L 167.995804 225.172272 
L 169.548226 221.448419 
L 171.409448 215.225259 
L 171.539625 213.713739 
L 171.514788 205.396492 
L 171.327752 204.06047 
L 171.270519 202.756225 
L 170.764562 200.080281 
L 170.218453 197.551606 
L 169.320253 195.174129 
L 167.532642 191.226241 
L 164.364391 185.279196 
L 161.070733 180.95016 
L 156.421723 176.044818 
L 152.302544 172.337293 
L 150.082079 170.787177 
L 147.897054 169.509643 
L 145.512084 168.265731 
L 137.871408 164.742933 
L 135.191939 163.777126 
L 130.891465 162.982165 
L 125.424099 161.994555 
L 122.759612 161.467339 
L 120.014815 161.202878 
L 118.443354 161.157749 
L 116.917342 160.979053 
L 113.902089 160.290146 
L 111.732995 160.101818 
L 111.732995 160.101818 
" clip-path="url(#pf5a639a6c5)" style="fill: none; stroke: #1f77b4; stroke-width: 1.5; stroke-linecap: square"/>
   </g>
   <g id="text_4">
    <!-- Linear-control -->
    <g transform="translate(60.336305 149.52) scale(0.2 -0.2)">
     <defs>
      <path id="DejaVuSans-4c" d="M 628 4666 
L 1259 4666 
L 1259 531 
L 3531 531 
L 3531 0 
L 628 0 
L 628 4666 
z
" transform="scale(0.015625)"/>
      <path id="DejaVuSans-69" d="M 603 3500 
L 1178 3500 
L 1178 0 
L 603 0 
L 603 3500 
z
M 603 4863 
L 1178 4863 
L 1178 4134 
L 603 4134 
L 603 4863 
z
" transform="scale(0.015625)"/>
      <path id="DejaVuSans-65" d="M 3597 1894 
L 3597 1613 
L 953 1613 
Q 991 1019 1311 708 
Q 1631 397 2203 397 
Q 2534 397 2845 478 
Q 3156 559 3463 722 
L 3463 178 
Q 3153 47 2828 -22 
Q 2503 -91 2169 -91 
Q 1331 -91 842 396 
Q 353 884 353 1716 
Q 353 2575 817 3079 
Q 1281 3584 2069 3584 
Q 2775 3584 3186 3129 
Q 3597 2675 3597 1894 
z
M 3022 2063 
Q 3016 2534 2758 2815 
Q 2500 3097 2075 3097 
Q 1594 3097 1305 2825 
Q 1016 2553 972 2059 
L 3022 2063 
z
" transform="scale(0.015625)"/>
     </defs>
     <use xlink:href="#DejaVuSans-4c"/>
     <use xlink:href="#DejaVuSans-69" x="55.712891"/>
     <use xlink:href="#DejaVuSans-6e" x="83.496094"/>
     <use xlink:href="#DejaVuSans-65" x="146.875"/>
     <use xlink:href="#DejaVuSans-61" x="208.398438"/>
     <use xlink:href="#DejaVuSans-72" x="269.677734"/>
     <use xlink:href="#DejaVuSans-2d" x="304.416016"/>
     <use xlink:href="#DejaVuSans-63" x="340.5"/>
     <use xlink:href="#DejaVuSans-6f" x="395.480469"/>
     <use xlink:href="#DejaVuSans-6e" x="456.662109"/>
     <use xlink:href="#DejaVuSans-74" x="520.041016"/>
     <use xlink:href="#DejaVuSans-72" x="559.25"/>
     <use xlink:href="#DejaVuSans-6f" x="598.113281"/>
     <use xlink:href="#DejaVuSans-6c" x="659.294922"/>
    </g>
   </g>
  </g>
  <g id="axes_5">
   <g id="line2d_5">
    <path d="M 254.386626 161.80234 
L 254.59714 164.127503 
L 254.705273 166.592726 
L 254.063425 170.470598 
L 254.075654 172.557405 
L 253.797603 174.191878 
L 253.233184 176.034994 
L 252.631362 177.496489 
L 252.297015 179.146442 
L 251.844865 180.684523 
L 251.659314 182.305901 
L 250.750476 185.251678 
L 249.674712 189.211109 
L 248.933768 190.386819 
L 248.190571 192.620204 
L 246.59584 195.234164 
L 245.586152 197.825763 
L 244.933909 198.858312 
L 244.01312 200.009494 
L 243.019431 201.749265 
L 242.513154 205.256524 
L 241.983287 206.395091 
L 240.722804 211.220178 
L 238.917291 213.648061 
L 238.187263 216.11398 
L 238.293488 217.262986 
L 239.992402 221.690667 
L 240.286527 223.869055 
L 240.327827 224.829831 
L 240.653464 225.633974 
L 242.184315 227.348158 
L 242.860584 228.005271 
L 243.872142 228.576012 
L 244.541101 229.663903 
L 245.753248 231.245462 
L 246.212183 232.208619 
L 247.106103 233.733113 
L 247.631668 234.927817 
L 248.487169 236.002482 
L 249.443297 236.82236 
L 250.132879 237.83462 
L 250.975795 238.705672 
L 253.859991 242.718861 
L 254.641115 243.59376 
L 256.898446 245.110306 
L 258.166742 245.379879 
L 259.617455 246.11954 
L 261.042123 246.336943 
L 263.479011 247.602574 
L 269.117577 248.93078 
L 270.456686 249.388455 
L 272.948662 249.341379 
L 274.197481 249.383498 
L 276.601154 250.169808 
L 277.920722 250.383846 
L 280.635916 251.284202 
L 282.039478 251.689492 
L 283.574887 251.738182 
L 286.064085 251.476398 
L 291.92981 251.275324 
L 294.428234 250.862564 
L 295.427157 250.506429 
L 296.851983 249.703328 
L 297.846703 249.334485 
L 299.17808 248.17133 
L 299.791449 247.349852 
L 303.328439 244.082197 
L 304.080171 243.170787 
L 304.948034 242.493902 
L 306.177512 242.103567 
L 307.100012 240.511078 
L 307.859567 239.934197 
L 308.104751 238.993166 
L 308.122097 237.835065 
L 308.383797 236.448031 
L 308.823523 235.360809 
L 309.198442 234.082854 
L 310.129301 231.924416 
L 311.203227 230.036848 
L 311.802001 229.105306 
L 312.264633 228.123633 
L 313.179458 224.751927 
L 313.710226 222.756187 
L 314.102311 220.198432 
L 314.420198 219.006708 
L 314.977353 218.001013 
L 315.168837 217.107782 
L 315.079553 215.943241 
L 315.312737 214.690528 
L 315.291144 213.405636 
L 314.973017 211.700535 
L 315.03545 204.891622 
L 314.857446 203.859504 
L 314.816719 202.708241 
L 314.56067 201.390448 
L 314.574078 200.365942 
L 314.264536 199.626842 
L 313.791574 198.954708 
L 313.72219 198.286283 
L 313.359949 197.363789 
L 312.575324 196.227683 
L 311.504629 195.256101 
L 311.039033 194.324936 
L 310.551515 192.971796 
L 309.818114 191.781948 
L 308.920556 190.553474 
L 307.874815 189.346037 
L 305.623124 187.738914 
L 303.6854 186.755633 
L 302.467506 185.945723 
L 301.523968 185.095339 
L 300.325403 184.586947 
L 299.176067 183.759633 
L 296.475782 182.699028 
L 295.199302 182.022269 
L 292.673837 181.223166 
L 289.760123 180.708796 
L 288.401548 180.0608 
L 286.883887 179.462929 
L 285.684055 179.133735 
L 284.144821 178.549996 
L 282.749029 178.603849 
L 281.321132 178.286552 
L 279.91496 177.483793 
L 278.428627 177.045495 
L 276.996608 176.409912 
L 273.848716 174.508995 
L 272.496033 173.950105 
L 271.277811 173.172105 
L 269.989271 172.18931 
L 268.298746 171.072469 
L 266.583657 170.166796 
L 265.127915 168.666939 
L 263.753405 167.016316 
L 262.16967 165.515201 
L 259.221891 161.737441 
L 257.300329 160.101818 
L 257.300329 160.101818 
" clip-path="url(#pe54e7b0936)" style="fill: none; stroke: #ff7f0e; stroke-width: 1.5; stroke-linecap: square"/>
   </g>
   <g id="text_5">
    <!-- Linear-cytd -->
    <g transform="translate(221.014062 149.52) scale(0.2 -0.2)">
     <use xlink:href="#DejaVuSans-4c"/>
     <use xlink:href="#DejaVuSans-69" x="55.712891"/>
     <use xlink:href="#DejaVuSans-6e" x="83.496094"/>
     <use xlink:href="#DejaVuSans-65" x="146.875"/>
     <use xlink:href="#DejaVuSans-61" x="208.398438"/>
     <use xlink:href="#DejaVuSans-72" x="269.677734"/>
     <use xlink:href="#DejaVuSans-2d" x="304.416016"/>
     <use xlink:href="#DejaVuSans-63" x="340.5"/>
     <use xlink:href="#DejaVuSans-79" x="395.480469"/>
     <use xlink:href="#DejaVuSans-74" x="454.660156"/>
     <use xlink:href="#DejaVuSans-64" x="493.869141"/>
    </g>
   </g>
  </g>
  <g id="axes_6">
   <g id="line2d_6">
    <path d="M 403.455078 161.479496 
L 403.173923 163.336313 
L 403.006821 165.205087 
L 402.619868 166.95218 
L 402.048089 168.47808 
L 400.646771 171.4917 
L 400.197755 172.686957 
L 399.4992 173.842963 
L 398.773601 174.784862 
L 397.637277 175.874114 
L 396.653143 177.174898 
L 395.712487 179.91877 
L 395.355009 181.520667 
L 394.653654 182.686455 
L 394.20055 183.823673 
L 393.437231 185.060057 
L 392.831422 186.272963 
L 392.492943 187.400859 
L 390.279689 190.897457 
L 389.704923 192.176965 
L 388.762962 194.882879 
L 387.548461 197.598251 
L 387.259785 199.061897 
L 386.205261 201.958874 
L 386.002466 203.673403 
L 385.264387 207.602309 
L 383.983799 215.3115 
L 384.183199 216.400307 
L 385.08303 218.626658 
L 385.665956 219.670981 
L 386.526615 222.308015 
L 387.854597 224.579738 
L 389.00243 226.810047 
L 389.862624 229.012586 
L 390.658518 231.077168 
L 392.169672 233.015167 
L 396.55992 237.989036 
L 397.703058 238.57653 
L 401.960715 242.025917 
L 402.938084 243.056691 
L 404.906442 244.357629 
L 405.549934 245.246625 
L 407.057178 246.93201 
L 408.307738 247.719478 
L 409.480088 248.312585 
L 410.618918 249.051293 
L 412.716865 250.012716 
L 413.695002 250.194221 
L 416.168924 250.044843 
L 417.529666 250.151414 
L 419.636412 250.664848 
L 420.78415 250.712887 
L 422.018265 251.029588 
L 423.350199 251.211828 
L 424.726414 251.738182 
L 427.571143 251.725726 
L 428.677136 251.397663 
L 429.720803 250.957158 
L 432.13806 250.496061 
L 433.628411 250.516333 
L 436.176991 249.796154 
L 438.682851 249.462569 
L 440.029 249.255649 
L 442.671761 248.053847 
L 443.770432 247.649656 
L 444.756118 247.035341 
L 447.168511 245.806551 
L 449.267104 244.555546 
L 450.432633 243.869882 
L 452.192718 241.762271 
L 457.097572 237.131087 
L 457.842973 236.109828 
L 458.357697 234.937095 
L 459.026587 233.742703 
L 459.516514 232.533199 
L 460.320966 231.083789 
L 461.011053 230.130554 
L 462.127599 228.15598 
L 462.320539 227.11862 
L 462.683984 225.870083 
L 462.950601 224.528423 
L 464.126488 220.87693 
L 464.724704 218.052325 
L 464.880137 216.837581 
L 464.580604 213.107262 
L 464.563218 211.998428 
L 464.668464 210.773251 
L 464.927966 209.288383 
L 464.894994 207.921367 
L 463.294009 203.20407 
L 462.998982 202.224644 
L 461.838013 199.993103 
L 461.379848 198.432369 
L 461.121324 196.801005 
L 460.729771 195.51308 
L 460.163922 194.644285 
L 458.34552 192.606868 
L 457.853863 191.366675 
L 457.302728 190.409932 
L 456.429119 189.414756 
L 455.762271 188.098493 
L 454.216073 185.725144 
L 453.626518 184.553059 
L 450.043535 180.680928 
L 447.783022 179.17401 
L 446.831994 178.238123 
L 445.785439 177.394084 
L 443.430141 175.938384 
L 439.655249 174.468322 
L 437.128493 173.68608 
L 435.726268 172.995497 
L 433.545695 171.627055 
L 429.071138 169.685571 
L 427.6751 169.285313 
L 423.688181 168.472106 
L 422.247613 168.084467 
L 420.753862 167.55 
L 419.138634 167.135568 
L 417.585809 166.609796 
L 413.458046 164.799013 
L 412.03326 163.947333 
L 408.762939 162.455262 
L 407.224684 161.523544 
L 405.494174 160.101818 
L 405.494174 160.101818 
" clip-path="url(#p14fae602ba)" style="fill: none; stroke: #2ca02c; stroke-width: 1.5; stroke-linecap: square"/>
   </g>
   <g id="text_6">
    <!-- Linear-jasp -->
    <g transform="translate(369.94182 149.52) scale(0.2 -0.2)">
     <use xlink:href="#DejaVuSans-4c"/>
     <use xlink:href="#DejaVuSans-69" x="55.712891"/>
     <use xlink:href="#DejaVuSans-6e" x="83.496094"/>
     <use xlink:href="#DejaVuSans-65" x="146.875"/>
     <use xlink:href="#DejaVuSans-61" x="208.398438"/>
     <use xlink:href="#DejaVuSans-72" x="269.677734"/>
     <use xlink:href="#DejaVuSans-2d" x="304.416016"/>
     <use xlink:href="#DejaVuSans-6a" x="340.5"/>
     <use xlink:href="#DejaVuSans-61" x="368.283203"/>
     <use xlink:href="#DejaVuSans-73" x="429.5625"/>
     <use xlink:href="#DejaVuSans-70" x="481.662109"/>
    </g>
   </g>
  </g>
 </g>
 <defs>
  <clipPath id="pa7422887ab">
   <rect x="67.5" y="34.56" width="123.088235" height="100.8"/>
  </clipPath>
  <clipPath id="pf91196e396">
   <rect x="215.205882" y="34.56" width="123.088235" height="100.8"/>
  </clipPath>
  <clipPath id="p4622630ec7">
   <rect x="362.911765" y="34.56" width="123.088235" height="100.8"/>
  </clipPath>
  <clipPath id="pf5a639a6c5">
   <rect x="67.5" y="155.52" width="123.088235" height="100.8"/>
  </clipPath>
  <clipPath id="pe54e7b0936">
   <rect x="215.205882" y="155.52" width="123.088235" height="100.8"/>
  </clipPath>
  <clipPath id="p14fae602ba">
   <rect x="362.911765" y="155.52" width="123.088235" height="100.8"/>
  </clipPath>
 </defs>
</svg>
