<?xml version="1.0" encoding="utf-8" standalone="no"?>
<!DOCTYPE svg PUBLIC "-//W3C//DTD SVG 1.1//EN"
  "http://www.w3.org/Graphics/SVG/1.1/DTD/svg11.dtd">
<svg xmlns:xlink="http://www.w3.org/1999/xlink" width="540pt" height="288pt" viewBox="0 0 540 288" xmlns="http://www.w3.org/2000/svg" version="1.1">
 <metadata>
  <rdf:RDF xmlns:dc="http://purl.org/dc/elements/1.1/" xmlns:cc="http://creativecommons.org/ns#" xmlns:rdf="http://www.w3.org/1999/02/22-rdf-syntax-ns#">
   <cc:Work>
    <dc:type rdf:resource="http://purl.org/dc/dcmitype/StillImage"/>
    <dc:date>2023-12-28T18:22:35.886790</dc:date>
    <dc:format>image/svg+xml</dc:format>
    <dc:creator>
     <cc:Agent>
      <dc:title>Matplotlib v3.6.2, https://matplotlib.org/</dc:title>
     </cc:Agent>
    </dc:creator>
   </cc:Work>
  </rdf:RDF>
 </metadata>
 <defs>
  <style type="text/css">*{stroke-linejoin: round; stroke-linecap: butt}</style>
 </defs>
 <g id="figure_1">
  <g id="patch_1">
   <path d="M 0 288 
L 540 288 
L 540 0 
L 0 0 
z
" style="fill: #ffffff"/>
  </g>
  <g id="axes_1">
   <g id="line2d_1">
    <path d="M 143.96614 39.572709 
L 143.314139 39.673126 
L 142.542263 39.333102 
L 141.771535 39.141818 
L 141.162768 39.453864 
L 138.389825 41.637103 
L 137.416899 41.779995 
L 136.598707 42.232536 
L 135.869686 42.303451 
L 134.516196 42.960381 
L 132.978364 44.642732 
L 132.446718 45.122658 
L 131.634908 46.0725 
L 130.959003 46.502696 
L 129.630261 47.858868 
L 127.496891 50.006923 
L 126.617722 50.519159 
L 125.605194 50.954349 
L 124.003962 52.860745 
L 123.504692 53.745473 
L 122.844858 55.229458 
L 122.215461 57.354732 
L 120.87433 59.583157 
L 119.213893 61.834885 
L 116.503352 64.297288 
L 114.582687 66.072241 
L 112.699887 68.79292 
L 109.681497 72.618606 
L 107.289201 75.504089 
L 105.905147 77.48136 
L 104.947438 79.197301 
L 103.399857 81.227226 
L 102.686958 82.877796 
L 100.632872 86.816478 
L 98.08169 91.925616 
L 97.448163 92.799888 
L 96.935995 94.077716 
L 96.291113 95.386899 
L 96.012333 96.280678 
L 95.94398 97.204738 
L 95.678008 97.916744 
L 95.418493 98.92923 
L 94.068123 102.10073 
L 92.775443 103.582662 
L 92.634571 105.149801 
L 92.77947 106.192796 
L 92.827743 107.446516 
L 92.757891 108.619309 
L 92.916042 109.87392 
L 93.222104 111.217913 
L 93.283231 112.034383 
L 93.54979 112.801256 
L 93.657963 114.034575 
L 93.954687 115.18917 
L 94.385352 116.052913 
L 95.319842 117.530061 
L 95.883679 117.879072 
L 96.463501 118.529673 
L 98.389719 119.822189 
L 99.13446 120.556164 
L 99.886759 121.555291 
L 100.720181 122.921741 
L 101.524463 123.893789 
L 104.166083 126.256519 
L 104.904693 127.354105 
L 109.131039 129.735773 
L 112.420068 130.778182 
L 113.574298 130.507173 
L 115.929693 130.434822 
L 117.439064 130.309057 
L 118.95432 130.000026 
L 120.611046 130.080332 
L 122.227827 130.040022 
L 123.039809 129.530471 
L 124.26475 128.917806 
L 125.432076 128.754485 
L 126.622798 128.204882 
L 129.042651 127.969786 
L 131.964921 126.261351 
L 133.096641 125.345938 
L 134.487109 124.657314 
L 135.621875 123.576633 
L 136.881667 123.06415 
L 139.859968 121.193025 
L 141.067096 120.523009 
L 141.840316 119.855713 
L 144.153577 119.086213 
L 145.295318 118.854363 
L 146.606917 118.74026 
L 149.292839 117.590772 
L 152.101094 116.900718 
L 153.142968 116.361812 
L 155.083606 114.88607 
L 155.753026 114.21157 
L 157.526975 110.587692 
L 158.125963 109.589273 
L 159.04465 105.777685 
L 159.465335 104.534901 
L 159.9378 100.259303 
L 160.434231 99.063043 
L 161.340842 97.731329 
L 161.73859 96.890549 
L 162.365282 92.384998 
L 162.141376 90.949909 
L 162.447132 89.655329 
L 162.632123 87.735626 
L 163.361075 85.668044 
L 163.716915 84.310876 
L 163.687293 82.37476 
L 164.672813 78.703902 
L 165.126913 77.217753 
L 165.453665 75.739694 
L 164.775218 74.755806 
L 164.324838 73.622105 
L 163.875369 70.902697 
L 163.855284 68.528418 
L 163.342636 67.654674 
L 163.131331 66.817556 
L 161.84193 64.138564 
L 160.905908 62.739236 
L 160.263387 61.64343 
L 159.915088 60.792043 
L 158.865954 59.731427 
L 158.24343 58.643145 
L 157.38406 56.723148 
L 156.394066 55.351011 
L 155.191154 54.14871 
L 153.315057 52.448216 
L 150.427158 50.487948 
L 149.026277 49.234272 
L 148.09168 48.664178 
L 144.971517 47.57392 
L 143.796709 46.870955 
L 142.635 46.428184 
L 141.365797 45.792246 
L 141.365797 45.792246 
" clip-path="url(#pb0983599e3)" style="fill: none; stroke: #1f77b4; stroke-width: 1.5; stroke-linecap: square"/>
   </g>
   <g id="text_1">
    <!-- SRV-control -->
    <g transform="translate(71.778493 28.56) scale(0.2 -0.2)">
     <defs>
      <path id="DejaVuSans-53" d="M 3425 4513 
L 3425 3897 
Q 3066 4069 2747 4153 
Q 2428 4238 2131 4238 
Q 1616 4238 1336 4038 
Q 1056 3838 1056 3469 
Q 1056 3159 1242 3001 
Q 1428 2844 1947 2747 
L 2328 2669 
Q 3034 2534 3370 2195 
Q 3706 1856 3706 1288 
Q 3706 609 3251 259 
Q 2797 -91 1919 -91 
Q 1588 -91 1214 -16 
Q 841 59 441 206 
L 441 856 
Q 825 641 1194 531 
Q 1563 422 1919 422 
Q 2459 422 2753 634 
Q 3047 847 3047 1241 
Q 3047 1584 2836 1778 
Q 2625 1972 2144 2069 
L 1759 2144 
Q 1053 2284 737 2584 
Q 422 2884 422 3419 
Q 422 4038 858 4394 
Q 1294 4750 2059 4750 
Q 2388 4750 2728 4690 
Q 3069 4631 3425 4513 
z
" transform="scale(0.015625)"/>
      <path id="DejaVuSans-52" d="M 2841 2188 
Q 3044 2119 3236 1894 
Q 3428 1669 3622 1275 
L 4263 0 
L 3584 0 
L 2988 1197 
Q 2756 1666 2539 1819 
Q 2322 1972 1947 1972 
L 1259 1972 
L 1259 0 
L 628 0 
L 628 4666 
L 2053 4666 
Q 2853 4666 3247 4331 
Q 3641 3997 3641 3322 
Q 3641 2881 3436 2590 
Q 3231 2300 2841 2188 
z
M 1259 4147 
L 1259 2491 
L 2053 2491 
Q 2509 2491 2742 2702 
Q 2975 2913 2975 3322 
Q 2975 3731 2742 3939 
Q 2509 4147 2053 4147 
L 1259 4147 
z
" transform="scale(0.015625)"/>
      <path id="DejaVuSans-56" d="M 1831 0 
L 50 4666 
L 709 4666 
L 2188 738 
L 3669 4666 
L 4325 4666 
L 2547 0 
L 1831 0 
z
" transform="scale(0.015625)"/>
      <path id="DejaVuSans-2d" d="M 313 2009 
L 1997 2009 
L 1997 1497 
L 313 1497 
L 313 2009 
z
" transform="scale(0.015625)"/>
      <path id="DejaVuSans-63" d="M 3122 3366 
L 3122 2828 
Q 2878 2963 2633 3030 
Q 2388 3097 2138 3097 
Q 1578 3097 1268 2742 
Q 959 2388 959 1747 
Q 959 1106 1268 751 
Q 1578 397 2138 397 
Q 2388 397 2633 464 
Q 2878 531 3122 666 
L 3122 134 
Q 2881 22 2623 -34 
Q 2366 -91 2075 -91 
Q 1284 -91 818 406 
Q 353 903 353 1747 
Q 353 2603 823 3093 
Q 1294 3584 2113 3584 
Q 2378 3584 2631 3529 
Q 2884 3475 3122 3366 
z
" transform="scale(0.015625)"/>
      <path id="DejaVuSans-6f" d="M 1959 3097 
Q 1497 3097 1228 2736 
Q 959 2375 959 1747 
Q 959 1119 1226 758 
Q 1494 397 1959 397 
Q 2419 397 2687 759 
Q 2956 1122 2956 1747 
Q 2956 2369 2687 2733 
Q 2419 3097 1959 3097 
z
M 1959 3584 
Q 2709 3584 3137 3096 
Q 3566 2609 3566 1747 
Q 3566 888 3137 398 
Q 2709 -91 1959 -91 
Q 1206 -91 779 398 
Q 353 888 353 1747 
Q 353 2609 779 3096 
Q 1206 3584 1959 3584 
z
" transform="scale(0.015625)"/>
      <path id="DejaVuSans-6e" d="M 3513 2113 
L 3513 0 
L 2938 0 
L 2938 2094 
Q 2938 2591 2744 2837 
Q 2550 3084 2163 3084 
Q 1697 3084 1428 2787 
Q 1159 2491 1159 1978 
L 1159 0 
L 581 0 
L 581 3500 
L 1159 3500 
L 1159 2956 
Q 1366 3272 1645 3428 
Q 1925 3584 2291 3584 
Q 2894 3584 3203 3211 
Q 3513 2838 3513 2113 
z
" transform="scale(0.015625)"/>
      <path id="DejaVuSans-74" d="M 1172 4494 
L 1172 3500 
L 2356 3500 
L 2356 3053 
L 1172 3053 
L 1172 1153 
Q 1172 725 1289 603 
Q 1406 481 1766 481 
L 2356 481 
L 2356 0 
L 1766 0 
Q 1100 0 847 248 
Q 594 497 594 1153 
L 594 3053 
L 172 3053 
L 172 3500 
L 594 3500 
L 594 4494 
L 1172 4494 
z
" transform="scale(0.015625)"/>
      <path id="DejaVuSans-72" d="M 2631 2963 
Q 2534 3019 2420 3045 
Q 2306 3072 2169 3072 
Q 1681 3072 1420 2755 
Q 1159 2438 1159 1844 
L 1159 0 
L 581 0 
L 581 3500 
L 1159 3500 
L 1159 2956 
Q 1341 3275 1631 3429 
Q 1922 3584 2338 3584 
Q 2397 3584 2469 3576 
Q 2541 3569 2628 3553 
L 2631 2963 
z
" transform="scale(0.015625)"/>
      <path id="DejaVuSans-6c" d="M 603 4863 
L 1178 4863 
L 1178 0 
L 603 0 
L 603 4863 
z
" transform="scale(0.015625)"/>
     </defs>
     <use xlink:href="#DejaVuSans-53"/>
     <use xlink:href="#DejaVuSans-52" x="63.476562"/>
     <use xlink:href="#DejaVuSans-56" x="127.458984"/>
     <use xlink:href="#DejaVuSans-2d" x="189.992188"/>
     <use xlink:href="#DejaVuSans-63" x="226.076172"/>
     <use xlink:href="#DejaVuSans-6f" x="281.056641"/>
     <use xlink:href="#DejaVuSans-6e" x="342.238281"/>
     <use xlink:href="#DejaVuSans-74" x="405.617188"/>
     <use xlink:href="#DejaVuSans-72" x="444.826172"/>
     <use xlink:href="#DejaVuSans-6f" x="483.689453"/>
     <use xlink:href="#DejaVuSans-6c" x="544.871094"/>
    </g>
   </g>
  </g>
  <g id="axes_2">
   <g id="line2d_2">
    <path d="M 296.717112 41.318149 
L 296.122332 41.799422 
L 295.575876 42.557647 
L 294.69894 44.316202 
L 293.474194 45.862121 
L 292.613333 46.682937 
L 290.732548 47.761404 
L 289.712836 48.939991 
L 288.497659 49.673107 
L 287.610135 49.828901 
L 286.662855 50.369809 
L 284.781578 51.971035 
L 283.692154 53.18761 
L 283.268392 54.209414 
L 283.233518 55.042371 
L 282.965723 55.423996 
L 282.120151 56.143145 
L 281.473902 56.446321 
L 280.794732 57.190314 
L 279.243835 59.069049 
L 277.748858 60.29851 
L 277.238031 61.512642 
L 276.770011 62.153375 
L 276.01685 62.756905 
L 274.334054 63.701801 
L 271.879883 65.508927 
L 268.060858 70.114169 
L 265.56338 72.030905 
L 263.556541 73.149594 
L 260.115792 76.12846 
L 259.36753 77.674838 
L 259.097763 78.23019 
L 259.32293 79.982775 
L 259.175818 81.658066 
L 258.802343 83.168822 
L 258.342228 84.403187 
L 258.739037 85.47625 
L 258.858046 86.897149 
L 258.715792 91.808471 
L 257.875776 94.851807 
L 256.428238 97.732405 
L 254.302085 100.01028 
L 253.085752 101.749804 
L 252.610281 102.935432 
L 252.363455 103.961053 
L 251.823497 104.795303 
L 250.91623 105.885336 
L 250.064971 107.329342 
L 248.938942 108.699223 
L 247.420674 109.498597 
L 247.066079 110.008694 
L 246.698741 110.889928 
L 245.464291 112.225519 
L 243.787393 113.78159 
L 241.516303 115.282528 
L 240.159579 116.62361 
L 240.061518 117.000814 
L 240.392805 117.750611 
L 241.067321 118.115942 
L 241.627287 118.06154 
L 242.089944 118.210784 
L 242.28292 118.044601 
L 242.71334 117.918011 
L 244.301121 117.89391 
L 245.289336 117.244175 
L 247.599152 117.038248 
L 248.663684 117.290847 
L 249.074929 117.67757 
L 250.522401 118.194735 
L 251.688813 118.702194 
L 255.361032 122.919405 
L 257.197303 123.596536 
L 257.728468 125.011348 
L 258.30619 125.570093 
L 259.41871 125.899536 
L 260.536354 125.89551 
L 262.043447 126.277354 
L 263.597472 127.359258 
L 264.654541 128.501673 
L 265.519037 129.703229 
L 266.595145 130.542739 
L 267.233806 130.778182 
L 267.712661 130.67571 
L 268.055401 130.468455 
L 269.78134 129.788548 
L 271.081693 129.790822 
L 271.591091 130.00855 
L 275.470931 130.606065 
L 275.933366 129.521298 
L 277.039361 127.978593 
L 277.854829 127.314686 
L 278.829197 126.282733 
L 279.657563 125.232076 
L 281.482537 123.980527 
L 283.205574 123.404699 
L 284.509476 122.524305 
L 286.090916 121.172069 
L 287.975177 119.832397 
L 288.992929 118.655411 
L 290.575797 117.216203 
L 292.733741 116.196416 
L 295.968321 115.615287 
L 297.341637 114.742634 
L 299.339527 114.463873 
L 301.240431 114.010574 
L 303.127021 113.353783 
L 303.670627 112.600627 
L 305.326118 110.716472 
L 306.907274 108.739453 
L 308.585599 106.271331 
L 308.240705 104.34353 
L 308.258537 103.162754 
L 309.086082 101.116434 
L 309.190603 100.199263 
L 309.450211 99.21462 
L 309.829049 98.675357 
L 310.074232 97.889936 
L 310.55364 97.28959 
L 312.433526 96.092367 
L 313.240784 95.099022 
L 313.426257 94.399945 
L 313.381942 90.532199 
L 313.004607 88.534081 
L 312.292803 86.979201 
L 311.156865 85.243844 
L 309.048105 84.245139 
L 307.794405 82.136615 
L 305.029318 78.425628 
L 303.934392 76.371749 
L 303.988117 72.195376 
L 303.475132 71.246728 
L 302.983816 70.024079 
L 302.331957 69.533548 
L 302.118376 69.042 
L 301.412955 67.758699 
L 301.085938 66.610779 
L 300.711528 64.982858 
L 299.817199 63.053314 
L 299.25706 61.769722 
L 298.416915 58.602221 
L 297.979112 56.808684 
L 297.556468 56.156737 
L 295.391027 54.685077 
L 294.762757 53.245428 
L 294.651238 52.481744 
L 294.711337 51.619348 
L 294.08354 49.947244 
L 293.596874 45.502313 
L 293.211674 43.57335 
L 291.822629 42.424805 
L 290.942788 41.50022 
L 289.428258 40.64292 
L 288.684536 39.821671 
L 287.794741 39.141818 
L 287.133459 39.351342 
L 287.133459 39.351342 
" clip-path="url(#p4bcf8d3334)" style="fill: none; stroke: #ff7f0e; stroke-width: 1.5; stroke-linecap: square"/>
   </g>
   <g id="text_2">
    <!-- SRV-cytd -->
    <g transform="translate(232.45625 28.56) scale(0.2 -0.2)">
     <defs>
      <path id="DejaVuSans-79" d="M 2059 -325 
Q 1816 -950 1584 -1140 
Q 1353 -1331 966 -1331 
L 506 -1331 
L 506 -850 
L 844 -850 
Q 1081 -850 1212 -737 
Q 1344 -625 1503 -206 
L 1606 56 
L 191 3500 
L 800 3500 
L 1894 763 
L 2988 3500 
L 3597 3500 
L 2059 -325 
z
" transform="scale(0.015625)"/>
      <path id="DejaVuSans-64" d="M 2906 2969 
L 2906 4863 
L 3481 4863 
L 3481 0 
L 2906 0 
L 2906 525 
Q 2725 213 2448 61 
Q 2172 -91 1784 -91 
Q 1150 -91 751 415 
Q 353 922 353 1747 
Q 353 2572 751 3078 
Q 1150 3584 1784 3584 
Q 2172 3584 2448 3432 
Q 2725 3281 2906 2969 
z
M 947 1747 
Q 947 1113 1208 752 
Q 1469 391 1925 391 
Q 2381 391 2643 752 
Q 2906 1113 2906 1747 
Q 2906 2381 2643 2742 
Q 2381 3103 1925 3103 
Q 1469 3103 1208 2742 
Q 947 2381 947 1747 
z
" transform="scale(0.015625)"/>
     </defs>
     <use xlink:href="#DejaVuSans-53"/>
     <use xlink:href="#DejaVuSans-52" x="63.476562"/>
     <use xlink:href="#DejaVuSans-56" x="127.458984"/>
     <use xlink:href="#DejaVuSans-2d" x="189.992188"/>
     <use xlink:href="#DejaVuSans-63" x="226.076172"/>
     <use xlink:href="#DejaVuSans-79" x="281.056641"/>
     <use xlink:href="#DejaVuSans-74" x="340.236328"/>
     <use xlink:href="#DejaVuSans-64" x="379.445312"/>
    </g>
   </g>
  </g>
  <g id="axes_3">
   <g id="line2d_3">
    <path d="M 439.93782 39.666792 
L 438.111409 39.141818 
L 436.638985 39.163332 
L 435.931702 39.425448 
L 434.932175 40.376486 
L 433.721192 42.307923 
L 432.273847 44.339386 
L 431.35669 46.1477 
L 430.112376 47.747231 
L 428.894616 48.653345 
L 427.468158 49.883238 
L 426.947307 50.599083 
L 426.547199 50.95443 
L 425.359789 51.764223 
L 424.535445 52.546905 
L 423.547231 53.003031 
L 422.682169 53.610123 
L 422.15471 54.455427 
L 421.91891 55.447191 
L 421.29826 56.640231 
L 420.418292 57.838357 
L 417.603174 60.950304 
L 416.57302 62.379374 
L 415.126685 63.530279 
L 411.491263 67.670363 
L 409.875975 70.521657 
L 408.115981 72.868583 
L 406.700098 75.296905 
L 403.075448 79.745725 
L 400.809358 83.271189 
L 400.211144 85.383118 
L 399.316925 87.295748 
L 398.276711 88.402046 
L 396.978918 89.399763 
L 395.584537 90.184842 
L 394.849683 90.86986 
L 394.350202 92.178043 
L 394.133556 93.293334 
L 393.266637 95.278261 
L 393.662568 96.315069 
L 393.627787 97.09664 
L 393.179007 99.060017 
L 392.652702 100.119756 
L 391.718249 104.112371 
L 391.056248 105.7078 
L 390.473328 107.708224 
L 389.882751 109.077161 
L 389.318588 109.739926 
L 389.330745 110.872556 
L 390.02584 112.265242 
L 390.715198 115.576824 
L 391.351404 116.384399 
L 391.810945 116.492282 
L 392.857994 117.51563 
L 394.180088 118.408938 
L 394.313329 118.69501 
L 394.48676 118.819689 
L 394.756239 119.359279 
L 395.486919 120.348707 
L 397.515745 122.151631 
L 398.40544 122.451319 
L 399.677861 122.666335 
L 400.79517 123.341195 
L 401.559472 124.093404 
L 403.255732 125.514588 
L 406.756693 127.263842 
L 407.668266 127.399395 
L 409.017798 127.932232 
L 410.653429 128.126207 
L 412.119068 128.639836 
L 413.142068 129.243785 
L 414.31212 129.786991 
L 415.250708 129.984546 
L 416.323715 129.956879 
L 417.396112 130.201246 
L 419.941813 130.49051 
L 420.648669 130.287299 
L 421.959242 130.416667 
L 422.589969 130.650889 
L 423.562968 130.778182 
L 424.570072 130.497985 
L 429.20628 128.84516 
L 429.933292 128.259583 
L 430.941301 127.591729 
L 432.206042 126.902432 
L 433.809801 126.350751 
L 434.783759 125.494089 
L 436.606343 124.500717 
L 437.311614 123.691323 
L 437.85414 122.551257 
L 438.81497 121.138997 
L 440.67736 119.179946 
L 445.966853 115.388937 
L 446.901206 114.6401 
L 448.370336 113.834491 
L 449.426338 113.037788 
L 450.027921 112.923588 
L 452.0284 111.116835 
L 453.498541 108.519228 
L 454.698089 106.740063 
L 456.806075 104.535927 
L 458.252958 103.141709 
L 458.611014 101.739803 
L 458.959099 99.268626 
L 459.227377 98.440365 
L 458.892253 97.135061 
L 459.161302 94.759368 
L 459.538308 93.562028 
L 459.599914 92.826658 
L 459.119337 92.048793 
L 458.469778 90.170074 
L 457.807533 88.871215 
L 457.477599 87.839458 
L 457.300504 86.90079 
L 457.279999 85.186617 
L 456.986253 83.921249 
L 457.310324 81.019143 
L 457.236296 79.65911 
L 456.784955 78.450724 
L 456.503034 77.271429 
L 455.967137 76.075564 
L 455.446511 74.547643 
L 454.417238 72.262978 
L 454.351653 69.484336 
L 453.759804 67.719021 
L 453.560199 66.59925 
L 452.844313 65.584609 
L 451.935848 65.062919 
L 450.287227 63.260465 
L 448.452842 60.871233 
L 448.263748 59.716836 
L 447.828061 58.945312 
L 447.448949 57.863369 
L 446.924137 56.963569 
L 444.563582 54.484356 
L 443.462749 53.756891 
L 442.338859 52.590846 
L 441.057029 50.570719 
L 440.534225 49.095862 
L 439.645875 47.607954 
L 438.550446 46.241816 
L 437.710957 45.475941 
L 436.551123 44.263418 
L 435.748036 43.212034 
L 434.895441 42.399203 
L 434.09845 41.948716 
L 433.497707 41.823251 
L 433.497707 41.823251 
" clip-path="url(#p2bcc045654)" style="fill: none; stroke: #2ca02c; stroke-width: 1.5; stroke-linecap: square"/>
   </g>
   <g id="text_3">
    <!-- SRV-jasp -->
    <g transform="translate(381.384007 28.56) scale(0.2 -0.2)">
     <defs>
      <path id="DejaVuSans-6a" d="M 603 3500 
L 1178 3500 
L 1178 -63 
Q 1178 -731 923 -1031 
Q 669 -1331 103 -1331 
L -116 -1331 
L -116 -844 
L 38 -844 
Q 366 -844 484 -692 
Q 603 -541 603 -63 
L 603 3500 
z
M 603 4863 
L 1178 4863 
L 1178 4134 
L 603 4134 
L 603 4863 
z
" transform="scale(0.015625)"/>
      <path id="DejaVuSans-61" d="M 2194 1759 
Q 1497 1759 1228 1600 
Q 959 1441 959 1056 
Q 959 750 1161 570 
Q 1363 391 1709 391 
Q 2188 391 2477 730 
Q 2766 1069 2766 1631 
L 2766 1759 
L 2194 1759 
z
M 3341 1997 
L 3341 0 
L 2766 0 
L 2766 531 
Q 2569 213 2275 61 
Q 1981 -91 1556 -91 
Q 1019 -91 701 211 
Q 384 513 384 1019 
Q 384 1609 779 1909 
Q 1175 2209 1959 2209 
L 2766 2209 
L 2766 2266 
Q 2766 2663 2505 2880 
Q 2244 3097 1772 3097 
Q 1472 3097 1187 3025 
Q 903 2953 641 2809 
L 641 3341 
Q 956 3463 1253 3523 
Q 1550 3584 1831 3584 
Q 2591 3584 2966 3190 
Q 3341 2797 3341 1997 
z
" transform="scale(0.015625)"/>
      <path id="DejaVuSans-73" d="M 2834 3397 
L 2834 2853 
Q 2591 2978 2328 3040 
Q 2066 3103 1784 3103 
Q 1356 3103 1142 2972 
Q 928 2841 928 2578 
Q 928 2378 1081 2264 
Q 1234 2150 1697 2047 
L 1894 2003 
Q 2506 1872 2764 1633 
Q 3022 1394 3022 966 
Q 3022 478 2636 193 
Q 2250 -91 1575 -91 
Q 1294 -91 989 -36 
Q 684 19 347 128 
L 347 722 
Q 666 556 975 473 
Q 1284 391 1588 391 
Q 1994 391 2212 530 
Q 2431 669 2431 922 
Q 2431 1156 2273 1281 
Q 2116 1406 1581 1522 
L 1381 1569 
Q 847 1681 609 1914 
Q 372 2147 372 2553 
Q 372 3047 722 3315 
Q 1072 3584 1716 3584 
Q 2034 3584 2315 3537 
Q 2597 3491 2834 3397 
z
" transform="scale(0.015625)"/>
      <path id="DejaVuSans-70" d="M 1159 525 
L 1159 -1331 
L 581 -1331 
L 581 3500 
L 1159 3500 
L 1159 2969 
Q 1341 3281 1617 3432 
Q 1894 3584 2278 3584 
Q 2916 3584 3314 3078 
Q 3713 2572 3713 1747 
Q 3713 922 3314 415 
Q 2916 -91 2278 -91 
Q 1894 -91 1617 61 
Q 1341 213 1159 525 
z
M 3116 1747 
Q 3116 2381 2855 2742 
Q 2594 3103 2138 3103 
Q 1681 3103 1420 2742 
Q 1159 2381 1159 1747 
Q 1159 1113 1420 752 
Q 1681 391 2138 391 
Q 2594 391 2855 752 
Q 3116 1113 3116 1747 
z
" transform="scale(0.015625)"/>
     </defs>
     <use xlink:href="#DejaVuSans-53"/>
     <use xlink:href="#DejaVuSans-52" x="63.476562"/>
     <use xlink:href="#DejaVuSans-56" x="127.458984"/>
     <use xlink:href="#DejaVuSans-2d" x="189.992188"/>
     <use xlink:href="#DejaVuSans-6a" x="226.076172"/>
     <use xlink:href="#DejaVuSans-61" x="253.859375"/>
     <use xlink:href="#DejaVuSans-73" x="315.138672"/>
     <use xlink:href="#DejaVuSans-70" x="367.238281"/>
    </g>
   </g>
  </g>
  <g id="axes_4">
   <g id="line2d_4">
    <path d="M 140.039754 160.101818 
L 135.36902 160.536914 
L 130.961938 161.952519 
L 127.617067 163.592934 
L 123.43069 166.30278 
L 121.34517 168.202557 
L 116.126786 173.003027 
L 115.097829 173.854505 
L 112.207038 177.32826 
L 104.497475 187.721646 
L 103.480766 189.199953 
L 101.138669 193.298248 
L 100.284267 194.587694 
L 95.765339 202.943108 
L 93.73139 207.617248 
L 92.041313 211.189726 
L 90.494776 216.221214 
L 90.066837 217.326458 
L 89.568372 219.759402 
L 89.092143 223.314018 
L 89.000559 227.868401 
L 89.197037 230.195175 
L 90.666719 234.912504 
L 91.12334 235.821569 
L 93.389684 238.200255 
L 95.821551 240.533568 
L 97.64282 242.194657 
L 99.452853 243.589246 
L 105.8635 247.856768 
L 108.202664 249.00167 
L 111.589686 250.228247 
L 112.684397 250.690374 
L 114.954748 251.237925 
L 116.123074 251.518986 
L 118.554243 251.738182 
L 123.737915 251.564649 
L 134.583986 249.364353 
L 137.00029 248.487023 
L 138.117292 248.071205 
L 141.703598 246.249286 
L 145.230817 244.314256 
L 150.107346 241.84649 
L 155.036689 238.235485 
L 156.028997 237.444824 
L 158.979054 234.460857 
L 160.624163 232.297427 
L 161.417657 231.504543 
L 163.57021 228.37288 
L 164.756093 225.976155 
L 166.490098 221.247841 
L 168.452333 213.439916 
L 168.81855 209.366108 
L 169.076673 205.547943 
L 168.871256 193.547754 
L 168.541096 191.016021 
L 167.616567 187.005781 
L 166.047291 183.147924 
L 163.944507 179.54736 
L 159.362661 172.5624 
L 158.486323 171.397048 
L 154.750265 167.334585 
L 152.975477 165.729274 
L 151.013353 164.114707 
L 149.054349 162.872137 
L 146.701455 161.748044 
L 144.085071 160.745235 
L 141.424159 160.134372 
L 141.424159 160.134372 
" clip-path="url(#ped03b75387)" style="fill: none; stroke: #1f77b4; stroke-width: 1.5; stroke-linecap: square"/>
   </g>
   <g id="text_4">
    <!-- Linear-control -->
    <g transform="translate(60.336305 149.52) scale(0.2 -0.2)">
     <defs>
      <path id="DejaVuSans-4c" d="M 628 4666 
L 1259 4666 
L 1259 531 
L 3531 531 
L 3531 0 
L 628 0 
L 628 4666 
z
" transform="scale(0.015625)"/>
      <path id="DejaVuSans-69" d="M 603 3500 
L 1178 3500 
L 1178 0 
L 603 0 
L 603 3500 
z
M 603 4863 
L 1178 4863 
L 1178 4134 
L 603 4134 
L 603 4863 
z
" transform="scale(0.015625)"/>
      <path id="DejaVuSans-65" d="M 3597 1894 
L 3597 1613 
L 953 1613 
Q 991 1019 1311 708 
Q 1631 397 2203 397 
Q 2534 397 2845 478 
Q 3156 559 3463 722 
L 3463 178 
Q 3153 47 2828 -22 
Q 2503 -91 2169 -91 
Q 1331 -91 842 396 
Q 353 884 353 1716 
Q 353 2575 817 3079 
Q 1281 3584 2069 3584 
Q 2775 3584 3186 3129 
Q 3597 2675 3597 1894 
z
M 3022 2063 
Q 3016 2534 2758 2815 
Q 2500 3097 2075 3097 
Q 1594 3097 1305 2825 
Q 1016 2553 972 2059 
L 3022 2063 
z
" transform="scale(0.015625)"/>
     </defs>
     <use xlink:href="#DejaVuSans-4c"/>
     <use xlink:href="#DejaVuSans-69" x="55.712891"/>
     <use xlink:href="#DejaVuSans-6e" x="83.496094"/>
     <use xlink:href="#DejaVuSans-65" x="146.875"/>
     <use xlink:href="#DejaVuSans-61" x="208.398438"/>
     <use xlink:href="#DejaVuSans-72" x="269.677734"/>
     <use xlink:href="#DejaVuSans-2d" x="304.416016"/>
     <use xlink:href="#DejaVuSans-63" x="340.5"/>
     <use xlink:href="#DejaVuSans-6f" x="395.480469"/>
     <use xlink:href="#DejaVuSans-6e" x="456.662109"/>
     <use xlink:href="#DejaVuSans-74" x="520.041016"/>
     <use xlink:href="#DejaVuSans-72" x="559.25"/>
     <use xlink:href="#DejaVuSans-6f" x="598.113281"/>
     <use xlink:href="#DejaVuSans-6c" x="659.294922"/>
    </g>
   </g>
  </g>
  <g id="axes_5">
   <g id="line2d_5">
    <path d="M 291.158898 160.44451 
L 290.575215 160.101818 
L 289.694495 160.290215 
L 288.710867 160.657904 
L 287.812118 161.113505 
L 286.517989 161.407281 
L 284.436848 162.576163 
L 283.542971 163.498899 
L 283.01509 164.298849 
L 281.859487 165.215142 
L 280.926111 166.481078 
L 279.268012 168.303778 
L 278.492439 169.284129 
L 276.980871 171.669194 
L 276.342962 173.15468 
L 275.523123 176.148421 
L 274.801363 177.443151 
L 273.99759 178.399075 
L 273.116501 179.271797 
L 272.450114 180.576185 
L 270.324816 185.409815 
L 269.539263 186.911813 
L 268.694674 188.10074 
L 267.39923 189.267495 
L 263.597443 193.501113 
L 261.879403 194.736208 
L 257.898455 196.722024 
L 256.65215 197.629953 
L 254.474908 200.142667 
L 252.816348 203.407129 
L 251.575147 204.782907 
L 249.962729 207.825484 
L 249.819517 210.950445 
L 248.337797 216.134092 
L 247.645294 217.760193 
L 246.74732 219.338659 
L 246.183071 220.817794 
L 244.226324 223.607952 
L 243.628423 224.622248 
L 242.233775 226.605279 
L 240.430791 229.933706 
L 238.357257 233.482865 
L 237.086305 235.170329 
L 236.872979 235.792128 
L 236.757729 236.563036 
L 236.870684 237.253244 
L 238.047662 238.707228 
L 239.158339 239.623242 
L 239.969247 239.89431 
L 244.969537 240.325572 
L 246.071488 240.539817 
L 247.494088 240.526179 
L 248.486714 240.643903 
L 250.346349 241.281815 
L 251.167938 241.435487 
L 251.927161 241.841763 
L 252.689785 242.044666 
L 253.739867 242.536447 
L 255.260637 243.970497 
L 256.129961 244.923015 
L 258.015927 246.457421 
L 259.094204 246.871863 
L 263.580537 247.993455 
L 265.65435 249.058255 
L 267.460785 250.197233 
L 268.979865 250.784187 
L 269.877156 250.633006 
L 270.79019 250.898696 
L 274.213227 250.937788 
L 277.187709 251.202106 
L 279.513931 251.388775 
L 281.595352 251.738182 
L 282.25818 251.378231 
L 283.27237 251.060064 
L 284.530496 250.860264 
L 285.414363 250.550262 
L 287.191065 248.730808 
L 288.371655 247.883587 
L 289.844986 246.983131 
L 291.012998 245.761515 
L 292.858084 243.137601 
L 293.796607 242.387779 
L 294.553392 241.264128 
L 295.632587 240.014835 
L 296.974821 239.229901 
L 298.485474 238.653633 
L 299.820273 237.66471 
L 301.145873 237.293359 
L 302.652903 236.71954 
L 304.1695 235.946548 
L 305.48552 235.050817 
L 307.105855 232.712728 
L 307.961894 231.349864 
L 309.339489 228.460674 
L 310.242079 227.301348 
L 311.033281 224.934702 
L 311.908328 222.542399 
L 313.064368 220.283778 
L 313.595819 218.883156 
L 313.787503 217.470811 
L 314.378202 216.172402 
L 315.379694 215.0788 
L 316.231255 213.668835 
L 316.662898 212.278916 
L 316.742271 209.379289 
L 316.674862 207.997231 
L 316.424972 206.401157 
L 315.96311 205.072203 
L 315.021603 203.983017 
L 314.288456 200.990262 
L 314.10266 199.641188 
L 314.031054 195.953969 
L 313.728457 194.891387 
L 313.318296 192.476327 
L 312.873459 191.282206 
L 311.949225 190.321474 
L 311.624267 189.255369 
L 311.104667 188.112033 
L 310.610172 186.022764 
L 309.836582 184.022229 
L 308.826485 182.071936 
L 308.005208 180.968845 
L 306.022233 178.79876 
L 304.662965 176.628473 
L 303.803292 175.572513 
L 302.447062 174.726554 
L 301.616805 173.875797 
L 300.344001 171.263494 
L 299.646622 169.179559 
L 299.040711 168.179715 
L 298.601232 167.038772 
L 296.882463 165.184041 
L 296.144865 164.386489 
L 295.305849 163.748218 
L 294.180534 163.069155 
L 293.27558 162.263886 
L 292.561135 161.358465 
L 291.819454 160.883608 
L 291.819454 160.883608 
" clip-path="url(#p03e6f13739)" style="fill: none; stroke: #ff7f0e; stroke-width: 1.5; stroke-linecap: square"/>
   </g>
   <g id="text_5">
    <!-- Linear-cytd -->
    <g transform="translate(221.014062 149.52) scale(0.2 -0.2)">
     <use xlink:href="#DejaVuSans-4c"/>
     <use xlink:href="#DejaVuSans-69" x="55.712891"/>
     <use xlink:href="#DejaVuSans-6e" x="83.496094"/>
     <use xlink:href="#DejaVuSans-65" x="146.875"/>
     <use xlink:href="#DejaVuSans-61" x="208.398438"/>
     <use xlink:href="#DejaVuSans-72" x="269.677734"/>
     <use xlink:href="#DejaVuSans-2d" x="304.416016"/>
     <use xlink:href="#DejaVuSans-63" x="340.5"/>
     <use xlink:href="#DejaVuSans-79" x="395.480469"/>
     <use xlink:href="#DejaVuSans-74" x="454.660156"/>
     <use xlink:href="#DejaVuSans-64" x="493.869141"/>
    </g>
   </g>
  </g>
  <g id="axes_6">
   <g id="line2d_6">
    <path d="M 438.034669 160.287395 
L 436.695316 160.338928 
L 435.301197 160.569016 
L 434.302138 160.886874 
L 430.980021 162.507714 
L 429.172022 164.074156 
L 426.892242 165.443672 
L 423.304461 167.100044 
L 422.373594 167.950676 
L 421.696077 168.880527 
L 419.606963 170.734267 
L 418.728062 171.846022 
L 417.634013 172.871398 
L 416.298505 173.837651 
L 415.471462 175.023538 
L 414.697561 175.922894 
L 412.627169 177.99049 
L 407.075277 185.543586 
L 404.048754 189.904845 
L 403.166658 191.702429 
L 402.012088 193.055058 
L 398.403843 198.228711 
L 397.672122 199.532472 
L 396.76655 200.83331 
L 395.371054 203.360373 
L 394.851086 204.529462 
L 394.388761 205.930949 
L 393.846003 208.95983 
L 392.510873 211.734957 
L 391.665995 214.541176 
L 391.095649 215.910331 
L 390.615522 217.413526 
L 388.371046 222.582243 
L 387.732998 223.550194 
L 386.761938 225.557082 
L 386.107992 226.639076 
L 385.196841 227.830887 
L 384.801037 229.821495 
L 385.033549 231.506583 
L 385.601889 232.54716 
L 385.868774 233.458212 
L 386.275045 235.725285 
L 386.642597 236.530986 
L 387.083068 237.223428 
L 387.851276 237.483245 
L 390.050899 238.769417 
L 394.003171 240.59526 
L 395.796589 241.804717 
L 399.179752 243.006976 
L 400.568213 243.33667 
L 401.558803 244.03511 
L 405.035701 247.719047 
L 406.967063 248.92389 
L 408.00068 249.467113 
L 410.25038 249.999405 
L 411.414814 250.045228 
L 412.404361 250.205335 
L 414.438868 250.823114 
L 416.718913 251.068046 
L 418.856372 251.738182 
L 421.435087 251.483367 
L 422.498751 251.140594 
L 423.615105 251.084025 
L 424.647448 250.859227 
L 425.67794 250.984376 
L 426.859196 250.918899 
L 428.203489 250.587 
L 436.566821 247.308019 
L 438.654531 246.042761 
L 445.54642 240.874532 
L 450.791347 237.485723 
L 452.885378 235.681564 
L 453.876306 234.611255 
L 454.627273 233.52904 
L 457.246901 230.794002 
L 458.01229 229.806444 
L 459.279527 227.536604 
L 460.600036 225.21756 
L 461.867305 223.253803 
L 462.231021 221.857842 
L 463.276109 219.179281 
L 463.560483 217.942825 
L 463.674291 215.033979 
L 464.110727 212.646525 
L 463.242767 208.84367 
L 462.862038 206.302119 
L 462.798783 204.84962 
L 462.205919 202.070383 
L 462.179216 199.18396 
L 462.305764 196.41344 
L 462.132546 195.22318 
L 461.796385 194.090608 
L 460.686696 191.864287 
L 460.099813 190.538015 
L 459.782109 189.322937 
L 458.985961 185.208446 
L 458.673849 184.046589 
L 457.932573 183.03114 
L 457.097727 182.19719 
L 453.604203 177.527681 
L 453.06981 176.19724 
L 452.367968 174.829885 
L 451.552351 172.010613 
L 450.981522 170.71567 
L 449.733585 168.828717 
L 448.076966 166.618622 
L 447.477962 165.269134 
L 446.146224 162.851097 
L 444.447261 161.608259 
L 443.425791 161.126742 
L 442.438013 160.891233 
L 440.483752 160.259262 
L 439.416213 160.101818 
L 439.416213 160.101818 
" clip-path="url(#p2ef0fccb3a)" style="fill: none; stroke: #2ca02c; stroke-width: 1.5; stroke-linecap: square"/>
   </g>
   <g id="text_6">
    <!-- Linear-jasp -->
    <g transform="translate(369.94182 149.52) scale(0.2 -0.2)">
     <use xlink:href="#DejaVuSans-4c"/>
     <use xlink:href="#DejaVuSans-69" x="55.712891"/>
     <use xlink:href="#DejaVuSans-6e" x="83.496094"/>
     <use xlink:href="#DejaVuSans-65" x="146.875"/>
     <use xlink:href="#DejaVuSans-61" x="208.398438"/>
     <use xlink:href="#DejaVuSans-72" x="269.677734"/>
     <use xlink:href="#DejaVuSans-2d" x="304.416016"/>
     <use xlink:href="#DejaVuSans-6a" x="340.5"/>
     <use xlink:href="#DejaVuSans-61" x="368.283203"/>
     <use xlink:href="#DejaVuSans-73" x="429.5625"/>
     <use xlink:href="#DejaVuSans-70" x="481.662109"/>
    </g>
   </g>
  </g>
 </g>
 <defs>
  <clipPath id="pb0983599e3">
   <rect x="67.5" y="34.56" width="123.088235" height="100.8"/>
  </clipPath>
  <clipPath id="p4bcf8d3334">
   <rect x="215.205882" y="34.56" width="123.088235" height="100.8"/>
  </clipPath>
  <clipPath id="p2bcc045654">
   <rect x="362.911765" y="34.56" width="123.088235" height="100.8"/>
  </clipPath>
  <clipPath id="ped03b75387">
   <rect x="67.5" y="155.52" width="123.088235" height="100.8"/>
  </clipPath>
  <clipPath id="p03e6f13739">
   <rect x="215.205882" y="155.52" width="123.088235" height="100.8"/>
  </clipPath>
  <clipPath id="p2ef0fccb3a">
   <rect x="362.911765" y="155.52" width="123.088235" height="100.8"/>
  </clipPath>
 </defs>
</svg>
