<?xml version="1.0" encoding="utf-8" standalone="no"?>
<!DOCTYPE svg PUBLIC "-//W3C//DTD SVG 1.1//EN"
  "http://www.w3.org/Graphics/SVG/1.1/DTD/svg11.dtd">
<svg xmlns:xlink="http://www.w3.org/1999/xlink" width="576pt" height="288pt" viewBox="0 0 576 288" xmlns="http://www.w3.org/2000/svg" version="1.1">
 <metadata>
  <rdf:RDF xmlns:dc="http://purl.org/dc/elements/1.1/" xmlns:cc="http://creativecommons.org/ns#" xmlns:rdf="http://www.w3.org/1999/02/22-rdf-syntax-ns#">
   <cc:Work>
    <dc:type rdf:resource="http://purl.org/dc/dcmitype/StillImage"/>
    <dc:date>2024-04-08T12:05:37.676197</dc:date>
    <dc:format>image/svg+xml</dc:format>
    <dc:creator>
     <cc:Agent>
      <dc:title>Matplotlib v3.8.4, https://matplotlib.org/</dc:title>
     </cc:Agent>
    </dc:creator>
   </cc:Work>
  </rdf:RDF>
 </metadata>
 <defs>
  <style type="text/css">*{stroke-linejoin: round; stroke-linecap: butt}</style>
 </defs>
 <g id="figure_1">
  <g id="patch_1">
   <path d="M 0 288 
L 576 288 
L 576 0 
L 0 0 
z
" style="fill: #ffffff"/>
  </g>
  <g id="axes_1">
   <g id="patch_2">
    <path d="M 41.711875 260.521875 
L 287.53125 260.521875 
L 287.53125 57.594062 
L 41.711875 57.594062 
z
" style="fill: #ffffff"/>
   </g>
   <g id="patch_3">
    <path d="M 98.517062 260.521875 
L 107.897612 260.521875 
L 107.897612 255.908506 
L 98.517062 255.908506 
z
" clip-path="url(#p6bc1551bb7)" style="fill: #1f77b4; opacity: 0.4"/>
   </g>
   <g id="patch_4">
    <path d="M 107.897612 260.521875 
L 117.278163 260.521875 
L 117.278163 232.841664 
L 107.897612 232.841664 
z
" clip-path="url(#p6bc1551bb7)" style="fill: #1f77b4; opacity: 0.4"/>
   </g>
   <g id="patch_5">
    <path d="M 117.278163 260.521875 
L 126.658714 260.521875 
L 126.658714 209.774821 
L 117.278163 209.774821 
z
" clip-path="url(#p6bc1551bb7)" style="fill: #1f77b4; opacity: 0.4"/>
   </g>
   <g id="patch_6">
    <path d="M 126.658714 260.521875 
L 136.039265 260.521875 
L 136.039265 108.280712 
L 126.658714 108.280712 
z
" clip-path="url(#p6bc1551bb7)" style="fill: #1f77b4; opacity: 0.4"/>
   </g>
   <g id="patch_7">
    <path d="M 136.039265 260.521875 
L 145.419816 260.521875 
L 145.419816 131.347555 
L 136.039265 131.347555 
z
" clip-path="url(#p6bc1551bb7)" style="fill: #1f77b4; opacity: 0.4"/>
   </g>
   <g id="patch_8">
    <path d="M 145.419816 260.521875 
L 154.800367 260.521875 
L 154.800367 172.867872 
L 145.419816 172.867872 
z
" clip-path="url(#p6bc1551bb7)" style="fill: #1f77b4; opacity: 0.4"/>
   </g>
   <g id="patch_9">
    <path d="M 154.800367 260.521875 
L 164.180918 260.521875 
L 164.180918 154.414398 
L 154.800367 154.414398 
z
" clip-path="url(#p6bc1551bb7)" style="fill: #1f77b4; opacity: 0.4"/>
   </g>
   <g id="patch_10">
    <path d="M 164.180918 260.521875 
L 173.561469 260.521875 
L 173.561469 182.094609 
L 164.180918 182.094609 
z
" clip-path="url(#p6bc1551bb7)" style="fill: #1f77b4; opacity: 0.4"/>
   </g>
   <g id="patch_11">
    <path d="M 173.561469 260.521875 
L 182.94202 260.521875 
L 182.94202 209.774821 
L 173.561469 209.774821 
z
" clip-path="url(#p6bc1551bb7)" style="fill: #1f77b4; opacity: 0.4"/>
   </g>
   <g id="patch_12">
    <path d="M 182.94202 260.521875 
L 192.322571 260.521875 
L 192.322571 177.481241 
L 182.94202 177.481241 
z
" clip-path="url(#p6bc1551bb7)" style="fill: #1f77b4; opacity: 0.4"/>
   </g>
   <g id="patch_13">
    <path d="M 192.322571 260.521875 
L 201.703122 260.521875 
L 201.703122 223.614926 
L 192.322571 223.614926 
z
" clip-path="url(#p6bc1551bb7)" style="fill: #1f77b4; opacity: 0.4"/>
   </g>
   <g id="patch_14">
    <path d="M 201.703122 260.521875 
L 211.083672 260.521875 
L 211.083672 228.228295 
L 201.703122 228.228295 
z
" clip-path="url(#p6bc1551bb7)" style="fill: #1f77b4; opacity: 0.4"/>
   </g>
   <g id="patch_15">
    <path d="M 211.083672 260.521875 
L 220.464223 260.521875 
L 220.464223 237.455032 
L 211.083672 237.455032 
z
" clip-path="url(#p6bc1551bb7)" style="fill: #1f77b4; opacity: 0.4"/>
   </g>
   <g id="patch_16">
    <path d="M 220.464223 260.521875 
L 229.844774 260.521875 
L 229.844774 232.841664 
L 220.464223 232.841664 
z
" clip-path="url(#p6bc1551bb7)" style="fill: #1f77b4; opacity: 0.4"/>
   </g>
   <g id="patch_17">
    <path d="M 229.844774 260.521875 
L 239.225325 260.521875 
L 239.225325 251.295138 
L 229.844774 251.295138 
z
" clip-path="url(#p6bc1551bb7)" style="fill: #1f77b4; opacity: 0.4"/>
   </g>
   <g id="patch_18">
    <path d="M 239.225325 260.521875 
L 248.605876 260.521875 
L 248.605876 251.295138 
L 239.225325 251.295138 
z
" clip-path="url(#p6bc1551bb7)" style="fill: #1f77b4; opacity: 0.4"/>
   </g>
   <g id="patch_19">
    <path d="M 248.605876 260.521875 
L 257.986427 260.521875 
L 257.986427 255.908506 
L 248.605876 255.908506 
z
" clip-path="url(#p6bc1551bb7)" style="fill: #1f77b4; opacity: 0.4"/>
   </g>
   <g id="patch_20">
    <path d="M 257.986427 260.521875 
L 267.366978 260.521875 
L 267.366978 255.908506 
L 257.986427 255.908506 
z
" clip-path="url(#p6bc1551bb7)" style="fill: #1f77b4; opacity: 0.4"/>
   </g>
   <g id="patch_21">
    <path d="M 267.366978 260.521875 
L 276.747529 260.521875 
L 276.747529 255.908506 
L 267.366978 255.908506 
z
" clip-path="url(#p6bc1551bb7)" style="fill: #1f77b4; opacity: 0.4"/>
   </g>
   <g id="patch_22">
    <path d="M 276.747529 260.521875 
L 286.12808 260.521875 
L 286.12808 251.295138 
L 276.747529 251.295138 
z
" clip-path="url(#p6bc1551bb7)" style="fill: #1f77b4; opacity: 0.4"/>
   </g>
   <g id="patch_23">
    <path d="M 154.376254 260.521875 
L 160.212638 260.521875 
L 160.212638 212.205729 
L 154.376254 212.205729 
z
" clip-path="url(#p6bc1551bb7)" style="fill: #ff7f0e; opacity: 0.4"/>
   </g>
   <g id="patch_24">
    <path d="M 160.212638 260.521875 
L 166.049023 260.521875 
L 166.049023 212.205729 
L 160.212638 212.205729 
z
" clip-path="url(#p6bc1551bb7)" style="fill: #ff7f0e; opacity: 0.4"/>
   </g>
   <g id="patch_25">
    <path d="M 166.049023 260.521875 
L 171.885407 260.521875 
L 171.885407 244.416493 
L 166.049023 244.416493 
z
" clip-path="url(#p6bc1551bb7)" style="fill: #ff7f0e; opacity: 0.4"/>
   </g>
   <g id="patch_26">
    <path d="M 171.885407 260.521875 
L 177.721792 260.521875 
L 177.721792 260.521875 
L 171.885407 260.521875 
z
" clip-path="url(#p6bc1551bb7)" style="fill: #ff7f0e; opacity: 0.4"/>
   </g>
   <g id="patch_27">
    <path d="M 177.721792 260.521875 
L 183.558176 260.521875 
L 183.558176 196.100347 
L 177.721792 196.100347 
z
" clip-path="url(#p6bc1551bb7)" style="fill: #ff7f0e; opacity: 0.4"/>
   </g>
   <g id="patch_28">
    <path d="M 183.558176 260.521875 
L 189.39456 260.521875 
L 189.39456 196.100347 
L 183.558176 196.100347 
z
" clip-path="url(#p6bc1551bb7)" style="fill: #ff7f0e; opacity: 0.4"/>
   </g>
   <g id="patch_29">
    <path d="M 189.39456 260.521875 
L 195.230945 260.521875 
L 195.230945 212.205729 
L 189.39456 212.205729 
z
" clip-path="url(#p6bc1551bb7)" style="fill: #ff7f0e; opacity: 0.4"/>
   </g>
   <g id="patch_30">
    <path d="M 195.230945 260.521875 
L 201.067329 260.521875 
L 201.067329 115.573437 
L 195.230945 115.573437 
z
" clip-path="url(#p6bc1551bb7)" style="fill: #ff7f0e; opacity: 0.4"/>
   </g>
   <g id="patch_31">
    <path d="M 201.067329 260.521875 
L 206.903714 260.521875 
L 206.903714 67.257292 
L 201.067329 67.257292 
z
" clip-path="url(#p6bc1551bb7)" style="fill: #ff7f0e; opacity: 0.4"/>
   </g>
   <g id="patch_32">
    <path d="M 206.903714 260.521875 
L 212.740098 260.521875 
L 212.740098 131.678819 
L 206.903714 131.678819 
z
" clip-path="url(#p6bc1551bb7)" style="fill: #ff7f0e; opacity: 0.4"/>
   </g>
   <g id="patch_33">
    <path d="M 212.740098 260.521875 
L 218.576483 260.521875 
L 218.576483 99.468056 
L 212.740098 99.468056 
z
" clip-path="url(#p6bc1551bb7)" style="fill: #ff7f0e; opacity: 0.4"/>
   </g>
   <g id="patch_34">
    <path d="M 218.576483 260.521875 
L 224.412867 260.521875 
L 224.412867 147.784201 
L 218.576483 147.784201 
z
" clip-path="url(#p6bc1551bb7)" style="fill: #ff7f0e; opacity: 0.4"/>
   </g>
   <g id="patch_35">
    <path d="M 224.412867 260.521875 
L 230.249251 260.521875 
L 230.249251 163.889583 
L 224.412867 163.889583 
z
" clip-path="url(#p6bc1551bb7)" style="fill: #ff7f0e; opacity: 0.4"/>
   </g>
   <g id="patch_36">
    <path d="M 230.249251 260.521875 
L 236.085636 260.521875 
L 236.085636 131.678819 
L 230.249251 131.678819 
z
" clip-path="url(#p6bc1551bb7)" style="fill: #ff7f0e; opacity: 0.4"/>
   </g>
   <g id="patch_37">
    <path d="M 236.085636 260.521875 
L 241.92202 260.521875 
L 241.92202 163.889583 
L 236.085636 163.889583 
z
" clip-path="url(#p6bc1551bb7)" style="fill: #ff7f0e; opacity: 0.4"/>
   </g>
   <g id="patch_38">
    <path d="M 241.92202 260.521875 
L 247.758405 260.521875 
L 247.758405 212.205729 
L 241.92202 212.205729 
z
" clip-path="url(#p6bc1551bb7)" style="fill: #ff7f0e; opacity: 0.4"/>
   </g>
   <g id="patch_39">
    <path d="M 247.758405 260.521875 
L 253.594789 260.521875 
L 253.594789 212.205729 
L 247.758405 212.205729 
z
" clip-path="url(#p6bc1551bb7)" style="fill: #ff7f0e; opacity: 0.4"/>
   </g>
   <g id="patch_40">
    <path d="M 253.594789 260.521875 
L 259.431174 260.521875 
L 259.431174 260.521875 
L 253.594789 260.521875 
z
" clip-path="url(#p6bc1551bb7)" style="fill: #ff7f0e; opacity: 0.4"/>
   </g>
   <g id="patch_41">
    <path d="M 259.431174 260.521875 
L 265.267558 260.521875 
L 265.267558 260.521875 
L 259.431174 260.521875 
z
" clip-path="url(#p6bc1551bb7)" style="fill: #ff7f0e; opacity: 0.4"/>
   </g>
   <g id="patch_42">
    <path d="M 265.267558 260.521875 
L 271.103942 260.521875 
L 271.103942 212.205729 
L 265.267558 212.205729 
z
" clip-path="url(#p6bc1551bb7)" style="fill: #ff7f0e; opacity: 0.4"/>
   </g>
   <g id="patch_43">
    <path d="M 127.920907 260.521875 
L 135.050943 260.521875 
L 135.050943 234.710415 
L 127.920907 234.710415 
z
" clip-path="url(#p6bc1551bb7)" style="fill: #2ca02c; opacity: 0.4"/>
   </g>
   <g id="patch_44">
    <path d="M 135.050943 260.521875 
L 142.180978 260.521875 
L 142.180978 260.521875 
L 135.050943 260.521875 
z
" clip-path="url(#p6bc1551bb7)" style="fill: #2ca02c; opacity: 0.4"/>
   </g>
   <g id="patch_45">
    <path d="M 142.180978 260.521875 
L 149.311014 260.521875 
L 149.311014 247.616145 
L 142.180978 247.616145 
z
" clip-path="url(#p6bc1551bb7)" style="fill: #2ca02c; opacity: 0.4"/>
   </g>
   <g id="patch_46">
    <path d="M 149.311014 260.521875 
L 156.441049 260.521875 
L 156.441049 221.804685 
L 149.311014 221.804685 
z
" clip-path="url(#p6bc1551bb7)" style="fill: #2ca02c; opacity: 0.4"/>
   </g>
   <g id="patch_47">
    <path d="M 156.441049 260.521875 
L 163.571084 260.521875 
L 163.571084 144.370306 
L 156.441049 144.370306 
z
" clip-path="url(#p6bc1551bb7)" style="fill: #2ca02c; opacity: 0.4"/>
   </g>
   <g id="patch_48">
    <path d="M 163.571084 260.521875 
L 170.70112 260.521875 
L 170.70112 208.898956 
L 163.571084 208.898956 
z
" clip-path="url(#p6bc1551bb7)" style="fill: #2ca02c; opacity: 0.4"/>
   </g>
   <g id="patch_49">
    <path d="M 170.70112 260.521875 
L 177.831155 260.521875 
L 177.831155 105.653117 
L 170.70112 105.653117 
z
" clip-path="url(#p6bc1551bb7)" style="fill: #2ca02c; opacity: 0.4"/>
   </g>
   <g id="patch_50">
    <path d="M 177.831155 260.521875 
L 184.961191 260.521875 
L 184.961191 105.653117 
L 177.831155 105.653117 
z
" clip-path="url(#p6bc1551bb7)" style="fill: #2ca02c; opacity: 0.4"/>
   </g>
   <g id="patch_51">
    <path d="M 184.961191 260.521875 
L 192.091226 260.521875 
L 192.091226 157.276036 
L 184.961191 157.276036 
z
" clip-path="url(#p6bc1551bb7)" style="fill: #2ca02c; opacity: 0.4"/>
   </g>
   <g id="patch_52">
    <path d="M 192.091226 260.521875 
L 199.221262 260.521875 
L 199.221262 118.558846 
L 192.091226 118.558846 
z
" clip-path="url(#p6bc1551bb7)" style="fill: #2ca02c; opacity: 0.4"/>
   </g>
   <g id="patch_53">
    <path d="M 199.221262 260.521875 
L 206.351297 260.521875 
L 206.351297 183.087496 
L 199.221262 183.087496 
z
" clip-path="url(#p6bc1551bb7)" style="fill: #2ca02c; opacity: 0.4"/>
   </g>
   <g id="patch_54">
    <path d="M 206.351297 260.521875 
L 213.481333 260.521875 
L 213.481333 208.898956 
L 206.351297 208.898956 
z
" clip-path="url(#p6bc1551bb7)" style="fill: #2ca02c; opacity: 0.4"/>
   </g>
   <g id="patch_55">
    <path d="M 213.481333 260.521875 
L 220.611368 260.521875 
L 220.611368 234.710415 
L 213.481333 234.710415 
z
" clip-path="url(#p6bc1551bb7)" style="fill: #2ca02c; opacity: 0.4"/>
   </g>
   <g id="patch_56">
    <path d="M 220.611368 260.521875 
L 227.741404 260.521875 
L 227.741404 221.804685 
L 220.611368 221.804685 
z
" clip-path="url(#p6bc1551bb7)" style="fill: #2ca02c; opacity: 0.4"/>
   </g>
   <g id="patch_57">
    <path d="M 227.741404 260.521875 
L 234.871439 260.521875 
L 234.871439 234.710415 
L 227.741404 234.710415 
z
" clip-path="url(#p6bc1551bb7)" style="fill: #2ca02c; opacity: 0.4"/>
   </g>
   <g id="patch_58">
    <path d="M 234.871439 260.521875 
L 242.001475 260.521875 
L 242.001475 195.993226 
L 234.871439 195.993226 
z
" clip-path="url(#p6bc1551bb7)" style="fill: #2ca02c; opacity: 0.4"/>
   </g>
   <g id="patch_59">
    <path d="M 242.001475 260.521875 
L 249.13151 260.521875 
L 249.13151 183.087496 
L 242.001475 183.087496 
z
" clip-path="url(#p6bc1551bb7)" style="fill: #2ca02c; opacity: 0.4"/>
   </g>
   <g id="patch_60">
    <path d="M 249.13151 260.521875 
L 256.261546 260.521875 
L 256.261546 247.616145 
L 249.13151 247.616145 
z
" clip-path="url(#p6bc1551bb7)" style="fill: #2ca02c; opacity: 0.4"/>
   </g>
   <g id="patch_61">
    <path d="M 256.261546 260.521875 
L 263.391581 260.521875 
L 263.391581 247.616145 
L 256.261546 247.616145 
z
" clip-path="url(#p6bc1551bb7)" style="fill: #2ca02c; opacity: 0.4"/>
   </g>
   <g id="patch_62">
    <path d="M 263.391581 260.521875 
L 270.521617 260.521875 
L 270.521617 221.804685 
L 263.391581 221.804685 
z
" clip-path="url(#p6bc1551bb7)" style="fill: #2ca02c; opacity: 0.4"/>
   </g>
   <g id="matplotlib.axis_1">
    <g id="xtick_1">
     <g id="line2d_1">
      <defs>
       <path id="m62e48f1cd1" d="M 0 0 
L 0 3.5 
" style="stroke: #000000; stroke-width: 0.8"/>
      </defs>
      <g>
       <use xlink:href="#m62e48f1cd1" x="74.791398" y="260.521875" style="stroke: #000000; stroke-width: 0.8"/>
      </g>
     </g>
     <g id="text_1">
      <!-- 0.4 -->
      <g transform="translate(66.839835 275.120313) scale(0.1 -0.1)">
       <defs>
        <path id="DejaVuSans-30" d="M 2034 4250 
Q 1547 4250 1301 3770 
Q 1056 3291 1056 2328 
Q 1056 1369 1301 889 
Q 1547 409 2034 409 
Q 2525 409 2770 889 
Q 3016 1369 3016 2328 
Q 3016 3291 2770 3770 
Q 2525 4250 2034 4250 
z
M 2034 4750 
Q 2819 4750 3233 4129 
Q 3647 3509 3647 2328 
Q 3647 1150 3233 529 
Q 2819 -91 2034 -91 
Q 1250 -91 836 529 
Q 422 1150 422 2328 
Q 422 3509 836 4129 
Q 1250 4750 2034 4750 
z
" transform="scale(0.015625)"/>
        <path id="DejaVuSans-2e" d="M 684 794 
L 1344 794 
L 1344 0 
L 684 0 
L 684 794 
z
" transform="scale(0.015625)"/>
        <path id="DejaVuSans-34" d="M 2419 4116 
L 825 1625 
L 2419 1625 
L 2419 4116 
z
M 2253 4666 
L 3047 4666 
L 3047 1625 
L 3713 1625 
L 3713 1100 
L 3047 1100 
L 3047 0 
L 2419 0 
L 2419 1100 
L 313 1100 
L 313 1709 
L 2253 4666 
z
" transform="scale(0.015625)"/>
       </defs>
       <use xlink:href="#DejaVuSans-30"/>
       <use xlink:href="#DejaVuSans-2e" x="63.623047"/>
       <use xlink:href="#DejaVuSans-34" x="95.410156"/>
      </g>
     </g>
    </g>
    <g id="xtick_2">
     <g id="line2d_2">
      <g>
       <use xlink:href="#m62e48f1cd1" x="110.427302" y="260.521875" style="stroke: #000000; stroke-width: 0.8"/>
      </g>
     </g>
     <g id="text_2">
      <!-- 0.5 -->
      <g transform="translate(102.475739 275.120313) scale(0.1 -0.1)">
       <defs>
        <path id="DejaVuSans-35" d="M 691 4666 
L 3169 4666 
L 3169 4134 
L 1269 4134 
L 1269 2991 
Q 1406 3038 1543 3061 
Q 1681 3084 1819 3084 
Q 2600 3084 3056 2656 
Q 3513 2228 3513 1497 
Q 3513 744 3044 326 
Q 2575 -91 1722 -91 
Q 1428 -91 1123 -41 
Q 819 9 494 109 
L 494 744 
Q 775 591 1075 516 
Q 1375 441 1709 441 
Q 2250 441 2565 725 
Q 2881 1009 2881 1497 
Q 2881 1984 2565 2268 
Q 2250 2553 1709 2553 
Q 1456 2553 1204 2497 
Q 953 2441 691 2322 
L 691 4666 
z
" transform="scale(0.015625)"/>
       </defs>
       <use xlink:href="#DejaVuSans-30"/>
       <use xlink:href="#DejaVuSans-2e" x="63.623047"/>
       <use xlink:href="#DejaVuSans-35" x="95.410156"/>
      </g>
     </g>
    </g>
    <g id="xtick_3">
     <g id="line2d_3">
      <g>
       <use xlink:href="#m62e48f1cd1" x="146.063206" y="260.521875" style="stroke: #000000; stroke-width: 0.8"/>
      </g>
     </g>
     <g id="text_3">
      <!-- 0.6 -->
      <g transform="translate(138.111643 275.120313) scale(0.1 -0.1)">
       <defs>
        <path id="DejaVuSans-36" d="M 2113 2584 
Q 1688 2584 1439 2293 
Q 1191 2003 1191 1497 
Q 1191 994 1439 701 
Q 1688 409 2113 409 
Q 2538 409 2786 701 
Q 3034 994 3034 1497 
Q 3034 2003 2786 2293 
Q 2538 2584 2113 2584 
z
M 3366 4563 
L 3366 3988 
Q 3128 4100 2886 4159 
Q 2644 4219 2406 4219 
Q 1781 4219 1451 3797 
Q 1122 3375 1075 2522 
Q 1259 2794 1537 2939 
Q 1816 3084 2150 3084 
Q 2853 3084 3261 2657 
Q 3669 2231 3669 1497 
Q 3669 778 3244 343 
Q 2819 -91 2113 -91 
Q 1303 -91 875 529 
Q 447 1150 447 2328 
Q 447 3434 972 4092 
Q 1497 4750 2381 4750 
Q 2619 4750 2861 4703 
Q 3103 4656 3366 4563 
z
" transform="scale(0.015625)"/>
       </defs>
       <use xlink:href="#DejaVuSans-30"/>
       <use xlink:href="#DejaVuSans-2e" x="63.623047"/>
       <use xlink:href="#DejaVuSans-36" x="95.410156"/>
      </g>
     </g>
    </g>
    <g id="xtick_4">
     <g id="line2d_4">
      <g>
       <use xlink:href="#m62e48f1cd1" x="181.699109" y="260.521875" style="stroke: #000000; stroke-width: 0.8"/>
      </g>
     </g>
     <g id="text_4">
      <!-- 0.7 -->
      <g transform="translate(173.747547 275.120313) scale(0.1 -0.1)">
       <defs>
        <path id="DejaVuSans-37" d="M 525 4666 
L 3525 4666 
L 3525 4397 
L 1831 0 
L 1172 0 
L 2766 4134 
L 525 4134 
L 525 4666 
z
" transform="scale(0.015625)"/>
       </defs>
       <use xlink:href="#DejaVuSans-30"/>
       <use xlink:href="#DejaVuSans-2e" x="63.623047"/>
       <use xlink:href="#DejaVuSans-37" x="95.410156"/>
      </g>
     </g>
    </g>
    <g id="xtick_5">
     <g id="line2d_5">
      <g>
       <use xlink:href="#m62e48f1cd1" x="217.335013" y="260.521875" style="stroke: #000000; stroke-width: 0.8"/>
      </g>
     </g>
     <g id="text_5">
      <!-- 0.8 -->
      <g transform="translate(209.383451 275.120313) scale(0.1 -0.1)">
       <defs>
        <path id="DejaVuSans-38" d="M 2034 2216 
Q 1584 2216 1326 1975 
Q 1069 1734 1069 1313 
Q 1069 891 1326 650 
Q 1584 409 2034 409 
Q 2484 409 2743 651 
Q 3003 894 3003 1313 
Q 3003 1734 2745 1975 
Q 2488 2216 2034 2216 
z
M 1403 2484 
Q 997 2584 770 2862 
Q 544 3141 544 3541 
Q 544 4100 942 4425 
Q 1341 4750 2034 4750 
Q 2731 4750 3128 4425 
Q 3525 4100 3525 3541 
Q 3525 3141 3298 2862 
Q 3072 2584 2669 2484 
Q 3125 2378 3379 2068 
Q 3634 1759 3634 1313 
Q 3634 634 3220 271 
Q 2806 -91 2034 -91 
Q 1263 -91 848 271 
Q 434 634 434 1313 
Q 434 1759 690 2068 
Q 947 2378 1403 2484 
z
M 1172 3481 
Q 1172 3119 1398 2916 
Q 1625 2713 2034 2713 
Q 2441 2713 2670 2916 
Q 2900 3119 2900 3481 
Q 2900 3844 2670 4047 
Q 2441 4250 2034 4250 
Q 1625 4250 1398 4047 
Q 1172 3844 1172 3481 
z
" transform="scale(0.015625)"/>
       </defs>
       <use xlink:href="#DejaVuSans-30"/>
       <use xlink:href="#DejaVuSans-2e" x="63.623047"/>
       <use xlink:href="#DejaVuSans-38" x="95.410156"/>
      </g>
     </g>
    </g>
    <g id="xtick_6">
     <g id="line2d_6">
      <g>
       <use xlink:href="#m62e48f1cd1" x="252.970917" y="260.521875" style="stroke: #000000; stroke-width: 0.8"/>
      </g>
     </g>
     <g id="text_6">
      <!-- 0.9 -->
      <g transform="translate(245.019355 275.120313) scale(0.1 -0.1)">
       <defs>
        <path id="DejaVuSans-39" d="M 703 97 
L 703 672 
Q 941 559 1184 500 
Q 1428 441 1663 441 
Q 2288 441 2617 861 
Q 2947 1281 2994 2138 
Q 2813 1869 2534 1725 
Q 2256 1581 1919 1581 
Q 1219 1581 811 2004 
Q 403 2428 403 3163 
Q 403 3881 828 4315 
Q 1253 4750 1959 4750 
Q 2769 4750 3195 4129 
Q 3622 3509 3622 2328 
Q 3622 1225 3098 567 
Q 2575 -91 1691 -91 
Q 1453 -91 1209 -44 
Q 966 3 703 97 
z
M 1959 2075 
Q 2384 2075 2632 2365 
Q 2881 2656 2881 3163 
Q 2881 3666 2632 3958 
Q 2384 4250 1959 4250 
Q 1534 4250 1286 3958 
Q 1038 3666 1038 3163 
Q 1038 2656 1286 2365 
Q 1534 2075 1959 2075 
z
" transform="scale(0.015625)"/>
       </defs>
       <use xlink:href="#DejaVuSans-30"/>
       <use xlink:href="#DejaVuSans-2e" x="63.623047"/>
       <use xlink:href="#DejaVuSans-39" x="95.410156"/>
      </g>
     </g>
    </g>
   </g>
   <g id="matplotlib.axis_2">
    <g id="ytick_1">
     <g id="line2d_7">
      <defs>
       <path id="m2b9030026d" d="M 0 0 
L -3.5 0 
" style="stroke: #000000; stroke-width: 0.8"/>
      </defs>
      <g>
       <use xlink:href="#m2b9030026d" x="41.711875" y="260.521875" style="stroke: #000000; stroke-width: 0.8"/>
      </g>
     </g>
     <g id="text_7">
      <!-- 0 -->
      <g transform="translate(28.349375 264.321094) scale(0.1 -0.1)">
       <use xlink:href="#DejaVuSans-30"/>
      </g>
     </g>
    </g>
    <g id="ytick_2">
     <g id="line2d_8">
      <g>
       <use xlink:href="#m2b9030026d" x="41.711875" y="235.991167" style="stroke: #000000; stroke-width: 0.8"/>
      </g>
     </g>
     <g id="text_8">
      <!-- 1 -->
      <g transform="translate(28.349375 239.790385) scale(0.1 -0.1)">
       <defs>
        <path id="DejaVuSans-31" d="M 794 531 
L 1825 531 
L 1825 4091 
L 703 3866 
L 703 4441 
L 1819 4666 
L 2450 4666 
L 2450 531 
L 3481 531 
L 3481 0 
L 794 0 
L 794 531 
z
" transform="scale(0.015625)"/>
       </defs>
       <use xlink:href="#DejaVuSans-31"/>
      </g>
     </g>
    </g>
    <g id="ytick_3">
     <g id="line2d_9">
      <g>
       <use xlink:href="#m2b9030026d" x="41.711875" y="211.460458" style="stroke: #000000; stroke-width: 0.8"/>
      </g>
     </g>
     <g id="text_9">
      <!-- 2 -->
      <g transform="translate(28.349375 215.259677) scale(0.1 -0.1)">
       <defs>
        <path id="DejaVuSans-32" d="M 1228 531 
L 3431 531 
L 3431 0 
L 469 0 
L 469 531 
Q 828 903 1448 1529 
Q 2069 2156 2228 2338 
Q 2531 2678 2651 2914 
Q 2772 3150 2772 3378 
Q 2772 3750 2511 3984 
Q 2250 4219 1831 4219 
Q 1534 4219 1204 4116 
Q 875 4013 500 3803 
L 500 4441 
Q 881 4594 1212 4672 
Q 1544 4750 1819 4750 
Q 2544 4750 2975 4387 
Q 3406 4025 3406 3419 
Q 3406 3131 3298 2873 
Q 3191 2616 2906 2266 
Q 2828 2175 2409 1742 
Q 1991 1309 1228 531 
z
" transform="scale(0.015625)"/>
       </defs>
       <use xlink:href="#DejaVuSans-32"/>
      </g>
     </g>
    </g>
    <g id="ytick_4">
     <g id="line2d_10">
      <g>
       <use xlink:href="#m2b9030026d" x="41.711875" y="186.92975" style="stroke: #000000; stroke-width: 0.8"/>
      </g>
     </g>
     <g id="text_10">
      <!-- 3 -->
      <g transform="translate(28.349375 190.728969) scale(0.1 -0.1)">
       <defs>
        <path id="DejaVuSans-33" d="M 2597 2516 
Q 3050 2419 3304 2112 
Q 3559 1806 3559 1356 
Q 3559 666 3084 287 
Q 2609 -91 1734 -91 
Q 1441 -91 1130 -33 
Q 819 25 488 141 
L 488 750 
Q 750 597 1062 519 
Q 1375 441 1716 441 
Q 2309 441 2620 675 
Q 2931 909 2931 1356 
Q 2931 1769 2642 2001 
Q 2353 2234 1838 2234 
L 1294 2234 
L 1294 2753 
L 1863 2753 
Q 2328 2753 2575 2939 
Q 2822 3125 2822 3475 
Q 2822 3834 2567 4026 
Q 2313 4219 1838 4219 
Q 1578 4219 1281 4162 
Q 984 4106 628 3988 
L 628 4550 
Q 988 4650 1302 4700 
Q 1616 4750 1894 4750 
Q 2613 4750 3031 4423 
Q 3450 4097 3450 3541 
Q 3450 3153 3228 2886 
Q 3006 2619 2597 2516 
z
" transform="scale(0.015625)"/>
       </defs>
       <use xlink:href="#DejaVuSans-33"/>
      </g>
     </g>
    </g>
    <g id="ytick_5">
     <g id="line2d_11">
      <g>
       <use xlink:href="#m2b9030026d" x="41.711875" y="162.399042" style="stroke: #000000; stroke-width: 0.8"/>
      </g>
     </g>
     <g id="text_11">
      <!-- 4 -->
      <g transform="translate(28.349375 166.198261) scale(0.1 -0.1)">
       <use xlink:href="#DejaVuSans-34"/>
      </g>
     </g>
    </g>
    <g id="ytick_6">
     <g id="line2d_12">
      <g>
       <use xlink:href="#m2b9030026d" x="41.711875" y="137.868334" style="stroke: #000000; stroke-width: 0.8"/>
      </g>
     </g>
     <g id="text_12">
      <!-- 5 -->
      <g transform="translate(28.349375 141.667552) scale(0.1 -0.1)">
       <use xlink:href="#DejaVuSans-35"/>
      </g>
     </g>
    </g>
    <g id="ytick_7">
     <g id="line2d_13">
      <g>
       <use xlink:href="#m2b9030026d" x="41.711875" y="113.337625" style="stroke: #000000; stroke-width: 0.8"/>
      </g>
     </g>
     <g id="text_13">
      <!-- 6 -->
      <g transform="translate(28.349375 117.136844) scale(0.1 -0.1)">
       <use xlink:href="#DejaVuSans-36"/>
      </g>
     </g>
    </g>
    <g id="ytick_8">
     <g id="line2d_14">
      <g>
       <use xlink:href="#m2b9030026d" x="41.711875" y="88.806917" style="stroke: #000000; stroke-width: 0.8"/>
      </g>
     </g>
     <g id="text_14">
      <!-- 7 -->
      <g transform="translate(28.349375 92.606136) scale(0.1 -0.1)">
       <use xlink:href="#DejaVuSans-37"/>
      </g>
     </g>
    </g>
    <g id="ytick_9">
     <g id="line2d_15">
      <g>
       <use xlink:href="#m2b9030026d" x="41.711875" y="64.276209" style="stroke: #000000; stroke-width: 0.8"/>
      </g>
     </g>
     <g id="text_15">
      <!-- 8 -->
      <g transform="translate(28.349375 68.075428) scale(0.1 -0.1)">
       <use xlink:href="#DejaVuSans-38"/>
      </g>
     </g>
    </g>
    <g id="text_16">
     <!-- Fraction of cells -->
     <g transform="translate(21.437812 213.889844) rotate(-90) scale(0.14 -0.14)">
      <defs>
       <path id="DejaVuSans-46" d="M 628 4666 
L 3309 4666 
L 3309 4134 
L 1259 4134 
L 1259 2759 
L 3109 2759 
L 3109 2228 
L 1259 2228 
L 1259 0 
L 628 0 
L 628 4666 
z
" transform="scale(0.015625)"/>
       <path id="DejaVuSans-72" d="M 2631 2963 
Q 2534 3019 2420 3045 
Q 2306 3072 2169 3072 
Q 1681 3072 1420 2755 
Q 1159 2438 1159 1844 
L 1159 0 
L 581 0 
L 581 3500 
L 1159 3500 
L 1159 2956 
Q 1341 3275 1631 3429 
Q 1922 3584 2338 3584 
Q 2397 3584 2469 3576 
Q 2541 3569 2628 3553 
L 2631 2963 
z
" transform="scale(0.015625)"/>
       <path id="DejaVuSans-61" d="M 2194 1759 
Q 1497 1759 1228 1600 
Q 959 1441 959 1056 
Q 959 750 1161 570 
Q 1363 391 1709 391 
Q 2188 391 2477 730 
Q 2766 1069 2766 1631 
L 2766 1759 
L 2194 1759 
z
M 3341 1997 
L 3341 0 
L 2766 0 
L 2766 531 
Q 2569 213 2275 61 
Q 1981 -91 1556 -91 
Q 1019 -91 701 211 
Q 384 513 384 1019 
Q 384 1609 779 1909 
Q 1175 2209 1959 2209 
L 2766 2209 
L 2766 2266 
Q 2766 2663 2505 2880 
Q 2244 3097 1772 3097 
Q 1472 3097 1187 3025 
Q 903 2953 641 2809 
L 641 3341 
Q 956 3463 1253 3523 
Q 1550 3584 1831 3584 
Q 2591 3584 2966 3190 
Q 3341 2797 3341 1997 
z
" transform="scale(0.015625)"/>
       <path id="DejaVuSans-63" d="M 3122 3366 
L 3122 2828 
Q 2878 2963 2633 3030 
Q 2388 3097 2138 3097 
Q 1578 3097 1268 2742 
Q 959 2388 959 1747 
Q 959 1106 1268 751 
Q 1578 397 2138 397 
Q 2388 397 2633 464 
Q 2878 531 3122 666 
L 3122 134 
Q 2881 22 2623 -34 
Q 2366 -91 2075 -91 
Q 1284 -91 818 406 
Q 353 903 353 1747 
Q 353 2603 823 3093 
Q 1294 3584 2113 3584 
Q 2378 3584 2631 3529 
Q 2884 3475 3122 3366 
z
" transform="scale(0.015625)"/>
       <path id="DejaVuSans-74" d="M 1172 4494 
L 1172 3500 
L 2356 3500 
L 2356 3053 
L 1172 3053 
L 1172 1153 
Q 1172 725 1289 603 
Q 1406 481 1766 481 
L 2356 481 
L 2356 0 
L 1766 0 
Q 1100 0 847 248 
Q 594 497 594 1153 
L 594 3053 
L 172 3053 
L 172 3500 
L 594 3500 
L 594 4494 
L 1172 4494 
z
" transform="scale(0.015625)"/>
       <path id="DejaVuSans-69" d="M 603 3500 
L 1178 3500 
L 1178 0 
L 603 0 
L 603 3500 
z
M 603 4863 
L 1178 4863 
L 1178 4134 
L 603 4134 
L 603 4863 
z
" transform="scale(0.015625)"/>
       <path id="DejaVuSans-6f" d="M 1959 3097 
Q 1497 3097 1228 2736 
Q 959 2375 959 1747 
Q 959 1119 1226 758 
Q 1494 397 1959 397 
Q 2419 397 2687 759 
Q 2956 1122 2956 1747 
Q 2956 2369 2687 2733 
Q 2419 3097 1959 3097 
z
M 1959 3584 
Q 2709 3584 3137 3096 
Q 3566 2609 3566 1747 
Q 3566 888 3137 398 
Q 2709 -91 1959 -91 
Q 1206 -91 779 398 
Q 353 888 353 1747 
Q 353 2609 779 3096 
Q 1206 3584 1959 3584 
z
" transform="scale(0.015625)"/>
       <path id="DejaVuSans-6e" d="M 3513 2113 
L 3513 0 
L 2938 0 
L 2938 2094 
Q 2938 2591 2744 2837 
Q 2550 3084 2163 3084 
Q 1697 3084 1428 2787 
Q 1159 2491 1159 1978 
L 1159 0 
L 581 0 
L 581 3500 
L 1159 3500 
L 1159 2956 
Q 1366 3272 1645 3428 
Q 1925 3584 2291 3584 
Q 2894 3584 3203 3211 
Q 3513 2838 3513 2113 
z
" transform="scale(0.015625)"/>
       <path id="DejaVuSans-20" transform="scale(0.015625)"/>
       <path id="DejaVuSans-66" d="M 2375 4863 
L 2375 4384 
L 1825 4384 
Q 1516 4384 1395 4259 
Q 1275 4134 1275 3809 
L 1275 3500 
L 2222 3500 
L 2222 3053 
L 1275 3053 
L 1275 0 
L 697 0 
L 697 3053 
L 147 3053 
L 147 3500 
L 697 3500 
L 697 3744 
Q 697 4328 969 4595 
Q 1241 4863 1831 4863 
L 2375 4863 
z
" transform="scale(0.015625)"/>
       <path id="DejaVuSans-65" d="M 3597 1894 
L 3597 1613 
L 953 1613 
Q 991 1019 1311 708 
Q 1631 397 2203 397 
Q 2534 397 2845 478 
Q 3156 559 3463 722 
L 3463 178 
Q 3153 47 2828 -22 
Q 2503 -91 2169 -91 
Q 1331 -91 842 396 
Q 353 884 353 1716 
Q 353 2575 817 3079 
Q 1281 3584 2069 3584 
Q 2775 3584 3186 3129 
Q 3597 2675 3597 1894 
z
M 3022 2063 
Q 3016 2534 2758 2815 
Q 2500 3097 2075 3097 
Q 1594 3097 1305 2825 
Q 1016 2553 972 2059 
L 3022 2063 
z
" transform="scale(0.015625)"/>
       <path id="DejaVuSans-6c" d="M 603 4863 
L 1178 4863 
L 1178 0 
L 603 0 
L 603 4863 
z
" transform="scale(0.015625)"/>
       <path id="DejaVuSans-73" d="M 2834 3397 
L 2834 2853 
Q 2591 2978 2328 3040 
Q 2066 3103 1784 3103 
Q 1356 3103 1142 2972 
Q 928 2841 928 2578 
Q 928 2378 1081 2264 
Q 1234 2150 1697 2047 
L 1894 2003 
Q 2506 1872 2764 1633 
Q 3022 1394 3022 966 
Q 3022 478 2636 193 
Q 2250 -91 1575 -91 
Q 1294 -91 989 -36 
Q 684 19 347 128 
L 347 722 
Q 666 556 975 473 
Q 1284 391 1588 391 
Q 1994 391 2212 530 
Q 2431 669 2431 922 
Q 2431 1156 2273 1281 
Q 2116 1406 1581 1522 
L 1381 1569 
Q 847 1681 609 1914 
Q 372 2147 372 2553 
Q 372 3047 722 3315 
Q 1072 3584 1716 3584 
Q 2034 3584 2315 3537 
Q 2597 3491 2834 3397 
z
" transform="scale(0.015625)"/>
      </defs>
      <use xlink:href="#DejaVuSans-46"/>
      <use xlink:href="#DejaVuSans-72" x="50.269531"/>
      <use xlink:href="#DejaVuSans-61" x="91.382812"/>
      <use xlink:href="#DejaVuSans-63" x="152.662109"/>
      <use xlink:href="#DejaVuSans-74" x="207.642578"/>
      <use xlink:href="#DejaVuSans-69" x="246.851562"/>
      <use xlink:href="#DejaVuSans-6f" x="274.634766"/>
      <use xlink:href="#DejaVuSans-6e" x="335.816406"/>
      <use xlink:href="#DejaVuSans-20" x="399.195312"/>
      <use xlink:href="#DejaVuSans-6f" x="430.982422"/>
      <use xlink:href="#DejaVuSans-66" x="492.164062"/>
      <use xlink:href="#DejaVuSans-20" x="527.369141"/>
      <use xlink:href="#DejaVuSans-63" x="559.15625"/>
      <use xlink:href="#DejaVuSans-65" x="614.136719"/>
      <use xlink:href="#DejaVuSans-6c" x="675.660156"/>
      <use xlink:href="#DejaVuSans-6c" x="703.443359"/>
      <use xlink:href="#DejaVuSans-73" x="731.226562"/>
     </g>
    </g>
   </g>
   <g id="line2d_16">
    <path d="M -1 260.521875 
L 69.03206 260.438544 
L 76.231232 260.17453 
L 79.830818 259.876723 
L 83.430405 259.384006 
L 87.029991 258.597942 
L 88.829784 258.052418 
L 90.629577 257.375435 
L 92.42937 256.539231 
L 94.229163 255.51126 
L 96.028957 254.254117 
L 97.82875 252.725855 
L 99.628543 250.880787 
L 101.428336 248.670858 
L 103.228129 246.047643 
L 105.027922 242.964968 
L 106.827715 239.382143 
L 108.627508 235.26771 
L 110.427302 230.603553 
L 112.227095 225.38914 
L 114.026888 219.645564 
L 115.826681 213.418952 
L 119.426267 199.838435 
L 124.825647 178.543512 
L 126.62544 171.839353 
L 128.425233 165.619825 
L 130.225026 160.043818 
L 132.024819 155.246144 
L 133.824612 151.328409 
L 135.624405 148.352464 
L 137.424199 146.33721 
L 139.223992 145.259149 
L 141.023785 145.056577 
L 142.823578 145.636891 
L 144.623371 146.886062 
L 146.423164 148.679144 
L 148.222957 150.890565 
L 150.02275 153.403074 
L 153.622337 158.941617 
L 162.621302 173.185541 
L 166.220889 178.546565 
L 169.820475 183.559743 
L 173.420061 188.108806 
L 177.019647 192.131031 
L 180.619234 195.698524 
L 187.818406 202.464596 
L 191.417992 206.245137 
L 195.017579 210.486185 
L 200.416958 217.431347 
L 204.016544 222.0228 
L 207.616131 226.214057 
L 209.415924 228.091136 
L 211.215717 229.807155 
L 214.815303 232.778504 
L 218.414889 235.265744 
L 225.614062 239.673092 
L 240.012407 248.53522 
L 243.611993 250.321008 
L 247.211579 251.795413 
L 250.811166 252.981941 
L 254.410752 253.924237 
L 258.010338 254.655109 
L 261.609924 255.187737 
L 265.209511 255.530702 
L 270.60889 255.762814 
L 277.808063 255.95907 
L 281.407649 256.216636 
L 285.007235 256.648556 
L 288.606821 257.236199 
L 288.606821 257.236199 
" clip-path="url(#p6bc1551bb7)" style="fill: none; stroke: #1f77b4; stroke-width: 1.5; stroke-linecap: square"/>
   </g>
   <g id="line2d_17">
    <path d="M -1 260.521875 
L 123.025853 260.458285 
L 128.425233 260.209636 
L 132.024819 259.744248 
L 133.824612 259.346962 
L 135.624405 258.796592 
L 137.424199 258.058543 
L 139.223992 257.100522 
L 141.023785 255.896947 
L 142.823578 254.433792 
L 144.623371 252.713176 
L 146.423164 250.756848 
L 150.02275 246.32864 
L 153.622337 241.703787 
L 155.42213 239.530943 
L 157.221923 237.553069 
L 159.021716 235.819774 
L 160.821509 234.347526 
L 162.621302 233.113655 
L 169.820475 228.818045 
L 171.620268 227.26728 
L 173.420061 225.264329 
L 175.219854 222.711391 
L 177.019647 219.542496 
L 178.81944 215.724347 
L 180.619234 211.252947 
L 182.419027 206.147972 
L 184.21882 200.447292 
L 186.018613 194.203706 
L 189.618199 180.377552 
L 198.617165 143.830806 
L 200.416958 137.625276 
L 202.216751 132.260219 
L 204.016544 127.895874 
L 205.816337 124.639674 
L 207.616131 122.535151 
L 209.415924 121.55865 
L 211.215717 121.6246 
L 213.01551 122.59851 
L 214.815303 124.315534 
L 216.615096 126.601625 
L 218.414889 129.294049 
L 222.014476 135.400369 
L 225.614062 142.062514 
L 229.213648 149.359718 
L 231.013441 153.387068 
L 232.813234 157.75379 
L 234.613027 162.510052 
L 236.412821 167.682471 
L 238.212614 173.268606 
L 241.8122 185.517947 
L 250.811166 217.801883 
L 252.610959 223.468224 
L 254.410752 228.555394 
L 256.210545 232.969642 
L 258.010338 236.658901 
L 259.810131 239.620554 
L 261.609924 241.903577 
L 263.409717 243.603771 
L 265.209511 244.85219 
L 267.009304 245.798306 
L 272.408683 248.198264 
L 274.208476 249.163579 
L 277.808063 251.485244 
L 283.207442 255.290257 
L 285.007235 256.41496 
L 286.807028 257.396476 
L 288.606821 258.216985 
L 288.606821 258.216985 
" clip-path="url(#p6bc1551bb7)" style="fill: none; stroke: #ff7f0e; stroke-width: 1.5; stroke-linecap: square"/>
   </g>
   <g id="line2d_18">
    <path d="M -1 260.521875 
L 92.42937 260.422982 
L 97.82875 260.216267 
L 101.428336 259.933777 
L 105.027922 259.473556 
L 108.627508 258.787017 
L 112.227095 257.846914 
L 115.826681 256.657053 
L 119.426267 255.243231 
L 123.025853 253.618436 
L 126.62544 251.729956 
L 128.425233 250.640327 
L 130.225026 249.413017 
L 132.024819 248.008528 
L 133.824612 246.382514 
L 135.624405 244.488743 
L 137.424199 242.282672 
L 139.223992 239.725259 
L 141.023785 236.786587 
L 142.823578 233.448891 
L 144.623371 229.708608 
L 146.423164 225.577237 
L 148.222957 221.080928 
L 151.822544 211.161025 
L 155.42213 200.372067 
L 164.421095 172.879607 
L 168.020682 162.967087 
L 169.820475 158.485802 
L 171.620268 154.403648 
L 173.420061 150.782042 
L 175.219854 147.679884 
L 177.019647 145.151093 
L 178.81944 143.241956 
L 180.619234 141.988673 
L 182.419027 141.415415 
L 184.21882 141.533116 
L 186.018613 142.339035 
L 187.818406 143.816995 
L 189.618199 145.938095 
L 191.417992 148.661625 
L 193.217785 151.935998 
L 195.017579 155.699563 
L 196.817372 159.88133 
L 200.416958 169.173547 
L 207.616131 188.864753 
L 209.415924 193.456641 
L 211.215717 197.740562 
L 213.01551 201.647149 
L 214.815303 205.122389 
L 216.615096 208.129582 
L 218.414889 210.650408 
L 220.214682 212.68511 
L 222.014476 214.251908 
L 223.814269 215.385747 
L 225.614062 216.136514 
L 227.413855 216.566777 
L 229.213648 216.749098 
L 232.813234 216.690911 
L 236.412821 216.613342 
L 238.212614 216.753743 
L 240.012407 217.092534 
L 241.8122 217.670323 
L 243.611993 218.510416 
L 245.411786 219.618331 
L 247.211579 220.982801 
L 249.011372 222.578151 
L 252.610959 226.30839 
L 258.010338 232.589923 
L 263.409717 238.819765 
L 267.009304 242.6793 
L 270.60889 246.238514 
L 274.208476 249.464759 
L 277.808063 252.310262 
L 281.407649 254.716752 
L 285.007235 256.641708 
L 288.606821 258.083105 
L 288.606821 258.083105 
" clip-path="url(#p6bc1551bb7)" style="fill: none; stroke: #2ca02c; stroke-width: 1.5; stroke-linecap: square"/>
   </g>
   <g id="patch_63">
    <path d="M 41.711875 260.521875 
L 41.711875 57.594062 
" style="fill: none; stroke: #000000; stroke-width: 0.8; stroke-linejoin: miter; stroke-linecap: square"/>
   </g>
   <g id="patch_64">
    <path d="M 287.53125 260.521875 
L 287.53125 57.594062 
" style="fill: none; stroke: #000000; stroke-width: 0.8; stroke-linejoin: miter; stroke-linecap: square"/>
   </g>
   <g id="patch_65">
    <path d="M 41.711875 260.521875 
L 287.53125 260.521875 
" style="fill: none; stroke: #000000; stroke-width: 0.8; stroke-linejoin: miter; stroke-linecap: square"/>
   </g>
   <g id="patch_66">
    <path d="M 41.711875 57.594062 
L 287.53125 57.594062 
" style="fill: none; stroke: #000000; stroke-width: 0.8; stroke-linejoin: miter; stroke-linecap: square"/>
   </g>
   <g id="text_17">
    <!-- SRV -->
    <g transform="translate(150.910312 51.594062) scale(0.14 -0.14)">
     <defs>
      <path id="DejaVuSans-53" d="M 3425 4513 
L 3425 3897 
Q 3066 4069 2747 4153 
Q 2428 4238 2131 4238 
Q 1616 4238 1336 4038 
Q 1056 3838 1056 3469 
Q 1056 3159 1242 3001 
Q 1428 2844 1947 2747 
L 2328 2669 
Q 3034 2534 3370 2195 
Q 3706 1856 3706 1288 
Q 3706 609 3251 259 
Q 2797 -91 1919 -91 
Q 1588 -91 1214 -16 
Q 841 59 441 206 
L 441 856 
Q 825 641 1194 531 
Q 1563 422 1919 422 
Q 2459 422 2753 634 
Q 3047 847 3047 1241 
Q 3047 1584 2836 1778 
Q 2625 1972 2144 2069 
L 1759 2144 
Q 1053 2284 737 2584 
Q 422 2884 422 3419 
Q 422 4038 858 4394 
Q 1294 4750 2059 4750 
Q 2388 4750 2728 4690 
Q 3069 4631 3425 4513 
z
" transform="scale(0.015625)"/>
      <path id="DejaVuSans-52" d="M 2841 2188 
Q 3044 2119 3236 1894 
Q 3428 1669 3622 1275 
L 4263 0 
L 3584 0 
L 2988 1197 
Q 2756 1666 2539 1819 
Q 2322 1972 1947 1972 
L 1259 1972 
L 1259 0 
L 628 0 
L 628 4666 
L 2053 4666 
Q 2853 4666 3247 4331 
Q 3641 3997 3641 3322 
Q 3641 2881 3436 2590 
Q 3231 2300 2841 2188 
z
M 1259 4147 
L 1259 2491 
L 2053 2491 
Q 2509 2491 2742 2702 
Q 2975 2913 2975 3322 
Q 2975 3731 2742 3939 
Q 2509 4147 2053 4147 
L 1259 4147 
z
" transform="scale(0.015625)"/>
      <path id="DejaVuSans-56" d="M 1831 0 
L 50 4666 
L 709 4666 
L 2188 738 
L 3669 4666 
L 4325 4666 
L 2547 0 
L 1831 0 
z
" transform="scale(0.015625)"/>
     </defs>
     <use xlink:href="#DejaVuSans-53"/>
     <use xlink:href="#DejaVuSans-52" x="63.476562"/>
     <use xlink:href="#DejaVuSans-56" x="127.458984"/>
    </g>
   </g>
   <g id="legend_1">
    <g id="patch_67">
     <path d="M 50.111875 120.035312 
L 130.10125 120.035312 
Q 132.50125 120.035312 132.50125 117.635312 
L 132.50125 65.994062 
Q 132.50125 63.594062 130.10125 63.594062 
L 50.111875 63.594062 
Q 47.711875 63.594062 47.711875 65.994062 
L 47.711875 117.635312 
Q 47.711875 120.035312 50.111875 120.035312 
z
" style="fill: #ffffff; opacity: 0.8; stroke: #cccccc; stroke-linejoin: miter"/>
    </g>
    <g id="patch_68">
     <path d="M 52.511875 77.512187 
L 76.511875 77.512187 
L 76.511875 69.112187 
L 52.511875 69.112187 
z
" style="fill: #1f77b4; opacity: 0.4"/>
    </g>
    <g id="text_18">
     <!-- control -->
     <g transform="translate(86.111875 77.512187) scale(0.12 -0.12)">
      <use xlink:href="#DejaVuSans-63"/>
      <use xlink:href="#DejaVuSans-6f" x="54.980469"/>
      <use xlink:href="#DejaVuSans-6e" x="116.162109"/>
      <use xlink:href="#DejaVuSans-74" x="179.541016"/>
      <use xlink:href="#DejaVuSans-72" x="218.75"/>
      <use xlink:href="#DejaVuSans-6f" x="257.613281"/>
      <use xlink:href="#DejaVuSans-6c" x="318.794922"/>
     </g>
    </g>
    <g id="patch_69">
     <path d="M 52.511875 95.125937 
L 76.511875 95.125937 
L 76.511875 86.725937 
L 52.511875 86.725937 
z
" style="fill: #ff7f0e; opacity: 0.4"/>
    </g>
    <g id="text_19">
     <!-- cytd -->
     <g transform="translate(86.111875 95.125937) scale(0.12 -0.12)">
      <defs>
       <path id="DejaVuSans-79" d="M 2059 -325 
Q 1816 -950 1584 -1140 
Q 1353 -1331 966 -1331 
L 506 -1331 
L 506 -850 
L 844 -850 
Q 1081 -850 1212 -737 
Q 1344 -625 1503 -206 
L 1606 56 
L 191 3500 
L 800 3500 
L 1894 763 
L 2988 3500 
L 3597 3500 
L 2059 -325 
z
" transform="scale(0.015625)"/>
       <path id="DejaVuSans-64" d="M 2906 2969 
L 2906 4863 
L 3481 4863 
L 3481 0 
L 2906 0 
L 2906 525 
Q 2725 213 2448 61 
Q 2172 -91 1784 -91 
Q 1150 -91 751 415 
Q 353 922 353 1747 
Q 353 2572 751 3078 
Q 1150 3584 1784 3584 
Q 2172 3584 2448 3432 
Q 2725 3281 2906 2969 
z
M 947 1747 
Q 947 1113 1208 752 
Q 1469 391 1925 391 
Q 2381 391 2643 752 
Q 2906 1113 2906 1747 
Q 2906 2381 2643 2742 
Q 2381 3103 1925 3103 
Q 1469 3103 1208 2742 
Q 947 2381 947 1747 
z
" transform="scale(0.015625)"/>
      </defs>
      <use xlink:href="#DejaVuSans-63"/>
      <use xlink:href="#DejaVuSans-79" x="54.980469"/>
      <use xlink:href="#DejaVuSans-74" x="114.160156"/>
      <use xlink:href="#DejaVuSans-64" x="153.369141"/>
     </g>
    </g>
    <g id="patch_70">
     <path d="M 52.511875 112.739687 
L 76.511875 112.739687 
L 76.511875 104.339687 
L 52.511875 104.339687 
z
" style="fill: #2ca02c; opacity: 0.4"/>
    </g>
    <g id="text_20">
     <!-- jasp -->
     <g transform="translate(86.111875 112.739687) scale(0.12 -0.12)">
      <defs>
       <path id="DejaVuSans-6a" d="M 603 3500 
L 1178 3500 
L 1178 -63 
Q 1178 -731 923 -1031 
Q 669 -1331 103 -1331 
L -116 -1331 
L -116 -844 
L 38 -844 
Q 366 -844 484 -692 
Q 603 -541 603 -63 
L 603 3500 
z
M 603 4863 
L 1178 4863 
L 1178 4134 
L 603 4134 
L 603 4863 
z
" transform="scale(0.015625)"/>
       <path id="DejaVuSans-70" d="M 1159 525 
L 1159 -1331 
L 581 -1331 
L 581 3500 
L 1159 3500 
L 1159 2969 
Q 1341 3281 1617 3432 
Q 1894 3584 2278 3584 
Q 2916 3584 3314 3078 
Q 3713 2572 3713 1747 
Q 3713 922 3314 415 
Q 2916 -91 2278 -91 
Q 1894 -91 1617 61 
Q 1341 213 1159 525 
z
M 3116 1747 
Q 3116 2381 2855 2742 
Q 2594 3103 2138 3103 
Q 1681 3103 1420 2742 
Q 1159 2381 1159 1747 
Q 1159 1113 1420 752 
Q 1681 391 2138 391 
Q 2594 391 2855 752 
Q 3116 1113 3116 1747 
z
" transform="scale(0.015625)"/>
      </defs>
      <use xlink:href="#DejaVuSans-6a"/>
      <use xlink:href="#DejaVuSans-61" x="27.783203"/>
      <use xlink:href="#DejaVuSans-73" x="89.0625"/>
      <use xlink:href="#DejaVuSans-70" x="141.162109"/>
     </g>
    </g>
   </g>
  </g>
  <g id="axes_2">
   <g id="patch_71">
    <path d="M 319.380625 260.521875 
L 565.2 260.521875 
L 565.2 57.594062 
L 319.380625 57.594062 
z
" style="fill: #ffffff"/>
   </g>
   <g id="patch_72">
    <path d="M 323.632872 260.521875 
L 332.692258 260.521875 
L 332.692258 256.990802 
L 323.632872 256.990802 
z
" clip-path="url(#p92d5b7c0c1)" style="fill: #1f77b4; opacity: 0.4"/>
   </g>
   <g id="patch_73">
    <path d="M 332.692258 260.521875 
L 341.751644 260.521875 
L 341.751644 258.756339 
L 332.692258 258.756339 
z
" clip-path="url(#p92d5b7c0c1)" style="fill: #1f77b4; opacity: 0.4"/>
   </g>
   <g id="patch_74">
    <path d="M 341.751644 260.521875 
L 350.81103 260.521875 
L 350.81103 253.45973 
L 341.751644 253.45973 
z
" clip-path="url(#p92d5b7c0c1)" style="fill: #1f77b4; opacity: 0.4"/>
   </g>
   <g id="patch_75">
    <path d="M 350.81103 260.521875 
L 359.870416 260.521875 
L 359.870416 255.225266 
L 350.81103 255.225266 
z
" clip-path="url(#p92d5b7c0c1)" style="fill: #1f77b4; opacity: 0.4"/>
   </g>
   <g id="patch_76">
    <path d="M 359.870416 260.521875 
L 368.929802 260.521875 
L 368.929802 253.45973 
L 359.870416 253.45973 
z
" clip-path="url(#p92d5b7c0c1)" style="fill: #1f77b4; opacity: 0.4"/>
   </g>
   <g id="patch_77">
    <path d="M 368.929802 260.521875 
L 377.989188 260.521875 
L 377.989188 246.397585 
L 368.929802 246.397585 
z
" clip-path="url(#p92d5b7c0c1)" style="fill: #1f77b4; opacity: 0.4"/>
   </g>
   <g id="patch_78">
    <path d="M 377.989188 260.521875 
L 387.048574 260.521875 
L 387.048574 246.397585 
L 377.989188 246.397585 
z
" clip-path="url(#p92d5b7c0c1)" style="fill: #1f77b4; opacity: 0.4"/>
   </g>
   <g id="patch_79">
    <path d="M 387.048574 260.521875 
L 396.10796 260.521875 
L 396.10796 228.742222 
L 387.048574 228.742222 
z
" clip-path="url(#p92d5b7c0c1)" style="fill: #1f77b4; opacity: 0.4"/>
   </g>
   <g id="patch_80">
    <path d="M 396.10796 260.521875 
L 405.167346 260.521875 
L 405.167346 239.33544 
L 396.10796 239.33544 
z
" clip-path="url(#p92d5b7c0c1)" style="fill: #1f77b4; opacity: 0.4"/>
   </g>
   <g id="patch_81">
    <path d="M 405.167346 260.521875 
L 414.226731 260.521875 
L 414.226731 223.445613 
L 405.167346 223.445613 
z
" clip-path="url(#p92d5b7c0c1)" style="fill: #1f77b4; opacity: 0.4"/>
   </g>
   <g id="patch_82">
    <path d="M 414.226731 260.521875 
L 423.286117 260.521875 
L 423.286117 226.976686 
L 414.226731 226.976686 
z
" clip-path="url(#p92d5b7c0c1)" style="fill: #1f77b4; opacity: 0.4"/>
   </g>
   <g id="patch_83">
    <path d="M 423.286117 260.521875 
L 432.345503 260.521875 
L 432.345503 235.804367 
L 423.286117 235.804367 
z
" clip-path="url(#p92d5b7c0c1)" style="fill: #1f77b4; opacity: 0.4"/>
   </g>
   <g id="patch_84">
    <path d="M 432.345503 260.521875 
L 441.404889 260.521875 
L 441.404889 228.742222 
L 432.345503 228.742222 
z
" clip-path="url(#p92d5b7c0c1)" style="fill: #1f77b4; opacity: 0.4"/>
   </g>
   <g id="patch_85">
    <path d="M 441.404889 260.521875 
L 450.464275 260.521875 
L 450.464275 218.149005 
L 441.404889 218.149005 
z
" clip-path="url(#p92d5b7c0c1)" style="fill: #1f77b4; opacity: 0.4"/>
   </g>
   <g id="patch_86">
    <path d="M 450.464275 260.521875 
L 459.523661 260.521875 
L 459.523661 226.976686 
L 450.464275 226.976686 
z
" clip-path="url(#p92d5b7c0c1)" style="fill: #1f77b4; opacity: 0.4"/>
   </g>
   <g id="patch_87">
    <path d="M 459.523661 260.521875 
L 468.583047 260.521875 
L 468.583047 248.163121 
L 459.523661 248.163121 
z
" clip-path="url(#p92d5b7c0c1)" style="fill: #1f77b4; opacity: 0.4"/>
   </g>
   <g id="patch_88">
    <path d="M 468.583047 260.521875 
L 477.642433 260.521875 
L 477.642433 244.632049 
L 468.583047 244.632049 
z
" clip-path="url(#p92d5b7c0c1)" style="fill: #1f77b4; opacity: 0.4"/>
   </g>
   <g id="patch_89">
    <path d="M 477.642433 260.521875 
L 486.701819 260.521875 
L 486.701819 246.397585 
L 477.642433 246.397585 
z
" clip-path="url(#p92d5b7c0c1)" style="fill: #1f77b4; opacity: 0.4"/>
   </g>
   <g id="patch_90">
    <path d="M 486.701819 260.521875 
L 495.761205 260.521875 
L 495.761205 256.990802 
L 486.701819 256.990802 
z
" clip-path="url(#p92d5b7c0c1)" style="fill: #1f77b4; opacity: 0.4"/>
   </g>
   <g id="patch_91">
    <path d="M 495.761205 260.521875 
L 504.820591 260.521875 
L 504.820591 258.756339 
L 495.761205 258.756339 
z
" clip-path="url(#p92d5b7c0c1)" style="fill: #1f77b4; opacity: 0.4"/>
   </g>
   <g id="patch_92">
    <path d="M 320.483666 260.521875 
L 331.314859 260.521875 
L 331.314859 241.276836 
L 320.483666 241.276836 
z
" clip-path="url(#p92d5b7c0c1)" style="fill: #ff7f0e; opacity: 0.4"/>
   </g>
   <g id="patch_93">
    <path d="M 331.314859 260.521875 
L 342.146052 260.521875 
L 342.146052 254.106862 
L 331.314859 254.106862 
z
" clip-path="url(#p92d5b7c0c1)" style="fill: #ff7f0e; opacity: 0.4"/>
   </g>
   <g id="patch_94">
    <path d="M 342.146052 260.521875 
L 352.977244 260.521875 
L 352.977244 222.031797 
L 342.146052 222.031797 
z
" clip-path="url(#p92d5b7c0c1)" style="fill: #ff7f0e; opacity: 0.4"/>
   </g>
   <g id="patch_95">
    <path d="M 352.977244 260.521875 
L 363.808437 260.521875 
L 363.808437 228.44681 
L 352.977244 228.44681 
z
" clip-path="url(#p92d5b7c0c1)" style="fill: #ff7f0e; opacity: 0.4"/>
   </g>
   <g id="patch_96">
    <path d="M 363.808437 260.521875 
L 374.639629 260.521875 
L 374.639629 209.201771 
L 363.808437 209.201771 
z
" clip-path="url(#p92d5b7c0c1)" style="fill: #ff7f0e; opacity: 0.4"/>
   </g>
   <g id="patch_97">
    <path d="M 374.639629 260.521875 
L 385.470822 260.521875 
L 385.470822 225.239303 
L 374.639629 225.239303 
z
" clip-path="url(#p92d5b7c0c1)" style="fill: #ff7f0e; opacity: 0.4"/>
   </g>
   <g id="patch_98">
    <path d="M 385.470822 260.521875 
L 396.302015 260.521875 
L 396.302015 222.031797 
L 385.470822 222.031797 
z
" clip-path="url(#p92d5b7c0c1)" style="fill: #ff7f0e; opacity: 0.4"/>
   </g>
   <g id="patch_99">
    <path d="M 396.302015 260.521875 
L 407.133207 260.521875 
L 407.133207 228.44681 
L 396.302015 228.44681 
z
" clip-path="url(#p92d5b7c0c1)" style="fill: #ff7f0e; opacity: 0.4"/>
   </g>
   <g id="patch_100">
    <path d="M 407.133207 260.521875 
L 417.9644 260.521875 
L 417.9644 250.899355 
L 407.133207 250.899355 
z
" clip-path="url(#p92d5b7c0c1)" style="fill: #ff7f0e; opacity: 0.4"/>
   </g>
   <g id="patch_101">
    <path d="M 417.9644 260.521875 
L 428.795592 260.521875 
L 428.795592 247.691849 
L 417.9644 247.691849 
z
" clip-path="url(#p92d5b7c0c1)" style="fill: #ff7f0e; opacity: 0.4"/>
   </g>
   <g id="patch_102">
    <path d="M 428.795592 260.521875 
L 439.626785 260.521875 
L 439.626785 257.314368 
L 428.795592 257.314368 
z
" clip-path="url(#p92d5b7c0c1)" style="fill: #ff7f0e; opacity: 0.4"/>
   </g>
   <g id="patch_103">
    <path d="M 439.626785 260.521875 
L 450.457978 260.521875 
L 450.457978 254.106862 
L 439.626785 254.106862 
z
" clip-path="url(#p92d5b7c0c1)" style="fill: #ff7f0e; opacity: 0.4"/>
   </g>
   <g id="patch_104">
    <path d="M 450.457978 260.521875 
L 461.28917 260.521875 
L 461.28917 254.106862 
L 450.457978 254.106862 
z
" clip-path="url(#p92d5b7c0c1)" style="fill: #ff7f0e; opacity: 0.4"/>
   </g>
   <g id="patch_105">
    <path d="M 461.28917 260.521875 
L 472.120363 260.521875 
L 472.120363 260.521875 
L 461.28917 260.521875 
z
" clip-path="url(#p92d5b7c0c1)" style="fill: #ff7f0e; opacity: 0.4"/>
   </g>
   <g id="patch_106">
    <path d="M 472.120363 260.521875 
L 482.951555 260.521875 
L 482.951555 257.314368 
L 472.120363 257.314368 
z
" clip-path="url(#p92d5b7c0c1)" style="fill: #ff7f0e; opacity: 0.4"/>
   </g>
   <g id="patch_107">
    <path d="M 482.951555 260.521875 
L 493.782748 260.521875 
L 493.782748 260.521875 
L 482.951555 260.521875 
z
" clip-path="url(#p92d5b7c0c1)" style="fill: #ff7f0e; opacity: 0.4"/>
   </g>
   <g id="patch_108">
    <path d="M 493.782748 260.521875 
L 504.61394 260.521875 
L 504.61394 260.521875 
L 493.782748 260.521875 
z
" clip-path="url(#p92d5b7c0c1)" style="fill: #ff7f0e; opacity: 0.4"/>
   </g>
   <g id="patch_109">
    <path d="M 504.61394 260.521875 
L 515.445133 260.521875 
L 515.445133 260.521875 
L 504.61394 260.521875 
z
" clip-path="url(#p92d5b7c0c1)" style="fill: #ff7f0e; opacity: 0.4"/>
   </g>
   <g id="patch_110">
    <path d="M 515.445133 260.521875 
L 526.276326 260.521875 
L 526.276326 260.521875 
L 515.445133 260.521875 
z
" clip-path="url(#p92d5b7c0c1)" style="fill: #ff7f0e; opacity: 0.4"/>
   </g>
   <g id="patch_111">
    <path d="M 526.276326 260.521875 
L 537.107518 260.521875 
L 537.107518 257.314368 
L 526.276326 257.314368 
z
" clip-path="url(#p92d5b7c0c1)" style="fill: #ff7f0e; opacity: 0.4"/>
   </g>
   <g id="patch_112">
    <path d="M 319.380625 260.521875 
L 329.118583 260.521875 
L 329.118583 253.536894 
L 319.380625 253.536894 
z
" clip-path="url(#p92d5b7c0c1)" style="fill: #2ca02c; opacity: 0.4"/>
   </g>
   <g id="patch_113">
    <path d="M 329.118583 260.521875 
L 338.856541 260.521875 
L 338.856541 260.521875 
L 329.118583 260.521875 
z
" clip-path="url(#p92d5b7c0c1)" style="fill: #2ca02c; opacity: 0.4"/>
   </g>
   <g id="patch_114">
    <path d="M 338.856541 260.521875 
L 348.5945 260.521875 
L 348.5945 243.059421 
L 338.856541 243.059421 
z
" clip-path="url(#p92d5b7c0c1)" style="fill: #2ca02c; opacity: 0.4"/>
   </g>
   <g id="patch_115">
    <path d="M 348.5945 260.521875 
L 358.332458 260.521875 
L 358.332458 246.551912 
L 348.5945 246.551912 
z
" clip-path="url(#p92d5b7c0c1)" style="fill: #2ca02c; opacity: 0.4"/>
   </g>
   <g id="patch_116">
    <path d="M 358.332458 260.521875 
L 368.070416 260.521875 
L 368.070416 243.059421 
L 358.332458 243.059421 
z
" clip-path="url(#p92d5b7c0c1)" style="fill: #2ca02c; opacity: 0.4"/>
   </g>
   <g id="patch_117">
    <path d="M 368.070416 260.521875 
L 377.808374 260.521875 
L 377.808374 246.551912 
L 368.070416 246.551912 
z
" clip-path="url(#p92d5b7c0c1)" style="fill: #2ca02c; opacity: 0.4"/>
   </g>
   <g id="patch_118">
    <path d="M 377.808374 260.521875 
L 387.546332 260.521875 
L 387.546332 215.119495 
L 377.808374 215.119495 
z
" clip-path="url(#p92d5b7c0c1)" style="fill: #2ca02c; opacity: 0.4"/>
   </g>
   <g id="patch_119">
    <path d="M 387.546332 260.521875 
L 397.28429 260.521875 
L 397.28429 201.149532 
L 387.546332 201.149532 
z
" clip-path="url(#p92d5b7c0c1)" style="fill: #2ca02c; opacity: 0.4"/>
   </g>
   <g id="patch_120">
    <path d="M 397.28429 260.521875 
L 407.022249 260.521875 
L 407.022249 222.104477 
L 397.28429 222.104477 
z
" clip-path="url(#p92d5b7c0c1)" style="fill: #2ca02c; opacity: 0.4"/>
   </g>
   <g id="patch_121">
    <path d="M 407.022249 260.521875 
L 416.760207 260.521875 
L 416.760207 229.089458 
L 407.022249 229.089458 
z
" clip-path="url(#p92d5b7c0c1)" style="fill: #2ca02c; opacity: 0.4"/>
   </g>
   <g id="patch_122">
    <path d="M 416.760207 260.521875 
L 426.498165 260.521875 
L 426.498165 246.551912 
L 416.760207 246.551912 
z
" clip-path="url(#p92d5b7c0c1)" style="fill: #2ca02c; opacity: 0.4"/>
   </g>
   <g id="patch_123">
    <path d="M 426.498165 260.521875 
L 436.236123 260.521875 
L 436.236123 232.581949 
L 426.498165 232.581949 
z
" clip-path="url(#p92d5b7c0c1)" style="fill: #2ca02c; opacity: 0.4"/>
   </g>
   <g id="patch_124">
    <path d="M 436.236123 260.521875 
L 445.974081 260.521875 
L 445.974081 246.551912 
L 436.236123 246.551912 
z
" clip-path="url(#p92d5b7c0c1)" style="fill: #2ca02c; opacity: 0.4"/>
   </g>
   <g id="patch_125">
    <path d="M 445.974081 260.521875 
L 455.71204 260.521875 
L 455.71204 250.044403 
L 445.974081 250.044403 
z
" clip-path="url(#p92d5b7c0c1)" style="fill: #2ca02c; opacity: 0.4"/>
   </g>
   <g id="patch_126">
    <path d="M 455.71204 260.521875 
L 465.449998 260.521875 
L 465.449998 250.044403 
L 455.71204 250.044403 
z
" clip-path="url(#p92d5b7c0c1)" style="fill: #2ca02c; opacity: 0.4"/>
   </g>
   <g id="patch_127">
    <path d="M 465.449998 260.521875 
L 475.187956 260.521875 
L 475.187956 257.029384 
L 465.449998 257.029384 
z
" clip-path="url(#p92d5b7c0c1)" style="fill: #2ca02c; opacity: 0.4"/>
   </g>
   <g id="patch_128">
    <path d="M 475.187956 260.521875 
L 484.925914 260.521875 
L 484.925914 260.521875 
L 475.187956 260.521875 
z
" clip-path="url(#p92d5b7c0c1)" style="fill: #2ca02c; opacity: 0.4"/>
   </g>
   <g id="patch_129">
    <path d="M 484.925914 260.521875 
L 494.663872 260.521875 
L 494.663872 257.029384 
L 484.925914 257.029384 
z
" clip-path="url(#p92d5b7c0c1)" style="fill: #2ca02c; opacity: 0.4"/>
   </g>
   <g id="patch_130">
    <path d="M 494.663872 260.521875 
L 504.401831 260.521875 
L 504.401831 260.521875 
L 494.663872 260.521875 
z
" clip-path="url(#p92d5b7c0c1)" style="fill: #2ca02c; opacity: 0.4"/>
   </g>
   <g id="patch_131">
    <path d="M 504.401831 260.521875 
L 514.139789 260.521875 
L 514.139789 257.029384 
L 504.401831 257.029384 
z
" clip-path="url(#p92d5b7c0c1)" style="fill: #2ca02c; opacity: 0.4"/>
   </g>
   <g id="matplotlib.axis_3">
    <g id="xtick_7">
     <g id="line2d_19">
      <g>
       <use xlink:href="#m62e48f1cd1" x="323.479241" y="260.521875" style="stroke: #000000; stroke-width: 0.8"/>
      </g>
     </g>
     <g id="text_21">
      <!-- 1.00 -->
      <g transform="translate(312.346429 275.120313) scale(0.1 -0.1)">
       <use xlink:href="#DejaVuSans-31"/>
       <use xlink:href="#DejaVuSans-2e" x="63.623047"/>
       <use xlink:href="#DejaVuSans-30" x="95.410156"/>
       <use xlink:href="#DejaVuSans-30" x="159.033203"/>
      </g>
     </g>
    </g>
    <g id="xtick_8">
     <g id="line2d_20">
      <g>
       <use xlink:href="#m62e48f1cd1" x="356.406585" y="260.521875" style="stroke: #000000; stroke-width: 0.8"/>
      </g>
     </g>
     <g id="text_22">
      <!-- 1.25 -->
      <g transform="translate(345.273772 275.120313) scale(0.1 -0.1)">
       <use xlink:href="#DejaVuSans-31"/>
       <use xlink:href="#DejaVuSans-2e" x="63.623047"/>
       <use xlink:href="#DejaVuSans-32" x="95.410156"/>
       <use xlink:href="#DejaVuSans-35" x="159.033203"/>
      </g>
     </g>
    </g>
    <g id="xtick_9">
     <g id="line2d_21">
      <g>
       <use xlink:href="#m62e48f1cd1" x="389.333928" y="260.521875" style="stroke: #000000; stroke-width: 0.8"/>
      </g>
     </g>
     <g id="text_23">
      <!-- 1.50 -->
      <g transform="translate(378.201116 275.120313) scale(0.1 -0.1)">
       <use xlink:href="#DejaVuSans-31"/>
       <use xlink:href="#DejaVuSans-2e" x="63.623047"/>
       <use xlink:href="#DejaVuSans-35" x="95.410156"/>
       <use xlink:href="#DejaVuSans-30" x="159.033203"/>
      </g>
     </g>
    </g>
    <g id="xtick_10">
     <g id="line2d_22">
      <g>
       <use xlink:href="#m62e48f1cd1" x="422.261272" y="260.521875" style="stroke: #000000; stroke-width: 0.8"/>
      </g>
     </g>
     <g id="text_24">
      <!-- 1.75 -->
      <g transform="translate(411.128459 275.120313) scale(0.1 -0.1)">
       <use xlink:href="#DejaVuSans-31"/>
       <use xlink:href="#DejaVuSans-2e" x="63.623047"/>
       <use xlink:href="#DejaVuSans-37" x="95.410156"/>
       <use xlink:href="#DejaVuSans-35" x="159.033203"/>
      </g>
     </g>
    </g>
    <g id="xtick_11">
     <g id="line2d_23">
      <g>
       <use xlink:href="#m62e48f1cd1" x="455.188615" y="260.521875" style="stroke: #000000; stroke-width: 0.8"/>
      </g>
     </g>
     <g id="text_25">
      <!-- 2.00 -->
      <g transform="translate(444.055803 275.120313) scale(0.1 -0.1)">
       <use xlink:href="#DejaVuSans-32"/>
       <use xlink:href="#DejaVuSans-2e" x="63.623047"/>
       <use xlink:href="#DejaVuSans-30" x="95.410156"/>
       <use xlink:href="#DejaVuSans-30" x="159.033203"/>
      </g>
     </g>
    </g>
    <g id="xtick_12">
     <g id="line2d_24">
      <g>
       <use xlink:href="#m62e48f1cd1" x="488.115959" y="260.521875" style="stroke: #000000; stroke-width: 0.8"/>
      </g>
     </g>
     <g id="text_26">
      <!-- 2.25 -->
      <g transform="translate(476.983146 275.120313) scale(0.1 -0.1)">
       <use xlink:href="#DejaVuSans-32"/>
       <use xlink:href="#DejaVuSans-2e" x="63.623047"/>
       <use xlink:href="#DejaVuSans-32" x="95.410156"/>
       <use xlink:href="#DejaVuSans-35" x="159.033203"/>
      </g>
     </g>
    </g>
    <g id="xtick_13">
     <g id="line2d_25">
      <g>
       <use xlink:href="#m62e48f1cd1" x="521.043302" y="260.521875" style="stroke: #000000; stroke-width: 0.8"/>
      </g>
     </g>
     <g id="text_27">
      <!-- 2.50 -->
      <g transform="translate(509.91049 275.120313) scale(0.1 -0.1)">
       <use xlink:href="#DejaVuSans-32"/>
       <use xlink:href="#DejaVuSans-2e" x="63.623047"/>
       <use xlink:href="#DejaVuSans-35" x="95.410156"/>
       <use xlink:href="#DejaVuSans-30" x="159.033203"/>
      </g>
     </g>
    </g>
    <g id="xtick_14">
     <g id="line2d_26">
      <g>
       <use xlink:href="#m62e48f1cd1" x="553.970646" y="260.521875" style="stroke: #000000; stroke-width: 0.8"/>
      </g>
     </g>
     <g id="text_28">
      <!-- 2.75 -->
      <g transform="translate(542.837833 275.120313) scale(0.1 -0.1)">
       <use xlink:href="#DejaVuSans-32"/>
       <use xlink:href="#DejaVuSans-2e" x="63.623047"/>
       <use xlink:href="#DejaVuSans-37" x="95.410156"/>
       <use xlink:href="#DejaVuSans-35" x="159.033203"/>
      </g>
     </g>
    </g>
   </g>
   <g id="matplotlib.axis_4">
    <g id="ytick_10">
     <g id="line2d_27">
      <g>
       <use xlink:href="#m2b9030026d" x="319.380625" y="260.521875" style="stroke: #000000; stroke-width: 0.8"/>
      </g>
     </g>
    </g>
    <g id="ytick_11">
     <g id="line2d_28">
      <g>
       <use xlink:href="#m2b9030026d" x="319.380625" y="235.991167" style="stroke: #000000; stroke-width: 0.8"/>
      </g>
     </g>
    </g>
    <g id="ytick_12">
     <g id="line2d_29">
      <g>
       <use xlink:href="#m2b9030026d" x="319.380625" y="211.460458" style="stroke: #000000; stroke-width: 0.8"/>
      </g>
     </g>
    </g>
    <g id="ytick_13">
     <g id="line2d_30">
      <g>
       <use xlink:href="#m2b9030026d" x="319.380625" y="186.92975" style="stroke: #000000; stroke-width: 0.8"/>
      </g>
     </g>
    </g>
    <g id="ytick_14">
     <g id="line2d_31">
      <g>
       <use xlink:href="#m2b9030026d" x="319.380625" y="162.399042" style="stroke: #000000; stroke-width: 0.8"/>
      </g>
     </g>
    </g>
    <g id="ytick_15">
     <g id="line2d_32">
      <g>
       <use xlink:href="#m2b9030026d" x="319.380625" y="137.868334" style="stroke: #000000; stroke-width: 0.8"/>
      </g>
     </g>
    </g>
    <g id="ytick_16">
     <g id="line2d_33">
      <g>
       <use xlink:href="#m2b9030026d" x="319.380625" y="113.337625" style="stroke: #000000; stroke-width: 0.8"/>
      </g>
     </g>
    </g>
    <g id="ytick_17">
     <g id="line2d_34">
      <g>
       <use xlink:href="#m2b9030026d" x="319.380625" y="88.806917" style="stroke: #000000; stroke-width: 0.8"/>
      </g>
     </g>
    </g>
    <g id="ytick_18">
     <g id="line2d_35">
      <g>
       <use xlink:href="#m2b9030026d" x="319.380625" y="64.276209" style="stroke: #000000; stroke-width: 0.8"/>
      </g>
     </g>
    </g>
    <g id="text_29">
     <!-- Fraction of cells -->
     <g transform="translate(308.969062 213.889844) rotate(-90) scale(0.14 -0.14)">
      <use xlink:href="#DejaVuSans-46"/>
      <use xlink:href="#DejaVuSans-72" x="50.269531"/>
      <use xlink:href="#DejaVuSans-61" x="91.382812"/>
      <use xlink:href="#DejaVuSans-63" x="152.662109"/>
      <use xlink:href="#DejaVuSans-74" x="207.642578"/>
      <use xlink:href="#DejaVuSans-69" x="246.851562"/>
      <use xlink:href="#DejaVuSans-6f" x="274.634766"/>
      <use xlink:href="#DejaVuSans-6e" x="335.816406"/>
      <use xlink:href="#DejaVuSans-20" x="399.195312"/>
      <use xlink:href="#DejaVuSans-6f" x="430.982422"/>
      <use xlink:href="#DejaVuSans-66" x="492.164062"/>
      <use xlink:href="#DejaVuSans-20" x="527.369141"/>
      <use xlink:href="#DejaVuSans-63" x="559.15625"/>
      <use xlink:href="#DejaVuSans-65" x="614.136719"/>
      <use xlink:href="#DejaVuSans-6c" x="675.660156"/>
      <use xlink:href="#DejaVuSans-6c" x="703.443359"/>
      <use xlink:href="#DejaVuSans-73" x="731.226562"/>
     </g>
    </g>
   </g>
   <g id="line2d_36">
    <path d="M 191.769867 260.521875 
L 299.532082 260.426357 
L 307.514469 260.193124 
L 315.496855 259.697751 
L 323.479241 258.910545 
L 331.461627 257.858847 
L 341.43961 256.252301 
L 351.417593 254.422044 
L 355.408786 253.536112 
L 359.39998 252.472636 
L 363.391173 251.188321 
L 367.382366 249.671394 
L 371.373559 247.933815 
L 375.364752 246.001444 
L 381.351542 242.846009 
L 389.333928 238.645397 
L 393.325121 236.770671 
L 397.316315 235.098875 
L 403.303104 232.913363 
L 409.289894 231.061269 
L 413.281087 230.051229 
L 417.27228 229.255452 
L 421.263473 228.658107 
L 427.250263 228.001129 
L 433.237053 227.502317 
L 437.228246 227.33974 
L 441.219439 227.503379 
L 443.215036 227.774468 
L 445.210632 228.204759 
L 447.206229 228.811899 
L 449.201826 229.604393 
L 451.197422 230.579598 
L 453.193019 231.722893 
L 457.184212 234.40046 
L 465.166598 240.213071 
L 469.157791 242.801578 
L 473.148984 245.053454 
L 479.135774 248.030873 
L 493.10495 254.679612 
L 497.096143 256.286131 
L 501.087337 257.585182 
L 505.07853 258.559264 
L 509.069723 259.247647 
L 513.060916 259.715793 
L 519.047706 260.140438 
L 527.030092 260.40484 
L 539.003671 260.510947 
L 577 260.521875 
L 577 260.521875 
" clip-path="url(#p92d5b7c0c1)" style="fill: none; stroke: #1f77b4; stroke-width: 1.5; stroke-linecap: square"/>
   </g>
   <g id="line2d_37">
    <path d="M 191.769867 260.521875 
L 283.56731 260.426778 
L 289.554099 260.230794 
L 293.545293 259.961759 
L 297.536486 259.51823 
L 301.527679 258.843553 
L 305.518872 257.894482 
L 309.510065 256.654327 
L 313.501258 255.136806 
L 317.492451 253.374921 
L 321.483645 251.397672 
L 325.474838 249.207291 
L 329.466031 246.773276 
L 333.457224 244.051829 
L 337.448417 241.023685 
L 341.43961 237.730596 
L 351.417593 229.263078 
L 355.408786 226.310463 
L 357.404383 225.029389 
L 359.39998 223.906312 
L 361.395576 222.957571 
L 363.391173 222.195158 
L 365.386769 221.626254 
L 367.382366 221.252897 
L 369.377962 221.071896 
L 371.373559 221.07503 
L 373.369156 221.249618 
L 375.364752 221.579462 
L 377.360349 222.046127 
L 381.351542 223.314003 
L 385.342735 224.91765 
L 389.333928 226.770574 
L 393.325121 228.844985 
L 397.316315 231.149107 
L 401.307508 233.685814 
L 407.294297 237.826101 
L 415.276684 243.380893 
L 419.267877 245.870008 
L 423.25907 248.036301 
L 427.250263 249.847522 
L 431.241456 251.322474 
L 435.232649 252.515025 
L 439.223843 253.494257 
L 445.210632 254.705851 
L 453.193019 256.068045 
L 461.175405 257.240404 
L 469.157791 258.189757 
L 479.135774 259.090206 
L 489.113757 259.784986 
L 497.096143 260.16404 
L 505.07853 260.325284 
L 513.060916 260.257851 
L 523.038899 259.920521 
L 533.016882 259.584629 
L 539.003671 259.553802 
L 546.986058 259.755342 
L 564.946427 260.379311 
L 577 260.503053 
L 577 260.503053 
" clip-path="url(#p92d5b7c0c1)" style="fill: none; stroke: #ff7f0e; stroke-width: 1.5; stroke-linecap: square"/>
   </g>
   <g id="line2d_38">
    <path d="M 191.769867 260.521875 
L 287.558503 260.430338 
L 295.540889 260.202884 
L 301.527679 259.844305 
L 307.514469 259.267951 
L 313.501258 258.444839 
L 319.488048 257.336181 
L 323.479241 256.39956 
L 327.470434 255.272514 
L 331.461627 253.944683 
L 337.448417 251.642361 
L 351.417593 246.02575 
L 357.404383 243.577364 
L 361.395576 241.626262 
L 363.391173 240.485024 
L 365.386769 239.208557 
L 367.382366 237.786429 
L 371.373559 234.510226 
L 375.364752 230.777327 
L 381.351542 225.019416 
L 383.347138 223.283576 
L 385.342735 221.742791 
L 387.338332 220.454888 
L 389.333928 219.469515 
L 391.329525 218.824792 
L 393.325121 218.544732 
L 395.320718 218.63767 
L 397.316315 219.095801 
L 399.311911 219.895861 
L 401.307508 221.000847 
L 403.303104 222.362587 
L 407.294297 225.627344 
L 415.276684 232.667745 
L 419.267877 235.686467 
L 421.263473 236.978544 
L 423.25907 238.119568 
L 425.254667 239.116916 
L 429.24586 240.745969 
L 433.237053 242.038004 
L 445.210632 245.628893 
L 449.201826 247.069982 
L 455.188615 249.497784 
L 465.166598 253.676393 
L 469.157791 255.12419 
L 473.148984 256.331869 
L 477.140178 257.273923 
L 481.131371 257.965321 
L 485.122564 258.448771 
L 491.109354 258.895369 
L 499.09174 259.174932 
L 523.038899 259.689315 
L 539.003671 260.323944 
L 550.977251 260.492785 
L 577 260.52184 
L 577 260.52184 
" clip-path="url(#p92d5b7c0c1)" style="fill: none; stroke: #2ca02c; stroke-width: 1.5; stroke-linecap: square"/>
   </g>
   <g id="patch_132">
    <path d="M 319.380625 260.521875 
L 319.380625 57.594062 
" style="fill: none; stroke: #000000; stroke-width: 0.8; stroke-linejoin: miter; stroke-linecap: square"/>
   </g>
   <g id="patch_133">
    <path d="M 565.2 260.521875 
L 565.2 57.594062 
" style="fill: none; stroke: #000000; stroke-width: 0.8; stroke-linejoin: miter; stroke-linecap: square"/>
   </g>
   <g id="patch_134">
    <path d="M 319.380625 260.521875 
L 565.2 260.521875 
" style="fill: none; stroke: #000000; stroke-width: 0.8; stroke-linejoin: miter; stroke-linecap: square"/>
   </g>
   <g id="patch_135">
    <path d="M 319.380625 57.594062 
L 565.2 57.594062 
" style="fill: none; stroke: #000000; stroke-width: 0.8; stroke-linejoin: miter; stroke-linecap: square"/>
   </g>
   <g id="text_30">
    <!-- Linear -->
    <g transform="translate(420.534531 51.594062) scale(0.14 -0.14)">
     <defs>
      <path id="DejaVuSans-4c" d="M 628 4666 
L 1259 4666 
L 1259 531 
L 3531 531 
L 3531 0 
L 628 0 
L 628 4666 
z
" transform="scale(0.015625)"/>
     </defs>
     <use xlink:href="#DejaVuSans-4c"/>
     <use xlink:href="#DejaVuSans-69" x="55.712891"/>
     <use xlink:href="#DejaVuSans-6e" x="83.496094"/>
     <use xlink:href="#DejaVuSans-65" x="146.875"/>
     <use xlink:href="#DejaVuSans-61" x="208.398438"/>
     <use xlink:href="#DejaVuSans-72" x="269.677734"/>
    </g>
   </g>
   <g id="legend_2">
    <g id="patch_136">
     <path d="M 476.810625 120.035312 
L 556.8 120.035312 
Q 559.2 120.035312 559.2 117.635312 
L 559.2 65.994062 
Q 559.2 63.594062 556.8 63.594062 
L 476.810625 63.594062 
Q 474.410625 63.594062 474.410625 65.994062 
L 474.410625 117.635312 
Q 474.410625 120.035312 476.810625 120.035312 
z
" style="fill: #ffffff; opacity: 0.8; stroke: #cccccc; stroke-linejoin: miter"/>
    </g>
    <g id="patch_137">
     <path d="M 479.210625 77.512187 
L 503.210625 77.512187 
L 503.210625 69.112187 
L 479.210625 69.112187 
z
" style="fill: #1f77b4; opacity: 0.4"/>
    </g>
    <g id="text_31">
     <!-- control -->
     <g transform="translate(512.810625 77.512187) scale(0.12 -0.12)">
      <use xlink:href="#DejaVuSans-63"/>
      <use xlink:href="#DejaVuSans-6f" x="54.980469"/>
      <use xlink:href="#DejaVuSans-6e" x="116.162109"/>
      <use xlink:href="#DejaVuSans-74" x="179.541016"/>
      <use xlink:href="#DejaVuSans-72" x="218.75"/>
      <use xlink:href="#DejaVuSans-6f" x="257.613281"/>
      <use xlink:href="#DejaVuSans-6c" x="318.794922"/>
     </g>
    </g>
    <g id="patch_138">
     <path d="M 479.210625 95.125937 
L 503.210625 95.125937 
L 503.210625 86.725937 
L 479.210625 86.725937 
z
" style="fill: #ff7f0e; opacity: 0.4"/>
    </g>
    <g id="text_32">
     <!-- cytd -->
     <g transform="translate(512.810625 95.125937) scale(0.12 -0.12)">
      <use xlink:href="#DejaVuSans-63"/>
      <use xlink:href="#DejaVuSans-79" x="54.980469"/>
      <use xlink:href="#DejaVuSans-74" x="114.160156"/>
      <use xlink:href="#DejaVuSans-64" x="153.369141"/>
     </g>
    </g>
    <g id="patch_139">
     <path d="M 479.210625 112.739687 
L 503.210625 112.739687 
L 503.210625 104.339687 
L 479.210625 104.339687 
z
" style="fill: #2ca02c; opacity: 0.4"/>
    </g>
    <g id="text_33">
     <!-- jasp -->
     <g transform="translate(512.810625 112.739687) scale(0.12 -0.12)">
      <use xlink:href="#DejaVuSans-6a"/>
      <use xlink:href="#DejaVuSans-61" x="27.783203"/>
      <use xlink:href="#DejaVuSans-73" x="89.0625"/>
      <use xlink:href="#DejaVuSans-70" x="141.162109"/>
     </g>
    </g>
   </g>
  </g>
  <g id="text_34">
   <!-- Histograms of SRV distances to global mean cell -->
   <g transform="translate(45.753125 20.956875) scale(0.2 -0.2)">
    <defs>
     <path id="DejaVuSans-48" d="M 628 4666 
L 1259 4666 
L 1259 2753 
L 3553 2753 
L 3553 4666 
L 4184 4666 
L 4184 0 
L 3553 0 
L 3553 2222 
L 1259 2222 
L 1259 0 
L 628 0 
L 628 4666 
z
" transform="scale(0.015625)"/>
     <path id="DejaVuSans-67" d="M 2906 1791 
Q 2906 2416 2648 2759 
Q 2391 3103 1925 3103 
Q 1463 3103 1205 2759 
Q 947 2416 947 1791 
Q 947 1169 1205 825 
Q 1463 481 1925 481 
Q 2391 481 2648 825 
Q 2906 1169 2906 1791 
z
M 3481 434 
Q 3481 -459 3084 -895 
Q 2688 -1331 1869 -1331 
Q 1566 -1331 1297 -1286 
Q 1028 -1241 775 -1147 
L 775 -588 
Q 1028 -725 1275 -790 
Q 1522 -856 1778 -856 
Q 2344 -856 2625 -561 
Q 2906 -266 2906 331 
L 2906 616 
Q 2728 306 2450 153 
Q 2172 0 1784 0 
Q 1141 0 747 490 
Q 353 981 353 1791 
Q 353 2603 747 3093 
Q 1141 3584 1784 3584 
Q 2172 3584 2450 3431 
Q 2728 3278 2906 2969 
L 2906 3500 
L 3481 3500 
L 3481 434 
z
" transform="scale(0.015625)"/>
     <path id="DejaVuSans-6d" d="M 3328 2828 
Q 3544 3216 3844 3400 
Q 4144 3584 4550 3584 
Q 5097 3584 5394 3201 
Q 5691 2819 5691 2113 
L 5691 0 
L 5113 0 
L 5113 2094 
Q 5113 2597 4934 2840 
Q 4756 3084 4391 3084 
Q 3944 3084 3684 2787 
Q 3425 2491 3425 1978 
L 3425 0 
L 2847 0 
L 2847 2094 
Q 2847 2600 2669 2842 
Q 2491 3084 2119 3084 
Q 1678 3084 1418 2786 
Q 1159 2488 1159 1978 
L 1159 0 
L 581 0 
L 581 3500 
L 1159 3500 
L 1159 2956 
Q 1356 3278 1631 3431 
Q 1906 3584 2284 3584 
Q 2666 3584 2933 3390 
Q 3200 3197 3328 2828 
z
" transform="scale(0.015625)"/>
     <path id="DejaVuSans-62" d="M 3116 1747 
Q 3116 2381 2855 2742 
Q 2594 3103 2138 3103 
Q 1681 3103 1420 2742 
Q 1159 2381 1159 1747 
Q 1159 1113 1420 752 
Q 1681 391 2138 391 
Q 2594 391 2855 752 
Q 3116 1113 3116 1747 
z
M 1159 2969 
Q 1341 3281 1617 3432 
Q 1894 3584 2278 3584 
Q 2916 3584 3314 3078 
Q 3713 2572 3713 1747 
Q 3713 922 3314 415 
Q 2916 -91 2278 -91 
Q 1894 -91 1617 61 
Q 1341 213 1159 525 
L 1159 0 
L 581 0 
L 581 4863 
L 1159 4863 
L 1159 2969 
z
" transform="scale(0.015625)"/>
    </defs>
    <use xlink:href="#DejaVuSans-48"/>
    <use xlink:href="#DejaVuSans-69" x="75.195312"/>
    <use xlink:href="#DejaVuSans-73" x="102.978516"/>
    <use xlink:href="#DejaVuSans-74" x="155.078125"/>
    <use xlink:href="#DejaVuSans-6f" x="194.287109"/>
    <use xlink:href="#DejaVuSans-67" x="255.46875"/>
    <use xlink:href="#DejaVuSans-72" x="318.945312"/>
    <use xlink:href="#DejaVuSans-61" x="360.058594"/>
    <use xlink:href="#DejaVuSans-6d" x="421.337891"/>
    <use xlink:href="#DejaVuSans-73" x="518.75"/>
    <use xlink:href="#DejaVuSans-20" x="570.849609"/>
    <use xlink:href="#DejaVuSans-6f" x="602.636719"/>
    <use xlink:href="#DejaVuSans-66" x="663.818359"/>
    <use xlink:href="#DejaVuSans-20" x="699.023438"/>
    <use xlink:href="#DejaVuSans-53" x="730.810547"/>
    <use xlink:href="#DejaVuSans-52" x="794.287109"/>
    <use xlink:href="#DejaVuSans-56" x="858.269531"/>
    <use xlink:href="#DejaVuSans-20" x="926.677734"/>
    <use xlink:href="#DejaVuSans-64" x="958.464844"/>
    <use xlink:href="#DejaVuSans-69" x="1021.941406"/>
    <use xlink:href="#DejaVuSans-73" x="1049.724609"/>
    <use xlink:href="#DejaVuSans-74" x="1101.824219"/>
    <use xlink:href="#DejaVuSans-61" x="1141.033203"/>
    <use xlink:href="#DejaVuSans-6e" x="1202.3125"/>
    <use xlink:href="#DejaVuSans-63" x="1265.691406"/>
    <use xlink:href="#DejaVuSans-65" x="1320.671875"/>
    <use xlink:href="#DejaVuSans-73" x="1382.195312"/>
    <use xlink:href="#DejaVuSans-20" x="1434.294922"/>
    <use xlink:href="#DejaVuSans-74" x="1466.082031"/>
    <use xlink:href="#DejaVuSans-6f" x="1505.291016"/>
    <use xlink:href="#DejaVuSans-20" x="1566.472656"/>
    <use xlink:href="#DejaVuSans-67" x="1598.259766"/>
    <use xlink:href="#DejaVuSans-6c" x="1661.736328"/>
    <use xlink:href="#DejaVuSans-6f" x="1689.519531"/>
    <use xlink:href="#DejaVuSans-62" x="1750.701172"/>
    <use xlink:href="#DejaVuSans-61" x="1814.177734"/>
    <use xlink:href="#DejaVuSans-6c" x="1875.457031"/>
    <use xlink:href="#DejaVuSans-20" x="1903.240234"/>
    <use xlink:href="#DejaVuSans-6d" x="1935.027344"/>
    <use xlink:href="#DejaVuSans-65" x="2032.439453"/>
    <use xlink:href="#DejaVuSans-61" x="2093.962891"/>
    <use xlink:href="#DejaVuSans-6e" x="2155.242188"/>
    <use xlink:href="#DejaVuSans-20" x="2218.621094"/>
    <use xlink:href="#DejaVuSans-63" x="2250.408203"/>
    <use xlink:href="#DejaVuSans-65" x="2305.388672"/>
    <use xlink:href="#DejaVuSans-6c" x="2366.912109"/>
    <use xlink:href="#DejaVuSans-6c" x="2394.695312"/>
   </g>
  </g>
 </g>
 <defs>
  <clipPath id="p6bc1551bb7">
   <rect x="41.711875" y="57.594062" width="245.819375" height="202.927813"/>
  </clipPath>
  <clipPath id="p92d5b7c0c1">
   <rect x="319.380625" y="57.594062" width="245.819375" height="202.927813"/>
  </clipPath>
 </defs>
</svg>
