<?xml version="1.0" encoding="utf-8" standalone="no"?>
<!DOCTYPE svg PUBLIC "-//W3C//DTD SVG 1.1//EN"
  "http://www.w3.org/Graphics/SVG/1.1/DTD/svg11.dtd">
<svg xmlns:xlink="http://www.w3.org/1999/xlink" width="540pt" height="288pt" viewBox="0 0 540 288" xmlns="http://www.w3.org/2000/svg" version="1.1">
 <metadata>
  <rdf:RDF xmlns:dc="http://purl.org/dc/elements/1.1/" xmlns:cc="http://creativecommons.org/ns#" xmlns:rdf="http://www.w3.org/1999/02/22-rdf-syntax-ns#">
   <cc:Work>
    <dc:type rdf:resource="http://purl.org/dc/dcmitype/StillImage"/>
    <dc:date>2024-04-04T11:19:56.494358</dc:date>
    <dc:format>image/svg+xml</dc:format>
    <dc:creator>
     <cc:Agent>
      <dc:title>Matplotlib v3.8.3, https://matplotlib.org/</dc:title>
     </cc:Agent>
    </dc:creator>
   </cc:Work>
  </rdf:RDF>
 </metadata>
 <defs>
  <style type="text/css">*{stroke-linejoin: round; stroke-linecap: butt}</style>
 </defs>
 <g id="figure_1">
  <g id="patch_1">
   <path d="M 0 288 
L 540 288 
L 540 0 
L 0 0 
z
" style="fill: #ffffff"/>
  </g>
  <g id="axes_1">
   <g id="line2d_1">
    <path d="M 140.799934 45.875413 
L 140.463625 46.474464 
L 139.742106 47.094057 
L 135.479033 47.754302 
L 134.745498 48.654044 
L 132.909771 49.256168 
L 131.28742 49.915358 
L 130.910609 50.498781 
L 130.167443 51.201538 
L 128.018395 52.184948 
L 126.166772 52.609686 
L 124.33862 52.569453 
L 122.572367 53.428298 
L 121.223235 54.457754 
L 120.882958 55.056164 
L 120.174466 55.848337 
L 117.562562 57.138064 
L 116.513618 58.148585 
L 116.109876 58.853917 
L 114.910552 59.624294 
L 113.213931 60.492177 
L 112.884806 61.33288 
L 112.442395 62.150672 
L 111.192371 62.996278 
L 110.48514 63.704829 
L 110.259832 64.311041 
L 109.119399 65.479296 
L 107.204689 66.806022 
L 106.662705 68.473093 
L 104.08413 71.363222 
L 102.384234 72.959092 
L 101.851106 73.203178 
L 101.03754 74.389027 
L 99.92794 76.448642 
L 99.14039 76.896854 
L 98.355079 77.478053 
L 97.565521 81.185868 
L 96.773551 82.025457 
L 96.403598 82.831877 
L 96.353535 83.771812 
L 95.912555 84.504317 
L 95.149759 85.378045 
L 94.644107 89.065049 
L 94.122002 91.927895 
L 93.650015 92.65518 
L 93.394478 93.495796 
L 93.555956 94.747182 
L 92.629774 96.630875 
L 92.855628 98.477196 
L 93.241317 100.471842 
L 92.730811 101.67904 
L 92.585431 101.847917 
L 92.319977 102.536202 
L 92.533448 105.907034 
L 92.499144 106.055251 
L 92.567285 108.727018 
L 92.891571 110.666842 
L 92.811138 111.158921 
L 92.904941 112.264379 
L 93.455683 113.829067 
L 94.398837 114.707231 
L 95.862858 115.589161 
L 96.771661 116.533589 
L 97.684494 118.168534 
L 99.53549 118.867405 
L 100.269571 119.622354 
L 100.714955 120.382881 
L 100.913277 121.150748 
L 101.378909 121.934148 
L 102.150791 122.651002 
L 105.59856 123.641809 
L 106.399834 124.207064 
L 106.921593 124.959898 
L 107.428889 126.009456 
L 107.924485 126.744212 
L 108.755662 127.28766 
L 110.680178 127.725415 
L 112.99956 127.946933 
L 113.934316 128.467536 
L 114.847177 129.445483 
L 115.80553 129.820786 
L 118.388809 129.570016 
L 119.767772 130.041929 
L 120.682073 130.61069 
L 121.597787 130.778182 
L 122.527952 130.744977 
L 123.357173 130.334876 
L 124.226484 130.158618 
L 125.653573 130.560369 
L 126.496465 130.369516 
L 127.243652 129.899352 
L 128.854881 129.581661 
L 130.572432 129.431243 
L 131.984852 130.083464 
L 133.08476 129.844577 
L 134.176836 129.253719 
L 135.028843 128.531961 
L 137.663437 128.123463 
L 139.367125 126.856257 
L 140.376864 126.771677 
L 141.523256 126.395785 
L 142.821555 125.261462 
L 143.633917 124.895867 
L 144.512625 124.84825 
L 146.960783 122.970908 
L 147.83451 122.893054 
L 148.810803 122.403492 
L 150.51332 120.431694 
L 152.436002 119.53465 
L 154.414261 119.09167 
L 156.192466 117.370749 
L 156.827242 117.197592 
L 157.358115 116.48181 
L 157.84028 114.571501 
L 159.609073 112.125338 
L 159.479726 111.082982 
L 159.895024 109.696744 
L 160.717315 108.031244 
L 162.036604 106.72291 
L 162.757341 105.548743 
L 162.572498 103.932416 
L 162.921666 102.782744 
L 163.547015 101.968431 
L 164.096528 101.663942 
L 164.611233 101.194034 
L 164.572342 98.378119 
L 164.750709 96.294707 
L 165.380108 95.423496 
L 165.768259 94.264716 
L 165.689659 92.728067 
L 164.821314 90.835822 
L 165.320137 88.990121 
L 165.219238 88.153961 
L 164.381158 87.231786 
L 163.487704 85.310078 
L 163.015004 83.721896 
L 162.837869 82.454809 
L 163.461177 80.752643 
L 162.423074 77.279276 
L 162.212718 75.285083 
L 162.378993 74.75652 
L 162.195589 73.888067 
L 161.765724 72.754543 
L 161.937109 71.408942 
L 160.638771 69.773112 
L 159.560713 68.197473 
L 159.379491 66.529681 
L 158.887545 65.72834 
L 158.156819 65.407885 
L 156.79831 64.451218 
L 155.644433 62.922173 
L 155.149367 61.080421 
L 153.511269 59.742574 
L 152.484583 58.227505 
L 151.943006 56.372512 
L 150.452222 54.475476 
L 148.198522 52.767259 
L 146.98091 52.585555 
L 146.029971 52.330936 
L 145.166429 51.636116 
L 144.579008 50.717253 
L 144.175732 49.512718 
L 142.759913 48.030207 
L 140.566838 46.608084 
L 140.170369 45.593034 
L 139.944633 44.694701 
L 139.265089 44.005802 
L 137.988205 43.469056 
L 135.768289 43.083716 
L 134.163611 41.982863 
L 132.86501 40.374866 
L 131.10322 39.141818 
L 131.10322 39.141818 
" clip-path="url(#p97f8d605c7)" style="fill: none; stroke: #1f77b4; stroke-width: 1.5; stroke-linecap: square"/>
   </g>
   <g id="text_1">
    <!-- SRV-control -->
    <g transform="translate(71.778493 28.56) scale(0.2 -0.2)">
     <defs>
      <path id="DejaVuSans-53" d="M 3425 4513 
L 3425 3897 
Q 3066 4069 2747 4153 
Q 2428 4238 2131 4238 
Q 1616 4238 1336 4038 
Q 1056 3838 1056 3469 
Q 1056 3159 1242 3001 
Q 1428 2844 1947 2747 
L 2328 2669 
Q 3034 2534 3370 2195 
Q 3706 1856 3706 1288 
Q 3706 609 3251 259 
Q 2797 -91 1919 -91 
Q 1588 -91 1214 -16 
Q 841 59 441 206 
L 441 856 
Q 825 641 1194 531 
Q 1563 422 1919 422 
Q 2459 422 2753 634 
Q 3047 847 3047 1241 
Q 3047 1584 2836 1778 
Q 2625 1972 2144 2069 
L 1759 2144 
Q 1053 2284 737 2584 
Q 422 2884 422 3419 
Q 422 4038 858 4394 
Q 1294 4750 2059 4750 
Q 2388 4750 2728 4690 
Q 3069 4631 3425 4513 
z
" transform="scale(0.015625)"/>
      <path id="DejaVuSans-52" d="M 2841 2188 
Q 3044 2119 3236 1894 
Q 3428 1669 3622 1275 
L 4263 0 
L 3584 0 
L 2988 1197 
Q 2756 1666 2539 1819 
Q 2322 1972 1947 1972 
L 1259 1972 
L 1259 0 
L 628 0 
L 628 4666 
L 2053 4666 
Q 2853 4666 3247 4331 
Q 3641 3997 3641 3322 
Q 3641 2881 3436 2590 
Q 3231 2300 2841 2188 
z
M 1259 4147 
L 1259 2491 
L 2053 2491 
Q 2509 2491 2742 2702 
Q 2975 2913 2975 3322 
Q 2975 3731 2742 3939 
Q 2509 4147 2053 4147 
L 1259 4147 
z
" transform="scale(0.015625)"/>
      <path id="DejaVuSans-56" d="M 1831 0 
L 50 4666 
L 709 4666 
L 2188 738 
L 3669 4666 
L 4325 4666 
L 2547 0 
L 1831 0 
z
" transform="scale(0.015625)"/>
      <path id="DejaVuSans-2d" d="M 313 2009 
L 1997 2009 
L 1997 1497 
L 313 1497 
L 313 2009 
z
" transform="scale(0.015625)"/>
      <path id="DejaVuSans-63" d="M 3122 3366 
L 3122 2828 
Q 2878 2963 2633 3030 
Q 2388 3097 2138 3097 
Q 1578 3097 1268 2742 
Q 959 2388 959 1747 
Q 959 1106 1268 751 
Q 1578 397 2138 397 
Q 2388 397 2633 464 
Q 2878 531 3122 666 
L 3122 134 
Q 2881 22 2623 -34 
Q 2366 -91 2075 -91 
Q 1284 -91 818 406 
Q 353 903 353 1747 
Q 353 2603 823 3093 
Q 1294 3584 2113 3584 
Q 2378 3584 2631 3529 
Q 2884 3475 3122 3366 
z
" transform="scale(0.015625)"/>
      <path id="DejaVuSans-6f" d="M 1959 3097 
Q 1497 3097 1228 2736 
Q 959 2375 959 1747 
Q 959 1119 1226 758 
Q 1494 397 1959 397 
Q 2419 397 2687 759 
Q 2956 1122 2956 1747 
Q 2956 2369 2687 2733 
Q 2419 3097 1959 3097 
z
M 1959 3584 
Q 2709 3584 3137 3096 
Q 3566 2609 3566 1747 
Q 3566 888 3137 398 
Q 2709 -91 1959 -91 
Q 1206 -91 779 398 
Q 353 888 353 1747 
Q 353 2609 779 3096 
Q 1206 3584 1959 3584 
z
" transform="scale(0.015625)"/>
      <path id="DejaVuSans-6e" d="M 3513 2113 
L 3513 0 
L 2938 0 
L 2938 2094 
Q 2938 2591 2744 2837 
Q 2550 3084 2163 3084 
Q 1697 3084 1428 2787 
Q 1159 2491 1159 1978 
L 1159 0 
L 581 0 
L 581 3500 
L 1159 3500 
L 1159 2956 
Q 1366 3272 1645 3428 
Q 1925 3584 2291 3584 
Q 2894 3584 3203 3211 
Q 3513 2838 3513 2113 
z
" transform="scale(0.015625)"/>
      <path id="DejaVuSans-74" d="M 1172 4494 
L 1172 3500 
L 2356 3500 
L 2356 3053 
L 1172 3053 
L 1172 1153 
Q 1172 725 1289 603 
Q 1406 481 1766 481 
L 2356 481 
L 2356 0 
L 1766 0 
Q 1100 0 847 248 
Q 594 497 594 1153 
L 594 3053 
L 172 3053 
L 172 3500 
L 594 3500 
L 594 4494 
L 1172 4494 
z
" transform="scale(0.015625)"/>
      <path id="DejaVuSans-72" d="M 2631 2963 
Q 2534 3019 2420 3045 
Q 2306 3072 2169 3072 
Q 1681 3072 1420 2755 
Q 1159 2438 1159 1844 
L 1159 0 
L 581 0 
L 581 3500 
L 1159 3500 
L 1159 2956 
Q 1341 3275 1631 3429 
Q 1922 3584 2338 3584 
Q 2397 3584 2469 3576 
Q 2541 3569 2628 3553 
L 2631 2963 
z
" transform="scale(0.015625)"/>
      <path id="DejaVuSans-6c" d="M 603 4863 
L 1178 4863 
L 1178 0 
L 603 0 
L 603 4863 
z
" transform="scale(0.015625)"/>
     </defs>
     <use xlink:href="#DejaVuSans-53"/>
     <use xlink:href="#DejaVuSans-52" x="63.476562"/>
     <use xlink:href="#DejaVuSans-56" x="127.458984"/>
     <use xlink:href="#DejaVuSans-2d" x="189.992188"/>
     <use xlink:href="#DejaVuSans-63" x="226.076172"/>
     <use xlink:href="#DejaVuSans-6f" x="281.056641"/>
     <use xlink:href="#DejaVuSans-6e" x="342.238281"/>
     <use xlink:href="#DejaVuSans-74" x="405.617188"/>
     <use xlink:href="#DejaVuSans-72" x="444.826172"/>
     <use xlink:href="#DejaVuSans-6f" x="483.689453"/>
     <use xlink:href="#DejaVuSans-6c" x="544.871094"/>
    </g>
   </g>
  </g>
  <g id="axes_2">
   <g id="line2d_2">
    <path d="M 293.626047 53.845242 
L 293.009717 57.106378 
L 291.830113 59.315055 
L 289.801731 61.294439 
L 289.094627 62.937809 
L 288.669903 64.799184 
L 285.287883 68.37828 
L 284.728199 70.53138 
L 283.875288 72.510942 
L 282.478804 74.285146 
L 281.197447 75.331495 
L 278.988118 75.335135 
L 278.031843 76.11397 
L 276.934916 77.291123 
L 275.868652 79.547904 
L 274.288853 80.585063 
L 273.469159 81.462202 
L 273.064709 82.589246 
L 271.857641 83.644049 
L 270.032545 84.510376 
L 269.653654 85.304329 
L 269.193957 86.006391 
L 267.965102 86.571306 
L 267.323255 87.001401 
L 267.109825 87.458429 
L 266.584258 88.214737 
L 265.396756 89.121592 
L 265.216744 89.982865 
L 264.718216 90.723216 
L 263.38685 92.020513 
L 261.990942 92.770631 
L 260.696677 93.085837 
L 258.222122 95.192252 
L 256.320811 95.561527 
L 255.293661 96.074045 
L 254.781436 97.898675 
L 254.406653 98.491608 
L 254.209032 99.037458 
L 254.232785 99.884976 
L 253.83586 100.420506 
L 253.212395 101.058341 
L 253.062861 102.196494 
L 252.153041 103.883898 
L 252.189018 104.647238 
L 251.689955 105.412432 
L 251.778804 106.380513 
L 252.185119 107.327713 
L 252.146558 108.405723 
L 251.60517 109.977009 
L 251.46376 111.735492 
L 251.22162 112.997462 
L 251.128931 113.417843 
L 251.22652 113.747996 
L 251.24433 116.034771 
L 251.599526 116.794376 
L 252.920985 117.554493 
L 254.348927 118.144403 
L 254.991353 118.698963 
L 255.58668 119.864558 
L 257.037579 120.542055 
L 257.465041 121.023051 
L 257.617455 121.607935 
L 258.601828 122.367238 
L 259.786532 122.452047 
L 260.990088 122.739549 
L 261.526209 123.227278 
L 262.029657 124.407525 
L 262.336784 126.083952 
L 262.691566 127.309742 
L 263.157759 127.870414 
L 265.668121 128.478026 
L 266.011382 128.911815 
L 266.277625 129.490183 
L 268.126475 130.054895 
L 268.695539 130.763853 
L 269.072536 130.778182 
L 269.676218 130.546516 
L 270.766163 129.80447 
L 271.508985 130.00196 
L 272.016758 129.930328 
L 272.618487 129.527315 
L 274.006183 129.147049 
L 274.611529 129.488504 
L 275.221203 129.60971 
L 276.785328 128.931728 
L 277.34519 128.549892 
L 278.989886 128.452561 
L 279.462607 127.812223 
L 279.883838 127.65176 
L 280.385821 127.581398 
L 280.799059 126.950048 
L 281.542348 126.081014 
L 282.16803 125.864913 
L 283.048621 125.400055 
L 283.758863 124.364649 
L 284.800165 123.4878 
L 286.060137 123.496181 
L 286.898292 122.991214 
L 288.04092 122.059372 
L 289.351236 121.568725 
L 290.953226 121.518884 
L 292.084445 119.962059 
L 292.653916 119.773022 
L 293.069438 119.080656 
L 293.417447 117.306147 
L 294.297246 116.102237 
L 294.876074 115.600651 
L 294.932592 114.003242 
L 295.205252 112.963105 
L 296.32525 112.208203 
L 297.155145 110.320944 
L 298.669809 108.485695 
L 299.601234 108.296017 
L 300.218535 107.740901 
L 300.634955 105.55928 
L 302.096114 104.640543 
L 302.371069 104.113949 
L 302.292668 103.522031 
L 301.295754 102.500421 
L 301.414041 101.848945 
L 301.305382 101.165347 
L 300.813845 100.752115 
L 300.188035 100.037573 
L 299.462021 98.786899 
L 299.178405 97.66506 
L 299.188292 96.387267 
L 300.184758 93.710914 
L 298.939449 91.464853 
L 298.689551 90.122613 
L 298.793772 88.703872 
L 298.33925 87.550251 
L 298.350338 87.07402 
L 298.246 86.136418 
L 296.766464 84.752105 
L 295.527492 83.088453 
L 295.378091 81.166662 
L 294.788356 80.427549 
L 293.000011 80.220516 
L 291.260943 79.33164 
L 289.921854 78.089889 
L 289.57183 77.131203 
L 289.006542 76.337642 
L 287.486091 75.468571 
L 286.622867 73.934935 
L 286.269453 72.258381 
L 285.143089 70.665477 
L 283.459405 69.000179 
L 281.720634 68.450508 
L 280.504804 67.749301 
L 279.381751 66.312184 
L 278.877231 64.691011 
L 278.588479 62.714615 
L 277.352578 60.979698 
L 275.941114 58.63617 
L 274.779384 52.577543 
L 273.964818 50.390619 
L 273.184522 48.868757 
L 272.046144 47.702096 
L 271.158257 45.303173 
L 270.452186 40.970761 
L 269.620105 39.141818 
L 269.620105 39.141818 
" clip-path="url(#pb1020305d4)" style="fill: none; stroke: #ff7f0e; stroke-width: 1.5; stroke-linecap: square"/>
   </g>
   <g id="text_2">
    <!-- SRV-cytd -->
    <g transform="translate(232.45625 28.56) scale(0.2 -0.2)">
     <defs>
      <path id="DejaVuSans-79" d="M 2059 -325 
Q 1816 -950 1584 -1140 
Q 1353 -1331 966 -1331 
L 506 -1331 
L 506 -850 
L 844 -850 
Q 1081 -850 1212 -737 
Q 1344 -625 1503 -206 
L 1606 56 
L 191 3500 
L 800 3500 
L 1894 763 
L 2988 3500 
L 3597 3500 
L 2059 -325 
z
" transform="scale(0.015625)"/>
      <path id="DejaVuSans-64" d="M 2906 2969 
L 2906 4863 
L 3481 4863 
L 3481 0 
L 2906 0 
L 2906 525 
Q 2725 213 2448 61 
Q 2172 -91 1784 -91 
Q 1150 -91 751 415 
Q 353 922 353 1747 
Q 353 2572 751 3078 
Q 1150 3584 1784 3584 
Q 2172 3584 2448 3432 
Q 2725 3281 2906 2969 
z
M 947 1747 
Q 947 1113 1208 752 
Q 1469 391 1925 391 
Q 2381 391 2643 752 
Q 2906 1113 2906 1747 
Q 2906 2381 2643 2742 
Q 2381 3103 1925 3103 
Q 1469 3103 1208 2742 
Q 947 2381 947 1747 
z
" transform="scale(0.015625)"/>
     </defs>
     <use xlink:href="#DejaVuSans-53"/>
     <use xlink:href="#DejaVuSans-52" x="63.476562"/>
     <use xlink:href="#DejaVuSans-56" x="127.458984"/>
     <use xlink:href="#DejaVuSans-2d" x="189.992188"/>
     <use xlink:href="#DejaVuSans-63" x="226.076172"/>
     <use xlink:href="#DejaVuSans-79" x="281.056641"/>
     <use xlink:href="#DejaVuSans-74" x="340.236328"/>
     <use xlink:href="#DejaVuSans-64" x="379.445312"/>
    </g>
   </g>
  </g>
  <g id="axes_3">
   <g id="line2d_3">
    <path d="M 439.932495 52.195162 
L 439.61744 54.173777 
L 438.732125 55.753527 
L 436.505187 57.022042 
L 435.83299 57.972485 
L 435.379697 59.14353 
L 432.424211 61.141703 
L 432.101439 62.192145 
L 431.173531 63.468879 
L 429.067073 64.875358 
L 427.380262 65.652164 
L 425.403078 65.602384 
L 424.040596 66.40442 
L 422.985123 67.311727 
L 422.771624 68.336269 
L 422.207485 69.361369 
L 419.821813 70.647008 
L 419.073383 71.615091 
L 418.715166 72.564596 
L 417.472659 73.575454 
L 415.001481 74.469969 
L 414.597702 75.328144 
L 414.080036 76.163981 
L 412.886428 76.78867 
L 412.104126 77.479217 
L 411.831269 78.277028 
L 409.122158 81.071714 
L 408.251158 83.305236 
L 405.823887 86.849421 
L 403.900848 88.4761 
L 402.960815 88.648753 
L 402.290333 89.265868 
L 401.237957 91.142499 
L 399.224525 91.974182 
L 398.789686 93.936696 
L 398.19677 94.48659 
L 397.931828 95.040057 
L 398.094535 95.823629 
L 397.039506 97.069193 
L 397.127059 101.579628 
L 396.683271 102.321637 
L 396.511398 103.034179 
L 396.940445 104.460414 
L 396.313909 105.520159 
L 396.573952 106.766268 
L 397.436297 108.303586 
L 396.682101 110.115326 
L 396.405959 112.164237 
L 396.291221 112.364393 
L 396.248836 112.904067 
L 396.335856 113.525754 
L 396.316603 113.807713 
L 396.412141 115.041755 
L 396.283791 115.473226 
L 396.245579 116.068911 
L 396.378289 116.608626 
L 397.065797 117.095553 
L 398.254855 117.522828 
L 399.255671 118.432667 
L 400.02043 119.996086 
L 400.731513 120.440251 
L 401.514278 120.607836 
L 402.403356 121.737445 
L 402.523575 122.258712 
L 403.221827 123.032338 
L 404.874289 123.333035 
L 405.231574 123.640371 
L 405.566741 124.15876 
L 406.177679 125.919834 
L 406.745423 126.423657 
L 407.753524 126.650449 
L 409.340802 126.716389 
L 409.993892 127.054001 
L 410.755795 128.227305 
L 411.501261 128.762866 
L 412.741819 128.786129 
L 413.634129 129.2372 
L 414.525414 130.325857 
L 415.095914 130.513782 
L 415.5369 130.524016 
L 416.115484 130.116082 
L 416.874603 129.949699 
L 417.737281 130.107935 
L 418.911605 129.423478 
L 419.993842 129.257893 
L 421.01642 129.388108 
L 421.989901 130.265767 
L 422.893259 130.778182 
L 423.754306 130.60014 
L 424.602204 129.977915 
L 425.482369 128.933049 
L 426.521446 128.780921 
L 427.755467 128.7642 
L 429.16856 127.710058 
L 430.182166 127.563281 
L 430.885102 127.300782 
L 431.836833 126.378028 
L 432.740553 126.144404 
L 433.93822 126.287697 
L 434.678596 125.847092 
L 435.453024 125.032158 
L 436.496109 125.144649 
L 437.017607 124.626014 
L 438.287267 122.401552 
L 440.053934 121.808801 
L 442.858965 121.819799 
L 443.871875 120.986258 
L 444.577042 120.156648 
L 445.139259 119.798145 
L 445.644111 119.09216 
L 445.859662 117.238538 
L 446.83391 115.192179 
L 446.781719 114.511492 
L 446.577573 113.963799 
L 446.819131 112.830862 
L 447.38139 111.716918 
L 448.794413 110.742005 
L 449.1011 109.90878 
L 448.69981 108.076551 
L 449.026753 107.323853 
L 449.598644 106.764569 
L 450.219667 106.552558 
L 450.643715 106.182434 
L 450.303524 103.977404 
L 450.618286 101.908672 
L 452.388269 100.444413 
L 452.627183 99.428267 
L 452.666186 98.239302 
L 452.219999 97.260364 
L 451.270978 96.266127 
L 451.693676 94.691588 
L 451.583105 94.010238 
L 451.218177 93.687925 
L 450.502331 92.863249 
L 449.581027 91.004675 
L 449.137069 89.422359 
L 449.241871 88.097921 
L 450.013556 86.208489 
L 448.862766 82.952026 
L 448.756491 81.212826 
L 448.924545 80.586168 
L 448.330173 78.505413 
L 448.61937 77.139093 
L 445.940686 73.966763 
L 445.663854 72.359527 
L 445.04092 71.588047 
L 443.914279 71.288808 
L 442.346828 70.652488 
L 441.15627 69.199934 
L 441.071946 68.130637 
L 440.77221 67.181007 
L 439.28705 66.121268 
L 438.520218 64.609522 
L 438.43423 62.282998 
L 437.500882 60.771219 
L 435.951528 59.302282 
L 433.453626 58.994374 
L 432.527133 58.308891 
L 431.704416 56.996071 
L 431.464756 55.108872 
L 429.978081 53.391678 
L 427.484655 51.353984 
L 427.050058 47.775768 
L 426.316072 46.808363 
L 425.264073 46.07418 
L 423.661114 45.52867 
L 422.197636 43.993453 
L 420.855696 40.938189 
L 419.906305 39.141818 
L 419.906305 39.141818 
" clip-path="url(#p27975f28b4)" style="fill: none; stroke: #2ca02c; stroke-width: 1.5; stroke-linecap: square"/>
   </g>
   <g id="text_3">
    <!-- SRV-jasp -->
    <g transform="translate(381.384007 28.56) scale(0.2 -0.2)">
     <defs>
      <path id="DejaVuSans-6a" d="M 603 3500 
L 1178 3500 
L 1178 -63 
Q 1178 -731 923 -1031 
Q 669 -1331 103 -1331 
L -116 -1331 
L -116 -844 
L 38 -844 
Q 366 -844 484 -692 
Q 603 -541 603 -63 
L 603 3500 
z
M 603 4863 
L 1178 4863 
L 1178 4134 
L 603 4134 
L 603 4863 
z
" transform="scale(0.015625)"/>
      <path id="DejaVuSans-61" d="M 2194 1759 
Q 1497 1759 1228 1600 
Q 959 1441 959 1056 
Q 959 750 1161 570 
Q 1363 391 1709 391 
Q 2188 391 2477 730 
Q 2766 1069 2766 1631 
L 2766 1759 
L 2194 1759 
z
M 3341 1997 
L 3341 0 
L 2766 0 
L 2766 531 
Q 2569 213 2275 61 
Q 1981 -91 1556 -91 
Q 1019 -91 701 211 
Q 384 513 384 1019 
Q 384 1609 779 1909 
Q 1175 2209 1959 2209 
L 2766 2209 
L 2766 2266 
Q 2766 2663 2505 2880 
Q 2244 3097 1772 3097 
Q 1472 3097 1187 3025 
Q 903 2953 641 2809 
L 641 3341 
Q 956 3463 1253 3523 
Q 1550 3584 1831 3584 
Q 2591 3584 2966 3190 
Q 3341 2797 3341 1997 
z
" transform="scale(0.015625)"/>
      <path id="DejaVuSans-73" d="M 2834 3397 
L 2834 2853 
Q 2591 2978 2328 3040 
Q 2066 3103 1784 3103 
Q 1356 3103 1142 2972 
Q 928 2841 928 2578 
Q 928 2378 1081 2264 
Q 1234 2150 1697 2047 
L 1894 2003 
Q 2506 1872 2764 1633 
Q 3022 1394 3022 966 
Q 3022 478 2636 193 
Q 2250 -91 1575 -91 
Q 1294 -91 989 -36 
Q 684 19 347 128 
L 347 722 
Q 666 556 975 473 
Q 1284 391 1588 391 
Q 1994 391 2212 530 
Q 2431 669 2431 922 
Q 2431 1156 2273 1281 
Q 2116 1406 1581 1522 
L 1381 1569 
Q 847 1681 609 1914 
Q 372 2147 372 2553 
Q 372 3047 722 3315 
Q 1072 3584 1716 3584 
Q 2034 3584 2315 3537 
Q 2597 3491 2834 3397 
z
" transform="scale(0.015625)"/>
      <path id="DejaVuSans-70" d="M 1159 525 
L 1159 -1331 
L 581 -1331 
L 581 3500 
L 1159 3500 
L 1159 2969 
Q 1341 3281 1617 3432 
Q 1894 3584 2278 3584 
Q 2916 3584 3314 3078 
Q 3713 2572 3713 1747 
Q 3713 922 3314 415 
Q 2916 -91 2278 -91 
Q 1894 -91 1617 61 
Q 1341 213 1159 525 
z
M 3116 1747 
Q 3116 2381 2855 2742 
Q 2594 3103 2138 3103 
Q 1681 3103 1420 2742 
Q 1159 2381 1159 1747 
Q 1159 1113 1420 752 
Q 1681 391 2138 391 
Q 2594 391 2855 752 
Q 3116 1113 3116 1747 
z
" transform="scale(0.015625)"/>
     </defs>
     <use xlink:href="#DejaVuSans-53"/>
     <use xlink:href="#DejaVuSans-52" x="63.476562"/>
     <use xlink:href="#DejaVuSans-56" x="127.458984"/>
     <use xlink:href="#DejaVuSans-2d" x="189.992188"/>
     <use xlink:href="#DejaVuSans-6a" x="226.076172"/>
     <use xlink:href="#DejaVuSans-61" x="253.859375"/>
     <use xlink:href="#DejaVuSans-73" x="315.138672"/>
     <use xlink:href="#DejaVuSans-70" x="367.238281"/>
    </g>
   </g>
  </g>
  <g id="axes_4">
   <g id="line2d_4">
    <path d="M 134.140045 160.101818 
L 133.188769 160.781565 
L 132.926198 161.499066 
L 132.206819 162.102644 
L 127.885311 162.35475 
L 127.431091 162.85069 
L 127.129758 163.401661 
L 125.083433 163.803606 
L 123.272151 164.315433 
L 122.937458 165.048821 
L 122.193503 165.737829 
L 120.13379 166.598635 
L 118.333205 166.919394 
L 116.451099 166.637492 
L 114.743396 167.427464 
L 113.397729 168.444402 
L 113.077342 169.112819 
L 112.374943 169.867834 
L 109.84031 170.940998 
L 108.821465 171.863719 
L 108.469687 172.666201 
L 107.185336 173.34073 
L 105.225785 173.982381 
L 104.959057 174.887682 
L 104.544371 175.694959 
L 103.114453 176.430967 
L 102.299272 177.068331 
L 102.154018 177.729518 
L 101.010761 178.779632 
L 99.128797 179.908811 
L 99.003652 181.730235 
L 95.018104 185.899497 
L 94.364383 186.077388 
L 93.652899 187.357803 
L 92.713422 189.509479 
L 91.844186 189.923324 
L 91.03439 190.482937 
L 90.696414 194.410692 
L 89.75809 195.214205 
L 89.362353 196.012636 
L 89.766501 197.270245 
L 89.208668 198.021685 
L 88.296228 198.846697 
L 87.601243 205.444147 
L 87.109938 206.130497 
L 86.830866 207.020379 
L 87.26625 208.447318 
L 86.144446 210.365799 
L 86.558387 212.263827 
L 87.225119 214.282587 
L 86.941721 215.174516 
L 86.662483 215.657194 
L 86.356558 215.733038 
L 86.0821 216.691775 
L 87.311794 225.15125 
L 88.184335 228.235197 
L 88.083716 229.022895 
L 88.266428 230.605146 
L 89.004054 232.563732 
L 90.254305 233.669705 
L 92.398356 234.700589 
L 93.451386 235.792988 
L 94.481433 237.920078 
L 95.646844 238.254465 
L 96.958203 238.300096 
L 97.751617 239.117734 
L 98.246658 239.970055 
L 98.390673 240.975696 
L 98.946404 241.89589 
L 99.753734 242.775196 
L 101.720089 243.327386 
L 103.677458 243.750082 
L 104.519552 244.322357 
L 105.037726 245.185673 
L 105.581052 246.4744 
L 106.152507 247.359593 
L 107.085132 247.934191 
L 109.217259 248.370336 
L 111.864537 248.292913 
L 112.879324 248.865471 
L 113.54528 249.515112 
L 113.904907 250.194767 
L 114.970578 250.600612 
L 117.829771 250.165562 
L 119.339449 250.768394 
L 120.362718 251.525423 
L 121.401177 251.738182 
L 122.487131 251.69978 
L 123.454631 251.104125 
L 124.458818 250.905156 
L 126.142844 251.509747 
L 127.122599 251.28847 
L 127.951 250.415477 
L 129.787565 250.131756 
L 131.765178 249.961936 
L 132.455339 250.661833 
L 133.363564 251.270154 
L 134.572646 250.978121 
L 135.756106 250.36878 
L 136.638802 249.467078 
L 139.590173 249.261055 
L 141.360542 247.74822 
L 142.548793 247.940226 
L 143.716714 247.562908 
L 145.017761 246.219466 
L 145.85355 245.885607 
L 147.034077 246.109614 
L 148.266169 245.15073 
L 149.504677 244.031822 
L 150.925926 244.50813 
L 152.072983 244.068486 
L 153.747404 241.744881 
L 155.986928 241.11128 
L 158.541635 240.921703 
L 159.581172 239.794052 
L 160.69184 238.881556 
L 161.756205 238.903646 
L 162.318578 238.171232 
L 162.768226 236.152655 
L 165.115792 233.589669 
L 165.062179 232.984881 
L 164.833752 232.327774 
L 165.424258 230.805466 
L 166.359702 229.042464 
L 168.265587 227.804164 
L 169.074334 226.645408 
L 168.648679 224.908073 
L 168.993853 223.731027 
L 169.673358 222.876515 
L 170.442882 222.600176 
L 171.075908 222.097849 
L 170.837303 219.058936 
L 170.803067 216.778526 
L 171.542352 215.876862 
L 172.006136 214.624244 
L 171.936156 213.085814 
L 170.71641 211.065428 
L 171.509442 208.994215 
L 171.458413 208.058485 
L 170.289438 207.089726 
L 169.319909 205.105341 
L 168.897209 203.495417 
L 168.706359 202.252952 
L 169.291468 201.464739 
L 169.731234 200.417155 
L 168.635854 197.09518 
L 168.309919 195.098921 
L 168.666945 194.496939 
L 168.271399 193.509221 
L 167.580096 192.19733 
L 167.837295 190.715091 
L 166.447514 189.136929 
L 165.310421 187.631242 
L 165.273507 185.881919 
L 164.802907 185.099425 
L 163.827274 184.934634 
L 162.497891 184.098148 
L 161.451332 182.732022 
L 161.155084 180.800555 
L 159.483925 179.648645 
L 158.496266 178.259046 
L 158.104289 176.368592 
L 156.642087 174.602242 
L 154.46716 173.024022 
L 153.209307 172.973595 
L 152.225248 172.794094 
L 151.437264 172.185875 
L 150.886218 171.329993 
L 150.571894 170.121209 
L 149.15086 168.841556 
L 146.800097 167.619832 
L 146.478093 166.586074 
L 146.368909 165.586434 
L 145.711229 164.919315 
L 144.417507 164.395204 
L 142.083795 164.154809 
L 140.520779 163.133187 
L 139.396784 161.521542 
L 137.489722 160.432915 
L 137.489722 160.432915 
" clip-path="url(#pa77215de71)" style="fill: none; stroke: #1f77b4; stroke-width: 1.5; stroke-linecap: square"/>
   </g>
   <g id="text_4">
    <!-- Linear-control -->
    <g transform="translate(60.336305 149.52) scale(0.2 -0.2)">
     <defs>
      <path id="DejaVuSans-4c" d="M 628 4666 
L 1259 4666 
L 1259 531 
L 3531 531 
L 3531 0 
L 628 0 
L 628 4666 
z
" transform="scale(0.015625)"/>
      <path id="DejaVuSans-69" d="M 603 3500 
L 1178 3500 
L 1178 0 
L 603 0 
L 603 3500 
z
M 603 4863 
L 1178 4863 
L 1178 4134 
L 603 4134 
L 603 4863 
z
" transform="scale(0.015625)"/>
      <path id="DejaVuSans-65" d="M 3597 1894 
L 3597 1613 
L 953 1613 
Q 991 1019 1311 708 
Q 1631 397 2203 397 
Q 2534 397 2845 478 
Q 3156 559 3463 722 
L 3463 178 
Q 3153 47 2828 -22 
Q 2503 -91 2169 -91 
Q 1331 -91 842 396 
Q 353 884 353 1716 
Q 353 2575 817 3079 
Q 1281 3584 2069 3584 
Q 2775 3584 3186 3129 
Q 3597 2675 3597 1894 
z
M 3022 2063 
Q 3016 2534 2758 2815 
Q 2500 3097 2075 3097 
Q 1594 3097 1305 2825 
Q 1016 2553 972 2059 
L 3022 2063 
z
" transform="scale(0.015625)"/>
     </defs>
     <use xlink:href="#DejaVuSans-4c"/>
     <use xlink:href="#DejaVuSans-69" x="55.712891"/>
     <use xlink:href="#DejaVuSans-6e" x="83.496094"/>
     <use xlink:href="#DejaVuSans-65" x="146.875"/>
     <use xlink:href="#DejaVuSans-61" x="208.398438"/>
     <use xlink:href="#DejaVuSans-72" x="269.677734"/>
     <use xlink:href="#DejaVuSans-2d" x="304.416016"/>
     <use xlink:href="#DejaVuSans-63" x="340.5"/>
     <use xlink:href="#DejaVuSans-6f" x="395.480469"/>
     <use xlink:href="#DejaVuSans-6e" x="456.662109"/>
     <use xlink:href="#DejaVuSans-74" x="520.041016"/>
     <use xlink:href="#DejaVuSans-72" x="559.25"/>
     <use xlink:href="#DejaVuSans-6f" x="598.113281"/>
     <use xlink:href="#DejaVuSans-6c" x="659.294922"/>
    </g>
   </g>
  </g>
  <g id="axes_5">
   <g id="line2d_5">
    <path d="M 279.968306 160.156915 
L 278.99715 161.928077 
L 278.818283 164.463874 
L 277.923954 166.092227 
L 275.977572 167.475884 
L 275.34769 168.941539 
L 275.172869 170.580505 
L 271.989436 173.266694 
L 271.677618 175.181907 
L 271.032459 176.853956 
L 269.860921 178.349971 
L 268.707402 179.296445 
L 266.025232 178.578333 
L 265.055216 179.365216 
L 264.036071 180.417169 
L 263.38597 183.077314 
L 261.63076 183.988815 
L 260.657433 184.830897 
L 260.436979 186.120748 
L 259.278256 186.949726 
L 256.937648 187.367469 
L 256.520848 188.426667 
L 256.010258 189.364129 
L 253.520841 190.174404 
L 253.35154 190.943695 
L 252.910098 191.878416 
L 251.301562 192.589499 
L 251.427596 193.987365 
L 250.848371 194.760071 
L 249.411585 196.156059 
L 247.895964 196.868597 
L 246.323713 196.925213 
L 245.356311 197.973251 
L 244.153132 199.066484 
L 242.311389 199.246961 
L 241.176237 199.727074 
L 240.983655 201.043421 
L 240.977464 202.292892 
L 240.459166 203.114024 
L 240.262525 203.942151 
L 240.651628 205.187506 
L 240.098257 205.901314 
L 239.183868 206.650034 
L 239.06363 208.070105 
L 238.484114 209.334428 
L 237.93665 209.83342 
L 237.696237 210.430529 
L 238.031158 211.652556 
L 237.664814 212.212974 
L 237.00706 212.741273 
L 237.450158 214.028151 
L 238.905474 215.465605 
L 239.183831 216.327204 
L 239.289327 217.427933 
L 238.753297 219.754377 
L 238.759053 222.150044 
L 238.668825 222.805597 
L 238.702947 225.376275 
L 239.450286 226.159304 
L 239.536334 228.717677 
L 239.843972 230.404351 
L 240.374366 231.403367 
L 242.507732 232.513125 
L 245.082187 232.74209 
L 246.16289 233.351583 
L 246.872276 235.138309 
L 249.367799 235.809748 
L 249.658255 236.223783 
L 250.115159 236.640062 
L 250.058827 237.940268 
L 250.851072 238.617411 
L 251.567144 239.044695 
L 253.452261 238.905878 
L 255.492857 238.946446 
L 256.230012 239.566525 
L 256.723678 241.42609 
L 256.856386 243.85004 
L 257.111802 245.552564 
L 257.700202 246.425036 
L 259.241497 246.566061 
L 260.538216 246.551818 
L 261.870028 246.816548 
L 262.40899 247.548585 
L 262.455549 248.876398 
L 263.204821 249.095091 
L 264.817787 249.731531 
L 265.917918 250.024787 
L 266.649819 251.686944 
L 267.280208 251.738182 
L 268.200352 251.315458 
L 269.162055 250.50985 
L 269.892162 250.46391 
L 271.089137 251.26023 
L 271.842678 251.122224 
L 272.810256 250.178472 
L 273.994432 250.016643 
L 275.154121 249.520459 
L 275.859847 251.015749 
L 276.789531 251.580715 
L 277.699163 251.181651 
L 278.807633 250.437563 
L 279.66658 249.54732 
L 280.74129 249.663343 
L 282.091891 249.947376 
L 282.593443 248.579623 
L 283.259171 248.601454 
L 284.349328 249.191783 
L 284.800665 248.246755 
L 285.60257 247.102716 
L 286.435228 247.119163 
L 287.636186 246.749769 
L 288.342966 245.49299 
L 289.854075 244.703243 
L 291.799656 245.103897 
L 292.924794 244.520071 
L 294.410929 243.21269 
L 296.481276 242.849744 
L 299.357618 243.454777 
L 300.302462 242.45113 
L 300.683165 241.082054 
L 301.828061 241.08038 
L 302.323965 240.221089 
L 302.261652 237.712367 
L 303.466693 236.301495 
L 304.47026 235.751337 
L 304.335274 235.168501 
L 304.05959 234.710105 
L 304.64039 232.294921 
L 306.555856 231.467355 
L 307.24015 230.409436 
L 307.702393 229.12431 
L 308.591186 228.245897 
L 309.441935 227.159458 
L 311.429623 227.173113 
L 312.343744 226.456322 
L 312.521184 224.954334 
L 312.483872 223.563094 
L 315.942182 222.609406 
L 316.49294 221.802782 
L 316.308837 220.986349 
L 314.273203 219.586041 
L 314.963978 218.353147 
L 315.017685 217.346699 
L 314.259899 216.882353 
L 313.443048 216.017062 
L 312.434138 214.463339 
L 312.08518 213.186269 
L 311.970912 211.805668 
L 312.713739 210.2573 
L 313.831684 208.87012 
L 312.009618 206.462138 
L 311.56588 204.852166 
L 311.804377 203.931635 
L 311.828885 202.936081 
L 310.892899 201.466392 
L 310.727441 199.780779 
L 308.577907 198.56184 
L 307.438094 197.196334 
L 307.678028 195.107963 
L 307.017887 194.309762 
L 304.762796 194.587744 
L 303.123148 193.878373 
L 301.950009 192.821705 
L 301.710943 191.81051 
L 300.888899 191.060655 
L 298.934409 190.420239 
L 298.176349 189.051784 
L 298.017224 187.194459 
L 297.000341 185.835074 
L 295.258445 184.451176 
L 293.339721 184.236737 
L 292.133173 183.623536 
L 291.169509 182.326197 
L 290.809552 180.814871 
L 290.761421 178.652509 
L 289.558367 177.291462 
L 288.225826 175.538807 
L 287.855277 173.028642 
L 287.67877 170.705449 
L 287.158046 169.060347 
L 286.567791 167.677618 
L 285.156717 166.739078 
L 284.548582 164.835853 
L 284.209926 161.644957 
L 283.502758 160.101818 
L 283.502758 160.101818 
" clip-path="url(#pc6fc778255)" style="fill: none; stroke: #ff7f0e; stroke-width: 1.5; stroke-linecap: square"/>
   </g>
   <g id="text_5">
    <!-- Linear-cytd -->
    <g transform="translate(221.014062 149.52) scale(0.2 -0.2)">
     <use xlink:href="#DejaVuSans-4c"/>
     <use xlink:href="#DejaVuSans-69" x="55.712891"/>
     <use xlink:href="#DejaVuSans-6e" x="83.496094"/>
     <use xlink:href="#DejaVuSans-65" x="146.875"/>
     <use xlink:href="#DejaVuSans-61" x="208.398438"/>
     <use xlink:href="#DejaVuSans-72" x="269.677734"/>
     <use xlink:href="#DejaVuSans-2d" x="304.416016"/>
     <use xlink:href="#DejaVuSans-63" x="340.5"/>
     <use xlink:href="#DejaVuSans-79" x="395.480469"/>
     <use xlink:href="#DejaVuSans-74" x="454.660156"/>
     <use xlink:href="#DejaVuSans-64" x="493.869141"/>
    </g>
   </g>
  </g>
  <g id="axes_6">
   <g id="line2d_6">
    <path d="M 428.836044 160.101818 
L 427.744522 161.350789 
L 427.700544 163.169794 
L 426.976028 164.45791 
L 424.550763 165.318063 
L 423.875156 166.24055 
L 423.608017 167.54013 
L 420.247323 169.05127 
L 420.223401 170.513003 
L 419.341521 171.764489 
L 417.465258 172.818063 
L 415.859022 173.379576 
L 413.424681 172.820606 
L 412.090422 173.46961 
L 411.023256 174.316893 
L 411.063503 175.65925 
L 410.555867 176.714049 
L 408.142778 177.682603 
L 407.438592 178.616329 
L 407.23037 179.649158 
L 405.903145 180.470224 
L 403.061619 180.90387 
L 402.73595 181.970339 
L 402.235536 182.896064 
L 400.568883 183.263567 
L 399.599036 183.850103 
L 399.431041 184.915804 
L 396.318912 187.408119 
L 395.775638 189.658421 
L 393.725687 192.690286 
L 392.078219 194.177681 
L 390.714056 194.064479 
L 390.076159 194.748223 
L 389.339268 196.900442 
L 388.207486 197.292538 
L 386.904622 197.513591 
L 386.713674 200.13248 
L 385.735629 200.735101 
L 385.415555 201.472873 
L 386.018889 202.645017 
L 384.34278 204.00464 
L 384.686119 206.735935 
L 385.142934 208.802053 
L 384.401333 209.624782 
L 384.166709 210.46059 
L 385.301054 212.539629 
L 384.88991 213.232185 
L 384.23818 213.781298 
L 384.74285 215.193139 
L 387.374235 217.256845 
L 386.978409 218.481409 
L 386.720222 218.864573 
L 386.463239 220.048007 
L 386.491208 222.954898 
L 386.264966 223.372788 
L 386.423105 224.48074 
L 387.017007 225.46449 
L 386.911984 225.886829 
L 387.049469 226.616952 
L 387.679593 229.16302 
L 387.462712 230.103418 
L 387.484614 231.30203 
L 387.671103 232.142165 
L 388.84421 232.915986 
L 391.161996 233.593028 
L 392.57922 234.865013 
L 393.392604 237.172298 
L 394.435312 237.684391 
L 396.181688 237.129559 
L 396.728023 237.978423 
L 397.703063 238.734404 
L 397.55246 239.868219 
L 398.216469 239.996858 
L 398.768753 240.653992 
L 401.451233 240.726848 
L 401.993283 241.182875 
L 402.492709 241.910585 
L 402.752528 243.195153 
L 403.143152 244.235155 
L 404.028879 244.92231 
L 405.565466 245.121417 
L 407.88203 244.778965 
L 408.77611 245.23596 
L 409.779632 247.30145 
L 410.750628 248.084479 
L 412.401475 247.981132 
L 413.506541 248.59014 
L 414.561236 250.449424 
L 415.331661 250.707028 
L 416.056438 250.748022 
L 416.848631 249.866133 
L 417.876168 249.636273 
L 419.177836 250.148111 
L 419.891456 249.740959 
L 420.85255 248.883322 
L 422.140646 248.703684 
L 423.34466 248.915314 
L 424.511414 250.789128 
L 425.662312 251.738182 
L 426.802814 251.466347 
L 427.866389 250.598566 
L 428.812578 248.832325 
L 430.308806 248.909035 
L 431.850826 249.198983 
L 432.662077 248.289711 
L 433.448594 247.584679 
L 434.882642 247.608256 
L 435.803114 247.400306 
L 436.94549 246.153973 
L 438.127729 245.94631 
L 440.066275 246.603151 
L 440.987246 245.980414 
L 441.854928 244.819234 
L 443.808725 245.876786 
L 444.461285 245.145049 
L 445.611555 242.38294 
L 447.862869 242.312223 
L 451.432237 243.12053 
L 452.737807 241.88197 
L 453.500237 240.366788 
L 454.442778 240.024011 
L 455.013613 239.15585 
L 455.053573 236.846943 
L 455.724879 235.302622 
L 456.324578 234.475693 
L 456.228924 233.571411 
L 455.636822 232.739876 
L 455.929991 231.445027 
L 456.76339 230.218504 
L 459.429191 229.44341 
L 459.768265 228.441818 
L 458.909988 226.184507 
L 459.339042 225.338085 
L 460.159309 224.718194 
L 461.392677 224.570853 
L 462.203594 224.046152 
L 461.605785 221.655188 
L 461.749302 219.497248 
L 464.745056 218.454574 
L 464.561952 217.768014 
L 464.701897 216.542287 
L 464.006693 215.530309 
L 462.470353 214.546767 
L 463.344945 212.693948 
L 463.262841 211.81547 
L 462.637582 211.44043 
L 461.728066 210.478178 
L 460.783869 208.664531 
L 460.380313 207.232003 
L 460.562076 206.021781 
L 461.383537 205.052871 
L 461.856457 203.985428 
L 460.187399 200.704012 
L 459.75261 198.871746 
L 460.18191 198.12498 
L 458.811237 195.510274 
L 459.265375 194.979082 
L 459.472284 194.14046 
L 458.014782 192.57523 
L 456.661679 191.359173 
L 456.647927 189.541157 
L 455.968181 188.803628 
L 454.467964 188.828096 
L 452.96082 188.405584 
L 451.920984 187.156644 
L 452.249486 185.842898 
L 452.074673 184.827839 
L 450.311826 183.98709 
L 449.564522 182.586179 
L 449.916552 180.062537 
L 448.932574 178.631206 
L 447.383219 177.285873 
L 444.074189 177.769035 
L 443.163017 177.196698 
L 442.433701 176.088791 
L 442.386955 174.231679 
L 440.866251 172.83929 
L 438.294049 171.324522 
L 438.200838 167.685295 
L 437.507012 166.847908 
L 436.575809 166.143146 
L 434.932266 165.759845 
L 433.706258 164.401638 
L 432.718981 161.781469 
L 431.900536 160.172988 
L 431.900536 160.172988 
" clip-path="url(#pee487a9335)" style="fill: none; stroke: #2ca02c; stroke-width: 1.5; stroke-linecap: square"/>
   </g>
   <g id="text_6">
    <!-- Linear-jasp -->
    <g transform="translate(369.94182 149.52) scale(0.2 -0.2)">
     <use xlink:href="#DejaVuSans-4c"/>
     <use xlink:href="#DejaVuSans-69" x="55.712891"/>
     <use xlink:href="#DejaVuSans-6e" x="83.496094"/>
     <use xlink:href="#DejaVuSans-65" x="146.875"/>
     <use xlink:href="#DejaVuSans-61" x="208.398438"/>
     <use xlink:href="#DejaVuSans-72" x="269.677734"/>
     <use xlink:href="#DejaVuSans-2d" x="304.416016"/>
     <use xlink:href="#DejaVuSans-6a" x="340.5"/>
     <use xlink:href="#DejaVuSans-61" x="368.283203"/>
     <use xlink:href="#DejaVuSans-73" x="429.5625"/>
     <use xlink:href="#DejaVuSans-70" x="481.662109"/>
    </g>
   </g>
  </g>
 </g>
 <defs>
  <clipPath id="p97f8d605c7">
   <rect x="67.5" y="34.56" width="123.088235" height="100.8"/>
  </clipPath>
  <clipPath id="pb1020305d4">
   <rect x="215.205882" y="34.56" width="123.088235" height="100.8"/>
  </clipPath>
  <clipPath id="p27975f28b4">
   <rect x="362.911765" y="34.56" width="123.088235" height="100.8"/>
  </clipPath>
  <clipPath id="pa77215de71">
   <rect x="67.5" y="155.52" width="123.088235" height="100.8"/>
  </clipPath>
  <clipPath id="pc6fc778255">
   <rect x="215.205882" y="155.52" width="123.088235" height="100.8"/>
  </clipPath>
  <clipPath id="pee487a9335">
   <rect x="362.911765" y="155.52" width="123.088235" height="100.8"/>
  </clipPath>
 </defs>
</svg>
