<?xml version="1.0" encoding="utf-8" standalone="no"?>
<!DOCTYPE svg PUBLIC "-//W3C//DTD SVG 1.1//EN"
  "http://www.w3.org/Graphics/SVG/1.1/DTD/svg11.dtd">
<svg xmlns:xlink="http://www.w3.org/1999/xlink" width="540pt" height="288pt" viewBox="0 0 540 288" xmlns="http://www.w3.org/2000/svg" version="1.1">
 <metadata>
  <rdf:RDF xmlns:dc="http://purl.org/dc/elements/1.1/" xmlns:cc="http://creativecommons.org/ns#" xmlns:rdf="http://www.w3.org/1999/02/22-rdf-syntax-ns#">
   <cc:Work>
    <dc:type rdf:resource="http://purl.org/dc/dcmitype/StillImage"/>
    <dc:date>2024-04-08T12:10:34.110346</dc:date>
    <dc:format>image/svg+xml</dc:format>
    <dc:creator>
     <cc:Agent>
      <dc:title>Matplotlib v3.8.4, https://matplotlib.org/</dc:title>
     </cc:Agent>
    </dc:creator>
   </cc:Work>
  </rdf:RDF>
 </metadata>
 <defs>
  <style type="text/css">*{stroke-linejoin: round; stroke-linecap: butt}</style>
 </defs>
 <g id="figure_1">
  <g id="patch_1">
   <path d="M 0 288 
L 540 288 
L 540 0 
L 0 0 
z
" style="fill: #ffffff"/>
  </g>
  <g id="axes_1">
   <g id="line2d_1">
    <path d="M 109.363033 39.141818 
L 109.079777 40.289386 
L 109.118109 40.731563 
L 108.477262 42.557677 
L 106.664943 45.349053 
L 106.434433 46.224018 
L 105.99736 47.210163 
L 106.024312 47.852835 
L 105.763227 48.964877 
L 103.553459 51.351424 
L 100.755685 52.920813 
L 100.409942 53.664684 
L 99.67099 55.851869 
L 99.79716 57.021062 
L 99.474059 58.565522 
L 98.612145 60.145404 
L 98.799311 60.689228 
L 98.300225 62.270806 
L 97.043771 64.307118 
L 96.296041 67.492914 
L 94.15955 69.97622 
L 93.984664 71.032794 
L 94.265028 72.537426 
L 92.912179 74.89294 
L 92.443514 76.189997 
L 92.6636 78.222953 
L 92.618561 80.020491 
L 92.754816 80.964656 
L 93.087405 81.802568 
L 93.188271 82.791913 
L 93.499197 83.654909 
L 93.3615 84.929426 
L 93.573852 85.776191 
L 93.484552 88.038507 
L 94.551744 89.827376 
L 94.82191 92.198608 
L 94.516406 95.704266 
L 94.947643 97.132875 
L 95.627098 97.67987 
L 96.223994 99.47166 
L 96.482 101.701271 
L 97.333325 102.316401 
L 97.913023 102.890079 
L 98.316192 105.220967 
L 98.884792 106.702857 
L 100.426698 107.900865 
L 100.859677 109.828065 
L 100.632224 110.918398 
L 101.258009 112.441616 
L 102.288329 112.89019 
L 105.040828 115.87747 
L 105.298615 116.581285 
L 107.885807 117.908563 
L 108.868478 118.254313 
L 109.561119 119.005695 
L 109.869738 119.894691 
L 110.398407 120.736778 
L 111.295077 121.798041 
L 114.311384 122.674169 
L 115.952195 123.394425 
L 117.741335 126.61152 
L 118.538356 127.190133 
L 121.239412 128.24262 
L 121.569662 128.145201 
L 122.512979 127.499122 
L 124.769409 127.565004 
L 125.920618 128.199943 
L 129.125029 128.61436 
L 129.869145 129.130161 
L 130.093231 129.471681 
L 131.06687 129.525706 
L 132.015785 129.693181 
L 134.109475 129.810043 
L 137.406344 130.577321 
L 139.172364 130.778182 
L 141.579045 130.094749 
L 144.50722 130.655331 
L 145.295173 130.581289 
L 148.078259 129.042951 
L 149.318586 129.194594 
L 151.377571 128.168239 
L 151.690133 128.268006 
L 154.912398 126.661909 
L 156.333074 126.7677 
L 157.941816 125.94105 
L 158.255901 125.945326 
L 159.170813 125.680137 
L 160.735424 124.341978 
L 161.656035 122.790761 
L 162.836233 121.300151 
L 162.933644 120.657497 
L 164.259943 117.002865 
L 164.276934 116.529632 
L 165.597843 113.606369 
L 165.338363 112.662564 
L 165.06157 111.062656 
L 165.368879 107.904093 
L 165.277558 107.642978 
L 165.644721 106.115462 
L 164.885632 104.337857 
L 164.684825 102.142674 
L 164.470193 101.326536 
L 164.512653 100.258581 
L 165.36554 99.121588 
L 165.537579 96.839298 
L 164.900833 95.764714 
L 164.860144 93.822556 
L 164.274935 92.530881 
L 163.644663 90.459184 
L 163.040285 89.316303 
L 163.09069 88.206234 
L 163.934474 86.824671 
L 164.1996 84.794795 
L 163.829962 82.966354 
L 162.234371 81.690919 
L 161.124105 80.385265 
L 159.749759 79.614638 
L 158.3344 77.689567 
L 157.948335 75.827864 
L 157.346153 75.434975 
L 155.334881 73.386338 
L 154.530935 72.754834 
L 153.743917 71.894956 
L 152.997424 71.614492 
L 152.072202 70.843096 
L 151.266598 70.475712 
L 150.540523 69.670452 
L 150.002341 67.918183 
L 149.660965 67.338143 
L 147.675978 66.090739 
L 145.380132 63.861216 
L 144.37487 62.349321 
L 141.45211 61.266782 
L 140.775234 60.215517 
L 139.626656 60.093408 
L 138.213962 59.536982 
L 137.603541 58.9862 
L 134.069415 56.403025 
L 132.309127 55.872696 
L 129.732786 53.889826 
L 129.439199 53.479951 
L 128.691787 53.196438 
L 126.140838 53.558595 
L 125.136916 52.98536 
L 124.333297 52.255311 
L 122.084296 50.852326 
L 120.999811 50.629057 
L 117.485658 51.104431 
L 115.268423 50.914719 
L 114.725219 50.4048 
L 113.536829 49.469335 
L 110.890367 48.773391 
L 110.450878 48.220321 
L 108.309494 46.849175 
L 105.715475 47.086714 
L 103.950557 46.841555 
L 103.950557 46.841555 
" clip-path="url(#p779bff184b)" style="fill: none; stroke: #1f77b4; stroke-width: 1.5; stroke-linecap: square"/>
   </g>
   <g id="text_1">
    <!-- SRV-control -->
    <g transform="translate(71.778493 28.56) scale(0.2 -0.2)">
     <defs>
      <path id="DejaVuSans-53" d="M 3425 4513 
L 3425 3897 
Q 3066 4069 2747 4153 
Q 2428 4238 2131 4238 
Q 1616 4238 1336 4038 
Q 1056 3838 1056 3469 
Q 1056 3159 1242 3001 
Q 1428 2844 1947 2747 
L 2328 2669 
Q 3034 2534 3370 2195 
Q 3706 1856 3706 1288 
Q 3706 609 3251 259 
Q 2797 -91 1919 -91 
Q 1588 -91 1214 -16 
Q 841 59 441 206 
L 441 856 
Q 825 641 1194 531 
Q 1563 422 1919 422 
Q 2459 422 2753 634 
Q 3047 847 3047 1241 
Q 3047 1584 2836 1778 
Q 2625 1972 2144 2069 
L 1759 2144 
Q 1053 2284 737 2584 
Q 422 2884 422 3419 
Q 422 4038 858 4394 
Q 1294 4750 2059 4750 
Q 2388 4750 2728 4690 
Q 3069 4631 3425 4513 
z
" transform="scale(0.015625)"/>
      <path id="DejaVuSans-52" d="M 2841 2188 
Q 3044 2119 3236 1894 
Q 3428 1669 3622 1275 
L 4263 0 
L 3584 0 
L 2988 1197 
Q 2756 1666 2539 1819 
Q 2322 1972 1947 1972 
L 1259 1972 
L 1259 0 
L 628 0 
L 628 4666 
L 2053 4666 
Q 2853 4666 3247 4331 
Q 3641 3997 3641 3322 
Q 3641 2881 3436 2590 
Q 3231 2300 2841 2188 
z
M 1259 4147 
L 1259 2491 
L 2053 2491 
Q 2509 2491 2742 2702 
Q 2975 2913 2975 3322 
Q 2975 3731 2742 3939 
Q 2509 4147 2053 4147 
L 1259 4147 
z
" transform="scale(0.015625)"/>
      <path id="DejaVuSans-56" d="M 1831 0 
L 50 4666 
L 709 4666 
L 2188 738 
L 3669 4666 
L 4325 4666 
L 2547 0 
L 1831 0 
z
" transform="scale(0.015625)"/>
      <path id="DejaVuSans-2d" d="M 313 2009 
L 1997 2009 
L 1997 1497 
L 313 1497 
L 313 2009 
z
" transform="scale(0.015625)"/>
      <path id="DejaVuSans-63" d="M 3122 3366 
L 3122 2828 
Q 2878 2963 2633 3030 
Q 2388 3097 2138 3097 
Q 1578 3097 1268 2742 
Q 959 2388 959 1747 
Q 959 1106 1268 751 
Q 1578 397 2138 397 
Q 2388 397 2633 464 
Q 2878 531 3122 666 
L 3122 134 
Q 2881 22 2623 -34 
Q 2366 -91 2075 -91 
Q 1284 -91 818 406 
Q 353 903 353 1747 
Q 353 2603 823 3093 
Q 1294 3584 2113 3584 
Q 2378 3584 2631 3529 
Q 2884 3475 3122 3366 
z
" transform="scale(0.015625)"/>
      <path id="DejaVuSans-6f" d="M 1959 3097 
Q 1497 3097 1228 2736 
Q 959 2375 959 1747 
Q 959 1119 1226 758 
Q 1494 397 1959 397 
Q 2419 397 2687 759 
Q 2956 1122 2956 1747 
Q 2956 2369 2687 2733 
Q 2419 3097 1959 3097 
z
M 1959 3584 
Q 2709 3584 3137 3096 
Q 3566 2609 3566 1747 
Q 3566 888 3137 398 
Q 2709 -91 1959 -91 
Q 1206 -91 779 398 
Q 353 888 353 1747 
Q 353 2609 779 3096 
Q 1206 3584 1959 3584 
z
" transform="scale(0.015625)"/>
      <path id="DejaVuSans-6e" d="M 3513 2113 
L 3513 0 
L 2938 0 
L 2938 2094 
Q 2938 2591 2744 2837 
Q 2550 3084 2163 3084 
Q 1697 3084 1428 2787 
Q 1159 2491 1159 1978 
L 1159 0 
L 581 0 
L 581 3500 
L 1159 3500 
L 1159 2956 
Q 1366 3272 1645 3428 
Q 1925 3584 2291 3584 
Q 2894 3584 3203 3211 
Q 3513 2838 3513 2113 
z
" transform="scale(0.015625)"/>
      <path id="DejaVuSans-74" d="M 1172 4494 
L 1172 3500 
L 2356 3500 
L 2356 3053 
L 1172 3053 
L 1172 1153 
Q 1172 725 1289 603 
Q 1406 481 1766 481 
L 2356 481 
L 2356 0 
L 1766 0 
Q 1100 0 847 248 
Q 594 497 594 1153 
L 594 3053 
L 172 3053 
L 172 3500 
L 594 3500 
L 594 4494 
L 1172 4494 
z
" transform="scale(0.015625)"/>
      <path id="DejaVuSans-72" d="M 2631 2963 
Q 2534 3019 2420 3045 
Q 2306 3072 2169 3072 
Q 1681 3072 1420 2755 
Q 1159 2438 1159 1844 
L 1159 0 
L 581 0 
L 581 3500 
L 1159 3500 
L 1159 2956 
Q 1341 3275 1631 3429 
Q 1922 3584 2338 3584 
Q 2397 3584 2469 3576 
Q 2541 3569 2628 3553 
L 2631 2963 
z
" transform="scale(0.015625)"/>
      <path id="DejaVuSans-6c" d="M 603 4863 
L 1178 4863 
L 1178 0 
L 603 0 
L 603 4863 
z
" transform="scale(0.015625)"/>
     </defs>
     <use xlink:href="#DejaVuSans-53"/>
     <use xlink:href="#DejaVuSans-52" x="63.476562"/>
     <use xlink:href="#DejaVuSans-56" x="127.458984"/>
     <use xlink:href="#DejaVuSans-2d" x="189.992188"/>
     <use xlink:href="#DejaVuSans-63" x="226.076172"/>
     <use xlink:href="#DejaVuSans-6f" x="281.056641"/>
     <use xlink:href="#DejaVuSans-6e" x="342.238281"/>
     <use xlink:href="#DejaVuSans-74" x="405.617188"/>
     <use xlink:href="#DejaVuSans-72" x="444.826172"/>
     <use xlink:href="#DejaVuSans-6f" x="483.689453"/>
     <use xlink:href="#DejaVuSans-6c" x="544.871094"/>
    </g>
   </g>
  </g>
  <g id="axes_2">
   <g id="line2d_2">
    <path d="M 273.188878 39.141818 
L 273.28926 43.167766 
L 274.604358 45.245228 
L 274.756012 47.644254 
L 275.286894 51.342092 
L 275.476889 57.99388 
L 276.153141 60.66982 
L 276.455129 63.679583 
L 277.890117 66.352487 
L 278.546954 69.433174 
L 276.764428 72.62863 
L 271.640497 74.252813 
L 271.707943 77.234027 
L 273.74496 79.9808 
L 274.001218 81.40269 
L 274.343465 82.379295 
L 274.087535 83.958958 
L 274.450931 84.288239 
L 275.216746 85.256676 
L 275.322958 86.696742 
L 274.102225 88.251152 
L 273.784819 90.544851 
L 270.688028 92.670419 
L 270.551973 93.245202 
L 271.335499 94.635151 
L 269.294753 96.298749 
L 269.115282 97.061359 
L 269.766446 99.463765 
L 270.684507 100.053153 
L 270.718836 100.746344 
L 270.990995 101.195142 
L 270.979012 101.768133 
L 271.273244 102.163321 
L 270.890469 103.512859 
L 271.89944 104.447227 
L 271.712008 106.063625 
L 271.065845 108.54495 
L 271.190584 109.433689 
L 271.86513 109.719822 
L 272.396206 111.286121 
L 273.267908 111.558441 
L 274.013256 111.945569 
L 274.166944 113.146953 
L 274.607121 113.940622 
L 276.650477 114.750337 
L 276.701103 115.887365 
L 275.713479 117.261576 
L 275.825635 117.789584 
L 276.839525 117.974891 
L 278.561998 119.458815 
L 278.539081 120.088135 
L 279.079346 120.126868 
L 279.962541 120.457233 
L 281.054129 120.341676 
L 281.365062 120.692195 
L 281.406791 121.32822 
L 281.767394 122.704961 
L 284.230246 122.820363 
L 285.721209 123.064608 
L 286.033969 124.44069 
L 286.102296 125.576093 
L 286.354327 126.091417 
L 286.704857 126.519299 
L 287.77409 126.579617 
L 288.585934 126.891547 
L 288.943576 126.520175 
L 290.210717 124.895242 
L 291.473872 124.536816 
L 292.276286 125.165927 
L 294.605663 125.13432 
L 295.112241 125.917993 
L 295.316148 127.085278 
L 296.341727 127.245933 
L 297.535863 126.869062 
L 298.53225 127.45807 
L 299.007136 128.096594 
L 299.378151 128.375356 
L 299.75562 128.460351 
L 300.110743 128.682194 
L 301.119578 128.400847 
L 302.601924 129.163601 
L 303.089751 129.11858 
L 303.855761 129.704348 
L 304.369716 129.464046 
L 304.579257 129.693254 
L 305.214332 129.067115 
L 306.327431 128.945725 
L 307.350768 129.737641 
L 307.983016 130.331966 
L 308.727856 130.209514 
L 309.131174 130.339271 
L 309.461121 130.778182 
L 310.226212 130.706787 
L 310.851471 130.399334 
L 311.180027 129.625074 
L 311.593989 129.029827 
L 311.382988 128.503205 
L 310.869353 126.459072 
L 310.919623 125.825209 
L 310.780568 125.710145 
L 310.751564 125.480648 
L 311.057004 124.015727 
L 310.846609 123.770934 
L 310.620735 123.678947 
L 309.930204 122.920347 
L 309.507327 122.117081 
L 309.0584 120.731066 
L 308.877543 120.623094 
L 308.902345 120.103191 
L 308.608895 119.943802 
L 307.236144 118.76621 
L 306.710586 117.079787 
L 306.764476 116.418529 
L 309.710462 114.839172 
L 309.741022 113.477694 
L 308.390752 112.427995 
L 308.099526 111.121186 
L 307.372347 110.20717 
L 307.161425 108.553896 
L 306.829119 107.707595 
L 307.025259 106.691295 
L 310.230057 104.555727 
L 311.437693 102.715607 
L 311.185576 101.797231 
L 310.515807 101.441862 
L 309.563781 101.240419 
L 308.51137 100.676467 
L 306.211863 100.555625 
L 304.923668 99.545773 
L 304.763223 97.623915 
L 303.82578 97.529433 
L 302.669628 96.626374 
L 301.927236 96.290805 
L 301.218366 95.68112 
L 300.4101 95.600526 
L 299.737968 94.959303 
L 298.883137 94.845761 
L 298.479762 94.335924 
L 299.097946 92.208186 
L 298.930767 91.498268 
L 298.737868 91.19818 
L 295.486775 90.355805 
L 293.746915 88.143739 
L 293.017196 86.560078 
L 290.268962 85.83708 
L 290.128219 84.892111 
L 289.863472 84.099287 
L 287.544808 84.367912 
L 285.695908 83.821184 
L 285.05183 82.927967 
L 281.06546 78.960905 
L 279.042616 78.313866 
L 276.597711 75.378084 
L 276.332983 74.161921 
L 275.380044 73.73998 
L 270.623565 74.525665 
L 269.278796 73.16345 
L 268.341647 70.447432 
L 266.147594 66.705401 
L 265.324676 66.064639 
L 260.476106 67.384195 
L 258.521376 66.219957 
L 257.438361 63.988154 
L 254.795343 59.863692 
L 252.009517 57.445594 
L 251.029422 55.888725 
L 250.065241 52.413968 
L 245.604594 46.234548 
L 243.976844 45.556334 
L 241.906011 44.107098 
L 241.906011 44.107098 
" clip-path="url(#pb8f3535eeb)" style="fill: none; stroke: #ff7f0e; stroke-width: 1.5; stroke-linecap: square"/>
   </g>
   <g id="text_2">
    <!-- SRV-cytd -->
    <g transform="translate(232.45625 28.56) scale(0.2 -0.2)">
     <defs>
      <path id="DejaVuSans-79" d="M 2059 -325 
Q 1816 -950 1584 -1140 
Q 1353 -1331 966 -1331 
L 506 -1331 
L 506 -850 
L 844 -850 
Q 1081 -850 1212 -737 
Q 1344 -625 1503 -206 
L 1606 56 
L 191 3500 
L 800 3500 
L 1894 763 
L 2988 3500 
L 3597 3500 
L 2059 -325 
z
" transform="scale(0.015625)"/>
      <path id="DejaVuSans-64" d="M 2906 2969 
L 2906 4863 
L 3481 4863 
L 3481 0 
L 2906 0 
L 2906 525 
Q 2725 213 2448 61 
Q 2172 -91 1784 -91 
Q 1150 -91 751 415 
Q 353 922 353 1747 
Q 353 2572 751 3078 
Q 1150 3584 1784 3584 
Q 2172 3584 2448 3432 
Q 2725 3281 2906 2969 
z
M 947 1747 
Q 947 1113 1208 752 
Q 1469 391 1925 391 
Q 2381 391 2643 752 
Q 2906 1113 2906 1747 
Q 2906 2381 2643 2742 
Q 2381 3103 1925 3103 
Q 1469 3103 1208 2742 
Q 947 2381 947 1747 
z
" transform="scale(0.015625)"/>
     </defs>
     <use xlink:href="#DejaVuSans-53"/>
     <use xlink:href="#DejaVuSans-52" x="63.476562"/>
     <use xlink:href="#DejaVuSans-56" x="127.458984"/>
     <use xlink:href="#DejaVuSans-2d" x="189.992188"/>
     <use xlink:href="#DejaVuSans-63" x="226.076172"/>
     <use xlink:href="#DejaVuSans-79" x="281.056641"/>
     <use xlink:href="#DejaVuSans-74" x="340.236328"/>
     <use xlink:href="#DejaVuSans-64" x="379.445312"/>
    </g>
   </g>
  </g>
  <g id="axes_3">
   <g id="line2d_3">
    <path d="M 416.088743 39.141818 
L 415.968046 41.810434 
L 416.595459 42.866161 
L 416.703218 46.451692 
L 415.118 51.521223 
L 415.294457 53.221361 
L 414.499111 55.571689 
L 415.088033 56.899582 
L 415.011627 58.791878 
L 413.362454 61.402082 
L 409.762595 62.886184 
L 409.480965 63.605556 
L 409.641467 65.385746 
L 410.533608 67.322248 
L 410.301328 68.759786 
L 410.472763 69.539594 
L 410.026453 71.027568 
L 410.212294 71.210326 
L 410.628053 71.985701 
L 410.485978 73.724979 
L 409.621726 75.501835 
L 409.030662 78.557153 
L 405.695331 81.136572 
L 405.591417 82.045021 
L 405.926923 83.453675 
L 404.614881 85.476636 
L 404.388498 86.483469 
L 404.692942 88.13815 
L 404.799541 89.605727 
L 405.022599 90.353819 
L 405.711264 91.074799 
L 405.737937 91.971098 
L 406.05813 92.660174 
L 406.02302 93.58364 
L 406.395431 94.243172 
L 405.989542 96.014799 
L 407.298977 97.355575 
L 407.313814 97.926523 
L 407.511348 98.644406 
L 406.834254 101.507182 
L 407.28151 102.331459 
L 408.541681 102.691764 
L 409.122094 104.147328 
L 409.580625 105.724607 
L 411.979559 106.794363 
L 412.303757 108.349164 
L 412.661562 109.404013 
L 414.051119 110.331522 
L 414.24937 111.991869 
L 413.61869 113.25027 
L 414.039943 114.167281 
L 415.051932 114.386219 
L 417.263851 116.877519 
L 417.523287 117.404752 
L 418.621303 117.513271 
L 420.730582 118.375812 
L 421.314049 119.195828 
L 421.403839 120.407831 
L 421.641514 121.347056 
L 422.276281 122.418671 
L 425.399883 123.802356 
L 425.809598 125.606485 
L 425.789051 128.231038 
L 426.088368 128.685997 
L 427.069694 128.976228 
L 427.355722 128.714125 
L 428.379473 127.495532 
L 429.610254 127.377434 
L 430.291604 127.875495 
L 432.650542 127.909123 
L 432.965651 128.158418 
L 433.088084 128.590023 
L 433.875332 128.818831 
L 434.632048 128.746274 
L 435.213156 128.88578 
L 436.078304 129.210858 
L 436.867576 129.781107 
L 437.508995 129.996229 
L 438.784472 130.207824 
L 440.241427 130.015768 
L 442.581724 130.778182 
L 443.797497 130.356356 
L 444.764332 130.7171 
L 446.09192 129.864178 
L 446.39862 130.095249 
L 446.975893 129.782501 
L 449.503404 129.212746 
L 450.601966 129.646842 
L 451.509723 129.960437 
L 452.407704 129.788303 
L 453.290289 130.160517 
L 454.225249 130.213507 
L 455.03149 129.675326 
L 455.626117 128.609086 
L 456.33503 127.618705 
L 456.19754 127.06542 
L 456.647831 125.089772 
L 456.871578 124.399778 
L 456.777675 124.300617 
L 456.551816 123.846303 
L 457.181703 122.120021 
L 456.183636 120.483213 
L 456.01827 118.340748 
L 455.884254 118.200173 
L 456.413904 116.522635 
L 454.873386 115.05498 
L 454.430169 113.128515 
L 454.457245 112.418497 
L 456.593928 110.744613 
L 456.718432 108.884121 
L 455.471249 107.802206 
L 455.110353 106.452072 
L 454.371554 105.375651 
L 453.554599 102.737868 
L 453.822181 101.578028 
L 455.367948 100.079509 
L 456.122234 98.182887 
L 455.895775 96.796803 
L 455.123959 96.308534 
L 454.172137 96.023886 
L 452.997184 95.174191 
L 451.482724 94.653242 
L 449.997344 93.089273 
L 449.567036 90.884868 
L 448.94706 90.640438 
L 447.152836 89.126631 
L 446.396835 88.639239 
L 445.785954 88.097913 
L 444.924815 87.923376 
L 444.314504 87.217575 
L 443.632592 86.838957 
L 442.990202 86.15492 
L 442.910958 85.004345 
L 442.454235 83.600757 
L 439.892793 82.531741 
L 437.636533 80.106762 
L 436.661476 78.406755 
L 434.5809 77.786725 
L 433.662286 77.372532 
L 433.412301 76.638636 
L 433.061051 76.000708 
L 431.298814 76.222676 
L 429.724832 75.614319 
L 429.141787 74.892899 
L 425.20981 71.677238 
L 423.524904 70.974094 
L 420.821394 68.387363 
L 420.641056 67.602771 
L 420.080433 67.260022 
L 417.026518 67.830958 
L 416.039291 66.992076 
L 415.165097 65.663663 
L 412.855673 63.48421 
L 411.479391 63.200228 
L 407.50926 63.689875 
L 404.894472 63.031271 
L 404.119811 62.050965 
L 402.091888 59.968459 
L 400.304436 58.725204 
L 399.713811 57.890286 
L 399.14374 56.233185 
L 395.572485 52.815579 
L 393.6933 52.420448 
L 391.730062 51.170512 
L 391.730062 51.170512 
" clip-path="url(#pf066922443)" style="fill: none; stroke: #2ca02c; stroke-width: 1.5; stroke-linecap: square"/>
   </g>
   <g id="text_3">
    <!-- SRV-jasp -->
    <g transform="translate(381.384007 28.56) scale(0.2 -0.2)">
     <defs>
      <path id="DejaVuSans-6a" d="M 603 3500 
L 1178 3500 
L 1178 -63 
Q 1178 -731 923 -1031 
Q 669 -1331 103 -1331 
L -116 -1331 
L -116 -844 
L 38 -844 
Q 366 -844 484 -692 
Q 603 -541 603 -63 
L 603 3500 
z
M 603 4863 
L 1178 4863 
L 1178 4134 
L 603 4134 
L 603 4863 
z
" transform="scale(0.015625)"/>
      <path id="DejaVuSans-61" d="M 2194 1759 
Q 1497 1759 1228 1600 
Q 959 1441 959 1056 
Q 959 750 1161 570 
Q 1363 391 1709 391 
Q 2188 391 2477 730 
Q 2766 1069 2766 1631 
L 2766 1759 
L 2194 1759 
z
M 3341 1997 
L 3341 0 
L 2766 0 
L 2766 531 
Q 2569 213 2275 61 
Q 1981 -91 1556 -91 
Q 1019 -91 701 211 
Q 384 513 384 1019 
Q 384 1609 779 1909 
Q 1175 2209 1959 2209 
L 2766 2209 
L 2766 2266 
Q 2766 2663 2505 2880 
Q 2244 3097 1772 3097 
Q 1472 3097 1187 3025 
Q 903 2953 641 2809 
L 641 3341 
Q 956 3463 1253 3523 
Q 1550 3584 1831 3584 
Q 2591 3584 2966 3190 
Q 3341 2797 3341 1997 
z
" transform="scale(0.015625)"/>
      <path id="DejaVuSans-73" d="M 2834 3397 
L 2834 2853 
Q 2591 2978 2328 3040 
Q 2066 3103 1784 3103 
Q 1356 3103 1142 2972 
Q 928 2841 928 2578 
Q 928 2378 1081 2264 
Q 1234 2150 1697 2047 
L 1894 2003 
Q 2506 1872 2764 1633 
Q 3022 1394 3022 966 
Q 3022 478 2636 193 
Q 2250 -91 1575 -91 
Q 1294 -91 989 -36 
Q 684 19 347 128 
L 347 722 
Q 666 556 975 473 
Q 1284 391 1588 391 
Q 1994 391 2212 530 
Q 2431 669 2431 922 
Q 2431 1156 2273 1281 
Q 2116 1406 1581 1522 
L 1381 1569 
Q 847 1681 609 1914 
Q 372 2147 372 2553 
Q 372 3047 722 3315 
Q 1072 3584 1716 3584 
Q 2034 3584 2315 3537 
Q 2597 3491 2834 3397 
z
" transform="scale(0.015625)"/>
      <path id="DejaVuSans-70" d="M 1159 525 
L 1159 -1331 
L 581 -1331 
L 581 3500 
L 1159 3500 
L 1159 2969 
Q 1341 3281 1617 3432 
Q 1894 3584 2278 3584 
Q 2916 3584 3314 3078 
Q 3713 2572 3713 1747 
Q 3713 922 3314 415 
Q 2916 -91 2278 -91 
Q 1894 -91 1617 61 
Q 1341 213 1159 525 
z
M 3116 1747 
Q 3116 2381 2855 2742 
Q 2594 3103 2138 3103 
Q 1681 3103 1420 2742 
Q 1159 2381 1159 1747 
Q 1159 1113 1420 752 
Q 1681 391 2138 391 
Q 2594 391 2855 752 
Q 3116 1113 3116 1747 
z
" transform="scale(0.015625)"/>
     </defs>
     <use xlink:href="#DejaVuSans-53"/>
     <use xlink:href="#DejaVuSans-52" x="63.476562"/>
     <use xlink:href="#DejaVuSans-56" x="127.458984"/>
     <use xlink:href="#DejaVuSans-2d" x="189.992188"/>
     <use xlink:href="#DejaVuSans-6a" x="226.076172"/>
     <use xlink:href="#DejaVuSans-61" x="253.859375"/>
     <use xlink:href="#DejaVuSans-73" x="315.138672"/>
     <use xlink:href="#DejaVuSans-70" x="367.238281"/>
    </g>
   </g>
  </g>
  <g id="axes_4">
   <g id="line2d_4">
    <path d="M 107.449377 163.090452 
L 105.452779 164.043336 
L 105.208269 165.146757 
L 105.361141 165.622548 
L 104.771359 166.418554 
L 104.228969 167.556939 
L 102.092139 170.160155 
L 101.764008 171.042982 
L 100.900709 172.120592 
L 100.983484 172.821353 
L 100.7089 173.921282 
L 98.470719 176.096311 
L 95.56571 177.43913 
L 95.177893 178.183921 
L 94.155764 180.390398 
L 94.36825 181.646923 
L 93.899892 182.730272 
L 93.781594 183.370521 
L 92.289358 185.216795 
L 92.471007 185.366608 
L 92.702423 185.865008 
L 92.18581 187.282409 
L 90.803981 189.128255 
L 90.188774 192.054783 
L 88.616571 193.264351 
L 87.702188 194.193449 
L 87.518158 195.164665 
L 87.991235 196.636155 
L 86.444404 198.769439 
L 85.857942 199.957194 
L 86.12552 201.878027 
L 85.896868 203.65859 
L 85.954659 204.627406 
L 86.412765 205.468463 
L 86.382274 206.507009 
L 86.739009 207.339747 
L 86.231501 208.761936 
L 86.494527 209.589753 
L 86.104569 211.902981 
L 87.301719 213.572044 
L 87.571925 215.901238 
L 86.986105 219.232192 
L 87.29287 220.741053 
L 88.218011 221.187973 
L 88.657792 223.03225 
L 88.542758 225.37315 
L 89.541548 225.927805 
L 90.203327 226.438205 
L 90.456965 228.793999 
L 90.937225 230.296689 
L 92.837043 231.157281 
L 93.150092 233.052432 
L 92.628742 234.303144 
L 93.075213 235.185534 
L 93.232614 235.951409 
L 94.750993 236.15344 
L 97.633208 238.821861 
L 97.731516 239.742703 
L 98.750697 240.059981 
L 100.692647 240.943921 
L 101.910302 241.057916 
L 102.56157 241.776627 
L 102.727189 242.789833 
L 103.314318 243.626884 
L 104.222922 244.696523 
L 107.237265 245.295495 
L 108.989929 245.820649 
L 109.65362 247.199879 
L 110.148822 248.737804 
L 110.636077 249.465197 
L 111.497083 249.966417 
L 113.298534 250.409744 
L 114.753699 250.974811 
L 115.201996 250.740663 
L 116.618386 249.23679 
L 119.073602 249.156476 
L 120.289103 250.089079 
L 123.712296 250.248038 
L 124.548094 250.812523 
L 124.686509 251.397347 
L 125.858693 251.268062 
L 126.899006 251.421695 
L 128.158757 251.437986 
L 129.241099 251.298327 
L 130.545058 251.322157 
L 131.825281 251.68006 
L 132.850909 251.730494 
L 133.910139 251.610627 
L 134.822838 251.738182 
L 137.450696 250.574048 
L 140.834504 250.883664 
L 141.822806 250.568495 
L 145.0652 248.286886 
L 145.977131 248.11541 
L 146.267421 247.833623 
L 146.870621 247.917418 
L 149.450326 246.012515 
L 149.828826 246.046301 
L 149.927631 246.189157 
L 151.965759 244.154277 
L 154.266912 242.633037 
L 156.324308 242.662773 
L 158.609247 240.911149 
L 159.026215 240.926558 
L 160.219035 240.514116 
L 161.946219 239.024391 
L 162.997461 237.190192 
L 164.503168 235.500078 
L 164.603397 234.72685 
L 167.334259 230.155866 
L 167.483107 229.478094 
L 169.588185 225.906212 
L 169.492946 225.620221 
L 169.537844 225.364793 
L 169.831394 224.535578 
L 169.744064 224.200905 
L 169.932485 223.151256 
L 169.850685 221.954118 
L 170.82242 218.257897 
L 170.730328 217.966446 
L 171.586411 215.903331 
L 170.700046 214.065384 
L 170.654876 211.835601 
L 170.4272 211.056259 
L 170.476605 210.050352 
L 171.990549 208.927187 
L 172.230293 206.77846 
L 171.330782 205.72843 
L 171.481626 203.834637 
L 170.641808 202.560572 
L 170.047142 200.585677 
L 169.28036 199.504302 
L 169.341527 198.469418 
L 170.174459 197.857045 
L 170.770073 197.108566 
L 171.018497 194.970245 
L 170.638069 193.100608 
L 168.9179 191.860788 
L 167.855603 190.410769 
L 166.393282 189.761618 
L 165.122562 187.852011 
L 165.350677 185.514945 
L 164.769253 185.368825 
L 162.895221 183.211447 
L 162.080307 182.567038 
L 161.396853 181.527611 
L 160.52425 181.373926 
L 159.633262 180.489005 
L 158.745151 180.235114 
L 158.098068 179.486315 
L 158.056989 178.480959 
L 157.848083 177.614947 
L 157.532636 177.043347 
L 155.534566 176.0259 
L 153.424957 173.999915 
L 152.534735 172.564082 
L 149.482635 171.842043 
L 149.370162 171.101682 
L 149.035327 170.531167 
L 147.719401 170.706137 
L 146.349834 170.252039 
L 145.760074 169.708935 
L 142.565314 167.419385 
L 140.808038 167.048491 
L 138.505754 165.151472 
L 138.260942 164.588563 
L 137.451401 164.374721 
L 134.795198 165.100242 
L 133.859331 164.597549 
L 133.125717 163.859803 
L 130.802398 162.647285 
L 129.702334 162.589778 
L 126.471609 163.359461 
L 124.350888 163.420746 
L 123.902091 162.905324 
L 122.661072 162.029581 
L 120.399069 161.923814 
L 119.199671 162.01799 
L 118.838093 161.348749 
L 116.49607 160.101818 
L 113.698097 160.802089 
L 111.823748 160.669824 
L 111.823748 160.669824 
" clip-path="url(#pb3ab1d172e)" style="fill: none; stroke: #1f77b4; stroke-width: 1.5; stroke-linecap: square"/>
   </g>
   <g id="text_4">
    <!-- Linear-control -->
    <g transform="translate(60.336305 149.52) scale(0.2 -0.2)">
     <defs>
      <path id="DejaVuSans-4c" d="M 628 4666 
L 1259 4666 
L 1259 531 
L 3531 531 
L 3531 0 
L 628 0 
L 628 4666 
z
" transform="scale(0.015625)"/>
      <path id="DejaVuSans-69" d="M 603 3500 
L 1178 3500 
L 1178 0 
L 603 0 
L 603 3500 
z
M 603 4863 
L 1178 4863 
L 1178 4134 
L 603 4134 
L 603 4863 
z
" transform="scale(0.015625)"/>
      <path id="DejaVuSans-65" d="M 3597 1894 
L 3597 1613 
L 953 1613 
Q 991 1019 1311 708 
Q 1631 397 2203 397 
Q 2534 397 2845 478 
Q 3156 559 3463 722 
L 3463 178 
Q 3153 47 2828 -22 
Q 2503 -91 2169 -91 
Q 1331 -91 842 396 
Q 353 884 353 1716 
Q 353 2575 817 3079 
Q 1281 3584 2069 3584 
Q 2775 3584 3186 3129 
Q 3597 2675 3597 1894 
z
M 3022 2063 
Q 3016 2534 2758 2815 
Q 2500 3097 2075 3097 
Q 1594 3097 1305 2825 
Q 1016 2553 972 2059 
L 3022 2063 
z
" transform="scale(0.015625)"/>
     </defs>
     <use xlink:href="#DejaVuSans-4c"/>
     <use xlink:href="#DejaVuSans-69" x="55.712891"/>
     <use xlink:href="#DejaVuSans-6e" x="83.496094"/>
     <use xlink:href="#DejaVuSans-65" x="146.875"/>
     <use xlink:href="#DejaVuSans-61" x="208.398438"/>
     <use xlink:href="#DejaVuSans-72" x="269.677734"/>
     <use xlink:href="#DejaVuSans-2d" x="304.416016"/>
     <use xlink:href="#DejaVuSans-63" x="340.5"/>
     <use xlink:href="#DejaVuSans-6f" x="395.480469"/>
     <use xlink:href="#DejaVuSans-6e" x="456.662109"/>
     <use xlink:href="#DejaVuSans-74" x="520.041016"/>
     <use xlink:href="#DejaVuSans-72" x="559.25"/>
     <use xlink:href="#DejaVuSans-6f" x="598.113281"/>
     <use xlink:href="#DejaVuSans-6c" x="659.294922"/>
    </g>
   </g>
  </g>
  <g id="axes_5">
   <g id="line2d_5">
    <path d="M 249.560305 161.539445 
L 248.614341 162.203028 
L 248.678667 165.133479 
L 250.363597 166.737748 
L 249.851082 168.686701 
L 250.000891 171.413977 
L 249.686463 176.310645 
L 250.031064 178.297839 
L 249.779542 180.631234 
L 251.099092 182.545983 
L 251.538669 184.697782 
L 249.614933 187.120709 
L 244.004303 188.137234 
L 244.268476 188.932978 
L 244.021707 191.139438 
L 246.347683 193.786169 
L 246.210961 195.462201 
L 246.422745 196.568491 
L 245.311448 198.651158 
L 245.924489 199.048505 
L 247.129034 200.16027 
L 247.182138 201.569994 
L 245.282064 203.074523 
L 245.154513 205.514889 
L 240.763415 207.218426 
L 240.623143 207.800621 
L 242.146328 209.529032 
L 238.517422 210.965854 
L 238.005429 211.88714 
L 238.626096 214.03133 
L 238.661311 214.636003 
L 240.493757 215.121858 
L 240.011564 216.354375 
L 240.433407 216.962292 
L 239.907225 218.019039 
L 240.35105 218.569548 
L 238.972875 220.600519 
L 240.868572 221.666005 
L 240.145118 223.009602 
L 239.027851 224.388222 
L 237.810284 227.265674 
L 237.695335 228.255941 
L 237.442946 228.70817 
L 238.789865 228.796431 
L 238.813705 231.45416 
L 240.493506 231.409664 
L 241.875241 231.648553 
L 241.548645 233.668179 
L 242.222733 234.784256 
L 245.142123 235.465782 
L 244.956313 237.142687 
L 242.756206 239.208144 
L 242.652029 239.630876 
L 242.793823 240.051609 
L 244.85649 239.972888 
L 247.968436 242.481125 
L 247.50507 243.688692 
L 248.949766 243.017437 
L 250.427984 243.522796 
L 252.410382 242.692185 
L 252.851218 243.161534 
L 252.735949 244.39429 
L 252.925608 245.265517 
L 253.049469 246.639465 
L 259.671611 245.976404 
L 259.890453 248.22188 
L 259.808347 249.995418 
L 260.806082 251.435789 
L 263.11393 251.013235 
L 264.617622 251.738182 
L 264.900656 250.146067 
L 266.572401 245.712255 
L 268.406088 244.674591 
L 269.749348 246.334918 
L 273.513267 245.888745 
L 274.288036 247.749863 
L 274.385299 250.644068 
L 275.148503 250.446472 
L 277.115384 249.780062 
L 279.737566 247.807012 
L 280.757828 247.89143 
L 281.643213 248.203766 
L 282.202306 249.360563 
L 282.840878 249.738927 
L 283.738704 249.413948 
L 284.235793 249.75387 
L 286.189088 248.161629 
L 287.511062 248.769259 
L 288.453659 248.771539 
L 288.756971 249.037827 
L 289.914797 248.482513 
L 290.521885 249.000859 
L 292.396283 250.241116 
L 293.890492 248.840336 
L 294.444563 249.021849 
L 294.537776 249.70034 
L 295.803352 246.810969 
L 296.875632 245.868719 
L 298.515239 244.827743 
L 299.390297 245.240953 
L 300.42601 246.268106 
L 301.358447 247.550804 
L 302.875134 246.610599 
L 303.694749 246.924479 
L 304.063107 248.412149 
L 305.363414 248.040958 
L 306.330481 247.516087 
L 306.841907 245.768926 
L 308.038862 244.750819 
L 307.523222 243.91633 
L 306.941369 241.353082 
L 308.134113 238.833685 
L 307.795755 238.574578 
L 309.11313 237.911011 
L 310.606379 234.325179 
L 310.260191 233.697123 
L 309.843668 233.63361 
L 309.586026 232.374173 
L 309.165031 231.94567 
L 308.945534 230.357396 
L 308.939512 228.057191 
L 308.438502 228.145233 
L 309.012134 226.822392 
L 308.535974 226.783488 
L 306.514514 225.537863 
L 306.021341 223.531513 
L 306.165645 222.744674 
L 311.342253 221.189483 
L 311.655678 219.607815 
L 309.448847 218.604848 
L 309.28752 217.206813 
L 308.067534 216.371407 
L 308.296545 214.43192 
L 307.74271 213.274999 
L 308.018604 212.193085 
L 311.202456 211.327485 
L 314.029186 210.311491 
L 316.057054 208.180379 
L 315.895928 207.107744 
L 315.08436 206.887623 
L 313.921822 206.806869 
L 312.898883 206.018547 
L 310.043353 206.43931 
L 308.736641 205.179548 
L 309.384207 201.923365 
L 307.930346 202.425852 
L 307.004661 201.872296 
L 306.429832 201.348186 
L 305.79362 200.221765 
L 304.608963 200.597585 
L 304.05859 199.296112 
L 303.037718 199.312939 
L 302.815781 198.722557 
L 305.335775 195.315661 
L 305.394797 194.393193 
L 305.356316 194.399207 
L 301.525575 194.423831 
L 300.132542 191.780804 
L 299.550359 190.102455 
L 295.55098 190.504723 
L 295.966281 188.969863 
L 295.94568 187.850374 
L 293.106486 188.919569 
L 290.803561 188.936255 
L 290.158395 187.900053 
L 286.932367 184.35394 
L 284.66528 184.258716 
L 282.843998 181.651632 
L 282.782288 180.070489 
L 281.736639 179.866104 
L 276.662763 181.56511 
L 275.449555 180.574958 
L 274.970554 178.16162 
L 273.544159 175.534315 
L 273.351082 174.93418 
L 272.62329 174.469338 
L 268.15675 176.705778 
L 266.543119 175.933053 
L 265.85877 174.279025 
L 263.67866 171.389116 
L 261.157387 169.950916 
L 260.269301 168.920335 
L 259.85926 166.127447 
L 256.590252 161.575419 
L 254.998252 161.298497 
L 253.229108 160.101818 
L 253.229108 160.101818 
" clip-path="url(#pc4702a9a08)" style="fill: none; stroke: #ff7f0e; stroke-width: 1.5; stroke-linecap: square"/>
   </g>
   <g id="text_5">
    <!-- Linear-cytd -->
    <g transform="translate(221.014062 149.52) scale(0.2 -0.2)">
     <use xlink:href="#DejaVuSans-4c"/>
     <use xlink:href="#DejaVuSans-69" x="55.712891"/>
     <use xlink:href="#DejaVuSans-6e" x="83.496094"/>
     <use xlink:href="#DejaVuSans-65" x="146.875"/>
     <use xlink:href="#DejaVuSans-61" x="208.398438"/>
     <use xlink:href="#DejaVuSans-72" x="269.677734"/>
     <use xlink:href="#DejaVuSans-2d" x="304.416016"/>
     <use xlink:href="#DejaVuSans-63" x="340.5"/>
     <use xlink:href="#DejaVuSans-79" x="395.480469"/>
     <use xlink:href="#DejaVuSans-74" x="454.660156"/>
     <use xlink:href="#DejaVuSans-64" x="493.869141"/>
    </g>
   </g>
  </g>
  <g id="axes_6">
   <g id="line2d_6">
    <path d="M 402.259005 161.422225 
L 401.43042 161.964107 
L 401.356538 164.040164 
L 402.173494 164.923864 
L 401.851987 166.211915 
L 401.811127 168.007841 
L 399.812325 172.080363 
L 400.034233 173.568247 
L 398.214685 175.931095 
L 398.409985 176.660657 
L 398.87822 177.229757 
L 398.773954 178.807195 
L 397.15735 180.990704 
L 392.812897 182.045997 
L 392.213442 182.866351 
L 392.314909 184.782966 
L 393.433163 186.720219 
L 392.673108 188.371544 
L 392.849814 189.319924 
L 391.737157 191.215232 
L 392.254371 191.476223 
L 392.958819 192.333131 
L 392.857169 193.895281 
L 391.798721 195.574509 
L 391.431167 198.530845 
L 388.421559 199.798757 
L 386.574005 200.453063 
L 386.441555 201.294647 
L 387.130657 202.848617 
L 385.206821 204.783587 
L 384.879435 205.746453 
L 385.216436 207.328838 
L 385.237365 208.855168 
L 385.473401 209.598411 
L 387.122935 210.137444 
L 386.819222 211.292704 
L 387.400183 212.104553 
L 386.878013 213.328519 
L 387.399317 214.067993 
L 386.052783 216.312311 
L 388.033137 217.549787 
L 387.911686 218.025108 
L 388.174487 218.778659 
L 386.801063 221.97507 
L 387.017374 222.458554 
L 387.07103 223.161928 
L 389.242156 223.170159 
L 389.902234 224.920588 
L 390.090803 226.777666 
L 392.108977 227.232171 
L 393.474477 227.320262 
L 393.767359 230.631042 
L 395.642349 231.498868 
L 395.782164 233.325249 
L 394.568545 234.951556 
L 394.943259 235.544372 
L 395.103798 236.047587 
L 396.698748 236.000488 
L 398.927568 238.810034 
L 399.244221 239.572201 
L 400.917625 239.253866 
L 402.504875 239.696829 
L 404.075494 239.49138 
L 404.627149 240.291927 
L 404.321464 241.863659 
L 404.508144 242.931781 
L 405.194807 244.164618 
L 409.377425 245.143561 
L 409.605405 247.363945 
L 408.881489 250.823966 
L 409.219947 251.405094 
L 410.650298 251.738182 
L 412.61689 247.316473 
L 414.3365 246.81339 
L 415.264033 247.742261 
L 418.994019 247.252136 
L 419.049881 248.199235 
L 420.504309 248.337285 
L 422.06911 247.552577 
L 422.985038 247.545983 
L 424.362766 247.839167 
L 425.338277 248.662144 
L 426.268166 248.815111 
L 427.18357 248.806583 
L 428.073619 248.947122 
L 430.23726 248.144307 
L 431.926121 248.384757 
L 432.849115 248.75595 
L 433.41039 248.846506 
L 435.448125 247.640997 
L 436.313138 247.769286 
L 436.433177 246.901704 
L 437.132206 247.145188 
L 439.747031 244.359819 
L 440.16241 244.461825 
L 440.283068 244.853455 
L 441.533675 243.300526 
L 442.826085 242.568198 
L 445.426436 241.426748 
L 446.135475 241.851063 
L 447.298132 241.877169 
L 448.728769 242.349933 
L 450.107086 241.245708 
L 450.868422 241.50164 
L 451.396901 241.917133 
L 452.686292 241.968416 
L 453.745343 241.188672 
L 454.855574 239.450406 
L 456.35387 238.022218 
L 456.017422 237.189296 
L 457.242674 234.839415 
L 459.214922 234.238071 
L 460.222209 232.890163 
L 460.007082 232.683445 
L 459.647433 231.439334 
L 461.090274 228.71923 
L 460.924484 228.446399 
L 460.619608 228.442249 
L 460.579318 228.003465 
L 460.732449 227.294925 
L 460.485385 226.749526 
L 460.246398 225.942243 
L 460.760534 222.737929 
L 460.480081 222.638453 
L 461.957061 219.91043 
L 461.559533 219.645268 
L 459.954453 218.33767 
L 459.912157 216.818189 
L 459.764897 216.232735 
L 459.819769 215.507118 
L 463.736841 213.558431 
L 464.03233 211.589621 
L 462.20165 210.524522 
L 461.908255 209.141501 
L 460.626272 208.014009 
L 460.109948 206.196268 
L 459.433969 205.208102 
L 459.738812 204.058822 
L 461.533691 203.793468 
L 462.716795 203.018037 
L 463.562213 201.030251 
L 463.406261 199.58197 
L 462.609421 199.190118 
L 461.552785 199.085708 
L 460.495984 198.008178 
L 459.684159 197.732305 
L 458.361684 196.089457 
L 458.552379 192.994301 
L 457.976998 192.75798 
L 455.598436 190.440355 
L 455.18675 190.142803 
L 454.143228 190.13993 
L 453.96989 188.636666 
L 452.757401 187.425501 
L 453.098186 185.87763 
L 452.863677 185.025358 
L 453.043185 184.092231 
L 450.446837 183.419902 
L 448.538725 181.078509 
L 447.689867 179.348379 
L 445.35283 179.224154 
L 444.336978 179.029605 
L 444.506502 177.82313 
L 444.332882 176.964413 
L 442.112275 177.929755 
L 440.494294 177.550901 
L 440.002805 176.743919 
L 436.512405 174.01687 
L 434.692101 173.596822 
L 432.28173 171.396967 
L 432.315388 170.329087 
L 431.482115 170.210308 
L 427.727468 171.792634 
L 426.809843 171.10283 
L 426.173229 169.770687 
L 424.255474 168.277601 
L 424.057495 167.859866 
L 422.723073 167.891498 
L 419.124675 169.092979 
L 416.905244 168.851807 
L 416.358431 168.05522 
L 414.443828 166.444154 
L 412.476915 165.799448 
L 411.968731 165.15924 
L 411.665567 163.615819 
L 408.623599 161.191771 
L 406.741246 161.166323 
L 405.005378 160.101818 
L 405.005378 160.101818 
" clip-path="url(#pccef488608)" style="fill: none; stroke: #2ca02c; stroke-width: 1.5; stroke-linecap: square"/>
   </g>
   <g id="text_6">
    <!-- Linear-jasp -->
    <g transform="translate(369.94182 149.52) scale(0.2 -0.2)">
     <use xlink:href="#DejaVuSans-4c"/>
     <use xlink:href="#DejaVuSans-69" x="55.712891"/>
     <use xlink:href="#DejaVuSans-6e" x="83.496094"/>
     <use xlink:href="#DejaVuSans-65" x="146.875"/>
     <use xlink:href="#DejaVuSans-61" x="208.398438"/>
     <use xlink:href="#DejaVuSans-72" x="269.677734"/>
     <use xlink:href="#DejaVuSans-2d" x="304.416016"/>
     <use xlink:href="#DejaVuSans-6a" x="340.5"/>
     <use xlink:href="#DejaVuSans-61" x="368.283203"/>
     <use xlink:href="#DejaVuSans-73" x="429.5625"/>
     <use xlink:href="#DejaVuSans-70" x="481.662109"/>
    </g>
   </g>
  </g>
 </g>
 <defs>
  <clipPath id="p779bff184b">
   <rect x="67.5" y="34.56" width="123.088235" height="100.8"/>
  </clipPath>
  <clipPath id="pb8f3535eeb">
   <rect x="215.205882" y="34.56" width="123.088235" height="100.8"/>
  </clipPath>
  <clipPath id="pf066922443">
   <rect x="362.911765" y="34.56" width="123.088235" height="100.8"/>
  </clipPath>
  <clipPath id="pb3ab1d172e">
   <rect x="67.5" y="155.52" width="123.088235" height="100.8"/>
  </clipPath>
  <clipPath id="pc4702a9a08">
   <rect x="215.205882" y="155.52" width="123.088235" height="100.8"/>
  </clipPath>
  <clipPath id="pccef488608">
   <rect x="362.911765" y="155.52" width="123.088235" height="100.8"/>
  </clipPath>
 </defs>
</svg>
