<?xml version="1.0" encoding="utf-8" standalone="no"?>
<!DOCTYPE svg PUBLIC "-//W3C//DTD SVG 1.1//EN"
  "http://www.w3.org/Graphics/SVG/1.1/DTD/svg11.dtd">
<svg xmlns:xlink="http://www.w3.org/1999/xlink" width="432pt" height="216pt" viewBox="0 0 432 216" xmlns="http://www.w3.org/2000/svg" version="1.1">
 <metadata>
  <rdf:RDF xmlns:dc="http://purl.org/dc/elements/1.1/" xmlns:cc="http://creativecommons.org/ns#" xmlns:rdf="http://www.w3.org/1999/02/22-rdf-syntax-ns#">
   <cc:Work>
    <dc:type rdf:resource="http://purl.org/dc/dcmitype/StillImage"/>
    <dc:date>2023-12-20T18:39:39.204693</dc:date>
    <dc:format>image/svg+xml</dc:format>
    <dc:creator>
     <cc:Agent>
      <dc:title>Matplotlib v3.6.2, https://matplotlib.org/</dc:title>
     </cc:Agent>
    </dc:creator>
   </cc:Work>
  </rdf:RDF>
 </metadata>
 <defs>
  <style type="text/css">*{stroke-linejoin: round; stroke-linecap: butt}</style>
 </defs>
 <g id="figure_1">
  <g id="patch_1">
   <path d="M 0 216 
L 432 216 
L 432 0 
L 0 0 
z
" style="fill: #ffffff"/>
  </g>
  <g id="axes_1">
   <g id="line2d_1">
    <path d="M 145.761866 32.810553 
L 143.630155 32.744384 
L 137.766803 32.945891 
L 135.735982 33.21333 
L 131.447665 34.417902 
L 127.633435 35.499026 
L 125.748538 35.951937 
L 123.810838 36.706806 
L 120.36397 38.416034 
L 118.395484 39.300743 
L 116.267825 40.407642 
L 114.212264 41.734246 
L 108.669704 45.857824 
L 104.971009 49.195851 
L 100.274357 53.720517 
L 97.028843 57.369637 
L 95.406053 59.162549 
L 89.140559 67.085301 
L 85.757584 71.894384 
L 83.915899 74.734982 
L 82.252262 76.994915 
L 81.059792 79.143713 
L 80.0154 81.324667 
L 78.743095 83.447505 
L 77.099625 85.809215 
L 75.595772 88.419959 
L 72.121397 95.309214 
L 70.848748 97.706511 
L 65.49445 110.18137 
L 64.023836 114.070918 
L 63.430984 116.148118 
L 62.667839 120.448093 
L 62.098593 122.496093 
L 61.769985 124.643783 
L 60.917355 133.161931 
L 61.147776 138.956906 
L 61.579152 142.476186 
L 62.452222 146.183789 
L 62.986526 147.857509 
L 63.832354 149.774145 
L 65.422544 154.063427 
L 66.406698 155.826677 
L 68.819795 159.307512 
L 69.635795 160.747677 
L 72.794209 165.458201 
L 74.109324 167.065029 
L 77.039223 169.718853 
L 80.231188 172.379077 
L 82.192319 173.823981 
L 83.985057 174.948187 
L 87.488999 177.687853 
L 89.508985 178.946427 
L 91.687433 179.982958 
L 97.982872 182.283833 
L 101.911695 183.619134 
L 107.972564 184.878259 
L 114.33614 185.499654 
L 120.78856 185.726271 
L 127.101058 185.153911 
L 135.331207 183.36374 
L 137.194589 182.893976 
L 145.077263 179.978757 
L 147.143164 179.070952 
L 151.479877 176.807817 
L 155.324506 174.93182 
L 161.394707 171.135563 
L 166.787986 167.205699 
L 168.987529 165.389326 
L 171.23188 163.362924 
L 179.128979 155.274706 
L 181.720492 151.646713 
L 184.122742 148.486801 
L 186.652659 144.370606 
L 190.109194 138.207543 
L 191.85808 134.60668 
L 192.796471 132.758603 
L 195.616322 124.296429 
L 196.440208 122.028559 
L 197.439101 117.571149 
L 197.911371 115.315274 
L 198.305107 112.75021 
L 198.964352 106.694363 
L 199.20602 104.458223 
L 199.264463 102.131227 
L 199.137913 97.196376 
L 199.244855 94.741346 
L 199.119065 92.112775 
L 198.243085 83.879536 
L 196.556701 77.554485 
L 195.199003 73.384489 
L 192.450478 66.532829 
L 191.420825 64.508861 
L 186.503222 57.072014 
L 180.226759 49.028146 
L 178.6973 47.425048 
L 175.391186 44.342451 
L 173.748879 42.910608 
L 168.64795 39.324239 
L 166.792785 38.198914 
L 159.358673 34.602422 
L 156.9708 33.841236 
L 154.69373 33.255009 
L 150.196113 32.416193 
L 150.196113 32.416193 
" clip-path="url(#pd664ed1521)" style="fill: none; stroke: #1f77b4; stroke-width: 1.5; stroke-linecap: square"/>
   </g>
   <g id="text_1">
    <!-- $\leq 0.5$ -->
    <g transform="translate(113.170909 19.92) scale(0.12 -0.12)">
     <defs>
      <path id="DejaVuSans-2264" d="M 4684 3175 
L 1684 2309 
L 4684 1453 
L 4684 897 
L 678 2047 
L 678 2578 
L 4684 3725 
L 4684 3175 
z
M 678 531 
L 4684 531 
L 4684 0 
L 678 0 
L 678 531 
z
" transform="scale(0.015625)"/>
      <path id="DejaVuSans-30" d="M 2034 4250 
Q 1547 4250 1301 3770 
Q 1056 3291 1056 2328 
Q 1056 1369 1301 889 
Q 1547 409 2034 409 
Q 2525 409 2770 889 
Q 3016 1369 3016 2328 
Q 3016 3291 2770 3770 
Q 2525 4250 2034 4250 
z
M 2034 4750 
Q 2819 4750 3233 4129 
Q 3647 3509 3647 2328 
Q 3647 1150 3233 529 
Q 2819 -91 2034 -91 
Q 1250 -91 836 529 
Q 422 1150 422 2328 
Q 422 3509 836 4129 
Q 1250 4750 2034 4750 
z
" transform="scale(0.015625)"/>
      <path id="DejaVuSans-2e" d="M 684 794 
L 1344 794 
L 1344 0 
L 684 0 
L 684 794 
z
" transform="scale(0.015625)"/>
      <path id="DejaVuSans-35" d="M 691 4666 
L 3169 4666 
L 3169 4134 
L 1269 4134 
L 1269 2991 
Q 1406 3038 1543 3061 
Q 1681 3084 1819 3084 
Q 2600 3084 3056 2656 
Q 3513 2228 3513 1497 
Q 3513 744 3044 326 
Q 2575 -91 1722 -91 
Q 1428 -91 1123 -41 
Q 819 9 494 109 
L 494 744 
Q 775 591 1075 516 
Q 1375 441 1709 441 
Q 2250 441 2565 725 
Q 2881 1009 2881 1497 
Q 2881 1984 2565 2268 
Q 2250 2553 1709 2553 
Q 1456 2553 1204 2497 
Q 953 2441 691 2322 
L 691 4666 
z
" transform="scale(0.015625)"/>
     </defs>
     <use xlink:href="#DejaVuSans-2264" transform="translate(19.482422 0.78125)"/>
     <use xlink:href="#DejaVuSans-30" transform="translate(122.753906 0.78125)"/>
     <use xlink:href="#DejaVuSans-2e" transform="translate(186.376953 0.78125)"/>
     <use xlink:href="#DejaVuSans-35" transform="translate(218.164062 0.78125)"/>
    </g>
   </g>
  </g>
  <g id="axes_2">
   <g id="line2d_2">
    <path d="M 339.116234 33.48 
L 337.41434 33.838415 
L 334.001412 34.259083 
L 332.524647 34.668947 
L 330.979848 35.478967 
L 327.568927 36.818037 
L 321.247281 40.780287 
L 319.921859 41.967902 
L 317.980655 43.416953 
L 316.572891 44.646613 
L 314.755801 46.465341 
L 313.277833 48.308303 
L 311.645291 50.077863 
L 306.049959 54.972048 
L 304.213596 56.926576 
L 302.144499 58.692518 
L 300.513357 60.779207 
L 298.81581 62.645286 
L 294.279681 69.348563 
L 292.648952 71.717866 
L 291.12488 74.381661 
L 289.221159 77.00738 
L 287.052445 79.463472 
L 282.83304 85.325188 
L 280.800684 88.459921 
L 267.44414 111.725075 
L 266.330554 113.57836 
L 263.992653 118.728258 
L 260.903577 125.192944 
L 259.610246 127.304559 
L 258.328678 131.419106 
L 257.273332 133.857566 
L 256.242369 135.875346 
L 255.255453 137.491342 
L 254.231287 141.000018 
L 253.222896 145.995948 
L 252.790426 150.872486 
L 252.480082 152.365343 
L 252.288426 154.137951 
L 252.298366 156.075067 
L 253.299343 159.816288 
L 253.552557 161.377914 
L 253.925019 162.81001 
L 254.345948 163.751987 
L 255.117321 164.505038 
L 256.203837 165.343957 
L 259.882 167.653442 
L 265.640423 172.063457 
L 276.221729 178.784279 
L 279.336091 180.574099 
L 283.845763 182.344922 
L 285.306053 183.033155 
L 286.614072 183.49182 
L 291.704323 184.646911 
L 293.672111 184.68 
L 296.352918 184.324962 
L 300.690573 184.044965 
L 302.397399 183.637464 
L 304.392949 183.007182 
L 314.662363 180.71981 
L 318.183259 180.263619 
L 320.120981 179.811056 
L 323.55568 178.445457 
L 327.248907 176.624077 
L 331.190403 174.329416 
L 332.906725 173.453503 
L 334.999304 172.621214 
L 337.536032 171.768622 
L 339.847393 171.113943 
L 341.589253 170.351938 
L 345.513198 168.215243 
L 347.771593 166.753763 
L 350.392165 165.51676 
L 354.326719 163.048797 
L 355.88821 161.574013 
L 357.868342 159.305162 
L 359.667396 157.809338 
L 362.22889 154.665933 
L 363.588703 153.417357 
L 364.655039 151.960057 
L 365.996826 150.404827 
L 367.79342 147.188109 
L 368.537715 145.123548 
L 370.537994 137.310793 
L 370.809371 135.518506 
L 371.262729 133.629685 
L 371.542664 131.221301 
L 372.512521 127.026257 
L 372.765022 124.833802 
L 372.885842 122.801176 
L 372.927317 116.709212 
L 373.129756 114.73506 
L 372.389357 106.942701 
L 372.318571 103.879732 
L 372.544483 99.360055 
L 372.426343 91.900166 
L 372.249058 90.241571 
L 372.144628 88.143893 
L 371.886153 85.848741 
L 371.467834 83.373282 
L 370.676727 81.023579 
L 367.970888 75.061674 
L 365.412201 71.233004 
L 363.266854 67.588926 
L 361.101942 64.257516 
L 357.790023 58.315122 
L 354.750376 54.121559 
L 350.430987 48.709906 
L 348.270288 46.267889 
L 345.709562 43.864512 
L 342.744986 41.654272 
L 337.738676 38.9752 
L 335.669589 38.015771 
L 333.640956 37.357207 
L 331.650004 36.851434 
L 331.650004 36.851434 
" clip-path="url(#pff99e2b9f9)" style="fill: none; stroke: #1f77b4; stroke-width: 1.5; stroke-linecap: square"/>
   </g>
   <g id="text_2">
    <!-- $&gt; 0.5$ -->
    <g transform="translate(295.789091 19.92) scale(0.12 -0.12)">
     <defs>
      <path id="DejaVuSans-3e" d="M 678 3150 
L 678 3719 
L 4684 2266 
L 4684 1747 
L 678 294 
L 678 863 
L 3897 2003 
L 678 3150 
z
" transform="scale(0.015625)"/>
     </defs>
     <use xlink:href="#DejaVuSans-3e" transform="translate(19.482422 0.78125)"/>
     <use xlink:href="#DejaVuSans-30" transform="translate(122.753906 0.78125)"/>
     <use xlink:href="#DejaVuSans-2e" transform="translate(186.376953 0.78125)"/>
     <use xlink:href="#DejaVuSans-35" transform="translate(218.164062 0.78125)"/>
    </g>
   </g>
  </g>
 </g>
 <defs>
  <clipPath id="pd664ed1521">
   <rect x="54" y="25.92" width="152.181818" height="166.32"/>
  </clipPath>
  <clipPath id="pff99e2b9f9">
   <rect x="236.618182" y="25.92" width="152.181818" height="166.32"/>
  </clipPath>
 </defs>
</svg>
