<?xml version="1.0" encoding="utf-8" standalone="no"?>
<!DOCTYPE svg PUBLIC "-//W3C//DTD SVG 1.1//EN"
  "http://www.w3.org/Graphics/SVG/1.1/DTD/svg11.dtd">
<svg xmlns:xlink="http://www.w3.org/1999/xlink" width="432pt" height="216pt" viewBox="0 0 432 216" xmlns="http://www.w3.org/2000/svg" version="1.1">
 <metadata>
  <rdf:RDF xmlns:dc="http://purl.org/dc/elements/1.1/" xmlns:cc="http://creativecommons.org/ns#" xmlns:rdf="http://www.w3.org/1999/02/22-rdf-syntax-ns#">
   <cc:Work>
    <dc:type rdf:resource="http://purl.org/dc/dcmitype/StillImage"/>
    <dc:date>2024-04-23T15:20:43.246003</dc:date>
    <dc:format>image/svg+xml</dc:format>
    <dc:creator>
     <cc:Agent>
      <dc:title>Matplotlib v3.8.4, https://matplotlib.org/</dc:title>
     </cc:Agent>
    </dc:creator>
   </cc:Work>
  </rdf:RDF>
 </metadata>
 <defs>
  <style type="text/css">*{stroke-linejoin: round; stroke-linecap: butt}</style>
 </defs>
 <g id="figure_1">
  <g id="patch_1">
   <path d="M 0 216 
L 432 216 
L 432 0 
L 0 0 
z
" style="fill: #ffffff"/>
  </g>
  <g id="axes_1">
   <g id="line2d_1">
    <path d="M 198.23635 112.292503 
L 196.601139 111.400372 
L 194.80633 110.201865 
L 193.594564 109.124014 
L 192.805206 108.159867 
L 192.285741 107.328687 
L 188.344443 97.943849 
L 187.251007 95.428854 
L 184.543827 90.179255 
L 182.360415 86.859673 
L 178.01755 80.710687 
L 170.846856 72.265113 
L 163.694463 65.786305 
L 160.474043 63.351095 
L 159.477578 62.670481 
L 158.141271 61.750875 
L 155.961352 60.422775 
L 150.515852 57.327709 
L 149.465346 56.771986 
L 147.183475 55.753951 
L 145.242852 54.946023 
L 141.863238 53.741148 
L 139.471855 53.064321 
L 137.579266 52.539829 
L 134.926361 51.927316 
L 133.688877 51.745142 
L 132.39501 51.523273 
L 130.38979 51.151592 
L 127.629639 50.950279 
L 122.612006 50.560718 
L 121.754084 50.488048 
L 119.548939 50.404862 
L 118.217003 50.41776 
L 113.32113 50.897466 
L 110.835346 51.378836 
L 106.598474 52.46046 
L 104.620353 53.082202 
L 101.684427 53.951353 
L 95.967894 56.177585 
L 94.409143 56.909165 
L 92.333173 57.894367 
L 88.734976 59.620154 
L 87.619244 60.354241 
L 82.841315 63.605293 
L 78.672765 66.929481 
L 75.1081 70.889655 
L 74.0151 72.325677 
L 71.433928 75.776488 
L 69.774129 78.599255 
L 67.412126 83.142399 
L 65.05299 88.916492 
L 64.362011 90.86927 
L 63.741214 92.576594 
L 62.986744 94.752033 
L 62.430802 96.789429 
L 61.755178 99.956361 
L 61.418891 103.23918 
L 61.312555 104.569002 
L 61.013162 107.172668 
L 61.074582 112.690899 
L 61.239385 114.897505 
L 61.497949 117.372586 
L 62.536006 121.461709 
L 63.589781 124.847736 
L 64.837094 128.128678 
L 65.427031 129.711538 
L 66.002792 131.373821 
L 66.814825 133.034024 
L 67.945428 135.310889 
L 68.840032 137.096553 
L 69.579768 138.503518 
L 71.92117 141.848722 
L 72.875577 143.262637 
L 73.509826 144.108434 
L 76.305413 147.393013 
L 80.769546 151.928323 
L 83.185985 153.822536 
L 89.092701 158.057849 
L 91.124155 159.360453 
L 95.272379 161.811277 
L 101.837706 164.610624 
L 105.973508 165.776144 
L 113.438418 167.353976 
L 117.262211 167.774709 
L 118.390601 167.75051 
L 120.419792 167.723248 
L 125.280468 167.642093 
L 127.780412 167.539875 
L 130.008315 167.376425 
L 134.562068 166.62631 
L 139.845779 165.260465 
L 142.298822 164.61389 
L 148.329227 162.173251 
L 149.84293 161.394257 
L 159.272515 156.083244 
L 161.291098 154.729138 
L 164.868337 152.001213 
L 167.380018 150.040393 
L 171.543484 146.190271 
L 176.182513 141.30582 
L 177.978371 138.982137 
L 179.440801 137.082714 
L 182.604021 132.744565 
L 183.851833 130.78323 
L 185.205724 128.696944 
L 185.947267 127.276401 
L 191.041704 117.240763 
L 191.686533 115.862303 
L 193.998411 112.077154 
L 195.788712 109.841808 
L 199.063065 106.476032 
L 199.264463 106.078064 
L 199.264463 106.078064 
" clip-path="url(#p209ccca4d8)" style="fill: none; stroke: #1f77b4; stroke-width: 1.5; stroke-linecap: square"/>
   </g>
   <g id="text_1">
    <!-- SRV -->
    <g transform="translate(118.338409 19.92) scale(0.12 -0.12)">
     <defs>
      <path id="DejaVuSans-53" d="M 3425 4513 
L 3425 3897 
Q 3066 4069 2747 4153 
Q 2428 4238 2131 4238 
Q 1616 4238 1336 4038 
Q 1056 3838 1056 3469 
Q 1056 3159 1242 3001 
Q 1428 2844 1947 2747 
L 2328 2669 
Q 3034 2534 3370 2195 
Q 3706 1856 3706 1288 
Q 3706 609 3251 259 
Q 2797 -91 1919 -91 
Q 1588 -91 1214 -16 
Q 841 59 441 206 
L 441 856 
Q 825 641 1194 531 
Q 1563 422 1919 422 
Q 2459 422 2753 634 
Q 3047 847 3047 1241 
Q 3047 1584 2836 1778 
Q 2625 1972 2144 2069 
L 1759 2144 
Q 1053 2284 737 2584 
Q 422 2884 422 3419 
Q 422 4038 858 4394 
Q 1294 4750 2059 4750 
Q 2388 4750 2728 4690 
Q 3069 4631 3425 4513 
z
" transform="scale(0.015625)"/>
      <path id="DejaVuSans-52" d="M 2841 2188 
Q 3044 2119 3236 1894 
Q 3428 1669 3622 1275 
L 4263 0 
L 3584 0 
L 2988 1197 
Q 2756 1666 2539 1819 
Q 2322 1972 1947 1972 
L 1259 1972 
L 1259 0 
L 628 0 
L 628 4666 
L 2053 4666 
Q 2853 4666 3247 4331 
Q 3641 3997 3641 3322 
Q 3641 2881 3436 2590 
Q 3231 2300 2841 2188 
z
M 1259 4147 
L 1259 2491 
L 2053 2491 
Q 2509 2491 2742 2702 
Q 2975 2913 2975 3322 
Q 2975 3731 2742 3939 
Q 2509 4147 2053 4147 
L 1259 4147 
z
" transform="scale(0.015625)"/>
      <path id="DejaVuSans-56" d="M 1831 0 
L 50 4666 
L 709 4666 
L 2188 738 
L 3669 4666 
L 4325 4666 
L 2547 0 
L 1831 0 
z
" transform="scale(0.015625)"/>
     </defs>
     <use xlink:href="#DejaVuSans-53"/>
     <use xlink:href="#DejaVuSans-52" x="63.476562"/>
     <use xlink:href="#DejaVuSans-56" x="127.458984"/>
    </g>
   </g>
  </g>
  <g id="axes_2">
   <g id="line2d_2">
    <path d="M 381.777292 107.886173 
L 379.951379 106.695146 
L 377.904269 104.801845 
L 377.03974 103.776742 
L 376.067079 102.275887 
L 374.283724 99.708139 
L 370.222263 94.424607 
L 367.496395 90.371566 
L 366.348481 88.701306 
L 364.721553 86.484409 
L 361.14369 82.206896 
L 360.165521 81.041837 
L 358.959946 79.672248 
L 357.890857 78.43353 
L 350.461746 70.396837 
L 344.662195 64.984464 
L 343.630863 64.173779 
L 338.049323 60.483041 
L 335.50289 58.992926 
L 332.633753 57.473588 
L 329.347151 55.817057 
L 325.507326 53.9587 
L 322.676092 52.836621 
L 318.201026 51.691696 
L 313.632437 50.914876 
L 308.927095 50.261505 
L 306.963328 50.215178 
L 300.18407 50.301336 
L 291.825594 51.250061 
L 286.496966 52.612562 
L 284.206039 53.545478 
L 282.5027 54.190651 
L 280.231309 55.126037 
L 273.96706 58.132161 
L 271.268114 59.773265 
L 269.529627 60.964084 
L 266.313909 63.300102 
L 264.999161 64.394798 
L 262.734312 66.287375 
L 260.651413 68.105893 
L 258.561148 70.268949 
L 256.285829 73.00723 
L 254.099144 76.125418 
L 250.429413 82.484178 
L 249.384485 84.527939 
L 246.914275 90.345356 
L 244.819586 98.332701 
L 244.186257 102.309808 
L 243.798188 106.431717 
L 243.578036 109.138037 
L 243.539124 110.273774 
L 243.68745 113.677476 
L 244.02069 117.458659 
L 244.60307 120.839491 
L 245.256778 123.080223 
L 247.34045 129.270361 
L 251.797875 138.38959 
L 253.081998 140.600295 
L 254.713036 142.626418 
L 260.682244 149.529983 
L 261.562977 150.508556 
L 262.447005 151.311102 
L 263.803848 152.512691 
L 265.336 153.827976 
L 271.993773 158.910856 
L 274.455193 160.528052 
L 277.029565 161.777579 
L 279.866578 162.950216 
L 287.755886 165.991722 
L 289.816528 166.519272 
L 291.323336 166.845995 
L 293.438728 167.215692 
L 298.454154 167.960019 
L 300.256843 167.992892 
L 303.85418 167.938562 
L 308.241778 167.906114 
L 311.074007 167.467154 
L 313.551347 167.197265 
L 315.270842 166.974127 
L 317.256862 166.555176 
L 320.353358 165.798971 
L 323.118886 165.106147 
L 328.346053 163.358427 
L 329.921232 162.699776 
L 333.153352 161.086713 
L 337.444481 158.607386 
L 339.59713 157.330559 
L 345.168851 153.387568 
L 347.306634 151.539361 
L 349.259547 149.702895 
L 352.451322 146.601457 
L 354.400213 144.840206 
L 358.053819 141.03149 
L 362.002588 136.322947 
L 368.096696 127.808585 
L 374.853708 118.24071 
L 376.767401 115.876316 
L 379.662127 112.328845 
L 380.968273 110.378759 
L 381.766609 108.639432 
L 381.882645 108.328694 
L 381.882645 108.328694 
" clip-path="url(#pfe0d9e40fc)" style="fill: none; stroke: #1f77b4; stroke-width: 1.5; stroke-linecap: square"/>
   </g>
   <g id="text_2">
    <!-- Linear -->
    <g transform="translate(294.061278 19.92) scale(0.12 -0.12)">
     <defs>
      <path id="DejaVuSans-4c" d="M 628 4666 
L 1259 4666 
L 1259 531 
L 3531 531 
L 3531 0 
L 628 0 
L 628 4666 
z
" transform="scale(0.015625)"/>
      <path id="DejaVuSans-69" d="M 603 3500 
L 1178 3500 
L 1178 0 
L 603 0 
L 603 3500 
z
M 603 4863 
L 1178 4863 
L 1178 4134 
L 603 4134 
L 603 4863 
z
" transform="scale(0.015625)"/>
      <path id="DejaVuSans-6e" d="M 3513 2113 
L 3513 0 
L 2938 0 
L 2938 2094 
Q 2938 2591 2744 2837 
Q 2550 3084 2163 3084 
Q 1697 3084 1428 2787 
Q 1159 2491 1159 1978 
L 1159 0 
L 581 0 
L 581 3500 
L 1159 3500 
L 1159 2956 
Q 1366 3272 1645 3428 
Q 1925 3584 2291 3584 
Q 2894 3584 3203 3211 
Q 3513 2838 3513 2113 
z
" transform="scale(0.015625)"/>
      <path id="DejaVuSans-65" d="M 3597 1894 
L 3597 1613 
L 953 1613 
Q 991 1019 1311 708 
Q 1631 397 2203 397 
Q 2534 397 2845 478 
Q 3156 559 3463 722 
L 3463 178 
Q 3153 47 2828 -22 
Q 2503 -91 2169 -91 
Q 1331 -91 842 396 
Q 353 884 353 1716 
Q 353 2575 817 3079 
Q 1281 3584 2069 3584 
Q 2775 3584 3186 3129 
Q 3597 2675 3597 1894 
z
M 3022 2063 
Q 3016 2534 2758 2815 
Q 2500 3097 2075 3097 
Q 1594 3097 1305 2825 
Q 1016 2553 972 2059 
L 3022 2063 
z
" transform="scale(0.015625)"/>
      <path id="DejaVuSans-61" d="M 2194 1759 
Q 1497 1759 1228 1600 
Q 959 1441 959 1056 
Q 959 750 1161 570 
Q 1363 391 1709 391 
Q 2188 391 2477 730 
Q 2766 1069 2766 1631 
L 2766 1759 
L 2194 1759 
z
M 3341 1997 
L 3341 0 
L 2766 0 
L 2766 531 
Q 2569 213 2275 61 
Q 1981 -91 1556 -91 
Q 1019 -91 701 211 
Q 384 513 384 1019 
Q 384 1609 779 1909 
Q 1175 2209 1959 2209 
L 2766 2209 
L 2766 2266 
Q 2766 2663 2505 2880 
Q 2244 3097 1772 3097 
Q 1472 3097 1187 3025 
Q 903 2953 641 2809 
L 641 3341 
Q 956 3463 1253 3523 
Q 1550 3584 1831 3584 
Q 2591 3584 2966 3190 
Q 3341 2797 3341 1997 
z
" transform="scale(0.015625)"/>
      <path id="DejaVuSans-72" d="M 2631 2963 
Q 2534 3019 2420 3045 
Q 2306 3072 2169 3072 
Q 1681 3072 1420 2755 
Q 1159 2438 1159 1844 
L 1159 0 
L 581 0 
L 581 3500 
L 1159 3500 
L 1159 2956 
Q 1341 3275 1631 3429 
Q 1922 3584 2338 3584 
Q 2397 3584 2469 3576 
Q 2541 3569 2628 3553 
L 2631 2963 
z
" transform="scale(0.015625)"/>
     </defs>
     <use xlink:href="#DejaVuSans-4c"/>
     <use xlink:href="#DejaVuSans-69" x="55.712891"/>
     <use xlink:href="#DejaVuSans-6e" x="83.496094"/>
     <use xlink:href="#DejaVuSans-65" x="146.875"/>
     <use xlink:href="#DejaVuSans-61" x="208.398438"/>
     <use xlink:href="#DejaVuSans-72" x="269.677734"/>
    </g>
   </g>
  </g>
 </g>
 <defs>
  <clipPath id="p209ccca4d8">
   <rect x="54" y="25.92" width="152.181818" height="166.32"/>
  </clipPath>
  <clipPath id="pfe0d9e40fc">
   <rect x="236.618182" y="25.92" width="152.181818" height="166.32"/>
  </clipPath>
 </defs>
</svg>
