<?xml version="1.0" encoding="utf-8" standalone="no"?>
<!DOCTYPE svg PUBLIC "-//W3C//DTD SVG 1.1//EN"
  "http://www.w3.org/Graphics/SVG/1.1/DTD/svg11.dtd">
<svg xmlns:xlink="http://www.w3.org/1999/xlink" width="432pt" height="216pt" viewBox="0 0 432 216" xmlns="http://www.w3.org/2000/svg" version="1.1">
 <metadata>
  <rdf:RDF xmlns:dc="http://purl.org/dc/elements/1.1/" xmlns:cc="http://creativecommons.org/ns#" xmlns:rdf="http://www.w3.org/1999/02/22-rdf-syntax-ns#">
   <cc:Work>
    <dc:type rdf:resource="http://purl.org/dc/dcmitype/StillImage"/>
    <dc:date>2023-12-28T18:34:12.694473</dc:date>
    <dc:format>image/svg+xml</dc:format>
    <dc:creator>
     <cc:Agent>
      <dc:title>Matplotlib v3.6.2, https://matplotlib.org/</dc:title>
     </cc:Agent>
    </dc:creator>
   </cc:Work>
  </rdf:RDF>
 </metadata>
 <defs>
  <style type="text/css">*{stroke-linejoin: round; stroke-linecap: butt}</style>
 </defs>
 <g id="figure_1">
  <g id="patch_1">
   <path d="M 0 216 
L 432 216 
L 432 0 
L 0 0 
z
" style="fill: #ffffff"/>
  </g>
  <g id="axes_1">
   <g id="line2d_1">
    <path d="M 158.042092 33.48 
L 156.407607 33.585674 
L 152.970113 34.318321 
L 149.631802 35.457629 
L 146.548764 36.87839 
L 141.850227 39.755033 
L 138.69638 41.976145 
L 135.524168 44.460486 
L 130.535274 49.037018 
L 127.287154 52.366989 
L 120.450098 59.296442 
L 116.935685 63.725776 
L 104.406862 80.498952 
L 97.95493 88.729156 
L 92.960258 96.273228 
L 89.849525 101.39247 
L 86.981977 106.481156 
L 85.618202 108.896783 
L 84.456589 111.382074 
L 74.122073 137.959374 
L 72.698617 142.013772 
L 70.930809 147.551771 
L 70.017612 151.017664 
L 69.694352 152.583959 
L 69.458267 155.463342 
L 69.461768 156.857577 
L 69.643913 158.241102 
L 70.885348 162.431746 
L 71.35793 163.666111 
L 71.951547 164.710912 
L 74.827195 167.469393 
L 76.964159 169.281336 
L 81.659017 173.019614 
L 84.359306 174.776524 
L 87.499125 176.498261 
L 93.80902 180.501352 
L 95.445173 181.273454 
L 97.168331 181.887341 
L 102.158812 183.254681 
L 108.781027 184.488646 
L 110.419582 184.656207 
L 117.699381 184.660095 
L 123.350328 184.078803 
L 127.023847 183.672656 
L 132.27003 182.819646 
L 136.018306 181.773025 
L 139.393966 180.439557 
L 143.163566 178.688452 
L 152.738168 172.821291 
L 158.282617 168.887355 
L 164.375098 164.406755 
L 166.44384 162.958703 
L 169.942662 160.053749 
L 173.231695 156.889168 
L 178.500981 150.297228 
L 179.652748 148.496273 
L 182.771462 142.746677 
L 185.331417 137.040849 
L 186.907242 132.974905 
L 187.653682 130.8101 
L 190.389203 120.216517 
L 190.711493 115.891966 
L 190.704267 111.810814 
L 189.774453 92.504843 
L 189.189371 88.283566 
L 186.588235 77.269767 
L 185.303368 72.92779 
L 184.514183 71.022647 
L 182.568722 67.225024 
L 180.428052 63.507156 
L 179.170423 61.551719 
L 174.34454 53.093242 
L 171.607411 49.400184 
L 167.78567 44.813502 
L 163.95241 40.49898 
L 162.552348 39.319286 
L 161.156015 38.341005 
L 159.756021 37.525498 
L 158.273946 36.843276 
L 155.070201 35.771632 
L 153.489134 35.371155 
L 151.872535 35.078088 
L 151.872535 35.078088 
" clip-path="url(#p4b1f2e9324)" style="fill: none; stroke: #1f77b4; stroke-width: 1.5; stroke-linecap: square"/>
   </g>
   <g id="text_1">
    <!-- SRV -->
    <g transform="translate(118.338409 19.92) scale(0.12 -0.12)">
     <defs>
      <path id="DejaVuSans-53" d="M 3425 4513 
L 3425 3897 
Q 3066 4069 2747 4153 
Q 2428 4238 2131 4238 
Q 1616 4238 1336 4038 
Q 1056 3838 1056 3469 
Q 1056 3159 1242 3001 
Q 1428 2844 1947 2747 
L 2328 2669 
Q 3034 2534 3370 2195 
Q 3706 1856 3706 1288 
Q 3706 609 3251 259 
Q 2797 -91 1919 -91 
Q 1588 -91 1214 -16 
Q 841 59 441 206 
L 441 856 
Q 825 641 1194 531 
Q 1563 422 1919 422 
Q 2459 422 2753 634 
Q 3047 847 3047 1241 
Q 3047 1584 2836 1778 
Q 2625 1972 2144 2069 
L 1759 2144 
Q 1053 2284 737 2584 
Q 422 2884 422 3419 
Q 422 4038 858 4394 
Q 1294 4750 2059 4750 
Q 2388 4750 2728 4690 
Q 3069 4631 3425 4513 
z
" transform="scale(0.015625)"/>
      <path id="DejaVuSans-52" d="M 2841 2188 
Q 3044 2119 3236 1894 
Q 3428 1669 3622 1275 
L 4263 0 
L 3584 0 
L 2988 1197 
Q 2756 1666 2539 1819 
Q 2322 1972 1947 1972 
L 1259 1972 
L 1259 0 
L 628 0 
L 628 4666 
L 2053 4666 
Q 2853 4666 3247 4331 
Q 3641 3997 3641 3322 
Q 3641 2881 3436 2590 
Q 3231 2300 2841 2188 
z
M 1259 4147 
L 1259 2491 
L 2053 2491 
Q 2509 2491 2742 2702 
Q 2975 2913 2975 3322 
Q 2975 3731 2742 3939 
Q 2509 4147 2053 4147 
L 1259 4147 
z
" transform="scale(0.015625)"/>
      <path id="DejaVuSans-56" d="M 1831 0 
L 50 4666 
L 709 4666 
L 2188 738 
L 3669 4666 
L 4325 4666 
L 2547 0 
L 1831 0 
z
" transform="scale(0.015625)"/>
     </defs>
     <use xlink:href="#DejaVuSans-53"/>
     <use xlink:href="#DejaVuSans-52" x="63.476562"/>
     <use xlink:href="#DejaVuSans-56" x="127.458984"/>
    </g>
   </g>
  </g>
  <g id="axes_2">
   <g id="line2d_2">
    <path d="M 334.678636 33.48 
L 332.864314 33.583682 
L 329.126544 34.419886 
L 325.501139 35.714069 
L 323.709926 36.525845 
L 322.018505 37.447134 
L 318.85416 39.597446 
L 317.076026 40.759818 
L 313.72467 43.355441 
L 310.474656 45.956723 
L 307.264506 48.932676 
L 305.679635 50.555954 
L 304.204251 52.282194 
L 299.246483 57.382926 
L 296.13061 60.630079 
L 293.000724 64.722286 
L 283.669447 77.685253 
L 277.832719 84.966112 
L 275.956643 87.133794 
L 269.945557 96.093032 
L 264.656939 105.371139 
L 262.826054 109.968904 
L 261.028106 114.991583 
L 257.271022 124.251944 
L 256.290242 126.449374 
L 254.690447 130.76403 
L 253.103308 134.674495 
L 249.764763 144.36694 
L 248.711832 148.023612 
L 248.320249 151.419132 
L 248.270656 153.076459 
L 248.522915 154.698898 
L 250.655226 161.074752 
L 251.384866 162.377245 
L 255.25918 165.548643 
L 257.994281 167.495113 
L 260.92226 169.6217 
L 263.750935 171.672574 
L 268.486416 174.4817 
L 270.269699 175.433406 
L 273.536327 177.577999 
L 277.052868 179.814264 
L 278.867873 180.710077 
L 280.73504 181.382401 
L 287.911412 183.343588 
L 295.149231 184.638615 
L 302.789721 184.68 
L 308.78591 183.955048 
L 314.416624 183.323381 
L 318.365982 182.712961 
L 322.345063 181.655378 
L 327.961741 179.326174 
L 329.839442 178.460408 
L 335.246472 174.941231 
L 339.167762 172.329186 
L 341.07638 170.990813 
L 342.852184 169.60326 
L 344.68904 168.37217 
L 350.55292 164.013138 
L 352.586225 162.653231 
L 354.387279 161.197816 
L 359.345998 156.58295 
L 364.725684 149.876345 
L 365.922085 148.054392 
L 369.012178 142.343604 
L 371.613816 136.547523 
L 373.991508 130.361637 
L 375.094248 126.06359 
L 376.354773 121.792385 
L 376.821769 119.714279 
L 377.046598 117.569473 
L 377.142814 113.272934 
L 377.121877 111.22355 
L 376.30071 99.612708 
L 376.21706 94.904486 
L 376.050416 92.533565 
L 375.340064 88.199204 
L 374.28765 83.83379 
L 373.637031 81.633801 
L 373.253422 79.463784 
L 371.567266 72.877828 
L 370.764176 70.933903 
L 368.737772 67.10405 
L 366.543028 63.43046 
L 365.256502 61.517596 
L 362.945116 57.392697 
L 360.482844 53.123257 
L 355.013282 46.227379 
L 349.885155 39.834488 
L 348.441709 38.481878 
L 346.927095 37.368988 
L 345.363235 36.416317 
L 343.732146 35.632468 
L 338.416911 33.86454 
L 336.588637 33.522787 
L 336.588637 33.522787 
" clip-path="url(#pfa59eacf5f)" style="fill: none; stroke: #1f77b4; stroke-width: 1.5; stroke-linecap: square"/>
   </g>
   <g id="text_2">
    <!-- Linear -->
    <g transform="translate(294.061278 19.92) scale(0.12 -0.12)">
     <defs>
      <path id="DejaVuSans-4c" d="M 628 4666 
L 1259 4666 
L 1259 531 
L 3531 531 
L 3531 0 
L 628 0 
L 628 4666 
z
" transform="scale(0.015625)"/>
      <path id="DejaVuSans-69" d="M 603 3500 
L 1178 3500 
L 1178 0 
L 603 0 
L 603 3500 
z
M 603 4863 
L 1178 4863 
L 1178 4134 
L 603 4134 
L 603 4863 
z
" transform="scale(0.015625)"/>
      <path id="DejaVuSans-6e" d="M 3513 2113 
L 3513 0 
L 2938 0 
L 2938 2094 
Q 2938 2591 2744 2837 
Q 2550 3084 2163 3084 
Q 1697 3084 1428 2787 
Q 1159 2491 1159 1978 
L 1159 0 
L 581 0 
L 581 3500 
L 1159 3500 
L 1159 2956 
Q 1366 3272 1645 3428 
Q 1925 3584 2291 3584 
Q 2894 3584 3203 3211 
Q 3513 2838 3513 2113 
z
" transform="scale(0.015625)"/>
      <path id="DejaVuSans-65" d="M 3597 1894 
L 3597 1613 
L 953 1613 
Q 991 1019 1311 708 
Q 1631 397 2203 397 
Q 2534 397 2845 478 
Q 3156 559 3463 722 
L 3463 178 
Q 3153 47 2828 -22 
Q 2503 -91 2169 -91 
Q 1331 -91 842 396 
Q 353 884 353 1716 
Q 353 2575 817 3079 
Q 1281 3584 2069 3584 
Q 2775 3584 3186 3129 
Q 3597 2675 3597 1894 
z
M 3022 2063 
Q 3016 2534 2758 2815 
Q 2500 3097 2075 3097 
Q 1594 3097 1305 2825 
Q 1016 2553 972 2059 
L 3022 2063 
z
" transform="scale(0.015625)"/>
      <path id="DejaVuSans-61" d="M 2194 1759 
Q 1497 1759 1228 1600 
Q 959 1441 959 1056 
Q 959 750 1161 570 
Q 1363 391 1709 391 
Q 2188 391 2477 730 
Q 2766 1069 2766 1631 
L 2766 1759 
L 2194 1759 
z
M 3341 1997 
L 3341 0 
L 2766 0 
L 2766 531 
Q 2569 213 2275 61 
Q 1981 -91 1556 -91 
Q 1019 -91 701 211 
Q 384 513 384 1019 
Q 384 1609 779 1909 
Q 1175 2209 1959 2209 
L 2766 2209 
L 2766 2266 
Q 2766 2663 2505 2880 
Q 2244 3097 1772 3097 
Q 1472 3097 1187 3025 
Q 903 2953 641 2809 
L 641 3341 
Q 956 3463 1253 3523 
Q 1550 3584 1831 3584 
Q 2591 3584 2966 3190 
Q 3341 2797 3341 1997 
z
" transform="scale(0.015625)"/>
      <path id="DejaVuSans-72" d="M 2631 2963 
Q 2534 3019 2420 3045 
Q 2306 3072 2169 3072 
Q 1681 3072 1420 2755 
Q 1159 2438 1159 1844 
L 1159 0 
L 581 0 
L 581 3500 
L 1159 3500 
L 1159 2956 
Q 1341 3275 1631 3429 
Q 1922 3584 2338 3584 
Q 2397 3584 2469 3576 
Q 2541 3569 2628 3553 
L 2631 2963 
z
" transform="scale(0.015625)"/>
     </defs>
     <use xlink:href="#DejaVuSans-4c"/>
     <use xlink:href="#DejaVuSans-69" x="55.712891"/>
     <use xlink:href="#DejaVuSans-6e" x="83.496094"/>
     <use xlink:href="#DejaVuSans-65" x="146.875"/>
     <use xlink:href="#DejaVuSans-61" x="208.398438"/>
     <use xlink:href="#DejaVuSans-72" x="269.677734"/>
    </g>
   </g>
  </g>
 </g>
 <defs>
  <clipPath id="p4b1f2e9324">
   <rect x="54" y="25.92" width="152.181818" height="166.32"/>
  </clipPath>
  <clipPath id="pfa59eacf5f">
   <rect x="236.618182" y="25.92" width="152.181818" height="166.32"/>
  </clipPath>
 </defs>
</svg>
