<?xml version="1.0" encoding="utf-8" standalone="no"?>
<!DOCTYPE svg PUBLIC "-//W3C//DTD SVG 1.1//EN"
  "http://www.w3.org/Graphics/SVG/1.1/DTD/svg11.dtd">
<svg xmlns:xlink="http://www.w3.org/1999/xlink" width="432pt" height="216pt" viewBox="0 0 432 216" xmlns="http://www.w3.org/2000/svg" version="1.1">
 <metadata>
  <rdf:RDF xmlns:dc="http://purl.org/dc/elements/1.1/" xmlns:cc="http://creativecommons.org/ns#" xmlns:rdf="http://www.w3.org/1999/02/22-rdf-syntax-ns#">
   <cc:Work>
    <dc:type rdf:resource="http://purl.org/dc/dcmitype/StillImage"/>
    <dc:date>2024-04-03T18:13:37.168561</dc:date>
    <dc:format>image/svg+xml</dc:format>
    <dc:creator>
     <cc:Agent>
      <dc:title>Matplotlib v3.8.3, https://matplotlib.org/</dc:title>
     </cc:Agent>
    </dc:creator>
   </cc:Work>
  </rdf:RDF>
 </metadata>
 <defs>
  <style type="text/css">*{stroke-linejoin: round; stroke-linecap: butt}</style>
 </defs>
 <g id="figure_1">
  <g id="patch_1">
   <path d="M 0 216 
L 432 216 
L 432 0 
L 0 0 
z
" style="fill: #ffffff"/>
  </g>
  <g id="axes_1">
   <g id="line2d_1">
    <path d="M 154.016849 46.833926 
L 152.250261 48.665831 
L 151.595434 50.277577 
L 150.29298 51.841523 
L 145.097006 53.519623 
L 144.179413 54.648412 
L 143.618607 55.760793 
L 138.597028 58.695952 
L 137.815585 60.084725 
L 136.480198 61.694619 
L 133.333254 63.72715 
L 130.501389 64.7666 
L 127.707158 64.922754 
L 125.089792 66.272523 
L 122.910356 68.068361 
L 122.172621 69.445273 
L 121.102941 70.896777 
L 117.504156 72.939212 
L 115.70296 74.621545 
L 114.924405 75.962366 
L 113.013673 77.360551 
L 110.196293 78.822992 
L 109.297718 80.16111 
L 108.595897 81.425622 
L 106.653385 82.672587 
L 105.443432 83.741735 
L 104.969828 84.72391 
L 103.524415 86.391133 
L 100.929018 88.526161 
L 100.20493 89.969541 
L 99.57379 91.528578 
L 96.240638 95.745696 
L 93.311974 98.644912 
L 92.025723 99.447652 
L 90.762339 100.858463 
L 88.988874 103.626834 
L 87.464205 104.78286 
L 86.118433 105.629361 
L 85.337956 108.109019 
L 84.727028 110.618525 
L 83.72721 112.074305 
L 83.083283 113.285225 
L 82.965494 114.664669 
L 82.405256 115.827182 
L 81.347783 117.110852 
L 80.569698 121.257262 
L 79.876579 125.560239 
L 78.617388 128.701725 
L 78.712031 130.467147 
L 78.311377 131.904257 
L 77.618796 133.186878 
L 77.705599 135.481335 
L 78.31915 138.195187 
L 78.280245 139.797161 
L 77.727622 141.070236 
L 77.332307 142.048414 
L 77.122577 146.839505 
L 76.995705 147.193659 
L 76.928192 151.170193 
L 77.304894 154.184141 
L 77.166387 155.133393 
L 77.143643 156.397738 
L 77.57587 158.241556 
L 78.705284 159.747152 
L 80.536683 160.843224 
L 82.159738 162.091389 
L 83.455342 164.175284 
L 84.743436 165.524655 
L 86.059668 166.108423 
L 87.135713 166.98462 
L 87.883667 168.074718 
L 88.74954 170.439734 
L 89.610923 171.460015 
L 91.361851 172.174334 
L 93.671137 172.690286 
L 95.24777 173.373746 
L 96.143151 174.387825 
L 97.597942 177.403291 
L 98.509153 178.437276 
L 100.435164 179.06075 
L 103.314088 179.453657 
L 105.455109 180.034569 
L 106.528643 180.877339 
L 107.190547 181.714825 
L 108.117868 182.383998 
L 112.804093 182.985315 
L 115.641634 184.594455 
L 116.826739 184.68 
L 119.222746 183.828821 
L 122.483513 184.053234 
L 123.709835 183.503461 
L 125.450769 182.870151 
L 127.820789 182.532372 
L 129.703715 182.727146 
L 130.920845 183.264708 
L 132.292811 183.365398 
L 133.877451 182.760106 
L 135.396603 181.65359 
L 137.023133 180.766735 
L 138.986933 180.474744 
L 140.758933 179.89737 
L 142.050791 178.931757 
L 143.382318 178.384071 
L 144.895602 178.00257 
L 148.34779 175.517446 
L 149.83427 175.133942 
L 151.487977 174.499018 
L 153.264395 172.979476 
L 154.853818 171.916589 
L 156.184482 171.501734 
L 160.412775 167.427819 
L 166.008562 165.603537 
L 168.385022 163.416941 
L 169.285741 162.788301 
L 170.031967 161.010862 
L 170.99507 158.250924 
L 172.355131 156.289124 
L 173.020415 155.109217 
L 172.947081 154.29394 
L 172.988786 153.095787 
L 173.670775 151.000286 
L 175.07046 148.8378 
L 176.867314 147.014535 
L 177.525052 145.101094 
L 177.605544 142.912525 
L 178.353486 141.30391 
L 179.363369 140.192002 
L 180.272853 139.623783 
L 180.942908 137.9545 
L 181.103956 134.127031 
L 181.67684 131.246342 
L 182.839415 129.547414 
L 183.253626 127.546873 
L 183.044321 125.334453 
L 182.302521 123.729108 
L 181.872659 121.98947 
L 182.32296 119.55962 
L 182.100177 118.418147 
L 181.565346 117.789639 
L 180.496706 116.160298 
L 179.228039 113.247548 
L 178.58857 110.856283 
L 178.568015 108.896535 
L 179.087472 107.434339 
L 179.221258 105.110233 
L 177.733863 100.182946 
L 177.363458 97.444018 
L 177.467361 96.488044 
L 177.107128 95.100276 
L 176.488852 93.408943 
L 176.597683 92.450918 
L 176.305778 90.979018 
L 174.262346 88.268604 
L 172.656977 85.599635 
L 172.254879 82.963661 
L 171.379877 81.766944 
L 169.955061 81.14704 
L 167.856683 79.557301 
L 166.222516 77.298873 
L 165.905071 75.773157 
L 165.217157 74.212292 
L 162.852229 72.154322 
L 161.376458 69.430317 
L 160.473919 66.079674 
L 158.253252 62.935834 
L 155.080486 60.298067 
L 153.245243 59.824917 
L 151.809043 59.24281 
L 150.451034 57.899519 
L 149.483301 56.049323 
L 148.773656 53.653939 
L 146.485189 51.068415 
L 143.056384 48.377061 
L 142.359884 46.191951 
L 141.838775 44.189685 
L 140.62112 42.660806 
L 138.808064 41.483816 
L 135.964881 40.535719 
L 133.765807 38.582325 
L 131.92037 35.511753 
L 129.905551 33.48 
L 129.905551 33.48 
" clip-path="url(#paa92502089)" style="fill: none; stroke: #1f77b4; stroke-width: 1.5; stroke-linecap: square"/>
   </g>
   <g id="text_1">
    <!-- SRV -->
    <g transform="translate(118.338409 19.92) scale(0.12 -0.12)">
     <defs>
      <path id="DejaVuSans-53" d="M 3425 4513 
L 3425 3897 
Q 3066 4069 2747 4153 
Q 2428 4238 2131 4238 
Q 1616 4238 1336 4038 
Q 1056 3838 1056 3469 
Q 1056 3159 1242 3001 
Q 1428 2844 1947 2747 
L 2328 2669 
Q 3034 2534 3370 2195 
Q 3706 1856 3706 1288 
Q 3706 609 3251 259 
Q 2797 -91 1919 -91 
Q 1588 -91 1214 -16 
Q 841 59 441 206 
L 441 856 
Q 825 641 1194 531 
Q 1563 422 1919 422 
Q 2459 422 2753 634 
Q 3047 847 3047 1241 
Q 3047 1584 2836 1778 
Q 2625 1972 2144 2069 
L 1759 2144 
Q 1053 2284 737 2584 
Q 422 2884 422 3419 
Q 422 4038 858 4394 
Q 1294 4750 2059 4750 
Q 2388 4750 2728 4690 
Q 3069 4631 3425 4513 
z
" transform="scale(0.015625)"/>
      <path id="DejaVuSans-52" d="M 2841 2188 
Q 3044 2119 3236 1894 
Q 3428 1669 3622 1275 
L 4263 0 
L 3584 0 
L 2988 1197 
Q 2756 1666 2539 1819 
Q 2322 1972 1947 1972 
L 1259 1972 
L 1259 0 
L 628 0 
L 628 4666 
L 2053 4666 
Q 2853 4666 3247 4331 
Q 3641 3997 3641 3322 
Q 3641 2881 3436 2590 
Q 3231 2300 2841 2188 
z
M 1259 4147 
L 1259 2491 
L 2053 2491 
Q 2509 2491 2742 2702 
Q 2975 2913 2975 3322 
Q 2975 3731 2742 3939 
Q 2509 4147 2053 4147 
L 1259 4147 
z
" transform="scale(0.015625)"/>
      <path id="DejaVuSans-56" d="M 1831 0 
L 50 4666 
L 709 4666 
L 2188 738 
L 3669 4666 
L 4325 4666 
L 2547 0 
L 1831 0 
z
" transform="scale(0.015625)"/>
     </defs>
     <use xlink:href="#DejaVuSans-53"/>
     <use xlink:href="#DejaVuSans-52" x="63.476562"/>
     <use xlink:href="#DejaVuSans-56" x="127.458984"/>
    </g>
   </g>
  </g>
  <g id="axes_2">
   <g id="line2d_2">
    <path d="M 321.123776 30.895807 
L 319.3998 32.476866 
L 318.9878 34.304627 
L 317.755021 35.784798 
L 311.90487 36.764979 
L 311.057333 37.985821 
L 310.615978 39.348303 
L 304.86394 41.723307 
L 304.35859 43.45358 
L 303.036076 45.097012 
L 299.874857 46.920953 
L 297.069642 47.717573 
L 293.842021 47.275718 
L 291.241154 48.631708 
L 289.059324 50.408779 
L 288.536645 51.98955 
L 287.432877 53.506945 
L 283.406985 55.286139 
L 281.748712 56.869435 
L 281.159772 58.389177 
L 278.928384 59.61404 
L 275.526642 60.683123 
L 274.917689 62.203003 
L 274.233285 63.583592 
L 271.66553 64.617783 
L 270.345736 65.599287 
L 270.062597 66.800171 
L 268.351886 68.524979 
L 265.298169 70.497323 
L 265.291766 72.133125 
L 264.79328 73.772043 
L 261.173884 78.268846 
L 258.57473 80.816245 
L 257.261317 81.120531 
L 256.044935 82.927968 
L 254.466571 86.208432 
L 252.852144 86.902771 
L 251.345952 87.708865 
L 250.550399 93.731626 
L 249.098457 94.999319 
L 248.537486 96.367071 
L 249.235355 98.360913 
L 248.316515 99.536261 
L 246.827251 100.922988 
L 245.960523 110.572215 
L 244.980481 111.868046 
L 244.534565 113.265173 
L 245.344701 115.718703 
L 244.551714 117.124378 
L 243.535537 118.559919 
L 244.300309 121.508449 
L 246.022956 124.641951 
L 245.438873 127.109198 
L 245.019069 127.6455 
L 244.545144 129.378383 
L 245.013898 134.562394 
L 244.947403 135.406373 
L 244.783007 135.968314 
L 245.146968 138.872549 
L 245.964279 142.138254 
L 246.028579 142.95566 
L 247.459333 147.99635 
L 247.405529 148.510777 
L 247.37463 149.902793 
L 247.516203 152.218251 
L 248.472227 154.926021 
L 250.565056 156.568252 
L 253.994931 157.76432 
L 255.794269 159.520002 
L 257.180397 163.076472 
L 259.023682 163.776464 
L 261.26109 163.927513 
L 262.347282 165.276622 
L 263.213771 166.611944 
L 263.224014 168.558163 
L 264.052726 169.892561 
L 265.317061 171.158537 
L 271.51252 171.825747 
L 272.724021 172.774675 
L 273.665158 174.301971 
L 274.361906 176.746216 
L 275.114535 178.562647 
L 276.493448 179.570925 
L 279.851989 179.93536 
L 283.762133 179.902533 
L 285.459264 180.888587 
L 286.555211 182.14537 
L 287.075957 183.591852 
L 288.825035 184.256905 
L 292.858357 183.997709 
L 295.126963 184.947742 
L 296.731912 186.87679 
L 298.210546 187.264193 
L 299.785565 187.16849 
L 301.257531 186.073722 
L 302.859742 185.737974 
L 305.511058 186.877868 
L 307.061048 186.372088 
L 308.563358 185.024026 
L 311.353583 184.507936 
L 314.417317 184.17721 
L 315.884893 185.578677 
L 317.45568 186.497524 
L 319.353764 186.082617 
L 321.200749 184.904179 
L 322.800005 182.848849 
L 325.066881 182.644687 
L 327.584538 182.682442 
L 329.000307 181.128758 
L 330.383169 180.093586 
L 332.477812 180.454474 
L 334.229424 179.712267 
L 336.315054 177.433275 
L 337.991994 176.918908 
L 340.303342 177.341707 
L 344.115462 173.515305 
L 346.410756 174.133176 
L 348.08219 173.216327 
L 350.510232 169.430569 
L 354.172087 168.494148 
L 358.842427 168.656457 
L 360.644712 166.96574 
L 361.962848 165.174859 
L 363.87861 165.233613 
L 364.757107 163.933093 
L 365.287606 160.366181 
L 368.854772 156.342201 
L 368.722525 155.234162 
L 368.254274 154.069961 
L 368.993399 151.751656 
L 370.355874 149.325789 
L 373.687009 147.542295 
L 375.037063 145.783895 
L 374.496466 142.994163 
L 375.197845 141.168373 
L 376.406891 139.665994 
L 377.952732 139.245039 
L 379.158613 138.305083 
L 378.994201 133.809987 
L 378.993343 130.1045 
L 381.292232 128.459828 
L 381.879957 126.432619 
L 381.882645 123.85768 
L 380.818765 122.076106 
L 379.594457 120.452185 
L 380.827894 117.153715 
L 380.743571 115.572115 
L 380.043783 115.009457 
L 378.791413 113.60954 
L 377.219823 110.368825 
L 376.452453 107.835982 
L 376.269064 105.742799 
L 377.195634 104.203201 
L 378.055955 102.373805 
L 375.98738 96.96644 
L 375.222006 93.679509 
L 375.648554 92.589234 
L 375.062296 91.045416 
L 373.758411 88.857488 
L 373.997346 87.805903 
L 374.067365 86.411214 
L 371.690792 83.792871 
L 369.750053 81.288642 
L 369.760456 78.201083 
L 368.928616 76.894151 
L 366.985493 76.731812 
L 364.793608 75.405497 
L 363.085645 73.228437 
L 363.000651 71.530892 
L 362.577637 69.934415 
L 359.780919 68.144533 
L 358.265369 65.607906 
L 357.772436 62.046509 
L 355.653618 59.016813 
L 352.340265 56.396171 
L 350.121056 56.245781 
L 348.471879 55.86644 
L 347.158966 54.646681 
L 346.267005 52.913946 
L 345.889166 50.380329 
L 343.631673 48.102915 
L 339.701795 45.830446 
L 339.18044 43.578557 
L 338.900667 41.386584 
L 337.785044 39.930309 
L 335.980335 38.742171 
L 332.744302 38.067984 
L 330.597113 36.250748 
L 329.060841 33.148544 
L 326.66577 31.143942 
L 326.66577 31.143942 
" clip-path="url(#p7b0f1b6fbd)" style="fill: none; stroke: #1f77b4; stroke-width: 1.5; stroke-linecap: square"/>
   </g>
   <g id="text_2">
    <!-- Linear -->
    <g transform="translate(294.061278 19.92) scale(0.12 -0.12)">
     <defs>
      <path id="DejaVuSans-4c" d="M 628 4666 
L 1259 4666 
L 1259 531 
L 3531 531 
L 3531 0 
L 628 0 
L 628 4666 
z
" transform="scale(0.015625)"/>
      <path id="DejaVuSans-69" d="M 603 3500 
L 1178 3500 
L 1178 0 
L 603 0 
L 603 3500 
z
M 603 4863 
L 1178 4863 
L 1178 4134 
L 603 4134 
L 603 4863 
z
" transform="scale(0.015625)"/>
      <path id="DejaVuSans-6e" d="M 3513 2113 
L 3513 0 
L 2938 0 
L 2938 2094 
Q 2938 2591 2744 2837 
Q 2550 3084 2163 3084 
Q 1697 3084 1428 2787 
Q 1159 2491 1159 1978 
L 1159 0 
L 581 0 
L 581 3500 
L 1159 3500 
L 1159 2956 
Q 1366 3272 1645 3428 
Q 1925 3584 2291 3584 
Q 2894 3584 3203 3211 
Q 3513 2838 3513 2113 
z
" transform="scale(0.015625)"/>
      <path id="DejaVuSans-65" d="M 3597 1894 
L 3597 1613 
L 953 1613 
Q 991 1019 1311 708 
Q 1631 397 2203 397 
Q 2534 397 2845 478 
Q 3156 559 3463 722 
L 3463 178 
Q 3153 47 2828 -22 
Q 2503 -91 2169 -91 
Q 1331 -91 842 396 
Q 353 884 353 1716 
Q 353 2575 817 3079 
Q 1281 3584 2069 3584 
Q 2775 3584 3186 3129 
Q 3597 2675 3597 1894 
z
M 3022 2063 
Q 3016 2534 2758 2815 
Q 2500 3097 2075 3097 
Q 1594 3097 1305 2825 
Q 1016 2553 972 2059 
L 3022 2063 
z
" transform="scale(0.015625)"/>
      <path id="DejaVuSans-61" d="M 2194 1759 
Q 1497 1759 1228 1600 
Q 959 1441 959 1056 
Q 959 750 1161 570 
Q 1363 391 1709 391 
Q 2188 391 2477 730 
Q 2766 1069 2766 1631 
L 2766 1759 
L 2194 1759 
z
M 3341 1997 
L 3341 0 
L 2766 0 
L 2766 531 
Q 2569 213 2275 61 
Q 1981 -91 1556 -91 
Q 1019 -91 701 211 
Q 384 513 384 1019 
Q 384 1609 779 1909 
Q 1175 2209 1959 2209 
L 2766 2209 
L 2766 2266 
Q 2766 2663 2505 2880 
Q 2244 3097 1772 3097 
Q 1472 3097 1187 3025 
Q 903 2953 641 2809 
L 641 3341 
Q 956 3463 1253 3523 
Q 1550 3584 1831 3584 
Q 2591 3584 2966 3190 
Q 3341 2797 3341 1997 
z
" transform="scale(0.015625)"/>
      <path id="DejaVuSans-72" d="M 2631 2963 
Q 2534 3019 2420 3045 
Q 2306 3072 2169 3072 
Q 1681 3072 1420 2755 
Q 1159 2438 1159 1844 
L 1159 0 
L 581 0 
L 581 3500 
L 1159 3500 
L 1159 2956 
Q 1341 3275 1631 3429 
Q 1922 3584 2338 3584 
Q 2397 3584 2469 3576 
Q 2541 3569 2628 3553 
L 2631 2963 
z
" transform="scale(0.015625)"/>
     </defs>
     <use xlink:href="#DejaVuSans-4c"/>
     <use xlink:href="#DejaVuSans-69" x="55.712891"/>
     <use xlink:href="#DejaVuSans-6e" x="83.496094"/>
     <use xlink:href="#DejaVuSans-65" x="146.875"/>
     <use xlink:href="#DejaVuSans-61" x="208.398438"/>
     <use xlink:href="#DejaVuSans-72" x="269.677734"/>
    </g>
   </g>
  </g>
 </g>
 <defs>
  <clipPath id="paa92502089">
   <rect x="54" y="25.92" width="152.181818" height="166.32"/>
  </clipPath>
  <clipPath id="p7b0f1b6fbd">
   <rect x="236.618182" y="25.92" width="152.181818" height="166.32"/>
  </clipPath>
 </defs>
</svg>
