<?xml version="1.0" encoding="utf-8" standalone="no"?>
<!DOCTYPE svg PUBLIC "-//W3C//DTD SVG 1.1//EN"
  "http://www.w3.org/Graphics/SVG/1.1/DTD/svg11.dtd">
<svg xmlns:xlink="http://www.w3.org/1999/xlink" width="432pt" height="216pt" viewBox="0 0 432 216" xmlns="http://www.w3.org/2000/svg" version="1.1">
 <metadata>
  <rdf:RDF xmlns:dc="http://purl.org/dc/elements/1.1/" xmlns:cc="http://creativecommons.org/ns#" xmlns:rdf="http://www.w3.org/1999/02/22-rdf-syntax-ns#">
   <cc:Work>
    <dc:type rdf:resource="http://purl.org/dc/dcmitype/StillImage"/>
    <dc:date>2024-05-25T17:37:12.215435</dc:date>
    <dc:format>image/svg+xml</dc:format>
    <dc:creator>
     <cc:Agent>
      <dc:title>Matplotlib v3.8.4, https://matplotlib.org/</dc:title>
     </cc:Agent>
    </dc:creator>
   </cc:Work>
  </rdf:RDF>
 </metadata>
 <defs>
  <style type="text/css">*{stroke-linejoin: round; stroke-linecap: butt}</style>
 </defs>
 <g id="figure_1">
  <g id="patch_1">
   <path d="M 0 216 
L 432 216 
L 432 0 
L 0 0 
z
" style="fill: #ffffff"/>
  </g>
  <g id="axes_1">
   <g id="line2d_1">
    <path d="M 198.581599 111.926107 
L 198.594025 109.898868 
L 198.969876 105.57696 
L 199.247787 104.204213 
L 199.228531 103.596417 
L 198.779678 102.251176 
L 197.880444 99.825242 
L 197.471392 98.136541 
L 196.772338 93.829772 
L 196.478445 91.915375 
L 196.084925 90.951253 
L 194.409096 87.991896 
L 193.68915 87.388058 
L 192.197539 86.257062 
L 191.148843 85.353951 
L 189.185423 84.060572 
L 187.97295 83.197251 
L 186.632642 82.225162 
L 185.072233 81.462418 
L 182.104104 80.092856 
L 179.5956 78.764285 
L 177.84712 77.902127 
L 177.16725 77.317367 
L 176.39404 76.347832 
L 175.449323 75.530315 
L 173.882833 74.763623 
L 172.192106 73.842845 
L 171.261743 73.196587 
L 169.416625 71.827155 
L 168.818464 71.685963 
L 165.24029 71.41514 
L 163.382329 71.542747 
L 160.627934 71.359901 
L 157.187349 70.964779 
L 156.123378 70.572522 
L 150.994134 68.579427 
L 144.200662 67.642598 
L 137.35008 66.578151 
L 134.247147 67.357931 
L 129.780929 68.637184 
L 128.405239 68.800217 
L 124.5505 69.073456 
L 120.90356 69.348671 
L 118.731386 69.430013 
L 117.704647 69.719752 
L 113.72682 71.517999 
L 112.190534 71.939165 
L 108.830544 72.688873 
L 104.95803 74.029218 
L 102.909642 74.662743 
L 98.175342 75.973793 
L 95.277152 77.130999 
L 92.377091 77.82631 
L 89.989573 78.261414 
L 88.548409 78.865264 
L 83.361993 81.035345 
L 83.007694 81.547402 
L 82.849546 82.203039 
L 82.183424 84.366349 
L 81.72212 85.198474 
L 81.178454 85.793502 
L 78.87426 87.501248 
L 77.953282 87.987531 
L 76.249927 88.591068 
L 74.15309 89.485684 
L 71.514502 90.821861 
L 70.226439 91.543065 
L 68.463148 92.678434 
L 67.490529 93.346901 
L 67.101405 93.876703 
L 66.894843 94.668743 
L 66.429133 96.037037 
L 65.851505 97.048796 
L 63.963408 99.452977 
L 62.959123 101.465532 
L 62.049487 102.902793 
L 61.694564 103.544221 
L 60.943281 105.808652 
L 60.94492 106.32332 
L 61.241309 107.188212 
L 62.163595 109.442529 
L 62.631301 110.396406 
L 63.285894 112.269181 
L 63.898996 114.873077 
L 64.293406 116.760288 
L 65.098705 117.811011 
L 66.133897 119.321255 
L 67.117461 121.151233 
L 67.535159 121.821226 
L 68.015924 122.172538 
L 69.589184 122.834877 
L 70.652957 123.400123 
L 71.34773 123.977362 
L 72.420953 125.372145 
L 73.372199 127.032154 
L 73.90573 127.832527 
L 74.47929 128.29573 
L 77.097421 130.012762 
L 78.21787 130.534787 
L 80.68225 132.016871 
L 85.582821 135.270367 
L 86.257833 135.76165 
L 86.875946 135.945579 
L 88.003654 136.042958 
L 90.900656 136.398001 
L 92.102581 136.799592 
L 93.615505 137.563424 
L 94.752406 138.422523 
L 95.907783 139.493632 
L 96.500306 139.766284 
L 110.097874 143.491706 
L 110.971859 144.023665 
L 111.973419 144.915794 
L 113.405548 145.893847 
L 116.363536 147.311668 
L 116.912468 147.406763 
L 120.492062 147.400313 
L 125.288807 147.056015 
L 126.459316 147.22987 
L 131.31068 148.705854 
L 132.515444 149.080132 
L 134.622792 149.55216 
L 135.999269 150.046409 
L 137.112577 150.658206 
L 138.909907 151.569619 
L 139.419093 151.641686 
L 140.113339 151.542749 
L 151.6281 148.616768 
L 152.729396 148.59923 
L 155.073584 148.845539 
L 157.415762 149.060355 
L 159.38013 149.178448 
L 160.392143 148.870013 
L 162.145805 148.057436 
L 164.178089 147.163535 
L 166.569124 145.826551 
L 167.665023 145.40426 
L 172.631433 144.050219 
L 174.102617 143.497551 
L 175.39663 143.185706 
L 176.62914 142.756948 
L 177.162796 142.370284 
L 179.330019 140.390743 
L 180.24632 139.757878 
L 182.595444 138.526712 
L 184.469115 137.908136 
L 186.290754 137.17973 
L 188.410746 135.940572 
L 190.426897 134.825309 
L 190.873389 134.218843 
L 191.72695 132.582165 
L 192.887194 130.889818 
L 195.474377 127.446342 
L 195.76816 126.761653 
L 195.788916 126.068105 
L 195.610726 124.773656 
L 195.667743 123.291012 
L 195.883285 122.332563 
L 196.569407 120.424519 
L 196.630705 119.696736 
L 196.604416 117.873345 
L 196.597188 116.7059 
L 196.290419 114.49042 
L 196.127056 109.031803 
L 196.127056 109.031803 
" clip-path="url(#pb2bd298287)" style="fill: none; stroke: #1f77b4; stroke-width: 1.5; stroke-linecap: square"/>
   </g>
   <g id="text_1">
    <!-- SRV -->
    <g transform="translate(118.338409 19.92) scale(0.12 -0.12)">
     <defs>
      <path id="DejaVuSans-53" d="M 3425 4513 
L 3425 3897 
Q 3066 4069 2747 4153 
Q 2428 4238 2131 4238 
Q 1616 4238 1336 4038 
Q 1056 3838 1056 3469 
Q 1056 3159 1242 3001 
Q 1428 2844 1947 2747 
L 2328 2669 
Q 3034 2534 3370 2195 
Q 3706 1856 3706 1288 
Q 3706 609 3251 259 
Q 2797 -91 1919 -91 
Q 1588 -91 1214 -16 
Q 841 59 441 206 
L 441 856 
Q 825 641 1194 531 
Q 1563 422 1919 422 
Q 2459 422 2753 634 
Q 3047 847 3047 1241 
Q 3047 1584 2836 1778 
Q 2625 1972 2144 2069 
L 1759 2144 
Q 1053 2284 737 2584 
Q 422 2884 422 3419 
Q 422 4038 858 4394 
Q 1294 4750 2059 4750 
Q 2388 4750 2728 4690 
Q 3069 4631 3425 4513 
z
" transform="scale(0.015625)"/>
      <path id="DejaVuSans-52" d="M 2841 2188 
Q 3044 2119 3236 1894 
Q 3428 1669 3622 1275 
L 4263 0 
L 3584 0 
L 2988 1197 
Q 2756 1666 2539 1819 
Q 2322 1972 1947 1972 
L 1259 1972 
L 1259 0 
L 628 0 
L 628 4666 
L 2053 4666 
Q 2853 4666 3247 4331 
Q 3641 3997 3641 3322 
Q 3641 2881 3436 2590 
Q 3231 2300 2841 2188 
z
M 1259 4147 
L 1259 2491 
L 2053 2491 
Q 2509 2491 2742 2702 
Q 2975 2913 2975 3322 
Q 2975 3731 2742 3939 
Q 2509 4147 2053 4147 
L 1259 4147 
z
" transform="scale(0.015625)"/>
      <path id="DejaVuSans-56" d="M 1831 0 
L 50 4666 
L 709 4666 
L 2188 738 
L 3669 4666 
L 4325 4666 
L 2547 0 
L 1831 0 
z
" transform="scale(0.015625)"/>
     </defs>
     <use xlink:href="#DejaVuSans-53"/>
     <use xlink:href="#DejaVuSans-52" x="63.476562"/>
     <use xlink:href="#DejaVuSans-56" x="127.458984"/>
    </g>
   </g>
  </g>
  <g id="axes_2">
   <g id="line2d_2">
    <path d="M 380.499715 109.127924 
L 380.466427 107.011139 
L 380.464142 105.747798 
L 380.492038 104.710915 
L 380.768085 103.347858 
L 381.338539 101.547756 
L 381.795935 100.3485 
L 381.882645 99.638898 
L 381.679554 98.720612 
L 380.342842 95.379215 
L 380.095146 93.651827 
L 379.937867 92.607913 
L 379.757098 91.38996 
L 379.735204 89.269326 
L 379.697902 88.076959 
L 379.510232 87.080981 
L 378.995152 85.968951 
L 377.360952 82.946276 
L 376.326022 82.228304 
L 375.32379 81.497608 
L 374.260667 80.631453 
L 373.238881 80.003153 
L 371.504599 79.142316 
L 370.811085 78.621442 
L 369.787795 77.705023 
L 368.573982 77.114222 
L 366.60737 76.51537 
L 365.518541 76.152216 
L 364.24071 75.48662 
L 362.791188 74.716361 
L 361.19019 74.196068 
L 360.090717 73.758089 
L 359.42796 73.235236 
L 358.821384 71.96952 
L 357.89363 70.860793 
L 356.623181 70.22912 
L 355.228199 69.50542 
L 353.92685 68.631022 
L 353.390632 68.069428 
L 352.197331 66.63729 
L 351.851555 66.432233 
L 351.093219 66.341613 
L 348.223835 66.208625 
L 345.720665 66.635874 
L 343.552767 66.6996 
L 342.221429 66.692321 
L 339.950134 66.938826 
L 339.104163 66.899976 
L 336.037668 65.680315 
L 334.760928 64.876626 
L 333.247025 64.231052 
L 324.886057 63.004182 
L 324.242384 62.883328 
L 321.70624 62.528913 
L 319.800915 61.867 
L 319.139264 61.87668 
L 317.797957 62.309047 
L 315.683093 63.153964 
L 314.348105 63.906502 
L 313.498786 64.195652 
L 312.493406 64.469556 
L 310.994407 64.945916 
L 309.421344 64.989338 
L 307.69304 65.080113 
L 302.820758 65.48316 
L 302.091809 65.508009 
L 300.085916 65.740487 
L 298.903053 66.399877 
L 295.269063 68.613576 
L 294.262338 68.910177 
L 290.541789 69.931126 
L 288.399206 70.800658 
L 283.519193 72.317651 
L 281.896768 72.775139 
L 277.064655 75.067093 
L 275.669061 75.467479 
L 274.491492 75.53658 
L 272.700976 75.785966 
L 269.489161 76.982802 
L 268.553933 77.359206 
L 267.549115 77.682474 
L 265.674406 78.239074 
L 265.337224 78.632195 
L 265.168553 79.031301 
L 265.231264 79.568859 
L 265.300385 80.343284 
L 265.481732 81.996551 
L 265.390777 83.320165 
L 265.115587 84.017407 
L 264.185181 84.957222 
L 262.537732 86.279383 
L 261.340924 86.799745 
L 260.366149 87.090576 
L 257.76868 88.089858 
L 255.512767 89.037746 
L 254.395052 89.496971 
L 252.849218 90.402108 
L 250.726574 91.566395 
L 250.360537 92.062254 
L 250.285828 92.457634 
L 250.152459 94.243984 
L 249.735428 95.581776 
L 249.275099 96.225205 
L 247.820193 97.739198 
L 247.411469 98.681058 
L 246.60815 100.395711 
L 246.183739 101.132931 
L 244.701436 103.116433 
L 244.207733 104.46521 
L 243.535537 106.069181 
L 243.700537 106.618234 
L 244.218991 107.879583 
L 244.588007 108.703995 
L 245.048289 109.455981 
L 245.570801 110.032096 
L 246.300509 111.109029 
L 246.644056 111.787827 
L 247.352072 114.888471 
L 247.315702 116.585365 
L 247.314919 117.360191 
L 247.567686 117.866131 
L 248.353304 118.792033 
L 249.239479 119.966642 
L 250.010958 121.417203 
L 250.890556 123.740188 
L 251.216659 123.982909 
L 252.346438 124.192137 
L 254.07218 124.542113 
L 254.9192 124.915173 
L 255.484134 125.457091 
L 256.397599 126.785886 
L 256.904306 127.992642 
L 257.092386 129.203219 
L 257.382047 129.90368 
L 257.797756 130.340315 
L 258.954125 131.228685 
L 260.274839 132.089609 
L 264.124408 133.975947 
L 266.335027 135.380166 
L 267.965555 136.450833 
L 268.790056 137.125497 
L 270.230222 138.655875 
L 270.816229 138.816635 
L 272.147697 138.747571 
L 274.570538 138.666579 
L 275.705785 138.891406 
L 277.232436 139.559688 
L 278.5305 140.447284 
L 278.850716 141.044145 
L 279.457198 142.182933 
L 279.846964 142.802104 
L 280.616562 143.100224 
L 282.488609 143.442398 
L 287.029962 144.617038 
L 289.251661 145.172737 
L 291.559531 145.859555 
L 293.622614 146.200603 
L 294.549082 146.65627 
L 294.853301 146.975513 
L 297.181566 149.462091 
L 297.933197 150.019426 
L 299.304376 151.045071 
L 300.305929 151.542779 
L 301.0844 151.560354 
L 305.671819 151.012892 
L 307.906148 150.511635 
L 308.909047 150.485668 
L 309.844711 150.595796 
L 312.082933 151.186122 
L 313.337358 151.473575 
L 314.9288 152.441594 
L 316.182564 152.780798 
L 317.834036 153.235711 
L 319.182935 153.755841 
L 319.94505 154.189144 
L 321.012542 155.11379 
L 322.348147 156.230446 
L 322.754367 156.315559 
L 323.536575 156.202973 
L 325.833485 155.450013 
L 327.783859 154.648406 
L 328.931235 154.239584 
L 330.021127 153.852389 
L 332.402551 152.86589 
L 334.783255 152.163372 
L 335.716398 152.12633 
L 336.864183 152.337142 
L 339.025552 152.436659 
L 339.952578 152.519048 
L 341.909445 153.135856 
L 342.877632 153.228908 
L 343.522929 153.109207 
L 344.336605 152.663303 
L 346.050039 151.822943 
L 347.255054 151.233132 
L 348.971163 149.904709 
L 350.009423 149.217644 
L 350.741206 148.873215 
L 351.999327 148.618539 
L 353.808556 148.220288 
L 356.294209 147.295215 
L 357.532554 146.784564 
L 359.99618 146.468226 
L 360.447702 146.260813 
L 361.338167 145.357135 
L 362.133223 144.358391 
L 362.937227 143.426414 
L 363.636847 142.886368 
L 365.937188 141.542287 
L 366.762028 141.253432 
L 368.698143 140.802134 
L 369.513378 140.532773 
L 370.612538 139.873135 
L 371.375246 139.459421 
L 373.387377 138.659727 
L 374.449312 138.271444 
L 374.89531 137.931829 
L 375.206424 137.44492 
L 375.921057 135.717411 
L 376.673815 134.467086 
L 377.706375 133.104965 
L 379.019772 131.544808 
L 380.558775 129.368526 
L 380.575728 128.75032 
L 380.213235 127.630755 
L 379.962164 125.575 
L 380.112231 124.687129 
L 381.216516 122.421082 
L 381.208591 121.487325 
L 381.163036 120.078726 
L 381.312308 118.787258 
L 380.496732 113.703874 
L 380.578187 111.687884 
L 380.589963 110.269869 
L 380.504704 109.344243 
L 380.504704 109.344243 
" clip-path="url(#p158fea96aa)" style="fill: none; stroke: #1f77b4; stroke-width: 1.5; stroke-linecap: square"/>
   </g>
   <g id="text_2">
    <!-- Linear -->
    <g transform="translate(294.061278 19.92) scale(0.12 -0.12)">
     <defs>
      <path id="DejaVuSans-4c" d="M 628 4666 
L 1259 4666 
L 1259 531 
L 3531 531 
L 3531 0 
L 628 0 
L 628 4666 
z
" transform="scale(0.015625)"/>
      <path id="DejaVuSans-69" d="M 603 3500 
L 1178 3500 
L 1178 0 
L 603 0 
L 603 3500 
z
M 603 4863 
L 1178 4863 
L 1178 4134 
L 603 4134 
L 603 4863 
z
" transform="scale(0.015625)"/>
      <path id="DejaVuSans-6e" d="M 3513 2113 
L 3513 0 
L 2938 0 
L 2938 2094 
Q 2938 2591 2744 2837 
Q 2550 3084 2163 3084 
Q 1697 3084 1428 2787 
Q 1159 2491 1159 1978 
L 1159 0 
L 581 0 
L 581 3500 
L 1159 3500 
L 1159 2956 
Q 1366 3272 1645 3428 
Q 1925 3584 2291 3584 
Q 2894 3584 3203 3211 
Q 3513 2838 3513 2113 
z
" transform="scale(0.015625)"/>
      <path id="DejaVuSans-65" d="M 3597 1894 
L 3597 1613 
L 953 1613 
Q 991 1019 1311 708 
Q 1631 397 2203 397 
Q 2534 397 2845 478 
Q 3156 559 3463 722 
L 3463 178 
Q 3153 47 2828 -22 
Q 2503 -91 2169 -91 
Q 1331 -91 842 396 
Q 353 884 353 1716 
Q 353 2575 817 3079 
Q 1281 3584 2069 3584 
Q 2775 3584 3186 3129 
Q 3597 2675 3597 1894 
z
M 3022 2063 
Q 3016 2534 2758 2815 
Q 2500 3097 2075 3097 
Q 1594 3097 1305 2825 
Q 1016 2553 972 2059 
L 3022 2063 
z
" transform="scale(0.015625)"/>
      <path id="DejaVuSans-61" d="M 2194 1759 
Q 1497 1759 1228 1600 
Q 959 1441 959 1056 
Q 959 750 1161 570 
Q 1363 391 1709 391 
Q 2188 391 2477 730 
Q 2766 1069 2766 1631 
L 2766 1759 
L 2194 1759 
z
M 3341 1997 
L 3341 0 
L 2766 0 
L 2766 531 
Q 2569 213 2275 61 
Q 1981 -91 1556 -91 
Q 1019 -91 701 211 
Q 384 513 384 1019 
Q 384 1609 779 1909 
Q 1175 2209 1959 2209 
L 2766 2209 
L 2766 2266 
Q 2766 2663 2505 2880 
Q 2244 3097 1772 3097 
Q 1472 3097 1187 3025 
Q 903 2953 641 2809 
L 641 3341 
Q 956 3463 1253 3523 
Q 1550 3584 1831 3584 
Q 2591 3584 2966 3190 
Q 3341 2797 3341 1997 
z
" transform="scale(0.015625)"/>
      <path id="DejaVuSans-72" d="M 2631 2963 
Q 2534 3019 2420 3045 
Q 2306 3072 2169 3072 
Q 1681 3072 1420 2755 
Q 1159 2438 1159 1844 
L 1159 0 
L 581 0 
L 581 3500 
L 1159 3500 
L 1159 2956 
Q 1341 3275 1631 3429 
Q 1922 3584 2338 3584 
Q 2397 3584 2469 3576 
Q 2541 3569 2628 3553 
L 2631 2963 
z
" transform="scale(0.015625)"/>
     </defs>
     <use xlink:href="#DejaVuSans-4c"/>
     <use xlink:href="#DejaVuSans-69" x="55.712891"/>
     <use xlink:href="#DejaVuSans-6e" x="83.496094"/>
     <use xlink:href="#DejaVuSans-65" x="146.875"/>
     <use xlink:href="#DejaVuSans-61" x="208.398438"/>
     <use xlink:href="#DejaVuSans-72" x="269.677734"/>
    </g>
   </g>
  </g>
 </g>
 <defs>
  <clipPath id="pb2bd298287">
   <rect x="54" y="25.92" width="152.181818" height="166.32"/>
  </clipPath>
  <clipPath id="p158fea96aa">
   <rect x="236.618182" y="25.92" width="152.181818" height="166.32"/>
  </clipPath>
 </defs>
</svg>
