<?xml version="1.0" encoding="utf-8" standalone="no"?>
<!DOCTYPE svg PUBLIC "-//W3C//DTD SVG 1.1//EN"
  "http://www.w3.org/Graphics/SVG/1.1/DTD/svg11.dtd">
<svg xmlns:xlink="http://www.w3.org/1999/xlink" width="432pt" height="216pt" viewBox="0 0 432 216" xmlns="http://www.w3.org/2000/svg" version="1.1">
 <metadata>
  <rdf:RDF xmlns:dc="http://purl.org/dc/elements/1.1/" xmlns:cc="http://creativecommons.org/ns#" xmlns:rdf="http://www.w3.org/1999/02/22-rdf-syntax-ns#">
   <cc:Work>
    <dc:type rdf:resource="http://purl.org/dc/dcmitype/StillImage"/>
    <dc:date>2024-04-25T17:12:25.155168</dc:date>
    <dc:format>image/svg+xml</dc:format>
    <dc:creator>
     <cc:Agent>
      <dc:title>Matplotlib v3.8.4, https://matplotlib.org/</dc:title>
     </cc:Agent>
    </dc:creator>
   </cc:Work>
  </rdf:RDF>
 </metadata>
 <defs>
  <style type="text/css">*{stroke-linejoin: round; stroke-linecap: butt}</style>
 </defs>
 <g id="figure_1">
  <g id="patch_1">
   <path d="M 0 216 
L 432 216 
L 432 0 
L 0 0 
z
" style="fill: #ffffff"/>
  </g>
  <g id="axes_1">
   <g id="line2d_1">
    <path d="M 198.206234 111.178527 
L 197.178054 110.517993 
L 196.121742 109.545371 
L 195.418756 108.516839 
L 194.264402 106.247879 
L 192.106722 101.132289 
L 190.362293 98.171013 
L 188.497132 95.598746 
L 185.961539 92.694077 
L 182.643414 89.544442 
L 180.602328 87.59831 
L 175.89356 83.939336 
L 170.267615 80.066776 
L 167.776829 78.643576 
L 163.23387 75.880266 
L 161.469542 74.878674 
L 156.925212 72.195799 
L 154.626872 71.252818 
L 153.23587 70.609384 
L 151.554707 69.860789 
L 149.690023 69.100348 
L 148.215013 68.545652 
L 144.687035 67.170249 
L 142.651444 66.575193 
L 141.250456 66.214254 
L 138.845933 65.591935 
L 137.416962 65.30154 
L 134.843195 64.796774 
L 128.056884 63.623639 
L 119.773651 63.418443 
L 113.55554 63.660778 
L 111.580345 63.948431 
L 103.453948 65.521032 
L 95.424995 68.233873 
L 86.477491 71.901166 
L 81.076113 74.946692 
L 76.912629 77.936141 
L 75.347659 79.275678 
L 71.079298 83.394681 
L 68.699025 86.265087 
L 67.415458 87.993508 
L 64.700055 92.123518 
L 63.690388 94.251221 
L 62.955797 96.04499 
L 61.759654 99.87762 
L 61.029626 104.140577 
L 60.917438 105.767483 
L 61.124094 109.322952 
L 62.154994 113.796806 
L 62.45032 114.952496 
L 62.734277 116.149958 
L 64.856176 120.547286 
L 68.348416 126.263832 
L 69.138513 127.583657 
L 69.691812 128.287279 
L 70.978646 129.784105 
L 71.902809 130.81626 
L 72.80613 131.78755 
L 73.983516 133.083194 
L 77.532257 136.212358 
L 78.727923 137.245082 
L 79.47227 137.843984 
L 80.687796 138.753949 
L 82.561362 140.18411 
L 85.935606 142.426339 
L 89.497647 144.479952 
L 91.67975 145.822733 
L 93.976435 147.011394 
L 96.380345 148.141028 
L 97.48927 148.674463 
L 104.284133 151.274486 
L 113.044254 153.333237 
L 119.347966 154.241413 
L 124.874279 154.750173 
L 127.949615 154.794588 
L 129.790306 154.724454 
L 131.023887 154.691928 
L 133.791982 154.659725 
L 136.413397 154.382125 
L 140.269977 153.801351 
L 143.196602 153.125734 
L 144.709203 152.736177 
L 146.15068 152.451842 
L 147.494233 152.184451 
L 149.028916 151.702379 
L 155.246719 149.582785 
L 162.558884 146.318558 
L 174.28236 139.216465 
L 180.414294 134.467658 
L 183.873873 131.337068 
L 186.821389 128.256954 
L 189.733856 124.911972 
L 191.193988 122.752217 
L 192.388435 120.629706 
L 193.530025 118.459846 
L 194.071889 117.295205 
L 194.907116 115.690741 
L 195.93667 113.437848 
L 196.488783 112.327024 
L 196.866808 111.499855 
L 197.875337 110.044162 
L 198.828501 108.711522 
L 199.264463 107.820317 
L 199.264463 107.820317 
" clip-path="url(#p227caa3359)" style="fill: none; stroke: #1f77b4; stroke-width: 1.5; stroke-linecap: square"/>
   </g>
   <g id="text_1">
    <!-- SRV -->
    <g transform="translate(118.338409 19.92) scale(0.12 -0.12)">
     <defs>
      <path id="DejaVuSans-53" d="M 3425 4513 
L 3425 3897 
Q 3066 4069 2747 4153 
Q 2428 4238 2131 4238 
Q 1616 4238 1336 4038 
Q 1056 3838 1056 3469 
Q 1056 3159 1242 3001 
Q 1428 2844 1947 2747 
L 2328 2669 
Q 3034 2534 3370 2195 
Q 3706 1856 3706 1288 
Q 3706 609 3251 259 
Q 2797 -91 1919 -91 
Q 1588 -91 1214 -16 
Q 841 59 441 206 
L 441 856 
Q 825 641 1194 531 
Q 1563 422 1919 422 
Q 2459 422 2753 634 
Q 3047 847 3047 1241 
Q 3047 1584 2836 1778 
Q 2625 1972 2144 2069 
L 1759 2144 
Q 1053 2284 737 2584 
Q 422 2884 422 3419 
Q 422 4038 858 4394 
Q 1294 4750 2059 4750 
Q 2388 4750 2728 4690 
Q 3069 4631 3425 4513 
z
" transform="scale(0.015625)"/>
      <path id="DejaVuSans-52" d="M 2841 2188 
Q 3044 2119 3236 1894 
Q 3428 1669 3622 1275 
L 4263 0 
L 3584 0 
L 2988 1197 
Q 2756 1666 2539 1819 
Q 2322 1972 1947 1972 
L 1259 1972 
L 1259 0 
L 628 0 
L 628 4666 
L 2053 4666 
Q 2853 4666 3247 4331 
Q 3641 3997 3641 3322 
Q 3641 2881 3436 2590 
Q 3231 2300 2841 2188 
z
M 1259 4147 
L 1259 2491 
L 2053 2491 
Q 2509 2491 2742 2702 
Q 2975 2913 2975 3322 
Q 2975 3731 2742 3939 
Q 2509 4147 2053 4147 
L 1259 4147 
z
" transform="scale(0.015625)"/>
      <path id="DejaVuSans-56" d="M 1831 0 
L 50 4666 
L 709 4666 
L 2188 738 
L 3669 4666 
L 4325 4666 
L 2547 0 
L 1831 0 
z
" transform="scale(0.015625)"/>
     </defs>
     <use xlink:href="#DejaVuSans-53"/>
     <use xlink:href="#DejaVuSans-52" x="63.476562"/>
     <use xlink:href="#DejaVuSans-56" x="127.458984"/>
    </g>
   </g>
  </g>
  <g id="axes_2">
   <g id="line2d_2">
    <path d="M 381.779902 107.949393 
L 379.972683 106.771793 
L 377.767269 104.722712 
L 376.933678 103.68984 
L 372.661725 97.812421 
L 369.931892 94.162403 
L 364.620336 86.599879 
L 361.881909 83.485278 
L 359.805885 80.946612 
L 355.621964 76.395021 
L 349.820235 70.155328 
L 344.186795 65.056031 
L 342.576126 63.945635 
L 336.440768 60.073924 
L 323.886158 53.923479 
L 321.91083 53.315612 
L 317.313537 52.268719 
L 309.668018 51.116075 
L 307.693788 51.02381 
L 298.509121 51.31713 
L 297.069355 51.460269 
L 291.141759 52.256261 
L 286.000341 53.643796 
L 279.578624 56.236987 
L 275.431136 58.160751 
L 273.842674 58.994946 
L 270.039093 61.353862 
L 264.763491 65.338286 
L 262.476867 67.200778 
L 260.403028 69.012717 
L 258.125497 71.431134 
L 256.856243 72.871627 
L 255.86707 74.152333 
L 254.510084 76.034637 
L 250.344726 83.077738 
L 249.324185 85.085806 
L 247.046733 90.241575 
L 245.11767 97.198857 
L 244.453197 100.883774 
L 244.092053 103.590203 
L 243.557737 111.947075 
L 243.905407 116.441824 
L 244.470208 120.179505 
L 245.978986 125.241416 
L 246.938011 128.145882 
L 248.405646 131.115613 
L 248.979746 132.363166 
L 249.488629 133.362937 
L 252.662767 139.52006 
L 253.766894 141.003202 
L 256.749466 144.585597 
L 258.265018 146.339028 
L 262.459274 150.687786 
L 263.817026 151.868266 
L 265.350805 153.153211 
L 272.503907 158.46899 
L 275.537696 160.289012 
L 278.923763 161.771535 
L 281.353629 162.740342 
L 283.903605 163.80338 
L 288.145627 165.280446 
L 289.649687 165.661818 
L 291.733172 166.105334 
L 294.047106 166.480482 
L 298.309463 167.121335 
L 300.689127 167.138965 
L 304.122404 167.111142 
L 308.299992 167.073434 
L 311.144075 166.636128 
L 313.622747 166.369837 
L 315.341722 166.149522 
L 317.327025 165.740928 
L 320.434369 164.997537 
L 323.206477 164.319108 
L 328.456974 162.595447 
L 330.030262 161.952739 
L 332.908993 160.560852 
L 339.667707 156.685866 
L 345.229916 152.814284 
L 347.213182 151.108236 
L 349.459718 149.017615 
L 352.342285 146.241085 
L 355.07646 143.790031 
L 357.735705 141.032958 
L 361.324643 136.938266 
L 363.102528 134.498738 
L 365.379951 131.355827 
L 374.755819 118.342107 
L 377.209851 115.344623 
L 379.671671 112.331537 
L 380.969807 110.406107 
L 381.766228 108.692205 
L 381.882645 108.386152 
L 381.882645 108.386152 
" clip-path="url(#p9fcc272a88)" style="fill: none; stroke: #1f77b4; stroke-width: 1.5; stroke-linecap: square"/>
   </g>
   <g id="text_2">
    <!-- Linear -->
    <g transform="translate(294.061278 19.92) scale(0.12 -0.12)">
     <defs>
      <path id="DejaVuSans-4c" d="M 628 4666 
L 1259 4666 
L 1259 531 
L 3531 531 
L 3531 0 
L 628 0 
L 628 4666 
z
" transform="scale(0.015625)"/>
      <path id="DejaVuSans-69" d="M 603 3500 
L 1178 3500 
L 1178 0 
L 603 0 
L 603 3500 
z
M 603 4863 
L 1178 4863 
L 1178 4134 
L 603 4134 
L 603 4863 
z
" transform="scale(0.015625)"/>
      <path id="DejaVuSans-6e" d="M 3513 2113 
L 3513 0 
L 2938 0 
L 2938 2094 
Q 2938 2591 2744 2837 
Q 2550 3084 2163 3084 
Q 1697 3084 1428 2787 
Q 1159 2491 1159 1978 
L 1159 0 
L 581 0 
L 581 3500 
L 1159 3500 
L 1159 2956 
Q 1366 3272 1645 3428 
Q 1925 3584 2291 3584 
Q 2894 3584 3203 3211 
Q 3513 2838 3513 2113 
z
" transform="scale(0.015625)"/>
      <path id="DejaVuSans-65" d="M 3597 1894 
L 3597 1613 
L 953 1613 
Q 991 1019 1311 708 
Q 1631 397 2203 397 
Q 2534 397 2845 478 
Q 3156 559 3463 722 
L 3463 178 
Q 3153 47 2828 -22 
Q 2503 -91 2169 -91 
Q 1331 -91 842 396 
Q 353 884 353 1716 
Q 353 2575 817 3079 
Q 1281 3584 2069 3584 
Q 2775 3584 3186 3129 
Q 3597 2675 3597 1894 
z
M 3022 2063 
Q 3016 2534 2758 2815 
Q 2500 3097 2075 3097 
Q 1594 3097 1305 2825 
Q 1016 2553 972 2059 
L 3022 2063 
z
" transform="scale(0.015625)"/>
      <path id="DejaVuSans-61" d="M 2194 1759 
Q 1497 1759 1228 1600 
Q 959 1441 959 1056 
Q 959 750 1161 570 
Q 1363 391 1709 391 
Q 2188 391 2477 730 
Q 2766 1069 2766 1631 
L 2766 1759 
L 2194 1759 
z
M 3341 1997 
L 3341 0 
L 2766 0 
L 2766 531 
Q 2569 213 2275 61 
Q 1981 -91 1556 -91 
Q 1019 -91 701 211 
Q 384 513 384 1019 
Q 384 1609 779 1909 
Q 1175 2209 1959 2209 
L 2766 2209 
L 2766 2266 
Q 2766 2663 2505 2880 
Q 2244 3097 1772 3097 
Q 1472 3097 1187 3025 
Q 903 2953 641 2809 
L 641 3341 
Q 956 3463 1253 3523 
Q 1550 3584 1831 3584 
Q 2591 3584 2966 3190 
Q 3341 2797 3341 1997 
z
" transform="scale(0.015625)"/>
      <path id="DejaVuSans-72" d="M 2631 2963 
Q 2534 3019 2420 3045 
Q 2306 3072 2169 3072 
Q 1681 3072 1420 2755 
Q 1159 2438 1159 1844 
L 1159 0 
L 581 0 
L 581 3500 
L 1159 3500 
L 1159 2956 
Q 1341 3275 1631 3429 
Q 1922 3584 2338 3584 
Q 2397 3584 2469 3576 
Q 2541 3569 2628 3553 
L 2631 2963 
z
" transform="scale(0.015625)"/>
     </defs>
     <use xlink:href="#DejaVuSans-4c"/>
     <use xlink:href="#DejaVuSans-69" x="55.712891"/>
     <use xlink:href="#DejaVuSans-6e" x="83.496094"/>
     <use xlink:href="#DejaVuSans-65" x="146.875"/>
     <use xlink:href="#DejaVuSans-61" x="208.398438"/>
     <use xlink:href="#DejaVuSans-72" x="269.677734"/>
    </g>
   </g>
  </g>
 </g>
 <defs>
  <clipPath id="p227caa3359">
   <rect x="54" y="25.92" width="152.181818" height="166.32"/>
  </clipPath>
  <clipPath id="p9fcc272a88">
   <rect x="236.618182" y="25.92" width="152.181818" height="166.32"/>
  </clipPath>
 </defs>
</svg>
