<?xml version="1.0" encoding="utf-8" standalone="no"?>
<!DOCTYPE svg PUBLIC "-//W3C//DTD SVG 1.1//EN"
  "http://www.w3.org/Graphics/SVG/1.1/DTD/svg11.dtd">
<svg xmlns:xlink="http://www.w3.org/1999/xlink" width="1080pt" height="360pt" viewBox="0 0 1080 360" xmlns="http://www.w3.org/2000/svg" version="1.1">
 <metadata>
  <rdf:RDF xmlns:dc="http://purl.org/dc/elements/1.1/" xmlns:cc="http://creativecommons.org/ns#" xmlns:rdf="http://www.w3.org/1999/02/22-rdf-syntax-ns#">
   <cc:Work>
    <dc:type rdf:resource="http://purl.org/dc/dcmitype/StillImage"/>
    <dc:date>2023-12-25T20:37:30.931911</dc:date>
    <dc:format>image/svg+xml</dc:format>
    <dc:creator>
     <cc:Agent>
      <dc:title>Matplotlib v3.6.2, https://matplotlib.org/</dc:title>
     </cc:Agent>
    </dc:creator>
   </cc:Work>
  </rdf:RDF>
 </metadata>
 <defs>
  <style type="text/css">*{stroke-linejoin: round; stroke-linecap: butt}</style>
 </defs>
 <g id="figure_1">
  <g id="patch_1">
   <path d="M 0 360 
L 1080 360 
L 1080 0 
L 0 0 
z
" style="fill: #ffffff"/>
  </g>
  <g id="axes_1">
   <g id="line2d_1">
    <path d="M 313.474484 52.519329 
L 313.474484 59.235208 
L 306.758605 65.951087 
L 300.042726 65.951087 
L 296.684787 62.593148 
L 293.326847 65.951087 
L 289.968908 65.951087 
L 286.610968 69.309027 
L 279.895089 69.309027 
L 273.17921 76.024906 
L 266.463331 76.024906 
L 263.105392 72.666966 
L 263.105392 69.309027 
L 263.105392 72.666966 
L 246.315694 89.456664 
L 242.957755 89.456664 
L 242.957755 92.814603 
L 239.599815 96.172543 
L 239.599815 99.530482 
L 236.241876 102.888422 
L 229.525997 102.888422 
L 222.810118 109.604301 
L 216.094239 109.604301 
L 209.37836 102.888422 
L 209.37836 99.530482 
L 199.304541 99.530482 
L 195.946602 96.172543 
L 189.230723 102.888422 
L 185.872783 102.888422 
L 182.514844 106.246361 
L 182.514844 116.32018 
L 189.230723 123.036059 
L 189.230723 129.751938 
L 185.872783 133.109877 
L 185.872783 139.825756 
L 179.156904 146.541635 
L 179.156904 149.899575 
L 169.083086 159.973393 
L 165.725146 159.973393 
L 159.009267 166.689272 
L 155.651328 166.689272 
L 152.293388 170.047212 
L 155.651328 173.405151 
L 159.009267 173.405151 
L 165.725146 180.12103 
L 165.725146 183.47897 
L 175.798965 193.552788 
L 179.156904 190.194849 
L 189.230723 190.194849 
L 192.588662 193.552788 
L 192.588662 196.910728 
L 195.946602 200.268667 
L 199.304541 200.268667 
L 206.02042 206.984546 
L 206.02042 210.342486 
L 209.37836 213.700425 
L 212.736299 210.342486 
L 212.736299 206.984546 
L 222.810118 196.910728 
L 226.168057 196.910728 
L 226.168057 190.194849 
L 229.525997 186.836909 
L 236.241876 186.836909 
L 239.599815 190.194849 
L 239.599815 196.910728 
L 236.241876 200.268667 
L 232.883936 200.268667 
L 232.883936 206.984546 
L 236.241876 210.342486 
L 236.241876 217.058365 
L 253.031573 217.058365 
L 259.747452 223.774244 
L 259.747452 233.848062 
L 263.105392 237.206002 
L 263.105392 243.921881 
L 259.747452 247.27982 
L 259.747452 250.63776 
L 256.389513 253.995699 
L 256.389513 257.353639 
L 253.031573 260.711578 
L 253.031573 267.427457 
L 249.673634 270.785397 
L 253.031573 274.143336 
L 256.389513 274.143336 
L 263.105392 280.859215 
L 266.463331 280.859215 
L 269.821271 284.217155 
L 273.17921 280.859215 
L 279.895089 280.859215 
L 289.968908 290.933034 
L 289.968908 301.006852 
L 286.610968 304.364792 
L 286.610968 307.722731 
L 300.042726 307.722731 
L 303.400666 304.364792 
L 323.548303 304.364792 
L 330.264182 311.080671 
L 336.980061 304.364792 
L 336.980061 301.006852 
L 340.338 297.648913 
L 347.053879 297.648913 
L 353.769758 304.364792 
L 357.127698 304.364792 
L 357.127698 290.933034 
L 360.485637 287.575094 
L 360.485637 280.859215 
L 363.843577 277.501276 
L 363.843577 274.143336 
L 373.917395 264.069518 
L 390.707093 264.069518 
L 394.065032 260.711578 
L 427.644428 260.711578 
L 434.360307 253.995699 
L 444.434125 253.995699 
L 454.507944 243.921881 
L 457.865883 243.921881 
L 461.223823 240.563941 
L 461.223823 237.206002 
L 471.297641 227.132183 
L 474.655581 227.132183 
L 478.01352 223.774244 
L 498.161157 223.774244 
L 498.161157 220.416304 
L 491.445278 213.700425 
L 491.445278 200.268667 
L 488.087339 196.910728 
L 488.087339 190.194849 
L 484.729399 186.836909 
L 484.729399 176.763091 
L 494.803218 166.689272 
L 494.803218 163.331333 
L 491.445278 159.973393 
L 491.445278 156.615454 
L 488.087339 153.257514 
L 488.087339 129.751938 
L 481.37146 129.751938 
L 474.655581 123.036059 
L 471.297641 123.036059 
L 467.939702 126.393998 
L 464.581762 126.393998 
L 461.223823 129.751938 
L 447.792065 129.751938 
L 444.434125 126.393998 
L 444.434125 112.96224 
L 441.076186 109.604301 
L 437.718246 109.604301 
L 431.002367 102.888422 
L 431.002367 99.530482 
L 427.644428 96.172543 
L 424.286488 96.172543 
L 420.928549 92.814603 
L 414.21267 92.814603 
L 410.85473 89.456664 
L 407.49679 89.456664 
L 404.138851 86.098724 
L 404.138851 79.382845 
L 400.780911 79.382845 
L 397.422972 76.024906 
L 397.422972 65.951087 
L 390.707093 65.951087 
L 387.349153 62.593148 
L 336.980061 62.593148 
L 333.622121 59.235208 
L 333.622121 55.877269 
L 326.906242 55.877269 
L 323.548303 52.519329 
L 323.548303 52.519329 
" clip-path="url(#pb8e3d23bad)" style="fill: none; stroke: #1f77b4; stroke-width: 1.5; stroke-linecap: square"/>
   </g>
   <g id="text_1">
    <!-- Original curve (166 points) -->
    <g transform="translate(244.654773 37.2) scale(0.12 -0.12)">
     <defs>
      <path id="DejaVuSans-4f" d="M 2522 4238 
Q 1834 4238 1429 3725 
Q 1025 3213 1025 2328 
Q 1025 1447 1429 934 
Q 1834 422 2522 422 
Q 3209 422 3611 934 
Q 4013 1447 4013 2328 
Q 4013 3213 3611 3725 
Q 3209 4238 2522 4238 
z
M 2522 4750 
Q 3503 4750 4090 4092 
Q 4678 3434 4678 2328 
Q 4678 1225 4090 567 
Q 3503 -91 2522 -91 
Q 1538 -91 948 565 
Q 359 1222 359 2328 
Q 359 3434 948 4092 
Q 1538 4750 2522 4750 
z
" transform="scale(0.015625)"/>
      <path id="DejaVuSans-72" d="M 2631 2963 
Q 2534 3019 2420 3045 
Q 2306 3072 2169 3072 
Q 1681 3072 1420 2755 
Q 1159 2438 1159 1844 
L 1159 0 
L 581 0 
L 581 3500 
L 1159 3500 
L 1159 2956 
Q 1341 3275 1631 3429 
Q 1922 3584 2338 3584 
Q 2397 3584 2469 3576 
Q 2541 3569 2628 3553 
L 2631 2963 
z
" transform="scale(0.015625)"/>
      <path id="DejaVuSans-69" d="M 603 3500 
L 1178 3500 
L 1178 0 
L 603 0 
L 603 3500 
z
M 603 4863 
L 1178 4863 
L 1178 4134 
L 603 4134 
L 603 4863 
z
" transform="scale(0.015625)"/>
      <path id="DejaVuSans-67" d="M 2906 1791 
Q 2906 2416 2648 2759 
Q 2391 3103 1925 3103 
Q 1463 3103 1205 2759 
Q 947 2416 947 1791 
Q 947 1169 1205 825 
Q 1463 481 1925 481 
Q 2391 481 2648 825 
Q 2906 1169 2906 1791 
z
M 3481 434 
Q 3481 -459 3084 -895 
Q 2688 -1331 1869 -1331 
Q 1566 -1331 1297 -1286 
Q 1028 -1241 775 -1147 
L 775 -588 
Q 1028 -725 1275 -790 
Q 1522 -856 1778 -856 
Q 2344 -856 2625 -561 
Q 2906 -266 2906 331 
L 2906 616 
Q 2728 306 2450 153 
Q 2172 0 1784 0 
Q 1141 0 747 490 
Q 353 981 353 1791 
Q 353 2603 747 3093 
Q 1141 3584 1784 3584 
Q 2172 3584 2450 3431 
Q 2728 3278 2906 2969 
L 2906 3500 
L 3481 3500 
L 3481 434 
z
" transform="scale(0.015625)"/>
      <path id="DejaVuSans-6e" d="M 3513 2113 
L 3513 0 
L 2938 0 
L 2938 2094 
Q 2938 2591 2744 2837 
Q 2550 3084 2163 3084 
Q 1697 3084 1428 2787 
Q 1159 2491 1159 1978 
L 1159 0 
L 581 0 
L 581 3500 
L 1159 3500 
L 1159 2956 
Q 1366 3272 1645 3428 
Q 1925 3584 2291 3584 
Q 2894 3584 3203 3211 
Q 3513 2838 3513 2113 
z
" transform="scale(0.015625)"/>
      <path id="DejaVuSans-61" d="M 2194 1759 
Q 1497 1759 1228 1600 
Q 959 1441 959 1056 
Q 959 750 1161 570 
Q 1363 391 1709 391 
Q 2188 391 2477 730 
Q 2766 1069 2766 1631 
L 2766 1759 
L 2194 1759 
z
M 3341 1997 
L 3341 0 
L 2766 0 
L 2766 531 
Q 2569 213 2275 61 
Q 1981 -91 1556 -91 
Q 1019 -91 701 211 
Q 384 513 384 1019 
Q 384 1609 779 1909 
Q 1175 2209 1959 2209 
L 2766 2209 
L 2766 2266 
Q 2766 2663 2505 2880 
Q 2244 3097 1772 3097 
Q 1472 3097 1187 3025 
Q 903 2953 641 2809 
L 641 3341 
Q 956 3463 1253 3523 
Q 1550 3584 1831 3584 
Q 2591 3584 2966 3190 
Q 3341 2797 3341 1997 
z
" transform="scale(0.015625)"/>
      <path id="DejaVuSans-6c" d="M 603 4863 
L 1178 4863 
L 1178 0 
L 603 0 
L 603 4863 
z
" transform="scale(0.015625)"/>
      <path id="DejaVuSans-20" transform="scale(0.015625)"/>
      <path id="DejaVuSans-63" d="M 3122 3366 
L 3122 2828 
Q 2878 2963 2633 3030 
Q 2388 3097 2138 3097 
Q 1578 3097 1268 2742 
Q 959 2388 959 1747 
Q 959 1106 1268 751 
Q 1578 397 2138 397 
Q 2388 397 2633 464 
Q 2878 531 3122 666 
L 3122 134 
Q 2881 22 2623 -34 
Q 2366 -91 2075 -91 
Q 1284 -91 818 406 
Q 353 903 353 1747 
Q 353 2603 823 3093 
Q 1294 3584 2113 3584 
Q 2378 3584 2631 3529 
Q 2884 3475 3122 3366 
z
" transform="scale(0.015625)"/>
      <path id="DejaVuSans-75" d="M 544 1381 
L 544 3500 
L 1119 3500 
L 1119 1403 
Q 1119 906 1312 657 
Q 1506 409 1894 409 
Q 2359 409 2629 706 
Q 2900 1003 2900 1516 
L 2900 3500 
L 3475 3500 
L 3475 0 
L 2900 0 
L 2900 538 
Q 2691 219 2414 64 
Q 2138 -91 1772 -91 
Q 1169 -91 856 284 
Q 544 659 544 1381 
z
M 1991 3584 
L 1991 3584 
z
" transform="scale(0.015625)"/>
      <path id="DejaVuSans-76" d="M 191 3500 
L 800 3500 
L 1894 563 
L 2988 3500 
L 3597 3500 
L 2284 0 
L 1503 0 
L 191 3500 
z
" transform="scale(0.015625)"/>
      <path id="DejaVuSans-65" d="M 3597 1894 
L 3597 1613 
L 953 1613 
Q 991 1019 1311 708 
Q 1631 397 2203 397 
Q 2534 397 2845 478 
Q 3156 559 3463 722 
L 3463 178 
Q 3153 47 2828 -22 
Q 2503 -91 2169 -91 
Q 1331 -91 842 396 
Q 353 884 353 1716 
Q 353 2575 817 3079 
Q 1281 3584 2069 3584 
Q 2775 3584 3186 3129 
Q 3597 2675 3597 1894 
z
M 3022 2063 
Q 3016 2534 2758 2815 
Q 2500 3097 2075 3097 
Q 1594 3097 1305 2825 
Q 1016 2553 972 2059 
L 3022 2063 
z
" transform="scale(0.015625)"/>
      <path id="DejaVuSans-28" d="M 1984 4856 
Q 1566 4138 1362 3434 
Q 1159 2731 1159 2009 
Q 1159 1288 1364 580 
Q 1569 -128 1984 -844 
L 1484 -844 
Q 1016 -109 783 600 
Q 550 1309 550 2009 
Q 550 2706 781 3412 
Q 1013 4119 1484 4856 
L 1984 4856 
z
" transform="scale(0.015625)"/>
      <path id="DejaVuSans-31" d="M 794 531 
L 1825 531 
L 1825 4091 
L 703 3866 
L 703 4441 
L 1819 4666 
L 2450 4666 
L 2450 531 
L 3481 531 
L 3481 0 
L 794 0 
L 794 531 
z
" transform="scale(0.015625)"/>
      <path id="DejaVuSans-36" d="M 2113 2584 
Q 1688 2584 1439 2293 
Q 1191 2003 1191 1497 
Q 1191 994 1439 701 
Q 1688 409 2113 409 
Q 2538 409 2786 701 
Q 3034 994 3034 1497 
Q 3034 2003 2786 2293 
Q 2538 2584 2113 2584 
z
M 3366 4563 
L 3366 3988 
Q 3128 4100 2886 4159 
Q 2644 4219 2406 4219 
Q 1781 4219 1451 3797 
Q 1122 3375 1075 2522 
Q 1259 2794 1537 2939 
Q 1816 3084 2150 3084 
Q 2853 3084 3261 2657 
Q 3669 2231 3669 1497 
Q 3669 778 3244 343 
Q 2819 -91 2113 -91 
Q 1303 -91 875 529 
Q 447 1150 447 2328 
Q 447 3434 972 4092 
Q 1497 4750 2381 4750 
Q 2619 4750 2861 4703 
Q 3103 4656 3366 4563 
z
" transform="scale(0.015625)"/>
      <path id="DejaVuSans-70" d="M 1159 525 
L 1159 -1331 
L 581 -1331 
L 581 3500 
L 1159 3500 
L 1159 2969 
Q 1341 3281 1617 3432 
Q 1894 3584 2278 3584 
Q 2916 3584 3314 3078 
Q 3713 2572 3713 1747 
Q 3713 922 3314 415 
Q 2916 -91 2278 -91 
Q 1894 -91 1617 61 
Q 1341 213 1159 525 
z
M 3116 1747 
Q 3116 2381 2855 2742 
Q 2594 3103 2138 3103 
Q 1681 3103 1420 2742 
Q 1159 2381 1159 1747 
Q 1159 1113 1420 752 
Q 1681 391 2138 391 
Q 2594 391 2855 752 
Q 3116 1113 3116 1747 
z
" transform="scale(0.015625)"/>
      <path id="DejaVuSans-6f" d="M 1959 3097 
Q 1497 3097 1228 2736 
Q 959 2375 959 1747 
Q 959 1119 1226 758 
Q 1494 397 1959 397 
Q 2419 397 2687 759 
Q 2956 1122 2956 1747 
Q 2956 2369 2687 2733 
Q 2419 3097 1959 3097 
z
M 1959 3584 
Q 2709 3584 3137 3096 
Q 3566 2609 3566 1747 
Q 3566 888 3137 398 
Q 2709 -91 1959 -91 
Q 1206 -91 779 398 
Q 353 888 353 1747 
Q 353 2609 779 3096 
Q 1206 3584 1959 3584 
z
" transform="scale(0.015625)"/>
      <path id="DejaVuSans-74" d="M 1172 4494 
L 1172 3500 
L 2356 3500 
L 2356 3053 
L 1172 3053 
L 1172 1153 
Q 1172 725 1289 603 
Q 1406 481 1766 481 
L 2356 481 
L 2356 0 
L 1766 0 
Q 1100 0 847 248 
Q 594 497 594 1153 
L 594 3053 
L 172 3053 
L 172 3500 
L 594 3500 
L 594 4494 
L 1172 4494 
z
" transform="scale(0.015625)"/>
      <path id="DejaVuSans-73" d="M 2834 3397 
L 2834 2853 
Q 2591 2978 2328 3040 
Q 2066 3103 1784 3103 
Q 1356 3103 1142 2972 
Q 928 2841 928 2578 
Q 928 2378 1081 2264 
Q 1234 2150 1697 2047 
L 1894 2003 
Q 2506 1872 2764 1633 
Q 3022 1394 3022 966 
Q 3022 478 2636 193 
Q 2250 -91 1575 -91 
Q 1294 -91 989 -36 
Q 684 19 347 128 
L 347 722 
Q 666 556 975 473 
Q 1284 391 1588 391 
Q 1994 391 2212 530 
Q 2431 669 2431 922 
Q 2431 1156 2273 1281 
Q 2116 1406 1581 1522 
L 1381 1569 
Q 847 1681 609 1914 
Q 372 2147 372 2553 
Q 372 3047 722 3315 
Q 1072 3584 1716 3584 
Q 2034 3584 2315 3537 
Q 2597 3491 2834 3397 
z
" transform="scale(0.015625)"/>
      <path id="DejaVuSans-29" d="M 513 4856 
L 1013 4856 
Q 1481 4119 1714 3412 
Q 1947 2706 1947 2009 
Q 1947 1309 1714 600 
Q 1481 -109 1013 -844 
L 513 -844 
Q 928 -128 1133 580 
Q 1338 1288 1338 2009 
Q 1338 2731 1133 3434 
Q 928 4138 513 4856 
z
" transform="scale(0.015625)"/>
     </defs>
     <use xlink:href="#DejaVuSans-4f"/>
     <use xlink:href="#DejaVuSans-72" x="78.710938"/>
     <use xlink:href="#DejaVuSans-69" x="119.824219"/>
     <use xlink:href="#DejaVuSans-67" x="147.607422"/>
     <use xlink:href="#DejaVuSans-69" x="211.083984"/>
     <use xlink:href="#DejaVuSans-6e" x="238.867188"/>
     <use xlink:href="#DejaVuSans-61" x="302.246094"/>
     <use xlink:href="#DejaVuSans-6c" x="363.525391"/>
     <use xlink:href="#DejaVuSans-20" x="391.308594"/>
     <use xlink:href="#DejaVuSans-63" x="423.095703"/>
     <use xlink:href="#DejaVuSans-75" x="478.076172"/>
     <use xlink:href="#DejaVuSans-72" x="541.455078"/>
     <use xlink:href="#DejaVuSans-76" x="582.568359"/>
     <use xlink:href="#DejaVuSans-65" x="641.748047"/>
     <use xlink:href="#DejaVuSans-20" x="703.271484"/>
     <use xlink:href="#DejaVuSans-28" x="735.058594"/>
     <use xlink:href="#DejaVuSans-31" x="774.072266"/>
     <use xlink:href="#DejaVuSans-36" x="837.695312"/>
     <use xlink:href="#DejaVuSans-36" x="901.318359"/>
     <use xlink:href="#DejaVuSans-20" x="964.941406"/>
     <use xlink:href="#DejaVuSans-70" x="996.728516"/>
     <use xlink:href="#DejaVuSans-6f" x="1060.205078"/>
     <use xlink:href="#DejaVuSans-69" x="1121.386719"/>
     <use xlink:href="#DejaVuSans-6e" x="1149.169922"/>
     <use xlink:href="#DejaVuSans-74" x="1212.548828"/>
     <use xlink:href="#DejaVuSans-73" x="1251.757812"/>
     <use xlink:href="#DejaVuSans-29" x="1303.857422"/>
    </g>
   </g>
  </g>
  <g id="axes_2">
   <g id="line2d_2">
    <path d="M 769.426402 53.047094 
L 769.426402 58.6392 
L 764.979858 64.231306 
L 759.387649 66.522018 
L 754.873665 65.444 
L 752.077355 63.658576 
L 749.281456 66.454629 
L 746.485146 66.522018 
L 743.689247 68.678004 
L 739.310143 69.890749 
L 733.717935 71.912008 
L 728.125726 76.628211 
L 722.533517 76.628211 
L 719.602738 73.966936 
L 718.895436 71.170883 
L 718.895436 71.406668 
L 714.17913 77.975683 
L 701.681269 90.103136 
L 698.88537 90.103136 
L 698.683049 92.697073 
L 696.661893 95.493126 
L 695.314318 98.289128 
L 694.438415 101.085181 
L 691.339034 103.57806 
L 685.747237 103.57806 
L 680.155028 108.631157 
L 674.562819 110.315522 
L 668.971022 107.553138 
L 664.995738 102.769546 
L 664.288436 100.209329 
L 655.900329 100.209329 
L 652.430437 97.75017 
L 647.747852 100.61356 
L 643.469497 103.57806 
L 640.673598 104.319185 
L 638.04589 107.45208 
L 638.04589 115.840239 
L 642.829636 121.836576 
L 644.783352 127.428682 
L 643.536938 131.774323 
L 641.414621 135.244112 
L 641.212299 140.836218 
L 635.620502 146.428324 
L 634.677158 149.695997 
L 629.421741 155.995508 
L 623.391992 160.846489 
L 619.98954 162.059234 
L 614.431052 167.583951 
L 611.635153 167.583951 
L 608.838843 169.840994 
L 609.411675 172.637047 
L 612.207574 174.321413 
L 615.542585 175.399431 
L 621.134794 180.991486 
L 621.202234 183.821259 
L 627.771095 190.996621 
L 632.925352 192.916823 
L 637.810259 191.165068 
L 645.255023 191.636689 
L 648.050922 194.432742 
L 648.152083 197.228795 
L 650.2744 200.024848 
L 653.070299 201.271262 
L 656.843261 203.225132 
L 661.627007 208.412955 
L 661.627007 211.209008 
L 664.254716 214.005061 
L 667.050615 212.691258 
L 668.364469 209.895205 
L 671.093339 205.28006 
L 678.807453 197.90253 
L 681.603763 197.90253 
L 681.839394 192.782045 
L 683.82683 189.177529 
L 688.037744 187.796337 
L 692.78777 188.63852 
L 695.314318 191.704078 
L 695.314318 197.296184 
L 692.82149 200.39541 
L 690.025591 201.271262 
L 688.576856 203.966257 
L 689.351598 208.783517 
L 691.945587 211.781686 
L 691.945587 217.373792 
L 704.072937 218.114917 
L 712.494764 221.820542 
L 715.526704 228.692731 
L 716.234006 235.665977 
L 718.895436 238.596757 
L 718.895436 244.188863 
L 716.537488 247.422919 
L 715.526704 250.21892 
L 714.314011 253.014922 
L 712.157973 255.811026 
L 712.090533 258.607028 
L 709.294634 261.403132 
L 708.789242 266.489846 
L 707.071157 270.363969 
L 706.565765 273.159971 
L 709.362075 275.383345 
L 712.157973 275.383345 
L 717.750182 280.975451 
L 721.118913 282.120808 
L 723.914812 283.771453 
L 726.710711 284.41152 
L 730.012413 282.120808 
L 735.60421 282.120808 
L 743.925288 290.306799 
L 745.845284 298.69501 
L 744.262079 303.916502 
L 742.476553 306.712503 
L 744.228359 309.070656 
L 755.412365 309.070656 
L 758.612907 306.40933 
L 771.85179 305.701925 
L 782.564535 308.733763 
L 788.156744 310.552906 
L 793.007519 305.331414 
L 793.007519 302.53531 
L 795.601508 299.739308 
L 800.418563 298.964463 
L 806.010772 301.861522 
L 810.727078 305.701925 
L 813.219906 304.489231 
L 813.219906 293.305019 
L 815.746454 289.700453 
L 816.588637 284.950529 
L 817.969932 280.739616 
L 819.957368 277.943614 
L 820.66467 274.675941 
L 829.052778 266.28773 
L 842.359512 265.277152 
L 848.793904 263.390671 
L 863.414081 261.908421 
L 885.445303 260.426171 
L 891.206113 255.170959 
L 899.59422 255.170959 
L 907.982328 247.995545 
L 912.732354 245.064766 
L 915.528253 243.818352 
L 917.65057 241.022247 
L 917.95364 238.02413 
L 926.341748 229.635971 
L 930.08099 228.22111 
L 932.8773 226.469356 
L 941.568478 224.852379 
L 954.706612 224.246032 
L 954.639171 221.416259 
L 949.046962 215.824205 
L 947.969149 205.718011 
L 946.284784 199.586896 
L 944.600418 195.679156 
L 944.061306 190.626059 
L 941.265407 187.830006 
L 941.231687 179.509236 
L 947.800548 171.121129 
L 951.33788 165.966974 
L 950.293376 163.170921 
L 947.969149 160.374868 
L 947.969149 157.578815 
L 945.274 154.782762 
L 944.600418 139.25291 
L 941.501038 130.527909 
L 935.90924 128.574039 
L 930.721263 123.790447 
L 927.925364 123.790447 
L 925.129054 126.418053 
L 922.333155 127.159178 
L 919.537256 128.641428 
L 914.012488 130.527909 
L 903.838854 130.191015 
L 901.042544 127.395014 
L 900.806914 116.918258 
L 898.819478 111.696714 
L 892.385086 108.631157 
L 887.33199 103.308555 
L 887.33199 100.512502 
L 884.839162 97.716449 
L 882.043263 96.840598 
L 879.246953 95.493126 
L 875.676312 93.471867 
L 870.286013 93.269751 
L 867.490114 90.473698 
L 864.694216 90.103136 
L 861.897906 88.250323 
L 860.382141 84.174188 
L 859.674839 79.996942 
L 856.878529 79.862216 
L 854.08263 77.066163 
L 853.644679 69.553856 
L 850.073627 66.522018 
L 845.694523 65.309273 
L 833.937684 63.153287 
L 792.940079 63.085898 
L 790.14418 60.289845 
L 789.638788 57.493844 
L 786.202617 56.415825 
L 781.756073 55.270469 
L 777.814509 53.047094 
L 777.814509 53.047094 
" clip-path="url(#p658e28549e)" style="fill: none; stroke: #1f77b4; stroke-width: 1.5; stroke-linecap: square"/>
   </g>
   <g id="text_2">
    <!-- Interpolated curve (200 points) -->
    <g transform="translate(687.918665 37.2) scale(0.12 -0.12)">
     <defs>
      <path id="DejaVuSans-49" d="M 628 4666 
L 1259 4666 
L 1259 0 
L 628 0 
L 628 4666 
z
" transform="scale(0.015625)"/>
      <path id="DejaVuSans-64" d="M 2906 2969 
L 2906 4863 
L 3481 4863 
L 3481 0 
L 2906 0 
L 2906 525 
Q 2725 213 2448 61 
Q 2172 -91 1784 -91 
Q 1150 -91 751 415 
Q 353 922 353 1747 
Q 353 2572 751 3078 
Q 1150 3584 1784 3584 
Q 2172 3584 2448 3432 
Q 2725 3281 2906 2969 
z
M 947 1747 
Q 947 1113 1208 752 
Q 1469 391 1925 391 
Q 2381 391 2643 752 
Q 2906 1113 2906 1747 
Q 2906 2381 2643 2742 
Q 2381 3103 1925 3103 
Q 1469 3103 1208 2742 
Q 947 2381 947 1747 
z
" transform="scale(0.015625)"/>
      <path id="DejaVuSans-32" d="M 1228 531 
L 3431 531 
L 3431 0 
L 469 0 
L 469 531 
Q 828 903 1448 1529 
Q 2069 2156 2228 2338 
Q 2531 2678 2651 2914 
Q 2772 3150 2772 3378 
Q 2772 3750 2511 3984 
Q 2250 4219 1831 4219 
Q 1534 4219 1204 4116 
Q 875 4013 500 3803 
L 500 4441 
Q 881 4594 1212 4672 
Q 1544 4750 1819 4750 
Q 2544 4750 2975 4387 
Q 3406 4025 3406 3419 
Q 3406 3131 3298 2873 
Q 3191 2616 2906 2266 
Q 2828 2175 2409 1742 
Q 1991 1309 1228 531 
z
" transform="scale(0.015625)"/>
      <path id="DejaVuSans-30" d="M 2034 4250 
Q 1547 4250 1301 3770 
Q 1056 3291 1056 2328 
Q 1056 1369 1301 889 
Q 1547 409 2034 409 
Q 2525 409 2770 889 
Q 3016 1369 3016 2328 
Q 3016 3291 2770 3770 
Q 2525 4250 2034 4250 
z
M 2034 4750 
Q 2819 4750 3233 4129 
Q 3647 3509 3647 2328 
Q 3647 1150 3233 529 
Q 2819 -91 2034 -91 
Q 1250 -91 836 529 
Q 422 1150 422 2328 
Q 422 3509 836 4129 
Q 1250 4750 2034 4750 
z
" transform="scale(0.015625)"/>
     </defs>
     <use xlink:href="#DejaVuSans-49"/>
     <use xlink:href="#DejaVuSans-6e" x="29.492188"/>
     <use xlink:href="#DejaVuSans-74" x="92.871094"/>
     <use xlink:href="#DejaVuSans-65" x="132.080078"/>
     <use xlink:href="#DejaVuSans-72" x="193.603516"/>
     <use xlink:href="#DejaVuSans-70" x="234.716797"/>
     <use xlink:href="#DejaVuSans-6f" x="298.193359"/>
     <use xlink:href="#DejaVuSans-6c" x="359.375"/>
     <use xlink:href="#DejaVuSans-61" x="387.158203"/>
     <use xlink:href="#DejaVuSans-74" x="448.4375"/>
     <use xlink:href="#DejaVuSans-65" x="487.646484"/>
     <use xlink:href="#DejaVuSans-64" x="549.169922"/>
     <use xlink:href="#DejaVuSans-20" x="612.646484"/>
     <use xlink:href="#DejaVuSans-63" x="644.433594"/>
     <use xlink:href="#DejaVuSans-75" x="699.414062"/>
     <use xlink:href="#DejaVuSans-72" x="762.792969"/>
     <use xlink:href="#DejaVuSans-76" x="803.90625"/>
     <use xlink:href="#DejaVuSans-65" x="863.085938"/>
     <use xlink:href="#DejaVuSans-20" x="924.609375"/>
     <use xlink:href="#DejaVuSans-28" x="956.396484"/>
     <use xlink:href="#DejaVuSans-32" x="995.410156"/>
     <use xlink:href="#DejaVuSans-30" x="1059.033203"/>
     <use xlink:href="#DejaVuSans-30" x="1122.65625"/>
     <use xlink:href="#DejaVuSans-20" x="1186.279297"/>
     <use xlink:href="#DejaVuSans-70" x="1218.066406"/>
     <use xlink:href="#DejaVuSans-6f" x="1281.542969"/>
     <use xlink:href="#DejaVuSans-69" x="1342.724609"/>
     <use xlink:href="#DejaVuSans-6e" x="1370.507812"/>
     <use xlink:href="#DejaVuSans-74" x="1433.886719"/>
     <use xlink:href="#DejaVuSans-73" x="1473.095703"/>
     <use xlink:href="#DejaVuSans-29" x="1525.195312"/>
    </g>
   </g>
  </g>
 </g>
 <defs>
  <clipPath id="pb8e3d23bad">
   <rect x="135" y="43.2" width="380.454545" height="277.2"/>
  </clipPath>
  <clipPath id="p658e28549e">
   <rect x="591.545455" y="43.2" width="380.454545" height="277.2"/>
  </clipPath>
 </defs>
</svg>
