<?xml version="1.0" encoding="utf-8" standalone="no"?>
<!DOCTYPE svg PUBLIC "-//W3C//DTD SVG 1.1//EN"
  "http://www.w3.org/Graphics/SVG/1.1/DTD/svg11.dtd">
<svg xmlns:xlink="http://www.w3.org/1999/xlink" width="1152pt" height="432pt" viewBox="0 0 1152 432" xmlns="http://www.w3.org/2000/svg" version="1.1">
 <metadata>
  <rdf:RDF xmlns:dc="http://purl.org/dc/elements/1.1/" xmlns:cc="http://creativecommons.org/ns#" xmlns:rdf="http://www.w3.org/1999/02/22-rdf-syntax-ns#">
   <cc:Work>
    <dc:type rdf:resource="http://purl.org/dc/dcmitype/StillImage"/>
    <dc:date>2023-12-17T21:48:22.097196</dc:date>
    <dc:format>image/svg+xml</dc:format>
    <dc:creator>
     <cc:Agent>
      <dc:title>Matplotlib v3.6.2, https://matplotlib.org/</dc:title>
     </cc:Agent>
    </dc:creator>
   </cc:Work>
  </rdf:RDF>
 </metadata>
 <defs>
  <style type="text/css">*{stroke-linejoin: round; stroke-linecap: butt}</style>
 </defs>
 <g id="figure_1">
  <g id="patch_1">
   <path d="M 0 432 
L 1152 432 
L 1152 0 
L 0 0 
z
" style="fill: #ffffff"/>
  </g>
  <g id="axes_1">
   <g id="line2d_1">
    <path d="M 358.62002 56.287059 
L 357.494827 56.342439 
L 356.246227 56.62828 
L 355.140221 56.724523 
L 351.886957 57.283359 
L 349.835007 57.740237 
L 347.772694 58.36558 
L 346.558798 58.735268 
L 344.502301 59.886997 
L 341.538871 61.757212 
L 340.585256 62.305704 
L 337.382465 64.646564 
L 335.247781 66.619235 
L 334.214603 67.726626 
L 330.68188 71.035803 
L 328.519701 73.339723 
L 327.425135 74.617385 
L 323.774102 79.71835 
L 321.332254 83.254986 
L 314.92338 94.07297 
L 313.555444 96.847868 
L 311.03544 103.926427 
L 309.517534 110.466596 
L 309.072047 113.020654 
L 308.570267 115.314908 
L 308.162206 117.580215 
L 307.978476 118.590864 
L 308.072356 120.590114 
L 308.109934 121.754242 
L 308.625625 125.409742 
L 309.068791 127.318597 
L 310.455473 131.257094 
L 312.311027 133.895106 
L 314.355957 136.51944 
L 317.629822 139.085914 
L 323.699446 142.520754 
L 324.680101 143.022495 
L 326.864833 143.787388 
L 335.112824 145.153014 
L 337.483171 145.184202 
L 342.400651 145.164572 
L 347.405506 144.448369 
L 349.66997 143.867466 
L 354.660753 142.277656 
L 358.342252 140.715661 
L 359.393563 140.085952 
L 361.860259 138.824242 
L 364.128324 137.500778 
L 366.403888 135.872111 
L 368.548915 134.144932 
L 370.833258 132.481987 
L 371.731281 131.647266 
L 373.257822 129.869091 
L 375.896307 126.349466 
L 378.995383 122.303146 
L 380.901514 119.083205 
L 382.050067 116.523544 
L 384.001453 111.300472 
L 385.253129 106.491544 
L 385.629905 102.90056 
L 385.839706 97.854189 
L 385.760273 93.643116 
L 385.492062 90.876713 
L 385.204914 88.057514 
L 383.346527 79.872502 
L 382.361442 77.104759 
L 379.6568 72.112689 
L 378.915024 70.878099 
L 377.617083 68.361264 
L 374.94172 64.954596 
L 373.988925 63.942437 
L 371.943553 62.180646 
L 367.110959 58.86152 
L 361.86271 57.005559 
L 359.694628 56.426757 
L 359.694628 56.426757 
" clip-path="url(#p5e7fc47d91)" style="fill: none; stroke: #1f77b4; stroke-width: 1.5; stroke-linecap: square"/>
   </g>
   <g id="text_1">
    <!-- control   -   dlm8 -->
    <g transform="translate(264.345028 45.84) scale(0.2 -0.2)">
     <defs>
      <path id="DejaVuSans-63" d="M 3122 3366 
L 3122 2828 
Q 2878 2963 2633 3030 
Q 2388 3097 2138 3097 
Q 1578 3097 1268 2742 
Q 959 2388 959 1747 
Q 959 1106 1268 751 
Q 1578 397 2138 397 
Q 2388 397 2633 464 
Q 2878 531 3122 666 
L 3122 134 
Q 2881 22 2623 -34 
Q 2366 -91 2075 -91 
Q 1284 -91 818 406 
Q 353 903 353 1747 
Q 353 2603 823 3093 
Q 1294 3584 2113 3584 
Q 2378 3584 2631 3529 
Q 2884 3475 3122 3366 
z
" transform="scale(0.015625)"/>
      <path id="DejaVuSans-6f" d="M 1959 3097 
Q 1497 3097 1228 2736 
Q 959 2375 959 1747 
Q 959 1119 1226 758 
Q 1494 397 1959 397 
Q 2419 397 2687 759 
Q 2956 1122 2956 1747 
Q 2956 2369 2687 2733 
Q 2419 3097 1959 3097 
z
M 1959 3584 
Q 2709 3584 3137 3096 
Q 3566 2609 3566 1747 
Q 3566 888 3137 398 
Q 2709 -91 1959 -91 
Q 1206 -91 779 398 
Q 353 888 353 1747 
Q 353 2609 779 3096 
Q 1206 3584 1959 3584 
z
" transform="scale(0.015625)"/>
      <path id="DejaVuSans-6e" d="M 3513 2113 
L 3513 0 
L 2938 0 
L 2938 2094 
Q 2938 2591 2744 2837 
Q 2550 3084 2163 3084 
Q 1697 3084 1428 2787 
Q 1159 2491 1159 1978 
L 1159 0 
L 581 0 
L 581 3500 
L 1159 3500 
L 1159 2956 
Q 1366 3272 1645 3428 
Q 1925 3584 2291 3584 
Q 2894 3584 3203 3211 
Q 3513 2838 3513 2113 
z
" transform="scale(0.015625)"/>
      <path id="DejaVuSans-74" d="M 1172 4494 
L 1172 3500 
L 2356 3500 
L 2356 3053 
L 1172 3053 
L 1172 1153 
Q 1172 725 1289 603 
Q 1406 481 1766 481 
L 2356 481 
L 2356 0 
L 1766 0 
Q 1100 0 847 248 
Q 594 497 594 1153 
L 594 3053 
L 172 3053 
L 172 3500 
L 594 3500 
L 594 4494 
L 1172 4494 
z
" transform="scale(0.015625)"/>
      <path id="DejaVuSans-72" d="M 2631 2963 
Q 2534 3019 2420 3045 
Q 2306 3072 2169 3072 
Q 1681 3072 1420 2755 
Q 1159 2438 1159 1844 
L 1159 0 
L 581 0 
L 581 3500 
L 1159 3500 
L 1159 2956 
Q 1341 3275 1631 3429 
Q 1922 3584 2338 3584 
Q 2397 3584 2469 3576 
Q 2541 3569 2628 3553 
L 2631 2963 
z
" transform="scale(0.015625)"/>
      <path id="DejaVuSans-6c" d="M 603 4863 
L 1178 4863 
L 1178 0 
L 603 0 
L 603 4863 
z
" transform="scale(0.015625)"/>
      <path id="DejaVuSans-20" transform="scale(0.015625)"/>
      <path id="DejaVuSans-2d" d="M 313 2009 
L 1997 2009 
L 1997 1497 
L 313 1497 
L 313 2009 
z
" transform="scale(0.015625)"/>
      <path id="DejaVuSans-64" d="M 2906 2969 
L 2906 4863 
L 3481 4863 
L 3481 0 
L 2906 0 
L 2906 525 
Q 2725 213 2448 61 
Q 2172 -91 1784 -91 
Q 1150 -91 751 415 
Q 353 922 353 1747 
Q 353 2572 751 3078 
Q 1150 3584 1784 3584 
Q 2172 3584 2448 3432 
Q 2725 3281 2906 2969 
z
M 947 1747 
Q 947 1113 1208 752 
Q 1469 391 1925 391 
Q 2381 391 2643 752 
Q 2906 1113 2906 1747 
Q 2906 2381 2643 2742 
Q 2381 3103 1925 3103 
Q 1469 3103 1208 2742 
Q 947 2381 947 1747 
z
" transform="scale(0.015625)"/>
      <path id="DejaVuSans-6d" d="M 3328 2828 
Q 3544 3216 3844 3400 
Q 4144 3584 4550 3584 
Q 5097 3584 5394 3201 
Q 5691 2819 5691 2113 
L 5691 0 
L 5113 0 
L 5113 2094 
Q 5113 2597 4934 2840 
Q 4756 3084 4391 3084 
Q 3944 3084 3684 2787 
Q 3425 2491 3425 1978 
L 3425 0 
L 2847 0 
L 2847 2094 
Q 2847 2600 2669 2842 
Q 2491 3084 2119 3084 
Q 1678 3084 1418 2786 
Q 1159 2488 1159 1978 
L 1159 0 
L 581 0 
L 581 3500 
L 1159 3500 
L 1159 2956 
Q 1356 3278 1631 3431 
Q 1906 3584 2284 3584 
Q 2666 3584 2933 3390 
Q 3200 3197 3328 2828 
z
" transform="scale(0.015625)"/>
      <path id="DejaVuSans-38" d="M 2034 2216 
Q 1584 2216 1326 1975 
Q 1069 1734 1069 1313 
Q 1069 891 1326 650 
Q 1584 409 2034 409 
Q 2484 409 2743 651 
Q 3003 894 3003 1313 
Q 3003 1734 2745 1975 
Q 2488 2216 2034 2216 
z
M 1403 2484 
Q 997 2584 770 2862 
Q 544 3141 544 3541 
Q 544 4100 942 4425 
Q 1341 4750 2034 4750 
Q 2731 4750 3128 4425 
Q 3525 4100 3525 3541 
Q 3525 3141 3298 2862 
Q 3072 2584 2669 2484 
Q 3125 2378 3379 2068 
Q 3634 1759 3634 1313 
Q 3634 634 3220 271 
Q 2806 -91 2034 -91 
Q 1263 -91 848 271 
Q 434 634 434 1313 
Q 434 1759 690 2068 
Q 947 2378 1403 2484 
z
M 1172 3481 
Q 1172 3119 1398 2916 
Q 1625 2713 2034 2713 
Q 2441 2713 2670 2916 
Q 2900 3119 2900 3481 
Q 2900 3844 2670 4047 
Q 2441 4250 2034 4250 
Q 1625 4250 1398 4047 
Q 1172 3844 1172 3481 
z
" transform="scale(0.015625)"/>
     </defs>
     <use xlink:href="#DejaVuSans-63"/>
     <use xlink:href="#DejaVuSans-6f" x="54.980469"/>
     <use xlink:href="#DejaVuSans-6e" x="116.162109"/>
     <use xlink:href="#DejaVuSans-74" x="179.541016"/>
     <use xlink:href="#DejaVuSans-72" x="218.75"/>
     <use xlink:href="#DejaVuSans-6f" x="257.613281"/>
     <use xlink:href="#DejaVuSans-6c" x="318.794922"/>
     <use xlink:href="#DejaVuSans-20" x="346.578125"/>
     <use xlink:href="#DejaVuSans-20" x="378.365234"/>
     <use xlink:href="#DejaVuSans-20" x="410.152344"/>
     <use xlink:href="#DejaVuSans-2d" x="441.939453"/>
     <use xlink:href="#DejaVuSans-20" x="478.023438"/>
     <use xlink:href="#DejaVuSans-20" x="509.810547"/>
     <use xlink:href="#DejaVuSans-20" x="541.597656"/>
     <use xlink:href="#DejaVuSans-64" x="573.384766"/>
     <use xlink:href="#DejaVuSans-6c" x="636.861328"/>
     <use xlink:href="#DejaVuSans-6d" x="664.644531"/>
     <use xlink:href="#DejaVuSans-38" x="762.056641"/>
    </g>
   </g>
  </g>
  <g id="axes_2">
   <g id="line2d_2">
    <path d="M 844.563144 56.287059 
L 840.029785 56.709357 
L 835.752323 58.083327 
L 832.505831 59.675495 
L 828.442582 62.305639 
L 826.418401 64.149541 
L 821.353499 68.808821 
L 820.354806 69.635255 
L 817.549038 73.006841 
L 810.066227 83.094538 
L 809.07942 84.529366 
L 806.806209 88.507123 
L 805.976937 89.758644 
L 801.590918 97.86831 
L 799.616791 102.404976 
L 797.976422 105.872381 
L 796.475371 110.755884 
L 796.060019 111.828621 
L 795.576215 114.190007 
L 795.113992 117.640076 
L 795.025102 122.060507 
L 795.215801 124.318847 
L 796.642257 128.89743 
L 797.085449 129.779758 
L 799.285135 132.088482 
L 801.645477 134.353169 
L 803.413179 135.965402 
L 805.169976 137.318974 
L 811.392074 141.460981 
L 813.662439 142.572209 
L 816.949843 143.762711 
L 818.012357 144.211245 
L 820.215933 144.742692 
L 821.349896 145.015486 
L 823.70956 145.228235 
L 828.740771 145.059806 
L 839.26784 142.924225 
L 841.613076 142.072698 
L 842.697226 141.669111 
L 846.178052 139.900778 
L 849.60153 138.022661 
L 854.334631 135.627475 
L 859.118993 132.122677 
L 860.082116 131.35527 
L 862.945406 128.459067 
L 864.542129 126.359267 
L 865.312286 125.589703 
L 867.401528 122.550149 
L 868.552532 120.223916 
L 870.235537 115.63467 
L 872.140059 108.056389 
L 872.495505 104.102399 
L 872.746036 100.396533 
L 872.546661 88.74929 
L 872.226211 86.292021 
L 871.328874 82.399728 
L 869.805754 78.655338 
L 867.764817 75.160673 
L 863.317731 68.381153 
L 862.467167 67.250076 
L 858.840993 63.307098 
L 857.118405 61.749002 
L 855.213991 60.181921 
L 853.312604 58.975897 
L 851.028913 57.884866 
L 848.489481 56.911551 
L 845.906831 56.318655 
L 845.906831 56.318655 
" clip-path="url(#p0e405fc7f8)" style="fill: none; stroke: #ff7f0e; stroke-width: 1.5; stroke-linecap: square"/>
   </g>
   <g id="text_2">
    <!-- control   -   dunn -->
    <g transform="translate(751.195597 45.84) scale(0.2 -0.2)">
     <defs>
      <path id="DejaVuSans-75" d="M 544 1381 
L 544 3500 
L 1119 3500 
L 1119 1403 
Q 1119 906 1312 657 
Q 1506 409 1894 409 
Q 2359 409 2629 706 
Q 2900 1003 2900 1516 
L 2900 3500 
L 3475 3500 
L 3475 0 
L 2900 0 
L 2900 538 
Q 2691 219 2414 64 
Q 2138 -91 1772 -91 
Q 1169 -91 856 284 
Q 544 659 544 1381 
z
M 1991 3584 
L 1991 3584 
z
" transform="scale(0.015625)"/>
     </defs>
     <use xlink:href="#DejaVuSans-63"/>
     <use xlink:href="#DejaVuSans-6f" x="54.980469"/>
     <use xlink:href="#DejaVuSans-6e" x="116.162109"/>
     <use xlink:href="#DejaVuSans-74" x="179.541016"/>
     <use xlink:href="#DejaVuSans-72" x="218.75"/>
     <use xlink:href="#DejaVuSans-6f" x="257.613281"/>
     <use xlink:href="#DejaVuSans-6c" x="318.794922"/>
     <use xlink:href="#DejaVuSans-20" x="346.578125"/>
     <use xlink:href="#DejaVuSans-20" x="378.365234"/>
     <use xlink:href="#DejaVuSans-20" x="410.152344"/>
     <use xlink:href="#DejaVuSans-2d" x="441.939453"/>
     <use xlink:href="#DejaVuSans-20" x="478.023438"/>
     <use xlink:href="#DejaVuSans-20" x="509.810547"/>
     <use xlink:href="#DejaVuSans-20" x="541.597656"/>
     <use xlink:href="#DejaVuSans-64" x="573.384766"/>
     <use xlink:href="#DejaVuSans-75" x="636.861328"/>
     <use xlink:href="#DejaVuSans-6e" x="700.240234"/>
     <use xlink:href="#DejaVuSans-6e" x="763.619141"/>
    </g>
   </g>
  </g>
  <g id="axes_3">
   <g id="line2d_3">
    <path d="M 365.413402 173.736724 
L 364.455874 174.13815 
L 363.331075 174.859678 
L 362.312139 175.294913 
L 360.316181 176.550028 
L 358.364865 178.320252 
L 357.51121 179.313856 
L 355.917593 181.812083 
L 354.583955 184.641967 
L 353.766836 185.697717 
L 350.582294 188.877305 
L 342.958666 195.324929 
L 342.164643 196.377083 
L 341.632236 197.609678 
L 338.355858 203.503465 
L 337.474746 204.53458 
L 335.389811 206.527801 
L 334.124289 207.426058 
L 332.572526 209.936497 
L 332.119371 211.24296 
L 330.286324 213.988004 
L 327.00281 219.073381 
L 326.212014 220.659353 
L 323.518886 228.391166 
L 321.27588 233.210347 
L 319.752549 235.893752 
L 318.473274 238.747769 
L 318.021307 240.285848 
L 316.644402 243.206961 
L 314.879244 246.093993 
L 313.850373 247.185618 
L 313.267827 248.265383 
L 312.579715 249.148227 
L 311.121475 251.77302 
L 311.209839 252.432267 
L 311.461662 253.033329 
L 311.649643 253.901959 
L 312.249067 255.075049 
L 312.5301 255.605348 
L 313.249817 256.036817 
L 313.729468 256.466361 
L 315.361809 256.627648 
L 316.46171 256.684302 
L 317.342465 256.880497 
L 318.072643 257.538909 
L 319.550052 258.113994 
L 320.978192 259.269666 
L 322.871337 260.13402 
L 323.861984 260.286884 
L 326.709551 261.484723 
L 328.158254 261.773979 
L 329.681827 261.936296 
L 330.75858 261.887005 
L 332.730876 262.290026 
L 333.600958 262.280877 
L 336.641312 262.616468 
L 337.567325 262.630588 
L 342.504254 261.683783 
L 343.524012 261.705684 
L 346.965496 261.540145 
L 349.02904 261.780499 
L 350.341881 261.731346 
L 352.4939 261.299632 
L 353.440548 260.895724 
L 355.251703 259.779378 
L 356.09339 259.003117 
L 356.800903 257.960278 
L 358.888413 256.43598 
L 360.828093 254.675162 
L 363.954166 252.868881 
L 368.723559 250.189987 
L 369.864427 249.25854 
L 371.236369 247.148539 
L 375.000961 242.856456 
L 376.058556 240.810174 
L 376.700481 239.788724 
L 377.699322 237.459897 
L 377.989399 236.478027 
L 378.861115 235.386488 
L 379.982263 233.082497 
L 380.384398 231.843643 
L 380.578047 230.473223 
L 380.920292 229.30191 
L 381.092877 226.812175 
L 382.30916 223.999358 
L 382.696707 222.829882 
L 382.571017 220.958755 
L 382.492364 219.883213 
L 382.511758 217.372181 
L 381.751265 211.63639 
L 381.399446 210.486905 
L 380.939538 209.508175 
L 380.721344 208.482034 
L 380.3322 207.259072 
L 380.03285 205.849828 
L 380.097339 202.716988 
L 380.434749 199.004212 
L 380.185699 197.396965 
L 379.824022 196.45944 
L 379.512656 195.27307 
L 378.26281 191.941756 
L 377.614962 190.769653 
L 376.933275 188.491609 
L 376.61811 187.05917 
L 376.135417 185.747983 
L 375.549049 184.620357 
L 373.610355 181.866041 
L 373.095701 180.670764 
L 372.201531 177.818224 
L 371.153946 175.709236 
L 369.93841 174.238787 
L 369.480419 173.881337 
L 367.061409 173.689412 
L 366.316855 173.780575 
L 366.316855 173.780575 
" clip-path="url(#p132fcdb658)" style="fill: none; stroke: #1f77b4; stroke-width: 1.5; stroke-linecap: square"/>
   </g>
   <g id="text_3">
    <!-- cytd   -   dlm8 -->
    <g transform="translate(277.316903 163.242353) scale(0.2 -0.2)">
     <defs>
      <path id="DejaVuSans-79" d="M 2059 -325 
Q 1816 -950 1584 -1140 
Q 1353 -1331 966 -1331 
L 506 -1331 
L 506 -850 
L 844 -850 
Q 1081 -850 1212 -737 
Q 1344 -625 1503 -206 
L 1606 56 
L 191 3500 
L 800 3500 
L 1894 763 
L 2988 3500 
L 3597 3500 
L 2059 -325 
z
" transform="scale(0.015625)"/>
     </defs>
     <use xlink:href="#DejaVuSans-63"/>
     <use xlink:href="#DejaVuSans-79" x="54.980469"/>
     <use xlink:href="#DejaVuSans-74" x="114.160156"/>
     <use xlink:href="#DejaVuSans-64" x="153.369141"/>
     <use xlink:href="#DejaVuSans-20" x="216.845703"/>
     <use xlink:href="#DejaVuSans-20" x="248.632812"/>
     <use xlink:href="#DejaVuSans-20" x="280.419922"/>
     <use xlink:href="#DejaVuSans-2d" x="312.207031"/>
     <use xlink:href="#DejaVuSans-20" x="348.291016"/>
     <use xlink:href="#DejaVuSans-20" x="380.078125"/>
     <use xlink:href="#DejaVuSans-20" x="411.865234"/>
     <use xlink:href="#DejaVuSans-64" x="443.652344"/>
     <use xlink:href="#DejaVuSans-6c" x="507.128906"/>
     <use xlink:href="#DejaVuSans-6d" x="534.912109"/>
     <use xlink:href="#DejaVuSans-38" x="632.324219"/>
    </g>
   </g>
  </g>
  <g id="axes_4">
   <g id="line2d_4">
    <path d="M 847.876016 174.022025 
L 847.3095 173.689412 
L 846.454683 173.872268 
L 842.46024 175.457815 
L 841.351673 176.090982 
L 840.484087 176.986578 
L 839.971731 177.763001 
L 838.850117 178.652344 
L 837.944194 179.881047 
L 836.334862 181.650138 
L 835.5821 182.601654 
L 834.114989 184.916571 
L 833.495842 186.358366 
L 832.700116 189.264056 
L 831.999585 190.520706 
L 830.364278 192.295568 
L 828.189318 196.792229 
L 827.654701 198.253056 
L 826.892253 199.710878 
L 826.072505 200.864836 
L 824.815162 201.997275 
L 821.125192 206.106375 
L 819.457682 207.305143 
L 815.593822 209.232553 
L 814.384172 210.113778 
L 812.270967 212.552588 
L 810.661188 215.721037 
L 809.456493 217.056351 
L 807.891499 220.009441 
L 807.752499 223.042491 
L 806.314359 228.073677 
L 805.642224 229.651952 
L 804.770661 231.183993 
L 804.223007 232.619624 
L 802.323812 235.327718 
L 801.743496 236.312182 
L 800.389867 238.236888 
L 798.639912 241.467421 
L 796.627364 244.912192 
L 795.393793 246.550025 
L 795.186742 247.153536 
L 795.074881 247.90177 
L 795.184514 248.571678 
L 796.326875 249.982898 
L 797.404885 250.87197 
L 798.191943 251.135066 
L 803.045165 251.553644 
L 804.114707 251.761587 
L 805.495465 251.748351 
L 806.458897 251.862612 
L 808.263836 252.481761 
L 809.061261 252.630914 
L 809.798154 253.025241 
L 810.538347 253.222176 
L 811.557545 253.699493 
L 813.033586 255.091365 
L 813.877342 256.015868 
L 815.707838 257.505144 
L 816.754401 257.907396 
L 821.108784 258.996 
L 823.121602 260.029483 
L 824.874906 261.134962 
L 826.349308 261.704652 
L 827.220208 261.557917 
L 828.106387 261.815793 
L 831.428747 261.853736 
L 834.315744 262.11028 
L 836.573548 262.291458 
L 838.593751 262.630588 
L 839.237083 262.281224 
L 840.221444 261.972415 
L 841.442567 261.778491 
L 842.300438 261.477607 
L 844.024884 259.711667 
L 845.170751 258.889364 
L 846.600749 258.015391 
L 847.734407 256.829706 
L 849.525226 254.282966 
L 850.436145 253.555197 
L 851.170672 252.464595 
L 852.218126 251.252046 
L 853.520882 250.490198 
L 854.987104 249.930879 
L 856.282645 248.971042 
L 857.569256 248.610613 
L 859.031962 248.053671 
L 860.503953 247.303414 
L 861.781267 246.434028 
L 863.353945 244.164707 
L 864.184806 242.841927 
L 865.521884 240.037713 
L 866.397927 238.912485 
L 867.165858 236.615447 
L 868.015169 234.293505 
L 869.137208 232.101314 
L 869.653028 230.741887 
L 869.839074 229.371081 
L 870.412399 228.110861 
L 871.384436 227.049423 
L 872.210951 225.680928 
L 872.629898 224.331889 
L 872.706937 221.517545 
L 872.64151 220.176136 
L 872.39897 218.627005 
L 871.950693 217.337138 
L 871.036876 216.279987 
L 870.325292 213.375254 
L 870.144962 212.065859 
L 870.075461 208.487088 
L 869.543459 206.222767 
L 869.383667 205.111729 
L 868.951913 203.95273 
L 868.054862 203.020254 
L 867.739462 201.985506 
L 867.235145 200.875796 
L 866.755194 198.847977 
L 866.004356 196.906281 
L 865.023968 195.01335 
L 864.226847 193.942703 
L 862.302194 191.836443 
L 860.982905 189.729989 
L 860.148516 188.705086 
L 858.832175 187.884008 
L 858.026337 187.058274 
L 856.790969 184.522803 
L 856.114101 182.50016 
L 855.526011 181.529723 
L 855.099458 180.422338 
L 853.431241 178.622157 
L 852.715337 177.848063 
L 851.900998 177.228565 
L 850.80878 176.569474 
L 849.930443 175.787889 
L 849.237011 174.909098 
L 848.517144 174.448208 
L 848.517144 174.448208 
" clip-path="url(#p48487d38f0)" style="fill: none; stroke: #ff7f0e; stroke-width: 1.5; stroke-linecap: square"/>
   </g>
   <g id="text_4">
    <!-- cytd   -   dunn -->
    <g transform="translate(764.167472 163.242353) scale(0.2 -0.2)">
     <use xlink:href="#DejaVuSans-63"/>
     <use xlink:href="#DejaVuSans-79" x="54.980469"/>
     <use xlink:href="#DejaVuSans-74" x="114.160156"/>
     <use xlink:href="#DejaVuSans-64" x="153.369141"/>
     <use xlink:href="#DejaVuSans-20" x="216.845703"/>
     <use xlink:href="#DejaVuSans-20" x="248.632812"/>
     <use xlink:href="#DejaVuSans-20" x="280.419922"/>
     <use xlink:href="#DejaVuSans-2d" x="312.207031"/>
     <use xlink:href="#DejaVuSans-20" x="348.291016"/>
     <use xlink:href="#DejaVuSans-20" x="380.078125"/>
     <use xlink:href="#DejaVuSans-20" x="411.865234"/>
     <use xlink:href="#DejaVuSans-64" x="443.652344"/>
     <use xlink:href="#DejaVuSans-75" x="507.128906"/>
     <use xlink:href="#DejaVuSans-6e" x="570.507812"/>
     <use xlink:href="#DejaVuSans-6e" x="633.886719"/>
    </g>
   </g>
  </g>
  <g id="axes_5">
   <g id="line2d_5">
    <path d="M 359.33271 291.49717 
L 357.330248 291.911114 
L 355.520226 292.998432 
L 354.588585 293.667196 
L 352.847973 295.409651 
L 351.331275 296.992162 
L 348.546155 299.834974 
L 347.586644 300.582436 
L 346.157029 302.418469 
L 344.226166 304.404094 
L 343.484616 305.286808 
L 342.783754 306.301403 
L 342.417004 307.327325 
L 340.967386 309.599068 
L 337.4439 315.370464 
L 333.1926 323.392972 
L 332.399288 324.670798 
L 324.968355 334.642624 
L 323.725801 336.810435 
L 323.01868 338.122184 
L 321.566133 340.244391 
L 320.863931 341.239317 
L 319.196121 344.433409 
L 317.267096 347.43802 
L 316.289863 349.460455 
L 315.764249 350.461593 
L 315.208151 352.529928 
L 314.951843 353.566704 
L 314.100627 355.387643 
L 313.355813 359.607413 
L 313.541839 360.520419 
L 313.558226 361.414873 
L 314.233493 364.40414 
L 314.601658 365.357962 
L 314.799074 366.295238 
L 315.429578 368.192751 
L 315.729882 369.059303 
L 316.231422 370.022678 
L 316.932892 371.046476 
L 317.418521 372.025803 
L 319.639308 374.631844 
L 321.179436 376.384067 
L 322.036704 376.882638 
L 323.061721 377.649116 
L 324.256024 378.204355 
L 325.155211 378.782185 
L 328.20576 379.625563 
L 330.190559 380.032941 
L 333.456579 379.992812 
L 335.515495 380.001843 
L 339.956046 379.295775 
L 343.35792 378.286414 
L 344.565137 377.858585 
L 346.541254 377.395153 
L 348.840735 376.675072 
L 352.229345 374.875918 
L 353.389402 374.430435 
L 354.320067 373.764789 
L 356.483837 372.708298 
L 358.405914 371.485129 
L 361.140437 369.181956 
L 361.95182 368.038334 
L 367.339788 362.467208 
L 371.159729 357.90076 
L 372.224408 356.190675 
L 373.246987 354.201456 
L 375.80406 348.821129 
L 377.447247 344.564678 
L 377.976731 342.184348 
L 378.984705 339.086175 
L 379.004807 338.111212 
L 380.038567 330.790462 
L 380.083888 329.506192 
L 380.462368 326.903189 
L 380.206938 321.462828 
L 379.676615 316.33413 
L 379.304879 315.106642 
L 379.171343 313.931594 
L 377.652336 309.206871 
L 376.214098 305.568825 
L 372.216162 298.301873 
L 369.05925 294.507874 
L 366.261351 292.371019 
L 364.60324 291.589405 
L 362.74451 291.091765 
L 361.483888 291.103501 
L 360.463449 291.256249 
L 360.463449 291.256249 
" clip-path="url(#p7ec20105c4)" style="fill: none; stroke: #1f77b4; stroke-width: 1.5; stroke-linecap: square"/>
   </g>
   <g id="text_5">
    <!-- jasp   -   dlm8 -->
    <g transform="translate(278.538778 280.644706) scale(0.2 -0.2)">
     <defs>
      <path id="DejaVuSans-6a" d="M 603 3500 
L 1178 3500 
L 1178 -63 
Q 1178 -731 923 -1031 
Q 669 -1331 103 -1331 
L -116 -1331 
L -116 -844 
L 38 -844 
Q 366 -844 484 -692 
Q 603 -541 603 -63 
L 603 3500 
z
M 603 4863 
L 1178 4863 
L 1178 4134 
L 603 4134 
L 603 4863 
z
" transform="scale(0.015625)"/>
      <path id="DejaVuSans-61" d="M 2194 1759 
Q 1497 1759 1228 1600 
Q 959 1441 959 1056 
Q 959 750 1161 570 
Q 1363 391 1709 391 
Q 2188 391 2477 730 
Q 2766 1069 2766 1631 
L 2766 1759 
L 2194 1759 
z
M 3341 1997 
L 3341 0 
L 2766 0 
L 2766 531 
Q 2569 213 2275 61 
Q 1981 -91 1556 -91 
Q 1019 -91 701 211 
Q 384 513 384 1019 
Q 384 1609 779 1909 
Q 1175 2209 1959 2209 
L 2766 2209 
L 2766 2266 
Q 2766 2663 2505 2880 
Q 2244 3097 1772 3097 
Q 1472 3097 1187 3025 
Q 903 2953 641 2809 
L 641 3341 
Q 956 3463 1253 3523 
Q 1550 3584 1831 3584 
Q 2591 3584 2966 3190 
Q 3341 2797 3341 1997 
z
" transform="scale(0.015625)"/>
      <path id="DejaVuSans-73" d="M 2834 3397 
L 2834 2853 
Q 2591 2978 2328 3040 
Q 2066 3103 1784 3103 
Q 1356 3103 1142 2972 
Q 928 2841 928 2578 
Q 928 2378 1081 2264 
Q 1234 2150 1697 2047 
L 1894 2003 
Q 2506 1872 2764 1633 
Q 3022 1394 3022 966 
Q 3022 478 2636 193 
Q 2250 -91 1575 -91 
Q 1294 -91 989 -36 
Q 684 19 347 128 
L 347 722 
Q 666 556 975 473 
Q 1284 391 1588 391 
Q 1994 391 2212 530 
Q 2431 669 2431 922 
Q 2431 1156 2273 1281 
Q 2116 1406 1581 1522 
L 1381 1569 
Q 847 1681 609 1914 
Q 372 2147 372 2553 
Q 372 3047 722 3315 
Q 1072 3584 1716 3584 
Q 2034 3584 2315 3537 
Q 2597 3491 2834 3397 
z
" transform="scale(0.015625)"/>
      <path id="DejaVuSans-70" d="M 1159 525 
L 1159 -1331 
L 581 -1331 
L 581 3500 
L 1159 3500 
L 1159 2969 
Q 1341 3281 1617 3432 
Q 1894 3584 2278 3584 
Q 2916 3584 3314 3078 
Q 3713 2572 3713 1747 
Q 3713 922 3314 415 
Q 2916 -91 2278 -91 
Q 1894 -91 1617 61 
Q 1341 213 1159 525 
z
M 3116 1747 
Q 3116 2381 2855 2742 
Q 2594 3103 2138 3103 
Q 1681 3103 1420 2742 
Q 1159 2381 1159 1747 
Q 1159 1113 1420 752 
Q 1681 391 2138 391 
Q 2594 391 2855 752 
Q 3116 1113 3116 1747 
z
" transform="scale(0.015625)"/>
     </defs>
     <use xlink:href="#DejaVuSans-6a"/>
     <use xlink:href="#DejaVuSans-61" x="27.783203"/>
     <use xlink:href="#DejaVuSans-73" x="89.0625"/>
     <use xlink:href="#DejaVuSans-70" x="141.162109"/>
     <use xlink:href="#DejaVuSans-20" x="204.638672"/>
     <use xlink:href="#DejaVuSans-20" x="236.425781"/>
     <use xlink:href="#DejaVuSans-20" x="268.212891"/>
     <use xlink:href="#DejaVuSans-2d" x="300"/>
     <use xlink:href="#DejaVuSans-20" x="336.083984"/>
     <use xlink:href="#DejaVuSans-20" x="367.871094"/>
     <use xlink:href="#DejaVuSans-20" x="399.658203"/>
     <use xlink:href="#DejaVuSans-64" x="431.445312"/>
     <use xlink:href="#DejaVuSans-6c" x="494.921875"/>
     <use xlink:href="#DejaVuSans-6d" x="522.705078"/>
     <use xlink:href="#DejaVuSans-38" x="620.117188"/>
    </g>
   </g>
  </g>
  <g id="axes_6">
   <g id="line2d_6">
    <path d="M 847.07032 291.271883 
L 845.770359 291.321901 
L 844.417244 291.545221 
L 843.447569 291.85373 
L 840.223162 293.426899 
L 838.468338 294.947269 
L 836.255612 296.276505 
L 832.773353 297.88416 
L 831.869864 298.709774 
L 831.212274 299.612276 
L 829.184605 301.411495 
L 828.331554 302.49055 
L 827.269683 303.485768 
L 825.973455 304.423602 
L 825.170736 305.57461 
L 824.419597 306.447515 
L 822.410099 308.454299 
L 817.021498 315.785245 
L 814.08399 320.018231 
L 813.227838 321.762946 
L 812.107226 323.075792 
L 808.605107 328.097278 
L 807.894907 329.362694 
L 807.015969 330.625272 
L 805.661517 333.078009 
L 805.156842 334.212713 
L 804.708115 335.57298 
L 804.18132 338.512777 
L 802.885459 341.206282 
L 802.06543 343.929965 
L 801.511859 345.258851 
L 801.045853 346.717834 
L 798.867391 351.73453 
L 798.24811 352.674011 
L 797.30561 354.621874 
L 796.670897 355.672044 
L 795.786545 356.828802 
L 795.402383 358.760862 
L 795.628056 360.396389 
L 796.17968 361.406362 
L 796.438715 362.290617 
L 796.833038 364.491012 
L 797.617296 365.945092 
L 798.362908 366.197268 
L 800.497837 367.445611 
L 804.333866 369.217752 
L 806.074536 370.391637 
L 809.358195 371.558536 
L 810.705818 371.878533 
L 811.667273 372.55643 
L 815.04191 376.132017 
L 816.916467 377.301422 
L 817.919683 377.828668 
L 820.103216 378.345305 
L 821.233402 378.38978 
L 822.193844 378.545178 
L 824.168513 379.144788 
L 826.381498 379.382515 
L 828.456091 380.032941 
L 830.958961 379.785621 
L 831.99134 379.452929 
L 833.07486 379.398024 
L 834.07684 379.179838 
L 835.077024 379.301306 
L 836.223537 379.237755 
L 837.528292 378.915617 
L 845.645643 375.733078 
L 847.671951 374.505033 
L 854.361137 369.48881 
L 859.451802 366.199672 
L 861.484243 364.448577 
L 862.446026 363.409747 
L 863.174906 362.359362 
L 865.717486 359.704766 
L 866.460364 358.746254 
L 867.690329 356.543174 
L 868.971999 354.292338 
L 870.201996 352.386338 
L 870.555014 351.031435 
L 871.569364 348.431655 
L 871.845374 347.231566 
L 871.955835 344.408273 
L 872.379435 342.091039 
L 871.537003 338.400033 
L 871.167472 335.933233 
L 871.106077 334.523455 
L 870.53065 331.82596 
L 870.504733 329.024432 
L 870.627559 326.335398 
L 870.459435 325.180146 
L 870.133162 324.080884 
L 869.05611 321.920043 
L 868.486488 320.632779 
L 868.178129 319.453439 
L 867.405397 315.459962 
L 867.102465 314.332278 
L 866.382991 313.346694 
L 865.5727 312.537273 
L 862.181926 308.005102 
L 861.66325 306.713791 
L 860.982051 305.386653 
L 860.190423 302.650301 
L 859.636383 301.393444 
L 858.425149 299.56199 
L 856.817255 297.416898 
L 855.585282 294.910186 
L 854.943299 293.760182 
L 853.294306 292.553898 
L 852.302879 292.086544 
L 850.379146 291.51488 
L 849.447371 291.244578 
L 848.41123 291.091765 
L 848.41123 291.091765 
" clip-path="url(#pc98a54b27b)" style="fill: none; stroke: #ff7f0e; stroke-width: 1.5; stroke-linecap: square"/>
   </g>
   <g id="text_6">
    <!-- jasp   -   dunn -->
    <g transform="translate(765.389347 280.644706) scale(0.2 -0.2)">
     <use xlink:href="#DejaVuSans-6a"/>
     <use xlink:href="#DejaVuSans-61" x="27.783203"/>
     <use xlink:href="#DejaVuSans-73" x="89.0625"/>
     <use xlink:href="#DejaVuSans-70" x="141.162109"/>
     <use xlink:href="#DejaVuSans-20" x="204.638672"/>
     <use xlink:href="#DejaVuSans-20" x="236.425781"/>
     <use xlink:href="#DejaVuSans-20" x="268.212891"/>
     <use xlink:href="#DejaVuSans-2d" x="300"/>
     <use xlink:href="#DejaVuSans-20" x="336.083984"/>
     <use xlink:href="#DejaVuSans-20" x="367.871094"/>
     <use xlink:href="#DejaVuSans-20" x="399.658203"/>
     <use xlink:href="#DejaVuSans-64" x="431.445312"/>
     <use xlink:href="#DejaVuSans-75" x="494.921875"/>
     <use xlink:href="#DejaVuSans-6e" x="558.300781"/>
     <use xlink:href="#DejaVuSans-6e" x="621.679688"/>
    </g>
   </g>
  </g>
 </g>
 <defs>
  <clipPath id="p5e7fc47d91">
   <rect x="144" y="51.84" width="405.818182" height="97.835294"/>
  </clipPath>
  <clipPath id="p0e405fc7f8">
   <rect x="630.981818" y="51.84" width="405.818182" height="97.835294"/>
  </clipPath>
  <clipPath id="p132fcdb658">
   <rect x="144" y="169.242353" width="405.818182" height="97.835294"/>
  </clipPath>
  <clipPath id="p48487d38f0">
   <rect x="630.981818" y="169.242353" width="405.818182" height="97.835294"/>
  </clipPath>
  <clipPath id="p7ec20105c4">
   <rect x="144" y="286.644706" width="405.818182" height="97.835294"/>
  </clipPath>
  <clipPath id="pc98a54b27b">
   <rect x="630.981818" y="286.644706" width="405.818182" height="97.835294"/>
  </clipPath>
 </defs>
</svg>
