<?xml version="1.0" encoding="utf-8" standalone="no"?>
<!DOCTYPE svg PUBLIC "-//W3C//DTD SVG 1.1//EN"
  "http://www.w3.org/Graphics/SVG/1.1/DTD/svg11.dtd">
<svg xmlns:xlink="http://www.w3.org/1999/xlink" width="576pt" height="288pt" viewBox="0 0 576 288" xmlns="http://www.w3.org/2000/svg" version="1.1">
 <metadata>
  <rdf:RDF xmlns:dc="http://purl.org/dc/elements/1.1/" xmlns:cc="http://creativecommons.org/ns#" xmlns:rdf="http://www.w3.org/1999/02/22-rdf-syntax-ns#">
   <cc:Work>
    <dc:type rdf:resource="http://purl.org/dc/dcmitype/StillImage"/>
    <dc:date>2023-12-18T05:20:15.730830</dc:date>
    <dc:format>image/svg+xml</dc:format>
    <dc:creator>
     <cc:Agent>
      <dc:title>Matplotlib v3.6.2, https://matplotlib.org/</dc:title>
     </cc:Agent>
    </dc:creator>
   </cc:Work>
  </rdf:RDF>
 </metadata>
 <defs>
  <style type="text/css">*{stroke-linejoin: round; stroke-linecap: butt}</style>
 </defs>
 <g id="figure_1">
  <g id="patch_1">
   <path d="M 0 288 
L 576 288 
L 576 0 
L 0 0 
z
" style="fill: #ffffff"/>
  </g>
  <g id="axes_1">
   <g id="patch_2">
    <path d="M 57.615 260.521875 
L 295.482812 260.521875 
L 295.482812 57.594062 
L 57.615 57.594062 
z
" style="fill: #ffffff"/>
   </g>
   <g id="patch_3">
    <path d="M 57.615 260.521875 
L 69.508391 260.521875 
L 69.508391 154.029145 
L 57.615 154.029145 
z
" clip-path="url(#p069207fadd)" style="fill: #1f77b4; opacity: 0.4"/>
   </g>
   <g id="patch_4">
    <path d="M 69.508391 260.521875 
L 81.401781 260.521875 
L 81.401781 67.257292 
L 69.508391 67.257292 
z
" clip-path="url(#p069207fadd)" style="fill: #1f77b4; opacity: 0.4"/>
   </g>
   <g id="patch_5">
    <path d="M 81.401781 260.521875 
L 93.295172 260.521875 
L 93.295172 181.638372 
L 81.401781 181.638372 
z
" clip-path="url(#p069207fadd)" style="fill: #1f77b4; opacity: 0.4"/>
   </g>
   <g id="patch_6">
    <path d="M 93.295172 260.521875 
L 105.188563 260.521875 
L 105.188563 248.689349 
L 93.295172 248.689349 
z
" clip-path="url(#p069207fadd)" style="fill: #1f77b4; opacity: 0.4"/>
   </g>
   <g id="patch_7">
    <path d="M 105.188562 260.521875 
L 117.081953 260.521875 
L 117.081953 232.912649 
L 105.188562 232.912649 
z
" clip-path="url(#p069207fadd)" style="fill: #1f77b4; opacity: 0.4"/>
   </g>
   <g id="patch_8">
    <path d="M 117.081953 260.521875 
L 128.975344 260.521875 
L 128.975344 248.689349 
L 117.081953 248.689349 
z
" clip-path="url(#p069207fadd)" style="fill: #1f77b4; opacity: 0.4"/>
   </g>
   <g id="patch_9">
    <path d="M 128.975344 260.521875 
L 140.868734 260.521875 
L 140.868734 252.633525 
L 128.975344 252.633525 
z
" clip-path="url(#p069207fadd)" style="fill: #1f77b4; opacity: 0.4"/>
   </g>
   <g id="patch_10">
    <path d="M 140.868734 260.521875 
L 152.762125 260.521875 
L 152.762125 256.5777 
L 140.868734 256.5777 
z
" clip-path="url(#p069207fadd)" style="fill: #1f77b4; opacity: 0.4"/>
   </g>
   <g id="patch_11">
    <path d="M 152.762125 260.521875 
L 164.655516 260.521875 
L 164.655516 260.521875 
L 152.762125 260.521875 
z
" clip-path="url(#p069207fadd)" style="fill: #1f77b4; opacity: 0.4"/>
   </g>
   <g id="patch_12">
    <path d="M 164.655516 260.521875 
L 176.548906 260.521875 
L 176.548906 260.521875 
L 164.655516 260.521875 
z
" clip-path="url(#p069207fadd)" style="fill: #1f77b4; opacity: 0.4"/>
   </g>
   <g id="patch_13">
    <path d="M 176.548906 260.521875 
L 188.442297 260.521875 
L 188.442297 256.5777 
L 176.548906 256.5777 
z
" clip-path="url(#p069207fadd)" style="fill: #1f77b4; opacity: 0.4"/>
   </g>
   <g id="patch_14">
    <path d="M 188.442297 260.521875 
L 200.335688 260.521875 
L 200.335688 260.521875 
L 188.442297 260.521875 
z
" clip-path="url(#p069207fadd)" style="fill: #1f77b4; opacity: 0.4"/>
   </g>
   <g id="patch_15">
    <path d="M 200.335688 260.521875 
L 212.229078 260.521875 
L 212.229078 260.521875 
L 200.335688 260.521875 
z
" clip-path="url(#p069207fadd)" style="fill: #1f77b4; opacity: 0.4"/>
   </g>
   <g id="patch_16">
    <path d="M 212.229078 260.521875 
L 224.122469 260.521875 
L 224.122469 260.521875 
L 212.229078 260.521875 
z
" clip-path="url(#p069207fadd)" style="fill: #1f77b4; opacity: 0.4"/>
   </g>
   <g id="patch_17">
    <path d="M 224.122469 260.521875 
L 236.015859 260.521875 
L 236.015859 260.521875 
L 224.122469 260.521875 
z
" clip-path="url(#p069207fadd)" style="fill: #1f77b4; opacity: 0.4"/>
   </g>
   <g id="patch_18">
    <path d="M 236.015859 260.521875 
L 247.90925 260.521875 
L 247.90925 260.521875 
L 236.015859 260.521875 
z
" clip-path="url(#p069207fadd)" style="fill: #1f77b4; opacity: 0.4"/>
   </g>
   <g id="patch_19">
    <path d="M 247.90925 260.521875 
L 259.802641 260.521875 
L 259.802641 260.521875 
L 247.90925 260.521875 
z
" clip-path="url(#p069207fadd)" style="fill: #1f77b4; opacity: 0.4"/>
   </g>
   <g id="patch_20">
    <path d="M 259.802641 260.521875 
L 271.696031 260.521875 
L 271.696031 260.521875 
L 259.802641 260.521875 
z
" clip-path="url(#p069207fadd)" style="fill: #1f77b4; opacity: 0.4"/>
   </g>
   <g id="patch_21">
    <path d="M 271.696031 260.521875 
L 283.589422 260.521875 
L 283.589422 260.521875 
L 271.696031 260.521875 
z
" clip-path="url(#p069207fadd)" style="fill: #1f77b4; opacity: 0.4"/>
   </g>
   <g id="patch_22">
    <path d="M 283.589422 260.521875 
L 295.482812 260.521875 
L 295.482812 256.5777 
L 283.589422 256.5777 
z
" clip-path="url(#p069207fadd)" style="fill: #1f77b4; opacity: 0.4"/>
   </g>
   <g id="patch_23">
    <path d="M 66.334946 260.521875 
L 75.698566 260.521875 
L 75.698566 217.688312 
L 66.334946 217.688312 
z
" clip-path="url(#p069207fadd)" style="fill: #ff7f0e; opacity: 0.4"/>
   </g>
   <g id="patch_24">
    <path d="M 75.698566 260.521875 
L 85.062187 260.521875 
L 85.062187 217.688312 
L 75.698566 217.688312 
z
" clip-path="url(#p069207fadd)" style="fill: #ff7f0e; opacity: 0.4"/>
   </g>
   <g id="patch_25">
    <path d="M 85.062187 260.521875 
L 94.425807 260.521875 
L 94.425807 203.410458 
L 85.062187 203.410458 
z
" clip-path="url(#p069207fadd)" style="fill: #ff7f0e; opacity: 0.4"/>
   </g>
   <g id="patch_26">
    <path d="M 94.425807 260.521875 
L 103.789427 260.521875 
L 103.789427 217.688312 
L 94.425807 217.688312 
z
" clip-path="url(#p069207fadd)" style="fill: #ff7f0e; opacity: 0.4"/>
   </g>
   <g id="patch_27">
    <path d="M 103.789427 260.521875 
L 113.153048 260.521875 
L 113.153048 217.688312 
L 103.789427 217.688312 
z
" clip-path="url(#p069207fadd)" style="fill: #ff7f0e; opacity: 0.4"/>
   </g>
   <g id="patch_28">
    <path d="M 113.153048 260.521875 
L 122.516668 260.521875 
L 122.516668 224.827239 
L 113.153048 224.827239 
z
" clip-path="url(#p069207fadd)" style="fill: #ff7f0e; opacity: 0.4"/>
   </g>
   <g id="patch_29">
    <path d="M 122.516668 260.521875 
L 131.880288 260.521875 
L 131.880288 196.271531 
L 122.516668 196.271531 
z
" clip-path="url(#p069207fadd)" style="fill: #ff7f0e; opacity: 0.4"/>
   </g>
   <g id="patch_30">
    <path d="M 131.880288 260.521875 
L 141.243909 260.521875 
L 141.243909 196.271531 
L 131.880288 196.271531 
z
" clip-path="url(#p069207fadd)" style="fill: #ff7f0e; opacity: 0.4"/>
   </g>
   <g id="patch_31">
    <path d="M 141.243909 260.521875 
L 150.607529 260.521875 
L 150.607529 231.966167 
L 141.243909 231.966167 
z
" clip-path="url(#p069207fadd)" style="fill: #ff7f0e; opacity: 0.4"/>
   </g>
   <g id="patch_32">
    <path d="M 150.607529 260.521875 
L 159.971149 260.521875 
L 159.971149 224.827239 
L 150.607529 224.827239 
z
" clip-path="url(#p069207fadd)" style="fill: #ff7f0e; opacity: 0.4"/>
   </g>
   <g id="patch_33">
    <path d="M 159.971149 260.521875 
L 169.334769 260.521875 
L 169.334769 246.244021 
L 159.971149 246.244021 
z
" clip-path="url(#p069207fadd)" style="fill: #ff7f0e; opacity: 0.4"/>
   </g>
   <g id="patch_34">
    <path d="M 169.334769 260.521875 
L 178.69839 260.521875 
L 178.69839 231.966167 
L 169.334769 231.966167 
z
" clip-path="url(#p069207fadd)" style="fill: #ff7f0e; opacity: 0.4"/>
   </g>
   <g id="patch_35">
    <path d="M 178.69839 260.521875 
L 188.06201 260.521875 
L 188.06201 239.105094 
L 178.69839 239.105094 
z
" clip-path="url(#p069207fadd)" style="fill: #ff7f0e; opacity: 0.4"/>
   </g>
   <g id="patch_36">
    <path d="M 188.06201 260.521875 
L 197.42563 260.521875 
L 197.42563 246.244021 
L 188.06201 246.244021 
z
" clip-path="url(#p069207fadd)" style="fill: #ff7f0e; opacity: 0.4"/>
   </g>
   <g id="patch_37">
    <path d="M 197.42563 260.521875 
L 206.789251 260.521875 
L 206.789251 260.521875 
L 197.42563 260.521875 
z
" clip-path="url(#p069207fadd)" style="fill: #ff7f0e; opacity: 0.4"/>
   </g>
   <g id="patch_38">
    <path d="M 206.789251 260.521875 
L 216.152871 260.521875 
L 216.152871 253.382948 
L 206.789251 253.382948 
z
" clip-path="url(#p069207fadd)" style="fill: #ff7f0e; opacity: 0.4"/>
   </g>
   <g id="patch_39">
    <path d="M 216.152871 260.521875 
L 225.516491 260.521875 
L 225.516491 253.382948 
L 216.152871 253.382948 
z
" clip-path="url(#p069207fadd)" style="fill: #ff7f0e; opacity: 0.4"/>
   </g>
   <g id="patch_40">
    <path d="M 225.516491 260.521875 
L 234.880112 260.521875 
L 234.880112 260.521875 
L 225.516491 260.521875 
z
" clip-path="url(#p069207fadd)" style="fill: #ff7f0e; opacity: 0.4"/>
   </g>
   <g id="patch_41">
    <path d="M 234.880112 260.521875 
L 244.243732 260.521875 
L 244.243732 246.244021 
L 234.880112 246.244021 
z
" clip-path="url(#p069207fadd)" style="fill: #ff7f0e; opacity: 0.4"/>
   </g>
   <g id="patch_42">
    <path d="M 244.243732 260.521875 
L 253.607352 260.521875 
L 253.607352 253.382948 
L 244.243732 253.382948 
z
" clip-path="url(#p069207fadd)" style="fill: #ff7f0e; opacity: 0.4"/>
   </g>
   <g id="patch_43">
    <path d="M 59.427522 260.521875 
L 66.792921 260.521875 
L 66.792921 119.994792 
L 59.427522 119.994792 
z
" clip-path="url(#p069207fadd)" style="fill: #2ca02c; opacity: 0.4"/>
   </g>
   <g id="patch_44">
    <path d="M 66.792921 260.521875 
L 74.158319 260.521875 
L 74.158319 84.863021 
L 66.792921 84.863021 
z
" clip-path="url(#p069207fadd)" style="fill: #2ca02c; opacity: 0.4"/>
   </g>
   <g id="patch_45">
    <path d="M 74.158319 260.521875 
L 81.523718 260.521875 
L 81.523718 166.837153 
L 74.158319 166.837153 
z
" clip-path="url(#p069207fadd)" style="fill: #2ca02c; opacity: 0.4"/>
   </g>
   <g id="patch_46">
    <path d="M 81.523718 260.521875 
L 88.889117 260.521875 
L 88.889117 166.837153 
L 81.523718 166.837153 
z
" clip-path="url(#p069207fadd)" style="fill: #2ca02c; opacity: 0.4"/>
   </g>
   <g id="patch_47">
    <path d="M 88.889117 260.521875 
L 96.254515 260.521875 
L 96.254515 248.811285 
L 88.889117 248.811285 
z
" clip-path="url(#p069207fadd)" style="fill: #2ca02c; opacity: 0.4"/>
   </g>
   <g id="patch_48">
    <path d="M 96.254515 260.521875 
L 103.619914 260.521875 
L 103.619914 190.258334 
L 96.254515 190.258334 
z
" clip-path="url(#p069207fadd)" style="fill: #2ca02c; opacity: 0.4"/>
   </g>
   <g id="patch_49">
    <path d="M 103.619914 260.521875 
L 110.985312 260.521875 
L 110.985312 260.521875 
L 103.619914 260.521875 
z
" clip-path="url(#p069207fadd)" style="fill: #2ca02c; opacity: 0.4"/>
   </g>
   <g id="patch_50">
    <path d="M 110.985312 260.521875 
L 118.350711 260.521875 
L 118.350711 237.100695 
L 110.985312 237.100695 
z
" clip-path="url(#p069207fadd)" style="fill: #2ca02c; opacity: 0.4"/>
   </g>
   <g id="patch_51">
    <path d="M 118.350711 260.521875 
L 125.71611 260.521875 
L 125.71611 248.811285 
L 118.350711 248.811285 
z
" clip-path="url(#p069207fadd)" style="fill: #2ca02c; opacity: 0.4"/>
   </g>
   <g id="patch_52">
    <path d="M 125.71611 260.521875 
L 133.081508 260.521875 
L 133.081508 248.811285 
L 125.71611 248.811285 
z
" clip-path="url(#p069207fadd)" style="fill: #2ca02c; opacity: 0.4"/>
   </g>
   <g id="patch_53">
    <path d="M 133.081508 260.521875 
L 140.446907 260.521875 
L 140.446907 237.100695 
L 133.081508 237.100695 
z
" clip-path="url(#p069207fadd)" style="fill: #2ca02c; opacity: 0.4"/>
   </g>
   <g id="patch_54">
    <path d="M 140.446907 260.521875 
L 147.812305 260.521875 
L 147.812305 248.811285 
L 140.446907 248.811285 
z
" clip-path="url(#p069207fadd)" style="fill: #2ca02c; opacity: 0.4"/>
   </g>
   <g id="patch_55">
    <path d="M 147.812305 260.521875 
L 155.177704 260.521875 
L 155.177704 248.811285 
L 147.812305 248.811285 
z
" clip-path="url(#p069207fadd)" style="fill: #2ca02c; opacity: 0.4"/>
   </g>
   <g id="patch_56">
    <path d="M 155.177704 260.521875 
L 162.543103 260.521875 
L 162.543103 260.521875 
L 155.177704 260.521875 
z
" clip-path="url(#p069207fadd)" style="fill: #2ca02c; opacity: 0.4"/>
   </g>
   <g id="patch_57">
    <path d="M 162.543103 260.521875 
L 169.908501 260.521875 
L 169.908501 237.100695 
L 162.543103 237.100695 
z
" clip-path="url(#p069207fadd)" style="fill: #2ca02c; opacity: 0.4"/>
   </g>
   <g id="patch_58">
    <path d="M 169.908501 260.521875 
L 177.2739 260.521875 
L 177.2739 260.521875 
L 169.908501 260.521875 
z
" clip-path="url(#p069207fadd)" style="fill: #2ca02c; opacity: 0.4"/>
   </g>
   <g id="patch_59">
    <path d="M 177.2739 260.521875 
L 184.639298 260.521875 
L 184.639298 248.811285 
L 177.2739 248.811285 
z
" clip-path="url(#p069207fadd)" style="fill: #2ca02c; opacity: 0.4"/>
   </g>
   <g id="patch_60">
    <path d="M 184.639298 260.521875 
L 192.004697 260.521875 
L 192.004697 260.521875 
L 184.639298 260.521875 
z
" clip-path="url(#p069207fadd)" style="fill: #2ca02c; opacity: 0.4"/>
   </g>
   <g id="patch_61">
    <path d="M 192.004697 260.521875 
L 199.370096 260.521875 
L 199.370096 260.521875 
L 192.004697 260.521875 
z
" clip-path="url(#p069207fadd)" style="fill: #2ca02c; opacity: 0.4"/>
   </g>
   <g id="patch_62">
    <path d="M 199.370096 260.521875 
L 206.735494 260.521875 
L 206.735494 248.811285 
L 199.370096 248.811285 
z
" clip-path="url(#p069207fadd)" style="fill: #2ca02c; opacity: 0.4"/>
   </g>
   <g id="matplotlib.axis_1">
    <g id="xtick_1">
     <g id="line2d_1">
      <defs>
       <path id="md64878b89b" d="M 0 0 
L 0 3.5 
" style="stroke: #000000; stroke-width: 0.8"/>
      </defs>
      <g>
       <use xlink:href="#md64878b89b" x="106.096453" y="260.521875" style="stroke: #000000; stroke-width: 0.8"/>
      </g>
     </g>
     <g id="text_1">
      <!-- 0.6 -->
      <g transform="translate(98.14489 275.120313) scale(0.1 -0.1)">
       <defs>
        <path id="DejaVuSans-30" d="M 2034 4250 
Q 1547 4250 1301 3770 
Q 1056 3291 1056 2328 
Q 1056 1369 1301 889 
Q 1547 409 2034 409 
Q 2525 409 2770 889 
Q 3016 1369 3016 2328 
Q 3016 3291 2770 3770 
Q 2525 4250 2034 4250 
z
M 2034 4750 
Q 2819 4750 3233 4129 
Q 3647 3509 3647 2328 
Q 3647 1150 3233 529 
Q 2819 -91 2034 -91 
Q 1250 -91 836 529 
Q 422 1150 422 2328 
Q 422 3509 836 4129 
Q 1250 4750 2034 4750 
z
" transform="scale(0.015625)"/>
        <path id="DejaVuSans-2e" d="M 684 794 
L 1344 794 
L 1344 0 
L 684 0 
L 684 794 
z
" transform="scale(0.015625)"/>
        <path id="DejaVuSans-36" d="M 2113 2584 
Q 1688 2584 1439 2293 
Q 1191 2003 1191 1497 
Q 1191 994 1439 701 
Q 1688 409 2113 409 
Q 2538 409 2786 701 
Q 3034 994 3034 1497 
Q 3034 2003 2786 2293 
Q 2538 2584 2113 2584 
z
M 3366 4563 
L 3366 3988 
Q 3128 4100 2886 4159 
Q 2644 4219 2406 4219 
Q 1781 4219 1451 3797 
Q 1122 3375 1075 2522 
Q 1259 2794 1537 2939 
Q 1816 3084 2150 3084 
Q 2853 3084 3261 2657 
Q 3669 2231 3669 1497 
Q 3669 778 3244 343 
Q 2819 -91 2113 -91 
Q 1303 -91 875 529 
Q 447 1150 447 2328 
Q 447 3434 972 4092 
Q 1497 4750 2381 4750 
Q 2619 4750 2861 4703 
Q 3103 4656 3366 4563 
z
" transform="scale(0.015625)"/>
       </defs>
       <use xlink:href="#DejaVuSans-30"/>
       <use xlink:href="#DejaVuSans-2e" x="63.623047"/>
       <use xlink:href="#DejaVuSans-36" x="95.410156"/>
      </g>
     </g>
    </g>
    <g id="xtick_2">
     <g id="line2d_2">
      <g>
       <use xlink:href="#md64878b89b" x="160.409718" y="260.521875" style="stroke: #000000; stroke-width: 0.8"/>
      </g>
     </g>
     <g id="text_2">
      <!-- 0.7 -->
      <g transform="translate(152.458156 275.120313) scale(0.1 -0.1)">
       <defs>
        <path id="DejaVuSans-37" d="M 525 4666 
L 3525 4666 
L 3525 4397 
L 1831 0 
L 1172 0 
L 2766 4134 
L 525 4134 
L 525 4666 
z
" transform="scale(0.015625)"/>
       </defs>
       <use xlink:href="#DejaVuSans-30"/>
       <use xlink:href="#DejaVuSans-2e" x="63.623047"/>
       <use xlink:href="#DejaVuSans-37" x="95.410156"/>
      </g>
     </g>
    </g>
    <g id="xtick_3">
     <g id="line2d_3">
      <g>
       <use xlink:href="#md64878b89b" x="214.722984" y="260.521875" style="stroke: #000000; stroke-width: 0.8"/>
      </g>
     </g>
     <g id="text_3">
      <!-- 0.8 -->
      <g transform="translate(206.771421 275.120313) scale(0.1 -0.1)">
       <defs>
        <path id="DejaVuSans-38" d="M 2034 2216 
Q 1584 2216 1326 1975 
Q 1069 1734 1069 1313 
Q 1069 891 1326 650 
Q 1584 409 2034 409 
Q 2484 409 2743 651 
Q 3003 894 3003 1313 
Q 3003 1734 2745 1975 
Q 2488 2216 2034 2216 
z
M 1403 2484 
Q 997 2584 770 2862 
Q 544 3141 544 3541 
Q 544 4100 942 4425 
Q 1341 4750 2034 4750 
Q 2731 4750 3128 4425 
Q 3525 4100 3525 3541 
Q 3525 3141 3298 2862 
Q 3072 2584 2669 2484 
Q 3125 2378 3379 2068 
Q 3634 1759 3634 1313 
Q 3634 634 3220 271 
Q 2806 -91 2034 -91 
Q 1263 -91 848 271 
Q 434 634 434 1313 
Q 434 1759 690 2068 
Q 947 2378 1403 2484 
z
M 1172 3481 
Q 1172 3119 1398 2916 
Q 1625 2713 2034 2713 
Q 2441 2713 2670 2916 
Q 2900 3119 2900 3481 
Q 2900 3844 2670 4047 
Q 2441 4250 2034 4250 
Q 1625 4250 1398 4047 
Q 1172 3844 1172 3481 
z
" transform="scale(0.015625)"/>
       </defs>
       <use xlink:href="#DejaVuSans-30"/>
       <use xlink:href="#DejaVuSans-2e" x="63.623047"/>
       <use xlink:href="#DejaVuSans-38" x="95.410156"/>
      </g>
     </g>
    </g>
    <g id="xtick_4">
     <g id="line2d_4">
      <g>
       <use xlink:href="#md64878b89b" x="269.03625" y="260.521875" style="stroke: #000000; stroke-width: 0.8"/>
      </g>
     </g>
     <g id="text_4">
      <!-- 0.9 -->
      <g transform="translate(261.084687 275.120313) scale(0.1 -0.1)">
       <defs>
        <path id="DejaVuSans-39" d="M 703 97 
L 703 672 
Q 941 559 1184 500 
Q 1428 441 1663 441 
Q 2288 441 2617 861 
Q 2947 1281 2994 2138 
Q 2813 1869 2534 1725 
Q 2256 1581 1919 1581 
Q 1219 1581 811 2004 
Q 403 2428 403 3163 
Q 403 3881 828 4315 
Q 1253 4750 1959 4750 
Q 2769 4750 3195 4129 
Q 3622 3509 3622 2328 
Q 3622 1225 3098 567 
Q 2575 -91 1691 -91 
Q 1453 -91 1209 -44 
Q 966 3 703 97 
z
M 1959 2075 
Q 2384 2075 2632 2365 
Q 2881 2656 2881 3163 
Q 2881 3666 2632 3958 
Q 2384 4250 1959 4250 
Q 1534 4250 1286 3958 
Q 1038 3666 1038 3163 
Q 1038 2656 1286 2365 
Q 1534 2075 1959 2075 
z
" transform="scale(0.015625)"/>
       </defs>
       <use xlink:href="#DejaVuSans-30"/>
       <use xlink:href="#DejaVuSans-2e" x="63.623047"/>
       <use xlink:href="#DejaVuSans-39" x="95.410156"/>
      </g>
     </g>
    </g>
   </g>
   <g id="matplotlib.axis_2">
    <g id="ytick_1">
     <g id="line2d_5">
      <defs>
       <path id="m3bee36cc15" d="M 0 0 
L -3.5 0 
" style="stroke: #000000; stroke-width: 0.8"/>
      </defs>
      <g>
       <use xlink:href="#m3bee36cc15" x="57.615" y="260.521875" style="stroke: #000000; stroke-width: 0.8"/>
      </g>
     </g>
     <g id="text_5">
      <!-- 0.0 -->
      <g transform="translate(34.711875 264.321094) scale(0.1 -0.1)">
       <use xlink:href="#DejaVuSans-30"/>
       <use xlink:href="#DejaVuSans-2e" x="63.623047"/>
       <use xlink:href="#DejaVuSans-30" x="95.410156"/>
      </g>
     </g>
    </g>
    <g id="ytick_2">
     <g id="line2d_6">
      <g>
       <use xlink:href="#m3bee36cc15" x="57.615" y="235.906819" style="stroke: #000000; stroke-width: 0.8"/>
      </g>
     </g>
     <g id="text_6">
      <!-- 2.5 -->
      <g transform="translate(34.711875 239.706038) scale(0.1 -0.1)">
       <defs>
        <path id="DejaVuSans-32" d="M 1228 531 
L 3431 531 
L 3431 0 
L 469 0 
L 469 531 
Q 828 903 1448 1529 
Q 2069 2156 2228 2338 
Q 2531 2678 2651 2914 
Q 2772 3150 2772 3378 
Q 2772 3750 2511 3984 
Q 2250 4219 1831 4219 
Q 1534 4219 1204 4116 
Q 875 4013 500 3803 
L 500 4441 
Q 881 4594 1212 4672 
Q 1544 4750 1819 4750 
Q 2544 4750 2975 4387 
Q 3406 4025 3406 3419 
Q 3406 3131 3298 2873 
Q 3191 2616 2906 2266 
Q 2828 2175 2409 1742 
Q 1991 1309 1228 531 
z
" transform="scale(0.015625)"/>
        <path id="DejaVuSans-35" d="M 691 4666 
L 3169 4666 
L 3169 4134 
L 1269 4134 
L 1269 2991 
Q 1406 3038 1543 3061 
Q 1681 3084 1819 3084 
Q 2600 3084 3056 2656 
Q 3513 2228 3513 1497 
Q 3513 744 3044 326 
Q 2575 -91 1722 -91 
Q 1428 -91 1123 -41 
Q 819 9 494 109 
L 494 744 
Q 775 591 1075 516 
Q 1375 441 1709 441 
Q 2250 441 2565 725 
Q 2881 1009 2881 1497 
Q 2881 1984 2565 2268 
Q 2250 2553 1709 2553 
Q 1456 2553 1204 2497 
Q 953 2441 691 2322 
L 691 4666 
z
" transform="scale(0.015625)"/>
       </defs>
       <use xlink:href="#DejaVuSans-32"/>
       <use xlink:href="#DejaVuSans-2e" x="63.623047"/>
       <use xlink:href="#DejaVuSans-35" x="95.410156"/>
      </g>
     </g>
    </g>
    <g id="ytick_3">
     <g id="line2d_7">
      <g>
       <use xlink:href="#m3bee36cc15" x="57.615" y="211.291764" style="stroke: #000000; stroke-width: 0.8"/>
      </g>
     </g>
     <g id="text_7">
      <!-- 5.0 -->
      <g transform="translate(34.711875 215.090982) scale(0.1 -0.1)">
       <use xlink:href="#DejaVuSans-35"/>
       <use xlink:href="#DejaVuSans-2e" x="63.623047"/>
       <use xlink:href="#DejaVuSans-30" x="95.410156"/>
      </g>
     </g>
    </g>
    <g id="ytick_4">
     <g id="line2d_8">
      <g>
       <use xlink:href="#m3bee36cc15" x="57.615" y="186.676708" style="stroke: #000000; stroke-width: 0.8"/>
      </g>
     </g>
     <g id="text_8">
      <!-- 7.5 -->
      <g transform="translate(34.711875 190.475927) scale(0.1 -0.1)">
       <use xlink:href="#DejaVuSans-37"/>
       <use xlink:href="#DejaVuSans-2e" x="63.623047"/>
       <use xlink:href="#DejaVuSans-35" x="95.410156"/>
      </g>
     </g>
    </g>
    <g id="ytick_5">
     <g id="line2d_9">
      <g>
       <use xlink:href="#m3bee36cc15" x="57.615" y="162.061652" style="stroke: #000000; stroke-width: 0.8"/>
      </g>
     </g>
     <g id="text_9">
      <!-- 10.0 -->
      <g transform="translate(28.349375 165.860871) scale(0.1 -0.1)">
       <defs>
        <path id="DejaVuSans-31" d="M 794 531 
L 1825 531 
L 1825 4091 
L 703 3866 
L 703 4441 
L 1819 4666 
L 2450 4666 
L 2450 531 
L 3481 531 
L 3481 0 
L 794 0 
L 794 531 
z
" transform="scale(0.015625)"/>
       </defs>
       <use xlink:href="#DejaVuSans-31"/>
       <use xlink:href="#DejaVuSans-30" x="63.623047"/>
       <use xlink:href="#DejaVuSans-2e" x="127.246094"/>
       <use xlink:href="#DejaVuSans-30" x="159.033203"/>
      </g>
     </g>
    </g>
    <g id="ytick_6">
     <g id="line2d_10">
      <g>
       <use xlink:href="#m3bee36cc15" x="57.615" y="137.446597" style="stroke: #000000; stroke-width: 0.8"/>
      </g>
     </g>
     <g id="text_10">
      <!-- 12.5 -->
      <g transform="translate(28.349375 141.245815) scale(0.1 -0.1)">
       <use xlink:href="#DejaVuSans-31"/>
       <use xlink:href="#DejaVuSans-32" x="63.623047"/>
       <use xlink:href="#DejaVuSans-2e" x="127.246094"/>
       <use xlink:href="#DejaVuSans-35" x="159.033203"/>
      </g>
     </g>
    </g>
    <g id="ytick_7">
     <g id="line2d_11">
      <g>
       <use xlink:href="#m3bee36cc15" x="57.615" y="112.831541" style="stroke: #000000; stroke-width: 0.8"/>
      </g>
     </g>
     <g id="text_11">
      <!-- 15.0 -->
      <g transform="translate(28.349375 116.63076) scale(0.1 -0.1)">
       <use xlink:href="#DejaVuSans-31"/>
       <use xlink:href="#DejaVuSans-35" x="63.623047"/>
       <use xlink:href="#DejaVuSans-2e" x="127.246094"/>
       <use xlink:href="#DejaVuSans-30" x="159.033203"/>
      </g>
     </g>
    </g>
    <g id="ytick_8">
     <g id="line2d_12">
      <g>
       <use xlink:href="#m3bee36cc15" x="57.615" y="88.216485" style="stroke: #000000; stroke-width: 0.8"/>
      </g>
     </g>
     <g id="text_12">
      <!-- 17.5 -->
      <g transform="translate(28.349375 92.015704) scale(0.1 -0.1)">
       <use xlink:href="#DejaVuSans-31"/>
       <use xlink:href="#DejaVuSans-37" x="63.623047"/>
       <use xlink:href="#DejaVuSans-2e" x="127.246094"/>
       <use xlink:href="#DejaVuSans-35" x="159.033203"/>
      </g>
     </g>
    </g>
    <g id="ytick_9">
     <g id="line2d_13">
      <g>
       <use xlink:href="#m3bee36cc15" x="57.615" y="63.60143" style="stroke: #000000; stroke-width: 0.8"/>
      </g>
     </g>
     <g id="text_13">
      <!-- 20.0 -->
      <g transform="translate(28.349375 67.400649) scale(0.1 -0.1)">
       <use xlink:href="#DejaVuSans-32"/>
       <use xlink:href="#DejaVuSans-30" x="63.623047"/>
       <use xlink:href="#DejaVuSans-2e" x="127.246094"/>
       <use xlink:href="#DejaVuSans-30" x="159.033203"/>
      </g>
     </g>
    </g>
    <g id="text_14">
     <!-- Fraction of cells -->
     <g transform="translate(21.437813 213.889844) rotate(-90) scale(0.14 -0.14)">
      <defs>
       <path id="DejaVuSans-46" d="M 628 4666 
L 3309 4666 
L 3309 4134 
L 1259 4134 
L 1259 2759 
L 3109 2759 
L 3109 2228 
L 1259 2228 
L 1259 0 
L 628 0 
L 628 4666 
z
" transform="scale(0.015625)"/>
       <path id="DejaVuSans-72" d="M 2631 2963 
Q 2534 3019 2420 3045 
Q 2306 3072 2169 3072 
Q 1681 3072 1420 2755 
Q 1159 2438 1159 1844 
L 1159 0 
L 581 0 
L 581 3500 
L 1159 3500 
L 1159 2956 
Q 1341 3275 1631 3429 
Q 1922 3584 2338 3584 
Q 2397 3584 2469 3576 
Q 2541 3569 2628 3553 
L 2631 2963 
z
" transform="scale(0.015625)"/>
       <path id="DejaVuSans-61" d="M 2194 1759 
Q 1497 1759 1228 1600 
Q 959 1441 959 1056 
Q 959 750 1161 570 
Q 1363 391 1709 391 
Q 2188 391 2477 730 
Q 2766 1069 2766 1631 
L 2766 1759 
L 2194 1759 
z
M 3341 1997 
L 3341 0 
L 2766 0 
L 2766 531 
Q 2569 213 2275 61 
Q 1981 -91 1556 -91 
Q 1019 -91 701 211 
Q 384 513 384 1019 
Q 384 1609 779 1909 
Q 1175 2209 1959 2209 
L 2766 2209 
L 2766 2266 
Q 2766 2663 2505 2880 
Q 2244 3097 1772 3097 
Q 1472 3097 1187 3025 
Q 903 2953 641 2809 
L 641 3341 
Q 956 3463 1253 3523 
Q 1550 3584 1831 3584 
Q 2591 3584 2966 3190 
Q 3341 2797 3341 1997 
z
" transform="scale(0.015625)"/>
       <path id="DejaVuSans-63" d="M 3122 3366 
L 3122 2828 
Q 2878 2963 2633 3030 
Q 2388 3097 2138 3097 
Q 1578 3097 1268 2742 
Q 959 2388 959 1747 
Q 959 1106 1268 751 
Q 1578 397 2138 397 
Q 2388 397 2633 464 
Q 2878 531 3122 666 
L 3122 134 
Q 2881 22 2623 -34 
Q 2366 -91 2075 -91 
Q 1284 -91 818 406 
Q 353 903 353 1747 
Q 353 2603 823 3093 
Q 1294 3584 2113 3584 
Q 2378 3584 2631 3529 
Q 2884 3475 3122 3366 
z
" transform="scale(0.015625)"/>
       <path id="DejaVuSans-74" d="M 1172 4494 
L 1172 3500 
L 2356 3500 
L 2356 3053 
L 1172 3053 
L 1172 1153 
Q 1172 725 1289 603 
Q 1406 481 1766 481 
L 2356 481 
L 2356 0 
L 1766 0 
Q 1100 0 847 248 
Q 594 497 594 1153 
L 594 3053 
L 172 3053 
L 172 3500 
L 594 3500 
L 594 4494 
L 1172 4494 
z
" transform="scale(0.015625)"/>
       <path id="DejaVuSans-69" d="M 603 3500 
L 1178 3500 
L 1178 0 
L 603 0 
L 603 3500 
z
M 603 4863 
L 1178 4863 
L 1178 4134 
L 603 4134 
L 603 4863 
z
" transform="scale(0.015625)"/>
       <path id="DejaVuSans-6f" d="M 1959 3097 
Q 1497 3097 1228 2736 
Q 959 2375 959 1747 
Q 959 1119 1226 758 
Q 1494 397 1959 397 
Q 2419 397 2687 759 
Q 2956 1122 2956 1747 
Q 2956 2369 2687 2733 
Q 2419 3097 1959 3097 
z
M 1959 3584 
Q 2709 3584 3137 3096 
Q 3566 2609 3566 1747 
Q 3566 888 3137 398 
Q 2709 -91 1959 -91 
Q 1206 -91 779 398 
Q 353 888 353 1747 
Q 353 2609 779 3096 
Q 1206 3584 1959 3584 
z
" transform="scale(0.015625)"/>
       <path id="DejaVuSans-6e" d="M 3513 2113 
L 3513 0 
L 2938 0 
L 2938 2094 
Q 2938 2591 2744 2837 
Q 2550 3084 2163 3084 
Q 1697 3084 1428 2787 
Q 1159 2491 1159 1978 
L 1159 0 
L 581 0 
L 581 3500 
L 1159 3500 
L 1159 2956 
Q 1366 3272 1645 3428 
Q 1925 3584 2291 3584 
Q 2894 3584 3203 3211 
Q 3513 2838 3513 2113 
z
" transform="scale(0.015625)"/>
       <path id="DejaVuSans-20" transform="scale(0.015625)"/>
       <path id="DejaVuSans-66" d="M 2375 4863 
L 2375 4384 
L 1825 4384 
Q 1516 4384 1395 4259 
Q 1275 4134 1275 3809 
L 1275 3500 
L 2222 3500 
L 2222 3053 
L 1275 3053 
L 1275 0 
L 697 0 
L 697 3053 
L 147 3053 
L 147 3500 
L 697 3500 
L 697 3744 
Q 697 4328 969 4595 
Q 1241 4863 1831 4863 
L 2375 4863 
z
" transform="scale(0.015625)"/>
       <path id="DejaVuSans-65" d="M 3597 1894 
L 3597 1613 
L 953 1613 
Q 991 1019 1311 708 
Q 1631 397 2203 397 
Q 2534 397 2845 478 
Q 3156 559 3463 722 
L 3463 178 
Q 3153 47 2828 -22 
Q 2503 -91 2169 -91 
Q 1331 -91 842 396 
Q 353 884 353 1716 
Q 353 2575 817 3079 
Q 1281 3584 2069 3584 
Q 2775 3584 3186 3129 
Q 3597 2675 3597 1894 
z
M 3022 2063 
Q 3016 2534 2758 2815 
Q 2500 3097 2075 3097 
Q 1594 3097 1305 2825 
Q 1016 2553 972 2059 
L 3022 2063 
z
" transform="scale(0.015625)"/>
       <path id="DejaVuSans-6c" d="M 603 4863 
L 1178 4863 
L 1178 0 
L 603 0 
L 603 4863 
z
" transform="scale(0.015625)"/>
       <path id="DejaVuSans-73" d="M 2834 3397 
L 2834 2853 
Q 2591 2978 2328 3040 
Q 2066 3103 1784 3103 
Q 1356 3103 1142 2972 
Q 928 2841 928 2578 
Q 928 2378 1081 2264 
Q 1234 2150 1697 2047 
L 1894 2003 
Q 2506 1872 2764 1633 
Q 3022 1394 3022 966 
Q 3022 478 2636 193 
Q 2250 -91 1575 -91 
Q 1294 -91 989 -36 
Q 684 19 347 128 
L 347 722 
Q 666 556 975 473 
Q 1284 391 1588 391 
Q 1994 391 2212 530 
Q 2431 669 2431 922 
Q 2431 1156 2273 1281 
Q 2116 1406 1581 1522 
L 1381 1569 
Q 847 1681 609 1914 
Q 372 2147 372 2553 
Q 372 3047 722 3315 
Q 1072 3584 1716 3584 
Q 2034 3584 2315 3537 
Q 2597 3491 2834 3397 
z
" transform="scale(0.015625)"/>
      </defs>
      <use xlink:href="#DejaVuSans-46"/>
      <use xlink:href="#DejaVuSans-72" x="50.269531"/>
      <use xlink:href="#DejaVuSans-61" x="91.382812"/>
      <use xlink:href="#DejaVuSans-63" x="152.662109"/>
      <use xlink:href="#DejaVuSans-74" x="207.642578"/>
      <use xlink:href="#DejaVuSans-69" x="246.851562"/>
      <use xlink:href="#DejaVuSans-6f" x="274.634766"/>
      <use xlink:href="#DejaVuSans-6e" x="335.816406"/>
      <use xlink:href="#DejaVuSans-20" x="399.195312"/>
      <use xlink:href="#DejaVuSans-6f" x="430.982422"/>
      <use xlink:href="#DejaVuSans-66" x="492.164062"/>
      <use xlink:href="#DejaVuSans-20" x="527.369141"/>
      <use xlink:href="#DejaVuSans-63" x="559.15625"/>
      <use xlink:href="#DejaVuSans-65" x="614.136719"/>
      <use xlink:href="#DejaVuSans-6c" x="675.660156"/>
      <use xlink:href="#DejaVuSans-6c" x="703.443359"/>
      <use xlink:href="#DejaVuSans-73" x="731.226562"/>
     </g>
    </g>
   </g>
   <g id="line2d_14">
    <path d="M -1 260.521873 
L -0.335603 260.521872 
L 5.150585 260.521838 
L 10.636774 260.521446 
L 16.122962 260.517974 
L 21.609151 260.493631 
L 27.095339 260.358265 
L 32.581528 259.759158 
L 38.067716 257.644311 
L 43.553904 251.690831 
L 49.040093 238.375639 
L 54.526281 214.939755 
L 60.01247 183.125711 
L 65.498658 151.335715 
L 70.984847 131.201881 
L 76.471035 130.070897 
L 81.957224 146.473562 
L 87.443412 172.442126 
L 92.9296 198.95257 
L 98.415789 219.700274 
L 103.901977 232.498784 
L 109.388166 238.954683 
L 114.874354 242.433098 
L 120.360543 245.464565 
L 125.846731 248.653955 
L 131.33292 251.511528 
L 136.819108 253.673031 
L 142.305297 255.239567 
L 147.791485 256.461308 
L 153.277673 257.472603 
L 158.763862 258.241879 
L 164.25005 258.65333 
L 169.736239 258.709087 
L 175.222427 258.656209 
L 180.708616 258.807182 
L 186.194804 259.240606 
L 191.680993 259.769523 
L 197.167181 260.178419 
L 202.653369 260.400374 
L 208.139558 260.4886 
L 213.625746 260.514822 
L 219.111935 260.520718 
L 224.598123 260.521728 
L 230.084312 260.521861 
L 235.5705 260.521874 
L 241.056689 260.521869 
L 246.542877 260.521811 
L 252.029065 260.52132 
L 257.515254 260.518153 
L 263.001442 260.502567 
L 268.487631 260.444369 
L 273.973819 260.281122 
L 279.460008 259.943169 
L 284.946196 259.44543 
L 290.432385 258.972436 
L 295.918573 258.796015 
L 301.404761 259.034277 
L 306.89095 259.529642 
L 312.377138 260.009732 
L 317.863327 260.317317 
L 323.349515 260.45865 
" clip-path="url(#p069207fadd)" style="fill: none; stroke: #ff7f0e; stroke-width: 1.5; stroke-linecap: square"/>
   </g>
   <g id="line2d_15">
    <path d="M -1 260.51749 
L -0.335603 260.517075 
L 5.150585 260.506578 
L 10.636774 260.477317 
L 16.122962 260.403099 
L 21.609151 260.231701 
L 27.095339 259.870989 
L 32.581528 259.178412 
L 38.067716 257.963494 
L 43.553904 256.01308 
L 49.040093 253.142205 
L 54.526281 249.260732 
L 60.01247 244.433791 
L 65.498658 238.910622 
L 70.984847 233.104492 
L 76.471035 227.521437 
L 81.957224 222.65138 
L 87.443412 218.848808 
L 92.9296 216.240634 
L 98.415789 214.701016 
L 103.901977 213.91728 
L 109.388166 213.534704 
L 114.874354 213.323487 
L 120.360543 213.286305 
L 125.846731 213.643669 
L 131.33292 214.697043 
L 136.819108 216.642543 
L 142.305297 219.441595 
L 147.791485 222.821366 
L 153.277673 226.397592 
L 158.763862 229.840917 
L 164.25005 232.991704 
L 169.736239 235.870664 
L 175.222427 238.598336 
L 180.708616 241.282786 
L 186.194804 243.94035 
L 191.680993 246.484136 
L 197.167181 248.77235 
L 202.653369 250.678372 
L 208.139558 252.14158 
L 213.625746 253.179065 
L 219.111935 253.865925 
L 224.598123 254.306495 
L 230.084312 254.613507 
L 235.5705 254.896362 
L 241.056689 255.249629 
L 246.542877 255.73646 
L 252.029065 256.372479 
L 257.515254 257.121532 
L 263.001442 257.90953 
L 268.487631 258.65153 
L 273.973819 259.279474 
L 279.460008 259.758818 
L 284.946196 260.089753 
L 290.432385 260.296757 
L 295.918573 260.414199 
L 301.404761 260.474669 
L 306.89095 260.502933 
L 312.377138 260.514927 
L 317.863327 260.519548 
L 323.349515 260.521164 
" clip-path="url(#p069207fadd)" style="fill: none; stroke: #ff7f0e; stroke-width: 1.5; stroke-linecap: square"/>
   </g>
   <g id="line2d_16">
    <path d="M -1 260.520535 
L -0.335603 260.520384 
L 5.150585 260.514 
L 10.636774 260.485776 
L 16.122962 260.378138 
L 21.609151 260.02414 
L 27.095339 259.020804 
L 32.581528 256.572777 
L 38.067716 251.440896 
L 43.553904 242.227965 
L 49.040093 228.146181 
L 54.526281 210.017596 
L 60.01247 190.789128 
L 65.498658 174.852709 
L 70.984847 166.235306 
L 76.471035 166.712814 
L 81.957224 175.116349 
L 87.443412 188.225495 
L 92.9296 202.477105 
L 98.415789 215.311962 
L 103.901977 225.552242 
L 109.388166 233.04557 
L 114.874354 238.154963 
L 120.360543 241.43365 
L 125.846731 243.473911 
L 131.33292 244.813163 
L 136.819108 245.854833 
L 142.305297 246.828613 
L 147.791485 247.819078 
L 153.277673 248.849651 
L 158.763862 249.953945 
L 164.25005 251.171583 
L 169.736239 252.490564 
L 175.222427 253.818016 
L 180.708616 255.015785 
L 186.194804 255.964192 
L 191.680993 256.613924 
L 197.167181 257.015824 
L 202.653369 257.312245 
L 208.139558 257.668583 
L 213.625746 258.174332 
L 219.111935 258.792839 
L 224.598123 259.403611 
L 230.084312 259.893248 
L 235.5705 260.216322 
L 241.056689 260.393792 
L 246.542877 260.475632 
L 252.029065 260.507505 
L 257.515254 260.518032 
L 263.001442 260.520991 
L 268.487631 260.5217 
L 273.973819 260.521845 
L 279.460008 260.521871 
L 284.946196 260.521874 
L 290.432385 260.521875 
L 295.918573 260.521875 
L 301.404761 260.521875 
L 306.89095 260.521875 
L 312.377138 260.521875 
L 317.863327 260.521875 
L 323.349515 260.521875 
" clip-path="url(#p069207fadd)" style="fill: none; stroke: #ff7f0e; stroke-width: 1.5; stroke-linecap: square"/>
   </g>
   <g id="patch_63">
    <path d="M 57.615 260.521875 
L 57.615 57.594062 
" style="fill: none; stroke: #000000; stroke-width: 0.8; stroke-linejoin: miter; stroke-linecap: square"/>
   </g>
   <g id="patch_64">
    <path d="M 295.482812 260.521875 
L 295.482812 57.594062 
" style="fill: none; stroke: #000000; stroke-width: 0.8; stroke-linejoin: miter; stroke-linecap: square"/>
   </g>
   <g id="patch_65">
    <path d="M 57.615 260.521875 
L 295.482813 260.521875 
" style="fill: none; stroke: #000000; stroke-width: 0.8; stroke-linejoin: miter; stroke-linecap: square"/>
   </g>
   <g id="patch_66">
    <path d="M 57.615 57.594062 
L 295.482813 57.594062 
" style="fill: none; stroke: #000000; stroke-width: 0.8; stroke-linejoin: miter; stroke-linecap: square"/>
   </g>
   <g id="text_15">
    <!-- Cell line: dlm8 -->
    <g transform="translate(126.363281 51.594062) scale(0.14 -0.14)">
     <defs>
      <path id="DejaVuSans-43" d="M 4122 4306 
L 4122 3641 
Q 3803 3938 3442 4084 
Q 3081 4231 2675 4231 
Q 1875 4231 1450 3742 
Q 1025 3253 1025 2328 
Q 1025 1406 1450 917 
Q 1875 428 2675 428 
Q 3081 428 3442 575 
Q 3803 722 4122 1019 
L 4122 359 
Q 3791 134 3420 21 
Q 3050 -91 2638 -91 
Q 1578 -91 968 557 
Q 359 1206 359 2328 
Q 359 3453 968 4101 
Q 1578 4750 2638 4750 
Q 3056 4750 3426 4639 
Q 3797 4528 4122 4306 
z
" transform="scale(0.015625)"/>
      <path id="DejaVuSans-3a" d="M 750 794 
L 1409 794 
L 1409 0 
L 750 0 
L 750 794 
z
M 750 3309 
L 1409 3309 
L 1409 2516 
L 750 2516 
L 750 3309 
z
" transform="scale(0.015625)"/>
      <path id="DejaVuSans-64" d="M 2906 2969 
L 2906 4863 
L 3481 4863 
L 3481 0 
L 2906 0 
L 2906 525 
Q 2725 213 2448 61 
Q 2172 -91 1784 -91 
Q 1150 -91 751 415 
Q 353 922 353 1747 
Q 353 2572 751 3078 
Q 1150 3584 1784 3584 
Q 2172 3584 2448 3432 
Q 2725 3281 2906 2969 
z
M 947 1747 
Q 947 1113 1208 752 
Q 1469 391 1925 391 
Q 2381 391 2643 752 
Q 2906 1113 2906 1747 
Q 2906 2381 2643 2742 
Q 2381 3103 1925 3103 
Q 1469 3103 1208 2742 
Q 947 2381 947 1747 
z
" transform="scale(0.015625)"/>
      <path id="DejaVuSans-6d" d="M 3328 2828 
Q 3544 3216 3844 3400 
Q 4144 3584 4550 3584 
Q 5097 3584 5394 3201 
Q 5691 2819 5691 2113 
L 5691 0 
L 5113 0 
L 5113 2094 
Q 5113 2597 4934 2840 
Q 4756 3084 4391 3084 
Q 3944 3084 3684 2787 
Q 3425 2491 3425 1978 
L 3425 0 
L 2847 0 
L 2847 2094 
Q 2847 2600 2669 2842 
Q 2491 3084 2119 3084 
Q 1678 3084 1418 2786 
Q 1159 2488 1159 1978 
L 1159 0 
L 581 0 
L 581 3500 
L 1159 3500 
L 1159 2956 
Q 1356 3278 1631 3431 
Q 1906 3584 2284 3584 
Q 2666 3584 2933 3390 
Q 3200 3197 3328 2828 
z
" transform="scale(0.015625)"/>
     </defs>
     <use xlink:href="#DejaVuSans-43"/>
     <use xlink:href="#DejaVuSans-65" x="69.824219"/>
     <use xlink:href="#DejaVuSans-6c" x="131.347656"/>
     <use xlink:href="#DejaVuSans-6c" x="159.130859"/>
     <use xlink:href="#DejaVuSans-20" x="186.914062"/>
     <use xlink:href="#DejaVuSans-6c" x="218.701172"/>
     <use xlink:href="#DejaVuSans-69" x="246.484375"/>
     <use xlink:href="#DejaVuSans-6e" x="274.267578"/>
     <use xlink:href="#DejaVuSans-65" x="337.646484"/>
     <use xlink:href="#DejaVuSans-3a" x="399.169922"/>
     <use xlink:href="#DejaVuSans-20" x="432.861328"/>
     <use xlink:href="#DejaVuSans-64" x="464.648438"/>
     <use xlink:href="#DejaVuSans-6c" x="528.125"/>
     <use xlink:href="#DejaVuSans-6d" x="555.908203"/>
     <use xlink:href="#DejaVuSans-38" x="653.320312"/>
    </g>
   </g>
   <g id="legend_1">
    <g id="patch_67">
     <path d="M 207.093437 120.035312 
L 287.082812 120.035312 
Q 289.482812 120.035312 289.482812 117.635312 
L 289.482812 65.994062 
Q 289.482812 63.594062 287.082812 63.594062 
L 207.093437 63.594062 
Q 204.693437 63.594062 204.693437 65.994062 
L 204.693437 117.635312 
Q 204.693437 120.035312 207.093437 120.035312 
z
" style="fill: #ffffff; opacity: 0.8; stroke: #cccccc; stroke-linejoin: miter"/>
    </g>
    <g id="patch_68">
     <path d="M 209.493437 77.512187 
L 233.493437 77.512187 
L 233.493437 69.112187 
L 209.493437 69.112187 
z
" style="fill: #1f77b4; opacity: 0.4"/>
    </g>
    <g id="text_16">
     <!-- control -->
     <g transform="translate(243.093437 77.512187) scale(0.12 -0.12)">
      <use xlink:href="#DejaVuSans-63"/>
      <use xlink:href="#DejaVuSans-6f" x="54.980469"/>
      <use xlink:href="#DejaVuSans-6e" x="116.162109"/>
      <use xlink:href="#DejaVuSans-74" x="179.541016"/>
      <use xlink:href="#DejaVuSans-72" x="218.75"/>
      <use xlink:href="#DejaVuSans-6f" x="257.613281"/>
      <use xlink:href="#DejaVuSans-6c" x="318.794922"/>
     </g>
    </g>
    <g id="patch_69">
     <path d="M 209.493437 95.125937 
L 233.493437 95.125937 
L 233.493437 86.725937 
L 209.493437 86.725937 
z
" style="fill: #ff7f0e; opacity: 0.4"/>
    </g>
    <g id="text_17">
     <!-- cytd -->
     <g transform="translate(243.093437 95.125937) scale(0.12 -0.12)">
      <defs>
       <path id="DejaVuSans-79" d="M 2059 -325 
Q 1816 -950 1584 -1140 
Q 1353 -1331 966 -1331 
L 506 -1331 
L 506 -850 
L 844 -850 
Q 1081 -850 1212 -737 
Q 1344 -625 1503 -206 
L 1606 56 
L 191 3500 
L 800 3500 
L 1894 763 
L 2988 3500 
L 3597 3500 
L 2059 -325 
z
" transform="scale(0.015625)"/>
      </defs>
      <use xlink:href="#DejaVuSans-63"/>
      <use xlink:href="#DejaVuSans-79" x="54.980469"/>
      <use xlink:href="#DejaVuSans-74" x="114.160156"/>
      <use xlink:href="#DejaVuSans-64" x="153.369141"/>
     </g>
    </g>
    <g id="patch_70">
     <path d="M 209.493437 112.739687 
L 233.493437 112.739687 
L 233.493437 104.339687 
L 209.493437 104.339687 
z
" style="fill: #2ca02c; opacity: 0.4"/>
    </g>
    <g id="text_18">
     <!-- jasp -->
     <g transform="translate(243.093437 112.739687) scale(0.12 -0.12)">
      <defs>
       <path id="DejaVuSans-6a" d="M 603 3500 
L 1178 3500 
L 1178 -63 
Q 1178 -731 923 -1031 
Q 669 -1331 103 -1331 
L -116 -1331 
L -116 -844 
L 38 -844 
Q 366 -844 484 -692 
Q 603 -541 603 -63 
L 603 3500 
z
M 603 4863 
L 1178 4863 
L 1178 4134 
L 603 4134 
L 603 4863 
z
" transform="scale(0.015625)"/>
       <path id="DejaVuSans-70" d="M 1159 525 
L 1159 -1331 
L 581 -1331 
L 581 3500 
L 1159 3500 
L 1159 2969 
Q 1341 3281 1617 3432 
Q 1894 3584 2278 3584 
Q 2916 3584 3314 3078 
Q 3713 2572 3713 1747 
Q 3713 922 3314 415 
Q 2916 -91 2278 -91 
Q 1894 -91 1617 61 
Q 1341 213 1159 525 
z
M 3116 1747 
Q 3116 2381 2855 2742 
Q 2594 3103 2138 3103 
Q 1681 3103 1420 2742 
Q 1159 2381 1159 1747 
Q 1159 1113 1420 752 
Q 1681 391 2138 391 
Q 2594 391 2855 752 
Q 3116 1113 3116 1747 
z
" transform="scale(0.015625)"/>
      </defs>
      <use xlink:href="#DejaVuSans-6a"/>
      <use xlink:href="#DejaVuSans-61" x="27.783203"/>
      <use xlink:href="#DejaVuSans-73" x="89.0625"/>
      <use xlink:href="#DejaVuSans-70" x="141.162109"/>
     </g>
    </g>
   </g>
  </g>
  <g id="axes_2">
   <g id="patch_71">
    <path d="M 327.332187 260.521875 
L 565.2 260.521875 
L 565.2 57.594062 
L 327.332187 57.594062 
z
" style="fill: #ffffff"/>
   </g>
   <g id="patch_72">
    <path d="M 327.360252 260.521875 
L 337.010276 260.521875 
L 337.010276 151.862264 
L 327.360252 151.862264 
z
" clip-path="url(#pcce5bac8f3)" style="fill: #1f77b4; opacity: 0.4"/>
   </g>
   <g id="patch_73">
    <path d="M 337.010276 260.521875 
L 346.6603 260.521875 
L 346.6603 81.233517 
L 337.010276 81.233517 
z
" clip-path="url(#pcce5bac8f3)" style="fill: #1f77b4; opacity: 0.4"/>
   </g>
   <g id="patch_74">
    <path d="M 346.6603 260.521875 
L 356.310325 260.521875 
L 356.310325 151.862264 
L 346.6603 151.862264 
z
" clip-path="url(#pcce5bac8f3)" style="fill: #1f77b4; opacity: 0.4"/>
   </g>
   <g id="patch_75">
    <path d="M 356.310325 260.521875 
L 365.960349 260.521875 
L 365.960349 195.326109 
L 356.310325 195.326109 
z
" clip-path="url(#pcce5bac8f3)" style="fill: #1f77b4; opacity: 0.4"/>
   </g>
   <g id="patch_76">
    <path d="M 365.960349 260.521875 
L 375.610373 260.521875 
L 375.610373 230.640482 
L 365.960349 230.640482 
z
" clip-path="url(#pcce5bac8f3)" style="fill: #1f77b4; opacity: 0.4"/>
   </g>
   <g id="patch_77">
    <path d="M 375.610373 260.521875 
L 385.260398 260.521875 
L 385.260398 236.073463 
L 375.610373 236.073463 
z
" clip-path="url(#pcce5bac8f3)" style="fill: #1f77b4; opacity: 0.4"/>
   </g>
   <g id="patch_78">
    <path d="M 385.260398 260.521875 
L 394.910422 260.521875 
L 394.910422 246.939424 
L 385.260398 246.939424 
z
" clip-path="url(#pcce5bac8f3)" style="fill: #1f77b4; opacity: 0.4"/>
   </g>
   <g id="patch_79">
    <path d="M 394.910422 260.521875 
L 404.560446 260.521875 
L 404.560446 252.372404 
L 394.910422 252.372404 
z
" clip-path="url(#pcce5bac8f3)" style="fill: #1f77b4; opacity: 0.4"/>
   </g>
   <g id="patch_80">
    <path d="M 404.560446 260.521875 
L 414.210471 260.521875 
L 414.210471 257.805385 
L 404.560446 257.805385 
z
" clip-path="url(#pcce5bac8f3)" style="fill: #1f77b4; opacity: 0.4"/>
   </g>
   <g id="patch_81">
    <path d="M 414.210471 260.521875 
L 423.860495 260.521875 
L 423.860495 257.805385 
L 414.210471 257.805385 
z
" clip-path="url(#pcce5bac8f3)" style="fill: #1f77b4; opacity: 0.4"/>
   </g>
   <g id="patch_82">
    <path d="M 423.860495 260.521875 
L 433.510519 260.521875 
L 433.510519 257.805385 
L 423.860495 257.805385 
z
" clip-path="url(#pcce5bac8f3)" style="fill: #1f77b4; opacity: 0.4"/>
   </g>
   <g id="patch_83">
    <path d="M 433.510519 260.521875 
L 443.160544 260.521875 
L 443.160544 257.805385 
L 433.510519 257.805385 
z
" clip-path="url(#pcce5bac8f3)" style="fill: #1f77b4; opacity: 0.4"/>
   </g>
   <g id="patch_84">
    <path d="M 443.160544 260.521875 
L 452.810568 260.521875 
L 452.810568 257.805385 
L 443.160544 257.805385 
z
" clip-path="url(#pcce5bac8f3)" style="fill: #1f77b4; opacity: 0.4"/>
   </g>
   <g id="patch_85">
    <path d="M 452.810568 260.521875 
L 462.460592 260.521875 
L 462.460592 260.521875 
L 452.810568 260.521875 
z
" clip-path="url(#pcce5bac8f3)" style="fill: #1f77b4; opacity: 0.4"/>
   </g>
   <g id="patch_86">
    <path d="M 462.460592 260.521875 
L 472.110617 260.521875 
L 472.110617 260.521875 
L 462.460592 260.521875 
z
" clip-path="url(#pcce5bac8f3)" style="fill: #1f77b4; opacity: 0.4"/>
   </g>
   <g id="patch_87">
    <path d="M 472.110617 260.521875 
L 481.760641 260.521875 
L 481.760641 260.521875 
L 472.110617 260.521875 
z
" clip-path="url(#pcce5bac8f3)" style="fill: #1f77b4; opacity: 0.4"/>
   </g>
   <g id="patch_88">
    <path d="M 481.760641 260.521875 
L 491.410665 260.521875 
L 491.410665 260.521875 
L 481.760641 260.521875 
z
" clip-path="url(#pcce5bac8f3)" style="fill: #1f77b4; opacity: 0.4"/>
   </g>
   <g id="patch_89">
    <path d="M 491.410665 260.521875 
L 501.06069 260.521875 
L 501.06069 260.521875 
L 491.410665 260.521875 
z
" clip-path="url(#pcce5bac8f3)" style="fill: #1f77b4; opacity: 0.4"/>
   </g>
   <g id="patch_90">
    <path d="M 501.06069 260.521875 
L 510.710714 260.521875 
L 510.710714 260.521875 
L 501.06069 260.521875 
z
" clip-path="url(#pcce5bac8f3)" style="fill: #1f77b4; opacity: 0.4"/>
   </g>
   <g id="patch_91">
    <path d="M 510.710714 260.521875 
L 520.360738 260.521875 
L 520.360738 257.805385 
L 510.710714 257.805385 
z
" clip-path="url(#pcce5bac8f3)" style="fill: #1f77b4; opacity: 0.4"/>
   </g>
   <g id="patch_92">
    <path d="M 343.191353 260.521875 
L 351.956779 260.521875 
L 351.956779 240.841562 
L 343.191353 240.841562 
z
" clip-path="url(#pcce5bac8f3)" style="fill: #ff7f0e; opacity: 0.4"/>
   </g>
   <g id="patch_93">
    <path d="M 351.956779 260.521875 
L 360.722206 260.521875 
L 360.722206 221.16125 
L 351.956779 221.16125 
z
" clip-path="url(#pcce5bac8f3)" style="fill: #ff7f0e; opacity: 0.4"/>
   </g>
   <g id="patch_94">
    <path d="M 360.722206 260.521875 
L 369.487632 260.521875 
L 369.487632 214.601145 
L 360.722206 214.601145 
z
" clip-path="url(#pcce5bac8f3)" style="fill: #ff7f0e; opacity: 0.4"/>
   </g>
   <g id="patch_95">
    <path d="M 369.487632 260.521875 
L 378.253058 260.521875 
L 378.253058 221.16125 
L 369.487632 221.16125 
z
" clip-path="url(#pcce5bac8f3)" style="fill: #ff7f0e; opacity: 0.4"/>
   </g>
   <g id="patch_96">
    <path d="M 378.253058 260.521875 
L 387.018484 260.521875 
L 387.018484 201.480937 
L 378.253058 201.480937 
z
" clip-path="url(#pcce5bac8f3)" style="fill: #ff7f0e; opacity: 0.4"/>
   </g>
   <g id="patch_97">
    <path d="M 387.018484 260.521875 
L 395.783911 260.521875 
L 395.783911 227.721354 
L 387.018484 227.721354 
z
" clip-path="url(#pcce5bac8f3)" style="fill: #ff7f0e; opacity: 0.4"/>
   </g>
   <g id="patch_98">
    <path d="M 395.783911 260.521875 
L 404.549337 260.521875 
L 404.549337 208.041041 
L 395.783911 208.041041 
z
" clip-path="url(#pcce5bac8f3)" style="fill: #ff7f0e; opacity: 0.4"/>
   </g>
   <g id="patch_99">
    <path d="M 404.549337 260.521875 
L 413.314763 260.521875 
L 413.314763 208.041041 
L 404.549337 208.041041 
z
" clip-path="url(#pcce5bac8f3)" style="fill: #ff7f0e; opacity: 0.4"/>
   </g>
   <g id="patch_100">
    <path d="M 413.314763 260.521875 
L 422.080189 260.521875 
L 422.080189 214.601145 
L 413.314763 214.601145 
z
" clip-path="url(#pcce5bac8f3)" style="fill: #ff7f0e; opacity: 0.4"/>
   </g>
   <g id="patch_101">
    <path d="M 422.080189 260.521875 
L 430.845616 260.521875 
L 430.845616 181.800624 
L 422.080189 181.800624 
z
" clip-path="url(#pcce5bac8f3)" style="fill: #ff7f0e; opacity: 0.4"/>
   </g>
   <g id="patch_102">
    <path d="M 430.845616 260.521875 
L 439.611042 260.521875 
L 439.611042 221.16125 
L 430.845616 221.16125 
z
" clip-path="url(#pcce5bac8f3)" style="fill: #ff7f0e; opacity: 0.4"/>
   </g>
   <g id="patch_103">
    <path d="M 439.611042 260.521875 
L 448.376468 260.521875 
L 448.376468 247.401667 
L 439.611042 247.401667 
z
" clip-path="url(#pcce5bac8f3)" style="fill: #ff7f0e; opacity: 0.4"/>
   </g>
   <g id="patch_104">
    <path d="M 448.376468 260.521875 
L 457.141895 260.521875 
L 457.141895 214.601145 
L 448.376468 214.601145 
z
" clip-path="url(#pcce5bac8f3)" style="fill: #ff7f0e; opacity: 0.4"/>
   </g>
   <g id="patch_105">
    <path d="M 457.141895 260.521875 
L 465.907321 260.521875 
L 465.907321 253.961771 
L 457.141895 253.961771 
z
" clip-path="url(#pcce5bac8f3)" style="fill: #ff7f0e; opacity: 0.4"/>
   </g>
   <g id="patch_106">
    <path d="M 465.907321 260.521875 
L 474.672747 260.521875 
L 474.672747 247.401667 
L 465.907321 247.401667 
z
" clip-path="url(#pcce5bac8f3)" style="fill: #ff7f0e; opacity: 0.4"/>
   </g>
   <g id="patch_107">
    <path d="M 474.672747 260.521875 
L 483.438173 260.521875 
L 483.438173 253.961771 
L 474.672747 253.961771 
z
" clip-path="url(#pcce5bac8f3)" style="fill: #ff7f0e; opacity: 0.4"/>
   </g>
   <g id="patch_108">
    <path d="M 483.438173 260.521875 
L 492.2036 260.521875 
L 492.2036 253.961771 
L 483.438173 253.961771 
z
" clip-path="url(#pcce5bac8f3)" style="fill: #ff7f0e; opacity: 0.4"/>
   </g>
   <g id="patch_109">
    <path d="M 492.2036 260.521875 
L 500.969026 260.521875 
L 500.969026 260.521875 
L 492.2036 260.521875 
z
" clip-path="url(#pcce5bac8f3)" style="fill: #ff7f0e; opacity: 0.4"/>
   </g>
   <g id="patch_110">
    <path d="M 500.969026 260.521875 
L 509.734452 260.521875 
L 509.734452 253.961771 
L 500.969026 253.961771 
z
" clip-path="url(#pcce5bac8f3)" style="fill: #ff7f0e; opacity: 0.4"/>
   </g>
   <g id="patch_111">
    <path d="M 509.734452 260.521875 
L 518.499878 260.521875 
L 518.499878 253.961771 
L 509.734452 253.961771 
z
" clip-path="url(#pcce5bac8f3)" style="fill: #ff7f0e; opacity: 0.4"/>
   </g>
   <g id="patch_112">
    <path d="M 330.645069 260.521875 
L 336.853781 260.521875 
L 336.853781 242.388794 
L 330.645069 242.388794 
z
" clip-path="url(#pcce5bac8f3)" style="fill: #2ca02c; opacity: 0.4"/>
   </g>
   <g id="patch_113">
    <path d="M 336.853781 260.521875 
L 343.062493 260.521875 
L 343.062493 206.122632 
L 336.853781 206.122632 
z
" clip-path="url(#pcce5bac8f3)" style="fill: #2ca02c; opacity: 0.4"/>
   </g>
   <g id="patch_114">
    <path d="M 343.062493 260.521875 
L 349.271205 260.521875 
L 349.271205 151.723389 
L 343.062493 151.723389 
z
" clip-path="url(#pcce5bac8f3)" style="fill: #2ca02c; opacity: 0.4"/>
   </g>
   <g id="patch_115">
    <path d="M 349.271205 260.521875 
L 355.479917 260.521875 
L 355.479917 151.723389 
L 349.271205 151.723389 
z
" clip-path="url(#pcce5bac8f3)" style="fill: #2ca02c; opacity: 0.4"/>
   </g>
   <g id="patch_116">
    <path d="M 355.479917 260.521875 
L 361.688629 260.521875 
L 361.688629 160.789929 
L 355.479917 160.789929 
z
" clip-path="url(#pcce5bac8f3)" style="fill: #2ca02c; opacity: 0.4"/>
   </g>
   <g id="patch_117">
    <path d="M 361.688629 260.521875 
L 367.897341 260.521875 
L 367.897341 124.523767 
L 361.688629 124.523767 
z
" clip-path="url(#pcce5bac8f3)" style="fill: #2ca02c; opacity: 0.4"/>
   </g>
   <g id="patch_118">
    <path d="M 367.897341 260.521875 
L 374.106053 260.521875 
L 374.106053 160.789929 
L 367.897341 160.789929 
z
" clip-path="url(#pcce5bac8f3)" style="fill: #2ca02c; opacity: 0.4"/>
   </g>
   <g id="patch_119">
    <path d="M 374.106053 260.521875 
L 380.314765 260.521875 
L 380.314765 133.590308 
L 374.106053 133.590308 
z
" clip-path="url(#pcce5bac8f3)" style="fill: #2ca02c; opacity: 0.4"/>
   </g>
   <g id="patch_120">
    <path d="M 380.314765 260.521875 
L 386.523477 260.521875 
L 386.523477 242.388794 
L 380.314765 242.388794 
z
" clip-path="url(#pcce5bac8f3)" style="fill: #2ca02c; opacity: 0.4"/>
   </g>
   <g id="patch_121">
    <path d="M 386.523477 260.521875 
L 392.732189 260.521875 
L 392.732189 242.388794 
L 386.523477 242.388794 
z
" clip-path="url(#pcce5bac8f3)" style="fill: #2ca02c; opacity: 0.4"/>
   </g>
   <g id="patch_122">
    <path d="M 392.732189 260.521875 
L 398.940901 260.521875 
L 398.940901 242.388794 
L 392.732189 242.388794 
z
" clip-path="url(#pcce5bac8f3)" style="fill: #2ca02c; opacity: 0.4"/>
   </g>
   <g id="patch_123">
    <path d="M 398.940901 260.521875 
L 405.149613 260.521875 
L 405.149613 251.455334 
L 398.940901 251.455334 
z
" clip-path="url(#pcce5bac8f3)" style="fill: #2ca02c; opacity: 0.4"/>
   </g>
   <g id="patch_124">
    <path d="M 405.149613 260.521875 
L 411.358325 260.521875 
L 411.358325 242.388794 
L 405.149613 242.388794 
z
" clip-path="url(#pcce5bac8f3)" style="fill: #2ca02c; opacity: 0.4"/>
   </g>
   <g id="patch_125">
    <path d="M 411.358325 260.521875 
L 417.567037 260.521875 
L 417.567037 260.521875 
L 411.358325 260.521875 
z
" clip-path="url(#pcce5bac8f3)" style="fill: #2ca02c; opacity: 0.4"/>
   </g>
   <g id="patch_126">
    <path d="M 417.567037 260.521875 
L 423.775749 260.521875 
L 423.775749 251.455334 
L 417.567037 251.455334 
z
" clip-path="url(#pcce5bac8f3)" style="fill: #2ca02c; opacity: 0.4"/>
   </g>
   <g id="patch_127">
    <path d="M 423.775749 260.521875 
L 429.984461 260.521875 
L 429.984461 260.521875 
L 423.775749 260.521875 
z
" clip-path="url(#pcce5bac8f3)" style="fill: #2ca02c; opacity: 0.4"/>
   </g>
   <g id="patch_128">
    <path d="M 429.984461 260.521875 
L 436.193173 260.521875 
L 436.193173 251.455334 
L 429.984461 251.455334 
z
" clip-path="url(#pcce5bac8f3)" style="fill: #2ca02c; opacity: 0.4"/>
   </g>
   <g id="patch_129">
    <path d="M 436.193173 260.521875 
L 442.401885 260.521875 
L 442.401885 260.521875 
L 436.193173 260.521875 
z
" clip-path="url(#pcce5bac8f3)" style="fill: #2ca02c; opacity: 0.4"/>
   </g>
   <g id="patch_130">
    <path d="M 442.401885 260.521875 
L 448.610597 260.521875 
L 448.610597 260.521875 
L 442.401885 260.521875 
z
" clip-path="url(#pcce5bac8f3)" style="fill: #2ca02c; opacity: 0.4"/>
   </g>
   <g id="patch_131">
    <path d="M 448.610597 260.521875 
L 454.819309 260.521875 
L 454.819309 251.455334 
L 448.610597 251.455334 
z
" clip-path="url(#pcce5bac8f3)" style="fill: #2ca02c; opacity: 0.4"/>
   </g>
   <g id="matplotlib.axis_3">
    <g id="xtick_5">
     <g id="line2d_17">
      <g>
       <use xlink:href="#md64878b89b" x="375.81364" y="260.521875" style="stroke: #000000; stroke-width: 0.8"/>
      </g>
     </g>
     <g id="text_19">
      <!-- 0.6 -->
      <g transform="translate(367.862078 275.120313) scale(0.1 -0.1)">
       <use xlink:href="#DejaVuSans-30"/>
       <use xlink:href="#DejaVuSans-2e" x="63.623047"/>
       <use xlink:href="#DejaVuSans-36" x="95.410156"/>
      </g>
     </g>
    </g>
    <g id="xtick_6">
     <g id="line2d_18">
      <g>
       <use xlink:href="#md64878b89b" x="430.126906" y="260.521875" style="stroke: #000000; stroke-width: 0.8"/>
      </g>
     </g>
     <g id="text_20">
      <!-- 0.7 -->
      <g transform="translate(422.175343 275.120313) scale(0.1 -0.1)">
       <use xlink:href="#DejaVuSans-30"/>
       <use xlink:href="#DejaVuSans-2e" x="63.623047"/>
       <use xlink:href="#DejaVuSans-37" x="95.410156"/>
      </g>
     </g>
    </g>
    <g id="xtick_7">
     <g id="line2d_19">
      <g>
       <use xlink:href="#md64878b89b" x="484.440171" y="260.521875" style="stroke: #000000; stroke-width: 0.8"/>
      </g>
     </g>
     <g id="text_21">
      <!-- 0.8 -->
      <g transform="translate(476.488609 275.120313) scale(0.1 -0.1)">
       <use xlink:href="#DejaVuSans-30"/>
       <use xlink:href="#DejaVuSans-2e" x="63.623047"/>
       <use xlink:href="#DejaVuSans-38" x="95.410156"/>
      </g>
     </g>
    </g>
    <g id="xtick_8">
     <g id="line2d_20">
      <g>
       <use xlink:href="#md64878b89b" x="538.753437" y="260.521875" style="stroke: #000000; stroke-width: 0.8"/>
      </g>
     </g>
     <g id="text_22">
      <!-- 0.9 -->
      <g transform="translate(530.801875 275.120313) scale(0.1 -0.1)">
       <use xlink:href="#DejaVuSans-30"/>
       <use xlink:href="#DejaVuSans-2e" x="63.623047"/>
       <use xlink:href="#DejaVuSans-39" x="95.410156"/>
      </g>
     </g>
    </g>
   </g>
   <g id="matplotlib.axis_4">
    <g id="ytick_10">
     <g id="line2d_21">
      <g>
       <use xlink:href="#m3bee36cc15" x="327.332187" y="260.521875" style="stroke: #000000; stroke-width: 0.8"/>
      </g>
     </g>
    </g>
    <g id="ytick_11">
     <g id="line2d_22">
      <g>
       <use xlink:href="#m3bee36cc15" x="327.332187" y="235.906819" style="stroke: #000000; stroke-width: 0.8"/>
      </g>
     </g>
    </g>
    <g id="ytick_12">
     <g id="line2d_23">
      <g>
       <use xlink:href="#m3bee36cc15" x="327.332187" y="211.291764" style="stroke: #000000; stroke-width: 0.8"/>
      </g>
     </g>
    </g>
    <g id="ytick_13">
     <g id="line2d_24">
      <g>
       <use xlink:href="#m3bee36cc15" x="327.332187" y="186.676708" style="stroke: #000000; stroke-width: 0.8"/>
      </g>
     </g>
    </g>
    <g id="ytick_14">
     <g id="line2d_25">
      <g>
       <use xlink:href="#m3bee36cc15" x="327.332187" y="162.061652" style="stroke: #000000; stroke-width: 0.8"/>
      </g>
     </g>
    </g>
    <g id="ytick_15">
     <g id="line2d_26">
      <g>
       <use xlink:href="#m3bee36cc15" x="327.332187" y="137.446597" style="stroke: #000000; stroke-width: 0.8"/>
      </g>
     </g>
    </g>
    <g id="ytick_16">
     <g id="line2d_27">
      <g>
       <use xlink:href="#m3bee36cc15" x="327.332187" y="112.831541" style="stroke: #000000; stroke-width: 0.8"/>
      </g>
     </g>
    </g>
    <g id="ytick_17">
     <g id="line2d_28">
      <g>
       <use xlink:href="#m3bee36cc15" x="327.332187" y="88.216485" style="stroke: #000000; stroke-width: 0.8"/>
      </g>
     </g>
    </g>
    <g id="ytick_18">
     <g id="line2d_29">
      <g>
       <use xlink:href="#m3bee36cc15" x="327.332187" y="63.60143" style="stroke: #000000; stroke-width: 0.8"/>
      </g>
     </g>
    </g>
    <g id="text_23">
     <!-- Fraction of cells -->
     <g transform="translate(316.920625 213.889844) rotate(-90) scale(0.14 -0.14)">
      <use xlink:href="#DejaVuSans-46"/>
      <use xlink:href="#DejaVuSans-72" x="50.269531"/>
      <use xlink:href="#DejaVuSans-61" x="91.382812"/>
      <use xlink:href="#DejaVuSans-63" x="152.662109"/>
      <use xlink:href="#DejaVuSans-74" x="207.642578"/>
      <use xlink:href="#DejaVuSans-69" x="246.851562"/>
      <use xlink:href="#DejaVuSans-6f" x="274.634766"/>
      <use xlink:href="#DejaVuSans-6e" x="335.816406"/>
      <use xlink:href="#DejaVuSans-20" x="399.195312"/>
      <use xlink:href="#DejaVuSans-6f" x="430.982422"/>
      <use xlink:href="#DejaVuSans-66" x="492.164062"/>
      <use xlink:href="#DejaVuSans-20" x="527.369141"/>
      <use xlink:href="#DejaVuSans-63" x="559.15625"/>
      <use xlink:href="#DejaVuSans-65" x="614.136719"/>
      <use xlink:href="#DejaVuSans-6c" x="675.660156"/>
      <use xlink:href="#DejaVuSans-6c" x="703.443359"/>
      <use xlink:href="#DejaVuSans-73" x="731.226562"/>
     </g>
    </g>
   </g>
   <g id="line2d_30">
    <path d="M 49.934047 260.521875 
L 55.420235 260.521875 
L 60.906424 260.521875 
L 66.392612 260.521875 
L 71.8788 260.521875 
L 77.364989 260.521875 
L 82.851177 260.521875 
L 88.337366 260.521875 
L 93.823554 260.521875 
L 99.309743 260.521875 
L 104.795931 260.521875 
L 110.28212 260.521875 
L 115.768308 260.521875 
L 121.254496 260.521875 
L 126.740685 260.521875 
L 132.226873 260.521875 
L 137.713062 260.521875 
L 143.19925 260.521875 
L 148.685439 260.521875 
L 154.171627 260.521875 
L 159.657816 260.521875 
L 165.144004 260.521875 
L 170.630192 260.521875 
L 176.116381 260.521875 
L 181.602569 260.521875 
L 187.088758 260.521875 
L 192.574946 260.521875 
L 198.061135 260.521875 
L 203.547323 260.521875 
L 209.033512 260.521875 
L 214.5197 260.521875 
L 220.005888 260.521875 
L 225.492077 260.521875 
L 230.978265 260.521875 
L 236.464454 260.521875 
L 241.950642 260.521875 
L 247.436831 260.521875 
L 252.923019 260.521875 
L 258.409208 260.521875 
L 263.895396 260.521875 
L 269.381584 260.521875 
L 274.867773 260.521875 
L 280.353961 260.521875 
L 285.84015 260.52187 
L 291.326338 260.521712 
L 296.812527 260.518183 
L 302.298715 260.468105 
L 307.784904 260.012469 
L 313.271092 257.340123 
L 318.75728 247.175651 
L 324.243469 221.992044 
L 329.729657 181.52258 
L 335.215846 140.923592 
L 340.702034 120.317672 
L 346.188223 125.930279 
L 351.674411 148.537406 
L 357.1606 175.610297 
L 362.646788 198.899464 
L 368.132976 215.760709 
L 373.619165 227.122288 
L 379.105353 234.97009 
L 384.591542 241.070371 
L 390.07773 246.039754 
L 395.563919 249.911741 
L 401.050107 253.04878 
L 406.536296 255.783361 
L 412.022484 257.725157 
L 417.508672 258.341751 
L 422.994861 257.915446 
L 428.481049 257.2446 
L 433.967238 257.020906 
L 439.453426 257.457089 
L 444.939615 258.25249 
L 450.425803 259.127198 
L 455.911992 259.881844 
L 461.39818 260.323526 
L 466.884368 260.482509 
L 472.370557 260.516978 
L 477.856745 260.521495 
L 483.342934 260.521833 
L 488.829122 260.521394 
L 494.315311 260.51593 
L 499.801499 260.476321 
L 505.287688 260.305758 
L 510.773876 259.887073 
L 516.260064 259.367426 
L 521.746253 259.222011 
L 527.232441 259.615708 
L 532.71863 260.13076 
L 538.204818 260.417358 
L 543.691007 260.504582 
L 549.177195 260.520104 
L 554.663384 260.521763 
L 560.149572 260.521871 
L 565.63576 260.521875 
L 571.121949 260.521875 
L 576.608137 260.521875 
L 577 260.521875 
" clip-path="url(#pcce5bac8f3)" style="fill: none; stroke: #ff7f0e; stroke-width: 1.5; stroke-linecap: square"/>
   </g>
   <g id="line2d_31">
    <path d="M 49.934047 260.521875 
L 55.420235 260.521875 
L 60.906424 260.521875 
L 66.392612 260.521875 
L 71.8788 260.521875 
L 77.364989 260.521875 
L 82.851177 260.521875 
L 88.337366 260.521875 
L 93.823554 260.521875 
L 99.309743 260.521875 
L 104.795931 260.521875 
L 110.28212 260.521875 
L 115.768308 260.521875 
L 121.254496 260.521875 
L 126.740685 260.521875 
L 132.226873 260.521875 
L 137.713062 260.521875 
L 143.19925 260.521875 
L 148.685439 260.521875 
L 154.171627 260.521875 
L 159.657816 260.521875 
L 165.144004 260.521875 
L 170.630192 260.521875 
L 176.116381 260.521875 
L 181.602569 260.521875 
L 187.088758 260.521875 
L 192.574946 260.521875 
L 198.061135 260.521875 
L 203.547323 260.521875 
L 209.033512 260.521875 
L 214.5197 260.521875 
L 220.005888 260.521875 
L 225.492077 260.521875 
L 230.978265 260.521875 
L 236.464454 260.521875 
L 241.950642 260.521875 
L 247.436831 260.521875 
L 252.923019 260.521875 
L 258.409208 260.521875 
L 263.895396 260.521874 
L 269.381584 260.521866 
L 274.867773 260.521819 
L 280.353961 260.521575 
L 285.84015 260.52047 
L 291.326338 260.516054 
L 296.812527 260.50051 
L 302.298715 260.45221 
L 307.784904 260.319458 
L 313.271092 259.996023 
L 318.75728 259.29607 
L 324.243469 257.948204 
L 329.729657 255.63588 
L 335.215846 252.09995 
L 340.702034 247.281282 
L 346.188223 241.433768 
L 351.674411 235.122672 
L 357.1606 229.074385 
L 362.646788 223.938659 
L 368.132976 220.084303 
L 373.619165 217.519847 
L 379.105353 215.951263 
L 384.591542 214.935266 
L 390.07773 214.066698 
L 395.563919 213.118704 
L 401.050107 212.067475 
L 406.536296 211.026513 
L 412.022484 210.202746 
L 417.508672 209.924982 
L 422.994861 210.638826 
L 428.481049 212.746696 
L 433.967238 216.361784 
L 439.453426 221.194011 
L 444.939615 226.677472 
L 450.425803 232.21529 
L 455.911992 237.349049 
L 461.39818 241.799824 
L 466.884368 245.456248 
L 472.370557 248.360015 
L 477.856745 250.660729 
L 483.342934 252.521563 
L 488.829122 254.031367 
L 494.315311 255.1969 
L 499.801499 256.016558 
L 505.287688 256.558722 
L 510.773876 256.9689 
L 516.260064 257.401732 
L 521.746253 257.939579 
L 527.232441 258.561945 
L 532.71863 259.180078 
L 538.204818 259.701266 
L 543.691007 260.076199 
L 549.177195 260.307766 
L 554.663384 260.431144 
L 560.149572 260.488034 
L 565.63576 260.510784 
L 571.121949 260.518685 
L 576.608137 260.521071 
L 577 260.521116 
" clip-path="url(#pcce5bac8f3)" style="fill: none; stroke: #ff7f0e; stroke-width: 1.5; stroke-linecap: square"/>
   </g>
   <g id="line2d_32">
    <path d="M 49.934047 260.521875 
L 55.420235 260.521875 
L 60.906424 260.521875 
L 66.392612 260.521875 
L 71.8788 260.521875 
L 77.364989 260.521875 
L 82.851177 260.521875 
L 88.337366 260.521875 
L 93.823554 260.521875 
L 99.309743 260.521875 
L 104.795931 260.521875 
L 110.28212 260.521875 
L 115.768308 260.521875 
L 121.254496 260.521875 
L 126.740685 260.521875 
L 132.226873 260.521875 
L 137.713062 260.521875 
L 143.19925 260.521875 
L 148.685439 260.521875 
L 154.171627 260.521875 
L 159.657816 260.521875 
L 165.144004 260.521875 
L 170.630192 260.521875 
L 176.116381 260.521875 
L 181.602569 260.521875 
L 187.088758 260.521875 
L 192.574946 260.521875 
L 198.061135 260.521875 
L 203.547323 260.521875 
L 209.033512 260.521875 
L 214.5197 260.521875 
L 220.005888 260.521875 
L 225.492077 260.521875 
L 230.978265 260.521875 
L 236.464454 260.521875 
L 241.950642 260.521875 
L 247.436831 260.521875 
L 252.923019 260.521875 
L 258.409208 260.521875 
L 263.895396 260.521875 
L 269.381584 260.521875 
L 274.867773 260.521875 
L 280.353961 260.521875 
L 285.84015 260.521874 
L 291.326338 260.521834 
L 296.812527 260.521035 
L 302.298715 260.510788 
L 307.784904 260.425363 
L 313.271092 259.955554 
L 318.75728 258.189465 
L 324.243469 253.345723 
L 329.729657 242.848848 
L 335.215846 224.260027 
L 340.702034 198.596265 
L 346.188223 173.158534 
L 351.674411 156.139442 
L 357.1606 148.173222 
L 362.646788 145.744356 
L 368.132976 150.118778 
L 373.619165 165.5975 
L 379.105353 190.964681 
L 384.591542 217.004755 
L 390.07773 234.84093 
L 395.563919 243.435807 
L 401.050107 246.720096 
L 406.536296 248.575586 
L 412.022484 250.941449 
L 417.508672 253.547884 
L 422.994861 255.423701 
L 428.481049 256.391963 
L 433.967238 257.080347 
L 439.453426 257.858336 
L 444.939615 258.187278 
L 450.425803 257.850053 
L 455.911992 257.758668 
L 461.39818 258.532329 
L 466.884368 259.58865 
L 472.370557 260.240229 
L 477.856745 260.467305 
L 483.342934 260.51509 
L 488.829122 260.521334 
L 494.315311 260.521847 
L 499.801499 260.521874 
L 505.287688 260.521875 
L 510.773876 260.521875 
L 516.260064 260.521875 
L 521.746253 260.521875 
L 527.232441 260.521875 
L 532.71863 260.521875 
L 538.204818 260.521875 
L 543.691007 260.521875 
L 549.177195 260.521875 
L 554.663384 260.521875 
L 560.149572 260.521875 
L 565.63576 260.521875 
L 571.121949 260.521875 
L 576.608137 260.521875 
L 577 260.521875 
" clip-path="url(#pcce5bac8f3)" style="fill: none; stroke: #ff7f0e; stroke-width: 1.5; stroke-linecap: square"/>
   </g>
   <g id="patch_132">
    <path d="M 327.332187 260.521875 
L 327.332187 57.594062 
" style="fill: none; stroke: #000000; stroke-width: 0.8; stroke-linejoin: miter; stroke-linecap: square"/>
   </g>
   <g id="patch_133">
    <path d="M 565.2 260.521875 
L 565.2 57.594062 
" style="fill: none; stroke: #000000; stroke-width: 0.8; stroke-linejoin: miter; stroke-linecap: square"/>
   </g>
   <g id="patch_134">
    <path d="M 327.332187 260.521875 
L 565.2 260.521875 
" style="fill: none; stroke: #000000; stroke-width: 0.8; stroke-linejoin: miter; stroke-linecap: square"/>
   </g>
   <g id="patch_135">
    <path d="M 327.332187 57.594062 
L 565.2 57.594062 
" style="fill: none; stroke: #000000; stroke-width: 0.8; stroke-linejoin: miter; stroke-linecap: square"/>
   </g>
   <g id="text_24">
    <!-- Cell line: dunn -->
    <g transform="translate(395.988594 51.594062) scale(0.14 -0.14)">
     <defs>
      <path id="DejaVuSans-75" d="M 544 1381 
L 544 3500 
L 1119 3500 
L 1119 1403 
Q 1119 906 1312 657 
Q 1506 409 1894 409 
Q 2359 409 2629 706 
Q 2900 1003 2900 1516 
L 2900 3500 
L 3475 3500 
L 3475 0 
L 2900 0 
L 2900 538 
Q 2691 219 2414 64 
Q 2138 -91 1772 -91 
Q 1169 -91 856 284 
Q 544 659 544 1381 
z
M 1991 3584 
L 1991 3584 
z
" transform="scale(0.015625)"/>
     </defs>
     <use xlink:href="#DejaVuSans-43"/>
     <use xlink:href="#DejaVuSans-65" x="69.824219"/>
     <use xlink:href="#DejaVuSans-6c" x="131.347656"/>
     <use xlink:href="#DejaVuSans-6c" x="159.130859"/>
     <use xlink:href="#DejaVuSans-20" x="186.914062"/>
     <use xlink:href="#DejaVuSans-6c" x="218.701172"/>
     <use xlink:href="#DejaVuSans-69" x="246.484375"/>
     <use xlink:href="#DejaVuSans-6e" x="274.267578"/>
     <use xlink:href="#DejaVuSans-65" x="337.646484"/>
     <use xlink:href="#DejaVuSans-3a" x="399.169922"/>
     <use xlink:href="#DejaVuSans-20" x="432.861328"/>
     <use xlink:href="#DejaVuSans-64" x="464.648438"/>
     <use xlink:href="#DejaVuSans-75" x="528.125"/>
     <use xlink:href="#DejaVuSans-6e" x="591.503906"/>
     <use xlink:href="#DejaVuSans-6e" x="654.882812"/>
    </g>
   </g>
   <g id="legend_2">
    <g id="patch_136">
     <path d="M 476.810625 120.035312 
L 556.8 120.035312 
Q 559.2 120.035312 559.2 117.635312 
L 559.2 65.994062 
Q 559.2 63.594062 556.8 63.594062 
L 476.810625 63.594062 
Q 474.410625 63.594062 474.410625 65.994062 
L 474.410625 117.635312 
Q 474.410625 120.035312 476.810625 120.035312 
z
" style="fill: #ffffff; opacity: 0.8; stroke: #cccccc; stroke-linejoin: miter"/>
    </g>
    <g id="patch_137">
     <path d="M 479.210625 77.512187 
L 503.210625 77.512187 
L 503.210625 69.112187 
L 479.210625 69.112187 
z
" style="fill: #1f77b4; opacity: 0.4"/>
    </g>
    <g id="text_25">
     <!-- control -->
     <g transform="translate(512.810625 77.512187) scale(0.12 -0.12)">
      <use xlink:href="#DejaVuSans-63"/>
      <use xlink:href="#DejaVuSans-6f" x="54.980469"/>
      <use xlink:href="#DejaVuSans-6e" x="116.162109"/>
      <use xlink:href="#DejaVuSans-74" x="179.541016"/>
      <use xlink:href="#DejaVuSans-72" x="218.75"/>
      <use xlink:href="#DejaVuSans-6f" x="257.613281"/>
      <use xlink:href="#DejaVuSans-6c" x="318.794922"/>
     </g>
    </g>
    <g id="patch_138">
     <path d="M 479.210625 95.125937 
L 503.210625 95.125937 
L 503.210625 86.725937 
L 479.210625 86.725937 
z
" style="fill: #ff7f0e; opacity: 0.4"/>
    </g>
    <g id="text_26">
     <!-- cytd -->
     <g transform="translate(512.810625 95.125937) scale(0.12 -0.12)">
      <use xlink:href="#DejaVuSans-63"/>
      <use xlink:href="#DejaVuSans-79" x="54.980469"/>
      <use xlink:href="#DejaVuSans-74" x="114.160156"/>
      <use xlink:href="#DejaVuSans-64" x="153.369141"/>
     </g>
    </g>
    <g id="patch_139">
     <path d="M 479.210625 112.739687 
L 503.210625 112.739687 
L 503.210625 104.339687 
L 479.210625 104.339687 
z
" style="fill: #2ca02c; opacity: 0.4"/>
    </g>
    <g id="text_27">
     <!-- jasp -->
     <g transform="translate(512.810625 112.739687) scale(0.12 -0.12)">
      <use xlink:href="#DejaVuSans-6a"/>
      <use xlink:href="#DejaVuSans-61" x="27.783203"/>
      <use xlink:href="#DejaVuSans-73" x="89.0625"/>
      <use xlink:href="#DejaVuSans-70" x="141.162109"/>
     </g>
    </g>
   </g>
  </g>
  <g id="text_28">
   <!-- Histograms of linear distances to global mean cell -->
   <g transform="translate(37.054688 20.956875) scale(0.2 -0.2)">
    <defs>
     <path id="DejaVuSans-48" d="M 628 4666 
L 1259 4666 
L 1259 2753 
L 3553 2753 
L 3553 4666 
L 4184 4666 
L 4184 0 
L 3553 0 
L 3553 2222 
L 1259 2222 
L 1259 0 
L 628 0 
L 628 4666 
z
" transform="scale(0.015625)"/>
     <path id="DejaVuSans-67" d="M 2906 1791 
Q 2906 2416 2648 2759 
Q 2391 3103 1925 3103 
Q 1463 3103 1205 2759 
Q 947 2416 947 1791 
Q 947 1169 1205 825 
Q 1463 481 1925 481 
Q 2391 481 2648 825 
Q 2906 1169 2906 1791 
z
M 3481 434 
Q 3481 -459 3084 -895 
Q 2688 -1331 1869 -1331 
Q 1566 -1331 1297 -1286 
Q 1028 -1241 775 -1147 
L 775 -588 
Q 1028 -725 1275 -790 
Q 1522 -856 1778 -856 
Q 2344 -856 2625 -561 
Q 2906 -266 2906 331 
L 2906 616 
Q 2728 306 2450 153 
Q 2172 0 1784 0 
Q 1141 0 747 490 
Q 353 981 353 1791 
Q 353 2603 747 3093 
Q 1141 3584 1784 3584 
Q 2172 3584 2450 3431 
Q 2728 3278 2906 2969 
L 2906 3500 
L 3481 3500 
L 3481 434 
z
" transform="scale(0.015625)"/>
     <path id="DejaVuSans-62" d="M 3116 1747 
Q 3116 2381 2855 2742 
Q 2594 3103 2138 3103 
Q 1681 3103 1420 2742 
Q 1159 2381 1159 1747 
Q 1159 1113 1420 752 
Q 1681 391 2138 391 
Q 2594 391 2855 752 
Q 3116 1113 3116 1747 
z
M 1159 2969 
Q 1341 3281 1617 3432 
Q 1894 3584 2278 3584 
Q 2916 3584 3314 3078 
Q 3713 2572 3713 1747 
Q 3713 922 3314 415 
Q 2916 -91 2278 -91 
Q 1894 -91 1617 61 
Q 1341 213 1159 525 
L 1159 0 
L 581 0 
L 581 4863 
L 1159 4863 
L 1159 2969 
z
" transform="scale(0.015625)"/>
    </defs>
    <use xlink:href="#DejaVuSans-48"/>
    <use xlink:href="#DejaVuSans-69" x="75.195312"/>
    <use xlink:href="#DejaVuSans-73" x="102.978516"/>
    <use xlink:href="#DejaVuSans-74" x="155.078125"/>
    <use xlink:href="#DejaVuSans-6f" x="194.287109"/>
    <use xlink:href="#DejaVuSans-67" x="255.46875"/>
    <use xlink:href="#DejaVuSans-72" x="318.945312"/>
    <use xlink:href="#DejaVuSans-61" x="360.058594"/>
    <use xlink:href="#DejaVuSans-6d" x="421.337891"/>
    <use xlink:href="#DejaVuSans-73" x="518.75"/>
    <use xlink:href="#DejaVuSans-20" x="570.849609"/>
    <use xlink:href="#DejaVuSans-6f" x="602.636719"/>
    <use xlink:href="#DejaVuSans-66" x="663.818359"/>
    <use xlink:href="#DejaVuSans-20" x="699.023438"/>
    <use xlink:href="#DejaVuSans-6c" x="730.810547"/>
    <use xlink:href="#DejaVuSans-69" x="758.59375"/>
    <use xlink:href="#DejaVuSans-6e" x="786.376953"/>
    <use xlink:href="#DejaVuSans-65" x="849.755859"/>
    <use xlink:href="#DejaVuSans-61" x="911.279297"/>
    <use xlink:href="#DejaVuSans-72" x="972.558594"/>
    <use xlink:href="#DejaVuSans-20" x="1013.671875"/>
    <use xlink:href="#DejaVuSans-64" x="1045.458984"/>
    <use xlink:href="#DejaVuSans-69" x="1108.935547"/>
    <use xlink:href="#DejaVuSans-73" x="1136.71875"/>
    <use xlink:href="#DejaVuSans-74" x="1188.818359"/>
    <use xlink:href="#DejaVuSans-61" x="1228.027344"/>
    <use xlink:href="#DejaVuSans-6e" x="1289.306641"/>
    <use xlink:href="#DejaVuSans-63" x="1352.685547"/>
    <use xlink:href="#DejaVuSans-65" x="1407.666016"/>
    <use xlink:href="#DejaVuSans-73" x="1469.189453"/>
    <use xlink:href="#DejaVuSans-20" x="1521.289062"/>
    <use xlink:href="#DejaVuSans-74" x="1553.076172"/>
    <use xlink:href="#DejaVuSans-6f" x="1592.285156"/>
    <use xlink:href="#DejaVuSans-20" x="1653.466797"/>
    <use xlink:href="#DejaVuSans-67" x="1685.253906"/>
    <use xlink:href="#DejaVuSans-6c" x="1748.730469"/>
    <use xlink:href="#DejaVuSans-6f" x="1776.513672"/>
    <use xlink:href="#DejaVuSans-62" x="1837.695312"/>
    <use xlink:href="#DejaVuSans-61" x="1901.171875"/>
    <use xlink:href="#DejaVuSans-6c" x="1962.451172"/>
    <use xlink:href="#DejaVuSans-20" x="1990.234375"/>
    <use xlink:href="#DejaVuSans-6d" x="2022.021484"/>
    <use xlink:href="#DejaVuSans-65" x="2119.433594"/>
    <use xlink:href="#DejaVuSans-61" x="2180.957031"/>
    <use xlink:href="#DejaVuSans-6e" x="2242.236328"/>
    <use xlink:href="#DejaVuSans-20" x="2305.615234"/>
    <use xlink:href="#DejaVuSans-63" x="2337.402344"/>
    <use xlink:href="#DejaVuSans-65" x="2392.382812"/>
    <use xlink:href="#DejaVuSans-6c" x="2453.90625"/>
    <use xlink:href="#DejaVuSans-6c" x="2481.689453"/>
   </g>
  </g>
 </g>
 <defs>
  <clipPath id="p069207fadd">
   <rect x="57.615" y="57.594062" width="237.867812" height="202.927813"/>
  </clipPath>
  <clipPath id="pcce5bac8f3">
   <rect x="327.332187" y="57.594062" width="237.867812" height="202.927813"/>
  </clipPath>
 </defs>
</svg>
