<?xml version="1.0" encoding="utf-8" standalone="no"?>
<!DOCTYPE svg PUBLIC "-//W3C//DTD SVG 1.1//EN"
  "http://www.w3.org/Graphics/SVG/1.1/DTD/svg11.dtd">
<svg xmlns:xlink="http://www.w3.org/1999/xlink" width="504pt" height="432pt" viewBox="0 0 504 432" xmlns="http://www.w3.org/2000/svg" version="1.1">
 <metadata>
  <rdf:RDF xmlns:dc="http://purl.org/dc/elements/1.1/" xmlns:cc="http://creativecommons.org/ns#" xmlns:rdf="http://www.w3.org/1999/02/22-rdf-syntax-ns#">
   <cc:Work>
    <dc:type rdf:resource="http://purl.org/dc/dcmitype/StillImage"/>
    <dc:date>2023-12-18T02:56:17.785347</dc:date>
    <dc:format>image/svg+xml</dc:format>
    <dc:creator>
     <cc:Agent>
      <dc:title>Matplotlib v3.6.2, https://matplotlib.org/</dc:title>
     </cc:Agent>
    </dc:creator>
   </cc:Work>
  </rdf:RDF>
 </metadata>
 <defs>
  <style type="text/css">*{stroke-linejoin: round; stroke-linecap: butt}</style>
 </defs>
 <g id="figure_1">
  <g id="patch_1">
   <path d="M 0 432 
L 504 432 
L 504 0 
L 0 0 
z
" style="fill: #ffffff"/>
  </g>
  <g id="axes_1">
   <g id="line2d_1">
    <path d="M 163.483657 56.287059 
L 162.358464 56.342439 
L 161.109863 56.62828 
L 160.003857 56.724523 
L 156.750593 57.283359 
L 154.698643 57.740237 
L 152.636331 58.36558 
L 151.422434 58.735268 
L 149.365937 59.886997 
L 146.402508 61.757212 
L 145.448892 62.305704 
L 142.246101 64.646564 
L 140.111417 66.619235 
L 139.078239 67.726626 
L 135.545517 71.035803 
L 133.383337 73.339723 
L 132.288771 74.617385 
L 128.637738 79.71835 
L 126.195891 83.254986 
L 119.787016 94.07297 
L 118.41908 96.847868 
L 115.899076 103.926427 
L 114.381171 110.466596 
L 113.935684 113.020654 
L 113.433904 115.314908 
L 113.025843 117.580215 
L 112.842113 118.590864 
L 112.935992 120.590114 
L 112.97357 121.754242 
L 113.489261 125.409742 
L 113.932427 127.318597 
L 115.31911 131.257094 
L 117.174663 133.895106 
L 119.219593 136.51944 
L 122.493459 139.085914 
L 128.563083 142.520754 
L 129.543738 143.022495 
L 131.728469 143.787388 
L 139.97646 145.153014 
L 142.346808 145.184202 
L 147.264288 145.164572 
L 152.269143 144.448369 
L 154.533606 143.867466 
L 159.52439 142.277656 
L 163.205888 140.715661 
L 164.257199 140.085952 
L 166.723896 138.824242 
L 168.991961 137.500778 
L 171.267524 135.872111 
L 173.412551 134.144932 
L 175.696894 132.481987 
L 176.594917 131.647266 
L 178.121459 129.869091 
L 180.759944 126.349466 
L 183.85902 122.303146 
L 185.76515 119.083205 
L 186.913704 116.523544 
L 188.865089 111.300472 
L 190.116765 106.491544 
L 190.493541 102.90056 
L 190.703342 97.854189 
L 190.623909 93.643116 
L 190.355699 90.876713 
L 190.06855 88.057514 
L 188.210163 79.872502 
L 187.225078 77.104759 
L 184.520436 72.112689 
L 183.77866 70.878099 
L 182.480719 68.361264 
L 179.805356 64.954596 
L 178.852561 63.942437 
L 176.80719 62.180646 
L 171.974595 58.86152 
L 166.726346 57.005559 
L 164.558264 56.426757 
L 164.558264 56.426757 
" clip-path="url(#p2ca7f47644)" style="fill: none; stroke: #1f77b4; stroke-width: 1.5; stroke-linecap: square"/>
   </g>
   <g id="text_1">
    <!-- control - dlm8 -->
    <g transform="translate(81.921165 45.84) scale(0.2 -0.2)">
     <defs>
      <path id="DejaVuSans-63" d="M 3122 3366 
L 3122 2828 
Q 2878 2963 2633 3030 
Q 2388 3097 2138 3097 
Q 1578 3097 1268 2742 
Q 959 2388 959 1747 
Q 959 1106 1268 751 
Q 1578 397 2138 397 
Q 2388 397 2633 464 
Q 2878 531 3122 666 
L 3122 134 
Q 2881 22 2623 -34 
Q 2366 -91 2075 -91 
Q 1284 -91 818 406 
Q 353 903 353 1747 
Q 353 2603 823 3093 
Q 1294 3584 2113 3584 
Q 2378 3584 2631 3529 
Q 2884 3475 3122 3366 
z
" transform="scale(0.015625)"/>
      <path id="DejaVuSans-6f" d="M 1959 3097 
Q 1497 3097 1228 2736 
Q 959 2375 959 1747 
Q 959 1119 1226 758 
Q 1494 397 1959 397 
Q 2419 397 2687 759 
Q 2956 1122 2956 1747 
Q 2956 2369 2687 2733 
Q 2419 3097 1959 3097 
z
M 1959 3584 
Q 2709 3584 3137 3096 
Q 3566 2609 3566 1747 
Q 3566 888 3137 398 
Q 2709 -91 1959 -91 
Q 1206 -91 779 398 
Q 353 888 353 1747 
Q 353 2609 779 3096 
Q 1206 3584 1959 3584 
z
" transform="scale(0.015625)"/>
      <path id="DejaVuSans-6e" d="M 3513 2113 
L 3513 0 
L 2938 0 
L 2938 2094 
Q 2938 2591 2744 2837 
Q 2550 3084 2163 3084 
Q 1697 3084 1428 2787 
Q 1159 2491 1159 1978 
L 1159 0 
L 581 0 
L 581 3500 
L 1159 3500 
L 1159 2956 
Q 1366 3272 1645 3428 
Q 1925 3584 2291 3584 
Q 2894 3584 3203 3211 
Q 3513 2838 3513 2113 
z
" transform="scale(0.015625)"/>
      <path id="DejaVuSans-74" d="M 1172 4494 
L 1172 3500 
L 2356 3500 
L 2356 3053 
L 1172 3053 
L 1172 1153 
Q 1172 725 1289 603 
Q 1406 481 1766 481 
L 2356 481 
L 2356 0 
L 1766 0 
Q 1100 0 847 248 
Q 594 497 594 1153 
L 594 3053 
L 172 3053 
L 172 3500 
L 594 3500 
L 594 4494 
L 1172 4494 
z
" transform="scale(0.015625)"/>
      <path id="DejaVuSans-72" d="M 2631 2963 
Q 2534 3019 2420 3045 
Q 2306 3072 2169 3072 
Q 1681 3072 1420 2755 
Q 1159 2438 1159 1844 
L 1159 0 
L 581 0 
L 581 3500 
L 1159 3500 
L 1159 2956 
Q 1341 3275 1631 3429 
Q 1922 3584 2338 3584 
Q 2397 3584 2469 3576 
Q 2541 3569 2628 3553 
L 2631 2963 
z
" transform="scale(0.015625)"/>
      <path id="DejaVuSans-6c" d="M 603 4863 
L 1178 4863 
L 1178 0 
L 603 0 
L 603 4863 
z
" transform="scale(0.015625)"/>
      <path id="DejaVuSans-20" transform="scale(0.015625)"/>
      <path id="DejaVuSans-2d" d="M 313 2009 
L 1997 2009 
L 1997 1497 
L 313 1497 
L 313 2009 
z
" transform="scale(0.015625)"/>
      <path id="DejaVuSans-64" d="M 2906 2969 
L 2906 4863 
L 3481 4863 
L 3481 0 
L 2906 0 
L 2906 525 
Q 2725 213 2448 61 
Q 2172 -91 1784 -91 
Q 1150 -91 751 415 
Q 353 922 353 1747 
Q 353 2572 751 3078 
Q 1150 3584 1784 3584 
Q 2172 3584 2448 3432 
Q 2725 3281 2906 2969 
z
M 947 1747 
Q 947 1113 1208 752 
Q 1469 391 1925 391 
Q 2381 391 2643 752 
Q 2906 1113 2906 1747 
Q 2906 2381 2643 2742 
Q 2381 3103 1925 3103 
Q 1469 3103 1208 2742 
Q 947 2381 947 1747 
z
" transform="scale(0.015625)"/>
      <path id="DejaVuSans-6d" d="M 3328 2828 
Q 3544 3216 3844 3400 
Q 4144 3584 4550 3584 
Q 5097 3584 5394 3201 
Q 5691 2819 5691 2113 
L 5691 0 
L 5113 0 
L 5113 2094 
Q 5113 2597 4934 2840 
Q 4756 3084 4391 3084 
Q 3944 3084 3684 2787 
Q 3425 2491 3425 1978 
L 3425 0 
L 2847 0 
L 2847 2094 
Q 2847 2600 2669 2842 
Q 2491 3084 2119 3084 
Q 1678 3084 1418 2786 
Q 1159 2488 1159 1978 
L 1159 0 
L 581 0 
L 581 3500 
L 1159 3500 
L 1159 2956 
Q 1356 3278 1631 3431 
Q 1906 3584 2284 3584 
Q 2666 3584 2933 3390 
Q 3200 3197 3328 2828 
z
" transform="scale(0.015625)"/>
      <path id="DejaVuSans-38" d="M 2034 2216 
Q 1584 2216 1326 1975 
Q 1069 1734 1069 1313 
Q 1069 891 1326 650 
Q 1584 409 2034 409 
Q 2484 409 2743 651 
Q 3003 894 3003 1313 
Q 3003 1734 2745 1975 
Q 2488 2216 2034 2216 
z
M 1403 2484 
Q 997 2584 770 2862 
Q 544 3141 544 3541 
Q 544 4100 942 4425 
Q 1341 4750 2034 4750 
Q 2731 4750 3128 4425 
Q 3525 4100 3525 3541 
Q 3525 3141 3298 2862 
Q 3072 2584 2669 2484 
Q 3125 2378 3379 2068 
Q 3634 1759 3634 1313 
Q 3634 634 3220 271 
Q 2806 -91 2034 -91 
Q 1263 -91 848 271 
Q 434 634 434 1313 
Q 434 1759 690 2068 
Q 947 2378 1403 2484 
z
M 1172 3481 
Q 1172 3119 1398 2916 
Q 1625 2713 2034 2713 
Q 2441 2713 2670 2916 
Q 2900 3119 2900 3481 
Q 2900 3844 2670 4047 
Q 2441 4250 2034 4250 
Q 1625 4250 1398 4047 
Q 1172 3844 1172 3481 
z
" transform="scale(0.015625)"/>
     </defs>
     <use xlink:href="#DejaVuSans-63"/>
     <use xlink:href="#DejaVuSans-6f" x="54.980469"/>
     <use xlink:href="#DejaVuSans-6e" x="116.162109"/>
     <use xlink:href="#DejaVuSans-74" x="179.541016"/>
     <use xlink:href="#DejaVuSans-72" x="218.75"/>
     <use xlink:href="#DejaVuSans-6f" x="257.613281"/>
     <use xlink:href="#DejaVuSans-6c" x="318.794922"/>
     <use xlink:href="#DejaVuSans-20" x="346.578125"/>
     <use xlink:href="#DejaVuSans-2d" x="378.365234"/>
     <use xlink:href="#DejaVuSans-20" x="414.449219"/>
     <use xlink:href="#DejaVuSans-64" x="446.236328"/>
     <use xlink:href="#DejaVuSans-6c" x="509.712891"/>
     <use xlink:href="#DejaVuSans-6d" x="537.496094"/>
     <use xlink:href="#DejaVuSans-38" x="634.908203"/>
    </g>
   </g>
  </g>
  <g id="axes_2">
   <g id="line2d_2">
    <path d="M 375.499508 56.287059 
L 370.966149 56.709357 
L 366.688687 58.083327 
L 363.442194 59.675495 
L 359.378946 62.305639 
L 357.354764 64.149541 
L 352.289862 68.808821 
L 351.291169 69.635255 
L 348.485402 73.006841 
L 341.002591 83.094538 
L 340.015784 84.529366 
L 337.742572 88.507123 
L 336.9133 89.758644 
L 332.527281 97.86831 
L 330.553155 102.404976 
L 328.912786 105.872381 
L 327.411735 110.755884 
L 326.996383 111.828621 
L 326.512579 114.190007 
L 326.050356 117.640076 
L 325.961466 122.060507 
L 326.152165 124.318847 
L 327.578621 128.89743 
L 328.021812 129.779758 
L 330.221499 132.088482 
L 332.58184 134.353169 
L 334.349543 135.965402 
L 336.106339 137.318974 
L 342.328438 141.460981 
L 344.598803 142.572209 
L 347.886207 143.762711 
L 348.948721 144.211245 
L 351.152297 144.742692 
L 352.28626 145.015486 
L 354.645924 145.228235 
L 359.677135 145.059806 
L 370.204204 142.924225 
L 372.54944 142.072698 
L 373.633589 141.669111 
L 377.114415 139.900778 
L 380.537893 138.022661 
L 385.270994 135.627475 
L 390.055356 132.122677 
L 391.018479 131.35527 
L 393.88177 128.459067 
L 395.478493 126.359267 
L 396.248649 125.589703 
L 398.337891 122.550149 
L 399.488895 120.223916 
L 401.1719 115.63467 
L 403.076423 108.056389 
L 403.431868 104.102399 
L 403.6824 100.396533 
L 403.483024 88.74929 
L 403.162575 86.292021 
L 402.265238 82.399728 
L 400.742117 78.655338 
L 398.70118 75.160673 
L 394.254095 68.381153 
L 393.40353 67.250076 
L 389.777357 63.307098 
L 388.054768 61.749002 
L 386.150354 60.181921 
L 384.248968 58.975897 
L 381.965277 57.884866 
L 379.425845 56.911551 
L 376.843195 56.318655 
L 376.843195 56.318655 
" clip-path="url(#pae07f8925f)" style="fill: none; stroke: #1f77b4; stroke-width: 1.5; stroke-linecap: square"/>
   </g>
   <g id="text_2">
    <!-- control - dunn -->
    <g transform="translate(294.84446 45.84) scale(0.2 -0.2)">
     <defs>
      <path id="DejaVuSans-75" d="M 544 1381 
L 544 3500 
L 1119 3500 
L 1119 1403 
Q 1119 906 1312 657 
Q 1506 409 1894 409 
Q 2359 409 2629 706 
Q 2900 1003 2900 1516 
L 2900 3500 
L 3475 3500 
L 3475 0 
L 2900 0 
L 2900 538 
Q 2691 219 2414 64 
Q 2138 -91 1772 -91 
Q 1169 -91 856 284 
Q 544 659 544 1381 
z
M 1991 3584 
L 1991 3584 
z
" transform="scale(0.015625)"/>
     </defs>
     <use xlink:href="#DejaVuSans-63"/>
     <use xlink:href="#DejaVuSans-6f" x="54.980469"/>
     <use xlink:href="#DejaVuSans-6e" x="116.162109"/>
     <use xlink:href="#DejaVuSans-74" x="179.541016"/>
     <use xlink:href="#DejaVuSans-72" x="218.75"/>
     <use xlink:href="#DejaVuSans-6f" x="257.613281"/>
     <use xlink:href="#DejaVuSans-6c" x="318.794922"/>
     <use xlink:href="#DejaVuSans-20" x="346.578125"/>
     <use xlink:href="#DejaVuSans-2d" x="378.365234"/>
     <use xlink:href="#DejaVuSans-20" x="414.449219"/>
     <use xlink:href="#DejaVuSans-64" x="446.236328"/>
     <use xlink:href="#DejaVuSans-75" x="509.712891"/>
     <use xlink:href="#DejaVuSans-6e" x="573.091797"/>
     <use xlink:href="#DejaVuSans-6e" x="636.470703"/>
    </g>
   </g>
  </g>
  <g id="axes_3">
   <g id="line2d_3">
    <path d="M 170.277039 173.736724 
L 169.31951 174.13815 
L 168.194712 174.859678 
L 167.175775 175.294913 
L 165.179818 176.550028 
L 163.228501 178.320252 
L 162.374846 179.313856 
L 160.781229 181.812083 
L 159.447591 184.641967 
L 158.630473 185.697717 
L 155.445931 188.877305 
L 147.822303 195.324929 
L 147.02828 196.377083 
L 146.495872 197.609678 
L 143.219494 203.503465 
L 142.338382 204.53458 
L 140.253447 206.527801 
L 138.987925 207.426058 
L 137.436162 209.936497 
L 136.983007 211.24296 
L 135.14996 213.988004 
L 131.866446 219.073381 
L 131.07565 220.659353 
L 128.382522 228.391166 
L 126.139517 233.210347 
L 124.616186 235.893752 
L 123.336911 238.747769 
L 122.884943 240.285848 
L 121.508038 243.206961 
L 119.742881 246.093993 
L 118.714009 247.185618 
L 118.131463 248.265383 
L 117.443352 249.148227 
L 115.985111 251.77302 
L 116.073475 252.432267 
L 116.325299 253.033329 
L 116.513279 253.901959 
L 117.112703 255.075049 
L 117.393736 255.605348 
L 118.113454 256.036817 
L 118.593104 256.466361 
L 120.225445 256.627648 
L 121.325346 256.684302 
L 122.206101 256.880497 
L 122.936279 257.538909 
L 124.413688 258.113994 
L 125.841829 259.269666 
L 127.734973 260.13402 
L 128.725621 260.286884 
L 131.573187 261.484723 
L 133.02189 261.773979 
L 134.545463 261.936296 
L 135.622216 261.887005 
L 137.594512 262.290026 
L 138.464595 262.280877 
L 141.504948 262.616468 
L 142.430961 262.630588 
L 147.36789 261.683783 
L 148.387648 261.705684 
L 151.829132 261.540145 
L 153.892677 261.780499 
L 155.205518 261.731346 
L 157.357536 261.299632 
L 158.304185 260.895724 
L 160.11534 259.779378 
L 160.957026 259.003117 
L 161.664539 257.960278 
L 163.752049 256.43598 
L 165.691729 254.675162 
L 168.817803 252.868881 
L 173.587196 250.189987 
L 174.728064 249.25854 
L 176.100006 247.148539 
L 179.864597 242.856456 
L 180.922192 240.810174 
L 181.564118 239.788724 
L 182.562958 237.459897 
L 182.853035 236.478027 
L 183.724752 235.386488 
L 184.845899 233.082497 
L 185.248034 231.843643 
L 185.441683 230.473223 
L 185.783928 229.30191 
L 185.956513 226.812175 
L 187.172796 223.999358 
L 187.560343 222.829882 
L 187.434653 220.958755 
L 187.356 219.883213 
L 187.375395 217.372181 
L 186.614902 211.63639 
L 186.263083 210.486905 
L 185.803174 209.508175 
L 185.58498 208.482034 
L 185.195836 207.259072 
L 184.896486 205.849828 
L 184.960976 202.716988 
L 185.298385 199.004212 
L 185.049335 197.396965 
L 184.687659 196.45944 
L 184.376292 195.27307 
L 183.126447 191.941756 
L 182.478598 190.769653 
L 181.796911 188.491609 
L 181.481746 187.05917 
L 180.999053 185.747983 
L 180.412685 184.620357 
L 178.473992 181.866041 
L 177.959337 180.670764 
L 177.065168 177.818224 
L 176.017583 175.709236 
L 174.802046 174.238787 
L 174.344055 173.881337 
L 171.925045 173.689412 
L 171.180492 173.780575 
L 171.180492 173.780575 
" clip-path="url(#p3c0daa5411)" style="fill: none; stroke: #ff7f0e; stroke-width: 1.5; stroke-linecap: square"/>
   </g>
   <g id="text_3">
    <!-- cytd - dlm8 -->
    <g transform="translate(94.89304 163.242353) scale(0.2 -0.2)">
     <defs>
      <path id="DejaVuSans-79" d="M 2059 -325 
Q 1816 -950 1584 -1140 
Q 1353 -1331 966 -1331 
L 506 -1331 
L 506 -850 
L 844 -850 
Q 1081 -850 1212 -737 
Q 1344 -625 1503 -206 
L 1606 56 
L 191 3500 
L 800 3500 
L 1894 763 
L 2988 3500 
L 3597 3500 
L 2059 -325 
z
" transform="scale(0.015625)"/>
     </defs>
     <use xlink:href="#DejaVuSans-63"/>
     <use xlink:href="#DejaVuSans-79" x="54.980469"/>
     <use xlink:href="#DejaVuSans-74" x="114.160156"/>
     <use xlink:href="#DejaVuSans-64" x="153.369141"/>
     <use xlink:href="#DejaVuSans-20" x="216.845703"/>
     <use xlink:href="#DejaVuSans-2d" x="248.632812"/>
     <use xlink:href="#DejaVuSans-20" x="284.716797"/>
     <use xlink:href="#DejaVuSans-64" x="316.503906"/>
     <use xlink:href="#DejaVuSans-6c" x="379.980469"/>
     <use xlink:href="#DejaVuSans-6d" x="407.763672"/>
     <use xlink:href="#DejaVuSans-38" x="505.175781"/>
    </g>
   </g>
  </g>
  <g id="axes_4">
   <g id="line2d_4">
    <path d="M 378.812379 174.022025 
L 378.245864 173.689412 
L 377.391047 173.872268 
L 373.396604 175.457815 
L 372.288037 176.090982 
L 371.420451 176.986578 
L 370.908095 177.763001 
L 369.78648 178.652344 
L 368.880557 179.881047 
L 367.271225 181.650138 
L 366.518464 182.601654 
L 365.051353 184.916571 
L 364.432206 186.358366 
L 363.63648 189.264056 
L 362.935949 190.520706 
L 361.300642 192.295568 
L 359.125682 196.792229 
L 358.591065 198.253056 
L 357.828617 199.710878 
L 357.008868 200.864836 
L 355.751525 201.997275 
L 352.061555 206.106375 
L 350.394046 207.305143 
L 346.530185 209.232553 
L 345.320536 210.113778 
L 343.207331 212.552588 
L 341.597552 215.721037 
L 340.392856 217.056351 
L 338.827863 220.009441 
L 338.688863 223.042491 
L 337.250723 228.073677 
L 336.578588 229.651952 
L 335.707025 231.183993 
L 335.159371 232.619624 
L 333.260176 235.327718 
L 332.679859 236.312182 
L 331.326231 238.236888 
L 329.576276 241.467421 
L 327.563728 244.912192 
L 326.330157 246.550025 
L 326.123105 247.153536 
L 326.011245 247.90177 
L 326.120878 248.571678 
L 327.263239 249.982898 
L 328.341249 250.87197 
L 329.128307 251.135066 
L 333.981529 251.553644 
L 335.05107 251.761587 
L 336.431829 251.748351 
L 337.39526 251.862612 
L 339.2002 252.481761 
L 339.997625 252.630914 
L 340.734517 253.025241 
L 341.474711 253.222176 
L 342.493909 253.699493 
L 343.96995 255.091365 
L 344.813706 256.015868 
L 346.644202 257.505144 
L 347.690764 257.907396 
L 352.045147 258.996 
L 354.057966 260.029483 
L 355.81127 261.134962 
L 357.285671 261.704652 
L 358.156571 261.557917 
L 359.042751 261.815793 
L 362.365111 261.853736 
L 365.252108 262.11028 
L 367.509912 262.291458 
L 369.530114 262.630588 
L 370.173447 262.281224 
L 371.157808 261.972415 
L 372.37893 261.778491 
L 373.236801 261.477607 
L 374.961247 259.711667 
L 376.107114 258.889364 
L 377.537112 258.015391 
L 378.670771 256.829706 
L 380.46159 254.282966 
L 381.372509 253.555197 
L 382.107035 252.464595 
L 383.15449 251.252046 
L 384.457246 250.490198 
L 385.923468 249.930879 
L 387.219008 248.971042 
L 388.50562 248.610613 
L 389.968326 248.053671 
L 391.440316 247.303414 
L 392.717631 246.434028 
L 394.290308 244.164707 
L 395.12117 242.841927 
L 396.458248 240.037713 
L 397.334291 238.912485 
L 398.102222 236.615447 
L 398.951533 234.293505 
L 400.073571 232.101314 
L 400.589392 230.741887 
L 400.775437 229.371081 
L 401.348763 228.110861 
L 402.3208 227.049423 
L 403.147314 225.680928 
L 403.566262 224.331889 
L 403.643301 221.517545 
L 403.577874 220.176136 
L 403.335334 218.627005 
L 402.887056 217.337138 
L 401.97324 216.279987 
L 401.261656 213.375254 
L 401.081325 212.065859 
L 401.011825 208.487088 
L 400.479823 206.222767 
L 400.32003 205.111729 
L 399.888277 203.95273 
L 398.991226 203.020254 
L 398.675826 201.985506 
L 398.171508 200.875796 
L 397.691558 198.847977 
L 396.94072 196.906281 
L 395.960331 195.01335 
L 395.16321 193.942703 
L 393.238558 191.836443 
L 391.919268 189.729989 
L 391.084879 188.705086 
L 389.768539 187.884008 
L 388.962701 187.058274 
L 387.727333 184.522803 
L 387.050465 182.50016 
L 386.462374 181.529723 
L 386.035821 180.422338 
L 384.367605 178.622157 
L 383.651701 177.848063 
L 382.837361 177.228565 
L 381.745144 176.569474 
L 380.866807 175.787889 
L 380.173375 174.909098 
L 379.453508 174.448208 
L 379.453508 174.448208 
" clip-path="url(#pc538795ba7)" style="fill: none; stroke: #ff7f0e; stroke-width: 1.5; stroke-linecap: square"/>
   </g>
   <g id="text_4">
    <!-- cytd - dunn -->
    <g transform="translate(307.816335 163.242353) scale(0.2 -0.2)">
     <use xlink:href="#DejaVuSans-63"/>
     <use xlink:href="#DejaVuSans-79" x="54.980469"/>
     <use xlink:href="#DejaVuSans-74" x="114.160156"/>
     <use xlink:href="#DejaVuSans-64" x="153.369141"/>
     <use xlink:href="#DejaVuSans-20" x="216.845703"/>
     <use xlink:href="#DejaVuSans-2d" x="248.632812"/>
     <use xlink:href="#DejaVuSans-20" x="284.716797"/>
     <use xlink:href="#DejaVuSans-64" x="316.503906"/>
     <use xlink:href="#DejaVuSans-75" x="379.980469"/>
     <use xlink:href="#DejaVuSans-6e" x="443.359375"/>
     <use xlink:href="#DejaVuSans-6e" x="506.738281"/>
    </g>
   </g>
  </g>
  <g id="axes_5">
   <g id="line2d_5">
    <path d="M 164.196347 291.49717 
L 162.193884 291.911114 
L 160.383862 292.998432 
L 159.452222 293.667196 
L 157.711609 295.409651 
L 156.194912 296.992162 
L 153.409792 299.834974 
L 152.45028 300.582436 
L 151.020665 302.418469 
L 149.089802 304.404094 
L 148.348252 305.286808 
L 147.64739 306.301403 
L 147.280641 307.327325 
L 145.831022 309.599068 
L 142.307536 315.370464 
L 138.056236 323.392972 
L 137.262924 324.670798 
L 129.831991 334.642624 
L 128.589437 336.810435 
L 127.882316 338.122184 
L 126.429769 340.244391 
L 125.727568 341.239317 
L 124.059758 344.433409 
L 122.130733 347.43802 
L 121.1535 349.460455 
L 120.627885 350.461593 
L 120.071787 352.529928 
L 119.815479 353.566704 
L 118.964263 355.387643 
L 118.21945 359.607413 
L 118.405476 360.520419 
L 118.421862 361.414873 
L 119.097129 364.40414 
L 119.465294 365.357962 
L 119.66271 366.295238 
L 120.293214 368.192751 
L 120.593519 369.059303 
L 121.095058 370.022678 
L 121.796529 371.046476 
L 122.282157 372.025803 
L 124.502944 374.631844 
L 126.043073 376.384067 
L 126.900341 376.882638 
L 127.925357 377.649116 
L 129.119661 378.204355 
L 130.018848 378.782185 
L 133.069396 379.625563 
L 135.054195 380.032941 
L 138.320216 379.992812 
L 140.379131 380.001843 
L 144.819682 379.295775 
L 148.221557 378.286414 
L 149.428773 377.858585 
L 151.404891 377.395153 
L 153.704372 376.675072 
L 157.092981 374.875918 
L 158.253038 374.430435 
L 159.183703 373.764789 
L 161.347473 372.708298 
L 163.269551 371.485129 
L 166.004073 369.181956 
L 166.815457 368.038334 
L 172.203424 362.467208 
L 176.023366 357.90076 
L 177.088044 356.190675 
L 178.110624 354.201456 
L 180.667696 348.821129 
L 182.310883 344.564678 
L 182.840367 342.184348 
L 183.848341 339.086175 
L 183.868443 338.111212 
L 184.902204 330.790462 
L 184.947524 329.506192 
L 185.326005 326.903189 
L 185.070574 321.462828 
L 184.540252 316.33413 
L 184.168515 315.106642 
L 184.034979 313.931594 
L 182.515973 309.206871 
L 181.077734 305.568825 
L 177.079798 298.301873 
L 173.922887 294.507874 
L 171.124987 292.371019 
L 169.466876 291.589405 
L 167.608147 291.091765 
L 166.347524 291.103501 
L 165.327086 291.256249 
L 165.327086 291.256249 
" clip-path="url(#pd2a2b17289)" style="fill: none; stroke: #2ca02c; stroke-width: 1.5; stroke-linecap: square"/>
   </g>
   <g id="text_5">
    <!-- jasp - dlm8 -->
    <g transform="translate(96.114915 280.644706) scale(0.2 -0.2)">
     <defs>
      <path id="DejaVuSans-6a" d="M 603 3500 
L 1178 3500 
L 1178 -63 
Q 1178 -731 923 -1031 
Q 669 -1331 103 -1331 
L -116 -1331 
L -116 -844 
L 38 -844 
Q 366 -844 484 -692 
Q 603 -541 603 -63 
L 603 3500 
z
M 603 4863 
L 1178 4863 
L 1178 4134 
L 603 4134 
L 603 4863 
z
" transform="scale(0.015625)"/>
      <path id="DejaVuSans-61" d="M 2194 1759 
Q 1497 1759 1228 1600 
Q 959 1441 959 1056 
Q 959 750 1161 570 
Q 1363 391 1709 391 
Q 2188 391 2477 730 
Q 2766 1069 2766 1631 
L 2766 1759 
L 2194 1759 
z
M 3341 1997 
L 3341 0 
L 2766 0 
L 2766 531 
Q 2569 213 2275 61 
Q 1981 -91 1556 -91 
Q 1019 -91 701 211 
Q 384 513 384 1019 
Q 384 1609 779 1909 
Q 1175 2209 1959 2209 
L 2766 2209 
L 2766 2266 
Q 2766 2663 2505 2880 
Q 2244 3097 1772 3097 
Q 1472 3097 1187 3025 
Q 903 2953 641 2809 
L 641 3341 
Q 956 3463 1253 3523 
Q 1550 3584 1831 3584 
Q 2591 3584 2966 3190 
Q 3341 2797 3341 1997 
z
" transform="scale(0.015625)"/>
      <path id="DejaVuSans-73" d="M 2834 3397 
L 2834 2853 
Q 2591 2978 2328 3040 
Q 2066 3103 1784 3103 
Q 1356 3103 1142 2972 
Q 928 2841 928 2578 
Q 928 2378 1081 2264 
Q 1234 2150 1697 2047 
L 1894 2003 
Q 2506 1872 2764 1633 
Q 3022 1394 3022 966 
Q 3022 478 2636 193 
Q 2250 -91 1575 -91 
Q 1294 -91 989 -36 
Q 684 19 347 128 
L 347 722 
Q 666 556 975 473 
Q 1284 391 1588 391 
Q 1994 391 2212 530 
Q 2431 669 2431 922 
Q 2431 1156 2273 1281 
Q 2116 1406 1581 1522 
L 1381 1569 
Q 847 1681 609 1914 
Q 372 2147 372 2553 
Q 372 3047 722 3315 
Q 1072 3584 1716 3584 
Q 2034 3584 2315 3537 
Q 2597 3491 2834 3397 
z
" transform="scale(0.015625)"/>
      <path id="DejaVuSans-70" d="M 1159 525 
L 1159 -1331 
L 581 -1331 
L 581 3500 
L 1159 3500 
L 1159 2969 
Q 1341 3281 1617 3432 
Q 1894 3584 2278 3584 
Q 2916 3584 3314 3078 
Q 3713 2572 3713 1747 
Q 3713 922 3314 415 
Q 2916 -91 2278 -91 
Q 1894 -91 1617 61 
Q 1341 213 1159 525 
z
M 3116 1747 
Q 3116 2381 2855 2742 
Q 2594 3103 2138 3103 
Q 1681 3103 1420 2742 
Q 1159 2381 1159 1747 
Q 1159 1113 1420 752 
Q 1681 391 2138 391 
Q 2594 391 2855 752 
Q 3116 1113 3116 1747 
z
" transform="scale(0.015625)"/>
     </defs>
     <use xlink:href="#DejaVuSans-6a"/>
     <use xlink:href="#DejaVuSans-61" x="27.783203"/>
     <use xlink:href="#DejaVuSans-73" x="89.0625"/>
     <use xlink:href="#DejaVuSans-70" x="141.162109"/>
     <use xlink:href="#DejaVuSans-20" x="204.638672"/>
     <use xlink:href="#DejaVuSans-2d" x="236.425781"/>
     <use xlink:href="#DejaVuSans-20" x="272.509766"/>
     <use xlink:href="#DejaVuSans-64" x="304.296875"/>
     <use xlink:href="#DejaVuSans-6c" x="367.773438"/>
     <use xlink:href="#DejaVuSans-6d" x="395.556641"/>
     <use xlink:href="#DejaVuSans-38" x="492.96875"/>
    </g>
   </g>
  </g>
  <g id="axes_6">
   <g id="line2d_6">
    <path d="M 378.006684 291.271883 
L 376.706723 291.321901 
L 375.353607 291.545221 
L 374.383932 291.85373 
L 371.159525 293.426899 
L 369.404702 294.947269 
L 367.191975 296.276505 
L 363.709717 297.88416 
L 362.806228 298.709774 
L 362.148638 299.612276 
L 360.120968 301.411495 
L 359.267917 302.49055 
L 358.206046 303.485768 
L 356.909818 304.423602 
L 356.1071 305.57461 
L 355.355961 306.447515 
L 353.346463 308.454299 
L 347.957862 315.785245 
L 345.020354 320.018231 
L 344.164202 321.762946 
L 343.04359 323.075792 
L 339.54147 328.097278 
L 338.83127 329.362694 
L 337.952333 330.625272 
L 336.59788 333.078009 
L 336.093205 334.212713 
L 335.644478 335.57298 
L 335.117684 338.512777 
L 333.821822 341.206282 
L 333.001794 343.929965 
L 332.448223 345.258851 
L 331.982217 346.717834 
L 329.803755 351.73453 
L 329.184474 352.674011 
L 328.241973 354.621874 
L 327.607261 355.672044 
L 326.722909 356.828802 
L 326.338747 358.760862 
L 326.56442 360.396389 
L 327.116044 361.406362 
L 327.375079 362.290617 
L 327.769401 364.491012 
L 328.553659 365.945092 
L 329.299272 366.197268 
L 331.434201 367.445611 
L 335.270229 369.217752 
L 337.010899 370.391637 
L 340.294558 371.558536 
L 341.642181 371.878533 
L 342.603636 372.55643 
L 345.978273 376.132017 
L 347.85283 377.301422 
L 348.856047 377.828668 
L 351.03958 378.345305 
L 352.169766 378.38978 
L 353.130208 378.545178 
L 355.104877 379.144788 
L 357.317861 379.382515 
L 359.392454 380.032941 
L 361.895325 379.785621 
L 362.927704 379.452929 
L 364.011224 379.398024 
L 365.013204 379.179838 
L 366.013387 379.301306 
L 367.159901 379.237755 
L 368.464656 378.915617 
L 376.582007 375.733078 
L 378.608314 374.505033 
L 385.2975 369.48881 
L 390.388165 366.199672 
L 392.420607 364.448577 
L 393.38239 363.409747 
L 394.11127 362.359362 
L 396.65385 359.704766 
L 397.396728 358.746254 
L 398.626692 356.543174 
L 399.908363 354.292338 
L 401.13836 352.386338 
L 401.491378 351.031435 
L 402.505728 348.431655 
L 402.781738 347.231566 
L 402.892199 344.408273 
L 403.315799 342.091039 
L 402.473367 338.400033 
L 402.103836 335.933233 
L 402.042441 334.523455 
L 401.467014 331.82596 
L 401.441097 329.024432 
L 401.563923 326.335398 
L 401.395799 325.180146 
L 401.069526 324.080884 
L 399.992474 321.920043 
L 399.422852 320.632779 
L 399.114493 319.453439 
L 398.341761 315.459962 
L 398.038829 314.332278 
L 397.319355 313.346694 
L 396.509063 312.537273 
L 393.118289 308.005102 
L 392.599614 306.713791 
L 391.918415 305.386653 
L 391.126787 302.650301 
L 390.572746 301.393444 
L 389.361513 299.56199 
L 387.753619 297.416898 
L 386.521646 294.910186 
L 385.879663 293.760182 
L 384.230669 292.553898 
L 383.239243 292.086544 
L 381.315509 291.51488 
L 380.383734 291.244578 
L 379.347594 291.091765 
L 379.347594 291.091765 
" clip-path="url(#pa487423e80)" style="fill: none; stroke: #2ca02c; stroke-width: 1.5; stroke-linecap: square"/>
   </g>
   <g id="text_6">
    <!-- jasp - dunn -->
    <g transform="translate(309.03821 280.644706) scale(0.2 -0.2)">
     <use xlink:href="#DejaVuSans-6a"/>
     <use xlink:href="#DejaVuSans-61" x="27.783203"/>
     <use xlink:href="#DejaVuSans-73" x="89.0625"/>
     <use xlink:href="#DejaVuSans-70" x="141.162109"/>
     <use xlink:href="#DejaVuSans-20" x="204.638672"/>
     <use xlink:href="#DejaVuSans-2d" x="236.425781"/>
     <use xlink:href="#DejaVuSans-20" x="272.509766"/>
     <use xlink:href="#DejaVuSans-64" x="304.296875"/>
     <use xlink:href="#DejaVuSans-75" x="367.773438"/>
     <use xlink:href="#DejaVuSans-6e" x="431.152344"/>
     <use xlink:href="#DejaVuSans-6e" x="494.53125"/>
    </g>
   </g>
  </g>
 </g>
 <defs>
  <clipPath id="p2ca7f47644">
   <rect x="63" y="51.84" width="177.545455" height="97.835294"/>
  </clipPath>
  <clipPath id="pae07f8925f">
   <rect x="276.054545" y="51.84" width="177.545455" height="97.835294"/>
  </clipPath>
  <clipPath id="p3c0daa5411">
   <rect x="63" y="169.242353" width="177.545455" height="97.835294"/>
  </clipPath>
  <clipPath id="pc538795ba7">
   <rect x="276.054545" y="169.242353" width="177.545455" height="97.835294"/>
  </clipPath>
  <clipPath id="pd2a2b17289">
   <rect x="63" y="286.644706" width="177.545455" height="97.835294"/>
  </clipPath>
  <clipPath id="pa487423e80">
   <rect x="276.054545" y="286.644706" width="177.545455" height="97.835294"/>
  </clipPath>
 </defs>
</svg>
