<?xml version="1.0" encoding="utf-8" standalone="no"?>
<!DOCTYPE svg PUBLIC "-//W3C//DTD SVG 1.1//EN"
  "http://www.w3.org/Graphics/SVG/1.1/DTD/svg11.dtd">
<svg xmlns:xlink="http://www.w3.org/1999/xlink" width="576pt" height="288pt" viewBox="0 0 576 288" xmlns="http://www.w3.org/2000/svg" version="1.1">
 <metadata>
  <rdf:RDF xmlns:dc="http://purl.org/dc/elements/1.1/" xmlns:cc="http://creativecommons.org/ns#" xmlns:rdf="http://www.w3.org/1999/02/22-rdf-syntax-ns#">
   <cc:Work>
    <dc:type rdf:resource="http://purl.org/dc/dcmitype/StillImage"/>
    <dc:date>2023-12-18T02:07:13.854733</dc:date>
    <dc:format>image/svg+xml</dc:format>
    <dc:creator>
     <cc:Agent>
      <dc:title>Matplotlib v3.6.2, https://matplotlib.org/</dc:title>
     </cc:Agent>
    </dc:creator>
   </cc:Work>
  </rdf:RDF>
 </metadata>
 <defs>
  <style type="text/css">*{stroke-linejoin: round; stroke-linecap: butt}</style>
 </defs>
 <g id="figure_1">
  <g id="patch_1">
   <path d="M 0 288 
L 576 288 
L 576 0 
L 0 0 
z
" style="fill: #ffffff"/>
  </g>
  <g id="axes_1">
   <g id="patch_2">
    <path d="M 41.711875 260.521875 
L 287.53125 260.521875 
L 287.53125 57.594062 
L 41.711875 57.594062 
z
" style="fill: #ffffff"/>
   </g>
   <g id="patch_3">
    <path d="M 42.956838 260.521875 
L 48.811413 260.521875 
L 48.811413 213.659967 
L 42.956838 213.659967 
z
" clip-path="url(#p6cbc1d920e)" style="fill: #1f77b4; opacity: 0.4"/>
   </g>
   <g id="patch_4">
    <path d="M 48.811413 260.521875 
L 54.665989 260.521875 
L 54.665989 91.819005 
L 48.811413 91.819005 
z
" clip-path="url(#p6cbc1d920e)" style="fill: #1f77b4; opacity: 0.4"/>
   </g>
   <g id="patch_5">
    <path d="M 54.665989 260.521875 
L 60.520565 260.521875 
L 60.520565 110.563768 
L 54.665989 110.563768 
z
" clip-path="url(#p6cbc1d920e)" style="fill: #1f77b4; opacity: 0.4"/>
   </g>
   <g id="patch_6">
    <path d="M 60.520565 260.521875 
L 66.375141 260.521875 
L 66.375141 138.680913 
L 60.520565 138.680913 
z
" clip-path="url(#p6cbc1d920e)" style="fill: #1f77b4; opacity: 0.4"/>
   </g>
   <g id="patch_7">
    <path d="M 66.375141 260.521875 
L 72.229716 260.521875 
L 72.229716 185.542822 
L 66.375141 185.542822 
z
" clip-path="url(#p6cbc1d920e)" style="fill: #1f77b4; opacity: 0.4"/>
   </g>
   <g id="patch_8">
    <path d="M 72.229716 260.521875 
L 78.084292 260.521875 
L 78.084292 213.659967 
L 72.229716 213.659967 
z
" clip-path="url(#p6cbc1d920e)" style="fill: #1f77b4; opacity: 0.4"/>
   </g>
   <g id="patch_9">
    <path d="M 78.084292 260.521875 
L 83.938868 260.521875 
L 83.938868 176.17044 
L 78.084292 176.17044 
z
" clip-path="url(#p6cbc1d920e)" style="fill: #1f77b4; opacity: 0.4"/>
   </g>
   <g id="patch_10">
    <path d="M 83.938868 260.521875 
L 89.793444 260.521875 
L 89.793444 148.053295 
L 83.938868 148.053295 
z
" clip-path="url(#p6cbc1d920e)" style="fill: #1f77b4; opacity: 0.4"/>
   </g>
   <g id="patch_11">
    <path d="M 89.793444 260.521875 
L 95.648019 260.521875 
L 95.648019 223.032348 
L 89.793444 223.032348 
z
" clip-path="url(#p6cbc1d920e)" style="fill: #1f77b4; opacity: 0.4"/>
   </g>
   <g id="patch_12">
    <path d="M 95.648019 260.521875 
L 101.502595 260.521875 
L 101.502595 241.777112 
L 95.648019 241.777112 
z
" clip-path="url(#p6cbc1d920e)" style="fill: #1f77b4; opacity: 0.4"/>
   </g>
   <g id="patch_13">
    <path d="M 101.502595 260.521875 
L 107.357171 260.521875 
L 107.357171 204.287585 
L 101.502595 204.287585 
z
" clip-path="url(#p6cbc1d920e)" style="fill: #1f77b4; opacity: 0.4"/>
   </g>
   <g id="patch_14">
    <path d="M 107.357171 260.521875 
L 113.211747 260.521875 
L 113.211747 223.032348 
L 107.357171 223.032348 
z
" clip-path="url(#p6cbc1d920e)" style="fill: #1f77b4; opacity: 0.4"/>
   </g>
   <g id="patch_15">
    <path d="M 113.211747 260.521875 
L 119.066322 260.521875 
L 119.066322 223.032348 
L 113.211747 223.032348 
z
" clip-path="url(#p6cbc1d920e)" style="fill: #1f77b4; opacity: 0.4"/>
   </g>
   <g id="patch_16">
    <path d="M 119.066322 260.521875 
L 124.920898 260.521875 
L 124.920898 241.777112 
L 119.066322 241.777112 
z
" clip-path="url(#p6cbc1d920e)" style="fill: #1f77b4; opacity: 0.4"/>
   </g>
   <g id="patch_17">
    <path d="M 124.920898 260.521875 
L 130.775474 260.521875 
L 130.775474 251.149493 
L 124.920898 251.149493 
z
" clip-path="url(#p6cbc1d920e)" style="fill: #1f77b4; opacity: 0.4"/>
   </g>
   <g id="patch_18">
    <path d="M 130.775474 260.521875 
L 136.63005 260.521875 
L 136.63005 251.149493 
L 130.775474 251.149493 
z
" clip-path="url(#p6cbc1d920e)" style="fill: #1f77b4; opacity: 0.4"/>
   </g>
   <g id="patch_19">
    <path d="M 136.63005 260.521875 
L 142.484625 260.521875 
L 142.484625 241.777112 
L 136.63005 241.777112 
z
" clip-path="url(#p6cbc1d920e)" style="fill: #1f77b4; opacity: 0.4"/>
   </g>
   <g id="patch_20">
    <path d="M 142.484625 260.521875 
L 148.339201 260.521875 
L 148.339201 260.521875 
L 142.484625 260.521875 
z
" clip-path="url(#p6cbc1d920e)" style="fill: #1f77b4; opacity: 0.4"/>
   </g>
   <g id="patch_21">
    <path d="M 148.339201 260.521875 
L 154.193777 260.521875 
L 154.193777 260.521875 
L 148.339201 260.521875 
z
" clip-path="url(#p6cbc1d920e)" style="fill: #1f77b4; opacity: 0.4"/>
   </g>
   <g id="patch_22">
    <path d="M 154.193777 260.521875 
L 160.048352 260.521875 
L 160.048352 241.777112 
L 154.193777 241.777112 
z
" clip-path="url(#p6cbc1d920e)" style="fill: #1f77b4; opacity: 0.4"/>
   </g>
   <g id="patch_23">
    <path d="M 71.35883 260.521875 
L 82.167451 260.521875 
L 82.167451 231.585111 
L 71.35883 231.585111 
z
" clip-path="url(#p6cbc1d920e)" style="fill: #ff7f0e; opacity: 0.4"/>
   </g>
   <g id="patch_24">
    <path d="M 82.167451 260.521875 
L 92.976072 260.521875 
L 92.976072 202.648347 
L 82.167451 202.648347 
z
" clip-path="url(#p6cbc1d920e)" style="fill: #ff7f0e; opacity: 0.4"/>
   </g>
   <g id="patch_25">
    <path d="M 92.976072 260.521875 
L 103.784693 260.521875 
L 103.784693 209.882538 
L 92.976072 209.882538 
z
" clip-path="url(#p6cbc1d920e)" style="fill: #ff7f0e; opacity: 0.4"/>
   </g>
   <g id="patch_26">
    <path d="M 103.784693 260.521875 
L 114.593314 260.521875 
L 114.593314 224.35092 
L 103.784693 224.35092 
z
" clip-path="url(#p6cbc1d920e)" style="fill: #ff7f0e; opacity: 0.4"/>
   </g>
   <g id="patch_27">
    <path d="M 114.593314 260.521875 
L 125.401935 260.521875 
L 125.401935 195.414156 
L 114.593314 195.414156 
z
" clip-path="url(#p6cbc1d920e)" style="fill: #ff7f0e; opacity: 0.4"/>
   </g>
   <g id="patch_28">
    <path d="M 125.401935 260.521875 
L 136.210556 260.521875 
L 136.210556 224.35092 
L 125.401935 224.35092 
z
" clip-path="url(#p6cbc1d920e)" style="fill: #ff7f0e; opacity: 0.4"/>
   </g>
   <g id="patch_29">
    <path d="M 136.210556 260.521875 
L 147.019177 260.521875 
L 147.019177 224.35092 
L 136.210556 224.35092 
z
" clip-path="url(#p6cbc1d920e)" style="fill: #ff7f0e; opacity: 0.4"/>
   </g>
   <g id="patch_30">
    <path d="M 147.019177 260.521875 
L 157.827798 260.521875 
L 157.827798 238.819302 
L 147.019177 238.819302 
z
" clip-path="url(#p6cbc1d920e)" style="fill: #ff7f0e; opacity: 0.4"/>
   </g>
   <g id="patch_31">
    <path d="M 157.827798 260.521875 
L 168.636419 260.521875 
L 168.636419 195.414156 
L 157.827798 195.414156 
z
" clip-path="url(#p6cbc1d920e)" style="fill: #ff7f0e; opacity: 0.4"/>
   </g>
   <g id="patch_32">
    <path d="M 168.636419 260.521875 
L 179.44504 260.521875 
L 179.44504 224.35092 
L 168.636419 224.35092 
z
" clip-path="url(#p6cbc1d920e)" style="fill: #ff7f0e; opacity: 0.4"/>
   </g>
   <g id="patch_33">
    <path d="M 179.44504 260.521875 
L 190.253661 260.521875 
L 190.253661 246.053493 
L 179.44504 246.053493 
z
" clip-path="url(#p6cbc1d920e)" style="fill: #ff7f0e; opacity: 0.4"/>
   </g>
   <g id="patch_34">
    <path d="M 190.253661 260.521875 
L 201.062282 260.521875 
L 201.062282 231.585111 
L 190.253661 231.585111 
z
" clip-path="url(#p6cbc1d920e)" style="fill: #ff7f0e; opacity: 0.4"/>
   </g>
   <g id="patch_35">
    <path d="M 201.062282 260.521875 
L 211.870903 260.521875 
L 211.870903 246.053493 
L 201.062282 246.053493 
z
" clip-path="url(#p6cbc1d920e)" style="fill: #ff7f0e; opacity: 0.4"/>
   </g>
   <g id="patch_36">
    <path d="M 211.870903 260.521875 
L 222.679524 260.521875 
L 222.679524 253.287684 
L 211.870903 253.287684 
z
" clip-path="url(#p6cbc1d920e)" style="fill: #ff7f0e; opacity: 0.4"/>
   </g>
   <g id="patch_37">
    <path d="M 222.679524 260.521875 
L 233.488145 260.521875 
L 233.488145 260.521875 
L 222.679524 260.521875 
z
" clip-path="url(#p6cbc1d920e)" style="fill: #ff7f0e; opacity: 0.4"/>
   </g>
   <g id="patch_38">
    <path d="M 233.488145 260.521875 
L 244.296766 260.521875 
L 244.296766 231.585111 
L 233.488145 231.585111 
z
" clip-path="url(#p6cbc1d920e)" style="fill: #ff7f0e; opacity: 0.4"/>
   </g>
   <g id="patch_39">
    <path d="M 244.296766 260.521875 
L 255.105387 260.521875 
L 255.105387 238.819302 
L 244.296766 238.819302 
z
" clip-path="url(#p6cbc1d920e)" style="fill: #ff7f0e; opacity: 0.4"/>
   </g>
   <g id="patch_40">
    <path d="M 255.105387 260.521875 
L 265.914008 260.521875 
L 265.914008 260.521875 
L 255.105387 260.521875 
z
" clip-path="url(#p6cbc1d920e)" style="fill: #ff7f0e; opacity: 0.4"/>
   </g>
   <g id="patch_41">
    <path d="M 265.914008 260.521875 
L 276.722629 260.521875 
L 276.722629 246.053493 
L 265.914008 246.053493 
z
" clip-path="url(#p6cbc1d920e)" style="fill: #ff7f0e; opacity: 0.4"/>
   </g>
   <g id="patch_42">
    <path d="M 276.722629 260.521875 
L 287.53125 260.521875 
L 287.53125 246.053493 
L 276.722629 246.053493 
z
" clip-path="url(#p6cbc1d920e)" style="fill: #ff7f0e; opacity: 0.4"/>
   </g>
   <g id="patch_43">
    <path d="M 57.740131 260.521875 
L 63.482604 260.521875 
L 63.482604 172.674337 
L 57.740131 172.674337 
z
" clip-path="url(#p6cbc1d920e)" style="fill: #2ca02c; opacity: 0.4"/>
   </g>
   <g id="patch_44">
    <path d="M 63.482604 260.521875 
L 69.225077 260.521875 
L 69.225077 102.396307 
L 63.482604 102.396307 
z
" clip-path="url(#p6cbc1d920e)" style="fill: #2ca02c; opacity: 0.4"/>
   </g>
   <g id="patch_45">
    <path d="M 69.225077 260.521875 
L 74.96755 260.521875 
L 74.96755 67.257292 
L 69.225077 67.257292 
z
" clip-path="url(#p6cbc1d920e)" style="fill: #2ca02c; opacity: 0.4"/>
   </g>
   <g id="patch_46">
    <path d="M 74.96755 260.521875 
L 80.710023 260.521875 
L 80.710023 172.674337 
L 74.96755 172.674337 
z
" clip-path="url(#p6cbc1d920e)" style="fill: #2ca02c; opacity: 0.4"/>
   </g>
   <g id="patch_47">
    <path d="M 80.710023 260.521875 
L 86.452496 260.521875 
L 86.452496 137.535322 
L 80.710023 137.535322 
z
" clip-path="url(#p6cbc1d920e)" style="fill: #2ca02c; opacity: 0.4"/>
   </g>
   <g id="patch_48">
    <path d="M 86.452496 260.521875 
L 92.194969 260.521875 
L 92.194969 155.10483 
L 86.452496 155.10483 
z
" clip-path="url(#p6cbc1d920e)" style="fill: #2ca02c; opacity: 0.4"/>
   </g>
   <g id="patch_49">
    <path d="M 92.194969 260.521875 
L 97.937442 260.521875 
L 97.937442 172.674337 
L 92.194969 172.674337 
z
" clip-path="url(#p6cbc1d920e)" style="fill: #2ca02c; opacity: 0.4"/>
   </g>
   <g id="patch_50">
    <path d="M 97.937442 260.521875 
L 103.679915 260.521875 
L 103.679915 225.38286 
L 97.937442 225.38286 
z
" clip-path="url(#p6cbc1d920e)" style="fill: #2ca02c; opacity: 0.4"/>
   </g>
   <g id="patch_51">
    <path d="M 103.679915 260.521875 
L 109.422389 260.521875 
L 109.422389 242.952367 
L 103.679915 242.952367 
z
" clip-path="url(#p6cbc1d920e)" style="fill: #2ca02c; opacity: 0.4"/>
   </g>
   <g id="patch_52">
    <path d="M 109.422389 260.521875 
L 115.164862 260.521875 
L 115.164862 242.952367 
L 109.422389 242.952367 
z
" clip-path="url(#p6cbc1d920e)" style="fill: #2ca02c; opacity: 0.4"/>
   </g>
   <g id="patch_53">
    <path d="M 115.164862 260.521875 
L 120.907335 260.521875 
L 120.907335 190.243845 
L 115.164862 190.243845 
z
" clip-path="url(#p6cbc1d920e)" style="fill: #2ca02c; opacity: 0.4"/>
   </g>
   <g id="patch_54">
    <path d="M 120.907335 260.521875 
L 126.649808 260.521875 
L 126.649808 260.521875 
L 120.907335 260.521875 
z
" clip-path="url(#p6cbc1d920e)" style="fill: #2ca02c; opacity: 0.4"/>
   </g>
   <g id="patch_55">
    <path d="M 126.649808 260.521875 
L 132.392281 260.521875 
L 132.392281 242.952367 
L 126.649808 242.952367 
z
" clip-path="url(#p6cbc1d920e)" style="fill: #2ca02c; opacity: 0.4"/>
   </g>
   <g id="patch_56">
    <path d="M 132.392281 260.521875 
L 138.134754 260.521875 
L 138.134754 242.952367 
L 132.392281 242.952367 
z
" clip-path="url(#p6cbc1d920e)" style="fill: #2ca02c; opacity: 0.4"/>
   </g>
   <g id="patch_57">
    <path d="M 138.134754 260.521875 
L 143.877227 260.521875 
L 143.877227 242.952367 
L 138.134754 242.952367 
z
" clip-path="url(#p6cbc1d920e)" style="fill: #2ca02c; opacity: 0.4"/>
   </g>
   <g id="patch_58">
    <path d="M 143.877227 260.521875 
L 149.6197 260.521875 
L 149.6197 260.521875 
L 143.877227 260.521875 
z
" clip-path="url(#p6cbc1d920e)" style="fill: #2ca02c; opacity: 0.4"/>
   </g>
   <g id="patch_59">
    <path d="M 149.6197 260.521875 
L 155.362173 260.521875 
L 155.362173 260.521875 
L 149.6197 260.521875 
z
" clip-path="url(#p6cbc1d920e)" style="fill: #2ca02c; opacity: 0.4"/>
   </g>
   <g id="patch_60">
    <path d="M 155.362173 260.521875 
L 161.104646 260.521875 
L 161.104646 260.521875 
L 155.362173 260.521875 
z
" clip-path="url(#p6cbc1d920e)" style="fill: #2ca02c; opacity: 0.4"/>
   </g>
   <g id="patch_61">
    <path d="M 161.104646 260.521875 
L 166.847119 260.521875 
L 166.847119 225.38286 
L 161.104646 225.38286 
z
" clip-path="url(#p6cbc1d920e)" style="fill: #2ca02c; opacity: 0.4"/>
   </g>
   <g id="patch_62">
    <path d="M 166.847119 260.521875 
L 172.589592 260.521875 
L 172.589592 242.952367 
L 166.847119 242.952367 
z
" clip-path="url(#p6cbc1d920e)" style="fill: #2ca02c; opacity: 0.4"/>
   </g>
   <g id="matplotlib.axis_1">
    <g id="xtick_1">
     <g id="line2d_1">
      <defs>
       <path id="m83b869e5f3" d="M 0 0 
L 0 3.5 
" style="stroke: #000000; stroke-width: 0.8"/>
      </defs>
      <g>
       <use xlink:href="#m83b869e5f3" x="60.376664" y="260.521875" style="stroke: #000000; stroke-width: 0.8"/>
      </g>
     </g>
     <g id="text_1">
      <!-- 0.4 -->
      <g transform="translate(52.425102 275.120313) scale(0.1 -0.1)">
       <defs>
        <path id="DejaVuSans-30" d="M 2034 4250 
Q 1547 4250 1301 3770 
Q 1056 3291 1056 2328 
Q 1056 1369 1301 889 
Q 1547 409 2034 409 
Q 2525 409 2770 889 
Q 3016 1369 3016 2328 
Q 3016 3291 2770 3770 
Q 2525 4250 2034 4250 
z
M 2034 4750 
Q 2819 4750 3233 4129 
Q 3647 3509 3647 2328 
Q 3647 1150 3233 529 
Q 2819 -91 2034 -91 
Q 1250 -91 836 529 
Q 422 1150 422 2328 
Q 422 3509 836 4129 
Q 1250 4750 2034 4750 
z
" transform="scale(0.015625)"/>
        <path id="DejaVuSans-2e" d="M 684 794 
L 1344 794 
L 1344 0 
L 684 0 
L 684 794 
z
" transform="scale(0.015625)"/>
        <path id="DejaVuSans-34" d="M 2419 4116 
L 825 1625 
L 2419 1625 
L 2419 4116 
z
M 2253 4666 
L 3047 4666 
L 3047 1625 
L 3713 1625 
L 3713 1100 
L 3047 1100 
L 3047 0 
L 2419 0 
L 2419 1100 
L 313 1100 
L 313 1709 
L 2253 4666 
z
" transform="scale(0.015625)"/>
       </defs>
       <use xlink:href="#DejaVuSans-30"/>
       <use xlink:href="#DejaVuSans-2e" x="63.623047"/>
       <use xlink:href="#DejaVuSans-34" x="95.410156"/>
      </g>
     </g>
    </g>
    <g id="xtick_2">
     <g id="line2d_2">
      <g>
       <use xlink:href="#m83b869e5f3" x="112.646191" y="260.521875" style="stroke: #000000; stroke-width: 0.8"/>
      </g>
     </g>
     <g id="text_2">
      <!-- 0.6 -->
      <g transform="translate(104.694628 275.120313) scale(0.1 -0.1)">
       <defs>
        <path id="DejaVuSans-36" d="M 2113 2584 
Q 1688 2584 1439 2293 
Q 1191 2003 1191 1497 
Q 1191 994 1439 701 
Q 1688 409 2113 409 
Q 2538 409 2786 701 
Q 3034 994 3034 1497 
Q 3034 2003 2786 2293 
Q 2538 2584 2113 2584 
z
M 3366 4563 
L 3366 3988 
Q 3128 4100 2886 4159 
Q 2644 4219 2406 4219 
Q 1781 4219 1451 3797 
Q 1122 3375 1075 2522 
Q 1259 2794 1537 2939 
Q 1816 3084 2150 3084 
Q 2853 3084 3261 2657 
Q 3669 2231 3669 1497 
Q 3669 778 3244 343 
Q 2819 -91 2113 -91 
Q 1303 -91 875 529 
Q 447 1150 447 2328 
Q 447 3434 972 4092 
Q 1497 4750 2381 4750 
Q 2619 4750 2861 4703 
Q 3103 4656 3366 4563 
z
" transform="scale(0.015625)"/>
       </defs>
       <use xlink:href="#DejaVuSans-30"/>
       <use xlink:href="#DejaVuSans-2e" x="63.623047"/>
       <use xlink:href="#DejaVuSans-36" x="95.410156"/>
      </g>
     </g>
    </g>
    <g id="xtick_3">
     <g id="line2d_3">
      <g>
       <use xlink:href="#m83b869e5f3" x="164.915718" y="260.521875" style="stroke: #000000; stroke-width: 0.8"/>
      </g>
     </g>
     <g id="text_3">
      <!-- 0.8 -->
      <g transform="translate(156.964155 275.120313) scale(0.1 -0.1)">
       <defs>
        <path id="DejaVuSans-38" d="M 2034 2216 
Q 1584 2216 1326 1975 
Q 1069 1734 1069 1313 
Q 1069 891 1326 650 
Q 1584 409 2034 409 
Q 2484 409 2743 651 
Q 3003 894 3003 1313 
Q 3003 1734 2745 1975 
Q 2488 2216 2034 2216 
z
M 1403 2484 
Q 997 2584 770 2862 
Q 544 3141 544 3541 
Q 544 4100 942 4425 
Q 1341 4750 2034 4750 
Q 2731 4750 3128 4425 
Q 3525 4100 3525 3541 
Q 3525 3141 3298 2862 
Q 3072 2584 2669 2484 
Q 3125 2378 3379 2068 
Q 3634 1759 3634 1313 
Q 3634 634 3220 271 
Q 2806 -91 2034 -91 
Q 1263 -91 848 271 
Q 434 634 434 1313 
Q 434 1759 690 2068 
Q 947 2378 1403 2484 
z
M 1172 3481 
Q 1172 3119 1398 2916 
Q 1625 2713 2034 2713 
Q 2441 2713 2670 2916 
Q 2900 3119 2900 3481 
Q 2900 3844 2670 4047 
Q 2441 4250 2034 4250 
Q 1625 4250 1398 4047 
Q 1172 3844 1172 3481 
z
" transform="scale(0.015625)"/>
       </defs>
       <use xlink:href="#DejaVuSans-30"/>
       <use xlink:href="#DejaVuSans-2e" x="63.623047"/>
       <use xlink:href="#DejaVuSans-38" x="95.410156"/>
      </g>
     </g>
    </g>
    <g id="xtick_4">
     <g id="line2d_4">
      <g>
       <use xlink:href="#m83b869e5f3" x="217.185244" y="260.521875" style="stroke: #000000; stroke-width: 0.8"/>
      </g>
     </g>
     <g id="text_4">
      <!-- 1.0 -->
      <g transform="translate(209.233682 275.120313) scale(0.1 -0.1)">
       <defs>
        <path id="DejaVuSans-31" d="M 794 531 
L 1825 531 
L 1825 4091 
L 703 3866 
L 703 4441 
L 1819 4666 
L 2450 4666 
L 2450 531 
L 3481 531 
L 3481 0 
L 794 0 
L 794 531 
z
" transform="scale(0.015625)"/>
       </defs>
       <use xlink:href="#DejaVuSans-31"/>
       <use xlink:href="#DejaVuSans-2e" x="63.623047"/>
       <use xlink:href="#DejaVuSans-30" x="95.410156"/>
      </g>
     </g>
    </g>
    <g id="xtick_5">
     <g id="line2d_5">
      <g>
       <use xlink:href="#m83b869e5f3" x="269.454771" y="260.521875" style="stroke: #000000; stroke-width: 0.8"/>
      </g>
     </g>
     <g id="text_5">
      <!-- 1.2 -->
      <g transform="translate(261.503209 275.120313) scale(0.1 -0.1)">
       <defs>
        <path id="DejaVuSans-32" d="M 1228 531 
L 3431 531 
L 3431 0 
L 469 0 
L 469 531 
Q 828 903 1448 1529 
Q 2069 2156 2228 2338 
Q 2531 2678 2651 2914 
Q 2772 3150 2772 3378 
Q 2772 3750 2511 3984 
Q 2250 4219 1831 4219 
Q 1534 4219 1204 4116 
Q 875 4013 500 3803 
L 500 4441 
Q 881 4594 1212 4672 
Q 1544 4750 1819 4750 
Q 2544 4750 2975 4387 
Q 3406 4025 3406 3419 
Q 3406 3131 3298 2873 
Q 3191 2616 2906 2266 
Q 2828 2175 2409 1742 
Q 1991 1309 1228 531 
z
" transform="scale(0.015625)"/>
       </defs>
       <use xlink:href="#DejaVuSans-31"/>
       <use xlink:href="#DejaVuSans-2e" x="63.623047"/>
       <use xlink:href="#DejaVuSans-32" x="95.410156"/>
      </g>
     </g>
    </g>
   </g>
   <g id="matplotlib.axis_2">
    <g id="ytick_1">
     <g id="line2d_6">
      <defs>
       <path id="mc2630ad92c" d="M 0 0 
L -3.5 0 
" style="stroke: #000000; stroke-width: 0.8"/>
      </defs>
      <g>
       <use xlink:href="#mc2630ad92c" x="41.711875" y="260.521875" style="stroke: #000000; stroke-width: 0.8"/>
      </g>
     </g>
     <g id="text_6">
      <!-- 0 -->
      <g transform="translate(28.349375 264.321094) scale(0.1 -0.1)">
       <use xlink:href="#DejaVuSans-30"/>
      </g>
     </g>
    </g>
    <g id="ytick_2">
     <g id="line2d_7">
      <g>
       <use xlink:href="#mc2630ad92c" x="41.711875" y="236.586972" style="stroke: #000000; stroke-width: 0.8"/>
      </g>
     </g>
     <g id="text_7">
      <!-- 1 -->
      <g transform="translate(28.349375 240.386191) scale(0.1 -0.1)">
       <use xlink:href="#DejaVuSans-31"/>
      </g>
     </g>
    </g>
    <g id="ytick_3">
     <g id="line2d_8">
      <g>
       <use xlink:href="#mc2630ad92c" x="41.711875" y="212.652069" style="stroke: #000000; stroke-width: 0.8"/>
      </g>
     </g>
     <g id="text_8">
      <!-- 2 -->
      <g transform="translate(28.349375 216.451287) scale(0.1 -0.1)">
       <use xlink:href="#DejaVuSans-32"/>
      </g>
     </g>
    </g>
    <g id="ytick_4">
     <g id="line2d_9">
      <g>
       <use xlink:href="#mc2630ad92c" x="41.711875" y="188.717166" style="stroke: #000000; stroke-width: 0.8"/>
      </g>
     </g>
     <g id="text_9">
      <!-- 3 -->
      <g transform="translate(28.349375 192.516384) scale(0.1 -0.1)">
       <defs>
        <path id="DejaVuSans-33" d="M 2597 2516 
Q 3050 2419 3304 2112 
Q 3559 1806 3559 1356 
Q 3559 666 3084 287 
Q 2609 -91 1734 -91 
Q 1441 -91 1130 -33 
Q 819 25 488 141 
L 488 750 
Q 750 597 1062 519 
Q 1375 441 1716 441 
Q 2309 441 2620 675 
Q 2931 909 2931 1356 
Q 2931 1769 2642 2001 
Q 2353 2234 1838 2234 
L 1294 2234 
L 1294 2753 
L 1863 2753 
Q 2328 2753 2575 2939 
Q 2822 3125 2822 3475 
Q 2822 3834 2567 4026 
Q 2313 4219 1838 4219 
Q 1578 4219 1281 4162 
Q 984 4106 628 3988 
L 628 4550 
Q 988 4650 1302 4700 
Q 1616 4750 1894 4750 
Q 2613 4750 3031 4423 
Q 3450 4097 3450 3541 
Q 3450 3153 3228 2886 
Q 3006 2619 2597 2516 
z
" transform="scale(0.015625)"/>
       </defs>
       <use xlink:href="#DejaVuSans-33"/>
      </g>
     </g>
    </g>
    <g id="ytick_5">
     <g id="line2d_10">
      <g>
       <use xlink:href="#mc2630ad92c" x="41.711875" y="164.782262" style="stroke: #000000; stroke-width: 0.8"/>
      </g>
     </g>
     <g id="text_10">
      <!-- 4 -->
      <g transform="translate(28.349375 168.581481) scale(0.1 -0.1)">
       <use xlink:href="#DejaVuSans-34"/>
      </g>
     </g>
    </g>
    <g id="ytick_6">
     <g id="line2d_11">
      <g>
       <use xlink:href="#mc2630ad92c" x="41.711875" y="140.847359" style="stroke: #000000; stroke-width: 0.8"/>
      </g>
     </g>
     <g id="text_11">
      <!-- 5 -->
      <g transform="translate(28.349375 144.646578) scale(0.1 -0.1)">
       <defs>
        <path id="DejaVuSans-35" d="M 691 4666 
L 3169 4666 
L 3169 4134 
L 1269 4134 
L 1269 2991 
Q 1406 3038 1543 3061 
Q 1681 3084 1819 3084 
Q 2600 3084 3056 2656 
Q 3513 2228 3513 1497 
Q 3513 744 3044 326 
Q 2575 -91 1722 -91 
Q 1428 -91 1123 -41 
Q 819 9 494 109 
L 494 744 
Q 775 591 1075 516 
Q 1375 441 1709 441 
Q 2250 441 2565 725 
Q 2881 1009 2881 1497 
Q 2881 1984 2565 2268 
Q 2250 2553 1709 2553 
Q 1456 2553 1204 2497 
Q 953 2441 691 2322 
L 691 4666 
z
" transform="scale(0.015625)"/>
       </defs>
       <use xlink:href="#DejaVuSans-35"/>
      </g>
     </g>
    </g>
    <g id="ytick_7">
     <g id="line2d_12">
      <g>
       <use xlink:href="#mc2630ad92c" x="41.711875" y="116.912456" style="stroke: #000000; stroke-width: 0.8"/>
      </g>
     </g>
     <g id="text_12">
      <!-- 6 -->
      <g transform="translate(28.349375 120.711675) scale(0.1 -0.1)">
       <use xlink:href="#DejaVuSans-36"/>
      </g>
     </g>
    </g>
    <g id="ytick_8">
     <g id="line2d_13">
      <g>
       <use xlink:href="#mc2630ad92c" x="41.711875" y="92.977553" style="stroke: #000000; stroke-width: 0.8"/>
      </g>
     </g>
     <g id="text_13">
      <!-- 7 -->
      <g transform="translate(28.349375 96.776772) scale(0.1 -0.1)">
       <defs>
        <path id="DejaVuSans-37" d="M 525 4666 
L 3525 4666 
L 3525 4397 
L 1831 0 
L 1172 0 
L 2766 4134 
L 525 4134 
L 525 4666 
z
" transform="scale(0.015625)"/>
       </defs>
       <use xlink:href="#DejaVuSans-37"/>
      </g>
     </g>
    </g>
    <g id="ytick_9">
     <g id="line2d_14">
      <g>
       <use xlink:href="#mc2630ad92c" x="41.711875" y="69.04265" style="stroke: #000000; stroke-width: 0.8"/>
      </g>
     </g>
     <g id="text_14">
      <!-- 8 -->
      <g transform="translate(28.349375 72.841869) scale(0.1 -0.1)">
       <use xlink:href="#DejaVuSans-38"/>
      </g>
     </g>
    </g>
    <g id="text_15">
     <!-- Fraction of cells -->
     <g transform="translate(21.437812 213.889844) rotate(-90) scale(0.14 -0.14)">
      <defs>
       <path id="DejaVuSans-46" d="M 628 4666 
L 3309 4666 
L 3309 4134 
L 1259 4134 
L 1259 2759 
L 3109 2759 
L 3109 2228 
L 1259 2228 
L 1259 0 
L 628 0 
L 628 4666 
z
" transform="scale(0.015625)"/>
       <path id="DejaVuSans-72" d="M 2631 2963 
Q 2534 3019 2420 3045 
Q 2306 3072 2169 3072 
Q 1681 3072 1420 2755 
Q 1159 2438 1159 1844 
L 1159 0 
L 581 0 
L 581 3500 
L 1159 3500 
L 1159 2956 
Q 1341 3275 1631 3429 
Q 1922 3584 2338 3584 
Q 2397 3584 2469 3576 
Q 2541 3569 2628 3553 
L 2631 2963 
z
" transform="scale(0.015625)"/>
       <path id="DejaVuSans-61" d="M 2194 1759 
Q 1497 1759 1228 1600 
Q 959 1441 959 1056 
Q 959 750 1161 570 
Q 1363 391 1709 391 
Q 2188 391 2477 730 
Q 2766 1069 2766 1631 
L 2766 1759 
L 2194 1759 
z
M 3341 1997 
L 3341 0 
L 2766 0 
L 2766 531 
Q 2569 213 2275 61 
Q 1981 -91 1556 -91 
Q 1019 -91 701 211 
Q 384 513 384 1019 
Q 384 1609 779 1909 
Q 1175 2209 1959 2209 
L 2766 2209 
L 2766 2266 
Q 2766 2663 2505 2880 
Q 2244 3097 1772 3097 
Q 1472 3097 1187 3025 
Q 903 2953 641 2809 
L 641 3341 
Q 956 3463 1253 3523 
Q 1550 3584 1831 3584 
Q 2591 3584 2966 3190 
Q 3341 2797 3341 1997 
z
" transform="scale(0.015625)"/>
       <path id="DejaVuSans-63" d="M 3122 3366 
L 3122 2828 
Q 2878 2963 2633 3030 
Q 2388 3097 2138 3097 
Q 1578 3097 1268 2742 
Q 959 2388 959 1747 
Q 959 1106 1268 751 
Q 1578 397 2138 397 
Q 2388 397 2633 464 
Q 2878 531 3122 666 
L 3122 134 
Q 2881 22 2623 -34 
Q 2366 -91 2075 -91 
Q 1284 -91 818 406 
Q 353 903 353 1747 
Q 353 2603 823 3093 
Q 1294 3584 2113 3584 
Q 2378 3584 2631 3529 
Q 2884 3475 3122 3366 
z
" transform="scale(0.015625)"/>
       <path id="DejaVuSans-74" d="M 1172 4494 
L 1172 3500 
L 2356 3500 
L 2356 3053 
L 1172 3053 
L 1172 1153 
Q 1172 725 1289 603 
Q 1406 481 1766 481 
L 2356 481 
L 2356 0 
L 1766 0 
Q 1100 0 847 248 
Q 594 497 594 1153 
L 594 3053 
L 172 3053 
L 172 3500 
L 594 3500 
L 594 4494 
L 1172 4494 
z
" transform="scale(0.015625)"/>
       <path id="DejaVuSans-69" d="M 603 3500 
L 1178 3500 
L 1178 0 
L 603 0 
L 603 3500 
z
M 603 4863 
L 1178 4863 
L 1178 4134 
L 603 4134 
L 603 4863 
z
" transform="scale(0.015625)"/>
       <path id="DejaVuSans-6f" d="M 1959 3097 
Q 1497 3097 1228 2736 
Q 959 2375 959 1747 
Q 959 1119 1226 758 
Q 1494 397 1959 397 
Q 2419 397 2687 759 
Q 2956 1122 2956 1747 
Q 2956 2369 2687 2733 
Q 2419 3097 1959 3097 
z
M 1959 3584 
Q 2709 3584 3137 3096 
Q 3566 2609 3566 1747 
Q 3566 888 3137 398 
Q 2709 -91 1959 -91 
Q 1206 -91 779 398 
Q 353 888 353 1747 
Q 353 2609 779 3096 
Q 1206 3584 1959 3584 
z
" transform="scale(0.015625)"/>
       <path id="DejaVuSans-6e" d="M 3513 2113 
L 3513 0 
L 2938 0 
L 2938 2094 
Q 2938 2591 2744 2837 
Q 2550 3084 2163 3084 
Q 1697 3084 1428 2787 
Q 1159 2491 1159 1978 
L 1159 0 
L 581 0 
L 581 3500 
L 1159 3500 
L 1159 2956 
Q 1366 3272 1645 3428 
Q 1925 3584 2291 3584 
Q 2894 3584 3203 3211 
Q 3513 2838 3513 2113 
z
" transform="scale(0.015625)"/>
       <path id="DejaVuSans-20" transform="scale(0.015625)"/>
       <path id="DejaVuSans-66" d="M 2375 4863 
L 2375 4384 
L 1825 4384 
Q 1516 4384 1395 4259 
Q 1275 4134 1275 3809 
L 1275 3500 
L 2222 3500 
L 2222 3053 
L 1275 3053 
L 1275 0 
L 697 0 
L 697 3053 
L 147 3053 
L 147 3500 
L 697 3500 
L 697 3744 
Q 697 4328 969 4595 
Q 1241 4863 1831 4863 
L 2375 4863 
z
" transform="scale(0.015625)"/>
       <path id="DejaVuSans-65" d="M 3597 1894 
L 3597 1613 
L 953 1613 
Q 991 1019 1311 708 
Q 1631 397 2203 397 
Q 2534 397 2845 478 
Q 3156 559 3463 722 
L 3463 178 
Q 3153 47 2828 -22 
Q 2503 -91 2169 -91 
Q 1331 -91 842 396 
Q 353 884 353 1716 
Q 353 2575 817 3079 
Q 1281 3584 2069 3584 
Q 2775 3584 3186 3129 
Q 3597 2675 3597 1894 
z
M 3022 2063 
Q 3016 2534 2758 2815 
Q 2500 3097 2075 3097 
Q 1594 3097 1305 2825 
Q 1016 2553 972 2059 
L 3022 2063 
z
" transform="scale(0.015625)"/>
       <path id="DejaVuSans-6c" d="M 603 4863 
L 1178 4863 
L 1178 0 
L 603 0 
L 603 4863 
z
" transform="scale(0.015625)"/>
       <path id="DejaVuSans-73" d="M 2834 3397 
L 2834 2853 
Q 2591 2978 2328 3040 
Q 2066 3103 1784 3103 
Q 1356 3103 1142 2972 
Q 928 2841 928 2578 
Q 928 2378 1081 2264 
Q 1234 2150 1697 2047 
L 1894 2003 
Q 2506 1872 2764 1633 
Q 3022 1394 3022 966 
Q 3022 478 2636 193 
Q 2250 -91 1575 -91 
Q 1294 -91 989 -36 
Q 684 19 347 128 
L 347 722 
Q 666 556 975 473 
Q 1284 391 1588 391 
Q 1994 391 2212 530 
Q 2431 669 2431 922 
Q 2431 1156 2273 1281 
Q 2116 1406 1581 1522 
L 1381 1569 
Q 847 1681 609 1914 
Q 372 2147 372 2553 
Q 372 3047 722 3315 
Q 1072 3584 1716 3584 
Q 2034 3584 2315 3537 
Q 2597 3491 2834 3397 
z
" transform="scale(0.015625)"/>
      </defs>
      <use xlink:href="#DejaVuSans-46"/>
      <use xlink:href="#DejaVuSans-72" x="50.269531"/>
      <use xlink:href="#DejaVuSans-61" x="91.382812"/>
      <use xlink:href="#DejaVuSans-63" x="152.662109"/>
      <use xlink:href="#DejaVuSans-74" x="207.642578"/>
      <use xlink:href="#DejaVuSans-69" x="246.851562"/>
      <use xlink:href="#DejaVuSans-6f" x="274.634766"/>
      <use xlink:href="#DejaVuSans-6e" x="335.816406"/>
      <use xlink:href="#DejaVuSans-20" x="399.195312"/>
      <use xlink:href="#DejaVuSans-6f" x="430.982422"/>
      <use xlink:href="#DejaVuSans-66" x="492.164062"/>
      <use xlink:href="#DejaVuSans-20" x="527.369141"/>
      <use xlink:href="#DejaVuSans-63" x="559.15625"/>
      <use xlink:href="#DejaVuSans-65" x="614.136719"/>
      <use xlink:href="#DejaVuSans-6c" x="675.660156"/>
      <use xlink:href="#DejaVuSans-6c" x="703.443359"/>
      <use xlink:href="#DejaVuSans-73" x="731.226562"/>
     </g>
    </g>
   </g>
   <g id="line2d_15">
    <path d="M -1 260.521418 
L 3.355362 260.520059 
L 8.635112 260.506567 
L 13.914863 260.420692 
L 19.194613 259.994795 
L 24.474363 258.347513 
L 29.754113 253.385353 
L 35.033863 241.797002 
L 40.313613 221.022928 
L 45.593364 193.027483 
L 50.873114 166.074688 
L 56.152864 150.463782 
L 61.432614 150.66965 
L 66.712364 161.822876 
L 71.992115 174.446888 
L 77.271865 182.605653 
L 82.551615 187.447839 
L 87.831365 193.364623 
L 93.111115 201.997405 
L 98.390865 211.10143 
L 103.670616 218.268433 
L 108.950366 223.650359 
L 114.230116 228.85335 
L 119.509866 234.601208 
L 124.789616 240.174298 
L 130.069367 244.698832 
L 135.349117 248.218712 
L 140.628867 251.190492 
L 145.908617 253.518535 
L 151.188367 254.802164 
L 156.468117 255.295578 
L 161.747868 255.88362 
L 167.027618 257.066528 
L 172.307368 258.505364 
L 177.587118 259.621995 
L 182.866868 260.217153 
L 188.146619 260.443763 
L 193.426369 260.506729 
L 198.706119 260.519654 
L 203.985869 260.521629 
L 209.265619 260.521854 
L 214.545369 260.521874 
L 219.82512 260.521875 
L 225.10487 260.521875 
L 230.38462 260.521875 
L 235.66437 260.521875 
L 240.94412 260.521875 
L 246.22387 260.521875 
L 251.503621 260.521875 
L 256.783371 260.521875 
L 262.063121 260.521875 
L 267.342871 260.521875 
L 272.622621 260.521875 
L 277.902372 260.521875 
L 283.182122 260.521875 
L 288.461872 260.521875 
L 293.741622 260.521875 
L 299.021372 260.521875 
L 304.301122 260.521875 
L 309.580873 260.521875 
L 314.860623 260.521875 
L 320.140373 260.521875 
L 325.420123 260.521875 
L 330.699873 260.521875 
L 335.979624 260.521875 
L 341.259374 260.521875 
L 346.539124 260.521875 
L 351.818874 260.521875 
L 357.098624 260.521875 
L 362.378374 260.521875 
L 367.658125 260.521875 
L 372.937875 260.521875 
L 378.217625 260.521875 
L 383.497375 260.521875 
L 388.777125 260.521875 
L 394.056875 260.521875 
L 399.336626 260.521875 
L 404.616376 260.521875 
L 409.896126 260.521875 
L 415.175876 260.521875 
L 420.455626 260.521875 
L 425.735377 260.521875 
L 431.015127 260.521875 
L 436.294877 260.521875 
L 441.574627 260.521875 
L 446.854377 260.521875 
L 452.134127 260.521875 
L 457.413878 260.521875 
L 462.693628 260.521875 
L 467.973378 260.521875 
L 473.253128 260.521875 
L 478.532878 260.521875 
" clip-path="url(#p6cbc1d920e)" style="fill: none; stroke: #ff7f0e; stroke-width: 1.5; stroke-linecap: square"/>
   </g>
   <g id="line2d_16">
    <path d="M -1 260.483904 
L 3.355362 260.454244 
L 8.635112 260.384063 
L 13.914863 260.253767 
L 19.194613 260.023678 
L 24.474363 259.637233 
L 29.754113 259.019969 
L 35.033863 258.082417 
L 40.313613 256.728483 
L 45.593364 254.86984 
L 50.873114 252.444981 
L 56.152864 249.439323 
L 61.432614 245.901087 
L 66.712364 241.947381 
L 71.992115 237.7568 
L 77.271865 233.54843 
L 82.551615 229.551402 
L 87.831365 225.97223 
L 93.111115 222.967803 
L 98.390865 220.62966 
L 103.670616 218.981182 
L 108.950366 217.985417 
L 114.230116 217.559203 
L 119.509866 217.58961 
L 124.789616 217.950751 
L 130.069367 218.520854 
L 135.349117 219.199725 
L 140.628867 219.924994 
L 145.908617 220.683298 
L 151.188367 221.511499 
L 156.468117 222.484919 
L 161.747868 223.693805 
L 167.027618 225.214105 
L 172.307368 227.0814 
L 177.587118 229.275921 
L 182.866868 231.722398 
L 188.146619 234.303074 
L 193.426369 236.878402 
L 198.706119 239.309074 
L 203.985869 241.474911 
L 209.265619 243.288881 
L 214.545369 244.706278 
L 219.82512 245.729125 
L 225.10487 246.404965 
L 230.38462 246.818801 
L 235.66437 247.078141 
L 240.94412 247.293575 
L 246.22387 247.559678 
L 251.503621 247.941577 
L 256.783371 248.470665 
L 262.063121 249.149324 
L 267.342871 249.961094 
L 272.622621 250.881166 
L 277.902372 251.883086 
L 283.182122 252.940358 
L 288.461872 254.024574 
L 293.741622 255.103199 
L 299.021372 256.139725 
L 304.301122 257.097069 
L 309.580873 257.943075 
L 314.860623 258.65589 
L 320.140373 259.227123 
L 325.420123 259.661841 
L 330.699873 259.975719 
L 335.979624 260.190639 
L 341.259374 260.330173 
L 346.539124 260.41607 
L 351.818874 260.466213 
L 357.098624 260.493974 
L 362.378374 260.508554 
L 367.658125 260.515819 
L 372.937875 260.519254 
L 378.217625 260.520795 
L 383.497375 260.521452 
L 388.777125 260.521717 
L 394.056875 260.521819 
L 399.336626 260.521856 
L 404.616376 260.521869 
L 409.896126 260.521873 
L 415.175876 260.521874 
L 420.455626 260.521875 
L 425.735377 260.521875 
L 431.015127 260.521875 
L 436.294877 260.521875 
L 441.574627 260.521875 
L 446.854377 260.521875 
L 452.134127 260.521875 
L 457.413878 260.521875 
L 462.693628 260.521875 
L 467.973378 260.521875 
L 473.253128 260.521875 
L 478.532878 260.521875 
" clip-path="url(#p6cbc1d920e)" style="fill: none; stroke: #ff7f0e; stroke-width: 1.5; stroke-linecap: square"/>
   </g>
   <g id="line2d_17">
    <path d="M -1 260.521838 
L 3.355362 260.521731 
L 8.635112 260.520655 
L 13.914863 260.513427 
L 19.194613 260.473835 
L 24.474363 260.296779 
L 29.754113 259.649033 
L 35.033863 257.705826 
L 40.313613 252.912993 
L 45.593364 243.17166 
L 50.873114 226.845035 
L 56.152864 204.35894 
L 61.432614 179.237985 
L 66.712364 157.284141 
L 71.992115 143.918164 
L 77.271865 141.513119 
L 82.551615 148.822448 
L 87.831365 162.599374 
L 93.111115 179.435728 
L 98.390865 196.365025 
L 103.670616 210.875821 
L 108.950366 221.448528 
L 114.230116 228.229843 
L 119.509866 232.722905 
L 124.789616 236.563981 
L 130.069367 240.581595 
L 135.349117 244.751205 
L 140.628867 248.555749 
L 145.908617 251.2748 
L 151.188367 252.337763 
L 156.468117 251.828947 
L 161.747868 250.700409 
L 167.027618 250.267001 
L 172.307368 251.300076 
L 177.587118 253.555672 
L 182.866868 256.13572 
L 188.146619 258.226516 
L 193.426369 259.525467 
L 198.706119 260.163898 
L 203.985869 260.41572 
L 209.265619 260.495966 
L 214.545369 260.516685 
L 219.82512 260.521024 
L 225.10487 260.521761 
L 230.38462 260.521863 
L 235.66437 260.521874 
L 240.94412 260.521875 
L 246.22387 260.521875 
L 251.503621 260.521875 
L 256.783371 260.521875 
L 262.063121 260.521875 
L 267.342871 260.521875 
L 272.622621 260.521875 
L 277.902372 260.521875 
L 283.182122 260.521875 
L 288.461872 260.521875 
L 293.741622 260.521875 
L 299.021372 260.521875 
L 304.301122 260.521875 
L 309.580873 260.521875 
L 314.860623 260.521875 
L 320.140373 260.521875 
L 325.420123 260.521875 
L 330.699873 260.521875 
L 335.979624 260.521875 
L 341.259374 260.521875 
L 346.539124 260.521875 
L 351.818874 260.521875 
L 357.098624 260.521875 
L 362.378374 260.521875 
L 367.658125 260.521875 
L 372.937875 260.521875 
L 378.217625 260.521875 
L 383.497375 260.521875 
L 388.777125 260.521875 
L 394.056875 260.521875 
L 399.336626 260.521875 
L 404.616376 260.521875 
L 409.896126 260.521875 
L 415.175876 260.521875 
L 420.455626 260.521875 
L 425.735377 260.521875 
L 431.015127 260.521875 
L 436.294877 260.521875 
L 441.574627 260.521875 
L 446.854377 260.521875 
L 452.134127 260.521875 
L 457.413878 260.521875 
L 462.693628 260.521875 
L 467.973378 260.521875 
L 473.253128 260.521875 
L 478.532878 260.521875 
" clip-path="url(#p6cbc1d920e)" style="fill: none; stroke: #ff7f0e; stroke-width: 1.5; stroke-linecap: square"/>
   </g>
   <g id="patch_63">
    <path d="M 41.711875 260.521875 
L 41.711875 57.594062 
" style="fill: none; stroke: #000000; stroke-width: 0.8; stroke-linejoin: miter; stroke-linecap: square"/>
   </g>
   <g id="patch_64">
    <path d="M 287.53125 260.521875 
L 287.53125 57.594062 
" style="fill: none; stroke: #000000; stroke-width: 0.8; stroke-linejoin: miter; stroke-linecap: square"/>
   </g>
   <g id="patch_65">
    <path d="M 41.711875 260.521875 
L 287.53125 260.521875 
" style="fill: none; stroke: #000000; stroke-width: 0.8; stroke-linejoin: miter; stroke-linecap: square"/>
   </g>
   <g id="patch_66">
    <path d="M 41.711875 57.594062 
L 287.53125 57.594062 
" style="fill: none; stroke: #000000; stroke-width: 0.8; stroke-linejoin: miter; stroke-linecap: square"/>
   </g>
   <g id="text_16">
    <!-- Cell line: dlm8 -->
    <g transform="translate(114.435937 51.594062) scale(0.14 -0.14)">
     <defs>
      <path id="DejaVuSans-43" d="M 4122 4306 
L 4122 3641 
Q 3803 3938 3442 4084 
Q 3081 4231 2675 4231 
Q 1875 4231 1450 3742 
Q 1025 3253 1025 2328 
Q 1025 1406 1450 917 
Q 1875 428 2675 428 
Q 3081 428 3442 575 
Q 3803 722 4122 1019 
L 4122 359 
Q 3791 134 3420 21 
Q 3050 -91 2638 -91 
Q 1578 -91 968 557 
Q 359 1206 359 2328 
Q 359 3453 968 4101 
Q 1578 4750 2638 4750 
Q 3056 4750 3426 4639 
Q 3797 4528 4122 4306 
z
" transform="scale(0.015625)"/>
      <path id="DejaVuSans-3a" d="M 750 794 
L 1409 794 
L 1409 0 
L 750 0 
L 750 794 
z
M 750 3309 
L 1409 3309 
L 1409 2516 
L 750 2516 
L 750 3309 
z
" transform="scale(0.015625)"/>
      <path id="DejaVuSans-64" d="M 2906 2969 
L 2906 4863 
L 3481 4863 
L 3481 0 
L 2906 0 
L 2906 525 
Q 2725 213 2448 61 
Q 2172 -91 1784 -91 
Q 1150 -91 751 415 
Q 353 922 353 1747 
Q 353 2572 751 3078 
Q 1150 3584 1784 3584 
Q 2172 3584 2448 3432 
Q 2725 3281 2906 2969 
z
M 947 1747 
Q 947 1113 1208 752 
Q 1469 391 1925 391 
Q 2381 391 2643 752 
Q 2906 1113 2906 1747 
Q 2906 2381 2643 2742 
Q 2381 3103 1925 3103 
Q 1469 3103 1208 2742 
Q 947 2381 947 1747 
z
" transform="scale(0.015625)"/>
      <path id="DejaVuSans-6d" d="M 3328 2828 
Q 3544 3216 3844 3400 
Q 4144 3584 4550 3584 
Q 5097 3584 5394 3201 
Q 5691 2819 5691 2113 
L 5691 0 
L 5113 0 
L 5113 2094 
Q 5113 2597 4934 2840 
Q 4756 3084 4391 3084 
Q 3944 3084 3684 2787 
Q 3425 2491 3425 1978 
L 3425 0 
L 2847 0 
L 2847 2094 
Q 2847 2600 2669 2842 
Q 2491 3084 2119 3084 
Q 1678 3084 1418 2786 
Q 1159 2488 1159 1978 
L 1159 0 
L 581 0 
L 581 3500 
L 1159 3500 
L 1159 2956 
Q 1356 3278 1631 3431 
Q 1906 3584 2284 3584 
Q 2666 3584 2933 3390 
Q 3200 3197 3328 2828 
z
" transform="scale(0.015625)"/>
     </defs>
     <use xlink:href="#DejaVuSans-43"/>
     <use xlink:href="#DejaVuSans-65" x="69.824219"/>
     <use xlink:href="#DejaVuSans-6c" x="131.347656"/>
     <use xlink:href="#DejaVuSans-6c" x="159.130859"/>
     <use xlink:href="#DejaVuSans-20" x="186.914062"/>
     <use xlink:href="#DejaVuSans-6c" x="218.701172"/>
     <use xlink:href="#DejaVuSans-69" x="246.484375"/>
     <use xlink:href="#DejaVuSans-6e" x="274.267578"/>
     <use xlink:href="#DejaVuSans-65" x="337.646484"/>
     <use xlink:href="#DejaVuSans-3a" x="399.169922"/>
     <use xlink:href="#DejaVuSans-20" x="432.861328"/>
     <use xlink:href="#DejaVuSans-64" x="464.648438"/>
     <use xlink:href="#DejaVuSans-6c" x="528.125"/>
     <use xlink:href="#DejaVuSans-6d" x="555.908203"/>
     <use xlink:href="#DejaVuSans-38" x="653.320312"/>
    </g>
   </g>
   <g id="legend_1">
    <g id="patch_67">
     <path d="M 199.141875 120.035312 
L 279.13125 120.035312 
Q 281.53125 120.035312 281.53125 117.635312 
L 281.53125 65.994062 
Q 281.53125 63.594062 279.13125 63.594062 
L 199.141875 63.594062 
Q 196.741875 63.594062 196.741875 65.994062 
L 196.741875 117.635312 
Q 196.741875 120.035312 199.141875 120.035312 
z
" style="fill: #ffffff; opacity: 0.8; stroke: #cccccc; stroke-linejoin: miter"/>
    </g>
    <g id="patch_68">
     <path d="M 201.541875 77.512187 
L 225.541875 77.512187 
L 225.541875 69.112187 
L 201.541875 69.112187 
z
" style="fill: #1f77b4; opacity: 0.4"/>
    </g>
    <g id="text_17">
     <!-- control -->
     <g transform="translate(235.141875 77.512187) scale(0.12 -0.12)">
      <use xlink:href="#DejaVuSans-63"/>
      <use xlink:href="#DejaVuSans-6f" x="54.980469"/>
      <use xlink:href="#DejaVuSans-6e" x="116.162109"/>
      <use xlink:href="#DejaVuSans-74" x="179.541016"/>
      <use xlink:href="#DejaVuSans-72" x="218.75"/>
      <use xlink:href="#DejaVuSans-6f" x="257.613281"/>
      <use xlink:href="#DejaVuSans-6c" x="318.794922"/>
     </g>
    </g>
    <g id="patch_69">
     <path d="M 201.541875 95.125937 
L 225.541875 95.125937 
L 225.541875 86.725937 
L 201.541875 86.725937 
z
" style="fill: #ff7f0e; opacity: 0.4"/>
    </g>
    <g id="text_18">
     <!-- cytd -->
     <g transform="translate(235.141875 95.125937) scale(0.12 -0.12)">
      <defs>
       <path id="DejaVuSans-79" d="M 2059 -325 
Q 1816 -950 1584 -1140 
Q 1353 -1331 966 -1331 
L 506 -1331 
L 506 -850 
L 844 -850 
Q 1081 -850 1212 -737 
Q 1344 -625 1503 -206 
L 1606 56 
L 191 3500 
L 800 3500 
L 1894 763 
L 2988 3500 
L 3597 3500 
L 2059 -325 
z
" transform="scale(0.015625)"/>
      </defs>
      <use xlink:href="#DejaVuSans-63"/>
      <use xlink:href="#DejaVuSans-79" x="54.980469"/>
      <use xlink:href="#DejaVuSans-74" x="114.160156"/>
      <use xlink:href="#DejaVuSans-64" x="153.369141"/>
     </g>
    </g>
    <g id="patch_70">
     <path d="M 201.541875 112.739687 
L 225.541875 112.739687 
L 225.541875 104.339687 
L 201.541875 104.339687 
z
" style="fill: #2ca02c; opacity: 0.4"/>
    </g>
    <g id="text_19">
     <!-- jasp -->
     <g transform="translate(235.141875 112.739687) scale(0.12 -0.12)">
      <defs>
       <path id="DejaVuSans-6a" d="M 603 3500 
L 1178 3500 
L 1178 -63 
Q 1178 -731 923 -1031 
Q 669 -1331 103 -1331 
L -116 -1331 
L -116 -844 
L 38 -844 
Q 366 -844 484 -692 
Q 603 -541 603 -63 
L 603 3500 
z
M 603 4863 
L 1178 4863 
L 1178 4134 
L 603 4134 
L 603 4863 
z
" transform="scale(0.015625)"/>
       <path id="DejaVuSans-70" d="M 1159 525 
L 1159 -1331 
L 581 -1331 
L 581 3500 
L 1159 3500 
L 1159 2969 
Q 1341 3281 1617 3432 
Q 1894 3584 2278 3584 
Q 2916 3584 3314 3078 
Q 3713 2572 3713 1747 
Q 3713 922 3314 415 
Q 2916 -91 2278 -91 
Q 1894 -91 1617 61 
Q 1341 213 1159 525 
z
M 3116 1747 
Q 3116 2381 2855 2742 
Q 2594 3103 2138 3103 
Q 1681 3103 1420 2742 
Q 1159 2381 1159 1747 
Q 1159 1113 1420 752 
Q 1681 391 2138 391 
Q 2594 391 2855 752 
Q 3116 1113 3116 1747 
z
" transform="scale(0.015625)"/>
      </defs>
      <use xlink:href="#DejaVuSans-6a"/>
      <use xlink:href="#DejaVuSans-61" x="27.783203"/>
      <use xlink:href="#DejaVuSans-73" x="89.0625"/>
      <use xlink:href="#DejaVuSans-70" x="141.162109"/>
     </g>
    </g>
   </g>
  </g>
  <g id="axes_2">
   <g id="patch_71">
    <path d="M 319.380625 260.521875 
L 565.2 260.521875 
L 565.2 57.594062 
L 319.380625 57.594062 
z
" style="fill: #ffffff"/>
   </g>
   <g id="patch_72">
    <path d="M 319.380625 260.521875 
L 328.008287 260.521875 
L 328.008287 185.88624 
L 319.380625 185.88624 
z
" clip-path="url(#pb07569f1df)" style="fill: #1f77b4; opacity: 0.4"/>
   </g>
   <g id="patch_73">
    <path d="M 328.008287 260.521875 
L 336.63595 260.521875 
L 336.63595 100.588371 
L 328.008287 100.588371 
z
" clip-path="url(#pb07569f1df)" style="fill: #1f77b4; opacity: 0.4"/>
   </g>
   <g id="patch_74">
    <path d="M 336.63595 260.521875 
L 345.263612 260.521875 
L 345.263612 207.210707 
L 336.63595 207.210707 
z
" clip-path="url(#pb07569f1df)" style="fill: #1f77b4; opacity: 0.4"/>
   </g>
   <g id="patch_75">
    <path d="M 345.263612 260.521875 
L 353.891274 260.521875 
L 353.891274 224.981096 
L 345.263612 224.981096 
z
" clip-path="url(#pb07569f1df)" style="fill: #1f77b4; opacity: 0.4"/>
   </g>
   <g id="patch_76">
    <path d="M 353.891274 260.521875 
L 362.518937 260.521875 
L 362.518937 239.197408 
L 353.891274 239.197408 
z
" clip-path="url(#pb07569f1df)" style="fill: #1f77b4; opacity: 0.4"/>
   </g>
   <g id="patch_77">
    <path d="M 362.518937 260.521875 
L 371.146599 260.521875 
L 371.146599 239.197408 
L 362.518937 239.197408 
z
" clip-path="url(#pb07569f1df)" style="fill: #1f77b4; opacity: 0.4"/>
   </g>
   <g id="patch_78">
    <path d="M 371.146599 260.521875 
L 379.774261 260.521875 
L 379.774261 224.981096 
L 371.146599 224.981096 
z
" clip-path="url(#pb07569f1df)" style="fill: #1f77b4; opacity: 0.4"/>
   </g>
   <g id="patch_79">
    <path d="M 379.774261 260.521875 
L 388.401924 260.521875 
L 388.401924 217.872941 
L 379.774261 217.872941 
z
" clip-path="url(#pb07569f1df)" style="fill: #1f77b4; opacity: 0.4"/>
   </g>
   <g id="patch_80">
    <path d="M 388.401924 260.521875 
L 397.029586 260.521875 
L 397.029586 224.981096 
L 388.401924 224.981096 
z
" clip-path="url(#pb07569f1df)" style="fill: #1f77b4; opacity: 0.4"/>
   </g>
   <g id="patch_81">
    <path d="M 397.029586 260.521875 
L 405.657249 260.521875 
L 405.657249 192.994396 
L 397.029586 192.994396 
z
" clip-path="url(#pb07569f1df)" style="fill: #1f77b4; opacity: 0.4"/>
   </g>
   <g id="patch_82">
    <path d="M 405.657249 260.521875 
L 414.284911 260.521875 
L 414.284911 228.535174 
L 405.657249 228.535174 
z
" clip-path="url(#pb07569f1df)" style="fill: #1f77b4; opacity: 0.4"/>
   </g>
   <g id="patch_83">
    <path d="M 414.284911 260.521875 
L 422.912573 260.521875 
L 422.912573 239.197408 
L 414.284911 239.197408 
z
" clip-path="url(#pb07569f1df)" style="fill: #1f77b4; opacity: 0.4"/>
   </g>
   <g id="patch_84">
    <path d="M 422.912573 260.521875 
L 431.540236 260.521875 
L 431.540236 224.981096 
L 422.912573 224.981096 
z
" clip-path="url(#pb07569f1df)" style="fill: #1f77b4; opacity: 0.4"/>
   </g>
   <g id="patch_85">
    <path d="M 431.540236 260.521875 
L 440.167898 260.521875 
L 440.167898 235.64333 
L 431.540236 235.64333 
z
" clip-path="url(#pb07569f1df)" style="fill: #1f77b4; opacity: 0.4"/>
   </g>
   <g id="patch_86">
    <path d="M 440.167898 260.521875 
L 448.79556 260.521875 
L 448.79556 235.64333 
L 440.167898 235.64333 
z
" clip-path="url(#pb07569f1df)" style="fill: #1f77b4; opacity: 0.4"/>
   </g>
   <g id="patch_87">
    <path d="M 448.79556 260.521875 
L 457.423223 260.521875 
L 457.423223 253.413719 
L 448.79556 253.413719 
z
" clip-path="url(#pb07569f1df)" style="fill: #1f77b4; opacity: 0.4"/>
   </g>
   <g id="patch_88">
    <path d="M 457.423223 260.521875 
L 466.050885 260.521875 
L 466.050885 249.859641 
L 457.423223 249.859641 
z
" clip-path="url(#pb07569f1df)" style="fill: #1f77b4; opacity: 0.4"/>
   </g>
   <g id="patch_89">
    <path d="M 466.050885 260.521875 
L 474.678547 260.521875 
L 474.678547 249.859641 
L 466.050885 249.859641 
z
" clip-path="url(#pb07569f1df)" style="fill: #1f77b4; opacity: 0.4"/>
   </g>
   <g id="patch_90">
    <path d="M 474.678547 260.521875 
L 483.30621 260.521875 
L 483.30621 253.413719 
L 474.678547 253.413719 
z
" clip-path="url(#pb07569f1df)" style="fill: #1f77b4; opacity: 0.4"/>
   </g>
   <g id="patch_91">
    <path d="M 483.30621 260.521875 
L 491.933872 260.521875 
L 491.933872 256.967797 
L 483.30621 256.967797 
z
" clip-path="url(#pb07569f1df)" style="fill: #1f77b4; opacity: 0.4"/>
   </g>
   <g id="patch_92">
    <path d="M 353.950546 260.521875 
L 364.125861 260.521875 
L 364.125861 253.911601 
L 353.950546 253.911601 
z
" clip-path="url(#pb07569f1df)" style="fill: #ff7f0e; opacity: 0.4"/>
   </g>
   <g id="patch_93">
    <path d="M 364.125861 260.521875 
L 374.301175 260.521875 
L 374.301175 260.521875 
L 364.125861 260.521875 
z
" clip-path="url(#pb07569f1df)" style="fill: #ff7f0e; opacity: 0.4"/>
   </g>
   <g id="patch_94">
    <path d="M 374.301175 260.521875 
L 384.47649 260.521875 
L 384.47649 253.911601 
L 374.301175 253.911601 
z
" clip-path="url(#pb07569f1df)" style="fill: #ff7f0e; opacity: 0.4"/>
   </g>
   <g id="patch_95">
    <path d="M 384.47649 260.521875 
L 394.651804 260.521875 
L 394.651804 253.911601 
L 384.47649 253.911601 
z
" clip-path="url(#pb07569f1df)" style="fill: #ff7f0e; opacity: 0.4"/>
   </g>
   <g id="patch_96">
    <path d="M 394.651804 260.521875 
L 404.827119 260.521875 
L 404.827119 260.521875 
L 394.651804 260.521875 
z
" clip-path="url(#pb07569f1df)" style="fill: #ff7f0e; opacity: 0.4"/>
   </g>
   <g id="patch_97">
    <path d="M 404.827119 260.521875 
L 415.002433 260.521875 
L 415.002433 234.080779 
L 404.827119 234.080779 
z
" clip-path="url(#pb07569f1df)" style="fill: #ff7f0e; opacity: 0.4"/>
   </g>
   <g id="patch_98">
    <path d="M 415.002433 260.521875 
L 425.177748 260.521875 
L 425.177748 247.301327 
L 415.002433 247.301327 
z
" clip-path="url(#pb07569f1df)" style="fill: #ff7f0e; opacity: 0.4"/>
   </g>
   <g id="patch_99">
    <path d="M 425.177748 260.521875 
L 435.353062 260.521875 
L 435.353062 240.691053 
L 425.177748 240.691053 
z
" clip-path="url(#pb07569f1df)" style="fill: #ff7f0e; opacity: 0.4"/>
   </g>
   <g id="patch_100">
    <path d="M 435.353062 260.521875 
L 445.528376 260.521875 
L 445.528376 220.860231 
L 435.353062 220.860231 
z
" clip-path="url(#pb07569f1df)" style="fill: #ff7f0e; opacity: 0.4"/>
   </g>
   <g id="patch_101">
    <path d="M 445.528376 260.521875 
L 455.703691 260.521875 
L 455.703691 214.249957 
L 445.528376 214.249957 
z
" clip-path="url(#pb07569f1df)" style="fill: #ff7f0e; opacity: 0.4"/>
   </g>
   <g id="patch_102">
    <path d="M 455.703691 260.521875 
L 465.879005 260.521875 
L 465.879005 214.249957 
L 455.703691 214.249957 
z
" clip-path="url(#pb07569f1df)" style="fill: #ff7f0e; opacity: 0.4"/>
   </g>
   <g id="patch_103">
    <path d="M 465.879005 260.521875 
L 476.05432 260.521875 
L 476.05432 214.249957 
L 465.879005 214.249957 
z
" clip-path="url(#pb07569f1df)" style="fill: #ff7f0e; opacity: 0.4"/>
   </g>
   <g id="patch_104">
    <path d="M 476.05432 260.521875 
L 486.229634 260.521875 
L 486.229634 214.249957 
L 476.05432 214.249957 
z
" clip-path="url(#pb07569f1df)" style="fill: #ff7f0e; opacity: 0.4"/>
   </g>
   <g id="patch_105">
    <path d="M 486.229634 260.521875 
L 496.404949 260.521875 
L 496.404949 181.198587 
L 486.229634 181.198587 
z
" clip-path="url(#pb07569f1df)" style="fill: #ff7f0e; opacity: 0.4"/>
   </g>
   <g id="patch_106">
    <path d="M 496.404949 260.521875 
L 506.580263 260.521875 
L 506.580263 174.588313 
L 496.404949 174.588313 
z
" clip-path="url(#pb07569f1df)" style="fill: #ff7f0e; opacity: 0.4"/>
   </g>
   <g id="patch_107">
    <path d="M 506.580263 260.521875 
L 516.755578 260.521875 
L 516.755578 247.301327 
L 506.580263 247.301327 
z
" clip-path="url(#pb07569f1df)" style="fill: #ff7f0e; opacity: 0.4"/>
   </g>
   <g id="patch_108">
    <path d="M 516.755578 260.521875 
L 526.930892 260.521875 
L 526.930892 207.639683 
L 516.755578 207.639683 
z
" clip-path="url(#pb07569f1df)" style="fill: #ff7f0e; opacity: 0.4"/>
   </g>
   <g id="patch_109">
    <path d="M 526.930892 260.521875 
L 537.106206 260.521875 
L 537.106206 214.249957 
L 526.930892 214.249957 
z
" clip-path="url(#pb07569f1df)" style="fill: #ff7f0e; opacity: 0.4"/>
   </g>
   <g id="patch_110">
    <path d="M 537.106206 260.521875 
L 547.281521 260.521875 
L 547.281521 247.301327 
L 537.106206 247.301327 
z
" clip-path="url(#pb07569f1df)" style="fill: #ff7f0e; opacity: 0.4"/>
   </g>
   <g id="patch_111">
    <path d="M 547.281521 260.521875 
L 557.456835 260.521875 
L 557.456835 240.691053 
L 547.281521 240.691053 
z
" clip-path="url(#pb07569f1df)" style="fill: #ff7f0e; opacity: 0.4"/>
   </g>
   <g id="patch_112">
    <path d="M 359.173112 260.521875 
L 365.302157 260.521875 
L 365.302157 228.292264 
L 359.173112 228.292264 
z
" clip-path="url(#pb07569f1df)" style="fill: #2ca02c; opacity: 0.4"/>
   </g>
   <g id="patch_113">
    <path d="M 365.302157 260.521875 
L 371.431203 260.521875 
L 371.431203 249.778671 
L 365.302157 249.778671 
z
" clip-path="url(#pb07569f1df)" style="fill: #2ca02c; opacity: 0.4"/>
   </g>
   <g id="patch_114">
    <path d="M 371.431203 260.521875 
L 377.560248 260.521875 
L 377.560248 249.778671 
L 371.431203 249.778671 
z
" clip-path="url(#pb07569f1df)" style="fill: #2ca02c; opacity: 0.4"/>
   </g>
   <g id="patch_115">
    <path d="M 377.560248 260.521875 
L 383.689293 260.521875 
L 383.689293 260.521875 
L 377.560248 260.521875 
z
" clip-path="url(#pb07569f1df)" style="fill: #2ca02c; opacity: 0.4"/>
   </g>
   <g id="patch_116">
    <path d="M 383.689293 260.521875 
L 389.818338 260.521875 
L 389.818338 206.805856 
L 383.689293 206.805856 
z
" clip-path="url(#pb07569f1df)" style="fill: #2ca02c; opacity: 0.4"/>
   </g>
   <g id="patch_117">
    <path d="M 389.818338 260.521875 
L 395.947384 260.521875 
L 395.947384 217.54906 
L 389.818338 217.54906 
z
" clip-path="url(#pb07569f1df)" style="fill: #2ca02c; opacity: 0.4"/>
   </g>
   <g id="patch_118">
    <path d="M 395.947384 260.521875 
L 402.076429 260.521875 
L 402.076429 196.062652 
L 395.947384 196.062652 
z
" clip-path="url(#pb07569f1df)" style="fill: #2ca02c; opacity: 0.4"/>
   </g>
   <g id="patch_119">
    <path d="M 402.076429 260.521875 
L 408.205474 260.521875 
L 408.205474 228.292264 
L 402.076429 228.292264 
z
" clip-path="url(#pb07569f1df)" style="fill: #2ca02c; opacity: 0.4"/>
   </g>
   <g id="patch_120">
    <path d="M 408.205474 260.521875 
L 414.334519 260.521875 
L 414.334519 185.319448 
L 408.205474 185.319448 
z
" clip-path="url(#pb07569f1df)" style="fill: #2ca02c; opacity: 0.4"/>
   </g>
   <g id="patch_121">
    <path d="M 414.334519 260.521875 
L 420.463564 260.521875 
L 420.463564 206.805856 
L 414.334519 206.805856 
z
" clip-path="url(#pb07569f1df)" style="fill: #2ca02c; opacity: 0.4"/>
   </g>
   <g id="patch_122">
    <path d="M 420.463564 260.521875 
L 426.59261 260.521875 
L 426.59261 174.576244 
L 420.463564 174.576244 
z
" clip-path="url(#pb07569f1df)" style="fill: #2ca02c; opacity: 0.4"/>
   </g>
   <g id="patch_123">
    <path d="M 426.59261 260.521875 
L 432.721655 260.521875 
L 432.721655 185.319448 
L 426.59261 185.319448 
z
" clip-path="url(#pb07569f1df)" style="fill: #2ca02c; opacity: 0.4"/>
   </g>
   <g id="patch_124">
    <path d="M 432.721655 260.521875 
L 438.8507 260.521875 
L 438.8507 120.860225 
L 432.721655 120.860225 
z
" clip-path="url(#pb07569f1df)" style="fill: #2ca02c; opacity: 0.4"/>
   </g>
   <g id="patch_125">
    <path d="M 438.8507 260.521875 
L 444.979745 260.521875 
L 444.979745 174.576244 
L 438.8507 174.576244 
z
" clip-path="url(#pb07569f1df)" style="fill: #2ca02c; opacity: 0.4"/>
   </g>
   <g id="patch_126">
    <path d="M 444.979745 260.521875 
L 451.108791 260.521875 
L 451.108791 174.576244 
L 444.979745 174.576244 
z
" clip-path="url(#pb07569f1df)" style="fill: #2ca02c; opacity: 0.4"/>
   </g>
   <g id="patch_127">
    <path d="M 451.108791 260.521875 
L 457.237836 260.521875 
L 457.237836 196.062652 
L 451.108791 196.062652 
z
" clip-path="url(#pb07569f1df)" style="fill: #2ca02c; opacity: 0.4"/>
   </g>
   <g id="patch_128">
    <path d="M 457.237836 260.521875 
L 463.366881 260.521875 
L 463.366881 239.035467 
L 457.237836 239.035467 
z
" clip-path="url(#pb07569f1df)" style="fill: #2ca02c; opacity: 0.4"/>
   </g>
   <g id="patch_129">
    <path d="M 463.366881 260.521875 
L 469.495926 260.521875 
L 469.495926 217.54906 
L 463.366881 217.54906 
z
" clip-path="url(#pb07569f1df)" style="fill: #2ca02c; opacity: 0.4"/>
   </g>
   <g id="patch_130">
    <path d="M 469.495926 260.521875 
L 475.624971 260.521875 
L 475.624971 249.778671 
L 469.495926 249.778671 
z
" clip-path="url(#pb07569f1df)" style="fill: #2ca02c; opacity: 0.4"/>
   </g>
   <g id="patch_131">
    <path d="M 475.624971 260.521875 
L 481.754017 260.521875 
L 481.754017 228.292264 
L 475.624971 228.292264 
z
" clip-path="url(#pb07569f1df)" style="fill: #2ca02c; opacity: 0.4"/>
   </g>
   <g id="matplotlib.axis_3">
    <g id="xtick_6">
     <g id="line2d_18">
      <g>
       <use xlink:href="#m83b869e5f3" x="338.045414" y="260.521875" style="stroke: #000000; stroke-width: 0.8"/>
      </g>
     </g>
     <g id="text_20">
      <!-- 0.4 -->
      <g transform="translate(330.093852 275.120313) scale(0.1 -0.1)">
       <use xlink:href="#DejaVuSans-30"/>
       <use xlink:href="#DejaVuSans-2e" x="63.623047"/>
       <use xlink:href="#DejaVuSans-34" x="95.410156"/>
      </g>
     </g>
    </g>
    <g id="xtick_7">
     <g id="line2d_19">
      <g>
       <use xlink:href="#m83b869e5f3" x="390.314941" y="260.521875" style="stroke: #000000; stroke-width: 0.8"/>
      </g>
     </g>
     <g id="text_21">
      <!-- 0.6 -->
      <g transform="translate(382.363378 275.120313) scale(0.1 -0.1)">
       <use xlink:href="#DejaVuSans-30"/>
       <use xlink:href="#DejaVuSans-2e" x="63.623047"/>
       <use xlink:href="#DejaVuSans-36" x="95.410156"/>
      </g>
     </g>
    </g>
    <g id="xtick_8">
     <g id="line2d_20">
      <g>
       <use xlink:href="#m83b869e5f3" x="442.584468" y="260.521875" style="stroke: #000000; stroke-width: 0.8"/>
      </g>
     </g>
     <g id="text_22">
      <!-- 0.8 -->
      <g transform="translate(434.632905 275.120313) scale(0.1 -0.1)">
       <use xlink:href="#DejaVuSans-30"/>
       <use xlink:href="#DejaVuSans-2e" x="63.623047"/>
       <use xlink:href="#DejaVuSans-38" x="95.410156"/>
      </g>
     </g>
    </g>
    <g id="xtick_9">
     <g id="line2d_21">
      <g>
       <use xlink:href="#m83b869e5f3" x="494.853994" y="260.521875" style="stroke: #000000; stroke-width: 0.8"/>
      </g>
     </g>
     <g id="text_23">
      <!-- 1.0 -->
      <g transform="translate(486.902432 275.120313) scale(0.1 -0.1)">
       <use xlink:href="#DejaVuSans-31"/>
       <use xlink:href="#DejaVuSans-2e" x="63.623047"/>
       <use xlink:href="#DejaVuSans-30" x="95.410156"/>
      </g>
     </g>
    </g>
    <g id="xtick_10">
     <g id="line2d_22">
      <g>
       <use xlink:href="#m83b869e5f3" x="547.123521" y="260.521875" style="stroke: #000000; stroke-width: 0.8"/>
      </g>
     </g>
     <g id="text_24">
      <!-- 1.2 -->
      <g transform="translate(539.171959 275.120313) scale(0.1 -0.1)">
       <use xlink:href="#DejaVuSans-31"/>
       <use xlink:href="#DejaVuSans-2e" x="63.623047"/>
       <use xlink:href="#DejaVuSans-32" x="95.410156"/>
      </g>
     </g>
    </g>
   </g>
   <g id="matplotlib.axis_4">
    <g id="ytick_10">
     <g id="line2d_23">
      <g>
       <use xlink:href="#mc2630ad92c" x="319.380625" y="260.521875" style="stroke: #000000; stroke-width: 0.8"/>
      </g>
     </g>
    </g>
    <g id="ytick_11">
     <g id="line2d_24">
      <g>
       <use xlink:href="#mc2630ad92c" x="319.380625" y="236.586972" style="stroke: #000000; stroke-width: 0.8"/>
      </g>
     </g>
    </g>
    <g id="ytick_12">
     <g id="line2d_25">
      <g>
       <use xlink:href="#mc2630ad92c" x="319.380625" y="212.652069" style="stroke: #000000; stroke-width: 0.8"/>
      </g>
     </g>
    </g>
    <g id="ytick_13">
     <g id="line2d_26">
      <g>
       <use xlink:href="#mc2630ad92c" x="319.380625" y="188.717166" style="stroke: #000000; stroke-width: 0.8"/>
      </g>
     </g>
    </g>
    <g id="ytick_14">
     <g id="line2d_27">
      <g>
       <use xlink:href="#mc2630ad92c" x="319.380625" y="164.782262" style="stroke: #000000; stroke-width: 0.8"/>
      </g>
     </g>
    </g>
    <g id="ytick_15">
     <g id="line2d_28">
      <g>
       <use xlink:href="#mc2630ad92c" x="319.380625" y="140.847359" style="stroke: #000000; stroke-width: 0.8"/>
      </g>
     </g>
    </g>
    <g id="ytick_16">
     <g id="line2d_29">
      <g>
       <use xlink:href="#mc2630ad92c" x="319.380625" y="116.912456" style="stroke: #000000; stroke-width: 0.8"/>
      </g>
     </g>
    </g>
    <g id="ytick_17">
     <g id="line2d_30">
      <g>
       <use xlink:href="#mc2630ad92c" x="319.380625" y="92.977553" style="stroke: #000000; stroke-width: 0.8"/>
      </g>
     </g>
    </g>
    <g id="ytick_18">
     <g id="line2d_31">
      <g>
       <use xlink:href="#mc2630ad92c" x="319.380625" y="69.04265" style="stroke: #000000; stroke-width: 0.8"/>
      </g>
     </g>
    </g>
    <g id="text_25">
     <!-- Fraction of cells -->
     <g transform="translate(308.969062 213.889844) rotate(-90) scale(0.14 -0.14)">
      <use xlink:href="#DejaVuSans-46"/>
      <use xlink:href="#DejaVuSans-72" x="50.269531"/>
      <use xlink:href="#DejaVuSans-61" x="91.382812"/>
      <use xlink:href="#DejaVuSans-63" x="152.662109"/>
      <use xlink:href="#DejaVuSans-74" x="207.642578"/>
      <use xlink:href="#DejaVuSans-69" x="246.851562"/>
      <use xlink:href="#DejaVuSans-6f" x="274.634766"/>
      <use xlink:href="#DejaVuSans-6e" x="335.816406"/>
      <use xlink:href="#DejaVuSans-20" x="399.195312"/>
      <use xlink:href="#DejaVuSans-6f" x="430.982422"/>
      <use xlink:href="#DejaVuSans-66" x="492.164062"/>
      <use xlink:href="#DejaVuSans-20" x="527.369141"/>
      <use xlink:href="#DejaVuSans-63" x="559.15625"/>
      <use xlink:href="#DejaVuSans-65" x="614.136719"/>
      <use xlink:href="#DejaVuSans-6c" x="675.660156"/>
      <use xlink:href="#DejaVuSans-6c" x="703.443359"/>
      <use xlink:href="#DejaVuSans-73" x="731.226562"/>
     </g>
    </g>
   </g>
   <g id="line2d_32">
    <path d="M 233.506361 260.521875 
L 238.786111 260.521873 
L 244.065861 260.521862 
L 249.345611 260.521793 
L 254.625361 260.521434 
L 259.905112 260.51975 
L 265.184862 260.512748 
L 270.464612 260.486878 
L 275.744362 260.402006 
L 281.024112 260.154881 
L 286.303862 259.516819 
L 291.583613 258.057987 
L 296.863363 255.110629 
L 302.143113 249.86551 
L 307.422863 241.684746 
L 312.702613 230.593564 
L 317.982363 217.710902 
L 323.262114 205.25557 
L 328.541864 195.913266 
L 333.821614 191.765431 
L 339.101364 193.362263 
L 344.381114 199.506259 
L 349.660865 207.859032 
L 354.940615 215.960201 
L 360.220365 222.071402 
L 365.500115 225.501225 
L 370.779865 226.448513 
L 376.059615 225.622263 
L 381.339366 223.884359 
L 386.619116 222.028662 
L 391.898866 220.683136 
L 397.178616 220.263544 
L 402.458366 220.929347 
L 407.738117 222.562255 
L 413.017867 224.829511 
L 418.297617 227.348195 
L 423.577367 229.869221 
L 428.857117 232.358126 
L 434.136867 234.921966 
L 439.416618 237.652929 
L 444.696368 240.515012 
L 449.976118 243.34811 
L 455.255868 245.964562 
L 460.535618 248.252946 
L 465.815369 250.217534 
L 471.095119 251.941267 
L 476.374869 253.513405 
L 481.654619 254.975647 
L 486.934369 256.31377 
L 492.214119 257.484498 
L 497.49387 258.449052 
L 502.77362 259.192544 
L 508.05337 259.726394 
L 513.33312 260.081327 
L 518.61287 260.298019 
L 523.89262 260.418367 
L 529.172371 260.478635 
L 534.452121 260.505651 
L 539.731871 260.516432 
L 545.011621 260.520248 
L 550.291371 260.521443 
L 555.571122 260.521773 
L 560.850872 260.521854 
L 566.130622 260.521871 
L 571.410372 260.521874 
L 576.690122 260.521875 
L 577 260.521875 
" clip-path="url(#pb07569f1df)" style="fill: none; stroke: #ff7f0e; stroke-width: 1.5; stroke-linecap: square"/>
   </g>
   <g id="line2d_33">
    <path d="M 233.506361 260.521875 
L 238.786111 260.521875 
L 244.065861 260.521875 
L 249.345611 260.521875 
L 254.625361 260.521875 
L 259.905112 260.521875 
L 265.184862 260.521874 
L 270.464612 260.521871 
L 275.744362 260.521854 
L 281.024112 260.521784 
L 286.303862 260.521519 
L 291.583613 260.520613 
L 296.863363 260.517842 
L 302.143113 260.510244 
L 307.422863 260.491594 
L 312.702613 260.450689 
L 317.982363 260.370695 
L 323.262114 260.231599 
L 328.541864 260.017232 
L 333.821614 259.725429 
L 339.101364 259.375428 
L 344.381114 259.004425 
L 349.660865 258.649596 
L 354.940615 258.322384 
L 360.220365 257.99065 
L 365.500115 257.582043 
L 370.779865 257.007963 
L 376.059615 256.193171 
L 381.339366 255.094941 
L 386.619116 253.707717 
L 391.898866 252.060524 
L 397.178616 250.211835 
L 402.458366 248.235139 
L 407.738117 246.186231 
L 413.017867 244.059966 
L 418.297617 241.765644 
L 423.577367 239.151205 
L 428.857117 236.078016 
L 434.136867 232.509772 
L 439.416618 228.562255 
L 444.696368 224.479653 
L 449.976118 220.544763 
L 455.255868 216.967729 
L 460.535618 213.811328 
L 465.815369 210.996147 
L 471.095119 208.392666 
L 476.374869 205.960522 
L 481.654619 203.857331 
L 486.934369 202.437717 
L 492.214119 202.115689 
L 497.49387 203.15246 
L 502.77362 205.49847 
L 508.05337 208.801506 
L 513.33312 212.587473 
L 518.61287 216.498255 
L 523.89262 220.429954 
L 529.172371 224.491591 
L 534.452121 228.836301 
L 539.731871 233.49633 
L 545.011621 238.324812 
L 550.291371 243.052666 
L 555.571122 247.394932 
L 560.850872 251.135463 
L 566.130622 254.161344 
L 571.410372 256.458232 
L 576.690122 258.088409 
L 577 258.151545 
" clip-path="url(#pb07569f1df)" style="fill: none; stroke: #ff7f0e; stroke-width: 1.5; stroke-linecap: square"/>
   </g>
   <g id="line2d_34">
    <path d="M 233.506361 260.521875 
L 238.786111 260.521875 
L 244.065861 260.521875 
L 249.345611 260.521875 
L 254.625361 260.521875 
L 259.905112 260.521875 
L 265.184862 260.521875 
L 270.464612 260.521875 
L 275.744362 260.521875 
L 281.024112 260.521875 
L 286.303862 260.521875 
L 291.583613 260.521875 
L 296.863363 260.521874 
L 302.143113 260.521867 
L 307.422863 260.521787 
L 312.702613 260.521116 
L 317.982363 260.516643 
L 323.262114 260.493084 
L 328.541864 260.395304 
L 333.821614 260.076495 
L 339.101364 259.263403 
L 344.381114 257.65065 
L 349.660865 255.180536 
L 354.940615 252.271346 
L 360.220365 249.569767 
L 365.500115 247.249063 
L 370.779865 244.59683 
L 376.059615 240.531929 
L 381.339366 234.633461 
L 386.619116 227.565219 
L 391.898866 220.455363 
L 397.178616 214.023779 
L 402.458366 208.324614 
L 407.738117 202.944946 
L 413.017867 197.154627 
L 418.297617 190.182939 
L 423.577367 181.983916 
L 428.857117 174.025318 
L 434.136867 169.070998 
L 439.416618 169.693831 
L 444.696368 176.653125 
L 449.976118 188.489749 
L 455.255868 202.431406 
L 460.535618 215.732127 
L 465.815369 226.702407 
L 471.095119 235.042009 
L 476.374869 241.418703 
L 481.654619 246.68553 
L 486.934369 251.271865 
L 492.214119 255.069422 
L 497.49387 257.789762 
L 502.77362 259.387337 
L 508.05337 260.137736 
L 513.33312 260.416872 
L 518.61287 260.498839 
L 523.89262 260.517833 
L 529.172371 260.521309 
L 534.452121 260.521812 
L 539.731871 260.521869 
L 545.011621 260.521875 
L 550.291371 260.521875 
L 555.571122 260.521875 
L 560.850872 260.521875 
L 566.130622 260.521875 
L 571.410372 260.521875 
L 576.690122 260.521875 
L 577 260.521875 
" clip-path="url(#pb07569f1df)" style="fill: none; stroke: #ff7f0e; stroke-width: 1.5; stroke-linecap: square"/>
   </g>
   <g id="patch_132">
    <path d="M 319.380625 260.521875 
L 319.380625 57.594062 
" style="fill: none; stroke: #000000; stroke-width: 0.8; stroke-linejoin: miter; stroke-linecap: square"/>
   </g>
   <g id="patch_133">
    <path d="M 565.2 260.521875 
L 565.2 57.594062 
" style="fill: none; stroke: #000000; stroke-width: 0.8; stroke-linejoin: miter; stroke-linecap: square"/>
   </g>
   <g id="patch_134">
    <path d="M 319.380625 260.521875 
L 565.2 260.521875 
" style="fill: none; stroke: #000000; stroke-width: 0.8; stroke-linejoin: miter; stroke-linecap: square"/>
   </g>
   <g id="patch_135">
    <path d="M 319.380625 57.594062 
L 565.2 57.594062 
" style="fill: none; stroke: #000000; stroke-width: 0.8; stroke-linejoin: miter; stroke-linecap: square"/>
   </g>
   <g id="text_26">
    <!-- Cell line: dunn -->
    <g transform="translate(392.012812 51.594062) scale(0.14 -0.14)">
     <defs>
      <path id="DejaVuSans-75" d="M 544 1381 
L 544 3500 
L 1119 3500 
L 1119 1403 
Q 1119 906 1312 657 
Q 1506 409 1894 409 
Q 2359 409 2629 706 
Q 2900 1003 2900 1516 
L 2900 3500 
L 3475 3500 
L 3475 0 
L 2900 0 
L 2900 538 
Q 2691 219 2414 64 
Q 2138 -91 1772 -91 
Q 1169 -91 856 284 
Q 544 659 544 1381 
z
M 1991 3584 
L 1991 3584 
z
" transform="scale(0.015625)"/>
     </defs>
     <use xlink:href="#DejaVuSans-43"/>
     <use xlink:href="#DejaVuSans-65" x="69.824219"/>
     <use xlink:href="#DejaVuSans-6c" x="131.347656"/>
     <use xlink:href="#DejaVuSans-6c" x="159.130859"/>
     <use xlink:href="#DejaVuSans-20" x="186.914062"/>
     <use xlink:href="#DejaVuSans-6c" x="218.701172"/>
     <use xlink:href="#DejaVuSans-69" x="246.484375"/>
     <use xlink:href="#DejaVuSans-6e" x="274.267578"/>
     <use xlink:href="#DejaVuSans-65" x="337.646484"/>
     <use xlink:href="#DejaVuSans-3a" x="399.169922"/>
     <use xlink:href="#DejaVuSans-20" x="432.861328"/>
     <use xlink:href="#DejaVuSans-64" x="464.648438"/>
     <use xlink:href="#DejaVuSans-75" x="528.125"/>
     <use xlink:href="#DejaVuSans-6e" x="591.503906"/>
     <use xlink:href="#DejaVuSans-6e" x="654.882812"/>
    </g>
   </g>
   <g id="legend_2">
    <g id="patch_136">
     <path d="M 476.810625 120.035312 
L 556.8 120.035312 
Q 559.2 120.035312 559.2 117.635312 
L 559.2 65.994062 
Q 559.2 63.594062 556.8 63.594062 
L 476.810625 63.594062 
Q 474.410625 63.594062 474.410625 65.994062 
L 474.410625 117.635312 
Q 474.410625 120.035312 476.810625 120.035312 
z
" style="fill: #ffffff; opacity: 0.8; stroke: #cccccc; stroke-linejoin: miter"/>
    </g>
    <g id="patch_137">
     <path d="M 479.210625 77.512187 
L 503.210625 77.512187 
L 503.210625 69.112187 
L 479.210625 69.112187 
z
" style="fill: #1f77b4; opacity: 0.4"/>
    </g>
    <g id="text_27">
     <!-- control -->
     <g transform="translate(512.810625 77.512187) scale(0.12 -0.12)">
      <use xlink:href="#DejaVuSans-63"/>
      <use xlink:href="#DejaVuSans-6f" x="54.980469"/>
      <use xlink:href="#DejaVuSans-6e" x="116.162109"/>
      <use xlink:href="#DejaVuSans-74" x="179.541016"/>
      <use xlink:href="#DejaVuSans-72" x="218.75"/>
      <use xlink:href="#DejaVuSans-6f" x="257.613281"/>
      <use xlink:href="#DejaVuSans-6c" x="318.794922"/>
     </g>
    </g>
    <g id="patch_138">
     <path d="M 479.210625 95.125937 
L 503.210625 95.125937 
L 503.210625 86.725937 
L 479.210625 86.725937 
z
" style="fill: #ff7f0e; opacity: 0.4"/>
    </g>
    <g id="text_28">
     <!-- cytd -->
     <g transform="translate(512.810625 95.125937) scale(0.12 -0.12)">
      <use xlink:href="#DejaVuSans-63"/>
      <use xlink:href="#DejaVuSans-79" x="54.980469"/>
      <use xlink:href="#DejaVuSans-74" x="114.160156"/>
      <use xlink:href="#DejaVuSans-64" x="153.369141"/>
     </g>
    </g>
    <g id="patch_139">
     <path d="M 479.210625 112.739687 
L 503.210625 112.739687 
L 503.210625 104.339687 
L 479.210625 104.339687 
z
" style="fill: #2ca02c; opacity: 0.4"/>
    </g>
    <g id="text_29">
     <!-- jasp -->
     <g transform="translate(512.810625 112.739687) scale(0.12 -0.12)">
      <use xlink:href="#DejaVuSans-6a"/>
      <use xlink:href="#DejaVuSans-61" x="27.783203"/>
      <use xlink:href="#DejaVuSans-73" x="89.0625"/>
      <use xlink:href="#DejaVuSans-70" x="141.162109"/>
     </g>
    </g>
   </g>
  </g>
  <g id="text_30">
   <!-- Histograms of SRV distances to global mean cell -->
   <g transform="translate(45.753125 20.956875) scale(0.2 -0.2)">
    <defs>
     <path id="DejaVuSans-48" d="M 628 4666 
L 1259 4666 
L 1259 2753 
L 3553 2753 
L 3553 4666 
L 4184 4666 
L 4184 0 
L 3553 0 
L 3553 2222 
L 1259 2222 
L 1259 0 
L 628 0 
L 628 4666 
z
" transform="scale(0.015625)"/>
     <path id="DejaVuSans-67" d="M 2906 1791 
Q 2906 2416 2648 2759 
Q 2391 3103 1925 3103 
Q 1463 3103 1205 2759 
Q 947 2416 947 1791 
Q 947 1169 1205 825 
Q 1463 481 1925 481 
Q 2391 481 2648 825 
Q 2906 1169 2906 1791 
z
M 3481 434 
Q 3481 -459 3084 -895 
Q 2688 -1331 1869 -1331 
Q 1566 -1331 1297 -1286 
Q 1028 -1241 775 -1147 
L 775 -588 
Q 1028 -725 1275 -790 
Q 1522 -856 1778 -856 
Q 2344 -856 2625 -561 
Q 2906 -266 2906 331 
L 2906 616 
Q 2728 306 2450 153 
Q 2172 0 1784 0 
Q 1141 0 747 490 
Q 353 981 353 1791 
Q 353 2603 747 3093 
Q 1141 3584 1784 3584 
Q 2172 3584 2450 3431 
Q 2728 3278 2906 2969 
L 2906 3500 
L 3481 3500 
L 3481 434 
z
" transform="scale(0.015625)"/>
     <path id="DejaVuSans-53" d="M 3425 4513 
L 3425 3897 
Q 3066 4069 2747 4153 
Q 2428 4238 2131 4238 
Q 1616 4238 1336 4038 
Q 1056 3838 1056 3469 
Q 1056 3159 1242 3001 
Q 1428 2844 1947 2747 
L 2328 2669 
Q 3034 2534 3370 2195 
Q 3706 1856 3706 1288 
Q 3706 609 3251 259 
Q 2797 -91 1919 -91 
Q 1588 -91 1214 -16 
Q 841 59 441 206 
L 441 856 
Q 825 641 1194 531 
Q 1563 422 1919 422 
Q 2459 422 2753 634 
Q 3047 847 3047 1241 
Q 3047 1584 2836 1778 
Q 2625 1972 2144 2069 
L 1759 2144 
Q 1053 2284 737 2584 
Q 422 2884 422 3419 
Q 422 4038 858 4394 
Q 1294 4750 2059 4750 
Q 2388 4750 2728 4690 
Q 3069 4631 3425 4513 
z
" transform="scale(0.015625)"/>
     <path id="DejaVuSans-52" d="M 2841 2188 
Q 3044 2119 3236 1894 
Q 3428 1669 3622 1275 
L 4263 0 
L 3584 0 
L 2988 1197 
Q 2756 1666 2539 1819 
Q 2322 1972 1947 1972 
L 1259 1972 
L 1259 0 
L 628 0 
L 628 4666 
L 2053 4666 
Q 2853 4666 3247 4331 
Q 3641 3997 3641 3322 
Q 3641 2881 3436 2590 
Q 3231 2300 2841 2188 
z
M 1259 4147 
L 1259 2491 
L 2053 2491 
Q 2509 2491 2742 2702 
Q 2975 2913 2975 3322 
Q 2975 3731 2742 3939 
Q 2509 4147 2053 4147 
L 1259 4147 
z
" transform="scale(0.015625)"/>
     <path id="DejaVuSans-56" d="M 1831 0 
L 50 4666 
L 709 4666 
L 2188 738 
L 3669 4666 
L 4325 4666 
L 2547 0 
L 1831 0 
z
" transform="scale(0.015625)"/>
     <path id="DejaVuSans-62" d="M 3116 1747 
Q 3116 2381 2855 2742 
Q 2594 3103 2138 3103 
Q 1681 3103 1420 2742 
Q 1159 2381 1159 1747 
Q 1159 1113 1420 752 
Q 1681 391 2138 391 
Q 2594 391 2855 752 
Q 3116 1113 3116 1747 
z
M 1159 2969 
Q 1341 3281 1617 3432 
Q 1894 3584 2278 3584 
Q 2916 3584 3314 3078 
Q 3713 2572 3713 1747 
Q 3713 922 3314 415 
Q 2916 -91 2278 -91 
Q 1894 -91 1617 61 
Q 1341 213 1159 525 
L 1159 0 
L 581 0 
L 581 4863 
L 1159 4863 
L 1159 2969 
z
" transform="scale(0.015625)"/>
    </defs>
    <use xlink:href="#DejaVuSans-48"/>
    <use xlink:href="#DejaVuSans-69" x="75.195312"/>
    <use xlink:href="#DejaVuSans-73" x="102.978516"/>
    <use xlink:href="#DejaVuSans-74" x="155.078125"/>
    <use xlink:href="#DejaVuSans-6f" x="194.287109"/>
    <use xlink:href="#DejaVuSans-67" x="255.46875"/>
    <use xlink:href="#DejaVuSans-72" x="318.945312"/>
    <use xlink:href="#DejaVuSans-61" x="360.058594"/>
    <use xlink:href="#DejaVuSans-6d" x="421.337891"/>
    <use xlink:href="#DejaVuSans-73" x="518.75"/>
    <use xlink:href="#DejaVuSans-20" x="570.849609"/>
    <use xlink:href="#DejaVuSans-6f" x="602.636719"/>
    <use xlink:href="#DejaVuSans-66" x="663.818359"/>
    <use xlink:href="#DejaVuSans-20" x="699.023438"/>
    <use xlink:href="#DejaVuSans-53" x="730.810547"/>
    <use xlink:href="#DejaVuSans-52" x="794.287109"/>
    <use xlink:href="#DejaVuSans-56" x="858.269531"/>
    <use xlink:href="#DejaVuSans-20" x="926.677734"/>
    <use xlink:href="#DejaVuSans-64" x="958.464844"/>
    <use xlink:href="#DejaVuSans-69" x="1021.941406"/>
    <use xlink:href="#DejaVuSans-73" x="1049.724609"/>
    <use xlink:href="#DejaVuSans-74" x="1101.824219"/>
    <use xlink:href="#DejaVuSans-61" x="1141.033203"/>
    <use xlink:href="#DejaVuSans-6e" x="1202.3125"/>
    <use xlink:href="#DejaVuSans-63" x="1265.691406"/>
    <use xlink:href="#DejaVuSans-65" x="1320.671875"/>
    <use xlink:href="#DejaVuSans-73" x="1382.195312"/>
    <use xlink:href="#DejaVuSans-20" x="1434.294922"/>
    <use xlink:href="#DejaVuSans-74" x="1466.082031"/>
    <use xlink:href="#DejaVuSans-6f" x="1505.291016"/>
    <use xlink:href="#DejaVuSans-20" x="1566.472656"/>
    <use xlink:href="#DejaVuSans-67" x="1598.259766"/>
    <use xlink:href="#DejaVuSans-6c" x="1661.736328"/>
    <use xlink:href="#DejaVuSans-6f" x="1689.519531"/>
    <use xlink:href="#DejaVuSans-62" x="1750.701172"/>
    <use xlink:href="#DejaVuSans-61" x="1814.177734"/>
    <use xlink:href="#DejaVuSans-6c" x="1875.457031"/>
    <use xlink:href="#DejaVuSans-20" x="1903.240234"/>
    <use xlink:href="#DejaVuSans-6d" x="1935.027344"/>
    <use xlink:href="#DejaVuSans-65" x="2032.439453"/>
    <use xlink:href="#DejaVuSans-61" x="2093.962891"/>
    <use xlink:href="#DejaVuSans-6e" x="2155.242188"/>
    <use xlink:href="#DejaVuSans-20" x="2218.621094"/>
    <use xlink:href="#DejaVuSans-63" x="2250.408203"/>
    <use xlink:href="#DejaVuSans-65" x="2305.388672"/>
    <use xlink:href="#DejaVuSans-6c" x="2366.912109"/>
    <use xlink:href="#DejaVuSans-6c" x="2394.695312"/>
   </g>
  </g>
 </g>
 <defs>
  <clipPath id="p6cbc1d920e">
   <rect x="41.711875" y="57.594062" width="245.819375" height="202.927813"/>
  </clipPath>
  <clipPath id="pb07569f1df">
   <rect x="319.380625" y="57.594062" width="245.819375" height="202.927813"/>
  </clipPath>
 </defs>
</svg>
