<?xml version="1.0" encoding="utf-8" standalone="no"?>
<!DOCTYPE svg PUBLIC "-//W3C//DTD SVG 1.1//EN"
  "http://www.w3.org/Graphics/SVG/1.1/DTD/svg11.dtd">
<svg xmlns:xlink="http://www.w3.org/1999/xlink" width="1152pt" height="432pt" viewBox="0 0 1152 432" xmlns="http://www.w3.org/2000/svg" version="1.1">
 <metadata>
  <rdf:RDF xmlns:dc="http://purl.org/dc/elements/1.1/" xmlns:cc="http://creativecommons.org/ns#" xmlns:rdf="http://www.w3.org/1999/02/22-rdf-syntax-ns#">
   <cc:Work>
    <dc:type rdf:resource="http://purl.org/dc/dcmitype/StillImage"/>
    <dc:date>2023-12-17T21:48:21.801350</dc:date>
    <dc:format>image/svg+xml</dc:format>
    <dc:creator>
     <cc:Agent>
      <dc:title>Matplotlib v3.6.2, https://matplotlib.org/</dc:title>
     </cc:Agent>
    </dc:creator>
   </cc:Work>
  </rdf:RDF>
 </metadata>
 <defs>
  <style type="text/css">*{stroke-linejoin: round; stroke-linecap: butt}</style>
 </defs>
 <g id="figure_1">
  <g id="patch_1">
   <path d="M 0 432 
L 1152 432 
L 1152 0 
L 0 0 
z
" style="fill: #ffffff"/>
  </g>
  <g id="axes_1">
   <g id="line2d_1">
    <path d="M 357.946509 56.641976 
L 357.062225 56.772692 
L 354.624706 57.615299 
L 350.070202 58.068892 
L 348.93861 58.377642 
L 346.525261 58.516577 
L 345.472407 58.902821 
L 344.419324 59.598215 
L 343.263047 60.584731 
L 342.045549 61.295145 
L 339.783512 61.997394 
L 338.172287 62.633679 
L 335.77027 63.882071 
L 334.594932 64.7725 
L 328.527089 70.824847 
L 325.92125 73.699412 
L 322.072636 79.109433 
L 321.208621 80.737185 
L 319.456399 83.067178 
L 318.273436 84.319779 
L 317.266625 85.903679 
L 314.591307 91.835933 
L 313.420962 93.718571 
L 312.708375 94.679827 
L 311.412573 98.091519 
L 310.892025 99.872226 
L 310.599318 103.111089 
L 310.326882 104.167411 
L 309.93488 107.80015 
L 309.657896 111.760134 
L 309.388673 114.430695 
L 308.864291 119.290315 
L 308.999022 122.197036 
L 309.089749 123.406916 
L 309.721418 127.250844 
L 310.528628 129.473975 
L 311.008843 130.729248 
L 311.565867 131.492234 
L 312.412651 132.424985 
L 313.080709 133.349477 
L 314.894545 135.3226 
L 315.391768 136.020196 
L 317.192669 137.450278 
L 317.643573 137.802989 
L 319.904514 139.057931 
L 322.297045 140.813928 
L 324.845168 142.227981 
L 325.550766 142.85613 
L 326.238697 143.290658 
L 327.25819 143.731002 
L 333.17659 144.357908 
L 335.206932 145.089132 
L 336.375829 145.228235 
L 340.897662 144.97976 
L 342.116138 144.90289 
L 344.219855 144.165289 
L 345.132468 143.694498 
L 349.403395 142.323816 
L 350.829063 141.592993 
L 352.254824 141.131909 
L 355.98675 139.23419 
L 358.947895 137.940811 
L 364.171225 134.969936 
L 365.48132 133.899913 
L 366.898736 132.552887 
L 371.420838 130.167971 
L 372.937234 128.818479 
L 373.571646 127.944524 
L 374.366897 127.137714 
L 376.559541 124.659658 
L 377.451627 123.743231 
L 378.722025 121.622897 
L 379.272926 120.211315 
L 379.882865 117.893968 
L 381.103214 115.748774 
L 383.276629 112.496469 
L 383.746462 111.336186 
L 384.792831 107.571328 
L 385.008144 106.499451 
L 385.002626 105.413096 
L 384.746675 101.581618 
L 384.730824 100.38811 
L 384.995294 99.354279 
L 384.874079 95.458339 
L 384.893925 94.005987 
L 384.547457 91.438515 
L 383.704655 87.293701 
L 381.027859 79.760875 
L 380.848813 78.495993 
L 380.307104 76.947313 
L 375.467704 69.227465 
L 374.609764 67.053275 
L 373.833551 65.983623 
L 372.948291 64.431758 
L 371.977346 63.009824 
L 371.016152 62.137481 
L 369.124202 60.75648 
L 367.836909 59.29226 
L 367.141762 58.907751 
L 364.029884 58.024216 
L 363.435398 57.571371 
L 362.070774 57.136473 
L 361.355372 57.039126 
L 359.09739 56.287059 
L 359.09739 56.287059 
" clip-path="url(#pd846bafcdb)" style="fill: none; stroke: #1f77b4; stroke-width: 1.5; stroke-linecap: square"/>
   </g>
   <g id="text_1">
    <!-- control   -   dlm8 -->
    <g transform="translate(264.345028 45.84) scale(0.2 -0.2)">
     <defs>
      <path id="DejaVuSans-63" d="M 3122 3366 
L 3122 2828 
Q 2878 2963 2633 3030 
Q 2388 3097 2138 3097 
Q 1578 3097 1268 2742 
Q 959 2388 959 1747 
Q 959 1106 1268 751 
Q 1578 397 2138 397 
Q 2388 397 2633 464 
Q 2878 531 3122 666 
L 3122 134 
Q 2881 22 2623 -34 
Q 2366 -91 2075 -91 
Q 1284 -91 818 406 
Q 353 903 353 1747 
Q 353 2603 823 3093 
Q 1294 3584 2113 3584 
Q 2378 3584 2631 3529 
Q 2884 3475 3122 3366 
z
" transform="scale(0.015625)"/>
      <path id="DejaVuSans-6f" d="M 1959 3097 
Q 1497 3097 1228 2736 
Q 959 2375 959 1747 
Q 959 1119 1226 758 
Q 1494 397 1959 397 
Q 2419 397 2687 759 
Q 2956 1122 2956 1747 
Q 2956 2369 2687 2733 
Q 2419 3097 1959 3097 
z
M 1959 3584 
Q 2709 3584 3137 3096 
Q 3566 2609 3566 1747 
Q 3566 888 3137 398 
Q 2709 -91 1959 -91 
Q 1206 -91 779 398 
Q 353 888 353 1747 
Q 353 2609 779 3096 
Q 1206 3584 1959 3584 
z
" transform="scale(0.015625)"/>
      <path id="DejaVuSans-6e" d="M 3513 2113 
L 3513 0 
L 2938 0 
L 2938 2094 
Q 2938 2591 2744 2837 
Q 2550 3084 2163 3084 
Q 1697 3084 1428 2787 
Q 1159 2491 1159 1978 
L 1159 0 
L 581 0 
L 581 3500 
L 1159 3500 
L 1159 2956 
Q 1366 3272 1645 3428 
Q 1925 3584 2291 3584 
Q 2894 3584 3203 3211 
Q 3513 2838 3513 2113 
z
" transform="scale(0.015625)"/>
      <path id="DejaVuSans-74" d="M 1172 4494 
L 1172 3500 
L 2356 3500 
L 2356 3053 
L 1172 3053 
L 1172 1153 
Q 1172 725 1289 603 
Q 1406 481 1766 481 
L 2356 481 
L 2356 0 
L 1766 0 
Q 1100 0 847 248 
Q 594 497 594 1153 
L 594 3053 
L 172 3053 
L 172 3500 
L 594 3500 
L 594 4494 
L 1172 4494 
z
" transform="scale(0.015625)"/>
      <path id="DejaVuSans-72" d="M 2631 2963 
Q 2534 3019 2420 3045 
Q 2306 3072 2169 3072 
Q 1681 3072 1420 2755 
Q 1159 2438 1159 1844 
L 1159 0 
L 581 0 
L 581 3500 
L 1159 3500 
L 1159 2956 
Q 1341 3275 1631 3429 
Q 1922 3584 2338 3584 
Q 2397 3584 2469 3576 
Q 2541 3569 2628 3553 
L 2631 2963 
z
" transform="scale(0.015625)"/>
      <path id="DejaVuSans-6c" d="M 603 4863 
L 1178 4863 
L 1178 0 
L 603 0 
L 603 4863 
z
" transform="scale(0.015625)"/>
      <path id="DejaVuSans-20" transform="scale(0.015625)"/>
      <path id="DejaVuSans-2d" d="M 313 2009 
L 1997 2009 
L 1997 1497 
L 313 1497 
L 313 2009 
z
" transform="scale(0.015625)"/>
      <path id="DejaVuSans-64" d="M 2906 2969 
L 2906 4863 
L 3481 4863 
L 3481 0 
L 2906 0 
L 2906 525 
Q 2725 213 2448 61 
Q 2172 -91 1784 -91 
Q 1150 -91 751 415 
Q 353 922 353 1747 
Q 353 2572 751 3078 
Q 1150 3584 1784 3584 
Q 2172 3584 2448 3432 
Q 2725 3281 2906 2969 
z
M 947 1747 
Q 947 1113 1208 752 
Q 1469 391 1925 391 
Q 2381 391 2643 752 
Q 2906 1113 2906 1747 
Q 2906 2381 2643 2742 
Q 2381 3103 1925 3103 
Q 1469 3103 1208 2742 
Q 947 2381 947 1747 
z
" transform="scale(0.015625)"/>
      <path id="DejaVuSans-6d" d="M 3328 2828 
Q 3544 3216 3844 3400 
Q 4144 3584 4550 3584 
Q 5097 3584 5394 3201 
Q 5691 2819 5691 2113 
L 5691 0 
L 5113 0 
L 5113 2094 
Q 5113 2597 4934 2840 
Q 4756 3084 4391 3084 
Q 3944 3084 3684 2787 
Q 3425 2491 3425 1978 
L 3425 0 
L 2847 0 
L 2847 2094 
Q 2847 2600 2669 2842 
Q 2491 3084 2119 3084 
Q 1678 3084 1418 2786 
Q 1159 2488 1159 1978 
L 1159 0 
L 581 0 
L 581 3500 
L 1159 3500 
L 1159 2956 
Q 1356 3278 1631 3431 
Q 1906 3584 2284 3584 
Q 2666 3584 2933 3390 
Q 3200 3197 3328 2828 
z
" transform="scale(0.015625)"/>
      <path id="DejaVuSans-38" d="M 2034 2216 
Q 1584 2216 1326 1975 
Q 1069 1734 1069 1313 
Q 1069 891 1326 650 
Q 1584 409 2034 409 
Q 2484 409 2743 651 
Q 3003 894 3003 1313 
Q 3003 1734 2745 1975 
Q 2488 2216 2034 2216 
z
M 1403 2484 
Q 997 2584 770 2862 
Q 544 3141 544 3541 
Q 544 4100 942 4425 
Q 1341 4750 2034 4750 
Q 2731 4750 3128 4425 
Q 3525 4100 3525 3541 
Q 3525 3141 3298 2862 
Q 3072 2584 2669 2484 
Q 3125 2378 3379 2068 
Q 3634 1759 3634 1313 
Q 3634 634 3220 271 
Q 2806 -91 2034 -91 
Q 1263 -91 848 271 
Q 434 634 434 1313 
Q 434 1759 690 2068 
Q 947 2378 1403 2484 
z
M 1172 3481 
Q 1172 3119 1398 2916 
Q 1625 2713 2034 2713 
Q 2441 2713 2670 2916 
Q 2900 3119 2900 3481 
Q 2900 3844 2670 4047 
Q 2441 4250 2034 4250 
Q 1625 4250 1398 4047 
Q 1172 3844 1172 3481 
z
" transform="scale(0.015625)"/>
     </defs>
     <use xlink:href="#DejaVuSans-63"/>
     <use xlink:href="#DejaVuSans-6f" x="54.980469"/>
     <use xlink:href="#DejaVuSans-6e" x="116.162109"/>
     <use xlink:href="#DejaVuSans-74" x="179.541016"/>
     <use xlink:href="#DejaVuSans-72" x="218.75"/>
     <use xlink:href="#DejaVuSans-6f" x="257.613281"/>
     <use xlink:href="#DejaVuSans-6c" x="318.794922"/>
     <use xlink:href="#DejaVuSans-20" x="346.578125"/>
     <use xlink:href="#DejaVuSans-20" x="378.365234"/>
     <use xlink:href="#DejaVuSans-20" x="410.152344"/>
     <use xlink:href="#DejaVuSans-2d" x="441.939453"/>
     <use xlink:href="#DejaVuSans-20" x="478.023438"/>
     <use xlink:href="#DejaVuSans-20" x="509.810547"/>
     <use xlink:href="#DejaVuSans-20" x="541.597656"/>
     <use xlink:href="#DejaVuSans-64" x="573.384766"/>
     <use xlink:href="#DejaVuSans-6c" x="636.861328"/>
     <use xlink:href="#DejaVuSans-6d" x="664.644531"/>
     <use xlink:href="#DejaVuSans-38" x="762.056641"/>
    </g>
   </g>
  </g>
  <g id="axes_2">
   <g id="line2d_2">
    <path d="M 848.374048 56.705276 
L 847.741224 56.80274 
L 846.99205 56.472716 
L 846.24399 56.287059 
L 845.653128 56.589927 
L 842.961742 58.708953 
L 842.017432 58.847642 
L 841.223305 59.286873 
L 840.515726 59.355702 
L 839.202044 59.993311 
L 837.709442 61.626181 
L 837.193433 62.091991 
L 836.4055 63.013897 
L 835.749474 63.43144 
L 834.459813 64.747725 
L 832.38919 66.832601 
L 831.535878 67.329772 
L 830.55313 67.752163 
L 828.998993 69.602488 
L 828.514408 70.461195 
L 827.87398 71.901533 
L 827.263096 73.964298 
L 825.961409 76.127182 
L 824.349809 78.312683 
L 821.71899 80.702662 
L 819.854815 82.42541 
L 818.027391 85.066069 
L 815.097777 88.779235 
L 812.775843 91.579851 
L 811.432496 93.498967 
L 810.502956 95.164439 
L 809.000891 97.13466 
L 808.30896 98.736685 
L 806.315288 102.559523 
L 803.839141 107.518392 
L 803.224247 108.36695 
L 801.830648 111.745364 
L 801.764305 112.642245 
L 799.94362 117.394238 
L 798.68896 118.832584 
L 798.552231 120.35363 
L 798.692869 121.365949 
L 798.739722 122.582795 
L 798.671924 123.721094 
L 798.825424 124.938805 
L 799.122484 126.243268 
L 799.181813 127.035725 
L 799.440533 127.780042 
L 799.545524 128.977087 
L 799.833521 130.097724 
L 800.251519 130.936062 
L 801.158524 132.369765 
L 801.705777 132.708511 
L 802.268546 133.339976 
L 804.13811 134.594477 
L 804.860947 135.306865 
L 805.59112 136.276606 
L 806.40003 137.602866 
L 807.180656 138.546325 
L 809.744581 140.839562 
L 810.461467 141.904867 
L 814.563509 144.216486 
L 817.755802 145.228235 
L 818.876084 144.965198 
L 821.162203 144.894974 
L 822.627181 144.772909 
L 824.09787 144.472966 
L 825.705869 144.550911 
L 827.275097 144.511786 
L 828.063198 144.017222 
L 829.252111 143.422577 
L 830.385104 143.264059 
L 831.540805 142.730621 
L 833.889486 142.502439 
L 836.725806 140.844252 
L 837.824241 139.955764 
L 839.173813 139.287393 
L 840.275203 138.238496 
L 841.497942 137.741087 
L 844.388647 135.924994 
L 845.56027 135.274685 
L 846.310748 134.627015 
L 848.555972 133.880148 
L 849.664133 133.655117 
L 850.937156 133.54437 
L 853.54408 132.428691 
L 856.26974 131.758932 
L 857.28097 131.235877 
L 859.16453 129.803538 
L 859.814262 129.148877 
L 861.536036 125.631584 
L 862.117406 124.66253 
L 863.009073 120.963047 
L 863.417385 119.756816 
L 863.875953 115.606971 
L 864.357784 114.445894 
L 865.23773 113.153349 
L 865.62378 112.337297 
L 866.232039 107.964262 
L 866.014718 106.571382 
L 866.311481 105.314878 
L 866.491032 103.451637 
L 867.198544 101.444866 
L 867.543919 100.127615 
L 867.515168 98.248444 
L 868.471702 94.685552 
L 868.912446 93.243113 
L 869.229587 91.808527 
L 868.571095 90.853576 
L 868.133961 89.753219 
L 867.697712 87.113795 
L 867.678218 84.809346 
L 867.180648 83.961302 
L 866.975557 83.148804 
L 865.72408 80.548607 
L 864.815588 79.190435 
L 864.191965 78.126858 
L 863.85391 77.300512 
L 862.835633 76.271091 
L 862.231418 75.214817 
L 861.397324 73.351291 
L 860.436448 72.01951 
L 859.268915 70.852572 
L 857.447998 69.202092 
L 854.645036 67.299479 
L 853.285358 66.082675 
L 852.378249 65.529349 
L 849.349855 64.471158 
L 848.209601 63.788869 
L 847.08206 63.35912 
L 845.850186 62.741886 
L 845.850186 62.741886 
" clip-path="url(#p83ae18ed87)" style="fill: none; stroke: #ff7f0e; stroke-width: 1.5; stroke-linecap: square"/>
   </g>
   <g id="text_2">
    <!-- control   -   dunn -->
    <g transform="translate(751.195597 45.84) scale(0.2 -0.2)">
     <defs>
      <path id="DejaVuSans-75" d="M 544 1381 
L 544 3500 
L 1119 3500 
L 1119 1403 
Q 1119 906 1312 657 
Q 1506 409 1894 409 
Q 2359 409 2629 706 
Q 2900 1003 2900 1516 
L 2900 3500 
L 3475 3500 
L 3475 0 
L 2900 0 
L 2900 538 
Q 2691 219 2414 64 
Q 2138 -91 1772 -91 
Q 1169 -91 856 284 
Q 544 659 544 1381 
z
M 1991 3584 
L 1991 3584 
z
" transform="scale(0.015625)"/>
     </defs>
     <use xlink:href="#DejaVuSans-63"/>
     <use xlink:href="#DejaVuSans-6f" x="54.980469"/>
     <use xlink:href="#DejaVuSans-6e" x="116.162109"/>
     <use xlink:href="#DejaVuSans-74" x="179.541016"/>
     <use xlink:href="#DejaVuSans-72" x="218.75"/>
     <use xlink:href="#DejaVuSans-6f" x="257.613281"/>
     <use xlink:href="#DejaVuSans-6c" x="318.794922"/>
     <use xlink:href="#DejaVuSans-20" x="346.578125"/>
     <use xlink:href="#DejaVuSans-20" x="378.365234"/>
     <use xlink:href="#DejaVuSans-20" x="410.152344"/>
     <use xlink:href="#DejaVuSans-2d" x="441.939453"/>
     <use xlink:href="#DejaVuSans-20" x="478.023438"/>
     <use xlink:href="#DejaVuSans-20" x="509.810547"/>
     <use xlink:href="#DejaVuSans-20" x="541.597656"/>
     <use xlink:href="#DejaVuSans-64" x="573.384766"/>
     <use xlink:href="#DejaVuSans-75" x="636.861328"/>
     <use xlink:href="#DejaVuSans-6e" x="700.240234"/>
     <use xlink:href="#DejaVuSans-6e" x="763.619141"/>
    </g>
   </g>
  </g>
  <g id="axes_3">
   <g id="line2d_3">
    <path d="M 365.283169 180.38881 
L 364.191024 181.288023 
L 362.393389 182.306557 
L 361.267475 182.644385 
L 360.422258 183.164179 
L 358.804113 184.674064 
L 356.56566 189.404488 
L 355.778332 190.293627 
L 355.087626 190.811082 
L 354.188264 191.896359 
L 351.064889 194.540128 
L 347.803174 197.987574 
L 346.437295 199.24917 
L 345.767281 200.076723 
L 343.968594 203.608348 
L 343.477233 204.627481 
L 341.172748 208.133847 
L 339.973807 209.224208 
L 338.408111 210.267499 
L 336.965194 211.645141 
L 336.461523 212.729499 
L 335.685447 213.903183 
L 334.611045 215.257037 
L 333.521376 216.278473 
L 332.688872 217.364321 
L 332.128459 218.719501 
L 331.479552 222.236049 
L 330.64369 223.518273 
L 329.899837 227.14907 
L 329.103925 228.79753 
L 327.769512 230.719219 
L 326.557067 232.70087 
L 326.055812 234.218724 
L 324.93436 236.377029 
L 323.886549 238.133252 
L 323.148412 240.330804 
L 322.237242 242.438842 
L 320.243327 244.461766 
L 317.171452 248.3038 
L 316.353779 249.111553 
L 315.858119 250.556194 
L 315.349532 251.249458 
L 315.151783 251.900547 
L 315.378009 252.296702 
L 315.851493 252.563765 
L 316.082199 253.827923 
L 316.035735 254.819719 
L 315.792565 255.711373 
L 315.810452 255.986819 
L 316.0579 256.463077 
L 317.115919 256.883137 
L 318.038491 257.147615 
L 318.250605 257.7671 
L 318.569599 258.287305 
L 318.759194 258.839511 
L 320.730742 261.486944 
L 321.582779 262.27827 
L 322.145466 262.527046 
L 322.849694 262.630588 
L 324.65578 261.958335 
L 326.177621 261.76944 
L 328.124325 261.978118 
L 329.007133 262.196709 
L 330.484661 261.892023 
L 331.909434 261.451907 
L 333.178816 261.179268 
L 335.705272 259.971028 
L 337.532857 259.386462 
L 338.514115 258.763296 
L 340.671285 258.071481 
L 341.983621 257.881471 
L 344.207653 257.187017 
L 345.576429 257.495516 
L 348.138804 257.748636 
L 349.148442 257.627404 
L 350.16074 257.260936 
L 350.711893 256.909995 
L 351.822388 256.558585 
L 352.36294 255.788689 
L 354.709041 253.681789 
L 355.194907 253.538126 
L 356.21424 253.076533 
L 357.831687 252.856047 
L 362.906001 249.314996 
L 364.734144 246.750324 
L 365.966233 245.019665 
L 366.865607 244.452951 
L 367.726676 243.647489 
L 368.918828 242.912205 
L 369.938463 241.499782 
L 371.302176 240.12469 
L 372.074334 239.176304 
L 376.181729 234.685614 
L 377.303981 232.904286 
L 377.771375 232.212236 
L 378.137312 231.293005 
L 378.086185 230.270535 
L 377.680901 227.810227 
L 377.781239 226.205126 
L 378.232169 224.038523 
L 378.376686 222.019357 
L 378.661214 220.569094 
L 378.535891 219.415934 
L 378.666398 216.939553 
L 378.079987 214.129968 
L 377.160793 209.633753 
L 375.337266 205.911118 
L 375.100748 205.169224 
L 375.06761 202.094991 
L 374.72088 196.876037 
L 374.191741 195.533687 
L 372.965282 194.288251 
L 372.369805 193.526332 
L 370.381846 189.466215 
L 369.639394 188.571512 
L 369.00161 186.168139 
L 368.804189 184.315886 
L 368.550702 183.124778 
L 366.752349 180.867353 
L 366.021222 179.635841 
L 364.507434 175.826925 
L 363.872411 175.149605 
L 363.127519 173.956109 
L 362.342452 173.713955 
L 361.832803 173.689412 
L 361.208691 173.848557 
L 360.741842 174.573681 
L 360.741842 174.573681 
" clip-path="url(#p67bb4becf7)" style="fill: none; stroke: #1f77b4; stroke-width: 1.5; stroke-linecap: square"/>
   </g>
   <g id="text_3">
    <!-- cytd   -   dlm8 -->
    <g transform="translate(277.316903 163.242353) scale(0.2 -0.2)">
     <defs>
      <path id="DejaVuSans-79" d="M 2059 -325 
Q 1816 -950 1584 -1140 
Q 1353 -1331 966 -1331 
L 506 -1331 
L 506 -850 
L 844 -850 
Q 1081 -850 1212 -737 
Q 1344 -625 1503 -206 
L 1606 56 
L 191 3500 
L 800 3500 
L 1894 763 
L 2988 3500 
L 3597 3500 
L 2059 -325 
z
" transform="scale(0.015625)"/>
     </defs>
     <use xlink:href="#DejaVuSans-63"/>
     <use xlink:href="#DejaVuSans-79" x="54.980469"/>
     <use xlink:href="#DejaVuSans-74" x="114.160156"/>
     <use xlink:href="#DejaVuSans-64" x="153.369141"/>
     <use xlink:href="#DejaVuSans-20" x="216.845703"/>
     <use xlink:href="#DejaVuSans-20" x="248.632812"/>
     <use xlink:href="#DejaVuSans-20" x="280.419922"/>
     <use xlink:href="#DejaVuSans-2d" x="312.207031"/>
     <use xlink:href="#DejaVuSans-20" x="348.291016"/>
     <use xlink:href="#DejaVuSans-20" x="380.078125"/>
     <use xlink:href="#DejaVuSans-20" x="411.865234"/>
     <use xlink:href="#DejaVuSans-64" x="443.652344"/>
     <use xlink:href="#DejaVuSans-6c" x="507.128906"/>
     <use xlink:href="#DejaVuSans-6d" x="534.912109"/>
     <use xlink:href="#DejaVuSans-38" x="632.324219"/>
    </g>
   </g>
  </g>
  <g id="axes_4">
   <g id="line2d_4">
    <path d="M 853.270753 175.801733 
L 852.693466 176.268851 
L 852.163083 177.004775 
L 851.311939 178.711608 
L 850.123215 180.212059 
L 849.287674 181.008733 
L 847.462206 182.05548 
L 846.472486 183.199403 
L 845.293049 183.910957 
L 844.431628 184.062169 
L 843.512209 184.587168 
L 841.686265 186.141299 
L 840.628882 187.322092 
L 840.217584 188.313843 
L 840.183735 189.122302 
L 839.923817 189.492702 
L 839.103114 190.190699 
L 838.475873 190.484959 
L 837.816679 191.20707 
L 836.311396 193.030548 
L 834.860389 194.223848 
L 834.364586 195.40227 
L 833.910332 196.024158 
L 833.179322 196.609937 
L 831.54602 197.527043 
L 829.164031 199.281017 
L 825.45733 203.750811 
L 823.033308 205.611172 
L 821.085493 206.696959 
L 817.745942 209.588211 
L 817.019688 211.089107 
L 816.757856 211.628126 
L 816.9764 213.329164 
L 816.833615 214.955182 
L 816.471124 216.421504 
L 816.024543 217.619564 
L 816.40968 218.661066 
L 816.525189 220.040174 
L 816.387119 224.807045 
L 815.571809 227.760871 
L 814.166846 230.556746 
L 812.103227 232.767625 
L 810.922668 234.455986 
L 810.461182 235.606743 
L 810.221615 236.602198 
L 809.697539 237.411912 
L 808.816956 238.469885 
L 807.990734 239.87142 
L 806.897824 241.20101 
L 805.42421 241.976873 
L 805.080045 242.471968 
L 804.72351 243.327283 
L 803.525368 244.623592 
L 801.89779 246.133896 
L 799.693497 247.590689 
L 798.376677 248.892327 
L 798.2815 249.258437 
L 798.603043 249.986181 
L 799.257721 250.340767 
L 799.801217 250.287966 
L 800.250266 250.43282 
L 800.437567 250.271525 
L 800.855327 250.148657 
L 802.396409 250.125266 
L 803.355559 249.49464 
L 805.597439 249.294771 
L 806.630661 249.53994 
L 807.029811 249.915289 
L 808.43471 250.417243 
L 809.566816 250.909777 
L 813.131028 255.002952 
L 814.913291 255.660168 
L 815.428834 257.033368 
L 815.989564 257.575678 
L 817.069363 257.895432 
L 818.645575 257.998739 
L 819.616902 258.262138 
L 821.12522 259.312221 
L 822.151199 260.421035 
L 822.990268 261.587251 
L 824.034726 262.40207 
L 824.654603 262.630588 
L 825.119374 262.531131 
L 825.452034 262.329971 
L 827.12721 261.670061 
L 828.389317 261.672269 
L 828.883733 261.883593 
L 832.64946 262.463533 
L 833.098294 261.410672 
L 834.171759 259.913341 
L 834.963243 259.26896 
L 835.908953 258.267358 
L 836.712955 257.247603 
L 838.484254 256.032865 
L 840.156613 255.473973 
L 841.422165 254.619473 
L 842.957093 253.307009 
L 844.785934 252.006738 
L 845.773752 250.864369 
L 847.310065 249.467491 
L 849.40454 248.477698 
L 852.543985 247.913661 
L 853.87691 247.066675 
L 855.816039 246.796113 
L 857.661033 246.356146 
L 859.492135 245.718672 
L 860.019753 244.987668 
L 861.626553 243.158928 
L 863.161205 241.240057 
L 864.790167 238.844527 
L 864.455416 236.973427 
L 864.472725 235.827379 
L 865.27593 233.841245 
L 865.377376 232.951049 
L 865.62935 231.995366 
L 865.997045 231.471964 
L 866.235017 230.709644 
L 866.700325 230.126955 
L 868.52492 228.964945 
L 869.308435 228.000815 
L 869.488452 227.322299 
L 869.445441 223.56831 
L 869.079205 221.628961 
L 868.388335 220.119813 
L 867.285807 218.435496 
L 865.23907 217.466164 
L 864.022243 215.419656 
L 861.338483 211.817816 
L 860.275761 209.824344 
L 860.327905 205.770806 
L 859.830008 204.85006 
L 859.353142 203.663371 
L 858.720456 203.187267 
L 858.513156 202.710177 
L 857.828483 201.464619 
L 857.511084 200.350462 
L 857.147686 198.770421 
L 856.279661 196.897628 
L 855.735997 195.651789 
L 854.920562 192.577449 
L 854.495636 190.836664 
L 854.085422 190.203891 
L 851.98367 188.775516 
L 851.373879 187.37821 
L 851.26564 186.636987 
L 851.323971 185.799955 
L 850.714639 184.177031 
L 850.242286 179.862833 
L 849.868416 177.990605 
L 848.520226 176.87584 
L 847.666262 175.978448 
L 846.196278 175.146363 
L 845.474429 174.349269 
L 844.610805 173.689412 
L 843.968972 173.892773 
L 843.968972 173.892773 
" clip-path="url(#p53ed5a49e2)" style="fill: none; stroke: #ff7f0e; stroke-width: 1.5; stroke-linecap: square"/>
   </g>
   <g id="text_4">
    <!-- cytd   -   dunn -->
    <g transform="translate(764.167472 163.242353) scale(0.2 -0.2)">
     <use xlink:href="#DejaVuSans-63"/>
     <use xlink:href="#DejaVuSans-79" x="54.980469"/>
     <use xlink:href="#DejaVuSans-74" x="114.160156"/>
     <use xlink:href="#DejaVuSans-64" x="153.369141"/>
     <use xlink:href="#DejaVuSans-20" x="216.845703"/>
     <use xlink:href="#DejaVuSans-20" x="248.632812"/>
     <use xlink:href="#DejaVuSans-20" x="280.419922"/>
     <use xlink:href="#DejaVuSans-2d" x="312.207031"/>
     <use xlink:href="#DejaVuSans-20" x="348.291016"/>
     <use xlink:href="#DejaVuSans-20" x="380.078125"/>
     <use xlink:href="#DejaVuSans-20" x="411.865234"/>
     <use xlink:href="#DejaVuSans-64" x="443.652344"/>
     <use xlink:href="#DejaVuSans-75" x="507.128906"/>
     <use xlink:href="#DejaVuSans-6e" x="570.507812"/>
     <use xlink:href="#DejaVuSans-6e" x="633.886719"/>
    </g>
   </g>
  </g>
  <g id="axes_5">
   <g id="line2d_5">
    <path d="M 361.80269 291.091765 
L 360.552469 291.25817 
L 359.523208 291.273 
L 357.832432 291.96682 
L 355.733659 293.506891 
L 354.785603 294.631199 
L 354.118713 295.49335 
L 353.105299 296.519535 
L 351.950129 297.251778 
L 350.973879 298.175644 
L 350.117738 298.818821 
L 349.53206 299.532037 
L 348.784364 300.64291 
L 347.148137 302.651733 
L 346.446186 303.284151 
L 345.53186 304.371992 
L 345.118412 305.580009 
L 344.122534 306.922084 
L 343.067918 308.050125 
L 341.414338 310.674677 
L 340.819417 311.975626 
L 339.926124 313.382244 
L 338.530316 315.212032 
L 336.71814 317.247086 
L 334.122819 321.583429 
L 333.1779 323.061279 
L 332.049742 324.463823 
L 330.578669 325.935326 
L 327.730263 329.983345 
L 326.66272 331.105874 
L 322.251747 337.168618 
L 321.706532 338.600606 
L 320.425131 341.05226 
L 319.637063 342.846406 
L 319.008346 343.746043 
L 318.654839 345.00783 
L 317.850286 346.717991 
L 317.142188 347.941439 
L 314.594057 351.224185 
L 312.982455 355.276663 
L 312.472704 358.804077 
L 312.908328 362.300349 
L 313.321042 363.917834 
L 313.888715 365.810829 
L 314.274337 366.376603 
L 315.076453 368.008507 
L 316.289954 370.504276 
L 317.009496 371.144811 
L 317.498779 371.740674 
L 319.767358 372.872438 
L 321.007945 373.851439 
L 322.543937 375.316181 
L 324.455036 376.994819 
L 325.841252 377.681148 
L 327.68631 378.802505 
L 329.493852 379.606668 
L 333.581226 380.032941 
L 336.940199 380.02666 
L 338.273775 379.697752 
L 339.401578 379.633646 
L 341.313799 379.739878 
L 344.607982 379.512371 
L 346.038673 379.157486 
L 347.200298 379.180904 
L 347.962372 378.99135 
L 350.544398 377.865062 
L 353.759786 376.827047 
L 356.171339 375.225703 
L 359.283882 373.909605 
L 361.192704 372.606488 
L 362.374941 371.616739 
L 362.83282 370.89658 
L 363.932305 369.760856 
L 366.032073 368.018732 
L 366.723422 367.204747 
L 368.192817 364.963533 
L 371.147335 362.543039 
L 371.672482 361.536199 
L 372.164155 361.002544 
L 374.482134 356.393064 
L 375.008329 355.447635 
L 375.790765 354.315922 
L 376.273861 353.198624 
L 376.642742 351.332544 
L 377.346118 350.219406 
L 378.185529 348.13599 
L 379.529791 345.976718 
L 380.743252 343.604257 
L 380.848647 342.486506 
L 381.164254 340.972241 
L 381.345478 338.480526 
L 380.783647 335.736052 
L 380.738979 334.431343 
L 381.035752 333.033903 
L 381.158981 331.532421 
L 380.995956 328.988128 
L 380.82574 327.655876 
L 380.41794 326.15183 
L 379.893807 321.811993 
L 378.744325 319.459461 
L 378.418187 318.045062 
L 377.893051 316.701234 
L 377.237646 315.600274 
L 376.115047 312.254457 
L 375.336376 310.740452 
L 374.715937 308.986357 
L 374.167675 307.845013 
L 372.25571 305.328894 
L 370.274451 301.750979 
L 368.470541 299.797861 
L 366.545049 296.776221 
L 365.182563 295.742778 
L 364.141281 294.707072 
L 363.495714 294.272726 
L 360.584709 293.368211 
L 359.539279 293.405156 
L 359.539279 293.405156 
" clip-path="url(#p849dc55010)" style="fill: none; stroke: #1f77b4; stroke-width: 1.5; stroke-linecap: square"/>
   </g>
   <g id="text_5">
    <!-- jasp   -   dlm8 -->
    <g transform="translate(278.538778 280.644706) scale(0.2 -0.2)">
     <defs>
      <path id="DejaVuSans-6a" d="M 603 3500 
L 1178 3500 
L 1178 -63 
Q 1178 -731 923 -1031 
Q 669 -1331 103 -1331 
L -116 -1331 
L -116 -844 
L 38 -844 
Q 366 -844 484 -692 
Q 603 -541 603 -63 
L 603 3500 
z
M 603 4863 
L 1178 4863 
L 1178 4134 
L 603 4134 
L 603 4863 
z
" transform="scale(0.015625)"/>
      <path id="DejaVuSans-61" d="M 2194 1759 
Q 1497 1759 1228 1600 
Q 959 1441 959 1056 
Q 959 750 1161 570 
Q 1363 391 1709 391 
Q 2188 391 2477 730 
Q 2766 1069 2766 1631 
L 2766 1759 
L 2194 1759 
z
M 3341 1997 
L 3341 0 
L 2766 0 
L 2766 531 
Q 2569 213 2275 61 
Q 1981 -91 1556 -91 
Q 1019 -91 701 211 
Q 384 513 384 1019 
Q 384 1609 779 1909 
Q 1175 2209 1959 2209 
L 2766 2209 
L 2766 2266 
Q 2766 2663 2505 2880 
Q 2244 3097 1772 3097 
Q 1472 3097 1187 3025 
Q 903 2953 641 2809 
L 641 3341 
Q 956 3463 1253 3523 
Q 1550 3584 1831 3584 
Q 2591 3584 2966 3190 
Q 3341 2797 3341 1997 
z
" transform="scale(0.015625)"/>
      <path id="DejaVuSans-73" d="M 2834 3397 
L 2834 2853 
Q 2591 2978 2328 3040 
Q 2066 3103 1784 3103 
Q 1356 3103 1142 2972 
Q 928 2841 928 2578 
Q 928 2378 1081 2264 
Q 1234 2150 1697 2047 
L 1894 2003 
Q 2506 1872 2764 1633 
Q 3022 1394 3022 966 
Q 3022 478 2636 193 
Q 2250 -91 1575 -91 
Q 1294 -91 989 -36 
Q 684 19 347 128 
L 347 722 
Q 666 556 975 473 
Q 1284 391 1588 391 
Q 1994 391 2212 530 
Q 2431 669 2431 922 
Q 2431 1156 2273 1281 
Q 2116 1406 1581 1522 
L 1381 1569 
Q 847 1681 609 1914 
Q 372 2147 372 2553 
Q 372 3047 722 3315 
Q 1072 3584 1716 3584 
Q 2034 3584 2315 3537 
Q 2597 3491 2834 3397 
z
" transform="scale(0.015625)"/>
      <path id="DejaVuSans-70" d="M 1159 525 
L 1159 -1331 
L 581 -1331 
L 581 3500 
L 1159 3500 
L 1159 2969 
Q 1341 3281 1617 3432 
Q 1894 3584 2278 3584 
Q 2916 3584 3314 3078 
Q 3713 2572 3713 1747 
Q 3713 922 3314 415 
Q 2916 -91 2278 -91 
Q 1894 -91 1617 61 
Q 1341 213 1159 525 
z
M 3116 1747 
Q 3116 2381 2855 2742 
Q 2594 3103 2138 3103 
Q 1681 3103 1420 2742 
Q 1159 2381 1159 1747 
Q 1159 1113 1420 752 
Q 1681 391 2138 391 
Q 2594 391 2855 752 
Q 3116 1113 3116 1747 
z
" transform="scale(0.015625)"/>
     </defs>
     <use xlink:href="#DejaVuSans-6a"/>
     <use xlink:href="#DejaVuSans-61" x="27.783203"/>
     <use xlink:href="#DejaVuSans-73" x="89.0625"/>
     <use xlink:href="#DejaVuSans-70" x="141.162109"/>
     <use xlink:href="#DejaVuSans-20" x="204.638672"/>
     <use xlink:href="#DejaVuSans-20" x="236.425781"/>
     <use xlink:href="#DejaVuSans-20" x="268.212891"/>
     <use xlink:href="#DejaVuSans-2d" x="300"/>
     <use xlink:href="#DejaVuSans-20" x="336.083984"/>
     <use xlink:href="#DejaVuSans-20" x="367.871094"/>
     <use xlink:href="#DejaVuSans-20" x="399.658203"/>
     <use xlink:href="#DejaVuSans-64" x="431.445312"/>
     <use xlink:href="#DejaVuSans-6c" x="494.921875"/>
     <use xlink:href="#DejaVuSans-6d" x="522.705078"/>
     <use xlink:href="#DejaVuSans-38" x="620.117188"/>
    </g>
   </g>
  </g>
  <g id="axes_6">
   <g id="line2d_6">
    <path d="M 848.917495 291.601298 
L 847.144803 291.091765 
L 845.715685 291.112645 
L 845.029204 291.367052 
L 844.059076 292.290118 
L 842.883709 294.164749 
L 841.478933 296.136463 
L 840.588752 297.891592 
L 839.381035 299.444077 
L 838.199092 300.323541 
L 836.814589 301.51726 
L 835.920716 302.556947 
L 834.76823 303.342922 
L 833.968131 304.102584 
L 833.008983 304.545295 
L 832.169363 305.134531 
L 831.657418 305.954973 
L 831.428553 306.917568 
L 830.826158 308.075518 
L 829.972071 309.238405 
L 827.239751 312.258825 
L 826.239896 313.645863 
L 824.8361 314.762918 
L 821.307602 318.781235 
L 819.739823 321.548667 
L 818.031593 323.826566 
L 816.657354 326.183467 
L 813.139311 330.501439 
L 810.939871 333.923212 
L 810.359251 335.973026 
L 809.491333 337.829403 
L 808.481713 338.903162 
L 807.222091 339.871535 
L 805.868721 340.633523 
L 805.155481 341.298393 
L 804.67069 342.5681 
L 804.460416 343.650589 
L 803.618994 345.577135 
L 804.003281 346.583449 
L 803.969523 347.342033 
L 803.533942 349.247663 
L 803.023117 350.276234 
L 802.116148 354.151419 
L 801.473617 355.699924 
L 800.907842 357.641511 
L 800.334635 358.970186 
L 799.787064 359.613458 
L 799.798864 360.712775 
L 800.473515 362.064499 
L 801.142598 365.278682 
L 801.760092 366.062505 
L 802.206117 366.167214 
L 803.22237 367.160465 
L 804.50558 368.027498 
L 804.634901 368.305157 
L 804.803232 368.426169 
L 805.064785 368.949889 
L 805.773974 369.910216 
L 807.743128 371.660112 
L 808.606656 371.950986 
L 809.841653 372.159678 
L 810.9261 372.814689 
L 812.870358 374.575401 
L 813.314292 374.924159 
L 816.712284 376.621965 
L 817.597046 376.753531 
L 818.906886 377.270696 
L 820.49441 377.458966 
L 821.916942 377.957488 
L 822.909854 378.543674 
L 824.045493 379.070903 
L 824.956475 379.262648 
L 825.997923 379.235795 
L 827.038779 379.472974 
L 829.509606 379.75373 
L 830.195673 379.556496 
L 831.4677 379.682059 
L 832.079875 379.909393 
L 833.024257 380.032941 
L 834.001741 379.760985 
L 838.501589 378.156773 
L 840.18558 376.940207 
L 841.413123 376.271184 
L 842.969712 375.735729 
L 843.915025 374.904263 
L 845.684003 373.940107 
L 846.368531 373.154519 
L 846.8951 372.047984 
L 847.82767 370.677261 
L 849.635285 368.77583 
L 854.769204 365.096321 
L 855.676076 364.369509 
L 857.101997 363.587594 
L 858.126939 362.814324 
L 858.710829 362.703482 
L 860.65247 360.949869 
L 862.079372 358.428662 
L 863.243639 356.701826 
L 865.289625 354.562517 
L 866.693953 353.209306 
L 867.041478 351.848633 
L 867.379325 349.450137 
L 867.639713 348.646237 
L 867.314445 347.379324 
L 867.575581 345.073504 
L 867.941498 343.91138 
L 868.001293 343.197639 
L 867.534851 342.442652 
L 866.904396 340.619189 
L 866.261629 339.358533 
L 865.941399 338.357121 
L 865.769513 337.446061 
L 865.749611 335.782305 
L 865.464504 334.554154 
L 865.779043 331.737404 
L 865.707193 330.417371 
L 865.269127 329.244526 
L 864.995497 328.099916 
L 864.475362 326.939224 
L 863.970048 325.456242 
L 862.971049 323.238773 
L 862.907392 320.541856 
L 862.332951 318.828462 
L 862.139216 317.741625 
L 861.444386 316.756827 
L 860.562641 316.25048 
L 858.962509 314.501039 
L 857.182076 312.182079 
L 856.998544 311.061635 
L 856.575671 310.312802 
L 856.207709 309.262682 
L 855.698332 308.389346 
L 853.407206 305.983051 
L 852.33875 305.276982 
L 851.247916 304.145233 
L 850.003787 302.184521 
L 849.49636 300.753043 
L 848.634137 299.308896 
L 847.570927 297.982939 
L 845.630408 296.062729 
L 844.850941 295.042268 
L 844.023422 294.253344 
L 843.249872 293.816107 
L 842.666798 293.694332 
L 842.666798 293.694332 
" clip-path="url(#pd7d71ee2fb)" style="fill: none; stroke: #ff7f0e; stroke-width: 1.5; stroke-linecap: square"/>
   </g>
   <g id="text_6">
    <!-- jasp   -   dunn -->
    <g transform="translate(765.389347 280.644706) scale(0.2 -0.2)">
     <use xlink:href="#DejaVuSans-6a"/>
     <use xlink:href="#DejaVuSans-61" x="27.783203"/>
     <use xlink:href="#DejaVuSans-73" x="89.0625"/>
     <use xlink:href="#DejaVuSans-70" x="141.162109"/>
     <use xlink:href="#DejaVuSans-20" x="204.638672"/>
     <use xlink:href="#DejaVuSans-20" x="236.425781"/>
     <use xlink:href="#DejaVuSans-20" x="268.212891"/>
     <use xlink:href="#DejaVuSans-2d" x="300"/>
     <use xlink:href="#DejaVuSans-20" x="336.083984"/>
     <use xlink:href="#DejaVuSans-20" x="367.871094"/>
     <use xlink:href="#DejaVuSans-20" x="399.658203"/>
     <use xlink:href="#DejaVuSans-64" x="431.445312"/>
     <use xlink:href="#DejaVuSans-75" x="494.921875"/>
     <use xlink:href="#DejaVuSans-6e" x="558.300781"/>
     <use xlink:href="#DejaVuSans-6e" x="621.679688"/>
    </g>
   </g>
  </g>
 </g>
 <defs>
  <clipPath id="pd846bafcdb">
   <rect x="144" y="51.84" width="405.818182" height="97.835294"/>
  </clipPath>
  <clipPath id="p83ae18ed87">
   <rect x="630.981818" y="51.84" width="405.818182" height="97.835294"/>
  </clipPath>
  <clipPath id="p67bb4becf7">
   <rect x="144" y="169.242353" width="405.818182" height="97.835294"/>
  </clipPath>
  <clipPath id="p53ed5a49e2">
   <rect x="630.981818" y="169.242353" width="405.818182" height="97.835294"/>
  </clipPath>
  <clipPath id="p849dc55010">
   <rect x="144" y="286.644706" width="405.818182" height="97.835294"/>
  </clipPath>
  <clipPath id="pd7d71ee2fb">
   <rect x="630.981818" y="286.644706" width="405.818182" height="97.835294"/>
  </clipPath>
 </defs>
</svg>
