<?xml version="1.0" encoding="utf-8" standalone="no"?>
<!DOCTYPE svg PUBLIC "-//W3C//DTD SVG 1.1//EN"
  "http://www.w3.org/Graphics/SVG/1.1/DTD/svg11.dtd">
<svg xmlns:xlink="http://www.w3.org/1999/xlink" width="504pt" height="432pt" viewBox="0 0 504 432" xmlns="http://www.w3.org/2000/svg" version="1.1">
 <metadata>
  <rdf:RDF xmlns:dc="http://purl.org/dc/elements/1.1/" xmlns:cc="http://creativecommons.org/ns#" xmlns:rdf="http://www.w3.org/1999/02/22-rdf-syntax-ns#">
   <cc:Work>
    <dc:type rdf:resource="http://purl.org/dc/dcmitype/StillImage"/>
    <dc:date>2023-12-18T05:20:19.323911</dc:date>
    <dc:format>image/svg+xml</dc:format>
    <dc:creator>
     <cc:Agent>
      <dc:title>Matplotlib v3.6.2, https://matplotlib.org/</dc:title>
     </cc:Agent>
    </dc:creator>
   </cc:Work>
  </rdf:RDF>
 </metadata>
 <defs>
  <style type="text/css">*{stroke-linejoin: round; stroke-linecap: butt}</style>
 </defs>
 <g id="figure_1">
  <g id="patch_1">
   <path d="M 0 432 
L 504 432 
L 504 0 
L 0 0 
z
" style="fill: #ffffff"/>
  </g>
  <g id="axes_1">
   <g id="line2d_1">
    <path d="M 162.810145 56.641976 
L 161.925861 56.772692 
L 159.488342 57.615299 
L 154.933839 58.068892 
L 153.802247 58.377642 
L 151.388897 58.516577 
L 150.336043 58.902821 
L 149.28296 59.598215 
L 148.126684 60.584731 
L 146.909186 61.295145 
L 144.647148 61.997394 
L 143.035923 62.633679 
L 140.633906 63.882071 
L 139.458568 64.7725 
L 133.390725 70.824847 
L 130.784887 73.699412 
L 126.936272 79.109433 
L 126.072257 80.737185 
L 124.320036 83.067178 
L 123.137073 84.319779 
L 122.130261 85.903679 
L 119.454943 91.835933 
L 118.284599 93.718571 
L 117.572012 94.679827 
L 116.276209 98.091519 
L 115.755662 99.872226 
L 115.462954 103.111089 
L 115.190518 104.167411 
L 114.798517 107.80015 
L 114.521533 111.760134 
L 114.252309 114.430695 
L 113.727928 119.290315 
L 113.862658 122.197036 
L 113.953385 123.406916 
L 114.585054 127.250844 
L 115.392265 129.473975 
L 115.872479 130.729248 
L 116.429503 131.492234 
L 117.276287 132.424985 
L 117.944345 133.349477 
L 119.758182 135.3226 
L 120.255405 136.020196 
L 122.056306 137.450278 
L 122.507209 137.802989 
L 124.76815 139.057931 
L 127.160681 140.813928 
L 129.708805 142.227981 
L 130.414403 142.85613 
L 131.102333 143.290658 
L 132.121826 143.731002 
L 138.040227 144.357908 
L 140.070568 145.089132 
L 141.239465 145.228235 
L 145.761298 144.97976 
L 146.979775 144.90289 
L 149.083491 144.165289 
L 149.996105 143.694498 
L 154.267032 142.323816 
L 155.692699 141.592993 
L 157.118461 141.131909 
L 160.850387 139.23419 
L 163.811531 137.940811 
L 169.034862 134.969936 
L 170.344957 133.899913 
L 171.762372 132.552887 
L 176.284474 130.167971 
L 177.80087 128.818479 
L 178.435282 127.944524 
L 179.230533 127.137714 
L 181.423177 124.659658 
L 182.315264 123.743231 
L 183.585662 121.622897 
L 184.136562 120.211315 
L 184.746501 117.893968 
L 185.96685 115.748774 
L 188.140266 112.496469 
L 188.610098 111.336186 
L 189.656468 107.571328 
L 189.87178 106.499451 
L 189.866262 105.413096 
L 189.610311 101.581618 
L 189.59446 100.38811 
L 189.85893 99.354279 
L 189.737715 95.458339 
L 189.757561 94.005987 
L 189.411093 91.438515 
L 188.568291 87.293701 
L 185.891495 79.760875 
L 185.71245 78.495993 
L 185.17074 76.947313 
L 180.331341 69.227465 
L 179.4734 67.053275 
L 178.697188 65.983623 
L 177.811928 64.431758 
L 176.840983 63.009824 
L 175.879789 62.137481 
L 173.987838 60.75648 
L 172.700545 59.29226 
L 172.005399 58.907751 
L 168.89352 58.024216 
L 168.299034 57.571371 
L 166.934411 57.136473 
L 166.219008 57.039126 
L 163.961027 56.287059 
L 163.961027 56.287059 
" clip-path="url(#p0ec8f962bc)" style="fill: none; stroke: #1f77b4; stroke-width: 1.5; stroke-linecap: square"/>
   </g>
   <g id="text_1">
    <!-- control - dlm8 -->
    <g transform="translate(81.921165 45.84) scale(0.2 -0.2)">
     <defs>
      <path id="DejaVuSans-63" d="M 3122 3366 
L 3122 2828 
Q 2878 2963 2633 3030 
Q 2388 3097 2138 3097 
Q 1578 3097 1268 2742 
Q 959 2388 959 1747 
Q 959 1106 1268 751 
Q 1578 397 2138 397 
Q 2388 397 2633 464 
Q 2878 531 3122 666 
L 3122 134 
Q 2881 22 2623 -34 
Q 2366 -91 2075 -91 
Q 1284 -91 818 406 
Q 353 903 353 1747 
Q 353 2603 823 3093 
Q 1294 3584 2113 3584 
Q 2378 3584 2631 3529 
Q 2884 3475 3122 3366 
z
" transform="scale(0.015625)"/>
      <path id="DejaVuSans-6f" d="M 1959 3097 
Q 1497 3097 1228 2736 
Q 959 2375 959 1747 
Q 959 1119 1226 758 
Q 1494 397 1959 397 
Q 2419 397 2687 759 
Q 2956 1122 2956 1747 
Q 2956 2369 2687 2733 
Q 2419 3097 1959 3097 
z
M 1959 3584 
Q 2709 3584 3137 3096 
Q 3566 2609 3566 1747 
Q 3566 888 3137 398 
Q 2709 -91 1959 -91 
Q 1206 -91 779 398 
Q 353 888 353 1747 
Q 353 2609 779 3096 
Q 1206 3584 1959 3584 
z
" transform="scale(0.015625)"/>
      <path id="DejaVuSans-6e" d="M 3513 2113 
L 3513 0 
L 2938 0 
L 2938 2094 
Q 2938 2591 2744 2837 
Q 2550 3084 2163 3084 
Q 1697 3084 1428 2787 
Q 1159 2491 1159 1978 
L 1159 0 
L 581 0 
L 581 3500 
L 1159 3500 
L 1159 2956 
Q 1366 3272 1645 3428 
Q 1925 3584 2291 3584 
Q 2894 3584 3203 3211 
Q 3513 2838 3513 2113 
z
" transform="scale(0.015625)"/>
      <path id="DejaVuSans-74" d="M 1172 4494 
L 1172 3500 
L 2356 3500 
L 2356 3053 
L 1172 3053 
L 1172 1153 
Q 1172 725 1289 603 
Q 1406 481 1766 481 
L 2356 481 
L 2356 0 
L 1766 0 
Q 1100 0 847 248 
Q 594 497 594 1153 
L 594 3053 
L 172 3053 
L 172 3500 
L 594 3500 
L 594 4494 
L 1172 4494 
z
" transform="scale(0.015625)"/>
      <path id="DejaVuSans-72" d="M 2631 2963 
Q 2534 3019 2420 3045 
Q 2306 3072 2169 3072 
Q 1681 3072 1420 2755 
Q 1159 2438 1159 1844 
L 1159 0 
L 581 0 
L 581 3500 
L 1159 3500 
L 1159 2956 
Q 1341 3275 1631 3429 
Q 1922 3584 2338 3584 
Q 2397 3584 2469 3576 
Q 2541 3569 2628 3553 
L 2631 2963 
z
" transform="scale(0.015625)"/>
      <path id="DejaVuSans-6c" d="M 603 4863 
L 1178 4863 
L 1178 0 
L 603 0 
L 603 4863 
z
" transform="scale(0.015625)"/>
      <path id="DejaVuSans-20" transform="scale(0.015625)"/>
      <path id="DejaVuSans-2d" d="M 313 2009 
L 1997 2009 
L 1997 1497 
L 313 1497 
L 313 2009 
z
" transform="scale(0.015625)"/>
      <path id="DejaVuSans-64" d="M 2906 2969 
L 2906 4863 
L 3481 4863 
L 3481 0 
L 2906 0 
L 2906 525 
Q 2725 213 2448 61 
Q 2172 -91 1784 -91 
Q 1150 -91 751 415 
Q 353 922 353 1747 
Q 353 2572 751 3078 
Q 1150 3584 1784 3584 
Q 2172 3584 2448 3432 
Q 2725 3281 2906 2969 
z
M 947 1747 
Q 947 1113 1208 752 
Q 1469 391 1925 391 
Q 2381 391 2643 752 
Q 2906 1113 2906 1747 
Q 2906 2381 2643 2742 
Q 2381 3103 1925 3103 
Q 1469 3103 1208 2742 
Q 947 2381 947 1747 
z
" transform="scale(0.015625)"/>
      <path id="DejaVuSans-6d" d="M 3328 2828 
Q 3544 3216 3844 3400 
Q 4144 3584 4550 3584 
Q 5097 3584 5394 3201 
Q 5691 2819 5691 2113 
L 5691 0 
L 5113 0 
L 5113 2094 
Q 5113 2597 4934 2840 
Q 4756 3084 4391 3084 
Q 3944 3084 3684 2787 
Q 3425 2491 3425 1978 
L 3425 0 
L 2847 0 
L 2847 2094 
Q 2847 2600 2669 2842 
Q 2491 3084 2119 3084 
Q 1678 3084 1418 2786 
Q 1159 2488 1159 1978 
L 1159 0 
L 581 0 
L 581 3500 
L 1159 3500 
L 1159 2956 
Q 1356 3278 1631 3431 
Q 1906 3584 2284 3584 
Q 2666 3584 2933 3390 
Q 3200 3197 3328 2828 
z
" transform="scale(0.015625)"/>
      <path id="DejaVuSans-38" d="M 2034 2216 
Q 1584 2216 1326 1975 
Q 1069 1734 1069 1313 
Q 1069 891 1326 650 
Q 1584 409 2034 409 
Q 2484 409 2743 651 
Q 3003 894 3003 1313 
Q 3003 1734 2745 1975 
Q 2488 2216 2034 2216 
z
M 1403 2484 
Q 997 2584 770 2862 
Q 544 3141 544 3541 
Q 544 4100 942 4425 
Q 1341 4750 2034 4750 
Q 2731 4750 3128 4425 
Q 3525 4100 3525 3541 
Q 3525 3141 3298 2862 
Q 3072 2584 2669 2484 
Q 3125 2378 3379 2068 
Q 3634 1759 3634 1313 
Q 3634 634 3220 271 
Q 2806 -91 2034 -91 
Q 1263 -91 848 271 
Q 434 634 434 1313 
Q 434 1759 690 2068 
Q 947 2378 1403 2484 
z
M 1172 3481 
Q 1172 3119 1398 2916 
Q 1625 2713 2034 2713 
Q 2441 2713 2670 2916 
Q 2900 3119 2900 3481 
Q 2900 3844 2670 4047 
Q 2441 4250 2034 4250 
Q 1625 4250 1398 4047 
Q 1172 3844 1172 3481 
z
" transform="scale(0.015625)"/>
     </defs>
     <use xlink:href="#DejaVuSans-63"/>
     <use xlink:href="#DejaVuSans-6f" x="54.980469"/>
     <use xlink:href="#DejaVuSans-6e" x="116.162109"/>
     <use xlink:href="#DejaVuSans-74" x="179.541016"/>
     <use xlink:href="#DejaVuSans-72" x="218.75"/>
     <use xlink:href="#DejaVuSans-6f" x="257.613281"/>
     <use xlink:href="#DejaVuSans-6c" x="318.794922"/>
     <use xlink:href="#DejaVuSans-20" x="346.578125"/>
     <use xlink:href="#DejaVuSans-2d" x="378.365234"/>
     <use xlink:href="#DejaVuSans-20" x="414.449219"/>
     <use xlink:href="#DejaVuSans-64" x="446.236328"/>
     <use xlink:href="#DejaVuSans-6c" x="509.712891"/>
     <use xlink:href="#DejaVuSans-6d" x="537.496094"/>
     <use xlink:href="#DejaVuSans-38" x="634.908203"/>
    </g>
   </g>
  </g>
  <g id="axes_2">
   <g id="line2d_2">
    <path d="M 379.310412 56.705276 
L 378.677587 56.80274 
L 377.928414 56.472716 
L 377.180354 56.287059 
L 376.589492 56.589927 
L 373.898106 58.708953 
L 372.953795 58.847642 
L 372.159669 59.286873 
L 371.452089 59.355702 
L 370.138407 59.993311 
L 368.645806 61.626181 
L 368.129796 62.091991 
L 367.341863 63.013897 
L 366.685838 63.43144 
L 365.396176 64.747725 
L 363.325553 66.832601 
L 362.472242 67.329772 
L 361.489494 67.752163 
L 359.935357 69.602488 
L 359.450772 70.461195 
L 358.810344 71.901533 
L 358.199459 73.964298 
L 356.897773 76.127182 
L 355.286173 78.312683 
L 352.655353 80.702662 
L 350.791178 82.42541 
L 348.963754 85.066069 
L 346.034141 88.779235 
L 343.712206 91.579851 
L 342.36886 93.498967 
L 341.439319 95.164439 
L 339.937255 97.13466 
L 339.245324 98.736685 
L 337.251652 102.559523 
L 334.775505 107.518392 
L 334.160611 108.36695 
L 332.767011 111.745364 
L 332.700669 112.642245 
L 330.879984 117.394238 
L 329.625324 118.832584 
L 329.488595 120.35363 
L 329.629233 121.365949 
L 329.676086 122.582795 
L 329.608288 123.721094 
L 329.761787 124.938805 
L 330.058848 126.243268 
L 330.118177 127.035725 
L 330.376896 127.780042 
L 330.481887 128.977087 
L 330.769884 130.097724 
L 331.187882 130.936062 
L 332.094888 132.369765 
L 332.642141 132.708511 
L 333.204909 133.339976 
L 335.074474 134.594477 
L 335.797311 135.306865 
L 336.527484 136.276606 
L 337.336393 137.602866 
L 338.11702 138.546325 
L 340.680945 140.839562 
L 341.397831 141.904867 
L 345.499873 144.216486 
L 348.692165 145.228235 
L 349.812448 144.965198 
L 352.098567 144.894974 
L 353.563545 144.772909 
L 355.034234 144.472966 
L 356.642232 144.550911 
L 358.211461 144.511786 
L 358.999561 144.017222 
L 360.188475 143.422577 
L 361.321468 143.264059 
L 362.477169 142.730621 
L 364.825849 142.502439 
L 367.66217 140.844252 
L 368.760604 139.955764 
L 370.110176 139.287393 
L 371.211567 138.238496 
L 372.434306 137.741087 
L 375.32501 135.924994 
L 376.496634 135.274685 
L 377.247112 134.627015 
L 379.492336 133.880148 
L 380.600497 133.655117 
L 381.87352 133.54437 
L 384.480443 132.428691 
L 387.206103 131.758932 
L 388.217333 131.235877 
L 390.100894 129.803538 
L 390.750625 129.148877 
L 392.472399 125.631584 
L 393.05377 124.66253 
L 393.945437 120.963047 
L 394.353748 119.756816 
L 394.812317 115.606971 
L 395.294147 114.445894 
L 396.174094 113.153349 
L 396.560143 112.337297 
L 397.168403 107.964262 
L 396.951082 106.571382 
L 397.247845 105.314878 
L 397.427396 103.451637 
L 398.134908 101.444866 
L 398.480282 100.127615 
L 398.451531 98.248444 
L 399.408065 94.685552 
L 399.84881 93.243113 
L 400.165951 91.808527 
L 399.507458 90.853576 
L 399.070324 89.753219 
L 398.634076 87.113795 
L 398.614581 84.809346 
L 398.117011 83.961302 
L 397.911921 83.148804 
L 396.660444 80.548607 
L 395.751952 79.190435 
L 395.128328 78.126858 
L 394.790274 77.300512 
L 393.771996 76.271091 
L 393.167782 75.214817 
L 392.333687 73.351291 
L 391.372811 72.01951 
L 390.205278 70.852572 
L 388.384361 69.202092 
L 385.5814 67.299479 
L 384.221721 66.082675 
L 383.314612 65.529349 
L 380.286219 64.471158 
L 379.145964 63.788869 
L 378.018424 63.35912 
L 376.786549 62.741886 
L 376.786549 62.741886 
" clip-path="url(#pef4fbba771)" style="fill: none; stroke: #1f77b4; stroke-width: 1.5; stroke-linecap: square"/>
   </g>
   <g id="text_2">
    <!-- control - dunn -->
    <g transform="translate(294.84446 45.84) scale(0.2 -0.2)">
     <defs>
      <path id="DejaVuSans-75" d="M 544 1381 
L 544 3500 
L 1119 3500 
L 1119 1403 
Q 1119 906 1312 657 
Q 1506 409 1894 409 
Q 2359 409 2629 706 
Q 2900 1003 2900 1516 
L 2900 3500 
L 3475 3500 
L 3475 0 
L 2900 0 
L 2900 538 
Q 2691 219 2414 64 
Q 2138 -91 1772 -91 
Q 1169 -91 856 284 
Q 544 659 544 1381 
z
M 1991 3584 
L 1991 3584 
z
" transform="scale(0.015625)"/>
     </defs>
     <use xlink:href="#DejaVuSans-63"/>
     <use xlink:href="#DejaVuSans-6f" x="54.980469"/>
     <use xlink:href="#DejaVuSans-6e" x="116.162109"/>
     <use xlink:href="#DejaVuSans-74" x="179.541016"/>
     <use xlink:href="#DejaVuSans-72" x="218.75"/>
     <use xlink:href="#DejaVuSans-6f" x="257.613281"/>
     <use xlink:href="#DejaVuSans-6c" x="318.794922"/>
     <use xlink:href="#DejaVuSans-20" x="346.578125"/>
     <use xlink:href="#DejaVuSans-2d" x="378.365234"/>
     <use xlink:href="#DejaVuSans-20" x="414.449219"/>
     <use xlink:href="#DejaVuSans-64" x="446.236328"/>
     <use xlink:href="#DejaVuSans-75" x="509.712891"/>
     <use xlink:href="#DejaVuSans-6e" x="573.091797"/>
     <use xlink:href="#DejaVuSans-6e" x="636.470703"/>
    </g>
   </g>
  </g>
  <g id="axes_3">
   <g id="line2d_3">
    <path d="M 170.146806 180.38881 
L 169.054661 181.288023 
L 167.257025 182.306557 
L 166.131112 182.644385 
L 165.285894 183.164179 
L 163.66775 184.674064 
L 161.429296 189.404488 
L 160.641968 190.293627 
L 159.951262 190.811082 
L 159.0519 191.896359 
L 155.928525 194.540128 
L 152.666811 197.987574 
L 151.300931 199.24917 
L 150.630917 200.076723 
L 148.832231 203.608348 
L 148.340869 204.627481 
L 146.036385 208.133847 
L 144.837443 209.224208 
L 143.271747 210.267499 
L 141.828831 211.645141 
L 141.32516 212.729499 
L 140.549083 213.903183 
L 139.474681 215.257037 
L 138.385012 216.278473 
L 137.552508 217.364321 
L 136.992095 218.719501 
L 136.343189 222.236049 
L 135.507326 223.518273 
L 134.763473 227.14907 
L 133.967562 228.79753 
L 132.633148 230.719219 
L 131.420703 232.70087 
L 130.919449 234.218724 
L 129.797997 236.377029 
L 128.750185 238.133252 
L 128.012049 240.330804 
L 127.100878 242.438842 
L 125.106964 244.461766 
L 122.035088 248.3038 
L 121.217415 249.111553 
L 120.721756 250.556194 
L 120.213168 251.249458 
L 120.01542 251.900547 
L 120.241645 252.296702 
L 120.71513 252.563765 
L 120.945835 253.827923 
L 120.899371 254.819719 
L 120.656201 255.711373 
L 120.674088 255.986819 
L 120.921536 256.463077 
L 121.979555 256.883137 
L 122.902128 257.147615 
L 123.114242 257.7671 
L 123.433235 258.287305 
L 123.62283 258.839511 
L 125.594378 261.486944 
L 126.446415 262.27827 
L 127.009102 262.527046 
L 127.71333 262.630588 
L 129.519416 261.958335 
L 131.041257 261.76944 
L 132.987961 261.978118 
L 133.87077 262.196709 
L 135.348297 261.892023 
L 136.77307 261.451907 
L 138.042452 261.179268 
L 140.568908 259.971028 
L 142.396494 259.386462 
L 143.377751 258.763296 
L 145.534921 258.071481 
L 146.847257 257.881471 
L 149.071289 257.187017 
L 150.440065 257.495516 
L 153.002441 257.748636 
L 154.012079 257.627404 
L 155.024377 257.260936 
L 155.57553 256.909995 
L 156.686024 256.558585 
L 157.226577 255.788689 
L 159.572677 253.681789 
L 160.058543 253.538126 
L 161.077877 253.076533 
L 162.695324 252.856047 
L 167.769637 249.314996 
L 169.597781 246.750324 
L 170.829869 245.019665 
L 171.729243 244.452951 
L 172.590312 243.647489 
L 173.782464 242.912205 
L 174.802099 241.499782 
L 176.165813 240.12469 
L 176.93797 239.176304 
L 181.045366 234.685614 
L 182.167618 232.904286 
L 182.635011 232.212236 
L 183.000949 231.293005 
L 182.949821 230.270535 
L 182.544538 227.810227 
L 182.644875 226.205126 
L 183.095806 224.038523 
L 183.240322 222.019357 
L 183.524851 220.569094 
L 183.399528 219.415934 
L 183.530035 216.939553 
L 182.943623 214.129968 
L 182.02443 209.633753 
L 180.200903 205.911118 
L 179.964385 205.169224 
L 179.931246 202.094991 
L 179.584516 196.876037 
L 179.055378 195.533687 
L 177.828919 194.288251 
L 177.233441 193.526332 
L 175.245483 189.466215 
L 174.50303 188.571512 
L 173.865247 186.168139 
L 173.667826 184.315886 
L 173.414338 183.124778 
L 171.615985 180.867353 
L 170.884858 179.635841 
L 169.37107 175.826925 
L 168.736047 175.149605 
L 167.991155 173.956109 
L 167.206088 173.713955 
L 166.696439 173.689412 
L 166.072327 173.848557 
L 165.605478 174.573681 
L 165.605478 174.573681 
" clip-path="url(#p519acda087)" style="fill: none; stroke: #ff7f0e; stroke-width: 1.5; stroke-linecap: square"/>
   </g>
   <g id="text_3">
    <!-- cytd - dlm8 -->
    <g transform="translate(94.89304 163.242353) scale(0.2 -0.2)">
     <defs>
      <path id="DejaVuSans-79" d="M 2059 -325 
Q 1816 -950 1584 -1140 
Q 1353 -1331 966 -1331 
L 506 -1331 
L 506 -850 
L 844 -850 
Q 1081 -850 1212 -737 
Q 1344 -625 1503 -206 
L 1606 56 
L 191 3500 
L 800 3500 
L 1894 763 
L 2988 3500 
L 3597 3500 
L 2059 -325 
z
" transform="scale(0.015625)"/>
     </defs>
     <use xlink:href="#DejaVuSans-63"/>
     <use xlink:href="#DejaVuSans-79" x="54.980469"/>
     <use xlink:href="#DejaVuSans-74" x="114.160156"/>
     <use xlink:href="#DejaVuSans-64" x="153.369141"/>
     <use xlink:href="#DejaVuSans-20" x="216.845703"/>
     <use xlink:href="#DejaVuSans-2d" x="248.632812"/>
     <use xlink:href="#DejaVuSans-20" x="284.716797"/>
     <use xlink:href="#DejaVuSans-64" x="316.503906"/>
     <use xlink:href="#DejaVuSans-6c" x="379.980469"/>
     <use xlink:href="#DejaVuSans-6d" x="407.763672"/>
     <use xlink:href="#DejaVuSans-38" x="505.175781"/>
    </g>
   </g>
  </g>
  <g id="axes_4">
   <g id="line2d_4">
    <path d="M 384.207117 175.801733 
L 383.62983 176.268851 
L 383.099447 177.004775 
L 382.248303 178.711608 
L 381.059579 180.212059 
L 380.224037 181.008733 
L 378.398569 182.05548 
L 377.408849 183.199403 
L 376.229413 183.910957 
L 375.367992 184.062169 
L 374.448573 184.587168 
L 372.622628 186.141299 
L 371.565246 187.322092 
L 371.153947 188.313843 
L 371.120099 189.122302 
L 370.86018 189.492702 
L 370.039478 190.190699 
L 369.412236 190.484959 
L 368.753042 191.20707 
L 367.24776 193.030548 
L 365.796753 194.223848 
L 365.30095 195.40227 
L 364.846695 196.024158 
L 364.115686 196.609937 
L 362.482384 197.527043 
L 360.100395 199.281017 
L 356.393693 203.750811 
L 353.969671 205.611172 
L 352.021857 206.696959 
L 348.682306 209.588211 
L 347.956052 211.089107 
L 347.694219 211.628126 
L 347.912763 213.329164 
L 347.769979 214.955182 
L 347.407488 216.421504 
L 346.960906 217.619564 
L 347.346044 218.661066 
L 347.461553 220.040174 
L 347.323483 224.807045 
L 346.508173 227.760871 
L 345.10321 230.556746 
L 343.039591 232.767625 
L 341.859032 234.455986 
L 341.397545 235.606743 
L 341.157979 236.602198 
L 340.633902 237.411912 
L 339.75332 238.469885 
L 338.927098 239.87142 
L 337.834187 241.20101 
L 336.360574 241.976873 
L 336.016408 242.471968 
L 335.659874 243.327283 
L 334.461732 244.623592 
L 332.834154 246.133896 
L 330.629861 247.590689 
L 329.31304 248.892327 
L 329.217864 249.258437 
L 329.539407 249.986181 
L 330.194084 250.340767 
L 330.737581 250.287966 
L 331.18663 250.43282 
L 331.37393 250.271525 
L 331.791691 250.148657 
L 333.332773 250.125266 
L 334.291922 249.49464 
L 336.533803 249.294771 
L 337.567025 249.53994 
L 337.966174 249.915289 
L 339.371073 250.417243 
L 340.50318 250.909777 
L 344.067392 255.002952 
L 345.849655 255.660168 
L 346.365198 257.033368 
L 346.925928 257.575678 
L 348.005727 257.895432 
L 349.581939 257.998739 
L 350.553265 258.262138 
L 352.061583 259.312221 
L 353.087562 260.421035 
L 353.926632 261.587251 
L 354.97109 262.40207 
L 355.590967 262.630588 
L 356.055737 262.531131 
L 356.388398 262.329971 
L 358.063574 261.670061 
L 359.325681 261.672269 
L 359.820096 261.883593 
L 363.585824 262.463533 
L 364.034658 261.410672 
L 365.108123 259.913341 
L 365.899606 259.26896 
L 366.845317 258.267358 
L 367.649319 257.247603 
L 369.420618 256.032865 
L 371.092977 255.473973 
L 372.358529 254.619473 
L 373.893456 253.307009 
L 375.722297 252.006738 
L 376.710116 250.864369 
L 378.246429 249.467491 
L 380.340904 248.477698 
L 383.480349 247.913661 
L 384.813274 247.066675 
L 386.752402 246.796113 
L 388.597397 246.356146 
L 390.428499 245.718672 
L 390.956117 244.987668 
L 392.562917 243.158928 
L 394.097568 241.240057 
L 395.726531 238.844527 
L 395.39178 236.973427 
L 395.409088 235.827379 
L 396.212294 233.841245 
L 396.31374 232.951049 
L 396.565713 231.995366 
L 396.933408 231.471964 
L 397.17138 230.709644 
L 397.636688 230.126955 
L 399.461284 228.964945 
L 400.244798 228.000815 
L 400.424816 227.322299 
L 400.381805 223.56831 
L 400.015568 221.628961 
L 399.324699 220.119813 
L 398.222171 218.435496 
L 396.175433 217.466164 
L 394.958607 215.419656 
L 392.274846 211.817816 
L 391.212124 209.824344 
L 391.264269 205.770806 
L 390.766371 204.85006 
L 390.289506 203.663371 
L 389.656819 203.187267 
L 389.44952 202.710177 
L 388.764846 201.464619 
L 388.447448 200.350462 
L 388.08405 198.770421 
L 387.216025 196.897628 
L 386.67236 195.651789 
L 385.856925 192.577449 
L 385.431999 190.836664 
L 385.021785 190.203891 
L 382.920034 188.775516 
L 382.310243 187.37821 
L 382.202004 186.636987 
L 382.260335 185.799955 
L 381.651003 184.177031 
L 381.17865 179.862833 
L 380.80478 177.990605 
L 379.456589 176.87584 
L 378.602626 175.978448 
L 377.132641 175.146363 
L 376.410793 174.349269 
L 375.547168 173.689412 
L 374.905335 173.892773 
L 374.905335 173.892773 
" clip-path="url(#p08839aa570)" style="fill: none; stroke: #ff7f0e; stroke-width: 1.5; stroke-linecap: square"/>
   </g>
   <g id="text_4">
    <!-- cytd - dunn -->
    <g transform="translate(307.816335 163.242353) scale(0.2 -0.2)">
     <use xlink:href="#DejaVuSans-63"/>
     <use xlink:href="#DejaVuSans-79" x="54.980469"/>
     <use xlink:href="#DejaVuSans-74" x="114.160156"/>
     <use xlink:href="#DejaVuSans-64" x="153.369141"/>
     <use xlink:href="#DejaVuSans-20" x="216.845703"/>
     <use xlink:href="#DejaVuSans-2d" x="248.632812"/>
     <use xlink:href="#DejaVuSans-20" x="284.716797"/>
     <use xlink:href="#DejaVuSans-64" x="316.503906"/>
     <use xlink:href="#DejaVuSans-75" x="379.980469"/>
     <use xlink:href="#DejaVuSans-6e" x="443.359375"/>
     <use xlink:href="#DejaVuSans-6e" x="506.738281"/>
    </g>
   </g>
  </g>
  <g id="axes_5">
   <g id="line2d_5">
    <path d="M 166.666326 291.091765 
L 165.416106 291.25817 
L 164.386844 291.273 
L 162.696068 291.96682 
L 160.597295 293.506891 
L 159.64924 294.631199 
L 158.982349 295.49335 
L 157.968936 296.519535 
L 156.813765 297.251778 
L 155.837515 298.175644 
L 154.981375 298.818821 
L 154.395697 299.532037 
L 153.648 300.64291 
L 152.011774 302.651733 
L 151.309822 303.284151 
L 150.395496 304.371992 
L 149.982048 305.580009 
L 148.98617 306.922084 
L 147.931554 308.050125 
L 146.277974 310.674677 
L 145.683053 311.975626 
L 144.78976 313.382244 
L 143.393952 315.212032 
L 141.581777 317.247086 
L 138.986455 321.583429 
L 138.041537 323.061279 
L 136.913378 324.463823 
L 135.442305 325.935326 
L 132.593899 329.983345 
L 131.526357 331.105874 
L 127.115383 337.168618 
L 126.570169 338.600606 
L 125.288768 341.05226 
L 124.500699 342.846406 
L 123.871982 343.746043 
L 123.518475 345.00783 
L 122.713922 346.717991 
L 122.005825 347.941439 
L 119.457694 351.224185 
L 117.846092 355.276663 
L 117.33634 358.804077 
L 117.771965 362.300349 
L 118.184679 363.917834 
L 118.752351 365.810829 
L 119.137973 366.376603 
L 119.940089 368.008507 
L 121.15359 370.504276 
L 121.873132 371.144811 
L 122.362415 371.740674 
L 124.630995 372.872438 
L 125.871581 373.851439 
L 127.407574 375.316181 
L 129.318672 376.994819 
L 130.704889 377.681148 
L 132.549947 378.802505 
L 134.357488 379.606668 
L 138.444863 380.032941 
L 141.803836 380.02666 
L 143.137411 379.697752 
L 144.265214 379.633646 
L 146.177436 379.739878 
L 149.471619 379.512371 
L 150.902309 379.157486 
L 152.063934 379.180904 
L 152.826008 378.99135 
L 155.408035 377.865062 
L 158.623423 376.827047 
L 161.034975 375.225703 
L 164.147518 373.909605 
L 166.05634 372.606488 
L 167.238578 371.616739 
L 167.696457 370.89658 
L 168.795942 369.760856 
L 170.895709 368.018732 
L 171.587059 367.204747 
L 173.056453 364.963533 
L 176.010971 362.543039 
L 176.536118 361.536199 
L 177.027791 361.002544 
L 179.345771 356.393064 
L 179.871965 355.447635 
L 180.654402 354.315922 
L 181.137498 353.198624 
L 181.506379 351.332544 
L 182.209754 350.219406 
L 183.049165 348.13599 
L 184.393428 345.976718 
L 185.606888 343.604257 
L 185.712283 342.486506 
L 186.027891 340.972241 
L 186.209114 338.480526 
L 185.647283 335.736052 
L 185.602615 334.431343 
L 185.899389 333.033903 
L 186.022617 331.532421 
L 185.859592 328.988128 
L 185.689377 327.655876 
L 185.281576 326.15183 
L 184.757443 321.811993 
L 183.607962 319.459461 
L 183.281824 318.045062 
L 182.756687 316.701234 
L 182.101282 315.600274 
L 180.978683 312.254457 
L 180.200012 310.740452 
L 179.579574 308.986357 
L 179.031311 307.845013 
L 177.119347 305.328894 
L 175.138087 301.750979 
L 173.334177 299.797861 
L 171.408685 296.776221 
L 170.046199 295.742778 
L 169.004918 294.707072 
L 168.35935 294.272726 
L 165.448346 293.368211 
L 164.402916 293.405156 
L 164.402916 293.405156 
" clip-path="url(#p5fbf0dc75a)" style="fill: none; stroke: #2ca02c; stroke-width: 1.5; stroke-linecap: square"/>
   </g>
   <g id="text_5">
    <!-- jasp - dlm8 -->
    <g transform="translate(96.114915 280.644706) scale(0.2 -0.2)">
     <defs>
      <path id="DejaVuSans-6a" d="M 603 3500 
L 1178 3500 
L 1178 -63 
Q 1178 -731 923 -1031 
Q 669 -1331 103 -1331 
L -116 -1331 
L -116 -844 
L 38 -844 
Q 366 -844 484 -692 
Q 603 -541 603 -63 
L 603 3500 
z
M 603 4863 
L 1178 4863 
L 1178 4134 
L 603 4134 
L 603 4863 
z
" transform="scale(0.015625)"/>
      <path id="DejaVuSans-61" d="M 2194 1759 
Q 1497 1759 1228 1600 
Q 959 1441 959 1056 
Q 959 750 1161 570 
Q 1363 391 1709 391 
Q 2188 391 2477 730 
Q 2766 1069 2766 1631 
L 2766 1759 
L 2194 1759 
z
M 3341 1997 
L 3341 0 
L 2766 0 
L 2766 531 
Q 2569 213 2275 61 
Q 1981 -91 1556 -91 
Q 1019 -91 701 211 
Q 384 513 384 1019 
Q 384 1609 779 1909 
Q 1175 2209 1959 2209 
L 2766 2209 
L 2766 2266 
Q 2766 2663 2505 2880 
Q 2244 3097 1772 3097 
Q 1472 3097 1187 3025 
Q 903 2953 641 2809 
L 641 3341 
Q 956 3463 1253 3523 
Q 1550 3584 1831 3584 
Q 2591 3584 2966 3190 
Q 3341 2797 3341 1997 
z
" transform="scale(0.015625)"/>
      <path id="DejaVuSans-73" d="M 2834 3397 
L 2834 2853 
Q 2591 2978 2328 3040 
Q 2066 3103 1784 3103 
Q 1356 3103 1142 2972 
Q 928 2841 928 2578 
Q 928 2378 1081 2264 
Q 1234 2150 1697 2047 
L 1894 2003 
Q 2506 1872 2764 1633 
Q 3022 1394 3022 966 
Q 3022 478 2636 193 
Q 2250 -91 1575 -91 
Q 1294 -91 989 -36 
Q 684 19 347 128 
L 347 722 
Q 666 556 975 473 
Q 1284 391 1588 391 
Q 1994 391 2212 530 
Q 2431 669 2431 922 
Q 2431 1156 2273 1281 
Q 2116 1406 1581 1522 
L 1381 1569 
Q 847 1681 609 1914 
Q 372 2147 372 2553 
Q 372 3047 722 3315 
Q 1072 3584 1716 3584 
Q 2034 3584 2315 3537 
Q 2597 3491 2834 3397 
z
" transform="scale(0.015625)"/>
      <path id="DejaVuSans-70" d="M 1159 525 
L 1159 -1331 
L 581 -1331 
L 581 3500 
L 1159 3500 
L 1159 2969 
Q 1341 3281 1617 3432 
Q 1894 3584 2278 3584 
Q 2916 3584 3314 3078 
Q 3713 2572 3713 1747 
Q 3713 922 3314 415 
Q 2916 -91 2278 -91 
Q 1894 -91 1617 61 
Q 1341 213 1159 525 
z
M 3116 1747 
Q 3116 2381 2855 2742 
Q 2594 3103 2138 3103 
Q 1681 3103 1420 2742 
Q 1159 2381 1159 1747 
Q 1159 1113 1420 752 
Q 1681 391 2138 391 
Q 2594 391 2855 752 
Q 3116 1113 3116 1747 
z
" transform="scale(0.015625)"/>
     </defs>
     <use xlink:href="#DejaVuSans-6a"/>
     <use xlink:href="#DejaVuSans-61" x="27.783203"/>
     <use xlink:href="#DejaVuSans-73" x="89.0625"/>
     <use xlink:href="#DejaVuSans-70" x="141.162109"/>
     <use xlink:href="#DejaVuSans-20" x="204.638672"/>
     <use xlink:href="#DejaVuSans-2d" x="236.425781"/>
     <use xlink:href="#DejaVuSans-20" x="272.509766"/>
     <use xlink:href="#DejaVuSans-64" x="304.296875"/>
     <use xlink:href="#DejaVuSans-6c" x="367.773438"/>
     <use xlink:href="#DejaVuSans-6d" x="395.556641"/>
     <use xlink:href="#DejaVuSans-38" x="492.96875"/>
    </g>
   </g>
  </g>
  <g id="axes_6">
   <g id="line2d_6">
    <path d="M 379.853859 291.601298 
L 378.081167 291.091765 
L 376.652049 291.112645 
L 375.965568 291.367052 
L 374.995439 292.290118 
L 373.820073 294.164749 
L 372.415297 296.136463 
L 371.525115 297.891592 
L 370.317399 299.444077 
L 369.135456 300.323541 
L 367.750952 301.51726 
L 366.85708 302.556947 
L 365.704594 303.342922 
L 364.904495 304.102584 
L 363.945346 304.545295 
L 363.105727 305.134531 
L 362.593782 305.954973 
L 362.364917 306.917568 
L 361.762522 308.075518 
L 360.908435 309.238405 
L 358.176114 312.258825 
L 357.17626 313.645863 
L 355.772464 314.762918 
L 352.243966 318.781235 
L 350.676186 321.548667 
L 348.967956 323.826566 
L 347.593718 326.183467 
L 344.075675 330.501439 
L 341.876234 333.923212 
L 341.295615 335.973026 
L 340.427697 337.829403 
L 339.418077 338.903162 
L 338.158455 339.871535 
L 336.805085 340.633523 
L 336.091844 341.298393 
L 335.607053 342.5681 
L 335.396779 343.650589 
L 334.555358 345.577135 
L 334.939644 346.583449 
L 334.905886 347.342033 
L 334.470306 349.247663 
L 333.95948 350.276234 
L 333.052511 354.151419 
L 332.409981 355.699924 
L 331.844206 357.641511 
L 331.270998 358.970186 
L 330.723428 359.613458 
L 330.735228 360.712775 
L 331.409878 362.064499 
L 332.078962 365.278682 
L 332.696455 366.062505 
L 333.14248 366.167214 
L 334.158734 367.160465 
L 335.441943 368.027498 
L 335.571265 368.305157 
L 335.739595 368.426169 
L 336.001149 368.949889 
L 336.710337 369.910216 
L 338.679492 371.660112 
L 339.543019 371.950986 
L 340.778016 372.159678 
L 341.862464 372.814689 
L 343.806721 374.575401 
L 344.250656 374.924159 
L 347.648648 376.621965 
L 348.53341 376.753531 
L 349.843249 377.270696 
L 351.430774 377.458966 
L 352.853305 377.957488 
L 353.846218 378.543674 
L 354.981857 379.070903 
L 355.892839 379.262648 
L 356.934287 379.235795 
L 357.975143 379.472974 
L 360.44597 379.75373 
L 361.132036 379.556496 
L 362.404063 379.682059 
L 363.016239 379.909393 
L 363.96062 380.032941 
L 364.938104 379.760985 
L 369.437953 378.156773 
L 371.121943 376.940207 
L 372.349487 376.271184 
L 373.906076 375.735729 
L 374.851388 374.904263 
L 376.620366 373.940107 
L 377.304895 373.154519 
L 377.831464 372.047984 
L 378.764034 370.677261 
L 380.571649 368.77583 
L 385.705568 365.096321 
L 386.61244 364.369509 
L 388.03836 363.587594 
L 389.063303 362.814324 
L 389.647193 362.703482 
L 391.588834 360.949869 
L 393.015736 358.428662 
L 394.180003 356.701826 
L 396.225989 354.562517 
L 397.630317 353.209306 
L 397.977841 351.848633 
L 398.315689 349.450137 
L 398.576077 348.646237 
L 398.250808 347.379324 
L 398.511944 345.073504 
L 398.877862 343.91138 
L 398.937657 343.197639 
L 398.471214 342.442652 
L 397.84076 340.619189 
L 397.197992 339.358533 
L 396.877763 338.357121 
L 396.705876 337.446061 
L 396.685975 335.782305 
L 396.400868 334.554154 
L 396.715407 331.737404 
L 396.643556 330.417371 
L 396.20549 329.244526 
L 395.931861 328.099916 
L 395.411725 326.939224 
L 394.906412 325.456242 
L 393.907412 323.238773 
L 393.843756 320.541856 
L 393.269314 318.828462 
L 393.07558 317.741625 
L 392.38075 316.756827 
L 391.499004 316.25048 
L 389.898872 314.501039 
L 388.118439 312.182079 
L 387.934907 311.061635 
L 387.512035 310.312802 
L 387.144073 309.262682 
L 386.634696 308.389346 
L 384.34357 305.983051 
L 383.275114 305.276982 
L 382.184279 304.145233 
L 380.94015 302.184521 
L 380.432723 300.753043 
L 379.570501 299.308896 
L 378.50729 297.982939 
L 376.566771 296.062729 
L 375.787304 295.042268 
L 374.959786 294.253344 
L 374.186236 293.816107 
L 373.603162 293.694332 
L 373.603162 293.694332 
" clip-path="url(#p22b246f4ab)" style="fill: none; stroke: #2ca02c; stroke-width: 1.5; stroke-linecap: square"/>
   </g>
   <g id="text_6">
    <!-- jasp - dunn -->
    <g transform="translate(309.03821 280.644706) scale(0.2 -0.2)">
     <use xlink:href="#DejaVuSans-6a"/>
     <use xlink:href="#DejaVuSans-61" x="27.783203"/>
     <use xlink:href="#DejaVuSans-73" x="89.0625"/>
     <use xlink:href="#DejaVuSans-70" x="141.162109"/>
     <use xlink:href="#DejaVuSans-20" x="204.638672"/>
     <use xlink:href="#DejaVuSans-2d" x="236.425781"/>
     <use xlink:href="#DejaVuSans-20" x="272.509766"/>
     <use xlink:href="#DejaVuSans-64" x="304.296875"/>
     <use xlink:href="#DejaVuSans-75" x="367.773438"/>
     <use xlink:href="#DejaVuSans-6e" x="431.152344"/>
     <use xlink:href="#DejaVuSans-6e" x="494.53125"/>
    </g>
   </g>
  </g>
 </g>
 <defs>
  <clipPath id="p0ec8f962bc">
   <rect x="63" y="51.84" width="177.545455" height="97.835294"/>
  </clipPath>
  <clipPath id="pef4fbba771">
   <rect x="276.054545" y="51.84" width="177.545455" height="97.835294"/>
  </clipPath>
  <clipPath id="p519acda087">
   <rect x="63" y="169.242353" width="177.545455" height="97.835294"/>
  </clipPath>
  <clipPath id="p08839aa570">
   <rect x="276.054545" y="169.242353" width="177.545455" height="97.835294"/>
  </clipPath>
  <clipPath id="p5fbf0dc75a">
   <rect x="63" y="286.644706" width="177.545455" height="97.835294"/>
  </clipPath>
  <clipPath id="p22b246f4ab">
   <rect x="276.054545" y="286.644706" width="177.545455" height="97.835294"/>
  </clipPath>
 </defs>
</svg>
