<?xml version="1.0" encoding="utf-8" standalone="no"?>
<!DOCTYPE svg PUBLIC "-//W3C//DTD SVG 1.1//EN"
  "http://www.w3.org/Graphics/SVG/1.1/DTD/svg11.dtd">
<svg xmlns:xlink="http://www.w3.org/1999/xlink" width="576pt" height="288pt" viewBox="0 0 576 288" xmlns="http://www.w3.org/2000/svg" version="1.1">
 <metadata>
  <rdf:RDF xmlns:dc="http://purl.org/dc/elements/1.1/" xmlns:cc="http://creativecommons.org/ns#" xmlns:rdf="http://www.w3.org/1999/02/22-rdf-syntax-ns#">
   <cc:Work>
    <dc:type rdf:resource="http://purl.org/dc/dcmitype/StillImage"/>
    <dc:date>2023-12-18T21:34:22.038253</dc:date>
    <dc:format>image/svg+xml</dc:format>
    <dc:creator>
     <cc:Agent>
      <dc:title>Matplotlib v3.6.2, https://matplotlib.org/</dc:title>
     </cc:Agent>
    </dc:creator>
   </cc:Work>
  </rdf:RDF>
 </metadata>
 <defs>
  <style type="text/css">*{stroke-linejoin: round; stroke-linecap: butt}</style>
 </defs>
 <g id="figure_1">
  <g id="patch_1">
   <path d="M 0 288 
L 576 288 
L 576 0 
L 0 0 
z
" style="fill: #ffffff"/>
  </g>
  <g id="axes_1">
   <g id="line2d_1">
    <path d="M 212.572782 44.64 
L 210.355052 45.042139 
L 207.811496 45.777179 
L 205.610051 46.285482 
L 201.07037 47.914205 
L 196.908619 49.876165 
L 195.050421 51.043436 
L 186.898603 57.220662 
L 184.852594 58.837013 
L 180.518828 62.661443 
L 171.11124 70.299102 
L 161.275106 79.831107 
L 158.903796 82.4157 
L 156.847592 85.208183 
L 149.697058 94.477309 
L 145.060412 100.598913 
L 142.563496 104.042782 
L 136.872158 111.424804 
L 132.278679 118.224125 
L 128.366854 124.672391 
L 121.069927 135.930897 
L 115.426878 145.954497 
L 113.951499 149.313067 
L 103.698607 176.591974 
L 102.487057 179.524062 
L 100.391813 185.655921 
L 99.517163 188.513491 
L 98.464949 191.424316 
L 95.126524 201.947938 
L 94.361263 206.382065 
L 94.112354 212.929709 
L 94.260727 214.616204 
L 95.13827 218.005886 
L 96.99161 222.99286 
L 99.888865 226.863383 
L 105.013854 232.035189 
L 111.174567 236.487517 
L 123.683053 242.895611 
L 126.17797 243.634945 
L 128.649606 244.198184 
L 141.634584 245.891848 
L 145.6564 246.24 
L 150.223428 245.971265 
L 153.128409 245.769977 
L 158.064485 245.630921 
L 163.36725 245.275783 
L 170.916836 244.333075 
L 173.478539 243.940556 
L 175.94495 243.3783 
L 181.265652 241.781726 
L 183.829509 240.872793 
L 186.00555 239.905813 
L 190.852634 237.375404 
L 195.504526 234.486868 
L 198.283877 232.857455 
L 205.395215 228.23251 
L 220.009233 217.185374 
L 222.247357 215.11046 
L 227.64019 208.793159 
L 229.533643 206.194042 
L 234.63717 199.900326 
L 235.96225 197.834809 
L 241.348457 187.725243 
L 242.398299 185.006047 
L 243.750629 182.198333 
L 247.348672 173.662077 
L 249.176052 167.776483 
L 251.840234 157.614016 
L 252.288327 154.866049 
L 252.458763 150.142595 
L 252.492137 147.616608 
L 252.796737 141.696334 
L 252.321145 131.323501 
L 251.65414 125.123565 
L 250.896687 119.249423 
L 249.415033 112.671629 
L 248.192706 102.269206 
L 247.608019 98.859381 
L 246.765954 95.431811 
L 245.745089 92.628652 
L 242.081096 84.050304 
L 240.687583 81.213058 
L 239.060458 78.335946 
L 237.976269 75.503509 
L 236.585784 72.559512 
L 235.063966 69.669678 
L 233.395376 66.755205 
L 231.744348 64.201888 
L 230.096234 62.103378 
L 228.321636 60.101895 
L 226.484511 58.222274 
L 221.285493 52.432684 
L 219.465944 50.768977 
L 217.665358 49.285323 
L 215.808736 47.961006 
L 214.189069 47.081873 
L 212.645354 46.514891 
L 209.16947 45.638587 
L 205.322803 45.172562 
L 205.322803 45.172562 
" clip-path="url(#pce924c541a)" style="fill: none; stroke: #ff7f0e; stroke-width: 1.5; stroke-linecap: square"/>
   </g>
   <g id="text_1">
    <!-- Mean dlm8 -->
    <g transform="translate(117.799858 28.56) scale(0.2 -0.2)">
     <defs>
      <path id="DejaVuSans-4d" d="M 628 4666 
L 1569 4666 
L 2759 1491 
L 3956 4666 
L 4897 4666 
L 4897 0 
L 4281 0 
L 4281 4097 
L 3078 897 
L 2444 897 
L 1241 4097 
L 1241 0 
L 628 0 
L 628 4666 
z
" transform="scale(0.015625)"/>
      <path id="DejaVuSans-65" d="M 3597 1894 
L 3597 1613 
L 953 1613 
Q 991 1019 1311 708 
Q 1631 397 2203 397 
Q 2534 397 2845 478 
Q 3156 559 3463 722 
L 3463 178 
Q 3153 47 2828 -22 
Q 2503 -91 2169 -91 
Q 1331 -91 842 396 
Q 353 884 353 1716 
Q 353 2575 817 3079 
Q 1281 3584 2069 3584 
Q 2775 3584 3186 3129 
Q 3597 2675 3597 1894 
z
M 3022 2063 
Q 3016 2534 2758 2815 
Q 2500 3097 2075 3097 
Q 1594 3097 1305 2825 
Q 1016 2553 972 2059 
L 3022 2063 
z
" transform="scale(0.015625)"/>
      <path id="DejaVuSans-61" d="M 2194 1759 
Q 1497 1759 1228 1600 
Q 959 1441 959 1056 
Q 959 750 1161 570 
Q 1363 391 1709 391 
Q 2188 391 2477 730 
Q 2766 1069 2766 1631 
L 2766 1759 
L 2194 1759 
z
M 3341 1997 
L 3341 0 
L 2766 0 
L 2766 531 
Q 2569 213 2275 61 
Q 1981 -91 1556 -91 
Q 1019 -91 701 211 
Q 384 513 384 1019 
Q 384 1609 779 1909 
Q 1175 2209 1959 2209 
L 2766 2209 
L 2766 2266 
Q 2766 2663 2505 2880 
Q 2244 3097 1772 3097 
Q 1472 3097 1187 3025 
Q 903 2953 641 2809 
L 641 3341 
Q 956 3463 1253 3523 
Q 1550 3584 1831 3584 
Q 2591 3584 2966 3190 
Q 3341 2797 3341 1997 
z
" transform="scale(0.015625)"/>
      <path id="DejaVuSans-6e" d="M 3513 2113 
L 3513 0 
L 2938 0 
L 2938 2094 
Q 2938 2591 2744 2837 
Q 2550 3084 2163 3084 
Q 1697 3084 1428 2787 
Q 1159 2491 1159 1978 
L 1159 0 
L 581 0 
L 581 3500 
L 1159 3500 
L 1159 2956 
Q 1366 3272 1645 3428 
Q 1925 3584 2291 3584 
Q 2894 3584 3203 3211 
Q 3513 2838 3513 2113 
z
" transform="scale(0.015625)"/>
      <path id="DejaVuSans-20" transform="scale(0.015625)"/>
      <path id="DejaVuSans-64" d="M 2906 2969 
L 2906 4863 
L 3481 4863 
L 3481 0 
L 2906 0 
L 2906 525 
Q 2725 213 2448 61 
Q 2172 -91 1784 -91 
Q 1150 -91 751 415 
Q 353 922 353 1747 
Q 353 2572 751 3078 
Q 1150 3584 1784 3584 
Q 2172 3584 2448 3432 
Q 2725 3281 2906 2969 
z
M 947 1747 
Q 947 1113 1208 752 
Q 1469 391 1925 391 
Q 2381 391 2643 752 
Q 2906 1113 2906 1747 
Q 2906 2381 2643 2742 
Q 2381 3103 1925 3103 
Q 1469 3103 1208 2742 
Q 947 2381 947 1747 
z
" transform="scale(0.015625)"/>
      <path id="DejaVuSans-6c" d="M 603 4863 
L 1178 4863 
L 1178 0 
L 603 0 
L 603 4863 
z
" transform="scale(0.015625)"/>
      <path id="DejaVuSans-6d" d="M 3328 2828 
Q 3544 3216 3844 3400 
Q 4144 3584 4550 3584 
Q 5097 3584 5394 3201 
Q 5691 2819 5691 2113 
L 5691 0 
L 5113 0 
L 5113 2094 
Q 5113 2597 4934 2840 
Q 4756 3084 4391 3084 
Q 3944 3084 3684 2787 
Q 3425 2491 3425 1978 
L 3425 0 
L 2847 0 
L 2847 2094 
Q 2847 2600 2669 2842 
Q 2491 3084 2119 3084 
Q 1678 3084 1418 2786 
Q 1159 2488 1159 1978 
L 1159 0 
L 581 0 
L 581 3500 
L 1159 3500 
L 1159 2956 
Q 1356 3278 1631 3431 
Q 1906 3584 2284 3584 
Q 2666 3584 2933 3390 
Q 3200 3197 3328 2828 
z
" transform="scale(0.015625)"/>
      <path id="DejaVuSans-38" d="M 2034 2216 
Q 1584 2216 1326 1975 
Q 1069 1734 1069 1313 
Q 1069 891 1326 650 
Q 1584 409 2034 409 
Q 2484 409 2743 651 
Q 3003 894 3003 1313 
Q 3003 1734 2745 1975 
Q 2488 2216 2034 2216 
z
M 1403 2484 
Q 997 2584 770 2862 
Q 544 3141 544 3541 
Q 544 4100 942 4425 
Q 1341 4750 2034 4750 
Q 2731 4750 3128 4425 
Q 3525 4100 3525 3541 
Q 3525 3141 3298 2862 
Q 3072 2584 2669 2484 
Q 3125 2378 3379 2068 
Q 3634 1759 3634 1313 
Q 3634 634 3220 271 
Q 2806 -91 2034 -91 
Q 1263 -91 848 271 
Q 434 634 434 1313 
Q 434 1759 690 2068 
Q 947 2378 1403 2484 
z
M 1172 3481 
Q 1172 3119 1398 2916 
Q 1625 2713 2034 2713 
Q 2441 2713 2670 2916 
Q 2900 3119 2900 3481 
Q 2900 3844 2670 4047 
Q 2441 4250 2034 4250 
Q 1625 4250 1398 4047 
Q 1172 3844 1172 3481 
z
" transform="scale(0.015625)"/>
     </defs>
     <use xlink:href="#DejaVuSans-4d"/>
     <use xlink:href="#DejaVuSans-65" x="86.279297"/>
     <use xlink:href="#DejaVuSans-61" x="147.802734"/>
     <use xlink:href="#DejaVuSans-6e" x="209.082031"/>
     <use xlink:href="#DejaVuSans-20" x="272.460938"/>
     <use xlink:href="#DejaVuSans-64" x="304.248047"/>
     <use xlink:href="#DejaVuSans-6c" x="367.724609"/>
     <use xlink:href="#DejaVuSans-6d" x="395.507812"/>
     <use xlink:href="#DejaVuSans-38" x="492.919922"/>
    </g>
   </g>
  </g>
  <g id="axes_2">
   <g id="line2d_2">
    <path d="M 445.92592 44.64 
L 441.130892 45.207924 
L 436.667465 46.003906 
L 428.031344 49.111474 
L 423.272927 51.279153 
L 418.904996 53.623749 
L 412.235361 57.909391 
L 409.610232 60.057655 
L 405.20805 64.269685 
L 398.23855 70.613886 
L 396.153983 72.662983 
L 393.87625 74.664238 
L 389.232944 79.957653 
L 383.176633 87.938803 
L 380.87814 90.826047 
L 378.616864 93.984638 
L 376.121631 97.268528 
L 373.459224 100.582708 
L 367.745242 108.239585 
L 364.986984 111.980349 
L 363.000794 115.348572 
L 361.262229 118.595077 
L 359.527044 121.590513 
L 357.731499 124.362018 
L 352.514704 134.772199 
L 349.397024 140.77409 
L 348.06205 143.652551 
L 345.149259 150.900412 
L 343.430268 154.866334 
L 339.301076 163.24542 
L 338.426172 165.997518 
L 337.741842 168.853288 
L 336.775004 171.821024 
L 335.624305 174.530465 
L 334.663852 177.088474 
L 333.415392 182.292832 
L 332.476977 187.211109 
L 331.507954 196.784065 
L 331.451152 198.827769 
L 331.646097 201.174836 
L 331.98446 203.499397 
L 332.752697 205.721029 
L 333.702377 207.939454 
L 335.125258 212.152705 
L 335.949367 213.574723 
L 338.815631 216.464136 
L 343.207305 220.266686 
L 346.869313 223.838772 
L 348.685815 225.337524 
L 352.296743 228.017691 
L 358.993777 232.692893 
L 363.030075 235.828043 
L 365.591093 237.417832 
L 370.642263 240.021953 
L 375.525671 241.893177 
L 382.22794 244.149846 
L 389.750024 245.970754 
L 392.430208 246.24 
L 400.886932 246.138793 
L 403.496172 245.823242 
L 408.758068 244.933593 
L 413.649772 244.107919 
L 418.143881 243.179969 
L 422.997065 242.445643 
L 425.522121 241.869232 
L 427.975401 241.111128 
L 432.290213 239.304897 
L 437.41682 236.629704 
L 442.683528 233.649139 
L 447.857489 231.063071 
L 453.996307 228.100327 
L 459.045258 224.978093 
L 464.894015 220.842564 
L 468.301856 218.698566 
L 470.889819 216.748518 
L 473.131502 214.905433 
L 475.33038 212.943835 
L 479.938838 208.623562 
L 481.723827 206.49182 
L 483.518261 204.109804 
L 485.306932 202.166955 
L 488.659633 197.695902 
L 491.555111 192.656769 
L 492.843213 189.931819 
L 494.700725 184.479909 
L 495.760644 181.876187 
L 496.597757 179.43384 
L 498.654761 171.233548 
L 499.515763 168.596052 
L 500.596491 165.649846 
L 501.250099 162.644816 
L 501.948207 156.89017 
L 502.439757 147.943984 
L 502.344147 144.873978 
L 501.561621 134.867821 
L 501.427435 131.614323 
L 501.314638 124.595386 
L 501.197854 120.508995 
L 500.970871 117.44528 
L 500.650841 115.086221 
L 499.558937 109.319479 
L 498.762648 106.445067 
L 497.850789 103.661647 
L 494.447286 95.501999 
L 491.59192 90.258007 
L 480.42941 72.322126 
L 478.517408 69.752235 
L 476.321262 67.219575 
L 468.642328 58.930176 
L 462.907869 53.74435 
L 460.884446 52.277763 
L 456.41417 49.605454 
L 453.815956 48.367395 
L 448.253491 46.141229 
L 445.481537 45.383438 
L 442.698771 44.860712 
L 442.698771 44.860712 
" clip-path="url(#pee7807b35a)" style="fill: none; stroke: #ff7f0e; stroke-width: 1.5; stroke-linecap: square"/>
   </g>
   <g id="text_2">
    <!-- Mean dunn -->
    <g transform="translate(361.159517 28.56) scale(0.2 -0.2)">
     <defs>
      <path id="DejaVuSans-75" d="M 544 1381 
L 544 3500 
L 1119 3500 
L 1119 1403 
Q 1119 906 1312 657 
Q 1506 409 1894 409 
Q 2359 409 2629 706 
Q 2900 1003 2900 1516 
L 2900 3500 
L 3475 3500 
L 3475 0 
L 2900 0 
L 2900 538 
Q 2691 219 2414 64 
Q 2138 -91 1772 -91 
Q 1169 -91 856 284 
Q 544 659 544 1381 
z
M 1991 3584 
L 1991 3584 
z
" transform="scale(0.015625)"/>
     </defs>
     <use xlink:href="#DejaVuSans-4d"/>
     <use xlink:href="#DejaVuSans-65" x="86.279297"/>
     <use xlink:href="#DejaVuSans-61" x="147.802734"/>
     <use xlink:href="#DejaVuSans-6e" x="209.082031"/>
     <use xlink:href="#DejaVuSans-20" x="272.460938"/>
     <use xlink:href="#DejaVuSans-64" x="304.248047"/>
     <use xlink:href="#DejaVuSans-75" x="367.724609"/>
     <use xlink:href="#DejaVuSans-6e" x="431.103516"/>
     <use xlink:href="#DejaVuSans-6e" x="494.482422"/>
    </g>
   </g>
  </g>
 </g>
 <defs>
  <clipPath id="pce924c541a">
   <rect x="72" y="34.56" width="202.909091" height="221.76"/>
  </clipPath>
  <clipPath id="pee7807b35a">
   <rect x="315.490909" y="34.56" width="202.909091" height="221.76"/>
  </clipPath>
 </defs>
</svg>
