<?xml version="1.0" encoding="utf-8" standalone="no"?>
<!DOCTYPE svg PUBLIC "-//W3C//DTD SVG 1.1//EN"
  "http://www.w3.org/Graphics/SVG/1.1/DTD/svg11.dtd">
<svg xmlns:xlink="http://www.w3.org/1999/xlink" width="1296pt" height="576pt" viewBox="0 0 1296 576" xmlns="http://www.w3.org/2000/svg" version="1.1">
 <metadata>
  <rdf:RDF xmlns:dc="http://purl.org/dc/elements/1.1/" xmlns:cc="http://creativecommons.org/ns#" xmlns:rdf="http://www.w3.org/1999/02/22-rdf-syntax-ns#">
   <cc:Work>
    <dc:type rdf:resource="http://purl.org/dc/dcmitype/StillImage"/>
    <dc:date>2022-08-04T11:51:02.087311</dc:date>
    <dc:format>image/svg+xml</dc:format>
    <dc:creator>
     <cc:Agent>
      <dc:title>Matplotlib v3.5.1, https://matplotlib.org/</dc:title>
     </cc:Agent>
    </dc:creator>
   </cc:Work>
  </rdf:RDF>
 </metadata>
 <defs>
  <style type="text/css">*{stroke-linejoin: round; stroke-linecap: butt}</style>
 </defs>
 <g id="figure_1">
  <g id="patch_1">
   <path d="M 0 576 
L 1296 576 
L 1296 0 
L 0 0 
L 0 576 
z
" style="fill: none"/>
  </g>
  <g id="axes_1">
   <g id="line2d_1">
    <path d="M 270.991651 257.807603 
L 267.117051 257.681813 
L 263.198419 256.718562 
L 259.405938 255.230963 
L 255.741253 253.283412 
L 252.283266 250.75991 
L 248.982645 247.883833 
L 245.869288 244.643439 
L 243.190635 240.838401 
L 240.579327 236.764981 
L 238.110456 232.539905 
L 235.873162 228.041193 
L 233.789312 223.341892 
L 231.827512 218.508778 
L 229.845939 213.599693 
L 227.888302 208.658245 
L 225.967417 203.695095 
L 224.232054 198.70254 
L 222.603794 193.604853 
L 221.171721 188.385839 
L 219.961899 183.097334 
L 218.752813 177.819227 
L 217.713618 172.527175 
L 216.84056 167.2493 
L 216.309157 161.980143 
L 215.882889 156.724267 
L 215.594014 151.531147 
L 215.485763 146.362523 
L 215.55228 141.26392 
L 216.016415 136.2411 
L 216.878661 131.338391 
L 218.090123 126.577319 
L 219.661024 122.086812 
L 221.569511 117.669442 
L 223.778234 113.333389 
L 226.100533 109.144632 
L 228.738908 105.092243 
L 231.542435 101.214844 
L 234.695336 97.621175 
L 238.186393 94.362892 
L 241.859833 91.395466 
L 245.74343 88.799901 
L 249.801568 86.409499 
L 253.88935 84.221492 
L 258.092507 82.216198 
L 262.335549 80.418872 
L 266.593918 79.038228 
L 270.902792 78.209056 
L 275.202065 78.105124 
L 279.470883 78.5086 
L 283.529461 79.474941 
L 287.432437 80.7425 
L 291.104327 82.441197 
L 294.513708 84.581336 
L 297.671307 87.143874 
L 300.560141 90.099957 
L 303.271254 93.236318 
L 305.768151 96.58814 
L 308.227629 100.057421 
L 310.675658 103.537031 
L 313.036524 106.929635 
L 315.194824 110.380579 
L 317.301511 113.909237 
L 319.38098 117.345472 
L 321.329478 120.738021 
L 323.125738 124.070666 
L 324.661258 127.226113 
L 325.766962 130.339617 
L 326.523586 133.529811 
L 326.862063 136.943875 
L 326.644672 140.574816 
L 325.983168 144.523319 
L 325.002266 148.685937 
L 323.802254 153.077312 
L 322.419754 157.458573 
L 320.830676 161.984085 
L 319.345669 166.529592 
L 317.869027 171.207069 
L 316.310775 175.911361 
L 314.669546 180.625647 
L 312.969092 185.398037 
L 311.234631 190.200568 
L 309.714628 195.059933 
L 308.191582 199.907244 
L 306.817984 204.739988 
L 305.562781 209.587505 
L 304.390807 214.283359 
L 303.234591 218.936566 
L 302.117901 223.385597 
L 300.885068 227.578113 
L 299.433013 231.540951 
L 297.820043 235.240776 
L 295.900872 238.728649 
L 293.594207 242.040365 
L 291.050165 245.325758 
L 288.378947 248.431911 
L 285.447687 251.39265 
L 282.234524 253.948114 
L 278.744978 255.938084 
L 274.923105 257.25712 
" clip-path="url(#pebf1923e01)" style="fill: none; stroke: #000000; stroke-width: 1.5; stroke-linecap: square"/>
   </g>
   <g id="text_1">
    <!-- Linear -->
    <g transform="translate(238.540241 63.12)scale(0.21 -0.21)">
     <defs>
      <path id="DejaVuSans-4c" d="M 628 4666 
L 1259 4666 
L 1259 531 
L 3531 531 
L 3531 0 
L 628 0 
L 628 4666 
z
" transform="scale(0.015625)"/>
      <path id="DejaVuSans-69" d="M 603 3500 
L 1178 3500 
L 1178 0 
L 603 0 
L 603 3500 
z
M 603 4863 
L 1178 4863 
L 1178 4134 
L 603 4134 
L 603 4863 
z
" transform="scale(0.015625)"/>
      <path id="DejaVuSans-6e" d="M 3513 2113 
L 3513 0 
L 2938 0 
L 2938 2094 
Q 2938 2591 2744 2837 
Q 2550 3084 2163 3084 
Q 1697 3084 1428 2787 
Q 1159 2491 1159 1978 
L 1159 0 
L 581 0 
L 581 3500 
L 1159 3500 
L 1159 2956 
Q 1366 3272 1645 3428 
Q 1925 3584 2291 3584 
Q 2894 3584 3203 3211 
Q 3513 2838 3513 2113 
z
" transform="scale(0.015625)"/>
      <path id="DejaVuSans-65" d="M 3597 1894 
L 3597 1613 
L 953 1613 
Q 991 1019 1311 708 
Q 1631 397 2203 397 
Q 2534 397 2845 478 
Q 3156 559 3463 722 
L 3463 178 
Q 3153 47 2828 -22 
Q 2503 -91 2169 -91 
Q 1331 -91 842 396 
Q 353 884 353 1716 
Q 353 2575 817 3079 
Q 1281 3584 2069 3584 
Q 2775 3584 3186 3129 
Q 3597 2675 3597 1894 
z
M 3022 2063 
Q 3016 2534 2758 2815 
Q 2500 3097 2075 3097 
Q 1594 3097 1305 2825 
Q 1016 2553 972 2059 
L 3022 2063 
z
" transform="scale(0.015625)"/>
      <path id="DejaVuSans-61" d="M 2194 1759 
Q 1497 1759 1228 1600 
Q 959 1441 959 1056 
Q 959 750 1161 570 
Q 1363 391 1709 391 
Q 2188 391 2477 730 
Q 2766 1069 2766 1631 
L 2766 1759 
L 2194 1759 
z
M 3341 1997 
L 3341 0 
L 2766 0 
L 2766 531 
Q 2569 213 2275 61 
Q 1981 -91 1556 -91 
Q 1019 -91 701 211 
Q 384 513 384 1019 
Q 384 1609 779 1909 
Q 1175 2209 1959 2209 
L 2766 2209 
L 2766 2266 
Q 2766 2663 2505 2880 
Q 2244 3097 1772 3097 
Q 1472 3097 1187 3025 
Q 903 2953 641 2809 
L 641 3341 
Q 956 3463 1253 3523 
Q 1550 3584 1831 3584 
Q 2591 3584 2966 3190 
Q 3341 2797 3341 1997 
z
" transform="scale(0.015625)"/>
      <path id="DejaVuSans-72" d="M 2631 2963 
Q 2534 3019 2420 3045 
Q 2306 3072 2169 3072 
Q 1681 3072 1420 2755 
Q 1159 2438 1159 1844 
L 1159 0 
L 581 0 
L 581 3500 
L 1159 3500 
L 1159 2956 
Q 1341 3275 1631 3429 
Q 1922 3584 2338 3584 
Q 2397 3584 2469 3576 
Q 2541 3569 2628 3553 
L 2631 2963 
z
" transform="scale(0.015625)"/>
     </defs>
     <use xlink:href="#DejaVuSans-4c"/>
     <use xlink:href="#DejaVuSans-69" x="55.712891"/>
     <use xlink:href="#DejaVuSans-6e" x="83.496094"/>
     <use xlink:href="#DejaVuSans-65" x="146.875"/>
     <use xlink:href="#DejaVuSans-61" x="208.398438"/>
     <use xlink:href="#DejaVuSans-72" x="269.677734"/>
    </g>
   </g>
  </g>
  <g id="axes_2">
   <g id="line2d_2">
    <path d="M 535.862421 257.807603 
L 532.670068 257.674635 
L 529.330109 256.847947 
L 526.0998 255.578107 
L 522.938962 253.905906 
L 519.866739 251.682765 
L 516.891735 249.117517 
L 514.006274 246.154883 
L 511.45761 242.606698 
L 508.891789 238.659197 
L 506.432882 234.526394 
L 504.148689 230.026715 
L 501.991598 225.228419 
L 499.92007 220.232824 
L 497.819278 215.111843 
L 495.747226 209.934223 
L 493.702447 204.702373 
L 491.865581 199.479621 
L 490.126723 194.12065 
L 488.593349 188.55303 
L 487.294193 182.924318 
L 485.992306 177.322212 
L 484.878117 171.690801 
L 483.932814 166.129766 
L 483.358677 160.609391 
L 482.908837 155.119591 
L 482.605199 149.755505 
L 482.498115 144.439673 
L 482.570324 139.256671 
L 483.049201 134.191753 
L 483.911762 129.308274 
L 485.103567 124.605526 
L 486.625941 120.263097 
L 488.47594 115.970749 
L 490.627247 111.755941 
L 492.883671 107.708018 
L 495.473162 103.746598 
L 498.214868 100.001054 
L 501.26546 96.524901 
L 504.648106 93.391583 
L 508.170634 90.571362 
L 511.886398 88.125713 
L 515.790555 85.848118 
L 519.679873 83.779163 
L 523.670976 81.894255 
L 527.675227 80.219395 
L 531.610461 78.964983 
L 535.541516 78.209981 
L 539.396179 78.105124 
L 543.199579 78.441128 
L 546.743154 79.250777 
L 550.128154 80.308143 
L 553.268519 81.710745 
L 556.196054 83.482273 
L 558.926402 85.625316 
L 561.45832 88.128679 
L 563.856283 90.795729 
L 566.077327 93.682962 
L 568.286882 96.713568 
L 570.503994 99.775981 
L 572.584233 102.690319 
L 574.457345 105.644046 
L 576.292619 108.701795 
L 578.073001 111.612631 
L 579.691776 114.430804 
L 581.127857 117.127245 
L 582.281522 119.529903 
L 583.065038 121.760963 
L 583.620724 124.05873 
L 583.884494 126.607446 
L 583.73761 129.450658 
L 583.217359 132.805384 
L 582.384856 136.524885 
L 581.283733 140.638371 
L 579.989178 144.787293 
L 578.450343 149.218666 
L 577.022621 153.651938 
L 575.547822 158.307475 
L 573.99518 163.011374 
L 572.337712 167.757803 
L 570.600757 172.625384 
L 568.813751 177.56321 
L 567.229084 182.525594 
L 565.624955 187.495699 
L 564.198702 192.373869 
L 562.894774 197.237602 
L 561.705516 201.845581 
L 560.539524 206.37343 
L 559.441559 210.512797 
L 558.282893 214.27362 
L 556.962081 217.714429 
L 555.571046 220.801208 
L 553.925153 223.693755 
L 551.950709 226.455619 
L 549.728665 229.251323 
L 547.433133 231.867447 
L 544.874461 234.397347 
L 542.082713 236.560446 
L 539.113246 238.223374 
L 535.858328 239.31822 
" clip-path="url(#pf04c96b478)" style="fill: none; stroke: #000000; stroke-width: 1.5; stroke-linecap: square"/>
   </g>
   <g id="text_2">
    <!-- SRV -->
    <g transform="translate(512.624429 63.12)scale(0.21 -0.21)">
     <defs>
      <path id="DejaVuSans-53" d="M 3425 4513 
L 3425 3897 
Q 3066 4069 2747 4153 
Q 2428 4238 2131 4238 
Q 1616 4238 1336 4038 
Q 1056 3838 1056 3469 
Q 1056 3159 1242 3001 
Q 1428 2844 1947 2747 
L 2328 2669 
Q 3034 2534 3370 2195 
Q 3706 1856 3706 1288 
Q 3706 609 3251 259 
Q 2797 -91 1919 -91 
Q 1588 -91 1214 -16 
Q 841 59 441 206 
L 441 856 
Q 825 641 1194 531 
Q 1563 422 1919 422 
Q 2459 422 2753 634 
Q 3047 847 3047 1241 
Q 3047 1584 2836 1778 
Q 2625 1972 2144 2069 
L 1759 2144 
Q 1053 2284 737 2584 
Q 422 2884 422 3419 
Q 422 4038 858 4394 
Q 1294 4750 2059 4750 
Q 2388 4750 2728 4690 
Q 3069 4631 3425 4513 
z
" transform="scale(0.015625)"/>
      <path id="DejaVuSans-52" d="M 2841 2188 
Q 3044 2119 3236 1894 
Q 3428 1669 3622 1275 
L 4263 0 
L 3584 0 
L 2988 1197 
Q 2756 1666 2539 1819 
Q 2322 1972 1947 1972 
L 1259 1972 
L 1259 0 
L 628 0 
L 628 4666 
L 2053 4666 
Q 2853 4666 3247 4331 
Q 3641 3997 3641 3322 
Q 3641 2881 3436 2590 
Q 3231 2300 2841 2188 
z
M 1259 4147 
L 1259 2491 
L 2053 2491 
Q 2509 2491 2742 2702 
Q 2975 2913 2975 3322 
Q 2975 3731 2742 3939 
Q 2509 4147 2053 4147 
L 1259 4147 
z
" transform="scale(0.015625)"/>
      <path id="DejaVuSans-56" d="M 1831 0 
L 50 4666 
L 709 4666 
L 2188 738 
L 3669 4666 
L 4325 4666 
L 2547 0 
L 1831 0 
z
" transform="scale(0.015625)"/>
     </defs>
     <use xlink:href="#DejaVuSans-53"/>
     <use xlink:href="#DejaVuSans-52" x="63.476562"/>
     <use xlink:href="#DejaVuSans-56" x="127.458984"/>
    </g>
   </g>
  </g>
  <g id="axes_3">
   <g id="line2d_3">
    <path d="M 797.879813 257.807603 
L 794.687459 257.674635 
L 791.3475 256.847947 
L 788.117191 255.578107 
L 784.956353 253.905906 
L 781.88413 251.682765 
L 778.909126 249.117517 
L 776.023665 246.154883 
L 773.475001 242.606698 
L 770.90918 238.659197 
L 768.450273 234.526394 
L 766.16608 230.026716 
L 764.00899 225.228419 
L 761.937461 220.232824 
L 759.83667 215.111843 
L 757.764617 209.934223 
L 755.719838 204.702373 
L 753.882973 199.479621 
L 752.144115 194.12065 
L 750.61074 188.55303 
L 749.311584 182.924318 
L 748.009697 177.322212 
L 746.895509 171.690801 
L 745.950205 166.129766 
L 745.376068 160.609391 
L 744.926228 155.119591 
L 744.62259 149.755505 
L 744.515506 144.439673 
L 744.587716 139.256671 
L 745.066592 134.191753 
L 745.929153 129.308274 
L 747.120958 124.605526 
L 748.643333 120.263097 
L 750.493331 115.970749 
L 752.644638 111.755941 
L 754.901062 107.708018 
L 757.490553 103.746598 
L 760.232259 100.001054 
L 763.282852 96.524901 
L 766.665498 93.391583 
L 770.188026 90.571362 
L 773.90379 88.125713 
L 777.807947 85.848118 
L 781.697264 83.779163 
L 785.688367 81.894255 
L 789.692618 80.219395 
L 793.627852 78.964983 
L 797.558908 78.209981 
L 801.41357 78.105124 
L 805.21697 78.441128 
L 808.760545 79.250777 
L 812.145545 80.308143 
L 815.28591 81.710745 
L 818.213445 83.482273 
L 820.943793 85.625316 
L 823.475711 88.128679 
L 825.873674 90.795729 
L 828.094718 93.682962 
L 830.304273 96.713568 
L 832.521385 99.775981 
L 834.601624 102.690319 
L 836.474737 105.644046 
L 838.310011 108.701795 
L 840.090392 111.612631 
L 841.709167 114.430804 
L 843.145249 117.127245 
L 844.298913 119.529903 
L 845.082429 121.760963 
L 845.638115 124.05873 
L 845.901885 126.607446 
L 845.755001 129.450658 
L 845.23475 132.805384 
L 844.402247 136.524885 
L 843.301125 140.638371 
L 842.006569 144.787293 
L 840.467734 149.218666 
L 839.040013 153.651938 
L 837.565214 158.307475 
L 836.012571 163.011374 
L 834.355103 167.757803 
L 832.618149 172.625384 
L 830.831142 177.56321 
L 829.246475 182.525594 
L 827.642346 187.495699 
L 826.216093 192.373869 
L 824.912166 197.237602 
L 823.722908 201.845581 
L 822.556915 206.37343 
L 821.45895 210.512797 
L 820.300284 214.27362 
L 818.979472 217.714429 
L 817.588437 220.801208 
L 815.942545 223.693755 
L 813.9681 226.455619 
L 811.746056 229.251323 
L 809.450524 231.867447 
L 806.891852 234.397347 
L 804.100105 236.560446 
L 801.130637 238.223374 
L 797.87572 239.31822 
" clip-path="url(#p9cdba0c0ac)" style="fill: none; stroke: #000000; stroke-width: 1.5; stroke-linecap: square"/>
   </g>
   <g id="text_3">
    <!-- Elastic (1, 0.5) -->
    <g transform="translate(719.362602 39.604594)scale(0.21 -0.21)">
     <defs>
      <path id="DejaVuSans-45" d="M 628 4666 
L 3578 4666 
L 3578 4134 
L 1259 4134 
L 1259 2753 
L 3481 2753 
L 3481 2222 
L 1259 2222 
L 1259 531 
L 3634 531 
L 3634 0 
L 628 0 
L 628 4666 
z
" transform="scale(0.015625)"/>
      <path id="DejaVuSans-6c" d="M 603 4863 
L 1178 4863 
L 1178 0 
L 603 0 
L 603 4863 
z
" transform="scale(0.015625)"/>
      <path id="DejaVuSans-73" d="M 2834 3397 
L 2834 2853 
Q 2591 2978 2328 3040 
Q 2066 3103 1784 3103 
Q 1356 3103 1142 2972 
Q 928 2841 928 2578 
Q 928 2378 1081 2264 
Q 1234 2150 1697 2047 
L 1894 2003 
Q 2506 1872 2764 1633 
Q 3022 1394 3022 966 
Q 3022 478 2636 193 
Q 2250 -91 1575 -91 
Q 1294 -91 989 -36 
Q 684 19 347 128 
L 347 722 
Q 666 556 975 473 
Q 1284 391 1588 391 
Q 1994 391 2212 530 
Q 2431 669 2431 922 
Q 2431 1156 2273 1281 
Q 2116 1406 1581 1522 
L 1381 1569 
Q 847 1681 609 1914 
Q 372 2147 372 2553 
Q 372 3047 722 3315 
Q 1072 3584 1716 3584 
Q 2034 3584 2315 3537 
Q 2597 3491 2834 3397 
z
" transform="scale(0.015625)"/>
      <path id="DejaVuSans-74" d="M 1172 4494 
L 1172 3500 
L 2356 3500 
L 2356 3053 
L 1172 3053 
L 1172 1153 
Q 1172 725 1289 603 
Q 1406 481 1766 481 
L 2356 481 
L 2356 0 
L 1766 0 
Q 1100 0 847 248 
Q 594 497 594 1153 
L 594 3053 
L 172 3053 
L 172 3500 
L 594 3500 
L 594 4494 
L 1172 4494 
z
" transform="scale(0.015625)"/>
      <path id="DejaVuSans-63" d="M 3122 3366 
L 3122 2828 
Q 2878 2963 2633 3030 
Q 2388 3097 2138 3097 
Q 1578 3097 1268 2742 
Q 959 2388 959 1747 
Q 959 1106 1268 751 
Q 1578 397 2138 397 
Q 2388 397 2633 464 
Q 2878 531 3122 666 
L 3122 134 
Q 2881 22 2623 -34 
Q 2366 -91 2075 -91 
Q 1284 -91 818 406 
Q 353 903 353 1747 
Q 353 2603 823 3093 
Q 1294 3584 2113 3584 
Q 2378 3584 2631 3529 
Q 2884 3475 3122 3366 
z
" transform="scale(0.015625)"/>
      <path id="DejaVuSans-20" transform="scale(0.015625)"/>
      <path id="DejaVuSans-28" d="M 1984 4856 
Q 1566 4138 1362 3434 
Q 1159 2731 1159 2009 
Q 1159 1288 1364 580 
Q 1569 -128 1984 -844 
L 1484 -844 
Q 1016 -109 783 600 
Q 550 1309 550 2009 
Q 550 2706 781 3412 
Q 1013 4119 1484 4856 
L 1984 4856 
z
" transform="scale(0.015625)"/>
      <path id="DejaVuSans-31" d="M 794 531 
L 1825 531 
L 1825 4091 
L 703 3866 
L 703 4441 
L 1819 4666 
L 2450 4666 
L 2450 531 
L 3481 531 
L 3481 0 
L 794 0 
L 794 531 
z
" transform="scale(0.015625)"/>
      <path id="DejaVuSans-2c" d="M 750 794 
L 1409 794 
L 1409 256 
L 897 -744 
L 494 -744 
L 750 256 
L 750 794 
z
" transform="scale(0.015625)"/>
      <path id="DejaVuSans-30" d="M 2034 4250 
Q 1547 4250 1301 3770 
Q 1056 3291 1056 2328 
Q 1056 1369 1301 889 
Q 1547 409 2034 409 
Q 2525 409 2770 889 
Q 3016 1369 3016 2328 
Q 3016 3291 2770 3770 
Q 2525 4250 2034 4250 
z
M 2034 4750 
Q 2819 4750 3233 4129 
Q 3647 3509 3647 2328 
Q 3647 1150 3233 529 
Q 2819 -91 2034 -91 
Q 1250 -91 836 529 
Q 422 1150 422 2328 
Q 422 3509 836 4129 
Q 1250 4750 2034 4750 
z
" transform="scale(0.015625)"/>
      <path id="DejaVuSans-2e" d="M 684 794 
L 1344 794 
L 1344 0 
L 684 0 
L 684 794 
z
" transform="scale(0.015625)"/>
      <path id="DejaVuSans-35" d="M 691 4666 
L 3169 4666 
L 3169 4134 
L 1269 4134 
L 1269 2991 
Q 1406 3038 1543 3061 
Q 1681 3084 1819 3084 
Q 2600 3084 3056 2656 
Q 3513 2228 3513 1497 
Q 3513 744 3044 326 
Q 2575 -91 1722 -91 
Q 1428 -91 1123 -41 
Q 819 9 494 109 
L 494 744 
Q 775 591 1075 516 
Q 1375 441 1709 441 
Q 2250 441 2565 725 
Q 2881 1009 2881 1497 
Q 2881 1984 2565 2268 
Q 2250 2553 1709 2553 
Q 1456 2553 1204 2497 
Q 953 2441 691 2322 
L 691 4666 
z
" transform="scale(0.015625)"/>
      <path id="DejaVuSans-29" d="M 513 4856 
L 1013 4856 
Q 1481 4119 1714 3412 
Q 1947 2706 1947 2009 
Q 1947 1309 1714 600 
Q 1481 -109 1013 -844 
L 513 -844 
Q 928 -128 1133 580 
Q 1338 1288 1338 2009 
Q 1338 2731 1133 3434 
Q 928 4138 513 4856 
z
" transform="scale(0.015625)"/>
     </defs>
     <use xlink:href="#DejaVuSans-45"/>
     <use xlink:href="#DejaVuSans-6c" x="63.183594"/>
     <use xlink:href="#DejaVuSans-61" x="90.966797"/>
     <use xlink:href="#DejaVuSans-73" x="152.246094"/>
     <use xlink:href="#DejaVuSans-74" x="204.345703"/>
     <use xlink:href="#DejaVuSans-69" x="243.554688"/>
     <use xlink:href="#DejaVuSans-63" x="271.337891"/>
     <use xlink:href="#DejaVuSans-20" x="326.318359"/>
     <use xlink:href="#DejaVuSans-28" x="358.105469"/>
     <use xlink:href="#DejaVuSans-31" x="397.119141"/>
     <use xlink:href="#DejaVuSans-2c" x="460.742188"/>
     <use xlink:href="#DejaVuSans-20" x="492.529297"/>
     <use xlink:href="#DejaVuSans-30" x="524.316406"/>
     <use xlink:href="#DejaVuSans-2e" x="587.939453"/>
     <use xlink:href="#DejaVuSans-35" x="619.726562"/>
     <use xlink:href="#DejaVuSans-29" x="683.349609"/>
    </g>
    <!--  a / (2b) = 1.0 -->
    <g transform="translate(721.515102 63.12)scale(0.21 -0.21)">
     <defs>
      <path id="DejaVuSans-2f" d="M 1625 4666 
L 2156 4666 
L 531 -594 
L 0 -594 
L 1625 4666 
z
" transform="scale(0.015625)"/>
      <path id="DejaVuSans-32" d="M 1228 531 
L 3431 531 
L 3431 0 
L 469 0 
L 469 531 
Q 828 903 1448 1529 
Q 2069 2156 2228 2338 
Q 2531 2678 2651 2914 
Q 2772 3150 2772 3378 
Q 2772 3750 2511 3984 
Q 2250 4219 1831 4219 
Q 1534 4219 1204 4116 
Q 875 4013 500 3803 
L 500 4441 
Q 881 4594 1212 4672 
Q 1544 4750 1819 4750 
Q 2544 4750 2975 4387 
Q 3406 4025 3406 3419 
Q 3406 3131 3298 2873 
Q 3191 2616 2906 2266 
Q 2828 2175 2409 1742 
Q 1991 1309 1228 531 
z
" transform="scale(0.015625)"/>
      <path id="DejaVuSans-62" d="M 3116 1747 
Q 3116 2381 2855 2742 
Q 2594 3103 2138 3103 
Q 1681 3103 1420 2742 
Q 1159 2381 1159 1747 
Q 1159 1113 1420 752 
Q 1681 391 2138 391 
Q 2594 391 2855 752 
Q 3116 1113 3116 1747 
z
M 1159 2969 
Q 1341 3281 1617 3432 
Q 1894 3584 2278 3584 
Q 2916 3584 3314 3078 
Q 3713 2572 3713 1747 
Q 3713 922 3314 415 
Q 2916 -91 2278 -91 
Q 1894 -91 1617 61 
Q 1341 213 1159 525 
L 1159 0 
L 581 0 
L 581 4863 
L 1159 4863 
L 1159 2969 
z
" transform="scale(0.015625)"/>
      <path id="DejaVuSans-3d" d="M 678 2906 
L 4684 2906 
L 4684 2381 
L 678 2381 
L 678 2906 
z
M 678 1631 
L 4684 1631 
L 4684 1100 
L 678 1100 
L 678 1631 
z
" transform="scale(0.015625)"/>
     </defs>
     <use xlink:href="#DejaVuSans-20"/>
     <use xlink:href="#DejaVuSans-61" x="31.787109"/>
     <use xlink:href="#DejaVuSans-20" x="93.066406"/>
     <use xlink:href="#DejaVuSans-2f" x="124.853516"/>
     <use xlink:href="#DejaVuSans-20" x="158.544922"/>
     <use xlink:href="#DejaVuSans-28" x="190.332031"/>
     <use xlink:href="#DejaVuSans-32" x="229.345703"/>
     <use xlink:href="#DejaVuSans-62" x="292.96875"/>
     <use xlink:href="#DejaVuSans-29" x="356.445312"/>
     <use xlink:href="#DejaVuSans-20" x="395.458984"/>
     <use xlink:href="#DejaVuSans-3d" x="427.246094"/>
     <use xlink:href="#DejaVuSans-20" x="511.035156"/>
     <use xlink:href="#DejaVuSans-31" x="542.822266"/>
     <use xlink:href="#DejaVuSans-2e" x="606.445312"/>
     <use xlink:href="#DejaVuSans-30" x="638.232422"/>
    </g>
   </g>
  </g>
  <g id="axes_4">
   <g id="line2d_4">
    <path d="M 1059.897204 257.807603 
L 1056.70485 257.674635 
L 1053.364892 256.847947 
L 1050.134583 255.578107 
L 1046.973744 253.905906 
L 1043.901522 251.682765 
L 1040.926518 249.117517 
L 1038.041057 246.154883 
L 1035.492392 242.606698 
L 1032.926571 238.659197 
L 1030.467664 234.526394 
L 1028.183472 230.026716 
L 1026.026381 225.228419 
L 1023.954853 220.232824 
L 1021.854061 215.111843 
L 1019.782009 209.934223 
L 1017.73723 204.702373 
L 1015.900364 199.479621 
L 1014.161506 194.12065 
L 1012.628132 188.55303 
L 1011.328975 182.924318 
L 1010.027089 177.322212 
L 1008.9129 171.690801 
L 1007.967597 166.129766 
L 1007.393459 160.609391 
L 1006.943619 155.119591 
L 1006.639982 149.755505 
L 1006.532897 144.439673 
L 1006.605107 139.256671 
L 1007.083983 134.191753 
L 1007.946545 129.308274 
L 1009.13835 124.605526 
L 1010.660724 120.263097 
L 1012.510722 115.970749 
L 1014.662029 111.755941 
L 1016.918453 107.708018 
L 1019.507945 103.746598 
L 1022.24965 100.001054 
L 1025.300243 96.524901 
L 1028.682889 93.391583 
L 1032.205417 90.571362 
L 1035.921181 88.125713 
L 1039.825338 85.848118 
L 1043.714656 83.779163 
L 1047.705759 81.894255 
L 1051.710009 80.219395 
L 1055.645243 78.964983 
L 1059.576299 78.209981 
L 1063.430962 78.105124 
L 1067.234361 78.441128 
L 1070.777937 79.250777 
L 1074.162936 80.308143 
L 1077.303301 81.710745 
L 1080.230837 83.482273 
L 1082.961185 85.625316 
L 1085.493103 88.128679 
L 1087.891066 90.795729 
L 1090.112109 93.682962 
L 1092.321664 96.713568 
L 1094.538776 99.775981 
L 1096.619016 102.690319 
L 1098.492128 105.644046 
L 1100.327402 108.701795 
L 1102.107783 111.612631 
L 1103.726558 114.430804 
L 1105.16264 117.127245 
L 1106.316304 119.529903 
L 1107.09982 121.760963 
L 1107.655506 124.05873 
L 1107.919277 126.607446 
L 1107.772393 129.450658 
L 1107.252141 132.805384 
L 1106.419639 136.524885 
L 1105.318516 140.638371 
L 1104.02396 144.787293 
L 1102.485125 149.218666 
L 1101.057404 153.651938 
L 1099.582605 158.307475 
L 1098.029962 163.011374 
L 1096.372494 167.757803 
L 1094.63554 172.625384 
L 1092.848533 177.56321 
L 1091.263866 182.525594 
L 1089.659737 187.495699 
L 1088.233484 192.373869 
L 1086.929557 197.237602 
L 1085.740299 201.845581 
L 1084.574307 206.37343 
L 1083.476342 210.512797 
L 1082.317675 214.27362 
L 1080.996864 217.714429 
L 1079.605828 220.801208 
L 1077.959936 223.693755 
L 1075.985491 226.455619 
L 1073.763447 229.251323 
L 1071.467915 231.867447 
L 1068.909244 234.397347 
L 1066.117496 236.560446 
L 1063.148028 238.223374 
L 1059.893111 239.31822 
" clip-path="url(#p4e10e94686)" style="fill: none; stroke: #000000; stroke-width: 1.5; stroke-linecap: square"/>
   </g>
   <g id="text_4">
    <!-- Elastic (2, 1) -->
    <g transform="translate(991.397649 39.604594)scale(0.21 -0.21)">
     <use xlink:href="#DejaVuSans-45"/>
     <use xlink:href="#DejaVuSans-6c" x="63.183594"/>
     <use xlink:href="#DejaVuSans-61" x="90.966797"/>
     <use xlink:href="#DejaVuSans-73" x="152.246094"/>
     <use xlink:href="#DejaVuSans-74" x="204.345703"/>
     <use xlink:href="#DejaVuSans-69" x="243.554688"/>
     <use xlink:href="#DejaVuSans-63" x="271.337891"/>
     <use xlink:href="#DejaVuSans-20" x="326.318359"/>
     <use xlink:href="#DejaVuSans-28" x="358.105469"/>
     <use xlink:href="#DejaVuSans-32" x="397.119141"/>
     <use xlink:href="#DejaVuSans-2c" x="460.742188"/>
     <use xlink:href="#DejaVuSans-20" x="492.529297"/>
     <use xlink:href="#DejaVuSans-31" x="524.316406"/>
     <use xlink:href="#DejaVuSans-29" x="587.939453"/>
    </g>
    <!--  a / (2b) = 1.0 -->
    <g transform="translate(983.532493 63.12)scale(0.21 -0.21)">
     <use xlink:href="#DejaVuSans-20"/>
     <use xlink:href="#DejaVuSans-61" x="31.787109"/>
     <use xlink:href="#DejaVuSans-20" x="93.066406"/>
     <use xlink:href="#DejaVuSans-2f" x="124.853516"/>
     <use xlink:href="#DejaVuSans-20" x="158.544922"/>
     <use xlink:href="#DejaVuSans-28" x="190.332031"/>
     <use xlink:href="#DejaVuSans-32" x="229.345703"/>
     <use xlink:href="#DejaVuSans-62" x="292.96875"/>
     <use xlink:href="#DejaVuSans-29" x="356.445312"/>
     <use xlink:href="#DejaVuSans-20" x="395.458984"/>
     <use xlink:href="#DejaVuSans-3d" x="427.246094"/>
     <use xlink:href="#DejaVuSans-20" x="511.035156"/>
     <use xlink:href="#DejaVuSans-31" x="542.822266"/>
     <use xlink:href="#DejaVuSans-2e" x="606.445312"/>
     <use xlink:href="#DejaVuSans-30" x="638.232422"/>
    </g>
   </g>
  </g>
  <g id="axes_5">
   <g id="line2d_5">
    <path d="M 370.422925 483.610875 
L 369.660428 484.260603 
L 367.379233 485.798832 
L 363.999508 487.70546 
L 359.830824 489.6521 
L 354.905363 491.260488 
L 349.474822 492.66237 
L 343.545409 493.684643 
L 337.087295 493.847026 
L 330.182158 493.727697 
L 323.277028 493.384981 
L 316.177416 492.543316 
L 309.180917 491.358807 
L 302.138109 489.961746 
L 294.968794 488.407719 
L 287.997984 486.895783 
L 281.063645 485.266217 
L 274.307497 483.48169 
L 267.531179 481.462598 
L 260.778042 479.079566 
L 254.037641 476.31003 
L 247.298721 473.551427 
L 240.772098 470.691792 
L 234.413977 467.708004 
L 228.165992 464.221543 
L 222.242978 460.710315 
L 216.370544 457.0636 
L 210.624135 453.194833 
L 204.985237 449.173119 
L 199.827091 444.770137 
L 195.176176 440.07749 
L 190.996881 435.125129 
L 187.287472 429.919681 
L 183.933959 424.434465 
L 180.967955 418.767436 
L 178.308247 413.154885 
L 175.999701 407.18777 
L 174.06234 401.162068 
L 172.734683 394.973998 
L 172.124752 388.76692 
L 171.924901 382.550076 
L 172.33059 376.377334 
L 173.046436 370.23548 
L 174.08021 364.325788 
L 175.406829 358.327108 
L 176.96404 352.517264 
L 179.071757 346.794928 
L 181.825667 341.371729 
L 185.584139 336.329142 
L 189.832356 331.673995 
L 194.617698 327.680563 
L 199.543524 324.214808 
L 204.769083 321.481773 
L 210.05563 319.445292 
L 215.569392 317.997419 
L 221.346142 317.071281 
L 227.072215 316.555414 
L 232.679778 316.480247 
L 238.557442 316.546052 
L 244.285684 316.644925 
L 249.738689 316.809017 
L 254.966173 317.251265 
L 260.093559 317.824775 
L 265.124373 318.345356 
L 269.892608 319.055302 
L 274.423253 319.896342 
L 278.791082 320.959925 
L 282.76803 322.37531 
L 286.631825 324.235712 
L 290.403214 326.629584 
L 293.884663 329.56624 
L 297.38448 333.200221 
L 300.659552 337.237121 
L 303.869541 341.625122 
L 306.850191 346.197505 
L 309.831771 351.214882 
L 312.8813 356.110822 
L 316.039651 361.176181 
L 319.159402 366.319273 
L 322.21561 371.573315 
L 325.29652 376.977363 
L 328.436455 382.441615 
L 331.813438 387.778358 
L 335.106697 393.126534 
L 338.404809 398.243292 
L 341.787485 403.260144 
L 345.131507 408.169101 
L 348.538768 412.977257 
L 351.678324 417.748793 
L 354.533192 422.693006 
L 357.008019 427.71802 
L 359.138484 432.900163 
L 360.938661 438.283346 
L 362.404366 443.880722 
L 363.575481 449.393677 
L 364.440687 454.647036 
L 364.959839 459.672827 
L 364.862286 464.603699 
L 364.116012 468.758803 
L 362.887491 472.09526 
" clip-path="url(#p4ec03d8caa)" style="fill: none; stroke: #000000; stroke-width: 1.5; stroke-linecap: square"/>
   </g>
   <g id="text_5">
    <!-- Elastic (0.75, 0.5) -->
    <g transform="translate(178.629538 278.096501)scale(0.21 -0.21)">
     <defs>
      <path id="DejaVuSans-37" d="M 525 4666 
L 3525 4666 
L 3525 4397 
L 1831 0 
L 1172 0 
L 2766 4134 
L 525 4134 
L 525 4666 
z
" transform="scale(0.015625)"/>
     </defs>
     <use xlink:href="#DejaVuSans-45"/>
     <use xlink:href="#DejaVuSans-6c" x="63.183594"/>
     <use xlink:href="#DejaVuSans-61" x="90.966797"/>
     <use xlink:href="#DejaVuSans-73" x="152.246094"/>
     <use xlink:href="#DejaVuSans-74" x="204.345703"/>
     <use xlink:href="#DejaVuSans-69" x="243.554688"/>
     <use xlink:href="#DejaVuSans-63" x="271.337891"/>
     <use xlink:href="#DejaVuSans-20" x="326.318359"/>
     <use xlink:href="#DejaVuSans-28" x="358.105469"/>
     <use xlink:href="#DejaVuSans-30" x="397.119141"/>
     <use xlink:href="#DejaVuSans-2e" x="460.742188"/>
     <use xlink:href="#DejaVuSans-37" x="492.529297"/>
     <use xlink:href="#DejaVuSans-35" x="556.152344"/>
     <use xlink:href="#DejaVuSans-2c" x="619.775391"/>
     <use xlink:href="#DejaVuSans-20" x="651.5625"/>
     <use xlink:href="#DejaVuSans-30" x="683.349609"/>
     <use xlink:href="#DejaVuSans-2e" x="746.972656"/>
     <use xlink:href="#DejaVuSans-35" x="778.759766"/>
     <use xlink:href="#DejaVuSans-29" x="842.382812"/>
    </g>
    <!--  a / (2b) = 0.75 -->
    <g transform="translate(190.799694 301.611908)scale(0.21 -0.21)">
     <use xlink:href="#DejaVuSans-20"/>
     <use xlink:href="#DejaVuSans-61" x="31.787109"/>
     <use xlink:href="#DejaVuSans-20" x="93.066406"/>
     <use xlink:href="#DejaVuSans-2f" x="124.853516"/>
     <use xlink:href="#DejaVuSans-20" x="158.544922"/>
     <use xlink:href="#DejaVuSans-28" x="190.332031"/>
     <use xlink:href="#DejaVuSans-32" x="229.345703"/>
     <use xlink:href="#DejaVuSans-62" x="292.96875"/>
     <use xlink:href="#DejaVuSans-29" x="356.445312"/>
     <use xlink:href="#DejaVuSans-20" x="395.458984"/>
     <use xlink:href="#DejaVuSans-3d" x="427.246094"/>
     <use xlink:href="#DejaVuSans-20" x="511.035156"/>
     <use xlink:href="#DejaVuSans-30" x="542.822266"/>
     <use xlink:href="#DejaVuSans-2e" x="606.445312"/>
     <use xlink:href="#DejaVuSans-37" x="638.232422"/>
     <use xlink:href="#DejaVuSans-35" x="701.855469"/>
    </g>
   </g>
  </g>
  <g id="axes_6">
   <g id="line2d_6">
    <path d="M 446.877705 495.014876 
L 519.338326 462.39663 
L 539.748479 445.093495 
L 545.059368 435.953963 
L 545.957104 430.531658 
L 545.15952 427.054862 
L 543.777915 425.167743 
L 541.861258 423.892638 
L 539.532382 423.150547 
L 537.013512 422.948731 
L 534.84839 422.494186 
L 532.56339 421.970494 
L 530.914201 420.823996 
L 529.329981 419.516355 
L 527.319426 417.870226 
L 526.302872 416.096224 
L 525.259323 413.894189 
L 524.724091 412.037987 
L 524.025919 409.701326 
L 523.514967 407.206947 
L 522.652413 404.363479 
L 521.756703 401.521588 
L 521.676216 398.881567 
L 521.739868 396.382538 
L 520.988095 393.70992 
L 521.390947 390.754203 
L 521.274855 388.063355 
L 521.018688 385.240829 
L 520.420068 382.785103 
L 520.172123 380.12195 
L 520.382065 377.545358 
L 520.930827 374.73206 
L 521.025292 372.159671 
L 521.470646 369.515137 
L 522.603963 366.987015 
L 524.00084 364.831628 
L 525.384325 362.13183 
L 526.683719 359.569565 
L 528.594646 356.647594 
L 531.079449 354.062157 
L 533.288386 351.544444 
L 535.893291 349.347899 
L 538.818409 347.703986 
L 542.413767 346.147418 
L 545.553023 344.322483 
L 548.845559 342.789795 
L 551.790696 340.05132 
L 554.455987 337.01247 
L 557.30555 333.024916 
L 559.839758 329.170065 
L 562.438732 324.920833 
L 565.70921 321.220807 
L 570.156907 318.067844 
L 574.562611 316.798028 
L 578.901315 316.015172 
L 582.788493 315.312397 
L 586.509385 315.470458 
L 589.749972 316.526154 
L 593.503584 317.048068 
L 597.247346 317.954764 
L 600.533376 319.416059 
L 603.117141 321.650623 
L 605.244704 324.420483 
L 607.437469 326.818927 
L 609.055978 330.224713 
L 610.290772 333.889332 
L 613.034588 337.136855 
L 614.837737 340.332858 
L 617.482642 344.106788 
L 619.271465 347.621385 
L 619.485096 350.582899 
L 619.504904 353.332833 
L 618.18746 356.799993 
L 615.917305 359.686193 
L 613.399359 363.2325 
L 610.777914 367.367186 
L 607.842798 370.849791 
L 604.963366 374.971915 
L 601.910596 378.731619 
L 599.296078 382.825016 
L 596.687774 387.00084 
L 594.142737 390.90085 
L 591.953853 395.302175 
L 589.703574 399.863081 
L 586.751304 404.384729 
L 584.010508 409.285039 
L 582.305561 414.722287 
L 580.622999 419.67421 
L 579.427627 425.550802 
L 579.926949 432.352552 
L 580.810585 439.154787 
L 582.601396 446.472377 
L 585.702283 452.853384 
L 588.059722 458.954926 
L 588.692873 463.791881 
L 587.881936 467.841566 
L 585.39541 469.990895 
L 582.548485 471.46551 
L 579.034717 468.828412 
L 579.494659 460.858521 
" clip-path="url(#p74b8699c24)" style="fill: none; stroke: #000000; stroke-width: 1.5; stroke-linecap: square"/>
   </g>
   <g id="text_6">
    <!-- Elastic (0.5, 0.5) -->
    <g transform="translate(447.327554 276.811866)scale(0.21 -0.21)">
     <use xlink:href="#DejaVuSans-45"/>
     <use xlink:href="#DejaVuSans-6c" x="63.183594"/>
     <use xlink:href="#DejaVuSans-61" x="90.966797"/>
     <use xlink:href="#DejaVuSans-73" x="152.246094"/>
     <use xlink:href="#DejaVuSans-74" x="204.345703"/>
     <use xlink:href="#DejaVuSans-69" x="243.554688"/>
     <use xlink:href="#DejaVuSans-63" x="271.337891"/>
     <use xlink:href="#DejaVuSans-20" x="326.318359"/>
     <use xlink:href="#DejaVuSans-28" x="358.105469"/>
     <use xlink:href="#DejaVuSans-30" x="397.119141"/>
     <use xlink:href="#DejaVuSans-2e" x="460.742188"/>
     <use xlink:href="#DejaVuSans-35" x="492.529297"/>
     <use xlink:href="#DejaVuSans-2c" x="556.152344"/>
     <use xlink:href="#DejaVuSans-20" x="587.939453"/>
     <use xlink:href="#DejaVuSans-30" x="619.726562"/>
     <use xlink:href="#DejaVuSans-2e" x="683.349609"/>
     <use xlink:href="#DejaVuSans-35" x="715.136719"/>
     <use xlink:href="#DejaVuSans-29" x="778.759766"/>
    </g>
    <!--  a / (2b) = 0.5 -->
    <g transform="translate(459.497711 300.327273)scale(0.21 -0.21)">
     <use xlink:href="#DejaVuSans-20"/>
     <use xlink:href="#DejaVuSans-61" x="31.787109"/>
     <use xlink:href="#DejaVuSans-20" x="93.066406"/>
     <use xlink:href="#DejaVuSans-2f" x="124.853516"/>
     <use xlink:href="#DejaVuSans-20" x="158.544922"/>
     <use xlink:href="#DejaVuSans-28" x="190.332031"/>
     <use xlink:href="#DejaVuSans-32" x="229.345703"/>
     <use xlink:href="#DejaVuSans-62" x="292.96875"/>
     <use xlink:href="#DejaVuSans-29" x="356.445312"/>
     <use xlink:href="#DejaVuSans-20" x="395.458984"/>
     <use xlink:href="#DejaVuSans-3d" x="427.246094"/>
     <use xlink:href="#DejaVuSans-20" x="511.035156"/>
     <use xlink:href="#DejaVuSans-30" x="542.822266"/>
     <use xlink:href="#DejaVuSans-2e" x="606.445312"/>
     <use xlink:href="#DejaVuSans-35" x="638.232422"/>
    </g>
   </g>
  </g>
  <g id="axes_7">
   <g id="line2d_7">
    <path d="M 770.077757 317.263599 
L 776.522516 315.778797 
L 782.295353 315.312397 
L 787.656314 315.691062 
L 792.751914 316.672831 
L 797.50859 318.340217 
L 802.014399 320.480359 
L 806.286486 322.967989 
L 810.106874 326.043895 
L 813.749101 329.32929 
L 817.278867 332.791055 
L 820.610749 336.47338 
L 823.765395 340.411202 
L 826.833776 344.434716 
L 829.961535 348.443809 
L 833.028558 352.587376 
L 836.128834 356.719302 
L 838.972489 361.016414 
L 841.836941 365.349955 
L 844.513773 369.824691 
L 847.068388 374.358455 
L 849.618629 378.878219 
L 851.97538 383.546337 
L 854.188574 388.266061 
L 856.114513 393.022009 
L 857.993769 397.860147 
L 859.68327 402.70985 
L 861.235698 407.56162 
L 862.553751 412.44554 
L 863.500715 417.420169 
L 863.995283 422.439612 
L 864.189313 427.457301 
L 863.902771 432.37052 
L 863.279315 437.285868 
L 862.384798 442.246483 
L 861.221235 447.112053 
L 859.85827 451.91093 
L 858.135051 456.541068 
L 856.13556 461.078751 
L 853.66006 465.361855 
L 850.900401 469.41415 
L 847.763873 473.189454 
L 844.428447 476.855622 
L 841.011793 480.383648 
L 837.409275 483.690275 
L 833.671245 486.835166 
L 829.807455 489.610262 
L 825.721805 491.863741 
L 821.416443 493.44181 
L 816.997617 494.501087 
L 812.543759 494.924045 
L 808.075494 495.014876 
L 803.626117 494.725816 
L 799.208762 493.841419 
L 794.93383 492.475686 
L 790.819368 490.624727 
L 786.851841 488.503393 
L 783.011369 486.064562 
L 779.231256 483.588432 
L 775.448432 481.13006 
L 771.664905 478.675473 
L 768.013105 476.023984 
L 764.325282 473.312701 
L 760.714689 470.619024 
L 757.130378 467.855406 
L 753.658947 464.962423 
L 750.380054 462.052342 
L 747.489855 458.816879 
L 744.79876 455.474141 
L 742.560563 451.782526 
L 740.950314 447.699923 
L 739.8545 443.350391 
L 738.869851 438.846294 
L 738.180531 434.167301 
L 737.609188 429.473307 
L 737.087547 424.738459 
L 736.594183 419.977918 
L 735.967168 415.21762 
L 735.450321 410.411823 
L 734.95736 405.646801 
L 734.510646 400.865331 
L 734.091017 396.086668 
L 733.428799 391.296675 
L 732.756312 386.566161 
L 731.951081 381.801862 
L 730.976207 377.07909 
L 729.971119 372.457293 
L 728.956964 367.832052 
L 727.963516 363.279462 
L 727.110829 358.858406 
L 726.514098 354.452768 
L 726.228078 350.109898 
L 726.356286 345.852645 
L 726.864754 341.559221 
L 727.73854 337.251554 
L 728.861359 332.972905 
L 730.423494 328.714431 
L 732.435209 324.686306 
L 735.193311 320.915985 
L 738.843322 317.611994 
" clip-path="url(#pd3d100324a)" style="fill: none; stroke: #000000; stroke-width: 1.5; stroke-linecap: square"/>
   </g>
   <g id="text_7">
    <!-- Elastic (0.25, 0.5) -->
    <g transform="translate(702.664321 276.811866)scale(0.21 -0.21)">
     <use xlink:href="#DejaVuSans-45"/>
     <use xlink:href="#DejaVuSans-6c" x="63.183594"/>
     <use xlink:href="#DejaVuSans-61" x="90.966797"/>
     <use xlink:href="#DejaVuSans-73" x="152.246094"/>
     <use xlink:href="#DejaVuSans-74" x="204.345703"/>
     <use xlink:href="#DejaVuSans-69" x="243.554688"/>
     <use xlink:href="#DejaVuSans-63" x="271.337891"/>
     <use xlink:href="#DejaVuSans-20" x="326.318359"/>
     <use xlink:href="#DejaVuSans-28" x="358.105469"/>
     <use xlink:href="#DejaVuSans-30" x="397.119141"/>
     <use xlink:href="#DejaVuSans-2e" x="460.742188"/>
     <use xlink:href="#DejaVuSans-32" x="492.529297"/>
     <use xlink:href="#DejaVuSans-35" x="556.152344"/>
     <use xlink:href="#DejaVuSans-2c" x="619.775391"/>
     <use xlink:href="#DejaVuSans-20" x="651.5625"/>
     <use xlink:href="#DejaVuSans-30" x="683.349609"/>
     <use xlink:href="#DejaVuSans-2e" x="746.972656"/>
     <use xlink:href="#DejaVuSans-35" x="778.759766"/>
     <use xlink:href="#DejaVuSans-29" x="842.382812"/>
    </g>
    <!--  a / (2b) = 0.25 -->
    <g transform="translate(714.834477 300.327273)scale(0.21 -0.21)">
     <use xlink:href="#DejaVuSans-20"/>
     <use xlink:href="#DejaVuSans-61" x="31.787109"/>
     <use xlink:href="#DejaVuSans-20" x="93.066406"/>
     <use xlink:href="#DejaVuSans-2f" x="124.853516"/>
     <use xlink:href="#DejaVuSans-20" x="158.544922"/>
     <use xlink:href="#DejaVuSans-28" x="190.332031"/>
     <use xlink:href="#DejaVuSans-32" x="229.345703"/>
     <use xlink:href="#DejaVuSans-62" x="292.96875"/>
     <use xlink:href="#DejaVuSans-29" x="356.445312"/>
     <use xlink:href="#DejaVuSans-20" x="395.458984"/>
     <use xlink:href="#DejaVuSans-3d" x="427.246094"/>
     <use xlink:href="#DejaVuSans-20" x="511.035156"/>
     <use xlink:href="#DejaVuSans-30" x="542.822266"/>
     <use xlink:href="#DejaVuSans-2e" x="606.445312"/>
     <use xlink:href="#DejaVuSans-32" x="638.232422"/>
     <use xlink:href="#DejaVuSans-35" x="701.855469"/>
    </g>
   </g>
  </g>
  <g id="axes_8">
   <g id="line2d_8">
    <path d="M 1045.148086 325.343009 
L 1049.592174 324.442902 
L 1054.156233 324.319695 
L 1058.722484 324.918 
L 1063.226687 326.054132 
L 1067.511698 327.821995 
L 1071.65317 330.022809 
L 1075.605282 332.565218 
L 1079.164609 335.665905 
L 1082.569453 338.96849 
L 1085.861934 342.410966 
L 1088.95707 346.061928 
L 1091.847677 349.894058 
L 1094.644283 353.795701 
L 1097.456496 357.709061 
L 1100.214928 361.674336 
L 1102.973441 365.63223 
L 1105.524628 369.716014 
L 1108.049089 373.84226 
L 1110.390921 378.084081 
L 1112.619787 382.405633 
L 1114.846276 386.714254 
L 1116.902203 391.110803 
L 1118.818032 395.553128 
L 1120.46174 400.085809 
L 1122.041025 404.63472 
L 1123.464975 409.224806 
L 1124.759581 413.830225 
L 1125.860019 418.487599 
L 1126.578635 423.221034 
L 1126.866503 427.970177 
L 1126.852245 432.702877 
L 1126.405592 437.386932 
L 1125.622121 442.033716 
L 1124.605561 446.692311 
L 1123.341496 451.246705 
L 1121.862966 455.747533 
L 1120.031052 460.079311 
L 1117.926335 464.305098 
L 1115.383965 468.265008 
L 1112.574435 472.02892 
L 1109.424263 475.5116 
L 1106.116047 478.875855 
L 1102.714155 482.075163 
L 1099.126214 485.103959 
L 1095.413756 487.962823 
L 1091.512147 490.475565 
L 1087.364385 492.512174 
L 1082.958413 493.892018 
L 1078.428493 494.779391 
L 1073.83432 495.014876 
L 1069.249275 494.885821 
L 1064.707791 494.358031 
L 1060.271628 493.259524 
L 1055.999931 491.717734 
L 1051.889925 489.719654 
L 1047.926507 487.480869 
L 1044.122534 484.956622 
L 1040.353566 482.373816 
L 1036.618157 479.794832 
L 1032.85114 477.255642 
L 1029.268453 474.548627 
L 1025.661418 471.793399 
L 1022.095239 469.053894 
L 1018.583191 466.255168 
L 1015.145079 463.34713 
L 1011.847883 460.303565 
L 1008.888969 456.943419 
L 1006.145694 453.408227 
L 1003.837662 449.571224 
L 1002.137246 445.408208 
L 1000.956547 441.012951 
L 999.965175 436.548443 
L 999.206466 431.972137 
L 998.660706 427.392211 
L 998.13976 422.756209 
L 997.612916 418.11854 
L 996.98157 413.483886 
L 996.441231 408.813055 
L 995.926624 404.152524 
L 995.443394 399.477695 
L 994.979119 394.816832 
L 994.322919 390.138098 
L 993.662807 385.51252 
L 992.862681 380.878067 
L 991.913674 376.271311 
L 990.966415 371.705398 
L 990.000505 367.15516 
L 989.066344 362.596525 
L 988.291235 358.047056 
L 987.784408 353.474209 
L 987.585671 348.883257 
L 987.822199 344.321797 
L 988.431832 339.766748 
L 989.364462 335.25533 
L 990.492535 330.821879 
L 991.962098 326.484921 
L 993.865273 322.358218 
L 996.392859 318.585278 
L 999.568428 315.312397 
" clip-path="url(#p9c57b80045)" style="fill: none; stroke: #000000; stroke-width: 1.5; stroke-linecap: square"/>
   </g>
   <g id="text_8">
    <!-- Elastic (0.01, 0.5) -->
    <g transform="translate(964.681712 276.811866)scale(0.21 -0.21)">
     <use xlink:href="#DejaVuSans-45"/>
     <use xlink:href="#DejaVuSans-6c" x="63.183594"/>
     <use xlink:href="#DejaVuSans-61" x="90.966797"/>
     <use xlink:href="#DejaVuSans-73" x="152.246094"/>
     <use xlink:href="#DejaVuSans-74" x="204.345703"/>
     <use xlink:href="#DejaVuSans-69" x="243.554688"/>
     <use xlink:href="#DejaVuSans-63" x="271.337891"/>
     <use xlink:href="#DejaVuSans-20" x="326.318359"/>
     <use xlink:href="#DejaVuSans-28" x="358.105469"/>
     <use xlink:href="#DejaVuSans-30" x="397.119141"/>
     <use xlink:href="#DejaVuSans-2e" x="460.742188"/>
     <use xlink:href="#DejaVuSans-30" x="492.529297"/>
     <use xlink:href="#DejaVuSans-31" x="556.152344"/>
     <use xlink:href="#DejaVuSans-2c" x="619.775391"/>
     <use xlink:href="#DejaVuSans-20" x="651.5625"/>
     <use xlink:href="#DejaVuSans-30" x="683.349609"/>
     <use xlink:href="#DejaVuSans-2e" x="746.972656"/>
     <use xlink:href="#DejaVuSans-35" x="778.759766"/>
     <use xlink:href="#DejaVuSans-29" x="842.382812"/>
    </g>
    <!--  a / (2b) = 0.01 -->
    <g transform="translate(976.851868 300.327273)scale(0.21 -0.21)">
     <use xlink:href="#DejaVuSans-20"/>
     <use xlink:href="#DejaVuSans-61" x="31.787109"/>
     <use xlink:href="#DejaVuSans-20" x="93.066406"/>
     <use xlink:href="#DejaVuSans-2f" x="124.853516"/>
     <use xlink:href="#DejaVuSans-20" x="158.544922"/>
     <use xlink:href="#DejaVuSans-28" x="190.332031"/>
     <use xlink:href="#DejaVuSans-32" x="229.345703"/>
     <use xlink:href="#DejaVuSans-62" x="292.96875"/>
     <use xlink:href="#DejaVuSans-29" x="356.445312"/>
     <use xlink:href="#DejaVuSans-20" x="395.458984"/>
     <use xlink:href="#DejaVuSans-3d" x="427.246094"/>
     <use xlink:href="#DejaVuSans-20" x="511.035156"/>
     <use xlink:href="#DejaVuSans-30" x="542.822266"/>
     <use xlink:href="#DejaVuSans-2e" x="606.445312"/>
     <use xlink:href="#DejaVuSans-30" x="638.232422"/>
     <use xlink:href="#DejaVuSans-31" x="701.855469"/>
    </g>
   </g>
  </g>
 </g>
 <defs>
  <clipPath id="pebf1923e01">
   <rect x="209.916948" y="69.12" width="122.513929" height="197.672727"/>
  </clipPath>
  <clipPath id="pf04c96b478">
   <rect x="477.428796" y="69.12" width="111.525018" height="197.672727"/>
  </clipPath>
  <clipPath id="p9cdba0c0ac">
   <rect x="739.446187" y="69.12" width="111.525018" height="197.672727"/>
  </clipPath>
  <clipPath id="p4e10e94686">
   <rect x="1001.463578" y="69.12" width="111.525018" height="197.672727"/>
  </clipPath>
  <clipPath id="p4ec03d8caa">
   <rect x="162" y="307.611908" width="218.347826" height="195.103458"/>
  </clipPath>
  <clipPath id="p74b8699c24">
   <rect x="438.246345" y="306.327273" width="189.889919" height="197.672727"/>
  </clipPath>
  <clipPath id="pd3d100324a">
   <rect x="719.330016" y="306.327273" width="151.757359" height="197.672727"/>
  </clipPath>
  <clipPath id="p9c57b80045">
   <rect x="980.62163" y="306.327273" width="153.208914" height="197.672727"/>
  </clipPath>
 </defs>
</svg>
