<?xml version="1.0" encoding="utf-8" standalone="no"?>
<!DOCTYPE svg PUBLIC "-//W3C//DTD SVG 1.1//EN"
  "http://www.w3.org/Graphics/SVG/1.1/DTD/svg11.dtd">
<svg xmlns:xlink="http://www.w3.org/1999/xlink" width="576pt" height="93.6pt" viewBox="0 0 576 93.6" xmlns="http://www.w3.org/2000/svg" version="1.1">
 <metadata>
  <rdf:RDF xmlns:dc="http://purl.org/dc/elements/1.1/" xmlns:cc="http://creativecommons.org/ns#" xmlns:rdf="http://www.w3.org/1999/02/22-rdf-syntax-ns#">
   <cc:Work>
    <dc:type rdf:resource="http://purl.org/dc/dcmitype/StillImage"/>
    <dc:date>2022-08-04T11:53:31.640769</dc:date>
    <dc:format>image/svg+xml</dc:format>
    <dc:creator>
     <cc:Agent>
      <dc:title>Matplotlib v3.5.1, https://matplotlib.org/</dc:title>
     </cc:Agent>
    </dc:creator>
   </cc:Work>
  </rdf:RDF>
 </metadata>
 <defs>
  <style type="text/css">*{stroke-linejoin: round; stroke-linecap: butt}</style>
 </defs>
 <g id="figure_1">
  <g id="patch_1">
   <path d="M 0 93.6 
L 576 93.6 
L 576 0 
L 0 0 
L 0 93.6 
z
" style="fill: none"/>
  </g>
  <g id="axes_1">
   <g id="line2d_1">
    <path d="M 38.260539 70.425184 
L 37.420407 70.39062 
L 36.541467 70.173437 
L 35.691276 69.839414 
L 34.859432 69.399394 
L 34.05091 68.814327 
L 33.26815 68.139055 
L 32.509166 67.359355 
L 31.838802 66.425592 
L 31.164043 65.386782 
L 30.517475 64.299271 
L 29.917131 63.115441 
L 29.35024 61.853096 
L 28.805939 60.538997 
L 28.254002 59.191798 
L 27.709665 57.829783 
L 27.172512 56.453663 
L 26.689946 55.079803 
L 26.233209 53.670097 
L 25.830617 52.205783 
L 25.489739 50.725356 
L 25.148097 49.251848 
L 24.855716 47.770682 
L 24.607786 46.308078 
L 24.457483 44.856191 
L 24.3398 43.412374 
L 24.260536 42.001605 
L 24.23295 40.603747 
L 24.252465 39.240828 
L 24.378804 37.909005 
L 24.605914 36.625173 
L 24.919636 35.388971 
L 25.320071 34.247675 
L 25.806602 33.119619 
L 26.372296 32.011864 
L 26.965525 30.948179 
L 27.646088 29.907179 
L 28.366511 28.923118 
L 29.167992 28.010039 
L 30.056548 27.187127 
L 30.981825 26.446419 
L 31.957649 25.80431 
L 32.982915 25.206479 
L 34.004193 24.663489 
L 35.052193 24.168743 
L 36.103648 23.729269 
L 37.136798 23.40011 
L 38.168816 23.202083 
L 39.180612 23.174816 
L 40.178839 23.263409 
L 41.10879 23.476265 
L 41.997007 23.753957 
L 42.821024 24.122233 
L 43.589282 24.587386 
L 44.305925 25.15005 
L 44.970553 25.807319 
L 45.600004 26.507541 
L 46.183185 27.265674 
L 46.763343 28.06146 
L 47.345569 28.865666 
L 47.891919 29.630823 
L 48.384 30.406324 
L 48.866243 31.209192 
L 49.333998 31.973487 
L 49.759381 32.71344 
L 50.136916 33.421501 
L 50.440334 34.052446 
L 50.646553 34.638536 
L 50.793077 35.242217 
L 50.86305 35.911898 
L 50.825165 36.659163 
L 50.689141 37.54097 
L 50.471019 38.518809 
L 50.182264 39.600382 
L 49.842676 40.691217 
L 49.438716 41.856312 
L 49.063889 43.022034 
L 48.676617 44.246196 
L 48.268837 45.483295 
L 47.833477 46.731605 
L 47.377082 48.011788 
L 46.907469 49.310295 
L 46.491026 50.615485 
L 46.069333 51.922649 
L 45.69441 53.205574 
L 45.351496 54.48484 
L 45.038643 55.696918 
L 44.731829 56.888004 
L 44.442783 57.977086 
L 44.137811 58.966808 
L 43.790278 59.872473 
L 43.424191 60.685155 
L 42.991137 61.446631 
L 42.471744 62.173595 
L 41.887193 62.909463 
L 41.283277 63.598004 
L 40.610148 64.263804 
L 39.875709 64.833049 
L 39.094632 65.270783 
L 38.238473 65.559031 
" clip-path="url(#p0053f5c155)" style="fill: none; stroke: #bcbd22; stroke-width: 1.5; stroke-linecap: square"/>
   </g>
  </g>
  <g id="axes_2">
   <g id="line2d_2">
    <path d="M 93.952018 71.672727 
L 93.067679 71.636254 
L 92.142482 71.407564 
L 91.24757 71.055931 
L 90.371957 70.592746 
L 89.520892 69.976895 
L 88.696908 69.266127 
L 87.897906 68.445405 
L 87.192191 67.462506 
L 86.481824 66.369023 
L 85.80112 65.224264 
L 85.169021 63.978068 
L 84.572135 62.649211 
L 83.999011 61.265841 
L 83.417837 59.84765 
L 82.844654 58.413846 
L 82.279032 56.965159 
L 81.770898 55.518879 
L 81.289943 54.034867 
L 80.865968 52.49331 
L 80.506938 50.934798 
L 80.147114 49.383588 
L 79.839172 47.824306 
L 79.578018 46.284553 
L 79.419639 44.756078 
L 79.295617 43.236091 
L 79.212046 41.750901 
L 79.182884 40.279255 
L 79.203318 38.844391 
L 79.336239 37.442256 
L 79.575276 36.090585 
L 79.90549 34.789036 
L 80.327039 33.587371 
L 80.839241 32.399629 
L 81.434799 31.233279 
L 82.059369 30.113286 
L 82.775934 29.017189 
L 83.534499 27.980999 
L 84.378435 27.01951 
L 85.314094 26.152943 
L 86.288426 25.372946 
L 87.316029 24.696731 
L 88.395704 24.067115 
L 89.471199 23.495238 
L 90.574835 22.974185 
L 91.68211 22.511313 
L 92.770146 22.164631 
L 93.856997 21.956044 
L 94.922587 21.927273 
L 95.97391 22.020493 
L 96.953344 22.244595 
L 97.888847 22.53702 
L 98.756734 22.924852 
L 99.565877 23.414704 
L 100.320629 24.007252 
L 101.020585 24.699431 
L 101.683498 25.436848 
L 102.297645 26.23523 
L 102.908611 27.073264 
L 103.521736 27.92015 
L 104.097067 28.72595 
L 104.615223 29.542642 
L 105.122998 30.388142 
L 105.615532 31.193022 
L 106.06343 31.972269 
L 106.460915 32.717916 
L 106.780339 33.382347 
L 106.997404 33.999499 
L 107.151579 34.63516 
L 107.225116 35.340303 
L 107.185076 36.127095 
L 107.041708 37.055524 
L 106.811904 38.085031 
L 106.507739 39.22372 
L 106.150051 40.372171 
L 105.724621 41.598806 
L 105.329881 42.826074 
L 104.922053 44.114868 
L 104.49264 45.417235 
L 104.034197 46.7314 
L 103.553636 48.079117 
L 103.05917 49.446157 
L 102.620689 50.820185 
L 102.176709 52.196302 
L 101.781969 53.546915 
L 101.420961 54.893647 
L 101.09162 56.16963 
L 100.768653 57.423497 
L 100.464418 58.569943 
L 100.143408 59.611746 
L 99.777574 60.565035 
L 99.392226 61.42041 
L 98.936365 62.221902 
L 98.389596 62.987092 
L 97.774239 63.761655 
L 97.138503 64.486414 
L 96.429905 65.187247 
L 95.656765 65.786449 
L 94.834505 66.247195 
L 93.933204 66.550585 
" clip-path="url(#p7d4a52955e)" style="fill: none; stroke: #bcbd22; stroke-width: 1.5; stroke-linecap: square"/>
   </g>
  </g>
  <g id="axes_3">
   <g id="line2d_3">
    <path d="M 149.60587 71.672727 
L 148.721688 71.63617 
L 147.796648 71.407441 
L 146.901909 71.055837 
L 146.026452 70.592723 
L 145.17554 69.976981 
L 144.351665 69.266377 
L 143.552725 68.445805 
L 142.847057 67.463078 
L 142.136713 66.369778 
L 141.456016 65.225197 
L 140.823864 63.979148 
L 140.226917 62.650438 
L 139.653714 61.267188 
L 139.072447 59.849147 
L 138.499163 58.415474 
L 137.933437 56.966887 
L 137.425215 55.520736 
L 136.944161 54.036857 
L 136.520062 52.49538 
L 136.160881 50.93696 
L 135.800916 49.385857 
L 135.492851 47.826671 
L 135.231566 46.287004 
L 135.073048 44.758608 
L 134.9489 43.238695 
L 134.865209 41.753579 
L 134.835927 40.281961 
L 134.856249 38.847122 
L 134.989081 37.445001 
L 135.228053 36.093286 
L 135.558192 34.791669 
L 135.97971 33.589901 
L 136.491892 32.402041 
L 137.087442 31.235592 
L 137.712026 30.115459 
L 138.428656 29.019235 
L 139.187321 27.982881 
L 140.03139 27.021196 
L 140.967231 26.154429 
L 141.941757 25.374257 
L 142.96961 24.697844 
L 144.049555 24.06801 
L 145.125337 23.49592 
L 146.22927 22.974685 
L 147.336841 22.511621 
L 148.425207 22.164798 
L 149.512395 21.956108 
L 150.578351 21.927273 
L 151.630058 22.020441 
L 152.609867 22.24455 
L 153.545755 22.537044 
L 154.414 22.924986 
L 155.223458 23.414974 
L 155.978476 24.007694 
L 156.678665 24.700074 
L 157.341802 25.437711 
L 157.95612 26.23631 
L 158.567257 27.074569 
L 159.180537 27.921668 
L 159.755999 28.727706 
L 160.274245 29.544638 
L 160.782087 30.390376 
L 161.274699 31.195481 
L 161.722651 31.974949 
L 162.120148 32.720792 
L 162.439556 33.385392 
L 162.656579 34.002657 
L 162.810666 34.638421 
L 162.884073 35.343662 
L 162.843879 36.130521 
L 162.700348 37.059008 
L 162.470382 38.088547 
L 162.166055 39.227239 
L 161.808198 40.375705 
L 161.382631 41.602356 
L 160.987769 42.829612 
L 160.579834 44.118396 
L 160.150324 45.420706 
L 159.691786 46.734808 
L 159.211158 48.082458 
L 158.716639 49.449461 
L 158.278111 50.823405 
L 157.834112 52.199451 
L 157.439353 53.550006 
L 157.078358 54.896651 
L 156.749049 56.172535 
L 156.426131 57.426286 
L 156.121969 58.572587 
L 155.801026 59.614208 
L 155.435244 60.567298 
L 155.049965 61.42245 
L 154.594165 62.223749 
L 154.047446 62.988777 
L 153.432151 63.763176 
L 152.796487 64.487796 
L 152.087964 65.188502 
L 151.314905 65.787602 
L 150.492708 66.248245 
L 149.591474 66.551556 
" clip-path="url(#p30b8eeb11a)" style="fill: none; stroke: #bcbd22; stroke-width: 1.5; stroke-linecap: square"/>
   </g>
  </g>
  <g id="axes_4">
   <g id="line2d_4">
    <path d="M 205.259721 71.672727 
L 204.375696 71.636086 
L 203.450812 71.407319 
L 202.556247 71.055743 
L 201.680947 70.5927 
L 200.830186 69.977068 
L 200.006422 69.266627 
L 199.207543 68.446206 
L 198.501923 67.46365 
L 197.791603 66.370533 
L 197.110912 65.226129 
L 196.478706 63.980228 
L 195.881699 62.651665 
L 195.308415 61.268536 
L 194.727056 59.850643 
L 194.153671 58.417103 
L 193.587841 56.968616 
L 193.079532 55.522592 
L 192.598378 54.038847 
L 192.174155 52.497451 
L 191.814824 50.939122 
L 191.454717 49.388126 
L 191.14653 47.829038 
L 190.885113 46.289455 
L 190.726457 44.761139 
L 190.602183 43.2413 
L 190.518371 41.756258 
L 190.488969 40.284668 
L 190.50918 38.849853 
L 190.641922 37.447747 
L 190.880829 36.095986 
L 191.210894 34.794302 
L 191.632381 33.592431 
L 192.144542 32.404454 
L 192.740084 31.237905 
L 193.364682 30.117633 
L 194.081378 29.021282 
L 194.840142 27.984764 
L 195.684344 27.022883 
L 196.620367 26.155915 
L 197.595088 25.375568 
L 198.623191 24.698957 
L 199.703405 24.068906 
L 200.779475 23.496602 
L 201.883704 22.975184 
L 202.991572 22.51193 
L 204.080268 22.164965 
L 205.167793 21.956172 
L 206.234114 21.927273 
L 207.286206 22.020389 
L 208.266391 22.244504 
L 209.202663 22.537068 
L 210.071266 22.925119 
L 210.881039 23.415243 
L 211.636324 24.008137 
L 212.336746 24.700718 
L 213.000106 25.438574 
L 213.614595 26.237389 
L 214.225904 27.075874 
L 214.839338 27.923187 
L 215.414931 28.729462 
L 215.933268 29.546635 
L 216.441176 30.39261 
L 216.933867 31.19794 
L 217.381872 31.977629 
L 217.779383 32.723669 
L 218.098774 33.388437 
L 218.315754 34.005815 
L 218.469754 34.641681 
L 218.543031 35.347022 
L 218.502681 36.133949 
L 218.358989 37.062493 
L 218.12886 38.092064 
L 217.82437 39.230759 
L 217.466346 40.379239 
L 217.04064 41.605906 
L 216.645658 42.833151 
L 216.237616 44.121924 
L 215.808008 45.424177 
L 215.349375 46.738216 
L 214.868682 48.085799 
L 214.374108 49.452766 
L 213.935533 50.826627 
L 213.491515 52.202601 
L 213.096736 53.553098 
L 212.735755 54.899656 
L 212.406478 56.175441 
L 212.083609 57.429076 
L 211.779521 58.575232 
L 211.458645 59.616671 
L 211.092914 60.56956 
L 210.707705 61.42449 
L 210.251966 62.225596 
L 209.705297 62.990462 
L 209.090064 63.764698 
L 208.454471 64.489177 
L 207.746024 65.189759 
L 206.973047 65.788756 
L 206.150911 66.249295 
L 205.249745 66.552529 
" clip-path="url(#pfeba83c6b0)" style="fill: none; stroke: #bcbd22; stroke-width: 1.5; stroke-linecap: square"/>
   </g>
  </g>
  <g id="axes_5">
   <g id="line2d_5">
    <path d="M 260.913572 71.672727 
L 260.029704 71.636003 
L 259.104976 71.407196 
L 258.210584 71.055649 
L 257.335441 70.592678 
L 256.484832 69.977155 
L 255.661178 69.266877 
L 254.86236 68.446607 
L 254.156788 67.464222 
L 253.446491 66.371288 
L 252.765807 65.227062 
L 252.133548 63.981308 
L 251.53648 62.652892 
L 250.963117 61.269884 
L 250.381665 59.852139 
L 249.808179 58.418732 
L 249.242245 56.970345 
L 248.733848 55.524449 
L 248.252595 54.040838 
L 247.828248 52.499522 
L 247.468765 50.941284 
L 247.108517 49.390396 
L 246.800208 47.831404 
L 246.53866 46.291907 
L 246.379865 44.763671 
L 246.255466 43.243904 
L 246.171533 41.758937 
L 246.14201 40.287374 
L 246.16211 38.852585 
L 246.294763 37.450493 
L 246.533604 36.098688 
L 246.863595 34.796936 
L 247.285051 33.594962 
L 247.797191 32.406867 
L 248.392726 31.240218 
L 249.017338 30.119807 
L 249.734099 29.023329 
L 250.492962 27.986647 
L 251.337297 27.02457 
L 252.273503 26.157402 
L 253.248419 25.37688 
L 254.276771 24.700071 
L 255.357255 24.069801 
L 256.433612 23.497285 
L 257.538138 22.975684 
L 258.646303 22.512239 
L 259.735329 22.165133 
L 260.823191 21.956235 
L 261.889878 21.927273 
L 262.942354 22.020338 
L 263.922915 22.244459 
L 264.859571 22.537091 
L 265.728532 22.925252 
L 266.53862 23.415512 
L 267.294172 24.008579 
L 267.994827 24.701362 
L 268.658411 25.439438 
L 269.273071 26.238469 
L 269.884551 27.077179 
L 270.49814 27.924706 
L 271.073864 28.731219 
L 271.592291 29.548632 
L 272.100266 30.394845 
L 272.593035 31.2004 
L 273.041094 31.98031 
L 273.438618 32.726545 
L 273.757993 33.391483 
L 273.97493 34.008974 
L 274.128843 34.644943 
L 274.20199 35.350382 
L 274.161485 36.137376 
L 274.01763 37.065978 
L 273.787339 38.095582 
L 273.482687 39.234279 
L 273.124494 40.382774 
L 272.69865 41.609457 
L 272.303548 42.836691 
L 271.895399 44.125453 
L 271.465693 45.427649 
L 271.006965 46.741625 
L 270.526205 48.089141 
L 270.031578 49.456072 
L 269.592956 50.829849 
L 269.148918 52.205751 
L 268.75412 53.55619 
L 268.393152 54.902661 
L 268.063908 56.178347 
L 267.741088 57.431867 
L 267.437074 58.577877 
L 267.116264 59.619134 
L 266.750584 60.571823 
L 266.365446 61.426531 
L 265.909767 62.227443 
L 265.363149 62.992148 
L 264.747978 63.766221 
L 264.112455 64.49056 
L 263.404085 65.191015 
L 262.631188 65.789909 
L 261.809115 66.250346 
L 260.908017 66.553501 
" clip-path="url(#p880f1d139b)" style="fill: none; stroke: #bcbd22; stroke-width: 1.5; stroke-linecap: square"/>
   </g>
  </g>
  <g id="axes_6">
   <g id="line2d_6">
    <path d="M 316.567422 71.672727 
L 315.683711 71.635919 
L 314.759139 71.407074 
L 313.864921 71.055555 
L 312.989934 70.592655 
L 312.139478 69.977242 
L 311.315934 69.267127 
L 310.517177 68.447007 
L 309.811653 67.464795 
L 309.101379 66.372043 
L 308.420702 65.227995 
L 307.788389 63.982389 
L 307.19126 62.654119 
L 306.617817 61.271232 
L 306.036274 59.853636 
L 305.462686 58.420361 
L 304.896647 56.972074 
L 304.388164 55.526306 
L 303.906811 54.042829 
L 303.482341 52.501594 
L 303.122707 50.943447 
L 302.762317 49.392665 
L 302.453886 47.833771 
L 302.192206 46.294359 
L 302.033273 44.766202 
L 301.908747 43.246509 
L 301.824694 41.761617 
L 301.795051 40.290082 
L 301.81504 38.855317 
L 301.947603 37.45324 
L 302.186378 36.10139 
L 302.516295 34.79957 
L 302.937721 33.597493 
L 303.449839 32.40928 
L 304.045367 31.242532 
L 304.669993 30.121981 
L 305.386819 29.025376 
L 306.145781 27.98853 
L 306.99025 27.026257 
L 307.926638 26.158889 
L 308.901748 25.378192 
L 309.930351 24.701184 
L 311.011104 24.070697 
L 312.08775 23.497967 
L 313.192571 22.976185 
L 314.301033 22.512548 
L 315.390389 22.1653 
L 316.478588 21.956299 
L 317.545641 21.927273 
L 318.598502 22.020286 
L 319.579439 22.244414 
L 320.516479 22.537115 
L 321.385798 22.925385 
L 322.196202 23.415782 
L 322.95202 24.009021 
L 323.652909 24.702005 
L 324.316716 25.440301 
L 324.931548 26.239549 
L 325.5432 27.078484 
L 326.156943 27.926225 
L 326.732797 28.732976 
L 327.251315 29.55063 
L 327.759357 30.39708 
L 328.252205 31.202861 
L 328.700316 31.982991 
L 329.097854 32.729423 
L 329.417212 33.39453 
L 329.634106 34.012134 
L 329.787932 34.648205 
L 329.860949 35.353743 
L 329.820289 36.140805 
L 329.676272 37.069464 
L 329.445818 38.099101 
L 329.141003 39.237801 
L 328.782643 40.38631 
L 328.356661 41.613008 
L 327.961437 42.840232 
L 327.553182 44.128983 
L 327.123377 45.431122 
L 326.664555 46.745034 
L 326.183729 48.092484 
L 325.689048 49.459379 
L 325.250379 50.833072 
L 324.806322 52.208902 
L 324.411505 53.559283 
L 324.05055 54.905667 
L 323.721338 56.181253 
L 323.398567 57.434658 
L 323.094627 58.580523 
L 322.773883 59.621598 
L 322.408255 60.574087 
L 322.023187 61.428573 
L 321.567569 62.229291 
L 321.021001 62.993834 
L 320.405892 63.767744 
L 319.77044 64.491942 
L 319.062145 65.192272 
L 318.28933 65.791064 
L 317.467319 66.251398 
L 316.566289 66.554474 
" clip-path="url(#p50d0a16bec)" style="fill: none; stroke: #bcbd22; stroke-width: 1.5; stroke-linecap: square"/>
   </g>
  </g>
  <g id="axes_7">
   <g id="line2d_7">
    <path d="M 372.221271 71.672727 
L 371.337717 71.635835 
L 370.413302 71.406952 
L 369.519258 71.055462 
L 368.644427 70.592632 
L 367.794123 69.977329 
L 366.970689 69.267377 
L 366.171993 68.447408 
L 365.466517 67.465367 
L 364.756267 66.372798 
L 364.075595 65.228928 
L 363.443229 63.983469 
L 362.84604 62.655346 
L 362.272517 61.27258 
L 361.690881 59.855133 
L 361.117192 58.42199 
L 360.55105 56.973804 
L 360.042479 55.528163 
L 359.561027 54.04482 
L 359.136433 52.503666 
L 358.776648 50.94561 
L 358.416116 49.394935 
L 358.107563 47.836139 
L 357.845751 46.296812 
L 357.68668 44.768734 
L 357.562029 43.249115 
L 357.477855 41.764296 
L 357.448091 40.292789 
L 357.467969 38.858049 
L 357.600443 37.455987 
L 357.839152 36.104092 
L 358.168995 34.802204 
L 358.590389 33.600025 
L 359.102487 32.411694 
L 359.698007 31.244846 
L 360.322647 30.124156 
L 361.039538 29.027424 
L 361.7986 27.990414 
L 362.643202 27.027945 
L 363.579772 26.160376 
L 364.555077 25.379504 
L 365.58393 24.702298 
L 366.664953 24.071594 
L 367.741886 23.49865 
L 368.847004 22.976685 
L 369.955763 22.512857 
L 371.045449 22.165467 
L 372.133986 21.956363 
L 373.201404 21.927273 
L 374.25465 22.020234 
L 375.235963 22.244368 
L 376.173387 22.537139 
L 377.043065 22.925518 
L 377.853785 23.416051 
L 378.60987 24.009464 
L 379.310991 24.702649 
L 379.975022 25.441165 
L 380.590025 26.240629 
L 381.201848 27.07979 
L 381.815747 27.927745 
L 382.391732 28.734733 
L 382.910339 29.552628 
L 383.418449 30.399315 
L 383.911375 31.205322 
L 384.359539 31.985672 
L 384.75709 32.732301 
L 385.076433 33.397577 
L 385.293284 34.015294 
L 385.447022 34.651467 
L 385.519909 35.357105 
L 385.479093 36.144234 
L 385.334914 37.072951 
L 385.104297 38.10262 
L 384.799321 39.241323 
L 384.440792 40.389847 
L 384.014672 41.61656 
L 383.619328 42.843773 
L 383.210965 44.132514 
L 382.781063 45.434596 
L 382.322146 46.748445 
L 381.841254 48.095827 
L 381.346519 49.462686 
L 380.907802 50.836295 
L 380.463726 52.212053 
L 380.06889 53.562376 
L 379.707948 54.908674 
L 379.378769 56.184161 
L 379.056046 57.43745 
L 378.75218 58.583168 
L 378.431503 59.624062 
L 378.065926 60.576351 
L 377.680928 61.430615 
L 377.225371 62.231139 
L 376.678853 62.99552 
L 376.063806 63.769267 
L 375.428425 64.493325 
L 374.720207 65.193529 
L 373.947473 65.792218 
L 373.125524 66.252449 
L 372.224561 66.555447 
" clip-path="url(#pa611442957)" style="fill: none; stroke: #bcbd22; stroke-width: 1.5; stroke-linecap: square"/>
   </g>
  </g>
  <g id="axes_8">
   <g id="line2d_8">
    <path d="M 427.87512 71.672727 
L 426.991722 71.635751 
L 426.067464 71.406829 
L 425.173593 71.055368 
L 424.298919 70.592609 
L 423.448767 69.977416 
L 422.625443 69.267628 
L 421.826809 68.447809 
L 421.12138 67.465939 
L 420.411153 66.373553 
L 419.730489 65.229862 
L 419.098069 63.98455 
L 418.50082 62.656573 
L 417.927217 61.273929 
L 417.345489 59.85663 
L 416.771698 58.42362 
L 416.205452 56.975533 
L 415.696794 55.53002 
L 415.215242 54.046812 
L 414.790524 52.505738 
L 414.430588 50.947773 
L 414.069915 49.397206 
L 413.76124 47.838506 
L 413.499296 46.299265 
L 413.340086 44.771267 
L 413.215309 43.251721 
L 413.131014 41.766977 
L 413.101131 40.295497 
L 413.120897 38.860782 
L 413.253282 37.458735 
L 413.491926 36.106795 
L 413.821694 34.804839 
L 414.243057 33.602557 
L 414.755135 32.414108 
L 415.350647 31.247161 
L 415.975301 30.126331 
L 416.692257 29.029473 
L 417.451418 27.992298 
L 418.296153 27.029634 
L 419.232906 26.161864 
L 420.208406 25.380817 
L 421.237508 24.703412 
L 422.318801 24.07249 
L 423.396022 23.499332 
L 424.501437 22.977185 
L 425.610492 22.513166 
L 426.700509 22.165635 
L 427.789383 21.956427 
L 428.857167 21.927273 
L 429.910798 22.020182 
L 430.892487 22.244323 
L 431.830296 22.537162 
L 432.700332 22.925651 
L 433.511367 23.41632 
L 434.267719 24.009906 
L 434.969074 24.703293 
L 435.633328 25.442029 
L 436.248503 26.241709 
L 436.860498 27.081096 
L 437.474551 27.929265 
L 438.050667 28.736491 
L 438.569364 29.554626 
L 439.077541 30.401551 
L 439.570545 31.207783 
L 440.018763 31.988355 
L 440.416327 32.735179 
L 440.735653 33.400624 
L 440.952461 34.018455 
L 441.106112 34.654731 
L 441.178869 35.360467 
L 441.137898 36.147663 
L 440.993557 37.076438 
L 440.762777 38.10614 
L 440.457639 39.244845 
L 440.098942 40.393384 
L 439.672683 41.620113 
L 439.277218 42.847315 
L 438.868749 44.136045 
L 438.438748 45.43807 
L 437.979737 46.751855 
L 437.498779 48.099171 
L 437.00399 49.465993 
L 436.565226 50.839519 
L 436.12113 52.215205 
L 435.726275 53.56547 
L 435.365347 54.911681 
L 435.0362 56.187068 
L 434.713526 57.440242 
L 434.409734 58.585815 
L 434.089124 59.626527 
L 433.723598 60.578615 
L 433.33867 61.432657 
L 432.883173 62.232988 
L 432.336706 62.997207 
L 431.721721 63.77079 
L 431.086411 64.494709 
L 430.378269 65.194787 
L 429.605616 65.793373 
L 428.783729 66.253501 
L 427.882835 66.556421 
" clip-path="url(#p83778cee6e)" style="fill: none; stroke: #bcbd22; stroke-width: 1.5; stroke-linecap: square"/>
   </g>
  </g>
  <g id="axes_9">
   <g id="line2d_9">
    <path d="M 483.528968 71.672727 
L 482.645727 71.635668 
L 481.721625 71.406707 
L 480.827928 71.055274 
L 479.953411 70.592587 
L 479.103411 69.977503 
L 478.280197 69.267878 
L 477.481624 68.44821 
L 476.776243 67.466512 
L 476.06604 66.374308 
L 475.385382 65.230795 
L 474.752909 63.985631 
L 474.155598 62.657801 
L 473.581916 61.275277 
L 473.000096 59.858127 
L 472.426203 58.425249 
L 471.859853 56.977263 
L 471.351108 55.531878 
L 470.869457 54.048804 
L 470.444615 52.50781 
L 470.084528 50.949937 
L 469.723714 49.399476 
L 469.414916 47.840874 
L 469.152841 46.301718 
L 468.993492 44.7738 
L 468.868589 43.254327 
L 468.784174 41.769658 
L 468.754169 40.298206 
L 468.773825 38.863516 
L 468.90612 37.461483 
L 469.144698 36.109498 
L 469.474392 34.807474 
L 469.895725 33.605089 
L 470.407781 32.416523 
L 471.003285 31.249476 
L 471.627954 30.128507 
L 472.344975 29.031521 
L 473.104235 27.994183 
L 473.949104 27.031323 
L 474.886039 26.163352 
L 475.861734 25.38213 
L 476.891086 24.704527 
L 477.972648 24.073387 
L 479.050158 23.500015 
L 480.155869 22.977686 
L 481.265221 22.513475 
L 482.355569 22.165802 
L 483.44478 21.956491 
L 484.51293 21.927273 
L 485.566946 22.02013 
L 486.549012 22.244277 
L 487.487205 22.537186 
L 488.3576 22.925784 
L 489.16895 23.41659 
L 489.925569 24.010348 
L 490.627157 24.703937 
L 491.291635 25.442892 
L 491.906981 26.242789 
L 492.519148 27.082402 
L 493.133355 27.930785 
L 493.709602 28.738249 
L 494.22839 29.556625 
L 494.736634 30.403787 
L 495.229717 31.210245 
L 495.677987 31.991037 
L 496.075565 32.738058 
L 496.394875 33.403672 
L 496.61164 34.021617 
L 496.765204 34.657995 
L 496.837831 35.36383 
L 496.796704 36.151094 
L 496.652201 37.079926 
L 496.421258 38.109661 
L 496.115957 39.248369 
L 495.757092 40.396922 
L 495.330695 41.623667 
L 494.935109 42.850858 
L 494.526533 44.139577 
L 494.096435 45.441544 
L 493.637328 46.755267 
L 493.156304 48.102515 
L 492.661461 49.469302 
L 492.22265 50.842743 
L 491.778535 52.218358 
L 491.383661 53.568565 
L 491.022746 54.914688 
L 490.693632 56.189977 
L 490.371007 57.443034 
L 490.067288 58.588462 
L 489.746744 59.628992 
L 489.38127 60.58088 
L 488.996412 61.434699 
L 488.540977 62.234837 
L 487.99456 62.998894 
L 487.379637 63.772314 
L 486.744398 64.496092 
L 486.036331 65.196045 
L 485.26376 65.794529 
L 484.441935 66.254554 
L 483.541108 66.557395 
" clip-path="url(#p696b1cb403)" style="fill: none; stroke: #bcbd22; stroke-width: 1.5; stroke-linecap: square"/>
   </g>
  </g>
  <g id="axes_10">
   <g id="line2d_10">
    <path d="M 539.182815 71.672727 
L 538.299731 71.635584 
L 537.375786 71.406585 
L 536.482263 71.05518 
L 535.607902 70.592564 
L 534.758054 69.977591 
L 533.93495 69.268128 
L 533.136439 68.448611 
L 532.431105 67.467084 
L 531.720926 66.375064 
L 531.040274 65.231728 
L 530.407748 63.986712 
L 529.810377 62.659029 
L 529.236615 61.276626 
L 528.654702 59.859625 
L 528.080708 58.426879 
L 527.514254 56.978993 
L 527.005422 55.533736 
L 526.523671 54.050796 
L 526.098705 52.509882 
L 525.738467 50.952101 
L 525.377511 49.401747 
L 525.068591 47.843242 
L 524.806385 46.304171 
L 524.646897 44.776333 
L 524.521869 43.256933 
L 524.437332 41.772339 
L 524.407208 40.300915 
L 524.426752 38.866249 
L 524.558958 37.464232 
L 524.79747 36.112201 
L 525.12709 34.81011 
L 525.548392 33.607622 
L 526.060427 32.418939 
L 526.655923 31.251792 
L 527.280606 30.130683 
L 527.997693 29.033571 
L 528.757052 27.996068 
L 529.602054 27.033012 
L 530.539171 26.16484 
L 531.515061 25.383443 
L 532.544663 24.705642 
L 533.626495 24.074284 
L 534.704293 23.500699 
L 535.810301 22.978187 
L 536.91995 22.513784 
L 538.010628 22.16597 
L 539.100177 21.956555 
L 540.168693 21.927273 
L 541.223094 22.020079 
L 542.205536 22.244232 
L 543.144113 22.537209 
L 544.014867 22.925917 
L 544.826534 23.416859 
L 545.583419 24.010791 
L 546.285241 24.704581 
L 546.949943 25.443757 
L 547.56546 26.24387 
L 548.177798 27.083709 
L 548.792161 27.932305 
L 549.368539 28.740007 
L 549.887417 29.558624 
L 550.395728 30.406024 
L 550.888889 31.212707 
L 551.337212 31.99372 
L 551.734804 32.740938 
L 552.054097 33.406721 
L 552.270819 34.024779 
L 552.424295 34.661259 
L 552.496792 35.367194 
L 552.45551 36.154525 
L 552.310845 37.083415 
L 552.079739 38.113182 
L 551.774276 39.251893 
L 551.415242 40.400461 
L 550.988708 41.627222 
L 550.593001 42.854401 
L 550.184318 44.143109 
L 549.754121 45.44502 
L 549.29492 46.758679 
L 548.81383 48.105861 
L 548.318933 49.47261 
L 547.880075 50.845968 
L 547.435941 52.221511 
L 547.041047 53.57166 
L 546.680146 54.917696 
L 546.351064 56.192885 
L 546.028488 57.445827 
L 545.724843 58.591109 
L 545.404366 59.631457 
L 545.038942 60.583145 
L 544.654155 61.436743 
L 544.19878 62.236686 
L 543.652414 63.000582 
L 543.037553 63.773839 
L 542.402385 64.497476 
L 541.694394 65.197303 
L 540.921905 65.795684 
L 540.100141 66.255606 
L 539.199383 66.558369 
" clip-path="url(#pd35be73329)" style="fill: none; stroke: #bcbd22; stroke-width: 1.5; stroke-linecap: square"/>
   </g>
  </g>
  <g id="text_1">
   <!-- Principal Component 2 for SRV metric -->
   <g transform="translate(84.4605 18.284625)scale(0.216 -0.216)">
    <defs>
     <path id="DejaVuSans-50" d="M 1259 4147 
L 1259 2394 
L 2053 2394 
Q 2494 2394 2734 2622 
Q 2975 2850 2975 3272 
Q 2975 3691 2734 3919 
Q 2494 4147 2053 4147 
L 1259 4147 
z
M 628 4666 
L 2053 4666 
Q 2838 4666 3239 4311 
Q 3641 3956 3641 3272 
Q 3641 2581 3239 2228 
Q 2838 1875 2053 1875 
L 1259 1875 
L 1259 0 
L 628 0 
L 628 4666 
z
" transform="scale(0.015625)"/>
     <path id="DejaVuSans-72" d="M 2631 2963 
Q 2534 3019 2420 3045 
Q 2306 3072 2169 3072 
Q 1681 3072 1420 2755 
Q 1159 2438 1159 1844 
L 1159 0 
L 581 0 
L 581 3500 
L 1159 3500 
L 1159 2956 
Q 1341 3275 1631 3429 
Q 1922 3584 2338 3584 
Q 2397 3584 2469 3576 
Q 2541 3569 2628 3553 
L 2631 2963 
z
" transform="scale(0.015625)"/>
     <path id="DejaVuSans-69" d="M 603 3500 
L 1178 3500 
L 1178 0 
L 603 0 
L 603 3500 
z
M 603 4863 
L 1178 4863 
L 1178 4134 
L 603 4134 
L 603 4863 
z
" transform="scale(0.015625)"/>
     <path id="DejaVuSans-6e" d="M 3513 2113 
L 3513 0 
L 2938 0 
L 2938 2094 
Q 2938 2591 2744 2837 
Q 2550 3084 2163 3084 
Q 1697 3084 1428 2787 
Q 1159 2491 1159 1978 
L 1159 0 
L 581 0 
L 581 3500 
L 1159 3500 
L 1159 2956 
Q 1366 3272 1645 3428 
Q 1925 3584 2291 3584 
Q 2894 3584 3203 3211 
Q 3513 2838 3513 2113 
z
" transform="scale(0.015625)"/>
     <path id="DejaVuSans-63" d="M 3122 3366 
L 3122 2828 
Q 2878 2963 2633 3030 
Q 2388 3097 2138 3097 
Q 1578 3097 1268 2742 
Q 959 2388 959 1747 
Q 959 1106 1268 751 
Q 1578 397 2138 397 
Q 2388 397 2633 464 
Q 2878 531 3122 666 
L 3122 134 
Q 2881 22 2623 -34 
Q 2366 -91 2075 -91 
Q 1284 -91 818 406 
Q 353 903 353 1747 
Q 353 2603 823 3093 
Q 1294 3584 2113 3584 
Q 2378 3584 2631 3529 
Q 2884 3475 3122 3366 
z
" transform="scale(0.015625)"/>
     <path id="DejaVuSans-70" d="M 1159 525 
L 1159 -1331 
L 581 -1331 
L 581 3500 
L 1159 3500 
L 1159 2969 
Q 1341 3281 1617 3432 
Q 1894 3584 2278 3584 
Q 2916 3584 3314 3078 
Q 3713 2572 3713 1747 
Q 3713 922 3314 415 
Q 2916 -91 2278 -91 
Q 1894 -91 1617 61 
Q 1341 213 1159 525 
z
M 3116 1747 
Q 3116 2381 2855 2742 
Q 2594 3103 2138 3103 
Q 1681 3103 1420 2742 
Q 1159 2381 1159 1747 
Q 1159 1113 1420 752 
Q 1681 391 2138 391 
Q 2594 391 2855 752 
Q 3116 1113 3116 1747 
z
" transform="scale(0.015625)"/>
     <path id="DejaVuSans-61" d="M 2194 1759 
Q 1497 1759 1228 1600 
Q 959 1441 959 1056 
Q 959 750 1161 570 
Q 1363 391 1709 391 
Q 2188 391 2477 730 
Q 2766 1069 2766 1631 
L 2766 1759 
L 2194 1759 
z
M 3341 1997 
L 3341 0 
L 2766 0 
L 2766 531 
Q 2569 213 2275 61 
Q 1981 -91 1556 -91 
Q 1019 -91 701 211 
Q 384 513 384 1019 
Q 384 1609 779 1909 
Q 1175 2209 1959 2209 
L 2766 2209 
L 2766 2266 
Q 2766 2663 2505 2880 
Q 2244 3097 1772 3097 
Q 1472 3097 1187 3025 
Q 903 2953 641 2809 
L 641 3341 
Q 956 3463 1253 3523 
Q 1550 3584 1831 3584 
Q 2591 3584 2966 3190 
Q 3341 2797 3341 1997 
z
" transform="scale(0.015625)"/>
     <path id="DejaVuSans-6c" d="M 603 4863 
L 1178 4863 
L 1178 0 
L 603 0 
L 603 4863 
z
" transform="scale(0.015625)"/>
     <path id="DejaVuSans-20" transform="scale(0.015625)"/>
     <path id="DejaVuSans-43" d="M 4122 4306 
L 4122 3641 
Q 3803 3938 3442 4084 
Q 3081 4231 2675 4231 
Q 1875 4231 1450 3742 
Q 1025 3253 1025 2328 
Q 1025 1406 1450 917 
Q 1875 428 2675 428 
Q 3081 428 3442 575 
Q 3803 722 4122 1019 
L 4122 359 
Q 3791 134 3420 21 
Q 3050 -91 2638 -91 
Q 1578 -91 968 557 
Q 359 1206 359 2328 
Q 359 3453 968 4101 
Q 1578 4750 2638 4750 
Q 3056 4750 3426 4639 
Q 3797 4528 4122 4306 
z
" transform="scale(0.015625)"/>
     <path id="DejaVuSans-6f" d="M 1959 3097 
Q 1497 3097 1228 2736 
Q 959 2375 959 1747 
Q 959 1119 1226 758 
Q 1494 397 1959 397 
Q 2419 397 2687 759 
Q 2956 1122 2956 1747 
Q 2956 2369 2687 2733 
Q 2419 3097 1959 3097 
z
M 1959 3584 
Q 2709 3584 3137 3096 
Q 3566 2609 3566 1747 
Q 3566 888 3137 398 
Q 2709 -91 1959 -91 
Q 1206 -91 779 398 
Q 353 888 353 1747 
Q 353 2609 779 3096 
Q 1206 3584 1959 3584 
z
" transform="scale(0.015625)"/>
     <path id="DejaVuSans-6d" d="M 3328 2828 
Q 3544 3216 3844 3400 
Q 4144 3584 4550 3584 
Q 5097 3584 5394 3201 
Q 5691 2819 5691 2113 
L 5691 0 
L 5113 0 
L 5113 2094 
Q 5113 2597 4934 2840 
Q 4756 3084 4391 3084 
Q 3944 3084 3684 2787 
Q 3425 2491 3425 1978 
L 3425 0 
L 2847 0 
L 2847 2094 
Q 2847 2600 2669 2842 
Q 2491 3084 2119 3084 
Q 1678 3084 1418 2786 
Q 1159 2488 1159 1978 
L 1159 0 
L 581 0 
L 581 3500 
L 1159 3500 
L 1159 2956 
Q 1356 3278 1631 3431 
Q 1906 3584 2284 3584 
Q 2666 3584 2933 3390 
Q 3200 3197 3328 2828 
z
" transform="scale(0.015625)"/>
     <path id="DejaVuSans-65" d="M 3597 1894 
L 3597 1613 
L 953 1613 
Q 991 1019 1311 708 
Q 1631 397 2203 397 
Q 2534 397 2845 478 
Q 3156 559 3463 722 
L 3463 178 
Q 3153 47 2828 -22 
Q 2503 -91 2169 -91 
Q 1331 -91 842 396 
Q 353 884 353 1716 
Q 353 2575 817 3079 
Q 1281 3584 2069 3584 
Q 2775 3584 3186 3129 
Q 3597 2675 3597 1894 
z
M 3022 2063 
Q 3016 2534 2758 2815 
Q 2500 3097 2075 3097 
Q 1594 3097 1305 2825 
Q 1016 2553 972 2059 
L 3022 2063 
z
" transform="scale(0.015625)"/>
     <path id="DejaVuSans-74" d="M 1172 4494 
L 1172 3500 
L 2356 3500 
L 2356 3053 
L 1172 3053 
L 1172 1153 
Q 1172 725 1289 603 
Q 1406 481 1766 481 
L 2356 481 
L 2356 0 
L 1766 0 
Q 1100 0 847 248 
Q 594 497 594 1153 
L 594 3053 
L 172 3053 
L 172 3500 
L 594 3500 
L 594 4494 
L 1172 4494 
z
" transform="scale(0.015625)"/>
     <path id="DejaVuSans-32" d="M 1228 531 
L 3431 531 
L 3431 0 
L 469 0 
L 469 531 
Q 828 903 1448 1529 
Q 2069 2156 2228 2338 
Q 2531 2678 2651 2914 
Q 2772 3150 2772 3378 
Q 2772 3750 2511 3984 
Q 2250 4219 1831 4219 
Q 1534 4219 1204 4116 
Q 875 4013 500 3803 
L 500 4441 
Q 881 4594 1212 4672 
Q 1544 4750 1819 4750 
Q 2544 4750 2975 4387 
Q 3406 4025 3406 3419 
Q 3406 3131 3298 2873 
Q 3191 2616 2906 2266 
Q 2828 2175 2409 1742 
Q 1991 1309 1228 531 
z
" transform="scale(0.015625)"/>
     <path id="DejaVuSans-66" d="M 2375 4863 
L 2375 4384 
L 1825 4384 
Q 1516 4384 1395 4259 
Q 1275 4134 1275 3809 
L 1275 3500 
L 2222 3500 
L 2222 3053 
L 1275 3053 
L 1275 0 
L 697 0 
L 697 3053 
L 147 3053 
L 147 3500 
L 697 3500 
L 697 3744 
Q 697 4328 969 4595 
Q 1241 4863 1831 4863 
L 2375 4863 
z
" transform="scale(0.015625)"/>
     <path id="DejaVuSans-53" d="M 3425 4513 
L 3425 3897 
Q 3066 4069 2747 4153 
Q 2428 4238 2131 4238 
Q 1616 4238 1336 4038 
Q 1056 3838 1056 3469 
Q 1056 3159 1242 3001 
Q 1428 2844 1947 2747 
L 2328 2669 
Q 3034 2534 3370 2195 
Q 3706 1856 3706 1288 
Q 3706 609 3251 259 
Q 2797 -91 1919 -91 
Q 1588 -91 1214 -16 
Q 841 59 441 206 
L 441 856 
Q 825 641 1194 531 
Q 1563 422 1919 422 
Q 2459 422 2753 634 
Q 3047 847 3047 1241 
Q 3047 1584 2836 1778 
Q 2625 1972 2144 2069 
L 1759 2144 
Q 1053 2284 737 2584 
Q 422 2884 422 3419 
Q 422 4038 858 4394 
Q 1294 4750 2059 4750 
Q 2388 4750 2728 4690 
Q 3069 4631 3425 4513 
z
" transform="scale(0.015625)"/>
     <path id="DejaVuSans-52" d="M 2841 2188 
Q 3044 2119 3236 1894 
Q 3428 1669 3622 1275 
L 4263 0 
L 3584 0 
L 2988 1197 
Q 2756 1666 2539 1819 
Q 2322 1972 1947 1972 
L 1259 1972 
L 1259 0 
L 628 0 
L 628 4666 
L 2053 4666 
Q 2853 4666 3247 4331 
Q 3641 3997 3641 3322 
Q 3641 2881 3436 2590 
Q 3231 2300 2841 2188 
z
M 1259 4147 
L 1259 2491 
L 2053 2491 
Q 2509 2491 2742 2702 
Q 2975 2913 2975 3322 
Q 2975 3731 2742 3939 
Q 2509 4147 2053 4147 
L 1259 4147 
z
" transform="scale(0.015625)"/>
     <path id="DejaVuSans-56" d="M 1831 0 
L 50 4666 
L 709 4666 
L 2188 738 
L 3669 4666 
L 4325 4666 
L 2547 0 
L 1831 0 
z
" transform="scale(0.015625)"/>
    </defs>
    <use xlink:href="#DejaVuSans-50"/>
    <use xlink:href="#DejaVuSans-72" x="58.552734"/>
    <use xlink:href="#DejaVuSans-69" x="99.666016"/>
    <use xlink:href="#DejaVuSans-6e" x="127.449219"/>
    <use xlink:href="#DejaVuSans-63" x="190.828125"/>
    <use xlink:href="#DejaVuSans-69" x="245.808594"/>
    <use xlink:href="#DejaVuSans-70" x="273.591797"/>
    <use xlink:href="#DejaVuSans-61" x="337.068359"/>
    <use xlink:href="#DejaVuSans-6c" x="398.347656"/>
    <use xlink:href="#DejaVuSans-20" x="426.130859"/>
    <use xlink:href="#DejaVuSans-43" x="457.917969"/>
    <use xlink:href="#DejaVuSans-6f" x="527.742188"/>
    <use xlink:href="#DejaVuSans-6d" x="588.923828"/>
    <use xlink:href="#DejaVuSans-70" x="686.335938"/>
    <use xlink:href="#DejaVuSans-6f" x="749.8125"/>
    <use xlink:href="#DejaVuSans-6e" x="810.994141"/>
    <use xlink:href="#DejaVuSans-65" x="874.373047"/>
    <use xlink:href="#DejaVuSans-6e" x="935.896484"/>
    <use xlink:href="#DejaVuSans-74" x="999.275391"/>
    <use xlink:href="#DejaVuSans-20" x="1038.484375"/>
    <use xlink:href="#DejaVuSans-32" x="1070.271484"/>
    <use xlink:href="#DejaVuSans-20" x="1133.894531"/>
    <use xlink:href="#DejaVuSans-66" x="1165.681641"/>
    <use xlink:href="#DejaVuSans-6f" x="1200.886719"/>
    <use xlink:href="#DejaVuSans-72" x="1262.068359"/>
    <use xlink:href="#DejaVuSans-20" x="1303.181641"/>
    <use xlink:href="#DejaVuSans-53" x="1334.96875"/>
    <use xlink:href="#DejaVuSans-52" x="1398.445312"/>
    <use xlink:href="#DejaVuSans-56" x="1462.427734"/>
    <use xlink:href="#DejaVuSans-20" x="1530.835938"/>
    <use xlink:href="#DejaVuSans-6d" x="1562.623047"/>
    <use xlink:href="#DejaVuSans-65" x="1660.035156"/>
    <use xlink:href="#DejaVuSans-74" x="1721.558594"/>
    <use xlink:href="#DejaVuSans-72" x="1760.767578"/>
    <use xlink:href="#DejaVuSans-69" x="1801.880859"/>
    <use xlink:href="#DejaVuSans-63" x="1829.664062"/>
   </g>
  </g>
 </g>
 <defs>
  <clipPath id="p0053f5c155">
   <rect x="19.44" y="19.44" width="36.216" height="54.72"/>
  </clipPath>
  <clipPath id="p7d4a52955e">
   <rect x="75.096" y="19.44" width="36.216" height="54.72"/>
  </clipPath>
  <clipPath id="p30b8eeb11a">
   <rect x="130.752" y="19.44" width="36.216" height="54.72"/>
  </clipPath>
  <clipPath id="pfeba83c6b0">
   <rect x="186.408" y="19.44" width="36.216" height="54.72"/>
  </clipPath>
  <clipPath id="p880f1d139b">
   <rect x="242.064" y="19.44" width="36.216" height="54.72"/>
  </clipPath>
  <clipPath id="p50d0a16bec">
   <rect x="297.72" y="19.44" width="36.216" height="54.72"/>
  </clipPath>
  <clipPath id="pa611442957">
   <rect x="353.376" y="19.44" width="36.216" height="54.72"/>
  </clipPath>
  <clipPath id="p83778cee6e">
   <rect x="409.032" y="19.44" width="36.216" height="54.72"/>
  </clipPath>
  <clipPath id="p696b1cb403">
   <rect x="464.688" y="19.44" width="36.216" height="54.72"/>
  </clipPath>
  <clipPath id="pd35be73329">
   <rect x="520.344" y="19.44" width="36.216" height="54.72"/>
  </clipPath>
 </defs>
</svg>
