<?xml version="1.0" encoding="utf-8" standalone="no"?>
<!DOCTYPE svg PUBLIC "-//W3C//DTD SVG 1.1//EN"
  "http://www.w3.org/Graphics/SVG/1.1/DTD/svg11.dtd">
<svg xmlns:xlink="http://www.w3.org/1999/xlink" width="1296pt" height="576pt" viewBox="0 0 1296 576" xmlns="http://www.w3.org/2000/svg" version="1.1">
 <metadata>
  <rdf:RDF xmlns:dc="http://purl.org/dc/elements/1.1/" xmlns:cc="http://creativecommons.org/ns#" xmlns:rdf="http://www.w3.org/1999/02/22-rdf-syntax-ns#">
   <cc:Work>
    <dc:type rdf:resource="http://purl.org/dc/dcmitype/StillImage"/>
    <dc:date>2022-08-04T11:51:09.173290</dc:date>
    <dc:format>image/svg+xml</dc:format>
    <dc:creator>
     <cc:Agent>
      <dc:title>Matplotlib v3.5.1, https://matplotlib.org/</dc:title>
     </cc:Agent>
    </dc:creator>
   </cc:Work>
  </rdf:RDF>
 </metadata>
 <defs>
  <style type="text/css">*{stroke-linejoin: round; stroke-linecap: butt}</style>
 </defs>
 <g id="figure_1">
  <g id="patch_1">
   <path d="M 0 576 
L 1296 576 
L 1296 0 
L 0 0 
L 0 576 
z
" style="fill: none"/>
  </g>
  <g id="axes_1">
   <g id="line2d_1">
    <path d="M 272.965447 257.807603 
L 269.016966 257.681368 
L 265.025473 256.706177 
L 261.164304 255.200385 
L 257.43508 253.230081 
L 253.918538 250.679615 
L 250.563367 247.774939 
L 247.399716 244.505081 
L 244.678788 240.671669 
L 242.026248 236.569917 
L 239.518194 232.317521 
L 237.24461 227.793422 
L 235.126054 223.070199 
L 233.130689 218.214438 
L 231.11515 213.282473 
L 229.123738 208.318402 
L 227.169429 203.333035 
L 225.402509 198.320377 
L 223.743419 193.203853 
L 222.281842 187.968397 
L 221.043948 182.666249 
L 219.806835 177.374504 
L 218.740659 172.070994 
L 217.841601 166.783816 
L 217.285643 161.509883 
L 216.835177 156.250634 
L 216.522673 151.055964 
L 216.391115 145.88822 
L 216.434656 140.792826 
L 216.875484 135.778509 
L 217.713281 130.889434 
L 218.898583 126.146263 
L 220.441097 121.677624 
L 222.317798 117.285641 
L 224.491257 112.977781 
L 226.777023 108.817963 
L 229.374564 104.796796 
L 232.134852 100.951315 
L 235.238904 97.390681 
L 238.675101 94.165398 
L 242.290071 91.229853 
L 246.110803 88.664027 
L 250.102578 86.302003 
L 254.123051 84.14059 
L 258.256498 82.160285 
L 262.428727 80.385869 
L 266.615314 79.023592 
L 270.850952 78.206274 
L 275.077212 78.105124 
L 279.274214 78.505086 
L 283.265898 79.461347 
L 287.10558 80.715685 
L 290.719654 82.397353 
L 294.077309 84.517661 
L 297.188787 87.058884 
L 300.036829 89.993532 
L 302.710211 93.109101 
L 305.172746 96.441328 
L 307.598431 99.891242 
L 310.012828 103.351569 
L 312.341265 106.72557 
L 314.469853 110.159545 
L 316.547444 113.671714 
L 318.598224 117.091647 
L 320.519709 120.469024 
L 322.290853 123.787852 
L 323.804465 126.931822 
L 324.89247 130.038411 
L 325.633475 133.22606 
L 325.956711 136.643551 
L 325.722279 140.285931 
L 325.03987 144.252486 
L 324.034622 148.437718 
L 322.807346 152.854965 
L 321.395689 157.264225 
L 319.774644 161.820494 
L 318.258819 166.395634 
L 316.751041 171.103011 
L 315.160651 175.838217 
L 313.48629 180.584384 
L 311.75183 185.389486 
L 309.98287 190.225194 
L 308.430674 195.115459 
L 306.875442 199.993672 
L 305.471301 204.855522 
L 304.186687 209.730758 
L 302.986643 214.452928 
L 301.80266 219.13215 
L 300.659316 223.606191 
L 299.399557 227.824445 
L 297.91878 231.81489 
L 296.275669 235.543231 
L 294.322275 239.061807 
L 291.975188 242.406603 
L 289.386571 245.726582 
L 286.668398 248.867071 
L 283.68519 251.862559 
L 280.414003 254.450713 
L 276.859816 256.468497 
L 272.965447 257.807603 
" clip-path="url(#p39229c5db1)" style="fill: none; stroke: #000000; stroke-width: 1.5; stroke-linecap: square"/>
   </g>
   <g id="text_1">
    <!-- Linear -->
    <g transform="translate(238.540241 63.12)scale(0.21 -0.21)">
     <defs>
      <path id="DejaVuSans-4c" d="M 628 4666 
L 1259 4666 
L 1259 531 
L 3531 531 
L 3531 0 
L 628 0 
L 628 4666 
z
" transform="scale(0.015625)"/>
      <path id="DejaVuSans-69" d="M 603 3500 
L 1178 3500 
L 1178 0 
L 603 0 
L 603 3500 
z
M 603 4863 
L 1178 4863 
L 1178 4134 
L 603 4134 
L 603 4863 
z
" transform="scale(0.015625)"/>
      <path id="DejaVuSans-6e" d="M 3513 2113 
L 3513 0 
L 2938 0 
L 2938 2094 
Q 2938 2591 2744 2837 
Q 2550 3084 2163 3084 
Q 1697 3084 1428 2787 
Q 1159 2491 1159 1978 
L 1159 0 
L 581 0 
L 581 3500 
L 1159 3500 
L 1159 2956 
Q 1366 3272 1645 3428 
Q 1925 3584 2291 3584 
Q 2894 3584 3203 3211 
Q 3513 2838 3513 2113 
z
" transform="scale(0.015625)"/>
      <path id="DejaVuSans-65" d="M 3597 1894 
L 3597 1613 
L 953 1613 
Q 991 1019 1311 708 
Q 1631 397 2203 397 
Q 2534 397 2845 478 
Q 3156 559 3463 722 
L 3463 178 
Q 3153 47 2828 -22 
Q 2503 -91 2169 -91 
Q 1331 -91 842 396 
Q 353 884 353 1716 
Q 353 2575 817 3079 
Q 1281 3584 2069 3584 
Q 2775 3584 3186 3129 
Q 3597 2675 3597 1894 
z
M 3022 2063 
Q 3016 2534 2758 2815 
Q 2500 3097 2075 3097 
Q 1594 3097 1305 2825 
Q 1016 2553 972 2059 
L 3022 2063 
z
" transform="scale(0.015625)"/>
      <path id="DejaVuSans-61" d="M 2194 1759 
Q 1497 1759 1228 1600 
Q 959 1441 959 1056 
Q 959 750 1161 570 
Q 1363 391 1709 391 
Q 2188 391 2477 730 
Q 2766 1069 2766 1631 
L 2766 1759 
L 2194 1759 
z
M 3341 1997 
L 3341 0 
L 2766 0 
L 2766 531 
Q 2569 213 2275 61 
Q 1981 -91 1556 -91 
Q 1019 -91 701 211 
Q 384 513 384 1019 
Q 384 1609 779 1909 
Q 1175 2209 1959 2209 
L 2766 2209 
L 2766 2266 
Q 2766 2663 2505 2880 
Q 2244 3097 1772 3097 
Q 1472 3097 1187 3025 
Q 903 2953 641 2809 
L 641 3341 
Q 956 3463 1253 3523 
Q 1550 3584 1831 3584 
Q 2591 3584 2966 3190 
Q 3341 2797 3341 1997 
z
" transform="scale(0.015625)"/>
      <path id="DejaVuSans-72" d="M 2631 2963 
Q 2534 3019 2420 3045 
Q 2306 3072 2169 3072 
Q 1681 3072 1420 2755 
Q 1159 2438 1159 1844 
L 1159 0 
L 581 0 
L 581 3500 
L 1159 3500 
L 1159 2956 
Q 1341 3275 1631 3429 
Q 1922 3584 2338 3584 
Q 2397 3584 2469 3576 
Q 2541 3569 2628 3553 
L 2631 2963 
z
" transform="scale(0.015625)"/>
     </defs>
     <use xlink:href="#DejaVuSans-4c"/>
     <use xlink:href="#DejaVuSans-69" x="55.712891"/>
     <use xlink:href="#DejaVuSans-6e" x="83.496094"/>
     <use xlink:href="#DejaVuSans-65" x="146.875"/>
     <use xlink:href="#DejaVuSans-61" x="208.398438"/>
     <use xlink:href="#DejaVuSans-72" x="269.677734"/>
    </g>
   </g>
  </g>
  <g id="axes_2">
   <g id="line2d_2">
    <path d="M 534.275954 257.807603 
L 530.913821 257.714792 
L 527.425568 256.901526 
L 524.069646 255.632393 
L 520.799951 253.953784 
L 517.637774 251.719265 
L 514.584276 249.141613 
L 511.630595 246.166725 
L 509.032253 242.609608 
L 506.419352 238.654271 
L 503.917579 234.515108 
L 501.596828 230.011741 
L 499.407192 225.21177 
L 497.305519 220.215799 
L 495.174298 215.094606 
L 493.072546 209.91717 
L 490.998745 204.685875 
L 489.136864 199.465164 
L 487.375005 194.109288 
L 485.82241 188.546599 
L 484.507788 182.924237 
L 483.190374 177.328407 
L 482.063469 171.70421 
L 481.107808 166.15091 
L 480.52827 160.639225 
L 480.074617 155.158263 
L 479.768974 149.802942 
L 479.662329 144.495815 
L 479.737178 139.32114 
L 480.223886 134.263327 
L 481.099622 129.384822 
L 482.309845 124.684515 
L 483.85704 120.340943 
L 485.739052 116.044328 
L 487.930066 111.822135 
L 490.229791 107.765289 
L 492.873042 103.791552 
L 495.675262 100.031768 
L 498.800578 96.538486 
L 502.276813 93.386201 
L 505.905284 90.547427 
L 509.74516 88.085445 
L 513.787652 85.79359 
L 517.820682 83.712979 
L 521.966793 81.819827 
L 526.133873 80.140791 
L 530.243482 78.891736 
L 534.368835 78.158638 
L 538.441717 78.105124 
L 542.479971 78.518756 
L 546.263679 79.437594 
L 549.889481 80.623266 
L 553.26866 82.184125 
L 556.433248 84.150508 
L 559.396908 86.528846 
L 562.154946 89.309251 
L 564.771454 92.273176 
L 567.199847 95.48448 
L 569.617231 98.856226 
L 572.04308 102.263489 
L 574.319541 105.506248 
L 576.371959 108.794853 
L 578.384006 112.200195 
L 580.335517 115.441627 
L 582.110939 118.58081 
L 583.687024 121.585409 
L 584.954182 124.263775 
L 585.816399 126.753252 
L 586.428819 129.318854 
L 586.720279 132.166047 
L 586.559527 135.342093 
L 585.988029 139.088078 
L 585.073461 143.239723 
L 583.864051 147.829728 
L 582.442674 152.457696 
L 580.753663 157.399293 
L 579.186218 162.344043 
L 577.567009 167.536923 
L 575.862548 172.783177 
L 574.043364 178.076017 
L 572.137092 183.503602 
L 570.175997 189.009276 
L 568.436203 194.544304 
L 566.675098 200.087791 
L 565.108863 205.530052 
L 563.676708 210.957199 
L 562.370419 216.099339 
L 561.089681 221.152081 
L 559.883721 225.771048 
L 558.611502 229.966239 
L 557.162379 233.802003 
L 555.637497 237.241015 
L 553.836332 240.460053 
L 551.68059 243.529616 
L 549.257617 246.634758 
L 546.757782 249.538684 
L 543.977067 252.344624 
L 540.954605 254.741416 
L 537.756485 256.584748 
L 534.275954 257.807603 
" clip-path="url(#p8f66be8402)" style="fill: none; stroke: #000000; stroke-width: 1.5; stroke-linecap: square"/>
   </g>
   <g id="text_2">
    <!-- SRV -->
    <g transform="translate(512.624429 63.12)scale(0.21 -0.21)">
     <defs>
      <path id="DejaVuSans-53" d="M 3425 4513 
L 3425 3897 
Q 3066 4069 2747 4153 
Q 2428 4238 2131 4238 
Q 1616 4238 1336 4038 
Q 1056 3838 1056 3469 
Q 1056 3159 1242 3001 
Q 1428 2844 1947 2747 
L 2328 2669 
Q 3034 2534 3370 2195 
Q 3706 1856 3706 1288 
Q 3706 609 3251 259 
Q 2797 -91 1919 -91 
Q 1588 -91 1214 -16 
Q 841 59 441 206 
L 441 856 
Q 825 641 1194 531 
Q 1563 422 1919 422 
Q 2459 422 2753 634 
Q 3047 847 3047 1241 
Q 3047 1584 2836 1778 
Q 2625 1972 2144 2069 
L 1759 2144 
Q 1053 2284 737 2584 
Q 422 2884 422 3419 
Q 422 4038 858 4394 
Q 1294 4750 2059 4750 
Q 2388 4750 2728 4690 
Q 3069 4631 3425 4513 
z
" transform="scale(0.015625)"/>
      <path id="DejaVuSans-52" d="M 2841 2188 
Q 3044 2119 3236 1894 
Q 3428 1669 3622 1275 
L 4263 0 
L 3584 0 
L 2988 1197 
Q 2756 1666 2539 1819 
Q 2322 1972 1947 1972 
L 1259 1972 
L 1259 0 
L 628 0 
L 628 4666 
L 2053 4666 
Q 2853 4666 3247 4331 
Q 3641 3997 3641 3322 
Q 3641 2881 3436 2590 
Q 3231 2300 2841 2188 
z
M 1259 4147 
L 1259 2491 
L 2053 2491 
Q 2509 2491 2742 2702 
Q 2975 2913 2975 3322 
Q 2975 3731 2742 3939 
Q 2509 4147 2053 4147 
L 1259 4147 
z
" transform="scale(0.015625)"/>
      <path id="DejaVuSans-56" d="M 1831 0 
L 50 4666 
L 709 4666 
L 2188 738 
L 3669 4666 
L 4325 4666 
L 2547 0 
L 1831 0 
z
" transform="scale(0.015625)"/>
     </defs>
     <use xlink:href="#DejaVuSans-53"/>
     <use xlink:href="#DejaVuSans-52" x="63.476562"/>
     <use xlink:href="#DejaVuSans-56" x="127.458984"/>
    </g>
   </g>
  </g>
  <g id="axes_3">
   <g id="line2d_3">
    <path d="M 796.293345 257.807603 
L 792.931212 257.714792 
L 789.44296 256.901526 
L 786.087037 255.632393 
L 782.817343 253.953784 
L 779.655165 251.719265 
L 776.601667 249.141613 
L 773.647987 246.166725 
L 771.049644 242.609608 
L 768.436743 238.654271 
L 765.934971 234.515108 
L 763.614219 230.011741 
L 761.424583 225.21177 
L 759.32291 220.215799 
L 757.191689 215.094606 
L 755.089937 209.91717 
L 753.016136 204.685875 
L 751.154255 199.465164 
L 749.392397 194.109288 
L 747.839801 188.546599 
L 746.525179 182.924237 
L 745.207765 177.328407 
L 744.08086 171.70421 
L 743.125199 166.15091 
L 742.545662 160.639225 
L 742.092008 155.158263 
L 741.786365 149.802942 
L 741.679721 144.495815 
L 741.754569 139.32114 
L 742.241278 134.263327 
L 743.117014 129.384822 
L 744.327237 124.684515 
L 745.874431 120.340943 
L 747.756444 116.044328 
L 749.947457 111.822135 
L 752.247182 107.765289 
L 754.890433 103.791552 
L 757.692653 100.031768 
L 760.817969 96.538486 
L 764.294204 93.386201 
L 767.922676 90.547427 
L 771.762552 88.085445 
L 775.805044 85.79359 
L 779.838073 83.712979 
L 783.984184 81.819827 
L 788.151264 80.140791 
L 792.260874 78.891736 
L 796.386226 78.158638 
L 800.459109 78.105124 
L 804.497362 78.518756 
L 808.281071 79.437594 
L 811.906872 80.623266 
L 815.286051 82.184125 
L 818.450639 84.150508 
L 821.414299 86.528846 
L 824.172337 89.309251 
L 826.788845 92.273176 
L 829.217239 95.48448 
L 831.634622 98.856226 
L 834.060471 102.263489 
L 836.336933 105.506248 
L 838.38935 108.794853 
L 840.401397 112.200195 
L 842.352909 115.441627 
L 844.12833 118.58081 
L 845.704415 121.585409 
L 846.971573 124.263775 
L 847.833791 126.753252 
L 848.44621 129.318854 
L 848.737671 132.166047 
L 848.576918 135.342093 
L 848.00542 139.088078 
L 847.090852 143.239723 
L 845.881442 147.829728 
L 844.460065 152.457696 
L 842.771054 157.399293 
L 841.203609 162.344043 
L 839.584401 167.536923 
L 837.87994 172.783177 
L 836.060755 178.076017 
L 834.154483 183.503602 
L 832.193388 189.009276 
L 830.453594 194.544304 
L 828.692489 200.087791 
L 827.126254 205.530052 
L 825.6941 210.957199 
L 824.387811 216.099339 
L 823.107073 221.152081 
L 821.901113 225.771048 
L 820.628893 229.966239 
L 819.17977 233.802003 
L 817.654889 237.241015 
L 815.853723 240.460053 
L 813.697981 243.529616 
L 811.275009 246.634758 
L 808.775173 249.538684 
L 805.994458 252.344624 
L 802.971996 254.741416 
L 799.773877 256.584748 
L 796.293345 257.807603 
" clip-path="url(#pfebdbd577d)" style="fill: none; stroke: #000000; stroke-width: 1.5; stroke-linecap: square"/>
   </g>
   <g id="text_3">
    <!-- Elastic (1, 0.5) -->
    <g transform="translate(719.362602 39.604594)scale(0.21 -0.21)">
     <defs>
      <path id="DejaVuSans-45" d="M 628 4666 
L 3578 4666 
L 3578 4134 
L 1259 4134 
L 1259 2753 
L 3481 2753 
L 3481 2222 
L 1259 2222 
L 1259 531 
L 3634 531 
L 3634 0 
L 628 0 
L 628 4666 
z
" transform="scale(0.015625)"/>
      <path id="DejaVuSans-6c" d="M 603 4863 
L 1178 4863 
L 1178 0 
L 603 0 
L 603 4863 
z
" transform="scale(0.015625)"/>
      <path id="DejaVuSans-73" d="M 2834 3397 
L 2834 2853 
Q 2591 2978 2328 3040 
Q 2066 3103 1784 3103 
Q 1356 3103 1142 2972 
Q 928 2841 928 2578 
Q 928 2378 1081 2264 
Q 1234 2150 1697 2047 
L 1894 2003 
Q 2506 1872 2764 1633 
Q 3022 1394 3022 966 
Q 3022 478 2636 193 
Q 2250 -91 1575 -91 
Q 1294 -91 989 -36 
Q 684 19 347 128 
L 347 722 
Q 666 556 975 473 
Q 1284 391 1588 391 
Q 1994 391 2212 530 
Q 2431 669 2431 922 
Q 2431 1156 2273 1281 
Q 2116 1406 1581 1522 
L 1381 1569 
Q 847 1681 609 1914 
Q 372 2147 372 2553 
Q 372 3047 722 3315 
Q 1072 3584 1716 3584 
Q 2034 3584 2315 3537 
Q 2597 3491 2834 3397 
z
" transform="scale(0.015625)"/>
      <path id="DejaVuSans-74" d="M 1172 4494 
L 1172 3500 
L 2356 3500 
L 2356 3053 
L 1172 3053 
L 1172 1153 
Q 1172 725 1289 603 
Q 1406 481 1766 481 
L 2356 481 
L 2356 0 
L 1766 0 
Q 1100 0 847 248 
Q 594 497 594 1153 
L 594 3053 
L 172 3053 
L 172 3500 
L 594 3500 
L 594 4494 
L 1172 4494 
z
" transform="scale(0.015625)"/>
      <path id="DejaVuSans-63" d="M 3122 3366 
L 3122 2828 
Q 2878 2963 2633 3030 
Q 2388 3097 2138 3097 
Q 1578 3097 1268 2742 
Q 959 2388 959 1747 
Q 959 1106 1268 751 
Q 1578 397 2138 397 
Q 2388 397 2633 464 
Q 2878 531 3122 666 
L 3122 134 
Q 2881 22 2623 -34 
Q 2366 -91 2075 -91 
Q 1284 -91 818 406 
Q 353 903 353 1747 
Q 353 2603 823 3093 
Q 1294 3584 2113 3584 
Q 2378 3584 2631 3529 
Q 2884 3475 3122 3366 
z
" transform="scale(0.015625)"/>
      <path id="DejaVuSans-20" transform="scale(0.015625)"/>
      <path id="DejaVuSans-28" d="M 1984 4856 
Q 1566 4138 1362 3434 
Q 1159 2731 1159 2009 
Q 1159 1288 1364 580 
Q 1569 -128 1984 -844 
L 1484 -844 
Q 1016 -109 783 600 
Q 550 1309 550 2009 
Q 550 2706 781 3412 
Q 1013 4119 1484 4856 
L 1984 4856 
z
" transform="scale(0.015625)"/>
      <path id="DejaVuSans-31" d="M 794 531 
L 1825 531 
L 1825 4091 
L 703 3866 
L 703 4441 
L 1819 4666 
L 2450 4666 
L 2450 531 
L 3481 531 
L 3481 0 
L 794 0 
L 794 531 
z
" transform="scale(0.015625)"/>
      <path id="DejaVuSans-2c" d="M 750 794 
L 1409 794 
L 1409 256 
L 897 -744 
L 494 -744 
L 750 256 
L 750 794 
z
" transform="scale(0.015625)"/>
      <path id="DejaVuSans-30" d="M 2034 4250 
Q 1547 4250 1301 3770 
Q 1056 3291 1056 2328 
Q 1056 1369 1301 889 
Q 1547 409 2034 409 
Q 2525 409 2770 889 
Q 3016 1369 3016 2328 
Q 3016 3291 2770 3770 
Q 2525 4250 2034 4250 
z
M 2034 4750 
Q 2819 4750 3233 4129 
Q 3647 3509 3647 2328 
Q 3647 1150 3233 529 
Q 2819 -91 2034 -91 
Q 1250 -91 836 529 
Q 422 1150 422 2328 
Q 422 3509 836 4129 
Q 1250 4750 2034 4750 
z
" transform="scale(0.015625)"/>
      <path id="DejaVuSans-2e" d="M 684 794 
L 1344 794 
L 1344 0 
L 684 0 
L 684 794 
z
" transform="scale(0.015625)"/>
      <path id="DejaVuSans-35" d="M 691 4666 
L 3169 4666 
L 3169 4134 
L 1269 4134 
L 1269 2991 
Q 1406 3038 1543 3061 
Q 1681 3084 1819 3084 
Q 2600 3084 3056 2656 
Q 3513 2228 3513 1497 
Q 3513 744 3044 326 
Q 2575 -91 1722 -91 
Q 1428 -91 1123 -41 
Q 819 9 494 109 
L 494 744 
Q 775 591 1075 516 
Q 1375 441 1709 441 
Q 2250 441 2565 725 
Q 2881 1009 2881 1497 
Q 2881 1984 2565 2268 
Q 2250 2553 1709 2553 
Q 1456 2553 1204 2497 
Q 953 2441 691 2322 
L 691 4666 
z
" transform="scale(0.015625)"/>
      <path id="DejaVuSans-29" d="M 513 4856 
L 1013 4856 
Q 1481 4119 1714 3412 
Q 1947 2706 1947 2009 
Q 1947 1309 1714 600 
Q 1481 -109 1013 -844 
L 513 -844 
Q 928 -128 1133 580 
Q 1338 1288 1338 2009 
Q 1338 2731 1133 3434 
Q 928 4138 513 4856 
z
" transform="scale(0.015625)"/>
     </defs>
     <use xlink:href="#DejaVuSans-45"/>
     <use xlink:href="#DejaVuSans-6c" x="63.183594"/>
     <use xlink:href="#DejaVuSans-61" x="90.966797"/>
     <use xlink:href="#DejaVuSans-73" x="152.246094"/>
     <use xlink:href="#DejaVuSans-74" x="204.345703"/>
     <use xlink:href="#DejaVuSans-69" x="243.554688"/>
     <use xlink:href="#DejaVuSans-63" x="271.337891"/>
     <use xlink:href="#DejaVuSans-20" x="326.318359"/>
     <use xlink:href="#DejaVuSans-28" x="358.105469"/>
     <use xlink:href="#DejaVuSans-31" x="397.119141"/>
     <use xlink:href="#DejaVuSans-2c" x="460.742188"/>
     <use xlink:href="#DejaVuSans-20" x="492.529297"/>
     <use xlink:href="#DejaVuSans-30" x="524.316406"/>
     <use xlink:href="#DejaVuSans-2e" x="587.939453"/>
     <use xlink:href="#DejaVuSans-35" x="619.726562"/>
     <use xlink:href="#DejaVuSans-29" x="683.349609"/>
    </g>
    <!--  a / (2b) = 1.0 -->
    <g transform="translate(721.515102 63.12)scale(0.21 -0.21)">
     <defs>
      <path id="DejaVuSans-2f" d="M 1625 4666 
L 2156 4666 
L 531 -594 
L 0 -594 
L 1625 4666 
z
" transform="scale(0.015625)"/>
      <path id="DejaVuSans-32" d="M 1228 531 
L 3431 531 
L 3431 0 
L 469 0 
L 469 531 
Q 828 903 1448 1529 
Q 2069 2156 2228 2338 
Q 2531 2678 2651 2914 
Q 2772 3150 2772 3378 
Q 2772 3750 2511 3984 
Q 2250 4219 1831 4219 
Q 1534 4219 1204 4116 
Q 875 4013 500 3803 
L 500 4441 
Q 881 4594 1212 4672 
Q 1544 4750 1819 4750 
Q 2544 4750 2975 4387 
Q 3406 4025 3406 3419 
Q 3406 3131 3298 2873 
Q 3191 2616 2906 2266 
Q 2828 2175 2409 1742 
Q 1991 1309 1228 531 
z
" transform="scale(0.015625)"/>
      <path id="DejaVuSans-62" d="M 3116 1747 
Q 3116 2381 2855 2742 
Q 2594 3103 2138 3103 
Q 1681 3103 1420 2742 
Q 1159 2381 1159 1747 
Q 1159 1113 1420 752 
Q 1681 391 2138 391 
Q 2594 391 2855 752 
Q 3116 1113 3116 1747 
z
M 1159 2969 
Q 1341 3281 1617 3432 
Q 1894 3584 2278 3584 
Q 2916 3584 3314 3078 
Q 3713 2572 3713 1747 
Q 3713 922 3314 415 
Q 2916 -91 2278 -91 
Q 1894 -91 1617 61 
Q 1341 213 1159 525 
L 1159 0 
L 581 0 
L 581 4863 
L 1159 4863 
L 1159 2969 
z
" transform="scale(0.015625)"/>
      <path id="DejaVuSans-3d" d="M 678 2906 
L 4684 2906 
L 4684 2381 
L 678 2381 
L 678 2906 
z
M 678 1631 
L 4684 1631 
L 4684 1100 
L 678 1100 
L 678 1631 
z
" transform="scale(0.015625)"/>
     </defs>
     <use xlink:href="#DejaVuSans-20"/>
     <use xlink:href="#DejaVuSans-61" x="31.787109"/>
     <use xlink:href="#DejaVuSans-20" x="93.066406"/>
     <use xlink:href="#DejaVuSans-2f" x="124.853516"/>
     <use xlink:href="#DejaVuSans-20" x="158.544922"/>
     <use xlink:href="#DejaVuSans-28" x="190.332031"/>
     <use xlink:href="#DejaVuSans-32" x="229.345703"/>
     <use xlink:href="#DejaVuSans-62" x="292.96875"/>
     <use xlink:href="#DejaVuSans-29" x="356.445312"/>
     <use xlink:href="#DejaVuSans-20" x="395.458984"/>
     <use xlink:href="#DejaVuSans-3d" x="427.246094"/>
     <use xlink:href="#DejaVuSans-20" x="511.035156"/>
     <use xlink:href="#DejaVuSans-31" x="542.822266"/>
     <use xlink:href="#DejaVuSans-2e" x="606.445312"/>
     <use xlink:href="#DejaVuSans-30" x="638.232422"/>
    </g>
   </g>
  </g>
  <g id="axes_4">
   <g id="line2d_4">
    <path d="M 1058.310737 257.807603 
L 1054.948603 257.714792 
L 1051.460351 256.901526 
L 1048.104428 255.632393 
L 1044.834734 253.953784 
L 1041.672557 251.719265 
L 1038.619058 249.141613 
L 1035.665378 246.166725 
L 1033.067035 242.609608 
L 1030.454134 238.654271 
L 1027.952362 234.515108 
L 1025.63161 230.011741 
L 1023.441974 225.21177 
L 1021.340302 220.215799 
L 1019.209081 215.094606 
L 1017.107329 209.91717 
L 1015.033527 204.685875 
L 1013.171646 199.465164 
L 1011.409788 194.109288 
L 1009.857192 188.546599 
L 1008.542571 182.924237 
L 1007.225157 177.328407 
L 1006.098251 171.70421 
L 1005.14259 166.15091 
L 1004.563053 160.639225 
L 1004.109399 155.158263 
L 1003.803756 149.802942 
L 1003.697112 144.495815 
L 1003.77196 139.32114 
L 1004.258669 134.263327 
L 1005.134405 129.384822 
L 1006.344628 124.684515 
L 1007.891823 120.340943 
L 1009.773835 116.044328 
L 1011.964849 111.822135 
L 1014.264573 107.765289 
L 1016.907825 103.791552 
L 1019.710044 100.031768 
L 1022.83536 96.538486 
L 1026.311596 93.386201 
L 1029.940067 90.547427 
L 1033.779943 88.085445 
L 1037.822435 85.79359 
L 1041.855464 83.712979 
L 1046.001575 81.819827 
L 1050.168655 80.140791 
L 1054.278265 78.891736 
L 1058.403617 78.158638 
L 1062.4765 78.105124 
L 1066.514754 78.518756 
L 1070.298462 79.437594 
L 1073.924264 80.623266 
L 1077.303442 82.184125 
L 1080.468031 84.150508 
L 1083.431691 86.528846 
L 1086.189728 89.309251 
L 1088.806236 92.273176 
L 1091.23463 95.48448 
L 1093.652013 98.856226 
L 1096.077862 102.263489 
L 1098.354324 105.506248 
L 1100.406741 108.794853 
L 1102.418788 112.200195 
L 1104.3703 115.441627 
L 1106.145722 118.58081 
L 1107.721806 121.585409 
L 1108.988964 124.263775 
L 1109.851182 126.753252 
L 1110.463601 129.318854 
L 1110.755062 132.166047 
L 1110.59431 135.342093 
L 1110.022812 139.088078 
L 1109.108243 143.239723 
L 1107.898834 147.829728 
L 1106.477457 152.457696 
L 1104.788446 157.399293 
L 1103.221001 162.344043 
L 1101.601792 167.536923 
L 1099.897331 172.783177 
L 1098.078146 178.076017 
L 1096.171874 183.503602 
L 1094.210779 189.009276 
L 1092.470986 194.544304 
L 1090.70988 200.087791 
L 1089.143645 205.530052 
L 1087.711491 210.957199 
L 1086.405202 216.099339 
L 1085.124464 221.152081 
L 1083.918504 225.771048 
L 1082.646284 229.966239 
L 1081.197161 233.802003 
L 1079.67228 237.241015 
L 1077.871114 240.460053 
L 1075.715372 243.529616 
L 1073.2924 246.634758 
L 1070.792564 249.538684 
L 1068.011849 252.344624 
L 1064.989388 254.741416 
L 1061.791268 256.584748 
L 1058.310737 257.807603 
" clip-path="url(#p3530b552f4)" style="fill: none; stroke: #000000; stroke-width: 1.5; stroke-linecap: square"/>
   </g>
   <g id="text_4">
    <!-- Elastic (2, 1) -->
    <g transform="translate(991.397649 39.604594)scale(0.21 -0.21)">
     <use xlink:href="#DejaVuSans-45"/>
     <use xlink:href="#DejaVuSans-6c" x="63.183594"/>
     <use xlink:href="#DejaVuSans-61" x="90.966797"/>
     <use xlink:href="#DejaVuSans-73" x="152.246094"/>
     <use xlink:href="#DejaVuSans-74" x="204.345703"/>
     <use xlink:href="#DejaVuSans-69" x="243.554688"/>
     <use xlink:href="#DejaVuSans-63" x="271.337891"/>
     <use xlink:href="#DejaVuSans-20" x="326.318359"/>
     <use xlink:href="#DejaVuSans-28" x="358.105469"/>
     <use xlink:href="#DejaVuSans-32" x="397.119141"/>
     <use xlink:href="#DejaVuSans-2c" x="460.742188"/>
     <use xlink:href="#DejaVuSans-20" x="492.529297"/>
     <use xlink:href="#DejaVuSans-31" x="524.316406"/>
     <use xlink:href="#DejaVuSans-29" x="587.939453"/>
    </g>
    <!--  a / (2b) = 1.0 -->
    <g transform="translate(983.532493 63.12)scale(0.21 -0.21)">
     <use xlink:href="#DejaVuSans-20"/>
     <use xlink:href="#DejaVuSans-61" x="31.787109"/>
     <use xlink:href="#DejaVuSans-20" x="93.066406"/>
     <use xlink:href="#DejaVuSans-2f" x="124.853516"/>
     <use xlink:href="#DejaVuSans-20" x="158.544922"/>
     <use xlink:href="#DejaVuSans-28" x="190.332031"/>
     <use xlink:href="#DejaVuSans-32" x="229.345703"/>
     <use xlink:href="#DejaVuSans-62" x="292.96875"/>
     <use xlink:href="#DejaVuSans-29" x="356.445312"/>
     <use xlink:href="#DejaVuSans-20" x="395.458984"/>
     <use xlink:href="#DejaVuSans-3d" x="427.246094"/>
     <use xlink:href="#DejaVuSans-20" x="511.035156"/>
     <use xlink:href="#DejaVuSans-31" x="542.822266"/>
     <use xlink:href="#DejaVuSans-2e" x="606.445312"/>
     <use xlink:href="#DejaVuSans-30" x="638.232422"/>
    </g>
   </g>
  </g>
  <g id="axes_5">
   <g id="line2d_5">
    <path d="M 368.335874 481.187084 
L 367.564249 481.855329 
L 365.261189 483.435997 
L 361.855111 485.394977 
L 357.661315 487.396138 
L 352.720279 489.055122 
L 347.280705 490.507186 
L 341.352956 491.57861 
L 334.918596 491.790004 
L 328.045533 491.723199 
L 321.1775 491.433542 
L 314.126755 490.64886 
L 307.185898 489.52329 
L 300.20328 488.187527 
L 293.097875 486.697303 
L 286.189223 485.247414 
L 279.319185 483.681 
L 272.629467 481.960425 
L 265.924036 480.008564 
L 259.248097 477.698088 
L 252.591197 475.007492 
L 245.935595 472.32763 
L 239.492599 469.547598 
L 233.218912 466.645018 
L 227.061537 463.249278 
L 221.227011 459.828327 
L 215.444297 456.274624 
L 209.789073 452.503379 
L 204.242028 448.582351 
L 199.174576 444.287975 
L 194.610808 439.710154 
L 190.514224 434.878323 
L 186.882129 429.798875 
L 183.601626 424.445652 
L 180.703025 418.913998 
L 178.105457 413.434803 
L 175.854155 407.607737 
L 173.967831 401.721752 
L 172.681324 395.673414 
L 172.101063 389.601043 
L 171.924901 383.515368 
L 172.346362 377.466582 
L 173.074526 371.44451 
L 174.117003 365.645949 
L 175.450403 359.756648 
L 177.012602 354.04931 
L 179.123387 348.420634 
L 181.880931 343.076837 
L 185.650927 338.095181 
L 189.918958 333.489763 
L 194.739103 329.532603 
L 199.709387 326.096115 
L 204.997639 323.386111 
L 210.361881 321.370793 
L 215.971392 319.946916 
L 221.862078 319.050991 
L 227.71055 318.570415 
L 233.448085 318.537269 
L 239.465349 318.650029 
L 245.330446 318.79539 
L 250.915346 319.005239 
L 256.27576 319.497966 
L 261.536645 320.124523 
L 266.69751 320.696068 
L 271.593751 321.460089 
L 276.249566 322.357267 
L 280.743233 323.482712 
L 284.843146 324.969562 
L 288.834299 326.917577 
L 292.737757 329.420283 
L 296.348601 332.488242 
L 299.983743 336.283798 
L 303.389274 340.499616 
L 306.729305 345.081722 
L 309.832914 349.855878 
L 312.939261 355.094173 
L 316.11548 360.205935 
L 319.40502 365.49459 
L 322.654907 370.864253 
L 325.839426 376.349505 
L 329.050085 381.991238 
L 332.322094 387.695872 
L 335.839028 393.267957 
L 339.269344 398.851825 
L 342.70375 404.194321 
L 346.225238 409.432725 
L 349.706268 414.558516 
L 353.252261 419.579227 
L 356.521145 424.561369 
L 359.496007 429.723116 
L 362.077466 434.968201 
L 364.302514 440.375921 
L 366.185765 445.991659 
L 367.722928 451.828627 
L 368.954486 457.575793 
L 369.868244 463.05049 
L 370.422925 468.285456 
L 370.339782 473.41551 
L 369.585762 477.730513 
L 368.335874 481.187084 
" clip-path="url(#pe82c33d6ef)" style="fill: none; stroke: #000000; stroke-width: 1.5; stroke-linecap: square"/>
   </g>
   <g id="text_5">
    <!-- Elastic (0.75, 0.5) -->
    <g transform="translate(178.629538 280.359226)scale(0.21 -0.21)">
     <defs>
      <path id="DejaVuSans-37" d="M 525 4666 
L 3525 4666 
L 3525 4397 
L 1831 0 
L 1172 0 
L 2766 4134 
L 525 4134 
L 525 4666 
z
" transform="scale(0.015625)"/>
     </defs>
     <use xlink:href="#DejaVuSans-45"/>
     <use xlink:href="#DejaVuSans-6c" x="63.183594"/>
     <use xlink:href="#DejaVuSans-61" x="90.966797"/>
     <use xlink:href="#DejaVuSans-73" x="152.246094"/>
     <use xlink:href="#DejaVuSans-74" x="204.345703"/>
     <use xlink:href="#DejaVuSans-69" x="243.554688"/>
     <use xlink:href="#DejaVuSans-63" x="271.337891"/>
     <use xlink:href="#DejaVuSans-20" x="326.318359"/>
     <use xlink:href="#DejaVuSans-28" x="358.105469"/>
     <use xlink:href="#DejaVuSans-30" x="397.119141"/>
     <use xlink:href="#DejaVuSans-2e" x="460.742188"/>
     <use xlink:href="#DejaVuSans-37" x="492.529297"/>
     <use xlink:href="#DejaVuSans-35" x="556.152344"/>
     <use xlink:href="#DejaVuSans-2c" x="619.775391"/>
     <use xlink:href="#DejaVuSans-20" x="651.5625"/>
     <use xlink:href="#DejaVuSans-30" x="683.349609"/>
     <use xlink:href="#DejaVuSans-2e" x="746.972656"/>
     <use xlink:href="#DejaVuSans-35" x="778.759766"/>
     <use xlink:href="#DejaVuSans-29" x="842.382812"/>
    </g>
    <!--  a / (2b) = 0.75 -->
    <g transform="translate(190.799694 303.874632)scale(0.21 -0.21)">
     <use xlink:href="#DejaVuSans-20"/>
     <use xlink:href="#DejaVuSans-61" x="31.787109"/>
     <use xlink:href="#DejaVuSans-20" x="93.066406"/>
     <use xlink:href="#DejaVuSans-2f" x="124.853516"/>
     <use xlink:href="#DejaVuSans-20" x="158.544922"/>
     <use xlink:href="#DejaVuSans-28" x="190.332031"/>
     <use xlink:href="#DejaVuSans-32" x="229.345703"/>
     <use xlink:href="#DejaVuSans-62" x="292.96875"/>
     <use xlink:href="#DejaVuSans-29" x="356.445312"/>
     <use xlink:href="#DejaVuSans-20" x="395.458984"/>
     <use xlink:href="#DejaVuSans-3d" x="427.246094"/>
     <use xlink:href="#DejaVuSans-20" x="511.035156"/>
     <use xlink:href="#DejaVuSans-30" x="542.822266"/>
     <use xlink:href="#DejaVuSans-2e" x="606.445312"/>
     <use xlink:href="#DejaVuSans-37" x="638.232422"/>
     <use xlink:href="#DejaVuSans-35" x="701.855469"/>
    </g>
   </g>
  </g>
  <g id="axes_6">
   <g id="line2d_6">
    <path d="M 492.648861 482.88011 
L 539.040698 458.734187 
L 552.520809 445.053939 
L 556.023113 436.994671 
L 556.222076 431.523526 
L 554.756373 427.467517 
L 552.512912 424.959669 
L 549.29904 423.121954 
L 545.290983 422.016446 
L 540.903041 421.728893 
L 537.152023 421.052143 
L 533.197507 420.271627 
L 530.438173 418.625342 
L 527.810931 416.777996 
L 524.475247 414.450514 
L 522.825121 412.168449 
L 521.118107 409.403687 
L 520.185387 407.19582 
L 518.977019 404.40719 
L 518.007309 401.521502 
L 516.518608 398.123134 
L 514.983123 394.713986 
L 514.528579 391.846298 
L 514.256474 389.188328 
L 512.939842 386.016586 
L 512.962722 383.001543 
L 512.459779 380.064785 
L 511.771823 376.929527 
L 510.688835 374.050856 
L 510.032122 371.090085 
L 509.907087 368.407023 
L 510.090333 365.599117 
L 509.842043 362.87473 
L 509.946411 360.209186 
L 510.662323 357.893815 
L 511.591485 356.025251 
L 512.489035 353.599154 
L 513.330592 351.293136 
L 514.60234 348.763624 
L 516.258312 346.657622 
L 517.734126 344.577612 
L 519.454091 342.84225 
L 521.344812 341.603022 
L 523.643389 340.453862 
L 525.675865 339.073735 
L 527.786589 337.936389 
L 529.740489 335.742831 
L 531.52121 333.232154 
L 533.424493 329.828512 
L 535.111522 326.49417 
L 536.833389 322.776781 
L 539.018089 319.723565 
L 541.927702 317.287394 
L 544.713954 316.369685 
L 547.442261 315.81256 
L 549.886671 315.312397 
L 552.222947 315.434601 
L 554.296325 316.224513 
L 556.662926 316.611519 
L 559.040421 317.284636 
L 561.16847 318.395924 
L 562.909455 320.221436 
L 564.365099 322.636426 
L 565.860248 324.6684 
L 566.922739 327.873697 
L 567.646991 331.481753 
L 569.522211 334.268828 
L 570.737307 337.199407 
L 572.544852 340.540322 
L 573.733747 343.81458 
L 573.555012 347.029308 
L 573.188638 350.089051 
L 570.930989 354.493978 
L 567.155805 358.510169 
L 562.974683 363.379399 
L 558.621585 368.972715 
L 553.732635 373.862031 
L 548.951789 379.509774 
L 543.871622 384.762988 
L 539.530296 390.305816 
L 535.198358 395.94375 
L 530.972951 401.239608 
L 527.310245 407.010956 
L 523.543091 412.985657 
L 518.641585 419.126071 
L 514.078864 425.647957 
L 511.072285 432.41969 
L 508.144147 438.636682 
L 505.805095 445.69669 
L 505.404048 453.076412 
L 505.411487 460.299706 
L 506.24822 467.744407 
L 508.292652 473.730177 
L 509.755893 479.637851 
L 509.76617 484.772277 
L 508.17167 489.6322 
L 503.982454 492.765821 
L 499.093011 495.014876 
L 493.236901 491.254222 
L 492.648861 482.88011 
" clip-path="url(#pd2172489ce)" style="fill: none; stroke: #000000; stroke-width: 1.5; stroke-linecap: square"/>
   </g>
   <g id="text_6">
    <!-- Elastic (0.5, 0.5) -->
    <g transform="translate(447.327554 276.811866)scale(0.21 -0.21)">
     <use xlink:href="#DejaVuSans-45"/>
     <use xlink:href="#DejaVuSans-6c" x="63.183594"/>
     <use xlink:href="#DejaVuSans-61" x="90.966797"/>
     <use xlink:href="#DejaVuSans-73" x="152.246094"/>
     <use xlink:href="#DejaVuSans-74" x="204.345703"/>
     <use xlink:href="#DejaVuSans-69" x="243.554688"/>
     <use xlink:href="#DejaVuSans-63" x="271.337891"/>
     <use xlink:href="#DejaVuSans-20" x="326.318359"/>
     <use xlink:href="#DejaVuSans-28" x="358.105469"/>
     <use xlink:href="#DejaVuSans-30" x="397.119141"/>
     <use xlink:href="#DejaVuSans-2e" x="460.742188"/>
     <use xlink:href="#DejaVuSans-35" x="492.529297"/>
     <use xlink:href="#DejaVuSans-2c" x="556.152344"/>
     <use xlink:href="#DejaVuSans-20" x="587.939453"/>
     <use xlink:href="#DejaVuSans-30" x="619.726562"/>
     <use xlink:href="#DejaVuSans-2e" x="683.349609"/>
     <use xlink:href="#DejaVuSans-35" x="715.136719"/>
     <use xlink:href="#DejaVuSans-29" x="778.759766"/>
    </g>
    <!--  a / (2b) = 0.5 -->
    <g transform="translate(459.497711 300.327273)scale(0.21 -0.21)">
     <use xlink:href="#DejaVuSans-20"/>
     <use xlink:href="#DejaVuSans-61" x="31.787109"/>
     <use xlink:href="#DejaVuSans-20" x="93.066406"/>
     <use xlink:href="#DejaVuSans-2f" x="124.853516"/>
     <use xlink:href="#DejaVuSans-20" x="158.544922"/>
     <use xlink:href="#DejaVuSans-28" x="190.332031"/>
     <use xlink:href="#DejaVuSans-32" x="229.345703"/>
     <use xlink:href="#DejaVuSans-62" x="292.96875"/>
     <use xlink:href="#DejaVuSans-29" x="356.445312"/>
     <use xlink:href="#DejaVuSans-20" x="395.458984"/>
     <use xlink:href="#DejaVuSans-3d" x="427.246094"/>
     <use xlink:href="#DejaVuSans-20" x="511.035156"/>
     <use xlink:href="#DejaVuSans-30" x="542.822266"/>
     <use xlink:href="#DejaVuSans-2e" x="606.445312"/>
     <use xlink:href="#DejaVuSans-35" x="638.232422"/>
    </g>
   </g>
  </g>
  <g id="axes_7">
   <g id="line2d_7">
    <path d="M 749.561981 317.532097 
L 756.928958 315.857232 
L 763.524556 315.312397 
L 769.637805 315.703517 
L 775.433826 316.758133 
L 780.821816 318.558205 
L 785.907163 320.8642 
L 790.71373 323.536301 
L 794.987294 326.814204 
L 799.053124 330.302908 
L 802.987684 333.968503 
L 806.69471 337.850959 
L 810.199192 341.983826 
L 813.606243 346.198658 
L 817.079937 350.402059 
L 820.484677 354.737663 
L 823.926684 359.063355 
L 827.081854 363.540209 
L 830.260092 368.054817 
L 833.23055 372.698741 
L 836.06646 377.393331 
L 838.897483 382.073665 
L 841.517283 386.887926 
L 843.981027 391.742696 
L 846.134062 396.610715 
L 848.238182 401.556302 
L 850.139072 406.497379 
L 851.893882 411.42865 
L 853.401324 416.370835 
L 854.523191 421.368251 
L 855.181786 426.366627 
L 855.536805 431.33417 
L 855.411667 436.152418 
L 854.958534 440.941131 
L 854.246291 445.7498 
L 853.275879 450.441264 
L 852.116283 455.050333 
L 850.618149 459.465162 
L 848.864744 463.769359 
L 846.676812 467.794639 
L 844.232922 471.580489 
L 841.454072 475.082201 
L 838.499889 478.471765 
L 835.474764 481.726574 
L 832.287669 484.765207 
L 828.983003 487.6473 
L 825.571704 490.178824 
L 821.971689 492.22104 
L 818.185161 493.639509 
L 814.301227 494.584008 
L 810.384976 494.95029 
L 806.45315 495.014876 
L 802.53283 494.733761 
L 798.629148 493.907544 
L 794.838846 492.636164 
L 791.176331 490.909908 
L 787.635423 488.926576 
L 784.197782 486.638298 
L 780.812266 484.313274 
L 777.42481 482.005374 
L 774.036831 479.701125 
L 770.759992 477.204615 
L 767.450054 474.650897 
L 764.208543 472.112684 
L 760.988638 469.506014 
L 757.865616 466.77065 
L 754.91243 464.013321 
L 752.299798 460.921419 
L 749.864411 457.713919 
L 747.838388 454.131411 
L 746.398352 450.107413 
L 745.454502 445.766972 
L 744.622595 441.258467 
L 744.085326 436.543255 
L 743.6654 431.801275 
L 743.296211 427.012689 
L 742.956028 422.195075 
L 742.482932 417.39074 
L 742.120775 412.529168 
L 741.781138 407.706933 
L 741.488218 402.863353 
L 741.222306 398.01998 
L 740.715261 393.188709 
L 740.196216 388.419219 
L 739.54731 383.627963 
L 738.73109 378.895192 
L 737.882591 374.26838 
L 737.02537 369.638894 
L 736.18626 365.081682 
L 735.480688 360.64563 
L 735.026557 356.20083 
L 734.880586 351.789755 
L 735.153121 347.425148 
L 735.821651 342.986261 
L 736.876809 338.498108 
L 738.19807 334.016982 
L 739.996228 329.519058 
L 742.287065 325.223972 
L 745.414946 321.15075 
L 749.561981 317.532097 
" clip-path="url(#pf811e9dd3a)" style="fill: none; stroke: #000000; stroke-width: 1.5; stroke-linecap: square"/>
   </g>
   <g id="text_7">
    <!-- Elastic (0.25, 0.5) -->
    <g transform="translate(702.664321 276.811866)scale(0.21 -0.21)">
     <use xlink:href="#DejaVuSans-45"/>
     <use xlink:href="#DejaVuSans-6c" x="63.183594"/>
     <use xlink:href="#DejaVuSans-61" x="90.966797"/>
     <use xlink:href="#DejaVuSans-73" x="152.246094"/>
     <use xlink:href="#DejaVuSans-74" x="204.345703"/>
     <use xlink:href="#DejaVuSans-69" x="243.554688"/>
     <use xlink:href="#DejaVuSans-63" x="271.337891"/>
     <use xlink:href="#DejaVuSans-20" x="326.318359"/>
     <use xlink:href="#DejaVuSans-28" x="358.105469"/>
     <use xlink:href="#DejaVuSans-30" x="397.119141"/>
     <use xlink:href="#DejaVuSans-2e" x="460.742188"/>
     <use xlink:href="#DejaVuSans-32" x="492.529297"/>
     <use xlink:href="#DejaVuSans-35" x="556.152344"/>
     <use xlink:href="#DejaVuSans-2c" x="619.775391"/>
     <use xlink:href="#DejaVuSans-20" x="651.5625"/>
     <use xlink:href="#DejaVuSans-30" x="683.349609"/>
     <use xlink:href="#DejaVuSans-2e" x="746.972656"/>
     <use xlink:href="#DejaVuSans-35" x="778.759766"/>
     <use xlink:href="#DejaVuSans-29" x="842.382812"/>
    </g>
    <!--  a / (2b) = 0.25 -->
    <g transform="translate(714.834477 300.327273)scale(0.21 -0.21)">
     <use xlink:href="#DejaVuSans-20"/>
     <use xlink:href="#DejaVuSans-61" x="31.787109"/>
     <use xlink:href="#DejaVuSans-20" x="93.066406"/>
     <use xlink:href="#DejaVuSans-2f" x="124.853516"/>
     <use xlink:href="#DejaVuSans-20" x="158.544922"/>
     <use xlink:href="#DejaVuSans-28" x="190.332031"/>
     <use xlink:href="#DejaVuSans-32" x="229.345703"/>
     <use xlink:href="#DejaVuSans-62" x="292.96875"/>
     <use xlink:href="#DejaVuSans-29" x="356.445312"/>
     <use xlink:href="#DejaVuSans-20" x="395.458984"/>
     <use xlink:href="#DejaVuSans-3d" x="427.246094"/>
     <use xlink:href="#DejaVuSans-20" x="511.035156"/>
     <use xlink:href="#DejaVuSans-30" x="542.822266"/>
     <use xlink:href="#DejaVuSans-2e" x="606.445312"/>
     <use xlink:href="#DejaVuSans-32" x="638.232422"/>
     <use xlink:href="#DejaVuSans-35" x="701.855469"/>
    </g>
   </g>
  </g>
  <g id="axes_8">
   <g id="line2d_8">
    <path d="M 1014.212832 316.511031 
L 1019.735955 315.452411 
L 1025.421218 315.312397 
L 1031.107616 316.028204 
L 1036.707526 317.378251 
L 1042.016058 319.463176 
L 1047.13056 322.043024 
L 1051.996344 325.005546 
L 1056.35427 328.57479 
L 1060.515062 332.357248 
L 1064.533614 336.285278 
L 1068.305102 340.425321 
L 1071.823753 344.743807 
L 1075.227225 349.128536 
L 1078.649717 353.527043 
L 1082.006547 357.976079 
L 1085.363481 362.417288 
L 1088.469097 366.97279 
L 1091.542683 371.570511 
L 1094.397789 376.271377 
L 1097.119097 381.043759 
L 1099.837375 385.802331 
L 1102.354894 390.63369 
L 1104.708464 395.496293 
L 1106.747368 400.419092 
L 1108.71237 405.350423 
L 1110.500425 410.303954 
L 1112.141739 415.25583 
L 1113.566077 420.234491 
L 1114.570799 425.23672 
L 1115.111746 430.190988 
L 1115.334184 435.082775 
L 1115.111317 439.859771 
L 1114.551187 444.549419 
L 1113.764011 449.218596 
L 1112.735032 453.746893 
L 1111.50155 458.192403 
L 1109.935582 462.421923 
L 1108.119506 466.513353 
L 1105.910716 470.293339 
L 1103.468109 473.854953 
L 1100.733723 477.114356 
L 1097.865874 480.248443 
L 1094.921032 483.216498 
L 1091.821955 486.011133 
L 1088.621642 488.637673 
L 1085.271104 490.929256 
L 1081.727348 492.770734 
L 1077.984487 494.00832 
L 1074.14792 494.80204 
L 1070.265569 495.014876 
L 1066.392316 494.904304 
L 1062.554518 494.439768 
L 1058.798777 493.465758 
L 1055.172915 492.091255 
L 1051.67216 490.298173 
L 1048.288469 488.280166 
L 1045.031674 485.991818 
L 1041.802909 483.647424 
L 1038.602445 481.305799 
L 1035.376349 479.002501 
L 1032.301455 476.535305 
L 1029.20502 474.022968 
L 1026.143323 471.52434 
L 1023.125985 468.96748 
L 1020.16884 466.303337 
L 1017.328411 463.503 
L 1014.771811 460.377023 
L 1012.39949 457.064678 
L 1010.407565 453.417029 
L 1008.966593 449.378246 
L 1008.017068 445.038968 
L 1007.251148 440.603632 
L 1006.715875 436.021626 
L 1006.390838 431.405546 
L 1006.093166 426.728396 
L 1005.789699 422.050391 
L 1005.382405 417.390511 
L 1005.067083 412.680462 
L 1004.776902 407.977248 
L 1004.518725 403.254825 
L 1004.27883 398.543966 
L 1003.849042 393.84246 
L 1003.41292 389.195992 
L 1002.839772 384.560229 
L 1002.120745 379.973488 
L 1001.401653 375.428325 
L 1000.663885 370.901763 
L 999.957137 366.362256 
L 999.404608 361.810051 
L 999.11799 357.1956 
L 999.142892 352.517407 
L 999.617422 347.804521 
L 1000.489863 343.042707 
L 1001.713574 338.278631 
L 1003.151629 333.566947 
L 1004.973088 328.908174 
L 1007.292052 324.412494 
L 1010.352715 320.220427 
L 1014.212832 316.511031 
" clip-path="url(#p8cf1c1df83)" style="fill: none; stroke: #000000; stroke-width: 1.5; stroke-linecap: square"/>
   </g>
   <g id="text_8">
    <!-- Elastic (0.01, 0.5) -->
    <g transform="translate(964.681712 276.811866)scale(0.21 -0.21)">
     <use xlink:href="#DejaVuSans-45"/>
     <use xlink:href="#DejaVuSans-6c" x="63.183594"/>
     <use xlink:href="#DejaVuSans-61" x="90.966797"/>
     <use xlink:href="#DejaVuSans-73" x="152.246094"/>
     <use xlink:href="#DejaVuSans-74" x="204.345703"/>
     <use xlink:href="#DejaVuSans-69" x="243.554688"/>
     <use xlink:href="#DejaVuSans-63" x="271.337891"/>
     <use xlink:href="#DejaVuSans-20" x="326.318359"/>
     <use xlink:href="#DejaVuSans-28" x="358.105469"/>
     <use xlink:href="#DejaVuSans-30" x="397.119141"/>
     <use xlink:href="#DejaVuSans-2e" x="460.742188"/>
     <use xlink:href="#DejaVuSans-30" x="492.529297"/>
     <use xlink:href="#DejaVuSans-31" x="556.152344"/>
     <use xlink:href="#DejaVuSans-2c" x="619.775391"/>
     <use xlink:href="#DejaVuSans-20" x="651.5625"/>
     <use xlink:href="#DejaVuSans-30" x="683.349609"/>
     <use xlink:href="#DejaVuSans-2e" x="746.972656"/>
     <use xlink:href="#DejaVuSans-35" x="778.759766"/>
     <use xlink:href="#DejaVuSans-29" x="842.382812"/>
    </g>
    <!--  a / (2b) = 0.01 -->
    <g transform="translate(976.851868 300.327273)scale(0.21 -0.21)">
     <use xlink:href="#DejaVuSans-20"/>
     <use xlink:href="#DejaVuSans-61" x="31.787109"/>
     <use xlink:href="#DejaVuSans-20" x="93.066406"/>
     <use xlink:href="#DejaVuSans-2f" x="124.853516"/>
     <use xlink:href="#DejaVuSans-20" x="158.544922"/>
     <use xlink:href="#DejaVuSans-28" x="190.332031"/>
     <use xlink:href="#DejaVuSans-32" x="229.345703"/>
     <use xlink:href="#DejaVuSans-62" x="292.96875"/>
     <use xlink:href="#DejaVuSans-29" x="356.445312"/>
     <use xlink:href="#DejaVuSans-20" x="395.458984"/>
     <use xlink:href="#DejaVuSans-3d" x="427.246094"/>
     <use xlink:href="#DejaVuSans-20" x="511.035156"/>
     <use xlink:href="#DejaVuSans-30" x="542.822266"/>
     <use xlink:href="#DejaVuSans-2e" x="606.445312"/>
     <use xlink:href="#DejaVuSans-30" x="638.232422"/>
     <use xlink:href="#DejaVuSans-31" x="701.855469"/>
    </g>
   </g>
  </g>
 </g>
 <defs>
  <clipPath id="p39229c5db1">
   <rect x="210.912835" y="69.12" width="120.522156" height="197.672727"/>
  </clipPath>
  <clipPath id="p8f66be8402">
   <rect x="474.309432" y="69.12" width="117.763745" height="197.672727"/>
  </clipPath>
  <clipPath id="pfebdbd577d">
   <rect x="736.326823" y="69.12" width="117.763745" height="197.672727"/>
  </clipPath>
  <clipPath id="p3530b552f4">
   <rect x="998.344214" y="69.12" width="117.763745" height="197.672727"/>
  </clipPath>
  <clipPath id="pe82c33d6ef">
   <rect x="162" y="309.874632" width="218.347826" height="190.578009"/>
  </clipPath>
  <clipPath id="pd2172489ce">
   <rect x="488.594617" y="306.327273" width="89.193374" height="197.672727"/>
  </clipPath>
  <clipPath id="pf811e9dd3a">
   <rect x="728.847776" y="306.327273" width="132.72184" height="197.672727"/>
  </clipPath>
  <clipPath id="p8cf1c1df83">
   <rect x="993.307181" y="306.327273" width="127.837813" height="197.672727"/>
  </clipPath>
 </defs>
</svg>
