<?xml version="1.0" encoding="utf-8" standalone="no"?>
<!DOCTYPE svg PUBLIC "-//W3C//DTD SVG 1.1//EN"
  "http://www.w3.org/Graphics/SVG/1.1/DTD/svg11.dtd">
<svg xmlns:xlink="http://www.w3.org/1999/xlink" width="1296pt" height="144pt" viewBox="0 0 1296 144" xmlns="http://www.w3.org/2000/svg" version="1.1">
 <metadata>
  <rdf:RDF xmlns:dc="http://purl.org/dc/elements/1.1/" xmlns:cc="http://creativecommons.org/ns#" xmlns:rdf="http://www.w3.org/1999/02/22-rdf-syntax-ns#">
   <cc:Work>
    <dc:type rdf:resource="http://purl.org/dc/dcmitype/StillImage"/>
    <dc:date>2022-08-04T11:53:18.501848</dc:date>
    <dc:format>image/svg+xml</dc:format>
    <dc:creator>
     <cc:Agent>
      <dc:title>Matplotlib v3.5.1, https://matplotlib.org/</dc:title>
     </cc:Agent>
    </dc:creator>
   </cc:Work>
  </rdf:RDF>
 </metadata>
 <defs>
  <style type="text/css">*{stroke-linejoin: round; stroke-linecap: butt}</style>
 </defs>
 <g id="figure_1">
  <g id="patch_1">
   <path d="M 0 144 
L 1296 144 
L 1296 0 
L 0 0 
L 0 144 
z
" style="fill: none"/>
  </g>
  <g id="axes_1">
   <g id="patch_2">
    <path d="M 162 126 
L 380.347826 126 
L 380.347826 17.28 
L 162 17.28 
z
" style="fill: #ffffff"/>
   </g>
   <g id="patch_3">
    <path d="M 187.405554 126 
L 190.56054 126 
L 190.56054 125.867499 
L 187.405554 125.867499 
z
" clip-path="url(#pb10485546c)" style="fill: #1f77b4; opacity: 0.4"/>
   </g>
   <g id="patch_4">
    <path d="M 190.56054 126 
L 193.715527 126 
L 193.715527 124.542492 
L 190.56054 124.542492 
z
" clip-path="url(#pb10485546c)" style="fill: #1f77b4; opacity: 0.4"/>
   </g>
   <g id="patch_5">
    <path d="M 193.715527 126 
L 196.870513 126 
L 196.870513 121.627477 
L 193.715527 121.627477 
z
" clip-path="url(#pb10485546c)" style="fill: #1f77b4; opacity: 0.4"/>
   </g>
   <g id="patch_6">
    <path d="M 196.870513 126 
L 200.0255 126 
L 200.0255 116.062449 
L 196.870513 116.062449 
z
" clip-path="url(#pb10485546c)" style="fill: #1f77b4; opacity: 0.4"/>
   </g>
   <g id="patch_7">
    <path d="M 200.0255 126 
L 203.180486 126 
L 203.180486 109.437414 
L 200.0255 109.437414 
z
" clip-path="url(#pb10485546c)" style="fill: #1f77b4; opacity: 0.4"/>
   </g>
   <g id="patch_8">
    <path d="M 203.180486 126 
L 206.335472 126 
L 206.335472 103.739885 
L 203.180486 103.739885 
z
" clip-path="url(#pb10485546c)" style="fill: #1f77b4; opacity: 0.4"/>
   </g>
   <g id="patch_9">
    <path d="M 206.335472 126 
L 209.490459 126 
L 209.490459 98.96986 
L 206.335472 98.96986 
z
" clip-path="url(#pb10485546c)" style="fill: #1f77b4; opacity: 0.4"/>
   </g>
   <g id="patch_10">
    <path d="M 209.490459 126 
L 212.645445 126 
L 212.645445 98.572358 
L 209.490459 98.572358 
z
" clip-path="url(#pb10485546c)" style="fill: #1f77b4; opacity: 0.4"/>
   </g>
   <g id="patch_11">
    <path d="M 212.645445 126 
L 215.800431 126 
L 215.800431 101.487373 
L 212.645445 101.487373 
z
" clip-path="url(#pb10485546c)" style="fill: #1f77b4; opacity: 0.4"/>
   </g>
   <g id="patch_12">
    <path d="M 215.800431 126 
L 218.955418 126 
L 218.955418 105.594894 
L 215.800431 105.594894 
z
" clip-path="url(#pb10485546c)" style="fill: #1f77b4; opacity: 0.4"/>
   </g>
   <g id="patch_13">
    <path d="M 218.955418 126 
L 222.110404 126 
L 222.110404 112.352429 
L 218.955418 112.352429 
z
" clip-path="url(#pb10485546c)" style="fill: #1f77b4; opacity: 0.4"/>
   </g>
   <g id="patch_14">
    <path d="M 222.110404 126 
L 225.265391 126 
L 225.265391 115.267444 
L 222.110404 115.267444 
z
" clip-path="url(#pb10485546c)" style="fill: #1f77b4; opacity: 0.4"/>
   </g>
   <g id="patch_15">
    <path d="M 225.265391 126 
L 228.420377 126 
L 228.420377 118.049959 
L 225.265391 118.049959 
z
" clip-path="url(#pb10485546c)" style="fill: #1f77b4; opacity: 0.4"/>
   </g>
   <g id="patch_16">
    <path d="M 228.420377 126 
L 231.575363 126 
L 231.575363 120.037469 
L 228.420377 120.037469 
z
" clip-path="url(#pb10485546c)" style="fill: #1f77b4; opacity: 0.4"/>
   </g>
   <g id="patch_17">
    <path d="M 231.575363 126 
L 234.73035 126 
L 234.73035 122.819984 
L 231.575363 122.819984 
z
" clip-path="url(#pb10485546c)" style="fill: #1f77b4; opacity: 0.4"/>
   </g>
   <g id="patch_18">
    <path d="M 234.73035 126 
L 237.885336 126 
L 237.885336 123.879989 
L 234.73035 123.879989 
z
" clip-path="url(#pb10485546c)" style="fill: #1f77b4; opacity: 0.4"/>
   </g>
   <g id="patch_19">
    <path d="M 237.885336 126 
L 241.040322 126 
L 241.040322 125.204996 
L 237.885336 125.204996 
z
" clip-path="url(#pb10485546c)" style="fill: #1f77b4; opacity: 0.4"/>
   </g>
   <g id="patch_20">
    <path d="M 241.040322 126 
L 244.195309 126 
L 244.195309 124.939995 
L 241.040322 124.939995 
z
" clip-path="url(#pb10485546c)" style="fill: #1f77b4; opacity: 0.4"/>
   </g>
   <g id="patch_21">
    <path d="M 244.195309 126 
L 247.350295 126 
L 247.350295 125.204996 
L 244.195309 125.204996 
z
" clip-path="url(#pb10485546c)" style="fill: #1f77b4; opacity: 0.4"/>
   </g>
   <g id="patch_22">
    <path d="M 247.350295 126 
L 250.505282 126 
L 250.505282 125.734999 
L 247.350295 125.734999 
z
" clip-path="url(#pb10485546c)" style="fill: #1f77b4; opacity: 0.4"/>
   </g>
   <g id="patch_23">
    <path d="M 188.535287 126 
L 191.725862 126 
L 191.725862 124.990063 
L 188.535287 124.990063 
z
" clip-path="url(#pb10485546c)" style="fill: #ff7f0e; opacity: 0.4"/>
   </g>
   <g id="patch_24">
    <path d="M 191.725862 126 
L 194.916436 126 
L 194.916436 122.212737 
L 191.725862 122.212737 
z
" clip-path="url(#pb10485546c)" style="fill: #ff7f0e; opacity: 0.4"/>
   </g>
   <g id="patch_25">
    <path d="M 194.916436 126 
L 198.107011 126 
L 198.107011 116.237277 
L 194.916436 116.237277 
z
" clip-path="url(#pb10485546c)" style="fill: #ff7f0e; opacity: 0.4"/>
   </g>
   <g id="patch_26">
    <path d="M 198.107011 126 
L 201.297586 126 
L 201.297586 106.474553 
L 198.107011 106.474553 
z
" clip-path="url(#pb10485546c)" style="fill: #ff7f0e; opacity: 0.4"/>
   </g>
   <g id="patch_27">
    <path d="M 201.297586 126 
L 204.48816 126 
L 204.48816 101.677353 
L 201.297586 101.677353 
z
" clip-path="url(#pb10485546c)" style="fill: #ff7f0e; opacity: 0.4"/>
   </g>
   <g id="patch_28">
    <path d="M 204.48816 126 
L 207.678735 126 
L 207.678735 98.395058 
L 204.48816 98.395058 
z
" clip-path="url(#pb10485546c)" style="fill: #ff7f0e; opacity: 0.4"/>
   </g>
   <g id="patch_29">
    <path d="M 207.678735 126 
L 210.86931 126 
L 210.86931 98.984188 
L 207.678735 98.984188 
z
" clip-path="url(#pb10485546c)" style="fill: #ff7f0e; opacity: 0.4"/>
   </g>
   <g id="patch_30">
    <path d="M 210.86931 126 
L 214.059885 126 
L 214.059885 104.118034 
L 210.86931 104.118034 
z
" clip-path="url(#pb10485546c)" style="fill: #ff7f0e; opacity: 0.4"/>
   </g>
   <g id="patch_31">
    <path d="M 214.059885 126 
L 217.250459 126 
L 217.250459 107.989459 
L 214.059885 107.989459 
z
" clip-path="url(#pb10485546c)" style="fill: #ff7f0e; opacity: 0.4"/>
   </g>
   <g id="patch_32">
    <path d="M 217.250459 126 
L 220.441034 126 
L 220.441034 110.766785 
L 217.250459 110.766785 
z
" clip-path="url(#pb10485546c)" style="fill: #ff7f0e; opacity: 0.4"/>
   </g>
   <g id="patch_33">
    <path d="M 220.441034 126 
L 223.631609 126 
L 223.631609 116.489761 
L 220.441034 116.489761 
z
" clip-path="url(#pb10485546c)" style="fill: #ff7f0e; opacity: 0.4"/>
   </g>
   <g id="patch_34">
    <path d="M 223.631609 126 
L 226.822183 126 
L 226.822183 118.172989 
L 223.631609 118.172989 
z
" clip-path="url(#pb10485546c)" style="fill: #ff7f0e; opacity: 0.4"/>
   </g>
   <g id="patch_35">
    <path d="M 226.822183 126 
L 230.012758 126 
L 230.012758 120.950316 
L 226.822183 120.950316 
z
" clip-path="url(#pb10485546c)" style="fill: #ff7f0e; opacity: 0.4"/>
   </g>
   <g id="patch_36">
    <path d="M 230.012758 126 
L 233.203333 126 
L 233.203333 122.801867 
L 230.012758 122.801867 
z
" clip-path="url(#pb10485546c)" style="fill: #ff7f0e; opacity: 0.4"/>
   </g>
   <g id="patch_37">
    <path d="M 233.203333 126 
L 236.393908 126 
L 236.393908 123.980126 
L 233.203333 123.980126 
z
" clip-path="url(#pb10485546c)" style="fill: #ff7f0e; opacity: 0.4"/>
   </g>
   <g id="patch_38">
    <path d="M 236.393908 126 
L 239.584482 126 
L 239.584482 124.316772 
L 236.393908 124.316772 
z
" clip-path="url(#pb10485546c)" style="fill: #ff7f0e; opacity: 0.4"/>
   </g>
   <g id="patch_39">
    <path d="M 239.584482 126 
L 242.775057 126 
L 242.775057 125.663354 
L 239.584482 125.663354 
z
" clip-path="url(#pb10485546c)" style="fill: #ff7f0e; opacity: 0.4"/>
   </g>
   <g id="patch_40">
    <path d="M 242.775057 126 
L 245.965632 126 
L 245.965632 125.747516 
L 242.775057 125.747516 
z
" clip-path="url(#pb10485546c)" style="fill: #ff7f0e; opacity: 0.4"/>
   </g>
   <g id="patch_41">
    <path d="M 245.965632 126 
L 249.156206 126 
L 249.156206 125.831677 
L 245.965632 125.831677 
z
" clip-path="url(#pb10485546c)" style="fill: #ff7f0e; opacity: 0.4"/>
   </g>
   <g id="patch_42">
    <path d="M 249.156206 126 
L 252.346781 126 
L 252.346781 125.831677 
L 249.156206 125.831677 
z
" clip-path="url(#pb10485546c)" style="fill: #ff7f0e; opacity: 0.4"/>
   </g>
   <g id="matplotlib.axis_1">
    <g id="xtick_1">
     <g id="line2d_1">
      <defs>
       <path id="m2a6ab09734" d="M 0 0 
L 0 3.5 
" style="stroke: #000000; stroke-width: 0.8"/>
      </defs>
      <g>
       <use xlink:href="#m2a6ab09734" x="171.924901" y="126" style="stroke: #000000; stroke-width: 0.8"/>
      </g>
     </g>
     <g id="text_1">
      <!-- 0.0 -->
      <g transform="translate(157.612089 146.677188)scale(0.18 -0.18)">
       <defs>
        <path id="DejaVuSans-30" d="M 2034 4250 
Q 1547 4250 1301 3770 
Q 1056 3291 1056 2328 
Q 1056 1369 1301 889 
Q 1547 409 2034 409 
Q 2525 409 2770 889 
Q 3016 1369 3016 2328 
Q 3016 3291 2770 3770 
Q 2525 4250 2034 4250 
z
M 2034 4750 
Q 2819 4750 3233 4129 
Q 3647 3509 3647 2328 
Q 3647 1150 3233 529 
Q 2819 -91 2034 -91 
Q 1250 -91 836 529 
Q 422 1150 422 2328 
Q 422 3509 836 4129 
Q 1250 4750 2034 4750 
z
" transform="scale(0.015625)"/>
        <path id="DejaVuSans-2e" d="M 684 794 
L 1344 794 
L 1344 0 
L 684 0 
L 684 794 
z
" transform="scale(0.015625)"/>
       </defs>
       <use xlink:href="#DejaVuSans-30"/>
       <use xlink:href="#DejaVuSans-2e" x="63.623047"/>
       <use xlink:href="#DejaVuSans-30" x="95.410156"/>
      </g>
     </g>
    </g>
    <g id="xtick_2">
     <g id="line2d_2">
      <g>
       <use xlink:href="#m2a6ab09734" x="271.173913" y="126" style="stroke: #000000; stroke-width: 0.8"/>
      </g>
     </g>
     <g id="text_2">
      <!-- 0.5 -->
      <g transform="translate(256.861101 146.677188)scale(0.18 -0.18)">
       <defs>
        <path id="DejaVuSans-35" d="M 691 4666 
L 3169 4666 
L 3169 4134 
L 1269 4134 
L 1269 2991 
Q 1406 3038 1543 3061 
Q 1681 3084 1819 3084 
Q 2600 3084 3056 2656 
Q 3513 2228 3513 1497 
Q 3513 744 3044 326 
Q 2575 -91 1722 -91 
Q 1428 -91 1123 -41 
Q 819 9 494 109 
L 494 744 
Q 775 591 1075 516 
Q 1375 441 1709 441 
Q 2250 441 2565 725 
Q 2881 1009 2881 1497 
Q 2881 1984 2565 2268 
Q 2250 2553 1709 2553 
Q 1456 2553 1204 2497 
Q 953 2441 691 2322 
L 691 4666 
z
" transform="scale(0.015625)"/>
       </defs>
       <use xlink:href="#DejaVuSans-30"/>
       <use xlink:href="#DejaVuSans-2e" x="63.623047"/>
       <use xlink:href="#DejaVuSans-35" x="95.410156"/>
      </g>
     </g>
    </g>
    <g id="xtick_3">
     <g id="line2d_3">
      <g>
       <use xlink:href="#m2a6ab09734" x="370.422925" y="126" style="stroke: #000000; stroke-width: 0.8"/>
      </g>
     </g>
     <g id="text_3">
      <!-- 1.0 -->
      <g transform="translate(356.110112 146.677188)scale(0.18 -0.18)">
       <defs>
        <path id="DejaVuSans-31" d="M 794 531 
L 1825 531 
L 1825 4091 
L 703 3866 
L 703 4441 
L 1819 4666 
L 2450 4666 
L 2450 531 
L 3481 531 
L 3481 0 
L 794 0 
L 794 531 
z
" transform="scale(0.015625)"/>
       </defs>
       <use xlink:href="#DejaVuSans-31"/>
       <use xlink:href="#DejaVuSans-2e" x="63.623047"/>
       <use xlink:href="#DejaVuSans-30" x="95.410156"/>
      </g>
     </g>
    </g>
   </g>
   <g id="matplotlib.axis_2">
    <g id="ytick_1">
     <g id="line2d_4">
      <defs>
       <path id="m06bea16410" d="M 0 0 
L -3.5 0 
" style="stroke: #000000; stroke-width: 0.8"/>
      </defs>
      <g>
       <use xlink:href="#m06bea16410" x="162" y="126" style="stroke: #000000; stroke-width: 0.8"/>
      </g>
     </g>
     <g id="text_4">
      <!-- 0 -->
      <g transform="translate(143.5475 132.838594)scale(0.18 -0.18)">
       <use xlink:href="#DejaVuSans-30"/>
      </g>
     </g>
    </g>
    <g id="ytick_2">
     <g id="line2d_5">
      <g>
       <use xlink:href="#m06bea16410" x="162" y="62.230164" style="stroke: #000000; stroke-width: 0.8"/>
      </g>
     </g>
     <g id="text_5">
      <!-- 20 -->
      <g transform="translate(132.095 69.068758)scale(0.18 -0.18)">
       <defs>
        <path id="DejaVuSans-32" d="M 1228 531 
L 3431 531 
L 3431 0 
L 469 0 
L 469 531 
Q 828 903 1448 1529 
Q 2069 2156 2228 2338 
Q 2531 2678 2651 2914 
Q 2772 3150 2772 3378 
Q 2772 3750 2511 3984 
Q 2250 4219 1831 4219 
Q 1534 4219 1204 4116 
Q 875 4013 500 3803 
L 500 4441 
Q 881 4594 1212 4672 
Q 1544 4750 1819 4750 
Q 2544 4750 2975 4387 
Q 3406 4025 3406 3419 
Q 3406 3131 3298 2873 
Q 3191 2616 2906 2266 
Q 2828 2175 2409 1742 
Q 1991 1309 1228 531 
z
" transform="scale(0.015625)"/>
       </defs>
       <use xlink:href="#DejaVuSans-32"/>
       <use xlink:href="#DejaVuSans-30" x="63.623047"/>
      </g>
     </g>
    </g>
   </g>
   <g id="line2d_6">
    <path d="M 171.924901 126 
L 173.929932 126 
L 175.934962 126 
L 177.939993 125.999988 
L 179.945023 125.999675 
L 181.950054 125.995875 
L 183.955084 125.974769 
L 185.960115 125.912897 
L 187.965146 125.753397 
L 189.970176 125.312568 
L 191.975207 124.365812 
L 193.980237 122.665225 
L 195.985268 120.016071 
L 197.990298 116.656648 
L 199.995329 112.9647 
L 202.000359 109.160866 
L 204.00539 105.320726 
L 206.01042 101.927642 
L 208.015451 99.791503 
L 210.020481 99.136915 
L 212.025512 99.807642 
L 214.030543 101.682493 
L 216.035573 104.139229 
L 218.040604 106.885225 
L 220.045634 110.251647 
L 222.050665 113.539222 
L 224.055695 115.848737 
L 226.060726 117.414849 
L 228.065756 118.851638 
L 230.070787 120.28161 
L 232.075817 121.625141 
L 234.080848 122.821674 
L 236.085879 123.838478 
L 238.090909 124.580064 
L 240.09594 124.914957 
L 242.10097 124.990892 
L 244.106001 125.09982 
L 246.111031 125.380594 
L 248.116062 125.679517 
L 250.121092 125.846571 
L 252.126123 125.929333 
L 254.131153 125.978354 
L 256.136184 125.996606 
L 258.141215 125.99975 
L 260.146245 125.999991 
L 262.151276 126 
L 264.156306 126 
L 266.161337 126 
L 268.166367 126 
L 270.171398 126 
L 272.176428 126 
L 274.181459 126 
L 276.186489 126 
L 278.19152 126 
L 280.19655 126 
L 282.201581 126 
L 284.206612 126 
L 286.211642 126 
L 288.216673 126 
L 290.221703 126 
L 292.226734 126 
L 294.231764 126 
L 296.236795 126 
L 298.241825 126 
L 300.246856 126 
L 302.251886 126 
L 304.256917 126 
L 306.261948 126 
L 308.266978 126 
L 310.272009 126 
L 312.277039 126 
L 314.28207 126 
L 316.2871 126 
L 318.292131 126 
L 320.297161 126 
L 322.302192 126 
L 324.307222 126 
L 326.312253 126 
L 328.317284 126 
L 330.322314 126 
L 332.327345 126 
L 334.332375 126 
L 336.337406 126 
L 338.342436 126 
L 340.347467 126 
L 342.352497 126 
L 344.357528 126 
L 346.362558 126 
L 348.367589 126 
L 350.372619 126 
L 352.37765 126 
L 354.382681 126 
L 356.387711 126 
L 358.392742 126 
L 360.397772 126 
L 362.402803 126 
L 364.407833 126 
L 366.412864 126 
L 368.417894 126 
L 370.422925 126 
" clip-path="url(#pb10485546c)" style="fill: none; stroke: #1f77b4; stroke-width: 1.5; stroke-linecap: square"/>
   </g>
   <g id="line2d_7">
    <path d="M 171.924901 126 
L 173.929932 126 
L 175.934962 126 
L 177.939993 126 
L 179.945023 125.999987 
L 181.950054 125.999451 
L 183.955084 125.990383 
L 185.960115 125.921088 
L 187.965146 125.638955 
L 189.970176 124.852918 
L 191.975207 123.158571 
L 193.980237 120.41162 
L 195.985268 116.66631 
L 197.990298 111.861216 
L 199.995329 106.63532 
L 202.000359 102.696439 
L 204.00539 100.440877 
L 206.01042 99.035513 
L 208.015451 99.219419 
L 210.020481 101.017431 
L 212.025512 103.428167 
L 214.030543 106.008858 
L 216.035573 108.08484 
L 218.040604 110.244127 
L 220.045634 113.024902 
L 222.050665 115.729013 
L 224.055695 117.684775 
L 226.060726 119.151011 
L 228.065756 120.626151 
L 230.070787 121.893646 
L 232.075817 122.912439 
L 234.080848 123.652278 
L 236.085879 124.133182 
L 238.090909 124.546302 
L 240.09594 125.0637 
L 242.10097 125.545886 
L 244.106001 125.748883 
L 246.111031 125.811432 
L 248.116062 125.841563 
L 250.121092 125.85455 
L 252.126123 125.880736 
L 254.131153 125.941716 
L 256.136184 125.986932 
L 258.141215 125.998773 
L 260.146245 125.999953 
L 262.151276 125.999999 
L 264.156306 126 
L 266.161337 126 
L 268.166367 126 
L 270.171398 126 
L 272.176428 126 
L 274.181459 126 
L 276.186489 126 
L 278.19152 126 
L 280.19655 126 
L 282.201581 126 
L 284.206612 126 
L 286.211642 126 
L 288.216673 126 
L 290.221703 126 
L 292.226734 126 
L 294.231764 126 
L 296.236795 126 
L 298.241825 126 
L 300.246856 126 
L 302.251886 126 
L 304.256917 126 
L 306.261948 126 
L 308.266978 126 
L 310.272009 126 
L 312.277039 126 
L 314.28207 126 
L 316.2871 126 
L 318.292131 126 
L 320.297161 126 
L 322.302192 126 
L 324.307222 126 
L 326.312253 126 
L 328.317284 126 
L 330.322314 126 
L 332.327345 126 
L 334.332375 126 
L 336.337406 126 
L 338.342436 126 
L 340.347467 126 
L 342.352497 126 
L 344.357528 126 
L 346.362558 126 
L 348.367589 126 
L 350.372619 126 
L 352.37765 126 
L 354.382681 126 
L 356.387711 126 
L 358.392742 126 
L 360.397772 126 
L 362.402803 126 
L 364.407833 126 
L 366.412864 126 
L 368.417894 126 
L 370.422925 126 
" clip-path="url(#pb10485546c)" style="fill: none; stroke: #ff7f0e; stroke-width: 1.5; stroke-linecap: square"/>
   </g>
   <g id="patch_43">
    <path d="M 162 126 
L 162 17.28 
" style="fill: none; stroke: #000000; stroke-width: 0.8; stroke-linejoin: miter; stroke-linecap: square"/>
   </g>
   <g id="patch_44">
    <path d="M 380.347826 126 
L 380.347826 17.28 
" style="fill: none; stroke: #000000; stroke-width: 0.8; stroke-linejoin: miter; stroke-linecap: square"/>
   </g>
   <g id="patch_45">
    <path d="M 162 126 
L 380.347826 126 
" style="fill: none; stroke: #000000; stroke-width: 0.8; stroke-linejoin: miter; stroke-linecap: square"/>
   </g>
   <g id="patch_46">
    <path d="M 162 17.28 
L 380.347826 17.28 
" style="fill: none; stroke: #000000; stroke-width: 0.8; stroke-linejoin: miter; stroke-linecap: square"/>
   </g>
   <g id="text_6">
    <!-- Distances to -->
    <g transform="translate(205.914772 -59.266219)scale(0.21 -0.21)">
     <defs>
      <path id="DejaVuSans-44" d="M 1259 4147 
L 1259 519 
L 2022 519 
Q 2988 519 3436 956 
Q 3884 1394 3884 2338 
Q 3884 3275 3436 3711 
Q 2988 4147 2022 4147 
L 1259 4147 
z
M 628 4666 
L 1925 4666 
Q 3281 4666 3915 4102 
Q 4550 3538 4550 2338 
Q 4550 1131 3912 565 
Q 3275 0 1925 0 
L 628 0 
L 628 4666 
z
" transform="scale(0.015625)"/>
      <path id="DejaVuSans-69" d="M 603 3500 
L 1178 3500 
L 1178 0 
L 603 0 
L 603 3500 
z
M 603 4863 
L 1178 4863 
L 1178 4134 
L 603 4134 
L 603 4863 
z
" transform="scale(0.015625)"/>
      <path id="DejaVuSans-73" d="M 2834 3397 
L 2834 2853 
Q 2591 2978 2328 3040 
Q 2066 3103 1784 3103 
Q 1356 3103 1142 2972 
Q 928 2841 928 2578 
Q 928 2378 1081 2264 
Q 1234 2150 1697 2047 
L 1894 2003 
Q 2506 1872 2764 1633 
Q 3022 1394 3022 966 
Q 3022 478 2636 193 
Q 2250 -91 1575 -91 
Q 1294 -91 989 -36 
Q 684 19 347 128 
L 347 722 
Q 666 556 975 473 
Q 1284 391 1588 391 
Q 1994 391 2212 530 
Q 2431 669 2431 922 
Q 2431 1156 2273 1281 
Q 2116 1406 1581 1522 
L 1381 1569 
Q 847 1681 609 1914 
Q 372 2147 372 2553 
Q 372 3047 722 3315 
Q 1072 3584 1716 3584 
Q 2034 3584 2315 3537 
Q 2597 3491 2834 3397 
z
" transform="scale(0.015625)"/>
      <path id="DejaVuSans-74" d="M 1172 4494 
L 1172 3500 
L 2356 3500 
L 2356 3053 
L 1172 3053 
L 1172 1153 
Q 1172 725 1289 603 
Q 1406 481 1766 481 
L 2356 481 
L 2356 0 
L 1766 0 
Q 1100 0 847 248 
Q 594 497 594 1153 
L 594 3053 
L 172 3053 
L 172 3500 
L 594 3500 
L 594 4494 
L 1172 4494 
z
" transform="scale(0.015625)"/>
      <path id="DejaVuSans-61" d="M 2194 1759 
Q 1497 1759 1228 1600 
Q 959 1441 959 1056 
Q 959 750 1161 570 
Q 1363 391 1709 391 
Q 2188 391 2477 730 
Q 2766 1069 2766 1631 
L 2766 1759 
L 2194 1759 
z
M 3341 1997 
L 3341 0 
L 2766 0 
L 2766 531 
Q 2569 213 2275 61 
Q 1981 -91 1556 -91 
Q 1019 -91 701 211 
Q 384 513 384 1019 
Q 384 1609 779 1909 
Q 1175 2209 1959 2209 
L 2766 2209 
L 2766 2266 
Q 2766 2663 2505 2880 
Q 2244 3097 1772 3097 
Q 1472 3097 1187 3025 
Q 903 2953 641 2809 
L 641 3341 
Q 956 3463 1253 3523 
Q 1550 3584 1831 3584 
Q 2591 3584 2966 3190 
Q 3341 2797 3341 1997 
z
" transform="scale(0.015625)"/>
      <path id="DejaVuSans-6e" d="M 3513 2113 
L 3513 0 
L 2938 0 
L 2938 2094 
Q 2938 2591 2744 2837 
Q 2550 3084 2163 3084 
Q 1697 3084 1428 2787 
Q 1159 2491 1159 1978 
L 1159 0 
L 581 0 
L 581 3500 
L 1159 3500 
L 1159 2956 
Q 1366 3272 1645 3428 
Q 1925 3584 2291 3584 
Q 2894 3584 3203 3211 
Q 3513 2838 3513 2113 
z
" transform="scale(0.015625)"/>
      <path id="DejaVuSans-63" d="M 3122 3366 
L 3122 2828 
Q 2878 2963 2633 3030 
Q 2388 3097 2138 3097 
Q 1578 3097 1268 2742 
Q 959 2388 959 1747 
Q 959 1106 1268 751 
Q 1578 397 2138 397 
Q 2388 397 2633 464 
Q 2878 531 3122 666 
L 3122 134 
Q 2881 22 2623 -34 
Q 2366 -91 2075 -91 
Q 1284 -91 818 406 
Q 353 903 353 1747 
Q 353 2603 823 3093 
Q 1294 3584 2113 3584 
Q 2378 3584 2631 3529 
Q 2884 3475 3122 3366 
z
" transform="scale(0.015625)"/>
      <path id="DejaVuSans-65" d="M 3597 1894 
L 3597 1613 
L 953 1613 
Q 991 1019 1311 708 
Q 1631 397 2203 397 
Q 2534 397 2845 478 
Q 3156 559 3463 722 
L 3463 178 
Q 3153 47 2828 -22 
Q 2503 -91 2169 -91 
Q 1331 -91 842 396 
Q 353 884 353 1716 
Q 353 2575 817 3079 
Q 1281 3584 2069 3584 
Q 2775 3584 3186 3129 
Q 3597 2675 3597 1894 
z
M 3022 2063 
Q 3016 2534 2758 2815 
Q 2500 3097 2075 3097 
Q 1594 3097 1305 2825 
Q 1016 2553 972 2059 
L 3022 2063 
z
" transform="scale(0.015625)"/>
      <path id="DejaVuSans-20" transform="scale(0.015625)"/>
      <path id="DejaVuSans-6f" d="M 1959 3097 
Q 1497 3097 1228 2736 
Q 959 2375 959 1747 
Q 959 1119 1226 758 
Q 1494 397 1959 397 
Q 2419 397 2687 759 
Q 2956 1122 2956 1747 
Q 2956 2369 2687 2733 
Q 2419 3097 1959 3097 
z
M 1959 3584 
Q 2709 3584 3137 3096 
Q 3566 2609 3566 1747 
Q 3566 888 3137 398 
Q 2709 -91 1959 -91 
Q 1206 -91 779 398 
Q 353 888 353 1747 
Q 353 2609 779 3096 
Q 1206 3584 1959 3584 
z
" transform="scale(0.015625)"/>
     </defs>
     <use xlink:href="#DejaVuSans-44"/>
     <use xlink:href="#DejaVuSans-69" x="77.001953"/>
     <use xlink:href="#DejaVuSans-73" x="104.785156"/>
     <use xlink:href="#DejaVuSans-74" x="156.884766"/>
     <use xlink:href="#DejaVuSans-61" x="196.09375"/>
     <use xlink:href="#DejaVuSans-6e" x="257.373047"/>
     <use xlink:href="#DejaVuSans-63" x="320.751953"/>
     <use xlink:href="#DejaVuSans-65" x="375.732422"/>
     <use xlink:href="#DejaVuSans-73" x="437.255859"/>
     <use xlink:href="#DejaVuSans-20" x="489.355469"/>
     <use xlink:href="#DejaVuSans-74" x="521.142578"/>
     <use xlink:href="#DejaVuSans-6f" x="560.351562"/>
    </g>
    <!--  Elastic(0.75, 0.5) mean -->
    <g transform="translate(145.515163 -35.750812)scale(0.21 -0.21)">
     <defs>
      <path id="DejaVuSans-45" d="M 628 4666 
L 3578 4666 
L 3578 4134 
L 1259 4134 
L 1259 2753 
L 3481 2753 
L 3481 2222 
L 1259 2222 
L 1259 531 
L 3634 531 
L 3634 0 
L 628 0 
L 628 4666 
z
" transform="scale(0.015625)"/>
      <path id="DejaVuSans-6c" d="M 603 4863 
L 1178 4863 
L 1178 0 
L 603 0 
L 603 4863 
z
" transform="scale(0.015625)"/>
      <path id="DejaVuSans-28" d="M 1984 4856 
Q 1566 4138 1362 3434 
Q 1159 2731 1159 2009 
Q 1159 1288 1364 580 
Q 1569 -128 1984 -844 
L 1484 -844 
Q 1016 -109 783 600 
Q 550 1309 550 2009 
Q 550 2706 781 3412 
Q 1013 4119 1484 4856 
L 1984 4856 
z
" transform="scale(0.015625)"/>
      <path id="DejaVuSans-37" d="M 525 4666 
L 3525 4666 
L 3525 4397 
L 1831 0 
L 1172 0 
L 2766 4134 
L 525 4134 
L 525 4666 
z
" transform="scale(0.015625)"/>
      <path id="DejaVuSans-2c" d="M 750 794 
L 1409 794 
L 1409 256 
L 897 -744 
L 494 -744 
L 750 256 
L 750 794 
z
" transform="scale(0.015625)"/>
      <path id="DejaVuSans-29" d="M 513 4856 
L 1013 4856 
Q 1481 4119 1714 3412 
Q 1947 2706 1947 2009 
Q 1947 1309 1714 600 
Q 1481 -109 1013 -844 
L 513 -844 
Q 928 -128 1133 580 
Q 1338 1288 1338 2009 
Q 1338 2731 1133 3434 
Q 928 4138 513 4856 
z
" transform="scale(0.015625)"/>
      <path id="DejaVuSans-6d" d="M 3328 2828 
Q 3544 3216 3844 3400 
Q 4144 3584 4550 3584 
Q 5097 3584 5394 3201 
Q 5691 2819 5691 2113 
L 5691 0 
L 5113 0 
L 5113 2094 
Q 5113 2597 4934 2840 
Q 4756 3084 4391 3084 
Q 3944 3084 3684 2787 
Q 3425 2491 3425 1978 
L 3425 0 
L 2847 0 
L 2847 2094 
Q 2847 2600 2669 2842 
Q 2491 3084 2119 3084 
Q 1678 3084 1418 2786 
Q 1159 2488 1159 1978 
L 1159 0 
L 581 0 
L 581 3500 
L 1159 3500 
L 1159 2956 
Q 1356 3278 1631 3431 
Q 1906 3584 2284 3584 
Q 2666 3584 2933 3390 
Q 3200 3197 3328 2828 
z
" transform="scale(0.015625)"/>
     </defs>
     <use xlink:href="#DejaVuSans-20"/>
     <use xlink:href="#DejaVuSans-45" x="31.787109"/>
     <use xlink:href="#DejaVuSans-6c" x="94.970703"/>
     <use xlink:href="#DejaVuSans-61" x="122.753906"/>
     <use xlink:href="#DejaVuSans-73" x="184.033203"/>
     <use xlink:href="#DejaVuSans-74" x="236.132812"/>
     <use xlink:href="#DejaVuSans-69" x="275.341797"/>
     <use xlink:href="#DejaVuSans-63" x="303.125"/>
     <use xlink:href="#DejaVuSans-28" x="358.105469"/>
     <use xlink:href="#DejaVuSans-30" x="397.119141"/>
     <use xlink:href="#DejaVuSans-2e" x="460.742188"/>
     <use xlink:href="#DejaVuSans-37" x="492.529297"/>
     <use xlink:href="#DejaVuSans-35" x="556.152344"/>
     <use xlink:href="#DejaVuSans-2c" x="619.775391"/>
     <use xlink:href="#DejaVuSans-20" x="651.5625"/>
     <use xlink:href="#DejaVuSans-30" x="683.349609"/>
     <use xlink:href="#DejaVuSans-2e" x="746.972656"/>
     <use xlink:href="#DejaVuSans-35" x="778.759766"/>
     <use xlink:href="#DejaVuSans-29" x="842.382812"/>
     <use xlink:href="#DejaVuSans-20" x="881.396484"/>
     <use xlink:href="#DejaVuSans-6d" x="913.183594"/>
     <use xlink:href="#DejaVuSans-65" x="1010.595703"/>
     <use xlink:href="#DejaVuSans-61" x="1072.119141"/>
     <use xlink:href="#DejaVuSans-6e" x="1133.398438"/>
    </g>
    <!--  colored by surfaces -->
    <g transform="translate(165.260085 -12.235406)scale(0.21 -0.21)">
     <defs>
      <path id="DejaVuSans-72" d="M 2631 2963 
Q 2534 3019 2420 3045 
Q 2306 3072 2169 3072 
Q 1681 3072 1420 2755 
Q 1159 2438 1159 1844 
L 1159 0 
L 581 0 
L 581 3500 
L 1159 3500 
L 1159 2956 
Q 1341 3275 1631 3429 
Q 1922 3584 2338 3584 
Q 2397 3584 2469 3576 
Q 2541 3569 2628 3553 
L 2631 2963 
z
" transform="scale(0.015625)"/>
      <path id="DejaVuSans-64" d="M 2906 2969 
L 2906 4863 
L 3481 4863 
L 3481 0 
L 2906 0 
L 2906 525 
Q 2725 213 2448 61 
Q 2172 -91 1784 -91 
Q 1150 -91 751 415 
Q 353 922 353 1747 
Q 353 2572 751 3078 
Q 1150 3584 1784 3584 
Q 2172 3584 2448 3432 
Q 2725 3281 2906 2969 
z
M 947 1747 
Q 947 1113 1208 752 
Q 1469 391 1925 391 
Q 2381 391 2643 752 
Q 2906 1113 2906 1747 
Q 2906 2381 2643 2742 
Q 2381 3103 1925 3103 
Q 1469 3103 1208 2742 
Q 947 2381 947 1747 
z
" transform="scale(0.015625)"/>
      <path id="DejaVuSans-62" d="M 3116 1747 
Q 3116 2381 2855 2742 
Q 2594 3103 2138 3103 
Q 1681 3103 1420 2742 
Q 1159 2381 1159 1747 
Q 1159 1113 1420 752 
Q 1681 391 2138 391 
Q 2594 391 2855 752 
Q 3116 1113 3116 1747 
z
M 1159 2969 
Q 1341 3281 1617 3432 
Q 1894 3584 2278 3584 
Q 2916 3584 3314 3078 
Q 3713 2572 3713 1747 
Q 3713 922 3314 415 
Q 2916 -91 2278 -91 
Q 1894 -91 1617 61 
Q 1341 213 1159 525 
L 1159 0 
L 581 0 
L 581 4863 
L 1159 4863 
L 1159 2969 
z
" transform="scale(0.015625)"/>
      <path id="DejaVuSans-79" d="M 2059 -325 
Q 1816 -950 1584 -1140 
Q 1353 -1331 966 -1331 
L 506 -1331 
L 506 -850 
L 844 -850 
Q 1081 -850 1212 -737 
Q 1344 -625 1503 -206 
L 1606 56 
L 191 3500 
L 800 3500 
L 1894 763 
L 2988 3500 
L 3597 3500 
L 2059 -325 
z
" transform="scale(0.015625)"/>
      <path id="DejaVuSans-75" d="M 544 1381 
L 544 3500 
L 1119 3500 
L 1119 1403 
Q 1119 906 1312 657 
Q 1506 409 1894 409 
Q 2359 409 2629 706 
Q 2900 1003 2900 1516 
L 2900 3500 
L 3475 3500 
L 3475 0 
L 2900 0 
L 2900 538 
Q 2691 219 2414 64 
Q 2138 -91 1772 -91 
Q 1169 -91 856 284 
Q 544 659 544 1381 
z
M 1991 3584 
L 1991 3584 
z
" transform="scale(0.015625)"/>
      <path id="DejaVuSans-66" d="M 2375 4863 
L 2375 4384 
L 1825 4384 
Q 1516 4384 1395 4259 
Q 1275 4134 1275 3809 
L 1275 3500 
L 2222 3500 
L 2222 3053 
L 1275 3053 
L 1275 0 
L 697 0 
L 697 3053 
L 147 3053 
L 147 3500 
L 697 3500 
L 697 3744 
Q 697 4328 969 4595 
Q 1241 4863 1831 4863 
L 2375 4863 
z
" transform="scale(0.015625)"/>
     </defs>
     <use xlink:href="#DejaVuSans-20"/>
     <use xlink:href="#DejaVuSans-63" x="31.787109"/>
     <use xlink:href="#DejaVuSans-6f" x="86.767578"/>
     <use xlink:href="#DejaVuSans-6c" x="147.949219"/>
     <use xlink:href="#DejaVuSans-6f" x="175.732422"/>
     <use xlink:href="#DejaVuSans-72" x="236.914062"/>
     <use xlink:href="#DejaVuSans-65" x="275.777344"/>
     <use xlink:href="#DejaVuSans-64" x="337.300781"/>
     <use xlink:href="#DejaVuSans-20" x="400.777344"/>
     <use xlink:href="#DejaVuSans-62" x="432.564453"/>
     <use xlink:href="#DejaVuSans-79" x="496.041016"/>
     <use xlink:href="#DejaVuSans-20" x="555.220703"/>
     <use xlink:href="#DejaVuSans-73" x="587.007812"/>
     <use xlink:href="#DejaVuSans-75" x="639.107422"/>
     <use xlink:href="#DejaVuSans-72" x="702.486328"/>
     <use xlink:href="#DejaVuSans-66" x="743.599609"/>
     <use xlink:href="#DejaVuSans-61" x="778.804688"/>
     <use xlink:href="#DejaVuSans-63" x="840.083984"/>
     <use xlink:href="#DejaVuSans-65" x="895.064453"/>
     <use xlink:href="#DejaVuSans-73" x="956.587891"/>
    </g>
    <!--  -->
    <g transform="translate(271.173913 11.28)scale(0.21 -0.21)"/>
   </g>
   <g id="legend_1">
    <g id="patch_47">
     <path d="M 270.342514 84.52125 
L 367.747826 84.52125 
Q 371.347826 84.52125 371.347826 80.92125 
L 371.347826 29.88 
Q 371.347826 26.28 367.747826 26.28 
L 270.342514 26.28 
Q 266.742514 26.28 266.742514 29.88 
L 266.742514 80.92125 
Q 266.742514 84.52125 270.342514 84.52125 
z
" style="fill: #ffffff; opacity: 0.8; stroke: #cccccc; stroke-linejoin: miter"/>
    </g>
    <g id="patch_48">
     <path d="M 273.942514 47.157187 
L 309.942514 47.157187 
L 309.942514 34.557187 
L 273.942514 34.557187 
z
" style="fill: #1f77b4; opacity: 0.4"/>
    </g>
    <g id="text_7">
     <!-- FN -->
     <g transform="translate(324.342514 47.157187)scale(0.18 -0.18)">
      <defs>
       <path id="DejaVuSans-46" d="M 628 4666 
L 3309 4666 
L 3309 4134 
L 1259 4134 
L 1259 2759 
L 3109 2759 
L 3109 2228 
L 1259 2228 
L 1259 0 
L 628 0 
L 628 4666 
z
" transform="scale(0.015625)"/>
       <path id="DejaVuSans-4e" d="M 628 4666 
L 1478 4666 
L 3547 763 
L 3547 4666 
L 4159 4666 
L 4159 0 
L 3309 0 
L 1241 3903 
L 1241 0 
L 628 0 
L 628 4666 
z
" transform="scale(0.015625)"/>
      </defs>
      <use xlink:href="#DejaVuSans-46"/>
      <use xlink:href="#DejaVuSans-4e" x="57.519531"/>
     </g>
    </g>
    <g id="patch_49">
     <path d="M 273.942514 73.577812 
L 309.942514 73.577812 
L 309.942514 60.977812 
L 273.942514 60.977812 
z
" style="fill: #ff7f0e; opacity: 0.4"/>
    </g>
    <g id="text_8">
     <!-- GDA -->
     <g transform="translate(324.342514 73.577812)scale(0.18 -0.18)">
      <defs>
       <path id="DejaVuSans-47" d="M 3809 666 
L 3809 1919 
L 2778 1919 
L 2778 2438 
L 4434 2438 
L 4434 434 
Q 4069 175 3628 42 
Q 3188 -91 2688 -91 
Q 1594 -91 976 548 
Q 359 1188 359 2328 
Q 359 3472 976 4111 
Q 1594 4750 2688 4750 
Q 3144 4750 3555 4637 
Q 3966 4525 4313 4306 
L 4313 3634 
Q 3963 3931 3569 4081 
Q 3175 4231 2741 4231 
Q 1884 4231 1454 3753 
Q 1025 3275 1025 2328 
Q 1025 1384 1454 906 
Q 1884 428 2741 428 
Q 3075 428 3337 486 
Q 3600 544 3809 666 
z
" transform="scale(0.015625)"/>
       <path id="DejaVuSans-41" d="M 2188 4044 
L 1331 1722 
L 3047 1722 
L 2188 4044 
z
M 1831 4666 
L 2547 4666 
L 4325 0 
L 3669 0 
L 3244 1197 
L 1141 1197 
L 716 0 
L 50 0 
L 1831 4666 
z
" transform="scale(0.015625)"/>
      </defs>
      <use xlink:href="#DejaVuSans-47"/>
      <use xlink:href="#DejaVuSans-44" x="77.490234"/>
      <use xlink:href="#DejaVuSans-41" x="152.742188"/>
     </g>
    </g>
   </g>
  </g>
  <g id="axes_2">
   <g id="patch_50">
    <path d="M 424.017391 126 
L 642.365217 126 
L 642.365217 17.28 
L 424.017391 17.28 
z
" style="fill: #ffffff"/>
   </g>
   <g id="patch_51">
    <path d="M 457.896202 126 
L 460.161882 126 
L 460.161882 125.446474 
L 457.896202 125.446474 
z
" clip-path="url(#p303cb9d461)" style="fill: #1f77b4; opacity: 0.4"/>
   </g>
   <g id="patch_52">
    <path d="M 460.161882 126 
L 462.427562 126 
L 462.427562 125.261965 
L 460.161882 125.261965 
z
" clip-path="url(#p303cb9d461)" style="fill: #1f77b4; opacity: 0.4"/>
   </g>
   <g id="patch_53">
    <path d="M 462.427562 126 
L 464.693243 126 
L 464.693243 123.970404 
L 462.427562 123.970404 
z
" clip-path="url(#p303cb9d461)" style="fill: #1f77b4; opacity: 0.4"/>
   </g>
   <g id="patch_54">
    <path d="M 464.693243 126 
L 466.958923 126 
L 466.958923 123.04786 
L 464.693243 123.04786 
z
" clip-path="url(#p303cb9d461)" style="fill: #1f77b4; opacity: 0.4"/>
   </g>
   <g id="patch_55">
    <path d="M 466.958923 126 
L 469.224603 126 
L 469.224603 119.357684 
L 466.958923 119.357684 
z
" clip-path="url(#p303cb9d461)" style="fill: #1f77b4; opacity: 0.4"/>
   </g>
   <g id="patch_56">
    <path d="M 469.224603 126 
L 471.490283 126 
L 471.490283 115.298491 
L 469.224603 115.298491 
z
" clip-path="url(#p303cb9d461)" style="fill: #1f77b4; opacity: 0.4"/>
   </g>
   <g id="patch_57">
    <path d="M 471.490283 126 
L 473.755963 126 
L 473.755963 102.382877 
L 471.490283 102.382877 
z
" clip-path="url(#p303cb9d461)" style="fill: #1f77b4; opacity: 0.4"/>
   </g>
   <g id="patch_58">
    <path d="M 473.755963 126 
L 476.021643 126 
L 476.021643 94.264491 
L 473.755963 94.264491 
z
" clip-path="url(#p303cb9d461)" style="fill: #1f77b4; opacity: 0.4"/>
   </g>
   <g id="patch_59">
    <path d="M 476.021643 126 
L 478.287324 126 
L 478.287324 89.467263 
L 476.021643 89.467263 
z
" clip-path="url(#p303cb9d461)" style="fill: #1f77b4; opacity: 0.4"/>
   </g>
   <g id="patch_60">
    <path d="M 478.287324 126 
L 480.553004 126 
L 480.553004 84.485527 
L 478.287324 84.485527 
z
" clip-path="url(#p303cb9d461)" style="fill: #1f77b4; opacity: 0.4"/>
   </g>
   <g id="patch_61">
    <path d="M 480.553004 126 
L 482.818684 126 
L 482.818684 88.913737 
L 480.553004 88.913737 
z
" clip-path="url(#p303cb9d461)" style="fill: #1f77b4; opacity: 0.4"/>
   </g>
   <g id="patch_62">
    <path d="M 482.818684 126 
L 485.084364 126 
L 485.084364 95.187035 
L 482.818684 95.187035 
z
" clip-path="url(#p303cb9d461)" style="fill: #1f77b4; opacity: 0.4"/>
   </g>
   <g id="patch_63">
    <path d="M 485.084364 126 
L 487.350044 126 
L 487.350044 104.227965 
L 485.084364 104.227965 
z
" clip-path="url(#p303cb9d461)" style="fill: #1f77b4; opacity: 0.4"/>
   </g>
   <g id="patch_64">
    <path d="M 487.350044 126 
L 489.615724 126 
L 489.615724 110.501263 
L 487.350044 110.501263 
z
" clip-path="url(#p303cb9d461)" style="fill: #1f77b4; opacity: 0.4"/>
   </g>
   <g id="patch_65">
    <path d="M 489.615724 126 
L 491.881405 126 
L 491.881405 116.221035 
L 489.615724 116.221035 
z
" clip-path="url(#p303cb9d461)" style="fill: #1f77b4; opacity: 0.4"/>
   </g>
   <g id="patch_66">
    <path d="M 491.881405 126 
L 494.147085 126 
L 494.147085 121.940807 
L 491.881405 121.940807 
z
" clip-path="url(#p303cb9d461)" style="fill: #1f77b4; opacity: 0.4"/>
   </g>
   <g id="patch_67">
    <path d="M 494.147085 126 
L 496.412765 126 
L 496.412765 124.154912 
L 494.147085 124.154912 
z
" clip-path="url(#p303cb9d461)" style="fill: #1f77b4; opacity: 0.4"/>
   </g>
   <g id="patch_68">
    <path d="M 496.412765 126 
L 498.678445 126 
L 498.678445 125.446474 
L 496.412765 125.446474 
z
" clip-path="url(#p303cb9d461)" style="fill: #1f77b4; opacity: 0.4"/>
   </g>
   <g id="patch_69">
    <path d="M 498.678445 126 
L 500.944125 126 
L 500.944125 125.446474 
L 498.678445 125.446474 
z
" clip-path="url(#p303cb9d461)" style="fill: #1f77b4; opacity: 0.4"/>
   </g>
   <g id="patch_70">
    <path d="M 500.944125 126 
L 503.209805 126 
L 503.209805 125.630982 
L 500.944125 125.630982 
z
" clip-path="url(#p303cb9d461)" style="fill: #1f77b4; opacity: 0.4"/>
   </g>
   <g id="patch_71">
    <path d="M 458.774101 126 
L 461.12358 126 
L 461.12358 125.428547 
L 458.774101 125.428547 
z
" clip-path="url(#p303cb9d461)" style="fill: #ff7f0e; opacity: 0.4"/>
   </g>
   <g id="patch_72">
    <path d="M 461.12358 126 
L 463.473058 126 
L 463.473058 124.171351 
L 461.12358 124.171351 
z
" clip-path="url(#p303cb9d461)" style="fill: #ff7f0e; opacity: 0.4"/>
   </g>
   <g id="patch_73">
    <path d="M 463.473058 126 
L 465.822537 126 
L 465.822537 121.885539 
L 463.473058 121.885539 
z
" clip-path="url(#p303cb9d461)" style="fill: #ff7f0e; opacity: 0.4"/>
   </g>
   <g id="patch_74">
    <path d="M 465.822537 126 
L 468.172015 126 
L 468.172015 115.828138 
L 465.822537 115.828138 
z
" clip-path="url(#p303cb9d461)" style="fill: #ff7f0e; opacity: 0.4"/>
   </g>
   <g id="patch_75">
    <path d="M 468.172015 126 
L 470.521494 126 
L 470.521494 102.570431 
L 468.172015 102.570431 
z
" clip-path="url(#p303cb9d461)" style="fill: #ff7f0e; opacity: 0.4"/>
   </g>
   <g id="patch_76">
    <path d="M 470.521494 126 
L 472.870972 126 
L 472.870972 92.284279 
L 470.521494 92.284279 
z
" clip-path="url(#p303cb9d461)" style="fill: #ff7f0e; opacity: 0.4"/>
   </g>
   <g id="patch_77">
    <path d="M 472.870972 126 
L 475.220451 126 
L 475.220451 81.769545 
L 472.870972 81.769545 
z
" clip-path="url(#p303cb9d461)" style="fill: #ff7f0e; opacity: 0.4"/>
   </g>
   <g id="patch_78">
    <path d="M 475.220451 126 
L 477.569929 126 
L 477.569929 84.055357 
L 475.220451 84.055357 
z
" clip-path="url(#p303cb9d461)" style="fill: #ff7f0e; opacity: 0.4"/>
   </g>
   <g id="patch_79">
    <path d="M 477.569929 126 
L 479.919408 126 
L 479.919408 91.484245 
L 477.569929 91.484245 
z
" clip-path="url(#p303cb9d461)" style="fill: #ff7f0e; opacity: 0.4"/>
   </g>
   <g id="patch_80">
    <path d="M 479.919408 126 
L 482.268886 126 
L 482.268886 97.998808 
L 479.919408 97.998808 
z
" clip-path="url(#p303cb9d461)" style="fill: #ff7f0e; opacity: 0.4"/>
   </g>
   <g id="patch_81">
    <path d="M 482.268886 126 
L 484.618364 126 
L 484.618364 106.799182 
L 482.268886 106.799182 
z
" clip-path="url(#p303cb9d461)" style="fill: #ff7f0e; opacity: 0.4"/>
   </g>
   <g id="patch_82">
    <path d="M 484.618364 126 
L 486.967843 126 
L 486.967843 115.142395 
L 484.618364 115.142395 
z
" clip-path="url(#p303cb9d461)" style="fill: #ff7f0e; opacity: 0.4"/>
   </g>
   <g id="patch_83">
    <path d="M 486.967843 126 
L 489.317321 126 
L 489.317321 118.228241 
L 486.967843 118.228241 
z
" clip-path="url(#p303cb9d461)" style="fill: #ff7f0e; opacity: 0.4"/>
   </g>
   <g id="patch_84">
    <path d="M 489.317321 126 
L 491.6668 126 
L 491.6668 121.99983 
L 489.317321 121.99983 
z
" clip-path="url(#p303cb9d461)" style="fill: #ff7f0e; opacity: 0.4"/>
   </g>
   <g id="patch_85">
    <path d="M 491.6668 126 
L 494.016278 126 
L 494.016278 122.914154 
L 491.6668 122.914154 
z
" clip-path="url(#p303cb9d461)" style="fill: #ff7f0e; opacity: 0.4"/>
   </g>
   <g id="patch_86">
    <path d="M 494.016278 126 
L 496.365757 126 
L 496.365757 125.085675 
L 494.016278 125.085675 
z
" clip-path="url(#p303cb9d461)" style="fill: #ff7f0e; opacity: 0.4"/>
   </g>
   <g id="patch_87">
    <path d="M 496.365757 126 
L 498.715235 126 
L 498.715235 125.428547 
L 496.365757 125.428547 
z
" clip-path="url(#p303cb9d461)" style="fill: #ff7f0e; opacity: 0.4"/>
   </g>
   <g id="patch_88">
    <path d="M 498.715235 126 
L 501.064714 126 
L 501.064714 125.885709 
L 498.715235 125.885709 
z
" clip-path="url(#p303cb9d461)" style="fill: #ff7f0e; opacity: 0.4"/>
   </g>
   <g id="patch_89">
    <path d="M 501.064714 126 
L 503.414192 126 
L 503.414192 125.885709 
L 501.064714 125.885709 
z
" clip-path="url(#p303cb9d461)" style="fill: #ff7f0e; opacity: 0.4"/>
   </g>
   <g id="patch_90">
    <path d="M 503.414192 126 
L 505.763671 126 
L 505.763671 125.771419 
L 503.414192 125.771419 
z
" clip-path="url(#p303cb9d461)" style="fill: #ff7f0e; opacity: 0.4"/>
   </g>
   <g id="matplotlib.axis_3">
    <g id="xtick_4">
     <g id="line2d_8">
      <g>
       <use xlink:href="#m2a6ab09734" x="433.942292" y="126" style="stroke: #000000; stroke-width: 0.8"/>
      </g>
     </g>
     <g id="text_9">
      <!-- 0.0 -->
      <g transform="translate(419.62948 146.677188)scale(0.18 -0.18)">
       <use xlink:href="#DejaVuSans-30"/>
       <use xlink:href="#DejaVuSans-2e" x="63.623047"/>
       <use xlink:href="#DejaVuSans-30" x="95.410156"/>
      </g>
     </g>
    </g>
    <g id="xtick_5">
     <g id="line2d_9">
      <g>
       <use xlink:href="#m2a6ab09734" x="533.191304" y="126" style="stroke: #000000; stroke-width: 0.8"/>
      </g>
     </g>
     <g id="text_10">
      <!-- 0.5 -->
      <g transform="translate(518.878492 146.677188)scale(0.18 -0.18)">
       <use xlink:href="#DejaVuSans-30"/>
       <use xlink:href="#DejaVuSans-2e" x="63.623047"/>
       <use xlink:href="#DejaVuSans-35" x="95.410156"/>
      </g>
     </g>
    </g>
    <g id="xtick_6">
     <g id="line2d_10">
      <g>
       <use xlink:href="#m2a6ab09734" x="632.440316" y="126" style="stroke: #000000; stroke-width: 0.8"/>
      </g>
     </g>
     <g id="text_11">
      <!-- 1.0 -->
      <g transform="translate(618.127504 146.677188)scale(0.18 -0.18)">
       <use xlink:href="#DejaVuSans-31"/>
       <use xlink:href="#DejaVuSans-2e" x="63.623047"/>
       <use xlink:href="#DejaVuSans-30" x="95.410156"/>
      </g>
     </g>
    </g>
   </g>
   <g id="matplotlib.axis_4">
    <g id="ytick_3">
     <g id="line2d_11">
      <g>
       <use xlink:href="#m06bea16410" x="424.017391" y="126" style="stroke: #000000; stroke-width: 0.8"/>
      </g>
     </g>
    </g>
    <g id="ytick_4">
     <g id="line2d_12">
      <g>
       <use xlink:href="#m06bea16410" x="424.017391" y="62.230164" style="stroke: #000000; stroke-width: 0.8"/>
      </g>
     </g>
    </g>
   </g>
   <g id="line2d_13">
    <path d="M 433.942292 126 
L 435.947323 126 
L 437.952354 126 
L 439.957384 126 
L 441.962415 126 
L 443.967445 126 
L 445.972476 126 
L 447.977506 126 
L 449.982537 126 
L 451.987567 125.999964 
L 453.992598 125.996582 
L 455.997628 125.942865 
L 458.002659 125.733822 
L 460.00769 125.321344 
L 462.01272 124.747937 
L 464.017751 123.929518 
L 466.022781 122.177444 
L 468.027812 119.480387 
L 470.032842 114.830824 
L 472.037873 106.08296 
L 474.042903 98.214181 
L 476.047934 91.74669 
L 478.052964 88.023632 
L 480.057995 85.821443 
L 482.063026 90.16764 
L 484.068056 96.098124 
L 486.073087 102.73592 
L 488.078117 109.484408 
L 490.083148 114.716746 
L 492.088178 119.322489 
L 494.093209 122.811731 
L 496.098239 124.555588 
L 498.10327 125.380231 
L 500.1083 125.568639 
L 502.113331 125.661272 
L 504.118361 125.813787 
L 506.123392 125.973776 
L 508.128423 125.999378 
L 510.133453 125.999998 
L 512.138484 126 
L 514.143514 126 
L 516.148545 126 
L 518.153575 126 
L 520.158606 126 
L 522.163636 126 
L 524.168667 126 
L 526.173697 126 
L 528.178728 126 
L 530.183759 126 
L 532.188789 126 
L 534.19382 126 
L 536.19885 126 
L 538.203881 126 
L 540.208911 126 
L 542.213942 126 
L 544.218972 126 
L 546.224003 126 
L 548.229033 126 
L 550.234064 126 
L 552.239095 126 
L 554.244125 126 
L 556.249156 126 
L 558.254186 126 
L 560.259217 126 
L 562.264247 126 
L 564.269278 126 
L 566.274308 126 
L 568.279339 126 
L 570.284369 126 
L 572.2894 126 
L 574.29443 126 
L 576.299461 126 
L 578.304492 126 
L 580.309522 126 
L 582.314553 126 
L 584.319583 126 
L 586.324614 126 
L 588.329644 126 
L 590.334675 126 
L 592.339705 126 
L 594.344736 126 
L 596.349766 126 
L 598.354797 126 
L 600.359828 126 
L 602.364858 126 
L 604.369889 126 
L 606.374919 126 
L 608.37995 126 
L 610.38498 126 
L 612.390011 126 
L 614.395041 126 
L 616.400072 126 
L 618.405102 126 
L 620.410133 126 
L 622.415163 126 
L 624.420194 126 
L 626.425225 126 
L 628.430255 126 
L 630.435286 126 
L 632.440316 126 
" clip-path="url(#p303cb9d461)" style="fill: none; stroke: #1f77b4; stroke-width: 1.5; stroke-linecap: square"/>
   </g>
   <g id="line2d_14">
    <path d="M 433.942292 126 
L 435.947323 126 
L 437.952354 126 
L 439.957384 126 
L 441.962415 126 
L 443.967445 126 
L 445.972476 126 
L 447.977506 126 
L 449.982537 126 
L 451.987567 126 
L 453.992598 125.99989 
L 455.997628 125.990486 
L 458.002659 125.878118 
L 460.00769 125.369449 
L 462.01272 124.251175 
L 464.017751 122.581061 
L 466.022781 118.600832 
L 468.027812 109.590169 
L 470.032842 99.519919 
L 472.037873 90.184961 
L 474.042903 83.79021 
L 476.047934 84.46396 
L 478.052964 89.998192 
L 480.057995 94.686215 
L 482.063026 101.638607 
L 484.068056 108.679837 
L 486.073087 114.731261 
L 488.078117 118.324114 
L 490.083148 121.098162 
L 492.088178 122.805813 
L 494.093209 124.09114 
L 496.098239 125.127214 
L 498.10327 125.546478 
L 500.1083 125.801368 
L 502.113331 125.874233 
L 504.118361 125.883444 
L 506.123392 125.854592 
L 508.128423 125.976086 
L 510.133453 125.999587 
L 512.138484 125.999999 
L 514.143514 126 
L 516.148545 126 
L 518.153575 126 
L 520.158606 126 
L 522.163636 126 
L 524.168667 126 
L 526.173697 126 
L 528.178728 126 
L 530.183759 126 
L 532.188789 126 
L 534.19382 126 
L 536.19885 126 
L 538.203881 126 
L 540.208911 126 
L 542.213942 126 
L 544.218972 126 
L 546.224003 126 
L 548.229033 126 
L 550.234064 126 
L 552.239095 126 
L 554.244125 126 
L 556.249156 126 
L 558.254186 126 
L 560.259217 126 
L 562.264247 126 
L 564.269278 126 
L 566.274308 126 
L 568.279339 126 
L 570.284369 126 
L 572.2894 126 
L 574.29443 126 
L 576.299461 126 
L 578.304492 126 
L 580.309522 126 
L 582.314553 126 
L 584.319583 126 
L 586.324614 126 
L 588.329644 126 
L 590.334675 126 
L 592.339705 126 
L 594.344736 126 
L 596.349766 126 
L 598.354797 126 
L 600.359828 126 
L 602.364858 126 
L 604.369889 126 
L 606.374919 126 
L 608.37995 126 
L 610.38498 126 
L 612.390011 126 
L 614.395041 126 
L 616.400072 126 
L 618.405102 126 
L 620.410133 126 
L 622.415163 126 
L 624.420194 126 
L 626.425225 126 
L 628.430255 126 
L 630.435286 126 
L 632.440316 126 
" clip-path="url(#p303cb9d461)" style="fill: none; stroke: #ff7f0e; stroke-width: 1.5; stroke-linecap: square"/>
   </g>
   <g id="patch_91">
    <path d="M 424.017391 126 
L 424.017391 17.28 
" style="fill: none; stroke: #000000; stroke-width: 0.8; stroke-linejoin: miter; stroke-linecap: square"/>
   </g>
   <g id="patch_92">
    <path d="M 642.365217 126 
L 642.365217 17.28 
" style="fill: none; stroke: #000000; stroke-width: 0.8; stroke-linejoin: miter; stroke-linecap: square"/>
   </g>
   <g id="patch_93">
    <path d="M 424.017391 126 
L 642.365217 126 
" style="fill: none; stroke: #000000; stroke-width: 0.8; stroke-linejoin: miter; stroke-linecap: square"/>
   </g>
   <g id="patch_94">
    <path d="M 424.017391 17.28 
L 642.365217 17.28 
" style="fill: none; stroke: #000000; stroke-width: 0.8; stroke-linejoin: miter; stroke-linecap: square"/>
   </g>
   <g id="text_12">
    <!-- Distances to -->
    <g transform="translate(467.932164 -59.266219)scale(0.21 -0.21)">
     <use xlink:href="#DejaVuSans-44"/>
     <use xlink:href="#DejaVuSans-69" x="77.001953"/>
     <use xlink:href="#DejaVuSans-73" x="104.785156"/>
     <use xlink:href="#DejaVuSans-74" x="156.884766"/>
     <use xlink:href="#DejaVuSans-61" x="196.09375"/>
     <use xlink:href="#DejaVuSans-6e" x="257.373047"/>
     <use xlink:href="#DejaVuSans-63" x="320.751953"/>
     <use xlink:href="#DejaVuSans-65" x="375.732422"/>
     <use xlink:href="#DejaVuSans-73" x="437.255859"/>
     <use xlink:href="#DejaVuSans-20" x="489.355469"/>
     <use xlink:href="#DejaVuSans-74" x="521.142578"/>
     <use xlink:href="#DejaVuSans-6f" x="560.351562"/>
    </g>
    <!--  Elastic(0.5, 0.5) mean -->
    <g transform="translate(414.213179 -35.750812)scale(0.21 -0.21)">
     <use xlink:href="#DejaVuSans-20"/>
     <use xlink:href="#DejaVuSans-45" x="31.787109"/>
     <use xlink:href="#DejaVuSans-6c" x="94.970703"/>
     <use xlink:href="#DejaVuSans-61" x="122.753906"/>
     <use xlink:href="#DejaVuSans-73" x="184.033203"/>
     <use xlink:href="#DejaVuSans-74" x="236.132812"/>
     <use xlink:href="#DejaVuSans-69" x="275.341797"/>
     <use xlink:href="#DejaVuSans-63" x="303.125"/>
     <use xlink:href="#DejaVuSans-28" x="358.105469"/>
     <use xlink:href="#DejaVuSans-30" x="397.119141"/>
     <use xlink:href="#DejaVuSans-2e" x="460.742188"/>
     <use xlink:href="#DejaVuSans-35" x="492.529297"/>
     <use xlink:href="#DejaVuSans-2c" x="556.152344"/>
     <use xlink:href="#DejaVuSans-20" x="587.939453"/>
     <use xlink:href="#DejaVuSans-30" x="619.726562"/>
     <use xlink:href="#DejaVuSans-2e" x="683.349609"/>
     <use xlink:href="#DejaVuSans-35" x="715.136719"/>
     <use xlink:href="#DejaVuSans-29" x="778.759766"/>
     <use xlink:href="#DejaVuSans-20" x="817.773438"/>
     <use xlink:href="#DejaVuSans-6d" x="849.560547"/>
     <use xlink:href="#DejaVuSans-65" x="946.972656"/>
     <use xlink:href="#DejaVuSans-61" x="1008.496094"/>
     <use xlink:href="#DejaVuSans-6e" x="1069.775391"/>
    </g>
    <!--  colored by surfaces -->
    <g transform="translate(427.277476 -12.235406)scale(0.21 -0.21)">
     <use xlink:href="#DejaVuSans-20"/>
     <use xlink:href="#DejaVuSans-63" x="31.787109"/>
     <use xlink:href="#DejaVuSans-6f" x="86.767578"/>
     <use xlink:href="#DejaVuSans-6c" x="147.949219"/>
     <use xlink:href="#DejaVuSans-6f" x="175.732422"/>
     <use xlink:href="#DejaVuSans-72" x="236.914062"/>
     <use xlink:href="#DejaVuSans-65" x="275.777344"/>
     <use xlink:href="#DejaVuSans-64" x="337.300781"/>
     <use xlink:href="#DejaVuSans-20" x="400.777344"/>
     <use xlink:href="#DejaVuSans-62" x="432.564453"/>
     <use xlink:href="#DejaVuSans-79" x="496.041016"/>
     <use xlink:href="#DejaVuSans-20" x="555.220703"/>
     <use xlink:href="#DejaVuSans-73" x="587.007812"/>
     <use xlink:href="#DejaVuSans-75" x="639.107422"/>
     <use xlink:href="#DejaVuSans-72" x="702.486328"/>
     <use xlink:href="#DejaVuSans-66" x="743.599609"/>
     <use xlink:href="#DejaVuSans-61" x="778.804688"/>
     <use xlink:href="#DejaVuSans-63" x="840.083984"/>
     <use xlink:href="#DejaVuSans-65" x="895.064453"/>
     <use xlink:href="#DejaVuSans-73" x="956.587891"/>
    </g>
    <!--  -->
    <g transform="translate(533.191304 11.28)scale(0.21 -0.21)"/>
   </g>
   <g id="legend_2">
    <g id="patch_95">
     <path d="M 532.359905 84.52125 
L 629.765217 84.52125 
Q 633.365217 84.52125 633.365217 80.92125 
L 633.365217 29.88 
Q 633.365217 26.28 629.765217 26.28 
L 532.359905 26.28 
Q 528.759905 26.28 528.759905 29.88 
L 528.759905 80.92125 
Q 528.759905 84.52125 532.359905 84.52125 
z
" style="fill: #ffffff; opacity: 0.8; stroke: #cccccc; stroke-linejoin: miter"/>
    </g>
    <g id="patch_96">
     <path d="M 535.959905 47.157187 
L 571.959905 47.157187 
L 571.959905 34.557187 
L 535.959905 34.557187 
z
" style="fill: #1f77b4; opacity: 0.4"/>
    </g>
    <g id="text_13">
     <!-- FN -->
     <g transform="translate(586.359905 47.157187)scale(0.18 -0.18)">
      <use xlink:href="#DejaVuSans-46"/>
      <use xlink:href="#DejaVuSans-4e" x="57.519531"/>
     </g>
    </g>
    <g id="patch_97">
     <path d="M 535.959905 73.577812 
L 571.959905 73.577812 
L 571.959905 60.977812 
L 535.959905 60.977812 
z
" style="fill: #ff7f0e; opacity: 0.4"/>
    </g>
    <g id="text_14">
     <!-- GDA -->
     <g transform="translate(586.359905 73.577812)scale(0.18 -0.18)">
      <use xlink:href="#DejaVuSans-47"/>
      <use xlink:href="#DejaVuSans-44" x="77.490234"/>
      <use xlink:href="#DejaVuSans-41" x="152.742188"/>
     </g>
    </g>
   </g>
  </g>
  <g id="axes_3">
   <g id="patch_98">
    <path d="M 686.034783 126 
L 904.382609 126 
L 904.382609 17.28 
L 686.034783 17.28 
z
" style="fill: #ffffff"/>
   </g>
   <g id="patch_99">
    <path d="M 713.257101 126 
L 715.161054 126 
L 715.161054 125.121747 
L 713.257101 125.121747 
z
" clip-path="url(#p5ab8e1d20f)" style="fill: #1f77b4; opacity: 0.4"/>
   </g>
   <g id="patch_100">
    <path d="M 715.161054 126 
L 717.065006 126 
L 717.065006 123.145678 
L 715.161054 123.145678 
z
" clip-path="url(#p5ab8e1d20f)" style="fill: #1f77b4; opacity: 0.4"/>
   </g>
   <g id="patch_101">
    <path d="M 717.065006 126 
L 718.968958 126 
L 718.968958 120.950046 
L 717.065006 120.950046 
z
" clip-path="url(#p5ab8e1d20f)" style="fill: #1f77b4; opacity: 0.4"/>
   </g>
   <g id="patch_102">
    <path d="M 718.968958 126 
L 720.87291 126 
L 720.87291 113.70446 
L 718.968958 113.70446 
z
" clip-path="url(#p5ab8e1d20f)" style="fill: #1f77b4; opacity: 0.4"/>
   </g>
   <g id="patch_103">
    <path d="M 720.87291 126 
L 722.776862 126 
L 722.776862 104.263242 
L 720.87291 104.263242 
z
" clip-path="url(#p5ab8e1d20f)" style="fill: #1f77b4; opacity: 0.4"/>
   </g>
   <g id="patch_104">
    <path d="M 722.776862 126 
L 724.680814 126 
L 724.680814 93.285081 
L 722.776862 93.285081 
z
" clip-path="url(#p5ab8e1d20f)" style="fill: #1f77b4; opacity: 0.4"/>
   </g>
   <g id="patch_105">
    <path d="M 724.680814 126 
L 726.584767 126 
L 726.584767 87.796001 
L 724.680814 87.796001 
z
" clip-path="url(#p5ab8e1d20f)" style="fill: #1f77b4; opacity: 0.4"/>
   </g>
   <g id="patch_106">
    <path d="M 726.584767 126 
L 728.488719 126 
L 728.488719 81.428667 
L 726.584767 81.428667 
z
" clip-path="url(#p5ab8e1d20f)" style="fill: #1f77b4; opacity: 0.4"/>
   </g>
   <g id="patch_107">
    <path d="M 728.488719 126 
L 730.392671 126 
L 730.392671 82.746047 
L 728.488719 82.746047 
z
" clip-path="url(#p5ab8e1d20f)" style="fill: #1f77b4; opacity: 0.4"/>
   </g>
   <g id="patch_108">
    <path d="M 730.392671 126 
L 732.296623 126 
L 732.296623 83.185173 
L 730.392671 83.185173 
z
" clip-path="url(#p5ab8e1d20f)" style="fill: #1f77b4; opacity: 0.4"/>
   </g>
   <g id="patch_109">
    <path d="M 732.296623 126 
L 734.200575 126 
L 734.200575 95.26115 
L 732.296623 95.26115 
z
" clip-path="url(#p5ab8e1d20f)" style="fill: #1f77b4; opacity: 0.4"/>
   </g>
   <g id="patch_110">
    <path d="M 734.200575 126 
L 736.104528 126 
L 736.104528 105.800184 
L 734.200575 105.800184 
z
" clip-path="url(#p5ab8e1d20f)" style="fill: #1f77b4; opacity: 0.4"/>
   </g>
   <g id="patch_111">
    <path d="M 736.104528 126 
L 738.00848 126 
L 738.00848 106.458874 
L 736.104528 106.458874 
z
" clip-path="url(#p5ab8e1d20f)" style="fill: #1f77b4; opacity: 0.4"/>
   </g>
   <g id="patch_112">
    <path d="M 738.00848 126 
L 739.912432 126 
L 739.912432 115.680529 
L 738.00848 115.680529 
z
" clip-path="url(#p5ab8e1d20f)" style="fill: #1f77b4; opacity: 0.4"/>
   </g>
   <g id="patch_113">
    <path d="M 739.912432 126 
L 741.816384 126 
L 741.816384 122.486989 
L 739.912432 122.486989 
z
" clip-path="url(#p5ab8e1d20f)" style="fill: #1f77b4; opacity: 0.4"/>
   </g>
   <g id="patch_114">
    <path d="M 741.816384 126 
L 743.720336 126 
L 743.720336 124.902184 
L 741.816384 124.902184 
z
" clip-path="url(#p5ab8e1d20f)" style="fill: #1f77b4; opacity: 0.4"/>
   </g>
   <g id="patch_115">
    <path d="M 743.720336 126 
L 745.624288 126 
L 745.624288 124.243494 
L 743.720336 124.243494 
z
" clip-path="url(#p5ab8e1d20f)" style="fill: #1f77b4; opacity: 0.4"/>
   </g>
   <g id="patch_116">
    <path d="M 745.624288 126 
L 747.528241 126 
L 747.528241 125.780437 
L 745.624288 125.780437 
z
" clip-path="url(#p5ab8e1d20f)" style="fill: #1f77b4; opacity: 0.4"/>
   </g>
   <g id="patch_117">
    <path d="M 747.528241 126 
L 749.432193 126 
L 749.432193 125.780437 
L 747.528241 125.780437 
z
" clip-path="url(#p5ab8e1d20f)" style="fill: #1f77b4; opacity: 0.4"/>
   </g>
   <g id="patch_118">
    <path d="M 749.432193 126 
L 751.336145 126 
L 751.336145 125.560874 
L 749.432193 125.560874 
z
" clip-path="url(#p5ab8e1d20f)" style="fill: #1f77b4; opacity: 0.4"/>
   </g>
   <g id="patch_119">
    <path d="M 712.501325 126 
L 714.52059 126 
L 714.52059 125.202116 
L 712.501325 125.202116 
z
" clip-path="url(#p5ab8e1d20f)" style="fill: #ff7f0e; opacity: 0.4"/>
   </g>
   <g id="patch_120">
    <path d="M 714.52059 126 
L 716.539855 126 
L 716.539855 122.808463 
L 714.52059 122.808463 
z
" clip-path="url(#p5ab8e1d20f)" style="fill: #ff7f0e; opacity: 0.4"/>
   </g>
   <g id="patch_121">
    <path d="M 716.539855 126 
L 718.55912 126 
L 718.55912 114.696641 
L 716.539855 114.696641 
z
" clip-path="url(#p5ab8e1d20f)" style="fill: #ff7f0e; opacity: 0.4"/>
   </g>
   <g id="patch_122">
    <path d="M 718.55912 126 
L 720.578385 126 
L 720.578385 102.994339 
L 718.55912 102.994339 
z
" clip-path="url(#p5ab8e1d20f)" style="fill: #ff7f0e; opacity: 0.4"/>
   </g>
   <g id="patch_123">
    <path d="M 720.578385 126 
L 722.59765 126 
L 722.59765 93.552709 
L 720.578385 93.552709 
z
" clip-path="url(#p5ab8e1d20f)" style="fill: #ff7f0e; opacity: 0.4"/>
   </g>
   <g id="patch_124">
    <path d="M 722.59765 126 
L 724.616915 126 
L 724.616915 80.38762 
L 722.59765 80.38762 
z
" clip-path="url(#p5ab8e1d20f)" style="fill: #ff7f0e; opacity: 0.4"/>
   </g>
   <g id="patch_125">
    <path d="M 724.616915 126 
L 726.63618 126 
L 726.63618 76.53118 
L 724.616915 76.53118 
z
" clip-path="url(#p5ab8e1d20f)" style="fill: #ff7f0e; opacity: 0.4"/>
   </g>
   <g id="patch_126">
    <path d="M 726.63618 126 
L 728.655445 126 
L 728.655445 77.063102 
L 726.63618 77.063102 
z
" clip-path="url(#p5ab8e1d20f)" style="fill: #ff7f0e; opacity: 0.4"/>
   </g>
   <g id="patch_127">
    <path d="M 728.655445 126 
L 730.674709 126 
L 730.674709 91.557999 
L 728.655445 91.557999 
z
" clip-path="url(#p5ab8e1d20f)" style="fill: #ff7f0e; opacity: 0.4"/>
   </g>
   <g id="patch_128">
    <path d="M 730.674709 126 
L 732.693974 126 
L 732.693974 100.334725 
L 730.674709 100.334725 
z
" clip-path="url(#p5ab8e1d20f)" style="fill: #ff7f0e; opacity: 0.4"/>
   </g>
   <g id="patch_129">
    <path d="M 732.693974 126 
L 734.713239 126 
L 734.713239 109.377413 
L 732.693974 109.377413 
z
" clip-path="url(#p5ab8e1d20f)" style="fill: #ff7f0e; opacity: 0.4"/>
   </g>
   <g id="patch_130">
    <path d="M 734.713239 126 
L 736.732504 126 
L 736.732504 116.55837 
L 734.713239 116.55837 
z
" clip-path="url(#p5ab8e1d20f)" style="fill: #ff7f0e; opacity: 0.4"/>
   </g>
   <g id="patch_131">
    <path d="M 736.732504 126 
L 738.751769 126 
L 738.751769 119.749907 
L 736.732504 119.749907 
z
" clip-path="url(#p5ab8e1d20f)" style="fill: #ff7f0e; opacity: 0.4"/>
   </g>
   <g id="patch_132">
    <path d="M 738.751769 126 
L 740.771034 126 
L 740.771034 122.675483 
L 738.751769 122.675483 
z
" clip-path="url(#p5ab8e1d20f)" style="fill: #ff7f0e; opacity: 0.4"/>
   </g>
   <g id="patch_133">
    <path d="M 740.771034 126 
L 742.790299 126 
L 742.790299 124.537212 
L 740.771034 124.537212 
z
" clip-path="url(#p5ab8e1d20f)" style="fill: #ff7f0e; opacity: 0.4"/>
   </g>
   <g id="patch_134">
    <path d="M 742.790299 126 
L 744.809564 126 
L 744.809564 125.202116 
L 742.790299 125.202116 
z
" clip-path="url(#p5ab8e1d20f)" style="fill: #ff7f0e; opacity: 0.4"/>
   </g>
   <g id="patch_135">
    <path d="M 744.809564 126 
L 746.828829 126 
L 746.828829 126 
L 744.809564 126 
z
" clip-path="url(#p5ab8e1d20f)" style="fill: #ff7f0e; opacity: 0.4"/>
   </g>
   <g id="patch_136">
    <path d="M 746.828829 126 
L 748.848093 126 
L 748.848093 125.867019 
L 746.828829 125.867019 
z
" clip-path="url(#p5ab8e1d20f)" style="fill: #ff7f0e; opacity: 0.4"/>
   </g>
   <g id="patch_137">
    <path d="M 748.848093 126 
L 750.867358 126 
L 750.867358 125.734039 
L 748.848093 125.734039 
z
" clip-path="url(#p5ab8e1d20f)" style="fill: #ff7f0e; opacity: 0.4"/>
   </g>
   <g id="patch_138">
    <path d="M 750.867358 126 
L 752.886623 126 
L 752.886623 125.734039 
L 750.867358 125.734039 
z
" clip-path="url(#p5ab8e1d20f)" style="fill: #ff7f0e; opacity: 0.4"/>
   </g>
   <g id="matplotlib.axis_5">
    <g id="xtick_7">
     <g id="line2d_15">
      <g>
       <use xlink:href="#m2a6ab09734" x="695.959684" y="126" style="stroke: #000000; stroke-width: 0.8"/>
      </g>
     </g>
     <g id="text_15">
      <!-- 0.0 -->
      <g transform="translate(681.646871 146.677188)scale(0.18 -0.18)">
       <use xlink:href="#DejaVuSans-30"/>
       <use xlink:href="#DejaVuSans-2e" x="63.623047"/>
       <use xlink:href="#DejaVuSans-30" x="95.410156"/>
      </g>
     </g>
    </g>
    <g id="xtick_8">
     <g id="line2d_16">
      <g>
       <use xlink:href="#m2a6ab09734" x="795.208696" y="126" style="stroke: #000000; stroke-width: 0.8"/>
      </g>
     </g>
     <g id="text_16">
      <!-- 0.5 -->
      <g transform="translate(780.895883 146.677188)scale(0.18 -0.18)">
       <use xlink:href="#DejaVuSans-30"/>
       <use xlink:href="#DejaVuSans-2e" x="63.623047"/>
       <use xlink:href="#DejaVuSans-35" x="95.410156"/>
      </g>
     </g>
    </g>
    <g id="xtick_9">
     <g id="line2d_17">
      <g>
       <use xlink:href="#m2a6ab09734" x="894.457708" y="126" style="stroke: #000000; stroke-width: 0.8"/>
      </g>
     </g>
     <g id="text_17">
      <!-- 1.0 -->
      <g transform="translate(880.144895 146.677188)scale(0.18 -0.18)">
       <use xlink:href="#DejaVuSans-31"/>
       <use xlink:href="#DejaVuSans-2e" x="63.623047"/>
       <use xlink:href="#DejaVuSans-30" x="95.410156"/>
      </g>
     </g>
    </g>
   </g>
   <g id="matplotlib.axis_6">
    <g id="ytick_5">
     <g id="line2d_18">
      <g>
       <use xlink:href="#m06bea16410" x="686.034783" y="126" style="stroke: #000000; stroke-width: 0.8"/>
      </g>
     </g>
    </g>
    <g id="ytick_6">
     <g id="line2d_19">
      <g>
       <use xlink:href="#m06bea16410" x="686.034783" y="62.230164" style="stroke: #000000; stroke-width: 0.8"/>
      </g>
     </g>
    </g>
   </g>
   <g id="line2d_20">
    <path d="M 695.959684 126 
L 697.964714 126 
L 699.969745 126 
L 701.974775 126 
L 703.979806 126 
L 705.984837 126 
L 707.989867 125.999952 
L 709.994898 125.990251 
L 711.999928 125.795656 
L 714.004959 124.998495 
L 716.009989 123.055807 
L 718.01502 120.075564 
L 720.02005 113.13479 
L 722.025081 102.717944 
L 724.030111 93.378544 
L 726.035142 87.306166 
L 728.040172 82.30174 
L 730.045203 82.578269 
L 732.050234 88.179139 
L 734.055264 98.919506 
L 736.060295 105.377078 
L 738.065325 111.991354 
L 740.070356 119.728626 
L 742.075386 123.648562 
L 744.080417 124.799269 
L 746.085447 125.086576 
L 748.090478 125.660297 
L 750.095508 125.762577 
L 752.100539 125.866332 
L 754.10557 125.987157 
L 756.1106 125.999879 
L 758.115631 126 
L 760.120661 126 
L 762.125692 126 
L 764.130722 126 
L 766.135753 126 
L 768.140783 126 
L 770.145814 126 
L 772.150844 126 
L 774.155875 126 
L 776.160905 126 
L 778.165936 126 
L 780.170967 126 
L 782.175997 126 
L 784.181028 126 
L 786.186058 126 
L 788.191089 126 
L 790.196119 126 
L 792.20115 126 
L 794.20618 126 
L 796.211211 126 
L 798.216241 126 
L 800.221272 126 
L 802.226303 126 
L 804.231333 126 
L 806.236364 126 
L 808.241394 126 
L 810.246425 126 
L 812.251455 126 
L 814.256486 126 
L 816.261516 126 
L 818.266547 126 
L 820.271577 126 
L 822.276608 126 
L 824.281639 126 
L 826.286669 126 
L 828.2917 126 
L 830.29673 126 
L 832.301761 126 
L 834.306791 126 
L 836.311822 126 
L 838.316852 126 
L 840.321883 126 
L 842.326913 126 
L 844.331944 126 
L 846.336974 126 
L 848.342005 126 
L 850.347036 126 
L 852.352066 126 
L 854.357097 126 
L 856.362127 126 
L 858.367158 126 
L 860.372188 126 
L 862.377219 126 
L 864.382249 126 
L 866.38728 126 
L 868.39231 126 
L 870.397341 126 
L 872.402372 126 
L 874.407402 126 
L 876.412433 126 
L 878.417463 126 
L 880.422494 126 
L 882.427524 126 
L 884.432555 126 
L 886.437585 126 
L 888.442616 126 
L 890.447646 126 
L 892.452677 126 
L 894.457708 126 
" clip-path="url(#p5ab8e1d20f)" style="fill: none; stroke: #1f77b4; stroke-width: 1.5; stroke-linecap: square"/>
   </g>
   <g id="line2d_21">
    <path d="M 695.959684 126 
L 697.964714 126 
L 699.969745 126 
L 701.974775 126 
L 703.979806 126 
L 705.984837 126 
L 707.989867 125.999951 
L 709.994898 125.98377 
L 711.999928 125.699297 
L 714.004959 124.57101 
L 716.009989 120.698872 
L 718.01502 112.364476 
L 720.02005 100.965378 
L 722.025081 89.517385 
L 724.030111 80.457902 
L 726.035142 76.263395 
L 728.040172 81.002508 
L 730.045203 93.593719 
L 732.050234 102.023442 
L 734.055264 110.267075 
L 736.060295 116.798825 
L 738.065325 120.114157 
L 740.070356 123.01428 
L 742.075386 124.539044 
L 744.080417 125.274866 
L 746.085447 125.810932 
L 748.090478 125.901743 
L 750.095508 125.816544 
L 752.100539 125.762311 
L 754.10557 125.89811 
L 756.1106 125.9973 
L 758.115631 125.999997 
L 760.120661 126 
L 762.125692 126 
L 764.130722 126 
L 766.135753 126 
L 768.140783 126 
L 770.145814 126 
L 772.150844 126 
L 774.155875 126 
L 776.160905 126 
L 778.165936 126 
L 780.170967 126 
L 782.175997 126 
L 784.181028 126 
L 786.186058 126 
L 788.191089 126 
L 790.196119 126 
L 792.20115 126 
L 794.20618 126 
L 796.211211 126 
L 798.216241 126 
L 800.221272 126 
L 802.226303 126 
L 804.231333 126 
L 806.236364 126 
L 808.241394 126 
L 810.246425 126 
L 812.251455 126 
L 814.256486 126 
L 816.261516 126 
L 818.266547 126 
L 820.271577 126 
L 822.276608 126 
L 824.281639 126 
L 826.286669 126 
L 828.2917 126 
L 830.29673 126 
L 832.301761 126 
L 834.306791 126 
L 836.311822 126 
L 838.316852 126 
L 840.321883 126 
L 842.326913 126 
L 844.331944 126 
L 846.336974 126 
L 848.342005 126 
L 850.347036 126 
L 852.352066 126 
L 854.357097 126 
L 856.362127 126 
L 858.367158 126 
L 860.372188 126 
L 862.377219 126 
L 864.382249 126 
L 866.38728 126 
L 868.39231 126 
L 870.397341 126 
L 872.402372 126 
L 874.407402 126 
L 876.412433 126 
L 878.417463 126 
L 880.422494 126 
L 882.427524 126 
L 884.432555 126 
L 886.437585 126 
L 888.442616 126 
L 890.447646 126 
L 892.452677 126 
L 894.457708 126 
" clip-path="url(#p5ab8e1d20f)" style="fill: none; stroke: #ff7f0e; stroke-width: 1.5; stroke-linecap: square"/>
   </g>
   <g id="patch_139">
    <path d="M 686.034783 126 
L 686.034783 17.28 
" style="fill: none; stroke: #000000; stroke-width: 0.8; stroke-linejoin: miter; stroke-linecap: square"/>
   </g>
   <g id="patch_140">
    <path d="M 904.382609 126 
L 904.382609 17.28 
" style="fill: none; stroke: #000000; stroke-width: 0.8; stroke-linejoin: miter; stroke-linecap: square"/>
   </g>
   <g id="patch_141">
    <path d="M 686.034783 126 
L 904.382609 126 
" style="fill: none; stroke: #000000; stroke-width: 0.8; stroke-linejoin: miter; stroke-linecap: square"/>
   </g>
   <g id="patch_142">
    <path d="M 686.034783 17.28 
L 904.382609 17.28 
" style="fill: none; stroke: #000000; stroke-width: 0.8; stroke-linejoin: miter; stroke-linecap: square"/>
   </g>
   <g id="text_18">
    <!-- Distances to -->
    <g transform="translate(729.949555 -59.266219)scale(0.21 -0.21)">
     <use xlink:href="#DejaVuSans-44"/>
     <use xlink:href="#DejaVuSans-69" x="77.001953"/>
     <use xlink:href="#DejaVuSans-73" x="104.785156"/>
     <use xlink:href="#DejaVuSans-74" x="156.884766"/>
     <use xlink:href="#DejaVuSans-61" x="196.09375"/>
     <use xlink:href="#DejaVuSans-6e" x="257.373047"/>
     <use xlink:href="#DejaVuSans-63" x="320.751953"/>
     <use xlink:href="#DejaVuSans-65" x="375.732422"/>
     <use xlink:href="#DejaVuSans-73" x="437.255859"/>
     <use xlink:href="#DejaVuSans-20" x="489.355469"/>
     <use xlink:href="#DejaVuSans-74" x="521.142578"/>
     <use xlink:href="#DejaVuSans-6f" x="560.351562"/>
    </g>
    <!--  Elastic(0.25, 0.5) mean -->
    <g transform="translate(669.549946 -35.750812)scale(0.21 -0.21)">
     <use xlink:href="#DejaVuSans-20"/>
     <use xlink:href="#DejaVuSans-45" x="31.787109"/>
     <use xlink:href="#DejaVuSans-6c" x="94.970703"/>
     <use xlink:href="#DejaVuSans-61" x="122.753906"/>
     <use xlink:href="#DejaVuSans-73" x="184.033203"/>
     <use xlink:href="#DejaVuSans-74" x="236.132812"/>
     <use xlink:href="#DejaVuSans-69" x="275.341797"/>
     <use xlink:href="#DejaVuSans-63" x="303.125"/>
     <use xlink:href="#DejaVuSans-28" x="358.105469"/>
     <use xlink:href="#DejaVuSans-30" x="397.119141"/>
     <use xlink:href="#DejaVuSans-2e" x="460.742188"/>
     <use xlink:href="#DejaVuSans-32" x="492.529297"/>
     <use xlink:href="#DejaVuSans-35" x="556.152344"/>
     <use xlink:href="#DejaVuSans-2c" x="619.775391"/>
     <use xlink:href="#DejaVuSans-20" x="651.5625"/>
     <use xlink:href="#DejaVuSans-30" x="683.349609"/>
     <use xlink:href="#DejaVuSans-2e" x="746.972656"/>
     <use xlink:href="#DejaVuSans-35" x="778.759766"/>
     <use xlink:href="#DejaVuSans-29" x="842.382812"/>
     <use xlink:href="#DejaVuSans-20" x="881.396484"/>
     <use xlink:href="#DejaVuSans-6d" x="913.183594"/>
     <use xlink:href="#DejaVuSans-65" x="1010.595703"/>
     <use xlink:href="#DejaVuSans-61" x="1072.119141"/>
     <use xlink:href="#DejaVuSans-6e" x="1133.398438"/>
    </g>
    <!--  colored by surfaces -->
    <g transform="translate(689.294868 -12.235406)scale(0.21 -0.21)">
     <use xlink:href="#DejaVuSans-20"/>
     <use xlink:href="#DejaVuSans-63" x="31.787109"/>
     <use xlink:href="#DejaVuSans-6f" x="86.767578"/>
     <use xlink:href="#DejaVuSans-6c" x="147.949219"/>
     <use xlink:href="#DejaVuSans-6f" x="175.732422"/>
     <use xlink:href="#DejaVuSans-72" x="236.914062"/>
     <use xlink:href="#DejaVuSans-65" x="275.777344"/>
     <use xlink:href="#DejaVuSans-64" x="337.300781"/>
     <use xlink:href="#DejaVuSans-20" x="400.777344"/>
     <use xlink:href="#DejaVuSans-62" x="432.564453"/>
     <use xlink:href="#DejaVuSans-79" x="496.041016"/>
     <use xlink:href="#DejaVuSans-20" x="555.220703"/>
     <use xlink:href="#DejaVuSans-73" x="587.007812"/>
     <use xlink:href="#DejaVuSans-75" x="639.107422"/>
     <use xlink:href="#DejaVuSans-72" x="702.486328"/>
     <use xlink:href="#DejaVuSans-66" x="743.599609"/>
     <use xlink:href="#DejaVuSans-61" x="778.804688"/>
     <use xlink:href="#DejaVuSans-63" x="840.083984"/>
     <use xlink:href="#DejaVuSans-65" x="895.064453"/>
     <use xlink:href="#DejaVuSans-73" x="956.587891"/>
    </g>
    <!--  -->
    <g transform="translate(795.208696 11.28)scale(0.21 -0.21)"/>
   </g>
   <g id="legend_3">
    <g id="patch_143">
     <path d="M 794.377296 84.52125 
L 891.782609 84.52125 
Q 895.382609 84.52125 895.382609 80.92125 
L 895.382609 29.88 
Q 895.382609 26.28 891.782609 26.28 
L 794.377296 26.28 
Q 790.777296 26.28 790.777296 29.88 
L 790.777296 80.92125 
Q 790.777296 84.52125 794.377296 84.52125 
z
" style="fill: #ffffff; opacity: 0.8; stroke: #cccccc; stroke-linejoin: miter"/>
    </g>
    <g id="patch_144">
     <path d="M 797.977296 47.157187 
L 833.977296 47.157187 
L 833.977296 34.557187 
L 797.977296 34.557187 
z
" style="fill: #1f77b4; opacity: 0.4"/>
    </g>
    <g id="text_19">
     <!-- FN -->
     <g transform="translate(848.377296 47.157187)scale(0.18 -0.18)">
      <use xlink:href="#DejaVuSans-46"/>
      <use xlink:href="#DejaVuSans-4e" x="57.519531"/>
     </g>
    </g>
    <g id="patch_145">
     <path d="M 797.977296 73.577812 
L 833.977296 73.577812 
L 833.977296 60.977812 
L 797.977296 60.977812 
z
" style="fill: #ff7f0e; opacity: 0.4"/>
    </g>
    <g id="text_20">
     <!-- GDA -->
     <g transform="translate(848.377296 73.577812)scale(0.18 -0.18)">
      <use xlink:href="#DejaVuSans-47"/>
      <use xlink:href="#DejaVuSans-44" x="77.490234"/>
      <use xlink:href="#DejaVuSans-41" x="152.742188"/>
     </g>
    </g>
   </g>
  </g>
  <g id="axes_4">
   <g id="patch_146">
    <path d="M 948.052174 126 
L 1166.4 126 
L 1166.4 17.28 
L 948.052174 17.28 
z
" style="fill: #ffffff"/>
   </g>
   <g id="patch_147">
    <path d="M 960.42073 126 
L 961.612396 126 
L 961.612396 95.831099 
L 960.42073 95.831099 
z
" clip-path="url(#pc5f0c5ecab)" style="fill: #1f77b4; opacity: 0.4"/>
   </g>
   <g id="patch_148">
    <path d="M 961.612396 126 
L 962.804062 126 
L 962.804062 43.210922 
L 961.612396 43.210922 
z
" clip-path="url(#pc5f0c5ecab)" style="fill: #1f77b4; opacity: 0.4"/>
   </g>
   <g id="patch_149">
    <path d="M 962.804062 126 
L 963.995728 126 
L 963.995728 22.513652 
L 962.804062 22.513652 
z
" clip-path="url(#pc5f0c5ecab)" style="fill: #1f77b4; opacity: 0.4"/>
   </g>
   <g id="patch_150">
    <path d="M 963.995728 126 
L 965.187394 126 
L 965.187394 40.404512 
L 963.995728 40.404512 
z
" clip-path="url(#pc5f0c5ecab)" style="fill: #1f77b4; opacity: 0.4"/>
   </g>
   <g id="patch_151">
    <path d="M 965.187394 126 
L 966.37906 126 
L 966.37906 63.908191 
L 965.187394 63.908191 
z
" clip-path="url(#pc5f0c5ecab)" style="fill: #1f77b4; opacity: 0.4"/>
   </g>
   <g id="patch_152">
    <path d="M 966.37906 126 
L 967.570726 126 
L 967.570726 83.553057 
L 966.37906 83.553057 
z
" clip-path="url(#pc5f0c5ecab)" style="fill: #1f77b4; opacity: 0.4"/>
   </g>
   <g id="patch_153">
    <path d="M 967.570726 126 
L 968.762392 126 
L 968.762392 91.972286 
L 967.570726 91.972286 
z
" clip-path="url(#pc5f0c5ecab)" style="fill: #1f77b4; opacity: 0.4"/>
   </g>
   <g id="patch_154">
    <path d="M 968.762392 126 
L 969.954058 126 
L 969.954058 98.637508 
L 968.762392 98.637508 
z
" clip-path="url(#pc5f0c5ecab)" style="fill: #1f77b4; opacity: 0.4"/>
   </g>
   <g id="patch_155">
    <path d="M 969.954058 126 
L 971.145725 126 
L 971.145725 105.653532 
L 969.954058 105.653532 
z
" clip-path="url(#pc5f0c5ecab)" style="fill: #1f77b4; opacity: 0.4"/>
   </g>
   <g id="patch_156">
    <path d="M 971.145725 126 
L 972.337391 126 
L 972.337391 113.371158 
L 971.145725 113.371158 
z
" clip-path="url(#pc5f0c5ecab)" style="fill: #1f77b4; opacity: 0.4"/>
   </g>
   <g id="patch_157">
    <path d="M 972.337391 126 
L 973.529057 126 
L 973.529057 113.020356 
L 972.337391 113.020356 
z
" clip-path="url(#pc5f0c5ecab)" style="fill: #1f77b4; opacity: 0.4"/>
   </g>
   <g id="patch_158">
    <path d="M 973.529057 126 
L 974.720723 126 
L 974.720723 119.334778 
L 973.529057 119.334778 
z
" clip-path="url(#pc5f0c5ecab)" style="fill: #1f77b4; opacity: 0.4"/>
   </g>
   <g id="patch_159">
    <path d="M 974.720723 126 
L 975.912389 126 
L 975.912389 121.790386 
L 974.720723 121.790386 
z
" clip-path="url(#pc5f0c5ecab)" style="fill: #1f77b4; opacity: 0.4"/>
   </g>
   <g id="patch_160">
    <path d="M 975.912389 126 
L 977.104055 126 
L 977.104055 124.596795 
L 975.912389 124.596795 
z
" clip-path="url(#pc5f0c5ecab)" style="fill: #1f77b4; opacity: 0.4"/>
   </g>
   <g id="patch_161">
    <path d="M 977.104055 126 
L 978.295721 126 
L 978.295721 123.895193 
L 977.104055 123.895193 
z
" clip-path="url(#pc5f0c5ecab)" style="fill: #1f77b4; opacity: 0.4"/>
   </g>
   <g id="patch_162">
    <path d="M 978.295721 126 
L 979.487387 126 
L 979.487387 124.947596 
L 978.295721 124.947596 
z
" clip-path="url(#pc5f0c5ecab)" style="fill: #1f77b4; opacity: 0.4"/>
   </g>
   <g id="patch_163">
    <path d="M 979.487387 126 
L 980.679053 126 
L 980.679053 125.649199 
L 979.487387 125.649199 
z
" clip-path="url(#pc5f0c5ecab)" style="fill: #1f77b4; opacity: 0.4"/>
   </g>
   <g id="patch_164">
    <path d="M 980.679053 126 
L 981.870719 126 
L 981.870719 125.649199 
L 980.679053 125.649199 
z
" clip-path="url(#pc5f0c5ecab)" style="fill: #1f77b4; opacity: 0.4"/>
   </g>
   <g id="patch_165">
    <path d="M 981.870719 126 
L 983.062385 126 
L 983.062385 125.649199 
L 981.870719 125.649199 
z
" clip-path="url(#pc5f0c5ecab)" style="fill: #1f77b4; opacity: 0.4"/>
   </g>
   <g id="patch_166">
    <path d="M 983.062385 126 
L 984.254051 126 
L 984.254051 125.298398 
L 983.062385 125.298398 
z
" clip-path="url(#pc5f0c5ecab)" style="fill: #1f77b4; opacity: 0.4"/>
   </g>
   <g id="patch_167">
    <path d="M 960.496134 126 
L 961.834305 126 
L 961.834305 102.923588 
L 960.496134 102.923588 
z
" clip-path="url(#pc5f0c5ecab)" style="fill: #ff7f0e; opacity: 0.4"/>
   </g>
   <g id="patch_168">
    <path d="M 961.834305 126 
L 963.172475 126 
L 963.172475 41.72093 
L 961.834305 41.72093 
z
" clip-path="url(#pc5f0c5ecab)" style="fill: #ff7f0e; opacity: 0.4"/>
   </g>
   <g id="patch_169">
    <path d="M 963.172475 126 
L 964.510646 126 
L 964.510646 22.457143 
L 963.172475 22.457143 
z
" clip-path="url(#pc5f0c5ecab)" style="fill: #ff7f0e; opacity: 0.4"/>
   </g>
   <g id="patch_170">
    <path d="M 964.510646 126 
L 965.848816 126 
L 965.848816 39.112292 
L 964.510646 39.112292 
z
" clip-path="url(#pc5f0c5ecab)" style="fill: #ff7f0e; opacity: 0.4"/>
   </g>
   <g id="patch_171">
    <path d="M 965.848816 126 
L 967.186987 126 
L 967.186987 57.774086 
L 965.848816 57.774086 
z
" clip-path="url(#pc5f0c5ecab)" style="fill: #ff7f0e; opacity: 0.4"/>
   </g>
   <g id="patch_172">
    <path d="M 967.186987 126 
L 968.525157 126 
L 968.525157 81.051163 
L 967.186987 81.051163 
z
" clip-path="url(#pc5f0c5ecab)" style="fill: #ff7f0e; opacity: 0.4"/>
   </g>
   <g id="patch_173">
    <path d="M 968.525157 126 
L 969.863328 126 
L 969.863328 104.127575 
L 968.525157 104.127575 
z
" clip-path="url(#pc5f0c5ecab)" style="fill: #ff7f0e; opacity: 0.4"/>
   </g>
   <g id="patch_174">
    <path d="M 969.863328 126 
L 971.201498 126 
L 971.201498 111.351495 
L 969.863328 111.351495 
z
" clip-path="url(#pc5f0c5ecab)" style="fill: #ff7f0e; opacity: 0.4"/>
   </g>
   <g id="patch_175">
    <path d="M 971.201498 126 
L 972.539669 126 
L 972.539669 115.966777 
L 971.201498 115.966777 
z
" clip-path="url(#pc5f0c5ecab)" style="fill: #ff7f0e; opacity: 0.4"/>
   </g>
   <g id="patch_176">
    <path d="M 972.539669 126 
L 973.877839 126 
L 973.877839 121.184053 
L 972.539669 121.184053 
z
" clip-path="url(#pc5f0c5ecab)" style="fill: #ff7f0e; opacity: 0.4"/>
   </g>
   <g id="patch_177">
    <path d="M 973.877839 126 
L 975.21601 126 
L 975.21601 120.381395 
L 973.877839 120.381395 
z
" clip-path="url(#pc5f0c5ecab)" style="fill: #ff7f0e; opacity: 0.4"/>
   </g>
   <g id="patch_178">
    <path d="M 975.21601 126 
L 976.554181 126 
L 976.554181 123.993355 
L 975.21601 123.993355 
z
" clip-path="url(#pc5f0c5ecab)" style="fill: #ff7f0e; opacity: 0.4"/>
   </g>
   <g id="patch_179">
    <path d="M 976.554181 126 
L 977.892351 126 
L 977.892351 124.996678 
L 976.554181 124.996678 
z
" clip-path="url(#pc5f0c5ecab)" style="fill: #ff7f0e; opacity: 0.4"/>
   </g>
   <g id="patch_180">
    <path d="M 977.892351 126 
L 979.230522 126 
L 979.230522 125.398007 
L 977.892351 125.398007 
z
" clip-path="url(#pc5f0c5ecab)" style="fill: #ff7f0e; opacity: 0.4"/>
   </g>
   <g id="patch_181">
    <path d="M 979.230522 126 
L 980.568692 126 
L 980.568692 125.398007 
L 979.230522 125.398007 
z
" clip-path="url(#pc5f0c5ecab)" style="fill: #ff7f0e; opacity: 0.4"/>
   </g>
   <g id="patch_182">
    <path d="M 980.568692 126 
L 981.906863 126 
L 981.906863 126 
L 980.568692 126 
z
" clip-path="url(#pc5f0c5ecab)" style="fill: #ff7f0e; opacity: 0.4"/>
   </g>
   <g id="patch_183">
    <path d="M 981.906863 126 
L 983.245033 126 
L 983.245033 125.799336 
L 981.906863 125.799336 
z
" clip-path="url(#pc5f0c5ecab)" style="fill: #ff7f0e; opacity: 0.4"/>
   </g>
   <g id="patch_184">
    <path d="M 983.245033 126 
L 984.583204 126 
L 984.583204 125.799336 
L 983.245033 125.799336 
z
" clip-path="url(#pc5f0c5ecab)" style="fill: #ff7f0e; opacity: 0.4"/>
   </g>
   <g id="patch_185">
    <path d="M 984.583204 126 
L 985.921374 126 
L 985.921374 126 
L 984.583204 126 
z
" clip-path="url(#pc5f0c5ecab)" style="fill: #ff7f0e; opacity: 0.4"/>
   </g>
   <g id="patch_186">
    <path d="M 985.921374 126 
L 987.259545 126 
L 987.259545 125.598671 
L 985.921374 125.598671 
z
" clip-path="url(#pc5f0c5ecab)" style="fill: #ff7f0e; opacity: 0.4"/>
   </g>
   <g id="matplotlib.axis_7">
    <g id="xtick_10">
     <g id="line2d_22">
      <g>
       <use xlink:href="#m2a6ab09734" x="957.977075" y="126" style="stroke: #000000; stroke-width: 0.8"/>
      </g>
     </g>
     <g id="text_21">
      <!-- 0.0 -->
      <g transform="translate(943.664263 146.677188)scale(0.18 -0.18)">
       <use xlink:href="#DejaVuSans-30"/>
       <use xlink:href="#DejaVuSans-2e" x="63.623047"/>
       <use xlink:href="#DejaVuSans-30" x="95.410156"/>
      </g>
     </g>
    </g>
    <g id="xtick_11">
     <g id="line2d_23">
      <g>
       <use xlink:href="#m2a6ab09734" x="1057.226087" y="126" style="stroke: #000000; stroke-width: 0.8"/>
      </g>
     </g>
     <g id="text_22">
      <!-- 0.5 -->
      <g transform="translate(1042.913274 146.677188)scale(0.18 -0.18)">
       <use xlink:href="#DejaVuSans-30"/>
       <use xlink:href="#DejaVuSans-2e" x="63.623047"/>
       <use xlink:href="#DejaVuSans-35" x="95.410156"/>
      </g>
     </g>
    </g>
    <g id="xtick_12">
     <g id="line2d_24">
      <g>
       <use xlink:href="#m2a6ab09734" x="1156.475099" y="126" style="stroke: #000000; stroke-width: 0.8"/>
      </g>
     </g>
     <g id="text_23">
      <!-- 1.0 -->
      <g transform="translate(1142.162286 146.677188)scale(0.18 -0.18)">
       <use xlink:href="#DejaVuSans-31"/>
       <use xlink:href="#DejaVuSans-2e" x="63.623047"/>
       <use xlink:href="#DejaVuSans-30" x="95.410156"/>
      </g>
     </g>
    </g>
   </g>
   <g id="matplotlib.axis_8">
    <g id="ytick_7">
     <g id="line2d_25">
      <g>
       <use xlink:href="#m06bea16410" x="948.052174" y="126" style="stroke: #000000; stroke-width: 0.8"/>
      </g>
     </g>
    </g>
    <g id="ytick_8">
     <g id="line2d_26">
      <g>
       <use xlink:href="#m06bea16410" x="948.052174" y="62.230164" style="stroke: #000000; stroke-width: 0.8"/>
      </g>
     </g>
    </g>
   </g>
   <g id="line2d_27">
    <path d="M 957.977075 125.983957 
L 959.982106 118.693417 
L 961.987136 56.638556 
L 963.992167 33.282407 
L 965.997197 65.978643 
L 968.002228 90.02489 
L 970.007258 102.880061 
L 972.012289 112.447592 
L 974.017319 118.24191 
L 976.02235 123.27828 
L 978.027381 124.327033 
L 980.032411 125.585224 
L 982.037442 125.562677 
L 984.042472 125.578888 
L 986.047503 125.973447 
L 988.052533 125.999996 
L 990.057564 126 
L 992.062594 126 
L 994.067625 126 
L 996.072655 126 
L 998.077686 126 
L 1000.082716 126 
L 1002.087747 126 
L 1004.092778 126 
L 1006.097808 126 
L 1008.102839 126 
L 1010.107869 126 
L 1012.1129 126 
L 1014.11793 126 
L 1016.122961 126 
L 1018.127991 126 
L 1020.133022 126 
L 1022.138052 126 
L 1024.143083 126 
L 1026.148114 126 
L 1028.153144 126 
L 1030.158175 126 
L 1032.163205 126 
L 1034.168236 126 
L 1036.173266 126 
L 1038.178297 126 
L 1040.183327 126 
L 1042.188358 126 
L 1044.193388 126 
L 1046.198419 126 
L 1048.20345 126 
L 1050.20848 126 
L 1052.213511 126 
L 1054.218541 126 
L 1056.223572 126 
L 1058.228602 126 
L 1060.233633 126 
L 1062.238663 126 
L 1064.243694 126 
L 1066.248724 126 
L 1068.253755 126 
L 1070.258785 126 
L 1072.263816 126 
L 1074.268847 126 
L 1076.273877 126 
L 1078.278908 126 
L 1080.283938 126 
L 1082.288969 126 
L 1084.293999 126 
L 1086.29903 126 
L 1088.30406 126 
L 1090.309091 126 
L 1092.314121 126 
L 1094.319152 126 
L 1096.324183 126 
L 1098.329213 126 
L 1100.334244 126 
L 1102.339274 126 
L 1104.344305 126 
L 1106.349335 126 
L 1108.354366 126 
L 1110.359396 126 
L 1112.364427 126 
L 1114.369457 126 
L 1116.374488 126 
L 1118.379519 126 
L 1120.384549 126 
L 1122.38958 126 
L 1124.39461 126 
L 1126.399641 126 
L 1128.404671 126 
L 1130.409702 126 
L 1132.414732 126 
L 1134.419763 126 
L 1136.424793 126 
L 1138.429824 126 
L 1140.434854 126 
L 1142.439885 126 
L 1144.444916 126 
L 1146.449946 126 
L 1148.454977 126 
L 1150.460007 126 
L 1152.465038 126 
L 1154.470068 126 
L 1156.475099 126 
" clip-path="url(#pc5f0c5ecab)" style="fill: none; stroke: #1f77b4; stroke-width: 1.5; stroke-linecap: square"/>
   </g>
   <g id="line2d_28">
    <path d="M 957.977075 125.999702 
L 959.982106 123.20984 
L 961.987136 66.556238 
L 963.992167 24.950494 
L 965.997197 51.440098 
L 968.002228 85.775891 
L 970.007258 106.8829 
L 972.012289 117.229777 
L 974.017319 120.428046 
L 976.02235 123.767869 
L 978.027381 125.240918 
L 980.032411 125.614632 
L 982.037442 125.828743 
L 984.042472 125.909149 
L 986.047503 125.926231 
L 988.052533 125.86604 
L 990.057564 125.99998 
L 992.062594 126 
L 994.067625 126 
L 996.072655 126 
L 998.077686 126 
L 1000.082716 126 
L 1002.087747 126 
L 1004.092778 126 
L 1006.097808 126 
L 1008.102839 126 
L 1010.107869 126 
L 1012.1129 126 
L 1014.11793 126 
L 1016.122961 126 
L 1018.127991 126 
L 1020.133022 126 
L 1022.138052 126 
L 1024.143083 126 
L 1026.148114 126 
L 1028.153144 126 
L 1030.158175 126 
L 1032.163205 126 
L 1034.168236 126 
L 1036.173266 126 
L 1038.178297 126 
L 1040.183327 126 
L 1042.188358 126 
L 1044.193388 126 
L 1046.198419 126 
L 1048.20345 126 
L 1050.20848 126 
L 1052.213511 126 
L 1054.218541 126 
L 1056.223572 126 
L 1058.228602 126 
L 1060.233633 126 
L 1062.238663 126 
L 1064.243694 126 
L 1066.248724 126 
L 1068.253755 126 
L 1070.258785 126 
L 1072.263816 126 
L 1074.268847 126 
L 1076.273877 126 
L 1078.278908 126 
L 1080.283938 126 
L 1082.288969 126 
L 1084.293999 126 
L 1086.29903 126 
L 1088.30406 126 
L 1090.309091 126 
L 1092.314121 126 
L 1094.319152 126 
L 1096.324183 126 
L 1098.329213 126 
L 1100.334244 126 
L 1102.339274 126 
L 1104.344305 126 
L 1106.349335 126 
L 1108.354366 126 
L 1110.359396 126 
L 1112.364427 126 
L 1114.369457 126 
L 1116.374488 126 
L 1118.379519 126 
L 1120.384549 126 
L 1122.38958 126 
L 1124.39461 126 
L 1126.399641 126 
L 1128.404671 126 
L 1130.409702 126 
L 1132.414732 126 
L 1134.419763 126 
L 1136.424793 126 
L 1138.429824 126 
L 1140.434854 126 
L 1142.439885 126 
L 1144.444916 126 
L 1146.449946 126 
L 1148.454977 126 
L 1150.460007 126 
L 1152.465038 126 
L 1154.470068 126 
L 1156.475099 126 
" clip-path="url(#pc5f0c5ecab)" style="fill: none; stroke: #ff7f0e; stroke-width: 1.5; stroke-linecap: square"/>
   </g>
   <g id="patch_187">
    <path d="M 948.052174 126 
L 948.052174 17.28 
" style="fill: none; stroke: #000000; stroke-width: 0.8; stroke-linejoin: miter; stroke-linecap: square"/>
   </g>
   <g id="patch_188">
    <path d="M 1166.4 126 
L 1166.4 17.28 
" style="fill: none; stroke: #000000; stroke-width: 0.8; stroke-linejoin: miter; stroke-linecap: square"/>
   </g>
   <g id="patch_189">
    <path d="M 948.052174 126 
L 1166.4 126 
" style="fill: none; stroke: #000000; stroke-width: 0.8; stroke-linejoin: miter; stroke-linecap: square"/>
   </g>
   <g id="patch_190">
    <path d="M 948.052174 17.28 
L 1166.4 17.28 
" style="fill: none; stroke: #000000; stroke-width: 0.8; stroke-linejoin: miter; stroke-linecap: square"/>
   </g>
   <g id="text_24">
    <!-- Distances to -->
    <g transform="translate(991.966946 -59.266219)scale(0.21 -0.21)">
     <use xlink:href="#DejaVuSans-44"/>
     <use xlink:href="#DejaVuSans-69" x="77.001953"/>
     <use xlink:href="#DejaVuSans-73" x="104.785156"/>
     <use xlink:href="#DejaVuSans-74" x="156.884766"/>
     <use xlink:href="#DejaVuSans-61" x="196.09375"/>
     <use xlink:href="#DejaVuSans-6e" x="257.373047"/>
     <use xlink:href="#DejaVuSans-63" x="320.751953"/>
     <use xlink:href="#DejaVuSans-65" x="375.732422"/>
     <use xlink:href="#DejaVuSans-73" x="437.255859"/>
     <use xlink:href="#DejaVuSans-20" x="489.355469"/>
     <use xlink:href="#DejaVuSans-74" x="521.142578"/>
     <use xlink:href="#DejaVuSans-6f" x="560.351562"/>
    </g>
    <!--  Elastic(0.01, 0.5) mean -->
    <g transform="translate(931.567337 -35.750812)scale(0.21 -0.21)">
     <use xlink:href="#DejaVuSans-20"/>
     <use xlink:href="#DejaVuSans-45" x="31.787109"/>
     <use xlink:href="#DejaVuSans-6c" x="94.970703"/>
     <use xlink:href="#DejaVuSans-61" x="122.753906"/>
     <use xlink:href="#DejaVuSans-73" x="184.033203"/>
     <use xlink:href="#DejaVuSans-74" x="236.132812"/>
     <use xlink:href="#DejaVuSans-69" x="275.341797"/>
     <use xlink:href="#DejaVuSans-63" x="303.125"/>
     <use xlink:href="#DejaVuSans-28" x="358.105469"/>
     <use xlink:href="#DejaVuSans-30" x="397.119141"/>
     <use xlink:href="#DejaVuSans-2e" x="460.742188"/>
     <use xlink:href="#DejaVuSans-30" x="492.529297"/>
     <use xlink:href="#DejaVuSans-31" x="556.152344"/>
     <use xlink:href="#DejaVuSans-2c" x="619.775391"/>
     <use xlink:href="#DejaVuSans-20" x="651.5625"/>
     <use xlink:href="#DejaVuSans-30" x="683.349609"/>
     <use xlink:href="#DejaVuSans-2e" x="746.972656"/>
     <use xlink:href="#DejaVuSans-35" x="778.759766"/>
     <use xlink:href="#DejaVuSans-29" x="842.382812"/>
     <use xlink:href="#DejaVuSans-20" x="881.396484"/>
     <use xlink:href="#DejaVuSans-6d" x="913.183594"/>
     <use xlink:href="#DejaVuSans-65" x="1010.595703"/>
     <use xlink:href="#DejaVuSans-61" x="1072.119141"/>
     <use xlink:href="#DejaVuSans-6e" x="1133.398438"/>
    </g>
    <!--  colored by surfaces -->
    <g transform="translate(951.312259 -12.235406)scale(0.21 -0.21)">
     <use xlink:href="#DejaVuSans-20"/>
     <use xlink:href="#DejaVuSans-63" x="31.787109"/>
     <use xlink:href="#DejaVuSans-6f" x="86.767578"/>
     <use xlink:href="#DejaVuSans-6c" x="147.949219"/>
     <use xlink:href="#DejaVuSans-6f" x="175.732422"/>
     <use xlink:href="#DejaVuSans-72" x="236.914062"/>
     <use xlink:href="#DejaVuSans-65" x="275.777344"/>
     <use xlink:href="#DejaVuSans-64" x="337.300781"/>
     <use xlink:href="#DejaVuSans-20" x="400.777344"/>
     <use xlink:href="#DejaVuSans-62" x="432.564453"/>
     <use xlink:href="#DejaVuSans-79" x="496.041016"/>
     <use xlink:href="#DejaVuSans-20" x="555.220703"/>
     <use xlink:href="#DejaVuSans-73" x="587.007812"/>
     <use xlink:href="#DejaVuSans-75" x="639.107422"/>
     <use xlink:href="#DejaVuSans-72" x="702.486328"/>
     <use xlink:href="#DejaVuSans-66" x="743.599609"/>
     <use xlink:href="#DejaVuSans-61" x="778.804688"/>
     <use xlink:href="#DejaVuSans-63" x="840.083984"/>
     <use xlink:href="#DejaVuSans-65" x="895.064453"/>
     <use xlink:href="#DejaVuSans-73" x="956.587891"/>
    </g>
    <!--  -->
    <g transform="translate(1057.226087 11.28)scale(0.21 -0.21)"/>
   </g>
   <g id="legend_4">
    <g id="patch_191">
     <path d="M 1056.394687 84.52125 
L 1153.8 84.52125 
Q 1157.4 84.52125 1157.4 80.92125 
L 1157.4 29.88 
Q 1157.4 26.28 1153.8 26.28 
L 1056.394687 26.28 
Q 1052.794688 26.28 1052.794688 29.88 
L 1052.794688 80.92125 
Q 1052.794688 84.52125 1056.394687 84.52125 
z
" style="fill: #ffffff; opacity: 0.8; stroke: #cccccc; stroke-linejoin: miter"/>
    </g>
    <g id="patch_192">
     <path d="M 1059.994688 47.157187 
L 1095.994688 47.157187 
L 1095.994688 34.557187 
L 1059.994688 34.557187 
z
" style="fill: #1f77b4; opacity: 0.4"/>
    </g>
    <g id="text_25">
     <!-- FN -->
     <g transform="translate(1110.394688 47.157187)scale(0.18 -0.18)">
      <use xlink:href="#DejaVuSans-46"/>
      <use xlink:href="#DejaVuSans-4e" x="57.519531"/>
     </g>
    </g>
    <g id="patch_193">
     <path d="M 1059.994688 73.577812 
L 1095.994688 73.577812 
L 1095.994688 60.977812 
L 1059.994688 60.977812 
z
" style="fill: #ff7f0e; opacity: 0.4"/>
    </g>
    <g id="text_26">
     <!-- GDA -->
     <g transform="translate(1110.394688 73.577812)scale(0.18 -0.18)">
      <use xlink:href="#DejaVuSans-47"/>
      <use xlink:href="#DejaVuSans-44" x="77.490234"/>
      <use xlink:href="#DejaVuSans-41" x="152.742188"/>
     </g>
    </g>
   </g>
  </g>
 </g>
 <defs>
  <clipPath id="pb10485546c">
   <rect x="162" y="17.28" width="218.347826" height="108.72"/>
  </clipPath>
  <clipPath id="p303cb9d461">
   <rect x="424.017391" y="17.28" width="218.347826" height="108.72"/>
  </clipPath>
  <clipPath id="p5ab8e1d20f">
   <rect x="686.034783" y="17.28" width="218.347826" height="108.72"/>
  </clipPath>
  <clipPath id="pc5f0c5ecab">
   <rect x="948.052174" y="17.28" width="218.347826" height="108.72"/>
  </clipPath>
 </defs>
</svg>
