<?xml version="1.0" encoding="utf-8" standalone="no"?>
<!DOCTYPE svg PUBLIC "-//W3C//DTD SVG 1.1//EN"
  "http://www.w3.org/Graphics/SVG/1.1/DTD/svg11.dtd">
<svg xmlns:xlink="http://www.w3.org/1999/xlink" width="864pt" height="432pt" viewBox="0 0 864 432" xmlns="http://www.w3.org/2000/svg" version="1.1">
 <metadata>
  <rdf:RDF xmlns:dc="http://purl.org/dc/elements/1.1/" xmlns:cc="http://creativecommons.org/ns#" xmlns:rdf="http://www.w3.org/1999/02/22-rdf-syntax-ns#">
   <cc:Work>
    <dc:type rdf:resource="http://purl.org/dc/dcmitype/StillImage"/>
    <dc:date>2022-08-04T11:53:23.729185</dc:date>
    <dc:format>image/svg+xml</dc:format>
    <dc:creator>
     <cc:Agent>
      <dc:title>Matplotlib v3.5.1, https://matplotlib.org/</dc:title>
     </cc:Agent>
    </dc:creator>
   </cc:Work>
  </rdf:RDF>
 </metadata>
 <defs>
  <style type="text/css">*{stroke-linejoin: round; stroke-linecap: butt}</style>
 </defs>
 <g id="figure_1">
  <g id="patch_1">
   <path d="M 0 432 
L 864 432 
L 864 0 
L 0 0 
L 0 432 
z
" style="fill: none"/>
  </g>
  <g id="axes_1">
   <g id="patch_2">
    <path d="M 49.44 387.56 
L 844.56 387.56 
L 844.56 41.44 
L 49.44 41.44 
z
" style="fill: #ffffff"/>
   </g>
   <g id="patch_3">
    <path d="M 166.579741 387.56 
L 174.004019 387.56 
L 174.004019 371.934514 
L 166.579741 371.934514 
z
" clip-path="url(#p092007dbb9)" style="fill: #1f77b4; opacity: 0.4"/>
   </g>
   <g id="patch_4">
    <path d="M 174.004019 387.56 
L 181.428297 387.56 
L 181.428297 356.309028 
L 174.004019 356.309028 
z
" clip-path="url(#p092007dbb9)" style="fill: #1f77b4; opacity: 0.4"/>
   </g>
   <g id="patch_5">
    <path d="M 181.428297 387.56 
L 188.852575 387.56 
L 188.852575 293.807084 
L 181.428297 293.807084 
z
" clip-path="url(#p092007dbb9)" style="fill: #1f77b4; opacity: 0.4"/>
   </g>
   <g id="patch_6">
    <path d="M 188.852575 387.56 
L 196.276853 387.56 
L 196.276853 239.117882 
L 188.852575 239.117882 
z
" clip-path="url(#p092007dbb9)" style="fill: #1f77b4; opacity: 0.4"/>
   </g>
   <g id="patch_7">
    <path d="M 196.276853 387.56 
L 203.701131 387.56 
L 203.701131 223.492396 
L 196.276853 223.492396 
z
" clip-path="url(#p092007dbb9)" style="fill: #1f77b4; opacity: 0.4"/>
   </g>
   <g id="patch_8">
    <path d="M 203.701131 387.56 
L 211.125408 387.56 
L 211.125408 160.990452 
L 203.701131 160.990452 
z
" clip-path="url(#p092007dbb9)" style="fill: #1f77b4; opacity: 0.4"/>
   </g>
   <g id="patch_9">
    <path d="M 211.125408 387.56 
L 218.549686 387.56 
L 218.549686 121.926737 
L 211.125408 121.926737 
z
" clip-path="url(#p092007dbb9)" style="fill: #1f77b4; opacity: 0.4"/>
   </g>
   <g id="patch_10">
    <path d="M 218.549686 387.56 
L 225.973964 387.56 
L 225.973964 106.301251 
L 218.549686 106.301251 
z
" clip-path="url(#p092007dbb9)" style="fill: #1f77b4; opacity: 0.4"/>
   </g>
   <g id="patch_11">
    <path d="M 225.973964 387.56 
L 233.398242 387.56 
L 233.398242 160.990452 
L 225.973964 160.990452 
z
" clip-path="url(#p092007dbb9)" style="fill: #1f77b4; opacity: 0.4"/>
   </g>
   <g id="patch_12">
    <path d="M 233.398242 387.56 
L 240.82252 387.56 
L 240.82252 82.863022 
L 233.398242 82.863022 
z
" clip-path="url(#p092007dbb9)" style="fill: #1f77b4; opacity: 0.4"/>
   </g>
   <g id="patch_13">
    <path d="M 240.82252 387.56 
L 248.246797 387.56 
L 248.246797 137.552223 
L 240.82252 137.552223 
z
" clip-path="url(#p092007dbb9)" style="fill: #1f77b4; opacity: 0.4"/>
   </g>
   <g id="patch_14">
    <path d="M 248.246797 387.56 
L 255.671075 387.56 
L 255.671075 200.054167 
L 248.246797 200.054167 
z
" clip-path="url(#p092007dbb9)" style="fill: #1f77b4; opacity: 0.4"/>
   </g>
   <g id="patch_15">
    <path d="M 255.671075 387.56 
L 263.095353 387.56 
L 263.095353 223.492396 
L 255.671075 223.492396 
z
" clip-path="url(#p092007dbb9)" style="fill: #1f77b4; opacity: 0.4"/>
   </g>
   <g id="patch_16">
    <path d="M 263.095353 387.56 
L 270.519631 387.56 
L 270.519631 262.556111 
L 263.095353 262.556111 
z
" clip-path="url(#p092007dbb9)" style="fill: #1f77b4; opacity: 0.4"/>
   </g>
   <g id="patch_17">
    <path d="M 270.519631 387.56 
L 277.943909 387.56 
L 277.943909 348.496285 
L 270.519631 348.496285 
z
" clip-path="url(#p092007dbb9)" style="fill: #1f77b4; opacity: 0.4"/>
   </g>
   <g id="patch_18">
    <path d="M 277.943909 387.56 
L 285.368186 387.56 
L 285.368186 332.870799 
L 277.943909 332.870799 
z
" clip-path="url(#p092007dbb9)" style="fill: #1f77b4; opacity: 0.4"/>
   </g>
   <g id="patch_19">
    <path d="M 285.368186 387.56 
L 292.792464 387.56 
L 292.792464 348.496285 
L 285.368186 348.496285 
z
" clip-path="url(#p092007dbb9)" style="fill: #1f77b4; opacity: 0.4"/>
   </g>
   <g id="patch_20">
    <path d="M 292.792464 387.56 
L 300.216742 387.56 
L 300.216742 371.934514 
L 292.792464 371.934514 
z
" clip-path="url(#p092007dbb9)" style="fill: #1f77b4; opacity: 0.4"/>
   </g>
   <g id="patch_21">
    <path d="M 300.216742 387.56 
L 307.64102 387.56 
L 307.64102 371.934514 
L 300.216742 371.934514 
z
" clip-path="url(#p092007dbb9)" style="fill: #1f77b4; opacity: 0.4"/>
   </g>
   <g id="patch_22">
    <path d="M 307.64102 387.56 
L 315.065298 387.56 
L 315.065298 371.934514 
L 307.64102 371.934514 
z
" clip-path="url(#p092007dbb9)" style="fill: #1f77b4; opacity: 0.4"/>
   </g>
   <g id="patch_23">
    <path d="M 144.065364 387.56 
L 152.328665 387.56 
L 152.328665 357.164587 
L 144.065364 357.164587 
z
" clip-path="url(#p092007dbb9)" style="fill: #2ca02c; opacity: 0.4"/>
   </g>
   <g id="patch_24">
    <path d="M 152.328665 387.56 
L 160.591965 387.56 
L 160.591965 296.373762 
L 152.328665 296.373762 
z
" clip-path="url(#p092007dbb9)" style="fill: #2ca02c; opacity: 0.4"/>
   </g>
   <g id="patch_25">
    <path d="M 160.591965 387.56 
L 168.855265 387.56 
L 168.855265 265.978349 
L 160.591965 265.978349 
z
" clip-path="url(#p092007dbb9)" style="fill: #2ca02c; opacity: 0.4"/>
   </g>
   <g id="patch_26">
    <path d="M 168.855265 387.56 
L 177.118565 387.56 
L 177.118565 296.373762 
L 168.855265 296.373762 
z
" clip-path="url(#p092007dbb9)" style="fill: #2ca02c; opacity: 0.4"/>
   </g>
   <g id="patch_27">
    <path d="M 177.118565 387.56 
L 185.381865 387.56 
L 185.381865 212.786377 
L 177.118565 212.786377 
z
" clip-path="url(#p092007dbb9)" style="fill: #2ca02c; opacity: 0.4"/>
   </g>
   <g id="patch_28">
    <path d="M 185.381865 387.56 
L 193.645165 387.56 
L 193.645165 189.989817 
L 185.381865 189.989817 
z
" clip-path="url(#p092007dbb9)" style="fill: #2ca02c; opacity: 0.4"/>
   </g>
   <g id="patch_29">
    <path d="M 193.645165 387.56 
L 201.908465 387.56 
L 201.908465 250.780643 
L 193.645165 250.780643 
z
" clip-path="url(#p092007dbb9)" style="fill: #2ca02c; opacity: 0.4"/>
   </g>
   <g id="patch_30">
    <path d="M 201.908465 387.56 
L 210.171765 387.56 
L 210.171765 159.594404 
L 201.908465 159.594404 
z
" clip-path="url(#p092007dbb9)" style="fill: #2ca02c; opacity: 0.4"/>
   </g>
   <g id="patch_31">
    <path d="M 210.171765 387.56 
L 218.435065 387.56 
L 218.435065 197.58867 
L 210.171765 197.58867 
z
" clip-path="url(#p092007dbb9)" style="fill: #2ca02c; opacity: 0.4"/>
   </g>
   <g id="patch_32">
    <path d="M 218.435065 387.56 
L 226.698366 387.56 
L 226.698366 205.187524 
L 218.435065 205.187524 
z
" clip-path="url(#p092007dbb9)" style="fill: #2ca02c; opacity: 0.4"/>
   </g>
   <g id="patch_33">
    <path d="M 226.698366 387.56 
L 234.961666 387.56 
L 234.961666 182.390964 
L 226.698366 182.390964 
z
" clip-path="url(#p092007dbb9)" style="fill: #2ca02c; opacity: 0.4"/>
   </g>
   <g id="patch_34">
    <path d="M 234.961666 387.56 
L 243.224966 387.56 
L 243.224966 288.774909 
L 234.961666 288.774909 
z
" clip-path="url(#p092007dbb9)" style="fill: #2ca02c; opacity: 0.4"/>
   </g>
   <g id="patch_35">
    <path d="M 243.224966 387.56 
L 251.488266 387.56 
L 251.488266 205.187524 
L 243.224966 205.187524 
z
" clip-path="url(#p092007dbb9)" style="fill: #2ca02c; opacity: 0.4"/>
   </g>
   <g id="patch_36">
    <path d="M 251.488266 387.56 
L 259.751566 387.56 
L 259.751566 212.786377 
L 251.488266 212.786377 
z
" clip-path="url(#p092007dbb9)" style="fill: #2ca02c; opacity: 0.4"/>
   </g>
   <g id="patch_37">
    <path d="M 259.751566 387.56 
L 268.014866 387.56 
L 268.014866 303.972615 
L 259.751566 303.972615 
z
" clip-path="url(#p092007dbb9)" style="fill: #2ca02c; opacity: 0.4"/>
   </g>
   <g id="patch_38">
    <path d="M 268.014866 387.56 
L 276.278166 387.56 
L 276.278166 349.565734 
L 268.014866 349.565734 
z
" clip-path="url(#p092007dbb9)" style="fill: #2ca02c; opacity: 0.4"/>
   </g>
   <g id="patch_39">
    <path d="M 276.278166 387.56 
L 284.541466 387.56 
L 284.541466 326.769175 
L 276.278166 326.769175 
z
" clip-path="url(#p092007dbb9)" style="fill: #2ca02c; opacity: 0.4"/>
   </g>
   <g id="patch_40">
    <path d="M 284.541466 387.56 
L 292.804766 387.56 
L 292.804766 372.362294 
L 284.541466 372.362294 
z
" clip-path="url(#p092007dbb9)" style="fill: #2ca02c; opacity: 0.4"/>
   </g>
   <g id="patch_41">
    <path d="M 292.804766 387.56 
L 301.068067 387.56 
L 301.068067 319.170321 
L 292.804766 319.170321 
z
" clip-path="url(#p092007dbb9)" style="fill: #2ca02c; opacity: 0.4"/>
   </g>
   <g id="patch_42">
    <path d="M 301.068067 387.56 
L 309.331367 387.56 
L 309.331367 364.76344 
L 301.068067 364.76344 
z
" clip-path="url(#p092007dbb9)" style="fill: #2ca02c; opacity: 0.4"/>
   </g>
   <g id="patch_43">
    <path d="M 162.839584 387.56 
L 169.61111 387.56 
L 169.61111 305.150476 
L 162.839584 305.150476 
z
" clip-path="url(#p092007dbb9)" style="fill: #9467bd; opacity: 0.4"/>
   </g>
   <g id="patch_44">
    <path d="M 169.61111 387.56 
L 176.382636 387.56 
L 176.382636 369.246772 
L 169.61111 369.246772 
z
" clip-path="url(#p092007dbb9)" style="fill: #9467bd; opacity: 0.4"/>
   </g>
   <g id="patch_45">
    <path d="M 176.382636 387.56 
L 183.154162 387.56 
L 183.154162 259.367407 
L 176.382636 259.367407 
z
" clip-path="url(#p092007dbb9)" style="fill: #9467bd; opacity: 0.4"/>
   </g>
   <g id="patch_46">
    <path d="M 183.154162 387.56 
L 189.925688 387.56 
L 189.925688 231.897566 
L 183.154162 231.897566 
z
" clip-path="url(#p092007dbb9)" style="fill: #9467bd; opacity: 0.4"/>
   </g>
   <g id="patch_47">
    <path d="M 189.925688 387.56 
L 196.697214 387.56 
L 196.697214 250.210794 
L 189.925688 250.210794 
z
" clip-path="url(#p092007dbb9)" style="fill: #9467bd; opacity: 0.4"/>
   </g>
   <g id="patch_48">
    <path d="M 196.697214 387.56 
L 203.46874 387.56 
L 203.46874 76.235132 
L 196.697214 76.235132 
z
" clip-path="url(#p092007dbb9)" style="fill: #9467bd; opacity: 0.4"/>
   </g>
   <g id="patch_49">
    <path d="M 203.46874 387.56 
L 210.240266 387.56 
L 210.240266 103.704974 
L 203.46874 103.704974 
z
" clip-path="url(#p092007dbb9)" style="fill: #9467bd; opacity: 0.4"/>
   </g>
   <g id="patch_50">
    <path d="M 210.240266 387.56 
L 217.011793 387.56 
L 217.011793 94.54836 
L 210.240266 94.54836 
z
" clip-path="url(#p092007dbb9)" style="fill: #9467bd; opacity: 0.4"/>
   </g>
   <g id="patch_51">
    <path d="M 217.011793 387.56 
L 223.783319 387.56 
L 223.783319 103.704974 
L 217.011793 103.704974 
z
" clip-path="url(#p092007dbb9)" style="fill: #9467bd; opacity: 0.4"/>
   </g>
   <g id="patch_52">
    <path d="M 223.783319 387.56 
L 230.554845 387.56 
L 230.554845 140.331429 
L 223.783319 140.331429 
z
" clip-path="url(#p092007dbb9)" style="fill: #9467bd; opacity: 0.4"/>
   </g>
   <g id="patch_53">
    <path d="M 230.554845 387.56 
L 237.326371 387.56 
L 237.326371 57.921905 
L 230.554845 57.921905 
z
" clip-path="url(#p092007dbb9)" style="fill: #9467bd; opacity: 0.4"/>
   </g>
   <g id="patch_54">
    <path d="M 237.326371 387.56 
L 244.097897 387.56 
L 244.097897 213.584339 
L 237.326371 213.584339 
z
" clip-path="url(#p092007dbb9)" style="fill: #9467bd; opacity: 0.4"/>
   </g>
   <g id="patch_55">
    <path d="M 244.097897 387.56 
L 250.869423 387.56 
L 250.869423 295.993862 
L 244.097897 295.993862 
z
" clip-path="url(#p092007dbb9)" style="fill: #9467bd; opacity: 0.4"/>
   </g>
   <g id="patch_56">
    <path d="M 250.869423 387.56 
L 257.640949 387.56 
L 257.640949 295.993862 
L 250.869423 295.993862 
z
" clip-path="url(#p092007dbb9)" style="fill: #9467bd; opacity: 0.4"/>
   </g>
   <g id="patch_57">
    <path d="M 257.640949 387.56 
L 264.412475 387.56 
L 264.412475 314.30709 
L 257.640949 314.30709 
z
" clip-path="url(#p092007dbb9)" style="fill: #9467bd; opacity: 0.4"/>
   </g>
   <g id="patch_58">
    <path d="M 264.412475 387.56 
L 271.184001 387.56 
L 271.184001 295.993862 
L 264.412475 295.993862 
z
" clip-path="url(#p092007dbb9)" style="fill: #9467bd; opacity: 0.4"/>
   </g>
   <g id="patch_59">
    <path d="M 271.184001 387.56 
L 277.955527 387.56 
L 277.955527 341.776931 
L 271.184001 341.776931 
z
" clip-path="url(#p092007dbb9)" style="fill: #9467bd; opacity: 0.4"/>
   </g>
   <g id="patch_60">
    <path d="M 277.955527 387.56 
L 284.727053 387.56 
L 284.727053 350.933545 
L 277.955527 350.933545 
z
" clip-path="url(#p092007dbb9)" style="fill: #9467bd; opacity: 0.4"/>
   </g>
   <g id="patch_61">
    <path d="M 284.727053 387.56 
L 291.498579 387.56 
L 291.498579 369.246772 
L 284.727053 369.246772 
z
" clip-path="url(#p092007dbb9)" style="fill: #9467bd; opacity: 0.4"/>
   </g>
   <g id="patch_62">
    <path d="M 291.498579 387.56 
L 298.270106 387.56 
L 298.270106 360.090159 
L 291.498579 360.090159 
z
" clip-path="url(#p092007dbb9)" style="fill: #9467bd; opacity: 0.4"/>
   </g>
   <g id="patch_63">
    <path d="M 153.745811 387.56 
L 162.261956 387.56 
L 162.261956 357.396734 
L 153.745811 357.396734 
z
" clip-path="url(#p092007dbb9)" style="fill: #e377c2; opacity: 0.4"/>
   </g>
   <g id="patch_64">
    <path d="M 162.261956 387.56 
L 170.778101 387.56 
L 170.778101 340.160583 
L 162.261956 340.160583 
z
" clip-path="url(#p092007dbb9)" style="fill: #e377c2; opacity: 0.4"/>
   </g>
   <g id="patch_65">
    <path d="M 170.778101 387.56 
L 179.294246 387.56 
L 179.294246 284.14309 
L 170.778101 284.14309 
z
" clip-path="url(#p092007dbb9)" style="fill: #e377c2; opacity: 0.4"/>
   </g>
   <g id="patch_66">
    <path d="M 179.294246 387.56 
L 187.810391 387.56 
L 187.810391 228.125597 
L 179.294246 228.125597 
z
" clip-path="url(#p092007dbb9)" style="fill: #e377c2; opacity: 0.4"/>
   </g>
   <g id="patch_67">
    <path d="M 187.810391 387.56 
L 196.326536 387.56 
L 196.326536 81.618307 
L 187.810391 81.618307 
z
" clip-path="url(#p092007dbb9)" style="fill: #e377c2; opacity: 0.4"/>
   </g>
   <g id="patch_68">
    <path d="M 196.326536 387.56 
L 204.842681 387.56 
L 204.842681 163.490028 
L 196.326536 163.490028 
z
" clip-path="url(#p092007dbb9)" style="fill: #e377c2; opacity: 0.4"/>
   </g>
   <g id="patch_69">
    <path d="M 204.842681 387.56 
L 213.358827 387.56 
L 213.358827 90.236383 
L 204.842681 90.236383 
z
" clip-path="url(#p092007dbb9)" style="fill: #e377c2; opacity: 0.4"/>
   </g>
   <g id="patch_70">
    <path d="M 213.358827 387.56 
L 221.874972 387.56 
L 221.874972 202.271369 
L 213.358827 202.271369 
z
" clip-path="url(#p092007dbb9)" style="fill: #e377c2; opacity: 0.4"/>
   </g>
   <g id="patch_71">
    <path d="M 221.874972 387.56 
L 230.391117 387.56 
L 230.391117 189.344255 
L 221.874972 189.344255 
z
" clip-path="url(#p092007dbb9)" style="fill: #e377c2; opacity: 0.4"/>
   </g>
   <g id="patch_72">
    <path d="M 230.391117 387.56 
L 238.907262 387.56 
L 238.907262 193.653293 
L 230.391117 193.653293 
z
" clip-path="url(#p092007dbb9)" style="fill: #e377c2; opacity: 0.4"/>
   </g>
   <g id="patch_73">
    <path d="M 238.907262 387.56 
L 247.423407 387.56 
L 247.423407 210.889445 
L 238.907262 210.889445 
z
" clip-path="url(#p092007dbb9)" style="fill: #e377c2; opacity: 0.4"/>
   </g>
   <g id="patch_74">
    <path d="M 247.423407 387.56 
L 255.939552 387.56 
L 255.939552 215.198483 
L 247.423407 215.198483 
z
" clip-path="url(#p092007dbb9)" style="fill: #e377c2; opacity: 0.4"/>
   </g>
   <g id="patch_75">
    <path d="M 255.939552 387.56 
L 264.455697 387.56 
L 264.455697 318.615393 
L 255.939552 318.615393 
z
" clip-path="url(#p092007dbb9)" style="fill: #e377c2; opacity: 0.4"/>
   </g>
   <g id="patch_76">
    <path d="M 264.455697 387.56 
L 272.971842 387.56 
L 272.971842 309.997317 
L 264.455697 309.997317 
z
" clip-path="url(#p092007dbb9)" style="fill: #e377c2; opacity: 0.4"/>
   </g>
   <g id="patch_77">
    <path d="M 272.971842 387.56 
L 281.487987 387.56 
L 281.487987 348.778659 
L 272.971842 348.778659 
z
" clip-path="url(#p092007dbb9)" style="fill: #e377c2; opacity: 0.4"/>
   </g>
   <g id="patch_78">
    <path d="M 281.487987 387.56 
L 290.004132 387.56 
L 290.004132 374.632886 
L 281.487987 374.632886 
z
" clip-path="url(#p092007dbb9)" style="fill: #e377c2; opacity: 0.4"/>
   </g>
   <g id="patch_79">
    <path d="M 290.004132 387.56 
L 298.520277 387.56 
L 298.520277 374.632886 
L 290.004132 374.632886 
z
" clip-path="url(#p092007dbb9)" style="fill: #e377c2; opacity: 0.4"/>
   </g>
   <g id="patch_80">
    <path d="M 298.520277 387.56 
L 307.036423 387.56 
L 307.036423 378.941924 
L 298.520277 378.941924 
z
" clip-path="url(#p092007dbb9)" style="fill: #e377c2; opacity: 0.4"/>
   </g>
   <g id="patch_81">
    <path d="M 307.036423 387.56 
L 315.552568 387.56 
L 315.552568 383.250962 
L 307.036423 383.250962 
z
" clip-path="url(#p092007dbb9)" style="fill: #e377c2; opacity: 0.4"/>
   </g>
   <g id="patch_82">
    <path d="M 315.552568 387.56 
L 324.068713 387.56 
L 324.068713 383.250962 
L 315.552568 383.250962 
z
" clip-path="url(#p092007dbb9)" style="fill: #e377c2; opacity: 0.4"/>
   </g>
   <g id="patch_83">
    <path d="M 155.399164 387.56 
L 163.345931 387.56 
L 163.345931 346.94725 
L 155.399164 346.94725 
z
" clip-path="url(#p092007dbb9)" style="fill: #ff7f0e; opacity: 0.4"/>
   </g>
   <g id="patch_84">
    <path d="M 163.345931 387.56 
L 171.292698 387.56 
L 171.292698 346.94725 
L 163.345931 346.94725 
z
" clip-path="url(#p092007dbb9)" style="fill: #ff7f0e; opacity: 0.4"/>
   </g>
   <g id="patch_85">
    <path d="M 171.292698 387.56 
L 179.239465 387.56 
L 179.239465 259.91993 
L 171.292698 259.91993 
z
" clip-path="url(#p092007dbb9)" style="fill: #ff7f0e; opacity: 0.4"/>
   </g>
   <g id="patch_86">
    <path d="M 179.239465 387.56 
L 187.186233 387.56 
L 187.186233 161.288967 
L 179.239465 161.288967 
z
" clip-path="url(#p092007dbb9)" style="fill: #ff7f0e; opacity: 0.4"/>
   </g>
   <g id="patch_87">
    <path d="M 187.186233 387.56 
L 195.133 387.56 
L 195.133 172.892609 
L 187.186233 172.892609 
z
" clip-path="url(#p092007dbb9)" style="fill: #ff7f0e; opacity: 0.4"/>
   </g>
   <g id="patch_88">
    <path d="M 195.133 387.56 
L 203.079767 387.56 
L 203.079767 80.063468 
L 195.133 80.063468 
z
" clip-path="url(#p092007dbb9)" style="fill: #ff7f0e; opacity: 0.4"/>
   </g>
   <g id="patch_89">
    <path d="M 203.079767 387.56 
L 211.026534 387.56 
L 211.026534 132.27986 
L 203.079767 132.27986 
z
" clip-path="url(#p092007dbb9)" style="fill: #ff7f0e; opacity: 0.4"/>
   </g>
   <g id="patch_90">
    <path d="M 211.026534 387.56 
L 218.973301 387.56 
L 218.973301 74.261646 
L 211.026534 74.261646 
z
" clip-path="url(#p092007dbb9)" style="fill: #ff7f0e; opacity: 0.4"/>
   </g>
   <g id="patch_91">
    <path d="M 218.973301 387.56 
L 226.920068 387.56 
L 226.920068 97.468932 
L 218.973301 97.468932 
z
" clip-path="url(#p092007dbb9)" style="fill: #ff7f0e; opacity: 0.4"/>
   </g>
   <g id="patch_92">
    <path d="M 226.920068 387.56 
L 234.866836 387.56 
L 234.866836 230.910823 
L 226.920068 230.910823 
z
" clip-path="url(#p092007dbb9)" style="fill: #ff7f0e; opacity: 0.4"/>
   </g>
   <g id="patch_93">
    <path d="M 234.866836 387.56 
L 242.813603 387.56 
L 242.813603 190.298074 
L 234.866836 190.298074 
z
" clip-path="url(#p092007dbb9)" style="fill: #ff7f0e; opacity: 0.4"/>
   </g>
   <g id="patch_94">
    <path d="M 242.813603 387.56 
L 250.76037 387.56 
L 250.76037 294.730858 
L 242.813603 294.730858 
z
" clip-path="url(#p092007dbb9)" style="fill: #ff7f0e; opacity: 0.4"/>
   </g>
   <g id="patch_95">
    <path d="M 250.76037 387.56 
L 258.707137 387.56 
L 258.707137 312.136322 
L 250.76037 312.136322 
z
" clip-path="url(#p092007dbb9)" style="fill: #ff7f0e; opacity: 0.4"/>
   </g>
   <g id="patch_96">
    <path d="M 258.707137 387.56 
L 266.653904 387.56 
L 266.653904 341.145429 
L 258.707137 341.145429 
z
" clip-path="url(#p092007dbb9)" style="fill: #ff7f0e; opacity: 0.4"/>
   </g>
   <g id="patch_97">
    <path d="M 266.653904 387.56 
L 274.600671 387.56 
L 274.600671 352.749072 
L 266.653904 352.749072 
z
" clip-path="url(#p092007dbb9)" style="fill: #ff7f0e; opacity: 0.4"/>
   </g>
   <g id="patch_98">
    <path d="M 274.600671 387.56 
L 282.547439 387.56 
L 282.547439 364.352715 
L 274.600671 364.352715 
z
" clip-path="url(#p092007dbb9)" style="fill: #ff7f0e; opacity: 0.4"/>
   </g>
   <g id="patch_99">
    <path d="M 282.547439 387.56 
L 290.494206 387.56 
L 290.494206 370.154536 
L 282.547439 370.154536 
z
" clip-path="url(#p092007dbb9)" style="fill: #ff7f0e; opacity: 0.4"/>
   </g>
   <g id="patch_100">
    <path d="M 290.494206 387.56 
L 298.440973 387.56 
L 298.440973 381.758179 
L 290.494206 381.758179 
z
" clip-path="url(#p092007dbb9)" style="fill: #ff7f0e; opacity: 0.4"/>
   </g>
   <g id="patch_101">
    <path d="M 298.440973 387.56 
L 306.38774 387.56 
L 306.38774 381.758179 
L 298.440973 381.758179 
z
" clip-path="url(#p092007dbb9)" style="fill: #ff7f0e; opacity: 0.4"/>
   </g>
   <g id="patch_102">
    <path d="M 306.38774 387.56 
L 314.334507 387.56 
L 314.334507 370.154536 
L 306.38774 370.154536 
z
" clip-path="url(#p092007dbb9)" style="fill: #ff7f0e; opacity: 0.4"/>
   </g>
   <g id="patch_103">
    <path d="M 128.842423 387.56 
L 137.942876 387.56 
L 137.942876 383.985251 
L 128.842423 383.985251 
z
" clip-path="url(#p092007dbb9)" style="fill: #d62728; opacity: 0.4"/>
   </g>
   <g id="patch_104">
    <path d="M 137.942876 387.56 
L 147.04333 387.56 
L 147.04333 355.387262 
L 137.942876 355.387262 
z
" clip-path="url(#p092007dbb9)" style="fill: #d62728; opacity: 0.4"/>
   </g>
   <g id="patch_105">
    <path d="M 147.04333 387.56 
L 156.143784 387.56 
L 156.143784 316.065026 
L 147.04333 316.065026 
z
" clip-path="url(#p092007dbb9)" style="fill: #d62728; opacity: 0.4"/>
   </g>
   <g id="patch_106">
    <path d="M 156.143784 387.56 
L 165.244237 387.56 
L 165.244237 226.696309 
L 156.143784 226.696309 
z
" clip-path="url(#p092007dbb9)" style="fill: #d62728; opacity: 0.4"/>
   </g>
   <g id="patch_107">
    <path d="M 165.244237 387.56 
L 174.344691 387.56 
L 174.344691 223.12156 
L 165.244237 223.12156 
z
" clip-path="url(#p092007dbb9)" style="fill: #d62728; opacity: 0.4"/>
   </g>
   <g id="patch_108">
    <path d="M 174.344691 387.56 
L 183.445144 387.56 
L 183.445144 226.696309 
L 174.344691 226.696309 
z
" clip-path="url(#p092007dbb9)" style="fill: #d62728; opacity: 0.4"/>
   </g>
   <g id="patch_109">
    <path d="M 183.445144 387.56 
L 192.545598 387.56 
L 192.545598 198.098319 
L 183.445144 198.098319 
z
" clip-path="url(#p092007dbb9)" style="fill: #d62728; opacity: 0.4"/>
   </g>
   <g id="patch_110">
    <path d="M 192.545598 387.56 
L 201.646052 387.56 
L 201.646052 248.144801 
L 192.545598 248.144801 
z
" clip-path="url(#p092007dbb9)" style="fill: #d62728; opacity: 0.4"/>
   </g>
   <g id="patch_111">
    <path d="M 201.646052 387.56 
L 210.746505 387.56 
L 210.746505 208.822566 
L 201.646052 208.822566 
z
" clip-path="url(#p092007dbb9)" style="fill: #d62728; opacity: 0.4"/>
   </g>
   <g id="patch_112">
    <path d="M 210.746505 387.56 
L 219.846959 387.56 
L 219.846959 194.523571 
L 210.746505 194.523571 
z
" clip-path="url(#p092007dbb9)" style="fill: #d62728; opacity: 0.4"/>
   </g>
   <g id="patch_113">
    <path d="M 219.846959 387.56 
L 228.947412 387.56 
L 228.947412 190.948822 
L 219.846959 190.948822 
z
" clip-path="url(#p092007dbb9)" style="fill: #d62728; opacity: 0.4"/>
   </g>
   <g id="patch_114">
    <path d="M 228.947412 387.56 
L 238.047866 387.56 
L 238.047866 230.271058 
L 228.947412 230.271058 
z
" clip-path="url(#p092007dbb9)" style="fill: #d62728; opacity: 0.4"/>
   </g>
   <g id="patch_115">
    <path d="M 238.047866 387.56 
L 247.14832 387.56 
L 247.14832 244.570052 
L 238.047866 244.570052 
z
" clip-path="url(#p092007dbb9)" style="fill: #d62728; opacity: 0.4"/>
   </g>
   <g id="patch_116">
    <path d="M 247.14832 387.56 
L 256.248773 387.56 
L 256.248773 312.490278 
L 247.14832 312.490278 
z
" clip-path="url(#p092007dbb9)" style="fill: #d62728; opacity: 0.4"/>
   </g>
   <g id="patch_117">
    <path d="M 256.248773 387.56 
L 265.349227 387.56 
L 265.349227 273.168042 
L 256.248773 273.168042 
z
" clip-path="url(#p092007dbb9)" style="fill: #d62728; opacity: 0.4"/>
   </g>
   <g id="patch_118">
    <path d="M 265.349227 387.56 
L 274.44968 387.56 
L 274.44968 312.490278 
L 265.349227 312.490278 
z
" clip-path="url(#p092007dbb9)" style="fill: #d62728; opacity: 0.4"/>
   </g>
   <g id="patch_119">
    <path d="M 274.44968 387.56 
L 283.550134 387.56 
L 283.550134 333.93877 
L 274.44968 333.93877 
z
" clip-path="url(#p092007dbb9)" style="fill: #d62728; opacity: 0.4"/>
   </g>
   <g id="patch_120">
    <path d="M 283.550134 387.56 
L 292.650587 387.56 
L 292.650587 366.111508 
L 283.550134 366.111508 
z
" clip-path="url(#p092007dbb9)" style="fill: #d62728; opacity: 0.4"/>
   </g>
   <g id="patch_121">
    <path d="M 292.650587 387.56 
L 301.751041 387.56 
L 301.751041 369.686257 
L 292.650587 369.686257 
z
" clip-path="url(#p092007dbb9)" style="fill: #d62728; opacity: 0.4"/>
   </g>
   <g id="patch_122">
    <path d="M 301.751041 387.56 
L 310.851495 387.56 
L 310.851495 362.536759 
L 301.751041 362.536759 
z
" clip-path="url(#p092007dbb9)" style="fill: #d62728; opacity: 0.4"/>
   </g>
   <g id="patch_123">
    <path d="M 147.512565 387.56 
L 156.094842 387.56 
L 156.094842 357.499029 
L 147.512565 357.499029 
z
" clip-path="url(#p092007dbb9)" style="fill: #8c564b; opacity: 0.4"/>
   </g>
   <g id="patch_124">
    <path d="M 156.094842 387.56 
L 164.67712 387.56 
L 164.67712 312.407572 
L 156.094842 312.407572 
z
" clip-path="url(#p092007dbb9)" style="fill: #8c564b; opacity: 0.4"/>
   </g>
   <g id="patch_125">
    <path d="M 164.67712 387.56 
L 173.259397 387.56 
L 173.259397 297.377087 
L 164.67712 297.377087 
z
" clip-path="url(#p092007dbb9)" style="fill: #8c564b; opacity: 0.4"/>
   </g>
   <g id="patch_126">
    <path d="M 173.259397 387.56 
L 181.841674 387.56 
L 181.841674 217.214497 
L 173.259397 217.214497 
z
" clip-path="url(#p092007dbb9)" style="fill: #8c564b; opacity: 0.4"/>
   </g>
   <g id="patch_127">
    <path d="M 181.841674 387.56 
L 190.423952 387.56 
L 190.423952 152.082393 
L 181.841674 152.082393 
z
" clip-path="url(#p092007dbb9)" style="fill: #8c564b; opacity: 0.4"/>
   </g>
   <g id="patch_128">
    <path d="M 190.423952 387.56 
L 199.006229 387.56 
L 199.006229 86.950289 
L 190.423952 86.950289 
z
" clip-path="url(#p092007dbb9)" style="fill: #8c564b; opacity: 0.4"/>
   </g>
   <g id="patch_129">
    <path d="M 199.006229 387.56 
L 207.588506 387.56 
L 207.588506 157.092555 
L 199.006229 157.092555 
z
" clip-path="url(#p092007dbb9)" style="fill: #8c564b; opacity: 0.4"/>
   </g>
   <g id="patch_130">
    <path d="M 207.588506 387.56 
L 216.170784 387.56 
L 216.170784 71.919803 
L 207.588506 71.919803 
z
" clip-path="url(#p092007dbb9)" style="fill: #8c564b; opacity: 0.4"/>
   </g>
   <g id="patch_131">
    <path d="M 216.170784 387.56 
L 224.753061 387.56 
L 224.753061 182.143364 
L 216.170784 182.143364 
z
" clip-path="url(#p092007dbb9)" style="fill: #8c564b; opacity: 0.4"/>
   </g>
   <g id="patch_132">
    <path d="M 224.753061 387.56 
L 233.335339 387.56 
L 233.335339 242.265306 
L 224.753061 242.265306 
z
" clip-path="url(#p092007dbb9)" style="fill: #8c564b; opacity: 0.4"/>
   </g>
   <g id="patch_133">
    <path d="M 233.335339 387.56 
L 241.917616 387.56 
L 241.917616 227.234821 
L 233.335339 227.234821 
z
" clip-path="url(#p092007dbb9)" style="fill: #8c564b; opacity: 0.4"/>
   </g>
   <g id="patch_134">
    <path d="M 241.917616 387.56 
L 250.499893 387.56 
L 250.499893 257.295792 
L 241.917616 257.295792 
z
" clip-path="url(#p092007dbb9)" style="fill: #8c564b; opacity: 0.4"/>
   </g>
   <g id="patch_135">
    <path d="M 250.499893 387.56 
L 259.082171 387.56 
L 259.082171 297.377087 
L 250.499893 297.377087 
z
" clip-path="url(#p092007dbb9)" style="fill: #8c564b; opacity: 0.4"/>
   </g>
   <g id="patch_136">
    <path d="M 259.082171 387.56 
L 267.664448 387.56 
L 267.664448 347.478705 
L 259.082171 347.478705 
z
" clip-path="url(#p092007dbb9)" style="fill: #8c564b; opacity: 0.4"/>
   </g>
   <g id="patch_137">
    <path d="M 267.664448 387.56 
L 276.246725 387.56 
L 276.246725 357.499029 
L 267.664448 357.499029 
z
" clip-path="url(#p092007dbb9)" style="fill: #8c564b; opacity: 0.4"/>
   </g>
   <g id="patch_138">
    <path d="M 276.246725 387.56 
L 284.829003 387.56 
L 284.829003 357.499029 
L 276.246725 357.499029 
z
" clip-path="url(#p092007dbb9)" style="fill: #8c564b; opacity: 0.4"/>
   </g>
   <g id="patch_139">
    <path d="M 284.829003 387.56 
L 293.41128 387.56 
L 293.41128 377.539676 
L 284.829003 377.539676 
z
" clip-path="url(#p092007dbb9)" style="fill: #8c564b; opacity: 0.4"/>
   </g>
   <g id="patch_140">
    <path d="M 293.41128 387.56 
L 301.993557 387.56 
L 301.993557 387.56 
L 293.41128 387.56 
z
" clip-path="url(#p092007dbb9)" style="fill: #8c564b; opacity: 0.4"/>
   </g>
   <g id="patch_141">
    <path d="M 301.993557 387.56 
L 310.575835 387.56 
L 310.575835 377.539676 
L 301.993557 377.539676 
z
" clip-path="url(#p092007dbb9)" style="fill: #8c564b; opacity: 0.4"/>
   </g>
   <g id="patch_142">
    <path d="M 310.575835 387.56 
L 319.158112 387.56 
L 319.158112 382.549838 
L 310.575835 382.549838 
z
" clip-path="url(#p092007dbb9)" style="fill: #8c564b; opacity: 0.4"/>
   </g>
   <g id="patch_143">
    <path d="M 145.427271 387.56 
L 155.109975 387.56 
L 155.109975 366.18237 
L 145.427271 366.18237 
z
" clip-path="url(#p092007dbb9)" style="fill: #7f7f7f; opacity: 0.4"/>
   </g>
   <g id="patch_144">
    <path d="M 155.109975 387.56 
L 164.792678 387.56 
L 164.792678 337.678863 
L 155.109975 337.678863 
z
" clip-path="url(#p092007dbb9)" style="fill: #7f7f7f; opacity: 0.4"/>
   </g>
   <g id="patch_145">
    <path d="M 164.792678 387.56 
L 174.475382 387.56 
L 174.475382 252.168342 
L 164.792678 252.168342 
z
" clip-path="url(#p092007dbb9)" style="fill: #7f7f7f; opacity: 0.4"/>
   </g>
   <g id="patch_146">
    <path d="M 174.475382 387.56 
L 184.158085 387.56 
L 184.158085 192.786036 
L 174.475382 192.786036 
z
" clip-path="url(#p092007dbb9)" style="fill: #7f7f7f; opacity: 0.4"/>
   </g>
   <g id="patch_147">
    <path d="M 184.158085 387.56 
L 193.840789 387.56 
L 193.840789 90.648469 
L 184.158085 90.648469 
z
" clip-path="url(#p092007dbb9)" style="fill: #7f7f7f; opacity: 0.4"/>
   </g>
   <g id="patch_148">
    <path d="M 193.840789 387.56 
L 203.523492 387.56 
L 203.523492 126.277853 
L 193.840789 126.277853 
z
" clip-path="url(#p092007dbb9)" style="fill: #7f7f7f; opacity: 0.4"/>
   </g>
   <g id="patch_149">
    <path d="M 203.523492 387.56 
L 213.206196 387.56 
L 213.206196 126.277853 
L 203.523492 126.277853 
z
" clip-path="url(#p092007dbb9)" style="fill: #7f7f7f; opacity: 0.4"/>
   </g>
   <g id="patch_150">
    <path d="M 213.206196 387.56 
L 222.888899 387.56 
L 222.888899 204.662497 
L 213.206196 204.662497 
z
" clip-path="url(#p092007dbb9)" style="fill: #7f7f7f; opacity: 0.4"/>
   </g>
   <g id="patch_151">
    <path d="M 222.888899 387.56 
L 232.571603 387.56 
L 232.571603 192.786036 
L 222.888899 192.786036 
z
" clip-path="url(#p092007dbb9)" style="fill: #7f7f7f; opacity: 0.4"/>
   </g>
   <g id="patch_152">
    <path d="M 232.571603 387.56 
L 242.254306 387.56 
L 242.254306 254.543634 
L 232.571603 254.543634 
z
" clip-path="url(#p092007dbb9)" style="fill: #7f7f7f; opacity: 0.4"/>
   </g>
   <g id="patch_153">
    <path d="M 242.254306 387.56 
L 251.93701 387.56 
L 251.93701 259.294219 
L 242.254306 259.294219 
z
" clip-path="url(#p092007dbb9)" style="fill: #7f7f7f; opacity: 0.4"/>
   </g>
   <g id="patch_154">
    <path d="M 251.93701 387.56 
L 261.619713 387.56 
L 261.619713 328.177694 
L 251.93701 328.177694 
z
" clip-path="url(#p092007dbb9)" style="fill: #7f7f7f; opacity: 0.4"/>
   </g>
   <g id="patch_155">
    <path d="M 261.619713 387.56 
L 271.302416 387.56 
L 271.302416 332.928278 
L 261.619713 332.928278 
z
" clip-path="url(#p092007dbb9)" style="fill: #7f7f7f; opacity: 0.4"/>
   </g>
   <g id="patch_156">
    <path d="M 271.302416 387.56 
L 280.98512 387.56 
L 280.98512 366.18237 
L 271.302416 366.18237 
z
" clip-path="url(#p092007dbb9)" style="fill: #7f7f7f; opacity: 0.4"/>
   </g>
   <g id="patch_157">
    <path d="M 280.98512 387.56 
L 290.667823 387.56 
L 290.667823 366.18237 
L 280.98512 366.18237 
z
" clip-path="url(#p092007dbb9)" style="fill: #7f7f7f; opacity: 0.4"/>
   </g>
   <g id="patch_158">
    <path d="M 290.667823 387.56 
L 300.350527 387.56 
L 300.350527 375.683539 
L 290.667823 375.683539 
z
" clip-path="url(#p092007dbb9)" style="fill: #7f7f7f; opacity: 0.4"/>
   </g>
   <g id="patch_159">
    <path d="M 300.350527 387.56 
L 310.03323 387.56 
L 310.03323 380.434123 
L 300.350527 380.434123 
z
" clip-path="url(#p092007dbb9)" style="fill: #7f7f7f; opacity: 0.4"/>
   </g>
   <g id="patch_160">
    <path d="M 310.03323 387.56 
L 319.715934 387.56 
L 319.715934 382.809416 
L 310.03323 382.809416 
z
" clip-path="url(#p092007dbb9)" style="fill: #7f7f7f; opacity: 0.4"/>
   </g>
   <g id="patch_161">
    <path d="M 319.715934 387.56 
L 329.398637 387.56 
L 329.398637 387.56 
L 319.715934 387.56 
z
" clip-path="url(#p092007dbb9)" style="fill: #7f7f7f; opacity: 0.4"/>
   </g>
   <g id="patch_162">
    <path d="M 329.398637 387.56 
L 339.081341 387.56 
L 339.081341 385.184708 
L 329.398637 385.184708 
z
" clip-path="url(#p092007dbb9)" style="fill: #7f7f7f; opacity: 0.4"/>
   </g>
   <g id="matplotlib.axis_1">
    <g id="xtick_1">
     <g id="line2d_1">
      <defs>
       <path id="m0dde07529a" d="M 0 0 
L 0 3.5 
" style="stroke: #000000; stroke-width: 0.8"/>
      </defs>
      <g>
       <use xlink:href="#m0dde07529a" x="85.581818" y="387.56" style="stroke: #000000; stroke-width: 0.8"/>
      </g>
     </g>
     <g id="text_1">
      <!-- 0.0 -->
      <g transform="translate(71.269006 408.237188)scale(0.18 -0.18)">
       <defs>
        <path id="DejaVuSans-30" d="M 2034 4250 
Q 1547 4250 1301 3770 
Q 1056 3291 1056 2328 
Q 1056 1369 1301 889 
Q 1547 409 2034 409 
Q 2525 409 2770 889 
Q 3016 1369 3016 2328 
Q 3016 3291 2770 3770 
Q 2525 4250 2034 4250 
z
M 2034 4750 
Q 2819 4750 3233 4129 
Q 3647 3509 3647 2328 
Q 3647 1150 3233 529 
Q 2819 -91 2034 -91 
Q 1250 -91 836 529 
Q 422 1150 422 2328 
Q 422 3509 836 4129 
Q 1250 4750 2034 4750 
z
" transform="scale(0.015625)"/>
        <path id="DejaVuSans-2e" d="M 684 794 
L 1344 794 
L 1344 0 
L 684 0 
L 684 794 
z
" transform="scale(0.015625)"/>
       </defs>
       <use xlink:href="#DejaVuSans-30"/>
       <use xlink:href="#DejaVuSans-2e" x="63.623047"/>
       <use xlink:href="#DejaVuSans-30" x="95.410156"/>
      </g>
     </g>
    </g>
    <g id="xtick_2">
     <g id="line2d_2">
      <g>
       <use xlink:href="#m0dde07529a" x="230.149091" y="387.56" style="stroke: #000000; stroke-width: 0.8"/>
      </g>
     </g>
     <g id="text_2">
      <!-- 0.2 -->
      <g transform="translate(215.836278 408.237188)scale(0.18 -0.18)">
       <defs>
        <path id="DejaVuSans-32" d="M 1228 531 
L 3431 531 
L 3431 0 
L 469 0 
L 469 531 
Q 828 903 1448 1529 
Q 2069 2156 2228 2338 
Q 2531 2678 2651 2914 
Q 2772 3150 2772 3378 
Q 2772 3750 2511 3984 
Q 2250 4219 1831 4219 
Q 1534 4219 1204 4116 
Q 875 4013 500 3803 
L 500 4441 
Q 881 4594 1212 4672 
Q 1544 4750 1819 4750 
Q 2544 4750 2975 4387 
Q 3406 4025 3406 3419 
Q 3406 3131 3298 2873 
Q 3191 2616 2906 2266 
Q 2828 2175 2409 1742 
Q 1991 1309 1228 531 
z
" transform="scale(0.015625)"/>
       </defs>
       <use xlink:href="#DejaVuSans-30"/>
       <use xlink:href="#DejaVuSans-2e" x="63.623047"/>
       <use xlink:href="#DejaVuSans-32" x="95.410156"/>
      </g>
     </g>
    </g>
    <g id="xtick_3">
     <g id="line2d_3">
      <g>
       <use xlink:href="#m0dde07529a" x="374.716364" y="387.56" style="stroke: #000000; stroke-width: 0.8"/>
      </g>
     </g>
     <g id="text_3">
      <!-- 0.4 -->
      <g transform="translate(360.403551 408.237188)scale(0.18 -0.18)">
       <defs>
        <path id="DejaVuSans-34" d="M 2419 4116 
L 825 1625 
L 2419 1625 
L 2419 4116 
z
M 2253 4666 
L 3047 4666 
L 3047 1625 
L 3713 1625 
L 3713 1100 
L 3047 1100 
L 3047 0 
L 2419 0 
L 2419 1100 
L 313 1100 
L 313 1709 
L 2253 4666 
z
" transform="scale(0.015625)"/>
       </defs>
       <use xlink:href="#DejaVuSans-30"/>
       <use xlink:href="#DejaVuSans-2e" x="63.623047"/>
       <use xlink:href="#DejaVuSans-34" x="95.410156"/>
      </g>
     </g>
    </g>
    <g id="xtick_4">
     <g id="line2d_4">
      <g>
       <use xlink:href="#m0dde07529a" x="519.283636" y="387.56" style="stroke: #000000; stroke-width: 0.8"/>
      </g>
     </g>
     <g id="text_4">
      <!-- 0.6 -->
      <g transform="translate(504.970824 408.237188)scale(0.18 -0.18)">
       <defs>
        <path id="DejaVuSans-36" d="M 2113 2584 
Q 1688 2584 1439 2293 
Q 1191 2003 1191 1497 
Q 1191 994 1439 701 
Q 1688 409 2113 409 
Q 2538 409 2786 701 
Q 3034 994 3034 1497 
Q 3034 2003 2786 2293 
Q 2538 2584 2113 2584 
z
M 3366 4563 
L 3366 3988 
Q 3128 4100 2886 4159 
Q 2644 4219 2406 4219 
Q 1781 4219 1451 3797 
Q 1122 3375 1075 2522 
Q 1259 2794 1537 2939 
Q 1816 3084 2150 3084 
Q 2853 3084 3261 2657 
Q 3669 2231 3669 1497 
Q 3669 778 3244 343 
Q 2819 -91 2113 -91 
Q 1303 -91 875 529 
Q 447 1150 447 2328 
Q 447 3434 972 4092 
Q 1497 4750 2381 4750 
Q 2619 4750 2861 4703 
Q 3103 4656 3366 4563 
z
" transform="scale(0.015625)"/>
       </defs>
       <use xlink:href="#DejaVuSans-30"/>
       <use xlink:href="#DejaVuSans-2e" x="63.623047"/>
       <use xlink:href="#DejaVuSans-36" x="95.410156"/>
      </g>
     </g>
    </g>
    <g id="xtick_5">
     <g id="line2d_5">
      <g>
       <use xlink:href="#m0dde07529a" x="663.850909" y="387.56" style="stroke: #000000; stroke-width: 0.8"/>
      </g>
     </g>
     <g id="text_5">
      <!-- 0.8 -->
      <g transform="translate(649.538097 408.237188)scale(0.18 -0.18)">
       <defs>
        <path id="DejaVuSans-38" d="M 2034 2216 
Q 1584 2216 1326 1975 
Q 1069 1734 1069 1313 
Q 1069 891 1326 650 
Q 1584 409 2034 409 
Q 2484 409 2743 651 
Q 3003 894 3003 1313 
Q 3003 1734 2745 1975 
Q 2488 2216 2034 2216 
z
M 1403 2484 
Q 997 2584 770 2862 
Q 544 3141 544 3541 
Q 544 4100 942 4425 
Q 1341 4750 2034 4750 
Q 2731 4750 3128 4425 
Q 3525 4100 3525 3541 
Q 3525 3141 3298 2862 
Q 3072 2584 2669 2484 
Q 3125 2378 3379 2068 
Q 3634 1759 3634 1313 
Q 3634 634 3220 271 
Q 2806 -91 2034 -91 
Q 1263 -91 848 271 
Q 434 634 434 1313 
Q 434 1759 690 2068 
Q 947 2378 1403 2484 
z
M 1172 3481 
Q 1172 3119 1398 2916 
Q 1625 2713 2034 2713 
Q 2441 2713 2670 2916 
Q 2900 3119 2900 3481 
Q 2900 3844 2670 4047 
Q 2441 4250 2034 4250 
Q 1625 4250 1398 4047 
Q 1172 3844 1172 3481 
z
" transform="scale(0.015625)"/>
       </defs>
       <use xlink:href="#DejaVuSans-30"/>
       <use xlink:href="#DejaVuSans-2e" x="63.623047"/>
       <use xlink:href="#DejaVuSans-38" x="95.410156"/>
      </g>
     </g>
    </g>
    <g id="xtick_6">
     <g id="line2d_6">
      <g>
       <use xlink:href="#m0dde07529a" x="808.418182" y="387.56" style="stroke: #000000; stroke-width: 0.8"/>
      </g>
     </g>
     <g id="text_6">
      <!-- 1.0 -->
      <g transform="translate(794.105369 408.237188)scale(0.18 -0.18)">
       <defs>
        <path id="DejaVuSans-31" d="M 794 531 
L 1825 531 
L 1825 4091 
L 703 3866 
L 703 4441 
L 1819 4666 
L 2450 4666 
L 2450 531 
L 3481 531 
L 3481 0 
L 794 0 
L 794 531 
z
" transform="scale(0.015625)"/>
       </defs>
       <use xlink:href="#DejaVuSans-31"/>
       <use xlink:href="#DejaVuSans-2e" x="63.623047"/>
       <use xlink:href="#DejaVuSans-30" x="95.410156"/>
      </g>
     </g>
    </g>
   </g>
   <g id="matplotlib.axis_2">
    <g id="ytick_1">
     <g id="line2d_7">
      <defs>
       <path id="ma375bd3d45" d="M 0 0 
L -3.5 0 
" style="stroke: #000000; stroke-width: 0.8"/>
      </defs>
      <g>
       <use xlink:href="#ma375bd3d45" x="49.44" y="387.56" style="stroke: #000000; stroke-width: 0.8"/>
      </g>
     </g>
     <g id="text_7">
      <!-- 0 -->
      <g transform="translate(30.9875 394.398594)scale(0.18 -0.18)">
       <use xlink:href="#DejaVuSans-30"/>
      </g>
     </g>
    </g>
    <g id="ytick_2">
     <g id="line2d_8">
      <g>
       <use xlink:href="#ma375bd3d45" x="49.44" y="332.832938" style="stroke: #000000; stroke-width: 0.8"/>
      </g>
     </g>
     <g id="text_8">
      <!-- 2 -->
      <g transform="translate(30.9875 339.671531)scale(0.18 -0.18)">
       <use xlink:href="#DejaVuSans-32"/>
      </g>
     </g>
    </g>
    <g id="ytick_3">
     <g id="line2d_9">
      <g>
       <use xlink:href="#ma375bd3d45" x="49.44" y="278.105875" style="stroke: #000000; stroke-width: 0.8"/>
      </g>
     </g>
     <g id="text_9">
      <!-- 4 -->
      <g transform="translate(30.9875 284.944469)scale(0.18 -0.18)">
       <use xlink:href="#DejaVuSans-34"/>
      </g>
     </g>
    </g>
    <g id="ytick_4">
     <g id="line2d_10">
      <g>
       <use xlink:href="#ma375bd3d45" x="49.44" y="223.378813" style="stroke: #000000; stroke-width: 0.8"/>
      </g>
     </g>
     <g id="text_10">
      <!-- 6 -->
      <g transform="translate(30.9875 230.217407)scale(0.18 -0.18)">
       <use xlink:href="#DejaVuSans-36"/>
      </g>
     </g>
    </g>
    <g id="ytick_5">
     <g id="line2d_11">
      <g>
       <use xlink:href="#ma375bd3d45" x="49.44" y="168.65175" style="stroke: #000000; stroke-width: 0.8"/>
      </g>
     </g>
     <g id="text_11">
      <!-- 8 -->
      <g transform="translate(30.9875 175.490344)scale(0.18 -0.18)">
       <use xlink:href="#DejaVuSans-38"/>
      </g>
     </g>
    </g>
    <g id="ytick_6">
     <g id="line2d_12">
      <g>
       <use xlink:href="#ma375bd3d45" x="49.44" y="113.924688" style="stroke: #000000; stroke-width: 0.8"/>
      </g>
     </g>
     <g id="text_12">
      <!-- 10 -->
      <g transform="translate(19.535 120.763282)scale(0.18 -0.18)">
       <use xlink:href="#DejaVuSans-31"/>
       <use xlink:href="#DejaVuSans-30" x="63.623047"/>
      </g>
     </g>
    </g>
    <g id="ytick_7">
     <g id="line2d_13">
      <g>
       <use xlink:href="#ma375bd3d45" x="49.44" y="59.197626" style="stroke: #000000; stroke-width: 0.8"/>
      </g>
     </g>
     <g id="text_13">
      <!-- 12 -->
      <g transform="translate(19.535 66.036219)scale(0.18 -0.18)">
       <use xlink:href="#DejaVuSans-31"/>
       <use xlink:href="#DejaVuSans-32" x="63.623047"/>
      </g>
     </g>
    </g>
   </g>
   <g id="line2d_14">
    <path d="M 85.581818 387.56 
L 92.883196 387.56 
L 100.184573 387.56 
L 107.48595 387.56 
L 114.787328 387.56 
L 122.088705 387.559997 
L 129.390083 387.559774 
L 136.69146 387.552727 
L 143.992837 387.444824 
L 151.294215 386.634126 
L 158.595592 383.442909 
L 165.89697 375.281564 
L 173.198347 357.162747 
L 180.499725 324.41206 
L 187.801102 282.433422 
L 195.102479 237.442067 
L 202.403857 190.324131 
L 209.705234 150.080156 
L 217.006612 130.31957 
L 224.307989 130.609105 
L 231.609366 132.415021 
L 238.910744 134.844956 
L 246.212121 156.303762 
L 253.513499 193.179101 
L 260.814876 235.788709 
L 268.116253 282.644315 
L 275.417631 319.63363 
L 282.719008 339.296826 
L 290.020386 354.124328 
L 297.321763 366.985017 
L 304.62314 373.600986 
L 311.924518 377.062274 
L 319.225895 381.288807 
L 326.527273 385.297176 
L 333.82865 387.129144 
L 341.130028 387.519112 
L 348.431405 387.558111 
L 355.732782 387.559958 
L 363.03416 387.56 
L 370.335537 387.56 
L 377.636915 387.56 
L 384.938292 387.56 
L 392.239669 387.56 
L 399.541047 387.56 
L 406.842424 387.56 
L 414.143802 387.56 
L 421.445179 387.56 
L 428.746556 387.56 
L 436.047934 387.56 
L 443.349311 387.56 
L 450.650689 387.56 
L 457.952066 387.56 
L 465.253444 387.56 
L 472.554821 387.56 
L 479.856198 387.56 
L 487.157576 387.56 
L 494.458953 387.56 
L 501.760331 387.56 
L 509.061708 387.56 
L 516.363085 387.56 
L 523.664463 387.56 
L 530.96584 387.56 
L 538.267218 387.56 
L 545.568595 387.56 
L 552.869972 387.56 
L 560.17135 387.56 
L 567.472727 387.56 
L 574.774105 387.56 
L 582.075482 387.56 
L 589.37686 387.56 
L 596.678237 387.56 
L 603.979614 387.56 
L 611.280992 387.56 
L 618.582369 387.56 
L 625.883747 387.56 
L 633.185124 387.56 
L 640.486501 387.56 
L 647.787879 387.56 
L 655.089256 387.56 
L 662.390634 387.56 
L 669.692011 387.56 
L 676.993388 387.56 
L 684.294766 387.56 
L 691.596143 387.56 
L 698.897521 387.56 
L 706.198898 387.56 
L 713.500275 387.56 
L 720.801653 387.56 
L 728.10303 387.56 
L 735.404408 387.56 
L 742.705785 387.56 
L 750.007163 387.56 
L 757.30854 387.56 
L 764.609917 387.56 
L 771.911295 387.56 
L 779.212672 387.56 
L 786.51405 387.56 
L 793.815427 387.56 
L 801.116804 387.56 
L 808.418182 387.56 
" clip-path="url(#p092007dbb9)" style="fill: none; stroke: #1f77b4; stroke-width: 1.5; stroke-linecap: square"/>
   </g>
   <g id="line2d_15">
    <path d="M 85.581818 387.55999 
L 92.883196 387.559782 
L 100.184573 387.556834 
L 107.48595 387.527867 
L 114.787328 387.328417 
L 122.088705 386.350505 
L 129.390083 382.874895 
L 136.69146 373.790773 
L 143.992837 356.23381 
L 151.294215 331.175555 
L 158.595592 304.400367 
L 165.89697 281.070945 
L 173.198347 261.05453 
L 180.499725 242.702321 
L 187.801102 226.530248 
L 195.102479 212.600909 
L 202.403857 201.016722 
L 209.705234 194.817875 
L 217.006612 196.715026 
L 224.307989 205.753694 
L 231.609366 218.073263 
L 238.910744 228.583329 
L 246.212121 236.693395 
L 253.513499 249.938348 
L 260.814876 273.984543 
L 268.116253 302.87034 
L 275.417631 326.20479 
L 282.719008 340.066207 
L 290.020386 347.187712 
L 297.321763 352.817668 
L 304.62314 361.073098 
L 311.924518 371.446143 
L 319.225895 380.161982 
L 326.527273 385.062161 
L 333.82865 386.948388 
L 341.130028 387.452599 
L 348.431405 387.546622 
L 355.732782 387.55883 
L 363.03416 387.559929 
L 370.335537 387.559997 
L 377.636915 387.56 
L 384.938292 387.56 
L 392.239669 387.56 
L 399.541047 387.56 
L 406.842424 387.56 
L 414.143802 387.56 
L 421.445179 387.56 
L 428.746556 387.56 
L 436.047934 387.56 
L 443.349311 387.56 
L 450.650689 387.56 
L 457.952066 387.56 
L 465.253444 387.56 
L 472.554821 387.56 
L 479.856198 387.56 
L 487.157576 387.56 
L 494.458953 387.56 
L 501.760331 387.56 
L 509.061708 387.56 
L 516.363085 387.56 
L 523.664463 387.56 
L 530.96584 387.56 
L 538.267218 387.56 
L 545.568595 387.56 
L 552.869972 387.56 
L 560.17135 387.56 
L 567.472727 387.56 
L 574.774105 387.56 
L 582.075482 387.56 
L 589.37686 387.56 
L 596.678237 387.56 
L 603.979614 387.56 
L 611.280992 387.56 
L 618.582369 387.56 
L 625.883747 387.56 
L 633.185124 387.56 
L 640.486501 387.56 
L 647.787879 387.56 
L 655.089256 387.56 
L 662.390634 387.56 
L 669.692011 387.56 
L 676.993388 387.56 
L 684.294766 387.56 
L 691.596143 387.56 
L 698.897521 387.56 
L 706.198898 387.56 
L 713.500275 387.56 
L 720.801653 387.56 
L 728.10303 387.56 
L 735.404408 387.56 
L 742.705785 387.56 
L 750.007163 387.56 
L 757.30854 387.56 
L 764.609917 387.56 
L 771.911295 387.56 
L 779.212672 387.56 
L 786.51405 387.56 
L 793.815427 387.56 
L 801.116804 387.56 
L 808.418182 387.56 
" clip-path="url(#p092007dbb9)" style="fill: none; stroke: #2ca02c; stroke-width: 1.5; stroke-linecap: square"/>
   </g>
   <g id="line2d_16">
    <path d="M 85.581818 387.56 
L 92.883196 387.56 
L 100.184573 387.56 
L 107.48595 387.56 
L 114.787328 387.559999 
L 122.088705 387.559924 
L 129.390083 387.556256 
L 136.69146 387.468996 
L 143.992837 386.456111 
L 151.294215 380.73943 
L 158.595592 364.884196 
L 165.89697 340.861241 
L 173.198347 311.959539 
L 180.499725 275.888089 
L 187.801102 234.338834 
L 195.102479 184.597674 
L 202.403857 135.570141 
L 209.705234 107.050376 
L 217.006612 100.464635 
L 224.307989 107.148402 
L 231.609366 130.848057 
L 238.910744 185.091631 
L 246.212121 248.281603 
L 253.513499 284.819607 
L 260.814876 300.758798 
L 268.116253 316.367656 
L 275.417631 335.935463 
L 282.719008 352.969245 
L 290.020386 364.798891 
L 297.321763 374.496303 
L 304.62314 382.210161 
L 311.924518 386.213361 
L 319.225895 387.370393 
L 326.527273 387.545938 
L 333.82865 387.559471 
L 341.130028 387.55999 
L 348.431405 387.56 
L 355.732782 387.56 
L 363.03416 387.56 
L 370.335537 387.56 
L 377.636915 387.56 
L 384.938292 387.56 
L 392.239669 387.56 
L 399.541047 387.56 
L 406.842424 387.56 
L 414.143802 387.56 
L 421.445179 387.56 
L 428.746556 387.56 
L 436.047934 387.56 
L 443.349311 387.56 
L 450.650689 387.56 
L 457.952066 387.56 
L 465.253444 387.56 
L 472.554821 387.56 
L 479.856198 387.56 
L 487.157576 387.56 
L 494.458953 387.56 
L 501.760331 387.56 
L 509.061708 387.56 
L 516.363085 387.56 
L 523.664463 387.56 
L 530.96584 387.56 
L 538.267218 387.56 
L 545.568595 387.56 
L 552.869972 387.56 
L 560.17135 387.56 
L 567.472727 387.56 
L 574.774105 387.56 
L 582.075482 387.56 
L 589.37686 387.56 
L 596.678237 387.56 
L 603.979614 387.56 
L 611.280992 387.56 
L 618.582369 387.56 
L 625.883747 387.56 
L 633.185124 387.56 
L 640.486501 387.56 
L 647.787879 387.56 
L 655.089256 387.56 
L 662.390634 387.56 
L 669.692011 387.56 
L 676.993388 387.56 
L 684.294766 387.56 
L 691.596143 387.56 
L 698.897521 387.56 
L 706.198898 387.56 
L 713.500275 387.56 
L 720.801653 387.56 
L 728.10303 387.56 
L 735.404408 387.56 
L 742.705785 387.56 
L 750.007163 387.56 
L 757.30854 387.56 
L 764.609917 387.56 
L 771.911295 387.56 
L 779.212672 387.56 
L 786.51405 387.56 
L 793.815427 387.56 
L 801.116804 387.56 
L 808.418182 387.56 
" clip-path="url(#p092007dbb9)" style="fill: none; stroke: #9467bd; stroke-width: 1.5; stroke-linecap: square"/>
   </g>
   <g id="line2d_17">
    <path d="M 85.581818 387.56 
L 92.883196 387.56 
L 100.184573 387.56 
L 107.48595 387.559999 
L 114.787328 387.55994 
L 122.088705 387.557351 
L 129.390083 387.502816 
L 136.69146 386.936092 
L 143.992837 383.918451 
L 151.294215 375.018793 
L 158.595592 357.862982 
L 165.89697 330.220012 
L 173.198347 289.114038 
L 180.499725 235.509763 
L 187.801102 176.842527 
L 195.102479 136.158327 
L 202.403857 127.946169 
L 209.705234 140.055438 
L 217.006612 164.526233 
L 224.307989 185.493353 
L 231.609366 194.803592 
L 238.910744 204.158082 
L 246.212121 223.043985 
L 253.513499 255.493088 
L 260.814876 292.137951 
L 268.116253 318.919105 
L 275.417631 340.161147 
L 282.719008 358.688008 
L 290.020386 370.346082 
L 297.321763 376.226899 
L 304.62314 379.905881 
L 311.924518 382.777582 
L 319.225895 384.534623 
L 326.527273 385.560508 
L 333.82865 386.638945 
L 341.130028 387.339324 
L 348.431405 387.534718 
L 355.732782 387.558641 
L 363.03416 387.559966 
L 370.335537 387.56 
L 377.636915 387.56 
L 384.938292 387.56 
L 392.239669 387.56 
L 399.541047 387.56 
L 406.842424 387.56 
L 414.143802 387.56 
L 421.445179 387.56 
L 428.746556 387.56 
L 436.047934 387.56 
L 443.349311 387.56 
L 450.650689 387.56 
L 457.952066 387.56 
L 465.253444 387.56 
L 472.554821 387.56 
L 479.856198 387.56 
L 487.157576 387.56 
L 494.458953 387.56 
L 501.760331 387.56 
L 509.061708 387.56 
L 516.363085 387.56 
L 523.664463 387.56 
L 530.96584 387.56 
L 538.267218 387.56 
L 545.568595 387.56 
L 552.869972 387.56 
L 560.17135 387.56 
L 567.472727 387.56 
L 574.774105 387.56 
L 582.075482 387.56 
L 589.37686 387.56 
L 596.678237 387.56 
L 603.979614 387.56 
L 611.280992 387.56 
L 618.582369 387.56 
L 625.883747 387.56 
L 633.185124 387.56 
L 640.486501 387.56 
L 647.787879 387.56 
L 655.089256 387.56 
L 662.390634 387.56 
L 669.692011 387.56 
L 676.993388 387.56 
L 684.294766 387.56 
L 691.596143 387.56 
L 698.897521 387.56 
L 706.198898 387.56 
L 713.500275 387.56 
L 720.801653 387.56 
L 728.10303 387.56 
L 735.404408 387.56 
L 742.705785 387.56 
L 750.007163 387.56 
L 757.30854 387.56 
L 764.609917 387.56 
L 771.911295 387.56 
L 779.212672 387.56 
L 786.51405 387.56 
L 793.815427 387.56 
L 801.116804 387.56 
L 808.418182 387.56 
" clip-path="url(#p092007dbb9)" style="fill: none; stroke: #e377c2; stroke-width: 1.5; stroke-linecap: square"/>
   </g>
   <g id="line2d_18">
    <path d="M 85.581818 387.56 
L 92.883196 387.56 
L 100.184573 387.56 
L 107.48595 387.56 
L 114.787328 387.559986 
L 122.088705 387.559076 
L 129.390083 387.531776 
L 136.69146 387.141557 
L 143.992837 384.453113 
L 151.294215 375.238445 
L 158.595592 357.027265 
L 165.89697 325.805551 
L 173.198347 272.827583 
L 180.499725 211.061653 
L 187.801102 164.449586 
L 195.102479 133.135543 
L 202.403857 115.437828 
L 209.705234 107.228639 
L 217.006612 109.75015 
L 224.307989 138.126458 
L 231.609366 185.558738 
L 238.910744 229.342455 
L 246.212121 269.172841 
L 253.513499 305.192053 
L 260.814876 330.543546 
L 268.116253 346.858551 
L 275.417631 358.237177 
L 282.719008 367.145008 
L 290.020386 374.618073 
L 297.321763 379.515833 
L 304.62314 379.917299 
L 311.924518 379.536346 
L 319.225895 382.340742 
L 326.527273 385.805571 
L 333.82865 387.274495 
L 341.130028 387.538249 
L 348.431405 387.559238 
L 355.732782 387.559988 
L 363.03416 387.56 
L 370.335537 387.56 
L 377.636915 387.56 
L 384.938292 387.56 
L 392.239669 387.56 
L 399.541047 387.56 
L 406.842424 387.56 
L 414.143802 387.56 
L 421.445179 387.56 
L 428.746556 387.56 
L 436.047934 387.56 
L 443.349311 387.56 
L 450.650689 387.56 
L 457.952066 387.56 
L 465.253444 387.56 
L 472.554821 387.56 
L 479.856198 387.56 
L 487.157576 387.56 
L 494.458953 387.56 
L 501.760331 387.56 
L 509.061708 387.56 
L 516.363085 387.56 
L 523.664463 387.56 
L 530.96584 387.56 
L 538.267218 387.56 
L 545.568595 387.56 
L 552.869972 387.56 
L 560.17135 387.56 
L 567.472727 387.56 
L 574.774105 387.56 
L 582.075482 387.56 
L 589.37686 387.56 
L 596.678237 387.56 
L 603.979614 387.56 
L 611.280992 387.56 
L 618.582369 387.56 
L 625.883747 387.56 
L 633.185124 387.56 
L 640.486501 387.56 
L 647.787879 387.56 
L 655.089256 387.56 
L 662.390634 387.56 
L 669.692011 387.56 
L 676.993388 387.56 
L 684.294766 387.56 
L 691.596143 387.56 
L 698.897521 387.56 
L 706.198898 387.56 
L 713.500275 387.56 
L 720.801653 387.56 
L 728.10303 387.56 
L 735.404408 387.56 
L 742.705785 387.56 
L 750.007163 387.56 
L 757.30854 387.56 
L 764.609917 387.56 
L 771.911295 387.56 
L 779.212672 387.56 
L 786.51405 387.56 
L 793.815427 387.56 
L 801.116804 387.56 
L 808.418182 387.56 
" clip-path="url(#p092007dbb9)" style="fill: none; stroke: #ff7f0e; stroke-width: 1.5; stroke-linecap: square"/>
   </g>
   <g id="line2d_19">
    <path d="M 85.581818 387.55977 
L 92.883196 387.556665 
L 100.184573 387.529612 
L 107.48595 387.37872 
L 114.787328 386.782772 
L 122.088705 384.810253 
L 129.390083 378.927889 
L 136.69146 364.616955 
L 143.992837 338.376272 
L 151.294215 302.194376 
L 158.595592 265.107631 
L 165.89697 238.716747 
L 173.198347 226.783235 
L 180.499725 223.949939 
L 187.801102 224.443806 
L 195.102479 223.303321 
L 202.403857 216.541538 
L 209.705234 205.872746 
L 217.006612 198.882263 
L 224.307989 204.010353 
L 231.609366 222.474342 
L 238.910744 246.939416 
L 246.212121 268.898436 
L 253.513499 284.055564 
L 260.814876 294.923589 
L 268.116253 308.086991 
L 275.417631 325.863145 
L 282.719008 344.053534 
L 290.020386 357.545938 
L 297.321763 365.495132 
L 304.62314 371.095843 
L 311.924518 377.061847 
L 319.225895 382.619648 
L 326.527273 385.975089 
L 333.82865 387.226368 
L 341.130028 387.514795 
L 348.431405 387.556101 
L 355.732782 387.559787 
L 363.03416 387.559993 
L 370.335537 387.56 
L 377.636915 387.56 
L 384.938292 387.56 
L 392.239669 387.56 
L 399.541047 387.56 
L 406.842424 387.56 
L 414.143802 387.56 
L 421.445179 387.56 
L 428.746556 387.56 
L 436.047934 387.56 
L 443.349311 387.56 
L 450.650689 387.56 
L 457.952066 387.56 
L 465.253444 387.56 
L 472.554821 387.56 
L 479.856198 387.56 
L 487.157576 387.56 
L 494.458953 387.56 
L 501.760331 387.56 
L 509.061708 387.56 
L 516.363085 387.56 
L 523.664463 387.56 
L 530.96584 387.56 
L 538.267218 387.56 
L 545.568595 387.56 
L 552.869972 387.56 
L 560.17135 387.56 
L 567.472727 387.56 
L 574.774105 387.56 
L 582.075482 387.56 
L 589.37686 387.56 
L 596.678237 387.56 
L 603.979614 387.56 
L 611.280992 387.56 
L 618.582369 387.56 
L 625.883747 387.56 
L 633.185124 387.56 
L 640.486501 387.56 
L 647.787879 387.56 
L 655.089256 387.56 
L 662.390634 387.56 
L 669.692011 387.56 
L 676.993388 387.56 
L 684.294766 387.56 
L 691.596143 387.56 
L 698.897521 387.56 
L 706.198898 387.56 
L 713.500275 387.56 
L 720.801653 387.56 
L 728.10303 387.56 
L 735.404408 387.56 
L 742.705785 387.56 
L 750.007163 387.56 
L 757.30854 387.56 
L 764.609917 387.56 
L 771.911295 387.56 
L 779.212672 387.56 
L 786.51405 387.56 
L 793.815427 387.56 
L 801.116804 387.56 
L 808.418182 387.56 
" clip-path="url(#p092007dbb9)" style="fill: none; stroke: #d62728; stroke-width: 1.5; stroke-linecap: square"/>
   </g>
   <g id="line2d_20">
    <path d="M 85.581818 387.56 
L 92.883196 387.56 
L 100.184573 387.559999 
L 107.48595 387.559947 
L 114.787328 387.557857 
L 122.088705 387.514472 
L 129.390083 387.034469 
L 136.69146 384.122588 
L 143.992837 374.129474 
L 151.294215 353.781895 
L 158.595592 325.633964 
L 165.89697 290.876346 
L 173.198347 248.949397 
L 180.499725 203.516262 
L 187.801102 160.271862 
L 195.102479 130.768486 
L 202.403857 118.358024 
L 209.705234 121.321978 
L 217.006612 147.233143 
L 224.307989 187.168845 
L 231.609366 220.150059 
L 238.910744 244.45557 
L 246.212121 270.430149 
L 253.513499 298.871308 
L 260.814876 323.886893 
L 268.116253 342.391824 
L 275.417631 355.346395 
L 282.719008 365.172208 
L 290.020386 374.295076 
L 297.321763 380.728738 
L 304.62314 382.409899 
L 311.924518 382.520192 
L 319.225895 383.801228 
L 326.527273 385.727534 
L 333.82865 387.032649 
L 341.130028 387.478374 
L 348.431405 387.553562 
L 355.732782 387.559748 
L 363.03416 387.559995 
L 370.335537 387.56 
L 377.636915 387.56 
L 384.938292 387.56 
L 392.239669 387.56 
L 399.541047 387.56 
L 406.842424 387.56 
L 414.143802 387.56 
L 421.445179 387.56 
L 428.746556 387.56 
L 436.047934 387.56 
L 443.349311 387.56 
L 450.650689 387.56 
L 457.952066 387.56 
L 465.253444 387.56 
L 472.554821 387.56 
L 479.856198 387.56 
L 487.157576 387.56 
L 494.458953 387.56 
L 501.760331 387.56 
L 509.061708 387.56 
L 516.363085 387.56 
L 523.664463 387.56 
L 530.96584 387.56 
L 538.267218 387.56 
L 545.568595 387.56 
L 552.869972 387.56 
L 560.17135 387.56 
L 567.472727 387.56 
L 574.774105 387.56 
L 582.075482 387.56 
L 589.37686 387.56 
L 596.678237 387.56 
L 603.979614 387.56 
L 611.280992 387.56 
L 618.582369 387.56 
L 625.883747 387.56 
L 633.185124 387.56 
L 640.486501 387.56 
L 647.787879 387.56 
L 655.089256 387.56 
L 662.390634 387.56 
L 669.692011 387.56 
L 676.993388 387.56 
L 684.294766 387.56 
L 691.596143 387.56 
L 698.897521 387.56 
L 706.198898 387.56 
L 713.500275 387.56 
L 720.801653 387.56 
L 728.10303 387.56 
L 735.404408 387.56 
L 742.705785 387.56 
L 750.007163 387.56 
L 757.30854 387.56 
L 764.609917 387.56 
L 771.911295 387.56 
L 779.212672 387.56 
L 786.51405 387.56 
L 793.815427 387.56 
L 801.116804 387.56 
L 808.418182 387.56 
" clip-path="url(#p092007dbb9)" style="fill: none; stroke: #8c564b; stroke-width: 1.5; stroke-linecap: square"/>
   </g>
   <g id="line2d_21">
    <path d="M 85.581818 387.56 
L 92.883196 387.56 
L 100.184573 387.56 
L 107.48595 387.559987 
L 114.787328 387.559089 
L 122.088705 387.531185 
L 129.390083 387.137323 
L 136.69146 384.541537 
L 143.992837 376.000991 
L 151.294215 359.312002 
L 158.595592 332.195285 
L 165.89697 287.316789 
L 173.198347 228.131285 
L 180.499725 172.46467 
L 187.801102 129.613496 
L 195.102479 113.555577 
L 202.403857 125.464681 
L 209.705234 151.831824 
L 217.006612 182.509646 
L 224.307989 202.38846 
L 231.609366 219.008248 
L 238.910744 246.311948 
L 246.212121 274.788538 
L 253.513499 302.612657 
L 260.814876 326.053019 
L 268.116253 341.511886 
L 275.417631 355.554687 
L 282.719008 365.786404 
L 290.020386 371.400861 
L 297.321763 376.18625 
L 304.62314 379.990303 
L 311.924518 382.674351 
L 319.225895 384.909326 
L 326.527273 386.388514 
L 333.82865 386.489648 
L 341.130028 386.417909 
L 348.431405 386.985353 
L 355.732782 387.437956 
L 363.03416 387.549135 
L 370.335537 387.559595 
L 377.636915 387.559994 
L 384.938292 387.56 
L 392.239669 387.56 
L 399.541047 387.56 
L 406.842424 387.56 
L 414.143802 387.56 
L 421.445179 387.56 
L 428.746556 387.56 
L 436.047934 387.56 
L 443.349311 387.56 
L 450.650689 387.56 
L 457.952066 387.56 
L 465.253444 387.56 
L 472.554821 387.56 
L 479.856198 387.56 
L 487.157576 387.56 
L 494.458953 387.56 
L 501.760331 387.56 
L 509.061708 387.56 
L 516.363085 387.56 
L 523.664463 387.56 
L 530.96584 387.56 
L 538.267218 387.56 
L 545.568595 387.56 
L 552.869972 387.56 
L 560.17135 387.56 
L 567.472727 387.56 
L 574.774105 387.56 
L 582.075482 387.56 
L 589.37686 387.56 
L 596.678237 387.56 
L 603.979614 387.56 
L 611.280992 387.56 
L 618.582369 387.56 
L 625.883747 387.56 
L 633.185124 387.56 
L 640.486501 387.56 
L 647.787879 387.56 
L 655.089256 387.56 
L 662.390634 387.56 
L 669.692011 387.56 
L 676.993388 387.56 
L 684.294766 387.56 
L 691.596143 387.56 
L 698.897521 387.56 
L 706.198898 387.56 
L 713.500275 387.56 
L 720.801653 387.56 
L 728.10303 387.56 
L 735.404408 387.56 
L 742.705785 387.56 
L 750.007163 387.56 
L 757.30854 387.56 
L 764.609917 387.56 
L 771.911295 387.56 
L 779.212672 387.56 
L 786.51405 387.56 
L 793.815427 387.56 
L 801.116804 387.56 
L 808.418182 387.56 
" clip-path="url(#p092007dbb9)" style="fill: none; stroke: #7f7f7f; stroke-width: 1.5; stroke-linecap: square"/>
   </g>
   <g id="patch_163">
    <path d="M 49.44 387.56 
L 49.44 41.44 
" style="fill: none; stroke: #000000; stroke-width: 0.8; stroke-linejoin: miter; stroke-linecap: square"/>
   </g>
   <g id="patch_164">
    <path d="M 844.56 387.56 
L 844.56 41.44 
" style="fill: none; stroke: #000000; stroke-width: 0.8; stroke-linejoin: miter; stroke-linecap: square"/>
   </g>
   <g id="patch_165">
    <path d="M 49.44 387.56 
L 844.56 387.56 
" style="fill: none; stroke: #000000; stroke-width: 0.8; stroke-linejoin: miter; stroke-linecap: square"/>
   </g>
   <g id="patch_166">
    <path d="M 49.44 41.44 
L 844.56 41.44 
" style="fill: none; stroke: #000000; stroke-width: 0.8; stroke-linejoin: miter; stroke-linecap: square"/>
   </g>
   <g id="text_14">
    <!-- Distances to SRV mean  -->
    <g transform="translate(321.385547 35.44)scale(0.21 -0.21)">
     <defs>
      <path id="DejaVuSans-44" d="M 1259 4147 
L 1259 519 
L 2022 519 
Q 2988 519 3436 956 
Q 3884 1394 3884 2338 
Q 3884 3275 3436 3711 
Q 2988 4147 2022 4147 
L 1259 4147 
z
M 628 4666 
L 1925 4666 
Q 3281 4666 3915 4102 
Q 4550 3538 4550 2338 
Q 4550 1131 3912 565 
Q 3275 0 1925 0 
L 628 0 
L 628 4666 
z
" transform="scale(0.015625)"/>
      <path id="DejaVuSans-69" d="M 603 3500 
L 1178 3500 
L 1178 0 
L 603 0 
L 603 3500 
z
M 603 4863 
L 1178 4863 
L 1178 4134 
L 603 4134 
L 603 4863 
z
" transform="scale(0.015625)"/>
      <path id="DejaVuSans-73" d="M 2834 3397 
L 2834 2853 
Q 2591 2978 2328 3040 
Q 2066 3103 1784 3103 
Q 1356 3103 1142 2972 
Q 928 2841 928 2578 
Q 928 2378 1081 2264 
Q 1234 2150 1697 2047 
L 1894 2003 
Q 2506 1872 2764 1633 
Q 3022 1394 3022 966 
Q 3022 478 2636 193 
Q 2250 -91 1575 -91 
Q 1294 -91 989 -36 
Q 684 19 347 128 
L 347 722 
Q 666 556 975 473 
Q 1284 391 1588 391 
Q 1994 391 2212 530 
Q 2431 669 2431 922 
Q 2431 1156 2273 1281 
Q 2116 1406 1581 1522 
L 1381 1569 
Q 847 1681 609 1914 
Q 372 2147 372 2553 
Q 372 3047 722 3315 
Q 1072 3584 1716 3584 
Q 2034 3584 2315 3537 
Q 2597 3491 2834 3397 
z
" transform="scale(0.015625)"/>
      <path id="DejaVuSans-74" d="M 1172 4494 
L 1172 3500 
L 2356 3500 
L 2356 3053 
L 1172 3053 
L 1172 1153 
Q 1172 725 1289 603 
Q 1406 481 1766 481 
L 2356 481 
L 2356 0 
L 1766 0 
Q 1100 0 847 248 
Q 594 497 594 1153 
L 594 3053 
L 172 3053 
L 172 3500 
L 594 3500 
L 594 4494 
L 1172 4494 
z
" transform="scale(0.015625)"/>
      <path id="DejaVuSans-61" d="M 2194 1759 
Q 1497 1759 1228 1600 
Q 959 1441 959 1056 
Q 959 750 1161 570 
Q 1363 391 1709 391 
Q 2188 391 2477 730 
Q 2766 1069 2766 1631 
L 2766 1759 
L 2194 1759 
z
M 3341 1997 
L 3341 0 
L 2766 0 
L 2766 531 
Q 2569 213 2275 61 
Q 1981 -91 1556 -91 
Q 1019 -91 701 211 
Q 384 513 384 1019 
Q 384 1609 779 1909 
Q 1175 2209 1959 2209 
L 2766 2209 
L 2766 2266 
Q 2766 2663 2505 2880 
Q 2244 3097 1772 3097 
Q 1472 3097 1187 3025 
Q 903 2953 641 2809 
L 641 3341 
Q 956 3463 1253 3523 
Q 1550 3584 1831 3584 
Q 2591 3584 2966 3190 
Q 3341 2797 3341 1997 
z
" transform="scale(0.015625)"/>
      <path id="DejaVuSans-6e" d="M 3513 2113 
L 3513 0 
L 2938 0 
L 2938 2094 
Q 2938 2591 2744 2837 
Q 2550 3084 2163 3084 
Q 1697 3084 1428 2787 
Q 1159 2491 1159 1978 
L 1159 0 
L 581 0 
L 581 3500 
L 1159 3500 
L 1159 2956 
Q 1366 3272 1645 3428 
Q 1925 3584 2291 3584 
Q 2894 3584 3203 3211 
Q 3513 2838 3513 2113 
z
" transform="scale(0.015625)"/>
      <path id="DejaVuSans-63" d="M 3122 3366 
L 3122 2828 
Q 2878 2963 2633 3030 
Q 2388 3097 2138 3097 
Q 1578 3097 1268 2742 
Q 959 2388 959 1747 
Q 959 1106 1268 751 
Q 1578 397 2138 397 
Q 2388 397 2633 464 
Q 2878 531 3122 666 
L 3122 134 
Q 2881 22 2623 -34 
Q 2366 -91 2075 -91 
Q 1284 -91 818 406 
Q 353 903 353 1747 
Q 353 2603 823 3093 
Q 1294 3584 2113 3584 
Q 2378 3584 2631 3529 
Q 2884 3475 3122 3366 
z
" transform="scale(0.015625)"/>
      <path id="DejaVuSans-65" d="M 3597 1894 
L 3597 1613 
L 953 1613 
Q 991 1019 1311 708 
Q 1631 397 2203 397 
Q 2534 397 2845 478 
Q 3156 559 3463 722 
L 3463 178 
Q 3153 47 2828 -22 
Q 2503 -91 2169 -91 
Q 1331 -91 842 396 
Q 353 884 353 1716 
Q 353 2575 817 3079 
Q 1281 3584 2069 3584 
Q 2775 3584 3186 3129 
Q 3597 2675 3597 1894 
z
M 3022 2063 
Q 3016 2534 2758 2815 
Q 2500 3097 2075 3097 
Q 1594 3097 1305 2825 
Q 1016 2553 972 2059 
L 3022 2063 
z
" transform="scale(0.015625)"/>
      <path id="DejaVuSans-20" transform="scale(0.015625)"/>
      <path id="DejaVuSans-6f" d="M 1959 3097 
Q 1497 3097 1228 2736 
Q 959 2375 959 1747 
Q 959 1119 1226 758 
Q 1494 397 1959 397 
Q 2419 397 2687 759 
Q 2956 1122 2956 1747 
Q 2956 2369 2687 2733 
Q 2419 3097 1959 3097 
z
M 1959 3584 
Q 2709 3584 3137 3096 
Q 3566 2609 3566 1747 
Q 3566 888 3137 398 
Q 2709 -91 1959 -91 
Q 1206 -91 779 398 
Q 353 888 353 1747 
Q 353 2609 779 3096 
Q 1206 3584 1959 3584 
z
" transform="scale(0.015625)"/>
      <path id="DejaVuSans-53" d="M 3425 4513 
L 3425 3897 
Q 3066 4069 2747 4153 
Q 2428 4238 2131 4238 
Q 1616 4238 1336 4038 
Q 1056 3838 1056 3469 
Q 1056 3159 1242 3001 
Q 1428 2844 1947 2747 
L 2328 2669 
Q 3034 2534 3370 2195 
Q 3706 1856 3706 1288 
Q 3706 609 3251 259 
Q 2797 -91 1919 -91 
Q 1588 -91 1214 -16 
Q 841 59 441 206 
L 441 856 
Q 825 641 1194 531 
Q 1563 422 1919 422 
Q 2459 422 2753 634 
Q 3047 847 3047 1241 
Q 3047 1584 2836 1778 
Q 2625 1972 2144 2069 
L 1759 2144 
Q 1053 2284 737 2584 
Q 422 2884 422 3419 
Q 422 4038 858 4394 
Q 1294 4750 2059 4750 
Q 2388 4750 2728 4690 
Q 3069 4631 3425 4513 
z
" transform="scale(0.015625)"/>
      <path id="DejaVuSans-52" d="M 2841 2188 
Q 3044 2119 3236 1894 
Q 3428 1669 3622 1275 
L 4263 0 
L 3584 0 
L 2988 1197 
Q 2756 1666 2539 1819 
Q 2322 1972 1947 1972 
L 1259 1972 
L 1259 0 
L 628 0 
L 628 4666 
L 2053 4666 
Q 2853 4666 3247 4331 
Q 3641 3997 3641 3322 
Q 3641 2881 3436 2590 
Q 3231 2300 2841 2188 
z
M 1259 4147 
L 1259 2491 
L 2053 2491 
Q 2509 2491 2742 2702 
Q 2975 2913 2975 3322 
Q 2975 3731 2742 3939 
Q 2509 4147 2053 4147 
L 1259 4147 
z
" transform="scale(0.015625)"/>
      <path id="DejaVuSans-56" d="M 1831 0 
L 50 4666 
L 709 4666 
L 2188 738 
L 3669 4666 
L 4325 4666 
L 2547 0 
L 1831 0 
z
" transform="scale(0.015625)"/>
      <path id="DejaVuSans-6d" d="M 3328 2828 
Q 3544 3216 3844 3400 
Q 4144 3584 4550 3584 
Q 5097 3584 5394 3201 
Q 5691 2819 5691 2113 
L 5691 0 
L 5113 0 
L 5113 2094 
Q 5113 2597 4934 2840 
Q 4756 3084 4391 3084 
Q 3944 3084 3684 2787 
Q 3425 2491 3425 1978 
L 3425 0 
L 2847 0 
L 2847 2094 
Q 2847 2600 2669 2842 
Q 2491 3084 2119 3084 
Q 1678 3084 1418 2786 
Q 1159 2488 1159 1978 
L 1159 0 
L 581 0 
L 581 3500 
L 1159 3500 
L 1159 2956 
Q 1356 3278 1631 3431 
Q 1906 3584 2284 3584 
Q 2666 3584 2933 3390 
Q 3200 3197 3328 2828 
z
" transform="scale(0.015625)"/>
     </defs>
     <use xlink:href="#DejaVuSans-44"/>
     <use xlink:href="#DejaVuSans-69" x="77.001953"/>
     <use xlink:href="#DejaVuSans-73" x="104.785156"/>
     <use xlink:href="#DejaVuSans-74" x="156.884766"/>
     <use xlink:href="#DejaVuSans-61" x="196.09375"/>
     <use xlink:href="#DejaVuSans-6e" x="257.373047"/>
     <use xlink:href="#DejaVuSans-63" x="320.751953"/>
     <use xlink:href="#DejaVuSans-65" x="375.732422"/>
     <use xlink:href="#DejaVuSans-73" x="437.255859"/>
     <use xlink:href="#DejaVuSans-20" x="489.355469"/>
     <use xlink:href="#DejaVuSans-74" x="521.142578"/>
     <use xlink:href="#DejaVuSans-6f" x="560.351562"/>
     <use xlink:href="#DejaVuSans-20" x="621.533203"/>
     <use xlink:href="#DejaVuSans-53" x="653.320312"/>
     <use xlink:href="#DejaVuSans-52" x="716.796875"/>
     <use xlink:href="#DejaVuSans-56" x="780.779297"/>
     <use xlink:href="#DejaVuSans-20" x="849.1875"/>
     <use xlink:href="#DejaVuSans-6d" x="880.974609"/>
     <use xlink:href="#DejaVuSans-65" x="978.386719"/>
     <use xlink:href="#DejaVuSans-61" x="1039.910156"/>
     <use xlink:href="#DejaVuSans-6e" x="1101.189453"/>
     <use xlink:href="#DejaVuSans-20" x="1164.568359"/>
    </g>
   </g>
   <g id="legend_1">
    <g id="patch_167">
     <path d="M 658.918125 267.205 
L 831.96 267.205 
Q 835.56 267.205 835.56 263.605 
L 835.56 54.04 
Q 835.56 50.44 831.96 50.44 
L 658.918125 50.44 
Q 655.318125 50.44 655.318125 54.04 
L 655.318125 263.605 
Q 655.318125 267.205 658.918125 267.205 
z
" style="fill: #ffffff; opacity: 0.8; stroke: #cccccc; stroke-linejoin: miter"/>
    </g>
    <g id="patch_168">
     <path d="M 662.518125 71.317188 
L 698.518125 71.317188 
L 698.518125 58.717188 
L 662.518125 58.717188 
z
" style="fill: #1f77b4; opacity: 0.4"/>
    </g>
    <g id="text_15">
     <!-- FN-AKT -->
     <g transform="translate(712.918125 71.317188)scale(0.18 -0.18)">
      <defs>
       <path id="DejaVuSans-46" d="M 628 4666 
L 3309 4666 
L 3309 4134 
L 1259 4134 
L 1259 2759 
L 3109 2759 
L 3109 2228 
L 1259 2228 
L 1259 0 
L 628 0 
L 628 4666 
z
" transform="scale(0.015625)"/>
       <path id="DejaVuSans-4e" d="M 628 4666 
L 1478 4666 
L 3547 763 
L 3547 4666 
L 4159 4666 
L 4159 0 
L 3309 0 
L 1241 3903 
L 1241 0 
L 628 0 
L 628 4666 
z
" transform="scale(0.015625)"/>
       <path id="DejaVuSans-2d" d="M 313 2009 
L 1997 2009 
L 1997 1497 
L 313 1497 
L 313 2009 
z
" transform="scale(0.015625)"/>
       <path id="DejaVuSans-41" d="M 2188 4044 
L 1331 1722 
L 3047 1722 
L 2188 4044 
z
M 1831 4666 
L 2547 4666 
L 4325 0 
L 3669 0 
L 3244 1197 
L 1141 1197 
L 716 0 
L 50 0 
L 1831 4666 
z
" transform="scale(0.015625)"/>
       <path id="DejaVuSans-4b" d="M 628 4666 
L 1259 4666 
L 1259 2694 
L 3353 4666 
L 4166 4666 
L 1850 2491 
L 4331 0 
L 3500 0 
L 1259 2247 
L 1259 0 
L 628 0 
L 628 4666 
z
" transform="scale(0.015625)"/>
       <path id="DejaVuSans-54" d="M -19 4666 
L 3928 4666 
L 3928 4134 
L 2272 4134 
L 2272 0 
L 1638 0 
L 1638 4134 
L -19 4134 
L -19 4666 
z
" transform="scale(0.015625)"/>
      </defs>
      <use xlink:href="#DejaVuSans-46"/>
      <use xlink:href="#DejaVuSans-4e" x="57.519531"/>
      <use xlink:href="#DejaVuSans-2d" x="132.324219"/>
      <use xlink:href="#DejaVuSans-41" x="166.158203"/>
      <use xlink:href="#DejaVuSans-4b" x="234.566406"/>
      <use xlink:href="#DejaVuSans-54" x="292.392578"/>
     </g>
    </g>
    <g id="patch_169">
     <path d="M 662.518125 97.737813 
L 698.518125 97.737813 
L 698.518125 85.137813 
L 662.518125 85.137813 
z
" style="fill: #2ca02c; opacity: 0.4"/>
    </g>
    <g id="text_16">
     <!-- FN-APRE19 -->
     <g transform="translate(712.918125 97.737813)scale(0.18 -0.18)">
      <defs>
       <path id="DejaVuSans-50" d="M 1259 4147 
L 1259 2394 
L 2053 2394 
Q 2494 2394 2734 2622 
Q 2975 2850 2975 3272 
Q 2975 3691 2734 3919 
Q 2494 4147 2053 4147 
L 1259 4147 
z
M 628 4666 
L 2053 4666 
Q 2838 4666 3239 4311 
Q 3641 3956 3641 3272 
Q 3641 2581 3239 2228 
Q 2838 1875 2053 1875 
L 1259 1875 
L 1259 0 
L 628 0 
L 628 4666 
z
" transform="scale(0.015625)"/>
       <path id="DejaVuSans-45" d="M 628 4666 
L 3578 4666 
L 3578 4134 
L 1259 4134 
L 1259 2753 
L 3481 2753 
L 3481 2222 
L 1259 2222 
L 1259 531 
L 3634 531 
L 3634 0 
L 628 0 
L 628 4666 
z
" transform="scale(0.015625)"/>
       <path id="DejaVuSans-39" d="M 703 97 
L 703 672 
Q 941 559 1184 500 
Q 1428 441 1663 441 
Q 2288 441 2617 861 
Q 2947 1281 2994 2138 
Q 2813 1869 2534 1725 
Q 2256 1581 1919 1581 
Q 1219 1581 811 2004 
Q 403 2428 403 3163 
Q 403 3881 828 4315 
Q 1253 4750 1959 4750 
Q 2769 4750 3195 4129 
Q 3622 3509 3622 2328 
Q 3622 1225 3098 567 
Q 2575 -91 1691 -91 
Q 1453 -91 1209 -44 
Q 966 3 703 97 
z
M 1959 2075 
Q 2384 2075 2632 2365 
Q 2881 2656 2881 3163 
Q 2881 3666 2632 3958 
Q 2384 4250 1959 4250 
Q 1534 4250 1286 3958 
Q 1038 3666 1038 3163 
Q 1038 2656 1286 2365 
Q 1534 2075 1959 2075 
z
" transform="scale(0.015625)"/>
      </defs>
      <use xlink:href="#DejaVuSans-46"/>
      <use xlink:href="#DejaVuSans-4e" x="57.519531"/>
      <use xlink:href="#DejaVuSans-2d" x="132.324219"/>
      <use xlink:href="#DejaVuSans-41" x="166.158203"/>
      <use xlink:href="#DejaVuSans-50" x="234.566406"/>
      <use xlink:href="#DejaVuSans-52" x="294.869141"/>
      <use xlink:href="#DejaVuSans-45" x="364.351562"/>
      <use xlink:href="#DejaVuSans-31" x="427.535156"/>
      <use xlink:href="#DejaVuSans-39" x="491.158203"/>
     </g>
    </g>
    <g id="patch_170">
     <path d="M 662.518125 124.158437 
L 698.518125 124.158437 
L 698.518125 111.558437 
L 662.518125 111.558437 
z
" style="fill: #9467bd; opacity: 0.4"/>
    </g>
    <g id="text_17">
     <!-- FN-MEKDD -->
     <g transform="translate(712.918125 124.158437)scale(0.18 -0.18)">
      <defs>
       <path id="DejaVuSans-4d" d="M 628 4666 
L 1569 4666 
L 2759 1491 
L 3956 4666 
L 4897 4666 
L 4897 0 
L 4281 0 
L 4281 4097 
L 3078 897 
L 2444 897 
L 1241 4097 
L 1241 0 
L 628 0 
L 628 4666 
z
" transform="scale(0.015625)"/>
      </defs>
      <use xlink:href="#DejaVuSans-46"/>
      <use xlink:href="#DejaVuSans-4e" x="57.519531"/>
      <use xlink:href="#DejaVuSans-2d" x="132.324219"/>
      <use xlink:href="#DejaVuSans-4d" x="168.408203"/>
      <use xlink:href="#DejaVuSans-45" x="254.6875"/>
      <use xlink:href="#DejaVuSans-4b" x="317.871094"/>
      <use xlink:href="#DejaVuSans-44" x="383.447266"/>
      <use xlink:href="#DejaVuSans-44" x="460.449219"/>
     </g>
    </g>
    <g id="patch_171">
     <path d="M 662.518125 150.579063 
L 698.518125 150.579063 
L 698.518125 137.979063 
L 662.518125 137.979063 
z
" style="fill: #e377c2; opacity: 0.4"/>
    </g>
    <g id="text_18">
     <!-- FN-RAS -->
     <g transform="translate(712.918125 150.579063)scale(0.18 -0.18)">
      <use xlink:href="#DejaVuSans-46"/>
      <use xlink:href="#DejaVuSans-4e" x="57.519531"/>
      <use xlink:href="#DejaVuSans-2d" x="132.324219"/>
      <use xlink:href="#DejaVuSans-52" x="168.408203"/>
      <use xlink:href="#DejaVuSans-41" x="233.890625"/>
      <use xlink:href="#DejaVuSans-53" x="302.298828"/>
     </g>
    </g>
    <g id="patch_172">
     <path d="M 662.518125 176.999688 
L 698.518125 176.999688 
L 698.518125 164.399688 
L 662.518125 164.399688 
z
" style="fill: #ff7f0e; opacity: 0.4"/>
    </g>
    <g id="text_19">
     <!-- GDA-AKT -->
     <g transform="translate(712.918125 176.999688)scale(0.18 -0.18)">
      <defs>
       <path id="DejaVuSans-47" d="M 3809 666 
L 3809 1919 
L 2778 1919 
L 2778 2438 
L 4434 2438 
L 4434 434 
Q 4069 175 3628 42 
Q 3188 -91 2688 -91 
Q 1594 -91 976 548 
Q 359 1188 359 2328 
Q 359 3472 976 4111 
Q 1594 4750 2688 4750 
Q 3144 4750 3555 4637 
Q 3966 4525 4313 4306 
L 4313 3634 
Q 3963 3931 3569 4081 
Q 3175 4231 2741 4231 
Q 1884 4231 1454 3753 
Q 1025 3275 1025 2328 
Q 1025 1384 1454 906 
Q 1884 428 2741 428 
Q 3075 428 3337 486 
Q 3600 544 3809 666 
z
" transform="scale(0.015625)"/>
      </defs>
      <use xlink:href="#DejaVuSans-47"/>
      <use xlink:href="#DejaVuSans-44" x="77.490234"/>
      <use xlink:href="#DejaVuSans-41" x="152.742188"/>
      <use xlink:href="#DejaVuSans-2d" x="218.900391"/>
      <use xlink:href="#DejaVuSans-41" x="252.734375"/>
      <use xlink:href="#DejaVuSans-4b" x="321.142578"/>
      <use xlink:href="#DejaVuSans-54" x="378.96875"/>
     </g>
    </g>
    <g id="patch_173">
     <path d="M 662.518125 203.420313 
L 698.518125 203.420313 
L 698.518125 190.820313 
L 662.518125 190.820313 
z
" style="fill: #d62728; opacity: 0.4"/>
    </g>
    <g id="text_20">
     <!-- GDA-APRE19 -->
     <g transform="translate(712.918125 203.420313)scale(0.18 -0.18)">
      <use xlink:href="#DejaVuSans-47"/>
      <use xlink:href="#DejaVuSans-44" x="77.490234"/>
      <use xlink:href="#DejaVuSans-41" x="152.742188"/>
      <use xlink:href="#DejaVuSans-2d" x="218.900391"/>
      <use xlink:href="#DejaVuSans-41" x="252.734375"/>
      <use xlink:href="#DejaVuSans-50" x="321.142578"/>
      <use xlink:href="#DejaVuSans-52" x="381.445312"/>
      <use xlink:href="#DejaVuSans-45" x="450.927734"/>
      <use xlink:href="#DejaVuSans-31" x="514.111328"/>
      <use xlink:href="#DejaVuSans-39" x="577.734375"/>
     </g>
    </g>
    <g id="patch_174">
     <path d="M 662.518125 229.840938 
L 698.518125 229.840938 
L 698.518125 217.240938 
L 662.518125 217.240938 
z
" style="fill: #8c564b; opacity: 0.4"/>
    </g>
    <g id="text_21">
     <!-- GDA-MEKDD -->
     <g transform="translate(712.918125 229.840938)scale(0.18 -0.18)">
      <use xlink:href="#DejaVuSans-47"/>
      <use xlink:href="#DejaVuSans-44" x="77.490234"/>
      <use xlink:href="#DejaVuSans-41" x="152.742188"/>
      <use xlink:href="#DejaVuSans-2d" x="218.900391"/>
      <use xlink:href="#DejaVuSans-4d" x="254.984375"/>
      <use xlink:href="#DejaVuSans-45" x="341.263672"/>
      <use xlink:href="#DejaVuSans-4b" x="404.447266"/>
      <use xlink:href="#DejaVuSans-44" x="470.023438"/>
      <use xlink:href="#DejaVuSans-44" x="547.025391"/>
     </g>
    </g>
    <g id="patch_175">
     <path d="M 662.518125 256.261563 
L 698.518125 256.261563 
L 698.518125 243.661563 
L 662.518125 243.661563 
z
" style="fill: #7f7f7f; opacity: 0.4"/>
    </g>
    <g id="text_22">
     <!-- GDA-RAS -->
     <g transform="translate(712.918125 256.261563)scale(0.18 -0.18)">
      <use xlink:href="#DejaVuSans-47"/>
      <use xlink:href="#DejaVuSans-44" x="77.490234"/>
      <use xlink:href="#DejaVuSans-41" x="152.742188"/>
      <use xlink:href="#DejaVuSans-2d" x="218.900391"/>
      <use xlink:href="#DejaVuSans-52" x="254.984375"/>
      <use xlink:href="#DejaVuSans-41" x="320.466797"/>
      <use xlink:href="#DejaVuSans-53" x="388.875"/>
     </g>
    </g>
   </g>
  </g>
 </g>
 <defs>
  <clipPath id="p092007dbb9">
   <rect x="49.44" y="41.44" width="795.12" height="346.12"/>
  </clipPath>
 </defs>
</svg>
