<?xml version="1.0" encoding="utf-8" standalone="no"?>
<!DOCTYPE svg PUBLIC "-//W3C//DTD SVG 1.1//EN"
  "http://www.w3.org/Graphics/SVG/1.1/DTD/svg11.dtd">
<svg xmlns:xlink="http://www.w3.org/1999/xlink" width="1152pt" height="360pt" viewBox="0 0 1152 360" xmlns="http://www.w3.org/2000/svg" version="1.1">
 <metadata>
  <rdf:RDF xmlns:dc="http://purl.org/dc/elements/1.1/" xmlns:cc="http://creativecommons.org/ns#" xmlns:rdf="http://www.w3.org/1999/02/22-rdf-syntax-ns#">
   <cc:Work>
    <dc:type rdf:resource="http://purl.org/dc/dcmitype/StillImage"/>
    <dc:date>2023-12-28T20:57:12.332255</dc:date>
    <dc:format>image/svg+xml</dc:format>
    <dc:creator>
     <cc:Agent>
      <dc:title>Matplotlib v3.6.2, https://matplotlib.org/</dc:title>
     </cc:Agent>
    </dc:creator>
   </cc:Work>
  </rdf:RDF>
 </metadata>
 <defs>
  <style type="text/css">*{stroke-linejoin: round; stroke-linecap: butt}</style>
 </defs>
 <g id="figure_1">
  <g id="patch_1">
   <path d="M 0 360 
L 1152 360 
L 1152 0 
L 0 0 
z
" style="fill: #ffffff"/>
  </g>
  <g id="axes_1">
   <g id="patch_2">
    <path d="M 144 320.4 
L 406.588235 320.4 
L 406.588235 43.2 
L 144 43.2 
z
" style="fill: #ffffff"/>
   </g>
   <g id="matplotlib.axis_1">
    <g id="xtick_1">
     <g id="line2d_1">
      <defs>
       <path id="mf4e3be74d2" d="M 0 0 
L 0 3.5 
" style="stroke: #000000; stroke-width: 0.8"/>
      </defs>
      <g>
       <use xlink:href="#mf4e3be74d2" x="177.162282" y="320.4" style="stroke: #000000; stroke-width: 0.8"/>
      </g>
     </g>
     <g id="text_1">
      <!-- −0.075 -->
      <g transform="translate(156.659051 362.518085) rotate(-30) scale(0.14 -0.14)">
       <defs>
        <path id="DejaVuSans-2212" d="M 678 2272 
L 4684 2272 
L 4684 1741 
L 678 1741 
L 678 2272 
z
" transform="scale(0.015625)"/>
        <path id="DejaVuSans-30" d="M 2034 4250 
Q 1547 4250 1301 3770 
Q 1056 3291 1056 2328 
Q 1056 1369 1301 889 
Q 1547 409 2034 409 
Q 2525 409 2770 889 
Q 3016 1369 3016 2328 
Q 3016 3291 2770 3770 
Q 2525 4250 2034 4250 
z
M 2034 4750 
Q 2819 4750 3233 4129 
Q 3647 3509 3647 2328 
Q 3647 1150 3233 529 
Q 2819 -91 2034 -91 
Q 1250 -91 836 529 
Q 422 1150 422 2328 
Q 422 3509 836 4129 
Q 1250 4750 2034 4750 
z
" transform="scale(0.015625)"/>
        <path id="DejaVuSans-2e" d="M 684 794 
L 1344 794 
L 1344 0 
L 684 0 
L 684 794 
z
" transform="scale(0.015625)"/>
        <path id="DejaVuSans-37" d="M 525 4666 
L 3525 4666 
L 3525 4397 
L 1831 0 
L 1172 0 
L 2766 4134 
L 525 4134 
L 525 4666 
z
" transform="scale(0.015625)"/>
        <path id="DejaVuSans-35" d="M 691 4666 
L 3169 4666 
L 3169 4134 
L 1269 4134 
L 1269 2991 
Q 1406 3038 1543 3061 
Q 1681 3084 1819 3084 
Q 2600 3084 3056 2656 
Q 3513 2228 3513 1497 
Q 3513 744 3044 326 
Q 2575 -91 1722 -91 
Q 1428 -91 1123 -41 
Q 819 9 494 109 
L 494 744 
Q 775 591 1075 516 
Q 1375 441 1709 441 
Q 2250 441 2565 725 
Q 2881 1009 2881 1497 
Q 2881 1984 2565 2268 
Q 2250 2553 1709 2553 
Q 1456 2553 1204 2497 
Q 953 2441 691 2322 
L 691 4666 
z
" transform="scale(0.015625)"/>
       </defs>
       <use xlink:href="#DejaVuSans-2212"/>
       <use xlink:href="#DejaVuSans-30" x="83.789062"/>
       <use xlink:href="#DejaVuSans-2e" x="147.412109"/>
       <use xlink:href="#DejaVuSans-30" x="179.199219"/>
       <use xlink:href="#DejaVuSans-37" x="242.822266"/>
       <use xlink:href="#DejaVuSans-35" x="306.445312"/>
      </g>
     </g>
    </g>
    <g id="xtick_2">
     <g id="line2d_2">
      <g>
       <use xlink:href="#mf4e3be74d2" x="210.863504" y="320.4" style="stroke: #000000; stroke-width: 0.8"/>
      </g>
     </g>
     <g id="text_2">
      <!-- −0.050 -->
      <g transform="translate(190.360272 362.518085) rotate(-30) scale(0.14 -0.14)">
       <use xlink:href="#DejaVuSans-2212"/>
       <use xlink:href="#DejaVuSans-30" x="83.789062"/>
       <use xlink:href="#DejaVuSans-2e" x="147.412109"/>
       <use xlink:href="#DejaVuSans-30" x="179.199219"/>
       <use xlink:href="#DejaVuSans-35" x="242.822266"/>
       <use xlink:href="#DejaVuSans-30" x="306.445312"/>
      </g>
     </g>
    </g>
    <g id="xtick_3">
     <g id="line2d_3">
      <g>
       <use xlink:href="#mf4e3be74d2" x="244.564725" y="320.4" style="stroke: #000000; stroke-width: 0.8"/>
      </g>
     </g>
     <g id="text_3">
      <!-- −0.025 -->
      <g transform="translate(224.061494 362.518085) rotate(-30) scale(0.14 -0.14)">
       <defs>
        <path id="DejaVuSans-32" d="M 1228 531 
L 3431 531 
L 3431 0 
L 469 0 
L 469 531 
Q 828 903 1448 1529 
Q 2069 2156 2228 2338 
Q 2531 2678 2651 2914 
Q 2772 3150 2772 3378 
Q 2772 3750 2511 3984 
Q 2250 4219 1831 4219 
Q 1534 4219 1204 4116 
Q 875 4013 500 3803 
L 500 4441 
Q 881 4594 1212 4672 
Q 1544 4750 1819 4750 
Q 2544 4750 2975 4387 
Q 3406 4025 3406 3419 
Q 3406 3131 3298 2873 
Q 3191 2616 2906 2266 
Q 2828 2175 2409 1742 
Q 1991 1309 1228 531 
z
" transform="scale(0.015625)"/>
       </defs>
       <use xlink:href="#DejaVuSans-2212"/>
       <use xlink:href="#DejaVuSans-30" x="83.789062"/>
       <use xlink:href="#DejaVuSans-2e" x="147.412109"/>
       <use xlink:href="#DejaVuSans-30" x="179.199219"/>
       <use xlink:href="#DejaVuSans-32" x="242.822266"/>
       <use xlink:href="#DejaVuSans-35" x="306.445312"/>
      </g>
     </g>
    </g>
    <g id="xtick_4">
     <g id="line2d_4">
      <g>
       <use xlink:href="#mf4e3be74d2" x="278.265947" y="320.4" style="stroke: #000000; stroke-width: 0.8"/>
      </g>
     </g>
     <g id="text_4">
      <!-- 0.000 -->
      <g transform="translate(262.842631 356.652303) rotate(-30) scale(0.14 -0.14)">
       <use xlink:href="#DejaVuSans-30"/>
       <use xlink:href="#DejaVuSans-2e" x="63.623047"/>
       <use xlink:href="#DejaVuSans-30" x="95.410156"/>
       <use xlink:href="#DejaVuSans-30" x="159.033203"/>
       <use xlink:href="#DejaVuSans-30" x="222.65625"/>
      </g>
     </g>
    </g>
    <g id="xtick_5">
     <g id="line2d_5">
      <g>
       <use xlink:href="#mf4e3be74d2" x="311.967168" y="320.4" style="stroke: #000000; stroke-width: 0.8"/>
      </g>
     </g>
     <g id="text_5">
      <!-- 0.025 -->
      <g transform="translate(296.543852 356.652303) rotate(-30) scale(0.14 -0.14)">
       <use xlink:href="#DejaVuSans-30"/>
       <use xlink:href="#DejaVuSans-2e" x="63.623047"/>
       <use xlink:href="#DejaVuSans-30" x="95.410156"/>
       <use xlink:href="#DejaVuSans-32" x="159.033203"/>
       <use xlink:href="#DejaVuSans-35" x="222.65625"/>
      </g>
     </g>
    </g>
    <g id="xtick_6">
     <g id="line2d_6">
      <g>
       <use xlink:href="#mf4e3be74d2" x="345.66839" y="320.4" style="stroke: #000000; stroke-width: 0.8"/>
      </g>
     </g>
     <g id="text_6">
      <!-- 0.050 -->
      <g transform="translate(330.245074 356.652303) rotate(-30) scale(0.14 -0.14)">
       <use xlink:href="#DejaVuSans-30"/>
       <use xlink:href="#DejaVuSans-2e" x="63.623047"/>
       <use xlink:href="#DejaVuSans-30" x="95.410156"/>
       <use xlink:href="#DejaVuSans-35" x="159.033203"/>
       <use xlink:href="#DejaVuSans-30" x="222.65625"/>
      </g>
     </g>
    </g>
    <g id="xtick_7">
     <g id="line2d_7">
      <g>
       <use xlink:href="#mf4e3be74d2" x="379.369611" y="320.4" style="stroke: #000000; stroke-width: 0.8"/>
      </g>
     </g>
     <g id="text_7">
      <!-- 0.075 -->
      <g transform="translate(363.946295 356.652303) rotate(-30) scale(0.14 -0.14)">
       <use xlink:href="#DejaVuSans-30"/>
       <use xlink:href="#DejaVuSans-2e" x="63.623047"/>
       <use xlink:href="#DejaVuSans-30" x="95.410156"/>
       <use xlink:href="#DejaVuSans-37" x="159.033203"/>
       <use xlink:href="#DejaVuSans-35" x="222.65625"/>
      </g>
     </g>
    </g>
   </g>
   <g id="matplotlib.axis_2">
    <g id="ytick_1">
     <g id="line2d_8">
      <defs>
       <path id="m580ba59f88" d="M 0 0 
L -3.5 0 
" style="stroke: #000000; stroke-width: 0.8"/>
      </defs>
      <g>
       <use xlink:href="#m580ba59f88" x="144" y="304.106283" style="stroke: #000000; stroke-width: 0.8"/>
      </g>
     </g>
     <g id="text_8">
      <!-- −0.100 -->
      <g transform="translate(85.189063 309.42519) scale(0.14 -0.14)">
       <defs>
        <path id="DejaVuSans-31" d="M 794 531 
L 1825 531 
L 1825 4091 
L 703 3866 
L 703 4441 
L 1819 4666 
L 2450 4666 
L 2450 531 
L 3481 531 
L 3481 0 
L 794 0 
L 794 531 
z
" transform="scale(0.015625)"/>
       </defs>
       <use xlink:href="#DejaVuSans-2212"/>
       <use xlink:href="#DejaVuSans-30" x="83.789062"/>
       <use xlink:href="#DejaVuSans-2e" x="147.412109"/>
       <use xlink:href="#DejaVuSans-31" x="179.199219"/>
       <use xlink:href="#DejaVuSans-30" x="242.822266"/>
       <use xlink:href="#DejaVuSans-30" x="306.445312"/>
      </g>
     </g>
    </g>
    <g id="ytick_2">
     <g id="line2d_9">
      <g>
       <use xlink:href="#m580ba59f88" x="144" y="270.405062" style="stroke: #000000; stroke-width: 0.8"/>
      </g>
     </g>
     <g id="text_9">
      <!-- −0.075 -->
      <g transform="translate(85.189063 275.723968) scale(0.14 -0.14)">
       <use xlink:href="#DejaVuSans-2212"/>
       <use xlink:href="#DejaVuSans-30" x="83.789062"/>
       <use xlink:href="#DejaVuSans-2e" x="147.412109"/>
       <use xlink:href="#DejaVuSans-30" x="179.199219"/>
       <use xlink:href="#DejaVuSans-37" x="242.822266"/>
       <use xlink:href="#DejaVuSans-35" x="306.445312"/>
      </g>
     </g>
    </g>
    <g id="ytick_3">
     <g id="line2d_10">
      <g>
       <use xlink:href="#m580ba59f88" x="144" y="236.70384" style="stroke: #000000; stroke-width: 0.8"/>
      </g>
     </g>
     <g id="text_10">
      <!-- −0.050 -->
      <g transform="translate(85.189063 242.022747) scale(0.14 -0.14)">
       <use xlink:href="#DejaVuSans-2212"/>
       <use xlink:href="#DejaVuSans-30" x="83.789062"/>
       <use xlink:href="#DejaVuSans-2e" x="147.412109"/>
       <use xlink:href="#DejaVuSans-30" x="179.199219"/>
       <use xlink:href="#DejaVuSans-35" x="242.822266"/>
       <use xlink:href="#DejaVuSans-30" x="306.445312"/>
      </g>
     </g>
    </g>
    <g id="ytick_4">
     <g id="line2d_11">
      <g>
       <use xlink:href="#m580ba59f88" x="144" y="203.002619" style="stroke: #000000; stroke-width: 0.8"/>
      </g>
     </g>
     <g id="text_11">
      <!-- −0.025 -->
      <g transform="translate(85.189063 208.321525) scale(0.14 -0.14)">
       <use xlink:href="#DejaVuSans-2212"/>
       <use xlink:href="#DejaVuSans-30" x="83.789062"/>
       <use xlink:href="#DejaVuSans-2e" x="147.412109"/>
       <use xlink:href="#DejaVuSans-30" x="179.199219"/>
       <use xlink:href="#DejaVuSans-32" x="242.822266"/>
       <use xlink:href="#DejaVuSans-35" x="306.445312"/>
      </g>
     </g>
    </g>
    <g id="ytick_5">
     <g id="line2d_12">
      <g>
       <use xlink:href="#m580ba59f88" x="144" y="169.301397" style="stroke: #000000; stroke-width: 0.8"/>
      </g>
     </g>
     <g id="text_12">
      <!-- 0.000 -->
      <g transform="translate(96.920625 174.620303) scale(0.14 -0.14)">
       <use xlink:href="#DejaVuSans-30"/>
       <use xlink:href="#DejaVuSans-2e" x="63.623047"/>
       <use xlink:href="#DejaVuSans-30" x="95.410156"/>
       <use xlink:href="#DejaVuSans-30" x="159.033203"/>
       <use xlink:href="#DejaVuSans-30" x="222.65625"/>
      </g>
     </g>
    </g>
    <g id="ytick_6">
     <g id="line2d_13">
      <g>
       <use xlink:href="#m580ba59f88" x="144" y="135.600176" style="stroke: #000000; stroke-width: 0.8"/>
      </g>
     </g>
     <g id="text_13">
      <!-- 0.025 -->
      <g transform="translate(96.920625 140.919082) scale(0.14 -0.14)">
       <use xlink:href="#DejaVuSans-30"/>
       <use xlink:href="#DejaVuSans-2e" x="63.623047"/>
       <use xlink:href="#DejaVuSans-30" x="95.410156"/>
       <use xlink:href="#DejaVuSans-32" x="159.033203"/>
       <use xlink:href="#DejaVuSans-35" x="222.65625"/>
      </g>
     </g>
    </g>
    <g id="ytick_7">
     <g id="line2d_14">
      <g>
       <use xlink:href="#m580ba59f88" x="144" y="101.898954" style="stroke: #000000; stroke-width: 0.8"/>
      </g>
     </g>
     <g id="text_14">
      <!-- 0.050 -->
      <g transform="translate(96.920625 107.21786) scale(0.14 -0.14)">
       <use xlink:href="#DejaVuSans-30"/>
       <use xlink:href="#DejaVuSans-2e" x="63.623047"/>
       <use xlink:href="#DejaVuSans-30" x="95.410156"/>
       <use xlink:href="#DejaVuSans-35" x="159.033203"/>
       <use xlink:href="#DejaVuSans-30" x="222.65625"/>
      </g>
     </g>
    </g>
    <g id="ytick_8">
     <g id="line2d_15">
      <g>
       <use xlink:href="#m580ba59f88" x="144" y="68.197733" style="stroke: #000000; stroke-width: 0.8"/>
      </g>
     </g>
     <g id="text_15">
      <!-- 0.075 -->
      <g transform="translate(96.920625 73.516639) scale(0.14 -0.14)">
       <use xlink:href="#DejaVuSans-30"/>
       <use xlink:href="#DejaVuSans-2e" x="63.623047"/>
       <use xlink:href="#DejaVuSans-30" x="95.410156"/>
       <use xlink:href="#DejaVuSans-37" x="159.033203"/>
       <use xlink:href="#DejaVuSans-35" x="222.65625"/>
      </g>
     </g>
    </g>
   </g>
   <g id="line2d_16">
    <path d="M 267.018396 307.8 
L 264.036148 303.475749 
L 265.527272 300.642622 
L 259.861018 303.028384 
L 257.176967 306.308876 
L 255.834964 304.072189 
L 255.089402 300.642622 
L 257.027845 298.405935 
L 261.352142 297.063887 
L 264.334391 295.572763 
L 270.000645 292.888757 
L 278.35095 289.906509 
L 284.315401 286.92426 
L 287.894136 281.854447 
L 289.38526 276.784634 
L 292.367509 265.302959 
L 293.858633 254.715967 
L 289.38526 246.216586 
L 292.069266 241.892289 
L 289.38526 236.226036 
L 284.911887 230.41066 
L 277.754509 224.297041 
L 270.895328 228.770414 
L 264.930831 227.27929 
L 257.326089 230.261538 
L 253.001837 231.156222 
L 247.335538 228.472171 
L 245.844414 223.998798 
L 243.160408 218.332544 
L 234.810103 215.350296 
L 230.33673 216.24498 
L 227.20536 215.797615 
L 224.372233 214.455612 
L 220.047982 214.604734 
L 202.60181 217.139663 
L 198.128437 221.314793 
L 192.462183 219.227228 
L 189.479935 210.876923 
L 188.137932 202.079299 
L 185.453881 196.413 
L 186.795929 192.685189 
L 191.716621 189.255621 
L 195.146189 182.843805 
L 199.321364 180.159754 
L 202.303612 175.686381 
L 206.031423 170.467447 
L 210.355674 169.125444 
L 213.337923 160.775139 
L 216.021928 158.985817 
L 219.89886 156.599964 
L 219.89886 148.84619 
L 220.197104 141.688721 
L 214.381728 140.346764 
L 213.636166 133.338462 
L 216.469293 134.829586 
L 220.793544 131.847337 
L 222.135547 128.865089 
L 225.266917 122.304106 
L 226.758041 116.787019 
L 221.986425 114.252089 
L 218.556858 116.190533 
L 218.407736 119.023705 
L 218.855101 122.900592 
L 216.021928 121.409467 
L 213.337923 119.6201 
L 214.829047 115.44497 
L 223.030231 108.734911 
L 224.968674 105.305344 
L 226.310722 102.472171 
L 225.863358 98.147965 
L 223.030231 96.805917 
L 221.986425 96.060355 
L 225.714236 97.551479 
L 228.249165 94.867474 
L 226.758041 88.455658 
L 217.811296 78.166864 
L 211.99592 76.824816 
L 207.671669 77.868621 
L 204.838496 79.210669 
L 202.900053 78.76335 
L 210.355674 69.96568 
L 207.373426 65.641384 
L 208.86455 62.360983 
L 215.12729 59.97513 
L 218.109539 58.484005 
L 222.284668 55.8 
L 223.626671 61.615421 
L 227.652725 64.150259 
L 234.810103 62.659135 
L 238.090595 63.255621 
L 242.414846 66.23787 
L 247.335538 69.220118 
L 251.063348 70.711243 
L 253.598278 68.623632 
L 250.616029 63.106545 
L 253.598278 61.764497 
L 256.431405 63.255621 
L 258.071651 65.939627 
L 259.711896 70.860319 
L 265.825515 70.413 
L 266.272834 66.983432 
L 270.000645 66.834356 
L 275.368701 72.202367 
L 278.94739 70.413 
L 280.885834 68.772799 
L 284.911887 61.764497 
L 291.771023 60.273373 
L 295.051514 61.764497 
L 298.332006 68.921875 
L 300.717768 72.202367 
L 304.296503 68.474556 
L 305.787627 65.641384 
L 307.72607 63.255621 
L 310.261 65.044989 
L 307.278751 69.369194 
L 308.769875 72.202367 
L 310.111924 75.035539 
L 309.068119 79.359745 
L 309.813681 83.684042 
L 311.155638 88.008248 
L 309.366362 98.147965 
L 315.032616 97.253236 
L 319.505988 91.586982 
L 320.549794 96.209431 
L 319.207745 99.042604 
L 316.225497 103.3669 
L 319.207745 107.691106 
L 321.742675 109.480473 
L 329.049129 107.989349 
L 339.337923 109.480473 
L 347.240863 107.989349 
L 352.459798 110.971598 
L 353.801846 114.252089 
L 355.292971 117.234338 
L 357.976976 127.373964 
L 360.959225 134.382267 
L 362.450349 141.092326 
L 363.941473 145.863942 
L 359.169857 149.740828 
L 356.485852 152.723077 
L 360.064586 157.19645 
L 361.406544 166.590514 
L 365.134354 173.89706 
L 362.450349 178.072189 
L 363.941473 184.93137 
L 361.257468 187.018935 
L 357.976976 191.044989 
L 354.994728 198.202367 
L 353.503603 201.035494 
L 351.56516 202.377497 
L 348.731987 203.719545 
L 345.898906 204.763305 
L 343.065733 203.421302 
L 340.083485 210.429604 
L 344.556858 223.10416 
L 343.065733 226.533728 
L 344.556858 229.366855 
L 349.030231 235.18223 
L 352.012479 239.804725 
L 347.539106 246.663905 
L 344.705934 248.15503 
L 347.837349 241.892289 
L 347.539106 237.120719 
L 342.76749 233.243787 
L 337.101236 238.462722 
L 338.592361 242.488776 
L 337.101236 247.558589 
L 338.592361 251.435521 
L 335.610112 249.198835 
L 337.101236 243.681657 
L 334.417231 238.015403 
L 331.434982 236.524279 
L 328.60181 237.269841 
L 322.78648 236.822476 
L 319.953307 236.971598 
L 315.629011 238.3136 
L 313.392324 243.532535 
L 309.366362 255.01421 
L 305.638551 260.233145 
L 304.296503 263.066272 
L 305.787627 265.899399 
L 304.296503 278.275758 
L 300.717768 283.047328 
L 297.139124 288.117142 
L 293.113071 295.871006 
L 289.38526 297.958571 
L 284.464568 303.326627 
L 281.034955 301.835503 
L 274.026698 304.817751 
L 274.026698 304.817751 
" clip-path="url(#pb0ab13c336)" style="fill: none; stroke: #1f77b4; stroke-width: 1.5; stroke-linecap: square"/>
   </g>
   <g id="line2d_17">
    <defs>
     <path id="mdaa681e915" d="M 0 3 
C 0.795609 3 1.55874 2.683901 2.12132 2.12132 
C 2.683901 1.55874 3 0.795609 3 0 
C 3 -0.795609 2.683901 -1.55874 2.12132 -2.12132 
C 1.55874 -2.683901 0.795609 -3 0 -3 
C -0.795609 -3 -1.55874 -2.683901 -2.12132 -2.12132 
C -2.683901 -1.55874 -3 -0.795609 -3 0 
C -3 0.795609 -2.683901 1.55874 -2.12132 2.12132 
C -1.55874 2.683901 -0.795609 3 0 3 
z
" style="stroke: #ff0000"/>
    </defs>
    <g clip-path="url(#pb0ab13c336)">
     <use xlink:href="#mdaa681e915" x="267.018396" y="307.8" style="fill: #ff0000; stroke: #ff0000"/>
    </g>
   </g>
   <g id="patch_3">
    <path d="M 144 320.4 
L 144 43.2 
" style="fill: none; stroke: #000000; stroke-width: 0.8; stroke-linejoin: miter; stroke-linecap: square"/>
   </g>
   <g id="patch_4">
    <path d="M 406.588235 320.4 
L 406.588235 43.2 
" style="fill: none; stroke: #000000; stroke-width: 0.8; stroke-linejoin: miter; stroke-linecap: square"/>
   </g>
   <g id="patch_5">
    <path d="M 144 320.4 
L 406.588235 320.4 
" style="fill: none; stroke: #000000; stroke-width: 0.8; stroke-linejoin: miter; stroke-linecap: square"/>
   </g>
   <g id="patch_6">
    <path d="M 144 43.2 
L 406.588235 43.2 
" style="fill: none; stroke: #000000; stroke-width: 0.8; stroke-linejoin: miter; stroke-linecap: square"/>
   </g>
   <g id="text_16">
    <!-- Reference curve -->
    <g transform="translate(226.364118 37.2) scale(0.12 -0.12)">
     <defs>
      <path id="DejaVuSans-52" d="M 2841 2188 
Q 3044 2119 3236 1894 
Q 3428 1669 3622 1275 
L 4263 0 
L 3584 0 
L 2988 1197 
Q 2756 1666 2539 1819 
Q 2322 1972 1947 1972 
L 1259 1972 
L 1259 0 
L 628 0 
L 628 4666 
L 2053 4666 
Q 2853 4666 3247 4331 
Q 3641 3997 3641 3322 
Q 3641 2881 3436 2590 
Q 3231 2300 2841 2188 
z
M 1259 4147 
L 1259 2491 
L 2053 2491 
Q 2509 2491 2742 2702 
Q 2975 2913 2975 3322 
Q 2975 3731 2742 3939 
Q 2509 4147 2053 4147 
L 1259 4147 
z
" transform="scale(0.015625)"/>
      <path id="DejaVuSans-65" d="M 3597 1894 
L 3597 1613 
L 953 1613 
Q 991 1019 1311 708 
Q 1631 397 2203 397 
Q 2534 397 2845 478 
Q 3156 559 3463 722 
L 3463 178 
Q 3153 47 2828 -22 
Q 2503 -91 2169 -91 
Q 1331 -91 842 396 
Q 353 884 353 1716 
Q 353 2575 817 3079 
Q 1281 3584 2069 3584 
Q 2775 3584 3186 3129 
Q 3597 2675 3597 1894 
z
M 3022 2063 
Q 3016 2534 2758 2815 
Q 2500 3097 2075 3097 
Q 1594 3097 1305 2825 
Q 1016 2553 972 2059 
L 3022 2063 
z
" transform="scale(0.015625)"/>
      <path id="DejaVuSans-66" d="M 2375 4863 
L 2375 4384 
L 1825 4384 
Q 1516 4384 1395 4259 
Q 1275 4134 1275 3809 
L 1275 3500 
L 2222 3500 
L 2222 3053 
L 1275 3053 
L 1275 0 
L 697 0 
L 697 3053 
L 147 3053 
L 147 3500 
L 697 3500 
L 697 3744 
Q 697 4328 969 4595 
Q 1241 4863 1831 4863 
L 2375 4863 
z
" transform="scale(0.015625)"/>
      <path id="DejaVuSans-72" d="M 2631 2963 
Q 2534 3019 2420 3045 
Q 2306 3072 2169 3072 
Q 1681 3072 1420 2755 
Q 1159 2438 1159 1844 
L 1159 0 
L 581 0 
L 581 3500 
L 1159 3500 
L 1159 2956 
Q 1341 3275 1631 3429 
Q 1922 3584 2338 3584 
Q 2397 3584 2469 3576 
Q 2541 3569 2628 3553 
L 2631 2963 
z
" transform="scale(0.015625)"/>
      <path id="DejaVuSans-6e" d="M 3513 2113 
L 3513 0 
L 2938 0 
L 2938 2094 
Q 2938 2591 2744 2837 
Q 2550 3084 2163 3084 
Q 1697 3084 1428 2787 
Q 1159 2491 1159 1978 
L 1159 0 
L 581 0 
L 581 3500 
L 1159 3500 
L 1159 2956 
Q 1366 3272 1645 3428 
Q 1925 3584 2291 3584 
Q 2894 3584 3203 3211 
Q 3513 2838 3513 2113 
z
" transform="scale(0.015625)"/>
      <path id="DejaVuSans-63" d="M 3122 3366 
L 3122 2828 
Q 2878 2963 2633 3030 
Q 2388 3097 2138 3097 
Q 1578 3097 1268 2742 
Q 959 2388 959 1747 
Q 959 1106 1268 751 
Q 1578 397 2138 397 
Q 2388 397 2633 464 
Q 2878 531 3122 666 
L 3122 134 
Q 2881 22 2623 -34 
Q 2366 -91 2075 -91 
Q 1284 -91 818 406 
Q 353 903 353 1747 
Q 353 2603 823 3093 
Q 1294 3584 2113 3584 
Q 2378 3584 2631 3529 
Q 2884 3475 3122 3366 
z
" transform="scale(0.015625)"/>
      <path id="DejaVuSans-20" transform="scale(0.015625)"/>
      <path id="DejaVuSans-75" d="M 544 1381 
L 544 3500 
L 1119 3500 
L 1119 1403 
Q 1119 906 1312 657 
Q 1506 409 1894 409 
Q 2359 409 2629 706 
Q 2900 1003 2900 1516 
L 2900 3500 
L 3475 3500 
L 3475 0 
L 2900 0 
L 2900 538 
Q 2691 219 2414 64 
Q 2138 -91 1772 -91 
Q 1169 -91 856 284 
Q 544 659 544 1381 
z
M 1991 3584 
L 1991 3584 
z
" transform="scale(0.015625)"/>
      <path id="DejaVuSans-76" d="M 191 3500 
L 800 3500 
L 1894 563 
L 2988 3500 
L 3597 3500 
L 2284 0 
L 1503 0 
L 191 3500 
z
" transform="scale(0.015625)"/>
     </defs>
     <use xlink:href="#DejaVuSans-52"/>
     <use xlink:href="#DejaVuSans-65" x="64.982422"/>
     <use xlink:href="#DejaVuSans-66" x="126.505859"/>
     <use xlink:href="#DejaVuSans-65" x="161.710938"/>
     <use xlink:href="#DejaVuSans-72" x="223.234375"/>
     <use xlink:href="#DejaVuSans-65" x="262.097656"/>
     <use xlink:href="#DejaVuSans-6e" x="323.621094"/>
     <use xlink:href="#DejaVuSans-63" x="387"/>
     <use xlink:href="#DejaVuSans-65" x="441.980469"/>
     <use xlink:href="#DejaVuSans-20" x="503.503906"/>
     <use xlink:href="#DejaVuSans-63" x="535.291016"/>
     <use xlink:href="#DejaVuSans-75" x="590.271484"/>
     <use xlink:href="#DejaVuSans-72" x="653.650391"/>
     <use xlink:href="#DejaVuSans-76" x="694.763672"/>
     <use xlink:href="#DejaVuSans-65" x="753.943359"/>
    </g>
   </g>
  </g>
  <g id="axes_2">
   <g id="patch_7">
    <path d="M 459.105882 320.4 
L 721.694118 320.4 
L 721.694118 43.2 
L 459.105882 43.2 
z
" style="fill: #ffffff"/>
   </g>
   <g id="matplotlib.axis_3">
    <g id="xtick_8">
     <g id="line2d_18">
      <g>
       <use xlink:href="#mf4e3be74d2" x="466.734405" y="320.4" style="stroke: #000000; stroke-width: 0.8"/>
      </g>
     </g>
     <g id="text_17">
      <!-- −0.075 -->
      <g transform="translate(446.231174 362.518085) rotate(-30) scale(0.14 -0.14)">
       <use xlink:href="#DejaVuSans-2212"/>
       <use xlink:href="#DejaVuSans-30" x="83.789062"/>
       <use xlink:href="#DejaVuSans-2e" x="147.412109"/>
       <use xlink:href="#DejaVuSans-30" x="179.199219"/>
       <use xlink:href="#DejaVuSans-37" x="242.822266"/>
       <use xlink:href="#DejaVuSans-35" x="306.445312"/>
      </g>
     </g>
    </g>
    <g id="xtick_9">
     <g id="line2d_19">
      <g>
       <use xlink:href="#mf4e3be74d2" x="503.610886" y="320.4" style="stroke: #000000; stroke-width: 0.8"/>
      </g>
     </g>
     <g id="text_18">
      <!-- −0.050 -->
      <g transform="translate(483.107654 362.518085) rotate(-30) scale(0.14 -0.14)">
       <use xlink:href="#DejaVuSans-2212"/>
       <use xlink:href="#DejaVuSans-30" x="83.789062"/>
       <use xlink:href="#DejaVuSans-2e" x="147.412109"/>
       <use xlink:href="#DejaVuSans-30" x="179.199219"/>
       <use xlink:href="#DejaVuSans-35" x="242.822266"/>
       <use xlink:href="#DejaVuSans-30" x="306.445312"/>
      </g>
     </g>
    </g>
    <g id="xtick_10">
     <g id="line2d_20">
      <g>
       <use xlink:href="#mf4e3be74d2" x="540.487366" y="320.4" style="stroke: #000000; stroke-width: 0.8"/>
      </g>
     </g>
     <g id="text_19">
      <!-- −0.025 -->
      <g transform="translate(519.984134 362.518085) rotate(-30) scale(0.14 -0.14)">
       <use xlink:href="#DejaVuSans-2212"/>
       <use xlink:href="#DejaVuSans-30" x="83.789062"/>
       <use xlink:href="#DejaVuSans-2e" x="147.412109"/>
       <use xlink:href="#DejaVuSans-30" x="179.199219"/>
       <use xlink:href="#DejaVuSans-32" x="242.822266"/>
       <use xlink:href="#DejaVuSans-35" x="306.445312"/>
      </g>
     </g>
    </g>
    <g id="xtick_11">
     <g id="line2d_21">
      <g>
       <use xlink:href="#mf4e3be74d2" x="577.363846" y="320.4" style="stroke: #000000; stroke-width: 0.8"/>
      </g>
     </g>
     <g id="text_20">
      <!-- 0.000 -->
      <g transform="translate(561.94053 356.652303) rotate(-30) scale(0.14 -0.14)">
       <use xlink:href="#DejaVuSans-30"/>
       <use xlink:href="#DejaVuSans-2e" x="63.623047"/>
       <use xlink:href="#DejaVuSans-30" x="95.410156"/>
       <use xlink:href="#DejaVuSans-30" x="159.033203"/>
       <use xlink:href="#DejaVuSans-30" x="222.65625"/>
      </g>
     </g>
    </g>
    <g id="xtick_12">
     <g id="line2d_22">
      <g>
       <use xlink:href="#mf4e3be74d2" x="614.240326" y="320.4" style="stroke: #000000; stroke-width: 0.8"/>
      </g>
     </g>
     <g id="text_21">
      <!-- 0.025 -->
      <g transform="translate(598.81701 356.652303) rotate(-30) scale(0.14 -0.14)">
       <use xlink:href="#DejaVuSans-30"/>
       <use xlink:href="#DejaVuSans-2e" x="63.623047"/>
       <use xlink:href="#DejaVuSans-30" x="95.410156"/>
       <use xlink:href="#DejaVuSans-32" x="159.033203"/>
       <use xlink:href="#DejaVuSans-35" x="222.65625"/>
      </g>
     </g>
    </g>
    <g id="xtick_13">
     <g id="line2d_23">
      <g>
       <use xlink:href="#mf4e3be74d2" x="651.116807" y="320.4" style="stroke: #000000; stroke-width: 0.8"/>
      </g>
     </g>
     <g id="text_22">
      <!-- 0.050 -->
      <g transform="translate(635.693491 356.652303) rotate(-30) scale(0.14 -0.14)">
       <use xlink:href="#DejaVuSans-30"/>
       <use xlink:href="#DejaVuSans-2e" x="63.623047"/>
       <use xlink:href="#DejaVuSans-30" x="95.410156"/>
       <use xlink:href="#DejaVuSans-35" x="159.033203"/>
       <use xlink:href="#DejaVuSans-30" x="222.65625"/>
      </g>
     </g>
    </g>
    <g id="xtick_14">
     <g id="line2d_24">
      <g>
       <use xlink:href="#mf4e3be74d2" x="687.993287" y="320.4" style="stroke: #000000; stroke-width: 0.8"/>
      </g>
     </g>
     <g id="text_23">
      <!-- 0.075 -->
      <g transform="translate(672.569971 356.652303) rotate(-30) scale(0.14 -0.14)">
       <use xlink:href="#DejaVuSans-30"/>
       <use xlink:href="#DejaVuSans-2e" x="63.623047"/>
       <use xlink:href="#DejaVuSans-30" x="95.410156"/>
       <use xlink:href="#DejaVuSans-37" x="159.033203"/>
       <use xlink:href="#DejaVuSans-35" x="222.65625"/>
      </g>
     </g>
    </g>
   </g>
   <g id="matplotlib.axis_4">
    <g id="ytick_9">
     <g id="line2d_25">
      <g>
       <use xlink:href="#m580ba59f88" x="459.105882" y="298.206748" style="stroke: #000000; stroke-width: 0.8"/>
      </g>
     </g>
     <g id="text_24">
      <!-- −0.075 -->
      <g transform="translate(400.294945 303.525655) scale(0.14 -0.14)">
       <use xlink:href="#DejaVuSans-2212"/>
       <use xlink:href="#DejaVuSans-30" x="83.789062"/>
       <use xlink:href="#DejaVuSans-2e" x="147.412109"/>
       <use xlink:href="#DejaVuSans-30" x="179.199219"/>
       <use xlink:href="#DejaVuSans-37" x="242.822266"/>
       <use xlink:href="#DejaVuSans-35" x="306.445312"/>
      </g>
     </g>
    </g>
    <g id="ytick_10">
     <g id="line2d_26">
      <g>
       <use xlink:href="#m580ba59f88" x="459.105882" y="261.330268" style="stroke: #000000; stroke-width: 0.8"/>
      </g>
     </g>
     <g id="text_25">
      <!-- −0.050 -->
      <g transform="translate(400.294945 266.649174) scale(0.14 -0.14)">
       <use xlink:href="#DejaVuSans-2212"/>
       <use xlink:href="#DejaVuSans-30" x="83.789062"/>
       <use xlink:href="#DejaVuSans-2e" x="147.412109"/>
       <use xlink:href="#DejaVuSans-30" x="179.199219"/>
       <use xlink:href="#DejaVuSans-35" x="242.822266"/>
       <use xlink:href="#DejaVuSans-30" x="306.445312"/>
      </g>
     </g>
    </g>
    <g id="ytick_11">
     <g id="line2d_27">
      <g>
       <use xlink:href="#m580ba59f88" x="459.105882" y="224.453788" style="stroke: #000000; stroke-width: 0.8"/>
      </g>
     </g>
     <g id="text_26">
      <!-- −0.025 -->
      <g transform="translate(400.294945 229.772694) scale(0.14 -0.14)">
       <use xlink:href="#DejaVuSans-2212"/>
       <use xlink:href="#DejaVuSans-30" x="83.789062"/>
       <use xlink:href="#DejaVuSans-2e" x="147.412109"/>
       <use xlink:href="#DejaVuSans-30" x="179.199219"/>
       <use xlink:href="#DejaVuSans-32" x="242.822266"/>
       <use xlink:href="#DejaVuSans-35" x="306.445312"/>
      </g>
     </g>
    </g>
    <g id="ytick_12">
     <g id="line2d_28">
      <g>
       <use xlink:href="#m580ba59f88" x="459.105882" y="187.577308" style="stroke: #000000; stroke-width: 0.8"/>
      </g>
     </g>
     <g id="text_27">
      <!-- 0.000 -->
      <g transform="translate(412.026507 192.896214) scale(0.14 -0.14)">
       <use xlink:href="#DejaVuSans-30"/>
       <use xlink:href="#DejaVuSans-2e" x="63.623047"/>
       <use xlink:href="#DejaVuSans-30" x="95.410156"/>
       <use xlink:href="#DejaVuSans-30" x="159.033203"/>
       <use xlink:href="#DejaVuSans-30" x="222.65625"/>
      </g>
     </g>
    </g>
    <g id="ytick_13">
     <g id="line2d_29">
      <g>
       <use xlink:href="#m580ba59f88" x="459.105882" y="150.700827" style="stroke: #000000; stroke-width: 0.8"/>
      </g>
     </g>
     <g id="text_28">
      <!-- 0.025 -->
      <g transform="translate(412.026507 156.019734) scale(0.14 -0.14)">
       <use xlink:href="#DejaVuSans-30"/>
       <use xlink:href="#DejaVuSans-2e" x="63.623047"/>
       <use xlink:href="#DejaVuSans-30" x="95.410156"/>
       <use xlink:href="#DejaVuSans-32" x="159.033203"/>
       <use xlink:href="#DejaVuSans-35" x="222.65625"/>
      </g>
     </g>
    </g>
    <g id="ytick_14">
     <g id="line2d_30">
      <g>
       <use xlink:href="#m580ba59f88" x="459.105882" y="113.824347" style="stroke: #000000; stroke-width: 0.8"/>
      </g>
     </g>
     <g id="text_29">
      <!-- 0.050 -->
      <g transform="translate(412.026507 119.143253) scale(0.14 -0.14)">
       <use xlink:href="#DejaVuSans-30"/>
       <use xlink:href="#DejaVuSans-2e" x="63.623047"/>
       <use xlink:href="#DejaVuSans-30" x="95.410156"/>
       <use xlink:href="#DejaVuSans-35" x="159.033203"/>
       <use xlink:href="#DejaVuSans-30" x="222.65625"/>
      </g>
     </g>
    </g>
    <g id="ytick_15">
     <g id="line2d_31">
      <g>
       <use xlink:href="#m580ba59f88" x="459.105882" y="76.947867" style="stroke: #000000; stroke-width: 0.8"/>
      </g>
     </g>
     <g id="text_30">
      <!-- 0.075 -->
      <g transform="translate(412.026507 82.266773) scale(0.14 -0.14)">
       <use xlink:href="#DejaVuSans-30"/>
       <use xlink:href="#DejaVuSans-2e" x="63.623047"/>
       <use xlink:href="#DejaVuSans-30" x="95.410156"/>
       <use xlink:href="#DejaVuSans-37" x="159.033203"/>
       <use xlink:href="#DejaVuSans-35" x="222.65625"/>
      </g>
     </g>
    </g>
   </g>
   <g id="line2d_32">
    <path d="M 522.380769 307.8 
L 524.457692 302.953846 
L 524.457692 298.8 
L 523.073077 293.261538 
L 520.996154 289.8 
L 515.803846 285.646154 
L 511.996154 283.569231 
L 508.534615 283.915385 
L 509.919231 281.492308 
L 507.15 277.684615 
L 511.303846 278.030769 
L 513.380769 279.415385 
L 515.457692 274.569231 
L 510.957692 273.184615 
L 509.226923 271.107692 
L 508.188462 268.684615 
L 505.765385 267.646154 
L 503.342308 266.261538 
L 499.534615 264.876923 
L 495.726923 265.915385 
L 493.303846 264.876923 
L 489.15 258.646154 
L 491.919231 256.569231 
L 496.073077 251.723077 
L 498.842308 245.492308 
L 502.65 242.723077 
L 505.765385 244.107692 
L 509.919231 240.646154 
L 511.303846 237.184615 
L 516.15 239.261538 
L 520.303846 237.876923 
L 524.803846 234.761538 
L 527.919231 230.261538 
L 524.457692 221.261538 
L 522.380769 213.646154 
L 523.765385 209.146154 
L 534.842308 206.723077 
L 535.880769 203.607692 
L 537.611538 199.8 
L 536.573077 190.453846 
L 537.611538 188.030769 
L 538.996154 185.261538 
L 534.842308 179.030769 
L 531.726923 168.992308 
L 528.611538 167.261538 
L 527.573077 163.453846 
L 522.380769 162.415385 
L 522.034615 159.992308 
L 524.111538 149.607692 
L 525.15 147.184615 
L 523.765385 139.569231 
L 519.611538 134.723077 
L 517.534615 132.646154 
L 514.073077 130.569231 
L 506.803846 126.415385 
L 503.688462 125.030769 
L 500.919231 122.261538 
L 504.380769 123.646154 
L 510.957692 122.607692 
L 510.611538 120.184615 
L 506.803846 111.530769 
L 511.303846 116.723077 
L 515.457692 122.953846 
L 518.226923 127.8 
L 519.611538 128.838462 
L 525.842308 134.723077 
L 528.957692 136.107692 
L 533.457692 137.492308 
L 545.573077 136.453846 
L 556.303846 134.030769 
L 558.726923 126.415385 
L 562.534615 123.646154 
L 564.611538 120.184615 
L 564.611538 116.030769 
L 564.265385 113.953846 
L 566.688462 112.569231 
L 572.573077 109.453846 
L 572.919231 98.030769 
L 571.880769 92.838462 
L 570.842308 90.415385 
L 569.457692 87.992308 
L 561.15 78.646154 
L 557.688462 75.184615 
L 551.457692 71.030769 
L 543.842308 64.8 
L 539.688462 62.030769 
L 537.265385 60.992308 
L 537.611538 58.569231 
L 542.111538 61.684615 
L 545.226923 62.030769 
L 550.419231 61.684615 
L 552.842308 62.723077 
L 558.380769 64.107692 
L 561.842308 65.492308 
L 564.957692 64.107692 
L 570.842308 66.876923 
L 573.611538 60.992308 
L 579.15 58.569231 
L 587.803846 56.838462 
L 595.765385 55.8 
L 599.226923 57.184615 
L 601.996154 58.569231 
L 606.842308 61.338462 
L 608.226923 62.376923 
L 610.996154 67.223077 
L 615.15 72.415385 
L 617.573077 73.453846 
L 622.765385 74.492308 
L 626.573077 74.838462 
L 631.765385 73.8 
L 633.15 76.223077 
L 639.380769 80.723077 
L 648.380769 86.261538 
L 656.688462 90.415385 
L 657.726923 92.838462 
L 659.457692 101.492308 
L 664.996154 104.261538 
L 669.15 109.8 
L 674.342308 113.953846 
L 676.765385 118.8 
L 680.919231 121.569231 
L 682.996154 125.030769 
L 685.765385 128.838462 
L 689.919231 138.184615 
L 691.65 146.838462 
L 688.534615 151.338462 
L 684.380769 156.530769 
L 681.611538 160.338462 
L 682.996154 163.107692 
L 680.226923 167.953846 
L 672.611538 166.569231 
L 667.765385 170.030769 
L 666.380769 172.8 
L 669.15 177.646154 
L 670.188462 185.607692 
L 668.457692 190.8 
L 666.034615 194.607692 
L 663.611538 195.646154 
L 661.188462 197.030769 
L 658.073077 201.184615 
L 655.996154 203.261538 
L 653.919231 206.723077 
L 657.726923 209.492308 
L 662.226923 212.261538 
L 664.65 213.992308 
L 663.611538 221.953846 
L 660.15 224.030769 
L 660.15 235.107692 
L 661.188462 244.453846 
L 662.226923 246.876923 
L 663.611538 254.492308 
L 662.226923 261.415385 
L 659.111538 267.646154 
L 656.688462 269.030769 
L 651.496154 267.992308 
L 648.380769 271.107692 
L 649.765385 273.876923 
L 648.380769 277.338462 
L 646.303846 280.8 
L 646.303846 283.569231 
L 644.919231 285.646154 
L 641.457692 287.030769 
L 637.65 285.992308 
L 631.073077 286.338462 
L 628.996154 292.569231 
L 620.688462 296.723077 
L 614.111538 302.261538 
L 610.996154 303.646154 
L 604.073077 300.876923 
L 598.880769 299.838462 
L 596.457692 298.8 
L 594.380769 295.684615 
L 592.996154 287.030769 
L 591.957692 284.607692 
L 586.765385 284.953846 
L 582.611538 286.338462 
L 580.534615 291.184615 
L 575.688462 293.261538 
L 574.303846 297.415385 
L 571.534615 297.415385 
L 565.303846 299.492308 
L 562.880769 298.107692 
L 559.765385 296.723077 
L 553.880769 300.876923 
L 548.688462 305.030769 
L 547.65 307.8 
L 545.919231 302.261538 
L 541.419231 301.223077 
L 537.611538 302.261538 
L 533.803846 303.992308 
L 527.919231 305.030769 
L 524.803846 306.761538 
L 524.803846 306.761538 
" clip-path="url(#pc4a61a4b6f)" style="fill: none; stroke: #1f77b4; stroke-width: 1.5; stroke-linecap: square"/>
   </g>
   <g id="line2d_33">
    <g clip-path="url(#pc4a61a4b6f)">
     <use xlink:href="#mdaa681e915" x="522.380769" y="307.8" style="fill: #ff0000; stroke: #ff0000"/>
    </g>
   </g>
   <g id="patch_8">
    <path d="M 459.105882 320.4 
L 459.105882 43.2 
" style="fill: none; stroke: #000000; stroke-width: 0.8; stroke-linejoin: miter; stroke-linecap: square"/>
   </g>
   <g id="patch_9">
    <path d="M 721.694118 320.4 
L 721.694118 43.2 
" style="fill: none; stroke: #000000; stroke-width: 0.8; stroke-linejoin: miter; stroke-linecap: square"/>
   </g>
   <g id="patch_10">
    <path d="M 459.105882 320.4 
L 721.694118 320.4 
" style="fill: none; stroke: #000000; stroke-width: 0.8; stroke-linejoin: miter; stroke-linecap: square"/>
   </g>
   <g id="patch_11">
    <path d="M 459.105882 43.2 
L 721.694118 43.2 
" style="fill: none; stroke: #000000; stroke-width: 0.8; stroke-linejoin: miter; stroke-linecap: square"/>
   </g>
   <g id="text_31">
    <!-- Unaligned curve -->
    <g transform="translate(541.365 37.2) scale(0.12 -0.12)">
     <defs>
      <path id="DejaVuSans-55" d="M 556 4666 
L 1191 4666 
L 1191 1831 
Q 1191 1081 1462 751 
Q 1734 422 2344 422 
Q 2950 422 3222 751 
Q 3494 1081 3494 1831 
L 3494 4666 
L 4128 4666 
L 4128 1753 
Q 4128 841 3676 375 
Q 3225 -91 2344 -91 
Q 1459 -91 1007 375 
Q 556 841 556 1753 
L 556 4666 
z
" transform="scale(0.015625)"/>
      <path id="DejaVuSans-61" d="M 2194 1759 
Q 1497 1759 1228 1600 
Q 959 1441 959 1056 
Q 959 750 1161 570 
Q 1363 391 1709 391 
Q 2188 391 2477 730 
Q 2766 1069 2766 1631 
L 2766 1759 
L 2194 1759 
z
M 3341 1997 
L 3341 0 
L 2766 0 
L 2766 531 
Q 2569 213 2275 61 
Q 1981 -91 1556 -91 
Q 1019 -91 701 211 
Q 384 513 384 1019 
Q 384 1609 779 1909 
Q 1175 2209 1959 2209 
L 2766 2209 
L 2766 2266 
Q 2766 2663 2505 2880 
Q 2244 3097 1772 3097 
Q 1472 3097 1187 3025 
Q 903 2953 641 2809 
L 641 3341 
Q 956 3463 1253 3523 
Q 1550 3584 1831 3584 
Q 2591 3584 2966 3190 
Q 3341 2797 3341 1997 
z
" transform="scale(0.015625)"/>
      <path id="DejaVuSans-6c" d="M 603 4863 
L 1178 4863 
L 1178 0 
L 603 0 
L 603 4863 
z
" transform="scale(0.015625)"/>
      <path id="DejaVuSans-69" d="M 603 3500 
L 1178 3500 
L 1178 0 
L 603 0 
L 603 3500 
z
M 603 4863 
L 1178 4863 
L 1178 4134 
L 603 4134 
L 603 4863 
z
" transform="scale(0.015625)"/>
      <path id="DejaVuSans-67" d="M 2906 1791 
Q 2906 2416 2648 2759 
Q 2391 3103 1925 3103 
Q 1463 3103 1205 2759 
Q 947 2416 947 1791 
Q 947 1169 1205 825 
Q 1463 481 1925 481 
Q 2391 481 2648 825 
Q 2906 1169 2906 1791 
z
M 3481 434 
Q 3481 -459 3084 -895 
Q 2688 -1331 1869 -1331 
Q 1566 -1331 1297 -1286 
Q 1028 -1241 775 -1147 
L 775 -588 
Q 1028 -725 1275 -790 
Q 1522 -856 1778 -856 
Q 2344 -856 2625 -561 
Q 2906 -266 2906 331 
L 2906 616 
Q 2728 306 2450 153 
Q 2172 0 1784 0 
Q 1141 0 747 490 
Q 353 981 353 1791 
Q 353 2603 747 3093 
Q 1141 3584 1784 3584 
Q 2172 3584 2450 3431 
Q 2728 3278 2906 2969 
L 2906 3500 
L 3481 3500 
L 3481 434 
z
" transform="scale(0.015625)"/>
      <path id="DejaVuSans-64" d="M 2906 2969 
L 2906 4863 
L 3481 4863 
L 3481 0 
L 2906 0 
L 2906 525 
Q 2725 213 2448 61 
Q 2172 -91 1784 -91 
Q 1150 -91 751 415 
Q 353 922 353 1747 
Q 353 2572 751 3078 
Q 1150 3584 1784 3584 
Q 2172 3584 2448 3432 
Q 2725 3281 2906 2969 
z
M 947 1747 
Q 947 1113 1208 752 
Q 1469 391 1925 391 
Q 2381 391 2643 752 
Q 2906 1113 2906 1747 
Q 2906 2381 2643 2742 
Q 2381 3103 1925 3103 
Q 1469 3103 1208 2742 
Q 947 2381 947 1747 
z
" transform="scale(0.015625)"/>
     </defs>
     <use xlink:href="#DejaVuSans-55"/>
     <use xlink:href="#DejaVuSans-6e" x="73.193359"/>
     <use xlink:href="#DejaVuSans-61" x="136.572266"/>
     <use xlink:href="#DejaVuSans-6c" x="197.851562"/>
     <use xlink:href="#DejaVuSans-69" x="225.634766"/>
     <use xlink:href="#DejaVuSans-67" x="253.417969"/>
     <use xlink:href="#DejaVuSans-6e" x="316.894531"/>
     <use xlink:href="#DejaVuSans-65" x="380.273438"/>
     <use xlink:href="#DejaVuSans-64" x="441.796875"/>
     <use xlink:href="#DejaVuSans-20" x="505.273438"/>
     <use xlink:href="#DejaVuSans-63" x="537.060547"/>
     <use xlink:href="#DejaVuSans-75" x="592.041016"/>
     <use xlink:href="#DejaVuSans-72" x="655.419922"/>
     <use xlink:href="#DejaVuSans-76" x="696.533203"/>
     <use xlink:href="#DejaVuSans-65" x="755.712891"/>
    </g>
   </g>
  </g>
  <g id="axes_3">
   <g id="patch_12">
    <path d="M 774.211765 320.4 
L 1036.8 320.4 
L 1036.8 43.2 
L 774.211765 43.2 
z
" style="fill: #ffffff"/>
   </g>
   <g id="matplotlib.axis_5">
    <g id="xtick_15">
     <g id="line2d_34">
      <g>
       <use xlink:href="#mf4e3be74d2" x="793.461438" y="320.4" style="stroke: #000000; stroke-width: 0.8"/>
      </g>
     </g>
     <g id="text_32">
      <!-- −0.075 -->
      <g transform="translate(772.958206 362.518085) rotate(-30) scale(0.14 -0.14)">
       <use xlink:href="#DejaVuSans-2212"/>
       <use xlink:href="#DejaVuSans-30" x="83.789062"/>
       <use xlink:href="#DejaVuSans-2e" x="147.412109"/>
       <use xlink:href="#DejaVuSans-30" x="179.199219"/>
       <use xlink:href="#DejaVuSans-37" x="242.822266"/>
       <use xlink:href="#DejaVuSans-35" x="306.445312"/>
      </g>
     </g>
    </g>
    <g id="xtick_16">
     <g id="line2d_35">
      <g>
       <use xlink:href="#mf4e3be74d2" x="829.924117" y="320.4" style="stroke: #000000; stroke-width: 0.8"/>
      </g>
     </g>
     <g id="text_33">
      <!-- −0.050 -->
      <g transform="translate(809.420886 362.518085) rotate(-30) scale(0.14 -0.14)">
       <use xlink:href="#DejaVuSans-2212"/>
       <use xlink:href="#DejaVuSans-30" x="83.789062"/>
       <use xlink:href="#DejaVuSans-2e" x="147.412109"/>
       <use xlink:href="#DejaVuSans-30" x="179.199219"/>
       <use xlink:href="#DejaVuSans-35" x="242.822266"/>
       <use xlink:href="#DejaVuSans-30" x="306.445312"/>
      </g>
     </g>
    </g>
    <g id="xtick_17">
     <g id="line2d_36">
      <g>
       <use xlink:href="#mf4e3be74d2" x="866.386797" y="320.4" style="stroke: #000000; stroke-width: 0.8"/>
      </g>
     </g>
     <g id="text_34">
      <!-- −0.025 -->
      <g transform="translate(845.883565 362.518085) rotate(-30) scale(0.14 -0.14)">
       <use xlink:href="#DejaVuSans-2212"/>
       <use xlink:href="#DejaVuSans-30" x="83.789062"/>
       <use xlink:href="#DejaVuSans-2e" x="147.412109"/>
       <use xlink:href="#DejaVuSans-30" x="179.199219"/>
       <use xlink:href="#DejaVuSans-32" x="242.822266"/>
       <use xlink:href="#DejaVuSans-35" x="306.445312"/>
      </g>
     </g>
    </g>
    <g id="xtick_18">
     <g id="line2d_37">
      <g>
       <use xlink:href="#mf4e3be74d2" x="902.849476" y="320.4" style="stroke: #000000; stroke-width: 0.8"/>
      </g>
     </g>
     <g id="text_35">
      <!-- 0.000 -->
      <g transform="translate(887.42616 356.652303) rotate(-30) scale(0.14 -0.14)">
       <use xlink:href="#DejaVuSans-30"/>
       <use xlink:href="#DejaVuSans-2e" x="63.623047"/>
       <use xlink:href="#DejaVuSans-30" x="95.410156"/>
       <use xlink:href="#DejaVuSans-30" x="159.033203"/>
       <use xlink:href="#DejaVuSans-30" x="222.65625"/>
      </g>
     </g>
    </g>
    <g id="xtick_19">
     <g id="line2d_38">
      <g>
       <use xlink:href="#mf4e3be74d2" x="939.312156" y="320.4" style="stroke: #000000; stroke-width: 0.8"/>
      </g>
     </g>
     <g id="text_36">
      <!-- 0.025 -->
      <g transform="translate(923.88884 356.652303) rotate(-30) scale(0.14 -0.14)">
       <use xlink:href="#DejaVuSans-30"/>
       <use xlink:href="#DejaVuSans-2e" x="63.623047"/>
       <use xlink:href="#DejaVuSans-30" x="95.410156"/>
       <use xlink:href="#DejaVuSans-32" x="159.033203"/>
       <use xlink:href="#DejaVuSans-35" x="222.65625"/>
      </g>
     </g>
    </g>
    <g id="xtick_20">
     <g id="line2d_39">
      <g>
       <use xlink:href="#mf4e3be74d2" x="975.774835" y="320.4" style="stroke: #000000; stroke-width: 0.8"/>
      </g>
     </g>
     <g id="text_37">
      <!-- 0.050 -->
      <g transform="translate(960.351519 356.652303) rotate(-30) scale(0.14 -0.14)">
       <use xlink:href="#DejaVuSans-30"/>
       <use xlink:href="#DejaVuSans-2e" x="63.623047"/>
       <use xlink:href="#DejaVuSans-30" x="95.410156"/>
       <use xlink:href="#DejaVuSans-35" x="159.033203"/>
       <use xlink:href="#DejaVuSans-30" x="222.65625"/>
      </g>
     </g>
    </g>
    <g id="xtick_21">
     <g id="line2d_40">
      <g>
       <use xlink:href="#mf4e3be74d2" x="1012.237514" y="320.4" style="stroke: #000000; stroke-width: 0.8"/>
      </g>
     </g>
     <g id="text_38">
      <!-- 0.075 -->
      <g transform="translate(996.814198 356.652303) rotate(-30) scale(0.14 -0.14)">
       <use xlink:href="#DejaVuSans-30"/>
       <use xlink:href="#DejaVuSans-2e" x="63.623047"/>
       <use xlink:href="#DejaVuSans-30" x="95.410156"/>
       <use xlink:href="#DejaVuSans-37" x="159.033203"/>
       <use xlink:href="#DejaVuSans-35" x="222.65625"/>
      </g>
     </g>
    </g>
   </g>
   <g id="matplotlib.axis_6">
    <g id="ytick_16">
     <g id="line2d_41">
      <g>
       <use xlink:href="#m580ba59f88" x="774.211765" y="288.996054" style="stroke: #000000; stroke-width: 0.8"/>
      </g>
     </g>
     <g id="text_39">
      <!-- −0.075 -->
      <g transform="translate(715.400827 294.31496) scale(0.14 -0.14)">
       <use xlink:href="#DejaVuSans-2212"/>
       <use xlink:href="#DejaVuSans-30" x="83.789062"/>
       <use xlink:href="#DejaVuSans-2e" x="147.412109"/>
       <use xlink:href="#DejaVuSans-30" x="179.199219"/>
       <use xlink:href="#DejaVuSans-37" x="242.822266"/>
       <use xlink:href="#DejaVuSans-35" x="306.445312"/>
      </g>
     </g>
    </g>
    <g id="ytick_17">
     <g id="line2d_42">
      <g>
       <use xlink:href="#m580ba59f88" x="774.211765" y="252.533374" style="stroke: #000000; stroke-width: 0.8"/>
      </g>
     </g>
     <g id="text_40">
      <!-- −0.050 -->
      <g transform="translate(715.400827 257.852281) scale(0.14 -0.14)">
       <use xlink:href="#DejaVuSans-2212"/>
       <use xlink:href="#DejaVuSans-30" x="83.789062"/>
       <use xlink:href="#DejaVuSans-2e" x="147.412109"/>
       <use xlink:href="#DejaVuSans-30" x="179.199219"/>
       <use xlink:href="#DejaVuSans-35" x="242.822266"/>
       <use xlink:href="#DejaVuSans-30" x="306.445312"/>
      </g>
     </g>
    </g>
    <g id="ytick_18">
     <g id="line2d_43">
      <g>
       <use xlink:href="#m580ba59f88" x="774.211765" y="216.070695" style="stroke: #000000; stroke-width: 0.8"/>
      </g>
     </g>
     <g id="text_41">
      <!-- −0.025 -->
      <g transform="translate(715.400827 221.389601) scale(0.14 -0.14)">
       <use xlink:href="#DejaVuSans-2212"/>
       <use xlink:href="#DejaVuSans-30" x="83.789062"/>
       <use xlink:href="#DejaVuSans-2e" x="147.412109"/>
       <use xlink:href="#DejaVuSans-30" x="179.199219"/>
       <use xlink:href="#DejaVuSans-32" x="242.822266"/>
       <use xlink:href="#DejaVuSans-35" x="306.445312"/>
      </g>
     </g>
    </g>
    <g id="ytick_19">
     <g id="line2d_44">
      <g>
       <use xlink:href="#m580ba59f88" x="774.211765" y="179.608016" style="stroke: #000000; stroke-width: 0.8"/>
      </g>
     </g>
     <g id="text_42">
      <!-- 0.000 -->
      <g transform="translate(727.13239 184.926922) scale(0.14 -0.14)">
       <use xlink:href="#DejaVuSans-30"/>
       <use xlink:href="#DejaVuSans-2e" x="63.623047"/>
       <use xlink:href="#DejaVuSans-30" x="95.410156"/>
       <use xlink:href="#DejaVuSans-30" x="159.033203"/>
       <use xlink:href="#DejaVuSans-30" x="222.65625"/>
      </g>
     </g>
    </g>
    <g id="ytick_20">
     <g id="line2d_45">
      <g>
       <use xlink:href="#m580ba59f88" x="774.211765" y="143.145336" style="stroke: #000000; stroke-width: 0.8"/>
      </g>
     </g>
     <g id="text_43">
      <!-- 0.025 -->
      <g transform="translate(727.13239 148.464242) scale(0.14 -0.14)">
       <use xlink:href="#DejaVuSans-30"/>
       <use xlink:href="#DejaVuSans-2e" x="63.623047"/>
       <use xlink:href="#DejaVuSans-30" x="95.410156"/>
       <use xlink:href="#DejaVuSans-32" x="159.033203"/>
       <use xlink:href="#DejaVuSans-35" x="222.65625"/>
      </g>
     </g>
    </g>
    <g id="ytick_21">
     <g id="line2d_46">
      <g>
       <use xlink:href="#m580ba59f88" x="774.211765" y="106.682657" style="stroke: #000000; stroke-width: 0.8"/>
      </g>
     </g>
     <g id="text_44">
      <!-- 0.050 -->
      <g transform="translate(727.13239 112.001563) scale(0.14 -0.14)">
       <use xlink:href="#DejaVuSans-30"/>
       <use xlink:href="#DejaVuSans-2e" x="63.623047"/>
       <use xlink:href="#DejaVuSans-30" x="95.410156"/>
       <use xlink:href="#DejaVuSans-35" x="159.033203"/>
       <use xlink:href="#DejaVuSans-30" x="222.65625"/>
      </g>
     </g>
    </g>
    <g id="ytick_22">
     <g id="line2d_47">
      <g>
       <use xlink:href="#m580ba59f88" x="774.211765" y="70.219977" style="stroke: #000000; stroke-width: 0.8"/>
      </g>
     </g>
     <g id="text_45">
      <!-- 0.075 -->
      <g transform="translate(727.13239 75.538884) scale(0.14 -0.14)">
       <use xlink:href="#DejaVuSans-30"/>
       <use xlink:href="#DejaVuSans-2e" x="63.623047"/>
       <use xlink:href="#DejaVuSans-30" x="95.410156"/>
       <use xlink:href="#DejaVuSans-37" x="159.033203"/>
       <use xlink:href="#DejaVuSans-35" x="222.65625"/>
      </g>
     </g>
    </g>
   </g>
   <g id="line2d_48">
    <path d="M 898.764281 292.485851 
L 902.293723 290.357574 
L 904.760104 290.264384 
L 903.617948 285.177743 
L 899.209669 286.674252 
L 896.619754 286.01214 
L 894.384192 284.671665 
L 891.840871 285.242743 
L 889.097076 285.536407 
L 885.243625 286.631968 
L 882.793494 289.669427 
L 880.250173 290.240505 
L 873.312669 287.652744 
L 874.329135 284.384466 
L 874.851463 278.094979 
L 873.462238 271.497733 
L 874.909998 267.073204 
L 878.208621 266.378592 
L 879.532846 261.198761 
L 878.637759 257.622724 
L 883.7244 256.480568 
L 886.251471 252.965221 
L 888.053585 247.862329 
L 887.944145 242.451679 
L 879.957674 237.243658 
L 873.882756 232.343396 
L 872.386247 227.935117 
L 879.860174 219.578043 
L 878.888148 216.479894 
L 878.070001 212.425969 
L 871.824953 205.537214 
L 871.253875 202.993893 
L 870.759737 199.972684 
L 863.822233 197.384924 
L 855.511753 191.144187 
L 852.012656 191.561385 
L 848.975197 189.111254 
L 844.212564 191.286126 
L 842.53183 189.544703 
L 838.182086 180.019437 
L 837.611008 177.476117 
L 832.090918 172.174906 
L 825.95531 170.696801 
L 823.087981 170.235163 
L 819.110995 170.575422 
L 810.87961 171.456414 
L 807.580988 172.151026 
L 803.757881 171.535509 
L 807.333918 170.640422 
L 812.003361 165.999169 
L 810.322627 164.257745 
L 802.259217 159.527612 
L 808.872713 161.082657 
L 815.810217 163.670417 
L 820.836169 165.950419 
L 822.547248 165.980764 
L 830.948762 167.088265 
L 834.247385 166.393652 
L 838.655664 164.897143 
L 847.763731 157.048301 
L 854.960244 148.891701 
L 852.491708 141.385273 
L 853.939468 136.960744 
L 853.599209 132.983759 
L 851.193518 129.654791 
L 849.713258 128.190781 
L 850.853259 125.677806 
L 853.765028 119.773017 
L 847.426791 110.417881 
L 843.587435 106.858094 
L 841.351874 105.517619 
L 838.838898 104.377618 
L 826.768157 101.698823 
L 821.989274 100.929426 
L 814.590131 101.208995 
L 804.878487 100.625977 
L 799.945725 100.812357 
L 797.402404 101.383435 
L 796.276498 99.241063 
L 801.687148 99.131623 
L 804.384348 97.604768 
L 808.345084 94.32024 
L 810.888405 93.749162 
L 816.128926 91.65123 
L 819.704962 90.756143 
L 821.399791 87.842219 
L 827.719623 86.653468 
L 826.530872 80.333636 
L 829.566176 75.18415 
L 835.499155 68.785223 
L 841.278253 63.342073 
L 844.85429 62.446986 
L 847.875499 61.952848 
L 853.363089 61.36552 
L 855.074168 61.395865 
L 860.10012 63.675867 
L 866.436202 65.431385 
L 868.979522 64.860307 
L 873.742155 62.685435 
L 876.994183 60.757632 
L 880.55397 56.918276 
L 883.066946 58.058277 
L 890.666563 58.056122 
L 901.086915 57.282415 
L 910.150542 55.8 
L 912.386104 57.140475 
L 918.785031 63.073453 
L 924.827448 62.085177 
L 931.364005 64.118109 
L 937.930906 64.439963 
L 942.679443 66.920439 
L 947.612205 66.73406 
L 951.281432 68.305354 
L 955.705961 69.753114 
L 964.447734 74.8376 
L 970.846661 80.770578 
L 970.9561 86.181228 
L 970.634247 92.74813 
L 970.620152 97.403478 
L 973.333602 98.820892 
L 973.92093 104.308482 
L 967.015925 107.60926 
L 965.136872 113.19004 
L 965.63101 116.211249 
L 970.656962 118.491251 
L 976.100112 124.270349 
L 977.720156 129.433931 
L 977.983475 133.888804 
L 976.643 136.124366 
L 975.502999 138.637342 
L 975.411965 143.770578 
L 974.950326 146.637908 
L 975.290585 150.614893 
L 979.945933 150.628988 
L 985.156109 150.242135 
L 988.100378 150.225885 
L 991.879045 157.207829 
L 990.30775 160.877056 
L 996.722927 169.754303 
L 1002.967974 176.643058 
L 1005.203536 177.983533 
L 1010.723626 183.284744 
L 1013.623456 189.63492 
L 1014.735267 196.432641 
L 1013.595266 198.945616 
L 1008.832633 201.120489 
L 1008.140176 205.421483 
L 1010.853626 206.838898 
L 1011.748713 210.414935 
L 1012.088971 214.39192 
L 1013.692766 216.611232 
L 1013.785955 219.077613 
L 1011.813713 222.192012 
L 1008.160736 223.564987 
L 1003.090344 227.651412 
L 1005.034397 233.847709 
L 1000.782153 241.988059 
L 998.718876 250.235694 
L 997.024047 253.149619 
L 989.871973 254.939792 
L 985.10934 257.114664 
L 982.56602 257.685742 
L 979.097267 256.391862 
L 972.975755 250.25841 
L 970.740193 248.917934 
L 966.779457 252.202463 
L 964.252387 255.71781 
L 965.394542 260.804451 
L 962.713592 265.275575 
L 964.009628 269.40644 
L 961.790316 271.010234 
L 957.99971 276.283255 
L 955.255915 276.576919 
L 951.957292 277.271531 
L 949.646945 284.008562 
L 947.891427 290.344644 
L 948.662979 293.165378 
L 944.068321 289.729126 
L 939.860516 291.503049 
L 937.410385 294.540508 
L 935.361202 298.132795 
L 931.246587 302.3731 
L 929.752233 305.564438 
L 928.411758 307.8 
L 927.269602 302.713359 
L 924.863911 299.384391 
L 920.546666 295.747664 
L 916.87744 294.17637 
L 910.310539 293.854516 
L 906.056139 294.395249 
L 903.482474 296.677406 
L 903.18881 293.933611 
L 903.18881 293.933611 
" clip-path="url(#p6947f14333)" style="fill: none; stroke: #1f77b4; stroke-width: 1.5; stroke-linecap: square"/>
   </g>
   <g id="line2d_49">
    <g clip-path="url(#p6947f14333)">
     <use xlink:href="#mdaa681e915" x="898.764281" y="292.485851" style="fill: #ff0000; stroke: #ff0000"/>
    </g>
   </g>
   <g id="patch_13">
    <path d="M 774.211765 320.4 
L 774.211765 43.2 
" style="fill: none; stroke: #000000; stroke-width: 0.8; stroke-linejoin: miter; stroke-linecap: square"/>
   </g>
   <g id="patch_14">
    <path d="M 1036.8 320.4 
L 1036.8 43.2 
" style="fill: none; stroke: #000000; stroke-width: 0.8; stroke-linejoin: miter; stroke-linecap: square"/>
   </g>
   <g id="patch_15">
    <path d="M 774.211765 320.4 
L 1036.8 320.4 
" style="fill: none; stroke: #000000; stroke-width: 0.8; stroke-linejoin: miter; stroke-linecap: square"/>
   </g>
   <g id="patch_16">
    <path d="M 774.211765 43.2 
L 1036.8 43.2 
" style="fill: none; stroke: #000000; stroke-width: 0.8; stroke-linejoin: miter; stroke-linecap: square"/>
   </g>
   <g id="text_46">
    <!-- Aligned curve -->
    <g transform="translate(864.237132 37.2) scale(0.12 -0.12)">
     <defs>
      <path id="DejaVuSans-41" d="M 2188 4044 
L 1331 1722 
L 3047 1722 
L 2188 4044 
z
M 1831 4666 
L 2547 4666 
L 4325 0 
L 3669 0 
L 3244 1197 
L 1141 1197 
L 716 0 
L 50 0 
L 1831 4666 
z
" transform="scale(0.015625)"/>
     </defs>
     <use xlink:href="#DejaVuSans-41"/>
     <use xlink:href="#DejaVuSans-6c" x="68.408203"/>
     <use xlink:href="#DejaVuSans-69" x="96.191406"/>
     <use xlink:href="#DejaVuSans-67" x="123.974609"/>
     <use xlink:href="#DejaVuSans-6e" x="187.451172"/>
     <use xlink:href="#DejaVuSans-65" x="250.830078"/>
     <use xlink:href="#DejaVuSans-64" x="312.353516"/>
     <use xlink:href="#DejaVuSans-20" x="375.830078"/>
     <use xlink:href="#DejaVuSans-63" x="407.617188"/>
     <use xlink:href="#DejaVuSans-75" x="462.597656"/>
     <use xlink:href="#DejaVuSans-72" x="525.976562"/>
     <use xlink:href="#DejaVuSans-76" x="567.089844"/>
     <use xlink:href="#DejaVuSans-65" x="626.269531"/>
    </g>
   </g>
  </g>
 </g>
 <defs>
  <clipPath id="pb0ab13c336">
   <rect x="144" y="43.2" width="262.588235" height="277.2"/>
  </clipPath>
  <clipPath id="pc4a61a4b6f">
   <rect x="459.105882" y="43.2" width="262.588235" height="277.2"/>
  </clipPath>
  <clipPath id="p6947f14333">
   <rect x="774.211765" y="43.2" width="262.588235" height="277.2"/>
  </clipPath>
 </defs>
</svg>
