<?xml version="1.0" encoding="utf-8" standalone="no"?>
<!DOCTYPE svg PUBLIC "-//W3C//DTD SVG 1.1//EN"
  "http://www.w3.org/Graphics/SVG/1.1/DTD/svg11.dtd">
<svg xmlns:xlink="http://www.w3.org/1999/xlink" width="1080pt" height="360pt" viewBox="0 0 1080 360" xmlns="http://www.w3.org/2000/svg" version="1.1">
 <metadata>
  <rdf:RDF xmlns:dc="http://purl.org/dc/elements/1.1/" xmlns:cc="http://creativecommons.org/ns#" xmlns:rdf="http://www.w3.org/1999/02/22-rdf-syntax-ns#">
   <cc:Work>
    <dc:type rdf:resource="http://purl.org/dc/dcmitype/StillImage"/>
    <dc:date>2024-03-29T11:18:49.876245</dc:date>
    <dc:format>image/svg+xml</dc:format>
    <dc:creator>
     <cc:Agent>
      <dc:title>Matplotlib v3.8.3, https://matplotlib.org/</dc:title>
     </cc:Agent>
    </dc:creator>
   </cc:Work>
  </rdf:RDF>
 </metadata>
 <defs>
  <style type="text/css">*{stroke-linejoin: round; stroke-linecap: butt}</style>
 </defs>
 <g id="figure_1">
  <g id="patch_1">
   <path d="M 0 360 
L 1080 360 
L 1080 0 
L 0 0 
z
" style="fill: #ffffff"/>
  </g>
  <g id="axes_1">
   <g id="patch_2">
    <path d="M 135 320.4 
L 381.176471 320.4 
L 381.176471 43.2 
L 135 43.2 
z
" style="fill: #ffffff"/>
   </g>
   <g id="matplotlib.axis_1">
    <g id="xtick_1">
     <g id="line2d_1">
      <defs>
       <path id="m67e68c8106" d="M 0 0 
L 0 3.5 
" style="stroke: #000000; stroke-width: 0.8"/>
      </defs>
      <g>
       <use xlink:href="#m67e68c8106" x="159.9564" y="320.4" style="stroke: #000000; stroke-width: 0.8"/>
      </g>
     </g>
     <g id="text_1">
      <!-- −0.075 -->
      <g transform="translate(141.452494 334.998438) scale(0.1 -0.1)">
       <defs>
        <path id="DejaVuSans-2212" d="M 678 2272 
L 4684 2272 
L 4684 1741 
L 678 1741 
L 678 2272 
z
" transform="scale(0.015625)"/>
        <path id="DejaVuSans-30" d="M 2034 4250 
Q 1547 4250 1301 3770 
Q 1056 3291 1056 2328 
Q 1056 1369 1301 889 
Q 1547 409 2034 409 
Q 2525 409 2770 889 
Q 3016 1369 3016 2328 
Q 3016 3291 2770 3770 
Q 2525 4250 2034 4250 
z
M 2034 4750 
Q 2819 4750 3233 4129 
Q 3647 3509 3647 2328 
Q 3647 1150 3233 529 
Q 2819 -91 2034 -91 
Q 1250 -91 836 529 
Q 422 1150 422 2328 
Q 422 3509 836 4129 
Q 1250 4750 2034 4750 
z
" transform="scale(0.015625)"/>
        <path id="DejaVuSans-2e" d="M 684 794 
L 1344 794 
L 1344 0 
L 684 0 
L 684 794 
z
" transform="scale(0.015625)"/>
        <path id="DejaVuSans-37" d="M 525 4666 
L 3525 4666 
L 3525 4397 
L 1831 0 
L 1172 0 
L 2766 4134 
L 525 4134 
L 525 4666 
z
" transform="scale(0.015625)"/>
        <path id="DejaVuSans-35" d="M 691 4666 
L 3169 4666 
L 3169 4134 
L 1269 4134 
L 1269 2991 
Q 1406 3038 1543 3061 
Q 1681 3084 1819 3084 
Q 2600 3084 3056 2656 
Q 3513 2228 3513 1497 
Q 3513 744 3044 326 
Q 2575 -91 1722 -91 
Q 1428 -91 1123 -41 
Q 819 9 494 109 
L 494 744 
Q 775 591 1075 516 
Q 1375 441 1709 441 
Q 2250 441 2565 725 
Q 2881 1009 2881 1497 
Q 2881 1984 2565 2268 
Q 2250 2553 1709 2553 
Q 1456 2553 1204 2497 
Q 953 2441 691 2322 
L 691 4666 
z
" transform="scale(0.015625)"/>
       </defs>
       <use xlink:href="#DejaVuSans-2212"/>
       <use xlink:href="#DejaVuSans-30" x="83.789062"/>
       <use xlink:href="#DejaVuSans-2e" x="147.412109"/>
       <use xlink:href="#DejaVuSans-30" x="179.199219"/>
       <use xlink:href="#DejaVuSans-37" x="242.822266"/>
       <use xlink:href="#DejaVuSans-35" x="306.445312"/>
      </g>
     </g>
    </g>
    <g id="xtick_2">
     <g id="line2d_2">
      <g>
       <use xlink:href="#m67e68c8106" x="193.657621" y="320.4" style="stroke: #000000; stroke-width: 0.8"/>
      </g>
     </g>
     <g id="text_2">
      <!-- −0.050 -->
      <g transform="translate(175.153715 334.998438) scale(0.1 -0.1)">
       <use xlink:href="#DejaVuSans-2212"/>
       <use xlink:href="#DejaVuSans-30" x="83.789062"/>
       <use xlink:href="#DejaVuSans-2e" x="147.412109"/>
       <use xlink:href="#DejaVuSans-30" x="179.199219"/>
       <use xlink:href="#DejaVuSans-35" x="242.822266"/>
       <use xlink:href="#DejaVuSans-30" x="306.445312"/>
      </g>
     </g>
    </g>
    <g id="xtick_3">
     <g id="line2d_3">
      <g>
       <use xlink:href="#m67e68c8106" x="227.358843" y="320.4" style="stroke: #000000; stroke-width: 0.8"/>
      </g>
     </g>
     <g id="text_3">
      <!-- −0.025 -->
      <g transform="translate(208.854937 334.998438) scale(0.1 -0.1)">
       <defs>
        <path id="DejaVuSans-32" d="M 1228 531 
L 3431 531 
L 3431 0 
L 469 0 
L 469 531 
Q 828 903 1448 1529 
Q 2069 2156 2228 2338 
Q 2531 2678 2651 2914 
Q 2772 3150 2772 3378 
Q 2772 3750 2511 3984 
Q 2250 4219 1831 4219 
Q 1534 4219 1204 4116 
Q 875 4013 500 3803 
L 500 4441 
Q 881 4594 1212 4672 
Q 1544 4750 1819 4750 
Q 2544 4750 2975 4387 
Q 3406 4025 3406 3419 
Q 3406 3131 3298 2873 
Q 3191 2616 2906 2266 
Q 2828 2175 2409 1742 
Q 1991 1309 1228 531 
z
" transform="scale(0.015625)"/>
       </defs>
       <use xlink:href="#DejaVuSans-2212"/>
       <use xlink:href="#DejaVuSans-30" x="83.789062"/>
       <use xlink:href="#DejaVuSans-2e" x="147.412109"/>
       <use xlink:href="#DejaVuSans-30" x="179.199219"/>
       <use xlink:href="#DejaVuSans-32" x="242.822266"/>
       <use xlink:href="#DejaVuSans-35" x="306.445312"/>
      </g>
     </g>
    </g>
    <g id="xtick_4">
     <g id="line2d_4">
      <g>
       <use xlink:href="#m67e68c8106" x="261.060064" y="320.4" style="stroke: #000000; stroke-width: 0.8"/>
      </g>
     </g>
     <g id="text_4">
      <!-- 0.000 -->
      <g transform="translate(246.746002 334.998438) scale(0.1 -0.1)">
       <use xlink:href="#DejaVuSans-30"/>
       <use xlink:href="#DejaVuSans-2e" x="63.623047"/>
       <use xlink:href="#DejaVuSans-30" x="95.410156"/>
       <use xlink:href="#DejaVuSans-30" x="159.033203"/>
       <use xlink:href="#DejaVuSans-30" x="222.65625"/>
      </g>
     </g>
    </g>
    <g id="xtick_5">
     <g id="line2d_5">
      <g>
       <use xlink:href="#m67e68c8106" x="294.761286" y="320.4" style="stroke: #000000; stroke-width: 0.8"/>
      </g>
     </g>
     <g id="text_5">
      <!-- 0.025 -->
      <g transform="translate(280.447223 334.998438) scale(0.1 -0.1)">
       <use xlink:href="#DejaVuSans-30"/>
       <use xlink:href="#DejaVuSans-2e" x="63.623047"/>
       <use xlink:href="#DejaVuSans-30" x="95.410156"/>
       <use xlink:href="#DejaVuSans-32" x="159.033203"/>
       <use xlink:href="#DejaVuSans-35" x="222.65625"/>
      </g>
     </g>
    </g>
    <g id="xtick_6">
     <g id="line2d_6">
      <g>
       <use xlink:href="#m67e68c8106" x="328.462508" y="320.4" style="stroke: #000000; stroke-width: 0.8"/>
      </g>
     </g>
     <g id="text_6">
      <!-- 0.050 -->
      <g transform="translate(314.148445 334.998438) scale(0.1 -0.1)">
       <use xlink:href="#DejaVuSans-30"/>
       <use xlink:href="#DejaVuSans-2e" x="63.623047"/>
       <use xlink:href="#DejaVuSans-30" x="95.410156"/>
       <use xlink:href="#DejaVuSans-35" x="159.033203"/>
       <use xlink:href="#DejaVuSans-30" x="222.65625"/>
      </g>
     </g>
    </g>
    <g id="xtick_7">
     <g id="line2d_7">
      <g>
       <use xlink:href="#m67e68c8106" x="362.163729" y="320.4" style="stroke: #000000; stroke-width: 0.8"/>
      </g>
     </g>
     <g id="text_7">
      <!-- 0.075 -->
      <g transform="translate(347.849667 334.998438) scale(0.1 -0.1)">
       <use xlink:href="#DejaVuSans-30"/>
       <use xlink:href="#DejaVuSans-2e" x="63.623047"/>
       <use xlink:href="#DejaVuSans-30" x="95.410156"/>
       <use xlink:href="#DejaVuSans-37" x="159.033203"/>
       <use xlink:href="#DejaVuSans-35" x="222.65625"/>
      </g>
     </g>
    </g>
   </g>
   <g id="matplotlib.axis_2">
    <g id="ytick_1">
     <g id="line2d_8">
      <defs>
       <path id="md3b12d9e26" d="M 0 0 
L -3.5 0 
" style="stroke: #000000; stroke-width: 0.8"/>
      </defs>
      <g>
       <use xlink:href="#md3b12d9e26" x="135" y="304.106283" style="stroke: #000000; stroke-width: 0.8"/>
      </g>
     </g>
     <g id="text_8">
      <!-- −0.100 -->
      <g transform="translate(90.992188 307.905502) scale(0.1 -0.1)">
       <defs>
        <path id="DejaVuSans-31" d="M 794 531 
L 1825 531 
L 1825 4091 
L 703 3866 
L 703 4441 
L 1819 4666 
L 2450 4666 
L 2450 531 
L 3481 531 
L 3481 0 
L 794 0 
L 794 531 
z
" transform="scale(0.015625)"/>
       </defs>
       <use xlink:href="#DejaVuSans-2212"/>
       <use xlink:href="#DejaVuSans-30" x="83.789062"/>
       <use xlink:href="#DejaVuSans-2e" x="147.412109"/>
       <use xlink:href="#DejaVuSans-31" x="179.199219"/>
       <use xlink:href="#DejaVuSans-30" x="242.822266"/>
       <use xlink:href="#DejaVuSans-30" x="306.445312"/>
      </g>
     </g>
    </g>
    <g id="ytick_2">
     <g id="line2d_9">
      <g>
       <use xlink:href="#md3b12d9e26" x="135" y="270.405062" style="stroke: #000000; stroke-width: 0.8"/>
      </g>
     </g>
     <g id="text_9">
      <!-- −0.075 -->
      <g transform="translate(90.992188 274.204281) scale(0.1 -0.1)">
       <use xlink:href="#DejaVuSans-2212"/>
       <use xlink:href="#DejaVuSans-30" x="83.789062"/>
       <use xlink:href="#DejaVuSans-2e" x="147.412109"/>
       <use xlink:href="#DejaVuSans-30" x="179.199219"/>
       <use xlink:href="#DejaVuSans-37" x="242.822266"/>
       <use xlink:href="#DejaVuSans-35" x="306.445312"/>
      </g>
     </g>
    </g>
    <g id="ytick_3">
     <g id="line2d_10">
      <g>
       <use xlink:href="#md3b12d9e26" x="135" y="236.70384" style="stroke: #000000; stroke-width: 0.8"/>
      </g>
     </g>
     <g id="text_10">
      <!-- −0.050 -->
      <g transform="translate(90.992188 240.503059) scale(0.1 -0.1)">
       <use xlink:href="#DejaVuSans-2212"/>
       <use xlink:href="#DejaVuSans-30" x="83.789062"/>
       <use xlink:href="#DejaVuSans-2e" x="147.412109"/>
       <use xlink:href="#DejaVuSans-30" x="179.199219"/>
       <use xlink:href="#DejaVuSans-35" x="242.822266"/>
       <use xlink:href="#DejaVuSans-30" x="306.445312"/>
      </g>
     </g>
    </g>
    <g id="ytick_4">
     <g id="line2d_11">
      <g>
       <use xlink:href="#md3b12d9e26" x="135" y="203.002619" style="stroke: #000000; stroke-width: 0.8"/>
      </g>
     </g>
     <g id="text_11">
      <!-- −0.025 -->
      <g transform="translate(90.992188 206.801837) scale(0.1 -0.1)">
       <use xlink:href="#DejaVuSans-2212"/>
       <use xlink:href="#DejaVuSans-30" x="83.789062"/>
       <use xlink:href="#DejaVuSans-2e" x="147.412109"/>
       <use xlink:href="#DejaVuSans-30" x="179.199219"/>
       <use xlink:href="#DejaVuSans-32" x="242.822266"/>
       <use xlink:href="#DejaVuSans-35" x="306.445312"/>
      </g>
     </g>
    </g>
    <g id="ytick_5">
     <g id="line2d_12">
      <g>
       <use xlink:href="#md3b12d9e26" x="135" y="169.301397" style="stroke: #000000; stroke-width: 0.8"/>
      </g>
     </g>
     <g id="text_12">
      <!-- 0.000 -->
      <g transform="translate(99.371875 173.100616) scale(0.1 -0.1)">
       <use xlink:href="#DejaVuSans-30"/>
       <use xlink:href="#DejaVuSans-2e" x="63.623047"/>
       <use xlink:href="#DejaVuSans-30" x="95.410156"/>
       <use xlink:href="#DejaVuSans-30" x="159.033203"/>
       <use xlink:href="#DejaVuSans-30" x="222.65625"/>
      </g>
     </g>
    </g>
    <g id="ytick_6">
     <g id="line2d_13">
      <g>
       <use xlink:href="#md3b12d9e26" x="135" y="135.600176" style="stroke: #000000; stroke-width: 0.8"/>
      </g>
     </g>
     <g id="text_13">
      <!-- 0.025 -->
      <g transform="translate(99.371875 139.399394) scale(0.1 -0.1)">
       <use xlink:href="#DejaVuSans-30"/>
       <use xlink:href="#DejaVuSans-2e" x="63.623047"/>
       <use xlink:href="#DejaVuSans-30" x="95.410156"/>
       <use xlink:href="#DejaVuSans-32" x="159.033203"/>
       <use xlink:href="#DejaVuSans-35" x="222.65625"/>
      </g>
     </g>
    </g>
    <g id="ytick_7">
     <g id="line2d_14">
      <g>
       <use xlink:href="#md3b12d9e26" x="135" y="101.898954" style="stroke: #000000; stroke-width: 0.8"/>
      </g>
     </g>
     <g id="text_14">
      <!-- 0.050 -->
      <g transform="translate(99.371875 105.698173) scale(0.1 -0.1)">
       <use xlink:href="#DejaVuSans-30"/>
       <use xlink:href="#DejaVuSans-2e" x="63.623047"/>
       <use xlink:href="#DejaVuSans-30" x="95.410156"/>
       <use xlink:href="#DejaVuSans-35" x="159.033203"/>
       <use xlink:href="#DejaVuSans-30" x="222.65625"/>
      </g>
     </g>
    </g>
    <g id="ytick_8">
     <g id="line2d_15">
      <g>
       <use xlink:href="#md3b12d9e26" x="135" y="68.197733" style="stroke: #000000; stroke-width: 0.8"/>
      </g>
     </g>
     <g id="text_15">
      <!-- 0.075 -->
      <g transform="translate(99.371875 71.996951) scale(0.1 -0.1)">
       <use xlink:href="#DejaVuSans-30"/>
       <use xlink:href="#DejaVuSans-2e" x="63.623047"/>
       <use xlink:href="#DejaVuSans-30" x="95.410156"/>
       <use xlink:href="#DejaVuSans-37" x="159.033203"/>
       <use xlink:href="#DejaVuSans-35" x="222.65625"/>
      </g>
     </g>
    </g>
   </g>
   <g id="line2d_16">
    <path d="M 249.812514 307.8 
L 246.830265 303.475749 
L 248.32139 300.642622 
L 242.655136 303.028384 
L 239.971085 306.308876 
L 238.629082 304.072189 
L 237.88352 300.642622 
L 239.821963 298.405935 
L 244.14626 297.063887 
L 247.128508 295.572763 
L 252.794762 292.888757 
L 261.145067 289.906509 
L 267.109519 286.92426 
L 270.688253 281.854447 
L 272.179378 276.784634 
L 275.161626 265.302959 
L 276.652751 254.715967 
L 272.179378 246.216586 
L 274.863383 241.892289 
L 272.179378 236.226036 
L 267.706005 230.41066 
L 260.548627 224.297041 
L 253.689446 228.770414 
L 247.724949 227.27929 
L 240.120206 230.261538 
L 235.795955 231.156222 
L 230.129655 228.472171 
L 228.638531 223.998798 
L 225.954526 218.332544 
L 217.604221 215.350296 
L 213.130848 216.24498 
L 209.999478 215.797615 
L 207.166351 214.455612 
L 202.8421 214.604734 
L 185.395928 217.139663 
L 180.922555 221.314793 
L 175.256301 219.227228 
L 172.274052 210.876923 
L 170.93205 202.079299 
L 168.247999 196.413 
L 169.590047 192.685189 
L 174.510739 189.255621 
L 177.940306 182.843805 
L 182.115482 180.159754 
L 185.09773 175.686381 
L 188.825541 170.467447 
L 193.149792 169.125444 
L 196.13204 160.775139 
L 198.816046 158.985817 
L 202.692978 156.599964 
L 202.692978 148.84619 
L 202.991221 141.688721 
L 197.175846 140.346764 
L 196.430284 133.338462 
L 199.263411 134.829586 
L 203.587662 131.847337 
L 204.929665 128.865089 
L 208.061035 122.304106 
L 209.552159 116.787019 
L 204.780543 114.252089 
L 201.350975 116.190533 
L 201.201854 119.023705 
L 201.649218 122.900592 
L 198.816046 121.409467 
L 196.13204 119.6201 
L 197.623165 115.44497 
L 205.824348 108.734911 
L 207.762792 105.305344 
L 209.10484 102.472171 
L 208.657475 98.147965 
L 205.824348 96.805917 
L 204.780543 96.060355 
L 208.508354 97.551479 
L 211.043283 94.867474 
L 209.552159 88.455658 
L 200.605413 78.166864 
L 194.790038 76.824816 
L 190.465786 77.868621 
L 187.632614 79.210669 
L 185.694171 78.76335 
L 193.149792 69.96568 
L 190.167543 65.641384 
L 191.658668 62.360983 
L 197.921408 59.97513 
L 200.903656 58.484005 
L 205.078786 55.8 
L 206.420789 61.615421 
L 210.446842 64.150259 
L 217.604221 62.659135 
L 220.884712 63.255621 
L 225.208964 66.23787 
L 230.129655 69.220118 
L 233.857466 70.711243 
L 236.392396 68.623632 
L 233.410147 63.106545 
L 236.392396 61.764497 
L 239.225523 63.255621 
L 240.865768 65.939627 
L 242.506014 70.860319 
L 248.619633 70.413 
L 249.066952 66.983432 
L 252.794762 66.834356 
L 258.162819 72.202367 
L 261.741508 70.413 
L 263.679951 68.772799 
L 267.706005 61.764497 
L 274.56514 60.273373 
L 277.845632 61.764497 
L 281.126123 68.921875 
L 283.511886 72.202367 
L 287.09062 68.474556 
L 288.581745 65.641384 
L 290.520188 63.255621 
L 293.055117 65.044989 
L 290.072869 69.369194 
L 291.563993 72.202367 
L 292.906041 75.035539 
L 291.862236 79.359745 
L 292.607798 83.684042 
L 293.949756 88.008248 
L 292.160479 98.147965 
L 297.826733 97.253236 
L 302.300106 91.586982 
L 303.343911 96.209431 
L 302.001863 99.042604 
L 299.019614 103.3669 
L 302.001863 107.691106 
L 304.536792 109.480473 
L 311.843247 107.989349 
L 322.13204 109.480473 
L 330.034981 107.989349 
L 335.253916 110.971598 
L 336.595964 114.252089 
L 338.087088 117.234338 
L 340.771094 127.373964 
L 343.753342 134.382267 
L 345.244467 141.092326 
L 346.735591 145.863942 
L 341.963975 149.740828 
L 339.279969 152.723077 
L 342.858704 157.19645 
L 344.200661 166.590514 
L 347.928472 173.89706 
L 345.244467 178.072189 
L 346.735591 184.93137 
L 344.051585 187.018935 
L 340.771094 191.044989 
L 337.788845 198.202367 
L 336.297721 201.035494 
L 334.359278 202.377497 
L 331.526105 203.719545 
L 328.693024 204.763305 
L 325.859851 203.421302 
L 322.877603 210.429604 
L 327.350975 223.10416 
L 325.859851 226.533728 
L 327.350975 229.366855 
L 331.824348 235.18223 
L 334.806597 239.804725 
L 330.333224 246.663905 
L 327.500051 248.15503 
L 330.631467 241.892289 
L 330.333224 237.120719 
L 325.561608 233.243787 
L 319.895354 238.462722 
L 321.386478 242.488776 
L 319.895354 247.558589 
L 321.386478 251.435521 
L 318.40423 249.198835 
L 319.895354 243.681657 
L 317.211349 238.015403 
L 314.2291 236.524279 
L 311.395928 237.269841 
L 305.580598 236.822476 
L 302.747425 236.971598 
L 298.423128 238.3136 
L 296.186442 243.532535 
L 292.160479 255.01421 
L 288.432669 260.233145 
L 287.09062 263.066272 
L 288.581745 265.899399 
L 287.09062 278.275758 
L 283.511886 283.047328 
L 279.933242 288.117142 
L 275.907188 295.871006 
L 272.179378 297.958571 
L 267.258686 303.326627 
L 263.829073 301.835503 
L 256.820816 304.817751 
L 256.820816 304.817751 
" clip-path="url(#p2c3b7f03d2)" style="fill: none; stroke: #1f77b4; stroke-width: 1.5; stroke-linecap: square"/>
   </g>
   <g id="patch_3">
    <path d="M 135 320.4 
L 135 43.2 
" style="fill: none; stroke: #000000; stroke-width: 0.8; stroke-linejoin: miter; stroke-linecap: square"/>
   </g>
   <g id="patch_4">
    <path d="M 381.176471 320.4 
L 381.176471 43.2 
" style="fill: none; stroke: #000000; stroke-width: 0.8; stroke-linejoin: miter; stroke-linecap: square"/>
   </g>
   <g id="patch_5">
    <path d="M 135 320.4 
L 381.176471 320.4 
" style="fill: none; stroke: #000000; stroke-width: 0.8; stroke-linejoin: miter; stroke-linecap: square"/>
   </g>
   <g id="patch_6">
    <path d="M 135 43.2 
L 381.176471 43.2 
" style="fill: none; stroke: #000000; stroke-width: 0.8; stroke-linejoin: miter; stroke-linecap: square"/>
   </g>
   <g id="text_16">
    <!-- Reference curve -->
    <g transform="translate(209.158235 37.2) scale(0.12 -0.12)">
     <defs>
      <path id="DejaVuSans-52" d="M 2841 2188 
Q 3044 2119 3236 1894 
Q 3428 1669 3622 1275 
L 4263 0 
L 3584 0 
L 2988 1197 
Q 2756 1666 2539 1819 
Q 2322 1972 1947 1972 
L 1259 1972 
L 1259 0 
L 628 0 
L 628 4666 
L 2053 4666 
Q 2853 4666 3247 4331 
Q 3641 3997 3641 3322 
Q 3641 2881 3436 2590 
Q 3231 2300 2841 2188 
z
M 1259 4147 
L 1259 2491 
L 2053 2491 
Q 2509 2491 2742 2702 
Q 2975 2913 2975 3322 
Q 2975 3731 2742 3939 
Q 2509 4147 2053 4147 
L 1259 4147 
z
" transform="scale(0.015625)"/>
      <path id="DejaVuSans-65" d="M 3597 1894 
L 3597 1613 
L 953 1613 
Q 991 1019 1311 708 
Q 1631 397 2203 397 
Q 2534 397 2845 478 
Q 3156 559 3463 722 
L 3463 178 
Q 3153 47 2828 -22 
Q 2503 -91 2169 -91 
Q 1331 -91 842 396 
Q 353 884 353 1716 
Q 353 2575 817 3079 
Q 1281 3584 2069 3584 
Q 2775 3584 3186 3129 
Q 3597 2675 3597 1894 
z
M 3022 2063 
Q 3016 2534 2758 2815 
Q 2500 3097 2075 3097 
Q 1594 3097 1305 2825 
Q 1016 2553 972 2059 
L 3022 2063 
z
" transform="scale(0.015625)"/>
      <path id="DejaVuSans-66" d="M 2375 4863 
L 2375 4384 
L 1825 4384 
Q 1516 4384 1395 4259 
Q 1275 4134 1275 3809 
L 1275 3500 
L 2222 3500 
L 2222 3053 
L 1275 3053 
L 1275 0 
L 697 0 
L 697 3053 
L 147 3053 
L 147 3500 
L 697 3500 
L 697 3744 
Q 697 4328 969 4595 
Q 1241 4863 1831 4863 
L 2375 4863 
z
" transform="scale(0.015625)"/>
      <path id="DejaVuSans-72" d="M 2631 2963 
Q 2534 3019 2420 3045 
Q 2306 3072 2169 3072 
Q 1681 3072 1420 2755 
Q 1159 2438 1159 1844 
L 1159 0 
L 581 0 
L 581 3500 
L 1159 3500 
L 1159 2956 
Q 1341 3275 1631 3429 
Q 1922 3584 2338 3584 
Q 2397 3584 2469 3576 
Q 2541 3569 2628 3553 
L 2631 2963 
z
" transform="scale(0.015625)"/>
      <path id="DejaVuSans-6e" d="M 3513 2113 
L 3513 0 
L 2938 0 
L 2938 2094 
Q 2938 2591 2744 2837 
Q 2550 3084 2163 3084 
Q 1697 3084 1428 2787 
Q 1159 2491 1159 1978 
L 1159 0 
L 581 0 
L 581 3500 
L 1159 3500 
L 1159 2956 
Q 1366 3272 1645 3428 
Q 1925 3584 2291 3584 
Q 2894 3584 3203 3211 
Q 3513 2838 3513 2113 
z
" transform="scale(0.015625)"/>
      <path id="DejaVuSans-63" d="M 3122 3366 
L 3122 2828 
Q 2878 2963 2633 3030 
Q 2388 3097 2138 3097 
Q 1578 3097 1268 2742 
Q 959 2388 959 1747 
Q 959 1106 1268 751 
Q 1578 397 2138 397 
Q 2388 397 2633 464 
Q 2878 531 3122 666 
L 3122 134 
Q 2881 22 2623 -34 
Q 2366 -91 2075 -91 
Q 1284 -91 818 406 
Q 353 903 353 1747 
Q 353 2603 823 3093 
Q 1294 3584 2113 3584 
Q 2378 3584 2631 3529 
Q 2884 3475 3122 3366 
z
" transform="scale(0.015625)"/>
      <path id="DejaVuSans-20" transform="scale(0.015625)"/>
      <path id="DejaVuSans-75" d="M 544 1381 
L 544 3500 
L 1119 3500 
L 1119 1403 
Q 1119 906 1312 657 
Q 1506 409 1894 409 
Q 2359 409 2629 706 
Q 2900 1003 2900 1516 
L 2900 3500 
L 3475 3500 
L 3475 0 
L 2900 0 
L 2900 538 
Q 2691 219 2414 64 
Q 2138 -91 1772 -91 
Q 1169 -91 856 284 
Q 544 659 544 1381 
z
M 1991 3584 
L 1991 3584 
z
" transform="scale(0.015625)"/>
      <path id="DejaVuSans-76" d="M 191 3500 
L 800 3500 
L 1894 563 
L 2988 3500 
L 3597 3500 
L 2284 0 
L 1503 0 
L 191 3500 
z
" transform="scale(0.015625)"/>
     </defs>
     <use xlink:href="#DejaVuSans-52"/>
     <use xlink:href="#DejaVuSans-65" x="64.982422"/>
     <use xlink:href="#DejaVuSans-66" x="126.505859"/>
     <use xlink:href="#DejaVuSans-65" x="161.710938"/>
     <use xlink:href="#DejaVuSans-72" x="223.234375"/>
     <use xlink:href="#DejaVuSans-65" x="262.097656"/>
     <use xlink:href="#DejaVuSans-6e" x="323.621094"/>
     <use xlink:href="#DejaVuSans-63" x="387"/>
     <use xlink:href="#DejaVuSans-65" x="441.980469"/>
     <use xlink:href="#DejaVuSans-20" x="503.503906"/>
     <use xlink:href="#DejaVuSans-63" x="535.291016"/>
     <use xlink:href="#DejaVuSans-75" x="590.271484"/>
     <use xlink:href="#DejaVuSans-72" x="653.650391"/>
     <use xlink:href="#DejaVuSans-76" x="694.763672"/>
     <use xlink:href="#DejaVuSans-65" x="753.943359"/>
    </g>
   </g>
  </g>
  <g id="axes_2">
   <g id="patch_7">
    <path d="M 430.411765 320.4 
L 676.588235 320.4 
L 676.588235 43.2 
L 430.411765 43.2 
z
" style="fill: #ffffff"/>
   </g>
   <g id="matplotlib.axis_3">
    <g id="xtick_8">
     <g id="line2d_17">
      <g>
       <use xlink:href="#m67e68c8106" x="435.241447" y="320.4" style="stroke: #000000; stroke-width: 0.8"/>
      </g>
     </g>
     <g id="text_17">
      <!-- −0.10 -->
      <g transform="translate(419.91879 334.998438) scale(0.1 -0.1)">
       <use xlink:href="#DejaVuSans-2212"/>
       <use xlink:href="#DejaVuSans-30" x="83.789062"/>
       <use xlink:href="#DejaVuSans-2e" x="147.412109"/>
       <use xlink:href="#DejaVuSans-31" x="179.199219"/>
       <use xlink:href="#DejaVuSans-30" x="242.822266"/>
      </g>
     </g>
    </g>
    <g id="xtick_9">
     <g id="line2d_18">
      <g>
       <use xlink:href="#m67e68c8106" x="495.405537" y="320.4" style="stroke: #000000; stroke-width: 0.8"/>
      </g>
     </g>
     <g id="text_18">
      <!-- −0.05 -->
      <g transform="translate(480.082881 334.998438) scale(0.1 -0.1)">
       <use xlink:href="#DejaVuSans-2212"/>
       <use xlink:href="#DejaVuSans-30" x="83.789062"/>
       <use xlink:href="#DejaVuSans-2e" x="147.412109"/>
       <use xlink:href="#DejaVuSans-30" x="179.199219"/>
       <use xlink:href="#DejaVuSans-35" x="242.822266"/>
      </g>
     </g>
    </g>
    <g id="xtick_10">
     <g id="line2d_19">
      <g>
       <use xlink:href="#m67e68c8106" x="555.569628" y="320.4" style="stroke: #000000; stroke-width: 0.8"/>
      </g>
     </g>
     <g id="text_19">
      <!-- 0.00 -->
      <g transform="translate(544.436815 334.998438) scale(0.1 -0.1)">
       <use xlink:href="#DejaVuSans-30"/>
       <use xlink:href="#DejaVuSans-2e" x="63.623047"/>
       <use xlink:href="#DejaVuSans-30" x="95.410156"/>
       <use xlink:href="#DejaVuSans-30" x="159.033203"/>
      </g>
     </g>
    </g>
    <g id="xtick_11">
     <g id="line2d_20">
      <g>
       <use xlink:href="#m67e68c8106" x="615.733718" y="320.4" style="stroke: #000000; stroke-width: 0.8"/>
      </g>
     </g>
     <g id="text_20">
      <!-- 0.05 -->
      <g transform="translate(604.600906 334.998438) scale(0.1 -0.1)">
       <use xlink:href="#DejaVuSans-30"/>
       <use xlink:href="#DejaVuSans-2e" x="63.623047"/>
       <use xlink:href="#DejaVuSans-30" x="95.410156"/>
       <use xlink:href="#DejaVuSans-35" x="159.033203"/>
      </g>
     </g>
    </g>
    <g id="xtick_12">
     <g id="line2d_21">
      <g>
       <use xlink:href="#m67e68c8106" x="675.897809" y="320.4" style="stroke: #000000; stroke-width: 0.8"/>
      </g>
     </g>
     <g id="text_21">
      <!-- 0.10 -->
      <g transform="translate(664.764996 334.998438) scale(0.1 -0.1)">
       <use xlink:href="#DejaVuSans-30"/>
       <use xlink:href="#DejaVuSans-2e" x="63.623047"/>
       <use xlink:href="#DejaVuSans-31" x="95.410156"/>
       <use xlink:href="#DejaVuSans-30" x="159.033203"/>
      </g>
     </g>
    </g>
   </g>
   <g id="matplotlib.axis_4">
    <g id="ytick_9">
     <g id="line2d_22">
      <g>
       <use xlink:href="#md3b12d9e26" x="430.411765" y="309.437211" style="stroke: #000000; stroke-width: 0.8"/>
      </g>
     </g>
     <g id="text_22">
      <!-- −0.10 -->
      <g transform="translate(392.766452 313.23643) scale(0.1 -0.1)">
       <use xlink:href="#DejaVuSans-2212"/>
       <use xlink:href="#DejaVuSans-30" x="83.789062"/>
       <use xlink:href="#DejaVuSans-2e" x="147.412109"/>
       <use xlink:href="#DejaVuSans-31" x="179.199219"/>
       <use xlink:href="#DejaVuSans-30" x="242.822266"/>
      </g>
     </g>
    </g>
    <g id="ytick_10">
     <g id="line2d_23">
      <g>
       <use xlink:href="#md3b12d9e26" x="430.411765" y="249.27312" style="stroke: #000000; stroke-width: 0.8"/>
      </g>
     </g>
     <g id="text_23">
      <!-- −0.05 -->
      <g transform="translate(392.766452 253.072339) scale(0.1 -0.1)">
       <use xlink:href="#DejaVuSans-2212"/>
       <use xlink:href="#DejaVuSans-30" x="83.789062"/>
       <use xlink:href="#DejaVuSans-2e" x="147.412109"/>
       <use xlink:href="#DejaVuSans-30" x="179.199219"/>
       <use xlink:href="#DejaVuSans-35" x="242.822266"/>
      </g>
     </g>
    </g>
    <g id="ytick_11">
     <g id="line2d_24">
      <g>
       <use xlink:href="#md3b12d9e26" x="430.411765" y="189.10903" style="stroke: #000000; stroke-width: 0.8"/>
      </g>
     </g>
     <g id="text_24">
      <!-- 0.00 -->
      <g transform="translate(401.14614 192.908249) scale(0.1 -0.1)">
       <use xlink:href="#DejaVuSans-30"/>
       <use xlink:href="#DejaVuSans-2e" x="63.623047"/>
       <use xlink:href="#DejaVuSans-30" x="95.410156"/>
       <use xlink:href="#DejaVuSans-30" x="159.033203"/>
      </g>
     </g>
    </g>
    <g id="ytick_12">
     <g id="line2d_25">
      <g>
       <use xlink:href="#md3b12d9e26" x="430.411765" y="128.944939" style="stroke: #000000; stroke-width: 0.8"/>
      </g>
     </g>
     <g id="text_25">
      <!-- 0.05 -->
      <g transform="translate(401.14614 132.744158) scale(0.1 -0.1)">
       <use xlink:href="#DejaVuSans-30"/>
       <use xlink:href="#DejaVuSans-2e" x="63.623047"/>
       <use xlink:href="#DejaVuSans-30" x="95.410156"/>
       <use xlink:href="#DejaVuSans-35" x="159.033203"/>
      </g>
     </g>
    </g>
    <g id="ytick_13">
     <g id="line2d_26">
      <g>
       <use xlink:href="#md3b12d9e26" x="430.411765" y="68.780849" style="stroke: #000000; stroke-width: 0.8"/>
      </g>
     </g>
     <g id="text_26">
      <!-- 0.10 -->
      <g transform="translate(401.14614 72.580068) scale(0.1 -0.1)">
       <use xlink:href="#DejaVuSans-30"/>
       <use xlink:href="#DejaVuSans-2e" x="63.623047"/>
       <use xlink:href="#DejaVuSans-31" x="95.410156"/>
       <use xlink:href="#DejaVuSans-30" x="159.033203"/>
      </g>
     </g>
    </g>
   </g>
   <g id="line2d_27">
    <path d="M 586.446057 262.671486 
L 584.961425 261.186854 
L 583.476793 260.257412 
L 581.992161 260.257412 
L 580.507382 259.146959 
L 579.02275 257.843338 
L 577.538117 257.843338 
L 576.053485 258.579613 
L 574.568853 260.064318 
L 573.084221 260.257412 
L 571.599442 259.895316 
L 570.11481 258.41061 
L 568.630178 257.843338 
L 567.145546 257.843338 
L 565.660914 256.370788 
L 562.546664 255.429264 
L 556.608135 255.429264 
L 553.964721 254.330892 
L 552.142083 253.015189 
L 547.688113 253.015189 
L 544.682603 252.290997 
L 543.197897 250.806291 
L 540.433809 250.601115 
L 537.814559 250.251101 
L 536.329853 248.766395 
L 534.845221 248.187041 
L 533.360589 248.187041 
L 531.875883 246.7265 
L 530.391251 245.772967 
L 528.906619 245.772967 
L 526.335624 243.600315 
L 523.523207 240.944818 
L 522.038575 240.944818 
L 520.553869 241.657003 
L 519.069237 243.141635 
L 517.584605 243.358893 
L 516.437905 243.020887 
L 516.437905 241.536255 
L 513.758318 238.265231 
L 509.304348 233.811261 
L 504.850378 233.702596 
L 500.915425 232.664561 
L 497.946088 229.695224 
L 497.125311 227.800167 
L 496.835634 226.170696 
L 493.866296 223.201358 
L 491.597061 221.632225 
L 490.112429 221.632225 
L 489.883089 220.376932 
L 488.253618 217.58868 
L 480.83031 210.165372 
L 476.931604 207.147779 
L 475.446898 207.147779 
L 473.962266 205.711402 
L 471.970625 204.733705 
L 469.001361 204.733705 
L 467.094222 203.671507 
L 465.344004 202.319631 
L 460.890034 202.319631 
L 456.436064 200.255571 
L 451.982094 195.801601 
L 451.257901 193.834125 
L 450.94406 192.349493 
L 449.459428 190.86486 
L 448.843827 188.511123 
L 448.843827 185.541786 
L 447.419532 183.996816 
L 446.429753 182.512184 
L 446.429753 181.027479 
L 444.32952 178.49273 
L 441.601604 175.523466 
L 441.601604 172.554054 
L 442.277542 170.936666 
L 443.762174 170.936666 
L 445.24688 169.705465 
L 447.335031 168.522592 
L 451.789 168.522592 
L 454.528998 167.665643 
L 456.01363 166.181011 
L 457.498262 166.108518 
L 459.465739 165.142829 
L 462.435077 162.173565 
L 464.366306 161.280369 
L 466.06827 160.954446 
L 470.52224 156.500549 
L 474.97621 154.038147 
L 479.43018 154.038147 
L 486.322314 147.94255 
L 492.007486 141.678098 
L 490.522854 140.193466 
L 489.883089 136.173938 
L 489.883089 130.23541 
L 491.283219 128.4972 
L 493.709376 127.48333 
L 498.163345 127.48333 
L 500.565338 126.457378 
L 502.33972 125.069256 
L 508.278322 125.069256 
L 512.26153 124.417409 
L 513.746236 122.932777 
L 516.437905 122.655182 
L 519.407243 122.099992 
L 522.376507 119.13058 
L 524.512986 117.827033 
L 525.997618 117.827033 
L 528.870372 115.050789 
L 531.83971 112.998885 
L 534.808974 112.998885 
L 536.764442 111.985015 
L 538.502579 110.584811 
L 544.441181 110.584811 
L 550.379783 108.025898 
L 556.318384 102.087222 
L 561.062031 100.928514 
L 565.516075 101.7252 
L 569.969971 106.179096 
L 572.782462 107.349886 
L 574.267094 105.865254 
L 575.751726 105.756662 
L 577.682956 106.649858 
L 580.65222 109.619122 
L 582.619697 110.584811 
L 584.104476 110.657304 
L 585.589108 112.141936 
L 587.07374 112.998885 
L 588.558372 112.998885 
L 591.527636 115.412959 
L 593.012268 115.412959 
L 596.114436 117.839115 
L 600.568332 122.293012 
L 603.658418 122.655182 
L 606.193167 123.089697 
L 607.677799 124.574329 
L 608.172725 126.058962 
L 608.293399 127.604004 
L 611.262811 130.573416 
L 613.616474 132.311479 
L 615.101106 132.311479 
L 615.414948 133.482269 
L 616.139141 135.449746 
L 620.593184 139.903789 
L 622.65717 142.764461 
L 622.65717 144.249093 
L 624.009046 145.733725 
L 625.071245 147.218357 
L 625.071245 148.702989 
L 628.982033 153.120787 
L 634.77587 158.866295 
L 636.260502 158.866295 
L 638.348653 160.073332 
L 641.317917 163.042596 
L 640.811056 164.853152 
L 639.55569 166.567198 
L 639.55569 169.536462 
L 640.340294 171.72127 
L 641.824926 173.205902 
L 641.969764 176.030327 
L 644.021668 180.230793 
L 651.444976 187.654101 
L 654.040135 191.214875 
L 654.148727 192.772 
L 658.602771 197.22597 
L 661.873794 199.905557 
L 663.358426 199.905557 
L 663.696432 204.492283 
L 663.913764 209.779111 
L 665.398396 211.263743 
L 665.337985 212.748449 
L 663.853353 214.233081 
L 661.041009 214.390002 
L 657.27506 215.9833 
L 651.336384 221.921902 
L 649.211987 225.953438 
L 649.163658 228.922702 
L 646.194394 231.89204 
L 643.804484 233.702596 
L 642.319852 233.702596 
L 640.83522 232.567978 
L 638.73484 231.288521 
L 632.796312 231.288521 
L 626.857636 234.330279 
L 620.919108 240.26888 
L 617.611691 240.944818 
L 615.028761 241.331079 
L 613.543981 242.815711 
L 612.059349 243.358893 
L 610.562635 243.383057 
L 607.593371 246.352321 
L 605.191379 248.187041 
L 603.706747 248.187041 
L 602.221967 249.309577 
L 600.737335 250.601115 
L 599.252703 250.601115 
L 597.019714 252.097829 
L 594.05045 255.067167 
L 593.68828 256.732884 
L 592.939923 258.591695 
L 589.970659 261.561033 
L 587.930689 262.671486 
L 587.930689 262.671486 
" clip-path="url(#p619ec72a7f)" style="fill: none; stroke: #1f77b4; stroke-width: 1.5; stroke-linecap: square"/>
   </g>
   <g id="line2d_28">
    <defs>
     <path id="m0e725548ca" d="M 0 3 
C 0.795609 3 1.55874 2.683901 2.12132 2.12132 
C 2.683901 1.55874 3 0.795609 3 0 
C 3 -0.795609 2.683901 -1.55874 2.12132 -2.12132 
C 1.55874 -2.683901 0.795609 -3 0 -3 
C -0.795609 -3 -1.55874 -2.683901 -2.12132 -2.12132 
C -2.683901 -1.55874 -3 -0.795609 -3 0 
C -3 0.795609 -2.683901 1.55874 -2.12132 2.12132 
C -1.55874 2.683901 -0.795609 3 0 3 
z
" style="stroke: #ff0000"/>
    </defs>
    <g clip-path="url(#p619ec72a7f)">
     <use xlink:href="#m0e725548ca" x="586.446057" y="262.671486" style="fill: #ff0000; stroke: #ff0000"/>
    </g>
   </g>
   <g id="patch_8">
    <path d="M 430.411765 320.4 
L 430.411765 43.2 
" style="fill: none; stroke: #000000; stroke-width: 0.8; stroke-linejoin: miter; stroke-linecap: square"/>
   </g>
   <g id="patch_9">
    <path d="M 676.588235 320.4 
L 676.588235 43.2 
" style="fill: none; stroke: #000000; stroke-width: 0.8; stroke-linejoin: miter; stroke-linecap: square"/>
   </g>
   <g id="patch_10">
    <path d="M 430.411765 320.4 
L 676.588235 320.4 
" style="fill: none; stroke: #000000; stroke-width: 0.8; stroke-linejoin: miter; stroke-linecap: square"/>
   </g>
   <g id="patch_11">
    <path d="M 430.411765 43.2 
L 676.588235 43.2 
" style="fill: none; stroke: #000000; stroke-width: 0.8; stroke-linejoin: miter; stroke-linecap: square"/>
   </g>
   <g id="text_27">
    <!-- Unaligned curve -->
    <g transform="translate(504.465 37.2) scale(0.12 -0.12)">
     <defs>
      <path id="DejaVuSans-55" d="M 556 4666 
L 1191 4666 
L 1191 1831 
Q 1191 1081 1462 751 
Q 1734 422 2344 422 
Q 2950 422 3222 751 
Q 3494 1081 3494 1831 
L 3494 4666 
L 4128 4666 
L 4128 1753 
Q 4128 841 3676 375 
Q 3225 -91 2344 -91 
Q 1459 -91 1007 375 
Q 556 841 556 1753 
L 556 4666 
z
" transform="scale(0.015625)"/>
      <path id="DejaVuSans-61" d="M 2194 1759 
Q 1497 1759 1228 1600 
Q 959 1441 959 1056 
Q 959 750 1161 570 
Q 1363 391 1709 391 
Q 2188 391 2477 730 
Q 2766 1069 2766 1631 
L 2766 1759 
L 2194 1759 
z
M 3341 1997 
L 3341 0 
L 2766 0 
L 2766 531 
Q 2569 213 2275 61 
Q 1981 -91 1556 -91 
Q 1019 -91 701 211 
Q 384 513 384 1019 
Q 384 1609 779 1909 
Q 1175 2209 1959 2209 
L 2766 2209 
L 2766 2266 
Q 2766 2663 2505 2880 
Q 2244 3097 1772 3097 
Q 1472 3097 1187 3025 
Q 903 2953 641 2809 
L 641 3341 
Q 956 3463 1253 3523 
Q 1550 3584 1831 3584 
Q 2591 3584 2966 3190 
Q 3341 2797 3341 1997 
z
" transform="scale(0.015625)"/>
      <path id="DejaVuSans-6c" d="M 603 4863 
L 1178 4863 
L 1178 0 
L 603 0 
L 603 4863 
z
" transform="scale(0.015625)"/>
      <path id="DejaVuSans-69" d="M 603 3500 
L 1178 3500 
L 1178 0 
L 603 0 
L 603 3500 
z
M 603 4863 
L 1178 4863 
L 1178 4134 
L 603 4134 
L 603 4863 
z
" transform="scale(0.015625)"/>
      <path id="DejaVuSans-67" d="M 2906 1791 
Q 2906 2416 2648 2759 
Q 2391 3103 1925 3103 
Q 1463 3103 1205 2759 
Q 947 2416 947 1791 
Q 947 1169 1205 825 
Q 1463 481 1925 481 
Q 2391 481 2648 825 
Q 2906 1169 2906 1791 
z
M 3481 434 
Q 3481 -459 3084 -895 
Q 2688 -1331 1869 -1331 
Q 1566 -1331 1297 -1286 
Q 1028 -1241 775 -1147 
L 775 -588 
Q 1028 -725 1275 -790 
Q 1522 -856 1778 -856 
Q 2344 -856 2625 -561 
Q 2906 -266 2906 331 
L 2906 616 
Q 2728 306 2450 153 
Q 2172 0 1784 0 
Q 1141 0 747 490 
Q 353 981 353 1791 
Q 353 2603 747 3093 
Q 1141 3584 1784 3584 
Q 2172 3584 2450 3431 
Q 2728 3278 2906 2969 
L 2906 3500 
L 3481 3500 
L 3481 434 
z
" transform="scale(0.015625)"/>
      <path id="DejaVuSans-64" d="M 2906 2969 
L 2906 4863 
L 3481 4863 
L 3481 0 
L 2906 0 
L 2906 525 
Q 2725 213 2448 61 
Q 2172 -91 1784 -91 
Q 1150 -91 751 415 
Q 353 922 353 1747 
Q 353 2572 751 3078 
Q 1150 3584 1784 3584 
Q 2172 3584 2448 3432 
Q 2725 3281 2906 2969 
z
M 947 1747 
Q 947 1113 1208 752 
Q 1469 391 1925 391 
Q 2381 391 2643 752 
Q 2906 1113 2906 1747 
Q 2906 2381 2643 2742 
Q 2381 3103 1925 3103 
Q 1469 3103 1208 2742 
Q 947 2381 947 1747 
z
" transform="scale(0.015625)"/>
     </defs>
     <use xlink:href="#DejaVuSans-55"/>
     <use xlink:href="#DejaVuSans-6e" x="73.193359"/>
     <use xlink:href="#DejaVuSans-61" x="136.572266"/>
     <use xlink:href="#DejaVuSans-6c" x="197.851562"/>
     <use xlink:href="#DejaVuSans-69" x="225.634766"/>
     <use xlink:href="#DejaVuSans-67" x="253.417969"/>
     <use xlink:href="#DejaVuSans-6e" x="316.894531"/>
     <use xlink:href="#DejaVuSans-65" x="380.273438"/>
     <use xlink:href="#DejaVuSans-64" x="441.796875"/>
     <use xlink:href="#DejaVuSans-20" x="505.273438"/>
     <use xlink:href="#DejaVuSans-63" x="537.060547"/>
     <use xlink:href="#DejaVuSans-75" x="592.041016"/>
     <use xlink:href="#DejaVuSans-72" x="655.419922"/>
     <use xlink:href="#DejaVuSans-76" x="696.533203"/>
     <use xlink:href="#DejaVuSans-65" x="755.712891"/>
    </g>
   </g>
  </g>
  <g id="axes_3">
   <g id="patch_12">
    <path d="M 725.823529 320.4 
L 972 320.4 
L 972 43.2 
L 725.823529 43.2 
z
" style="fill: #ffffff"/>
   </g>
   <g id="matplotlib.axis_5">
    <g id="xtick_13">
     <g id="line2d_29">
      <g>
       <use xlink:href="#m67e68c8106" x="735.233627" y="320.4" style="stroke: #000000; stroke-width: 0.8"/>
      </g>
     </g>
     <g id="text_28">
      <!-- −0.075 -->
      <g transform="translate(716.72972 334.998438) scale(0.1 -0.1)">
       <use xlink:href="#DejaVuSans-2212"/>
       <use xlink:href="#DejaVuSans-30" x="83.789062"/>
       <use xlink:href="#DejaVuSans-2e" x="147.412109"/>
       <use xlink:href="#DejaVuSans-30" x="179.199219"/>
       <use xlink:href="#DejaVuSans-37" x="242.822266"/>
       <use xlink:href="#DejaVuSans-35" x="306.445312"/>
      </g>
     </g>
    </g>
    <g id="xtick_14">
     <g id="line2d_30">
      <g>
       <use xlink:href="#m67e68c8106" x="768.947424" y="320.4" style="stroke: #000000; stroke-width: 0.8"/>
      </g>
     </g>
     <g id="text_29">
      <!-- −0.050 -->
      <g transform="translate(750.443517 334.998438) scale(0.1 -0.1)">
       <use xlink:href="#DejaVuSans-2212"/>
       <use xlink:href="#DejaVuSans-30" x="83.789062"/>
       <use xlink:href="#DejaVuSans-2e" x="147.412109"/>
       <use xlink:href="#DejaVuSans-30" x="179.199219"/>
       <use xlink:href="#DejaVuSans-35" x="242.822266"/>
       <use xlink:href="#DejaVuSans-30" x="306.445312"/>
      </g>
     </g>
    </g>
    <g id="xtick_15">
     <g id="line2d_31">
      <g>
       <use xlink:href="#m67e68c8106" x="802.661221" y="320.4" style="stroke: #000000; stroke-width: 0.8"/>
      </g>
     </g>
     <g id="text_30">
      <!-- −0.025 -->
      <g transform="translate(784.157315 334.998438) scale(0.1 -0.1)">
       <use xlink:href="#DejaVuSans-2212"/>
       <use xlink:href="#DejaVuSans-30" x="83.789062"/>
       <use xlink:href="#DejaVuSans-2e" x="147.412109"/>
       <use xlink:href="#DejaVuSans-30" x="179.199219"/>
       <use xlink:href="#DejaVuSans-32" x="242.822266"/>
       <use xlink:href="#DejaVuSans-35" x="306.445312"/>
      </g>
     </g>
    </g>
    <g id="xtick_16">
     <g id="line2d_32">
      <g>
       <use xlink:href="#m67e68c8106" x="836.375018" y="320.4" style="stroke: #000000; stroke-width: 0.8"/>
      </g>
     </g>
     <g id="text_31">
      <!-- 0.000 -->
      <g transform="translate(822.060956 334.998438) scale(0.1 -0.1)">
       <use xlink:href="#DejaVuSans-30"/>
       <use xlink:href="#DejaVuSans-2e" x="63.623047"/>
       <use xlink:href="#DejaVuSans-30" x="95.410156"/>
       <use xlink:href="#DejaVuSans-30" x="159.033203"/>
       <use xlink:href="#DejaVuSans-30" x="222.65625"/>
      </g>
     </g>
    </g>
    <g id="xtick_17">
     <g id="line2d_33">
      <g>
       <use xlink:href="#m67e68c8106" x="870.088815" y="320.4" style="stroke: #000000; stroke-width: 0.8"/>
      </g>
     </g>
     <g id="text_32">
      <!-- 0.025 -->
      <g transform="translate(855.774753 334.998438) scale(0.1 -0.1)">
       <use xlink:href="#DejaVuSans-30"/>
       <use xlink:href="#DejaVuSans-2e" x="63.623047"/>
       <use xlink:href="#DejaVuSans-30" x="95.410156"/>
       <use xlink:href="#DejaVuSans-32" x="159.033203"/>
       <use xlink:href="#DejaVuSans-35" x="222.65625"/>
      </g>
     </g>
    </g>
    <g id="xtick_18">
     <g id="line2d_34">
      <g>
       <use xlink:href="#m67e68c8106" x="903.802612" y="320.4" style="stroke: #000000; stroke-width: 0.8"/>
      </g>
     </g>
     <g id="text_33">
      <!-- 0.050 -->
      <g transform="translate(889.48855 334.998438) scale(0.1 -0.1)">
       <use xlink:href="#DejaVuSans-30"/>
       <use xlink:href="#DejaVuSans-2e" x="63.623047"/>
       <use xlink:href="#DejaVuSans-30" x="95.410156"/>
       <use xlink:href="#DejaVuSans-35" x="159.033203"/>
       <use xlink:href="#DejaVuSans-30" x="222.65625"/>
      </g>
     </g>
    </g>
    <g id="xtick_19">
     <g id="line2d_35">
      <g>
       <use xlink:href="#m67e68c8106" x="937.51641" y="320.4" style="stroke: #000000; stroke-width: 0.8"/>
      </g>
     </g>
     <g id="text_34">
      <!-- 0.075 -->
      <g transform="translate(923.202347 334.998438) scale(0.1 -0.1)">
       <use xlink:href="#DejaVuSans-30"/>
       <use xlink:href="#DejaVuSans-2e" x="63.623047"/>
       <use xlink:href="#DejaVuSans-30" x="95.410156"/>
       <use xlink:href="#DejaVuSans-37" x="159.033203"/>
       <use xlink:href="#DejaVuSans-35" x="222.65625"/>
      </g>
     </g>
    </g>
    <g id="xtick_20">
     <g id="line2d_36">
      <g>
       <use xlink:href="#m67e68c8106" x="971.230207" y="320.4" style="stroke: #000000; stroke-width: 0.8"/>
      </g>
     </g>
     <g id="text_35">
      <!-- 0.100 -->
      <g transform="translate(956.916144 334.998438) scale(0.1 -0.1)">
       <use xlink:href="#DejaVuSans-30"/>
       <use xlink:href="#DejaVuSans-2e" x="63.623047"/>
       <use xlink:href="#DejaVuSans-31" x="95.410156"/>
       <use xlink:href="#DejaVuSans-30" x="159.033203"/>
       <use xlink:href="#DejaVuSans-30" x="222.65625"/>
      </g>
     </g>
    </g>
   </g>
   <g id="matplotlib.axis_6">
    <g id="ytick_14">
     <g id="line2d_37">
      <g>
       <use xlink:href="#md3b12d9e26" x="725.823529" y="317.617104" style="stroke: #000000; stroke-width: 0.8"/>
      </g>
     </g>
     <g id="text_36">
      <!-- −0.100 -->
      <g transform="translate(681.815717 321.416322) scale(0.1 -0.1)">
       <use xlink:href="#DejaVuSans-2212"/>
       <use xlink:href="#DejaVuSans-30" x="83.789062"/>
       <use xlink:href="#DejaVuSans-2e" x="147.412109"/>
       <use xlink:href="#DejaVuSans-31" x="179.199219"/>
       <use xlink:href="#DejaVuSans-30" x="242.822266"/>
       <use xlink:href="#DejaVuSans-30" x="306.445312"/>
      </g>
     </g>
    </g>
    <g id="ytick_15">
     <g id="line2d_38">
      <g>
       <use xlink:href="#md3b12d9e26" x="725.823529" y="283.903306" style="stroke: #000000; stroke-width: 0.8"/>
      </g>
     </g>
     <g id="text_37">
      <!-- −0.075 -->
      <g transform="translate(681.815717 287.702525) scale(0.1 -0.1)">
       <use xlink:href="#DejaVuSans-2212"/>
       <use xlink:href="#DejaVuSans-30" x="83.789062"/>
       <use xlink:href="#DejaVuSans-2e" x="147.412109"/>
       <use xlink:href="#DejaVuSans-30" x="179.199219"/>
       <use xlink:href="#DejaVuSans-37" x="242.822266"/>
       <use xlink:href="#DejaVuSans-35" x="306.445312"/>
      </g>
     </g>
    </g>
    <g id="ytick_16">
     <g id="line2d_39">
      <g>
       <use xlink:href="#md3b12d9e26" x="725.823529" y="250.189509" style="stroke: #000000; stroke-width: 0.8"/>
      </g>
     </g>
     <g id="text_38">
      <!-- −0.050 -->
      <g transform="translate(681.815717 253.988728) scale(0.1 -0.1)">
       <use xlink:href="#DejaVuSans-2212"/>
       <use xlink:href="#DejaVuSans-30" x="83.789062"/>
       <use xlink:href="#DejaVuSans-2e" x="147.412109"/>
       <use xlink:href="#DejaVuSans-30" x="179.199219"/>
       <use xlink:href="#DejaVuSans-35" x="242.822266"/>
       <use xlink:href="#DejaVuSans-30" x="306.445312"/>
      </g>
     </g>
    </g>
    <g id="ytick_17">
     <g id="line2d_40">
      <g>
       <use xlink:href="#md3b12d9e26" x="725.823529" y="216.475712" style="stroke: #000000; stroke-width: 0.8"/>
      </g>
     </g>
     <g id="text_39">
      <!-- −0.025 -->
      <g transform="translate(681.815717 220.274931) scale(0.1 -0.1)">
       <use xlink:href="#DejaVuSans-2212"/>
       <use xlink:href="#DejaVuSans-30" x="83.789062"/>
       <use xlink:href="#DejaVuSans-2e" x="147.412109"/>
       <use xlink:href="#DejaVuSans-30" x="179.199219"/>
       <use xlink:href="#DejaVuSans-32" x="242.822266"/>
       <use xlink:href="#DejaVuSans-35" x="306.445312"/>
      </g>
     </g>
    </g>
    <g id="ytick_18">
     <g id="line2d_41">
      <g>
       <use xlink:href="#md3b12d9e26" x="725.823529" y="182.761915" style="stroke: #000000; stroke-width: 0.8"/>
      </g>
     </g>
     <g id="text_40">
      <!-- 0.000 -->
      <g transform="translate(690.195404 186.561134) scale(0.1 -0.1)">
       <use xlink:href="#DejaVuSans-30"/>
       <use xlink:href="#DejaVuSans-2e" x="63.623047"/>
       <use xlink:href="#DejaVuSans-30" x="95.410156"/>
       <use xlink:href="#DejaVuSans-30" x="159.033203"/>
       <use xlink:href="#DejaVuSans-30" x="222.65625"/>
      </g>
     </g>
    </g>
    <g id="ytick_19">
     <g id="line2d_42">
      <g>
       <use xlink:href="#md3b12d9e26" x="725.823529" y="149.048118" style="stroke: #000000; stroke-width: 0.8"/>
      </g>
     </g>
     <g id="text_41">
      <!-- 0.025 -->
      <g transform="translate(690.195404 152.847337) scale(0.1 -0.1)">
       <use xlink:href="#DejaVuSans-30"/>
       <use xlink:href="#DejaVuSans-2e" x="63.623047"/>
       <use xlink:href="#DejaVuSans-30" x="95.410156"/>
       <use xlink:href="#DejaVuSans-32" x="159.033203"/>
       <use xlink:href="#DejaVuSans-35" x="222.65625"/>
      </g>
     </g>
    </g>
    <g id="ytick_20">
     <g id="line2d_43">
      <g>
       <use xlink:href="#md3b12d9e26" x="725.823529" y="115.334321" style="stroke: #000000; stroke-width: 0.8"/>
      </g>
     </g>
     <g id="text_42">
      <!-- 0.050 -->
      <g transform="translate(690.195404 119.133539) scale(0.1 -0.1)">
       <use xlink:href="#DejaVuSans-30"/>
       <use xlink:href="#DejaVuSans-2e" x="63.623047"/>
       <use xlink:href="#DejaVuSans-30" x="95.410156"/>
       <use xlink:href="#DejaVuSans-35" x="159.033203"/>
       <use xlink:href="#DejaVuSans-30" x="222.65625"/>
      </g>
     </g>
    </g>
    <g id="ytick_21">
     <g id="line2d_44">
      <g>
       <use xlink:href="#md3b12d9e26" x="725.823529" y="81.620523" style="stroke: #000000; stroke-width: 0.8"/>
      </g>
     </g>
     <g id="text_43">
      <!-- 0.075 -->
      <g transform="translate(690.195404 85.419742) scale(0.1 -0.1)">
       <use xlink:href="#DejaVuSans-30"/>
       <use xlink:href="#DejaVuSans-2e" x="63.623047"/>
       <use xlink:href="#DejaVuSans-30" x="95.410156"/>
       <use xlink:href="#DejaVuSans-37" x="159.033203"/>
       <use xlink:href="#DejaVuSans-35" x="222.65625"/>
      </g>
     </g>
    </g>
    <g id="ytick_22">
     <g id="line2d_45">
      <g>
       <use xlink:href="#md3b12d9e26" x="725.823529" y="47.906726" style="stroke: #000000; stroke-width: 0.8"/>
      </g>
     </g>
     <g id="text_44">
      <!-- 0.100 -->
      <g transform="translate(690.195404 51.705945) scale(0.1 -0.1)">
       <use xlink:href="#DejaVuSans-30"/>
       <use xlink:href="#DejaVuSans-2e" x="63.623047"/>
       <use xlink:href="#DejaVuSans-31" x="95.410156"/>
       <use xlink:href="#DejaVuSans-30" x="159.033203"/>
       <use xlink:href="#DejaVuSans-30" x="222.65625"/>
      </g>
     </g>
    </g>
   </g>
   <g id="line2d_46">
    <path d="M 844.245202 300.395182 
L 835.812279 296.214291 
L 830.770206 295.401465 
L 827.599516 296.413148 
L 823.383042 294.322794 
L 820.604617 292.432871 
L 820.073114 290.856177 
L 820.746585 288.873286 
L 821.353437 286.184611 
L 819.227421 279.877835 
L 813.870977 274.659863 
L 805.438107 270.479129 
L 803.536187 267.208607 
L 802.201276 264.603793 
L 800.093025 263.558446 
L 798.984657 262.176213 
L 798.423165 260.595339 
L 794.20677 258.504959 
L 791.398357 256.610856 
L 790.866853 255.034162 
L 789.143152 253.859183 
L 787.240022 252.744865 
L 786.708518 251.168171 
L 784.319574 249.332544 
L 780.1031 247.24219 
L 778.204434 247.453894 
L 775.962444 247.324593 
L 771.74597 245.234239 
L 769.836341 243.465318 
L 769.304837 241.888624 
L 770.350027 239.780426 
L 770.8056 237.870988 
L 770.274096 236.294294 
L 770.921852 234.319897 
L 771.774806 232.276502 
L 771.243303 230.699808 
L 769.929867 229.386703 
L 767.821591 228.34154 
L 767.08502 226.833974 
L 766.938014 225.127492 
L 767.983282 223.019267 
L 768.054227 221.239488 
L 767.522723 219.662794 
L 768.555082 217.558921 
L 768.440077 213.914488 
L 766.314061 207.607712 
L 766.534191 204.407159 
L 767.278969 202.000473 
L 765.684431 197.270312 
L 765.377547 193.819167 
L 766.422789 191.710864 
L 765.651134 188.701921 
L 765.085151 185.794945 
L 766.130393 183.686643 
L 766.214169 181.902538 
L 765.682665 180.325844 
L 766.702245 178.226193 
L 767.183402 176.30813 
L 766.651898 174.731436 
L 768.03885 171.223197 
L 769.852158 167.285704 
L 769.320654 165.70901 
L 768.032777 164.387202 
L 765.924579 163.342012 
L 765.162346 161.843097 
L 765.110788 160.504283 
L 766.687482 159.97278 
L 769.202039 155.955993 
L 772.337662 149.631295 
L 770.858528 144.862232 
L 770.552203 140.311653 
L 772.642635 136.095153 
L 774.361363 134.545042 
L 775.988172 133.654046 
L 778.078604 129.437546 
L 778.932645 126.465839 
L 778.401141 124.889145 
L 779.652169 124.196185 
L 782.029964 121.467466 
L 787.256019 110.926267 
L 789.064981 105.705493 
L 788.533451 104.128721 
L 789.527394 102.037799 
L 789.852703 99.572637 
L 788.789695 96.419249 
L 789.234998 94.013577 
L 790.044118 91.670851 
L 788.44958 86.940691 
L 789.047095 81.47159 
L 792.182717 75.146892 
L 794.012933 73.673428 
L 795.47727 72.808621 
L 796.52246 70.700423 
L 798.801765 69.204003 
L 801.955231 68.140969 
L 803.086101 66.075248 
L 804.30845 64.492589 
L 805.885223 63.961059 
L 807.825259 60.823142 
L 810.002043 56.86306 
L 813.155588 55.8 
L 815.115259 55.938822 
L 815.646763 57.515516 
L 817.485841 58.651513 
L 819.489629 60.445677 
L 821.084167 65.175837 
L 822.975185 67.778951 
L 825.083383 68.824141 
L 825.691875 70.374882 
L 827.42181 72.118642 
L 831.638232 74.2091 
L 833.278202 75.940318 
L 834.233645 77.631138 
L 840.558265 80.766787 
L 844.767899 84.615398 
L 846.362437 89.345558 
L 855.303431 94.482827 
L 863.991654 98.277839 
L 865.036844 96.169641 
L 869.076584 94.051198 
L 875.38336 91.925183 
L 877.730608 92.789849 
L 879.675921 95.003482 
L 881.270459 99.733643 
L 883.219953 101.917287 
L 885.329388 103.304747 
L 887.455429 109.611601 
L 889.573701 113.608443 
L 891.681925 114.653712 
L 892.940361 117.412911 
L 894.593013 120.367617 
L 898.809565 122.457945 
L 900.958812 124.260232 
L 901.490316 125.836926 
L 905.467172 127.893914 
L 908.709348 130.312791 
L 909.772356 133.466179 
L 911.549161 135.179936 
L 913.658451 136.524575 
L 915.784493 142.83143 
L 920.628125 148.222183 
L 929.061099 152.40297 
L 931.989902 157.025948 
L 932.738378 162.041403 
L 929.602808 168.365996 
L 929.366299 171.772037 
L 931.474497 172.817227 
L 932.121326 174.355044 
L 931.864131 176.725797 
L 929.773751 180.942193 
L 929.452544 183.377392 
L 929.907112 184.980196 
L 928.861922 187.088393 
L 928.483337 188.971878 
L 929.014841 190.548572 
L 927.514078 194.566208 
L 928.045582 196.142902 
L 926.579568 200.306008 
L 923.443997 206.630602 
L 924.165631 210.041961 
L 924.611621 212.889448 
L 923.56643 214.997646 
L 922.166922 216.054766 
L 920.569273 216.736055 
L 918.478789 220.952659 
L 917.475569 224.074506 
L 918.007073 225.6512 
L 916.876038 226.40365 
L 915.045823 227.877114 
L 911.910148 234.201917 
L 909.611001 237.418022 
L 908.034307 237.949526 
L 906.94159 239.916735 
L 905.745167 241.576304 
L 904.168473 242.107808 
L 900.876805 247.842692 
L 896.849234 256.052718 
L 897.380738 257.629412 
L 896.846418 260.279173 
L 894.756038 264.495568 
L 892.651751 264.605462 
L 890.381992 263.885886 
L 887.228604 264.948894 
L 885.189207 266.56432 
L 884.144017 268.672518 
L 881.196302 269.837493 
L 877.469955 273.520418 
L 872.243901 284.061616 
L 869.3914 288.092471 
L 867.776594 288.765254 
L 864.640998 295.09003 
L 862.966289 299.523192 
L 863.497793 301.099886 
L 858.747651 303.100916 
L 853.210792 305.224429 
L 852.165602 307.332627 
L 850.567203 307.8 
L 848.459005 306.75481 
L 847.285524 303.824251 
L 847.285524 303.824251 
" clip-path="url(#p0515e87e30)" style="fill: none; stroke: #1f77b4; stroke-width: 1.5; stroke-linecap: square"/>
   </g>
   <g id="line2d_47">
    <g clip-path="url(#p0515e87e30)">
     <use xlink:href="#m0e725548ca" x="769.304837" y="241.888624" style="fill: #ff0000; stroke: #ff0000"/>
    </g>
   </g>
   <g id="patch_13">
    <path d="M 725.823529 320.4 
L 725.823529 43.2 
" style="fill: none; stroke: #000000; stroke-width: 0.8; stroke-linejoin: miter; stroke-linecap: square"/>
   </g>
   <g id="patch_14">
    <path d="M 972 320.4 
L 972 43.2 
" style="fill: none; stroke: #000000; stroke-width: 0.8; stroke-linejoin: miter; stroke-linecap: square"/>
   </g>
   <g id="patch_15">
    <path d="M 725.823529 320.4 
L 972 320.4 
" style="fill: none; stroke: #000000; stroke-width: 0.8; stroke-linejoin: miter; stroke-linecap: square"/>
   </g>
   <g id="patch_16">
    <path d="M 725.823529 43.2 
L 972 43.2 
" style="fill: none; stroke: #000000; stroke-width: 0.8; stroke-linejoin: miter; stroke-linecap: square"/>
   </g>
   <g id="text_45">
    <!-- Aligned curve -->
    <g transform="translate(807.643015 37.2) scale(0.12 -0.12)">
     <defs>
      <path id="DejaVuSans-41" d="M 2188 4044 
L 1331 1722 
L 3047 1722 
L 2188 4044 
z
M 1831 4666 
L 2547 4666 
L 4325 0 
L 3669 0 
L 3244 1197 
L 1141 1197 
L 716 0 
L 50 0 
L 1831 4666 
z
" transform="scale(0.015625)"/>
     </defs>
     <use xlink:href="#DejaVuSans-41"/>
     <use xlink:href="#DejaVuSans-6c" x="68.408203"/>
     <use xlink:href="#DejaVuSans-69" x="96.191406"/>
     <use xlink:href="#DejaVuSans-67" x="123.974609"/>
     <use xlink:href="#DejaVuSans-6e" x="187.451172"/>
     <use xlink:href="#DejaVuSans-65" x="250.830078"/>
     <use xlink:href="#DejaVuSans-64" x="312.353516"/>
     <use xlink:href="#DejaVuSans-20" x="375.830078"/>
     <use xlink:href="#DejaVuSans-63" x="407.617188"/>
     <use xlink:href="#DejaVuSans-75" x="462.597656"/>
     <use xlink:href="#DejaVuSans-72" x="525.976562"/>
     <use xlink:href="#DejaVuSans-76" x="567.089844"/>
     <use xlink:href="#DejaVuSans-65" x="626.269531"/>
    </g>
   </g>
  </g>
 </g>
 <defs>
  <clipPath id="p2c3b7f03d2">
   <rect x="135" y="43.2" width="246.176471" height="277.2"/>
  </clipPath>
  <clipPath id="p619ec72a7f">
   <rect x="430.411765" y="43.2" width="246.176471" height="277.2"/>
  </clipPath>
  <clipPath id="p0515e87e30">
   <rect x="725.823529" y="43.2" width="246.176471" height="277.2"/>
  </clipPath>
 </defs>
</svg>
