<?xml version="1.0" encoding="utf-8" standalone="no"?>
<!DOCTYPE svg PUBLIC "-//W3C//DTD SVG 1.1//EN"
  "http://www.w3.org/Graphics/SVG/1.1/DTD/svg11.dtd">
<svg xmlns:xlink="http://www.w3.org/1999/xlink" width="576pt" height="144pt" viewBox="0 0 576 144" xmlns="http://www.w3.org/2000/svg" version="1.1">
 <metadata>
  <rdf:RDF xmlns:dc="http://purl.org/dc/elements/1.1/" xmlns:cc="http://creativecommons.org/ns#" xmlns:rdf="http://www.w3.org/1999/02/22-rdf-syntax-ns#">
   <cc:Work>
    <dc:type rdf:resource="http://purl.org/dc/dcmitype/StillImage"/>
    <dc:date>2024-05-09T16:49:40.448824</dc:date>
    <dc:format>image/svg+xml</dc:format>
    <dc:creator>
     <cc:Agent>
      <dc:title>Matplotlib v3.8.4, https://matplotlib.org/</dc:title>
     </cc:Agent>
    </dc:creator>
   </cc:Work>
  </rdf:RDF>
 </metadata>
 <defs>
  <style type="text/css">*{stroke-linejoin: round; stroke-linecap: butt}</style>
 </defs>
 <g id="figure_1">
  <g id="patch_1">
   <path d="M 0 144 
L 576 144 
L 576 0 
L 0 0 
z
" style="fill: #ffffff"/>
  </g>
  <g id="axes_1">
   <g id="patch_2">
    <path d="M 10.8 133.2 
L 141.3 133.2 
L 141.3 27.6 
L 10.8 27.6 
z
" style="fill: #ffffff"/>
   </g>
   <g id="matplotlib.axis_1"/>
   <g id="matplotlib.axis_2"/>
   <g id="line2d_1">
    <path d="M 129.373483 67.163612 
L 129.423285 69.073472 
L 132.802624 71.654682 
L 132.923623 72.411436 
L 132.993888 79.747036 
L 133.484795 81.153345 
L 134.986734 82.300534 
L 135.357111 82.876342 
L 135.368182 84.032114 
L 135.230781 84.500839 
L 134.490876 85.08304 
L 134.217877 85.735882 
L 134.208433 90.715794 
L 133.138445 91.635711 
L 132.949859 92.673939 
L 131.959444 93.54655 
L 131.896739 94.413799 
L 130.810581 95.400782 
L 130.728704 96.24406 
L 129.683337 97.069545 
L 129.668994 98.014661 
L 129.614605 98.929255 
L 128.538229 99.865087 
L 128.541834 102.134619 
L 128.468734 103.411596 
L 127.107914 103.649037 
L 126.237556 104.322795 
L 124.769039 104.348433 
L 124.023599 104.352725 
L 122.978619 105.075784 
L 118.108118 109.014789 
L 118.025916 109.882151 
L 116.866665 110.715878 
L 114.630126 110.766284 
L 112.859147 112.127067 
L 110.97924 113.472075 
L 109.862013 113.574178 
L 108.822593 114.384572 
L 106.591874 114.397373 
L 106.092009 114.095671 
L 103.992195 112.607873 
L 102.874812 112.693713 
L 101.640325 113.525838 
L 100.521218 113.43162 
L 99.510667 112.669269 
L 98.157152 112.641465 
L 94.777798 112.686505 
L 93.642723 113.556676 
L 87.672721 113.606248 
L 85.425875 113.572344 
L 84.251421 112.721518 
L 78.476709 112.666706 
L 77.962919 112.360775 
L 74.927415 110.175358 
L 74.291495 110.06558 
L 61.994467 110.039082 
L 60.94452 109.118437 
L 60.851638 107.370648 
L 59.680432 106.545435 
L 57.13488 106.327227 
L 56.184236 105.651891 
L 53.910272 105.51644 
L 53.846093 104.716998 
L 50.296406 102.069259 
L 49.208642 101.848681 
L 49.202799 101.238643 
L 49.036776 101.039971 
L 45.546554 98.47353 
L 44.552538 98.4702 
L 43.551665 97.747599 
L 43.344348 97.309939 
L 43.155633 90.263031 
L 42.08907 89.33897 
L 41.932614 83.044551 
L 40.852987 82.087551 
L 40.858759 81.316957 
L 42.002297 80.280021 
L 41.996762 79.702146 
L 42.966907 79.495446 
L 44.527731 79.319959 
L 46.740938 77.588978 
L 47.795867 76.150874 
L 47.784796 74.995073 
L 48.492511 74.388318 
L 48.933535 73.127827 
L 48.911393 70.816243 
L 49.519656 69.935352 
L 50.055301 68.444662 
L 50.016552 64.399374 
L 50.524718 63.172277 
L 51.269386 63.091029 
L 52.00926 62.509246 
L 52.323001 61.601539 
L 52.292039 60.461407 
L 51.559088 59.873636 
L 51.129469 58.792358 
L 51.099552 56.982865 
L 50.92353 56.694899 
L 47.558022 54.145101 
L 45.432151 54.15734 
L 44.842063 53.845289 
L 44.051894 53.287166 
L 40.527715 53.228491 
L 39.513772 52.468677 
L 38.98967 52.385577 
L 35.815189 52.471768 
L 33.548382 54.182334 
L 32.113946 54.234011 
L 29.152704 54.266844 
L 28.736395 54.396958 
L 26.435967 56.07555 
L 25.442283 56.103584 
L 24.279337 56.93691 
L 24.271956 56.166391 
L 25.05702 55.469678 
L 26.688448 54.265245 
L 27.806179 54.215732 
L 28.910696 53.268527 
L 28.914762 52.493489 
L 29.750109 51.776917 
L 31.180132 50.612835 
L 31.207434 49.456816 
L 31.119104 48.749971 
L 30.118252 47.984488 
L 30.022536 47.549066 
L 29.981086 45.267968 
L 29.514825 44.831298 
L 28.823931 44.210411 
L 28.80917 42.669345 
L 28.942871 42.389015 
L 29.964199 41.45884 
L 29.970602 40.682851 
L 32.155304 38.950135 
L 32.461972 38.856774 
L 33.162197 38.852743 
L 33.657547 38.679287 
L 34.644465 37.944903 
L 35.638313 37.934063 
L 38.350175 35.898042 
L 39.235765 35.045756 
L 39.272227 34.274957 
L 40.241321 33.498817 
L 40.383873 33.112716 
L 40.380183 32.727457 
L 41.268101 32.4751 
L 46.103308 32.473359 
L 47.222406 33.219473 
L 48.552264 33.337591 
L 49.879848 33.204278 
L 50.619718 32.622111 
L 46.777477 61.479358 
L 41.808461 102.700415 
L 44.812332 104.994835 
L 46.259562 105.70483 
L 47.005655 105.772383 
L 47.756596 106.345967 
L 49.338429 106.59153 
L 51.488538 106.601478 
L 51.592701 107.15326 
L 52.240936 107.975683 
L 53.742851 109.122877 
L 54.590787 109.27457 
L 55.11784 109.790967 
L 55.134446 111.524648 
L 54.051727 112.840096 
L 52.823998 113.904938 
L 52.829533 114.482839 
L 52.384254 115.063339 
L 51.644038 115.609409 
L 50.898688 115.626803 
L 48.047795 117.564289 
L 42.868532 121.639592 
L 40.980185 122.214246 
L 40.240282 122.796439 
L 37.426125 123.188374 
L 35.946348 124.352736 
L 35.43221 125.135831 
L 35.245687 125.814584 
L 33.028496 127.55984 
L 31.57578 128.4 
L 30.843705 128.393776 
L 30.791734 127.85241 
L 31.077167 127.272859 
L 31.817108 126.690637 
L 31.932487 124.849172 
L 32.626129 124.231675 
L 32.9961 123.940564 
L 33.081972 123.362162 
L 33.079204 123.073197 
L 32.468089 122.498808 
L 32.092583 122.211989 
L 31.349569 122.070324 
L 28.402253 121.981823 
L 28.481613 121.114444 
L 29.537886 120.241475 
L 29.548209 119.824054 
L 29.386182 119.247024 
L 28.635242 118.67344 
L 27.887872 118.47255 
L 27.14286 118.525375 
L 26.402969 119.105258 
L 25.660244 119.3898 
L 24.914772 119.394092 
L 24.174626 119.947437 
L 23.432553 120.30705 
L 22.687148 120.311341 
L 21.946283 120.789617 
L 21.014686 121.225395 
L 19.523808 121.233978 
L 18.551377 121.638515 
L 17.810737 122.147306 
L 17.065341 122.152557 
L 16.734561 121.830544 
L 16.731818 121.254802 
L 17.47105 121.245795 
L 18.227846 120.981893 
L 19.215566 120.331327 
L 20.332865 120.236751 
L 21.502593 119.413735 
L 22.661278 119.315831 
L 23.813048 118.496009 
L 24.971836 118.40896 
L 26.206333 117.577805 
L 27.282395 117.502089 
L 28.516787 116.660079 
L 29.529211 116.62509 
L 30.819007 115.630498 
L 31.832448 114.707504 
L 31.891098 112.96754 
L 33.010997 112.12343 
L 34.375766 111.920671 
L 35.2905 111.089562 
L 35.287021 109.978228 
L 34.79967 109.017818 
L 33.548055 108.061808 
L 31.671299 107.597664 
L 29.18652 107.611968 
L 27.477415 107.015961 
L 26.2258 106.059951 
L 24.981114 105.827327 
L 23.738725 105.83448 
L 22.438277 104.939857 
L 22.401281 104.458461 
L 22.97992 104.029997 
L 27.949477 104.001388 
L 31.877222 103.863539 
L 32.49384 103.378354 
L 34.010061 103.062072 
L 37.115998 103.044192 
L 39.018452 102.800422 
L 39.635069 102.315237 
L 40.095502 101.255692 
L 43.656166 89.161588 
L 60.253809 32.4 
L 61.504516 33.263026 
L 62.664931 33.343907 
L 63.834695 34.149918 
L 68.585215 34.274909 
L 69.731308 35.024516 
L 70.811052 35.091784 
L 73.025886 36.769074 
L 74.26115 37.828569 
L 74.26758 38.499875 
L 74.566908 38.843791 
L 77.795656 41.444262 
L 77.846008 42.231141 
L 80.226618 44.001593 
L 81.405452 44.102668 
L 83.755717 45.862486 
L 89.719331 50.284681 
L 90.818069 50.368533 
L 92.432715 51.592401 
L 93.182798 52.073593 
L 95.533155 52.165064 
L 96.615092 52.917628 
L 97.985307 52.950371 
L 107.15538 52.962536 
L 108.289642 53.77797 
L 109.459922 53.788738 
L 110.716373 53.886979 
L 111.883785 54.676329 
L 114.17723 54.734937 
L 115.314947 55.561898 
L 118.904783 55.652665 
L 120.1081 56.440714 
L 121.104077 56.5295 
L 121.178324 58.268856 
L 122.299634 59.427408 
L 122.366061 60.084729 
L 123.420486 60.893494 
L 123.79367 60.941624 
L 124.788608 61.044614 
L 125.977765 61.833476 
L 126.990146 61.934537 
L 126.99766 62.71892 
L 129.350418 64.755706 
L 129.36887 66.682031 
L 129.36887 66.682031 
" clip-path="url(#p2dbc2778f6)" style="fill: none; stroke: #808080; stroke-width: 1.5; stroke-linecap: square"/>
   </g>
   <g id="text_1">
    <!-- 154 -->
    <g transform="translate(62.68875 21.6) scale(0.14 -0.14)">
     <defs>
      <path id="DejaVuSans-31" d="M 794 531 
L 1825 531 
L 1825 4091 
L 703 3866 
L 703 4441 
L 1819 4666 
L 2450 4666 
L 2450 531 
L 3481 531 
L 3481 0 
L 794 0 
L 794 531 
z
" transform="scale(0.015625)"/>
      <path id="DejaVuSans-35" d="M 691 4666 
L 3169 4666 
L 3169 4134 
L 1269 4134 
L 1269 2991 
Q 1406 3038 1543 3061 
Q 1681 3084 1819 3084 
Q 2600 3084 3056 2656 
Q 3513 2228 3513 1497 
Q 3513 744 3044 326 
Q 2575 -91 1722 -91 
Q 1428 -91 1123 -41 
Q 819 9 494 109 
L 494 744 
Q 775 591 1075 516 
Q 1375 441 1709 441 
Q 2250 441 2565 725 
Q 2881 1009 2881 1497 
Q 2881 1984 2565 2268 
Q 2250 2553 1709 2553 
Q 1456 2553 1204 2497 
Q 953 2441 691 2322 
L 691 4666 
z
" transform="scale(0.015625)"/>
      <path id="DejaVuSans-34" d="M 2419 4116 
L 825 1625 
L 2419 1625 
L 2419 4116 
z
M 2253 4666 
L 3047 4666 
L 3047 1625 
L 3713 1625 
L 3713 1100 
L 3047 1100 
L 3047 0 
L 2419 0 
L 2419 1100 
L 313 1100 
L 313 1709 
L 2253 4666 
z
" transform="scale(0.015625)"/>
     </defs>
     <use xlink:href="#DejaVuSans-31"/>
     <use xlink:href="#DejaVuSans-35" x="63.623047"/>
     <use xlink:href="#DejaVuSans-34" x="127.246094"/>
    </g>
   </g>
  </g>
  <g id="axes_2">
   <g id="patch_3">
    <path d="M 152.1 133.2 
L 282.6 133.2 
L 282.6 27.6 
L 152.1 27.6 
z
" style="fill: #ffffff"/>
   </g>
   <g id="matplotlib.axis_3"/>
   <g id="matplotlib.axis_4"/>
   <g id="line2d_2">
    <path d="M 266.836427 69.807785 
L 266.281539 70.168998 
L 264.610535 72.004615 
L 264.426669 72.945699 
L 262.905093 74.764999 
L 262.797806 75.474129 
L 262.56287 75.829763 
L 262.559732 76.202047 
L 262.429183 76.612495 
L 262.062968 77.020462 
L 261.882903 77.430409 
L 261.879432 77.842209 
L 261.244048 78.65916 
L 261.214173 80.894125 
L 261.511339 81.433594 
L 261.59482 82.157864 
L 261.777008 82.365697 
L 261.834976 83.11799 
L 262.784054 84.391832 
L 262.813916 85.582973 
L 255.776653 79.744587 
L 211.958244 37.892851 
L 211.518391 37.973149 
L 211.255814 38.227243 
L 210.420519 38.994191 
L 209.785466 39.103333 
L 209.416609 39.358164 
L 208.831627 39.418418 
L 208.491362 39.669165 
L 205.235356 39.687041 
L 202.571383 40.031943 
L 200.817093 40.085931 
L 200.516684 40.366875 
L 199.983537 40.382319 
L 199.651527 40.627214 
L 199.205879 40.742475 
L 197.977062 41.727528 
L 195.969653 43.692609 
L 194.922226 43.702571 
L 194.578028 43.981345 
L 194.303576 43.80691 
L 193.554543 43.6671 
L 192.752317 43.771445 
L 192.430766 44.02827 
L 191.878679 44.057017 
L 191.322231 44.603306 
L 190.975761 44.529771 
L 191.197351 44.039851 
L 192.715099 43.073224 
L 193.96334 42.441123 
L 194.835511 42.156397 
L 195.945113 41.454114 
L 198.561125 38.671975 
L 199.484517 37.140235 
L 200.435645 36.809431 
L 202.697667 35.802784 
L 205.858864 32.969632 
L 206.640606 32.614135 
L 207.41284 32.4 
L 208.511328 33.01875 
L 209.608695 33.764602 
L 210.375933 34.145745 
L 211.740232 35.082084 
L 212.231154 36.390186 
L 219.363487 44.447808 
L 260.209157 87.643677 
L 259.312535 87.839352 
L 258.004742 87.620383 
L 257.05417 87.696421 
L 256.378668 88.311667 
L 256.04409 88.345753 
L 255.11243 88.391642 
L 254.168727 89.072047 
L 253.701221 89.162358 
L 253.484624 89.400293 
L 253.366929 90.199049 
L 251.764368 91.959058 
L 251.042404 92.0831 
L 250.856737 92.287058 
L 250.583857 92.391526 
L 250.215993 92.387641 
L 249.106116 93.121997 
L 248.73775 93.177731 
L 248.080895 93.952926 
L 247.997297 94.68908 
L 247.81163 94.893038 
L 247.389587 96.900267 
L 247.34593 97.596607 
L 247.165801 97.819803 
L 247.043716 98.397919 
L 246.926289 100.300226 
L 246.741212 100.507654 
L 246.590727 102.686737 
L 245.811951 103.741655 
L 244.983634 104.578762 
L 244.212054 104.760055 
L 243.84072 105.16797 
L 243.471107 105.372767 
L 243.103249 105.368887 
L 241.694141 104.647004 
L 241.331239 104.025415 
L 241.120681 103.24338 
L 239.490788 101.380314 
L 238.849169 101.220529 
L 238.081931 100.839386 
L 237.612333 100.743263 
L 237.312706 100.460448 
L 236.762908 100.452426 
L 236.455863 100.177737 
L 234.884824 100.059527 
L 233.571249 100.188787 
L 233.294101 100.335561 
L 232.850041 100.040636 
L 229.564637 100.003335 
L 228.801407 100.254778 
L 227.247925 100.483086 
L 226.936852 100.694974 
L 224.40019 100.697108 
L 223.652305 100.73739 
L 222.910715 101.425225 
L 222.30234 101.512488 
L 220.481851 103.507464 
L 220.339004 103.816535 
L 220.236797 104.417248 
L 219.171882 105.659186 
L 216.979721 108.222593 
L 216.674146 109.142082 
L 216.626852 109.337582 
L 216.521478 110.048895 
L 216.293986 110.44691 
L 216.278987 111.073042 
L 216.367291 111.850679 
L 217.48077 113.178161 
L 218.252226 114.18018 
L 218.334735 114.905518 
L 218.573945 115.254725 
L 218.504153 116.001062 
L 218.318485 116.205019 
L 218.050415 116.27708 
L 215.448295 116.401536 
L 214.780989 117.007012 
L 214.163658 117.094382 
L 213.22854 118.143499 
L 212.92033 119.158802 
L 212.073265 120.109045 
L 210.728246 121.4357 
L 210.159825 121.52294 
L 209.092736 122.644085 
L 208.845631 123.189057 
L 208.775053 123.732169 
L 208.469713 124.00748 
L 207.751317 124.128999 
L 207.165373 124.858068 
L 207.080897 125.593219 
L 206.89523 125.797177 
L 206.801798 126.540373 
L 206.18095 127.357481 
L 206.105004 128.143459 
L 205.734956 128.4 
L 205.55276 128.192157 
L 205.154558 126.209077 
L 205.094405 125.409728 
L 204.17154 124.228227 
L 204.175011 123.816427 
L 203.723061 123.092163 
L 202.820674 122.069329 
L 202.273911 121.724424 
L 201.89506 121.682439 
L 200.854409 120.617445 
L 200.157557 120.531137 
L 199.975361 120.323294 
L 199.549588 120.203492 
L 198.814833 120.19537 
L 198.165208 119.863308 
L 195.022953 119.763469 
L 194.192059 119.400826 
L 191.132606 119.461234 
L 190.760505 119.731129 
L 189.439884 119.842499 
L 189.139861 120.071295 
L 188.279634 120.084458 
L 187.793568 120.172786 
L 187.397176 120.448177 
L 186.816069 120.51285 
L 186.439719 120.811103 
L 185.79515 120.901327 
L 185.053964 121.540375 
L 184.563365 121.593884 
L 184.222819 121.877979 
L 182.816804 123.302998 
L 182.648061 123.152497 
L 180.906525 122.597599 
L 180.359314 122.047948 
L 180.068594 120.96312 
L 179.714535 120.740076 
L 179.198511 120.694953 
L 178.915401 120.393972 
L 178.882622 119.817999 
L 178.519887 119.196412 
L 178.231398 118.00841 
L 178.593105 116.236602 
L 179.896004 114.870576 
L 180.500722 114.779745 
L 181.056859 114.269245 
L 181.273794 112.87768 
L 180.478519 110.886156 
L 178.816739 109.166357 
L 178.277622 109.056937 
L 177.637478 108.398384 
L 176.329464 106.739036 
L 176.18825 105.991974 
L 176.003122 105.624157 
L 175.905135 104.915821 
L 175.779254 104.772221 
L 175.67958 104.473726 
L 175.683051 104.061926 
L 175.357101 103.196023 
L 175.336655 102.810496 
L 175.03774 102.322883 
L 174.966348 101.585332 
L 174.784152 101.377489 
L 174.127356 101.283012 
L 172.825974 99.856683 
L 172.616081 98.929669 
L 171.615268 97.899119 
L 171.087987 97.851772 
L 170.540883 97.290107 
L 170.426666 96.933581 
L 170.277556 94.730158 
L 170.119332 94.495981 
L 169.990389 93.651118 
L 169.21534 92.701325 
L 169.12001 91.991816 
L 169.125556 91.332945 
L 168.698706 90.669508 
L 167.808097 89.497135 
L 167.737846 88.837466 
L 167.158092 88.007668 
L 167.107718 87.348197 
L 166.500243 86.518107 
L 166.410976 85.800194 
L 166.176386 85.405113 
L 166.091422 84.682473 
L 165.852529 84.292119 
L 165.771867 83.564752 
L 165.532577 83.174835 
L 165.414588 82.429139 
L 163.740234 80.498773 
L 163.319326 80.278641 
L 162.809732 80.185656 
L 162.55794 79.809517 
L 162.490198 79.067958 
L 162.277979 78.74699 
L 162.245712 77.315665 
L 162.202082 74.220175 
L 161.946966 73.847644 
L 161.817695 73.028495 
L 161.380424 72.529672 
L 161.294798 71.526855 
L 161.24211 69.359149 
L 160.983443 68.929319 
L 160.895227 68.210251 
L 160.659239 67.857505 
L 160.593892 67.113315 
L 160.341147 66.778977 
L 160.332392 66.20349 
L 160.130452 65.831454 
L 158.031818 63.290431 
L 158.052323 62.690183 
L 158.746073 62.650067 
L 159.027507 62.347478 
L 159.710452 62.304255 
L 160.267237 61.718156 
L 160.820065 61.600275 
L 162.602638 60.126955 
L 163.316402 59.836967 
L 164.681574 58.357194 
L 165.273366 58.289968 
L 165.829123 57.825675 
L 166.936838 57.347943 
L 167.493007 56.834819 
L 168.044916 56.827084 
L 168.601544 56.258349 
L 169.565906 55.938092 
L 169.928309 55.72787 
L 170.516152 55.616321 
L 171.343754 54.72421 
L 171.926334 54.629855 
L 172.832465 53.827949 
L 173.111614 53.316521 
L 173.115085 52.904721 
L 173.229125 52.658225 
L 174.019293 51.669716 
L 174.130471 51.044822 
L 174.255667 48.56902 
L 174.580726 48.31621 
L 175.139579 48.366482 
L 175.686666 48.930898 
L 175.960197 49.996118 
L 176.331788 50.199901 
L 176.884366 50.11283 
L 177.44106 49.537431 
L 177.993461 49.471373 
L 178.766987 49.106504 
L 179.232878 49.014337 
L 179.693726 48.751237 
L 181.264047 48.748741 
L 181.731278 48.487131 
L 183.28474 48.258846 
L 183.638568 48.03884 
L 184.15908 48.008981 
L 184.455211 47.723158 
L 184.963888 47.679799 
L 185.800582 47.315596 
L 186.168791 47.278493 
L 186.910334 46.596131 
L 187.572572 46.505034 
L 187.878812 46.230743 
L 188.419712 46.224142 
L 187.982816 46.783837 
L 185.471209 49.781059 
L 183.843601 52.079562 
L 182.909734 52.36632 
L 180.689835 52.58759 
L 180.440866 53.550808 
L 178.029675 55.813437 
L 176.583552 56.916953 
L 175.77732 57.244938 
L 175.362965 58.439218 
L 174.262875 58.012328 
L 173.446188 58.327504 
L 172.205809 58.950969 
L 169.002276 59.516413 
L 168.166768 59.812674 
L 167.718827 60.548959 
L 166.60759 62.033063 
L 164.95684 63.21852 
L 164.067966 64.934063 
L 163.468507 69.633451 
L 164.371819 71.252223 
L 164.384145 72.943467 
L 164.604404 74.228917 
L 164.917264 75.136873 
L 165.249107 76.812278 
L 166.564367 78.910027 
L 166.9366 81.12751 
L 167.336273 82.273638 
L 169.841574 85.455596 
L 171.27631 87.584464 
L 172.138575 89.687747 
L 173.565432 91.702181 
L 174.533464 92.053292 
L 175.082967 93.596016 
L 175.342229 95.988641 
L 175.742383 97.022471 
L 176.398896 98.05898 
L 176.916125 99.290455 
L 178.247789 100.056384 
L 178.458026 101.049399 
L 178.757941 101.331921 
L 179.321161 101.356016 
L 181.070144 103.276023 
L 182.664593 106.013165 
L 182.72193 106.66669 
L 183.811409 107.905268 
L 184.448534 108.106745 
L 184.99698 108.508799 
L 186.981892 108.879558 
L 190.223203 108.634541 
L 191.326919 107.433316 
L 191.877254 107.437479 
L 192.208974 107.192254 
L 192.652219 107.074252 
L 194.037345 105.922873 
L 195.678202 103.958732 
L 195.724227 103.34995 
L 198.039212 100.594687 
L 198.149206 99.93691 
L 198.719512 98.954525 
L 198.744806 98.637206 
L 199.301132 97.923227 
L 199.999974 97.131351 
L 200.24774 96.144261 
L 202.093853 93.975981 
L 202.124505 93.358551 
L 202.772408 92.54173 
L 202.774143 92.33583 
L 203.064883 91.571387 
L 203.695513 87.183106 
L 203.83701 84.84421 
L 203.5655 83.746795 
L 203.519483 82.981369 
L 202.033504 81.468359 
L 199.50779 81.345329 
L 198.686929 81.025258 
L 197.084908 80.873083 
L 196.880372 79.936967 
L 197.846599 78.086997 
L 198.849575 74.767902 
L 198.940705 72.710923 
L 198.623208 72.070077 
L 198.439194 71.134101 
L 197.045824 69.379791 
L 197.988444 67.583707 
L 199.108232 66.488112 
L 199.663421 66.534349 
L 199.845983 66.699559 
L 200.351183 67.191993 
L 201.50588 67.252563 
L 202.318821 67.227505 
L 202.792974 66.740506 
L 203.784558 65.784473 
L 204.426458 65.68521 
L 204.603882 65.494787 
L 204.787299 65.557766 
L 204.975067 65.759488 
L 205.667993 65.794268 
L 206.08259 65.435706 
L 206.450453 65.439591 
L 206.670745 64.931889 
L 206.683007 63.700726 
L 206.908556 62.958597 
L 207.271089 62.540642 
L 207.362268 61.017525 
L 207.102329 60.528419 
L 207.473663 60.120504 
L 207.974302 59.860096 
L 208.710029 59.867866 
L 209.258216 60.113432 
L 209.505921 60.249312 
L 210.103527 60.360163 
L 211.531807 61.762867 
L 212.773257 61.689891 
L 213.133888 61.415569 
L 214.477399 61.296083 
L 214.810758 61.052727 
L 215.361397 61.057237 
L 217.374648 58.778244 
L 217.613552 57.850982 
L 217.86877 57.726365 
L 218.483302 57.832927 
L 218.711048 58.09273 
L 218.869447 59.779797 
L 219.040079 60.10234 
L 219.123322 60.822593 
L 219.690924 61.627032 
L 219.670546 62.905958 
L 219.344907 63.612812 
L 217.829429 65.743996 
L 216.613034 66.341114 
L 216.316857 67.042646 
L 213.089902 70.934534 
L 211.766539 71.665045 
L 210.644451 75.114987 
L 209.893676 77.91747 
L 210.21644 81.467054 
L 210.854738 82.503383 
L 212.897033 85.353647 
L 213.974037 87.335439 
L 217.621138 89.805145 
L 221.182807 91.039829 
L 221.749784 91.338463 
L 223.556546 91.488148 
L 223.819013 91.712582 
L 224.971022 91.743542 
L 225.198734 91.647567 
L 225.568482 91.404331 
L 226.20123 91.387917 
L 227.505554 91.32293 
L 227.843193 91.032212 
L 228.410823 91.074399 
L 229.075255 91.758209 
L 229.750979 92.559176 
L 229.84672 93.391453 
L 230.393495 93.992829 
L 230.943631 94.050638 
L 231.197749 94.179473 
L 231.451092 94.380833 
L 233.197606 94.446126 
L 235.505593 94.368362 
L 235.885552 94.101479 
L 237.150615 94.191619 
L 237.51875 94.489235 
L 240.166968 94.421524 
L 240.538429 94.152341 
L 241.208757 94.016213 
L 241.555667 93.788316 
L 242.169665 93.6881 
L 242.990676 93.057394 
L 243.481613 92.960977 
L 244.021586 92.404498 
L 244.428455 91.933179 
L 244.458678 90.081522 
L 244.750076 89.386927 
L 247.199706 86.858938 
L 247.612506 86.764541 
L 248.50368 86.74176 
L 249.24788 86.035746 
L 249.808454 86.022374 
L 251.337015 84.565654 
L 251.919387 84.467777 
L 252.294472 84.202728 
L 252.899286 84.130452 
L 253.140904 83.865032 
L 253.587011 82.635873 
L 254.859699 80.340669 
L 255.029013 78.095396 
L 255.219467 77.273305 
L 256.844804 75.671847 
L 259.087891 74.375778 
L 259.923 72.742061 
L 261.164965 71.613079 
L 261.843938 71.348228 
L 262.286888 69.03779 
L 262.875787 67.900756 
L 263.300779 67.346172 
L 263.517223 66.553684 
L 263.676718 64.167075 
L 265.265591 62.703434 
L 265.931338 62.423541 
L 268.721903 62.310791 
L 269.415223 62.001207 
L 269.777158 61.894389 
L 270.005004 61.666554 
L 274.334913 61.681738 
L 275.443311 61.80283 
L 275.804825 62.068683 
L 276.41735 62.160793 
L 276.656923 62.497388 
L 276.66124 63.684834 
L 276.404085 64.223 
L 275.987104 64.836352 
L 275.932456 65.45353 
L 275.399515 66.065638 
L 275.030784 66.163952 
L 274.559201 66.249627 
L 274.30381 66.621821 
L 274.221614 67.359575 
L 274.035947 67.563533 
L 273.148902 67.798857 
L 272.963235 68.002814 
L 272.230878 68.068212 
L 271.489452 68.737801 
L 271.121599 68.733927 
L 270.75185 68.953836 
L 270.380515 69.361751 
L 269.742484 69.465428 
L 269.006768 69.457669 
L 268.491812 69.825269 
L 267.388222 69.813613 
L 267.388222 69.813613 
" clip-path="url(#p5b65b9c583)" style="fill: none; stroke: #808080; stroke-width: 1.5; stroke-linecap: square"/>
   </g>
   <g id="text_2">
    <!-- 384 -->
    <g transform="translate(203.98875 21.6) scale(0.14 -0.14)">
     <defs>
      <path id="DejaVuSans-33" d="M 2597 2516 
Q 3050 2419 3304 2112 
Q 3559 1806 3559 1356 
Q 3559 666 3084 287 
Q 2609 -91 1734 -91 
Q 1441 -91 1130 -33 
Q 819 25 488 141 
L 488 750 
Q 750 597 1062 519 
Q 1375 441 1716 441 
Q 2309 441 2620 675 
Q 2931 909 2931 1356 
Q 2931 1769 2642 2001 
Q 2353 2234 1838 2234 
L 1294 2234 
L 1294 2753 
L 1863 2753 
Q 2328 2753 2575 2939 
Q 2822 3125 2822 3475 
Q 2822 3834 2567 4026 
Q 2313 4219 1838 4219 
Q 1578 4219 1281 4162 
Q 984 4106 628 3988 
L 628 4550 
Q 988 4650 1302 4700 
Q 1616 4750 1894 4750 
Q 2613 4750 3031 4423 
Q 3450 4097 3450 3541 
Q 3450 3153 3228 2886 
Q 3006 2619 2597 2516 
z
" transform="scale(0.015625)"/>
      <path id="DejaVuSans-38" d="M 2034 2216 
Q 1584 2216 1326 1975 
Q 1069 1734 1069 1313 
Q 1069 891 1326 650 
Q 1584 409 2034 409 
Q 2484 409 2743 651 
Q 3003 894 3003 1313 
Q 3003 1734 2745 1975 
Q 2488 2216 2034 2216 
z
M 1403 2484 
Q 997 2584 770 2862 
Q 544 3141 544 3541 
Q 544 4100 942 4425 
Q 1341 4750 2034 4750 
Q 2731 4750 3128 4425 
Q 3525 4100 3525 3541 
Q 3525 3141 3298 2862 
Q 3072 2584 2669 2484 
Q 3125 2378 3379 2068 
Q 3634 1759 3634 1313 
Q 3634 634 3220 271 
Q 2806 -91 2034 -91 
Q 1263 -91 848 271 
Q 434 634 434 1313 
Q 434 1759 690 2068 
Q 947 2378 1403 2484 
z
M 1172 3481 
Q 1172 3119 1398 2916 
Q 1625 2713 2034 2713 
Q 2441 2713 2670 2916 
Q 2900 3119 2900 3481 
Q 2900 3844 2670 4047 
Q 2441 4250 2034 4250 
Q 1625 4250 1398 4047 
Q 1172 3844 1172 3481 
z
" transform="scale(0.015625)"/>
     </defs>
     <use xlink:href="#DejaVuSans-33"/>
     <use xlink:href="#DejaVuSans-38" x="63.623047"/>
     <use xlink:href="#DejaVuSans-34" x="127.246094"/>
    </g>
   </g>
  </g>
  <g id="axes_3">
   <g id="patch_4">
    <path d="M 293.4 133.2 
L 423.9 133.2 
L 423.9 27.6 
L 293.4 27.6 
z
" style="fill: #ffffff"/>
   </g>
   <g id="matplotlib.axis_5"/>
   <g id="matplotlib.axis_6"/>
   <g id="line2d_3">
    <path d="M 399.854424 83.412318 
L 399.756746 83.645455 
L 399.778156 83.950286 
L 400.947538 88.187908 
L 401.882486 88.790785 
L 402.05655 89.778746 
L 401.881351 90.291528 
L 402.186934 91.171455 
L 403.565775 92.060569 
L 403.812624 92.913291 
L 404.302569 93.185824 
L 405.07491 92.966562 
L 406.909319 94.119254 
L 407.160354 94.993297 
L 406.910929 95.572839 
L 406.218941 95.878912 
L 405.980644 96.489795 
L 406.436479 98.160699 
L 407.350644 98.819579 
L 407.659929 99.683483 
L 409.000968 100.595352 
L 409.54878 102.267551 
L 410.462077 102.971536 
L 410.971806 104.608343 
L 411.450821 105.055814 
L 411.906135 106.672876 
L 411.594976 107.691039 
L 411.501993 108.122711 
L 412.069934 109.845395 
L 412.455478 110.174808 
L 412.775692 111.020737 
L 413.659584 111.656903 
L 413.851284 112.352893 
L 414.211311 112.647094 
L 414.585218 112.641486 
L 416.318243 111.965685 
L 416.972067 112.135423 
L 417.968182 112.818764 
L 417.870513 113.051881 
L 417.588539 113.357874 
L 415.822704 114.111986 
L 415.423094 114.135132 
L 414.963252 113.966071 
L 413.59397 114.578967 
L 412.82088 115.788682 
L 411.566511 116.187309 
L 411.075154 115.990274 
L 410.340426 116.14791 
L 409.2229 115.478308 
L 408.647042 115.122459 
L 408.012722 115.239942 
L 406.362332 115.980921 
L 406.089662 116.472737 
L 405.619259 117.767678 
L 405.783438 118.393856 
L 405.668598 118.616364 
L 405.115856 118.861736 
L 404.89898 119.314666 
L 404.410366 119.603742 
L 402.76438 120.277623 
L 402.144491 120.989494 
L 401.00551 121.400941 
L 400.208492 120.996234 
L 399.908849 120.557883 
L 399.500436 119.179031 
L 398.344109 118.365702 
L 397.915617 118.251987 
L 397.239992 118.42264 
L 396.826195 118.212245 
L 396.140939 118.463677 
L 395.417108 118.713042 
L 395.128821 118.596497 
L 393.974816 117.898916 
L 393.516523 118.031445 
L 393.126098 118.098145 
L 392.714078 117.87639 
L 388.906262 119.186629 
L 388.61834 119.008709 
L 386.268126 119.769181 
L 385.497623 119.297944 
L 384.698508 119.557932 
L 383.395218 120.07319 
L 382.932412 119.930451 
L 382.356554 119.574603 
L 381.812782 119.718943 
L 380.808204 120.178267 
L 380.603208 120.644408 
L 379.469105 121.135454 
L 378.600242 121.47896 
L 378.028583 121.311441 
L 374.802198 119.550992 
L 373.532371 119.9864 
L 373.228095 119.847493 
L 372.524781 119.507472 
L 372.10843 119.636111 
L 371.008501 119.95435 
L 370.144502 119.46804 
L 369.129075 119.53219 
L 369.033101 119.472882 
L 368.802866 119.493673 
L 366.587767 120.348917 
L 365.97521 120.691186 
L 365.690112 121.10321 
L 365.402184 120.925286 
L 364.473533 121.184784 
L 363.226324 121.710257 
L 362.828511 122.390512 
L 362.653887 123.043057 
L 362.795311 123.570661 
L 363.023649 123.890817 
L 363.306515 124.080803 
L 363.539437 125.052098 
L 363.392936 125.401767 
L 363.086499 125.652618 
L 362.650013 125.840974 
L 361.52866 128.228246 
L 361.094228 128.4 
L 360.586588 128.298626 
L 360.01073 127.942778 
L 359.011203 128.064347 
L 358.179476 127.420647 
L 357.99091 126.717176 
L 357.053403 126.115311 
L 356.465135 126.310654 
L 356.320335 126.367901 
L 355.89529 124.91917 
L 355.612441 123.863964 
L 355.075714 123.414762 
L 354.091397 122.704494 
L 353.82359 121.901794 
L 353.497847 121.700503 
L 353.261108 121.112014 
L 353.188836 120.77388 
L 353.359848 120.292618 
L 353.323277 119.838898 
L 352.945795 118.490292 
L 352.495351 117.997577 
L 352.674403 117.521274 
L 352.500193 116.533209 
L 352.682105 116.058674 
L 352.502477 115.271801 
L 352.681134 114.648528 
L 352.31284 113.059287 
L 351.427112 112.289453 
L 350.877969 110.716346 
L 351.206274 109.451874 
L 350.902171 107.796587 
L 350.031204 106.991523 
L 349.262514 107.111222 
L 348.349194 106.691354 
L 347.965395 105.870579 
L 347.53731 105.450432 
L 346.866894 105.608684 
L 345.960683 105.215385 
L 345.181289 105.295195 
L 343.915071 104.690531 
L 343.451298 102.575108 
L 342.973668 101.891127 
L 342.671415 101.170644 
L 341.730272 100.383554 
L 341.197783 100.500962 
L 340.136655 100.871586 
L 339.749025 100.637696 
L 339.491371 99.842048 
L 338.848258 97.863403 
L 338.656291 97.744778 
L 338.837914 96.841279 
L 339.415602 96.738029 
L 339.863966 97.598757 
L 341.839711 96.562852 
L 341.605062 94.182418 
L 341.031985 93.29985 
L 340.21039 93.530569 
L 339.424772 93.363006 
L 338.17956 94.054212 
L 337.597898 94.575197 
L 336.541869 94.220513 
L 335.624767 94.371254 
L 334.751771 94.23062 
L 332.757675 95.37273 
L 332.574371 96.612215 
L 333.040005 97.231109 
L 333.862091 97.053227 
L 337.216795 99.257767 
L 336.555718 100.376464 
L 336.018133 100.543991 
L 335.515356 100.302039 
L 334.71441 100.483469 
L 334.261004 100.308608 
L 332.884673 100.911023 
L 332.290717 101.942648 
L 331.894375 101.735098 
L 331.078374 101.923689 
L 328.265603 100.102748 
L 327.937191 99.252407 
L 327.446159 99.078625 
L 326.794541 99.435913 
L 326.468981 100.212963 
L 325.920193 100.223679 
L 325.176747 99.114336 
L 323.86595 97.475824 
L 322.183289 96.749902 
L 320.981211 96.735225 
L 319.384004 96.184671 
L 317.843642 94.649408 
L 318.423904 93.826791 
L 318.961181 93.986335 
L 319.468348 94.758345 
L 320.341527 95.028404 
L 320.980762 94.425756 
L 320.881968 92.122061 
L 319.944252 89.138648 
L 319.546695 88.645636 
L 319.230521 87.958379 
L 318.672012 87.849512 
L 318.022077 88.412277 
L 317.094512 88.856109 
L 315.779604 87.953389 
L 315.952699 87.277756 
L 315.810769 86.426192 
L 316.223793 85.285635 
L 315.430858 82.653503 
L 315.012238 82.43997 
L 312.871695 83.257955 
L 312.435058 81.692413 
L 312.24671 81.425096 
L 310.919324 80.536446 
L 310.747936 79.624066 
L 310.90592 78.998198 
L 310.400486 77.346158 
L 309.62635 76.848966 
L 309.390406 76.83535 
L 308.239124 77.276158 
L 307.916887 77.66398 
L 307.506889 78.524362 
L 306.93278 78.772506 
L 306.462364 78.589908 
L 305.292828 77.95926 
L 304.676464 78.210105 
L 304.488419 78.583024 
L 304.305541 78.815405 
L 303.572584 79.12108 
L 302.830386 79.302433 
L 302.386384 79.119141 
L 301.845008 79.314153 
L 300.976631 79.573265 
L 300.688354 79.457219 
L 299.514673 78.628362 
L 299.375639 77.710957 
L 299.673161 77.258446 
L 300.307743 76.982318 
L 302.519776 76.017744 
L 302.849188 75.48762 
L 303.507902 75.112088 
L 303.828856 74.612247 
L 306.683734 73.343228 
L 306.988528 72.871264 
L 307.633545 72.522639 
L 309.576137 67.947266 
L 309.688101 68.016453 
L 310.159982 68.187885 
L 310.776311 67.966489 
L 310.792024 68.025107 
L 311.120675 68.9001 
L 311.970842 69.446453 
L 312.167551 70.146705 
L 312.412172 70.439003 
L 313.162365 70.920406 
L 313.368478 71.616939 
L 313.694541 71.97066 
L 314.819559 72.682114 
L 315.19052 73.634316 
L 315.569537 73.883216 
L 315.98213 74.862711 
L 316.757271 75.373564 
L 316.980801 76.063212 
L 317.31284 76.42424 
L 317.693513 77.217112 
L 318.072119 78.371878 
L 318.455717 78.657413 
L 318.833443 79.964721 
L 319.513769 80.99782 
L 319.737066 81.618392 
L 320.099027 81.875325 
L 319.79354 82.731325 
L 319.908764 83.976422 
L 320.44196 85.010868 
L 321.128676 85.517399 
L 321.349694 86.231912 
L 323.368063 87.558264 
L 324.600541 87.955309 
L 325.24799 87.980734 
L 325.996514 88.38328 
L 326.703159 88.140726 
L 327.728006 88.67792 
L 328.470257 88.493474 
L 328.931677 88.689844 
L 329.716414 88.524308 
L 330.12418 88.70459 
L 330.825235 88.492195 
L 331.955551 89.16875 
L 332.147508 89.28737 
L 332.679733 89.170601 
L 334.482195 88.522586 
L 334.918341 88.840703 
L 335.113617 89.627009 
L 334.874463 89.772698 
L 334.377891 90.052774 
L 334.148095 90.518714 
L 333.115332 90.958109 
L 332.587069 91.421502 
L 332.61778 92.259193 
L 333.100745 93.413529 
L 334.250993 92.955463 
L 334.574002 92.490317 
L 337.706503 90.824879 
L 338.022198 89.846089 
L 337.642922 88.444273 
L 336.940466 87.813821 
L 336.730103 87.344117 
L 337.417962 86.8074 
L 339.063323 86.133601 
L 339.259599 85.667943 
L 339.76129 85.391014 
L 340.836819 85.455721 
L 341.974029 84.997544 
L 342.328933 84.376456 
L 342.907622 84.147108 
L 343.858476 81.952541 
L 344.275017 81.166709 
L 344.856281 80.927032 
L 346.075942 78.112688 
L 347.167208 75.698788 
L 347.4671 75.838142 
L 347.689881 75.883202 
L 348.267036 75.659115 
L 348.927533 76.001388 
L 350.079243 76.713082 
L 350.409432 76.749845 
L 351.573218 76.311743 
L 351.869226 75.907712 
L 352.283894 75.064728 
L 353.015031 74.625707 
L 353.318181 74.160389 
L 354.456067 73.702202 
L 354.706347 73.440943 
L 355.784246 71.256298 
L 357.829927 70.304676 
L 358.882601 68.522629 
L 359.317545 68.264552 
L 360.194422 66.534197 
L 360.813117 66.182844 
L 361.08696 65.70536 
L 363.153916 64.823743 
L 363.636856 63.801553 
L 363.88574 62.923612 
L 363.718862 62.200693 
L 364.411273 60.523862 
L 364.522699 60.784874 
L 364.753802 61.386815 
L 365.192986 61.780472 
L 365.381551 62.483943 
L 365.796013 62.359863 
L 366.085621 62.245366 
L 367.038238 60.041538 
L 367.4174 59.349078 
L 367.803789 59.575428 
L 368.387427 60.675307 
L 369.124818 61.036289 
L 369.820671 60.828488 
L 370.206819 61.060369 
L 370.984855 60.798377 
L 371.747437 60.389213 
L 372.413679 59.253621 
L 372.968839 59.082031 
L 373.541854 59.289534 
L 374.870149 58.730411 
L 375.246173 58.260635 
L 375.701817 58.433476 
L 376.868262 57.982426 
L 377.166226 57.66013 
L 378.147217 55.517055 
L 378.842559 55.336793 
L 379.257059 55.564586 
L 380.766455 56.415682 
L 381.351899 56.209811 
L 382.144913 55.822373 
L 382.321492 55.52517 
L 383.110098 53.37275 
L 382.970445 52.523434 
L 383.296375 52.011524 
L 384.662879 51.353588 
L 385.292068 49.887785 
L 387.289857 44.885916 
L 387.146427 44.008979 
L 387.551058 42.850363 
L 387.532203 42.780022 
L 387.408774 40.477186 
L 388.489902 37.322846 
L 388.634578 36.098617 
L 388.284666 33.547181 
L 388.375235 32.4 
L 389.783216 33.357038 
L 389.742577 34.471125 
L 390.312875 35.784465 
L 391.068806 35.710475 
L 391.475418 36.46068 
L 390.544808 38.968963 
L 390.605132 40.112145 
L 390.331649 42.217706 
L 390.458387 43.185135 
L 389.52446 45.697417 
L 389.681583 46.674909 
L 389.441966 49.908177 
L 389.034713 51.395356 
L 389.17613 51.92296 
L 388.763635 53.224303 
L 388.031123 54.97267 
L 388.552076 56.871184 
L 388.84 57.050986 
L 389.21525 57.020474 
L 389.649667 56.848738 
L 390.088768 55.872707 
L 390.739236 54.954041 
L 392.036724 54.435197 
L 392.773187 54.306923 
L 393.06111 54.484844 
L 392.309504 54.940442 
L 392.014903 55.633822 
L 391.422175 56.147987 
L 390.553315 56.491477 
L 389.537717 58.64077 
L 388.283906 60.180566 
L 388.537927 61.581987 
L 388.516554 62.530899 
L 389.080808 65.11237 
L 389.041468 69.480568 
L 389.742952 70.175745 
L 391.473477 69.845841 
L 392.434498 69.160431 
L 392.234559 67.847838 
L 392.201864 66.810064 
L 392.736605 66.406832 
L 394.023484 69.124768 
L 394.498423 70.2735 
L 395.250768 71.361607 
L 396.022584 71.476861 
L 396.433084 71.362237 
L 396.893165 71.706033 
L 397.245875 72.594475 
L 397.609031 72.881231 
L 397.772768 73.699776 
L 396.986692 74.276132 
L 396.693681 74.975492 
L 396.682005 75.314533 
L 397.209624 77.378044 
L 397.401122 77.688673 
L 397.86566 77.607269 
L 398.802969 77.33668 
L 398.998528 78.031775 
L 398.921345 78.375348 
L 398.813583 78.846796 
L 398.945937 79.76946 
L 398.639988 80.240733 
L 398.103817 80.522773 
L 398.121613 80.780298 
L 398.608305 82.307053 
L 399.92767 83.237492 
L 399.903255 83.295767 
L 399.903255 83.295767 
" clip-path="url(#p7ba70ba5f7)" style="fill: none; stroke: #808080; stroke-width: 1.5; stroke-linecap: square"/>
   </g>
   <g id="text_3">
    <!-- 547 -->
    <g transform="translate(345.28875 21.6) scale(0.14 -0.14)">
     <defs>
      <path id="DejaVuSans-37" d="M 525 4666 
L 3525 4666 
L 3525 4397 
L 1831 0 
L 1172 0 
L 2766 4134 
L 525 4134 
L 525 4666 
z
" transform="scale(0.015625)"/>
     </defs>
     <use xlink:href="#DejaVuSans-35"/>
     <use xlink:href="#DejaVuSans-34" x="63.623047"/>
     <use xlink:href="#DejaVuSans-37" x="127.246094"/>
    </g>
   </g>
  </g>
  <g id="axes_4">
   <g id="patch_5">
    <path d="M 434.7 133.2 
L 565.2 133.2 
L 565.2 27.6 
L 434.7 27.6 
z
" style="fill: #ffffff"/>
   </g>
   <g id="matplotlib.axis_7"/>
   <g id="matplotlib.axis_8"/>
   <g id="line2d_4">
    <path d="M 550.634167 83.01086 
L 551.131797 81.381848 
L 552.478234 81.33003 
L 553.052326 82.82784 
L 554.53787 87.736546 
L 555.275941 88.792226 
L 556.744781 88.735697 
L 557.228654 89.142983 
L 557.970137 91.211828 
L 558.45975 91.192984 
L 558.705719 91.528649 
L 559.200907 93.164884 
L 559.268182 93.989941 
L 558.784162 95.663861 
L 558.540361 95.972032 
L 557.866227 93.79624 
L 557.393318 93.757316 
L 556.40883 93.850418 
L 555.708406 96.091109 
L 554.256189 101.08091 
L 553.890215 101.462004 
L 551.906959 101.580298 
L 550.332614 106.6455 
L 548.989639 106.697185 
L 548.784782 106.149942 
L 548.136253 104.206739 
L 546.685158 104.20206 
L 545.876755 101.770408 
L 537.063804 102.109581 
L 536.877038 102.510416 
L 536.265485 104.604749 
L 535.646836 104.687403 
L 532.531588 104.889708 
L 532.323442 105.496019 
L 531.681242 107.363311 
L 530.310081 107.435726 
L 530.116508 108.023543 
L 529.480365 109.971303 
L 528.82846 109.996392 
L 528.223217 112.018651 
L 527.980176 112.552328 
L 527.368159 112.575882 
L 527.125631 113.261934 
L 526.570217 115.123636 
L 525.103245 115.186338 
L 524.372002 117.680017 
L 523.855569 117.757646 
L 522.203103 117.821242 
L 521.963199 118.353029 
L 521.418676 120.236189 
L 521.225675 120.382148 
L 519.108002 120.570054 
L 518.340704 123.013131 
L 516.114325 123.265721 
L 515.387896 125.653398 
L 514.656212 125.759888 
L 513.860524 128.230422 
L 509.585425 128.4 
L 508.668601 128.234643 
L 508.036634 126.189849 
L 507.722287 125.949638 
L 504.663692 126.066127 
L 504.159407 125.840837 
L 502.672272 121.103531 
L 501.189225 121.028412 
L 500.396761 118.660475 
L 498.215567 118.643906 
L 497.835576 117.431698 
L 497.396229 116.284012 
L 496.934327 116.27044 
L 494.533687 116.416064 
L 494.410196 116.64864 
L 493.860174 118.550745 
L 493.443623 118.928071 
L 478.823858 119.502901 
L 478.093571 122.012161 
L 473.758129 122.208971 
L 471.558153 122.295015 
L 471.297999 122.557958 
L 470.567513 124.807385 
L 470.318055 124.864654 
L 466.884244 124.935016 
L 466.039532 122.506027 
L 465.420737 122.529842 
L 464.821407 120.613727 
L 463.83271 117.544379 
L 463.220694 117.567933 
L 463.142776 116.773663 
L 463.031725 104.720589 
L 461.546715 99.969331 
L 460.112493 100.024528 
L 459.549508 98.204166 
L 459.25913 97.534081 
L 457.852638 97.482253 
L 457.845185 95.269213 
L 459.689125 94.994243 
L 464.585214 94.805814 
L 465.478616 94.188139 
L 465.962633 92.514295 
L 466.041293 90.855975 
L 466.038506 90.028436 
L 465.639488 88.3885 
L 465.391895 87.570383 
L 465.145857 87.214369 
L 464.656244 87.233212 
L 464.41004 86.820951 
L 463.914852 85.184716 
L 463.330093 84.76096 
L 460.792128 84.814897 
L 460.166208 82.777776 
L 460.014853 82.396386 
L 459.534341 82.383753 
L 458.568148 82.376365 
L 458.366095 81.819377 
L 457.870907 80.183142 
L 457.697375 80.012011 
L 457.151162 79.952182 
L 447.774222 80.285927 
L 447.275883 80.102708 
L 445.725928 75.346184 
L 444.354572 75.367084 
L 444.034344 74.381516 
L 443.580509 72.97391 
L 443.152192 72.921074 
L 440.631818 72.941448 
L 440.904749 71.971683 
L 441.405286 70.473424 
L 442.93582 70.406112 
L 445.847852 70.394324 
L 446.601514 72.774875 
L 447.244154 72.763592 
L 447.335673 72.675981 
L 448.078931 70.248526 
L 448.617667 70.187442 
L 449.526835 70.182741 
L 449.913966 71.355459 
L 450.289324 72.579095 
L 451.12794 72.614122 
L 454.039794 72.594483 
L 454.203448 73.054685 
L 454.885197 74.957858 
L 455.252014 74.978693 
L 458.431767 74.943005 
L 458.663485 75.317374 
L 460.852426 82.333026 
L 461.521909 82.29956 
L 462.248129 79.836503 
L 462.251555 73.789908 
L 462.247374 72.548599 
L 462.419491 72.179558 
L 463.643502 72.132451 
L 463.814438 72.378514 
L 464.556504 74.620603 
L 465.168521 74.597049 
L 465.290346 74.420458 
L 466.06801 72.042969 
L 467.413283 71.987369 
L 467.474909 73.252457 
L 467.503202 81.653078 
L 468.431587 85.139928 
L 468.926774 86.776163 
L 469.417374 87.049976 
L 470.396578 87.012291 
L 470.69446 86.359917 
L 471.178499 84.685996 
L 471.777794 84.435844 
L 473.246634 84.379315 
L 473.647763 83.803745 
L 474.131802 82.129824 
L 474.683084 81.800743 
L 476.151902 81.744214 
L 476.505748 81.57724 
L 477.293389 79.176994 
L 477.905383 79.153441 
L 478.359622 77.718417 
L 478.662146 76.672151 
L 478.967915 76.589259 
L 479.440544 76.476853 
L 480.898779 71.423674 
L 480.931455 68.943823 
L 481.543472 68.920269 
L 481.802253 68.36457 
L 483.928715 61.258603 
L 484.54071 61.23505 
L 484.843941 60.398785 
L 485.421182 58.677875 
L 486.033199 58.654321 
L 486.275831 57.999357 
L 486.881503 56.09864 
L 487.493519 56.07483 
L 487.615406 55.916743 
L 488.34186 53.523224 
L 488.953862 53.495338 
L 489.098414 53.336378 
L 490.594298 48.40245 
L 495.015564 48.236363 
L 495.850213 50.706638 
L 496.448298 50.68362 
L 496.748552 49.858053 
L 499.510198 40.472623 
L 500.122215 40.449069 
L 500.244205 40.321639 
L 500.994895 37.892194 
L 502.444531 37.772283 
L 503.220893 35.330689 
L 504.647485 35.228332 
L 506.135742 35.10956 
L 506.259907 34.831988 
L 506.966026 32.666389 
L 507.350764 32.601005 
L 512.893896 32.464694 
L 513.687121 34.859902 
L 514.565374 34.846635 
L 516.587835 34.834883 
L 516.712841 35.103987 
L 517.279637 36.976838 
L 517.857053 37.243241 
L 520.611106 37.13725 
L 521.185015 37.406844 
L 521.92695 39.609898 
L 522.477749 39.5887 
L 522.662081 39.792586 
L 523.404288 42.076331 
L 524.073182 42.057721 
L 524.568038 43.595502 
L 524.816883 44.409292 
L 525.021889 44.537366 
L 526.245506 44.491701 
L 526.420068 44.725344 
L 527.162129 46.978287 
L 527.808469 46.953412 
L 528.138451 47.908462 
L 529.39803 51.938815 
L 530.132757 52.003307 
L 530.967159 54.401715 
L 531.609867 54.402159 
L 532.459648 56.867565 
L 533.071625 56.844013 
L 533.442608 57.950186 
L 533.936946 59.334 
L 534.548962 59.310446 
L 534.795877 59.92687 
L 535.414273 61.799201 
L 536.026294 61.776879 
L 536.190297 62.045582 
L 537.712348 66.716349 
L 538.434432 66.730779 
L 540.586296 66.706132 
L 540.798917 67.288122 
L 541.348074 69.156343 
L 541.372271 72.839962 
L 541.449984 74.423207 
L 543.713872 81.667333 
L 544.397808 81.710751 
L 544.954775 83.515127 
L 545.15408 84.081683 
L 545.383239 84.126375 
L 546.663119 84.170137 
L 547.390138 86.572428 
L 548.124559 86.544163 
L 548.850753 84.073703 
L 549.316179 83.975013 
L 550.295406 83.937327 
L 550.573684 83.220099 
L 550.573684 83.220099 
" clip-path="url(#ped8f598ada)" style="fill: none; stroke: #808080; stroke-width: 1.5; stroke-linecap: square"/>
   </g>
   <g id="text_4">
    <!-- 668 -->
    <g transform="translate(486.58875 21.6) scale(0.14 -0.14)">
     <defs>
      <path id="DejaVuSans-36" d="M 2113 2584 
Q 1688 2584 1439 2293 
Q 1191 2003 1191 1497 
Q 1191 994 1439 701 
Q 1688 409 2113 409 
Q 2538 409 2786 701 
Q 3034 994 3034 1497 
Q 3034 2003 2786 2293 
Q 2538 2584 2113 2584 
z
M 3366 4563 
L 3366 3988 
Q 3128 4100 2886 4159 
Q 2644 4219 2406 4219 
Q 1781 4219 1451 3797 
Q 1122 3375 1075 2522 
Q 1259 2794 1537 2939 
Q 1816 3084 2150 3084 
Q 2853 3084 3261 2657 
Q 3669 2231 3669 1497 
Q 3669 778 3244 343 
Q 2819 -91 2113 -91 
Q 1303 -91 875 529 
Q 447 1150 447 2328 
Q 447 3434 972 4092 
Q 1497 4750 2381 4750 
Q 2619 4750 2861 4703 
Q 3103 4656 3366 4563 
z
" transform="scale(0.015625)"/>
     </defs>
     <use xlink:href="#DejaVuSans-36"/>
     <use xlink:href="#DejaVuSans-36" x="63.623047"/>
     <use xlink:href="#DejaVuSans-38" x="127.246094"/>
    </g>
   </g>
  </g>
 </g>
 <defs>
  <clipPath id="p2dbc2778f6">
   <rect x="10.8" y="27.6" width="130.5" height="105.6"/>
  </clipPath>
  <clipPath id="p5b65b9c583">
   <rect x="152.1" y="27.6" width="130.5" height="105.6"/>
  </clipPath>
  <clipPath id="p7ba70ba5f7">
   <rect x="293.4" y="27.6" width="130.5" height="105.6"/>
  </clipPath>
  <clipPath id="ped8f598ada">
   <rect x="434.7" y="27.6" width="130.5" height="105.6"/>
  </clipPath>
 </defs>
</svg>
