<?xml version="1.0" encoding="utf-8" standalone="no"?>
<!DOCTYPE svg PUBLIC "-//W3C//DTD SVG 1.1//EN"
  "http://www.w3.org/Graphics/SVG/1.1/DTD/svg11.dtd">
<svg xmlns:xlink="http://www.w3.org/1999/xlink" width="432pt" height="144pt" viewBox="0 0 432 144" xmlns="http://www.w3.org/2000/svg" version="1.1">
 <metadata>
  <rdf:RDF xmlns:dc="http://purl.org/dc/elements/1.1/" xmlns:cc="http://creativecommons.org/ns#" xmlns:rdf="http://www.w3.org/1999/02/22-rdf-syntax-ns#">
   <cc:Work>
    <dc:type rdf:resource="http://purl.org/dc/dcmitype/StillImage"/>
    <dc:date>2023-12-17T21:46:23.641253</dc:date>
    <dc:format>image/svg+xml</dc:format>
    <dc:creator>
     <cc:Agent>
      <dc:title>Matplotlib v3.6.2, https://matplotlib.org/</dc:title>
     </cc:Agent>
    </dc:creator>
   </cc:Work>
  </rdf:RDF>
 </metadata>
 <defs>
  <style type="text/css">*{stroke-linejoin: round; stroke-linecap: butt}</style>
 </defs>
 <g id="figure_1">
  <g id="patch_1">
   <path d="M 0 144 
L 432 144 
L 432 0 
L 0 0 
z
" style="fill: #ffffff"/>
  </g>
  <g id="axes_1">
   <g id="patch_2">
    <path d="M 10.8 133.2 
L 140.4 133.2 
L 140.4 27.6 
L 10.8 27.6 
z
" style="fill: #ffffff"/>
   </g>
   <g id="matplotlib.axis_1"/>
   <g id="matplotlib.axis_2"/>
   <g id="line2d_1">
    <path d="M 48.217482 115.444424 
L 44.304993 111.668592 
L 42.863887 108.705513 
L 44.225883 105.508047 
L 43.369394 103.516257 
L 42.834512 98.526901 
L 41.624449 90.665418 
L 43.233558 83.020911 
L 43.143847 70.503917 
L 46.362632 68.985166 
L 46.985046 65.723003 
L 48.435693 63.086108 
L 50.822878 59.523102 
L 54.233642 55.653897 
L 60.460901 53.382011 
L 70.374324 51.149076 
L 74.154817 49.687741 
L 76.607864 50.38455 
L 80.923096 54.750411 
L 85.19346 55.198846 
L 92.627838 55.249208 
L 97.98695 56.083115 
L 101.349463 55.472783 
L 107.122387 52.075205 
L 108.25934 48.432935 
L 108.783044 44.19749 
L 105.764599 39.086947 
L 102.743084 33.956997 
L 101.877989 32.4 
L 105.04471 34.534845 
L 107.105341 35.685137 
L 111.70192 37.078231 
L 116.12171 35.536464 
L 119.460852 34.219396 
L 122.213562 35.203743 
L 124.727935 37.755766 
L 127.464861 40.457269 
L 131.231398 42.122345 
L 133.362693 45.885745 
L 132.89661 49.926594 
L 49.362918 52.806876 
L 45.671882 58.327906 
L 45.03895 62.222195 
L 42.435296 64.905608 
L 37.992009 65.040785 
L 34.91778 63.840538 
L 27.581435 58.050922 
L 24.399464 55.050634 
L 21.466344 51.388114 
L 16.690909 48.864269 
L 18.018515 48.174789 
L 21.582781 48.840206 
L 23.892303 48.559505 
L 24.590956 45.080792 
L 27.05179 45.756889 
L 28.032342 43.711394 
L 26.536522 41.800039 
L 24.986538 39.895499 
L 23.283711 37.024487 
L 22.824118 35.446073 
L 24.293092 36.838355 
L 25.843076 38.742895 
L 27.393061 40.647435 
L 28.943045 42.551975 
L 30.363007 44.472874 
L 33.512097 46.915502 
L 36.431925 47.908423 
L 38.868344 49.198722 
L 41.400378 44.385365 
L 42.806351 39.299704 
L 44.641992 37.629612 
L 47.232392 46.322895 
L 62.999751 52.944312 
L 134.509091 60.122857 
L 133.943666 63.535535 
L 133.451602 67.412101 
L 129.991409 71.248118 
L 125.97482 74.710559 
L 124.051173 77.850541 
L 117.567832 86.748988 
L 115.956235 90.953691 
L 116.280124 100.898068 
L 115.53409 104.077177 
L 114.788056 107.256287 
L 114.194864 111.401868 
L 112.245037 112.908877 
L 109.92736 114.186171 
L 109.025457 116.379456 
L 108.089901 118.36015 
L 103.400348 120.921558 
L 91.777166 125.341004 
L 83.132619 128.4 
L 76.153351 128.292379 
L 72.39223 127.779875 
L 69.928341 127.08446 
L 67.447637 126.282717 
L 63.883371 125.6173 
L 58.596279 125.168636 
L 57.104631 122.724499 
L 50.056028 117.77594 
" clip-path="url(#pb7b00a8fdd)" style="fill: none; stroke: #2ca02c; stroke-width: 1.5; stroke-linecap: square"/>
   </g>
   <g id="text_1">
    <!-- 154 -->
    <g transform="translate(62.23875 21.6) scale(0.14 -0.14)">
     <defs>
      <path id="DejaVuSans-31" d="M 794 531 
L 1825 531 
L 1825 4091 
L 703 3866 
L 703 4441 
L 1819 4666 
L 2450 4666 
L 2450 531 
L 3481 531 
L 3481 0 
L 794 0 
L 794 531 
z
" transform="scale(0.015625)"/>
      <path id="DejaVuSans-35" d="M 691 4666 
L 3169 4666 
L 3169 4134 
L 1269 4134 
L 1269 2991 
Q 1406 3038 1543 3061 
Q 1681 3084 1819 3084 
Q 2600 3084 3056 2656 
Q 3513 2228 3513 1497 
Q 3513 744 3044 326 
Q 2575 -91 1722 -91 
Q 1428 -91 1123 -41 
Q 819 9 494 109 
L 494 744 
Q 775 591 1075 516 
Q 1375 441 1709 441 
Q 2250 441 2565 725 
Q 2881 1009 2881 1497 
Q 2881 1984 2565 2268 
Q 2250 2553 1709 2553 
Q 1456 2553 1204 2497 
Q 953 2441 691 2322 
L 691 4666 
z
" transform="scale(0.015625)"/>
      <path id="DejaVuSans-34" d="M 2419 4116 
L 825 1625 
L 2419 1625 
L 2419 4116 
z
M 2253 4666 
L 3047 4666 
L 3047 1625 
L 3713 1625 
L 3713 1100 
L 3047 1100 
L 3047 0 
L 2419 0 
L 2419 1100 
L 313 1100 
L 313 1709 
L 2253 4666 
z
" transform="scale(0.015625)"/>
     </defs>
     <use xlink:href="#DejaVuSans-31"/>
     <use xlink:href="#DejaVuSans-35" x="63.623047"/>
     <use xlink:href="#DejaVuSans-34" x="127.246094"/>
    </g>
   </g>
  </g>
  <g id="axes_2">
   <g id="patch_3">
    <path d="M 151.2 133.2 
L 280.8 133.2 
L 280.8 27.6 
L 151.2 27.6 
z
" style="fill: #ffffff"/>
   </g>
   <g id="matplotlib.axis_3"/>
   <g id="matplotlib.axis_4"/>
   <g id="line2d_2">
    <path d="M 196.116945 113.843895 
L 200.49619 115.731771 
L 203.296379 118.626764 
L 207.622054 121.735615 
L 218.757813 122.928763 
L 224.570671 120.682692 
L 230.867051 117.904577 
L 238.261447 111.992591 
L 241.591404 108.760092 
L 247.313734 106.447619 
L 250.374808 103.909382 
L 255.116366 99.322821 
L 252.754802 91.927868 
L 242.941984 88.349394 
L 234.844705 87.033346 
L 224.593084 86.460992 
L 217.591733 89.716028 
L 214.063541 92.901066 
L 205.896254 94.749746 
L 200.888983 93.619312 
L 197.197262 89.846071 
L 190.632066 89.201483 
L 189.226421 86.531648 
L 187.420196 82.708959 
L 183.454055 80.466098 
L 188.579774 78.976121 
L 198.231276 81.736061 
L 205.824905 83.340687 
L 213.715725 82.493437 
L 221.439782 75.488334 
L 220.717807 69.310532 
L 218.306343 65.323793 
L 219.898155 60.185722 
L 216.931965 55.04973 
L 213.20763 52.540847 
L 202.887458 49.122194 
L 198.759614 47.190095 
L 191.222407 46.751805 
L 181.965375 43.55781 
L 176.520955 42.97481 
L 169.6438 42.208676 
L 166.334439 38.379917 
L 165.82489 32.4 
L 170.458032 33.643312 
L 173.746479 35.370221 
L 178.679227 39.736742 
L 186.763779 41.066794 
L 193.459508 40.770907 
L 160.893699 90.31682 
L 164.299337 92.81122 
L 168.900391 99.800365 
L 175.281908 103.535585 
L 177.301785 106.226741 
L 173.189146 103.680318 
L 164.936106 100.709596 
L 157.172144 96.370691 
L 157.090909 93.538425 
L 159.21242 90.506771 
L 201.733483 41.726511 
L 205.88307 45.560349 
L 211.223646 47.784882 
L 215.686256 48.917042 
L 222.884832 48.532708 
L 229.15161 50.900096 
L 226.066706 55.124605 
L 226.616701 58.968338 
L 229.927687 64.455359 
L 237.29719 69.228308 
L 246.876436 71.071713 
L 252.509933 68.292603 
L 259.44719 72.412301 
L 266.029631 75.029993 
L 271.165814 75.620183 
L 268.882571 76.90411 
L 264.883145 81.736495 
L 265.938422 86.949928 
L 269.725346 92.212046 
L 272.736718 94.575842 
L 274.909091 97.663634 
L 272.407902 99.5858 
L 263.110204 99.092616 
L 256.906984 104.889125 
L 253.504402 106.275899 
L 250.087041 109.206177 
L 245.29071 112.226165 
L 239.267077 115.93261 
L 235.592755 117.684784 
L 231.666399 121.175137 
L 223.797542 123.359472 
L 217.568669 125.631678 
L 212.3976 128.4 
L 207.679705 125.689522 
L 201.909988 122.575942 
L 198.550743 120.09691 
L 189.564615 118.796102 
L 190.172937 116.665882 
L 187.207111 114.517558 
L 184.176069 110.780996 
L 181.350215 108.478655 
L 189.6597 110.557241 
" clip-path="url(#pa3f3ccc706)" style="fill: none; stroke: #2ca02c; stroke-width: 1.5; stroke-linecap: square"/>
   </g>
   <g id="text_2">
    <!-- 384 -->
    <g transform="translate(202.63875 21.6) scale(0.14 -0.14)">
     <defs>
      <path id="DejaVuSans-33" d="M 2597 2516 
Q 3050 2419 3304 2112 
Q 3559 1806 3559 1356 
Q 3559 666 3084 287 
Q 2609 -91 1734 -91 
Q 1441 -91 1130 -33 
Q 819 25 488 141 
L 488 750 
Q 750 597 1062 519 
Q 1375 441 1716 441 
Q 2309 441 2620 675 
Q 2931 909 2931 1356 
Q 2931 1769 2642 2001 
Q 2353 2234 1838 2234 
L 1294 2234 
L 1294 2753 
L 1863 2753 
Q 2328 2753 2575 2939 
Q 2822 3125 2822 3475 
Q 2822 3834 2567 4026 
Q 2313 4219 1838 4219 
Q 1578 4219 1281 4162 
Q 984 4106 628 3988 
L 628 4550 
Q 988 4650 1302 4700 
Q 1616 4750 1894 4750 
Q 2613 4750 3031 4423 
Q 3450 4097 3450 3541 
Q 3450 3153 3228 2886 
Q 3006 2619 2597 2516 
z
" transform="scale(0.015625)"/>
      <path id="DejaVuSans-38" d="M 2034 2216 
Q 1584 2216 1326 1975 
Q 1069 1734 1069 1313 
Q 1069 891 1326 650 
Q 1584 409 2034 409 
Q 2484 409 2743 651 
Q 3003 894 3003 1313 
Q 3003 1734 2745 1975 
Q 2488 2216 2034 2216 
z
M 1403 2484 
Q 997 2584 770 2862 
Q 544 3141 544 3541 
Q 544 4100 942 4425 
Q 1341 4750 2034 4750 
Q 2731 4750 3128 4425 
Q 3525 4100 3525 3541 
Q 3525 3141 3298 2862 
Q 3072 2584 2669 2484 
Q 3125 2378 3379 2068 
Q 3634 1759 3634 1313 
Q 3634 634 3220 271 
Q 2806 -91 2034 -91 
Q 1263 -91 848 271 
Q 434 634 434 1313 
Q 434 1759 690 2068 
Q 947 2378 1403 2484 
z
M 1172 3481 
Q 1172 3119 1398 2916 
Q 1625 2713 2034 2713 
Q 2441 2713 2670 2916 
Q 2900 3119 2900 3481 
Q 2900 3844 2670 4047 
Q 2441 4250 2034 4250 
Q 1625 4250 1398 4047 
Q 1172 3844 1172 3481 
z
" transform="scale(0.015625)"/>
     </defs>
     <use xlink:href="#DejaVuSans-33"/>
     <use xlink:href="#DejaVuSans-38" x="63.623047"/>
     <use xlink:href="#DejaVuSans-34" x="127.246094"/>
    </g>
   </g>
  </g>
  <g id="axes_3">
   <g id="patch_4">
    <path d="M 291.6 133.2 
L 421.2 133.2 
L 421.2 27.6 
L 291.6 27.6 
z
" style="fill: #ffffff"/>
   </g>
   <g id="matplotlib.axis_5"/>
   <g id="matplotlib.axis_6"/>
   <g id="line2d_3">
    <path d="M 377.079458 110.879536 
L 381.881872 115.072513 
L 384.806765 118.411395 
L 383.299328 119.428231 
L 379.098862 120.653319 
L 375.730494 122.948392 
L 372.044464 122.999368 
L 365.598594 121.814331 
L 360.912141 120.101611 
L 357.500089 120.505004 
L 354.05985 119.825754 
L 351.467197 118.657847 
L 348.437535 117.717275 
L 348.507342 116.356984 
L 348.827722 114.878273 
L 355.169164 112.771914 
L 360.917506 110.288292 
L 360.107798 107.411536 
L 355.310901 100.233732 
L 349.694743 97.692653 
L 345.5885 96.083617 
L 342.233762 94.119377 
L 334.397156 91.898543 
L 326.457333 89.838734 
L 322.094034 88.101038 
L 319.064372 87.160465 
L 316.479004 86.185549 
L 313.339519 83.98409 
L 309.010421 81.262462 
L 305.865973 79.880646 
L 306.096391 78.341375 
L 305.695986 75.293413 
L 306.671807 73.592978 
L 307.169963 72.379614 
L 308.034041 70.498744 
L 313.445932 67.086845 
L 317.77063 63.984113 
L 323.116038 61.459627 
L 325.38279 57.894822 
L 324.687711 54.523063 
L 323.736029 51.463746 
L 319.015792 48.110654 
L 315.958685 46.969652 
L 311.785683 43.439208 
L 308.961831 42.212637 
L 305.60198 40.847479 
L 302.625508 39.002512 
L 300.228669 38.013018 
L 299.092203 34.000191 
L 297.490909 32.4 
L 302.207297 32.958051 
L 310.825124 35.339049 
L 315.132884 36.72995 
L 321.757835 39.742196 
L 324.866943 42.657182 
L 327.304458 45.038962 
L 335.124412 48.431434 
L 341.478309 52.765506 
L 347.386768 54.617793 
L 353.072638 59.818291 
L 356.392233 62.122848 
L 359.421885 63.063408 
L 364.259498 65.02551 
L 367.233874 67.014657 
L 371.01703 68.17155 
L 376.383408 69.602106 
L 378.591718 70.606179 
L 386.767674 71.905025 
L 393.02691 72.739887 
L 400.241333 73.554899 
L 405.488526 73.675783 
L 409.830724 74.064738 
L 407.469734 76.223392 
L 402.451395 125.149342 
L 401.145375 126.425178 
L 397.565464 128.22797 
L 389.519878 128.4 
L 386.808575 127.061204 
L 383.458492 124.772508 
L 378.708357 123.987495 
L 382.579762 122.963412 
L 386.568815 120.291739 
L 389.062322 118.98258 
L 396.507431 119.892287 
L 396.604859 123.670377 
L 400.325635 124.251418 
L 415.309091 77.309668 
L 409.239603 78.260667 
L 398.828518 78.548102 
L 392.089531 78.344505 
L 378.318675 81.268455 
L 376.817712 83.009513 
L 375.84311 86.510387 
L 374.872408 87.850325 
L 374.437983 90.962831 
L 373.809558 93.532177 
L 372.294568 95.548894 
L 373.820814 99.347036 
L 374.941087 103.082034 
L 373.635067 104.35787 
" clip-path="url(#p18200e97fa)" style="fill: none; stroke: #2ca02c; stroke-width: 1.5; stroke-linecap: square"/>
   </g>
   <g id="text_3">
    <!-- 606 -->
    <g transform="translate(343.03875 21.6) scale(0.14 -0.14)">
     <defs>
      <path id="DejaVuSans-36" d="M 2113 2584 
Q 1688 2584 1439 2293 
Q 1191 2003 1191 1497 
Q 1191 994 1439 701 
Q 1688 409 2113 409 
Q 2538 409 2786 701 
Q 3034 994 3034 1497 
Q 3034 2003 2786 2293 
Q 2538 2584 2113 2584 
z
M 3366 4563 
L 3366 3988 
Q 3128 4100 2886 4159 
Q 2644 4219 2406 4219 
Q 1781 4219 1451 3797 
Q 1122 3375 1075 2522 
Q 1259 2794 1537 2939 
Q 1816 3084 2150 3084 
Q 2853 3084 3261 2657 
Q 3669 2231 3669 1497 
Q 3669 778 3244 343 
Q 2819 -91 2113 -91 
Q 1303 -91 875 529 
Q 447 1150 447 2328 
Q 447 3434 972 4092 
Q 1497 4750 2381 4750 
Q 2619 4750 2861 4703 
Q 3103 4656 3366 4563 
z
" transform="scale(0.015625)"/>
      <path id="DejaVuSans-30" d="M 2034 4250 
Q 1547 4250 1301 3770 
Q 1056 3291 1056 2328 
Q 1056 1369 1301 889 
Q 1547 409 2034 409 
Q 2525 409 2770 889 
Q 3016 1369 3016 2328 
Q 3016 3291 2770 3770 
Q 2525 4250 2034 4250 
z
M 2034 4750 
Q 2819 4750 3233 4129 
Q 3647 3509 3647 2328 
Q 3647 1150 3233 529 
Q 2819 -91 2034 -91 
Q 1250 -91 836 529 
Q 422 1150 422 2328 
Q 422 3509 836 4129 
Q 1250 4750 2034 4750 
z
" transform="scale(0.015625)"/>
     </defs>
     <use xlink:href="#DejaVuSans-36"/>
     <use xlink:href="#DejaVuSans-30" x="63.623047"/>
     <use xlink:href="#DejaVuSans-36" x="127.246094"/>
    </g>
   </g>
  </g>
 </g>
 <defs>
  <clipPath id="pb7b00a8fdd">
   <rect x="10.8" y="27.6" width="129.6" height="105.6"/>
  </clipPath>
  <clipPath id="pa3f3ccc706">
   <rect x="151.2" y="27.6" width="129.6" height="105.6"/>
  </clipPath>
  <clipPath id="p18200e97fa">
   <rect x="291.6" y="27.6" width="129.6" height="105.6"/>
  </clipPath>
 </defs>
</svg>
