<?xml version="1.0" encoding="utf-8" standalone="no"?>
<!DOCTYPE svg PUBLIC "-//W3C//DTD SVG 1.1//EN"
  "http://www.w3.org/Graphics/SVG/1.1/DTD/svg11.dtd">
<svg xmlns:xlink="http://www.w3.org/1999/xlink" width="432pt" height="144pt" viewBox="0 0 432 144" xmlns="http://www.w3.org/2000/svg" version="1.1">
 <metadata>
  <rdf:RDF xmlns:dc="http://purl.org/dc/elements/1.1/" xmlns:cc="http://creativecommons.org/ns#" xmlns:rdf="http://www.w3.org/1999/02/22-rdf-syntax-ns#">
   <cc:Work>
    <dc:type rdf:resource="http://purl.org/dc/dcmitype/StillImage"/>
    <dc:date>2024-03-29T11:20:05.530239</dc:date>
    <dc:format>image/svg+xml</dc:format>
    <dc:creator>
     <cc:Agent>
      <dc:title>Matplotlib v3.8.3, https://matplotlib.org/</dc:title>
     </cc:Agent>
    </dc:creator>
   </cc:Work>
  </rdf:RDF>
 </metadata>
 <defs>
  <style type="text/css">*{stroke-linejoin: round; stroke-linecap: butt}</style>
 </defs>
 <g id="figure_1">
  <g id="patch_1">
   <path d="M 0 144 
L 432 144 
L 432 0 
L 0 0 
z
" style="fill: #ffffff"/>
  </g>
  <g id="axes_1">
   <g id="patch_2">
    <path d="M 10.8 133.2 
L 140.4 133.2 
L 140.4 27.6 
L 10.8 27.6 
z
" style="fill: #ffffff"/>
   </g>
   <g id="matplotlib.axis_1"/>
   <g id="matplotlib.axis_2"/>
   <g id="line2d_1">
    <path d="M 48.501839 117.164237 
L 47.93563 115.396707 
L 44.688339 112.851092 
L 44.050974 111.61495 
L 42.818402 110.719496 
L 42.622624 108.649298 
L 44.347118 106.456884 
L 43.982115 105.452772 
L 42.948922 104.532346 
L 43.532427 101.221075 
L 41.391758 94.524855 
L 41.418826 90.603134 
L 41.323062 87.022051 
L 43.031135 82.958776 
L 42.555274 73.757237 
L 42.961857 70.438552 
L 45.060897 70.017969 
L 46.165109 68.923525 
L 45.924484 66.918087 
L 46.789247 65.661344 
L 46.696241 63.898655 
L 48.236003 63.025641 
L 50.333649 60.195067 
L 50.615548 59.46479 
L 52.487626 57.973471 
L 54.013451 55.59897 
L 54.451357 54.494299 
L 60.209599 53.334454 
L 64.12108 52.169332 
L 70.07129 51.113595 
L 72.713067 49.979343 
L 73.833026 49.656714 
L 75.122994 50.426695 
L 76.271283 50.356823 
L 76.845517 52.458439 
L 80.555495 54.72927 
L 82.660969 54.667669 
L 84.801329 55.183258 
L 88.359768 55.067836 
L 92.194165 55.243106 
L 96.790632 55.125831 
L 97.522061 56.08405 
L 99.381814 56.314402 
L 100.866793 55.477851 
L 103.526125 54.809606 
L 106.612931 52.086783 
L 106.939852 49.739158 
L 107.749344 48.445056 
L 107.378926 45.499665 
L 108.276872 44.209225 
L 107.5656 41.262241 
L 105.283399 39.093564 
L 104.188118 35.514445 
L 102.286905 33.958487 
L 101.429114 32.4 
L 103.273124 33.164667 
L 105.419377 35.483457 
L 106.622081 35.692616 
L 108.824517 36.925002 
L 111.190807 37.091914 
L 112.387138 36.059816 
L 115.588402 35.555396 
L 116.698884 34.430566 
L 118.911019 34.242255 
L 120.195716 34.978361 
L 121.646809 35.230354 
L 123.605651 36.803702 
L 124.143096 37.786217 
L 125.003848 38.728239 
L 126.860456 40.491879 
L 129.363804 41.716119 
L 130.603335 42.16217 
L 131.809804 42.395524 
L 132.71675 45.929222 
L 132.165876 48.073199 
L 132.246831 49.970483 
L 133.434301 50.999738 
L 49.174425 52.745033 
L 45.475064 57.215427 
L 45.495183 58.262733 
L 44.776466 59.78703 
L 44.859579 62.157185 
L 43.459307 62.973321 
L 42.266173 64.837947 
L 40.886846 65.611991 
L 37.847451 64.967496 
L 34.792278 63.763033 
L 34.254867 62.780514 
L 27.506068 57.962627 
L 25.487562 55.864469 
L 24.346621 54.957538 
L 23.942671 52.997162 
L 21.435692 51.290369 
L 20.01416 51.157892 
L 16.690909 48.759811 
L 16.819285 47.925543 
L 18.012209 48.071851 
L 19.658681 48.555678 
L 21.555537 48.741975 
L 22.789087 49.149366 
L 23.852626 48.464148 
L 23.978539 46.166365 
L 24.552922 44.985459 
L 25.814305 45.571726 
L 26.998955 45.66486 
L 28.013596 44.665386 
L 27.977295 43.620106 
L 26.739329 42.725327 
L 26.492862 41.70637 
L 25.341133 40.80079 
L 24.954555 39.79938 
L 23.901569 38.610389 
L 23.265797 36.925484 
L 22.39429 35.984809 
L 22.811281 35.346091 
L 23.463 35.791818 
L 24.269845 36.740592 
L 24.861196 37.716355 
L 25.808152 38.647581 
L 26.259392 39.640892 
L 27.346459 40.55457 
L 27.657588 41.565429 
L 28.884766 42.46156 
L 29.115052 43.482544 
L 30.29375 44.384746 
L 30.88057 45.543438 
L 33.421388 46.831995 
L 35.424873 46.891586 
L 36.32335 47.828883 
L 36.96318 48.798575 
L 38.744126 49.122608 
L 40.866687 47.723135 
L 41.269704 44.31128 
L 42.360502 41.365303 
L 42.675935 39.226146 
L 43.381028 37.861248 
L 44.503998 37.557977 
L 45.773219 45.008975 
L 47.066107 46.256724 
L 47.91243 51.025207 
L 62.734986 52.899881 
L 134.509091 59.036972 
L 133.834082 60.171337 
L 133.611705 61.249015 
L 133.266376 63.584145 
L 133.165703 66.361774 
L 132.770883 67.461048 
L 131.127741 69.929119 
L 129.323879 71.29361 
L 126.906527 73.799503 
L 125.324177 74.751794 
L 123.496655 76.70574 
L 123.406258 77.890106 
L 116.925041 85.666158 
L 116.944905 86.782506 
L 115.260788 89.093051 
L 115.3356 90.986201 
L 114.952609 94.173778 
L 115.641847 100.933465 
L 115.13941 102.435608 
L 114.55214 105.722683 
L 114.147975 107.291364 
L 114.063419 109.64311 
L 113.55149 111.437221 
L 113.409955 112.504773 
L 111.610137 112.94212 
L 110.438356 113.990847 
L 109.303352 114.216779 
L 108.361296 115.364887 
L 108.402986 116.409461 
L 107.604016 117.559352 
L 107.469493 118.389456 
L 102.802015 120.945524 
L 98.197054 122.80866 
L 91.236619 125.351259 
L 84.800103 127.27129 
L 82.635412 128.4 
L 80.9843 127.921687 
L 75.695239 128.283459 
L 73.130028 127.791478 
L 71.95591 127.766034 
L 70.664441 126.986404 
L 69.50687 127.067306 
L 68.211635 126.263479 
L 67.041277 126.262202 
L 65.533926 125.613094 
L 63.497949 125.592078 
L 61.126406 125.179356 
L 58.241058 125.136565 
L 57.56893 124.170918 
L 56.761622 122.689919 
L 52.907916 119.283779 
L 49.760209 117.731146 
L 49.760209 117.731146 
" clip-path="url(#pb86a1d7d6b)" style="fill: none; stroke: #808080; stroke-width: 1.5; stroke-linecap: square"/>
   </g>
   <g id="text_1">
    <!-- 154 -->
    <g transform="translate(62.23875 21.6) scale(0.14 -0.14)">
     <defs>
      <path id="DejaVuSans-31" d="M 794 531 
L 1825 531 
L 1825 4091 
L 703 3866 
L 703 4441 
L 1819 4666 
L 2450 4666 
L 2450 531 
L 3481 531 
L 3481 0 
L 794 0 
L 794 531 
z
" transform="scale(0.015625)"/>
      <path id="DejaVuSans-35" d="M 691 4666 
L 3169 4666 
L 3169 4134 
L 1269 4134 
L 1269 2991 
Q 1406 3038 1543 3061 
Q 1681 3084 1819 3084 
Q 2600 3084 3056 2656 
Q 3513 2228 3513 1497 
Q 3513 744 3044 326 
Q 2575 -91 1722 -91 
Q 1428 -91 1123 -41 
Q 819 9 494 109 
L 494 744 
Q 775 591 1075 516 
Q 1375 441 1709 441 
Q 2250 441 2565 725 
Q 2881 1009 2881 1497 
Q 2881 1984 2565 2268 
Q 2250 2553 1709 2553 
Q 1456 2553 1204 2497 
Q 953 2441 691 2322 
L 691 4666 
z
" transform="scale(0.015625)"/>
      <path id="DejaVuSans-34" d="M 2419 4116 
L 825 1625 
L 2419 1625 
L 2419 4116 
z
M 2253 4666 
L 3047 4666 
L 3047 1625 
L 3713 1625 
L 3713 1100 
L 3047 1100 
L 3047 0 
L 2419 0 
L 2419 1100 
L 313 1100 
L 313 1709 
L 2253 4666 
z
" transform="scale(0.015625)"/>
     </defs>
     <use xlink:href="#DejaVuSans-31"/>
     <use xlink:href="#DejaVuSans-35" x="63.623047"/>
     <use xlink:href="#DejaVuSans-34" x="127.246094"/>
    </g>
   </g>
  </g>
  <g id="axes_2">
   <g id="patch_3">
    <path d="M 151.2 133.2 
L 280.8 133.2 
L 280.8 27.6 
L 151.2 27.6 
z
" style="fill: #ffffff"/>
   </g>
   <g id="matplotlib.axis_3"/>
   <g id="matplotlib.axis_4"/>
   <g id="line2d_2">
    <path d="M 196.607607 113.87136 
L 198.799158 115.397284 
L 200.960922 115.748918 
L 201.290993 117.222736 
L 203.758177 118.639753 
L 205.525474 121.280663 
L 208.068298 121.74021 
L 211.646215 123.215565 
L 219.108959 122.901907 
L 226.517145 119.932002 
L 231.063677 117.834384 
L 234.774969 114.49602 
L 238.340724 111.891825 
L 240.512461 110.554679 
L 241.613225 108.644733 
L 245.193995 107.701192 
L 247.263034 106.31187 
L 250.274794 103.760845 
L 252.434597 100.491162 
L 254.934672 99.15353 
L 256.458182 96.801306 
L 252.535535 91.754924 
L 251.321981 90.570916 
L 242.786086 88.200512 
L 239.442538 87.803421 
L 234.754332 86.906685 
L 230.293747 85.921548 
L 224.594512 86.364045 
L 219.568033 87.15656 
L 217.685333 89.644644 
L 218.801127 93.052394 
L 214.216078 92.844797 
L 208.924856 93.331364 
L 206.140559 94.72048 
L 203.278925 95.592746 
L 201.171248 93.60333 
L 197.947667 90.789737 
L 197.483746 89.835634 
L 195.963781 88.895875 
L 190.975093 89.209673 
L 189.060396 88.412194 
L 189.561085 86.540167 
L 188.981078 84.274048 
L 187.740943 82.717334 
L 182.959797 81.589699 
L 183.793976 80.483047 
L 186.021994 79.619385 
L 188.859436 78.975647 
L 193.378268 80.398523 
L 198.442467 81.710822 
L 203.213554 83.453725 
L 205.977643 83.295145 
L 209.297389 83.48422 
L 213.787391 82.423162 
L 216.667267 80.356106 
L 221.38216 75.384923 
L 220.61703 69.200343 
L 218.196017 65.215027 
L 220.708108 63.226391 
L 219.731317 60.064787 
L 216.751504 54.930209 
L 215.711691 53.785507 
L 213.041917 52.428795 
L 205.033513 50.706039 
L 202.79118 49.035947 
L 200.201037 47.72379 
L 198.686543 47.113353 
L 194.982214 46.45129 
L 191.216688 46.696884 
L 187.608303 44.920344 
L 182.020906 43.525851 
L 180.338542 42.768875 
L 176.622985 42.958228 
L 174.933608 42.544626 
L 169.804323 42.211475 
L 166.495136 38.387042 
L 164.298505 33.5117 
L 165.942034 32.4 
L 168.932274 32.825709 
L 173.813125 35.350914 
L 178.734776 39.70905 
L 184.614967 41.109476 
L 186.754037 41.01694 
L 189.658766 41.505309 
L 193.384393 40.700677 
L 195.27157 39.851575 
L 161.525467 90.415218 
L 164.919237 92.903077 
L 167.911882 97.587032 
L 169.533517 99.888616 
L 174.035629 101.833607 
L 175.885207 103.610223 
L 176.935211 105.213167 
L 177.907842 106.29925 
L 175.179493 104.941349 
L 173.8133 103.761399 
L 170.841267 102.140888 
L 165.613872 100.810971 
L 164.342108 99.189207 
L 157.887861 96.488926 
L 157.090909 95.40641 
L 157.784492 93.652808 
L 157.632863 92.347213 
L 159.861537 90.610452 
L 200.72371 39.854928 
L 201.588268 41.633013 
L 203.878744 44.356111 
L 205.729818 45.46003 
L 209.785179 46.565776 
L 211.038145 47.671867 
L 213.328853 48.884915 
L 222.59569 48.386033 
L 227.703217 49.548917 
L 228.822661 50.738173 
L 227.901828 52.143655 
L 225.800928 54.977978 
L 225.56097 56.15395 
L 226.376825 58.825628 
L 227.758024 61.666243 
L 229.701028 64.310715 
L 232.570946 67.58948 
L 237.0398 69.068607 
L 244.16195 70.916501 
L 246.543846 70.886138 
L 250.421565 68.367001 
L 252.101885 68.086228 
L 254.533312 71.019721 
L 259.007196 72.191214 
L 265.548885 74.793079 
L 268.014007 75.172341 
L 270.641527 75.36882 
L 271.153805 75.865874 
L 268.390141 76.661405 
L 265.378381 79.21243 
L 264.467402 81.512689 
L 264.721374 83.307015 
L 265.554902 86.730514 
L 267.817759 90.390566 
L 269.348749 91.988955 
L 270.525962 92.979009 
L 272.350906 94.347195 
L 274.909091 96.030853 
L 274.527809 97.432979 
L 272.065686 99.365374 
L 266.317644 99.627975 
L 262.851457 98.899177 
L 259.220263 102.919075 
L 256.753448 104.722544 
L 254.877959 105.357192 
L 253.394083 106.121459 
L 252.20966 106.98484 
L 250.032557 109.066153 
L 248.947041 111.126703 
L 245.305757 112.104795 
L 241.744235 114.200954 
L 239.368748 115.834542 
L 237.180966 116.820682 
L 235.743153 117.600195 
L 234.005888 118.280593 
L 231.881947 121.107289 
L 230.243485 121.911339 
L 224.104766 123.318224 
L 219.574952 124.893755 
L 215.973549 126.43088 
L 212.852805 128.4 
L 211.280081 127.35183 
L 202.416755 122.598769 
L 199.069065 120.126162 
L 195.899144 118.694871 
L 190.156946 118.850245 
L 189.457964 117.690995 
L 190.742323 116.715134 
L 187.787026 114.572541 
L 186.01778 111.967382 
L 183.552084 109.877679 
L 181.936398 108.542358 
L 185.035977 109.113418 
L 190.184528 110.599193 
L 191.838962 112.729679 
L 191.838962 112.729679 
" clip-path="url(#p8cfd75ad33)" style="fill: none; stroke: #808080; stroke-width: 1.5; stroke-linecap: square"/>
   </g>
   <g id="text_2">
    <!-- 384 -->
    <g transform="translate(202.63875 21.6) scale(0.14 -0.14)">
     <defs>
      <path id="DejaVuSans-33" d="M 2597 2516 
Q 3050 2419 3304 2112 
Q 3559 1806 3559 1356 
Q 3559 666 3084 287 
Q 2609 -91 1734 -91 
Q 1441 -91 1130 -33 
Q 819 25 488 141 
L 488 750 
Q 750 597 1062 519 
Q 1375 441 1716 441 
Q 2309 441 2620 675 
Q 2931 909 2931 1356 
Q 2931 1769 2642 2001 
Q 2353 2234 1838 2234 
L 1294 2234 
L 1294 2753 
L 1863 2753 
Q 2328 2753 2575 2939 
Q 2822 3125 2822 3475 
Q 2822 3834 2567 4026 
Q 2313 4219 1838 4219 
Q 1578 4219 1281 4162 
Q 984 4106 628 3988 
L 628 4550 
Q 988 4650 1302 4700 
Q 1616 4750 1894 4750 
Q 2613 4750 3031 4423 
Q 3450 4097 3450 3541 
Q 3450 3153 3228 2886 
Q 3006 2619 2597 2516 
z
" transform="scale(0.015625)"/>
      <path id="DejaVuSans-38" d="M 2034 2216 
Q 1584 2216 1326 1975 
Q 1069 1734 1069 1313 
Q 1069 891 1326 650 
Q 1584 409 2034 409 
Q 2484 409 2743 651 
Q 3003 894 3003 1313 
Q 3003 1734 2745 1975 
Q 2488 2216 2034 2216 
z
M 1403 2484 
Q 997 2584 770 2862 
Q 544 3141 544 3541 
Q 544 4100 942 4425 
Q 1341 4750 2034 4750 
Q 2731 4750 3128 4425 
Q 3525 4100 3525 3541 
Q 3525 3141 3298 2862 
Q 3072 2584 2669 2484 
Q 3125 2378 3379 2068 
Q 3634 1759 3634 1313 
Q 3634 634 3220 271 
Q 2806 -91 2034 -91 
Q 1263 -91 848 271 
Q 434 634 434 1313 
Q 434 1759 690 2068 
Q 947 2378 1403 2484 
z
M 1172 3481 
Q 1172 3119 1398 2916 
Q 1625 2713 2034 2713 
Q 2441 2713 2670 2916 
Q 2900 3119 2900 3481 
Q 2900 3844 2670 4047 
Q 2441 4250 2034 4250 
Q 1625 4250 1398 4047 
Q 1172 3844 1172 3481 
z
" transform="scale(0.015625)"/>
     </defs>
     <use xlink:href="#DejaVuSans-33"/>
     <use xlink:href="#DejaVuSans-38" x="63.623047"/>
     <use xlink:href="#DejaVuSans-34" x="127.246094"/>
    </g>
   </g>
  </g>
  <g id="axes_3">
   <g id="patch_4">
    <path d="M 291.6 133.2 
L 421.2 133.2 
L 421.2 27.6 
L 291.6 27.6 
z
" style="fill: #ffffff"/>
   </g>
   <g id="matplotlib.axis_5"/>
   <g id="matplotlib.axis_6"/>
   <g id="line2d_3">
    <path d="M 376.213639 110.86199 
L 377.861823 111.560423 
L 380.973565 115.045901 
L 383.396829 116.483316 
L 383.858461 118.375974 
L 382.410007 118.929464 
L 382.322403 119.385886 
L 380.122424 120.091698 
L 378.071108 120.598413 
L 374.920454 122.272696 
L 374.638373 122.877917 
L 373.022639 123.213361 
L 370.926157 122.92216 
L 367.549502 122.58996 
L 364.457411 121.730684 
L 360.978871 120.938293 
L 359.769633 120.016848 
L 357.78676 119.873848 
L 356.326936 120.412517 
L 354.482193 120.449452 
L 352.875328 119.730027 
L 351.12386 119.084068 
L 350.285906 118.562425 
L 347.252391 117.620433 
L 346.6723 117.079548 
L 347.347141 116.265963 
L 347.685475 115.387954 
L 347.696311 114.794011 
L 351.618893 113.171797 
L 354.119108 112.707689 
L 357.023088 112.320882 
L 359.951524 110.244636 
L 359.253433 108.333804 
L 359.188003 107.378495 
L 359.410332 105.79739 
L 354.487311 100.222266 
L 352.581025 98.766437 
L 348.878353 97.681895 
L 344.772899 96.072335 
L 342.918179 95.478835 
L 341.430488 94.110388 
L 339.83913 93.383084 
L 333.580101 91.884993 
L 331.202673 91.06863 
L 322.7518 89.08949 
L 321.260934 88.081631 
L 318.227418 87.139638 
L 317.389381 86.618002 
L 315.64186 86.164233 
L 314.355866 85.67601 
L 312.520445 83.96644 
L 310.36216 83.024067 
L 308.210618 81.248552 
L 306.898045 80.379572 
L 305.069464 79.866962 
L 305.276867 79.267285 
L 305.329145 78.334544 
L 306.090678 77.45628 
L 304.980812 75.298639 
L 305.176113 74.393257 
L 305.993904 73.607051 
L 305.984064 73.023613 
L 306.517297 72.399649 
L 307.322046 71.755398 
L 307.421126 70.528185 
L 309.701497 69.066561 
L 312.931478 67.140147 
L 313.866602 66.076609 
L 320.19282 62.274061 
L 322.76908 61.553599 
L 325.295202 59.458126 
L 325.115483 58.007732 
L 323.615676 55.397993 
L 324.476279 54.648864 
L 324.819428 54.039085 
L 323.573094 51.600675 
L 321.29623 50.503738 
L 318.880802 48.253276 
L 317.750928 47.753417 
L 315.823258 47.111646 
L 313.385105 44.672609 
L 311.685143 43.588606 
L 309.70874 42.883313 
L 308.863992 42.362177 
L 307.303584 41.619149 
L 305.505659 40.996793 
L 304.018051 39.62834 
L 300.984443 38.686341 
L 297.832346 36.757214 
L 299.431631 33.332016 
L 297.490909 32.570345 
L 300.223676 32.4 
L 302.229593 33.134401 
L 307.465272 34.346279 
L 315.175953 36.913365 
L 321.792146 39.924715 
L 323.840001 40.723144 
L 324.870144 42.832992 
L 325.189823 44.353515 
L 327.281533 45.209109 
L 330.831881 48.012768 
L 337.16945 48.864883 
L 341.413592 52.928365 
L 345.603598 54.124285 
L 347.329242 54.783345 
L 351.090658 59.115659 
L 354.773859 60.904446 
L 356.261467 62.272898 
L 357.94792 62.731225 
L 359.294973 63.214878 
L 360.473261 64.152047 
L 364.130462 65.177319 
L 367.089454 67.163397 
L 368.903442 67.656987 
L 372.791258 68.98286 
L 376.255177 69.756193 
L 378.460568 70.759967 
L 383.643072 71.837045 
L 386.669213 72.067835 
L 392.956343 72.910272 
L 395.685121 73.071476 
L 402.258194 73.968668 
L 405.486557 73.86429 
L 408.172691 74.035398 
L 409.851527 74.259296 
L 408.30202 74.587543 
L 407.435529 76.404733 
L 413.344922 76.782946 
L 401.502872 125.116912 
L 400.569171 125.770759 
L 400.164953 126.385094 
L 400.059377 126.977159 
L 396.528077 128.174005 
L 390.350192 128.4 
L 388.424243 128.331084 
L 387.316635 127.458011 
L 384.28313 126.516032 
L 382.386543 124.708063 
L 377.617962 123.917935 
L 378.504183 123.267631 
L 381.534325 122.904988 
L 382.101479 122.27848 
L 385.598773 120.251559 
L 385.960748 119.479217 
L 388.132919 118.952294 
L 395.612706 119.871359 
L 393.481985 122.145479 
L 395.642854 123.633799 
L 397.51363 123.63074 
L 399.378688 124.218988 
L 410.101143 94.930773 
L 415.309091 77.500326 
L 409.180891 78.436607 
L 404.636782 78.397436 
L 398.693265 78.704424 
L 391.911742 78.48976 
L 381.736263 79.258034 
L 377.993895 81.377108 
L 376.804291 82.352219 
L 376.45133 83.10822 
L 374.855156 84.769453 
L 375.407085 86.592709 
L 375.274362 87.186786 
L 374.405631 87.925319 
L 373.882247 89.132733 
L 373.91225 91.024021 
L 373.238417 92.0166 
L 373.233308 93.581495 
L 372.506294 94.804105 
L 371.671663 95.587087 
L 371.955858 96.584268 
L 373.140063 99.372023 
L 373.216523 101.239708 
L 374.200843 103.093361 
L 372.862924 104.361544 
L 376.770655 110.025859 
L 376.770655 110.025859 
" clip-path="url(#p8b644d0c79)" style="fill: none; stroke: #808080; stroke-width: 1.5; stroke-linecap: square"/>
   </g>
   <g id="text_3">
    <!-- 606 -->
    <g transform="translate(343.03875 21.6) scale(0.14 -0.14)">
     <defs>
      <path id="DejaVuSans-36" d="M 2113 2584 
Q 1688 2584 1439 2293 
Q 1191 2003 1191 1497 
Q 1191 994 1439 701 
Q 1688 409 2113 409 
Q 2538 409 2786 701 
Q 3034 994 3034 1497 
Q 3034 2003 2786 2293 
Q 2538 2584 2113 2584 
z
M 3366 4563 
L 3366 3988 
Q 3128 4100 2886 4159 
Q 2644 4219 2406 4219 
Q 1781 4219 1451 3797 
Q 1122 3375 1075 2522 
Q 1259 2794 1537 2939 
Q 1816 3084 2150 3084 
Q 2853 3084 3261 2657 
Q 3669 2231 3669 1497 
Q 3669 778 3244 343 
Q 2819 -91 2113 -91 
Q 1303 -91 875 529 
Q 447 1150 447 2328 
Q 447 3434 972 4092 
Q 1497 4750 2381 4750 
Q 2619 4750 2861 4703 
Q 3103 4656 3366 4563 
z
" transform="scale(0.015625)"/>
      <path id="DejaVuSans-30" d="M 2034 4250 
Q 1547 4250 1301 3770 
Q 1056 3291 1056 2328 
Q 1056 1369 1301 889 
Q 1547 409 2034 409 
Q 2525 409 2770 889 
Q 3016 1369 3016 2328 
Q 3016 3291 2770 3770 
Q 2525 4250 2034 4250 
z
M 2034 4750 
Q 2819 4750 3233 4129 
Q 3647 3509 3647 2328 
Q 3647 1150 3233 529 
Q 2819 -91 2034 -91 
Q 1250 -91 836 529 
Q 422 1150 422 2328 
Q 422 3509 836 4129 
Q 1250 4750 2034 4750 
z
" transform="scale(0.015625)"/>
     </defs>
     <use xlink:href="#DejaVuSans-36"/>
     <use xlink:href="#DejaVuSans-30" x="63.623047"/>
     <use xlink:href="#DejaVuSans-36" x="127.246094"/>
    </g>
   </g>
  </g>
 </g>
 <defs>
  <clipPath id="pb86a1d7d6b">
   <rect x="10.8" y="27.6" width="129.6" height="105.6"/>
  </clipPath>
  <clipPath id="p8cfd75ad33">
   <rect x="151.2" y="27.6" width="129.6" height="105.6"/>
  </clipPath>
  <clipPath id="p8b644d0c79">
   <rect x="291.6" y="27.6" width="129.6" height="105.6"/>
  </clipPath>
 </defs>
</svg>
