<?xml version="1.0" encoding="utf-8" standalone="no"?>
<!DOCTYPE svg PUBLIC "-//W3C//DTD SVG 1.1//EN"
  "http://www.w3.org/Graphics/SVG/1.1/DTD/svg11.dtd">
<svg xmlns:xlink="http://www.w3.org/1999/xlink" width="576pt" height="144pt" viewBox="0 0 576 144" xmlns="http://www.w3.org/2000/svg" version="1.1">
 <metadata>
  <rdf:RDF xmlns:dc="http://purl.org/dc/elements/1.1/" xmlns:cc="http://creativecommons.org/ns#" xmlns:rdf="http://www.w3.org/1999/02/22-rdf-syntax-ns#">
   <cc:Work>
    <dc:type rdf:resource="http://purl.org/dc/dcmitype/StillImage"/>
    <dc:date>2024-04-21T11:23:35.470403</dc:date>
    <dc:format>image/svg+xml</dc:format>
    <dc:creator>
     <cc:Agent>
      <dc:title>Matplotlib v3.8.4, https://matplotlib.org/</dc:title>
     </cc:Agent>
    </dc:creator>
   </cc:Work>
  </rdf:RDF>
 </metadata>
 <defs>
  <style type="text/css">*{stroke-linejoin: round; stroke-linecap: butt}</style>
 </defs>
 <g id="figure_1">
  <g id="patch_1">
   <path d="M 0 144 
L 576 144 
L 576 0 
L 0 0 
z
" style="fill: #ffffff"/>
  </g>
  <g id="axes_1">
   <g id="patch_2">
    <path d="M 10.8 133.2 
L 141.3 133.2 
L 141.3 27.6 
L 10.8 27.6 
z
" style="fill: #ffffff"/>
   </g>
   <g id="matplotlib.axis_1"/>
   <g id="matplotlib.axis_2"/>
   <g id="line2d_1">
    <path d="M 60.935271 56.728202 
L 55.486154 57.982717 
L 55.003302 58.590679 
L 53.566768 58.893784 
L 52.533216 60.249854 
L 51.873837 61.054821 
L 50.943978 60.66888 
L 47.867334 61.426164 
L 47.339308 61.987174 
L 44.583274 60.812168 
L 44.201546 59.859446 
L 43.660774 58.508469 
L 42.703517 57.988124 
L 42.375565 56.932749 
L 42.835895 56.315185 
L 42.773821 55.989229 
L 40.001602 48.256586 
L 40.463905 47.538128 
L 40.087854 46.446447 
L 41.123605 45.056917 
L 40.904335 44.353082 
L 40.173944 42.693889 
L 39.357365 42.345749 
L 38.135788 38.898709 
L 38.662851 38.228849 
L 39.636597 38.727074 
L 40.105587 39.799145 
L 41.981434 40.704417 
L 42.419481 41.740849 
L 43.353071 42.112582 
L 44.789605 41.809477 
L 46.168856 39.982803 
L 46.480359 39.651359 
L 47.438407 40.170643 
L 47.879455 41.20305 
L 48.815954 41.570775 
L 50.318165 41.193936 
L 50.781871 40.476077 
L 50.453025 39.318586 
L 50.894209 38.591124 
L 50.587884 37.443235 
L 51.006547 36.706171 
L 50.698703 35.600136 
L 51.703719 34.217091 
L 51.340359 33.044885 
L 51.876635 32.4 
L 52.791543 32.792452 
L 52.733998 32.869653 
L 52.280821 33.592002 
L 52.599138 34.745003 
L 52.168483 35.476954 
L 52.521824 36.543153 
L 52.011611 37.241185 
L 52.386964 38.418504 
L 51.899273 39.126138 
L 52.252104 40.293855 
L 51.786936 41.011091 
L 52.117245 42.169205 
L 51.656914 42.786769 
L 52.063666 43.950714 
L 52.548952 45.104241 
L 54.437572 46.006855 
L 54.780383 47.068564 
L 54.2807 47.771086 
L 54.681483 48.857511 
L 55.668525 49.299839 
L 56.7352 49.673392 
L 59.607426 49.064899 
L 61.67893 46.285839 
L 62.283472 46.059333 
L 64.790408 45.500438 
L 65.978631 44.05797 
L 67.491325 43.833159 
L 68.273606 44.216349 
L 64.009185 50.05846 
L 64.365459 51.024233 
L 64.316378 51.219662 
L 61.735646 54.842809 
L 62.091919 55.808582 
L 72.365959 62.990397 
L 126.170349 100.383438 
L 124.590473 100.828842 
L 124.096093 101.431948 
L 122.659558 101.735053 
L 120.24131 104.688685 
L 118.923615 105.042456 
L 118.463285 105.66002 
L 115.206322 106.361883 
L 113.81275 106.565828 
L 112.996142 106.217675 
L 108.335578 107.096295 
L 107.472097 106.772088 
L 104.495995 107.4538 
L 104.035665 108.071364 
L 102.398078 108.45354 
L 93.451834 110.409289 
L 92.991504 111.026853 
L 91.804279 111.29965 
L 89.943507 111.72709 
L 88.753567 113.165036 
L 87.476657 113.43446 
L 86.624224 114.485703 
L 82.516532 119.978658 
L 80.951943 120.401021 
L 79.901976 121.752017 
L 78.465442 122.055122 
L 77.127794 123.559056 
L 75.848915 123.858219 
L 74.132562 126.023584 
L 72.676331 126.420026 
L 72.216001 127.03759 
L 70.203635 126.241729 
L 68.676629 126.485741 
L 67.711242 126.15677 
L 66.260275 126.555457 
L 65.796565 127.171609 
L 64.208541 127.613569 
L 63.736901 128.200542 
L 62.818242 127.808882 
L 59.564866 128.33224 
L 54.974209 126.40086 
L 50.664606 127.310175 
L 48.788501 126.603453 
L 40.836679 123.275368 
L 37.96361 123.881578 
L 36.320724 123.19835 
L 35.996305 123.006546 
L 35.518253 121.901024 
L 29.817719 119.394725 
L 29.294387 118.292344 
L 28.431319 117.826002 
L 27.997312 116.78415 
L 27.089453 116.378 
L 26.598215 115.232459 
L 25.703053 114.809277 
L 25.299268 113.723467 
L 23.358216 112.831935 
L 22.870367 111.73273 
L 19.183274 110.074317 
L 19.654175 109.359525 
L 19.264644 108.270725 
L 20.300396 106.881195 
L 19.962875 105.817456 
L 18.114651 101.108377 
L 17.247866 100.647125 
L 16.928771 99.543464 
L 17.934166 98.128573 
L 16.738208 94.715834 
L 17.221102 94.006155 
L 16.820319 92.919729 
L 17.848586 91.53176 
L 18.397919 91.359051 
L 20.96384 90.741293 
L 21.40169 90.01241 
L 21.041155 88.943143 
L 21.719123 88.214897 
L 22.996049 87.945451 
L 23.429225 87.433815 
L 25.208676 85.005918 
L 24.80791 83.91947 
L 27.151143 80.746185 
L 28.65384 78.810677 
L 30.097618 78.487719 
L 32.687013 75.013872 
L 33.102161 74.817857 
L 36.932889 74.009584 
L 37.454465 73.701298 
L 43.364033 65.933311 
L 44.822778 65.69028 
L 46.814863 66.426889 
L 48.219453 66.037056 
L 49.269795 64.687211 
L 50.706421 64.384087 
L 51.954839 62.999756 
L 52.831629 63.324827 
L 57.295657 62.332858 
L 57.830512 61.683985 
L 58.74917 62.075645 
L 63.338425 61.00379 
L 63.820374 60.395384 
L 65.256908 60.092279 
L 70.039228 62.113039 
L 73.021829 63.34068 
L 74.481779 63.051873 
L 81.264846 65.877357 
L 82.788323 65.638079 
L 83.656724 66.097163 
L 84.08534 67.146249 
L 84.983588 67.54833 
L 83.947836 68.937861 
L 84.141477 69.600685 
L 85.232417 72.411295 
L 87.12628 73.312822 
L 87.482529 74.278525 
L 88.130036 74.601865 
L 91.387992 76.107404 
L 91.744241 77.073107 
L 94.438725 78.246708 
L 98.443102 79.991186 
L 97.967362 80.80565 
L 98.461815 81.872311 
L 100.290353 82.631833 
L 101.726887 82.328728 
L 103.536003 83.080436 
L 104.454661 83.472097 
L 104.833022 83.505903 
L 109.13238 82.595077 
L 110.311653 81.128213 
L 111.751456 80.775839 
L 113.46651 78.630005 
L 114.909184 78.233963 
L 116.441936 76.148872 
L 115.64037 73.976021 
L 116.001753 73.379353 
L 117.747212 70.929268 
L 116.990081 68.66459 
L 117.454753 67.947142 
L 117.073269 66.882295 
L 117.175349 66.925816 
L 117.991928 67.273956 
L 118.440603 68.430006 
L 118.776762 69.656494 
L 118.357134 70.393146 
L 118.790861 71.435374 
L 119.707137 71.863273 
L 120.508702 74.036124 
L 121.097374 74.329133 
L 122.508439 74.889623 
L 123.947015 74.588846 
L 126.917707 75.791821 
L 128.364675 75.517068 
L 130.271254 76.415912 
L 130.698254 77.467165 
L 131.616088 77.871825 
L 132.407575 80.175112 
L 131.918919 80.882335 
L 132.272715 82.050463 
L 131.812385 82.668027 
L 131.98536 83.251846 
L 133.152478 86.155101 
L 134.029284 86.60296 
L 134.551574 87.706791 
L 135.368182 88.054944 
L 132.582756 91.700252 
L 131.15375 92.023766 
L 130.127315 93.541448 
L 130.483563 94.507152 
L 127.649849 93.004376 
L 68.915561 60.639131 
L 68.915561 60.639131 
" clip-path="url(#p7ca97a3d6a)" style="fill: none; stroke: #808080; stroke-width: 1.5; stroke-linecap: square"/>
   </g>
   <g id="text_1">
    <!-- 154 -->
    <g transform="translate(62.68875 21.6) scale(0.14 -0.14)">
     <defs>
      <path id="DejaVuSans-31" d="M 794 531 
L 1825 531 
L 1825 4091 
L 703 3866 
L 703 4441 
L 1819 4666 
L 2450 4666 
L 2450 531 
L 3481 531 
L 3481 0 
L 794 0 
L 794 531 
z
" transform="scale(0.015625)"/>
      <path id="DejaVuSans-35" d="M 691 4666 
L 3169 4666 
L 3169 4134 
L 1269 4134 
L 1269 2991 
Q 1406 3038 1543 3061 
Q 1681 3084 1819 3084 
Q 2600 3084 3056 2656 
Q 3513 2228 3513 1497 
Q 3513 744 3044 326 
Q 2575 -91 1722 -91 
Q 1428 -91 1123 -41 
Q 819 9 494 109 
L 494 744 
Q 775 591 1075 516 
Q 1375 441 1709 441 
Q 2250 441 2565 725 
Q 2881 1009 2881 1497 
Q 2881 1984 2565 2268 
Q 2250 2553 1709 2553 
Q 1456 2553 1204 2497 
Q 953 2441 691 2322 
L 691 4666 
z
" transform="scale(0.015625)"/>
      <path id="DejaVuSans-34" d="M 2419 4116 
L 825 1625 
L 2419 1625 
L 2419 4116 
z
M 2253 4666 
L 3047 4666 
L 3047 1625 
L 3713 1625 
L 3713 1100 
L 3047 1100 
L 3047 0 
L 2419 0 
L 2419 1100 
L 313 1100 
L 313 1709 
L 2253 4666 
z
" transform="scale(0.015625)"/>
     </defs>
     <use xlink:href="#DejaVuSans-31"/>
     <use xlink:href="#DejaVuSans-35" x="63.623047"/>
     <use xlink:href="#DejaVuSans-34" x="127.246094"/>
    </g>
   </g>
  </g>
  <g id="axes_2">
   <g id="patch_3">
    <path d="M 152.1 133.2 
L 282.6 133.2 
L 282.6 27.6 
L 152.1 27.6 
z
" style="fill: #ffffff"/>
   </g>
   <g id="matplotlib.axis_3"/>
   <g id="matplotlib.axis_4"/>
   <g id="line2d_2">
    <path d="M 212.841089 38.177662 
L 212.473434 38.159143 
L 212.250293 38.264402 
L 211.176302 39.213948 
L 210.636272 39.200192 
L 210.207537 39.538532 
L 209.549832 39.596515 
L 209.357729 39.792946 
L 208.951039 39.848622 
L 204.563206 39.693329 
L 204.265803 39.986006 
L 201.57472 39.890769 
L 201.123101 40.201087 
L 200.584332 40.188876 
L 200.154336 40.525671 
L 199.602853 40.497892 
L 196.698881 43.338665 
L 195.405386 43.340717 
L 195.117471 43.629404 
L 194.652793 43.235602 
L 193.394735 43.252885 
L 193.092585 43.530395 
L 192.352837 43.603662 
L 191.776529 44.192954 
L 191.469652 43.792151 
L 191.912381 43.470947 
L 192.472551 43.481251 
L 193.92518 42.078809 
L 194.590492 42.030189 
L 194.893904 41.754223 
L 195.445386 41.782002 
L 195.825895 41.481548 
L 196.210101 41.088686 
L 196.762162 41.101567 
L 197.094688 40.898764 
L 199.331768 38.47695 
L 199.37281 37.854726 
L 200.48007 36.808269 
L 201.144142 36.758081 
L 201.48347 36.48543 
L 202.586435 36.540987 
L 203.289175 35.993911 
L 206.170718 33.047451 
L 207.115162 32.796323 
L 207.368332 32.674663 
L 208.009499 32.596431 
L 208.201602 32.4 
L 208.333358 32.442484 
L 208.860015 33.087333 
L 209.767759 33.41683 
L 210.299193 33.942435 
L 210.942636 34.07341 
L 211.237975 34.363103 
L 211.789457 34.390881 
L 212.556413 35.267387 
L 212.796118 35.579643 
L 212.848263 36.406697 
L 213.37492 37.051546 
L 213.379404 37.670093 
L 216.230493 40.954602 
L 255.664894 84.05912 
L 260.671317 89.873177 
L 258.907624 89.884407 
L 258.622348 90.107503 
L 258.35902 89.785079 
L 256.832271 89.679791 
L 256.317235 89.674781 
L 255.740948 90.264051 
L 255.464883 90.357677 
L 254.361918 90.30212 
L 253.386149 90.999755 
L 252.888095 91.037395 
L 252.599962 91.332019 
L 252.573864 91.947533 
L 252.394571 92.25663 
L 250.692652 93.851106 
L 250.151351 93.835794 
L 249.723898 94.175702 
L 249.172415 94.147924 
L 248.223294 94.846878 
L 247.855639 94.828359 
L 247.474552 95.143711 
L 247.090346 95.536572 
L 247.024168 96.318834 
L 246.706115 96.792693 
L 246.573785 97.493957 
L 246.381682 97.690387 
L 246.309422 98.358817 
L 246.189471 99.316116 
L 245.919904 99.74611 
L 245.775173 101.883526 
L 245.48805 102.185688 
L 245.413594 104.036878 
L 245.210553 104.604646 
L 243.517222 106.184627 
L 242.964529 106.186676 
L 242.200446 106.865063 
L 241.551448 106.73979 
L 241.261674 106.444407 
L 240.710192 106.416628 
L 240.356208 106.058279 
L 240.010429 105.628648 
L 240.035255 105.011578 
L 239.826458 104.627679 
L 237.988136 102.545708 
L 237.451968 102.502269 
L 237.049354 102.12504 
L 236.401748 101.998322 
L 236.110582 101.704384 
L 235.439313 101.601862 
L 235.147837 101.282486 
L 232.475262 101.191201 
L 232.097663 101.420095 
L 231.922111 101.205145 
L 231.657775 101.106712 
L 227.800474 100.969152 
L 227.51232 101.263798 
L 226.047995 101.331926 
L 225.855892 101.528357 
L 223.360908 101.435545 
L 222.483934 101.403313 
L 221.719121 102.099609 
L 221.167638 102.071831 
L 219.51266 103.726933 
L 219.043376 104.243949 
L 219.01855 104.86102 
L 217.511541 106.487727 
L 215.590523 108.452023 
L 215.282125 109.481962 
L 215.15109 109.753141 
L 215.023855 110.460644 
L 214.831752 110.657074 
L 214.754866 111.307359 
L 214.721765 112.130119 
L 216.207256 114.02406 
L 216.625377 114.579805 
L 216.647959 115.345628 
L 216.911287 115.668052 
L 216.853098 116.450716 
L 216.564943 116.745362 
L 213.66414 116.853143 
L 213.09168 117.347039 
L 212.540197 117.319261 
L 211.465054 118.430052 
L 211.440228 119.047122 
L 210.365 120.226608 
L 209.02028 121.601623 
L 208.201115 121.724649 
L 206.93671 123.160466 
L 206.806934 123.864832 
L 206.476804 124.108082 
L 205.925321 124.080303 
L 205.200732 124.838357 
L 205.114203 125.595698 
L 204.826048 125.890344 
L 204.725068 126.708193 
L 204.092535 127.50076 
L 203.961477 128.20358 
L 203.67741 128.396871 
L 203.414082 128.074447 
L 203.323212 127.181221 
L 203.14766 126.966272 
L 203.157999 125.84665 
L 203.17455 125.435269 
L 202.223583 124.18956 
L 202.248409 123.572489 
L 201.041944 122.042101 
L 200.636321 121.573608 
L 200.084839 121.54583 
L 199.597372 121.055302 
L 199.070715 120.410453 
L 198.175694 120.096535 
L 198.087918 119.98906 
L 197.086364 119.901271 
L 196.634987 119.773989 
L 196.459435 119.559039 
L 196.046339 119.475504 
L 193.008385 119.243321 
L 192.624564 118.929766 
L 189.377464 118.81998 
L 189.089321 119.114615 
L 187.624996 119.182742 
L 187.432893 119.379173 
L 186.424406 119.364223 
L 185.968568 119.447301 
L 185.644794 119.698334 
L 184.978179 119.745408 
L 184.67603 120.022918 
L 183.936292 120.096174 
L 183.359984 120.685466 
L 182.538036 120.811338 
L 180.878668 122.376611 
L 180.611166 122.058454 
L 179.916224 121.980138 
L 179.488556 121.628527 
L 178.938513 121.564973 
L 178.337547 120.710274 
L 178.281563 119.978628 
L 177.988997 119.6861 
L 177.319119 119.582155 
L 177.061356 119.25404 
L 177.014535 118.427254 
L 176.487879 117.782405 
L 176.524603 116.006958 
L 176.635238 115.413626 
L 178.388713 113.732128 
L 178.940196 113.759906 
L 179.516015 113.182542 
L 179.654795 112.852 
L 179.729262 111.000799 
L 179.30939 110.289634 
L 177.497297 108.086501 
L 176.945814 108.058723 
L 176.607961 107.763914 
L 175.02801 105.829391 
L 174.951512 105.341617 
L 174.860817 104.842713 
L 174.653172 104.463351 
L 174.594396 103.734538 
L 174.363088 103.379371 
L 174.327974 102.626363 
L 174.072993 102.295403 
L 174.061552 101.518188 
L 173.798224 101.195763 
L 173.707354 100.302537 
L 173.386952 100.038473 
L 172.835469 100.010695 
L 171.560909 98.381275 
L 171.585735 97.764205 
L 170.870547 96.829095 
L 170.615269 96.538434 
L 169.883937 96.403032 
L 169.35728 95.758183 
L 169.313643 93.358863 
L 169.10878 92.976656 
L 169.133625 92.359609 
L 168.185647 91.039358 
L 168.235289 89.805228 
L 167.629007 88.950273 
L 166.968472 88.116468 
L 166.910991 87.289156 
L 166.384334 86.644307 
L 166.348165 85.818057 
L 165.760512 84.964029 
L 165.697562 84.239483 
L 165.470428 83.880049 
L 165.431141 83.131308 
L 165.180344 82.796069 
L 165.164719 82.023133 
L 164.901391 81.700708 
L 164.783812 80.774779 
L 162.895803 78.600685 
L 162.257935 78.464009 
L 162.032212 78.103176 
L 161.991533 77.355858 
L 161.815981 77.140908 
L 161.748114 76.870148 
L 161.875026 72.521425 
L 161.611698 72.199 
L 161.584438 71.38366 
L 161.057781 70.738811 
L 161.051413 69.304709 
L 161.026327 67.572445 
L 160.801976 67.210165 
L 160.759905 66.464269 
L 160.511892 66.126185 
L 160.493484 65.356094 
L 160.230155 65.03367 
L 160.246623 64.425146 
L 160.074414 64.061015 
L 158.031818 61.416145 
L 158.064292 60.808439 
L 158.762702 60.800296 
L 159.216865 60.493091 
L 159.769797 60.485106 
L 160.533641 59.812656 
L 161.085123 59.840434 
L 162.546439 58.420518 
L 163.097911 58.448307 
L 163.96392 57.625682 
L 164.907238 56.67254 
L 165.646146 56.620151 
L 166.222455 56.030859 
L 167.152986 55.793957 
L 167.724617 55.320929 
L 168.2761 55.348707 
L 169.041393 54.640494 
L 169.715626 54.602771 
L 170.010147 54.315921 
L 170.56163 54.343699 
L 170.792327 54.216407 
L 171.656779 53.33248 
L 172.431402 53.254999 
L 173.421778 52.127996 
L 173.446603 51.510926 
L 174.298884 50.630852 
L 174.502031 50.160172 
L 174.679134 47.383663 
L 174.974906 47.098369 
L 175.706379 47.230792 
L 176.233036 47.875641 
L 176.425676 48.893477 
L 176.658303 49.050067 
L 177.209786 49.077845 
L 177.975079 48.369632 
L 178.64678 48.328785 
L 178.943843 48.045048 
L 179.637168 48.030678 
L 179.925322 47.736032 
L 182.055687 47.701453 
L 182.24779 47.505022 
L 182.876808 47.496392 
L 183.712094 47.436916 
L 184.032043 47.1812 
L 184.702482 47.138809 
L 185.000808 46.856617 
L 185.69287 46.840702 
L 185.981025 46.546056 
L 186.706921 46.518399 
L 187.470176 45.860857 
L 188.11771 45.79042 
L 188.43894 45.536274 
L 188.990423 45.564052 
L 186.655303 48.000366 
L 185.902528 48.795833 
L 185.877702 49.412903 
L 185.149756 50.254424 
L 184.189242 51.236578 
L 183.603388 51.266799 
L 183.346414 51.3838 
L 183.154311 51.580231 
L 181.664874 51.542536 
L 181.023946 51.61481 
L 180.770151 51.951478 
L 180.745325 52.568548 
L 179.148117 54.247492 
L 178.628701 54.750042 
L 178.077218 54.722263 
L 177.550801 55.1662 
L 176.974503 55.755481 
L 176.156729 55.877085 
L 175.925817 56.24182 
L 175.895666 56.858622 
L 175.319357 57.447914 
L 175.133971 57.47741 
L 174.425285 56.778588 
L 173.887798 56.767945 
L 173.456521 57.103172 
L 172.905038 57.075393 
L 172.049663 57.932897 
L 171.631891 58.131407 
L 169.116839 58.073421 
L 168.824861 58.363385 
L 168.126451 58.371528 
L 167.812202 58.850046 
L 167.738707 59.4826 
L 166.643558 60.49382 
L 166.092075 60.466041 
L 164.684178 61.951365 
L 164.659363 62.568424 
L 164.010819 63.294472 
L 163.26229 64.117043 
L 163.138141 67.202372 
L 163.267412 67.970584 
L 164.308924 69.42099 
L 164.035748 69.774641 
L 164.028515 71.248383 
L 164.291843 71.570808 
L 164.35273 73.209285 
L 164.549245 73.600028 
L 164.619152 74.31746 
L 164.839329 74.684008 
L 164.814503 75.301078 
L 166.08014 77.019656 
L 166.09699 79.254808 
L 166.623647 79.899657 
L 166.606799 80.517118 
L 166.835369 80.940856 
L 169.139632 83.915518 
L 169.161326 84.570769 
L 171.019869 86.946488 
L 171.067504 87.686693 
L 171.309953 88.030468 
L 171.285127 88.647539 
L 171.981435 89.587691 
L 172.859196 90.66244 
L 173.656259 90.856416 
L 173.849981 91.250016 
L 173.922681 91.964592 
L 174.098233 92.179541 
L 174.107324 93.147795 
L 174.057673 94.381936 
L 174.555284 95.085053 
L 174.688222 95.297868 
L 174.663396 95.914938 
L 174.942558 96.341202 
L 175.293662 96.771101 
L 175.361627 97.636282 
L 176.356176 98.694499 
L 176.896518 98.73367 
L 177.200298 99.21196 
L 177.250716 99.94932 
L 177.537707 100.247549 
L 178.089189 100.275327 
L 179.155793 101.49997 
L 180.384658 103.004618 
L 180.453904 103.871367 
L 181.302524 105.073088 
L 181.324568 105.719388 
L 182.644146 107.22562 
L 183.195618 107.253409 
L 183.723225 107.874388 
L 184.188679 108.050192 
L 188.049028 108.244628 
L 188.760267 108.01759 
L 189.909981 106.844853 
L 190.610934 106.839823 
L 191.062554 106.529505 
L 191.430209 106.548024 
L 191.698765 106.442078 
L 194.375817 103.601828 
L 194.400632 102.984769 
L 196.839829 100.4163 
L 196.864655 99.799229 
L 197.377018 99.206716 
L 197.563796 99.010017 
L 197.588621 98.392947 
L 197.749447 98.111304 
L 198.99206 96.686342 
L 199.107444 96.00812 
L 201.108072 93.856654 
L 201.132898 93.239583 
L 201.832028 92.450382 
L 201.856854 91.833312 
L 202.371889 91.240945 
L 202.557443 91.008337 
L 202.745927 87.285514 
L 203.034082 86.990868 
L 203.158245 83.971253 
L 202.860041 83.487262 
L 202.884867 82.870191 
L 201.857591 81.596743 
L 201.389555 81.28641 
L 198.889399 81.090284 
L 198.599194 80.772488 
L 196.594876 80.626714 
L 196.331548 80.30429 
L 196.361543 79.127408 
L 196.465462 78.701012 
L 197.906223 77.227793 
L 198.129054 76.6655 
L 198.295467 74.686 
L 198.48757 74.48957 
L 198.560906 74.225944 
L 198.581874 72.112148 
L 198.325512 71.782599 
L 198.350338 71.165529 
L 198.157719 70.810841 
L 196.841077 69.198719 
L 196.940161 68.925907 
L 197.114444 68.707658 
L 197.139269 68.090633 
L 197.901409 67.22841 
L 198.861924 66.246257 
L 199.426278 66.252281 
L 199.607367 66.330113 
L 200.134024 66.974962 
L 201.128022 67.084761 
L 202.21643 67.103737 
L 203.66031 65.71879 
L 204.32184 65.665489 
L 204.608195 65.415557 
L 205.016374 65.787096 
L 205.666451 65.719772 
L 205.985139 65.462512 
L 206.536621 65.49029 
L 206.630048 64.428637 
L 206.696681 63.237147 
L 207.272968 62.647876 
L 207.381119 62.348653 
L 207.358108 60.962972 
L 207.159684 60.619933 
L 207.735992 60.030641 
L 208.402607 59.983567 
L 209.229738 60.12678 
L 209.527859 60.413628 
L 210.079342 60.441406 
L 211.442068 62.003571 
L 212.778828 62.02013 
L 213.066982 61.725484 
L 214.531307 61.657356 
L 214.874162 61.429686 
L 215.425644 61.457464 
L 217.51683 59.244847 
L 217.616084 58.503084 
L 217.91569 58.222461 
L 218.602274 58.309323 
L 218.865602 58.631748 
L 218.926489 60.270225 
L 219.128558 60.655288 
L 219.106396 61.27247 
L 219.733434 62.209134 
L 219.606174 63.614092 
L 219.330734 63.924305 
L 219.305908 64.541376 
L 218.424955 65.536516 
L 217.272359 66.715078 
L 216.681059 66.748033 
L 216.425347 66.866579 
L 216.194435 67.231314 
L 216.13922 67.873745 
L 212.267129 71.753034 
L 211.715647 71.725255 
L 211.141137 72.269834 
L 210.977025 72.500537 
L 210.868188 73.978118 
L 210.580034 74.272764 
L 210.486031 75.083478 
L 209.909722 75.67277 
L 209.818097 76.423873 
L 209.685479 77.331252 
L 209.493376 77.527682 
L 209.390691 78.753158 
L 209.387729 80.651272 
L 209.634362 80.990768 
L 209.702504 81.818651 
L 210.22916 82.4635 
L 210.217649 83.081218 
L 210.452315 83.518698 
L 213.06851 86.869019 
L 213.079783 87.517785 
L 214.923072 89.774744 
L 215.669979 90.220114 
L 218.427383 90.358994 
L 218.814274 90.629393 
L 219.58928 91.537662 
L 220.270298 91.630215 
L 220.533627 91.95264 
L 222.564822 92.093785 
L 222.82814 92.416198 
L 223.84592 92.498845 
L 224.289957 92.410671 
L 224.48206 92.214241 
L 225.334205 92.200418 
L 226.612425 92.179662 
L 226.918388 91.906822 
L 227.46985 91.934622 
L 228.101757 92.617612 
L 228.803966 93.477411 
L 228.847764 94.313001 
L 229.555849 95.026743 
L 230.098974 95.063045 
L 230.362303 95.385469 
L 232.023861 95.524427 
L 234.486348 95.561842 
L 234.833544 95.292572 
L 236.137859 95.419506 
L 236.401187 95.74193 
L 239.1013 95.845074 
L 239.549116 95.530097 
L 240.091689 95.546967 
L 240.51787 95.205502 
L 241.069353 95.23328 
L 242.018474 94.534326 
L 242.386129 94.552845 
L 242.921592 94.082496 
L 243.497901 93.493204 
L 243.576203 91.646674 
L 243.870439 90.968494 
L 246.175674 88.611325 
L 246.647872 88.420036 
L 247.730485 88.450673 
L 248.494798 87.766316 
L 249.046281 87.794094 
L 250.507596 86.374178 
L 251.188207 86.34424 
L 251.476361 86.049594 
L 252.178595 86.046133 
L 252.496648 85.572273 
L 252.570502 84.930804 
L 253.916638 83.454288 
L 254.027344 82.726548 
L 254.29691 82.296555 
L 254.441641 80.159138 
L 254.728524 79.862935 
L 254.753329 79.245886 
L 254.90872 78.966943 
L 256.061337 77.788359 
L 256.800485 77.730012 
L 257.56602 77.678965 
L 259.574875 75.521942 
L 259.599711 74.904884 
L 260.695196 73.819001 
L 261.373263 73.785949 
L 261.658875 73.48819 
L 261.727595 72.709042 
L 262.015749 72.414396 
L 262.155888 70.158767 
L 262.844127 70.13817 
L 263.132281 69.843524 
L 263.29451 68.963047 
L 263.486613 68.766616 
L 263.625267 66.481059 
L 265.077886 65.078606 
L 265.743208 65.029997 
L 266.142548 64.758852 
L 268.731715 64.832536 
L 269.01987 64.53789 
L 269.818155 64.436213 
L 270.010258 64.239783 
L 273.98384 64.407083 
L 275.462066 64.590555 
L 275.767154 64.870279 
L 276.42451 64.987028 
L 276.668182 65.366712 
L 276.502751 66.890736 
L 275.926442 67.480028 
L 275.82407 68.299299 
L 275.061426 68.941933 
L 274.420249 69.020153 
L 274.171527 69.363082 
L 274.065917 70.097061 
L 273.759953 70.369901 
L 273.07555 70.395146 
L 272.787395 70.689792 
L 272.05313 70.726007 
L 271.290606 71.365638 
L 270.738414 71.355748 
L 270.162105 71.94504 
L 269.888583 72.04178 
L 268.646271 72.065837 
L 268.259114 72.333095 
L 266.604666 72.249759 
L 266.038432 72.588648 
L 264.309506 74.356524 
L 264.095789 75.289649 
L 262.516774 77.047163 
L 262.386988 77.75154 
L 262.140809 78.097582 
L 262.115983 78.714653 
L 261.408567 79.709555 
L 261.392017 80.120935 
L 261.079755 80.517409 
L 260.695549 80.910271 
L 260.634623 83.187813 
L 260.91474 83.690299 
L 260.98882 84.403463 
L 261.204814 84.774266 
L 261.179988 85.391337 
L 262.126887 86.738402 
L 262.0524 88.589602 
L 253.611913 80.112877 
L 226.553929 52.162241 
L 226.553929 52.162241 
" clip-path="url(#pe064b9f742)" style="fill: none; stroke: #808080; stroke-width: 1.5; stroke-linecap: square"/>
   </g>
   <g id="text_2">
    <!-- 384 -->
    <g transform="translate(203.98875 21.6) scale(0.14 -0.14)">
     <defs>
      <path id="DejaVuSans-33" d="M 2597 2516 
Q 3050 2419 3304 2112 
Q 3559 1806 3559 1356 
Q 3559 666 3084 287 
Q 2609 -91 1734 -91 
Q 1441 -91 1130 -33 
Q 819 25 488 141 
L 488 750 
Q 750 597 1062 519 
Q 1375 441 1716 441 
Q 2309 441 2620 675 
Q 2931 909 2931 1356 
Q 2931 1769 2642 2001 
Q 2353 2234 1838 2234 
L 1294 2234 
L 1294 2753 
L 1863 2753 
Q 2328 2753 2575 2939 
Q 2822 3125 2822 3475 
Q 2822 3834 2567 4026 
Q 2313 4219 1838 4219 
Q 1578 4219 1281 4162 
Q 984 4106 628 3988 
L 628 4550 
Q 988 4650 1302 4700 
Q 1616 4750 1894 4750 
Q 2613 4750 3031 4423 
Q 3450 4097 3450 3541 
Q 3450 3153 3228 2886 
Q 3006 2619 2597 2516 
z
" transform="scale(0.015625)"/>
      <path id="DejaVuSans-38" d="M 2034 2216 
Q 1584 2216 1326 1975 
Q 1069 1734 1069 1313 
Q 1069 891 1326 650 
Q 1584 409 2034 409 
Q 2484 409 2743 651 
Q 3003 894 3003 1313 
Q 3003 1734 2745 1975 
Q 2488 2216 2034 2216 
z
M 1403 2484 
Q 997 2584 770 2862 
Q 544 3141 544 3541 
Q 544 4100 942 4425 
Q 1341 4750 2034 4750 
Q 2731 4750 3128 4425 
Q 3525 4100 3525 3541 
Q 3525 3141 3298 2862 
Q 3072 2584 2669 2484 
Q 3125 2378 3379 2068 
Q 3634 1759 3634 1313 
Q 3634 634 3220 271 
Q 2806 -91 2034 -91 
Q 1263 -91 848 271 
Q 434 634 434 1313 
Q 434 1759 690 2068 
Q 947 2378 1403 2484 
z
M 1172 3481 
Q 1172 3119 1398 2916 
Q 1625 2713 2034 2713 
Q 2441 2713 2670 2916 
Q 2900 3119 2900 3481 
Q 2900 3844 2670 4047 
Q 2441 4250 2034 4250 
Q 1625 4250 1398 4047 
Q 1172 3844 1172 3481 
z
" transform="scale(0.015625)"/>
     </defs>
     <use xlink:href="#DejaVuSans-33"/>
     <use xlink:href="#DejaVuSans-38" x="63.623047"/>
     <use xlink:href="#DejaVuSans-34" x="127.246094"/>
    </g>
   </g>
  </g>
  <g id="axes_3">
   <g id="patch_4">
    <path d="M 293.4 133.2 
L 423.9 133.2 
L 423.9 27.6 
L 293.4 27.6 
z
" style="fill: #ffffff"/>
   </g>
   <g id="matplotlib.axis_5"/>
   <g id="matplotlib.axis_6"/>
   <g id="line2d_3">
    <path d="M 416.927734 128.393976 
L 414.634862 128.11062 
L 414.298551 127.69673 
L 412.493726 127.539502 
L 411.686449 128.222482 
L 411.489411 128.399079 
L 410.053966 128.308988 
L 409.551572 128.188982 
L 409.054982 127.739895 
L 408.324552 127.679211 
L 407.356252 126.542962 
L 406.683603 125.715149 
L 406.199721 125.558289 
L 404.00846 125.37624 
L 403.627092 125.535595 
L 402.324122 126.814669 
L 402.153629 127.65263 
L 401.28656 127.633331 
L 400.892455 127.986553 
L 400.017504 127.961259 
L 398.037859 127.842244 
L 397.643754 128.195466 
L 397.064481 128.20202 
L 395.681555 128.010804 
L 394.911237 126.912884 
L 394.965758 125.018475 
L 393.724193 123.54963 
L 392.835239 123.452204 
L 392.356766 122.949927 
L 390.549775 122.750952 
L 389.297686 121.237486 
L 388.309754 121.04992 
L 387.927507 120.637554 
L 383.292889 120.154321 
L 382.956564 119.740415 
L 380.226807 119.511684 
L 379.364018 118.486277 
L 376.442428 118.057868 
L 375.769779 117.230055 
L 374.342696 117.078442 
L 373.823187 117.111605 
L 373.429097 117.464814 
L 371.348741 117.315803 
L 370.800905 117.270289 
L 370.223949 116.73918 
L 367.869691 113.841851 
L 367.432456 113.587755 
L 365.971625 113.466389 
L 365.564319 113.1161 
L 365.059833 112.495241 
L 364.407849 112.364276 
L 363.058172 112.143259 
L 362.20977 111.209464 
L 361.344885 111.090466 
L 361.00856 110.676559 
L 359.902621 110.531689 
L 357.241968 110.350503 
L 356.754765 110.720053 
L 356.418441 110.306146 
L 356.177845 110.222236 
L 353.543892 110.061247 
L 352.606467 110.948278 
L 352.556327 111.887381 
L 352.958368 112.42121 
L 352.775122 113.453052 
L 352.371697 113.794804 
L 351.443213 113.745867 
L 349.480179 115.498969 
L 348.567127 115.423113 
L 347.726294 114.388834 
L 346.813852 114.305256 
L 345.971913 113.285468 
L 345.882882 112.120191 
L 345.030404 111.2405 
L 344.299975 111.179817 
L 344.378188 109.582198 
L 344.46486 108.431504 
L 344.039304 107.739929 
L 343.215735 106.580695 
L 343.22319 105.679849 
L 342.863835 105.107763 
L 342.984989 104.20905 
L 343.379079 103.855841 
L 343.468629 103.223334 
L 343.526969 101.830872 
L 343.192124 101.32062 
L 343.648543 100.834509 
L 343.753808 99.916275 
L 344.216572 99.438005 
L 344.315477 98.511943 
L 344.788627 97.987852 
L 344.885438 96.112756 
L 344.084841 95.041974 
L 344.257254 93.158562 
L 345.220888 92.24892 
L 345.347479 90.347133 
L 344.505917 89.322525 
L 343.593112 89.243782 
L 342.752288 88.209 
L 342.742251 87.140941 
L 342.405926 86.727034 
L 341.502582 86.642505 
L 340.479722 85.585346 
L 339.749292 85.524662 
L 338.755076 84.345435 
L 338.513875 83.891308 
L 338.90798 83.538085 
L 339.04354 82.088621 
L 339.02507 81.510588 
L 338.667431 80.936908 
L 338.630208 79.968933 
L 337.95756 79.14112 
L 337.3135 79.003025 
L 335.999939 78.843339 
L 335.663615 78.429432 
L 335.684818 77.521214 
L 335.801034 75.431428 
L 335.496051 74.884019 
L 336.439183 74.105368 
L 336.826602 74.652358 
L 336.768796 75.419455 
L 336.921487 75.567772 
L 339.522194 75.733757 
L 339.613059 74.7978 
L 340.092879 74.301989 
L 340.136754 72.321635 
L 339.789751 71.917299 
L 338.79958 71.731714 
L 338.454062 71.320218 
L 336.528129 71.256221 
L 336.134039 71.60943 
L 335.224594 71.538013 
L 334.201749 70.480839 
L 333.371855 70.33048 
L 333.03553 69.916574 
L 330.38638 69.677762 
L 329.910993 69.979505 
L 329.25619 70.697034 
L 329.252205 71.59477 
L 329.737132 72.054311 
L 330.467561 72.114995 
L 331.489252 73.292143 
L 333.254949 75.465144 
L 333.388353 75.872146 
L 332.410927 76.651344 
L 331.547542 76.531002 
L 331.081205 76.054744 
L 330.210367 75.941081 
L 329.680201 75.452251 
L 327.913447 75.373545 
L 326.963769 76.1684 
L 326.516074 75.675489 
L 325.785644 75.614805 
L 325.526026 75.454711 
L 323.108184 72.436894 
L 323.080177 71.388956 
L 322.731446 70.986168 
L 321.817149 70.927239 
L 320.833342 71.790953 
L 319.995028 70.753976 
L 320.139478 68.836183 
L 318.048785 66.25265 
L 316.942687 65.947108 
L 316.690463 65.636702 
L 315.791061 65.548585 
L 313.325414 62.551125 
L 313.372266 62.279392 
L 314.346708 61.539821 
L 315.077137 61.600505 
L 315.10531 61.932899 
L 315.061988 62.508247 
L 315.506664 63.124122 
L 316.020321 63.62324 
L 316.75075 63.683924 
L 317.139033 63.40801 
L 317.73019 62.878176 
L 317.857433 62.264125 
L 318.137055 57.915621 
L 317.764309 57.355535 
L 317.792607 56.436009 
L 317.332006 55.954665 
L 316.41362 55.949824 
L 315.625425 56.656255 
L 315.38207 56.636542 
L 313.828606 54.66297 
L 314.299617 54.19485 
L 314.411875 53.239279 
L 315.369263 52.283932 
L 315.483556 49.371486 
L 315.09818 48.96371 
L 312.398316 48.713164 
L 312.534253 46.797556 
L 311.273056 45.245431 
L 311.437979 44.192619 
L 311.832069 43.83941 
L 311.9823 41.946129 
L 311.333504 41.096993 
L 311.165329 40.890024 
L 309.735749 40.740621 
L 309.370547 40.710295 
L 308.746349 41.199467 
L 308.166265 41.582454 
L 307.435836 41.52177 
L 306.698051 40.670789 
L 305.989385 39.943277 
L 305.131223 39.934938 
L 304.737118 40.288161 
L 303.744249 40.242849 
L 302.810784 40.109653 
L 302.474459 39.695746 
L 301.873623 39.60134 
L 300.777991 39.51033 
L 300.469399 39.339581 
L 299.331818 37.842452 
L 299.439824 36.92759 
L 299.833929 36.574367 
L 300.177569 36.543846 
L 303.608439 36.795118 
L 304.127345 36.385909 
L 305.017281 36.43335 
L 305.411386 36.080128 
L 305.659514 36.027103 
L 309.185896 36.300878 
L 309.692082 35.876016 
L 310.679867 35.862813 
L 314.56059 32.4 
L 314.9857 32.913153 
L 315.896739 32.990785 
L 315.824514 33.949682 
L 316.657774 35.176773 
L 316.599994 35.943902 
L 317.433239 37.171008 
L 317.375458 37.938137 
L 318.617864 39.87833 
L 318.633548 40.579615 
L 318.984209 41.159494 
L 318.926428 41.926623 
L 319.370655 42.542462 
L 319.759688 43.153715 
L 319.746023 44.060126 
L 320.082348 44.474033 
L 320.074642 45.116989 
L 320.017726 46.505919 
L 320.354024 46.919794 
L 320.354874 47.541609 
L 320.289402 48.951681 
L 320.669843 49.504869 
L 320.63385 50.431292 
L 320.961481 50.97281 
L 320.02538 51.916337 
L 319.931053 53.789207 
L 320.732308 54.820686 
L 320.752881 55.856318 
L 323.229899 58.875149 
L 324.14143 58.970817 
L 324.983174 59.993007 
L 325.895798 60.074168 
L 326.736596 61.108918 
L 327.738299 61.285982 
L 328.074598 61.699857 
L 329.075447 61.875871 
L 329.578491 62.319176 
L 330.308921 62.379859 
L 331.304015 63.562808 
L 331.556265 63.873246 
L 332.5819 64.026991 
L 334.436761 64.251082 
L 334.789406 64.829183 
L 334.731625 65.596312 
L 334.425291 65.638433 
L 333.74635 65.641083 
L 333.352245 65.994306 
L 332.735346 65.984131 
L 331.417579 65.926424 
L 331.023473 66.279646 
L 330.930781 66.898749 
L 330.844123 68.049458 
L 330.996897 68.270175 
L 332.71011 68.371684 
L 333.1042 68.018475 
L 333.44627 67.9876 
L 336.912973 68.208516 
L 337.846127 67.261362 
L 337.936985 65.391601 
L 337.158646 64.384618 
L 337.739547 63.96939 
L 340.407332 64.175719 
L 340.910116 63.746702 
L 341.89906 63.933387 
L 342.248122 64.343961 
L 344.170693 64.406462 
L 344.564783 64.053253 
L 345.475288 64.125975 
L 348.132726 61.916265 
L 348.863156 61.976949 
L 353.425351 58.060074 
L 353.922725 58.508514 
L 354.653098 58.569194 
L 355.622584 59.708449 
L 356.295233 60.536262 
L 357.017148 60.709989 
L 358.112765 60.801013 
L 358.56279 60.51661 
L 359.341904 59.930934 
L 360.20516 59.94554 
L 360.599265 59.592318 
L 361.210793 59.600103 
L 362.30641 59.691127 
L 362.686542 59.523421 
L 364.262963 58.11053 
L 364.730608 57.948137 
L 366.921897 58.130189 
L 367.358538 58.038858 
L 368.790901 56.827172 
L 369.745191 56.800713 
L 371.186069 55.567868 
L 372.074738 55.61375 
L 372.680563 55.205933 
L 375.365625 55.367028 
L 376.793935 54.055376 
L 376.905119 53.086306 
L 378.351755 51.807774 
L 378.369815 52.864573 
L 378.703655 53.280706 
L 378.63143 54.239603 
L 379.541969 54.317683 
L 382.10961 52.188511 
L 382.445908 52.602386 
L 382.524352 53.754633 
L 383.376711 54.636272 
L 384.214785 54.779301 
L 384.55111 55.193207 
L 385.934084 55.334836 
L 386.299271 55.365176 
L 386.746323 55.077114 
L 387.525154 54.494826 
L 388.378133 54.624495 
L 388.714457 55.038402 
L 389.324528 55.130415 
L 390.642952 55.188415 
L 391.128407 54.842069 
L 391.464731 55.255976 
L 392.042879 55.356255 
L 393.138552 55.447284 
L 393.515891 55.316284 
L 395.405423 53.691223 
L 396.135853 53.751907 
L 396.371503 53.904669 
L 398.062004 55.856323 
L 399.895836 55.904657 
L 401.778373 54.175945 
L 401.96543 53.148826 
L 402.401192 52.814137 
L 403.862051 52.935504 
L 404.312302 52.847263 
L 409.64502 48.05333 
L 409.72508 47.095054 
L 410.709475 46.210961 
L 410.853925 44.293168 
L 413.846399 41.433177 
L 413.90418 40.666048 
L 414.869664 39.781363 
L 415.065453 37.538272 
L 415.19716 36.785058 
L 415.591265 36.431835 
L 416.313911 37.27472 
L 416.810895 38.041507 
L 416.41679 38.394729 
L 416.280523 39.841197 
L 416.297873 40.422105 
L 416.780074 40.88409 
L 417.510503 40.944774 
L 417.562502 41.255812 
L 417.519166 41.831174 
L 416.901189 42.465217 
L 415.519867 43.795133 
L 415.360694 44.746836 
L 414.455488 45.636499 
L 414.349572 46.553997 
L 413.887441 47.033046 
L 413.829661 47.800175 
L 413.691868 48.044401 
L 411.830375 49.76415 
L 411.737183 50.697243 
L 411.262346 51.160655 
L 411.158397 52.116916 
L 410.19798 53.002036 
L 410.1078 53.959456 
L 409.13357 54.843429 
L 409.050508 55.807997 
L 406.587388 58.015604 
L 406.435921 59.934298 
L 406.850346 60.466486 
L 407.754432 60.550349 
L 409.217814 59.261757 
L 410.819333 59.346687 
L 412.093662 59.529356 
L 412.429986 59.943263 
L 412.311859 59.956784 
L 411.581442 59.896116 
L 410.994323 60.372317 
L 410.600218 60.72554 
L 409.923162 60.730542 
L 408.827533 60.639502 
L 408.38016 60.913444 
L 406.105231 62.843808 
L 405.240075 62.826864 
L 404.845969 63.180086 
L 404.75557 63.808873 
L 404.605604 65.197372 
L 404.211499 65.550595 
L 404.073784 66.715502 
L 403.784421 69.53708 
L 402.868628 70.425893 
L 402.767603 71.349346 
L 402.300599 71.822398 
L 402.277124 72.785359 
L 403.204948 73.783133 
L 405.858049 73.985053 
L 406.33995 73.498181 
L 406.591008 71.526273 
L 406.99168 71.181132 
L 407.895602 71.279549 
L 407.763329 74.258563 
L 408.099653 74.672469 
L 407.959181 76.580401 
L 408.785589 77.628049 
L 409.879821 77.918986 
L 410.135985 78.404737 
L 410.140194 79.295129 
L 410.487898 79.877685 
L 410.430105 80.644799 
L 410.115288 80.676513 
L 409.567482 80.630972 
L 408.981199 81.096087 
L 408.587094 81.44931 
L 408.442723 82.450351 
L 408.312717 84.176376 
L 408.509161 84.431859 
L 410.126757 84.672211 
L 410.011538 85.578196 
L 409.558728 86.068716 
L 409.449869 86.982528 
L 408.923778 87.382862 
L 408.193361 87.322194 
L 408.06611 87.450652 
L 408.012296 89.344867 
L 409.173659 90.833795 
L 408.779553 91.187018 
L 408.687533 91.490215 
L 408.376666 96.127533 
L 409.18619 97.159685 
L 409.004226 98.193072 
L 408.618174 98.556206 
L 408.561378 99.521977 
L 409.817202 101.071742 
L 409.827338 102.135671 
L 410.163662 102.549578 
L 411.071232 102.630319 
L 412.738508 104.662671 
L 412.741104 105.267111 
L 412.627903 105.756429 
L 412.068565 106.115847 
L 411.219046 106.11821 
L 410.824971 106.471406 
L 410.689749 107.922381 
L 410.660861 108.305916 
L 410.934142 108.776326 
L 411.489498 109.594395 
L 411.431717 110.361524 
L 411.830737 110.935452 
L 412.587461 111.866734 
L 412.680383 112.2186 
L 412.640148 114.04299 
L 413.312797 114.870802 
L 413.384167 115.164507 
L 413.290936 116.955314 
L 413.664402 117.589098 
L 413.456387 119.428728 
L 412.528327 120.38215 
L 412.418023 122.215286 
L 412.812368 122.756012 
L 412.781538 123.718363 
L 413.587861 124.750249 
L 413.614585 125.799282 
L 414.003483 126.206624 
L 416.720238 126.454212 
L 417.968182 127.997952 
L 417.574077 128.351175 
L 417.574077 128.351175 
" clip-path="url(#pe4ce7bb61d)" style="fill: none; stroke: #808080; stroke-width: 1.5; stroke-linecap: square"/>
   </g>
   <g id="text_3">
    <!-- 547 -->
    <g transform="translate(345.28875 21.6) scale(0.14 -0.14)">
     <defs>
      <path id="DejaVuSans-37" d="M 525 4666 
L 3525 4666 
L 3525 4397 
L 1831 0 
L 1172 0 
L 2766 4134 
L 525 4134 
L 525 4666 
z
" transform="scale(0.015625)"/>
     </defs>
     <use xlink:href="#DejaVuSans-35"/>
     <use xlink:href="#DejaVuSans-34" x="63.623047"/>
     <use xlink:href="#DejaVuSans-37" x="127.246094"/>
    </g>
   </g>
  </g>
  <g id="axes_4">
   <g id="patch_5">
    <path d="M 434.7 133.2 
L 565.2 133.2 
L 565.2 27.6 
L 434.7 27.6 
z
" style="fill: #ffffff"/>
   </g>
   <g id="matplotlib.axis_7"/>
   <g id="matplotlib.axis_8"/>
   <g id="line2d_4">
    <path d="M 472.858502 35.34737 
L 473.955107 34.917248 
L 473.929231 34.862799 
L 473.773973 34.536094 
L 474.375081 34.29129 
L 475.036462 34.044176 
L 475.010587 33.989727 
L 474.855322 33.663009 
L 475.285924 33.460859 
L 477.27666 32.719266 
L 479.956212 32.581763 
L 484.9511 32.447113 
L 486.657043 32.749878 
L 487.901815 32.779512 
L 488.269785 33.539695 
L 489.965589 33.97371 
L 490.120854 34.300427 
L 491.588522 34.632289 
L 491.800938 34.68724 
L 492.525492 36.211894 
L 492.756129 36.382344 
L 496.254814 37.055509 
L 497.421798 37.069427 
L 497.527238 37.453494 
L 496.040863 37.913408 
L 493.205168 38.08132 
L 492.121793 38.510935 
L 492.147668 38.565384 
L 492.302927 38.892089 
L 488.498485 40.325786 
L 487.226791 40.804676 
L 487.252666 40.859125 
L 487.353712 41.24336 
L 485.862304 41.702197 
L 483.152715 41.790713 
L 477.935338 40.731358 
L 476.784686 40.775444 
L 479.609663 39.708104 
L 480.540146 39.328325 
L 479.466194 37.249471 
L 477.553373 36.922335 
L 476.182108 36.913054 
L 474.73359 36.555384 
L 474.371316 35.793063 
L 457.671233 58.258782 
L 440.631818 81.239874 
L 440.797703 81.178078 
L 442.162735 80.763382 
L 443.650268 80.606555 
L 444.755016 80.23921 
L 452.29135 80.032249 
L 453.597215 80.31487 
L 460.201587 80.246859 
L 461.463827 80.44873 
L 465.989361 80.376456 
L 467.476231 80.643222 
L 477.877272 80.134251 
L 482.609991 78.317671 
L 482.584115 78.263222 
L 482.490538 77.924585 
L 484.962562 76.971042 
L 484.936686 76.916594 
L 484.781422 76.589876 
L 487.296096 75.584354 
L 486.414876 73.515956 
L 487.577449 73.027866 
L 487.4338 72.645263 
L 488.64502 72.125787 
L 488.282746 71.363466 
L 490.79702 70.357105 
L 490.115553 68.699525 
L 491.276786 68.266939 
L 490.91756 67.462222 
L 490.774093 66.980841 
L 493.215306 66.000227 
L 492.853032 65.237907 
L 494.106796 64.727627 
L 494.055039 64.618716 
L 493.81619 63.883108 
L 494.977424 63.450523 
L 493.618289 60.551148 
L 493.24876 59.6744 
L 494.410032 59.2418 
L 494.420056 59.089747 
L 493.695508 57.565106 
L 494.668165 57.181157 
L 494.951456 57.059423 
L 494.925575 57.004961 
L 494.857587 56.619472 
L 496.018859 56.186872 
L 493.496999 50.74175 
L 494.693243 50.21901 
L 494.330969 49.456689 
L 492.602897 48.968899 
L 490.940286 45.722166 
L 489.416734 45.392432 
L 488.146954 42.740943 
L 488.072982 42.467199 
L 489.756877 42.312611 
L 490.733705 41.887091 
L 490.617611 41.520002 
L 492.240806 41.387292 
L 494.758882 40.511631 
L 496.196225 40.404946 
L 499.83863 39.006552 
L 499.812754 38.952103 
L 499.657496 38.625398 
L 501.18178 38.14129 
L 502.75888 38.172842 
L 504.448414 38.440983 
L 505.752752 38.446449 
L 510.581724 39.573156 
L 510.740148 39.900181 
L 514.090223 40.658907 
L 514.452497 41.421228 
L 515.05265 41.5822 
L 516.523949 41.801979 
L 517.831264 41.676691 
L 519.202244 41.274512 
L 520.571325 41.279195 
L 522.033808 41.631663 
L 522.396082 42.393984 
L 523.217756 42.600625 
L 524.13199 42.898264 
L 524.359989 43.222182 
L 525.989645 43.658731 
L 526.155218 43.985041 
L 527.847299 44.419198 
L 528.002564 44.745916 
L 527.225256 45.052911 
L 526.741756 45.241374 
L 527.068238 46.093645 
L 525.882883 46.582608 
L 525.908759 46.637057 
L 526.023859 46.973806 
L 522.089728 48.386346 
L 519.018883 48.601074 
L 518.004353 48.967724 
L 514.887494 49.157883 
L 511.403761 50.455666 
L 511.384159 50.707285 
L 512.260431 52.592127 
L 511.028349 53.1071 
L 511.390623 53.86942 
L 510.776256 54.127257 
L 510.174233 54.458343 
L 513.202972 60.647513 
L 514.726518 60.977234 
L 515.061556 61.594037 
L 515.619745 62.667917 
L 518.93976 63.457745 
L 519.095025 63.784463 
L 522.494558 64.640921 
L 522.935047 65.37412 
L 524.45851 65.703857 
L 524.795889 66.335 
L 525.126772 66.971502 
L 526.787888 67.378165 
L 527.150162 68.140486 
L 532.226276 69.256661 
L 533.886476 69.721354 
L 534.015859 69.993611 
L 536.20042 70.491112 
L 540.74752 71.564687 
L 540.971809 71.898095 
L 544.260176 72.659186 
L 544.622456 73.421519 
L 546.406545 74.027184 
L 546.609251 74.241191 
L 548.212448 74.678753 
L 548.40448 75.004049 
L 550.070103 75.43922 
L 550.225367 75.765938 
L 551.917645 76.178409 
L 552.807359 77.828645 
L 554.330911 78.158379 
L 554.988636 79.492058 
L 555.395752 80.260531 
L 557.045373 80.671447 
L 557.407653 81.43378 
L 559.16468 81.9825 
L 559.186069 82.258882 
L 558.054865 82.795687 
L 558.365434 83.546828 
L 557.204162 83.979428 
L 557.207992 84.162172 
L 558.11368 86.06798 
L 557.476128 86.333719 
L 556.866755 86.592649 
L 557.153225 87.436249 
L 556.003119 87.923862 
L 556.134301 88.306942 
L 554.92177 88.796946 
L 554.947645 88.851395 
L 555.10291 89.178113 
L 553.847452 89.684828 
L 554.209732 90.447161 
L 553.429083 90.788059 
L 550.440792 91.961905 
L 550.596057 92.288623 
L 550.426445 92.39773 
L 545.545796 94.255659 
L 545.571672 94.310108 
L 545.726936 94.636826 
L 540.6508 96.549413 
L 540.676676 96.603861 
L 540.83194 96.930579 
L 538.431233 97.848457 
L 535.57066 98.851945 
L 534.134546 98.957949 
L 530.650807 100.255719 
L 530.540064 100.461989 
L 531.264612 101.986631 
L 530.04476 102.56827 
L 531.131576 104.855219 
L 531.076416 105.008379 
L 529.915144 105.440979 
L 529.939585 105.495483 
L 530.057492 105.879072 
L 528.896298 106.311643 
L 529.099743 106.876765 
L 530.031528 108.83595 
L 531.751457 109.308143 
L 532.838273 111.595092 
L 533.253482 111.779292 
L 534.608189 112.170935 
L 534.831081 112.495062 
L 536.354531 112.824774 
L 536.684459 113.391428 
L 537.617662 115.344179 
L 539.307914 115.76334 
L 539.851321 116.906815 
L 540.462383 117.082863 
L 541.59506 117.427572 
L 541.822347 117.751531 
L 543.445277 118.17239 
L 543.81577 118.931634 
L 545.502813 119.353459 
L 546.046233 120.496959 
L 546.660593 120.670339 
L 547.788773 121.015195 
L 548.020455 121.338985 
L 549.646433 121.775675 
L 549.81569 122.101856 
L 551.33914 122.431568 
L 551.531252 122.593302 
L 552.61808 124.880277 
L 552.285535 125.101398 
L 548.845873 126.388145 
L 548.871748 126.442594 
L 549.1337 126.820665 
L 550.76867 127.285689 
L 551.242145 128.4 
L 546.264181 127.252643 
L 546.108928 126.92595 
L 540.990534 125.601083 
L 540.731768 125.05657 
L 539.75989 124.791945 
L 535.65353 123.816203 
L 535.475483 123.490357 
L 533.798144 123.060511 
L 533.254737 121.917036 
L 530.762026 121.347234 
L 528.225175 120.779098 
L 527.538688 119.52662 
L 526.01518 119.196885 
L 525.609757 118.424095 
L 525.004693 117.09265 
L 526.165965 116.660051 
L 526.202826 116.523539 
L 525.478278 114.998897 
L 524.628703 114.779089 
L 523.767653 114.547818 
L 522.680825 112.260843 
L 522.28151 112.025054 
L 517.247857 111.02494 
L 515.875309 111.01296 
L 514.569438 110.730326 
L 514.34414 110.460902 
L 512.713904 107.030452 
L 511.475614 106.691708 
L 507.663913 105.849525 
L 507.164735 105.010029 
L 505.641183 104.680295 
L 504.612256 102.57656 
L 503.584907 100.4919 
L 501.917227 100.054034 
L 501.373819 98.910559 
L 500.087221 98.611888 
L 499.679847 98.494523 
L 498.983688 97.25004 
L 497.384168 96.812337 
L 497.188497 96.487167 
L 495.538211 96.076484 
L 495.175943 95.314176 
L 491.739515 94.380082 
L 491.117785 93.301635 
L 489.525335 92.869391 
L 489.124306 92.121508 
L 487.466711 91.68603 
L 487.311458 91.359337 
L 483.91538 90.510151 
L 483.786003 90.237907 
L 482.215812 89.877676 
L 480.389938 89.388746 
L 480.185433 89.063914 
L 478.532277 88.628266 
L 478.377013 88.301548 
L 473.128652 87.224269 
L 471.507079 87.185709 
L 466.526429 86.202674 
L 465.150949 86.184428 
L 463.451599 85.895632 
L 462.300992 85.939717 
L 456.849376 84.874037 
L 455.464867 84.836792 
L 453.781139 84.566743 
L 450.928924 84.603805 
L 449.299275 84.31361 
L 446.554503 84.309164 
L 446.467599 83.997252 
L 448.201043 83.822498 
L 451.684826 82.524725 
L 446.499774 81.446914 
L 442.472583 81.601212 
L 444.909429 77.612386 
L 468.723586 41.438201 
L 468.723586 41.438201 
" clip-path="url(#pe1b3066203)" style="fill: none; stroke: #808080; stroke-width: 1.5; stroke-linecap: square"/>
   </g>
   <g id="text_4">
    <!-- 606 -->
    <g transform="translate(486.58875 21.6) scale(0.14 -0.14)">
     <defs>
      <path id="DejaVuSans-36" d="M 2113 2584 
Q 1688 2584 1439 2293 
Q 1191 2003 1191 1497 
Q 1191 994 1439 701 
Q 1688 409 2113 409 
Q 2538 409 2786 701 
Q 3034 994 3034 1497 
Q 3034 2003 2786 2293 
Q 2538 2584 2113 2584 
z
M 3366 4563 
L 3366 3988 
Q 3128 4100 2886 4159 
Q 2644 4219 2406 4219 
Q 1781 4219 1451 3797 
Q 1122 3375 1075 2522 
Q 1259 2794 1537 2939 
Q 1816 3084 2150 3084 
Q 2853 3084 3261 2657 
Q 3669 2231 3669 1497 
Q 3669 778 3244 343 
Q 2819 -91 2113 -91 
Q 1303 -91 875 529 
Q 447 1150 447 2328 
Q 447 3434 972 4092 
Q 1497 4750 2381 4750 
Q 2619 4750 2861 4703 
Q 3103 4656 3366 4563 
z
" transform="scale(0.015625)"/>
      <path id="DejaVuSans-30" d="M 2034 4250 
Q 1547 4250 1301 3770 
Q 1056 3291 1056 2328 
Q 1056 1369 1301 889 
Q 1547 409 2034 409 
Q 2525 409 2770 889 
Q 3016 1369 3016 2328 
Q 3016 3291 2770 3770 
Q 2525 4250 2034 4250 
z
M 2034 4750 
Q 2819 4750 3233 4129 
Q 3647 3509 3647 2328 
Q 3647 1150 3233 529 
Q 2819 -91 2034 -91 
Q 1250 -91 836 529 
Q 422 1150 422 2328 
Q 422 3509 836 4129 
Q 1250 4750 2034 4750 
z
" transform="scale(0.015625)"/>
     </defs>
     <use xlink:href="#DejaVuSans-36"/>
     <use xlink:href="#DejaVuSans-30" x="63.623047"/>
     <use xlink:href="#DejaVuSans-36" x="127.246094"/>
    </g>
   </g>
  </g>
 </g>
 <defs>
  <clipPath id="p7ca97a3d6a">
   <rect x="10.8" y="27.6" width="130.5" height="105.6"/>
  </clipPath>
  <clipPath id="pe064b9f742">
   <rect x="152.1" y="27.6" width="130.5" height="105.6"/>
  </clipPath>
  <clipPath id="pe4ce7bb61d">
   <rect x="293.4" y="27.6" width="130.5" height="105.6"/>
  </clipPath>
  <clipPath id="pe1b3066203">
   <rect x="434.7" y="27.6" width="130.5" height="105.6"/>
  </clipPath>
 </defs>
</svg>
