<?xml version="1.0" encoding="utf-8" standalone="no"?>
<!DOCTYPE svg PUBLIC "-//W3C//DTD SVG 1.1//EN"
  "http://www.w3.org/Graphics/SVG/1.1/DTD/svg11.dtd">
<svg xmlns:xlink="http://www.w3.org/1999/xlink" width="432pt" height="216pt" viewBox="0 0 432 216" xmlns="http://www.w3.org/2000/svg" version="1.1">
 <metadata>
  <rdf:RDF xmlns:dc="http://purl.org/dc/elements/1.1/" xmlns:cc="http://creativecommons.org/ns#" xmlns:rdf="http://www.w3.org/1999/02/22-rdf-syntax-ns#">
   <cc:Work>
    <dc:type rdf:resource="http://purl.org/dc/dcmitype/StillImage"/>
    <dc:date>2023-12-25T07:59:11.553154</dc:date>
    <dc:format>image/svg+xml</dc:format>
    <dc:creator>
     <cc:Agent>
      <dc:title>Matplotlib v3.6.2, https://matplotlib.org/</dc:title>
     </cc:Agent>
    </dc:creator>
   </cc:Work>
  </rdf:RDF>
 </metadata>
 <defs>
  <style type="text/css">*{stroke-linejoin: round; stroke-linecap: butt}</style>
 </defs>
 <g id="figure_1">
  <g id="patch_1">
   <path d="M 0 216 
L 432 216 
L 432 0 
L 0 0 
z
" style="fill: #ffffff"/>
  </g>
  <g id="axes_1">
   <g id="line2d_1">
    <path d="M 129.10688 172.433214 
L 127.013236 171.926399 
L 125.020312 170.985728 
L 123.137076 169.577316 
L 121.639553 167.716025 
L 120.313609 165.469954 
L 119.033902 162.492509 
L 117.689933 159.053017 
L 116.351327 155.462389 
L 114.697333 151.758123 
L 112.805219 148.12571 
L 110.853886 144.87488 
L 108.558556 141.80085 
L 106.485818 138.671338 
L 104.39211 135.242837 
L 102.261154 131.821185 
L 99.89071 128.400175 
L 97.851957 125.428099 
L 95.997325 122.530967 
L 94.277846 119.632829 
L 92.642205 116.361101 
L 91.531254 113.052751 
L 90.609477 109.602225 
L 89.790811 106.234173 
L 89.087164 102.649575 
L 88.475279 99.178204 
L 88.072079 95.363175 
L 87.623737 91.34178 
L 87.097587 87.543497 
L 86.547387 83.996581 
L 86.252783 80.55962 
L 86.015068 76.976412 
L 85.823807 73.465106 
L 85.650072 70.107412 
L 85.454889 66.921706 
L 85.454369 63.809925 
L 85.688138 60.519242 
L 85.881867 57.290973 
L 86.214574 54.253844 
L 86.745775 51.374995 
L 87.188623 48.548861 
L 87.778665 46.111074 
L 88.730516 43.517336 
L 90.112408 41.000146 
L 91.941533 38.887036 
L 94.01344 37.132371 
L 96.240041 35.987288 
L 99.03865 35.072714 
L 102.134019 34.322882 
L 105.444821 33.795944 
L 108.764384 33.48 
L 112.204872 33.710623 
L 116.051848 34.205129 
L 119.671376 34.753395 
L 123.533627 35.58821 
L 127.431739 36.488587 
L 131.136694 37.671944 
L 134.859633 39.309516 
L 138.419458 40.994616 
L 141.935622 43.299364 
L 145.205778 45.92138 
L 148.337141 48.651093 
L 151.246434 51.623247 
L 154.13357 54.923814 
L 156.764574 58.089253 
L 159.345486 61.685618 
L 161.759197 65.471652 
L 164.226114 69.266896 
L 166.748778 73.425517 
L 168.805866 77.69608 
L 170.578705 82.481624 
L 171.879945 87.08063 
L 172.884615 92.081583 
L 173.712893 97.010696 
L 174.294923 102.370749 
L 174.56262 107.227457 
L 174.727449 111.949946 
L 174.591374 116.469925 
L 174.259443 121.051848 
L 173.853291 125.539394 
L 173.091773 130.171319 
L 172.274461 134.625662 
L 171.31169 139.1235 
L 170.17789 143.322685 
L 168.903351 147.51426 
L 167.464681 151.384694 
L 165.974545 154.617872 
L 164.298051 158.071719 
L 162.307816 161.370053 
L 160.154131 164.576305 
L 157.878268 167.3014 
L 155.492605 169.886056 
L 153.216136 172.181331 
L 150.72268 174.494571 
L 148.082746 177.108072 
L 145.644996 179.28663 
L 143.077349 181.232645 
L 140.404083 182.915814 
L 137.717758 184.059429 
L 135.132859 184.68 
" clip-path="url(#p88d8460627)" style="fill: none; stroke: #1f77b4; stroke-width: 1.5; stroke-linecap: square"/>
   </g>
   <g id="text_1">
    <!-- SRV -->
    <g transform="translate(118.338409 19.92) scale(0.12 -0.12)">
     <defs>
      <path id="DejaVuSans-53" d="M 3425 4513 
L 3425 3897 
Q 3066 4069 2747 4153 
Q 2428 4238 2131 4238 
Q 1616 4238 1336 4038 
Q 1056 3838 1056 3469 
Q 1056 3159 1242 3001 
Q 1428 2844 1947 2747 
L 2328 2669 
Q 3034 2534 3370 2195 
Q 3706 1856 3706 1288 
Q 3706 609 3251 259 
Q 2797 -91 1919 -91 
Q 1588 -91 1214 -16 
Q 841 59 441 206 
L 441 856 
Q 825 641 1194 531 
Q 1563 422 1919 422 
Q 2459 422 2753 634 
Q 3047 847 3047 1241 
Q 3047 1584 2836 1778 
Q 2625 1972 2144 2069 
L 1759 2144 
Q 1053 2284 737 2584 
Q 422 2884 422 3419 
Q 422 4038 858 4394 
Q 1294 4750 2059 4750 
Q 2388 4750 2728 4690 
Q 3069 4631 3425 4513 
z
" transform="scale(0.015625)"/>
      <path id="DejaVuSans-52" d="M 2841 2188 
Q 3044 2119 3236 1894 
Q 3428 1669 3622 1275 
L 4263 0 
L 3584 0 
L 2988 1197 
Q 2756 1666 2539 1819 
Q 2322 1972 1947 1972 
L 1259 1972 
L 1259 0 
L 628 0 
L 628 4666 
L 2053 4666 
Q 2853 4666 3247 4331 
Q 3641 3997 3641 3322 
Q 3641 2881 3436 2590 
Q 3231 2300 2841 2188 
z
M 1259 4147 
L 1259 2491 
L 2053 2491 
Q 2509 2491 2742 2702 
Q 2975 2913 2975 3322 
Q 2975 3731 2742 3939 
Q 2509 4147 2053 4147 
L 1259 4147 
z
" transform="scale(0.015625)"/>
      <path id="DejaVuSans-56" d="M 1831 0 
L 50 4666 
L 709 4666 
L 2188 738 
L 3669 4666 
L 4325 4666 
L 2547 0 
L 1831 0 
z
" transform="scale(0.015625)"/>
     </defs>
     <use xlink:href="#DejaVuSans-53"/>
     <use xlink:href="#DejaVuSans-52" x="63.476562"/>
     <use xlink:href="#DejaVuSans-56" x="127.458984"/>
    </g>
   </g>
  </g>
  <g id="axes_2">
   <g id="line2d_2">
    <path d="M 313.39379 184.68 
L 310.653143 184.054067 
L 308.08749 182.803723 
L 305.767672 180.964439 
L 303.998785 178.56678 
L 302.509103 175.761294 
L 301.206841 172.391821 
L 299.866841 168.666437 
L 298.53637 164.847629 
L 296.929583 161.047778 
L 295.081046 157.359142 
L 293.117802 153.998703 
L 290.776314 150.814093 
L 288.615145 147.599629 
L 286.520021 144.104959 
L 284.331228 140.590423 
L 281.892297 137.178629 
L 279.738356 134.084918 
L 277.696344 131.022522 
L 275.807472 127.905044 
L 274.01283 124.379649 
L 272.862463 120.830703 
L 271.883067 117.127447 
L 271.015216 113.538591 
L 270.306186 109.744145 
L 269.684152 106.113593 
L 269.263838 102.219095 
L 268.782681 98.197029 
L 268.173256 94.261414 
L 267.543145 90.595817 
L 267.237453 86.966223 
L 266.967679 83.207939 
L 266.67611 79.457026 
L 266.431992 75.882278 
L 266.168779 72.400898 
L 266.164717 68.878879 
L 266.414072 65.182087 
L 266.620511 61.589671 
L 266.930047 58.09229 
L 267.52932 54.80725 
L 267.959236 51.504342 
L 268.611401 48.443807 
L 269.666743 45.348909 
L 271.298103 42.384131 
L 273.479346 39.81152 
L 275.938055 37.747364 
L 278.674245 36.341081 
L 282.000313 35.332068 
L 285.492913 34.418944 
L 289.191914 33.835985 
L 292.812015 33.48 
L 296.50399 33.745729 
L 300.529014 34.285007 
L 304.39984 34.9394 
L 308.371328 35.778994 
L 312.354555 36.703588 
L 316.235085 37.887191 
L 320.021961 39.525563 
L 323.637662 41.206999 
L 327.19647 43.512212 
L 330.485521 46.114481 
L 333.60681 48.807787 
L 336.520482 51.748867 
L 339.331495 55.0203 
L 341.927878 58.184424 
L 344.418417 61.648507 
L 346.733867 65.321247 
L 349.171646 69.033294 
L 351.609761 73.073454 
L 353.579874 77.168906 
L 355.314057 81.746116 
L 356.537754 86.275171 
L 357.443715 91.111173 
L 358.241526 95.783224 
L 358.817344 100.939597 
L 359.082431 105.549252 
L 359.253465 110.062488 
L 359.122537 114.432449 
L 358.799247 118.827923 
L 358.403363 123.180301 
L 357.642363 127.665087 
L 356.821264 131.985476 
L 355.871658 136.358431 
L 354.781125 140.408349 
L 353.526449 144.472399 
L 352.073603 148.385027 
L 350.478249 151.789394 
L 348.751636 155.349802 
L 346.660768 158.789984 
L 344.410864 162.146118 
L 341.920917 165.043535 
L 339.326603 167.844494 
L 336.823538 170.351556 
L 334.098617 172.940597 
L 331.264138 175.783266 
L 328.552317 178.239698 
L 325.676042 180.483331 
L 322.655239 182.414441 
L 319.519665 183.802769 
L 316.368044 184.620098 
" clip-path="url(#p9d52339185)" style="fill: none; stroke: #1f77b4; stroke-width: 1.5; stroke-linecap: square"/>
   </g>
   <g id="text_2">
    <!-- Linear -->
    <g transform="translate(294.061278 19.92) scale(0.12 -0.12)">
     <defs>
      <path id="DejaVuSans-4c" d="M 628 4666 
L 1259 4666 
L 1259 531 
L 3531 531 
L 3531 0 
L 628 0 
L 628 4666 
z
" transform="scale(0.015625)"/>
      <path id="DejaVuSans-69" d="M 603 3500 
L 1178 3500 
L 1178 0 
L 603 0 
L 603 3500 
z
M 603 4863 
L 1178 4863 
L 1178 4134 
L 603 4134 
L 603 4863 
z
" transform="scale(0.015625)"/>
      <path id="DejaVuSans-6e" d="M 3513 2113 
L 3513 0 
L 2938 0 
L 2938 2094 
Q 2938 2591 2744 2837 
Q 2550 3084 2163 3084 
Q 1697 3084 1428 2787 
Q 1159 2491 1159 1978 
L 1159 0 
L 581 0 
L 581 3500 
L 1159 3500 
L 1159 2956 
Q 1366 3272 1645 3428 
Q 1925 3584 2291 3584 
Q 2894 3584 3203 3211 
Q 3513 2838 3513 2113 
z
" transform="scale(0.015625)"/>
      <path id="DejaVuSans-65" d="M 3597 1894 
L 3597 1613 
L 953 1613 
Q 991 1019 1311 708 
Q 1631 397 2203 397 
Q 2534 397 2845 478 
Q 3156 559 3463 722 
L 3463 178 
Q 3153 47 2828 -22 
Q 2503 -91 2169 -91 
Q 1331 -91 842 396 
Q 353 884 353 1716 
Q 353 2575 817 3079 
Q 1281 3584 2069 3584 
Q 2775 3584 3186 3129 
Q 3597 2675 3597 1894 
z
M 3022 2063 
Q 3016 2534 2758 2815 
Q 2500 3097 2075 3097 
Q 1594 3097 1305 2825 
Q 1016 2553 972 2059 
L 3022 2063 
z
" transform="scale(0.015625)"/>
      <path id="DejaVuSans-61" d="M 2194 1759 
Q 1497 1759 1228 1600 
Q 959 1441 959 1056 
Q 959 750 1161 570 
Q 1363 391 1709 391 
Q 2188 391 2477 730 
Q 2766 1069 2766 1631 
L 2766 1759 
L 2194 1759 
z
M 3341 1997 
L 3341 0 
L 2766 0 
L 2766 531 
Q 2569 213 2275 61 
Q 1981 -91 1556 -91 
Q 1019 -91 701 211 
Q 384 513 384 1019 
Q 384 1609 779 1909 
Q 1175 2209 1959 2209 
L 2766 2209 
L 2766 2266 
Q 2766 2663 2505 2880 
Q 2244 3097 1772 3097 
Q 1472 3097 1187 3025 
Q 903 2953 641 2809 
L 641 3341 
Q 956 3463 1253 3523 
Q 1550 3584 1831 3584 
Q 2591 3584 2966 3190 
Q 3341 2797 3341 1997 
z
" transform="scale(0.015625)"/>
      <path id="DejaVuSans-72" d="M 2631 2963 
Q 2534 3019 2420 3045 
Q 2306 3072 2169 3072 
Q 1681 3072 1420 2755 
Q 1159 2438 1159 1844 
L 1159 0 
L 581 0 
L 581 3500 
L 1159 3500 
L 1159 2956 
Q 1341 3275 1631 3429 
Q 1922 3584 2338 3584 
Q 2397 3584 2469 3576 
Q 2541 3569 2628 3553 
L 2631 2963 
z
" transform="scale(0.015625)"/>
     </defs>
     <use xlink:href="#DejaVuSans-4c"/>
     <use xlink:href="#DejaVuSans-69" x="55.712891"/>
     <use xlink:href="#DejaVuSans-6e" x="83.496094"/>
     <use xlink:href="#DejaVuSans-65" x="146.875"/>
     <use xlink:href="#DejaVuSans-61" x="208.398438"/>
     <use xlink:href="#DejaVuSans-72" x="269.677734"/>
    </g>
   </g>
  </g>
 </g>
 <defs>
  <clipPath id="p88d8460627">
   <rect x="54" y="25.92" width="152.181818" height="166.32"/>
  </clipPath>
  <clipPath id="p9d52339185">
   <rect x="236.618182" y="25.92" width="152.181818" height="166.32"/>
  </clipPath>
 </defs>
</svg>
