<?xml version="1.0" encoding="utf-8" standalone="no"?>
<!DOCTYPE svg PUBLIC "-//W3C//DTD SVG 1.1//EN"
  "http://www.w3.org/Graphics/SVG/1.1/DTD/svg11.dtd">
<svg xmlns:xlink="http://www.w3.org/1999/xlink" width="432pt" height="216pt" viewBox="0 0 432 216" xmlns="http://www.w3.org/2000/svg" version="1.1">
 <metadata>
  <rdf:RDF xmlns:dc="http://purl.org/dc/elements/1.1/" xmlns:cc="http://creativecommons.org/ns#" xmlns:rdf="http://www.w3.org/1999/02/22-rdf-syntax-ns#">
   <cc:Work>
    <dc:type rdf:resource="http://purl.org/dc/dcmitype/StillImage"/>
    <dc:date>2024-04-24T09:52:24.441149</dc:date>
    <dc:format>image/svg+xml</dc:format>
    <dc:creator>
     <cc:Agent>
      <dc:title>Matplotlib v3.8.4, https://matplotlib.org/</dc:title>
     </cc:Agent>
    </dc:creator>
   </cc:Work>
  </rdf:RDF>
 </metadata>
 <defs>
  <style type="text/css">*{stroke-linejoin: round; stroke-linecap: butt}</style>
 </defs>
 <g id="figure_1">
  <g id="patch_1">
   <path d="M 0 216 
L 432 216 
L 432 0 
L 0 0 
z
" style="fill: #ffffff"/>
  </g>
  <g id="axes_1">
   <g id="patch_2">
    <path d="M 54 192.24 
L 206.181818 192.24 
L 206.181818 25.92 
L 54 25.92 
z
" style="fill: #ffffff"/>
   </g>
   <g id="matplotlib.axis_1">
    <g id="xtick_1">
     <g id="line2d_1">
      <defs>
       <path id="mad63d34f29" d="M 0 0 
L 0 3.5 
" style="stroke: #000000; stroke-width: 0.8"/>
      </defs>
      <g>
       <use xlink:href="#mad63d34f29" x="73.413733" y="192.24" style="stroke: #000000; stroke-width: 0.8"/>
      </g>
     </g>
     <g id="text_1">
      <!-- −0.05 -->
      <g transform="translate(58.091077 206.838437) scale(0.1 -0.1)">
       <defs>
        <path id="DejaVuSans-2212" d="M 678 2272 
L 4684 2272 
L 4684 1741 
L 678 1741 
L 678 2272 
z
" transform="scale(0.015625)"/>
        <path id="DejaVuSans-30" d="M 2034 4250 
Q 1547 4250 1301 3770 
Q 1056 3291 1056 2328 
Q 1056 1369 1301 889 
Q 1547 409 2034 409 
Q 2525 409 2770 889 
Q 3016 1369 3016 2328 
Q 3016 3291 2770 3770 
Q 2525 4250 2034 4250 
z
M 2034 4750 
Q 2819 4750 3233 4129 
Q 3647 3509 3647 2328 
Q 3647 1150 3233 529 
Q 2819 -91 2034 -91 
Q 1250 -91 836 529 
Q 422 1150 422 2328 
Q 422 3509 836 4129 
Q 1250 4750 2034 4750 
z
" transform="scale(0.015625)"/>
        <path id="DejaVuSans-2e" d="M 684 794 
L 1344 794 
L 1344 0 
L 684 0 
L 684 794 
z
" transform="scale(0.015625)"/>
        <path id="DejaVuSans-35" d="M 691 4666 
L 3169 4666 
L 3169 4134 
L 1269 4134 
L 1269 2991 
Q 1406 3038 1543 3061 
Q 1681 3084 1819 3084 
Q 2600 3084 3056 2656 
Q 3513 2228 3513 1497 
Q 3513 744 3044 326 
Q 2575 -91 1722 -91 
Q 1428 -91 1123 -41 
Q 819 9 494 109 
L 494 744 
Q 775 591 1075 516 
Q 1375 441 1709 441 
Q 2250 441 2565 725 
Q 2881 1009 2881 1497 
Q 2881 1984 2565 2268 
Q 2250 2553 1709 2553 
Q 1456 2553 1204 2497 
Q 953 2441 691 2322 
L 691 4666 
z
" transform="scale(0.015625)"/>
       </defs>
       <use xlink:href="#DejaVuSans-2212"/>
       <use xlink:href="#DejaVuSans-30" x="83.789062"/>
       <use xlink:href="#DejaVuSans-2e" x="147.412109"/>
       <use xlink:href="#DejaVuSans-30" x="179.199219"/>
       <use xlink:href="#DejaVuSans-35" x="242.822266"/>
      </g>
     </g>
    </g>
    <g id="xtick_2">
     <g id="line2d_2">
      <g>
       <use xlink:href="#mad63d34f29" x="131.08939" y="192.24" style="stroke: #000000; stroke-width: 0.8"/>
      </g>
     </g>
     <g id="text_2">
      <!-- 0.00 -->
      <g transform="translate(119.956577 206.838437) scale(0.1 -0.1)">
       <use xlink:href="#DejaVuSans-30"/>
       <use xlink:href="#DejaVuSans-2e" x="63.623047"/>
       <use xlink:href="#DejaVuSans-30" x="95.410156"/>
       <use xlink:href="#DejaVuSans-30" x="159.033203"/>
      </g>
     </g>
    </g>
    <g id="xtick_3">
     <g id="line2d_3">
      <g>
       <use xlink:href="#mad63d34f29" x="188.765047" y="192.24" style="stroke: #000000; stroke-width: 0.8"/>
      </g>
     </g>
     <g id="text_3">
      <!-- 0.05 -->
      <g transform="translate(177.632234 206.838437) scale(0.1 -0.1)">
       <use xlink:href="#DejaVuSans-30"/>
       <use xlink:href="#DejaVuSans-2e" x="63.623047"/>
       <use xlink:href="#DejaVuSans-30" x="95.410156"/>
       <use xlink:href="#DejaVuSans-35" x="159.033203"/>
      </g>
     </g>
    </g>
   </g>
   <g id="matplotlib.axis_2">
    <g id="ytick_1">
     <g id="line2d_4">
      <defs>
       <path id="m83f0b118a7" d="M 0 0 
L -3.5 0 
" style="stroke: #000000; stroke-width: 0.8"/>
      </defs>
      <g>
       <use xlink:href="#m83f0b118a7" x="54" y="176.691029" style="stroke: #000000; stroke-width: 0.8"/>
      </g>
     </g>
     <g id="text_4">
      <!-- −0.06 -->
      <g transform="translate(16.354687 180.490248) scale(0.1 -0.1)">
       <defs>
        <path id="DejaVuSans-36" d="M 2113 2584 
Q 1688 2584 1439 2293 
Q 1191 2003 1191 1497 
Q 1191 994 1439 701 
Q 1688 409 2113 409 
Q 2538 409 2786 701 
Q 3034 994 3034 1497 
Q 3034 2003 2786 2293 
Q 2538 2584 2113 2584 
z
M 3366 4563 
L 3366 3988 
Q 3128 4100 2886 4159 
Q 2644 4219 2406 4219 
Q 1781 4219 1451 3797 
Q 1122 3375 1075 2522 
Q 1259 2794 1537 2939 
Q 1816 3084 2150 3084 
Q 2853 3084 3261 2657 
Q 3669 2231 3669 1497 
Q 3669 778 3244 343 
Q 2819 -91 2113 -91 
Q 1303 -91 875 529 
Q 447 1150 447 2328 
Q 447 3434 972 4092 
Q 1497 4750 2381 4750 
Q 2619 4750 2861 4703 
Q 3103 4656 3366 4563 
z
" transform="scale(0.015625)"/>
       </defs>
       <use xlink:href="#DejaVuSans-2212"/>
       <use xlink:href="#DejaVuSans-30" x="83.789062"/>
       <use xlink:href="#DejaVuSans-2e" x="147.412109"/>
       <use xlink:href="#DejaVuSans-30" x="179.199219"/>
       <use xlink:href="#DejaVuSans-36" x="242.822266"/>
      </g>
     </g>
    </g>
    <g id="ytick_2">
     <g id="line2d_5">
      <g>
       <use xlink:href="#m83f0b118a7" x="54" y="153.620767" style="stroke: #000000; stroke-width: 0.8"/>
      </g>
     </g>
     <g id="text_5">
      <!-- −0.04 -->
      <g transform="translate(16.354687 157.419985) scale(0.1 -0.1)">
       <defs>
        <path id="DejaVuSans-34" d="M 2419 4116 
L 825 1625 
L 2419 1625 
L 2419 4116 
z
M 2253 4666 
L 3047 4666 
L 3047 1625 
L 3713 1625 
L 3713 1100 
L 3047 1100 
L 3047 0 
L 2419 0 
L 2419 1100 
L 313 1100 
L 313 1709 
L 2253 4666 
z
" transform="scale(0.015625)"/>
       </defs>
       <use xlink:href="#DejaVuSans-2212"/>
       <use xlink:href="#DejaVuSans-30" x="83.789062"/>
       <use xlink:href="#DejaVuSans-2e" x="147.412109"/>
       <use xlink:href="#DejaVuSans-30" x="179.199219"/>
       <use xlink:href="#DejaVuSans-34" x="242.822266"/>
      </g>
     </g>
    </g>
    <g id="ytick_3">
     <g id="line2d_6">
      <g>
       <use xlink:href="#m83f0b118a7" x="54" y="130.550504" style="stroke: #000000; stroke-width: 0.8"/>
      </g>
     </g>
     <g id="text_6">
      <!-- −0.02 -->
      <g transform="translate(16.354687 134.349723) scale(0.1 -0.1)">
       <defs>
        <path id="DejaVuSans-32" d="M 1228 531 
L 3431 531 
L 3431 0 
L 469 0 
L 469 531 
Q 828 903 1448 1529 
Q 2069 2156 2228 2338 
Q 2531 2678 2651 2914 
Q 2772 3150 2772 3378 
Q 2772 3750 2511 3984 
Q 2250 4219 1831 4219 
Q 1534 4219 1204 4116 
Q 875 4013 500 3803 
L 500 4441 
Q 881 4594 1212 4672 
Q 1544 4750 1819 4750 
Q 2544 4750 2975 4387 
Q 3406 4025 3406 3419 
Q 3406 3131 3298 2873 
Q 3191 2616 2906 2266 
Q 2828 2175 2409 1742 
Q 1991 1309 1228 531 
z
" transform="scale(0.015625)"/>
       </defs>
       <use xlink:href="#DejaVuSans-2212"/>
       <use xlink:href="#DejaVuSans-30" x="83.789062"/>
       <use xlink:href="#DejaVuSans-2e" x="147.412109"/>
       <use xlink:href="#DejaVuSans-30" x="179.199219"/>
       <use xlink:href="#DejaVuSans-32" x="242.822266"/>
      </g>
     </g>
    </g>
    <g id="ytick_4">
     <g id="line2d_7">
      <g>
       <use xlink:href="#m83f0b118a7" x="54" y="107.480241" style="stroke: #000000; stroke-width: 0.8"/>
      </g>
     </g>
     <g id="text_7">
      <!-- 0.00 -->
      <g transform="translate(24.734375 111.27946) scale(0.1 -0.1)">
       <use xlink:href="#DejaVuSans-30"/>
       <use xlink:href="#DejaVuSans-2e" x="63.623047"/>
       <use xlink:href="#DejaVuSans-30" x="95.410156"/>
       <use xlink:href="#DejaVuSans-30" x="159.033203"/>
      </g>
     </g>
    </g>
    <g id="ytick_5">
     <g id="line2d_8">
      <g>
       <use xlink:href="#m83f0b118a7" x="54" y="84.409978" style="stroke: #000000; stroke-width: 0.8"/>
      </g>
     </g>
     <g id="text_8">
      <!-- 0.02 -->
      <g transform="translate(24.734375 88.209197) scale(0.1 -0.1)">
       <use xlink:href="#DejaVuSans-30"/>
       <use xlink:href="#DejaVuSans-2e" x="63.623047"/>
       <use xlink:href="#DejaVuSans-30" x="95.410156"/>
       <use xlink:href="#DejaVuSans-32" x="159.033203"/>
      </g>
     </g>
    </g>
    <g id="ytick_6">
     <g id="line2d_9">
      <g>
       <use xlink:href="#m83f0b118a7" x="54" y="61.339715" style="stroke: #000000; stroke-width: 0.8"/>
      </g>
     </g>
     <g id="text_9">
      <!-- 0.04 -->
      <g transform="translate(24.734375 65.138934) scale(0.1 -0.1)">
       <use xlink:href="#DejaVuSans-30"/>
       <use xlink:href="#DejaVuSans-2e" x="63.623047"/>
       <use xlink:href="#DejaVuSans-30" x="95.410156"/>
       <use xlink:href="#DejaVuSans-34" x="159.033203"/>
      </g>
     </g>
    </g>
    <g id="ytick_7">
     <g id="line2d_10">
      <g>
       <use xlink:href="#m83f0b118a7" x="54" y="38.269453" style="stroke: #000000; stroke-width: 0.8"/>
      </g>
     </g>
     <g id="text_10">
      <!-- 0.06 -->
      <g transform="translate(24.734375 42.068671) scale(0.1 -0.1)">
       <use xlink:href="#DejaVuSans-30"/>
       <use xlink:href="#DejaVuSans-2e" x="63.623047"/>
       <use xlink:href="#DejaVuSans-30" x="95.410156"/>
       <use xlink:href="#DejaVuSans-36" x="159.033203"/>
      </g>
     </g>
    </g>
   </g>
   <g id="line2d_11">
    <path d="M 157.806879 138.831397 
L 157.968633 138.674307 
L 159.9822 139.069575 
L 160.267662 139.185571 
L 161.120353 139.41772 
L 161.166247 139.509536 
L 161.31648 139.545076 
L 162.187543 140.743046 
L 162.807443 140.675555 
L 163.317884 140.084694 
L 163.681549 138.5537 
L 163.518972 138.076854 
L 164.152539 137.487143 
L 164.994815 137.159957 
L 165.406572 135.964107 
L 165.595669 135.273132 
L 166.447171 133.694682 
L 166.468467 133.092844 
L 166.226418 131.571039 
L 165.493654 130.602653 
L 165.363392 129.145896 
L 165.504203 125.702741 
L 164.949577 124.964064 
L 163.480229 123.108699 
L 163.534435 122.450386 
L 163.73587 120.815074 
L 163.190546 120.100823 
L 162.339322 119.235421 
L 161.640575 119.079826 
L 158.381657 118.4853 
L 158.212038 118.286934 
L 158.315917 116.517063 
L 158.007879 115.592007 
L 157.675213 115.009844 
L 156.422298 113.069986 
L 156.350948 112.763411 
L 155.871396 112.749798 
L 155.630598 113.052339 
L 155.676536 112.862601 
L 155.659445 112.646794 
L 155.448089 112.502785 
L 155.346194 112.555535 
L 154.926087 113.453468 
L 155.011096 113.700877 
L 154.769651 114.289174 
L 154.838463 114.616222 
L 154.667937 114.438284 
L 154.426465 113.206598 
L 154.841136 112.874836 
L 154.681014 112.758639 
L 154.305559 112.820161 
L 153.927549 113.063734 
L 153.680421 113.510686 
L 153.494712 113.283971 
L 153.60481 113.136896 
L 153.980884 112.836143 
L 153.381218 112.372219 
L 152.65368 113.38417 
L 152.742483 114.399801 
L 153.188427 115.18763 
L 153.333431 114.383993 
L 152.972191 113.991107 
L 153.715175 116.389963 
L 153.385562 117.464174 
L 153.614178 118.75049 
L 152.922445 119.414877 
L 152.118155 121.409684 
L 152.044409 122.165309 
L 151.467808 123.599472 
L 151.416577 124.235849 
L 151.269824 124.554574 
L 151.43462 124.686625 
L 152.058862 124.663039 
L 152.226181 124.779252 
L 152.179572 125.345169 
L 152.35918 125.46854 
L 153.477929 124.77313 
L 153.478823 124.995851 
L 153.636264 125.395539 
L 154.004933 125.486341 
L 153.881307 126.22962 
L 154.589499 127.180602 
L 154.679809 127.508473 
L 154.905947 127.687942 
L 156.085436 127.77773 
L 156.347515 127.972 
L 156.353406 128.541336 
L 156.487148 128.617249 
L 156.465598 128.637546 
L 155.835662 128.921818 
L 155.173032 129.92481 
L 155.225948 129.906242 
L 155.495222 130.232291 
L 156.32454 132.242868 
L 156.830298 132.856333 
L 156.172567 134.518881 
L 155.739908 135.13741 
L 156.180884 135.185653 
L 156.526621 135.390747 
L 156.278956 135.949455 
L 156.219617 136.643611 
L 156.058432 136.960793 
L 155.162158 136.708805 
L 154.158218 137.514735 
L 154.025869 137.687858 
L 154.07141 137.59953 
L 151.694492 135.170213 
L 151.196867 135.001653 
L 150.53855 135.319706 
L 150.006931 135.429461 
L 149.452243 135.749422 
L 148.862763 135.623353 
L 148.390198 135.645751 
L 147.299154 136.341228 
L 146.82447 137.342853 
L 146.654366 137.227701 
L 146.57002 137.100721 
L 144.065329 135.449891 
L 143.452043 135.33511 
L 142.798756 135.498643 
L 141.688726 136.238075 
L 140.553058 136.453816 
L 139.221398 136.338182 
L 139.107297 136.497178 
L 138.087712 136.878825 
L 137.541855 137.912887 
L 137.106963 138.009282 
L 136.688274 137.503399 
L 135.476806 137.109558 
L 134.786683 137.355962 
L 134.681927 137.512986 
L 134.350457 137.718297 
L 133.63709 137.97325 
L 133.167712 138.284484 
L 132.785104 138.837131 
L 132.251214 139.076598 
L 131.637603 139.573931 
L 130.397667 140.097411 
L 129.861866 140.606943 
L 128.672758 141.089352 
L 128.111485 141.580826 
L 127.609657 142.38651 
L 125.634128 146.365547 
L 125.485748 146.843907 
L 124.94591 147.479126 
L 123.490694 148.031116 
L 122.642097 147.59319 
L 118.8435 145.809096 
L 117.709597 145.610623 
L 116.413994 144.616777 
L 115.654826 144.563639 
L 114.446136 145.700395 
L 114.021991 145.616784 
L 112.966702 145.748422 
L 112.543258 145.666089 
L 111.904155 145.859188 
L 111.537198 146.369947 
L 110.931469 146.601772 
L 110.12685 145.643083 
L 110.042746 145.19186 
L 109.320443 144.550954 
L 108.059186 144.253975 
L 107.330101 144.254882 
L 107.099582 144.185885 
L 106.399548 143.210837 
L 106.048188 142.579718 
L 105.121687 141.533161 
L 102.799161 140.176613 
L 102.285856 139.604653 
L 100.373225 139.121186 
L 99.984628 138.856095 
L 99.265545 138.630538 
L 98.909231 138.394499 
L 97.912236 137.167815 
L 96.756413 136.632166 
L 96.161086 136.523072 
L 93.720576 137.094673 
L 92.630144 136.835547 
L 91.67358 136.431272 
L 90.557385 136.396975 
L 88.543817 136.107223 
L 87.965076 135.746628 
L 87.06818 134.617937 
L 85.351858 134.126544 
L 84.454739 134.440657 
L 84.051968 134.120577 
L 82.799099 133.902306 
L 81.686831 134.362298 
L 81.438631 134.006761 
L 81.351259 133.530693 
L 80.785917 132.99206 
L 80.123418 132.689013 
L 79.393489 131.264575 
L 78.441396 130.23374 
L 77.809409 129.856615 
L 77.542039 129.301177 
L 78.368758 128.291065 
L 78.58848 127.563589 
L 78.157823 127.188633 
L 76.591028 127.449158 
L 72.677391 127.549045 
L 72.27542 127.282884 
L 71.69433 126.455576 
L 71.608848 125.565454 
L 72.806729 123.435468 
L 72.380089 122.712242 
L 70.900737 122.427885 
L 71.027388 122.327226 
L 71.328954 121.4043 
L 70.954392 120.977897 
L 70.338552 120.93265 
L 69.566343 121.281382 
L 68.456604 121.461588 
L 64.991592 119.474515 
L 64.794643 119.020137 
L 64.225048 117.764473 
L 63.664426 117.232586 
L 63.337782 117.179351 
L 62.022039 117.114946 
L 61.351777 116.887724 
L 61.038937 116.502152 
L 60.927449 112.861818 
L 61.148455 112.547038 
L 60.991759 106.291176 
L 62.009838 104.834824 
L 61.975637 104.501952 
L 62.755619 103.489826 
L 62.91744 103.464784 
L 64.054649 102.300406 
L 64.635054 102.125837 
L 64.433096 102.063914 
L 63.976358 102.384293 
L 63.754683 102.354877 
L 63.823017 102.046113 
L 66.64187 100.272773 
L 66.92223 99.381389 
L 67.357257 99.195272 
L 67.615549 98.790563 
L 68.254013 98.429925 
L 68.688169 98.027187 
L 69.112548 97.826767 
L 69.782384 97.81055 
L 70.515602 97.544952 
L 71.144818 97.658596 
L 71.889937 97.344506 
L 72.538242 97.400373 
L 73.588025 97.306115 
L 74.566978 97.366334 
L 75.208454 96.909195 
L 75.89386 96.508996 
L 76.845108 96.520108 
L 79.173945 96.881913 
L 80.516084 96.315564 
L 81.486582 95.486916 
L 81.668332 95.026267 
L 81.615849 94.587105 
L 80.964825 94.248589 
L 80.724158 94.281527 
L 80.039354 93.993437 
L 79.811494 94.034316 
L 79.134245 93.724502 
L 79.048787 93.471129 
L 78.518198 93.303948 
L 78.21908 93.491794 
L 77.965405 93.474757 
L 77.512804 93.750192 
L 77.186487 93.793632 
L 76.232951 94.218268 
L 75.767468 94.457508 
L 76.077911 94.087383 
L 77.684453 92.581098 
L 80.182729 92.023567 
L 80.767082 92.136592 
L 81.6026 91.883951 
L 82.39089 91.4796 
L 82.635699 91.122171 
L 82.203825 90.92175 
L 82.044325 90.944842 
L 81.530865 91.001633 
L 81.425175 90.83928 
L 81.383281 90.539374 
L 81.561503 90.089201 
L 81.998306 89.702912 
L 82.525613 89.439193 
L 82.938192 89.466576 
L 84.936454 88.31367 
L 85.375421 88.297664 
L 85.782317 87.980851 
L 86.740025 87.67492 
L 87.462552 87.071313 
L 87.902847 87.070506 
L 89.15855 86.23756 
L 89.593058 86.250606 
L 90.285742 85.705291 
L 91.036741 85.419505 
L 91.750063 85.37276 
L 92.147645 85.068216 
L 92.992411 84.875969 
L 93.462391 84.59747 
L 94.571751 84.608618 
L 96.615552 83.37075 
L 97.725639 83.379566 
L 98.047687 83.234957 
L 99.07702 82.462331 
L 100.431983 82.330617 
L 101.963634 82.274978 
L 103.221496 81.425317 
L 106.171207 79.466232 
L 107.5366 79.450864 
L 108.9783 79.828299 
L 111.515719 80.084504 
L 112.053747 80.020592 
L 113.402229 79.24202 
L 114.600902 79.093936 
L 115.409675 79.156124 
L 116.054563 79.350761 
L 117.49862 80.158333 
L 118.894771 80.179081 
L 122.680371 79.297435 
L 124.259029 78.552247 
L 124.069204 78.552471 
L 123.913183 78.548187 
L 123.394383 78.402646 
L 123.093342 78.615018 
L 122.358987 78.648361 
L 122.239619 78.606308 
L 122.282064 78.384112 
L 122.898709 78.154171 
L 123.74473 78.241755 
L 125.696594 77.897485 
L 126.69156 77.95773 
L 129.401836 77.44342 
L 129.983088 77.187308 
L 131.433442 76.538339 
L 132.795729 75.466218 
L 133.751107 75.592509 
L 134.220029 75.56158 
L 134.840557 75.338189 
L 135.341116 74.931811 
L 135.739127 74.772288 
L 138.091307 74.939368 
L 138.704178 75.382564 
L 139.666167 75.479729 
L 140.159449 75.495468 
L 141.046639 75.07767 
L 142.039335 75.098602 
L 142.405098 74.982224 
L 142.938692 74.536137 
L 147.605994 74.074573 
L 149.356514 73.868099 
L 152.15811 74.063249 
L 153.282215 74.067043 
L 154.60421 73.911407 
L 155.760826 74.360291 
L 156.274775 74.419631 
L 158.059225 75.010706 
L 158.471433 75.054541 
L 158.769727 74.904408 
L 159.370282 74.303559 
L 159.382298 73.620455 
L 159.315648 73.54128 
L 159.32596 73.367605 
L 157.379691 72.656738 
L 158.017987 72.770356 
L 159.156021 72.367544 
L 160.670068 72.642365 
L 164.626865 71.338606 
L 165.442598 70.553547 
L 165.719939 70.261058 
L 165.99059 70.128884 
L 167.032082 70.301289 
L 169.513553 71.003236 
L 170.468935 71.179071 
L 171.169829 71.47989 
L 172.08234 72.241671 
L 172.548183 72.444614 
L 173.835742 72.725462 
L 174.371283 73.033483 
L 175.468252 73.292925 
L 176.646848 72.936638 
L 176.981333 72.603894 
L 177.220724 72.485757 
L 177.153554 72.610489 
L 177.350271 72.799943 
L 177.934978 73.206592 
L 178.286564 73.145742 
L 178.949751 73.523913 
L 179.607913 74.060475 
L 179.628907 74.225271 
L 179.892284 74.406256 
L 180.247513 75.803928 
L 181.133712 76.46732 
L 181.32547 77.112434 
L 181.864746 77.883898 
L 182.929104 78.749717 
L 182.971646 79.14843 
L 183.685288 79.912884 
L 184.16164 81.239269 
L 184.895654 81.794346 
L 185.002179 82.070199 
L 185.679722 82.926675 
L 185.834937 83.881953 
L 185.693956 84.27792 
L 185.645975 84.745724 
L 185.807886 85.363822 
L 186.267182 85.731732 
L 186.67321 86.449976 
L 187.107705 86.81811 
L 187.203229 87.162792 
L 187.881979 87.897557 
L 187.966142 88.240164 
L 187.796351 88.53683 
L 187.824351 89.419674 
L 188.063324 90.465193 
L 188.522623 90.833143 
L 189.116926 91.009346 
L 189.309517 91.229321 
L 190.487284 91.476773 
L 190.871062 90.48085 
L 190.854757 90.281478 
L 191.041996 89.78432 
L 190.926854 89.261068 
L 191.079944 88.871812 
L 190.495114 87.679353 
L 190.311889 87.574543 
L 188.759088 87.240202 
L 188.517701 87.086512 
L 188.554283 86.975733 
L 188.808324 86.901755 
L 189.529681 87.058926 
L 189.789325 86.991776 
L 190.503851 87.141556 
L 190.845561 87.117281 
L 191.587553 87.372956 
L 192.355396 88.213789 
L 192.756555 88.362527 
L 193.24257 88.845427 
L 193.665482 89.042302 
L 194.654239 90.681988 
L 195.54813 91.705742 
L 196.264728 91.890841 
L 196.674308 91.246205 
L 196.730829 91.158361 
L 196.625069 91.133918 
L 196.608085 91.128422 
L 196.637272 91.121639 
L 196.625167 91.113469 
L 196.250022 91.459951 
L 196.361428 91.671153 
L 196.80276 92.033237 
L 196.414188 92.419383 
L 196.277462 92.642469 
L 195.66249 93.088478 
L 195.550248 93.482385 
L 195.753508 94.039214 
L 195.980424 94.327364 
L 195.941643 94.487159 
L 195.623005 94.682726 
L 195.258669 94.702593 
L 194.718235 94.893279 
L 193.759446 95.777018 
L 193.913223 95.933996 
L 194.419074 96.113438 
L 194.878226 95.988149 
L 196.477969 97.047832 
L 196.53653 97.313169 
L 197.264308 97.952079 
L 197.438873 98.380253 
L 197.936053 98.624746 
L 198.338523 99.252693 
L 198.664293 99.289671 
L 198.716133 99.442496 
L 199.105702 99.662394 
L 199.158082 100.049139 
L 198.760474 100.138646 
L 198.654477 100.32772 
L 198.281096 100.42775 
L 197.351029 100.257571 
L 196.347621 100.765776 
L 195.771732 101.62721 
L 195.01817 102.114794 
L 194.933244 102.318699 
L 191.016506 102.571128 
L 190.190982 103.182154 
L 190.067329 103.454249 
L 188.596359 103.707158 
L 187.77081 104.318186 
L 187.202506 104.385461 
L 186.664227 104.154046 
L 186.162394 103.772434 
L 185.574198 103.555122 
L 183.831067 101.842573 
L 182.376682 101.779758 
L 181.893675 101.93822 
L 181.827998 102.276629 
L 181.831359 102.495636 
L 181.466946 103.496662 
L 179.88901 104.716552 
L 178.633239 105.095702 
L 177.444527 104.771445 
L 176.663701 104.029495 
L 174.364926 103.958341 
L 172.138721 104.026364 
L 169.9809 103.64029 
L 169.37767 102.937337 
L 168.621265 100.470893 
L 167.770705 99.917789 
L 166.643214 100.469643 
L 165.912436 101.241816 
L 164.929726 101.787071 
L 164.929726 101.787071 
" clip-path="url(#pf0fb4a9bd7)" style="fill: none; stroke: #1f77b4; stroke-width: 1.5; stroke-linecap: square"/>
   </g>
   <g id="patch_3">
    <path d="M 54 192.24 
L 54 25.92 
" style="fill: none; stroke: #000000; stroke-width: 0.8; stroke-linejoin: miter; stroke-linecap: square"/>
   </g>
   <g id="patch_4">
    <path d="M 206.181818 192.24 
L 206.181818 25.92 
" style="fill: none; stroke: #000000; stroke-width: 0.8; stroke-linejoin: miter; stroke-linecap: square"/>
   </g>
   <g id="patch_5">
    <path d="M 54 192.24 
L 206.181818 192.24 
" style="fill: none; stroke: #000000; stroke-width: 0.8; stroke-linejoin: miter; stroke-linecap: square"/>
   </g>
   <g id="patch_6">
    <path d="M 54 25.92 
L 206.181818 25.92 
" style="fill: none; stroke: #000000; stroke-width: 0.8; stroke-linejoin: miter; stroke-linecap: square"/>
   </g>
   <g id="text_11">
    <!-- SRV -->
    <g transform="translate(118.338409 19.92) scale(0.12 -0.12)">
     <defs>
      <path id="DejaVuSans-53" d="M 3425 4513 
L 3425 3897 
Q 3066 4069 2747 4153 
Q 2428 4238 2131 4238 
Q 1616 4238 1336 4038 
Q 1056 3838 1056 3469 
Q 1056 3159 1242 3001 
Q 1428 2844 1947 2747 
L 2328 2669 
Q 3034 2534 3370 2195 
Q 3706 1856 3706 1288 
Q 3706 609 3251 259 
Q 2797 -91 1919 -91 
Q 1588 -91 1214 -16 
Q 841 59 441 206 
L 441 856 
Q 825 641 1194 531 
Q 1563 422 1919 422 
Q 2459 422 2753 634 
Q 3047 847 3047 1241 
Q 3047 1584 2836 1778 
Q 2625 1972 2144 2069 
L 1759 2144 
Q 1053 2284 737 2584 
Q 422 2884 422 3419 
Q 422 4038 858 4394 
Q 1294 4750 2059 4750 
Q 2388 4750 2728 4690 
Q 3069 4631 3425 4513 
z
" transform="scale(0.015625)"/>
      <path id="DejaVuSans-52" d="M 2841 2188 
Q 3044 2119 3236 1894 
Q 3428 1669 3622 1275 
L 4263 0 
L 3584 0 
L 2988 1197 
Q 2756 1666 2539 1819 
Q 2322 1972 1947 1972 
L 1259 1972 
L 1259 0 
L 628 0 
L 628 4666 
L 2053 4666 
Q 2853 4666 3247 4331 
Q 3641 3997 3641 3322 
Q 3641 2881 3436 2590 
Q 3231 2300 2841 2188 
z
M 1259 4147 
L 1259 2491 
L 2053 2491 
Q 2509 2491 2742 2702 
Q 2975 2913 2975 3322 
Q 2975 3731 2742 3939 
Q 2509 4147 2053 4147 
L 1259 4147 
z
" transform="scale(0.015625)"/>
      <path id="DejaVuSans-56" d="M 1831 0 
L 50 4666 
L 709 4666 
L 2188 738 
L 3669 4666 
L 4325 4666 
L 2547 0 
L 1831 0 
z
" transform="scale(0.015625)"/>
     </defs>
     <use xlink:href="#DejaVuSans-53"/>
     <use xlink:href="#DejaVuSans-52" x="63.476562"/>
     <use xlink:href="#DejaVuSans-56" x="127.458984"/>
    </g>
   </g>
  </g>
  <g id="axes_2">
   <g id="patch_7">
    <path d="M 236.618182 192.24 
L 388.8 192.24 
L 388.8 25.92 
L 236.618182 25.92 
z
" style="fill: #ffffff"/>
   </g>
   <g id="matplotlib.axis_3">
    <g id="xtick_4">
     <g id="line2d_12">
      <g>
       <use xlink:href="#mad63d34f29" x="249.531251" y="192.24" style="stroke: #000000; stroke-width: 0.8"/>
      </g>
     </g>
     <g id="text_12">
      <!-- −0.050 -->
      <g transform="translate(231.027345 206.838437) scale(0.1 -0.1)">
       <use xlink:href="#DejaVuSans-2212"/>
       <use xlink:href="#DejaVuSans-30" x="83.789062"/>
       <use xlink:href="#DejaVuSans-2e" x="147.412109"/>
       <use xlink:href="#DejaVuSans-30" x="179.199219"/>
       <use xlink:href="#DejaVuSans-35" x="242.822266"/>
       <use xlink:href="#DejaVuSans-30" x="306.445312"/>
      </g>
     </g>
    </g>
    <g id="xtick_5">
     <g id="line2d_13">
      <g>
       <use xlink:href="#mad63d34f29" x="280.345328" y="192.24" style="stroke: #000000; stroke-width: 0.8"/>
      </g>
     </g>
     <g id="text_13">
      <!-- −0.025 -->
      <g transform="translate(261.841421 206.838437) scale(0.1 -0.1)">
       <use xlink:href="#DejaVuSans-2212"/>
       <use xlink:href="#DejaVuSans-30" x="83.789062"/>
       <use xlink:href="#DejaVuSans-2e" x="147.412109"/>
       <use xlink:href="#DejaVuSans-30" x="179.199219"/>
       <use xlink:href="#DejaVuSans-32" x="242.822266"/>
       <use xlink:href="#DejaVuSans-35" x="306.445312"/>
      </g>
     </g>
    </g>
    <g id="xtick_6">
     <g id="line2d_14">
      <g>
       <use xlink:href="#mad63d34f29" x="311.159405" y="192.24" style="stroke: #000000; stroke-width: 0.8"/>
      </g>
     </g>
     <g id="text_14">
      <!-- 0.000 -->
      <g transform="translate(296.845342 206.838437) scale(0.1 -0.1)">
       <use xlink:href="#DejaVuSans-30"/>
       <use xlink:href="#DejaVuSans-2e" x="63.623047"/>
       <use xlink:href="#DejaVuSans-30" x="95.410156"/>
       <use xlink:href="#DejaVuSans-30" x="159.033203"/>
       <use xlink:href="#DejaVuSans-30" x="222.65625"/>
      </g>
     </g>
    </g>
    <g id="xtick_7">
     <g id="line2d_15">
      <g>
       <use xlink:href="#mad63d34f29" x="341.973481" y="192.24" style="stroke: #000000; stroke-width: 0.8"/>
      </g>
     </g>
     <g id="text_15">
      <!-- 0.025 -->
      <g transform="translate(327.659419 206.838437) scale(0.1 -0.1)">
       <use xlink:href="#DejaVuSans-30"/>
       <use xlink:href="#DejaVuSans-2e" x="63.623047"/>
       <use xlink:href="#DejaVuSans-30" x="95.410156"/>
       <use xlink:href="#DejaVuSans-32" x="159.033203"/>
       <use xlink:href="#DejaVuSans-35" x="222.65625"/>
      </g>
     </g>
    </g>
    <g id="xtick_8">
     <g id="line2d_16">
      <g>
       <use xlink:href="#mad63d34f29" x="372.787558" y="192.24" style="stroke: #000000; stroke-width: 0.8"/>
      </g>
     </g>
     <g id="text_16">
      <!-- 0.050 -->
      <g transform="translate(358.473496 206.838437) scale(0.1 -0.1)">
       <use xlink:href="#DejaVuSans-30"/>
       <use xlink:href="#DejaVuSans-2e" x="63.623047"/>
       <use xlink:href="#DejaVuSans-30" x="95.410156"/>
       <use xlink:href="#DejaVuSans-35" x="159.033203"/>
       <use xlink:href="#DejaVuSans-30" x="222.65625"/>
      </g>
     </g>
    </g>
   </g>
   <g id="matplotlib.axis_4">
    <g id="ytick_8">
     <g id="line2d_17">
      <g>
       <use xlink:href="#m83f0b118a7" x="236.618182" y="183.224135" style="stroke: #000000; stroke-width: 0.8"/>
      </g>
     </g>
     <g id="text_17">
      <!-- −0.06 -->
      <g transform="translate(198.972869 187.023354) scale(0.1 -0.1)">
       <use xlink:href="#DejaVuSans-2212"/>
       <use xlink:href="#DejaVuSans-30" x="83.789062"/>
       <use xlink:href="#DejaVuSans-2e" x="147.412109"/>
       <use xlink:href="#DejaVuSans-30" x="179.199219"/>
       <use xlink:href="#DejaVuSans-36" x="242.822266"/>
      </g>
     </g>
    </g>
    <g id="ytick_9">
     <g id="line2d_18">
      <g>
       <use xlink:href="#m83f0b118a7" x="236.618182" y="158.572874" style="stroke: #000000; stroke-width: 0.8"/>
      </g>
     </g>
     <g id="text_18">
      <!-- −0.04 -->
      <g transform="translate(198.972869 162.372093) scale(0.1 -0.1)">
       <use xlink:href="#DejaVuSans-2212"/>
       <use xlink:href="#DejaVuSans-30" x="83.789062"/>
       <use xlink:href="#DejaVuSans-2e" x="147.412109"/>
       <use xlink:href="#DejaVuSans-30" x="179.199219"/>
       <use xlink:href="#DejaVuSans-34" x="242.822266"/>
      </g>
     </g>
    </g>
    <g id="ytick_10">
     <g id="line2d_19">
      <g>
       <use xlink:href="#m83f0b118a7" x="236.618182" y="133.921612" style="stroke: #000000; stroke-width: 0.8"/>
      </g>
     </g>
     <g id="text_19">
      <!-- −0.02 -->
      <g transform="translate(198.972869 137.720831) scale(0.1 -0.1)">
       <use xlink:href="#DejaVuSans-2212"/>
       <use xlink:href="#DejaVuSans-30" x="83.789062"/>
       <use xlink:href="#DejaVuSans-2e" x="147.412109"/>
       <use xlink:href="#DejaVuSans-30" x="179.199219"/>
       <use xlink:href="#DejaVuSans-32" x="242.822266"/>
      </g>
     </g>
    </g>
    <g id="ytick_11">
     <g id="line2d_20">
      <g>
       <use xlink:href="#m83f0b118a7" x="236.618182" y="109.270351" style="stroke: #000000; stroke-width: 0.8"/>
      </g>
     </g>
     <g id="text_20">
      <!-- 0.00 -->
      <g transform="translate(207.352557 113.06957) scale(0.1 -0.1)">
       <use xlink:href="#DejaVuSans-30"/>
       <use xlink:href="#DejaVuSans-2e" x="63.623047"/>
       <use xlink:href="#DejaVuSans-30" x="95.410156"/>
       <use xlink:href="#DejaVuSans-30" x="159.033203"/>
      </g>
     </g>
    </g>
    <g id="ytick_12">
     <g id="line2d_21">
      <g>
       <use xlink:href="#m83f0b118a7" x="236.618182" y="84.619089" style="stroke: #000000; stroke-width: 0.8"/>
      </g>
     </g>
     <g id="text_21">
      <!-- 0.02 -->
      <g transform="translate(207.352557 88.418308) scale(0.1 -0.1)">
       <use xlink:href="#DejaVuSans-30"/>
       <use xlink:href="#DejaVuSans-2e" x="63.623047"/>
       <use xlink:href="#DejaVuSans-30" x="95.410156"/>
       <use xlink:href="#DejaVuSans-32" x="159.033203"/>
      </g>
     </g>
    </g>
    <g id="ytick_13">
     <g id="line2d_22">
      <g>
       <use xlink:href="#m83f0b118a7" x="236.618182" y="59.967828" style="stroke: #000000; stroke-width: 0.8"/>
      </g>
     </g>
     <g id="text_22">
      <!-- 0.04 -->
      <g transform="translate(207.352557 63.767047) scale(0.1 -0.1)">
       <use xlink:href="#DejaVuSans-30"/>
       <use xlink:href="#DejaVuSans-2e" x="63.623047"/>
       <use xlink:href="#DejaVuSans-30" x="95.410156"/>
       <use xlink:href="#DejaVuSans-34" x="159.033203"/>
      </g>
     </g>
    </g>
    <g id="ytick_14">
     <g id="line2d_23">
      <g>
       <use xlink:href="#m83f0b118a7" x="236.618182" y="35.316567" style="stroke: #000000; stroke-width: 0.8"/>
      </g>
     </g>
     <g id="text_23">
      <!-- 0.06 -->
      <g transform="translate(207.352557 39.115785) scale(0.1 -0.1)">
       <use xlink:href="#DejaVuSans-30"/>
       <use xlink:href="#DejaVuSans-2e" x="63.623047"/>
       <use xlink:href="#DejaVuSans-30" x="95.410156"/>
       <use xlink:href="#DejaVuSans-36" x="159.033203"/>
      </g>
     </g>
    </g>
   </g>
   <g id="line2d_24">
    <path d="M 381.81028 109.002134 
L 380.814861 110.041223 
L 379.979335 111.056052 
L 379.471194 111.444568 
L 378.829192 112.021655 
L 377.669586 113.030886 
L 375.199802 114.528504 
L 374.458089 114.768696 
L 373.140702 115.125564 
L 372.134245 115.434083 
L 371.344071 115.613899 
L 369.8056 115.977682 
L 366.702973 116.528885 
L 365.923482 116.615811 
L 364.697802 117.056544 
L 364.094064 117.209697 
L 362.711311 117.469664 
L 359.999775 118.062748 
L 356.928374 118.410099 
L 355.686563 118.585544 
L 354.790641 118.792423 
L 353.063209 119.370543 
L 347.938609 120.447593 
L 346.452951 120.592258 
L 345.391608 120.774376 
L 342.11551 121.609163 
L 339.424723 122.128891 
L 337.832026 122.462828 
L 334.870615 122.97313 
L 332.50278 123.257379 
L 329.716745 123.628004 
L 325.108073 123.626851 
L 318.133434 124.071515 
L 316.722737 124.11568 
L 308.658288 123.713905 
L 301.814845 123.335806 
L 297.390293 123.487617 
L 296.03083 123.46868 
L 294.644804 123.552463 
L 289.835693 123.621532 
L 287.046701 123.637539 
L 283.652254 123.470541 
L 281.513875 123.435065 
L 279.381065 123.379097 
L 278.158304 123.120856 
L 276.941986 123.010293 
L 276.14263 122.921972 
L 274.506916 122.584054 
L 264.626826 120.132722 
L 263.019274 119.837709 
L 260.149989 119.374814 
L 254.667824 118.365172 
L 251.558285 117.173801 
L 250.457265 116.658518 
L 249.700969 116.332969 
L 247.77479 115.812723 
L 246.670388 115.233053 
L 245.928967 114.746607 
L 245.13713 114.159379 
L 244.602658 113.391853 
L 243.65165 111.173918 
L 243.617928 109.416999 
L 243.773317 108.73307 
L 243.941801 107.394669 
L 244.607877 106.414129 
L 245.265188 105.785861 
L 248.104979 104.139861 
L 248.667852 103.900417 
L 249.609949 103.432306 
L 252.818032 102.107168 
L 254.247976 101.46602 
L 255.142745 101.108606 
L 257.6171 100.430603 
L 260.147224 99.594738 
L 262.65415 99.26726 
L 263.843985 99.033527 
L 266.03605 98.587361 
L 267.587248 98.147939 
L 268.795573 97.86527 
L 270.70536 97.524311 
L 272.047621 97.26233 
L 276.84769 96.572491 
L 278.12167 96.381706 
L 279.29118 96.196732 
L 280.70122 95.971589 
L 283.298035 95.767916 
L 292.86509 94.868489 
L 294.533273 94.688091 
L 297.364028 94.554202 
L 298.86037 94.513756 
L 303.808387 94.284805 
L 304.91816 94.265845 
L 306.220965 94.304428 
L 308.382999 94.333569 
L 310.456455 94.240979 
L 311.296775 94.225816 
L 312.923322 94.256389 
L 315.9784 94.036269 
L 325.487094 94.539614 
L 331.988651 95.185316 
L 333.47047 95.269754 
L 337.565631 95.92378 
L 339.143262 95.993215 
L 341.070433 96.116242 
L 343.084345 96.530781 
L 344.589808 96.972844 
L 347.978236 97.432338 
L 349.81113 97.703052 
L 351.981103 97.975211 
L 353.29015 98.287183 
L 355.289281 98.820795 
L 356.773526 99.274772 
L 362.309962 100.921585 
L 363.406277 101.214194 
L 364.55495 101.60936 
L 369.073418 102.644215 
L 372.595124 103.404173 
L 373.882891 103.907843 
L 376.459577 104.674004 
L 377.184969 104.85108 
L 380.458666 106.678998 
L 381.078857 107.181034 
L 381.56138 107.470069 
L 381.735099 107.907497 
L 381.882645 108.765748 
L 381.882645 108.765748 
" clip-path="url(#p3cad039181)" style="fill: none; stroke: #1f77b4; stroke-width: 1.5; stroke-linecap: square"/>
   </g>
   <g id="patch_8">
    <path d="M 236.618182 192.24 
L 236.618182 25.92 
" style="fill: none; stroke: #000000; stroke-width: 0.8; stroke-linejoin: miter; stroke-linecap: square"/>
   </g>
   <g id="patch_9">
    <path d="M 388.8 192.24 
L 388.8 25.92 
" style="fill: none; stroke: #000000; stroke-width: 0.8; stroke-linejoin: miter; stroke-linecap: square"/>
   </g>
   <g id="patch_10">
    <path d="M 236.618182 192.24 
L 388.8 192.24 
" style="fill: none; stroke: #000000; stroke-width: 0.8; stroke-linejoin: miter; stroke-linecap: square"/>
   </g>
   <g id="patch_11">
    <path d="M 236.618182 25.92 
L 388.8 25.92 
" style="fill: none; stroke: #000000; stroke-width: 0.8; stroke-linejoin: miter; stroke-linecap: square"/>
   </g>
   <g id="text_24">
    <!-- Linear -->
    <g transform="translate(294.061278 19.92) scale(0.12 -0.12)">
     <defs>
      <path id="DejaVuSans-4c" d="M 628 4666 
L 1259 4666 
L 1259 531 
L 3531 531 
L 3531 0 
L 628 0 
L 628 4666 
z
" transform="scale(0.015625)"/>
      <path id="DejaVuSans-69" d="M 603 3500 
L 1178 3500 
L 1178 0 
L 603 0 
L 603 3500 
z
M 603 4863 
L 1178 4863 
L 1178 4134 
L 603 4134 
L 603 4863 
z
" transform="scale(0.015625)"/>
      <path id="DejaVuSans-6e" d="M 3513 2113 
L 3513 0 
L 2938 0 
L 2938 2094 
Q 2938 2591 2744 2837 
Q 2550 3084 2163 3084 
Q 1697 3084 1428 2787 
Q 1159 2491 1159 1978 
L 1159 0 
L 581 0 
L 581 3500 
L 1159 3500 
L 1159 2956 
Q 1366 3272 1645 3428 
Q 1925 3584 2291 3584 
Q 2894 3584 3203 3211 
Q 3513 2838 3513 2113 
z
" transform="scale(0.015625)"/>
      <path id="DejaVuSans-65" d="M 3597 1894 
L 3597 1613 
L 953 1613 
Q 991 1019 1311 708 
Q 1631 397 2203 397 
Q 2534 397 2845 478 
Q 3156 559 3463 722 
L 3463 178 
Q 3153 47 2828 -22 
Q 2503 -91 2169 -91 
Q 1331 -91 842 396 
Q 353 884 353 1716 
Q 353 2575 817 3079 
Q 1281 3584 2069 3584 
Q 2775 3584 3186 3129 
Q 3597 2675 3597 1894 
z
M 3022 2063 
Q 3016 2534 2758 2815 
Q 2500 3097 2075 3097 
Q 1594 3097 1305 2825 
Q 1016 2553 972 2059 
L 3022 2063 
z
" transform="scale(0.015625)"/>
      <path id="DejaVuSans-61" d="M 2194 1759 
Q 1497 1759 1228 1600 
Q 959 1441 959 1056 
Q 959 750 1161 570 
Q 1363 391 1709 391 
Q 2188 391 2477 730 
Q 2766 1069 2766 1631 
L 2766 1759 
L 2194 1759 
z
M 3341 1997 
L 3341 0 
L 2766 0 
L 2766 531 
Q 2569 213 2275 61 
Q 1981 -91 1556 -91 
Q 1019 -91 701 211 
Q 384 513 384 1019 
Q 384 1609 779 1909 
Q 1175 2209 1959 2209 
L 2766 2209 
L 2766 2266 
Q 2766 2663 2505 2880 
Q 2244 3097 1772 3097 
Q 1472 3097 1187 3025 
Q 903 2953 641 2809 
L 641 3341 
Q 956 3463 1253 3523 
Q 1550 3584 1831 3584 
Q 2591 3584 2966 3190 
Q 3341 2797 3341 1997 
z
" transform="scale(0.015625)"/>
      <path id="DejaVuSans-72" d="M 2631 2963 
Q 2534 3019 2420 3045 
Q 2306 3072 2169 3072 
Q 1681 3072 1420 2755 
Q 1159 2438 1159 1844 
L 1159 0 
L 581 0 
L 581 3500 
L 1159 3500 
L 1159 2956 
Q 1341 3275 1631 3429 
Q 1922 3584 2338 3584 
Q 2397 3584 2469 3576 
Q 2541 3569 2628 3553 
L 2631 2963 
z
" transform="scale(0.015625)"/>
     </defs>
     <use xlink:href="#DejaVuSans-4c"/>
     <use xlink:href="#DejaVuSans-69" x="55.712891"/>
     <use xlink:href="#DejaVuSans-6e" x="83.496094"/>
     <use xlink:href="#DejaVuSans-65" x="146.875"/>
     <use xlink:href="#DejaVuSans-61" x="208.398438"/>
     <use xlink:href="#DejaVuSans-72" x="269.677734"/>
    </g>
   </g>
  </g>
 </g>
 <defs>
  <clipPath id="pf0fb4a9bd7">
   <rect x="54" y="25.92" width="152.181818" height="166.32"/>
  </clipPath>
  <clipPath id="p3cad039181">
   <rect x="236.618182" y="25.92" width="152.181818" height="166.32"/>
  </clipPath>
 </defs>
</svg>
