<?xml version="1.0" encoding="utf-8" standalone="no"?>
<!DOCTYPE svg PUBLIC "-//W3C//DTD SVG 1.1//EN"
  "http://www.w3.org/Graphics/SVG/1.1/DTD/svg11.dtd">
<svg xmlns:xlink="http://www.w3.org/1999/xlink" width="432pt" height="216pt" viewBox="0 0 432 216" xmlns="http://www.w3.org/2000/svg" version="1.1">
 <metadata>
  <rdf:RDF xmlns:dc="http://purl.org/dc/elements/1.1/" xmlns:cc="http://creativecommons.org/ns#" xmlns:rdf="http://www.w3.org/1999/02/22-rdf-syntax-ns#">
   <cc:Work>
    <dc:type rdf:resource="http://purl.org/dc/dcmitype/StillImage"/>
    <dc:date>2024-06-03T04:08:06.158353</dc:date>
    <dc:format>image/svg+xml</dc:format>
    <dc:creator>
     <cc:Agent>
      <dc:title>Matplotlib v3.8.4, https://matplotlib.org/</dc:title>
     </cc:Agent>
    </dc:creator>
   </cc:Work>
  </rdf:RDF>
 </metadata>
 <defs>
  <style type="text/css">*{stroke-linejoin: round; stroke-linecap: butt}</style>
 </defs>
 <g id="figure_1">
  <g id="patch_1">
   <path d="M 0 216 
L 432 216 
L 432 0 
L 0 0 
z
" style="fill: #ffffff"/>
  </g>
  <g id="axes_1">
   <g id="line2d_1">
    <path d="M 199.264463 103.305771 
L 199.112384 108.261345 
L 198.958589 112.377347 
L 198.945423 115.546901 
L 198.841726 116.797766 
L 198.687163 117.355885 
L 198.026465 118.360792 
L 196.951529 119.682003 
L 195.375493 121.719409 
L 194.644954 122.172914 
L 193.095959 122.877476 
L 191.918996 123.644933 
L 191.106305 124.420717 
L 189.841556 125.940747 
L 189.294488 126.98149 
L 188.014062 128.780372 
L 186.452116 130.084385 
L 185.436035 130.775563 
L 181.695968 132.36839 
L 180.082684 133.148152 
L 179.365449 133.719565 
L 178.5031 134.701294 
L 177.133312 135.878948 
L 174.907846 137.605198 
L 173.580949 138.260248 
L 171.730804 138.941861 
L 168.230197 139.928921 
L 165.837602 140.249894 
L 164.91087 140.4804 
L 164.148395 140.887468 
L 162.938296 141.620708 
L 160.684475 142.699843 
L 158.827697 143.375486 
L 157.805134 143.570497 
L 153.970018 143.916042 
L 148.510298 144.472544 
L 146.521751 144.704777 
L 145.828639 144.951181 
L 144.823083 145.44346 
L 143.113649 145.981301 
L 141.78411 146.080184 
L 136.241056 145.928414 
L 134.90367 145.744995 
L 133.674137 145.335878 
L 130.462105 144.301215 
L 129.044876 144.18487 
L 125.859122 143.925959 
L 120.90955 142.905236 
L 115.636195 142.548909 
L 113.928263 142.489738 
L 112.869892 142.262849 
L 108.743892 140.587806 
L 107.222402 140.237334 
L 103.974264 139.826601 
L 102.448077 139.46963 
L 99.232178 138.516061 
L 96.264169 137.304889 
L 94.298467 136.799099 
L 93.406953 136.319362 
L 88.945008 133.594484 
L 87.219374 132.959705 
L 84.557811 132.001887 
L 82.800629 131.497984 
L 81.284732 130.97597 
L 80.220638 130.317436 
L 77.721635 128.497512 
L 73.996193 124.926165 
L 73.098608 124.302968 
L 70.241149 122.899899 
L 68.587489 122.260116 
L 67.79454 121.76173 
L 67.370377 121.227064 
L 66.932889 120.171398 
L 65.728288 117.205991 
L 65.096679 115.816217 
L 64.553932 115.07085 
L 63.899832 114.591857 
L 62.764031 113.755492 
L 61.548037 112.585623 
L 61.06368 111.818246 
L 60.960714 111.234766 
L 61.017545 109.28349 
L 62.191895 105.441176 
L 62.71474 104.882504 
L 64.150333 103.654594 
L 66.499465 102.374302 
L 67.610731 101.718696 
L 68.029303 101.198107 
L 68.865053 99.960453 
L 69.617172 99.077636 
L 70.915749 98.017038 
L 74.845191 95.17489 
L 75.089151 94.682169 
L 75.80561 92.815325 
L 76.182469 92.150661 
L 76.99029 91.38295 
L 78.46072 90.382543 
L 81.436843 89.248873 
L 87.112644 87.518496 
L 88.150183 86.992416 
L 88.829021 86.449122 
L 89.726888 85.286238 
L 90.937357 83.799238 
L 91.605199 83.264718 
L 93.499846 82.298803 
L 96.417004 81.067161 
L 97.834691 80.611389 
L 98.882791 80.474151 
L 100.305219 80.272889 
L 102.829459 79.911286 
L 104.286823 79.665186 
L 106.059301 79.168575 
L 106.671523 78.836372 
L 107.433258 78.25656 
L 109.245239 77.236634 
L 110.169766 76.9708 
L 120.909189 75.218215 
L 123.270364 74.8499 
L 125.179435 74.3346 
L 125.86528 73.959074 
L 126.652685 73.340371 
L 128.665392 72.25832 
L 129.574358 72.072598 
L 132.934007 72.07911 
L 135.895762 72.279857 
L 137.871918 72.4353 
L 143.000899 72.201624 
L 144.947414 72.358333 
L 149.486463 72.909452 
L 151.06584 72.863954 
L 153.435015 72.705215 
L 154.36915 72.908829 
L 157.131105 73.661458 
L 158.519491 73.832147 
L 160.937454 74.080482 
L 162.116291 74.408761 
L 164.145471 74.999752 
L 165.827176 75.409613 
L 168.992589 75.864126 
L 171.777597 76.816199 
L 173.343196 77.440917 
L 178.851043 79.227042 
L 181.546919 80.292829 
L 184.29098 81.360486 
L 188.133489 84.599382 
L 188.664177 85.413556 
L 190.037737 86.891329 
L 190.790947 87.404514 
L 191.550939 87.588727 
L 192.612296 87.906057 
L 193.973507 88.553055 
L 195.856642 89.857209 
L 196.353737 90.448305 
L 196.657329 91.119847 
L 196.84465 92.012092 
L 197.254497 95.039712 
L 197.489843 96.733646 
L 197.371922 97.719911 
L 197.253754 98.826293 
L 196.999661 106.745897 
L 196.999661 106.745897 
" clip-path="url(#pf026279c03)" style="fill: none; stroke: #1f77b4; stroke-width: 1.5; stroke-linecap: square"/>
   </g>
   <g id="text_1">
    <!-- SRV -->
    <g transform="translate(118.338409 19.92) scale(0.12 -0.12)">
     <defs>
      <path id="DejaVuSans-53" d="M 3425 4513 
L 3425 3897 
Q 3066 4069 2747 4153 
Q 2428 4238 2131 4238 
Q 1616 4238 1336 4038 
Q 1056 3838 1056 3469 
Q 1056 3159 1242 3001 
Q 1428 2844 1947 2747 
L 2328 2669 
Q 3034 2534 3370 2195 
Q 3706 1856 3706 1288 
Q 3706 609 3251 259 
Q 2797 -91 1919 -91 
Q 1588 -91 1214 -16 
Q 841 59 441 206 
L 441 856 
Q 825 641 1194 531 
Q 1563 422 1919 422 
Q 2459 422 2753 634 
Q 3047 847 3047 1241 
Q 3047 1584 2836 1778 
Q 2625 1972 2144 2069 
L 1759 2144 
Q 1053 2284 737 2584 
Q 422 2884 422 3419 
Q 422 4038 858 4394 
Q 1294 4750 2059 4750 
Q 2388 4750 2728 4690 
Q 3069 4631 3425 4513 
z
" transform="scale(0.015625)"/>
      <path id="DejaVuSans-52" d="M 2841 2188 
Q 3044 2119 3236 1894 
Q 3428 1669 3622 1275 
L 4263 0 
L 3584 0 
L 2988 1197 
Q 2756 1666 2539 1819 
Q 2322 1972 1947 1972 
L 1259 1972 
L 1259 0 
L 628 0 
L 628 4666 
L 2053 4666 
Q 2853 4666 3247 4331 
Q 3641 3997 3641 3322 
Q 3641 2881 3436 2590 
Q 3231 2300 2841 2188 
z
M 1259 4147 
L 1259 2491 
L 2053 2491 
Q 2509 2491 2742 2702 
Q 2975 2913 2975 3322 
Q 2975 3731 2742 3939 
Q 2509 4147 2053 4147 
L 1259 4147 
z
" transform="scale(0.015625)"/>
      <path id="DejaVuSans-56" d="M 1831 0 
L 50 4666 
L 709 4666 
L 2188 738 
L 3669 4666 
L 4325 4666 
L 2547 0 
L 1831 0 
z
" transform="scale(0.015625)"/>
     </defs>
     <use xlink:href="#DejaVuSans-53"/>
     <use xlink:href="#DejaVuSans-52" x="63.476562"/>
     <use xlink:href="#DejaVuSans-56" x="127.458984"/>
    </g>
   </g>
  </g>
  <g id="axes_2">
   <g id="line2d_2">
    <path d="M 381.100704 106.359289 
L 381.036571 117.678815 
L 381.048397 119.636965 
L 380.944765 120.87771 
L 380.358984 121.922531 
L 379.45 123.312488 
L 378.036735 125.597387 
L 377.585074 125.947395 
L 376.387018 126.436072 
L 374.646811 127.215965 
L 373.940206 127.747399 
L 372.398588 129.434741 
L 371.991639 130.622351 
L 370.910361 132.893901 
L 369.270472 134.44487 
L 368.300492 135.084113 
L 364.723716 136.416177 
L 362.796734 137.053986 
L 362.120271 137.486788 
L 361.489522 138.379753 
L 360.465092 139.440553 
L 358.403512 141.373074 
L 357.945831 141.743439 
L 356.864495 142.286972 
L 355.424713 142.870265 
L 352.290864 143.755478 
L 350.878116 143.918837 
L 349.725639 143.927229 
L 347.265179 144.217241 
L 346.755594 144.541708 
L 345.494805 145.352769 
L 344.220727 145.97499 
L 341.452679 147.241622 
L 340.709121 147.36418 
L 337.136836 147.42193 
L 332.550264 147.862192 
L 329.876658 147.849126 
L 328.916631 147.985636 
L 328.118549 148.449335 
L 326.417717 149.228653 
L 325.619195 149.417772 
L 324.272112 149.470598 
L 322.555361 149.398727 
L 320.073558 149.144593 
L 318.500753 149.084568 
L 317.364735 148.795719 
L 316.38555 148.239158 
L 314.30223 147.061287 
L 313.290753 146.666764 
L 312.427553 146.530482 
L 308.616636 146.210633 
L 303.751757 144.990424 
L 300.740469 144.777491 
L 299.035213 144.529985 
L 296.944203 144.58151 
L 296.023103 144.384485 
L 291.24894 142.08245 
L 290.330728 141.902168 
L 286.351035 141.357456 
L 282.549626 140.169263 
L 279.836157 138.739418 
L 278.700785 138.543875 
L 277.530053 138.300966 
L 276.666504 137.809638 
L 275.609483 136.993522 
L 273.022666 135.08751 
L 271.542617 134.351088 
L 266.544717 132.62097 
L 264.737099 132.133628 
L 263.911944 131.614781 
L 262.362406 130.574462 
L 261.46493 129.87366 
L 257.923675 125.401043 
L 256.537198 124.228636 
L 254.486333 123.157445 
L 253.463063 122.700494 
L 252.157501 122.366911 
L 251.187764 121.999879 
L 250.597314 121.590791 
L 250.238592 121.074747 
L 249.940315 119.938467 
L 249.223022 117.294335 
L 248.969484 115.677895 
L 248.460473 114.208989 
L 248.023539 113.633621 
L 247.382182 113.248229 
L 245.702634 112.271841 
L 244.978859 111.702605 
L 243.855172 110.783254 
L 243.709867 110.377471 
L 243.660758 107.91618 
L 243.902412 106.964895 
L 244.421444 103.950465 
L 244.758661 103.429175 
L 246.848244 101.752683 
L 248.143858 101.151014 
L 249.691351 100.818055 
L 250.602161 100.395533 
L 250.939368 100.053706 
L 251.43699 98.988043 
L 252.64654 97.307633 
L 254.443751 95.983316 
L 255.674361 95.23494 
L 258.357393 93.704849 
L 258.70725 93.242694 
L 259.384701 89.795739 
L 259.626258 89.394007 
L 261.050622 87.968247 
L 261.7331 87.517126 
L 265.032123 86.270611 
L 266.684608 86.064702 
L 268.114453 85.818643 
L 270.165378 85.232094 
L 271.850333 84.589137 
L 272.612515 84.053043 
L 272.904641 83.615811 
L 274.899083 80.29722 
L 275.879474 79.668548 
L 277.899834 78.546419 
L 280.162582 77.540855 
L 281.485237 77.088068 
L 282.203211 77.00667 
L 283.229152 77.080369 
L 286.67146 76.941309 
L 288.325316 76.835059 
L 289.566921 76.632001 
L 290.469685 76.263067 
L 290.956891 75.754774 
L 292.881354 74.297294 
L 293.8459 73.937751 
L 301.430816 72.733603 
L 303.857384 72.452555 
L 307.818689 71.913449 
L 308.771819 71.623485 
L 309.30875 71.326689 
L 309.832505 70.71377 
L 311.365809 69.506376 
L 312.287244 68.874794 
L 313.047483 68.688149 
L 316.419308 68.735308 
L 318.963738 69.014132 
L 321.097845 69.40851 
L 322.261313 69.276605 
L 325.26714 69.087497 
L 328.140547 69.331603 
L 331.40923 69.896602 
L 333.622784 70.077914 
L 334.441893 69.994607 
L 336.703084 69.682519 
L 337.489055 69.831296 
L 339.635656 70.658299 
L 340.973617 71.137742 
L 341.845563 71.237105 
L 344.324369 71.361794 
L 345.318532 71.598858 
L 349.651186 72.994167 
L 352.237436 73.304004 
L 353.785481 73.741382 
L 355.332514 74.325221 
L 356.235726 74.779037 
L 357.640285 75.279827 
L 359.34391 75.936146 
L 360.313166 76.239037 
L 361.778196 76.743846 
L 362.789034 77.236345 
L 365.86089 78.40929 
L 367.95965 78.928449 
L 368.453848 79.353616 
L 369.047387 79.966322 
L 370.866626 81.653777 
L 372.077515 82.682046 
L 372.469634 83.576707 
L 372.915918 84.364392 
L 374.200663 86.03861 
L 374.892551 86.483847 
L 375.432652 86.52256 
L 376.455145 86.664065 
L 377.460441 86.937031 
L 378.220503 87.288061 
L 380.687657 88.881973 
L 380.935576 89.302174 
L 381.18474 90.369516 
L 381.624192 93.755528 
L 381.863338 95.079921 
L 381.851341 96.024072 
L 381.61861 97.52274 
L 381.101336 106.154526 
L 381.101336 106.154526 
" clip-path="url(#p9efde35834)" style="fill: none; stroke: #1f77b4; stroke-width: 1.5; stroke-linecap: square"/>
   </g>
   <g id="text_2">
    <!-- Linear -->
    <g transform="translate(294.061278 19.92) scale(0.12 -0.12)">
     <defs>
      <path id="DejaVuSans-4c" d="M 628 4666 
L 1259 4666 
L 1259 531 
L 3531 531 
L 3531 0 
L 628 0 
L 628 4666 
z
" transform="scale(0.015625)"/>
      <path id="DejaVuSans-69" d="M 603 3500 
L 1178 3500 
L 1178 0 
L 603 0 
L 603 3500 
z
M 603 4863 
L 1178 4863 
L 1178 4134 
L 603 4134 
L 603 4863 
z
" transform="scale(0.015625)"/>
      <path id="DejaVuSans-6e" d="M 3513 2113 
L 3513 0 
L 2938 0 
L 2938 2094 
Q 2938 2591 2744 2837 
Q 2550 3084 2163 3084 
Q 1697 3084 1428 2787 
Q 1159 2491 1159 1978 
L 1159 0 
L 581 0 
L 581 3500 
L 1159 3500 
L 1159 2956 
Q 1366 3272 1645 3428 
Q 1925 3584 2291 3584 
Q 2894 3584 3203 3211 
Q 3513 2838 3513 2113 
z
" transform="scale(0.015625)"/>
      <path id="DejaVuSans-65" d="M 3597 1894 
L 3597 1613 
L 953 1613 
Q 991 1019 1311 708 
Q 1631 397 2203 397 
Q 2534 397 2845 478 
Q 3156 559 3463 722 
L 3463 178 
Q 3153 47 2828 -22 
Q 2503 -91 2169 -91 
Q 1331 -91 842 396 
Q 353 884 353 1716 
Q 353 2575 817 3079 
Q 1281 3584 2069 3584 
Q 2775 3584 3186 3129 
Q 3597 2675 3597 1894 
z
M 3022 2063 
Q 3016 2534 2758 2815 
Q 2500 3097 2075 3097 
Q 1594 3097 1305 2825 
Q 1016 2553 972 2059 
L 3022 2063 
z
" transform="scale(0.015625)"/>
      <path id="DejaVuSans-61" d="M 2194 1759 
Q 1497 1759 1228 1600 
Q 959 1441 959 1056 
Q 959 750 1161 570 
Q 1363 391 1709 391 
Q 2188 391 2477 730 
Q 2766 1069 2766 1631 
L 2766 1759 
L 2194 1759 
z
M 3341 1997 
L 3341 0 
L 2766 0 
L 2766 531 
Q 2569 213 2275 61 
Q 1981 -91 1556 -91 
Q 1019 -91 701 211 
Q 384 513 384 1019 
Q 384 1609 779 1909 
Q 1175 2209 1959 2209 
L 2766 2209 
L 2766 2266 
Q 2766 2663 2505 2880 
Q 2244 3097 1772 3097 
Q 1472 3097 1187 3025 
Q 903 2953 641 2809 
L 641 3341 
Q 956 3463 1253 3523 
Q 1550 3584 1831 3584 
Q 2591 3584 2966 3190 
Q 3341 2797 3341 1997 
z
" transform="scale(0.015625)"/>
      <path id="DejaVuSans-72" d="M 2631 2963 
Q 2534 3019 2420 3045 
Q 2306 3072 2169 3072 
Q 1681 3072 1420 2755 
Q 1159 2438 1159 1844 
L 1159 0 
L 581 0 
L 581 3500 
L 1159 3500 
L 1159 2956 
Q 1341 3275 1631 3429 
Q 1922 3584 2338 3584 
Q 2397 3584 2469 3576 
Q 2541 3569 2628 3553 
L 2631 2963 
z
" transform="scale(0.015625)"/>
     </defs>
     <use xlink:href="#DejaVuSans-4c"/>
     <use xlink:href="#DejaVuSans-69" x="55.712891"/>
     <use xlink:href="#DejaVuSans-6e" x="83.496094"/>
     <use xlink:href="#DejaVuSans-65" x="146.875"/>
     <use xlink:href="#DejaVuSans-61" x="208.398438"/>
     <use xlink:href="#DejaVuSans-72" x="269.677734"/>
    </g>
   </g>
  </g>
 </g>
 <defs>
  <clipPath id="pf026279c03">
   <rect x="54" y="25.92" width="152.181818" height="166.32"/>
  </clipPath>
  <clipPath id="p9efde35834">
   <rect x="236.618182" y="25.92" width="152.181818" height="166.32"/>
  </clipPath>
 </defs>
</svg>
