<?xml version="1.0" encoding="utf-8" standalone="no"?>
<!DOCTYPE svg PUBLIC "-//W3C//DTD SVG 1.1//EN"
  "http://www.w3.org/Graphics/SVG/1.1/DTD/svg11.dtd">
<svg xmlns:xlink="http://www.w3.org/1999/xlink" width="432pt" height="216pt" viewBox="0 0 432 216" xmlns="http://www.w3.org/2000/svg" version="1.1">
 <metadata>
  <rdf:RDF xmlns:dc="http://purl.org/dc/elements/1.1/" xmlns:cc="http://creativecommons.org/ns#" xmlns:rdf="http://www.w3.org/1999/02/22-rdf-syntax-ns#">
   <cc:Work>
    <dc:type rdf:resource="http://purl.org/dc/dcmitype/StillImage"/>
    <dc:date>2024-03-29T11:21:34.696063</dc:date>
    <dc:format>image/svg+xml</dc:format>
    <dc:creator>
     <cc:Agent>
      <dc:title>Matplotlib v3.8.3, https://matplotlib.org/</dc:title>
     </cc:Agent>
    </dc:creator>
   </cc:Work>
  </rdf:RDF>
 </metadata>
 <defs>
  <style type="text/css">*{stroke-linejoin: round; stroke-linecap: butt}</style>
 </defs>
 <g id="figure_1">
  <g id="patch_1">
   <path d="M 0 216 
L 432 216 
L 432 0 
L 0 0 
z
" style="fill: #ffffff"/>
  </g>
  <g id="axes_1">
   <g id="line2d_1">
    <path d="M 128.876039 171.9211 
L 126.773516 171.377536 
L 124.735365 170.449974 
L 123.845626 169.85597 
L 122.976713 169.116462 
L 122.224825 168.3104 
L 121.516387 167.35111 
L 120.1558 164.987364 
L 118.873293 161.963043 
L 115.355947 152.828482 
L 113.591554 149.324433 
L 111.708353 145.917328 
L 110.697755 144.326256 
L 108.409673 141.205421 
L 106.322966 138.037877 
L 102.159043 131.247482 
L 94.995509 120.551233 
L 93.407812 117.57861 
L 92.663176 116.013649 
L 91.510744 112.683974 
L 90.928197 110.970531 
L 88.722553 100.636173 
L 88.196156 97.053252 
L 87.786343 93.156958 
L 86.415584 83.855494 
L 85.844495 76.817891 
L 85.363019 65.360048 
L 85.548014 62.022297 
L 85.746343 58.869028 
L 85.878075 55.671809 
L 86.307663 52.775613 
L 87.702319 45.925392 
L 88.679672 43.466751 
L 90.060221 40.878342 
L 90.844287 39.796559 
L 92.844349 37.815548 
L 93.904073 37.040327 
L 95.002028 36.418547 
L 96.207961 35.869064 
L 97.580976 35.368245 
L 102.041961 34.225002 
L 105.238767 33.735775 
L 108.533378 33.48 
L 112.096461 33.688475 
L 117.762145 34.404355 
L 121.534017 35.07727 
L 127.267514 36.378808 
L 129.17798 36.890728 
L 130.94131 37.526264 
L 136.38043 40.003313 
L 139.926215 41.966828 
L 141.717863 43.182356 
L 148.213035 48.644516 
L 151.230181 51.699674 
L 156.811818 58.20044 
L 159.410407 61.93227 
L 164.341451 69.560592 
L 165.638866 71.571627 
L 166.841813 73.666981 
L 167.884527 75.760162 
L 169.758374 80.230186 
L 170.633225 82.661175 
L 171.989342 87.422133 
L 172.520853 89.776685 
L 174.161684 99.835266 
L 174.468396 102.519778 
L 174.776519 109.777108 
L 174.8188 112.02837 
L 174.624232 116.574139 
L 174.294652 121.175916 
L 174.164093 123.431738 
L 173.496919 127.95083 
L 170.716717 141.284483 
L 168.039049 149.551856 
L 166.559929 153.120368 
L 164.15523 158.013392 
L 162.118768 161.456129 
L 158.86467 166.001596 
L 156.52204 168.634093 
L 154.281615 171.032978 
L 151.943675 173.239411 
L 149.36398 175.628384 
L 146.807914 178.102891 
L 142.992254 181.116929 
L 140.353437 182.80925 
L 139.044912 183.458033 
L 137.667472 183.988738 
L 136.370423 184.366457 
L 133.930305 184.68 
L 133.930305 184.68 
" clip-path="url(#pbca8656f81)" style="fill: none; stroke: #1f77b4; stroke-width: 1.5; stroke-linecap: square"/>
   </g>
   <g id="text_1">
    <!-- SRV -->
    <g transform="translate(118.338409 19.92) scale(0.12 -0.12)">
     <defs>
      <path id="DejaVuSans-53" d="M 3425 4513 
L 3425 3897 
Q 3066 4069 2747 4153 
Q 2428 4238 2131 4238 
Q 1616 4238 1336 4038 
Q 1056 3838 1056 3469 
Q 1056 3159 1242 3001 
Q 1428 2844 1947 2747 
L 2328 2669 
Q 3034 2534 3370 2195 
Q 3706 1856 3706 1288 
Q 3706 609 3251 259 
Q 2797 -91 1919 -91 
Q 1588 -91 1214 -16 
Q 841 59 441 206 
L 441 856 
Q 825 641 1194 531 
Q 1563 422 1919 422 
Q 2459 422 2753 634 
Q 3047 847 3047 1241 
Q 3047 1584 2836 1778 
Q 2625 1972 2144 2069 
L 1759 2144 
Q 1053 2284 737 2584 
Q 422 2884 422 3419 
Q 422 4038 858 4394 
Q 1294 4750 2059 4750 
Q 2388 4750 2728 4690 
Q 3069 4631 3425 4513 
z
" transform="scale(0.015625)"/>
      <path id="DejaVuSans-52" d="M 2841 2188 
Q 3044 2119 3236 1894 
Q 3428 1669 3622 1275 
L 4263 0 
L 3584 0 
L 2988 1197 
Q 2756 1666 2539 1819 
Q 2322 1972 1947 1972 
L 1259 1972 
L 1259 0 
L 628 0 
L 628 4666 
L 2053 4666 
Q 2853 4666 3247 4331 
Q 3641 3997 3641 3322 
Q 3641 2881 3436 2590 
Q 3231 2300 2841 2188 
z
M 1259 4147 
L 1259 2491 
L 2053 2491 
Q 2509 2491 2742 2702 
Q 2975 2913 2975 3322 
Q 2975 3731 2742 3939 
Q 2509 4147 2053 4147 
L 1259 4147 
z
" transform="scale(0.015625)"/>
      <path id="DejaVuSans-56" d="M 1831 0 
L 50 4666 
L 709 4666 
L 2188 738 
L 3669 4666 
L 4325 4666 
L 2547 0 
L 1831 0 
z
" transform="scale(0.015625)"/>
     </defs>
     <use xlink:href="#DejaVuSans-53"/>
     <use xlink:href="#DejaVuSans-52" x="63.476562"/>
     <use xlink:href="#DejaVuSans-56" x="127.458984"/>
    </g>
   </g>
  </g>
  <g id="axes_2">
   <g id="line2d_2">
    <path d="M 313.271723 184.622616 
L 310.52091 183.938853 
L 309.159577 183.376299 
L 307.914602 182.713211 
L 306.764177 181.891449 
L 305.690141 180.920685 
L 304.779534 179.845237 
L 303.96278 178.577781 
L 302.446333 175.686599 
L 301.748024 174.03674 
L 298.527562 164.72661 
L 296.867456 160.900688 
L 295.043761 157.215152 
L 293.061573 153.890958 
L 290.730064 150.711385 
L 288.554563 147.413484 
L 283.10274 138.73755 
L 280.7829 135.475352 
L 275.80044 127.742391 
L 274.084326 124.352063 
L 273.431117 122.591469 
L 272.901567 120.784417 
L 272.246961 118.96217 
L 269.675673 106.140351 
L 268.403351 96.166291 
L 267.448949 90.620748 
L 266.821085 83.210513 
L 266.083036 70.666735 
L 266.849542 58.092029 
L 268.129633 49.806565 
L 268.537839 48.313699 
L 269.660167 45.318505 
L 271.288511 42.24257 
L 272.261696 40.903148 
L 274.60016 38.582256 
L 275.874103 37.657463 
L 277.217182 36.87083 
L 278.699717 36.212092 
L 280.321977 35.661135 
L 285.513618 34.323866 
L 289.05653 33.785285 
L 292.664182 33.48 
L 296.468562 33.686932 
L 302.47692 34.522249 
L 312.332009 36.586258 
L 314.333832 37.070862 
L 316.185701 37.737844 
L 321.716627 40.235269 
L 325.293632 42.172128 
L 327.110194 43.386308 
L 333.595252 48.779891 
L 336.578596 51.751934 
L 343.198978 59.873797 
L 346.7937 65.333915 
L 351.689407 73.21 
L 353.583128 77.284836 
L 354.503802 79.530254 
L 356.036618 84.148457 
L 356.67136 86.534399 
L 357.531773 91.219159 
L 358.716183 98.498498 
L 359.00068 101.044701 
L 359.303107 107.976751 
L 359.335146 110.140423 
L 359.129195 114.53392 
L 358.817401 118.951632 
L 358.67958 121.103829 
L 357.996695 125.470335 
L 356.270983 134.286907 
L 355.257123 138.495946 
L 352.651344 146.503474 
L 351.900688 148.443633 
L 349.47894 153.577191 
L 347.565854 157.089887 
L 345.294504 160.463052 
L 342.994585 163.593431 
L 340.4257 166.438628 
L 339.224693 167.810017 
L 329.732593 176.911729 
L 325.49857 180.35338 
L 322.517613 182.326419 
L 321.004826 183.135223 
L 319.395665 183.746819 
L 317.82084 184.216186 
L 314.737533 184.68 
L 314.737533 184.68 
" clip-path="url(#p04711a13bb)" style="fill: none; stroke: #1f77b4; stroke-width: 1.5; stroke-linecap: square"/>
   </g>
   <g id="text_2">
    <!-- Linear -->
    <g transform="translate(294.061278 19.92) scale(0.12 -0.12)">
     <defs>
      <path id="DejaVuSans-4c" d="M 628 4666 
L 1259 4666 
L 1259 531 
L 3531 531 
L 3531 0 
L 628 0 
L 628 4666 
z
" transform="scale(0.015625)"/>
      <path id="DejaVuSans-69" d="M 603 3500 
L 1178 3500 
L 1178 0 
L 603 0 
L 603 3500 
z
M 603 4863 
L 1178 4863 
L 1178 4134 
L 603 4134 
L 603 4863 
z
" transform="scale(0.015625)"/>
      <path id="DejaVuSans-6e" d="M 3513 2113 
L 3513 0 
L 2938 0 
L 2938 2094 
Q 2938 2591 2744 2837 
Q 2550 3084 2163 3084 
Q 1697 3084 1428 2787 
Q 1159 2491 1159 1978 
L 1159 0 
L 581 0 
L 581 3500 
L 1159 3500 
L 1159 2956 
Q 1366 3272 1645 3428 
Q 1925 3584 2291 3584 
Q 2894 3584 3203 3211 
Q 3513 2838 3513 2113 
z
" transform="scale(0.015625)"/>
      <path id="DejaVuSans-65" d="M 3597 1894 
L 3597 1613 
L 953 1613 
Q 991 1019 1311 708 
Q 1631 397 2203 397 
Q 2534 397 2845 478 
Q 3156 559 3463 722 
L 3463 178 
Q 3153 47 2828 -22 
Q 2503 -91 2169 -91 
Q 1331 -91 842 396 
Q 353 884 353 1716 
Q 353 2575 817 3079 
Q 1281 3584 2069 3584 
Q 2775 3584 3186 3129 
Q 3597 2675 3597 1894 
z
M 3022 2063 
Q 3016 2534 2758 2815 
Q 2500 3097 2075 3097 
Q 1594 3097 1305 2825 
Q 1016 2553 972 2059 
L 3022 2063 
z
" transform="scale(0.015625)"/>
      <path id="DejaVuSans-61" d="M 2194 1759 
Q 1497 1759 1228 1600 
Q 959 1441 959 1056 
Q 959 750 1161 570 
Q 1363 391 1709 391 
Q 2188 391 2477 730 
Q 2766 1069 2766 1631 
L 2766 1759 
L 2194 1759 
z
M 3341 1997 
L 3341 0 
L 2766 0 
L 2766 531 
Q 2569 213 2275 61 
Q 1981 -91 1556 -91 
Q 1019 -91 701 211 
Q 384 513 384 1019 
Q 384 1609 779 1909 
Q 1175 2209 1959 2209 
L 2766 2209 
L 2766 2266 
Q 2766 2663 2505 2880 
Q 2244 3097 1772 3097 
Q 1472 3097 1187 3025 
Q 903 2953 641 2809 
L 641 3341 
Q 956 3463 1253 3523 
Q 1550 3584 1831 3584 
Q 2591 3584 2966 3190 
Q 3341 2797 3341 1997 
z
" transform="scale(0.015625)"/>
      <path id="DejaVuSans-72" d="M 2631 2963 
Q 2534 3019 2420 3045 
Q 2306 3072 2169 3072 
Q 1681 3072 1420 2755 
Q 1159 2438 1159 1844 
L 1159 0 
L 581 0 
L 581 3500 
L 1159 3500 
L 1159 2956 
Q 1341 3275 1631 3429 
Q 1922 3584 2338 3584 
Q 2397 3584 2469 3576 
Q 2541 3569 2628 3553 
L 2631 2963 
z
" transform="scale(0.015625)"/>
     </defs>
     <use xlink:href="#DejaVuSans-4c"/>
     <use xlink:href="#DejaVuSans-69" x="55.712891"/>
     <use xlink:href="#DejaVuSans-6e" x="83.496094"/>
     <use xlink:href="#DejaVuSans-65" x="146.875"/>
     <use xlink:href="#DejaVuSans-61" x="208.398438"/>
     <use xlink:href="#DejaVuSans-72" x="269.677734"/>
    </g>
   </g>
  </g>
 </g>
 <defs>
  <clipPath id="pbca8656f81">
   <rect x="54" y="25.92" width="152.181818" height="166.32"/>
  </clipPath>
  <clipPath id="p04711a13bb">
   <rect x="236.618182" y="25.92" width="152.181818" height="166.32"/>
  </clipPath>
 </defs>
</svg>
