<?xml version="1.0" encoding="utf-8" standalone="no"?>
<!DOCTYPE svg PUBLIC "-//W3C//DTD SVG 1.1//EN"
  "http://www.w3.org/Graphics/SVG/1.1/DTD/svg11.dtd">
<svg xmlns:xlink="http://www.w3.org/1999/xlink" width="576pt" height="288pt" viewBox="0 0 576 288" xmlns="http://www.w3.org/2000/svg" version="1.1">
 <metadata>
  <rdf:RDF xmlns:dc="http://purl.org/dc/elements/1.1/" xmlns:cc="http://creativecommons.org/ns#" xmlns:rdf="http://www.w3.org/1999/02/22-rdf-syntax-ns#">
   <cc:Work>
    <dc:type rdf:resource="http://purl.org/dc/dcmitype/StillImage"/>
    <dc:date>2023-12-18T06:59:03.840954</dc:date>
    <dc:format>image/svg+xml</dc:format>
    <dc:creator>
     <cc:Agent>
      <dc:title>Matplotlib v3.6.2, https://matplotlib.org/</dc:title>
     </cc:Agent>
    </dc:creator>
   </cc:Work>
  </rdf:RDF>
 </metadata>
 <defs>
  <style type="text/css">*{stroke-linejoin: round; stroke-linecap: butt}</style>
 </defs>
 <g id="figure_1">
  <g id="patch_1">
   <path d="M 0 288 
L 576 288 
L 576 0 
L 0 0 
z
" style="fill: #ffffff"/>
  </g>
  <g id="axes_1">
   <g id="patch_2">
    <path d="M 48.074375 260.521875 
L 290.7125 260.521875 
L 290.7125 25.918125 
L 48.074375 25.918125 
z
" style="fill: #ffffff"/>
   </g>
   <g id="patch_3">
    <path d="M 64.046978 260.521875 
L 74.692732 260.521875 
L 74.692732 255.554265 
L 64.046978 255.554265 
z
" clip-path="url(#pd43a655077)" style="fill: #1f77b4; opacity: 0.4"/>
   </g>
   <g id="patch_4">
    <path d="M 74.692732 260.521875 
L 85.338485 260.521875 
L 85.338485 252.242526 
L 74.692732 252.242526 
z
" clip-path="url(#pd43a655077)" style="fill: #1f77b4; opacity: 0.4"/>
   </g>
   <g id="patch_5">
    <path d="M 85.338485 260.521875 
L 95.984238 260.521875 
L 95.984238 237.339697 
L 85.338485 237.339697 
z
" clip-path="url(#pd43a655077)" style="fill: #1f77b4; opacity: 0.4"/>
   </g>
   <g id="patch_6">
    <path d="M 95.984238 260.521875 
L 106.629991 260.521875 
L 106.629991 222.436869 
L 95.984238 222.436869 
z
" clip-path="url(#pd43a655077)" style="fill: #1f77b4; opacity: 0.4"/>
   </g>
   <g id="patch_7">
    <path d="M 106.629991 260.521875 
L 117.275745 260.521875 
L 117.275745 205.87817 
L 106.629991 205.87817 
z
" clip-path="url(#pd43a655077)" style="fill: #1f77b4; opacity: 0.4"/>
   </g>
   <g id="patch_8">
    <path d="M 117.275745 260.521875 
L 127.921498 260.521875 
L 127.921498 214.157519 
L 117.275745 214.157519 
z
" clip-path="url(#pd43a655077)" style="fill: #1f77b4; opacity: 0.4"/>
   </g>
   <g id="patch_9">
    <path d="M 127.921498 260.521875 
L 138.567251 260.521875 
L 138.567251 200.910561 
L 127.921498 200.910561 
z
" clip-path="url(#pd43a655077)" style="fill: #1f77b4; opacity: 0.4"/>
   </g>
   <g id="patch_10">
    <path d="M 138.567251 260.521875 
L 149.213005 260.521875 
L 149.213005 214.157519 
L 138.567251 214.157519 
z
" clip-path="url(#pd43a655077)" style="fill: #1f77b4; opacity: 0.4"/>
   </g>
   <g id="patch_11">
    <path d="M 149.213005 260.521875 
L 159.858758 260.521875 
L 159.858758 222.436869 
L 149.213005 222.436869 
z
" clip-path="url(#pd43a655077)" style="fill: #1f77b4; opacity: 0.4"/>
   </g>
   <g id="patch_12">
    <path d="M 159.858758 260.521875 
L 170.504511 260.521875 
L 170.504511 237.339697 
L 159.858758 237.339697 
z
" clip-path="url(#pd43a655077)" style="fill: #1f77b4; opacity: 0.4"/>
   </g>
   <g id="patch_13">
    <path d="M 170.504511 260.521875 
L 181.150264 260.521875 
L 181.150264 253.898396 
L 170.504511 253.898396 
z
" clip-path="url(#pd43a655077)" style="fill: #1f77b4; opacity: 0.4"/>
   </g>
   <g id="patch_14">
    <path d="M 181.150264 260.521875 
L 191.796018 260.521875 
L 191.796018 250.586656 
L 181.150264 250.586656 
z
" clip-path="url(#pd43a655077)" style="fill: #1f77b4; opacity: 0.4"/>
   </g>
   <g id="patch_15">
    <path d="M 191.796018 260.521875 
L 202.441771 260.521875 
L 202.441771 260.521875 
L 191.796018 260.521875 
z
" clip-path="url(#pd43a655077)" style="fill: #1f77b4; opacity: 0.4"/>
   </g>
   <g id="patch_16">
    <path d="M 202.441771 260.521875 
L 213.087524 260.521875 
L 213.087524 255.554265 
L 202.441771 255.554265 
z
" clip-path="url(#pd43a655077)" style="fill: #1f77b4; opacity: 0.4"/>
   </g>
   <g id="patch_17">
    <path d="M 213.087524 260.521875 
L 223.733277 260.521875 
L 223.733277 253.898396 
L 213.087524 253.898396 
z
" clip-path="url(#pd43a655077)" style="fill: #1f77b4; opacity: 0.4"/>
   </g>
   <g id="patch_18">
    <path d="M 223.733277 260.521875 
L 234.379031 260.521875 
L 234.379031 258.866005 
L 223.733277 258.866005 
z
" clip-path="url(#pd43a655077)" style="fill: #1f77b4; opacity: 0.4"/>
   </g>
   <g id="patch_19">
    <path d="M 234.379031 260.521875 
L 245.024784 260.521875 
L 245.024784 258.866005 
L 234.379031 258.866005 
z
" clip-path="url(#pd43a655077)" style="fill: #1f77b4; opacity: 0.4"/>
   </g>
   <g id="patch_20">
    <path d="M 245.024784 260.521875 
L 255.670537 260.521875 
L 255.670537 260.521875 
L 245.024784 260.521875 
z
" clip-path="url(#pd43a655077)" style="fill: #1f77b4; opacity: 0.4"/>
   </g>
   <g id="patch_21">
    <path d="M 255.670537 260.521875 
L 266.31629 260.521875 
L 266.31629 260.521875 
L 255.670537 260.521875 
z
" clip-path="url(#pd43a655077)" style="fill: #1f77b4; opacity: 0.4"/>
   </g>
   <g id="patch_22">
    <path d="M 266.31629 260.521875 
L 276.962044 260.521875 
L 276.962044 258.866005 
L 266.31629 258.866005 
z
" clip-path="url(#pd43a655077)" style="fill: #1f77b4; opacity: 0.4"/>
   </g>
   <g id="patch_23">
    <path d="M 80.991128 260.521875 
L 91.373289 260.521875 
L 91.373289 232.991466 
L 80.991128 232.991466 
z
" clip-path="url(#pd43a655077)" style="fill: #ff7f0e; opacity: 0.4"/>
   </g>
   <g id="patch_24">
    <path d="M 91.373289 260.521875 
L 101.75545 260.521875 
L 101.75545 198.578455 
L 91.373289 198.578455 
z
" clip-path="url(#pd43a655077)" style="fill: #ff7f0e; opacity: 0.4"/>
   </g>
   <g id="patch_25">
    <path d="M 101.75545 260.521875 
L 112.137611 260.521875 
L 112.137611 205.461057 
L 101.75545 205.461057 
z
" clip-path="url(#pd43a655077)" style="fill: #ff7f0e; opacity: 0.4"/>
   </g>
   <g id="patch_26">
    <path d="M 112.137611 260.521875 
L 122.519772 260.521875 
L 122.519772 212.343659 
L 112.137611 212.343659 
z
" clip-path="url(#pd43a655077)" style="fill: #ff7f0e; opacity: 0.4"/>
   </g>
   <g id="patch_27">
    <path d="M 122.519772 260.521875 
L 132.901932 260.521875 
L 132.901932 215.784961 
L 122.519772 215.784961 
z
" clip-path="url(#pd43a655077)" style="fill: #ff7f0e; opacity: 0.4"/>
   </g>
   <g id="patch_28">
    <path d="M 132.901932 260.521875 
L 143.284093 260.521875 
L 143.284093 234.712117 
L 132.901932 234.712117 
z
" clip-path="url(#pd43a655077)" style="fill: #ff7f0e; opacity: 0.4"/>
   </g>
   <g id="patch_29">
    <path d="M 143.284093 260.521875 
L 153.666254 260.521875 
L 153.666254 241.594719 
L 143.284093 241.594719 
z
" clip-path="url(#pd43a655077)" style="fill: #ff7f0e; opacity: 0.4"/>
   </g>
   <g id="patch_30">
    <path d="M 153.666254 260.521875 
L 164.048415 260.521875 
L 164.048415 241.594719 
L 153.666254 241.594719 
z
" clip-path="url(#pd43a655077)" style="fill: #ff7f0e; opacity: 0.4"/>
   </g>
   <g id="patch_31">
    <path d="M 164.048415 260.521875 
L 174.430576 260.521875 
L 174.430576 231.270816 
L 164.048415 231.270816 
z
" clip-path="url(#pd43a655077)" style="fill: #ff7f0e; opacity: 0.4"/>
   </g>
   <g id="patch_32">
    <path d="M 174.430576 260.521875 
L 184.812736 260.521875 
L 184.812736 250.197972 
L 174.430576 250.197972 
z
" clip-path="url(#pd43a655077)" style="fill: #ff7f0e; opacity: 0.4"/>
   </g>
   <g id="patch_33">
    <path d="M 184.812736 260.521875 
L 195.194897 260.521875 
L 195.194897 245.03602 
L 184.812736 245.03602 
z
" clip-path="url(#pd43a655077)" style="fill: #ff7f0e; opacity: 0.4"/>
   </g>
   <g id="patch_34">
    <path d="M 195.194897 260.521875 
L 205.577058 260.521875 
L 205.577058 251.918622 
L 195.194897 251.918622 
z
" clip-path="url(#pd43a655077)" style="fill: #ff7f0e; opacity: 0.4"/>
   </g>
   <g id="patch_35">
    <path d="M 205.577058 260.521875 
L 215.959219 260.521875 
L 215.959219 257.080574 
L 205.577058 257.080574 
z
" clip-path="url(#pd43a655077)" style="fill: #ff7f0e; opacity: 0.4"/>
   </g>
   <g id="patch_36">
    <path d="M 215.959219 260.521875 
L 226.34138 260.521875 
L 226.34138 257.080574 
L 215.959219 257.080574 
z
" clip-path="url(#pd43a655077)" style="fill: #ff7f0e; opacity: 0.4"/>
   </g>
   <g id="patch_37">
    <path d="M 226.34138 260.521875 
L 236.72354 260.521875 
L 236.72354 257.080574 
L 226.34138 257.080574 
z
" clip-path="url(#pd43a655077)" style="fill: #ff7f0e; opacity: 0.4"/>
   </g>
   <g id="patch_38">
    <path d="M 236.72354 260.521875 
L 247.105701 260.521875 
L 247.105701 255.359923 
L 236.72354 255.359923 
z
" clip-path="url(#pd43a655077)" style="fill: #ff7f0e; opacity: 0.4"/>
   </g>
   <g id="patch_39">
    <path d="M 247.105701 260.521875 
L 257.487862 260.521875 
L 257.487862 260.521875 
L 247.105701 260.521875 
z
" clip-path="url(#pd43a655077)" style="fill: #ff7f0e; opacity: 0.4"/>
   </g>
   <g id="patch_40">
    <path d="M 257.487862 260.521875 
L 267.870023 260.521875 
L 267.870023 258.801224 
L 257.487862 258.801224 
z
" clip-path="url(#pd43a655077)" style="fill: #ff7f0e; opacity: 0.4"/>
   </g>
   <g id="patch_41">
    <path d="M 267.870023 260.521875 
L 278.252184 260.521875 
L 278.252184 258.801224 
L 267.870023 258.801224 
z
" clip-path="url(#pd43a655077)" style="fill: #ff7f0e; opacity: 0.4"/>
   </g>
   <g id="patch_42">
    <path d="M 278.252184 260.521875 
L 288.634345 260.521875 
L 288.634345 258.801224 
L 278.252184 258.801224 
z
" clip-path="url(#pd43a655077)" style="fill: #ff7f0e; opacity: 0.4"/>
   </g>
   <g id="patch_43">
    <path d="M 80.288444 260.521875 
L 87.498831 260.521875 
L 87.498831 248.078592 
L 80.288444 248.078592 
z
" clip-path="url(#pd43a655077)" style="fill: #2ca02c; opacity: 0.4"/>
   </g>
   <g id="patch_44">
    <path d="M 87.498831 260.521875 
L 94.709219 260.521875 
L 94.709219 230.657996 
L 87.498831 230.657996 
z
" clip-path="url(#pd43a655077)" style="fill: #2ca02c; opacity: 0.4"/>
   </g>
   <g id="patch_45">
    <path d="M 94.709219 260.521875 
L 101.919607 260.521875 
L 101.919607 233.146653 
L 94.709219 233.146653 
z
" clip-path="url(#pd43a655077)" style="fill: #2ca02c; opacity: 0.4"/>
   </g>
   <g id="patch_46">
    <path d="M 101.919607 260.521875 
L 109.129994 260.521875 
L 109.129994 218.214713 
L 101.919607 218.214713 
z
" clip-path="url(#pd43a655077)" style="fill: #2ca02c; opacity: 0.4"/>
   </g>
   <g id="patch_47">
    <path d="M 109.129994 260.521875 
L 116.340382 260.521875 
L 116.340382 228.169339 
L 109.129994 228.169339 
z
" clip-path="url(#pd43a655077)" style="fill: #2ca02c; opacity: 0.4"/>
   </g>
   <g id="patch_48">
    <path d="M 116.340382 260.521875 
L 123.55077 260.521875 
L 123.55077 218.214713 
L 116.340382 218.214713 
z
" clip-path="url(#pd43a655077)" style="fill: #2ca02c; opacity: 0.4"/>
   </g>
   <g id="patch_49">
    <path d="M 123.55077 260.521875 
L 130.761157 260.521875 
L 130.761157 203.282774 
L 123.55077 203.282774 
z
" clip-path="url(#pd43a655077)" style="fill: #2ca02c; opacity: 0.4"/>
   </g>
   <g id="patch_50">
    <path d="M 130.761157 260.521875 
L 137.971545 260.521875 
L 137.971545 200.794117 
L 130.761157 200.794117 
z
" clip-path="url(#pd43a655077)" style="fill: #2ca02c; opacity: 0.4"/>
   </g>
   <g id="patch_51">
    <path d="M 137.971545 260.521875 
L 145.181933 260.521875 
L 145.181933 215.726056 
L 137.971545 215.726056 
z
" clip-path="url(#pd43a655077)" style="fill: #2ca02c; opacity: 0.4"/>
   </g>
   <g id="patch_52">
    <path d="M 145.181933 260.521875 
L 152.39232 260.521875 
L 152.39232 215.726056 
L 145.181933 215.726056 
z
" clip-path="url(#pd43a655077)" style="fill: #2ca02c; opacity: 0.4"/>
   </g>
   <g id="patch_53">
    <path d="M 152.39232 260.521875 
L 159.602708 260.521875 
L 159.602708 220.70337 
L 152.39232 220.70337 
z
" clip-path="url(#pd43a655077)" style="fill: #2ca02c; opacity: 0.4"/>
   </g>
   <g id="patch_54">
    <path d="M 159.602708 260.521875 
L 166.813096 260.521875 
L 166.813096 235.635309 
L 159.602708 235.635309 
z
" clip-path="url(#pd43a655077)" style="fill: #2ca02c; opacity: 0.4"/>
   </g>
   <g id="patch_55">
    <path d="M 166.813096 260.521875 
L 174.023483 260.521875 
L 174.023483 235.635309 
L 166.813096 235.635309 
z
" clip-path="url(#pd43a655077)" style="fill: #2ca02c; opacity: 0.4"/>
   </g>
   <g id="patch_56">
    <path d="M 174.023483 260.521875 
L 181.233871 260.521875 
L 181.233871 230.657996 
L 174.023483 230.657996 
z
" clip-path="url(#pd43a655077)" style="fill: #2ca02c; opacity: 0.4"/>
   </g>
   <g id="patch_57">
    <path d="M 181.233871 260.521875 
L 188.444259 260.521875 
L 188.444259 250.567249 
L 181.233871 250.567249 
z
" clip-path="url(#pd43a655077)" style="fill: #2ca02c; opacity: 0.4"/>
   </g>
   <g id="patch_58">
    <path d="M 188.444259 260.521875 
L 195.654646 260.521875 
L 195.654646 255.544562 
L 188.444259 255.544562 
z
" clip-path="url(#pd43a655077)" style="fill: #2ca02c; opacity: 0.4"/>
   </g>
   <g id="patch_59">
    <path d="M 195.654646 260.521875 
L 202.865034 260.521875 
L 202.865034 250.567249 
L 195.654646 250.567249 
z
" clip-path="url(#pd43a655077)" style="fill: #2ca02c; opacity: 0.4"/>
   </g>
   <g id="patch_60">
    <path d="M 202.865034 260.521875 
L 210.075422 260.521875 
L 210.075422 255.544562 
L 202.865034 255.544562 
z
" clip-path="url(#pd43a655077)" style="fill: #2ca02c; opacity: 0.4"/>
   </g>
   <g id="patch_61">
    <path d="M 210.075422 260.521875 
L 217.285809 260.521875 
L 217.285809 255.544562 
L 210.075422 255.544562 
z
" clip-path="url(#pd43a655077)" style="fill: #2ca02c; opacity: 0.4"/>
   </g>
   <g id="patch_62">
    <path d="M 217.285809 260.521875 
L 224.496197 260.521875 
L 224.496197 253.055905 
L 217.285809 253.055905 
z
" clip-path="url(#pd43a655077)" style="fill: #2ca02c; opacity: 0.4"/>
   </g>
   <g id="matplotlib.axis_1">
    <g id="xtick_1">
     <g id="line2d_1">
      <defs>
       <path id="mce2e5134d8" d="M 0 0 
L 0 3.5 
" style="stroke: #000000; stroke-width: 0.8"/>
      </defs>
      <g>
       <use xlink:href="#mce2e5134d8" x="84.470094" y="260.521875" style="stroke: #000000; stroke-width: 0.8"/>
      </g>
     </g>
     <g id="text_1">
      <!-- 0.4 -->
      <g transform="translate(76.518531 275.120313) scale(0.1 -0.1)">
       <defs>
        <path id="DejaVuSans-30" d="M 2034 4250 
Q 1547 4250 1301 3770 
Q 1056 3291 1056 2328 
Q 1056 1369 1301 889 
Q 1547 409 2034 409 
Q 2525 409 2770 889 
Q 3016 1369 3016 2328 
Q 3016 3291 2770 3770 
Q 2525 4250 2034 4250 
z
M 2034 4750 
Q 2819 4750 3233 4129 
Q 3647 3509 3647 2328 
Q 3647 1150 3233 529 
Q 2819 -91 2034 -91 
Q 1250 -91 836 529 
Q 422 1150 422 2328 
Q 422 3509 836 4129 
Q 1250 4750 2034 4750 
z
" transform="scale(0.015625)"/>
        <path id="DejaVuSans-2e" d="M 684 794 
L 1344 794 
L 1344 0 
L 684 0 
L 684 794 
z
" transform="scale(0.015625)"/>
        <path id="DejaVuSans-34" d="M 2419 4116 
L 825 1625 
L 2419 1625 
L 2419 4116 
z
M 2253 4666 
L 3047 4666 
L 3047 1625 
L 3713 1625 
L 3713 1100 
L 3047 1100 
L 3047 0 
L 2419 0 
L 2419 1100 
L 313 1100 
L 313 1709 
L 2253 4666 
z
" transform="scale(0.015625)"/>
       </defs>
       <use xlink:href="#DejaVuSans-30"/>
       <use xlink:href="#DejaVuSans-2e" x="63.623047"/>
       <use xlink:href="#DejaVuSans-34" x="95.410156"/>
      </g>
     </g>
    </g>
    <g id="xtick_2">
     <g id="line2d_2">
      <g>
       <use xlink:href="#mce2e5134d8" x="132.997719" y="260.521875" style="stroke: #000000; stroke-width: 0.8"/>
      </g>
     </g>
     <g id="text_2">
      <!-- 0.6 -->
      <g transform="translate(125.046156 275.120313) scale(0.1 -0.1)">
       <defs>
        <path id="DejaVuSans-36" d="M 2113 2584 
Q 1688 2584 1439 2293 
Q 1191 2003 1191 1497 
Q 1191 994 1439 701 
Q 1688 409 2113 409 
Q 2538 409 2786 701 
Q 3034 994 3034 1497 
Q 3034 2003 2786 2293 
Q 2538 2584 2113 2584 
z
M 3366 4563 
L 3366 3988 
Q 3128 4100 2886 4159 
Q 2644 4219 2406 4219 
Q 1781 4219 1451 3797 
Q 1122 3375 1075 2522 
Q 1259 2794 1537 2939 
Q 1816 3084 2150 3084 
Q 2853 3084 3261 2657 
Q 3669 2231 3669 1497 
Q 3669 778 3244 343 
Q 2819 -91 2113 -91 
Q 1303 -91 875 529 
Q 447 1150 447 2328 
Q 447 3434 972 4092 
Q 1497 4750 2381 4750 
Q 2619 4750 2861 4703 
Q 3103 4656 3366 4563 
z
" transform="scale(0.015625)"/>
       </defs>
       <use xlink:href="#DejaVuSans-30"/>
       <use xlink:href="#DejaVuSans-2e" x="63.623047"/>
       <use xlink:href="#DejaVuSans-36" x="95.410156"/>
      </g>
     </g>
    </g>
    <g id="xtick_3">
     <g id="line2d_3">
      <g>
       <use xlink:href="#mce2e5134d8" x="181.525344" y="260.521875" style="stroke: #000000; stroke-width: 0.8"/>
      </g>
     </g>
     <g id="text_3">
      <!-- 0.8 -->
      <g transform="translate(173.573781 275.120313) scale(0.1 -0.1)">
       <defs>
        <path id="DejaVuSans-38" d="M 2034 2216 
Q 1584 2216 1326 1975 
Q 1069 1734 1069 1313 
Q 1069 891 1326 650 
Q 1584 409 2034 409 
Q 2484 409 2743 651 
Q 3003 894 3003 1313 
Q 3003 1734 2745 1975 
Q 2488 2216 2034 2216 
z
M 1403 2484 
Q 997 2584 770 2862 
Q 544 3141 544 3541 
Q 544 4100 942 4425 
Q 1341 4750 2034 4750 
Q 2731 4750 3128 4425 
Q 3525 4100 3525 3541 
Q 3525 3141 3298 2862 
Q 3072 2584 2669 2484 
Q 3125 2378 3379 2068 
Q 3634 1759 3634 1313 
Q 3634 634 3220 271 
Q 2806 -91 2034 -91 
Q 1263 -91 848 271 
Q 434 634 434 1313 
Q 434 1759 690 2068 
Q 947 2378 1403 2484 
z
M 1172 3481 
Q 1172 3119 1398 2916 
Q 1625 2713 2034 2713 
Q 2441 2713 2670 2916 
Q 2900 3119 2900 3481 
Q 2900 3844 2670 4047 
Q 2441 4250 2034 4250 
Q 1625 4250 1398 4047 
Q 1172 3844 1172 3481 
z
" transform="scale(0.015625)"/>
       </defs>
       <use xlink:href="#DejaVuSans-30"/>
       <use xlink:href="#DejaVuSans-2e" x="63.623047"/>
       <use xlink:href="#DejaVuSans-38" x="95.410156"/>
      </g>
     </g>
    </g>
    <g id="xtick_4">
     <g id="line2d_4">
      <g>
       <use xlink:href="#mce2e5134d8" x="230.052969" y="260.521875" style="stroke: #000000; stroke-width: 0.8"/>
      </g>
     </g>
     <g id="text_4">
      <!-- 1.0 -->
      <g transform="translate(222.101406 275.120313) scale(0.1 -0.1)">
       <defs>
        <path id="DejaVuSans-31" d="M 794 531 
L 1825 531 
L 1825 4091 
L 703 3866 
L 703 4441 
L 1819 4666 
L 2450 4666 
L 2450 531 
L 3481 531 
L 3481 0 
L 794 0 
L 794 531 
z
" transform="scale(0.015625)"/>
       </defs>
       <use xlink:href="#DejaVuSans-31"/>
       <use xlink:href="#DejaVuSans-2e" x="63.623047"/>
       <use xlink:href="#DejaVuSans-30" x="95.410156"/>
      </g>
     </g>
    </g>
    <g id="xtick_5">
     <g id="line2d_5">
      <g>
       <use xlink:href="#mce2e5134d8" x="278.580594" y="260.521875" style="stroke: #000000; stroke-width: 0.8"/>
      </g>
     </g>
     <g id="text_5">
      <!-- 1.2 -->
      <g transform="translate(270.629031 275.120313) scale(0.1 -0.1)">
       <defs>
        <path id="DejaVuSans-32" d="M 1228 531 
L 3431 531 
L 3431 0 
L 469 0 
L 469 531 
Q 828 903 1448 1529 
Q 2069 2156 2228 2338 
Q 2531 2678 2651 2914 
Q 2772 3150 2772 3378 
Q 2772 3750 2511 3984 
Q 2250 4219 1831 4219 
Q 1534 4219 1204 4116 
Q 875 4013 500 3803 
L 500 4441 
Q 881 4594 1212 4672 
Q 1544 4750 1819 4750 
Q 2544 4750 2975 4387 
Q 3406 4025 3406 3419 
Q 3406 3131 3298 2873 
Q 3191 2616 2906 2266 
Q 2828 2175 2409 1742 
Q 1991 1309 1228 531 
z
" transform="scale(0.015625)"/>
       </defs>
       <use xlink:href="#DejaVuSans-31"/>
       <use xlink:href="#DejaVuSans-2e" x="63.623047"/>
       <use xlink:href="#DejaVuSans-32" x="95.410156"/>
      </g>
     </g>
    </g>
   </g>
   <g id="matplotlib.axis_2">
    <g id="ytick_1">
     <g id="line2d_6">
      <defs>
       <path id="mf24ed14320" d="M 0 0 
L -3.5 0 
" style="stroke: #000000; stroke-width: 0.8"/>
      </defs>
      <g>
       <use xlink:href="#mf24ed14320" x="48.074375" y="260.521875" style="stroke: #000000; stroke-width: 0.8"/>
      </g>
     </g>
     <g id="text_6">
      <!-- 0 -->
      <g transform="translate(34.711875 264.321094) scale(0.1 -0.1)">
       <use xlink:href="#DejaVuSans-30"/>
      </g>
     </g>
    </g>
    <g id="ytick_2">
     <g id="line2d_7">
      <g>
       <use xlink:href="#mf24ed14320" x="48.074375" y="227.538173" style="stroke: #000000; stroke-width: 0.8"/>
      </g>
     </g>
     <g id="text_7">
      <!-- 2 -->
      <g transform="translate(34.711875 231.337391) scale(0.1 -0.1)">
       <use xlink:href="#DejaVuSans-32"/>
      </g>
     </g>
    </g>
    <g id="ytick_3">
     <g id="line2d_8">
      <g>
       <use xlink:href="#mf24ed14320" x="48.074375" y="194.55447" style="stroke: #000000; stroke-width: 0.8"/>
      </g>
     </g>
     <g id="text_8">
      <!-- 4 -->
      <g transform="translate(34.711875 198.353689) scale(0.1 -0.1)">
       <use xlink:href="#DejaVuSans-34"/>
      </g>
     </g>
    </g>
    <g id="ytick_4">
     <g id="line2d_9">
      <g>
       <use xlink:href="#mf24ed14320" x="48.074375" y="161.570768" style="stroke: #000000; stroke-width: 0.8"/>
      </g>
     </g>
     <g id="text_9">
      <!-- 6 -->
      <g transform="translate(34.711875 165.369986) scale(0.1 -0.1)">
       <use xlink:href="#DejaVuSans-36"/>
      </g>
     </g>
    </g>
    <g id="ytick_5">
     <g id="line2d_10">
      <g>
       <use xlink:href="#mf24ed14320" x="48.074375" y="128.587065" style="stroke: #000000; stroke-width: 0.8"/>
      </g>
     </g>
     <g id="text_10">
      <!-- 8 -->
      <g transform="translate(34.711875 132.386284) scale(0.1 -0.1)">
       <use xlink:href="#DejaVuSans-38"/>
      </g>
     </g>
    </g>
    <g id="ytick_6">
     <g id="line2d_11">
      <g>
       <use xlink:href="#mf24ed14320" x="48.074375" y="95.603363" style="stroke: #000000; stroke-width: 0.8"/>
      </g>
     </g>
     <g id="text_11">
      <!-- 10 -->
      <g transform="translate(28.349375 99.402582) scale(0.1 -0.1)">
       <use xlink:href="#DejaVuSans-31"/>
       <use xlink:href="#DejaVuSans-30" x="63.623047"/>
      </g>
     </g>
    </g>
    <g id="ytick_7">
     <g id="line2d_12">
      <g>
       <use xlink:href="#mf24ed14320" x="48.074375" y="62.61966" style="stroke: #000000; stroke-width: 0.8"/>
      </g>
     </g>
     <g id="text_12">
      <!-- 12 -->
      <g transform="translate(28.349375 66.418879) scale(0.1 -0.1)">
       <use xlink:href="#DejaVuSans-31"/>
       <use xlink:href="#DejaVuSans-32" x="63.623047"/>
      </g>
     </g>
    </g>
    <g id="ytick_8">
     <g id="line2d_13">
      <g>
       <use xlink:href="#mf24ed14320" x="48.074375" y="29.635958" style="stroke: #000000; stroke-width: 0.8"/>
      </g>
     </g>
     <g id="text_13">
      <!-- 14 -->
      <g transform="translate(28.349375 33.435177) scale(0.1 -0.1)">
       <use xlink:href="#DejaVuSans-31"/>
       <use xlink:href="#DejaVuSans-34" x="63.623047"/>
      </g>
     </g>
    </g>
    <g id="text_14">
     <!-- Fraction of cells -->
     <g transform="translate(21.437812 198.051875) rotate(-90) scale(0.14 -0.14)">
      <defs>
       <path id="DejaVuSans-46" d="M 628 4666 
L 3309 4666 
L 3309 4134 
L 1259 4134 
L 1259 2759 
L 3109 2759 
L 3109 2228 
L 1259 2228 
L 1259 0 
L 628 0 
L 628 4666 
z
" transform="scale(0.015625)"/>
       <path id="DejaVuSans-72" d="M 2631 2963 
Q 2534 3019 2420 3045 
Q 2306 3072 2169 3072 
Q 1681 3072 1420 2755 
Q 1159 2438 1159 1844 
L 1159 0 
L 581 0 
L 581 3500 
L 1159 3500 
L 1159 2956 
Q 1341 3275 1631 3429 
Q 1922 3584 2338 3584 
Q 2397 3584 2469 3576 
Q 2541 3569 2628 3553 
L 2631 2963 
z
" transform="scale(0.015625)"/>
       <path id="DejaVuSans-61" d="M 2194 1759 
Q 1497 1759 1228 1600 
Q 959 1441 959 1056 
Q 959 750 1161 570 
Q 1363 391 1709 391 
Q 2188 391 2477 730 
Q 2766 1069 2766 1631 
L 2766 1759 
L 2194 1759 
z
M 3341 1997 
L 3341 0 
L 2766 0 
L 2766 531 
Q 2569 213 2275 61 
Q 1981 -91 1556 -91 
Q 1019 -91 701 211 
Q 384 513 384 1019 
Q 384 1609 779 1909 
Q 1175 2209 1959 2209 
L 2766 2209 
L 2766 2266 
Q 2766 2663 2505 2880 
Q 2244 3097 1772 3097 
Q 1472 3097 1187 3025 
Q 903 2953 641 2809 
L 641 3341 
Q 956 3463 1253 3523 
Q 1550 3584 1831 3584 
Q 2591 3584 2966 3190 
Q 3341 2797 3341 1997 
z
" transform="scale(0.015625)"/>
       <path id="DejaVuSans-63" d="M 3122 3366 
L 3122 2828 
Q 2878 2963 2633 3030 
Q 2388 3097 2138 3097 
Q 1578 3097 1268 2742 
Q 959 2388 959 1747 
Q 959 1106 1268 751 
Q 1578 397 2138 397 
Q 2388 397 2633 464 
Q 2878 531 3122 666 
L 3122 134 
Q 2881 22 2623 -34 
Q 2366 -91 2075 -91 
Q 1284 -91 818 406 
Q 353 903 353 1747 
Q 353 2603 823 3093 
Q 1294 3584 2113 3584 
Q 2378 3584 2631 3529 
Q 2884 3475 3122 3366 
z
" transform="scale(0.015625)"/>
       <path id="DejaVuSans-74" d="M 1172 4494 
L 1172 3500 
L 2356 3500 
L 2356 3053 
L 1172 3053 
L 1172 1153 
Q 1172 725 1289 603 
Q 1406 481 1766 481 
L 2356 481 
L 2356 0 
L 1766 0 
Q 1100 0 847 248 
Q 594 497 594 1153 
L 594 3053 
L 172 3053 
L 172 3500 
L 594 3500 
L 594 4494 
L 1172 4494 
z
" transform="scale(0.015625)"/>
       <path id="DejaVuSans-69" d="M 603 3500 
L 1178 3500 
L 1178 0 
L 603 0 
L 603 3500 
z
M 603 4863 
L 1178 4863 
L 1178 4134 
L 603 4134 
L 603 4863 
z
" transform="scale(0.015625)"/>
       <path id="DejaVuSans-6f" d="M 1959 3097 
Q 1497 3097 1228 2736 
Q 959 2375 959 1747 
Q 959 1119 1226 758 
Q 1494 397 1959 397 
Q 2419 397 2687 759 
Q 2956 1122 2956 1747 
Q 2956 2369 2687 2733 
Q 2419 3097 1959 3097 
z
M 1959 3584 
Q 2709 3584 3137 3096 
Q 3566 2609 3566 1747 
Q 3566 888 3137 398 
Q 2709 -91 1959 -91 
Q 1206 -91 779 398 
Q 353 888 353 1747 
Q 353 2609 779 3096 
Q 1206 3584 1959 3584 
z
" transform="scale(0.015625)"/>
       <path id="DejaVuSans-6e" d="M 3513 2113 
L 3513 0 
L 2938 0 
L 2938 2094 
Q 2938 2591 2744 2837 
Q 2550 3084 2163 3084 
Q 1697 3084 1428 2787 
Q 1159 2491 1159 1978 
L 1159 0 
L 581 0 
L 581 3500 
L 1159 3500 
L 1159 2956 
Q 1366 3272 1645 3428 
Q 1925 3584 2291 3584 
Q 2894 3584 3203 3211 
Q 3513 2838 3513 2113 
z
" transform="scale(0.015625)"/>
       <path id="DejaVuSans-20" transform="scale(0.015625)"/>
       <path id="DejaVuSans-66" d="M 2375 4863 
L 2375 4384 
L 1825 4384 
Q 1516 4384 1395 4259 
Q 1275 4134 1275 3809 
L 1275 3500 
L 2222 3500 
L 2222 3053 
L 1275 3053 
L 1275 0 
L 697 0 
L 697 3053 
L 147 3053 
L 147 3500 
L 697 3500 
L 697 3744 
Q 697 4328 969 4595 
Q 1241 4863 1831 4863 
L 2375 4863 
z
" transform="scale(0.015625)"/>
       <path id="DejaVuSans-65" d="M 3597 1894 
L 3597 1613 
L 953 1613 
Q 991 1019 1311 708 
Q 1631 397 2203 397 
Q 2534 397 2845 478 
Q 3156 559 3463 722 
L 3463 178 
Q 3153 47 2828 -22 
Q 2503 -91 2169 -91 
Q 1331 -91 842 396 
Q 353 884 353 1716 
Q 353 2575 817 3079 
Q 1281 3584 2069 3584 
Q 2775 3584 3186 3129 
Q 3597 2675 3597 1894 
z
M 3022 2063 
Q 3016 2534 2758 2815 
Q 2500 3097 2075 3097 
Q 1594 3097 1305 2825 
Q 1016 2553 972 2059 
L 3022 2063 
z
" transform="scale(0.015625)"/>
       <path id="DejaVuSans-6c" d="M 603 4863 
L 1178 4863 
L 1178 0 
L 603 0 
L 603 4863 
z
" transform="scale(0.015625)"/>
       <path id="DejaVuSans-73" d="M 2834 3397 
L 2834 2853 
Q 2591 2978 2328 3040 
Q 2066 3103 1784 3103 
Q 1356 3103 1142 2972 
Q 928 2841 928 2578 
Q 928 2378 1081 2264 
Q 1234 2150 1697 2047 
L 1894 2003 
Q 2506 1872 2764 1633 
Q 3022 1394 3022 966 
Q 3022 478 2636 193 
Q 2250 -91 1575 -91 
Q 1294 -91 989 -36 
Q 684 19 347 128 
L 347 722 
Q 666 556 975 473 
Q 1284 391 1588 391 
Q 1994 391 2212 530 
Q 2431 669 2431 922 
Q 2431 1156 2273 1281 
Q 2116 1406 1581 1522 
L 1381 1569 
Q 847 1681 609 1914 
Q 372 2147 372 2553 
Q 372 3047 722 3315 
Q 1072 3584 1716 3584 
Q 2034 3584 2315 3537 
Q 2597 3491 2834 3397 
z
" transform="scale(0.015625)"/>
      </defs>
      <use xlink:href="#DejaVuSans-46"/>
      <use xlink:href="#DejaVuSans-72" x="50.269531"/>
      <use xlink:href="#DejaVuSans-61" x="91.382812"/>
      <use xlink:href="#DejaVuSans-63" x="152.662109"/>
      <use xlink:href="#DejaVuSans-74" x="207.642578"/>
      <use xlink:href="#DejaVuSans-69" x="246.851562"/>
      <use xlink:href="#DejaVuSans-6f" x="274.634766"/>
      <use xlink:href="#DejaVuSans-6e" x="335.816406"/>
      <use xlink:href="#DejaVuSans-20" x="399.195312"/>
      <use xlink:href="#DejaVuSans-6f" x="430.982422"/>
      <use xlink:href="#DejaVuSans-66" x="492.164062"/>
      <use xlink:href="#DejaVuSans-20" x="527.369141"/>
      <use xlink:href="#DejaVuSans-63" x="559.15625"/>
      <use xlink:href="#DejaVuSans-65" x="614.136719"/>
      <use xlink:href="#DejaVuSans-6c" x="675.660156"/>
      <use xlink:href="#DejaVuSans-6c" x="703.443359"/>
      <use xlink:href="#DejaVuSans-73" x="731.226562"/>
     </g>
    </g>
   </g>
   <g id="line2d_14">
    <path d="M -1 260.521875 
L 2.120185 260.521875 
L 7.021965 260.521873 
L 11.923745 260.521859 
L 16.825526 260.521749 
L 21.727306 260.521058 
L 26.629086 260.517543 
L 31.530866 260.503035 
L 36.432647 260.454518 
L 41.334427 260.323246 
L 46.236207 260.035707 
L 51.137988 259.522831 
L 56.039768 258.762475 
L 60.941548 257.772939 
L 65.843329 256.515727 
L 70.745109 254.780219 
L 75.646889 252.194333 
L 80.54867 248.40883 
L 85.45045 243.335191 
L 90.35223 237.259258 
L 95.25401 230.753926 
L 100.155791 224.480768 
L 105.057571 219.021498 
L 109.959351 214.753762 
L 114.861132 211.72896 
L 119.762912 209.679908 
L 124.664692 208.332712 
L 129.566473 207.827551 
L 134.468253 208.72961 
L 139.370033 211.471655 
L 144.271813 215.804041 
L 149.173594 220.914979 
L 154.075374 226.088904 
L 158.977154 231.128337 
L 163.878935 236.126163 
L 168.780715 240.99546 
L 173.682495 245.362296 
L 178.584276 248.877728 
L 183.486056 251.503525 
L 188.387836 253.441654 
L 193.289616 254.856051 
L 198.191397 255.752991 
L 203.093177 256.129236 
L 207.994957 256.149433 
L 212.896738 256.113914 
L 217.798518 256.268413 
L 222.700298 256.678527 
L 227.602079 257.267954 
L 232.503859 257.92886 
L 237.405639 258.585135 
L 242.30742 259.186212 
L 247.2092 259.682751 
L 252.11098 260.026834 
L 257.01276 260.192132 
L 261.914541 260.190391 
L 266.816321 260.076598 
L 271.718101 259.941045 
L 276.619882 259.877185 
L 281.521662 259.931836 
L 286.423442 260.079481 
L 291.325223 260.250503 
L 296.227003 260.385722 
L 301.128783 260.466005 
L 306.030563 260.503125 
L 310.932344 260.516728 
L 315.834124 260.52072 
L 320.735904 260.521663 
L 325.637685 260.521843 
L 330.539465 260.521871 
L 335.441245 260.521875 
L 340.343026 260.521875 
L 345.244806 260.521875 
L 350.146586 260.521875 
L 355.048366 260.521875 
L 359.950147 260.521875 
L 364.851927 260.521875 
L 369.753707 260.521875 
L 374.655488 260.521875 
L 379.557268 260.521875 
L 384.459048 260.521875 
L 389.360829 260.521875 
L 394.262609 260.521875 
L 399.164389 260.521875 
L 404.06617 260.521875 
L 408.96795 260.521875 
L 413.86973 260.521875 
L 418.77151 260.521875 
L 423.673291 260.521875 
L 428.575071 260.521875 
L 433.476851 260.521875 
L 438.378632 260.521875 
L 443.280412 260.521875 
L 448.182192 260.521875 
L 453.083973 260.521875 
L 457.985753 260.521875 
L 462.887533 260.521875 
L 467.789313 260.521875 
L 472.691094 260.521875 
" clip-path="url(#pd43a655077)" style="fill: none; stroke: #1f77b4; stroke-width: 1.5; stroke-linecap: square"/>
   </g>
   <g id="line2d_15">
    <path d="M -1 260.521875 
L 2.120185 260.521875 
L 7.021965 260.521874 
L 11.923745 260.521871 
L 16.825526 260.521849 
L 21.727306 260.521725 
L 26.629086 260.521119 
L 31.530866 260.518501 
L 36.432647 260.508537 
L 41.334427 260.475074 
L 46.236207 260.375836 
L 51.137988 260.115688 
L 56.039768 259.512363 
L 60.941548 258.273639 
L 65.843329 256.020993 
L 70.745109 252.392047 
L 75.646889 247.213835 
L 80.54867 240.672025 
L 85.45045 233.361297 
L 90.35223 226.148195 
L 95.25401 219.900377 
L 100.155791 215.236812 
L 105.057571 212.432232 
L 109.959351 211.482085 
L 114.861132 212.224438 
L 119.762912 214.415932 
L 124.664692 217.739426 
L 129.566473 221.788253 
L 134.468253 226.080129 
L 139.370033 230.122728 
L 144.271813 233.516234 
L 149.173594 236.052838 
L 154.075374 237.766585 
L 158.977154 238.902901 
L 163.878935 239.811126 
L 168.780715 240.803616 
L 173.682495 242.050223 
L 178.584276 243.561573 
L 183.486056 245.255559 
L 188.387836 247.042562 
L 193.289616 248.862735 
L 198.191397 250.665342 
L 203.093177 252.37479 
L 207.994957 253.887901 
L 212.896738 255.105729 
L 217.798518 255.972944 
L 222.700298 256.502011 
L 227.602079 256.776017 
L 232.503859 256.928506 
L 237.405639 257.09898 
L 242.30742 257.377252 
L 247.2092 257.768864 
L 252.11098 258.207825 
L 257.01276 258.607769 
L 261.914541 258.913053 
L 266.816321 259.11766 
L 271.718101 259.251345 
L 276.619882 259.354776 
L 281.521662 259.46212 
L 286.423442 259.59396 
L 291.325223 259.755118 
L 296.227003 259.934908 
L 301.128783 260.11195 
L 306.030563 260.26383 
L 310.932344 260.376765 
L 315.834124 260.449441 
L 320.735904 260.489922 
L 325.637685 260.509455 
L 330.539465 260.51763 
L 335.441245 260.520601 
L 340.343026 260.521539 
L 345.244806 260.521797 
L 350.146586 260.521859 
L 355.048366 260.521872 
L 359.950147 260.521875 
L 364.851927 260.521875 
L 369.753707 260.521875 
L 374.655488 260.521875 
L 379.557268 260.521875 
L 384.459048 260.521875 
L 389.360829 260.521875 
L 394.262609 260.521875 
L 399.164389 260.521875 
L 404.06617 260.521875 
L 408.96795 260.521875 
L 413.86973 260.521875 
L 418.77151 260.521875 
L 423.673291 260.521875 
L 428.575071 260.521875 
L 433.476851 260.521875 
L 438.378632 260.521875 
L 443.280412 260.521875 
L 448.182192 260.521875 
L 453.083973 260.521875 
L 457.985753 260.521875 
L 462.887533 260.521875 
L 467.789313 260.521875 
L 472.691094 260.521875 
" clip-path="url(#pd43a655077)" style="fill: none; stroke: #ff7f0e; stroke-width: 1.5; stroke-linecap: square"/>
   </g>
   <g id="line2d_16">
    <path d="M -1 260.521875 
L 2.120185 260.521875 
L 7.021965 260.521875 
L 11.923745 260.521875 
L 16.825526 260.521875 
L 21.727306 260.521875 
L 26.629086 260.521873 
L 31.530866 260.521856 
L 36.432647 260.521706 
L 41.334427 260.52063 
L 46.236207 260.514436 
L 51.137988 260.485625 
L 56.039768 260.377034 
L 60.941548 260.043719 
L 65.843329 259.205155 
L 70.745109 257.461997 
L 75.646889 254.439252 
L 80.54867 250.020033 
L 85.45045 244.513139 
L 90.35223 238.607556 
L 95.25401 233.121545 
L 100.155791 228.668372 
L 105.057571 225.353728 
L 109.959351 222.666956 
L 114.861132 219.795031 
L 119.762912 216.298382 
L 124.664692 212.598469 
L 129.566473 209.786332 
L 134.468253 208.902726 
L 139.370033 210.289717 
L 144.271813 213.485288 
L 149.173594 217.64377 
L 154.075374 222.033459 
L 158.977154 226.222713 
L 163.878935 230.036716 
L 168.780715 233.556568 
L 173.682495 237.098444 
L 178.584276 240.937255 
L 183.486056 244.934731 
L 188.387836 248.537088 
L 193.289616 251.225352 
L 198.191397 252.933891 
L 203.093177 253.999052 
L 207.994957 254.78485 
L 212.896738 255.466652 
L 217.798518 256.129584 
L 222.700298 256.886343 
L 227.602079 257.796447 
L 232.503859 258.754805 
L 237.405639 259.561778 
L 242.30742 260.092853 
L 247.2092 260.365877 
L 252.11098 260.476002 
L 257.01276 260.511006 
L 261.914541 260.519805 
L 266.816321 260.521559 
L 271.718101 260.521836 
L 276.619882 260.521871 
L 281.521662 260.521875 
L 286.423442 260.521875 
L 291.325223 260.521875 
L 296.227003 260.521875 
L 301.128783 260.521875 
L 306.030563 260.521875 
L 310.932344 260.521875 
L 315.834124 260.521875 
L 320.735904 260.521875 
L 325.637685 260.521875 
L 330.539465 260.521875 
L 335.441245 260.521875 
L 340.343026 260.521875 
L 345.244806 260.521875 
L 350.146586 260.521875 
L 355.048366 260.521875 
L 359.950147 260.521875 
L 364.851927 260.521875 
L 369.753707 260.521875 
L 374.655488 260.521875 
L 379.557268 260.521875 
L 384.459048 260.521875 
L 389.360829 260.521875 
L 394.262609 260.521875 
L 399.164389 260.521875 
L 404.06617 260.521875 
L 408.96795 260.521875 
L 413.86973 260.521875 
L 418.77151 260.521875 
L 423.673291 260.521875 
L 428.575071 260.521875 
L 433.476851 260.521875 
L 438.378632 260.521875 
L 443.280412 260.521875 
L 448.182192 260.521875 
L 453.083973 260.521875 
L 457.985753 260.521875 
L 462.887533 260.521875 
L 467.789313 260.521875 
L 472.691094 260.521875 
" clip-path="url(#pd43a655077)" style="fill: none; stroke: #2ca02c; stroke-width: 1.5; stroke-linecap: square"/>
   </g>
   <g id="patch_63">
    <path d="M 48.074375 260.521875 
L 48.074375 25.918125 
" style="fill: none; stroke: #000000; stroke-width: 0.8; stroke-linejoin: miter; stroke-linecap: square"/>
   </g>
   <g id="patch_64">
    <path d="M 290.7125 260.521875 
L 290.7125 25.918125 
" style="fill: none; stroke: #000000; stroke-width: 0.8; stroke-linejoin: miter; stroke-linecap: square"/>
   </g>
   <g id="patch_65">
    <path d="M 48.074375 260.521875 
L 290.7125 260.521875 
" style="fill: none; stroke: #000000; stroke-width: 0.8; stroke-linejoin: miter; stroke-linecap: square"/>
   </g>
   <g id="patch_66">
    <path d="M 48.074375 25.918125 
L 290.7125 25.918125 
" style="fill: none; stroke: #000000; stroke-width: 0.8; stroke-linejoin: miter; stroke-linecap: square"/>
   </g>
   <g id="text_15">
    <!-- SRV -->
    <g transform="translate(157.640938 19.918125) scale(0.12 -0.12)">
     <defs>
      <path id="DejaVuSans-53" d="M 3425 4513 
L 3425 3897 
Q 3066 4069 2747 4153 
Q 2428 4238 2131 4238 
Q 1616 4238 1336 4038 
Q 1056 3838 1056 3469 
Q 1056 3159 1242 3001 
Q 1428 2844 1947 2747 
L 2328 2669 
Q 3034 2534 3370 2195 
Q 3706 1856 3706 1288 
Q 3706 609 3251 259 
Q 2797 -91 1919 -91 
Q 1588 -91 1214 -16 
Q 841 59 441 206 
L 441 856 
Q 825 641 1194 531 
Q 1563 422 1919 422 
Q 2459 422 2753 634 
Q 3047 847 3047 1241 
Q 3047 1584 2836 1778 
Q 2625 1972 2144 2069 
L 1759 2144 
Q 1053 2284 737 2584 
Q 422 2884 422 3419 
Q 422 4038 858 4394 
Q 1294 4750 2059 4750 
Q 2388 4750 2728 4690 
Q 3069 4631 3425 4513 
z
" transform="scale(0.015625)"/>
      <path id="DejaVuSans-52" d="M 2841 2188 
Q 3044 2119 3236 1894 
Q 3428 1669 3622 1275 
L 4263 0 
L 3584 0 
L 2988 1197 
Q 2756 1666 2539 1819 
Q 2322 1972 1947 1972 
L 1259 1972 
L 1259 0 
L 628 0 
L 628 4666 
L 2053 4666 
Q 2853 4666 3247 4331 
Q 3641 3997 3641 3322 
Q 3641 2881 3436 2590 
Q 3231 2300 2841 2188 
z
M 1259 4147 
L 1259 2491 
L 2053 2491 
Q 2509 2491 2742 2702 
Q 2975 2913 2975 3322 
Q 2975 3731 2742 3939 
Q 2509 4147 2053 4147 
L 1259 4147 
z
" transform="scale(0.015625)"/>
      <path id="DejaVuSans-56" d="M 1831 0 
L 50 4666 
L 709 4666 
L 2188 738 
L 3669 4666 
L 4325 4666 
L 2547 0 
L 1831 0 
z
" transform="scale(0.015625)"/>
     </defs>
     <use xlink:href="#DejaVuSans-53"/>
     <use xlink:href="#DejaVuSans-52" x="63.476562"/>
     <use xlink:href="#DejaVuSans-56" x="127.458984"/>
    </g>
   </g>
   <g id="legend_1">
    <g id="patch_67">
     <path d="M 162.828125 88.693125 
L 282.3125 88.693125 
Q 284.7125 88.693125 284.7125 86.293125 
L 284.7125 34.318125 
Q 284.7125 31.918125 282.3125 31.918125 
L 162.828125 31.918125 
Q 160.428125 31.918125 160.428125 34.318125 
L 160.428125 86.293125 
Q 160.428125 88.693125 162.828125 88.693125 
z
" style="fill: #ffffff; opacity: 0.8; stroke: #cccccc; stroke-linejoin: miter"/>
    </g>
    <g id="patch_68">
     <path d="M 165.228125 45.83625 
L 189.228125 45.83625 
L 189.228125 37.43625 
L 165.228125 37.43625 
z
" style="fill: #1f77b4; opacity: 0.4"/>
    </g>
    <g id="text_16">
     <!-- MCF10A -->
     <g transform="translate(198.828125 45.83625) scale(0.12 -0.12)">
      <defs>
       <path id="DejaVuSans-4d" d="M 628 4666 
L 1569 4666 
L 2759 1491 
L 3956 4666 
L 4897 4666 
L 4897 0 
L 4281 0 
L 4281 4097 
L 3078 897 
L 2444 897 
L 1241 4097 
L 1241 0 
L 628 0 
L 628 4666 
z
" transform="scale(0.015625)"/>
       <path id="DejaVuSans-43" d="M 4122 4306 
L 4122 3641 
Q 3803 3938 3442 4084 
Q 3081 4231 2675 4231 
Q 1875 4231 1450 3742 
Q 1025 3253 1025 2328 
Q 1025 1406 1450 917 
Q 1875 428 2675 428 
Q 3081 428 3442 575 
Q 3803 722 4122 1019 
L 4122 359 
Q 3791 134 3420 21 
Q 3050 -91 2638 -91 
Q 1578 -91 968 557 
Q 359 1206 359 2328 
Q 359 3453 968 4101 
Q 1578 4750 2638 4750 
Q 3056 4750 3426 4639 
Q 3797 4528 4122 4306 
z
" transform="scale(0.015625)"/>
       <path id="DejaVuSans-41" d="M 2188 4044 
L 1331 1722 
L 3047 1722 
L 2188 4044 
z
M 1831 4666 
L 2547 4666 
L 4325 0 
L 3669 0 
L 3244 1197 
L 1141 1197 
L 716 0 
L 50 0 
L 1831 4666 
z
" transform="scale(0.015625)"/>
      </defs>
      <use xlink:href="#DejaVuSans-4d"/>
      <use xlink:href="#DejaVuSans-43" x="86.279297"/>
      <use xlink:href="#DejaVuSans-46" x="156.103516"/>
      <use xlink:href="#DejaVuSans-31" x="213.623047"/>
      <use xlink:href="#DejaVuSans-30" x="277.246094"/>
      <use xlink:href="#DejaVuSans-41" x="340.869141"/>
     </g>
    </g>
    <g id="patch_69">
     <path d="M 165.228125 63.45 
L 189.228125 63.45 
L 189.228125 55.05 
L 165.228125 55.05 
z
" style="fill: #ff7f0e; opacity: 0.4"/>
    </g>
    <g id="text_17">
     <!-- MCF7 -->
     <g transform="translate(198.828125 63.45) scale(0.12 -0.12)">
      <defs>
       <path id="DejaVuSans-37" d="M 525 4666 
L 3525 4666 
L 3525 4397 
L 1831 0 
L 1172 0 
L 2766 4134 
L 525 4134 
L 525 4666 
z
" transform="scale(0.015625)"/>
      </defs>
      <use xlink:href="#DejaVuSans-4d"/>
      <use xlink:href="#DejaVuSans-43" x="86.279297"/>
      <use xlink:href="#DejaVuSans-46" x="156.103516"/>
      <use xlink:href="#DejaVuSans-37" x="213.623047"/>
     </g>
    </g>
    <g id="patch_70">
     <path d="M 165.228125 81.06375 
L 189.228125 81.06375 
L 189.228125 72.66375 
L 165.228125 72.66375 
z
" style="fill: #2ca02c; opacity: 0.4"/>
    </g>
    <g id="text_18">
     <!-- MDA_MB_231 -->
     <g transform="translate(198.828125 81.06375) scale(0.12 -0.12)">
      <defs>
       <path id="DejaVuSans-44" d="M 1259 4147 
L 1259 519 
L 2022 519 
Q 2988 519 3436 956 
Q 3884 1394 3884 2338 
Q 3884 3275 3436 3711 
Q 2988 4147 2022 4147 
L 1259 4147 
z
M 628 4666 
L 1925 4666 
Q 3281 4666 3915 4102 
Q 4550 3538 4550 2338 
Q 4550 1131 3912 565 
Q 3275 0 1925 0 
L 628 0 
L 628 4666 
z
" transform="scale(0.015625)"/>
       <path id="DejaVuSans-5f" d="M 3263 -1063 
L 3263 -1509 
L -63 -1509 
L -63 -1063 
L 3263 -1063 
z
" transform="scale(0.015625)"/>
       <path id="DejaVuSans-42" d="M 1259 2228 
L 1259 519 
L 2272 519 
Q 2781 519 3026 730 
Q 3272 941 3272 1375 
Q 3272 1813 3026 2020 
Q 2781 2228 2272 2228 
L 1259 2228 
z
M 1259 4147 
L 1259 2741 
L 2194 2741 
Q 2656 2741 2882 2914 
Q 3109 3088 3109 3444 
Q 3109 3797 2882 3972 
Q 2656 4147 2194 4147 
L 1259 4147 
z
M 628 4666 
L 2241 4666 
Q 2963 4666 3353 4366 
Q 3744 4066 3744 3513 
Q 3744 3084 3544 2831 
Q 3344 2578 2956 2516 
Q 3422 2416 3680 2098 
Q 3938 1781 3938 1306 
Q 3938 681 3513 340 
Q 3088 0 2303 0 
L 628 0 
L 628 4666 
z
" transform="scale(0.015625)"/>
       <path id="DejaVuSans-33" d="M 2597 2516 
Q 3050 2419 3304 2112 
Q 3559 1806 3559 1356 
Q 3559 666 3084 287 
Q 2609 -91 1734 -91 
Q 1441 -91 1130 -33 
Q 819 25 488 141 
L 488 750 
Q 750 597 1062 519 
Q 1375 441 1716 441 
Q 2309 441 2620 675 
Q 2931 909 2931 1356 
Q 2931 1769 2642 2001 
Q 2353 2234 1838 2234 
L 1294 2234 
L 1294 2753 
L 1863 2753 
Q 2328 2753 2575 2939 
Q 2822 3125 2822 3475 
Q 2822 3834 2567 4026 
Q 2313 4219 1838 4219 
Q 1578 4219 1281 4162 
Q 984 4106 628 3988 
L 628 4550 
Q 988 4650 1302 4700 
Q 1616 4750 1894 4750 
Q 2613 4750 3031 4423 
Q 3450 4097 3450 3541 
Q 3450 3153 3228 2886 
Q 3006 2619 2597 2516 
z
" transform="scale(0.015625)"/>
      </defs>
      <use xlink:href="#DejaVuSans-4d"/>
      <use xlink:href="#DejaVuSans-44" x="86.279297"/>
      <use xlink:href="#DejaVuSans-41" x="161.53125"/>
      <use xlink:href="#DejaVuSans-5f" x="229.939453"/>
      <use xlink:href="#DejaVuSans-4d" x="279.939453"/>
      <use xlink:href="#DejaVuSans-42" x="366.21875"/>
      <use xlink:href="#DejaVuSans-5f" x="434.822266"/>
      <use xlink:href="#DejaVuSans-32" x="484.822266"/>
      <use xlink:href="#DejaVuSans-33" x="548.445312"/>
      <use xlink:href="#DejaVuSans-31" x="612.068359"/>
     </g>
    </g>
   </g>
  </g>
  <g id="axes_2">
   <g id="patch_71">
    <path d="M 322.561875 260.521875 
L 565.2 260.521875 
L 565.2 25.918125 
L 322.561875 25.918125 
z
" style="fill: #ffffff"/>
   </g>
   <g id="patch_72">
    <path d="M 384.057372 260.521875 
L 394.682896 260.521875 
L 394.682896 152.685428 
L 384.057372 152.685428 
z
" clip-path="url(#p64940d0b9c)" style="fill: #1f77b4; opacity: 0.4"/>
   </g>
   <g id="patch_73">
    <path d="M 394.682896 260.521875 
L 405.308421 260.521875 
L 405.308421 126.141071 
L 394.682896 126.141071 
z
" clip-path="url(#p64940d0b9c)" style="fill: #1f77b4; opacity: 0.4"/>
   </g>
   <g id="patch_74">
    <path d="M 405.308421 260.521875 
L 415.933945 260.521875 
L 415.933945 192.501962 
L 405.308421 192.501962 
z
" clip-path="url(#p64940d0b9c)" style="fill: #1f77b4; opacity: 0.4"/>
   </g>
   <g id="patch_75">
    <path d="M 415.933945 260.521875 
L 426.55947 260.521875 
L 426.55947 217.387296 
L 415.933945 217.387296 
z
" clip-path="url(#p64940d0b9c)" style="fill: #1f77b4; opacity: 0.4"/>
   </g>
   <g id="patch_76">
    <path d="M 426.55947 260.521875 
L 437.184994 260.521875 
L 437.184994 248.908719 
L 426.55947 248.908719 
z
" clip-path="url(#p64940d0b9c)" style="fill: #1f77b4; opacity: 0.4"/>
   </g>
   <g id="patch_77">
    <path d="M 437.184994 260.521875 
L 447.810519 260.521875 
L 447.810519 252.226764 
L 437.184994 252.226764 
z
" clip-path="url(#p64940d0b9c)" style="fill: #1f77b4; opacity: 0.4"/>
   </g>
   <g id="patch_78">
    <path d="M 447.810519 260.521875 
L 458.436043 260.521875 
L 458.436043 258.862853 
L 447.810519 258.862853 
z
" clip-path="url(#p64940d0b9c)" style="fill: #1f77b4; opacity: 0.4"/>
   </g>
   <g id="patch_79">
    <path d="M 458.436043 260.521875 
L 469.061568 260.521875 
L 469.061568 260.521875 
L 458.436043 260.521875 
z
" clip-path="url(#p64940d0b9c)" style="fill: #1f77b4; opacity: 0.4"/>
   </g>
   <g id="patch_80">
    <path d="M 469.061568 260.521875 
L 479.687092 260.521875 
L 479.687092 260.521875 
L 469.061568 260.521875 
z
" clip-path="url(#p64940d0b9c)" style="fill: #1f77b4; opacity: 0.4"/>
   </g>
   <g id="patch_81">
    <path d="M 479.687092 260.521875 
L 490.312617 260.521875 
L 490.312617 260.521875 
L 479.687092 260.521875 
z
" clip-path="url(#p64940d0b9c)" style="fill: #1f77b4; opacity: 0.4"/>
   </g>
   <g id="patch_82">
    <path d="M 490.312617 260.521875 
L 500.938141 260.521875 
L 500.938141 260.521875 
L 490.312617 260.521875 
z
" clip-path="url(#p64940d0b9c)" style="fill: #1f77b4; opacity: 0.4"/>
   </g>
   <g id="patch_83">
    <path d="M 500.938141 260.521875 
L 511.563666 260.521875 
L 511.563666 260.521875 
L 500.938141 260.521875 
z
" clip-path="url(#p64940d0b9c)" style="fill: #1f77b4; opacity: 0.4"/>
   </g>
   <g id="patch_84">
    <path d="M 511.563666 260.521875 
L 522.18919 260.521875 
L 522.18919 260.521875 
L 511.563666 260.521875 
z
" clip-path="url(#p64940d0b9c)" style="fill: #1f77b4; opacity: 0.4"/>
   </g>
   <g id="patch_85">
    <path d="M 522.18919 260.521875 
L 532.814715 260.521875 
L 532.814715 260.521875 
L 522.18919 260.521875 
z
" clip-path="url(#p64940d0b9c)" style="fill: #1f77b4; opacity: 0.4"/>
   </g>
   <g id="patch_86">
    <path d="M 532.814715 260.521875 
L 543.440239 260.521875 
L 543.440239 260.521875 
L 532.814715 260.521875 
z
" clip-path="url(#p64940d0b9c)" style="fill: #1f77b4; opacity: 0.4"/>
   </g>
   <g id="patch_87">
    <path d="M 543.440239 260.521875 
L 554.065764 260.521875 
L 554.065764 260.521875 
L 543.440239 260.521875 
z
" clip-path="url(#p64940d0b9c)" style="fill: #1f77b4; opacity: 0.4"/>
   </g>
   <g id="patch_88">
    <path d="M 554.065764 260.521875 
L 564.691288 260.521875 
L 564.691288 260.521875 
L 554.065764 260.521875 
z
" clip-path="url(#p64940d0b9c)" style="fill: #1f77b4; opacity: 0.4"/>
   </g>
   <g id="patch_89">
    <path d="M 564.691288 260.521875 
L 575.316813 260.521875 
L 575.316813 260.521875 
L 564.691288 260.521875 
z
" clip-path="url(#p64940d0b9c)" style="fill: #1f77b4; opacity: 0.4"/>
   </g>
   <g id="patch_90">
    <path d="M 575.316813 260.521875 
L 585.942337 260.521875 
L 585.942337 260.521875 
L 575.316813 260.521875 
z
" clip-path="url(#p64940d0b9c)" style="fill: #1f77b4; opacity: 0.4"/>
   </g>
   <g id="patch_91">
    <path d="M 585.942337 260.521875 
L 596.567862 260.521875 
L 596.567862 258.862853 
L 585.942337 258.862853 
z
" clip-path="url(#p64940d0b9c)" style="fill: #1f77b4; opacity: 0.4"/>
   </g>
   <g id="patch_92">
    <path d="M 385.515522 260.521875 
L 392.071668 260.521875 
L 392.071668 219.650142 
L 385.515522 219.650142 
z
" clip-path="url(#p64940d0b9c)" style="fill: #ff7f0e; opacity: 0.4"/>
   </g>
   <g id="patch_93">
    <path d="M 392.071668 260.521875 
L 398.627814 260.521875 
L 398.627814 37.089732 
L 392.071668 37.089732 
z
" clip-path="url(#p64940d0b9c)" style="fill: #ff7f0e; opacity: 0.4"/>
   </g>
   <g id="patch_94">
    <path d="M 398.627814 260.521875 
L 405.183961 260.521875 
L 405.183961 67.062337 
L 398.627814 67.062337 
z
" clip-path="url(#p64940d0b9c)" style="fill: #ff7f0e; opacity: 0.4"/>
   </g>
   <g id="patch_95">
    <path d="M 405.183961 260.521875 
L 411.740107 260.521875 
L 411.740107 203.301448 
L 405.183961 203.301448 
z
" clip-path="url(#p64940d0b9c)" style="fill: #ff7f0e; opacity: 0.4"/>
   </g>
   <g id="patch_96">
    <path d="M 411.740107 260.521875 
L 418.296253 260.521875 
L 418.296253 225.099706 
L 411.740107 225.099706 
z
" clip-path="url(#p64940d0b9c)" style="fill: #ff7f0e; opacity: 0.4"/>
   </g>
   <g id="patch_97">
    <path d="M 418.296253 260.521875 
L 424.852399 260.521875 
L 424.852399 244.173182 
L 418.296253 244.173182 
z
" clip-path="url(#p64940d0b9c)" style="fill: #ff7f0e; opacity: 0.4"/>
   </g>
   <g id="patch_98">
    <path d="M 424.852399 260.521875 
L 431.408546 260.521875 
L 431.408546 244.173182 
L 424.852399 244.173182 
z
" clip-path="url(#p64940d0b9c)" style="fill: #ff7f0e; opacity: 0.4"/>
   </g>
   <g id="patch_99">
    <path d="M 431.408546 260.521875 
L 437.964692 260.521875 
L 437.964692 252.347528 
L 431.408546 252.347528 
z
" clip-path="url(#p64940d0b9c)" style="fill: #ff7f0e; opacity: 0.4"/>
   </g>
   <g id="patch_100">
    <path d="M 437.964692 260.521875 
L 444.520838 260.521875 
L 444.520838 260.521875 
L 437.964692 260.521875 
z
" clip-path="url(#p64940d0b9c)" style="fill: #ff7f0e; opacity: 0.4"/>
   </g>
   <g id="patch_101">
    <path d="M 444.520838 260.521875 
L 451.076984 260.521875 
L 451.076984 257.797093 
L 444.520838 257.797093 
z
" clip-path="url(#p64940d0b9c)" style="fill: #ff7f0e; opacity: 0.4"/>
   </g>
   <g id="patch_102">
    <path d="M 451.076984 260.521875 
L 457.633131 260.521875 
L 457.633131 257.797093 
L 451.076984 257.797093 
z
" clip-path="url(#p64940d0b9c)" style="fill: #ff7f0e; opacity: 0.4"/>
   </g>
   <g id="patch_103">
    <path d="M 457.633131 260.521875 
L 464.189277 260.521875 
L 464.189277 257.797093 
L 457.633131 257.797093 
z
" clip-path="url(#p64940d0b9c)" style="fill: #ff7f0e; opacity: 0.4"/>
   </g>
   <g id="patch_104">
    <path d="M 464.189277 260.521875 
L 470.745423 260.521875 
L 470.745423 257.797093 
L 464.189277 257.797093 
z
" clip-path="url(#p64940d0b9c)" style="fill: #ff7f0e; opacity: 0.4"/>
   </g>
   <g id="patch_105">
    <path d="M 470.745423 260.521875 
L 477.301569 260.521875 
L 477.301569 257.797093 
L 470.745423 257.797093 
z
" clip-path="url(#p64940d0b9c)" style="fill: #ff7f0e; opacity: 0.4"/>
   </g>
   <g id="patch_106">
    <path d="M 477.301569 260.521875 
L 483.857716 260.521875 
L 483.857716 257.797093 
L 477.301569 257.797093 
z
" clip-path="url(#p64940d0b9c)" style="fill: #ff7f0e; opacity: 0.4"/>
   </g>
   <g id="patch_107">
    <path d="M 483.857716 260.521875 
L 490.413862 260.521875 
L 490.413862 260.521875 
L 483.857716 260.521875 
z
" clip-path="url(#p64940d0b9c)" style="fill: #ff7f0e; opacity: 0.4"/>
   </g>
   <g id="patch_108">
    <path d="M 490.413862 260.521875 
L 496.970008 260.521875 
L 496.970008 260.521875 
L 490.413862 260.521875 
z
" clip-path="url(#p64940d0b9c)" style="fill: #ff7f0e; opacity: 0.4"/>
   </g>
   <g id="patch_109">
    <path d="M 496.970008 260.521875 
L 503.526154 260.521875 
L 503.526154 260.521875 
L 496.970008 260.521875 
z
" clip-path="url(#p64940d0b9c)" style="fill: #ff7f0e; opacity: 0.4"/>
   </g>
   <g id="patch_110">
    <path d="M 503.526154 260.521875 
L 510.0823 260.521875 
L 510.0823 260.521875 
L 503.526154 260.521875 
z
" clip-path="url(#p64940d0b9c)" style="fill: #ff7f0e; opacity: 0.4"/>
   </g>
   <g id="patch_111">
    <path d="M 510.0823 260.521875 
L 516.638447 260.521875 
L 516.638447 257.797093 
L 510.0823 257.797093 
z
" clip-path="url(#p64940d0b9c)" style="fill: #ff7f0e; opacity: 0.4"/>
   </g>
   <g id="patch_112">
    <path d="M 386.876131 260.521875 
L 392.25882 260.521875 
L 392.25882 190.514535 
L 386.876131 190.514535 
z
" clip-path="url(#p64940d0b9c)" style="fill: #2ca02c; opacity: 0.4"/>
   </g>
   <g id="patch_113">
    <path d="M 392.25882 260.521875 
L 397.64151 260.521875 
L 397.64151 157.177707 
L 392.25882 157.177707 
z
" clip-path="url(#p64940d0b9c)" style="fill: #2ca02c; opacity: 0.4"/>
   </g>
   <g id="patch_114">
    <path d="M 397.64151 260.521875 
L 403.024199 260.521875 
L 403.024199 120.507195 
L 397.64151 120.507195 
z
" clip-path="url(#p64940d0b9c)" style="fill: #2ca02c; opacity: 0.4"/>
   </g>
   <g id="patch_115">
    <path d="M 403.024199 260.521875 
L 408.406888 260.521875 
L 408.406888 133.841927 
L 403.024199 133.841927 
z
" clip-path="url(#p64940d0b9c)" style="fill: #2ca02c; opacity: 0.4"/>
   </g>
   <g id="patch_116">
    <path d="M 408.406888 260.521875 
L 413.789577 260.521875 
L 413.789577 170.512438 
L 408.406888 170.512438 
z
" clip-path="url(#p64940d0b9c)" style="fill: #2ca02c; opacity: 0.4"/>
   </g>
   <g id="patch_117">
    <path d="M 413.789577 260.521875 
L 419.172267 260.521875 
L 419.172267 203.849267 
L 413.789577 203.849267 
z
" clip-path="url(#p64940d0b9c)" style="fill: #2ca02c; opacity: 0.4"/>
   </g>
   <g id="patch_118">
    <path d="M 419.172267 260.521875 
L 424.554956 260.521875 
L 424.554956 200.515584 
L 419.172267 200.515584 
z
" clip-path="url(#p64940d0b9c)" style="fill: #2ca02c; opacity: 0.4"/>
   </g>
   <g id="patch_119">
    <path d="M 424.554956 260.521875 
L 429.937645 260.521875 
L 429.937645 240.519778 
L 424.554956 240.519778 
z
" clip-path="url(#p64940d0b9c)" style="fill: #2ca02c; opacity: 0.4"/>
   </g>
   <g id="patch_120">
    <path d="M 429.937645 260.521875 
L 435.320334 260.521875 
L 435.320334 233.852412 
L 429.937645 233.852412 
z
" clip-path="url(#p64940d0b9c)" style="fill: #2ca02c; opacity: 0.4"/>
   </g>
   <g id="patch_121">
    <path d="M 435.320334 260.521875 
L 440.703023 260.521875 
L 440.703023 233.852412 
L 435.320334 233.852412 
z
" clip-path="url(#p64940d0b9c)" style="fill: #2ca02c; opacity: 0.4"/>
   </g>
   <g id="patch_122">
    <path d="M 440.703023 260.521875 
L 446.085713 260.521875 
L 446.085713 260.521875 
L 440.703023 260.521875 
z
" clip-path="url(#p64940d0b9c)" style="fill: #2ca02c; opacity: 0.4"/>
   </g>
   <g id="patch_123">
    <path d="M 446.085713 260.521875 
L 451.468402 260.521875 
L 451.468402 257.188192 
L 446.085713 257.188192 
z
" clip-path="url(#p64940d0b9c)" style="fill: #2ca02c; opacity: 0.4"/>
   </g>
   <g id="patch_124">
    <path d="M 451.468402 260.521875 
L 456.851091 260.521875 
L 456.851091 260.521875 
L 451.468402 260.521875 
z
" clip-path="url(#p64940d0b9c)" style="fill: #2ca02c; opacity: 0.4"/>
   </g>
   <g id="patch_125">
    <path d="M 456.851091 260.521875 
L 462.23378 260.521875 
L 462.23378 260.521875 
L 456.851091 260.521875 
z
" clip-path="url(#p64940d0b9c)" style="fill: #2ca02c; opacity: 0.4"/>
   </g>
   <g id="patch_126">
    <path d="M 462.23378 260.521875 
L 467.61647 260.521875 
L 467.61647 253.854509 
L 462.23378 253.854509 
z
" clip-path="url(#p64940d0b9c)" style="fill: #2ca02c; opacity: 0.4"/>
   </g>
   <g id="patch_127">
    <path d="M 467.61647 260.521875 
L 472.999159 260.521875 
L 472.999159 257.188192 
L 467.61647 257.188192 
z
" clip-path="url(#p64940d0b9c)" style="fill: #2ca02c; opacity: 0.4"/>
   </g>
   <g id="patch_128">
    <path d="M 472.999159 260.521875 
L 478.381848 260.521875 
L 478.381848 260.521875 
L 472.999159 260.521875 
z
" clip-path="url(#p64940d0b9c)" style="fill: #2ca02c; opacity: 0.4"/>
   </g>
   <g id="patch_129">
    <path d="M 478.381848 260.521875 
L 483.764537 260.521875 
L 483.764537 257.188192 
L 478.381848 257.188192 
z
" clip-path="url(#p64940d0b9c)" style="fill: #2ca02c; opacity: 0.4"/>
   </g>
   <g id="patch_130">
    <path d="M 483.764537 260.521875 
L 489.147226 260.521875 
L 489.147226 257.188192 
L 483.764537 257.188192 
z
" clip-path="url(#p64940d0b9c)" style="fill: #2ca02c; opacity: 0.4"/>
   </g>
   <g id="patch_131">
    <path d="M 489.147226 260.521875 
L 494.529916 260.521875 
L 494.529916 257.188192 
L 489.147226 257.188192 
z
" clip-path="url(#p64940d0b9c)" style="fill: #2ca02c; opacity: 0.4"/>
   </g>
   <g id="matplotlib.axis_3">
    <g id="xtick_6">
     <g id="line2d_17">
      <g>
       <use xlink:href="#mce2e5134d8" x="358.957594" y="260.521875" style="stroke: #000000; stroke-width: 0.8"/>
      </g>
     </g>
     <g id="text_19">
      <!-- 0.4 -->
      <g transform="translate(351.006031 275.120313) scale(0.1 -0.1)">
       <use xlink:href="#DejaVuSans-30"/>
       <use xlink:href="#DejaVuSans-2e" x="63.623047"/>
       <use xlink:href="#DejaVuSans-34" x="95.410156"/>
      </g>
     </g>
    </g>
    <g id="xtick_7">
     <g id="line2d_18">
      <g>
       <use xlink:href="#mce2e5134d8" x="407.485219" y="260.521875" style="stroke: #000000; stroke-width: 0.8"/>
      </g>
     </g>
     <g id="text_20">
      <!-- 0.6 -->
      <g transform="translate(399.533656 275.120313) scale(0.1 -0.1)">
       <use xlink:href="#DejaVuSans-30"/>
       <use xlink:href="#DejaVuSans-2e" x="63.623047"/>
       <use xlink:href="#DejaVuSans-36" x="95.410156"/>
      </g>
     </g>
    </g>
    <g id="xtick_8">
     <g id="line2d_19">
      <g>
       <use xlink:href="#mce2e5134d8" x="456.012844" y="260.521875" style="stroke: #000000; stroke-width: 0.8"/>
      </g>
     </g>
     <g id="text_21">
      <!-- 0.8 -->
      <g transform="translate(448.061281 275.120313) scale(0.1 -0.1)">
       <use xlink:href="#DejaVuSans-30"/>
       <use xlink:href="#DejaVuSans-2e" x="63.623047"/>
       <use xlink:href="#DejaVuSans-38" x="95.410156"/>
      </g>
     </g>
    </g>
    <g id="xtick_9">
     <g id="line2d_20">
      <g>
       <use xlink:href="#mce2e5134d8" x="504.540469" y="260.521875" style="stroke: #000000; stroke-width: 0.8"/>
      </g>
     </g>
     <g id="text_22">
      <!-- 1.0 -->
      <g transform="translate(496.588906 275.120313) scale(0.1 -0.1)">
       <use xlink:href="#DejaVuSans-31"/>
       <use xlink:href="#DejaVuSans-2e" x="63.623047"/>
       <use xlink:href="#DejaVuSans-30" x="95.410156"/>
      </g>
     </g>
    </g>
    <g id="xtick_10">
     <g id="line2d_21">
      <g>
       <use xlink:href="#mce2e5134d8" x="553.068094" y="260.521875" style="stroke: #000000; stroke-width: 0.8"/>
      </g>
     </g>
     <g id="text_23">
      <!-- 1.2 -->
      <g transform="translate(545.116531 275.120313) scale(0.1 -0.1)">
       <use xlink:href="#DejaVuSans-31"/>
       <use xlink:href="#DejaVuSans-2e" x="63.623047"/>
       <use xlink:href="#DejaVuSans-32" x="95.410156"/>
      </g>
     </g>
    </g>
   </g>
   <g id="matplotlib.axis_4">
    <g id="ytick_9">
     <g id="line2d_22">
      <g>
       <use xlink:href="#mf24ed14320" x="322.561875" y="260.521875" style="stroke: #000000; stroke-width: 0.8"/>
      </g>
     </g>
    </g>
    <g id="ytick_10">
     <g id="line2d_23">
      <g>
       <use xlink:href="#mf24ed14320" x="322.561875" y="227.538173" style="stroke: #000000; stroke-width: 0.8"/>
      </g>
     </g>
    </g>
    <g id="ytick_11">
     <g id="line2d_24">
      <g>
       <use xlink:href="#mf24ed14320" x="322.561875" y="194.55447" style="stroke: #000000; stroke-width: 0.8"/>
      </g>
     </g>
    </g>
    <g id="ytick_12">
     <g id="line2d_25">
      <g>
       <use xlink:href="#mf24ed14320" x="322.561875" y="161.570768" style="stroke: #000000; stroke-width: 0.8"/>
      </g>
     </g>
    </g>
    <g id="ytick_13">
     <g id="line2d_26">
      <g>
       <use xlink:href="#mf24ed14320" x="322.561875" y="128.587065" style="stroke: #000000; stroke-width: 0.8"/>
      </g>
     </g>
    </g>
    <g id="ytick_14">
     <g id="line2d_27">
      <g>
       <use xlink:href="#mf24ed14320" x="322.561875" y="95.603363" style="stroke: #000000; stroke-width: 0.8"/>
      </g>
     </g>
    </g>
    <g id="ytick_15">
     <g id="line2d_28">
      <g>
       <use xlink:href="#mf24ed14320" x="322.561875" y="62.61966" style="stroke: #000000; stroke-width: 0.8"/>
      </g>
     </g>
    </g>
    <g id="ytick_16">
     <g id="line2d_29">
      <g>
       <use xlink:href="#mf24ed14320" x="322.561875" y="29.635958" style="stroke: #000000; stroke-width: 0.8"/>
      </g>
     </g>
    </g>
    <g id="text_24">
     <!-- Fraction of cells -->
     <g transform="translate(312.150312 198.051875) rotate(-90) scale(0.14 -0.14)">
      <use xlink:href="#DejaVuSans-46"/>
      <use xlink:href="#DejaVuSans-72" x="50.269531"/>
      <use xlink:href="#DejaVuSans-61" x="91.382812"/>
      <use xlink:href="#DejaVuSans-63" x="152.662109"/>
      <use xlink:href="#DejaVuSans-74" x="207.642578"/>
      <use xlink:href="#DejaVuSans-69" x="246.851562"/>
      <use xlink:href="#DejaVuSans-6f" x="274.634766"/>
      <use xlink:href="#DejaVuSans-6e" x="335.816406"/>
      <use xlink:href="#DejaVuSans-20" x="399.195312"/>
      <use xlink:href="#DejaVuSans-6f" x="430.982422"/>
      <use xlink:href="#DejaVuSans-66" x="492.164062"/>
      <use xlink:href="#DejaVuSans-20" x="527.369141"/>
      <use xlink:href="#DejaVuSans-63" x="559.15625"/>
      <use xlink:href="#DejaVuSans-65" x="614.136719"/>
      <use xlink:href="#DejaVuSans-6c" x="675.660156"/>
      <use xlink:href="#DejaVuSans-6c" x="703.443359"/>
      <use xlink:href="#DejaVuSans-73" x="731.226562"/>
     </g>
    </g>
   </g>
   <g id="line2d_30">
    <path d="M 261.902344 260.521875 
L 266.804124 260.521875 
L 271.705904 260.521875 
L 276.607685 260.521875 
L 281.509465 260.521875 
L 286.411245 260.521875 
L 291.313026 260.521875 
L 296.214806 260.521875 
L 301.116586 260.521875 
L 306.018366 260.521875 
L 310.920147 260.521875 
L 315.821927 260.521875 
L 320.723707 260.521875 
L 325.625488 260.521875 
L 330.527268 260.521875 
L 335.429048 260.521875 
L 340.330829 260.521875 
L 345.232609 260.521875 
L 350.134389 260.521874 
L 355.03617 260.521809 
L 359.93795 260.519466 
L 364.83973 260.472536 
L 369.74151 259.939306 
L 374.643291 256.427972 
L 379.545071 242.761535 
L 384.446851 211.138044 
L 389.348632 168.721485 
L 394.250412 139.113178 
L 399.152192 135.897212 
L 404.053973 152.815379 
L 408.955753 176.438786 
L 413.857533 196.049451 
L 418.759313 211.109921 
L 423.661094 224.940672 
L 428.562874 237.520383 
L 433.464654 246.760803 
L 438.366435 251.378144 
L 443.268215 253.668273 
L 448.169995 255.967638 
L 453.071776 257.929219 
L 457.973556 259.230152 
L 462.875336 260.050013 
L 467.777116 260.417099 
L 472.678897 260.508908 
L 477.580677 260.521007 
L 482.482457 260.521844 
L 487.384238 260.521874 
L 492.286018 260.521875 
L 497.187798 260.521875 
L 502.089579 260.521875 
L 506.991359 260.521875 
L 511.893139 260.521875 
L 516.79492 260.521875 
L 521.6967 260.521875 
L 526.59848 260.521875 
L 531.50026 260.521875 
L 536.402041 260.521875 
L 541.303821 260.521875 
L 546.205601 260.521875 
L 551.107382 260.521875 
L 556.009162 260.521875 
L 560.910942 260.521875 
L 565.812723 260.52187 
L 570.714503 260.521699 
L 575.616283 260.518292 
L 577 260.508367 
" clip-path="url(#p64940d0b9c)" style="fill: none; stroke: #1f77b4; stroke-width: 1.5; stroke-linecap: square"/>
   </g>
   <g id="line2d_31">
    <path d="M 261.902344 260.521875 
L 266.804124 260.521875 
L 271.705904 260.521875 
L 276.607685 260.521875 
L 281.509465 260.521875 
L 286.411245 260.521875 
L 291.313026 260.521875 
L 296.214806 260.521875 
L 301.116586 260.521875 
L 306.018366 260.521875 
L 310.920147 260.521875 
L 315.821927 260.521875 
L 320.723707 260.521875 
L 325.625488 260.521875 
L 330.527268 260.521875 
L 335.429048 260.521875 
L 340.330829 260.521875 
L 345.232609 260.521875 
L 350.134389 260.521875 
L 355.03617 260.521875 
L 359.93795 260.521858 
L 364.83973 260.520709 
L 369.74151 260.4845 
L 374.643291 259.92339 
L 379.545071 255.366485 
L 384.446851 234.743868 
L 389.348632 181.308246 
L 394.250412 107.711526 
L 399.152192 76.13972 
L 404.053973 118.585355 
L 408.955753 180.569793 
L 413.857533 215.45749 
L 418.759313 231.421149 
L 423.661094 240.946357 
L 428.562874 246.853418 
L 433.464654 251.934116 
L 438.366435 256.475008 
L 443.268215 258.633427 
L 448.169995 258.20581 
L 453.071776 257.47444 
L 457.973556 257.554663 
L 462.875336 257.820027 
L 467.777116 257.81387 
L 472.678897 258.169879 
L 477.580677 258.788762 
L 482.482457 258.965284 
L 487.384238 259.427948 
L 492.286018 260.150964 
L 497.187798 260.46595 
L 502.089579 260.487654 
L 506.991359 260.265923 
L 511.893139 259.621048 
L 516.79492 259.176236 
L 521.6967 259.669032 
L 526.59848 260.292544 
L 531.50026 260.495711 
L 536.402041 260.520608 
L 541.303821 260.521849 
L 546.205601 260.521875 
L 551.107382 260.521875 
L 556.009162 260.521875 
L 560.910942 260.521875 
L 565.812723 260.521875 
L 570.714503 260.521875 
L 575.616283 260.521875 
L 577 260.521875 
" clip-path="url(#p64940d0b9c)" style="fill: none; stroke: #ff7f0e; stroke-width: 1.5; stroke-linecap: square"/>
   </g>
   <g id="line2d_32">
    <path d="M 261.902344 260.521875 
L 266.804124 260.521875 
L 271.705904 260.521875 
L 276.607685 260.521875 
L 281.509465 260.521875 
L 286.411245 260.521875 
L 291.313026 260.521875 
L 296.214806 260.521875 
L 301.116586 260.521875 
L 306.018366 260.521875 
L 310.920147 260.521875 
L 315.821927 260.521875 
L 320.723707 260.521875 
L 325.625488 260.521875 
L 330.527268 260.521875 
L 335.429048 260.521875 
L 340.330829 260.521875 
L 345.232609 260.521875 
L 350.134389 260.521875 
L 355.03617 260.521874 
L 359.93795 260.52178 
L 364.83973 260.517694 
L 369.74151 260.427528 
L 374.643291 259.407499 
L 379.545071 253.403365 
L 384.446851 234.542552 
L 389.348632 201.39528 
L 394.250412 166.429699 
L 399.152192 144.64374 
L 404.053973 143.386717 
L 408.955753 159.074256 
L 413.857533 181.345353 
L 418.759313 201.538636 
L 423.661094 216.67405 
L 428.562874 227.464246 
L 433.464654 234.569564 
L 438.366435 242.418153 
L 443.268215 251.51757 
L 448.169995 257.311981 
L 453.071776 259.408561 
L 457.973556 259.309326 
L 462.875336 258.022665 
L 467.777116 257.150662 
L 472.678897 257.380417 
L 477.580677 257.745977 
L 482.482457 257.870083 
L 487.384238 258.167736 
L 492.286018 258.60467 
L 497.187798 259.226772 
L 502.089579 259.971707 
L 506.991359 260.397998 
L 511.893139 260.507924 
L 516.79492 260.521102 
L 521.6967 260.521854 
L 526.59848 260.521875 
L 531.50026 260.521875 
L 536.402041 260.521875 
L 541.303821 260.521875 
L 546.205601 260.521875 
L 551.107382 260.521875 
L 556.009162 260.521875 
L 560.910942 260.521875 
L 565.812723 260.521875 
L 570.714503 260.521875 
L 575.616283 260.521875 
L 577 260.521875 
" clip-path="url(#p64940d0b9c)" style="fill: none; stroke: #2ca02c; stroke-width: 1.5; stroke-linecap: square"/>
   </g>
   <g id="patch_132">
    <path d="M 322.561875 260.521875 
L 322.561875 25.918125 
" style="fill: none; stroke: #000000; stroke-width: 0.8; stroke-linejoin: miter; stroke-linecap: square"/>
   </g>
   <g id="patch_133">
    <path d="M 565.2 260.521875 
L 565.2 25.918125 
" style="fill: none; stroke: #000000; stroke-width: 0.8; stroke-linejoin: miter; stroke-linecap: square"/>
   </g>
   <g id="patch_134">
    <path d="M 322.561875 260.521875 
L 565.2 260.521875 
" style="fill: none; stroke: #000000; stroke-width: 0.8; stroke-linejoin: miter; stroke-linecap: square"/>
   </g>
   <g id="patch_135">
    <path d="M 322.561875 25.918125 
L 565.2 25.918125 
" style="fill: none; stroke: #000000; stroke-width: 0.8; stroke-linejoin: miter; stroke-linecap: square"/>
   </g>
   <g id="text_25">
    <!-- Linear -->
    <g transform="translate(425.233125 19.918125) scale(0.12 -0.12)">
     <defs>
      <path id="DejaVuSans-4c" d="M 628 4666 
L 1259 4666 
L 1259 531 
L 3531 531 
L 3531 0 
L 628 0 
L 628 4666 
z
" transform="scale(0.015625)"/>
     </defs>
     <use xlink:href="#DejaVuSans-4c"/>
     <use xlink:href="#DejaVuSans-69" x="55.712891"/>
     <use xlink:href="#DejaVuSans-6e" x="83.496094"/>
     <use xlink:href="#DejaVuSans-65" x="146.875"/>
     <use xlink:href="#DejaVuSans-61" x="208.398438"/>
     <use xlink:href="#DejaVuSans-72" x="269.677734"/>
    </g>
   </g>
   <g id="legend_2">
    <g id="patch_136">
     <path d="M 437.315625 88.693125 
L 556.8 88.693125 
Q 559.2 88.693125 559.2 86.293125 
L 559.2 34.318125 
Q 559.2 31.918125 556.8 31.918125 
L 437.315625 31.918125 
Q 434.915625 31.918125 434.915625 34.318125 
L 434.915625 86.293125 
Q 434.915625 88.693125 437.315625 88.693125 
z
" style="fill: #ffffff; opacity: 0.8; stroke: #cccccc; stroke-linejoin: miter"/>
    </g>
    <g id="patch_137">
     <path d="M 439.715625 45.83625 
L 463.715625 45.83625 
L 463.715625 37.43625 
L 439.715625 37.43625 
z
" style="fill: #1f77b4; opacity: 0.4"/>
    </g>
    <g id="text_26">
     <!-- MCF10A -->
     <g transform="translate(473.315625 45.83625) scale(0.12 -0.12)">
      <use xlink:href="#DejaVuSans-4d"/>
      <use xlink:href="#DejaVuSans-43" x="86.279297"/>
      <use xlink:href="#DejaVuSans-46" x="156.103516"/>
      <use xlink:href="#DejaVuSans-31" x="213.623047"/>
      <use xlink:href="#DejaVuSans-30" x="277.246094"/>
      <use xlink:href="#DejaVuSans-41" x="340.869141"/>
     </g>
    </g>
    <g id="patch_138">
     <path d="M 439.715625 63.45 
L 463.715625 63.45 
L 463.715625 55.05 
L 439.715625 55.05 
z
" style="fill: #ff7f0e; opacity: 0.4"/>
    </g>
    <g id="text_27">
     <!-- MCF7 -->
     <g transform="translate(473.315625 63.45) scale(0.12 -0.12)">
      <use xlink:href="#DejaVuSans-4d"/>
      <use xlink:href="#DejaVuSans-43" x="86.279297"/>
      <use xlink:href="#DejaVuSans-46" x="156.103516"/>
      <use xlink:href="#DejaVuSans-37" x="213.623047"/>
     </g>
    </g>
    <g id="patch_139">
     <path d="M 439.715625 81.06375 
L 463.715625 81.06375 
L 463.715625 72.66375 
L 439.715625 72.66375 
z
" style="fill: #2ca02c; opacity: 0.4"/>
    </g>
    <g id="text_28">
     <!-- MDA_MB_231 -->
     <g transform="translate(473.315625 81.06375) scale(0.12 -0.12)">
      <use xlink:href="#DejaVuSans-4d"/>
      <use xlink:href="#DejaVuSans-44" x="86.279297"/>
      <use xlink:href="#DejaVuSans-41" x="161.53125"/>
      <use xlink:href="#DejaVuSans-5f" x="229.939453"/>
      <use xlink:href="#DejaVuSans-4d" x="279.939453"/>
      <use xlink:href="#DejaVuSans-42" x="366.21875"/>
      <use xlink:href="#DejaVuSans-5f" x="434.822266"/>
      <use xlink:href="#DejaVuSans-32" x="484.822266"/>
      <use xlink:href="#DejaVuSans-33" x="548.445312"/>
      <use xlink:href="#DejaVuSans-31" x="612.068359"/>
     </g>
    </g>
   </g>
  </g>
 </g>
 <defs>
  <clipPath id="pd43a655077">
   <rect x="48.074375" y="25.918125" width="242.638125" height="234.60375"/>
  </clipPath>
  <clipPath id="p64940d0b9c">
   <rect x="322.561875" y="25.918125" width="242.638125" height="234.60375"/>
  </clipPath>
 </defs>
</svg>
