<?xml version="1.0" encoding="utf-8" standalone="no"?>
<!DOCTYPE svg PUBLIC "-//W3C//DTD SVG 1.1//EN"
  "http://www.w3.org/Graphics/SVG/1.1/DTD/svg11.dtd">
<svg xmlns:xlink="http://www.w3.org/1999/xlink" width="576pt" height="288pt" viewBox="0 0 576 288" xmlns="http://www.w3.org/2000/svg" version="1.1">
 <metadata>
  <rdf:RDF xmlns:dc="http://purl.org/dc/elements/1.1/" xmlns:cc="http://creativecommons.org/ns#" xmlns:rdf="http://www.w3.org/1999/02/22-rdf-syntax-ns#">
   <cc:Work>
    <dc:type rdf:resource="http://purl.org/dc/dcmitype/StillImage"/>
    <dc:date>2024-03-29T11:21:39.087827</dc:date>
    <dc:format>image/svg+xml</dc:format>
    <dc:creator>
     <cc:Agent>
      <dc:title>Matplotlib v3.8.3, https://matplotlib.org/</dc:title>
     </cc:Agent>
    </dc:creator>
   </cc:Work>
  </rdf:RDF>
 </metadata>
 <defs>
  <style type="text/css">*{stroke-linejoin: round; stroke-linecap: butt}</style>
 </defs>
 <g id="figure_1">
  <g id="patch_1">
   <path d="M 0 288 
L 576 288 
L 576 0 
L 0 0 
z
" style="fill: #ffffff"/>
  </g>
  <g id="axes_1">
   <g id="patch_2">
    <path d="M 48.074375 260.521875 
L 290.7125 260.521875 
L 290.7125 25.918125 
L 48.074375 25.918125 
z
" style="fill: #ffffff"/>
   </g>
   <g id="patch_3">
    <path d="M 64.593304 260.521875 
L 73.034461 260.521875 
L 73.034461 254.12623 
L 64.593304 254.12623 
z
" clip-path="url(#pa5c414e4b9)" style="fill: #1f77b4; opacity: 0.4"/>
   </g>
   <g id="patch_4">
    <path d="M 73.034461 260.521875 
L 81.475618 260.521875 
L 81.475618 251.994349 
L 73.034461 251.994349 
z
" clip-path="url(#pa5c414e4b9)" style="fill: #1f77b4; opacity: 0.4"/>
   </g>
   <g id="patch_5">
    <path d="M 81.475618 260.521875 
L 89.916775 260.521875 
L 89.916775 224.279888 
L 81.475618 224.279888 
z
" clip-path="url(#pa5c414e4b9)" style="fill: #1f77b4; opacity: 0.4"/>
   </g>
   <g id="patch_6">
    <path d="M 89.916775 260.521875 
L 98.357932 260.521875 
L 98.357932 220.016125 
L 89.916775 220.016125 
z
" clip-path="url(#pa5c414e4b9)" style="fill: #1f77b4; opacity: 0.4"/>
   </g>
   <g id="patch_7">
    <path d="M 98.357932 260.521875 
L 106.799089 260.521875 
L 106.799089 194.433545 
L 98.357932 194.433545 
z
" clip-path="url(#pa5c414e4b9)" style="fill: #1f77b4; opacity: 0.4"/>
   </g>
   <g id="patch_8">
    <path d="M 106.799089 260.521875 
L 115.240246 260.521875 
L 115.240246 194.433545 
L 106.799089 194.433545 
z
" clip-path="url(#pa5c414e4b9)" style="fill: #1f77b4; opacity: 0.4"/>
   </g>
   <g id="patch_9">
    <path d="M 115.240246 260.521875 
L 123.681403 260.521875 
L 123.681403 188.0379 
L 115.240246 188.0379 
z
" clip-path="url(#pa5c414e4b9)" style="fill: #1f77b4; opacity: 0.4"/>
   </g>
   <g id="patch_10">
    <path d="M 123.681403 260.521875 
L 132.12256 260.521875 
L 132.12256 217.884243 
L 123.681403 217.884243 
z
" clip-path="url(#pa5c414e4b9)" style="fill: #1f77b4; opacity: 0.4"/>
   </g>
   <g id="patch_11">
    <path d="M 132.12256 260.521875 
L 140.563717 260.521875 
L 140.563717 209.356717 
L 132.12256 209.356717 
z
" clip-path="url(#pa5c414e4b9)" style="fill: #1f77b4; opacity: 0.4"/>
   </g>
   <g id="patch_12">
    <path d="M 140.563717 260.521875 
L 149.004874 260.521875 
L 149.004874 224.279888 
L 140.563717 224.279888 
z
" clip-path="url(#pa5c414e4b9)" style="fill: #1f77b4; opacity: 0.4"/>
   </g>
   <g id="patch_13">
    <path d="M 149.004874 260.521875 
L 157.446031 260.521875 
L 157.446031 239.203059 
L 149.004874 239.203059 
z
" clip-path="url(#pa5c414e4b9)" style="fill: #1f77b4; opacity: 0.4"/>
   </g>
   <g id="patch_14">
    <path d="M 157.446031 260.521875 
L 165.887188 260.521875 
L 165.887188 251.994349 
L 157.446031 251.994349 
z
" clip-path="url(#pa5c414e4b9)" style="fill: #1f77b4; opacity: 0.4"/>
   </g>
   <g id="patch_15">
    <path d="M 165.887188 260.521875 
L 174.328345 260.521875 
L 174.328345 254.12623 
L 165.887188 254.12623 
z
" clip-path="url(#pa5c414e4b9)" style="fill: #1f77b4; opacity: 0.4"/>
   </g>
   <g id="patch_16">
    <path d="M 174.328345 260.521875 
L 182.769502 260.521875 
L 182.769502 256.258112 
L 174.328345 256.258112 
z
" clip-path="url(#pa5c414e4b9)" style="fill: #1f77b4; opacity: 0.4"/>
   </g>
   <g id="patch_17">
    <path d="M 182.769502 260.521875 
L 191.210659 260.521875 
L 191.210659 256.258112 
L 182.769502 256.258112 
z
" clip-path="url(#pa5c414e4b9)" style="fill: #1f77b4; opacity: 0.4"/>
   </g>
   <g id="patch_18">
    <path d="M 191.210659 260.521875 
L 199.651816 260.521875 
L 199.651816 256.258112 
L 191.210659 256.258112 
z
" clip-path="url(#pa5c414e4b9)" style="fill: #1f77b4; opacity: 0.4"/>
   </g>
   <g id="patch_19">
    <path d="M 199.651816 260.521875 
L 208.092973 260.521875 
L 208.092973 258.389993 
L 199.651816 258.389993 
z
" clip-path="url(#pa5c414e4b9)" style="fill: #1f77b4; opacity: 0.4"/>
   </g>
   <g id="patch_20">
    <path d="M 208.092973 260.521875 
L 216.53413 260.521875 
L 216.53413 256.258112 
L 208.092973 256.258112 
z
" clip-path="url(#pa5c414e4b9)" style="fill: #1f77b4; opacity: 0.4"/>
   </g>
   <g id="patch_21">
    <path d="M 216.53413 260.521875 
L 224.975286 260.521875 
L 224.975286 260.521875 
L 216.53413 260.521875 
z
" clip-path="url(#pa5c414e4b9)" style="fill: #1f77b4; opacity: 0.4"/>
   </g>
   <g id="patch_22">
    <path d="M 224.975286 260.521875 
L 233.416443 260.521875 
L 233.416443 258.389993 
L 224.975286 258.389993 
z
" clip-path="url(#pa5c414e4b9)" style="fill: #1f77b4; opacity: 0.4"/>
   </g>
   <g id="patch_23">
    <path d="M 80.216598 260.521875 
L 88.468205 260.521875 
L 88.468205 200.850218 
L 80.216598 200.850218 
z
" clip-path="url(#pa5c414e4b9)" style="fill: #ff7f0e; opacity: 0.4"/>
   </g>
   <g id="patch_24">
    <path d="M 88.468205 260.521875 
L 96.719813 260.521875 
L 96.719813 200.850218 
L 88.468205 200.850218 
z
" clip-path="url(#pa5c414e4b9)" style="fill: #ff7f0e; opacity: 0.4"/>
   </g>
   <g id="patch_25">
    <path d="M 96.719813 260.521875 
L 104.971421 260.521875 
L 104.971421 185.379789 
L 96.719813 185.379789 
z
" clip-path="url(#pa5c414e4b9)" style="fill: #ff7f0e; opacity: 0.4"/>
   </g>
   <g id="patch_26">
    <path d="M 104.971421 260.521875 
L 113.223028 260.521875 
L 113.223028 200.850218 
L 104.971421 200.850218 
z
" clip-path="url(#pa5c414e4b9)" style="fill: #ff7f0e; opacity: 0.4"/>
   </g>
   <g id="patch_27">
    <path d="M 113.223028 260.521875 
L 121.474636 260.521875 
L 121.474636 205.270341 
L 113.223028 205.270341 
z
" clip-path="url(#pa5c414e4b9)" style="fill: #ff7f0e; opacity: 0.4"/>
   </g>
   <g id="patch_28">
    <path d="M 121.474636 260.521875 
L 129.726243 260.521875 
L 129.726243 225.160893 
L 121.474636 225.160893 
z
" clip-path="url(#pa5c414e4b9)" style="fill: #ff7f0e; opacity: 0.4"/>
   </g>
   <g id="patch_29">
    <path d="M 129.726243 260.521875 
L 137.977851 260.521875 
L 137.977851 242.841384 
L 129.726243 242.841384 
z
" clip-path="url(#pa5c414e4b9)" style="fill: #ff7f0e; opacity: 0.4"/>
   </g>
   <g id="patch_30">
    <path d="M 137.977851 260.521875 
L 146.229458 260.521875 
L 146.229458 236.2112 
L 137.977851 236.2112 
z
" clip-path="url(#pa5c414e4b9)" style="fill: #ff7f0e; opacity: 0.4"/>
   </g>
   <g id="patch_31">
    <path d="M 146.229458 260.521875 
L 154.481066 260.521875 
L 154.481066 227.370955 
L 146.229458 227.370955 
z
" clip-path="url(#pa5c414e4b9)" style="fill: #ff7f0e; opacity: 0.4"/>
   </g>
   <g id="patch_32">
    <path d="M 154.481066 260.521875 
L 162.732673 260.521875 
L 162.732673 242.841384 
L 154.481066 242.841384 
z
" clip-path="url(#pa5c414e4b9)" style="fill: #ff7f0e; opacity: 0.4"/>
   </g>
   <g id="patch_33">
    <path d="M 162.732673 260.521875 
L 170.984281 260.521875 
L 170.984281 240.631323 
L 162.732673 240.631323 
z
" clip-path="url(#pa5c414e4b9)" style="fill: #ff7f0e; opacity: 0.4"/>
   </g>
   <g id="patch_34">
    <path d="M 170.984281 260.521875 
L 179.235889 260.521875 
L 179.235889 251.68163 
L 170.984281 251.68163 
z
" clip-path="url(#pa5c414e4b9)" style="fill: #ff7f0e; opacity: 0.4"/>
   </g>
   <g id="patch_35">
    <path d="M 179.235889 260.521875 
L 187.487496 260.521875 
L 187.487496 253.891691 
L 179.235889 253.891691 
z
" clip-path="url(#pa5c414e4b9)" style="fill: #ff7f0e; opacity: 0.4"/>
   </g>
   <g id="patch_36">
    <path d="M 187.487496 260.521875 
L 195.739104 260.521875 
L 195.739104 256.101752 
L 187.487496 256.101752 
z
" clip-path="url(#pa5c414e4b9)" style="fill: #ff7f0e; opacity: 0.4"/>
   </g>
   <g id="patch_37">
    <path d="M 195.739104 260.521875 
L 203.990711 260.521875 
L 203.990711 260.521875 
L 195.739104 260.521875 
z
" clip-path="url(#pa5c414e4b9)" style="fill: #ff7f0e; opacity: 0.4"/>
   </g>
   <g id="patch_38">
    <path d="M 203.990711 260.521875 
L 212.242319 260.521875 
L 212.242319 251.68163 
L 203.990711 251.68163 
z
" clip-path="url(#pa5c414e4b9)" style="fill: #ff7f0e; opacity: 0.4"/>
   </g>
   <g id="patch_39">
    <path d="M 212.242319 260.521875 
L 220.493926 260.521875 
L 220.493926 258.311814 
L 212.242319 258.311814 
z
" clip-path="url(#pa5c414e4b9)" style="fill: #ff7f0e; opacity: 0.4"/>
   </g>
   <g id="patch_40">
    <path d="M 220.493926 260.521875 
L 228.745534 260.521875 
L 228.745534 260.521875 
L 220.493926 260.521875 
z
" clip-path="url(#pa5c414e4b9)" style="fill: #ff7f0e; opacity: 0.4"/>
   </g>
   <g id="patch_41">
    <path d="M 228.745534 260.521875 
L 236.997142 260.521875 
L 236.997142 256.101752 
L 228.745534 256.101752 
z
" clip-path="url(#pa5c414e4b9)" style="fill: #ff7f0e; opacity: 0.4"/>
   </g>
   <g id="patch_42">
    <path d="M 236.997142 260.521875 
L 245.248749 260.521875 
L 245.248749 258.311814 
L 236.997142 258.311814 
z
" clip-path="url(#pa5c414e4b9)" style="fill: #ff7f0e; opacity: 0.4"/>
   </g>
   <g id="patch_43">
    <path d="M 73.666638 260.521875 
L 79.632332 260.521875 
L 79.632332 245.16881 
L 73.666638 245.16881 
z
" clip-path="url(#pa5c414e4b9)" style="fill: #2ca02c; opacity: 0.4"/>
   </g>
   <g id="patch_44">
    <path d="M 79.632332 260.521875 
L 85.598026 260.521875 
L 85.598026 239.027584 
L 79.632332 239.027584 
z
" clip-path="url(#pa5c414e4b9)" style="fill: #2ca02c; opacity: 0.4"/>
   </g>
   <g id="patch_45">
    <path d="M 85.598026 260.521875 
L 91.56372 260.521875 
L 91.56372 223.674518 
L 85.598026 223.674518 
z
" clip-path="url(#pa5c414e4b9)" style="fill: #2ca02c; opacity: 0.4"/>
   </g>
   <g id="patch_46">
    <path d="M 91.56372 260.521875 
L 97.529413 260.521875 
L 97.529413 205.25084 
L 91.56372 205.25084 
z
" clip-path="url(#pa5c414e4b9)" style="fill: #2ca02c; opacity: 0.4"/>
   </g>
   <g id="patch_47">
    <path d="M 97.529413 260.521875 
L 103.495107 260.521875 
L 103.495107 220.603905 
L 97.529413 220.603905 
z
" clip-path="url(#pa5c414e4b9)" style="fill: #2ca02c; opacity: 0.4"/>
   </g>
   <g id="patch_48">
    <path d="M 103.495107 260.521875 
L 109.460801 260.521875 
L 109.460801 202.180227 
L 103.495107 202.180227 
z
" clip-path="url(#pa5c414e4b9)" style="fill: #2ca02c; opacity: 0.4"/>
   </g>
   <g id="patch_49">
    <path d="M 109.460801 260.521875 
L 115.426495 260.521875 
L 115.426495 202.180227 
L 109.460801 202.180227 
z
" clip-path="url(#pa5c414e4b9)" style="fill: #2ca02c; opacity: 0.4"/>
   </g>
   <g id="patch_50">
    <path d="M 115.426495 260.521875 
L 121.392189 260.521875 
L 121.392189 189.897774 
L 115.426495 189.897774 
z
" clip-path="url(#pa5c414e4b9)" style="fill: #2ca02c; opacity: 0.4"/>
   </g>
   <g id="patch_51">
    <path d="M 121.392189 260.521875 
L 127.357882 260.521875 
L 127.357882 186.827161 
L 121.392189 186.827161 
z
" clip-path="url(#pa5c414e4b9)" style="fill: #2ca02c; opacity: 0.4"/>
   </g>
   <g id="patch_52">
    <path d="M 127.357882 260.521875 
L 133.323576 260.521875 
L 133.323576 211.392066 
L 127.357882 211.392066 
z
" clip-path="url(#pa5c414e4b9)" style="fill: #2ca02c; opacity: 0.4"/>
   </g>
   <g id="patch_53">
    <path d="M 133.323576 260.521875 
L 139.28927 260.521875 
L 139.28927 205.25084 
L 133.323576 205.25084 
z
" clip-path="url(#pa5c414e4b9)" style="fill: #2ca02c; opacity: 0.4"/>
   </g>
   <g id="patch_54">
    <path d="M 139.28927 260.521875 
L 145.254964 260.521875 
L 145.254964 229.815744 
L 139.28927 229.815744 
z
" clip-path="url(#pa5c414e4b9)" style="fill: #2ca02c; opacity: 0.4"/>
   </g>
   <g id="patch_55">
    <path d="M 145.254964 260.521875 
L 151.220657 260.521875 
L 151.220657 229.815744 
L 145.254964 229.815744 
z
" clip-path="url(#pa5c414e4b9)" style="fill: #2ca02c; opacity: 0.4"/>
   </g>
   <g id="patch_56">
    <path d="M 151.220657 260.521875 
L 157.186351 260.521875 
L 157.186351 232.886357 
L 151.220657 232.886357 
z
" clip-path="url(#pa5c414e4b9)" style="fill: #2ca02c; opacity: 0.4"/>
   </g>
   <g id="patch_57">
    <path d="M 157.186351 260.521875 
L 163.152045 260.521875 
L 163.152045 235.95697 
L 157.186351 235.95697 
z
" clip-path="url(#pa5c414e4b9)" style="fill: #2ca02c; opacity: 0.4"/>
   </g>
   <g id="patch_58">
    <path d="M 163.152045 260.521875 
L 169.117739 260.521875 
L 169.117739 257.451262 
L 163.152045 257.451262 
z
" clip-path="url(#pa5c414e4b9)" style="fill: #2ca02c; opacity: 0.4"/>
   </g>
   <g id="patch_59">
    <path d="M 169.117739 260.521875 
L 175.083433 260.521875 
L 175.083433 257.451262 
L 169.117739 257.451262 
z
" clip-path="url(#pa5c414e4b9)" style="fill: #2ca02c; opacity: 0.4"/>
   </g>
   <g id="patch_60">
    <path d="M 175.083433 260.521875 
L 181.049126 260.521875 
L 181.049126 248.239423 
L 175.083433 248.239423 
z
" clip-path="url(#pa5c414e4b9)" style="fill: #2ca02c; opacity: 0.4"/>
   </g>
   <g id="patch_61">
    <path d="M 181.049126 260.521875 
L 187.01482 260.521875 
L 187.01482 251.310036 
L 181.049126 251.310036 
z
" clip-path="url(#pa5c414e4b9)" style="fill: #2ca02c; opacity: 0.4"/>
   </g>
   <g id="patch_62">
    <path d="M 187.01482 260.521875 
L 192.980514 260.521875 
L 192.980514 251.310036 
L 187.01482 251.310036 
z
" clip-path="url(#pa5c414e4b9)" style="fill: #2ca02c; opacity: 0.4"/>
   </g>
   <g id="matplotlib.axis_1">
    <g id="xtick_1">
     <g id="line2d_1">
      <defs>
       <path id="me70f6a3b86" d="M 0 0 
L 0 3.5 
" style="stroke: #000000; stroke-width: 0.8"/>
      </defs>
      <g>
       <use xlink:href="#me70f6a3b86" x="84.470094" y="260.521875" style="stroke: #000000; stroke-width: 0.8"/>
      </g>
     </g>
     <g id="text_1">
      <!-- 0.4 -->
      <g transform="translate(76.518531 275.120313) scale(0.1 -0.1)">
       <defs>
        <path id="DejaVuSans-30" d="M 2034 4250 
Q 1547 4250 1301 3770 
Q 1056 3291 1056 2328 
Q 1056 1369 1301 889 
Q 1547 409 2034 409 
Q 2525 409 2770 889 
Q 3016 1369 3016 2328 
Q 3016 3291 2770 3770 
Q 2525 4250 2034 4250 
z
M 2034 4750 
Q 2819 4750 3233 4129 
Q 3647 3509 3647 2328 
Q 3647 1150 3233 529 
Q 2819 -91 2034 -91 
Q 1250 -91 836 529 
Q 422 1150 422 2328 
Q 422 3509 836 4129 
Q 1250 4750 2034 4750 
z
" transform="scale(0.015625)"/>
        <path id="DejaVuSans-2e" d="M 684 794 
L 1344 794 
L 1344 0 
L 684 0 
L 684 794 
z
" transform="scale(0.015625)"/>
        <path id="DejaVuSans-34" d="M 2419 4116 
L 825 1625 
L 2419 1625 
L 2419 4116 
z
M 2253 4666 
L 3047 4666 
L 3047 1625 
L 3713 1625 
L 3713 1100 
L 3047 1100 
L 3047 0 
L 2419 0 
L 2419 1100 
L 313 1100 
L 313 1709 
L 2253 4666 
z
" transform="scale(0.015625)"/>
       </defs>
       <use xlink:href="#DejaVuSans-30"/>
       <use xlink:href="#DejaVuSans-2e" x="63.623047"/>
       <use xlink:href="#DejaVuSans-34" x="95.410156"/>
      </g>
     </g>
    </g>
    <g id="xtick_2">
     <g id="line2d_2">
      <g>
       <use xlink:href="#me70f6a3b86" x="132.997719" y="260.521875" style="stroke: #000000; stroke-width: 0.8"/>
      </g>
     </g>
     <g id="text_2">
      <!-- 0.6 -->
      <g transform="translate(125.046156 275.120313) scale(0.1 -0.1)">
       <defs>
        <path id="DejaVuSans-36" d="M 2113 2584 
Q 1688 2584 1439 2293 
Q 1191 2003 1191 1497 
Q 1191 994 1439 701 
Q 1688 409 2113 409 
Q 2538 409 2786 701 
Q 3034 994 3034 1497 
Q 3034 2003 2786 2293 
Q 2538 2584 2113 2584 
z
M 3366 4563 
L 3366 3988 
Q 3128 4100 2886 4159 
Q 2644 4219 2406 4219 
Q 1781 4219 1451 3797 
Q 1122 3375 1075 2522 
Q 1259 2794 1537 2939 
Q 1816 3084 2150 3084 
Q 2853 3084 3261 2657 
Q 3669 2231 3669 1497 
Q 3669 778 3244 343 
Q 2819 -91 2113 -91 
Q 1303 -91 875 529 
Q 447 1150 447 2328 
Q 447 3434 972 4092 
Q 1497 4750 2381 4750 
Q 2619 4750 2861 4703 
Q 3103 4656 3366 4563 
z
" transform="scale(0.015625)"/>
       </defs>
       <use xlink:href="#DejaVuSans-30"/>
       <use xlink:href="#DejaVuSans-2e" x="63.623047"/>
       <use xlink:href="#DejaVuSans-36" x="95.410156"/>
      </g>
     </g>
    </g>
    <g id="xtick_3">
     <g id="line2d_3">
      <g>
       <use xlink:href="#me70f6a3b86" x="181.525344" y="260.521875" style="stroke: #000000; stroke-width: 0.8"/>
      </g>
     </g>
     <g id="text_3">
      <!-- 0.8 -->
      <g transform="translate(173.573781 275.120313) scale(0.1 -0.1)">
       <defs>
        <path id="DejaVuSans-38" d="M 2034 2216 
Q 1584 2216 1326 1975 
Q 1069 1734 1069 1313 
Q 1069 891 1326 650 
Q 1584 409 2034 409 
Q 2484 409 2743 651 
Q 3003 894 3003 1313 
Q 3003 1734 2745 1975 
Q 2488 2216 2034 2216 
z
M 1403 2484 
Q 997 2584 770 2862 
Q 544 3141 544 3541 
Q 544 4100 942 4425 
Q 1341 4750 2034 4750 
Q 2731 4750 3128 4425 
Q 3525 4100 3525 3541 
Q 3525 3141 3298 2862 
Q 3072 2584 2669 2484 
Q 3125 2378 3379 2068 
Q 3634 1759 3634 1313 
Q 3634 634 3220 271 
Q 2806 -91 2034 -91 
Q 1263 -91 848 271 
Q 434 634 434 1313 
Q 434 1759 690 2068 
Q 947 2378 1403 2484 
z
M 1172 3481 
Q 1172 3119 1398 2916 
Q 1625 2713 2034 2713 
Q 2441 2713 2670 2916 
Q 2900 3119 2900 3481 
Q 2900 3844 2670 4047 
Q 2441 4250 2034 4250 
Q 1625 4250 1398 4047 
Q 1172 3844 1172 3481 
z
" transform="scale(0.015625)"/>
       </defs>
       <use xlink:href="#DejaVuSans-30"/>
       <use xlink:href="#DejaVuSans-2e" x="63.623047"/>
       <use xlink:href="#DejaVuSans-38" x="95.410156"/>
      </g>
     </g>
    </g>
    <g id="xtick_4">
     <g id="line2d_4">
      <g>
       <use xlink:href="#me70f6a3b86" x="230.052969" y="260.521875" style="stroke: #000000; stroke-width: 0.8"/>
      </g>
     </g>
     <g id="text_4">
      <!-- 1.0 -->
      <g transform="translate(222.101406 275.120313) scale(0.1 -0.1)">
       <defs>
        <path id="DejaVuSans-31" d="M 794 531 
L 1825 531 
L 1825 4091 
L 703 3866 
L 703 4441 
L 1819 4666 
L 2450 4666 
L 2450 531 
L 3481 531 
L 3481 0 
L 794 0 
L 794 531 
z
" transform="scale(0.015625)"/>
       </defs>
       <use xlink:href="#DejaVuSans-31"/>
       <use xlink:href="#DejaVuSans-2e" x="63.623047"/>
       <use xlink:href="#DejaVuSans-30" x="95.410156"/>
      </g>
     </g>
    </g>
    <g id="xtick_5">
     <g id="line2d_5">
      <g>
       <use xlink:href="#me70f6a3b86" x="278.580594" y="260.521875" style="stroke: #000000; stroke-width: 0.8"/>
      </g>
     </g>
     <g id="text_5">
      <!-- 1.2 -->
      <g transform="translate(270.629031 275.120313) scale(0.1 -0.1)">
       <defs>
        <path id="DejaVuSans-32" d="M 1228 531 
L 3431 531 
L 3431 0 
L 469 0 
L 469 531 
Q 828 903 1448 1529 
Q 2069 2156 2228 2338 
Q 2531 2678 2651 2914 
Q 2772 3150 2772 3378 
Q 2772 3750 2511 3984 
Q 2250 4219 1831 4219 
Q 1534 4219 1204 4116 
Q 875 4013 500 3803 
L 500 4441 
Q 881 4594 1212 4672 
Q 1544 4750 1819 4750 
Q 2544 4750 2975 4387 
Q 3406 4025 3406 3419 
Q 3406 3131 3298 2873 
Q 3191 2616 2906 2266 
Q 2828 2175 2409 1742 
Q 1991 1309 1228 531 
z
" transform="scale(0.015625)"/>
       </defs>
       <use xlink:href="#DejaVuSans-31"/>
       <use xlink:href="#DejaVuSans-2e" x="63.623047"/>
       <use xlink:href="#DejaVuSans-32" x="95.410156"/>
      </g>
     </g>
    </g>
   </g>
   <g id="matplotlib.axis_2">
    <g id="ytick_1">
     <g id="line2d_6">
      <defs>
       <path id="mfc45a5acb0" d="M 0 0 
L -3.5 0 
" style="stroke: #000000; stroke-width: 0.8"/>
      </defs>
      <g>
       <use xlink:href="#mfc45a5acb0" x="48.074375" y="260.521875" style="stroke: #000000; stroke-width: 0.8"/>
      </g>
     </g>
     <g id="text_6">
      <!-- 0 -->
      <g transform="translate(34.711875 264.321094) scale(0.1 -0.1)">
       <use xlink:href="#DejaVuSans-30"/>
      </g>
     </g>
    </g>
    <g id="ytick_2">
     <g id="line2d_7">
      <g>
       <use xlink:href="#mfc45a5acb0" x="48.074375" y="226.850421" style="stroke: #000000; stroke-width: 0.8"/>
      </g>
     </g>
     <g id="text_7">
      <!-- 2 -->
      <g transform="translate(34.711875 230.64964) scale(0.1 -0.1)">
       <use xlink:href="#DejaVuSans-32"/>
      </g>
     </g>
    </g>
    <g id="ytick_3">
     <g id="line2d_8">
      <g>
       <use xlink:href="#mfc45a5acb0" x="48.074375" y="193.178967" style="stroke: #000000; stroke-width: 0.8"/>
      </g>
     </g>
     <g id="text_8">
      <!-- 4 -->
      <g transform="translate(34.711875 196.978186) scale(0.1 -0.1)">
       <use xlink:href="#DejaVuSans-34"/>
      </g>
     </g>
    </g>
    <g id="ytick_4">
     <g id="line2d_9">
      <g>
       <use xlink:href="#mfc45a5acb0" x="48.074375" y="159.507513" style="stroke: #000000; stroke-width: 0.8"/>
      </g>
     </g>
     <g id="text_9">
      <!-- 6 -->
      <g transform="translate(34.711875 163.306732) scale(0.1 -0.1)">
       <use xlink:href="#DejaVuSans-36"/>
      </g>
     </g>
    </g>
    <g id="ytick_5">
     <g id="line2d_10">
      <g>
       <use xlink:href="#mfc45a5acb0" x="48.074375" y="125.836059" style="stroke: #000000; stroke-width: 0.8"/>
      </g>
     </g>
     <g id="text_10">
      <!-- 8 -->
      <g transform="translate(34.711875 129.635278) scale(0.1 -0.1)">
       <use xlink:href="#DejaVuSans-38"/>
      </g>
     </g>
    </g>
    <g id="ytick_6">
     <g id="line2d_11">
      <g>
       <use xlink:href="#mfc45a5acb0" x="48.074375" y="92.164606" style="stroke: #000000; stroke-width: 0.8"/>
      </g>
     </g>
     <g id="text_11">
      <!-- 10 -->
      <g transform="translate(28.349375 95.963824) scale(0.1 -0.1)">
       <use xlink:href="#DejaVuSans-31"/>
       <use xlink:href="#DejaVuSans-30" x="63.623047"/>
      </g>
     </g>
    </g>
    <g id="ytick_7">
     <g id="line2d_12">
      <g>
       <use xlink:href="#mfc45a5acb0" x="48.074375" y="58.493152" style="stroke: #000000; stroke-width: 0.8"/>
      </g>
     </g>
     <g id="text_12">
      <!-- 12 -->
      <g transform="translate(28.349375 62.29237) scale(0.1 -0.1)">
       <use xlink:href="#DejaVuSans-31"/>
       <use xlink:href="#DejaVuSans-32" x="63.623047"/>
      </g>
     </g>
    </g>
    <g id="text_13">
     <!-- Fraction of cells -->
     <g transform="translate(21.437813 198.051875) rotate(-90) scale(0.14 -0.14)">
      <defs>
       <path id="DejaVuSans-46" d="M 628 4666 
L 3309 4666 
L 3309 4134 
L 1259 4134 
L 1259 2759 
L 3109 2759 
L 3109 2228 
L 1259 2228 
L 1259 0 
L 628 0 
L 628 4666 
z
" transform="scale(0.015625)"/>
       <path id="DejaVuSans-72" d="M 2631 2963 
Q 2534 3019 2420 3045 
Q 2306 3072 2169 3072 
Q 1681 3072 1420 2755 
Q 1159 2438 1159 1844 
L 1159 0 
L 581 0 
L 581 3500 
L 1159 3500 
L 1159 2956 
Q 1341 3275 1631 3429 
Q 1922 3584 2338 3584 
Q 2397 3584 2469 3576 
Q 2541 3569 2628 3553 
L 2631 2963 
z
" transform="scale(0.015625)"/>
       <path id="DejaVuSans-61" d="M 2194 1759 
Q 1497 1759 1228 1600 
Q 959 1441 959 1056 
Q 959 750 1161 570 
Q 1363 391 1709 391 
Q 2188 391 2477 730 
Q 2766 1069 2766 1631 
L 2766 1759 
L 2194 1759 
z
M 3341 1997 
L 3341 0 
L 2766 0 
L 2766 531 
Q 2569 213 2275 61 
Q 1981 -91 1556 -91 
Q 1019 -91 701 211 
Q 384 513 384 1019 
Q 384 1609 779 1909 
Q 1175 2209 1959 2209 
L 2766 2209 
L 2766 2266 
Q 2766 2663 2505 2880 
Q 2244 3097 1772 3097 
Q 1472 3097 1187 3025 
Q 903 2953 641 2809 
L 641 3341 
Q 956 3463 1253 3523 
Q 1550 3584 1831 3584 
Q 2591 3584 2966 3190 
Q 3341 2797 3341 1997 
z
" transform="scale(0.015625)"/>
       <path id="DejaVuSans-63" d="M 3122 3366 
L 3122 2828 
Q 2878 2963 2633 3030 
Q 2388 3097 2138 3097 
Q 1578 3097 1268 2742 
Q 959 2388 959 1747 
Q 959 1106 1268 751 
Q 1578 397 2138 397 
Q 2388 397 2633 464 
Q 2878 531 3122 666 
L 3122 134 
Q 2881 22 2623 -34 
Q 2366 -91 2075 -91 
Q 1284 -91 818 406 
Q 353 903 353 1747 
Q 353 2603 823 3093 
Q 1294 3584 2113 3584 
Q 2378 3584 2631 3529 
Q 2884 3475 3122 3366 
z
" transform="scale(0.015625)"/>
       <path id="DejaVuSans-74" d="M 1172 4494 
L 1172 3500 
L 2356 3500 
L 2356 3053 
L 1172 3053 
L 1172 1153 
Q 1172 725 1289 603 
Q 1406 481 1766 481 
L 2356 481 
L 2356 0 
L 1766 0 
Q 1100 0 847 248 
Q 594 497 594 1153 
L 594 3053 
L 172 3053 
L 172 3500 
L 594 3500 
L 594 4494 
L 1172 4494 
z
" transform="scale(0.015625)"/>
       <path id="DejaVuSans-69" d="M 603 3500 
L 1178 3500 
L 1178 0 
L 603 0 
L 603 3500 
z
M 603 4863 
L 1178 4863 
L 1178 4134 
L 603 4134 
L 603 4863 
z
" transform="scale(0.015625)"/>
       <path id="DejaVuSans-6f" d="M 1959 3097 
Q 1497 3097 1228 2736 
Q 959 2375 959 1747 
Q 959 1119 1226 758 
Q 1494 397 1959 397 
Q 2419 397 2687 759 
Q 2956 1122 2956 1747 
Q 2956 2369 2687 2733 
Q 2419 3097 1959 3097 
z
M 1959 3584 
Q 2709 3584 3137 3096 
Q 3566 2609 3566 1747 
Q 3566 888 3137 398 
Q 2709 -91 1959 -91 
Q 1206 -91 779 398 
Q 353 888 353 1747 
Q 353 2609 779 3096 
Q 1206 3584 1959 3584 
z
" transform="scale(0.015625)"/>
       <path id="DejaVuSans-6e" d="M 3513 2113 
L 3513 0 
L 2938 0 
L 2938 2094 
Q 2938 2591 2744 2837 
Q 2550 3084 2163 3084 
Q 1697 3084 1428 2787 
Q 1159 2491 1159 1978 
L 1159 0 
L 581 0 
L 581 3500 
L 1159 3500 
L 1159 2956 
Q 1366 3272 1645 3428 
Q 1925 3584 2291 3584 
Q 2894 3584 3203 3211 
Q 3513 2838 3513 2113 
z
" transform="scale(0.015625)"/>
       <path id="DejaVuSans-20" transform="scale(0.015625)"/>
       <path id="DejaVuSans-66" d="M 2375 4863 
L 2375 4384 
L 1825 4384 
Q 1516 4384 1395 4259 
Q 1275 4134 1275 3809 
L 1275 3500 
L 2222 3500 
L 2222 3053 
L 1275 3053 
L 1275 0 
L 697 0 
L 697 3053 
L 147 3053 
L 147 3500 
L 697 3500 
L 697 3744 
Q 697 4328 969 4595 
Q 1241 4863 1831 4863 
L 2375 4863 
z
" transform="scale(0.015625)"/>
       <path id="DejaVuSans-65" d="M 3597 1894 
L 3597 1613 
L 953 1613 
Q 991 1019 1311 708 
Q 1631 397 2203 397 
Q 2534 397 2845 478 
Q 3156 559 3463 722 
L 3463 178 
Q 3153 47 2828 -22 
Q 2503 -91 2169 -91 
Q 1331 -91 842 396 
Q 353 884 353 1716 
Q 353 2575 817 3079 
Q 1281 3584 2069 3584 
Q 2775 3584 3186 3129 
Q 3597 2675 3597 1894 
z
M 3022 2063 
Q 3016 2534 2758 2815 
Q 2500 3097 2075 3097 
Q 1594 3097 1305 2825 
Q 1016 2553 972 2059 
L 3022 2063 
z
" transform="scale(0.015625)"/>
       <path id="DejaVuSans-6c" d="M 603 4863 
L 1178 4863 
L 1178 0 
L 603 0 
L 603 4863 
z
" transform="scale(0.015625)"/>
       <path id="DejaVuSans-73" d="M 2834 3397 
L 2834 2853 
Q 2591 2978 2328 3040 
Q 2066 3103 1784 3103 
Q 1356 3103 1142 2972 
Q 928 2841 928 2578 
Q 928 2378 1081 2264 
Q 1234 2150 1697 2047 
L 1894 2003 
Q 2506 1872 2764 1633 
Q 3022 1394 3022 966 
Q 3022 478 2636 193 
Q 2250 -91 1575 -91 
Q 1294 -91 989 -36 
Q 684 19 347 128 
L 347 722 
Q 666 556 975 473 
Q 1284 391 1588 391 
Q 1994 391 2212 530 
Q 2431 669 2431 922 
Q 2431 1156 2273 1281 
Q 2116 1406 1581 1522 
L 1381 1569 
Q 847 1681 609 1914 
Q 372 2147 372 2553 
Q 372 3047 722 3315 
Q 1072 3584 1716 3584 
Q 2034 3584 2315 3537 
Q 2597 3491 2834 3397 
z
" transform="scale(0.015625)"/>
      </defs>
      <use xlink:href="#DejaVuSans-46"/>
      <use xlink:href="#DejaVuSans-72" x="50.269531"/>
      <use xlink:href="#DejaVuSans-61" x="91.382812"/>
      <use xlink:href="#DejaVuSans-63" x="152.662109"/>
      <use xlink:href="#DejaVuSans-74" x="207.642578"/>
      <use xlink:href="#DejaVuSans-69" x="246.851562"/>
      <use xlink:href="#DejaVuSans-6f" x="274.634766"/>
      <use xlink:href="#DejaVuSans-6e" x="335.816406"/>
      <use xlink:href="#DejaVuSans-20" x="399.195312"/>
      <use xlink:href="#DejaVuSans-6f" x="430.982422"/>
      <use xlink:href="#DejaVuSans-66" x="492.164062"/>
      <use xlink:href="#DejaVuSans-20" x="527.369141"/>
      <use xlink:href="#DejaVuSans-63" x="559.15625"/>
      <use xlink:href="#DejaVuSans-65" x="614.136719"/>
      <use xlink:href="#DejaVuSans-6c" x="675.660156"/>
      <use xlink:href="#DejaVuSans-6c" x="703.443359"/>
      <use xlink:href="#DejaVuSans-73" x="731.226562"/>
     </g>
    </g>
   </g>
   <g id="line2d_13">
    <path d="M -1 260.521875 
L 43.502049 260.421099 
L 48.379197 260.181928 
L 53.256345 259.611713 
L 55.694919 259.144051 
L 58.133493 258.528192 
L 60.572067 257.746703 
L 63.010641 256.778392 
L 65.449216 255.59085 
L 67.88779 254.134688 
L 70.326364 252.343985 
L 72.764938 250.145769 
L 75.203512 247.477448 
L 77.642086 244.306725 
L 80.08066 240.646351 
L 82.519234 236.557806 
L 87.396383 227.529602 
L 92.273531 218.255371 
L 94.712105 213.863038 
L 97.150679 209.798748 
L 99.589253 206.167869 
L 102.027827 203.054507 
L 104.466402 200.519926 
L 106.904976 198.607019 
L 109.34355 197.347758 
L 111.782124 196.766541 
L 114.220698 196.873601 
L 116.659272 197.649197 
L 119.097846 199.026733 
L 121.53642 200.886397 
L 123.974995 203.0677 
L 138.606439 217.171158 
L 141.045013 220.00789 
L 143.483587 223.20916 
L 145.922162 226.74277 
L 153.237884 238.000126 
L 155.676458 241.42961 
L 158.115032 244.49455 
L 160.553606 247.14658 
L 162.99218 249.380699 
L 165.430755 251.219861 
L 167.869329 252.699264 
L 170.307903 253.855045 
L 172.746477 254.719604 
L 175.185051 255.323208 
L 177.623625 255.699252 
L 180.062199 255.889393 
L 184.939348 255.924339 
L 189.816496 255.870181 
L 194.693644 256.028245 
L 199.570792 256.445581 
L 206.886515 257.376324 
L 219.079385 259.147108 
L 223.956533 259.51883 
L 231.272256 259.648482 
L 238.587978 259.841375 
L 250.780849 260.391647 
L 260.535145 260.512042 
L 311.745202 260.521875 
L 472.691094 260.521875 
L 472.691094 260.521875 
" clip-path="url(#pa5c414e4b9)" style="fill: none; stroke: #1f77b4; stroke-width: 1.5; stroke-linecap: square"/>
   </g>
   <g id="line2d_14">
    <path d="M -1 260.521875 
L 48.379197 260.430499 
L 53.256345 260.16789 
L 55.694919 259.870175 
L 58.133493 259.373604 
L 60.572067 258.584463 
L 63.010641 257.38954 
L 65.449216 255.665431 
L 67.88779 253.294797 
L 70.326364 250.188212 
L 72.764938 246.307826 
L 75.203512 241.687221 
L 77.642086 236.441449 
L 87.396383 213.74749 
L 89.834957 208.960988 
L 92.273531 204.957456 
L 94.712105 201.847016 
L 97.150679 199.676004 
L 99.589253 198.437767 
L 102.027827 198.086494 
L 104.466402 198.550355 
L 106.904976 199.741999 
L 109.34355 201.565907 
L 111.782124 203.922762 
L 114.220698 206.711129 
L 116.659272 209.826757 
L 126.413569 223.268939 
L 128.852143 226.259126 
L 131.290717 228.875284 
L 133.729291 231.048243 
L 136.167865 232.753324 
L 138.606439 234.015005 
L 141.045013 234.902967 
L 143.483587 235.519924 
L 150.79931 236.894708 
L 153.237884 237.506126 
L 155.676458 238.283296 
L 158.115032 239.238859 
L 160.553606 240.365445 
L 165.430755 243.036329 
L 177.623625 250.295368 
L 180.062199 251.504166 
L 182.500773 252.564215 
L 184.939348 253.468455 
L 187.377922 254.218569 
L 189.816496 254.821814 
L 192.25507 255.289024 
L 197.132218 255.877865 
L 204.44794 256.276037 
L 209.325089 256.57533 
L 216.640811 257.330395 
L 223.956533 258.075462 
L 231.272256 258.50656 
L 243.465126 259.156589 
L 260.535145 260.231745 
L 267.850868 260.436046 
L 280.043738 260.517294 
L 397.095296 260.521875 
L 472.691094 260.521875 
L 472.691094 260.521875 
" clip-path="url(#pa5c414e4b9)" style="fill: none; stroke: #ff7f0e; stroke-width: 1.5; stroke-linecap: square"/>
   </g>
   <g id="line2d_15">
    <path d="M -1 260.521875 
L 50.817771 260.46139 
L 55.694919 260.237723 
L 58.133493 259.966336 
L 60.572067 259.504172 
L 63.010641 258.768863 
L 65.449216 257.671042 
L 67.88779 256.124895 
L 70.326364 254.059168 
L 72.764938 251.42702 
L 75.203512 248.215431 
L 77.642086 244.456055 
L 80.08066 240.237344 
L 87.396383 226.632528 
L 89.834957 222.556273 
L 92.273531 219.029242 
L 94.712105 216.099415 
L 97.150679 213.687457 
L 102.027827 209.657528 
L 104.466402 207.629755 
L 109.34355 203.107809 
L 111.782124 200.8129 
L 114.220698 198.81216 
L 116.659272 197.401895 
L 119.097846 196.835562 
L 121.53642 197.25368 
L 123.974995 198.646648 
L 126.413569 200.866788 
L 128.852143 203.684372 
L 133.729291 210.203414 
L 141.045013 220.203188 
L 145.922162 226.334088 
L 150.79931 231.842395 
L 162.99218 244.685004 
L 165.430755 246.962397 
L 167.869329 248.880636 
L 170.307903 250.343074 
L 172.746477 251.332815 
L 175.185051 251.921522 
L 180.062199 252.477667 
L 182.500773 252.758915 
L 184.939348 253.192526 
L 187.377922 253.819191 
L 189.816496 254.624248 
L 199.570792 258.31783 
L 202.009366 259.019126 
L 204.44794 259.558831 
L 206.886515 259.943634 
L 211.763663 260.352286 
L 219.079385 260.506286 
L 250.780849 260.521875 
L 472.691094 260.521875 
L 472.691094 260.521875 
" clip-path="url(#pa5c414e4b9)" style="fill: none; stroke: #2ca02c; stroke-width: 1.5; stroke-linecap: square"/>
   </g>
   <g id="patch_63">
    <path d="M 48.074375 260.521875 
L 48.074375 25.918125 
" style="fill: none; stroke: #000000; stroke-width: 0.8; stroke-linejoin: miter; stroke-linecap: square"/>
   </g>
   <g id="patch_64">
    <path d="M 290.7125 260.521875 
L 290.7125 25.918125 
" style="fill: none; stroke: #000000; stroke-width: 0.8; stroke-linejoin: miter; stroke-linecap: square"/>
   </g>
   <g id="patch_65">
    <path d="M 48.074375 260.521875 
L 290.7125 260.521875 
" style="fill: none; stroke: #000000; stroke-width: 0.8; stroke-linejoin: miter; stroke-linecap: square"/>
   </g>
   <g id="patch_66">
    <path d="M 48.074375 25.918125 
L 290.7125 25.918125 
" style="fill: none; stroke: #000000; stroke-width: 0.8; stroke-linejoin: miter; stroke-linecap: square"/>
   </g>
   <g id="text_14">
    <!-- SRV -->
    <g transform="translate(157.640938 19.918125) scale(0.12 -0.12)">
     <defs>
      <path id="DejaVuSans-53" d="M 3425 4513 
L 3425 3897 
Q 3066 4069 2747 4153 
Q 2428 4238 2131 4238 
Q 1616 4238 1336 4038 
Q 1056 3838 1056 3469 
Q 1056 3159 1242 3001 
Q 1428 2844 1947 2747 
L 2328 2669 
Q 3034 2534 3370 2195 
Q 3706 1856 3706 1288 
Q 3706 609 3251 259 
Q 2797 -91 1919 -91 
Q 1588 -91 1214 -16 
Q 841 59 441 206 
L 441 856 
Q 825 641 1194 531 
Q 1563 422 1919 422 
Q 2459 422 2753 634 
Q 3047 847 3047 1241 
Q 3047 1584 2836 1778 
Q 2625 1972 2144 2069 
L 1759 2144 
Q 1053 2284 737 2584 
Q 422 2884 422 3419 
Q 422 4038 858 4394 
Q 1294 4750 2059 4750 
Q 2388 4750 2728 4690 
Q 3069 4631 3425 4513 
z
" transform="scale(0.015625)"/>
      <path id="DejaVuSans-52" d="M 2841 2188 
Q 3044 2119 3236 1894 
Q 3428 1669 3622 1275 
L 4263 0 
L 3584 0 
L 2988 1197 
Q 2756 1666 2539 1819 
Q 2322 1972 1947 1972 
L 1259 1972 
L 1259 0 
L 628 0 
L 628 4666 
L 2053 4666 
Q 2853 4666 3247 4331 
Q 3641 3997 3641 3322 
Q 3641 2881 3436 2590 
Q 3231 2300 2841 2188 
z
M 1259 4147 
L 1259 2491 
L 2053 2491 
Q 2509 2491 2742 2702 
Q 2975 2913 2975 3322 
Q 2975 3731 2742 3939 
Q 2509 4147 2053 4147 
L 1259 4147 
z
" transform="scale(0.015625)"/>
      <path id="DejaVuSans-56" d="M 1831 0 
L 50 4666 
L 709 4666 
L 2188 738 
L 3669 4666 
L 4325 4666 
L 2547 0 
L 1831 0 
z
" transform="scale(0.015625)"/>
     </defs>
     <use xlink:href="#DejaVuSans-53"/>
     <use xlink:href="#DejaVuSans-52" x="63.476562"/>
     <use xlink:href="#DejaVuSans-56" x="127.458984"/>
    </g>
   </g>
   <g id="legend_1">
    <g id="patch_67">
     <path d="M 162.828125 88.693125 
L 282.3125 88.693125 
Q 284.7125 88.693125 284.7125 86.293125 
L 284.7125 34.318125 
Q 284.7125 31.918125 282.3125 31.918125 
L 162.828125 31.918125 
Q 160.428125 31.918125 160.428125 34.318125 
L 160.428125 86.293125 
Q 160.428125 88.693125 162.828125 88.693125 
z
" style="fill: #ffffff; opacity: 0.8; stroke: #cccccc; stroke-linejoin: miter"/>
    </g>
    <g id="patch_68">
     <path d="M 165.228125 45.83625 
L 189.228125 45.83625 
L 189.228125 37.43625 
L 165.228125 37.43625 
z
" style="fill: #1f77b4; opacity: 0.4"/>
    </g>
    <g id="text_15">
     <!-- MCF10A -->
     <g transform="translate(198.828125 45.83625) scale(0.12 -0.12)">
      <defs>
       <path id="DejaVuSans-4d" d="M 628 4666 
L 1569 4666 
L 2759 1491 
L 3956 4666 
L 4897 4666 
L 4897 0 
L 4281 0 
L 4281 4097 
L 3078 897 
L 2444 897 
L 1241 4097 
L 1241 0 
L 628 0 
L 628 4666 
z
" transform="scale(0.015625)"/>
       <path id="DejaVuSans-43" d="M 4122 4306 
L 4122 3641 
Q 3803 3938 3442 4084 
Q 3081 4231 2675 4231 
Q 1875 4231 1450 3742 
Q 1025 3253 1025 2328 
Q 1025 1406 1450 917 
Q 1875 428 2675 428 
Q 3081 428 3442 575 
Q 3803 722 4122 1019 
L 4122 359 
Q 3791 134 3420 21 
Q 3050 -91 2638 -91 
Q 1578 -91 968 557 
Q 359 1206 359 2328 
Q 359 3453 968 4101 
Q 1578 4750 2638 4750 
Q 3056 4750 3426 4639 
Q 3797 4528 4122 4306 
z
" transform="scale(0.015625)"/>
       <path id="DejaVuSans-41" d="M 2188 4044 
L 1331 1722 
L 3047 1722 
L 2188 4044 
z
M 1831 4666 
L 2547 4666 
L 4325 0 
L 3669 0 
L 3244 1197 
L 1141 1197 
L 716 0 
L 50 0 
L 1831 4666 
z
" transform="scale(0.015625)"/>
      </defs>
      <use xlink:href="#DejaVuSans-4d"/>
      <use xlink:href="#DejaVuSans-43" x="86.279297"/>
      <use xlink:href="#DejaVuSans-46" x="156.103516"/>
      <use xlink:href="#DejaVuSans-31" x="213.623047"/>
      <use xlink:href="#DejaVuSans-30" x="277.246094"/>
      <use xlink:href="#DejaVuSans-41" x="340.869141"/>
     </g>
    </g>
    <g id="patch_69">
     <path d="M 165.228125 63.45 
L 189.228125 63.45 
L 189.228125 55.05 
L 165.228125 55.05 
z
" style="fill: #ff7f0e; opacity: 0.4"/>
    </g>
    <g id="text_16">
     <!-- MCF7 -->
     <g transform="translate(198.828125 63.45) scale(0.12 -0.12)">
      <defs>
       <path id="DejaVuSans-37" d="M 525 4666 
L 3525 4666 
L 3525 4397 
L 1831 0 
L 1172 0 
L 2766 4134 
L 525 4134 
L 525 4666 
z
" transform="scale(0.015625)"/>
      </defs>
      <use xlink:href="#DejaVuSans-4d"/>
      <use xlink:href="#DejaVuSans-43" x="86.279297"/>
      <use xlink:href="#DejaVuSans-46" x="156.103516"/>
      <use xlink:href="#DejaVuSans-37" x="213.623047"/>
     </g>
    </g>
    <g id="patch_70">
     <path d="M 165.228125 81.06375 
L 189.228125 81.06375 
L 189.228125 72.66375 
L 165.228125 72.66375 
z
" style="fill: #2ca02c; opacity: 0.4"/>
    </g>
    <g id="text_17">
     <!-- MDA_MB_231 -->
     <g transform="translate(198.828125 81.06375) scale(0.12 -0.12)">
      <defs>
       <path id="DejaVuSans-44" d="M 1259 4147 
L 1259 519 
L 2022 519 
Q 2988 519 3436 956 
Q 3884 1394 3884 2338 
Q 3884 3275 3436 3711 
Q 2988 4147 2022 4147 
L 1259 4147 
z
M 628 4666 
L 1925 4666 
Q 3281 4666 3915 4102 
Q 4550 3538 4550 2338 
Q 4550 1131 3912 565 
Q 3275 0 1925 0 
L 628 0 
L 628 4666 
z
" transform="scale(0.015625)"/>
       <path id="DejaVuSans-5f" d="M 3263 -1063 
L 3263 -1509 
L -63 -1509 
L -63 -1063 
L 3263 -1063 
z
" transform="scale(0.015625)"/>
       <path id="DejaVuSans-42" d="M 1259 2228 
L 1259 519 
L 2272 519 
Q 2781 519 3026 730 
Q 3272 941 3272 1375 
Q 3272 1813 3026 2020 
Q 2781 2228 2272 2228 
L 1259 2228 
z
M 1259 4147 
L 1259 2741 
L 2194 2741 
Q 2656 2741 2882 2914 
Q 3109 3088 3109 3444 
Q 3109 3797 2882 3972 
Q 2656 4147 2194 4147 
L 1259 4147 
z
M 628 4666 
L 2241 4666 
Q 2963 4666 3353 4366 
Q 3744 4066 3744 3513 
Q 3744 3084 3544 2831 
Q 3344 2578 2956 2516 
Q 3422 2416 3680 2098 
Q 3938 1781 3938 1306 
Q 3938 681 3513 340 
Q 3088 0 2303 0 
L 628 0 
L 628 4666 
z
" transform="scale(0.015625)"/>
       <path id="DejaVuSans-33" d="M 2597 2516 
Q 3050 2419 3304 2112 
Q 3559 1806 3559 1356 
Q 3559 666 3084 287 
Q 2609 -91 1734 -91 
Q 1441 -91 1130 -33 
Q 819 25 488 141 
L 488 750 
Q 750 597 1062 519 
Q 1375 441 1716 441 
Q 2309 441 2620 675 
Q 2931 909 2931 1356 
Q 2931 1769 2642 2001 
Q 2353 2234 1838 2234 
L 1294 2234 
L 1294 2753 
L 1863 2753 
Q 2328 2753 2575 2939 
Q 2822 3125 2822 3475 
Q 2822 3834 2567 4026 
Q 2313 4219 1838 4219 
Q 1578 4219 1281 4162 
Q 984 4106 628 3988 
L 628 4550 
Q 988 4650 1302 4700 
Q 1616 4750 1894 4750 
Q 2613 4750 3031 4423 
Q 3450 4097 3450 3541 
Q 3450 3153 3228 2886 
Q 3006 2619 2597 2516 
z
" transform="scale(0.015625)"/>
      </defs>
      <use xlink:href="#DejaVuSans-4d"/>
      <use xlink:href="#DejaVuSans-44" x="86.279297"/>
      <use xlink:href="#DejaVuSans-41" x="161.53125"/>
      <use xlink:href="#DejaVuSans-5f" x="229.939453"/>
      <use xlink:href="#DejaVuSans-4d" x="279.939453"/>
      <use xlink:href="#DejaVuSans-42" x="366.21875"/>
      <use xlink:href="#DejaVuSans-5f" x="434.822266"/>
      <use xlink:href="#DejaVuSans-32" x="484.822266"/>
      <use xlink:href="#DejaVuSans-33" x="548.445312"/>
      <use xlink:href="#DejaVuSans-31" x="612.068359"/>
     </g>
    </g>
   </g>
  </g>
  <g id="axes_2">
   <g id="patch_71">
    <path d="M 322.561875 260.521875 
L 565.2 260.521875 
L 565.2 25.918125 
L 322.561875 25.918125 
z
" style="fill: #ffffff"/>
   </g>
   <g id="patch_72">
    <path d="M 384.06628 260.521875 
L 394.743471 260.521875 
L 394.743471 147.598762 
L 384.06628 147.598762 
z
" clip-path="url(#p143d74fd46)" style="fill: #1f77b4; opacity: 0.4"/>
   </g>
   <g id="patch_73">
    <path d="M 394.743471 260.521875 
L 405.420662 260.521875 
L 405.420662 125.688307 
L 394.743471 125.688307 
z
" clip-path="url(#p143d74fd46)" style="fill: #1f77b4; opacity: 0.4"/>
   </g>
   <g id="patch_74">
    <path d="M 405.420662 260.521875 
L 416.097854 260.521875 
L 416.097854 191.419671 
L 405.420662 191.419671 
z
" clip-path="url(#p143d74fd46)" style="fill: #1f77b4; opacity: 0.4"/>
   </g>
   <g id="patch_75">
    <path d="M 416.097854 260.521875 
L 426.775045 260.521875 
L 426.775045 218.386385 
L 416.097854 218.386385 
z
" clip-path="url(#p143d74fd46)" style="fill: #1f77b4; opacity: 0.4"/>
   </g>
   <g id="patch_76">
    <path d="M 426.775045 260.521875 
L 437.452236 260.521875 
L 437.452236 248.723938 
L 426.775045 248.723938 
z
" clip-path="url(#p143d74fd46)" style="fill: #1f77b4; opacity: 0.4"/>
   </g>
   <g id="patch_77">
    <path d="M 437.452236 260.521875 
L 448.129427 260.521875 
L 448.129427 252.094777 
L 437.452236 252.094777 
z
" clip-path="url(#p143d74fd46)" style="fill: #1f77b4; opacity: 0.4"/>
   </g>
   <g id="patch_78">
    <path d="M 448.129427 260.521875 
L 458.806618 260.521875 
L 458.806618 258.836455 
L 448.129427 258.836455 
z
" clip-path="url(#p143d74fd46)" style="fill: #1f77b4; opacity: 0.4"/>
   </g>
   <g id="patch_79">
    <path d="M 458.806618 260.521875 
L 469.483809 260.521875 
L 469.483809 260.521875 
L 458.806618 260.521875 
z
" clip-path="url(#p143d74fd46)" style="fill: #1f77b4; opacity: 0.4"/>
   </g>
   <g id="patch_80">
    <path d="M 469.483809 260.521875 
L 480.161 260.521875 
L 480.161 260.521875 
L 469.483809 260.521875 
z
" clip-path="url(#p143d74fd46)" style="fill: #1f77b4; opacity: 0.4"/>
   </g>
   <g id="patch_81">
    <path d="M 480.161 260.521875 
L 490.838192 260.521875 
L 490.838192 260.521875 
L 480.161 260.521875 
z
" clip-path="url(#p143d74fd46)" style="fill: #1f77b4; opacity: 0.4"/>
   </g>
   <g id="patch_82">
    <path d="M 490.838192 260.521875 
L 501.515383 260.521875 
L 501.515383 260.521875 
L 490.838192 260.521875 
z
" clip-path="url(#p143d74fd46)" style="fill: #1f77b4; opacity: 0.4"/>
   </g>
   <g id="patch_83">
    <path d="M 501.515383 260.521875 
L 512.192574 260.521875 
L 512.192574 260.521875 
L 501.515383 260.521875 
z
" clip-path="url(#p143d74fd46)" style="fill: #1f77b4; opacity: 0.4"/>
   </g>
   <g id="patch_84">
    <path d="M 512.192574 260.521875 
L 522.869765 260.521875 
L 522.869765 260.521875 
L 512.192574 260.521875 
z
" clip-path="url(#p143d74fd46)" style="fill: #1f77b4; opacity: 0.4"/>
   </g>
   <g id="patch_85">
    <path d="M 522.869765 260.521875 
L 533.546956 260.521875 
L 533.546956 260.521875 
L 522.869765 260.521875 
z
" clip-path="url(#p143d74fd46)" style="fill: #1f77b4; opacity: 0.4"/>
   </g>
   <g id="patch_86">
    <path d="M 533.546956 260.521875 
L 544.224147 260.521875 
L 544.224147 260.521875 
L 533.546956 260.521875 
z
" clip-path="url(#p143d74fd46)" style="fill: #1f77b4; opacity: 0.4"/>
   </g>
   <g id="patch_87">
    <path d="M 544.224147 260.521875 
L 554.901338 260.521875 
L 554.901338 260.521875 
L 544.224147 260.521875 
z
" clip-path="url(#p143d74fd46)" style="fill: #1f77b4; opacity: 0.4"/>
   </g>
   <g id="patch_88">
    <path d="M 554.901338 260.521875 
L 565.57853 260.521875 
L 565.57853 260.521875 
L 554.901338 260.521875 
z
" clip-path="url(#p143d74fd46)" style="fill: #1f77b4; opacity: 0.4"/>
   </g>
   <g id="patch_89">
    <path d="M 565.57853 260.521875 
L 576.255721 260.521875 
L 576.255721 260.521875 
L 565.57853 260.521875 
z
" clip-path="url(#p143d74fd46)" style="fill: #1f77b4; opacity: 0.4"/>
   </g>
   <g id="patch_90">
    <path d="M 576.255721 260.521875 
L 586.932912 260.521875 
L 586.932912 260.521875 
L 576.255721 260.521875 
z
" clip-path="url(#p143d74fd46)" style="fill: #1f77b4; opacity: 0.4"/>
   </g>
   <g id="patch_91">
    <path d="M 586.932912 260.521875 
L 597.610103 260.521875 
L 597.610103 258.836455 
L 586.932912 258.836455 
z
" clip-path="url(#p143d74fd46)" style="fill: #1f77b4; opacity: 0.4"/>
   </g>
   <g id="patch_92">
    <path d="M 385.496463 260.521875 
L 391.944453 260.521875 
L 391.944453 218.09805 
L 385.496463 218.09805 
z
" clip-path="url(#p143d74fd46)" style="fill: #ff7f0e; opacity: 0.4"/>
   </g>
   <g id="patch_93">
    <path d="M 391.944453 260.521875 
L 398.392443 260.521875 
L 398.392443 54.059262 
L 391.944453 54.059262 
z
" clip-path="url(#p143d74fd46)" style="fill: #ff7f0e; opacity: 0.4"/>
   </g>
   <g id="patch_94">
    <path d="M 398.392443 260.521875 
L 404.840432 260.521875 
L 404.840432 37.089732 
L 398.392443 37.089732 
z
" clip-path="url(#p143d74fd46)" style="fill: #ff7f0e; opacity: 0.4"/>
   </g>
   <g id="patch_95">
    <path d="M 404.840432 260.521875 
L 411.288422 260.521875 
L 411.288422 206.785031 
L 404.840432 206.785031 
z
" clip-path="url(#p143d74fd46)" style="fill: #ff7f0e; opacity: 0.4"/>
   </g>
   <g id="patch_96">
    <path d="M 411.288422 260.521875 
L 417.736412 260.521875 
L 417.736412 218.09805 
L 411.288422 218.09805 
z
" clip-path="url(#p143d74fd46)" style="fill: #ff7f0e; opacity: 0.4"/>
   </g>
   <g id="patch_97">
    <path d="M 417.736412 260.521875 
L 424.184402 260.521875 
L 424.184402 240.72409 
L 417.736412 240.72409 
z
" clip-path="url(#p143d74fd46)" style="fill: #ff7f0e; opacity: 0.4"/>
   </g>
   <g id="patch_98">
    <path d="M 424.184402 260.521875 
L 430.632391 260.521875 
L 430.632391 243.552345 
L 424.184402 243.552345 
z
" clip-path="url(#p143d74fd46)" style="fill: #ff7f0e; opacity: 0.4"/>
   </g>
   <g id="patch_99">
    <path d="M 430.632391 260.521875 
L 437.080381 260.521875 
L 437.080381 252.03711 
L 430.632391 252.03711 
z
" clip-path="url(#p143d74fd46)" style="fill: #ff7f0e; opacity: 0.4"/>
   </g>
   <g id="patch_100">
    <path d="M 437.080381 260.521875 
L 443.528371 260.521875 
L 443.528371 260.521875 
L 437.080381 260.521875 
z
" clip-path="url(#p143d74fd46)" style="fill: #ff7f0e; opacity: 0.4"/>
   </g>
   <g id="patch_101">
    <path d="M 443.528371 260.521875 
L 449.976361 260.521875 
L 449.976361 257.69362 
L 443.528371 257.69362 
z
" clip-path="url(#p143d74fd46)" style="fill: #ff7f0e; opacity: 0.4"/>
   </g>
   <g id="patch_102">
    <path d="M 449.976361 260.521875 
L 456.42435 260.521875 
L 456.42435 257.69362 
L 449.976361 257.69362 
z
" clip-path="url(#p143d74fd46)" style="fill: #ff7f0e; opacity: 0.4"/>
   </g>
   <g id="patch_103">
    <path d="M 456.42435 260.521875 
L 462.87234 260.521875 
L 462.87234 257.69362 
L 456.42435 257.69362 
z
" clip-path="url(#p143d74fd46)" style="fill: #ff7f0e; opacity: 0.4"/>
   </g>
   <g id="patch_104">
    <path d="M 462.87234 260.521875 
L 469.32033 260.521875 
L 469.32033 257.69362 
L 462.87234 257.69362 
z
" clip-path="url(#p143d74fd46)" style="fill: #ff7f0e; opacity: 0.4"/>
   </g>
   <g id="patch_105">
    <path d="M 469.32033 260.521875 
L 475.768319 260.521875 
L 475.768319 257.69362 
L 469.32033 257.69362 
z
" clip-path="url(#p143d74fd46)" style="fill: #ff7f0e; opacity: 0.4"/>
   </g>
   <g id="patch_106">
    <path d="M 475.768319 260.521875 
L 482.216309 260.521875 
L 482.216309 260.521875 
L 475.768319 260.521875 
z
" clip-path="url(#p143d74fd46)" style="fill: #ff7f0e; opacity: 0.4"/>
   </g>
   <g id="patch_107">
    <path d="M 482.216309 260.521875 
L 488.664299 260.521875 
L 488.664299 257.69362 
L 482.216309 257.69362 
z
" clip-path="url(#p143d74fd46)" style="fill: #ff7f0e; opacity: 0.4"/>
   </g>
   <g id="patch_108">
    <path d="M 488.664299 260.521875 
L 495.112289 260.521875 
L 495.112289 260.521875 
L 488.664299 260.521875 
z
" clip-path="url(#p143d74fd46)" style="fill: #ff7f0e; opacity: 0.4"/>
   </g>
   <g id="patch_109">
    <path d="M 495.112289 260.521875 
L 501.560278 260.521875 
L 501.560278 260.521875 
L 495.112289 260.521875 
z
" clip-path="url(#p143d74fd46)" style="fill: #ff7f0e; opacity: 0.4"/>
   </g>
   <g id="patch_110">
    <path d="M 501.560278 260.521875 
L 508.008268 260.521875 
L 508.008268 260.521875 
L 501.560278 260.521875 
z
" clip-path="url(#p143d74fd46)" style="fill: #ff7f0e; opacity: 0.4"/>
   </g>
   <g id="patch_111">
    <path d="M 508.008268 260.521875 
L 514.456258 260.521875 
L 514.456258 257.69362 
L 508.008268 257.69362 
z
" clip-path="url(#p143d74fd46)" style="fill: #ff7f0e; opacity: 0.4"/>
   </g>
   <g id="patch_112">
    <path d="M 386.898179 260.521875 
L 392.270677 260.521875 
L 392.270677 185.509573 
L 386.898179 185.509573 
z
" clip-path="url(#p143d74fd46)" style="fill: #2ca02c; opacity: 0.4"/>
   </g>
   <g id="patch_113">
    <path d="M 392.270677 260.521875 
L 397.643175 260.521875 
L 397.643175 151.413072 
L 392.270677 151.413072 
z
" clip-path="url(#p143d74fd46)" style="fill: #2ca02c; opacity: 0.4"/>
   </g>
   <g id="patch_114">
    <path d="M 397.643175 260.521875 
L 403.015673 260.521875 
L 403.015673 127.545522 
L 397.643175 127.545522 
z
" clip-path="url(#p143d74fd46)" style="fill: #2ca02c; opacity: 0.4"/>
   </g>
   <g id="patch_115">
    <path d="M 403.015673 260.521875 
L 408.38817 260.521875 
L 408.38817 130.955172 
L 403.015673 130.955172 
z
" clip-path="url(#p143d74fd46)" style="fill: #2ca02c; opacity: 0.4"/>
   </g>
   <g id="patch_116">
    <path d="M 408.38817 260.521875 
L 413.760668 260.521875 
L 413.760668 165.051673 
L 408.38817 165.051673 
z
" clip-path="url(#p143d74fd46)" style="fill: #2ca02c; opacity: 0.4"/>
   </g>
   <g id="patch_117">
    <path d="M 413.760668 260.521875 
L 419.133166 260.521875 
L 419.133166 205.967474 
L 413.760668 205.967474 
z
" clip-path="url(#p143d74fd46)" style="fill: #2ca02c; opacity: 0.4"/>
   </g>
   <g id="patch_118">
    <path d="M 419.133166 260.521875 
L 424.505664 260.521875 
L 424.505664 199.148174 
L 419.133166 199.148174 
z
" clip-path="url(#p143d74fd46)" style="fill: #2ca02c; opacity: 0.4"/>
   </g>
   <g id="patch_119">
    <path d="M 424.505664 260.521875 
L 429.878161 260.521875 
L 429.878161 236.654324 
L 424.505664 236.654324 
z
" clip-path="url(#p143d74fd46)" style="fill: #2ca02c; opacity: 0.4"/>
   </g>
   <g id="patch_120">
    <path d="M 429.878161 260.521875 
L 435.250659 260.521875 
L 435.250659 229.835024 
L 429.878161 229.835024 
z
" clip-path="url(#p143d74fd46)" style="fill: #2ca02c; opacity: 0.4"/>
   </g>
   <g id="patch_121">
    <path d="M 435.250659 260.521875 
L 440.623157 260.521875 
L 440.623157 236.654324 
L 435.250659 236.654324 
z
" clip-path="url(#p143d74fd46)" style="fill: #2ca02c; opacity: 0.4"/>
   </g>
   <g id="patch_122">
    <path d="M 440.623157 260.521875 
L 445.995654 260.521875 
L 445.995654 260.521875 
L 440.623157 260.521875 
z
" clip-path="url(#p143d74fd46)" style="fill: #2ca02c; opacity: 0.4"/>
   </g>
   <g id="patch_123">
    <path d="M 445.995654 260.521875 
L 451.368152 260.521875 
L 451.368152 257.112225 
L 445.995654 257.112225 
z
" clip-path="url(#p143d74fd46)" style="fill: #2ca02c; opacity: 0.4"/>
   </g>
   <g id="patch_124">
    <path d="M 451.368152 260.521875 
L 456.74065 260.521875 
L 456.74065 260.521875 
L 451.368152 260.521875 
z
" clip-path="url(#p143d74fd46)" style="fill: #2ca02c; opacity: 0.4"/>
   </g>
   <g id="patch_125">
    <path d="M 456.74065 260.521875 
L 462.113148 260.521875 
L 462.113148 260.521875 
L 456.74065 260.521875 
z
" clip-path="url(#p143d74fd46)" style="fill: #2ca02c; opacity: 0.4"/>
   </g>
   <g id="patch_126">
    <path d="M 462.113148 260.521875 
L 467.485645 260.521875 
L 467.485645 253.702575 
L 462.113148 253.702575 
z
" clip-path="url(#p143d74fd46)" style="fill: #2ca02c; opacity: 0.4"/>
   </g>
   <g id="patch_127">
    <path d="M 467.485645 260.521875 
L 472.858143 260.521875 
L 472.858143 257.112225 
L 467.485645 257.112225 
z
" clip-path="url(#p143d74fd46)" style="fill: #2ca02c; opacity: 0.4"/>
   </g>
   <g id="patch_128">
    <path d="M 472.858143 260.521875 
L 478.230641 260.521875 
L 478.230641 260.521875 
L 472.858143 260.521875 
z
" clip-path="url(#p143d74fd46)" style="fill: #2ca02c; opacity: 0.4"/>
   </g>
   <g id="patch_129">
    <path d="M 478.230641 260.521875 
L 483.603139 260.521875 
L 483.603139 257.112225 
L 478.230641 257.112225 
z
" clip-path="url(#p143d74fd46)" style="fill: #2ca02c; opacity: 0.4"/>
   </g>
   <g id="patch_130">
    <path d="M 483.603139 260.521875 
L 488.975636 260.521875 
L 488.975636 257.112225 
L 483.603139 257.112225 
z
" clip-path="url(#p143d74fd46)" style="fill: #2ca02c; opacity: 0.4"/>
   </g>
   <g id="patch_131">
    <path d="M 488.975636 260.521875 
L 494.348134 260.521875 
L 494.348134 257.112225 
L 488.975636 257.112225 
z
" clip-path="url(#p143d74fd46)" style="fill: #2ca02c; opacity: 0.4"/>
   </g>
   <g id="matplotlib.axis_3">
    <g id="xtick_6">
     <g id="line2d_16">
      <g>
       <use xlink:href="#me70f6a3b86" x="358.957594" y="260.521875" style="stroke: #000000; stroke-width: 0.8"/>
      </g>
     </g>
     <g id="text_18">
      <!-- 0.4 -->
      <g transform="translate(351.006031 275.120313) scale(0.1 -0.1)">
       <use xlink:href="#DejaVuSans-30"/>
       <use xlink:href="#DejaVuSans-2e" x="63.623047"/>
       <use xlink:href="#DejaVuSans-34" x="95.410156"/>
      </g>
     </g>
    </g>
    <g id="xtick_7">
     <g id="line2d_17">
      <g>
       <use xlink:href="#me70f6a3b86" x="407.485219" y="260.521875" style="stroke: #000000; stroke-width: 0.8"/>
      </g>
     </g>
     <g id="text_19">
      <!-- 0.6 -->
      <g transform="translate(399.533656 275.120313) scale(0.1 -0.1)">
       <use xlink:href="#DejaVuSans-30"/>
       <use xlink:href="#DejaVuSans-2e" x="63.623047"/>
       <use xlink:href="#DejaVuSans-36" x="95.410156"/>
      </g>
     </g>
    </g>
    <g id="xtick_8">
     <g id="line2d_18">
      <g>
       <use xlink:href="#me70f6a3b86" x="456.012844" y="260.521875" style="stroke: #000000; stroke-width: 0.8"/>
      </g>
     </g>
     <g id="text_20">
      <!-- 0.8 -->
      <g transform="translate(448.061281 275.120313) scale(0.1 -0.1)">
       <use xlink:href="#DejaVuSans-30"/>
       <use xlink:href="#DejaVuSans-2e" x="63.623047"/>
       <use xlink:href="#DejaVuSans-38" x="95.410156"/>
      </g>
     </g>
    </g>
    <g id="xtick_9">
     <g id="line2d_19">
      <g>
       <use xlink:href="#me70f6a3b86" x="504.540469" y="260.521875" style="stroke: #000000; stroke-width: 0.8"/>
      </g>
     </g>
     <g id="text_21">
      <!-- 1.0 -->
      <g transform="translate(496.588906 275.120313) scale(0.1 -0.1)">
       <use xlink:href="#DejaVuSans-31"/>
       <use xlink:href="#DejaVuSans-2e" x="63.623047"/>
       <use xlink:href="#DejaVuSans-30" x="95.410156"/>
      </g>
     </g>
    </g>
    <g id="xtick_10">
     <g id="line2d_20">
      <g>
       <use xlink:href="#me70f6a3b86" x="553.068094" y="260.521875" style="stroke: #000000; stroke-width: 0.8"/>
      </g>
     </g>
     <g id="text_22">
      <!-- 1.2 -->
      <g transform="translate(545.116531 275.120313) scale(0.1 -0.1)">
       <use xlink:href="#DejaVuSans-31"/>
       <use xlink:href="#DejaVuSans-2e" x="63.623047"/>
       <use xlink:href="#DejaVuSans-32" x="95.410156"/>
      </g>
     </g>
    </g>
   </g>
   <g id="matplotlib.axis_4">
    <g id="ytick_8">
     <g id="line2d_21">
      <g>
       <use xlink:href="#mfc45a5acb0" x="322.561875" y="260.521875" style="stroke: #000000; stroke-width: 0.8"/>
      </g>
     </g>
    </g>
    <g id="ytick_9">
     <g id="line2d_22">
      <g>
       <use xlink:href="#mfc45a5acb0" x="322.561875" y="226.850421" style="stroke: #000000; stroke-width: 0.8"/>
      </g>
     </g>
    </g>
    <g id="ytick_10">
     <g id="line2d_23">
      <g>
       <use xlink:href="#mfc45a5acb0" x="322.561875" y="193.178967" style="stroke: #000000; stroke-width: 0.8"/>
      </g>
     </g>
    </g>
    <g id="ytick_11">
     <g id="line2d_24">
      <g>
       <use xlink:href="#mfc45a5acb0" x="322.561875" y="159.507513" style="stroke: #000000; stroke-width: 0.8"/>
      </g>
     </g>
    </g>
    <g id="ytick_12">
     <g id="line2d_25">
      <g>
       <use xlink:href="#mfc45a5acb0" x="322.561875" y="125.836059" style="stroke: #000000; stroke-width: 0.8"/>
      </g>
     </g>
    </g>
    <g id="ytick_13">
     <g id="line2d_26">
      <g>
       <use xlink:href="#mfc45a5acb0" x="322.561875" y="92.164606" style="stroke: #000000; stroke-width: 0.8"/>
      </g>
     </g>
    </g>
    <g id="ytick_14">
     <g id="line2d_27">
      <g>
       <use xlink:href="#mfc45a5acb0" x="322.561875" y="58.493152" style="stroke: #000000; stroke-width: 0.8"/>
      </g>
     </g>
    </g>
    <g id="text_23">
     <!-- Fraction of cells -->
     <g transform="translate(312.150312 198.051875) rotate(-90) scale(0.14 -0.14)">
      <use xlink:href="#DejaVuSans-46"/>
      <use xlink:href="#DejaVuSans-72" x="50.269531"/>
      <use xlink:href="#DejaVuSans-61" x="91.382812"/>
      <use xlink:href="#DejaVuSans-63" x="152.662109"/>
      <use xlink:href="#DejaVuSans-74" x="207.642578"/>
      <use xlink:href="#DejaVuSans-69" x="246.851562"/>
      <use xlink:href="#DejaVuSans-6f" x="274.634766"/>
      <use xlink:href="#DejaVuSans-6e" x="335.816406"/>
      <use xlink:href="#DejaVuSans-20" x="399.195312"/>
      <use xlink:href="#DejaVuSans-6f" x="430.982422"/>
      <use xlink:href="#DejaVuSans-66" x="492.164062"/>
      <use xlink:href="#DejaVuSans-20" x="527.369141"/>
      <use xlink:href="#DejaVuSans-63" x="559.15625"/>
      <use xlink:href="#DejaVuSans-65" x="614.136719"/>
      <use xlink:href="#DejaVuSans-6c" x="675.660156"/>
      <use xlink:href="#DejaVuSans-6c" x="703.443359"/>
      <use xlink:href="#DejaVuSans-73" x="731.226562"/>
     </g>
    </g>
   </g>
   <g id="line2d_28">
    <path d="M 261.902344 260.521875 
L 364.322457 260.484389 
L 366.761031 260.381179 
L 369.199605 260.059658 
L 371.638179 259.187335 
L 374.076753 257.120413 
L 376.515327 252.833084 
L 378.953902 245.036386 
L 381.392476 232.606213 
L 383.83105 215.271563 
L 391.146772 152.786968 
L 393.585346 138.871036 
L 396.02392 131.977881 
L 398.462495 131.961036 
L 400.901069 137.603957 
L 403.339643 147.227469 
L 410.655365 182.373057 
L 413.093939 192.073097 
L 415.532513 200.429317 
L 417.971087 207.954495 
L 422.848236 222.001084 
L 425.28681 228.681928 
L 427.725384 234.959094 
L 430.163958 240.547761 
L 432.602532 245.115222 
L 435.041106 248.452342 
L 437.47968 250.640473 
L 439.918255 252.049525 
L 452.111125 257.513146 
L 454.549699 258.35059 
L 456.988273 259.032952 
L 459.426848 259.573784 
L 461.865422 259.974944 
L 464.303996 260.241713 
L 469.181144 260.47295 
L 478.93544 260.521624 
L 577 260.516662 
L 577 260.516662 
" clip-path="url(#p143d74fd46)" style="fill: none; stroke: #1f77b4; stroke-width: 1.5; stroke-linecap: square"/>
   </g>
   <g id="line2d_29">
    <path d="M 261.902344 260.521875 
L 369.199605 260.495596 
L 371.638179 260.404076 
L 374.076753 260.074463 
L 376.515327 259.066609 
L 378.953902 256.425539 
L 381.392476 250.448736 
L 383.83105 238.712692 
L 386.269624 218.702412 
L 388.708198 189.224947 
L 393.585346 114.004702 
L 396.02392 84.017534 
L 398.462495 71.322931 
L 400.901069 79.755362 
L 403.339643 105.493016 
L 405.778217 139.095624 
L 408.216791 170.740929 
L 410.655365 194.805019 
L 413.093939 210.847828 
L 415.532513 221.362234 
L 417.971087 228.914893 
L 420.409662 234.798096 
L 422.848236 239.35459 
L 425.28681 242.821995 
L 427.725384 245.658807 
L 435.041106 253.456085 
L 437.47968 255.730304 
L 439.918255 257.475951 
L 442.356829 258.46374 
L 444.795403 258.66311 
L 447.233977 258.303621 
L 449.672551 257.765665 
L 452.111125 257.380192 
L 454.549699 257.280447 
L 464.303996 257.743294 
L 469.181144 257.782445 
L 471.619718 258.022063 
L 476.496866 258.748589 
L 478.93544 258.92884 
L 483.812589 259.011098 
L 486.251163 259.225413 
L 493.566885 260.260658 
L 498.444033 260.477119 
L 503.321182 260.372656 
L 505.759756 260.168419 
L 513.075478 259.186767 
L 515.514052 259.167664 
L 517.952626 259.413489 
L 522.829775 260.131748 
L 525.268349 260.354105 
L 530.145497 260.505573 
L 554.531238 260.521875 
L 577 260.521875 
L 577 260.521875 
" clip-path="url(#p143d74fd46)" style="fill: none; stroke: #ff7f0e; stroke-width: 1.5; stroke-linecap: square"/>
   </g>
   <g id="line2d_30">
    <path d="M 261.902344 260.521875 
L 369.199605 260.455018 
L 371.638179 260.262625 
L 374.076753 259.664257 
L 376.515327 258.091909 
L 378.953902 254.594105 
L 381.392476 247.986812 
L 383.83105 237.338641 
L 386.269624 222.592879 
L 388.708198 204.866038 
L 391.146772 186.137783 
L 393.585346 168.584489 
L 396.02392 154.07256 
L 398.462495 143.991165 
L 400.901069 139.179262 
L 403.339643 139.763614 
L 405.778217 145.071744 
L 408.216791 153.842727 
L 410.655365 164.645933 
L 415.532513 187.436436 
L 417.971087 197.61575 
L 420.409662 206.407659 
L 422.848236 213.894439 
L 425.28681 220.245307 
L 427.725384 225.450504 
L 430.163958 229.503486 
L 435.041106 236.156803 
L 437.47968 240.219246 
L 442.356829 249.671704 
L 444.795403 253.614383 
L 447.233977 256.419678 
L 449.672551 258.17218 
L 452.111125 259.134756 
L 454.549699 259.51411 
L 456.988273 259.414966 
L 459.426848 258.92276 
L 464.303996 257.464485 
L 466.74257 256.968206 
L 469.181144 256.813646 
L 471.619718 256.941785 
L 478.93544 257.645288 
L 493.566885 258.870835 
L 498.444033 259.469703 
L 503.321182 260.137127 
L 508.19833 260.450086 
L 515.514052 260.520331 
L 577 260.521875 
L 577 260.521875 
" clip-path="url(#p143d74fd46)" style="fill: none; stroke: #2ca02c; stroke-width: 1.5; stroke-linecap: square"/>
   </g>
   <g id="patch_132">
    <path d="M 322.561875 260.521875 
L 322.561875 25.918125 
" style="fill: none; stroke: #000000; stroke-width: 0.8; stroke-linejoin: miter; stroke-linecap: square"/>
   </g>
   <g id="patch_133">
    <path d="M 565.2 260.521875 
L 565.2 25.918125 
" style="fill: none; stroke: #000000; stroke-width: 0.8; stroke-linejoin: miter; stroke-linecap: square"/>
   </g>
   <g id="patch_134">
    <path d="M 322.561875 260.521875 
L 565.2 260.521875 
" style="fill: none; stroke: #000000; stroke-width: 0.8; stroke-linejoin: miter; stroke-linecap: square"/>
   </g>
   <g id="patch_135">
    <path d="M 322.561875 25.918125 
L 565.2 25.918125 
" style="fill: none; stroke: #000000; stroke-width: 0.8; stroke-linejoin: miter; stroke-linecap: square"/>
   </g>
   <g id="text_24">
    <!-- Linear -->
    <g transform="translate(425.233125 19.918125) scale(0.12 -0.12)">
     <defs>
      <path id="DejaVuSans-4c" d="M 628 4666 
L 1259 4666 
L 1259 531 
L 3531 531 
L 3531 0 
L 628 0 
L 628 4666 
z
" transform="scale(0.015625)"/>
     </defs>
     <use xlink:href="#DejaVuSans-4c"/>
     <use xlink:href="#DejaVuSans-69" x="55.712891"/>
     <use xlink:href="#DejaVuSans-6e" x="83.496094"/>
     <use xlink:href="#DejaVuSans-65" x="146.875"/>
     <use xlink:href="#DejaVuSans-61" x="208.398438"/>
     <use xlink:href="#DejaVuSans-72" x="269.677734"/>
    </g>
   </g>
   <g id="legend_2">
    <g id="patch_136">
     <path d="M 437.315625 88.693125 
L 556.8 88.693125 
Q 559.2 88.693125 559.2 86.293125 
L 559.2 34.318125 
Q 559.2 31.918125 556.8 31.918125 
L 437.315625 31.918125 
Q 434.915625 31.918125 434.915625 34.318125 
L 434.915625 86.293125 
Q 434.915625 88.693125 437.315625 88.693125 
z
" style="fill: #ffffff; opacity: 0.8; stroke: #cccccc; stroke-linejoin: miter"/>
    </g>
    <g id="patch_137">
     <path d="M 439.715625 45.83625 
L 463.715625 45.83625 
L 463.715625 37.43625 
L 439.715625 37.43625 
z
" style="fill: #1f77b4; opacity: 0.4"/>
    </g>
    <g id="text_25">
     <!-- MCF10A -->
     <g transform="translate(473.315625 45.83625) scale(0.12 -0.12)">
      <use xlink:href="#DejaVuSans-4d"/>
      <use xlink:href="#DejaVuSans-43" x="86.279297"/>
      <use xlink:href="#DejaVuSans-46" x="156.103516"/>
      <use xlink:href="#DejaVuSans-31" x="213.623047"/>
      <use xlink:href="#DejaVuSans-30" x="277.246094"/>
      <use xlink:href="#DejaVuSans-41" x="340.869141"/>
     </g>
    </g>
    <g id="patch_138">
     <path d="M 439.715625 63.45 
L 463.715625 63.45 
L 463.715625 55.05 
L 439.715625 55.05 
z
" style="fill: #ff7f0e; opacity: 0.4"/>
    </g>
    <g id="text_26">
     <!-- MCF7 -->
     <g transform="translate(473.315625 63.45) scale(0.12 -0.12)">
      <use xlink:href="#DejaVuSans-4d"/>
      <use xlink:href="#DejaVuSans-43" x="86.279297"/>
      <use xlink:href="#DejaVuSans-46" x="156.103516"/>
      <use xlink:href="#DejaVuSans-37" x="213.623047"/>
     </g>
    </g>
    <g id="patch_139">
     <path d="M 439.715625 81.06375 
L 463.715625 81.06375 
L 463.715625 72.66375 
L 439.715625 72.66375 
z
" style="fill: #2ca02c; opacity: 0.4"/>
    </g>
    <g id="text_27">
     <!-- MDA_MB_231 -->
     <g transform="translate(473.315625 81.06375) scale(0.12 -0.12)">
      <use xlink:href="#DejaVuSans-4d"/>
      <use xlink:href="#DejaVuSans-44" x="86.279297"/>
      <use xlink:href="#DejaVuSans-41" x="161.53125"/>
      <use xlink:href="#DejaVuSans-5f" x="229.939453"/>
      <use xlink:href="#DejaVuSans-4d" x="279.939453"/>
      <use xlink:href="#DejaVuSans-42" x="366.21875"/>
      <use xlink:href="#DejaVuSans-5f" x="434.822266"/>
      <use xlink:href="#DejaVuSans-32" x="484.822266"/>
      <use xlink:href="#DejaVuSans-33" x="548.445312"/>
      <use xlink:href="#DejaVuSans-31" x="612.068359"/>
     </g>
    </g>
   </g>
  </g>
 </g>
 <defs>
  <clipPath id="pa5c414e4b9">
   <rect x="48.074375" y="25.918125" width="242.638125" height="234.60375"/>
  </clipPath>
  <clipPath id="p143d74fd46">
   <rect x="322.561875" y="25.918125" width="242.638125" height="234.60375"/>
  </clipPath>
 </defs>
</svg>
