<?xml version="1.0" encoding="utf-8" standalone="no"?>
<!DOCTYPE svg PUBLIC "-//W3C//DTD SVG 1.1//EN"
  "http://www.w3.org/Graphics/SVG/1.1/DTD/svg11.dtd">
<svg xmlns:xlink="http://www.w3.org/1999/xlink" width="576pt" height="288pt" viewBox="0 0 576 288" xmlns="http://www.w3.org/2000/svg" version="1.1">
 <metadata>
  <rdf:RDF xmlns:dc="http://purl.org/dc/elements/1.1/" xmlns:cc="http://creativecommons.org/ns#" xmlns:rdf="http://www.w3.org/1999/02/22-rdf-syntax-ns#">
   <cc:Work>
    <dc:type rdf:resource="http://purl.org/dc/dcmitype/StillImage"/>
    <dc:date>2024-04-25T10:32:55.563499</dc:date>
    <dc:format>image/svg+xml</dc:format>
    <dc:creator>
     <cc:Agent>
      <dc:title>Matplotlib v3.8.4, https://matplotlib.org/</dc:title>
     </cc:Agent>
    </dc:creator>
   </cc:Work>
  </rdf:RDF>
 </metadata>
 <defs>
  <style type="text/css">*{stroke-linejoin: round; stroke-linecap: butt}</style>
 </defs>
 <g id="figure_1">
  <g id="patch_1">
   <path d="M 0 288 
L 576 288 
L 576 0 
L 0 0 
z
" style="fill: #ffffff"/>
  </g>
  <g id="axes_1">
   <g id="patch_2">
    <path d="M 41.711875 260.521875 
L 277.829687 260.521875 
L 277.829687 25.918125 
L 41.711875 25.918125 
z
" style="fill: #ffffff"/>
   </g>
   <g id="patch_3">
    <path d="M 181.546516 260.521875 
L 185.011441 260.521875 
L 185.011441 247.27854 
L 181.546516 247.27854 
z
" clip-path="url(#p4c53a4b8fc)" style="fill: #1f77b4; opacity: 0.4"/>
   </g>
   <g id="patch_4">
    <path d="M 185.011441 260.521875 
L 188.476365 260.521875 
L 188.476365 253.900208 
L 185.011441 253.900208 
z
" clip-path="url(#p4c53a4b8fc)" style="fill: #1f77b4; opacity: 0.4"/>
   </g>
   <g id="patch_5">
    <path d="M 188.476365 260.521875 
L 191.94129 260.521875 
L 191.94129 234.035205 
L 188.476365 234.035205 
z
" clip-path="url(#p4c53a4b8fc)" style="fill: #1f77b4; opacity: 0.4"/>
   </g>
   <g id="patch_6">
    <path d="M 191.94129 260.521875 
L 195.406215 260.521875 
L 195.406215 214.170203 
L 191.94129 214.170203 
z
" clip-path="url(#p4c53a4b8fc)" style="fill: #1f77b4; opacity: 0.4"/>
   </g>
   <g id="patch_7">
    <path d="M 195.406215 260.521875 
L 198.871139 260.521875 
L 198.871139 207.548536 
L 195.406215 207.548536 
z
" clip-path="url(#p4c53a4b8fc)" style="fill: #1f77b4; opacity: 0.4"/>
   </g>
   <g id="patch_8">
    <path d="M 198.871139 260.521875 
L 202.336064 260.521875 
L 202.336064 141.331862 
L 198.871139 141.331862 
z
" clip-path="url(#p4c53a4b8fc)" style="fill: #1f77b4; opacity: 0.4"/>
   </g>
   <g id="patch_9">
    <path d="M 202.336064 260.521875 
L 205.800988 260.521875 
L 205.800988 128.088527 
L 202.336064 128.088527 
z
" clip-path="url(#p4c53a4b8fc)" style="fill: #1f77b4; opacity: 0.4"/>
   </g>
   <g id="patch_10">
    <path d="M 205.800988 260.521875 
L 209.265913 260.521875 
L 209.265913 81.736855 
L 205.800988 81.736855 
z
" clip-path="url(#p4c53a4b8fc)" style="fill: #1f77b4; opacity: 0.4"/>
   </g>
   <g id="patch_11">
    <path d="M 209.265913 260.521875 
L 212.730838 260.521875 
L 212.730838 134.710194 
L 209.265913 134.710194 
z
" clip-path="url(#p4c53a4b8fc)" style="fill: #1f77b4; opacity: 0.4"/>
   </g>
   <g id="patch_12">
    <path d="M 212.730838 260.521875 
L 216.195762 260.521875 
L 216.195762 147.953529 
L 212.730838 147.953529 
z
" clip-path="url(#p4c53a4b8fc)" style="fill: #1f77b4; opacity: 0.4"/>
   </g>
   <g id="patch_13">
    <path d="M 216.195762 260.521875 
L 219.660687 260.521875 
L 219.660687 61.871853 
L 216.195762 61.871853 
z
" clip-path="url(#p4c53a4b8fc)" style="fill: #1f77b4; opacity: 0.4"/>
   </g>
   <g id="patch_14">
    <path d="M 219.660687 260.521875 
L 223.125612 260.521875 
L 223.125612 88.358523 
L 219.660687 88.358523 
z
" clip-path="url(#p4c53a4b8fc)" style="fill: #1f77b4; opacity: 0.4"/>
   </g>
   <g id="patch_15">
    <path d="M 223.125612 260.521875 
L 226.590536 260.521875 
L 226.590536 161.196864 
L 223.125612 161.196864 
z
" clip-path="url(#p4c53a4b8fc)" style="fill: #1f77b4; opacity: 0.4"/>
   </g>
   <g id="patch_16">
    <path d="M 226.590536 260.521875 
L 230.055461 260.521875 
L 230.055461 161.196864 
L 226.590536 161.196864 
z
" clip-path="url(#p4c53a4b8fc)" style="fill: #1f77b4; opacity: 0.4"/>
   </g>
   <g id="patch_17">
    <path d="M 230.055461 260.521875 
L 233.520386 260.521875 
L 233.520386 214.170203 
L 230.055461 214.170203 
z
" clip-path="url(#p4c53a4b8fc)" style="fill: #1f77b4; opacity: 0.4"/>
   </g>
   <g id="patch_18">
    <path d="M 233.520386 260.521875 
L 236.98531 260.521875 
L 236.98531 214.170203 
L 233.520386 214.170203 
z
" clip-path="url(#p4c53a4b8fc)" style="fill: #1f77b4; opacity: 0.4"/>
   </g>
   <g id="patch_19">
    <path d="M 236.98531 260.521875 
L 240.450235 260.521875 
L 240.450235 253.900208 
L 236.98531 253.900208 
z
" clip-path="url(#p4c53a4b8fc)" style="fill: #1f77b4; opacity: 0.4"/>
   </g>
   <g id="patch_20">
    <path d="M 240.450235 260.521875 
L 243.91516 260.521875 
L 243.91516 247.27854 
L 240.450235 247.27854 
z
" clip-path="url(#p4c53a4b8fc)" style="fill: #1f77b4; opacity: 0.4"/>
   </g>
   <g id="patch_21">
    <path d="M 243.91516 260.521875 
L 247.380084 260.521875 
L 247.380084 260.521875 
L 243.91516 260.521875 
z
" clip-path="url(#p4c53a4b8fc)" style="fill: #1f77b4; opacity: 0.4"/>
   </g>
   <g id="patch_22">
    <path d="M 247.380084 260.521875 
L 250.845009 260.521875 
L 250.845009 253.900208 
L 247.380084 253.900208 
z
" clip-path="url(#p4c53a4b8fc)" style="fill: #1f77b4; opacity: 0.4"/>
   </g>
   <g id="patch_23">
    <path d="M 187.710813 260.521875 
L 191.352992 260.521875 
L 191.352992 254.138099 
L 187.710813 254.138099 
z
" clip-path="url(#p4c53a4b8fc)" style="fill: #ff7f0e; opacity: 0.4"/>
   </g>
   <g id="patch_24">
    <path d="M 191.352992 260.521875 
L 194.995172 260.521875 
L 194.995172 247.754324 
L 191.352992 247.754324 
z
" clip-path="url(#p4c53a4b8fc)" style="fill: #ff7f0e; opacity: 0.4"/>
   </g>
   <g id="patch_25">
    <path d="M 194.995172 260.521875 
L 198.637352 260.521875 
L 198.637352 209.451671 
L 194.995172 209.451671 
z
" clip-path="url(#p4c53a4b8fc)" style="fill: #ff7f0e; opacity: 0.4"/>
   </g>
   <g id="patch_26">
    <path d="M 198.637352 260.521875 
L 202.279532 260.521875 
L 202.279532 145.613916 
L 198.637352 145.613916 
z
" clip-path="url(#p4c53a4b8fc)" style="fill: #ff7f0e; opacity: 0.4"/>
   </g>
   <g id="patch_27">
    <path d="M 202.279532 260.521875 
L 205.921712 260.521875 
L 205.921712 120.078814 
L 202.279532 120.078814 
z
" clip-path="url(#p4c53a4b8fc)" style="fill: #ff7f0e; opacity: 0.4"/>
   </g>
   <g id="patch_28">
    <path d="M 205.921712 260.521875 
L 209.563892 260.521875 
L 209.563892 94.543712 
L 205.921712 94.543712 
z
" clip-path="url(#p4c53a4b8fc)" style="fill: #ff7f0e; opacity: 0.4"/>
   </g>
   <g id="patch_29">
    <path d="M 209.563892 260.521875 
L 213.206072 260.521875 
L 213.206072 37.089732 
L 209.563892 37.089732 
z
" clip-path="url(#p4c53a4b8fc)" style="fill: #ff7f0e; opacity: 0.4"/>
   </g>
   <g id="patch_30">
    <path d="M 213.206072 260.521875 
L 216.848251 260.521875 
L 216.848251 113.695038 
L 213.206072 113.695038 
z
" clip-path="url(#p4c53a4b8fc)" style="fill: #ff7f0e; opacity: 0.4"/>
   </g>
   <g id="patch_31">
    <path d="M 216.848251 260.521875 
L 220.490431 260.521875 
L 220.490431 120.078814 
L 216.848251 120.078814 
z
" clip-path="url(#p4c53a4b8fc)" style="fill: #ff7f0e; opacity: 0.4"/>
   </g>
   <g id="patch_32">
    <path d="M 220.490431 260.521875 
L 224.132611 260.521875 
L 224.132611 190.300344 
L 220.490431 190.300344 
z
" clip-path="url(#p4c53a4b8fc)" style="fill: #ff7f0e; opacity: 0.4"/>
   </g>
   <g id="patch_33">
    <path d="M 224.132611 260.521875 
L 227.774791 260.521875 
L 227.774791 171.149018 
L 224.132611 171.149018 
z
" clip-path="url(#p4c53a4b8fc)" style="fill: #ff7f0e; opacity: 0.4"/>
   </g>
   <g id="patch_34">
    <path d="M 227.774791 260.521875 
L 231.416971 260.521875 
L 231.416971 215.835446 
L 227.774791 215.835446 
z
" clip-path="url(#p4c53a4b8fc)" style="fill: #ff7f0e; opacity: 0.4"/>
   </g>
   <g id="patch_35">
    <path d="M 231.416971 260.521875 
L 235.059151 260.521875 
L 235.059151 190.300344 
L 231.416971 190.300344 
z
" clip-path="url(#p4c53a4b8fc)" style="fill: #ff7f0e; opacity: 0.4"/>
   </g>
   <g id="patch_36">
    <path d="M 235.059151 260.521875 
L 238.701331 260.521875 
L 238.701331 196.68412 
L 235.059151 196.68412 
z
" clip-path="url(#p4c53a4b8fc)" style="fill: #ff7f0e; opacity: 0.4"/>
   </g>
   <g id="patch_37">
    <path d="M 238.701331 260.521875 
L 242.343511 260.521875 
L 242.343511 228.602997 
L 238.701331 228.602997 
z
" clip-path="url(#p4c53a4b8fc)" style="fill: #ff7f0e; opacity: 0.4"/>
   </g>
   <g id="patch_38">
    <path d="M 242.343511 260.521875 
L 245.98569 260.521875 
L 245.98569 234.986773 
L 242.343511 234.986773 
z
" clip-path="url(#p4c53a4b8fc)" style="fill: #ff7f0e; opacity: 0.4"/>
   </g>
   <g id="patch_39">
    <path d="M 245.98569 260.521875 
L 249.62787 260.521875 
L 249.62787 260.521875 
L 245.98569 260.521875 
z
" clip-path="url(#p4c53a4b8fc)" style="fill: #ff7f0e; opacity: 0.4"/>
   </g>
   <g id="patch_40">
    <path d="M 249.62787 260.521875 
L 253.27005 260.521875 
L 253.27005 241.370548 
L 249.62787 241.370548 
z
" clip-path="url(#p4c53a4b8fc)" style="fill: #ff7f0e; opacity: 0.4"/>
   </g>
   <g id="patch_41">
    <path d="M 253.27005 260.521875 
L 256.91223 260.521875 
L 256.91223 260.521875 
L 253.27005 260.521875 
z
" clip-path="url(#p4c53a4b8fc)" style="fill: #ff7f0e; opacity: 0.4"/>
   </g>
   <g id="patch_42">
    <path d="M 256.91223 260.521875 
L 260.55441 260.521875 
L 260.55441 247.754324 
L 256.91223 247.754324 
z
" clip-path="url(#p4c53a4b8fc)" style="fill: #ff7f0e; opacity: 0.4"/>
   </g>
   <g id="patch_43">
    <path d="M 181.669962 260.521875 
L 185.725301 260.521875 
L 185.725301 220.026542 
L 181.669962 220.026542 
z
" clip-path="url(#p4c53a4b8fc)" style="fill: #2ca02c; opacity: 0.4"/>
   </g>
   <g id="patch_44">
    <path d="M 185.725301 260.521875 
L 189.780639 260.521875 
L 189.780639 225.811589 
L 185.725301 225.811589 
z
" clip-path="url(#p4c53a4b8fc)" style="fill: #2ca02c; opacity: 0.4"/>
   </g>
   <g id="patch_45">
    <path d="M 189.780639 260.521875 
L 193.835978 260.521875 
L 193.835978 196.886351 
L 189.780639 196.886351 
z
" clip-path="url(#p4c53a4b8fc)" style="fill: #2ca02c; opacity: 0.4"/>
   </g>
   <g id="patch_46">
    <path d="M 193.835978 260.521875 
L 197.891316 260.521875 
L 197.891316 191.101303 
L 193.835978 191.101303 
z
" clip-path="url(#p4c53a4b8fc)" style="fill: #2ca02c; opacity: 0.4"/>
   </g>
   <g id="patch_47">
    <path d="M 197.891316 260.521875 
L 201.946654 260.521875 
L 201.946654 139.035875 
L 197.891316 139.035875 
z
" clip-path="url(#p4c53a4b8fc)" style="fill: #2ca02c; opacity: 0.4"/>
   </g>
   <g id="patch_48">
    <path d="M 201.946654 260.521875 
L 206.001993 260.521875 
L 206.001993 104.325589 
L 201.946654 104.325589 
z
" clip-path="url(#p4c53a4b8fc)" style="fill: #2ca02c; opacity: 0.4"/>
   </g>
   <g id="patch_49">
    <path d="M 206.001993 260.521875 
L 210.057331 260.521875 
L 210.057331 121.680732 
L 206.001993 121.680732 
z
" clip-path="url(#p4c53a4b8fc)" style="fill: #2ca02c; opacity: 0.4"/>
   </g>
   <g id="patch_50">
    <path d="M 210.057331 260.521875 
L 214.11267 260.521875 
L 214.11267 92.755494 
L 210.057331 92.755494 
z
" clip-path="url(#p4c53a4b8fc)" style="fill: #2ca02c; opacity: 0.4"/>
   </g>
   <g id="patch_51">
    <path d="M 214.11267 260.521875 
L 218.168008 260.521875 
L 218.168008 115.895684 
L 214.11267 115.895684 
z
" clip-path="url(#p4c53a4b8fc)" style="fill: #2ca02c; opacity: 0.4"/>
   </g>
   <g id="patch_52">
    <path d="M 218.168008 260.521875 
L 222.223346 260.521875 
L 222.223346 150.60597 
L 218.168008 150.60597 
z
" clip-path="url(#p4c53a4b8fc)" style="fill: #2ca02c; opacity: 0.4"/>
   </g>
   <g id="patch_53">
    <path d="M 222.223346 260.521875 
L 226.278685 260.521875 
L 226.278685 139.035875 
L 222.223346 139.035875 
z
" clip-path="url(#p4c53a4b8fc)" style="fill: #2ca02c; opacity: 0.4"/>
   </g>
   <g id="patch_54">
    <path d="M 226.278685 260.521875 
L 230.334023 260.521875 
L 230.334023 208.456446 
L 226.278685 208.456446 
z
" clip-path="url(#p4c53a4b8fc)" style="fill: #2ca02c; opacity: 0.4"/>
   </g>
   <g id="patch_55">
    <path d="M 230.334023 260.521875 
L 234.389362 260.521875 
L 234.389362 231.596637 
L 230.334023 231.596637 
z
" clip-path="url(#p4c53a4b8fc)" style="fill: #2ca02c; opacity: 0.4"/>
   </g>
   <g id="patch_56">
    <path d="M 234.389362 260.521875 
L 238.4447 260.521875 
L 238.4447 243.166732 
L 234.389362 243.166732 
z
" clip-path="url(#p4c53a4b8fc)" style="fill: #2ca02c; opacity: 0.4"/>
   </g>
   <g id="patch_57">
    <path d="M 238.4447 260.521875 
L 242.500038 260.521875 
L 242.500038 254.736827 
L 238.4447 254.736827 
z
" clip-path="url(#p4c53a4b8fc)" style="fill: #2ca02c; opacity: 0.4"/>
   </g>
   <g id="patch_58">
    <path d="M 242.500038 260.521875 
L 246.555377 260.521875 
L 246.555377 260.521875 
L 242.500038 260.521875 
z
" clip-path="url(#p4c53a4b8fc)" style="fill: #2ca02c; opacity: 0.4"/>
   </g>
   <g id="patch_59">
    <path d="M 246.555377 260.521875 
L 250.610715 260.521875 
L 250.610715 260.521875 
L 246.555377 260.521875 
z
" clip-path="url(#p4c53a4b8fc)" style="fill: #2ca02c; opacity: 0.4"/>
   </g>
   <g id="patch_60">
    <path d="M 250.610715 260.521875 
L 254.666054 260.521875 
L 254.666054 260.521875 
L 250.610715 260.521875 
z
" clip-path="url(#p4c53a4b8fc)" style="fill: #2ca02c; opacity: 0.4"/>
   </g>
   <g id="patch_61">
    <path d="M 254.666054 260.521875 
L 258.721392 260.521875 
L 258.721392 260.521875 
L 254.666054 260.521875 
z
" clip-path="url(#p4c53a4b8fc)" style="fill: #2ca02c; opacity: 0.4"/>
   </g>
   <g id="patch_62">
    <path d="M 258.721392 260.521875 
L 262.77673 260.521875 
L 262.77673 248.95178 
L 258.721392 248.95178 
z
" clip-path="url(#p4c53a4b8fc)" style="fill: #2ca02c; opacity: 0.4"/>
   </g>
   <g id="matplotlib.axis_1">
    <g id="xtick_1">
     <g id="line2d_1">
      <defs>
       <path id="m878b7a1af1" d="M 0 0 
L 0 3.5 
" style="stroke: #000000; stroke-width: 0.8"/>
      </defs>
      <g>
       <use xlink:href="#m878b7a1af1" x="52.444503" y="260.521875" style="stroke: #000000; stroke-width: 0.8"/>
      </g>
     </g>
     <g id="text_1">
      <!-- 0.0 -->
      <g transform="translate(44.49294 275.120313) scale(0.1 -0.1)">
       <defs>
        <path id="DejaVuSans-30" d="M 2034 4250 
Q 1547 4250 1301 3770 
Q 1056 3291 1056 2328 
Q 1056 1369 1301 889 
Q 1547 409 2034 409 
Q 2525 409 2770 889 
Q 3016 1369 3016 2328 
Q 3016 3291 2770 3770 
Q 2525 4250 2034 4250 
z
M 2034 4750 
Q 2819 4750 3233 4129 
Q 3647 3509 3647 2328 
Q 3647 1150 3233 529 
Q 2819 -91 2034 -91 
Q 1250 -91 836 529 
Q 422 1150 422 2328 
Q 422 3509 836 4129 
Q 1250 4750 2034 4750 
z
" transform="scale(0.015625)"/>
        <path id="DejaVuSans-2e" d="M 684 794 
L 1344 794 
L 1344 0 
L 684 0 
L 684 794 
z
" transform="scale(0.015625)"/>
       </defs>
       <use xlink:href="#DejaVuSans-30"/>
       <use xlink:href="#DejaVuSans-2e" x="63.623047"/>
       <use xlink:href="#DejaVuSans-30" x="95.410156"/>
      </g>
     </g>
    </g>
    <g id="xtick_2">
     <g id="line2d_2">
      <g>
       <use xlink:href="#m878b7a1af1" x="95.375014" y="260.521875" style="stroke: #000000; stroke-width: 0.8"/>
      </g>
     </g>
     <g id="text_2">
      <!-- 0.2 -->
      <g transform="translate(87.423452 275.120313) scale(0.1 -0.1)">
       <defs>
        <path id="DejaVuSans-32" d="M 1228 531 
L 3431 531 
L 3431 0 
L 469 0 
L 469 531 
Q 828 903 1448 1529 
Q 2069 2156 2228 2338 
Q 2531 2678 2651 2914 
Q 2772 3150 2772 3378 
Q 2772 3750 2511 3984 
Q 2250 4219 1831 4219 
Q 1534 4219 1204 4116 
Q 875 4013 500 3803 
L 500 4441 
Q 881 4594 1212 4672 
Q 1544 4750 1819 4750 
Q 2544 4750 2975 4387 
Q 3406 4025 3406 3419 
Q 3406 3131 3298 2873 
Q 3191 2616 2906 2266 
Q 2828 2175 2409 1742 
Q 1991 1309 1228 531 
z
" transform="scale(0.015625)"/>
       </defs>
       <use xlink:href="#DejaVuSans-30"/>
       <use xlink:href="#DejaVuSans-2e" x="63.623047"/>
       <use xlink:href="#DejaVuSans-32" x="95.410156"/>
      </g>
     </g>
    </g>
    <g id="xtick_3">
     <g id="line2d_3">
      <g>
       <use xlink:href="#m878b7a1af1" x="138.305526" y="260.521875" style="stroke: #000000; stroke-width: 0.8"/>
      </g>
     </g>
     <g id="text_3">
      <!-- 0.4 -->
      <g transform="translate(130.353963 275.120313) scale(0.1 -0.1)">
       <defs>
        <path id="DejaVuSans-34" d="M 2419 4116 
L 825 1625 
L 2419 1625 
L 2419 4116 
z
M 2253 4666 
L 3047 4666 
L 3047 1625 
L 3713 1625 
L 3713 1100 
L 3047 1100 
L 3047 0 
L 2419 0 
L 2419 1100 
L 313 1100 
L 313 1709 
L 2253 4666 
z
" transform="scale(0.015625)"/>
       </defs>
       <use xlink:href="#DejaVuSans-30"/>
       <use xlink:href="#DejaVuSans-2e" x="63.623047"/>
       <use xlink:href="#DejaVuSans-34" x="95.410156"/>
      </g>
     </g>
    </g>
    <g id="xtick_4">
     <g id="line2d_4">
      <g>
       <use xlink:href="#m878b7a1af1" x="181.236037" y="260.521875" style="stroke: #000000; stroke-width: 0.8"/>
      </g>
     </g>
     <g id="text_4">
      <!-- 0.6 -->
      <g transform="translate(173.284474 275.120313) scale(0.1 -0.1)">
       <defs>
        <path id="DejaVuSans-36" d="M 2113 2584 
Q 1688 2584 1439 2293 
Q 1191 2003 1191 1497 
Q 1191 994 1439 701 
Q 1688 409 2113 409 
Q 2538 409 2786 701 
Q 3034 994 3034 1497 
Q 3034 2003 2786 2293 
Q 2538 2584 2113 2584 
z
M 3366 4563 
L 3366 3988 
Q 3128 4100 2886 4159 
Q 2644 4219 2406 4219 
Q 1781 4219 1451 3797 
Q 1122 3375 1075 2522 
Q 1259 2794 1537 2939 
Q 1816 3084 2150 3084 
Q 2853 3084 3261 2657 
Q 3669 2231 3669 1497 
Q 3669 778 3244 343 
Q 2819 -91 2113 -91 
Q 1303 -91 875 529 
Q 447 1150 447 2328 
Q 447 3434 972 4092 
Q 1497 4750 2381 4750 
Q 2619 4750 2861 4703 
Q 3103 4656 3366 4563 
z
" transform="scale(0.015625)"/>
       </defs>
       <use xlink:href="#DejaVuSans-30"/>
       <use xlink:href="#DejaVuSans-2e" x="63.623047"/>
       <use xlink:href="#DejaVuSans-36" x="95.410156"/>
      </g>
     </g>
    </g>
    <g id="xtick_5">
     <g id="line2d_5">
      <g>
       <use xlink:href="#m878b7a1af1" x="224.166548" y="260.521875" style="stroke: #000000; stroke-width: 0.8"/>
      </g>
     </g>
     <g id="text_5">
      <!-- 0.8 -->
      <g transform="translate(216.214986 275.120313) scale(0.1 -0.1)">
       <defs>
        <path id="DejaVuSans-38" d="M 2034 2216 
Q 1584 2216 1326 1975 
Q 1069 1734 1069 1313 
Q 1069 891 1326 650 
Q 1584 409 2034 409 
Q 2484 409 2743 651 
Q 3003 894 3003 1313 
Q 3003 1734 2745 1975 
Q 2488 2216 2034 2216 
z
M 1403 2484 
Q 997 2584 770 2862 
Q 544 3141 544 3541 
Q 544 4100 942 4425 
Q 1341 4750 2034 4750 
Q 2731 4750 3128 4425 
Q 3525 4100 3525 3541 
Q 3525 3141 3298 2862 
Q 3072 2584 2669 2484 
Q 3125 2378 3379 2068 
Q 3634 1759 3634 1313 
Q 3634 634 3220 271 
Q 2806 -91 2034 -91 
Q 1263 -91 848 271 
Q 434 634 434 1313 
Q 434 1759 690 2068 
Q 947 2378 1403 2484 
z
M 1172 3481 
Q 1172 3119 1398 2916 
Q 1625 2713 2034 2713 
Q 2441 2713 2670 2916 
Q 2900 3119 2900 3481 
Q 2900 3844 2670 4047 
Q 2441 4250 2034 4250 
Q 1625 4250 1398 4047 
Q 1172 3844 1172 3481 
z
" transform="scale(0.015625)"/>
       </defs>
       <use xlink:href="#DejaVuSans-30"/>
       <use xlink:href="#DejaVuSans-2e" x="63.623047"/>
       <use xlink:href="#DejaVuSans-38" x="95.410156"/>
      </g>
     </g>
    </g>
    <g id="xtick_6">
     <g id="line2d_6">
      <g>
       <use xlink:href="#m878b7a1af1" x="267.09706" y="260.521875" style="stroke: #000000; stroke-width: 0.8"/>
      </g>
     </g>
     <g id="text_6">
      <!-- 1.0 -->
      <g transform="translate(259.145497 275.120313) scale(0.1 -0.1)">
       <defs>
        <path id="DejaVuSans-31" d="M 794 531 
L 1825 531 
L 1825 4091 
L 703 3866 
L 703 4441 
L 1819 4666 
L 2450 4666 
L 2450 531 
L 3481 531 
L 3481 0 
L 794 0 
L 794 531 
z
" transform="scale(0.015625)"/>
       </defs>
       <use xlink:href="#DejaVuSans-31"/>
       <use xlink:href="#DejaVuSans-2e" x="63.623047"/>
       <use xlink:href="#DejaVuSans-30" x="95.410156"/>
      </g>
     </g>
    </g>
   </g>
   <g id="matplotlib.axis_2">
    <g id="ytick_1">
     <g id="line2d_7">
      <defs>
       <path id="mbf968f049e" d="M 0 0 
L -3.5 0 
" style="stroke: #000000; stroke-width: 0.8"/>
      </defs>
      <g>
       <use xlink:href="#mbf968f049e" x="41.711875" y="260.521875" style="stroke: #000000; stroke-width: 0.8"/>
      </g>
     </g>
     <g id="text_7">
      <!-- 0 -->
      <g transform="translate(28.349375 264.321094) scale(0.1 -0.1)">
       <use xlink:href="#DejaVuSans-30"/>
      </g>
     </g>
    </g>
    <g id="ytick_2">
     <g id="line2d_8">
      <g>
       <use xlink:href="#mbf968f049e" x="41.711875" y="211.995154" style="stroke: #000000; stroke-width: 0.8"/>
      </g>
     </g>
     <g id="text_8">
      <!-- 2 -->
      <g transform="translate(28.349375 215.794373) scale(0.1 -0.1)">
       <use xlink:href="#DejaVuSans-32"/>
      </g>
     </g>
    </g>
    <g id="ytick_3">
     <g id="line2d_9">
      <g>
       <use xlink:href="#mbf968f049e" x="41.711875" y="163.468434" style="stroke: #000000; stroke-width: 0.8"/>
      </g>
     </g>
     <g id="text_9">
      <!-- 4 -->
      <g transform="translate(28.349375 167.267652) scale(0.1 -0.1)">
       <use xlink:href="#DejaVuSans-34"/>
      </g>
     </g>
    </g>
    <g id="ytick_4">
     <g id="line2d_10">
      <g>
       <use xlink:href="#mbf968f049e" x="41.711875" y="114.941713" style="stroke: #000000; stroke-width: 0.8"/>
      </g>
     </g>
     <g id="text_10">
      <!-- 6 -->
      <g transform="translate(28.349375 118.740932) scale(0.1 -0.1)">
       <use xlink:href="#DejaVuSans-36"/>
      </g>
     </g>
    </g>
    <g id="ytick_5">
     <g id="line2d_11">
      <g>
       <use xlink:href="#mbf968f049e" x="41.711875" y="66.414992" style="stroke: #000000; stroke-width: 0.8"/>
      </g>
     </g>
     <g id="text_11">
      <!-- 8 -->
      <g transform="translate(28.349375 70.214211) scale(0.1 -0.1)">
       <use xlink:href="#DejaVuSans-38"/>
      </g>
     </g>
    </g>
    <g id="text_12">
     <!-- Fraction of cells -->
     <g transform="translate(21.437812 198.051875) rotate(-90) scale(0.14 -0.14)">
      <defs>
       <path id="DejaVuSans-46" d="M 628 4666 
L 3309 4666 
L 3309 4134 
L 1259 4134 
L 1259 2759 
L 3109 2759 
L 3109 2228 
L 1259 2228 
L 1259 0 
L 628 0 
L 628 4666 
z
" transform="scale(0.015625)"/>
       <path id="DejaVuSans-72" d="M 2631 2963 
Q 2534 3019 2420 3045 
Q 2306 3072 2169 3072 
Q 1681 3072 1420 2755 
Q 1159 2438 1159 1844 
L 1159 0 
L 581 0 
L 581 3500 
L 1159 3500 
L 1159 2956 
Q 1341 3275 1631 3429 
Q 1922 3584 2338 3584 
Q 2397 3584 2469 3576 
Q 2541 3569 2628 3553 
L 2631 2963 
z
" transform="scale(0.015625)"/>
       <path id="DejaVuSans-61" d="M 2194 1759 
Q 1497 1759 1228 1600 
Q 959 1441 959 1056 
Q 959 750 1161 570 
Q 1363 391 1709 391 
Q 2188 391 2477 730 
Q 2766 1069 2766 1631 
L 2766 1759 
L 2194 1759 
z
M 3341 1997 
L 3341 0 
L 2766 0 
L 2766 531 
Q 2569 213 2275 61 
Q 1981 -91 1556 -91 
Q 1019 -91 701 211 
Q 384 513 384 1019 
Q 384 1609 779 1909 
Q 1175 2209 1959 2209 
L 2766 2209 
L 2766 2266 
Q 2766 2663 2505 2880 
Q 2244 3097 1772 3097 
Q 1472 3097 1187 3025 
Q 903 2953 641 2809 
L 641 3341 
Q 956 3463 1253 3523 
Q 1550 3584 1831 3584 
Q 2591 3584 2966 3190 
Q 3341 2797 3341 1997 
z
" transform="scale(0.015625)"/>
       <path id="DejaVuSans-63" d="M 3122 3366 
L 3122 2828 
Q 2878 2963 2633 3030 
Q 2388 3097 2138 3097 
Q 1578 3097 1268 2742 
Q 959 2388 959 1747 
Q 959 1106 1268 751 
Q 1578 397 2138 397 
Q 2388 397 2633 464 
Q 2878 531 3122 666 
L 3122 134 
Q 2881 22 2623 -34 
Q 2366 -91 2075 -91 
Q 1284 -91 818 406 
Q 353 903 353 1747 
Q 353 2603 823 3093 
Q 1294 3584 2113 3584 
Q 2378 3584 2631 3529 
Q 2884 3475 3122 3366 
z
" transform="scale(0.015625)"/>
       <path id="DejaVuSans-74" d="M 1172 4494 
L 1172 3500 
L 2356 3500 
L 2356 3053 
L 1172 3053 
L 1172 1153 
Q 1172 725 1289 603 
Q 1406 481 1766 481 
L 2356 481 
L 2356 0 
L 1766 0 
Q 1100 0 847 248 
Q 594 497 594 1153 
L 594 3053 
L 172 3053 
L 172 3500 
L 594 3500 
L 594 4494 
L 1172 4494 
z
" transform="scale(0.015625)"/>
       <path id="DejaVuSans-69" d="M 603 3500 
L 1178 3500 
L 1178 0 
L 603 0 
L 603 3500 
z
M 603 4863 
L 1178 4863 
L 1178 4134 
L 603 4134 
L 603 4863 
z
" transform="scale(0.015625)"/>
       <path id="DejaVuSans-6f" d="M 1959 3097 
Q 1497 3097 1228 2736 
Q 959 2375 959 1747 
Q 959 1119 1226 758 
Q 1494 397 1959 397 
Q 2419 397 2687 759 
Q 2956 1122 2956 1747 
Q 2956 2369 2687 2733 
Q 2419 3097 1959 3097 
z
M 1959 3584 
Q 2709 3584 3137 3096 
Q 3566 2609 3566 1747 
Q 3566 888 3137 398 
Q 2709 -91 1959 -91 
Q 1206 -91 779 398 
Q 353 888 353 1747 
Q 353 2609 779 3096 
Q 1206 3584 1959 3584 
z
" transform="scale(0.015625)"/>
       <path id="DejaVuSans-6e" d="M 3513 2113 
L 3513 0 
L 2938 0 
L 2938 2094 
Q 2938 2591 2744 2837 
Q 2550 3084 2163 3084 
Q 1697 3084 1428 2787 
Q 1159 2491 1159 1978 
L 1159 0 
L 581 0 
L 581 3500 
L 1159 3500 
L 1159 2956 
Q 1366 3272 1645 3428 
Q 1925 3584 2291 3584 
Q 2894 3584 3203 3211 
Q 3513 2838 3513 2113 
z
" transform="scale(0.015625)"/>
       <path id="DejaVuSans-20" transform="scale(0.015625)"/>
       <path id="DejaVuSans-66" d="M 2375 4863 
L 2375 4384 
L 1825 4384 
Q 1516 4384 1395 4259 
Q 1275 4134 1275 3809 
L 1275 3500 
L 2222 3500 
L 2222 3053 
L 1275 3053 
L 1275 0 
L 697 0 
L 697 3053 
L 147 3053 
L 147 3500 
L 697 3500 
L 697 3744 
Q 697 4328 969 4595 
Q 1241 4863 1831 4863 
L 2375 4863 
z
" transform="scale(0.015625)"/>
       <path id="DejaVuSans-65" d="M 3597 1894 
L 3597 1613 
L 953 1613 
Q 991 1019 1311 708 
Q 1631 397 2203 397 
Q 2534 397 2845 478 
Q 3156 559 3463 722 
L 3463 178 
Q 3153 47 2828 -22 
Q 2503 -91 2169 -91 
Q 1331 -91 842 396 
Q 353 884 353 1716 
Q 353 2575 817 3079 
Q 1281 3584 2069 3584 
Q 2775 3584 3186 3129 
Q 3597 2675 3597 1894 
z
M 3022 2063 
Q 3016 2534 2758 2815 
Q 2500 3097 2075 3097 
Q 1594 3097 1305 2825 
Q 1016 2553 972 2059 
L 3022 2063 
z
" transform="scale(0.015625)"/>
       <path id="DejaVuSans-6c" d="M 603 4863 
L 1178 4863 
L 1178 0 
L 603 0 
L 603 4863 
z
" transform="scale(0.015625)"/>
       <path id="DejaVuSans-73" d="M 2834 3397 
L 2834 2853 
Q 2591 2978 2328 3040 
Q 2066 3103 1784 3103 
Q 1356 3103 1142 2972 
Q 928 2841 928 2578 
Q 928 2378 1081 2264 
Q 1234 2150 1697 2047 
L 1894 2003 
Q 2506 1872 2764 1633 
Q 3022 1394 3022 966 
Q 3022 478 2636 193 
Q 2250 -91 1575 -91 
Q 1294 -91 989 -36 
Q 684 19 347 128 
L 347 722 
Q 666 556 975 473 
Q 1284 391 1588 391 
Q 1994 391 2212 530 
Q 2431 669 2431 922 
Q 2431 1156 2273 1281 
Q 2116 1406 1581 1522 
L 1381 1569 
Q 847 1681 609 1914 
Q 372 2147 372 2553 
Q 372 3047 722 3315 
Q 1072 3584 1716 3584 
Q 2034 3584 2315 3537 
Q 2597 3491 2834 3397 
z
" transform="scale(0.015625)"/>
      </defs>
      <use xlink:href="#DejaVuSans-46"/>
      <use xlink:href="#DejaVuSans-72" x="50.269531"/>
      <use xlink:href="#DejaVuSans-61" x="91.382812"/>
      <use xlink:href="#DejaVuSans-63" x="152.662109"/>
      <use xlink:href="#DejaVuSans-74" x="207.642578"/>
      <use xlink:href="#DejaVuSans-69" x="246.851562"/>
      <use xlink:href="#DejaVuSans-6f" x="274.634766"/>
      <use xlink:href="#DejaVuSans-6e" x="335.816406"/>
      <use xlink:href="#DejaVuSans-20" x="399.195312"/>
      <use xlink:href="#DejaVuSans-6f" x="430.982422"/>
      <use xlink:href="#DejaVuSans-66" x="492.164062"/>
      <use xlink:href="#DejaVuSans-20" x="527.369141"/>
      <use xlink:href="#DejaVuSans-63" x="559.15625"/>
      <use xlink:href="#DejaVuSans-65" x="614.136719"/>
      <use xlink:href="#DejaVuSans-6c" x="675.660156"/>
      <use xlink:href="#DejaVuSans-6c" x="703.443359"/>
      <use xlink:href="#DejaVuSans-73" x="731.226562"/>
     </g>
    </g>
   </g>
   <g id="line2d_12">
    <path d="M 52.444503 260.521875 
L 170.562468 260.417634 
L 172.495308 260.172282 
L 173.998627 259.754529 
L 175.287187 259.167634 
L 176.683126 258.269408 
L 178.401206 256.867703 
L 183.340684 252.390741 
L 184.414484 251.086192 
L 185.380904 249.567646 
L 186.347323 247.617749 
L 187.313743 245.171555 
L 188.387543 241.84268 
L 189.568722 237.445049 
L 190.857282 231.768715 
L 192.145842 225.081619 
L 193.434401 217.170027 
L 194.722961 207.810408 
L 196.118901 196.01036 
L 198.37388 174.628087 
L 200.521479 154.968785 
L 201.917419 144.153377 
L 203.205978 135.908286 
L 204.387158 129.757016 
L 205.568338 124.812443 
L 206.642137 121.26248 
L 207.608557 118.772522 
L 208.574977 116.879469 
L 209.541397 115.474828 
L 210.722576 114.185085 
L 212.762796 112.03679 
L 213.836595 110.48672 
L 215.017775 108.342622 
L 217.057994 104.531125 
L 217.702274 103.761124 
L 218.239174 103.460488 
L 218.668694 103.50432 
L 219.098214 103.844276 
L 219.527734 104.51508 
L 220.064634 105.860674 
L 220.708913 108.264237 
L 221.460573 112.174927 
L 222.319613 118.027745 
L 223.393413 127.084622 
L 225.004112 142.926187 
L 228.010751 172.712479 
L 229.621451 186.330868 
L 231.12477 197.258937 
L 232.73547 207.412568 
L 234.775689 218.799741 
L 237.138048 230.76333 
L 238.856128 238.449572 
L 240.252068 243.724043 
L 241.433247 247.385024 
L 242.507047 250.075001 
L 243.580847 252.207054 
L 244.654646 253.85042 
L 245.728446 255.078567 
L 246.802246 255.965312 
L 247.983425 256.639551 
L 249.486745 257.214048 
L 254.318843 258.875674 
L 257.003343 259.805035 
L 258.828802 260.200792 
L 260.976401 260.425353 
L 264.30518 260.513293 
L 267.09706 260.521208 
L 267.09706 260.521208 
" clip-path="url(#p4c53a4b8fc)" style="fill: none; stroke: #1f77b4; stroke-width: 1.5; stroke-linecap: square"/>
   </g>
   <g id="line2d_13">
    <path d="M 52.444503 260.521875 
L 176.683126 260.413707 
L 179.045486 260.157113 
L 180.763565 259.755009 
L 182.266885 259.170241 
L 183.555444 258.432667 
L 184.736624 257.502499 
L 185.810424 256.37773 
L 186.776843 255.065415 
L 187.743263 253.382196 
L 188.709683 251.223564 
L 189.676102 248.46833 
L 190.642522 244.986623 
L 191.608942 240.652004 
L 192.682742 234.705637 
L 193.756541 227.48016 
L 194.937721 218.044508 
L 196.33366 205.072766 
L 198.2665 184.803504 
L 202.776459 136.799126 
L 204.924058 116.689464 
L 206.642137 102.483217 
L 207.930697 93.607634 
L 208.897117 88.464923 
L 209.648777 85.618761 
L 210.185676 84.295519 
L 210.615196 83.695587 
L 210.937336 83.523479 
L 211.259476 83.594237 
L 211.581616 83.909922 
L 212.011136 84.711509 
L 212.548036 86.316059 
L 213.192316 89.09017 
L 213.943975 93.405222 
L 214.910395 100.417452 
L 216.198955 111.66368 
L 221.353193 158.913834 
L 222.641753 167.737536 
L 223.822932 174.410037 
L 225.004112 179.891559 
L 226.185292 184.377073 
L 227.366471 188.018048 
L 228.440271 190.670913 
L 229.514071 192.75267 
L 230.58787 194.354209 
L 232.09119 196.128779 
L 233.48713 197.869823 
L 234.453549 199.481301 
L 235.312589 201.356794 
L 236.279009 204.049047 
L 237.352808 207.760585 
L 238.748748 213.509318 
L 244.332506 237.695951 
L 245.621066 241.84698 
L 246.802246 244.915444 
L 247.876045 247.107474 
L 248.949845 248.796025 
L 250.023645 250.08057 
L 251.204824 251.15975 
L 252.708144 252.21994 
L 254.533603 253.236081 
L 256.681203 254.174114 
L 260.869021 255.904928 
L 263.016621 257.136587 
L 266.23802 258.998899 
L 267.09706 259.382346 
L 267.09706 259.382346 
" clip-path="url(#p4c53a4b8fc)" style="fill: none; stroke: #ff7f0e; stroke-width: 1.5; stroke-linecap: square"/>
   </g>
   <g id="line2d_14">
    <path d="M 52.444503 260.521875 
L 169.166528 260.413735 
L 170.991988 260.177666 
L 172.280548 259.809242 
L 173.354347 259.28505 
L 174.320767 258.573399 
L 175.287187 257.567925 
L 176.253606 256.20709 
L 177.220026 254.441069 
L 178.293826 251.969159 
L 179.475005 248.633579 
L 180.870945 243.950236 
L 182.696405 236.949423 
L 187.206363 218.342014 
L 191.072042 201.974201 
L 192.897501 193.253959 
L 194.615581 183.942281 
L 196.54842 172.127891 
L 200.091959 148.625913 
L 202.669079 132.318176 
L 204.387158 122.712656 
L 205.783098 116.071996 
L 206.964277 111.523267 
L 207.930697 108.671974 
L 208.682357 107.058455 
L 209.326637 106.125024 
L 209.863537 105.676869 
L 210.400436 105.535513 
L 210.829956 105.645772 
L 211.366856 106.063144 
L 211.903756 106.788168 
L 212.548036 108.053916 
L 213.299695 110.048682 
L 214.266115 113.353031 
L 215.447295 118.315068 
L 217.165374 126.685358 
L 222.856513 156.297033 
L 224.467212 165.966753 
L 226.077912 177.066378 
L 228.225511 193.619971 
L 231.01739 214.890417 
L 232.52071 224.672667 
L 233.809269 231.730431 
L 235.097829 237.563057 
L 236.279009 241.946345 
L 237.460188 245.557576 
L 238.748748 248.788792 
L 240.037308 251.436962 
L 241.433247 253.783924 
L 242.829187 255.680945 
L 244.117746 257.080742 
L 245.406306 258.170408 
L 246.694866 258.971059 
L 247.983425 259.504769 
L 249.271985 259.794756 
L 250.560545 259.862421 
L 251.956484 259.705912 
L 253.459804 259.298078 
L 255.285263 258.546149 
L 258.936182 256.96933 
L 260.224742 256.696617 
L 261.405921 256.671486 
L 262.587101 256.866835 
L 263.983041 257.336331 
L 266.23802 258.382704 
L 267.09706 258.787712 
L 267.09706 258.787712 
" clip-path="url(#p4c53a4b8fc)" style="fill: none; stroke: #2ca02c; stroke-width: 1.5; stroke-linecap: square"/>
   </g>
   <g id="patch_63">
    <path d="M 41.711875 260.521875 
L 41.711875 25.918125 
" style="fill: none; stroke: #000000; stroke-width: 0.8; stroke-linejoin: miter; stroke-linecap: square"/>
   </g>
   <g id="patch_64">
    <path d="M 277.829687 260.521875 
L 277.829687 25.918125 
" style="fill: none; stroke: #000000; stroke-width: 0.8; stroke-linejoin: miter; stroke-linecap: square"/>
   </g>
   <g id="patch_65">
    <path d="M 41.711875 260.521875 
L 277.829687 260.521875 
" style="fill: none; stroke: #000000; stroke-width: 0.8; stroke-linejoin: miter; stroke-linecap: square"/>
   </g>
   <g id="patch_66">
    <path d="M 41.711875 25.918125 
L 277.829687 25.918125 
" style="fill: none; stroke: #000000; stroke-width: 0.8; stroke-linejoin: miter; stroke-linecap: square"/>
   </g>
   <g id="text_13">
    <!-- SRV -->
    <g transform="translate(148.018281 19.918125) scale(0.12 -0.12)">
     <defs>
      <path id="DejaVuSans-53" d="M 3425 4513 
L 3425 3897 
Q 3066 4069 2747 4153 
Q 2428 4238 2131 4238 
Q 1616 4238 1336 4038 
Q 1056 3838 1056 3469 
Q 1056 3159 1242 3001 
Q 1428 2844 1947 2747 
L 2328 2669 
Q 3034 2534 3370 2195 
Q 3706 1856 3706 1288 
Q 3706 609 3251 259 
Q 2797 -91 1919 -91 
Q 1588 -91 1214 -16 
Q 841 59 441 206 
L 441 856 
Q 825 641 1194 531 
Q 1563 422 1919 422 
Q 2459 422 2753 634 
Q 3047 847 3047 1241 
Q 3047 1584 2836 1778 
Q 2625 1972 2144 2069 
L 1759 2144 
Q 1053 2284 737 2584 
Q 422 2884 422 3419 
Q 422 4038 858 4394 
Q 1294 4750 2059 4750 
Q 2388 4750 2728 4690 
Q 3069 4631 3425 4513 
z
" transform="scale(0.015625)"/>
      <path id="DejaVuSans-52" d="M 2841 2188 
Q 3044 2119 3236 1894 
Q 3428 1669 3622 1275 
L 4263 0 
L 3584 0 
L 2988 1197 
Q 2756 1666 2539 1819 
Q 2322 1972 1947 1972 
L 1259 1972 
L 1259 0 
L 628 0 
L 628 4666 
L 2053 4666 
Q 2853 4666 3247 4331 
Q 3641 3997 3641 3322 
Q 3641 2881 3436 2590 
Q 3231 2300 2841 2188 
z
M 1259 4147 
L 1259 2491 
L 2053 2491 
Q 2509 2491 2742 2702 
Q 2975 2913 2975 3322 
Q 2975 3731 2742 3939 
Q 2509 4147 2053 4147 
L 1259 4147 
z
" transform="scale(0.015625)"/>
      <path id="DejaVuSans-56" d="M 1831 0 
L 50 4666 
L 709 4666 
L 2188 738 
L 3669 4666 
L 4325 4666 
L 2547 0 
L 1831 0 
z
" transform="scale(0.015625)"/>
     </defs>
     <use xlink:href="#DejaVuSans-53"/>
     <use xlink:href="#DejaVuSans-52" x="63.476562"/>
     <use xlink:href="#DejaVuSans-56" x="127.458984"/>
    </g>
   </g>
   <g id="legend_1">
    <g id="patch_67">
     <path d="M 50.111875 88.693125 
L 169.59625 88.693125 
Q 171.99625 88.693125 171.99625 86.293125 
L 171.99625 34.318125 
Q 171.99625 31.918125 169.59625 31.918125 
L 50.111875 31.918125 
Q 47.711875 31.918125 47.711875 34.318125 
L 47.711875 86.293125 
Q 47.711875 88.693125 50.111875 88.693125 
z
" style="fill: #ffffff; opacity: 0.8; stroke: #cccccc; stroke-linejoin: miter"/>
    </g>
    <g id="patch_68">
     <path d="M 52.511875 45.83625 
L 76.511875 45.83625 
L 76.511875 37.43625 
L 52.511875 37.43625 
z
" style="fill: #1f77b4; opacity: 0.4"/>
    </g>
    <g id="text_14">
     <!-- MCF10A -->
     <g transform="translate(86.111875 45.83625) scale(0.12 -0.12)">
      <defs>
       <path id="DejaVuSans-4d" d="M 628 4666 
L 1569 4666 
L 2759 1491 
L 3956 4666 
L 4897 4666 
L 4897 0 
L 4281 0 
L 4281 4097 
L 3078 897 
L 2444 897 
L 1241 4097 
L 1241 0 
L 628 0 
L 628 4666 
z
" transform="scale(0.015625)"/>
       <path id="DejaVuSans-43" d="M 4122 4306 
L 4122 3641 
Q 3803 3938 3442 4084 
Q 3081 4231 2675 4231 
Q 1875 4231 1450 3742 
Q 1025 3253 1025 2328 
Q 1025 1406 1450 917 
Q 1875 428 2675 428 
Q 3081 428 3442 575 
Q 3803 722 4122 1019 
L 4122 359 
Q 3791 134 3420 21 
Q 3050 -91 2638 -91 
Q 1578 -91 968 557 
Q 359 1206 359 2328 
Q 359 3453 968 4101 
Q 1578 4750 2638 4750 
Q 3056 4750 3426 4639 
Q 3797 4528 4122 4306 
z
" transform="scale(0.015625)"/>
       <path id="DejaVuSans-41" d="M 2188 4044 
L 1331 1722 
L 3047 1722 
L 2188 4044 
z
M 1831 4666 
L 2547 4666 
L 4325 0 
L 3669 0 
L 3244 1197 
L 1141 1197 
L 716 0 
L 50 0 
L 1831 4666 
z
" transform="scale(0.015625)"/>
      </defs>
      <use xlink:href="#DejaVuSans-4d"/>
      <use xlink:href="#DejaVuSans-43" x="86.279297"/>
      <use xlink:href="#DejaVuSans-46" x="156.103516"/>
      <use xlink:href="#DejaVuSans-31" x="213.623047"/>
      <use xlink:href="#DejaVuSans-30" x="277.246094"/>
      <use xlink:href="#DejaVuSans-41" x="340.869141"/>
     </g>
    </g>
    <g id="patch_69">
     <path d="M 52.511875 63.45 
L 76.511875 63.45 
L 76.511875 55.05 
L 52.511875 55.05 
z
" style="fill: #ff7f0e; opacity: 0.4"/>
    </g>
    <g id="text_15">
     <!-- MCF7 -->
     <g transform="translate(86.111875 63.45) scale(0.12 -0.12)">
      <defs>
       <path id="DejaVuSans-37" d="M 525 4666 
L 3525 4666 
L 3525 4397 
L 1831 0 
L 1172 0 
L 2766 4134 
L 525 4134 
L 525 4666 
z
" transform="scale(0.015625)"/>
      </defs>
      <use xlink:href="#DejaVuSans-4d"/>
      <use xlink:href="#DejaVuSans-43" x="86.279297"/>
      <use xlink:href="#DejaVuSans-46" x="156.103516"/>
      <use xlink:href="#DejaVuSans-37" x="213.623047"/>
     </g>
    </g>
    <g id="patch_70">
     <path d="M 52.511875 81.06375 
L 76.511875 81.06375 
L 76.511875 72.66375 
L 52.511875 72.66375 
z
" style="fill: #2ca02c; opacity: 0.4"/>
    </g>
    <g id="text_16">
     <!-- MDA_MB_231 -->
     <g transform="translate(86.111875 81.06375) scale(0.12 -0.12)">
      <defs>
       <path id="DejaVuSans-44" d="M 1259 4147 
L 1259 519 
L 2022 519 
Q 2988 519 3436 956 
Q 3884 1394 3884 2338 
Q 3884 3275 3436 3711 
Q 2988 4147 2022 4147 
L 1259 4147 
z
M 628 4666 
L 1925 4666 
Q 3281 4666 3915 4102 
Q 4550 3538 4550 2338 
Q 4550 1131 3912 565 
Q 3275 0 1925 0 
L 628 0 
L 628 4666 
z
" transform="scale(0.015625)"/>
       <path id="DejaVuSans-5f" d="M 3263 -1063 
L 3263 -1509 
L -63 -1509 
L -63 -1063 
L 3263 -1063 
z
" transform="scale(0.015625)"/>
       <path id="DejaVuSans-42" d="M 1259 2228 
L 1259 519 
L 2272 519 
Q 2781 519 3026 730 
Q 3272 941 3272 1375 
Q 3272 1813 3026 2020 
Q 2781 2228 2272 2228 
L 1259 2228 
z
M 1259 4147 
L 1259 2741 
L 2194 2741 
Q 2656 2741 2882 2914 
Q 3109 3088 3109 3444 
Q 3109 3797 2882 3972 
Q 2656 4147 2194 4147 
L 1259 4147 
z
M 628 4666 
L 2241 4666 
Q 2963 4666 3353 4366 
Q 3744 4066 3744 3513 
Q 3744 3084 3544 2831 
Q 3344 2578 2956 2516 
Q 3422 2416 3680 2098 
Q 3938 1781 3938 1306 
Q 3938 681 3513 340 
Q 3088 0 2303 0 
L 628 0 
L 628 4666 
z
" transform="scale(0.015625)"/>
       <path id="DejaVuSans-33" d="M 2597 2516 
Q 3050 2419 3304 2112 
Q 3559 1806 3559 1356 
Q 3559 666 3084 287 
Q 2609 -91 1734 -91 
Q 1441 -91 1130 -33 
Q 819 25 488 141 
L 488 750 
Q 750 597 1062 519 
Q 1375 441 1716 441 
Q 2309 441 2620 675 
Q 2931 909 2931 1356 
Q 2931 1769 2642 2001 
Q 2353 2234 1838 2234 
L 1294 2234 
L 1294 2753 
L 1863 2753 
Q 2328 2753 2575 2939 
Q 2822 3125 2822 3475 
Q 2822 3834 2567 4026 
Q 2313 4219 1838 4219 
Q 1578 4219 1281 4162 
Q 984 4106 628 3988 
L 628 4550 
Q 988 4650 1302 4700 
Q 1616 4750 1894 4750 
Q 2613 4750 3031 4423 
Q 3450 4097 3450 3541 
Q 3450 3153 3228 2886 
Q 3006 2619 2597 2516 
z
" transform="scale(0.015625)"/>
      </defs>
      <use xlink:href="#DejaVuSans-4d"/>
      <use xlink:href="#DejaVuSans-44" x="86.279297"/>
      <use xlink:href="#DejaVuSans-41" x="161.53125"/>
      <use xlink:href="#DejaVuSans-5f" x="229.939453"/>
      <use xlink:href="#DejaVuSans-4d" x="279.939453"/>
      <use xlink:href="#DejaVuSans-42" x="366.21875"/>
      <use xlink:href="#DejaVuSans-5f" x="434.822266"/>
      <use xlink:href="#DejaVuSans-32" x="484.822266"/>
      <use xlink:href="#DejaVuSans-33" x="548.445312"/>
      <use xlink:href="#DejaVuSans-31" x="612.068359"/>
     </g>
    </g>
   </g>
  </g>
  <g id="axes_2">
   <g id="patch_71">
    <path d="M 329.082187 260.521875 
L 565.2 260.521875 
L 565.2 25.918125 
L 329.082187 25.918125 
z
" style="fill: #ffffff"/>
   </g>
   <g id="patch_72">
    <path d="M 347.890919 260.521875 
L 357.871839 260.521875 
L 357.871839 251.624035 
L 347.890919 251.624035 
z
" clip-path="url(#p8216da1904)" style="fill: #1f77b4; opacity: 0.4"/>
   </g>
   <g id="patch_73">
    <path d="M 357.871839 260.521875 
L 367.852758 260.521875 
L 367.852758 247.175115 
L 357.871839 247.175115 
z
" clip-path="url(#p8216da1904)" style="fill: #1f77b4; opacity: 0.4"/>
   </g>
   <g id="patch_74">
    <path d="M 367.852758 260.521875 
L 377.833678 260.521875 
L 377.833678 247.175115 
L 367.852758 247.175115 
z
" clip-path="url(#p8216da1904)" style="fill: #1f77b4; opacity: 0.4"/>
   </g>
   <g id="patch_75">
    <path d="M 377.833678 260.521875 
L 387.814598 260.521875 
L 387.814598 224.930515 
L 377.833678 224.930515 
z
" clip-path="url(#p8216da1904)" style="fill: #1f77b4; opacity: 0.4"/>
   </g>
   <g id="patch_76">
    <path d="M 387.814598 260.521875 
L 397.795517 260.521875 
L 397.795517 189.339154 
L 387.814598 189.339154 
z
" clip-path="url(#p8216da1904)" style="fill: #1f77b4; opacity: 0.4"/>
   </g>
   <g id="patch_77">
    <path d="M 397.795517 260.521875 
L 407.776437 260.521875 
L 407.776437 135.952114 
L 397.795517 135.952114 
z
" clip-path="url(#p8216da1904)" style="fill: #1f77b4; opacity: 0.4"/>
   </g>
   <g id="patch_78">
    <path d="M 407.776437 260.521875 
L 417.757356 260.521875 
L 417.757356 149.298874 
L 407.776437 149.298874 
z
" clip-path="url(#p8216da1904)" style="fill: #1f77b4; opacity: 0.4"/>
   </g>
   <g id="patch_79">
    <path d="M 417.757356 260.521875 
L 427.738276 260.521875 
L 427.738276 171.543474 
L 417.757356 171.543474 
z
" clip-path="url(#p8216da1904)" style="fill: #1f77b4; opacity: 0.4"/>
   </g>
   <g id="patch_80">
    <path d="M 427.738276 260.521875 
L 437.719196 260.521875 
L 437.719196 131.503194 
L 427.738276 131.503194 
z
" clip-path="url(#p8216da1904)" style="fill: #1f77b4; opacity: 0.4"/>
   </g>
   <g id="patch_81">
    <path d="M 437.719196 260.521875 
L 447.700115 260.521875 
L 447.700115 162.645634 
L 437.719196 162.645634 
z
" clip-path="url(#p8216da1904)" style="fill: #1f77b4; opacity: 0.4"/>
   </g>
   <g id="patch_82">
    <path d="M 447.700115 260.521875 
L 457.681035 260.521875 
L 457.681035 167.094554 
L 447.700115 167.094554 
z
" clip-path="url(#p8216da1904)" style="fill: #1f77b4; opacity: 0.4"/>
   </g>
   <g id="patch_83">
    <path d="M 457.681035 260.521875 
L 467.661954 260.521875 
L 467.661954 175.992394 
L 457.681035 175.992394 
z
" clip-path="url(#p8216da1904)" style="fill: #1f77b4; opacity: 0.4"/>
   </g>
   <g id="patch_84">
    <path d="M 467.661954 260.521875 
L 477.642874 260.521875 
L 477.642874 193.788074 
L 467.661954 193.788074 
z
" clip-path="url(#p8216da1904)" style="fill: #1f77b4; opacity: 0.4"/>
   </g>
   <g id="patch_85">
    <path d="M 477.642874 260.521875 
L 487.623794 260.521875 
L 487.623794 229.379435 
L 477.642874 229.379435 
z
" clip-path="url(#p8216da1904)" style="fill: #1f77b4; opacity: 0.4"/>
   </g>
   <g id="patch_86">
    <path d="M 487.623794 260.521875 
L 497.604713 260.521875 
L 497.604713 238.277275 
L 487.623794 238.277275 
z
" clip-path="url(#p8216da1904)" style="fill: #1f77b4; opacity: 0.4"/>
   </g>
   <g id="patch_87">
    <path d="M 497.604713 260.521875 
L 507.585633 260.521875 
L 507.585633 251.624035 
L 497.604713 251.624035 
z
" clip-path="url(#p8216da1904)" style="fill: #1f77b4; opacity: 0.4"/>
   </g>
   <g id="patch_88">
    <path d="M 507.585633 260.521875 
L 517.566552 260.521875 
L 517.566552 256.072955 
L 507.585633 256.072955 
z
" clip-path="url(#p8216da1904)" style="fill: #1f77b4; opacity: 0.4"/>
   </g>
   <g id="patch_89">
    <path d="M 517.566552 260.521875 
L 527.547472 260.521875 
L 527.547472 260.521875 
L 517.566552 260.521875 
z
" clip-path="url(#p8216da1904)" style="fill: #1f77b4; opacity: 0.4"/>
   </g>
   <g id="patch_90">
    <path d="M 527.547472 260.521875 
L 537.528391 260.521875 
L 537.528391 260.521875 
L 527.547472 260.521875 
z
" clip-path="url(#p8216da1904)" style="fill: #1f77b4; opacity: 0.4"/>
   </g>
   <g id="patch_91">
    <path d="M 537.528391 260.521875 
L 547.509311 260.521875 
L 547.509311 256.072955 
L 537.528391 256.072955 
z
" clip-path="url(#p8216da1904)" style="fill: #1f77b4; opacity: 0.4"/>
   </g>
   <g id="patch_92">
    <path d="M 358.436809 260.521875 
L 364.881577 260.521875 
L 364.881577 232.592857 
L 358.436809 232.592857 
z
" clip-path="url(#p8216da1904)" style="fill: #ff7f0e; opacity: 0.4"/>
   </g>
   <g id="patch_93">
    <path d="M 364.881577 260.521875 
L 371.326346 260.521875 
L 371.326346 253.539621 
L 364.881577 253.539621 
z
" clip-path="url(#p8216da1904)" style="fill: #ff7f0e; opacity: 0.4"/>
   </g>
   <g id="patch_94">
    <path d="M 371.326346 260.521875 
L 377.771114 260.521875 
L 377.771114 204.663839 
L 371.326346 204.663839 
z
" clip-path="url(#p8216da1904)" style="fill: #ff7f0e; opacity: 0.4"/>
   </g>
   <g id="patch_95">
    <path d="M 377.771114 260.521875 
L 384.215883 260.521875 
L 384.215883 218.628348 
L 377.771114 218.628348 
z
" clip-path="url(#p8216da1904)" style="fill: #ff7f0e; opacity: 0.4"/>
   </g>
   <g id="patch_96">
    <path d="M 384.215883 260.521875 
L 390.660651 260.521875 
L 390.660651 176.734821 
L 384.215883 176.734821 
z
" clip-path="url(#p8216da1904)" style="fill: #ff7f0e; opacity: 0.4"/>
   </g>
   <g id="patch_97">
    <path d="M 390.660651 260.521875 
L 397.10542 260.521875 
L 397.10542 169.752567 
L 390.660651 169.752567 
z
" clip-path="url(#p8216da1904)" style="fill: #ff7f0e; opacity: 0.4"/>
   </g>
   <g id="patch_98">
    <path d="M 397.10542 260.521875 
L 403.550189 260.521875 
L 403.550189 148.805804 
L 397.10542 148.805804 
z
" clip-path="url(#p8216da1904)" style="fill: #ff7f0e; opacity: 0.4"/>
   </g>
   <g id="patch_99">
    <path d="M 403.550189 260.521875 
L 409.994957 260.521875 
L 409.994957 106.912277 
L 403.550189 106.912277 
z
" clip-path="url(#p8216da1904)" style="fill: #ff7f0e; opacity: 0.4"/>
   </g>
   <g id="patch_100">
    <path d="M 409.994957 260.521875 
L 416.439726 260.521875 
L 416.439726 120.876786 
L 409.994957 120.876786 
z
" clip-path="url(#p8216da1904)" style="fill: #ff7f0e; opacity: 0.4"/>
   </g>
   <g id="patch_101">
    <path d="M 416.439726 260.521875 
L 422.884494 260.521875 
L 422.884494 37.089732 
L 416.439726 37.089732 
z
" clip-path="url(#p8216da1904)" style="fill: #ff7f0e; opacity: 0.4"/>
   </g>
   <g id="patch_102">
    <path d="M 422.884494 260.521875 
L 429.329263 260.521875 
L 429.329263 99.930022 
L 422.884494 99.930022 
z
" clip-path="url(#p8216da1904)" style="fill: #ff7f0e; opacity: 0.4"/>
   </g>
   <g id="patch_103">
    <path d="M 429.329263 260.521875 
L 435.774031 260.521875 
L 435.774031 106.912277 
L 429.329263 106.912277 
z
" clip-path="url(#p8216da1904)" style="fill: #ff7f0e; opacity: 0.4"/>
   </g>
   <g id="patch_104">
    <path d="M 435.774031 260.521875 
L 442.2188 260.521875 
L 442.2188 176.734821 
L 435.774031 176.734821 
z
" clip-path="url(#p8216da1904)" style="fill: #ff7f0e; opacity: 0.4"/>
   </g>
   <g id="patch_105">
    <path d="M 442.2188 260.521875 
L 448.663568 260.521875 
L 448.663568 176.734821 
L 442.2188 176.734821 
z
" clip-path="url(#p8216da1904)" style="fill: #ff7f0e; opacity: 0.4"/>
   </g>
   <g id="patch_106">
    <path d="M 448.663568 260.521875 
L 455.108337 260.521875 
L 455.108337 225.610603 
L 448.663568 225.610603 
z
" clip-path="url(#p8216da1904)" style="fill: #ff7f0e; opacity: 0.4"/>
   </g>
   <g id="patch_107">
    <path d="M 455.108337 260.521875 
L 461.553105 260.521875 
L 461.553105 204.663839 
L 455.108337 204.663839 
z
" clip-path="url(#p8216da1904)" style="fill: #ff7f0e; opacity: 0.4"/>
   </g>
   <g id="patch_108">
    <path d="M 461.553105 260.521875 
L 467.997874 260.521875 
L 467.997874 246.557366 
L 461.553105 246.557366 
z
" clip-path="url(#p8216da1904)" style="fill: #ff7f0e; opacity: 0.4"/>
   </g>
   <g id="patch_109">
    <path d="M 467.997874 260.521875 
L 474.442642 260.521875 
L 474.442642 246.557366 
L 467.997874 246.557366 
z
" clip-path="url(#p8216da1904)" style="fill: #ff7f0e; opacity: 0.4"/>
   </g>
   <g id="patch_110">
    <path d="M 474.442642 260.521875 
L 480.887411 260.521875 
L 480.887411 239.575112 
L 474.442642 239.575112 
z
" clip-path="url(#p8216da1904)" style="fill: #ff7f0e; opacity: 0.4"/>
   </g>
   <g id="patch_111">
    <path d="M 480.887411 260.521875 
L 487.332179 260.521875 
L 487.332179 253.539621 
L 480.887411 253.539621 
z
" clip-path="url(#p8216da1904)" style="fill: #ff7f0e; opacity: 0.4"/>
   </g>
   <g id="patch_112">
    <path d="M 351.168801 260.521875 
L 359.857182 260.521875 
L 359.857182 244.844244 
L 351.168801 244.844244 
z
" clip-path="url(#p8216da1904)" style="fill: #2ca02c; opacity: 0.4"/>
   </g>
   <g id="patch_113">
    <path d="M 359.857182 260.521875 
L 368.545564 260.521875 
L 368.545564 250.070121 
L 359.857182 250.070121 
z
" clip-path="url(#p8216da1904)" style="fill: #2ca02c; opacity: 0.4"/>
   </g>
   <g id="patch_114">
    <path d="M 368.545564 260.521875 
L 377.233945 260.521875 
L 377.233945 244.844244 
L 368.545564 244.844244 
z
" clip-path="url(#p8216da1904)" style="fill: #2ca02c; opacity: 0.4"/>
   </g>
   <g id="patch_115">
    <path d="M 377.233945 260.521875 
L 385.922326 260.521875 
L 385.922326 234.392491 
L 377.233945 234.392491 
z
" clip-path="url(#p8216da1904)" style="fill: #2ca02c; opacity: 0.4"/>
   </g>
   <g id="patch_116">
    <path d="M 385.922326 260.521875 
L 394.610707 260.521875 
L 394.610707 192.585475 
L 385.922326 192.585475 
z
" clip-path="url(#p8216da1904)" style="fill: #2ca02c; opacity: 0.4"/>
   </g>
   <g id="patch_117">
    <path d="M 394.610707 260.521875 
L 403.299088 260.521875 
L 403.299088 182.133722 
L 394.610707 182.133722 
z
" clip-path="url(#p8216da1904)" style="fill: #2ca02c; opacity: 0.4"/>
   </g>
   <g id="patch_118">
    <path d="M 403.299088 260.521875 
L 411.987469 260.521875 
L 411.987469 182.133722 
L 403.299088 182.133722 
z
" clip-path="url(#p8216da1904)" style="fill: #2ca02c; opacity: 0.4"/>
   </g>
   <g id="patch_119">
    <path d="M 411.987469 260.521875 
L 420.67585 260.521875 
L 420.67585 150.77846 
L 411.987469 150.77846 
z
" clip-path="url(#p8216da1904)" style="fill: #2ca02c; opacity: 0.4"/>
   </g>
   <g id="patch_120">
    <path d="M 420.67585 260.521875 
L 429.364232 260.521875 
L 429.364232 150.77846 
L 420.67585 150.77846 
z
" clip-path="url(#p8216da1904)" style="fill: #2ca02c; opacity: 0.4"/>
   </g>
   <g id="patch_121">
    <path d="M 429.364232 260.521875 
L 438.052613 260.521875 
L 438.052613 129.874953 
L 429.364232 129.874953 
z
" clip-path="url(#p8216da1904)" style="fill: #2ca02c; opacity: 0.4"/>
   </g>
   <g id="patch_122">
    <path d="M 438.052613 260.521875 
L 446.740994 260.521875 
L 446.740994 187.359599 
L 438.052613 187.359599 
z
" clip-path="url(#p8216da1904)" style="fill: #2ca02c; opacity: 0.4"/>
   </g>
   <g id="patch_123">
    <path d="M 446.740994 260.521875 
L 455.429375 260.521875 
L 455.429375 197.811352 
L 446.740994 197.811352 
z
" clip-path="url(#p8216da1904)" style="fill: #2ca02c; opacity: 0.4"/>
   </g>
   <g id="patch_124">
    <path d="M 455.429375 260.521875 
L 464.117756 260.521875 
L 464.117756 150.77846 
L 455.429375 150.77846 
z
" clip-path="url(#p8216da1904)" style="fill: #2ca02c; opacity: 0.4"/>
   </g>
   <g id="patch_125">
    <path d="M 464.117756 260.521875 
L 472.806137 260.521875 
L 472.806137 208.263106 
L 464.117756 208.263106 
z
" clip-path="url(#p8216da1904)" style="fill: #2ca02c; opacity: 0.4"/>
   </g>
   <g id="patch_126">
    <path d="M 472.806137 260.521875 
L 481.494519 260.521875 
L 481.494519 182.133722 
L 472.806137 182.133722 
z
" clip-path="url(#p8216da1904)" style="fill: #2ca02c; opacity: 0.4"/>
   </g>
   <g id="patch_127">
    <path d="M 481.494519 260.521875 
L 490.1829 260.521875 
L 490.1829 197.811352 
L 481.494519 197.811352 
z
" clip-path="url(#p8216da1904)" style="fill: #2ca02c; opacity: 0.4"/>
   </g>
   <g id="patch_128">
    <path d="M 490.1829 260.521875 
L 498.871281 260.521875 
L 498.871281 223.940737 
L 490.1829 223.940737 
z
" clip-path="url(#p8216da1904)" style="fill: #2ca02c; opacity: 0.4"/>
   </g>
   <g id="patch_129">
    <path d="M 498.871281 260.521875 
L 507.559662 260.521875 
L 507.559662 239.618367 
L 498.871281 239.618367 
z
" clip-path="url(#p8216da1904)" style="fill: #2ca02c; opacity: 0.4"/>
   </g>
   <g id="patch_130">
    <path d="M 507.559662 260.521875 
L 516.248043 260.521875 
L 516.248043 260.521875 
L 507.559662 260.521875 
z
" clip-path="url(#p8216da1904)" style="fill: #2ca02c; opacity: 0.4"/>
   </g>
   <g id="patch_131">
    <path d="M 516.248043 260.521875 
L 524.936424 260.521875 
L 524.936424 239.618367 
L 516.248043 239.618367 
z
" clip-path="url(#p8216da1904)" style="fill: #2ca02c; opacity: 0.4"/>
   </g>
   <g id="matplotlib.axis_3">
    <g id="xtick_7">
     <g id="line2d_15">
      <g>
       <use xlink:href="#m878b7a1af1" x="339.814815" y="260.521875" style="stroke: #000000; stroke-width: 0.8"/>
      </g>
     </g>
     <g id="text_17">
      <!-- 3 -->
      <g transform="translate(336.633565 275.120313) scale(0.1 -0.1)">
       <use xlink:href="#DejaVuSans-33"/>
      </g>
     </g>
    </g>
    <g id="xtick_8">
     <g id="line2d_16">
      <g>
       <use xlink:href="#m878b7a1af1" x="375.590241" y="260.521875" style="stroke: #000000; stroke-width: 0.8"/>
      </g>
     </g>
     <g id="text_18">
      <!-- 4 -->
      <g transform="translate(372.408991 275.120313) scale(0.1 -0.1)">
       <use xlink:href="#DejaVuSans-34"/>
      </g>
     </g>
    </g>
    <g id="xtick_9">
     <g id="line2d_17">
      <g>
       <use xlink:href="#m878b7a1af1" x="411.365668" y="260.521875" style="stroke: #000000; stroke-width: 0.8"/>
      </g>
     </g>
     <g id="text_19">
      <!-- 5 -->
      <g transform="translate(408.184418 275.120313) scale(0.1 -0.1)">
       <defs>
        <path id="DejaVuSans-35" d="M 691 4666 
L 3169 4666 
L 3169 4134 
L 1269 4134 
L 1269 2991 
Q 1406 3038 1543 3061 
Q 1681 3084 1819 3084 
Q 2600 3084 3056 2656 
Q 3513 2228 3513 1497 
Q 3513 744 3044 326 
Q 2575 -91 1722 -91 
Q 1428 -91 1123 -41 
Q 819 9 494 109 
L 494 744 
Q 775 591 1075 516 
Q 1375 441 1709 441 
Q 2250 441 2565 725 
Q 2881 1009 2881 1497 
Q 2881 1984 2565 2268 
Q 2250 2553 1709 2553 
Q 1456 2553 1204 2497 
Q 953 2441 691 2322 
L 691 4666 
z
" transform="scale(0.015625)"/>
       </defs>
       <use xlink:href="#DejaVuSans-35"/>
      </g>
     </g>
    </g>
    <g id="xtick_10">
     <g id="line2d_18">
      <g>
       <use xlink:href="#m878b7a1af1" x="447.141094" y="260.521875" style="stroke: #000000; stroke-width: 0.8"/>
      </g>
     </g>
     <g id="text_20">
      <!-- 6 -->
      <g transform="translate(443.959844 275.120313) scale(0.1 -0.1)">
       <use xlink:href="#DejaVuSans-36"/>
      </g>
     </g>
    </g>
    <g id="xtick_11">
     <g id="line2d_19">
      <g>
       <use xlink:href="#m878b7a1af1" x="482.91652" y="260.521875" style="stroke: #000000; stroke-width: 0.8"/>
      </g>
     </g>
     <g id="text_21">
      <!-- 7 -->
      <g transform="translate(479.73527 275.120313) scale(0.1 -0.1)">
       <use xlink:href="#DejaVuSans-37"/>
      </g>
     </g>
    </g>
    <g id="xtick_12">
     <g id="line2d_20">
      <g>
       <use xlink:href="#m878b7a1af1" x="518.691946" y="260.521875" style="stroke: #000000; stroke-width: 0.8"/>
      </g>
     </g>
     <g id="text_22">
      <!-- 8 -->
      <g transform="translate(515.510696 275.120313) scale(0.1 -0.1)">
       <use xlink:href="#DejaVuSans-38"/>
      </g>
     </g>
    </g>
    <g id="xtick_13">
     <g id="line2d_21">
      <g>
       <use xlink:href="#m878b7a1af1" x="554.467372" y="260.521875" style="stroke: #000000; stroke-width: 0.8"/>
      </g>
     </g>
     <g id="text_23">
      <!-- 9 -->
      <g transform="translate(551.286122 275.120313) scale(0.1 -0.1)">
       <defs>
        <path id="DejaVuSans-39" d="M 703 97 
L 703 672 
Q 941 559 1184 500 
Q 1428 441 1663 441 
Q 2288 441 2617 861 
Q 2947 1281 2994 2138 
Q 2813 1869 2534 1725 
Q 2256 1581 1919 1581 
Q 1219 1581 811 2004 
Q 403 2428 403 3163 
Q 403 3881 828 4315 
Q 1253 4750 1959 4750 
Q 2769 4750 3195 4129 
Q 3622 3509 3622 2328 
Q 3622 1225 3098 567 
Q 2575 -91 1691 -91 
Q 1453 -91 1209 -44 
Q 966 3 703 97 
z
M 1959 2075 
Q 2384 2075 2632 2365 
Q 2881 2656 2881 3163 
Q 2881 3666 2632 3958 
Q 2384 4250 1959 4250 
Q 1534 4250 1286 3958 
Q 1038 3666 1038 3163 
Q 1038 2656 1286 2365 
Q 1534 2075 1959 2075 
z
" transform="scale(0.015625)"/>
       </defs>
       <use xlink:href="#DejaVuSans-39"/>
      </g>
     </g>
    </g>
   </g>
   <g id="matplotlib.axis_4">
    <g id="ytick_6">
     <g id="line2d_22">
      <g>
       <use xlink:href="#mbf968f049e" x="329.082187" y="260.521875" style="stroke: #000000; stroke-width: 0.8"/>
      </g>
     </g>
     <g id="text_24">
      <!-- 0.0 -->
      <g transform="translate(306.179062 264.321094) scale(0.1 -0.1)">
       <use xlink:href="#DejaVuSans-30"/>
       <use xlink:href="#DejaVuSans-2e" x="63.623047"/>
       <use xlink:href="#DejaVuSans-30" x="95.410156"/>
      </g>
     </g>
    </g>
    <g id="ytick_7">
     <g id="line2d_23">
      <g>
       <use xlink:href="#mbf968f049e" x="329.082187" y="232.346728" style="stroke: #000000; stroke-width: 0.8"/>
      </g>
     </g>
     <g id="text_25">
      <!-- 0.1 -->
      <g transform="translate(306.179062 236.145946) scale(0.1 -0.1)">
       <use xlink:href="#DejaVuSans-30"/>
       <use xlink:href="#DejaVuSans-2e" x="63.623047"/>
       <use xlink:href="#DejaVuSans-31" x="95.410156"/>
      </g>
     </g>
    </g>
    <g id="ytick_8">
     <g id="line2d_24">
      <g>
       <use xlink:href="#mbf968f049e" x="329.082187" y="204.17158" style="stroke: #000000; stroke-width: 0.8"/>
      </g>
     </g>
     <g id="text_26">
      <!-- 0.2 -->
      <g transform="translate(306.179062 207.970799) scale(0.1 -0.1)">
       <use xlink:href="#DejaVuSans-30"/>
       <use xlink:href="#DejaVuSans-2e" x="63.623047"/>
       <use xlink:href="#DejaVuSans-32" x="95.410156"/>
      </g>
     </g>
    </g>
    <g id="ytick_9">
     <g id="line2d_25">
      <g>
       <use xlink:href="#mbf968f049e" x="329.082187" y="175.996433" style="stroke: #000000; stroke-width: 0.8"/>
      </g>
     </g>
     <g id="text_27">
      <!-- 0.3 -->
      <g transform="translate(306.179062 179.795651) scale(0.1 -0.1)">
       <use xlink:href="#DejaVuSans-30"/>
       <use xlink:href="#DejaVuSans-2e" x="63.623047"/>
       <use xlink:href="#DejaVuSans-33" x="95.410156"/>
      </g>
     </g>
    </g>
    <g id="ytick_10">
     <g id="line2d_26">
      <g>
       <use xlink:href="#mbf968f049e" x="329.082187" y="147.821285" style="stroke: #000000; stroke-width: 0.8"/>
      </g>
     </g>
     <g id="text_28">
      <!-- 0.4 -->
      <g transform="translate(306.179062 151.620504) scale(0.1 -0.1)">
       <use xlink:href="#DejaVuSans-30"/>
       <use xlink:href="#DejaVuSans-2e" x="63.623047"/>
       <use xlink:href="#DejaVuSans-34" x="95.410156"/>
      </g>
     </g>
    </g>
    <g id="ytick_11">
     <g id="line2d_27">
      <g>
       <use xlink:href="#mbf968f049e" x="329.082187" y="119.646138" style="stroke: #000000; stroke-width: 0.8"/>
      </g>
     </g>
     <g id="text_29">
      <!-- 0.5 -->
      <g transform="translate(306.179062 123.445356) scale(0.1 -0.1)">
       <use xlink:href="#DejaVuSans-30"/>
       <use xlink:href="#DejaVuSans-2e" x="63.623047"/>
       <use xlink:href="#DejaVuSans-35" x="95.410156"/>
      </g>
     </g>
    </g>
    <g id="ytick_12">
     <g id="line2d_28">
      <g>
       <use xlink:href="#mbf968f049e" x="329.082187" y="91.47099" style="stroke: #000000; stroke-width: 0.8"/>
      </g>
     </g>
     <g id="text_30">
      <!-- 0.6 -->
      <g transform="translate(306.179062 95.270209) scale(0.1 -0.1)">
       <use xlink:href="#DejaVuSans-30"/>
       <use xlink:href="#DejaVuSans-2e" x="63.623047"/>
       <use xlink:href="#DejaVuSans-36" x="95.410156"/>
      </g>
     </g>
    </g>
    <g id="ytick_13">
     <g id="line2d_29">
      <g>
       <use xlink:href="#mbf968f049e" x="329.082187" y="63.295843" style="stroke: #000000; stroke-width: 0.8"/>
      </g>
     </g>
     <g id="text_31">
      <!-- 0.7 -->
      <g transform="translate(306.179062 67.095061) scale(0.1 -0.1)">
       <use xlink:href="#DejaVuSans-30"/>
       <use xlink:href="#DejaVuSans-2e" x="63.623047"/>
       <use xlink:href="#DejaVuSans-37" x="95.410156"/>
      </g>
     </g>
    </g>
    <g id="ytick_14">
     <g id="line2d_30">
      <g>
       <use xlink:href="#mbf968f049e" x="329.082187" y="35.120695" style="stroke: #000000; stroke-width: 0.8"/>
      </g>
     </g>
     <g id="text_32">
      <!-- 0.8 -->
      <g transform="translate(306.179062 38.919914) scale(0.1 -0.1)">
       <use xlink:href="#DejaVuSans-30"/>
       <use xlink:href="#DejaVuSans-2e" x="63.623047"/>
       <use xlink:href="#DejaVuSans-38" x="95.410156"/>
      </g>
     </g>
    </g>
    <g id="text_33">
     <!-- Fraction of cells -->
     <g transform="translate(299.2675 198.051875) rotate(-90) scale(0.14 -0.14)">
      <use xlink:href="#DejaVuSans-46"/>
      <use xlink:href="#DejaVuSans-72" x="50.269531"/>
      <use xlink:href="#DejaVuSans-61" x="91.382812"/>
      <use xlink:href="#DejaVuSans-63" x="152.662109"/>
      <use xlink:href="#DejaVuSans-74" x="207.642578"/>
      <use xlink:href="#DejaVuSans-69" x="246.851562"/>
      <use xlink:href="#DejaVuSans-6f" x="274.634766"/>
      <use xlink:href="#DejaVuSans-6e" x="335.816406"/>
      <use xlink:href="#DejaVuSans-20" x="399.195312"/>
      <use xlink:href="#DejaVuSans-6f" x="430.982422"/>
      <use xlink:href="#DejaVuSans-66" x="492.164062"/>
      <use xlink:href="#DejaVuSans-20" x="527.369141"/>
      <use xlink:href="#DejaVuSans-63" x="559.15625"/>
      <use xlink:href="#DejaVuSans-65" x="614.136719"/>
      <use xlink:href="#DejaVuSans-6c" x="675.660156"/>
      <use xlink:href="#DejaVuSans-6c" x="703.443359"/>
      <use xlink:href="#DejaVuSans-73" x="731.226562"/>
     </g>
    </g>
   </g>
   <g id="line2d_31">
    <path d="M 339.814815 257.977996 
L 343.143594 256.875039 
L 346.901893 255.387446 
L 351.733992 253.218181 
L 357.85465 250.228759 
L 361.505569 248.221896 
L 364.082688 246.562182 
L 366.230288 244.924594 
L 368.163127 243.178305 
L 369.988586 241.230972 
L 371.706666 239.084327 
L 373.424745 236.591182 
L 375.142825 233.716859 
L 376.968284 230.21722 
L 378.901124 225.995549 
L 380.941343 220.970754 
L 383.196323 214.788616 
L 385.880822 206.723552 
L 390.176021 192.968587 
L 393.934319 181.225213 
L 396.296679 174.557773 
L 398.229518 169.737763 
L 399.947598 166.026932 
L 401.558297 163.081499 
L 402.954237 160.957989 
L 404.350176 159.227672 
L 405.638736 157.963683 
L 406.927296 156.995739 
L 408.215855 156.293221 
L 409.611795 155.7895 
L 411.115114 155.48906 
L 412.940574 155.367979 
L 415.625073 155.449286 
L 420.135032 155.58551 
L 423.034291 155.420409 
L 427.32949 154.907129 
L 430.980409 154.564275 
L 433.450148 154.551889 
L 435.705127 154.759513 
L 437.852726 155.180102 
L 439.892946 155.801037 
L 441.933165 156.659668 
L 443.866005 157.717061 
L 445.798844 159.038376 
L 447.731684 160.647728 
L 449.664523 162.561243 
L 451.704742 164.913994 
L 453.852342 167.742271 
L 456.322081 171.387811 
L 459.22134 176.092567 
L 462.872259 182.467037 
L 467.489598 190.995361 
L 472.321696 200.38833 
L 480.053054 216.039727 
L 484.026113 223.752794 
L 486.925372 228.91282 
L 489.502491 233.056966 
L 491.972231 236.601765 
L 494.33459 239.605913 
L 496.696949 242.260352 
L 499.166688 244.706589 
L 501.851188 247.044049 
L 504.750447 249.260646 
L 507.864466 251.351238 
L 511.085865 253.246181 
L 514.414644 254.943097 
L 517.636043 256.334428 
L 520.750062 257.434337 
L 523.756701 258.255915 
L 526.65596 258.819535 
L 529.662599 259.174581 
L 532.883999 259.325078 
L 536.749677 259.271557 
L 549.098374 258.919551 
L 553.608332 259.139871 
L 554.467372 259.20281 
L 554.467372 259.20281 
" clip-path="url(#p8216da1904)" style="fill: none; stroke: #1f77b4; stroke-width: 1.5; stroke-linecap: square"/>
   </g>
   <g id="line2d_32">
    <path d="M 339.814815 260.141783 
L 342.391935 259.730917 
L 344.539534 259.161106 
L 346.472373 258.415605 
L 348.297833 257.474085 
L 350.123292 256.283946 
L 352.056132 254.752357 
L 354.096351 252.85222 
L 356.35133 250.450649 
L 358.82107 247.491853 
L 361.290809 244.181766 
L 363.653168 240.637022 
L 366.015528 236.674398 
L 368.592647 231.884397 
L 371.814046 225.376896 
L 376.324005 215.724197 
L 379.438024 208.595708 
L 381.800383 202.646999 
L 383.947982 196.646301 
L 386.202962 189.654712 
L 388.672701 181.239351 
L 392.10886 168.643426 
L 398.014758 146.953845 
L 401.021397 136.820178 
L 404.135416 127.098718 
L 407.786335 116.4422 
L 410.685594 108.587654 
L 412.725814 103.675527 
L 414.229133 100.591878 
L 415.517693 98.432698 
L 416.591493 97.038957 
L 417.557912 96.135736 
L 418.416952 95.63095 
L 419.168612 95.428128 
L 419.920272 95.452344 
L 420.671932 95.704587 
L 421.423591 96.183255 
L 422.282631 97.002509 
L 423.249051 98.260611 
L 424.32285 100.057449 
L 425.50403 102.489829 
L 426.79259 105.647334 
L 428.295909 109.935408 
L 430.013989 115.544195 
L 431.946828 122.626799 
L 434.309188 132.161029 
L 437.637967 146.621756 
L 444.188145 175.230676 
L 446.980024 186.328595 
L 449.342383 194.845563 
L 451.489982 201.80547 
L 453.637582 208.029345 
L 455.892561 213.870052 
L 458.3623 219.63561 
L 461.15418 225.590763 
L 464.053439 231.26517 
L 466.523178 235.636817 
L 468.670777 239.007477 
L 470.603617 241.654462 
L 472.536456 243.932943 
L 474.469296 245.877374 
L 476.616895 247.720615 
L 479.194014 249.62527 
L 482.737553 251.943354 
L 487.354892 254.697083 
L 490.898431 256.57104 
L 493.79769 257.857143 
L 496.374809 258.76599 
L 498.951928 259.443319 
L 501.743808 259.938202 
L 504.965207 260.266757 
L 509.153025 260.450813 
L 516.777003 260.518142 
L 554.467372 260.521875 
L 554.467372 260.521875 
" clip-path="url(#p8216da1904)" style="fill: none; stroke: #ff7f0e; stroke-width: 1.5; stroke-linecap: square"/>
   </g>
   <g id="line2d_33">
    <path d="M 339.814815 257.925287 
L 343.036214 256.82358 
L 346.472373 255.410818 
L 350.552812 253.483041 
L 355.921811 250.683266 
L 360.968669 247.823889 
L 364.297448 245.703823 
L 366.981947 243.732496 
L 369.236927 241.804698 
L 371.277146 239.779327 
L 373.317365 237.430861 
L 375.250205 234.866763 
L 377.290424 231.77302 
L 379.330644 228.272285 
L 381.585623 223.949439 
L 384.162742 218.503988 
L 387.598901 210.667099 
L 394.578599 194.63106 
L 397.370478 188.855011 
L 399.840218 184.237509 
L 402.202577 180.273526 
L 404.672316 176.570504 
L 407.249435 173.112444 
L 410.148695 169.600099 
L 413.477474 165.920734 
L 416.806253 162.562897 
L 419.490752 160.154821 
L 421.638351 158.513301 
L 423.463811 157.389242 
L 425.07451 156.654218 
L 426.57783 156.220384 
L 427.973769 156.058533 
L 429.262329 156.128096 
L 430.550889 156.41391 
L 431.946828 156.96701 
L 433.342768 157.764266 
L 434.846087 158.874901 
L 436.564167 160.421568 
L 438.711766 162.67418 
L 442.147925 166.660655 
L 446.013604 171.048126 
L 448.483343 173.516096 
L 450.738323 175.467545 
L 453.100682 177.219484 
L 455.892561 179.005144 
L 463.946059 183.983396 
L 466.737938 186.085149 
L 469.529817 188.466705 
L 472.536456 191.326902 
L 475.757855 194.699095 
L 479.086634 198.509154 
L 482.308033 202.54135 
L 485.422052 206.803221 
L 488.643452 211.603727 
L 492.40175 217.636119 
L 502.388087 233.923814 
L 505.072587 237.732883 
L 507.434946 240.717574 
L 509.689925 243.217067 
L 511.837525 245.281179 
L 514.092504 247.140352 
L 516.454863 248.796073 
L 519.139363 250.392838 
L 522.360762 252.034452 
L 526.76334 254.005504 
L 531.917579 256.074149 
L 536.105398 257.526093 
L 539.648937 258.525854 
L 543.085096 259.264855 
L 546.628634 259.79768 
L 550.601693 260.166349 
L 554.467372 260.36036 
L 554.467372 260.36036 
" clip-path="url(#p8216da1904)" style="fill: none; stroke: #2ca02c; stroke-width: 1.5; stroke-linecap: square"/>
   </g>
   <g id="patch_132">
    <path d="M 329.082187 260.521875 
L 329.082187 25.918125 
" style="fill: none; stroke: #000000; stroke-width: 0.8; stroke-linejoin: miter; stroke-linecap: square"/>
   </g>
   <g id="patch_133">
    <path d="M 565.2 260.521875 
L 565.2 25.918125 
" style="fill: none; stroke: #000000; stroke-width: 0.8; stroke-linejoin: miter; stroke-linecap: square"/>
   </g>
   <g id="patch_134">
    <path d="M 329.082188 260.521875 
L 565.2 260.521875 
" style="fill: none; stroke: #000000; stroke-width: 0.8; stroke-linejoin: miter; stroke-linecap: square"/>
   </g>
   <g id="patch_135">
    <path d="M 329.082188 25.918125 
L 565.2 25.918125 
" style="fill: none; stroke: #000000; stroke-width: 0.8; stroke-linejoin: miter; stroke-linecap: square"/>
   </g>
   <g id="text_34">
    <!-- Linear -->
    <g transform="translate(428.493281 19.918125) scale(0.12 -0.12)">
     <defs>
      <path id="DejaVuSans-4c" d="M 628 4666 
L 1259 4666 
L 1259 531 
L 3531 531 
L 3531 0 
L 628 0 
L 628 4666 
z
" transform="scale(0.015625)"/>
     </defs>
     <use xlink:href="#DejaVuSans-4c"/>
     <use xlink:href="#DejaVuSans-69" x="55.712891"/>
     <use xlink:href="#DejaVuSans-6e" x="83.496094"/>
     <use xlink:href="#DejaVuSans-65" x="146.875"/>
     <use xlink:href="#DejaVuSans-61" x="208.398438"/>
     <use xlink:href="#DejaVuSans-72" x="269.677734"/>
    </g>
   </g>
   <g id="legend_2">
    <g id="patch_136">
     <path d="M 437.315625 88.693125 
L 556.8 88.693125 
Q 559.2 88.693125 559.2 86.293125 
L 559.2 34.318125 
Q 559.2 31.918125 556.8 31.918125 
L 437.315625 31.918125 
Q 434.915625 31.918125 434.915625 34.318125 
L 434.915625 86.293125 
Q 434.915625 88.693125 437.315625 88.693125 
z
" style="fill: #ffffff; opacity: 0.8; stroke: #cccccc; stroke-linejoin: miter"/>
    </g>
    <g id="patch_137">
     <path d="M 439.715625 45.83625 
L 463.715625 45.83625 
L 463.715625 37.43625 
L 439.715625 37.43625 
z
" style="fill: #1f77b4; opacity: 0.4"/>
    </g>
    <g id="text_35">
     <!-- MCF10A -->
     <g transform="translate(473.315625 45.83625) scale(0.12 -0.12)">
      <use xlink:href="#DejaVuSans-4d"/>
      <use xlink:href="#DejaVuSans-43" x="86.279297"/>
      <use xlink:href="#DejaVuSans-46" x="156.103516"/>
      <use xlink:href="#DejaVuSans-31" x="213.623047"/>
      <use xlink:href="#DejaVuSans-30" x="277.246094"/>
      <use xlink:href="#DejaVuSans-41" x="340.869141"/>
     </g>
    </g>
    <g id="patch_138">
     <path d="M 439.715625 63.45 
L 463.715625 63.45 
L 463.715625 55.05 
L 439.715625 55.05 
z
" style="fill: #ff7f0e; opacity: 0.4"/>
    </g>
    <g id="text_36">
     <!-- MCF7 -->
     <g transform="translate(473.315625 63.45) scale(0.12 -0.12)">
      <use xlink:href="#DejaVuSans-4d"/>
      <use xlink:href="#DejaVuSans-43" x="86.279297"/>
      <use xlink:href="#DejaVuSans-46" x="156.103516"/>
      <use xlink:href="#DejaVuSans-37" x="213.623047"/>
     </g>
    </g>
    <g id="patch_139">
     <path d="M 439.715625 81.06375 
L 463.715625 81.06375 
L 463.715625 72.66375 
L 439.715625 72.66375 
z
" style="fill: #2ca02c; opacity: 0.4"/>
    </g>
    <g id="text_37">
     <!-- MDA_MB_231 -->
     <g transform="translate(473.315625 81.06375) scale(0.12 -0.12)">
      <use xlink:href="#DejaVuSans-4d"/>
      <use xlink:href="#DejaVuSans-44" x="86.279297"/>
      <use xlink:href="#DejaVuSans-41" x="161.53125"/>
      <use xlink:href="#DejaVuSans-5f" x="229.939453"/>
      <use xlink:href="#DejaVuSans-4d" x="279.939453"/>
      <use xlink:href="#DejaVuSans-42" x="366.21875"/>
      <use xlink:href="#DejaVuSans-5f" x="434.822266"/>
      <use xlink:href="#DejaVuSans-32" x="484.822266"/>
      <use xlink:href="#DejaVuSans-33" x="548.445312"/>
      <use xlink:href="#DejaVuSans-31" x="612.068359"/>
     </g>
    </g>
   </g>
  </g>
 </g>
 <defs>
  <clipPath id="p4c53a4b8fc">
   <rect x="41.711875" y="25.918125" width="236.117812" height="234.60375"/>
  </clipPath>
  <clipPath id="p8216da1904">
   <rect x="329.082187" y="25.918125" width="236.117812" height="234.60375"/>
  </clipPath>
 </defs>
</svg>
