<?xml version="1.0" encoding="utf-8" standalone="no"?>
<!DOCTYPE svg PUBLIC "-//W3C//DTD SVG 1.1//EN"
  "http://www.w3.org/Graphics/SVG/1.1/DTD/svg11.dtd">
<svg xmlns:xlink="http://www.w3.org/1999/xlink" width="639.481107pt" height="280.8pt" viewBox="0 0 639.481107 280.8" xmlns="http://www.w3.org/2000/svg" version="1.1">
 <metadata>
  <rdf:RDF xmlns:dc="http://purl.org/dc/elements/1.1/" xmlns:cc="http://creativecommons.org/ns#" xmlns:rdf="http://www.w3.org/1999/02/22-rdf-syntax-ns#">
   <cc:Work>
    <dc:type rdf:resource="http://purl.org/dc/dcmitype/StillImage"/>
    <dc:date>2024-05-26T07:18:58.122983</dc:date>
    <dc:format>image/svg+xml</dc:format>
    <dc:creator>
     <cc:Agent>
      <dc:title>Matplotlib v3.8.4, https://matplotlib.org/</dc:title>
     </cc:Agent>
    </dc:creator>
   </cc:Work>
  </rdf:RDF>
 </metadata>
 <defs>
  <style type="text/css">*{stroke-linejoin: round; stroke-linecap: butt}</style>
 </defs>
 <g id="figure_1">
  <g id="patch_1">
   <path d="M 0 280.8 
L 639.481107 280.8 
L 639.481107 0 
L 0 0 
z
" style="fill: #ffffff"/>
  </g>
  <g id="axes_1">
   <g id="patch_2">
    <path d="M 50.836875 244.24375 
L 304.413541 244.24375 
L 304.413541 22.318125 
L 50.836875 22.318125 
z
" style="fill: #ffffff"/>
   </g>
   <g id="patch_3">
    <path d="M 73.23277 244.24375 
L 84.215498 244.24375 
L 84.215498 207.485883 
L 73.23277 207.485883 
z
" clip-path="url(#p4b1b18ef9c)" style="fill: #1f77b4; opacity: 0.4"/>
   </g>
   <g id="patch_4">
    <path d="M 84.215498 244.24375 
L 95.198226 244.24375 
L 95.198226 156.943815 
L 84.215498 156.943815 
z
" clip-path="url(#p4b1b18ef9c)" style="fill: #1f77b4; opacity: 0.4"/>
   </g>
   <g id="patch_5">
    <path d="M 95.198226 244.24375 
L 106.180954 244.24375 
L 106.180954 32.886012 
L 95.198226 32.886012 
z
" clip-path="url(#p4b1b18ef9c)" style="fill: #1f77b4; opacity: 0.4"/>
   </g>
   <g id="patch_6">
    <path d="M 106.180954 244.24375 
L 117.163681 244.24375 
L 117.163681 60.454413 
L 106.180954 60.454413 
z
" clip-path="url(#p4b1b18ef9c)" style="fill: #1f77b4; opacity: 0.4"/>
   </g>
   <g id="patch_7">
    <path d="M 117.163681 244.24375 
L 128.146409 244.24375 
L 128.146409 120.185947 
L 117.163681 120.185947 
z
" clip-path="url(#p4b1b18ef9c)" style="fill: #1f77b4; opacity: 0.4"/>
   </g>
   <g id="patch_8">
    <path d="M 128.146409 244.24375 
L 139.129137 244.24375 
L 139.129137 133.970148 
L 128.146409 133.970148 
z
" clip-path="url(#p4b1b18ef9c)" style="fill: #1f77b4; opacity: 0.4"/>
   </g>
   <g id="patch_9">
    <path d="M 139.129137 244.24375 
L 150.111865 244.24375 
L 150.111865 129.375414 
L 139.129137 129.375414 
z
" clip-path="url(#p4b1b18ef9c)" style="fill: #1f77b4; opacity: 0.4"/>
   </g>
   <g id="patch_10">
    <path d="M 150.111865 244.24375 
L 161.094593 244.24375 
L 161.094593 179.917482 
L 150.111865 179.917482 
z
" clip-path="url(#p4b1b18ef9c)" style="fill: #1f77b4; opacity: 0.4"/>
   </g>
   <g id="patch_11">
    <path d="M 161.094593 244.24375 
L 172.077321 244.24375 
L 172.077321 198.296416 
L 161.094593 198.296416 
z
" clip-path="url(#p4b1b18ef9c)" style="fill: #1f77b4; opacity: 0.4"/>
   </g>
   <g id="patch_12">
    <path d="M 172.077321 244.24375 
L 183.060049 244.24375 
L 183.060049 239.649017 
L 172.077321 239.649017 
z
" clip-path="url(#p4b1b18ef9c)" style="fill: #1f77b4; opacity: 0.4"/>
   </g>
   <g id="patch_13">
    <path d="M 183.060049 244.24375 
L 194.042777 244.24375 
L 194.042777 225.864816 
L 183.060049 225.864816 
z
" clip-path="url(#p4b1b18ef9c)" style="fill: #1f77b4; opacity: 0.4"/>
   </g>
   <g id="patch_14">
    <path d="M 194.042777 244.24375 
L 205.025505 244.24375 
L 205.025505 221.270083 
L 194.042777 221.270083 
z
" clip-path="url(#p4b1b18ef9c)" style="fill: #1f77b4; opacity: 0.4"/>
   </g>
   <g id="patch_15">
    <path d="M 205.025505 244.24375 
L 216.008233 244.24375 
L 216.008233 239.649017 
L 205.025505 239.649017 
z
" clip-path="url(#p4b1b18ef9c)" style="fill: #1f77b4; opacity: 0.4"/>
   </g>
   <g id="patch_16">
    <path d="M 216.008233 244.24375 
L 226.990961 244.24375 
L 226.990961 239.649017 
L 216.008233 239.649017 
z
" clip-path="url(#p4b1b18ef9c)" style="fill: #1f77b4; opacity: 0.4"/>
   </g>
   <g id="patch_17">
    <path d="M 226.990961 244.24375 
L 237.973689 244.24375 
L 237.973689 244.24375 
L 226.990961 244.24375 
z
" clip-path="url(#p4b1b18ef9c)" style="fill: #1f77b4; opacity: 0.4"/>
   </g>
   <g id="patch_18">
    <path d="M 237.973689 244.24375 
L 248.956417 244.24375 
L 248.956417 244.24375 
L 237.973689 244.24375 
z
" clip-path="url(#p4b1b18ef9c)" style="fill: #1f77b4; opacity: 0.4"/>
   </g>
   <g id="patch_19">
    <path d="M 248.956417 244.24375 
L 259.939145 244.24375 
L 259.939145 244.24375 
L 248.956417 244.24375 
z
" clip-path="url(#p4b1b18ef9c)" style="fill: #1f77b4; opacity: 0.4"/>
   </g>
   <g id="patch_20">
    <path d="M 259.939145 244.24375 
L 270.921873 244.24375 
L 270.921873 244.24375 
L 259.939145 244.24375 
z
" clip-path="url(#p4b1b18ef9c)" style="fill: #1f77b4; opacity: 0.4"/>
   </g>
   <g id="patch_21">
    <path d="M 270.921873 244.24375 
L 281.904601 244.24375 
L 281.904601 244.24375 
L 270.921873 244.24375 
z
" clip-path="url(#p4b1b18ef9c)" style="fill: #1f77b4; opacity: 0.4"/>
   </g>
   <g id="patch_22">
    <path d="M 281.904601 244.24375 
L 292.887328 244.24375 
L 292.887328 235.054283 
L 281.904601 235.054283 
z
" clip-path="url(#p4b1b18ef9c)" style="fill: #1f77b4; opacity: 0.4"/>
   </g>
   <g id="patch_23">
    <path d="M 74.581171 244.24375 
L 84.508467 244.24375 
L 84.508467 239.092443 
L 74.581171 239.092443 
z
" clip-path="url(#p4b1b18ef9c)" style="fill: #ff7f0e; opacity: 0.4"/>
   </g>
   <g id="patch_24">
    <path d="M 84.508467 244.24375 
L 94.435764 244.24375 
L 94.435764 125.763697 
L 84.508467 125.763697 
z
" clip-path="url(#p4b1b18ef9c)" style="fill: #ff7f0e; opacity: 0.4"/>
   </g>
   <g id="patch_25">
    <path d="M 94.435764 244.24375 
L 104.36306 244.24375 
L 104.36306 58.79671 
L 94.435764 58.79671 
z
" clip-path="url(#p4b1b18ef9c)" style="fill: #ff7f0e; opacity: 0.4"/>
   </g>
   <g id="patch_26">
    <path d="M 104.36306 244.24375 
L 114.290356 244.24375 
L 114.290356 69.099323 
L 104.36306 69.099323 
z
" clip-path="url(#p4b1b18ef9c)" style="fill: #ff7f0e; opacity: 0.4"/>
   </g>
   <g id="patch_27">
    <path d="M 114.290356 244.24375 
L 124.217652 244.24375 
L 124.217652 69.099323 
L 114.290356 69.099323 
z
" clip-path="url(#p4b1b18ef9c)" style="fill: #ff7f0e; opacity: 0.4"/>
   </g>
   <g id="patch_28">
    <path d="M 124.217652 244.24375 
L 134.144948 244.24375 
L 134.144948 146.368923 
L 124.217652 146.368923 
z
" clip-path="url(#p4b1b18ef9c)" style="fill: #ff7f0e; opacity: 0.4"/>
   </g>
   <g id="patch_29">
    <path d="M 134.144948 244.24375 
L 144.072245 244.24375 
L 144.072245 172.125457 
L 134.144948 172.125457 
z
" clip-path="url(#p4b1b18ef9c)" style="fill: #ff7f0e; opacity: 0.4"/>
   </g>
   <g id="patch_30">
    <path d="M 144.072245 244.24375 
L 153.999541 244.24375 
L 153.999541 182.42807 
L 144.072245 182.42807 
z
" clip-path="url(#p4b1b18ef9c)" style="fill: #ff7f0e; opacity: 0.4"/>
   </g>
   <g id="patch_31">
    <path d="M 153.999541 244.24375 
L 163.926837 244.24375 
L 163.926837 192.730683 
L 153.999541 192.730683 
z
" clip-path="url(#p4b1b18ef9c)" style="fill: #ff7f0e; opacity: 0.4"/>
   </g>
   <g id="patch_32">
    <path d="M 163.926837 244.24375 
L 173.854133 244.24375 
L 173.854133 187.579377 
L 163.926837 187.579377 
z
" clip-path="url(#p4b1b18ef9c)" style="fill: #ff7f0e; opacity: 0.4"/>
   </g>
   <g id="patch_33">
    <path d="M 173.854133 244.24375 
L 183.781429 244.24375 
L 183.781429 218.487217 
L 173.854133 218.487217 
z
" clip-path="url(#p4b1b18ef9c)" style="fill: #ff7f0e; opacity: 0.4"/>
   </g>
   <g id="patch_34">
    <path d="M 183.781429 244.24375 
L 193.708726 244.24375 
L 193.708726 203.033297 
L 183.781429 203.033297 
z
" clip-path="url(#p4b1b18ef9c)" style="fill: #ff7f0e; opacity: 0.4"/>
   </g>
   <g id="patch_35">
    <path d="M 193.708726 244.24375 
L 203.636022 244.24375 
L 203.636022 203.033297 
L 193.708726 203.033297 
z
" clip-path="url(#p4b1b18ef9c)" style="fill: #ff7f0e; opacity: 0.4"/>
   </g>
   <g id="patch_36">
    <path d="M 203.636022 244.24375 
L 213.563318 244.24375 
L 213.563318 239.092443 
L 203.636022 239.092443 
z
" clip-path="url(#p4b1b18ef9c)" style="fill: #ff7f0e; opacity: 0.4"/>
   </g>
   <g id="patch_37">
    <path d="M 213.563318 244.24375 
L 223.490614 244.24375 
L 223.490614 239.092443 
L 213.563318 239.092443 
z
" clip-path="url(#p4b1b18ef9c)" style="fill: #ff7f0e; opacity: 0.4"/>
   </g>
   <g id="patch_38">
    <path d="M 223.490614 244.24375 
L 233.417911 244.24375 
L 233.417911 244.24375 
L 223.490614 244.24375 
z
" clip-path="url(#p4b1b18ef9c)" style="fill: #ff7f0e; opacity: 0.4"/>
   </g>
   <g id="patch_39">
    <path d="M 233.417911 244.24375 
L 243.345207 244.24375 
L 243.345207 239.092443 
L 233.417911 239.092443 
z
" clip-path="url(#p4b1b18ef9c)" style="fill: #ff7f0e; opacity: 0.4"/>
   </g>
   <g id="patch_40">
    <path d="M 243.345207 244.24375 
L 253.272503 244.24375 
L 253.272503 233.941137 
L 243.345207 233.941137 
z
" clip-path="url(#p4b1b18ef9c)" style="fill: #ff7f0e; opacity: 0.4"/>
   </g>
   <g id="patch_41">
    <path d="M 253.272503 244.24375 
L 263.199799 244.24375 
L 263.199799 244.24375 
L 253.272503 244.24375 
z
" clip-path="url(#p4b1b18ef9c)" style="fill: #ff7f0e; opacity: 0.4"/>
   </g>
   <g id="patch_42">
    <path d="M 263.199799 244.24375 
L 273.127095 244.24375 
L 273.127095 223.638523 
L 263.199799 223.638523 
z
" clip-path="url(#p4b1b18ef9c)" style="fill: #ff7f0e; opacity: 0.4"/>
   </g>
   <g id="patch_43">
    <path d="M 62.363087 244.24375 
L 71.382929 244.24375 
L 71.382929 227.081835 
L 62.363087 227.081835 
z
" clip-path="url(#p4b1b18ef9c)" style="fill: #2ca02c; opacity: 0.4"/>
   </g>
   <g id="patch_44">
    <path d="M 71.382929 244.24375 
L 80.402771 244.24375 
L 80.402771 204.199281 
L 71.382929 204.199281 
z
" clip-path="url(#p4b1b18ef9c)" style="fill: #2ca02c; opacity: 0.4"/>
   </g>
   <g id="patch_45">
    <path d="M 80.402771 244.24375 
L 89.422613 244.24375 
L 89.422613 124.110342 
L 80.402771 124.110342 
z
" clip-path="url(#p4b1b18ef9c)" style="fill: #2ca02c; opacity: 0.4"/>
   </g>
   <g id="patch_46">
    <path d="M 89.422613 244.24375 
L 98.442455 244.24375 
L 98.442455 55.462681 
L 89.422613 55.462681 
z
" clip-path="url(#p4b1b18ef9c)" style="fill: #2ca02c; opacity: 0.4"/>
   </g>
   <g id="patch_47">
    <path d="M 98.442455 244.24375 
L 107.462297 244.24375 
L 107.462297 66.903958 
L 98.442455 66.903958 
z
" clip-path="url(#p4b1b18ef9c)" style="fill: #2ca02c; opacity: 0.4"/>
   </g>
   <g id="patch_48">
    <path d="M 107.462297 244.24375 
L 116.482139 244.24375 
L 116.482139 84.065873 
L 107.462297 84.065873 
z
" clip-path="url(#p4b1b18ef9c)" style="fill: #2ca02c; opacity: 0.4"/>
   </g>
   <g id="patch_49">
    <path d="M 116.482139 244.24375 
L 125.501981 244.24375 
L 125.501981 89.786512 
L 116.482139 89.786512 
z
" clip-path="url(#p4b1b18ef9c)" style="fill: #2ca02c; opacity: 0.4"/>
   </g>
   <g id="patch_50">
    <path d="M 125.501981 244.24375 
L 134.521823 244.24375 
L 134.521823 152.713535 
L 125.501981 152.713535 
z
" clip-path="url(#p4b1b18ef9c)" style="fill: #2ca02c; opacity: 0.4"/>
   </g>
   <g id="patch_51">
    <path d="M 134.521823 244.24375 
L 143.541665 244.24375 
L 143.541665 152.713535 
L 134.521823 152.713535 
z
" clip-path="url(#p4b1b18ef9c)" style="fill: #2ca02c; opacity: 0.4"/>
   </g>
   <g id="patch_52">
    <path d="M 143.541665 244.24375 
L 152.561507 244.24375 
L 152.561507 187.037365 
L 143.541665 187.037365 
z
" clip-path="url(#p4b1b18ef9c)" style="fill: #2ca02c; opacity: 0.4"/>
   </g>
   <g id="patch_53">
    <path d="M 152.561507 244.24375 
L 161.581348 244.24375 
L 161.581348 198.478642 
L 152.561507 198.478642 
z
" clip-path="url(#p4b1b18ef9c)" style="fill: #2ca02c; opacity: 0.4"/>
   </g>
   <g id="patch_54">
    <path d="M 161.581348 244.24375 
L 170.60119 244.24375 
L 170.60119 209.919919 
L 161.581348 209.919919 
z
" clip-path="url(#p4b1b18ef9c)" style="fill: #2ca02c; opacity: 0.4"/>
   </g>
   <g id="patch_55">
    <path d="M 170.60119 244.24375 
L 179.621032 244.24375 
L 179.621032 209.919919 
L 170.60119 209.919919 
z
" clip-path="url(#p4b1b18ef9c)" style="fill: #2ca02c; opacity: 0.4"/>
   </g>
   <g id="patch_56">
    <path d="M 179.621032 244.24375 
L 188.640874 244.24375 
L 188.640874 232.802473 
L 179.621032 232.802473 
z
" clip-path="url(#p4b1b18ef9c)" style="fill: #2ca02c; opacity: 0.4"/>
   </g>
   <g id="patch_57">
    <path d="M 188.640874 244.24375 
L 197.660716 244.24375 
L 197.660716 238.523112 
L 188.640874 238.523112 
z
" clip-path="url(#p4b1b18ef9c)" style="fill: #2ca02c; opacity: 0.4"/>
   </g>
   <g id="patch_58">
    <path d="M 197.660716 244.24375 
L 206.680558 244.24375 
L 206.680558 221.361196 
L 197.660716 221.361196 
z
" clip-path="url(#p4b1b18ef9c)" style="fill: #2ca02c; opacity: 0.4"/>
   </g>
   <g id="patch_59">
    <path d="M 206.680558 244.24375 
L 215.7004 244.24375 
L 215.7004 238.523112 
L 206.680558 238.523112 
z
" clip-path="url(#p4b1b18ef9c)" style="fill: #2ca02c; opacity: 0.4"/>
   </g>
   <g id="patch_60">
    <path d="M 215.7004 244.24375 
L 224.720242 244.24375 
L 224.720242 238.523112 
L 215.7004 238.523112 
z
" clip-path="url(#p4b1b18ef9c)" style="fill: #2ca02c; opacity: 0.4"/>
   </g>
   <g id="patch_61">
    <path d="M 224.720242 244.24375 
L 233.740084 244.24375 
L 233.740084 244.24375 
L 224.720242 244.24375 
z
" clip-path="url(#p4b1b18ef9c)" style="fill: #2ca02c; opacity: 0.4"/>
   </g>
   <g id="patch_62">
    <path d="M 233.740084 244.24375 
L 242.759926 244.24375 
L 242.759926 238.523112 
L 233.740084 238.523112 
z
" clip-path="url(#p4b1b18ef9c)" style="fill: #2ca02c; opacity: 0.4"/>
   </g>
   <g id="matplotlib.axis_1">
    <g id="xtick_1">
     <g id="line2d_1">
      <defs>
       <path id="m5425eccf56" d="M 0 0 
L 0 3.5 
" style="stroke: #000000; stroke-width: 0.8"/>
      </defs>
      <g>
       <use xlink:href="#m5425eccf56" x="68.920092" y="244.24375" style="stroke: #000000; stroke-width: 0.8"/>
      </g>
     </g>
     <g id="text_1">
      <!-- 3.285 -->
      <g transform="translate(54.60603 258.842188) scale(0.1 -0.1)">
       <defs>
        <path id="DejaVuSans-33" d="M 2597 2516 
Q 3050 2419 3304 2112 
Q 3559 1806 3559 1356 
Q 3559 666 3084 287 
Q 2609 -91 1734 -91 
Q 1441 -91 1130 -33 
Q 819 25 488 141 
L 488 750 
Q 750 597 1062 519 
Q 1375 441 1716 441 
Q 2309 441 2620 675 
Q 2931 909 2931 1356 
Q 2931 1769 2642 2001 
Q 2353 2234 1838 2234 
L 1294 2234 
L 1294 2753 
L 1863 2753 
Q 2328 2753 2575 2939 
Q 2822 3125 2822 3475 
Q 2822 3834 2567 4026 
Q 2313 4219 1838 4219 
Q 1578 4219 1281 4162 
Q 984 4106 628 3988 
L 628 4550 
Q 988 4650 1302 4700 
Q 1616 4750 1894 4750 
Q 2613 4750 3031 4423 
Q 3450 4097 3450 3541 
Q 3450 3153 3228 2886 
Q 3006 2619 2597 2516 
z
" transform="scale(0.015625)"/>
        <path id="DejaVuSans-2e" d="M 684 794 
L 1344 794 
L 1344 0 
L 684 0 
L 684 794 
z
" transform="scale(0.015625)"/>
        <path id="DejaVuSans-32" d="M 1228 531 
L 3431 531 
L 3431 0 
L 469 0 
L 469 531 
Q 828 903 1448 1529 
Q 2069 2156 2228 2338 
Q 2531 2678 2651 2914 
Q 2772 3150 2772 3378 
Q 2772 3750 2511 3984 
Q 2250 4219 1831 4219 
Q 1534 4219 1204 4116 
Q 875 4013 500 3803 
L 500 4441 
Q 881 4594 1212 4672 
Q 1544 4750 1819 4750 
Q 2544 4750 2975 4387 
Q 3406 4025 3406 3419 
Q 3406 3131 3298 2873 
Q 3191 2616 2906 2266 
Q 2828 2175 2409 1742 
Q 1991 1309 1228 531 
z
" transform="scale(0.015625)"/>
        <path id="DejaVuSans-38" d="M 2034 2216 
Q 1584 2216 1326 1975 
Q 1069 1734 1069 1313 
Q 1069 891 1326 650 
Q 1584 409 2034 409 
Q 2484 409 2743 651 
Q 3003 894 3003 1313 
Q 3003 1734 2745 1975 
Q 2488 2216 2034 2216 
z
M 1403 2484 
Q 997 2584 770 2862 
Q 544 3141 544 3541 
Q 544 4100 942 4425 
Q 1341 4750 2034 4750 
Q 2731 4750 3128 4425 
Q 3525 4100 3525 3541 
Q 3525 3141 3298 2862 
Q 3072 2584 2669 2484 
Q 3125 2378 3379 2068 
Q 3634 1759 3634 1313 
Q 3634 634 3220 271 
Q 2806 -91 2034 -91 
Q 1263 -91 848 271 
Q 434 634 434 1313 
Q 434 1759 690 2068 
Q 947 2378 1403 2484 
z
M 1172 3481 
Q 1172 3119 1398 2916 
Q 1625 2713 2034 2713 
Q 2441 2713 2670 2916 
Q 2900 3119 2900 3481 
Q 2900 3844 2670 4047 
Q 2441 4250 2034 4250 
Q 1625 4250 1398 4047 
Q 1172 3844 1172 3481 
z
" transform="scale(0.015625)"/>
        <path id="DejaVuSans-35" d="M 691 4666 
L 3169 4666 
L 3169 4134 
L 1269 4134 
L 1269 2991 
Q 1406 3038 1543 3061 
Q 1681 3084 1819 3084 
Q 2600 3084 3056 2656 
Q 3513 2228 3513 1497 
Q 3513 744 3044 326 
Q 2575 -91 1722 -91 
Q 1428 -91 1123 -41 
Q 819 9 494 109 
L 494 744 
Q 775 591 1075 516 
Q 1375 441 1709 441 
Q 2250 441 2565 725 
Q 2881 1009 2881 1497 
Q 2881 1984 2565 2268 
Q 2250 2553 1709 2553 
Q 1456 2553 1204 2497 
Q 953 2441 691 2322 
L 691 4666 
z
" transform="scale(0.015625)"/>
       </defs>
       <use xlink:href="#DejaVuSans-33"/>
       <use xlink:href="#DejaVuSans-2e" x="63.623047"/>
       <use xlink:href="#DejaVuSans-32" x="95.410156"/>
       <use xlink:href="#DejaVuSans-38" x="159.033203"/>
       <use xlink:href="#DejaVuSans-35" x="222.65625"/>
      </g>
     </g>
    </g>
    <g id="xtick_2">
     <g id="line2d_2">
      <g>
       <use xlink:href="#m5425eccf56" x="106.838751" y="244.24375" style="stroke: #000000; stroke-width: 0.8"/>
      </g>
     </g>
     <g id="text_2">
      <!-- 3.290 -->
      <g transform="translate(92.524689 258.842188) scale(0.1 -0.1)">
       <defs>
        <path id="DejaVuSans-39" d="M 703 97 
L 703 672 
Q 941 559 1184 500 
Q 1428 441 1663 441 
Q 2288 441 2617 861 
Q 2947 1281 2994 2138 
Q 2813 1869 2534 1725 
Q 2256 1581 1919 1581 
Q 1219 1581 811 2004 
Q 403 2428 403 3163 
Q 403 3881 828 4315 
Q 1253 4750 1959 4750 
Q 2769 4750 3195 4129 
Q 3622 3509 3622 2328 
Q 3622 1225 3098 567 
Q 2575 -91 1691 -91 
Q 1453 -91 1209 -44 
Q 966 3 703 97 
z
M 1959 2075 
Q 2384 2075 2632 2365 
Q 2881 2656 2881 3163 
Q 2881 3666 2632 3958 
Q 2384 4250 1959 4250 
Q 1534 4250 1286 3958 
Q 1038 3666 1038 3163 
Q 1038 2656 1286 2365 
Q 1534 2075 1959 2075 
z
" transform="scale(0.015625)"/>
        <path id="DejaVuSans-30" d="M 2034 4250 
Q 1547 4250 1301 3770 
Q 1056 3291 1056 2328 
Q 1056 1369 1301 889 
Q 1547 409 2034 409 
Q 2525 409 2770 889 
Q 3016 1369 3016 2328 
Q 3016 3291 2770 3770 
Q 2525 4250 2034 4250 
z
M 2034 4750 
Q 2819 4750 3233 4129 
Q 3647 3509 3647 2328 
Q 3647 1150 3233 529 
Q 2819 -91 2034 -91 
Q 1250 -91 836 529 
Q 422 1150 422 2328 
Q 422 3509 836 4129 
Q 1250 4750 2034 4750 
z
" transform="scale(0.015625)"/>
       </defs>
       <use xlink:href="#DejaVuSans-33"/>
       <use xlink:href="#DejaVuSans-2e" x="63.623047"/>
       <use xlink:href="#DejaVuSans-32" x="95.410156"/>
       <use xlink:href="#DejaVuSans-39" x="159.033203"/>
       <use xlink:href="#DejaVuSans-30" x="222.65625"/>
      </g>
     </g>
    </g>
    <g id="xtick_3">
     <g id="line2d_3">
      <g>
       <use xlink:href="#m5425eccf56" x="144.75741" y="244.24375" style="stroke: #000000; stroke-width: 0.8"/>
      </g>
     </g>
     <g id="text_3">
      <!-- 3.295 -->
      <g transform="translate(130.443348 258.842188) scale(0.1 -0.1)">
       <use xlink:href="#DejaVuSans-33"/>
       <use xlink:href="#DejaVuSans-2e" x="63.623047"/>
       <use xlink:href="#DejaVuSans-32" x="95.410156"/>
       <use xlink:href="#DejaVuSans-39" x="159.033203"/>
       <use xlink:href="#DejaVuSans-35" x="222.65625"/>
      </g>
     </g>
    </g>
    <g id="xtick_4">
     <g id="line2d_4">
      <g>
       <use xlink:href="#m5425eccf56" x="182.676069" y="244.24375" style="stroke: #000000; stroke-width: 0.8"/>
      </g>
     </g>
     <g id="text_4">
      <!-- 3.300 -->
      <g transform="translate(168.362007 258.842188) scale(0.1 -0.1)">
       <use xlink:href="#DejaVuSans-33"/>
       <use xlink:href="#DejaVuSans-2e" x="63.623047"/>
       <use xlink:href="#DejaVuSans-33" x="95.410156"/>
       <use xlink:href="#DejaVuSans-30" x="159.033203"/>
       <use xlink:href="#DejaVuSans-30" x="222.65625"/>
      </g>
     </g>
    </g>
    <g id="xtick_5">
     <g id="line2d_5">
      <g>
       <use xlink:href="#m5425eccf56" x="220.594728" y="244.24375" style="stroke: #000000; stroke-width: 0.8"/>
      </g>
     </g>
     <g id="text_5">
      <!-- 3.305 -->
      <g transform="translate(206.280666 258.842188) scale(0.1 -0.1)">
       <use xlink:href="#DejaVuSans-33"/>
       <use xlink:href="#DejaVuSans-2e" x="63.623047"/>
       <use xlink:href="#DejaVuSans-33" x="95.410156"/>
       <use xlink:href="#DejaVuSans-30" x="159.033203"/>
       <use xlink:href="#DejaVuSans-35" x="222.65625"/>
      </g>
     </g>
    </g>
    <g id="xtick_6">
     <g id="line2d_6">
      <g>
       <use xlink:href="#m5425eccf56" x="258.513387" y="244.24375" style="stroke: #000000; stroke-width: 0.8"/>
      </g>
     </g>
     <g id="text_6">
      <!-- 3.310 -->
      <g transform="translate(244.199325 258.842188) scale(0.1 -0.1)">
       <defs>
        <path id="DejaVuSans-31" d="M 794 531 
L 1825 531 
L 1825 4091 
L 703 3866 
L 703 4441 
L 1819 4666 
L 2450 4666 
L 2450 531 
L 3481 531 
L 3481 0 
L 794 0 
L 794 531 
z
" transform="scale(0.015625)"/>
       </defs>
       <use xlink:href="#DejaVuSans-33"/>
       <use xlink:href="#DejaVuSans-2e" x="63.623047"/>
       <use xlink:href="#DejaVuSans-33" x="95.410156"/>
       <use xlink:href="#DejaVuSans-31" x="159.033203"/>
       <use xlink:href="#DejaVuSans-30" x="222.65625"/>
      </g>
     </g>
    </g>
    <g id="xtick_7">
     <g id="line2d_7">
      <g>
       <use xlink:href="#m5425eccf56" x="296.432046" y="244.24375" style="stroke: #000000; stroke-width: 0.8"/>
      </g>
     </g>
     <g id="text_7">
      <!-- 3.315 -->
      <g transform="translate(282.117984 258.842188) scale(0.1 -0.1)">
       <use xlink:href="#DejaVuSans-33"/>
       <use xlink:href="#DejaVuSans-2e" x="63.623047"/>
       <use xlink:href="#DejaVuSans-33" x="95.410156"/>
       <use xlink:href="#DejaVuSans-31" x="159.033203"/>
       <use xlink:href="#DejaVuSans-35" x="222.65625"/>
      </g>
     </g>
    </g>
   </g>
   <g id="matplotlib.axis_2">
    <g id="ytick_1">
     <g id="line2d_8">
      <defs>
       <path id="m9f7359572a" d="M 0 0 
L -3.5 0 
" style="stroke: #000000; stroke-width: 0.8"/>
      </defs>
      <g>
       <use xlink:href="#m9f7359572a" x="50.836875" y="244.24375" style="stroke: #000000; stroke-width: 0.8"/>
      </g>
     </g>
     <g id="text_8">
      <!-- 0 -->
      <g transform="translate(37.474375 248.042969) scale(0.1 -0.1)">
       <use xlink:href="#DejaVuSans-30"/>
      </g>
     </g>
    </g>
    <g id="ytick_2">
     <g id="line2d_9">
      <g>
       <use xlink:href="#m9f7359572a" x="50.836875" y="214.034257" style="stroke: #000000; stroke-width: 0.8"/>
      </g>
     </g>
     <g id="text_9">
      <!-- 20 -->
      <g transform="translate(31.111875 217.833476) scale(0.1 -0.1)">
       <use xlink:href="#DejaVuSans-32"/>
       <use xlink:href="#DejaVuSans-30" x="63.623047"/>
      </g>
     </g>
    </g>
    <g id="ytick_3">
     <g id="line2d_10">
      <g>
       <use xlink:href="#m9f7359572a" x="50.836875" y="183.824764" style="stroke: #000000; stroke-width: 0.8"/>
      </g>
     </g>
     <g id="text_10">
      <!-- 40 -->
      <g transform="translate(31.111875 187.623983) scale(0.1 -0.1)">
       <defs>
        <path id="DejaVuSans-34" d="M 2419 4116 
L 825 1625 
L 2419 1625 
L 2419 4116 
z
M 2253 4666 
L 3047 4666 
L 3047 1625 
L 3713 1625 
L 3713 1100 
L 3047 1100 
L 3047 0 
L 2419 0 
L 2419 1100 
L 313 1100 
L 313 1709 
L 2253 4666 
z
" transform="scale(0.015625)"/>
       </defs>
       <use xlink:href="#DejaVuSans-34"/>
       <use xlink:href="#DejaVuSans-30" x="63.623047"/>
      </g>
     </g>
    </g>
    <g id="ytick_4">
     <g id="line2d_11">
      <g>
       <use xlink:href="#m9f7359572a" x="50.836875" y="153.615272" style="stroke: #000000; stroke-width: 0.8"/>
      </g>
     </g>
     <g id="text_11">
      <!-- 60 -->
      <g transform="translate(31.111875 157.41449) scale(0.1 -0.1)">
       <defs>
        <path id="DejaVuSans-36" d="M 2113 2584 
Q 1688 2584 1439 2293 
Q 1191 2003 1191 1497 
Q 1191 994 1439 701 
Q 1688 409 2113 409 
Q 2538 409 2786 701 
Q 3034 994 3034 1497 
Q 3034 2003 2786 2293 
Q 2538 2584 2113 2584 
z
M 3366 4563 
L 3366 3988 
Q 3128 4100 2886 4159 
Q 2644 4219 2406 4219 
Q 1781 4219 1451 3797 
Q 1122 3375 1075 2522 
Q 1259 2794 1537 2939 
Q 1816 3084 2150 3084 
Q 2853 3084 3261 2657 
Q 3669 2231 3669 1497 
Q 3669 778 3244 343 
Q 2819 -91 2113 -91 
Q 1303 -91 875 529 
Q 447 1150 447 2328 
Q 447 3434 972 4092 
Q 1497 4750 2381 4750 
Q 2619 4750 2861 4703 
Q 3103 4656 3366 4563 
z
" transform="scale(0.015625)"/>
       </defs>
       <use xlink:href="#DejaVuSans-36"/>
       <use xlink:href="#DejaVuSans-30" x="63.623047"/>
      </g>
     </g>
    </g>
    <g id="ytick_5">
     <g id="line2d_12">
      <g>
       <use xlink:href="#m9f7359572a" x="50.836875" y="123.405779" style="stroke: #000000; stroke-width: 0.8"/>
      </g>
     </g>
     <g id="text_12">
      <!-- 80 -->
      <g transform="translate(31.111875 127.204997) scale(0.1 -0.1)">
       <use xlink:href="#DejaVuSans-38"/>
       <use xlink:href="#DejaVuSans-30" x="63.623047"/>
      </g>
     </g>
    </g>
    <g id="ytick_6">
     <g id="line2d_13">
      <g>
       <use xlink:href="#m9f7359572a" x="50.836875" y="93.196286" style="stroke: #000000; stroke-width: 0.8"/>
      </g>
     </g>
     <g id="text_13">
      <!-- 100 -->
      <g transform="translate(24.749375 96.995505) scale(0.1 -0.1)">
       <use xlink:href="#DejaVuSans-31"/>
       <use xlink:href="#DejaVuSans-30" x="63.623047"/>
       <use xlink:href="#DejaVuSans-30" x="127.246094"/>
      </g>
     </g>
    </g>
    <g id="ytick_7">
     <g id="line2d_14">
      <g>
       <use xlink:href="#m9f7359572a" x="50.836875" y="62.986793" style="stroke: #000000; stroke-width: 0.8"/>
      </g>
     </g>
     <g id="text_14">
      <!-- 120 -->
      <g transform="translate(24.749375 66.786012) scale(0.1 -0.1)">
       <use xlink:href="#DejaVuSans-31"/>
       <use xlink:href="#DejaVuSans-32" x="63.623047"/>
       <use xlink:href="#DejaVuSans-30" x="127.246094"/>
      </g>
     </g>
    </g>
    <g id="ytick_8">
     <g id="line2d_15">
      <g>
       <use xlink:href="#m9f7359572a" x="50.836875" y="32.7773" style="stroke: #000000; stroke-width: 0.8"/>
      </g>
     </g>
     <g id="text_15">
      <!-- 140 -->
      <g transform="translate(24.749375 36.576519) scale(0.1 -0.1)">
       <use xlink:href="#DejaVuSans-31"/>
       <use xlink:href="#DejaVuSans-34" x="63.623047"/>
       <use xlink:href="#DejaVuSans-30" x="127.246094"/>
      </g>
     </g>
    </g>
    <g id="text_16">
     <!-- Fraction of cells -->
     <g transform="translate(17.837812 188.112812) rotate(-90) scale(0.14 -0.14)">
      <defs>
       <path id="DejaVuSans-46" d="M 628 4666 
L 3309 4666 
L 3309 4134 
L 1259 4134 
L 1259 2759 
L 3109 2759 
L 3109 2228 
L 1259 2228 
L 1259 0 
L 628 0 
L 628 4666 
z
" transform="scale(0.015625)"/>
       <path id="DejaVuSans-72" d="M 2631 2963 
Q 2534 3019 2420 3045 
Q 2306 3072 2169 3072 
Q 1681 3072 1420 2755 
Q 1159 2438 1159 1844 
L 1159 0 
L 581 0 
L 581 3500 
L 1159 3500 
L 1159 2956 
Q 1341 3275 1631 3429 
Q 1922 3584 2338 3584 
Q 2397 3584 2469 3576 
Q 2541 3569 2628 3553 
L 2631 2963 
z
" transform="scale(0.015625)"/>
       <path id="DejaVuSans-61" d="M 2194 1759 
Q 1497 1759 1228 1600 
Q 959 1441 959 1056 
Q 959 750 1161 570 
Q 1363 391 1709 391 
Q 2188 391 2477 730 
Q 2766 1069 2766 1631 
L 2766 1759 
L 2194 1759 
z
M 3341 1997 
L 3341 0 
L 2766 0 
L 2766 531 
Q 2569 213 2275 61 
Q 1981 -91 1556 -91 
Q 1019 -91 701 211 
Q 384 513 384 1019 
Q 384 1609 779 1909 
Q 1175 2209 1959 2209 
L 2766 2209 
L 2766 2266 
Q 2766 2663 2505 2880 
Q 2244 3097 1772 3097 
Q 1472 3097 1187 3025 
Q 903 2953 641 2809 
L 641 3341 
Q 956 3463 1253 3523 
Q 1550 3584 1831 3584 
Q 2591 3584 2966 3190 
Q 3341 2797 3341 1997 
z
" transform="scale(0.015625)"/>
       <path id="DejaVuSans-63" d="M 3122 3366 
L 3122 2828 
Q 2878 2963 2633 3030 
Q 2388 3097 2138 3097 
Q 1578 3097 1268 2742 
Q 959 2388 959 1747 
Q 959 1106 1268 751 
Q 1578 397 2138 397 
Q 2388 397 2633 464 
Q 2878 531 3122 666 
L 3122 134 
Q 2881 22 2623 -34 
Q 2366 -91 2075 -91 
Q 1284 -91 818 406 
Q 353 903 353 1747 
Q 353 2603 823 3093 
Q 1294 3584 2113 3584 
Q 2378 3584 2631 3529 
Q 2884 3475 3122 3366 
z
" transform="scale(0.015625)"/>
       <path id="DejaVuSans-74" d="M 1172 4494 
L 1172 3500 
L 2356 3500 
L 2356 3053 
L 1172 3053 
L 1172 1153 
Q 1172 725 1289 603 
Q 1406 481 1766 481 
L 2356 481 
L 2356 0 
L 1766 0 
Q 1100 0 847 248 
Q 594 497 594 1153 
L 594 3053 
L 172 3053 
L 172 3500 
L 594 3500 
L 594 4494 
L 1172 4494 
z
" transform="scale(0.015625)"/>
       <path id="DejaVuSans-69" d="M 603 3500 
L 1178 3500 
L 1178 0 
L 603 0 
L 603 3500 
z
M 603 4863 
L 1178 4863 
L 1178 4134 
L 603 4134 
L 603 4863 
z
" transform="scale(0.015625)"/>
       <path id="DejaVuSans-6f" d="M 1959 3097 
Q 1497 3097 1228 2736 
Q 959 2375 959 1747 
Q 959 1119 1226 758 
Q 1494 397 1959 397 
Q 2419 397 2687 759 
Q 2956 1122 2956 1747 
Q 2956 2369 2687 2733 
Q 2419 3097 1959 3097 
z
M 1959 3584 
Q 2709 3584 3137 3096 
Q 3566 2609 3566 1747 
Q 3566 888 3137 398 
Q 2709 -91 1959 -91 
Q 1206 -91 779 398 
Q 353 888 353 1747 
Q 353 2609 779 3096 
Q 1206 3584 1959 3584 
z
" transform="scale(0.015625)"/>
       <path id="DejaVuSans-6e" d="M 3513 2113 
L 3513 0 
L 2938 0 
L 2938 2094 
Q 2938 2591 2744 2837 
Q 2550 3084 2163 3084 
Q 1697 3084 1428 2787 
Q 1159 2491 1159 1978 
L 1159 0 
L 581 0 
L 581 3500 
L 1159 3500 
L 1159 2956 
Q 1366 3272 1645 3428 
Q 1925 3584 2291 3584 
Q 2894 3584 3203 3211 
Q 3513 2838 3513 2113 
z
" transform="scale(0.015625)"/>
       <path id="DejaVuSans-20" transform="scale(0.015625)"/>
       <path id="DejaVuSans-66" d="M 2375 4863 
L 2375 4384 
L 1825 4384 
Q 1516 4384 1395 4259 
Q 1275 4134 1275 3809 
L 1275 3500 
L 2222 3500 
L 2222 3053 
L 1275 3053 
L 1275 0 
L 697 0 
L 697 3053 
L 147 3053 
L 147 3500 
L 697 3500 
L 697 3744 
Q 697 4328 969 4595 
Q 1241 4863 1831 4863 
L 2375 4863 
z
" transform="scale(0.015625)"/>
       <path id="DejaVuSans-65" d="M 3597 1894 
L 3597 1613 
L 953 1613 
Q 991 1019 1311 708 
Q 1631 397 2203 397 
Q 2534 397 2845 478 
Q 3156 559 3463 722 
L 3463 178 
Q 3153 47 2828 -22 
Q 2503 -91 2169 -91 
Q 1331 -91 842 396 
Q 353 884 353 1716 
Q 353 2575 817 3079 
Q 1281 3584 2069 3584 
Q 2775 3584 3186 3129 
Q 3597 2675 3597 1894 
z
M 3022 2063 
Q 3016 2534 2758 2815 
Q 2500 3097 2075 3097 
Q 1594 3097 1305 2825 
Q 1016 2553 972 2059 
L 3022 2063 
z
" transform="scale(0.015625)"/>
       <path id="DejaVuSans-6c" d="M 603 4863 
L 1178 4863 
L 1178 0 
L 603 0 
L 603 4863 
z
" transform="scale(0.015625)"/>
       <path id="DejaVuSans-73" d="M 2834 3397 
L 2834 2853 
Q 2591 2978 2328 3040 
Q 2066 3103 1784 3103 
Q 1356 3103 1142 2972 
Q 928 2841 928 2578 
Q 928 2378 1081 2264 
Q 1234 2150 1697 2047 
L 1894 2003 
Q 2506 1872 2764 1633 
Q 3022 1394 3022 966 
Q 3022 478 2636 193 
Q 2250 -91 1575 -91 
Q 1294 -91 989 -36 
Q 684 19 347 128 
L 347 722 
Q 666 556 975 473 
Q 1284 391 1588 391 
Q 1994 391 2212 530 
Q 2431 669 2431 922 
Q 2431 1156 2273 1281 
Q 2116 1406 1581 1522 
L 1381 1569 
Q 847 1681 609 1914 
Q 372 2147 372 2553 
Q 372 3047 722 3315 
Q 1072 3584 1716 3584 
Q 2034 3584 2315 3537 
Q 2597 3491 2834 3397 
z
" transform="scale(0.015625)"/>
      </defs>
      <use xlink:href="#DejaVuSans-46"/>
      <use xlink:href="#DejaVuSans-72" x="50.269531"/>
      <use xlink:href="#DejaVuSans-61" x="91.382812"/>
      <use xlink:href="#DejaVuSans-63" x="152.662109"/>
      <use xlink:href="#DejaVuSans-74" x="207.642578"/>
      <use xlink:href="#DejaVuSans-69" x="246.851562"/>
      <use xlink:href="#DejaVuSans-6f" x="274.634766"/>
      <use xlink:href="#DejaVuSans-6e" x="335.816406"/>
      <use xlink:href="#DejaVuSans-20" x="399.195312"/>
      <use xlink:href="#DejaVuSans-6f" x="430.982422"/>
      <use xlink:href="#DejaVuSans-66" x="492.164062"/>
      <use xlink:href="#DejaVuSans-20" x="527.369141"/>
      <use xlink:href="#DejaVuSans-63" x="559.15625"/>
      <use xlink:href="#DejaVuSans-65" x="614.136719"/>
      <use xlink:href="#DejaVuSans-6c" x="675.660156"/>
      <use xlink:href="#DejaVuSans-6c" x="703.443359"/>
      <use xlink:href="#DejaVuSans-73" x="731.226562"/>
     </g>
    </g>
   </g>
   <g id="line2d_16">
    <path d="M 62.363087 237.907772 
L 63.862244 236.219555 
L 65.361401 234.206579 
L 66.860559 231.837122 
L 68.475035 228.853038 
L 70.089512 225.388249 
L 71.819309 221.109406 
L 73.549106 216.214286 
L 75.394222 210.284566 
L 77.239339 203.600028 
L 79.199775 195.654164 
L 81.275531 186.293979 
L 83.581927 174.794693 
L 86.118962 160.959111 
L 89.463236 141.384684 
L 94.652626 110.968204 
L 96.843701 99.505628 
L 98.573498 91.566746 
L 100.072655 85.679036 
L 101.341173 81.515008 
L 102.494371 78.430903 
L 103.532249 76.250498 
L 104.454807 74.794815 
L 105.262045 73.89457 
L 106.069284 73.339743 
L 106.761203 73.13427 
L 107.453121 73.171892 
L 108.14504 73.445011 
L 108.836959 73.9445 
L 109.644197 74.799221 
L 110.566755 76.111375 
L 111.604633 77.977252 
L 112.873151 80.748532 
L 114.372308 84.594671 
L 116.332744 90.2921 
L 124.174489 113.878936 
L 126.019606 118.35211 
L 127.634083 121.718831 
L 129.24856 124.570299 
L 130.747717 126.788041 
L 132.362194 128.778856 
L 134.091991 130.562027 
L 136.629026 132.816861 
L 139.74266 135.630594 
L 141.587776 137.626274 
L 143.202253 139.700183 
L 144.81673 142.140746 
L 146.431207 144.979962 
L 148.161004 148.47275 
L 150.12144 152.971325 
L 152.312516 158.60305 
L 154.964871 166.096209 
L 158.655104 177.270823 
L 164.997692 196.505338 
L 167.765367 204.146274 
L 170.071762 209.87222 
L 172.032198 214.168789 
L 173.761995 217.466054 
L 175.376472 220.096027 
L 176.875629 222.140507 
L 178.374786 223.804823 
L 179.758624 225.01679 
L 181.142461 225.939321 
L 182.526298 226.602314 
L 184.025456 227.070843 
L 185.755252 227.358426 
L 187.946328 227.46963 
L 193.712317 227.634242 
L 195.788073 227.985204 
L 197.748509 228.537827 
L 199.824266 229.353163 
L 202.245981 230.553308 
L 205.820894 232.612658 
L 211.010284 235.581673 
L 214.123918 237.088 
L 217.122233 238.289806 
L 220.466506 239.385989 
L 224.733338 240.539772 
L 230.614647 241.889538 
L 235.804037 242.868397 
L 240.301509 243.490452 
L 244.79898 243.882986 
L 249.87305 244.096309 
L 255.869679 244.122239 
L 261.520348 243.935375 
L 266.363779 243.555739 
L 271.09189 242.956372 
L 284.814944 241.019732 
L 288.043898 240.921111 
L 291.272852 241.048339 
L 292.887328 241.190655 
L 292.887328 241.190655 
" clip-path="url(#p4b1b18ef9c)" style="fill: none; stroke: #1f77b4; stroke-width: 1.5; stroke-linecap: square"/>
   </g>
   <g id="line2d_17">
    <path d="M 62.363087 238.689311 
L 63.862244 237.233118 
L 65.361401 235.467874 
L 66.860559 233.350106 
L 68.359716 230.836389 
L 69.858873 227.88516 
L 71.35803 224.458812 
L 72.972507 220.201776 
L 74.702304 214.957649 
L 76.4321 208.99251 
L 78.277217 201.845169 
L 80.352973 192.892214 
L 82.774688 181.383576 
L 85.773003 165.96834 
L 93.845387 123.851919 
L 96.151783 113.335622 
L 98.112219 105.414612 
L 99.842016 99.339233 
L 101.341173 94.836835 
L 102.72501 91.347613 
L 103.993528 88.731477 
L 105.146726 86.845729 
L 106.184604 85.552561 
L 107.107162 84.724049 
L 108.02972 84.195442 
L 108.836959 83.976017 
L 109.644197 83.979869 
L 110.451436 84.202627 
L 111.373994 84.718506 
L 112.296552 85.504304 
L 113.33443 86.697835 
L 114.487628 88.388366 
L 115.756145 90.660742 
L 117.255303 93.852464 
L 118.86978 97.826835 
L 120.830216 103.269409 
L 123.367251 111.044211 
L 127.749403 125.373038 
L 131.900915 138.654899 
L 134.66859 146.794331 
L 137.090305 153.267084 
L 139.396701 158.81385 
L 141.587776 163.521247 
L 143.778852 167.706116 
L 145.969928 171.412856 
L 148.161004 174.698632 
L 150.467399 177.77346 
L 153.004435 180.793276 
L 156.002749 184.008621 
L 160.038941 187.985615 
L 170.302402 197.656057 
L 175.145832 201.994746 
L 178.605426 204.80281 
L 181.71906 207.050771 
L 185.063334 209.180696 
L 189.906764 211.957077 
L 194.288916 214.556638 
L 197.28723 216.600188 
L 200.054905 218.75579 
L 203.053219 221.381268 
L 207.089412 225.245633 
L 212.624761 230.524447 
L 215.392436 232.853947 
L 217.814151 234.608404 
L 220.005227 235.93149 
L 222.196303 236.992226 
L 224.387379 237.796602 
L 226.578455 238.364009 
L 228.88485 238.737201 
L 231.537205 238.934006 
L 234.650839 238.930999 
L 238.802351 238.689222 
L 248.027934 237.857437 
L 258.637354 236.989086 
L 262.904186 236.858904 
L 266.248459 236.971033 
L 269.362093 237.296516 
L 272.475727 237.846718 
L 276.050641 238.717541 
L 281.58599 240.338378 
L 287.236659 241.914256 
L 291.157532 242.771543 
L 292.887328 243.072923 
L 292.887328 243.072923 
" clip-path="url(#p4b1b18ef9c)" style="fill: none; stroke: #ff7f0e; stroke-width: 1.5; stroke-linecap: square"/>
   </g>
   <g id="line2d_18">
    <path d="M 62.363087 228.804266 
L 63.977564 225.493352 
L 65.592041 221.641899 
L 67.206518 217.201387 
L 68.936315 211.745291 
L 70.666111 205.5368 
L 72.511228 198.078939 
L 74.586984 188.698795 
L 76.893379 177.183842 
L 79.776374 161.569635 
L 88.079398 115.817524 
L 90.270474 105.373116 
L 92.11559 97.575313 
L 93.845387 91.216392 
L 95.344544 86.508802 
L 96.728382 82.852121 
L 97.996899 80.090033 
L 99.150097 78.068675 
L 100.187975 76.644212 
L 101.225853 75.587563 
L 102.148411 74.950747 
L 103.07097 74.591796 
L 103.878208 74.499987 
L 104.685447 74.610239 
L 105.608005 74.976752 
L 106.530563 75.59185 
L 107.568441 76.570324 
L 108.721639 77.998541 
L 109.990156 79.963373 
L 111.373994 82.548073 
L 112.873151 85.826332 
L 114.602948 90.159196 
L 116.678704 96.0083 
L 119.331059 104.221596 
L 127.980042 131.611352 
L 130.632397 138.942426 
L 133.284752 145.600473 
L 136.283066 152.499214 
L 140.780538 162.212857 
L 149.544841 180.587752 
L 153.119754 187.580312 
L 156.118069 192.981038 
L 159.001063 197.714723 
L 161.768738 201.837176 
L 164.651732 205.729379 
L 167.650047 209.402799 
L 170.879001 213.007124 
L 174.338594 216.533077 
L 177.682868 219.63285 
L 180.681182 222.125052 
L 183.448857 224.138731 
L 185.985892 225.710066 
L 188.407607 226.957504 
L 191.059962 228.067413 
L 194.288916 229.158674 
L 202.015341 231.663545 
L 205.359615 233.051861 
L 209.857086 235.1883 
L 215.623075 237.891063 
L 218.967349 239.210478 
L 222.080983 240.204774 
L 225.079297 240.934938 
L 228.192932 241.460701 
L 231.421885 241.779483 
L 235.458078 241.938707 
L 245.260259 242.220951 
L 249.98837 242.661196 
L 261.750988 243.8642 
L 267.286337 244.117591 
L 275.128082 244.227316 
L 292.887328 244.24373 
L 292.887328 244.24373 
" clip-path="url(#p4b1b18ef9c)" style="fill: none; stroke: #2ca02c; stroke-width: 1.5; stroke-linecap: square"/>
   </g>
   <g id="patch_63">
    <path d="M 50.836875 244.24375 
L 50.836875 22.318125 
" style="fill: none; stroke: #000000; stroke-width: 0.8; stroke-linejoin: miter; stroke-linecap: square"/>
   </g>
   <g id="patch_64">
    <path d="M 304.413541 244.24375 
L 304.413541 22.318125 
" style="fill: none; stroke: #000000; stroke-width: 0.8; stroke-linejoin: miter; stroke-linecap: square"/>
   </g>
   <g id="patch_65">
    <path d="M 50.836875 244.24375 
L 304.413541 244.24375 
" style="fill: none; stroke: #000000; stroke-width: 0.8; stroke-linejoin: miter; stroke-linecap: square"/>
   </g>
   <g id="patch_66">
    <path d="M 50.836875 22.318125 
L 304.413541 22.318125 
" style="fill: none; stroke: #000000; stroke-width: 0.8; stroke-linejoin: miter; stroke-linecap: square"/>
   </g>
   <g id="text_17">
    <!-- SRV -->
    <g transform="translate(165.872708 16.318125) scale(0.12 -0.12)">
     <defs>
      <path id="DejaVuSans-53" d="M 3425 4513 
L 3425 3897 
Q 3066 4069 2747 4153 
Q 2428 4238 2131 4238 
Q 1616 4238 1336 4038 
Q 1056 3838 1056 3469 
Q 1056 3159 1242 3001 
Q 1428 2844 1947 2747 
L 2328 2669 
Q 3034 2534 3370 2195 
Q 3706 1856 3706 1288 
Q 3706 609 3251 259 
Q 2797 -91 1919 -91 
Q 1588 -91 1214 -16 
Q 841 59 441 206 
L 441 856 
Q 825 641 1194 531 
Q 1563 422 1919 422 
Q 2459 422 2753 634 
Q 3047 847 3047 1241 
Q 3047 1584 2836 1778 
Q 2625 1972 2144 2069 
L 1759 2144 
Q 1053 2284 737 2584 
Q 422 2884 422 3419 
Q 422 4038 858 4394 
Q 1294 4750 2059 4750 
Q 2388 4750 2728 4690 
Q 3069 4631 3425 4513 
z
" transform="scale(0.015625)"/>
      <path id="DejaVuSans-52" d="M 2841 2188 
Q 3044 2119 3236 1894 
Q 3428 1669 3622 1275 
L 4263 0 
L 3584 0 
L 2988 1197 
Q 2756 1666 2539 1819 
Q 2322 1972 1947 1972 
L 1259 1972 
L 1259 0 
L 628 0 
L 628 4666 
L 2053 4666 
Q 2853 4666 3247 4331 
Q 3641 3997 3641 3322 
Q 3641 2881 3436 2590 
Q 3231 2300 2841 2188 
z
M 1259 4147 
L 1259 2491 
L 2053 2491 
Q 2509 2491 2742 2702 
Q 2975 2913 2975 3322 
Q 2975 3731 2742 3939 
Q 2509 4147 2053 4147 
L 1259 4147 
z
" transform="scale(0.015625)"/>
      <path id="DejaVuSans-56" d="M 1831 0 
L 50 4666 
L 709 4666 
L 2188 738 
L 3669 4666 
L 4325 4666 
L 2547 0 
L 1831 0 
z
" transform="scale(0.015625)"/>
     </defs>
     <use xlink:href="#DejaVuSans-53"/>
     <use xlink:href="#DejaVuSans-52" x="63.476562"/>
     <use xlink:href="#DejaVuSans-56" x="127.458984"/>
    </g>
   </g>
   <g id="legend_1">
    <g id="patch_67">
     <path d="M 176.529166 85.093125 
L 296.013541 85.093125 
Q 298.413541 85.093125 298.413541 82.693125 
L 298.413541 30.718125 
Q 298.413541 28.318125 296.013541 28.318125 
L 176.529166 28.318125 
Q 174.129166 28.318125 174.129166 30.718125 
L 174.129166 82.693125 
Q 174.129166 85.093125 176.529166 85.093125 
z
" style="fill: #ffffff; opacity: 0.8; stroke: #cccccc; stroke-linejoin: miter"/>
    </g>
    <g id="patch_68">
     <path d="M 178.929166 42.23625 
L 202.929166 42.23625 
L 202.929166 33.83625 
L 178.929166 33.83625 
z
" style="fill: #1f77b4; opacity: 0.4"/>
    </g>
    <g id="text_18">
     <!-- MCF10A -->
     <g transform="translate(212.529166 42.23625) scale(0.12 -0.12)">
      <defs>
       <path id="DejaVuSans-4d" d="M 628 4666 
L 1569 4666 
L 2759 1491 
L 3956 4666 
L 4897 4666 
L 4897 0 
L 4281 0 
L 4281 4097 
L 3078 897 
L 2444 897 
L 1241 4097 
L 1241 0 
L 628 0 
L 628 4666 
z
" transform="scale(0.015625)"/>
       <path id="DejaVuSans-43" d="M 4122 4306 
L 4122 3641 
Q 3803 3938 3442 4084 
Q 3081 4231 2675 4231 
Q 1875 4231 1450 3742 
Q 1025 3253 1025 2328 
Q 1025 1406 1450 917 
Q 1875 428 2675 428 
Q 3081 428 3442 575 
Q 3803 722 4122 1019 
L 4122 359 
Q 3791 134 3420 21 
Q 3050 -91 2638 -91 
Q 1578 -91 968 557 
Q 359 1206 359 2328 
Q 359 3453 968 4101 
Q 1578 4750 2638 4750 
Q 3056 4750 3426 4639 
Q 3797 4528 4122 4306 
z
" transform="scale(0.015625)"/>
       <path id="DejaVuSans-41" d="M 2188 4044 
L 1331 1722 
L 3047 1722 
L 2188 4044 
z
M 1831 4666 
L 2547 4666 
L 4325 0 
L 3669 0 
L 3244 1197 
L 1141 1197 
L 716 0 
L 50 0 
L 1831 4666 
z
" transform="scale(0.015625)"/>
      </defs>
      <use xlink:href="#DejaVuSans-4d"/>
      <use xlink:href="#DejaVuSans-43" x="86.279297"/>
      <use xlink:href="#DejaVuSans-46" x="156.103516"/>
      <use xlink:href="#DejaVuSans-31" x="213.623047"/>
      <use xlink:href="#DejaVuSans-30" x="277.246094"/>
      <use xlink:href="#DejaVuSans-41" x="340.869141"/>
     </g>
    </g>
    <g id="patch_69">
     <path d="M 178.929166 59.85 
L 202.929166 59.85 
L 202.929166 51.45 
L 178.929166 51.45 
z
" style="fill: #ff7f0e; opacity: 0.4"/>
    </g>
    <g id="text_19">
     <!-- MCF7 -->
     <g transform="translate(212.529166 59.85) scale(0.12 -0.12)">
      <defs>
       <path id="DejaVuSans-37" d="M 525 4666 
L 3525 4666 
L 3525 4397 
L 1831 0 
L 1172 0 
L 2766 4134 
L 525 4134 
L 525 4666 
z
" transform="scale(0.015625)"/>
      </defs>
      <use xlink:href="#DejaVuSans-4d"/>
      <use xlink:href="#DejaVuSans-43" x="86.279297"/>
      <use xlink:href="#DejaVuSans-46" x="156.103516"/>
      <use xlink:href="#DejaVuSans-37" x="213.623047"/>
     </g>
    </g>
    <g id="patch_70">
     <path d="M 178.929166 77.46375 
L 202.929166 77.46375 
L 202.929166 69.06375 
L 178.929166 69.06375 
z
" style="fill: #2ca02c; opacity: 0.4"/>
    </g>
    <g id="text_20">
     <!-- MDA_MB_231 -->
     <g transform="translate(212.529166 77.46375) scale(0.12 -0.12)">
      <defs>
       <path id="DejaVuSans-44" d="M 1259 4147 
L 1259 519 
L 2022 519 
Q 2988 519 3436 956 
Q 3884 1394 3884 2338 
Q 3884 3275 3436 3711 
Q 2988 4147 2022 4147 
L 1259 4147 
z
M 628 4666 
L 1925 4666 
Q 3281 4666 3915 4102 
Q 4550 3538 4550 2338 
Q 4550 1131 3912 565 
Q 3275 0 1925 0 
L 628 0 
L 628 4666 
z
" transform="scale(0.015625)"/>
       <path id="DejaVuSans-5f" d="M 3263 -1063 
L 3263 -1509 
L -63 -1509 
L -63 -1063 
L 3263 -1063 
z
" transform="scale(0.015625)"/>
       <path id="DejaVuSans-42" d="M 1259 2228 
L 1259 519 
L 2272 519 
Q 2781 519 3026 730 
Q 3272 941 3272 1375 
Q 3272 1813 3026 2020 
Q 2781 2228 2272 2228 
L 1259 2228 
z
M 1259 4147 
L 1259 2741 
L 2194 2741 
Q 2656 2741 2882 2914 
Q 3109 3088 3109 3444 
Q 3109 3797 2882 3972 
Q 2656 4147 2194 4147 
L 1259 4147 
z
M 628 4666 
L 2241 4666 
Q 2963 4666 3353 4366 
Q 3744 4066 3744 3513 
Q 3744 3084 3544 2831 
Q 3344 2578 2956 2516 
Q 3422 2416 3680 2098 
Q 3938 1781 3938 1306 
Q 3938 681 3513 340 
Q 3088 0 2303 0 
L 628 0 
L 628 4666 
z
" transform="scale(0.015625)"/>
      </defs>
      <use xlink:href="#DejaVuSans-4d"/>
      <use xlink:href="#DejaVuSans-44" x="86.279297"/>
      <use xlink:href="#DejaVuSans-41" x="161.53125"/>
      <use xlink:href="#DejaVuSans-5f" x="229.939453"/>
      <use xlink:href="#DejaVuSans-4d" x="279.939453"/>
      <use xlink:href="#DejaVuSans-42" x="366.21875"/>
      <use xlink:href="#DejaVuSans-5f" x="434.822266"/>
      <use xlink:href="#DejaVuSans-32" x="484.822266"/>
      <use xlink:href="#DejaVuSans-33" x="548.445312"/>
      <use xlink:href="#DejaVuSans-31" x="612.068359"/>
     </g>
    </g>
   </g>
  </g>
  <g id="axes_2">
   <g id="patch_71">
    <path d="M 378.704442 244.24375 
L 632.281107 244.24375 
L 632.281107 22.318125 
L 378.704442 22.318125 
z
" style="fill: #ffffff"/>
   </g>
   <g id="patch_72">
    <path d="M 390.230654 244.24375 
L 401.756866 244.24375 
L 401.756866 122.162929 
L 390.230654 122.162929 
z
" clip-path="url(#p22c206e9bd)" style="fill: #1f77b4; opacity: 0.4"/>
   </g>
   <g id="patch_73">
    <path d="M 401.756866 244.24375 
L 413.283078 244.24375 
L 413.283078 152.147692 
L 401.756866 152.147692 
z
" clip-path="url(#p22c206e9bd)" style="fill: #1f77b4; opacity: 0.4"/>
   </g>
   <g id="patch_74">
    <path d="M 413.283078 244.24375 
L 424.80929 244.24375 
L 424.80929 227.1096 
L 413.283078 227.1096 
z
" clip-path="url(#p22c206e9bd)" style="fill: #1f77b4; opacity: 0.4"/>
   </g>
   <g id="patch_75">
    <path d="M 424.80929 244.24375 
L 436.335502 244.24375 
L 436.335502 239.960212 
L 424.80929 239.960212 
z
" clip-path="url(#p22c206e9bd)" style="fill: #1f77b4; opacity: 0.4"/>
   </g>
   <g id="patch_76">
    <path d="M 436.335502 244.24375 
L 447.861714 244.24375 
L 447.861714 241.031097 
L 436.335502 241.031097 
z
" clip-path="url(#p22c206e9bd)" style="fill: #1f77b4; opacity: 0.4"/>
   </g>
   <g id="patch_77">
    <path d="M 447.861714 244.24375 
L 459.387926 244.24375 
L 459.387926 242.101981 
L 447.861714 242.101981 
z
" clip-path="url(#p22c206e9bd)" style="fill: #1f77b4; opacity: 0.4"/>
   </g>
   <g id="patch_78">
    <path d="M 459.387926 244.24375 
L 470.914138 244.24375 
L 470.914138 244.24375 
L 459.387926 244.24375 
z
" clip-path="url(#p22c206e9bd)" style="fill: #1f77b4; opacity: 0.4"/>
   </g>
   <g id="patch_79">
    <path d="M 470.914138 244.24375 
L 482.440351 244.24375 
L 482.440351 244.24375 
L 470.914138 244.24375 
z
" clip-path="url(#p22c206e9bd)" style="fill: #1f77b4; opacity: 0.4"/>
   </g>
   <g id="patch_80">
    <path d="M 482.440351 244.24375 
L 493.966563 244.24375 
L 493.966563 244.24375 
L 482.440351 244.24375 
z
" clip-path="url(#p22c206e9bd)" style="fill: #1f77b4; opacity: 0.4"/>
   </g>
   <g id="patch_81">
    <path d="M 493.966563 244.24375 
L 505.492775 244.24375 
L 505.492775 243.172866 
L 493.966563 243.172866 
z
" clip-path="url(#p22c206e9bd)" style="fill: #1f77b4; opacity: 0.4"/>
   </g>
   <g id="patch_82">
    <path d="M 505.492775 244.24375 
L 517.018987 244.24375 
L 517.018987 244.24375 
L 505.492775 244.24375 
z
" clip-path="url(#p22c206e9bd)" style="fill: #1f77b4; opacity: 0.4"/>
   </g>
   <g id="patch_83">
    <path d="M 517.018987 244.24375 
L 528.545199 244.24375 
L 528.545199 244.24375 
L 517.018987 244.24375 
z
" clip-path="url(#p22c206e9bd)" style="fill: #1f77b4; opacity: 0.4"/>
   </g>
   <g id="patch_84">
    <path d="M 528.545199 244.24375 
L 540.071411 244.24375 
L 540.071411 244.24375 
L 528.545199 244.24375 
z
" clip-path="url(#p22c206e9bd)" style="fill: #1f77b4; opacity: 0.4"/>
   </g>
   <g id="patch_85">
    <path d="M 540.071411 244.24375 
L 551.597623 244.24375 
L 551.597623 244.24375 
L 540.071411 244.24375 
z
" clip-path="url(#p22c206e9bd)" style="fill: #1f77b4; opacity: 0.4"/>
   </g>
   <g id="patch_86">
    <path d="M 551.597623 244.24375 
L 563.123835 244.24375 
L 563.123835 244.24375 
L 551.597623 244.24375 
z
" clip-path="url(#p22c206e9bd)" style="fill: #1f77b4; opacity: 0.4"/>
   </g>
   <g id="patch_87">
    <path d="M 563.123835 244.24375 
L 574.650047 244.24375 
L 574.650047 244.24375 
L 563.123835 244.24375 
z
" clip-path="url(#p22c206e9bd)" style="fill: #1f77b4; opacity: 0.4"/>
   </g>
   <g id="patch_88">
    <path d="M 574.650047 244.24375 
L 586.176259 244.24375 
L 586.176259 244.24375 
L 574.650047 244.24375 
z
" clip-path="url(#p22c206e9bd)" style="fill: #1f77b4; opacity: 0.4"/>
   </g>
   <g id="patch_89">
    <path d="M 586.176259 244.24375 
L 597.702471 244.24375 
L 597.702471 244.24375 
L 586.176259 244.24375 
z
" clip-path="url(#p22c206e9bd)" style="fill: #1f77b4; opacity: 0.4"/>
   </g>
   <g id="patch_90">
    <path d="M 597.702471 244.24375 
L 609.228683 244.24375 
L 609.228683 244.24375 
L 597.702471 244.24375 
z
" clip-path="url(#p22c206e9bd)" style="fill: #1f77b4; opacity: 0.4"/>
   </g>
   <g id="patch_91">
    <path d="M 609.228683 244.24375 
L 620.754895 244.24375 
L 620.754895 243.172866 
L 609.228683 243.172866 
z
" clip-path="url(#p22c206e9bd)" style="fill: #1f77b4; opacity: 0.4"/>
   </g>
   <g id="patch_92">
    <path d="M 392.099387 244.24375 
L 394.229935 244.24375 
L 394.229935 179.662219 
L 392.099387 179.662219 
z
" clip-path="url(#p22c206e9bd)" style="fill: #ff7f0e; opacity: 0.4"/>
   </g>
   <g id="patch_93">
    <path d="M 394.229935 244.24375 
L 396.360484 244.24375 
L 396.360484 115.080687 
L 394.229935 115.080687 
z
" clip-path="url(#p22c206e9bd)" style="fill: #ff7f0e; opacity: 0.4"/>
   </g>
   <g id="patch_94">
    <path d="M 396.360484 244.24375 
L 398.491032 244.24375 
L 398.491032 32.886012 
L 396.360484 32.886012 
z
" clip-path="url(#p22c206e9bd)" style="fill: #ff7f0e; opacity: 0.4"/>
   </g>
   <g id="patch_95">
    <path d="M 398.491032 244.24375 
L 400.62158 244.24375 
L 400.62158 50.499156 
L 398.491032 50.499156 
z
" clip-path="url(#p22c206e9bd)" style="fill: #ff7f0e; opacity: 0.4"/>
   </g>
   <g id="patch_96">
    <path d="M 400.62158 244.24375 
L 402.752128 244.24375 
L 402.752128 126.822784 
L 400.62158 126.822784 
z
" clip-path="url(#p22c206e9bd)" style="fill: #ff7f0e; opacity: 0.4"/>
   </g>
   <g id="patch_97">
    <path d="M 402.752128 244.24375 
L 404.882677 244.24375 
L 404.882677 85.725446 
L 402.752128 85.725446 
z
" clip-path="url(#p22c206e9bd)" style="fill: #ff7f0e; opacity: 0.4"/>
   </g>
   <g id="patch_98">
    <path d="M 404.882677 244.24375 
L 407.013225 244.24375 
L 407.013225 132.693833 
L 404.882677 132.693833 
z
" clip-path="url(#p22c206e9bd)" style="fill: #ff7f0e; opacity: 0.4"/>
   </g>
   <g id="patch_99">
    <path d="M 407.013225 244.24375 
L 409.143773 244.24375 
L 409.143773 156.178025 
L 407.013225 156.178025 
z
" clip-path="url(#p22c206e9bd)" style="fill: #ff7f0e; opacity: 0.4"/>
   </g>
   <g id="patch_100">
    <path d="M 409.143773 244.24375 
L 411.274322 244.24375 
L 411.274322 167.920122 
L 409.143773 167.920122 
z
" clip-path="url(#p22c206e9bd)" style="fill: #ff7f0e; opacity: 0.4"/>
   </g>
   <g id="patch_101">
    <path d="M 411.274322 244.24375 
L 413.40487 244.24375 
L 413.40487 209.01746 
L 411.274322 209.01746 
z
" clip-path="url(#p22c206e9bd)" style="fill: #ff7f0e; opacity: 0.4"/>
   </g>
   <g id="patch_102">
    <path d="M 413.40487 244.24375 
L 415.535418 244.24375 
L 415.535418 232.501653 
L 413.40487 232.501653 
z
" clip-path="url(#p22c206e9bd)" style="fill: #ff7f0e; opacity: 0.4"/>
   </g>
   <g id="patch_103">
    <path d="M 415.535418 244.24375 
L 417.665966 244.24375 
L 417.665966 214.888509 
L 415.535418 214.888509 
z
" clip-path="url(#p22c206e9bd)" style="fill: #ff7f0e; opacity: 0.4"/>
   </g>
   <g id="patch_104">
    <path d="M 417.665966 244.24375 
L 419.796515 244.24375 
L 419.796515 226.630605 
L 417.665966 226.630605 
z
" clip-path="url(#p22c206e9bd)" style="fill: #ff7f0e; opacity: 0.4"/>
   </g>
   <g id="patch_105">
    <path d="M 419.796515 244.24375 
L 421.927063 244.24375 
L 421.927063 232.501653 
L 419.796515 232.501653 
z
" clip-path="url(#p22c206e9bd)" style="fill: #ff7f0e; opacity: 0.4"/>
   </g>
   <g id="patch_106">
    <path d="M 421.927063 244.24375 
L 424.057611 244.24375 
L 424.057611 232.501653 
L 421.927063 232.501653 
z
" clip-path="url(#p22c206e9bd)" style="fill: #ff7f0e; opacity: 0.4"/>
   </g>
   <g id="patch_107">
    <path d="M 424.057611 244.24375 
L 426.18816 244.24375 
L 426.18816 226.630605 
L 424.057611 226.630605 
z
" clip-path="url(#p22c206e9bd)" style="fill: #ff7f0e; opacity: 0.4"/>
   </g>
   <g id="patch_108">
    <path d="M 426.18816 244.24375 
L 428.318708 244.24375 
L 428.318708 244.24375 
L 426.18816 244.24375 
z
" clip-path="url(#p22c206e9bd)" style="fill: #ff7f0e; opacity: 0.4"/>
   </g>
   <g id="patch_109">
    <path d="M 428.318708 244.24375 
L 430.449256 244.24375 
L 430.449256 238.372702 
L 428.318708 238.372702 
z
" clip-path="url(#p22c206e9bd)" style="fill: #ff7f0e; opacity: 0.4"/>
   </g>
   <g id="patch_110">
    <path d="M 430.449256 244.24375 
L 432.579804 244.24375 
L 432.579804 232.501653 
L 430.449256 232.501653 
z
" clip-path="url(#p22c206e9bd)" style="fill: #ff7f0e; opacity: 0.4"/>
   </g>
   <g id="patch_111">
    <path d="M 432.579804 244.24375 
L 434.710353 244.24375 
L 434.710353 232.501653 
L 432.579804 232.501653 
z
" clip-path="url(#p22c206e9bd)" style="fill: #ff7f0e; opacity: 0.4"/>
   </g>
   <g id="patch_112">
    <path d="M 390.654448 244.24375 
L 401.820383 244.24375 
L 401.820383 126.688954 
L 390.654448 126.688954 
z
" clip-path="url(#p22c206e9bd)" style="fill: #2ca02c; opacity: 0.4"/>
   </g>
   <g id="patch_113">
    <path d="M 401.820383 244.24375 
L 412.986317 244.24375 
L 412.986317 152.686649 
L 401.820383 152.686649 
z
" clip-path="url(#p22c206e9bd)" style="fill: #2ca02c; opacity: 0.4"/>
   </g>
   <g id="patch_114">
    <path d="M 412.986317 244.24375 
L 424.152251 244.24375 
L 424.152251 217.11572 
L 412.986317 217.11572 
z
" clip-path="url(#p22c206e9bd)" style="fill: #2ca02c; opacity: 0.4"/>
   </g>
   <g id="patch_115">
    <path d="M 424.152251 244.24375 
L 435.318185 244.24375 
L 435.318185 237.461743 
L 424.152251 237.461743 
z
" clip-path="url(#p22c206e9bd)" style="fill: #2ca02c; opacity: 0.4"/>
   </g>
   <g id="patch_116">
    <path d="M 435.318185 244.24375 
L 446.484119 244.24375 
L 446.484119 241.983081 
L 435.318185 241.983081 
z
" clip-path="url(#p22c206e9bd)" style="fill: #2ca02c; opacity: 0.4"/>
   </g>
   <g id="patch_117">
    <path d="M 446.484119 244.24375 
L 457.650054 244.24375 
L 457.650054 244.24375 
L 446.484119 244.24375 
z
" clip-path="url(#p22c206e9bd)" style="fill: #2ca02c; opacity: 0.4"/>
   </g>
   <g id="patch_118">
    <path d="M 457.650054 244.24375 
L 468.815988 244.24375 
L 468.815988 244.24375 
L 457.650054 244.24375 
z
" clip-path="url(#p22c206e9bd)" style="fill: #2ca02c; opacity: 0.4"/>
   </g>
   <g id="patch_119">
    <path d="M 468.815988 244.24375 
L 479.981922 244.24375 
L 479.981922 243.113415 
L 468.815988 243.113415 
z
" clip-path="url(#p22c206e9bd)" style="fill: #2ca02c; opacity: 0.4"/>
   </g>
   <g id="patch_120">
    <path d="M 479.981922 244.24375 
L 491.147856 244.24375 
L 491.147856 243.113415 
L 479.981922 243.113415 
z
" clip-path="url(#p22c206e9bd)" style="fill: #2ca02c; opacity: 0.4"/>
   </g>
   <g id="patch_121">
    <path d="M 491.147856 244.24375 
L 502.313791 244.24375 
L 502.313791 244.24375 
L 491.147856 244.24375 
z
" clip-path="url(#p22c206e9bd)" style="fill: #2ca02c; opacity: 0.4"/>
   </g>
   <g id="patch_122">
    <path d="M 502.313791 244.24375 
L 513.479725 244.24375 
L 513.479725 243.113415 
L 502.313791 243.113415 
z
" clip-path="url(#p22c206e9bd)" style="fill: #2ca02c; opacity: 0.4"/>
   </g>
   <g id="patch_123">
    <path d="M 513.479725 244.24375 
L 524.645659 244.24375 
L 524.645659 244.24375 
L 513.479725 244.24375 
z
" clip-path="url(#p22c206e9bd)" style="fill: #2ca02c; opacity: 0.4"/>
   </g>
   <g id="patch_124">
    <path d="M 524.645659 244.24375 
L 535.811593 244.24375 
L 535.811593 244.24375 
L 524.645659 244.24375 
z
" clip-path="url(#p22c206e9bd)" style="fill: #2ca02c; opacity: 0.4"/>
   </g>
   <g id="patch_125">
    <path d="M 535.811593 244.24375 
L 546.977527 244.24375 
L 546.977527 244.24375 
L 535.811593 244.24375 
z
" clip-path="url(#p22c206e9bd)" style="fill: #2ca02c; opacity: 0.4"/>
   </g>
   <g id="patch_126">
    <path d="M 546.977527 244.24375 
L 558.143462 244.24375 
L 558.143462 243.113415 
L 546.977527 243.113415 
z
" clip-path="url(#p22c206e9bd)" style="fill: #2ca02c; opacity: 0.4"/>
   </g>
   <g id="patch_127">
    <path d="M 558.143462 244.24375 
L 569.309396 244.24375 
L 569.309396 244.24375 
L 558.143462 244.24375 
z
" clip-path="url(#p22c206e9bd)" style="fill: #2ca02c; opacity: 0.4"/>
   </g>
   <g id="patch_128">
    <path d="M 569.309396 244.24375 
L 580.47533 244.24375 
L 580.47533 244.24375 
L 569.309396 244.24375 
z
" clip-path="url(#p22c206e9bd)" style="fill: #2ca02c; opacity: 0.4"/>
   </g>
   <g id="patch_129">
    <path d="M 580.47533 244.24375 
L 591.641264 244.24375 
L 591.641264 244.24375 
L 580.47533 244.24375 
z
" clip-path="url(#p22c206e9bd)" style="fill: #2ca02c; opacity: 0.4"/>
   </g>
   <g id="patch_130">
    <path d="M 591.641264 244.24375 
L 602.807199 244.24375 
L 602.807199 244.24375 
L 591.641264 244.24375 
z
" clip-path="url(#p22c206e9bd)" style="fill: #2ca02c; opacity: 0.4"/>
   </g>
   <g id="patch_131">
    <path d="M 602.807199 244.24375 
L 613.973133 244.24375 
L 613.973133 243.113415 
L 602.807199 243.113415 
z
" clip-path="url(#p22c206e9bd)" style="fill: #2ca02c; opacity: 0.4"/>
   </g>
   <g id="matplotlib.axis_3">
    <g id="xtick_8">
     <g id="line2d_19">
      <g>
       <use xlink:href="#m5425eccf56" x="380.552975" y="244.24375" style="stroke: #000000; stroke-width: 0.8"/>
      </g>
     </g>
     <g id="text_21">
      <!-- 0.0054 -->
      <g transform="translate(363.057662 258.842188) scale(0.1 -0.1)">
       <use xlink:href="#DejaVuSans-30"/>
       <use xlink:href="#DejaVuSans-2e" x="63.623047"/>
       <use xlink:href="#DejaVuSans-30" x="95.410156"/>
       <use xlink:href="#DejaVuSans-30" x="159.033203"/>
       <use xlink:href="#DejaVuSans-35" x="222.65625"/>
       <use xlink:href="#DejaVuSans-34" x="286.279297"/>
      </g>
     </g>
    </g>
    <g id="xtick_9">
     <g id="line2d_20">
      <g>
       <use xlink:href="#m5425eccf56" x="419.512735" y="244.24375" style="stroke: #000000; stroke-width: 0.8"/>
      </g>
     </g>
     <g id="text_22">
      <!-- 0.0056 -->
      <g transform="translate(402.017423 258.842188) scale(0.1 -0.1)">
       <use xlink:href="#DejaVuSans-30"/>
       <use xlink:href="#DejaVuSans-2e" x="63.623047"/>
       <use xlink:href="#DejaVuSans-30" x="95.410156"/>
       <use xlink:href="#DejaVuSans-30" x="159.033203"/>
       <use xlink:href="#DejaVuSans-35" x="222.65625"/>
       <use xlink:href="#DejaVuSans-36" x="286.279297"/>
      </g>
     </g>
    </g>
    <g id="xtick_10">
     <g id="line2d_21">
      <g>
       <use xlink:href="#m5425eccf56" x="458.472496" y="244.24375" style="stroke: #000000; stroke-width: 0.8"/>
      </g>
     </g>
     <g id="text_23">
      <!-- 0.0058 -->
      <g transform="translate(440.977183 258.842188) scale(0.1 -0.1)">
       <use xlink:href="#DejaVuSans-30"/>
       <use xlink:href="#DejaVuSans-2e" x="63.623047"/>
       <use xlink:href="#DejaVuSans-30" x="95.410156"/>
       <use xlink:href="#DejaVuSans-30" x="159.033203"/>
       <use xlink:href="#DejaVuSans-35" x="222.65625"/>
       <use xlink:href="#DejaVuSans-38" x="286.279297"/>
      </g>
     </g>
    </g>
    <g id="xtick_11">
     <g id="line2d_22">
      <g>
       <use xlink:href="#m5425eccf56" x="497.432256" y="244.24375" style="stroke: #000000; stroke-width: 0.8"/>
      </g>
     </g>
     <g id="text_24">
      <!-- 0.0060 -->
      <g transform="translate(479.936944 258.842188) scale(0.1 -0.1)">
       <use xlink:href="#DejaVuSans-30"/>
       <use xlink:href="#DejaVuSans-2e" x="63.623047"/>
       <use xlink:href="#DejaVuSans-30" x="95.410156"/>
       <use xlink:href="#DejaVuSans-30" x="159.033203"/>
       <use xlink:href="#DejaVuSans-36" x="222.65625"/>
       <use xlink:href="#DejaVuSans-30" x="286.279297"/>
      </g>
     </g>
    </g>
    <g id="xtick_12">
     <g id="line2d_23">
      <g>
       <use xlink:href="#m5425eccf56" x="536.392017" y="244.24375" style="stroke: #000000; stroke-width: 0.8"/>
      </g>
     </g>
     <g id="text_25">
      <!-- 0.0062 -->
      <g transform="translate(518.896704 258.842188) scale(0.1 -0.1)">
       <use xlink:href="#DejaVuSans-30"/>
       <use xlink:href="#DejaVuSans-2e" x="63.623047"/>
       <use xlink:href="#DejaVuSans-30" x="95.410156"/>
       <use xlink:href="#DejaVuSans-30" x="159.033203"/>
       <use xlink:href="#DejaVuSans-36" x="222.65625"/>
       <use xlink:href="#DejaVuSans-32" x="286.279297"/>
      </g>
     </g>
    </g>
    <g id="xtick_13">
     <g id="line2d_24">
      <g>
       <use xlink:href="#m5425eccf56" x="575.351777" y="244.24375" style="stroke: #000000; stroke-width: 0.8"/>
      </g>
     </g>
     <g id="text_26">
      <!-- 0.0064 -->
      <g transform="translate(557.856465 258.842188) scale(0.1 -0.1)">
       <use xlink:href="#DejaVuSans-30"/>
       <use xlink:href="#DejaVuSans-2e" x="63.623047"/>
       <use xlink:href="#DejaVuSans-30" x="95.410156"/>
       <use xlink:href="#DejaVuSans-30" x="159.033203"/>
       <use xlink:href="#DejaVuSans-36" x="222.65625"/>
       <use xlink:href="#DejaVuSans-34" x="286.279297"/>
      </g>
     </g>
    </g>
    <g id="xtick_14">
     <g id="line2d_25">
      <g>
       <use xlink:href="#m5425eccf56" x="614.311538" y="244.24375" style="stroke: #000000; stroke-width: 0.8"/>
      </g>
     </g>
     <g id="text_27">
      <!-- 0.0066 -->
      <g transform="translate(596.816225 258.842188) scale(0.1 -0.1)">
       <use xlink:href="#DejaVuSans-30"/>
       <use xlink:href="#DejaVuSans-2e" x="63.623047"/>
       <use xlink:href="#DejaVuSans-30" x="95.410156"/>
       <use xlink:href="#DejaVuSans-30" x="159.033203"/>
       <use xlink:href="#DejaVuSans-36" x="222.65625"/>
       <use xlink:href="#DejaVuSans-36" x="286.279297"/>
      </g>
     </g>
    </g>
    <g id="text_28">
     <!-- +4.4732e2 -->
     <g transform="translate(576.39517 271.520312) scale(0.1 -0.1)">
      <defs>
       <path id="DejaVuSans-2b" d="M 2944 4013 
L 2944 2272 
L 4684 2272 
L 4684 1741 
L 2944 1741 
L 2944 0 
L 2419 0 
L 2419 1741 
L 678 1741 
L 678 2272 
L 2419 2272 
L 2419 4013 
L 2944 4013 
z
" transform="scale(0.015625)"/>
      </defs>
      <use xlink:href="#DejaVuSans-2b"/>
      <use xlink:href="#DejaVuSans-34" x="83.789062"/>
      <use xlink:href="#DejaVuSans-2e" x="147.412109"/>
      <use xlink:href="#DejaVuSans-34" x="179.199219"/>
      <use xlink:href="#DejaVuSans-37" x="242.822266"/>
      <use xlink:href="#DejaVuSans-33" x="306.445312"/>
      <use xlink:href="#DejaVuSans-32" x="370.068359"/>
      <use xlink:href="#DejaVuSans-65" x="433.691406"/>
      <use xlink:href="#DejaVuSans-32" x="495.214844"/>
     </g>
    </g>
   </g>
   <g id="matplotlib.axis_4">
    <g id="ytick_9">
     <g id="line2d_26">
      <g>
       <use xlink:href="#m9f7359572a" x="378.704442" y="244.24375" style="stroke: #000000; stroke-width: 0.8"/>
      </g>
     </g>
     <g id="text_29">
      <!-- 0 -->
      <g transform="translate(365.341942 248.042969) scale(0.1 -0.1)">
       <use xlink:href="#DejaVuSans-30"/>
      </g>
     </g>
    </g>
    <g id="ytick_10">
     <g id="line2d_27">
      <g>
       <use xlink:href="#m9f7359572a" x="378.704442" y="215.476472" style="stroke: #000000; stroke-width: 0.8"/>
      </g>
     </g>
     <g id="text_30">
      <!-- 2000 -->
      <g transform="translate(346.254442 219.275691) scale(0.1 -0.1)">
       <use xlink:href="#DejaVuSans-32"/>
       <use xlink:href="#DejaVuSans-30" x="63.623047"/>
       <use xlink:href="#DejaVuSans-30" x="127.246094"/>
       <use xlink:href="#DejaVuSans-30" x="190.869141"/>
      </g>
     </g>
    </g>
    <g id="ytick_11">
     <g id="line2d_28">
      <g>
       <use xlink:href="#m9f7359572a" x="378.704442" y="186.709195" style="stroke: #000000; stroke-width: 0.8"/>
      </g>
     </g>
     <g id="text_31">
      <!-- 4000 -->
      <g transform="translate(346.254442 190.508413) scale(0.1 -0.1)">
       <use xlink:href="#DejaVuSans-34"/>
       <use xlink:href="#DejaVuSans-30" x="63.623047"/>
       <use xlink:href="#DejaVuSans-30" x="127.246094"/>
       <use xlink:href="#DejaVuSans-30" x="190.869141"/>
      </g>
     </g>
    </g>
    <g id="ytick_12">
     <g id="line2d_29">
      <g>
       <use xlink:href="#m9f7359572a" x="378.704442" y="157.941917" style="stroke: #000000; stroke-width: 0.8"/>
      </g>
     </g>
     <g id="text_32">
      <!-- 6000 -->
      <g transform="translate(346.254442 161.741136) scale(0.1 -0.1)">
       <use xlink:href="#DejaVuSans-36"/>
       <use xlink:href="#DejaVuSans-30" x="63.623047"/>
       <use xlink:href="#DejaVuSans-30" x="127.246094"/>
       <use xlink:href="#DejaVuSans-30" x="190.869141"/>
      </g>
     </g>
    </g>
    <g id="ytick_13">
     <g id="line2d_30">
      <g>
       <use xlink:href="#m9f7359572a" x="378.704442" y="129.174639" style="stroke: #000000; stroke-width: 0.8"/>
      </g>
     </g>
     <g id="text_33">
      <!-- 8000 -->
      <g transform="translate(346.254442 132.973858) scale(0.1 -0.1)">
       <use xlink:href="#DejaVuSans-38"/>
       <use xlink:href="#DejaVuSans-30" x="63.623047"/>
       <use xlink:href="#DejaVuSans-30" x="127.246094"/>
       <use xlink:href="#DejaVuSans-30" x="190.869141"/>
      </g>
     </g>
    </g>
    <g id="ytick_14">
     <g id="line2d_31">
      <g>
       <use xlink:href="#m9f7359572a" x="378.704442" y="100.407362" style="stroke: #000000; stroke-width: 0.8"/>
      </g>
     </g>
     <g id="text_34">
      <!-- 10000 -->
      <g transform="translate(339.891942 104.20658) scale(0.1 -0.1)">
       <use xlink:href="#DejaVuSans-31"/>
       <use xlink:href="#DejaVuSans-30" x="63.623047"/>
       <use xlink:href="#DejaVuSans-30" x="127.246094"/>
       <use xlink:href="#DejaVuSans-30" x="190.869141"/>
       <use xlink:href="#DejaVuSans-30" x="254.492188"/>
      </g>
     </g>
    </g>
    <g id="ytick_15">
     <g id="line2d_32">
      <g>
       <use xlink:href="#m9f7359572a" x="378.704442" y="71.640084" style="stroke: #000000; stroke-width: 0.8"/>
      </g>
     </g>
     <g id="text_35">
      <!-- 12000 -->
      <g transform="translate(339.891942 75.439303) scale(0.1 -0.1)">
       <use xlink:href="#DejaVuSans-31"/>
       <use xlink:href="#DejaVuSans-32" x="63.623047"/>
       <use xlink:href="#DejaVuSans-30" x="127.246094"/>
       <use xlink:href="#DejaVuSans-30" x="190.869141"/>
       <use xlink:href="#DejaVuSans-30" x="254.492188"/>
      </g>
     </g>
    </g>
    <g id="ytick_16">
     <g id="line2d_33">
      <g>
       <use xlink:href="#m9f7359572a" x="378.704442" y="42.872806" style="stroke: #000000; stroke-width: 0.8"/>
      </g>
     </g>
     <g id="text_36">
      <!-- 14000 -->
      <g transform="translate(339.891942 46.672025) scale(0.1 -0.1)">
       <use xlink:href="#DejaVuSans-31"/>
       <use xlink:href="#DejaVuSans-34" x="63.623047"/>
       <use xlink:href="#DejaVuSans-30" x="127.246094"/>
       <use xlink:href="#DejaVuSans-30" x="190.869141"/>
       <use xlink:href="#DejaVuSans-30" x="254.492188"/>
      </g>
     </g>
    </g>
    <g id="text_37">
     <!-- Fraction of cells -->
     <g transform="translate(332.980379 188.112812) rotate(-90) scale(0.14 -0.14)">
      <use xlink:href="#DejaVuSans-46"/>
      <use xlink:href="#DejaVuSans-72" x="50.269531"/>
      <use xlink:href="#DejaVuSans-61" x="91.382812"/>
      <use xlink:href="#DejaVuSans-63" x="152.662109"/>
      <use xlink:href="#DejaVuSans-74" x="207.642578"/>
      <use xlink:href="#DejaVuSans-69" x="246.851562"/>
      <use xlink:href="#DejaVuSans-6f" x="274.634766"/>
      <use xlink:href="#DejaVuSans-6e" x="335.816406"/>
      <use xlink:href="#DejaVuSans-20" x="399.195312"/>
      <use xlink:href="#DejaVuSans-6f" x="430.982422"/>
      <use xlink:href="#DejaVuSans-66" x="492.164062"/>
      <use xlink:href="#DejaVuSans-20" x="527.369141"/>
      <use xlink:href="#DejaVuSans-63" x="559.15625"/>
      <use xlink:href="#DejaVuSans-65" x="614.136719"/>
      <use xlink:href="#DejaVuSans-6c" x="675.660156"/>
      <use xlink:href="#DejaVuSans-6c" x="703.443359"/>
      <use xlink:href="#DejaVuSans-73" x="731.226562"/>
     </g>
    </g>
   </g>
   <g id="line2d_34">
    <path d="M 390.230654 188.158138 
L 394.612806 151.857421 
L 395.881323 143.358155 
L 396.919201 137.677852 
L 397.841759 133.742674 
L 398.648998 131.227421 
L 399.340917 129.786471 
L 399.917516 129.095792 
L 400.378795 128.876218 
L 400.840074 128.9493 
L 401.301353 129.309957 
L 401.762632 129.951341 
L 402.339231 131.134749 
L 403.03115 133.087883 
L 403.838388 136.049329 
L 404.876266 140.820216 
L 406.144784 147.873047 
L 407.759261 158.239227 
L 413.755889 198.114935 
L 415.370366 206.641646 
L 416.754203 212.833115 
L 418.138041 218.037616 
L 419.521878 222.363637 
L 420.905716 225.946651 
L 422.289553 228.919344 
L 423.67339 231.393048 
L 425.172547 233.606234 
L 426.671705 235.406346 
L 428.170862 236.847706 
L 429.670019 237.977381 
L 431.284496 238.900517 
L 433.014293 239.62195 
L 434.974729 240.196779 
L 437.511764 240.691964 
L 440.740718 241.077353 
L 446.160748 241.447178 
L 450.658219 241.862659 
L 455.962929 242.613189 
L 463.804674 243.69965 
L 468.071506 244.048433 
L 472.914937 244.205883 
L 482.140519 244.230969 
L 489.059706 244.085436 
L 494.710375 243.721664 
L 499.553806 243.47285 
L 503.013399 243.531697 
L 508.548749 243.906459 
L 513.968779 244.166293 
L 521.118605 244.240119 
L 583.852566 244.24375 
L 608.185039 244.135144 
L 613.374429 243.849401 
L 620.062977 243.47117 
L 620.754895 243.466549 
L 620.754895 243.466549 
" clip-path="url(#p22c206e9bd)" style="fill: none; stroke: #1f77b4; stroke-width: 1.5; stroke-linecap: square"/>
   </g>
   <g id="line2d_35">
    <path d="M 390.230654 223.831311 
L 391.037892 213.447899 
L 391.845131 200.091265 
L 392.883009 178.832297 
L 394.497486 140.083498 
L 395.996643 105.98194 
L 396.803881 91.876291 
L 397.4958 83.290939 
L 398.072399 78.839564 
L 398.533678 77.021923 
L 398.764318 76.660337 
L 398.994957 76.638264 
L 399.225597 76.932568 
L 399.571556 77.910463 
L 400.032835 80.067845 
L 400.724754 84.663018 
L 401.877952 94.236802 
L 406.952022 139.642888 
L 408.797139 158.585651 
L 410.757575 181.339973 
L 412.487372 200.800978 
L 413.40993 209.044569 
L 414.217168 214.425209 
L 414.909087 217.65295 
L 415.601006 219.791068 
L 416.292924 221.145297 
L 417.100163 222.194219 
L 418.71464 224.176463 
L 419.983157 226.235238 
L 422.866152 231.039279 
L 426.902344 237.289702 
L 427.594263 237.817101 
L 428.170862 237.997304 
L 428.747461 237.951588 
L 429.439379 237.658861 
L 431.861095 236.37356 
L 432.437694 236.393685 
L 433.014293 236.616405 
L 433.706211 237.141983 
L 434.51345 238.047258 
L 436.127927 240.30429 
L 437.511764 242.063875 
L 438.549642 243.0181 
L 439.4722 243.578999 
L 440.510078 243.94662 
L 441.778596 244.15042 
L 443.969672 244.235821 
L 456.654848 244.24375 
L 620.754895 244.24375 
L 620.754895 244.24375 
" clip-path="url(#p22c206e9bd)" style="fill: none; stroke: #ff7f0e; stroke-width: 1.5; stroke-linecap: square"/>
   </g>
   <g id="line2d_36">
    <path d="M 390.230654 192.95152 
L 394.728125 163.174756 
L 396.111963 155.598827 
L 397.265161 150.381998 
L 398.303039 146.690303 
L 399.110277 144.534138 
L 399.802196 143.204629 
L 400.378795 142.467583 
L 400.955394 142.06738 
L 401.416673 141.987184 
L 401.877952 142.116526 
L 402.454551 142.565412 
L 403.03115 143.322143 
L 403.723068 144.616047 
L 404.530307 146.620383 
L 405.452865 149.498886 
L 406.606063 153.852255 
L 408.10522 160.491147 
L 410.180976 170.834662 
L 415.370366 197.128069 
L 417.330802 205.736732 
L 419.060599 212.384373 
L 420.675076 217.741948 
L 422.174233 221.998226 
L 423.67339 225.6051 
L 425.172547 228.622721 
L 426.671705 231.121432 
L 428.170862 233.175211 
L 429.670019 234.856588 
L 431.284496 236.328029 
L 433.014293 237.596541 
L 434.974729 238.743694 
L 437.165805 239.765216 
L 439.933479 240.798193 
L 443.508393 241.877882 
L 447.429265 242.831008 
L 450.888859 243.446912 
L 454.117812 243.79031 
L 457.346766 243.909709 
L 461.267639 243.818114 
L 475.451972 243.261402 
L 481.333281 243.36989 
L 488.483107 243.756795 
L 493.672497 243.935559 
L 498.169969 243.854621 
L 508.20279 243.565039 
L 513.04622 243.760532 
L 522.271803 244.167615 
L 529.767588 244.216305 
L 536.917415 244.064384 
L 551.332387 243.591627 
L 557.098376 243.875839 
L 564.248203 244.167516 
L 572.666547 244.240246 
L 598.498178 244.170505 
L 604.956085 243.921893 
L 613.720389 243.555283 
L 617.987221 243.651302 
L 620.754895 243.795827 
L 620.754895 243.795827 
" clip-path="url(#p22c206e9bd)" style="fill: none; stroke: #2ca02c; stroke-width: 1.5; stroke-linecap: square"/>
   </g>
   <g id="patch_132">
    <path d="M 378.704442 244.24375 
L 378.704442 22.318125 
" style="fill: none; stroke: #000000; stroke-width: 0.8; stroke-linejoin: miter; stroke-linecap: square"/>
   </g>
   <g id="patch_133">
    <path d="M 632.281107 244.24375 
L 632.281107 22.318125 
" style="fill: none; stroke: #000000; stroke-width: 0.8; stroke-linejoin: miter; stroke-linecap: square"/>
   </g>
   <g id="patch_134">
    <path d="M 378.704442 244.24375 
L 632.281107 244.24375 
" style="fill: none; stroke: #000000; stroke-width: 0.8; stroke-linejoin: miter; stroke-linecap: square"/>
   </g>
   <g id="patch_135">
    <path d="M 378.704442 22.318125 
L 632.281107 22.318125 
" style="fill: none; stroke: #000000; stroke-width: 0.8; stroke-linejoin: miter; stroke-linecap: square"/>
   </g>
   <g id="text_38">
    <!-- Linear -->
    <g transform="translate(486.844962 16.318125) scale(0.12 -0.12)">
     <defs>
      <path id="DejaVuSans-4c" d="M 628 4666 
L 1259 4666 
L 1259 531 
L 3531 531 
L 3531 0 
L 628 0 
L 628 4666 
z
" transform="scale(0.015625)"/>
     </defs>
     <use xlink:href="#DejaVuSans-4c"/>
     <use xlink:href="#DejaVuSans-69" x="55.712891"/>
     <use xlink:href="#DejaVuSans-6e" x="83.496094"/>
     <use xlink:href="#DejaVuSans-65" x="146.875"/>
     <use xlink:href="#DejaVuSans-61" x="208.398438"/>
     <use xlink:href="#DejaVuSans-72" x="269.677734"/>
    </g>
   </g>
   <g id="legend_2">
    <g id="patch_136">
     <path d="M 504.396732 85.093125 
L 623.881107 85.093125 
Q 626.281107 85.093125 626.281107 82.693125 
L 626.281107 30.718125 
Q 626.281107 28.318125 623.881107 28.318125 
L 504.396732 28.318125 
Q 501.996732 28.318125 501.996732 30.718125 
L 501.996732 82.693125 
Q 501.996732 85.093125 504.396732 85.093125 
z
" style="fill: #ffffff; opacity: 0.8; stroke: #cccccc; stroke-linejoin: miter"/>
    </g>
    <g id="patch_137">
     <path d="M 506.796732 42.23625 
L 530.796732 42.23625 
L 530.796732 33.83625 
L 506.796732 33.83625 
z
" style="fill: #1f77b4; opacity: 0.4"/>
    </g>
    <g id="text_39">
     <!-- MCF10A -->
     <g transform="translate(540.396732 42.23625) scale(0.12 -0.12)">
      <use xlink:href="#DejaVuSans-4d"/>
      <use xlink:href="#DejaVuSans-43" x="86.279297"/>
      <use xlink:href="#DejaVuSans-46" x="156.103516"/>
      <use xlink:href="#DejaVuSans-31" x="213.623047"/>
      <use xlink:href="#DejaVuSans-30" x="277.246094"/>
      <use xlink:href="#DejaVuSans-41" x="340.869141"/>
     </g>
    </g>
    <g id="patch_138">
     <path d="M 506.796732 59.85 
L 530.796732 59.85 
L 530.796732 51.45 
L 506.796732 51.45 
z
" style="fill: #ff7f0e; opacity: 0.4"/>
    </g>
    <g id="text_40">
     <!-- MCF7 -->
     <g transform="translate(540.396732 59.85) scale(0.12 -0.12)">
      <use xlink:href="#DejaVuSans-4d"/>
      <use xlink:href="#DejaVuSans-43" x="86.279297"/>
      <use xlink:href="#DejaVuSans-46" x="156.103516"/>
      <use xlink:href="#DejaVuSans-37" x="213.623047"/>
     </g>
    </g>
    <g id="patch_139">
     <path d="M 506.796732 77.46375 
L 530.796732 77.46375 
L 530.796732 69.06375 
L 506.796732 69.06375 
z
" style="fill: #2ca02c; opacity: 0.4"/>
    </g>
    <g id="text_41">
     <!-- MDA_MB_231 -->
     <g transform="translate(540.396732 77.46375) scale(0.12 -0.12)">
      <use xlink:href="#DejaVuSans-4d"/>
      <use xlink:href="#DejaVuSans-44" x="86.279297"/>
      <use xlink:href="#DejaVuSans-41" x="161.53125"/>
      <use xlink:href="#DejaVuSans-5f" x="229.939453"/>
      <use xlink:href="#DejaVuSans-4d" x="279.939453"/>
      <use xlink:href="#DejaVuSans-42" x="366.21875"/>
      <use xlink:href="#DejaVuSans-5f" x="434.822266"/>
      <use xlink:href="#DejaVuSans-32" x="484.822266"/>
      <use xlink:href="#DejaVuSans-33" x="548.445312"/>
      <use xlink:href="#DejaVuSans-31" x="612.068359"/>
     </g>
    </g>
   </g>
  </g>
 </g>
 <defs>
  <clipPath id="p4b1b18ef9c">
   <rect x="50.836875" y="22.318125" width="253.576666" height="221.925625"/>
  </clipPath>
  <clipPath id="p22c206e9bd">
   <rect x="378.704442" y="22.318125" width="253.576666" height="221.925625"/>
  </clipPath>
 </defs>
</svg>
