<?xml version="1.0" encoding="utf-8" standalone="no"?>
<!DOCTYPE svg PUBLIC "-//W3C//DTD SVG 1.1//EN"
  "http://www.w3.org/Graphics/SVG/1.1/DTD/svg11.dtd">
<svg xmlns:xlink="http://www.w3.org/1999/xlink" width="576pt" height="288pt" viewBox="0 0 576 288" xmlns="http://www.w3.org/2000/svg" version="1.1">
 <metadata>
  <rdf:RDF xmlns:dc="http://purl.org/dc/elements/1.1/" xmlns:cc="http://creativecommons.org/ns#" xmlns:rdf="http://www.w3.org/1999/02/22-rdf-syntax-ns#">
   <cc:Work>
    <dc:type rdf:resource="http://purl.org/dc/dcmitype/StillImage"/>
    <dc:date>2024-05-09T16:49:41.577184</dc:date>
    <dc:format>image/svg+xml</dc:format>
    <dc:creator>
     <cc:Agent>
      <dc:title>Matplotlib v3.8.4, https://matplotlib.org/</dc:title>
     </cc:Agent>
    </dc:creator>
   </cc:Work>
  </rdf:RDF>
 </metadata>
 <defs>
  <style type="text/css">*{stroke-linejoin: round; stroke-linecap: butt}</style>
 </defs>
 <g id="figure_1">
  <g id="patch_1">
   <path d="M 0 288 
L 576 288 
L 576 0 
L 0 0 
z
" style="fill: #ffffff"/>
  </g>
  <g id="axes_1">
   <g id="patch_2">
    <path d="M 54.436875 247.84375 
L 276.2375 247.84375 
L 276.2375 25.918125 
L 54.436875 25.918125 
z
" style="fill: #ffffff"/>
   </g>
   <g id="patch_3">
    <path d="M 74.026309 247.84375 
L 83.632777 247.84375 
L 83.632777 211.085883 
L 74.026309 211.085883 
z
" clip-path="url(#pb18fab76de)" style="fill: #1f77b4; opacity: 0.4"/>
   </g>
   <g id="patch_4">
    <path d="M 83.632777 247.84375 
L 93.239244 247.84375 
L 93.239244 160.543815 
L 83.632777 160.543815 
z
" clip-path="url(#pb18fab76de)" style="fill: #1f77b4; opacity: 0.4"/>
   </g>
   <g id="patch_5">
    <path d="M 93.239244 247.84375 
L 102.845711 247.84375 
L 102.845711 36.486012 
L 93.239244 36.486012 
z
" clip-path="url(#pb18fab76de)" style="fill: #1f77b4; opacity: 0.4"/>
   </g>
   <g id="patch_6">
    <path d="M 102.845711 247.84375 
L 112.452178 247.84375 
L 112.452178 64.054413 
L 102.845711 64.054413 
z
" clip-path="url(#pb18fab76de)" style="fill: #1f77b4; opacity: 0.4"/>
   </g>
   <g id="patch_7">
    <path d="M 112.452178 247.84375 
L 122.058645 247.84375 
L 122.058645 123.785947 
L 112.452178 123.785947 
z
" clip-path="url(#pb18fab76de)" style="fill: #1f77b4; opacity: 0.4"/>
   </g>
   <g id="patch_8">
    <path d="M 122.058645 247.84375 
L 131.665113 247.84375 
L 131.665113 137.570148 
L 122.058645 137.570148 
z
" clip-path="url(#pb18fab76de)" style="fill: #1f77b4; opacity: 0.4"/>
   </g>
   <g id="patch_9">
    <path d="M 131.665113 247.84375 
L 141.27158 247.84375 
L 141.27158 132.975414 
L 131.665113 132.975414 
z
" clip-path="url(#pb18fab76de)" style="fill: #1f77b4; opacity: 0.4"/>
   </g>
   <g id="patch_10">
    <path d="M 141.27158 247.84375 
L 150.878047 247.84375 
L 150.878047 183.517482 
L 141.27158 183.517482 
z
" clip-path="url(#pb18fab76de)" style="fill: #1f77b4; opacity: 0.4"/>
   </g>
   <g id="patch_11">
    <path d="M 150.878047 247.84375 
L 160.484514 247.84375 
L 160.484514 201.896416 
L 150.878047 201.896416 
z
" clip-path="url(#pb18fab76de)" style="fill: #1f77b4; opacity: 0.4"/>
   </g>
   <g id="patch_12">
    <path d="M 160.484514 247.84375 
L 170.090981 247.84375 
L 170.090981 243.249017 
L 160.484514 243.249017 
z
" clip-path="url(#pb18fab76de)" style="fill: #1f77b4; opacity: 0.4"/>
   </g>
   <g id="patch_13">
    <path d="M 170.090981 247.84375 
L 179.697449 247.84375 
L 179.697449 229.464816 
L 170.090981 229.464816 
z
" clip-path="url(#pb18fab76de)" style="fill: #1f77b4; opacity: 0.4"/>
   </g>
   <g id="patch_14">
    <path d="M 179.697449 247.84375 
L 189.303916 247.84375 
L 189.303916 224.870083 
L 179.697449 224.870083 
z
" clip-path="url(#pb18fab76de)" style="fill: #1f77b4; opacity: 0.4"/>
   </g>
   <g id="patch_15">
    <path d="M 189.303916 247.84375 
L 198.910383 247.84375 
L 198.910383 243.249017 
L 189.303916 243.249017 
z
" clip-path="url(#pb18fab76de)" style="fill: #1f77b4; opacity: 0.4"/>
   </g>
   <g id="patch_16">
    <path d="M 198.910383 247.84375 
L 208.51685 247.84375 
L 208.51685 243.249017 
L 198.910383 243.249017 
z
" clip-path="url(#pb18fab76de)" style="fill: #1f77b4; opacity: 0.4"/>
   </g>
   <g id="patch_17">
    <path d="M 208.51685 247.84375 
L 218.123317 247.84375 
L 218.123317 247.84375 
L 208.51685 247.84375 
z
" clip-path="url(#pb18fab76de)" style="fill: #1f77b4; opacity: 0.4"/>
   </g>
   <g id="patch_18">
    <path d="M 218.123317 247.84375 
L 227.729785 247.84375 
L 227.729785 247.84375 
L 218.123317 247.84375 
z
" clip-path="url(#pb18fab76de)" style="fill: #1f77b4; opacity: 0.4"/>
   </g>
   <g id="patch_19">
    <path d="M 227.729785 247.84375 
L 237.336252 247.84375 
L 237.336252 247.84375 
L 227.729785 247.84375 
z
" clip-path="url(#pb18fab76de)" style="fill: #1f77b4; opacity: 0.4"/>
   </g>
   <g id="patch_20">
    <path d="M 237.336252 247.84375 
L 246.942719 247.84375 
L 246.942719 247.84375 
L 237.336252 247.84375 
z
" clip-path="url(#pb18fab76de)" style="fill: #1f77b4; opacity: 0.4"/>
   </g>
   <g id="patch_21">
    <path d="M 246.942719 247.84375 
L 256.549186 247.84375 
L 256.549186 247.84375 
L 246.942719 247.84375 
z
" clip-path="url(#pb18fab76de)" style="fill: #1f77b4; opacity: 0.4"/>
   </g>
   <g id="patch_22">
    <path d="M 256.549186 247.84375 
L 266.155653 247.84375 
L 266.155653 238.654283 
L 256.549186 238.654283 
z
" clip-path="url(#pb18fab76de)" style="fill: #1f77b4; opacity: 0.4"/>
   </g>
   <g id="patch_23">
    <path d="M 75.205741 247.84375 
L 83.889034 247.84375 
L 83.889034 242.692443 
L 75.205741 242.692443 
z
" clip-path="url(#pb18fab76de)" style="fill: #ff7f0e; opacity: 0.4"/>
   </g>
   <g id="patch_24">
    <path d="M 83.889034 247.84375 
L 92.572327 247.84375 
L 92.572327 129.363697 
L 83.889034 129.363697 
z
" clip-path="url(#pb18fab76de)" style="fill: #ff7f0e; opacity: 0.4"/>
   </g>
   <g id="patch_25">
    <path d="M 92.572327 247.84375 
L 101.25562 247.84375 
L 101.25562 62.39671 
L 92.572327 62.39671 
z
" clip-path="url(#pb18fab76de)" style="fill: #ff7f0e; opacity: 0.4"/>
   </g>
   <g id="patch_26">
    <path d="M 101.25562 247.84375 
L 109.938913 247.84375 
L 109.938913 72.699323 
L 101.25562 72.699323 
z
" clip-path="url(#pb18fab76de)" style="fill: #ff7f0e; opacity: 0.4"/>
   </g>
   <g id="patch_27">
    <path d="M 109.938913 247.84375 
L 118.622206 247.84375 
L 118.622206 72.699323 
L 109.938913 72.699323 
z
" clip-path="url(#pb18fab76de)" style="fill: #ff7f0e; opacity: 0.4"/>
   </g>
   <g id="patch_28">
    <path d="M 118.622206 247.84375 
L 127.305499 247.84375 
L 127.305499 149.968923 
L 118.622206 149.968923 
z
" clip-path="url(#pb18fab76de)" style="fill: #ff7f0e; opacity: 0.4"/>
   </g>
   <g id="patch_29">
    <path d="M 127.305499 247.84375 
L 135.988792 247.84375 
L 135.988792 175.725457 
L 127.305499 175.725457 
z
" clip-path="url(#pb18fab76de)" style="fill: #ff7f0e; opacity: 0.4"/>
   </g>
   <g id="patch_30">
    <path d="M 135.988792 247.84375 
L 144.672085 247.84375 
L 144.672085 186.02807 
L 135.988792 186.02807 
z
" clip-path="url(#pb18fab76de)" style="fill: #ff7f0e; opacity: 0.4"/>
   </g>
   <g id="patch_31">
    <path d="M 144.672085 247.84375 
L 153.355378 247.84375 
L 153.355378 196.330683 
L 144.672085 196.330683 
z
" clip-path="url(#pb18fab76de)" style="fill: #ff7f0e; opacity: 0.4"/>
   </g>
   <g id="patch_32">
    <path d="M 153.355378 247.84375 
L 162.038672 247.84375 
L 162.038672 191.179377 
L 153.355378 191.179377 
z
" clip-path="url(#pb18fab76de)" style="fill: #ff7f0e; opacity: 0.4"/>
   </g>
   <g id="patch_33">
    <path d="M 162.038672 247.84375 
L 170.721965 247.84375 
L 170.721965 222.087217 
L 162.038672 222.087217 
z
" clip-path="url(#pb18fab76de)" style="fill: #ff7f0e; opacity: 0.4"/>
   </g>
   <g id="patch_34">
    <path d="M 170.721965 247.84375 
L 179.405258 247.84375 
L 179.405258 206.633297 
L 170.721965 206.633297 
z
" clip-path="url(#pb18fab76de)" style="fill: #ff7f0e; opacity: 0.4"/>
   </g>
   <g id="patch_35">
    <path d="M 179.405258 247.84375 
L 188.088551 247.84375 
L 188.088551 206.633297 
L 179.405258 206.633297 
z
" clip-path="url(#pb18fab76de)" style="fill: #ff7f0e; opacity: 0.4"/>
   </g>
   <g id="patch_36">
    <path d="M 188.088551 247.84375 
L 196.771844 247.84375 
L 196.771844 242.692443 
L 188.088551 242.692443 
z
" clip-path="url(#pb18fab76de)" style="fill: #ff7f0e; opacity: 0.4"/>
   </g>
   <g id="patch_37">
    <path d="M 196.771844 247.84375 
L 205.455137 247.84375 
L 205.455137 242.692443 
L 196.771844 242.692443 
z
" clip-path="url(#pb18fab76de)" style="fill: #ff7f0e; opacity: 0.4"/>
   </g>
   <g id="patch_38">
    <path d="M 205.455137 247.84375 
L 214.13843 247.84375 
L 214.13843 247.84375 
L 205.455137 247.84375 
z
" clip-path="url(#pb18fab76de)" style="fill: #ff7f0e; opacity: 0.4"/>
   </g>
   <g id="patch_39">
    <path d="M 214.13843 247.84375 
L 222.821723 247.84375 
L 222.821723 242.692443 
L 214.13843 242.692443 
z
" clip-path="url(#pb18fab76de)" style="fill: #ff7f0e; opacity: 0.4"/>
   </g>
   <g id="patch_40">
    <path d="M 222.821723 247.84375 
L 231.505016 247.84375 
L 231.505016 237.541137 
L 222.821723 237.541137 
z
" clip-path="url(#pb18fab76de)" style="fill: #ff7f0e; opacity: 0.4"/>
   </g>
   <g id="patch_41">
    <path d="M 231.505016 247.84375 
L 240.188309 247.84375 
L 240.188309 247.84375 
L 231.505016 247.84375 
z
" clip-path="url(#pb18fab76de)" style="fill: #ff7f0e; opacity: 0.4"/>
   </g>
   <g id="patch_42">
    <path d="M 240.188309 247.84375 
L 248.871602 247.84375 
L 248.871602 227.238523 
L 240.188309 227.238523 
z
" clip-path="url(#pb18fab76de)" style="fill: #ff7f0e; opacity: 0.4"/>
   </g>
   <g id="patch_43">
    <path d="M 64.518722 247.84375 
L 72.408275 247.84375 
L 72.408275 230.681835 
L 64.518722 230.681835 
z
" clip-path="url(#pb18fab76de)" style="fill: #2ca02c; opacity: 0.4"/>
   </g>
   <g id="patch_44">
    <path d="M 72.408275 247.84375 
L 80.297828 247.84375 
L 80.297828 207.799281 
L 72.408275 207.799281 
z
" clip-path="url(#pb18fab76de)" style="fill: #2ca02c; opacity: 0.4"/>
   </g>
   <g id="patch_45">
    <path d="M 80.297828 247.84375 
L 88.187381 247.84375 
L 88.187381 127.710342 
L 80.297828 127.710342 
z
" clip-path="url(#pb18fab76de)" style="fill: #2ca02c; opacity: 0.4"/>
   </g>
   <g id="patch_46">
    <path d="M 88.187381 247.84375 
L 96.076934 247.84375 
L 96.076934 59.062681 
L 88.187381 59.062681 
z
" clip-path="url(#pb18fab76de)" style="fill: #2ca02c; opacity: 0.4"/>
   </g>
   <g id="patch_47">
    <path d="M 96.076934 247.84375 
L 103.966487 247.84375 
L 103.966487 70.503958 
L 96.076934 70.503958 
z
" clip-path="url(#pb18fab76de)" style="fill: #2ca02c; opacity: 0.4"/>
   </g>
   <g id="patch_48">
    <path d="M 103.966487 247.84375 
L 111.85604 247.84375 
L 111.85604 87.665873 
L 103.966487 87.665873 
z
" clip-path="url(#pb18fab76de)" style="fill: #2ca02c; opacity: 0.4"/>
   </g>
   <g id="patch_49">
    <path d="M 111.85604 247.84375 
L 119.745594 247.84375 
L 119.745594 93.386512 
L 111.85604 93.386512 
z
" clip-path="url(#pb18fab76de)" style="fill: #2ca02c; opacity: 0.4"/>
   </g>
   <g id="patch_50">
    <path d="M 119.745594 247.84375 
L 127.635147 247.84375 
L 127.635147 156.313535 
L 119.745594 156.313535 
z
" clip-path="url(#pb18fab76de)" style="fill: #2ca02c; opacity: 0.4"/>
   </g>
   <g id="patch_51">
    <path d="M 127.635147 247.84375 
L 135.5247 247.84375 
L 135.5247 156.313535 
L 127.635147 156.313535 
z
" clip-path="url(#pb18fab76de)" style="fill: #2ca02c; opacity: 0.4"/>
   </g>
   <g id="patch_52">
    <path d="M 135.5247 247.84375 
L 143.414253 247.84375 
L 143.414253 190.637365 
L 135.5247 190.637365 
z
" clip-path="url(#pb18fab76de)" style="fill: #2ca02c; opacity: 0.4"/>
   </g>
   <g id="patch_53">
    <path d="M 143.414253 247.84375 
L 151.303806 247.84375 
L 151.303806 202.078642 
L 143.414253 202.078642 
z
" clip-path="url(#pb18fab76de)" style="fill: #2ca02c; opacity: 0.4"/>
   </g>
   <g id="patch_54">
    <path d="M 151.303806 247.84375 
L 159.193359 247.84375 
L 159.193359 213.519919 
L 151.303806 213.519919 
z
" clip-path="url(#pb18fab76de)" style="fill: #2ca02c; opacity: 0.4"/>
   </g>
   <g id="patch_55">
    <path d="M 159.193359 247.84375 
L 167.082913 247.84375 
L 167.082913 213.519919 
L 159.193359 213.519919 
z
" clip-path="url(#pb18fab76de)" style="fill: #2ca02c; opacity: 0.4"/>
   </g>
   <g id="patch_56">
    <path d="M 167.082913 247.84375 
L 174.972466 247.84375 
L 174.972466 236.402473 
L 167.082913 236.402473 
z
" clip-path="url(#pb18fab76de)" style="fill: #2ca02c; opacity: 0.4"/>
   </g>
   <g id="patch_57">
    <path d="M 174.972466 247.84375 
L 182.862019 247.84375 
L 182.862019 242.123112 
L 174.972466 242.123112 
z
" clip-path="url(#pb18fab76de)" style="fill: #2ca02c; opacity: 0.4"/>
   </g>
   <g id="patch_58">
    <path d="M 182.862019 247.84375 
L 190.751572 247.84375 
L 190.751572 224.961196 
L 182.862019 224.961196 
z
" clip-path="url(#pb18fab76de)" style="fill: #2ca02c; opacity: 0.4"/>
   </g>
   <g id="patch_59">
    <path d="M 190.751572 247.84375 
L 198.641125 247.84375 
L 198.641125 242.123112 
L 190.751572 242.123112 
z
" clip-path="url(#pb18fab76de)" style="fill: #2ca02c; opacity: 0.4"/>
   </g>
   <g id="patch_60">
    <path d="M 198.641125 247.84375 
L 206.530678 247.84375 
L 206.530678 242.123112 
L 198.641125 242.123112 
z
" clip-path="url(#pb18fab76de)" style="fill: #2ca02c; opacity: 0.4"/>
   </g>
   <g id="patch_61">
    <path d="M 206.530678 247.84375 
L 214.420231 247.84375 
L 214.420231 247.84375 
L 206.530678 247.84375 
z
" clip-path="url(#pb18fab76de)" style="fill: #2ca02c; opacity: 0.4"/>
   </g>
   <g id="patch_62">
    <path d="M 214.420231 247.84375 
L 222.309785 247.84375 
L 222.309785 242.123112 
L 214.420231 242.123112 
z
" clip-path="url(#pb18fab76de)" style="fill: #2ca02c; opacity: 0.4"/>
   </g>
   <g id="matplotlib.axis_1">
    <g id="xtick_1">
     <g id="line2d_1">
      <defs>
       <path id="m88ed9d9b7a" d="M 0 0 
L 0 3.5 
" style="stroke: #000000; stroke-width: 0.8"/>
      </defs>
      <g>
       <use xlink:href="#m88ed9d9b7a" x="70.254059" y="247.84375" style="stroke: #000000; stroke-width: 0.8"/>
      </g>
     </g>
     <g id="text_1">
      <!-- 3.285 -->
      <g transform="translate(55.939997 262.442187) scale(0.1 -0.1)">
       <defs>
        <path id="DejaVuSans-33" d="M 2597 2516 
Q 3050 2419 3304 2112 
Q 3559 1806 3559 1356 
Q 3559 666 3084 287 
Q 2609 -91 1734 -91 
Q 1441 -91 1130 -33 
Q 819 25 488 141 
L 488 750 
Q 750 597 1062 519 
Q 1375 441 1716 441 
Q 2309 441 2620 675 
Q 2931 909 2931 1356 
Q 2931 1769 2642 2001 
Q 2353 2234 1838 2234 
L 1294 2234 
L 1294 2753 
L 1863 2753 
Q 2328 2753 2575 2939 
Q 2822 3125 2822 3475 
Q 2822 3834 2567 4026 
Q 2313 4219 1838 4219 
Q 1578 4219 1281 4162 
Q 984 4106 628 3988 
L 628 4550 
Q 988 4650 1302 4700 
Q 1616 4750 1894 4750 
Q 2613 4750 3031 4423 
Q 3450 4097 3450 3541 
Q 3450 3153 3228 2886 
Q 3006 2619 2597 2516 
z
" transform="scale(0.015625)"/>
        <path id="DejaVuSans-2e" d="M 684 794 
L 1344 794 
L 1344 0 
L 684 0 
L 684 794 
z
" transform="scale(0.015625)"/>
        <path id="DejaVuSans-32" d="M 1228 531 
L 3431 531 
L 3431 0 
L 469 0 
L 469 531 
Q 828 903 1448 1529 
Q 2069 2156 2228 2338 
Q 2531 2678 2651 2914 
Q 2772 3150 2772 3378 
Q 2772 3750 2511 3984 
Q 2250 4219 1831 4219 
Q 1534 4219 1204 4116 
Q 875 4013 500 3803 
L 500 4441 
Q 881 4594 1212 4672 
Q 1544 4750 1819 4750 
Q 2544 4750 2975 4387 
Q 3406 4025 3406 3419 
Q 3406 3131 3298 2873 
Q 3191 2616 2906 2266 
Q 2828 2175 2409 1742 
Q 1991 1309 1228 531 
z
" transform="scale(0.015625)"/>
        <path id="DejaVuSans-38" d="M 2034 2216 
Q 1584 2216 1326 1975 
Q 1069 1734 1069 1313 
Q 1069 891 1326 650 
Q 1584 409 2034 409 
Q 2484 409 2743 651 
Q 3003 894 3003 1313 
Q 3003 1734 2745 1975 
Q 2488 2216 2034 2216 
z
M 1403 2484 
Q 997 2584 770 2862 
Q 544 3141 544 3541 
Q 544 4100 942 4425 
Q 1341 4750 2034 4750 
Q 2731 4750 3128 4425 
Q 3525 4100 3525 3541 
Q 3525 3141 3298 2862 
Q 3072 2584 2669 2484 
Q 3125 2378 3379 2068 
Q 3634 1759 3634 1313 
Q 3634 634 3220 271 
Q 2806 -91 2034 -91 
Q 1263 -91 848 271 
Q 434 634 434 1313 
Q 434 1759 690 2068 
Q 947 2378 1403 2484 
z
M 1172 3481 
Q 1172 3119 1398 2916 
Q 1625 2713 2034 2713 
Q 2441 2713 2670 2916 
Q 2900 3119 2900 3481 
Q 2900 3844 2670 4047 
Q 2441 4250 2034 4250 
Q 1625 4250 1398 4047 
Q 1172 3844 1172 3481 
z
" transform="scale(0.015625)"/>
        <path id="DejaVuSans-35" d="M 691 4666 
L 3169 4666 
L 3169 4134 
L 1269 4134 
L 1269 2991 
Q 1406 3038 1543 3061 
Q 1681 3084 1819 3084 
Q 2600 3084 3056 2656 
Q 3513 2228 3513 1497 
Q 3513 744 3044 326 
Q 2575 -91 1722 -91 
Q 1428 -91 1123 -41 
Q 819 9 494 109 
L 494 744 
Q 775 591 1075 516 
Q 1375 441 1709 441 
Q 2250 441 2565 725 
Q 2881 1009 2881 1497 
Q 2881 1984 2565 2268 
Q 2250 2553 1709 2553 
Q 1456 2553 1204 2497 
Q 953 2441 691 2322 
L 691 4666 
z
" transform="scale(0.015625)"/>
       </defs>
       <use xlink:href="#DejaVuSans-33"/>
       <use xlink:href="#DejaVuSans-2e" x="63.623047"/>
       <use xlink:href="#DejaVuSans-32" x="95.410156"/>
       <use xlink:href="#DejaVuSans-38" x="159.033203"/>
       <use xlink:href="#DejaVuSans-35" x="222.65625"/>
      </g>
     </g>
    </g>
    <g id="xtick_2">
     <g id="line2d_2">
      <g>
       <use xlink:href="#m88ed9d9b7a" x="103.421079" y="247.84375" style="stroke: #000000; stroke-width: 0.8"/>
      </g>
     </g>
     <g id="text_2">
      <!-- 3.290 -->
      <g transform="translate(89.107017 262.442187) scale(0.1 -0.1)">
       <defs>
        <path id="DejaVuSans-39" d="M 703 97 
L 703 672 
Q 941 559 1184 500 
Q 1428 441 1663 441 
Q 2288 441 2617 861 
Q 2947 1281 2994 2138 
Q 2813 1869 2534 1725 
Q 2256 1581 1919 1581 
Q 1219 1581 811 2004 
Q 403 2428 403 3163 
Q 403 3881 828 4315 
Q 1253 4750 1959 4750 
Q 2769 4750 3195 4129 
Q 3622 3509 3622 2328 
Q 3622 1225 3098 567 
Q 2575 -91 1691 -91 
Q 1453 -91 1209 -44 
Q 966 3 703 97 
z
M 1959 2075 
Q 2384 2075 2632 2365 
Q 2881 2656 2881 3163 
Q 2881 3666 2632 3958 
Q 2384 4250 1959 4250 
Q 1534 4250 1286 3958 
Q 1038 3666 1038 3163 
Q 1038 2656 1286 2365 
Q 1534 2075 1959 2075 
z
" transform="scale(0.015625)"/>
        <path id="DejaVuSans-30" d="M 2034 4250 
Q 1547 4250 1301 3770 
Q 1056 3291 1056 2328 
Q 1056 1369 1301 889 
Q 1547 409 2034 409 
Q 2525 409 2770 889 
Q 3016 1369 3016 2328 
Q 3016 3291 2770 3770 
Q 2525 4250 2034 4250 
z
M 2034 4750 
Q 2819 4750 3233 4129 
Q 3647 3509 3647 2328 
Q 3647 1150 3233 529 
Q 2819 -91 2034 -91 
Q 1250 -91 836 529 
Q 422 1150 422 2328 
Q 422 3509 836 4129 
Q 1250 4750 2034 4750 
z
" transform="scale(0.015625)"/>
       </defs>
       <use xlink:href="#DejaVuSans-33"/>
       <use xlink:href="#DejaVuSans-2e" x="63.623047"/>
       <use xlink:href="#DejaVuSans-32" x="95.410156"/>
       <use xlink:href="#DejaVuSans-39" x="159.033203"/>
       <use xlink:href="#DejaVuSans-30" x="222.65625"/>
      </g>
     </g>
    </g>
    <g id="xtick_3">
     <g id="line2d_3">
      <g>
       <use xlink:href="#m88ed9d9b7a" x="136.588099" y="247.84375" style="stroke: #000000; stroke-width: 0.8"/>
      </g>
     </g>
     <g id="text_3">
      <!-- 3.295 -->
      <g transform="translate(122.274036 262.442187) scale(0.1 -0.1)">
       <use xlink:href="#DejaVuSans-33"/>
       <use xlink:href="#DejaVuSans-2e" x="63.623047"/>
       <use xlink:href="#DejaVuSans-32" x="95.410156"/>
       <use xlink:href="#DejaVuSans-39" x="159.033203"/>
       <use xlink:href="#DejaVuSans-35" x="222.65625"/>
      </g>
     </g>
    </g>
    <g id="xtick_4">
     <g id="line2d_4">
      <g>
       <use xlink:href="#m88ed9d9b7a" x="169.755118" y="247.84375" style="stroke: #000000; stroke-width: 0.8"/>
      </g>
     </g>
     <g id="text_4">
      <!-- 3.300 -->
      <g transform="translate(155.441056 262.442187) scale(0.1 -0.1)">
       <use xlink:href="#DejaVuSans-33"/>
       <use xlink:href="#DejaVuSans-2e" x="63.623047"/>
       <use xlink:href="#DejaVuSans-33" x="95.410156"/>
       <use xlink:href="#DejaVuSans-30" x="159.033203"/>
       <use xlink:href="#DejaVuSans-30" x="222.65625"/>
      </g>
     </g>
    </g>
    <g id="xtick_5">
     <g id="line2d_5">
      <g>
       <use xlink:href="#m88ed9d9b7a" x="202.922138" y="247.84375" style="stroke: #000000; stroke-width: 0.8"/>
      </g>
     </g>
     <g id="text_5">
      <!-- 3.305 -->
      <g transform="translate(188.608076 262.442187) scale(0.1 -0.1)">
       <use xlink:href="#DejaVuSans-33"/>
       <use xlink:href="#DejaVuSans-2e" x="63.623047"/>
       <use xlink:href="#DejaVuSans-33" x="95.410156"/>
       <use xlink:href="#DejaVuSans-30" x="159.033203"/>
       <use xlink:href="#DejaVuSans-35" x="222.65625"/>
      </g>
     </g>
    </g>
    <g id="xtick_6">
     <g id="line2d_6">
      <g>
       <use xlink:href="#m88ed9d9b7a" x="236.089158" y="247.84375" style="stroke: #000000; stroke-width: 0.8"/>
      </g>
     </g>
     <g id="text_6">
      <!-- 3.310 -->
      <g transform="translate(221.775095 262.442187) scale(0.1 -0.1)">
       <defs>
        <path id="DejaVuSans-31" d="M 794 531 
L 1825 531 
L 1825 4091 
L 703 3866 
L 703 4441 
L 1819 4666 
L 2450 4666 
L 2450 531 
L 3481 531 
L 3481 0 
L 794 0 
L 794 531 
z
" transform="scale(0.015625)"/>
       </defs>
       <use xlink:href="#DejaVuSans-33"/>
       <use xlink:href="#DejaVuSans-2e" x="63.623047"/>
       <use xlink:href="#DejaVuSans-33" x="95.410156"/>
       <use xlink:href="#DejaVuSans-31" x="159.033203"/>
       <use xlink:href="#DejaVuSans-30" x="222.65625"/>
      </g>
     </g>
    </g>
    <g id="xtick_7">
     <g id="line2d_7">
      <g>
       <use xlink:href="#m88ed9d9b7a" x="269.256178" y="247.84375" style="stroke: #000000; stroke-width: 0.8"/>
      </g>
     </g>
     <g id="text_7">
      <!-- 3.315 -->
      <g transform="translate(254.942115 262.442187) scale(0.1 -0.1)">
       <use xlink:href="#DejaVuSans-33"/>
       <use xlink:href="#DejaVuSans-2e" x="63.623047"/>
       <use xlink:href="#DejaVuSans-33" x="95.410156"/>
       <use xlink:href="#DejaVuSans-31" x="159.033203"/>
       <use xlink:href="#DejaVuSans-35" x="222.65625"/>
      </g>
     </g>
    </g>
   </g>
   <g id="matplotlib.axis_2">
    <g id="ytick_1">
     <g id="line2d_8">
      <defs>
       <path id="mb2a5d30b52" d="M 0 0 
L -3.5 0 
" style="stroke: #000000; stroke-width: 0.8"/>
      </defs>
      <g>
       <use xlink:href="#mb2a5d30b52" x="54.436875" y="247.84375" style="stroke: #000000; stroke-width: 0.8"/>
      </g>
     </g>
     <g id="text_8">
      <!-- 0 -->
      <g transform="translate(41.074375 251.642969) scale(0.1 -0.1)">
       <use xlink:href="#DejaVuSans-30"/>
      </g>
     </g>
    </g>
    <g id="ytick_2">
     <g id="line2d_9">
      <g>
       <use xlink:href="#mb2a5d30b52" x="54.436875" y="217.634257" style="stroke: #000000; stroke-width: 0.8"/>
      </g>
     </g>
     <g id="text_9">
      <!-- 20 -->
      <g transform="translate(34.711875 221.433476) scale(0.1 -0.1)">
       <use xlink:href="#DejaVuSans-32"/>
       <use xlink:href="#DejaVuSans-30" x="63.623047"/>
      </g>
     </g>
    </g>
    <g id="ytick_3">
     <g id="line2d_10">
      <g>
       <use xlink:href="#mb2a5d30b52" x="54.436875" y="187.424764" style="stroke: #000000; stroke-width: 0.8"/>
      </g>
     </g>
     <g id="text_10">
      <!-- 40 -->
      <g transform="translate(34.711875 191.223983) scale(0.1 -0.1)">
       <defs>
        <path id="DejaVuSans-34" d="M 2419 4116 
L 825 1625 
L 2419 1625 
L 2419 4116 
z
M 2253 4666 
L 3047 4666 
L 3047 1625 
L 3713 1625 
L 3713 1100 
L 3047 1100 
L 3047 0 
L 2419 0 
L 2419 1100 
L 313 1100 
L 313 1709 
L 2253 4666 
z
" transform="scale(0.015625)"/>
       </defs>
       <use xlink:href="#DejaVuSans-34"/>
       <use xlink:href="#DejaVuSans-30" x="63.623047"/>
      </g>
     </g>
    </g>
    <g id="ytick_4">
     <g id="line2d_11">
      <g>
       <use xlink:href="#mb2a5d30b52" x="54.436875" y="157.215272" style="stroke: #000000; stroke-width: 0.8"/>
      </g>
     </g>
     <g id="text_11">
      <!-- 60 -->
      <g transform="translate(34.711875 161.01449) scale(0.1 -0.1)">
       <defs>
        <path id="DejaVuSans-36" d="M 2113 2584 
Q 1688 2584 1439 2293 
Q 1191 2003 1191 1497 
Q 1191 994 1439 701 
Q 1688 409 2113 409 
Q 2538 409 2786 701 
Q 3034 994 3034 1497 
Q 3034 2003 2786 2293 
Q 2538 2584 2113 2584 
z
M 3366 4563 
L 3366 3988 
Q 3128 4100 2886 4159 
Q 2644 4219 2406 4219 
Q 1781 4219 1451 3797 
Q 1122 3375 1075 2522 
Q 1259 2794 1537 2939 
Q 1816 3084 2150 3084 
Q 2853 3084 3261 2657 
Q 3669 2231 3669 1497 
Q 3669 778 3244 343 
Q 2819 -91 2113 -91 
Q 1303 -91 875 529 
Q 447 1150 447 2328 
Q 447 3434 972 4092 
Q 1497 4750 2381 4750 
Q 2619 4750 2861 4703 
Q 3103 4656 3366 4563 
z
" transform="scale(0.015625)"/>
       </defs>
       <use xlink:href="#DejaVuSans-36"/>
       <use xlink:href="#DejaVuSans-30" x="63.623047"/>
      </g>
     </g>
    </g>
    <g id="ytick_5">
     <g id="line2d_12">
      <g>
       <use xlink:href="#mb2a5d30b52" x="54.436875" y="127.005779" style="stroke: #000000; stroke-width: 0.8"/>
      </g>
     </g>
     <g id="text_12">
      <!-- 80 -->
      <g transform="translate(34.711875 130.804997) scale(0.1 -0.1)">
       <use xlink:href="#DejaVuSans-38"/>
       <use xlink:href="#DejaVuSans-30" x="63.623047"/>
      </g>
     </g>
    </g>
    <g id="ytick_6">
     <g id="line2d_13">
      <g>
       <use xlink:href="#mb2a5d30b52" x="54.436875" y="96.796286" style="stroke: #000000; stroke-width: 0.8"/>
      </g>
     </g>
     <g id="text_13">
      <!-- 100 -->
      <g transform="translate(28.349375 100.595505) scale(0.1 -0.1)">
       <use xlink:href="#DejaVuSans-31"/>
       <use xlink:href="#DejaVuSans-30" x="63.623047"/>
       <use xlink:href="#DejaVuSans-30" x="127.246094"/>
      </g>
     </g>
    </g>
    <g id="ytick_7">
     <g id="line2d_14">
      <g>
       <use xlink:href="#mb2a5d30b52" x="54.436875" y="66.586793" style="stroke: #000000; stroke-width: 0.8"/>
      </g>
     </g>
     <g id="text_14">
      <!-- 120 -->
      <g transform="translate(28.349375 70.386012) scale(0.1 -0.1)">
       <use xlink:href="#DejaVuSans-31"/>
       <use xlink:href="#DejaVuSans-32" x="63.623047"/>
       <use xlink:href="#DejaVuSans-30" x="127.246094"/>
      </g>
     </g>
    </g>
    <g id="ytick_8">
     <g id="line2d_15">
      <g>
       <use xlink:href="#mb2a5d30b52" x="54.436875" y="36.3773" style="stroke: #000000; stroke-width: 0.8"/>
      </g>
     </g>
     <g id="text_15">
      <!-- 140 -->
      <g transform="translate(28.349375 40.176519) scale(0.1 -0.1)">
       <use xlink:href="#DejaVuSans-31"/>
       <use xlink:href="#DejaVuSans-34" x="63.623047"/>
       <use xlink:href="#DejaVuSans-30" x="127.246094"/>
      </g>
     </g>
    </g>
    <g id="text_16">
     <!-- Fraction of cells -->
     <g transform="translate(21.437812 191.712812) rotate(-90) scale(0.14 -0.14)">
      <defs>
       <path id="DejaVuSans-46" d="M 628 4666 
L 3309 4666 
L 3309 4134 
L 1259 4134 
L 1259 2759 
L 3109 2759 
L 3109 2228 
L 1259 2228 
L 1259 0 
L 628 0 
L 628 4666 
z
" transform="scale(0.015625)"/>
       <path id="DejaVuSans-72" d="M 2631 2963 
Q 2534 3019 2420 3045 
Q 2306 3072 2169 3072 
Q 1681 3072 1420 2755 
Q 1159 2438 1159 1844 
L 1159 0 
L 581 0 
L 581 3500 
L 1159 3500 
L 1159 2956 
Q 1341 3275 1631 3429 
Q 1922 3584 2338 3584 
Q 2397 3584 2469 3576 
Q 2541 3569 2628 3553 
L 2631 2963 
z
" transform="scale(0.015625)"/>
       <path id="DejaVuSans-61" d="M 2194 1759 
Q 1497 1759 1228 1600 
Q 959 1441 959 1056 
Q 959 750 1161 570 
Q 1363 391 1709 391 
Q 2188 391 2477 730 
Q 2766 1069 2766 1631 
L 2766 1759 
L 2194 1759 
z
M 3341 1997 
L 3341 0 
L 2766 0 
L 2766 531 
Q 2569 213 2275 61 
Q 1981 -91 1556 -91 
Q 1019 -91 701 211 
Q 384 513 384 1019 
Q 384 1609 779 1909 
Q 1175 2209 1959 2209 
L 2766 2209 
L 2766 2266 
Q 2766 2663 2505 2880 
Q 2244 3097 1772 3097 
Q 1472 3097 1187 3025 
Q 903 2953 641 2809 
L 641 3341 
Q 956 3463 1253 3523 
Q 1550 3584 1831 3584 
Q 2591 3584 2966 3190 
Q 3341 2797 3341 1997 
z
" transform="scale(0.015625)"/>
       <path id="DejaVuSans-63" d="M 3122 3366 
L 3122 2828 
Q 2878 2963 2633 3030 
Q 2388 3097 2138 3097 
Q 1578 3097 1268 2742 
Q 959 2388 959 1747 
Q 959 1106 1268 751 
Q 1578 397 2138 397 
Q 2388 397 2633 464 
Q 2878 531 3122 666 
L 3122 134 
Q 2881 22 2623 -34 
Q 2366 -91 2075 -91 
Q 1284 -91 818 406 
Q 353 903 353 1747 
Q 353 2603 823 3093 
Q 1294 3584 2113 3584 
Q 2378 3584 2631 3529 
Q 2884 3475 3122 3366 
z
" transform="scale(0.015625)"/>
       <path id="DejaVuSans-74" d="M 1172 4494 
L 1172 3500 
L 2356 3500 
L 2356 3053 
L 1172 3053 
L 1172 1153 
Q 1172 725 1289 603 
Q 1406 481 1766 481 
L 2356 481 
L 2356 0 
L 1766 0 
Q 1100 0 847 248 
Q 594 497 594 1153 
L 594 3053 
L 172 3053 
L 172 3500 
L 594 3500 
L 594 4494 
L 1172 4494 
z
" transform="scale(0.015625)"/>
       <path id="DejaVuSans-69" d="M 603 3500 
L 1178 3500 
L 1178 0 
L 603 0 
L 603 3500 
z
M 603 4863 
L 1178 4863 
L 1178 4134 
L 603 4134 
L 603 4863 
z
" transform="scale(0.015625)"/>
       <path id="DejaVuSans-6f" d="M 1959 3097 
Q 1497 3097 1228 2736 
Q 959 2375 959 1747 
Q 959 1119 1226 758 
Q 1494 397 1959 397 
Q 2419 397 2687 759 
Q 2956 1122 2956 1747 
Q 2956 2369 2687 2733 
Q 2419 3097 1959 3097 
z
M 1959 3584 
Q 2709 3584 3137 3096 
Q 3566 2609 3566 1747 
Q 3566 888 3137 398 
Q 2709 -91 1959 -91 
Q 1206 -91 779 398 
Q 353 888 353 1747 
Q 353 2609 779 3096 
Q 1206 3584 1959 3584 
z
" transform="scale(0.015625)"/>
       <path id="DejaVuSans-6e" d="M 3513 2113 
L 3513 0 
L 2938 0 
L 2938 2094 
Q 2938 2591 2744 2837 
Q 2550 3084 2163 3084 
Q 1697 3084 1428 2787 
Q 1159 2491 1159 1978 
L 1159 0 
L 581 0 
L 581 3500 
L 1159 3500 
L 1159 2956 
Q 1366 3272 1645 3428 
Q 1925 3584 2291 3584 
Q 2894 3584 3203 3211 
Q 3513 2838 3513 2113 
z
" transform="scale(0.015625)"/>
       <path id="DejaVuSans-20" transform="scale(0.015625)"/>
       <path id="DejaVuSans-66" d="M 2375 4863 
L 2375 4384 
L 1825 4384 
Q 1516 4384 1395 4259 
Q 1275 4134 1275 3809 
L 1275 3500 
L 2222 3500 
L 2222 3053 
L 1275 3053 
L 1275 0 
L 697 0 
L 697 3053 
L 147 3053 
L 147 3500 
L 697 3500 
L 697 3744 
Q 697 4328 969 4595 
Q 1241 4863 1831 4863 
L 2375 4863 
z
" transform="scale(0.015625)"/>
       <path id="DejaVuSans-65" d="M 3597 1894 
L 3597 1613 
L 953 1613 
Q 991 1019 1311 708 
Q 1631 397 2203 397 
Q 2534 397 2845 478 
Q 3156 559 3463 722 
L 3463 178 
Q 3153 47 2828 -22 
Q 2503 -91 2169 -91 
Q 1331 -91 842 396 
Q 353 884 353 1716 
Q 353 2575 817 3079 
Q 1281 3584 2069 3584 
Q 2775 3584 3186 3129 
Q 3597 2675 3597 1894 
z
M 3022 2063 
Q 3016 2534 2758 2815 
Q 2500 3097 2075 3097 
Q 1594 3097 1305 2825 
Q 1016 2553 972 2059 
L 3022 2063 
z
" transform="scale(0.015625)"/>
       <path id="DejaVuSans-6c" d="M 603 4863 
L 1178 4863 
L 1178 0 
L 603 0 
L 603 4863 
z
" transform="scale(0.015625)"/>
       <path id="DejaVuSans-73" d="M 2834 3397 
L 2834 2853 
Q 2591 2978 2328 3040 
Q 2066 3103 1784 3103 
Q 1356 3103 1142 2972 
Q 928 2841 928 2578 
Q 928 2378 1081 2264 
Q 1234 2150 1697 2047 
L 1894 2003 
Q 2506 1872 2764 1633 
Q 3022 1394 3022 966 
Q 3022 478 2636 193 
Q 2250 -91 1575 -91 
Q 1294 -91 989 -36 
Q 684 19 347 128 
L 347 722 
Q 666 556 975 473 
Q 1284 391 1588 391 
Q 1994 391 2212 530 
Q 2431 669 2431 922 
Q 2431 1156 2273 1281 
Q 2116 1406 1581 1522 
L 1381 1569 
Q 847 1681 609 1914 
Q 372 2147 372 2553 
Q 372 3047 722 3315 
Q 1072 3584 1716 3584 
Q 2034 3584 2315 3537 
Q 2597 3491 2834 3397 
z
" transform="scale(0.015625)"/>
      </defs>
      <use xlink:href="#DejaVuSans-46"/>
      <use xlink:href="#DejaVuSans-72" x="50.269531"/>
      <use xlink:href="#DejaVuSans-61" x="91.382812"/>
      <use xlink:href="#DejaVuSans-63" x="152.662109"/>
      <use xlink:href="#DejaVuSans-74" x="207.642578"/>
      <use xlink:href="#DejaVuSans-69" x="246.851562"/>
      <use xlink:href="#DejaVuSans-6f" x="274.634766"/>
      <use xlink:href="#DejaVuSans-6e" x="335.816406"/>
      <use xlink:href="#DejaVuSans-20" x="399.195312"/>
      <use xlink:href="#DejaVuSans-6f" x="430.982422"/>
      <use xlink:href="#DejaVuSans-66" x="492.164062"/>
      <use xlink:href="#DejaVuSans-20" x="527.369141"/>
      <use xlink:href="#DejaVuSans-63" x="559.15625"/>
      <use xlink:href="#DejaVuSans-65" x="614.136719"/>
      <use xlink:href="#DejaVuSans-6c" x="675.660156"/>
      <use xlink:href="#DejaVuSans-6c" x="703.443359"/>
      <use xlink:href="#DejaVuSans-73" x="731.226562"/>
     </g>
    </g>
   </g>
   <g id="line2d_16">
    <path d="M 64.518722 241.507772 
L 65.930886 239.676656 
L 67.343051 237.466016 
L 68.755215 234.836539 
L 70.268249 231.513503 
L 71.781282 227.628638 
L 73.395185 222.826872 
L 75.009087 217.311533 
L 76.723859 210.637843 
L 78.539499 202.631737 
L 80.456008 193.121061 
L 82.473386 181.960628 
L 84.793371 167.799422 
L 87.718569 148.425953 
L 93.165489 112.047513 
L 95.081998 100.880198 
L 96.595032 93.249852 
L 97.906328 87.674281 
L 99.116754 83.487247 
L 100.125443 80.748988 
L 101.033264 78.887274 
L 101.840215 77.716335 
L 102.546297 77.063336 
L 103.15151 76.775421 
L 103.756724 76.732777 
L 104.361937 76.928338 
L 104.967151 77.353474 
L 105.673233 78.126103 
L 106.480184 79.351356 
L 107.388004 81.129259 
L 108.497562 83.808364 
L 109.808858 87.568784 
L 111.523629 93.193306 
L 114.852303 105.087837 
L 117.474894 114.049842 
L 119.290534 119.51527 
L 120.904437 123.700663 
L 122.41747 127.009848 
L 123.829635 129.580913 
L 125.2418 131.709836 
L 126.754833 133.599771 
L 128.671342 135.622086 
L 132.50436 139.579218 
L 134.118263 141.642301 
L 135.631296 143.958203 
L 137.14433 146.708087 
L 138.657363 149.921538 
L 140.372135 154.12106 
L 142.288644 159.462693 
L 144.50776 166.362077 
L 147.432958 176.266064 
L 155.401601 203.696686 
L 157.721586 210.69261 
L 159.638095 215.817534 
L 161.352866 219.805317 
L 162.865899 222.807452 
L 164.278064 225.152304 
L 165.58936 226.93254 
L 166.900655 228.341923 
L 168.111082 229.334322 
L 169.321509 230.058978 
L 170.632805 230.583134 
L 172.044969 230.903581 
L 173.759741 231.055138 
L 180.316219 231.380821 
L 182.030991 231.817953 
L 183.846631 232.517496 
L 185.864009 233.553384 
L 188.385731 235.124296 
L 195.749161 239.883675 
L 198.371752 241.225269 
L 201.095213 242.370367 
L 204.323017 243.478711 
L 208.761249 244.749215 
L 213.905563 245.998291 
L 218.041188 246.784398 
L 221.874206 247.288565 
L 226.009831 247.600778 
L 230.851538 247.734356 
L 236.19759 247.659854 
L 240.736691 247.383652 
L 244.771447 246.919473 
L 249.310547 246.158907 
L 257.077452 244.819654 
L 260.103519 244.558855 
L 262.927849 244.540979 
L 265.752178 244.745143 
L 266.155653 244.790655 
L 266.155653 244.790655 
" clip-path="url(#pb18fab76de)" style="fill: none; stroke: #1f77b4; stroke-width: 1.5; stroke-linecap: square"/>
   </g>
   <g id="line2d_17">
    <path d="M 64.518722 242.289311 
L 65.930886 240.70885 
L 67.343051 238.766104 
L 68.755215 236.406718 
L 70.16738 233.576762 
L 71.579545 230.225436 
L 72.991709 226.308204 
L 74.504743 221.44379 
L 76.118645 215.466015 
L 77.833416 208.218362 
L 79.749926 199.070595 
L 81.868172 187.814986 
L 84.490764 172.604435 
L 92.762014 123.641109 
L 94.779392 113.549526 
L 96.494163 106.066543 
L 98.007197 100.423582 
L 99.318492 96.321912 
L 100.528919 93.217509 
L 101.638477 90.961902 
L 102.647166 89.406837 
L 103.554986 88.411153 
L 104.361937 87.84523 
L 105.06802 87.593602 
L 105.774102 87.565805 
L 106.480184 87.757592 
L 107.287135 88.239059 
L 108.094087 88.991664 
L 109.001907 90.149518 
L 110.010596 91.802737 
L 111.221022 94.260742 
L 112.532318 97.452464 
L 114.045352 101.729677 
L 115.860992 107.546716 
L 118.281845 116.119401 
L 127.360047 149.089557 
L 129.680031 156.27884 
L 131.798278 162.151037 
L 133.815656 167.121247 
L 135.833034 171.512672 
L 137.850412 175.377476 
L 139.968659 178.942704 
L 142.187775 182.230613 
L 144.608628 185.416721 
L 147.533827 188.889454 
L 152.072927 193.886535 
L 161.756342 204.189719 
L 165.185884 207.501162 
L 168.111082 210.013196 
L 170.935411 212.147139 
L 174.465823 214.517247 
L 180.013613 218.230266 
L 182.636204 220.284629 
L 185.157926 222.547534 
L 187.881387 225.300873 
L 191.916143 229.750034 
L 196.152637 234.329734 
L 198.674359 236.722191 
L 200.792606 238.434537 
L 202.809984 239.776634 
L 204.726493 240.782399 
L 206.643002 241.534895 
L 208.66038 242.077412 
L 210.778627 242.410161 
L 213.199481 242.553871 
L 216.124679 242.489767 
L 220.361173 242.146354 
L 238.114099 240.491496 
L 241.341904 240.484824 
L 244.166233 240.6995 
L 246.889693 241.134187 
L 249.714023 241.812721 
L 253.244434 242.905044 
L 262.120897 245.763938 
L 265.449571 246.538181 
L 266.155653 246.672923 
L 266.155653 246.672923 
" clip-path="url(#pb18fab76de)" style="fill: none; stroke: #ff7f0e; stroke-width: 1.5; stroke-linecap: square"/>
   </g>
   <g id="line2d_18">
    <path d="M 64.518722 232.404266 
L 65.930886 229.093352 
L 67.44392 224.944786 
L 68.956953 220.116484 
L 70.570856 214.164375 
L 72.184758 207.352692 
L 74.000398 198.664907 
L 76.017776 187.819413 
L 78.337761 174.047691 
L 81.767304 152.148431 
L 86.003797 125.3428 
L 88.222913 112.683529 
L 90.038553 103.504563 
L 91.652456 96.417188 
L 93.06462 91.127006 
L 94.375916 87.015059 
L 95.586343 83.917769 
L 96.695901 81.668675 
L 97.70459 80.108773 
L 98.61241 79.092534 
L 99.419361 78.490825 
L 100.226312 78.166111 
L 100.932395 78.103489 
L 101.638477 78.242172 
L 102.445428 78.640218 
L 103.252379 79.285793 
L 104.160199 80.297255 
L 105.168888 81.760455 
L 106.278446 83.761621 
L 107.589742 86.621209 
L 109.001907 90.248238 
L 110.716678 95.319504 
L 112.734056 102.036865 
L 115.558385 112.29907 
L 120.904437 131.807234 
L 123.426159 140.072495 
L 125.847013 147.238834 
L 128.469604 154.291873 
L 132.100885 163.355894 
L 140.271266 183.015685 
L 143.700808 190.745877 
L 146.525138 196.581038 
L 149.147729 201.494585 
L 151.669452 205.76299 
L 154.292043 209.771456 
L 157.116372 213.671092 
L 160.142439 217.459112 
L 163.269375 221.01904 
L 166.194573 224.030893 
L 168.817165 226.429149 
L 171.137149 228.268162 
L 173.356265 229.75283 
L 175.575381 230.971402 
L 177.996234 232.042283 
L 181.425777 233.285233 
L 185.964878 234.963323 
L 188.890076 236.296334 
L 192.420487 238.169046 
L 198.976966 241.687091 
L 201.902164 242.97266 
L 204.625624 243.931704 
L 207.248216 244.627489 
L 209.971676 245.119479 
L 212.896874 245.415714 
L 216.629023 245.55169 
L 223.891584 245.775277 
L 227.92634 246.173076 
L 239.929739 247.535018 
L 244.973184 247.752042 
L 252.941827 247.836486 
L 266.155653 247.84373 
L 266.155653 247.84373 
" clip-path="url(#pb18fab76de)" style="fill: none; stroke: #2ca02c; stroke-width: 1.5; stroke-linecap: square"/>
   </g>
   <g id="patch_63">
    <path d="M 54.436875 247.84375 
L 54.436875 25.918125 
" style="fill: none; stroke: #000000; stroke-width: 0.8; stroke-linejoin: miter; stroke-linecap: square"/>
   </g>
   <g id="patch_64">
    <path d="M 276.2375 247.84375 
L 276.2375 25.918125 
" style="fill: none; stroke: #000000; stroke-width: 0.8; stroke-linejoin: miter; stroke-linecap: square"/>
   </g>
   <g id="patch_65">
    <path d="M 54.436875 247.84375 
L 276.2375 247.84375 
" style="fill: none; stroke: #000000; stroke-width: 0.8; stroke-linejoin: miter; stroke-linecap: square"/>
   </g>
   <g id="patch_66">
    <path d="M 54.436875 25.918125 
L 276.2375 25.918125 
" style="fill: none; stroke: #000000; stroke-width: 0.8; stroke-linejoin: miter; stroke-linecap: square"/>
   </g>
   <g id="text_17">
    <!-- SRV -->
    <g transform="translate(153.584688 19.918125) scale(0.12 -0.12)">
     <defs>
      <path id="DejaVuSans-53" d="M 3425 4513 
L 3425 3897 
Q 3066 4069 2747 4153 
Q 2428 4238 2131 4238 
Q 1616 4238 1336 4038 
Q 1056 3838 1056 3469 
Q 1056 3159 1242 3001 
Q 1428 2844 1947 2747 
L 2328 2669 
Q 3034 2534 3370 2195 
Q 3706 1856 3706 1288 
Q 3706 609 3251 259 
Q 2797 -91 1919 -91 
Q 1588 -91 1214 -16 
Q 841 59 441 206 
L 441 856 
Q 825 641 1194 531 
Q 1563 422 1919 422 
Q 2459 422 2753 634 
Q 3047 847 3047 1241 
Q 3047 1584 2836 1778 
Q 2625 1972 2144 2069 
L 1759 2144 
Q 1053 2284 737 2584 
Q 422 2884 422 3419 
Q 422 4038 858 4394 
Q 1294 4750 2059 4750 
Q 2388 4750 2728 4690 
Q 3069 4631 3425 4513 
z
" transform="scale(0.015625)"/>
      <path id="DejaVuSans-52" d="M 2841 2188 
Q 3044 2119 3236 1894 
Q 3428 1669 3622 1275 
L 4263 0 
L 3584 0 
L 2988 1197 
Q 2756 1666 2539 1819 
Q 2322 1972 1947 1972 
L 1259 1972 
L 1259 0 
L 628 0 
L 628 4666 
L 2053 4666 
Q 2853 4666 3247 4331 
Q 3641 3997 3641 3322 
Q 3641 2881 3436 2590 
Q 3231 2300 2841 2188 
z
M 1259 4147 
L 1259 2491 
L 2053 2491 
Q 2509 2491 2742 2702 
Q 2975 2913 2975 3322 
Q 2975 3731 2742 3939 
Q 2509 4147 2053 4147 
L 1259 4147 
z
" transform="scale(0.015625)"/>
      <path id="DejaVuSans-56" d="M 1831 0 
L 50 4666 
L 709 4666 
L 2188 738 
L 3669 4666 
L 4325 4666 
L 2547 0 
L 1831 0 
z
" transform="scale(0.015625)"/>
     </defs>
     <use xlink:href="#DejaVuSans-53"/>
     <use xlink:href="#DejaVuSans-52" x="63.476562"/>
     <use xlink:href="#DejaVuSans-56" x="127.458984"/>
    </g>
   </g>
   <g id="legend_1">
    <g id="patch_67">
     <path d="M 148.353125 88.693125 
L 267.8375 88.693125 
Q 270.2375 88.693125 270.2375 86.293125 
L 270.2375 34.318125 
Q 270.2375 31.918125 267.8375 31.918125 
L 148.353125 31.918125 
Q 145.953125 31.918125 145.953125 34.318125 
L 145.953125 86.293125 
Q 145.953125 88.693125 148.353125 88.693125 
z
" style="fill: #ffffff; opacity: 0.8; stroke: #cccccc; stroke-linejoin: miter"/>
    </g>
    <g id="patch_68">
     <path d="M 150.753125 45.83625 
L 174.753125 45.83625 
L 174.753125 37.43625 
L 150.753125 37.43625 
z
" style="fill: #1f77b4; opacity: 0.4"/>
    </g>
    <g id="text_18">
     <!-- MCF10A -->
     <g transform="translate(184.353125 45.83625) scale(0.12 -0.12)">
      <defs>
       <path id="DejaVuSans-4d" d="M 628 4666 
L 1569 4666 
L 2759 1491 
L 3956 4666 
L 4897 4666 
L 4897 0 
L 4281 0 
L 4281 4097 
L 3078 897 
L 2444 897 
L 1241 4097 
L 1241 0 
L 628 0 
L 628 4666 
z
" transform="scale(0.015625)"/>
       <path id="DejaVuSans-43" d="M 4122 4306 
L 4122 3641 
Q 3803 3938 3442 4084 
Q 3081 4231 2675 4231 
Q 1875 4231 1450 3742 
Q 1025 3253 1025 2328 
Q 1025 1406 1450 917 
Q 1875 428 2675 428 
Q 3081 428 3442 575 
Q 3803 722 4122 1019 
L 4122 359 
Q 3791 134 3420 21 
Q 3050 -91 2638 -91 
Q 1578 -91 968 557 
Q 359 1206 359 2328 
Q 359 3453 968 4101 
Q 1578 4750 2638 4750 
Q 3056 4750 3426 4639 
Q 3797 4528 4122 4306 
z
" transform="scale(0.015625)"/>
       <path id="DejaVuSans-41" d="M 2188 4044 
L 1331 1722 
L 3047 1722 
L 2188 4044 
z
M 1831 4666 
L 2547 4666 
L 4325 0 
L 3669 0 
L 3244 1197 
L 1141 1197 
L 716 0 
L 50 0 
L 1831 4666 
z
" transform="scale(0.015625)"/>
      </defs>
      <use xlink:href="#DejaVuSans-4d"/>
      <use xlink:href="#DejaVuSans-43" x="86.279297"/>
      <use xlink:href="#DejaVuSans-46" x="156.103516"/>
      <use xlink:href="#DejaVuSans-31" x="213.623047"/>
      <use xlink:href="#DejaVuSans-30" x="277.246094"/>
      <use xlink:href="#DejaVuSans-41" x="340.869141"/>
     </g>
    </g>
    <g id="patch_69">
     <path d="M 150.753125 63.45 
L 174.753125 63.45 
L 174.753125 55.05 
L 150.753125 55.05 
z
" style="fill: #ff7f0e; opacity: 0.4"/>
    </g>
    <g id="text_19">
     <!-- MCF7 -->
     <g transform="translate(184.353125 63.45) scale(0.12 -0.12)">
      <defs>
       <path id="DejaVuSans-37" d="M 525 4666 
L 3525 4666 
L 3525 4397 
L 1831 0 
L 1172 0 
L 2766 4134 
L 525 4134 
L 525 4666 
z
" transform="scale(0.015625)"/>
      </defs>
      <use xlink:href="#DejaVuSans-4d"/>
      <use xlink:href="#DejaVuSans-43" x="86.279297"/>
      <use xlink:href="#DejaVuSans-46" x="156.103516"/>
      <use xlink:href="#DejaVuSans-37" x="213.623047"/>
     </g>
    </g>
    <g id="patch_70">
     <path d="M 150.753125 81.06375 
L 174.753125 81.06375 
L 174.753125 72.66375 
L 150.753125 72.66375 
z
" style="fill: #2ca02c; opacity: 0.4"/>
    </g>
    <g id="text_20">
     <!-- MDA_MB_231 -->
     <g transform="translate(184.353125 81.06375) scale(0.12 -0.12)">
      <defs>
       <path id="DejaVuSans-44" d="M 1259 4147 
L 1259 519 
L 2022 519 
Q 2988 519 3436 956 
Q 3884 1394 3884 2338 
Q 3884 3275 3436 3711 
Q 2988 4147 2022 4147 
L 1259 4147 
z
M 628 4666 
L 1925 4666 
Q 3281 4666 3915 4102 
Q 4550 3538 4550 2338 
Q 4550 1131 3912 565 
Q 3275 0 1925 0 
L 628 0 
L 628 4666 
z
" transform="scale(0.015625)"/>
       <path id="DejaVuSans-5f" d="M 3263 -1063 
L 3263 -1509 
L -63 -1509 
L -63 -1063 
L 3263 -1063 
z
" transform="scale(0.015625)"/>
       <path id="DejaVuSans-42" d="M 1259 2228 
L 1259 519 
L 2272 519 
Q 2781 519 3026 730 
Q 3272 941 3272 1375 
Q 3272 1813 3026 2020 
Q 2781 2228 2272 2228 
L 1259 2228 
z
M 1259 4147 
L 1259 2741 
L 2194 2741 
Q 2656 2741 2882 2914 
Q 3109 3088 3109 3444 
Q 3109 3797 2882 3972 
Q 2656 4147 2194 4147 
L 1259 4147 
z
M 628 4666 
L 2241 4666 
Q 2963 4666 3353 4366 
Q 3744 4066 3744 3513 
Q 3744 3084 3544 2831 
Q 3344 2578 2956 2516 
Q 3422 2416 3680 2098 
Q 3938 1781 3938 1306 
Q 3938 681 3513 340 
Q 3088 0 2303 0 
L 628 0 
L 628 4666 
z
" transform="scale(0.015625)"/>
      </defs>
      <use xlink:href="#DejaVuSans-4d"/>
      <use xlink:href="#DejaVuSans-44" x="86.279297"/>
      <use xlink:href="#DejaVuSans-41" x="161.53125"/>
      <use xlink:href="#DejaVuSans-5f" x="229.939453"/>
      <use xlink:href="#DejaVuSans-4d" x="279.939453"/>
      <use xlink:href="#DejaVuSans-42" x="366.21875"/>
      <use xlink:href="#DejaVuSans-5f" x="434.822266"/>
      <use xlink:href="#DejaVuSans-32" x="484.822266"/>
      <use xlink:href="#DejaVuSans-33" x="548.445312"/>
      <use xlink:href="#DejaVuSans-31" x="612.068359"/>
     </g>
    </g>
   </g>
  </g>
  <g id="axes_2">
   <g id="patch_71">
    <path d="M 343.399375 247.84375 
L 565.2 247.84375 
L 565.2 25.918125 
L 343.399375 25.918125 
z
" style="fill: #ffffff"/>
   </g>
   <g id="patch_72">
    <path d="M 353.481222 247.84375 
L 363.563068 247.84375 
L 363.563068 125.762929 
L 353.481222 125.762929 
z
" clip-path="url(#p6150727fa1)" style="fill: #1f77b4; opacity: 0.4"/>
   </g>
   <g id="patch_73">
    <path d="M 363.563068 247.84375 
L 373.644915 247.84375 
L 373.644915 155.747692 
L 363.563068 155.747692 
z
" clip-path="url(#p6150727fa1)" style="fill: #1f77b4; opacity: 0.4"/>
   </g>
   <g id="patch_74">
    <path d="M 373.644915 247.84375 
L 383.726761 247.84375 
L 383.726761 230.7096 
L 373.644915 230.7096 
z
" clip-path="url(#p6150727fa1)" style="fill: #1f77b4; opacity: 0.4"/>
   </g>
   <g id="patch_75">
    <path d="M 383.726761 247.84375 
L 393.808608 247.84375 
L 393.808608 243.560212 
L 383.726761 243.560212 
z
" clip-path="url(#p6150727fa1)" style="fill: #1f77b4; opacity: 0.4"/>
   </g>
   <g id="patch_76">
    <path d="M 393.808608 247.84375 
L 403.890455 247.84375 
L 403.890455 244.631097 
L 393.808608 244.631097 
z
" clip-path="url(#p6150727fa1)" style="fill: #1f77b4; opacity: 0.4"/>
   </g>
   <g id="patch_77">
    <path d="M 403.890455 247.84375 
L 413.972301 247.84375 
L 413.972301 245.701981 
L 403.890455 245.701981 
z
" clip-path="url(#p6150727fa1)" style="fill: #1f77b4; opacity: 0.4"/>
   </g>
   <g id="patch_78">
    <path d="M 413.972301 247.84375 
L 424.054148 247.84375 
L 424.054148 247.84375 
L 413.972301 247.84375 
z
" clip-path="url(#p6150727fa1)" style="fill: #1f77b4; opacity: 0.4"/>
   </g>
   <g id="patch_79">
    <path d="M 424.054148 247.84375 
L 434.135994 247.84375 
L 434.135994 247.84375 
L 424.054148 247.84375 
z
" clip-path="url(#p6150727fa1)" style="fill: #1f77b4; opacity: 0.4"/>
   </g>
   <g id="patch_80">
    <path d="M 434.135994 247.84375 
L 444.217841 247.84375 
L 444.217841 247.84375 
L 434.135994 247.84375 
z
" clip-path="url(#p6150727fa1)" style="fill: #1f77b4; opacity: 0.4"/>
   </g>
   <g id="patch_81">
    <path d="M 444.217841 247.84375 
L 454.299688 247.84375 
L 454.299688 246.772866 
L 444.217841 246.772866 
z
" clip-path="url(#p6150727fa1)" style="fill: #1f77b4; opacity: 0.4"/>
   </g>
   <g id="patch_82">
    <path d="M 454.299688 247.84375 
L 464.381534 247.84375 
L 464.381534 247.84375 
L 454.299688 247.84375 
z
" clip-path="url(#p6150727fa1)" style="fill: #1f77b4; opacity: 0.4"/>
   </g>
   <g id="patch_83">
    <path d="M 464.381534 247.84375 
L 474.463381 247.84375 
L 474.463381 247.84375 
L 464.381534 247.84375 
z
" clip-path="url(#p6150727fa1)" style="fill: #1f77b4; opacity: 0.4"/>
   </g>
   <g id="patch_84">
    <path d="M 474.463381 247.84375 
L 484.545227 247.84375 
L 484.545227 247.84375 
L 474.463381 247.84375 
z
" clip-path="url(#p6150727fa1)" style="fill: #1f77b4; opacity: 0.4"/>
   </g>
   <g id="patch_85">
    <path d="M 484.545227 247.84375 
L 494.627074 247.84375 
L 494.627074 247.84375 
L 484.545227 247.84375 
z
" clip-path="url(#p6150727fa1)" style="fill: #1f77b4; opacity: 0.4"/>
   </g>
   <g id="patch_86">
    <path d="M 494.627074 247.84375 
L 504.70892 247.84375 
L 504.70892 247.84375 
L 494.627074 247.84375 
z
" clip-path="url(#p6150727fa1)" style="fill: #1f77b4; opacity: 0.4"/>
   </g>
   <g id="patch_87">
    <path d="M 504.70892 247.84375 
L 514.790767 247.84375 
L 514.790767 247.84375 
L 504.70892 247.84375 
z
" clip-path="url(#p6150727fa1)" style="fill: #1f77b4; opacity: 0.4"/>
   </g>
   <g id="patch_88">
    <path d="M 514.790767 247.84375 
L 524.872614 247.84375 
L 524.872614 247.84375 
L 514.790767 247.84375 
z
" clip-path="url(#p6150727fa1)" style="fill: #1f77b4; opacity: 0.4"/>
   </g>
   <g id="patch_89">
    <path d="M 524.872614 247.84375 
L 534.95446 247.84375 
L 534.95446 247.84375 
L 524.872614 247.84375 
z
" clip-path="url(#p6150727fa1)" style="fill: #1f77b4; opacity: 0.4"/>
   </g>
   <g id="patch_90">
    <path d="M 534.95446 247.84375 
L 545.036307 247.84375 
L 545.036307 247.84375 
L 534.95446 247.84375 
z
" clip-path="url(#p6150727fa1)" style="fill: #1f77b4; opacity: 0.4"/>
   </g>
   <g id="patch_91">
    <path d="M 545.036307 247.84375 
L 555.118153 247.84375 
L 555.118153 246.772866 
L 545.036307 246.772866 
z
" clip-path="url(#p6150727fa1)" style="fill: #1f77b4; opacity: 0.4"/>
   </g>
   <g id="patch_92">
    <path d="M 355.115781 247.84375 
L 356.979347 247.84375 
L 356.979347 183.262219 
L 355.115781 183.262219 
z
" clip-path="url(#p6150727fa1)" style="fill: #ff7f0e; opacity: 0.4"/>
   </g>
   <g id="patch_93">
    <path d="M 356.979347 247.84375 
L 358.842914 247.84375 
L 358.842914 118.680687 
L 356.979347 118.680687 
z
" clip-path="url(#p6150727fa1)" style="fill: #ff7f0e; opacity: 0.4"/>
   </g>
   <g id="patch_94">
    <path d="M 358.842914 247.84375 
L 360.70648 247.84375 
L 360.70648 36.486012 
L 358.842914 36.486012 
z
" clip-path="url(#p6150727fa1)" style="fill: #ff7f0e; opacity: 0.4"/>
   </g>
   <g id="patch_95">
    <path d="M 360.70648 247.84375 
L 362.570047 247.84375 
L 362.570047 54.099156 
L 360.70648 54.099156 
z
" clip-path="url(#p6150727fa1)" style="fill: #ff7f0e; opacity: 0.4"/>
   </g>
   <g id="patch_96">
    <path d="M 362.570047 247.84375 
L 364.433613 247.84375 
L 364.433613 130.422784 
L 362.570047 130.422784 
z
" clip-path="url(#p6150727fa1)" style="fill: #ff7f0e; opacity: 0.4"/>
   </g>
   <g id="patch_97">
    <path d="M 364.433613 247.84375 
L 366.297179 247.84375 
L 366.297179 89.325446 
L 364.433613 89.325446 
z
" clip-path="url(#p6150727fa1)" style="fill: #ff7f0e; opacity: 0.4"/>
   </g>
   <g id="patch_98">
    <path d="M 366.297179 247.84375 
L 368.160746 247.84375 
L 368.160746 136.293833 
L 366.297179 136.293833 
z
" clip-path="url(#p6150727fa1)" style="fill: #ff7f0e; opacity: 0.4"/>
   </g>
   <g id="patch_99">
    <path d="M 368.160746 247.84375 
L 370.024312 247.84375 
L 370.024312 159.778025 
L 368.160746 159.778025 
z
" clip-path="url(#p6150727fa1)" style="fill: #ff7f0e; opacity: 0.4"/>
   </g>
   <g id="patch_100">
    <path d="M 370.024312 247.84375 
L 371.887878 247.84375 
L 371.887878 171.520122 
L 370.024312 171.520122 
z
" clip-path="url(#p6150727fa1)" style="fill: #ff7f0e; opacity: 0.4"/>
   </g>
   <g id="patch_101">
    <path d="M 371.887878 247.84375 
L 373.751445 247.84375 
L 373.751445 212.61746 
L 371.887878 212.61746 
z
" clip-path="url(#p6150727fa1)" style="fill: #ff7f0e; opacity: 0.4"/>
   </g>
   <g id="patch_102">
    <path d="M 373.751445 247.84375 
L 375.615011 247.84375 
L 375.615011 236.101653 
L 373.751445 236.101653 
z
" clip-path="url(#p6150727fa1)" style="fill: #ff7f0e; opacity: 0.4"/>
   </g>
   <g id="patch_103">
    <path d="M 375.615011 247.84375 
L 377.478577 247.84375 
L 377.478577 218.488509 
L 375.615011 218.488509 
z
" clip-path="url(#p6150727fa1)" style="fill: #ff7f0e; opacity: 0.4"/>
   </g>
   <g id="patch_104">
    <path d="M 377.478577 247.84375 
L 379.342144 247.84375 
L 379.342144 230.230605 
L 377.478577 230.230605 
z
" clip-path="url(#p6150727fa1)" style="fill: #ff7f0e; opacity: 0.4"/>
   </g>
   <g id="patch_105">
    <path d="M 379.342144 247.84375 
L 381.20571 247.84375 
L 381.20571 236.101653 
L 379.342144 236.101653 
z
" clip-path="url(#p6150727fa1)" style="fill: #ff7f0e; opacity: 0.4"/>
   </g>
   <g id="patch_106">
    <path d="M 381.20571 247.84375 
L 383.069276 247.84375 
L 383.069276 236.101653 
L 381.20571 236.101653 
z
" clip-path="url(#p6150727fa1)" style="fill: #ff7f0e; opacity: 0.4"/>
   </g>
   <g id="patch_107">
    <path d="M 383.069276 247.84375 
L 384.932843 247.84375 
L 384.932843 230.230605 
L 383.069276 230.230605 
z
" clip-path="url(#p6150727fa1)" style="fill: #ff7f0e; opacity: 0.4"/>
   </g>
   <g id="patch_108">
    <path d="M 384.932843 247.84375 
L 386.796409 247.84375 
L 386.796409 247.84375 
L 384.932843 247.84375 
z
" clip-path="url(#p6150727fa1)" style="fill: #ff7f0e; opacity: 0.4"/>
   </g>
   <g id="patch_109">
    <path d="M 386.796409 247.84375 
L 388.659975 247.84375 
L 388.659975 241.972702 
L 386.796409 241.972702 
z
" clip-path="url(#p6150727fa1)" style="fill: #ff7f0e; opacity: 0.4"/>
   </g>
   <g id="patch_110">
    <path d="M 388.659975 247.84375 
L 390.523542 247.84375 
L 390.523542 236.101653 
L 388.659975 236.101653 
z
" clip-path="url(#p6150727fa1)" style="fill: #ff7f0e; opacity: 0.4"/>
   </g>
   <g id="patch_111">
    <path d="M 390.523542 247.84375 
L 392.387108 247.84375 
L 392.387108 236.101653 
L 390.523542 236.101653 
z
" clip-path="url(#p6150727fa1)" style="fill: #ff7f0e; opacity: 0.4"/>
   </g>
   <g id="patch_112">
    <path d="M 353.85191 247.84375 
L 363.618625 247.84375 
L 363.618625 130.288954 
L 353.85191 130.288954 
z
" clip-path="url(#p6150727fa1)" style="fill: #2ca02c; opacity: 0.4"/>
   </g>
   <g id="patch_113">
    <path d="M 363.618625 247.84375 
L 373.385341 247.84375 
L 373.385341 156.286649 
L 363.618625 156.286649 
z
" clip-path="url(#p6150727fa1)" style="fill: #2ca02c; opacity: 0.4"/>
   </g>
   <g id="patch_114">
    <path d="M 373.385341 247.84375 
L 383.152057 247.84375 
L 383.152057 220.71572 
L 373.385341 220.71572 
z
" clip-path="url(#p6150727fa1)" style="fill: #2ca02c; opacity: 0.4"/>
   </g>
   <g id="patch_115">
    <path d="M 383.152057 247.84375 
L 392.918772 247.84375 
L 392.918772 241.061743 
L 383.152057 241.061743 
z
" clip-path="url(#p6150727fa1)" style="fill: #2ca02c; opacity: 0.4"/>
   </g>
   <g id="patch_116">
    <path d="M 392.918772 247.84375 
L 402.685488 247.84375 
L 402.685488 245.583081 
L 392.918772 245.583081 
z
" clip-path="url(#p6150727fa1)" style="fill: #2ca02c; opacity: 0.4"/>
   </g>
   <g id="patch_117">
    <path d="M 402.685488 247.84375 
L 412.452204 247.84375 
L 412.452204 247.84375 
L 402.685488 247.84375 
z
" clip-path="url(#p6150727fa1)" style="fill: #2ca02c; opacity: 0.4"/>
   </g>
   <g id="patch_118">
    <path d="M 412.452204 247.84375 
L 422.218919 247.84375 
L 422.218919 247.84375 
L 412.452204 247.84375 
z
" clip-path="url(#p6150727fa1)" style="fill: #2ca02c; opacity: 0.4"/>
   </g>
   <g id="patch_119">
    <path d="M 422.218919 247.84375 
L 431.985635 247.84375 
L 431.985635 246.713415 
L 422.218919 246.713415 
z
" clip-path="url(#p6150727fa1)" style="fill: #2ca02c; opacity: 0.4"/>
   </g>
   <g id="patch_120">
    <path d="M 431.985635 247.84375 
L 441.752351 247.84375 
L 441.752351 246.713415 
L 431.985635 246.713415 
z
" clip-path="url(#p6150727fa1)" style="fill: #2ca02c; opacity: 0.4"/>
   </g>
   <g id="patch_121">
    <path d="M 441.752351 247.84375 
L 451.519066 247.84375 
L 451.519066 247.84375 
L 441.752351 247.84375 
z
" clip-path="url(#p6150727fa1)" style="fill: #2ca02c; opacity: 0.4"/>
   </g>
   <g id="patch_122">
    <path d="M 451.519066 247.84375 
L 461.285782 247.84375 
L 461.285782 246.713415 
L 451.519066 246.713415 
z
" clip-path="url(#p6150727fa1)" style="fill: #2ca02c; opacity: 0.4"/>
   </g>
   <g id="patch_123">
    <path d="M 461.285782 247.84375 
L 471.052498 247.84375 
L 471.052498 247.84375 
L 461.285782 247.84375 
z
" clip-path="url(#p6150727fa1)" style="fill: #2ca02c; opacity: 0.4"/>
   </g>
   <g id="patch_124">
    <path d="M 471.052498 247.84375 
L 480.819213 247.84375 
L 480.819213 247.84375 
L 471.052498 247.84375 
z
" clip-path="url(#p6150727fa1)" style="fill: #2ca02c; opacity: 0.4"/>
   </g>
   <g id="patch_125">
    <path d="M 480.819213 247.84375 
L 490.585929 247.84375 
L 490.585929 247.84375 
L 480.819213 247.84375 
z
" clip-path="url(#p6150727fa1)" style="fill: #2ca02c; opacity: 0.4"/>
   </g>
   <g id="patch_126">
    <path d="M 490.585929 247.84375 
L 500.352645 247.84375 
L 500.352645 246.713415 
L 490.585929 246.713415 
z
" clip-path="url(#p6150727fa1)" style="fill: #2ca02c; opacity: 0.4"/>
   </g>
   <g id="patch_127">
    <path d="M 500.352645 247.84375 
L 510.11936 247.84375 
L 510.11936 247.84375 
L 500.352645 247.84375 
z
" clip-path="url(#p6150727fa1)" style="fill: #2ca02c; opacity: 0.4"/>
   </g>
   <g id="patch_128">
    <path d="M 510.11936 247.84375 
L 519.886076 247.84375 
L 519.886076 247.84375 
L 510.11936 247.84375 
z
" clip-path="url(#p6150727fa1)" style="fill: #2ca02c; opacity: 0.4"/>
   </g>
   <g id="patch_129">
    <path d="M 519.886076 247.84375 
L 529.652792 247.84375 
L 529.652792 247.84375 
L 519.886076 247.84375 
z
" clip-path="url(#p6150727fa1)" style="fill: #2ca02c; opacity: 0.4"/>
   </g>
   <g id="patch_130">
    <path d="M 529.652792 247.84375 
L 539.419507 247.84375 
L 539.419507 247.84375 
L 529.652792 247.84375 
z
" clip-path="url(#p6150727fa1)" style="fill: #2ca02c; opacity: 0.4"/>
   </g>
   <g id="patch_131">
    <path d="M 539.419507 247.84375 
L 549.186223 247.84375 
L 549.186223 246.713415 
L 539.419507 246.713415 
z
" clip-path="url(#p6150727fa1)" style="fill: #2ca02c; opacity: 0.4"/>
   </g>
   <g id="matplotlib.axis_3">
    <g id="xtick_8">
     <g id="line2d_19">
      <g>
       <use xlink:href="#m88ed9d9b7a" x="345.016266" y="247.84375" style="stroke: #000000; stroke-width: 0.8"/>
      </g>
     </g>
     <g id="text_21">
      <!-- 0.0054 -->
      <g transform="translate(327.520953 262.442187) scale(0.1 -0.1)">
       <use xlink:href="#DejaVuSans-30"/>
       <use xlink:href="#DejaVuSans-2e" x="63.623047"/>
       <use xlink:href="#DejaVuSans-30" x="95.410156"/>
       <use xlink:href="#DejaVuSans-30" x="159.033203"/>
       <use xlink:href="#DejaVuSans-35" x="222.65625"/>
       <use xlink:href="#DejaVuSans-34" x="286.279297"/>
      </g>
     </g>
    </g>
    <g id="xtick_9">
     <g id="line2d_20">
      <g>
       <use xlink:href="#m88ed9d9b7a" x="379.093925" y="247.84375" style="stroke: #000000; stroke-width: 0.8"/>
      </g>
     </g>
     <g id="text_22">
      <!-- 0.0056 -->
      <g transform="translate(361.598613 262.442187) scale(0.1 -0.1)">
       <use xlink:href="#DejaVuSans-30"/>
       <use xlink:href="#DejaVuSans-2e" x="63.623047"/>
       <use xlink:href="#DejaVuSans-30" x="95.410156"/>
       <use xlink:href="#DejaVuSans-30" x="159.033203"/>
       <use xlink:href="#DejaVuSans-35" x="222.65625"/>
       <use xlink:href="#DejaVuSans-36" x="286.279297"/>
      </g>
     </g>
    </g>
    <g id="xtick_10">
     <g id="line2d_21">
      <g>
       <use xlink:href="#m88ed9d9b7a" x="413.171585" y="247.84375" style="stroke: #000000; stroke-width: 0.8"/>
      </g>
     </g>
     <g id="text_23">
      <!-- 0.0058 -->
      <g transform="translate(395.676272 262.442187) scale(0.1 -0.1)">
       <use xlink:href="#DejaVuSans-30"/>
       <use xlink:href="#DejaVuSans-2e" x="63.623047"/>
       <use xlink:href="#DejaVuSans-30" x="95.410156"/>
       <use xlink:href="#DejaVuSans-30" x="159.033203"/>
       <use xlink:href="#DejaVuSans-35" x="222.65625"/>
       <use xlink:href="#DejaVuSans-38" x="286.279297"/>
      </g>
     </g>
    </g>
    <g id="xtick_11">
     <g id="line2d_22">
      <g>
       <use xlink:href="#m88ed9d9b7a" x="447.249244" y="247.84375" style="stroke: #000000; stroke-width: 0.8"/>
      </g>
     </g>
     <g id="text_24">
      <!-- 0.0060 -->
      <g transform="translate(429.753931 262.442187) scale(0.1 -0.1)">
       <use xlink:href="#DejaVuSans-30"/>
       <use xlink:href="#DejaVuSans-2e" x="63.623047"/>
       <use xlink:href="#DejaVuSans-30" x="95.410156"/>
       <use xlink:href="#DejaVuSans-30" x="159.033203"/>
       <use xlink:href="#DejaVuSans-36" x="222.65625"/>
       <use xlink:href="#DejaVuSans-30" x="286.279297"/>
      </g>
     </g>
    </g>
    <g id="xtick_12">
     <g id="line2d_23">
      <g>
       <use xlink:href="#m88ed9d9b7a" x="481.326903" y="247.84375" style="stroke: #000000; stroke-width: 0.8"/>
      </g>
     </g>
     <g id="text_25">
      <!-- 0.0062 -->
      <g transform="translate(463.831591 262.442187) scale(0.1 -0.1)">
       <use xlink:href="#DejaVuSans-30"/>
       <use xlink:href="#DejaVuSans-2e" x="63.623047"/>
       <use xlink:href="#DejaVuSans-30" x="95.410156"/>
       <use xlink:href="#DejaVuSans-30" x="159.033203"/>
       <use xlink:href="#DejaVuSans-36" x="222.65625"/>
       <use xlink:href="#DejaVuSans-32" x="286.279297"/>
      </g>
     </g>
    </g>
    <g id="xtick_13">
     <g id="line2d_24">
      <g>
       <use xlink:href="#m88ed9d9b7a" x="515.404563" y="247.84375" style="stroke: #000000; stroke-width: 0.8"/>
      </g>
     </g>
     <g id="text_26">
      <!-- 0.0064 -->
      <g transform="translate(497.90925 262.442187) scale(0.1 -0.1)">
       <use xlink:href="#DejaVuSans-30"/>
       <use xlink:href="#DejaVuSans-2e" x="63.623047"/>
       <use xlink:href="#DejaVuSans-30" x="95.410156"/>
       <use xlink:href="#DejaVuSans-30" x="159.033203"/>
       <use xlink:href="#DejaVuSans-36" x="222.65625"/>
       <use xlink:href="#DejaVuSans-34" x="286.279297"/>
      </g>
     </g>
    </g>
    <g id="xtick_14">
     <g id="line2d_25">
      <g>
       <use xlink:href="#m88ed9d9b7a" x="549.482222" y="247.84375" style="stroke: #000000; stroke-width: 0.8"/>
      </g>
     </g>
     <g id="text_27">
      <!-- 0.0066 -->
      <g transform="translate(531.98691 262.442187) scale(0.1 -0.1)">
       <use xlink:href="#DejaVuSans-30"/>
       <use xlink:href="#DejaVuSans-2e" x="63.623047"/>
       <use xlink:href="#DejaVuSans-30" x="95.410156"/>
       <use xlink:href="#DejaVuSans-30" x="159.033203"/>
       <use xlink:href="#DejaVuSans-36" x="222.65625"/>
       <use xlink:href="#DejaVuSans-36" x="286.279297"/>
      </g>
     </g>
    </g>
    <g id="text_28">
     <!-- +4.4732e2 -->
     <g transform="translate(509.314062 275.120313) scale(0.1 -0.1)">
      <defs>
       <path id="DejaVuSans-2b" d="M 2944 4013 
L 2944 2272 
L 4684 2272 
L 4684 1741 
L 2944 1741 
L 2944 0 
L 2419 0 
L 2419 1741 
L 678 1741 
L 678 2272 
L 2419 2272 
L 2419 4013 
L 2944 4013 
z
" transform="scale(0.015625)"/>
      </defs>
      <use xlink:href="#DejaVuSans-2b"/>
      <use xlink:href="#DejaVuSans-34" x="83.789062"/>
      <use xlink:href="#DejaVuSans-2e" x="147.412109"/>
      <use xlink:href="#DejaVuSans-34" x="179.199219"/>
      <use xlink:href="#DejaVuSans-37" x="242.822266"/>
      <use xlink:href="#DejaVuSans-33" x="306.445312"/>
      <use xlink:href="#DejaVuSans-32" x="370.068359"/>
      <use xlink:href="#DejaVuSans-65" x="433.691406"/>
      <use xlink:href="#DejaVuSans-32" x="495.214844"/>
     </g>
    </g>
   </g>
   <g id="matplotlib.axis_4">
    <g id="ytick_9">
     <g id="line2d_26">
      <g>
       <use xlink:href="#mb2a5d30b52" x="343.399375" y="247.84375" style="stroke: #000000; stroke-width: 0.8"/>
      </g>
     </g>
     <g id="text_29">
      <!-- 0 -->
      <g transform="translate(330.036875 251.642969) scale(0.1 -0.1)">
       <use xlink:href="#DejaVuSans-30"/>
      </g>
     </g>
    </g>
    <g id="ytick_10">
     <g id="line2d_27">
      <g>
       <use xlink:href="#mb2a5d30b52" x="343.399375" y="219.076472" style="stroke: #000000; stroke-width: 0.8"/>
      </g>
     </g>
     <g id="text_30">
      <!-- 2000 -->
      <g transform="translate(310.949375 222.875691) scale(0.1 -0.1)">
       <use xlink:href="#DejaVuSans-32"/>
       <use xlink:href="#DejaVuSans-30" x="63.623047"/>
       <use xlink:href="#DejaVuSans-30" x="127.246094"/>
       <use xlink:href="#DejaVuSans-30" x="190.869141"/>
      </g>
     </g>
    </g>
    <g id="ytick_11">
     <g id="line2d_28">
      <g>
       <use xlink:href="#mb2a5d30b52" x="343.399375" y="190.309195" style="stroke: #000000; stroke-width: 0.8"/>
      </g>
     </g>
     <g id="text_31">
      <!-- 4000 -->
      <g transform="translate(310.949375 194.108413) scale(0.1 -0.1)">
       <use xlink:href="#DejaVuSans-34"/>
       <use xlink:href="#DejaVuSans-30" x="63.623047"/>
       <use xlink:href="#DejaVuSans-30" x="127.246094"/>
       <use xlink:href="#DejaVuSans-30" x="190.869141"/>
      </g>
     </g>
    </g>
    <g id="ytick_12">
     <g id="line2d_29">
      <g>
       <use xlink:href="#mb2a5d30b52" x="343.399375" y="161.541917" style="stroke: #000000; stroke-width: 0.8"/>
      </g>
     </g>
     <g id="text_32">
      <!-- 6000 -->
      <g transform="translate(310.949375 165.341136) scale(0.1 -0.1)">
       <use xlink:href="#DejaVuSans-36"/>
       <use xlink:href="#DejaVuSans-30" x="63.623047"/>
       <use xlink:href="#DejaVuSans-30" x="127.246094"/>
       <use xlink:href="#DejaVuSans-30" x="190.869141"/>
      </g>
     </g>
    </g>
    <g id="ytick_13">
     <g id="line2d_30">
      <g>
       <use xlink:href="#mb2a5d30b52" x="343.399375" y="132.774639" style="stroke: #000000; stroke-width: 0.8"/>
      </g>
     </g>
     <g id="text_33">
      <!-- 8000 -->
      <g transform="translate(310.949375 136.573858) scale(0.1 -0.1)">
       <use xlink:href="#DejaVuSans-38"/>
       <use xlink:href="#DejaVuSans-30" x="63.623047"/>
       <use xlink:href="#DejaVuSans-30" x="127.246094"/>
       <use xlink:href="#DejaVuSans-30" x="190.869141"/>
      </g>
     </g>
    </g>
    <g id="ytick_14">
     <g id="line2d_31">
      <g>
       <use xlink:href="#mb2a5d30b52" x="343.399375" y="104.007362" style="stroke: #000000; stroke-width: 0.8"/>
      </g>
     </g>
     <g id="text_34">
      <!-- 10000 -->
      <g transform="translate(304.586875 107.80658) scale(0.1 -0.1)">
       <use xlink:href="#DejaVuSans-31"/>
       <use xlink:href="#DejaVuSans-30" x="63.623047"/>
       <use xlink:href="#DejaVuSans-30" x="127.246094"/>
       <use xlink:href="#DejaVuSans-30" x="190.869141"/>
       <use xlink:href="#DejaVuSans-30" x="254.492188"/>
      </g>
     </g>
    </g>
    <g id="ytick_15">
     <g id="line2d_32">
      <g>
       <use xlink:href="#mb2a5d30b52" x="343.399375" y="75.240084" style="stroke: #000000; stroke-width: 0.8"/>
      </g>
     </g>
     <g id="text_35">
      <!-- 12000 -->
      <g transform="translate(304.586875 79.039303) scale(0.1 -0.1)">
       <use xlink:href="#DejaVuSans-31"/>
       <use xlink:href="#DejaVuSans-32" x="63.623047"/>
       <use xlink:href="#DejaVuSans-30" x="127.246094"/>
       <use xlink:href="#DejaVuSans-30" x="190.869141"/>
       <use xlink:href="#DejaVuSans-30" x="254.492188"/>
      </g>
     </g>
    </g>
    <g id="ytick_16">
     <g id="line2d_33">
      <g>
       <use xlink:href="#mb2a5d30b52" x="343.399375" y="46.472806" style="stroke: #000000; stroke-width: 0.8"/>
      </g>
     </g>
     <g id="text_36">
      <!-- 14000 -->
      <g transform="translate(304.586875 50.272025) scale(0.1 -0.1)">
       <use xlink:href="#DejaVuSans-31"/>
       <use xlink:href="#DejaVuSans-34" x="63.623047"/>
       <use xlink:href="#DejaVuSans-30" x="127.246094"/>
       <use xlink:href="#DejaVuSans-30" x="190.869141"/>
       <use xlink:href="#DejaVuSans-30" x="254.492188"/>
      </g>
     </g>
    </g>
    <g id="text_37">
     <!-- Fraction of cells -->
     <g transform="translate(297.675312 191.712812) rotate(-90) scale(0.14 -0.14)">
      <use xlink:href="#DejaVuSans-46"/>
      <use xlink:href="#DejaVuSans-72" x="50.269531"/>
      <use xlink:href="#DejaVuSans-61" x="91.382812"/>
      <use xlink:href="#DejaVuSans-63" x="152.662109"/>
      <use xlink:href="#DejaVuSans-74" x="207.642578"/>
      <use xlink:href="#DejaVuSans-69" x="246.851562"/>
      <use xlink:href="#DejaVuSans-6f" x="274.634766"/>
      <use xlink:href="#DejaVuSans-6e" x="335.816406"/>
      <use xlink:href="#DejaVuSans-20" x="399.195312"/>
      <use xlink:href="#DejaVuSans-6f" x="430.982422"/>
      <use xlink:href="#DejaVuSans-66" x="492.164062"/>
      <use xlink:href="#DejaVuSans-20" x="527.369141"/>
      <use xlink:href="#DejaVuSans-63" x="559.15625"/>
      <use xlink:href="#DejaVuSans-65" x="614.136719"/>
      <use xlink:href="#DejaVuSans-6c" x="675.660156"/>
      <use xlink:href="#DejaVuSans-6c" x="703.443359"/>
      <use xlink:href="#DejaVuSans-73" x="731.226562"/>
     </g>
    </g>
   </g>
   <g id="line2d_34">
    <path d="M 353.481222 191.758138 
L 357.415109 154.623315 
L 358.625536 145.588591 
L 359.634225 139.673621 
L 360.441176 136.156089 
L 361.147258 134.023648 
L 361.651603 133.054518 
L 362.155947 132.549178 
L 362.559423 132.476452 
L 362.962898 132.69407 
L 363.366374 133.196052 
L 363.870718 134.211552 
L 364.475932 135.974386 
L 365.182014 138.732025 
L 366.089834 143.274266 
L 367.199392 150.105403 
L 368.611557 160.289913 
L 374.461953 204.292467 
L 375.874117 212.419644 
L 377.185413 218.716398 
L 378.496709 223.902207 
L 379.707136 227.839382 
L 381.018431 231.347138 
L 382.329727 234.218194 
L 383.641023 236.572188 
L 384.952319 238.492948 
L 386.263614 240.039565 
L 387.57491 241.260163 
L 388.987075 242.264314 
L 390.500108 243.052431 
L 392.214879 243.679952 
L 394.333126 244.197862 
L 396.955718 244.599958 
L 400.687867 244.923408 
L 405.731312 245.382546 
L 409.967806 246.037854 
L 418.138187 247.336307 
L 421.870336 247.666965 
L 426.207699 247.81224 
L 434.781555 247.823923 
L 440.430214 247.658302 
L 446.078872 247.224312 
L 449.609284 247.067069 
L 452.635351 247.161135 
L 464.739619 247.823094 
L 478.054314 247.843748 
L 544.123443 247.735144 
L 548.662544 247.449401 
L 554.51294 247.07117 
L 555.118153 247.066549 
L 555.118153 247.066549 
" clip-path="url(#p6150727fa1)" style="fill: none; stroke: #1f77b4; stroke-width: 1.5; stroke-linecap: square"/>
   </g>
   <g id="line2d_35">
    <path d="M 353.481222 227.431311 
L 354.187304 217.047899 
L 354.994255 201.544053 
L 356.002944 177.189209 
L 359.029011 99.088616 
L 359.735093 88.078539 
L 360.239438 83.132614 
L 360.642914 80.936402 
L 360.94552 80.260337 
L 361.147258 80.238264 
L 361.348996 80.532568 
L 361.651603 81.510463 
L 362.055078 83.667845 
L 362.660292 88.263018 
L 363.769849 98.848756 
L 368.409819 146.618759 
L 370.023721 166.027319 
L 373.655002 211.730842 
L 374.361084 217.365944 
L 375.067166 221.25295 
L 375.67238 223.391068 
L 376.277593 224.745297 
L 377.084544 225.924619 
L 378.39584 227.776463 
L 379.505398 229.835238 
L 382.127989 234.82211 
L 385.557532 240.889702 
L 386.162745 241.417101 
L 386.66709 241.597304 
L 387.171434 241.551588 
L 387.776648 241.258861 
L 389.894895 239.97356 
L 390.399239 239.993685 
L 390.903584 240.216405 
L 391.508797 240.741983 
L 392.315748 241.795836 
L 395.442684 246.339346 
L 396.350504 247.062105 
L 397.258324 247.484499 
L 398.367882 247.726867 
L 400.082654 247.829745 
L 406.941739 247.84375 
L 555.118153 247.84375 
L 555.118153 247.84375 
" clip-path="url(#p6150727fa1)" style="fill: none; stroke: #ff7f0e; stroke-width: 1.5; stroke-linecap: square"/>
   </g>
   <g id="line2d_36">
    <path d="M 353.481222 196.55152 
L 357.515978 166.09658 
L 358.827273 158.068524 
L 359.835962 153.075558 
L 360.743782 149.60878 
L 361.550734 147.408892 
L 362.155947 146.321873 
L 362.660292 145.787218 
L 363.063767 145.600837 
L 363.467243 145.625935 
L 363.870718 145.858314 
L 364.375063 146.43192 
L 364.980276 147.518023 
L 365.686359 149.299083 
L 366.49331 151.950881 
L 367.501999 156.067365 
L 368.813294 162.478832 
L 370.628935 172.653667 
L 375.974986 203.370161 
L 377.689758 211.655727 
L 379.30366 218.380689 
L 380.816694 223.71755 
L 382.228858 227.891162 
L 383.540154 231.127492 
L 384.85145 233.8171 
L 386.162745 236.033248 
L 387.57491 237.974724 
L 388.987075 239.539161 
L 390.500108 240.884977 
L 392.214879 242.096788 
L 394.131388 243.168271 
L 396.451373 244.200678 
L 399.47744 245.285544 
L 402.906983 246.280588 
L 406.033919 246.961293 
L 408.858248 247.346029 
L 411.682577 247.50339 
L 414.910382 247.452684 
L 421.063385 247.0653 
L 426.10683 246.875903 
L 431.352013 246.905402 
L 436.395458 247.152621 
L 443.758887 247.533599 
L 447.591906 247.467757 
L 457.073582 247.174192 
L 461.511814 247.399573 
L 468.774375 247.762587 
L 475.330853 247.817554 
L 481.685594 247.668976 
L 494.495944 247.195106 
L 499.640258 247.488792 
L 505.793261 247.770008 
L 513.25756 247.840589 
L 535.852193 247.765483 
L 541.500852 247.509283 
L 548.864282 247.155744 
L 552.596431 247.24622 
L 555.118153 247.395827 
L 555.118153 247.395827 
" clip-path="url(#p6150727fa1)" style="fill: none; stroke: #2ca02c; stroke-width: 1.5; stroke-linecap: square"/>
   </g>
   <g id="patch_132">
    <path d="M 343.399375 247.84375 
L 343.399375 25.918125 
" style="fill: none; stroke: #000000; stroke-width: 0.8; stroke-linejoin: miter; stroke-linecap: square"/>
   </g>
   <g id="patch_133">
    <path d="M 565.2 247.84375 
L 565.2 25.918125 
" style="fill: none; stroke: #000000; stroke-width: 0.8; stroke-linejoin: miter; stroke-linecap: square"/>
   </g>
   <g id="patch_134">
    <path d="M 343.399375 247.84375 
L 565.2 247.84375 
" style="fill: none; stroke: #000000; stroke-width: 0.8; stroke-linejoin: miter; stroke-linecap: square"/>
   </g>
   <g id="patch_135">
    <path d="M 343.399375 25.918125 
L 565.2 25.918125 
" style="fill: none; stroke: #000000; stroke-width: 0.8; stroke-linejoin: miter; stroke-linecap: square"/>
   </g>
   <g id="text_38">
    <!-- Linear -->
    <g transform="translate(435.651875 19.918125) scale(0.12 -0.12)">
     <defs>
      <path id="DejaVuSans-4c" d="M 628 4666 
L 1259 4666 
L 1259 531 
L 3531 531 
L 3531 0 
L 628 0 
L 628 4666 
z
" transform="scale(0.015625)"/>
     </defs>
     <use xlink:href="#DejaVuSans-4c"/>
     <use xlink:href="#DejaVuSans-69" x="55.712891"/>
     <use xlink:href="#DejaVuSans-6e" x="83.496094"/>
     <use xlink:href="#DejaVuSans-65" x="146.875"/>
     <use xlink:href="#DejaVuSans-61" x="208.398438"/>
     <use xlink:href="#DejaVuSans-72" x="269.677734"/>
    </g>
   </g>
   <g id="legend_2">
    <g id="patch_136">
     <path d="M 437.315625 88.693125 
L 556.8 88.693125 
Q 559.2 88.693125 559.2 86.293125 
L 559.2 34.318125 
Q 559.2 31.918125 556.8 31.918125 
L 437.315625 31.918125 
Q 434.915625 31.918125 434.915625 34.318125 
L 434.915625 86.293125 
Q 434.915625 88.693125 437.315625 88.693125 
z
" style="fill: #ffffff; opacity: 0.8; stroke: #cccccc; stroke-linejoin: miter"/>
    </g>
    <g id="patch_137">
     <path d="M 439.715625 45.83625 
L 463.715625 45.83625 
L 463.715625 37.43625 
L 439.715625 37.43625 
z
" style="fill: #1f77b4; opacity: 0.4"/>
    </g>
    <g id="text_39">
     <!-- MCF10A -->
     <g transform="translate(473.315625 45.83625) scale(0.12 -0.12)">
      <use xlink:href="#DejaVuSans-4d"/>
      <use xlink:href="#DejaVuSans-43" x="86.279297"/>
      <use xlink:href="#DejaVuSans-46" x="156.103516"/>
      <use xlink:href="#DejaVuSans-31" x="213.623047"/>
      <use xlink:href="#DejaVuSans-30" x="277.246094"/>
      <use xlink:href="#DejaVuSans-41" x="340.869141"/>
     </g>
    </g>
    <g id="patch_138">
     <path d="M 439.715625 63.45 
L 463.715625 63.45 
L 463.715625 55.05 
L 439.715625 55.05 
z
" style="fill: #ff7f0e; opacity: 0.4"/>
    </g>
    <g id="text_40">
     <!-- MCF7 -->
     <g transform="translate(473.315625 63.45) scale(0.12 -0.12)">
      <use xlink:href="#DejaVuSans-4d"/>
      <use xlink:href="#DejaVuSans-43" x="86.279297"/>
      <use xlink:href="#DejaVuSans-46" x="156.103516"/>
      <use xlink:href="#DejaVuSans-37" x="213.623047"/>
     </g>
    </g>
    <g id="patch_139">
     <path d="M 439.715625 81.06375 
L 463.715625 81.06375 
L 463.715625 72.66375 
L 439.715625 72.66375 
z
" style="fill: #2ca02c; opacity: 0.4"/>
    </g>
    <g id="text_41">
     <!-- MDA_MB_231 -->
     <g transform="translate(473.315625 81.06375) scale(0.12 -0.12)">
      <use xlink:href="#DejaVuSans-4d"/>
      <use xlink:href="#DejaVuSans-44" x="86.279297"/>
      <use xlink:href="#DejaVuSans-41" x="161.53125"/>
      <use xlink:href="#DejaVuSans-5f" x="229.939453"/>
      <use xlink:href="#DejaVuSans-4d" x="279.939453"/>
      <use xlink:href="#DejaVuSans-42" x="366.21875"/>
      <use xlink:href="#DejaVuSans-5f" x="434.822266"/>
      <use xlink:href="#DejaVuSans-32" x="484.822266"/>
      <use xlink:href="#DejaVuSans-33" x="548.445312"/>
      <use xlink:href="#DejaVuSans-31" x="612.068359"/>
     </g>
    </g>
   </g>
  </g>
 </g>
 <defs>
  <clipPath id="pb18fab76de">
   <rect x="54.436875" y="25.918125" width="221.800625" height="221.925625"/>
  </clipPath>
  <clipPath id="p6150727fa1">
   <rect x="343.399375" y="25.918125" width="221.800625" height="221.925625"/>
  </clipPath>
 </defs>
</svg>
