<?xml version="1.0" encoding="utf-8" standalone="no"?>
<!DOCTYPE svg PUBLIC "-//W3C//DTD SVG 1.1//EN"
  "http://www.w3.org/Graphics/SVG/1.1/DTD/svg11.dtd">
<svg xmlns:xlink="http://www.w3.org/1999/xlink" width="576pt" height="288pt" viewBox="0 0 576 288" xmlns="http://www.w3.org/2000/svg" version="1.1">
 <metadata>
  <rdf:RDF xmlns:dc="http://purl.org/dc/elements/1.1/" xmlns:cc="http://creativecommons.org/ns#" xmlns:rdf="http://www.w3.org/1999/02/22-rdf-syntax-ns#">
   <cc:Work>
    <dc:type rdf:resource="http://purl.org/dc/dcmitype/StillImage"/>
    <dc:date>2024-04-24T09:52:25.789644</dc:date>
    <dc:format>image/svg+xml</dc:format>
    <dc:creator>
     <cc:Agent>
      <dc:title>Matplotlib v3.8.4, https://matplotlib.org/</dc:title>
     </cc:Agent>
    </dc:creator>
   </cc:Work>
  </rdf:RDF>
 </metadata>
 <defs>
  <style type="text/css">*{stroke-linejoin: round; stroke-linecap: butt}</style>
 </defs>
 <g id="figure_1">
  <g id="patch_1">
   <path d="M 0 288 
L 576 288 
L 576 0 
L 0 0 
z
" style="fill: #ffffff"/>
  </g>
  <g id="axes_1">
   <g id="patch_2">
    <path d="M 41.711875 260.521875 
L 277.829687 260.521875 
L 277.829687 25.918125 
L 41.711875 25.918125 
z
" style="fill: #ffffff"/>
   </g>
   <g id="patch_3">
    <path d="M 118.995103 260.521875 
L 122.106196 260.521875 
L 122.106196 251.116636 
L 118.995103 251.116636 
z
" clip-path="url(#p9cf12fbeb2)" style="fill: #1f77b4; opacity: 0.4"/>
   </g>
   <g id="patch_4">
    <path d="M 122.106196 260.521875 
L 125.21729 260.521875 
L 125.21729 260.521875 
L 122.106196 260.521875 
z
" clip-path="url(#p9cf12fbeb2)" style="fill: #1f77b4; opacity: 0.4"/>
   </g>
   <g id="patch_5">
    <path d="M 125.21729 260.521875 
L 128.328383 260.521875 
L 128.328383 260.521875 
L 125.21729 260.521875 
z
" clip-path="url(#p9cf12fbeb2)" style="fill: #1f77b4; opacity: 0.4"/>
   </g>
   <g id="patch_6">
    <path d="M 128.328383 260.521875 
L 131.439477 260.521875 
L 131.439477 260.521875 
L 128.328383 260.521875 
z
" clip-path="url(#p9cf12fbeb2)" style="fill: #1f77b4; opacity: 0.4"/>
   </g>
   <g id="patch_7">
    <path d="M 131.439477 260.521875 
L 134.55057 260.521875 
L 134.55057 260.521875 
L 131.439477 260.521875 
z
" clip-path="url(#p9cf12fbeb2)" style="fill: #1f77b4; opacity: 0.4"/>
   </g>
   <g id="patch_8">
    <path d="M 134.55057 260.521875 
L 137.661664 260.521875 
L 137.661664 260.521875 
L 134.55057 260.521875 
z
" clip-path="url(#p9cf12fbeb2)" style="fill: #1f77b4; opacity: 0.4"/>
   </g>
   <g id="patch_9">
    <path d="M 137.661664 260.521875 
L 140.772757 260.521875 
L 140.772757 260.521875 
L 137.661664 260.521875 
z
" clip-path="url(#p9cf12fbeb2)" style="fill: #1f77b4; opacity: 0.4"/>
   </g>
   <g id="patch_10">
    <path d="M 140.772757 260.521875 
L 143.883851 260.521875 
L 143.883851 260.521875 
L 140.772757 260.521875 
z
" clip-path="url(#p9cf12fbeb2)" style="fill: #1f77b4; opacity: 0.4"/>
   </g>
   <g id="patch_11">
    <path d="M 143.883851 260.521875 
L 146.994945 260.521875 
L 146.994945 251.116636 
L 143.883851 251.116636 
z
" clip-path="url(#p9cf12fbeb2)" style="fill: #1f77b4; opacity: 0.4"/>
   </g>
   <g id="patch_12">
    <path d="M 146.994945 260.521875 
L 150.106038 260.521875 
L 150.106038 232.306158 
L 146.994945 232.306158 
z
" clip-path="url(#p9cf12fbeb2)" style="fill: #1f77b4; opacity: 0.4"/>
   </g>
   <g id="patch_13">
    <path d="M 150.106038 260.521875 
L 153.217132 260.521875 
L 153.217132 199.387822 
L 150.106038 199.387822 
z
" clip-path="url(#p9cf12fbeb2)" style="fill: #1f77b4; opacity: 0.4"/>
   </g>
   <g id="patch_14">
    <path d="M 153.217132 260.521875 
L 156.328225 260.521875 
L 156.328225 119.443291 
L 153.217132 119.443291 
z
" clip-path="url(#p9cf12fbeb2)" style="fill: #1f77b4; opacity: 0.4"/>
   </g>
   <g id="patch_15">
    <path d="M 156.328225 260.521875 
L 159.439319 260.521875 
L 159.439319 63.011857 
L 156.328225 63.011857 
z
" clip-path="url(#p9cf12fbeb2)" style="fill: #1f77b4; opacity: 0.4"/>
   </g>
   <g id="patch_16">
    <path d="M 159.439319 260.521875 
L 162.550412 260.521875 
L 162.550412 48.903998 
L 159.439319 48.903998 
z
" clip-path="url(#p9cf12fbeb2)" style="fill: #1f77b4; opacity: 0.4"/>
   </g>
   <g id="patch_17">
    <path d="M 162.550412 260.521875 
L 165.661506 260.521875 
L 165.661506 119.443291 
L 162.550412 119.443291 
z
" clip-path="url(#p9cf12fbeb2)" style="fill: #1f77b4; opacity: 0.4"/>
   </g>
   <g id="patch_18">
    <path d="M 165.661506 260.521875 
L 168.772599 260.521875 
L 168.772599 152.361627 
L 165.661506 152.361627 
z
" clip-path="url(#p9cf12fbeb2)" style="fill: #1f77b4; opacity: 0.4"/>
   </g>
   <g id="patch_19">
    <path d="M 168.772599 260.521875 
L 171.883693 260.521875 
L 171.883693 204.090441 
L 168.772599 204.090441 
z
" clip-path="url(#p9cf12fbeb2)" style="fill: #1f77b4; opacity: 0.4"/>
   </g>
   <g id="patch_20">
    <path d="M 171.883693 260.521875 
L 174.994787 260.521875 
L 174.994787 189.982583 
L 171.883693 189.982583 
z
" clip-path="url(#p9cf12fbeb2)" style="fill: #1f77b4; opacity: 0.4"/>
   </g>
   <g id="patch_21">
    <path d="M 174.994787 260.521875 
L 178.10588 260.521875 
L 178.10588 241.711397 
L 174.994787 241.711397 
z
" clip-path="url(#p9cf12fbeb2)" style="fill: #1f77b4; opacity: 0.4"/>
   </g>
   <g id="patch_22">
    <path d="M 178.10588 260.521875 
L 181.216974 260.521875 
L 181.216974 246.414017 
L 178.10588 246.414017 
z
" clip-path="url(#p9cf12fbeb2)" style="fill: #1f77b4; opacity: 0.4"/>
   </g>
   <g id="patch_23">
    <path d="M 149.735832 260.521875 
L 151.285249 260.521875 
L 151.285249 231.815153 
L 149.735832 231.815153 
z
" clip-path="url(#p9cf12fbeb2)" style="fill: #ff7f0e; opacity: 0.4"/>
   </g>
   <g id="patch_24">
    <path d="M 151.285249 260.521875 
L 152.834666 260.521875 
L 152.834666 203.10843 
L 151.285249 203.10843 
z
" clip-path="url(#p9cf12fbeb2)" style="fill: #ff7f0e; opacity: 0.4"/>
   </g>
   <g id="patch_25">
    <path d="M 152.834666 260.521875 
L 154.384083 260.521875 
L 154.384083 203.10843 
L 152.834666 203.10843 
z
" clip-path="url(#p9cf12fbeb2)" style="fill: #ff7f0e; opacity: 0.4"/>
   </g>
   <g id="patch_26">
    <path d="M 154.384083 260.521875 
L 155.933501 260.521875 
L 155.933501 97.850448 
L 154.384083 97.850448 
z
" clip-path="url(#p9cf12fbeb2)" style="fill: #ff7f0e; opacity: 0.4"/>
   </g>
   <g id="patch_27">
    <path d="M 155.933501 260.521875 
L 157.482918 260.521875 
L 157.482918 183.970615 
L 155.933501 183.970615 
z
" clip-path="url(#p9cf12fbeb2)" style="fill: #ff7f0e; opacity: 0.4"/>
   </g>
   <g id="patch_28">
    <path d="M 157.482918 260.521875 
L 159.032335 260.521875 
L 159.032335 97.850448 
L 157.482918 97.850448 
z
" clip-path="url(#p9cf12fbeb2)" style="fill: #ff7f0e; opacity: 0.4"/>
   </g>
   <g id="patch_29">
    <path d="M 159.032335 260.521875 
L 160.581752 260.521875 
L 160.581752 88.281541 
L 159.032335 88.281541 
z
" clip-path="url(#p9cf12fbeb2)" style="fill: #ff7f0e; opacity: 0.4"/>
   </g>
   <g id="patch_30">
    <path d="M 160.581752 260.521875 
L 162.13117 260.521875 
L 162.13117 59.574819 
L 160.581752 59.574819 
z
" clip-path="url(#p9cf12fbeb2)" style="fill: #ff7f0e; opacity: 0.4"/>
   </g>
   <g id="patch_31">
    <path d="M 162.13117 260.521875 
L 163.680587 260.521875 
L 163.680587 116.988263 
L 162.13117 116.988263 
z
" clip-path="url(#p9cf12fbeb2)" style="fill: #ff7f0e; opacity: 0.4"/>
   </g>
   <g id="patch_32">
    <path d="M 163.680587 260.521875 
L 165.230004 260.521875 
L 165.230004 145.694986 
L 163.680587 145.694986 
z
" clip-path="url(#p9cf12fbeb2)" style="fill: #ff7f0e; opacity: 0.4"/>
   </g>
   <g id="patch_33">
    <path d="M 165.230004 260.521875 
L 166.779422 260.521875 
L 166.779422 116.988263 
L 165.230004 116.988263 
z
" clip-path="url(#p9cf12fbeb2)" style="fill: #ff7f0e; opacity: 0.4"/>
   </g>
   <g id="patch_34">
    <path d="M 166.779422 260.521875 
L 168.328839 260.521875 
L 168.328839 183.970615 
L 166.779422 183.970615 
z
" clip-path="url(#p9cf12fbeb2)" style="fill: #ff7f0e; opacity: 0.4"/>
   </g>
   <g id="patch_35">
    <path d="M 168.328839 260.521875 
L 169.878256 260.521875 
L 169.878256 136.126078 
L 168.328839 136.126078 
z
" clip-path="url(#p9cf12fbeb2)" style="fill: #ff7f0e; opacity: 0.4"/>
   </g>
   <g id="patch_36">
    <path d="M 169.878256 260.521875 
L 171.427673 260.521875 
L 171.427673 107.419356 
L 169.878256 107.419356 
z
" clip-path="url(#p9cf12fbeb2)" style="fill: #ff7f0e; opacity: 0.4"/>
   </g>
   <g id="patch_37">
    <path d="M 171.427673 260.521875 
L 172.977091 260.521875 
L 172.977091 174.401708 
L 171.427673 174.401708 
z
" clip-path="url(#p9cf12fbeb2)" style="fill: #ff7f0e; opacity: 0.4"/>
   </g>
   <g id="patch_38">
    <path d="M 172.977091 260.521875 
L 174.526508 260.521875 
L 174.526508 164.832801 
L 172.977091 164.832801 
z
" clip-path="url(#p9cf12fbeb2)" style="fill: #ff7f0e; opacity: 0.4"/>
   </g>
   <g id="patch_39">
    <path d="M 174.526508 260.521875 
L 176.075925 260.521875 
L 176.075925 193.539523 
L 174.526508 193.539523 
z
" clip-path="url(#p9cf12fbeb2)" style="fill: #ff7f0e; opacity: 0.4"/>
   </g>
   <g id="patch_40">
    <path d="M 176.075925 260.521875 
L 177.625343 260.521875 
L 177.625343 193.539523 
L 176.075925 193.539523 
z
" clip-path="url(#p9cf12fbeb2)" style="fill: #ff7f0e; opacity: 0.4"/>
   </g>
   <g id="patch_41">
    <path d="M 177.625343 260.521875 
L 179.17476 260.521875 
L 179.17476 183.970615 
L 177.625343 183.970615 
z
" clip-path="url(#p9cf12fbeb2)" style="fill: #ff7f0e; opacity: 0.4"/>
   </g>
   <g id="patch_42">
    <path d="M 179.17476 260.521875 
L 180.724177 260.521875 
L 180.724177 183.970615 
L 179.17476 183.970615 
z
" clip-path="url(#p9cf12fbeb2)" style="fill: #ff7f0e; opacity: 0.4"/>
   </g>
   <g id="patch_43">
    <path d="M 143.438766 260.521875 
L 145.447403 260.521875 
L 145.447403 238.178661 
L 143.438766 238.178661 
z
" clip-path="url(#p9cf12fbeb2)" style="fill: #2ca02c; opacity: 0.4"/>
   </g>
   <g id="patch_44">
    <path d="M 145.447403 260.521875 
L 147.45604 260.521875 
L 147.45604 230.730923 
L 145.447403 230.730923 
z
" clip-path="url(#p9cf12fbeb2)" style="fill: #2ca02c; opacity: 0.4"/>
   </g>
   <g id="patch_45">
    <path d="M 147.45604 260.521875 
L 149.464677 260.521875 
L 149.464677 230.730923 
L 147.45604 230.730923 
z
" clip-path="url(#p9cf12fbeb2)" style="fill: #2ca02c; opacity: 0.4"/>
   </g>
   <g id="patch_46">
    <path d="M 149.464677 260.521875 
L 151.473313 260.521875 
L 151.473313 200.93997 
L 149.464677 200.93997 
z
" clip-path="url(#p9cf12fbeb2)" style="fill: #2ca02c; opacity: 0.4"/>
   </g>
   <g id="patch_47">
    <path d="M 151.473313 260.521875 
L 153.48195 260.521875 
L 153.48195 96.671637 
L 151.473313 96.671637 
z
" clip-path="url(#p9cf12fbeb2)" style="fill: #2ca02c; opacity: 0.4"/>
   </g>
   <g id="patch_48">
    <path d="M 153.48195 260.521875 
L 155.490587 260.521875 
L 155.490587 37.089732 
L 153.48195 37.089732 
z
" clip-path="url(#p9cf12fbeb2)" style="fill: #2ca02c; opacity: 0.4"/>
   </g>
   <g id="patch_49">
    <path d="M 155.490587 260.521875 
L 157.499223 260.521875 
L 157.499223 51.985208 
L 155.490587 51.985208 
z
" clip-path="url(#p9cf12fbeb2)" style="fill: #2ca02c; opacity: 0.4"/>
   </g>
   <g id="patch_50">
    <path d="M 157.499223 260.521875 
L 159.50786 260.521875 
L 159.50786 133.910327 
L 157.499223 133.910327 
z
" clip-path="url(#p9cf12fbeb2)" style="fill: #2ca02c; opacity: 0.4"/>
   </g>
   <g id="patch_51">
    <path d="M 159.50786 260.521875 
L 161.516497 260.521875 
L 161.516497 148.805804 
L 159.50786 148.805804 
z
" clip-path="url(#p9cf12fbeb2)" style="fill: #2ca02c; opacity: 0.4"/>
   </g>
   <g id="patch_52">
    <path d="M 161.516497 260.521875 
L 163.525134 260.521875 
L 163.525134 148.805804 
L 161.516497 148.805804 
z
" clip-path="url(#p9cf12fbeb2)" style="fill: #2ca02c; opacity: 0.4"/>
   </g>
   <g id="patch_53">
    <path d="M 163.525134 260.521875 
L 165.53377 260.521875 
L 165.53377 126.462589 
L 163.525134 126.462589 
z
" clip-path="url(#p9cf12fbeb2)" style="fill: #2ca02c; opacity: 0.4"/>
   </g>
   <g id="patch_54">
    <path d="M 165.53377 260.521875 
L 167.542407 260.521875 
L 167.542407 193.492232 
L 165.53377 193.492232 
z
" clip-path="url(#p9cf12fbeb2)" style="fill: #2ca02c; opacity: 0.4"/>
   </g>
   <g id="patch_55">
    <path d="M 167.542407 260.521875 
L 169.551044 260.521875 
L 169.551044 193.492232 
L 167.542407 193.492232 
z
" clip-path="url(#p9cf12fbeb2)" style="fill: #2ca02c; opacity: 0.4"/>
   </g>
   <g id="patch_56">
    <path d="M 169.551044 260.521875 
L 171.55968 260.521875 
L 171.55968 223.283185 
L 169.551044 223.283185 
z
" clip-path="url(#p9cf12fbeb2)" style="fill: #2ca02c; opacity: 0.4"/>
   </g>
   <g id="patch_57">
    <path d="M 171.55968 260.521875 
L 173.568317 260.521875 
L 173.568317 133.910327 
L 171.55968 133.910327 
z
" clip-path="url(#p9cf12fbeb2)" style="fill: #2ca02c; opacity: 0.4"/>
   </g>
   <g id="patch_58">
    <path d="M 173.568317 260.521875 
L 175.576954 260.521875 
L 175.576954 230.730923 
L 173.568317 230.730923 
z
" clip-path="url(#p9cf12fbeb2)" style="fill: #2ca02c; opacity: 0.4"/>
   </g>
   <g id="patch_59">
    <path d="M 175.576954 260.521875 
L 177.585591 260.521875 
L 177.585591 208.387708 
L 175.576954 208.387708 
z
" clip-path="url(#p9cf12fbeb2)" style="fill: #2ca02c; opacity: 0.4"/>
   </g>
   <g id="patch_60">
    <path d="M 177.585591 260.521875 
L 179.594227 260.521875 
L 179.594227 223.283185 
L 177.585591 223.283185 
z
" clip-path="url(#p9cf12fbeb2)" style="fill: #2ca02c; opacity: 0.4"/>
   </g>
   <g id="patch_61">
    <path d="M 179.594227 260.521875 
L 181.602864 260.521875 
L 181.602864 260.521875 
L 179.594227 260.521875 
z
" clip-path="url(#p9cf12fbeb2)" style="fill: #2ca02c; opacity: 0.4"/>
   </g>
   <g id="patch_62">
    <path d="M 181.602864 260.521875 
L 183.611501 260.521875 
L 183.611501 245.626399 
L 181.602864 245.626399 
z
" clip-path="url(#p9cf12fbeb2)" style="fill: #2ca02c; opacity: 0.4"/>
   </g>
   <g id="matplotlib.axis_1">
    <g id="xtick_1">
     <g id="line2d_1">
      <defs>
       <path id="m3b979ddb81" d="M 0 0 
L 0 3.5 
" style="stroke: #000000; stroke-width: 0.8"/>
      </defs>
      <g>
       <use xlink:href="#m3b979ddb81" x="52.444503" y="260.521875" style="stroke: #000000; stroke-width: 0.8"/>
      </g>
     </g>
     <g id="text_1">
      <!-- 0.0 -->
      <g transform="translate(44.49294 275.120313) scale(0.1 -0.1)">
       <defs>
        <path id="DejaVuSans-30" d="M 2034 4250 
Q 1547 4250 1301 3770 
Q 1056 3291 1056 2328 
Q 1056 1369 1301 889 
Q 1547 409 2034 409 
Q 2525 409 2770 889 
Q 3016 1369 3016 2328 
Q 3016 3291 2770 3770 
Q 2525 4250 2034 4250 
z
M 2034 4750 
Q 2819 4750 3233 4129 
Q 3647 3509 3647 2328 
Q 3647 1150 3233 529 
Q 2819 -91 2034 -91 
Q 1250 -91 836 529 
Q 422 1150 422 2328 
Q 422 3509 836 4129 
Q 1250 4750 2034 4750 
z
" transform="scale(0.015625)"/>
        <path id="DejaVuSans-2e" d="M 684 794 
L 1344 794 
L 1344 0 
L 684 0 
L 684 794 
z
" transform="scale(0.015625)"/>
       </defs>
       <use xlink:href="#DejaVuSans-30"/>
       <use xlink:href="#DejaVuSans-2e" x="63.623047"/>
       <use xlink:href="#DejaVuSans-30" x="95.410156"/>
      </g>
     </g>
    </g>
    <g id="xtick_2">
     <g id="line2d_2">
      <g>
       <use xlink:href="#m3b979ddb81" x="106.107642" y="260.521875" style="stroke: #000000; stroke-width: 0.8"/>
      </g>
     </g>
     <g id="text_2">
      <!-- 0.5 -->
      <g transform="translate(98.15608 275.120313) scale(0.1 -0.1)">
       <defs>
        <path id="DejaVuSans-35" d="M 691 4666 
L 3169 4666 
L 3169 4134 
L 1269 4134 
L 1269 2991 
Q 1406 3038 1543 3061 
Q 1681 3084 1819 3084 
Q 2600 3084 3056 2656 
Q 3513 2228 3513 1497 
Q 3513 744 3044 326 
Q 2575 -91 1722 -91 
Q 1428 -91 1123 -41 
Q 819 9 494 109 
L 494 744 
Q 775 591 1075 516 
Q 1375 441 1709 441 
Q 2250 441 2565 725 
Q 2881 1009 2881 1497 
Q 2881 1984 2565 2268 
Q 2250 2553 1709 2553 
Q 1456 2553 1204 2497 
Q 953 2441 691 2322 
L 691 4666 
z
" transform="scale(0.015625)"/>
       </defs>
       <use xlink:href="#DejaVuSans-30"/>
       <use xlink:href="#DejaVuSans-2e" x="63.623047"/>
       <use xlink:href="#DejaVuSans-35" x="95.410156"/>
      </g>
     </g>
    </g>
    <g id="xtick_3">
     <g id="line2d_3">
      <g>
       <use xlink:href="#m3b979ddb81" x="159.770781" y="260.521875" style="stroke: #000000; stroke-width: 0.8"/>
      </g>
     </g>
     <g id="text_3">
      <!-- 1.0 -->
      <g transform="translate(151.819219 275.120313) scale(0.1 -0.1)">
       <defs>
        <path id="DejaVuSans-31" d="M 794 531 
L 1825 531 
L 1825 4091 
L 703 3866 
L 703 4441 
L 1819 4666 
L 2450 4666 
L 2450 531 
L 3481 531 
L 3481 0 
L 794 0 
L 794 531 
z
" transform="scale(0.015625)"/>
       </defs>
       <use xlink:href="#DejaVuSans-31"/>
       <use xlink:href="#DejaVuSans-2e" x="63.623047"/>
       <use xlink:href="#DejaVuSans-30" x="95.410156"/>
      </g>
     </g>
    </g>
    <g id="xtick_4">
     <g id="line2d_4">
      <g>
       <use xlink:href="#m3b979ddb81" x="213.43392" y="260.521875" style="stroke: #000000; stroke-width: 0.8"/>
      </g>
     </g>
     <g id="text_4">
      <!-- 1.5 -->
      <g transform="translate(205.482358 275.120313) scale(0.1 -0.1)">
       <use xlink:href="#DejaVuSans-31"/>
       <use xlink:href="#DejaVuSans-2e" x="63.623047"/>
       <use xlink:href="#DejaVuSans-35" x="95.410156"/>
      </g>
     </g>
    </g>
    <g id="xtick_5">
     <g id="line2d_5">
      <g>
       <use xlink:href="#m3b979ddb81" x="267.09706" y="260.521875" style="stroke: #000000; stroke-width: 0.8"/>
      </g>
     </g>
     <g id="text_5">
      <!-- 2.0 -->
      <g transform="translate(259.145497 275.120313) scale(0.1 -0.1)">
       <defs>
        <path id="DejaVuSans-32" d="M 1228 531 
L 3431 531 
L 3431 0 
L 469 0 
L 469 531 
Q 828 903 1448 1529 
Q 2069 2156 2228 2338 
Q 2531 2678 2651 2914 
Q 2772 3150 2772 3378 
Q 2772 3750 2511 3984 
Q 2250 4219 1831 4219 
Q 1534 4219 1204 4116 
Q 875 4013 500 3803 
L 500 4441 
Q 881 4594 1212 4672 
Q 1544 4750 1819 4750 
Q 2544 4750 2975 4387 
Q 3406 4025 3406 3419 
Q 3406 3131 3298 2873 
Q 3191 2616 2906 2266 
Q 2828 2175 2409 1742 
Q 1991 1309 1228 531 
z
" transform="scale(0.015625)"/>
       </defs>
       <use xlink:href="#DejaVuSans-32"/>
       <use xlink:href="#DejaVuSans-2e" x="63.623047"/>
       <use xlink:href="#DejaVuSans-30" x="95.410156"/>
      </g>
     </g>
    </g>
   </g>
   <g id="matplotlib.axis_2">
    <g id="ytick_1">
     <g id="line2d_6">
      <defs>
       <path id="m62631f70ea" d="M 0 0 
L -3.5 0 
" style="stroke: #000000; stroke-width: 0.8"/>
      </defs>
      <g>
       <use xlink:href="#m62631f70ea" x="41.711875" y="260.521875" style="stroke: #000000; stroke-width: 0.8"/>
      </g>
     </g>
     <g id="text_6">
      <!-- 0 -->
      <g transform="translate(28.349375 264.321094) scale(0.1 -0.1)">
       <use xlink:href="#DejaVuSans-30"/>
      </g>
     </g>
    </g>
    <g id="ytick_2">
     <g id="line2d_7">
      <g>
       <use xlink:href="#m62631f70ea" x="41.711875" y="229.578143" style="stroke: #000000; stroke-width: 0.8"/>
      </g>
     </g>
     <g id="text_7">
      <!-- 1 -->
      <g transform="translate(28.349375 233.377361) scale(0.1 -0.1)">
       <use xlink:href="#DejaVuSans-31"/>
      </g>
     </g>
    </g>
    <g id="ytick_3">
     <g id="line2d_8">
      <g>
       <use xlink:href="#m62631f70ea" x="41.711875" y="198.63441" style="stroke: #000000; stroke-width: 0.8"/>
      </g>
     </g>
     <g id="text_8">
      <!-- 2 -->
      <g transform="translate(28.349375 202.433629) scale(0.1 -0.1)">
       <use xlink:href="#DejaVuSans-32"/>
      </g>
     </g>
    </g>
    <g id="ytick_4">
     <g id="line2d_9">
      <g>
       <use xlink:href="#m62631f70ea" x="41.711875" y="167.690678" style="stroke: #000000; stroke-width: 0.8"/>
      </g>
     </g>
     <g id="text_9">
      <!-- 3 -->
      <g transform="translate(28.349375 171.489897) scale(0.1 -0.1)">
       <defs>
        <path id="DejaVuSans-33" d="M 2597 2516 
Q 3050 2419 3304 2112 
Q 3559 1806 3559 1356 
Q 3559 666 3084 287 
Q 2609 -91 1734 -91 
Q 1441 -91 1130 -33 
Q 819 25 488 141 
L 488 750 
Q 750 597 1062 519 
Q 1375 441 1716 441 
Q 2309 441 2620 675 
Q 2931 909 2931 1356 
Q 2931 1769 2642 2001 
Q 2353 2234 1838 2234 
L 1294 2234 
L 1294 2753 
L 1863 2753 
Q 2328 2753 2575 2939 
Q 2822 3125 2822 3475 
Q 2822 3834 2567 4026 
Q 2313 4219 1838 4219 
Q 1578 4219 1281 4162 
Q 984 4106 628 3988 
L 628 4550 
Q 988 4650 1302 4700 
Q 1616 4750 1894 4750 
Q 2613 4750 3031 4423 
Q 3450 4097 3450 3541 
Q 3450 3153 3228 2886 
Q 3006 2619 2597 2516 
z
" transform="scale(0.015625)"/>
       </defs>
       <use xlink:href="#DejaVuSans-33"/>
      </g>
     </g>
    </g>
    <g id="ytick_5">
     <g id="line2d_10">
      <g>
       <use xlink:href="#m62631f70ea" x="41.711875" y="136.746946" style="stroke: #000000; stroke-width: 0.8"/>
      </g>
     </g>
     <g id="text_10">
      <!-- 4 -->
      <g transform="translate(28.349375 140.546164) scale(0.1 -0.1)">
       <defs>
        <path id="DejaVuSans-34" d="M 2419 4116 
L 825 1625 
L 2419 1625 
L 2419 4116 
z
M 2253 4666 
L 3047 4666 
L 3047 1625 
L 3713 1625 
L 3713 1100 
L 3047 1100 
L 3047 0 
L 2419 0 
L 2419 1100 
L 313 1100 
L 313 1709 
L 2253 4666 
z
" transform="scale(0.015625)"/>
       </defs>
       <use xlink:href="#DejaVuSans-34"/>
      </g>
     </g>
    </g>
    <g id="ytick_6">
     <g id="line2d_11">
      <g>
       <use xlink:href="#m62631f70ea" x="41.711875" y="105.803213" style="stroke: #000000; stroke-width: 0.8"/>
      </g>
     </g>
     <g id="text_11">
      <!-- 5 -->
      <g transform="translate(28.349375 109.602432) scale(0.1 -0.1)">
       <use xlink:href="#DejaVuSans-35"/>
      </g>
     </g>
    </g>
    <g id="ytick_7">
     <g id="line2d_12">
      <g>
       <use xlink:href="#m62631f70ea" x="41.711875" y="74.859481" style="stroke: #000000; stroke-width: 0.8"/>
      </g>
     </g>
     <g id="text_12">
      <!-- 6 -->
      <g transform="translate(28.349375 78.6587) scale(0.1 -0.1)">
       <defs>
        <path id="DejaVuSans-36" d="M 2113 2584 
Q 1688 2584 1439 2293 
Q 1191 2003 1191 1497 
Q 1191 994 1439 701 
Q 1688 409 2113 409 
Q 2538 409 2786 701 
Q 3034 994 3034 1497 
Q 3034 2003 2786 2293 
Q 2538 2584 2113 2584 
z
M 3366 4563 
L 3366 3988 
Q 3128 4100 2886 4159 
Q 2644 4219 2406 4219 
Q 1781 4219 1451 3797 
Q 1122 3375 1075 2522 
Q 1259 2794 1537 2939 
Q 1816 3084 2150 3084 
Q 2853 3084 3261 2657 
Q 3669 2231 3669 1497 
Q 3669 778 3244 343 
Q 2819 -91 2113 -91 
Q 1303 -91 875 529 
Q 447 1150 447 2328 
Q 447 3434 972 4092 
Q 1497 4750 2381 4750 
Q 2619 4750 2861 4703 
Q 3103 4656 3366 4563 
z
" transform="scale(0.015625)"/>
       </defs>
       <use xlink:href="#DejaVuSans-36"/>
      </g>
     </g>
    </g>
    <g id="ytick_8">
     <g id="line2d_13">
      <g>
       <use xlink:href="#m62631f70ea" x="41.711875" y="43.915749" style="stroke: #000000; stroke-width: 0.8"/>
      </g>
     </g>
     <g id="text_13">
      <!-- 7 -->
      <g transform="translate(28.349375 47.714967) scale(0.1 -0.1)">
       <defs>
        <path id="DejaVuSans-37" d="M 525 4666 
L 3525 4666 
L 3525 4397 
L 1831 0 
L 1172 0 
L 2766 4134 
L 525 4134 
L 525 4666 
z
" transform="scale(0.015625)"/>
       </defs>
       <use xlink:href="#DejaVuSans-37"/>
      </g>
     </g>
    </g>
    <g id="text_14">
     <!-- Fraction of cells -->
     <g transform="translate(21.437812 198.051875) rotate(-90) scale(0.14 -0.14)">
      <defs>
       <path id="DejaVuSans-46" d="M 628 4666 
L 3309 4666 
L 3309 4134 
L 1259 4134 
L 1259 2759 
L 3109 2759 
L 3109 2228 
L 1259 2228 
L 1259 0 
L 628 0 
L 628 4666 
z
" transform="scale(0.015625)"/>
       <path id="DejaVuSans-72" d="M 2631 2963 
Q 2534 3019 2420 3045 
Q 2306 3072 2169 3072 
Q 1681 3072 1420 2755 
Q 1159 2438 1159 1844 
L 1159 0 
L 581 0 
L 581 3500 
L 1159 3500 
L 1159 2956 
Q 1341 3275 1631 3429 
Q 1922 3584 2338 3584 
Q 2397 3584 2469 3576 
Q 2541 3569 2628 3553 
L 2631 2963 
z
" transform="scale(0.015625)"/>
       <path id="DejaVuSans-61" d="M 2194 1759 
Q 1497 1759 1228 1600 
Q 959 1441 959 1056 
Q 959 750 1161 570 
Q 1363 391 1709 391 
Q 2188 391 2477 730 
Q 2766 1069 2766 1631 
L 2766 1759 
L 2194 1759 
z
M 3341 1997 
L 3341 0 
L 2766 0 
L 2766 531 
Q 2569 213 2275 61 
Q 1981 -91 1556 -91 
Q 1019 -91 701 211 
Q 384 513 384 1019 
Q 384 1609 779 1909 
Q 1175 2209 1959 2209 
L 2766 2209 
L 2766 2266 
Q 2766 2663 2505 2880 
Q 2244 3097 1772 3097 
Q 1472 3097 1187 3025 
Q 903 2953 641 2809 
L 641 3341 
Q 956 3463 1253 3523 
Q 1550 3584 1831 3584 
Q 2591 3584 2966 3190 
Q 3341 2797 3341 1997 
z
" transform="scale(0.015625)"/>
       <path id="DejaVuSans-63" d="M 3122 3366 
L 3122 2828 
Q 2878 2963 2633 3030 
Q 2388 3097 2138 3097 
Q 1578 3097 1268 2742 
Q 959 2388 959 1747 
Q 959 1106 1268 751 
Q 1578 397 2138 397 
Q 2388 397 2633 464 
Q 2878 531 3122 666 
L 3122 134 
Q 2881 22 2623 -34 
Q 2366 -91 2075 -91 
Q 1284 -91 818 406 
Q 353 903 353 1747 
Q 353 2603 823 3093 
Q 1294 3584 2113 3584 
Q 2378 3584 2631 3529 
Q 2884 3475 3122 3366 
z
" transform="scale(0.015625)"/>
       <path id="DejaVuSans-74" d="M 1172 4494 
L 1172 3500 
L 2356 3500 
L 2356 3053 
L 1172 3053 
L 1172 1153 
Q 1172 725 1289 603 
Q 1406 481 1766 481 
L 2356 481 
L 2356 0 
L 1766 0 
Q 1100 0 847 248 
Q 594 497 594 1153 
L 594 3053 
L 172 3053 
L 172 3500 
L 594 3500 
L 594 4494 
L 1172 4494 
z
" transform="scale(0.015625)"/>
       <path id="DejaVuSans-69" d="M 603 3500 
L 1178 3500 
L 1178 0 
L 603 0 
L 603 3500 
z
M 603 4863 
L 1178 4863 
L 1178 4134 
L 603 4134 
L 603 4863 
z
" transform="scale(0.015625)"/>
       <path id="DejaVuSans-6f" d="M 1959 3097 
Q 1497 3097 1228 2736 
Q 959 2375 959 1747 
Q 959 1119 1226 758 
Q 1494 397 1959 397 
Q 2419 397 2687 759 
Q 2956 1122 2956 1747 
Q 2956 2369 2687 2733 
Q 2419 3097 1959 3097 
z
M 1959 3584 
Q 2709 3584 3137 3096 
Q 3566 2609 3566 1747 
Q 3566 888 3137 398 
Q 2709 -91 1959 -91 
Q 1206 -91 779 398 
Q 353 888 353 1747 
Q 353 2609 779 3096 
Q 1206 3584 1959 3584 
z
" transform="scale(0.015625)"/>
       <path id="DejaVuSans-6e" d="M 3513 2113 
L 3513 0 
L 2938 0 
L 2938 2094 
Q 2938 2591 2744 2837 
Q 2550 3084 2163 3084 
Q 1697 3084 1428 2787 
Q 1159 2491 1159 1978 
L 1159 0 
L 581 0 
L 581 3500 
L 1159 3500 
L 1159 2956 
Q 1366 3272 1645 3428 
Q 1925 3584 2291 3584 
Q 2894 3584 3203 3211 
Q 3513 2838 3513 2113 
z
" transform="scale(0.015625)"/>
       <path id="DejaVuSans-20" transform="scale(0.015625)"/>
       <path id="DejaVuSans-66" d="M 2375 4863 
L 2375 4384 
L 1825 4384 
Q 1516 4384 1395 4259 
Q 1275 4134 1275 3809 
L 1275 3500 
L 2222 3500 
L 2222 3053 
L 1275 3053 
L 1275 0 
L 697 0 
L 697 3053 
L 147 3053 
L 147 3500 
L 697 3500 
L 697 3744 
Q 697 4328 969 4595 
Q 1241 4863 1831 4863 
L 2375 4863 
z
" transform="scale(0.015625)"/>
       <path id="DejaVuSans-65" d="M 3597 1894 
L 3597 1613 
L 953 1613 
Q 991 1019 1311 708 
Q 1631 397 2203 397 
Q 2534 397 2845 478 
Q 3156 559 3463 722 
L 3463 178 
Q 3153 47 2828 -22 
Q 2503 -91 2169 -91 
Q 1331 -91 842 396 
Q 353 884 353 1716 
Q 353 2575 817 3079 
Q 1281 3584 2069 3584 
Q 2775 3584 3186 3129 
Q 3597 2675 3597 1894 
z
M 3022 2063 
Q 3016 2534 2758 2815 
Q 2500 3097 2075 3097 
Q 1594 3097 1305 2825 
Q 1016 2553 972 2059 
L 3022 2063 
z
" transform="scale(0.015625)"/>
       <path id="DejaVuSans-6c" d="M 603 4863 
L 1178 4863 
L 1178 0 
L 603 0 
L 603 4863 
z
" transform="scale(0.015625)"/>
       <path id="DejaVuSans-73" d="M 2834 3397 
L 2834 2853 
Q 2591 2978 2328 3040 
Q 2066 3103 1784 3103 
Q 1356 3103 1142 2972 
Q 928 2841 928 2578 
Q 928 2378 1081 2264 
Q 1234 2150 1697 2047 
L 1894 2003 
Q 2506 1872 2764 1633 
Q 3022 1394 3022 966 
Q 3022 478 2636 193 
Q 2250 -91 1575 -91 
Q 1294 -91 989 -36 
Q 684 19 347 128 
L 347 722 
Q 666 556 975 473 
Q 1284 391 1588 391 
Q 1994 391 2212 530 
Q 2431 669 2431 922 
Q 2431 1156 2273 1281 
Q 2116 1406 1581 1522 
L 1381 1569 
Q 847 1681 609 1914 
Q 372 2147 372 2553 
Q 372 3047 722 3315 
Q 1072 3584 1716 3584 
Q 2034 3584 2315 3537 
Q 2597 3491 2834 3397 
z
" transform="scale(0.015625)"/>
      </defs>
      <use xlink:href="#DejaVuSans-46"/>
      <use xlink:href="#DejaVuSans-72" x="50.269531"/>
      <use xlink:href="#DejaVuSans-61" x="91.382812"/>
      <use xlink:href="#DejaVuSans-63" x="152.662109"/>
      <use xlink:href="#DejaVuSans-74" x="207.642578"/>
      <use xlink:href="#DejaVuSans-69" x="246.851562"/>
      <use xlink:href="#DejaVuSans-6f" x="274.634766"/>
      <use xlink:href="#DejaVuSans-6e" x="335.816406"/>
      <use xlink:href="#DejaVuSans-20" x="399.195312"/>
      <use xlink:href="#DejaVuSans-6f" x="430.982422"/>
      <use xlink:href="#DejaVuSans-66" x="492.164062"/>
      <use xlink:href="#DejaVuSans-20" x="527.369141"/>
      <use xlink:href="#DejaVuSans-63" x="559.15625"/>
      <use xlink:href="#DejaVuSans-65" x="614.136719"/>
      <use xlink:href="#DejaVuSans-6c" x="675.660156"/>
      <use xlink:href="#DejaVuSans-6c" x="703.443359"/>
      <use xlink:href="#DejaVuSans-73" x="731.226562"/>
     </g>
    </g>
   </g>
   <g id="line2d_14">
    <path d="M 52.444503 260.521875 
L 112.255145 260.411987 
L 113.543705 260.168267 
L 114.617505 259.73357 
L 115.583924 259.102252 
L 116.872484 257.964018 
L 118.375803 256.684981 
L 119.127463 256.326221 
L 119.771743 256.256278 
L 120.416023 256.419107 
L 121.167683 256.8667 
L 122.348862 257.905232 
L 123.959562 259.295018 
L 125.033361 259.912094 
L 126.107161 260.262594 
L 127.503101 260.454406 
L 130.08022 260.519088 
L 138.026338 260.441262 
L 139.422277 260.214362 
L 140.388697 259.84275 
L 141.247737 259.259653 
L 141.999396 258.474608 
L 142.751056 257.357821 
L 143.502716 255.830936 
L 144.254376 253.806374 
L 145.006036 251.185299 
L 145.865075 247.322255 
L 146.724115 242.385539 
L 147.690535 235.387876 
L 148.656955 226.72332 
L 149.730754 214.955835 
L 150.804554 200.6524 
L 151.985734 181.668604 
L 153.381673 155.146493 
L 156.495692 93.834714 
L 157.354732 81.404029 
L 157.999012 74.648991 
L 158.535912 70.986461 
L 158.965431 69.429537 
L 159.287571 69.071951 
L 159.502331 69.212681 
L 159.824471 69.971727 
L 160.253991 71.938887 
L 160.790891 75.734041 
L 161.542551 82.917031 
L 163.15325 101.341598 
L 165.40823 125.980494 
L 167.018929 144.546591 
L 170.991988 192.959029 
L 171.958408 200.709332 
L 173.139587 208.158128 
L 175.394567 221.972915 
L 178.079066 239.236273 
L 179.260246 245.174888 
L 180.334045 249.482156 
L 181.407845 252.912262 
L 182.481645 255.589101 
L 183.448064 257.406614 
L 184.307104 258.585346 
L 185.166144 259.401436 
L 186.025184 259.922737 
L 186.991603 260.254148 
L 188.280163 260.445267 
L 190.642522 260.517449 
L 211.044716 260.521875 
L 267.09706 260.521875 
L 267.09706 260.521875 
" clip-path="url(#p9cf12fbeb2)" style="fill: none; stroke: #1f77b4; stroke-width: 1.5; stroke-linecap: square"/>
   </g>
   <g id="line2d_15">
    <path d="M 52.444503 260.521875 
L 142.643676 260.412269 
L 143.717476 260.166504 
L 144.469136 259.776343 
L 145.113416 259.186485 
L 145.757695 258.238844 
L 146.401975 256.790177 
L 147.046255 254.679382 
L 147.690535 251.742357 
L 148.442195 247.076334 
L 149.193854 240.91782 
L 150.052894 231.9785 
L 151.126694 218.158287 
L 152.630013 195.316348 
L 155.636652 148.958583 
L 157.139972 129.262014 
L 158.213772 117.563112 
L 158.965431 111.285439 
L 159.609711 107.611575 
L 160.039231 106.168618 
L 160.361371 105.638782 
L 160.576131 105.547491 
L 160.790891 105.660635 
L 161.113031 106.196698 
L 161.542551 107.536685 
L 162.079451 110.050729 
L 162.93849 115.355083 
L 164.97871 128.504765 
L 165.945129 133.100222 
L 166.804169 136.175552 
L 167.985349 139.515559 
L 169.166528 142.957962 
L 170.025568 146.160082 
L 170.991988 150.757716 
L 172.173168 157.667561 
L 174.428147 172.663681 
L 177.649546 195.090003 
L 178.938106 205.939549 
L 180.334045 219.756491 
L 182.589025 242.182228 
L 183.555444 249.398709 
L 184.307104 253.522554 
L 185.058764 256.409029 
L 185.703044 258.057462 
L 186.347323 259.122058 
L 186.991603 259.76895 
L 187.743263 260.181382 
L 188.709683 260.412209 
L 190.320382 260.509411 
L 197.51484 260.521875 
L 267.09706 260.521875 
L 267.09706 260.521875 
" clip-path="url(#p9cf12fbeb2)" style="fill: none; stroke: #ff7f0e; stroke-width: 1.5; stroke-linecap: square"/>
   </g>
   <g id="line2d_16">
    <path d="M 52.444503 260.521875 
L 135.663978 260.421467 
L 136.952538 260.182215 
L 137.918958 259.770422 
L 138.670617 259.220104 
L 139.422277 258.391483 
L 140.173937 257.218185 
L 140.925597 255.64958 
L 141.784637 253.339288 
L 142.751056 250.076763 
L 143.824856 245.635733 
L 144.898656 240.228139 
L 145.865075 234.193174 
L 146.724115 227.392255 
L 147.583155 218.615254 
L 148.442195 207.245946 
L 149.301234 192.896454 
L 150.375034 171.001895 
L 153.489053 104.242319 
L 154.240713 94.161376 
L 154.777613 89.525131 
L 155.207133 87.426172 
L 155.529272 86.776634 
L 155.744032 86.767095 
L 155.958792 87.080584 
L 156.280932 88.118857 
L 156.710452 90.454963 
L 157.354732 95.604205 
L 158.321152 105.596658 
L 160.253991 125.877129 
L 161.327791 134.655079 
L 162.93849 145.546425 
L 164.22705 154.863262 
L 165.62299 166.774245 
L 167.341069 181.336277 
L 168.200109 186.85075 
L 168.844389 189.765365 
L 169.381288 191.370271 
L 169.918188 192.315295 
L 170.455088 192.766001 
L 171.206748 192.998066 
L 171.743648 193.220331 
L 172.173168 193.613071 
L 172.602687 194.301176 
L 173.139587 195.673123 
L 173.783867 198.132155 
L 174.535527 202.045271 
L 175.609327 209.041136 
L 179.689765 237.026018 
L 180.978325 243.847034 
L 182.052125 248.363997 
L 183.018544 251.550556 
L 183.984964 254.041335 
L 185.058764 256.176348 
L 186.025184 257.644471 
L 186.991603 258.741321 
L 187.958023 259.506975 
L 188.924443 259.994677 
L 189.998242 260.295503 
L 191.501562 260.466213 
L 194.508201 260.520362 
L 252.278624 260.521875 
L 267.09706 260.521875 
L 267.09706 260.521875 
" clip-path="url(#p9cf12fbeb2)" style="fill: none; stroke: #2ca02c; stroke-width: 1.5; stroke-linecap: square"/>
   </g>
   <g id="patch_63">
    <path d="M 41.711875 260.521875 
L 41.711875 25.918125 
" style="fill: none; stroke: #000000; stroke-width: 0.8; stroke-linejoin: miter; stroke-linecap: square"/>
   </g>
   <g id="patch_64">
    <path d="M 277.829687 260.521875 
L 277.829687 25.918125 
" style="fill: none; stroke: #000000; stroke-width: 0.8; stroke-linejoin: miter; stroke-linecap: square"/>
   </g>
   <g id="patch_65">
    <path d="M 41.711875 260.521875 
L 277.829687 260.521875 
" style="fill: none; stroke: #000000; stroke-width: 0.8; stroke-linejoin: miter; stroke-linecap: square"/>
   </g>
   <g id="patch_66">
    <path d="M 41.711875 25.918125 
L 277.829687 25.918125 
" style="fill: none; stroke: #000000; stroke-width: 0.8; stroke-linejoin: miter; stroke-linecap: square"/>
   </g>
   <g id="text_15">
    <!-- SRV -->
    <g transform="translate(148.018281 19.918125) scale(0.12 -0.12)">
     <defs>
      <path id="DejaVuSans-53" d="M 3425 4513 
L 3425 3897 
Q 3066 4069 2747 4153 
Q 2428 4238 2131 4238 
Q 1616 4238 1336 4038 
Q 1056 3838 1056 3469 
Q 1056 3159 1242 3001 
Q 1428 2844 1947 2747 
L 2328 2669 
Q 3034 2534 3370 2195 
Q 3706 1856 3706 1288 
Q 3706 609 3251 259 
Q 2797 -91 1919 -91 
Q 1588 -91 1214 -16 
Q 841 59 441 206 
L 441 856 
Q 825 641 1194 531 
Q 1563 422 1919 422 
Q 2459 422 2753 634 
Q 3047 847 3047 1241 
Q 3047 1584 2836 1778 
Q 2625 1972 2144 2069 
L 1759 2144 
Q 1053 2284 737 2584 
Q 422 2884 422 3419 
Q 422 4038 858 4394 
Q 1294 4750 2059 4750 
Q 2388 4750 2728 4690 
Q 3069 4631 3425 4513 
z
" transform="scale(0.015625)"/>
      <path id="DejaVuSans-52" d="M 2841 2188 
Q 3044 2119 3236 1894 
Q 3428 1669 3622 1275 
L 4263 0 
L 3584 0 
L 2988 1197 
Q 2756 1666 2539 1819 
Q 2322 1972 1947 1972 
L 1259 1972 
L 1259 0 
L 628 0 
L 628 4666 
L 2053 4666 
Q 2853 4666 3247 4331 
Q 3641 3997 3641 3322 
Q 3641 2881 3436 2590 
Q 3231 2300 2841 2188 
z
M 1259 4147 
L 1259 2491 
L 2053 2491 
Q 2509 2491 2742 2702 
Q 2975 2913 2975 3322 
Q 2975 3731 2742 3939 
Q 2509 4147 2053 4147 
L 1259 4147 
z
" transform="scale(0.015625)"/>
      <path id="DejaVuSans-56" d="M 1831 0 
L 50 4666 
L 709 4666 
L 2188 738 
L 3669 4666 
L 4325 4666 
L 2547 0 
L 1831 0 
z
" transform="scale(0.015625)"/>
     </defs>
     <use xlink:href="#DejaVuSans-53"/>
     <use xlink:href="#DejaVuSans-52" x="63.476562"/>
     <use xlink:href="#DejaVuSans-56" x="127.458984"/>
    </g>
   </g>
   <g id="legend_1">
    <g id="patch_67">
     <path d="M 149.945312 88.693125 
L 269.429688 88.693125 
Q 271.829687 88.693125 271.829687 86.293125 
L 271.829687 34.318125 
Q 271.829687 31.918125 269.429688 31.918125 
L 149.945312 31.918125 
Q 147.545312 31.918125 147.545312 34.318125 
L 147.545312 86.293125 
Q 147.545312 88.693125 149.945312 88.693125 
z
" style="fill: #ffffff; opacity: 0.8; stroke: #cccccc; stroke-linejoin: miter"/>
    </g>
    <g id="patch_68">
     <path d="M 152.345312 45.83625 
L 176.345312 45.83625 
L 176.345312 37.43625 
L 152.345312 37.43625 
z
" style="fill: #1f77b4; opacity: 0.4"/>
    </g>
    <g id="text_16">
     <!-- MCF10A -->
     <g transform="translate(185.945312 45.83625) scale(0.12 -0.12)">
      <defs>
       <path id="DejaVuSans-4d" d="M 628 4666 
L 1569 4666 
L 2759 1491 
L 3956 4666 
L 4897 4666 
L 4897 0 
L 4281 0 
L 4281 4097 
L 3078 897 
L 2444 897 
L 1241 4097 
L 1241 0 
L 628 0 
L 628 4666 
z
" transform="scale(0.015625)"/>
       <path id="DejaVuSans-43" d="M 4122 4306 
L 4122 3641 
Q 3803 3938 3442 4084 
Q 3081 4231 2675 4231 
Q 1875 4231 1450 3742 
Q 1025 3253 1025 2328 
Q 1025 1406 1450 917 
Q 1875 428 2675 428 
Q 3081 428 3442 575 
Q 3803 722 4122 1019 
L 4122 359 
Q 3791 134 3420 21 
Q 3050 -91 2638 -91 
Q 1578 -91 968 557 
Q 359 1206 359 2328 
Q 359 3453 968 4101 
Q 1578 4750 2638 4750 
Q 3056 4750 3426 4639 
Q 3797 4528 4122 4306 
z
" transform="scale(0.015625)"/>
       <path id="DejaVuSans-41" d="M 2188 4044 
L 1331 1722 
L 3047 1722 
L 2188 4044 
z
M 1831 4666 
L 2547 4666 
L 4325 0 
L 3669 0 
L 3244 1197 
L 1141 1197 
L 716 0 
L 50 0 
L 1831 4666 
z
" transform="scale(0.015625)"/>
      </defs>
      <use xlink:href="#DejaVuSans-4d"/>
      <use xlink:href="#DejaVuSans-43" x="86.279297"/>
      <use xlink:href="#DejaVuSans-46" x="156.103516"/>
      <use xlink:href="#DejaVuSans-31" x="213.623047"/>
      <use xlink:href="#DejaVuSans-30" x="277.246094"/>
      <use xlink:href="#DejaVuSans-41" x="340.869141"/>
     </g>
    </g>
    <g id="patch_69">
     <path d="M 152.345312 63.45 
L 176.345312 63.45 
L 176.345312 55.05 
L 152.345312 55.05 
z
" style="fill: #ff7f0e; opacity: 0.4"/>
    </g>
    <g id="text_17">
     <!-- MCF7 -->
     <g transform="translate(185.945312 63.45) scale(0.12 -0.12)">
      <use xlink:href="#DejaVuSans-4d"/>
      <use xlink:href="#DejaVuSans-43" x="86.279297"/>
      <use xlink:href="#DejaVuSans-46" x="156.103516"/>
      <use xlink:href="#DejaVuSans-37" x="213.623047"/>
     </g>
    </g>
    <g id="patch_70">
     <path d="M 152.345312 81.06375 
L 176.345312 81.06375 
L 176.345312 72.66375 
L 152.345312 72.66375 
z
" style="fill: #2ca02c; opacity: 0.4"/>
    </g>
    <g id="text_18">
     <!-- MDA_MB_231 -->
     <g transform="translate(185.945312 81.06375) scale(0.12 -0.12)">
      <defs>
       <path id="DejaVuSans-44" d="M 1259 4147 
L 1259 519 
L 2022 519 
Q 2988 519 3436 956 
Q 3884 1394 3884 2338 
Q 3884 3275 3436 3711 
Q 2988 4147 2022 4147 
L 1259 4147 
z
M 628 4666 
L 1925 4666 
Q 3281 4666 3915 4102 
Q 4550 3538 4550 2338 
Q 4550 1131 3912 565 
Q 3275 0 1925 0 
L 628 0 
L 628 4666 
z
" transform="scale(0.015625)"/>
       <path id="DejaVuSans-5f" d="M 3263 -1063 
L 3263 -1509 
L -63 -1509 
L -63 -1063 
L 3263 -1063 
z
" transform="scale(0.015625)"/>
       <path id="DejaVuSans-42" d="M 1259 2228 
L 1259 519 
L 2272 519 
Q 2781 519 3026 730 
Q 3272 941 3272 1375 
Q 3272 1813 3026 2020 
Q 2781 2228 2272 2228 
L 1259 2228 
z
M 1259 4147 
L 1259 2741 
L 2194 2741 
Q 2656 2741 2882 2914 
Q 3109 3088 3109 3444 
Q 3109 3797 2882 3972 
Q 2656 4147 2194 4147 
L 1259 4147 
z
M 628 4666 
L 2241 4666 
Q 2963 4666 3353 4366 
Q 3744 4066 3744 3513 
Q 3744 3084 3544 2831 
Q 3344 2578 2956 2516 
Q 3422 2416 3680 2098 
Q 3938 1781 3938 1306 
Q 3938 681 3513 340 
Q 3088 0 2303 0 
L 628 0 
L 628 4666 
z
" transform="scale(0.015625)"/>
      </defs>
      <use xlink:href="#DejaVuSans-4d"/>
      <use xlink:href="#DejaVuSans-44" x="86.279297"/>
      <use xlink:href="#DejaVuSans-41" x="161.53125"/>
      <use xlink:href="#DejaVuSans-5f" x="229.939453"/>
      <use xlink:href="#DejaVuSans-4d" x="279.939453"/>
      <use xlink:href="#DejaVuSans-42" x="366.21875"/>
      <use xlink:href="#DejaVuSans-5f" x="434.822266"/>
      <use xlink:href="#DejaVuSans-32" x="484.822266"/>
      <use xlink:href="#DejaVuSans-33" x="548.445312"/>
      <use xlink:href="#DejaVuSans-31" x="612.068359"/>
     </g>
    </g>
   </g>
  </g>
  <g id="axes_2">
   <g id="patch_71">
    <path d="M 329.082187 260.521875 
L 565.2 260.521875 
L 565.2 25.918125 
L 329.082187 25.918125 
z
" style="fill: #ffffff"/>
   </g>
   <g id="patch_72">
    <path d="M 355.612594 260.521875 
L 364.199782 260.521875 
L 364.199782 248.108978 
L 355.612594 248.108978 
z
" clip-path="url(#p2914565a3e)" style="fill: #1f77b4; opacity: 0.4"/>
   </g>
   <g id="patch_73">
    <path d="M 364.199782 260.521875 
L 372.78697 260.521875 
L 372.78697 260.521875 
L 364.199782 260.521875 
z
" clip-path="url(#p2914565a3e)" style="fill: #1f77b4; opacity: 0.4"/>
   </g>
   <g id="patch_74">
    <path d="M 372.78697 260.521875 
L 381.374158 260.521875 
L 381.374158 248.108978 
L 372.78697 248.108978 
z
" clip-path="url(#p2914565a3e)" style="fill: #1f77b4; opacity: 0.4"/>
   </g>
   <g id="patch_75">
    <path d="M 381.374158 260.521875 
L 389.961346 260.521875 
L 389.961346 241.90253 
L 381.374158 241.90253 
z
" clip-path="url(#p2914565a3e)" style="fill: #1f77b4; opacity: 0.4"/>
   </g>
   <g id="patch_76">
    <path d="M 389.961346 260.521875 
L 398.548534 260.521875 
L 398.548534 210.870288 
L 389.961346 210.870288 
z
" clip-path="url(#p2914565a3e)" style="fill: #1f77b4; opacity: 0.4"/>
   </g>
   <g id="patch_77">
    <path d="M 398.548534 260.521875 
L 407.135722 260.521875 
L 407.135722 198.457391 
L 398.548534 198.457391 
z
" clip-path="url(#p2914565a3e)" style="fill: #1f77b4; opacity: 0.4"/>
   </g>
   <g id="patch_78">
    <path d="M 407.135722 260.521875 
L 415.72291 260.521875 
L 415.72291 155.012252 
L 407.135722 155.012252 
z
" clip-path="url(#p2914565a3e)" style="fill: #1f77b4; opacity: 0.4"/>
   </g>
   <g id="patch_79">
    <path d="M 415.72291 260.521875 
L 424.310098 260.521875 
L 424.310098 186.044494 
L 415.72291 186.044494 
z
" clip-path="url(#p2914565a3e)" style="fill: #1f77b4; opacity: 0.4"/>
   </g>
   <g id="patch_80">
    <path d="M 424.310098 260.521875 
L 432.897286 260.521875 
L 432.897286 86.741319 
L 424.310098 86.741319 
z
" clip-path="url(#p2914565a3e)" style="fill: #1f77b4; opacity: 0.4"/>
   </g>
   <g id="patch_81">
    <path d="M 432.897286 260.521875 
L 441.484474 260.521875 
L 441.484474 86.741319 
L 432.897286 86.741319 
z
" clip-path="url(#p2914565a3e)" style="fill: #1f77b4; opacity: 0.4"/>
   </g>
   <g id="patch_82">
    <path d="M 441.484474 260.521875 
L 450.071662 260.521875 
L 450.071662 37.089732 
L 441.484474 37.089732 
z
" clip-path="url(#p2914565a3e)" style="fill: #1f77b4; opacity: 0.4"/>
   </g>
   <g id="patch_83">
    <path d="M 450.071662 260.521875 
L 458.65885 260.521875 
L 458.65885 68.121974 
L 450.071662 68.121974 
z
" clip-path="url(#p2914565a3e)" style="fill: #1f77b4; opacity: 0.4"/>
   </g>
   <g id="patch_84">
    <path d="M 458.65885 260.521875 
L 467.246038 260.521875 
L 467.246038 111.567113 
L 458.65885 111.567113 
z
" clip-path="url(#p2914565a3e)" style="fill: #1f77b4; opacity: 0.4"/>
   </g>
   <g id="patch_85">
    <path d="M 467.246038 260.521875 
L 475.833226 260.521875 
L 475.833226 192.250942 
L 467.246038 192.250942 
z
" clip-path="url(#p2914565a3e)" style="fill: #1f77b4; opacity: 0.4"/>
   </g>
   <g id="patch_86">
    <path d="M 475.833226 260.521875 
L 484.420415 260.521875 
L 484.420415 210.870288 
L 475.833226 210.870288 
z
" clip-path="url(#p2914565a3e)" style="fill: #1f77b4; opacity: 0.4"/>
   </g>
   <g id="patch_87">
    <path d="M 484.420415 260.521875 
L 493.007603 260.521875 
L 493.007603 235.696081 
L 484.420415 235.696081 
z
" clip-path="url(#p2914565a3e)" style="fill: #1f77b4; opacity: 0.4"/>
   </g>
   <g id="patch_88">
    <path d="M 493.007603 260.521875 
L 501.594791 260.521875 
L 501.594791 248.108978 
L 493.007603 248.108978 
z
" clip-path="url(#p2914565a3e)" style="fill: #1f77b4; opacity: 0.4"/>
   </g>
   <g id="patch_89">
    <path d="M 501.594791 260.521875 
L 510.181979 260.521875 
L 510.181979 260.521875 
L 501.594791 260.521875 
z
" clip-path="url(#p2914565a3e)" style="fill: #1f77b4; opacity: 0.4"/>
   </g>
   <g id="patch_90">
    <path d="M 510.181979 260.521875 
L 518.769167 260.521875 
L 518.769167 260.521875 
L 510.181979 260.521875 
z
" clip-path="url(#p2914565a3e)" style="fill: #1f77b4; opacity: 0.4"/>
   </g>
   <g id="patch_91">
    <path d="M 518.769167 260.521875 
L 527.356355 260.521875 
L 527.356355 254.315427 
L 518.769167 254.315427 
z
" clip-path="url(#p2914565a3e)" style="fill: #1f77b4; opacity: 0.4"/>
   </g>
   <g id="patch_92">
    <path d="M 355.528857 260.521875 
L 364.023423 260.521875 
L 364.023423 241.447423 
L 355.528857 241.447423 
z
" clip-path="url(#p2914565a3e)" style="fill: #ff7f0e; opacity: 0.4"/>
   </g>
   <g id="patch_93">
    <path d="M 364.023423 260.521875 
L 372.517988 260.521875 
L 372.517988 241.447423 
L 364.023423 241.447423 
z
" clip-path="url(#p2914565a3e)" style="fill: #ff7f0e; opacity: 0.4"/>
   </g>
   <g id="patch_94">
    <path d="M 372.517988 260.521875 
L 381.012553 260.521875 
L 381.012553 247.805574 
L 372.517988 247.805574 
z
" clip-path="url(#p2914565a3e)" style="fill: #ff7f0e; opacity: 0.4"/>
   </g>
   <g id="patch_95">
    <path d="M 381.012553 260.521875 
L 389.507119 260.521875 
L 389.507119 209.656671 
L 381.012553 209.656671 
z
" clip-path="url(#p2914565a3e)" style="fill: #ff7f0e; opacity: 0.4"/>
   </g>
   <g id="patch_96">
    <path d="M 389.507119 260.521875 
L 398.001684 260.521875 
L 398.001684 235.089273 
L 389.507119 235.089273 
z
" clip-path="url(#p2914565a3e)" style="fill: #ff7f0e; opacity: 0.4"/>
   </g>
   <g id="patch_97">
    <path d="M 398.001684 260.521875 
L 406.496249 260.521875 
L 406.496249 209.656671 
L 398.001684 209.656671 
z
" clip-path="url(#p2914565a3e)" style="fill: #ff7f0e; opacity: 0.4"/>
   </g>
   <g id="patch_98">
    <path d="M 406.496249 260.521875 
L 414.990814 260.521875 
L 414.990814 190.582219 
L 406.496249 190.582219 
z
" clip-path="url(#p2914565a3e)" style="fill: #ff7f0e; opacity: 0.4"/>
   </g>
   <g id="patch_99">
    <path d="M 414.990814 260.521875 
L 423.48538 260.521875 
L 423.48538 171.507768 
L 414.990814 171.507768 
z
" clip-path="url(#p2914565a3e)" style="fill: #ff7f0e; opacity: 0.4"/>
   </g>
   <g id="patch_100">
    <path d="M 423.48538 260.521875 
L 431.979945 260.521875 
L 431.979945 158.791467 
L 423.48538 158.791467 
z
" clip-path="url(#p2914565a3e)" style="fill: #ff7f0e; opacity: 0.4"/>
   </g>
   <g id="patch_101">
    <path d="M 431.979945 260.521875 
L 440.47451 260.521875 
L 440.47451 133.358865 
L 431.979945 133.358865 
z
" clip-path="url(#p2914565a3e)" style="fill: #ff7f0e; opacity: 0.4"/>
   </g>
   <g id="patch_102">
    <path d="M 440.47451 260.521875 
L 448.969075 260.521875 
L 448.969075 95.209962 
L 440.47451 95.209962 
z
" clip-path="url(#p2914565a3e)" style="fill: #ff7f0e; opacity: 0.4"/>
   </g>
   <g id="patch_103">
    <path d="M 448.969075 260.521875 
L 457.463641 260.521875 
L 457.463641 76.13551 
L 448.969075 76.13551 
z
" clip-path="url(#p2914565a3e)" style="fill: #ff7f0e; opacity: 0.4"/>
   </g>
   <g id="patch_104">
    <path d="M 457.463641 260.521875 
L 465.958206 260.521875 
L 465.958206 63.419209 
L 457.463641 63.419209 
z
" clip-path="url(#p2914565a3e)" style="fill: #ff7f0e; opacity: 0.4"/>
   </g>
   <g id="patch_105">
    <path d="M 465.958206 260.521875 
L 474.452771 260.521875 
L 474.452771 152.433316 
L 465.958206 152.433316 
z
" clip-path="url(#p2914565a3e)" style="fill: #ff7f0e; opacity: 0.4"/>
   </g>
   <g id="patch_106">
    <path d="M 474.452771 260.521875 
L 482.947337 260.521875 
L 482.947337 184.224069 
L 474.452771 184.224069 
z
" clip-path="url(#p2914565a3e)" style="fill: #ff7f0e; opacity: 0.4"/>
   </g>
   <g id="patch_107">
    <path d="M 482.947337 260.521875 
L 491.441902 260.521875 
L 491.441902 196.94037 
L 482.947337 196.94037 
z
" clip-path="url(#p2914565a3e)" style="fill: #ff7f0e; opacity: 0.4"/>
   </g>
   <g id="patch_108">
    <path d="M 491.441902 260.521875 
L 499.936467 260.521875 
L 499.936467 241.447423 
L 491.441902 241.447423 
z
" clip-path="url(#p2914565a3e)" style="fill: #ff7f0e; opacity: 0.4"/>
   </g>
   <g id="patch_109">
    <path d="M 499.936467 260.521875 
L 508.431032 260.521875 
L 508.431032 228.731122 
L 499.936467 228.731122 
z
" clip-path="url(#p2914565a3e)" style="fill: #ff7f0e; opacity: 0.4"/>
   </g>
   <g id="patch_110">
    <path d="M 508.431032 260.521875 
L 516.925598 260.521875 
L 516.925598 254.163724 
L 508.431032 254.163724 
z
" clip-path="url(#p2914565a3e)" style="fill: #ff7f0e; opacity: 0.4"/>
   </g>
   <g id="patch_111">
    <path d="M 516.925598 260.521875 
L 525.420163 260.521875 
L 525.420163 254.163724 
L 516.925598 254.163724 
z
" clip-path="url(#p2914565a3e)" style="fill: #ff7f0e; opacity: 0.4"/>
   </g>
   <g id="patch_112">
    <path d="M 357.04746 260.521875 
L 364.662986 260.521875 
L 364.662986 253.365928 
L 357.04746 253.365928 
z
" clip-path="url(#p2914565a3e)" style="fill: #2ca02c; opacity: 0.4"/>
   </g>
   <g id="patch_113">
    <path d="M 364.662986 260.521875 
L 372.278512 260.521875 
L 372.278512 253.365928 
L 364.662986 253.365928 
z
" clip-path="url(#p2914565a3e)" style="fill: #2ca02c; opacity: 0.4"/>
   </g>
   <g id="patch_114">
    <path d="M 372.278512 260.521875 
L 379.894037 260.521875 
L 379.894037 239.054034 
L 372.278512 239.054034 
z
" clip-path="url(#p2914565a3e)" style="fill: #2ca02c; opacity: 0.4"/>
   </g>
   <g id="patch_115">
    <path d="M 379.894037 260.521875 
L 387.509563 260.521875 
L 387.509563 253.365928 
L 379.894037 253.365928 
z
" clip-path="url(#p2914565a3e)" style="fill: #2ca02c; opacity: 0.4"/>
   </g>
   <g id="patch_116">
    <path d="M 387.509563 260.521875 
L 395.125088 260.521875 
L 395.125088 231.898086 
L 387.509563 231.898086 
z
" clip-path="url(#p2914565a3e)" style="fill: #2ca02c; opacity: 0.4"/>
   </g>
   <g id="patch_117">
    <path d="M 395.125088 260.521875 
L 402.740614 260.521875 
L 402.740614 217.586192 
L 395.125088 217.586192 
z
" clip-path="url(#p2914565a3e)" style="fill: #2ca02c; opacity: 0.4"/>
   </g>
   <g id="patch_118">
    <path d="M 402.740614 260.521875 
L 410.35614 260.521875 
L 410.35614 217.586192 
L 402.740614 217.586192 
z
" clip-path="url(#p2914565a3e)" style="fill: #2ca02c; opacity: 0.4"/>
   </g>
   <g id="patch_119">
    <path d="M 410.35614 260.521875 
L 417.971665 260.521875 
L 417.971665 160.338615 
L 410.35614 160.338615 
z
" clip-path="url(#p2914565a3e)" style="fill: #2ca02c; opacity: 0.4"/>
   </g>
   <g id="patch_120">
    <path d="M 417.971665 260.521875 
L 425.587191 260.521875 
L 425.587191 138.870774 
L 417.971665 138.870774 
z
" clip-path="url(#p2914565a3e)" style="fill: #2ca02c; opacity: 0.4"/>
   </g>
   <g id="patch_121">
    <path d="M 425.587191 260.521875 
L 433.202716 260.521875 
L 433.202716 167.494562 
L 425.587191 167.494562 
z
" clip-path="url(#p2914565a3e)" style="fill: #2ca02c; opacity: 0.4"/>
   </g>
   <g id="patch_122">
    <path d="M 433.202716 260.521875 
L 440.818242 260.521875 
L 440.818242 124.558879 
L 433.202716 124.558879 
z
" clip-path="url(#p2914565a3e)" style="fill: #2ca02c; opacity: 0.4"/>
   </g>
   <g id="patch_123">
    <path d="M 440.818242 260.521875 
L 448.433768 260.521875 
L 448.433768 81.623197 
L 440.818242 81.623197 
z
" clip-path="url(#p2914565a3e)" style="fill: #2ca02c; opacity: 0.4"/>
   </g>
   <g id="patch_124">
    <path d="M 448.433768 260.521875 
L 456.049293 260.521875 
L 456.049293 81.623197 
L 448.433768 81.623197 
z
" clip-path="url(#p2914565a3e)" style="fill: #2ca02c; opacity: 0.4"/>
   </g>
   <g id="patch_125">
    <path d="M 456.049293 260.521875 
L 463.664819 260.521875 
L 463.664819 74.467249 
L 456.049293 74.467249 
z
" clip-path="url(#p2914565a3e)" style="fill: #2ca02c; opacity: 0.4"/>
   </g>
   <g id="patch_126">
    <path d="M 463.664819 260.521875 
L 471.280344 260.521875 
L 471.280344 160.338615 
L 463.664819 160.338615 
z
" clip-path="url(#p2914565a3e)" style="fill: #2ca02c; opacity: 0.4"/>
   </g>
   <g id="patch_127">
    <path d="M 471.280344 260.521875 
L 478.89587 260.521875 
L 478.89587 103.091038 
L 471.280344 103.091038 
z
" clip-path="url(#p2914565a3e)" style="fill: #2ca02c; opacity: 0.4"/>
   </g>
   <g id="patch_128">
    <path d="M 478.89587 260.521875 
L 486.511396 260.521875 
L 486.511396 174.650509 
L 478.89587 174.650509 
z
" clip-path="url(#p2914565a3e)" style="fill: #2ca02c; opacity: 0.4"/>
   </g>
   <g id="patch_129">
    <path d="M 486.511396 260.521875 
L 494.126921 260.521875 
L 494.126921 231.898086 
L 486.511396 231.898086 
z
" clip-path="url(#p2914565a3e)" style="fill: #2ca02c; opacity: 0.4"/>
   </g>
   <g id="patch_130">
    <path d="M 494.126921 260.521875 
L 501.742447 260.521875 
L 501.742447 224.742139 
L 494.126921 224.742139 
z
" clip-path="url(#p2914565a3e)" style="fill: #2ca02c; opacity: 0.4"/>
   </g>
   <g id="patch_131">
    <path d="M 501.742447 260.521875 
L 509.357972 260.521875 
L 509.357972 231.898086 
L 501.742447 231.898086 
z
" clip-path="url(#p2914565a3e)" style="fill: #2ca02c; opacity: 0.4"/>
   </g>
   <g id="matplotlib.axis_3">
    <g id="xtick_6">
     <g id="line2d_17">
      <g>
       <use xlink:href="#m3b979ddb81" x="370.479466" y="260.521875" style="stroke: #000000; stroke-width: 0.8"/>
      </g>
     </g>
     <g id="text_19">
      <!-- 4 -->
      <g transform="translate(367.298216 275.120313) scale(0.1 -0.1)">
       <use xlink:href="#DejaVuSans-34"/>
      </g>
     </g>
    </g>
    <g id="xtick_7">
     <g id="line2d_18">
      <g>
       <use xlink:href="#m3b979ddb81" x="431.808768" y="260.521875" style="stroke: #000000; stroke-width: 0.8"/>
      </g>
     </g>
     <g id="text_20">
      <!-- 6 -->
      <g transform="translate(428.627518 275.120313) scale(0.1 -0.1)">
       <use xlink:href="#DejaVuSans-36"/>
      </g>
     </g>
    </g>
    <g id="xtick_8">
     <g id="line2d_19">
      <g>
       <use xlink:href="#m3b979ddb81" x="493.13807" y="260.521875" style="stroke: #000000; stroke-width: 0.8"/>
      </g>
     </g>
     <g id="text_21">
      <!-- 8 -->
      <g transform="translate(489.95682 275.120313) scale(0.1 -0.1)">
       <defs>
        <path id="DejaVuSans-38" d="M 2034 2216 
Q 1584 2216 1326 1975 
Q 1069 1734 1069 1313 
Q 1069 891 1326 650 
Q 1584 409 2034 409 
Q 2484 409 2743 651 
Q 3003 894 3003 1313 
Q 3003 1734 2745 1975 
Q 2488 2216 2034 2216 
z
M 1403 2484 
Q 997 2584 770 2862 
Q 544 3141 544 3541 
Q 544 4100 942 4425 
Q 1341 4750 2034 4750 
Q 2731 4750 3128 4425 
Q 3525 4100 3525 3541 
Q 3525 3141 3298 2862 
Q 3072 2584 2669 2484 
Q 3125 2378 3379 2068 
Q 3634 1759 3634 1313 
Q 3634 634 3220 271 
Q 2806 -91 2034 -91 
Q 1263 -91 848 271 
Q 434 634 434 1313 
Q 434 1759 690 2068 
Q 947 2378 1403 2484 
z
M 1172 3481 
Q 1172 3119 1398 2916 
Q 1625 2713 2034 2713 
Q 2441 2713 2670 2916 
Q 2900 3119 2900 3481 
Q 2900 3844 2670 4047 
Q 2441 4250 2034 4250 
Q 1625 4250 1398 4047 
Q 1172 3844 1172 3481 
z
" transform="scale(0.015625)"/>
       </defs>
       <use xlink:href="#DejaVuSans-38"/>
      </g>
     </g>
    </g>
    <g id="xtick_9">
     <g id="line2d_20">
      <g>
       <use xlink:href="#m3b979ddb81" x="554.467372" y="260.521875" style="stroke: #000000; stroke-width: 0.8"/>
      </g>
     </g>
     <g id="text_22">
      <!-- 10 -->
      <g transform="translate(548.104872 275.120313) scale(0.1 -0.1)">
       <use xlink:href="#DejaVuSans-31"/>
       <use xlink:href="#DejaVuSans-30" x="63.623047"/>
      </g>
     </g>
    </g>
   </g>
   <g id="matplotlib.axis_4">
    <g id="ytick_9">
     <g id="line2d_21">
      <g>
       <use xlink:href="#m62631f70ea" x="329.082187" y="260.521875" style="stroke: #000000; stroke-width: 0.8"/>
      </g>
     </g>
     <g id="text_23">
      <!-- 0.0 -->
      <g transform="translate(306.179062 264.321094) scale(0.1 -0.1)">
       <use xlink:href="#DejaVuSans-30"/>
       <use xlink:href="#DejaVuSans-2e" x="63.623047"/>
       <use xlink:href="#DejaVuSans-30" x="95.410156"/>
      </g>
     </g>
    </g>
    <g id="ytick_10">
     <g id="line2d_22">
      <g>
       <use xlink:href="#m62631f70ea" x="329.082187" y="221.0687" style="stroke: #000000; stroke-width: 0.8"/>
      </g>
     </g>
     <g id="text_24">
      <!-- 0.1 -->
      <g transform="translate(306.179062 224.867919) scale(0.1 -0.1)">
       <use xlink:href="#DejaVuSans-30"/>
       <use xlink:href="#DejaVuSans-2e" x="63.623047"/>
       <use xlink:href="#DejaVuSans-31" x="95.410156"/>
      </g>
     </g>
    </g>
    <g id="ytick_11">
     <g id="line2d_23">
      <g>
       <use xlink:href="#m62631f70ea" x="329.082187" y="181.615526" style="stroke: #000000; stroke-width: 0.8"/>
      </g>
     </g>
     <g id="text_25">
      <!-- 0.2 -->
      <g transform="translate(306.179062 185.414745) scale(0.1 -0.1)">
       <use xlink:href="#DejaVuSans-30"/>
       <use xlink:href="#DejaVuSans-2e" x="63.623047"/>
       <use xlink:href="#DejaVuSans-32" x="95.410156"/>
      </g>
     </g>
    </g>
    <g id="ytick_12">
     <g id="line2d_24">
      <g>
       <use xlink:href="#m62631f70ea" x="329.082187" y="142.162351" style="stroke: #000000; stroke-width: 0.8"/>
      </g>
     </g>
     <g id="text_26">
      <!-- 0.3 -->
      <g transform="translate(306.179062 145.96157) scale(0.1 -0.1)">
       <use xlink:href="#DejaVuSans-30"/>
       <use xlink:href="#DejaVuSans-2e" x="63.623047"/>
       <use xlink:href="#DejaVuSans-33" x="95.410156"/>
      </g>
     </g>
    </g>
    <g id="ytick_13">
     <g id="line2d_25">
      <g>
       <use xlink:href="#m62631f70ea" x="329.082187" y="102.709177" style="stroke: #000000; stroke-width: 0.8"/>
      </g>
     </g>
     <g id="text_27">
      <!-- 0.4 -->
      <g transform="translate(306.179062 106.508395) scale(0.1 -0.1)">
       <use xlink:href="#DejaVuSans-30"/>
       <use xlink:href="#DejaVuSans-2e" x="63.623047"/>
       <use xlink:href="#DejaVuSans-34" x="95.410156"/>
      </g>
     </g>
    </g>
    <g id="ytick_14">
     <g id="line2d_26">
      <g>
       <use xlink:href="#m62631f70ea" x="329.082187" y="63.256002" style="stroke: #000000; stroke-width: 0.8"/>
      </g>
     </g>
     <g id="text_28">
      <!-- 0.5 -->
      <g transform="translate(306.179062 67.055221) scale(0.1 -0.1)">
       <use xlink:href="#DejaVuSans-30"/>
       <use xlink:href="#DejaVuSans-2e" x="63.623047"/>
       <use xlink:href="#DejaVuSans-35" x="95.410156"/>
      </g>
     </g>
    </g>
    <g id="text_29">
     <!-- Fraction of cells -->
     <g transform="translate(299.2675 198.051875) rotate(-90) scale(0.14 -0.14)">
      <use xlink:href="#DejaVuSans-46"/>
      <use xlink:href="#DejaVuSans-72" x="50.269531"/>
      <use xlink:href="#DejaVuSans-61" x="91.382812"/>
      <use xlink:href="#DejaVuSans-63" x="152.662109"/>
      <use xlink:href="#DejaVuSans-74" x="207.642578"/>
      <use xlink:href="#DejaVuSans-69" x="246.851562"/>
      <use xlink:href="#DejaVuSans-6f" x="274.634766"/>
      <use xlink:href="#DejaVuSans-6e" x="335.816406"/>
      <use xlink:href="#DejaVuSans-20" x="399.195312"/>
      <use xlink:href="#DejaVuSans-6f" x="430.982422"/>
      <use xlink:href="#DejaVuSans-66" x="492.164062"/>
      <use xlink:href="#DejaVuSans-20" x="527.369141"/>
      <use xlink:href="#DejaVuSans-63" x="559.15625"/>
      <use xlink:href="#DejaVuSans-65" x="614.136719"/>
      <use xlink:href="#DejaVuSans-6c" x="675.660156"/>
      <use xlink:href="#DejaVuSans-6c" x="703.443359"/>
      <use xlink:href="#DejaVuSans-73" x="731.226562"/>
     </g>
    </g>
   </g>
   <g id="line2d_27">
    <path d="M 339.814815 259.878954 
L 342.821454 259.328679 
L 345.828094 258.545121 
L 350.767572 256.968315 
L 353.988971 256.067803 
L 356.45871 255.613568 
L 358.92845 255.39692 
L 366.445048 254.963354 
L 368.055747 254.523156 
L 369.559067 253.89484 
L 371.062386 253.034911 
L 372.673086 251.851551 
L 374.391165 250.305766 
L 376.324005 248.258962 
L 378.578984 245.534852 
L 381.156103 242.067336 
L 383.840602 238.081847 
L 386.310342 234.020423 
L 388.672701 229.698724 
L 391.03506 224.898591 
L 393.61218 219.128596 
L 396.618819 211.80993 
L 400.484497 201.762098 
L 414.443893 164.861393 
L 417.772672 156.122105 
L 419.920272 149.829622 
L 421.745731 143.80723 
L 423.571191 137.030911 
L 425.50403 128.997248 
L 427.759009 118.636248 
L 431.517308 100.090976 
L 434.416567 86.273557 
L 436.242027 78.563321 
L 437.745347 73.095513 
L 439.033906 69.174469 
L 440.215086 66.266957 
L 441.288885 64.223001 
L 442.255305 62.87948 
L 443.114345 62.077175 
L 443.866005 61.671412 
L 444.617664 61.53377 
L 445.369324 61.654259 
L 446.120984 62.021634 
L 446.980024 62.728663 
L 447.839064 63.725413 
L 448.805483 65.173407 
L 449.986663 67.387113 
L 451.275223 70.334364 
L 452.671162 74.141084 
L 454.067102 78.592404 
L 455.570421 84.128835 
L 457.181121 90.938921 
L 458.8992 99.19758 
L 460.83204 109.614483 
L 463.301779 124.249918 
L 470.066717 165.096382 
L 472.214316 176.290616 
L 474.147156 185.232789 
L 476.079995 193.136211 
L 478.012835 200.137874 
L 480.160434 207.085445 
L 482.630173 214.30376 
L 485.529432 222.073647 
L 488.536072 229.511325 
L 491.220571 235.581509 
L 493.58293 240.381648 
L 495.730529 244.23923 
L 497.663369 247.272911 
L 499.596208 249.890887 
L 501.421668 251.996359 
L 503.247127 253.767739 
L 505.072587 255.230064 
L 506.898046 256.407564 
L 508.723506 257.322114 
L 510.548965 257.993828 
L 512.481805 258.463205 
L 514.522024 258.719738 
L 516.777003 258.768348 
L 519.676262 258.584289 
L 526.54858 258.049941 
L 529.34046 258.124019 
L 532.347099 258.4423 
L 537.179197 259.230201 
L 542.011296 259.93262 
L 545.984355 260.276777 
L 550.816453 260.458276 
L 554.467372 260.503187 
L 554.467372 260.503187 
" clip-path="url(#p2914565a3e)" style="fill: none; stroke: #1f77b4; stroke-width: 1.5; stroke-linecap: square"/>
   </g>
   <g id="line2d_28">
    <path d="M 339.814815 258.882949 
L 342.499315 258.06133 
L 345.291194 256.968869 
L 348.297833 255.544222 
L 351.948752 253.550073 
L 356.88823 250.579944 
L 361.827709 247.370147 
L 365.371248 244.813922 
L 368.592647 242.21837 
L 372.136186 239.068996 
L 382.659423 229.501877 
L 390.39078 222.878728 
L 392.75314 220.463138 
L 395.008119 217.831002 
L 397.263098 214.855037 
L 399.840218 211.06462 
L 402.954237 206.057454 
L 407.249435 198.694763 
L 411.866774 190.365922 
L 415.195553 183.91516 
L 417.987432 178.014889 
L 420.564552 172.05082 
L 423.141671 165.533799 
L 425.93355 157.86139 
L 429.262329 148.019281 
L 435.490367 128.687826 
L 439.248666 117.464937 
L 441.825785 110.452052 
L 443.866005 105.504639 
L 445.584084 101.870137 
L 447.087404 99.165361 
L 448.483343 97.108362 
L 449.664523 95.747441 
L 450.738323 94.83803 
L 451.704742 94.303798 
L 452.563782 94.066234 
L 453.422822 94.060599 
L 454.281862 94.293767 
L 455.140901 94.771052 
L 455.999941 95.495991 
L 456.966361 96.609431 
L 458.040161 98.215069 
L 459.22134 100.421185 
L 460.5099 103.333665 
L 461.905839 107.046243 
L 463.516539 111.976548 
L 465.449378 118.658189 
L 467.919118 128.078126 
L 472.643836 147.239572 
L 476.616895 162.889582 
L 479.730914 174.25765 
L 482.737553 184.406648 
L 485.851572 194.148242 
L 489.072971 203.510708 
L 492.29437 212.191866 
L 495.30101 219.65796 
L 498.092889 226.004144 
L 500.777388 231.550781 
L 503.247127 236.164962 
L 505.609487 240.13717 
L 507.864466 243.521657 
L 510.012065 246.369014 
L 512.052285 248.729863 
L 514.092504 250.756538 
L 516.025343 252.377587 
L 518.065563 253.793981 
L 520.105782 254.940475 
L 522.360762 255.944771 
L 524.937881 256.832912 
L 528.0519 257.65687 
L 532.239719 258.520782 
L 537.393957 259.357278 
L 542.226056 259.922759 
L 547.165534 260.270619 
L 553.178813 260.45588 
L 554.467372 260.474307 
L 554.467372 260.474307 
" clip-path="url(#p2914565a3e)" style="fill: none; stroke: #ff7f0e; stroke-width: 1.5; stroke-linecap: square"/>
   </g>
   <g id="line2d_29">
    <path d="M 339.814815 260.03947 
L 343.787874 259.560119 
L 347.653553 258.865575 
L 351.626612 257.919819 
L 355.492291 256.769283 
L 358.92845 255.51378 
L 362.042469 254.13942 
L 365.156488 252.523423 
L 368.807407 250.366002 
L 373.639505 247.231471 
L 378.149464 244.061213 
L 381.370863 241.532907 
L 384.055362 239.152069 
L 386.525102 236.673035 
L 388.887461 233.990496 
L 391.14244 231.097919 
L 393.29004 227.99291 
L 395.437639 224.492842 
L 397.477858 220.75121 
L 399.518078 216.560243 
L 401.665677 211.633909 
L 403.920656 205.896281 
L 406.497776 198.710133 
L 410.148695 187.784606 
L 414.980793 173.411448 
L 417.557912 166.441885 
L 420.027652 160.40981 
L 422.712151 154.479769 
L 430.121369 138.533593 
L 432.483728 132.617002 
L 434.953467 125.809717 
L 438.604386 114.989135 
L 442.147925 104.707925 
L 444.080765 99.748103 
L 445.691464 96.213806 
L 446.980024 93.883789 
L 448.161203 92.198313 
L 449.127623 91.171159 
L 449.986663 90.540691 
L 450.845703 90.186539 
L 451.597362 90.108396 
L 452.349022 90.248576 
L 453.100682 90.606591 
L 453.959722 91.278654 
L 454.926141 92.359814 
L 455.999941 93.943565 
L 457.181121 96.112075 
L 458.57706 99.177094 
L 460.29514 103.546534 
L 462.550119 109.947882 
L 472.536456 139.747954 
L 475.543095 149.18368 
L 478.012835 157.676434 
L 480.589954 167.367773 
L 484.026113 181.258693 
L 488.750832 200.288174 
L 491.113191 208.897893 
L 493.15341 215.556865 
L 495.08625 221.127402 
L 496.911709 225.727636 
L 498.737169 229.726522 
L 500.562628 233.192655 
L 502.495467 236.377221 
L 504.535687 239.315078 
L 506.898046 242.329003 
L 509.904685 245.784563 
L 513.448224 249.512098 
L 516.562243 252.481145 
L 519.139363 254.636168 
L 521.394342 256.234859 
L 523.541941 257.479926 
L 525.582161 258.410596 
L 527.72976 259.144808 
L 530.092119 259.705118 
L 532.776619 260.100417 
L 536.105398 260.354378 
L 541.152256 260.488678 
L 553.823092 260.5217 
L 554.467372 260.521747 
L 554.467372 260.521747 
" clip-path="url(#p2914565a3e)" style="fill: none; stroke: #2ca02c; stroke-width: 1.5; stroke-linecap: square"/>
   </g>
   <g id="patch_132">
    <path d="M 329.082187 260.521875 
L 329.082187 25.918125 
" style="fill: none; stroke: #000000; stroke-width: 0.8; stroke-linejoin: miter; stroke-linecap: square"/>
   </g>
   <g id="patch_133">
    <path d="M 565.2 260.521875 
L 565.2 25.918125 
" style="fill: none; stroke: #000000; stroke-width: 0.8; stroke-linejoin: miter; stroke-linecap: square"/>
   </g>
   <g id="patch_134">
    <path d="M 329.082187 260.521875 
L 565.2 260.521875 
" style="fill: none; stroke: #000000; stroke-width: 0.8; stroke-linejoin: miter; stroke-linecap: square"/>
   </g>
   <g id="patch_135">
    <path d="M 329.082187 25.918125 
L 565.2 25.918125 
" style="fill: none; stroke: #000000; stroke-width: 0.8; stroke-linejoin: miter; stroke-linecap: square"/>
   </g>
   <g id="text_30">
    <!-- Linear -->
    <g transform="translate(428.493281 19.918125) scale(0.12 -0.12)">
     <defs>
      <path id="DejaVuSans-4c" d="M 628 4666 
L 1259 4666 
L 1259 531 
L 3531 531 
L 3531 0 
L 628 0 
L 628 4666 
z
" transform="scale(0.015625)"/>
     </defs>
     <use xlink:href="#DejaVuSans-4c"/>
     <use xlink:href="#DejaVuSans-69" x="55.712891"/>
     <use xlink:href="#DejaVuSans-6e" x="83.496094"/>
     <use xlink:href="#DejaVuSans-65" x="146.875"/>
     <use xlink:href="#DejaVuSans-61" x="208.398438"/>
     <use xlink:href="#DejaVuSans-72" x="269.677734"/>
    </g>
   </g>
   <g id="legend_2">
    <g id="patch_136">
     <path d="M 437.315625 88.693125 
L 556.8 88.693125 
Q 559.2 88.693125 559.2 86.293125 
L 559.2 34.318125 
Q 559.2 31.918125 556.8 31.918125 
L 437.315625 31.918125 
Q 434.915625 31.918125 434.915625 34.318125 
L 434.915625 86.293125 
Q 434.915625 88.693125 437.315625 88.693125 
z
" style="fill: #ffffff; opacity: 0.8; stroke: #cccccc; stroke-linejoin: miter"/>
    </g>
    <g id="patch_137">
     <path d="M 439.715625 45.83625 
L 463.715625 45.83625 
L 463.715625 37.43625 
L 439.715625 37.43625 
z
" style="fill: #1f77b4; opacity: 0.4"/>
    </g>
    <g id="text_31">
     <!-- MCF10A -->
     <g transform="translate(473.315625 45.83625) scale(0.12 -0.12)">
      <use xlink:href="#DejaVuSans-4d"/>
      <use xlink:href="#DejaVuSans-43" x="86.279297"/>
      <use xlink:href="#DejaVuSans-46" x="156.103516"/>
      <use xlink:href="#DejaVuSans-31" x="213.623047"/>
      <use xlink:href="#DejaVuSans-30" x="277.246094"/>
      <use xlink:href="#DejaVuSans-41" x="340.869141"/>
     </g>
    </g>
    <g id="patch_138">
     <path d="M 439.715625 63.45 
L 463.715625 63.45 
L 463.715625 55.05 
L 439.715625 55.05 
z
" style="fill: #ff7f0e; opacity: 0.4"/>
    </g>
    <g id="text_32">
     <!-- MCF7 -->
     <g transform="translate(473.315625 63.45) scale(0.12 -0.12)">
      <use xlink:href="#DejaVuSans-4d"/>
      <use xlink:href="#DejaVuSans-43" x="86.279297"/>
      <use xlink:href="#DejaVuSans-46" x="156.103516"/>
      <use xlink:href="#DejaVuSans-37" x="213.623047"/>
     </g>
    </g>
    <g id="patch_139">
     <path d="M 439.715625 81.06375 
L 463.715625 81.06375 
L 463.715625 72.66375 
L 439.715625 72.66375 
z
" style="fill: #2ca02c; opacity: 0.4"/>
    </g>
    <g id="text_33">
     <!-- MDA_MB_231 -->
     <g transform="translate(473.315625 81.06375) scale(0.12 -0.12)">
      <use xlink:href="#DejaVuSans-4d"/>
      <use xlink:href="#DejaVuSans-44" x="86.279297"/>
      <use xlink:href="#DejaVuSans-41" x="161.53125"/>
      <use xlink:href="#DejaVuSans-5f" x="229.939453"/>
      <use xlink:href="#DejaVuSans-4d" x="279.939453"/>
      <use xlink:href="#DejaVuSans-42" x="366.21875"/>
      <use xlink:href="#DejaVuSans-5f" x="434.822266"/>
      <use xlink:href="#DejaVuSans-32" x="484.822266"/>
      <use xlink:href="#DejaVuSans-33" x="548.445312"/>
      <use xlink:href="#DejaVuSans-31" x="612.068359"/>
     </g>
    </g>
   </g>
  </g>
 </g>
 <defs>
  <clipPath id="p9cf12fbeb2">
   <rect x="41.711875" y="25.918125" width="236.117812" height="234.60375"/>
  </clipPath>
  <clipPath id="p2914565a3e">
   <rect x="329.082187" y="25.918125" width="236.117812" height="234.60375"/>
  </clipPath>
 </defs>
</svg>
