<?xml version="1.0" encoding="utf-8" standalone="no"?>
<!DOCTYPE svg PUBLIC "-//W3C//DTD SVG 1.1//EN"
  "http://www.w3.org/Graphics/SVG/1.1/DTD/svg11.dtd">
<svg xmlns:xlink="http://www.w3.org/1999/xlink" width="576pt" height="288pt" viewBox="0 0 576 288" xmlns="http://www.w3.org/2000/svg" version="1.1">
 <metadata>
  <rdf:RDF xmlns:dc="http://purl.org/dc/elements/1.1/" xmlns:cc="http://creativecommons.org/ns#" xmlns:rdf="http://www.w3.org/1999/02/22-rdf-syntax-ns#">
   <cc:Work>
    <dc:type rdf:resource="http://purl.org/dc/dcmitype/StillImage"/>
    <dc:date>2024-04-21T14:32:07.668028</dc:date>
    <dc:format>image/svg+xml</dc:format>
    <dc:creator>
     <cc:Agent>
      <dc:title>Matplotlib v3.8.4, https://matplotlib.org/</dc:title>
     </cc:Agent>
    </dc:creator>
   </cc:Work>
  </rdf:RDF>
 </metadata>
 <defs>
  <style type="text/css">*{stroke-linejoin: round; stroke-linecap: butt}</style>
 </defs>
 <g id="figure_1">
  <g id="patch_1">
   <path d="M 0 288 
L 576 288 
L 576 0 
L 0 0 
z
" style="fill: #ffffff"/>
  </g>
  <g id="axes_1">
   <g id="patch_2">
    <path d="M 48.074375 260.521875 
L 281.010937 260.521875 
L 281.010937 25.918125 
L 48.074375 25.918125 
z
" style="fill: #ffffff"/>
   </g>
   <g id="patch_3">
    <path d="M 129.805457 260.521875 
L 131.702306 260.521875 
L 131.702306 243.334787 
L 129.805457 243.334787 
z
" clip-path="url(#pf5145ec6a6)" style="fill: #1f77b4; opacity: 0.4"/>
   </g>
   <g id="patch_4">
    <path d="M 131.702306 260.521875 
L 133.599155 260.521875 
L 133.599155 260.521875 
L 131.702306 260.521875 
z
" clip-path="url(#pf5145ec6a6)" style="fill: #1f77b4; opacity: 0.4"/>
   </g>
   <g id="patch_5">
    <path d="M 133.599155 260.521875 
L 135.496004 260.521875 
L 135.496004 243.334787 
L 133.599155 243.334787 
z
" clip-path="url(#pf5145ec6a6)" style="fill: #1f77b4; opacity: 0.4"/>
   </g>
   <g id="patch_6">
    <path d="M 135.496004 260.521875 
L 137.392853 260.521875 
L 137.392853 214.689641 
L 135.496004 214.689641 
z
" clip-path="url(#pf5145ec6a6)" style="fill: #1f77b4; opacity: 0.4"/>
   </g>
   <g id="patch_7">
    <path d="M 137.392853 260.521875 
L 139.289702 260.521875 
L 139.289702 186.044494 
L 137.392853 186.044494 
z
" clip-path="url(#pf5145ec6a6)" style="fill: #1f77b4; opacity: 0.4"/>
   </g>
   <g id="patch_8">
    <path d="M 139.289702 260.521875 
L 141.186552 260.521875 
L 141.186552 128.754201 
L 139.289702 128.754201 
z
" clip-path="url(#pf5145ec6a6)" style="fill: #1f77b4; opacity: 0.4"/>
   </g>
   <g id="patch_9">
    <path d="M 141.186552 260.521875 
L 143.083401 260.521875 
L 143.083401 37.089732 
L 141.186552 37.089732 
z
" clip-path="url(#pf5145ec6a6)" style="fill: #1f77b4; opacity: 0.4"/>
   </g>
   <g id="patch_10">
    <path d="M 143.083401 260.521875 
L 144.98025 260.521875 
L 144.98025 82.921967 
L 143.083401 82.921967 
z
" clip-path="url(#pf5145ec6a6)" style="fill: #1f77b4; opacity: 0.4"/>
   </g>
   <g id="patch_11">
    <path d="M 144.98025 260.521875 
L 146.877099 260.521875 
L 146.877099 163.128377 
L 144.98025 163.128377 
z
" clip-path="url(#pf5145ec6a6)" style="fill: #1f77b4; opacity: 0.4"/>
   </g>
   <g id="patch_12">
    <path d="M 146.877099 260.521875 
L 148.773948 260.521875 
L 148.773948 145.941289 
L 146.877099 145.941289 
z
" clip-path="url(#pf5145ec6a6)" style="fill: #1f77b4; opacity: 0.4"/>
   </g>
   <g id="patch_13">
    <path d="M 148.773948 260.521875 
L 150.670797 260.521875 
L 150.670797 157.399348 
L 148.773948 157.399348 
z
" clip-path="url(#pf5145ec6a6)" style="fill: #1f77b4; opacity: 0.4"/>
   </g>
   <g id="patch_14">
    <path d="M 150.670797 260.521875 
L 152.567646 260.521875 
L 152.567646 180.315465 
L 150.670797 180.315465 
z
" clip-path="url(#pf5145ec6a6)" style="fill: #1f77b4; opacity: 0.4"/>
   </g>
   <g id="patch_15">
    <path d="M 152.567646 260.521875 
L 154.464495 260.521875 
L 154.464495 180.315465 
L 152.567646 180.315465 
z
" clip-path="url(#pf5145ec6a6)" style="fill: #1f77b4; opacity: 0.4"/>
   </g>
   <g id="patch_16">
    <path d="M 154.464495 260.521875 
L 156.361344 260.521875 
L 156.361344 220.41867 
L 154.464495 220.41867 
z
" clip-path="url(#pf5145ec6a6)" style="fill: #1f77b4; opacity: 0.4"/>
   </g>
   <g id="patch_17">
    <path d="M 156.361344 260.521875 
L 158.258193 260.521875 
L 158.258193 214.689641 
L 156.361344 214.689641 
z
" clip-path="url(#pf5145ec6a6)" style="fill: #1f77b4; opacity: 0.4"/>
   </g>
   <g id="patch_18">
    <path d="M 158.258193 260.521875 
L 160.155042 260.521875 
L 160.155042 249.063816 
L 158.258193 249.063816 
z
" clip-path="url(#pf5145ec6a6)" style="fill: #1f77b4; opacity: 0.4"/>
   </g>
   <g id="patch_19">
    <path d="M 160.155042 260.521875 
L 162.051891 260.521875 
L 162.051891 243.334787 
L 160.155042 243.334787 
z
" clip-path="url(#pf5145ec6a6)" style="fill: #1f77b4; opacity: 0.4"/>
   </g>
   <g id="patch_20">
    <path d="M 162.051891 260.521875 
L 163.94874 260.521875 
L 163.94874 254.792846 
L 162.051891 254.792846 
z
" clip-path="url(#pf5145ec6a6)" style="fill: #1f77b4; opacity: 0.4"/>
   </g>
   <g id="patch_21">
    <path d="M 163.94874 260.521875 
L 165.845589 260.521875 
L 165.845589 249.063816 
L 163.94874 249.063816 
z
" clip-path="url(#pf5145ec6a6)" style="fill: #1f77b4; opacity: 0.4"/>
   </g>
   <g id="patch_22">
    <path d="M 165.845589 260.521875 
L 167.742438 260.521875 
L 167.742438 254.792846 
L 165.845589 254.792846 
z
" clip-path="url(#pf5145ec6a6)" style="fill: #1f77b4; opacity: 0.4"/>
   </g>
   <g id="patch_23">
    <path d="M 134.510758 260.521875 
L 136.172856 260.521875 
L 136.172856 253.896124 
L 134.510758 253.896124 
z
" clip-path="url(#pf5145ec6a6)" style="fill: #ff7f0e; opacity: 0.4"/>
   </g>
   <g id="patch_24">
    <path d="M 136.172856 260.521875 
L 137.834953 260.521875 
L 137.834953 247.270373 
L 136.172856 247.270373 
z
" clip-path="url(#pf5145ec6a6)" style="fill: #ff7f0e; opacity: 0.4"/>
   </g>
   <g id="patch_25">
    <path d="M 137.834953 260.521875 
L 139.497051 260.521875 
L 139.497051 220.767369 
L 137.834953 220.767369 
z
" clip-path="url(#pf5145ec6a6)" style="fill: #ff7f0e; opacity: 0.4"/>
   </g>
   <g id="patch_26">
    <path d="M 139.497051 260.521875 
L 141.159149 260.521875 
L 141.159149 181.012863 
L 139.497051 181.012863 
z
" clip-path="url(#pf5145ec6a6)" style="fill: #ff7f0e; opacity: 0.4"/>
   </g>
   <g id="patch_27">
    <path d="M 141.159149 260.521875 
L 142.821246 260.521875 
L 142.821246 154.509858 
L 141.159149 154.509858 
z
" clip-path="url(#pf5145ec6a6)" style="fill: #ff7f0e; opacity: 0.4"/>
   </g>
   <g id="patch_28">
    <path d="M 142.821246 260.521875 
L 144.483344 260.521875 
L 144.483344 121.381103 
L 142.821246 121.381103 
z
" clip-path="url(#pf5145ec6a6)" style="fill: #ff7f0e; opacity: 0.4"/>
   </g>
   <g id="patch_29">
    <path d="M 144.483344 260.521875 
L 146.145442 260.521875 
L 146.145442 94.878099 
L 144.483344 94.878099 
z
" clip-path="url(#pf5145ec6a6)" style="fill: #ff7f0e; opacity: 0.4"/>
   </g>
   <g id="patch_30">
    <path d="M 146.145442 260.521875 
L 147.807539 260.521875 
L 147.807539 161.135609 
L 146.145442 161.135609 
z
" clip-path="url(#pf5145ec6a6)" style="fill: #ff7f0e; opacity: 0.4"/>
   </g>
   <g id="patch_31">
    <path d="M 147.807539 260.521875 
L 149.469637 260.521875 
L 149.469637 128.006854 
L 147.807539 128.006854 
z
" clip-path="url(#pf5145ec6a6)" style="fill: #ff7f0e; opacity: 0.4"/>
   </g>
   <g id="patch_32">
    <path d="M 149.469637 260.521875 
L 151.131735 260.521875 
L 151.131735 147.884107 
L 149.469637 147.884107 
z
" clip-path="url(#pf5145ec6a6)" style="fill: #ff7f0e; opacity: 0.4"/>
   </g>
   <g id="patch_33">
    <path d="M 151.131735 260.521875 
L 152.793832 260.521875 
L 152.793832 181.012863 
L 151.131735 181.012863 
z
" clip-path="url(#pf5145ec6a6)" style="fill: #ff7f0e; opacity: 0.4"/>
   </g>
   <g id="patch_34">
    <path d="M 152.793832 260.521875 
L 154.45593 260.521875 
L 154.45593 200.890116 
L 152.793832 200.890116 
z
" clip-path="url(#pf5145ec6a6)" style="fill: #ff7f0e; opacity: 0.4"/>
   </g>
   <g id="patch_35">
    <path d="M 154.45593 260.521875 
L 156.118028 260.521875 
L 156.118028 181.012863 
L 154.45593 181.012863 
z
" clip-path="url(#pf5145ec6a6)" style="fill: #ff7f0e; opacity: 0.4"/>
   </g>
   <g id="patch_36">
    <path d="M 156.118028 260.521875 
L 157.780125 260.521875 
L 157.780125 234.018871 
L 156.118028 234.018871 
z
" clip-path="url(#pf5145ec6a6)" style="fill: #ff7f0e; opacity: 0.4"/>
   </g>
   <g id="patch_37">
    <path d="M 157.780125 260.521875 
L 159.442223 260.521875 
L 159.442223 174.387111 
L 157.780125 174.387111 
z
" clip-path="url(#pf5145ec6a6)" style="fill: #ff7f0e; opacity: 0.4"/>
   </g>
   <g id="patch_38">
    <path d="M 159.442223 260.521875 
L 161.104321 260.521875 
L 161.104321 181.012863 
L 159.442223 181.012863 
z
" clip-path="url(#pf5145ec6a6)" style="fill: #ff7f0e; opacity: 0.4"/>
   </g>
   <g id="patch_39">
    <path d="M 161.104321 260.521875 
L 162.766418 260.521875 
L 162.766418 200.890116 
L 161.104321 200.890116 
z
" clip-path="url(#pf5145ec6a6)" style="fill: #ff7f0e; opacity: 0.4"/>
   </g>
   <g id="patch_40">
    <path d="M 162.766418 260.521875 
L 164.428516 260.521875 
L 164.428516 207.515867 
L 162.766418 207.515867 
z
" clip-path="url(#pf5145ec6a6)" style="fill: #ff7f0e; opacity: 0.4"/>
   </g>
   <g id="patch_41">
    <path d="M 164.428516 260.521875 
L 166.090614 260.521875 
L 166.090614 214.141618 
L 164.428516 214.141618 
z
" clip-path="url(#pf5145ec6a6)" style="fill: #ff7f0e; opacity: 0.4"/>
   </g>
   <g id="patch_42">
    <path d="M 166.090614 260.521875 
L 167.752711 260.521875 
L 167.752711 240.644622 
L 166.090614 240.644622 
z
" clip-path="url(#pf5145ec6a6)" style="fill: #ff7f0e; opacity: 0.4"/>
   </g>
   <g id="patch_43">
    <path d="M 120.766664 260.521875 
L 123.083596 260.521875 
L 123.083596 250.930005 
L 120.766664 250.930005 
z
" clip-path="url(#pf5145ec6a6)" style="fill: #2ca02c; opacity: 0.4"/>
   </g>
   <g id="patch_44">
    <path d="M 123.083596 260.521875 
L 125.400529 260.521875 
L 125.400529 255.72594 
L 123.083596 255.72594 
z
" clip-path="url(#pf5145ec6a6)" style="fill: #2ca02c; opacity: 0.4"/>
   </g>
   <g id="patch_45">
    <path d="M 125.400529 260.521875 
L 127.717462 260.521875 
L 127.717462 250.930005 
L 125.400529 250.930005 
z
" clip-path="url(#pf5145ec6a6)" style="fill: #2ca02c; opacity: 0.4"/>
   </g>
   <g id="patch_46">
    <path d="M 127.717462 260.521875 
L 130.034394 260.521875 
L 130.034394 260.521875 
L 127.717462 260.521875 
z
" clip-path="url(#pf5145ec6a6)" style="fill: #2ca02c; opacity: 0.4"/>
   </g>
   <g id="patch_47">
    <path d="M 130.034394 260.521875 
L 132.351327 260.521875 
L 132.351327 246.13407 
L 130.034394 246.13407 
z
" clip-path="url(#pf5145ec6a6)" style="fill: #2ca02c; opacity: 0.4"/>
   </g>
   <g id="patch_48">
    <path d="M 132.351327 260.521875 
L 134.66826 260.521875 
L 134.66826 241.338136 
L 132.351327 241.338136 
z
" clip-path="url(#pf5145ec6a6)" style="fill: #2ca02c; opacity: 0.4"/>
   </g>
   <g id="patch_49">
    <path d="M 134.66826 260.521875 
L 136.985192 260.521875 
L 136.985192 169.399113 
L 134.66826 169.399113 
z
" clip-path="url(#pf5145ec6a6)" style="fill: #2ca02c; opacity: 0.4"/>
   </g>
   <g id="patch_50">
    <path d="M 136.985192 260.521875 
L 139.302125 260.521875 
L 139.302125 116.64383 
L 136.985192 116.64383 
z
" clip-path="url(#pf5145ec6a6)" style="fill: #2ca02c; opacity: 0.4"/>
   </g>
   <g id="patch_51">
    <path d="M 139.302125 260.521875 
L 141.619058 260.521875 
L 141.619058 135.827569 
L 139.302125 135.827569 
z
" clip-path="url(#pf5145ec6a6)" style="fill: #2ca02c; opacity: 0.4"/>
   </g>
   <g id="patch_52">
    <path d="M 141.619058 260.521875 
L 143.935991 260.521875 
L 143.935991 131.031634 
L 141.619058 131.031634 
z
" clip-path="url(#pf5145ec6a6)" style="fill: #2ca02c; opacity: 0.4"/>
   </g>
   <g id="patch_53">
    <path d="M 143.935991 260.521875 
L 146.252923 260.521875 
L 146.252923 169.399113 
L 143.935991 169.399113 
z
" clip-path="url(#pf5145ec6a6)" style="fill: #2ca02c; opacity: 0.4"/>
   </g>
   <g id="patch_54">
    <path d="M 146.252923 260.521875 
L 148.569856 260.521875 
L 148.569856 145.419439 
L 146.252923 145.419439 
z
" clip-path="url(#pf5145ec6a6)" style="fill: #2ca02c; opacity: 0.4"/>
   </g>
   <g id="patch_55">
    <path d="M 148.569856 260.521875 
L 150.886789 260.521875 
L 150.886789 183.786917 
L 148.569856 183.786917 
z
" clip-path="url(#pf5145ec6a6)" style="fill: #2ca02c; opacity: 0.4"/>
   </g>
   <g id="patch_56">
    <path d="M 150.886789 260.521875 
L 153.203721 260.521875 
L 153.203721 226.950331 
L 150.886789 226.950331 
z
" clip-path="url(#pf5145ec6a6)" style="fill: #2ca02c; opacity: 0.4"/>
   </g>
   <g id="patch_57">
    <path d="M 153.203721 260.521875 
L 155.520654 260.521875 
L 155.520654 226.950331 
L 153.203721 226.950331 
z
" clip-path="url(#pf5145ec6a6)" style="fill: #2ca02c; opacity: 0.4"/>
   </g>
   <g id="patch_58">
    <path d="M 155.520654 260.521875 
L 157.837587 260.521875 
L 157.837587 198.174722 
L 155.520654 198.174722 
z
" clip-path="url(#pf5145ec6a6)" style="fill: #2ca02c; opacity: 0.4"/>
   </g>
   <g id="patch_59">
    <path d="M 157.837587 260.521875 
L 160.15452 260.521875 
L 160.15452 207.766592 
L 157.837587 207.766592 
z
" clip-path="url(#pf5145ec6a6)" style="fill: #2ca02c; opacity: 0.4"/>
   </g>
   <g id="patch_60">
    <path d="M 160.15452 260.521875 
L 162.471452 260.521875 
L 162.471452 241.338136 
L 160.15452 241.338136 
z
" clip-path="url(#pf5145ec6a6)" style="fill: #2ca02c; opacity: 0.4"/>
   </g>
   <g id="patch_61">
    <path d="M 162.471452 260.521875 
L 164.788385 260.521875 
L 164.788385 236.542201 
L 162.471452 236.542201 
z
" clip-path="url(#pf5145ec6a6)" style="fill: #2ca02c; opacity: 0.4"/>
   </g>
   <g id="patch_62">
    <path d="M 164.788385 260.521875 
L 167.105318 260.521875 
L 167.105318 250.930005 
L 164.788385 250.930005 
z
" clip-path="url(#pf5145ec6a6)" style="fill: #2ca02c; opacity: 0.4"/>
   </g>
   <g id="matplotlib.axis_1">
    <g id="xtick_1">
     <g id="line2d_1">
      <defs>
       <path id="mb092235ffe" d="M 0 0 
L 0 3.5 
" style="stroke: #000000; stroke-width: 0.8"/>
      </defs>
      <g>
       <use xlink:href="#mb092235ffe" x="58.662401" y="260.521875" style="stroke: #000000; stroke-width: 0.8"/>
      </g>
     </g>
     <g id="text_1">
      <!-- 0.0 -->
      <g transform="translate(50.710838 275.120313) scale(0.1 -0.1)">
       <defs>
        <path id="DejaVuSans-30" d="M 2034 4250 
Q 1547 4250 1301 3770 
Q 1056 3291 1056 2328 
Q 1056 1369 1301 889 
Q 1547 409 2034 409 
Q 2525 409 2770 889 
Q 3016 1369 3016 2328 
Q 3016 3291 2770 3770 
Q 2525 4250 2034 4250 
z
M 2034 4750 
Q 2819 4750 3233 4129 
Q 3647 3509 3647 2328 
Q 3647 1150 3233 529 
Q 2819 -91 2034 -91 
Q 1250 -91 836 529 
Q 422 1150 422 2328 
Q 422 3509 836 4129 
Q 1250 4750 2034 4750 
z
" transform="scale(0.015625)"/>
        <path id="DejaVuSans-2e" d="M 684 794 
L 1344 794 
L 1344 0 
L 684 0 
L 684 794 
z
" transform="scale(0.015625)"/>
       </defs>
       <use xlink:href="#DejaVuSans-30"/>
       <use xlink:href="#DejaVuSans-2e" x="63.623047"/>
       <use xlink:href="#DejaVuSans-30" x="95.410156"/>
      </g>
     </g>
    </g>
    <g id="xtick_2">
     <g id="line2d_2">
      <g>
       <use xlink:href="#mb092235ffe" x="111.602528" y="260.521875" style="stroke: #000000; stroke-width: 0.8"/>
      </g>
     </g>
     <g id="text_2">
      <!-- 0.5 -->
      <g transform="translate(103.650966 275.120313) scale(0.1 -0.1)">
       <defs>
        <path id="DejaVuSans-35" d="M 691 4666 
L 3169 4666 
L 3169 4134 
L 1269 4134 
L 1269 2991 
Q 1406 3038 1543 3061 
Q 1681 3084 1819 3084 
Q 2600 3084 3056 2656 
Q 3513 2228 3513 1497 
Q 3513 744 3044 326 
Q 2575 -91 1722 -91 
Q 1428 -91 1123 -41 
Q 819 9 494 109 
L 494 744 
Q 775 591 1075 516 
Q 1375 441 1709 441 
Q 2250 441 2565 725 
Q 2881 1009 2881 1497 
Q 2881 1984 2565 2268 
Q 2250 2553 1709 2553 
Q 1456 2553 1204 2497 
Q 953 2441 691 2322 
L 691 4666 
z
" transform="scale(0.015625)"/>
       </defs>
       <use xlink:href="#DejaVuSans-30"/>
       <use xlink:href="#DejaVuSans-2e" x="63.623047"/>
       <use xlink:href="#DejaVuSans-35" x="95.410156"/>
      </g>
     </g>
    </g>
    <g id="xtick_3">
     <g id="line2d_3">
      <g>
       <use xlink:href="#mb092235ffe" x="164.542656" y="260.521875" style="stroke: #000000; stroke-width: 0.8"/>
      </g>
     </g>
     <g id="text_3">
      <!-- 1.0 -->
      <g transform="translate(156.591094 275.120313) scale(0.1 -0.1)">
       <defs>
        <path id="DejaVuSans-31" d="M 794 531 
L 1825 531 
L 1825 4091 
L 703 3866 
L 703 4441 
L 1819 4666 
L 2450 4666 
L 2450 531 
L 3481 531 
L 3481 0 
L 794 0 
L 794 531 
z
" transform="scale(0.015625)"/>
       </defs>
       <use xlink:href="#DejaVuSans-31"/>
       <use xlink:href="#DejaVuSans-2e" x="63.623047"/>
       <use xlink:href="#DejaVuSans-30" x="95.410156"/>
      </g>
     </g>
    </g>
    <g id="xtick_4">
     <g id="line2d_4">
      <g>
       <use xlink:href="#mb092235ffe" x="217.482784" y="260.521875" style="stroke: #000000; stroke-width: 0.8"/>
      </g>
     </g>
     <g id="text_4">
      <!-- 1.5 -->
      <g transform="translate(209.531222 275.120313) scale(0.1 -0.1)">
       <use xlink:href="#DejaVuSans-31"/>
       <use xlink:href="#DejaVuSans-2e" x="63.623047"/>
       <use xlink:href="#DejaVuSans-35" x="95.410156"/>
      </g>
     </g>
    </g>
    <g id="xtick_5">
     <g id="line2d_5">
      <g>
       <use xlink:href="#mb092235ffe" x="270.422912" y="260.521875" style="stroke: #000000; stroke-width: 0.8"/>
      </g>
     </g>
     <g id="text_5">
      <!-- 2.0 -->
      <g transform="translate(262.471349 275.120313) scale(0.1 -0.1)">
       <defs>
        <path id="DejaVuSans-32" d="M 1228 531 
L 3431 531 
L 3431 0 
L 469 0 
L 469 531 
Q 828 903 1448 1529 
Q 2069 2156 2228 2338 
Q 2531 2678 2651 2914 
Q 2772 3150 2772 3378 
Q 2772 3750 2511 3984 
Q 2250 4219 1831 4219 
Q 1534 4219 1204 4116 
Q 875 4013 500 3803 
L 500 4441 
Q 881 4594 1212 4672 
Q 1544 4750 1819 4750 
Q 2544 4750 2975 4387 
Q 3406 4025 3406 3419 
Q 3406 3131 3298 2873 
Q 3191 2616 2906 2266 
Q 2828 2175 2409 1742 
Q 1991 1309 1228 531 
z
" transform="scale(0.015625)"/>
       </defs>
       <use xlink:href="#DejaVuSans-32"/>
       <use xlink:href="#DejaVuSans-2e" x="63.623047"/>
       <use xlink:href="#DejaVuSans-30" x="95.410156"/>
      </g>
     </g>
    </g>
   </g>
   <g id="matplotlib.axis_2">
    <g id="ytick_1">
     <g id="line2d_6">
      <defs>
       <path id="m5ffaabad7c" d="M 0 0 
L -3.5 0 
" style="stroke: #000000; stroke-width: 0.8"/>
      </defs>
      <g>
       <use xlink:href="#m5ffaabad7c" x="48.074375" y="260.521875" style="stroke: #000000; stroke-width: 0.8"/>
      </g>
     </g>
     <g id="text_6">
      <!-- 0 -->
      <g transform="translate(34.711875 264.321094) scale(0.1 -0.1)">
       <use xlink:href="#DejaVuSans-30"/>
      </g>
     </g>
    </g>
    <g id="ytick_2">
     <g id="line2d_7">
      <g>
       <use xlink:href="#m5ffaabad7c" x="48.074375" y="213.925226" style="stroke: #000000; stroke-width: 0.8"/>
      </g>
     </g>
     <g id="text_7">
      <!-- 2 -->
      <g transform="translate(34.711875 217.724445) scale(0.1 -0.1)">
       <use xlink:href="#DejaVuSans-32"/>
      </g>
     </g>
    </g>
    <g id="ytick_3">
     <g id="line2d_8">
      <g>
       <use xlink:href="#m5ffaabad7c" x="48.074375" y="167.328577" style="stroke: #000000; stroke-width: 0.8"/>
      </g>
     </g>
     <g id="text_8">
      <!-- 4 -->
      <g transform="translate(34.711875 171.127796) scale(0.1 -0.1)">
       <defs>
        <path id="DejaVuSans-34" d="M 2419 4116 
L 825 1625 
L 2419 1625 
L 2419 4116 
z
M 2253 4666 
L 3047 4666 
L 3047 1625 
L 3713 1625 
L 3713 1100 
L 3047 1100 
L 3047 0 
L 2419 0 
L 2419 1100 
L 313 1100 
L 313 1709 
L 2253 4666 
z
" transform="scale(0.015625)"/>
       </defs>
       <use xlink:href="#DejaVuSans-34"/>
      </g>
     </g>
    </g>
    <g id="ytick_4">
     <g id="line2d_9">
      <g>
       <use xlink:href="#m5ffaabad7c" x="48.074375" y="120.731928" style="stroke: #000000; stroke-width: 0.8"/>
      </g>
     </g>
     <g id="text_9">
      <!-- 6 -->
      <g transform="translate(34.711875 124.531147) scale(0.1 -0.1)">
       <defs>
        <path id="DejaVuSans-36" d="M 2113 2584 
Q 1688 2584 1439 2293 
Q 1191 2003 1191 1497 
Q 1191 994 1439 701 
Q 1688 409 2113 409 
Q 2538 409 2786 701 
Q 3034 994 3034 1497 
Q 3034 2003 2786 2293 
Q 2538 2584 2113 2584 
z
M 3366 4563 
L 3366 3988 
Q 3128 4100 2886 4159 
Q 2644 4219 2406 4219 
Q 1781 4219 1451 3797 
Q 1122 3375 1075 2522 
Q 1259 2794 1537 2939 
Q 1816 3084 2150 3084 
Q 2853 3084 3261 2657 
Q 3669 2231 3669 1497 
Q 3669 778 3244 343 
Q 2819 -91 2113 -91 
Q 1303 -91 875 529 
Q 447 1150 447 2328 
Q 447 3434 972 4092 
Q 1497 4750 2381 4750 
Q 2619 4750 2861 4703 
Q 3103 4656 3366 4563 
z
" transform="scale(0.015625)"/>
       </defs>
       <use xlink:href="#DejaVuSans-36"/>
      </g>
     </g>
    </g>
    <g id="ytick_5">
     <g id="line2d_10">
      <g>
       <use xlink:href="#m5ffaabad7c" x="48.074375" y="74.135279" style="stroke: #000000; stroke-width: 0.8"/>
      </g>
     </g>
     <g id="text_10">
      <!-- 8 -->
      <g transform="translate(34.711875 77.934498) scale(0.1 -0.1)">
       <defs>
        <path id="DejaVuSans-38" d="M 2034 2216 
Q 1584 2216 1326 1975 
Q 1069 1734 1069 1313 
Q 1069 891 1326 650 
Q 1584 409 2034 409 
Q 2484 409 2743 651 
Q 3003 894 3003 1313 
Q 3003 1734 2745 1975 
Q 2488 2216 2034 2216 
z
M 1403 2484 
Q 997 2584 770 2862 
Q 544 3141 544 3541 
Q 544 4100 942 4425 
Q 1341 4750 2034 4750 
Q 2731 4750 3128 4425 
Q 3525 4100 3525 3541 
Q 3525 3141 3298 2862 
Q 3072 2584 2669 2484 
Q 3125 2378 3379 2068 
Q 3634 1759 3634 1313 
Q 3634 634 3220 271 
Q 2806 -91 2034 -91 
Q 1263 -91 848 271 
Q 434 634 434 1313 
Q 434 1759 690 2068 
Q 947 2378 1403 2484 
z
M 1172 3481 
Q 1172 3119 1398 2916 
Q 1625 2713 2034 2713 
Q 2441 2713 2670 2916 
Q 2900 3119 2900 3481 
Q 2900 3844 2670 4047 
Q 2441 4250 2034 4250 
Q 1625 4250 1398 4047 
Q 1172 3844 1172 3481 
z
" transform="scale(0.015625)"/>
       </defs>
       <use xlink:href="#DejaVuSans-38"/>
      </g>
     </g>
    </g>
    <g id="ytick_6">
     <g id="line2d_11">
      <g>
       <use xlink:href="#m5ffaabad7c" x="48.074375" y="27.538631" style="stroke: #000000; stroke-width: 0.8"/>
      </g>
     </g>
     <g id="text_11">
      <!-- 10 -->
      <g transform="translate(28.349375 31.337849) scale(0.1 -0.1)">
       <use xlink:href="#DejaVuSans-31"/>
       <use xlink:href="#DejaVuSans-30" x="63.623047"/>
      </g>
     </g>
    </g>
    <g id="text_12">
     <!-- Fraction of cells -->
     <g transform="translate(21.437813 198.051875) rotate(-90) scale(0.14 -0.14)">
      <defs>
       <path id="DejaVuSans-46" d="M 628 4666 
L 3309 4666 
L 3309 4134 
L 1259 4134 
L 1259 2759 
L 3109 2759 
L 3109 2228 
L 1259 2228 
L 1259 0 
L 628 0 
L 628 4666 
z
" transform="scale(0.015625)"/>
       <path id="DejaVuSans-72" d="M 2631 2963 
Q 2534 3019 2420 3045 
Q 2306 3072 2169 3072 
Q 1681 3072 1420 2755 
Q 1159 2438 1159 1844 
L 1159 0 
L 581 0 
L 581 3500 
L 1159 3500 
L 1159 2956 
Q 1341 3275 1631 3429 
Q 1922 3584 2338 3584 
Q 2397 3584 2469 3576 
Q 2541 3569 2628 3553 
L 2631 2963 
z
" transform="scale(0.015625)"/>
       <path id="DejaVuSans-61" d="M 2194 1759 
Q 1497 1759 1228 1600 
Q 959 1441 959 1056 
Q 959 750 1161 570 
Q 1363 391 1709 391 
Q 2188 391 2477 730 
Q 2766 1069 2766 1631 
L 2766 1759 
L 2194 1759 
z
M 3341 1997 
L 3341 0 
L 2766 0 
L 2766 531 
Q 2569 213 2275 61 
Q 1981 -91 1556 -91 
Q 1019 -91 701 211 
Q 384 513 384 1019 
Q 384 1609 779 1909 
Q 1175 2209 1959 2209 
L 2766 2209 
L 2766 2266 
Q 2766 2663 2505 2880 
Q 2244 3097 1772 3097 
Q 1472 3097 1187 3025 
Q 903 2953 641 2809 
L 641 3341 
Q 956 3463 1253 3523 
Q 1550 3584 1831 3584 
Q 2591 3584 2966 3190 
Q 3341 2797 3341 1997 
z
" transform="scale(0.015625)"/>
       <path id="DejaVuSans-63" d="M 3122 3366 
L 3122 2828 
Q 2878 2963 2633 3030 
Q 2388 3097 2138 3097 
Q 1578 3097 1268 2742 
Q 959 2388 959 1747 
Q 959 1106 1268 751 
Q 1578 397 2138 397 
Q 2388 397 2633 464 
Q 2878 531 3122 666 
L 3122 134 
Q 2881 22 2623 -34 
Q 2366 -91 2075 -91 
Q 1284 -91 818 406 
Q 353 903 353 1747 
Q 353 2603 823 3093 
Q 1294 3584 2113 3584 
Q 2378 3584 2631 3529 
Q 2884 3475 3122 3366 
z
" transform="scale(0.015625)"/>
       <path id="DejaVuSans-74" d="M 1172 4494 
L 1172 3500 
L 2356 3500 
L 2356 3053 
L 1172 3053 
L 1172 1153 
Q 1172 725 1289 603 
Q 1406 481 1766 481 
L 2356 481 
L 2356 0 
L 1766 0 
Q 1100 0 847 248 
Q 594 497 594 1153 
L 594 3053 
L 172 3053 
L 172 3500 
L 594 3500 
L 594 4494 
L 1172 4494 
z
" transform="scale(0.015625)"/>
       <path id="DejaVuSans-69" d="M 603 3500 
L 1178 3500 
L 1178 0 
L 603 0 
L 603 3500 
z
M 603 4863 
L 1178 4863 
L 1178 4134 
L 603 4134 
L 603 4863 
z
" transform="scale(0.015625)"/>
       <path id="DejaVuSans-6f" d="M 1959 3097 
Q 1497 3097 1228 2736 
Q 959 2375 959 1747 
Q 959 1119 1226 758 
Q 1494 397 1959 397 
Q 2419 397 2687 759 
Q 2956 1122 2956 1747 
Q 2956 2369 2687 2733 
Q 2419 3097 1959 3097 
z
M 1959 3584 
Q 2709 3584 3137 3096 
Q 3566 2609 3566 1747 
Q 3566 888 3137 398 
Q 2709 -91 1959 -91 
Q 1206 -91 779 398 
Q 353 888 353 1747 
Q 353 2609 779 3096 
Q 1206 3584 1959 3584 
z
" transform="scale(0.015625)"/>
       <path id="DejaVuSans-6e" d="M 3513 2113 
L 3513 0 
L 2938 0 
L 2938 2094 
Q 2938 2591 2744 2837 
Q 2550 3084 2163 3084 
Q 1697 3084 1428 2787 
Q 1159 2491 1159 1978 
L 1159 0 
L 581 0 
L 581 3500 
L 1159 3500 
L 1159 2956 
Q 1366 3272 1645 3428 
Q 1925 3584 2291 3584 
Q 2894 3584 3203 3211 
Q 3513 2838 3513 2113 
z
" transform="scale(0.015625)"/>
       <path id="DejaVuSans-20" transform="scale(0.015625)"/>
       <path id="DejaVuSans-66" d="M 2375 4863 
L 2375 4384 
L 1825 4384 
Q 1516 4384 1395 4259 
Q 1275 4134 1275 3809 
L 1275 3500 
L 2222 3500 
L 2222 3053 
L 1275 3053 
L 1275 0 
L 697 0 
L 697 3053 
L 147 3053 
L 147 3500 
L 697 3500 
L 697 3744 
Q 697 4328 969 4595 
Q 1241 4863 1831 4863 
L 2375 4863 
z
" transform="scale(0.015625)"/>
       <path id="DejaVuSans-65" d="M 3597 1894 
L 3597 1613 
L 953 1613 
Q 991 1019 1311 708 
Q 1631 397 2203 397 
Q 2534 397 2845 478 
Q 3156 559 3463 722 
L 3463 178 
Q 3153 47 2828 -22 
Q 2503 -91 2169 -91 
Q 1331 -91 842 396 
Q 353 884 353 1716 
Q 353 2575 817 3079 
Q 1281 3584 2069 3584 
Q 2775 3584 3186 3129 
Q 3597 2675 3597 1894 
z
M 3022 2063 
Q 3016 2534 2758 2815 
Q 2500 3097 2075 3097 
Q 1594 3097 1305 2825 
Q 1016 2553 972 2059 
L 3022 2063 
z
" transform="scale(0.015625)"/>
       <path id="DejaVuSans-6c" d="M 603 4863 
L 1178 4863 
L 1178 0 
L 603 0 
L 603 4863 
z
" transform="scale(0.015625)"/>
       <path id="DejaVuSans-73" d="M 2834 3397 
L 2834 2853 
Q 2591 2978 2328 3040 
Q 2066 3103 1784 3103 
Q 1356 3103 1142 2972 
Q 928 2841 928 2578 
Q 928 2378 1081 2264 
Q 1234 2150 1697 2047 
L 1894 2003 
Q 2506 1872 2764 1633 
Q 3022 1394 3022 966 
Q 3022 478 2636 193 
Q 2250 -91 1575 -91 
Q 1294 -91 989 -36 
Q 684 19 347 128 
L 347 722 
Q 666 556 975 473 
Q 1284 391 1588 391 
Q 1994 391 2212 530 
Q 2431 669 2431 922 
Q 2431 1156 2273 1281 
Q 2116 1406 1581 1522 
L 1381 1569 
Q 847 1681 609 1914 
Q 372 2147 372 2553 
Q 372 3047 722 3315 
Q 1072 3584 1716 3584 
Q 2034 3584 2315 3537 
Q 2597 3491 2834 3397 
z
" transform="scale(0.015625)"/>
      </defs>
      <use xlink:href="#DejaVuSans-46"/>
      <use xlink:href="#DejaVuSans-72" x="50.269531"/>
      <use xlink:href="#DejaVuSans-61" x="91.382812"/>
      <use xlink:href="#DejaVuSans-63" x="152.662109"/>
      <use xlink:href="#DejaVuSans-74" x="207.642578"/>
      <use xlink:href="#DejaVuSans-69" x="246.851562"/>
      <use xlink:href="#DejaVuSans-6f" x="274.634766"/>
      <use xlink:href="#DejaVuSans-6e" x="335.816406"/>
      <use xlink:href="#DejaVuSans-20" x="399.195312"/>
      <use xlink:href="#DejaVuSans-6f" x="430.982422"/>
      <use xlink:href="#DejaVuSans-66" x="492.164062"/>
      <use xlink:href="#DejaVuSans-20" x="527.369141"/>
      <use xlink:href="#DejaVuSans-63" x="559.15625"/>
      <use xlink:href="#DejaVuSans-65" x="614.136719"/>
      <use xlink:href="#DejaVuSans-6c" x="675.660156"/>
      <use xlink:href="#DejaVuSans-6c" x="703.443359"/>
      <use xlink:href="#DejaVuSans-73" x="731.226562"/>
     </g>
    </g>
   </g>
   <g id="line2d_12">
    <path d="M 58.662401 260.521875 
L 124.235065 260.422074 
L 125.400331 260.169785 
L 126.247796 259.765931 
L 127.095262 259.088559 
L 127.942728 258.109512 
L 129.213927 256.229069 
L 131.332591 252.67761 
L 131.96819 251.14592 
L 132.60379 248.932872 
L 133.239389 245.691588 
L 133.874988 241.136751 
L 134.616521 233.96849 
L 135.463987 223.368285 
L 136.523319 206.892403 
L 137.688584 184.902339 
L 138.959783 156.358893 
L 140.972514 110.598638 
L 141.608114 100.751144 
L 142.13778 95.681392 
L 142.455579 94.147056 
L 142.667446 93.757045 
L 142.773379 93.748045 
L 142.985246 94.090151 
L 143.303045 95.452919 
L 143.726778 98.669828 
L 144.362377 105.777139 
L 145.739509 125.047161 
L 146.904775 139.915319 
L 147.858174 149.569846 
L 148.917506 158.11469 
L 150.506504 168.802183 
L 153.048902 185.78913 
L 154.3201 195.969004 
L 155.697232 209.067486 
L 158.23963 233.762166 
L 159.087095 239.75584 
L 159.828628 243.522826 
L 160.464227 245.724554 
L 161.099827 247.180706 
L 161.841359 248.272094 
L 163.006625 249.468844 
L 164.48969 251.052693 
L 165.866822 252.850775 
L 167.667686 255.612902 
L 169.362618 258.098019 
L 170.316017 259.136903 
L 171.163483 259.771233 
L 172.116882 260.194692 
L 173.176214 260.414074 
L 174.871145 260.51006 
L 182.392404 260.521875 
L 270.422912 260.521875 
L 270.422912 260.521875 
" clip-path="url(#pf5145ec6a6)" style="fill: none; stroke: #1f77b4; stroke-width: 1.5; stroke-linecap: square"/>
   </g>
   <g id="line2d_13">
    <path d="M 58.662401 260.521875 
L 128.154594 260.416765 
L 129.425793 260.183123 
L 130.379192 259.793225 
L 131.120725 259.273316 
L 131.862257 258.472413 
L 132.497857 257.478995 
L 133.133456 256.110613 
L 133.769055 254.262863 
L 134.510588 251.342584 
L 135.25212 247.408253 
L 135.993653 242.268796 
L 136.841119 234.722914 
L 137.794518 223.958165 
L 138.85385 209.259536 
L 140.336915 185.05299 
L 142.455579 150.609827 
L 143.303045 140.136848 
L 143.938645 134.436191 
L 144.468311 131.283319 
L 144.892044 129.833721 
L 145.209843 129.357908 
L 145.42171 129.319669 
L 145.633576 129.493991 
L 145.951376 130.129799 
L 146.375109 131.609424 
L 146.904775 134.316772 
L 147.646307 139.307587 
L 148.917506 149.715382 
L 152.307369 178.356779 
L 153.366701 185.376216 
L 154.3201 190.252155 
L 155.061633 193.008894 
L 155.697232 194.641389 
L 156.226898 195.504093 
L 156.756564 195.950211 
L 157.180297 196.046104 
L 157.709963 195.911419 
L 158.557429 195.382117 
L 159.298962 194.994292 
L 159.722695 194.967318 
L 160.146428 195.166901 
L 160.57016 195.648228 
L 160.993893 196.452361 
L 161.523559 197.949357 
L 162.159159 200.486555 
L 162.900691 204.428095 
L 163.85409 210.846368 
L 165.125289 221.078952 
L 167.77362 242.880844 
L 168.832952 249.549185 
L 169.680418 253.547244 
L 170.42195 256.090731 
L 171.163483 257.86014 
L 171.799082 258.88028 
L 172.540615 259.638814 
L 173.282147 260.075628 
L 174.235546 260.353133 
L 175.612678 260.487824 
L 179.214408 260.521712 
L 270.422912 260.521875 
L 270.422912 260.521875 
" clip-path="url(#pf5145ec6a6)" style="fill: none; stroke: #ff7f0e; stroke-width: 1.5; stroke-linecap: square"/>
   </g>
   <g id="line2d_14">
    <path d="M 58.662401 260.521875 
L 113.21801 260.419418 
L 114.701075 260.180982 
L 115.866341 259.785168 
L 117.031606 259.148879 
L 118.514671 258.041092 
L 121.163002 256.019756 
L 122.540134 255.282401 
L 123.917266 254.796875 
L 125.612197 254.463093 
L 126.671529 254.170999 
L 127.307129 253.787276 
L 127.836795 253.241564 
L 128.366461 252.400881 
L 128.896127 251.173601 
L 129.531726 249.057045 
L 130.167326 246.086216 
L 130.908858 241.346054 
L 131.650391 235.063619 
L 132.497857 225.890417 
L 133.557189 211.61892 
L 135.146187 186.457124 
L 136.735185 162.140499 
L 137.688584 150.698361 
L 138.430117 144.214194 
L 139.065716 140.468522 
L 139.595382 138.585776 
L 140.019115 137.826387 
L 140.336915 137.650609 
L 140.654715 137.777745 
L 140.972514 138.174681 
L 141.396247 139.065563 
L 142.031847 141.020955 
L 142.879312 144.430076 
L 144.256444 151.035612 
L 145.845443 159.73891 
L 147.116641 167.989878 
L 148.38784 177.848127 
L 151.777703 205.592403 
L 152.519236 209.633162 
L 153.154835 212.09246 
L 153.684501 213.449569 
L 154.214167 214.250014 
L 154.6379 214.563279 
L 155.167566 214.662291 
L 156.120965 214.491181 
L 156.756564 214.495098 
L 157.180297 214.685412 
L 157.60403 215.086417 
L 158.133696 215.936658 
L 158.769296 217.510065 
L 159.510828 220.087959 
L 160.464227 224.362468 
L 162.371025 234.338979 
L 163.960024 242.018124 
L 165.231222 247.027534 
L 166.396488 250.7328 
L 167.561753 253.715717 
L 168.621085 255.880667 
L 169.680418 257.559866 
L 170.633817 258.676712 
L 171.587216 259.455852 
L 172.540615 259.955085 
L 173.70588 260.289952 
L 175.188945 260.461283 
L 178.155075 260.519873 
L 223.918227 260.521875 
L 270.422912 260.521875 
L 270.422912 260.521875 
" clip-path="url(#pf5145ec6a6)" style="fill: none; stroke: #2ca02c; stroke-width: 1.5; stroke-linecap: square"/>
   </g>
   <g id="patch_63">
    <path d="M 48.074375 260.521875 
L 48.074375 25.918125 
" style="fill: none; stroke: #000000; stroke-width: 0.8; stroke-linejoin: miter; stroke-linecap: square"/>
   </g>
   <g id="patch_64">
    <path d="M 281.010937 260.521875 
L 281.010937 25.918125 
" style="fill: none; stroke: #000000; stroke-width: 0.8; stroke-linejoin: miter; stroke-linecap: square"/>
   </g>
   <g id="patch_65">
    <path d="M 48.074375 260.521875 
L 281.010937 260.521875 
" style="fill: none; stroke: #000000; stroke-width: 0.8; stroke-linejoin: miter; stroke-linecap: square"/>
   </g>
   <g id="patch_66">
    <path d="M 48.074375 25.918125 
L 281.010937 25.918125 
" style="fill: none; stroke: #000000; stroke-width: 0.8; stroke-linejoin: miter; stroke-linecap: square"/>
   </g>
   <g id="text_13">
    <!-- SRV -->
    <g transform="translate(152.790156 19.918125) scale(0.12 -0.12)">
     <defs>
      <path id="DejaVuSans-53" d="M 3425 4513 
L 3425 3897 
Q 3066 4069 2747 4153 
Q 2428 4238 2131 4238 
Q 1616 4238 1336 4038 
Q 1056 3838 1056 3469 
Q 1056 3159 1242 3001 
Q 1428 2844 1947 2747 
L 2328 2669 
Q 3034 2534 3370 2195 
Q 3706 1856 3706 1288 
Q 3706 609 3251 259 
Q 2797 -91 1919 -91 
Q 1588 -91 1214 -16 
Q 841 59 441 206 
L 441 856 
Q 825 641 1194 531 
Q 1563 422 1919 422 
Q 2459 422 2753 634 
Q 3047 847 3047 1241 
Q 3047 1584 2836 1778 
Q 2625 1972 2144 2069 
L 1759 2144 
Q 1053 2284 737 2584 
Q 422 2884 422 3419 
Q 422 4038 858 4394 
Q 1294 4750 2059 4750 
Q 2388 4750 2728 4690 
Q 3069 4631 3425 4513 
z
" transform="scale(0.015625)"/>
      <path id="DejaVuSans-52" d="M 2841 2188 
Q 3044 2119 3236 1894 
Q 3428 1669 3622 1275 
L 4263 0 
L 3584 0 
L 2988 1197 
Q 2756 1666 2539 1819 
Q 2322 1972 1947 1972 
L 1259 1972 
L 1259 0 
L 628 0 
L 628 4666 
L 2053 4666 
Q 2853 4666 3247 4331 
Q 3641 3997 3641 3322 
Q 3641 2881 3436 2590 
Q 3231 2300 2841 2188 
z
M 1259 4147 
L 1259 2491 
L 2053 2491 
Q 2509 2491 2742 2702 
Q 2975 2913 2975 3322 
Q 2975 3731 2742 3939 
Q 2509 4147 2053 4147 
L 1259 4147 
z
" transform="scale(0.015625)"/>
      <path id="DejaVuSans-56" d="M 1831 0 
L 50 4666 
L 709 4666 
L 2188 738 
L 3669 4666 
L 4325 4666 
L 2547 0 
L 1831 0 
z
" transform="scale(0.015625)"/>
     </defs>
     <use xlink:href="#DejaVuSans-53"/>
     <use xlink:href="#DejaVuSans-52" x="63.476562"/>
     <use xlink:href="#DejaVuSans-56" x="127.458984"/>
    </g>
   </g>
   <g id="legend_1">
    <g id="patch_67">
     <path d="M 153.126562 88.693125 
L 272.610937 88.693125 
Q 275.010937 88.693125 275.010937 86.293125 
L 275.010937 34.318125 
Q 275.010937 31.918125 272.610937 31.918125 
L 153.126562 31.918125 
Q 150.726562 31.918125 150.726562 34.318125 
L 150.726562 86.293125 
Q 150.726562 88.693125 153.126562 88.693125 
z
" style="fill: #ffffff; opacity: 0.8; stroke: #cccccc; stroke-linejoin: miter"/>
    </g>
    <g id="patch_68">
     <path d="M 155.526562 45.83625 
L 179.526562 45.83625 
L 179.526562 37.43625 
L 155.526562 37.43625 
z
" style="fill: #1f77b4; opacity: 0.4"/>
    </g>
    <g id="text_14">
     <!-- MCF10A -->
     <g transform="translate(189.126562 45.83625) scale(0.12 -0.12)">
      <defs>
       <path id="DejaVuSans-4d" d="M 628 4666 
L 1569 4666 
L 2759 1491 
L 3956 4666 
L 4897 4666 
L 4897 0 
L 4281 0 
L 4281 4097 
L 3078 897 
L 2444 897 
L 1241 4097 
L 1241 0 
L 628 0 
L 628 4666 
z
" transform="scale(0.015625)"/>
       <path id="DejaVuSans-43" d="M 4122 4306 
L 4122 3641 
Q 3803 3938 3442 4084 
Q 3081 4231 2675 4231 
Q 1875 4231 1450 3742 
Q 1025 3253 1025 2328 
Q 1025 1406 1450 917 
Q 1875 428 2675 428 
Q 3081 428 3442 575 
Q 3803 722 4122 1019 
L 4122 359 
Q 3791 134 3420 21 
Q 3050 -91 2638 -91 
Q 1578 -91 968 557 
Q 359 1206 359 2328 
Q 359 3453 968 4101 
Q 1578 4750 2638 4750 
Q 3056 4750 3426 4639 
Q 3797 4528 4122 4306 
z
" transform="scale(0.015625)"/>
       <path id="DejaVuSans-41" d="M 2188 4044 
L 1331 1722 
L 3047 1722 
L 2188 4044 
z
M 1831 4666 
L 2547 4666 
L 4325 0 
L 3669 0 
L 3244 1197 
L 1141 1197 
L 716 0 
L 50 0 
L 1831 4666 
z
" transform="scale(0.015625)"/>
      </defs>
      <use xlink:href="#DejaVuSans-4d"/>
      <use xlink:href="#DejaVuSans-43" x="86.279297"/>
      <use xlink:href="#DejaVuSans-46" x="156.103516"/>
      <use xlink:href="#DejaVuSans-31" x="213.623047"/>
      <use xlink:href="#DejaVuSans-30" x="277.246094"/>
      <use xlink:href="#DejaVuSans-41" x="340.869141"/>
     </g>
    </g>
    <g id="patch_69">
     <path d="M 155.526562 63.45 
L 179.526562 63.45 
L 179.526562 55.05 
L 155.526562 55.05 
z
" style="fill: #ff7f0e; opacity: 0.4"/>
    </g>
    <g id="text_15">
     <!-- MCF7 -->
     <g transform="translate(189.126562 63.45) scale(0.12 -0.12)">
      <defs>
       <path id="DejaVuSans-37" d="M 525 4666 
L 3525 4666 
L 3525 4397 
L 1831 0 
L 1172 0 
L 2766 4134 
L 525 4134 
L 525 4666 
z
" transform="scale(0.015625)"/>
      </defs>
      <use xlink:href="#DejaVuSans-4d"/>
      <use xlink:href="#DejaVuSans-43" x="86.279297"/>
      <use xlink:href="#DejaVuSans-46" x="156.103516"/>
      <use xlink:href="#DejaVuSans-37" x="213.623047"/>
     </g>
    </g>
    <g id="patch_70">
     <path d="M 155.526562 81.06375 
L 179.526562 81.06375 
L 179.526562 72.66375 
L 155.526562 72.66375 
z
" style="fill: #2ca02c; opacity: 0.4"/>
    </g>
    <g id="text_16">
     <!-- MDA_MB_231 -->
     <g transform="translate(189.126562 81.06375) scale(0.12 -0.12)">
      <defs>
       <path id="DejaVuSans-44" d="M 1259 4147 
L 1259 519 
L 2022 519 
Q 2988 519 3436 956 
Q 3884 1394 3884 2338 
Q 3884 3275 3436 3711 
Q 2988 4147 2022 4147 
L 1259 4147 
z
M 628 4666 
L 1925 4666 
Q 3281 4666 3915 4102 
Q 4550 3538 4550 2338 
Q 4550 1131 3912 565 
Q 3275 0 1925 0 
L 628 0 
L 628 4666 
z
" transform="scale(0.015625)"/>
       <path id="DejaVuSans-5f" d="M 3263 -1063 
L 3263 -1509 
L -63 -1509 
L -63 -1063 
L 3263 -1063 
z
" transform="scale(0.015625)"/>
       <path id="DejaVuSans-42" d="M 1259 2228 
L 1259 519 
L 2272 519 
Q 2781 519 3026 730 
Q 3272 941 3272 1375 
Q 3272 1813 3026 2020 
Q 2781 2228 2272 2228 
L 1259 2228 
z
M 1259 4147 
L 1259 2741 
L 2194 2741 
Q 2656 2741 2882 2914 
Q 3109 3088 3109 3444 
Q 3109 3797 2882 3972 
Q 2656 4147 2194 4147 
L 1259 4147 
z
M 628 4666 
L 2241 4666 
Q 2963 4666 3353 4366 
Q 3744 4066 3744 3513 
Q 3744 3084 3544 2831 
Q 3344 2578 2956 2516 
Q 3422 2416 3680 2098 
Q 3938 1781 3938 1306 
Q 3938 681 3513 340 
Q 3088 0 2303 0 
L 628 0 
L 628 4666 
z
" transform="scale(0.015625)"/>
       <path id="DejaVuSans-33" d="M 2597 2516 
Q 3050 2419 3304 2112 
Q 3559 1806 3559 1356 
Q 3559 666 3084 287 
Q 2609 -91 1734 -91 
Q 1441 -91 1130 -33 
Q 819 25 488 141 
L 488 750 
Q 750 597 1062 519 
Q 1375 441 1716 441 
Q 2309 441 2620 675 
Q 2931 909 2931 1356 
Q 2931 1769 2642 2001 
Q 2353 2234 1838 2234 
L 1294 2234 
L 1294 2753 
L 1863 2753 
Q 2328 2753 2575 2939 
Q 2822 3125 2822 3475 
Q 2822 3834 2567 4026 
Q 2313 4219 1838 4219 
Q 1578 4219 1281 4162 
Q 984 4106 628 3988 
L 628 4550 
Q 988 4650 1302 4700 
Q 1616 4750 1894 4750 
Q 2613 4750 3031 4423 
Q 3450 4097 3450 3541 
Q 3450 3153 3228 2886 
Q 3006 2619 2597 2516 
z
" transform="scale(0.015625)"/>
      </defs>
      <use xlink:href="#DejaVuSans-4d"/>
      <use xlink:href="#DejaVuSans-44" x="86.279297"/>
      <use xlink:href="#DejaVuSans-41" x="161.53125"/>
      <use xlink:href="#DejaVuSans-5f" x="229.939453"/>
      <use xlink:href="#DejaVuSans-4d" x="279.939453"/>
      <use xlink:href="#DejaVuSans-42" x="366.21875"/>
      <use xlink:href="#DejaVuSans-5f" x="434.822266"/>
      <use xlink:href="#DejaVuSans-32" x="484.822266"/>
      <use xlink:href="#DejaVuSans-33" x="548.445312"/>
      <use xlink:href="#DejaVuSans-31" x="612.068359"/>
     </g>
    </g>
   </g>
  </g>
  <g id="axes_2">
   <g id="patch_71">
    <path d="M 332.263437 260.521875 
L 565.2 260.521875 
L 565.2 25.918125 
L 332.263437 25.918125 
z
" style="fill: #ffffff"/>
   </g>
   <g id="patch_72">
    <path d="M 358.436396 260.521875 
L 366.907887 260.521875 
L 366.907887 248.108978 
L 358.436396 248.108978 
z
" clip-path="url(#p2f96492a6d)" style="fill: #1f77b4; opacity: 0.4"/>
   </g>
   <g id="patch_73">
    <path d="M 366.907887 260.521875 
L 375.379379 260.521875 
L 375.379379 260.521875 
L 366.907887 260.521875 
z
" clip-path="url(#p2f96492a6d)" style="fill: #1f77b4; opacity: 0.4"/>
   </g>
   <g id="patch_74">
    <path d="M 375.379379 260.521875 
L 383.850871 260.521875 
L 383.850871 248.108978 
L 375.379379 248.108978 
z
" clip-path="url(#p2f96492a6d)" style="fill: #1f77b4; opacity: 0.4"/>
   </g>
   <g id="patch_75">
    <path d="M 383.850871 260.521875 
L 392.322362 260.521875 
L 392.322362 241.90253 
L 383.850871 241.90253 
z
" clip-path="url(#p2f96492a6d)" style="fill: #1f77b4; opacity: 0.4"/>
   </g>
   <g id="patch_76">
    <path d="M 392.322362 260.521875 
L 400.793854 260.521875 
L 400.793854 210.870288 
L 392.322362 210.870288 
z
" clip-path="url(#p2f96492a6d)" style="fill: #1f77b4; opacity: 0.4"/>
   </g>
   <g id="patch_77">
    <path d="M 400.793854 260.521875 
L 409.265345 260.521875 
L 409.265345 198.457391 
L 400.793854 198.457391 
z
" clip-path="url(#p2f96492a6d)" style="fill: #1f77b4; opacity: 0.4"/>
   </g>
   <g id="patch_78">
    <path d="M 409.265345 260.521875 
L 417.736837 260.521875 
L 417.736837 155.012252 
L 409.265345 155.012252 
z
" clip-path="url(#p2f96492a6d)" style="fill: #1f77b4; opacity: 0.4"/>
   </g>
   <g id="patch_79">
    <path d="M 417.736837 260.521875 
L 426.208329 260.521875 
L 426.208329 186.044494 
L 417.736837 186.044494 
z
" clip-path="url(#p2f96492a6d)" style="fill: #1f77b4; opacity: 0.4"/>
   </g>
   <g id="patch_80">
    <path d="M 426.208329 260.521875 
L 434.67982 260.521875 
L 434.67982 86.741319 
L 426.208329 86.741319 
z
" clip-path="url(#p2f96492a6d)" style="fill: #1f77b4; opacity: 0.4"/>
   </g>
   <g id="patch_81">
    <path d="M 434.67982 260.521875 
L 443.151312 260.521875 
L 443.151312 86.741319 
L 434.67982 86.741319 
z
" clip-path="url(#p2f96492a6d)" style="fill: #1f77b4; opacity: 0.4"/>
   </g>
   <g id="patch_82">
    <path d="M 443.151312 260.521875 
L 451.622803 260.521875 
L 451.622803 37.089732 
L 443.151312 37.089732 
z
" clip-path="url(#p2f96492a6d)" style="fill: #1f77b4; opacity: 0.4"/>
   </g>
   <g id="patch_83">
    <path d="M 451.622803 260.521875 
L 460.094295 260.521875 
L 460.094295 68.121974 
L 451.622803 68.121974 
z
" clip-path="url(#p2f96492a6d)" style="fill: #1f77b4; opacity: 0.4"/>
   </g>
   <g id="patch_84">
    <path d="M 460.094295 260.521875 
L 468.565787 260.521875 
L 468.565787 111.567113 
L 460.094295 111.567113 
z
" clip-path="url(#p2f96492a6d)" style="fill: #1f77b4; opacity: 0.4"/>
   </g>
   <g id="patch_85">
    <path d="M 468.565787 260.521875 
L 477.037278 260.521875 
L 477.037278 192.250942 
L 468.565787 192.250942 
z
" clip-path="url(#p2f96492a6d)" style="fill: #1f77b4; opacity: 0.4"/>
   </g>
   <g id="patch_86">
    <path d="M 477.037278 260.521875 
L 485.50877 260.521875 
L 485.50877 210.870288 
L 477.037278 210.870288 
z
" clip-path="url(#p2f96492a6d)" style="fill: #1f77b4; opacity: 0.4"/>
   </g>
   <g id="patch_87">
    <path d="M 485.50877 260.521875 
L 493.980261 260.521875 
L 493.980261 235.696081 
L 485.50877 235.696081 
z
" clip-path="url(#p2f96492a6d)" style="fill: #1f77b4; opacity: 0.4"/>
   </g>
   <g id="patch_88">
    <path d="M 493.980261 260.521875 
L 502.451753 260.521875 
L 502.451753 248.108978 
L 493.980261 248.108978 
z
" clip-path="url(#p2f96492a6d)" style="fill: #1f77b4; opacity: 0.4"/>
   </g>
   <g id="patch_89">
    <path d="M 502.451753 260.521875 
L 510.923245 260.521875 
L 510.923245 260.521875 
L 502.451753 260.521875 
z
" clip-path="url(#p2f96492a6d)" style="fill: #1f77b4; opacity: 0.4"/>
   </g>
   <g id="patch_90">
    <path d="M 510.923245 260.521875 
L 519.394736 260.521875 
L 519.394736 260.521875 
L 510.923245 260.521875 
z
" clip-path="url(#p2f96492a6d)" style="fill: #1f77b4; opacity: 0.4"/>
   </g>
   <g id="patch_91">
    <path d="M 519.394736 260.521875 
L 527.866228 260.521875 
L 527.866228 254.315427 
L 519.394736 254.315427 
z
" clip-path="url(#p2f96492a6d)" style="fill: #1f77b4; opacity: 0.4"/>
   </g>
   <g id="patch_92">
    <path d="M 358.353788 260.521875 
L 366.733904 260.521875 
L 366.733904 241.447423 
L 358.353788 241.447423 
z
" clip-path="url(#p2f96492a6d)" style="fill: #ff7f0e; opacity: 0.4"/>
   </g>
   <g id="patch_93">
    <path d="M 366.733904 260.521875 
L 375.114021 260.521875 
L 375.114021 241.447423 
L 366.733904 241.447423 
z
" clip-path="url(#p2f96492a6d)" style="fill: #ff7f0e; opacity: 0.4"/>
   </g>
   <g id="patch_94">
    <path d="M 375.114021 260.521875 
L 383.494138 260.521875 
L 383.494138 247.805574 
L 375.114021 247.805574 
z
" clip-path="url(#p2f96492a6d)" style="fill: #ff7f0e; opacity: 0.4"/>
   </g>
   <g id="patch_95">
    <path d="M 383.494138 260.521875 
L 391.874255 260.521875 
L 391.874255 209.656671 
L 383.494138 209.656671 
z
" clip-path="url(#p2f96492a6d)" style="fill: #ff7f0e; opacity: 0.4"/>
   </g>
   <g id="patch_96">
    <path d="M 391.874255 260.521875 
L 400.254371 260.521875 
L 400.254371 235.089273 
L 391.874255 235.089273 
z
" clip-path="url(#p2f96492a6d)" style="fill: #ff7f0e; opacity: 0.4"/>
   </g>
   <g id="patch_97">
    <path d="M 400.254371 260.521875 
L 408.634488 260.521875 
L 408.634488 209.656671 
L 400.254371 209.656671 
z
" clip-path="url(#p2f96492a6d)" style="fill: #ff7f0e; opacity: 0.4"/>
   </g>
   <g id="patch_98">
    <path d="M 408.634488 260.521875 
L 417.014605 260.521875 
L 417.014605 190.582219 
L 408.634488 190.582219 
z
" clip-path="url(#p2f96492a6d)" style="fill: #ff7f0e; opacity: 0.4"/>
   </g>
   <g id="patch_99">
    <path d="M 417.014605 260.521875 
L 425.394722 260.521875 
L 425.394722 171.507768 
L 417.014605 171.507768 
z
" clip-path="url(#p2f96492a6d)" style="fill: #ff7f0e; opacity: 0.4"/>
   </g>
   <g id="patch_100">
    <path d="M 425.394722 260.521875 
L 433.774838 260.521875 
L 433.774838 158.791467 
L 425.394722 158.791467 
z
" clip-path="url(#p2f96492a6d)" style="fill: #ff7f0e; opacity: 0.4"/>
   </g>
   <g id="patch_101">
    <path d="M 433.774838 260.521875 
L 442.154955 260.521875 
L 442.154955 133.358865 
L 433.774838 133.358865 
z
" clip-path="url(#p2f96492a6d)" style="fill: #ff7f0e; opacity: 0.4"/>
   </g>
   <g id="patch_102">
    <path d="M 442.154955 260.521875 
L 450.535072 260.521875 
L 450.535072 95.209962 
L 442.154955 95.209962 
z
" clip-path="url(#p2f96492a6d)" style="fill: #ff7f0e; opacity: 0.4"/>
   </g>
   <g id="patch_103">
    <path d="M 450.535072 260.521875 
L 458.915189 260.521875 
L 458.915189 76.13551 
L 450.535072 76.13551 
z
" clip-path="url(#p2f96492a6d)" style="fill: #ff7f0e; opacity: 0.4"/>
   </g>
   <g id="patch_104">
    <path d="M 458.915189 260.521875 
L 467.295305 260.521875 
L 467.295305 63.419209 
L 458.915189 63.419209 
z
" clip-path="url(#p2f96492a6d)" style="fill: #ff7f0e; opacity: 0.4"/>
   </g>
   <g id="patch_105">
    <path d="M 467.295305 260.521875 
L 475.675422 260.521875 
L 475.675422 152.433316 
L 467.295305 152.433316 
z
" clip-path="url(#p2f96492a6d)" style="fill: #ff7f0e; opacity: 0.4"/>
   </g>
   <g id="patch_106">
    <path d="M 475.675422 260.521875 
L 484.055539 260.521875 
L 484.055539 184.224069 
L 475.675422 184.224069 
z
" clip-path="url(#p2f96492a6d)" style="fill: #ff7f0e; opacity: 0.4"/>
   </g>
   <g id="patch_107">
    <path d="M 484.055539 260.521875 
L 492.435656 260.521875 
L 492.435656 196.94037 
L 484.055539 196.94037 
z
" clip-path="url(#p2f96492a6d)" style="fill: #ff7f0e; opacity: 0.4"/>
   </g>
   <g id="patch_108">
    <path d="M 492.435656 260.521875 
L 500.815772 260.521875 
L 500.815772 241.447423 
L 492.435656 241.447423 
z
" clip-path="url(#p2f96492a6d)" style="fill: #ff7f0e; opacity: 0.4"/>
   </g>
   <g id="patch_109">
    <path d="M 500.815772 260.521875 
L 509.195889 260.521875 
L 509.195889 228.731122 
L 500.815772 228.731122 
z
" clip-path="url(#p2f96492a6d)" style="fill: #ff7f0e; opacity: 0.4"/>
   </g>
   <g id="patch_110">
    <path d="M 509.195889 260.521875 
L 517.576006 260.521875 
L 517.576006 254.163724 
L 509.195889 254.163724 
z
" clip-path="url(#p2f96492a6d)" style="fill: #ff7f0e; opacity: 0.4"/>
   </g>
   <g id="patch_111">
    <path d="M 517.576006 260.521875 
L 525.956123 260.521875 
L 525.956123 254.163724 
L 517.576006 254.163724 
z
" clip-path="url(#p2f96492a6d)" style="fill: #ff7f0e; opacity: 0.4"/>
   </g>
   <g id="patch_112">
    <path d="M 359.85193 260.521875 
L 367.364851 260.521875 
L 367.364851 253.365928 
L 359.85193 253.365928 
z
" clip-path="url(#p2f96492a6d)" style="fill: #2ca02c; opacity: 0.4"/>
   </g>
   <g id="patch_113">
    <path d="M 367.364851 260.521875 
L 374.877771 260.521875 
L 374.877771 253.365928 
L 367.364851 253.365928 
z
" clip-path="url(#p2f96492a6d)" style="fill: #2ca02c; opacity: 0.4"/>
   </g>
   <g id="patch_114">
    <path d="M 374.877771 260.521875 
L 382.390692 260.521875 
L 382.390692 239.054034 
L 374.877771 239.054034 
z
" clip-path="url(#p2f96492a6d)" style="fill: #2ca02c; opacity: 0.4"/>
   </g>
   <g id="patch_115">
    <path d="M 382.390692 260.521875 
L 389.903612 260.521875 
L 389.903612 253.365928 
L 382.390692 253.365928 
z
" clip-path="url(#p2f96492a6d)" style="fill: #2ca02c; opacity: 0.4"/>
   </g>
   <g id="patch_116">
    <path d="M 389.903612 260.521875 
L 397.416533 260.521875 
L 397.416533 231.898086 
L 389.903612 231.898086 
z
" clip-path="url(#p2f96492a6d)" style="fill: #2ca02c; opacity: 0.4"/>
   </g>
   <g id="patch_117">
    <path d="M 397.416533 260.521875 
L 404.929453 260.521875 
L 404.929453 217.586192 
L 397.416533 217.586192 
z
" clip-path="url(#p2f96492a6d)" style="fill: #2ca02c; opacity: 0.4"/>
   </g>
   <g id="patch_118">
    <path d="M 404.929453 260.521875 
L 412.442374 260.521875 
L 412.442374 217.586192 
L 404.929453 217.586192 
z
" clip-path="url(#p2f96492a6d)" style="fill: #2ca02c; opacity: 0.4"/>
   </g>
   <g id="patch_119">
    <path d="M 412.442374 260.521875 
L 419.955294 260.521875 
L 419.955294 160.338615 
L 412.442374 160.338615 
z
" clip-path="url(#p2f96492a6d)" style="fill: #2ca02c; opacity: 0.4"/>
   </g>
   <g id="patch_120">
    <path d="M 419.955294 260.521875 
L 427.468215 260.521875 
L 427.468215 138.870774 
L 419.955294 138.870774 
z
" clip-path="url(#p2f96492a6d)" style="fill: #2ca02c; opacity: 0.4"/>
   </g>
   <g id="patch_121">
    <path d="M 427.468215 260.521875 
L 434.981135 260.521875 
L 434.981135 167.494562 
L 427.468215 167.494562 
z
" clip-path="url(#p2f96492a6d)" style="fill: #2ca02c; opacity: 0.4"/>
   </g>
   <g id="patch_122">
    <path d="M 434.981135 260.521875 
L 442.494056 260.521875 
L 442.494056 124.558879 
L 434.981135 124.558879 
z
" clip-path="url(#p2f96492a6d)" style="fill: #2ca02c; opacity: 0.4"/>
   </g>
   <g id="patch_123">
    <path d="M 442.494056 260.521875 
L 450.006976 260.521875 
L 450.006976 81.623197 
L 442.494056 81.623197 
z
" clip-path="url(#p2f96492a6d)" style="fill: #2ca02c; opacity: 0.4"/>
   </g>
   <g id="patch_124">
    <path d="M 450.006976 260.521875 
L 457.519897 260.521875 
L 457.519897 81.623197 
L 450.006976 81.623197 
z
" clip-path="url(#p2f96492a6d)" style="fill: #2ca02c; opacity: 0.4"/>
   </g>
   <g id="patch_125">
    <path d="M 457.519897 260.521875 
L 465.032817 260.521875 
L 465.032817 74.467249 
L 457.519897 74.467249 
z
" clip-path="url(#p2f96492a6d)" style="fill: #2ca02c; opacity: 0.4"/>
   </g>
   <g id="patch_126">
    <path d="M 465.032817 260.521875 
L 472.545738 260.521875 
L 472.545738 160.338615 
L 465.032817 160.338615 
z
" clip-path="url(#p2f96492a6d)" style="fill: #2ca02c; opacity: 0.4"/>
   </g>
   <g id="patch_127">
    <path d="M 472.545738 260.521875 
L 480.058658 260.521875 
L 480.058658 103.091038 
L 472.545738 103.091038 
z
" clip-path="url(#p2f96492a6d)" style="fill: #2ca02c; opacity: 0.4"/>
   </g>
   <g id="patch_128">
    <path d="M 480.058658 260.521875 
L 487.571579 260.521875 
L 487.571579 174.650509 
L 480.058658 174.650509 
z
" clip-path="url(#p2f96492a6d)" style="fill: #2ca02c; opacity: 0.4"/>
   </g>
   <g id="patch_129">
    <path d="M 487.571579 260.521875 
L 495.084499 260.521875 
L 495.084499 231.898086 
L 487.571579 231.898086 
z
" clip-path="url(#p2f96492a6d)" style="fill: #2ca02c; opacity: 0.4"/>
   </g>
   <g id="patch_130">
    <path d="M 495.084499 260.521875 
L 502.59742 260.521875 
L 502.59742 224.742139 
L 495.084499 224.742139 
z
" clip-path="url(#p2f96492a6d)" style="fill: #2ca02c; opacity: 0.4"/>
   </g>
   <g id="patch_131">
    <path d="M 502.59742 260.521875 
L 510.11034 260.521875 
L 510.11034 231.898086 
L 502.59742 231.898086 
z
" clip-path="url(#p2f96492a6d)" style="fill: #2ca02c; opacity: 0.4"/>
   </g>
   <g id="matplotlib.axis_3">
    <g id="xtick_6">
     <g id="line2d_15">
      <g>
       <use xlink:href="#mb092235ffe" x="373.102965" y="260.521875" style="stroke: #000000; stroke-width: 0.8"/>
      </g>
     </g>
     <g id="text_17">
      <!-- 4 -->
      <g transform="translate(369.921715 275.120313) scale(0.1 -0.1)">
       <use xlink:href="#DejaVuSans-34"/>
      </g>
     </g>
    </g>
    <g id="xtick_7">
     <g id="line2d_16">
      <g>
       <use xlink:href="#mb092235ffe" x="433.605968" y="260.521875" style="stroke: #000000; stroke-width: 0.8"/>
      </g>
     </g>
     <g id="text_18">
      <!-- 6 -->
      <g transform="translate(430.424718 275.120313) scale(0.1 -0.1)">
       <use xlink:href="#DejaVuSans-36"/>
      </g>
     </g>
    </g>
    <g id="xtick_8">
     <g id="line2d_17">
      <g>
       <use xlink:href="#mb092235ffe" x="494.108971" y="260.521875" style="stroke: #000000; stroke-width: 0.8"/>
      </g>
     </g>
     <g id="text_19">
      <!-- 8 -->
      <g transform="translate(490.927721 275.120313) scale(0.1 -0.1)">
       <use xlink:href="#DejaVuSans-38"/>
      </g>
     </g>
    </g>
    <g id="xtick_9">
     <g id="line2d_18">
      <g>
       <use xlink:href="#mb092235ffe" x="554.611974" y="260.521875" style="stroke: #000000; stroke-width: 0.8"/>
      </g>
     </g>
     <g id="text_20">
      <!-- 10 -->
      <g transform="translate(548.249474 275.120313) scale(0.1 -0.1)">
       <use xlink:href="#DejaVuSans-31"/>
       <use xlink:href="#DejaVuSans-30" x="63.623047"/>
      </g>
     </g>
    </g>
   </g>
   <g id="matplotlib.axis_4">
    <g id="ytick_7">
     <g id="line2d_19">
      <g>
       <use xlink:href="#m5ffaabad7c" x="332.263437" y="260.521875" style="stroke: #000000; stroke-width: 0.8"/>
      </g>
     </g>
     <g id="text_21">
      <!-- 0.0 -->
      <g transform="translate(309.360312 264.321094) scale(0.1 -0.1)">
       <use xlink:href="#DejaVuSans-30"/>
       <use xlink:href="#DejaVuSans-2e" x="63.623047"/>
       <use xlink:href="#DejaVuSans-30" x="95.410156"/>
      </g>
     </g>
    </g>
    <g id="ytick_8">
     <g id="line2d_20">
      <g>
       <use xlink:href="#m5ffaabad7c" x="332.263437" y="221.0687" style="stroke: #000000; stroke-width: 0.8"/>
      </g>
     </g>
     <g id="text_22">
      <!-- 0.1 -->
      <g transform="translate(309.360312 224.867919) scale(0.1 -0.1)">
       <use xlink:href="#DejaVuSans-30"/>
       <use xlink:href="#DejaVuSans-2e" x="63.623047"/>
       <use xlink:href="#DejaVuSans-31" x="95.410156"/>
      </g>
     </g>
    </g>
    <g id="ytick_9">
     <g id="line2d_21">
      <g>
       <use xlink:href="#m5ffaabad7c" x="332.263437" y="181.615526" style="stroke: #000000; stroke-width: 0.8"/>
      </g>
     </g>
     <g id="text_23">
      <!-- 0.2 -->
      <g transform="translate(309.360312 185.414745) scale(0.1 -0.1)">
       <use xlink:href="#DejaVuSans-30"/>
       <use xlink:href="#DejaVuSans-2e" x="63.623047"/>
       <use xlink:href="#DejaVuSans-32" x="95.410156"/>
      </g>
     </g>
    </g>
    <g id="ytick_10">
     <g id="line2d_22">
      <g>
       <use xlink:href="#m5ffaabad7c" x="332.263437" y="142.162351" style="stroke: #000000; stroke-width: 0.8"/>
      </g>
     </g>
     <g id="text_24">
      <!-- 0.3 -->
      <g transform="translate(309.360312 145.96157) scale(0.1 -0.1)">
       <use xlink:href="#DejaVuSans-30"/>
       <use xlink:href="#DejaVuSans-2e" x="63.623047"/>
       <use xlink:href="#DejaVuSans-33" x="95.410156"/>
      </g>
     </g>
    </g>
    <g id="ytick_11">
     <g id="line2d_23">
      <g>
       <use xlink:href="#m5ffaabad7c" x="332.263437" y="102.709177" style="stroke: #000000; stroke-width: 0.8"/>
      </g>
     </g>
     <g id="text_25">
      <!-- 0.4 -->
      <g transform="translate(309.360312 106.508395) scale(0.1 -0.1)">
       <use xlink:href="#DejaVuSans-30"/>
       <use xlink:href="#DejaVuSans-2e" x="63.623047"/>
       <use xlink:href="#DejaVuSans-34" x="95.410156"/>
      </g>
     </g>
    </g>
    <g id="ytick_12">
     <g id="line2d_24">
      <g>
       <use xlink:href="#m5ffaabad7c" x="332.263437" y="63.256002" style="stroke: #000000; stroke-width: 0.8"/>
      </g>
     </g>
     <g id="text_26">
      <!-- 0.5 -->
      <g transform="translate(309.360312 67.055221) scale(0.1 -0.1)">
       <use xlink:href="#DejaVuSans-30"/>
       <use xlink:href="#DejaVuSans-2e" x="63.623047"/>
       <use xlink:href="#DejaVuSans-35" x="95.410156"/>
      </g>
     </g>
    </g>
    <g id="text_27">
     <!-- Fraction of cells -->
     <g transform="translate(302.44875 198.051875) rotate(-90) scale(0.14 -0.14)">
      <use xlink:href="#DejaVuSans-46"/>
      <use xlink:href="#DejaVuSans-72" x="50.269531"/>
      <use xlink:href="#DejaVuSans-61" x="91.382812"/>
      <use xlink:href="#DejaVuSans-63" x="152.662109"/>
      <use xlink:href="#DejaVuSans-74" x="207.642578"/>
      <use xlink:href="#DejaVuSans-69" x="246.851562"/>
      <use xlink:href="#DejaVuSans-6f" x="274.634766"/>
      <use xlink:href="#DejaVuSans-6e" x="335.816406"/>
      <use xlink:href="#DejaVuSans-20" x="399.195312"/>
      <use xlink:href="#DejaVuSans-6f" x="430.982422"/>
      <use xlink:href="#DejaVuSans-66" x="492.164062"/>
      <use xlink:href="#DejaVuSans-20" x="527.369141"/>
      <use xlink:href="#DejaVuSans-63" x="559.15625"/>
      <use xlink:href="#DejaVuSans-65" x="614.136719"/>
      <use xlink:href="#DejaVuSans-6c" x="675.660156"/>
      <use xlink:href="#DejaVuSans-6c" x="703.443359"/>
      <use xlink:href="#DejaVuSans-73" x="731.226562"/>
     </g>
    </g>
   </g>
   <g id="line2d_25">
    <path d="M 342.851463 259.878954 
L 345.817593 259.328679 
L 348.783724 258.545121 
L 353.656652 256.968315 
L 356.834648 256.067803 
L 359.271113 255.613568 
L 361.707577 255.39692 
L 369.122902 254.963354 
L 370.711901 254.523156 
L 372.194966 253.89484 
L 373.678031 253.034911 
L 375.267029 251.851551 
L 376.961961 250.305766 
L 378.868759 248.258962 
L 381.093356 245.534852 
L 383.635754 242.067336 
L 386.284084 238.081847 
L 388.720548 234.020423 
L 391.051079 229.698724 
L 393.38161 224.898591 
L 395.924007 219.128596 
L 398.890138 211.80993 
L 402.703734 201.762098 
L 416.580986 164.58892 
L 419.758982 156.122105 
L 421.877647 149.829622 
L 423.784445 143.430309 
L 425.58531 136.607559 
L 427.598041 128.052671 
L 429.928572 117.087351 
L 437.449831 80.721859 
L 439.038829 74.565062 
L 440.415961 70.083595 
L 441.581226 66.992353 
L 442.640558 64.775386 
L 443.593957 63.275128 
L 444.441423 62.335238 
L 445.182956 61.811957 
L 445.924488 61.560533 
L 446.666021 61.571714 
L 447.407553 61.834709 
L 448.149086 62.337871 
L 448.996552 63.191862 
L 449.949951 64.488364 
L 451.009283 66.321888 
L 452.174548 68.792414 
L 453.445747 72.012035 
L 454.822879 76.114451 
L 456.305944 81.262771 
L 457.894942 87.647095 
L 459.589874 95.461047 
L 461.390739 104.849602 
L 463.509403 117.105482 
L 466.899266 138.249772 
L 470.500996 160.274493 
L 472.725594 172.520336 
L 474.738325 182.371831 
L 476.645123 190.610203 
L 478.551921 197.893162 
L 480.564652 204.737967 
L 482.895183 211.867965 
L 485.649447 219.552646 
L 488.615577 227.188635 
L 491.369841 233.704725 
L 493.806305 238.914831 
L 495.924969 242.946562 
L 497.937701 246.308262 
L 499.844499 249.063679 
L 501.645363 251.292649 
L 503.446228 253.179136 
L 505.247093 254.747676 
L 507.047958 256.023076 
L 508.848822 257.028078 
L 510.649687 257.783235 
L 512.556485 258.33281 
L 514.463283 258.651403 
L 516.581948 258.774872 
L 519.124345 258.68291 
L 528.764268 258.068298 
L 531.518532 258.279655 
L 535.014328 258.791766 
L 542.535587 259.956892 
L 546.455116 260.289517 
L 551.328045 260.464383 
L 554.611974 260.503187 
L 554.611974 260.503187 
" clip-path="url(#p2f96492a6d)" style="fill: none; stroke: #1f77b4; stroke-width: 1.5; stroke-linecap: square"/>
   </g>
   <g id="line2d_26">
    <path d="M 342.851463 258.882949 
L 345.499794 258.06133 
L 348.254057 256.968869 
L 351.220188 255.544222 
L 354.821917 253.550073 
L 359.694845 250.579944 
L 364.567774 247.370147 
L 368.06357 244.813922 
L 371.241567 242.21837 
L 374.843296 238.96988 
L 384.906952 229.682387 
L 392.957877 222.671824 
L 395.288408 220.226979 
L 397.513006 217.562363 
L 399.843537 214.402659 
L 402.385934 210.56554 
L 405.563931 205.340063 
L 410.013126 197.560148 
L 414.356388 189.560962 
L 417.534385 183.260502 
L 420.288649 177.298335 
L 422.831046 171.266883 
L 425.479376 164.393519 
L 428.339573 156.319468 
L 431.729437 146.049367 
L 441.793093 115.047917 
L 444.123624 108.823865 
L 446.030422 104.311781 
L 447.725353 100.84963 
L 449.208418 98.319521 
L 450.479617 96.571464 
L 451.644882 95.344962 
L 452.598281 94.629285 
L 453.55168 94.188027 
L 454.399146 94.036541 
L 455.246612 94.11973 
L 456.094078 94.44391 
L 456.941543 95.013753 
L 457.894942 95.9519 
L 458.848341 97.205379 
L 459.907674 98.964643 
L 461.072939 101.3347 
L 462.344138 104.416494 
L 463.827203 108.617204 
L 465.522134 114.120037 
L 467.534866 121.438802 
L 470.289129 132.371122 
L 478.551921 165.714088 
L 481.623984 176.869124 
L 484.696048 187.167292 
L 487.874044 197.029634 
L 491.052041 206.186674 
L 494.124105 214.38959 
L 496.984302 221.423453 
L 499.738565 227.612673 
L 502.280963 232.799778 
L 504.717427 237.291239 
L 507.047958 241.145024 
L 509.272555 244.414665 
L 511.39122 247.150864 
L 513.403951 249.405691 
L 515.416682 251.328474 
L 517.32348 252.856262 
L 519.336211 254.183329 
L 521.454876 255.30306 
L 523.679474 256.228642 
L 526.327804 257.082344 
L 529.717667 257.922095 
L 534.272796 258.806267 
L 539.35759 259.570854 
L 544.124585 260.060556 
L 549.20938 260.348821 
L 554.611974 260.474307 
L 554.611974 260.474307 
" clip-path="url(#p2f96492a6d)" style="fill: none; stroke: #ff7f0e; stroke-width: 1.5; stroke-linecap: square"/>
   </g>
   <g id="line2d_27">
    <path d="M 342.851463 260.03947 
L 346.770992 259.560119 
L 350.584588 258.865575 
L 354.504118 257.919819 
L 358.317714 256.769283 
L 361.707577 255.51378 
L 364.77964 254.13942 
L 367.957637 252.463638 
L 371.559366 250.299215 
L 376.326361 247.159132 
L 380.775557 243.981409 
L 383.953553 241.44307 
L 386.601884 239.050473 
L 389.038348 236.558088 
L 391.368879 233.860505 
L 393.593477 230.951213 
L 395.712141 227.827751 
L 397.830805 224.306465 
L 399.94947 220.331853 
L 402.068134 215.855337 
L 404.186799 210.849005 
L 406.51733 204.741589 
L 409.16566 197.144343 
L 413.508922 183.864535 
L 417.216585 172.80604 
L 419.758982 165.891977 
L 422.195447 159.914152 
L 424.843777 154.025458 
L 431.623503 139.294766 
L 433.954034 133.459317 
L 436.390498 126.729699 
L 439.674428 116.924326 
L 443.699891 105.001543 
L 445.712622 99.748103 
L 447.30162 96.213806 
L 448.572819 93.883789 
L 449.738084 92.198313 
L 450.691483 91.171159 
L 451.538949 90.540691 
L 452.386415 90.186539 
L 453.127947 90.108396 
L 453.86948 90.248576 
L 454.611013 90.606591 
L 455.458478 91.278654 
L 456.411877 92.359814 
L 457.47121 93.943565 
L 458.636475 96.112075 
L 460.013607 99.177094 
L 461.708538 103.546534 
L 463.933136 109.947882 
L 473.784926 139.747954 
L 476.751056 149.18368 
L 479.18752 157.676434 
L 481.729917 167.367773 
L 485.119781 181.258693 
L 489.886776 200.697625 
L 492.217307 209.267475 
L 494.230038 215.885454 
L 496.136836 221.415539 
L 497.937701 225.978953 
L 499.738565 229.944383 
L 501.53943 233.381731 
L 503.446228 236.541632 
L 505.564893 239.603984 
L 508.001357 242.716109 
L 511.07342 246.254099 
L 514.569216 249.940783 
L 517.535347 252.767443 
L 519.971811 254.800699 
L 522.196408 256.371767 
L 524.315073 257.589283 
L 526.327804 258.494862 
L 528.446469 259.205671 
L 530.776999 259.745145 
L 533.42533 260.123408 
L 536.815193 260.369615 
L 542.005921 260.494364 
L 554.611974 260.521747 
L 554.611974 260.521747 
" clip-path="url(#p2f96492a6d)" style="fill: none; stroke: #2ca02c; stroke-width: 1.5; stroke-linecap: square"/>
   </g>
   <g id="patch_132">
    <path d="M 332.263437 260.521875 
L 332.263437 25.918125 
" style="fill: none; stroke: #000000; stroke-width: 0.8; stroke-linejoin: miter; stroke-linecap: square"/>
   </g>
   <g id="patch_133">
    <path d="M 565.2 260.521875 
L 565.2 25.918125 
" style="fill: none; stroke: #000000; stroke-width: 0.8; stroke-linejoin: miter; stroke-linecap: square"/>
   </g>
   <g id="patch_134">
    <path d="M 332.263437 260.521875 
L 565.2 260.521875 
" style="fill: none; stroke: #000000; stroke-width: 0.8; stroke-linejoin: miter; stroke-linecap: square"/>
   </g>
   <g id="patch_135">
    <path d="M 332.263437 25.918125 
L 565.2 25.918125 
" style="fill: none; stroke: #000000; stroke-width: 0.8; stroke-linejoin: miter; stroke-linecap: square"/>
   </g>
   <g id="text_28">
    <!-- Linear -->
    <g transform="translate(430.083906 19.918125) scale(0.12 -0.12)">
     <defs>
      <path id="DejaVuSans-4c" d="M 628 4666 
L 1259 4666 
L 1259 531 
L 3531 531 
L 3531 0 
L 628 0 
L 628 4666 
z
" transform="scale(0.015625)"/>
     </defs>
     <use xlink:href="#DejaVuSans-4c"/>
     <use xlink:href="#DejaVuSans-69" x="55.712891"/>
     <use xlink:href="#DejaVuSans-6e" x="83.496094"/>
     <use xlink:href="#DejaVuSans-65" x="146.875"/>
     <use xlink:href="#DejaVuSans-61" x="208.398438"/>
     <use xlink:href="#DejaVuSans-72" x="269.677734"/>
    </g>
   </g>
   <g id="legend_2">
    <g id="patch_136">
     <path d="M 437.315625 88.693125 
L 556.8 88.693125 
Q 559.2 88.693125 559.2 86.293125 
L 559.2 34.318125 
Q 559.2 31.918125 556.8 31.918125 
L 437.315625 31.918125 
Q 434.915625 31.918125 434.915625 34.318125 
L 434.915625 86.293125 
Q 434.915625 88.693125 437.315625 88.693125 
z
" style="fill: #ffffff; opacity: 0.8; stroke: #cccccc; stroke-linejoin: miter"/>
    </g>
    <g id="patch_137">
     <path d="M 439.715625 45.83625 
L 463.715625 45.83625 
L 463.715625 37.43625 
L 439.715625 37.43625 
z
" style="fill: #1f77b4; opacity: 0.4"/>
    </g>
    <g id="text_29">
     <!-- MCF10A -->
     <g transform="translate(473.315625 45.83625) scale(0.12 -0.12)">
      <use xlink:href="#DejaVuSans-4d"/>
      <use xlink:href="#DejaVuSans-43" x="86.279297"/>
      <use xlink:href="#DejaVuSans-46" x="156.103516"/>
      <use xlink:href="#DejaVuSans-31" x="213.623047"/>
      <use xlink:href="#DejaVuSans-30" x="277.246094"/>
      <use xlink:href="#DejaVuSans-41" x="340.869141"/>
     </g>
    </g>
    <g id="patch_138">
     <path d="M 439.715625 63.45 
L 463.715625 63.45 
L 463.715625 55.05 
L 439.715625 55.05 
z
" style="fill: #ff7f0e; opacity: 0.4"/>
    </g>
    <g id="text_30">
     <!-- MCF7 -->
     <g transform="translate(473.315625 63.45) scale(0.12 -0.12)">
      <use xlink:href="#DejaVuSans-4d"/>
      <use xlink:href="#DejaVuSans-43" x="86.279297"/>
      <use xlink:href="#DejaVuSans-46" x="156.103516"/>
      <use xlink:href="#DejaVuSans-37" x="213.623047"/>
     </g>
    </g>
    <g id="patch_139">
     <path d="M 439.715625 81.06375 
L 463.715625 81.06375 
L 463.715625 72.66375 
L 439.715625 72.66375 
z
" style="fill: #2ca02c; opacity: 0.4"/>
    </g>
    <g id="text_31">
     <!-- MDA_MB_231 -->
     <g transform="translate(473.315625 81.06375) scale(0.12 -0.12)">
      <use xlink:href="#DejaVuSans-4d"/>
      <use xlink:href="#DejaVuSans-44" x="86.279297"/>
      <use xlink:href="#DejaVuSans-41" x="161.53125"/>
      <use xlink:href="#DejaVuSans-5f" x="229.939453"/>
      <use xlink:href="#DejaVuSans-4d" x="279.939453"/>
      <use xlink:href="#DejaVuSans-42" x="366.21875"/>
      <use xlink:href="#DejaVuSans-5f" x="434.822266"/>
      <use xlink:href="#DejaVuSans-32" x="484.822266"/>
      <use xlink:href="#DejaVuSans-33" x="548.445312"/>
      <use xlink:href="#DejaVuSans-31" x="612.068359"/>
     </g>
    </g>
   </g>
  </g>
 </g>
 <defs>
  <clipPath id="pf5145ec6a6">
   <rect x="48.074375" y="25.918125" width="232.936562" height="234.60375"/>
  </clipPath>
  <clipPath id="p2f96492a6d">
   <rect x="332.263437" y="25.918125" width="232.936562" height="234.60375"/>
  </clipPath>
 </defs>
</svg>
