<?xml version="1.0" encoding="utf-8" standalone="no"?>
<!DOCTYPE svg PUBLIC "-//W3C//DTD SVG 1.1//EN"
  "http://www.w3.org/Graphics/SVG/1.1/DTD/svg11.dtd">
<svg xmlns:xlink="http://www.w3.org/1999/xlink" width="1080pt" height="360pt" viewBox="0 0 1080 360" xmlns="http://www.w3.org/2000/svg" version="1.1">
 <metadata>
  <rdf:RDF xmlns:dc="http://purl.org/dc/elements/1.1/" xmlns:cc="http://creativecommons.org/ns#" xmlns:rdf="http://www.w3.org/1999/02/22-rdf-syntax-ns#">
   <cc:Work>
    <dc:type rdf:resource="http://purl.org/dc/dcmitype/StillImage"/>
    <dc:date>2023-12-25T07:57:34.644145</dc:date>
    <dc:format>image/svg+xml</dc:format>
    <dc:creator>
     <cc:Agent>
      <dc:title>Matplotlib v3.6.2, https://matplotlib.org/</dc:title>
     </cc:Agent>
    </dc:creator>
   </cc:Work>
  </rdf:RDF>
 </metadata>
 <defs>
  <style type="text/css">*{stroke-linejoin: round; stroke-linecap: butt}</style>
 </defs>
 <g id="figure_1">
  <g id="patch_1">
   <path d="M 0 360 
L 1080 360 
L 1080 0 
L 0 0 
z
" style="fill: #ffffff"/>
  </g>
  <g id="axes_1">
   <g id="line2d_1">
    <path d="M 181.933155 307.8 
L 179.462567 305.329412 
L 179.462567 297.917647 
L 176.991979 295.447059 
L 176.991979 285.564706 
L 174.52139 283.094118 
L 174.52139 280.623529 
L 172.050802 278.152941 
L 172.050802 275.682353 
L 181.933155 265.8 
L 181.933155 263.329412 
L 184.403743 260.858824 
L 184.403743 253.447059 
L 189.34492 248.505882 
L 189.34492 246.035294 
L 199.227273 236.152941 
L 199.227273 233.682353 
L 201.697861 231.211765 
L 201.697861 221.329412 
L 204.168449 218.858824 
L 204.168449 213.917647 
L 201.697861 211.447059 
L 201.697861 208.976471 
L 204.168449 208.976471 
L 206.639037 206.505882 
L 209.109626 206.505882 
L 214.050802 201.564706 
L 214.050802 199.094118 
L 216.52139 199.094118 
L 218.991979 196.623529 
L 221.462567 196.623529 
L 228.874332 189.211765 
L 228.874332 186.741176 
L 231.34492 184.270588 
L 231.34492 179.329412 
L 238.756684 171.917647 
L 238.756684 166.976471 
L 256.050802 149.682353 
L 256.050802 142.270588 
L 263.462567 134.858824 
L 263.462567 127.447059 
L 260.991979 124.976471 
L 260.991979 120.035294 
L 263.462567 117.564706 
L 273.34492 117.564706 
L 275.815508 115.094118 
L 278.286096 115.094118 
L 280.756684 112.623529 
L 285.697861 112.623529 
L 288.168449 110.152941 
L 302.991979 110.152941 
L 305.462567 107.682353 
L 310.403743 107.682353 
L 312.874332 105.211765 
L 325.227273 105.211765 
L 327.697861 102.741176 
L 337.580214 102.741176 
L 340.050802 100.270588 
L 344.991979 100.270588 
L 347.462567 97.8 
L 374.639037 97.8 
L 379.580214 92.858824 
L 389.462567 92.858824 
L 391.933155 90.388235 
L 396.874332 90.388235 
L 399.34492 87.917647 
L 404.286096 87.917647 
L 406.756684 85.447059 
L 411.697861 85.447059 
L 414.168449 82.976471 
L 416.639037 82.976471 
L 419.109626 80.505882 
L 424.050802 80.505882 
L 426.52139 78.035294 
L 428.991979 78.035294 
L 431.462567 75.564706 
L 433.933155 75.564706 
L 438.874332 70.623529 
L 441.34492 70.623529 
L 443.815508 68.152941 
L 446.286096 68.152941 
L 453.697861 60.741176 
L 453.697861 58.270588 
L 456.168449 55.8 
L 458.639037 55.8 
L 461.109626 58.270588 
L 463.580214 58.270588 
L 468.52139 63.211765 
L 470.991979 63.211765 
L 473.462567 65.682353 
L 478.403743 65.682353 
L 478.403743 68.152941 
L 473.462567 68.152941 
L 470.991979 70.623529 
L 466.050802 70.623529 
L 461.109626 75.564706 
L 461.109626 78.035294 
L 458.639037 80.505882 
L 458.639037 82.976471 
L 446.286096 95.329412 
L 446.286096 100.270588 
L 456.168449 110.152941 
L 466.050802 110.152941 
L 468.52139 112.623529 
L 473.462567 112.623529 
L 475.933155 115.094118 
L 478.403743 115.094118 
L 478.403743 117.564706 
L 475.933155 117.564706 
L 470.991979 122.505882 
L 461.109626 122.505882 
L 458.639037 124.976471 
L 453.697861 124.976471 
L 451.227273 127.447059 
L 448.756684 127.447059 
L 446.286096 124.976471 
L 436.403743 124.976471 
L 433.933155 127.447059 
L 431.462567 127.447059 
L 428.991979 129.917647 
L 428.991979 134.858824 
L 433.933155 139.8 
L 438.874332 139.8 
L 446.286096 147.211765 
L 448.756684 147.211765 
L 448.756684 149.682353 
L 441.34492 149.682353 
L 438.874332 152.152941 
L 438.874332 154.623529 
L 443.815508 159.564706 
L 443.815508 162.035294 
L 451.227273 169.447059 
L 453.697861 169.447059 
L 470.991979 186.741176 
L 468.52139 189.211765 
L 463.580214 184.270588 
L 461.109626 184.270588 
L 456.168449 179.329412 
L 451.227273 179.329412 
L 443.815508 171.917647 
L 441.34492 171.917647 
L 436.403743 176.858824 
L 436.403743 186.741176 
L 438.874332 189.211765 
L 438.874332 191.682353 
L 446.286096 199.094118 
L 448.756684 199.094118 
L 453.697861 204.035294 
L 456.168449 204.035294 
L 458.639037 206.505882 
L 456.168449 208.976471 
L 453.697861 206.505882 
L 451.227273 206.505882 
L 441.34492 196.623529 
L 438.874332 196.623529 
L 431.462567 189.211765 
L 428.991979 189.211765 
L 426.52139 186.741176 
L 416.639037 186.741176 
L 414.168449 184.270588 
L 411.697861 184.270588 
L 409.227273 181.8 
L 404.286096 181.8 
L 401.815508 184.270588 
L 401.815508 191.682353 
L 404.286096 194.152941 
L 404.286096 196.623529 
L 414.168449 206.505882 
L 419.109626 206.505882 
L 421.580214 208.976471 
L 424.050802 208.976471 
L 426.52139 211.447059 
L 431.462567 211.447059 
L 431.462567 213.917647 
L 428.991979 213.917647 
L 426.52139 211.447059 
L 421.580214 211.447059 
L 419.109626 208.976471 
L 414.168449 208.976471 
L 411.697861 206.505882 
L 409.227273 206.505882 
L 406.756684 204.035294 
L 401.815508 204.035294 
L 396.874332 199.094118 
L 391.933155 199.094118 
L 389.462567 201.564706 
L 379.580214 201.564706 
L 374.639037 206.505882 
L 377.109626 208.976471 
L 379.580214 208.976471 
L 379.580214 211.447059 
L 386.991979 218.858824 
L 389.462567 218.858824 
L 391.933155 221.329412 
L 394.403743 221.329412 
L 396.874332 223.8 
L 396.874332 226.270588 
L 399.34492 228.741176 
L 401.815508 228.741176 
L 401.815508 231.211765 
L 406.756684 236.152941 
L 409.227273 236.152941 
L 411.697861 238.623529 
L 421.580214 238.623529 
L 426.52139 233.682353 
L 433.933155 241.094118 
L 411.697861 241.094118 
L 409.227273 238.623529 
L 404.286096 238.623529 
L 401.815508 236.152941 
L 399.34492 236.152941 
L 396.874332 233.682353 
L 394.403743 233.682353 
L 391.933155 231.211765 
L 389.462567 231.211765 
L 386.991979 228.741176 
L 384.52139 228.741176 
L 382.050802 231.211765 
L 377.109626 231.211765 
L 372.168449 226.270588 
L 369.697861 226.270588 
L 367.227273 223.8 
L 362.286096 223.8 
L 359.815508 226.270588 
L 359.815508 231.211765 
L 357.34492 233.682353 
L 357.34492 236.152941 
L 359.815508 238.623529 
L 362.286096 238.623529 
L 364.756684 241.094118 
L 364.756684 243.564706 
L 359.815508 243.564706 
L 357.34492 241.094118 
L 352.403743 241.094118 
L 349.933155 243.564706 
L 349.933155 246.035294 
L 347.462567 248.505882 
L 342.52139 243.564706 
L 335.109626 243.564706 
L 332.639037 246.035294 
L 332.639037 250.976471 
L 330.168449 248.505882 
L 327.697861 248.505882 
L 325.227273 246.035294 
L 320.286096 246.035294 
L 317.815508 248.505882 
L 315.34492 248.505882 
L 310.403743 253.447059 
L 302.991979 253.447059 
L 300.52139 250.976471 
L 295.580214 255.917647 
L 293.109626 255.917647 
L 290.639037 258.388235 
L 288.168449 258.388235 
L 285.697861 260.858824 
L 285.697861 265.8 
L 278.286096 265.8 
L 275.815508 263.329412 
L 270.874332 268.270588 
L 270.874332 275.682353 
L 265.933155 280.623529 
L 263.462567 280.623529 
L 260.991979 278.152941 
L 253.580214 278.152941 
L 248.639037 283.094118 
L 248.639037 285.564706 
L 246.168449 288.035294 
L 236.286096 288.035294 
L 233.815508 290.505882 
L 228.874332 290.505882 
L 226.403743 292.976471 
L 223.933155 292.976471 
L 218.991979 297.917647 
L 216.52139 297.917647 
L 214.050802 300.388235 
L 211.580214 300.388235 
L 209.109626 302.858824 
L 206.639037 302.858824 
L 204.168449 300.388235 
L 196.756684 300.388235 
L 191.815508 305.329412 
L 189.34492 305.329412 
L 186.874332 307.8 
L 186.874332 307.8 
" clip-path="url(#p4b91fef43b)" style="fill: none; stroke: #1f77b4; stroke-width: 1.5; stroke-linecap: square"/>
   </g>
   <g id="text_1">
    <!-- Original curve (283 points) -->
    <g transform="translate(244.654773 37.2) scale(0.12 -0.12)">
     <defs>
      <path id="DejaVuSans-4f" d="M 2522 4238 
Q 1834 4238 1429 3725 
Q 1025 3213 1025 2328 
Q 1025 1447 1429 934 
Q 1834 422 2522 422 
Q 3209 422 3611 934 
Q 4013 1447 4013 2328 
Q 4013 3213 3611 3725 
Q 3209 4238 2522 4238 
z
M 2522 4750 
Q 3503 4750 4090 4092 
Q 4678 3434 4678 2328 
Q 4678 1225 4090 567 
Q 3503 -91 2522 -91 
Q 1538 -91 948 565 
Q 359 1222 359 2328 
Q 359 3434 948 4092 
Q 1538 4750 2522 4750 
z
" transform="scale(0.015625)"/>
      <path id="DejaVuSans-72" d="M 2631 2963 
Q 2534 3019 2420 3045 
Q 2306 3072 2169 3072 
Q 1681 3072 1420 2755 
Q 1159 2438 1159 1844 
L 1159 0 
L 581 0 
L 581 3500 
L 1159 3500 
L 1159 2956 
Q 1341 3275 1631 3429 
Q 1922 3584 2338 3584 
Q 2397 3584 2469 3576 
Q 2541 3569 2628 3553 
L 2631 2963 
z
" transform="scale(0.015625)"/>
      <path id="DejaVuSans-69" d="M 603 3500 
L 1178 3500 
L 1178 0 
L 603 0 
L 603 3500 
z
M 603 4863 
L 1178 4863 
L 1178 4134 
L 603 4134 
L 603 4863 
z
" transform="scale(0.015625)"/>
      <path id="DejaVuSans-67" d="M 2906 1791 
Q 2906 2416 2648 2759 
Q 2391 3103 1925 3103 
Q 1463 3103 1205 2759 
Q 947 2416 947 1791 
Q 947 1169 1205 825 
Q 1463 481 1925 481 
Q 2391 481 2648 825 
Q 2906 1169 2906 1791 
z
M 3481 434 
Q 3481 -459 3084 -895 
Q 2688 -1331 1869 -1331 
Q 1566 -1331 1297 -1286 
Q 1028 -1241 775 -1147 
L 775 -588 
Q 1028 -725 1275 -790 
Q 1522 -856 1778 -856 
Q 2344 -856 2625 -561 
Q 2906 -266 2906 331 
L 2906 616 
Q 2728 306 2450 153 
Q 2172 0 1784 0 
Q 1141 0 747 490 
Q 353 981 353 1791 
Q 353 2603 747 3093 
Q 1141 3584 1784 3584 
Q 2172 3584 2450 3431 
Q 2728 3278 2906 2969 
L 2906 3500 
L 3481 3500 
L 3481 434 
z
" transform="scale(0.015625)"/>
      <path id="DejaVuSans-6e" d="M 3513 2113 
L 3513 0 
L 2938 0 
L 2938 2094 
Q 2938 2591 2744 2837 
Q 2550 3084 2163 3084 
Q 1697 3084 1428 2787 
Q 1159 2491 1159 1978 
L 1159 0 
L 581 0 
L 581 3500 
L 1159 3500 
L 1159 2956 
Q 1366 3272 1645 3428 
Q 1925 3584 2291 3584 
Q 2894 3584 3203 3211 
Q 3513 2838 3513 2113 
z
" transform="scale(0.015625)"/>
      <path id="DejaVuSans-61" d="M 2194 1759 
Q 1497 1759 1228 1600 
Q 959 1441 959 1056 
Q 959 750 1161 570 
Q 1363 391 1709 391 
Q 2188 391 2477 730 
Q 2766 1069 2766 1631 
L 2766 1759 
L 2194 1759 
z
M 3341 1997 
L 3341 0 
L 2766 0 
L 2766 531 
Q 2569 213 2275 61 
Q 1981 -91 1556 -91 
Q 1019 -91 701 211 
Q 384 513 384 1019 
Q 384 1609 779 1909 
Q 1175 2209 1959 2209 
L 2766 2209 
L 2766 2266 
Q 2766 2663 2505 2880 
Q 2244 3097 1772 3097 
Q 1472 3097 1187 3025 
Q 903 2953 641 2809 
L 641 3341 
Q 956 3463 1253 3523 
Q 1550 3584 1831 3584 
Q 2591 3584 2966 3190 
Q 3341 2797 3341 1997 
z
" transform="scale(0.015625)"/>
      <path id="DejaVuSans-6c" d="M 603 4863 
L 1178 4863 
L 1178 0 
L 603 0 
L 603 4863 
z
" transform="scale(0.015625)"/>
      <path id="DejaVuSans-20" transform="scale(0.015625)"/>
      <path id="DejaVuSans-63" d="M 3122 3366 
L 3122 2828 
Q 2878 2963 2633 3030 
Q 2388 3097 2138 3097 
Q 1578 3097 1268 2742 
Q 959 2388 959 1747 
Q 959 1106 1268 751 
Q 1578 397 2138 397 
Q 2388 397 2633 464 
Q 2878 531 3122 666 
L 3122 134 
Q 2881 22 2623 -34 
Q 2366 -91 2075 -91 
Q 1284 -91 818 406 
Q 353 903 353 1747 
Q 353 2603 823 3093 
Q 1294 3584 2113 3584 
Q 2378 3584 2631 3529 
Q 2884 3475 3122 3366 
z
" transform="scale(0.015625)"/>
      <path id="DejaVuSans-75" d="M 544 1381 
L 544 3500 
L 1119 3500 
L 1119 1403 
Q 1119 906 1312 657 
Q 1506 409 1894 409 
Q 2359 409 2629 706 
Q 2900 1003 2900 1516 
L 2900 3500 
L 3475 3500 
L 3475 0 
L 2900 0 
L 2900 538 
Q 2691 219 2414 64 
Q 2138 -91 1772 -91 
Q 1169 -91 856 284 
Q 544 659 544 1381 
z
M 1991 3584 
L 1991 3584 
z
" transform="scale(0.015625)"/>
      <path id="DejaVuSans-76" d="M 191 3500 
L 800 3500 
L 1894 563 
L 2988 3500 
L 3597 3500 
L 2284 0 
L 1503 0 
L 191 3500 
z
" transform="scale(0.015625)"/>
      <path id="DejaVuSans-65" d="M 3597 1894 
L 3597 1613 
L 953 1613 
Q 991 1019 1311 708 
Q 1631 397 2203 397 
Q 2534 397 2845 478 
Q 3156 559 3463 722 
L 3463 178 
Q 3153 47 2828 -22 
Q 2503 -91 2169 -91 
Q 1331 -91 842 396 
Q 353 884 353 1716 
Q 353 2575 817 3079 
Q 1281 3584 2069 3584 
Q 2775 3584 3186 3129 
Q 3597 2675 3597 1894 
z
M 3022 2063 
Q 3016 2534 2758 2815 
Q 2500 3097 2075 3097 
Q 1594 3097 1305 2825 
Q 1016 2553 972 2059 
L 3022 2063 
z
" transform="scale(0.015625)"/>
      <path id="DejaVuSans-28" d="M 1984 4856 
Q 1566 4138 1362 3434 
Q 1159 2731 1159 2009 
Q 1159 1288 1364 580 
Q 1569 -128 1984 -844 
L 1484 -844 
Q 1016 -109 783 600 
Q 550 1309 550 2009 
Q 550 2706 781 3412 
Q 1013 4119 1484 4856 
L 1984 4856 
z
" transform="scale(0.015625)"/>
      <path id="DejaVuSans-32" d="M 1228 531 
L 3431 531 
L 3431 0 
L 469 0 
L 469 531 
Q 828 903 1448 1529 
Q 2069 2156 2228 2338 
Q 2531 2678 2651 2914 
Q 2772 3150 2772 3378 
Q 2772 3750 2511 3984 
Q 2250 4219 1831 4219 
Q 1534 4219 1204 4116 
Q 875 4013 500 3803 
L 500 4441 
Q 881 4594 1212 4672 
Q 1544 4750 1819 4750 
Q 2544 4750 2975 4387 
Q 3406 4025 3406 3419 
Q 3406 3131 3298 2873 
Q 3191 2616 2906 2266 
Q 2828 2175 2409 1742 
Q 1991 1309 1228 531 
z
" transform="scale(0.015625)"/>
      <path id="DejaVuSans-38" d="M 2034 2216 
Q 1584 2216 1326 1975 
Q 1069 1734 1069 1313 
Q 1069 891 1326 650 
Q 1584 409 2034 409 
Q 2484 409 2743 651 
Q 3003 894 3003 1313 
Q 3003 1734 2745 1975 
Q 2488 2216 2034 2216 
z
M 1403 2484 
Q 997 2584 770 2862 
Q 544 3141 544 3541 
Q 544 4100 942 4425 
Q 1341 4750 2034 4750 
Q 2731 4750 3128 4425 
Q 3525 4100 3525 3541 
Q 3525 3141 3298 2862 
Q 3072 2584 2669 2484 
Q 3125 2378 3379 2068 
Q 3634 1759 3634 1313 
Q 3634 634 3220 271 
Q 2806 -91 2034 -91 
Q 1263 -91 848 271 
Q 434 634 434 1313 
Q 434 1759 690 2068 
Q 947 2378 1403 2484 
z
M 1172 3481 
Q 1172 3119 1398 2916 
Q 1625 2713 2034 2713 
Q 2441 2713 2670 2916 
Q 2900 3119 2900 3481 
Q 2900 3844 2670 4047 
Q 2441 4250 2034 4250 
Q 1625 4250 1398 4047 
Q 1172 3844 1172 3481 
z
" transform="scale(0.015625)"/>
      <path id="DejaVuSans-33" d="M 2597 2516 
Q 3050 2419 3304 2112 
Q 3559 1806 3559 1356 
Q 3559 666 3084 287 
Q 2609 -91 1734 -91 
Q 1441 -91 1130 -33 
Q 819 25 488 141 
L 488 750 
Q 750 597 1062 519 
Q 1375 441 1716 441 
Q 2309 441 2620 675 
Q 2931 909 2931 1356 
Q 2931 1769 2642 2001 
Q 2353 2234 1838 2234 
L 1294 2234 
L 1294 2753 
L 1863 2753 
Q 2328 2753 2575 2939 
Q 2822 3125 2822 3475 
Q 2822 3834 2567 4026 
Q 2313 4219 1838 4219 
Q 1578 4219 1281 4162 
Q 984 4106 628 3988 
L 628 4550 
Q 988 4650 1302 4700 
Q 1616 4750 1894 4750 
Q 2613 4750 3031 4423 
Q 3450 4097 3450 3541 
Q 3450 3153 3228 2886 
Q 3006 2619 2597 2516 
z
" transform="scale(0.015625)"/>
      <path id="DejaVuSans-70" d="M 1159 525 
L 1159 -1331 
L 581 -1331 
L 581 3500 
L 1159 3500 
L 1159 2969 
Q 1341 3281 1617 3432 
Q 1894 3584 2278 3584 
Q 2916 3584 3314 3078 
Q 3713 2572 3713 1747 
Q 3713 922 3314 415 
Q 2916 -91 2278 -91 
Q 1894 -91 1617 61 
Q 1341 213 1159 525 
z
M 3116 1747 
Q 3116 2381 2855 2742 
Q 2594 3103 2138 3103 
Q 1681 3103 1420 2742 
Q 1159 2381 1159 1747 
Q 1159 1113 1420 752 
Q 1681 391 2138 391 
Q 2594 391 2855 752 
Q 3116 1113 3116 1747 
z
" transform="scale(0.015625)"/>
      <path id="DejaVuSans-6f" d="M 1959 3097 
Q 1497 3097 1228 2736 
Q 959 2375 959 1747 
Q 959 1119 1226 758 
Q 1494 397 1959 397 
Q 2419 397 2687 759 
Q 2956 1122 2956 1747 
Q 2956 2369 2687 2733 
Q 2419 3097 1959 3097 
z
M 1959 3584 
Q 2709 3584 3137 3096 
Q 3566 2609 3566 1747 
Q 3566 888 3137 398 
Q 2709 -91 1959 -91 
Q 1206 -91 779 398 
Q 353 888 353 1747 
Q 353 2609 779 3096 
Q 1206 3584 1959 3584 
z
" transform="scale(0.015625)"/>
      <path id="DejaVuSans-74" d="M 1172 4494 
L 1172 3500 
L 2356 3500 
L 2356 3053 
L 1172 3053 
L 1172 1153 
Q 1172 725 1289 603 
Q 1406 481 1766 481 
L 2356 481 
L 2356 0 
L 1766 0 
Q 1100 0 847 248 
Q 594 497 594 1153 
L 594 3053 
L 172 3053 
L 172 3500 
L 594 3500 
L 594 4494 
L 1172 4494 
z
" transform="scale(0.015625)"/>
      <path id="DejaVuSans-73" d="M 2834 3397 
L 2834 2853 
Q 2591 2978 2328 3040 
Q 2066 3103 1784 3103 
Q 1356 3103 1142 2972 
Q 928 2841 928 2578 
Q 928 2378 1081 2264 
Q 1234 2150 1697 2047 
L 1894 2003 
Q 2506 1872 2764 1633 
Q 3022 1394 3022 966 
Q 3022 478 2636 193 
Q 2250 -91 1575 -91 
Q 1294 -91 989 -36 
Q 684 19 347 128 
L 347 722 
Q 666 556 975 473 
Q 1284 391 1588 391 
Q 1994 391 2212 530 
Q 2431 669 2431 922 
Q 2431 1156 2273 1281 
Q 2116 1406 1581 1522 
L 1381 1569 
Q 847 1681 609 1914 
Q 372 2147 372 2553 
Q 372 3047 722 3315 
Q 1072 3584 1716 3584 
Q 2034 3584 2315 3537 
Q 2597 3491 2834 3397 
z
" transform="scale(0.015625)"/>
      <path id="DejaVuSans-29" d="M 513 4856 
L 1013 4856 
Q 1481 4119 1714 3412 
Q 1947 2706 1947 2009 
Q 1947 1309 1714 600 
Q 1481 -109 1013 -844 
L 513 -844 
Q 928 -128 1133 580 
Q 1338 1288 1338 2009 
Q 1338 2731 1133 3434 
Q 928 4138 513 4856 
z
" transform="scale(0.015625)"/>
     </defs>
     <use xlink:href="#DejaVuSans-4f"/>
     <use xlink:href="#DejaVuSans-72" x="78.710938"/>
     <use xlink:href="#DejaVuSans-69" x="119.824219"/>
     <use xlink:href="#DejaVuSans-67" x="147.607422"/>
     <use xlink:href="#DejaVuSans-69" x="211.083984"/>
     <use xlink:href="#DejaVuSans-6e" x="238.867188"/>
     <use xlink:href="#DejaVuSans-61" x="302.246094"/>
     <use xlink:href="#DejaVuSans-6c" x="363.525391"/>
     <use xlink:href="#DejaVuSans-20" x="391.308594"/>
     <use xlink:href="#DejaVuSans-63" x="423.095703"/>
     <use xlink:href="#DejaVuSans-75" x="478.076172"/>
     <use xlink:href="#DejaVuSans-72" x="541.455078"/>
     <use xlink:href="#DejaVuSans-76" x="582.568359"/>
     <use xlink:href="#DejaVuSans-65" x="641.748047"/>
     <use xlink:href="#DejaVuSans-20" x="703.271484"/>
     <use xlink:href="#DejaVuSans-28" x="735.058594"/>
     <use xlink:href="#DejaVuSans-32" x="774.072266"/>
     <use xlink:href="#DejaVuSans-38" x="837.695312"/>
     <use xlink:href="#DejaVuSans-33" x="901.318359"/>
     <use xlink:href="#DejaVuSans-20" x="964.941406"/>
     <use xlink:href="#DejaVuSans-70" x="996.728516"/>
     <use xlink:href="#DejaVuSans-6f" x="1060.205078"/>
     <use xlink:href="#DejaVuSans-69" x="1121.386719"/>
     <use xlink:href="#DejaVuSans-6e" x="1149.169922"/>
     <use xlink:href="#DejaVuSans-74" x="1212.548828"/>
     <use xlink:href="#DejaVuSans-73" x="1251.757812"/>
     <use xlink:href="#DejaVuSans-29" x="1303.857422"/>
    </g>
   </g>
  </g>
  <g id="axes_2">
   <g id="line2d_2">
    <path d="M 635.956668 307.8 
L 631.395276 295.760861 
L 628.478922 281.229065 
L 630.871779 270.510992 
L 638.449251 258.048081 
L 644.929979 243.98988 
L 655.847502 230.579776 
L 658.389908 214.02907 
L 657.492615 208.096712 
L 665.718106 203.261096 
L 671.600563 197.378639 
L 683.31573 187.832006 
L 685.808312 178.385098 
L 707.070036 151.938762 
L 718.211881 128.683079 
L 716.840991 117.24206 
L 731.372712 113.378588 
L 740.919268 110.611858 
L 760.43623 106.05039 
L 777.659982 103.408259 
L 794.484836 99.420189 
L 814.749541 95.930513 
L 845.981669 90.297253 
L 855.752549 85.960184 
L 867.368067 83.467602 
L 874.621414 79.105583 
L 884.168047 75.989855 
L 892.243989 71.453337 
L 900.768577 66.019526 
L 910.31521 55.874698 
L 917.36926 55.8 
L 926.91574 61.034362 
L 935.066533 64.922784 
L 925.644499 68.512108 
L 917.070162 76.53815 
L 902.662964 93.687128 
L 921.407231 108.393424 
L 931.851157 112.655794 
L 933.720593 115.87117 
L 916.696214 121.778578 
L 907.149582 125.841499 
L 892.617785 123.423767 
L 885.563887 127.985083 
L 893.639829 138.30441 
L 905.155546 147.078348 
L 895.185218 151.639664 
L 901.516322 162.08359 
L 927.563836 185.688422 
L 918.017204 183.17089 
L 902.638014 173.175611 
L 892.692635 180.678308 
L 897.65285 193.116268 
L 910.539457 203.111547 
L 912.658243 208.071762 
L 899.472386 197.428463 
L 886.087232 188.156054 
L 871.555587 184.467005 
L 863.728842 180.678308 
L 858.145483 190.997634 
L 869.960298 205.305032 
L 879.731177 208.096712 
L 887.707471 212.159633 
L 880.429174 210.589294 
L 869.536601 207.373842 
L 862.183454 203.111547 
L 848.075353 198.126383 
L 831.474823 204.507387 
L 835.363245 209.61715 
L 846.430316 219.163783 
L 852.81132 223.725175 
L 857.796485 228.286643 
L 865.099732 235.515116 
L 881.525916 234.219001 
L 866.296123 239.029666 
L 856.749643 235.515116 
L 849.695592 232.399388 
L 842.641542 228.037369 
L 833.319309 230.529952 
L 823.548429 223.700301 
L 815.422587 228.386367 
L 813.927099 236.512134 
L 820.407751 241.073602 
L 812.630907 240.50028 
L 805.452258 245.211297 
L 792.590601 242.992863 
L 786.633293 249.09972 
L 778.632049 245.485445 
L 769.509189 249.024945 
L 755.401241 250.669982 
L 745.954333 257.624308 
L 740.645121 263.930538 
L 728.032661 265.575651 
L 719.80717 280.381596 
L 707.294359 278.836207 
L 700.564433 287.859342 
L 684.063474 290.351925 
L 674.940691 296.234382 
L 667.088996 300.322253 
L 660.035022 301.967367 
L 645.503225 305.307418 
" clip-path="url(#p73ae3e3799)" style="fill: none; stroke: #1f77b4; stroke-width: 1.5; stroke-linecap: square"/>
   </g>
   <g id="text_2">
    <!-- Interpolated curve (100 points) -->
    <g transform="translate(687.918665 37.2) scale(0.12 -0.12)">
     <defs>
      <path id="DejaVuSans-49" d="M 628 4666 
L 1259 4666 
L 1259 0 
L 628 0 
L 628 4666 
z
" transform="scale(0.015625)"/>
      <path id="DejaVuSans-64" d="M 2906 2969 
L 2906 4863 
L 3481 4863 
L 3481 0 
L 2906 0 
L 2906 525 
Q 2725 213 2448 61 
Q 2172 -91 1784 -91 
Q 1150 -91 751 415 
Q 353 922 353 1747 
Q 353 2572 751 3078 
Q 1150 3584 1784 3584 
Q 2172 3584 2448 3432 
Q 2725 3281 2906 2969 
z
M 947 1747 
Q 947 1113 1208 752 
Q 1469 391 1925 391 
Q 2381 391 2643 752 
Q 2906 1113 2906 1747 
Q 2906 2381 2643 2742 
Q 2381 3103 1925 3103 
Q 1469 3103 1208 2742 
Q 947 2381 947 1747 
z
" transform="scale(0.015625)"/>
      <path id="DejaVuSans-31" d="M 794 531 
L 1825 531 
L 1825 4091 
L 703 3866 
L 703 4441 
L 1819 4666 
L 2450 4666 
L 2450 531 
L 3481 531 
L 3481 0 
L 794 0 
L 794 531 
z
" transform="scale(0.015625)"/>
      <path id="DejaVuSans-30" d="M 2034 4250 
Q 1547 4250 1301 3770 
Q 1056 3291 1056 2328 
Q 1056 1369 1301 889 
Q 1547 409 2034 409 
Q 2525 409 2770 889 
Q 3016 1369 3016 2328 
Q 3016 3291 2770 3770 
Q 2525 4250 2034 4250 
z
M 2034 4750 
Q 2819 4750 3233 4129 
Q 3647 3509 3647 2328 
Q 3647 1150 3233 529 
Q 2819 -91 2034 -91 
Q 1250 -91 836 529 
Q 422 1150 422 2328 
Q 422 3509 836 4129 
Q 1250 4750 2034 4750 
z
" transform="scale(0.015625)"/>
     </defs>
     <use xlink:href="#DejaVuSans-49"/>
     <use xlink:href="#DejaVuSans-6e" x="29.492188"/>
     <use xlink:href="#DejaVuSans-74" x="92.871094"/>
     <use xlink:href="#DejaVuSans-65" x="132.080078"/>
     <use xlink:href="#DejaVuSans-72" x="193.603516"/>
     <use xlink:href="#DejaVuSans-70" x="234.716797"/>
     <use xlink:href="#DejaVuSans-6f" x="298.193359"/>
     <use xlink:href="#DejaVuSans-6c" x="359.375"/>
     <use xlink:href="#DejaVuSans-61" x="387.158203"/>
     <use xlink:href="#DejaVuSans-74" x="448.4375"/>
     <use xlink:href="#DejaVuSans-65" x="487.646484"/>
     <use xlink:href="#DejaVuSans-64" x="549.169922"/>
     <use xlink:href="#DejaVuSans-20" x="612.646484"/>
     <use xlink:href="#DejaVuSans-63" x="644.433594"/>
     <use xlink:href="#DejaVuSans-75" x="699.414062"/>
     <use xlink:href="#DejaVuSans-72" x="762.792969"/>
     <use xlink:href="#DejaVuSans-76" x="803.90625"/>
     <use xlink:href="#DejaVuSans-65" x="863.085938"/>
     <use xlink:href="#DejaVuSans-20" x="924.609375"/>
     <use xlink:href="#DejaVuSans-28" x="956.396484"/>
     <use xlink:href="#DejaVuSans-31" x="995.410156"/>
     <use xlink:href="#DejaVuSans-30" x="1059.033203"/>
     <use xlink:href="#DejaVuSans-30" x="1122.65625"/>
     <use xlink:href="#DejaVuSans-20" x="1186.279297"/>
     <use xlink:href="#DejaVuSans-70" x="1218.066406"/>
     <use xlink:href="#DejaVuSans-6f" x="1281.542969"/>
     <use xlink:href="#DejaVuSans-69" x="1342.724609"/>
     <use xlink:href="#DejaVuSans-6e" x="1370.507812"/>
     <use xlink:href="#DejaVuSans-74" x="1433.886719"/>
     <use xlink:href="#DejaVuSans-73" x="1473.095703"/>
     <use xlink:href="#DejaVuSans-29" x="1525.195312"/>
    </g>
   </g>
  </g>
 </g>
 <defs>
  <clipPath id="p4b91fef43b">
   <rect x="135" y="43.2" width="380.454545" height="277.2"/>
  </clipPath>
  <clipPath id="p73ae3e3799">
   <rect x="591.545455" y="43.2" width="380.454545" height="277.2"/>
  </clipPath>
 </defs>
</svg>
