<?xml version="1.0" encoding="utf-8" standalone="no"?>
<!DOCTYPE svg PUBLIC "-//W3C//DTD SVG 1.1//EN"
  "http://www.w3.org/Graphics/SVG/1.1/DTD/svg11.dtd">
<svg xmlns:xlink="http://www.w3.org/1999/xlink" width="1080pt" height="360pt" viewBox="0 0 1080 360" xmlns="http://www.w3.org/2000/svg" version="1.1">
 <metadata>
  <rdf:RDF xmlns:dc="http://purl.org/dc/elements/1.1/" xmlns:cc="http://creativecommons.org/ns#" xmlns:rdf="http://www.w3.org/1999/02/22-rdf-syntax-ns#">
   <cc:Work>
    <dc:type rdf:resource="http://purl.org/dc/dcmitype/StillImage"/>
    <dc:date>2024-06-03T04:05:53.649009</dc:date>
    <dc:format>image/svg+xml</dc:format>
    <dc:creator>
     <cc:Agent>
      <dc:title>Matplotlib v3.8.4, https://matplotlib.org/</dc:title>
     </cc:Agent>
    </dc:creator>
   </cc:Work>
  </rdf:RDF>
 </metadata>
 <defs>
  <style type="text/css">*{stroke-linejoin: round; stroke-linecap: butt}</style>
 </defs>
 <g id="figure_1">
  <g id="patch_1">
   <path d="M 0 360 
L 1080 360 
L 1080 0 
L 0 0 
z
" style="fill: #ffffff"/>
  </g>
  <g id="axes_1">
   <g id="line2d_1">
    <path d="M 181.933155 307.8 
L 179.462567 305.329412 
L 179.462567 297.917647 
L 176.991979 295.447059 
L 176.991979 285.564706 
L 174.52139 283.094118 
L 174.52139 280.623529 
L 172.050802 278.152941 
L 172.050802 275.682353 
L 181.933155 265.8 
L 181.933155 263.329412 
L 184.403743 260.858824 
L 184.403743 253.447059 
L 189.34492 248.505882 
L 189.34492 246.035294 
L 199.227273 236.152941 
L 199.227273 233.682353 
L 201.697861 231.211765 
L 201.697861 221.329412 
L 204.168449 218.858824 
L 204.168449 213.917647 
L 201.697861 211.447059 
L 201.697861 208.976471 
L 204.168449 208.976471 
L 206.639037 206.505882 
L 209.109626 206.505882 
L 214.050802 201.564706 
L 214.050802 199.094118 
L 216.52139 199.094118 
L 218.991979 196.623529 
L 221.462567 196.623529 
L 228.874332 189.211765 
L 228.874332 186.741176 
L 231.34492 184.270588 
L 231.34492 179.329412 
L 238.756684 171.917647 
L 238.756684 166.976471 
L 256.050802 149.682353 
L 256.050802 142.270588 
L 263.462567 134.858824 
L 263.462567 127.447059 
L 260.991979 124.976471 
L 260.991979 120.035294 
L 263.462567 117.564706 
L 273.34492 117.564706 
L 275.815508 115.094118 
L 278.286096 115.094118 
L 280.756684 112.623529 
L 285.697861 112.623529 
L 288.168449 110.152941 
L 302.991979 110.152941 
L 305.462567 107.682353 
L 310.403743 107.682353 
L 312.874332 105.211765 
L 325.227273 105.211765 
L 327.697861 102.741176 
L 337.580214 102.741176 
L 340.050802 100.270588 
L 344.991979 100.270588 
L 347.462567 97.8 
L 374.639037 97.8 
L 379.580214 92.858824 
L 389.462567 92.858824 
L 391.933155 90.388235 
L 396.874332 90.388235 
L 399.34492 87.917647 
L 404.286096 87.917647 
L 406.756684 85.447059 
L 411.697861 85.447059 
L 414.168449 82.976471 
L 416.639037 82.976471 
L 419.109626 80.505882 
L 424.050802 80.505882 
L 426.52139 78.035294 
L 428.991979 78.035294 
L 431.462567 75.564706 
L 433.933155 75.564706 
L 438.874332 70.623529 
L 441.34492 70.623529 
L 443.815508 68.152941 
L 446.286096 68.152941 
L 453.697861 60.741176 
L 453.697861 58.270588 
L 456.168449 55.8 
L 458.639037 55.8 
L 461.109626 58.270588 
L 463.580214 58.270588 
L 468.52139 63.211765 
L 470.991979 63.211765 
L 473.462567 65.682353 
L 478.403743 65.682353 
L 478.403743 68.152941 
L 473.462567 68.152941 
L 470.991979 70.623529 
L 466.050802 70.623529 
L 461.109626 75.564706 
L 461.109626 78.035294 
L 458.639037 80.505882 
L 458.639037 82.976471 
L 446.286096 95.329412 
L 446.286096 100.270588 
L 456.168449 110.152941 
L 466.050802 110.152941 
L 468.52139 112.623529 
L 473.462567 112.623529 
L 475.933155 115.094118 
L 478.403743 115.094118 
L 478.403743 117.564706 
L 475.933155 117.564706 
L 470.991979 122.505882 
L 461.109626 122.505882 
L 458.639037 124.976471 
L 453.697861 124.976471 
L 451.227273 127.447059 
L 448.756684 127.447059 
L 446.286096 124.976471 
L 436.403743 124.976471 
L 433.933155 127.447059 
L 431.462567 127.447059 
L 428.991979 129.917647 
L 428.991979 134.858824 
L 433.933155 139.8 
L 438.874332 139.8 
L 446.286096 147.211765 
L 448.756684 147.211765 
L 448.756684 149.682353 
L 441.34492 149.682353 
L 438.874332 152.152941 
L 438.874332 154.623529 
L 443.815508 159.564706 
L 443.815508 162.035294 
L 451.227273 169.447059 
L 453.697861 169.447059 
L 470.991979 186.741176 
L 468.52139 189.211765 
L 463.580214 184.270588 
L 461.109626 184.270588 
L 456.168449 179.329412 
L 451.227273 179.329412 
L 443.815508 171.917647 
L 441.34492 171.917647 
L 436.403743 176.858824 
L 436.403743 186.741176 
L 438.874332 189.211765 
L 438.874332 191.682353 
L 446.286096 199.094118 
L 448.756684 199.094118 
L 453.697861 204.035294 
L 456.168449 204.035294 
L 458.639037 206.505882 
L 456.168449 208.976471 
L 453.697861 206.505882 
L 451.227273 206.505882 
L 441.34492 196.623529 
L 438.874332 196.623529 
L 431.462567 189.211765 
L 428.991979 189.211765 
L 426.52139 186.741176 
L 416.639037 186.741176 
L 414.168449 184.270588 
L 411.697861 184.270588 
L 409.227273 181.8 
L 404.286096 181.8 
L 401.815508 184.270588 
L 401.815508 191.682353 
L 404.286096 194.152941 
L 404.286096 196.623529 
L 414.168449 206.505882 
L 419.109626 206.505882 
L 421.580214 208.976471 
L 424.050802 208.976471 
L 426.52139 211.447059 
L 431.462567 211.447059 
L 431.462567 213.917647 
L 428.991979 213.917647 
L 426.52139 211.447059 
L 421.580214 211.447059 
L 419.109626 208.976471 
L 414.168449 208.976471 
L 411.697861 206.505882 
L 409.227273 206.505882 
L 406.756684 204.035294 
L 401.815508 204.035294 
L 396.874332 199.094118 
L 391.933155 199.094118 
L 389.462567 201.564706 
L 379.580214 201.564706 
L 374.639037 206.505882 
L 377.109626 208.976471 
L 379.580214 208.976471 
L 379.580214 211.447059 
L 386.991979 218.858824 
L 389.462567 218.858824 
L 391.933155 221.329412 
L 394.403743 221.329412 
L 396.874332 223.8 
L 396.874332 226.270588 
L 399.34492 228.741176 
L 401.815508 228.741176 
L 401.815508 231.211765 
L 406.756684 236.152941 
L 409.227273 236.152941 
L 411.697861 238.623529 
L 421.580214 238.623529 
L 426.52139 233.682353 
L 433.933155 241.094118 
L 411.697861 241.094118 
L 409.227273 238.623529 
L 404.286096 238.623529 
L 401.815508 236.152941 
L 399.34492 236.152941 
L 396.874332 233.682353 
L 394.403743 233.682353 
L 391.933155 231.211765 
L 389.462567 231.211765 
L 386.991979 228.741176 
L 384.52139 228.741176 
L 382.050802 231.211765 
L 377.109626 231.211765 
L 372.168449 226.270588 
L 369.697861 226.270588 
L 367.227273 223.8 
L 362.286096 223.8 
L 359.815508 226.270588 
L 359.815508 231.211765 
L 357.34492 233.682353 
L 357.34492 236.152941 
L 359.815508 238.623529 
L 362.286096 238.623529 
L 364.756684 241.094118 
L 364.756684 243.564706 
L 359.815508 243.564706 
L 357.34492 241.094118 
L 352.403743 241.094118 
L 349.933155 243.564706 
L 349.933155 246.035294 
L 347.462567 248.505882 
L 342.52139 243.564706 
L 335.109626 243.564706 
L 332.639037 246.035294 
L 332.639037 250.976471 
L 330.168449 248.505882 
L 327.697861 248.505882 
L 325.227273 246.035294 
L 320.286096 246.035294 
L 317.815508 248.505882 
L 315.34492 248.505882 
L 310.403743 253.447059 
L 302.991979 253.447059 
L 300.52139 250.976471 
L 295.580214 255.917647 
L 293.109626 255.917647 
L 290.639037 258.388235 
L 288.168449 258.388235 
L 285.697861 260.858824 
L 285.697861 265.8 
L 278.286096 265.8 
L 275.815508 263.329412 
L 270.874332 268.270588 
L 270.874332 275.682353 
L 265.933155 280.623529 
L 263.462567 280.623529 
L 260.991979 278.152941 
L 253.580214 278.152941 
L 248.639037 283.094118 
L 248.639037 285.564706 
L 246.168449 288.035294 
L 236.286096 288.035294 
L 233.815508 290.505882 
L 228.874332 290.505882 
L 226.403743 292.976471 
L 223.933155 292.976471 
L 218.991979 297.917647 
L 216.52139 297.917647 
L 214.050802 300.388235 
L 211.580214 300.388235 
L 209.109626 302.858824 
L 206.639037 302.858824 
L 204.168449 300.388235 
L 196.756684 300.388235 
L 191.815508 305.329412 
L 189.34492 305.329412 
L 186.874332 307.8 
L 186.874332 307.8 
" clip-path="url(#pa556acf2f4)" style="fill: none; stroke: #1f77b4; stroke-width: 1.5; stroke-linecap: square"/>
   </g>
   <g id="text_1">
    <!-- Original curve (283 points) -->
    <g transform="translate(244.654773 37.2) scale(0.12 -0.12)">
     <defs>
      <path id="DejaVuSans-4f" d="M 2522 4238 
Q 1834 4238 1429 3725 
Q 1025 3213 1025 2328 
Q 1025 1447 1429 934 
Q 1834 422 2522 422 
Q 3209 422 3611 934 
Q 4013 1447 4013 2328 
Q 4013 3213 3611 3725 
Q 3209 4238 2522 4238 
z
M 2522 4750 
Q 3503 4750 4090 4092 
Q 4678 3434 4678 2328 
Q 4678 1225 4090 567 
Q 3503 -91 2522 -91 
Q 1538 -91 948 565 
Q 359 1222 359 2328 
Q 359 3434 948 4092 
Q 1538 4750 2522 4750 
z
" transform="scale(0.015625)"/>
      <path id="DejaVuSans-72" d="M 2631 2963 
Q 2534 3019 2420 3045 
Q 2306 3072 2169 3072 
Q 1681 3072 1420 2755 
Q 1159 2438 1159 1844 
L 1159 0 
L 581 0 
L 581 3500 
L 1159 3500 
L 1159 2956 
Q 1341 3275 1631 3429 
Q 1922 3584 2338 3584 
Q 2397 3584 2469 3576 
Q 2541 3569 2628 3553 
L 2631 2963 
z
" transform="scale(0.015625)"/>
      <path id="DejaVuSans-69" d="M 603 3500 
L 1178 3500 
L 1178 0 
L 603 0 
L 603 3500 
z
M 603 4863 
L 1178 4863 
L 1178 4134 
L 603 4134 
L 603 4863 
z
" transform="scale(0.015625)"/>
      <path id="DejaVuSans-67" d="M 2906 1791 
Q 2906 2416 2648 2759 
Q 2391 3103 1925 3103 
Q 1463 3103 1205 2759 
Q 947 2416 947 1791 
Q 947 1169 1205 825 
Q 1463 481 1925 481 
Q 2391 481 2648 825 
Q 2906 1169 2906 1791 
z
M 3481 434 
Q 3481 -459 3084 -895 
Q 2688 -1331 1869 -1331 
Q 1566 -1331 1297 -1286 
Q 1028 -1241 775 -1147 
L 775 -588 
Q 1028 -725 1275 -790 
Q 1522 -856 1778 -856 
Q 2344 -856 2625 -561 
Q 2906 -266 2906 331 
L 2906 616 
Q 2728 306 2450 153 
Q 2172 0 1784 0 
Q 1141 0 747 490 
Q 353 981 353 1791 
Q 353 2603 747 3093 
Q 1141 3584 1784 3584 
Q 2172 3584 2450 3431 
Q 2728 3278 2906 2969 
L 2906 3500 
L 3481 3500 
L 3481 434 
z
" transform="scale(0.015625)"/>
      <path id="DejaVuSans-6e" d="M 3513 2113 
L 3513 0 
L 2938 0 
L 2938 2094 
Q 2938 2591 2744 2837 
Q 2550 3084 2163 3084 
Q 1697 3084 1428 2787 
Q 1159 2491 1159 1978 
L 1159 0 
L 581 0 
L 581 3500 
L 1159 3500 
L 1159 2956 
Q 1366 3272 1645 3428 
Q 1925 3584 2291 3584 
Q 2894 3584 3203 3211 
Q 3513 2838 3513 2113 
z
" transform="scale(0.015625)"/>
      <path id="DejaVuSans-61" d="M 2194 1759 
Q 1497 1759 1228 1600 
Q 959 1441 959 1056 
Q 959 750 1161 570 
Q 1363 391 1709 391 
Q 2188 391 2477 730 
Q 2766 1069 2766 1631 
L 2766 1759 
L 2194 1759 
z
M 3341 1997 
L 3341 0 
L 2766 0 
L 2766 531 
Q 2569 213 2275 61 
Q 1981 -91 1556 -91 
Q 1019 -91 701 211 
Q 384 513 384 1019 
Q 384 1609 779 1909 
Q 1175 2209 1959 2209 
L 2766 2209 
L 2766 2266 
Q 2766 2663 2505 2880 
Q 2244 3097 1772 3097 
Q 1472 3097 1187 3025 
Q 903 2953 641 2809 
L 641 3341 
Q 956 3463 1253 3523 
Q 1550 3584 1831 3584 
Q 2591 3584 2966 3190 
Q 3341 2797 3341 1997 
z
" transform="scale(0.015625)"/>
      <path id="DejaVuSans-6c" d="M 603 4863 
L 1178 4863 
L 1178 0 
L 603 0 
L 603 4863 
z
" transform="scale(0.015625)"/>
      <path id="DejaVuSans-20" transform="scale(0.015625)"/>
      <path id="DejaVuSans-63" d="M 3122 3366 
L 3122 2828 
Q 2878 2963 2633 3030 
Q 2388 3097 2138 3097 
Q 1578 3097 1268 2742 
Q 959 2388 959 1747 
Q 959 1106 1268 751 
Q 1578 397 2138 397 
Q 2388 397 2633 464 
Q 2878 531 3122 666 
L 3122 134 
Q 2881 22 2623 -34 
Q 2366 -91 2075 -91 
Q 1284 -91 818 406 
Q 353 903 353 1747 
Q 353 2603 823 3093 
Q 1294 3584 2113 3584 
Q 2378 3584 2631 3529 
Q 2884 3475 3122 3366 
z
" transform="scale(0.015625)"/>
      <path id="DejaVuSans-75" d="M 544 1381 
L 544 3500 
L 1119 3500 
L 1119 1403 
Q 1119 906 1312 657 
Q 1506 409 1894 409 
Q 2359 409 2629 706 
Q 2900 1003 2900 1516 
L 2900 3500 
L 3475 3500 
L 3475 0 
L 2900 0 
L 2900 538 
Q 2691 219 2414 64 
Q 2138 -91 1772 -91 
Q 1169 -91 856 284 
Q 544 659 544 1381 
z
M 1991 3584 
L 1991 3584 
z
" transform="scale(0.015625)"/>
      <path id="DejaVuSans-76" d="M 191 3500 
L 800 3500 
L 1894 563 
L 2988 3500 
L 3597 3500 
L 2284 0 
L 1503 0 
L 191 3500 
z
" transform="scale(0.015625)"/>
      <path id="DejaVuSans-65" d="M 3597 1894 
L 3597 1613 
L 953 1613 
Q 991 1019 1311 708 
Q 1631 397 2203 397 
Q 2534 397 2845 478 
Q 3156 559 3463 722 
L 3463 178 
Q 3153 47 2828 -22 
Q 2503 -91 2169 -91 
Q 1331 -91 842 396 
Q 353 884 353 1716 
Q 353 2575 817 3079 
Q 1281 3584 2069 3584 
Q 2775 3584 3186 3129 
Q 3597 2675 3597 1894 
z
M 3022 2063 
Q 3016 2534 2758 2815 
Q 2500 3097 2075 3097 
Q 1594 3097 1305 2825 
Q 1016 2553 972 2059 
L 3022 2063 
z
" transform="scale(0.015625)"/>
      <path id="DejaVuSans-28" d="M 1984 4856 
Q 1566 4138 1362 3434 
Q 1159 2731 1159 2009 
Q 1159 1288 1364 580 
Q 1569 -128 1984 -844 
L 1484 -844 
Q 1016 -109 783 600 
Q 550 1309 550 2009 
Q 550 2706 781 3412 
Q 1013 4119 1484 4856 
L 1984 4856 
z
" transform="scale(0.015625)"/>
      <path id="DejaVuSans-32" d="M 1228 531 
L 3431 531 
L 3431 0 
L 469 0 
L 469 531 
Q 828 903 1448 1529 
Q 2069 2156 2228 2338 
Q 2531 2678 2651 2914 
Q 2772 3150 2772 3378 
Q 2772 3750 2511 3984 
Q 2250 4219 1831 4219 
Q 1534 4219 1204 4116 
Q 875 4013 500 3803 
L 500 4441 
Q 881 4594 1212 4672 
Q 1544 4750 1819 4750 
Q 2544 4750 2975 4387 
Q 3406 4025 3406 3419 
Q 3406 3131 3298 2873 
Q 3191 2616 2906 2266 
Q 2828 2175 2409 1742 
Q 1991 1309 1228 531 
z
" transform="scale(0.015625)"/>
      <path id="DejaVuSans-38" d="M 2034 2216 
Q 1584 2216 1326 1975 
Q 1069 1734 1069 1313 
Q 1069 891 1326 650 
Q 1584 409 2034 409 
Q 2484 409 2743 651 
Q 3003 894 3003 1313 
Q 3003 1734 2745 1975 
Q 2488 2216 2034 2216 
z
M 1403 2484 
Q 997 2584 770 2862 
Q 544 3141 544 3541 
Q 544 4100 942 4425 
Q 1341 4750 2034 4750 
Q 2731 4750 3128 4425 
Q 3525 4100 3525 3541 
Q 3525 3141 3298 2862 
Q 3072 2584 2669 2484 
Q 3125 2378 3379 2068 
Q 3634 1759 3634 1313 
Q 3634 634 3220 271 
Q 2806 -91 2034 -91 
Q 1263 -91 848 271 
Q 434 634 434 1313 
Q 434 1759 690 2068 
Q 947 2378 1403 2484 
z
M 1172 3481 
Q 1172 3119 1398 2916 
Q 1625 2713 2034 2713 
Q 2441 2713 2670 2916 
Q 2900 3119 2900 3481 
Q 2900 3844 2670 4047 
Q 2441 4250 2034 4250 
Q 1625 4250 1398 4047 
Q 1172 3844 1172 3481 
z
" transform="scale(0.015625)"/>
      <path id="DejaVuSans-33" d="M 2597 2516 
Q 3050 2419 3304 2112 
Q 3559 1806 3559 1356 
Q 3559 666 3084 287 
Q 2609 -91 1734 -91 
Q 1441 -91 1130 -33 
Q 819 25 488 141 
L 488 750 
Q 750 597 1062 519 
Q 1375 441 1716 441 
Q 2309 441 2620 675 
Q 2931 909 2931 1356 
Q 2931 1769 2642 2001 
Q 2353 2234 1838 2234 
L 1294 2234 
L 1294 2753 
L 1863 2753 
Q 2328 2753 2575 2939 
Q 2822 3125 2822 3475 
Q 2822 3834 2567 4026 
Q 2313 4219 1838 4219 
Q 1578 4219 1281 4162 
Q 984 4106 628 3988 
L 628 4550 
Q 988 4650 1302 4700 
Q 1616 4750 1894 4750 
Q 2613 4750 3031 4423 
Q 3450 4097 3450 3541 
Q 3450 3153 3228 2886 
Q 3006 2619 2597 2516 
z
" transform="scale(0.015625)"/>
      <path id="DejaVuSans-70" d="M 1159 525 
L 1159 -1331 
L 581 -1331 
L 581 3500 
L 1159 3500 
L 1159 2969 
Q 1341 3281 1617 3432 
Q 1894 3584 2278 3584 
Q 2916 3584 3314 3078 
Q 3713 2572 3713 1747 
Q 3713 922 3314 415 
Q 2916 -91 2278 -91 
Q 1894 -91 1617 61 
Q 1341 213 1159 525 
z
M 3116 1747 
Q 3116 2381 2855 2742 
Q 2594 3103 2138 3103 
Q 1681 3103 1420 2742 
Q 1159 2381 1159 1747 
Q 1159 1113 1420 752 
Q 1681 391 2138 391 
Q 2594 391 2855 752 
Q 3116 1113 3116 1747 
z
" transform="scale(0.015625)"/>
      <path id="DejaVuSans-6f" d="M 1959 3097 
Q 1497 3097 1228 2736 
Q 959 2375 959 1747 
Q 959 1119 1226 758 
Q 1494 397 1959 397 
Q 2419 397 2687 759 
Q 2956 1122 2956 1747 
Q 2956 2369 2687 2733 
Q 2419 3097 1959 3097 
z
M 1959 3584 
Q 2709 3584 3137 3096 
Q 3566 2609 3566 1747 
Q 3566 888 3137 398 
Q 2709 -91 1959 -91 
Q 1206 -91 779 398 
Q 353 888 353 1747 
Q 353 2609 779 3096 
Q 1206 3584 1959 3584 
z
" transform="scale(0.015625)"/>
      <path id="DejaVuSans-74" d="M 1172 4494 
L 1172 3500 
L 2356 3500 
L 2356 3053 
L 1172 3053 
L 1172 1153 
Q 1172 725 1289 603 
Q 1406 481 1766 481 
L 2356 481 
L 2356 0 
L 1766 0 
Q 1100 0 847 248 
Q 594 497 594 1153 
L 594 3053 
L 172 3053 
L 172 3500 
L 594 3500 
L 594 4494 
L 1172 4494 
z
" transform="scale(0.015625)"/>
      <path id="DejaVuSans-73" d="M 2834 3397 
L 2834 2853 
Q 2591 2978 2328 3040 
Q 2066 3103 1784 3103 
Q 1356 3103 1142 2972 
Q 928 2841 928 2578 
Q 928 2378 1081 2264 
Q 1234 2150 1697 2047 
L 1894 2003 
Q 2506 1872 2764 1633 
Q 3022 1394 3022 966 
Q 3022 478 2636 193 
Q 2250 -91 1575 -91 
Q 1294 -91 989 -36 
Q 684 19 347 128 
L 347 722 
Q 666 556 975 473 
Q 1284 391 1588 391 
Q 1994 391 2212 530 
Q 2431 669 2431 922 
Q 2431 1156 2273 1281 
Q 2116 1406 1581 1522 
L 1381 1569 
Q 847 1681 609 1914 
Q 372 2147 372 2553 
Q 372 3047 722 3315 
Q 1072 3584 1716 3584 
Q 2034 3584 2315 3537 
Q 2597 3491 2834 3397 
z
" transform="scale(0.015625)"/>
      <path id="DejaVuSans-29" d="M 513 4856 
L 1013 4856 
Q 1481 4119 1714 3412 
Q 1947 2706 1947 2009 
Q 1947 1309 1714 600 
Q 1481 -109 1013 -844 
L 513 -844 
Q 928 -128 1133 580 
Q 1338 1288 1338 2009 
Q 1338 2731 1133 3434 
Q 928 4138 513 4856 
z
" transform="scale(0.015625)"/>
     </defs>
     <use xlink:href="#DejaVuSans-4f"/>
     <use xlink:href="#DejaVuSans-72" x="78.710938"/>
     <use xlink:href="#DejaVuSans-69" x="119.824219"/>
     <use xlink:href="#DejaVuSans-67" x="147.607422"/>
     <use xlink:href="#DejaVuSans-69" x="211.083984"/>
     <use xlink:href="#DejaVuSans-6e" x="238.867188"/>
     <use xlink:href="#DejaVuSans-61" x="302.246094"/>
     <use xlink:href="#DejaVuSans-6c" x="363.525391"/>
     <use xlink:href="#DejaVuSans-20" x="391.308594"/>
     <use xlink:href="#DejaVuSans-63" x="423.095703"/>
     <use xlink:href="#DejaVuSans-75" x="478.076172"/>
     <use xlink:href="#DejaVuSans-72" x="541.455078"/>
     <use xlink:href="#DejaVuSans-76" x="582.568359"/>
     <use xlink:href="#DejaVuSans-65" x="641.748047"/>
     <use xlink:href="#DejaVuSans-20" x="703.271484"/>
     <use xlink:href="#DejaVuSans-28" x="735.058594"/>
     <use xlink:href="#DejaVuSans-32" x="774.072266"/>
     <use xlink:href="#DejaVuSans-38" x="837.695312"/>
     <use xlink:href="#DejaVuSans-33" x="901.318359"/>
     <use xlink:href="#DejaVuSans-20" x="964.941406"/>
     <use xlink:href="#DejaVuSans-70" x="996.728516"/>
     <use xlink:href="#DejaVuSans-6f" x="1060.205078"/>
     <use xlink:href="#DejaVuSans-69" x="1121.386719"/>
     <use xlink:href="#DejaVuSans-6e" x="1149.169922"/>
     <use xlink:href="#DejaVuSans-74" x="1212.548828"/>
     <use xlink:href="#DejaVuSans-73" x="1251.757812"/>
     <use xlink:href="#DejaVuSans-29" x="1303.857422"/>
    </g>
   </g>
  </g>
  <g id="axes_2">
   <g id="line2d_2">
    <path d="M 638.47861 307.8 
L 636.03147 305.35286 
L 636.008021 300.156014 
L 636.008021 298.058487 
L 635.355767 297.265393 
L 633.607853 295.517479 
L 633.537433 292.931987 
L 633.537433 285.940255 
L 633.281764 285.309037 
L 631.184162 283.211434 
L 631.066845 282.861897 
L 631.066845 280.76437 
L 630.858072 280.414757 
L 628.760545 278.31723 
L 628.596257 277.967617 
L 628.596257 275.87009 
L 629.243535 275.035075 
L 638.47861 265.661648 
L 638.47861 263.564121 
L 638.593514 263.214508 
L 640.691041 261.116981 
L 640.949198 260.584607 
L 640.949198 254.292026 
L 641.085062 253.311195 
L 645.890374 248.461398 
L 645.974366 245.951303 
L 655.76285 236.162818 
L 655.772727 233.708289 
L 657.844318 231.610762 
L 658.193931 231.261149 
L 658.243316 227.214325 
L 658.243316 221.62097 
L 658.52002 221.052707 
L 660.617547 218.95518 
L 660.713904 217.65316 
L 660.713904 214.157257 
L 660.484171 213.687914 
L 658.386644 211.590387 
L 658.243316 211.240774 
L 658.243316 209.143247 
L 658.426152 208.976471 
L 660.523679 208.976471 
L 660.873292 208.817083 
L 663.320356 206.505882 
L 665.417883 206.505882 
L 665.879912 206.28105 
L 670.596257 201.475738 
L 670.661701 199.094118 
L 673.108841 199.052122 
L 675.555981 196.623529 
L 678.003045 196.623529 
L 685.334588 189.296963 
L 685.419786 188.540963 
L 685.419786 186.793049 
L 686.416677 185.744286 
L 687.815053 184.345909 
L 687.890374 183.022929 
L 687.890374 179.527026 
L 688.642679 178.577107 
L 694.93526 172.284526 
L 695.302139 171.463007 
L 695.302139 167.267953 
L 696.72894 165.54967 
L 711.411629 150.866981 
L 712.596257 149.141309 
L 712.596257 142.848728 
L 713.066881 141.799964 
L 719.359462 135.507383 
L 720.008021 134.45862 
L 719.898093 127.337131 
L 717.800566 125.239604 
L 717.537433 124.803511 
L 717.600465 119.972263 
L 719.697992 117.874736 
L 720.166128 117.564706 
L 729.906434 117.548722 
L 732.353574 115.101506 
L 734.800638 115.094118 
L 736.548628 113.377041 
L 737.247778 112.677815 
L 738.591794 112.623529 
L 742.087697 112.623529 
L 742.864657 112.002113 
L 744.612646 110.254274 
L 746.203661 110.152941 
L 758.788823 110.152941 
L 759.762265 109.928109 
L 761.859792 107.830582 
L 762.410713 107.682353 
L 766.605767 107.682353 
L 767.127058 107.504418 
L 769.224585 105.406891 
L 770.191845 105.211765 
L 780.67948 105.211765 
L 781.903615 105.080877 
L 784.001142 102.98335 
L 784.673226 102.741176 
L 794.20966 102.657185 
L 796.717343 100.270588 
L 801.574528 100.233493 
L 804.157457 97.8 
L 831.07577 97.8 
L 832.563039 96.421453 
L 836.059018 92.925474 
L 838.78897 92.858824 
L 845.780777 92.858824 
L 846.300861 92.565984 
L 848.398388 90.468457 
L 849.716316 90.388235 
L 853.212295 90.388235 
L 853.665578 90.142443 
L 855.763105 88.044916 
L 856.335062 87.917647 
L 860.530116 87.917647 
L 861.030446 87.718751 
L 863.127973 85.621224 
L 863.653034 85.447059 
L 867.848088 85.447059 
L 868.395315 85.29506 
L 870.842379 82.976471 
L 873.289444 82.871519 
L 875.386971 80.773992 
L 875.818087 80.505882 
L 880.654312 80.447827 
L 883.101376 78.035294 
L 885.548592 78.024135 
L 887.995656 75.577071 
L 890.442721 75.564706 
L 893.902811 72.140504 
L 895.301263 70.742053 
L 896.0596 70.623529 
L 897.807589 70.623529 
L 898.506815 70.007089 
L 900.254654 68.25925 
L 900.95388 68.152941 
L 902.701869 68.152941 
L 903.491269 67.493223 
L 909.78385 61.200642 
L 910.243316 60.544694 
L 910.243316 58.447167 
L 910.416275 58.097629 
L 912.863339 55.8 
L 914.960866 55.8 
L 915.310555 55.926063 
L 917.757619 58.270588 
L 919.855146 58.270588 
L 920.28385 58.42877 
L 925.122487 63.211765 
L 927.569552 63.243884 
L 930.025363 65.682353 
L 934.919492 65.682353 
L 934.949198 67.065876 
L 934.949198 68.11464 
L 932.928274 68.152941 
L 930.131521 68.152941 
L 929.37062 68.790342 
L 927.622631 70.538332 
L 926.309528 70.623529 
L 922.8137 70.623529 
L 922.114474 71.105312 
L 917.91942 75.300366 
L 917.65508 75.782149 
L 917.65508 77.879676 
L 917.461161 78.229214 
L 915.363634 80.326741 
L 915.184492 80.676278 
L 915.184492 82.773956 
L 914.449528 83.711434 
L 903.961893 94.199069 
L 902.831551 95.57641 
L 902.831551 99.771464 
L 903.231755 100.670792 
L 911.621863 109.0609 
L 913.020315 110.152941 
L 922.649336 110.20602 
L 925.126106 112.623529 
L 930.014204 112.629712 
L 932.461268 115.076776 
L 934.908484 115.094118 
L 934.949198 116.102167 
L 934.949198 117.500468 
L 934.31421 117.564706 
L 932.566371 117.564706 
L 931.255681 118.787635 
L 927.759852 122.283463 
L 926.58382 122.505882 
L 918.193712 122.505882 
L 917.440201 122.720762 
L 915.342674 124.818289 
L 914.801478 124.976471 
L 910.606424 124.976471 
L 910.075332 125.144454 
L 907.628268 127.447059 
L 905.530741 127.447059 
L 905.181052 127.325972 
L 903.083525 125.228445 
L 902.441148 124.976471 
L 892.875008 125.050661 
L 890.427943 127.447059 
L 887.980879 127.474202 
L 885.537433 129.925036 
L 885.537433 134.819316 
L 888.294678 137.616069 
L 890.392205 139.713596 
L 891.790506 139.8 
L 895.286335 139.8 
L 897.317211 141.697425 
L 902.561029 146.941243 
L 903.090914 147.211765 
L 905.188441 147.211765 
L 905.302139 147.447755 
L 905.302139 149.545282 
L 904.664738 149.682353 
L 898.372157 149.682353 
L 897.701431 149.871296 
L 895.603904 151.968823 
L 895.419786 152.318512 
L 895.419786 154.416039 
L 895.70388 154.907623 
L 900.360963 159.683229 
L 900.360963 161.780756 
L 900.646262 162.320594 
L 907.844354 169.447059 
L 909.941881 169.447059 
L 910.580488 169.784231 
L 927.512703 186.765906 
L 925.064432 189.209277 
L 920.170152 184.315072 
L 919.099071 184.270588 
L 917.70077 184.270588 
L 914.949858 181.565291 
L 912.852331 179.467764 
L 912.153106 179.329412 
L 907.958052 179.329412 
L 907.001875 178.558559 
L 900.709294 172.265978 
L 900.127535 171.917647 
L 898.030008 171.917647 
L 897.470417 172.337605 
L 893.275363 176.532659 
L 892.949198 177.604946 
L 892.949198 185.995054 
L 893.112205 186.904259 
L 895.419786 189.351323 
L 895.419786 191.44885 
L 895.768117 192.030684 
L 902.924138 199.094118 
L 905.021665 199.094118 
L 905.440567 199.23247 
L 910.289006 204.035294 
L 912.73607 204.057536 
L 915.183286 206.504676 
L 912.738634 208.951741 
L 911.68987 207.952437 
L 910.291418 206.554061 
L 909.242655 206.505882 
L 907.844354 206.505882 
L 905.262631 203.995786 
L 898.270824 197.003979 
L 897.635836 196.623529 
L 895.538309 196.623529 
L 894.726743 195.930561 
L 888.434162 189.637905 
L 887.800531 189.211765 
L 885.703004 189.211765 
L 885.353315 189.027722 
L 883.255788 186.930195 
L 882.424468 186.741176 
L 874.03436 186.741176 
L 873.047421 186.60403 
L 870.600206 184.270588 
L 868.153141 184.180414 
L 865.639276 181.8 
L 860.788273 181.843202 
L 858.360963 184.32985 
L 858.360963 191.67127 
L 860.804408 194.125798 
L 860.831551 195.873713 
L 860.831551 196.572863 
L 864.82409 200.615993 
L 870.417445 206.209424 
L 871.2649 206.505882 
L 875.459954 206.505882 
L 875.907055 206.757857 
L 878.004582 208.855384 
L 878.35427 208.976471 
L 880.451797 208.976471 
L 880.801335 209.181549 
L 882.898862 211.279076 
L 883.429954 211.447059 
L 887.625008 211.447059 
L 888.008021 211.605165 
L 888.008021 213.702692 
L 887.873363 213.917647 
L 885.775836 213.917647 
L 885.426299 213.806437 
L 883.328772 211.70891 
L 882.891473 211.447059 
L 878.061431 211.382821 
L 875.573501 208.976471 
L 870.696563 208.959205 
L 868.249498 206.512065 
L 865.802433 206.505882 
L 863.704906 204.437986 
L 863.355218 204.088449 
L 862.009996 204.035294 
L 858.514168 204.035294 
L 857.814942 203.489274 
L 853.619888 199.29422 
L 852.920662 199.094118 
L 848.725608 199.094118 
L 848.252571 199.320156 
L 846.155044 201.417683 
L 845.197661 201.564706 
L 836.807553 201.564706 
L 835.767385 201.922914 
L 831.572331 206.117968 
L 831.34011 206.6615 
L 833.787325 208.976471 
L 836.125668 209.085192 
L 836.125668 211.182719 
L 836.381413 211.702728 
L 843.599258 218.858824 
L 846.046323 218.897125 
L 848.493387 221.329412 
L 850.940603 221.329412 
L 853.387667 223.767881 
L 853.419786 225.166258 
L 853.419786 226.215021 
L 854.412907 227.263785 
L 855.811359 228.662086 
L 856.510434 228.741176 
L 858.258424 228.741176 
L 858.360963 228.98825 
L 858.360963 231.085777 
L 858.808214 231.658941 
L 863.003268 235.853995 
L 863.502241 236.152941 
L 865.599768 236.152941 
L 865.949306 236.329595 
L 868.046833 238.427122 
L 868.855986 238.623529 
L 877.246094 238.623529 
L 878.385032 238.364091 
L 882.580086 234.169037 
L 883.385621 234.001053 
L 889.678202 240.293634 
L 889.733693 241.094118 
L 868.184054 241.034856 
L 865.701101 238.623529 
L 860.819186 238.611164 
L 858.372121 236.164024 
L 855.924906 236.152941 
L 854.177067 234.439559 
L 853.477841 233.740408 
L 852.778615 233.682353 
L 851.030777 233.682353 
L 850.331551 233.064706 
L 848.583561 231.316792 
L 847.884486 231.211765 
L 846.136497 231.211765 
L 845.437271 230.64109 
L 843.689432 228.8931 
L 843.339744 228.741176 
L 841.242217 228.741176 
L 840.892679 228.915342 
L 838.795152 231.012869 
L 838.294822 231.211765 
L 834.099768 231.211765 
L 833.400542 230.957302 
L 828.610158 226.270588 
L 826.163094 226.190291 
L 823.65903 223.8 
L 818.798226 223.833325 
L 816.360963 226.290342 
L 816.360963 231.184622 
L 814.277007 233.29572 
L 813.927469 233.645258 
L 813.890374 235.043634 
L 813.890374 236.092398 
L 814.87867 237.141161 
L 816.276971 238.539538 
L 816.976197 238.623529 
L 818.724036 238.623529 
L 819.423262 239.21524 
L 821.171251 240.963154 
L 821.302139 241.312767 
L 821.302139 243.410294 
L 820.911737 243.564706 
L 816.716683 243.564706 
L 816.18921 243.393028 
L 814.091683 241.295501 
L 813.593916 241.094118 
L 809.398862 241.094118 
L 808.824492 241.218899 
L 806.47861 243.665963 
L 806.400801 246.113103 
L 804.303274 248.21063 
L 803.8993 248.397161 
L 798.974258 243.564706 
L 791.647691 243.572095 
L 789.200476 246.019235 
L 789.184492 250.89738 
L 788.524774 250.316828 
L 786.776935 248.568914 
L 786.077709 248.505882 
L 784.32972 248.505882 
L 783.630645 247.893211 
L 781.882655 246.145222 
L 781.293433 246.035294 
L 777.098379 246.035294 
L 776.615389 246.251456 
L 774.517862 248.348983 
L 774.168249 248.505882 
L 772.070722 248.505882 
L 771.55192 248.844337 
L 767.356866 253.039391 
L 766.511899 253.447059 
L 760.219318 253.447059 
L 759.41514 253.324766 
L 757.317613 251.227239 
L 756.869231 251.174084 
L 752.050347 255.917647 
L 749.603208 255.96952 
L 747.156068 258.388235 
L 744.708928 258.393211 
L 742.261863 260.840276 
L 742.243316 265.016858 
L 742.243316 265.716008 
L 740.271776 265.8 
L 735.027958 265.8 
L 734.547457 265.515906 
L 732.44993 263.418379 
L 731.839672 263.850702 
L 727.644618 268.045756 
L 727.419786 268.982104 
L 727.419786 275.274685 
L 726.992364 276.109775 
L 722.79731 280.304829 
L 722.288385 280.623529 
L 720.190858 280.623529 
L 719.841245 280.456753 
L 717.743718 278.359226 
L 717.107523 278.152941 
L 710.814942 278.152941 
L 709.886059 278.392551 
L 705.184492 283.190474 
L 705.111584 285.637614 
L 703.014057 287.735141 
L 702.51629 288.035294 
L 692.805614 288.06123 
L 690.355986 290.505882 
L 685.461782 290.505882 
L 684.042445 291.883223 
L 682.993682 292.931987 
L 681.944918 292.976471 
L 680.546542 292.976471 
L 679.216173 294.238907 
L 675.720269 297.734811 
L 675.279276 297.917647 
L 673.181749 297.917647 
L 672.482523 298.501969 
L 670.734609 300.249883 
L 670.384996 300.388235 
L 668.287469 300.388235 
L 667.937931 300.575972 
L 665.840404 302.673499 
L 665.490792 302.858824 
L 663.393265 302.858824 
L 663.043652 302.717983 
L 660.946125 300.620456 
L 660.361878 300.388235 
L 654.069222 300.388235 
L 653.114402 300.575972 
L 648.290542 305.329412 
L 645.843402 305.376384 
L 643.372814 307.8 
L 639.17776 307.8 
L 639.17776 307.8 
" clip-path="url(#pe468084ec9)" style="fill: none; stroke: #1f77b4; stroke-width: 1.5; stroke-linecap: square"/>
   </g>
   <g id="text_2">
    <!-- Interpolated curve (2000 points) -->
    <g transform="translate(684.101165 37.2) scale(0.12 -0.12)">
     <defs>
      <path id="DejaVuSans-49" d="M 628 4666 
L 1259 4666 
L 1259 0 
L 628 0 
L 628 4666 
z
" transform="scale(0.015625)"/>
      <path id="DejaVuSans-64" d="M 2906 2969 
L 2906 4863 
L 3481 4863 
L 3481 0 
L 2906 0 
L 2906 525 
Q 2725 213 2448 61 
Q 2172 -91 1784 -91 
Q 1150 -91 751 415 
Q 353 922 353 1747 
Q 353 2572 751 3078 
Q 1150 3584 1784 3584 
Q 2172 3584 2448 3432 
Q 2725 3281 2906 2969 
z
M 947 1747 
Q 947 1113 1208 752 
Q 1469 391 1925 391 
Q 2381 391 2643 752 
Q 2906 1113 2906 1747 
Q 2906 2381 2643 2742 
Q 2381 3103 1925 3103 
Q 1469 3103 1208 2742 
Q 947 2381 947 1747 
z
" transform="scale(0.015625)"/>
      <path id="DejaVuSans-30" d="M 2034 4250 
Q 1547 4250 1301 3770 
Q 1056 3291 1056 2328 
Q 1056 1369 1301 889 
Q 1547 409 2034 409 
Q 2525 409 2770 889 
Q 3016 1369 3016 2328 
Q 3016 3291 2770 3770 
Q 2525 4250 2034 4250 
z
M 2034 4750 
Q 2819 4750 3233 4129 
Q 3647 3509 3647 2328 
Q 3647 1150 3233 529 
Q 2819 -91 2034 -91 
Q 1250 -91 836 529 
Q 422 1150 422 2328 
Q 422 3509 836 4129 
Q 1250 4750 2034 4750 
z
" transform="scale(0.015625)"/>
     </defs>
     <use xlink:href="#DejaVuSans-49"/>
     <use xlink:href="#DejaVuSans-6e" x="29.492188"/>
     <use xlink:href="#DejaVuSans-74" x="92.871094"/>
     <use xlink:href="#DejaVuSans-65" x="132.080078"/>
     <use xlink:href="#DejaVuSans-72" x="193.603516"/>
     <use xlink:href="#DejaVuSans-70" x="234.716797"/>
     <use xlink:href="#DejaVuSans-6f" x="298.193359"/>
     <use xlink:href="#DejaVuSans-6c" x="359.375"/>
     <use xlink:href="#DejaVuSans-61" x="387.158203"/>
     <use xlink:href="#DejaVuSans-74" x="448.4375"/>
     <use xlink:href="#DejaVuSans-65" x="487.646484"/>
     <use xlink:href="#DejaVuSans-64" x="549.169922"/>
     <use xlink:href="#DejaVuSans-20" x="612.646484"/>
     <use xlink:href="#DejaVuSans-63" x="644.433594"/>
     <use xlink:href="#DejaVuSans-75" x="699.414062"/>
     <use xlink:href="#DejaVuSans-72" x="762.792969"/>
     <use xlink:href="#DejaVuSans-76" x="803.90625"/>
     <use xlink:href="#DejaVuSans-65" x="863.085938"/>
     <use xlink:href="#DejaVuSans-20" x="924.609375"/>
     <use xlink:href="#DejaVuSans-28" x="956.396484"/>
     <use xlink:href="#DejaVuSans-32" x="995.410156"/>
     <use xlink:href="#DejaVuSans-30" x="1059.033203"/>
     <use xlink:href="#DejaVuSans-30" x="1122.65625"/>
     <use xlink:href="#DejaVuSans-30" x="1186.279297"/>
     <use xlink:href="#DejaVuSans-20" x="1249.902344"/>
     <use xlink:href="#DejaVuSans-70" x="1281.689453"/>
     <use xlink:href="#DejaVuSans-6f" x="1345.166016"/>
     <use xlink:href="#DejaVuSans-69" x="1406.347656"/>
     <use xlink:href="#DejaVuSans-6e" x="1434.130859"/>
     <use xlink:href="#DejaVuSans-74" x="1497.509766"/>
     <use xlink:href="#DejaVuSans-73" x="1536.71875"/>
     <use xlink:href="#DejaVuSans-29" x="1588.818359"/>
    </g>
   </g>
  </g>
 </g>
 <defs>
  <clipPath id="pa556acf2f4">
   <rect x="135" y="43.2" width="380.454545" height="277.2"/>
  </clipPath>
  <clipPath id="pe468084ec9">
   <rect x="591.545455" y="43.2" width="380.454545" height="277.2"/>
  </clipPath>
 </defs>
</svg>
