<?xml version="1.0" encoding="utf-8" standalone="no"?>
<!DOCTYPE svg PUBLIC "-//W3C//DTD SVG 1.1//EN"
  "http://www.w3.org/Graphics/SVG/1.1/DTD/svg11.dtd">
<svg xmlns:xlink="http://www.w3.org/1999/xlink" width="576pt" height="288pt" viewBox="0 0 576 288" xmlns="http://www.w3.org/2000/svg" version="1.1">
 <metadata>
  <rdf:RDF xmlns:dc="http://purl.org/dc/elements/1.1/" xmlns:cc="http://creativecommons.org/ns#" xmlns:rdf="http://www.w3.org/1999/02/22-rdf-syntax-ns#">
   <cc:Work>
    <dc:type rdf:resource="http://purl.org/dc/dcmitype/StillImage"/>
    <dc:date>2023-12-19T06:39:13.332123</dc:date>
    <dc:format>image/svg+xml</dc:format>
    <dc:creator>
     <cc:Agent>
      <dc:title>Matplotlib v3.6.2, https://matplotlib.org/</dc:title>
     </cc:Agent>
    </dc:creator>
   </cc:Work>
  </rdf:RDF>
 </metadata>
 <defs>
  <style type="text/css">*{stroke-linejoin: round; stroke-linecap: butt}</style>
 </defs>
 <g id="figure_1">
  <g id="patch_1">
   <path d="M 0 288 
L 576 288 
L 576 0 
L 0 0 
z
" style="fill: #ffffff"/>
  </g>
  <g id="axes_1">
   <g id="line2d_1">
    <path d="M 135.445662 246.853691 
L 131.987877 245.433995 
L 128.810043 242.880571 
L 125.848091 239.671967 
L 123.866164 235.757447 
L 122.370862 231.602458 
L 120.925291 226.65659 
L 119.519949 221.319736 
L 118.360432 216.432793 
L 117.099282 211.194656 
L 115.674405 206.445409 
L 113.869411 201.674054 
L 111.655702 197.171776 
L 109.772512 192.797969 
L 108.037901 187.559944 
L 105.795366 182.813442 
L 102.814229 178.437708 
L 100.606287 174.642584 
L 98.721774 170.772287 
L 96.398277 166.814636 
L 94.260248 162.674327 
L 93.260285 158.459782 
L 92.259391 154.179299 
L 91.077599 149.982714 
L 90.155126 145.260933 
L 89.291933 140.598114 
L 88.861574 135.647164 
L 88.280477 130.672286 
L 87.162503 125.586751 
L 85.786415 120.989328 
L 84.867415 116.825119 
L 84.284405 112.552324 
L 83.322654 107.74812 
L 82.697508 103.281856 
L 81.861237 99.184125 
L 81.275098 95.014021 
L 80.464669 90.065733 
L 79.794344 85.180147 
L 79.046596 80.698782 
L 78.976085 76.248734 
L 78.005466 71.595041 
L 77.967914 67.266193 
L 78.646727 62.799401 
L 79.989153 58.747278 
L 82.231599 55.06182 
L 84.932041 51.603761 
L 88.001248 48.770806 
L 92.054956 46.670789 
L 96.49748 45.188049 
L 101.27223 44.300077 
L 105.716548 43.735816 
L 110.525426 44.014144 
L 116.097344 44.606363 
L 121.246837 45.416492 
L 126.785744 46.876022 
L 132.245728 48.548026 
L 137.244042 50.466487 
L 142.34829 53.572406 
L 147.284533 56.120886 
L 152.451639 59.415804 
L 157.008096 62.60212 
L 161.499927 66.362816 
L 165.73835 70.365672 
L 169.814004 74.521113 
L 173.489127 78.67985 
L 176.682932 83.513223 
L 179.848169 88.599066 
L 183.199036 93.989403 
L 186.302355 99.732133 
L 188.845164 105.242927 
L 190.880774 111.575276 
L 192.6032 117.825243 
L 194.33107 124.171883 
L 196.145901 130.389817 
L 196.907356 136.682245 
L 197.166765 142.760039 
L 197.326203 148.674823 
L 197.255011 154.352256 
L 196.815033 159.998415 
L 196.138836 165.631613 
L 195.201286 171.478895 
L 194.099496 176.871503 
L 192.661182 182.35841 
L 191.125312 187.69435 
L 189.414711 193.190416 
L 187.178676 198.565638 
L 184.824615 203.386028 
L 182.454959 208.168195 
L 179.564748 212.617237 
L 176.276444 216.9044 
L 173.067237 221.078574 
L 169.996401 225.162632 
L 166.881028 228.830462 
L 163.298916 232.280168 
L 159.255986 236.009138 
L 155.678257 239.234158 
L 151.789463 242.224265 
L 147.612694 244.646746 
L 143.20922 246.372202 
L 139.00224 247.144184 
" clip-path="url(#pda5551b44a)" style="fill: none; stroke: #ff7f0e; stroke-width: 1.5; stroke-linecap: square"/>
   </g>
   <g id="text_1">
    <!-- MCF10A -->
    <g transform="translate(96.718934 28.56) scale(0.2 -0.2)">
     <defs>
      <path id="DejaVuSans-4d" d="M 628 4666 
L 1569 4666 
L 2759 1491 
L 3956 4666 
L 4897 4666 
L 4897 0 
L 4281 0 
L 4281 4097 
L 3078 897 
L 2444 897 
L 1241 4097 
L 1241 0 
L 628 0 
L 628 4666 
z
" transform="scale(0.015625)"/>
      <path id="DejaVuSans-43" d="M 4122 4306 
L 4122 3641 
Q 3803 3938 3442 4084 
Q 3081 4231 2675 4231 
Q 1875 4231 1450 3742 
Q 1025 3253 1025 2328 
Q 1025 1406 1450 917 
Q 1875 428 2675 428 
Q 3081 428 3442 575 
Q 3803 722 4122 1019 
L 4122 359 
Q 3791 134 3420 21 
Q 3050 -91 2638 -91 
Q 1578 -91 968 557 
Q 359 1206 359 2328 
Q 359 3453 968 4101 
Q 1578 4750 2638 4750 
Q 3056 4750 3426 4639 
Q 3797 4528 4122 4306 
z
" transform="scale(0.015625)"/>
      <path id="DejaVuSans-46" d="M 628 4666 
L 3309 4666 
L 3309 4134 
L 1259 4134 
L 1259 2759 
L 3109 2759 
L 3109 2228 
L 1259 2228 
L 1259 0 
L 628 0 
L 628 4666 
z
" transform="scale(0.015625)"/>
      <path id="DejaVuSans-31" d="M 794 531 
L 1825 531 
L 1825 4091 
L 703 3866 
L 703 4441 
L 1819 4666 
L 2450 4666 
L 2450 531 
L 3481 531 
L 3481 0 
L 794 0 
L 794 531 
z
" transform="scale(0.015625)"/>
      <path id="DejaVuSans-30" d="M 2034 4250 
Q 1547 4250 1301 3770 
Q 1056 3291 1056 2328 
Q 1056 1369 1301 889 
Q 1547 409 2034 409 
Q 2525 409 2770 889 
Q 3016 1369 3016 2328 
Q 3016 3291 2770 3770 
Q 2525 4250 2034 4250 
z
M 2034 4750 
Q 2819 4750 3233 4129 
Q 3647 3509 3647 2328 
Q 3647 1150 3233 529 
Q 2819 -91 2034 -91 
Q 1250 -91 836 529 
Q 422 1150 422 2328 
Q 422 3509 836 4129 
Q 1250 4750 2034 4750 
z
" transform="scale(0.015625)"/>
      <path id="DejaVuSans-41" d="M 2188 4044 
L 1331 1722 
L 3047 1722 
L 2188 4044 
z
M 1831 4666 
L 2547 4666 
L 4325 0 
L 3669 0 
L 3244 1197 
L 1141 1197 
L 716 0 
L 50 0 
L 1831 4666 
z
" transform="scale(0.015625)"/>
     </defs>
     <use xlink:href="#DejaVuSans-4d"/>
     <use xlink:href="#DejaVuSans-43" x="86.279297"/>
     <use xlink:href="#DejaVuSans-46" x="156.103516"/>
     <use xlink:href="#DejaVuSans-31" x="213.623047"/>
     <use xlink:href="#DejaVuSans-30" x="277.246094"/>
     <use xlink:href="#DejaVuSans-41" x="340.869141"/>
    </g>
   </g>
  </g>
  <g id="axes_2">
   <g id="line2d_2">
    <path d="M 291.867594 222.607765 
L 288.41019 222.467766 
L 285.082644 222.122638 
L 282.38234 221.075449 
L 280.344857 219.416361 
L 278.580687 216.97024 
L 276.855776 213.671623 
L 275.305825 209.981718 
L 273.461604 205.811734 
L 271.262129 201.899693 
L 268.738883 198.044258 
L 266.006805 194.97634 
L 262.657003 191.996638 
L 259.447143 188.761429 
L 256.42093 185.527444 
L 253.551385 182.273451 
L 250.471665 178.854826 
L 247.673662 175.439502 
L 244.939276 172.06697 
L 242.613789 168.701656 
L 240.63565 164.767578 
L 239.212725 160.959792 
L 238.180661 156.737693 
L 237.428447 152.494653 
L 236.705809 148.028695 
L 236.262953 143.806493 
L 236.004572 139.321801 
L 235.839052 134.823054 
L 235.618862 130.675989 
L 235.520856 126.569849 
L 235.804328 122.477692 
L 236.057875 118.137067 
L 236.449194 113.6749 
L 236.604075 109.751357 
L 236.827867 106.077249 
L 237.472216 102.097231 
L 238.42243 98.276356 
L 239.316129 94.571625 
L 240.288919 90.925744 
L 241.396463 87.54051 
L 242.322229 84.132332 
L 243.719134 81.301174 
L 245.694082 78.233012 
L 248.396779 75.308057 
L 251.223745 72.687316 
L 254.464621 70.807587 
L 258.189017 69.964175 
L 262.605245 69.431088 
L 266.584257 69.153595 
L 271.058441 68.570176 
L 275.51728 68.272235 
L 279.71667 68.282678 
L 284.172097 68.558204 
L 288.685321 68.824976 
L 293.147634 69.073054 
L 297.646725 69.585368 
L 302.273033 70.697353 
L 306.493466 71.935938 
L 310.841511 72.798565 
L 314.75988 74.800978 
L 318.76108 77.456515 
L 322.512626 80.093879 
L 325.901632 82.985544 
L 329.253716 86.328027 
L 332.574206 89.510368 
L 335.630302 92.795765 
L 338.389156 96.697123 
L 341.530639 100.355022 
L 344.955648 104.593014 
L 347.640143 108.619474 
L 350.227704 113.349976 
L 351.90898 117.706414 
L 352.977977 122.363772 
L 353.753906 127.428237 
L 354.439819 132.938187 
L 354.688834 137.598228 
L 354.879144 142.564199 
L 354.556741 147.447033 
L 353.921098 152.466627 
L 353.212722 157.314849 
L 351.944971 162.042422 
L 350.804118 166.695969 
L 349.424151 171.560136 
L 347.796226 176.128393 
L 345.856272 180.521721 
L 343.880787 184.618057 
L 341.664181 188.209972 
L 339.220726 191.993287 
L 336.305869 195.523605 
L 333.147877 199.174058 
L 329.511417 201.883506 
L 325.767587 204.492448 
L 322.385317 206.742789 
L 319.00269 209.317931 
L 315.172887 212.429053 
L 311.278849 214.884377 
L 307.434507 217.1016 
L 303.415487 219.151883 
L 299.619857 220.88109 
L 295.796579 222.216627 
" clip-path="url(#p9c4db88d9e)" style="fill: none; stroke: #ff7f0e; stroke-width: 1.5; stroke-linecap: square"/>
   </g>
   <g id="text_2">
    <!-- MCF7 -->
    <g transform="translate(267.475 28.56) scale(0.2 -0.2)">
     <defs>
      <path id="DejaVuSans-37" d="M 525 4666 
L 3525 4666 
L 3525 4397 
L 1831 0 
L 1172 0 
L 2766 4134 
L 525 4134 
L 525 4666 
z
" transform="scale(0.015625)"/>
     </defs>
     <use xlink:href="#DejaVuSans-4d"/>
     <use xlink:href="#DejaVuSans-43" x="86.279297"/>
     <use xlink:href="#DejaVuSans-46" x="156.103516"/>
     <use xlink:href="#DejaVuSans-37" x="213.623047"/>
    </g>
   </g>
  </g>
  <g id="axes_3">
   <g id="line2d_3">
    <path d="M 463.074408 246.24 
L 460.003195 245.468444 
L 457.181663 243.694303 
L 454.387453 241.07212 
L 451.988031 237.714607 
L 449.810395 233.863025 
L 448.246591 229.560399 
L 446.343238 224.750158 
L 444.563572 219.676962 
L 442.208552 214.828288 
L 439.399435 209.810451 
L 436.822259 205.105904 
L 433.85573 200.71192 
L 431.100881 196.417008 
L 428.248766 191.925655 
L 425.417252 186.841413 
L 422.582293 182.038198 
L 419.723237 177.844344 
L 416.88204 173.754836 
L 414.617436 169.529003 
L 412.156139 164.535088 
L 410.374178 159.477232 
L 408.806528 154.304888 
L 407.531669 149.504399 
L 406.549038 144.700372 
L 405.596013 140.228688 
L 404.768233 135.306517 
L 403.741021 129.969979 
L 402.805927 124.683205 
L 401.922244 119.841544 
L 401.32053 114.712818 
L 400.576273 109.458645 
L 399.993158 104.928978 
L 399.51156 100.118058 
L 399.068085 95.018884 
L 398.831621 90.187517 
L 399.48566 85.362112 
L 399.926179 80.712842 
L 400.735435 75.895644 
L 401.795705 71.623859 
L 402.732285 67.537577 
L 403.62537 63.313326 
L 404.745298 59.380065 
L 406.569317 55.421661 
L 409.461551 52.261205 
L 412.482091 49.999711 
L 415.64524 48.303932 
L 419.296076 47.038939 
L 423.445888 45.765514 
L 427.703253 45.039897 
L 432.106549 44.64 
L 436.716309 45.395251 
L 441.574393 46.604412 
L 446.153524 47.926724 
L 450.701277 49.337829 
L 455.362054 50.568434 
L 459.937522 51.872803 
L 464.561769 53.606104 
L 468.818036 55.940166 
L 472.840618 59.294426 
L 476.385602 63.081777 
L 479.6475 66.676726 
L 482.792737 70.664508 
L 485.773533 75.318911 
L 488.308078 79.778055 
L 491.223974 84.594134 
L 493.851904 89.233189 
L 496.386559 93.98826 
L 498.851637 98.881073 
L 500.90074 104.435362 
L 502.641642 110.316225 
L 503.764026 116.593937 
L 504.460807 123.569478 
L 505.307182 130.163629 
L 505.944802 137.435148 
L 506.420517 143.830595 
L 506.674261 149.644682 
L 506.618009 155.187349 
L 506.54236 160.641554 
L 506.401392 166.236993 
L 505.80314 172.190944 
L 505.007635 178.173723 
L 504.375717 183.894297 
L 503.611179 188.940729 
L 502.689456 194.114774 
L 501.515097 199.05063 
L 500.264042 202.651663 
L 498.705977 207.234348 
L 496.746456 211.997495 
L 494.86254 216.458341 
L 492.490633 220.397644 
L 489.75821 224.083875 
L 487.006576 227.414845 
L 483.903495 230.899414 
L 481.362617 234.502999 
L 478.957048 237.857513 
L 476.138005 240.903444 
L 473.26237 243.512642 
L 469.929278 245.075373 
L 466.398294 245.960508 
" clip-path="url(#p06eb5fcf53)" style="fill: none; stroke: #ff7f0e; stroke-width: 1.5; stroke-linecap: square"/>
   </g>
   <g id="text_3">
    <!-- MDA_MB_231 -->
    <g transform="translate(385.182629 28.56) scale(0.2 -0.2)">
     <defs>
      <path id="DejaVuSans-44" d="M 1259 4147 
L 1259 519 
L 2022 519 
Q 2988 519 3436 956 
Q 3884 1394 3884 2338 
Q 3884 3275 3436 3711 
Q 2988 4147 2022 4147 
L 1259 4147 
z
M 628 4666 
L 1925 4666 
Q 3281 4666 3915 4102 
Q 4550 3538 4550 2338 
Q 4550 1131 3912 565 
Q 3275 0 1925 0 
L 628 0 
L 628 4666 
z
" transform="scale(0.015625)"/>
      <path id="DejaVuSans-5f" d="M 3263 -1063 
L 3263 -1509 
L -63 -1509 
L -63 -1063 
L 3263 -1063 
z
" transform="scale(0.015625)"/>
      <path id="DejaVuSans-42" d="M 1259 2228 
L 1259 519 
L 2272 519 
Q 2781 519 3026 730 
Q 3272 941 3272 1375 
Q 3272 1813 3026 2020 
Q 2781 2228 2272 2228 
L 1259 2228 
z
M 1259 4147 
L 1259 2741 
L 2194 2741 
Q 2656 2741 2882 2914 
Q 3109 3088 3109 3444 
Q 3109 3797 2882 3972 
Q 2656 4147 2194 4147 
L 1259 4147 
z
M 628 4666 
L 2241 4666 
Q 2963 4666 3353 4366 
Q 3744 4066 3744 3513 
Q 3744 3084 3544 2831 
Q 3344 2578 2956 2516 
Q 3422 2416 3680 2098 
Q 3938 1781 3938 1306 
Q 3938 681 3513 340 
Q 3088 0 2303 0 
L 628 0 
L 628 4666 
z
" transform="scale(0.015625)"/>
      <path id="DejaVuSans-32" d="M 1228 531 
L 3431 531 
L 3431 0 
L 469 0 
L 469 531 
Q 828 903 1448 1529 
Q 2069 2156 2228 2338 
Q 2531 2678 2651 2914 
Q 2772 3150 2772 3378 
Q 2772 3750 2511 3984 
Q 2250 4219 1831 4219 
Q 1534 4219 1204 4116 
Q 875 4013 500 3803 
L 500 4441 
Q 881 4594 1212 4672 
Q 1544 4750 1819 4750 
Q 2544 4750 2975 4387 
Q 3406 4025 3406 3419 
Q 3406 3131 3298 2873 
Q 3191 2616 2906 2266 
Q 2828 2175 2409 1742 
Q 1991 1309 1228 531 
z
" transform="scale(0.015625)"/>
      <path id="DejaVuSans-33" d="M 2597 2516 
Q 3050 2419 3304 2112 
Q 3559 1806 3559 1356 
Q 3559 666 3084 287 
Q 2609 -91 1734 -91 
Q 1441 -91 1130 -33 
Q 819 25 488 141 
L 488 750 
Q 750 597 1062 519 
Q 1375 441 1716 441 
Q 2309 441 2620 675 
Q 2931 909 2931 1356 
Q 2931 1769 2642 2001 
Q 2353 2234 1838 2234 
L 1294 2234 
L 1294 2753 
L 1863 2753 
Q 2328 2753 2575 2939 
Q 2822 3125 2822 3475 
Q 2822 3834 2567 4026 
Q 2313 4219 1838 4219 
Q 1578 4219 1281 4162 
Q 984 4106 628 3988 
L 628 4550 
Q 988 4650 1302 4700 
Q 1616 4750 1894 4750 
Q 2613 4750 3031 4423 
Q 3450 4097 3450 3541 
Q 3450 3153 3228 2886 
Q 3006 2619 2597 2516 
z
" transform="scale(0.015625)"/>
     </defs>
     <use xlink:href="#DejaVuSans-4d"/>
     <use xlink:href="#DejaVuSans-44" x="86.279297"/>
     <use xlink:href="#DejaVuSans-41" x="161.53125"/>
     <use xlink:href="#DejaVuSans-5f" x="229.939453"/>
     <use xlink:href="#DejaVuSans-4d" x="279.939453"/>
     <use xlink:href="#DejaVuSans-42" x="366.21875"/>
     <use xlink:href="#DejaVuSans-5f" x="434.822266"/>
     <use xlink:href="#DejaVuSans-32" x="484.822266"/>
     <use xlink:href="#DejaVuSans-33" x="548.445312"/>
     <use xlink:href="#DejaVuSans-31" x="612.068359"/>
    </g>
   </g>
  </g>
 </g>
 <defs>
  <clipPath id="pda5551b44a">
   <rect x="72" y="34.56" width="131.294118" height="221.76"/>
  </clipPath>
  <clipPath id="p9c4db88d9e">
   <rect x="229.552941" y="34.56" width="131.294118" height="221.76"/>
  </clipPath>
  <clipPath id="p06eb5fcf53">
   <rect x="387.105882" y="34.56" width="131.294118" height="221.76"/>
  </clipPath>
 </defs>
</svg>
