<?xml version="1.0" encoding="utf-8" standalone="no"?>
<!DOCTYPE svg PUBLIC "-//W3C//DTD SVG 1.1//EN"
  "http://www.w3.org/Graphics/SVG/1.1/DTD/svg11.dtd">
<svg xmlns:xlink="http://www.w3.org/1999/xlink" width="864pt" height="288pt" viewBox="0 0 864 288" xmlns="http://www.w3.org/2000/svg" version="1.1">
 <metadata>
  <rdf:RDF xmlns:dc="http://purl.org/dc/elements/1.1/" xmlns:cc="http://creativecommons.org/ns#" xmlns:rdf="http://www.w3.org/1999/02/22-rdf-syntax-ns#">
   <cc:Work>
    <dc:type rdf:resource="http://purl.org/dc/dcmitype/StillImage"/>
    <dc:date>2023-12-13T22:54:17.609686</dc:date>
    <dc:format>image/svg+xml</dc:format>
    <dc:creator>
     <cc:Agent>
      <dc:title>Matplotlib v3.6.2, https://matplotlib.org/</dc:title>
     </cc:Agent>
    </dc:creator>
   </cc:Work>
  </rdf:RDF>
 </metadata>
 <defs>
  <style type="text/css">*{stroke-linejoin: round; stroke-linecap: butt}</style>
 </defs>
 <g id="figure_1">
  <g id="patch_1">
   <path d="M 0 288 
L 864 288 
L 864 0 
L 0 0 
z
" style="fill: #ffffff"/>
  </g>
  <g id="axes_1">
   <g id="patch_2">
    <path d="M 48.074375 260.521875 
L 284.4 260.521875 
L 284.4 44.755469 
L 48.074375 44.755469 
z
" style="fill: #ffffff"/>
   </g>
   <g id="patch_3">
    <path d="M 96.059113 260.521875 
L 107.269583 260.521875 
L 107.269583 159.712186 
L 96.059113 159.712186 
z
" clip-path="url(#p11ff18d2ae)" style="fill: #1f77b4; opacity: 0.4"/>
   </g>
   <g id="patch_4">
    <path d="M 107.269583 260.521875 
L 118.480053 260.521875 
L 118.480053 134.897494 
L 107.269583 134.897494 
z
" clip-path="url(#p11ff18d2ae)" style="fill: #1f77b4; opacity: 0.4"/>
   </g>
   <g id="patch_5">
    <path d="M 118.480053 260.521875 
L 129.690523 260.521875 
L 129.690523 196.934225 
L 118.480053 196.934225 
z
" clip-path="url(#p11ff18d2ae)" style="fill: #1f77b4; opacity: 0.4"/>
   </g>
   <g id="patch_6">
    <path d="M 129.690523 260.521875 
L 140.900993 260.521875 
L 140.900993 220.198 
L 129.690523 220.198 
z
" clip-path="url(#p11ff18d2ae)" style="fill: #1f77b4; opacity: 0.4"/>
   </g>
   <g id="patch_7">
    <path d="M 140.900993 260.521875 
L 152.111463 260.521875 
L 152.111463 249.665447 
L 140.900993 249.665447 
z
" clip-path="url(#p11ff18d2ae)" style="fill: #1f77b4; opacity: 0.4"/>
   </g>
   <g id="patch_8">
    <path d="M 152.111463 260.521875 
L 163.321934 260.521875 
L 163.321934 252.767284 
L 152.111463 252.767284 
z
" clip-path="url(#p11ff18d2ae)" style="fill: #1f77b4; opacity: 0.4"/>
   </g>
   <g id="patch_9">
    <path d="M 163.321934 260.521875 
L 174.532404 260.521875 
L 174.532404 258.970957 
L 163.321934 258.970957 
z
" clip-path="url(#p11ff18d2ae)" style="fill: #1f77b4; opacity: 0.4"/>
   </g>
   <g id="patch_10">
    <path d="M 174.532404 260.521875 
L 185.742874 260.521875 
L 185.742874 260.521875 
L 174.532404 260.521875 
z
" clip-path="url(#p11ff18d2ae)" style="fill: #1f77b4; opacity: 0.4"/>
   </g>
   <g id="patch_11">
    <path d="M 185.742874 260.521875 
L 196.953344 260.521875 
L 196.953344 260.521875 
L 185.742874 260.521875 
z
" clip-path="url(#p11ff18d2ae)" style="fill: #1f77b4; opacity: 0.4"/>
   </g>
   <g id="patch_12">
    <path d="M 196.953344 260.521875 
L 208.163814 260.521875 
L 208.163814 260.521875 
L 196.953344 260.521875 
z
" clip-path="url(#p11ff18d2ae)" style="fill: #1f77b4; opacity: 0.4"/>
   </g>
   <g id="patch_13">
    <path d="M 208.163814 260.521875 
L 219.374284 260.521875 
L 219.374284 260.521875 
L 208.163814 260.521875 
z
" clip-path="url(#p11ff18d2ae)" style="fill: #1f77b4; opacity: 0.4"/>
   </g>
   <g id="patch_14">
    <path d="M 219.374284 260.521875 
L 230.584754 260.521875 
L 230.584754 260.521875 
L 219.374284 260.521875 
z
" clip-path="url(#p11ff18d2ae)" style="fill: #1f77b4; opacity: 0.4"/>
   </g>
   <g id="patch_15">
    <path d="M 230.584754 260.521875 
L 241.795224 260.521875 
L 241.795224 260.521875 
L 230.584754 260.521875 
z
" clip-path="url(#p11ff18d2ae)" style="fill: #1f77b4; opacity: 0.4"/>
   </g>
   <g id="patch_16">
    <path d="M 241.795224 260.521875 
L 253.005694 260.521875 
L 253.005694 260.521875 
L 241.795224 260.521875 
z
" clip-path="url(#p11ff18d2ae)" style="fill: #1f77b4; opacity: 0.4"/>
   </g>
   <g id="patch_17">
    <path d="M 253.005694 260.521875 
L 264.216164 260.521875 
L 264.216164 260.521875 
L 253.005694 260.521875 
z
" clip-path="url(#p11ff18d2ae)" style="fill: #1f77b4; opacity: 0.4"/>
   </g>
   <g id="patch_18">
    <path d="M 264.216164 260.521875 
L 275.426634 260.521875 
L 275.426634 260.521875 
L 264.216164 260.521875 
z
" clip-path="url(#p11ff18d2ae)" style="fill: #1f77b4; opacity: 0.4"/>
   </g>
   <g id="patch_19">
    <path d="M 275.426634 260.521875 
L 286.637104 260.521875 
L 286.637104 260.521875 
L 275.426634 260.521875 
z
" clip-path="url(#p11ff18d2ae)" style="fill: #1f77b4; opacity: 0.4"/>
   </g>
   <g id="patch_20">
    <path d="M 286.637104 260.521875 
L 297.847574 260.521875 
L 297.847574 260.521875 
L 286.637104 260.521875 
z
" clip-path="url(#p11ff18d2ae)" style="fill: #1f77b4; opacity: 0.4"/>
   </g>
   <g id="patch_21">
    <path d="M 297.847574 260.521875 
L 309.058044 260.521875 
L 309.058044 260.521875 
L 297.847574 260.521875 
z
" clip-path="url(#p11ff18d2ae)" style="fill: #1f77b4; opacity: 0.4"/>
   </g>
   <g id="patch_22">
    <path d="M 309.058044 260.521875 
L 320.268515 260.521875 
L 320.268515 258.970957 
L 309.058044 258.970957 
z
" clip-path="url(#p11ff18d2ae)" style="fill: #1f77b4; opacity: 0.4"/>
   </g>
   <g id="matplotlib.axis_1">
    <g id="xtick_1">
     <g id="line2d_1">
      <defs>
       <path id="m180a50c036" d="M 0 0 
L 0 3.5 
" style="stroke: #000000; stroke-width: 0.8"/>
      </defs>
      <g>
       <use xlink:href="#m180a50c036" x="69.697769" y="260.521875" style="stroke: #000000; stroke-width: 0.8"/>
      </g>
     </g>
     <g id="text_1">
      <!-- 0.4 -->
      <g transform="translate(61.746206 275.120313) scale(0.1 -0.1)">
       <defs>
        <path id="DejaVuSans-30" d="M 2034 4250 
Q 1547 4250 1301 3770 
Q 1056 3291 1056 2328 
Q 1056 1369 1301 889 
Q 1547 409 2034 409 
Q 2525 409 2770 889 
Q 3016 1369 3016 2328 
Q 3016 3291 2770 3770 
Q 2525 4250 2034 4250 
z
M 2034 4750 
Q 2819 4750 3233 4129 
Q 3647 3509 3647 2328 
Q 3647 1150 3233 529 
Q 2819 -91 2034 -91 
Q 1250 -91 836 529 
Q 422 1150 422 2328 
Q 422 3509 836 4129 
Q 1250 4750 2034 4750 
z
" transform="scale(0.015625)"/>
        <path id="DejaVuSans-2e" d="M 684 794 
L 1344 794 
L 1344 0 
L 684 0 
L 684 794 
z
" transform="scale(0.015625)"/>
        <path id="DejaVuSans-34" d="M 2419 4116 
L 825 1625 
L 2419 1625 
L 2419 4116 
z
M 2253 4666 
L 3047 4666 
L 3047 1625 
L 3713 1625 
L 3713 1100 
L 3047 1100 
L 3047 0 
L 2419 0 
L 2419 1100 
L 313 1100 
L 313 1709 
L 2253 4666 
z
" transform="scale(0.015625)"/>
       </defs>
       <use xlink:href="#DejaVuSans-30"/>
       <use xlink:href="#DejaVuSans-2e" x="63.623047"/>
       <use xlink:href="#DejaVuSans-34" x="95.410156"/>
      </g>
     </g>
    </g>
    <g id="xtick_2">
     <g id="line2d_2">
      <g>
       <use xlink:href="#m180a50c036" x="120.914611" y="260.521875" style="stroke: #000000; stroke-width: 0.8"/>
      </g>
     </g>
     <g id="text_2">
      <!-- 0.6 -->
      <g transform="translate(112.963049 275.120313) scale(0.1 -0.1)">
       <defs>
        <path id="DejaVuSans-36" d="M 2113 2584 
Q 1688 2584 1439 2293 
Q 1191 2003 1191 1497 
Q 1191 994 1439 701 
Q 1688 409 2113 409 
Q 2538 409 2786 701 
Q 3034 994 3034 1497 
Q 3034 2003 2786 2293 
Q 2538 2584 2113 2584 
z
M 3366 4563 
L 3366 3988 
Q 3128 4100 2886 4159 
Q 2644 4219 2406 4219 
Q 1781 4219 1451 3797 
Q 1122 3375 1075 2522 
Q 1259 2794 1537 2939 
Q 1816 3084 2150 3084 
Q 2853 3084 3261 2657 
Q 3669 2231 3669 1497 
Q 3669 778 3244 343 
Q 2819 -91 2113 -91 
Q 1303 -91 875 529 
Q 447 1150 447 2328 
Q 447 3434 972 4092 
Q 1497 4750 2381 4750 
Q 2619 4750 2861 4703 
Q 3103 4656 3366 4563 
z
" transform="scale(0.015625)"/>
       </defs>
       <use xlink:href="#DejaVuSans-30"/>
       <use xlink:href="#DejaVuSans-2e" x="63.623047"/>
       <use xlink:href="#DejaVuSans-36" x="95.410156"/>
      </g>
     </g>
    </g>
    <g id="xtick_3">
     <g id="line2d_3">
      <g>
       <use xlink:href="#m180a50c036" x="172.131454" y="260.521875" style="stroke: #000000; stroke-width: 0.8"/>
      </g>
     </g>
     <g id="text_3">
      <!-- 0.8 -->
      <g transform="translate(164.179891 275.120313) scale(0.1 -0.1)">
       <defs>
        <path id="DejaVuSans-38" d="M 2034 2216 
Q 1584 2216 1326 1975 
Q 1069 1734 1069 1313 
Q 1069 891 1326 650 
Q 1584 409 2034 409 
Q 2484 409 2743 651 
Q 3003 894 3003 1313 
Q 3003 1734 2745 1975 
Q 2488 2216 2034 2216 
z
M 1403 2484 
Q 997 2584 770 2862 
Q 544 3141 544 3541 
Q 544 4100 942 4425 
Q 1341 4750 2034 4750 
Q 2731 4750 3128 4425 
Q 3525 4100 3525 3541 
Q 3525 3141 3298 2862 
Q 3072 2584 2669 2484 
Q 3125 2378 3379 2068 
Q 3634 1759 3634 1313 
Q 3634 634 3220 271 
Q 2806 -91 2034 -91 
Q 1263 -91 848 271 
Q 434 634 434 1313 
Q 434 1759 690 2068 
Q 947 2378 1403 2484 
z
M 1172 3481 
Q 1172 3119 1398 2916 
Q 1625 2713 2034 2713 
Q 2441 2713 2670 2916 
Q 2900 3119 2900 3481 
Q 2900 3844 2670 4047 
Q 2441 4250 2034 4250 
Q 1625 4250 1398 4047 
Q 1172 3844 1172 3481 
z
" transform="scale(0.015625)"/>
       </defs>
       <use xlink:href="#DejaVuSans-30"/>
       <use xlink:href="#DejaVuSans-2e" x="63.623047"/>
       <use xlink:href="#DejaVuSans-38" x="95.410156"/>
      </g>
     </g>
    </g>
    <g id="xtick_4">
     <g id="line2d_4">
      <g>
       <use xlink:href="#m180a50c036" x="223.348296" y="260.521875" style="stroke: #000000; stroke-width: 0.8"/>
      </g>
     </g>
     <g id="text_4">
      <!-- 1.0 -->
      <g transform="translate(215.396734 275.120313) scale(0.1 -0.1)">
       <defs>
        <path id="DejaVuSans-31" d="M 794 531 
L 1825 531 
L 1825 4091 
L 703 3866 
L 703 4441 
L 1819 4666 
L 2450 4666 
L 2450 531 
L 3481 531 
L 3481 0 
L 794 0 
L 794 531 
z
" transform="scale(0.015625)"/>
       </defs>
       <use xlink:href="#DejaVuSans-31"/>
       <use xlink:href="#DejaVuSans-2e" x="63.623047"/>
       <use xlink:href="#DejaVuSans-30" x="95.410156"/>
      </g>
     </g>
    </g>
    <g id="xtick_5">
     <g id="line2d_5">
      <g>
       <use xlink:href="#m180a50c036" x="274.565139" y="260.521875" style="stroke: #000000; stroke-width: 0.8"/>
      </g>
     </g>
     <g id="text_5">
      <!-- 1.2 -->
      <g transform="translate(266.613576 275.120313) scale(0.1 -0.1)">
       <defs>
        <path id="DejaVuSans-32" d="M 1228 531 
L 3431 531 
L 3431 0 
L 469 0 
L 469 531 
Q 828 903 1448 1529 
Q 2069 2156 2228 2338 
Q 2531 2678 2651 2914 
Q 2772 3150 2772 3378 
Q 2772 3750 2511 3984 
Q 2250 4219 1831 4219 
Q 1534 4219 1204 4116 
Q 875 4013 500 3803 
L 500 4441 
Q 881 4594 1212 4672 
Q 1544 4750 1819 4750 
Q 2544 4750 2975 4387 
Q 3406 4025 3406 3419 
Q 3406 3131 3298 2873 
Q 3191 2616 2906 2266 
Q 2828 2175 2409 1742 
Q 1991 1309 1228 531 
z
" transform="scale(0.015625)"/>
       </defs>
       <use xlink:href="#DejaVuSans-31"/>
       <use xlink:href="#DejaVuSans-2e" x="63.623047"/>
       <use xlink:href="#DejaVuSans-32" x="95.410156"/>
      </g>
     </g>
    </g>
   </g>
   <g id="matplotlib.axis_2">
    <g id="ytick_1">
     <g id="line2d_6">
      <defs>
       <path id="ma1b751fd97" d="M 0 0 
L -3.5 0 
" style="stroke: #000000; stroke-width: 0.8"/>
      </defs>
      <g>
       <use xlink:href="#ma1b751fd97" x="48.074375" y="260.521875" style="stroke: #000000; stroke-width: 0.8"/>
      </g>
     </g>
     <g id="text_6">
      <!-- 0 -->
      <g transform="translate(34.711875 264.321094) scale(0.1 -0.1)">
       <use xlink:href="#DejaVuSans-30"/>
      </g>
     </g>
    </g>
    <g id="ytick_2">
     <g id="line2d_7">
      <g>
       <use xlink:href="#ma1b751fd97" x="48.074375" y="229.698103" style="stroke: #000000; stroke-width: 0.8"/>
      </g>
     </g>
     <g id="text_7">
      <!-- 2 -->
      <g transform="translate(34.711875 233.497321) scale(0.1 -0.1)">
       <use xlink:href="#DejaVuSans-32"/>
      </g>
     </g>
    </g>
    <g id="ytick_3">
     <g id="line2d_8">
      <g>
       <use xlink:href="#ma1b751fd97" x="48.074375" y="198.87433" style="stroke: #000000; stroke-width: 0.8"/>
      </g>
     </g>
     <g id="text_8">
      <!-- 4 -->
      <g transform="translate(34.711875 202.673549) scale(0.1 -0.1)">
       <use xlink:href="#DejaVuSans-34"/>
      </g>
     </g>
    </g>
    <g id="ytick_4">
     <g id="line2d_9">
      <g>
       <use xlink:href="#ma1b751fd97" x="48.074375" y="168.050558" style="stroke: #000000; stroke-width: 0.8"/>
      </g>
     </g>
     <g id="text_9">
      <!-- 6 -->
      <g transform="translate(34.711875 171.849777) scale(0.1 -0.1)">
       <use xlink:href="#DejaVuSans-36"/>
      </g>
     </g>
    </g>
    <g id="ytick_5">
     <g id="line2d_10">
      <g>
       <use xlink:href="#ma1b751fd97" x="48.074375" y="137.226786" style="stroke: #000000; stroke-width: 0.8"/>
      </g>
     </g>
     <g id="text_10">
      <!-- 8 -->
      <g transform="translate(34.711875 141.026004) scale(0.1 -0.1)">
       <use xlink:href="#DejaVuSans-38"/>
      </g>
     </g>
    </g>
    <g id="ytick_6">
     <g id="line2d_11">
      <g>
       <use xlink:href="#ma1b751fd97" x="48.074375" y="106.403013" style="stroke: #000000; stroke-width: 0.8"/>
      </g>
     </g>
     <g id="text_11">
      <!-- 10 -->
      <g transform="translate(28.349375 110.202232) scale(0.1 -0.1)">
       <use xlink:href="#DejaVuSans-31"/>
       <use xlink:href="#DejaVuSans-30" x="63.623047"/>
      </g>
     </g>
    </g>
    <g id="ytick_7">
     <g id="line2d_12">
      <g>
       <use xlink:href="#ma1b751fd97" x="48.074375" y="75.579241" style="stroke: #000000; stroke-width: 0.8"/>
      </g>
     </g>
     <g id="text_12">
      <!-- 12 -->
      <g transform="translate(28.349375 79.37846) scale(0.1 -0.1)">
       <use xlink:href="#DejaVuSans-31"/>
       <use xlink:href="#DejaVuSans-32" x="63.623047"/>
      </g>
     </g>
    </g>
    <g id="ytick_8">
     <g id="line2d_13">
      <g>
       <use xlink:href="#ma1b751fd97" x="48.074375" y="44.755469" style="stroke: #000000; stroke-width: 0.8"/>
      </g>
     </g>
     <g id="text_13">
      <!-- 14 -->
      <g transform="translate(28.349375 48.554687) scale(0.1 -0.1)">
       <use xlink:href="#DejaVuSans-31"/>
       <use xlink:href="#DejaVuSans-34" x="63.623047"/>
      </g>
     </g>
    </g>
    <g id="text_14">
     <!-- Fraction of cells -->
     <g transform="translate(21.437812 207.470547) rotate(-90) scale(0.14 -0.14)">
      <defs>
       <path id="DejaVuSans-46" d="M 628 4666 
L 3309 4666 
L 3309 4134 
L 1259 4134 
L 1259 2759 
L 3109 2759 
L 3109 2228 
L 1259 2228 
L 1259 0 
L 628 0 
L 628 4666 
z
" transform="scale(0.015625)"/>
       <path id="DejaVuSans-72" d="M 2631 2963 
Q 2534 3019 2420 3045 
Q 2306 3072 2169 3072 
Q 1681 3072 1420 2755 
Q 1159 2438 1159 1844 
L 1159 0 
L 581 0 
L 581 3500 
L 1159 3500 
L 1159 2956 
Q 1341 3275 1631 3429 
Q 1922 3584 2338 3584 
Q 2397 3584 2469 3576 
Q 2541 3569 2628 3553 
L 2631 2963 
z
" transform="scale(0.015625)"/>
       <path id="DejaVuSans-61" d="M 2194 1759 
Q 1497 1759 1228 1600 
Q 959 1441 959 1056 
Q 959 750 1161 570 
Q 1363 391 1709 391 
Q 2188 391 2477 730 
Q 2766 1069 2766 1631 
L 2766 1759 
L 2194 1759 
z
M 3341 1997 
L 3341 0 
L 2766 0 
L 2766 531 
Q 2569 213 2275 61 
Q 1981 -91 1556 -91 
Q 1019 -91 701 211 
Q 384 513 384 1019 
Q 384 1609 779 1909 
Q 1175 2209 1959 2209 
L 2766 2209 
L 2766 2266 
Q 2766 2663 2505 2880 
Q 2244 3097 1772 3097 
Q 1472 3097 1187 3025 
Q 903 2953 641 2809 
L 641 3341 
Q 956 3463 1253 3523 
Q 1550 3584 1831 3584 
Q 2591 3584 2966 3190 
Q 3341 2797 3341 1997 
z
" transform="scale(0.015625)"/>
       <path id="DejaVuSans-63" d="M 3122 3366 
L 3122 2828 
Q 2878 2963 2633 3030 
Q 2388 3097 2138 3097 
Q 1578 3097 1268 2742 
Q 959 2388 959 1747 
Q 959 1106 1268 751 
Q 1578 397 2138 397 
Q 2388 397 2633 464 
Q 2878 531 3122 666 
L 3122 134 
Q 2881 22 2623 -34 
Q 2366 -91 2075 -91 
Q 1284 -91 818 406 
Q 353 903 353 1747 
Q 353 2603 823 3093 
Q 1294 3584 2113 3584 
Q 2378 3584 2631 3529 
Q 2884 3475 3122 3366 
z
" transform="scale(0.015625)"/>
       <path id="DejaVuSans-74" d="M 1172 4494 
L 1172 3500 
L 2356 3500 
L 2356 3053 
L 1172 3053 
L 1172 1153 
Q 1172 725 1289 603 
Q 1406 481 1766 481 
L 2356 481 
L 2356 0 
L 1766 0 
Q 1100 0 847 248 
Q 594 497 594 1153 
L 594 3053 
L 172 3053 
L 172 3500 
L 594 3500 
L 594 4494 
L 1172 4494 
z
" transform="scale(0.015625)"/>
       <path id="DejaVuSans-69" d="M 603 3500 
L 1178 3500 
L 1178 0 
L 603 0 
L 603 3500 
z
M 603 4863 
L 1178 4863 
L 1178 4134 
L 603 4134 
L 603 4863 
z
" transform="scale(0.015625)"/>
       <path id="DejaVuSans-6f" d="M 1959 3097 
Q 1497 3097 1228 2736 
Q 959 2375 959 1747 
Q 959 1119 1226 758 
Q 1494 397 1959 397 
Q 2419 397 2687 759 
Q 2956 1122 2956 1747 
Q 2956 2369 2687 2733 
Q 2419 3097 1959 3097 
z
M 1959 3584 
Q 2709 3584 3137 3096 
Q 3566 2609 3566 1747 
Q 3566 888 3137 398 
Q 2709 -91 1959 -91 
Q 1206 -91 779 398 
Q 353 888 353 1747 
Q 353 2609 779 3096 
Q 1206 3584 1959 3584 
z
" transform="scale(0.015625)"/>
       <path id="DejaVuSans-6e" d="M 3513 2113 
L 3513 0 
L 2938 0 
L 2938 2094 
Q 2938 2591 2744 2837 
Q 2550 3084 2163 3084 
Q 1697 3084 1428 2787 
Q 1159 2491 1159 1978 
L 1159 0 
L 581 0 
L 581 3500 
L 1159 3500 
L 1159 2956 
Q 1366 3272 1645 3428 
Q 1925 3584 2291 3584 
Q 2894 3584 3203 3211 
Q 3513 2838 3513 2113 
z
" transform="scale(0.015625)"/>
       <path id="DejaVuSans-20" transform="scale(0.015625)"/>
       <path id="DejaVuSans-66" d="M 2375 4863 
L 2375 4384 
L 1825 4384 
Q 1516 4384 1395 4259 
Q 1275 4134 1275 3809 
L 1275 3500 
L 2222 3500 
L 2222 3053 
L 1275 3053 
L 1275 0 
L 697 0 
L 697 3053 
L 147 3053 
L 147 3500 
L 697 3500 
L 697 3744 
Q 697 4328 969 4595 
Q 1241 4863 1831 4863 
L 2375 4863 
z
" transform="scale(0.015625)"/>
       <path id="DejaVuSans-65" d="M 3597 1894 
L 3597 1613 
L 953 1613 
Q 991 1019 1311 708 
Q 1631 397 2203 397 
Q 2534 397 2845 478 
Q 3156 559 3463 722 
L 3463 178 
Q 3153 47 2828 -22 
Q 2503 -91 2169 -91 
Q 1331 -91 842 396 
Q 353 884 353 1716 
Q 353 2575 817 3079 
Q 1281 3584 2069 3584 
Q 2775 3584 3186 3129 
Q 3597 2675 3597 1894 
z
M 3022 2063 
Q 3016 2534 2758 2815 
Q 2500 3097 2075 3097 
Q 1594 3097 1305 2825 
Q 1016 2553 972 2059 
L 3022 2063 
z
" transform="scale(0.015625)"/>
       <path id="DejaVuSans-6c" d="M 603 4863 
L 1178 4863 
L 1178 0 
L 603 0 
L 603 4863 
z
" transform="scale(0.015625)"/>
       <path id="DejaVuSans-73" d="M 2834 3397 
L 2834 2853 
Q 2591 2978 2328 3040 
Q 2066 3103 1784 3103 
Q 1356 3103 1142 2972 
Q 928 2841 928 2578 
Q 928 2378 1081 2264 
Q 1234 2150 1697 2047 
L 1894 2003 
Q 2506 1872 2764 1633 
Q 3022 1394 3022 966 
Q 3022 478 2636 193 
Q 2250 -91 1575 -91 
Q 1294 -91 989 -36 
Q 684 19 347 128 
L 347 722 
Q 666 556 975 473 
Q 1284 391 1588 391 
Q 1994 391 2212 530 
Q 2431 669 2431 922 
Q 2431 1156 2273 1281 
Q 2116 1406 1581 1522 
L 1381 1569 
Q 847 1681 609 1914 
Q 372 2147 372 2553 
Q 372 3047 722 3315 
Q 1072 3584 1716 3584 
Q 2034 3584 2315 3537 
Q 2597 3491 2834 3397 
z
" transform="scale(0.015625)"/>
      </defs>
      <use xlink:href="#DejaVuSans-46"/>
      <use xlink:href="#DejaVuSans-72" x="50.269531"/>
      <use xlink:href="#DejaVuSans-61" x="91.382812"/>
      <use xlink:href="#DejaVuSans-63" x="152.662109"/>
      <use xlink:href="#DejaVuSans-74" x="207.642578"/>
      <use xlink:href="#DejaVuSans-69" x="246.851562"/>
      <use xlink:href="#DejaVuSans-6f" x="274.634766"/>
      <use xlink:href="#DejaVuSans-6e" x="335.816406"/>
      <use xlink:href="#DejaVuSans-20" x="399.195312"/>
      <use xlink:href="#DejaVuSans-6f" x="430.982422"/>
      <use xlink:href="#DejaVuSans-66" x="492.164062"/>
      <use xlink:href="#DejaVuSans-20" x="527.369141"/>
      <use xlink:href="#DejaVuSans-63" x="559.15625"/>
      <use xlink:href="#DejaVuSans-65" x="614.136719"/>
      <use xlink:href="#DejaVuSans-6c" x="675.660156"/>
      <use xlink:href="#DejaVuSans-6c" x="703.443359"/>
      <use xlink:href="#DejaVuSans-73" x="731.226562"/>
     </g>
    </g>
   </g>
   <g id="line2d_14">
    <path d="M -1 260.521875 
L 3.478013 260.521875 
L 8.651431 260.521875 
L 13.82485 260.521875 
L 18.998268 260.521875 
L 24.171687 260.521875 
L 29.345105 260.521875 
L 34.518524 260.521875 
L 39.691942 260.521875 
L 44.865361 260.521875 
L 50.038779 260.521875 
L 55.212197 260.521875 
L 60.385616 260.521874 
L 65.559034 260.521808 
L 70.732453 260.519462 
L 75.905871 260.472976 
L 81.07929 259.950287 
L 86.252708 256.543654 
L 91.426126 243.4236 
L 96.599545 213.411476 
L 101.772963 173.693275 
L 106.946382 146.488702 
L 112.1198 144.083723 
L 117.293219 160.363712 
L 122.466637 182.58783 
L 127.640055 200.785609 
L 132.813474 214.763709 
L 137.986892 227.655368 
L 143.160311 239.338495 
L 148.333729 247.840932 
L 153.507148 252.046606 
L 158.680566 254.175043 
L 163.853984 256.33296 
L 169.027403 258.146181 
L 174.200821 259.341808 
L 179.37424 260.094277 
L 184.547658 260.4281 
L 189.721077 260.510439 
L 194.894495 260.521122 
L 200.067913 260.521848 
L 205.241332 260.521875 
L 210.41475 260.521875 
L 215.588169 260.521875 
L 220.761587 260.521875 
L 225.935006 260.521875 
L 231.108424 260.521875 
L 236.281842 260.521875 
L 241.455261 260.521875 
L 246.628679 260.521875 
L 251.802098 260.521875 
L 256.975516 260.521875 
L 262.148935 260.521875 
L 267.322353 260.521875 
L 272.495771 260.521875 
L 277.66919 260.521875 
L 282.842608 260.521875 
L 288.016027 260.52187 
L 293.189445 260.521688 
L 298.362864 260.518164 
L 303.536282 260.482664 
L 308.7097 260.301527 
L 313.883119 259.86327 
L 319.056537 259.47486 
L 324.229956 259.63657 
L 329.403374 260.123726 
L 334.576793 260.426637 
L 339.750211 260.509758 
L 344.923629 260.521055 
L 350.097048 260.521845 
L 355.270466 260.521874 
L 360.443885 260.521875 
L 365.617303 260.521875 
L 370.790722 260.521875 
L 375.96414 260.521875 
L 381.137559 260.521875 
L 386.310977 260.521875 
L 391.484395 260.521875 
L 396.657814 260.521875 
L 401.831232 260.521875 
L 407.004651 260.521875 
L 412.178069 260.521875 
L 417.351488 260.521875 
L 422.524906 260.521875 
L 427.698324 260.521875 
L 432.871743 260.521875 
L 438.045161 260.521875 
L 443.21858 260.521875 
L 448.391998 260.521875 
L 453.565417 260.521875 
L 458.738835 260.521875 
L 463.912253 260.521875 
L 469.085672 260.521875 
L 474.25909 260.521875 
L 479.432509 260.521875 
" clip-path="url(#p11ff18d2ae)" style="fill: none; stroke: #1f77b4; stroke-width: 1.5; stroke-linecap: square"/>
   </g>
   <g id="patch_23">
    <path d="M 48.074375 260.521875 
L 48.074375 44.755469 
" style="fill: none; stroke: #000000; stroke-width: 0.8; stroke-linejoin: miter; stroke-linecap: square"/>
   </g>
   <g id="patch_24">
    <path d="M 284.4 260.521875 
L 284.4 44.755469 
" style="fill: none; stroke: #000000; stroke-width: 0.8; stroke-linejoin: miter; stroke-linecap: square"/>
   </g>
   <g id="patch_25">
    <path d="M 48.074375 260.521875 
L 284.4 260.521875 
" style="fill: none; stroke: #000000; stroke-width: 0.8; stroke-linejoin: miter; stroke-linecap: square"/>
   </g>
   <g id="patch_26">
    <path d="M 48.074375 44.755469 
L 284.4 44.755469 
" style="fill: none; stroke: #000000; stroke-width: 0.8; stroke-linejoin: miter; stroke-linecap: square"/>
   </g>
   <g id="legend_1">
    <g id="patch_27">
     <path d="M 188.48625 71.969219 
L 276 71.969219 
Q 278.4 71.969219 278.4 69.569219 
L 278.4 53.155469 
Q 278.4 50.755469 276 50.755469 
L 188.48625 50.755469 
Q 186.08625 50.755469 186.08625 53.155469 
L 186.08625 69.569219 
Q 186.08625 71.969219 188.48625 71.969219 
z
" style="fill: #ffffff; opacity: 0.8; stroke: #cccccc; stroke-linejoin: miter"/>
    </g>
    <g id="patch_28">
     <path d="M 190.88625 64.673594 
L 214.88625 64.673594 
L 214.88625 56.273594 
L 190.88625 56.273594 
z
" style="fill: #1f77b4; opacity: 0.4"/>
    </g>
    <g id="text_15">
     <!-- MCF10A -->
     <g transform="translate(224.48625 64.673594) scale(0.12 -0.12)">
      <defs>
       <path id="DejaVuSans-4d" d="M 628 4666 
L 1569 4666 
L 2759 1491 
L 3956 4666 
L 4897 4666 
L 4897 0 
L 4281 0 
L 4281 4097 
L 3078 897 
L 2444 897 
L 1241 4097 
L 1241 0 
L 628 0 
L 628 4666 
z
" transform="scale(0.015625)"/>
       <path id="DejaVuSans-43" d="M 4122 4306 
L 4122 3641 
Q 3803 3938 3442 4084 
Q 3081 4231 2675 4231 
Q 1875 4231 1450 3742 
Q 1025 3253 1025 2328 
Q 1025 1406 1450 917 
Q 1875 428 2675 428 
Q 3081 428 3442 575 
Q 3803 722 4122 1019 
L 4122 359 
Q 3791 134 3420 21 
Q 3050 -91 2638 -91 
Q 1578 -91 968 557 
Q 359 1206 359 2328 
Q 359 3453 968 4101 
Q 1578 4750 2638 4750 
Q 3056 4750 3426 4639 
Q 3797 4528 4122 4306 
z
" transform="scale(0.015625)"/>
       <path id="DejaVuSans-41" d="M 2188 4044 
L 1331 1722 
L 3047 1722 
L 2188 4044 
z
M 1831 4666 
L 2547 4666 
L 4325 0 
L 3669 0 
L 3244 1197 
L 1141 1197 
L 716 0 
L 50 0 
L 1831 4666 
z
" transform="scale(0.015625)"/>
      </defs>
      <use xlink:href="#DejaVuSans-4d"/>
      <use xlink:href="#DejaVuSans-43" x="86.279297"/>
      <use xlink:href="#DejaVuSans-46" x="156.103516"/>
      <use xlink:href="#DejaVuSans-31" x="213.623047"/>
      <use xlink:href="#DejaVuSans-30" x="277.246094"/>
      <use xlink:href="#DejaVuSans-41" x="340.869141"/>
     </g>
    </g>
   </g>
  </g>
  <g id="axes_2">
   <g id="patch_29">
    <path d="M 332.474375 260.521875 
L 568.8 260.521875 
L 568.8 44.755469 
L 332.474375 44.755469 
z
" style="fill: #ffffff"/>
   </g>
   <g id="patch_30">
    <path d="M 381.964321 260.521875 
L 388.871531 260.521875 
L 388.871531 222.258864 
L 381.964321 222.258864 
z
" clip-path="url(#pf50232770b)" style="fill: #ff7f0e; opacity: 0.4"/>
   </g>
   <g id="patch_31">
    <path d="M 388.871531 260.521875 
L 395.778742 260.521875 
L 395.778742 56.45248 
L 388.871531 56.45248 
z
" clip-path="url(#pf50232770b)" style="fill: #ff7f0e; opacity: 0.4"/>
   </g>
   <g id="patch_32">
    <path d="M 395.778742 260.521875 
L 402.685952 260.521875 
L 402.685952 74.308552 
L 395.778742 74.308552 
z
" clip-path="url(#pf50232770b)" style="fill: #ff7f0e; opacity: 0.4"/>
   </g>
   <g id="patch_33">
    <path d="M 402.685952 260.521875 
L 409.593163 260.521875 
L 409.593163 209.504526 
L 402.685952 209.504526 
z
" clip-path="url(#pf50232770b)" style="fill: #ff7f0e; opacity: 0.4"/>
   </g>
   <g id="patch_34">
    <path d="M 409.593163 260.521875 
L 416.500373 260.521875 
L 416.500373 224.809731 
L 409.593163 224.809731 
z
" clip-path="url(#pf50232770b)" style="fill: #ff7f0e; opacity: 0.4"/>
   </g>
   <g id="patch_35">
    <path d="M 416.500373 260.521875 
L 423.407584 260.521875 
L 423.407584 247.767538 
L 416.500373 247.767538 
z
" clip-path="url(#pf50232770b)" style="fill: #ff7f0e; opacity: 0.4"/>
   </g>
   <g id="patch_36">
    <path d="M 423.407584 260.521875 
L 430.314794 260.521875 
L 430.314794 242.665803 
L 423.407584 242.665803 
z
" clip-path="url(#pf50232770b)" style="fill: #ff7f0e; opacity: 0.4"/>
   </g>
   <g id="patch_37">
    <path d="M 430.314794 260.521875 
L 437.222005 260.521875 
L 437.222005 252.869273 
L 430.314794 252.869273 
z
" clip-path="url(#pf50232770b)" style="fill: #ff7f0e; opacity: 0.4"/>
   </g>
   <g id="patch_38">
    <path d="M 437.222005 260.521875 
L 444.129215 260.521875 
L 444.129215 260.521875 
L 437.222005 260.521875 
z
" clip-path="url(#pf50232770b)" style="fill: #ff7f0e; opacity: 0.4"/>
   </g>
   <g id="patch_39">
    <path d="M 444.129215 260.521875 
L 451.036426 260.521875 
L 451.036426 257.971008 
L 444.129215 257.971008 
z
" clip-path="url(#pf50232770b)" style="fill: #ff7f0e; opacity: 0.4"/>
   </g>
   <g id="patch_40">
    <path d="M 451.036426 260.521875 
L 457.943636 260.521875 
L 457.943636 257.971008 
L 451.036426 257.971008 
z
" clip-path="url(#pf50232770b)" style="fill: #ff7f0e; opacity: 0.4"/>
   </g>
   <g id="patch_41">
    <path d="M 457.943636 260.521875 
L 464.850847 260.521875 
L 464.850847 257.971008 
L 457.943636 257.971008 
z
" clip-path="url(#pf50232770b)" style="fill: #ff7f0e; opacity: 0.4"/>
   </g>
   <g id="patch_42">
    <path d="M 464.850847 260.521875 
L 471.758057 260.521875 
L 471.758057 257.971008 
L 464.850847 257.971008 
z
" clip-path="url(#pf50232770b)" style="fill: #ff7f0e; opacity: 0.4"/>
   </g>
   <g id="patch_43">
    <path d="M 471.758057 260.521875 
L 478.665267 260.521875 
L 478.665267 257.971008 
L 471.758057 257.971008 
z
" clip-path="url(#pf50232770b)" style="fill: #ff7f0e; opacity: 0.4"/>
   </g>
   <g id="patch_44">
    <path d="M 478.665267 260.521875 
L 485.572478 260.521875 
L 485.572478 260.521875 
L 478.665267 260.521875 
z
" clip-path="url(#pf50232770b)" style="fill: #ff7f0e; opacity: 0.4"/>
   </g>
   <g id="patch_45">
    <path d="M 485.572478 260.521875 
L 492.479688 260.521875 
L 492.479688 257.971008 
L 485.572478 257.971008 
z
" clip-path="url(#pf50232770b)" style="fill: #ff7f0e; opacity: 0.4"/>
   </g>
   <g id="patch_46">
    <path d="M 492.479688 260.521875 
L 499.386899 260.521875 
L 499.386899 260.521875 
L 492.479688 260.521875 
z
" clip-path="url(#pf50232770b)" style="fill: #ff7f0e; opacity: 0.4"/>
   </g>
   <g id="patch_47">
    <path d="M 499.386899 260.521875 
L 506.294109 260.521875 
L 506.294109 260.521875 
L 499.386899 260.521875 
z
" clip-path="url(#pf50232770b)" style="fill: #ff7f0e; opacity: 0.4"/>
   </g>
   <g id="patch_48">
    <path d="M 506.294109 260.521875 
L 513.20132 260.521875 
L 513.20132 260.521875 
L 506.294109 260.521875 
z
" clip-path="url(#pf50232770b)" style="fill: #ff7f0e; opacity: 0.4"/>
   </g>
   <g id="patch_49">
    <path d="M 513.20132 260.521875 
L 520.10853 260.521875 
L 520.10853 257.971008 
L 513.20132 257.971008 
z
" clip-path="url(#pf50232770b)" style="fill: #ff7f0e; opacity: 0.4"/>
   </g>
   <g id="matplotlib.axis_3">
    <g id="xtick_6">
     <g id="line2d_15">
      <g>
       <use xlink:href="#m180a50c036" x="354.097769" y="260.521875" style="stroke: #000000; stroke-width: 0.8"/>
      </g>
     </g>
     <g id="text_16">
      <!-- 0.4 -->
      <g transform="translate(346.146206 275.120313) scale(0.1 -0.1)">
       <use xlink:href="#DejaVuSans-30"/>
       <use xlink:href="#DejaVuSans-2e" x="63.623047"/>
       <use xlink:href="#DejaVuSans-34" x="95.410156"/>
      </g>
     </g>
    </g>
    <g id="xtick_7">
     <g id="line2d_16">
      <g>
       <use xlink:href="#m180a50c036" x="405.314611" y="260.521875" style="stroke: #000000; stroke-width: 0.8"/>
      </g>
     </g>
     <g id="text_17">
      <!-- 0.6 -->
      <g transform="translate(397.363049 275.120313) scale(0.1 -0.1)">
       <use xlink:href="#DejaVuSans-30"/>
       <use xlink:href="#DejaVuSans-2e" x="63.623047"/>
       <use xlink:href="#DejaVuSans-36" x="95.410156"/>
      </g>
     </g>
    </g>
    <g id="xtick_8">
     <g id="line2d_17">
      <g>
       <use xlink:href="#m180a50c036" x="456.531454" y="260.521875" style="stroke: #000000; stroke-width: 0.8"/>
      </g>
     </g>
     <g id="text_18">
      <!-- 0.8 -->
      <g transform="translate(448.579891 275.120313) scale(0.1 -0.1)">
       <use xlink:href="#DejaVuSans-30"/>
       <use xlink:href="#DejaVuSans-2e" x="63.623047"/>
       <use xlink:href="#DejaVuSans-38" x="95.410156"/>
      </g>
     </g>
    </g>
    <g id="xtick_9">
     <g id="line2d_18">
      <g>
       <use xlink:href="#m180a50c036" x="507.748296" y="260.521875" style="stroke: #000000; stroke-width: 0.8"/>
      </g>
     </g>
     <g id="text_19">
      <!-- 1.0 -->
      <g transform="translate(499.796734 275.120313) scale(0.1 -0.1)">
       <use xlink:href="#DejaVuSans-31"/>
       <use xlink:href="#DejaVuSans-2e" x="63.623047"/>
       <use xlink:href="#DejaVuSans-30" x="95.410156"/>
      </g>
     </g>
    </g>
    <g id="xtick_10">
     <g id="line2d_19">
      <g>
       <use xlink:href="#m180a50c036" x="558.965139" y="260.521875" style="stroke: #000000; stroke-width: 0.8"/>
      </g>
     </g>
     <g id="text_20">
      <!-- 1.2 -->
      <g transform="translate(551.013576 275.120313) scale(0.1 -0.1)">
       <use xlink:href="#DejaVuSans-31"/>
       <use xlink:href="#DejaVuSans-2e" x="63.623047"/>
       <use xlink:href="#DejaVuSans-32" x="95.410156"/>
      </g>
     </g>
    </g>
   </g>
   <g id="matplotlib.axis_4">
    <g id="ytick_9">
     <g id="line2d_20">
      <g>
       <use xlink:href="#ma1b751fd97" x="332.474375" y="260.521875" style="stroke: #000000; stroke-width: 0.8"/>
      </g>
     </g>
     <g id="text_21">
      <!-- 0 -->
      <g transform="translate(319.111875 264.321094) scale(0.1 -0.1)">
       <use xlink:href="#DejaVuSans-30"/>
      </g>
     </g>
    </g>
    <g id="ytick_10">
     <g id="line2d_21">
      <g>
       <use xlink:href="#ma1b751fd97" x="332.474375" y="229.698103" style="stroke: #000000; stroke-width: 0.8"/>
      </g>
     </g>
     <g id="text_22">
      <!-- 2 -->
      <g transform="translate(319.111875 233.497321) scale(0.1 -0.1)">
       <use xlink:href="#DejaVuSans-32"/>
      </g>
     </g>
    </g>
    <g id="ytick_11">
     <g id="line2d_22">
      <g>
       <use xlink:href="#ma1b751fd97" x="332.474375" y="198.87433" style="stroke: #000000; stroke-width: 0.8"/>
      </g>
     </g>
     <g id="text_23">
      <!-- 4 -->
      <g transform="translate(319.111875 202.673549) scale(0.1 -0.1)">
       <use xlink:href="#DejaVuSans-34"/>
      </g>
     </g>
    </g>
    <g id="ytick_12">
     <g id="line2d_23">
      <g>
       <use xlink:href="#ma1b751fd97" x="332.474375" y="168.050558" style="stroke: #000000; stroke-width: 0.8"/>
      </g>
     </g>
     <g id="text_24">
      <!-- 6 -->
      <g transform="translate(319.111875 171.849777) scale(0.1 -0.1)">
       <use xlink:href="#DejaVuSans-36"/>
      </g>
     </g>
    </g>
    <g id="ytick_13">
     <g id="line2d_24">
      <g>
       <use xlink:href="#ma1b751fd97" x="332.474375" y="137.226786" style="stroke: #000000; stroke-width: 0.8"/>
      </g>
     </g>
     <g id="text_25">
      <!-- 8 -->
      <g transform="translate(319.111875 141.026004) scale(0.1 -0.1)">
       <use xlink:href="#DejaVuSans-38"/>
      </g>
     </g>
    </g>
    <g id="ytick_14">
     <g id="line2d_25">
      <g>
       <use xlink:href="#ma1b751fd97" x="332.474375" y="106.403013" style="stroke: #000000; stroke-width: 0.8"/>
      </g>
     </g>
     <g id="text_26">
      <!-- 10 -->
      <g transform="translate(312.749375 110.202232) scale(0.1 -0.1)">
       <use xlink:href="#DejaVuSans-31"/>
       <use xlink:href="#DejaVuSans-30" x="63.623047"/>
      </g>
     </g>
    </g>
    <g id="ytick_15">
     <g id="line2d_26">
      <g>
       <use xlink:href="#ma1b751fd97" x="332.474375" y="75.579241" style="stroke: #000000; stroke-width: 0.8"/>
      </g>
     </g>
     <g id="text_27">
      <!-- 12 -->
      <g transform="translate(312.749375 79.37846) scale(0.1 -0.1)">
       <use xlink:href="#DejaVuSans-31"/>
       <use xlink:href="#DejaVuSans-32" x="63.623047"/>
      </g>
     </g>
    </g>
    <g id="ytick_16">
     <g id="line2d_27">
      <g>
       <use xlink:href="#ma1b751fd97" x="332.474375" y="44.755469" style="stroke: #000000; stroke-width: 0.8"/>
      </g>
     </g>
     <g id="text_28">
      <!-- 14 -->
      <g transform="translate(312.749375 48.554687) scale(0.1 -0.1)">
       <use xlink:href="#DejaVuSans-31"/>
       <use xlink:href="#DejaVuSans-34" x="63.623047"/>
      </g>
     </g>
    </g>
    <g id="text_29">
     <!-- Fraction of cells -->
     <g transform="translate(305.837813 207.470547) rotate(-90) scale(0.14 -0.14)">
      <use xlink:href="#DejaVuSans-46"/>
      <use xlink:href="#DejaVuSans-72" x="50.269531"/>
      <use xlink:href="#DejaVuSans-61" x="91.382812"/>
      <use xlink:href="#DejaVuSans-63" x="152.662109"/>
      <use xlink:href="#DejaVuSans-74" x="207.642578"/>
      <use xlink:href="#DejaVuSans-69" x="246.851562"/>
      <use xlink:href="#DejaVuSans-6f" x="274.634766"/>
      <use xlink:href="#DejaVuSans-6e" x="335.816406"/>
      <use xlink:href="#DejaVuSans-20" x="399.195312"/>
      <use xlink:href="#DejaVuSans-6f" x="430.982422"/>
      <use xlink:href="#DejaVuSans-66" x="492.164062"/>
      <use xlink:href="#DejaVuSans-20" x="527.369141"/>
      <use xlink:href="#DejaVuSans-63" x="559.15625"/>
      <use xlink:href="#DejaVuSans-65" x="614.136719"/>
      <use xlink:href="#DejaVuSans-6c" x="675.660156"/>
      <use xlink:href="#DejaVuSans-6c" x="703.443359"/>
      <use xlink:href="#DejaVuSans-73" x="731.226562"/>
     </g>
    </g>
   </g>
   <g id="line2d_28">
    <path d="M 251.664084 260.521875 
L 256.837502 260.521875 
L 262.010921 260.521875 
L 267.184339 260.521875 
L 272.357758 260.521875 
L 277.531176 260.521875 
L 282.704595 260.521875 
L 287.878013 260.521875 
L 293.051431 260.521875 
L 298.22485 260.521875 
L 303.398268 260.521875 
L 308.571687 260.521875 
L 313.745105 260.521875 
L 318.918524 260.521875 
L 324.091942 260.521875 
L 329.265361 260.521875 
L 334.438779 260.521875 
L 339.612197 260.521875 
L 344.785616 260.521875 
L 349.959034 260.521875 
L 355.132453 260.521857 
L 360.305871 260.520652 
L 365.47929 260.48371 
L 370.652708 259.924918 
L 375.826126 255.476784 
L 380.999545 235.675165 
L 386.172963 185.140664 
L 391.346382 116.731488 
L 396.5198 88.615241 
L 401.693219 129.010486 
L 406.866637 186.554383 
L 412.040055 218.917697 
L 417.213474 234.168379 
L 422.386892 242.69374 
L 427.560311 247.347904 
L 432.733729 252.142589 
L 437.907148 256.719414 
L 443.080566 258.777894 
L 448.253984 258.333288 
L 453.427403 257.632286 
L 458.600821 257.725575 
L 463.77424 257.993934 
L 468.947658 258.003612 
L 474.121077 258.356765 
L 479.294495 258.917052 
L 484.467913 259.07297 
L 489.641332 259.526361 
L 494.81475 260.194436 
L 499.988169 260.47343 
L 505.161587 260.483847 
L 510.335006 260.249147 
L 515.508424 259.625579 
L 520.681842 259.270916 
L 525.855261 259.780578 
L 531.028679 260.335367 
L 536.202098 260.501952 
L 541.375516 260.520971 
L 546.548935 260.521858 
L 551.722353 260.521875 
L 556.895771 260.521875 
L 562.06919 260.521875 
L 567.242608 260.521875 
L 572.416027 260.521875 
L 577.589445 260.521875 
L 582.762864 260.521875 
L 587.936282 260.521875 
L 593.1097 260.521875 
L 598.283119 260.521875 
L 603.456537 260.521875 
L 608.629956 260.521875 
L 613.803374 260.521875 
L 618.976793 260.521875 
L 624.150211 260.521875 
L 629.323629 260.521875 
L 634.497048 260.521875 
L 639.670466 260.521875 
L 644.843885 260.521875 
L 650.017303 260.521875 
L 655.190722 260.521875 
L 660.36414 260.521875 
L 665.537559 260.521875 
L 670.710977 260.521875 
L 675.884395 260.521875 
L 681.057814 260.521875 
L 686.231232 260.521875 
L 691.404651 260.521875 
L 696.578069 260.521875 
L 701.751488 260.521875 
L 706.924906 260.521875 
L 712.098324 260.521875 
L 717.271743 260.521875 
L 722.445161 260.521875 
L 727.61858 260.521875 
L 732.791998 260.521875 
L 737.965417 260.521875 
L 743.138835 260.521875 
L 748.312253 260.521875 
L 753.485672 260.521875 
L 758.65909 260.521875 
L 763.832509 260.521875 
" clip-path="url(#pf50232770b)" style="fill: none; stroke: #ff7f0e; stroke-width: 1.5; stroke-linecap: square"/>
   </g>
   <g id="patch_50">
    <path d="M 332.474375 260.521875 
L 332.474375 44.755469 
" style="fill: none; stroke: #000000; stroke-width: 0.8; stroke-linejoin: miter; stroke-linecap: square"/>
   </g>
   <g id="patch_51">
    <path d="M 568.8 260.521875 
L 568.8 44.755469 
" style="fill: none; stroke: #000000; stroke-width: 0.8; stroke-linejoin: miter; stroke-linecap: square"/>
   </g>
   <g id="patch_52">
    <path d="M 332.474375 260.521875 
L 568.8 260.521875 
" style="fill: none; stroke: #000000; stroke-width: 0.8; stroke-linejoin: miter; stroke-linecap: square"/>
   </g>
   <g id="patch_53">
    <path d="M 332.474375 44.755469 
L 568.8 44.755469 
" style="fill: none; stroke: #000000; stroke-width: 0.8; stroke-linejoin: miter; stroke-linecap: square"/>
   </g>
   <g id="legend_2">
    <g id="patch_54">
     <path d="M 488.73 71.969219 
L 560.4 71.969219 
Q 562.8 71.969219 562.8 69.569219 
L 562.8 53.155469 
Q 562.8 50.755469 560.4 50.755469 
L 488.73 50.755469 
Q 486.33 50.755469 486.33 53.155469 
L 486.33 69.569219 
Q 486.33 71.969219 488.73 71.969219 
z
" style="fill: #ffffff; opacity: 0.8; stroke: #cccccc; stroke-linejoin: miter"/>
    </g>
    <g id="patch_55">
     <path d="M 491.13 64.673594 
L 515.13 64.673594 
L 515.13 56.273594 
L 491.13 56.273594 
z
" style="fill: #ff7f0e; opacity: 0.4"/>
    </g>
    <g id="text_30">
     <!-- MCF7 -->
     <g transform="translate(524.73 64.673594) scale(0.12 -0.12)">
      <defs>
       <path id="DejaVuSans-37" d="M 525 4666 
L 3525 4666 
L 3525 4397 
L 1831 0 
L 1172 0 
L 2766 4134 
L 525 4134 
L 525 4666 
z
" transform="scale(0.015625)"/>
      </defs>
      <use xlink:href="#DejaVuSans-4d"/>
      <use xlink:href="#DejaVuSans-43" x="86.279297"/>
      <use xlink:href="#DejaVuSans-46" x="156.103516"/>
      <use xlink:href="#DejaVuSans-37" x="213.623047"/>
     </g>
    </g>
   </g>
  </g>
  <g id="axes_3">
   <g id="patch_56">
    <path d="M 616.874375 260.521875 
L 853.2 260.521875 
L 853.2 44.755469 
L 616.874375 44.755469 
z
" style="fill: #ffffff"/>
   </g>
   <g id="patch_57">
    <path d="M 667.836032 260.521875 
L 673.514719 260.521875 
L 673.514719 195.072555 
L 667.836032 195.072555 
z
" clip-path="url(#p9196f547cf)" style="fill: #2ca02c; opacity: 0.4"/>
   </g>
   <g id="patch_58">
    <path d="M 673.514719 260.521875 
L 679.193405 260.521875 
L 679.193405 163.906213 
L 673.514719 163.906213 
z
" clip-path="url(#p9196f547cf)" style="fill: #2ca02c; opacity: 0.4"/>
   </g>
   <g id="patch_59">
    <path d="M 679.193405 260.521875 
L 684.872092 260.521875 
L 684.872092 123.389967 
L 679.193405 123.389967 
z
" clip-path="url(#p9196f547cf)" style="fill: #2ca02c; opacity: 0.4"/>
   </g>
   <g id="patch_60">
    <path d="M 684.872092 260.521875 
L 690.550778 260.521875 
L 690.550778 148.323041 
L 684.872092 148.323041 
z
" clip-path="url(#p9196f547cf)" style="fill: #2ca02c; opacity: 0.4"/>
   </g>
   <g id="patch_61">
    <path d="M 690.550778 260.521875 
L 696.229465 260.521875 
L 696.229465 176.37275 
L 690.550778 176.37275 
z
" clip-path="url(#p9196f547cf)" style="fill: #2ca02c; opacity: 0.4"/>
   </g>
   <g id="patch_62">
    <path d="M 696.229465 260.521875 
L 701.908151 260.521875 
L 701.908151 207.539093 
L 696.229465 207.539093 
z
" clip-path="url(#p9196f547cf)" style="fill: #2ca02c; opacity: 0.4"/>
   </g>
   <g id="patch_63">
    <path d="M 701.908151 260.521875 
L 707.586838 260.521875 
L 707.586838 204.422458 
L 701.908151 204.422458 
z
" clip-path="url(#p9196f547cf)" style="fill: #2ca02c; opacity: 0.4"/>
   </g>
   <g id="patch_64">
    <path d="M 707.586838 260.521875 
L 713.265524 260.521875 
L 713.265524 241.822069 
L 707.586838 241.822069 
z
" clip-path="url(#p9196f547cf)" style="fill: #2ca02c; opacity: 0.4"/>
   </g>
   <g id="patch_65">
    <path d="M 713.265524 260.521875 
L 718.944211 260.521875 
L 718.944211 232.472167 
L 713.265524 232.472167 
z
" clip-path="url(#p9196f547cf)" style="fill: #2ca02c; opacity: 0.4"/>
   </g>
   <g id="patch_66">
    <path d="M 718.944211 260.521875 
L 724.622897 260.521875 
L 724.622897 238.705435 
L 718.944211 238.705435 
z
" clip-path="url(#p9196f547cf)" style="fill: #2ca02c; opacity: 0.4"/>
   </g>
   <g id="patch_67">
    <path d="M 724.622897 260.521875 
L 730.301584 260.521875 
L 730.301584 260.521875 
L 724.622897 260.521875 
z
" clip-path="url(#p9196f547cf)" style="fill: #2ca02c; opacity: 0.4"/>
   </g>
   <g id="patch_68">
    <path d="M 730.301584 260.521875 
L 735.98027 260.521875 
L 735.98027 257.405241 
L 730.301584 257.405241 
z
" clip-path="url(#p9196f547cf)" style="fill: #2ca02c; opacity: 0.4"/>
   </g>
   <g id="patch_69">
    <path d="M 735.98027 260.521875 
L 741.658957 260.521875 
L 741.658957 260.521875 
L 735.98027 260.521875 
z
" clip-path="url(#p9196f547cf)" style="fill: #2ca02c; opacity: 0.4"/>
   </g>
   <g id="patch_70">
    <path d="M 741.658957 260.521875 
L 747.337643 260.521875 
L 747.337643 260.521875 
L 741.658957 260.521875 
z
" clip-path="url(#p9196f547cf)" style="fill: #2ca02c; opacity: 0.4"/>
   </g>
   <g id="patch_71">
    <path d="M 747.337643 260.521875 
L 753.01633 260.521875 
L 753.01633 254.288606 
L 747.337643 254.288606 
z
" clip-path="url(#p9196f547cf)" style="fill: #2ca02c; opacity: 0.4"/>
   </g>
   <g id="patch_72">
    <path d="M 753.01633 260.521875 
L 758.695016 260.521875 
L 758.695016 257.405241 
L 753.01633 257.405241 
z
" clip-path="url(#p9196f547cf)" style="fill: #2ca02c; opacity: 0.4"/>
   </g>
   <g id="patch_73">
    <path d="M 758.695016 260.521875 
L 764.373703 260.521875 
L 764.373703 260.521875 
L 758.695016 260.521875 
z
" clip-path="url(#p9196f547cf)" style="fill: #2ca02c; opacity: 0.4"/>
   </g>
   <g id="patch_74">
    <path d="M 764.373703 260.521875 
L 770.052389 260.521875 
L 770.052389 257.405241 
L 764.373703 257.405241 
z
" clip-path="url(#p9196f547cf)" style="fill: #2ca02c; opacity: 0.4"/>
   </g>
   <g id="patch_75">
    <path d="M 770.052389 260.521875 
L 775.731076 260.521875 
L 775.731076 257.405241 
L 770.052389 257.405241 
z
" clip-path="url(#p9196f547cf)" style="fill: #2ca02c; opacity: 0.4"/>
   </g>
   <g id="patch_76">
    <path d="M 775.731076 260.521875 
L 781.409762 260.521875 
L 781.409762 257.405241 
L 775.731076 257.405241 
z
" clip-path="url(#p9196f547cf)" style="fill: #2ca02c; opacity: 0.4"/>
   </g>
   <g id="matplotlib.axis_5">
    <g id="xtick_11">
     <g id="line2d_29">
      <g>
       <use xlink:href="#m180a50c036" x="638.497769" y="260.521875" style="stroke: #000000; stroke-width: 0.8"/>
      </g>
     </g>
     <g id="text_31">
      <!-- 0.4 -->
      <g transform="translate(630.546206 275.120313) scale(0.1 -0.1)">
       <use xlink:href="#DejaVuSans-30"/>
       <use xlink:href="#DejaVuSans-2e" x="63.623047"/>
       <use xlink:href="#DejaVuSans-34" x="95.410156"/>
      </g>
     </g>
    </g>
    <g id="xtick_12">
     <g id="line2d_30">
      <g>
       <use xlink:href="#m180a50c036" x="689.714611" y="260.521875" style="stroke: #000000; stroke-width: 0.8"/>
      </g>
     </g>
     <g id="text_32">
      <!-- 0.6 -->
      <g transform="translate(681.763049 275.120313) scale(0.1 -0.1)">
       <use xlink:href="#DejaVuSans-30"/>
       <use xlink:href="#DejaVuSans-2e" x="63.623047"/>
       <use xlink:href="#DejaVuSans-36" x="95.410156"/>
      </g>
     </g>
    </g>
    <g id="xtick_13">
     <g id="line2d_31">
      <g>
       <use xlink:href="#m180a50c036" x="740.931454" y="260.521875" style="stroke: #000000; stroke-width: 0.8"/>
      </g>
     </g>
     <g id="text_33">
      <!-- 0.8 -->
      <g transform="translate(732.979891 275.120313) scale(0.1 -0.1)">
       <use xlink:href="#DejaVuSans-30"/>
       <use xlink:href="#DejaVuSans-2e" x="63.623047"/>
       <use xlink:href="#DejaVuSans-38" x="95.410156"/>
      </g>
     </g>
    </g>
    <g id="xtick_14">
     <g id="line2d_32">
      <g>
       <use xlink:href="#m180a50c036" x="792.148296" y="260.521875" style="stroke: #000000; stroke-width: 0.8"/>
      </g>
     </g>
     <g id="text_34">
      <!-- 1.0 -->
      <g transform="translate(784.196734 275.120313) scale(0.1 -0.1)">
       <use xlink:href="#DejaVuSans-31"/>
       <use xlink:href="#DejaVuSans-2e" x="63.623047"/>
       <use xlink:href="#DejaVuSans-30" x="95.410156"/>
      </g>
     </g>
    </g>
    <g id="xtick_15">
     <g id="line2d_33">
      <g>
       <use xlink:href="#m180a50c036" x="843.365139" y="260.521875" style="stroke: #000000; stroke-width: 0.8"/>
      </g>
     </g>
     <g id="text_35">
      <!-- 1.2 -->
      <g transform="translate(835.413576 275.120313) scale(0.1 -0.1)">
       <use xlink:href="#DejaVuSans-31"/>
       <use xlink:href="#DejaVuSans-2e" x="63.623047"/>
       <use xlink:href="#DejaVuSans-32" x="95.410156"/>
      </g>
     </g>
    </g>
   </g>
   <g id="matplotlib.axis_6">
    <g id="ytick_17">
     <g id="line2d_34">
      <g>
       <use xlink:href="#ma1b751fd97" x="616.874375" y="260.521875" style="stroke: #000000; stroke-width: 0.8"/>
      </g>
     </g>
     <g id="text_36">
      <!-- 0 -->
      <g transform="translate(603.511875 264.321094) scale(0.1 -0.1)">
       <use xlink:href="#DejaVuSans-30"/>
      </g>
     </g>
    </g>
    <g id="ytick_18">
     <g id="line2d_35">
      <g>
       <use xlink:href="#ma1b751fd97" x="616.874375" y="229.698103" style="stroke: #000000; stroke-width: 0.8"/>
      </g>
     </g>
     <g id="text_37">
      <!-- 2 -->
      <g transform="translate(603.511875 233.497321) scale(0.1 -0.1)">
       <use xlink:href="#DejaVuSans-32"/>
      </g>
     </g>
    </g>
    <g id="ytick_19">
     <g id="line2d_36">
      <g>
       <use xlink:href="#ma1b751fd97" x="616.874375" y="198.87433" style="stroke: #000000; stroke-width: 0.8"/>
      </g>
     </g>
     <g id="text_38">
      <!-- 4 -->
      <g transform="translate(603.511875 202.673549) scale(0.1 -0.1)">
       <use xlink:href="#DejaVuSans-34"/>
      </g>
     </g>
    </g>
    <g id="ytick_20">
     <g id="line2d_37">
      <g>
       <use xlink:href="#ma1b751fd97" x="616.874375" y="168.050558" style="stroke: #000000; stroke-width: 0.8"/>
      </g>
     </g>
     <g id="text_39">
      <!-- 6 -->
      <g transform="translate(603.511875 171.849777) scale(0.1 -0.1)">
       <use xlink:href="#DejaVuSans-36"/>
      </g>
     </g>
    </g>
    <g id="ytick_21">
     <g id="line2d_38">
      <g>
       <use xlink:href="#ma1b751fd97" x="616.874375" y="137.226786" style="stroke: #000000; stroke-width: 0.8"/>
      </g>
     </g>
     <g id="text_40">
      <!-- 8 -->
      <g transform="translate(603.511875 141.026004) scale(0.1 -0.1)">
       <use xlink:href="#DejaVuSans-38"/>
      </g>
     </g>
    </g>
    <g id="ytick_22">
     <g id="line2d_39">
      <g>
       <use xlink:href="#ma1b751fd97" x="616.874375" y="106.403013" style="stroke: #000000; stroke-width: 0.8"/>
      </g>
     </g>
     <g id="text_41">
      <!-- 10 -->
      <g transform="translate(597.149375 110.202232) scale(0.1 -0.1)">
       <use xlink:href="#DejaVuSans-31"/>
       <use xlink:href="#DejaVuSans-30" x="63.623047"/>
      </g>
     </g>
    </g>
    <g id="ytick_23">
     <g id="line2d_40">
      <g>
       <use xlink:href="#ma1b751fd97" x="616.874375" y="75.579241" style="stroke: #000000; stroke-width: 0.8"/>
      </g>
     </g>
     <g id="text_42">
      <!-- 12 -->
      <g transform="translate(597.149375 79.37846) scale(0.1 -0.1)">
       <use xlink:href="#DejaVuSans-31"/>
       <use xlink:href="#DejaVuSans-32" x="63.623047"/>
      </g>
     </g>
    </g>
    <g id="ytick_24">
     <g id="line2d_41">
      <g>
       <use xlink:href="#ma1b751fd97" x="616.874375" y="44.755469" style="stroke: #000000; stroke-width: 0.8"/>
      </g>
     </g>
     <g id="text_43">
      <!-- 14 -->
      <g transform="translate(597.149375 48.554687) scale(0.1 -0.1)">
       <use xlink:href="#DejaVuSans-31"/>
       <use xlink:href="#DejaVuSans-34" x="63.623047"/>
      </g>
     </g>
    </g>
    <g id="text_44">
     <!-- Fraction of cells -->
     <g transform="translate(590.237812 207.470547) rotate(-90) scale(0.14 -0.14)">
      <use xlink:href="#DejaVuSans-46"/>
      <use xlink:href="#DejaVuSans-72" x="50.269531"/>
      <use xlink:href="#DejaVuSans-61" x="91.382812"/>
      <use xlink:href="#DejaVuSans-63" x="152.662109"/>
      <use xlink:href="#DejaVuSans-74" x="207.642578"/>
      <use xlink:href="#DejaVuSans-69" x="246.851562"/>
      <use xlink:href="#DejaVuSans-6f" x="274.634766"/>
      <use xlink:href="#DejaVuSans-6e" x="335.816406"/>
      <use xlink:href="#DejaVuSans-20" x="399.195312"/>
      <use xlink:href="#DejaVuSans-6f" x="430.982422"/>
      <use xlink:href="#DejaVuSans-66" x="492.164062"/>
      <use xlink:href="#DejaVuSans-20" x="527.369141"/>
      <use xlink:href="#DejaVuSans-63" x="559.15625"/>
      <use xlink:href="#DejaVuSans-65" x="614.136719"/>
      <use xlink:href="#DejaVuSans-6c" x="675.660156"/>
      <use xlink:href="#DejaVuSans-6c" x="703.443359"/>
      <use xlink:href="#DejaVuSans-73" x="731.226562"/>
     </g>
    </g>
   </g>
   <g id="line2d_42">
    <path d="M 536.064084 260.521875 
L 541.237502 260.521875 
L 546.410921 260.521875 
L 551.584339 260.521875 
L 556.757758 260.521875 
L 561.931176 260.521875 
L 567.104595 260.521875 
L 572.278013 260.521875 
L 577.451431 260.521875 
L 582.62485 260.521875 
L 587.798268 260.521875 
L 592.971687 260.521875 
L 598.145105 260.521875 
L 603.318524 260.521875 
L 608.491942 260.521875 
L 613.665361 260.521875 
L 618.838779 260.521875 
L 624.012197 260.521875 
L 629.185616 260.521875 
L 634.359034 260.521874 
L 639.532453 260.521778 
L 644.705871 260.517646 
L 649.87929 260.427758 
L 655.052708 259.425631 
L 660.226126 253.612867 
L 665.399545 235.612373 
L 670.572963 204.397688 
L 675.746382 171.875664 
L 680.9198 151.927039 
L 686.093219 151.184401 
L 691.266637 166.135749 
L 696.440055 187.000585 
L 701.613474 205.767726 
L 706.786892 219.844442 
L 711.960311 229.83924 
L 717.133729 236.457379 
L 722.307148 243.917873 
L 727.480566 252.385449 
L 732.653984 257.64289 
L 737.827403 259.5104 
L 743.000821 259.37627 
L 748.17424 258.160864 
L 753.347658 257.361399 
L 758.521077 257.584972 
L 763.694495 257.923733 
L 768.867913 258.048499 
L 774.041332 258.330469 
L 779.21475 258.738947 
L 784.388169 259.332144 
L 789.561587 260.027218 
L 794.735006 260.413244 
L 799.908424 260.50996 
L 805.081842 260.521232 
L 810.255261 260.521858 
L 815.428679 260.521875 
L 820.602098 260.521875 
L 825.775516 260.521875 
L 830.948935 260.521875 
L 836.122353 260.521875 
L 841.295771 260.521875 
L 846.46919 260.521875 
L 851.642608 260.521875 
L 856.816027 260.521875 
L 861.989445 260.521875 
L 865 260.521875 
" clip-path="url(#p9196f547cf)" style="fill: none; stroke: #2ca02c; stroke-width: 1.5; stroke-linecap: square"/>
   </g>
   <g id="patch_77">
    <path d="M 616.874375 260.521875 
L 616.874375 44.755469 
" style="fill: none; stroke: #000000; stroke-width: 0.8; stroke-linejoin: miter; stroke-linecap: square"/>
   </g>
   <g id="patch_78">
    <path d="M 853.2 260.521875 
L 853.2 44.755469 
" style="fill: none; stroke: #000000; stroke-width: 0.8; stroke-linejoin: miter; stroke-linecap: square"/>
   </g>
   <g id="patch_79">
    <path d="M 616.874375 260.521875 
L 853.2 260.521875 
" style="fill: none; stroke: #000000; stroke-width: 0.8; stroke-linejoin: miter; stroke-linecap: square"/>
   </g>
   <g id="patch_80">
    <path d="M 616.874375 44.755469 
L 853.2 44.755469 
" style="fill: none; stroke: #000000; stroke-width: 0.8; stroke-linejoin: miter; stroke-linecap: square"/>
   </g>
   <g id="legend_3">
    <g id="patch_81">
     <path d="M 725.315625 72.302969 
L 844.8 72.302969 
Q 847.2 72.302969 847.2 69.902969 
L 847.2 53.155469 
Q 847.2 50.755469 844.8 50.755469 
L 725.315625 50.755469 
Q 722.915625 50.755469 722.915625 53.155469 
L 722.915625 69.902969 
Q 722.915625 72.302969 725.315625 72.302969 
z
" style="fill: #ffffff; opacity: 0.8; stroke: #cccccc; stroke-linejoin: miter"/>
    </g>
    <g id="patch_82">
     <path d="M 727.715625 64.673594 
L 751.715625 64.673594 
L 751.715625 56.273594 
L 727.715625 56.273594 
z
" style="fill: #2ca02c; opacity: 0.4"/>
    </g>
    <g id="text_45">
     <!-- MDA_MB_231 -->
     <g transform="translate(761.315625 64.673594) scale(0.12 -0.12)">
      <defs>
       <path id="DejaVuSans-44" d="M 1259 4147 
L 1259 519 
L 2022 519 
Q 2988 519 3436 956 
Q 3884 1394 3884 2338 
Q 3884 3275 3436 3711 
Q 2988 4147 2022 4147 
L 1259 4147 
z
M 628 4666 
L 1925 4666 
Q 3281 4666 3915 4102 
Q 4550 3538 4550 2338 
Q 4550 1131 3912 565 
Q 3275 0 1925 0 
L 628 0 
L 628 4666 
z
" transform="scale(0.015625)"/>
       <path id="DejaVuSans-5f" d="M 3263 -1063 
L 3263 -1509 
L -63 -1509 
L -63 -1063 
L 3263 -1063 
z
" transform="scale(0.015625)"/>
       <path id="DejaVuSans-42" d="M 1259 2228 
L 1259 519 
L 2272 519 
Q 2781 519 3026 730 
Q 3272 941 3272 1375 
Q 3272 1813 3026 2020 
Q 2781 2228 2272 2228 
L 1259 2228 
z
M 1259 4147 
L 1259 2741 
L 2194 2741 
Q 2656 2741 2882 2914 
Q 3109 3088 3109 3444 
Q 3109 3797 2882 3972 
Q 2656 4147 2194 4147 
L 1259 4147 
z
M 628 4666 
L 2241 4666 
Q 2963 4666 3353 4366 
Q 3744 4066 3744 3513 
Q 3744 3084 3544 2831 
Q 3344 2578 2956 2516 
Q 3422 2416 3680 2098 
Q 3938 1781 3938 1306 
Q 3938 681 3513 340 
Q 3088 0 2303 0 
L 628 0 
L 628 4666 
z
" transform="scale(0.015625)"/>
       <path id="DejaVuSans-33" d="M 2597 2516 
Q 3050 2419 3304 2112 
Q 3559 1806 3559 1356 
Q 3559 666 3084 287 
Q 2609 -91 1734 -91 
Q 1441 -91 1130 -33 
Q 819 25 488 141 
L 488 750 
Q 750 597 1062 519 
Q 1375 441 1716 441 
Q 2309 441 2620 675 
Q 2931 909 2931 1356 
Q 2931 1769 2642 2001 
Q 2353 2234 1838 2234 
L 1294 2234 
L 1294 2753 
L 1863 2753 
Q 2328 2753 2575 2939 
Q 2822 3125 2822 3475 
Q 2822 3834 2567 4026 
Q 2313 4219 1838 4219 
Q 1578 4219 1281 4162 
Q 984 4106 628 3988 
L 628 4550 
Q 988 4650 1302 4700 
Q 1616 4750 1894 4750 
Q 2613 4750 3031 4423 
Q 3450 4097 3450 3541 
Q 3450 3153 3228 2886 
Q 3006 2619 2597 2516 
z
" transform="scale(0.015625)"/>
      </defs>
      <use xlink:href="#DejaVuSans-4d"/>
      <use xlink:href="#DejaVuSans-44" x="86.279297"/>
      <use xlink:href="#DejaVuSans-41" x="161.53125"/>
      <use xlink:href="#DejaVuSans-5f" x="229.939453"/>
      <use xlink:href="#DejaVuSans-4d" x="279.939453"/>
      <use xlink:href="#DejaVuSans-42" x="366.21875"/>
      <use xlink:href="#DejaVuSans-5f" x="434.822266"/>
      <use xlink:href="#DejaVuSans-32" x="484.822266"/>
      <use xlink:href="#DejaVuSans-33" x="548.445312"/>
      <use xlink:href="#DejaVuSans-31" x="612.068359"/>
     </g>
    </g>
   </g>
  </g>
  <g id="text_46">
   <!-- Histograms of linear distances to global mean cell -->
   <g transform="translate(181.054688 20.956875) scale(0.2 -0.2)">
    <defs>
     <path id="DejaVuSans-48" d="M 628 4666 
L 1259 4666 
L 1259 2753 
L 3553 2753 
L 3553 4666 
L 4184 4666 
L 4184 0 
L 3553 0 
L 3553 2222 
L 1259 2222 
L 1259 0 
L 628 0 
L 628 4666 
z
" transform="scale(0.015625)"/>
     <path id="DejaVuSans-67" d="M 2906 1791 
Q 2906 2416 2648 2759 
Q 2391 3103 1925 3103 
Q 1463 3103 1205 2759 
Q 947 2416 947 1791 
Q 947 1169 1205 825 
Q 1463 481 1925 481 
Q 2391 481 2648 825 
Q 2906 1169 2906 1791 
z
M 3481 434 
Q 3481 -459 3084 -895 
Q 2688 -1331 1869 -1331 
Q 1566 -1331 1297 -1286 
Q 1028 -1241 775 -1147 
L 775 -588 
Q 1028 -725 1275 -790 
Q 1522 -856 1778 -856 
Q 2344 -856 2625 -561 
Q 2906 -266 2906 331 
L 2906 616 
Q 2728 306 2450 153 
Q 2172 0 1784 0 
Q 1141 0 747 490 
Q 353 981 353 1791 
Q 353 2603 747 3093 
Q 1141 3584 1784 3584 
Q 2172 3584 2450 3431 
Q 2728 3278 2906 2969 
L 2906 3500 
L 3481 3500 
L 3481 434 
z
" transform="scale(0.015625)"/>
     <path id="DejaVuSans-6d" d="M 3328 2828 
Q 3544 3216 3844 3400 
Q 4144 3584 4550 3584 
Q 5097 3584 5394 3201 
Q 5691 2819 5691 2113 
L 5691 0 
L 5113 0 
L 5113 2094 
Q 5113 2597 4934 2840 
Q 4756 3084 4391 3084 
Q 3944 3084 3684 2787 
Q 3425 2491 3425 1978 
L 3425 0 
L 2847 0 
L 2847 2094 
Q 2847 2600 2669 2842 
Q 2491 3084 2119 3084 
Q 1678 3084 1418 2786 
Q 1159 2488 1159 1978 
L 1159 0 
L 581 0 
L 581 3500 
L 1159 3500 
L 1159 2956 
Q 1356 3278 1631 3431 
Q 1906 3584 2284 3584 
Q 2666 3584 2933 3390 
Q 3200 3197 3328 2828 
z
" transform="scale(0.015625)"/>
     <path id="DejaVuSans-64" d="M 2906 2969 
L 2906 4863 
L 3481 4863 
L 3481 0 
L 2906 0 
L 2906 525 
Q 2725 213 2448 61 
Q 2172 -91 1784 -91 
Q 1150 -91 751 415 
Q 353 922 353 1747 
Q 353 2572 751 3078 
Q 1150 3584 1784 3584 
Q 2172 3584 2448 3432 
Q 2725 3281 2906 2969 
z
M 947 1747 
Q 947 1113 1208 752 
Q 1469 391 1925 391 
Q 2381 391 2643 752 
Q 2906 1113 2906 1747 
Q 2906 2381 2643 2742 
Q 2381 3103 1925 3103 
Q 1469 3103 1208 2742 
Q 947 2381 947 1747 
z
" transform="scale(0.015625)"/>
     <path id="DejaVuSans-62" d="M 3116 1747 
Q 3116 2381 2855 2742 
Q 2594 3103 2138 3103 
Q 1681 3103 1420 2742 
Q 1159 2381 1159 1747 
Q 1159 1113 1420 752 
Q 1681 391 2138 391 
Q 2594 391 2855 752 
Q 3116 1113 3116 1747 
z
M 1159 2969 
Q 1341 3281 1617 3432 
Q 1894 3584 2278 3584 
Q 2916 3584 3314 3078 
Q 3713 2572 3713 1747 
Q 3713 922 3314 415 
Q 2916 -91 2278 -91 
Q 1894 -91 1617 61 
Q 1341 213 1159 525 
L 1159 0 
L 581 0 
L 581 4863 
L 1159 4863 
L 1159 2969 
z
" transform="scale(0.015625)"/>
    </defs>
    <use xlink:href="#DejaVuSans-48"/>
    <use xlink:href="#DejaVuSans-69" x="75.195312"/>
    <use xlink:href="#DejaVuSans-73" x="102.978516"/>
    <use xlink:href="#DejaVuSans-74" x="155.078125"/>
    <use xlink:href="#DejaVuSans-6f" x="194.287109"/>
    <use xlink:href="#DejaVuSans-67" x="255.46875"/>
    <use xlink:href="#DejaVuSans-72" x="318.945312"/>
    <use xlink:href="#DejaVuSans-61" x="360.058594"/>
    <use xlink:href="#DejaVuSans-6d" x="421.337891"/>
    <use xlink:href="#DejaVuSans-73" x="518.75"/>
    <use xlink:href="#DejaVuSans-20" x="570.849609"/>
    <use xlink:href="#DejaVuSans-6f" x="602.636719"/>
    <use xlink:href="#DejaVuSans-66" x="663.818359"/>
    <use xlink:href="#DejaVuSans-20" x="699.023438"/>
    <use xlink:href="#DejaVuSans-6c" x="730.810547"/>
    <use xlink:href="#DejaVuSans-69" x="758.59375"/>
    <use xlink:href="#DejaVuSans-6e" x="786.376953"/>
    <use xlink:href="#DejaVuSans-65" x="849.755859"/>
    <use xlink:href="#DejaVuSans-61" x="911.279297"/>
    <use xlink:href="#DejaVuSans-72" x="972.558594"/>
    <use xlink:href="#DejaVuSans-20" x="1013.671875"/>
    <use xlink:href="#DejaVuSans-64" x="1045.458984"/>
    <use xlink:href="#DejaVuSans-69" x="1108.935547"/>
    <use xlink:href="#DejaVuSans-73" x="1136.71875"/>
    <use xlink:href="#DejaVuSans-74" x="1188.818359"/>
    <use xlink:href="#DejaVuSans-61" x="1228.027344"/>
    <use xlink:href="#DejaVuSans-6e" x="1289.306641"/>
    <use xlink:href="#DejaVuSans-63" x="1352.685547"/>
    <use xlink:href="#DejaVuSans-65" x="1407.666016"/>
    <use xlink:href="#DejaVuSans-73" x="1469.189453"/>
    <use xlink:href="#DejaVuSans-20" x="1521.289062"/>
    <use xlink:href="#DejaVuSans-74" x="1553.076172"/>
    <use xlink:href="#DejaVuSans-6f" x="1592.285156"/>
    <use xlink:href="#DejaVuSans-20" x="1653.466797"/>
    <use xlink:href="#DejaVuSans-67" x="1685.253906"/>
    <use xlink:href="#DejaVuSans-6c" x="1748.730469"/>
    <use xlink:href="#DejaVuSans-6f" x="1776.513672"/>
    <use xlink:href="#DejaVuSans-62" x="1837.695312"/>
    <use xlink:href="#DejaVuSans-61" x="1901.171875"/>
    <use xlink:href="#DejaVuSans-6c" x="1962.451172"/>
    <use xlink:href="#DejaVuSans-20" x="1990.234375"/>
    <use xlink:href="#DejaVuSans-6d" x="2022.021484"/>
    <use xlink:href="#DejaVuSans-65" x="2119.433594"/>
    <use xlink:href="#DejaVuSans-61" x="2180.957031"/>
    <use xlink:href="#DejaVuSans-6e" x="2242.236328"/>
    <use xlink:href="#DejaVuSans-20" x="2305.615234"/>
    <use xlink:href="#DejaVuSans-63" x="2337.402344"/>
    <use xlink:href="#DejaVuSans-65" x="2392.382812"/>
    <use xlink:href="#DejaVuSans-6c" x="2453.90625"/>
    <use xlink:href="#DejaVuSans-6c" x="2481.689453"/>
   </g>
  </g>
 </g>
 <defs>
  <clipPath id="p11ff18d2ae">
   <rect x="48.074375" y="44.755469" width="236.325625" height="215.766406"/>
  </clipPath>
  <clipPath id="pf50232770b">
   <rect x="332.474375" y="44.755469" width="236.325625" height="215.766406"/>
  </clipPath>
  <clipPath id="p9196f547cf">
   <rect x="616.874375" y="44.755469" width="236.325625" height="215.766406"/>
  </clipPath>
 </defs>
</svg>
