<?xml version="1.0" encoding="utf-8" standalone="no"?>
<!DOCTYPE svg PUBLIC "-//W3C//DTD SVG 1.1//EN"
  "http://www.w3.org/Graphics/SVG/1.1/DTD/svg11.dtd">
<svg xmlns:xlink="http://www.w3.org/1999/xlink" width="864pt" height="288pt" viewBox="0 0 864 288" xmlns="http://www.w3.org/2000/svg" version="1.1">
 <metadata>
  <rdf:RDF xmlns:dc="http://purl.org/dc/elements/1.1/" xmlns:cc="http://creativecommons.org/ns#" xmlns:rdf="http://www.w3.org/1999/02/22-rdf-syntax-ns#">
   <cc:Work>
    <dc:type rdf:resource="http://purl.org/dc/dcmitype/StillImage"/>
    <dc:date>2023-12-12T02:42:56.616148</dc:date>
    <dc:format>image/svg+xml</dc:format>
    <dc:creator>
     <cc:Agent>
      <dc:title>Matplotlib v3.6.2, https://matplotlib.org/</dc:title>
     </cc:Agent>
    </dc:creator>
   </cc:Work>
  </rdf:RDF>
 </metadata>
 <defs>
  <style type="text/css">*{stroke-linejoin: round; stroke-linecap: butt}</style>
 </defs>
 <g id="figure_1">
  <g id="patch_1">
   <path d="M 0 288 
L 864 288 
L 864 0 
L 0 0 
z
" style="fill: #ffffff"/>
  </g>
  <g id="axes_1">
   <g id="patch_2">
    <path d="M 48.074375 260.521875 
L 295.216667 260.521875 
L 295.216667 40.95625 
L 48.074375 40.95625 
z
" style="fill: #ffffff"/>
   </g>
   <g id="patch_3">
    <path d="M 97.582865 260.521875 
L 109.315502 260.521875 
L 109.315502 155.822691 
L 97.582865 155.822691 
z
" clip-path="url(#pd167c4afb4)" style="fill: #1f77b4; opacity: 0.4"/>
   </g>
   <g id="patch_4">
    <path d="M 109.315502 260.521875 
L 121.048139 260.521875 
L 121.048139 130.050584 
L 109.315502 130.050584 
z
" clip-path="url(#pd167c4afb4)" style="fill: #1f77b4; opacity: 0.4"/>
   </g>
   <g id="patch_5">
    <path d="M 121.048139 260.521875 
L 132.780777 260.521875 
L 132.780777 194.480851 
L 121.048139 194.480851 
z
" clip-path="url(#pd167c4afb4)" style="fill: #1f77b4; opacity: 0.4"/>
   </g>
   <g id="patch_6">
    <path d="M 132.780777 260.521875 
L 144.513414 260.521875 
L 144.513414 217.031445 
L 132.780777 217.031445 
z
" clip-path="url(#pd167c4afb4)" style="fill: #1f77b4; opacity: 0.4"/>
   </g>
   <g id="patch_7">
    <path d="M 144.513414 260.521875 
L 156.246051 260.521875 
L 156.246051 249.246578 
L 144.513414 249.246578 
z
" clip-path="url(#pd167c4afb4)" style="fill: #1f77b4; opacity: 0.4"/>
   </g>
   <g id="patch_8">
    <path d="M 156.246051 260.521875 
L 167.978688 260.521875 
L 167.978688 252.468092 
L 156.246051 252.468092 
z
" clip-path="url(#pd167c4afb4)" style="fill: #1f77b4; opacity: 0.4"/>
   </g>
   <g id="patch_9">
    <path d="M 167.978688 260.521875 
L 179.711325 260.521875 
L 179.711325 258.911118 
L 167.978688 258.911118 
z
" clip-path="url(#pd167c4afb4)" style="fill: #1f77b4; opacity: 0.4"/>
   </g>
   <g id="patch_10">
    <path d="M 179.711325 260.521875 
L 191.443962 260.521875 
L 191.443962 260.521875 
L 179.711325 260.521875 
z
" clip-path="url(#pd167c4afb4)" style="fill: #1f77b4; opacity: 0.4"/>
   </g>
   <g id="patch_11">
    <path d="M 191.443962 260.521875 
L 203.176599 260.521875 
L 203.176599 260.521875 
L 191.443962 260.521875 
z
" clip-path="url(#pd167c4afb4)" style="fill: #1f77b4; opacity: 0.4"/>
   </g>
   <g id="patch_12">
    <path d="M 203.176599 260.521875 
L 214.909236 260.521875 
L 214.909236 260.521875 
L 203.176599 260.521875 
z
" clip-path="url(#pd167c4afb4)" style="fill: #1f77b4; opacity: 0.4"/>
   </g>
   <g id="patch_13">
    <path d="M 214.909236 260.521875 
L 226.641873 260.521875 
L 226.641873 260.521875 
L 214.909236 260.521875 
z
" clip-path="url(#pd167c4afb4)" style="fill: #1f77b4; opacity: 0.4"/>
   </g>
   <g id="patch_14">
    <path d="M 226.641873 260.521875 
L 238.37451 260.521875 
L 238.37451 260.521875 
L 226.641873 260.521875 
z
" clip-path="url(#pd167c4afb4)" style="fill: #1f77b4; opacity: 0.4"/>
   </g>
   <g id="patch_15">
    <path d="M 238.37451 260.521875 
L 250.107147 260.521875 
L 250.107147 260.521875 
L 238.37451 260.521875 
z
" clip-path="url(#pd167c4afb4)" style="fill: #1f77b4; opacity: 0.4"/>
   </g>
   <g id="patch_16">
    <path d="M 250.107147 260.521875 
L 261.839785 260.521875 
L 261.839785 260.521875 
L 250.107147 260.521875 
z
" clip-path="url(#pd167c4afb4)" style="fill: #1f77b4; opacity: 0.4"/>
   </g>
   <g id="patch_17">
    <path d="M 261.839785 260.521875 
L 273.572422 260.521875 
L 273.572422 260.521875 
L 261.839785 260.521875 
z
" clip-path="url(#pd167c4afb4)" style="fill: #1f77b4; opacity: 0.4"/>
   </g>
   <g id="patch_18">
    <path d="M 273.572422 260.521875 
L 285.305059 260.521875 
L 285.305059 260.521875 
L 273.572422 260.521875 
z
" clip-path="url(#pd167c4afb4)" style="fill: #1f77b4; opacity: 0.4"/>
   </g>
   <g id="patch_19">
    <path d="M 285.305059 260.521875 
L 297.037696 260.521875 
L 297.037696 260.521875 
L 285.305059 260.521875 
z
" clip-path="url(#pd167c4afb4)" style="fill: #1f77b4; opacity: 0.4"/>
   </g>
   <g id="patch_20">
    <path d="M 297.037696 260.521875 
L 308.770333 260.521875 
L 308.770333 260.521875 
L 297.037696 260.521875 
z
" clip-path="url(#pd167c4afb4)" style="fill: #1f77b4; opacity: 0.4"/>
   </g>
   <g id="patch_21">
    <path d="M 308.770333 260.521875 
L 320.50297 260.521875 
L 320.50297 260.521875 
L 308.770333 260.521875 
z
" clip-path="url(#pd167c4afb4)" style="fill: #1f77b4; opacity: 0.4"/>
   </g>
   <g id="patch_22">
    <path d="M 320.50297 260.521875 
L 332.235607 260.521875 
L 332.235607 258.911118 
L 320.50297 258.911118 
z
" clip-path="url(#pd167c4afb4)" style="fill: #1f77b4; opacity: 0.4"/>
   </g>
   <g id="matplotlib.axis_1">
    <g id="xtick_1">
     <g id="line2d_1">
      <defs>
       <path id="m068a0733d2" d="M 0 0 
L 0 3.5 
" style="stroke: #000000; stroke-width: 0.8"/>
      </defs>
      <g>
       <use xlink:href="#m068a0733d2" x="70.392701" y="260.521875" style="stroke: #000000; stroke-width: 0.8"/>
      </g>
     </g>
     <g id="text_1">
      <!-- 0.4 -->
      <g transform="translate(62.441139 275.120313) scale(0.1 -0.1)">
       <defs>
        <path id="DejaVuSans-30" d="M 2034 4250 
Q 1547 4250 1301 3770 
Q 1056 3291 1056 2328 
Q 1056 1369 1301 889 
Q 1547 409 2034 409 
Q 2525 409 2770 889 
Q 3016 1369 3016 2328 
Q 3016 3291 2770 3770 
Q 2525 4250 2034 4250 
z
M 2034 4750 
Q 2819 4750 3233 4129 
Q 3647 3509 3647 2328 
Q 3647 1150 3233 529 
Q 2819 -91 2034 -91 
Q 1250 -91 836 529 
Q 422 1150 422 2328 
Q 422 3509 836 4129 
Q 1250 4750 2034 4750 
z
" transform="scale(0.015625)"/>
        <path id="DejaVuSans-2e" d="M 684 794 
L 1344 794 
L 1344 0 
L 684 0 
L 684 794 
z
" transform="scale(0.015625)"/>
        <path id="DejaVuSans-34" d="M 2419 4116 
L 825 1625 
L 2419 1625 
L 2419 4116 
z
M 2253 4666 
L 3047 4666 
L 3047 1625 
L 3713 1625 
L 3713 1100 
L 3047 1100 
L 3047 0 
L 2419 0 
L 2419 1100 
L 313 1100 
L 313 1709 
L 2253 4666 
z
" transform="scale(0.015625)"/>
       </defs>
       <use xlink:href="#DejaVuSans-30"/>
       <use xlink:href="#DejaVuSans-2e" x="63.623047"/>
       <use xlink:href="#DejaVuSans-34" x="95.410156"/>
      </g>
     </g>
    </g>
    <g id="xtick_2">
     <g id="line2d_2">
      <g>
       <use xlink:href="#m068a0733d2" x="124.050989" y="260.521875" style="stroke: #000000; stroke-width: 0.8"/>
      </g>
     </g>
     <g id="text_2">
      <!-- 0.6 -->
      <g transform="translate(116.099427 275.120313) scale(0.1 -0.1)">
       <defs>
        <path id="DejaVuSans-36" d="M 2113 2584 
Q 1688 2584 1439 2293 
Q 1191 2003 1191 1497 
Q 1191 994 1439 701 
Q 1688 409 2113 409 
Q 2538 409 2786 701 
Q 3034 994 3034 1497 
Q 3034 2003 2786 2293 
Q 2538 2584 2113 2584 
z
M 3366 4563 
L 3366 3988 
Q 3128 4100 2886 4159 
Q 2644 4219 2406 4219 
Q 1781 4219 1451 3797 
Q 1122 3375 1075 2522 
Q 1259 2794 1537 2939 
Q 1816 3084 2150 3084 
Q 2853 3084 3261 2657 
Q 3669 2231 3669 1497 
Q 3669 778 3244 343 
Q 2819 -91 2113 -91 
Q 1303 -91 875 529 
Q 447 1150 447 2328 
Q 447 3434 972 4092 
Q 1497 4750 2381 4750 
Q 2619 4750 2861 4703 
Q 3103 4656 3366 4563 
z
" transform="scale(0.015625)"/>
       </defs>
       <use xlink:href="#DejaVuSans-30"/>
       <use xlink:href="#DejaVuSans-2e" x="63.623047"/>
       <use xlink:href="#DejaVuSans-36" x="95.410156"/>
      </g>
     </g>
    </g>
    <g id="xtick_3">
     <g id="line2d_3">
      <g>
       <use xlink:href="#m068a0733d2" x="177.709277" y="260.521875" style="stroke: #000000; stroke-width: 0.8"/>
      </g>
     </g>
     <g id="text_3">
      <!-- 0.8 -->
      <g transform="translate(169.757715 275.120313) scale(0.1 -0.1)">
       <defs>
        <path id="DejaVuSans-38" d="M 2034 2216 
Q 1584 2216 1326 1975 
Q 1069 1734 1069 1313 
Q 1069 891 1326 650 
Q 1584 409 2034 409 
Q 2484 409 2743 651 
Q 3003 894 3003 1313 
Q 3003 1734 2745 1975 
Q 2488 2216 2034 2216 
z
M 1403 2484 
Q 997 2584 770 2862 
Q 544 3141 544 3541 
Q 544 4100 942 4425 
Q 1341 4750 2034 4750 
Q 2731 4750 3128 4425 
Q 3525 4100 3525 3541 
Q 3525 3141 3298 2862 
Q 3072 2584 2669 2484 
Q 3125 2378 3379 2068 
Q 3634 1759 3634 1313 
Q 3634 634 3220 271 
Q 2806 -91 2034 -91 
Q 1263 -91 848 271 
Q 434 634 434 1313 
Q 434 1759 690 2068 
Q 947 2378 1403 2484 
z
M 1172 3481 
Q 1172 3119 1398 2916 
Q 1625 2713 2034 2713 
Q 2441 2713 2670 2916 
Q 2900 3119 2900 3481 
Q 2900 3844 2670 4047 
Q 2441 4250 2034 4250 
Q 1625 4250 1398 4047 
Q 1172 3844 1172 3481 
z
" transform="scale(0.015625)"/>
       </defs>
       <use xlink:href="#DejaVuSans-30"/>
       <use xlink:href="#DejaVuSans-2e" x="63.623047"/>
       <use xlink:href="#DejaVuSans-38" x="95.410156"/>
      </g>
     </g>
    </g>
    <g id="xtick_4">
     <g id="line2d_4">
      <g>
       <use xlink:href="#m068a0733d2" x="231.367565" y="260.521875" style="stroke: #000000; stroke-width: 0.8"/>
      </g>
     </g>
     <g id="text_4">
      <!-- 1.0 -->
      <g transform="translate(223.416002 275.120313) scale(0.1 -0.1)">
       <defs>
        <path id="DejaVuSans-31" d="M 794 531 
L 1825 531 
L 1825 4091 
L 703 3866 
L 703 4441 
L 1819 4666 
L 2450 4666 
L 2450 531 
L 3481 531 
L 3481 0 
L 794 0 
L 794 531 
z
" transform="scale(0.015625)"/>
       </defs>
       <use xlink:href="#DejaVuSans-31"/>
       <use xlink:href="#DejaVuSans-2e" x="63.623047"/>
       <use xlink:href="#DejaVuSans-30" x="95.410156"/>
      </g>
     </g>
    </g>
    <g id="xtick_5">
     <g id="line2d_5">
      <g>
       <use xlink:href="#m068a0733d2" x="285.025853" y="260.521875" style="stroke: #000000; stroke-width: 0.8"/>
      </g>
     </g>
     <g id="text_5">
      <!-- 1.2 -->
      <g transform="translate(277.07429 275.120313) scale(0.1 -0.1)">
       <defs>
        <path id="DejaVuSans-32" d="M 1228 531 
L 3431 531 
L 3431 0 
L 469 0 
L 469 531 
Q 828 903 1448 1529 
Q 2069 2156 2228 2338 
Q 2531 2678 2651 2914 
Q 2772 3150 2772 3378 
Q 2772 3750 2511 3984 
Q 2250 4219 1831 4219 
Q 1534 4219 1204 4116 
Q 875 4013 500 3803 
L 500 4441 
Q 881 4594 1212 4672 
Q 1544 4750 1819 4750 
Q 2544 4750 2975 4387 
Q 3406 4025 3406 3419 
Q 3406 3131 3298 2873 
Q 3191 2616 2906 2266 
Q 2828 2175 2409 1742 
Q 1991 1309 1228 531 
z
" transform="scale(0.015625)"/>
       </defs>
       <use xlink:href="#DejaVuSans-31"/>
       <use xlink:href="#DejaVuSans-2e" x="63.623047"/>
       <use xlink:href="#DejaVuSans-32" x="95.410156"/>
      </g>
     </g>
    </g>
   </g>
   <g id="matplotlib.axis_2">
    <g id="ytick_1">
     <g id="line2d_6">
      <defs>
       <path id="mf2a19fcd99" d="M 0 0 
L -3.5 0 
" style="stroke: #000000; stroke-width: 0.8"/>
      </defs>
      <g>
       <use xlink:href="#mf2a19fcd99" x="48.074375" y="260.521875" style="stroke: #000000; stroke-width: 0.8"/>
      </g>
     </g>
     <g id="text_6">
      <!-- 0 -->
      <g transform="translate(34.711875 264.321094) scale(0.1 -0.1)">
       <use xlink:href="#DejaVuSans-30"/>
      </g>
     </g>
    </g>
    <g id="ytick_2">
     <g id="line2d_7">
      <g>
       <use xlink:href="#mf2a19fcd99" x="48.074375" y="228.401278" style="stroke: #000000; stroke-width: 0.8"/>
      </g>
     </g>
     <g id="text_7">
      <!-- 2 -->
      <g transform="translate(34.711875 232.200497) scale(0.1 -0.1)">
       <use xlink:href="#DejaVuSans-32"/>
      </g>
     </g>
    </g>
    <g id="ytick_3">
     <g id="line2d_8">
      <g>
       <use xlink:href="#mf2a19fcd99" x="48.074375" y="196.280681" style="stroke: #000000; stroke-width: 0.8"/>
      </g>
     </g>
     <g id="text_8">
      <!-- 4 -->
      <g transform="translate(34.711875 200.0799) scale(0.1 -0.1)">
       <use xlink:href="#DejaVuSans-34"/>
      </g>
     </g>
    </g>
    <g id="ytick_4">
     <g id="line2d_9">
      <g>
       <use xlink:href="#mf2a19fcd99" x="48.074375" y="164.160085" style="stroke: #000000; stroke-width: 0.8"/>
      </g>
     </g>
     <g id="text_9">
      <!-- 6 -->
      <g transform="translate(34.711875 167.959303) scale(0.1 -0.1)">
       <use xlink:href="#DejaVuSans-36"/>
      </g>
     </g>
    </g>
    <g id="ytick_5">
     <g id="line2d_10">
      <g>
       <use xlink:href="#mf2a19fcd99" x="48.074375" y="132.039488" style="stroke: #000000; stroke-width: 0.8"/>
      </g>
     </g>
     <g id="text_10">
      <!-- 8 -->
      <g transform="translate(34.711875 135.838707) scale(0.1 -0.1)">
       <use xlink:href="#DejaVuSans-38"/>
      </g>
     </g>
    </g>
    <g id="ytick_6">
     <g id="line2d_11">
      <g>
       <use xlink:href="#mf2a19fcd99" x="48.074375" y="99.918891" style="stroke: #000000; stroke-width: 0.8"/>
      </g>
     </g>
     <g id="text_11">
      <!-- 10 -->
      <g transform="translate(28.349375 103.71811) scale(0.1 -0.1)">
       <use xlink:href="#DejaVuSans-31"/>
       <use xlink:href="#DejaVuSans-30" x="63.623047"/>
      </g>
     </g>
    </g>
    <g id="ytick_7">
     <g id="line2d_12">
      <g>
       <use xlink:href="#mf2a19fcd99" x="48.074375" y="67.798294" style="stroke: #000000; stroke-width: 0.8"/>
      </g>
     </g>
     <g id="text_12">
      <!-- 12 -->
      <g transform="translate(28.349375 71.597513) scale(0.1 -0.1)">
       <use xlink:href="#DejaVuSans-31"/>
       <use xlink:href="#DejaVuSans-32" x="63.623047"/>
      </g>
     </g>
    </g>
    <g id="text_13">
     <!-- Fraction of cells -->
     <g transform="translate(21.437812 205.570937) rotate(-90) scale(0.14 -0.14)">
      <defs>
       <path id="DejaVuSans-46" d="M 628 4666 
L 3309 4666 
L 3309 4134 
L 1259 4134 
L 1259 2759 
L 3109 2759 
L 3109 2228 
L 1259 2228 
L 1259 0 
L 628 0 
L 628 4666 
z
" transform="scale(0.015625)"/>
       <path id="DejaVuSans-72" d="M 2631 2963 
Q 2534 3019 2420 3045 
Q 2306 3072 2169 3072 
Q 1681 3072 1420 2755 
Q 1159 2438 1159 1844 
L 1159 0 
L 581 0 
L 581 3500 
L 1159 3500 
L 1159 2956 
Q 1341 3275 1631 3429 
Q 1922 3584 2338 3584 
Q 2397 3584 2469 3576 
Q 2541 3569 2628 3553 
L 2631 2963 
z
" transform="scale(0.015625)"/>
       <path id="DejaVuSans-61" d="M 2194 1759 
Q 1497 1759 1228 1600 
Q 959 1441 959 1056 
Q 959 750 1161 570 
Q 1363 391 1709 391 
Q 2188 391 2477 730 
Q 2766 1069 2766 1631 
L 2766 1759 
L 2194 1759 
z
M 3341 1997 
L 3341 0 
L 2766 0 
L 2766 531 
Q 2569 213 2275 61 
Q 1981 -91 1556 -91 
Q 1019 -91 701 211 
Q 384 513 384 1019 
Q 384 1609 779 1909 
Q 1175 2209 1959 2209 
L 2766 2209 
L 2766 2266 
Q 2766 2663 2505 2880 
Q 2244 3097 1772 3097 
Q 1472 3097 1187 3025 
Q 903 2953 641 2809 
L 641 3341 
Q 956 3463 1253 3523 
Q 1550 3584 1831 3584 
Q 2591 3584 2966 3190 
Q 3341 2797 3341 1997 
z
" transform="scale(0.015625)"/>
       <path id="DejaVuSans-63" d="M 3122 3366 
L 3122 2828 
Q 2878 2963 2633 3030 
Q 2388 3097 2138 3097 
Q 1578 3097 1268 2742 
Q 959 2388 959 1747 
Q 959 1106 1268 751 
Q 1578 397 2138 397 
Q 2388 397 2633 464 
Q 2878 531 3122 666 
L 3122 134 
Q 2881 22 2623 -34 
Q 2366 -91 2075 -91 
Q 1284 -91 818 406 
Q 353 903 353 1747 
Q 353 2603 823 3093 
Q 1294 3584 2113 3584 
Q 2378 3584 2631 3529 
Q 2884 3475 3122 3366 
z
" transform="scale(0.015625)"/>
       <path id="DejaVuSans-74" d="M 1172 4494 
L 1172 3500 
L 2356 3500 
L 2356 3053 
L 1172 3053 
L 1172 1153 
Q 1172 725 1289 603 
Q 1406 481 1766 481 
L 2356 481 
L 2356 0 
L 1766 0 
Q 1100 0 847 248 
Q 594 497 594 1153 
L 594 3053 
L 172 3053 
L 172 3500 
L 594 3500 
L 594 4494 
L 1172 4494 
z
" transform="scale(0.015625)"/>
       <path id="DejaVuSans-69" d="M 603 3500 
L 1178 3500 
L 1178 0 
L 603 0 
L 603 3500 
z
M 603 4863 
L 1178 4863 
L 1178 4134 
L 603 4134 
L 603 4863 
z
" transform="scale(0.015625)"/>
       <path id="DejaVuSans-6f" d="M 1959 3097 
Q 1497 3097 1228 2736 
Q 959 2375 959 1747 
Q 959 1119 1226 758 
Q 1494 397 1959 397 
Q 2419 397 2687 759 
Q 2956 1122 2956 1747 
Q 2956 2369 2687 2733 
Q 2419 3097 1959 3097 
z
M 1959 3584 
Q 2709 3584 3137 3096 
Q 3566 2609 3566 1747 
Q 3566 888 3137 398 
Q 2709 -91 1959 -91 
Q 1206 -91 779 398 
Q 353 888 353 1747 
Q 353 2609 779 3096 
Q 1206 3584 1959 3584 
z
" transform="scale(0.015625)"/>
       <path id="DejaVuSans-6e" d="M 3513 2113 
L 3513 0 
L 2938 0 
L 2938 2094 
Q 2938 2591 2744 2837 
Q 2550 3084 2163 3084 
Q 1697 3084 1428 2787 
Q 1159 2491 1159 1978 
L 1159 0 
L 581 0 
L 581 3500 
L 1159 3500 
L 1159 2956 
Q 1366 3272 1645 3428 
Q 1925 3584 2291 3584 
Q 2894 3584 3203 3211 
Q 3513 2838 3513 2113 
z
" transform="scale(0.015625)"/>
       <path id="DejaVuSans-20" transform="scale(0.015625)"/>
       <path id="DejaVuSans-66" d="M 2375 4863 
L 2375 4384 
L 1825 4384 
Q 1516 4384 1395 4259 
Q 1275 4134 1275 3809 
L 1275 3500 
L 2222 3500 
L 2222 3053 
L 1275 3053 
L 1275 0 
L 697 0 
L 697 3053 
L 147 3053 
L 147 3500 
L 697 3500 
L 697 3744 
Q 697 4328 969 4595 
Q 1241 4863 1831 4863 
L 2375 4863 
z
" transform="scale(0.015625)"/>
       <path id="DejaVuSans-65" d="M 3597 1894 
L 3597 1613 
L 953 1613 
Q 991 1019 1311 708 
Q 1631 397 2203 397 
Q 2534 397 2845 478 
Q 3156 559 3463 722 
L 3463 178 
Q 3153 47 2828 -22 
Q 2503 -91 2169 -91 
Q 1331 -91 842 396 
Q 353 884 353 1716 
Q 353 2575 817 3079 
Q 1281 3584 2069 3584 
Q 2775 3584 3186 3129 
Q 3597 2675 3597 1894 
z
M 3022 2063 
Q 3016 2534 2758 2815 
Q 2500 3097 2075 3097 
Q 1594 3097 1305 2825 
Q 1016 2553 972 2059 
L 3022 2063 
z
" transform="scale(0.015625)"/>
       <path id="DejaVuSans-6c" d="M 603 4863 
L 1178 4863 
L 1178 0 
L 603 0 
L 603 4863 
z
" transform="scale(0.015625)"/>
       <path id="DejaVuSans-73" d="M 2834 3397 
L 2834 2853 
Q 2591 2978 2328 3040 
Q 2066 3103 1784 3103 
Q 1356 3103 1142 2972 
Q 928 2841 928 2578 
Q 928 2378 1081 2264 
Q 1234 2150 1697 2047 
L 1894 2003 
Q 2506 1872 2764 1633 
Q 3022 1394 3022 966 
Q 3022 478 2636 193 
Q 2250 -91 1575 -91 
Q 1294 -91 989 -36 
Q 684 19 347 128 
L 347 722 
Q 666 556 975 473 
Q 1284 391 1588 391 
Q 1994 391 2212 530 
Q 2431 669 2431 922 
Q 2431 1156 2273 1281 
Q 2116 1406 1581 1522 
L 1381 1569 
Q 847 1681 609 1914 
Q 372 2147 372 2553 
Q 372 3047 722 3315 
Q 1072 3584 1716 3584 
Q 2034 3584 2315 3537 
Q 2597 3491 2834 3397 
z
" transform="scale(0.015625)"/>
      </defs>
      <use xlink:href="#DejaVuSans-46"/>
      <use xlink:href="#DejaVuSans-72" x="50.269531"/>
      <use xlink:href="#DejaVuSans-61" x="91.382812"/>
      <use xlink:href="#DejaVuSans-63" x="152.662109"/>
      <use xlink:href="#DejaVuSans-74" x="207.642578"/>
      <use xlink:href="#DejaVuSans-69" x="246.851562"/>
      <use xlink:href="#DejaVuSans-6f" x="274.634766"/>
      <use xlink:href="#DejaVuSans-6e" x="335.816406"/>
      <use xlink:href="#DejaVuSans-20" x="399.195312"/>
      <use xlink:href="#DejaVuSans-6f" x="430.982422"/>
      <use xlink:href="#DejaVuSans-66" x="492.164062"/>
      <use xlink:href="#DejaVuSans-20" x="527.369141"/>
      <use xlink:href="#DejaVuSans-63" x="559.15625"/>
      <use xlink:href="#DejaVuSans-65" x="614.136719"/>
      <use xlink:href="#DejaVuSans-6c" x="675.660156"/>
      <use xlink:href="#DejaVuSans-6c" x="703.443359"/>
      <use xlink:href="#DejaVuSans-73" x="731.226562"/>
     </g>
    </g>
   </g>
   <g id="line2d_13">
    <path d="M -1 260.521875 
L 1.016329 260.521875 
L 6.436358 260.521875 
L 11.856387 260.521875 
L 17.276416 260.521875 
L 22.696445 260.521875 
L 28.116474 260.521875 
L 33.536503 260.521875 
L 38.956532 260.521875 
L 44.376562 260.521875 
L 49.796591 260.521875 
L 55.21662 260.521875 
L 60.636649 260.521874 
L 66.056678 260.521789 
L 71.476707 260.518839 
L 76.896736 260.461887 
L 82.316765 259.839203 
L 87.736794 255.89948 
L 93.156823 241.201854 
L 98.576852 208.748807 
L 103.996881 167.538955 
L 109.416911 140.921874 
L 114.83694 140.1561 
L 120.256969 158.032407 
L 125.676998 180.883804 
L 131.097027 198.809062 
L 136.517056 213.028967 
L 141.937085 226.844593 
L 147.357114 239.231967 
L 152.777143 247.881942 
L 158.197172 251.987701 
L 163.617201 254.120392 
L 169.037231 256.337106 
L 174.45726 258.162157 
L 179.877289 259.36143 
L 185.297318 260.112072 
L 190.717347 260.435355 
L 196.137376 260.511792 
L 201.557405 260.521244 
L 206.977434 260.521854 
L 212.397463 260.521875 
L 217.817492 260.521875 
L 223.237521 260.521875 
L 228.65755 260.521875 
L 234.07758 260.521875 
L 239.497609 260.521875 
L 244.917638 260.521875 
L 250.337667 260.521875 
L 255.757696 260.521875 
L 261.177725 260.521875 
L 266.597754 260.521875 
L 272.017783 260.521875 
L 277.437812 260.521875 
L 282.857841 260.521875 
L 288.27787 260.521875 
L 293.697899 260.521875 
L 299.117929 260.521867 
L 304.537958 260.521597 
L 309.957987 260.516683 
L 315.378016 260.47048 
L 320.798045 260.252278 
L 326.218074 259.772409 
L 331.638103 259.41772 
L 337.058132 259.659789 
L 342.478161 260.165166 
L 347.89819 260.443655 
L 353.318219 260.512785 
L 358.738249 260.521315 
L 364.158278 260.521857 
L 369.578307 260.521875 
L 374.998336 260.521875 
L 380.418365 260.521875 
L 385.838394 260.521875 
L 391.258423 260.521875 
L 396.678452 260.521875 
L 402.098481 260.521875 
L 407.51851 260.521875 
L 412.938539 260.521875 
L 418.358568 260.521875 
L 423.778598 260.521875 
L 429.198627 260.521875 
L 434.618656 260.521875 
L 440.038685 260.521875 
L 445.458714 260.521875 
L 450.878743 260.521875 
L 456.298772 260.521875 
L 461.718801 260.521875 
L 467.13883 260.521875 
L 472.558859 260.521875 
L 477.978888 260.521875 
L 483.398918 260.521875 
L 488.818947 260.521875 
L 494.238976 260.521875 
L 499.659005 260.521875 
" clip-path="url(#pd167c4afb4)" style="fill: none; stroke: #1f77b4; stroke-width: 1.5; stroke-linecap: square"/>
   </g>
   <g id="patch_23">
    <path d="M 48.074375 260.521875 
L 48.074375 40.95625 
" style="fill: none; stroke: #000000; stroke-width: 0.8; stroke-linejoin: miter; stroke-linecap: square"/>
   </g>
   <g id="patch_24">
    <path d="M 295.216667 260.521875 
L 295.216667 40.95625 
" style="fill: none; stroke: #000000; stroke-width: 0.8; stroke-linejoin: miter; stroke-linecap: square"/>
   </g>
   <g id="patch_25">
    <path d="M 48.074375 260.521875 
L 295.216667 260.521875 
" style="fill: none; stroke: #000000; stroke-width: 0.8; stroke-linejoin: miter; stroke-linecap: square"/>
   </g>
   <g id="patch_26">
    <path d="M 48.074375 40.95625 
L 295.216667 40.95625 
" style="fill: none; stroke: #000000; stroke-width: 0.8; stroke-linejoin: miter; stroke-linecap: square"/>
   </g>
   <g id="legend_1">
    <g id="patch_27">
     <path d="M 199.302917 68.17 
L 286.816667 68.17 
Q 289.216667 68.17 289.216667 65.77 
L 289.216667 49.35625 
Q 289.216667 46.95625 286.816667 46.95625 
L 199.302917 46.95625 
Q 196.902917 46.95625 196.902917 49.35625 
L 196.902917 65.77 
Q 196.902917 68.17 199.302917 68.17 
z
" style="fill: #ffffff; opacity: 0.8; stroke: #cccccc; stroke-linejoin: miter"/>
    </g>
    <g id="patch_28">
     <path d="M 201.702917 60.874375 
L 225.702917 60.874375 
L 225.702917 52.474375 
L 201.702917 52.474375 
z
" style="fill: #1f77b4; opacity: 0.4"/>
    </g>
    <g id="text_14">
     <!-- MCF10A -->
     <g transform="translate(235.302917 60.874375) scale(0.12 -0.12)">
      <defs>
       <path id="DejaVuSans-4d" d="M 628 4666 
L 1569 4666 
L 2759 1491 
L 3956 4666 
L 4897 4666 
L 4897 0 
L 4281 0 
L 4281 4097 
L 3078 897 
L 2444 897 
L 1241 4097 
L 1241 0 
L 628 0 
L 628 4666 
z
" transform="scale(0.015625)"/>
       <path id="DejaVuSans-43" d="M 4122 4306 
L 4122 3641 
Q 3803 3938 3442 4084 
Q 3081 4231 2675 4231 
Q 1875 4231 1450 3742 
Q 1025 3253 1025 2328 
Q 1025 1406 1450 917 
Q 1875 428 2675 428 
Q 3081 428 3442 575 
Q 3803 722 4122 1019 
L 4122 359 
Q 3791 134 3420 21 
Q 3050 -91 2638 -91 
Q 1578 -91 968 557 
Q 359 1206 359 2328 
Q 359 3453 968 4101 
Q 1578 4750 2638 4750 
Q 3056 4750 3426 4639 
Q 3797 4528 4122 4306 
z
" transform="scale(0.015625)"/>
       <path id="DejaVuSans-41" d="M 2188 4044 
L 1331 1722 
L 3047 1722 
L 2188 4044 
z
M 1831 4666 
L 2547 4666 
L 4325 0 
L 3669 0 
L 3244 1197 
L 1141 1197 
L 716 0 
L 50 0 
L 1831 4666 
z
" transform="scale(0.015625)"/>
      </defs>
      <use xlink:href="#DejaVuSans-4d"/>
      <use xlink:href="#DejaVuSans-43" x="86.279297"/>
      <use xlink:href="#DejaVuSans-46" x="156.103516"/>
      <use xlink:href="#DejaVuSans-31" x="213.623047"/>
      <use xlink:href="#DejaVuSans-30" x="277.246094"/>
      <use xlink:href="#DejaVuSans-41" x="340.869141"/>
     </g>
    </g>
   </g>
  </g>
  <g id="axes_2">
   <g id="patch_29">
    <path d="M 327.066042 260.521875 
L 574.208333 260.521875 
L 574.208333 40.95625 
L 327.066042 40.95625 
z
" style="fill: #ffffff"/>
   </g>
   <g id="patch_30">
    <path d="M 378.190945 260.521875 
L 385.425802 260.521875 
L 385.425802 220.817422 
L 378.190945 220.817422 
z
" clip-path="url(#pc3b662bf16)" style="fill: #ff7f0e; opacity: 0.4"/>
   </g>
   <g id="patch_31">
    <path d="M 385.425802 260.521875 
L 392.660659 260.521875 
L 392.660659 67.293537 
L 385.425802 67.293537 
z
" clip-path="url(#pc3b662bf16)" style="fill: #ff7f0e; opacity: 0.4"/>
   </g>
   <g id="patch_32">
    <path d="M 392.660659 260.521875 
L 399.895516 260.521875 
L 399.895516 51.411756 
L 392.660659 51.411756 
z
" clip-path="url(#pc3b662bf16)" style="fill: #ff7f0e; opacity: 0.4"/>
   </g>
   <g id="patch_33">
    <path d="M 399.895516 260.521875 
L 407.130373 260.521875 
L 407.130373 204.935641 
L 399.895516 204.935641 
z
" clip-path="url(#pc3b662bf16)" style="fill: #ff7f0e; opacity: 0.4"/>
   </g>
   <g id="patch_34">
    <path d="M 407.130373 260.521875 
L 414.36523 260.521875 
L 414.36523 223.464386 
L 407.130373 223.464386 
z
" clip-path="url(#pc3b662bf16)" style="fill: #ff7f0e; opacity: 0.4"/>
   </g>
   <g id="patch_35">
    <path d="M 414.36523 260.521875 
L 421.600087 260.521875 
L 421.600087 244.640094 
L 414.36523 244.640094 
z
" clip-path="url(#pc3b662bf16)" style="fill: #ff7f0e; opacity: 0.4"/>
   </g>
   <g id="patch_36">
    <path d="M 421.600087 260.521875 
L 428.834944 260.521875 
L 428.834944 241.99313 
L 421.600087 241.99313 
z
" clip-path="url(#pc3b662bf16)" style="fill: #ff7f0e; opacity: 0.4"/>
   </g>
   <g id="patch_37">
    <path d="M 428.834944 260.521875 
L 436.069801 260.521875 
L 436.069801 252.580984 
L 428.834944 252.580984 
z
" clip-path="url(#pc3b662bf16)" style="fill: #ff7f0e; opacity: 0.4"/>
   </g>
   <g id="patch_38">
    <path d="M 436.069801 260.521875 
L 443.304658 260.521875 
L 443.304658 260.521875 
L 436.069801 260.521875 
z
" clip-path="url(#pc3b662bf16)" style="fill: #ff7f0e; opacity: 0.4"/>
   </g>
   <g id="patch_39">
    <path d="M 443.304658 260.521875 
L 450.539515 260.521875 
L 450.539515 257.874911 
L 443.304658 257.874911 
z
" clip-path="url(#pc3b662bf16)" style="fill: #ff7f0e; opacity: 0.4"/>
   </g>
   <g id="patch_40">
    <path d="M 450.539515 260.521875 
L 457.774372 260.521875 
L 457.774372 257.874911 
L 450.539515 257.874911 
z
" clip-path="url(#pc3b662bf16)" style="fill: #ff7f0e; opacity: 0.4"/>
   </g>
   <g id="patch_41">
    <path d="M 457.774372 260.521875 
L 465.009229 260.521875 
L 465.009229 257.874911 
L 457.774372 257.874911 
z
" clip-path="url(#pc3b662bf16)" style="fill: #ff7f0e; opacity: 0.4"/>
   </g>
   <g id="patch_42">
    <path d="M 465.009229 260.521875 
L 472.244086 260.521875 
L 472.244086 257.874911 
L 465.009229 257.874911 
z
" clip-path="url(#pc3b662bf16)" style="fill: #ff7f0e; opacity: 0.4"/>
   </g>
   <g id="patch_43">
    <path d="M 472.244086 260.521875 
L 479.478943 260.521875 
L 479.478943 257.874911 
L 472.244086 257.874911 
z
" clip-path="url(#pc3b662bf16)" style="fill: #ff7f0e; opacity: 0.4"/>
   </g>
   <g id="patch_44">
    <path d="M 479.478943 260.521875 
L 486.7138 260.521875 
L 486.7138 260.521875 
L 479.478943 260.521875 
z
" clip-path="url(#pc3b662bf16)" style="fill: #ff7f0e; opacity: 0.4"/>
   </g>
   <g id="patch_45">
    <path d="M 486.7138 260.521875 
L 493.948657 260.521875 
L 493.948657 257.874911 
L 486.7138 257.874911 
z
" clip-path="url(#pc3b662bf16)" style="fill: #ff7f0e; opacity: 0.4"/>
   </g>
   <g id="patch_46">
    <path d="M 493.948657 260.521875 
L 501.183514 260.521875 
L 501.183514 260.521875 
L 493.948657 260.521875 
z
" clip-path="url(#pc3b662bf16)" style="fill: #ff7f0e; opacity: 0.4"/>
   </g>
   <g id="patch_47">
    <path d="M 501.183514 260.521875 
L 508.418371 260.521875 
L 508.418371 260.521875 
L 501.183514 260.521875 
z
" clip-path="url(#pc3b662bf16)" style="fill: #ff7f0e; opacity: 0.4"/>
   </g>
   <g id="patch_48">
    <path d="M 508.418371 260.521875 
L 515.653228 260.521875 
L 515.653228 260.521875 
L 508.418371 260.521875 
z
" clip-path="url(#pc3b662bf16)" style="fill: #ff7f0e; opacity: 0.4"/>
   </g>
   <g id="patch_49">
    <path d="M 515.653228 260.521875 
L 522.888085 260.521875 
L 522.888085 257.874911 
L 515.653228 257.874911 
z
" clip-path="url(#pc3b662bf16)" style="fill: #ff7f0e; opacity: 0.4"/>
   </g>
   <g id="matplotlib.axis_3">
    <g id="xtick_6">
     <g id="line2d_14">
      <g>
       <use xlink:href="#m068a0733d2" x="349.384368" y="260.521875" style="stroke: #000000; stroke-width: 0.8"/>
      </g>
     </g>
     <g id="text_15">
      <!-- 0.4 -->
      <g transform="translate(341.432805 275.120313) scale(0.1 -0.1)">
       <use xlink:href="#DejaVuSans-30"/>
       <use xlink:href="#DejaVuSans-2e" x="63.623047"/>
       <use xlink:href="#DejaVuSans-34" x="95.410156"/>
      </g>
     </g>
    </g>
    <g id="xtick_7">
     <g id="line2d_15">
      <g>
       <use xlink:href="#m068a0733d2" x="403.042656" y="260.521875" style="stroke: #000000; stroke-width: 0.8"/>
      </g>
     </g>
     <g id="text_16">
      <!-- 0.6 -->
      <g transform="translate(395.091093 275.120313) scale(0.1 -0.1)">
       <use xlink:href="#DejaVuSans-30"/>
       <use xlink:href="#DejaVuSans-2e" x="63.623047"/>
       <use xlink:href="#DejaVuSans-36" x="95.410156"/>
      </g>
     </g>
    </g>
    <g id="xtick_8">
     <g id="line2d_16">
      <g>
       <use xlink:href="#m068a0733d2" x="456.700944" y="260.521875" style="stroke: #000000; stroke-width: 0.8"/>
      </g>
     </g>
     <g id="text_17">
      <!-- 0.8 -->
      <g transform="translate(448.749381 275.120313) scale(0.1 -0.1)">
       <use xlink:href="#DejaVuSans-30"/>
       <use xlink:href="#DejaVuSans-2e" x="63.623047"/>
       <use xlink:href="#DejaVuSans-38" x="95.410156"/>
      </g>
     </g>
    </g>
    <g id="xtick_9">
     <g id="line2d_17">
      <g>
       <use xlink:href="#m068a0733d2" x="510.359232" y="260.521875" style="stroke: #000000; stroke-width: 0.8"/>
      </g>
     </g>
     <g id="text_18">
      <!-- 1.0 -->
      <g transform="translate(502.407669 275.120313) scale(0.1 -0.1)">
       <use xlink:href="#DejaVuSans-31"/>
       <use xlink:href="#DejaVuSans-2e" x="63.623047"/>
       <use xlink:href="#DejaVuSans-30" x="95.410156"/>
      </g>
     </g>
    </g>
    <g id="xtick_10">
     <g id="line2d_18">
      <g>
       <use xlink:href="#m068a0733d2" x="564.01752" y="260.521875" style="stroke: #000000; stroke-width: 0.8"/>
      </g>
     </g>
     <g id="text_19">
      <!-- 1.2 -->
      <g transform="translate(556.065957 275.120313) scale(0.1 -0.1)">
       <use xlink:href="#DejaVuSans-31"/>
       <use xlink:href="#DejaVuSans-2e" x="63.623047"/>
       <use xlink:href="#DejaVuSans-32" x="95.410156"/>
      </g>
     </g>
    </g>
   </g>
   <g id="matplotlib.axis_4">
    <g id="ytick_8">
     <g id="line2d_19">
      <g>
       <use xlink:href="#mf2a19fcd99" x="327.066042" y="260.521875" style="stroke: #000000; stroke-width: 0.8"/>
      </g>
     </g>
    </g>
    <g id="ytick_9">
     <g id="line2d_20">
      <g>
       <use xlink:href="#mf2a19fcd99" x="327.066042" y="228.401278" style="stroke: #000000; stroke-width: 0.8"/>
      </g>
     </g>
    </g>
    <g id="ytick_10">
     <g id="line2d_21">
      <g>
       <use xlink:href="#mf2a19fcd99" x="327.066042" y="196.280681" style="stroke: #000000; stroke-width: 0.8"/>
      </g>
     </g>
    </g>
    <g id="ytick_11">
     <g id="line2d_22">
      <g>
       <use xlink:href="#mf2a19fcd99" x="327.066042" y="164.160085" style="stroke: #000000; stroke-width: 0.8"/>
      </g>
     </g>
    </g>
    <g id="ytick_12">
     <g id="line2d_23">
      <g>
       <use xlink:href="#mf2a19fcd99" x="327.066042" y="132.039488" style="stroke: #000000; stroke-width: 0.8"/>
      </g>
     </g>
    </g>
    <g id="ytick_13">
     <g id="line2d_24">
      <g>
       <use xlink:href="#mf2a19fcd99" x="327.066042" y="99.918891" style="stroke: #000000; stroke-width: 0.8"/>
      </g>
     </g>
    </g>
    <g id="ytick_14">
     <g id="line2d_25">
      <g>
       <use xlink:href="#mf2a19fcd99" x="327.066042" y="67.798294" style="stroke: #000000; stroke-width: 0.8"/>
      </g>
     </g>
    </g>
    <g id="text_20">
     <!-- Fraction of cells -->
     <g transform="translate(316.654479 205.570937) rotate(-90) scale(0.14 -0.14)">
      <use xlink:href="#DejaVuSans-46"/>
      <use xlink:href="#DejaVuSans-72" x="50.269531"/>
      <use xlink:href="#DejaVuSans-61" x="91.382812"/>
      <use xlink:href="#DejaVuSans-63" x="152.662109"/>
      <use xlink:href="#DejaVuSans-74" x="207.642578"/>
      <use xlink:href="#DejaVuSans-69" x="246.851562"/>
      <use xlink:href="#DejaVuSans-6f" x="274.634766"/>
      <use xlink:href="#DejaVuSans-6e" x="335.816406"/>
      <use xlink:href="#DejaVuSans-20" x="399.195312"/>
      <use xlink:href="#DejaVuSans-6f" x="430.982422"/>
      <use xlink:href="#DejaVuSans-66" x="492.164062"/>
      <use xlink:href="#DejaVuSans-20" x="527.369141"/>
      <use xlink:href="#DejaVuSans-63" x="559.15625"/>
      <use xlink:href="#DejaVuSans-65" x="614.136719"/>
      <use xlink:href="#DejaVuSans-6c" x="675.660156"/>
      <use xlink:href="#DejaVuSans-6c" x="703.443359"/>
      <use xlink:href="#DejaVuSans-73" x="731.226562"/>
     </g>
    </g>
   </g>
   <g id="line2d_26">
    <path d="M 242.067792 260.521875 
L 247.487821 260.521875 
L 252.90785 260.521875 
L 258.327879 260.521875 
L 263.747908 260.521875 
L 269.167937 260.521875 
L 274.587966 260.521875 
L 280.007996 260.521875 
L 285.428025 260.521875 
L 290.848054 260.521875 
L 296.268083 260.521875 
L 301.688112 260.521875 
L 307.108141 260.521875 
L 312.52817 260.521875 
L 317.948199 260.521875 
L 323.368228 260.521875 
L 328.788257 260.521875 
L 334.208286 260.521875 
L 339.628315 260.521875 
L 345.048345 260.521875 
L 350.468374 260.521849 
L 355.888403 260.520225 
L 361.308432 260.47305 
L 366.728461 259.795 
L 372.14849 254.638712 
L 377.568519 232.588238 
L 382.988548 178.407001 
L 388.408577 108.28102 
L 393.828606 83.12836 
L 399.248635 127.472303 
L 404.668664 186.06744 
L 410.088694 218.105304 
L 415.508723 232.945765 
L 420.928752 241.223806 
L 426.348781 246.427026 
L 431.76881 251.932383 
L 437.188839 256.788631 
L 442.608868 258.758344 
L 448.028897 258.197465 
L 453.448926 257.48964 
L 458.868955 257.621534 
L 464.288984 257.895023 
L 469.709014 257.892644 
L 475.129043 258.327778 
L 480.549072 258.917815 
L 485.969101 259.047073 
L 491.38913 259.532056 
L 496.809159 260.210138 
L 502.229188 260.477101 
L 507.649217 260.475426 
L 513.069246 260.202235 
L 518.489275 259.537717 
L 523.909304 259.236262 
L 529.329333 259.809484 
L 534.749363 260.354424 
L 540.169392 260.505179 
L 545.589421 260.521169 
L 551.00945 260.521862 
L 556.429479 260.521875 
L 561.849508 260.521875 
L 567.269537 260.521875 
L 572.689566 260.521875 
L 578.109595 260.521875 
L 583.529624 260.521875 
L 588.949653 260.521875 
L 594.369682 260.521875 
L 599.789712 260.521875 
L 605.209741 260.521875 
L 610.62977 260.521875 
L 616.049799 260.521875 
L 621.469828 260.521875 
L 626.889857 260.521875 
L 632.309886 260.521875 
L 637.729915 260.521875 
L 643.149944 260.521875 
L 648.569973 260.521875 
L 653.990002 260.521875 
L 659.410032 260.521875 
L 664.830061 260.521875 
L 670.25009 260.521875 
L 675.670119 260.521875 
L 681.090148 260.521875 
L 686.510177 260.521875 
L 691.930206 260.521875 
L 697.350235 260.521875 
L 702.770264 260.521875 
L 708.190293 260.521875 
L 713.610322 260.521875 
L 719.030351 260.521875 
L 724.450381 260.521875 
L 729.87041 260.521875 
L 735.290439 260.521875 
L 740.710468 260.521875 
L 746.130497 260.521875 
L 751.550526 260.521875 
L 756.970555 260.521875 
L 762.390584 260.521875 
L 767.810613 260.521875 
L 773.230642 260.521875 
L 778.650671 260.521875 
" clip-path="url(#pc3b662bf16)" style="fill: none; stroke: #ff7f0e; stroke-width: 1.5; stroke-linecap: square"/>
   </g>
   <g id="patch_50">
    <path d="M 327.066042 260.521875 
L 327.066042 40.95625 
" style="fill: none; stroke: #000000; stroke-width: 0.8; stroke-linejoin: miter; stroke-linecap: square"/>
   </g>
   <g id="patch_51">
    <path d="M 574.208333 260.521875 
L 574.208333 40.95625 
" style="fill: none; stroke: #000000; stroke-width: 0.8; stroke-linejoin: miter; stroke-linecap: square"/>
   </g>
   <g id="patch_52">
    <path d="M 327.066042 260.521875 
L 574.208333 260.521875 
" style="fill: none; stroke: #000000; stroke-width: 0.8; stroke-linejoin: miter; stroke-linecap: square"/>
   </g>
   <g id="patch_53">
    <path d="M 327.066042 40.95625 
L 574.208333 40.95625 
" style="fill: none; stroke: #000000; stroke-width: 0.8; stroke-linejoin: miter; stroke-linecap: square"/>
   </g>
   <g id="legend_2">
    <g id="patch_54">
     <path d="M 494.138333 68.17 
L 565.808333 68.17 
Q 568.208333 68.17 568.208333 65.77 
L 568.208333 49.35625 
Q 568.208333 46.95625 565.808333 46.95625 
L 494.138333 46.95625 
Q 491.738333 46.95625 491.738333 49.35625 
L 491.738333 65.77 
Q 491.738333 68.17 494.138333 68.17 
z
" style="fill: #ffffff; opacity: 0.8; stroke: #cccccc; stroke-linejoin: miter"/>
    </g>
    <g id="patch_55">
     <path d="M 496.538333 60.874375 
L 520.538333 60.874375 
L 520.538333 52.474375 
L 496.538333 52.474375 
z
" style="fill: #ff7f0e; opacity: 0.4"/>
    </g>
    <g id="text_21">
     <!-- MCF7 -->
     <g transform="translate(530.138333 60.874375) scale(0.12 -0.12)">
      <defs>
       <path id="DejaVuSans-37" d="M 525 4666 
L 3525 4666 
L 3525 4397 
L 1831 0 
L 1172 0 
L 2766 4134 
L 525 4134 
L 525 4666 
z
" transform="scale(0.015625)"/>
      </defs>
      <use xlink:href="#DejaVuSans-4d"/>
      <use xlink:href="#DejaVuSans-43" x="86.279297"/>
      <use xlink:href="#DejaVuSans-46" x="156.103516"/>
      <use xlink:href="#DejaVuSans-37" x="213.623047"/>
     </g>
    </g>
   </g>
  </g>
  <g id="axes_3">
   <g id="patch_56">
    <path d="M 606.057708 260.521875 
L 853.2 260.521875 
L 853.2 40.95625 
L 606.057708 40.95625 
z
" style="fill: #ffffff"/>
   </g>
   <g id="patch_57">
    <path d="M 658.756525 260.521875 
L 664.693522 260.521875 
L 664.693522 189.241774 
L 658.756525 189.241774 
z
" clip-path="url(#p634c06a6c8)" style="fill: #2ca02c; opacity: 0.4"/>
   </g>
   <g id="patch_58">
    <path d="M 664.693522 260.521875 
L 670.630518 260.521875 
L 670.630518 166.561741 
L 664.693522 166.561741 
z
" clip-path="url(#p634c06a6c8)" style="fill: #2ca02c; opacity: 0.4"/>
   </g>
   <g id="patch_59">
    <path d="M 670.630518 260.521875 
L 676.567514 260.521875 
L 676.567514 114.721667 
L 670.630518 114.721667 
z
" clip-path="url(#p634c06a6c8)" style="fill: #2ca02c; opacity: 0.4"/>
   </g>
   <g id="patch_60">
    <path d="M 676.567514 260.521875 
L 682.504511 260.521875 
L 682.504511 143.881709 
L 676.567514 143.881709 
z
" clip-path="url(#p634c06a6c8)" style="fill: #2ca02c; opacity: 0.4"/>
   </g>
   <g id="patch_61">
    <path d="M 682.504511 260.521875 
L 688.441507 260.521875 
L 688.441507 173.04175 
L 682.504511 173.04175 
z
" clip-path="url(#p634c06a6c8)" style="fill: #2ca02c; opacity: 0.4"/>
   </g>
   <g id="patch_62">
    <path d="M 688.441507 260.521875 
L 694.378503 260.521875 
L 694.378503 205.441797 
L 688.441507 205.441797 
z
" clip-path="url(#p634c06a6c8)" style="fill: #2ca02c; opacity: 0.4"/>
   </g>
   <g id="patch_63">
    <path d="M 694.378503 260.521875 
L 700.3155 260.521875 
L 700.3155 202.201792 
L 694.378503 202.201792 
z
" clip-path="url(#p634c06a6c8)" style="fill: #2ca02c; opacity: 0.4"/>
   </g>
   <g id="patch_64">
    <path d="M 700.3155 260.521875 
L 706.252496 260.521875 
L 706.252496 241.081847 
L 700.3155 241.081847 
z
" clip-path="url(#p634c06a6c8)" style="fill: #2ca02c; opacity: 0.4"/>
   </g>
   <g id="patch_65">
    <path d="M 706.252496 260.521875 
L 712.189492 260.521875 
L 712.189492 231.361833 
L 706.252496 231.361833 
z
" clip-path="url(#p634c06a6c8)" style="fill: #2ca02c; opacity: 0.4"/>
   </g>
   <g id="patch_66">
    <path d="M 712.189492 260.521875 
L 718.126488 260.521875 
L 718.126488 234.601838 
L 712.189492 234.601838 
z
" clip-path="url(#p634c06a6c8)" style="fill: #2ca02c; opacity: 0.4"/>
   </g>
   <g id="patch_67">
    <path d="M 718.126488 260.521875 
L 724.063485 260.521875 
L 724.063485 260.521875 
L 718.126488 260.521875 
z
" clip-path="url(#p634c06a6c8)" style="fill: #2ca02c; opacity: 0.4"/>
   </g>
   <g id="patch_68">
    <path d="M 724.063485 260.521875 
L 730.000481 260.521875 
L 730.000481 257.28187 
L 724.063485 257.28187 
z
" clip-path="url(#p634c06a6c8)" style="fill: #2ca02c; opacity: 0.4"/>
   </g>
   <g id="patch_69">
    <path d="M 730.000481 260.521875 
L 735.937477 260.521875 
L 735.937477 260.521875 
L 730.000481 260.521875 
z
" clip-path="url(#p634c06a6c8)" style="fill: #2ca02c; opacity: 0.4"/>
   </g>
   <g id="patch_70">
    <path d="M 735.937477 260.521875 
L 741.874474 260.521875 
L 741.874474 260.521875 
L 735.937477 260.521875 
z
" clip-path="url(#p634c06a6c8)" style="fill: #2ca02c; opacity: 0.4"/>
   </g>
   <g id="patch_71">
    <path d="M 741.874474 260.521875 
L 747.81147 260.521875 
L 747.81147 254.041866 
L 741.874474 254.041866 
z
" clip-path="url(#p634c06a6c8)" style="fill: #2ca02c; opacity: 0.4"/>
   </g>
   <g id="patch_72">
    <path d="M 747.81147 260.521875 
L 753.748466 260.521875 
L 753.748466 257.28187 
L 747.81147 257.28187 
z
" clip-path="url(#p634c06a6c8)" style="fill: #2ca02c; opacity: 0.4"/>
   </g>
   <g id="patch_73">
    <path d="M 753.748466 260.521875 
L 759.685463 260.521875 
L 759.685463 260.521875 
L 753.748466 260.521875 
z
" clip-path="url(#p634c06a6c8)" style="fill: #2ca02c; opacity: 0.4"/>
   </g>
   <g id="patch_74">
    <path d="M 759.685463 260.521875 
L 765.622459 260.521875 
L 765.622459 257.28187 
L 759.685463 257.28187 
z
" clip-path="url(#p634c06a6c8)" style="fill: #2ca02c; opacity: 0.4"/>
   </g>
   <g id="patch_75">
    <path d="M 765.622459 260.521875 
L 771.559455 260.521875 
L 771.559455 257.28187 
L 765.622459 257.28187 
z
" clip-path="url(#p634c06a6c8)" style="fill: #2ca02c; opacity: 0.4"/>
   </g>
   <g id="patch_76">
    <path d="M 771.559455 260.521875 
L 777.496452 260.521875 
L 777.496452 257.28187 
L 771.559455 257.28187 
z
" clip-path="url(#p634c06a6c8)" style="fill: #2ca02c; opacity: 0.4"/>
   </g>
   <g id="matplotlib.axis_5">
    <g id="xtick_11">
     <g id="line2d_27">
      <g>
       <use xlink:href="#m068a0733d2" x="628.376034" y="260.521875" style="stroke: #000000; stroke-width: 0.8"/>
      </g>
     </g>
     <g id="text_22">
      <!-- 0.4 -->
      <g transform="translate(620.424472 275.120313) scale(0.1 -0.1)">
       <use xlink:href="#DejaVuSans-30"/>
       <use xlink:href="#DejaVuSans-2e" x="63.623047"/>
       <use xlink:href="#DejaVuSans-34" x="95.410156"/>
      </g>
     </g>
    </g>
    <g id="xtick_12">
     <g id="line2d_28">
      <g>
       <use xlink:href="#m068a0733d2" x="682.034322" y="260.521875" style="stroke: #000000; stroke-width: 0.8"/>
      </g>
     </g>
     <g id="text_23">
      <!-- 0.6 -->
      <g transform="translate(674.08276 275.120313) scale(0.1 -0.1)">
       <use xlink:href="#DejaVuSans-30"/>
       <use xlink:href="#DejaVuSans-2e" x="63.623047"/>
       <use xlink:href="#DejaVuSans-36" x="95.410156"/>
      </g>
     </g>
    </g>
    <g id="xtick_13">
     <g id="line2d_29">
      <g>
       <use xlink:href="#m068a0733d2" x="735.69261" y="260.521875" style="stroke: #000000; stroke-width: 0.8"/>
      </g>
     </g>
     <g id="text_24">
      <!-- 0.8 -->
      <g transform="translate(727.741048 275.120313) scale(0.1 -0.1)">
       <use xlink:href="#DejaVuSans-30"/>
       <use xlink:href="#DejaVuSans-2e" x="63.623047"/>
       <use xlink:href="#DejaVuSans-38" x="95.410156"/>
      </g>
     </g>
    </g>
    <g id="xtick_14">
     <g id="line2d_30">
      <g>
       <use xlink:href="#m068a0733d2" x="789.350898" y="260.521875" style="stroke: #000000; stroke-width: 0.8"/>
      </g>
     </g>
     <g id="text_25">
      <!-- 1.0 -->
      <g transform="translate(781.399336 275.120313) scale(0.1 -0.1)">
       <use xlink:href="#DejaVuSans-31"/>
       <use xlink:href="#DejaVuSans-2e" x="63.623047"/>
       <use xlink:href="#DejaVuSans-30" x="95.410156"/>
      </g>
     </g>
    </g>
    <g id="xtick_15">
     <g id="line2d_31">
      <g>
       <use xlink:href="#m068a0733d2" x="843.009186" y="260.521875" style="stroke: #000000; stroke-width: 0.8"/>
      </g>
     </g>
     <g id="text_26">
      <!-- 1.2 -->
      <g transform="translate(835.057624 275.120313) scale(0.1 -0.1)">
       <use xlink:href="#DejaVuSans-31"/>
       <use xlink:href="#DejaVuSans-2e" x="63.623047"/>
       <use xlink:href="#DejaVuSans-32" x="95.410156"/>
      </g>
     </g>
    </g>
   </g>
   <g id="matplotlib.axis_6">
    <g id="ytick_15">
     <g id="line2d_32">
      <g>
       <use xlink:href="#mf2a19fcd99" x="606.057708" y="260.521875" style="stroke: #000000; stroke-width: 0.8"/>
      </g>
     </g>
    </g>
    <g id="ytick_16">
     <g id="line2d_33">
      <g>
       <use xlink:href="#mf2a19fcd99" x="606.057708" y="228.401278" style="stroke: #000000; stroke-width: 0.8"/>
      </g>
     </g>
    </g>
    <g id="ytick_17">
     <g id="line2d_34">
      <g>
       <use xlink:href="#mf2a19fcd99" x="606.057708" y="196.280681" style="stroke: #000000; stroke-width: 0.8"/>
      </g>
     </g>
    </g>
    <g id="ytick_18">
     <g id="line2d_35">
      <g>
       <use xlink:href="#mf2a19fcd99" x="606.057708" y="164.160085" style="stroke: #000000; stroke-width: 0.8"/>
      </g>
     </g>
    </g>
    <g id="ytick_19">
     <g id="line2d_36">
      <g>
       <use xlink:href="#mf2a19fcd99" x="606.057708" y="132.039488" style="stroke: #000000; stroke-width: 0.8"/>
      </g>
     </g>
    </g>
    <g id="ytick_20">
     <g id="line2d_37">
      <g>
       <use xlink:href="#mf2a19fcd99" x="606.057708" y="99.918891" style="stroke: #000000; stroke-width: 0.8"/>
      </g>
     </g>
    </g>
    <g id="ytick_21">
     <g id="line2d_38">
      <g>
       <use xlink:href="#mf2a19fcd99" x="606.057708" y="67.798294" style="stroke: #000000; stroke-width: 0.8"/>
      </g>
     </g>
    </g>
    <g id="text_27">
     <!-- Fraction of cells -->
     <g transform="translate(595.646146 205.570937) rotate(-90) scale(0.14 -0.14)">
      <use xlink:href="#DejaVuSans-46"/>
      <use xlink:href="#DejaVuSans-72" x="50.269531"/>
      <use xlink:href="#DejaVuSans-61" x="91.382812"/>
      <use xlink:href="#DejaVuSans-63" x="152.662109"/>
      <use xlink:href="#DejaVuSans-74" x="207.642578"/>
      <use xlink:href="#DejaVuSans-69" x="246.851562"/>
      <use xlink:href="#DejaVuSans-6f" x="274.634766"/>
      <use xlink:href="#DejaVuSans-6e" x="335.816406"/>
      <use xlink:href="#DejaVuSans-20" x="399.195312"/>
      <use xlink:href="#DejaVuSans-6f" x="430.982422"/>
      <use xlink:href="#DejaVuSans-66" x="492.164062"/>
      <use xlink:href="#DejaVuSans-20" x="527.369141"/>
      <use xlink:href="#DejaVuSans-63" x="559.15625"/>
      <use xlink:href="#DejaVuSans-65" x="614.136719"/>
      <use xlink:href="#DejaVuSans-6c" x="675.660156"/>
      <use xlink:href="#DejaVuSans-6c" x="703.443359"/>
      <use xlink:href="#DejaVuSans-73" x="731.226562"/>
     </g>
    </g>
   </g>
   <g id="line2d_39">
    <path d="M 521.059459 260.521875 
L 526.479488 260.521875 
L 531.899517 260.521875 
L 537.319546 260.521875 
L 542.739575 260.521875 
L 548.159604 260.521875 
L 553.579633 260.521875 
L 558.999662 260.521875 
L 564.419691 260.521875 
L 569.83972 260.521875 
L 575.259749 260.521875 
L 580.679779 260.521875 
L 586.099808 260.521875 
L 591.519837 260.521875 
L 596.939866 260.521875 
L 602.359895 260.521875 
L 607.779924 260.521875 
L 613.199953 260.521875 
L 618.619982 260.521875 
L 624.040011 260.521873 
L 629.46004 260.521744 
L 634.880069 260.516414 
L 640.300098 260.404981 
L 645.720128 259.212666 
L 651.140157 252.578055 
L 656.560186 232.848873 
L 661.980215 199.886221 
L 667.400244 166.667974 
L 672.820273 147.210832 
L 678.240302 147.681954 
L 683.660331 163.847303 
L 689.08036 185.520635 
L 694.500389 204.524091 
L 699.920418 218.339997 
L 705.340447 227.990684 
L 710.760477 235.101273 
L 716.180506 243.724864 
L 721.600535 252.679961 
L 727.020564 257.81701 
L 732.440593 259.535912 
L 737.860622 259.27266 
L 743.280651 257.981061 
L 748.70068 257.226057 
L 754.120709 257.507794 
L 759.540738 257.829656 
L 764.960767 257.940899 
L 770.380797 258.253401 
L 775.800826 258.708615 
L 781.220855 259.366304 
L 786.640884 260.073962 
L 792.060913 260.431113 
L 797.480942 260.512728 
L 802.900971 260.521423 
L 808.321 260.521864 
L 813.741029 260.521875 
L 819.161058 260.521875 
L 824.581087 260.521875 
L 830.001116 260.521875 
L 835.421146 260.521875 
L 840.841175 260.521875 
L 846.261204 260.521875 
L 851.681233 260.521875 
L 857.101262 260.521875 
L 862.521291 260.521875 
L 865 260.521875 
" clip-path="url(#p634c06a6c8)" style="fill: none; stroke: #2ca02c; stroke-width: 1.5; stroke-linecap: square"/>
   </g>
   <g id="patch_77">
    <path d="M 606.057708 260.521875 
L 606.057708 40.95625 
" style="fill: none; stroke: #000000; stroke-width: 0.8; stroke-linejoin: miter; stroke-linecap: square"/>
   </g>
   <g id="patch_78">
    <path d="M 853.2 260.521875 
L 853.2 40.95625 
" style="fill: none; stroke: #000000; stroke-width: 0.8; stroke-linejoin: miter; stroke-linecap: square"/>
   </g>
   <g id="patch_79">
    <path d="M 606.057708 260.521875 
L 853.2 260.521875 
" style="fill: none; stroke: #000000; stroke-width: 0.8; stroke-linejoin: miter; stroke-linecap: square"/>
   </g>
   <g id="patch_80">
    <path d="M 606.057708 40.95625 
L 853.2 40.95625 
" style="fill: none; stroke: #000000; stroke-width: 0.8; stroke-linejoin: miter; stroke-linecap: square"/>
   </g>
   <g id="legend_3">
    <g id="patch_81">
     <path d="M 725.315625 68.50375 
L 844.8 68.50375 
Q 847.2 68.50375 847.2 66.10375 
L 847.2 49.35625 
Q 847.2 46.95625 844.8 46.95625 
L 725.315625 46.95625 
Q 722.915625 46.95625 722.915625 49.35625 
L 722.915625 66.10375 
Q 722.915625 68.50375 725.315625 68.50375 
z
" style="fill: #ffffff; opacity: 0.8; stroke: #cccccc; stroke-linejoin: miter"/>
    </g>
    <g id="patch_82">
     <path d="M 727.715625 60.874375 
L 751.715625 60.874375 
L 751.715625 52.474375 
L 727.715625 52.474375 
z
" style="fill: #2ca02c; opacity: 0.4"/>
    </g>
    <g id="text_28">
     <!-- MDA_MB_231 -->
     <g transform="translate(761.315625 60.874375) scale(0.12 -0.12)">
      <defs>
       <path id="DejaVuSans-44" d="M 1259 4147 
L 1259 519 
L 2022 519 
Q 2988 519 3436 956 
Q 3884 1394 3884 2338 
Q 3884 3275 3436 3711 
Q 2988 4147 2022 4147 
L 1259 4147 
z
M 628 4666 
L 1925 4666 
Q 3281 4666 3915 4102 
Q 4550 3538 4550 2338 
Q 4550 1131 3912 565 
Q 3275 0 1925 0 
L 628 0 
L 628 4666 
z
" transform="scale(0.015625)"/>
       <path id="DejaVuSans-5f" d="M 3263 -1063 
L 3263 -1509 
L -63 -1509 
L -63 -1063 
L 3263 -1063 
z
" transform="scale(0.015625)"/>
       <path id="DejaVuSans-42" d="M 1259 2228 
L 1259 519 
L 2272 519 
Q 2781 519 3026 730 
Q 3272 941 3272 1375 
Q 3272 1813 3026 2020 
Q 2781 2228 2272 2228 
L 1259 2228 
z
M 1259 4147 
L 1259 2741 
L 2194 2741 
Q 2656 2741 2882 2914 
Q 3109 3088 3109 3444 
Q 3109 3797 2882 3972 
Q 2656 4147 2194 4147 
L 1259 4147 
z
M 628 4666 
L 2241 4666 
Q 2963 4666 3353 4366 
Q 3744 4066 3744 3513 
Q 3744 3084 3544 2831 
Q 3344 2578 2956 2516 
Q 3422 2416 3680 2098 
Q 3938 1781 3938 1306 
Q 3938 681 3513 340 
Q 3088 0 2303 0 
L 628 0 
L 628 4666 
z
" transform="scale(0.015625)"/>
       <path id="DejaVuSans-33" d="M 2597 2516 
Q 3050 2419 3304 2112 
Q 3559 1806 3559 1356 
Q 3559 666 3084 287 
Q 2609 -91 1734 -91 
Q 1441 -91 1130 -33 
Q 819 25 488 141 
L 488 750 
Q 750 597 1062 519 
Q 1375 441 1716 441 
Q 2309 441 2620 675 
Q 2931 909 2931 1356 
Q 2931 1769 2642 2001 
Q 2353 2234 1838 2234 
L 1294 2234 
L 1294 2753 
L 1863 2753 
Q 2328 2753 2575 2939 
Q 2822 3125 2822 3475 
Q 2822 3834 2567 4026 
Q 2313 4219 1838 4219 
Q 1578 4219 1281 4162 
Q 984 4106 628 3988 
L 628 4550 
Q 988 4650 1302 4700 
Q 1616 4750 1894 4750 
Q 2613 4750 3031 4423 
Q 3450 4097 3450 3541 
Q 3450 3153 3228 2886 
Q 3006 2619 2597 2516 
z
" transform="scale(0.015625)"/>
      </defs>
      <use xlink:href="#DejaVuSans-4d"/>
      <use xlink:href="#DejaVuSans-44" x="86.279297"/>
      <use xlink:href="#DejaVuSans-41" x="161.53125"/>
      <use xlink:href="#DejaVuSans-5f" x="229.939453"/>
      <use xlink:href="#DejaVuSans-4d" x="279.939453"/>
      <use xlink:href="#DejaVuSans-42" x="366.21875"/>
      <use xlink:href="#DejaVuSans-5f" x="434.822266"/>
      <use xlink:href="#DejaVuSans-32" x="484.822266"/>
      <use xlink:href="#DejaVuSans-33" x="548.445312"/>
      <use xlink:href="#DejaVuSans-31" x="612.068359"/>
     </g>
    </g>
   </g>
  </g>
  <g id="text_29">
   <!-- Histograms of linear distances to global mean cell -->
   <g transform="translate(181.054688 20.956875) scale(0.2 -0.2)">
    <defs>
     <path id="DejaVuSans-48" d="M 628 4666 
L 1259 4666 
L 1259 2753 
L 3553 2753 
L 3553 4666 
L 4184 4666 
L 4184 0 
L 3553 0 
L 3553 2222 
L 1259 2222 
L 1259 0 
L 628 0 
L 628 4666 
z
" transform="scale(0.015625)"/>
     <path id="DejaVuSans-67" d="M 2906 1791 
Q 2906 2416 2648 2759 
Q 2391 3103 1925 3103 
Q 1463 3103 1205 2759 
Q 947 2416 947 1791 
Q 947 1169 1205 825 
Q 1463 481 1925 481 
Q 2391 481 2648 825 
Q 2906 1169 2906 1791 
z
M 3481 434 
Q 3481 -459 3084 -895 
Q 2688 -1331 1869 -1331 
Q 1566 -1331 1297 -1286 
Q 1028 -1241 775 -1147 
L 775 -588 
Q 1028 -725 1275 -790 
Q 1522 -856 1778 -856 
Q 2344 -856 2625 -561 
Q 2906 -266 2906 331 
L 2906 616 
Q 2728 306 2450 153 
Q 2172 0 1784 0 
Q 1141 0 747 490 
Q 353 981 353 1791 
Q 353 2603 747 3093 
Q 1141 3584 1784 3584 
Q 2172 3584 2450 3431 
Q 2728 3278 2906 2969 
L 2906 3500 
L 3481 3500 
L 3481 434 
z
" transform="scale(0.015625)"/>
     <path id="DejaVuSans-6d" d="M 3328 2828 
Q 3544 3216 3844 3400 
Q 4144 3584 4550 3584 
Q 5097 3584 5394 3201 
Q 5691 2819 5691 2113 
L 5691 0 
L 5113 0 
L 5113 2094 
Q 5113 2597 4934 2840 
Q 4756 3084 4391 3084 
Q 3944 3084 3684 2787 
Q 3425 2491 3425 1978 
L 3425 0 
L 2847 0 
L 2847 2094 
Q 2847 2600 2669 2842 
Q 2491 3084 2119 3084 
Q 1678 3084 1418 2786 
Q 1159 2488 1159 1978 
L 1159 0 
L 581 0 
L 581 3500 
L 1159 3500 
L 1159 2956 
Q 1356 3278 1631 3431 
Q 1906 3584 2284 3584 
Q 2666 3584 2933 3390 
Q 3200 3197 3328 2828 
z
" transform="scale(0.015625)"/>
     <path id="DejaVuSans-64" d="M 2906 2969 
L 2906 4863 
L 3481 4863 
L 3481 0 
L 2906 0 
L 2906 525 
Q 2725 213 2448 61 
Q 2172 -91 1784 -91 
Q 1150 -91 751 415 
Q 353 922 353 1747 
Q 353 2572 751 3078 
Q 1150 3584 1784 3584 
Q 2172 3584 2448 3432 
Q 2725 3281 2906 2969 
z
M 947 1747 
Q 947 1113 1208 752 
Q 1469 391 1925 391 
Q 2381 391 2643 752 
Q 2906 1113 2906 1747 
Q 2906 2381 2643 2742 
Q 2381 3103 1925 3103 
Q 1469 3103 1208 2742 
Q 947 2381 947 1747 
z
" transform="scale(0.015625)"/>
     <path id="DejaVuSans-62" d="M 3116 1747 
Q 3116 2381 2855 2742 
Q 2594 3103 2138 3103 
Q 1681 3103 1420 2742 
Q 1159 2381 1159 1747 
Q 1159 1113 1420 752 
Q 1681 391 2138 391 
Q 2594 391 2855 752 
Q 3116 1113 3116 1747 
z
M 1159 2969 
Q 1341 3281 1617 3432 
Q 1894 3584 2278 3584 
Q 2916 3584 3314 3078 
Q 3713 2572 3713 1747 
Q 3713 922 3314 415 
Q 2916 -91 2278 -91 
Q 1894 -91 1617 61 
Q 1341 213 1159 525 
L 1159 0 
L 581 0 
L 581 4863 
L 1159 4863 
L 1159 2969 
z
" transform="scale(0.015625)"/>
    </defs>
    <use xlink:href="#DejaVuSans-48"/>
    <use xlink:href="#DejaVuSans-69" x="75.195312"/>
    <use xlink:href="#DejaVuSans-73" x="102.978516"/>
    <use xlink:href="#DejaVuSans-74" x="155.078125"/>
    <use xlink:href="#DejaVuSans-6f" x="194.287109"/>
    <use xlink:href="#DejaVuSans-67" x="255.46875"/>
    <use xlink:href="#DejaVuSans-72" x="318.945312"/>
    <use xlink:href="#DejaVuSans-61" x="360.058594"/>
    <use xlink:href="#DejaVuSans-6d" x="421.337891"/>
    <use xlink:href="#DejaVuSans-73" x="518.75"/>
    <use xlink:href="#DejaVuSans-20" x="570.849609"/>
    <use xlink:href="#DejaVuSans-6f" x="602.636719"/>
    <use xlink:href="#DejaVuSans-66" x="663.818359"/>
    <use xlink:href="#DejaVuSans-20" x="699.023438"/>
    <use xlink:href="#DejaVuSans-6c" x="730.810547"/>
    <use xlink:href="#DejaVuSans-69" x="758.59375"/>
    <use xlink:href="#DejaVuSans-6e" x="786.376953"/>
    <use xlink:href="#DejaVuSans-65" x="849.755859"/>
    <use xlink:href="#DejaVuSans-61" x="911.279297"/>
    <use xlink:href="#DejaVuSans-72" x="972.558594"/>
    <use xlink:href="#DejaVuSans-20" x="1013.671875"/>
    <use xlink:href="#DejaVuSans-64" x="1045.458984"/>
    <use xlink:href="#DejaVuSans-69" x="1108.935547"/>
    <use xlink:href="#DejaVuSans-73" x="1136.71875"/>
    <use xlink:href="#DejaVuSans-74" x="1188.818359"/>
    <use xlink:href="#DejaVuSans-61" x="1228.027344"/>
    <use xlink:href="#DejaVuSans-6e" x="1289.306641"/>
    <use xlink:href="#DejaVuSans-63" x="1352.685547"/>
    <use xlink:href="#DejaVuSans-65" x="1407.666016"/>
    <use xlink:href="#DejaVuSans-73" x="1469.189453"/>
    <use xlink:href="#DejaVuSans-20" x="1521.289062"/>
    <use xlink:href="#DejaVuSans-74" x="1553.076172"/>
    <use xlink:href="#DejaVuSans-6f" x="1592.285156"/>
    <use xlink:href="#DejaVuSans-20" x="1653.466797"/>
    <use xlink:href="#DejaVuSans-67" x="1685.253906"/>
    <use xlink:href="#DejaVuSans-6c" x="1748.730469"/>
    <use xlink:href="#DejaVuSans-6f" x="1776.513672"/>
    <use xlink:href="#DejaVuSans-62" x="1837.695312"/>
    <use xlink:href="#DejaVuSans-61" x="1901.171875"/>
    <use xlink:href="#DejaVuSans-6c" x="1962.451172"/>
    <use xlink:href="#DejaVuSans-20" x="1990.234375"/>
    <use xlink:href="#DejaVuSans-6d" x="2022.021484"/>
    <use xlink:href="#DejaVuSans-65" x="2119.433594"/>
    <use xlink:href="#DejaVuSans-61" x="2180.957031"/>
    <use xlink:href="#DejaVuSans-6e" x="2242.236328"/>
    <use xlink:href="#DejaVuSans-20" x="2305.615234"/>
    <use xlink:href="#DejaVuSans-63" x="2337.402344"/>
    <use xlink:href="#DejaVuSans-65" x="2392.382812"/>
    <use xlink:href="#DejaVuSans-6c" x="2453.90625"/>
    <use xlink:href="#DejaVuSans-6c" x="2481.689453"/>
   </g>
  </g>
 </g>
 <defs>
  <clipPath id="pd167c4afb4">
   <rect x="48.074375" y="40.95625" width="247.142292" height="219.565625"/>
  </clipPath>
  <clipPath id="pc3b662bf16">
   <rect x="327.066042" y="40.95625" width="247.142292" height="219.565625"/>
  </clipPath>
  <clipPath id="p634c06a6c8">
   <rect x="606.057708" y="40.95625" width="247.142292" height="219.565625"/>
  </clipPath>
 </defs>
</svg>
