<?xml version="1.0" encoding="utf-8" standalone="no"?>
<!DOCTYPE svg PUBLIC "-//W3C//DTD SVG 1.1//EN"
  "http://www.w3.org/Graphics/SVG/1.1/DTD/svg11.dtd">
<svg xmlns:xlink="http://www.w3.org/1999/xlink" width="864pt" height="288pt" viewBox="0 0 864 288" xmlns="http://www.w3.org/2000/svg" version="1.1">
 <metadata>
  <rdf:RDF xmlns:dc="http://purl.org/dc/elements/1.1/" xmlns:cc="http://creativecommons.org/ns#" xmlns:rdf="http://www.w3.org/1999/02/22-rdf-syntax-ns#">
   <cc:Work>
    <dc:type rdf:resource="http://purl.org/dc/dcmitype/StillImage"/>
    <dc:date>2023-12-17T21:46:47.961438</dc:date>
    <dc:format>image/svg+xml</dc:format>
    <dc:creator>
     <cc:Agent>
      <dc:title>Matplotlib v3.6.2, https://matplotlib.org/</dc:title>
     </cc:Agent>
    </dc:creator>
   </cc:Work>
  </rdf:RDF>
 </metadata>
 <defs>
  <style type="text/css">*{stroke-linejoin: round; stroke-linecap: butt}</style>
 </defs>
 <g id="figure_1">
  <g id="patch_1">
   <path d="M 0 288 
L 864 288 
L 864 0 
L 0 0 
z
" style="fill: #ffffff"/>
  </g>
  <g id="axes_1">
   <g id="patch_2">
    <path d="M 48.074375 260.521875 
L 284.4 260.521875 
L 284.4 44.755469 
L 48.074375 44.755469 
z
" style="fill: #ffffff"/>
   </g>
   <g id="patch_3">
    <path d="M 95.976563 260.521875 
L 107.15744 260.521875 
L 107.15744 159.747072 
L 95.976563 159.747072 
z
" clip-path="url(#p6284019b5e)" style="fill: #1f77b4; opacity: 0.4"/>
   </g>
   <g id="patch_4">
    <path d="M 107.15744 260.521875 
L 118.338317 260.521875 
L 118.338317 134.940967 
L 107.15744 134.940967 
z
" clip-path="url(#p6284019b5e)" style="fill: #1f77b4; opacity: 0.4"/>
   </g>
   <g id="patch_5">
    <path d="M 118.338317 260.521875 
L 129.519194 260.521875 
L 129.519194 196.95623 
L 118.338317 196.95623 
z
" clip-path="url(#p6284019b5e)" style="fill: #1f77b4; opacity: 0.4"/>
   </g>
   <g id="patch_6">
    <path d="M 129.519194 260.521875 
L 140.700071 260.521875 
L 140.700071 220.211954 
L 129.519194 220.211954 
z
" clip-path="url(#p6284019b5e)" style="fill: #1f77b4; opacity: 0.4"/>
   </g>
   <g id="patch_7">
    <path d="M 140.700071 260.521875 
L 151.880948 260.521875 
L 151.880948 249.669204 
L 140.700071 249.669204 
z
" clip-path="url(#p6284019b5e)" style="fill: #1f77b4; opacity: 0.4"/>
   </g>
   <g id="patch_8">
    <path d="M 151.880948 260.521875 
L 163.061825 260.521875 
L 163.061825 252.769967 
L 151.880948 252.769967 
z
" clip-path="url(#p6284019b5e)" style="fill: #1f77b4; opacity: 0.4"/>
   </g>
   <g id="patch_9">
    <path d="M 163.061825 260.521875 
L 174.242702 260.521875 
L 174.242702 258.971493 
L 163.061825 258.971493 
z
" clip-path="url(#p6284019b5e)" style="fill: #1f77b4; opacity: 0.4"/>
   </g>
   <g id="patch_10">
    <path d="M 174.242702 260.521875 
L 185.423579 260.521875 
L 185.423579 260.521875 
L 174.242702 260.521875 
z
" clip-path="url(#p6284019b5e)" style="fill: #1f77b4; opacity: 0.4"/>
   </g>
   <g id="patch_11">
    <path d="M 185.423579 260.521875 
L 196.604456 260.521875 
L 196.604456 260.521875 
L 185.423579 260.521875 
z
" clip-path="url(#p6284019b5e)" style="fill: #1f77b4; opacity: 0.4"/>
   </g>
   <g id="patch_12">
    <path d="M 196.604456 260.521875 
L 207.785333 260.521875 
L 207.785333 260.521875 
L 196.604456 260.521875 
z
" clip-path="url(#p6284019b5e)" style="fill: #1f77b4; opacity: 0.4"/>
   </g>
   <g id="patch_13">
    <path d="M 207.785333 260.521875 
L 218.96621 260.521875 
L 218.96621 260.521875 
L 207.785333 260.521875 
z
" clip-path="url(#p6284019b5e)" style="fill: #1f77b4; opacity: 0.4"/>
   </g>
   <g id="patch_14">
    <path d="M 218.96621 260.521875 
L 230.147087 260.521875 
L 230.147087 260.521875 
L 218.96621 260.521875 
z
" clip-path="url(#p6284019b5e)" style="fill: #1f77b4; opacity: 0.4"/>
   </g>
   <g id="patch_15">
    <path d="M 230.147087 260.521875 
L 241.327964 260.521875 
L 241.327964 260.521875 
L 230.147087 260.521875 
z
" clip-path="url(#p6284019b5e)" style="fill: #1f77b4; opacity: 0.4"/>
   </g>
   <g id="patch_16">
    <path d="M 241.327964 260.521875 
L 252.508841 260.521875 
L 252.508841 260.521875 
L 241.327964 260.521875 
z
" clip-path="url(#p6284019b5e)" style="fill: #1f77b4; opacity: 0.4"/>
   </g>
   <g id="patch_17">
    <path d="M 252.508841 260.521875 
L 263.689718 260.521875 
L 263.689718 260.521875 
L 252.508841 260.521875 
z
" clip-path="url(#p6284019b5e)" style="fill: #1f77b4; opacity: 0.4"/>
   </g>
   <g id="patch_18">
    <path d="M 263.689718 260.521875 
L 274.870595 260.521875 
L 274.870595 260.521875 
L 263.689718 260.521875 
z
" clip-path="url(#p6284019b5e)" style="fill: #1f77b4; opacity: 0.4"/>
   </g>
   <g id="patch_19">
    <path d="M 274.870595 260.521875 
L 286.051472 260.521875 
L 286.051472 260.521875 
L 274.870595 260.521875 
z
" clip-path="url(#p6284019b5e)" style="fill: #1f77b4; opacity: 0.4"/>
   </g>
   <g id="patch_20">
    <path d="M 286.051472 260.521875 
L 297.232349 260.521875 
L 297.232349 260.521875 
L 286.051472 260.521875 
z
" clip-path="url(#p6284019b5e)" style="fill: #1f77b4; opacity: 0.4"/>
   </g>
   <g id="patch_21">
    <path d="M 297.232349 260.521875 
L 308.413226 260.521875 
L 308.413226 260.521875 
L 297.232349 260.521875 
z
" clip-path="url(#p6284019b5e)" style="fill: #1f77b4; opacity: 0.4"/>
   </g>
   <g id="patch_22">
    <path d="M 308.413226 260.521875 
L 319.594103 260.521875 
L 319.594103 258.971493 
L 308.413226 258.971493 
z
" clip-path="url(#p6284019b5e)" style="fill: #1f77b4; opacity: 0.4"/>
   </g>
   <g id="matplotlib.axis_1">
    <g id="xtick_1">
     <g id="line2d_1">
      <defs>
       <path id="m5c59ad76c3" d="M 0 0 
L 0 3.5 
" style="stroke: #000000; stroke-width: 0.8"/>
      </defs>
      <g>
       <use xlink:href="#m5c59ad76c3" x="69.564923" y="260.521875" style="stroke: #000000; stroke-width: 0.8"/>
      </g>
     </g>
     <g id="text_1">
      <!-- 0.4 -->
      <g transform="translate(61.61336 275.120313) scale(0.1 -0.1)">
       <defs>
        <path id="DejaVuSans-30" d="M 2034 4250 
Q 1547 4250 1301 3770 
Q 1056 3291 1056 2328 
Q 1056 1369 1301 889 
Q 1547 409 2034 409 
Q 2525 409 2770 889 
Q 3016 1369 3016 2328 
Q 3016 3291 2770 3770 
Q 2525 4250 2034 4250 
z
M 2034 4750 
Q 2819 4750 3233 4129 
Q 3647 3509 3647 2328 
Q 3647 1150 3233 529 
Q 2819 -91 2034 -91 
Q 1250 -91 836 529 
Q 422 1150 422 2328 
Q 422 3509 836 4129 
Q 1250 4750 2034 4750 
z
" transform="scale(0.015625)"/>
        <path id="DejaVuSans-2e" d="M 684 794 
L 1344 794 
L 1344 0 
L 684 0 
L 684 794 
z
" transform="scale(0.015625)"/>
        <path id="DejaVuSans-34" d="M 2419 4116 
L 825 1625 
L 2419 1625 
L 2419 4116 
z
M 2253 4666 
L 3047 4666 
L 3047 1625 
L 3713 1625 
L 3713 1100 
L 3047 1100 
L 3047 0 
L 2419 0 
L 2419 1100 
L 313 1100 
L 313 1709 
L 2253 4666 
z
" transform="scale(0.015625)"/>
       </defs>
       <use xlink:href="#DejaVuSans-30"/>
       <use xlink:href="#DejaVuSans-2e" x="63.623047"/>
       <use xlink:href="#DejaVuSans-34" x="95.410156"/>
      </g>
     </g>
    </g>
    <g id="xtick_2">
     <g id="line2d_2">
      <g>
       <use xlink:href="#m5c59ad76c3" x="120.628887" y="260.521875" style="stroke: #000000; stroke-width: 0.8"/>
      </g>
     </g>
     <g id="text_2">
      <!-- 0.6 -->
      <g transform="translate(112.677325 275.120313) scale(0.1 -0.1)">
       <defs>
        <path id="DejaVuSans-36" d="M 2113 2584 
Q 1688 2584 1439 2293 
Q 1191 2003 1191 1497 
Q 1191 994 1439 701 
Q 1688 409 2113 409 
Q 2538 409 2786 701 
Q 3034 994 3034 1497 
Q 3034 2003 2786 2293 
Q 2538 2584 2113 2584 
z
M 3366 4563 
L 3366 3988 
Q 3128 4100 2886 4159 
Q 2644 4219 2406 4219 
Q 1781 4219 1451 3797 
Q 1122 3375 1075 2522 
Q 1259 2794 1537 2939 
Q 1816 3084 2150 3084 
Q 2853 3084 3261 2657 
Q 3669 2231 3669 1497 
Q 3669 778 3244 343 
Q 2819 -91 2113 -91 
Q 1303 -91 875 529 
Q 447 1150 447 2328 
Q 447 3434 972 4092 
Q 1497 4750 2381 4750 
Q 2619 4750 2861 4703 
Q 3103 4656 3366 4563 
z
" transform="scale(0.015625)"/>
       </defs>
       <use xlink:href="#DejaVuSans-30"/>
       <use xlink:href="#DejaVuSans-2e" x="63.623047"/>
       <use xlink:href="#DejaVuSans-36" x="95.410156"/>
      </g>
     </g>
    </g>
    <g id="xtick_3">
     <g id="line2d_3">
      <g>
       <use xlink:href="#m5c59ad76c3" x="171.692852" y="260.521875" style="stroke: #000000; stroke-width: 0.8"/>
      </g>
     </g>
     <g id="text_3">
      <!-- 0.8 -->
      <g transform="translate(163.741289 275.120313) scale(0.1 -0.1)">
       <defs>
        <path id="DejaVuSans-38" d="M 2034 2216 
Q 1584 2216 1326 1975 
Q 1069 1734 1069 1313 
Q 1069 891 1326 650 
Q 1584 409 2034 409 
Q 2484 409 2743 651 
Q 3003 894 3003 1313 
Q 3003 1734 2745 1975 
Q 2488 2216 2034 2216 
z
M 1403 2484 
Q 997 2584 770 2862 
Q 544 3141 544 3541 
Q 544 4100 942 4425 
Q 1341 4750 2034 4750 
Q 2731 4750 3128 4425 
Q 3525 4100 3525 3541 
Q 3525 3141 3298 2862 
Q 3072 2584 2669 2484 
Q 3125 2378 3379 2068 
Q 3634 1759 3634 1313 
Q 3634 634 3220 271 
Q 2806 -91 2034 -91 
Q 1263 -91 848 271 
Q 434 634 434 1313 
Q 434 1759 690 2068 
Q 947 2378 1403 2484 
z
M 1172 3481 
Q 1172 3119 1398 2916 
Q 1625 2713 2034 2713 
Q 2441 2713 2670 2916 
Q 2900 3119 2900 3481 
Q 2900 3844 2670 4047 
Q 2441 4250 2034 4250 
Q 1625 4250 1398 4047 
Q 1172 3844 1172 3481 
z
" transform="scale(0.015625)"/>
       </defs>
       <use xlink:href="#DejaVuSans-30"/>
       <use xlink:href="#DejaVuSans-2e" x="63.623047"/>
       <use xlink:href="#DejaVuSans-38" x="95.410156"/>
      </g>
     </g>
    </g>
    <g id="xtick_4">
     <g id="line2d_4">
      <g>
       <use xlink:href="#m5c59ad76c3" x="222.756816" y="260.521875" style="stroke: #000000; stroke-width: 0.8"/>
      </g>
     </g>
     <g id="text_4">
      <!-- 1.0 -->
      <g transform="translate(214.805254 275.120313) scale(0.1 -0.1)">
       <defs>
        <path id="DejaVuSans-31" d="M 794 531 
L 1825 531 
L 1825 4091 
L 703 3866 
L 703 4441 
L 1819 4666 
L 2450 4666 
L 2450 531 
L 3481 531 
L 3481 0 
L 794 0 
L 794 531 
z
" transform="scale(0.015625)"/>
       </defs>
       <use xlink:href="#DejaVuSans-31"/>
       <use xlink:href="#DejaVuSans-2e" x="63.623047"/>
       <use xlink:href="#DejaVuSans-30" x="95.410156"/>
      </g>
     </g>
    </g>
    <g id="xtick_5">
     <g id="line2d_5">
      <g>
       <use xlink:href="#m5c59ad76c3" x="273.820781" y="260.521875" style="stroke: #000000; stroke-width: 0.8"/>
      </g>
     </g>
     <g id="text_5">
      <!-- 1.2 -->
      <g transform="translate(265.869218 275.120313) scale(0.1 -0.1)">
       <defs>
        <path id="DejaVuSans-32" d="M 1228 531 
L 3431 531 
L 3431 0 
L 469 0 
L 469 531 
Q 828 903 1448 1529 
Q 2069 2156 2228 2338 
Q 2531 2678 2651 2914 
Q 2772 3150 2772 3378 
Q 2772 3750 2511 3984 
Q 2250 4219 1831 4219 
Q 1534 4219 1204 4116 
Q 875 4013 500 3803 
L 500 4441 
Q 881 4594 1212 4672 
Q 1544 4750 1819 4750 
Q 2544 4750 2975 4387 
Q 3406 4025 3406 3419 
Q 3406 3131 3298 2873 
Q 3191 2616 2906 2266 
Q 2828 2175 2409 1742 
Q 1991 1309 1228 531 
z
" transform="scale(0.015625)"/>
       </defs>
       <use xlink:href="#DejaVuSans-31"/>
       <use xlink:href="#DejaVuSans-2e" x="63.623047"/>
       <use xlink:href="#DejaVuSans-32" x="95.410156"/>
      </g>
     </g>
    </g>
   </g>
   <g id="matplotlib.axis_2">
    <g id="ytick_1">
     <g id="line2d_6">
      <defs>
       <path id="med507f3763" d="M 0 0 
L -3.5 0 
" style="stroke: #000000; stroke-width: 0.8"/>
      </defs>
      <g>
       <use xlink:href="#med507f3763" x="48.074375" y="260.521875" style="stroke: #000000; stroke-width: 0.8"/>
      </g>
     </g>
     <g id="text_6">
      <!-- 0 -->
      <g transform="translate(34.711875 264.321094) scale(0.1 -0.1)">
       <use xlink:href="#DejaVuSans-30"/>
      </g>
     </g>
    </g>
    <g id="ytick_2">
     <g id="line2d_7">
      <g>
       <use xlink:href="#med507f3763" x="48.074375" y="229.698103" style="stroke: #000000; stroke-width: 0.8"/>
      </g>
     </g>
     <g id="text_7">
      <!-- 2 -->
      <g transform="translate(34.711875 233.497321) scale(0.1 -0.1)">
       <use xlink:href="#DejaVuSans-32"/>
      </g>
     </g>
    </g>
    <g id="ytick_3">
     <g id="line2d_8">
      <g>
       <use xlink:href="#med507f3763" x="48.074375" y="198.87433" style="stroke: #000000; stroke-width: 0.8"/>
      </g>
     </g>
     <g id="text_8">
      <!-- 4 -->
      <g transform="translate(34.711875 202.673549) scale(0.1 -0.1)">
       <use xlink:href="#DejaVuSans-34"/>
      </g>
     </g>
    </g>
    <g id="ytick_4">
     <g id="line2d_9">
      <g>
       <use xlink:href="#med507f3763" x="48.074375" y="168.050558" style="stroke: #000000; stroke-width: 0.8"/>
      </g>
     </g>
     <g id="text_9">
      <!-- 6 -->
      <g transform="translate(34.711875 171.849777) scale(0.1 -0.1)">
       <use xlink:href="#DejaVuSans-36"/>
      </g>
     </g>
    </g>
    <g id="ytick_5">
     <g id="line2d_10">
      <g>
       <use xlink:href="#med507f3763" x="48.074375" y="137.226786" style="stroke: #000000; stroke-width: 0.8"/>
      </g>
     </g>
     <g id="text_10">
      <!-- 8 -->
      <g transform="translate(34.711875 141.026004) scale(0.1 -0.1)">
       <use xlink:href="#DejaVuSans-38"/>
      </g>
     </g>
    </g>
    <g id="ytick_6">
     <g id="line2d_11">
      <g>
       <use xlink:href="#med507f3763" x="48.074375" y="106.403013" style="stroke: #000000; stroke-width: 0.8"/>
      </g>
     </g>
     <g id="text_11">
      <!-- 10 -->
      <g transform="translate(28.349375 110.202232) scale(0.1 -0.1)">
       <use xlink:href="#DejaVuSans-31"/>
       <use xlink:href="#DejaVuSans-30" x="63.623047"/>
      </g>
     </g>
    </g>
    <g id="ytick_7">
     <g id="line2d_12">
      <g>
       <use xlink:href="#med507f3763" x="48.074375" y="75.579241" style="stroke: #000000; stroke-width: 0.8"/>
      </g>
     </g>
     <g id="text_12">
      <!-- 12 -->
      <g transform="translate(28.349375 79.37846) scale(0.1 -0.1)">
       <use xlink:href="#DejaVuSans-31"/>
       <use xlink:href="#DejaVuSans-32" x="63.623047"/>
      </g>
     </g>
    </g>
    <g id="ytick_8">
     <g id="line2d_13">
      <g>
       <use xlink:href="#med507f3763" x="48.074375" y="44.755469" style="stroke: #000000; stroke-width: 0.8"/>
      </g>
     </g>
     <g id="text_13">
      <!-- 14 -->
      <g transform="translate(28.349375 48.554687) scale(0.1 -0.1)">
       <use xlink:href="#DejaVuSans-31"/>
       <use xlink:href="#DejaVuSans-34" x="63.623047"/>
      </g>
     </g>
    </g>
    <g id="text_14">
     <!-- Fraction of cells -->
     <g transform="translate(21.437812 207.470547) rotate(-90) scale(0.14 -0.14)">
      <defs>
       <path id="DejaVuSans-46" d="M 628 4666 
L 3309 4666 
L 3309 4134 
L 1259 4134 
L 1259 2759 
L 3109 2759 
L 3109 2228 
L 1259 2228 
L 1259 0 
L 628 0 
L 628 4666 
z
" transform="scale(0.015625)"/>
       <path id="DejaVuSans-72" d="M 2631 2963 
Q 2534 3019 2420 3045 
Q 2306 3072 2169 3072 
Q 1681 3072 1420 2755 
Q 1159 2438 1159 1844 
L 1159 0 
L 581 0 
L 581 3500 
L 1159 3500 
L 1159 2956 
Q 1341 3275 1631 3429 
Q 1922 3584 2338 3584 
Q 2397 3584 2469 3576 
Q 2541 3569 2628 3553 
L 2631 2963 
z
" transform="scale(0.015625)"/>
       <path id="DejaVuSans-61" d="M 2194 1759 
Q 1497 1759 1228 1600 
Q 959 1441 959 1056 
Q 959 750 1161 570 
Q 1363 391 1709 391 
Q 2188 391 2477 730 
Q 2766 1069 2766 1631 
L 2766 1759 
L 2194 1759 
z
M 3341 1997 
L 3341 0 
L 2766 0 
L 2766 531 
Q 2569 213 2275 61 
Q 1981 -91 1556 -91 
Q 1019 -91 701 211 
Q 384 513 384 1019 
Q 384 1609 779 1909 
Q 1175 2209 1959 2209 
L 2766 2209 
L 2766 2266 
Q 2766 2663 2505 2880 
Q 2244 3097 1772 3097 
Q 1472 3097 1187 3025 
Q 903 2953 641 2809 
L 641 3341 
Q 956 3463 1253 3523 
Q 1550 3584 1831 3584 
Q 2591 3584 2966 3190 
Q 3341 2797 3341 1997 
z
" transform="scale(0.015625)"/>
       <path id="DejaVuSans-63" d="M 3122 3366 
L 3122 2828 
Q 2878 2963 2633 3030 
Q 2388 3097 2138 3097 
Q 1578 3097 1268 2742 
Q 959 2388 959 1747 
Q 959 1106 1268 751 
Q 1578 397 2138 397 
Q 2388 397 2633 464 
Q 2878 531 3122 666 
L 3122 134 
Q 2881 22 2623 -34 
Q 2366 -91 2075 -91 
Q 1284 -91 818 406 
Q 353 903 353 1747 
Q 353 2603 823 3093 
Q 1294 3584 2113 3584 
Q 2378 3584 2631 3529 
Q 2884 3475 3122 3366 
z
" transform="scale(0.015625)"/>
       <path id="DejaVuSans-74" d="M 1172 4494 
L 1172 3500 
L 2356 3500 
L 2356 3053 
L 1172 3053 
L 1172 1153 
Q 1172 725 1289 603 
Q 1406 481 1766 481 
L 2356 481 
L 2356 0 
L 1766 0 
Q 1100 0 847 248 
Q 594 497 594 1153 
L 594 3053 
L 172 3053 
L 172 3500 
L 594 3500 
L 594 4494 
L 1172 4494 
z
" transform="scale(0.015625)"/>
       <path id="DejaVuSans-69" d="M 603 3500 
L 1178 3500 
L 1178 0 
L 603 0 
L 603 3500 
z
M 603 4863 
L 1178 4863 
L 1178 4134 
L 603 4134 
L 603 4863 
z
" transform="scale(0.015625)"/>
       <path id="DejaVuSans-6f" d="M 1959 3097 
Q 1497 3097 1228 2736 
Q 959 2375 959 1747 
Q 959 1119 1226 758 
Q 1494 397 1959 397 
Q 2419 397 2687 759 
Q 2956 1122 2956 1747 
Q 2956 2369 2687 2733 
Q 2419 3097 1959 3097 
z
M 1959 3584 
Q 2709 3584 3137 3096 
Q 3566 2609 3566 1747 
Q 3566 888 3137 398 
Q 2709 -91 1959 -91 
Q 1206 -91 779 398 
Q 353 888 353 1747 
Q 353 2609 779 3096 
Q 1206 3584 1959 3584 
z
" transform="scale(0.015625)"/>
       <path id="DejaVuSans-6e" d="M 3513 2113 
L 3513 0 
L 2938 0 
L 2938 2094 
Q 2938 2591 2744 2837 
Q 2550 3084 2163 3084 
Q 1697 3084 1428 2787 
Q 1159 2491 1159 1978 
L 1159 0 
L 581 0 
L 581 3500 
L 1159 3500 
L 1159 2956 
Q 1366 3272 1645 3428 
Q 1925 3584 2291 3584 
Q 2894 3584 3203 3211 
Q 3513 2838 3513 2113 
z
" transform="scale(0.015625)"/>
       <path id="DejaVuSans-20" transform="scale(0.015625)"/>
       <path id="DejaVuSans-66" d="M 2375 4863 
L 2375 4384 
L 1825 4384 
Q 1516 4384 1395 4259 
Q 1275 4134 1275 3809 
L 1275 3500 
L 2222 3500 
L 2222 3053 
L 1275 3053 
L 1275 0 
L 697 0 
L 697 3053 
L 147 3053 
L 147 3500 
L 697 3500 
L 697 3744 
Q 697 4328 969 4595 
Q 1241 4863 1831 4863 
L 2375 4863 
z
" transform="scale(0.015625)"/>
       <path id="DejaVuSans-65" d="M 3597 1894 
L 3597 1613 
L 953 1613 
Q 991 1019 1311 708 
Q 1631 397 2203 397 
Q 2534 397 2845 478 
Q 3156 559 3463 722 
L 3463 178 
Q 3153 47 2828 -22 
Q 2503 -91 2169 -91 
Q 1331 -91 842 396 
Q 353 884 353 1716 
Q 353 2575 817 3079 
Q 1281 3584 2069 3584 
Q 2775 3584 3186 3129 
Q 3597 2675 3597 1894 
z
M 3022 2063 
Q 3016 2534 2758 2815 
Q 2500 3097 2075 3097 
Q 1594 3097 1305 2825 
Q 1016 2553 972 2059 
L 3022 2063 
z
" transform="scale(0.015625)"/>
       <path id="DejaVuSans-6c" d="M 603 4863 
L 1178 4863 
L 1178 0 
L 603 0 
L 603 4863 
z
" transform="scale(0.015625)"/>
       <path id="DejaVuSans-73" d="M 2834 3397 
L 2834 2853 
Q 2591 2978 2328 3040 
Q 2066 3103 1784 3103 
Q 1356 3103 1142 2972 
Q 928 2841 928 2578 
Q 928 2378 1081 2264 
Q 1234 2150 1697 2047 
L 1894 2003 
Q 2506 1872 2764 1633 
Q 3022 1394 3022 966 
Q 3022 478 2636 193 
Q 2250 -91 1575 -91 
Q 1294 -91 989 -36 
Q 684 19 347 128 
L 347 722 
Q 666 556 975 473 
Q 1284 391 1588 391 
Q 1994 391 2212 530 
Q 2431 669 2431 922 
Q 2431 1156 2273 1281 
Q 2116 1406 1581 1522 
L 1381 1569 
Q 847 1681 609 1914 
Q 372 2147 372 2553 
Q 372 3047 722 3315 
Q 1072 3584 1716 3584 
Q 2034 3584 2315 3537 
Q 2597 3491 2834 3397 
z
" transform="scale(0.015625)"/>
      </defs>
      <use xlink:href="#DejaVuSans-46"/>
      <use xlink:href="#DejaVuSans-72" x="50.269531"/>
      <use xlink:href="#DejaVuSans-61" x="91.382812"/>
      <use xlink:href="#DejaVuSans-63" x="152.662109"/>
      <use xlink:href="#DejaVuSans-74" x="207.642578"/>
      <use xlink:href="#DejaVuSans-69" x="246.851562"/>
      <use xlink:href="#DejaVuSans-6f" x="274.634766"/>
      <use xlink:href="#DejaVuSans-6e" x="335.816406"/>
      <use xlink:href="#DejaVuSans-20" x="399.195312"/>
      <use xlink:href="#DejaVuSans-6f" x="430.982422"/>
      <use xlink:href="#DejaVuSans-66" x="492.164062"/>
      <use xlink:href="#DejaVuSans-20" x="527.369141"/>
      <use xlink:href="#DejaVuSans-63" x="559.15625"/>
      <use xlink:href="#DejaVuSans-65" x="614.136719"/>
      <use xlink:href="#DejaVuSans-6c" x="675.660156"/>
      <use xlink:href="#DejaVuSans-6c" x="703.443359"/>
      <use xlink:href="#DejaVuSans-73" x="731.226562"/>
     </g>
    </g>
   </g>
   <g id="line2d_14">
    <path d="M -1 260.521875 
L 3.542827 260.521875 
L 8.700803 260.521875 
L 13.858779 260.521875 
L 19.016756 260.521875 
L 24.174732 260.521875 
L 29.332708 260.521875 
L 34.490684 260.521875 
L 39.648661 260.521875 
L 44.806637 260.521875 
L 49.964613 260.521875 
L 55.122589 260.521875 
L 60.280565 260.521874 
L 65.438542 260.521813 
L 70.596518 260.519624 
L 75.754494 260.475767 
L 80.91247 259.977455 
L 86.070447 256.69606 
L 91.228423 243.924566 
L 96.386399 214.371932 
L 101.544375 174.733013 
L 106.702351 147.063598 
L 111.860328 144.058229 
L 117.018304 159.868514 
L 122.17628 181.944948 
L 127.334256 200.271413 
L 132.492233 214.345651 
L 137.650209 227.270698 
L 142.808185 239.026631 
L 147.966161 247.661944 
L 153.124137 251.976919 
L 158.282114 254.117079 
L 163.44009 256.265871 
L 168.598066 258.098998 
L 173.756042 259.31474 
L 178.914019 260.080913 
L 184.071995 260.42396 
L 189.229971 260.509757 
L 194.387947 260.521064 
L 199.545923 260.521846 
L 204.7039 260.521874 
L 209.861876 260.521875 
L 215.019852 260.521875 
L 220.177828 260.521875 
L 225.335804 260.521875 
L 230.493781 260.521875 
L 235.651757 260.521875 
L 240.809733 260.521875 
L 245.967709 260.521875 
L 251.125686 260.521875 
L 256.283662 260.521875 
L 261.441638 260.521875 
L 266.599614 260.521875 
L 271.75759 260.521875 
L 276.915567 260.521875 
L 282.073543 260.521875 
L 287.231519 260.521871 
L 292.389495 260.52171 
L 297.547472 260.518527 
L 302.705448 260.48567 
L 307.863424 260.313522 
L 313.0214 259.883802 
L 318.179376 259.481985 
L 323.337353 259.619992 
L 328.495329 260.105621 
L 333.653305 260.419637 
L 338.811281 260.508512 
L 343.969258 260.520945 
L 349.127234 260.521841 
L 354.28521 260.521874 
L 359.443186 260.521875 
L 364.601162 260.521875 
L 369.759139 260.521875 
L 374.917115 260.521875 
L 380.075091 260.521875 
L 385.233067 260.521875 
L 390.391044 260.521875 
L 395.54902 260.521875 
L 400.706996 260.521875 
L 405.864972 260.521875 
L 411.022948 260.521875 
L 416.180925 260.521875 
L 421.338901 260.521875 
L 426.496877 260.521875 
L 431.654853 260.521875 
L 436.81283 260.521875 
L 441.970806 260.521875 
L 447.128782 260.521875 
L 452.286758 260.521875 
L 457.444734 260.521875 
L 462.602711 260.521875 
L 467.760687 260.521875 
L 472.918663 260.521875 
L 478.076639 260.521875 
" clip-path="url(#p6284019b5e)" style="fill: none; stroke: #1f77b4; stroke-width: 1.5; stroke-linecap: square"/>
   </g>
   <g id="patch_23">
    <path d="M 48.074375 260.521875 
L 48.074375 44.755469 
" style="fill: none; stroke: #000000; stroke-width: 0.8; stroke-linejoin: miter; stroke-linecap: square"/>
   </g>
   <g id="patch_24">
    <path d="M 284.4 260.521875 
L 284.4 44.755469 
" style="fill: none; stroke: #000000; stroke-width: 0.8; stroke-linejoin: miter; stroke-linecap: square"/>
   </g>
   <g id="patch_25">
    <path d="M 48.074375 260.521875 
L 284.4 260.521875 
" style="fill: none; stroke: #000000; stroke-width: 0.8; stroke-linejoin: miter; stroke-linecap: square"/>
   </g>
   <g id="patch_26">
    <path d="M 48.074375 44.755469 
L 284.4 44.755469 
" style="fill: none; stroke: #000000; stroke-width: 0.8; stroke-linejoin: miter; stroke-linecap: square"/>
   </g>
   <g id="legend_1">
    <g id="patch_27">
     <path d="M 188.48625 71.969219 
L 276 71.969219 
Q 278.4 71.969219 278.4 69.569219 
L 278.4 53.155469 
Q 278.4 50.755469 276 50.755469 
L 188.48625 50.755469 
Q 186.08625 50.755469 186.08625 53.155469 
L 186.08625 69.569219 
Q 186.08625 71.969219 188.48625 71.969219 
z
" style="fill: #ffffff; opacity: 0.8; stroke: #cccccc; stroke-linejoin: miter"/>
    </g>
    <g id="patch_28">
     <path d="M 190.88625 64.673594 
L 214.88625 64.673594 
L 214.88625 56.273594 
L 190.88625 56.273594 
z
" style="fill: #1f77b4; opacity: 0.4"/>
    </g>
    <g id="text_15">
     <!-- MCF10A -->
     <g transform="translate(224.48625 64.673594) scale(0.12 -0.12)">
      <defs>
       <path id="DejaVuSans-4d" d="M 628 4666 
L 1569 4666 
L 2759 1491 
L 3956 4666 
L 4897 4666 
L 4897 0 
L 4281 0 
L 4281 4097 
L 3078 897 
L 2444 897 
L 1241 4097 
L 1241 0 
L 628 0 
L 628 4666 
z
" transform="scale(0.015625)"/>
       <path id="DejaVuSans-43" d="M 4122 4306 
L 4122 3641 
Q 3803 3938 3442 4084 
Q 3081 4231 2675 4231 
Q 1875 4231 1450 3742 
Q 1025 3253 1025 2328 
Q 1025 1406 1450 917 
Q 1875 428 2675 428 
Q 3081 428 3442 575 
Q 3803 722 4122 1019 
L 4122 359 
Q 3791 134 3420 21 
Q 3050 -91 2638 -91 
Q 1578 -91 968 557 
Q 359 1206 359 2328 
Q 359 3453 968 4101 
Q 1578 4750 2638 4750 
Q 3056 4750 3426 4639 
Q 3797 4528 4122 4306 
z
" transform="scale(0.015625)"/>
       <path id="DejaVuSans-41" d="M 2188 4044 
L 1331 1722 
L 3047 1722 
L 2188 4044 
z
M 1831 4666 
L 2547 4666 
L 4325 0 
L 3669 0 
L 3244 1197 
L 1141 1197 
L 716 0 
L 50 0 
L 1831 4666 
z
" transform="scale(0.015625)"/>
      </defs>
      <use xlink:href="#DejaVuSans-4d"/>
      <use xlink:href="#DejaVuSans-43" x="86.279297"/>
      <use xlink:href="#DejaVuSans-46" x="156.103516"/>
      <use xlink:href="#DejaVuSans-31" x="213.623047"/>
      <use xlink:href="#DejaVuSans-30" x="277.246094"/>
      <use xlink:href="#DejaVuSans-41" x="340.869141"/>
     </g>
    </g>
   </g>
  </g>
  <g id="axes_2">
   <g id="patch_29">
    <path d="M 332.474375 260.521875 
L 568.8 260.521875 
L 568.8 44.755469 
L 332.474375 44.755469 
z
" style="fill: #ffffff"/>
   </g>
   <g id="patch_30">
    <path d="M 381.910924 260.521875 
L 388.809734 260.521875 
L 388.809734 222.326618 
L 381.910924 222.326618 
z
" clip-path="url(#p9f4cb200ef)" style="fill: #ff7f0e; opacity: 0.4"/>
   </g>
   <g id="patch_31">
    <path d="M 388.809734 260.521875 
L 395.708543 260.521875 
L 395.708543 51.721134 
L 388.809734 51.721134 
z
" clip-path="url(#p9f4cb200ef)" style="fill: #ff7f0e; opacity: 0.4"/>
   </g>
   <g id="patch_32">
    <path d="M 395.708543 260.521875 
L 402.607352 260.521875 
L 402.607352 79.73099 
L 395.708543 79.73099 
z
" clip-path="url(#p9f4cb200ef)" style="fill: #ff7f0e; opacity: 0.4"/>
   </g>
   <g id="patch_33">
    <path d="M 402.607352 260.521875 
L 409.506161 260.521875 
L 409.506161 207.048515 
L 402.607352 207.048515 
z
" clip-path="url(#p9f4cb200ef)" style="fill: #ff7f0e; opacity: 0.4"/>
   </g>
   <g id="patch_34">
    <path d="M 409.506161 260.521875 
L 416.40497 260.521875 
L 416.40497 227.419319 
L 409.506161 227.419319 
z
" clip-path="url(#p9f4cb200ef)" style="fill: #ff7f0e; opacity: 0.4"/>
   </g>
   <g id="patch_35">
    <path d="M 416.40497 260.521875 
L 423.303779 260.521875 
L 423.303779 245.243772 
L 416.40497 245.243772 
z
" clip-path="url(#p9f4cb200ef)" style="fill: #ff7f0e; opacity: 0.4"/>
   </g>
   <g id="patch_36">
    <path d="M 423.303779 260.521875 
L 430.202588 260.521875 
L 430.202588 245.243772 
L 423.303779 245.243772 
z
" clip-path="url(#p9f4cb200ef)" style="fill: #ff7f0e; opacity: 0.4"/>
   </g>
   <g id="patch_37">
    <path d="M 430.202588 260.521875 
L 437.101397 260.521875 
L 437.101397 252.882824 
L 430.202588 252.882824 
z
" clip-path="url(#p9f4cb200ef)" style="fill: #ff7f0e; opacity: 0.4"/>
   </g>
   <g id="patch_38">
    <path d="M 437.101397 260.521875 
L 444.000206 260.521875 
L 444.000206 260.521875 
L 437.101397 260.521875 
z
" clip-path="url(#p9f4cb200ef)" style="fill: #ff7f0e; opacity: 0.4"/>
   </g>
   <g id="patch_39">
    <path d="M 444.000206 260.521875 
L 450.899015 260.521875 
L 450.899015 257.975525 
L 444.000206 257.975525 
z
" clip-path="url(#p9f4cb200ef)" style="fill: #ff7f0e; opacity: 0.4"/>
   </g>
   <g id="patch_40">
    <path d="M 450.899015 260.521875 
L 457.797824 260.521875 
L 457.797824 257.975525 
L 450.899015 257.975525 
z
" clip-path="url(#p9f4cb200ef)" style="fill: #ff7f0e; opacity: 0.4"/>
   </g>
   <g id="patch_41">
    <path d="M 457.797824 260.521875 
L 464.696633 260.521875 
L 464.696633 257.975525 
L 457.797824 257.975525 
z
" clip-path="url(#p9f4cb200ef)" style="fill: #ff7f0e; opacity: 0.4"/>
   </g>
   <g id="patch_42">
    <path d="M 464.696633 260.521875 
L 471.595442 260.521875 
L 471.595442 257.975525 
L 464.696633 257.975525 
z
" clip-path="url(#p9f4cb200ef)" style="fill: #ff7f0e; opacity: 0.4"/>
   </g>
   <g id="patch_43">
    <path d="M 471.595442 260.521875 
L 478.494252 260.521875 
L 478.494252 257.975525 
L 471.595442 257.975525 
z
" clip-path="url(#p9f4cb200ef)" style="fill: #ff7f0e; opacity: 0.4"/>
   </g>
   <g id="patch_44">
    <path d="M 478.494252 260.521875 
L 485.393061 260.521875 
L 485.393061 257.975525 
L 478.494252 257.975525 
z
" clip-path="url(#p9f4cb200ef)" style="fill: #ff7f0e; opacity: 0.4"/>
   </g>
   <g id="patch_45">
    <path d="M 485.393061 260.521875 
L 492.29187 260.521875 
L 492.29187 260.521875 
L 485.393061 260.521875 
z
" clip-path="url(#p9f4cb200ef)" style="fill: #ff7f0e; opacity: 0.4"/>
   </g>
   <g id="patch_46">
    <path d="M 492.29187 260.521875 
L 499.190679 260.521875 
L 499.190679 260.521875 
L 492.29187 260.521875 
z
" clip-path="url(#p9f4cb200ef)" style="fill: #ff7f0e; opacity: 0.4"/>
   </g>
   <g id="patch_47">
    <path d="M 499.190679 260.521875 
L 506.089488 260.521875 
L 506.089488 260.521875 
L 499.190679 260.521875 
z
" clip-path="url(#p9f4cb200ef)" style="fill: #ff7f0e; opacity: 0.4"/>
   </g>
   <g id="patch_48">
    <path d="M 506.089488 260.521875 
L 512.988297 260.521875 
L 512.988297 260.521875 
L 506.089488 260.521875 
z
" clip-path="url(#p9f4cb200ef)" style="fill: #ff7f0e; opacity: 0.4"/>
   </g>
   <g id="patch_49">
    <path d="M 512.988297 260.521875 
L 519.887106 260.521875 
L 519.887106 257.975525 
L 512.988297 257.975525 
z
" clip-path="url(#p9f4cb200ef)" style="fill: #ff7f0e; opacity: 0.4"/>
   </g>
   <g id="matplotlib.axis_3">
    <g id="xtick_6">
     <g id="line2d_15">
      <g>
       <use xlink:href="#m5c59ad76c3" x="353.964923" y="260.521875" style="stroke: #000000; stroke-width: 0.8"/>
      </g>
     </g>
     <g id="text_16">
      <!-- 0.4 -->
      <g transform="translate(346.01336 275.120313) scale(0.1 -0.1)">
       <use xlink:href="#DejaVuSans-30"/>
       <use xlink:href="#DejaVuSans-2e" x="63.623047"/>
       <use xlink:href="#DejaVuSans-34" x="95.410156"/>
      </g>
     </g>
    </g>
    <g id="xtick_7">
     <g id="line2d_16">
      <g>
       <use xlink:href="#m5c59ad76c3" x="405.028887" y="260.521875" style="stroke: #000000; stroke-width: 0.8"/>
      </g>
     </g>
     <g id="text_17">
      <!-- 0.6 -->
      <g transform="translate(397.077325 275.120313) scale(0.1 -0.1)">
       <use xlink:href="#DejaVuSans-30"/>
       <use xlink:href="#DejaVuSans-2e" x="63.623047"/>
       <use xlink:href="#DejaVuSans-36" x="95.410156"/>
      </g>
     </g>
    </g>
    <g id="xtick_8">
     <g id="line2d_17">
      <g>
       <use xlink:href="#m5c59ad76c3" x="456.092852" y="260.521875" style="stroke: #000000; stroke-width: 0.8"/>
      </g>
     </g>
     <g id="text_18">
      <!-- 0.8 -->
      <g transform="translate(448.141289 275.120313) scale(0.1 -0.1)">
       <use xlink:href="#DejaVuSans-30"/>
       <use xlink:href="#DejaVuSans-2e" x="63.623047"/>
       <use xlink:href="#DejaVuSans-38" x="95.410156"/>
      </g>
     </g>
    </g>
    <g id="xtick_9">
     <g id="line2d_18">
      <g>
       <use xlink:href="#m5c59ad76c3" x="507.156816" y="260.521875" style="stroke: #000000; stroke-width: 0.8"/>
      </g>
     </g>
     <g id="text_19">
      <!-- 1.0 -->
      <g transform="translate(499.205254 275.120313) scale(0.1 -0.1)">
       <use xlink:href="#DejaVuSans-31"/>
       <use xlink:href="#DejaVuSans-2e" x="63.623047"/>
       <use xlink:href="#DejaVuSans-30" x="95.410156"/>
      </g>
     </g>
    </g>
    <g id="xtick_10">
     <g id="line2d_19">
      <g>
       <use xlink:href="#m5c59ad76c3" x="558.220781" y="260.521875" style="stroke: #000000; stroke-width: 0.8"/>
      </g>
     </g>
     <g id="text_20">
      <!-- 1.2 -->
      <g transform="translate(550.269218 275.120313) scale(0.1 -0.1)">
       <use xlink:href="#DejaVuSans-31"/>
       <use xlink:href="#DejaVuSans-2e" x="63.623047"/>
       <use xlink:href="#DejaVuSans-32" x="95.410156"/>
      </g>
     </g>
    </g>
   </g>
   <g id="matplotlib.axis_4">
    <g id="ytick_9">
     <g id="line2d_20">
      <g>
       <use xlink:href="#med507f3763" x="332.474375" y="260.521875" style="stroke: #000000; stroke-width: 0.8"/>
      </g>
     </g>
     <g id="text_21">
      <!-- 0 -->
      <g transform="translate(319.111875 264.321094) scale(0.1 -0.1)">
       <use xlink:href="#DejaVuSans-30"/>
      </g>
     </g>
    </g>
    <g id="ytick_10">
     <g id="line2d_21">
      <g>
       <use xlink:href="#med507f3763" x="332.474375" y="229.698103" style="stroke: #000000; stroke-width: 0.8"/>
      </g>
     </g>
     <g id="text_22">
      <!-- 2 -->
      <g transform="translate(319.111875 233.497321) scale(0.1 -0.1)">
       <use xlink:href="#DejaVuSans-32"/>
      </g>
     </g>
    </g>
    <g id="ytick_11">
     <g id="line2d_22">
      <g>
       <use xlink:href="#med507f3763" x="332.474375" y="198.87433" style="stroke: #000000; stroke-width: 0.8"/>
      </g>
     </g>
     <g id="text_23">
      <!-- 4 -->
      <g transform="translate(319.111875 202.673549) scale(0.1 -0.1)">
       <use xlink:href="#DejaVuSans-34"/>
      </g>
     </g>
    </g>
    <g id="ytick_12">
     <g id="line2d_23">
      <g>
       <use xlink:href="#med507f3763" x="332.474375" y="168.050558" style="stroke: #000000; stroke-width: 0.8"/>
      </g>
     </g>
     <g id="text_24">
      <!-- 6 -->
      <g transform="translate(319.111875 171.849777) scale(0.1 -0.1)">
       <use xlink:href="#DejaVuSans-36"/>
      </g>
     </g>
    </g>
    <g id="ytick_13">
     <g id="line2d_24">
      <g>
       <use xlink:href="#med507f3763" x="332.474375" y="137.226786" style="stroke: #000000; stroke-width: 0.8"/>
      </g>
     </g>
     <g id="text_25">
      <!-- 8 -->
      <g transform="translate(319.111875 141.026004) scale(0.1 -0.1)">
       <use xlink:href="#DejaVuSans-38"/>
      </g>
     </g>
    </g>
    <g id="ytick_14">
     <g id="line2d_25">
      <g>
       <use xlink:href="#med507f3763" x="332.474375" y="106.403013" style="stroke: #000000; stroke-width: 0.8"/>
      </g>
     </g>
     <g id="text_26">
      <!-- 10 -->
      <g transform="translate(312.749375 110.202232) scale(0.1 -0.1)">
       <use xlink:href="#DejaVuSans-31"/>
       <use xlink:href="#DejaVuSans-30" x="63.623047"/>
      </g>
     </g>
    </g>
    <g id="ytick_15">
     <g id="line2d_26">
      <g>
       <use xlink:href="#med507f3763" x="332.474375" y="75.579241" style="stroke: #000000; stroke-width: 0.8"/>
      </g>
     </g>
     <g id="text_27">
      <!-- 12 -->
      <g transform="translate(312.749375 79.37846) scale(0.1 -0.1)">
       <use xlink:href="#DejaVuSans-31"/>
       <use xlink:href="#DejaVuSans-32" x="63.623047"/>
      </g>
     </g>
    </g>
    <g id="ytick_16">
     <g id="line2d_27">
      <g>
       <use xlink:href="#med507f3763" x="332.474375" y="44.755469" style="stroke: #000000; stroke-width: 0.8"/>
      </g>
     </g>
     <g id="text_28">
      <!-- 14 -->
      <g transform="translate(312.749375 48.554687) scale(0.1 -0.1)">
       <use xlink:href="#DejaVuSans-31"/>
       <use xlink:href="#DejaVuSans-34" x="63.623047"/>
      </g>
     </g>
    </g>
    <g id="text_29">
     <!-- Fraction of cells -->
     <g transform="translate(305.837813 207.470547) rotate(-90) scale(0.14 -0.14)">
      <use xlink:href="#DejaVuSans-46"/>
      <use xlink:href="#DejaVuSans-72" x="50.269531"/>
      <use xlink:href="#DejaVuSans-61" x="91.382812"/>
      <use xlink:href="#DejaVuSans-63" x="152.662109"/>
      <use xlink:href="#DejaVuSans-74" x="207.642578"/>
      <use xlink:href="#DejaVuSans-69" x="246.851562"/>
      <use xlink:href="#DejaVuSans-6f" x="274.634766"/>
      <use xlink:href="#DejaVuSans-6e" x="335.816406"/>
      <use xlink:href="#DejaVuSans-20" x="399.195312"/>
      <use xlink:href="#DejaVuSans-6f" x="430.982422"/>
      <use xlink:href="#DejaVuSans-66" x="492.164062"/>
      <use xlink:href="#DejaVuSans-20" x="527.369141"/>
      <use xlink:href="#DejaVuSans-63" x="559.15625"/>
      <use xlink:href="#DejaVuSans-65" x="614.136719"/>
      <use xlink:href="#DejaVuSans-6c" x="675.660156"/>
      <use xlink:href="#DejaVuSans-6c" x="703.443359"/>
      <use xlink:href="#DejaVuSans-73" x="731.226562"/>
     </g>
    </g>
   </g>
   <g id="line2d_28">
    <path d="M 251.836993 260.521875 
L 256.99497 260.521875 
L 262.152946 260.521875 
L 267.310922 260.521875 
L 272.468898 260.521875 
L 277.626875 260.521875 
L 282.784851 260.521875 
L 287.942827 260.521875 
L 293.100803 260.521875 
L 298.258779 260.521875 
L 303.416756 260.521875 
L 308.574732 260.521875 
L 313.732708 260.521875 
L 318.890684 260.521875 
L 324.048661 260.521875 
L 329.206637 260.521875 
L 334.364613 260.521875 
L 339.522589 260.521875 
L 344.680565 260.521875 
L 349.838542 260.521875 
L 354.996518 260.521859 
L 360.154494 260.520786 
L 365.31247 260.486948 
L 370.470447 259.962582 
L 375.628423 255.704085 
L 380.786399 236.431935 
L 385.944375 186.495532 
L 391.102351 117.718276 
L 396.260328 88.213942 
L 401.418304 127.880035 
L 406.57628 185.805437 
L 411.734256 218.408521 
L 416.892233 233.326803 
L 422.050209 242.228256 
L 427.208185 247.748493 
L 432.366161 252.496484 
L 437.524137 256.740017 
L 442.682114 258.757091 
L 447.84009 258.357477 
L 452.998066 257.674001 
L 458.156042 257.74897 
L 463.314019 257.996956 
L 468.471995 257.991203 
L 473.629971 258.323899 
L 478.787947 258.902254 
L 483.945923 259.067217 
L 489.1039 259.499584 
L 494.261876 260.175253 
L 499.419852 260.469612 
L 504.577828 260.489895 
L 509.735804 260.282684 
L 514.893781 259.680038 
L 520.051757 259.264355 
L 525.209733 259.72488 
L 530.367709 260.307562 
L 535.525686 260.497424 
L 540.683662 260.520691 
L 545.841638 260.521851 
L 550.999614 260.521875 
L 556.15759 260.521875 
L 561.315567 260.521875 
L 566.473543 260.521875 
L 571.631519 260.521875 
L 576.789495 260.521875 
L 581.947472 260.521875 
L 587.105448 260.521875 
L 592.263424 260.521875 
L 597.4214 260.521875 
L 602.579376 260.521875 
L 607.737353 260.521875 
L 612.895329 260.521875 
L 618.053305 260.521875 
L 623.211281 260.521875 
L 628.369258 260.521875 
L 633.527234 260.521875 
L 638.68521 260.521875 
L 643.843186 260.521875 
L 649.001162 260.521875 
L 654.159139 260.521875 
L 659.317115 260.521875 
L 664.475091 260.521875 
L 669.633067 260.521875 
L 674.791044 260.521875 
L 679.94902 260.521875 
L 685.106996 260.521875 
L 690.264972 260.521875 
L 695.422948 260.521875 
L 700.580925 260.521875 
L 705.738901 260.521875 
L 710.896877 260.521875 
L 716.054853 260.521875 
L 721.21283 260.521875 
L 726.370806 260.521875 
L 731.528782 260.521875 
L 736.686758 260.521875 
L 741.844734 260.521875 
L 747.002711 260.521875 
L 752.160687 260.521875 
L 757.318663 260.521875 
L 762.476639 260.521875 
" clip-path="url(#p9f4cb200ef)" style="fill: none; stroke: #ff7f0e; stroke-width: 1.5; stroke-linecap: square"/>
   </g>
   <g id="patch_50">
    <path d="M 332.474375 260.521875 
L 332.474375 44.755469 
" style="fill: none; stroke: #000000; stroke-width: 0.8; stroke-linejoin: miter; stroke-linecap: square"/>
   </g>
   <g id="patch_51">
    <path d="M 568.8 260.521875 
L 568.8 44.755469 
" style="fill: none; stroke: #000000; stroke-width: 0.8; stroke-linejoin: miter; stroke-linecap: square"/>
   </g>
   <g id="patch_52">
    <path d="M 332.474375 260.521875 
L 568.8 260.521875 
" style="fill: none; stroke: #000000; stroke-width: 0.8; stroke-linejoin: miter; stroke-linecap: square"/>
   </g>
   <g id="patch_53">
    <path d="M 332.474375 44.755469 
L 568.8 44.755469 
" style="fill: none; stroke: #000000; stroke-width: 0.8; stroke-linejoin: miter; stroke-linecap: square"/>
   </g>
   <g id="legend_2">
    <g id="patch_54">
     <path d="M 488.73 71.969219 
L 560.4 71.969219 
Q 562.8 71.969219 562.8 69.569219 
L 562.8 53.155469 
Q 562.8 50.755469 560.4 50.755469 
L 488.73 50.755469 
Q 486.33 50.755469 486.33 53.155469 
L 486.33 69.569219 
Q 486.33 71.969219 488.73 71.969219 
z
" style="fill: #ffffff; opacity: 0.8; stroke: #cccccc; stroke-linejoin: miter"/>
    </g>
    <g id="patch_55">
     <path d="M 491.13 64.673594 
L 515.13 64.673594 
L 515.13 56.273594 
L 491.13 56.273594 
z
" style="fill: #ff7f0e; opacity: 0.4"/>
    </g>
    <g id="text_30">
     <!-- MCF7 -->
     <g transform="translate(524.73 64.673594) scale(0.12 -0.12)">
      <defs>
       <path id="DejaVuSans-37" d="M 525 4666 
L 3525 4666 
L 3525 4397 
L 1831 0 
L 1172 0 
L 2766 4134 
L 525 4134 
L 525 4666 
z
" transform="scale(0.015625)"/>
      </defs>
      <use xlink:href="#DejaVuSans-4d"/>
      <use xlink:href="#DejaVuSans-43" x="86.279297"/>
      <use xlink:href="#DejaVuSans-46" x="156.103516"/>
      <use xlink:href="#DejaVuSans-37" x="213.623047"/>
     </g>
    </g>
   </g>
  </g>
  <g id="axes_3">
   <g id="patch_56">
    <path d="M 616.874375 260.521875 
L 853.2 260.521875 
L 853.2 44.755469 
L 616.874375 44.755469 
z
" style="fill: #ffffff"/>
   </g>
   <g id="patch_57">
    <path d="M 667.742647 260.521875 
L 673.406668 260.521875 
L 673.406668 195.09895 
L 667.742647 195.09895 
z
" clip-path="url(#p5b94041762)" style="fill: #2ca02c; opacity: 0.4"/>
   </g>
   <g id="patch_58">
    <path d="M 673.406668 260.521875 
L 679.070688 260.521875 
L 679.070688 163.945176 
L 673.406668 163.945176 
z
" clip-path="url(#p5b94041762)" style="fill: #2ca02c; opacity: 0.4"/>
   </g>
   <g id="patch_59">
    <path d="M 679.070688 260.521875 
L 684.734708 260.521875 
L 684.734708 129.676024 
L 679.070688 129.676024 
z
" clip-path="url(#p5b94041762)" style="fill: #2ca02c; opacity: 0.4"/>
   </g>
   <g id="patch_60">
    <path d="M 684.734708 260.521875 
L 690.398728 260.521875 
L 690.398728 142.137534 
L 684.734708 142.137534 
z
" clip-path="url(#p5b94041762)" style="fill: #2ca02c; opacity: 0.4"/>
   </g>
   <g id="patch_61">
    <path d="M 690.398728 260.521875 
L 696.062749 260.521875 
L 696.062749 176.406685 
L 690.398728 176.406685 
z
" clip-path="url(#p5b94041762)" style="fill: #2ca02c; opacity: 0.4"/>
   </g>
   <g id="patch_62">
    <path d="M 696.062749 260.521875 
L 701.726769 260.521875 
L 701.726769 207.560459 
L 696.062749 207.560459 
z
" clip-path="url(#p5b94041762)" style="fill: #2ca02c; opacity: 0.4"/>
   </g>
   <g id="patch_63">
    <path d="M 701.726769 260.521875 
L 707.390789 260.521875 
L 707.390789 204.445082 
L 701.726769 204.445082 
z
" clip-path="url(#p5b94041762)" style="fill: #2ca02c; opacity: 0.4"/>
   </g>
   <g id="patch_64">
    <path d="M 707.390789 260.521875 
L 713.05481 260.521875 
L 713.05481 241.829611 
L 707.390789 241.829611 
z
" clip-path="url(#p5b94041762)" style="fill: #2ca02c; opacity: 0.4"/>
   </g>
   <g id="patch_65">
    <path d="M 713.05481 260.521875 
L 718.71883 260.521875 
L 718.71883 235.598856 
L 713.05481 235.598856 
z
" clip-path="url(#p5b94041762)" style="fill: #2ca02c; opacity: 0.4"/>
   </g>
   <g id="patch_66">
    <path d="M 718.71883 260.521875 
L 724.38285 260.521875 
L 724.38285 235.598856 
L 718.71883 235.598856 
z
" clip-path="url(#p5b94041762)" style="fill: #2ca02c; opacity: 0.4"/>
   </g>
   <g id="patch_67">
    <path d="M 724.38285 260.521875 
L 730.04687 260.521875 
L 730.04687 260.521875 
L 724.38285 260.521875 
z
" clip-path="url(#p5b94041762)" style="fill: #2ca02c; opacity: 0.4"/>
   </g>
   <g id="patch_68">
    <path d="M 730.04687 260.521875 
L 735.710891 260.521875 
L 735.710891 257.406498 
L 730.04687 257.406498 
z
" clip-path="url(#p5b94041762)" style="fill: #2ca02c; opacity: 0.4"/>
   </g>
   <g id="patch_69">
    <path d="M 735.710891 260.521875 
L 741.374911 260.521875 
L 741.374911 260.521875 
L 735.710891 260.521875 
z
" clip-path="url(#p5b94041762)" style="fill: #2ca02c; opacity: 0.4"/>
   </g>
   <g id="patch_70">
    <path d="M 741.374911 260.521875 
L 747.038931 260.521875 
L 747.038931 260.521875 
L 741.374911 260.521875 
z
" clip-path="url(#p5b94041762)" style="fill: #2ca02c; opacity: 0.4"/>
   </g>
   <g id="patch_71">
    <path d="M 747.038931 260.521875 
L 752.702951 260.521875 
L 752.702951 254.29112 
L 747.038931 254.29112 
z
" clip-path="url(#p5b94041762)" style="fill: #2ca02c; opacity: 0.4"/>
   </g>
   <g id="patch_72">
    <path d="M 752.702951 260.521875 
L 758.366972 260.521875 
L 758.366972 257.406498 
L 752.702951 257.406498 
z
" clip-path="url(#p5b94041762)" style="fill: #2ca02c; opacity: 0.4"/>
   </g>
   <g id="patch_73">
    <path d="M 758.366972 260.521875 
L 764.030992 260.521875 
L 764.030992 260.521875 
L 758.366972 260.521875 
z
" clip-path="url(#p5b94041762)" style="fill: #2ca02c; opacity: 0.4"/>
   </g>
   <g id="patch_74">
    <path d="M 764.030992 260.521875 
L 769.695012 260.521875 
L 769.695012 257.406498 
L 764.030992 257.406498 
z
" clip-path="url(#p5b94041762)" style="fill: #2ca02c; opacity: 0.4"/>
   </g>
   <g id="patch_75">
    <path d="M 769.695012 260.521875 
L 775.359032 260.521875 
L 775.359032 257.406498 
L 769.695012 257.406498 
z
" clip-path="url(#p5b94041762)" style="fill: #2ca02c; opacity: 0.4"/>
   </g>
   <g id="patch_76">
    <path d="M 775.359032 260.521875 
L 781.023053 260.521875 
L 781.023053 257.406498 
L 775.359032 257.406498 
z
" clip-path="url(#p5b94041762)" style="fill: #2ca02c; opacity: 0.4"/>
   </g>
   <g id="matplotlib.axis_5">
    <g id="xtick_11">
     <g id="line2d_29">
      <g>
       <use xlink:href="#m5c59ad76c3" x="638.364923" y="260.521875" style="stroke: #000000; stroke-width: 0.8"/>
      </g>
     </g>
     <g id="text_31">
      <!-- 0.4 -->
      <g transform="translate(630.41336 275.120313) scale(0.1 -0.1)">
       <use xlink:href="#DejaVuSans-30"/>
       <use xlink:href="#DejaVuSans-2e" x="63.623047"/>
       <use xlink:href="#DejaVuSans-34" x="95.410156"/>
      </g>
     </g>
    </g>
    <g id="xtick_12">
     <g id="line2d_30">
      <g>
       <use xlink:href="#m5c59ad76c3" x="689.428887" y="260.521875" style="stroke: #000000; stroke-width: 0.8"/>
      </g>
     </g>
     <g id="text_32">
      <!-- 0.6 -->
      <g transform="translate(681.477325 275.120313) scale(0.1 -0.1)">
       <use xlink:href="#DejaVuSans-30"/>
       <use xlink:href="#DejaVuSans-2e" x="63.623047"/>
       <use xlink:href="#DejaVuSans-36" x="95.410156"/>
      </g>
     </g>
    </g>
    <g id="xtick_13">
     <g id="line2d_31">
      <g>
       <use xlink:href="#m5c59ad76c3" x="740.492852" y="260.521875" style="stroke: #000000; stroke-width: 0.8"/>
      </g>
     </g>
     <g id="text_33">
      <!-- 0.8 -->
      <g transform="translate(732.541289 275.120313) scale(0.1 -0.1)">
       <use xlink:href="#DejaVuSans-30"/>
       <use xlink:href="#DejaVuSans-2e" x="63.623047"/>
       <use xlink:href="#DejaVuSans-38" x="95.410156"/>
      </g>
     </g>
    </g>
    <g id="xtick_14">
     <g id="line2d_32">
      <g>
       <use xlink:href="#m5c59ad76c3" x="791.556816" y="260.521875" style="stroke: #000000; stroke-width: 0.8"/>
      </g>
     </g>
     <g id="text_34">
      <!-- 1.0 -->
      <g transform="translate(783.605254 275.120313) scale(0.1 -0.1)">
       <use xlink:href="#DejaVuSans-31"/>
       <use xlink:href="#DejaVuSans-2e" x="63.623047"/>
       <use xlink:href="#DejaVuSans-30" x="95.410156"/>
      </g>
     </g>
    </g>
    <g id="xtick_15">
     <g id="line2d_33">
      <g>
       <use xlink:href="#m5c59ad76c3" x="842.620781" y="260.521875" style="stroke: #000000; stroke-width: 0.8"/>
      </g>
     </g>
     <g id="text_35">
      <!-- 1.2 -->
      <g transform="translate(834.669218 275.120313) scale(0.1 -0.1)">
       <use xlink:href="#DejaVuSans-31"/>
       <use xlink:href="#DejaVuSans-2e" x="63.623047"/>
       <use xlink:href="#DejaVuSans-32" x="95.410156"/>
      </g>
     </g>
    </g>
   </g>
   <g id="matplotlib.axis_6">
    <g id="ytick_17">
     <g id="line2d_34">
      <g>
       <use xlink:href="#med507f3763" x="616.874375" y="260.521875" style="stroke: #000000; stroke-width: 0.8"/>
      </g>
     </g>
     <g id="text_36">
      <!-- 0 -->
      <g transform="translate(603.511875 264.321094) scale(0.1 -0.1)">
       <use xlink:href="#DejaVuSans-30"/>
      </g>
     </g>
    </g>
    <g id="ytick_18">
     <g id="line2d_35">
      <g>
       <use xlink:href="#med507f3763" x="616.874375" y="229.698103" style="stroke: #000000; stroke-width: 0.8"/>
      </g>
     </g>
     <g id="text_37">
      <!-- 2 -->
      <g transform="translate(603.511875 233.497321) scale(0.1 -0.1)">
       <use xlink:href="#DejaVuSans-32"/>
      </g>
     </g>
    </g>
    <g id="ytick_19">
     <g id="line2d_36">
      <g>
       <use xlink:href="#med507f3763" x="616.874375" y="198.87433" style="stroke: #000000; stroke-width: 0.8"/>
      </g>
     </g>
     <g id="text_38">
      <!-- 4 -->
      <g transform="translate(603.511875 202.673549) scale(0.1 -0.1)">
       <use xlink:href="#DejaVuSans-34"/>
      </g>
     </g>
    </g>
    <g id="ytick_20">
     <g id="line2d_37">
      <g>
       <use xlink:href="#med507f3763" x="616.874375" y="168.050558" style="stroke: #000000; stroke-width: 0.8"/>
      </g>
     </g>
     <g id="text_39">
      <!-- 6 -->
      <g transform="translate(603.511875 171.849777) scale(0.1 -0.1)">
       <use xlink:href="#DejaVuSans-36"/>
      </g>
     </g>
    </g>
    <g id="ytick_21">
     <g id="line2d_38">
      <g>
       <use xlink:href="#med507f3763" x="616.874375" y="137.226786" style="stroke: #000000; stroke-width: 0.8"/>
      </g>
     </g>
     <g id="text_40">
      <!-- 8 -->
      <g transform="translate(603.511875 141.026004) scale(0.1 -0.1)">
       <use xlink:href="#DejaVuSans-38"/>
      </g>
     </g>
    </g>
    <g id="ytick_22">
     <g id="line2d_39">
      <g>
       <use xlink:href="#med507f3763" x="616.874375" y="106.403013" style="stroke: #000000; stroke-width: 0.8"/>
      </g>
     </g>
     <g id="text_41">
      <!-- 10 -->
      <g transform="translate(597.149375 110.202232) scale(0.1 -0.1)">
       <use xlink:href="#DejaVuSans-31"/>
       <use xlink:href="#DejaVuSans-30" x="63.623047"/>
      </g>
     </g>
    </g>
    <g id="ytick_23">
     <g id="line2d_40">
      <g>
       <use xlink:href="#med507f3763" x="616.874375" y="75.579241" style="stroke: #000000; stroke-width: 0.8"/>
      </g>
     </g>
     <g id="text_42">
      <!-- 12 -->
      <g transform="translate(597.149375 79.37846) scale(0.1 -0.1)">
       <use xlink:href="#DejaVuSans-31"/>
       <use xlink:href="#DejaVuSans-32" x="63.623047"/>
      </g>
     </g>
    </g>
    <g id="ytick_24">
     <g id="line2d_41">
      <g>
       <use xlink:href="#med507f3763" x="616.874375" y="44.755469" style="stroke: #000000; stroke-width: 0.8"/>
      </g>
     </g>
     <g id="text_43">
      <!-- 14 -->
      <g transform="translate(597.149375 48.554687) scale(0.1 -0.1)">
       <use xlink:href="#DejaVuSans-31"/>
       <use xlink:href="#DejaVuSans-34" x="63.623047"/>
      </g>
     </g>
    </g>
    <g id="text_44">
     <!-- Fraction of cells -->
     <g transform="translate(590.237812 207.470547) rotate(-90) scale(0.14 -0.14)">
      <use xlink:href="#DejaVuSans-46"/>
      <use xlink:href="#DejaVuSans-72" x="50.269531"/>
      <use xlink:href="#DejaVuSans-61" x="91.382812"/>
      <use xlink:href="#DejaVuSans-63" x="152.662109"/>
      <use xlink:href="#DejaVuSans-74" x="207.642578"/>
      <use xlink:href="#DejaVuSans-69" x="246.851562"/>
      <use xlink:href="#DejaVuSans-6f" x="274.634766"/>
      <use xlink:href="#DejaVuSans-6e" x="335.816406"/>
      <use xlink:href="#DejaVuSans-20" x="399.195312"/>
      <use xlink:href="#DejaVuSans-6f" x="430.982422"/>
      <use xlink:href="#DejaVuSans-66" x="492.164062"/>
      <use xlink:href="#DejaVuSans-20" x="527.369141"/>
      <use xlink:href="#DejaVuSans-63" x="559.15625"/>
      <use xlink:href="#DejaVuSans-65" x="614.136719"/>
      <use xlink:href="#DejaVuSans-6c" x="675.660156"/>
      <use xlink:href="#DejaVuSans-6c" x="703.443359"/>
      <use xlink:href="#DejaVuSans-73" x="731.226562"/>
     </g>
    </g>
   </g>
   <g id="line2d_42">
    <path d="M 536.236993 260.521875 
L 541.39497 260.521875 
L 546.552946 260.521875 
L 551.710922 260.521875 
L 556.868898 260.521875 
L 562.026875 260.521875 
L 567.184851 260.521875 
L 572.342827 260.521875 
L 577.500803 260.521875 
L 582.658779 260.521875 
L 587.816756 260.521875 
L 592.974732 260.521875 
L 598.132708 260.521875 
L 603.290684 260.521875 
L 608.448661 260.521875 
L 613.606637 260.521875 
L 618.764613 260.521875 
L 623.922589 260.521875 
L 629.080565 260.521875 
L 634.238542 260.521874 
L 639.396518 260.521786 
L 644.554494 260.517968 
L 649.71247 260.433706 
L 654.870447 259.480474 
L 660.028423 253.869519 
L 665.186399 236.243802 
L 670.344375 205.267171 
L 675.502351 172.591303 
L 680.660328 152.231993 
L 685.818304 151.057286 
L 690.97628 165.717529 
L 696.134256 186.530209 
L 701.292233 205.401139 
L 706.450209 219.545415 
L 711.608185 229.629017 
L 716.766161 236.269045 
L 721.924137 243.603671 
L 727.082114 252.107215 
L 732.24009 257.52218 
L 737.398066 259.481466 
L 742.556042 259.388729 
L 747.714019 258.186326 
L 752.871995 257.371425 
L 758.029971 257.586134 
L 763.187947 257.927756 
L 768.345923 258.043735 
L 773.5039 258.321896 
L 778.661876 258.730218 
L 783.819852 259.311582 
L 788.977828 260.007734 
L 794.135804 260.40611 
L 799.293781 260.508838 
L 804.451757 260.521152 
L 809.609733 260.521855 
L 814.767709 260.521875 
L 819.925686 260.521875 
L 825.083662 260.521875 
L 830.241638 260.521875 
L 835.399614 260.521875 
L 840.55759 260.521875 
L 845.715567 260.521875 
L 850.873543 260.521875 
L 856.031519 260.521875 
L 861.189495 260.521875 
L 865 260.521875 
" clip-path="url(#p5b94041762)" style="fill: none; stroke: #2ca02c; stroke-width: 1.5; stroke-linecap: square"/>
   </g>
   <g id="patch_77">
    <path d="M 616.874375 260.521875 
L 616.874375 44.755469 
" style="fill: none; stroke: #000000; stroke-width: 0.8; stroke-linejoin: miter; stroke-linecap: square"/>
   </g>
   <g id="patch_78">
    <path d="M 853.2 260.521875 
L 853.2 44.755469 
" style="fill: none; stroke: #000000; stroke-width: 0.8; stroke-linejoin: miter; stroke-linecap: square"/>
   </g>
   <g id="patch_79">
    <path d="M 616.874375 260.521875 
L 853.2 260.521875 
" style="fill: none; stroke: #000000; stroke-width: 0.8; stroke-linejoin: miter; stroke-linecap: square"/>
   </g>
   <g id="patch_80">
    <path d="M 616.874375 44.755469 
L 853.2 44.755469 
" style="fill: none; stroke: #000000; stroke-width: 0.8; stroke-linejoin: miter; stroke-linecap: square"/>
   </g>
   <g id="legend_3">
    <g id="patch_81">
     <path d="M 725.315625 72.302969 
L 844.8 72.302969 
Q 847.2 72.302969 847.2 69.902969 
L 847.2 53.155469 
Q 847.2 50.755469 844.8 50.755469 
L 725.315625 50.755469 
Q 722.915625 50.755469 722.915625 53.155469 
L 722.915625 69.902969 
Q 722.915625 72.302969 725.315625 72.302969 
z
" style="fill: #ffffff; opacity: 0.8; stroke: #cccccc; stroke-linejoin: miter"/>
    </g>
    <g id="patch_82">
     <path d="M 727.715625 64.673594 
L 751.715625 64.673594 
L 751.715625 56.273594 
L 727.715625 56.273594 
z
" style="fill: #2ca02c; opacity: 0.4"/>
    </g>
    <g id="text_45">
     <!-- MDA_MB_231 -->
     <g transform="translate(761.315625 64.673594) scale(0.12 -0.12)">
      <defs>
       <path id="DejaVuSans-44" d="M 1259 4147 
L 1259 519 
L 2022 519 
Q 2988 519 3436 956 
Q 3884 1394 3884 2338 
Q 3884 3275 3436 3711 
Q 2988 4147 2022 4147 
L 1259 4147 
z
M 628 4666 
L 1925 4666 
Q 3281 4666 3915 4102 
Q 4550 3538 4550 2338 
Q 4550 1131 3912 565 
Q 3275 0 1925 0 
L 628 0 
L 628 4666 
z
" transform="scale(0.015625)"/>
       <path id="DejaVuSans-5f" d="M 3263 -1063 
L 3263 -1509 
L -63 -1509 
L -63 -1063 
L 3263 -1063 
z
" transform="scale(0.015625)"/>
       <path id="DejaVuSans-42" d="M 1259 2228 
L 1259 519 
L 2272 519 
Q 2781 519 3026 730 
Q 3272 941 3272 1375 
Q 3272 1813 3026 2020 
Q 2781 2228 2272 2228 
L 1259 2228 
z
M 1259 4147 
L 1259 2741 
L 2194 2741 
Q 2656 2741 2882 2914 
Q 3109 3088 3109 3444 
Q 3109 3797 2882 3972 
Q 2656 4147 2194 4147 
L 1259 4147 
z
M 628 4666 
L 2241 4666 
Q 2963 4666 3353 4366 
Q 3744 4066 3744 3513 
Q 3744 3084 3544 2831 
Q 3344 2578 2956 2516 
Q 3422 2416 3680 2098 
Q 3938 1781 3938 1306 
Q 3938 681 3513 340 
Q 3088 0 2303 0 
L 628 0 
L 628 4666 
z
" transform="scale(0.015625)"/>
       <path id="DejaVuSans-33" d="M 2597 2516 
Q 3050 2419 3304 2112 
Q 3559 1806 3559 1356 
Q 3559 666 3084 287 
Q 2609 -91 1734 -91 
Q 1441 -91 1130 -33 
Q 819 25 488 141 
L 488 750 
Q 750 597 1062 519 
Q 1375 441 1716 441 
Q 2309 441 2620 675 
Q 2931 909 2931 1356 
Q 2931 1769 2642 2001 
Q 2353 2234 1838 2234 
L 1294 2234 
L 1294 2753 
L 1863 2753 
Q 2328 2753 2575 2939 
Q 2822 3125 2822 3475 
Q 2822 3834 2567 4026 
Q 2313 4219 1838 4219 
Q 1578 4219 1281 4162 
Q 984 4106 628 3988 
L 628 4550 
Q 988 4650 1302 4700 
Q 1616 4750 1894 4750 
Q 2613 4750 3031 4423 
Q 3450 4097 3450 3541 
Q 3450 3153 3228 2886 
Q 3006 2619 2597 2516 
z
" transform="scale(0.015625)"/>
      </defs>
      <use xlink:href="#DejaVuSans-4d"/>
      <use xlink:href="#DejaVuSans-44" x="86.279297"/>
      <use xlink:href="#DejaVuSans-41" x="161.53125"/>
      <use xlink:href="#DejaVuSans-5f" x="229.939453"/>
      <use xlink:href="#DejaVuSans-4d" x="279.939453"/>
      <use xlink:href="#DejaVuSans-42" x="366.21875"/>
      <use xlink:href="#DejaVuSans-5f" x="434.822266"/>
      <use xlink:href="#DejaVuSans-32" x="484.822266"/>
      <use xlink:href="#DejaVuSans-33" x="548.445312"/>
      <use xlink:href="#DejaVuSans-31" x="612.068359"/>
     </g>
    </g>
   </g>
  </g>
  <g id="text_46">
   <!-- Histograms of linear distances to global mean cell -->
   <g transform="translate(181.054688 20.956875) scale(0.2 -0.2)">
    <defs>
     <path id="DejaVuSans-48" d="M 628 4666 
L 1259 4666 
L 1259 2753 
L 3553 2753 
L 3553 4666 
L 4184 4666 
L 4184 0 
L 3553 0 
L 3553 2222 
L 1259 2222 
L 1259 0 
L 628 0 
L 628 4666 
z
" transform="scale(0.015625)"/>
     <path id="DejaVuSans-67" d="M 2906 1791 
Q 2906 2416 2648 2759 
Q 2391 3103 1925 3103 
Q 1463 3103 1205 2759 
Q 947 2416 947 1791 
Q 947 1169 1205 825 
Q 1463 481 1925 481 
Q 2391 481 2648 825 
Q 2906 1169 2906 1791 
z
M 3481 434 
Q 3481 -459 3084 -895 
Q 2688 -1331 1869 -1331 
Q 1566 -1331 1297 -1286 
Q 1028 -1241 775 -1147 
L 775 -588 
Q 1028 -725 1275 -790 
Q 1522 -856 1778 -856 
Q 2344 -856 2625 -561 
Q 2906 -266 2906 331 
L 2906 616 
Q 2728 306 2450 153 
Q 2172 0 1784 0 
Q 1141 0 747 490 
Q 353 981 353 1791 
Q 353 2603 747 3093 
Q 1141 3584 1784 3584 
Q 2172 3584 2450 3431 
Q 2728 3278 2906 2969 
L 2906 3500 
L 3481 3500 
L 3481 434 
z
" transform="scale(0.015625)"/>
     <path id="DejaVuSans-6d" d="M 3328 2828 
Q 3544 3216 3844 3400 
Q 4144 3584 4550 3584 
Q 5097 3584 5394 3201 
Q 5691 2819 5691 2113 
L 5691 0 
L 5113 0 
L 5113 2094 
Q 5113 2597 4934 2840 
Q 4756 3084 4391 3084 
Q 3944 3084 3684 2787 
Q 3425 2491 3425 1978 
L 3425 0 
L 2847 0 
L 2847 2094 
Q 2847 2600 2669 2842 
Q 2491 3084 2119 3084 
Q 1678 3084 1418 2786 
Q 1159 2488 1159 1978 
L 1159 0 
L 581 0 
L 581 3500 
L 1159 3500 
L 1159 2956 
Q 1356 3278 1631 3431 
Q 1906 3584 2284 3584 
Q 2666 3584 2933 3390 
Q 3200 3197 3328 2828 
z
" transform="scale(0.015625)"/>
     <path id="DejaVuSans-64" d="M 2906 2969 
L 2906 4863 
L 3481 4863 
L 3481 0 
L 2906 0 
L 2906 525 
Q 2725 213 2448 61 
Q 2172 -91 1784 -91 
Q 1150 -91 751 415 
Q 353 922 353 1747 
Q 353 2572 751 3078 
Q 1150 3584 1784 3584 
Q 2172 3584 2448 3432 
Q 2725 3281 2906 2969 
z
M 947 1747 
Q 947 1113 1208 752 
Q 1469 391 1925 391 
Q 2381 391 2643 752 
Q 2906 1113 2906 1747 
Q 2906 2381 2643 2742 
Q 2381 3103 1925 3103 
Q 1469 3103 1208 2742 
Q 947 2381 947 1747 
z
" transform="scale(0.015625)"/>
     <path id="DejaVuSans-62" d="M 3116 1747 
Q 3116 2381 2855 2742 
Q 2594 3103 2138 3103 
Q 1681 3103 1420 2742 
Q 1159 2381 1159 1747 
Q 1159 1113 1420 752 
Q 1681 391 2138 391 
Q 2594 391 2855 752 
Q 3116 1113 3116 1747 
z
M 1159 2969 
Q 1341 3281 1617 3432 
Q 1894 3584 2278 3584 
Q 2916 3584 3314 3078 
Q 3713 2572 3713 1747 
Q 3713 922 3314 415 
Q 2916 -91 2278 -91 
Q 1894 -91 1617 61 
Q 1341 213 1159 525 
L 1159 0 
L 581 0 
L 581 4863 
L 1159 4863 
L 1159 2969 
z
" transform="scale(0.015625)"/>
    </defs>
    <use xlink:href="#DejaVuSans-48"/>
    <use xlink:href="#DejaVuSans-69" x="75.195312"/>
    <use xlink:href="#DejaVuSans-73" x="102.978516"/>
    <use xlink:href="#DejaVuSans-74" x="155.078125"/>
    <use xlink:href="#DejaVuSans-6f" x="194.287109"/>
    <use xlink:href="#DejaVuSans-67" x="255.46875"/>
    <use xlink:href="#DejaVuSans-72" x="318.945312"/>
    <use xlink:href="#DejaVuSans-61" x="360.058594"/>
    <use xlink:href="#DejaVuSans-6d" x="421.337891"/>
    <use xlink:href="#DejaVuSans-73" x="518.75"/>
    <use xlink:href="#DejaVuSans-20" x="570.849609"/>
    <use xlink:href="#DejaVuSans-6f" x="602.636719"/>
    <use xlink:href="#DejaVuSans-66" x="663.818359"/>
    <use xlink:href="#DejaVuSans-20" x="699.023438"/>
    <use xlink:href="#DejaVuSans-6c" x="730.810547"/>
    <use xlink:href="#DejaVuSans-69" x="758.59375"/>
    <use xlink:href="#DejaVuSans-6e" x="786.376953"/>
    <use xlink:href="#DejaVuSans-65" x="849.755859"/>
    <use xlink:href="#DejaVuSans-61" x="911.279297"/>
    <use xlink:href="#DejaVuSans-72" x="972.558594"/>
    <use xlink:href="#DejaVuSans-20" x="1013.671875"/>
    <use xlink:href="#DejaVuSans-64" x="1045.458984"/>
    <use xlink:href="#DejaVuSans-69" x="1108.935547"/>
    <use xlink:href="#DejaVuSans-73" x="1136.71875"/>
    <use xlink:href="#DejaVuSans-74" x="1188.818359"/>
    <use xlink:href="#DejaVuSans-61" x="1228.027344"/>
    <use xlink:href="#DejaVuSans-6e" x="1289.306641"/>
    <use xlink:href="#DejaVuSans-63" x="1352.685547"/>
    <use xlink:href="#DejaVuSans-65" x="1407.666016"/>
    <use xlink:href="#DejaVuSans-73" x="1469.189453"/>
    <use xlink:href="#DejaVuSans-20" x="1521.289062"/>
    <use xlink:href="#DejaVuSans-74" x="1553.076172"/>
    <use xlink:href="#DejaVuSans-6f" x="1592.285156"/>
    <use xlink:href="#DejaVuSans-20" x="1653.466797"/>
    <use xlink:href="#DejaVuSans-67" x="1685.253906"/>
    <use xlink:href="#DejaVuSans-6c" x="1748.730469"/>
    <use xlink:href="#DejaVuSans-6f" x="1776.513672"/>
    <use xlink:href="#DejaVuSans-62" x="1837.695312"/>
    <use xlink:href="#DejaVuSans-61" x="1901.171875"/>
    <use xlink:href="#DejaVuSans-6c" x="1962.451172"/>
    <use xlink:href="#DejaVuSans-20" x="1990.234375"/>
    <use xlink:href="#DejaVuSans-6d" x="2022.021484"/>
    <use xlink:href="#DejaVuSans-65" x="2119.433594"/>
    <use xlink:href="#DejaVuSans-61" x="2180.957031"/>
    <use xlink:href="#DejaVuSans-6e" x="2242.236328"/>
    <use xlink:href="#DejaVuSans-20" x="2305.615234"/>
    <use xlink:href="#DejaVuSans-63" x="2337.402344"/>
    <use xlink:href="#DejaVuSans-65" x="2392.382812"/>
    <use xlink:href="#DejaVuSans-6c" x="2453.90625"/>
    <use xlink:href="#DejaVuSans-6c" x="2481.689453"/>
   </g>
  </g>
 </g>
 <defs>
  <clipPath id="p6284019b5e">
   <rect x="48.074375" y="44.755469" width="236.325625" height="215.766406"/>
  </clipPath>
  <clipPath id="p9f4cb200ef">
   <rect x="332.474375" y="44.755469" width="236.325625" height="215.766406"/>
  </clipPath>
  <clipPath id="p5b94041762">
   <rect x="616.874375" y="44.755469" width="236.325625" height="215.766406"/>
  </clipPath>
 </defs>
</svg>
