<?xml version="1.0" encoding="utf-8" standalone="no"?>
<!DOCTYPE svg PUBLIC "-//W3C//DTD SVG 1.1//EN"
  "http://www.w3.org/Graphics/SVG/1.1/DTD/svg11.dtd">
<svg xmlns:xlink="http://www.w3.org/1999/xlink" width="2592pt" height="144pt" viewBox="0 0 2592 144" xmlns="http://www.w3.org/2000/svg" version="1.1">
 <metadata>
  <rdf:RDF xmlns:dc="http://purl.org/dc/elements/1.1/" xmlns:cc="http://creativecommons.org/ns#" xmlns:rdf="http://www.w3.org/1999/02/22-rdf-syntax-ns#">
   <cc:Work>
    <dc:type rdf:resource="http://purl.org/dc/dcmitype/StillImage"/>
    <dc:date>2023-12-13T22:54:07.951399</dc:date>
    <dc:format>image/svg+xml</dc:format>
    <dc:creator>
     <cc:Agent>
      <dc:title>Matplotlib v3.6.2, https://matplotlib.org/</dc:title>
     </cc:Agent>
    </dc:creator>
   </cc:Work>
  </rdf:RDF>
 </metadata>
 <defs>
  <style type="text/css">*{stroke-linejoin: round; stroke-linecap: butt}</style>
 </defs>
 <g id="figure_1">
  <g id="patch_1">
   <path d="M 0 144 
L 2592 144 
L 2592 0 
L 0 0 
z
" style="fill: #ffffff"/>
  </g>
  <g id="axes_1">
   <g id="patch_2">
    <path d="M 10.8 133.2 
L 143.4 133.2 
L 143.4 27.6 
L 10.8 27.6 
z
" style="fill: #ffffff"/>
   </g>
   <g id="matplotlib.axis_1"/>
   <g id="matplotlib.axis_2"/>
   <g id="line2d_1">
    <path d="M 60.456213 124.28562 
L 59.791455 118.326732 
L 57.192783 116.232742 
L 56.919834 120.651971 
L 53.992739 119.809234 
L 54.309533 114.366793 
L 55.335215 110.227399 
L 56.138899 104.576189 
L 51.926828 109.741722 
L 51.128532 113.59389 
L 50.673739 116.958378 
L 50.218947 120.322865 
L 48.686755 120.388496 
L 48.952397 116.139793 
L 49.860596 112.650602 
L 50.587437 109.211349 
L 51.079747 104.413442 
L 48.158509 102.876288 
L 43.106085 109.808449 
L 44.531259 103.873906 
L 46.479553 100.510658 
L 52.094794 95.502182 
L 49.998761 90.461234 
L 49.02199 88.857404 
L 47.594387 85.505091 
L 41.21302 85.38771 
L 33.622493 92.437416 
L 32.563789 91.211895 
L 33.775697 86.908938 
L 37.579949 84.289765 
L 44.16117 77.929572 
L 38.126822 77.660576 
L 31.735493 75.82326 
L 27.742948 78.793823 
L 22.918134 84.59603 
L 18.382057 89.794533 
L 23.053413 81.019845 
L 26.978832 76.270154 
L 34.513559 72.475171 
L 30.522945 67.73061 
L 28.924614 62.646407 
L 23.706273 61.179286 
L 18.078849 59.918307 
L 17.485526 56.336538 
L 25.247481 54.070647 
L 22.190053 51.110421 
L 16.827273 48.971504 
L 25.5121 46.63905 
L 31.473767 48.74434 
L 36.303191 50.224796 
L 38.655708 46.769059 
L 43.026551 45.566927 
L 44.838048 41.492267 
L 51.311079 41.003974 
L 59.592736 41.946895 
L 64.318523 39.710903 
L 71.134284 41.26297 
L 77.482857 44.516403 
L 82.348564 39.433214 
L 92.947877 37.454276 
L 98.796832 32.56878 
L 102.650665 33.811981 
L 107.920693 32.4 
L 114.59742 35.244861 
L 116.287536 37.907053 
L 120.619727 43.32539 
L 119.521484 47.484741 
L 123.806637 53.721195 
L 126.624854 57.383848 
L 131.779359 62.014301 
L 136.748341 67.07024 
L 133.2249 76.521622 
L 136.449163 80.746719 
L 137.372727 83.732055 
L 131.915062 84.783724 
L 130.192148 91.811251 
L 125.797283 96.502768 
L 121.838166 99.389279 
L 118.533147 106.252734 
L 110.101034 113.702421 
L 108.85125 119.307808 
L 105.094634 120.397178 
L 98.759489 121.989788 
L 93.325532 123.18471 
L 90.301376 118.193083 
L 90.828751 127.915966 
L 87.538503 123.278383 
L 83.177827 121.59409 
L 78.839683 125.240167 
L 77.222724 128.4 
L 73.001828 122.894881 
L 69.309371 120.951889 
L 67.867074 116.966983 
L 68.019299 112.019237 
L 68.708783 108.196997 
L 68.430397 101.307949 
L 65.764539 106.778514 
L 63.142499 111.225874 
L 63.170768 117.678165 
L 63.403501 124.935544 
" clip-path="url(#pf6349d072c)" style="fill: none; stroke: #2ca02c; stroke-width: 1.5; stroke-linecap: square"/>
   </g>
   <g id="text_1">
    <!-- 4 -->
    <g transform="translate(72.64625 21.6) scale(0.14 -0.14)">
     <defs>
      <path id="DejaVuSans-34" d="M 2419 4116 
L 825 1625 
L 2419 1625 
L 2419 4116 
z
M 2253 4666 
L 3047 4666 
L 3047 1625 
L 3713 1625 
L 3713 1100 
L 3047 1100 
L 3047 0 
L 2419 0 
L 2419 1100 
L 313 1100 
L 313 1709 
L 2253 4666 
z
" transform="scale(0.015625)"/>
     </defs>
     <use xlink:href="#DejaVuSans-34"/>
    </g>
   </g>
  </g>
  <g id="axes_2">
   <g id="patch_3">
    <path d="M 154.2 133.2 
L 286.8 133.2 
L 286.8 27.6 
L 154.2 27.6 
z
" style="fill: #ffffff"/>
   </g>
   <g id="matplotlib.axis_3"/>
   <g id="matplotlib.axis_4"/>
   <g id="line2d_2">
    <path d="M 209.303899 123.22342 
L 205.245821 123.475465 
L 202.023511 125.657923 
L 198.026149 127.72194 
L 203.257323 124.023677 
L 206.588118 121.994757 
L 209.444628 119.134322 
L 213.471516 114.6922 
L 215.078464 109.689227 
L 215.504808 102.810482 
L 209.23527 107.8948 
L 204.431883 112.358786 
L 202.350551 109.430321 
L 198.245113 111.750572 
L 200.22979 106.321472 
L 204.301957 98.349093 
L 200.114403 100.179424 
L 196.867542 102.96776 
L 193.565252 105.926666 
L 189.39428 109.595469 
L 185.481004 111.636161 
L 183.086838 105.987259 
L 187.098371 103.498484 
L 192.356924 99.011546 
L 195.941953 96.301616 
L 195.78945 92.829475 
L 197.266153 88.389522 
L 194.892662 82.769859 
L 190.374611 86.107516 
L 187.969606 85.941515 
L 191.896354 82.069352 
L 191.25571 78.991666 
L 187.748162 74.026522 
L 186.730202 69.026784 
L 184.210701 65.51366 
L 177.272109 60.976424 
L 173.32721 63.933206 
L 172.311803 70.858908 
L 171.046957 75.207318 
L 170.152795 71.459312 
L 169.734087 67.209997 
L 168.717678 64.04521 
L 171.583129 55.82373 
L 172.251147 52.890318 
L 170.806782 47.375925 
L 167.75114 42.160792 
L 164.795778 38.350983 
L 161.198592 35.554338 
L 160.227273 32.4 
L 165.219073 35.391427 
L 169.873677 38.047858 
L 177.692302 41.339714 
L 183.543275 41.668292 
L 189.846353 45.990971 
L 195.768977 44.917398 
L 199.816394 41.28724 
L 203.982222 42.735773 
L 208.643814 43.008858 
L 218.284606 43.40849 
L 233.949573 44.782249 
L 241.515232 46.93306 
L 245.543177 49.725582 
L 249.908707 50.70059 
L 253.294772 52.041796 
L 259.876706 54.881927 
L 261.350815 59.504262 
L 265.689522 63.35948 
L 269.303243 71.143928 
L 272.702284 75.955529 
L 275.792275 78.390025 
L 278.599249 81.847456 
L 280.772727 86.943755 
L 280.064774 92.534176 
L 280.339242 94.328426 
L 276.833986 97.33816 
L 274.158381 102.625467 
L 272.268691 104.914977 
L 267.115487 105.983408 
L 257.420943 106.904452 
L 253.426488 113.616761 
L 253.506977 117.787732 
L 251.323816 119.599479 
L 248.695232 121.919531 
L 241.738151 123.450525 
L 238.835496 121.823857 
L 234.061044 124.869672 
L 230.045213 125.021437 
L 232.785719 122.103549 
L 236.684957 117.142589 
L 237.334409 112.883986 
L 231.429841 115.557829 
L 234.401748 110.761147 
L 234.706782 104.698166 
L 229.252787 109.335506 
L 222.772142 112.96435 
L 219.833665 119.676789 
L 218.016729 122.282804 
L 212.402515 124.424648 
L 206.361491 128.4 
L 206.568619 125.952946 
" clip-path="url(#p5e82126752)" style="fill: none; stroke: #2ca02c; stroke-width: 1.5; stroke-linecap: square"/>
   </g>
   <g id="text_2">
    <!-- 46 -->
    <g transform="translate(211.5925 21.6) scale(0.14 -0.14)">
     <defs>
      <path id="DejaVuSans-36" d="M 2113 2584 
Q 1688 2584 1439 2293 
Q 1191 2003 1191 1497 
Q 1191 994 1439 701 
Q 1688 409 2113 409 
Q 2538 409 2786 701 
Q 3034 994 3034 1497 
Q 3034 2003 2786 2293 
Q 2538 2584 2113 2584 
z
M 3366 4563 
L 3366 3988 
Q 3128 4100 2886 4159 
Q 2644 4219 2406 4219 
Q 1781 4219 1451 3797 
Q 1122 3375 1075 2522 
Q 1259 2794 1537 2939 
Q 1816 3084 2150 3084 
Q 2853 3084 3261 2657 
Q 3669 2231 3669 1497 
Q 3669 778 3244 343 
Q 2819 -91 2113 -91 
Q 1303 -91 875 529 
Q 447 1150 447 2328 
Q 447 3434 972 4092 
Q 1497 4750 2381 4750 
Q 2619 4750 2861 4703 
Q 3103 4656 3366 4563 
z
" transform="scale(0.015625)"/>
     </defs>
     <use xlink:href="#DejaVuSans-34"/>
     <use xlink:href="#DejaVuSans-36" x="63.623047"/>
    </g>
   </g>
  </g>
  <g id="axes_3">
   <g id="patch_4">
    <path d="M 297.6 133.2 
L 430.2 133.2 
L 430.2 27.6 
L 297.6 27.6 
z
" style="fill: #ffffff"/>
   </g>
   <g id="matplotlib.axis_5"/>
   <g id="matplotlib.axis_6"/>
   <g id="line2d_3">
    <path d="M 364.541014 110.812786 
L 352.20905 109.888702 
L 352.853632 105.79032 
L 347.032119 105.290036 
L 349.711285 103.087142 
L 346.448559 99.898414 
L 339.295461 98.477309 
L 335.460617 97.530028 
L 333.070321 94.959242 
L 327.286438 93.752405 
L 334.053377 91.527446 
L 339.83207 91.209766 
L 345.725985 90.065436 
L 332.262783 82.110282 
L 327.971251 81.728545 
L 322.813061 80.873334 
L 318.281001 78.883506 
L 313.938025 78.157185 
L 308.782649 77.32111 
L 303.627273 76.485035 
L 305.582453 75.721309 
L 313.375957 76.740475 
L 321.301916 76.304752 
L 328.974637 77.793804 
L 332.297694 73.191103 
L 336.245493 71.487826 
L 327.874268 64.903011 
L 324.192118 62.634851 
L 320.137388 58.514931 
L 322.500229 57.709473 
L 327.935574 62.226401 
L 338.388448 67.509729 
L 345.791471 68.685487 
L 344.870843 66.362028 
L 338.006211 61.122677 
L 354.039536 66.784447 
L 355.702555 64.280328 
L 360.2472 63.161931 
L 360.253833 60.864704 
L 361.816483 58.115189 
L 353.120093 53.719662 
L 350.57712 52.575912 
L 345.813139 49.141579 
L 337.644155 46.782298 
L 330.740947 44.903531 
L 322.092796 42.001217 
L 317.210293 40.754444 
L 321.530653 40.584497 
L 330.178857 43.486837 
L 336.433375 45.07313 
L 342.323785 45.608238 
L 348.925629 47.281595 
L 365.891895 53.007897 
L 359.110452 47.899082 
L 367.653127 48.819147 
L 363.8883 44.934218 
L 358.338498 39.545378 
L 356.095203 35.403083 
L 360.071204 35.059056 
L 361.217621 32.4 
L 366.972784 33.627721 
L 369.793517 36.522272 
L 372.199689 35.048544 
L 373.285475 33.261366 
L 377.85702 37.005477 
L 379.393514 35.145265 
L 384.583313 35.998739 
L 389.595517 35.877612 
L 393.319556 41.299245 
L 397.440739 44.267103 
L 400.927204 47.781297 
L 406.331082 51.981479 
L 409.438181 56.790417 
L 412.230219 59.705864 
L 416.919633 62.960931 
L 419.926838 66.250573 
L 421.968695 71.706796 
L 424.172727 73.351715 
L 423.821123 77.067273 
L 420.783232 79.000363 
L 421.600012 82.651676 
L 416.175577 87.360268 
L 417.204703 91.154337 
L 416.086474 95.278758 
L 415.88424 98.715885 
L 419.225075 100.29831 
L 413.153609 100.468009 
L 413.969938 105.180961 
L 413.208237 107.857464 
L 407.421891 113.12639 
L 400.476771 115.862972 
L 394.123323 117.659871 
L 392.721344 120.632146 
L 388.759159 122.451988 
L 384.965917 125.401321 
L 378.95707 126.947639 
L 373.077433 128.4 
L 369.927672 122.560773 
L 366.972158 119.191082 
L 364.717668 114.335243 
" clip-path="url(#p0e2202c82c)" style="fill: none; stroke: #2ca02c; stroke-width: 1.5; stroke-linecap: square"/>
   </g>
   <g id="text_3">
    <!-- 76 -->
    <g transform="translate(354.9925 21.6) scale(0.14 -0.14)">
     <defs>
      <path id="DejaVuSans-37" d="M 525 4666 
L 3525 4666 
L 3525 4397 
L 1831 0 
L 1172 0 
L 2766 4134 
L 525 4134 
L 525 4666 
z
" transform="scale(0.015625)"/>
     </defs>
     <use xlink:href="#DejaVuSans-37"/>
     <use xlink:href="#DejaVuSans-36" x="63.623047"/>
    </g>
   </g>
  </g>
  <g id="axes_4">
   <g id="patch_5">
    <path d="M 441 133.2 
L 573.6 133.2 
L 573.6 27.6 
L 441 27.6 
z
" style="fill: #ffffff"/>
   </g>
   <g id="matplotlib.axis_7"/>
   <g id="matplotlib.axis_8"/>
   <g id="line2d_4">
    <path d="M 493.856127 121.431522 
L 490.457423 123.654594 
L 488.42097 128.4 
L 486.883465 124.19186 
L 488.303465 120.922654 
L 489.940625 111.807971 
L 491.79832 107.988057 
L 486.854859 108.048784 
L 481.16941 111.552165 
L 487.738252 104.379337 
L 489.986655 101.143215 
L 492.76993 96.175111 
L 488.78419 94.867968 
L 487.160919 93.537575 
L 484.139469 89.339001 
L 477.038208 92.978085 
L 476.074596 95.347232 
L 474.599981 98.619994 
L 473.598337 102.210098 
L 472.828702 105.915673 
L 470.693371 102.834386 
L 473.014059 96.590875 
L 473.720093 92.802428 
L 473.7744 89.622129 
L 470.289617 91.546151 
L 467.309269 94.090121 
L 468.113497 91.774857 
L 469.240986 89.395041 
L 472.610306 85.30264 
L 470.257167 81.713345 
L 467.070786 81.746699 
L 464.887755 80.3222 
L 462.307103 83.536418 
L 458.889429 82.932068 
L 458.42858 76.913169 
L 454.311103 75.396989 
L 451.786122 74.386418 
L 448.567226 78.338453 
L 447.027273 79.396092 
L 448.938902 76.094881 
L 447.31842 72.67545 
L 447.045657 68.994256 
L 448.273448 59.645103 
L 450.629377 54.269645 
L 456.045874 47.650516 
L 463.755998 41.404312 
L 465.52486 39.374383 
L 468.487539 39.834272 
L 472.136879 37.377323 
L 470.786439 32.852405 
L 473.690005 33.272583 
L 485.180828 35.353158 
L 487.999688 34.429875 
L 492.063908 34.905068 
L 496.047232 34.602246 
L 504.333391 33.366548 
L 507.147719 32.4 
L 511.283888 33.566829 
L 520.281189 34.939385 
L 528.355699 35.371094 
L 536.892868 37.078258 
L 540.467164 39.717707 
L 543.159804 41.283111 
L 550.402783 47.469773 
L 555.428845 50.319312 
L 558.683019 54.111096 
L 560.693115 55.459787 
L 567.572727 64.498733 
L 565.816976 77.233075 
L 562.400327 79.283235 
L 558.18149 82.081885 
L 556.3812 83.809233 
L 554.748907 89.268129 
L 552.950319 93.127701 
L 552.244288 96.916175 
L 551.006143 100.347623 
L 550.918022 94.739606 
L 538.274172 86.859247 
L 534.373485 90.072359 
L 534.030139 91.53078 
L 529.183104 90.932468 
L 526.679232 98.058252 
L 524.606824 95.582124 
L 520.462074 90.629862 
L 517.301265 91.967072 
L 510.184069 93.866498 
L 509.364994 97.096584 
L 507.350673 98.881372 
L 508.74885 101.749527 
L 511.330833 104.366563 
L 513.901102 108.98615 
L 513.078214 111.650763 
L 511.160726 109.077509 
L 509.270207 106.763619 
L 506.680598 103.015639 
L 504.326095 100.470835 
L 500.939169 100.691324 
L 500.219653 104.350102 
L 498.572172 107.547077 
L 496.505622 110.945414 
" clip-path="url(#p907442562c)" style="fill: none; stroke: #2ca02c; stroke-width: 1.5; stroke-linecap: square"/>
   </g>
   <g id="text_4">
    <!-- 124 -->
    <g transform="translate(493.93875 21.6) scale(0.14 -0.14)">
     <defs>
      <path id="DejaVuSans-31" d="M 794 531 
L 1825 531 
L 1825 4091 
L 703 3866 
L 703 4441 
L 1819 4666 
L 2450 4666 
L 2450 531 
L 3481 531 
L 3481 0 
L 794 0 
L 794 531 
z
" transform="scale(0.015625)"/>
      <path id="DejaVuSans-32" d="M 1228 531 
L 3431 531 
L 3431 0 
L 469 0 
L 469 531 
Q 828 903 1448 1529 
Q 2069 2156 2228 2338 
Q 2531 2678 2651 2914 
Q 2772 3150 2772 3378 
Q 2772 3750 2511 3984 
Q 2250 4219 1831 4219 
Q 1534 4219 1204 4116 
Q 875 4013 500 3803 
L 500 4441 
Q 881 4594 1212 4672 
Q 1544 4750 1819 4750 
Q 2544 4750 2975 4387 
Q 3406 4025 3406 3419 
Q 3406 3131 3298 2873 
Q 3191 2616 2906 2266 
Q 2828 2175 2409 1742 
Q 1991 1309 1228 531 
z
" transform="scale(0.015625)"/>
     </defs>
     <use xlink:href="#DejaVuSans-31"/>
     <use xlink:href="#DejaVuSans-32" x="63.623047"/>
     <use xlink:href="#DejaVuSans-34" x="127.246094"/>
    </g>
   </g>
  </g>
  <g id="axes_5">
   <g id="patch_6">
    <path d="M 584.4 133.2 
L 717 133.2 
L 717 27.6 
L 584.4 27.6 
z
" style="fill: #ffffff"/>
   </g>
   <g id="matplotlib.axis_9"/>
   <g id="matplotlib.axis_10"/>
   <g id="line2d_5">
    <path d="M 622.683627 115.444424 
L 618.680571 111.668592 
L 617.206106 108.705513 
L 618.59963 105.508047 
L 617.723315 103.516257 
L 617.176051 98.526901 
L 615.937978 90.665418 
L 617.584335 83.020911 
L 617.492547 70.503917 
L 620.785841 68.985166 
L 621.422663 65.723003 
L 622.90689 63.086108 
L 625.349334 59.523102 
L 628.83905 55.653897 
L 635.210459 53.382011 
L 645.353359 51.149076 
L 649.221363 49.687741 
L 651.731195 50.38455 
L 656.146316 54.750411 
L 660.51553 55.198846 
L 668.122001 55.249208 
L 673.605166 56.083115 
L 677.045516 55.472783 
L 682.952072 52.075205 
L 684.115343 48.432935 
L 684.65117 44.19749 
L 681.562854 39.086947 
L 678.471397 33.956997 
L 677.586276 32.4 
L 680.8263 34.534845 
L 682.934631 35.685137 
L 687.637613 37.078231 
L 692.159713 35.536464 
L 695.57615 34.219396 
L 698.39258 35.203743 
L 700.965156 37.755766 
L 703.765437 40.457269 
L 707.619162 42.122345 
L 709.799792 45.885745 
L 709.32292 49.926594 
L 623.855578 52.806876 
L 620.079102 58.327906 
L 619.431518 62.222195 
L 616.767595 64.905608 
L 612.221454 65.040785 
L 609.076062 63.840538 
L 601.569894 58.050922 
L 598.314266 55.050634 
L 595.31325 51.388114 
L 590.427273 48.864269 
L 591.785611 48.174789 
L 595.432383 48.840206 
L 597.795366 48.559505 
L 598.510192 45.080792 
L 601.027989 45.756889 
L 602.031238 43.711394 
L 600.500793 41.800039 
L 598.91493 39.895499 
L 597.172686 37.024487 
L 596.702454 35.446073 
L 598.205432 36.838355 
L 599.791296 38.742895 
L 601.377159 40.647435 
L 602.963023 42.551975 
L 604.415855 44.472874 
L 607.63784 46.915502 
L 610.625256 47.908423 
L 613.118074 49.198722 
L 615.70872 44.385365 
L 617.147239 39.299704 
L 619.025372 37.629612 
L 621.675734 46.322895 
L 637.808078 52.944312 
L 710.972727 60.122857 
L 710.394214 63.535535 
L 709.890759 67.412101 
L 706.350469 71.248118 
L 702.240903 74.710559 
L 700.272727 77.850541 
L 693.639309 86.748988 
L 691.990407 90.953691 
L 692.321793 100.898068 
L 691.55849 104.077177 
L 690.795187 107.256287 
L 690.188264 111.401868 
L 688.193302 112.908877 
L 685.821975 114.186171 
L 684.899195 116.379456 
L 683.941982 118.36015 
L 679.143874 120.921558 
L 667.251638 125.341004 
L 658.406986 128.4 
L 651.26616 128.292379 
L 647.417976 127.779875 
L 644.897053 127.08446 
L 642.358925 126.282717 
L 638.712153 125.6173 
L 633.302674 125.168636 
L 631.776498 122.724499 
L 624.564732 117.77594 
" clip-path="url(#p8249acf687)" style="fill: none; stroke: #2ca02c; stroke-width: 1.5; stroke-linecap: square"/>
   </g>
   <g id="text_5">
    <!-- 154 -->
    <g transform="translate(637.33875 21.6) scale(0.14 -0.14)">
     <defs>
      <path id="DejaVuSans-35" d="M 691 4666 
L 3169 4666 
L 3169 4134 
L 1269 4134 
L 1269 2991 
Q 1406 3038 1543 3061 
Q 1681 3084 1819 3084 
Q 2600 3084 3056 2656 
Q 3513 2228 3513 1497 
Q 3513 744 3044 326 
Q 2575 -91 1722 -91 
Q 1428 -91 1123 -41 
Q 819 9 494 109 
L 494 744 
Q 775 591 1075 516 
Q 1375 441 1709 441 
Q 2250 441 2565 725 
Q 2881 1009 2881 1497 
Q 2881 1984 2565 2268 
Q 2250 2553 1709 2553 
Q 1456 2553 1204 2497 
Q 953 2441 691 2322 
L 691 4666 
z
" transform="scale(0.015625)"/>
     </defs>
     <use xlink:href="#DejaVuSans-31"/>
     <use xlink:href="#DejaVuSans-35" x="63.623047"/>
     <use xlink:href="#DejaVuSans-34" x="127.246094"/>
    </g>
   </g>
  </g>
  <g id="axes_6">
   <g id="patch_7">
    <path d="M 727.8 133.2 
L 860.4 133.2 
L 860.4 27.6 
L 727.8 27.6 
z
" style="fill: #ffffff"/>
   </g>
   <g id="matplotlib.axis_11"/>
   <g id="matplotlib.axis_12"/>
   <g id="line2d_6">
    <path d="M 807.430674 125.471975 
L 805.367849 127.721327 
L 800.84428 128.4 
L 795.97562 123.941476 
L 790.706659 122.873362 
L 788.22771 120.914689 
L 788.383302 118.439163 
L 788.774761 115.501311 
L 791.469003 110.847849 
L 792.522804 103.161124 
L 790.693343 100.703354 
L 779.248215 98.034847 
L 770.078278 100.953138 
L 765.571545 102.700631 
L 761.992875 104.472716 
L 756.003488 108.808205 
L 755.852396 106.558976 
L 757.270289 104.292311 
L 760.72672 101.284714 
L 755.628189 100.299541 
L 748.21357 99.897099 
L 749.175624 99.025321 
L 763.141275 98.661819 
L 770.122433 96.93569 
L 774.413786 95.371308 
L 780.826437 92.66198 
L 784.488091 88.735879 
L 785.913562 86.231429 
L 787.845747 81.6867 
L 789.929611 77.997539 
L 791.441177 75.37235 
L 792.738626 71.31269 
L 794.885106 67.270271 
L 794.149921 62.987276 
L 789.763489 59.746925 
L 785.518438 57.325827 
L 778.989656 53.631598 
L 772.147181 49.825701 
L 763.906528 46.709616 
L 758.8425 45.30326 
L 753.995531 43.855432 
L 747.097693 40.978364 
L 743.332399 39.154075 
L 737.692004 36.997768 
L 733.827273 35.797162 
L 742.55681 32.4 
L 745.408211 34.994459 
L 752.660243 41.975833 
L 758.937908 44.035395 
L 763.574893 45.629664 
L 769.897283 47.770452 
L 773.838768 48.594625 
L 781.733349 51.467278 
L 788.15413 53.436765 
L 788.200681 50.506775 
L 791.754681 50.704638 
L 796.069333 51.707663 
L 801.477691 53.448867 
L 807.08612 51.155396 
L 814.137665 50.944666 
L 814.337792 53.923873 
L 820.647165 55.754247 
L 815.538477 60.110818 
L 818.965453 64.378257 
L 821.63968 66.789403 
L 823.663963 68.758394 
L 828.94579 72.471864 
L 836.194557 73.67771 
L 842.260954 72.241985 
L 853.622305 71.910343 
L 854.372727 73.26406 
L 850.089888 74.371332 
L 842.892926 75.572344 
L 838.064681 78.611143 
L 842.939488 82.342994 
L 847.116632 86.090749 
L 845.524993 87.17333 
L 841.59147 85.649858 
L 837.551462 83.242389 
L 830.339011 78.837198 
L 824.309546 79.888263 
L 818.794692 81.704406 
L 810.691464 88.231005 
L 808.092622 89.395908 
L 803.325366 93.342622 
L 800.351159 96.165582 
L 797.085411 100.960002 
L 799.347333 111.258007 
L 805.790915 113.683906 
L 806.309474 116.14412 
L 810.716044 118.515832 
L 816.771172 118.898954 
L 820.73903 117.894802 
L 828.056828 116.855557 
L 832.117429 119.920539 
L 834.708731 123.434779 
L 836.194203 125.914098 
L 825.761617 124.177549 
L 818.169377 124.286335 
L 812.320702 123.820845 
" clip-path="url(#p547cef5cde)" style="fill: none; stroke: #2ca02c; stroke-width: 1.5; stroke-linecap: square"/>
   </g>
   <g id="text_6">
    <!-- 246 -->
    <g transform="translate(780.73875 21.6) scale(0.14 -0.14)">
     <use xlink:href="#DejaVuSans-32"/>
     <use xlink:href="#DejaVuSans-34" x="63.623047"/>
     <use xlink:href="#DejaVuSans-36" x="127.246094"/>
    </g>
   </g>
  </g>
  <g id="axes_7">
   <g id="patch_8">
    <path d="M 871.2 133.2 
L 1003.8 133.2 
L 1003.8 27.6 
L 871.2 27.6 
z
" style="fill: #ffffff"/>
   </g>
   <g id="matplotlib.axis_13"/>
   <g id="matplotlib.axis_14"/>
   <g id="line2d_7">
    <path d="M 908.726713 114.284095 
L 915.780068 114.236207 
L 921.735514 116.249214 
L 926.958317 116.392245 
L 932.066096 117.927518 
L 936.322839 118.155809 
L 943.728827 118.963169 
L 948.274277 115.452974 
L 953.693873 115.770145 
L 958.863678 113.749097 
L 965.491999 109.095717 
L 967.178785 103.495548 
L 965.965268 96.370357 
L 968.826971 90.666056 
L 962.36017 86.497508 
L 956.309409 86.642985 
L 951.365456 86.122609 
L 945.132848 85.684576 
L 940.299837 86.611004 
L 936.619366 83.378202 
L 934.267444 76.629344 
L 927.071924 74.315429 
L 923.057415 77.688988 
L 921.577644 86.040333 
L 919.074841 90.064933 
L 914.478172 89.192831 
L 908.836982 86.922627 
L 902.331692 86.355499 
L 896.14711 87.263325 
L 891.416725 89.287092 
L 888.751434 90.241624 
L 883.075412 89.26996 
L 877.754954 89.310261 
L 877.227273 88.694388 
L 882.547731 88.654087 
L 888.795921 88.624733 
L 893.206266 84.143083 
L 897.545331 77.361278 
L 895.707922 72.194156 
L 890.847245 67.396027 
L 877.969973 63.066485 
L 878.116277 61.485665 
L 882.275032 63.268952 
L 894.370839 67.856528 
L 901.12099 66.244059 
L 906.402522 64.045727 
L 905.220837 59.164898 
L 908.05139 53.843587 
L 910.695196 48.880937 
L 914.349104 46.078782 
L 914.457907 40.195387 
L 914.531247 35.206111 
L 913.402615 32.4 
L 918.857593 33.299794 
L 927.200506 35.991282 
L 932.049786 38.149689 
L 935.618703 41.291706 
L 942.345389 41.394578 
L 941.850563 37.804413 
L 935.441427 33.827802 
L 948.874342 35.353802 
L 960.232431 32.807369 
L 963.761654 35.415439 
L 966.695042 38.233206 
L 973.573272 43.138562 
L 978.890568 47.371665 
L 983.5958 50.95253 
L 987.862026 58.992171 
L 993.524855 64.166837 
L 997.772727 67.162127 
L 994.301982 70.431779 
L 991.022434 74.965153 
L 991.162851 80.38074 
L 993.570972 84.006013 
L 989.163628 84.944762 
L 988.430184 88.398448 
L 987.143933 93.603756 
L 980.370316 97.394017 
L 979.775665 102.29093 
L 975.270532 102.666822 
L 972.221057 107.011712 
L 970.264548 110.327269 
L 969.540607 116.042894 
L 967.010218 116.938933 
L 958.656836 118.964606 
L 956.285854 123.877618 
L 950.075978 123.258957 
L 944.088979 124.104202 
L 937.465303 124.10008 
L 932.587194 127.536967 
L 923.889348 128.4 
L 926.238117 125.175663 
L 920.486398 118.983375 
L 909.416561 118.879276 
L 899.160613 117.182593 
L 890.265514 112.574478 
L 887.862476 109.588702 
L 891.520631 107.752155 
L 894.650183 111.264543 
L 901.765981 114.807131 
" clip-path="url(#p85cbbe39c7)" style="fill: none; stroke: #2ca02c; stroke-width: 1.5; stroke-linecap: square"/>
   </g>
   <g id="text_7">
    <!-- 287 -->
    <g transform="translate(924.13875 21.6) scale(0.14 -0.14)">
     <defs>
      <path id="DejaVuSans-38" d="M 2034 2216 
Q 1584 2216 1326 1975 
Q 1069 1734 1069 1313 
Q 1069 891 1326 650 
Q 1584 409 2034 409 
Q 2484 409 2743 651 
Q 3003 894 3003 1313 
Q 3003 1734 2745 1975 
Q 2488 2216 2034 2216 
z
M 1403 2484 
Q 997 2584 770 2862 
Q 544 3141 544 3541 
Q 544 4100 942 4425 
Q 1341 4750 2034 4750 
Q 2731 4750 3128 4425 
Q 3525 4100 3525 3541 
Q 3525 3141 3298 2862 
Q 3072 2584 2669 2484 
Q 3125 2378 3379 2068 
Q 3634 1759 3634 1313 
Q 3634 634 3220 271 
Q 2806 -91 2034 -91 
Q 1263 -91 848 271 
Q 434 634 434 1313 
Q 434 1759 690 2068 
Q 947 2378 1403 2484 
z
M 1172 3481 
Q 1172 3119 1398 2916 
Q 1625 2713 2034 2713 
Q 2441 2713 2670 2916 
Q 2900 3119 2900 3481 
Q 2900 3844 2670 4047 
Q 2441 4250 2034 4250 
Q 1625 4250 1398 4047 
Q 1172 3844 1172 3481 
z
" transform="scale(0.015625)"/>
     </defs>
     <use xlink:href="#DejaVuSans-32"/>
     <use xlink:href="#DejaVuSans-38" x="63.623047"/>
     <use xlink:href="#DejaVuSans-37" x="127.246094"/>
    </g>
   </g>
  </g>
  <g id="axes_8">
   <g id="patch_9">
    <path d="M 1014.6 133.2 
L 1147.2 133.2 
L 1147.2 27.6 
L 1014.6 27.6 
z
" style="fill: #ffffff"/>
   </g>
   <g id="matplotlib.axis_15"/>
   <g id="matplotlib.axis_16"/>
   <g id="line2d_8">
    <path d="M 1095.398379 127.809329 
L 1088.557032 126.408271 
L 1081.372818 125.353286 
L 1075.36522 128.4 
L 1065.715992 126.129289 
L 1058.737064 124.780476 
L 1052.322345 119.395661 
L 1041.843253 114.060311 
L 1039.957928 108.793439 
L 1040.039448 104.72483 
L 1036.03604 98.657527 
L 1036.433691 94.033808 
L 1038.06899 90.42635 
L 1039.89794 95.572832 
L 1046.550812 101.342926 
L 1053.430545 106.516243 
L 1062.17303 107.171234 
L 1067.614196 103.525996 
L 1062.225212 100.639348 
L 1057.124766 98.993104 
L 1053.387817 97.264035 
L 1048.148599 95.472408 
L 1056.925796 96.758024 
L 1062.88773 98.711785 
L 1069.888167 99.207066 
L 1076.738598 93.02726 
L 1079.533716 86.483006 
L 1082.381596 80.913872 
L 1083.002881 76.165985 
L 1083.923602 71.438313 
L 1080.058495 57.319589 
L 1077.760449 53.346182 
L 1072.091753 48.186607 
L 1059.704688 48.645764 
L 1053.415261 49.918158 
L 1047.101995 52.785559 
L 1043.281736 55.827741 
L 1040.84837 60.641124 
L 1036.903748 64.737156 
L 1037.640214 66.448258 
L 1032.657683 68.518128 
L 1020.627273 67.009651 
L 1027.841671 63.354585 
L 1032.676803 57.621671 
L 1036.940736 52.601532 
L 1040.989591 49.225024 
L 1048.680408 45.925978 
L 1053.385628 44.080278 
L 1052.40526 41.235413 
L 1055.679566 38.506134 
L 1061.339394 36.773458 
L 1065.573859 33.804585 
L 1071.620229 39.799297 
L 1077.951799 41.133542 
L 1084.429298 36.253129 
L 1087.389947 33.026615 
L 1097.296559 32.4 
L 1106.496235 39.174343 
L 1109.256515 42.923108 
L 1114.33093 41.322553 
L 1122.239802 42.180347 
L 1128.471829 45.515782 
L 1132.522125 48.295864 
L 1134.698622 53.232633 
L 1139.434189 57.150381 
L 1141.172727 61.953937 
L 1138.452653 66.236276 
L 1134.630811 68.601493 
L 1130.052561 75.093382 
L 1126.371055 72.079107 
L 1125.697409 66.683533 
L 1116.943012 61.950394 
L 1108.097448 62.600065 
L 1100.636293 67.417302 
L 1095.374974 71.204223 
L 1091.489809 76.706561 
L 1087.237584 83.084437 
L 1084.089845 91.978754 
L 1082.074268 99.181264 
L 1082.223494 102.795856 
L 1083.815854 107.855107 
L 1090.757931 112.517713 
L 1101.283367 114.604687 
L 1106.908406 112.827569 
L 1113.580085 108.633881 
L 1117.18565 104.372471 
L 1118.261918 100.626858 
L 1115.535767 96.307186 
L 1121.573052 93.447057 
L 1127.471366 95.645898 
L 1129.270835 101.603271 
L 1131.935003 104.156982 
L 1133.169534 106.678971 
L 1135.173032 109.767793 
L 1135.23036 114.635985 
L 1130.151466 118.8206 
L 1120.653181 121.288367 
L 1117.815996 123.674725 
L 1112.185887 124.73255 
L 1103.383935 127.357447 
" clip-path="url(#pa9af534de4)" style="fill: none; stroke: #2ca02c; stroke-width: 1.5; stroke-linecap: square"/>
   </g>
   <g id="text_8">
    <!-- 288 -->
    <g transform="translate(1067.53875 21.6) scale(0.14 -0.14)">
     <use xlink:href="#DejaVuSans-32"/>
     <use xlink:href="#DejaVuSans-38" x="63.623047"/>
     <use xlink:href="#DejaVuSans-38" x="127.246094"/>
    </g>
   </g>
  </g>
  <g id="axes_9">
   <g id="patch_10">
    <path d="M 1158 133.2 
L 1290.6 133.2 
L 1290.6 27.6 
L 1158 27.6 
z
" style="fill: #ffffff"/>
   </g>
   <g id="matplotlib.axis_17"/>
   <g id="matplotlib.axis_18"/>
   <g id="line2d_9">
    <path d="M 1216.794336 127.338355 
L 1221.865253 123.659183 
L 1226.069509 119.512256 
L 1230.588769 117.022429 
L 1235.424074 113.804071 
L 1239.893597 112.487652 
L 1245.584227 110.698062 
L 1245.188931 109.145646 
L 1246.901972 107.898567 
L 1250.403121 106.999967 
L 1256.627965 104.218131 
L 1263.298323 101.904071 
L 1264.033426 100.129079 
L 1265.582688 97.176018 
L 1261.831628 93.422749 
L 1256.475133 88.394822 
L 1251.943901 87.648024 
L 1252.186597 84.849408 
L 1248.033923 79.244121 
L 1243.941888 76.102353 
L 1237.134523 72.935358 
L 1230.552636 70.697892 
L 1217.726639 66.67411 
L 1206.388515 64.834394 
L 1202.166261 64.704216 
L 1197.359766 64.201294 
L 1187.173704 62.187729 
L 1172.427469 62.733841 
L 1171.756059 68.058059 
L 1174.752152 72.346911 
L 1173.497398 75.791919 
L 1169.655825 78.659974 
L 1167.18344 85.323111 
L 1164.354316 81.539345 
L 1164.659865 76.847865 
L 1167.046614 73.999663 
L 1166.943656 68.914804 
L 1166.788031 65.325084 
L 1164.027273 59.469235 
L 1171.617337 57.510463 
L 1175.639173 52.556246 
L 1177.359401 46.546505 
L 1173.050302 39.712381 
L 1170.006897 38.033412 
L 1166.994101 35.852715 
L 1166.078081 32.4 
L 1170.048572 34.333544 
L 1176.377781 36.764612 
L 1181.104246 32.798995 
L 1194.196222 34.892308 
L 1200.900996 34.357134 
L 1207.840161 36.902437 
L 1205.829319 39.298034 
L 1197.790313 39.891088 
L 1195.388975 45.039482 
L 1204.4147 47.564851 
L 1214.94211 51.342295 
L 1218.368624 53.485371 
L 1222.535984 56.350884 
L 1231.011072 59.527015 
L 1237.393683 62.373957 
L 1248.545542 64.819805 
L 1253.064924 64.730095 
L 1258.165729 63.324836 
L 1261.946828 63.371337 
L 1267.995626 64.768532 
L 1263.656022 66.377371 
L 1265.637106 70.780016 
L 1270.289472 71.075769 
L 1275.976805 73.050234 
L 1280.528284 71.870688 
L 1284.572727 69.844161 
L 1280.901062 73.749921 
L 1275.490131 81.057817 
L 1273.515519 84.041645 
L 1273.12093 87.101688 
L 1276.421234 92.665216 
L 1276.652085 95.563851 
L 1276.137676 99.642534 
L 1276.259296 104.95965 
L 1267.21468 107.90618 
L 1260.893646 107.562016 
L 1251.919403 111.907758 
L 1246.920243 113.143577 
L 1242.727247 116.630757 
L 1238.07944 117.825275 
L 1228.635886 120.331527 
L 1223.863723 124.032377 
L 1220.024543 128.060386 
L 1214.594216 128.4 
L 1208.691226 127.547927 
L 1208.754678 121.610187 
L 1212.102859 111.861585 
L 1209.720287 108.145318 
L 1205.780133 106.589154 
L 1211.816274 107.525386 
L 1214.51828 111.134529 
L 1213.764176 117.966609 
L 1211.206678 122.854056 
L 1211.526076 127.29538 
" clip-path="url(#pf9e5ffeab8)" style="fill: none; stroke: #2ca02c; stroke-width: 1.5; stroke-linecap: square"/>
   </g>
   <g id="text_9">
    <!-- 297 -->
    <g transform="translate(1210.93875 21.6) scale(0.14 -0.14)">
     <defs>
      <path id="DejaVuSans-39" d="M 703 97 
L 703 672 
Q 941 559 1184 500 
Q 1428 441 1663 441 
Q 2288 441 2617 861 
Q 2947 1281 2994 2138 
Q 2813 1869 2534 1725 
Q 2256 1581 1919 1581 
Q 1219 1581 811 2004 
Q 403 2428 403 3163 
Q 403 3881 828 4315 
Q 1253 4750 1959 4750 
Q 2769 4750 3195 4129 
Q 3622 3509 3622 2328 
Q 3622 1225 3098 567 
Q 2575 -91 1691 -91 
Q 1453 -91 1209 -44 
Q 966 3 703 97 
z
M 1959 2075 
Q 2384 2075 2632 2365 
Q 2881 2656 2881 3163 
Q 2881 3666 2632 3958 
Q 2384 4250 1959 4250 
Q 1534 4250 1286 3958 
Q 1038 3666 1038 3163 
Q 1038 2656 1286 2365 
Q 1534 2075 1959 2075 
z
" transform="scale(0.015625)"/>
     </defs>
     <use xlink:href="#DejaVuSans-32"/>
     <use xlink:href="#DejaVuSans-39" x="63.623047"/>
     <use xlink:href="#DejaVuSans-37" x="127.246094"/>
    </g>
   </g>
  </g>
  <g id="axes_10">
   <g id="patch_11">
    <path d="M 1301.4 133.2 
L 1434 133.2 
L 1434 27.6 
L 1301.4 27.6 
z
" style="fill: #ffffff"/>
   </g>
   <g id="matplotlib.axis_19"/>
   <g id="matplotlib.axis_20"/>
   <g id="line2d_10">
    <path d="M 1355.017925 122.183595 
L 1360.307975 122.233267 
L 1363.893171 123.286653 
L 1370.265958 122.596498 
L 1375.115319 122.833096 
L 1382.324775 119.843868 
L 1386.498432 115.208885 
L 1389.702052 112.540716 
L 1393.873754 110.736685 
L 1399.907608 107.434003 
L 1402.4338 103.739028 
L 1404.496827 99.846778 
L 1403.746163 94.755969 
L 1402.057987 89.81674 
L 1390.077411 85.330442 
L 1381.910081 86.501269 
L 1376.393444 86.22286 
L 1368.282305 87.615949 
L 1370.583503 83.957352 
L 1374.68931 79.326539 
L 1369.989241 77.732144 
L 1364.964505 77.387805 
L 1364.64743 75.533844 
L 1369.869208 73.328676 
L 1374.186001 71.399135 
L 1380.282507 70.624364 
L 1387.649097 65.895005 
L 1390.608356 61.469993 
L 1390.481655 57.394211 
L 1385.643715 52.038859 
L 1377.608278 49.166953 
L 1372.953153 46.633091 
L 1365.070842 46.20643 
L 1355.440228 46.511536 
L 1348.648169 47.827447 
L 1345.250977 52.418517 
L 1348.890638 55.831039 
L 1345.221465 55.226702 
L 1338.621519 52.183958 
L 1333.739026 51.966318 
L 1323.105265 50.610039 
L 1318.087421 53.122445 
L 1312.708713 56.373638 
L 1307.427273 58.983099 
L 1313.608094 51.016054 
L 1313.240339 48.898095 
L 1317.168757 45.513947 
L 1316.928358 41.742353 
L 1323.563756 34.960608 
L 1330.06768 32.772705 
L 1332.268835 35.363114 
L 1336.659527 37.123214 
L 1340.471426 39.881872 
L 1347.448139 40.727146 
L 1355.330314 39.677263 
L 1365.030187 38.387934 
L 1368.750925 37.956462 
L 1373.049308 38.520303 
L 1376.814236 32.4 
L 1382.668654 35.345558 
L 1383.043073 41.014342 
L 1390.170438 43.168895 
L 1396.454073 41.812713 
L 1400.374862 45.642475 
L 1403.372047 47.34892 
L 1399.946642 50.352323 
L 1406.757991 52.768916 
L 1410.721876 50.733114 
L 1415.263444 49.461263 
L 1416.147765 55.666796 
L 1420.398076 56.639867 
L 1423.782421 58.147598 
L 1424.12022 60.814755 
L 1421.005188 65.999841 
L 1419.110826 70.096189 
L 1417.623967 76.195175 
L 1418.001782 81.468753 
L 1422.565753 84.690982 
L 1424.753523 89.644696 
L 1426.533062 91.493568 
L 1427.344089 93.866455 
L 1427.972727 97.616112 
L 1423.143906 95.008261 
L 1417.927594 101.050222 
L 1417.126159 103.452471 
L 1408.536839 110.624971 
L 1400.659744 114.960553 
L 1393.694894 118.781206 
L 1388.03155 124.180979 
L 1375.84949 127.817699 
L 1365.809056 128.4 
L 1361.839488 127.293077 
L 1352.788208 128.395889 
L 1352.02128 124.212697 
L 1348.095618 121.989563 
L 1342.214277 120.586161 
L 1336.960067 120.496659 
L 1332.305259 118.74526 
L 1341.098952 117.786147 
L 1349.437229 120.357328 
" clip-path="url(#pfefec7c36f)" style="fill: none; stroke: #2ca02c; stroke-width: 1.5; stroke-linecap: square"/>
   </g>
   <g id="text_10">
    <!-- 300 -->
    <g transform="translate(1354.33875 21.6) scale(0.14 -0.14)">
     <defs>
      <path id="DejaVuSans-33" d="M 2597 2516 
Q 3050 2419 3304 2112 
Q 3559 1806 3559 1356 
Q 3559 666 3084 287 
Q 2609 -91 1734 -91 
Q 1441 -91 1130 -33 
Q 819 25 488 141 
L 488 750 
Q 750 597 1062 519 
Q 1375 441 1716 441 
Q 2309 441 2620 675 
Q 2931 909 2931 1356 
Q 2931 1769 2642 2001 
Q 2353 2234 1838 2234 
L 1294 2234 
L 1294 2753 
L 1863 2753 
Q 2328 2753 2575 2939 
Q 2822 3125 2822 3475 
Q 2822 3834 2567 4026 
Q 2313 4219 1838 4219 
Q 1578 4219 1281 4162 
Q 984 4106 628 3988 
L 628 4550 
Q 988 4650 1302 4700 
Q 1616 4750 1894 4750 
Q 2613 4750 3031 4423 
Q 3450 4097 3450 3541 
Q 3450 3153 3228 2886 
Q 3006 2619 2597 2516 
z
" transform="scale(0.015625)"/>
      <path id="DejaVuSans-30" d="M 2034 4250 
Q 1547 4250 1301 3770 
Q 1056 3291 1056 2328 
Q 1056 1369 1301 889 
Q 1547 409 2034 409 
Q 2525 409 2770 889 
Q 3016 1369 3016 2328 
Q 3016 3291 2770 3770 
Q 2525 4250 2034 4250 
z
M 2034 4750 
Q 2819 4750 3233 4129 
Q 3647 3509 3647 2328 
Q 3647 1150 3233 529 
Q 2819 -91 2034 -91 
Q 1250 -91 836 529 
Q 422 1150 422 2328 
Q 422 3509 836 4129 
Q 1250 4750 2034 4750 
z
" transform="scale(0.015625)"/>
     </defs>
     <use xlink:href="#DejaVuSans-33"/>
     <use xlink:href="#DejaVuSans-30" x="63.623047"/>
     <use xlink:href="#DejaVuSans-30" x="127.246094"/>
    </g>
   </g>
  </g>
  <g id="axes_11">
   <g id="patch_12">
    <path d="M 1444.8 133.2 
L 1577.4 133.2 
L 1577.4 27.6 
L 1444.8 27.6 
z
" style="fill: #ffffff"/>
   </g>
   <g id="matplotlib.axis_21"/>
   <g id="matplotlib.axis_22"/>
   <g id="line2d_11">
    <path d="M 1478.513554 128.148642 
L 1477.197662 125.279874 
L 1475.722807 124.078281 
L 1486.513118 123.629326 
L 1491.495537 121.954633 
L 1500.36163 120.39741 
L 1513.212495 111.085843 
L 1516.188149 108.025166 
L 1517.915684 104.457126 
L 1519.039931 97.015942 
L 1516.336514 94.982808 
L 1515.122004 91.820612 
L 1510.080015 86.642492 
L 1506.028466 84.920118 
L 1504.451639 83.795849 
L 1501.174585 81.269705 
L 1497.558953 82.000755 
L 1496.266073 80.073444 
L 1493.17519 78.365036 
L 1489.171448 79.173855 
L 1477.040379 75.133466 
L 1471.341382 76.361661 
L 1467.656308 81.599687 
L 1467.440034 84.733223 
L 1463.507756 89.261648 
L 1461.553923 92.289847 
L 1460.260606 97.693931 
L 1457.693629 93.237359 
L 1455.649212 85.538733 
L 1452.838907 81.792525 
L 1453.853079 78.951007 
L 1453.171152 76.220157 
L 1450.827273 71.130418 
L 1454.825133 60.675041 
L 1457.395058 58.726304 
L 1459.409419 55.404764 
L 1463.492304 53.638879 
L 1465.752253 50.440412 
L 1472.299469 45.475754 
L 1477.212868 40.976677 
L 1480.818391 36.541352 
L 1488.351123 33.211224 
L 1496.672724 34.355849 
L 1503.820854 32.4 
L 1505.193721 33.678929 
L 1497.794091 40.836597 
L 1493.739424 45.457827 
L 1491.076609 50.817741 
L 1493.127023 53.222326 
L 1499.365074 54.802381 
L 1505.901171 53.248749 
L 1502.555571 55.569141 
L 1502.910407 58.269612 
L 1508.816075 57.874548 
L 1512.614577 56.757364 
L 1519.500509 56.082976 
L 1517.977808 52.319327 
L 1514.088606 50.164548 
L 1516.735822 46.579628 
L 1518.424508 43.752485 
L 1522.120448 42.496544 
L 1524.853731 40.48579 
L 1528.028376 42.93494 
L 1531.241731 44.581441 
L 1537.438913 46.161548 
L 1545.737586 46.395591 
L 1552.874343 47.758142 
L 1556.35234 49.018357 
L 1562.613151 51.44729 
L 1562.634293 59.195354 
L 1563.664386 62.188045 
L 1565.47098 65.117778 
L 1564.535347 66.786161 
L 1566.461956 68.758776 
L 1567.490754 71.28843 
L 1569.824977 72.828247 
L 1569.319871 74.974449 
L 1571.372727 78.274211 
L 1568.985857 79.898551 
L 1562.182929 81.035849 
L 1565.771827 85.490854 
L 1563.900845 88.920201 
L 1565.261666 93.27062 
L 1567.846921 96.93999 
L 1569.898851 99.900239 
L 1565.82321 104.320823 
L 1561.662459 107.506822 
L 1555.941292 108.10222 
L 1552.734844 108.986987 
L 1549.528411 109.871742 
L 1545.400359 110.063384 
L 1539.810341 113.776363 
L 1534.183564 119.001972 
L 1532.583288 124.267618 
L 1527.232456 125.757654 
L 1520.701008 121.523333 
L 1515.533246 122.688962 
L 1510.621448 127.774554 
L 1505.142599 127.289177 
L 1495.519089 128.4 
" clip-path="url(#p178c79ab6e)" style="fill: none; stroke: #2ca02c; stroke-width: 1.5; stroke-linecap: square"/>
   </g>
   <g id="text_11">
    <!-- 381 -->
    <g transform="translate(1497.73875 21.6) scale(0.14 -0.14)">
     <use xlink:href="#DejaVuSans-33"/>
     <use xlink:href="#DejaVuSans-38" x="63.623047"/>
     <use xlink:href="#DejaVuSans-31" x="127.246094"/>
    </g>
   </g>
  </g>
  <g id="axes_12">
   <g id="patch_13">
    <path d="M 1588.2 133.2 
L 1720.8 133.2 
L 1720.8 27.6 
L 1588.2 27.6 
z
" style="fill: #ffffff"/>
   </g>
   <g id="matplotlib.axis_23"/>
   <g id="matplotlib.axis_24"/>
   <g id="line2d_12">
    <path d="M 1634.156689 113.843895 
L 1638.637305 115.731771 
L 1641.502314 118.626764 
L 1645.92812 121.735615 
L 1657.321651 122.928763 
L 1663.269067 120.682692 
L 1669.711196 117.904577 
L 1677.276759 111.992591 
L 1680.683798 108.760092 
L 1686.538589 106.447619 
L 1689.670521 103.909382 
L 1694.521838 99.322821 
L 1692.105607 91.927868 
L 1682.065641 88.349394 
L 1673.780925 87.033346 
L 1663.291998 86.460992 
L 1656.128579 89.716028 
L 1652.518716 92.901066 
L 1644.162371 94.749746 
L 1639.039191 93.619312 
L 1635.262013 89.846071 
L 1628.544846 89.201483 
L 1627.106663 86.531648 
L 1625.258626 82.708959 
L 1621.200676 80.466098 
L 1626.445047 78.976121 
L 1636.319963 81.736061 
L 1644.089371 83.340687 
L 1652.162848 82.493437 
L 1660.065703 75.488334 
L 1659.327015 69.310532 
L 1656.85973 65.323793 
L 1658.48839 60.185722 
L 1655.453538 55.04973 
L 1651.642991 52.540847 
L 1641.083927 49.122194 
L 1636.860531 47.190095 
L 1629.148852 46.751805 
L 1619.677536 43.55781 
L 1614.107089 42.97481 
L 1607.07074 42.208676 
L 1603.684773 38.379917 
L 1603.163429 32.4 
L 1607.903819 33.643312 
L 1611.268388 35.370221 
L 1616.31532 39.736742 
L 1624.587014 41.066794 
L 1631.437737 40.770907 
L 1598.118091 90.31682 
L 1601.602563 92.81122 
L 1606.310122 99.800365 
L 1612.839359 103.535585 
L 1614.905993 106.226741 
L 1610.698154 103.680318 
L 1602.254072 100.709596 
L 1594.310388 96.370691 
L 1594.227273 93.538425 
L 1596.397893 90.506771 
L 1639.90324 41.726511 
L 1644.148882 45.560349 
L 1649.613083 47.784882 
L 1654.178994 48.917042 
L 1661.544203 48.532708 
L 1667.956045 50.900096 
L 1664.799731 55.124605 
L 1665.362458 58.968338 
L 1668.750087 64.455359 
L 1676.29018 69.228308 
L 1686.091169 71.071713 
L 1691.85507 68.292603 
L 1698.952912 72.412301 
L 1705.687725 75.029993 
L 1710.942801 75.620183 
L 1708.606705 76.90411 
L 1704.514699 81.736495 
L 1705.594403 86.949928 
L 1709.468988 92.212046 
L 1712.550068 94.575842 
L 1714.772727 97.663634 
L 1712.21364 99.5858 
L 1702.700718 99.092616 
L 1696.353905 104.889125 
L 1692.872559 106.275899 
L 1689.376093 109.206177 
L 1684.468736 112.226165 
L 1678.305667 115.93261 
L 1674.546291 117.684784 
L 1670.529047 121.175137 
L 1662.478041 123.359472 
L 1656.104981 125.631678 
L 1650.814211 128.4 
L 1645.987105 125.689522 
L 1640.083831 122.575942 
L 1636.646825 120.09691 
L 1627.452685 118.796102 
L 1628.075088 116.665882 
L 1625.040609 114.517558 
L 1621.939404 110.780996 
L 1619.048136 108.478655 
L 1627.549971 110.557241 
" clip-path="url(#p15004f608d)" style="fill: none; stroke: #2ca02c; stroke-width: 1.5; stroke-linecap: square"/>
   </g>
   <g id="text_12">
    <!-- 384 -->
    <g transform="translate(1641.13875 21.6) scale(0.14 -0.14)">
     <use xlink:href="#DejaVuSans-33"/>
     <use xlink:href="#DejaVuSans-38" x="63.623047"/>
     <use xlink:href="#DejaVuSans-34" x="127.246094"/>
    </g>
   </g>
  </g>
  <g id="axes_13">
   <g id="patch_14">
    <path d="M 1731.6 133.2 
L 1864.2 133.2 
L 1864.2 27.6 
L 1731.6 27.6 
z
" style="fill: #ffffff"/>
   </g>
   <g id="matplotlib.axis_25"/>
   <g id="matplotlib.axis_26"/>
   <g id="line2d_13">
    <path d="M 1814.289701 119.440388 
L 1806.804147 118.986329 
L 1802.558078 119.613416 
L 1800.515311 121.551114 
L 1795.454942 122.479207 
L 1793.873718 125.725031 
L 1792.063011 128.4 
L 1792.729964 126.340419 
L 1791.891594 121.043551 
L 1792.675224 117.751343 
L 1793.561637 109.953679 
L 1791.591428 104.189706 
L 1789.572087 100.848759 
L 1788.388999 97.389565 
L 1786.153187 93.045142 
L 1775.734921 92.482531 
L 1772.365841 93.994927 
L 1769.278987 96.927557 
L 1768.475269 99.282856 
L 1767.35033 96.603635 
L 1763.632688 94.693241 
L 1763.528792 93.50514 
L 1770.43502 90.711996 
L 1777.891514 84.570068 
L 1779.16679 81.469475 
L 1777.899917 77.824837 
L 1776.527689 74.272302 
L 1773.113015 68.93658 
L 1768.468487 65.852469 
L 1761.674205 63.424984 
L 1753.905103 63.890709 
L 1749.54387 65.332774 
L 1742.462215 68.58629 
L 1737.627273 71.133253 
L 1737.742162 69.12696 
L 1742.130488 61.628973 
L 1744.945881 56.274824 
L 1745.56337 53.656134 
L 1751.37339 53.522692 
L 1754.701358 50.480686 
L 1758.333148 48.515583 
L 1760.573799 47.023598 
L 1763.949142 43.241019 
L 1765.386208 40.982957 
L 1772.660067 41.168631 
L 1774.563087 36.246578 
L 1777.681619 32.708081 
L 1781.437621 32.4 
L 1784.015692 36.531156 
L 1789.287993 36.997002 
L 1790.92789 37.776342 
L 1784.871033 41.809429 
L 1786.955224 48.498919 
L 1791.599597 52.182539 
L 1795.767317 54.68501 
L 1800.055184 55.645568 
L 1806.383885 57.081909 
L 1809.528069 57.992595 
L 1816.688684 58.304849 
L 1821.69331 57.362722 
L 1825.257251 53.812711 
L 1833.308539 50.520268 
L 1838.727925 50.75658 
L 1835.184928 55.630325 
L 1831.734479 56.926445 
L 1832.974301 60.918021 
L 1836.433189 65.35446 
L 1842.605609 66.01041 
L 1848.459154 66.578964 
L 1853.620416 66.877535 
L 1858.172727 69.021592 
L 1848.687413 68.758794 
L 1848.661196 71.882905 
L 1852.808057 76.511801 
L 1855.211814 77.571977 
L 1850.970567 78.203169 
L 1845.604479 75.424097 
L 1839.987545 74.405582 
L 1833.901931 82.193124 
L 1831.838291 82.141828 
L 1824.596068 78.762648 
L 1817.949749 78.086033 
L 1809.967923 83.539789 
L 1801.799374 83.957158 
L 1798.289486 84.357205 
L 1794.182823 87.508377 
L 1793.257378 91.625993 
L 1794.100869 94.799621 
L 1795.424047 98.384838 
L 1796.692707 102.006336 
L 1797.536277 104.448955 
L 1798.319807 107.66251 
L 1802.019654 112.589082 
L 1808.258292 115.18186 
L 1819.251634 115.661248 
L 1825.936513 115.179181 
L 1830.956252 113.379055 
L 1829.134004 116.865767 
L 1824.007551 118.576157 
L 1818.516021 118.336687 
" clip-path="url(#p944e191fa6)" style="fill: none; stroke: #2ca02c; stroke-width: 1.5; stroke-linecap: square"/>
   </g>
   <g id="text_13">
    <!-- 393 -->
    <g transform="translate(1784.53875 21.6) scale(0.14 -0.14)">
     <use xlink:href="#DejaVuSans-33"/>
     <use xlink:href="#DejaVuSans-39" x="63.623047"/>
     <use xlink:href="#DejaVuSans-33" x="127.246094"/>
    </g>
   </g>
  </g>
  <g id="axes_14">
   <g id="patch_15">
    <path d="M 1875 133.2 
L 2007.6 133.2 
L 2007.6 27.6 
L 1875 27.6 
z
" style="fill: #ffffff"/>
   </g>
   <g id="matplotlib.axis_27"/>
   <g id="matplotlib.axis_28"/>
   <g id="line2d_14">
    <path d="M 1909.228892 119.732369 
L 1906.192755 115.758568 
L 1904.800531 111.870337 
L 1911.413913 113.073794 
L 1916.060096 116.024711 
L 1924.527383 116.169334 
L 1934.726744 112.819 
L 1941.168562 107.203172 
L 1942.824749 101.403249 
L 1940.945865 96.298036 
L 1939.485904 92.647017 
L 1935.83295 88.204179 
L 1932.206038 85.773361 
L 1928.18828 82.549667 
L 1928.260464 79.375627 
L 1931.603539 76.432034 
L 1935.448822 72.898295 
L 1936.456266 65.397213 
L 1932.255192 60.595304 
L 1928.465781 57.915782 
L 1921.27525 56.162768 
L 1915.364803 56.470693 
L 1906.28735 59.923484 
L 1901.370432 65.457377 
L 1903.096902 71.09634 
L 1904.596452 77.529973 
L 1904.960122 82.098918 
L 1900.567112 88.310337 
L 1900.04548 93.000027 
L 1896.957797 97.210942 
L 1887.410574 101.023492 
L 1882.119878 99.569907 
L 1882.717976 95.722704 
L 1884.965817 90.772082 
L 1886.450224 85.924268 
L 1886.436888 79.018374 
L 1881.027273 75.352218 
L 1882.338902 72.336342 
L 1884.58139 68.748307 
L 1887.07203 65.868664 
L 1886.344529 62.457059 
L 1891.492127 59.153369 
L 1889.530059 53.638391 
L 1890.33614 50.815519 
L 1894.772546 49.184544 
L 1900.176436 49.131459 
L 1908.371923 46.196575 
L 1912.029502 42.385345 
L 1917.117994 42.443649 
L 1918.005357 39.33613 
L 1922.565596 37.154531 
L 1929.513805 37.010166 
L 1932.524966 35.228925 
L 1935.651803 32.4 
L 1940.094296 35.479949 
L 1938.115033 39.022699 
L 1946.668839 41.2013 
L 1945.415484 36.826755 
L 1946.116562 34.3716 
L 1949.793884 32.769716 
L 1955.859996 36.82443 
L 1960.316489 42.484642 
L 1966.900842 43.497613 
L 1971.46603 38.552789 
L 1976.503293 36.979331 
L 1978.622618 41.651458 
L 1984.031782 44.734995 
L 1985.594726 50.187068 
L 1990.731054 52.707052 
L 1993.560175 55.185636 
L 1989.846497 58.492249 
L 1982.89427 64.201138 
L 1981.168011 67.734212 
L 1989.480268 74.088894 
L 1997.774327 75.482837 
L 2001.098348 78.039459 
L 2001.572727 85.550975 
L 1998.277096 87.510475 
L 1991.970358 89.615129 
L 1984.953035 88.248848 
L 1983.713215 83.826904 
L 1974.161461 78.132097 
L 1968.72939 80.796016 
L 1966.87684 84.420733 
L 1963.40276 84.49292 
L 1960.098 83.972063 
L 1954.790211 88.713077 
L 1952.497287 96.742832 
L 1955.618102 100.420096 
L 1955.320427 104.909602 
L 1949.844296 108.954784 
L 1949.375852 113.516516 
L 1946.598813 116.698049 
L 1937.605129 117.462032 
L 1929.467725 120.368869 
L 1925.461877 122.303204 
L 1924.160388 125.283477 
L 1923.487348 128.4 
L 1915.766714 122.894633 
L 1908.358465 122.780581 
" clip-path="url(#p74215d23f1)" style="fill: none; stroke: #2ca02c; stroke-width: 1.5; stroke-linecap: square"/>
   </g>
   <g id="text_14">
    <!-- 415 -->
    <g transform="translate(1927.93875 21.6) scale(0.14 -0.14)">
     <use xlink:href="#DejaVuSans-34"/>
     <use xlink:href="#DejaVuSans-31" x="63.623047"/>
     <use xlink:href="#DejaVuSans-35" x="127.246094"/>
    </g>
   </g>
  </g>
  <g id="axes_15">
   <g id="patch_16">
    <path d="M 2018.4 133.2 
L 2151 133.2 
L 2151 27.6 
L 2018.4 27.6 
z
" style="fill: #ffffff"/>
   </g>
   <g id="matplotlib.axis_29"/>
   <g id="matplotlib.axis_30"/>
   <g id="line2d_15">
    <path d="M 2053.220793 125.641545 
L 2047.819867 127.230552 
L 2040.276674 121.139974 
L 2048.40021 115.271449 
L 2057.343627 117.545069 
L 2061.560259 118.958111 
L 2066.641293 116.288193 
L 2062.652031 112.343987 
L 2053.42255 107.4843 
L 2048.479383 108.524655 
L 2044.81505 110.134273 
L 2041.658602 110.96949 
L 2038.340581 109.211742 
L 2039.528457 105.059569 
L 2037.306775 96.997392 
L 2042.802104 95.482111 
L 2048.957604 90.99706 
L 2052.818332 88.840346 
L 2060.333726 89.715639 
L 2068.338203 88.858199 
L 2073.947728 86.874407 
L 2077.325178 85.119363 
L 2083.358398 84.76939 
L 2092.649958 84.849374 
L 2099.142406 81.767051 
L 2100.034829 77.241408 
L 2104.741135 77.17864 
L 2106.564155 74.341522 
L 2106.203172 68.319207 
L 2102.39495 66.028654 
L 2098.689675 61.616677 
L 2092.248895 57.577454 
L 2087.492366 54.771332 
L 2084.092448 50.931749 
L 2080.51296 50.792962 
L 2077.525517 51.914991 
L 2078.078675 50.342408 
L 2072.721868 43.484098 
L 2065.286928 42.028027 
L 2057.056314 43.507301 
L 2050.14637 44.693301 
L 2046.35252 46.548969 
L 2040.496734 49.299808 
L 2037.751207 51.493917 
L 2033.712466 53.684587 
L 2031.670549 55.917649 
L 2027.368616 57.204769 
L 2024.427273 57.376829 
L 2027.842553 54.303653 
L 2030.564516 51.787476 
L 2032.471379 46.010756 
L 2036.840951 43.867945 
L 2041.881928 40.273886 
L 2046.18384 38.986783 
L 2050.325757 39.112345 
L 2053.996535 39.254672 
L 2058.267903 38.596987 
L 2061.917813 37.284603 
L 2066.456764 36.36286 
L 2073.073104 35.977104 
L 2078.550911 32.4 
L 2080.500414 32.609873 
L 2084.650007 37.96163 
L 2088.915824 43.341236 
L 2091.385818 46.152128 
L 2093.312636 48.848552 
L 2097.543183 53.204969 
L 2102.740808 56.209201 
L 2107.099184 57.662771 
L 2112.102167 59.024548 
L 2114.824001 63.106428 
L 2121.10773 64.325185 
L 2125.332129 64.500649 
L 2128.083963 68.099064 
L 2133.902166 76.353255 
L 2137.496698 79.277814 
L 2140.311096 81.72253 
L 2144.6901 82.884951 
L 2144.972727 85.406665 
L 2140.695428 88.744211 
L 2135.76018 89.621383 
L 2130.781945 91.653031 
L 2128.23742 98.858946 
L 2125.273463 102.323324 
L 2122.650626 106.297228 
L 2122.41815 111.087841 
L 2116.914628 115.3296 
L 2117.80104 122.77364 
L 2110.659599 122.134731 
L 2105.7981 128.357429 
L 2097.408551 128.4 
L 2091.991161 124.809193 
L 2089.271683 121.755072 
L 2088.733738 117.629392 
L 2082.328906 115.676084 
L 2077.136857 114.306977 
L 2069.181687 117.513611 
L 2070.329601 121.049819 
L 2068.805065 126.216605 
L 2059.584263 127.63997 
" clip-path="url(#p43b776364c)" style="fill: none; stroke: #2ca02c; stroke-width: 1.5; stroke-linecap: square"/>
   </g>
   <g id="text_15">
    <!-- 436 -->
    <g transform="translate(2071.33875 21.6) scale(0.14 -0.14)">
     <use xlink:href="#DejaVuSans-34"/>
     <use xlink:href="#DejaVuSans-33" x="63.623047"/>
     <use xlink:href="#DejaVuSans-36" x="127.246094"/>
    </g>
   </g>
  </g>
  <g id="axes_16">
   <g id="patch_17">
    <path d="M 2161.8 133.2 
L 2294.4 133.2 
L 2294.4 27.6 
L 2161.8 27.6 
z
" style="fill: #ffffff"/>
   </g>
   <g id="matplotlib.axis_31"/>
   <g id="matplotlib.axis_32"/>
   <g id="line2d_16">
    <path d="M 2220.688876 114.035664 
L 2221.329067 111.096199 
L 2223.634397 110.02559 
L 2226.310585 111.572782 
L 2230.714001 113.750586 
L 2233.383394 115.446193 
L 2237.697094 114.029235 
L 2235.505613 107.468175 
L 2239.394072 111.074195 
L 2247.675899 110.932705 
L 2252.501412 110.875024 
L 2252.417252 108.831107 
L 2248.87673 106.871013 
L 2243.460161 102.570883 
L 2238.267711 101.879787 
L 2233.108947 101.216641 
L 2230.312446 102.120471 
L 2226.927578 101.978074 
L 2222.565752 103.309668 
L 2220.177562 104.939417 
L 2217.476879 107.040844 
L 2216.204033 112.868893 
L 2212.85287 112.754478 
L 2206.458915 115.770749 
L 2203.152418 116.891542 
L 2198.190127 117.155595 
L 2193.980647 112.336668 
L 2190.577784 112.16228 
L 2180.559073 104.721099 
L 2178.831825 102.196063 
L 2178.891029 98.159608 
L 2178.714094 95.308476 
L 2176.306027 93.692204 
L 2173.819095 92.096214 
L 2171.142888 90.548989 
L 2168.100443 88.350645 
L 2170.034289 82.156692 
L 2170.176513 79.198862 
L 2170.534933 76.625396 
L 2169.82216 72.372277 
L 2169.432056 69.013806 
L 2169.618278 64.785766 
L 2167.827273 57.6204 
L 2171.192324 54.516685 
L 2176.511134 48.465105 
L 2181.715966 45.999668 
L 2189.999159 46.310051 
L 2196.036151 39.865674 
L 2200.21499 37.566778 
L 2206.541272 37.159099 
L 2210.781086 32.4 
L 2214.202077 32.606422 
L 2217.586956 32.748741 
L 2222.169689 33.254736 
L 2225.557767 35.168578 
L 2229.104741 40.158194 
L 2229.795237 43.536997 
L 2237.439622 45.087547 
L 2240.926655 45.411383 
L 2245.720682 42.953987 
L 2251.080067 43.235414 
L 2254.098543 45.391145 
L 2258.24586 49.553792 
L 2268.678477 54.456075 
L 2274.19459 59.671674 
L 2275.696513 64.589296 
L 2276.68052 68.393603 
L 2280.289535 72.144988 
L 2285.69988 79.098976 
L 2285.719775 82.34503 
L 2282.412354 86.032786 
L 2284.884914 92.130299 
L 2288.372727 98.748533 
L 2287.498125 102.041682 
L 2287.256234 104.340735 
L 2282.083073 110.586983 
L 2278.820091 113.872161 
L 2271.626336 114.503338 
L 2261.59338 115.866017 
L 2251.627749 122.100335 
L 2247.007611 125.637412 
L 2243.631641 125.639387 
L 2229.205282 128.341795 
L 2225.820318 128.199423 
L 2220.248291 128.278343 
L 2211.901132 128.4 
L 2205.76683 123.209207 
L 2207.81419 121.166144 
L 2211.435588 123.65539 
L 2219.367831 126.74515 
L 2222.854864 127.068986 
L 2224.944923 125.198252 
L 2222.394931 123.618508 
L 2219.742645 122.370719 
L 2228.278011 120.978326 
L 2235.239922 119.710193 
L 2234.092742 116.546815 
L 2231.532194 114.884225 
L 2224.642298 114.386001 
L 2222.1985 116.237876 
" clip-path="url(#p405e1d45a9)" style="fill: none; stroke: #2ca02c; stroke-width: 1.5; stroke-linecap: square"/>
   </g>
   <g id="text_16">
    <!-- 478 -->
    <g transform="translate(2214.73875 21.6) scale(0.14 -0.14)">
     <use xlink:href="#DejaVuSans-34"/>
     <use xlink:href="#DejaVuSans-37" x="63.623047"/>
     <use xlink:href="#DejaVuSans-38" x="127.246094"/>
    </g>
   </g>
  </g>
  <g id="axes_17">
   <g id="patch_18">
    <path d="M 2305.2 133.2 
L 2437.8 133.2 
L 2437.8 27.6 
L 2305.2 27.6 
z
" style="fill: #ffffff"/>
   </g>
   <g id="matplotlib.axis_33"/>
   <g id="matplotlib.axis_34"/>
   <g id="line2d_17">
    <path d="M 2381.772635 107.674332 
L 2379.004013 112.815573 
L 2376.897762 116.398755 
L 2376.055817 119.945842 
L 2373.585609 124.189293 
L 2369.093938 127.703694 
L 2367.465687 128.4 
L 2367.591789 125.557425 
L 2367.611077 121.00763 
L 2363.968494 117.041201 
L 2363.529114 110.828443 
L 2364.00707 107.94161 
L 2366.972299 103.513047 
L 2367.814244 99.965959 
L 2366.646874 95.073768 
L 2363.399651 85.281206 
L 2362.637584 81.198418 
L 2360.480129 76.676494 
L 2361.113366 73.032739 
L 2360.518662 67.576946 
L 2362.219629 63.184434 
L 2361.350685 57.394395 
L 2361.292327 53.223089 
L 2359.862851 47.380656 
L 2356.846375 43.704157 
L 2359.763189 41.73973 
L 2365.994865 42.553903 
L 2368.571908 40.017652 
L 2372.393946 41.995123 
L 2373.56355 39.635834 
L 2377.577243 39.008288 
L 2382.580978 38.010423 
L 2373.910454 36.27388 
L 2368.603267 34.851831 
L 2359.544536 35.007621 
L 2353.157548 34.950354 
L 2344.098817 35.106144 
L 2335.32644 34.980112 
L 2328.170212 34.773784 
L 2322.343797 34.768962 
L 2317.119218 36.286155 
L 2311.227273 36.043755 
L 2311.860509 32.4 
L 2318.87356 32.747239 
L 2324.413642 33.033862 
L 2329.381098 33.884137 
L 2334.307209 33.264741 
L 2340.276779 33.128673 
L 2347.433008 33.335 
L 2352.555734 33.428318 
L 2357.183397 33.706791 
L 2361.316018 34.170397 
L 2371.495855 34.119446 
L 2380.411408 34.104567 
L 2389.052786 33.755472 
L 2395.439773 33.812739 
L 2400.627968 34.143606 
L 2410.468075 33.520881 
L 2402.923639 35.206887 
L 2392.874823 35.732944 
L 2386.59467 37.382877 
L 2385.908037 40.173058 
L 2387.803345 43.744689 
L 2395.197493 46.133351 
L 2396.061412 48.605629 
L 2400.456202 50.019507 
L 2403.807447 50.950048 
L 2408.405899 49.142853 
L 2412.043478 49.791593 
L 2408.202152 52.363917 
L 2411.791285 55.476779 
L 2415.858406 55.702821 
L 2419.107777 58.243895 
L 2430.25347 59.054718 
L 2431.260609 61.386136 
L 2431.772727 63.902666 
L 2426.715532 64.046926 
L 2422.832924 65.149608 
L 2412.992817 65.772333 
L 2410.039692 69.584885 
L 2411.959249 71.924453 
L 2416.628215 73.672547 
L 2425.721087 78.920141 
L 2427.35431 81.54151 
L 2423.56143 81.649713 
L 2424.913281 87.870613 
L 2422.384684 87.942744 
L 2422.676 90.978653 
L 2422.346151 97.042292 
L 2425.583451 100.19939 
L 2420.448609 100.722141 
L 2413.799516 99.714633 
L 2408.092051 100.800943 
L 2401.586135 99.652523 
L 2401.190787 105.478598 
L 2399.145106 105.981627 
L 2394.320838 104.990477 
L 2393.508103 110.623232 
L 2390.50869 109.648454 
L 2385.965847 105.057764 
" clip-path="url(#p9a111889c3)" style="fill: none; stroke: #2ca02c; stroke-width: 1.5; stroke-linecap: square"/>
   </g>
   <g id="text_17">
    <!-- 535 -->
    <g transform="translate(2358.13875 21.6) scale(0.14 -0.14)">
     <use xlink:href="#DejaVuSans-35"/>
     <use xlink:href="#DejaVuSans-33" x="63.623047"/>
     <use xlink:href="#DejaVuSans-35" x="127.246094"/>
    </g>
   </g>
  </g>
  <g id="axes_18">
   <g id="patch_19">
    <path d="M 2448.6 133.2 
L 2581.2 133.2 
L 2581.2 27.6 
L 2448.6 27.6 
z
" style="fill: #ffffff"/>
   </g>
   <g id="matplotlib.axis_35"/>
   <g id="matplotlib.axis_36"/>
   <g id="line2d_18">
    <path d="M 2536.058149 110.879536 
L 2540.97173 115.072513 
L 2543.964329 118.411395 
L 2542.421998 119.428231 
L 2538.124298 120.653319 
L 2534.677959 122.948392 
L 2530.906604 122.999368 
L 2524.311525 121.814331 
L 2519.516588 120.101611 
L 2516.025554 120.505004 
L 2512.505679 119.825754 
L 2509.853012 118.657847 
L 2506.753218 117.717275 
L 2506.824641 116.356984 
L 2507.152438 114.878273 
L 2513.640672 112.771914 
L 2519.522078 110.288292 
L 2518.693627 107.411536 
L 2513.78569 100.233732 
L 2508.039528 97.692653 
L 2503.838234 96.083617 
L 2500.40584 94.119377 
L 2492.387831 91.898543 
L 2484.264215 89.838734 
L 2479.799915 88.101038 
L 2476.700122 87.160465 
L 2474.054907 86.185549 
L 2470.842748 83.98409 
L 2466.41344 81.262462 
L 2463.196204 79.880646 
L 2463.431956 78.341375 
L 2463.022282 75.293413 
L 2464.020691 73.592978 
L 2464.530379 72.379614 
L 2465.414459 70.498744 
L 2470.951625 67.086845 
L 2475.376432 63.984113 
L 2480.845576 61.459627 
L 2483.164799 57.894822 
L 2482.45363 54.523063 
L 2481.479918 51.463746 
L 2476.650417 48.110654 
L 2473.522543 46.969652 
L 2469.252945 43.439208 
L 2466.363726 42.212637 
L 2462.9261 40.847479 
L 2459.880728 39.002512 
L 2457.428406 38.013018 
L 2456.265633 34.000191 
L 2454.627273 32.4 
L 2459.452836 32.958051 
L 2468.27015 35.339049 
L 2472.677627 36.72995 
L 2479.455933 39.742196 
L 2482.637011 42.657182 
L 2485.13095 45.038962 
L 2493.131921 48.431434 
L 2499.6329 52.765506 
L 2505.678129 54.617793 
L 2511.495616 59.818291 
L 2514.892053 62.122848 
L 2517.991836 63.063408 
L 2522.941431 65.02551 
L 2525.984658 67.014657 
L 2529.855388 68.17155 
L 2535.345987 69.602106 
L 2537.605415 70.606179 
L 2545.970629 71.905025 
L 2552.374755 72.739887 
L 2559.756179 73.554899 
L 2565.124835 73.675783 
L 2569.567546 74.064738 
L 2567.151904 76.223392 
L 2562.0174 125.149342 
L 2560.681148 126.425178 
L 2557.018368 128.22797 
L 2548.786542 128.4 
L 2546.012477 127.061204 
L 2542.584846 124.772508 
L 2537.724754 123.987495 
L 2541.685775 122.963412 
L 2545.767167 120.291739 
L 2548.318394 118.98258 
L 2555.935844 119.892287 
L 2556.035527 123.670377 
L 2559.842432 124.251418 
L 2575.172727 77.309668 
L 2568.962742 78.260667 
L 2558.310659 78.548102 
L 2551.415678 78.344505 
L 2537.326051 81.268455 
L 2535.790344 83.009513 
L 2534.793182 86.510387 
L 2533.80001 87.850325 
L 2533.355529 90.962831 
L 2532.712557 93.532177 
L 2531.162498 95.548894 
L 2532.724073 99.347036 
L 2533.870279 103.082034 
L 2532.534027 104.35787 
" clip-path="url(#pff4bb0ba57)" style="fill: none; stroke: #2ca02c; stroke-width: 1.5; stroke-linecap: square"/>
   </g>
   <g id="text_18">
    <!-- 606 -->
    <g transform="translate(2501.53875 21.6) scale(0.14 -0.14)">
     <use xlink:href="#DejaVuSans-36"/>
     <use xlink:href="#DejaVuSans-30" x="63.623047"/>
     <use xlink:href="#DejaVuSans-36" x="127.246094"/>
    </g>
   </g>
  </g>
 </g>
 <defs>
  <clipPath id="pf6349d072c">
   <rect x="10.8" y="27.6" width="132.6" height="105.6"/>
  </clipPath>
  <clipPath id="p5e82126752">
   <rect x="154.2" y="27.6" width="132.6" height="105.6"/>
  </clipPath>
  <clipPath id="p0e2202c82c">
   <rect x="297.6" y="27.6" width="132.6" height="105.6"/>
  </clipPath>
  <clipPath id="p907442562c">
   <rect x="441" y="27.6" width="132.6" height="105.6"/>
  </clipPath>
  <clipPath id="p8249acf687">
   <rect x="584.4" y="27.6" width="132.6" height="105.6"/>
  </clipPath>
  <clipPath id="p547cef5cde">
   <rect x="727.8" y="27.6" width="132.6" height="105.6"/>
  </clipPath>
  <clipPath id="p85cbbe39c7">
   <rect x="871.2" y="27.6" width="132.6" height="105.6"/>
  </clipPath>
  <clipPath id="pa9af534de4">
   <rect x="1014.6" y="27.6" width="132.6" height="105.6"/>
  </clipPath>
  <clipPath id="pf9e5ffeab8">
   <rect x="1158" y="27.6" width="132.6" height="105.6"/>
  </clipPath>
  <clipPath id="pfefec7c36f">
   <rect x="1301.4" y="27.6" width="132.6" height="105.6"/>
  </clipPath>
  <clipPath id="p178c79ab6e">
   <rect x="1444.8" y="27.6" width="132.6" height="105.6"/>
  </clipPath>
  <clipPath id="p15004f608d">
   <rect x="1588.2" y="27.6" width="132.6" height="105.6"/>
  </clipPath>
  <clipPath id="p944e191fa6">
   <rect x="1731.6" y="27.6" width="132.6" height="105.6"/>
  </clipPath>
  <clipPath id="p74215d23f1">
   <rect x="1875" y="27.6" width="132.6" height="105.6"/>
  </clipPath>
  <clipPath id="p43b776364c">
   <rect x="2018.4" y="27.6" width="132.6" height="105.6"/>
  </clipPath>
  <clipPath id="p405e1d45a9">
   <rect x="2161.8" y="27.6" width="132.6" height="105.6"/>
  </clipPath>
  <clipPath id="p9a111889c3">
   <rect x="2305.2" y="27.6" width="132.6" height="105.6"/>
  </clipPath>
  <clipPath id="pff4bb0ba57">
   <rect x="2448.6" y="27.6" width="132.6" height="105.6"/>
  </clipPath>
 </defs>
</svg>
