<?xml version="1.0" encoding="utf-8" standalone="no"?>
<!DOCTYPE svg PUBLIC "-//W3C//DTD SVG 1.1//EN"
  "http://www.w3.org/Graphics/SVG/1.1/DTD/svg11.dtd">
<svg xmlns:xlink="http://www.w3.org/1999/xlink" width="583.2pt" height="288pt" viewBox="0 0 583.2 288" xmlns="http://www.w3.org/2000/svg" version="1.1">
 <metadata>
  <rdf:RDF xmlns:dc="http://purl.org/dc/elements/1.1/" xmlns:cc="http://creativecommons.org/ns#" xmlns:rdf="http://www.w3.org/1999/02/22-rdf-syntax-ns#">
   <cc:Work>
    <dc:type rdf:resource="http://purl.org/dc/dcmitype/StillImage"/>
    <dc:date>2024-04-24T11:22:03.452820</dc:date>
    <dc:format>image/svg+xml</dc:format>
    <dc:creator>
     <cc:Agent>
      <dc:title>Matplotlib v3.8.4, https://matplotlib.org/</dc:title>
     </cc:Agent>
    </dc:creator>
   </cc:Work>
  </rdf:RDF>
 </metadata>
 <defs>
  <style type="text/css">*{stroke-linejoin: round; stroke-linecap: butt}</style>
 </defs>
 <g id="figure_1">
  <g id="patch_1">
   <path d="M 0 288 
L 583.2 288 
L 583.2 0 
L 0 0 
z
" style="fill: #ffffff"/>
  </g>
  <g id="axes_1">
   <g id="line2d_1">
    <path d="M 182.618182 89.874519 
L 182.360015 91.025807 
L 182.095573 91.851603 
L 181.867005 92.264592 
L 181.452542 92.757921 
L 178.90729 92.670595 
L 178.119498 92.456616 
L 177.708962 92.291925 
L 174.982355 90.726784 
L 174.457384 90.494678 
L 173.21933 90.218823 
L 172.444894 90.070766 
L 170.25394 89.711382 
L 169.22849 89.439541 
L 167.505221 89.308759 
L 165.10317 88.853678 
L 164.123357 88.677613 
L 163.015843 88.448176 
L 161.352372 87.885758 
L 159.842143 87.463134 
L 157.704829 86.871383 
L 155.615601 86.55173 
L 152.139062 85.730452 
L 149.783476 85.458466 
L 147.01449 85.250775 
L 145.392254 84.952855 
L 142.443362 84.545656 
L 139.739822 84.167694 
L 137.518015 83.762433 
L 136.139834 83.500237 
L 132.495473 83.062689 
L 129.555104 83.003697 
L 128.197411 82.930039 
L 125.160332 82.728696 
L 121.670902 82.45837 
L 117.578926 82.041998 
L 108.206324 82.055906 
L 105.994073 81.872127 
L 103.831603 81.801043 
L 102.069635 81.663459 
L 97.558037 81.499081 
L 94.817722 81.553578 
L 92.930933 81.508798 
L 90.054977 81.595141 
L 87.671746 81.337275 
L 84.000577 81.541702 
L 80.891276 81.349381 
L 79.039696 81.352637 
L 77.399683 81.170611 
L 75.002815 80.649142 
L 73.038653 80.666112 
L 69.888052 80.799388 
L 68.184544 80.787218 
L 65.914377 80.966718 
L 63.696192 81.039559 
L 62.17279 81.101891 
L 61.158135 81.114237 
L 59.608359 80.934546 
L 57.559913 80.794803 
L 56.502425 80.766716 
L 53.978031 80.76506 
L 50.258381 80.677074 
L 48.253911 80.6164 
L 47.314338 80.631986 
L 46.444614 80.699449 
L 42.436758 80.582581 
L 40.89914 80.639056 
L 39.066411 80.620239 
L 37.73345 80.835187 
L 35.633704 80.948291 
L 34.303237 81.032193 
L 31.858139 81.342322 
L 30.876662 81.44067 
L 29.342588 81.323049 
L 27.758385 81.632477 
L 26.934293 81.691402 
L 26.163197 81.890966 
L 24.854505 82.003393 
L 19.4837 82.619704 
L 18.987658 82.666906 
L 18.995432 82.70871 
L 19.112863 82.847824 
L 19.496166 83.172445 
L 19.926099 83.386045 
L 20.54298 83.691269 
L 21.516382 84.071524 
L 23.1655 84.305536 
L 23.902872 84.525258 
L 24.610245 84.807944 
L 25.081101 85.002292 
L 26.383079 85.119452 
L 27.288443 85.101378 
L 28.47074 85.186946 
L 29.351567 85.201574 
L 30.367664 85.234106 
L 40.669739 86.47778 
L 42.616092 86.708831 
L 44.302045 86.923601 
L 46.476239 87.283787 
L 50.281642 87.839256 
L 51.450383 87.728678 
L 52.423247 87.605123 
L 53.799687 87.508751 
L 57.49061 87.309073 
L 65.623549 87.346326 
L 67.096515 87.318662 
L 71.378066 87.419068 
L 72.688041 87.536338 
L 77.423595 87.439331 
L 78.362317 87.445738 
L 79.872829 87.425908 
L 82.307719 87.511314 
L 83.665356 87.549817 
L 85.232854 87.55852 
L 87.083704 87.601475 
L 91.571505 87.731211 
L 95.587412 87.571548 
L 96.688451 87.573798 
L 99.763233 87.387282 
L 102.367023 87.56113 
L 103.703271 87.494961 
L 105.898987 87.322781 
L 108.615315 87.346885 
L 110.246505 87.302555 
L 112.041277 87.189747 
L 117.309603 87.02027 
L 119.356117 86.849381 
L 125.941313 86.693581 
L 126.590553 86.679479 
L 129.098007 86.268641 
L 132.533343 86.051332 
L 135.092953 85.785862 
L 136.061533 85.794758 
L 137.371886 85.797614 
L 141.381395 85.316728 
L 142.42197 85.280665 
L 145.903478 84.846679 
L 146.851451 84.738868 
L 147.926454 84.516119 
L 151.162746 83.967916 
L 153.354298 83.464109 
L 156.551017 82.819038 
L 157.382645 82.767569 
L 159.493219 82.328856 
L 160.924211 81.981738 
L 162.576823 81.506249 
L 165.479134 80.897307 
L 166.706844 80.573776 
L 168.926269 79.856959 
L 169.267579 79.797993 
L 169.593065 79.699738 
L 171.475711 79.391079 
L 171.912112 79.253561 
L 172.601301 78.965417 
L 173.22812 78.694506 
L 173.54304 78.562529 
L 173.916667 78.387158 
L 174.452597 78.552969 
L 174.763947 78.899674 
L 175.346467 80.16058 
L 175.773036 81.108979 
L 176.365216 82.357328 
L 177.375896 86.421373 
L 177.350237 86.956666 
L 177.350237 86.956666 
" clip-path="url(#p9f53207de0)" style="fill: none; stroke: #1f77b4; stroke-width: 1.5; stroke-linecap: square"/>
   </g>
   <g id="text_1">
    <!-- SRV - MCF10A -->
    <g transform="translate(30.320313 26.64) scale(0.2 -0.2)">
     <defs>
      <path id="DejaVuSans-53" d="M 3425 4513 
L 3425 3897 
Q 3066 4069 2747 4153 
Q 2428 4238 2131 4238 
Q 1616 4238 1336 4038 
Q 1056 3838 1056 3469 
Q 1056 3159 1242 3001 
Q 1428 2844 1947 2747 
L 2328 2669 
Q 3034 2534 3370 2195 
Q 3706 1856 3706 1288 
Q 3706 609 3251 259 
Q 2797 -91 1919 -91 
Q 1588 -91 1214 -16 
Q 841 59 441 206 
L 441 856 
Q 825 641 1194 531 
Q 1563 422 1919 422 
Q 2459 422 2753 634 
Q 3047 847 3047 1241 
Q 3047 1584 2836 1778 
Q 2625 1972 2144 2069 
L 1759 2144 
Q 1053 2284 737 2584 
Q 422 2884 422 3419 
Q 422 4038 858 4394 
Q 1294 4750 2059 4750 
Q 2388 4750 2728 4690 
Q 3069 4631 3425 4513 
z
" transform="scale(0.015625)"/>
      <path id="DejaVuSans-52" d="M 2841 2188 
Q 3044 2119 3236 1894 
Q 3428 1669 3622 1275 
L 4263 0 
L 3584 0 
L 2988 1197 
Q 2756 1666 2539 1819 
Q 2322 1972 1947 1972 
L 1259 1972 
L 1259 0 
L 628 0 
L 628 4666 
L 2053 4666 
Q 2853 4666 3247 4331 
Q 3641 3997 3641 3322 
Q 3641 2881 3436 2590 
Q 3231 2300 2841 2188 
z
M 1259 4147 
L 1259 2491 
L 2053 2491 
Q 2509 2491 2742 2702 
Q 2975 2913 2975 3322 
Q 2975 3731 2742 3939 
Q 2509 4147 2053 4147 
L 1259 4147 
z
" transform="scale(0.015625)"/>
      <path id="DejaVuSans-56" d="M 1831 0 
L 50 4666 
L 709 4666 
L 2188 738 
L 3669 4666 
L 4325 4666 
L 2547 0 
L 1831 0 
z
" transform="scale(0.015625)"/>
      <path id="DejaVuSans-20" transform="scale(0.015625)"/>
      <path id="DejaVuSans-2d" d="M 313 2009 
L 1997 2009 
L 1997 1497 
L 313 1497 
L 313 2009 
z
" transform="scale(0.015625)"/>
      <path id="DejaVuSans-4d" d="M 628 4666 
L 1569 4666 
L 2759 1491 
L 3956 4666 
L 4897 4666 
L 4897 0 
L 4281 0 
L 4281 4097 
L 3078 897 
L 2444 897 
L 1241 4097 
L 1241 0 
L 628 0 
L 628 4666 
z
" transform="scale(0.015625)"/>
      <path id="DejaVuSans-43" d="M 4122 4306 
L 4122 3641 
Q 3803 3938 3442 4084 
Q 3081 4231 2675 4231 
Q 1875 4231 1450 3742 
Q 1025 3253 1025 2328 
Q 1025 1406 1450 917 
Q 1875 428 2675 428 
Q 3081 428 3442 575 
Q 3803 722 4122 1019 
L 4122 359 
Q 3791 134 3420 21 
Q 3050 -91 2638 -91 
Q 1578 -91 968 557 
Q 359 1206 359 2328 
Q 359 3453 968 4101 
Q 1578 4750 2638 4750 
Q 3056 4750 3426 4639 
Q 3797 4528 4122 4306 
z
" transform="scale(0.015625)"/>
      <path id="DejaVuSans-46" d="M 628 4666 
L 3309 4666 
L 3309 4134 
L 1259 4134 
L 1259 2759 
L 3109 2759 
L 3109 2228 
L 1259 2228 
L 1259 0 
L 628 0 
L 628 4666 
z
" transform="scale(0.015625)"/>
      <path id="DejaVuSans-31" d="M 794 531 
L 1825 531 
L 1825 4091 
L 703 3866 
L 703 4441 
L 1819 4666 
L 2450 4666 
L 2450 531 
L 3481 531 
L 3481 0 
L 794 0 
L 794 531 
z
" transform="scale(0.015625)"/>
      <path id="DejaVuSans-30" d="M 2034 4250 
Q 1547 4250 1301 3770 
Q 1056 3291 1056 2328 
Q 1056 1369 1301 889 
Q 1547 409 2034 409 
Q 2525 409 2770 889 
Q 3016 1369 3016 2328 
Q 3016 3291 2770 3770 
Q 2525 4250 2034 4250 
z
M 2034 4750 
Q 2819 4750 3233 4129 
Q 3647 3509 3647 2328 
Q 3647 1150 3233 529 
Q 2819 -91 2034 -91 
Q 1250 -91 836 529 
Q 422 1150 422 2328 
Q 422 3509 836 4129 
Q 1250 4750 2034 4750 
z
" transform="scale(0.015625)"/>
      <path id="DejaVuSans-41" d="M 2188 4044 
L 1331 1722 
L 3047 1722 
L 2188 4044 
z
M 1831 4666 
L 2547 4666 
L 4325 0 
L 3669 0 
L 3244 1197 
L 1141 1197 
L 716 0 
L 50 0 
L 1831 4666 
z
" transform="scale(0.015625)"/>
     </defs>
     <use xlink:href="#DejaVuSans-53"/>
     <use xlink:href="#DejaVuSans-52" x="63.476562"/>
     <use xlink:href="#DejaVuSans-56" x="127.458984"/>
     <use xlink:href="#DejaVuSans-20" x="195.867188"/>
     <use xlink:href="#DejaVuSans-2d" x="227.654297"/>
     <use xlink:href="#DejaVuSans-20" x="263.738281"/>
     <use xlink:href="#DejaVuSans-4d" x="295.525391"/>
     <use xlink:href="#DejaVuSans-43" x="381.804688"/>
     <use xlink:href="#DejaVuSans-46" x="451.628906"/>
     <use xlink:href="#DejaVuSans-31" x="509.148438"/>
     <use xlink:href="#DejaVuSans-30" x="572.771484"/>
     <use xlink:href="#DejaVuSans-41" x="636.394531"/>
    </g>
   </g>
  </g>
  <g id="axes_2">
   <g id="line2d_2">
    <path d="M 370.042236 73.947735 
L 370.421395 75.048003 
L 371.227374 76.544877 
L 372.074492 77.851042 
L 372.392466 77.925853 
L 372.635643 77.766285 
L 373.374285 77.786427 
L 373.397477 77.528947 
L 372.963758 76.394902 
L 372.801217 75.985317 
L 372.660317 75.790206 
L 372.397327 75.314998 
L 371.610287 73.645349 
L 370.332375 71.476633 
L 368.710126 70.152496 
L 367.786869 69.041335 
L 366.975323 68.417383 
L 364.615484 67.063961 
L 363.768524 66.403669 
L 362.442377 65.955576 
L 360.48141 64.625767 
L 359.847524 64.167508 
L 359.060319 63.653703 
L 357.561908 62.65381 
L 356.505619 62.139531 
L 355.689215 61.83426 
L 353.896545 60.983339 
L 352.901089 60.47736 
L 352.175488 60.091964 
L 350.101059 59.61146 
L 349.498351 59.461053 
L 348.398019 59.211188 
L 347.492406 59.056367 
L 344.832559 58.882116 
L 343.176375 58.989925 
L 341.731855 58.876576 
L 340.019867 58.829432 
L 337.614891 58.585661 
L 335.949387 58.681914 
L 333.941751 58.705996 
L 332.498004 58.486825 
L 331.683291 58.430454 
L 330.605119 58.287645 
L 320.861419 57.907179 
L 319.328345 57.678663 
L 317.422314 57.601695 
L 314.300769 57.712265 
L 310.826161 57.833007 
L 305.554374 57.887044 
L 302.352095 57.689736 
L 300.63978 57.820279 
L 299.453673 57.942743 
L 288.906621 60.021587 
L 286.65492 60.715759 
L 285.270621 61.073711 
L 282.536655 61.730816 
L 280.670233 62.016067 
L 278.748799 62.367258 
L 277.495442 62.798554 
L 275.84359 63.545957 
L 274.302273 64.079371 
L 267.95805 65.66802 
L 266.502148 65.850567 
L 259.712447 67.234875 
L 258.828551 67.434 
L 257.837989 67.828963 
L 256.958562 68.046535 
L 256.069676 68.134578 
L 254.58931 68.30251 
L 249.488037 69.027418 
L 246.755256 69.811069 
L 244.979274 70.294858 
L 241.038184 71.832438 
L 238.22426 73.259536 
L 233.845657 74.831126 
L 232.35904 75.448209 
L 230.308562 76.085471 
L 227.133593 78.100758 
L 226.330342 78.659479 
L 222.766786 81.128124 
L 218.623588 84.526188 
L 218.142645 85.067128 
L 217.565768 85.418696 
L 216.90071 85.812363 
L 214.965918 87.628144 
L 214.421971 88.361197 
L 213.965022 89.029342 
L 213.280434 90.100858 
L 211.753861 92.288522 
L 210.809965 94.569798 
L 210.455117 95.14313 
L 210.112812 95.839704 
L 209.962646 96.003177 
L 209.801751 96.823178 
L 209.889994 97.242878 
L 210.065934 97.729723 
L 210.993616 100.296553 
L 211.601481 100.616333 
L 213.102631 102.053219 
L 213.651915 102.839125 
L 214.27171 103.445204 
L 215.237505 104.271159 
L 216.624548 105.688103 
L 217.106303 105.885433 
L 217.406152 106.017043 
L 218.221327 106.244308 
L 218.890183 106.435513 
L 219.859514 106.708573 
L 221.075447 106.886847 
L 223.500272 107.714081 
L 224.925157 107.989883 
L 225.968184 108.202942 
L 226.903963 108.450358 
L 227.96316 108.79661 
L 229.086535 109.211673 
L 230.975934 109.76537 
L 233.163658 110.200798 
L 239.521265 112.253097 
L 241.313513 112.754064 
L 244.85435 113.195999 
L 246.183171 113.09858 
L 247.387273 113.157762 
L 248.986515 113.44608 
L 250.04708 113.576709 
L 251.175205 113.647826 
L 252.967925 113.545802 
L 260.060962 113.095942 
L 263.280188 112.628378 
L 266.517597 112.426473 
L 267.232973 112.365744 
L 268.086907 112.402069 
L 274.971307 111.780752 
L 277.281534 111.623415 
L 279.660101 111.446043 
L 282.854801 111.356335 
L 286.226221 111.016393 
L 290.026902 110.504962 
L 291.708537 110.254697 
L 293.110007 109.842489 
L 297.095865 108.459605 
L 301.993624 106.989096 
L 304.756682 106.356015 
L 307.657043 105.845436 
L 309.927169 105.063396 
L 310.857386 104.664591 
L 312.168879 104.394048 
L 313.460826 103.998673 
L 315.291461 103.448522 
L 317.292605 102.69457 
L 318.125118 102.336414 
L 319.716807 101.468765 
L 322.979374 99.961945 
L 324.277552 99.370143 
L 326.897439 98.148091 
L 329.946031 97.138044 
L 330.709753 96.888614 
L 333.604576 95.48647 
L 335.041694 94.940421 
L 336.356946 94.188816 
L 338.183811 93.154566 
L 341.863138 91.305087 
L 344.044738 90.517747 
L 345.030944 90.074922 
L 345.92112 89.535654 
L 347.086307 88.698468 
L 348.26807 88.147428 
L 349.563993 87.427676 
L 350.570083 86.703671 
L 352.066458 85.486698 
L 352.849858 85.16706 
L 353.179053 84.815768 
L 354.221833 83.563542 
L 355.197285 82.654623 
L 355.700844 82.164936 
L 357.144603 80.354873 
L 357.633564 79.953826 
L 358.837007 78.676997 
L 359.480834 78.153511 
L 360.232999 76.995419 
L 360.887488 76.192974 
L 361.117139 75.862668 
L 361.774413 74.656888 
L 363.481186 72.519209 
L 364.904825 69.48921 
L 365.356819 68.531067 
L 365.713231 67.741148 
L 366.036757 67.090071 
L 366.489647 66.728006 
L 366.610949 66.622185 
L 366.524999 66.802993 
L 366.39359 67.105932 
L 366.144391 67.450128 
L 365.562604 69.090463 
L 365.545154 73.461807 
L 365.411907 73.724672 
L 365.411907 73.724672 
" clip-path="url(#p2d2bd999d3)" style="fill: none; stroke: #ff7f0e; stroke-width: 1.5; stroke-linecap: square"/>
   </g>
   <g id="text_2">
    <!-- SRV - MCF7 -->
    <g transform="translate(234.323437 26.64) scale(0.2 -0.2)">
     <defs>
      <path id="DejaVuSans-37" d="M 525 4666 
L 3525 4666 
L 3525 4397 
L 1831 0 
L 1172 0 
L 2766 4134 
L 525 4134 
L 525 4666 
z
" transform="scale(0.015625)"/>
     </defs>
     <use xlink:href="#DejaVuSans-53"/>
     <use xlink:href="#DejaVuSans-52" x="63.476562"/>
     <use xlink:href="#DejaVuSans-56" x="127.458984"/>
     <use xlink:href="#DejaVuSans-20" x="195.867188"/>
     <use xlink:href="#DejaVuSans-2d" x="227.654297"/>
     <use xlink:href="#DejaVuSans-20" x="263.738281"/>
     <use xlink:href="#DejaVuSans-4d" x="295.525391"/>
     <use xlink:href="#DejaVuSans-43" x="381.804688"/>
     <use xlink:href="#DejaVuSans-46" x="451.628906"/>
     <use xlink:href="#DejaVuSans-37" x="509.148438"/>
    </g>
   </g>
  </g>
  <g id="axes_3">
   <g id="line2d_3">
    <path d="M 561.931457 77.709153 
L 561.890539 78.564839 
L 561.682264 80.372389 
L 561.50864 80.35681 
L 561.25425 80.351368 
L 560.921746 80.040394 
L 560.399542 79.588696 
L 558.208784 78.032668 
L 557.654876 77.676297 
L 556.781442 77.262829 
L 556.187629 77.079276 
L 554.761172 76.801588 
L 552.180208 75.768332 
L 551.456317 75.45469 
L 548.7891 74.462264 
L 547.82908 74.258477 
L 547.04821 74.110589 
L 541.657894 72.900075 
L 540.675389 72.760605 
L 539.667851 72.537623 
L 537.24648 72.301463 
L 533.259442 71.980839 
L 531.438803 71.839662 
L 528.521664 71.484634 
L 524.553349 71.057826 
L 520.427659 70.680406 
L 518.837993 70.550574 
L 515.752576 70.513532 
L 513.437788 70.342965 
L 511.25153 70.287258 
L 509.755841 70.220271 
L 503.491256 70.420894 
L 499.903425 70.676089 
L 498.143244 70.605559 
L 496.774903 70.505149 
L 492.535572 70.565989 
L 487.213967 70.837355 
L 484.97857 70.972417 
L 474.973148 71.929421 
L 473.990843 71.93961 
L 468.253763 72.536528 
L 466.913858 72.626855 
L 459.503643 73.809472 
L 454.446276 73.879916 
L 452.089344 74.288165 
L 449.573156 74.512601 
L 444.007579 75.396247 
L 442.688781 75.630724 
L 440.491018 76.119867 
L 437.279697 76.655497 
L 435.825695 76.976703 
L 433.540642 77.053814 
L 430.573377 77.814995 
L 426.952 78.837574 
L 426.057166 79.12747 
L 423.379491 79.789642 
L 422.453459 80.037127 
L 418.8011 80.761384 
L 416.632308 81.443297 
L 415.625567 81.656121 
L 413.62131 82.256767 
L 412.755841 82.470969 
L 411.814748 82.884743 
L 409.996715 83.654265 
L 409.114942 83.970577 
L 407.979462 84.422709 
L 405.550795 85.470004 
L 402.319217 87.338659 
L 401.967047 87.634311 
L 401.409262 88.015275 
L 401.037455 88.289769 
L 400.801734 88.479826 
L 400.584658 88.906971 
L 400.764603 89.187254 
L 402.02445 89.882941 
L 402.656352 90.184052 
L 403.049469 90.42557 
L 403.590737 90.643579 
L 404.386973 91.003267 
L 406.200141 91.88255 
L 407.001071 92.268254 
L 413.667846 95.486786 
L 417.284803 96.523996 
L 418.908005 96.718133 
L 420.55742 97.072679 
L 421.801884 97.254244 
L 425.310419 97.812254 
L 428.663725 98.286023 
L 432.44205 98.409719 
L 435.363858 98.773035 
L 436.631225 98.900917 
L 438.870455 99.202269 
L 440.104116 99.189682 
L 440.894672 99.20664 
L 449.051832 99.814814 
L 450.37689 99.837101 
L 451.362583 99.782779 
L 453.544831 99.629456 
L 456.867856 99.653671 
L 466.99953 100.608463 
L 469.356139 100.782395 
L 474.586614 101.019729 
L 483.989383 100.788358 
L 493.662297 100.022128 
L 497.470394 99.731098 
L 500.167493 99.49589 
L 501.722001 99.389135 
L 504.041589 99.180012 
L 508.504038 98.803429 
L 515.004698 97.822295 
L 517.76327 97.680106 
L 518.834163 97.530414 
L 520.395249 97.190277 
L 522.856319 96.832775 
L 524.031075 96.552127 
L 525.499056 96.158978 
L 526.778058 96.010811 
L 528.051969 95.82472 
L 530.045015 95.311496 
L 531.247511 94.971948 
L 532.52 94.66281 
L 534.318076 94.139395 
L 537.47031 93.457367 
L 541.301664 92.240554 
L 542.544189 91.690238 
L 544.928943 90.948365 
L 545.973165 90.57184 
L 550.117989 89.077971 
L 551.239149 88.461716 
L 553.24683 87.40235 
L 555.435113 85.880876 
L 555.918286 85.63481 
L 557.17194 84.902092 
L 557.41576 84.71068 
L 558.018286 84.057486 
L 559.138125 83.294988 
L 559.65245 82.891872 
L 560.852173 81.668933 
L 561.297418 81.124451 
L 562.744602 79.827337 
L 563.196607 80.509243 
L 563.755849 81.686956 
L 564.198221 83.484949 
L 564.141454 83.694253 
L 564.141454 83.694253 
" clip-path="url(#pe8d2bb52df)" style="fill: none; stroke: #2ca02c; stroke-width: 1.5; stroke-linecap: square"/>
   </g>
   <g id="text_3">
    <!-- SRV - MDA_MB_231 -->
    <g transform="translate(385.278125 26.64) scale(0.2 -0.2)">
     <defs>
      <path id="DejaVuSans-44" d="M 1259 4147 
L 1259 519 
L 2022 519 
Q 2988 519 3436 956 
Q 3884 1394 3884 2338 
Q 3884 3275 3436 3711 
Q 2988 4147 2022 4147 
L 1259 4147 
z
M 628 4666 
L 1925 4666 
Q 3281 4666 3915 4102 
Q 4550 3538 4550 2338 
Q 4550 1131 3912 565 
Q 3275 0 1925 0 
L 628 0 
L 628 4666 
z
" transform="scale(0.015625)"/>
      <path id="DejaVuSans-5f" d="M 3263 -1063 
L 3263 -1509 
L -63 -1509 
L -63 -1063 
L 3263 -1063 
z
" transform="scale(0.015625)"/>
      <path id="DejaVuSans-42" d="M 1259 2228 
L 1259 519 
L 2272 519 
Q 2781 519 3026 730 
Q 3272 941 3272 1375 
Q 3272 1813 3026 2020 
Q 2781 2228 2272 2228 
L 1259 2228 
z
M 1259 4147 
L 1259 2741 
L 2194 2741 
Q 2656 2741 2882 2914 
Q 3109 3088 3109 3444 
Q 3109 3797 2882 3972 
Q 2656 4147 2194 4147 
L 1259 4147 
z
M 628 4666 
L 2241 4666 
Q 2963 4666 3353 4366 
Q 3744 4066 3744 3513 
Q 3744 3084 3544 2831 
Q 3344 2578 2956 2516 
Q 3422 2416 3680 2098 
Q 3938 1781 3938 1306 
Q 3938 681 3513 340 
Q 3088 0 2303 0 
L 628 0 
L 628 4666 
z
" transform="scale(0.015625)"/>
      <path id="DejaVuSans-32" d="M 1228 531 
L 3431 531 
L 3431 0 
L 469 0 
L 469 531 
Q 828 903 1448 1529 
Q 2069 2156 2228 2338 
Q 2531 2678 2651 2914 
Q 2772 3150 2772 3378 
Q 2772 3750 2511 3984 
Q 2250 4219 1831 4219 
Q 1534 4219 1204 4116 
Q 875 4013 500 3803 
L 500 4441 
Q 881 4594 1212 4672 
Q 1544 4750 1819 4750 
Q 2544 4750 2975 4387 
Q 3406 4025 3406 3419 
Q 3406 3131 3298 2873 
Q 3191 2616 2906 2266 
Q 2828 2175 2409 1742 
Q 1991 1309 1228 531 
z
" transform="scale(0.015625)"/>
      <path id="DejaVuSans-33" d="M 2597 2516 
Q 3050 2419 3304 2112 
Q 3559 1806 3559 1356 
Q 3559 666 3084 287 
Q 2609 -91 1734 -91 
Q 1441 -91 1130 -33 
Q 819 25 488 141 
L 488 750 
Q 750 597 1062 519 
Q 1375 441 1716 441 
Q 2309 441 2620 675 
Q 2931 909 2931 1356 
Q 2931 1769 2642 2001 
Q 2353 2234 1838 2234 
L 1294 2234 
L 1294 2753 
L 1863 2753 
Q 2328 2753 2575 2939 
Q 2822 3125 2822 3475 
Q 2822 3834 2567 4026 
Q 2313 4219 1838 4219 
Q 1578 4219 1281 4162 
Q 984 4106 628 3988 
L 628 4550 
Q 988 4650 1302 4700 
Q 1616 4750 1894 4750 
Q 2613 4750 3031 4423 
Q 3450 4097 3450 3541 
Q 3450 3153 3228 2886 
Q 3006 2619 2597 2516 
z
" transform="scale(0.015625)"/>
     </defs>
     <use xlink:href="#DejaVuSans-53"/>
     <use xlink:href="#DejaVuSans-52" x="63.476562"/>
     <use xlink:href="#DejaVuSans-56" x="127.458984"/>
     <use xlink:href="#DejaVuSans-20" x="195.867188"/>
     <use xlink:href="#DejaVuSans-2d" x="227.654297"/>
     <use xlink:href="#DejaVuSans-20" x="263.738281"/>
     <use xlink:href="#DejaVuSans-4d" x="295.525391"/>
     <use xlink:href="#DejaVuSans-44" x="381.804688"/>
     <use xlink:href="#DejaVuSans-41" x="457.056641"/>
     <use xlink:href="#DejaVuSans-5f" x="525.464844"/>
     <use xlink:href="#DejaVuSans-4d" x="575.464844"/>
     <use xlink:href="#DejaVuSans-42" x="661.744141"/>
     <use xlink:href="#DejaVuSans-5f" x="730.347656"/>
     <use xlink:href="#DejaVuSans-32" x="780.347656"/>
     <use xlink:href="#DejaVuSans-33" x="843.970703"/>
     <use xlink:href="#DejaVuSans-31" x="907.59375"/>
    </g>
   </g>
  </g>
  <g id="axes_4">
   <g id="line2d_4">
    <path d="M 182.453556 227.966764 
L 181.022851 229.093408 
L 180.535407 229.934003 
L 179.968827 230.773124 
L 178.754726 232.185769 
L 177.757152 233.288288 
L 174.940042 236.208198 
L 173.69336 237.232623 
L 171.278055 239.482815 
L 169.574539 240.857093 
L 168.370642 241.943909 
L 167.234611 243.039684 
L 164.113649 245.604315 
L 159.878498 248.587871 
L 158.403247 249.47831 
L 156.401417 250.726411 
L 155.282976 251.483348 
L 152.798259 253.03279 
L 149.581909 255.00865 
L 146.83871 256.307687 
L 142.409571 258.526767 
L 140.688556 259.571146 
L 138.662218 260.510679 
L 136.109778 261.576682 
L 134.400646 262.441623 
L 132.307045 263.232965 
L 129.589743 264.165016 
L 127.822978 264.795009 
L 116.990774 267.926754 
L 109.865555 269.690177 
L 105.860388 270.178252 
L 104.437166 270.28309 
L 96.289905 271.403235 
L 81.739186 270.999899 
L 72.443884 270.392839 
L 68.555494 269.81023 
L 66.011248 269.306951 
L 58.365823 267.614513 
L 55.051861 266.682494 
L 53.322857 265.875021 
L 50.112197 264.46056 
L 47.306632 263.149676 
L 45.127356 262.121914 
L 43.466811 261.470664 
L 42.054286 260.575993 
L 40.67999 259.649408 
L 38.320591 258.065788 
L 33.493284 254.781489 
L 31.897309 253.500521 
L 30.407523 251.896228 
L 29.207467 250.331231 
L 28.093289 248.738208 
L 27.096687 247.111812 
L 25.525764 244.894479 
L 23.612935 241.409763 
L 23.184526 240.29305 
L 20.03374 233.434919 
L 19.726014 231.974918 
L 18.981818 227.756327 
L 19.094398 222.354493 
L 19.456747 219.038625 
L 19.690221 218.043706 
L 20.685716 215.265196 
L 24.052336 208.378201 
L 25.099062 207.067173 
L 27.546979 204.05485 
L 28.792523 202.949979 
L 29.681492 202.201865 
L 33.556023 198.234959 
L 35.958702 196.60865 
L 37.281543 195.665891 
L 38.560479 194.744869 
L 39.380104 194.232188 
L 41.137765 193.031147 
L 43.17741 191.700432 
L 46.275304 189.879301 
L 47.854087 188.977074 
L 52.593152 186.868224 
L 54.335149 186.218173 
L 56.601227 185.374804 
L 62.121254 183.059847 
L 68.16349 181.394974 
L 69.773196 181.183646 
L 71.372136 180.919397 
L 73.170826 180.574669 
L 74.655737 180.202734 
L 77.866294 179.282188 
L 83.67341 177.959539 
L 87.407658 177.318081 
L 89.179901 177.202524 
L 92.712335 177.065235 
L 94.530627 177.095974 
L 97.119678 177.220831 
L 98.682455 177.248574 
L 106.582515 177.987487 
L 109.253318 178.552795 
L 111.247033 178.8021 
L 113.05864 179.199151 
L 114.571504 179.559615 
L 118.771419 180.541818 
L 122.971335 181.762752 
L 125.291107 182.567681 
L 126.307259 182.939254 
L 128.20968 183.638148 
L 134.743226 186.030325 
L 137.706361 187.423153 
L 142.991981 189.620876 
L 144.76213 190.417326 
L 147.43313 191.938337 
L 148.644764 192.522729 
L 150.185199 193.297977 
L 152.716656 194.824678 
L 155.018753 196.423204 
L 157.191658 197.99598 
L 159.257927 199.636441 
L 160.396171 200.760646 
L 162.33489 202.027544 
L 164.335641 203.78884 
L 165.284214 204.661452 
L 166.567919 205.829404 
L 167.934558 207.070257 
L 169.142679 208.361106 
L 170.44682 209.638005 
L 171.389257 210.635483 
L 172.699742 212.014166 
L 174.07217 213.706435 
L 175.085859 214.870289 
L 176.488975 216.98005 
L 177.199522 217.976499 
L 178.384549 219.662241 
L 180.848769 223.781244 
L 181.348653 224.381217 
L 182.048202 225.066995 
L 182.365878 225.671582 
L 182.537208 226.714176 
L 182.618182 227.550112 
L 182.618182 227.550112 
" clip-path="url(#p5e06164877)" style="fill: none; stroke: #1f77b4; stroke-width: 1.5; stroke-linecap: square"/>
   </g>
   <g id="text_4">
    <!-- Linear - MCF10A -->
    <g transform="translate(18.828125 165.24) scale(0.2 -0.2)">
     <defs>
      <path id="DejaVuSans-4c" d="M 628 4666 
L 1259 4666 
L 1259 531 
L 3531 531 
L 3531 0 
L 628 0 
L 628 4666 
z
" transform="scale(0.015625)"/>
      <path id="DejaVuSans-69" d="M 603 3500 
L 1178 3500 
L 1178 0 
L 603 0 
L 603 3500 
z
M 603 4863 
L 1178 4863 
L 1178 4134 
L 603 4134 
L 603 4863 
z
" transform="scale(0.015625)"/>
      <path id="DejaVuSans-6e" d="M 3513 2113 
L 3513 0 
L 2938 0 
L 2938 2094 
Q 2938 2591 2744 2837 
Q 2550 3084 2163 3084 
Q 1697 3084 1428 2787 
Q 1159 2491 1159 1978 
L 1159 0 
L 581 0 
L 581 3500 
L 1159 3500 
L 1159 2956 
Q 1366 3272 1645 3428 
Q 1925 3584 2291 3584 
Q 2894 3584 3203 3211 
Q 3513 2838 3513 2113 
z
" transform="scale(0.015625)"/>
      <path id="DejaVuSans-65" d="M 3597 1894 
L 3597 1613 
L 953 1613 
Q 991 1019 1311 708 
Q 1631 397 2203 397 
Q 2534 397 2845 478 
Q 3156 559 3463 722 
L 3463 178 
Q 3153 47 2828 -22 
Q 2503 -91 2169 -91 
Q 1331 -91 842 396 
Q 353 884 353 1716 
Q 353 2575 817 3079 
Q 1281 3584 2069 3584 
Q 2775 3584 3186 3129 
Q 3597 2675 3597 1894 
z
M 3022 2063 
Q 3016 2534 2758 2815 
Q 2500 3097 2075 3097 
Q 1594 3097 1305 2825 
Q 1016 2553 972 2059 
L 3022 2063 
z
" transform="scale(0.015625)"/>
      <path id="DejaVuSans-61" d="M 2194 1759 
Q 1497 1759 1228 1600 
Q 959 1441 959 1056 
Q 959 750 1161 570 
Q 1363 391 1709 391 
Q 2188 391 2477 730 
Q 2766 1069 2766 1631 
L 2766 1759 
L 2194 1759 
z
M 3341 1997 
L 3341 0 
L 2766 0 
L 2766 531 
Q 2569 213 2275 61 
Q 1981 -91 1556 -91 
Q 1019 -91 701 211 
Q 384 513 384 1019 
Q 384 1609 779 1909 
Q 1175 2209 1959 2209 
L 2766 2209 
L 2766 2266 
Q 2766 2663 2505 2880 
Q 2244 3097 1772 3097 
Q 1472 3097 1187 3025 
Q 903 2953 641 2809 
L 641 3341 
Q 956 3463 1253 3523 
Q 1550 3584 1831 3584 
Q 2591 3584 2966 3190 
Q 3341 2797 3341 1997 
z
" transform="scale(0.015625)"/>
      <path id="DejaVuSans-72" d="M 2631 2963 
Q 2534 3019 2420 3045 
Q 2306 3072 2169 3072 
Q 1681 3072 1420 2755 
Q 1159 2438 1159 1844 
L 1159 0 
L 581 0 
L 581 3500 
L 1159 3500 
L 1159 2956 
Q 1341 3275 1631 3429 
Q 1922 3584 2338 3584 
Q 2397 3584 2469 3576 
Q 2541 3569 2628 3553 
L 2631 2963 
z
" transform="scale(0.015625)"/>
     </defs>
     <use xlink:href="#DejaVuSans-4c"/>
     <use xlink:href="#DejaVuSans-69" x="55.712891"/>
     <use xlink:href="#DejaVuSans-6e" x="83.496094"/>
     <use xlink:href="#DejaVuSans-65" x="146.875"/>
     <use xlink:href="#DejaVuSans-61" x="208.398438"/>
     <use xlink:href="#DejaVuSans-72" x="269.677734"/>
     <use xlink:href="#DejaVuSans-20" x="310.791016"/>
     <use xlink:href="#DejaVuSans-2d" x="342.578125"/>
     <use xlink:href="#DejaVuSans-20" x="378.662109"/>
     <use xlink:href="#DejaVuSans-4d" x="410.449219"/>
     <use xlink:href="#DejaVuSans-43" x="496.728516"/>
     <use xlink:href="#DejaVuSans-46" x="566.552734"/>
     <use xlink:href="#DejaVuSans-31" x="624.072266"/>
     <use xlink:href="#DejaVuSans-30" x="687.695312"/>
     <use xlink:href="#DejaVuSans-41" x="751.318359"/>
    </g>
   </g>
  </g>
  <g id="axes_5">
   <g id="line2d_5">
    <path d="M 349.819438 225.580552 
L 348.508765 226.893262 
L 347.642988 228.139034 
L 345.706143 230.840278 
L 343.107184 234.440135 
L 342.597501 235.294684 
L 340.85058 237.565355 
L 337.163225 243.500815 
L 336.225857 245.095669 
L 335.223999 246.388926 
L 334.724874 247.114576 
L 333.912373 248.352429 
L 332.608501 249.9404 
L 328.028551 254.699427 
L 325.532909 256.895423 
L 323.740856 258.649247 
L 321.56871 260.254809 
L 319.87723 261.359628 
L 312.12469 266.284437 
L 310.259107 267.378604 
L 308.698849 268.332982 
L 307.14834 269.243861 
L 306.266174 269.621326 
L 301.524373 271.023783 
L 295.6842 271.988177 
L 293.839654 272.101286 
L 285.590869 272.260847 
L 279.664194 271.616271 
L 277.016415 271.239002 
L 275.404042 270.977239 
L 270.556362 269.97718 
L 262.947902 267.068677 
L 255.789253 263.481508 
L 254.461524 262.470741 
L 248.046412 256.678301 
L 244.588958 252.634102 
L 242.731916 250.274534 
L 240.564495 247.05293 
L 239.58549 245.273568 
L 238.126924 242.491397 
L 237.511166 241.327178 
L 235.903987 237.860232 
L 235.296809 235.839231 
L 233.770537 230.416259 
L 233.270634 225.585296 
L 233.302388 223.868355 
L 233.349553 222.459906 
L 233.401142 218.705608 
L 233.616502 217.526091 
L 234.780925 213.790864 
L 242.086728 199.086478 
L 243.554337 196.657217 
L 244.754835 195.155088 
L 246.362747 193.425111 
L 250.858211 188.572125 
L 252.820233 186.908187 
L 256.447289 184.311836 
L 259.294868 182.450907 
L 260.446154 181.665219 
L 261.958402 180.918781 
L 264.859815 179.836382 
L 266.066953 179.440046 
L 268.047312 178.853918 
L 270.512275 178.124166 
L 274.460873 177.379402 
L 277.928801 176.814941 
L 278.967598 176.589499 
L 281.04178 176.435201 
L 283.387876 176.356824 
L 286.977535 176.086308 
L 295.083004 176.795419 
L 296.663604 177.14972 
L 298.633368 177.419147 
L 299.841312 177.697044 
L 302.693521 178.655287 
L 304.409929 179.327009 
L 306.15065 180.014135 
L 308.579151 181.345553 
L 309.918149 182.013606 
L 312.417694 183.156556 
L 317.001009 186.121674 
L 321.602879 189.639559 
L 325.924813 193.543836 
L 329.488982 197.123178 
L 330.424094 198.436109 
L 332.021951 200.651629 
L 333.199252 202.295685 
L 336.07689 206.065985 
L 337.23881 207.437111 
L 339.177914 209.677667 
L 342.611352 214.48979 
L 345.328165 218.041106 
L 347.503487 220.851069 
L 349.579914 223.592285 
L 349.803454 224.383814 
L 349.937194 225.230986 
L 349.937194 225.230986 
" clip-path="url(#p9786116063)" style="fill: none; stroke: #ff7f0e; stroke-width: 1.5; stroke-linecap: square"/>
   </g>
   <g id="text_5">
    <!-- Linear - MCF7 -->
    <g transform="translate(222.83125 165.24) scale(0.2 -0.2)">
     <use xlink:href="#DejaVuSans-4c"/>
     <use xlink:href="#DejaVuSans-69" x="55.712891"/>
     <use xlink:href="#DejaVuSans-6e" x="83.496094"/>
     <use xlink:href="#DejaVuSans-65" x="146.875"/>
     <use xlink:href="#DejaVuSans-61" x="208.398438"/>
     <use xlink:href="#DejaVuSans-72" x="269.677734"/>
     <use xlink:href="#DejaVuSans-20" x="310.791016"/>
     <use xlink:href="#DejaVuSans-2d" x="342.578125"/>
     <use xlink:href="#DejaVuSans-20" x="378.662109"/>
     <use xlink:href="#DejaVuSans-4d" x="410.449219"/>
     <use xlink:href="#DejaVuSans-43" x="496.728516"/>
     <use xlink:href="#DejaVuSans-46" x="566.552734"/>
     <use xlink:href="#DejaVuSans-37" x="624.072266"/>
    </g>
   </g>
  </g>
  <g id="axes_6">
   <g id="line2d_6">
    <path d="M 564.050962 226.315867 
L 562.22242 227.712611 
L 561.162935 229.023606 
L 559.82177 230.71042 
L 558.711755 232.172052 
L 556.698149 234.734871 
L 553.87749 237.581896 
L 551.042322 239.97102 
L 549.745004 241.233548 
L 548.94392 241.885248 
L 547.562781 242.898611 
L 546.518904 243.588461 
L 545.523021 244.314886 
L 542.782675 246.370441 
L 535.865853 250.599585 
L 526.945104 255.560332 
L 524.973114 256.449742 
L 518.435841 259.371495 
L 516.341424 260.283984 
L 514.708451 260.861275 
L 509.434366 262.866471 
L 505.588386 263.902358 
L 504.124826 264.304825 
L 502.010761 264.808134 
L 495.040012 266.366265 
L 493.71387 266.686696 
L 492.417732 266.796121 
L 490.987853 266.910576 
L 489.613263 267.080109 
L 487.959702 267.320621 
L 484.877544 267.860943 
L 481.853289 268.371658 
L 478.695386 268.753147 
L 475.283301 268.826222 
L 472.661017 268.686712 
L 469.826846 268.45628 
L 465.608787 268.173514 
L 464.02095 268.034944 
L 462.640908 267.91116 
L 461.318102 267.740783 
L 450.940312 266.001516 
L 446.613016 264.785899 
L 445.395085 264.4101 
L 442.015813 263.533992 
L 439.124605 262.685737 
L 436.186128 261.89338 
L 434.812339 261.359125 
L 432.52591 260.333065 
L 430.525954 259.28432 
L 423.666365 256.007181 
L 421.172015 254.380466 
L 420.295322 253.78724 
L 419.163819 252.96181 
L 415.55983 250.483877 
L 412.643858 248.106848 
L 412.018029 247.452261 
L 411.05077 246.476823 
L 407.59389 242.896999 
L 403.90773 238.505887 
L 402.33813 235.990681 
L 401.734136 234.647329 
L 401.153502 232.694061 
L 400.785474 230.861977 
L 400.697317 227.750733 
L 400.831501 226.272017 
L 400.993615 225.525864 
L 401.112961 224.654668 
L 401.548844 220.170645 
L 402.063938 218.53493 
L 402.365869 217.584657 
L 402.593107 216.719966 
L 403.769205 214.09103 
L 407.296345 207.626659 
L 408.534492 205.869653 
L 409.307104 204.867947 
L 410.348274 203.385932 
L 412.593076 200.574713 
L 417.4121 196.475991 
L 421.077658 194.226028 
L 425.368228 191.548224 
L 427.934577 189.815951 
L 429.5069 189.071976 
L 436.922039 185.99676 
L 439.251277 185.106381 
L 441.406162 184.29896 
L 443.501979 183.570844 
L 446.449187 182.589592 
L 452.152791 181.30751 
L 453.692952 180.990681 
L 455.939216 180.437921 
L 458.241118 180.287169 
L 460.938246 180.077473 
L 464.143008 179.96387 
L 465.288287 179.884649 
L 466.483136 179.785972 
L 468.24197 179.7159 
L 471.124746 179.646778 
L 475.927051 179.654334 
L 479.940328 179.688902 
L 487.260504 180.380997 
L 499.288523 183.109152 
L 510.824689 186.567925 
L 518.359506 189.572799 
L 520.207469 190.21098 
L 523.404099 191.569373 
L 526.608145 193.183147 
L 532.476261 196.723251 
L 537.89523 200.189888 
L 540.09149 201.472905 
L 542.509851 203.144264 
L 551.531899 211.08325 
L 552.728945 212.145923 
L 553.864211 213.129183 
L 556.091345 215.077823 
L 562.695457 221.882132 
L 563.810148 223.224375 
L 564.033599 223.911364 
L 564.218182 225.89057 
L 564.218182 225.89057 
" clip-path="url(#pea05a8d932)" style="fill: none; stroke: #2ca02c; stroke-width: 1.5; stroke-linecap: square"/>
   </g>
   <g id="text_6">
    <!-- Linear - MDA_MB_231 -->
    <g transform="translate(373.785937 165.24) scale(0.2 -0.2)">
     <use xlink:href="#DejaVuSans-4c"/>
     <use xlink:href="#DejaVuSans-69" x="55.712891"/>
     <use xlink:href="#DejaVuSans-6e" x="83.496094"/>
     <use xlink:href="#DejaVuSans-65" x="146.875"/>
     <use xlink:href="#DejaVuSans-61" x="208.398438"/>
     <use xlink:href="#DejaVuSans-72" x="269.677734"/>
     <use xlink:href="#DejaVuSans-20" x="310.791016"/>
     <use xlink:href="#DejaVuSans-2d" x="342.578125"/>
     <use xlink:href="#DejaVuSans-20" x="378.662109"/>
     <use xlink:href="#DejaVuSans-4d" x="410.449219"/>
     <use xlink:href="#DejaVuSans-44" x="496.728516"/>
     <use xlink:href="#DejaVuSans-41" x="571.980469"/>
     <use xlink:href="#DejaVuSans-5f" x="640.388672"/>
     <use xlink:href="#DejaVuSans-4d" x="690.388672"/>
     <use xlink:href="#DejaVuSans-42" x="776.667969"/>
     <use xlink:href="#DejaVuSans-5f" x="845.271484"/>
     <use xlink:href="#DejaVuSans-32" x="895.271484"/>
     <use xlink:href="#DejaVuSans-33" x="958.894531"/>
     <use xlink:href="#DejaVuSans-31" x="1022.517578"/>
    </g>
   </g>
  </g>
 </g>
 <defs>
  <clipPath id="p9f53207de0">
   <rect x="10.8" y="32.64" width="180" height="105.96"/>
  </clipPath>
  <clipPath id="p2d2bd999d3">
   <rect x="201.6" y="32.64" width="180" height="105.96"/>
  </clipPath>
  <clipPath id="pe8d2bb52df">
   <rect x="392.4" y="32.64" width="180" height="105.96"/>
  </clipPath>
  <clipPath id="p5e06164877">
   <rect x="10.8" y="171.24" width="180" height="105.96"/>
  </clipPath>
  <clipPath id="p9786116063">
   <rect x="201.6" y="171.24" width="180" height="105.96"/>
  </clipPath>
  <clipPath id="pea05a8d932">
   <rect x="392.4" y="171.24" width="180" height="105.96"/>
  </clipPath>
 </defs>
</svg>
