<?xml version="1.0" encoding="utf-8" standalone="no"?>
<!DOCTYPE svg PUBLIC "-//W3C//DTD SVG 1.1//EN"
  "http://www.w3.org/Graphics/SVG/1.1/DTD/svg11.dtd">
<svg xmlns:xlink="http://www.w3.org/1999/xlink" width="583.2pt" height="288pt" viewBox="0 0 583.2 288" xmlns="http://www.w3.org/2000/svg" version="1.1">
 <metadata>
  <rdf:RDF xmlns:dc="http://purl.org/dc/elements/1.1/" xmlns:cc="http://creativecommons.org/ns#" xmlns:rdf="http://www.w3.org/1999/02/22-rdf-syntax-ns#">
   <cc:Work>
    <dc:type rdf:resource="http://purl.org/dc/dcmitype/StillImage"/>
    <dc:date>2024-04-25T10:32:56.706818</dc:date>
    <dc:format>image/svg+xml</dc:format>
    <dc:creator>
     <cc:Agent>
      <dc:title>Matplotlib v3.8.4, https://matplotlib.org/</dc:title>
     </cc:Agent>
    </dc:creator>
   </cc:Work>
  </rdf:RDF>
 </metadata>
 <defs>
  <style type="text/css">*{stroke-linejoin: round; stroke-linecap: butt}</style>
 </defs>
 <g id="figure_1">
  <g id="patch_1">
   <path d="M 0 288 
L 583.2 288 
L 583.2 0 
L 0 0 
z
" style="fill: #ffffff"/>
  </g>
  <g id="axes_1">
   <g id="line2d_1">
    <path d="M 182.618182 85.458084 
L 182.212531 86.390469 
L 181.654136 88.019522 
L 181.372081 88.607975 
L 179.957578 89.701526 
L 177.614244 91.017132 
L 176.404994 91.534136 
L 175.018931 92.354212 
L 169.603236 95.227771 
L 164.526101 97.231263 
L 162.942653 97.817071 
L 161.769029 98.347611 
L 158.870851 99.426882 
L 154.811104 100.718479 
L 151.290708 101.785815 
L 147.943541 102.79136 
L 146.413163 103.117016 
L 135.948845 104.954993 
L 130.446363 105.817605 
L 128.235745 106.199748 
L 119.847692 107.136972 
L 117.636786 107.019623 
L 116.18364 107.055924 
L 112.370162 107.314534 
L 109.330779 107.242478 
L 106.722636 107.256895 
L 104.894363 107.329584 
L 103.724032 107.386262 
L 102.216501 107.294248 
L 100.126027 107.382663 
L 96.541396 107.523656 
L 94.687741 107.568898 
L 91.594036 107.693848 
L 90.506046 107.605422 
L 88.723328 107.718878 
L 86.374824 107.64561 
L 84.0424 107.430253 
L 81.092507 107.184865 
L 79.426574 107.07887 
L 76.214099 106.825125 
L 71.749531 106.228274 
L 69.896616 105.778639 
L 67.288002 105.41907 
L 65.48521 105.066146 
L 61.304485 104.622075 
L 59.973425 104.378939 
L 58.449459 104.204891 
L 53.206095 103.28699 
L 49.497656 102.612718 
L 47.336191 102.228611 
L 45.923932 102.069746 
L 43.929718 101.526858 
L 42.834751 101.301764 
L 41.796518 101.009629 
L 40.062429 100.469927 
L 38.118308 100.081244 
L 36.548531 99.525094 
L 31.120257 97.490179 
L 29.826819 96.865308 
L 28.183667 96.185604 
L 25.644936 94.599997 
L 24.699758 93.944203 
L 23.772494 93.278331 
L 22.725412 92.551639 
L 22.024995 92.026105 
L 20.883678 91.109827 
L 19.29921 89.732899 
L 18.990806 88.511917 
L 19.234221 87.907103 
L 20.223632 87.03749 
L 20.777929 86.688453 
L 21.741852 86.063325 
L 22.280296 85.708136 
L 22.922369 85.266554 
L 26.774166 82.801008 
L 28.971113 81.492917 
L 30.498663 80.499119 
L 33.74856 78.980486 
L 35.073947 78.361788 
L 36.530016 77.588144 
L 39.089294 76.465768 
L 41.835612 75.312122 
L 42.89725 74.866456 
L 43.669672 74.498699 
L 46.075263 73.528383 
L 48.017169 72.966429 
L 52.928826 71.640613 
L 67.522659 68.08093 
L 68.938942 67.666941 
L 70.959155 67.144367 
L 72.630946 66.78583 
L 73.895958 66.569844 
L 75.573351 66.332263 
L 77.398494 65.922137 
L 79.92591 65.450248 
L 82.700403 65.099582 
L 86.620493 64.836181 
L 91.64415 64.234602 
L 97.885878 63.750525 
L 101.753737 63.589408 
L 109.989074 63.75475 
L 113.943538 64.122789 
L 118.348994 64.405422 
L 124.06004 64.79334 
L 131.581556 65.633553 
L 132.997845 65.947633 
L 136.778058 66.43369 
L 139.479827 66.686304 
L 142.388307 67.038562 
L 143.697697 67.185362 
L 145.286417 67.383906 
L 146.589878 67.690267 
L 147.737586 67.916866 
L 150.053439 68.297617 
L 151.240164 68.542034 
L 157.665185 69.631209 
L 162.613818 71.027519 
L 163.905068 71.40475 
L 168.8693 73.291839 
L 169.84933 73.825657 
L 171.569267 74.825433 
L 177.104521 77.895047 
L 179.565017 78.966019 
L 180.079636 79.645059 
L 180.25224 80.042577 
L 180.618893 81.573242 
L 181.298804 86.460468 
L 181.667196 88.782573 
L 181.624735 89.765513 
L 181.624735 89.765513 
" clip-path="url(#p65385a5eb1)" style="fill: none; stroke: #1f77b4; stroke-width: 1.5; stroke-linecap: square"/>
   </g>
   <g id="text_1">
    <!-- SRV - MCF10A -->
    <g transform="translate(30.320313 26.64) scale(0.2 -0.2)">
     <defs>
      <path id="DejaVuSans-53" d="M 3425 4513 
L 3425 3897 
Q 3066 4069 2747 4153 
Q 2428 4238 2131 4238 
Q 1616 4238 1336 4038 
Q 1056 3838 1056 3469 
Q 1056 3159 1242 3001 
Q 1428 2844 1947 2747 
L 2328 2669 
Q 3034 2534 3370 2195 
Q 3706 1856 3706 1288 
Q 3706 609 3251 259 
Q 2797 -91 1919 -91 
Q 1588 -91 1214 -16 
Q 841 59 441 206 
L 441 856 
Q 825 641 1194 531 
Q 1563 422 1919 422 
Q 2459 422 2753 634 
Q 3047 847 3047 1241 
Q 3047 1584 2836 1778 
Q 2625 1972 2144 2069 
L 1759 2144 
Q 1053 2284 737 2584 
Q 422 2884 422 3419 
Q 422 4038 858 4394 
Q 1294 4750 2059 4750 
Q 2388 4750 2728 4690 
Q 3069 4631 3425 4513 
z
" transform="scale(0.015625)"/>
      <path id="DejaVuSans-52" d="M 2841 2188 
Q 3044 2119 3236 1894 
Q 3428 1669 3622 1275 
L 4263 0 
L 3584 0 
L 2988 1197 
Q 2756 1666 2539 1819 
Q 2322 1972 1947 1972 
L 1259 1972 
L 1259 0 
L 628 0 
L 628 4666 
L 2053 4666 
Q 2853 4666 3247 4331 
Q 3641 3997 3641 3322 
Q 3641 2881 3436 2590 
Q 3231 2300 2841 2188 
z
M 1259 4147 
L 1259 2491 
L 2053 2491 
Q 2509 2491 2742 2702 
Q 2975 2913 2975 3322 
Q 2975 3731 2742 3939 
Q 2509 4147 2053 4147 
L 1259 4147 
z
" transform="scale(0.015625)"/>
      <path id="DejaVuSans-56" d="M 1831 0 
L 50 4666 
L 709 4666 
L 2188 738 
L 3669 4666 
L 4325 4666 
L 2547 0 
L 1831 0 
z
" transform="scale(0.015625)"/>
      <path id="DejaVuSans-20" transform="scale(0.015625)"/>
      <path id="DejaVuSans-2d" d="M 313 2009 
L 1997 2009 
L 1997 1497 
L 313 1497 
L 313 2009 
z
" transform="scale(0.015625)"/>
      <path id="DejaVuSans-4d" d="M 628 4666 
L 1569 4666 
L 2759 1491 
L 3956 4666 
L 4897 4666 
L 4897 0 
L 4281 0 
L 4281 4097 
L 3078 897 
L 2444 897 
L 1241 4097 
L 1241 0 
L 628 0 
L 628 4666 
z
" transform="scale(0.015625)"/>
      <path id="DejaVuSans-43" d="M 4122 4306 
L 4122 3641 
Q 3803 3938 3442 4084 
Q 3081 4231 2675 4231 
Q 1875 4231 1450 3742 
Q 1025 3253 1025 2328 
Q 1025 1406 1450 917 
Q 1875 428 2675 428 
Q 3081 428 3442 575 
Q 3803 722 4122 1019 
L 4122 359 
Q 3791 134 3420 21 
Q 3050 -91 2638 -91 
Q 1578 -91 968 557 
Q 359 1206 359 2328 
Q 359 3453 968 4101 
Q 1578 4750 2638 4750 
Q 3056 4750 3426 4639 
Q 3797 4528 4122 4306 
z
" transform="scale(0.015625)"/>
      <path id="DejaVuSans-46" d="M 628 4666 
L 3309 4666 
L 3309 4134 
L 1259 4134 
L 1259 2759 
L 3109 2759 
L 3109 2228 
L 1259 2228 
L 1259 0 
L 628 0 
L 628 4666 
z
" transform="scale(0.015625)"/>
      <path id="DejaVuSans-31" d="M 794 531 
L 1825 531 
L 1825 4091 
L 703 3866 
L 703 4441 
L 1819 4666 
L 2450 4666 
L 2450 531 
L 3481 531 
L 3481 0 
L 794 0 
L 794 531 
z
" transform="scale(0.015625)"/>
      <path id="DejaVuSans-30" d="M 2034 4250 
Q 1547 4250 1301 3770 
Q 1056 3291 1056 2328 
Q 1056 1369 1301 889 
Q 1547 409 2034 409 
Q 2525 409 2770 889 
Q 3016 1369 3016 2328 
Q 3016 3291 2770 3770 
Q 2525 4250 2034 4250 
z
M 2034 4750 
Q 2819 4750 3233 4129 
Q 3647 3509 3647 2328 
Q 3647 1150 3233 529 
Q 2819 -91 2034 -91 
Q 1250 -91 836 529 
Q 422 1150 422 2328 
Q 422 3509 836 4129 
Q 1250 4750 2034 4750 
z
" transform="scale(0.015625)"/>
      <path id="DejaVuSans-41" d="M 2188 4044 
L 1331 1722 
L 3047 1722 
L 2188 4044 
z
M 1831 4666 
L 2547 4666 
L 4325 0 
L 3669 0 
L 3244 1197 
L 1141 1197 
L 716 0 
L 50 0 
L 1831 4666 
z
" transform="scale(0.015625)"/>
     </defs>
     <use xlink:href="#DejaVuSans-53"/>
     <use xlink:href="#DejaVuSans-52" x="63.476562"/>
     <use xlink:href="#DejaVuSans-56" x="127.458984"/>
     <use xlink:href="#DejaVuSans-20" x="195.867188"/>
     <use xlink:href="#DejaVuSans-2d" x="227.654297"/>
     <use xlink:href="#DejaVuSans-20" x="263.738281"/>
     <use xlink:href="#DejaVuSans-4d" x="295.525391"/>
     <use xlink:href="#DejaVuSans-43" x="381.804688"/>
     <use xlink:href="#DejaVuSans-46" x="451.628906"/>
     <use xlink:href="#DejaVuSans-31" x="509.148438"/>
     <use xlink:href="#DejaVuSans-30" x="572.771484"/>
     <use xlink:href="#DejaVuSans-41" x="636.394531"/>
    </g>
   </g>
  </g>
  <g id="axes_2">
   <g id="line2d_2">
    <path d="M 373.418182 79.359576 
L 372.459718 80.940024 
L 370.929321 83.943634 
L 370.428244 84.326433 
L 369.878263 84.804143 
L 368.737438 85.347715 
L 367.360024 86.088923 
L 366.191679 86.897385 
L 364.426053 88.851705 
L 363.846438 89.363807 
L 363.311283 89.756523 
L 360.014267 92.235543 
L 357.712956 93.634821 
L 355.038142 94.93325 
L 352.714469 96.332331 
L 351.063821 97.524681 
L 346.394369 100.095961 
L 343.948012 101.820645 
L 341.06279 103.335682 
L 339.038048 104.422986 
L 337.637131 105.031328 
L 332.118555 107.585914 
L 330.575119 108.402519 
L 328.059936 109.348599 
L 324.412445 110.799132 
L 321.183572 111.943012 
L 319.821399 112.462034 
L 317.714278 113.26473 
L 315.335276 114.23542 
L 310.378967 115.715712 
L 306.831893 116.328219 
L 304.050902 116.606066 
L 299.628778 117.410785 
L 297.596997 117.729605 
L 296.230302 117.85276 
L 279.930352 118.480057 
L 272.437969 118.230665 
L 267.275581 117.6104 
L 257.294152 115.7657 
L 254.080448 114.908315 
L 252.44746 114.490858 
L 250.931334 113.951861 
L 249.669143 113.614018 
L 248.33134 113.296784 
L 243.739107 111.696597 
L 241.117514 110.614755 
L 239.686481 109.963178 
L 235.2556 107.488877 
L 227.411544 103.338602 
L 226.112311 102.369694 
L 223.12934 99.986784 
L 222.275393 99.182412 
L 221.210885 98.354962 
L 219.873651 97.177814 
L 219.097752 96.624448 
L 217.698611 95.479961 
L 213.938174 91.725336 
L 213.301506 91.026716 
L 212.204997 90.264389 
L 210.257634 88.60775 
L 209.806994 87.614782 
L 209.825424 86.576455 
L 209.984107 85.882517 
L 210.275124 85.39396 
L 210.768824 84.70801 
L 211.366443 84.221784 
L 211.919855 83.804393 
L 212.785103 83.236024 
L 215.484516 81.455521 
L 218.576769 78.20459 
L 226.625736 71.534191 
L 227.753998 70.801622 
L 237.168485 64.559705 
L 240.256083 63.105074 
L 243.195345 62.030504 
L 245.527537 61.118278 
L 250.680452 59.147303 
L 252.693396 58.541064 
L 258.267051 56.762738 
L 264.31481 55.517127 
L 271.13 54.671934 
L 274.993045 54.035301 
L 280.035271 53.379125 
L 285.052853 52.830206 
L 287.609326 52.86171 
L 289.347493 52.807965 
L 292.233635 52.868254 
L 297.374232 52.835127 
L 305.264941 53.215453 
L 308.741336 53.671171 
L 310.411254 53.910824 
L 311.610619 54.139222 
L 312.916537 54.427122 
L 314.440787 54.657405 
L 317.234338 55.377243 
L 318.081647 55.612154 
L 320.238835 56.046453 
L 321.758089 56.624705 
L 323.351993 57.136068 
L 325.503065 57.718522 
L 327.920404 58.62261 
L 330.391453 59.187917 
L 331.564659 59.643578 
L 332.858478 60.176301 
L 334.468381 60.753904 
L 336.244244 61.473624 
L 338.822097 62.182279 
L 340.888267 63.106659 
L 344.60814 64.698998 
L 346.494025 65.70882 
L 347.461799 66.269176 
L 350.143533 68.086627 
L 351.572789 68.821206 
L 353.607483 69.996805 
L 354.914419 70.775812 
L 356.605667 71.974771 
L 358.581469 73.109403 
L 362.050203 76.01506 
L 365.272812 79.305882 
L 365.917944 79.658928 
L 367.323952 80.345882 
L 368.454975 81.34617 
L 368.823879 82.035144 
L 369.420359 84.307256 
L 370.396772 87.649616 
L 371.196808 90.166093 
L 371.217525 90.566353 
L 371.217525 90.566353 
" clip-path="url(#pe89e162639)" style="fill: none; stroke: #ff7f0e; stroke-width: 1.5; stroke-linecap: square"/>
   </g>
   <g id="text_2">
    <!-- SRV - MCF7 -->
    <g transform="translate(234.323437 26.64) scale(0.2 -0.2)">
     <defs>
      <path id="DejaVuSans-37" d="M 525 4666 
L 3525 4666 
L 3525 4397 
L 1831 0 
L 1172 0 
L 2766 4134 
L 525 4134 
L 525 4666 
z
" transform="scale(0.015625)"/>
     </defs>
     <use xlink:href="#DejaVuSans-53"/>
     <use xlink:href="#DejaVuSans-52" x="63.476562"/>
     <use xlink:href="#DejaVuSans-56" x="127.458984"/>
     <use xlink:href="#DejaVuSans-20" x="195.867188"/>
     <use xlink:href="#DejaVuSans-2d" x="227.654297"/>
     <use xlink:href="#DejaVuSans-20" x="263.738281"/>
     <use xlink:href="#DejaVuSans-4d" x="295.525391"/>
     <use xlink:href="#DejaVuSans-43" x="381.804688"/>
     <use xlink:href="#DejaVuSans-46" x="451.628906"/>
     <use xlink:href="#DejaVuSans-37" x="509.148438"/>
    </g>
   </g>
  </g>
  <g id="axes_3">
   <g id="line2d_3">
    <path d="M 564.186996 84.438945 
L 563.709163 85.524768 
L 562.969339 87.484158 
L 561.619746 88.595485 
L 557.704941 90.086517 
L 555.498737 91.256014 
L 554.082164 91.91835 
L 552.509917 92.600662 
L 547.521242 94.329499 
L 546.006239 94.774702 
L 536.086387 97.999235 
L 532.289306 98.933094 
L 530.345382 99.433705 
L 527.59575 99.932667 
L 515.762266 102.681435 
L 512.025157 103.467806 
L 510.326858 103.832104 
L 505.856951 104.43476 
L 504.701427 104.529961 
L 499.859336 105.263682 
L 495.228807 105.811982 
L 490.529721 105.622149 
L 489.321073 105.455575 
L 487.564378 105.486713 
L 485.112132 105.438696 
L 483.590406 105.384539 
L 479.855079 105.40758 
L 477.6852 105.411301 
L 474.659999 105.416254 
L 472.330974 105.371468 
L 468.675888 105.141625 
L 465.988289 104.961215 
L 464.745176 104.886161 
L 459.851299 104.169052 
L 454.41469 103.645866 
L 452.974507 103.450098 
L 450.264799 102.98209 
L 446.944299 102.576901 
L 443.615636 101.804044 
L 441.728172 101.391883 
L 440.323479 101.159638 
L 438.747734 100.949267 
L 435.28976 100.438919 
L 433.290275 100.186039 
L 428.230827 99.039489 
L 426.447932 98.56146 
L 425.226586 98.174936 
L 424.068942 97.783079 
L 419.347861 96.361408 
L 416.797268 95.449817 
L 415.532843 94.986032 
L 413.877636 94.349243 
L 412.5318 93.875508 
L 408.59735 92.167666 
L 407.691111 91.772478 
L 406.634158 91.16639 
L 404.899905 90.218441 
L 401.011883 87.261621 
L 400.637456 86.552332 
L 400.666972 85.864954 
L 400.830484 85.636885 
L 400.964766 85.450945 
L 402.031461 84.406583 
L 402.536169 84.025547 
L 403.256848 83.545342 
L 404.95853 82.704383 
L 406.365897 82.168959 
L 410.429719 79.966471 
L 413.213804 78.665711 
L 414.690148 77.979744 
L 416.69605 77.048693 
L 418.13919 76.368051 
L 419.173846 75.968291 
L 421.347744 75.130391 
L 422.981439 74.654112 
L 424.860119 74.056439 
L 427.26961 73.187567 
L 429.501742 72.564776 
L 430.632648 72.301676 
L 432.777774 71.6806 
L 438.306817 70.114016 
L 439.680941 69.77141 
L 444.736502 68.492114 
L 448.007742 67.926597 
L 452.638044 67.363781 
L 454.046578 67.163255 
L 456.196152 66.73572 
L 457.782466 66.538315 
L 460.274816 66.177092 
L 462.58893 65.909841 
L 466.877238 65.607375 
L 469.544939 65.644272 
L 472.553873 65.472052 
L 474.642996 65.46653 
L 477.170248 65.560589 
L 478.642634 65.656866 
L 480.316478 65.715841 
L 487.65405 65.761596 
L 494.125772 65.722321 
L 496.607076 65.879266 
L 499.681078 66.042338 
L 501.727215 66.318799 
L 505.130199 66.509992 
L 512.762146 67.442821 
L 514.427354 67.648616 
L 520.618646 68.666031 
L 523.350748 69.04329 
L 524.97388 69.335894 
L 532.420205 70.655986 
L 534.465402 70.966526 
L 535.941242 71.245745 
L 538.151638 71.655193 
L 540.507782 72.272025 
L 550.483812 74.987145 
L 552.11166 75.318508 
L 553.965274 75.826267 
L 555.831361 76.487487 
L 559.740743 78.298135 
L 561.021444 78.602996 
L 562.183856 79.109964 
L 562.595588 79.594978 
L 562.861555 80.152667 
L 563.115267 81.256705 
L 563.445717 82.719207 
L 563.892037 84.66671 
L 564.150572 87.459765 
L 564.150572 87.459765 
" clip-path="url(#p78d8578583)" style="fill: none; stroke: #2ca02c; stroke-width: 1.5; stroke-linecap: square"/>
   </g>
   <g id="text_3">
    <!-- SRV - MDA_MB_231 -->
    <g transform="translate(385.278125 26.64) scale(0.2 -0.2)">
     <defs>
      <path id="DejaVuSans-44" d="M 1259 4147 
L 1259 519 
L 2022 519 
Q 2988 519 3436 956 
Q 3884 1394 3884 2338 
Q 3884 3275 3436 3711 
Q 2988 4147 2022 4147 
L 1259 4147 
z
M 628 4666 
L 1925 4666 
Q 3281 4666 3915 4102 
Q 4550 3538 4550 2338 
Q 4550 1131 3912 565 
Q 3275 0 1925 0 
L 628 0 
L 628 4666 
z
" transform="scale(0.015625)"/>
      <path id="DejaVuSans-5f" d="M 3263 -1063 
L 3263 -1509 
L -63 -1509 
L -63 -1063 
L 3263 -1063 
z
" transform="scale(0.015625)"/>
      <path id="DejaVuSans-42" d="M 1259 2228 
L 1259 519 
L 2272 519 
Q 2781 519 3026 730 
Q 3272 941 3272 1375 
Q 3272 1813 3026 2020 
Q 2781 2228 2272 2228 
L 1259 2228 
z
M 1259 4147 
L 1259 2741 
L 2194 2741 
Q 2656 2741 2882 2914 
Q 3109 3088 3109 3444 
Q 3109 3797 2882 3972 
Q 2656 4147 2194 4147 
L 1259 4147 
z
M 628 4666 
L 2241 4666 
Q 2963 4666 3353 4366 
Q 3744 4066 3744 3513 
Q 3744 3084 3544 2831 
Q 3344 2578 2956 2516 
Q 3422 2416 3680 2098 
Q 3938 1781 3938 1306 
Q 3938 681 3513 340 
Q 3088 0 2303 0 
L 628 0 
L 628 4666 
z
" transform="scale(0.015625)"/>
      <path id="DejaVuSans-32" d="M 1228 531 
L 3431 531 
L 3431 0 
L 469 0 
L 469 531 
Q 828 903 1448 1529 
Q 2069 2156 2228 2338 
Q 2531 2678 2651 2914 
Q 2772 3150 2772 3378 
Q 2772 3750 2511 3984 
Q 2250 4219 1831 4219 
Q 1534 4219 1204 4116 
Q 875 4013 500 3803 
L 500 4441 
Q 881 4594 1212 4672 
Q 1544 4750 1819 4750 
Q 2544 4750 2975 4387 
Q 3406 4025 3406 3419 
Q 3406 3131 3298 2873 
Q 3191 2616 2906 2266 
Q 2828 2175 2409 1742 
Q 1991 1309 1228 531 
z
" transform="scale(0.015625)"/>
      <path id="DejaVuSans-33" d="M 2597 2516 
Q 3050 2419 3304 2112 
Q 3559 1806 3559 1356 
Q 3559 666 3084 287 
Q 2609 -91 1734 -91 
Q 1441 -91 1130 -33 
Q 819 25 488 141 
L 488 750 
Q 750 597 1062 519 
Q 1375 441 1716 441 
Q 2309 441 2620 675 
Q 2931 909 2931 1356 
Q 2931 1769 2642 2001 
Q 2353 2234 1838 2234 
L 1294 2234 
L 1294 2753 
L 1863 2753 
Q 2328 2753 2575 2939 
Q 2822 3125 2822 3475 
Q 2822 3834 2567 4026 
Q 2313 4219 1838 4219 
Q 1578 4219 1281 4162 
Q 984 4106 628 3988 
L 628 4550 
Q 988 4650 1302 4700 
Q 1616 4750 1894 4750 
Q 2613 4750 3031 4423 
Q 3450 4097 3450 3541 
Q 3450 3153 3228 2886 
Q 3006 2619 2597 2516 
z
" transform="scale(0.015625)"/>
     </defs>
     <use xlink:href="#DejaVuSans-53"/>
     <use xlink:href="#DejaVuSans-52" x="63.476562"/>
     <use xlink:href="#DejaVuSans-56" x="127.458984"/>
     <use xlink:href="#DejaVuSans-20" x="195.867188"/>
     <use xlink:href="#DejaVuSans-2d" x="227.654297"/>
     <use xlink:href="#DejaVuSans-20" x="263.738281"/>
     <use xlink:href="#DejaVuSans-4d" x="295.525391"/>
     <use xlink:href="#DejaVuSans-44" x="381.804688"/>
     <use xlink:href="#DejaVuSans-41" x="457.056641"/>
     <use xlink:href="#DejaVuSans-5f" x="525.464844"/>
     <use xlink:href="#DejaVuSans-4d" x="575.464844"/>
     <use xlink:href="#DejaVuSans-42" x="661.744141"/>
     <use xlink:href="#DejaVuSans-5f" x="730.347656"/>
     <use xlink:href="#DejaVuSans-32" x="780.347656"/>
     <use xlink:href="#DejaVuSans-33" x="843.970703"/>
     <use xlink:href="#DejaVuSans-31" x="907.59375"/>
    </g>
   </g>
  </g>
  <g id="axes_4">
   <g id="line2d_4">
    <path d="M 182.453556 227.966764 
L 181.022851 229.093408 
L 180.535407 229.934003 
L 179.968827 230.773124 
L 178.754726 232.185769 
L 177.757152 233.288288 
L 174.940042 236.208198 
L 173.69336 237.232623 
L 171.278055 239.482815 
L 169.574539 240.857093 
L 168.370642 241.943909 
L 167.234611 243.039684 
L 164.113649 245.604315 
L 159.878498 248.587871 
L 158.403247 249.47831 
L 156.401417 250.726411 
L 155.282976 251.483348 
L 152.798259 253.03279 
L 149.581909 255.00865 
L 146.83871 256.307687 
L 142.409571 258.526767 
L 140.688556 259.571146 
L 138.662218 260.510679 
L 136.109778 261.576682 
L 134.400646 262.441623 
L 132.307045 263.232965 
L 129.589743 264.165016 
L 127.822978 264.795009 
L 116.990774 267.926754 
L 109.865555 269.690177 
L 105.860388 270.178252 
L 104.437166 270.28309 
L 96.289905 271.403235 
L 81.739186 270.999899 
L 72.443884 270.392839 
L 68.555494 269.81023 
L 66.011248 269.306951 
L 58.365823 267.614513 
L 55.051861 266.682494 
L 53.322857 265.875021 
L 50.112197 264.46056 
L 47.306632 263.149676 
L 45.127356 262.121914 
L 43.466811 261.470664 
L 42.054286 260.575993 
L 40.67999 259.649408 
L 38.320591 258.065788 
L 33.493284 254.781489 
L 31.897309 253.500521 
L 30.407523 251.896228 
L 29.207467 250.331231 
L 28.093289 248.738208 
L 27.096687 247.111812 
L 25.525764 244.894479 
L 23.612935 241.409763 
L 23.184526 240.29305 
L 20.03374 233.434919 
L 19.726014 231.974918 
L 18.981818 227.756327 
L 19.094398 222.354493 
L 19.456747 219.038625 
L 19.690221 218.043706 
L 20.685716 215.265196 
L 24.052336 208.378201 
L 25.099062 207.067173 
L 27.546979 204.05485 
L 28.792523 202.949979 
L 29.681492 202.201865 
L 33.556023 198.234959 
L 35.958702 196.60865 
L 37.281543 195.665891 
L 38.560479 194.744869 
L 39.380104 194.232188 
L 41.137765 193.031147 
L 43.17741 191.700432 
L 46.275304 189.879301 
L 47.854087 188.977074 
L 52.593152 186.868224 
L 54.335149 186.218173 
L 56.601227 185.374804 
L 62.121254 183.059847 
L 68.16349 181.394974 
L 69.773196 181.183646 
L 71.372136 180.919397 
L 73.170826 180.574669 
L 74.655737 180.202734 
L 77.866294 179.282188 
L 83.67341 177.959539 
L 87.407658 177.318081 
L 89.179901 177.202524 
L 92.712335 177.065235 
L 94.530627 177.095974 
L 97.119678 177.220831 
L 98.682455 177.248574 
L 106.582515 177.987487 
L 109.253318 178.552795 
L 111.247033 178.8021 
L 113.05864 179.199151 
L 114.571504 179.559615 
L 118.771419 180.541818 
L 122.971335 181.762752 
L 125.291107 182.567681 
L 126.307259 182.939254 
L 128.20968 183.638148 
L 134.743226 186.030325 
L 137.706361 187.423153 
L 142.991981 189.620876 
L 144.76213 190.417326 
L 147.43313 191.938337 
L 148.644764 192.522729 
L 150.185199 193.297977 
L 152.716656 194.824678 
L 155.018753 196.423204 
L 157.191658 197.99598 
L 159.257927 199.636441 
L 160.396171 200.760646 
L 162.33489 202.027544 
L 164.335641 203.78884 
L 165.284214 204.661452 
L 166.567919 205.829404 
L 167.934558 207.070257 
L 169.142679 208.361106 
L 170.44682 209.638005 
L 171.389257 210.635483 
L 172.699742 212.014166 
L 174.07217 213.706435 
L 175.085859 214.870289 
L 176.488975 216.98005 
L 177.199522 217.976499 
L 178.384549 219.662241 
L 180.848769 223.781244 
L 181.348653 224.381217 
L 182.048202 225.066995 
L 182.365878 225.671582 
L 182.537208 226.714176 
L 182.618182 227.550112 
L 182.618182 227.550112 
" clip-path="url(#pef29a606bc)" style="fill: none; stroke: #1f77b4; stroke-width: 1.5; stroke-linecap: square"/>
   </g>
   <g id="text_4">
    <!-- Linear - MCF10A -->
    <g transform="translate(18.828125 165.24) scale(0.2 -0.2)">
     <defs>
      <path id="DejaVuSans-4c" d="M 628 4666 
L 1259 4666 
L 1259 531 
L 3531 531 
L 3531 0 
L 628 0 
L 628 4666 
z
" transform="scale(0.015625)"/>
      <path id="DejaVuSans-69" d="M 603 3500 
L 1178 3500 
L 1178 0 
L 603 0 
L 603 3500 
z
M 603 4863 
L 1178 4863 
L 1178 4134 
L 603 4134 
L 603 4863 
z
" transform="scale(0.015625)"/>
      <path id="DejaVuSans-6e" d="M 3513 2113 
L 3513 0 
L 2938 0 
L 2938 2094 
Q 2938 2591 2744 2837 
Q 2550 3084 2163 3084 
Q 1697 3084 1428 2787 
Q 1159 2491 1159 1978 
L 1159 0 
L 581 0 
L 581 3500 
L 1159 3500 
L 1159 2956 
Q 1366 3272 1645 3428 
Q 1925 3584 2291 3584 
Q 2894 3584 3203 3211 
Q 3513 2838 3513 2113 
z
" transform="scale(0.015625)"/>
      <path id="DejaVuSans-65" d="M 3597 1894 
L 3597 1613 
L 953 1613 
Q 991 1019 1311 708 
Q 1631 397 2203 397 
Q 2534 397 2845 478 
Q 3156 559 3463 722 
L 3463 178 
Q 3153 47 2828 -22 
Q 2503 -91 2169 -91 
Q 1331 -91 842 396 
Q 353 884 353 1716 
Q 353 2575 817 3079 
Q 1281 3584 2069 3584 
Q 2775 3584 3186 3129 
Q 3597 2675 3597 1894 
z
M 3022 2063 
Q 3016 2534 2758 2815 
Q 2500 3097 2075 3097 
Q 1594 3097 1305 2825 
Q 1016 2553 972 2059 
L 3022 2063 
z
" transform="scale(0.015625)"/>
      <path id="DejaVuSans-61" d="M 2194 1759 
Q 1497 1759 1228 1600 
Q 959 1441 959 1056 
Q 959 750 1161 570 
Q 1363 391 1709 391 
Q 2188 391 2477 730 
Q 2766 1069 2766 1631 
L 2766 1759 
L 2194 1759 
z
M 3341 1997 
L 3341 0 
L 2766 0 
L 2766 531 
Q 2569 213 2275 61 
Q 1981 -91 1556 -91 
Q 1019 -91 701 211 
Q 384 513 384 1019 
Q 384 1609 779 1909 
Q 1175 2209 1959 2209 
L 2766 2209 
L 2766 2266 
Q 2766 2663 2505 2880 
Q 2244 3097 1772 3097 
Q 1472 3097 1187 3025 
Q 903 2953 641 2809 
L 641 3341 
Q 956 3463 1253 3523 
Q 1550 3584 1831 3584 
Q 2591 3584 2966 3190 
Q 3341 2797 3341 1997 
z
" transform="scale(0.015625)"/>
      <path id="DejaVuSans-72" d="M 2631 2963 
Q 2534 3019 2420 3045 
Q 2306 3072 2169 3072 
Q 1681 3072 1420 2755 
Q 1159 2438 1159 1844 
L 1159 0 
L 581 0 
L 581 3500 
L 1159 3500 
L 1159 2956 
Q 1341 3275 1631 3429 
Q 1922 3584 2338 3584 
Q 2397 3584 2469 3576 
Q 2541 3569 2628 3553 
L 2631 2963 
z
" transform="scale(0.015625)"/>
     </defs>
     <use xlink:href="#DejaVuSans-4c"/>
     <use xlink:href="#DejaVuSans-69" x="55.712891"/>
     <use xlink:href="#DejaVuSans-6e" x="83.496094"/>
     <use xlink:href="#DejaVuSans-65" x="146.875"/>
     <use xlink:href="#DejaVuSans-61" x="208.398438"/>
     <use xlink:href="#DejaVuSans-72" x="269.677734"/>
     <use xlink:href="#DejaVuSans-20" x="310.791016"/>
     <use xlink:href="#DejaVuSans-2d" x="342.578125"/>
     <use xlink:href="#DejaVuSans-20" x="378.662109"/>
     <use xlink:href="#DejaVuSans-4d" x="410.449219"/>
     <use xlink:href="#DejaVuSans-43" x="496.728516"/>
     <use xlink:href="#DejaVuSans-46" x="566.552734"/>
     <use xlink:href="#DejaVuSans-31" x="624.072266"/>
     <use xlink:href="#DejaVuSans-30" x="687.695312"/>
     <use xlink:href="#DejaVuSans-41" x="751.318359"/>
    </g>
   </g>
  </g>
  <g id="axes_5">
   <g id="line2d_5">
    <path d="M 349.819438 225.580552 
L 348.508765 226.893262 
L 347.642988 228.139034 
L 345.706143 230.840278 
L 343.107184 234.440135 
L 342.597501 235.294684 
L 340.85058 237.565355 
L 337.163225 243.500815 
L 336.225857 245.095669 
L 335.223999 246.388926 
L 334.724874 247.114576 
L 333.912373 248.352429 
L 332.608501 249.9404 
L 328.028551 254.699427 
L 325.532909 256.895423 
L 323.740856 258.649247 
L 321.56871 260.254809 
L 319.87723 261.359628 
L 312.12469 266.284437 
L 310.259107 267.378604 
L 308.698849 268.332982 
L 307.14834 269.243861 
L 306.266174 269.621326 
L 301.524373 271.023783 
L 295.6842 271.988177 
L 293.839654 272.101286 
L 285.590869 272.260847 
L 279.664194 271.616271 
L 277.016415 271.239002 
L 275.404042 270.977239 
L 270.556362 269.97718 
L 262.947902 267.068677 
L 255.789253 263.481508 
L 254.461524 262.470741 
L 248.046412 256.678301 
L 244.588958 252.634102 
L 242.731916 250.274534 
L 240.564495 247.05293 
L 239.58549 245.273568 
L 238.126924 242.491397 
L 237.511166 241.327178 
L 235.903987 237.860232 
L 235.296809 235.839231 
L 233.770537 230.416259 
L 233.270634 225.585296 
L 233.302388 223.868355 
L 233.349553 222.459906 
L 233.401142 218.705608 
L 233.616502 217.526091 
L 234.780925 213.790864 
L 242.086728 199.086478 
L 243.554337 196.657217 
L 244.754835 195.155088 
L 246.362747 193.425111 
L 250.858211 188.572125 
L 252.820233 186.908187 
L 256.447289 184.311836 
L 259.294868 182.450907 
L 260.446154 181.665219 
L 261.958402 180.918781 
L 264.859815 179.836382 
L 266.066953 179.440046 
L 268.047312 178.853918 
L 270.512275 178.124166 
L 274.460873 177.379402 
L 277.928801 176.814941 
L 278.967598 176.589499 
L 281.04178 176.435201 
L 283.387876 176.356824 
L 286.977535 176.086308 
L 295.083004 176.795419 
L 296.663604 177.14972 
L 298.633368 177.419147 
L 299.841312 177.697044 
L 302.693521 178.655287 
L 304.409929 179.327009 
L 306.15065 180.014135 
L 308.579151 181.345553 
L 309.918149 182.013606 
L 312.417694 183.156556 
L 317.001009 186.121674 
L 321.602879 189.639559 
L 325.924813 193.543836 
L 329.488982 197.123178 
L 330.424094 198.436109 
L 332.021951 200.651629 
L 333.199252 202.295685 
L 336.07689 206.065985 
L 337.23881 207.437111 
L 339.177914 209.677667 
L 342.611352 214.48979 
L 345.328165 218.041106 
L 347.503487 220.851069 
L 349.579914 223.592285 
L 349.803454 224.383814 
L 349.937194 225.230986 
L 349.937194 225.230986 
" clip-path="url(#padb1a1c24d)" style="fill: none; stroke: #ff7f0e; stroke-width: 1.5; stroke-linecap: square"/>
   </g>
   <g id="text_5">
    <!-- Linear - MCF7 -->
    <g transform="translate(222.83125 165.24) scale(0.2 -0.2)">
     <use xlink:href="#DejaVuSans-4c"/>
     <use xlink:href="#DejaVuSans-69" x="55.712891"/>
     <use xlink:href="#DejaVuSans-6e" x="83.496094"/>
     <use xlink:href="#DejaVuSans-65" x="146.875"/>
     <use xlink:href="#DejaVuSans-61" x="208.398438"/>
     <use xlink:href="#DejaVuSans-72" x="269.677734"/>
     <use xlink:href="#DejaVuSans-20" x="310.791016"/>
     <use xlink:href="#DejaVuSans-2d" x="342.578125"/>
     <use xlink:href="#DejaVuSans-20" x="378.662109"/>
     <use xlink:href="#DejaVuSans-4d" x="410.449219"/>
     <use xlink:href="#DejaVuSans-43" x="496.728516"/>
     <use xlink:href="#DejaVuSans-46" x="566.552734"/>
     <use xlink:href="#DejaVuSans-37" x="624.072266"/>
    </g>
   </g>
  </g>
  <g id="axes_6">
   <g id="line2d_6">
    <path d="M 564.050962 226.315867 
L 562.22242 227.712611 
L 561.162935 229.023606 
L 559.82177 230.71042 
L 558.711755 232.172052 
L 556.698149 234.734871 
L 553.87749 237.581896 
L 551.042322 239.97102 
L 549.745004 241.233548 
L 548.94392 241.885248 
L 547.562781 242.898611 
L 546.518904 243.588461 
L 545.523021 244.314886 
L 542.782675 246.370441 
L 535.865853 250.599585 
L 526.945104 255.560332 
L 524.973114 256.449742 
L 518.435841 259.371495 
L 516.341424 260.283984 
L 514.708451 260.861275 
L 509.434366 262.866471 
L 505.588386 263.902358 
L 504.124826 264.304825 
L 502.010761 264.808134 
L 495.040012 266.366265 
L 493.71387 266.686696 
L 492.417732 266.796121 
L 490.987853 266.910576 
L 489.613263 267.080109 
L 487.959702 267.320621 
L 484.877544 267.860943 
L 481.853289 268.371658 
L 478.695386 268.753147 
L 475.283301 268.826222 
L 472.661017 268.686712 
L 469.826846 268.45628 
L 465.608787 268.173514 
L 464.02095 268.034944 
L 462.640908 267.91116 
L 461.318102 267.740783 
L 450.940312 266.001516 
L 446.613016 264.785899 
L 445.395085 264.4101 
L 442.015813 263.533992 
L 439.124605 262.685737 
L 436.186128 261.89338 
L 434.812339 261.359125 
L 432.52591 260.333065 
L 430.525954 259.28432 
L 423.666365 256.007181 
L 421.172015 254.380466 
L 420.295322 253.78724 
L 419.163819 252.96181 
L 415.55983 250.483877 
L 412.643858 248.106848 
L 412.018029 247.452261 
L 411.05077 246.476823 
L 407.59389 242.896999 
L 403.90773 238.505887 
L 402.33813 235.990681 
L 401.734136 234.647329 
L 401.153502 232.694061 
L 400.785474 230.861977 
L 400.697317 227.750733 
L 400.831501 226.272017 
L 400.993615 225.525864 
L 401.112961 224.654668 
L 401.548844 220.170645 
L 402.063938 218.53493 
L 402.365869 217.584657 
L 402.593107 216.719966 
L 403.769205 214.09103 
L 407.296345 207.626659 
L 408.534492 205.869653 
L 409.307104 204.867947 
L 410.348274 203.385932 
L 412.593076 200.574713 
L 417.4121 196.475991 
L 421.077658 194.226028 
L 425.368228 191.548224 
L 427.934577 189.815951 
L 429.5069 189.071976 
L 436.922039 185.99676 
L 439.251277 185.106381 
L 441.406162 184.29896 
L 443.501979 183.570844 
L 446.449187 182.589592 
L 452.152791 181.30751 
L 453.692952 180.990681 
L 455.939216 180.437921 
L 458.241118 180.287169 
L 460.938246 180.077473 
L 464.143008 179.96387 
L 465.288287 179.884649 
L 466.483136 179.785972 
L 468.24197 179.7159 
L 471.124746 179.646778 
L 475.927051 179.654334 
L 479.940328 179.688902 
L 487.260504 180.380997 
L 499.288523 183.109152 
L 510.824689 186.567925 
L 518.359506 189.572799 
L 520.207469 190.21098 
L 523.404099 191.569373 
L 526.608145 193.183147 
L 532.476261 196.723251 
L 537.89523 200.189888 
L 540.09149 201.472905 
L 542.509851 203.144264 
L 551.531899 211.08325 
L 552.728945 212.145923 
L 553.864211 213.129183 
L 556.091345 215.077823 
L 562.695457 221.882132 
L 563.810148 223.224375 
L 564.033599 223.911364 
L 564.218182 225.89057 
L 564.218182 225.89057 
" clip-path="url(#p200bb46d54)" style="fill: none; stroke: #2ca02c; stroke-width: 1.5; stroke-linecap: square"/>
   </g>
   <g id="text_6">
    <!-- Linear - MDA_MB_231 -->
    <g transform="translate(373.785937 165.24) scale(0.2 -0.2)">
     <use xlink:href="#DejaVuSans-4c"/>
     <use xlink:href="#DejaVuSans-69" x="55.712891"/>
     <use xlink:href="#DejaVuSans-6e" x="83.496094"/>
     <use xlink:href="#DejaVuSans-65" x="146.875"/>
     <use xlink:href="#DejaVuSans-61" x="208.398438"/>
     <use xlink:href="#DejaVuSans-72" x="269.677734"/>
     <use xlink:href="#DejaVuSans-20" x="310.791016"/>
     <use xlink:href="#DejaVuSans-2d" x="342.578125"/>
     <use xlink:href="#DejaVuSans-20" x="378.662109"/>
     <use xlink:href="#DejaVuSans-4d" x="410.449219"/>
     <use xlink:href="#DejaVuSans-44" x="496.728516"/>
     <use xlink:href="#DejaVuSans-41" x="571.980469"/>
     <use xlink:href="#DejaVuSans-5f" x="640.388672"/>
     <use xlink:href="#DejaVuSans-4d" x="690.388672"/>
     <use xlink:href="#DejaVuSans-42" x="776.667969"/>
     <use xlink:href="#DejaVuSans-5f" x="845.271484"/>
     <use xlink:href="#DejaVuSans-32" x="895.271484"/>
     <use xlink:href="#DejaVuSans-33" x="958.894531"/>
     <use xlink:href="#DejaVuSans-31" x="1022.517578"/>
    </g>
   </g>
  </g>
 </g>
 <defs>
  <clipPath id="p65385a5eb1">
   <rect x="10.8" y="32.64" width="180" height="105.96"/>
  </clipPath>
  <clipPath id="pe89e162639">
   <rect x="201.6" y="32.64" width="180" height="105.96"/>
  </clipPath>
  <clipPath id="p78d8578583">
   <rect x="392.4" y="32.64" width="180" height="105.96"/>
  </clipPath>
  <clipPath id="pef29a606bc">
   <rect x="10.8" y="171.24" width="180" height="105.96"/>
  </clipPath>
  <clipPath id="padb1a1c24d">
   <rect x="201.6" y="171.24" width="180" height="105.96"/>
  </clipPath>
  <clipPath id="p200bb46d54">
   <rect x="392.4" y="171.24" width="180" height="105.96"/>
  </clipPath>
 </defs>
</svg>
