<?xml version="1.0" encoding="utf-8" standalone="no"?>
<!DOCTYPE svg PUBLIC "-//W3C//DTD SVG 1.1//EN"
  "http://www.w3.org/Graphics/SVG/1.1/DTD/svg11.dtd">
<svg xmlns:xlink="http://www.w3.org/1999/xlink" width="583.2pt" height="288pt" viewBox="0 0 583.2 288" xmlns="http://www.w3.org/2000/svg" version="1.1">
 <metadata>
  <rdf:RDF xmlns:dc="http://purl.org/dc/elements/1.1/" xmlns:cc="http://creativecommons.org/ns#" xmlns:rdf="http://www.w3.org/1999/02/22-rdf-syntax-ns#">
   <cc:Work>
    <dc:type rdf:resource="http://purl.org/dc/dcmitype/StillImage"/>
    <dc:date>2024-03-29T10:35:17.116777</dc:date>
    <dc:format>image/svg+xml</dc:format>
    <dc:creator>
     <cc:Agent>
      <dc:title>Matplotlib v3.8.3, https://matplotlib.org/</dc:title>
     </cc:Agent>
    </dc:creator>
   </cc:Work>
  </rdf:RDF>
 </metadata>
 <defs>
  <style type="text/css">*{stroke-linejoin: round; stroke-linecap: butt}</style>
 </defs>
 <g id="figure_1">
  <g id="patch_1">
   <path d="M 0 288 
L 583.2 288 
L 583.2 0 
L 0 0 
z
" style="fill: #ffffff"/>
  </g>
  <g id="axes_1">
   <g id="line2d_1">
    <path d="M 97.581401 119.971145 
L 96.364097 119.301487 
L 95.120482 118.40804 
L 94.061918 117.204047 
L 93.24108 115.749511 
L 92.157743 113.097376 
L 91.013243 108.742375 
L 90.450648 106.34472 
L 89.461131 103.119931 
L 88.218024 100.179815 
L 87.41949 98.312043 
L 85.755674 93.822169 
L 85.202885 92.718958 
L 83.143068 89.402273 
L 82.409743 87.806626 
L 80.746128 84.629158 
L 80.004074 82.093608 
L 79.492989 79.519495 
L 78.841717 76.673101 
L 78.660601 74.669354 
L 78.444361 72.462065 
L 77.839931 69.097377 
L 77.137471 66.438472 
L 76.620921 62.858403 
L 76.066442 59.278029 
L 75.751744 57.815482 
L 74.739325 50.285808 
L 74.681062 47.454522 
L 74.722655 45.864899 
L 75.004758 44.413412 
L 75.466265 42.86637 
L 76.124279 41.635683 
L 76.599493 40.906466 
L 77.640554 39.797671 
L 78.283072 39.276907 
L 78.987941 38.858261 
L 81.349454 38.009394 
L 83.147976 37.61223 
L 86.048505 37.516577 
L 90.494245 37.916444 
L 94.047717 38.786701 
L 97.638239 39.942366 
L 98.713972 40.462668 
L 102.222824 42.580406 
L 104.404935 43.806532 
L 107.724876 46.165471 
L 108.835048 46.992122 
L 111.96715 49.946491 
L 113.815742 51.961473 
L 115.642474 53.941165 
L 117.964076 57.534528 
L 121.159574 62.812989 
L 122.938791 66.910182 
L 124.008171 70.023316 
L 126.365751 79.430872 
L 126.791097 82.485906 
L 126.880375 85.584617 
L 126.898172 91.223248 
L 126.712067 93.952658 
L 126.704843 95.367896 
L 126.040757 99.333489 
L 125.318254 103.215627 
L 124.244304 107.0385 
L 122.950415 111.127297 
L 121.390792 114.658292 
L 119.014755 119.026232 
L 113.649439 126.237884 
L 111.206948 128.458108 
L 109.560993 130.064504 
L 107.217603 131.901737 
L 104.731785 133.253847 
L 103.070878 133.749236 
L 101.624463 133.749354 
L 101.624463 133.749354 
" clip-path="url(#p7f792bea2b)" style="fill: none; stroke: #1f77b4; stroke-width: 1.5; stroke-linecap: square"/>
   </g>
   <g id="text_1">
    <!-- SRV - MCF10A -->
    <g transform="translate(30.320313 26.64) scale(0.2 -0.2)">
     <defs>
      <path id="DejaVuSans-53" d="M 3425 4513 
L 3425 3897 
Q 3066 4069 2747 4153 
Q 2428 4238 2131 4238 
Q 1616 4238 1336 4038 
Q 1056 3838 1056 3469 
Q 1056 3159 1242 3001 
Q 1428 2844 1947 2747 
L 2328 2669 
Q 3034 2534 3370 2195 
Q 3706 1856 3706 1288 
Q 3706 609 3251 259 
Q 2797 -91 1919 -91 
Q 1588 -91 1214 -16 
Q 841 59 441 206 
L 441 856 
Q 825 641 1194 531 
Q 1563 422 1919 422 
Q 2459 422 2753 634 
Q 3047 847 3047 1241 
Q 3047 1584 2836 1778 
Q 2625 1972 2144 2069 
L 1759 2144 
Q 1053 2284 737 2584 
Q 422 2884 422 3419 
Q 422 4038 858 4394 
Q 1294 4750 2059 4750 
Q 2388 4750 2728 4690 
Q 3069 4631 3425 4513 
z
" transform="scale(0.015625)"/>
      <path id="DejaVuSans-52" d="M 2841 2188 
Q 3044 2119 3236 1894 
Q 3428 1669 3622 1275 
L 4263 0 
L 3584 0 
L 2988 1197 
Q 2756 1666 2539 1819 
Q 2322 1972 1947 1972 
L 1259 1972 
L 1259 0 
L 628 0 
L 628 4666 
L 2053 4666 
Q 2853 4666 3247 4331 
Q 3641 3997 3641 3322 
Q 3641 2881 3436 2590 
Q 3231 2300 2841 2188 
z
M 1259 4147 
L 1259 2491 
L 2053 2491 
Q 2509 2491 2742 2702 
Q 2975 2913 2975 3322 
Q 2975 3731 2742 3939 
Q 2509 4147 2053 4147 
L 1259 4147 
z
" transform="scale(0.015625)"/>
      <path id="DejaVuSans-56" d="M 1831 0 
L 50 4666 
L 709 4666 
L 2188 738 
L 3669 4666 
L 4325 4666 
L 2547 0 
L 1831 0 
z
" transform="scale(0.015625)"/>
      <path id="DejaVuSans-20" transform="scale(0.015625)"/>
      <path id="DejaVuSans-2d" d="M 313 2009 
L 1997 2009 
L 1997 1497 
L 313 1497 
L 313 2009 
z
" transform="scale(0.015625)"/>
      <path id="DejaVuSans-4d" d="M 628 4666 
L 1569 4666 
L 2759 1491 
L 3956 4666 
L 4897 4666 
L 4897 0 
L 4281 0 
L 4281 4097 
L 3078 897 
L 2444 897 
L 1241 4097 
L 1241 0 
L 628 0 
L 628 4666 
z
" transform="scale(0.015625)"/>
      <path id="DejaVuSans-43" d="M 4122 4306 
L 4122 3641 
Q 3803 3938 3442 4084 
Q 3081 4231 2675 4231 
Q 1875 4231 1450 3742 
Q 1025 3253 1025 2328 
Q 1025 1406 1450 917 
Q 1875 428 2675 428 
Q 3081 428 3442 575 
Q 3803 722 4122 1019 
L 4122 359 
Q 3791 134 3420 21 
Q 3050 -91 2638 -91 
Q 1578 -91 968 557 
Q 359 1206 359 2328 
Q 359 3453 968 4101 
Q 1578 4750 2638 4750 
Q 3056 4750 3426 4639 
Q 3797 4528 4122 4306 
z
" transform="scale(0.015625)"/>
      <path id="DejaVuSans-46" d="M 628 4666 
L 3309 4666 
L 3309 4134 
L 1259 4134 
L 1259 2759 
L 3109 2759 
L 3109 2228 
L 1259 2228 
L 1259 0 
L 628 0 
L 628 4666 
z
" transform="scale(0.015625)"/>
      <path id="DejaVuSans-31" d="M 794 531 
L 1825 531 
L 1825 4091 
L 703 3866 
L 703 4441 
L 1819 4666 
L 2450 4666 
L 2450 531 
L 3481 531 
L 3481 0 
L 794 0 
L 794 531 
z
" transform="scale(0.015625)"/>
      <path id="DejaVuSans-30" d="M 2034 4250 
Q 1547 4250 1301 3770 
Q 1056 3291 1056 2328 
Q 1056 1369 1301 889 
Q 1547 409 2034 409 
Q 2525 409 2770 889 
Q 3016 1369 3016 2328 
Q 3016 3291 2770 3770 
Q 2525 4250 2034 4250 
z
M 2034 4750 
Q 2819 4750 3233 4129 
Q 3647 3509 3647 2328 
Q 3647 1150 3233 529 
Q 2819 -91 2034 -91 
Q 1250 -91 836 529 
Q 422 1150 422 2328 
Q 422 3509 836 4129 
Q 1250 4750 2034 4750 
z
" transform="scale(0.015625)"/>
      <path id="DejaVuSans-41" d="M 2188 4044 
L 1331 1722 
L 3047 1722 
L 2188 4044 
z
M 1831 4666 
L 2547 4666 
L 4325 0 
L 3669 0 
L 3244 1197 
L 1141 1197 
L 716 0 
L 50 0 
L 1831 4666 
z
" transform="scale(0.015625)"/>
     </defs>
     <use xlink:href="#DejaVuSans-53"/>
     <use xlink:href="#DejaVuSans-52" x="63.476562"/>
     <use xlink:href="#DejaVuSans-56" x="127.458984"/>
     <use xlink:href="#DejaVuSans-20" x="195.867188"/>
     <use xlink:href="#DejaVuSans-2d" x="227.654297"/>
     <use xlink:href="#DejaVuSans-20" x="263.738281"/>
     <use xlink:href="#DejaVuSans-4d" x="295.525391"/>
     <use xlink:href="#DejaVuSans-43" x="381.804688"/>
     <use xlink:href="#DejaVuSans-46" x="451.628906"/>
     <use xlink:href="#DejaVuSans-31" x="509.148438"/>
     <use xlink:href="#DejaVuSans-30" x="572.771484"/>
     <use xlink:href="#DejaVuSans-41" x="636.394531"/>
    </g>
   </g>
  </g>
  <g id="axes_2">
   <g id="line2d_2">
    <path d="M 287.473406 124.655003 
L 285.712378 124.579857 
L 283.408309 124.214914 
L 282.314771 123.682791 
L 281.859253 123.305094 
L 281.041607 122.176223 
L 280.535493 121.383482 
L 277.042157 114.504039 
L 274.765743 111.158521 
L 273.113091 109.419764 
L 271.118253 107.575904 
L 266.62455 102.810257 
L 263.17597 98.791718 
L 261.724255 96.842311 
L 260.018627 94.842627 
L 258.928182 92.786976 
L 257.520022 89.452481 
L 257.154503 88.400689 
L 256.339538 83.564788 
L 255.730958 78.531872 
L 255.640607 75.848349 
L 255.490403 73.262671 
L 255.429334 69.808482 
L 256.134709 59.954461 
L 256.522552 56.77218 
L 258.433199 48.895435 
L 258.80488 48.056243 
L 259.599018 45.566563 
L 259.961814 44.914894 
L 261.79065 42.527163 
L 263.322675 40.996946 
L 264.99745 39.757831 
L 265.947905 39.29765 
L 268.073579 38.844658 
L 273.074368 38.064907 
L 279.539229 37.456364 
L 283.56897 37.673437 
L 286.4078 37.845556 
L 291.988619 38.282146 
L 294.791717 38.899371 
L 297.282298 39.694066 
L 298.581568 39.98341 
L 302.411132 41.727356 
L 306.134912 44.355786 
L 310.50183 48.061536 
L 312.505008 50.016263 
L 313.588275 50.948074 
L 315.525077 53.161378 
L 317.362536 55.552836 
L 322.481379 61.897078 
L 324.120385 64.59577 
L 325.42996 67.506543 
L 326.215912 70.189423 
L 327.059042 74.882731 
L 327.227216 76.662285 
L 327.521027 78.343577 
L 327.791558 84.456683 
L 327.509746 87.513466 
L 327.162367 89.12125 
L 326.778555 92.210328 
L 326.506593 93.851677 
L 325.697077 96.732575 
L 324.517649 101.44863 
L 323.649048 104.363535 
L 321.298116 109.934845 
L 319.320338 113.286234 
L 318.634953 114.383086 
L 315.992643 117.821318 
L 314.138892 119.967812 
L 312.096961 121.689929 
L 306.939329 125.347197 
L 301.451486 129.253097 
L 299.20152 130.593373 
L 296.811278 131.877088 
L 294.550955 132.779925 
L 292.310606 133.520775 
L 291.24653 133.783636 
L 291.24653 133.783636 
" clip-path="url(#p6f72b650a6)" style="fill: none; stroke: #ff7f0e; stroke-width: 1.5; stroke-linecap: square"/>
   </g>
   <g id="text_2">
    <!-- SRV - MCF7 -->
    <g transform="translate(234.323437 26.64) scale(0.2 -0.2)">
     <defs>
      <path id="DejaVuSans-37" d="M 525 4666 
L 3525 4666 
L 3525 4397 
L 1831 0 
L 1172 0 
L 2766 4134 
L 525 4134 
L 525 4666 
z
" transform="scale(0.015625)"/>
     </defs>
     <use xlink:href="#DejaVuSans-53"/>
     <use xlink:href="#DejaVuSans-52" x="63.476562"/>
     <use xlink:href="#DejaVuSans-56" x="127.458984"/>
     <use xlink:href="#DejaVuSans-20" x="195.867188"/>
     <use xlink:href="#DejaVuSans-2d" x="227.654297"/>
     <use xlink:href="#DejaVuSans-20" x="263.738281"/>
     <use xlink:href="#DejaVuSans-4d" x="295.525391"/>
     <use xlink:href="#DejaVuSans-43" x="381.804688"/>
     <use xlink:href="#DejaVuSans-46" x="451.628906"/>
     <use xlink:href="#DejaVuSans-37" x="509.148438"/>
    </g>
   </g>
  </g>
  <g id="axes_3">
   <g id="line2d_3">
    <path d="M 488.765423 132.960678 
L 487.720178 132.660701 
L 486.683361 131.981018 
L 485.714195 130.962322 
L 484.753088 129.655599 
L 483.816459 127.92832 
L 482.670214 124.837483 
L 481.412436 121.215531 
L 480.227191 118.653399 
L 478.879894 116.089548 
L 477.535226 113.503577 
L 473.89617 107.873925 
L 472.509456 105.568281 
L 470.471359 101.771848 
L 468.440955 98.608745 
L 467.133276 96.559203 
L 465.483197 93.369973 
L 464.979577 92.143923 
L 463.444625 87.225386 
L 462.571084 83.565587 
L 461.593756 78.943294 
L 460.264191 72.216813 
L 458.940083 62.678922 
L 458.551831 56.985973 
L 458.882271 52.751449 
L 459.174325 50.572469 
L 460.320374 45.070855 
L 461.149887 42.525938 
L 461.548777 41.621126 
L 462.034903 40.921313 
L 463.285239 39.806036 
L 465.086024 38.667992 
L 466.512899 38.1589 
L 468.047139 37.686428 
L 470.701618 37.456364 
L 472.70198 37.579849 
L 474.89834 38.058774 
L 477.913169 38.824541 
L 483.943363 40.713618 
L 484.948768 41.094312 
L 487.002187 42.171896 
L 489.058547 43.649445 
L 490.025514 44.550779 
L 491.713754 46.482648 
L 493.402203 48.342969 
L 495.586035 51.540402 
L 497.606944 55.057915 
L 500.15823 59.886289 
L 502.5026 64.739144 
L 503.39863 67.503416 
L 504.830836 73.486784 
L 505.741196 79.845062 
L 506.001753 83.27286 
L 506.248169 89.095827 
L 506.210575 93.373163 
L 506.180615 96.078774 
L 505.816643 100.398704 
L 504.957347 107.532611 
L 504.257374 111.332038 
L 503.104533 116.285812 
L 501.037498 121.507853 
L 500.10904 123.308259 
L 498.079416 126.288713 
L 496.375288 128.393892 
L 495.318503 129.925744 
L 492.45604 132.859018 
L 491.282286 133.484977 
L 490.153772 133.738392 
L 489.608474 133.783636 
L 489.608474 133.783636 
" clip-path="url(#p6626e913ea)" style="fill: none; stroke: #2ca02c; stroke-width: 1.5; stroke-linecap: square"/>
   </g>
   <g id="text_3">
    <!-- SRV - MDA_MB_231 -->
    <g transform="translate(385.278125 26.64) scale(0.2 -0.2)">
     <defs>
      <path id="DejaVuSans-44" d="M 1259 4147 
L 1259 519 
L 2022 519 
Q 2988 519 3436 956 
Q 3884 1394 3884 2338 
Q 3884 3275 3436 3711 
Q 2988 4147 2022 4147 
L 1259 4147 
z
M 628 4666 
L 1925 4666 
Q 3281 4666 3915 4102 
Q 4550 3538 4550 2338 
Q 4550 1131 3912 565 
Q 3275 0 1925 0 
L 628 0 
L 628 4666 
z
" transform="scale(0.015625)"/>
      <path id="DejaVuSans-5f" d="M 3263 -1063 
L 3263 -1509 
L -63 -1509 
L -63 -1063 
L 3263 -1063 
z
" transform="scale(0.015625)"/>
      <path id="DejaVuSans-42" d="M 1259 2228 
L 1259 519 
L 2272 519 
Q 2781 519 3026 730 
Q 3272 941 3272 1375 
Q 3272 1813 3026 2020 
Q 2781 2228 2272 2228 
L 1259 2228 
z
M 1259 4147 
L 1259 2741 
L 2194 2741 
Q 2656 2741 2882 2914 
Q 3109 3088 3109 3444 
Q 3109 3797 2882 3972 
Q 2656 4147 2194 4147 
L 1259 4147 
z
M 628 4666 
L 2241 4666 
Q 2963 4666 3353 4366 
Q 3744 4066 3744 3513 
Q 3744 3084 3544 2831 
Q 3344 2578 2956 2516 
Q 3422 2416 3680 2098 
Q 3938 1781 3938 1306 
Q 3938 681 3513 340 
Q 3088 0 2303 0 
L 628 0 
L 628 4666 
z
" transform="scale(0.015625)"/>
      <path id="DejaVuSans-32" d="M 1228 531 
L 3431 531 
L 3431 0 
L 469 0 
L 469 531 
Q 828 903 1448 1529 
Q 2069 2156 2228 2338 
Q 2531 2678 2651 2914 
Q 2772 3150 2772 3378 
Q 2772 3750 2511 3984 
Q 2250 4219 1831 4219 
Q 1534 4219 1204 4116 
Q 875 4013 500 3803 
L 500 4441 
Q 881 4594 1212 4672 
Q 1544 4750 1819 4750 
Q 2544 4750 2975 4387 
Q 3406 4025 3406 3419 
Q 3406 3131 3298 2873 
Q 3191 2616 2906 2266 
Q 2828 2175 2409 1742 
Q 1991 1309 1228 531 
z
" transform="scale(0.015625)"/>
      <path id="DejaVuSans-33" d="M 2597 2516 
Q 3050 2419 3304 2112 
Q 3559 1806 3559 1356 
Q 3559 666 3084 287 
Q 2609 -91 1734 -91 
Q 1441 -91 1130 -33 
Q 819 25 488 141 
L 488 750 
Q 750 597 1062 519 
Q 1375 441 1716 441 
Q 2309 441 2620 675 
Q 2931 909 2931 1356 
Q 2931 1769 2642 2001 
Q 2353 2234 1838 2234 
L 1294 2234 
L 1294 2753 
L 1863 2753 
Q 2328 2753 2575 2939 
Q 2822 3125 2822 3475 
Q 2822 3834 2567 4026 
Q 2313 4219 1838 4219 
Q 1578 4219 1281 4162 
Q 984 4106 628 3988 
L 628 4550 
Q 988 4650 1302 4700 
Q 1616 4750 1894 4750 
Q 2613 4750 3031 4423 
Q 3450 4097 3450 3541 
Q 3450 3153 3228 2886 
Q 3006 2619 2597 2516 
z
" transform="scale(0.015625)"/>
     </defs>
     <use xlink:href="#DejaVuSans-53"/>
     <use xlink:href="#DejaVuSans-52" x="63.476562"/>
     <use xlink:href="#DejaVuSans-56" x="127.458984"/>
     <use xlink:href="#DejaVuSans-20" x="195.867188"/>
     <use xlink:href="#DejaVuSans-2d" x="227.654297"/>
     <use xlink:href="#DejaVuSans-20" x="263.738281"/>
     <use xlink:href="#DejaVuSans-4d" x="295.525391"/>
     <use xlink:href="#DejaVuSans-44" x="381.804688"/>
     <use xlink:href="#DejaVuSans-41" x="457.056641"/>
     <use xlink:href="#DejaVuSans-5f" x="525.464844"/>
     <use xlink:href="#DejaVuSans-4d" x="575.464844"/>
     <use xlink:href="#DejaVuSans-42" x="661.744141"/>
     <use xlink:href="#DejaVuSans-5f" x="730.347656"/>
     <use xlink:href="#DejaVuSans-32" x="780.347656"/>
     <use xlink:href="#DejaVuSans-33" x="843.970703"/>
     <use xlink:href="#DejaVuSans-31" x="907.59375"/>
    </g>
   </g>
  </g>
  <g id="axes_4">
   <g id="line2d_4">
    <path d="M 100.061212 272.196082 
L 99.278185 271.882599 
L 97.640429 270.784019 
L 96.945037 270.20208 
L 95.672814 268.644106 
L 95.166431 267.764142 
L 93.979241 264.783112 
L 93.291382 262.455851 
L 91.132063 253.944622 
L 90.326417 251.61112 
L 89.902812 250.473681 
L 88.868803 248.380601 
L 88.015778 246.161105 
L 87.180813 243.819394 
L 86.718975 242.593257 
L 86.117936 241.406935 
L 83.692972 237.600436 
L 82.819282 235.689878 
L 80.708873 231.876035 
L 79.830451 228.821872 
L 79.482167 226.80329 
L 78.661773 223.580153 
L 78.310195 221.439745 
L 77.772322 216.731574 
L 77.574253 215.463249 
L 76.441679 211.222742 
L 75.611135 205.937245 
L 75.53293 204.736565 
L 75.145655 202.768642 
L 74.710097 200.918524 
L 74.100467 196.441212 
L 73.575024 194.206771 
L 73.402367 191.048678 
L 73.370106 188.878045 
L 73.144013 187.871949 
L 73.330226 185.88261 
L 73.805581 183.858731 
L 74.482476 182.105826 
L 75.605794 180.369414 
L 76.938965 178.959152 
L 77.749475 178.263723 
L 78.6422 177.743185 
L 80.611622 177.027542 
L 82.664666 176.430053 
L 83.724557 176.25908 
L 84.821761 176.212983 
L 85.901165 176.056364 
L 90.728579 176.476251 
L 91.905469 176.616298 
L 95.606043 177.53974 
L 99.404473 178.758755 
L 100.525552 179.309397 
L 102.888304 180.856685 
L 107.484456 183.594999 
L 110.766727 186.039573 
L 113.765111 188.847605 
L 115.534992 190.835719 
L 117.333564 192.73286 
L 120.245445 197.313103 
L 122.60328 201.190879 
L 124.912226 206.506103 
L 126.246988 210.883051 
L 128.081911 218.251944 
L 128.299643 219.766469 
L 128.410681 222.643995 
L 128.399504 228.134114 
L 127.93574 233.460237 
L 127.013225 238.671126 
L 125.995092 242.554092 
L 123.797974 248.935299 
L 122.773562 251.245528 
L 121.107836 254.671323 
L 118.195665 258.784188 
L 115.359715 262.664758 
L 114.67712 263.550288 
L 112.047247 266.053117 
L 110.298118 267.815233 
L 107.686945 270.063165 
L 104.763474 271.694484 
L 102.734153 272.30179 
L 100.808275 272.373329 
L 100.808275 272.373329 
" clip-path="url(#p7aba2bac1d)" style="fill: none; stroke: #1f77b4; stroke-width: 1.5; stroke-linecap: square"/>
   </g>
   <g id="text_4">
    <!-- Linear - MCF10A -->
    <g transform="translate(18.828125 165.24) scale(0.2 -0.2)">
     <defs>
      <path id="DejaVuSans-4c" d="M 628 4666 
L 1259 4666 
L 1259 531 
L 3531 531 
L 3531 0 
L 628 0 
L 628 4666 
z
" transform="scale(0.015625)"/>
      <path id="DejaVuSans-69" d="M 603 3500 
L 1178 3500 
L 1178 0 
L 603 0 
L 603 3500 
z
M 603 4863 
L 1178 4863 
L 1178 4134 
L 603 4134 
L 603 4863 
z
" transform="scale(0.015625)"/>
      <path id="DejaVuSans-6e" d="M 3513 2113 
L 3513 0 
L 2938 0 
L 2938 2094 
Q 2938 2591 2744 2837 
Q 2550 3084 2163 3084 
Q 1697 3084 1428 2787 
Q 1159 2491 1159 1978 
L 1159 0 
L 581 0 
L 581 3500 
L 1159 3500 
L 1159 2956 
Q 1366 3272 1645 3428 
Q 1925 3584 2291 3584 
Q 2894 3584 3203 3211 
Q 3513 2838 3513 2113 
z
" transform="scale(0.015625)"/>
      <path id="DejaVuSans-65" d="M 3597 1894 
L 3597 1613 
L 953 1613 
Q 991 1019 1311 708 
Q 1631 397 2203 397 
Q 2534 397 2845 478 
Q 3156 559 3463 722 
L 3463 178 
Q 3153 47 2828 -22 
Q 2503 -91 2169 -91 
Q 1331 -91 842 396 
Q 353 884 353 1716 
Q 353 2575 817 3079 
Q 1281 3584 2069 3584 
Q 2775 3584 3186 3129 
Q 3597 2675 3597 1894 
z
M 3022 2063 
Q 3016 2534 2758 2815 
Q 2500 3097 2075 3097 
Q 1594 3097 1305 2825 
Q 1016 2553 972 2059 
L 3022 2063 
z
" transform="scale(0.015625)"/>
      <path id="DejaVuSans-61" d="M 2194 1759 
Q 1497 1759 1228 1600 
Q 959 1441 959 1056 
Q 959 750 1161 570 
Q 1363 391 1709 391 
Q 2188 391 2477 730 
Q 2766 1069 2766 1631 
L 2766 1759 
L 2194 1759 
z
M 3341 1997 
L 3341 0 
L 2766 0 
L 2766 531 
Q 2569 213 2275 61 
Q 1981 -91 1556 -91 
Q 1019 -91 701 211 
Q 384 513 384 1019 
Q 384 1609 779 1909 
Q 1175 2209 1959 2209 
L 2766 2209 
L 2766 2266 
Q 2766 2663 2505 2880 
Q 2244 3097 1772 3097 
Q 1472 3097 1187 3025 
Q 903 2953 641 2809 
L 641 3341 
Q 956 3463 1253 3523 
Q 1550 3584 1831 3584 
Q 2591 3584 2966 3190 
Q 3341 2797 3341 1997 
z
" transform="scale(0.015625)"/>
      <path id="DejaVuSans-72" d="M 2631 2963 
Q 2534 3019 2420 3045 
Q 2306 3072 2169 3072 
Q 1681 3072 1420 2755 
Q 1159 2438 1159 1844 
L 1159 0 
L 581 0 
L 581 3500 
L 1159 3500 
L 1159 2956 
Q 1341 3275 1631 3429 
Q 1922 3584 2338 3584 
Q 2397 3584 2469 3576 
Q 2541 3569 2628 3553 
L 2631 2963 
z
" transform="scale(0.015625)"/>
     </defs>
     <use xlink:href="#DejaVuSans-4c"/>
     <use xlink:href="#DejaVuSans-69" x="55.712891"/>
     <use xlink:href="#DejaVuSans-6e" x="83.496094"/>
     <use xlink:href="#DejaVuSans-65" x="146.875"/>
     <use xlink:href="#DejaVuSans-61" x="208.398438"/>
     <use xlink:href="#DejaVuSans-72" x="269.677734"/>
     <use xlink:href="#DejaVuSans-20" x="310.791016"/>
     <use xlink:href="#DejaVuSans-2d" x="342.578125"/>
     <use xlink:href="#DejaVuSans-20" x="378.662109"/>
     <use xlink:href="#DejaVuSans-4d" x="410.449219"/>
     <use xlink:href="#DejaVuSans-43" x="496.728516"/>
     <use xlink:href="#DejaVuSans-46" x="566.552734"/>
     <use xlink:href="#DejaVuSans-31" x="624.072266"/>
     <use xlink:href="#DejaVuSans-30" x="687.695312"/>
     <use xlink:href="#DejaVuSans-41" x="751.318359"/>
    </g>
   </g>
  </g>
  <g id="axes_5">
   <g id="line2d_5">
    <path d="M 289.12075 272.383636 
L 286.035626 272.102342 
L 284.156567 271.699462 
L 282.733666 270.923105 
L 282.15423 270.336646 
L 281.135375 268.766425 
L 280.573987 267.760781 
L 277.875998 261.540237 
L 276.623845 259.089822 
L 275.922299 257.794905 
L 274.30444 255.614003 
L 273.36605 254.625769 
L 271.295968 252.701425 
L 263.764277 244.605125 
L 262.134833 242.520421 
L 261.340721 241.478511 
L 260.283666 240.409816 
L 259.471725 239.409407 
L 257.679981 235.867467 
L 256.252338 232.33509 
L 254.964742 221.680198 
L 254.849507 218.921477 
L 254.650614 216.168828 
L 254.554167 212.386066 
L 255.498937 198.25444 
L 256.110929 195.925904 
L 257.177295 190.100508 
L 257.449365 189.081763 
L 257.850211 188.067042 
L 258.180066 185.905337 
L 258.853905 184.027484 
L 260.994619 181.269061 
L 262.734285 179.512947 
L 264.612694 178.089841 
L 265.697366 177.577282 
L 266.850737 177.258026 
L 272.090132 176.417626 
L 273.232994 176.613304 
L 280.067148 176.056364 
L 282.796327 176.158472 
L 285.720332 176.525835 
L 288.600407 176.664267 
L 292.778316 176.916451 
L 295.693413 177.55029 
L 296.965161 178.009276 
L 298.266724 178.358778 
L 299.776549 178.257177 
L 302.299687 179.340854 
L 303.633092 180.01441 
L 307.377042 182.551306 
L 310.744579 185.218032 
L 316.691949 191.416709 
L 317.544543 192.65185 
L 322.649006 198.832257 
L 323.473537 200.051382 
L 325.758641 204.163939 
L 326.390012 205.569815 
L 327.156889 208.352577 
L 328.379015 216.342137 
L 328.660928 220.847855 
L 328.65392 222.408241 
L 328.356253 225.448531 
L 328.032176 227.019014 
L 327.906071 228.572868 
L 327.388887 231.599299 
L 326.557809 234.472185 
L 325.816033 237.583716 
L 324.58221 241.984473 
L 322.290585 247.422067 
L 320.80297 249.808902 
L 318.597633 253.232882 
L 315.808207 256.65911 
L 313.802424 258.620882 
L 310.460316 261.132967 
L 309.392053 261.702692 
L 302.521705 266.700462 
L 297.685667 269.563838 
L 295.271688 270.778587 
L 291.535395 271.983064 
L 290.345352 272.269906 
L 290.345352 272.269906 
" clip-path="url(#p4bef19a574)" style="fill: none; stroke: #ff7f0e; stroke-width: 1.5; stroke-linecap: square"/>
   </g>
   <g id="text_5">
    <!-- Linear - MCF7 -->
    <g transform="translate(222.83125 165.24) scale(0.2 -0.2)">
     <use xlink:href="#DejaVuSans-4c"/>
     <use xlink:href="#DejaVuSans-69" x="55.712891"/>
     <use xlink:href="#DejaVuSans-6e" x="83.496094"/>
     <use xlink:href="#DejaVuSans-65" x="146.875"/>
     <use xlink:href="#DejaVuSans-61" x="208.398438"/>
     <use xlink:href="#DejaVuSans-72" x="269.677734"/>
     <use xlink:href="#DejaVuSans-20" x="310.791016"/>
     <use xlink:href="#DejaVuSans-2d" x="342.578125"/>
     <use xlink:href="#DejaVuSans-20" x="378.662109"/>
     <use xlink:href="#DejaVuSans-4d" x="410.449219"/>
     <use xlink:href="#DejaVuSans-43" x="496.728516"/>
     <use xlink:href="#DejaVuSans-46" x="566.552734"/>
     <use xlink:href="#DejaVuSans-37" x="624.072266"/>
    </g>
   </g>
  </g>
  <g id="axes_6">
   <g id="line2d_6">
    <path d="M 487.932616 272.325559 
L 486.466289 271.887673 
L 485.752629 271.447742 
L 484.551816 270.265631 
L 483.498216 268.808444 
L 482.491394 266.971869 
L 481.691416 264.972945 
L 480.732069 261.653053 
L 479.996373 259.168438 
L 477.333976 253.097663 
L 476.087181 250.840211 
L 471.038466 242.037576 
L 469.099861 238.779806 
L 467.190406 235.79293 
L 465.552485 232.645179 
L 465.032686 231.453954 
L 463.351435 225.576327 
L 462.048768 219.991837 
L 461.542505 217.593454 
L 461.212323 216.3569 
L 458.631506 201.121311 
L 458.357349 196.560846 
L 458.569487 194.395017 
L 458.651913 192.073769 
L 459.470441 186.848178 
L 459.636861 185.75757 
L 461.13373 180.906009 
L 461.715282 180.046373 
L 463.092049 178.806883 
L 464.534378 177.823752 
L 466.104967 177.10582 
L 466.995753 176.908594 
L 468.827967 176.271125 
L 471.782717 176.056364 
L 473.895416 176.186761 
L 476.106247 176.699042 
L 479.295956 177.696306 
L 482.43905 178.826967 
L 484.632675 179.352856 
L 486.706493 180.141439 
L 489.756487 181.938892 
L 491.657419 183.552237 
L 493.261856 185.448219 
L 494.912317 187.326537 
L 498.262772 192.705464 
L 503.532894 204.523824 
L 504.884755 209.9245 
L 505.288873 212.646756 
L 506.127428 219.078808 
L 506.422058 227.352084 
L 506.287255 235.038393 
L 505.42571 243.180603 
L 504.488765 249.219301 
L 503.369587 252.937432 
L 502.609934 255.197618 
L 501.773547 257.388135 
L 500.895965 259.483373 
L 498.063512 263.689588 
L 496.820843 265.414325 
L 496.339556 266.38031 
L 494.519108 268.792405 
L 493.235887 270.285821 
L 491.801857 271.470936 
L 490.240119 272.097741 
L 488.717142 272.383636 
L 488.717142 272.383636 
" clip-path="url(#p02c437ca0b)" style="fill: none; stroke: #2ca02c; stroke-width: 1.5; stroke-linecap: square"/>
   </g>
   <g id="text_6">
    <!-- Linear - MDA_MB_231 -->
    <g transform="translate(373.785937 165.24) scale(0.2 -0.2)">
     <use xlink:href="#DejaVuSans-4c"/>
     <use xlink:href="#DejaVuSans-69" x="55.712891"/>
     <use xlink:href="#DejaVuSans-6e" x="83.496094"/>
     <use xlink:href="#DejaVuSans-65" x="146.875"/>
     <use xlink:href="#DejaVuSans-61" x="208.398438"/>
     <use xlink:href="#DejaVuSans-72" x="269.677734"/>
     <use xlink:href="#DejaVuSans-20" x="310.791016"/>
     <use xlink:href="#DejaVuSans-2d" x="342.578125"/>
     <use xlink:href="#DejaVuSans-20" x="378.662109"/>
     <use xlink:href="#DejaVuSans-4d" x="410.449219"/>
     <use xlink:href="#DejaVuSans-44" x="496.728516"/>
     <use xlink:href="#DejaVuSans-41" x="571.980469"/>
     <use xlink:href="#DejaVuSans-5f" x="640.388672"/>
     <use xlink:href="#DejaVuSans-4d" x="690.388672"/>
     <use xlink:href="#DejaVuSans-42" x="776.667969"/>
     <use xlink:href="#DejaVuSans-5f" x="845.271484"/>
     <use xlink:href="#DejaVuSans-32" x="895.271484"/>
     <use xlink:href="#DejaVuSans-33" x="958.894531"/>
     <use xlink:href="#DejaVuSans-31" x="1022.517578"/>
    </g>
   </g>
  </g>
 </g>
 <defs>
  <clipPath id="p7f792bea2b">
   <rect x="10.8" y="32.64" width="180" height="105.96"/>
  </clipPath>
  <clipPath id="p6f72b650a6">
   <rect x="201.6" y="32.64" width="180" height="105.96"/>
  </clipPath>
  <clipPath id="p6626e913ea">
   <rect x="392.4" y="32.64" width="180" height="105.96"/>
  </clipPath>
  <clipPath id="p7aba2bac1d">
   <rect x="10.8" y="171.24" width="180" height="105.96"/>
  </clipPath>
  <clipPath id="p4bef19a574">
   <rect x="201.6" y="171.24" width="180" height="105.96"/>
  </clipPath>
  <clipPath id="p02c437ca0b">
   <rect x="392.4" y="171.24" width="180" height="105.96"/>
  </clipPath>
 </defs>
</svg>
