<?xml version="1.0" encoding="utf-8" standalone="no"?>
<!DOCTYPE svg PUBLIC "-//W3C//DTD SVG 1.1//EN"
  "http://www.w3.org/Graphics/SVG/1.1/DTD/svg11.dtd">
<svg xmlns:xlink="http://www.w3.org/1999/xlink" width="583.2pt" height="288pt" viewBox="0 0 583.2 288" xmlns="http://www.w3.org/2000/svg" version="1.1">
 <metadata>
  <rdf:RDF xmlns:dc="http://purl.org/dc/elements/1.1/" xmlns:cc="http://creativecommons.org/ns#" xmlns:rdf="http://www.w3.org/1999/02/22-rdf-syntax-ns#">
   <cc:Work>
    <dc:type rdf:resource="http://purl.org/dc/dcmitype/StillImage"/>
    <dc:date>2024-04-21T14:32:08.883662</dc:date>
    <dc:format>image/svg+xml</dc:format>
    <dc:creator>
     <cc:Agent>
      <dc:title>Matplotlib v3.8.4, https://matplotlib.org/</dc:title>
     </cc:Agent>
    </dc:creator>
   </cc:Work>
  </rdf:RDF>
 </metadata>
 <defs>
  <style type="text/css">*{stroke-linejoin: round; stroke-linecap: butt}</style>
 </defs>
 <g id="figure_1">
  <g id="patch_1">
   <path d="M 0 288 
L 583.2 288 
L 583.2 0 
L 0 0 
z
" style="fill: #ffffff"/>
  </g>
  <g id="axes_1">
   <g id="line2d_1">
    <path d="M 182.618182 89.874519 
L 182.360015 91.025807 
L 182.095573 91.851603 
L 181.867005 92.264592 
L 181.452542 92.757921 
L 178.90729 92.670595 
L 178.119498 92.456616 
L 177.708962 92.291925 
L 174.982355 90.726784 
L 174.457384 90.494678 
L 173.21933 90.218823 
L 172.444894 90.070766 
L 170.25394 89.711382 
L 169.22849 89.439541 
L 167.505221 89.308759 
L 165.10317 88.853678 
L 164.123357 88.677613 
L 163.015843 88.448176 
L 161.352372 87.885758 
L 159.842143 87.463134 
L 157.704829 86.871383 
L 155.615601 86.55173 
L 152.139062 85.730452 
L 149.783476 85.458466 
L 147.01449 85.250775 
L 145.392254 84.952855 
L 142.443362 84.545656 
L 139.739822 84.167694 
L 137.518015 83.762433 
L 136.139834 83.500237 
L 132.495473 83.062689 
L 129.555104 83.003697 
L 128.197411 82.930039 
L 125.160332 82.728696 
L 121.670902 82.45837 
L 117.578926 82.041998 
L 108.206324 82.055906 
L 105.994073 81.872127 
L 103.831603 81.801043 
L 102.069635 81.663459 
L 97.558037 81.499081 
L 94.817722 81.553578 
L 92.930933 81.508798 
L 90.054977 81.595141 
L 87.671746 81.337275 
L 84.000577 81.541702 
L 80.891276 81.349381 
L 79.039696 81.352637 
L 77.399683 81.170611 
L 75.002815 80.649142 
L 73.038653 80.666112 
L 69.888052 80.799388 
L 68.184544 80.787218 
L 65.914377 80.966718 
L 63.696192 81.039559 
L 62.17279 81.101891 
L 61.158135 81.114237 
L 59.608359 80.934546 
L 57.559913 80.794803 
L 56.502425 80.766716 
L 53.978031 80.76506 
L 50.258381 80.677074 
L 48.253911 80.6164 
L 47.314338 80.631986 
L 46.444614 80.699449 
L 42.436758 80.582581 
L 40.89914 80.639056 
L 39.066411 80.620239 
L 37.73345 80.835187 
L 35.633704 80.948291 
L 34.303237 81.032193 
L 31.858139 81.342322 
L 30.876662 81.44067 
L 29.342588 81.323049 
L 27.758385 81.632477 
L 26.934293 81.691402 
L 26.163197 81.890966 
L 24.854505 82.003393 
L 19.4837 82.619704 
L 18.987658 82.666906 
L 18.995432 82.70871 
L 19.112863 82.847824 
L 19.496166 83.172445 
L 19.926099 83.386045 
L 20.54298 83.691269 
L 21.516382 84.071524 
L 23.1655 84.305536 
L 23.902872 84.525258 
L 24.610245 84.807944 
L 25.081101 85.002292 
L 26.383079 85.119452 
L 27.288443 85.101378 
L 28.47074 85.186946 
L 29.351567 85.201574 
L 30.367664 85.234106 
L 40.669739 86.47778 
L 42.616092 86.708831 
L 44.302045 86.923601 
L 46.476239 87.283787 
L 50.281642 87.839256 
L 51.450383 87.728678 
L 52.423247 87.605123 
L 53.799687 87.508751 
L 57.49061 87.309073 
L 65.623549 87.346326 
L 67.096515 87.318662 
L 71.378066 87.419068 
L 72.688041 87.536338 
L 77.423595 87.439331 
L 78.362317 87.445738 
L 79.872829 87.425908 
L 82.307719 87.511314 
L 83.665356 87.549817 
L 85.232854 87.55852 
L 87.083704 87.601475 
L 91.571505 87.731211 
L 95.587412 87.571548 
L 96.688451 87.573798 
L 99.763233 87.387282 
L 102.367023 87.56113 
L 103.703271 87.494961 
L 105.898987 87.322781 
L 108.615315 87.346885 
L 110.246505 87.302555 
L 112.041277 87.189747 
L 117.309603 87.02027 
L 119.356117 86.849381 
L 125.941313 86.693581 
L 126.590553 86.679479 
L 129.098007 86.268641 
L 132.533343 86.051332 
L 135.092953 85.785862 
L 136.061533 85.794758 
L 137.371886 85.797614 
L 141.381395 85.316728 
L 142.42197 85.280665 
L 145.903478 84.846679 
L 146.851451 84.738868 
L 147.926454 84.516119 
L 151.162746 83.967916 
L 153.354298 83.464109 
L 156.551017 82.819038 
L 157.382645 82.767569 
L 159.493219 82.328856 
L 160.924211 81.981738 
L 162.576823 81.506249 
L 165.479134 80.897307 
L 166.706844 80.573776 
L 168.926269 79.856959 
L 169.267579 79.797993 
L 169.593065 79.699738 
L 171.475711 79.391079 
L 171.912112 79.253561 
L 172.601301 78.965417 
L 173.22812 78.694506 
L 173.54304 78.562529 
L 173.916667 78.387158 
L 174.452597 78.552969 
L 174.763947 78.899674 
L 175.346467 80.16058 
L 175.773036 81.108979 
L 176.365216 82.357328 
L 177.375896 86.421373 
L 177.350237 86.956666 
L 177.350237 86.956666 
" clip-path="url(#pa7cede8ad1)" style="fill: none; stroke: #1f77b4; stroke-width: 1.5; stroke-linecap: square"/>
   </g>
   <g id="text_1">
    <!-- SRV - MCF10A -->
    <g transform="translate(30.320313 26.64) scale(0.2 -0.2)">
     <defs>
      <path id="DejaVuSans-53" d="M 3425 4513 
L 3425 3897 
Q 3066 4069 2747 4153 
Q 2428 4238 2131 4238 
Q 1616 4238 1336 4038 
Q 1056 3838 1056 3469 
Q 1056 3159 1242 3001 
Q 1428 2844 1947 2747 
L 2328 2669 
Q 3034 2534 3370 2195 
Q 3706 1856 3706 1288 
Q 3706 609 3251 259 
Q 2797 -91 1919 -91 
Q 1588 -91 1214 -16 
Q 841 59 441 206 
L 441 856 
Q 825 641 1194 531 
Q 1563 422 1919 422 
Q 2459 422 2753 634 
Q 3047 847 3047 1241 
Q 3047 1584 2836 1778 
Q 2625 1972 2144 2069 
L 1759 2144 
Q 1053 2284 737 2584 
Q 422 2884 422 3419 
Q 422 4038 858 4394 
Q 1294 4750 2059 4750 
Q 2388 4750 2728 4690 
Q 3069 4631 3425 4513 
z
" transform="scale(0.015625)"/>
      <path id="DejaVuSans-52" d="M 2841 2188 
Q 3044 2119 3236 1894 
Q 3428 1669 3622 1275 
L 4263 0 
L 3584 0 
L 2988 1197 
Q 2756 1666 2539 1819 
Q 2322 1972 1947 1972 
L 1259 1972 
L 1259 0 
L 628 0 
L 628 4666 
L 2053 4666 
Q 2853 4666 3247 4331 
Q 3641 3997 3641 3322 
Q 3641 2881 3436 2590 
Q 3231 2300 2841 2188 
z
M 1259 4147 
L 1259 2491 
L 2053 2491 
Q 2509 2491 2742 2702 
Q 2975 2913 2975 3322 
Q 2975 3731 2742 3939 
Q 2509 4147 2053 4147 
L 1259 4147 
z
" transform="scale(0.015625)"/>
      <path id="DejaVuSans-56" d="M 1831 0 
L 50 4666 
L 709 4666 
L 2188 738 
L 3669 4666 
L 4325 4666 
L 2547 0 
L 1831 0 
z
" transform="scale(0.015625)"/>
      <path id="DejaVuSans-20" transform="scale(0.015625)"/>
      <path id="DejaVuSans-2d" d="M 313 2009 
L 1997 2009 
L 1997 1497 
L 313 1497 
L 313 2009 
z
" transform="scale(0.015625)"/>
      <path id="DejaVuSans-4d" d="M 628 4666 
L 1569 4666 
L 2759 1491 
L 3956 4666 
L 4897 4666 
L 4897 0 
L 4281 0 
L 4281 4097 
L 3078 897 
L 2444 897 
L 1241 4097 
L 1241 0 
L 628 0 
L 628 4666 
z
" transform="scale(0.015625)"/>
      <path id="DejaVuSans-43" d="M 4122 4306 
L 4122 3641 
Q 3803 3938 3442 4084 
Q 3081 4231 2675 4231 
Q 1875 4231 1450 3742 
Q 1025 3253 1025 2328 
Q 1025 1406 1450 917 
Q 1875 428 2675 428 
Q 3081 428 3442 575 
Q 3803 722 4122 1019 
L 4122 359 
Q 3791 134 3420 21 
Q 3050 -91 2638 -91 
Q 1578 -91 968 557 
Q 359 1206 359 2328 
Q 359 3453 968 4101 
Q 1578 4750 2638 4750 
Q 3056 4750 3426 4639 
Q 3797 4528 4122 4306 
z
" transform="scale(0.015625)"/>
      <path id="DejaVuSans-46" d="M 628 4666 
L 3309 4666 
L 3309 4134 
L 1259 4134 
L 1259 2759 
L 3109 2759 
L 3109 2228 
L 1259 2228 
L 1259 0 
L 628 0 
L 628 4666 
z
" transform="scale(0.015625)"/>
      <path id="DejaVuSans-31" d="M 794 531 
L 1825 531 
L 1825 4091 
L 703 3866 
L 703 4441 
L 1819 4666 
L 2450 4666 
L 2450 531 
L 3481 531 
L 3481 0 
L 794 0 
L 794 531 
z
" transform="scale(0.015625)"/>
      <path id="DejaVuSans-30" d="M 2034 4250 
Q 1547 4250 1301 3770 
Q 1056 3291 1056 2328 
Q 1056 1369 1301 889 
Q 1547 409 2034 409 
Q 2525 409 2770 889 
Q 3016 1369 3016 2328 
Q 3016 3291 2770 3770 
Q 2525 4250 2034 4250 
z
M 2034 4750 
Q 2819 4750 3233 4129 
Q 3647 3509 3647 2328 
Q 3647 1150 3233 529 
Q 2819 -91 2034 -91 
Q 1250 -91 836 529 
Q 422 1150 422 2328 
Q 422 3509 836 4129 
Q 1250 4750 2034 4750 
z
" transform="scale(0.015625)"/>
      <path id="DejaVuSans-41" d="M 2188 4044 
L 1331 1722 
L 3047 1722 
L 2188 4044 
z
M 1831 4666 
L 2547 4666 
L 4325 0 
L 3669 0 
L 3244 1197 
L 1141 1197 
L 716 0 
L 50 0 
L 1831 4666 
z
" transform="scale(0.015625)"/>
     </defs>
     <use xlink:href="#DejaVuSans-53"/>
     <use xlink:href="#DejaVuSans-52" x="63.476562"/>
     <use xlink:href="#DejaVuSans-56" x="127.458984"/>
     <use xlink:href="#DejaVuSans-20" x="195.867188"/>
     <use xlink:href="#DejaVuSans-2d" x="227.654297"/>
     <use xlink:href="#DejaVuSans-20" x="263.738281"/>
     <use xlink:href="#DejaVuSans-4d" x="295.525391"/>
     <use xlink:href="#DejaVuSans-43" x="381.804688"/>
     <use xlink:href="#DejaVuSans-46" x="451.628906"/>
     <use xlink:href="#DejaVuSans-31" x="509.148438"/>
     <use xlink:href="#DejaVuSans-30" x="572.771484"/>
     <use xlink:href="#DejaVuSans-41" x="636.394531"/>
    </g>
   </g>
  </g>
  <g id="axes_2">
   <g id="line2d_2">
    <path d="M 370.042236 73.947735 
L 370.421395 75.048003 
L 371.227374 76.544877 
L 372.074492 77.851042 
L 372.392466 77.925853 
L 372.635643 77.766285 
L 373.374285 77.786427 
L 373.397477 77.528947 
L 372.963758 76.394902 
L 372.801217 75.985317 
L 372.660317 75.790206 
L 372.397327 75.314998 
L 371.610287 73.645349 
L 370.332375 71.476633 
L 368.710126 70.152496 
L 367.786869 69.041335 
L 366.975323 68.417383 
L 364.615484 67.063961 
L 363.768524 66.403669 
L 362.442377 65.955576 
L 360.48141 64.625767 
L 359.847524 64.167508 
L 359.060319 63.653703 
L 357.561908 62.65381 
L 356.505619 62.139531 
L 355.689215 61.83426 
L 353.896545 60.983339 
L 352.901089 60.47736 
L 352.175488 60.091964 
L 350.101059 59.61146 
L 349.498351 59.461053 
L 348.398019 59.211188 
L 347.492406 59.056367 
L 344.832559 58.882116 
L 343.176375 58.989925 
L 341.731855 58.876576 
L 340.019867 58.829432 
L 337.614891 58.585661 
L 335.949387 58.681914 
L 333.941751 58.705996 
L 332.498004 58.486825 
L 331.683291 58.430454 
L 330.605119 58.287645 
L 320.861419 57.907179 
L 319.328345 57.678663 
L 317.422314 57.601695 
L 314.300769 57.712265 
L 310.826161 57.833007 
L 305.554374 57.887044 
L 302.352095 57.689736 
L 300.63978 57.820279 
L 299.453673 57.942743 
L 288.906621 60.021587 
L 286.65492 60.715759 
L 285.270621 61.073711 
L 282.536655 61.730816 
L 280.670233 62.016067 
L 278.748799 62.367258 
L 277.495442 62.798554 
L 275.84359 63.545957 
L 274.302273 64.079371 
L 267.95805 65.66802 
L 266.502148 65.850567 
L 259.712447 67.234875 
L 258.828551 67.434 
L 257.837989 67.828963 
L 256.958562 68.046535 
L 256.069676 68.134578 
L 254.58931 68.30251 
L 249.488037 69.027418 
L 246.755256 69.811069 
L 244.979274 70.294858 
L 241.038184 71.832438 
L 238.22426 73.259536 
L 233.845657 74.831126 
L 232.35904 75.448209 
L 230.308562 76.085471 
L 227.133593 78.100758 
L 226.330342 78.659479 
L 222.766786 81.128124 
L 218.623588 84.526188 
L 218.142645 85.067128 
L 217.565768 85.418696 
L 216.90071 85.812363 
L 214.965918 87.628144 
L 214.421971 88.361197 
L 213.965022 89.029342 
L 213.280434 90.100858 
L 211.753861 92.288522 
L 210.809965 94.569798 
L 210.455117 95.14313 
L 210.112812 95.839704 
L 209.962646 96.003177 
L 209.801751 96.823178 
L 209.889994 97.242878 
L 210.065934 97.729723 
L 210.993616 100.296553 
L 211.601481 100.616333 
L 213.102631 102.053219 
L 213.651915 102.839125 
L 214.27171 103.445204 
L 215.237505 104.271159 
L 216.624548 105.688103 
L 217.106303 105.885433 
L 217.406152 106.017043 
L 218.221327 106.244308 
L 218.890183 106.435513 
L 219.859514 106.708573 
L 221.075447 106.886847 
L 223.500272 107.714081 
L 224.925157 107.989883 
L 225.968184 108.202942 
L 226.903963 108.450358 
L 227.96316 108.79661 
L 229.086535 109.211673 
L 230.975934 109.76537 
L 233.163658 110.200798 
L 239.521265 112.253097 
L 241.313513 112.754064 
L 244.85435 113.195999 
L 246.183171 113.09858 
L 247.387273 113.157762 
L 248.986515 113.44608 
L 250.04708 113.576709 
L 251.175205 113.647826 
L 252.967925 113.545802 
L 260.060962 113.095942 
L 263.280188 112.628378 
L 266.517597 112.426473 
L 267.232973 112.365744 
L 268.086907 112.402069 
L 274.971307 111.780752 
L 277.281534 111.623415 
L 279.660101 111.446043 
L 282.854801 111.356335 
L 286.226221 111.016393 
L 290.026902 110.504962 
L 291.708537 110.254697 
L 293.110007 109.842489 
L 297.095865 108.459605 
L 301.993624 106.989096 
L 304.756682 106.356015 
L 307.657043 105.845436 
L 309.927169 105.063396 
L 310.857386 104.664591 
L 312.168879 104.394048 
L 313.460826 103.998673 
L 315.291461 103.448522 
L 317.292605 102.69457 
L 318.125118 102.336414 
L 319.716807 101.468765 
L 322.979374 99.961945 
L 324.277552 99.370143 
L 326.897439 98.148091 
L 329.946031 97.138044 
L 330.709753 96.888614 
L 333.604576 95.48647 
L 335.041694 94.940421 
L 336.356946 94.188816 
L 338.183811 93.154566 
L 341.863138 91.305087 
L 344.044738 90.517747 
L 345.030944 90.074922 
L 345.92112 89.535654 
L 347.086307 88.698468 
L 348.26807 88.147428 
L 349.563993 87.427676 
L 350.570083 86.703671 
L 352.066458 85.486698 
L 352.849858 85.16706 
L 353.179053 84.815768 
L 354.221833 83.563542 
L 355.197285 82.654623 
L 355.700844 82.164936 
L 357.144603 80.354873 
L 357.633564 79.953826 
L 358.837007 78.676997 
L 359.480834 78.153511 
L 360.232999 76.995419 
L 360.887488 76.192974 
L 361.117139 75.862668 
L 361.774413 74.656888 
L 363.481186 72.519209 
L 364.904825 69.48921 
L 365.356819 68.531067 
L 365.713231 67.741148 
L 366.036757 67.090071 
L 366.489647 66.728006 
L 366.610949 66.622185 
L 366.524999 66.802993 
L 366.39359 67.105932 
L 366.144391 67.450128 
L 365.562604 69.090463 
L 365.545154 73.461807 
L 365.411907 73.724672 
L 365.411907 73.724672 
" clip-path="url(#pd869382dc9)" style="fill: none; stroke: #ff7f0e; stroke-width: 1.5; stroke-linecap: square"/>
   </g>
   <g id="text_2">
    <!-- SRV - MCF7 -->
    <g transform="translate(234.323437 26.64) scale(0.2 -0.2)">
     <defs>
      <path id="DejaVuSans-37" d="M 525 4666 
L 3525 4666 
L 3525 4397 
L 1831 0 
L 1172 0 
L 2766 4134 
L 525 4134 
L 525 4666 
z
" transform="scale(0.015625)"/>
     </defs>
     <use xlink:href="#DejaVuSans-53"/>
     <use xlink:href="#DejaVuSans-52" x="63.476562"/>
     <use xlink:href="#DejaVuSans-56" x="127.458984"/>
     <use xlink:href="#DejaVuSans-20" x="195.867188"/>
     <use xlink:href="#DejaVuSans-2d" x="227.654297"/>
     <use xlink:href="#DejaVuSans-20" x="263.738281"/>
     <use xlink:href="#DejaVuSans-4d" x="295.525391"/>
     <use xlink:href="#DejaVuSans-43" x="381.804688"/>
     <use xlink:href="#DejaVuSans-46" x="451.628906"/>
     <use xlink:href="#DejaVuSans-37" x="509.148438"/>
    </g>
   </g>
  </g>
  <g id="axes_3">
   <g id="line2d_3">
    <path d="M 561.931457 77.709153 
L 561.890539 78.564839 
L 561.682264 80.372389 
L 561.50864 80.35681 
L 561.25425 80.351368 
L 560.921746 80.040394 
L 560.399542 79.588696 
L 558.208784 78.032668 
L 557.654876 77.676297 
L 556.781442 77.262829 
L 556.187629 77.079276 
L 554.761172 76.801588 
L 552.180208 75.768332 
L 551.456317 75.45469 
L 548.7891 74.462264 
L 547.82908 74.258477 
L 547.04821 74.110589 
L 541.657894 72.900075 
L 540.675389 72.760605 
L 539.667851 72.537623 
L 537.24648 72.301463 
L 533.259442 71.980839 
L 531.438803 71.839662 
L 528.521664 71.484634 
L 524.553349 71.057826 
L 520.427659 70.680406 
L 518.837993 70.550574 
L 515.752576 70.513532 
L 513.437788 70.342965 
L 511.25153 70.287258 
L 509.755841 70.220271 
L 503.491256 70.420894 
L 499.903425 70.676089 
L 498.143244 70.605559 
L 496.774903 70.505149 
L 492.535572 70.565989 
L 487.213967 70.837355 
L 484.97857 70.972417 
L 474.973148 71.929421 
L 473.990843 71.93961 
L 468.253763 72.536528 
L 466.913858 72.626855 
L 459.503643 73.809472 
L 454.446276 73.879916 
L 452.089344 74.288165 
L 449.573156 74.512601 
L 444.007579 75.396247 
L 442.688781 75.630724 
L 440.491018 76.119867 
L 437.279697 76.655497 
L 435.825695 76.976703 
L 433.540642 77.053814 
L 430.573377 77.814995 
L 426.952 78.837574 
L 426.057166 79.12747 
L 423.379491 79.789642 
L 422.453459 80.037127 
L 418.8011 80.761384 
L 416.632308 81.443297 
L 415.625567 81.656121 
L 413.62131 82.256767 
L 412.755841 82.470969 
L 411.814748 82.884743 
L 409.996715 83.654265 
L 409.114942 83.970577 
L 407.979462 84.422709 
L 405.550795 85.470004 
L 402.319217 87.338659 
L 401.967047 87.634311 
L 401.409262 88.015275 
L 401.037455 88.289769 
L 400.801734 88.479826 
L 400.584658 88.906971 
L 400.764603 89.187254 
L 402.02445 89.882941 
L 402.656352 90.184052 
L 403.049469 90.42557 
L 403.590737 90.643579 
L 404.386973 91.003267 
L 406.200141 91.88255 
L 407.001071 92.268254 
L 413.667846 95.486786 
L 417.284803 96.523996 
L 418.908005 96.718133 
L 420.55742 97.072679 
L 421.801884 97.254244 
L 425.310419 97.812254 
L 428.663725 98.286023 
L 432.44205 98.409719 
L 435.363858 98.773035 
L 436.631225 98.900917 
L 438.870455 99.202269 
L 440.104116 99.189682 
L 440.894672 99.20664 
L 449.051832 99.814814 
L 450.37689 99.837101 
L 451.362583 99.782779 
L 453.544831 99.629456 
L 456.867856 99.653671 
L 466.99953 100.608463 
L 469.356139 100.782395 
L 474.586614 101.019729 
L 483.989383 100.788358 
L 493.662297 100.022128 
L 497.470394 99.731098 
L 500.167493 99.49589 
L 501.722001 99.389135 
L 504.041589 99.180012 
L 508.504038 98.803429 
L 515.004698 97.822295 
L 517.76327 97.680106 
L 518.834163 97.530414 
L 520.395249 97.190277 
L 522.856319 96.832775 
L 524.031075 96.552127 
L 525.499056 96.158978 
L 526.778058 96.010811 
L 528.051969 95.82472 
L 530.045015 95.311496 
L 531.247511 94.971948 
L 532.52 94.66281 
L 534.318076 94.139395 
L 537.47031 93.457367 
L 541.301664 92.240554 
L 542.544189 91.690238 
L 544.928943 90.948365 
L 545.973165 90.57184 
L 550.117989 89.077971 
L 551.239149 88.461716 
L 553.24683 87.40235 
L 555.435113 85.880876 
L 555.918286 85.63481 
L 557.17194 84.902092 
L 557.41576 84.71068 
L 558.018286 84.057486 
L 559.138125 83.294988 
L 559.65245 82.891872 
L 560.852173 81.668933 
L 561.297418 81.124451 
L 562.744602 79.827337 
L 563.196607 80.509243 
L 563.755849 81.686956 
L 564.198221 83.484949 
L 564.141454 83.694253 
L 564.141454 83.694253 
" clip-path="url(#pd00f3e3e38)" style="fill: none; stroke: #2ca02c; stroke-width: 1.5; stroke-linecap: square"/>
   </g>
   <g id="text_3">
    <!-- SRV - MDA_MB_231 -->
    <g transform="translate(385.278125 26.64) scale(0.2 -0.2)">
     <defs>
      <path id="DejaVuSans-44" d="M 1259 4147 
L 1259 519 
L 2022 519 
Q 2988 519 3436 956 
Q 3884 1394 3884 2338 
Q 3884 3275 3436 3711 
Q 2988 4147 2022 4147 
L 1259 4147 
z
M 628 4666 
L 1925 4666 
Q 3281 4666 3915 4102 
Q 4550 3538 4550 2338 
Q 4550 1131 3912 565 
Q 3275 0 1925 0 
L 628 0 
L 628 4666 
z
" transform="scale(0.015625)"/>
      <path id="DejaVuSans-5f" d="M 3263 -1063 
L 3263 -1509 
L -63 -1509 
L -63 -1063 
L 3263 -1063 
z
" transform="scale(0.015625)"/>
      <path id="DejaVuSans-42" d="M 1259 2228 
L 1259 519 
L 2272 519 
Q 2781 519 3026 730 
Q 3272 941 3272 1375 
Q 3272 1813 3026 2020 
Q 2781 2228 2272 2228 
L 1259 2228 
z
M 1259 4147 
L 1259 2741 
L 2194 2741 
Q 2656 2741 2882 2914 
Q 3109 3088 3109 3444 
Q 3109 3797 2882 3972 
Q 2656 4147 2194 4147 
L 1259 4147 
z
M 628 4666 
L 2241 4666 
Q 2963 4666 3353 4366 
Q 3744 4066 3744 3513 
Q 3744 3084 3544 2831 
Q 3344 2578 2956 2516 
Q 3422 2416 3680 2098 
Q 3938 1781 3938 1306 
Q 3938 681 3513 340 
Q 3088 0 2303 0 
L 628 0 
L 628 4666 
z
" transform="scale(0.015625)"/>
      <path id="DejaVuSans-32" d="M 1228 531 
L 3431 531 
L 3431 0 
L 469 0 
L 469 531 
Q 828 903 1448 1529 
Q 2069 2156 2228 2338 
Q 2531 2678 2651 2914 
Q 2772 3150 2772 3378 
Q 2772 3750 2511 3984 
Q 2250 4219 1831 4219 
Q 1534 4219 1204 4116 
Q 875 4013 500 3803 
L 500 4441 
Q 881 4594 1212 4672 
Q 1544 4750 1819 4750 
Q 2544 4750 2975 4387 
Q 3406 4025 3406 3419 
Q 3406 3131 3298 2873 
Q 3191 2616 2906 2266 
Q 2828 2175 2409 1742 
Q 1991 1309 1228 531 
z
" transform="scale(0.015625)"/>
      <path id="DejaVuSans-33" d="M 2597 2516 
Q 3050 2419 3304 2112 
Q 3559 1806 3559 1356 
Q 3559 666 3084 287 
Q 2609 -91 1734 -91 
Q 1441 -91 1130 -33 
Q 819 25 488 141 
L 488 750 
Q 750 597 1062 519 
Q 1375 441 1716 441 
Q 2309 441 2620 675 
Q 2931 909 2931 1356 
Q 2931 1769 2642 2001 
Q 2353 2234 1838 2234 
L 1294 2234 
L 1294 2753 
L 1863 2753 
Q 2328 2753 2575 2939 
Q 2822 3125 2822 3475 
Q 2822 3834 2567 4026 
Q 2313 4219 1838 4219 
Q 1578 4219 1281 4162 
Q 984 4106 628 3988 
L 628 4550 
Q 988 4650 1302 4700 
Q 1616 4750 1894 4750 
Q 2613 4750 3031 4423 
Q 3450 4097 3450 3541 
Q 3450 3153 3228 2886 
Q 3006 2619 2597 2516 
z
" transform="scale(0.015625)"/>
     </defs>
     <use xlink:href="#DejaVuSans-53"/>
     <use xlink:href="#DejaVuSans-52" x="63.476562"/>
     <use xlink:href="#DejaVuSans-56" x="127.458984"/>
     <use xlink:href="#DejaVuSans-20" x="195.867188"/>
     <use xlink:href="#DejaVuSans-2d" x="227.654297"/>
     <use xlink:href="#DejaVuSans-20" x="263.738281"/>
     <use xlink:href="#DejaVuSans-4d" x="295.525391"/>
     <use xlink:href="#DejaVuSans-44" x="381.804688"/>
     <use xlink:href="#DejaVuSans-41" x="457.056641"/>
     <use xlink:href="#DejaVuSans-5f" x="525.464844"/>
     <use xlink:href="#DejaVuSans-4d" x="575.464844"/>
     <use xlink:href="#DejaVuSans-42" x="661.744141"/>
     <use xlink:href="#DejaVuSans-5f" x="730.347656"/>
     <use xlink:href="#DejaVuSans-32" x="780.347656"/>
     <use xlink:href="#DejaVuSans-33" x="843.970703"/>
     <use xlink:href="#DejaVuSans-31" x="907.59375"/>
    </g>
   </g>
  </g>
  <g id="axes_4">
   <g id="line2d_4">
    <path d="M 182.515486 232.197766 
L 181.421593 232.930892 
L 180.191922 234.137834 
L 179.603854 234.494713 
L 178.474005 234.888638 
L 177.497932 235.486508 
L 176.410066 235.983722 
L 175.279152 236.334187 
L 172.965849 237.407499 
L 171.697176 237.64964 
L 170.15217 237.856065 
L 168.692568 238.414691 
L 167.521124 238.790624 
L 164.494965 239.401181 
L 162.105506 239.67043 
L 160.517503 239.986596 
L 157.049909 240.407354 
L 156.167214 240.472395 
L 155.381075 240.615892 
L 154.620728 240.741426 
L 152.793397 241.163833 
L 149.928134 241.247186 
L 148.882766 241.295572 
L 147.64413 241.48364 
L 146.323712 241.69701 
L 145.243804 241.88077 
L 144.272308 242.293079 
L 143.296931 242.703297 
L 141.59312 243.244462 
L 139.90129 243.551977 
L 138.620569 243.908481 
L 137.42866 244.124616 
L 135.920789 244.343129 
L 133.076827 245.054787 
L 131.134574 245.510394 
L 128.784956 245.921344 
L 123.394884 246.415372 
L 120.66964 246.697843 
L 119.173774 246.775696 
L 113.734017 247.482805 
L 111.92261 247.450187 
L 107.224833 247.410066 
L 104.673089 247.516012 
L 99.928933 247.686665 
L 96.903777 247.447636 
L 94.12981 247.318162 
L 80.212973 246.203574 
L 76.60945 246.083133 
L 75.039134 245.883165 
L 71.990639 245.622718 
L 70.65175 245.360044 
L 69.210314 245.096375 
L 63.858669 244.733418 
L 56.881901 243.431573 
L 55.259795 242.79568 
L 53.819271 242.073386 
L 52.07889 241.64208 
L 47.312423 240.13253 
L 45.303765 239.711346 
L 42.846502 238.912044 
L 41.931432 238.598443 
L 40.744435 238.141703 
L 39.086359 237.521739 
L 37.68909 237.219636 
L 36.932088 237.102923 
L 33.188674 236.132802 
L 32.074329 235.759516 
L 31.103125 235.346494 
L 30.036053 234.511797 
L 27.660806 232.501411 
L 26.730973 232.059805 
L 22.95265 229.393649 
L 21.823669 227.960727 
L 20.468708 225.890056 
L 19.830031 225.068127 
L 19.491627 224.057732 
L 19.066342 222.59896 
L 18.984211 222.260004 
L 19.045086 220.788636 
L 19.223027 219.975954 
L 19.298875 219.124204 
L 19.903136 216.822417 
L 19.915097 216.357863 
L 21.332934 214.204403 
L 22.341935 213.378016 
L 24.294489 212.115707 
L 24.514292 211.819429 
L 25.38487 211.150992 
L 27.512502 210.340676 
L 28.634424 209.858944 
L 30.484483 209.175946 
L 35.320425 207.965656 
L 36.317575 207.743129 
L 37.81412 207.500253 
L 48.111469 205.539137 
L 49.920685 205.160044 
L 57.790977 203.62453 
L 65.430096 202.361754 
L 66.501492 202.245545 
L 67.809711 202.039729 
L 69.610505 201.759677 
L 73.385172 201.462019 
L 74.695596 201.266088 
L 76.941278 201.177274 
L 84.649276 201.638287 
L 87.640493 201.323763 
L 94.498365 200.887949 
L 96.559999 200.755561 
L 98.169382 200.741827 
L 99.833208 200.737026 
L 107.762051 201.476486 
L 109.908058 201.671115 
L 111.889084 201.790392 
L 116.440049 202.653576 
L 119.82236 203.222182 
L 122.480059 203.923323 
L 124.625217 204.352846 
L 127.280174 204.691474 
L 128.88948 205.041834 
L 131.022247 205.397838 
L 132.172085 205.834598 
L 133.227372 206.176714 
L 134.088871 206.539551 
L 135.702987 207.027242 
L 137.430904 207.604851 
L 140.227827 208.212735 
L 141.4067 208.864844 
L 142.545126 209.382 
L 145.382757 210.212605 
L 151.014993 211.713239 
L 152.486692 212.378998 
L 156.172335 213.681386 
L 161.533073 216.372056 
L 162.5876 216.913827 
L 163.448651 217.479457 
L 165.358706 218.289904 
L 167.980194 219.681892 
L 170.33601 220.656749 
L 174.31049 223.108275 
L 175.244535 223.921576 
L 178.313775 225.85567 
L 179.061433 226.268656 
L 179.773791 227.007606 
L 180.7006 228.162424 
L 182.331991 230.286053 
L 182.561147 231.486496 
L 182.618182 231.911278 
L 182.618182 231.911278 
" clip-path="url(#p4d63520cb5)" style="fill: none; stroke: #1f77b4; stroke-width: 1.5; stroke-linecap: square"/>
   </g>
   <g id="text_4">
    <!-- Linear - MCF10A -->
    <g transform="translate(18.828125 165.24) scale(0.2 -0.2)">
     <defs>
      <path id="DejaVuSans-4c" d="M 628 4666 
L 1259 4666 
L 1259 531 
L 3531 531 
L 3531 0 
L 628 0 
L 628 4666 
z
" transform="scale(0.015625)"/>
      <path id="DejaVuSans-69" d="M 603 3500 
L 1178 3500 
L 1178 0 
L 603 0 
L 603 3500 
z
M 603 4863 
L 1178 4863 
L 1178 4134 
L 603 4134 
L 603 4863 
z
" transform="scale(0.015625)"/>
      <path id="DejaVuSans-6e" d="M 3513 2113 
L 3513 0 
L 2938 0 
L 2938 2094 
Q 2938 2591 2744 2837 
Q 2550 3084 2163 3084 
Q 1697 3084 1428 2787 
Q 1159 2491 1159 1978 
L 1159 0 
L 581 0 
L 581 3500 
L 1159 3500 
L 1159 2956 
Q 1366 3272 1645 3428 
Q 1925 3584 2291 3584 
Q 2894 3584 3203 3211 
Q 3513 2838 3513 2113 
z
" transform="scale(0.015625)"/>
      <path id="DejaVuSans-65" d="M 3597 1894 
L 3597 1613 
L 953 1613 
Q 991 1019 1311 708 
Q 1631 397 2203 397 
Q 2534 397 2845 478 
Q 3156 559 3463 722 
L 3463 178 
Q 3153 47 2828 -22 
Q 2503 -91 2169 -91 
Q 1331 -91 842 396 
Q 353 884 353 1716 
Q 353 2575 817 3079 
Q 1281 3584 2069 3584 
Q 2775 3584 3186 3129 
Q 3597 2675 3597 1894 
z
M 3022 2063 
Q 3016 2534 2758 2815 
Q 2500 3097 2075 3097 
Q 1594 3097 1305 2825 
Q 1016 2553 972 2059 
L 3022 2063 
z
" transform="scale(0.015625)"/>
      <path id="DejaVuSans-61" d="M 2194 1759 
Q 1497 1759 1228 1600 
Q 959 1441 959 1056 
Q 959 750 1161 570 
Q 1363 391 1709 391 
Q 2188 391 2477 730 
Q 2766 1069 2766 1631 
L 2766 1759 
L 2194 1759 
z
M 3341 1997 
L 3341 0 
L 2766 0 
L 2766 531 
Q 2569 213 2275 61 
Q 1981 -91 1556 -91 
Q 1019 -91 701 211 
Q 384 513 384 1019 
Q 384 1609 779 1909 
Q 1175 2209 1959 2209 
L 2766 2209 
L 2766 2266 
Q 2766 2663 2505 2880 
Q 2244 3097 1772 3097 
Q 1472 3097 1187 3025 
Q 903 2953 641 2809 
L 641 3341 
Q 956 3463 1253 3523 
Q 1550 3584 1831 3584 
Q 2591 3584 2966 3190 
Q 3341 2797 3341 1997 
z
" transform="scale(0.015625)"/>
      <path id="DejaVuSans-72" d="M 2631 2963 
Q 2534 3019 2420 3045 
Q 2306 3072 2169 3072 
Q 1681 3072 1420 2755 
Q 1159 2438 1159 1844 
L 1159 0 
L 581 0 
L 581 3500 
L 1159 3500 
L 1159 2956 
Q 1341 3275 1631 3429 
Q 1922 3584 2338 3584 
Q 2397 3584 2469 3576 
Q 2541 3569 2628 3553 
L 2631 2963 
z
" transform="scale(0.015625)"/>
     </defs>
     <use xlink:href="#DejaVuSans-4c"/>
     <use xlink:href="#DejaVuSans-69" x="55.712891"/>
     <use xlink:href="#DejaVuSans-6e" x="83.496094"/>
     <use xlink:href="#DejaVuSans-65" x="146.875"/>
     <use xlink:href="#DejaVuSans-61" x="208.398438"/>
     <use xlink:href="#DejaVuSans-72" x="269.677734"/>
     <use xlink:href="#DejaVuSans-20" x="310.791016"/>
     <use xlink:href="#DejaVuSans-2d" x="342.578125"/>
     <use xlink:href="#DejaVuSans-20" x="378.662109"/>
     <use xlink:href="#DejaVuSans-4d" x="410.449219"/>
     <use xlink:href="#DejaVuSans-43" x="496.728516"/>
     <use xlink:href="#DejaVuSans-46" x="566.552734"/>
     <use xlink:href="#DejaVuSans-31" x="624.072266"/>
     <use xlink:href="#DejaVuSans-30" x="687.695312"/>
     <use xlink:href="#DejaVuSans-41" x="751.318359"/>
    </g>
   </g>
  </g>
  <g id="axes_5">
   <g id="line2d_5">
    <path d="M 373.361748 215.377182 
L 371.579181 218.144824 
L 371.574932 218.525196 
L 371.63362 218.858354 
L 371.535436 219.033381 
L 371.286205 219.349021 
L 370.819009 220.245381 
L 368.600407 225.193137 
L 368.502107 225.437539 
L 368.614582 225.825778 
L 368.526513 225.920767 
L 368.061994 226.091312 
L 367.947795 226.305611 
L 367.879154 227.033246 
L 367.661969 227.149955 
L 367.221171 227.306584 
L 365.806587 228.274704 
L 365.868836 228.190838 
L 365.864684 228.088709 
L 365.806838 228.085934 
L 365.330193 228.15117 
L 364.98261 228.216192 
L 364.632437 228.214831 
L 364.082296 228.410127 
L 362.409259 229.82175 
L 360.954236 230.277615 
L 360.441579 230.500976 
L 360.13625 230.590201 
L 358.370835 231.694539 
L 357.603772 232.048265 
L 356.865064 232.344063 
L 354.842058 232.519565 
L 352.605464 234.202572 
L 352.16979 234.663266 
L 351.504973 234.907223 
L 349.877158 235.78774 
L 349.385973 235.969072 
L 349.106944 236.158959 
L 347.972903 236.509492 
L 347.159468 237.141427 
L 346.127403 237.566946 
L 344.202772 237.78488 
L 343.177316 238.727858 
L 342.807584 238.961118 
L 342.005055 239.072661 
L 341.571002 239.399781 
L 341.104521 239.671486 
L 340.009994 239.922414 
L 339.567456 240.026423 
L 336.140518 241.230009 
L 335.670541 241.235411 
L 335.08975 241.554764 
L 333.38664 242.590766 
L 332.62329 242.719239 
L 331.294486 242.818967 
L 329.293984 243.482205 
L 328.360228 243.777886 
L 327.110158 243.882263 
L 325.513599 244.024879 
L 324.419963 244.046387 
L 322.753536 244.085153 
L 319.70488 245.091509 
L 316.368227 245.321403 
L 315.15774 245.23461 
L 313.836341 245.16585 
L 312.486824 245.198617 
L 310.815403 245.321004 
L 307.772877 245.586096 
L 306.493795 245.278482 
L 306.110226 245.096955 
L 302.086598 244.43038 
L 300.624693 244.475473 
L 298.502389 244.599504 
L 296.18293 244.49346 
L 293.959334 244.21715 
L 293.119314 243.995307 
L 291.155337 243.413044 
L 288.198487 243.267809 
L 286.522061 243.415052 
L 285.037201 243.57718 
L 284.030012 243.592957 
L 282.304081 243.643423 
L 280.53696 243.65926 
L 278.622658 244.002862 
L 276.220963 244.217914 
L 273.987502 244.6574 
L 272.620421 245.136493 
L 271.889683 245.213032 
L 270.740851 245.23737 
L 263.879285 245.857712 
L 260.847927 245.703745 
L 258.284172 246.820783 
L 257.359884 246.728688 
L 256.363627 246.649947 
L 255.300963 246.930334 
L 254.751235 247.003482 
L 254.306278 246.762891 
L 254.06858 246.654407 
L 253.358845 246.766218 
L 252.887054 246.80839 
L 251.719516 246.336384 
L 249.188981 244.890546 
L 248.191291 243.978358 
L 247.432793 243.587296 
L 246.882374 243.430914 
L 246.550744 243.35219 
L 244.322066 242.566584 
L 240.78011 240.387313 
L 237.985508 239.68741 
L 235.038743 239.026568 
L 233.585985 238.805715 
L 230.295128 238.652381 
L 227.347825 238.021165 
L 223.898896 236.97954 
L 222.631589 236.882105 
L 221.900682 236.928422 
L 221.550834 237.018348 
L 221.355185 236.863043 
L 221.060154 236.401028 
L 220.767055 236.119602 
L 220.513285 236.265686 
L 219.990517 236.501778 
L 219.242929 236.345844 
L 218.156826 236.354462 
L 215.319124 236.495691 
L 215.176125 236.590328 
L 214.80698 236.804629 
L 213.825537 236.880345 
L 213.375313 236.750771 
L 212.805597 236.450362 
L 210.839884 233.424419 
L 210.476751 232.549604 
L 210.174799 231.297335 
L 209.850781 231.105421 
L 209.793361 230.778022 
L 209.914932 228.864854 
L 209.910341 228.472583 
L 209.96032 228.318649 
L 210.416231 228.108659 
L 210.765558 227.561514 
L 210.929882 227.480809 
L 210.825152 227.603217 
L 210.848568 227.838183 
L 210.928107 227.778592 
L 210.946948 227.474823 
L 210.949824 227.345274 
L 211.460554 226.886546 
L 212.251706 226.329988 
L 213.449393 225.338646 
L 214.372393 224.902528 
L 215.248378 224.462121 
L 215.902726 224.23947 
L 216.090367 223.962521 
L 216.466059 223.822357 
L 216.890726 223.845875 
L 217.578073 223.832779 
L 218.161543 223.508816 
L 218.629191 223.226973 
L 219.137613 223.063766 
L 219.867881 222.848292 
L 220.596589 222.460075 
L 221.176612 221.848787 
L 222.861462 220.069856 
L 223.400211 219.530673 
L 223.656943 219.034249 
L 223.784184 218.68417 
L 224.280804 218.028698 
L 225.226977 217.513442 
L 225.952485 216.963929 
L 227.304852 216.208604 
L 227.923345 215.462799 
L 228.560097 215.22371 
L 229.461922 214.995991 
L 230.746806 214.137579 
L 231.000994 214.121087 
L 233.517718 214.214682 
L 234.675713 214.043732 
L 235.571888 213.811017 
L 236.36418 213.514944 
L 239.853519 213.047506 
L 240.888822 212.308046 
L 241.401208 211.874957 
L 242.200918 211.572233 
L 244.539724 211.22473 
L 245.455584 210.643677 
L 246.994891 209.92679 
L 249.483083 208.259713 
L 250.69071 207.558691 
L 251.083597 207.529235 
L 251.804823 207.516389 
L 253.813475 207.792895 
L 254.85885 208.00912 
L 255.677201 208.030665 
L 257.005252 207.670479 
L 257.35579 207.513632 
L 258.561452 207.291203 
L 259.536017 207.021896 
L 260.81681 206.398988 
L 261.718303 205.976248 
L 263.546862 205.357078 
L 264.731752 205.067518 
L 265.758417 204.788992 
L 266.698293 204.731997 
L 268.202388 204.786284 
L 269.143593 204.5116 
L 270.539158 204.219913 
L 271.601717 204.265219 
L 276.145707 204.594505 
L 276.970939 204.45837 
L 280.409679 203.376609 
L 281.171841 203.560418 
L 281.758349 203.671251 
L 283.154351 203.653856 
L 284.504471 203.560421 
L 286.45776 203.66842 
L 287.878595 203.433586 
L 289.351874 202.977585 
L 289.975913 202.824972 
L 290.770655 202.860641 
L 291.635304 202.699075 
L 293.700912 202.121004 
L 295.646258 202.188937 
L 296.786767 202.182179 
L 299.123922 201.988734 
L 300.379394 201.867126 
L 304.184871 201.500875 
L 306.177293 201.615641 
L 306.948301 201.744335 
L 307.675189 201.72476 
L 308.439769 201.639396 
L 309.232853 201.55971 
L 310.965517 201.457102 
L 311.970048 201.670535 
L 315.250769 202.523009 
L 316.736043 202.829172 
L 317.919482 203.025325 
L 322.336081 203.669687 
L 324.466581 204.032568 
L 326.866518 205.125548 
L 327.487631 205.120635 
L 329.437689 204.551181 
L 330.319803 204.935346 
L 331.386086 205.665614 
L 332.65154 205.990925 
L 333.963754 206.27103 
L 335.044124 206.247083 
L 335.91973 206.013541 
L 336.568703 206.332503 
L 337.724874 206.992491 
L 339.435142 207.825239 
L 340.975126 208.140409 
L 342.614202 208.741202 
L 344.809663 209.850454 
L 345.234282 210.005961 
L 345.862846 210.280404 
L 346.166968 210.601894 
L 346.350908 211.022712 
L 346.748323 211.21498 
L 347.268699 211.346957 
L 348.308575 211.652335 
L 352.335813 213.116066 
L 353.2249 213.347175 
L 354.79804 214.447958 
L 355.61664 214.733525 
L 356.36441 214.697676 
L 356.547904 214.696073 
L 357.05511 214.544035 
L 357.851636 214.659389 
L 358.864476 214.230528 
L 360.778583 213.292006 
L 361.996106 213.547906 
L 362.406653 213.825162 
L 363.801252 213.701428 
L 364.64583 213.762691 
L 365.634743 213.528075 
L 366.183604 213.259523 
L 366.676584 213.020097 
L 367.425446 212.757848 
L 367.69453 212.726059 
L 368.361494 213.036487 
L 368.841222 213.319456 
L 369.46438 213.403845 
L 369.72895 213.301298 
L 370.868647 213.389812 
L 372.075005 213.972272 
L 372.57252 214.225205 
L 373.133834 214.311032 
L 373.368551 214.976988 
L 373.418182 215.10011 
L 373.418182 215.10011 
" clip-path="url(#p30323d0634)" style="fill: none; stroke: #ff7f0e; stroke-width: 1.5; stroke-linecap: square"/>
   </g>
   <g id="text_5">
    <!-- Linear - MCF7 -->
    <g transform="translate(222.83125 165.24) scale(0.2 -0.2)">
     <use xlink:href="#DejaVuSans-4c"/>
     <use xlink:href="#DejaVuSans-69" x="55.712891"/>
     <use xlink:href="#DejaVuSans-6e" x="83.496094"/>
     <use xlink:href="#DejaVuSans-65" x="146.875"/>
     <use xlink:href="#DejaVuSans-61" x="208.398438"/>
     <use xlink:href="#DejaVuSans-72" x="269.677734"/>
     <use xlink:href="#DejaVuSans-20" x="310.791016"/>
     <use xlink:href="#DejaVuSans-2d" x="342.578125"/>
     <use xlink:href="#DejaVuSans-20" x="378.662109"/>
     <use xlink:href="#DejaVuSans-4d" x="410.449219"/>
     <use xlink:href="#DejaVuSans-43" x="496.728516"/>
     <use xlink:href="#DejaVuSans-46" x="566.552734"/>
     <use xlink:href="#DejaVuSans-37" x="624.072266"/>
    </g>
   </g>
  </g>
  <g id="axes_6">
   <g id="line2d_6">
    <path d="M 564.138879 219.082424 
L 562.977611 220.590448 
L 562.502062 221.232091 
L 561.707184 222.041673 
L 559.919975 223.970106 
L 559.08518 224.407789 
L 556.506875 225.658755 
L 555.744141 225.685791 
L 555.066048 225.731554 
L 554.188838 225.843171 
L 552.925152 225.924763 
L 552.062628 226.12253 
L 550.946923 226.394511 
L 548.029755 227.399685 
L 546.655459 227.298094 
L 545.513081 227.690434 
L 544.348868 228.170462 
L 540.844247 228.841862 
L 538.751261 229.041051 
L 535.359943 229.491714 
L 533.304369 229.438547 
L 529.853777 229.835795 
L 528.586498 229.993333 
L 527.059381 230.261411 
L 524.884278 230.51667 
L 524.070582 230.438515 
L 522.037662 230.20967 
L 516.421886 231.173351 
L 514.264531 231.803235 
L 511.41936 232.52142 
L 510.130526 232.693642 
L 508.539871 232.792027 
L 503.844078 233.25307 
L 497.774353 232.957085 
L 496.593486 233.087364 
L 494.661761 233.167213 
L 492.335322 233.489118 
L 487.768188 233.888725 
L 485.822078 233.936562 
L 484.139266 233.896745 
L 482.095841 233.986497 
L 478.536277 233.722762 
L 476.810471 233.77581 
L 472.233931 234.113112 
L 470.838586 234.347277 
L 470.054816 234.476067 
L 466.095851 234.7234 
L 464.865731 234.932666 
L 459.711417 235.361975 
L 457.557431 235.543288 
L 455.415336 235.61945 
L 453.432281 235.451471 
L 445.906843 236.110527 
L 443.960925 236.15428 
L 442.459854 236.223641 
L 438.685665 235.819191 
L 436.463218 235.656514 
L 433.638359 235.499868 
L 428.954161 235.126815 
L 427.283855 235.025067 
L 425.180382 235.042519 
L 422.840395 234.927596 
L 420.98734 234.792621 
L 419.548708 234.604792 
L 418.387915 234.441375 
L 416.834211 234.539484 
L 414.952579 234.924369 
L 413.678682 234.860502 
L 409.687662 234.168006 
L 408.960808 234.063096 
L 407.269006 234.125996 
L 406.013959 233.91546 
L 404.638452 233.374755 
L 403.677122 233.035442 
L 403.292355 232.768685 
L 403.004564 232.452286 
L 402.456788 231.572083 
L 401.882954 230.785113 
L 401.16377 229.760401 
L 401.134502 229.486923 
L 401.226883 229.29459 
L 401.216546 228.988775 
L 401.220653 228.64484 
L 401.380517 228.323866 
L 401.034613 227.662359 
L 400.668537 227.100614 
L 400.956199 226.704911 
L 401.764248 225.585203 
L 402.670905 225.183411 
L 403.015058 225.030638 
L 403.39217 224.764015 
L 404.445752 224.323517 
L 405.451409 223.593613 
L 406.496397 223.338582 
L 407.023068 223.166397 
L 408.039755 222.659062 
L 408.648428 222.298426 
L 410.708322 221.611789 
L 412.940725 221.051993 
L 413.991257 220.40056 
L 414.531099 220.134682 
L 416.210619 219.845935 
L 418.302409 219.779055 
L 422.229806 218.951647 
L 423.299758 218.447606 
L 424.324434 217.956237 
L 425.197727 217.828988 
L 434.082486 217.548473 
L 435.455221 217.650603 
L 436.580601 217.685154 
L 437.909153 217.602545 
L 439.192234 217.60699 
L 445.633368 216.588448 
L 447.615803 216.064517 
L 449.137503 215.878416 
L 453.597945 215.429263 
L 455.066298 215.470826 
L 458.62231 215.486799 
L 465.325651 215.407436 
L 467.039275 215.221984 
L 468.840618 215.170324 
L 471.511787 215.005712 
L 472.855403 214.906468 
L 474.520355 214.829414 
L 476.668726 214.400606 
L 478.876347 214.116178 
L 481.590632 214.020544 
L 484.689714 213.891544 
L 486.203833 213.693635 
L 487.927113 213.636885 
L 488.992877 213.605026 
L 490.319964 213.721034 
L 492.912486 213.741415 
L 495.163648 213.456994 
L 496.236831 213.3888 
L 498.642857 213.221124 
L 500.412091 213.183474 
L 502.311566 213.054401 
L 504.276072 212.852576 
L 510.871467 212.310787 
L 512.727426 212.547332 
L 514.347213 212.634418 
L 517.61 212.636742 
L 520.521757 212.265904 
L 521.529378 212.279739 
L 522.864828 212.25433 
L 524.437307 212.211102 
L 529.675366 212.595757 
L 533.362289 213.070879 
L 542.297808 213.482232 
L 543.008927 213.391015 
L 543.687063 213.391213 
L 545.127669 213.488331 
L 546.241706 213.690013 
L 547.252548 213.858879 
L 549.016339 214.004503 
L 551.692425 213.934536 
L 553.258627 214.211956 
L 553.735435 214.241893 
L 555.796924 214.767667 
L 557.443287 214.871906 
L 559.40736 215.709352 
L 560.677099 215.999625 
L 561.248418 216.098892 
L 561.931312 216.456601 
L 562.653203 216.953817 
L 564.046676 217.641302 
L 564.17863 218.499392 
L 564.218182 218.810821 
L 564.218182 218.810821 
" clip-path="url(#p269c3530b8)" style="fill: none; stroke: #2ca02c; stroke-width: 1.5; stroke-linecap: square"/>
   </g>
   <g id="text_6">
    <!-- Linear - MDA_MB_231 -->
    <g transform="translate(373.785937 165.24) scale(0.2 -0.2)">
     <use xlink:href="#DejaVuSans-4c"/>
     <use xlink:href="#DejaVuSans-69" x="55.712891"/>
     <use xlink:href="#DejaVuSans-6e" x="83.496094"/>
     <use xlink:href="#DejaVuSans-65" x="146.875"/>
     <use xlink:href="#DejaVuSans-61" x="208.398438"/>
     <use xlink:href="#DejaVuSans-72" x="269.677734"/>
     <use xlink:href="#DejaVuSans-20" x="310.791016"/>
     <use xlink:href="#DejaVuSans-2d" x="342.578125"/>
     <use xlink:href="#DejaVuSans-20" x="378.662109"/>
     <use xlink:href="#DejaVuSans-4d" x="410.449219"/>
     <use xlink:href="#DejaVuSans-44" x="496.728516"/>
     <use xlink:href="#DejaVuSans-41" x="571.980469"/>
     <use xlink:href="#DejaVuSans-5f" x="640.388672"/>
     <use xlink:href="#DejaVuSans-4d" x="690.388672"/>
     <use xlink:href="#DejaVuSans-42" x="776.667969"/>
     <use xlink:href="#DejaVuSans-5f" x="845.271484"/>
     <use xlink:href="#DejaVuSans-32" x="895.271484"/>
     <use xlink:href="#DejaVuSans-33" x="958.894531"/>
     <use xlink:href="#DejaVuSans-31" x="1022.517578"/>
    </g>
   </g>
  </g>
 </g>
 <defs>
  <clipPath id="pa7cede8ad1">
   <rect x="10.8" y="32.64" width="180" height="105.96"/>
  </clipPath>
  <clipPath id="pd869382dc9">
   <rect x="201.6" y="32.64" width="180" height="105.96"/>
  </clipPath>
  <clipPath id="pd00f3e3e38">
   <rect x="392.4" y="32.64" width="180" height="105.96"/>
  </clipPath>
  <clipPath id="p4d63520cb5">
   <rect x="10.8" y="171.24" width="180" height="105.96"/>
  </clipPath>
  <clipPath id="p30323d0634">
   <rect x="201.6" y="171.24" width="180" height="105.96"/>
  </clipPath>
  <clipPath id="p269c3530b8">
   <rect x="392.4" y="171.24" width="180" height="105.96"/>
  </clipPath>
 </defs>
</svg>
