<?xml version="1.0" encoding="utf-8" standalone="no"?>
<!DOCTYPE svg PUBLIC "-//W3C//DTD SVG 1.1//EN"
  "http://www.w3.org/Graphics/SVG/1.1/DTD/svg11.dtd">
<svg xmlns:xlink="http://www.w3.org/1999/xlink" width="583.2pt" height="288pt" viewBox="0 0 583.2 288" xmlns="http://www.w3.org/2000/svg" version="1.1">
 <metadata>
  <rdf:RDF xmlns:dc="http://purl.org/dc/elements/1.1/" xmlns:cc="http://creativecommons.org/ns#" xmlns:rdf="http://www.w3.org/1999/02/22-rdf-syntax-ns#">
   <cc:Work>
    <dc:type rdf:resource="http://purl.org/dc/dcmitype/StillImage"/>
    <dc:date>2023-12-28T20:58:49.735558</dc:date>
    <dc:format>image/svg+xml</dc:format>
    <dc:creator>
     <cc:Agent>
      <dc:title>Matplotlib v3.6.2, https://matplotlib.org/</dc:title>
     </cc:Agent>
    </dc:creator>
   </cc:Work>
  </rdf:RDF>
 </metadata>
 <defs>
  <style type="text/css">*{stroke-linejoin: round; stroke-linecap: butt}</style>
 </defs>
 <g id="figure_1">
  <g id="patch_1">
   <path d="M 0 288 
L 583.2 288 
L 583.2 0 
L 0 0 
z
" style="fill: #ffffff"/>
  </g>
  <g id="axes_1">
   <g id="line2d_1">
    <path d="M 97.314736 119.842083 
L 96.073572 119.180564 
L 94.819781 118.302474 
L 93.756728 117.098499 
L 92.924525 115.649483 
L 91.854027 113.031472 
L 90.937379 109.631762 
L 89.869208 105.23351 
L 88.416253 101.109959 
L 87.166222 98.337333 
L 85.498964 93.825657 
L 84.952093 92.722041 
L 82.884767 89.420954 
L 82.139658 87.859917 
L 80.843774 85.448187 
L 80.472037 84.707291 
L 79.756598 82.182165 
L 79.267161 79.602184 
L 78.606591 76.776456 
L 77.832293 70.210108 
L 77.306064 68.252638 
L 76.867239 66.53589 
L 76.43864 63.941837 
L 76.129123 61.038947 
L 75.356611 57.025141 
L 75.012892 54.172625 
L 74.525658 51.307868 
L 74.440743 45.94545 
L 74.736923 44.481866 
L 75.225113 42.931735 
L 75.911284 41.683116 
L 76.941467 40.34696 
L 78.112768 39.32387 
L 78.833783 38.901335 
L 81.268231 38.033827 
L 83.064491 37.624363 
L 85.979844 37.511301 
L 90.494354 37.881122 
L 94.068381 38.731745 
L 97.666509 39.864624 
L 98.75399 40.379766 
L 102.308178 42.478008 
L 104.523718 43.700432 
L 107.863218 46.032112 
L 108.974117 46.857269 
L 112.132869 49.790165 
L 114.001324 51.80805 
L 115.848611 53.809302 
L 118.974414 58.688699 
L 121.482683 62.800021 
L 123.264802 66.92287 
L 124.327021 70.068222 
L 126.67571 79.533602 
L 127.082888 82.592299 
L 127.157062 85.690787 
L 127.176617 91.332089 
L 126.988265 94.069104 
L 126.976859 95.49404 
L 126.307758 99.464809 
L 125.566736 103.371587 
L 124.465294 107.209699 
L 123.142668 111.321502 
L 121.547853 114.841784 
L 119.111817 119.190603 
L 113.687658 126.287947 
L 111.215882 128.477094 
L 109.556887 130.066539 
L 107.201733 131.888434 
L 104.690052 133.24506 
L 103.014704 133.748199 
L 101.549276 133.758563 
L 101.549276 133.758563 
" clip-path="url(#p66b4152a13)" style="fill: none; stroke: #1f77b4; stroke-width: 1.5; stroke-linecap: square"/>
   </g>
   <g id="text_1">
    <!-- SRV - MCF10A -->
    <g transform="translate(30.320313 26.64) scale(0.2 -0.2)">
     <defs>
      <path id="DejaVuSans-53" d="M 3425 4513 
L 3425 3897 
Q 3066 4069 2747 4153 
Q 2428 4238 2131 4238 
Q 1616 4238 1336 4038 
Q 1056 3838 1056 3469 
Q 1056 3159 1242 3001 
Q 1428 2844 1947 2747 
L 2328 2669 
Q 3034 2534 3370 2195 
Q 3706 1856 3706 1288 
Q 3706 609 3251 259 
Q 2797 -91 1919 -91 
Q 1588 -91 1214 -16 
Q 841 59 441 206 
L 441 856 
Q 825 641 1194 531 
Q 1563 422 1919 422 
Q 2459 422 2753 634 
Q 3047 847 3047 1241 
Q 3047 1584 2836 1778 
Q 2625 1972 2144 2069 
L 1759 2144 
Q 1053 2284 737 2584 
Q 422 2884 422 3419 
Q 422 4038 858 4394 
Q 1294 4750 2059 4750 
Q 2388 4750 2728 4690 
Q 3069 4631 3425 4513 
z
" transform="scale(0.015625)"/>
      <path id="DejaVuSans-52" d="M 2841 2188 
Q 3044 2119 3236 1894 
Q 3428 1669 3622 1275 
L 4263 0 
L 3584 0 
L 2988 1197 
Q 2756 1666 2539 1819 
Q 2322 1972 1947 1972 
L 1259 1972 
L 1259 0 
L 628 0 
L 628 4666 
L 2053 4666 
Q 2853 4666 3247 4331 
Q 3641 3997 3641 3322 
Q 3641 2881 3436 2590 
Q 3231 2300 2841 2188 
z
M 1259 4147 
L 1259 2491 
L 2053 2491 
Q 2509 2491 2742 2702 
Q 2975 2913 2975 3322 
Q 2975 3731 2742 3939 
Q 2509 4147 2053 4147 
L 1259 4147 
z
" transform="scale(0.015625)"/>
      <path id="DejaVuSans-56" d="M 1831 0 
L 50 4666 
L 709 4666 
L 2188 738 
L 3669 4666 
L 4325 4666 
L 2547 0 
L 1831 0 
z
" transform="scale(0.015625)"/>
      <path id="DejaVuSans-20" transform="scale(0.015625)"/>
      <path id="DejaVuSans-2d" d="M 313 2009 
L 1997 2009 
L 1997 1497 
L 313 1497 
L 313 2009 
z
" transform="scale(0.015625)"/>
      <path id="DejaVuSans-4d" d="M 628 4666 
L 1569 4666 
L 2759 1491 
L 3956 4666 
L 4897 4666 
L 4897 0 
L 4281 0 
L 4281 4097 
L 3078 897 
L 2444 897 
L 1241 4097 
L 1241 0 
L 628 0 
L 628 4666 
z
" transform="scale(0.015625)"/>
      <path id="DejaVuSans-43" d="M 4122 4306 
L 4122 3641 
Q 3803 3938 3442 4084 
Q 3081 4231 2675 4231 
Q 1875 4231 1450 3742 
Q 1025 3253 1025 2328 
Q 1025 1406 1450 917 
Q 1875 428 2675 428 
Q 3081 428 3442 575 
Q 3803 722 4122 1019 
L 4122 359 
Q 3791 134 3420 21 
Q 3050 -91 2638 -91 
Q 1578 -91 968 557 
Q 359 1206 359 2328 
Q 359 3453 968 4101 
Q 1578 4750 2638 4750 
Q 3056 4750 3426 4639 
Q 3797 4528 4122 4306 
z
" transform="scale(0.015625)"/>
      <path id="DejaVuSans-46" d="M 628 4666 
L 3309 4666 
L 3309 4134 
L 1259 4134 
L 1259 2759 
L 3109 2759 
L 3109 2228 
L 1259 2228 
L 1259 0 
L 628 0 
L 628 4666 
z
" transform="scale(0.015625)"/>
      <path id="DejaVuSans-31" d="M 794 531 
L 1825 531 
L 1825 4091 
L 703 3866 
L 703 4441 
L 1819 4666 
L 2450 4666 
L 2450 531 
L 3481 531 
L 3481 0 
L 794 0 
L 794 531 
z
" transform="scale(0.015625)"/>
      <path id="DejaVuSans-30" d="M 2034 4250 
Q 1547 4250 1301 3770 
Q 1056 3291 1056 2328 
Q 1056 1369 1301 889 
Q 1547 409 2034 409 
Q 2525 409 2770 889 
Q 3016 1369 3016 2328 
Q 3016 3291 2770 3770 
Q 2525 4250 2034 4250 
z
M 2034 4750 
Q 2819 4750 3233 4129 
Q 3647 3509 3647 2328 
Q 3647 1150 3233 529 
Q 2819 -91 2034 -91 
Q 1250 -91 836 529 
Q 422 1150 422 2328 
Q 422 3509 836 4129 
Q 1250 4750 2034 4750 
z
" transform="scale(0.015625)"/>
      <path id="DejaVuSans-41" d="M 2188 4044 
L 1331 1722 
L 3047 1722 
L 2188 4044 
z
M 1831 4666 
L 2547 4666 
L 4325 0 
L 3669 0 
L 3244 1197 
L 1141 1197 
L 716 0 
L 50 0 
L 1831 4666 
z
" transform="scale(0.015625)"/>
     </defs>
     <use xlink:href="#DejaVuSans-53"/>
     <use xlink:href="#DejaVuSans-52" x="63.476562"/>
     <use xlink:href="#DejaVuSans-56" x="127.458984"/>
     <use xlink:href="#DejaVuSans-20" x="195.867188"/>
     <use xlink:href="#DejaVuSans-2d" x="227.654297"/>
     <use xlink:href="#DejaVuSans-20" x="263.738281"/>
     <use xlink:href="#DejaVuSans-4d" x="295.525391"/>
     <use xlink:href="#DejaVuSans-43" x="381.804688"/>
     <use xlink:href="#DejaVuSans-46" x="451.628906"/>
     <use xlink:href="#DejaVuSans-31" x="509.148438"/>
     <use xlink:href="#DejaVuSans-30" x="572.771484"/>
     <use xlink:href="#DejaVuSans-41" x="636.394531"/>
    </g>
   </g>
  </g>
  <g id="axes_2">
   <g id="line2d_2">
    <path d="M 287.764873 125.300131 
L 285.97806 125.227751 
L 283.630026 124.866245 
L 282.519635 124.326006 
L 282.052735 123.939814 
L 281.200889 122.781588 
L 280.69117 121.991185 
L 277.821023 116.364039 
L 276.420936 114.120813 
L 274.78555 111.846853 
L 273.130292 110.131638 
L 271.127055 108.308345 
L 266.602041 103.501836 
L 262.366295 98.383123 
L 261.655939 97.415244 
L 259.98827 95.421701 
L 258.900909 93.368572 
L 257.488637 89.997959 
L 257.111975 88.90568 
L 256.482381 85.305801 
L 256.051425 82.658831 
L 255.59944 78.847751 
L 255.382816 68.844532 
L 255.806766 62.411596 
L 256.157302 59.11446 
L 256.693187 55.935116 
L 258.471544 48.988758 
L 258.853492 48.147738 
L 259.728068 45.628014 
L 260.114359 44.954592 
L 261.986038 42.528513 
L 263.528552 40.980464 
L 265.204874 39.727806 
L 266.15462 39.262914 
L 268.303886 38.823349 
L 273.312783 38.063572 
L 279.667616 37.456364 
L 283.701331 37.649969 
L 286.503912 37.823511 
L 292.074248 38.264054 
L 294.876241 38.888829 
L 297.368181 39.6743 
L 298.643876 39.979702 
L 302.42206 41.696827 
L 306.122655 44.334793 
L 309.407496 47.005639 
L 314.561623 51.954111 
L 319.396959 57.935892 
L 322.488425 61.83776 
L 324.168816 64.570104 
L 325.515704 67.531229 
L 326.307356 70.235408 
L 327.338311 76.661344 
L 327.632833 78.349958 
L 327.906307 84.420881 
L 327.631231 87.489388 
L 327.287854 89.090169 
L 326.904866 92.184761 
L 326.628932 93.811596 
L 325.820219 96.674356 
L 324.62264 101.35719 
L 323.724373 104.25483 
L 321.354696 109.842212 
L 319.381648 113.225715 
L 318.698269 114.32311 
L 316.020114 117.768757 
L 314.143196 119.909789 
L 312.088847 121.621233 
L 307.827005 124.593399 
L 302.5127 128.536377 
L 300.317288 129.955186 
L 296.810761 131.875779 
L 294.562957 132.785209 
L 292.33793 133.520415 
L 291.265557 133.783636 
L 291.265557 133.783636 
" clip-path="url(#p257a680c0c)" style="fill: none; stroke: #ff7f0e; stroke-width: 1.5; stroke-linecap: square"/>
   </g>
   <g id="text_2">
    <!-- SRV - MCF7 -->
    <g transform="translate(234.323437 26.64) scale(0.2 -0.2)">
     <defs>
      <path id="DejaVuSans-37" d="M 525 4666 
L 3525 4666 
L 3525 4397 
L 1831 0 
L 1172 0 
L 2766 4134 
L 525 4134 
L 525 4666 
z
" transform="scale(0.015625)"/>
     </defs>
     <use xlink:href="#DejaVuSans-53"/>
     <use xlink:href="#DejaVuSans-52" x="63.476562"/>
     <use xlink:href="#DejaVuSans-56" x="127.458984"/>
     <use xlink:href="#DejaVuSans-20" x="195.867188"/>
     <use xlink:href="#DejaVuSans-2d" x="227.654297"/>
     <use xlink:href="#DejaVuSans-20" x="263.738281"/>
     <use xlink:href="#DejaVuSans-4d" x="295.525391"/>
     <use xlink:href="#DejaVuSans-43" x="381.804688"/>
     <use xlink:href="#DejaVuSans-46" x="451.628906"/>
     <use xlink:href="#DejaVuSans-37" x="509.148438"/>
    </g>
   </g>
  </g>
  <g id="axes_3">
   <g id="line2d_3">
    <path d="M 488.251057 133.297524 
L 487.181696 133.032622 
L 486.139432 132.418178 
L 485.124476 131.466303 
L 484.118979 130.188701 
L 483.124029 128.48145 
L 481.913531 125.447872 
L 480.584338 121.877813 
L 479.325139 119.354127 
L 477.915035 116.880847 
L 476.503755 114.36354 
L 473.399612 109.894284 
L 470.611647 105.255183 
L 469.18076 102.664891 
L 467.119044 99.499659 
L 465.769197 97.425098 
L 464.110369 94.181987 
L 463.197127 91.614371 
L 462.378475 89.045683 
L 461.473677 85.503679 
L 460.42248 80.934955 
L 459.99502 78.385503 
L 458.988317 72.884364 
L 457.798191 63.109339 
L 457.549422 57.290887 
L 458.121706 51.847897 
L 459.361728 46.109059 
L 460.532751 42.694695 
L 460.954931 41.789667 
L 461.448147 41.086721 
L 462.759639 39.952596 
L 464.621335 38.79961 
L 466.107769 38.252299 
L 467.71895 37.763249 
L 470.455618 37.456364 
L 472.496233 37.55078 
L 474.784419 38.010885 
L 477.901167 38.739241 
L 483.084631 40.18332 
L 485.099713 40.91825 
L 487.189027 41.94679 
L 489.250459 43.390959 
L 490.233266 44.274113 
L 491.960609 46.14296 
L 493.689601 47.946644 
L 496.738289 52.333468 
L 498.067605 54.560944 
L 500.817594 59.380168 
L 503.299994 64.188447 
L 504.266184 66.97705 
L 505.497803 71.502393 
L 506.057195 74.65662 
L 506.931995 81.513798 
L 507.256904 89.361481 
L 507.150035 92.348412 
L 507.112828 96.544281 
L 506.693995 100.914303 
L 505.538357 109.204355 
L 504.473261 114.095426 
L 502.848786 118.853528 
L 501.872667 120.939856 
L 500.954794 122.789749 
L 499.281325 125.254946 
L 497.555496 127.243007 
L 496.383676 128.584555 
L 495.269614 130.087105 
L 492.333748 132.875366 
L 491.124457 133.486748 
L 489.942126 133.731031 
L 489.384264 133.783636 
L 489.384264 133.783636 
" clip-path="url(#p93d2661fcc)" style="fill: none; stroke: #2ca02c; stroke-width: 1.5; stroke-linecap: square"/>
   </g>
   <g id="text_3">
    <!-- SRV - MDA_MB_231 -->
    <g transform="translate(385.278125 26.64) scale(0.2 -0.2)">
     <defs>
      <path id="DejaVuSans-44" d="M 1259 4147 
L 1259 519 
L 2022 519 
Q 2988 519 3436 956 
Q 3884 1394 3884 2338 
Q 3884 3275 3436 3711 
Q 2988 4147 2022 4147 
L 1259 4147 
z
M 628 4666 
L 1925 4666 
Q 3281 4666 3915 4102 
Q 4550 3538 4550 2338 
Q 4550 1131 3912 565 
Q 3275 0 1925 0 
L 628 0 
L 628 4666 
z
" transform="scale(0.015625)"/>
      <path id="DejaVuSans-5f" d="M 3263 -1063 
L 3263 -1509 
L -63 -1509 
L -63 -1063 
L 3263 -1063 
z
" transform="scale(0.015625)"/>
      <path id="DejaVuSans-42" d="M 1259 2228 
L 1259 519 
L 2272 519 
Q 2781 519 3026 730 
Q 3272 941 3272 1375 
Q 3272 1813 3026 2020 
Q 2781 2228 2272 2228 
L 1259 2228 
z
M 1259 4147 
L 1259 2741 
L 2194 2741 
Q 2656 2741 2882 2914 
Q 3109 3088 3109 3444 
Q 3109 3797 2882 3972 
Q 2656 4147 2194 4147 
L 1259 4147 
z
M 628 4666 
L 2241 4666 
Q 2963 4666 3353 4366 
Q 3744 4066 3744 3513 
Q 3744 3084 3544 2831 
Q 3344 2578 2956 2516 
Q 3422 2416 3680 2098 
Q 3938 1781 3938 1306 
Q 3938 681 3513 340 
Q 3088 0 2303 0 
L 628 0 
L 628 4666 
z
" transform="scale(0.015625)"/>
      <path id="DejaVuSans-32" d="M 1228 531 
L 3431 531 
L 3431 0 
L 469 0 
L 469 531 
Q 828 903 1448 1529 
Q 2069 2156 2228 2338 
Q 2531 2678 2651 2914 
Q 2772 3150 2772 3378 
Q 2772 3750 2511 3984 
Q 2250 4219 1831 4219 
Q 1534 4219 1204 4116 
Q 875 4013 500 3803 
L 500 4441 
Q 881 4594 1212 4672 
Q 1544 4750 1819 4750 
Q 2544 4750 2975 4387 
Q 3406 4025 3406 3419 
Q 3406 3131 3298 2873 
Q 3191 2616 2906 2266 
Q 2828 2175 2409 1742 
Q 1991 1309 1228 531 
z
" transform="scale(0.015625)"/>
      <path id="DejaVuSans-33" d="M 2597 2516 
Q 3050 2419 3304 2112 
Q 3559 1806 3559 1356 
Q 3559 666 3084 287 
Q 2609 -91 1734 -91 
Q 1441 -91 1130 -33 
Q 819 25 488 141 
L 488 750 
Q 750 597 1062 519 
Q 1375 441 1716 441 
Q 2309 441 2620 675 
Q 2931 909 2931 1356 
Q 2931 1769 2642 2001 
Q 2353 2234 1838 2234 
L 1294 2234 
L 1294 2753 
L 1863 2753 
Q 2328 2753 2575 2939 
Q 2822 3125 2822 3475 
Q 2822 3834 2567 4026 
Q 2313 4219 1838 4219 
Q 1578 4219 1281 4162 
Q 984 4106 628 3988 
L 628 4550 
Q 988 4650 1302 4700 
Q 1616 4750 1894 4750 
Q 2613 4750 3031 4423 
Q 3450 4097 3450 3541 
Q 3450 3153 3228 2886 
Q 3006 2619 2597 2516 
z
" transform="scale(0.015625)"/>
     </defs>
     <use xlink:href="#DejaVuSans-53"/>
     <use xlink:href="#DejaVuSans-52" x="63.476562"/>
     <use xlink:href="#DejaVuSans-56" x="127.458984"/>
     <use xlink:href="#DejaVuSans-20" x="195.867188"/>
     <use xlink:href="#DejaVuSans-2d" x="227.654297"/>
     <use xlink:href="#DejaVuSans-20" x="263.738281"/>
     <use xlink:href="#DejaVuSans-4d" x="295.525391"/>
     <use xlink:href="#DejaVuSans-44" x="381.804688"/>
     <use xlink:href="#DejaVuSans-41" x="457.056641"/>
     <use xlink:href="#DejaVuSans-5f" x="525.464844"/>
     <use xlink:href="#DejaVuSans-4d" x="575.464844"/>
     <use xlink:href="#DejaVuSans-42" x="661.744141"/>
     <use xlink:href="#DejaVuSans-5f" x="730.347656"/>
     <use xlink:href="#DejaVuSans-32" x="780.347656"/>
     <use xlink:href="#DejaVuSans-33" x="843.970703"/>
     <use xlink:href="#DejaVuSans-31" x="907.59375"/>
    </g>
   </g>
  </g>
  <g id="axes_4">
   <g id="line2d_4">
    <path d="M 99.732801 272.244915 
L 98.941133 271.948846 
L 97.249843 270.896162 
L 96.536551 270.323468 
L 95.250576 268.765099 
L 94.722822 267.882151 
L 93.535795 264.938127 
L 92.850192 262.623325 
L 90.712154 254.077753 
L 89.916957 251.764528 
L 89.507848 250.656147 
L 88.052377 247.543977 
L 86.331638 242.779523 
L 85.739282 241.586643 
L 83.274288 237.798534 
L 82.35708 235.941534 
L 80.695075 233.076494 
L 80.222992 232.171494 
L 79.947415 231.22345 
L 79.766694 230.159829 
L 79.408382 229.105647 
L 78.8332 226.055528 
L 78.269397 223.843944 
L 77.910933 221.70899 
L 77.542743 218.170236 
L 76.798456 214.567093 
L 76.13916 212.449809 
L 75.587652 209.387153 
L 75.085716 206.167263 
L 74.797204 203.915625 
L 74.048555 200.018302 
L 73.57313 196.625412 
L 73.068608 194.385997 
L 72.855504 190.114625 
L 72.824761 188.995879 
L 72.531415 187.984516 
L 72.720917 185.966667 
L 73.249379 183.939524 
L 74.000023 182.14017 
L 75.183452 180.43131 
L 76.555387 179.007838 
L 77.400475 178.31982 
L 78.320185 177.800901 
L 80.366603 177.078496 
L 82.48216 176.458124 
L 83.54498 176.282178 
L 86.899166 176.120036 
L 90.677509 176.423516 
L 91.880414 176.55617 
L 95.639201 177.439636 
L 99.465909 178.603433 
L 100.615813 179.142275 
L 103.037074 180.661 
L 106.541392 182.556249 
L 109.98713 184.946626 
L 112.071959 186.648168 
L 114.135759 188.53566 
L 115.94409 190.52705 
L 117.776081 192.453864 
L 121.598323 198.374337 
L 123.246081 201.065001 
L 125.556619 206.453381 
L 127.278572 212.471838 
L 127.956242 215.430952 
L 128.50459 216.940086 
L 128.931992 219.870509 
L 129.029759 224.247113 
L 129.002716 228.268071 
L 128.516523 233.625398 
L 127.564075 238.891175 
L 126.49911 242.822911 
L 125.649753 245.373508 
L 124.715763 248.00564 
L 123.098935 251.543297 
L 121.333002 254.935809 
L 119.073158 257.947951 
L 114.664568 263.607103 
L 111.047568 266.955113 
L 109.279787 268.514158 
L 108.404595 269.178178 
L 107.49287 270.011364 
L 104.532477 271.64975 
L 102.488685 272.280779 
L 100.514904 272.383636 
L 100.514904 272.383636 
" clip-path="url(#pd324ed6410)" style="fill: none; stroke: #1f77b4; stroke-width: 1.5; stroke-linecap: square"/>
   </g>
   <g id="text_4">
    <!-- Linear - MCF10A -->
    <g transform="translate(18.828125 165.24) scale(0.2 -0.2)">
     <defs>
      <path id="DejaVuSans-4c" d="M 628 4666 
L 1259 4666 
L 1259 531 
L 3531 531 
L 3531 0 
L 628 0 
L 628 4666 
z
" transform="scale(0.015625)"/>
      <path id="DejaVuSans-69" d="M 603 3500 
L 1178 3500 
L 1178 0 
L 603 0 
L 603 3500 
z
M 603 4863 
L 1178 4863 
L 1178 4134 
L 603 4134 
L 603 4863 
z
" transform="scale(0.015625)"/>
      <path id="DejaVuSans-6e" d="M 3513 2113 
L 3513 0 
L 2938 0 
L 2938 2094 
Q 2938 2591 2744 2837 
Q 2550 3084 2163 3084 
Q 1697 3084 1428 2787 
Q 1159 2491 1159 1978 
L 1159 0 
L 581 0 
L 581 3500 
L 1159 3500 
L 1159 2956 
Q 1366 3272 1645 3428 
Q 1925 3584 2291 3584 
Q 2894 3584 3203 3211 
Q 3513 2838 3513 2113 
z
" transform="scale(0.015625)"/>
      <path id="DejaVuSans-65" d="M 3597 1894 
L 3597 1613 
L 953 1613 
Q 991 1019 1311 708 
Q 1631 397 2203 397 
Q 2534 397 2845 478 
Q 3156 559 3463 722 
L 3463 178 
Q 3153 47 2828 -22 
Q 2503 -91 2169 -91 
Q 1331 -91 842 396 
Q 353 884 353 1716 
Q 353 2575 817 3079 
Q 1281 3584 2069 3584 
Q 2775 3584 3186 3129 
Q 3597 2675 3597 1894 
z
M 3022 2063 
Q 3016 2534 2758 2815 
Q 2500 3097 2075 3097 
Q 1594 3097 1305 2825 
Q 1016 2553 972 2059 
L 3022 2063 
z
" transform="scale(0.015625)"/>
      <path id="DejaVuSans-61" d="M 2194 1759 
Q 1497 1759 1228 1600 
Q 959 1441 959 1056 
Q 959 750 1161 570 
Q 1363 391 1709 391 
Q 2188 391 2477 730 
Q 2766 1069 2766 1631 
L 2766 1759 
L 2194 1759 
z
M 3341 1997 
L 3341 0 
L 2766 0 
L 2766 531 
Q 2569 213 2275 61 
Q 1981 -91 1556 -91 
Q 1019 -91 701 211 
Q 384 513 384 1019 
Q 384 1609 779 1909 
Q 1175 2209 1959 2209 
L 2766 2209 
L 2766 2266 
Q 2766 2663 2505 2880 
Q 2244 3097 1772 3097 
Q 1472 3097 1187 3025 
Q 903 2953 641 2809 
L 641 3341 
Q 956 3463 1253 3523 
Q 1550 3584 1831 3584 
Q 2591 3584 2966 3190 
Q 3341 2797 3341 1997 
z
" transform="scale(0.015625)"/>
      <path id="DejaVuSans-72" d="M 2631 2963 
Q 2534 3019 2420 3045 
Q 2306 3072 2169 3072 
Q 1681 3072 1420 2755 
Q 1159 2438 1159 1844 
L 1159 0 
L 581 0 
L 581 3500 
L 1159 3500 
L 1159 2956 
Q 1341 3275 1631 3429 
Q 1922 3584 2338 3584 
Q 2397 3584 2469 3576 
Q 2541 3569 2628 3553 
L 2631 2963 
z
" transform="scale(0.015625)"/>
     </defs>
     <use xlink:href="#DejaVuSans-4c"/>
     <use xlink:href="#DejaVuSans-69" x="55.712891"/>
     <use xlink:href="#DejaVuSans-6e" x="83.496094"/>
     <use xlink:href="#DejaVuSans-65" x="146.875"/>
     <use xlink:href="#DejaVuSans-61" x="208.398438"/>
     <use xlink:href="#DejaVuSans-72" x="269.677734"/>
     <use xlink:href="#DejaVuSans-20" x="310.791016"/>
     <use xlink:href="#DejaVuSans-2d" x="342.578125"/>
     <use xlink:href="#DejaVuSans-20" x="378.662109"/>
     <use xlink:href="#DejaVuSans-4d" x="410.449219"/>
     <use xlink:href="#DejaVuSans-43" x="496.728516"/>
     <use xlink:href="#DejaVuSans-46" x="566.552734"/>
     <use xlink:href="#DejaVuSans-31" x="624.072266"/>
     <use xlink:href="#DejaVuSans-30" x="687.695312"/>
     <use xlink:href="#DejaVuSans-41" x="751.318359"/>
    </g>
   </g>
  </g>
  <g id="axes_5">
   <g id="line2d_5">
    <path d="M 289.388713 272.383636 
L 286.235664 272.131185 
L 284.323815 271.761413 
L 282.883796 270.982246 
L 282.292921 270.396019 
L 281.740776 269.675681 
L 280.652938 267.816941 
L 278.562114 262.976766 
L 276.510791 259.300847 
L 275.785501 258.062861 
L 274.117318 255.956054 
L 273.191185 255.012908 
L 271.118849 253.146346 
L 264.509622 245.958866 
L 262.69506 243.901832 
L 261.150066 241.725371 
L 260.144742 240.65967 
L 259.361016 239.666913 
L 258.155717 237.364937 
L 257.098985 234.883904 
L 256.176254 232.527939 
L 255.102943 225.75444 
L 254.675785 221.711516 
L 254.345947 211.070722 
L 254.807562 203.091166 
L 255.347383 198.35459 
L 255.994352 196.002421 
L 257.270231 190.175626 
L 257.566694 189.146073 
L 257.987918 188.140129 
L 258.497248 185.971517 
L 259.289953 184.07787 
L 261.470089 181.291215 
L 263.206883 179.541517 
L 265.070943 178.104812 
L 266.147697 177.587389 
L 267.304012 177.28593 
L 272.540471 176.510931 
L 273.75107 176.61532 
L 280.410807 176.056364 
L 283.161486 176.141784 
L 287.463669 176.50721 
L 293.041716 176.885977 
L 297.219202 177.960168 
L 298.502687 178.296367 
L 299.917584 178.344377 
L 302.415388 179.410235 
L 303.701304 180.070497 
L 308.450547 183.482508 
L 311.800603 186.384995 
L 313.761647 188.351016 
L 314.826808 189.297832 
L 316.679028 191.423961 
L 318.486209 193.752849 
L 321.523233 197.52025 
L 322.639172 198.807551 
L 324.272775 201.350815 
L 325.144884 202.740912 
L 326.556197 205.652339 
L 327.355582 208.461317 
L 328.648312 216.411691 
L 328.924134 220.885535 
L 328.932634 222.416564 
L 328.657201 225.463547 
L 328.342521 227.020066 
L 328.222854 228.58338 
L 327.708006 231.624776 
L 326.884083 234.47565 
L 326.11217 237.53901 
L 324.802466 241.895165 
L 322.455245 247.320097 
L 320.996628 249.722474 
L 319.637519 252.003154 
L 317.887923 254.29132 
L 315.947513 256.597165 
L 313.883245 258.52651 
L 310.54499 261.008616 
L 309.4686 261.623689 
L 306.327501 264.009997 
L 302.656467 266.717217 
L 299.112934 268.896873 
L 295.493907 270.803253 
L 291.825351 272.002884 
L 290.626569 272.281763 
L 290.626569 272.281763 
" clip-path="url(#pcc8fe1a065)" style="fill: none; stroke: #ff7f0e; stroke-width: 1.5; stroke-linecap: square"/>
   </g>
   <g id="text_5">
    <!-- Linear - MCF7 -->
    <g transform="translate(222.83125 165.24) scale(0.2 -0.2)">
     <use xlink:href="#DejaVuSans-4c"/>
     <use xlink:href="#DejaVuSans-69" x="55.712891"/>
     <use xlink:href="#DejaVuSans-6e" x="83.496094"/>
     <use xlink:href="#DejaVuSans-65" x="146.875"/>
     <use xlink:href="#DejaVuSans-61" x="208.398438"/>
     <use xlink:href="#DejaVuSans-72" x="269.677734"/>
     <use xlink:href="#DejaVuSans-20" x="310.791016"/>
     <use xlink:href="#DejaVuSans-2d" x="342.578125"/>
     <use xlink:href="#DejaVuSans-20" x="378.662109"/>
     <use xlink:href="#DejaVuSans-4d" x="410.449219"/>
     <use xlink:href="#DejaVuSans-43" x="496.728516"/>
     <use xlink:href="#DejaVuSans-46" x="566.552734"/>
     <use xlink:href="#DejaVuSans-37" x="624.072266"/>
    </g>
   </g>
  </g>
  <g id="axes_6">
   <g id="line2d_6">
    <path d="M 487.221109 272.355129 
L 484.97079 271.696819 
L 483.676417 270.668628 
L 482.472975 269.309895 
L 480.887304 266.558292 
L 479.727206 263.395542 
L 478.541514 259.832134 
L 477.334425 257.476461 
L 476.091363 255.147824 
L 474.84564 252.898897 
L 471.98819 248.747948 
L 469.919683 245.514105 
L 468.678378 243.139046 
L 466.710666 239.951527 
L 464.73595 236.951819 
L 463.089666 233.691313 
L 462.600272 232.504038 
L 460.561983 225.353055 
L 458.929593 217.291633 
L 457.565355 208.661254 
L 456.957382 203.960246 
L 456.595024 198.032939 
L 456.83524 195.835045 
L 457.68022 190.218148 
L 458.152003 188.174757 
L 458.555385 186.027525 
L 459.136515 184.143842 
L 459.368345 183.167704 
L 460.247396 181.197795 
L 460.83381 180.342041 
L 462.287029 179.093326 
L 463.763256 178.11073 
L 465.379206 177.358776 
L 467.235829 176.749216 
L 468.261768 176.449597 
L 471.320687 176.059495 
L 473.508696 176.106603 
L 475.849552 176.587873 
L 478.144864 177.153984 
L 482.451919 178.472126 
L 485.778939 179.397938 
L 486.854172 179.768746 
L 488.937926 180.796645 
L 489.995934 181.451895 
L 491.939015 183.025979 
L 492.721714 183.947306 
L 495.391965 186.638666 
L 498.992617 191.884074 
L 504.535289 202.337411 
L 505.471596 204.98977 
L 506.596233 209.343308 
L 507.089065 212.422038 
L 507.929352 219.16113 
L 508.164794 227.963847 
L 507.926704 236.025509 
L 506.425573 246.606936 
L 505.649588 250.228717 
L 503.358652 256.240187 
L 501.286224 260.300342 
L 497.966433 264.262861 
L 497.260049 264.981895 
L 496.580825 265.846695 
L 496.030491 266.772416 
L 494.6682 268.309519 
L 493.337976 269.749452 
L 491.935793 271.011403 
L 491.206695 271.494577 
L 490.395299 271.852003 
L 488.798129 272.220637 
L 488.020965 272.383636 
L 488.020965 272.383636 
" clip-path="url(#p4dfb5190ef)" style="fill: none; stroke: #2ca02c; stroke-width: 1.5; stroke-linecap: square"/>
   </g>
   <g id="text_6">
    <!-- Linear - MDA_MB_231 -->
    <g transform="translate(373.785937 165.24) scale(0.2 -0.2)">
     <use xlink:href="#DejaVuSans-4c"/>
     <use xlink:href="#DejaVuSans-69" x="55.712891"/>
     <use xlink:href="#DejaVuSans-6e" x="83.496094"/>
     <use xlink:href="#DejaVuSans-65" x="146.875"/>
     <use xlink:href="#DejaVuSans-61" x="208.398438"/>
     <use xlink:href="#DejaVuSans-72" x="269.677734"/>
     <use xlink:href="#DejaVuSans-20" x="310.791016"/>
     <use xlink:href="#DejaVuSans-2d" x="342.578125"/>
     <use xlink:href="#DejaVuSans-20" x="378.662109"/>
     <use xlink:href="#DejaVuSans-4d" x="410.449219"/>
     <use xlink:href="#DejaVuSans-44" x="496.728516"/>
     <use xlink:href="#DejaVuSans-41" x="571.980469"/>
     <use xlink:href="#DejaVuSans-5f" x="640.388672"/>
     <use xlink:href="#DejaVuSans-4d" x="690.388672"/>
     <use xlink:href="#DejaVuSans-42" x="776.667969"/>
     <use xlink:href="#DejaVuSans-5f" x="845.271484"/>
     <use xlink:href="#DejaVuSans-32" x="895.271484"/>
     <use xlink:href="#DejaVuSans-33" x="958.894531"/>
     <use xlink:href="#DejaVuSans-31" x="1022.517578"/>
    </g>
   </g>
  </g>
 </g>
 <defs>
  <clipPath id="p66b4152a13">
   <rect x="10.8" y="32.64" width="180" height="105.96"/>
  </clipPath>
  <clipPath id="p257a680c0c">
   <rect x="201.6" y="32.64" width="180" height="105.96"/>
  </clipPath>
  <clipPath id="p93d2661fcc">
   <rect x="392.4" y="32.64" width="180" height="105.96"/>
  </clipPath>
  <clipPath id="pd324ed6410">
   <rect x="10.8" y="171.24" width="180" height="105.96"/>
  </clipPath>
  <clipPath id="pcc8fe1a065">
   <rect x="201.6" y="171.24" width="180" height="105.96"/>
  </clipPath>
  <clipPath id="p4dfb5190ef">
   <rect x="392.4" y="171.24" width="180" height="105.96"/>
  </clipPath>
 </defs>
</svg>
