<?xml version="1.0" encoding="utf-8" standalone="no"?>
<!DOCTYPE svg PUBLIC "-//W3C//DTD SVG 1.1//EN"
  "http://www.w3.org/Graphics/SVG/1.1/DTD/svg11.dtd">
<svg xmlns:xlink="http://www.w3.org/1999/xlink" width="583.2pt" height="288pt" viewBox="0 0 583.2 288" xmlns="http://www.w3.org/2000/svg" version="1.1">
 <metadata>
  <rdf:RDF xmlns:dc="http://purl.org/dc/elements/1.1/" xmlns:cc="http://creativecommons.org/ns#" xmlns:rdf="http://www.w3.org/1999/02/22-rdf-syntax-ns#">
   <cc:Work>
    <dc:type rdf:resource="http://purl.org/dc/dcmitype/StillImage"/>
    <dc:date>2023-12-20T00:52:05.292260</dc:date>
    <dc:format>image/svg+xml</dc:format>
    <dc:creator>
     <cc:Agent>
      <dc:title>Matplotlib v3.6.2, https://matplotlib.org/</dc:title>
     </cc:Agent>
    </dc:creator>
   </cc:Work>
  </rdf:RDF>
 </metadata>
 <defs>
  <style type="text/css">*{stroke-linejoin: round; stroke-linecap: butt}</style>
 </defs>
 <g id="figure_1">
  <g id="patch_1">
   <path d="M 0 288 
L 583.2 288 
L 583.2 0 
L 0 0 
z
" style="fill: #ffffff"/>
  </g>
  <g id="axes_1">
   <g id="line2d_1">
    <path d="M 97.434364 120.652261 
L 96.198455 120.088412 
L 94.986452 119.153572 
L 93.792886 117.932096 
L 92.954391 116.433204 
L 92.289603 114.875842 
L 91.673774 112.826438 
L 91.030722 110.574811 
L 90.556808 108.564709 
L 89.976131 106.260895 
L 89.311292 104.130531 
L 88.527347 102.110624 
L 87.575233 100.188023 
L 86.815974 98.304484 
L 86.010142 95.968432 
L 85.013462 93.906482 
L 83.773281 91.980528 
L 82.892583 90.436872 
L 82.178367 88.856938 
L 81.32317 87.284365 
L 80.4869 85.545781 
L 80.034823 83.868437 
L 79.653532 82.192586 
L 79.174393 80.443772 
L 78.797267 78.48453 
L 78.437423 76.50116 
L 78.268385 74.304296 
L 78.039253 72.073474 
L 77.602296 69.85293 
L 77.050741 67.934507 
L 76.705149 66.245411 
L 76.457965 64.494589 
L 76.148172 62.578494 
L 75.877109 60.777313 
L 75.535766 59.17908 
L 75.30733 57.595658 
L 74.995232 55.582313 
L 74.743128 53.584184 
L 74.464488 51.736721 
L 74.410243 49.879888 
L 74.222249 47.909369 
L 74.236636 46.318201 
L 74.503257 44.63769 
L 74.988073 43.152158 
L 75.757978 41.821212 
L 76.771237 40.462484 
L 77.903073 39.463661 
L 79.37816 38.658554 
L 81.133624 38.073018 
L 83.045579 37.694232 
L 84.906069 37.456364 
L 86.888828 37.574677 
L 89.308858 37.819792 
L 91.545339 38.155738 
L 94.110987 38.877633 
L 96.565351 39.626138 
L 98.819179 40.53428 
L 101.215055 41.992326 
L 103.47434 43.15939 
L 105.845798 44.686886 
L 107.938145 46.161234 
L 110.158309 47.991155 
L 112.219105 49.960601 
L 114.21767 51.977995 
L 115.957745 53.965953 
L 117.487102 56.361785 
L 119.070076 58.907262 
L 120.705681 61.609152 
L 122.219806 64.387353 
L 123.436176 67.157578 
L 124.427835 70.288374 
L 125.313034 73.468068 
L 126.14304 76.631031 
L 126.835676 79.771247 
L 127.191091 82.854774 
L 127.313517 85.906562 
L 127.377751 88.837533 
L 127.340644 91.552176 
L 127.130221 94.292632 
L 126.86667 96.981498 
L 126.429943 99.753643 
L 125.929629 102.329631 
L 125.297285 104.942634 
L 124.588919 107.519444 
L 123.782447 110.169539 
L 122.781832 112.770859 
L 121.715056 114.979879 
L 120.635031 117.18702 
L 119.339828 119.206025 
L 117.911855 121.103142 
L 116.564189 122.988277 
L 115.187559 124.761162 
L 113.822221 126.326475 
L 112.263212 127.785219 
L 110.504633 129.425384 
L 108.996453 130.759625 
L 107.377284 131.897152 
L 105.665404 132.884129 
L 103.944376 133.556421 
L 102.42449 133.783636 
" clip-path="url(#p177a80206d)" style="fill: none; stroke: #1f77b4; stroke-width: 1.5; stroke-linecap: square"/>
   </g>
   <g id="text_1">
    <!-- SRV - MCF10A -->
    <g transform="translate(30.320313 26.64) scale(0.2 -0.2)">
     <defs>
      <path id="DejaVuSans-53" d="M 3425 4513 
L 3425 3897 
Q 3066 4069 2747 4153 
Q 2428 4238 2131 4238 
Q 1616 4238 1336 4038 
Q 1056 3838 1056 3469 
Q 1056 3159 1242 3001 
Q 1428 2844 1947 2747 
L 2328 2669 
Q 3034 2534 3370 2195 
Q 3706 1856 3706 1288 
Q 3706 609 3251 259 
Q 2797 -91 1919 -91 
Q 1588 -91 1214 -16 
Q 841 59 441 206 
L 441 856 
Q 825 641 1194 531 
Q 1563 422 1919 422 
Q 2459 422 2753 634 
Q 3047 847 3047 1241 
Q 3047 1584 2836 1778 
Q 2625 1972 2144 2069 
L 1759 2144 
Q 1053 2284 737 2584 
Q 422 2884 422 3419 
Q 422 4038 858 4394 
Q 1294 4750 2059 4750 
Q 2388 4750 2728 4690 
Q 3069 4631 3425 4513 
z
" transform="scale(0.015625)"/>
      <path id="DejaVuSans-52" d="M 2841 2188 
Q 3044 2119 3236 1894 
Q 3428 1669 3622 1275 
L 4263 0 
L 3584 0 
L 2988 1197 
Q 2756 1666 2539 1819 
Q 2322 1972 1947 1972 
L 1259 1972 
L 1259 0 
L 628 0 
L 628 4666 
L 2053 4666 
Q 2853 4666 3247 4331 
Q 3641 3997 3641 3322 
Q 3641 2881 3436 2590 
Q 3231 2300 2841 2188 
z
M 1259 4147 
L 1259 2491 
L 2053 2491 
Q 2509 2491 2742 2702 
Q 2975 2913 2975 3322 
Q 2975 3731 2742 3939 
Q 2509 4147 2053 4147 
L 1259 4147 
z
" transform="scale(0.015625)"/>
      <path id="DejaVuSans-56" d="M 1831 0 
L 50 4666 
L 709 4666 
L 2188 738 
L 3669 4666 
L 4325 4666 
L 2547 0 
L 1831 0 
z
" transform="scale(0.015625)"/>
      <path id="DejaVuSans-20" transform="scale(0.015625)"/>
      <path id="DejaVuSans-2d" d="M 313 2009 
L 1997 2009 
L 1997 1497 
L 313 1497 
L 313 2009 
z
" transform="scale(0.015625)"/>
      <path id="DejaVuSans-4d" d="M 628 4666 
L 1569 4666 
L 2759 1491 
L 3956 4666 
L 4897 4666 
L 4897 0 
L 4281 0 
L 4281 4097 
L 3078 897 
L 2444 897 
L 1241 4097 
L 1241 0 
L 628 0 
L 628 4666 
z
" transform="scale(0.015625)"/>
      <path id="DejaVuSans-43" d="M 4122 4306 
L 4122 3641 
Q 3803 3938 3442 4084 
Q 3081 4231 2675 4231 
Q 1875 4231 1450 3742 
Q 1025 3253 1025 2328 
Q 1025 1406 1450 917 
Q 1875 428 2675 428 
Q 3081 428 3442 575 
Q 3803 722 4122 1019 
L 4122 359 
Q 3791 134 3420 21 
Q 3050 -91 2638 -91 
Q 1578 -91 968 557 
Q 359 1206 359 2328 
Q 359 3453 968 4101 
Q 1578 4750 2638 4750 
Q 3056 4750 3426 4639 
Q 3797 4528 4122 4306 
z
" transform="scale(0.015625)"/>
      <path id="DejaVuSans-46" d="M 628 4666 
L 3309 4666 
L 3309 4134 
L 1259 4134 
L 1259 2759 
L 3109 2759 
L 3109 2228 
L 1259 2228 
L 1259 0 
L 628 0 
L 628 4666 
z
" transform="scale(0.015625)"/>
      <path id="DejaVuSans-31" d="M 794 531 
L 1825 531 
L 1825 4091 
L 703 3866 
L 703 4441 
L 1819 4666 
L 2450 4666 
L 2450 531 
L 3481 531 
L 3481 0 
L 794 0 
L 794 531 
z
" transform="scale(0.015625)"/>
      <path id="DejaVuSans-30" d="M 2034 4250 
Q 1547 4250 1301 3770 
Q 1056 3291 1056 2328 
Q 1056 1369 1301 889 
Q 1547 409 2034 409 
Q 2525 409 2770 889 
Q 3016 1369 3016 2328 
Q 3016 3291 2770 3770 
Q 2525 4250 2034 4250 
z
M 2034 4750 
Q 2819 4750 3233 4129 
Q 3647 3509 3647 2328 
Q 3647 1150 3233 529 
Q 2819 -91 2034 -91 
Q 1250 -91 836 529 
Q 422 1150 422 2328 
Q 422 3509 836 4129 
Q 1250 4750 2034 4750 
z
" transform="scale(0.015625)"/>
      <path id="DejaVuSans-41" d="M 2188 4044 
L 1331 1722 
L 3047 1722 
L 2188 4044 
z
M 1831 4666 
L 2547 4666 
L 4325 0 
L 3669 0 
L 3244 1197 
L 1141 1197 
L 716 0 
L 50 0 
L 1831 4666 
z
" transform="scale(0.015625)"/>
     </defs>
     <use xlink:href="#DejaVuSans-53"/>
     <use xlink:href="#DejaVuSans-52" x="63.476562"/>
     <use xlink:href="#DejaVuSans-56" x="127.458984"/>
     <use xlink:href="#DejaVuSans-20" x="195.867188"/>
     <use xlink:href="#DejaVuSans-2d" x="227.654297"/>
     <use xlink:href="#DejaVuSans-20" x="263.738281"/>
     <use xlink:href="#DejaVuSans-4d" x="295.525391"/>
     <use xlink:href="#DejaVuSans-43" x="381.804688"/>
     <use xlink:href="#DejaVuSans-46" x="451.628906"/>
     <use xlink:href="#DejaVuSans-31" x="509.148438"/>
     <use xlink:href="#DejaVuSans-30" x="572.771484"/>
     <use xlink:href="#DejaVuSans-41" x="636.394531"/>
    </g>
   </g>
  </g>
  <g id="axes_2">
   <g id="line2d_2">
    <path d="M 287.812352 125.631103 
L 286.004389 125.575028 
L 284.315161 125.381543 
L 283.005204 124.935008 
L 282.044219 124.216172 
L 281.173004 123.107884 
L 280.148247 121.396708 
L 279.156729 119.341815 
L 277.947847 116.92626 
L 276.51356 114.597519 
L 274.888716 112.326635 
L 273.234844 110.515636 
L 271.236692 108.774905 
L 269.324901 106.828575 
L 267.443937 104.889818 
L 265.73082 102.928347 
L 263.915181 100.850708 
L 262.302992 98.824444 
L 260.762943 96.874278 
L 259.393557 94.907413 
L 258.265117 92.642318 
L 257.470424 90.459045 
L 256.859818 88.016603 
L 256.395609 85.537423 
L 255.968935 82.948469 
L 255.680005 80.44739 
L 255.52751 77.768267 
L 255.454681 74.994276 
L 255.354599 72.61977 
L 255.348773 70.207653 
L 255.505766 67.862635 
L 255.708231 65.204353 
L 255.968446 62.515242 
L 256.129546 60.199409 
L 256.318688 58.083751 
L 256.682721 55.857295 
L 257.214888 53.782027 
L 257.697114 51.758999 
L 258.301797 49.865065 
L 258.939876 48.119797 
L 259.515625 46.417965 
L 260.263602 45.026324 
L 261.368697 43.386022 
L 262.878901 41.745414 
L 264.439995 40.349457 
L 266.207689 39.301927 
L 268.252119 38.80541 
L 270.848832 38.430813 
L 273.280863 38.07577 
L 275.900459 37.707564 
L 278.626019 37.494947 
L 281.129983 37.456364 
L 283.826183 37.587113 
L 286.585937 37.704908 
L 289.352274 37.852623 
L 292.207893 38.176656 
L 295.029686 38.85587 
L 297.565902 39.620681 
L 300.133336 40.393346 
L 302.567134 41.635758 
L 305.130118 43.350689 
L 307.432591 45.059133 
L 309.448339 46.819519 
L 311.572283 48.865347 
L 313.708767 50.84075 
L 315.705929 52.987041 
L 317.483178 55.419047 
L 319.449525 57.701122 
L 321.616417 60.405875 
L 323.381858 62.979935 
L 325.00386 66.016764 
L 325.997063 68.673705 
L 326.65398 71.568577 
L 327.157788 74.813748 
L 327.599961 78.353587 
L 327.738182 81.368492 
L 327.851227 84.495487 
L 327.66622 87.552577 
L 327.25779 90.837562 
L 326.785832 93.917772 
L 326.03385 96.902442 
L 325.330246 99.837571 
L 324.457799 102.911123 
L 323.384119 105.868723 
L 322.214809 108.723145 
L 320.977578 111.245424 
L 319.703258 113.36525 
L 318.125112 115.71251 
L 316.372958 117.854208 
L 314.438813 120.143978 
L 312.295149 121.804304 
L 310.049091 123.366751 
L 308.087766 124.71582 
L 306.061068 126.192761 
L 303.741169 128.042784 
L 301.500852 129.497653 
L 299.258303 130.797783 
L 296.83776 132.037443 
L 294.609893 133.01207 
L 292.41481 133.783636 
" clip-path="url(#pd1ca0f67b5)" style="fill: none; stroke: #ff7f0e; stroke-width: 1.5; stroke-linecap: square"/>
   </g>
   <g id="text_2">
    <!-- SRV - MCF7 -->
    <g transform="translate(234.323437 26.64) scale(0.2 -0.2)">
     <defs>
      <path id="DejaVuSans-37" d="M 525 4666 
L 3525 4666 
L 3525 4397 
L 1831 0 
L 1172 0 
L 2766 4134 
L 525 4134 
L 525 4666 
z
" transform="scale(0.015625)"/>
     </defs>
     <use xlink:href="#DejaVuSans-53"/>
     <use xlink:href="#DejaVuSans-52" x="63.476562"/>
     <use xlink:href="#DejaVuSans-56" x="127.458984"/>
     <use xlink:href="#DejaVuSans-20" x="195.867188"/>
     <use xlink:href="#DejaVuSans-2d" x="227.654297"/>
     <use xlink:href="#DejaVuSans-20" x="263.738281"/>
     <use xlink:href="#DejaVuSans-4d" x="295.525391"/>
     <use xlink:href="#DejaVuSans-43" x="381.804688"/>
     <use xlink:href="#DejaVuSans-46" x="451.628906"/>
     <use xlink:href="#DejaVuSans-37" x="509.148438"/>
    </g>
   </g>
  </g>
  <g id="axes_3">
   <g id="line2d_3">
    <path d="M 488.596689 133.052983 
L 487.564634 132.763726 
L 486.553732 132.146173 
L 485.443844 131.101745 
L 484.411247 129.756838 
L 483.423066 128.134706 
L 482.615711 126.20118 
L 481.664399 123.935267 
L 480.725518 121.453108 
L 479.521898 119.022236 
L 478.045135 116.434507 
L 476.663814 113.97235 
L 475.089409 111.707953 
L 473.655494 109.511276 
L 472.22443 107.196502 
L 470.836131 104.668613 
L 469.366237 102.150576 
L 467.908246 100.018417 
L 466.50712 97.950576 
L 465.414257 95.912876 
L 464.250153 93.592385 
L 463.330957 91.088901 
L 462.519988 88.502427 
L 461.918016 86.204487 
L 461.379847 83.838512 
L 460.906188 81.650714 
L 460.484918 79.190403 
L 459.963722 76.479365 
L 459.528418 73.798007 
L 459.096787 71.291795 
L 458.774249 68.668585 
L 458.415081 66.114624 
L 458.18643 63.933147 
L 458.009587 61.59763 
L 457.844862 59.152903 
L 457.765284 56.952443 
L 458.05122 54.738134 
L 458.248003 52.618392 
L 458.637558 50.478805 
L 459.088139 48.590846 
L 459.493075 46.861221 
L 459.890665 45.132897 
L 460.418687 43.480564 
L 461.199661 41.762233 
L 462.430414 40.476229 
L 463.672013 39.5522 
L 464.91641 38.861448 
L 466.355904 38.316179 
L 468.031724 37.882044 
L 469.815607 37.606462 
L 471.668573 37.456364 
L 473.824333 37.806274 
L 476.106816 38.36814 
L 478.054092 38.862401 
L 480.105881 39.499921 
L 482.227255 40.062884 
L 484.243287 40.671327 
L 486.423912 41.526903 
L 488.448111 42.664608 
L 490.363719 44.28676 
L 492.037594 46.119625 
L 493.560614 47.792852 
L 495.093521 49.757139 
L 496.579751 52.057935 
L 497.832067 54.22571 
L 499.301889 56.642065 
L 500.585793 58.913546 
L 501.810121 61.228319 
L 503.049487 63.661973 
L 504.064619 66.457205 
L 504.915374 69.435366 
L 505.536167 72.446028 
L 505.997022 75.974686 
L 506.427387 79.176626 
L 506.701885 82.830242 
L 506.929798 86.047458 
L 507.034716 89.02637 
L 506.976161 91.866171 
L 506.923132 94.565341 
L 506.822961 97.370309 
L 506.542227 100.383228 
L 506.174633 103.414312 
L 505.848997 106.298947 
L 505.453709 108.83371 
L 504.955359 111.399007 
L 504.405708 113.669663 
L 503.847899 115.436239 
L 503.185625 117.53218 
L 502.301788 119.721179 
L 501.386577 121.734283 
L 500.331385 123.451305 
L 499.197702 125.056432 
L 498.044713 126.489344 
L 496.775244 127.926924 
L 495.669957 129.42011 
L 494.623972 130.751121 
L 493.447735 132.000664 
L 492.321 132.955966 
L 491.078518 133.497137 
L 489.768818 133.783636 
" clip-path="url(#p132cbd2ad8)" style="fill: none; stroke: #2ca02c; stroke-width: 1.5; stroke-linecap: square"/>
   </g>
   <g id="text_3">
    <!-- SRV - MDA_MB_231 -->
    <g transform="translate(385.278125 26.64) scale(0.2 -0.2)">
     <defs>
      <path id="DejaVuSans-44" d="M 1259 4147 
L 1259 519 
L 2022 519 
Q 2988 519 3436 956 
Q 3884 1394 3884 2338 
Q 3884 3275 3436 3711 
Q 2988 4147 2022 4147 
L 1259 4147 
z
M 628 4666 
L 1925 4666 
Q 3281 4666 3915 4102 
Q 4550 3538 4550 2338 
Q 4550 1131 3912 565 
Q 3275 0 1925 0 
L 628 0 
L 628 4666 
z
" transform="scale(0.015625)"/>
      <path id="DejaVuSans-5f" d="M 3263 -1063 
L 3263 -1509 
L -63 -1509 
L -63 -1063 
L 3263 -1063 
z
" transform="scale(0.015625)"/>
      <path id="DejaVuSans-42" d="M 1259 2228 
L 1259 519 
L 2272 519 
Q 2781 519 3026 730 
Q 3272 941 3272 1375 
Q 3272 1813 3026 2020 
Q 2781 2228 2272 2228 
L 1259 2228 
z
M 1259 4147 
L 1259 2741 
L 2194 2741 
Q 2656 2741 2882 2914 
Q 3109 3088 3109 3444 
Q 3109 3797 2882 3972 
Q 2656 4147 2194 4147 
L 1259 4147 
z
M 628 4666 
L 2241 4666 
Q 2963 4666 3353 4366 
Q 3744 4066 3744 3513 
Q 3744 3084 3544 2831 
Q 3344 2578 2956 2516 
Q 3422 2416 3680 2098 
Q 3938 1781 3938 1306 
Q 3938 681 3513 340 
Q 3088 0 2303 0 
L 628 0 
L 628 4666 
z
" transform="scale(0.015625)"/>
      <path id="DejaVuSans-32" d="M 1228 531 
L 3431 531 
L 3431 0 
L 469 0 
L 469 531 
Q 828 903 1448 1529 
Q 2069 2156 2228 2338 
Q 2531 2678 2651 2914 
Q 2772 3150 2772 3378 
Q 2772 3750 2511 3984 
Q 2250 4219 1831 4219 
Q 1534 4219 1204 4116 
Q 875 4013 500 3803 
L 500 4441 
Q 881 4594 1212 4672 
Q 1544 4750 1819 4750 
Q 2544 4750 2975 4387 
Q 3406 4025 3406 3419 
Q 3406 3131 3298 2873 
Q 3191 2616 2906 2266 
Q 2828 2175 2409 1742 
Q 1991 1309 1228 531 
z
" transform="scale(0.015625)"/>
      <path id="DejaVuSans-33" d="M 2597 2516 
Q 3050 2419 3304 2112 
Q 3559 1806 3559 1356 
Q 3559 666 3084 287 
Q 2609 -91 1734 -91 
Q 1441 -91 1130 -33 
Q 819 25 488 141 
L 488 750 
Q 750 597 1062 519 
Q 1375 441 1716 441 
Q 2309 441 2620 675 
Q 2931 909 2931 1356 
Q 2931 1769 2642 2001 
Q 2353 2234 1838 2234 
L 1294 2234 
L 1294 2753 
L 1863 2753 
Q 2328 2753 2575 2939 
Q 2822 3125 2822 3475 
Q 2822 3834 2567 4026 
Q 2313 4219 1838 4219 
Q 1578 4219 1281 4162 
Q 984 4106 628 3988 
L 628 4550 
Q 988 4650 1302 4700 
Q 1616 4750 1894 4750 
Q 2613 4750 3031 4423 
Q 3450 4097 3450 3541 
Q 3450 3153 3228 2886 
Q 3006 2619 2597 2516 
z
" transform="scale(0.015625)"/>
     </defs>
     <use xlink:href="#DejaVuSans-53"/>
     <use xlink:href="#DejaVuSans-52" x="63.476562"/>
     <use xlink:href="#DejaVuSans-56" x="127.458984"/>
     <use xlink:href="#DejaVuSans-20" x="195.867188"/>
     <use xlink:href="#DejaVuSans-2d" x="227.654297"/>
     <use xlink:href="#DejaVuSans-20" x="263.738281"/>
     <use xlink:href="#DejaVuSans-4d" x="295.525391"/>
     <use xlink:href="#DejaVuSans-44" x="381.804688"/>
     <use xlink:href="#DejaVuSans-41" x="457.056641"/>
     <use xlink:href="#DejaVuSans-5f" x="525.464844"/>
     <use xlink:href="#DejaVuSans-4d" x="575.464844"/>
     <use xlink:href="#DejaVuSans-42" x="661.744141"/>
     <use xlink:href="#DejaVuSans-5f" x="730.347656"/>
     <use xlink:href="#DejaVuSans-32" x="780.347656"/>
     <use xlink:href="#DejaVuSans-33" x="843.970703"/>
     <use xlink:href="#DejaVuSans-31" x="907.59375"/>
    </g>
   </g>
  </g>
  <g id="axes_4">
   <g id="line2d_4">
    <path d="M 99.757493 272.246069 
L 98.120004 271.573749 
L 96.61509 270.364535 
L 95.212411 268.845049 
L 94.273838 266.991266 
L 93.565714 265.023604 
L 92.88114 262.68141 
L 92.215618 260.154057 
L 91.666511 257.839768 
L 91.069273 255.359165 
L 90.3945 253.110083 
L 89.539716 250.850532 
L 88.491379 248.718407 
L 87.599564 246.64712 
L 86.778112 244.166571 
L 85.716124 241.918789 
L 84.304358 239.84659 
L 83.258753 238.049349 
L 82.366311 236.216508 
L 81.265982 234.342299 
L 80.253485 232.38159 
L 79.779936 230.385725 
L 79.305947 228.358634 
L 78.746291 226.371274 
L 78.309439 224.1352 
L 77.90066 221.927048 
L 77.696857 219.582447 
L 77.421669 217.226514 
L 76.892234 214.818178 
L 76.240566 212.640995 
L 75.805359 210.668967 
L 75.529265 208.645517 
L 75.073813 206.37041 
L 74.777765 204.255339 
L 74.381735 202.314793 
L 74.10416 200.339975 
L 73.720369 197.996634 
L 73.402925 195.682987 
L 73.048818 193.560765 
L 73.015426 191.453374 
L 72.555774 189.249544 
L 72.537991 187.199549 
L 72.859453 185.084228 
L 73.49518 183.165281 
L 74.557126 181.419973 
L 75.835964 179.782354 
L 77.289435 178.440763 
L 79.209133 177.446267 
L 81.312961 176.744092 
L 83.57412 176.323578 
L 85.678798 176.056364 
L 87.956119 176.18817 
L 90.594789 176.468625 
L 93.033414 176.852275 
L 95.656451 177.543458 
L 98.242114 178.335263 
L 100.609145 179.24378 
L 103.026343 180.714638 
L 105.36398 181.921511 
L 107.810945 183.481872 
L 109.968727 184.990802 
L 112.095906 186.77174 
L 114.103079 188.667356 
L 116.033169 190.635231 
L 117.773582 192.604668 
L 119.286059 194.893588 
L 120.785008 197.30207 
L 122.371864 199.85475 
L 123.84149 202.574311 
L 125.045678 205.184036 
L 126.009674 208.18282 
L 126.825356 211.142592 
L 127.643616 214.148144 
L 128.503059 217.092746 
L 128.863658 220.072626 
L 128.986505 222.950862 
L 129.062009 225.751902 
L 129.028295 228.440541 
L 128.819937 231.114369 
L 128.499713 233.78206 
L 128.055721 236.551133 
L 127.533951 239.104889 
L 126.852814 241.703301 
L 126.125478 244.230221 
L 125.315396 246.83297 
L 124.256486 249.378492 
L 123.141683 251.661265 
L 122.019495 253.925936 
L 120.65079 256.032851 
L 119.093561 258.063105 
L 117.573789 260.039852 
L 116.119546 261.973922 
L 114.644212 263.710882 
L 112.947846 265.344545 
L 111.033252 267.110458 
L 109.338961 268.637718 
L 107.497361 270.05373 
L 105.519385 271.200935 
L 103.43405 272.018052 
L 101.441768 272.383636 
" clip-path="url(#pce73a837b9)" style="fill: none; stroke: #1f77b4; stroke-width: 1.5; stroke-linecap: square"/>
   </g>
   <g id="text_4">
    <!-- Linear - MCF10A -->
    <g transform="translate(18.828125 165.24) scale(0.2 -0.2)">
     <defs>
      <path id="DejaVuSans-4c" d="M 628 4666 
L 1259 4666 
L 1259 531 
L 3531 531 
L 3531 0 
L 628 0 
L 628 4666 
z
" transform="scale(0.015625)"/>
      <path id="DejaVuSans-69" d="M 603 3500 
L 1178 3500 
L 1178 0 
L 603 0 
L 603 3500 
z
M 603 4863 
L 1178 4863 
L 1178 4134 
L 603 4134 
L 603 4863 
z
" transform="scale(0.015625)"/>
      <path id="DejaVuSans-6e" d="M 3513 2113 
L 3513 0 
L 2938 0 
L 2938 2094 
Q 2938 2591 2744 2837 
Q 2550 3084 2163 3084 
Q 1697 3084 1428 2787 
Q 1159 2491 1159 1978 
L 1159 0 
L 581 0 
L 581 3500 
L 1159 3500 
L 1159 2956 
Q 1366 3272 1645 3428 
Q 1925 3584 2291 3584 
Q 2894 3584 3203 3211 
Q 3513 2838 3513 2113 
z
" transform="scale(0.015625)"/>
      <path id="DejaVuSans-65" d="M 3597 1894 
L 3597 1613 
L 953 1613 
Q 991 1019 1311 708 
Q 1631 397 2203 397 
Q 2534 397 2845 478 
Q 3156 559 3463 722 
L 3463 178 
Q 3153 47 2828 -22 
Q 2503 -91 2169 -91 
Q 1331 -91 842 396 
Q 353 884 353 1716 
Q 353 2575 817 3079 
Q 1281 3584 2069 3584 
Q 2775 3584 3186 3129 
Q 3597 2675 3597 1894 
z
M 3022 2063 
Q 3016 2534 2758 2815 
Q 2500 3097 2075 3097 
Q 1594 3097 1305 2825 
Q 1016 2553 972 2059 
L 3022 2063 
z
" transform="scale(0.015625)"/>
      <path id="DejaVuSans-61" d="M 2194 1759 
Q 1497 1759 1228 1600 
Q 959 1441 959 1056 
Q 959 750 1161 570 
Q 1363 391 1709 391 
Q 2188 391 2477 730 
Q 2766 1069 2766 1631 
L 2766 1759 
L 2194 1759 
z
M 3341 1997 
L 3341 0 
L 2766 0 
L 2766 531 
Q 2569 213 2275 61 
Q 1981 -91 1556 -91 
Q 1019 -91 701 211 
Q 384 513 384 1019 
Q 384 1609 779 1909 
Q 1175 2209 1959 2209 
L 2766 2209 
L 2766 2266 
Q 2766 2663 2505 2880 
Q 2244 3097 1772 3097 
Q 1472 3097 1187 3025 
Q 903 2953 641 2809 
L 641 3341 
Q 956 3463 1253 3523 
Q 1550 3584 1831 3584 
Q 2591 3584 2966 3190 
Q 3341 2797 3341 1997 
z
" transform="scale(0.015625)"/>
      <path id="DejaVuSans-72" d="M 2631 2963 
Q 2534 3019 2420 3045 
Q 2306 3072 2169 3072 
Q 1681 3072 1420 2755 
Q 1159 2438 1159 1844 
L 1159 0 
L 581 0 
L 581 3500 
L 1159 3500 
L 1159 2956 
Q 1341 3275 1631 3429 
Q 1922 3584 2338 3584 
Q 2397 3584 2469 3576 
Q 2541 3569 2628 3553 
L 2631 2963 
z
" transform="scale(0.015625)"/>
     </defs>
     <use xlink:href="#DejaVuSans-4c"/>
     <use xlink:href="#DejaVuSans-69" x="55.712891"/>
     <use xlink:href="#DejaVuSans-6e" x="83.496094"/>
     <use xlink:href="#DejaVuSans-65" x="146.875"/>
     <use xlink:href="#DejaVuSans-61" x="208.398438"/>
     <use xlink:href="#DejaVuSans-72" x="269.677734"/>
     <use xlink:href="#DejaVuSans-20" x="310.791016"/>
     <use xlink:href="#DejaVuSans-2d" x="342.578125"/>
     <use xlink:href="#DejaVuSans-20" x="378.662109"/>
     <use xlink:href="#DejaVuSans-4d" x="410.449219"/>
     <use xlink:href="#DejaVuSans-43" x="496.728516"/>
     <use xlink:href="#DejaVuSans-46" x="566.552734"/>
     <use xlink:href="#DejaVuSans-31" x="624.072266"/>
     <use xlink:href="#DejaVuSans-30" x="687.695312"/>
     <use xlink:href="#DejaVuSans-41" x="751.318359"/>
    </g>
   </g>
  </g>
  <g id="axes_5">
   <g id="line2d_5">
    <path d="M 289.520106 272.383636 
L 287.362195 272.296257 
L 285.285334 272.080848 
L 283.599961 271.427254 
L 282.328283 270.391747 
L 281.22719 268.865021 
L 280.150601 266.806216 
L 279.183212 264.503191 
L 278.032156 261.900529 
L 276.659371 259.458861 
L 275.084508 257.052522 
L 273.379303 255.137706 
L 271.288552 253.277949 
L 269.285144 251.25872 
L 267.396357 249.240254 
L 265.605354 247.2093 
L 263.683172 245.075593 
L 261.936821 242.943946 
L 260.230176 240.839008 
L 258.778742 238.738574 
L 257.544103 236.283152 
L 256.655995 233.906553 
L 256.011841 231.271364 
L 255.542353 228.623105 
L 255.091324 225.835713 
L 254.814919 223.20046 
L 254.653652 220.401376 
L 254.550344 217.593519 
L 254.412915 215.005162 
L 254.351745 212.442348 
L 254.528671 209.888261 
L 254.686921 207.179095 
L 254.93116 204.39407 
L 255.027828 201.945222 
L 255.167506 199.652057 
L 255.569671 197.167961 
L 256.162739 194.783193 
L 256.720534 192.470915 
L 257.327693 190.195368 
L 258.018957 188.082501 
L 258.596767 185.955315 
L 259.468634 184.188271 
L 260.701282 182.273302 
L 262.388148 180.447715 
L 264.152576 178.812001 
L 266.175343 177.638783 
L 268.499894 177.112374 
L 271.256247 176.779652 
L 273.739716 176.606457 
L 276.532241 176.242321 
L 279.31519 176.056364 
L 281.936205 176.062882 
L 284.717024 176.234849 
L 287.533916 176.401352 
L 290.319032 176.556188 
L 293.127103 176.875945 
L 296.014576 177.569981 
L 298.648725 178.343034 
L 301.362523 178.881436 
L 303.808141 180.131226 
L 306.305458 181.788658 
L 308.646955 183.434747 
L 310.762175 185.239556 
L 312.854351 187.32574 
L 314.926808 189.311972 
L 316.834246 191.362526 
L 318.556163 193.797528 
L 320.516894 196.080576 
L 322.654585 198.725684 
L 324.330091 201.238766 
L 325.945097 204.191271 
L 326.994451 206.910307 
L 327.661657 209.817159 
L 328.145947 212.978104 
L 328.574054 216.417095 
L 328.729475 219.325622 
L 328.848255 222.425092 
L 328.64703 225.472674 
L 328.250298 228.605612 
L 327.808171 231.631591 
L 327.016915 234.582268 
L 326.304861 237.486741 
L 325.443565 240.522672 
L 324.427509 243.373912 
L 323.216702 246.115972 
L 321.983719 248.672667 
L 320.600243 250.914532 
L 319.07518 253.275858 
L 317.255896 255.479277 
L 315.284861 257.757678 
L 313.015193 259.448758 
L 310.678512 261.077108 
L 308.567496 262.48164 
L 306.456257 264.088894 
L 304.065916 266.030676 
L 301.635483 267.563146 
L 299.236068 268.947008 
L 296.72763 270.226676 
L 294.358618 271.305946 
L 291.97235 272.139511 
" clip-path="url(#p212ffba1d2)" style="fill: none; stroke: #ff7f0e; stroke-width: 1.5; stroke-linecap: square"/>
   </g>
   <g id="text_5">
    <!-- Linear - MCF7 -->
    <g transform="translate(222.83125 165.24) scale(0.2 -0.2)">
     <use xlink:href="#DejaVuSans-4c"/>
     <use xlink:href="#DejaVuSans-69" x="55.712891"/>
     <use xlink:href="#DejaVuSans-6e" x="83.496094"/>
     <use xlink:href="#DejaVuSans-65" x="146.875"/>
     <use xlink:href="#DejaVuSans-61" x="208.398438"/>
     <use xlink:href="#DejaVuSans-72" x="269.677734"/>
     <use xlink:href="#DejaVuSans-20" x="310.791016"/>
     <use xlink:href="#DejaVuSans-2d" x="342.578125"/>
     <use xlink:href="#DejaVuSans-20" x="378.662109"/>
     <use xlink:href="#DejaVuSans-4d" x="410.449219"/>
     <use xlink:href="#DejaVuSans-43" x="496.728516"/>
     <use xlink:href="#DejaVuSans-46" x="566.552734"/>
     <use xlink:href="#DejaVuSans-37" x="624.072266"/>
    </g>
   </g>
  </g>
  <g id="axes_6">
   <g id="line2d_6">
    <path d="M 487.33174 272.383636 
L 485.864271 272.014976 
L 484.516105 271.167267 
L 483.180992 269.914352 
L 482.034515 268.310085 
L 480.994011 266.469746 
L 480.246803 264.413892 
L 479.337355 262.115492 
L 478.487006 259.691449 
L 477.361745 257.374685 
L 476.01951 254.977093 
L 474.788099 252.729195 
L 473.370651 250.629689 
L 472.054346 248.57752 
L 470.691566 246.43149 
L 469.338629 244.002168 
L 467.984047 241.707126 
L 466.61795 239.703244 
L 465.260387 237.749221 
L 464.178327 235.73006 
L 463.002285 233.343898 
L 462.15084 230.927184 
L 461.401795 228.455766 
L 460.79265 226.162026 
L 460.323135 223.866596 
L 459.867766 221.729963 
L 459.472241 219.378082 
L 458.981425 216.82821 
L 458.534625 214.302116 
L 458.112389 211.988703 
L 457.824881 209.538127 
L 457.469265 207.02761 
L 457.190645 204.863272 
L 456.960531 202.564548 
L 456.748632 200.128092 
L 456.635646 197.819598 
L 456.948155 195.513953 
L 457.158641 193.292467 
L 457.545315 190.990743 
L 458.051927 188.949625 
L 458.499437 186.997143 
L 458.926166 184.978737 
L 459.461283 183.099371 
L 460.332824 181.207991 
L 461.714774 179.697881 
L 463.15803 178.617308 
L 464.669426 177.807041 
L 466.413846 177.20261 
L 468.396684 176.59415 
L 470.430912 176.24744 
L 472.534868 176.056364 
L 474.737475 176.417233 
L 477.058735 176.994987 
L 479.246707 177.626806 
L 481.419686 178.301051 
L 483.64667 178.889051 
L 485.832892 179.512297 
L 488.042421 180.340492 
L 490.076125 181.45574 
L 491.99817 183.058452 
L 493.692013 184.8681 
L 495.250593 186.585817 
L 496.753431 188.491234 
L 498.177696 190.715172 
L 499.388737 192.845813 
L 500.781992 195.147002 
L 502.037654 197.363607 
L 503.248747 199.635646 
L 504.426595 201.9735 
L 505.405685 204.627416 
L 506.237512 207.437374 
L 506.773803 210.436951 
L 507.106734 213.769962 
L 507.511144 216.920738 
L 507.815808 220.395171 
L 508.043111 223.451004 
L 508.164354 226.229056 
L 508.137476 228.877418 
L 508.101329 231.483513 
L 508.033973 234.157091 
L 507.74812 237.001972 
L 507.368017 239.860627 
L 507.066077 242.593996 
L 506.700771 245.005251 
L 506.260358 247.477482 
L 505.699233 249.835902 
L 505.101462 251.556525 
L 504.356997 253.746195 
L 503.420711 256.022093 
L 502.52055 258.153547 
L 501.387219 260.035801 
L 500.08163 261.797133 
L 498.766861 263.388716 
L 497.284166 265.053692 
L 496.0701 266.775535 
L 494.920685 268.378368 
L 493.573708 269.833756 
L 492.199689 271.080467 
L 490.607092 271.827161 
L 488.919939 272.250091 
" clip-path="url(#pdfffd94c20)" style="fill: none; stroke: #2ca02c; stroke-width: 1.5; stroke-linecap: square"/>
   </g>
   <g id="text_6">
    <!-- Linear - MDA_MB_231 -->
    <g transform="translate(373.785937 165.24) scale(0.2 -0.2)">
     <use xlink:href="#DejaVuSans-4c"/>
     <use xlink:href="#DejaVuSans-69" x="55.712891"/>
     <use xlink:href="#DejaVuSans-6e" x="83.496094"/>
     <use xlink:href="#DejaVuSans-65" x="146.875"/>
     <use xlink:href="#DejaVuSans-61" x="208.398438"/>
     <use xlink:href="#DejaVuSans-72" x="269.677734"/>
     <use xlink:href="#DejaVuSans-20" x="310.791016"/>
     <use xlink:href="#DejaVuSans-2d" x="342.578125"/>
     <use xlink:href="#DejaVuSans-20" x="378.662109"/>
     <use xlink:href="#DejaVuSans-4d" x="410.449219"/>
     <use xlink:href="#DejaVuSans-44" x="496.728516"/>
     <use xlink:href="#DejaVuSans-41" x="571.980469"/>
     <use xlink:href="#DejaVuSans-5f" x="640.388672"/>
     <use xlink:href="#DejaVuSans-4d" x="690.388672"/>
     <use xlink:href="#DejaVuSans-42" x="776.667969"/>
     <use xlink:href="#DejaVuSans-5f" x="845.271484"/>
     <use xlink:href="#DejaVuSans-32" x="895.271484"/>
     <use xlink:href="#DejaVuSans-33" x="958.894531"/>
     <use xlink:href="#DejaVuSans-31" x="1022.517578"/>
    </g>
   </g>
  </g>
 </g>
 <defs>
  <clipPath id="p177a80206d">
   <rect x="10.8" y="32.64" width="180" height="105.96"/>
  </clipPath>
  <clipPath id="pd1ca0f67b5">
   <rect x="201.6" y="32.64" width="180" height="105.96"/>
  </clipPath>
  <clipPath id="p132cbd2ad8">
   <rect x="392.4" y="32.64" width="180" height="105.96"/>
  </clipPath>
  <clipPath id="pce73a837b9">
   <rect x="10.8" y="171.24" width="180" height="105.96"/>
  </clipPath>
  <clipPath id="p212ffba1d2">
   <rect x="201.6" y="171.24" width="180" height="105.96"/>
  </clipPath>
  <clipPath id="pdfffd94c20">
   <rect x="392.4" y="171.24" width="180" height="105.96"/>
  </clipPath>
 </defs>
</svg>
