<?xml version="1.0" encoding="utf-8" standalone="no"?>
<!DOCTYPE svg PUBLIC "-//W3C//DTD SVG 1.1//EN"
  "http://www.w3.org/Graphics/SVG/1.1/DTD/svg11.dtd">
<svg xmlns:xlink="http://www.w3.org/1999/xlink" width="1152pt" height="432pt" viewBox="0 0 1152 432" xmlns="http://www.w3.org/2000/svg" version="1.1">
 <metadata>
  <rdf:RDF xmlns:dc="http://purl.org/dc/elements/1.1/" xmlns:cc="http://creativecommons.org/ns#" xmlns:rdf="http://www.w3.org/1999/02/22-rdf-syntax-ns#">
   <cc:Work>
    <dc:type rdf:resource="http://purl.org/dc/dcmitype/StillImage"/>
    <dc:date>2023-12-19T18:08:15.284366</dc:date>
    <dc:format>image/svg+xml</dc:format>
    <dc:creator>
     <cc:Agent>
      <dc:title>Matplotlib v3.6.2, https://matplotlib.org/</dc:title>
     </cc:Agent>
    </dc:creator>
   </cc:Work>
  </rdf:RDF>
 </metadata>
 <defs>
  <style type="text/css">*{stroke-linejoin: round; stroke-linecap: butt}</style>
 </defs>
 <g id="figure_1">
  <g id="patch_1">
   <path d="M 0 432 
L 1152 432 
L 1152 0 
L 0 0 
z
" style="fill: #ffffff"/>
  </g>
  <g id="axes_1">
   <g id="line2d_1">
    <path d="M 201.542739 145.228235 
L 200.100975 144.283642 
L 198.659241 143.736768 
L 197.217478 142.891597 
L 194.980277 142.245301 
L 192.842513 141.499567 
L 190.406438 140.455537 
L 189.163548 140.803552 
L 185.037162 137.770899 
L 183.048539 138.367492 
L 181.159353 139.759522 
L 180.662197 138.516633 
L 179.369589 135.981135 
L 177.828403 135.931417 
L 177.182107 134.489668 
L 175.690639 133.296497 
L 173.006001 131.307874 
L 171.067097 130.462703 
L 169.72477 130.214125 
L 170.172208 128.275221 
L 168.233303 128.822095 
L 168.730459 131.158734 
L 167.736147 129.71697 
L 165.896665 127.976925 
L 164.355494 126.833472 
L 163.510324 125.093427 
L 163.062886 123.353382 
L 161.919419 121.215618 
L 160.179374 117.884669 
L 158.837062 115.846327 
L 158.787344 113.907423 
L 159.781655 110.029614 
L 157.793032 106.450087 
L 156.450706 105.10776 
L 154.810098 103.666026 
L 156.798721 103.467152 
L 156.401002 100.086499 
L 155.456394 98.84361 
L 153.716349 97.401846 
L 151.379726 96.457268 
L 153.815786 95.51266 
L 152.821475 92.579429 
L 152.920912 90.64054 
L 151.330008 87.856449 
L 150.534555 85.271264 
L 149.83854 83.332344 
L 149.043088 81.393424 
L 148.844229 79.653379 
L 148.247636 77.515616 
L 147.352762 75.526993 
L 146.855606 71.649184 
L 145.911013 69.710264 
L 147.352762 66.478752 
L 148.197932 64.838144 
L 149.440822 61.606631 
L 150.335696 59.468868 
L 152.523178 58.52426 
L 153.964927 56.883652 
L 155.406691 56.734511 
L 157.345595 56.287059 
L 158.787344 57.231667 
L 161.621138 58.225978 
L 163.957761 59.91632 
L 166.145243 62.103787 
L 167.736147 66.578189 
L 169.72477 69.660561 
L 173.602579 73.637807 
L 174.696328 75.079571 
L 175.392343 77.316771 
L 177.182107 78.659068 
L 177.679262 80.100832 
L 179.17073 81.542595 
L 182.153664 84.078078 
L 184.490302 86.563856 
L 186.230348 88.055324 
L 188.368111 90.043947 
L 190.008719 91.933132 
L 191.102468 94.170333 
L 194.582558 97.103564 
L 195.626573 99.042454 
L 197.565493 101.478529 
L 201.940457 103.964308 
L 204.326799 106.450087 
L 204.674814 107.792413 
L 206.116578 109.433021 
L 208.502919 111.9188 
L 211.485854 115.796609 
L 212.281291 117.68581 
L 214.07107 119.773855 
L 215.4631 119.972729 
L 216.457411 121.364759 
L 217.451723 123.60196 
L 217.750004 126.137457 
L 216.954567 130.562141 
L 217.153441 133.594794 
L 215.960256 137.522321 
L 214.76707 140.952693 
L 212.82818 143.239612 
L 208.900638 144.830517 
L 205.271407 144.73108 
" clip-path="url(#p9c2af78d53)" style="fill: none; stroke: #1f77b4; stroke-width: 1.5; stroke-linecap: square"/>
   </g>
  </g>
  <g id="axes_2">
   <g id="line2d_2">
    <path d="M 288.25617 134.367396 
L 287.286967 133.846315 
L 286.317763 133.325234 
L 285.650763 132.199696 
L 284.608601 129.573441 
L 282.73272 126.551176 
L 280.023091 124.987931 
L 277.313461 125.519429 
L 276.854907 126.488648 
L 276.271299 126.16558 
L 275.229136 124.049991 
L 273.467878 122.382524 
L 270.560251 120.81928 
L 268.976159 121.246571 
L 267.392067 119.256036 
L 266.422864 118.787066 
L 263.369318 118.338928 
L 261.357952 118.536941 
L 259.867651 118.98508 
L 258.888031 116.984129 
L 256.991287 115.504244 
L 256.470206 114.503777 
L 255.511418 112.565353 
L 252.937275 112.075535 
L 252.155653 109.209588 
L 251.259392 103.623595 
L 250.550729 102.39385 
L 250.102591 101.424646 
L 249.571093 98.808808 
L 247.153268 97.370618 
L 246.56966 96.015819 
L 245.704663 95.286293 
L 243.672448 96.328455 
L 241.806968 95.807374 
L 240.316683 95.161238 
L 239.170298 93.723048 
L 238.232357 93.222799 
L 241.171264 92.347386 
L 242.234259 91.805473 
L 245.048095 91.075946 
L 244.902193 86.844768 
L 243.55781 84.458206 
L 242.150884 79.403742 
L 240.316683 74.505564 
L 241.796552 74.005315 
L 244.172682 73.192429 
L 245.590024 72.296184 
L 247.830684 71.618785 
L 248.945789 71.024745 
L 250.957172 70.055541 
L 252.822636 68.711142 
L 256.553581 67.668979 
L 258.262727 67.147898 
L 260.670121 69.784568 
L 262.660655 72.296184 
L 263.765345 73.036111 
L 264.890883 74.443037 
L 265.849671 74.97455 
L 266.766779 76.402308 
L 267.277429 77.434039 
L 268.038219 78.715911 
L 269.215852 79.372479 
L 271.060485 79.820601 
L 271.581566 81.165 
L 274.186973 85.927659 
L 278.407719 90.648655 
L 279.793814 91.513668 
L 280.763017 91.961791 
L 283.045356 92.409913 
L 284.264701 93.723048 
L 285.859209 92.680886 
L 286.72419 93.754312 
L 287.214008 94.723516 
L 289.704792 96.849537 
L 291.716158 98.412781 
L 292.685362 98.15224 
L 294.696729 98.600362 
L 295.488782 100.955661 
L 297.76069 102.706486 
L 299.198879 104.634494 
L 299.719961 106.020572 
L 300.241042 107.093999 
L 301.554177 108.313327 
L 303.888612 110.79368 
L 307.0151 115.941966 
L 306.494019 121.131932 
L 305.993769 124.446002 
L 305.118356 126.363594 
L 304.576443 127.072257 
L 303.607239 127.593338 
L 301.804286 129.365012 
L 301.283205 130.334232 
L 300.762124 131.303435 
L 300.251474 132.272655 
L 297.885744 133.59619 
L 296.228709 133.481552 
L 294.738424 133.033429 
L 291.684895 132.585291 
L 290.569773 132.574875 
L 290.267537 133.919274 
" clip-path="url(#p0f91e140e0)" style="fill: none; stroke: #1f77b4; stroke-width: 1.5; stroke-linecap: square"/>
   </g>
  </g>
  <g id="axes_3">
   <g id="line2d_3">
    <path d="M 334.240701 133.015559 
L 335.188905 130.341616 
L 335.814724 128.596924 
L 337.066346 126.8712 
L 336.307779 125.904027 
L 334.572578 126.520354 
L 334.695835 125.922995 
L 337.559416 123.239576 
L 338.374872 121.50436 
L 335.27424 122.499977 
L 334.904441 121.826746 
L 332.695124 122.11121 
L 330.561664 122.585312 
L 329.025578 122.784442 
L 330.087562 122.11121 
L 331.348675 121.637108 
L 333.349387 120.157912 
L 335.663007 118.21409 
L 336.611212 116.478875 
L 337.341333 115.217762 
L 336.895676 113.577372 
L 335.255287 114.051474 
L 334.240701 114.279049 
L 335.27424 112.543833 
L 336.061251 110.808618 
L 334.477752 109.784555 
L 334.240701 108.286391 
L 334.714803 107.025278 
L 332.818395 105.290062 
L 334.714803 104.028949 
L 337.84388 100.966253 
L 339.929926 98.188022 
L 340.460918 96.926908 
L 341.24793 92.347066 
L 340.669525 90.820471 
L 340.878131 88.307735 
L 341.352233 86.19323 
L 342.025464 84.657143 
L 344.746806 84.107198 
L 346.444085 82.884006 
L 347.705198 82.286633 
L 348.994757 81.755641 
L 352.199691 79.49891 
L 353.384947 78.313655 
L 355.120162 77.545612 
L 356.381276 77.07151 
L 357.813059 76.256068 
L 360.818864 75.175101 
L 364.772889 74.226897 
L 367.114954 74.539792 
L 369.324257 73.752795 
L 371.533561 74.700999 
L 373.572223 77.052556 
L 375.952196 77.555103 
L 377.213324 78.019714 
L 380.844933 78.825693 
L 382.106061 78.038667 
L 384.315364 77.07151 
L 386.050594 76.464645 
L 388.259897 75.677648 
L 389.520996 75.175101 
L 394.736119 70.623732 
L 397.80832 68.499735 
L 393.503465 73.55368 
L 389.369309 77.412849 
L 387.861638 79.394621 
L 385.443729 83.026231 
L 384.704131 85.813954 
L 385.917831 86.970764 
L 383.547321 88.231863 
L 383.736973 89.398164 
L 380.702708 92.517764 
L 379.014906 95.352886 
L 377.858095 97.325138 
L 376.909891 101.023143 
L 375.013483 104.332381 
L 374.065279 105.91588 
L 371.950773 104.569432 
L 369.817313 104.076362 
L 367.83557 105.043534 
L 366.479645 106.750305 
L 363.966909 108.504474 
L 362.155836 110.315547 
L 359.681008 111.842157 
L 358.419909 114.829009 
L 357.898394 118.792495 
L 355.575296 121.769856 
L 354.427963 122.585312 
L 353.166864 124.045541 
L 352.029007 125.657499 
L 351.308377 127.041869 
L 350.777385 128.274538 
L 349.411969 127.117727 
L 349.70591 124.775662 
L 346.548388 126.378129 
L 342.300437 131.498426 
L 341.010879 131.593253 
L 339.92045 129.222742 
L 338.659336 129.696844 
L 335.96644 131.28982 
" clip-path="url(#p33712bf385)" style="fill: none; stroke: #1f77b4; stroke-width: 1.5; stroke-linecap: square"/>
   </g>
  </g>
  <g id="axes_4">
   <g id="line2d_4">
    <path d="M 466.406796 129.809713 
L 464.700309 128.626687 
L 460.512624 127.851976 
L 458.670033 128.64763 
L 453.822798 128.741849 
L 451.933112 127.899085 
L 450.818139 127.307572 
L 446.65662 125.763357 
L 444.923967 124.575107 
L 442.851067 122.91573 
L 440.966605 120.910882 
L 439.710303 120.162337 
L 438.663382 118.523903 
L 438.139921 116.686551 
L 437.093 112.577382 
L 436.046078 110.467836 
L 435.564488 109.352878 
L 435.936156 107.714444 
L 435.878567 106.253984 
L 437.61646 104.961035 
L 435.836697 102.27568 
L 435.28183 99.731653 
L 433.648636 97.574997 
L 431.355875 94.758776 
L 429.429528 94.025951 
L 430.418876 91.727951 
L 428.518712 90.351247 
L 427.403738 89.759734 
L 426.288764 89.168221 
L 428.518712 88.456322 
L 430.288011 86.467178 
L 428.701926 85.299839 
L 427.063492 84.708357 
L 425.644918 83.813228 
L 422.823457 82.038689 
L 421.101283 80.839976 
L 419.818798 80.248462 
L 420.766261 80.504953 
L 422.865343 79.128249 
L 420.829073 76.380081 
L 420.23756 74.218186 
L 419.991533 72.579751 
L 421.064637 71.705581 
L 422.744941 72.229041 
L 424.236807 71.705581 
L 425.053405 72.67397 
L 426.613323 73.799423 
L 427.20482 72.752502 
L 427.921975 73.527214 
L 430.288011 74.71024 
L 432.643584 77.463648 
L 434.088341 77.987109 
L 434.999157 76.667978 
L 434.475696 75.427378 
L 436.056542 75.903745 
L 436.648055 77.018719 
L 437.239568 78.133693 
L 438.260323 79.677876 
L 439.992976 80.321755 
L 441.631411 80.431661 
L 443.269829 81.023174 
L 449.582763 80.154243 
L 448.085673 77.955702 
L 448.808052 77.662566 
L 451.917409 78.343058 
L 456.173147 78.222672 
L 463.569649 78.206953 
L 464.684622 78.358777 
L 468.772849 79.8297 
L 470.055302 80.588693 
L 471.484371 81.127873 
L 475.426013 81.651333 
L 478.111369 83.745176 
L 479.749803 84.792097 
L 481.911698 86.362479 
L 483.550133 87.4094 
L 484.141646 88.91697 
L 486.298301 91.607565 
L 487.418515 93.690928 
L 488.010028 94.355733 
L 488.601541 95.470707 
L 488.392144 96.585681 
L 487.868683 99.082567 
L 487.345222 102.563593 
L 487.868683 109.897266 
L 486.769429 110.96513 
L 484.204459 112.629731 
L 483.356455 113.582433 
L 481.063695 115.843787 
L 480.241858 117.021573 
L 479.283916 119.026421 
L 478.535371 120.910882 
L 477.420397 120.387422 
L 475.734869 122.481264 
L 474.14356 123.004725 
L 472.662158 123.528185 
L 470.071021 125.349834 
L 468.589618 126.579954 
L 467.589823 128.103226 
L 466.998309 129.2182 
" clip-path="url(#p6d03550d7b)" style="fill: none; stroke: #1f77b4; stroke-width: 1.5; stroke-linecap: square"/>
   </g>
  </g>
  <g id="axes_5">
   <g id="line2d_5">
    <path d="M 515.827142 133.015559 
L 516.775346 130.341616 
L 517.401164 128.596924 
L 518.652786 126.8712 
L 517.89422 125.904027 
L 516.159019 126.520354 
L 516.282276 125.922995 
L 519.145857 123.239576 
L 519.961313 121.50436 
L 516.860681 122.499977 
L 516.490882 121.826746 
L 514.281564 122.11121 
L 512.148105 122.585312 
L 510.612018 122.784442 
L 511.674003 122.11121 
L 512.935116 121.637108 
L 514.935827 120.157912 
L 517.249448 118.21409 
L 518.197652 116.478875 
L 518.927774 115.217762 
L 518.482116 113.577372 
L 516.841727 114.051474 
L 515.827142 114.279049 
L 516.860681 112.543833 
L 517.647692 110.808618 
L 516.064193 109.784555 
L 515.827142 108.286391 
L 516.301244 107.025278 
L 514.404835 105.290062 
L 516.301244 104.028949 
L 519.430321 100.966253 
L 521.516367 98.188022 
L 522.047359 96.926908 
L 522.83437 92.347066 
L 522.255965 90.820471 
L 522.464571 88.307735 
L 522.938673 86.19323 
L 523.611905 84.657143 
L 526.333246 84.107198 
L 528.030525 82.884006 
L 529.291639 82.286633 
L 530.581197 81.755641 
L 533.786132 79.49891 
L 534.971387 78.313655 
L 536.706603 77.545612 
L 537.967716 77.07151 
L 539.399499 76.256068 
L 542.405305 75.175101 
L 546.359329 74.226897 
L 548.701395 74.539792 
L 550.910698 73.752795 
L 553.120001 74.700999 
L 555.158663 77.052556 
L 557.538636 77.555103 
L 558.799764 78.019714 
L 562.431374 78.825693 
L 563.692501 78.038667 
L 565.901805 77.07151 
L 567.637035 76.464645 
L 569.846338 75.677648 
L 571.107437 75.175101 
L 576.32256 70.623732 
L 579.394761 68.499735 
L 575.089906 73.55368 
L 570.955749 77.412849 
L 569.448079 79.394621 
L 567.03017 83.026231 
L 566.290572 85.813954 
L 567.504272 86.970764 
L 565.133762 88.231863 
L 565.323414 89.398164 
L 562.289149 92.517764 
L 560.601346 95.352886 
L 559.444536 97.325138 
L 558.496332 101.023143 
L 556.599923 104.332381 
L 555.651719 105.91588 
L 553.537213 104.569432 
L 551.403754 104.076362 
L 549.422011 105.043534 
L 548.066085 106.750305 
L 545.55335 108.504474 
L 543.742276 110.315547 
L 541.267448 111.842157 
L 540.00635 114.829009 
L 539.484834 118.792495 
L 537.161737 121.769856 
L 536.014403 122.585312 
L 534.753304 124.045541 
L 533.615448 125.657499 
L 532.894818 127.041869 
L 532.363826 128.274538 
L 530.998409 127.117727 
L 531.29235 124.775662 
L 528.134829 126.378129 
L 523.886878 131.498426 
L 522.597319 131.593253 
L 521.50689 129.222742 
L 520.245777 129.696844 
L 517.55288 131.28982 
" clip-path="url(#p034d5238db)" style="fill: none; stroke: #1f77b4; stroke-width: 1.5; stroke-linecap: square"/>
   </g>
  </g>
  <g id="axes_6">
   <g id="line2d_6">
    <path d="M 625.990023 133.537359 
L 618.628247 126.708253 
L 616.729756 125.342431 
L 615.063452 123.744423 
L 613.533739 121.927878 
L 611.717194 121.313262 
L 609.572845 119.851824 
L 606.663659 117.625549 
L 603.809077 115.453877 
L 602.743738 113.022717 
L 601.405239 111.137898 
L 602.484229 110.318396 
L 603.699809 109.635486 
L 605.502703 108.174047 
L 606.759256 106.330201 
L 607.34657 105.059976 
L 609.245061 104.527306 
L 609.77773 99.897173 
L 610.228454 93.190985 
L 608.917256 91.319817 
L 610.419668 92.016399 
L 612.850828 92.0437 
L 613.806899 89.721829 
L 614.380542 88.506228 
L 615.063452 87.290669 
L 615.746363 85.050702 
L 616.429274 82.428306 
L 613.697631 78.057703 
L 611.976704 73.769004 
L 610.965988 73.017819 
L 608.234346 69.753486 
L 609.846005 69.097918 
L 611.621577 67.977935 
L 614.025436 69.343756 
L 615.418558 70.026667 
L 617.521935 71.392488 
L 621.264272 74.124131 
L 622.479852 74.711424 
L 624.378364 75.244114 
L 627.246576 74.916289 
L 627.902164 73.30463 
L 627.355844 71.41979 
L 628.038755 71.911507 
L 628.721666 73.127066 
L 631.20747 75.489952 
L 633.50204 74.055857 
L 634.103005 72.840256 
L 636.902943 74.110459 
L 641.31454 75.107524 
L 644.578831 75.339732 
L 645.794432 74.807042 
L 647.010033 74.124131 
L 649.290932 72.75831 
L 650.807015 72.075399 
L 652.10452 71.392488 
L 652.691813 72.007125 
L 653.552288 74.369969 
L 654.986425 74.492888 
L 655.519074 73.277328 
L 656.051764 68.647174 
L 657.267323 67.977935 
L 658.196072 70.818825 
L 659.452646 71.638326 
L 660.039939 72.853927 
L 660.70922 74.697794 
L 661.774559 77.811865 
L 663.55011 76.52799 
L 664.410584 75.667516 
L 664.88863 77.565986 
L 664.23302 79.90157 
L 666.281752 82.728789 
L 665.598842 84.203899 
L 666.500289 85.733612 
L 668.289512 86.37555 
L 669.313878 88.082827 
L 670.037761 90.172532 
L 670.187982 92.753954 
L 669.655333 94.611451 
L 667.86611 95.758736 
L 668.070975 97.766495 
L 669.013395 98.572325 
L 666.964663 101.563477 
L 666.309054 102.779057 
L 665.776405 106.903843 
L 663.55011 109.662808 
L 661.501378 112.571993 
L 658.086824 116.519216 
L 656.324903 118.909403 
L 655.60102 120.316219 
L 653.811797 121.422531 
L 652.213809 123.70345 
L 649.905568 125.342431 
L 647.843164 127.910182 
L 645.371031 129.439895 
L 642.871555 130.122806 
L 640.194557 130.805717 
L 638.364361 131.406681 
L 636.247334 132.840798 
L 632.518647 133.236877 
L 629.937246 133.00469 
" clip-path="url(#p6e91a02d38)" style="fill: none; stroke: #1f77b4; stroke-width: 1.5; stroke-linecap: square"/>
   </g>
   <g id="text_1">
    <!-- MCF10A -->
    <g transform="translate(594.868485 45.84) scale(0.2 -0.2)">
     <defs>
      <path id="DejaVuSans-4d" d="M 628 4666 
L 1569 4666 
L 2759 1491 
L 3956 4666 
L 4897 4666 
L 4897 0 
L 4281 0 
L 4281 4097 
L 3078 897 
L 2444 897 
L 1241 4097 
L 1241 0 
L 628 0 
L 628 4666 
z
" transform="scale(0.015625)"/>
      <path id="DejaVuSans-43" d="M 4122 4306 
L 4122 3641 
Q 3803 3938 3442 4084 
Q 3081 4231 2675 4231 
Q 1875 4231 1450 3742 
Q 1025 3253 1025 2328 
Q 1025 1406 1450 917 
Q 1875 428 2675 428 
Q 3081 428 3442 575 
Q 3803 722 4122 1019 
L 4122 359 
Q 3791 134 3420 21 
Q 3050 -91 2638 -91 
Q 1578 -91 968 557 
Q 359 1206 359 2328 
Q 359 3453 968 4101 
Q 1578 4750 2638 4750 
Q 3056 4750 3426 4639 
Q 3797 4528 4122 4306 
z
" transform="scale(0.015625)"/>
      <path id="DejaVuSans-46" d="M 628 4666 
L 3309 4666 
L 3309 4134 
L 1259 4134 
L 1259 2759 
L 3109 2759 
L 3109 2228 
L 1259 2228 
L 1259 0 
L 628 0 
L 628 4666 
z
" transform="scale(0.015625)"/>
      <path id="DejaVuSans-31" d="M 794 531 
L 1825 531 
L 1825 4091 
L 703 3866 
L 703 4441 
L 1819 4666 
L 2450 4666 
L 2450 531 
L 3481 531 
L 3481 0 
L 794 0 
L 794 531 
z
" transform="scale(0.015625)"/>
      <path id="DejaVuSans-30" d="M 2034 4250 
Q 1547 4250 1301 3770 
Q 1056 3291 1056 2328 
Q 1056 1369 1301 889 
Q 1547 409 2034 409 
Q 2525 409 2770 889 
Q 3016 1369 3016 2328 
Q 3016 3291 2770 3770 
Q 2525 4250 2034 4250 
z
M 2034 4750 
Q 2819 4750 3233 4129 
Q 3647 3509 3647 2328 
Q 3647 1150 3233 529 
Q 2819 -91 2034 -91 
Q 1250 -91 836 529 
Q 422 1150 422 2328 
Q 422 3509 836 4129 
Q 1250 4750 2034 4750 
z
" transform="scale(0.015625)"/>
      <path id="DejaVuSans-41" d="M 2188 4044 
L 1331 1722 
L 3047 1722 
L 2188 4044 
z
M 1831 4666 
L 2547 4666 
L 4325 0 
L 3669 0 
L 3244 1197 
L 1141 1197 
L 716 0 
L 50 0 
L 1831 4666 
z
" transform="scale(0.015625)"/>
     </defs>
     <use xlink:href="#DejaVuSans-4d"/>
     <use xlink:href="#DejaVuSans-43" x="86.279297"/>
     <use xlink:href="#DejaVuSans-46" x="156.103516"/>
     <use xlink:href="#DejaVuSans-31" x="213.623047"/>
     <use xlink:href="#DejaVuSans-30" x="277.246094"/>
     <use xlink:href="#DejaVuSans-41" x="340.869141"/>
    </g>
   </g>
  </g>
  <g id="axes_7">
   <g id="line2d_7">
    <path d="M 732.071367 145.228235 
L 729.954854 142.517195 
L 728.432867 140.472022 
L 727.315154 139.473221 
L 726.720627 137.356708 
L 726.1261 135.834721 
L 724.508987 131.720588 
L 723.153467 129.865668 
L 721.417441 125.656409 
L 718.99178 123.801489 
L 717.446007 122.041695 
L 716.423421 120.852642 
L 714.830094 122.303288 
L 712.71358 121.447168 
L 709.669606 122.636222 
L 708.052493 121.803888 
L 706.530506 120.876428 
L 705.008519 117.880008 
L 703.486533 115.501901 
L 702.345033 113.385388 
L 701.393787 110.983495 
L 700.418773 105.537628 
L 699.586421 102.422314 
L 698.254687 101.304601 
L 698.777873 99.782615 
L 699.3724 96.477048 
L 699.633993 94.955061 
L 699.966927 92.838547 
L 700.561453 90.508013 
L 698.777873 88.60552 
L 700.918173 87.202446 
L 702.392587 82.160835 
L 702.987114 78.68882 
L 703.534087 75.977779 
L 708.314086 70.294106 
L 710.668407 66.156187 
L 712.451987 62.493919 
L 715.35328 60.282261 
L 716.613674 57.666329 
L 718.706401 56.64376 
L 721.013167 56.287059 
L 722.511386 58.974295 
L 724.34252 59.925559 
L 727.957253 60.853019 
L 730.073766 61.019468 
L 731.239015 59.021867 
L 735.067769 59.616394 
L 737.017834 60.401173 
L 739.134347 61.328633 
L 740.656334 61.06704 
L 741.583794 62.589027 
L 743.105781 61.9945 
L 742.772847 63.254894 
L 746.340007 67.749514 
L 746.649173 71.792288 
L 745.269867 73.766121 
L 747.148555 76.263141 
L 746.982106 77.404622 
L 745.745481 78.617479 
L 746.958302 79.854069 
L 747.172359 81.613881 
L 745.341207 84.18224 
L 749.312641 86.893281 
L 749.740683 88.914686 
L 749.812059 90.436673 
L 752.879801 91.364133 
L 750.525462 92.291593 
L 749.02728 93.81358 
L 753.426755 94.74104 
L 751.904768 95.6685 
L 750.382782 96.477048 
L 749.02728 99.164302 
L 750.691947 102.422314 
L 753.188966 105.704095 
L 754.924974 106.584001 
L 751.690748 107.178528 
L 750.168761 106.916935 
L 747.077215 109.699315 
L 749.336409 114.336634 
L 749.02728 115.787281 
L 748.599202 117.761096 
L 748.123588 119.877609 
L 748.718114 121.399614 
L 750.787055 122.327074 
L 748.099819 123.206962 
L 745.388779 122.992941 
L 746.030842 124.419802 
L 745.816821 126.203382 
L 744.889361 128.319895 
L 748.028479 129.675415 
L 749.788255 130.365068 
L 749.360213 130.959595 
L 744.247262 130.674216 
L 745.745481 134.027355 
L 745.150954 136.096314 
L 745.507656 138.093915 
L 742.772847 140.329341 
L 739.823982 142.826342 
L 738.087974 145.156895 
L 735.258021 144.633709 
" clip-path="url(#p240ad9cad8)" style="fill: none; stroke: #1f77b4; stroke-width: 1.5; stroke-linecap: square"/>
   </g>
  </g>
  <g id="axes_8">
   <g id="line2d_8">
    <path d="M 816.735486 139.905639 
L 813.980414 139.316947 
L 811.884673 138.586975 
L 809.270881 137.150566 
L 807.763832 137.550872 
L 804.490708 135.196106 
L 801.217584 132.629419 
L 799.710517 131.711044 
L 798.203468 131.075265 
L 794.341653 129.921434 
L 794.482951 129.191444 
L 794.365206 127.260537 
L 792.599131 123.587107 
L 791.186275 121.420726 
L 787.583485 116.640553 
L 786.241269 115.298337 
L 786.09997 113.438069 
L 785.534832 110.706532 
L 784.899053 107.480513 
L 784.73422 105.973446 
L 784.357448 101.876158 
L 783.768757 98.532376 
L 782.99168 96.742766 
L 783.109425 91.114876 
L 783.768757 89.089775 
L 783.180065 86.334703 
L 784.428088 84.497988 
L 785.534832 82.308036 
L 786.123523 76.892102 
L 787.442187 74.41959 
L 787.418652 72.912541 
L 788.47829 70.392924 
L 788.431202 68.132368 
L 790.785969 68.673955 
L 793.800067 67.473037 
L 795.660334 66.201443 
L 796.719972 64.458939 
L 797.308664 62.95189 
L 798.72152 61.609655 
L 801.924004 62.198347 
L 810.495352 62.551548 
L 812.567558 63.328625 
L 815.581638 63.964422 
L 818.05415 66.460469 
L 820.644407 68.462034 
L 822.151456 69.262646 
L 824.694608 70.44003 
L 826.154552 71.217107 
L 830.652165 74.560871 
L 831.970828 76.256305 
L 833.218851 78.09302 
L 834.984926 79.600069 
L 836.821641 80.447787 
L 838.32869 81.036478 
L 840.424431 83.391245 
L 842.873408 83.979936 
L 845.204604 87.135315 
L 844.498167 88.100778 
L 840.612816 86.075677 
L 838.517076 85.816651 
L 840.754097 88.689469 
L 846.852933 89.961027 
L 848.359982 90.879385 
L 847.441625 92.81031 
L 845.581375 93.893519 
L 846.994249 94.811876 
L 849.042885 97.449203 
L 851.774422 98.697226 
L 850.879599 101.09908 
L 851.468291 102.606147 
L 850.173162 102.818068 
L 848.218702 102.229376 
L 847.912607 103.971898 
L 849.702216 106.726989 
L 847.677116 108.116292 
L 845.581375 108.704984 
L 845.652015 110.541699 
L 842.567277 112.896465 
L 841.060228 113.814822 
L 839.129302 112.260686 
L 836.280055 110.000112 
L 834.349129 109.929454 
L 832.677265 112.190046 
L 830.88762 112.213581 
L 829.09801 114.615452 
L 830.628594 116.357975 
L 830.369568 118.218242 
L 833.642692 119.1366 
L 834.066569 120.21979 
L 834.207849 122.645197 
L 834.043034 124.83513 
L 833.831078 125.77704 
L 829.380571 125.494462 
L 827.920627 128.861778 
L 828.509319 131.452036 
L 828.980265 132.841339 
L 826.131017 132.252648 
L 824.200092 134.7958 
L 820.550197 137.268294 
L 817.91287 138.987281 
" clip-path="url(#pcc3ae29967)" style="fill: none; stroke: #1f77b4; stroke-width: 1.5; stroke-linecap: square"/>
   </g>
  </g>
  <g id="axes_9">
   <g id="line2d_9">
    <path d="M 895.762815 117.030808 
L 894.772447 115.362109 
L 893.78209 116.013311 
L 892.751024 114.995815 
L 892.086263 115.674146 
L 890.539669 114.792314 
L 887.948441 113.625584 
L 886.605349 113.394954 
L 885.465758 111.821232 
L 883.145857 112.282492 
L 880.907374 110.92583 
L 879.59141 109.677704 
L 877.610685 107.534176 
L 875.779184 105.526312 
L 874.585325 102.975792 
L 873.7849 100.68303 
L 874.734559 98.59378 
L 875.521425 97.250678 
L 876.091221 95.771922 
L 878.207609 92.529501 
L 879.550712 91.593401 
L 881.965568 89.789039 
L 883.55286 87.821883 
L 884.285458 87.129993 
L 885.587852 86.153195 
L 886.605349 85.488424 
L 887.948441 84.484487 
L 890.98737 85.149258 
L 893.565019 86.682293 
L 895.762815 87.469159 
L 897.051639 88.473075 
L 899.168039 89.219243 
L 901.433651 89.31422 
L 903.115919 88.880078 
L 904.798187 88.418818 
L 908.44761 88.880078 
L 912.232687 89.409175 
L 917.333727 89.219243 
L 919.667187 89.042871 
L 921.159523 88.880078 
L 923.031723 88.405238 
L 926.993172 87.862582 
L 929.109561 87.414881 
L 931.47016 86.845085 
L 933.152407 86.424524 
L 934.156344 85.827589 
L 935.160261 85.542681 
L 936.503363 85.488424 
L 939.203127 85.122119 
L 941.902871 85.149258 
L 942.567643 86.166754 
L 942.228477 87.835443 
L 941.23812 88.513773 
L 939.895017 88.880078 
L 937.873584 89.504151 
L 936.598339 89.897574 
L 935.526565 90.494509 
L 932.039955 91.932567 
L 930.466223 93.289228 
L 929.245215 94.985055 
L 928.254858 93.560556 
L 927.115267 93.628394 
L 926.11133 94.143932 
L 924.605435 94.985055 
L 923.425145 95.473454 
L 922.421208 96.002552 
L 920.956032 96.925072 
L 920.861056 98.254615 
L 919.748583 98.037544 
L 917.808567 99.136437 
L 917.062399 99.733371 
L 915.040986 100.805135 
L 912.978855 101.768364 
L 913.31802 104.142522 
L 911.69003 103.789787 
L 908.990266 103.803356 
L 908.311935 104.793724 
L 910.99812 106.150385 
L 911.065957 106.51668 
L 910.971001 107.819074 
L 912.042755 108.823 
L 909.668597 109.487772 
L 910.686093 110.735898 
L 910.794629 111.604161 
L 909.573621 110.830864 
L 908.44761 110.247499 
L 907.443673 109.718402 
L 906.263384 109.230003 
L 905.096654 108.728034 
L 903.563619 109.487772 
L 904.513278 111.536324 
L 904.459021 113.761248 
L 903.115919 113.639153 
L 902.641099 114.751616 
L 901.447231 115.416377 
L 900.511131 115.267143 
L 899.439367 114.263216 
L 897.797807 114.602382 
L 897.119476 116.325348 
L 896.427576 115.687715 
" clip-path="url(#pdf0cce1485)" style="fill: none; stroke: #1f77b4; stroke-width: 1.5; stroke-linecap: square"/>
   </g>
  </g>
  <g id="axes_10">
   <g id="line2d_10">
    <path d="M 1019.775875 140.46532 
L 1018.748524 138.939254 
L 1016.783586 138.939254 
L 1015.197677 137.473031 
L 1014.170325 136.355915 
L 1012.968406 134.156581 
L 1011.527143 132.485883 
L 1009.801579 131.633085 
L 1008.943804 130.131948 
L 1006.539994 128.226854 
L 1004.664822 128.346556 
L 1003.403059 127.583523 
L 1002.28095 129.03477 
L 999.882133 129.548445 
L 996.416074 127.00002 
L 995.338848 126.02752 
L 996.096889 123.768342 
L 993.837712 122.012871 
L 992.575964 121.514156 
L 991.314216 122.047785 
L 988.955304 123.409267 
L 986.601369 123.509016 
L 983.708814 124.007731 
L 981.77879 122.915544 
L 980.656682 121.294721 
L 979.255294 120.516727 
L 977.604549 120.018012 
L 975.544855 115.374978 
L 974.213295 112.357759 
L 974.761869 111.170815 
L 975.839095 109.594875 
L 978.382543 106.123824 
L 978.881258 104.099027 
L 979.634323 98.328908 
L 978.881258 94.044934 
L 978.382543 90.768374 
L 977.804032 89.017911 
L 976.58219 86.299909 
L 975.888969 85.038145 
L 975.390254 83.442252 
L 974.79179 82.015935 
L 973.664705 80.390119 
L 972.767009 79.492439 
L 969.246084 74.974084 
L 967.590347 71.822202 
L 967.336013 70.221347 
L 966.912102 68.460869 
L 964.962125 66.655524 
L 964.57812 65.498502 
L 964.932203 63.179496 
L 967.410817 63.16452 
L 970.418067 61.653399 
L 974.672104 61.448939 
L 977.928711 61.16966 
L 979.49966 61.049974 
L 981.948351 61.668375 
L 983.88836 62.16709 
L 988.566307 62.875257 
L 990.720744 64.032279 
L 994.341418 64.795327 
L 996.136795 66.156809 
L 997.333707 67.817538 
L 999.617815 69.149098 
L 1002.016647 70.839748 
L 1004.27581 71.602766 
L 1005.81186 72.86453 
L 1007.308004 75.123692 
L 1008.824086 77.148473 
L 1011.816376 79.62211 
L 1014.075568 81.118254 
L 1015.337301 81.666828 
L 1016.913257 82.744069 
L 1018.359512 83.611828 
L 1019.775875 85.985716 
L 1020.384293 88.209965 
L 1021.147341 89.970443 
L 1022.26945 92.36926 
L 1022.768164 93.990083 
L 1023.436456 95.251846 
L 1024.199474 97.511009 
L 1026.259168 98.772772 
L 1027.221684 99.570703 
L 1027.755313 101.296252 
L 1028.254028 104.532922 
L 1029.012084 107.310752 
L 1030.248887 109.071215 
L 1030.747602 110.911474 
L 1031.301168 113.090855 
L 1031.425847 116.347478 
L 1031.745032 120.187573 
L 1032.243746 122.910552 
L 1033.355871 128.610874 
L 1033.360863 132.864911 
L 1031.1017 133.483313 
L 1029.839937 133.982027 
L 1028.403636 135.827279 
L 1026.87757 136.974317 
L 1026.054709 139.672366 
L 1022.917773 139.467891 
L 1021.536353 139.732209 
" clip-path="url(#pbee248d412)" style="fill: none; stroke: #1f77b4; stroke-width: 1.5; stroke-linecap: square"/>
   </g>
  </g>
  <g id="axes_11">
   <g id="line2d_11">
    <path d="M 202.549154 255.675127 
L 200.652945 254.277921 
L 198.337558 251.463531 
L 194.52516 247.192057 
L 193.347517 246.693052 
L 191.770677 246.194048 
L 190.493228 245.774887 
L 188.816551 246.453525 
L 186.201774 245.8148 
L 187.080026 243.4595 
L 186.281632 242.202015 
L 184.105966 240.705003 
L 182.429304 239.86668 
L 181.251662 239.86668 
L 177.519105 237.710978 
L 174.904329 238.209982 
L 173.726671 238.708986 
L 172.489151 238.090226 
L 170.13385 236.732934 
L 169.19572 235.2958 
L 167.918271 233.219941 
L 166.341416 232.720937 
L 163.706675 231.223924 
L 161.990099 231.583208 
L 159.994083 230.5852 
L 157.139779 228.2299 
L 155.423203 227.730896 
L 153.287466 228.2299 
L 149.07587 225.156032 
L 147.439137 224.018304 
L 147.558893 221.842653 
L 151.650733 220.165991 
L 152.149737 218.988349 
L 152.648741 217.371565 
L 153.027989 213.639024 
L 152.349336 208.469348 
L 152.628777 206.293667 
L 153.64675 201.343555 
L 153.147746 195.754702 
L 154.704636 194.237741 
L 156.341369 192.101988 
L 159.515043 191.42335 
L 161.630816 190.245708 
L 162.369347 189.567069 
L 164.045994 189.726754 
L 166.421259 189.307578 
L 168.896315 188.309569 
L 170.992138 187.810565 
L 173.387352 181.04407 
L 174.924293 180.644873 
L 174.604923 181.822516 
L 175.103927 183.000158 
L 176.680782 183.818532 
L 180.632886 185.854477 
L 181.810544 186.533116 
L 182.489182 187.710758 
L 183.746683 189.806582 
L 185.343502 190.305586 
L 186.521144 190.80459 
L 187.818543 190.066074 
L 192.469265 190.205779 
L 194.984265 193.219783 
L 196.72079 192.960291 
L 201.391461 192.960291 
L 204.56512 192.301602 
L 205.942376 192.800606 
L 207.41944 192.301602 
L 207.978322 193.359489 
L 207.778708 195.535139 
L 208.876523 198.129967 
L 210.533221 198.98827 
L 211.032225 201.123992 
L 212.988312 203.279693 
L 213.38751 204.417437 
L 212.708871 206.094084 
L 212.030233 207.271726 
L 211.032225 209.806676 
L 211.531229 211.623028 
L 212.070162 212.800701 
L 212.968363 214.197906 
L 214.425447 215.155985 
L 213.028241 218.229853 
L 213.527245 222.022287 
L 214.026249 223.678984 
L 215.004309 227.211927 
L 216.22188 231.52333 
L 215.543211 232.221933 
L 214.205884 234.038315 
L 213.187926 235.555277 
L 214.525254 239.227955 
L 216.022266 241.403606 
L 213.147997 242.082259 
L 211.531229 243.259902 
L 211.032225 244.437559 
L 210.533221 245.615202 
L 207.838586 247.890659 
L 206.760751 250.685086 
L 205.583108 251.18409 
L 204.764734 252.960543 
L 203.227793 253.99848 
" clip-path="url(#p5cfea3f218)" style="fill: none; stroke: #ff7f0e; stroke-width: 1.5; stroke-linecap: square"/>
   </g>
  </g>
  <g id="axes_12">
   <g id="line2d_12">
    <path d="M 260.117776 248.124272 
L 258.448222 246.873677 
L 257.191387 246.248379 
L 253.846041 243.747189 
L 251.13851 244.597584 
L 250.113013 244.778926 
L 251.95139 242.459077 
L 249.681556 240.6207 
L 249.0375 237.043997 
L 248.218362 235.599561 
L 247.611822 234.555305 
L 245.667156 233.117128 
L 243.860036 232.466814 
L 243.41608 231.422577 
L 242.997123 230.378322 
L 242.484374 228.614978 
L 239.658035 226.238854 
L 238.232357 224.256652 
L 239.00772 222.962301 
L 240.902372 220.154701 
L 240.983663 218.485148 
L 241.533928 217.309585 
L 243.397322 214.520782 
L 244.998083 213.107603 
L 246.411242 212.482306 
L 247.924471 211.544359 
L 248.762368 209.455848 
L 249.54399 205.547738 
L 250.588245 204.978734 
L 252.257779 206.229329 
L 254.490097 204.290922 
L 254.971569 203.246647 
L 254.840262 202.202411 
L 254.55887 200.532876 
L 255.115394 199.488602 
L 255.740692 198.444366 
L 256.441022 198.175492 
L 257.485278 198.725757 
L 259.104796 198.100459 
L 261.449663 196.849864 
L 262.493899 196.349634 
L 266.001829 195.342914 
L 267.083601 193.010527 
L 267.621348 191.966291 
L 268.546795 191.222185 
L 269.872423 190.596888 
L 272.51118 191.109636 
L 274.806012 191.528575 
L 277.726141 191.947514 
L 283.960378 192.47278 
L 286.692926 191.847483 
L 290.132063 189.240002 
L 290.65733 188.195728 
L 291.701567 188.414605 
L 291.895407 190.709437 
L 291.382659 191.753673 
L 292.007956 193.123076 
L 293.139744 195.092779 
L 292.633254 197.750294 
L 292.007956 199.719997 
L 292.633254 201.352015 
L 295.897289 205.116281 
L 297.060372 206.904661 
L 299.017557 207.611251 
L 300.061793 208.105222 
L 303.794802 209.355817 
L 306.52735 209.981115 
L 307.0151 211.094163 
L 305.764505 213.532801 
L 304.995401 214.214392 
L 302.825598 213.732901 
L 301.387421 216.765579 
L 300.762124 218.885348 
L 300.193119 219.929603 
L 298.686131 222.06187 
L 299.511528 225.300908 
L 298.360964 227.3894 
L 297.89199 228.114747 
L 296.847754 228.740045 
L 295.221995 229.903089 
L 294.38408 231.366303 
L 293.546202 234.70539 
L 290.86991 235.618319 
L 289.506766 237.250337 
L 290.757361 239.62022 
L 291.351401 242.465336 
L 289.981998 243.121891 
L 288.156139 242.496593 
L 285.779978 243.096874 
L 283.716503 243.909772 
L 281.815612 244.560068 
L 279.558297 244.997784 
L 276.875745 245.623082 
L 273.530418 244.372486 
L 270.147555 245.598064 
L 269.716099 246.248379 
L 268.471743 246.873677 
L 267.002309 246.254638 
L 264.707458 246.661078 
L 262.831565 247.286376 
" clip-path="url(#p4586bb1b9f)" style="fill: none; stroke: #ff7f0e; stroke-width: 1.5; stroke-linecap: square"/>
   </g>
  </g>
  <g id="axes_13">
   <g id="line2d_13">
    <path d="M 361.607731 262.630588 
L 360.23273 261.906901 
L 359.581416 259.156898 
L 352.851111 250.97922 
L 345.976083 247.722627 
L 344.601082 247.795 
L 341.778706 248.446314 
L 337.436583 248.446314 
L 338.594486 246.564723 
L 339.245801 245.189722 
L 339.897115 243.814721 
L 340.620802 242.439719 
L 339.897115 239.327851 
L 339.173427 237.012065 
L 338.44974 235.419945 
L 337.726053 234.044943 
L 337.002366 231.801508 
L 335.554991 227.965975 
L 330.923398 222.104104 
L 328.969433 221.380417 
L 328.318119 219.933043 
L 330.416808 218.485668 
L 331.791809 217.761981 
L 333.38393 215.808017 
L 336.278679 212.261976 
L 334.469461 211.248796 
L 333.094459 210.235616 
L 332.443145 205.965888 
L 332.226026 204.446118 
L 333.311557 200.321137 
L 332.660242 197.498739 
L 332.081302 195.472423 
L 330.633927 194.748736 
L 333.239183 193.880303 
L 336.423425 192.432928 
L 338.44974 193.156616 
L 341.055019 193.880303 
L 343.732648 193.156616 
L 345.686612 191.275046 
L 345.035298 188.742141 
L 346.4103 188.090805 
L 347.20636 185.992094 
L 348.870832 182.735502 
L 350.535326 181.794717 
L 354.805076 182.011815 
L 356.903764 182.663151 
L 359.581416 182.156561 
L 361.101141 179.913148 
L 361.752477 178.538125 
L 362.403791 177.235497 
L 365.226167 175.064435 
L 365.877503 173.689412 
L 370.870919 174.196002 
L 371.522255 175.571025 
L 373.04198 177.814438 
L 377.890693 178.321028 
L 380.713091 177.669691 
L 382.522309 177.886833 
L 384.910468 178.682871 
L 386.213096 179.478909 
L 386.936784 180.853933 
L 386.285447 183.676331 
L 388.528904 190.406613 
L 391.06181 190.478964 
L 393.160476 189.827672 
L 396.344717 190.62371 
L 395.62103 192.722421 
L 394.897343 194.314497 
L 395.765777 195.906618 
L 396.272366 196.123715 
L 395.62103 197.498739 
L 394.173656 201.55137 
L 394.897343 203.722431 
L 392.726281 207.196165 
L 393.449969 209.222481 
L 394.173656 210.886952 
L 394.897343 212.261976 
L 395.62103 214.505388 
L 396.344717 217.906727 
L 398.515779 220.801476 
L 395.62103 222.104104 
L 389.107845 229.268603 
L 388.384158 230.643604 
L 387.660471 232.018628 
L 386.502589 232.959412 
L 384.403878 234.406787 
L 381.147286 238.169969 
L 377.52885 243.308131 
L 376.805163 244.827878 
L 375.357788 247.50553 
L 374.634101 248.880531 
L 372.680137 251.558183 
L 373.620921 253.656871 
L 373.403824 255.176619 
L 369.857783 255.827933 
L 367.397229 256.841091 
L 366.963034 259.301623 
L 367.180132 260.676624 
L 365.081421 261.32796 
L 363.70642 261.979274 
" clip-path="url(#p1e6959f287)" style="fill: none; stroke: #ff7f0e; stroke-width: 1.5; stroke-linecap: square"/>
   </g>
  </g>
  <g id="axes_14">
   <g id="line2d_14">
    <path d="M 456.020242 249.655256 
L 452.400097 248.931227 
L 448.779953 248.207198 
L 446.245852 247.845184 
L 445.159809 247.483169 
L 443.711751 246.75914 
L 442.263693 246.035112 
L 440.453621 245.673097 
L 435.747433 245.311083 
L 433.575347 244.587054 
L 431.40326 245.311083 
L 429.955202 246.035112 
L 427.783116 246.75914 
L 424.887 247.483169 
L 421.990885 246.75914 
L 420.542827 244.587054 
L 419.818798 242.414967 
L 420.904841 242.052953 
L 421.990885 241.690938 
L 423.076928 240.966909 
L 425.611029 238.794823 
L 425.973044 236.260722 
L 426.335058 231.554534 
L 425.611029 229.382447 
L 424.887 227.210361 
L 424.524986 226.124318 
L 424.162971 225.038274 
L 423.438943 223.952231 
L 427.059087 219.970072 
L 427.421101 218.884029 
L 427.783116 217.797986 
L 431.40326 217.073957 
L 432.127289 214.90187 
L 432.851318 213.453812 
L 433.575347 212.005755 
L 434.299376 209.109639 
L 435.023404 207.661581 
L 435.747433 205.12748 
L 435.023404 202.593379 
L 434.66139 201.507336 
L 434.299376 200.421293 
L 435.023404 199.335249 
L 435.747433 198.973235 
L 439.367578 194.991076 
L 440.091607 193.905033 
L 440.453621 192.81899 
L 441.539664 193.181004 
L 443.349736 193.543018 
L 445.159809 193.905033 
L 447.69391 194.629062 
L 450.228011 193.905033 
L 451.314054 193.543018 
L 453.848155 193.181004 
L 455.296213 192.456975 
L 456.744271 193.181004 
L 458.554343 193.543018 
L 463.984559 193.905033 
L 465.432617 193.181004 
L 466.880675 192.456975 
L 467.966718 192.094961 
L 469.052761 191.732946 
L 470.500819 191.008917 
L 472.672906 189.56086 
L 473.396935 188.112802 
L 474.844992 187.388773 
L 476.655064 186.664744 
L 478.465137 187.388773 
L 478.827151 193.543018 
L 479.189166 195.353091 
L 479.913194 196.439134 
L 480.637223 197.525177 
L 481.361252 199.697264 
L 482.085281 201.145322 
L 482.80931 202.231365 
L 484.257368 204.041437 
L 484.619382 206.575538 
L 484.981396 208.38561 
L 485.705425 210.557697 
L 486.429454 212.729783 
L 486.791469 215.263885 
L 487.153483 218.522014 
L 487.877512 224.314245 
L 487.153483 230.106476 
L 487.515498 235.536693 
L 487.877512 238.070794 
L 488.601541 240.604895 
L 487.877512 243.138996 
L 484.619382 242.776982 
L 482.085281 242.414967 
L 479.913194 243.863025 
L 478.465137 244.587054 
L 477.379093 244.949068 
L 475.569021 245.311083 
L 474.482978 246.035112 
L 473.396935 246.75914 
L 472.310891 247.121155 
L 470.500819 247.483169 
L 468.328732 248.207198 
L 466.156646 248.931227 
L 460.726429 249.293241 
" clip-path="url(#pd6bb86ed88)" style="fill: none; stroke: #ff7f0e; stroke-width: 1.5; stroke-linecap: square"/>
   </g>
  </g>
  <g id="axes_15">
   <g id="line2d_15">
    <path d="M 532.495243 257.237169 
L 531.803612 253.536938 
L 531.111981 251.88395 
L 530.420349 250.168696 
L 529.728718 248.605603 
L 531.111981 246.620624 
L 530.420349 245.327277 
L 529.728718 244.03393 
L 526.408896 240.084721 
L 523.504036 239.372342 
L 521.636623 237.871492 
L 521.034907 235.402364 
L 520.433192 229.267597 
L 520.474688 227.759846 
L 521.304654 225.989272 
L 520.702938 224.695924 
L 520.04588 222.766267 
L 520.737511 221.417578 
L 520.04588 218.298335 
L 517.970986 212.848277 
L 517.279354 208.822977 
L 515.896092 203.310696 
L 515.204461 196.871568 
L 514.512829 194.983428 
L 512.686912 192.472803 
L 510.881765 188.592761 
L 510.791849 186.261967 
L 510.71578 183.585357 
L 510.612018 180.908748 
L 511.213755 179.774462 
L 512.57627 179.082831 
L 514.492081 179.753693 
L 516.47706 179.193473 
L 518.462038 179.573904 
L 521.138648 179.373304 
L 524.50691 179.394073 
L 525.551259 181.821706 
L 530.551761 183.101207 
L 535.427753 182.706972 
L 540.601163 185.307513 
L 543.146383 185.999144 
L 546.106543 186.690775 
L 548.084598 187.382406 
L 549.945088 186.690775 
L 552.441909 185.999144 
L 554.627445 186.898256 
L 556.702339 190.190428 
L 558.548983 194.070469 
L 560.520158 195.350013 
L 562.595052 198.116538 
L 564.6561 199.485955 
L 566.896978 199.31997 
L 568.460072 198.614492 
L 569.919404 200.523401 
L 571.212751 199.845616 
L 571.918228 201.111271 
L 572.60986 202.404618 
L 573.301491 203.698008 
L 572.60986 204.991355 
L 574.221372 206.748083 
L 574.961423 207.716384 
L 576.808067 208.871397 
L 578.101414 209.514609 
L 579.394761 209.383197 
L 578.834541 211.146848 
L 576.068016 214.736417 
L 575.376385 216.029785 
L 576.960205 217.814184 
L 577.229952 218.727143 
L 574.663984 219.909826 
L 572.125709 220.58071 
L 569.096361 222.019293 
L 567.132151 225.366808 
L 566.737917 227.15813 
L 566.813986 229.143109 
L 565.520639 229.744825 
L 564.061307 230.512525 
L 560.865973 232.338442 
L 559.565703 233.030073 
L 556.010708 236.993128 
L 555.319077 239.11642 
L 557.352475 241.329649 
L 558.777233 243.197062 
L 560.160496 247.007936 
L 561.654401 248.937594 
L 563.584079 249.594652 
L 561.350082 251.704119 
L 559.206041 252.39575 
L 557.615298 248.467289 
L 554.821123 246.364724 
L 551.445958 245.202789 
L 550.360092 246.8627 
L 548.375114 245.479437 
L 546.452358 246.738211 
L 544.557295 247.941643 
L 543.803399 250.078781 
L 541.79077 251.399799 
L 540.525073 253.779013 
L 538.512444 254.470644 
L 534.480222 255.853907 
" clip-path="url(#p7a89ecb348)" style="fill: none; stroke: #ff7f0e; stroke-width: 1.5; stroke-linecap: square"/>
   </g>
  </g>
  <g id="axes_16">
   <g id="line2d_16">
    <path d="M 617.492824 253.075609 
L 616.93808 251.982762 
L 614.818952 251.411376 
L 612.55005 249.747143 
L 610.902459 250.856632 
L 609.338076 250.301887 
L 607.707126 250.856632 
L 606.076193 250.301887 
L 603.890499 251.411376 
L 602.664502 251.96612 
L 601.959983 249.469771 
L 601.405239 247.711224 
L 601.959983 246.618377 
L 603.069472 244.294014 
L 603.94596 243.090211 
L 604.733705 242.230364 
L 604.17896 240.849039 
L 604.733705 239.489926 
L 605.843193 236.821607 
L 606.397938 234.053421 
L 606.952682 232.10628 
L 607.507426 230.475331 
L 608.062171 228.65577 
L 607.507426 226.830656 
L 608.062171 225.737809 
L 607.507426 224.644962 
L 608.062171 223.552115 
L 609.277062 222.009927 
L 610.835892 220.811677 
L 613.05487 218.054597 
L 614.164358 216.296067 
L 615.273847 213.649926 
L 615.828591 212.490529 
L 616.383335 209.799999 
L 616.926991 208.707169 
L 616.411066 207.614305 
L 617.404063 205.456342 
L 617.986555 203.209634 
L 618.52464 202.593876 
L 619.711801 200.563526 
L 620.266546 199.376365 
L 621.376034 197.728757 
L 621.930779 196.635927 
L 622.485523 194.361455 
L 623.040267 192.786 
L 624.149756 189.335473 
L 624.7045 186.240024 
L 625.259245 183.860149 
L 626.4353 183.244391 
L 627.772236 183.438538 
L 628.865083 183.455197 
L 629.924646 186.733721 
L 633.269754 187.37169 
L 634.362601 186.833605 
L 635.455448 186.717096 
L 644.869443 187.255182 
L 646.517051 187.793301 
L 649.274114 188.331387 
L 654.804932 188.869507 
L 656.280537 188.725268 
L 658.987692 189.280012 
L 661.506253 189.834756 
L 663.214841 189.280012 
L 665.75558 190.450514 
L 666.310324 191.543378 
L 666.865068 192.636208 
L 668.00784 194.272711 
L 670.187982 194.821902 
L 669.660968 195.914766 
L 669.122882 199.226574 
L 668.584762 200.319438 
L 669.011926 204.185989 
L 668.618046 211.935785 
L 668.978643 213.583359 
L 669.516763 214.676223 
L 669.222732 216.323798 
L 667.730468 217.261317 
L 663.420094 221.01693 
L 660.585359 223.296938 
L 659.509153 224.927887 
L 655.881138 228.001159 
L 652.841116 231.595908 
L 651.587422 233.40438 
L 649.917636 235.628893 
L 648.292239 237.809051 
L 647.504478 239.151523 
L 646.106546 239.994745 
L 645.013682 240.532848 
L 642.811363 241.070934 
L 642.273243 243.273269 
L 640.126386 242.535467 
L 637.718814 243.090211 
L 636.087848 243.644955 
L 633.025665 245.980424 
L 631.816326 247.528166 
L 630.640271 248.08291 
L 629.075888 248.637654 
L 626.773703 250.301887 
L 623.528445 248.637654 
L 621.359393 249.747143 
" clip-path="url(#p83de4e65db)" style="fill: none; stroke: #ff7f0e; stroke-width: 1.5; stroke-linecap: square"/>
   </g>
   <g id="text_2">
    <!-- MCF7 -->
    <g transform="translate(608.07161 163.242353) scale(0.2 -0.2)">
     <defs>
      <path id="DejaVuSans-37" d="M 525 4666 
L 3525 4666 
L 3525 4397 
L 1831 0 
L 1172 0 
L 2766 4134 
L 525 4134 
L 525 4666 
z
" transform="scale(0.015625)"/>
     </defs>
     <use xlink:href="#DejaVuSans-4d"/>
     <use xlink:href="#DejaVuSans-43" x="86.279297"/>
     <use xlink:href="#DejaVuSans-46" x="156.103516"/>
     <use xlink:href="#DejaVuSans-37" x="213.623047"/>
    </g>
   </g>
  </g>
  <g id="axes_17">
   <g id="line2d_17">
    <path d="M 727.743489 252.146037 
L 725.966233 250.898843 
L 724.812575 250.275246 
L 724.001907 248.965689 
L 723.37831 246.034794 
L 721.975216 242.168485 
L 719.387293 240.297694 
L 716.549915 240.890119 
L 714.149082 241.420161 
L 713.400758 240.734219 
L 714.024355 239.362298 
L 714.647952 237.990377 
L 714.024355 236.431385 
L 713.400758 235.277746 
L 712.278291 233.562854 
L 711.062269 232.970429 
L 708.910851 232.066206 
L 707.850748 230.382505 
L 704.483328 229.883616 
L 700.211685 230.226606 
L 699.681623 229.072948 
L 700.835282 228.449351 
L 702.799608 226.142034 
L 703.423205 224.645405 
L 699.432188 221.589784 
L 695.628243 222.836978 
L 693.944523 222.213381 
L 692.822056 221.620956 
L 692.198459 218.471799 
L 694.038078 217.224604 
L 695.940041 217.848201 
L 698.029095 216.601007 
L 700.30522 214.605489 
L 700.928817 213.26476 
L 702.051284 207.995376 
L 702.643709 203.661369 
L 703.547932 202.133549 
L 704.608036 200.44983 
L 706.104665 199.576817 
L 707.351859 198.95322 
L 708.411981 196.022306 
L 709.035578 194.868667 
L 710.532207 193.902061 
L 711.24934 191.937753 
L 712.402999 192.280724 
L 714.180254 192.904321 
L 717.578865 192.280724 
L 722.692349 191.095875 
L 728.117632 190.03579 
L 728.772439 188.757386 
L 729.302481 187.603746 
L 730.892646 186.637179 
L 732.233395 184.79756 
L 733.387034 184.173963 
L 735.663178 185.857682 
L 735.382552 188.383243 
L 736.34912 190.908803 
L 738.001667 191.937753 
L 741.026098 192.467796 
L 743.426969 192.997876 
L 745.204205 193.527918 
L 745.827802 191.844199 
L 747.074996 189.100395 
L 749.413485 187.915545 
L 751.440175 188.788596 
L 750.816578 191.657127 
L 752.437915 198.516694 
L 756.397779 199.109119 
L 758.798612 199.639161 
L 760.981202 200.574557 
L 759.235138 205.68806 
L 756.616023 209.554369 
L 755.680627 211.113361 
L 753.685109 211.861685 
L 748.945787 217.723474 
L 750.972477 218.471799 
L 752.063772 219.469558 
L 749.912355 221.589784 
L 748.571644 221.839219 
L 746.887925 221.153258 
L 745.827802 223.460575 
L 745.204205 224.614233 
L 743.957011 226.391488 
L 743.333414 226.173225 
L 742.210947 224.707769 
L 740.215429 226.110862 
L 739.529488 227.139793 
L 736.006149 226.57856 
L 733.979459 229.44711 
L 731.921596 230.943739 
L 730.237877 232.81453 
L 729.61428 234.934756 
L 728.990683 237.429144 
L 728.367086 239.112863 
L 730.050805 241.981413 
L 730.861474 243.571578 
L 732.108668 246.783099 
L 730.861474 249.589286 
L 730.237877 251.085915 
L 729.520725 251.615976 
" clip-path="url(#pf44a787135)" style="fill: none; stroke: #ff7f0e; stroke-width: 1.5; stroke-linecap: square"/>
   </g>
  </g>
  <g id="axes_18">
   <g id="line2d_18">
    <path d="M 847.918671 240.330567 
L 846.939319 239.736778 
L 845.959944 238.37185 
L 844.980591 236.621336 
L 842.489768 233.00464 
L 841.614528 232.619065 
L 840.20717 231.223285 
L 839.092852 230.305615 
L 836.999183 227.868777 
L 835.80005 227.05522 
L 834.384996 226.025729 
L 831.736097 225.304706 
L 829.534455 224.521989 
L 826.900971 224.136414 
L 824.521979 223.750839 
L 822.451443 224.155688 
L 818.106004 224.645376 
L 817.230741 224.680076 
L 814.427626 224.853578 
L 812.630845 224.521989 
L 810.595009 224.907564 
L 809.488399 224.521989 
L 808.250706 224.136414 
L 806.276564 224.826596 
L 805.505414 223.195609 
L 803.481144 221.437388 
L 800.477511 221.036387 
L 799.609967 219.783268 
L 798.90437 218.692095 
L 796.637187 216.752653 
L 794.208069 214.381369 
L 792.496114 213.05499 
L 790.606787 212.815935 
L 788.995086 213.656486 
L 788.54011 217.088102 
L 787.981022 218.179274 
L 787.213731 217.026408 
L 786.234367 215.661469 
L 786.612235 214.782359 
L 786.99781 213.702753 
L 786.612235 212.337826 
L 786.199667 211.385443 
L 784.79232 209.592533 
L 782.99168 206.935915 
L 783.866942 206.446227 
L 784.742194 206.785535 
L 786.164967 207.556686 
L 788.035008 206.39996 
L 789.665995 205.62881 
L 791.416497 205.065862 
L 793.359799 203.893722 
L 795.77735 203.018459 
L 797.423763 202.158635 
L 798.68459 201.387484 
L 799.945416 200.616334 
L 800.820679 200.230759 
L 802.081505 198.642192 
L 802.956768 198.453264 
L 803.832019 198.942928 
L 804.70727 198.715452 
L 806.045216 198.302884 
L 807.818864 196.96495 
L 809.445991 195.989433 
L 811.300606 196.772162 
L 812.9393 198.025281 
L 813.814552 198.514945 
L 815.460965 199.004633 
L 821.348704 200.616334 
L 822.223943 201.001909 
L 824.641506 202.929785 
L 825.940892 204.433537 
L 826.90869 206.596607 
L 828.208076 208.281569 
L 828.913685 209.372753 
L 829.403349 210.247992 
L 829.796643 211.894405 
L 830.567793 213.155231 
L 831.724518 214.801644 
L 832.904377 215.630628 
L 833.77964 215.140952 
L 835.42603 215.113959 
L 835.244821 217.917086 
L 836.01983 219.509513 
L 836.89507 219.895088 
L 838.155908 220.666238 
L 839.031171 221.051813 
L 840.592745 225.246872 
L 841.363895 228.165678 
L 841.74947 229.827505 
L 842.917774 230.702757 
L 843.638798 231.809355 
L 845.107838 233.66397 
L 845.929114 235.256397 
L 846.804354 236.474816 
L 848.065192 237.245966 
L 848.940455 237.631541 
L 849.815694 238.017116 
L 851.774422 238.475951 
L 850.054749 238.965628 
L 848.898024 239.736778 
" clip-path="url(#p7b44d2c2b2)" style="fill: none; stroke: #ff7f0e; stroke-width: 1.5; stroke-linecap: square"/>
   </g>
  </g>
  <g id="axes_19">
   <g id="line2d_19">
    <path d="M 908.248069 253.484749 
L 906.812104 251.474397 
L 904.227366 250.038432 
L 902.073418 251.043608 
L 898.483505 250.612818 
L 897.909119 248.171677 
L 896.18596 247.740887 
L 894.893591 250.756415 
L 892.739643 248.315273 
L 891.590871 247.310098 
L 889.580519 246.879308 
L 888.71894 247.740887 
L 886.995782 244.868956 
L 886.852185 241.566236 
L 886.421395 238.837902 
L 884.55464 237.25834 
L 882.975078 236.253164 
L 882.831482 234.099216 
L 880.677534 232.232461 
L 877.08762 226.488599 
L 874.359286 227.062985 
L 874.646479 225.052634 
L 876.082444 223.903862 
L 875.364462 222.3243 
L 873.7849 218.447193 
L 874.359286 216.867631 
L 874.072093 213.564911 
L 875.651655 211.985349 
L 877.805603 210.405787 
L 877.231217 205.667101 
L 878.092796 203.800346 
L 879.672358 201.072012 
L 881.25192 200.066836 
L 882.400692 197.338502 
L 883.262271 196.046133 
L 885.41622 197.051309 
L 887.570168 197.769291 
L 893.026836 198.056484 
L 897.909119 195.184554 
L 900.35026 193.604992 
L 904.227366 191.451044 
L 906.381314 188.004727 
L 908.822456 185.132796 
L 912.125176 185.707182 
L 916.289476 182.835251 
L 918.443424 183.840427 
L 919.161406 187.717534 
L 922.033337 190.589464 
L 925.479654 194.322974 
L 928.207989 195.040957 
L 926.91562 192.02543 
L 928.495182 194.466571 
L 930.074744 195.471747 
L 933.95185 193.748588 
L 933.808254 195.75894 
L 931.510709 196.046133 
L 930.074744 199.49245 
L 932.372288 202.364381 
L 936.967377 200.066836 
L 938.259746 200.066836 
L 938.11615 201.215608 
L 935.818605 205.092715 
L 935.818605 208.108242 
L 937.68536 209.257015 
L 938.690536 210.405787 
L 939.264922 212.559735 
L 939.552115 214.713683 
L 939.552115 216.436842 
L 937.541764 221.89351 
L 938.11615 223.473072 
L 939.264922 225.339827 
L 940.413694 227.350179 
L 941.562467 229.934916 
L 942.567643 231.514478 
L 941.562467 231.658075 
L 939.264922 231.801671 
L 939.264922 232.806847 
L 933.664657 233.812023 
L 932.372288 235.104392 
L 933.233867 237.976323 
L 934.669833 236.82755 
L 936.967377 236.109568 
L 936.967377 237.689129 
L 933.95185 239.843078 
L 931.797902 240.848253 
L 929.643954 241.997026 
L 926.91562 244.007377 
L 923.038513 243.720184 
L 919.735793 244.29457 
L 919.01781 246.448518 
L 920.310179 247.453694 
L 922.176934 248.171677 
L 923.18211 247.166501 
L 922.176934 250.038432 
L 918.58702 251.187204 
L 913.417545 252.19238 
L 915.71509 251.187204 
L 912.843159 247.740887 
L 910.258421 249.176853 
L 907.530087 250.756415 
" clip-path="url(#p90c79574fd)" style="fill: none; stroke: #ff7f0e; stroke-width: 1.5; stroke-linecap: square"/>
   </g>
  </g>
  <g id="axes_20">
   <g id="line2d_20">
    <path d="M 998.557659 262.630588 
L 996.498518 260.166485 
L 992.380236 255.643241 
L 991.851731 254.551899 
L 991.446769 249.342275 
L 991.007475 246.946793 
L 989.634715 245.100428 
L 988.948334 243.919853 
L 987.959945 241.737169 
L 986.889193 240.927245 
L 984.41822 237.509064 
L 981.061831 236.898196 
L 979.860665 236.383411 
L 977.966249 234.02911 
L 977.279869 232.759323 
L 976.113014 230.576618 
L 972.173197 230.068703 
L 966.963573 229.663741 
L 965.021126 228.997951 
L 963.552262 228.023282 
L 963.003166 226.389715 
L 963.668956 221.331074 
L 965.597683 220.075007 
L 966.689025 219.388627 
L 967.780367 218.702246 
L 969.90128 217.157891 
L 970.649432 215.723358 
L 969.825788 213.993687 
L 969.015843 209.751862 
L 966.222291 209.01743 
L 965.611403 207.926067 
L 964.238642 205.153105 
L 964.84266 201.6251 
L 966.215421 199.565959 
L 969.125667 199.483597 
L 971.754515 200.822047 
L 975.193266 200.883798 
L 980.128343 198.797216 
L 981.974708 198.907019 
L 983.471012 198.097095 
L 986.065529 196.738075 
L 988.948334 194.54852 
L 990.554462 192.386406 
L 991.261433 190.993075 
L 991.693856 187.924933 
L 990.321095 184.554824 
L 991.007475 182.227985 
L 992.009585 180.635577 
L 996.937812 180.704241 
L 998.495887 181.01312 
L 999.93042 180.264947 
L 1000.678572 178.830394 
L 1001.30318 177.739073 
L 1001.989561 176.462415 
L 1003.760434 173.689412 
L 1005.352841 174.018903 
L 1007.645328 174.938629 
L 1012.896155 178.892186 
L 1013.960036 180.566956 
L 1015.586754 181.637708 
L 1016.952644 182.324088 
L 1017.776309 183.003598 
L 1022.114238 185.75599 
L 1024.070405 186.44237 
L 1026.205079 188.007338 
L 1028.552488 188.981986 
L 1030.735173 189.874272 
L 1032.959039 190.560652 
L 1034.935817 191.988335 
L 1033.961169 198.399104 
L 1033.357151 200.856357 
L 1031.654899 202.078135 
L 1031.833365 204.617708 
L 1032.142244 206.395452 
L 1031.503916 207.486773 
L 1030.817535 208.749731 
L 1032.547227 211.508994 
L 1033.171815 214.879103 
L 1033.535616 216.670566 
L 1032.190296 218.434548 
L 1030.95482 219.251342 
L 1028.758394 223.074486 
L 1028.072014 227.062354 
L 1028.737783 232.409263 
L 1028.374023 235.559746 
L 1027.763134 238.229775 
L 1026.012873 240.487952 
L 1025.099975 240.892914 
L 1021.482779 241.352798 
L 1019.821709 242.039178 
L 1018.394068 242.725558 
L 1012.566663 247.935183 
L 1010.033918 250.962122 
L 1007.151154 253.350734 
L 1006.162765 256.398264 
L 1005.387152 257.860236 
L 1004.295789 258.512306 
L 1003.204467 259.198687 
L 1001.550267 260.32436 
L 1000.740344 261.820664 
" clip-path="url(#p7dfa0b737c)" style="fill: none; stroke: #ff7f0e; stroke-width: 1.5; stroke-linecap: square"/>
   </g>
  </g>
  <g id="axes_21">
   <g id="line2d_21">
    <path d="M 158.929573 376.158566 
L 157.930404 372.781372 
L 158.689767 371.402531 
L 159.429157 369.384206 
L 159.948729 365.147727 
L 159.229326 362.469963 
L 159.429157 360.61151 
L 160.088612 357.514082 
L 162.426662 353.637319 
L 160.927909 350.839645 
L 159.828818 349.081099 
L 158.74973 345.50409 
L 157.930404 343.44579 
L 157.43082 340.748039 
L 155.612327 340.008664 
L 153.933731 339.489092 
L 155.012835 336.611483 
L 155.892108 333.733873 
L 153.913744 332.195161 
L 151.215992 332.914563 
L 150.036981 332.694745 
L 151.415823 332.195161 
L 153.514082 330.616473 
L 151.455798 327.698903 
L 149.817163 327.079424 
L 147.439137 325.700567 
L 147.838798 325.200982 
L 149.697252 323.442436 
L 151.43581 322.063579 
L 152.454966 321.224282 
L 154.832977 321.304232 
L 157.490768 320.205141 
L 159.589027 319.865427 
L 161.507429 319.705557 
L 163.925414 317.78714 
L 166.523258 316.108545 
L 169.141074 315.209299 
L 171.359229 313.151015 
L 171.359229 312.211794 
L 172.738086 313.03112 
L 176.115265 310.713042 
L 177.993706 308.634785 
L 180.79138 306.836264 
L 181.750573 305.877071 
L 183.409196 303.179304 
L 186.106963 298.223438 
L 191.722284 298.723022 
L 195.11945 297.504036 
L 196.398384 294.986143 
L 196.658178 294.96614 
L 195.399216 297.22427 
L 196.658178 298.723022 
L 198.396721 299.262582 
L 199.036203 302.859594 
L 199.895473 304.258423 
L 200.395057 307.315876 
L 200.614876 309.99364 
L 201.394226 312.371665 
L 202.473314 316.288388 
L 204.311811 317.6273 
L 204.891315 321.004463 
L 206.110301 322.92288 
L 208.887988 326.260098 
L 209.387572 327.638956 
L 211.166091 329.977006 
L 214.083675 333.194329 
L 214.882998 334.273433 
L 215.382582 335.65229 
L 216.22188 337.031132 
L 215.382582 339.129391 
L 213.88383 342.486597 
L 212.40505 344.165193 
L 212.884661 347.622322 
L 211.645702 348.181854 
L 208.768093 346.063622 
L 206.390067 345.184349 
L 203.872174 344.684764 
L 201.873838 344.664777 
L 199.255991 343.186012 
L 197.877164 345.70392 
L 196.498307 346.583178 
L 191.402543 345.50409 
L 188.744751 343.345883 
L 185.587376 344.18518 
L 179.3126 344.684764 
L 177.114433 344.884595 
L 174.876306 345.184349 
L 172.058644 346.043634 
L 168.541567 350.060295 
L 166.962879 351.638983 
L 165.923751 353.777202 
L 165.344231 356.255135 
L 164.464958 358.133577 
L 163.925414 359.852132 
L 163.206012 361.890444 
L 162.426662 364.368377 
L 161.927078 366.146895 
L 161.067792 368.524921 
L 160.428325 371.822179 
L 159.808846 375.279293 
" clip-path="url(#p632674050b)" style="fill: none; stroke: #2ca02c; stroke-width: 1.5; stroke-linecap: square"/>
   </g>
  </g>
  <g id="axes_22">
   <g id="line2d_22">
    <path d="M 247.8485 360.096116 
L 246.525758 359.319264 
L 243.817275 359.424243 
L 240.520908 359.025328 
L 239.366131 358.75237 
L 238.715262 357.681582 
L 238.232357 356.778759 
L 239.030201 353.755337 
L 239.870039 351.781725 
L 241.549715 348.317393 
L 242.599513 346.868667 
L 244.867073 344.181188 
L 246.420778 342.207564 
L 246.987672 341.220751 
L 248.310414 340.359923 
L 249.213237 339.940004 
L 250.284026 340.359923 
L 252.824543 339.940004 
L 256.162892 339.100166 
L 257.443653 338.680247 
L 258.346476 338.260327 
L 259.669218 337.777423 
L 260.949979 336.916582 
L 263.154554 335.551845 
L 264.057377 335.068953 
L 264.540281 334.166117 
L 265.023186 333.641218 
L 265.947013 333.179318 
L 266.912821 331.961542 
L 270.25117 329.442028 
L 271.783884 328.60219 
L 273.316599 327.762352 
L 274.639329 326.922514 
L 275.941093 326.502595 
L 277.914692 324.990897 
L 281.022103 322.303405 
L 283.373639 320.371788 
L 285.074332 318.251176 
L 285.93516 315.290752 
L 286.418052 313.968023 
L 286.900969 311.38551 
L 287.320888 311.028589 
L 287.740807 312.057371 
L 288.538663 313.065186 
L 290.512262 314.324944 
L 291.415098 313.905025 
L 292.695846 314.324944 
L 294.501493 315.1228 
L 296.643095 315.584701 
L 297.818863 316.5715 
L 299.07862 317.264377 
L 305.230444 316.5715 
L 306.217244 317.768285 
L 306.637163 318.923062 
L 307.0151 320.245791 
L 302.332993 320.728709 
L 301.430157 321.211626 
L 300.527346 321.694517 
L 300.044429 323.017272 
L 297.944834 323.85711 
L 297.398944 325.242838 
L 296.496108 325.725755 
L 295.593298 326.208647 
L 293.892631 327.069475 
L 292.695846 328.182271 
L 291.625058 328.60219 
L 290.722222 329.022109 
L 289.252505 330.029925 
L 285.893153 334.229115 
L 284.360464 335.341885 
L 282.701779 336.580651 
L 281.588983 337.273515 
L 279.930324 338.092362 
L 278.124651 339.058171 
L 277.620769 339.562079 
L 276.402994 340.359923 
L 274.975259 342.207564 
L 272.812691 342.690468 
L 271.909855 343.173385 
L 271.007044 343.656289 
L 269.684289 344.139194 
L 268.781466 344.559113 
L 266.198967 346.658708 
L 265.29613 347.078627 
L 264.225342 348.170419 
L 263.385504 349.493161 
L 262.545666 351.193828 
L 261.663833 351.739731 
L 261.285909 353.041482 
L 260.86599 354.09128 
L 261.285909 355.267048 
L 258.913369 355.749952 
L 257.674603 356.568799 
L 257.10771 357.555611 
L 256.12091 358.122492 
L 254.672184 359.676197 
L 253.139483 360.096116 
L 251.543783 359.676197 
L 250.074066 359.256278 
L 249.171243 359.676197 
" clip-path="url(#p86f13cfba1)" style="fill: none; stroke: #2ca02c; stroke-width: 1.5; stroke-linecap: square"/>
   </g>
  </g>
  <g id="axes_23">
   <g id="line2d_23">
    <path d="M 349.686789 380.032941 
L 348.368443 377.873541 
L 347.794424 375.924407 
L 348.004686 374.01522 
L 347.794424 372.236395 
L 347.8575 370.844456 
L 348.004686 369.179175 
L 348.822612 366.17872 
L 349.266263 362.968009 
L 349.266263 360.175719 
L 349.476526 355.978875 
L 349.266263 351.876645 
L 349.897052 349.704633 
L 350.630867 347.965755 
L 351.44038 344.84756 
L 351.789417 342.385384 
L 352.840731 340.722205 
L 353.681783 337.39795 
L 354.312571 334.250315 
L 354.94336 332.193945 
L 354.312571 329.317544 
L 354.102308 327.746881 
L 352.815501 326.861676 
L 353.892046 325.309935 
L 353.261257 322.017219 
L 352.630469 319.845207 
L 350.523637 318.846458 
L 351.219607 317.103377 
L 350.50261 315.246759 
L 349.091748 315.656775 
L 347.983659 312.938078 
L 346.166991 312.904428 
L 344.161082 312.118048 
L 341.505462 312.136977 
L 340.052545 310.398099 
L 338.332596 309.500273 
L 337.701808 307.130619 
L 338.126536 302.66043 
L 339.38391 301.339973 
L 340.756926 299.601095 
L 343.2948 296.432446 
L 346.127041 294.035444 
L 348.076175 292.773867 
L 351.917675 291.51229 
L 354.396675 291.091765 
L 356.446738 291.270483 
L 359.867718 291.180072 
L 361.331145 292.012717 
L 363.55573 292.765461 
L 366.345909 292.98413 
L 368.715575 293.825181 
L 371.926292 294.035444 
L 375.767786 294.04385 
L 377.506663 294.731414 
L 380.296855 296.049766 
L 384.138348 298.209156 
L 386.062258 299.737771 
L 387.113572 301.897175 
L 387.954624 303.985083 
L 388.585412 306.802597 
L 389.132091 309.384631 
L 388.276332 310.745025 
L 387.277584 312.164299 
L 386.480679 312.959099 
L 384.800681 313.438504 
L 383.95963 315.177369 
L 382.277527 317.12651 
L 380.997021 319.706432 
L 380.099208 322.286355 
L 379.411644 326.338124 
L 378.303555 328.518548 
L 376.945265 325.574869 
L 373.353972 327.677497 
L 371.404832 329.990388 
L 369.665967 330.621176 
L 368.137352 332.77637 
L 367.340461 334.624583 
L 366.596122 332.601855 
L 365.195777 333.14433 
L 362.725189 333.985382 
L 360.620456 335.793643 
L 359.230622 336.718798 
L 356.987115 340.562403 
L 356.03252 342.778575 
L 355.077931 345.205003 
L 353.902556 347.641955 
L 354.476576 350.011615 
L 353.578756 351.32996 
L 352.891192 354.330415 
L 353.050994 361.37001 
L 353.261257 364.936073 
L 354.102308 367.686308 
L 355.540505 369.309537 
L 354.405087 370.032842 
L 355.574148 371.912592 
L 355.784411 375.123303 
L 354.312571 377.07244 
L 352.630469 378.521151 
L 351.38571 378.54428 
L 350.584609 378.40761 
" clip-path="url(#pbe49a36de9)" style="fill: none; stroke: #2ca02c; stroke-width: 1.5; stroke-linecap: square"/>
   </g>
  </g>
  <g id="axes_24">
   <g id="line2d_24">
    <path d="M 459.664991 361.797463 
L 458.262339 361.044175 
L 456.859648 360.290887 
L 455.145264 359.225908 
L 453.638689 357.069948 
L 452.002268 356.082891 
L 450.599576 355.329604 
L 447.326695 356.03093 
L 446.027927 358.082985 
L 445.378543 357.979082 
L 443.560276 356.602391 
L 441.79395 354.96595 
L 439.637991 353.459375 
L 436.183263 352.706087 
L 433.37792 354.004855 
L 431.092095 352.186587 
L 430.442711 350.394281 
L 429.793327 348.991609 
L 429.143943 347.588938 
L 427.143849 342.913385 
L 425.117754 341.536674 
L 423.948871 340.315849 
L 421.013662 336.471487 
L 419.818798 334.93895 
L 419.948663 332.679067 
L 420.701951 331.925799 
L 423.507295 331.068607 
L 424.18264 327.613879 
L 422.0267 326.107304 
L 420.701951 324.600728 
L 422.000719 322.314923 
L 423.948871 318.366657 
L 425.325562 314.39243 
L 427.559444 315.691198 
L 428.780289 316.626313 
L 431.481729 316.600352 
L 431.247941 314.548276 
L 430.494653 311.846856 
L 429.793327 310.444165 
L 432.702574 312.444278 
L 435.118284 311.794894 
L 438.598972 313.743046 
L 441.404316 314.39243 
L 444.079775 311.872817 
L 444.75514 309.820781 
L 446.157812 309.327243 
L 447.144868 310.963664 
L 450.261904 311.457202 
L 452.313959 310.703934 
L 453.171151 312.236471 
L 453.820535 313.743046 
L 454.885534 315.45743 
L 458.54807 318.470581 
L 461.275451 320.548578 
L 462.678142 320.470655 
L 465.899062 321.275885 
L 466.808215 322.159077 
L 467.535522 324.211113 
L 468.28883 325.613805 
L 469.613559 327.587918 
L 471.743518 329.068493 
L 473.795593 329.821801 
L 475.198245 330.575069 
L 475.951553 332.627144 
L 476.393129 334.029796 
L 476.159361 336.731236 
L 478.860781 337.484524 
L 479.614049 338.887196 
L 480.367356 340.289868 
L 483.094777 341.017175 
L 485.770236 341.666559 
L 488.601541 342.315943 
L 486.289735 343.302999 
L 486.939119 344.705671 
L 485.198775 344.264095 
L 483.042815 343.614711 
L 480.990779 343.06923 
L 478.28932 343.822518 
L 478.471166 345.536882 
L 480.211511 346.627862 
L 482.263547 347.38113 
L 484.341583 348.134418 
L 482.159663 347.511015 
L 479.250395 346.861631 
L 476.548975 348.446129 
L 475.120323 349.589051 
L 477.198359 353.199625 
L 477.847743 354.602297 
L 478.445165 356.654333 
L 477.691897 358.057005 
L 475.639822 358.290793 
L 474.23717 357.537505 
L 472.548787 355.199719 
L 469.63952 352.939855 
L 468.003099 352.056703 
L 464.210679 353.485355 
L 464.860063 354.888007 
L 465.509447 356.290679 
L 464.860063 358.134927 
L 461.171567 361.148079 
" clip-path="url(#p7887b75072)" style="fill: none; stroke: #2ca02c; stroke-width: 1.5; stroke-linecap: square"/>
   </g>
  </g>
  <g id="axes_25">
   <g id="line2d_25">
    <path d="M 511.500807 380.032941 
L 509.883107 377.8167 
L 510.691957 374.079816 
L 511.500807 370.148792 
L 512.277296 368.7414 
L 514.008247 366.201599 
L 515.900954 365.117743 
L 518.117195 364.519202 
L 519.524611 363.855939 
L 520.932002 363.047089 
L 522.015859 360.944074 
L 522.824709 358.080737 
L 523.536501 356.673346 
L 527.063076 355.573322 
L 527.968984 352.240863 
L 528.729305 350.671692 
L 530.91321 346.449493 
L 531.72206 344.783264 
L 532.53091 343.11701 
L 533.33976 341.111078 
L 534.633925 338.29627 
L 536.267794 335.853552 
L 537.157534 332.893133 
L 536.591329 329.868041 
L 537.384011 327.231182 
L 538.192861 325.435558 
L 539.001711 324.028167 
L 540.58705 321.828069 
L 541.201784 318.786834 
L 541.800326 317.379393 
L 542.398891 313.545452 
L 543.045962 312.138061 
L 543.854812 310.730669 
L 546.281362 307.365825 
L 545.213674 305.618731 
L 543.126852 304.890746 
L 540.684108 306.362859 
L 538.694344 307.543798 
L 536.381045 308.239397 
L 534.957461 310.35858 
L 532.854445 312.089531 
L 531.447054 312.898382 
L 529.230813 314.45136 
L 528.48666 311.05418 
L 530.654372 309.662981 
L 533.33976 307.802636 
L 534.14861 306.330523 
L 535.410415 302.739226 
L 536.186904 301.153862 
L 537.59432 300.555321 
L 540.619411 299.95678 
L 546.879903 294.294829 
L 549.063809 293.485979 
L 552.833028 291.868279 
L 556.764077 291.091765 
L 558.980319 291.625633 
L 560.38771 292.224175 
L 561.940689 292.968303 
L 564.755521 294.294829 
L 569.171811 292.677129 
L 572.973416 295.427239 
L 573.782266 296.947881 
L 575.20585 299.762664 
L 576.904416 302.270079 
L 578.635367 304.065752 
L 579.444217 306.75114 
L 580.123673 310.342437 
L 579.78392 314.176379 
L 579.185379 316.39262 
L 578.586838 317.800011 
L 577.826517 320.501592 
L 576.208816 324.788488 
L 572.973416 330.110736 
L 572.164566 331.518127 
L 571.549832 332.925518 
L 570.951291 335.14176 
L 569.770352 338.749224 
L 567.311465 342.000818 
L 565.337869 343.181732 
L 564.140787 345.187689 
L 563.105435 347.031866 
L 562.458364 348.439258 
L 561.649514 349.846649 
L 558.414114 354.020319 
L 556.796414 356.705707 
L 554.612508 359.569043 
L 550.972683 362.400019 
L 549.209396 364.972156 
L 548.610854 367.188397 
L 546.507839 367.900189 
L 541.751797 371.94444 
L 534.682454 378.415241 
L 533.145644 379.224091 
L 530.249947 379.887354 
L 526.060109 379.579987 
L 523.957094 377.606391 
L 521.983498 376.797541 
L 518.6834 379.321149 
L 515.933315 379.612348 
L 514.525899 379.4344 
" clip-path="url(#pc17d799c2b)" style="fill: none; stroke: #2ca02c; stroke-width: 1.5; stroke-linecap: square"/>
   </g>
  </g>
  <g id="axes_26">
   <g id="line2d_26">
    <path d="M 619.008888 380.032941 
L 619.008888 375.205073 
L 619.567867 373.484882 
L 620.339795 372.210533 
L 621.577539 370.144303 
L 622.336156 368.77014 
L 623.999789 366.717222 
L 624.395735 365.329747 
L 624.997969 363.609556 
L 625.683385 362.378463 
L 626.328876 360.135888 
L 627.240544 357.826764 
L 627.007641 355.065126 
L 626.994329 353.065445 
L 627.579932 347.505575 
L 628.325236 346.061542 
L 629.469817 344.284782 
L 629.98887 341.140511 
L 632.005193 338.442102 
L 633.239606 336.369221 
L 632.317957 334.981736 
L 634.503974 332.263365 
L 634.979771 330.962412 
L 636.250789 329.851096 
L 636.670018 328.766404 
L 637.308858 327.462121 
L 637.501845 325.658748 
L 636.976131 323.076785 
L 637.654886 321.127011 
L 638.307038 317.526906 
L 638.307038 316.448875 
L 637.704803 312.219911 
L 637.308858 310.346658 
L 636.773172 309.29192 
L 636.310677 305.389022 
L 635.661856 304.187883 
L 635.272572 302.800419 
L 634.647044 299.556333 
L 634.467369 298.029109 
L 634.979771 296.432024 
L 635.844862 294.322548 
L 638.629773 293.523996 
L 640.396571 291.527636 
L 642.070176 291.091765 
L 643.630665 291.833739 
L 644.612213 295.836451 
L 644.628845 298.122282 
L 643.966722 299.509746 
L 643.244711 301.562665 
L 642.632485 305.049654 
L 642.133395 308.330335 
L 641.634305 311.724151 
L 642.246531 314.099825 
L 642.635815 320.145464 
L 643.297938 321.319978 
L 642.848765 323.25312 
L 642.299758 324.307878 
L 642.196614 325.695343 
L 641.967032 326.750081 
L 641.967032 334.136618 
L 642.366308 336.512291 
L 642.965212 338.478697 
L 643.477603 341.949034 
L 643.963392 344.045229 
L 644.58892 345.722164 
L 644.978204 348.440536 
L 646.512069 350.420264 
L 649.619746 352.399992 
L 650.138799 354.266584 
L 650.86081 355.078438 
L 651.316644 355.710617 
L 649.549866 356.409345 
L 648.608264 357.72694 
L 648.817883 359.207578 
L 649.533234 360.402065 
L 650.867471 360.984337 
L 651.922209 361.400245 
L 652.584332 364.092003 
L 651.948833 365.479478 
L 650.664513 366.058419 
L 649.420118 366.590784 
L 648.954292 368.823377 
L 647.643348 368.720233 
L 644.59225 367.056599 
L 643.444339 367.575652 
L 642.183312 370.383867 
L 641.301578 369.512124 
L 640.373278 368.124649 
L 638.999115 369.691799 
L 638.220525 370.716593 
L 637.109219 369.851502 
L 634.999733 370.69663 
L 634.314317 371.169097 
L 632.777121 370.922882 
L 631.991881 371.055971 
L 631.552689 369.818227 
L 628.99069 372.153975 
L 627.49675 373.378407 
L 625.224221 374.150335 
L 621.72727 377.703854 
" clip-path="url(#p7d9809b619)" style="fill: none; stroke: #2ca02c; stroke-width: 1.5; stroke-linecap: square"/>
   </g>
   <g id="text_3">
    <!-- MDA_MB_231 -->
    <g transform="translate(568.226298 280.644706) scale(0.2 -0.2)">
     <defs>
      <path id="DejaVuSans-44" d="M 1259 4147 
L 1259 519 
L 2022 519 
Q 2988 519 3436 956 
Q 3884 1394 3884 2338 
Q 3884 3275 3436 3711 
Q 2988 4147 2022 4147 
L 1259 4147 
z
M 628 4666 
L 1925 4666 
Q 3281 4666 3915 4102 
Q 4550 3538 4550 2338 
Q 4550 1131 3912 565 
Q 3275 0 1925 0 
L 628 0 
L 628 4666 
z
" transform="scale(0.015625)"/>
      <path id="DejaVuSans-5f" d="M 3263 -1063 
L 3263 -1509 
L -63 -1509 
L -63 -1063 
L 3263 -1063 
z
" transform="scale(0.015625)"/>
      <path id="DejaVuSans-42" d="M 1259 2228 
L 1259 519 
L 2272 519 
Q 2781 519 3026 730 
Q 3272 941 3272 1375 
Q 3272 1813 3026 2020 
Q 2781 2228 2272 2228 
L 1259 2228 
z
M 1259 4147 
L 1259 2741 
L 2194 2741 
Q 2656 2741 2882 2914 
Q 3109 3088 3109 3444 
Q 3109 3797 2882 3972 
Q 2656 4147 2194 4147 
L 1259 4147 
z
M 628 4666 
L 2241 4666 
Q 2963 4666 3353 4366 
Q 3744 4066 3744 3513 
Q 3744 3084 3544 2831 
Q 3344 2578 2956 2516 
Q 3422 2416 3680 2098 
Q 3938 1781 3938 1306 
Q 3938 681 3513 340 
Q 3088 0 2303 0 
L 628 0 
L 628 4666 
z
" transform="scale(0.015625)"/>
      <path id="DejaVuSans-32" d="M 1228 531 
L 3431 531 
L 3431 0 
L 469 0 
L 469 531 
Q 828 903 1448 1529 
Q 2069 2156 2228 2338 
Q 2531 2678 2651 2914 
Q 2772 3150 2772 3378 
Q 2772 3750 2511 3984 
Q 2250 4219 1831 4219 
Q 1534 4219 1204 4116 
Q 875 4013 500 3803 
L 500 4441 
Q 881 4594 1212 4672 
Q 1544 4750 1819 4750 
Q 2544 4750 2975 4387 
Q 3406 4025 3406 3419 
Q 3406 3131 3298 2873 
Q 3191 2616 2906 2266 
Q 2828 2175 2409 1742 
Q 1991 1309 1228 531 
z
" transform="scale(0.015625)"/>
      <path id="DejaVuSans-33" d="M 2597 2516 
Q 3050 2419 3304 2112 
Q 3559 1806 3559 1356 
Q 3559 666 3084 287 
Q 2609 -91 1734 -91 
Q 1441 -91 1130 -33 
Q 819 25 488 141 
L 488 750 
Q 750 597 1062 519 
Q 1375 441 1716 441 
Q 2309 441 2620 675 
Q 2931 909 2931 1356 
Q 2931 1769 2642 2001 
Q 2353 2234 1838 2234 
L 1294 2234 
L 1294 2753 
L 1863 2753 
Q 2328 2753 2575 2939 
Q 2822 3125 2822 3475 
Q 2822 3834 2567 4026 
Q 2313 4219 1838 4219 
Q 1578 4219 1281 4162 
Q 984 4106 628 3988 
L 628 4550 
Q 988 4650 1302 4700 
Q 1616 4750 1894 4750 
Q 2613 4750 3031 4423 
Q 3450 4097 3450 3541 
Q 3450 3153 3228 2886 
Q 3006 2619 2597 2516 
z
" transform="scale(0.015625)"/>
     </defs>
     <use xlink:href="#DejaVuSans-4d"/>
     <use xlink:href="#DejaVuSans-44" x="86.279297"/>
     <use xlink:href="#DejaVuSans-41" x="161.53125"/>
     <use xlink:href="#DejaVuSans-5f" x="229.939453"/>
     <use xlink:href="#DejaVuSans-4d" x="279.939453"/>
     <use xlink:href="#DejaVuSans-42" x="366.21875"/>
     <use xlink:href="#DejaVuSans-5f" x="434.822266"/>
     <use xlink:href="#DejaVuSans-32" x="484.822266"/>
     <use xlink:href="#DejaVuSans-33" x="548.445312"/>
     <use xlink:href="#DejaVuSans-31" x="612.068359"/>
    </g>
   </g>
  </g>
  <g id="axes_27">
   <g id="line2d_27">
    <path d="M 735.131179 365.313975 
L 733.052325 364.560769 
L 730.702327 363.897945 
L 729.617709 363.566532 
L 727.96067 363.054358 
L 726.39399 362.301152 
L 724.104238 361.81909 
L 723.019643 361.4877 
L 721.935025 360.794741 
L 720.850407 360.07167 
L 720.518995 358.987052 
L 720.067067 357.902434 
L 719.313861 356.396023 
L 719.85617 354.226787 
L 718.44014 352.509479 
L 716.903594 351.605623 
L 715.547833 350.972933 
L 714.824762 349.526792 
L 713.348463 348.743451 
L 711.992702 347.990246 
L 707.413222 344.374868 
L 705.575398 343.29025 
L 704.49078 342.717806 
L 699.730515 338.108192 
L 699.308722 337.023574 
L 698.97731 335.18575 
L 697.139486 333.679339 
L 696.717693 332.35369 
L 696.205519 331.178691 
L 696.717693 328.376788 
L 695.964487 326.749838 
L 696.44655 325.66522 
L 696.597177 323.767173 
L 694.819623 322.381255 
L 693.735005 321.658161 
L 693.403593 320.573543 
L 692.951665 318.223545 
L 692.198459 315.421642 
L 692.740768 310.540884 
L 693.192696 308.582522 
L 694.458076 306.865237 
L 695.241416 306.533825 
L 696.326034 305.810731 
L 697.410652 306.503667 
L 698.495247 306.83508 
L 700.182443 307.317142 
L 701.598474 308.070348 
L 703.767686 309.094696 
L 705.454883 310.028664 
L 709.190776 313.342787 
L 711.0286 314.849198 
L 712.113218 315.180611 
L 716.511936 315.602404 
L 718.530521 316.35561 
L 720.639511 316.928053 
L 722.477334 317.259466 
L 724.526054 317.862021 
L 726.906164 319.368432 
L 727.990782 319.760114 
L 731.244659 320.121638 
L 735.131179 322.381255 
L 738.023509 323.013968 
L 742.12095 323.34538 
L 743.205522 323.887666 
L 745.163884 325.394077 
L 746.881169 325.845982 
L 748.026056 326.237664 
L 750.556816 328.4069 
L 752.334416 329.792818 
L 754.021589 330.726786 
L 756.070286 332.172928 
L 757.727348 333.860101 
L 758.239522 334.944719 
L 758.570935 336.782542 
L 759.233759 339.13254 
L 756.974142 342.717806 
L 757.305555 343.802424 
L 759.715822 344.224218 
L 760.981202 343.712043 
L 760.920933 344.224218 
L 759.38441 345.881279 
L 759.986965 346.965897 
L 759.233759 348.110761 
L 758.842078 349.888316 
L 758.480554 350.972933 
L 757.727348 352.358829 
L 758.360061 353.895375 
L 759.444679 353.804994 
L 760.529251 353.262685 
L 760.499139 354.256922 
L 759.233759 355.97423 
L 757.727348 357.812053 
L 756.64273 359.619742 
L 754.774795 360.794741 
L 752.936971 362.301152 
L 751.852353 362.903708 
L 750.767735 363.23512 
L 747.634374 363.807564 
L 744.681821 364.560769 
L 736.969003 364.982563 
" clip-path="url(#p49c0c2c8c8)" style="fill: none; stroke: #2ca02c; stroke-width: 1.5; stroke-linecap: square"/>
   </g>
  </g>
  <g id="axes_28">
   <g id="line2d_28">
    <path d="M 792.607822 360.096116 
L 791.28508 359.319264 
L 788.576597 359.424243 
L 785.28023 359.025328 
L 784.125453 358.75237 
L 783.474584 357.681582 
L 782.99168 356.778759 
L 783.789523 353.755337 
L 784.629361 351.781725 
L 786.309037 348.317393 
L 787.358835 346.868667 
L 789.626395 344.181188 
L 791.1801 342.207564 
L 791.746994 341.220751 
L 793.069736 340.359923 
L 793.972559 339.940004 
L 795.043348 340.359923 
L 797.583865 339.940004 
L 800.922214 339.100166 
L 802.202975 338.680247 
L 803.105798 338.260327 
L 804.42854 337.777423 
L 805.709301 336.916582 
L 807.913876 335.551845 
L 808.816699 335.068953 
L 809.299603 334.166117 
L 809.782508 333.641218 
L 810.706335 333.179318 
L 811.672143 331.961542 
L 815.010492 329.442028 
L 816.543206 328.60219 
L 818.075921 327.762352 
L 819.398651 326.922514 
L 820.700415 326.502595 
L 822.674014 324.990897 
L 825.781425 322.303405 
L 828.132961 320.371788 
L 829.833654 318.251176 
L 830.694482 315.290752 
L 831.177374 313.968023 
L 831.660291 311.38551 
L 832.08021 311.028589 
L 832.500129 312.057371 
L 833.297985 313.065186 
L 835.271584 314.324944 
L 836.17442 313.905025 
L 837.455168 314.324944 
L 839.260815 315.1228 
L 841.402417 315.584701 
L 842.578185 316.5715 
L 843.837943 317.264377 
L 849.989766 316.5715 
L 850.976566 317.768285 
L 851.396485 318.923062 
L 851.774422 320.245791 
L 847.092315 320.728709 
L 846.189479 321.211626 
L 845.286668 321.694517 
L 844.803751 323.017272 
L 842.704156 323.85711 
L 842.158266 325.242838 
L 841.25543 325.725755 
L 840.35262 326.208647 
L 838.651953 327.069475 
L 837.455168 328.182271 
L 836.38438 328.60219 
L 835.481544 329.022109 
L 834.011827 330.029925 
L 830.652475 334.229115 
L 829.119786 335.341885 
L 827.461101 336.580651 
L 826.348305 337.273515 
L 824.689646 338.092362 
L 822.883973 339.058171 
L 822.380091 339.562079 
L 821.162316 340.359923 
L 819.734581 342.207564 
L 817.572013 342.690468 
L 816.669177 343.173385 
L 815.766366 343.656289 
L 814.443611 344.139194 
L 813.540788 344.559113 
L 810.958289 346.658708 
L 810.055452 347.078627 
L 808.984664 348.170419 
L 808.144826 349.493161 
L 807.304988 351.193828 
L 806.423156 351.739731 
L 806.045231 353.041482 
L 805.625312 354.09128 
L 806.045231 355.267048 
L 803.672691 355.749952 
L 802.433925 356.568799 
L 801.867032 357.555611 
L 800.880232 358.122492 
L 799.431506 359.676197 
L 797.898805 360.096116 
L 796.303105 359.676197 
L 794.833388 359.256278 
L 793.930565 359.676197 
" clip-path="url(#pa92e1e19f9)" style="fill: none; stroke: #2ca02c; stroke-width: 1.5; stroke-linecap: square"/>
   </g>
  </g>
  <g id="axes_29">
   <g id="line2d_29">
    <path d="M 913.124042 343.808641 
L 911.301172 343.374626 
L 909.408873 342.506596 
L 908.38459 342.107296 
L 906.804782 341.829533 
L 904.790945 341.725374 
L 897.152288 342.072581 
L 893.454471 342.506596 
L 890.728856 342.940611 
L 888.489336 342.610755 
L 887.603955 342.159389 
L 886.649116 341.551757 
L 886.058862 338.878235 
L 884.774167 338.461571 
L 883.645725 338.166444 
L 886.215101 337.732429 
L 888.385177 337.194254 
L 888.003241 336.482463 
L 887.291463 336.2047 
L 885.277626 335.926937 
L 884.218628 335.562353 
L 880.937475 335.128338 
L 876.597323 334.260307 
L 875.486245 333.947829 
L 873.7849 333.670053 
L 876.666767 333.392277 
L 877.378558 333.826292 
L 878.21186 333.392277 
L 879.236143 333.791564 
L 881.683981 334.06934 
L 884.305437 334.520706 
L 885.711642 335.562353 
L 886.215101 334.503355 
L 887.135211 333.878372 
L 887.847002 334.260307 
L 888.732383 333.826292 
L 889.287922 335.597082 
L 890.711492 336.430383 
L 891.839934 335.996368 
L 893.141979 335.579704 
L 894.721801 335.301954 
L 895.433579 335.024178 
L 896.14537 334.694323 
L 897.06548 333.600596 
L 897.707827 333.183958 
L 899.148748 332.090232 
L 899.860539 331.656216 
L 900.572317 331.222201 
L 901.284108 330.909723 
L 902.152138 330.475708 
L 905.311768 329.920156 
L 906.02356 330.354171 
L 908.037383 328.61811 
L 908.749174 328.218824 
L 909.894968 327.941048 
L 911.908804 327.663271 
L 915.17258 327.316065 
L 916.995449 327.75008 
L 918.592622 328.184095 
L 920.832155 328.513951 
L 921.543946 328.791727 
L 922.255711 329.069476 
L 923.26263 329.486141 
L 924.113309 329.920156 
L 925.241738 330.753457 
L 925.97088 331.048585 
L 926.682671 331.326361 
L 927.394463 331.656216 
L 928.106254 332.090232 
L 928.818019 332.524247 
L 929.877017 333.21866 
L 931.977662 333.583245 
L 932.324869 334.798482 
L 933.835233 335.996368 
L 934.703263 336.430383 
L 935.692831 336.864398 
L 936.404622 336.586622 
L 937.550428 336.30886 
L 938.661506 335.996368 
L 940.762125 337.298414 
L 941.855851 337.732429 
L 942.567643 338.097 
L 941.994739 338.392127 
L 940.744774 338.322683 
L 938.6094 339.46849 
L 937.081684 340.33652 
L 936.092117 339.902505 
L 934.963688 339.607378 
L 929.47773 339.607378 
L 927.099335 339.902505 
L 926.057688 340.33652 
L 925.172307 340.770535 
L 924.460516 341.15247 
L 923.748724 341.430233 
L 922.602945 341.708009 
L 921.196713 342.072581 
L 919.929396 342.506596 
L 918.662079 342.940611 
L 917.151715 343.253102 
L 916.439924 343.530865 
" clip-path="url(#p4c8b270f3e)" style="fill: none; stroke: #2ca02c; stroke-width: 1.5; stroke-linecap: square"/>
   </g>
  </g>
  <g id="axes_30">
   <g id="line2d_30">
    <path d="M 1000.110682 349.396708 
L 1000.110682 348.198458 
L 1000.20924 346.382926 
L 1000.888767 344.505149 
L 1000.888767 343.306891 
L 1001.148129 341.706634 
L 999.960255 339.909259 
L 999.503776 338.674694 
L 998.813873 337.600941 
L 996.588552 336.018824 
L 995.15687 335.624605 
L 994.085705 334.613088 
L 991.437624 333.202159 
L 986.356728 332.530405 
L 985.498241 332.01947 
L 983.342945 331.591517 
L 981.229149 331.760109 
L 979.649628 330.982023 
L 976.358335 330.572227 
L 974.981117 329.944576 
L 973.707657 329.166491 
L 972.226696 328.774852 
L 970.730182 327.869682 
L 968.209185 326.539155 
L 966.943498 325.307187 
L 965.550727 324.173777 
L 965.081283 323.185609 
L 964.57812 322.327122 
L 965.791931 321.727997 
L 967.169142 322.679851 
L 967.586718 323.616143 
L 969.923562 325.535426 
L 972.338228 326.292758 
L 973.196714 325.276064 
L 974.573925 325.9141 
L 974.433867 324.835146 
L 976.591759 326.396509 
L 978.308733 327.350959 
L 978.583655 326.629925 
L 979.903806 327.114946 
L 980.866036 327.61032 
L 981.880141 328.053835 
L 982.74382 328.398774 
L 985.067699 328.391002 
L 986.01178 328.129044 
L 986.870267 328.142009 
L 988.574268 328.647767 
L 989.772526 328.611453 
L 991.779983 328.129044 
L 993.206473 327.61032 
L 994.275042 327.221278 
L 994.923446 327.981206 
L 995.960893 328.357283 
L 997.221388 328.092729 
L 998.227713 328.647767 
L 999.0862 328.647767 
L 999.944686 329.000496 
L 1001.495673 329.425853 
L 1002.699115 330.198746 
L 1003.557602 330.538509 
L 1004.67545 330.982023 
L 1006.265339 331.949438 
L 1008.379136 332.507072 
L 1010.622622 333.575641 
L 1011.481108 334.052873 
L 1012.637852 334.275921 
L 1014.235529 334.613088 
L 1015.812437 335.790585 
L 1018.328249 336.231503 
L 1019.923331 337.466067 
L 1021.482097 337.621678 
L 1022.161624 338.249337 
L 1023.442872 339.022238 
L 1024.654087 339.1182 
L 1025.756374 338.762876 
L 1027.992071 338.762876 
L 1030.71537 339.16748 
L 1032.237822 340.025967 
L 1032.836947 340.625092 
L 1033.308987 342.124202 
L 1033.360863 346.232492 
L 1032.761738 347.35034 
L 1031.794308 347.539677 
L 1029.488594 348.548598 
L 1026.814575 348.888362 
L 1025.696726 348.877985 
L 1024.319516 348.530441 
L 1022.423582 348.359261 
L 1021.565079 348.877985 
L 1020.340899 348.206239 
L 1019.614689 347.114328 
L 1017.952172 346.857555 
L 1016.554224 346.803091 
L 1014.679027 346.847186 
L 1011.486285 346.580043 
L 1009.758942 346.543729 
L 1008.472502 346.605973 
L 1006.83593 346.821248 
L 1004.939996 347.581176 
L 1003.464227 348.377419 
" clip-path="url(#p0d95892c39)" style="fill: none; stroke: #2ca02c; stroke-width: 1.5; stroke-linecap: square"/>
   </g>
  </g>
 </g>
 <defs>
  <clipPath id="p9c2af78d53">
   <rect x="144" y="51.84" width="75.661017" height="97.835294"/>
  </clipPath>
  <clipPath id="p0f91e140e0">
   <rect x="234.79322" y="51.84" width="75.661017" height="97.835294"/>
  </clipPath>
  <clipPath id="p33712bf385">
   <rect x="325.586441" y="51.84" width="75.661017" height="97.835294"/>
  </clipPath>
  <clipPath id="p6d03550d7b">
   <rect x="416.379661" y="51.84" width="75.661017" height="97.835294"/>
  </clipPath>
  <clipPath id="p034d5238db">
   <rect x="507.172881" y="51.84" width="75.661017" height="97.835294"/>
  </clipPath>
  <clipPath id="p6e91a02d38">
   <rect x="597.966102" y="51.84" width="75.661017" height="97.835294"/>
  </clipPath>
  <clipPath id="p240ad9cad8">
   <rect x="688.759322" y="51.84" width="75.661017" height="97.835294"/>
  </clipPath>
  <clipPath id="pcc3ae29967">
   <rect x="779.552542" y="51.84" width="75.661017" height="97.835294"/>
  </clipPath>
  <clipPath id="pdf0cce1485">
   <rect x="870.345763" y="51.84" width="75.661017" height="97.835294"/>
  </clipPath>
  <clipPath id="pbee248d412">
   <rect x="961.138983" y="51.84" width="75.661017" height="97.835294"/>
  </clipPath>
  <clipPath id="p5cfea3f218">
   <rect x="144" y="169.242353" width="75.661017" height="97.835294"/>
  </clipPath>
  <clipPath id="p4586bb1b9f">
   <rect x="234.79322" y="169.242353" width="75.661017" height="97.835294"/>
  </clipPath>
  <clipPath id="p1e6959f287">
   <rect x="325.586441" y="169.242353" width="75.661017" height="97.835294"/>
  </clipPath>
  <clipPath id="pd6bb86ed88">
   <rect x="416.379661" y="169.242353" width="75.661017" height="97.835294"/>
  </clipPath>
  <clipPath id="p7a89ecb348">
   <rect x="507.172881" y="169.242353" width="75.661017" height="97.835294"/>
  </clipPath>
  <clipPath id="p83de4e65db">
   <rect x="597.966102" y="169.242353" width="75.661017" height="97.835294"/>
  </clipPath>
  <clipPath id="pf44a787135">
   <rect x="688.759322" y="169.242353" width="75.661017" height="97.835294"/>
  </clipPath>
  <clipPath id="p7b44d2c2b2">
   <rect x="779.552542" y="169.242353" width="75.661017" height="97.835294"/>
  </clipPath>
  <clipPath id="p90c79574fd">
   <rect x="870.345763" y="169.242353" width="75.661017" height="97.835294"/>
  </clipPath>
  <clipPath id="p7dfa0b737c">
   <rect x="961.138983" y="169.242353" width="75.661017" height="97.835294"/>
  </clipPath>
  <clipPath id="p632674050b">
   <rect x="144" y="286.644706" width="75.661017" height="97.835294"/>
  </clipPath>
  <clipPath id="p86f13cfba1">
   <rect x="234.79322" y="286.644706" width="75.661017" height="97.835294"/>
  </clipPath>
  <clipPath id="pbe49a36de9">
   <rect x="325.586441" y="286.644706" width="75.661017" height="97.835294"/>
  </clipPath>
  <clipPath id="p7887b75072">
   <rect x="416.379661" y="286.644706" width="75.661017" height="97.835294"/>
  </clipPath>
  <clipPath id="pc17d799c2b">
   <rect x="507.172881" y="286.644706" width="75.661017" height="97.835294"/>
  </clipPath>
  <clipPath id="p7d9809b619">
   <rect x="597.966102" y="286.644706" width="75.661017" height="97.835294"/>
  </clipPath>
  <clipPath id="p49c0c2c8c8">
   <rect x="688.759322" y="286.644706" width="75.661017" height="97.835294"/>
  </clipPath>
  <clipPath id="pa92e1e19f9">
   <rect x="779.552542" y="286.644706" width="75.661017" height="97.835294"/>
  </clipPath>
  <clipPath id="p4c8b270f3e">
   <rect x="870.345763" y="286.644706" width="75.661017" height="97.835294"/>
  </clipPath>
  <clipPath id="p0d95892c39">
   <rect x="961.138983" y="286.644706" width="75.661017" height="97.835294"/>
  </clipPath>
 </defs>
</svg>
