<?xml version="1.0" encoding="utf-8" standalone="no"?>
<!DOCTYPE svg PUBLIC "-//W3C//DTD SVG 1.1//EN"
  "http://www.w3.org/Graphics/SVG/1.1/DTD/svg11.dtd">
<svg xmlns:xlink="http://www.w3.org/1999/xlink" width="1152pt" height="432pt" viewBox="0 0 1152 432" xmlns="http://www.w3.org/2000/svg" version="1.1">
 <metadata>
  <rdf:RDF xmlns:dc="http://purl.org/dc/elements/1.1/" xmlns:cc="http://creativecommons.org/ns#" xmlns:rdf="http://www.w3.org/1999/02/22-rdf-syntax-ns#">
   <cc:Work>
    <dc:type rdf:resource="http://purl.org/dc/dcmitype/StillImage"/>
    <dc:date>2023-12-19T06:37:37.853033</dc:date>
    <dc:format>image/svg+xml</dc:format>
    <dc:creator>
     <cc:Agent>
      <dc:title>Matplotlib v3.6.2, https://matplotlib.org/</dc:title>
     </cc:Agent>
    </dc:creator>
   </cc:Work>
  </rdf:RDF>
 </metadata>
 <defs>
  <style type="text/css">*{stroke-linejoin: round; stroke-linecap: butt}</style>
 </defs>
 <g id="figure_1">
  <g id="patch_1">
   <path d="M 0 432 
L 1152 432 
L 1152 0 
L 0 0 
z
" style="fill: #ffffff"/>
  </g>
  <g id="axes_1">
   <g id="line2d_1">
    <path d="M 199.718223 113.725517 
L 198.152874 112.975351 
L 197.402707 112.47524 
L 194.61959 111.822599 
L 192.706675 111.725074 
L 191.553908 111.637553 
L 189.966062 112.670283 
L 189.238408 113.202902 
L 187.705567 112.965346 
L 186.672837 111.725074 
L 185.139996 111.550032 
L 183.999744 111.975129 
L 182.294364 111.304982 
L 180.869045 110.724852 
L 179.553751 109.814647 
L 177.26325 109.474575 
L 176.403059 108.974464 
L 175.160284 108.671899 
L 174.292591 108.224298 
L 172.977297 108.489356 
L 171.962073 109.174505 
L 171.279419 109.72463 
L 169.601549 107.864217 
L 167.966185 107.974242 
L 165.900732 108.974464 
L 164.647952 107.911729 
L 163.9603 106.878999 
L 162.582492 106.10133 
L 162.209912 106.884005 
L 161.074658 106.723965 
L 160.234476 106.248862 
L 157.943967 104.973578 
L 156.798709 104.563483 
L 154.635731 104.473467 
L 153.893067 103.408228 
L 152.570279 102.473023 
L 151.367513 101.632841 
L 150.052219 100.972691 
L 148.016765 99.282314 
L 147.439137 98.204576 
L 147.506657 97.471915 
L 148.789435 96.889282 
L 149.68714 96.471694 
L 152.002648 95.176409 
L 153.387957 94.47125 
L 154.670743 93.008432 
L 156.448633 92.720863 
L 157.986472 91.470586 
L 158.649125 89.660187 
L 158.894175 88.905015 
L 160.084441 89.470142 
L 162.524984 89.405125 
L 164.090326 88.719976 
L 165.933241 88.692474 
L 166.715908 88.464915 
L 167.498582 87.96981 
L 169.031423 87.789777 
L 169.961629 88.527429 
L 171.847049 89.585173 
L 172.629724 89.720198 
L 173.012309 88.76999 
L 173.444899 88.20236 
L 174.242577 88.970032 
L 176.260526 89.267598 
L 178.703564 88.469921 
L 183.577149 88.832504 
L 184.60988 89.220087 
L 186.247739 90.502872 
L 187.925617 90.470364 
L 189.708498 90.477873 
L 191.066312 90.620391 
L 192.946718 89.970253 
L 194.897147 90.040276 
L 196.339972 90.470364 
L 197.027624 91.280541 
L 199.530681 91.22053 
L 200.688439 90.940469 
L 202.718888 90.972978 
L 203.719109 92.005708 
L 204.421765 92.673351 
L 205.219442 95.07139 
L 205.204439 97.486918 
L 205.219442 99.052267 
L 206.167146 99.919952 
L 207.219885 100.702635 
L 208.245106 102.222968 
L 209.5604 102.56304 
L 211.62586 103.973356 
L 213.301234 105.553708 
L 214.471492 106.366388 
L 215.896811 107.399118 
L 216.22188 108.596878 
L 215.491722 109.704629 
L 214.699036 110.747356 
L 213.666321 111.224963 
L 212.796118 111.65006 
L 211.380811 112.725295 
L 207.26239 112.017642 
L 204.489284 111.975129 
L 202.283794 112.660278 
" clip-path="url(#pf361c78f4c)" style="fill: none; stroke: #1f77b4; stroke-width: 1.5; stroke-linecap: square"/>
   </g>
  </g>
  <g id="axes_2">
   <g id="line2d_2">
    <path d="M 263.751421 120.478399 
L 263.344807 119.648904 
L 262.499057 118.445332 
L 261.31174 117.534521 
L 260.02684 115.599037 
L 258.953387 115.192424 
L 256.643813 116.005651 
L 255.163747 116.412264 
L 252.642739 117.501985 
L 251.520494 116.786354 
L 250.170534 115.843008 
L 249.34104 115.420127 
L 248.511545 115.387603 
L 246.868835 115.387603 
L 246.03934 114.964721 
L 244.071333 113.809941 
L 242.493671 112.638892 
L 239.598585 110.963647 
L 238.655239 109.613687 
L 238.232357 107.970965 
L 238.46006 106.328256 
L 239.566049 104.815654 
L 240.11905 102.636199 
L 240.541931 101.806704 
L 240.9648 100.977222 
L 242.200909 99.3345 
L 243.437017 97.708046 
L 244.640589 96.862283 
L 245.047203 96.032801 
L 245.453816 95.203318 
L 246.673656 93.560584 
L 247.470615 92.844941 
L 249.227188 91.494981 
L 249.65007 90.795618 
L 250.333177 90.24263 
L 250.902434 89.819736 
L 251.731929 89.396867 
L 252.968037 88.973998 
L 254.008966 88.339682 
L 255.082419 86.452989 
L 256.107093 84.615089 
L 257.733547 83.883189 
L 259.425048 83.476576 
L 261.262948 83.069963 
L 263.979123 82.663349 
L 265.621845 82.256736 
L 267.215763 81.850122 
L 270.322295 81.443509 
L 274.437234 81.850122 
L 275.526955 82.256736 
L 279.609345 81.850122 
L 280.536435 81.850122 
L 283.773062 81.443509 
L 285.350724 81.850122 
L 286.245279 81.443509 
L 287.904269 81.036895 
L 290.783074 81.443509 
L 291.921611 81.736259 
L 292.751094 81.573628 
L 297.240097 81.996497 
L 298.069605 82.419391 
L 298.899087 82.84226 
L 300.135183 83.265129 
L 303.095341 86.6319 
L 306.722326 89.852272 
L 307.0151 91.039576 
L 306.592206 91.869083 
L 305.892843 92.97506 
L 304.461556 96.439414 
L 302.770055 98.944155 
L 302.054411 100.066399 
L 301.289976 101.237448 
L 300.395422 101.725389 
L 298.476218 104.457832 
L 297.516591 105.01082 
L 296.687109 105.433702 
L 294.231173 104.636743 
L 292.995052 105.059612 
L 292.572183 105.889107 
L 292.019195 106.848721 
L 289.286739 107.792055 
L 288.050644 107.564352 
L 287.400047 108.621549 
L 286.131415 110.296795 
L 284.342331 110.979915 
L 283.350193 111.044962 
L 282.50443 112.297338 
L 281.853859 115.387603 
L 281.024351 115.810472 
L 278.975029 115.777948 
L 278.389504 115.355067 
L 275.494419 114.379197 
L 273.640262 114.785811 
L 273.10353 115.485186 
L 271.981273 116.412264 
L 271.15179 116.818878 
L 269.915682 117.632105 
L 268.370543 118.038718 
L 266.256161 119.258558 
L 265.394142 119.665172 
" clip-path="url(#p18d35de429)" style="fill: none; stroke: #1f77b4; stroke-width: 1.5; stroke-linecap: square"/>
   </g>
  </g>
  <g id="axes_3">
   <g id="line2d_3">
    <path d="M 330.703206 129.02567 
L 329.67986 126.324696 
L 329.025578 123.064497 
L 329.562414 120.659904 
L 331.262415 117.863857 
L 332.716363 114.709909 
L 335.165702 111.70136 
L 335.736089 107.988219 
L 335.534782 106.657298 
L 337.380166 105.572431 
L 338.699892 104.252705 
L 341.328182 102.110924 
L 341.887391 99.991516 
L 346.657446 94.058297 
L 349.157112 88.840898 
L 348.849554 86.274113 
L 352.109737 85.407345 
L 354.251501 84.786631 
L 358.630119 83.763269 
L 362.494257 83.170508 
L 366.268903 82.275787 
L 370.815277 81.49288 
L 377.822186 80.229062 
L 380.014277 79.256043 
L 382.620211 78.696834 
L 384.247495 77.718217 
L 386.389276 77.019206 
L 388.201109 76.001441 
L 390.113595 74.782369 
L 392.255376 72.506383 
L 393.837948 72.489624 
L 395.979695 73.66395 
L 397.80832 74.536315 
L 395.694493 75.341578 
L 393.770846 77.142216 
L 390.5386 80.989578 
L 394.743865 84.288927 
L 397.086953 85.245187 
L 397.50636 85.966555 
L 393.686951 87.291878 
L 391.54517 88.203392 
L 388.28497 87.660975 
L 386.702432 88.684303 
L 388.514265 90.999438 
L 391.097809 92.967866 
L 388.860972 93.991194 
L 390.281351 96.334282 
L 396.125095 101.630012 
L 393.983314 101.065205 
L 390.533002 98.822771 
L 388.301763 100.505996 
L 389.414584 103.296445 
L 392.305686 105.53888 
L 392.781034 106.651701 
L 389.822795 104.263883 
L 386.819844 102.183624 
L 383.559679 101.355988 
L 381.803753 100.505996 
L 380.55113 102.821131 
L 383.201777 106.030987 
L 385.393867 106.657298 
L 387.183344 107.568812 
L 385.550462 107.216508 
L 383.106721 106.495123 
L 381.457046 105.53888 
L 378.291903 104.420461 
L 374.567584 105.852035 
L 375.439949 106.998408 
L 377.92284 109.140189 
L 379.354414 110.163534 
L 380.472833 111.186897 
L 382.111312 112.8086 
L 385.796516 112.517818 
L 382.379721 113.597088 
L 380.237974 112.8086 
L 378.655402 112.109589 
L 377.07283 111.130973 
L 374.981393 111.690182 
L 372.789302 110.157954 
L 370.966275 111.20927 
L 370.630763 113.032281 
L 372.084693 114.055643 
L 370.339963 113.927019 
L 368.729437 114.983933 
L 365.843932 114.486228 
L 364.507414 115.856298 
L 362.71234 115.045438 
L 360.665632 115.839522 
L 357.500522 116.208585 
L 355.381114 117.768784 
L 354.189996 119.183583 
L 351.360398 119.552663 
L 349.515014 122.874368 
L 346.707773 122.527661 
L 345.197918 124.551996 
L 341.495938 125.111205 
L 339.449247 126.430931 
L 337.687724 127.348042 
L 336.105169 127.717122 
L 332.84497 128.466461 
" clip-path="url(#p0aedae60ef)" style="fill: none; stroke: #1f77b4; stroke-width: 1.5; stroke-linecap: square"/>
   </g>
  </g>
  <g id="axes_4">
   <g id="line2d_4">
    <path d="M 446.468241 145.228235 
L 443.678727 143.206845 
L 442.668032 142.701497 
L 441.637119 142.19615 
L 440.40407 141.670584 
L 439.191238 139.972623 
L 436.078295 139.386418 
L 435.694226 137.991654 
L 435.269736 136.556469 
L 434.339898 135.202141 
L 433.834551 134.312724 
L 433.329203 133.423323 
L 432.823856 131.866844 
L 433.268564 126.085666 
L 434.622892 123.720643 
L 436.361289 121.476898 
L 438.039046 119.293793 
L 438.888027 117.979886 
L 440.909417 115.574442 
L 441.414765 114.685026 
L 442.324384 113.99776 
L 444.426632 112.380642 
L 444.952198 108.600652 
L 446.973588 104.092929 
L 446.468241 101.182153 
L 448.994979 97.725561 
L 450.005674 96.330797 
L 451.036587 95.683968 
L 451.663213 94.551964 
L 452.047282 91.13584 
L 452.936684 90.650695 
L 454.048455 89.357007 
L 454.553802 88.14416 
L 455.604918 86.102567 
L 456.918825 85.253587 
L 457.686963 83.474753 
L 457.909318 79.856478 
L 457.646527 78.967061 
L 459.42536 78.522353 
L 460.112626 77.693575 
L 461.123321 72.25603 
L 461.628668 65.140759 
L 462.558522 62.93742 
L 463.326629 61.158617 
L 464.539476 59.440423 
L 467.793915 58.207374 
L 468.683332 57.803102 
L 471.311115 56.287059 
L 472.726113 56.792406 
L 473.130385 59.440423 
L 472.746316 61.340535 
L 472.240968 62.614021 
L 471.230273 64.655614 
L 470.724925 66.171657 
L 470.219578 67.424909 
L 469.411034 68.718597 
L 468.925889 69.931444 
L 467.69284 71.265569 
L 467.187492 72.539024 
L 466.762986 73.893383 
L 466.378948 74.782768 
L 465.994879 76.68288 
L 465.61081 78.077645 
L 465.166102 80.301186 
L 464.660754 82.34278 
L 464.155406 86.607914 
L 464.660754 91.98482 
L 465.125665 94.147692 
L 465.509734 97.058499 
L 466.116158 98.675617 
L 466.78322 103.890808 
L 467.187492 105.750484 
L 467.69284 107.408008 
L 468.703535 110.298612 
L 469.208882 112.623199 
L 470.219578 114.402032 
L 470.987716 115.675502 
L 471.493063 116.686198 
L 471.877132 117.575614 
L 472.261171 118.465031 
L 472.746316 119.354432 
L 473.757011 121.03219 
L 474.262358 122.143961 
L 474.767706 123.073799 
L 475.192211 124.428126 
L 475.57625 125.317543 
L 475.596483 126.712292 
L 475.212414 129.117752 
L 474.767706 131.341278 
L 472.746316 134.252085 
L 471.230273 136.334115 
L 470.724925 137.223531 
L 467.935397 140.437535 
L 467.349207 141.185455 
L 465.732088 142.19615 
L 462.336167 144.21754 
L 458.616786 143.732411 
L 457.222052 144.076043 
L 453.805882 144.460113 
L 451.905786 144.844166 
" clip-path="url(#p3f5bd00c0b)" style="fill: none; stroke: #1f77b4; stroke-width: 1.5; stroke-linecap: square"/>
   </g>
  </g>
  <g id="axes_5">
   <g id="line2d_5">
    <path d="M 561.849341 145.228235 
L 560.114069 143.984303 
L 558.378759 142.74037 
L 557.887419 141.888279 
L 557.296543 140.675438 
L 556.251644 137.857931 
L 555.629678 136.682425 
L 555.007712 134.909817 
L 553.763779 132.589876 
L 551.897881 130.232638 
L 551.338096 129.119313 
L 550.846756 127.384022 
L 550.056847 125.972165 
L 549.242091 124.535424 
L 548.601467 122.650867 
L 545.149543 119.727618 
L 544.036218 119.105652 
L 542.742536 116.16997 
L 539.321722 114.615055 
L 538.214623 114.123696 
L 535.229192 110.522525 
L 533.238893 109.4092 
L 531.99496 107.673909 
L 529.507095 104.694685 
L 528.312911 102.984278 
L 527.796688 101.846088 
L 526.969481 100.396915 
L 525.781523 98.586991 
L 524.382099 96.5656 
L 523.287432 92.640995 
L 522.665466 89.12687 
L 522.0435 86.4711 
L 521.247384 84.897507 
L 520.177601 84.057868 
L 519.107818 80.095946 
L 516.881187 80.730326 
L 515.823837 80.892043 
L 517.06777 78.727612 
L 516.445803 76.177528 
L 514.430639 73.552849 
L 513.584755 72.085017 
L 512.608263 70.486559 
L 511.246174 68.502485 
L 510.226141 66.275836 
L 509.604174 64.671152 
L 510.568214 63.750654 
L 512.092039 61.872304 
L 511.63179 59.857139 
L 513.286223 58.774924 
L 518.815493 59.39689 
L 521.421533 58.152958 
L 523.386949 56.287059 
L 526.173365 56.909025 
L 531.292135 57.450133 
L 533.649393 57.941472 
L 534.762717 58.43285 
L 537.119956 58.92419 
L 538.233281 59.415567 
L 539.346606 60.018856 
L 540.839321 60.640823 
L 542.443986 61.262789 
L 544.757701 61.884755 
L 549.397583 61.27524 
L 550.510908 61.741715 
L 558.465843 61.536456 
L 565.798812 61.480462 
L 566.825071 61.97184 
L 570.295653 65.977304 
L 572.348135 68.651751 
L 574.63074 71.556323 
L 576.341147 74.510663 
L 576.832525 75.624007 
L 577.398498 78.379313 
L 578.020464 82.633541 
L 578.64243 86.328022 
L 579.264396 88.940288 
L 579.886363 90.76887 
L 580.402605 97.853056 
L 579.737097 100.59593 
L 579.009407 101.945605 
L 578.518029 103.05893 
L 579.251945 104.787995 
L 578.294131 107.014626 
L 577.043972 106.933768 
L 575.706768 107.114143 
L 574.817322 109.869449 
L 573.704016 110.398124 
L 571.514683 111.642057 
L 568.069004 115.075304 
L 565.581139 118.054527 
L 564.337206 119.789819 
L 563.230088 121.456684 
L 562.670341 123.260382 
L 562.179001 125.61764 
L 561.687624 127.974897 
L 561.196284 130.954102 
L 560.605408 138.336857 
L 561.227375 140.644347 
L 561.849341 142.280121 
L 563.093273 144.736877 
" clip-path="url(#pd1a4b33537)" style="fill: none; stroke: #1f77b4; stroke-width: 1.5; stroke-linecap: square"/>
   </g>
  </g>
  <g id="axes_6">
   <g id="line2d_6">
    <path d="M 637.004494 140.577832 
L 635.703707 136.595814 
L 637.057579 137.259483 
L 638.331833 136.436539 
L 636.792115 133.941135 
L 635.411691 133.012001 
L 632.863201 131.790851 
L 630.84564 131.472282 
L 630.155417 132.826174 
L 628.562614 132.799622 
L 627.049448 131.419198 
L 622.111743 125.977098 
L 621.102972 124.676311 
L 619.722528 122.632196 
L 617.306781 120.880119 
L 616.032526 118.942194 
L 615.342304 116.924632 
L 614.652102 115.570761 
L 613.961879 114.216869 
L 614.439722 112.358602 
L 615.767062 109.650818 
L 611.758491 108.721684 
L 609.369276 106.305916 
L 608.519779 102.138071 
L 609.103812 99.45686 
L 607.803025 97.439298 
L 607.139355 95.952685 
L 605.812016 90.537117 
L 606.475685 86.263082 
L 605.812016 80.767917 
L 605.148346 75.803681 
L 604.484676 73.228639 
L 605.148346 71.370331 
L 603.157337 68.68912 
L 601.405239 66.007909 
L 602.759131 65.317666 
L 604.113023 64.627464 
L 605.148346 65.238029 
L 607.511009 66.91049 
L 609.130364 65.875167 
L 608.864901 64.919481 
L 609.555123 66.007909 
L 612.900004 65.795529 
L 615.581235 65.105327 
L 622.74886 63.91069 
L 624.129305 61.202946 
L 629.040457 61.494962 
L 630.367796 63.512504 
L 632.305721 64.919481 
L 633.022475 62.344439 
L 633.022475 60.937462 
L 639.685705 62.238269 
L 641.039617 61.548027 
L 642.473126 61.601132 
L 645.84458 63.592141 
L 647.755952 64.255811 
L 649.587687 64.919481 
L 652.454745 65.58315 
L 653.808617 66.24682 
L 655.162489 65.58315 
L 655.321763 67.175974 
L 655.50761 68.821862 
L 658.215394 70.202306 
L 659.250717 73.892309 
L 661.639912 74.954164 
L 663.020356 77.661948 
L 664.639712 77.768117 
L 665.542293 78.431787 
L 664.878624 82.387273 
L 666.205963 85.333969 
L 665.542293 87.218768 
L 666.869633 91.041512 
L 667.533303 95.634136 
L 670.187982 100.598373 
L 669.524312 103.969806 
L 669.524312 105.403335 
L 670.187982 107.420897 
L 668.860642 109.438438 
L 668.196972 110.79233 
L 666.869633 112.809892 
L 666.338705 114.163784 
L 666.205963 115.517656 
L 665.542293 117.057375 
L 664.878624 119.526227 
L 665.542293 122.23399 
L 664.613139 122.393285 
L 662.595598 122.287095 
L 661.905396 123.640987 
L 662.250477 125.33998 
L 663.259268 127.676091 
L 662.887614 129.029982 
L 661.799186 129.959116 
L 658.215394 129.321999 
L 657.100433 131.286456 
L 655.746521 131.950125 
L 652.268898 135.799402 
L 649.269098 137.259483 
L 645.950749 137.923153 
L 643.136796 138.586823 
L 639.765342 139.250493 
" clip-path="url(#p6703ebaf87)" style="fill: none; stroke: #1f77b4; stroke-width: 1.5; stroke-linecap: square"/>
   </g>
   <g id="text_1">
    <!-- MCF10A -->
    <g transform="translate(594.868485 45.84) scale(0.2 -0.2)">
     <defs>
      <path id="DejaVuSans-4d" d="M 628 4666 
L 1569 4666 
L 2759 1491 
L 3956 4666 
L 4897 4666 
L 4897 0 
L 4281 0 
L 4281 4097 
L 3078 897 
L 2444 897 
L 1241 4097 
L 1241 0 
L 628 0 
L 628 4666 
z
" transform="scale(0.015625)"/>
      <path id="DejaVuSans-43" d="M 4122 4306 
L 4122 3641 
Q 3803 3938 3442 4084 
Q 3081 4231 2675 4231 
Q 1875 4231 1450 3742 
Q 1025 3253 1025 2328 
Q 1025 1406 1450 917 
Q 1875 428 2675 428 
Q 3081 428 3442 575 
Q 3803 722 4122 1019 
L 4122 359 
Q 3791 134 3420 21 
Q 3050 -91 2638 -91 
Q 1578 -91 968 557 
Q 359 1206 359 2328 
Q 359 3453 968 4101 
Q 1578 4750 2638 4750 
Q 3056 4750 3426 4639 
Q 3797 4528 4122 4306 
z
" transform="scale(0.015625)"/>
      <path id="DejaVuSans-46" d="M 628 4666 
L 3309 4666 
L 3309 4134 
L 1259 4134 
L 1259 2759 
L 3109 2759 
L 3109 2228 
L 1259 2228 
L 1259 0 
L 628 0 
L 628 4666 
z
" transform="scale(0.015625)"/>
      <path id="DejaVuSans-31" d="M 794 531 
L 1825 531 
L 1825 4091 
L 703 3866 
L 703 4441 
L 1819 4666 
L 2450 4666 
L 2450 531 
L 3481 531 
L 3481 0 
L 794 0 
L 794 531 
z
" transform="scale(0.015625)"/>
      <path id="DejaVuSans-30" d="M 2034 4250 
Q 1547 4250 1301 3770 
Q 1056 3291 1056 2328 
Q 1056 1369 1301 889 
Q 1547 409 2034 409 
Q 2525 409 2770 889 
Q 3016 1369 3016 2328 
Q 3016 3291 2770 3770 
Q 2525 4250 2034 4250 
z
M 2034 4750 
Q 2819 4750 3233 4129 
Q 3647 3509 3647 2328 
Q 3647 1150 3233 529 
Q 2819 -91 2034 -91 
Q 1250 -91 836 529 
Q 422 1150 422 2328 
Q 422 3509 836 4129 
Q 1250 4750 2034 4750 
z
" transform="scale(0.015625)"/>
      <path id="DejaVuSans-41" d="M 2188 4044 
L 1331 1722 
L 3047 1722 
L 2188 4044 
z
M 1831 4666 
L 2547 4666 
L 4325 0 
L 3669 0 
L 3244 1197 
L 1141 1197 
L 716 0 
L 50 0 
L 1831 4666 
z
" transform="scale(0.015625)"/>
     </defs>
     <use xlink:href="#DejaVuSans-4d"/>
     <use xlink:href="#DejaVuSans-43" x="86.279297"/>
     <use xlink:href="#DejaVuSans-46" x="156.103516"/>
     <use xlink:href="#DejaVuSans-31" x="213.623047"/>
     <use xlink:href="#DejaVuSans-30" x="277.246094"/>
     <use xlink:href="#DejaVuSans-41" x="340.869141"/>
    </g>
   </g>
  </g>
  <g id="axes_7">
   <g id="line2d_7">
    <path d="M 739.977129 126.562769 
L 738.775691 124.897476 
L 737.657776 122.796143 
L 736.920209 121.460193 
L 735.746631 121.979726 
L 733.807656 121.784908 
L 732.007835 122.387934 
L 730.639412 120.472147 
L 728.064936 117.285358 
L 724.882776 116.107123 
L 723.927204 114.966005 
L 722.350047 117.048779 
L 722.980904 118.843956 
L 722.864936 119.604711 
L 722.155215 118.018267 
L 721.445493 116.380805 
L 720.049253 114.966005 
L 719.09368 115.884474 
L 716.922755 113.249678 
L 714.464247 113.142997 
L 714.000376 115.708201 
L 713.01233 113.977958 
L 712.302608 112.804366 
L 711.681023 111.630775 
L 710.753282 109.993312 
L 708.781832 109.051655 
L 707.246422 108.675921 
L 705.970778 107.080205 
L 704.797186 106.616335 
L 703.159723 106.324094 
L 701.615026 107.080205 
L 698.957057 105.953003 
L 697.783465 106.133905 
L 695.691404 105.224723 
L 693.116928 105.679321 
L 692.198459 104.9696 
L 692.625226 102.868267 
L 692.481413 99.839192 
L 695.640385 98.266664 
L 698.228777 96.564267 
L 699.620388 95.390661 
L 701.012 92.950697 
L 701.596482 91.187995 
L 703.039112 88.817623 
L 704.259094 86.540003 
L 705.51155 84.814418 
L 708.675137 83.181584 
L 711.936147 81.567324 
L 713.276739 80.175712 
L 715.814112 79.247971 
L 717.479406 78.088294 
L 719.580739 76.928618 
L 720.754331 76.724514 
L 722.684034 77.392488 
L 727.962883 76.928618 
L 729.377683 75.467414 
L 730.551275 75.537006 
L 732.188752 74.975712 
L 733.48294 74.952525 
L 734.322545 76.376611 
L 736.173384 77.763579 
L 737.806218 78.32023 
L 739.91218 77.856359 
L 741.085786 78.501146 
L 743.187105 78.357347 
L 745.288452 78.7841 
L 746.452772 80.157167 
L 748.099507 81.103453 
L 749.291658 81.604441 
L 750.446691 83.223345 
L 752.594414 84.350547 
L 754.185487 83.886676 
L 755.359064 85.352495 
L 756.388872 86.846173 
L 757.60421 87.801745 
L 759.923563 92.58425 
L 760.981202 95.149468 
L 760.939441 96.323045 
L 759.459693 99.509834 
L 757.785127 101.332842 
L 754.635427 101.977629 
L 752.965505 103.800637 
L 752.715025 105.438099 
L 752.042407 106.152464 
L 750.868801 108.249154 
L 749.718411 109.909819 
L 750.182281 111.793132 
L 748.739651 111.25504 
L 747.862928 112.609549 
L 748.405649 117.364222 
L 750.089501 119.511931 
L 750.395672 122.13744 
L 750.757476 124.707287 
L 749.120028 124.377943 
L 747.946422 124.32691 
L 746.610472 124.104261 
L 745.135367 124.299079 
L 743.307716 122.387934 
L 741.832611 123.751715 
L 740.686864 125.389178 
" clip-path="url(#pf29c3ccfab)" style="fill: none; stroke: #1f77b4; stroke-width: 1.5; stroke-linecap: square"/>
   </g>
  </g>
  <g id="axes_8">
   <g id="line2d_8">
    <path d="M 788.434918 128.22126 
L 787.361109 127.642291 
L 785.792475 127.063337 
L 785.213506 125.989527 
L 784.634552 124.420894 
L 783.634965 122.926467 
L 782.99168 120.768973 
L 784.971039 117.240762 
L 786.950399 114.682448 
L 787.445238 113.608639 
L 788.286472 112.881224 
L 792.329306 109.417345 
L 794.927215 107.873447 
L 796.560196 105.953466 
L 798.826556 104.092863 
L 799.593551 102.984426 
L 800.805915 101.282176 
L 801.74117 100.950642 
L 802.93372 98.877262 
L 805.868132 96.437705 
L 806.941926 95.85872 
L 807.520896 94.784926 
L 810.663132 90.653025 
L 812.142698 88.63407 
L 813.295669 88.020473 
L 815.651111 86.159871 
L 818.253974 84.051848 
L 819.406944 81.909183 
L 820.480753 82.201152 
L 821.58919 78.910454 
L 822.133502 80.271264 
L 822.846072 81.478675 
L 824.28112 81.983421 
L 825.354914 81.404467 
L 825.933898 79.835803 
L 826.512853 77.277489 
L 827.091807 73.294034 
L 827.814284 80.013968 
L 829.239425 80.221792 
L 831.560225 79.157874 
L 832.871533 77.351727 
L 833.930497 75.797923 
L 835.444706 76.470898 
L 836.741184 78.430474 
L 837.661579 75.53072 
L 838.240564 76.584731 
L 838.819518 77.658525 
L 840.383199 76.76782 
L 841.046297 75.768233 
L 843.520497 74.778554 
L 844.351824 79.726952 
L 844.188518 81.048166 
L 845.183151 83.527319 
L 845.836344 84.680304 
L 846.331184 85.754098 
L 846.826023 87.174286 
L 847.320863 89.148693 
L 848.651984 90.61343 
L 850.220618 91.603109 
L 851.294442 92.112809 
L 851.279582 93.186603 
L 851.774422 94.443485 
L 851.279582 95.829031 
L 850.784742 97.254172 
L 850.289903 99.777874 
L 849.745591 101.549379 
L 848.696533 103.093292 
L 848.117548 106.146461 
L 847.538594 107.220255 
L 845.381099 108.882924 
L 844.401296 110.357538 
L 841.739055 114.365744 
L 838.789829 115.355423 
L 837.716035 115.850263 
L 836.64221 116.345103 
L 834.578737 117.829623 
L 833.465347 119.274562 
L 831.936278 119.808982 
L 830.862484 120.303822 
L 828.304171 122.283182 
L 826.735537 123.272861 
L 822.197833 119.314142 
L 820.688578 116.929011 
L 819.555405 116.345103 
L 817.511714 116.839943 
L 813.498555 117.334783 
L 811.880434 117.829623 
L 810.415712 118.324463 
L 808.743151 119.314142 
L 807.60501 119.937645 
L 806.100708 120.947108 
L 805.026899 121.526077 
L 803.45825 122.105047 
L 802.384455 122.684001 
L 800.815806 123.26297 
L 799.247172 124.262541 
L 797.025331 125.747061 
L 795.61505 126.241901 
L 792.403529 128.22126 
L 790.993247 127.72642 
" clip-path="url(#pb262860703)" style="fill: none; stroke: #1f77b4; stroke-width: 1.5; stroke-linecap: square"/>
   </g>
  </g>
  <g id="axes_9">
   <g id="line2d_9">
    <path d="M 877.773032 124.804383 
L 878.680456 121.864325 
L 878.226744 118.343529 
L 873.7849 114.822719 
L 874.597048 112.898985 
L 875.05076 111.601361 
L 876.411896 109.441701 
L 876.942745 108.393614 
L 877.537107 107.34554 
L 878.131469 105.390043 
L 877.31932 103.434545 
L 876.865608 102.200448 
L 877.31932 100.558013 
L 876.879219 98.475476 
L 877.473581 97.427403 
L 878.067942 96.379315 
L 878.662304 94.423818 
L 878.226744 91.892124 
L 878.680456 90.512822 
L 879.134168 89.464749 
L 879.678628 88.416675 
L 879.810195 86.914889 
L 879.959927 85.413104 
L 881.697638 84.877727 
L 884.324635 84.424015 
L 885.712992 83.970303 
L 887.328206 84.396793 
L 889.333619 83.298818 
L 893.054049 81.846934 
L 894.551307 82.155455 
L 895.603908 81.565635 
L 897.482283 80.140972 
L 902.690902 79.015776 
L 907.368657 78.525759 
L 908.416731 78.072047 
L 911.143545 76.710911 
L 913.23515 78.144629 
L 916.551784 78.73899 
L 917.599885 78.625562 
L 918.974618 78.979471 
L 923.507197 78.525759 
L 926.438186 78.979471 
L 929.060627 78.543897 
L 932.368206 79.582916 
L 937.045975 80.177277 
L 938.116729 80.771639 
L 937.780986 83.180848 
L 939.151206 85.00478 
L 941.583095 86.982957 
L 942.567643 87.599999 
L 940.612145 87.146287 
L 938.570441 88.421217 
L 938.062286 89.923002 
L 937.467924 91.424788 
L 935.966138 91.347665 
L 933.579609 91.728767 
L 934.033321 93.697889 
L 933.27563 95.313103 
L 931.33827 94.859391 
L 929.364634 94.274112 
L 927.590605 94.496427 
L 928.0534 96.138862 
L 929.142292 96.674239 
L 930.857337 98.275842 
L 929.115071 98.870203 
L 927.998957 99.260403 
L 926.565211 98.280383 
L 925.517138 98.384728 
L 922.164227 98.035375 
L 920.421961 99.119753 
L 920.467321 101.256733 
L 920.421961 103.030749 
L 919.677866 103.933631 
L 918.607113 104.959025 
L 915.939284 106.147748 
L 917.245977 108.130467 
L 915.57632 109.232984 
L 914.582689 110.680326 
L 913.534616 111.111358 
L 911.819571 111.628583 
L 910.077333 112.917123 
L 910.440297 114.015112 
L 910.894009 115.466996 
L 909.655384 115.398928 
L 907.718025 116.202008 
L 907.105524 116.478765 
L 903.335165 116.483307 
L 901.393278 117.51777 
L 900.00492 118.579454 
L 897.01496 118.638439 
L 894.651124 119.269091 
L 894.632972 120.267263 
L 892.745528 121.66469 
L 890.554106 122.159248 
L 888.144882 122.535823 
L 886.643096 121.628399 
L 885.250211 122.082111 
L 883.185813 122.567586 
L 882.13774 123.161948 
L 879.274818 123.75631 
" clip-path="url(#p81441c3b99)" style="fill: none; stroke: #1f77b4; stroke-width: 1.5; stroke-linecap: square"/>
   </g>
  </g>
  <g id="axes_10">
   <g id="line2d_10">
    <path d="M 996.633275 139.115175 
L 991.547923 137.832976 
L 989.874526 136.702887 
L 988.353271 135.855328 
L 986.071372 135.312021 
L 984.680505 133.35611 
L 980.616558 131.791381 
L 978.704121 129.857207 
L 977.139392 128.24902 
L 975.053092 127.314531 
L 972.945056 125.749802 
L 970.619699 123.967753 
L 968.576857 122.815943 
L 967.099076 120.990437 
L 965.642999 117.926174 
L 964.57812 116.948227 
L 966.077655 115.883332 
L 965.664736 112.710417 
L 966.208043 109.254971 
L 966.751351 107.690242 
L 966.316711 105.321428 
L 969.05497 103.669785 
L 969.511347 101.670417 
L 971.097813 98.997319 
L 971.64112 96.932756 
L 975.444274 95.650558 
L 978.899703 95.10725 
L 980.334044 93.629469 
L 981.551048 92.803631 
L 983.289639 90.217481 
L 984.02853 91.738736 
L 986.940667 91.304096 
L 988.222866 91.043319 
L 989.505081 90.825983 
L 991.200198 89.413396 
L 991.743506 87.392274 
L 992.286813 85.89274 
L 995.177214 88.04425 
L 998.306655 87.500942 
L 1002.653134 84.827878 
L 1004.891559 85.219043 
L 1006.825733 84.654015 
L 1009.194547 83.089286 
L 1012.649976 82.350396 
L 1013.932207 81.611472 
L 1016.301021 79.894634 
L 1018.365583 77.96046 
L 1019.452199 76.134954 
L 1021.62543 74.852723 
L 1023.255353 72.483909 
L 1024.341968 70.658403 
L 1026.167474 68.28959 
L 1027.297563 66.072885 
L 1028.145122 64.638545 
L 1028.68843 63.356346 
L 1030.209685 62.400119 
L 1029.775045 65.312241 
L 1029.231738 66.594472 
L 1028.210316 67.333363 
L 1027.601814 68.615561 
L 1027.058507 69.897759 
L 1026.515199 71.701545 
L 1025.080859 73.722667 
L 1024.711413 77.004233 
L 1023.79866 79.481715 
L 1024.341968 83.58912 
L 1024.885276 86.023161 
L 1025.558972 88.174639 
L 1027.058507 89.652453 
L 1026.515199 92.129935 
L 1026.080559 96.302534 
L 1026.210948 98.12804 
L 1026.971592 100.453413 
L 1028.297264 101.235777 
L 1028.340705 104.147898 
L 1029.231738 106.516712 
L 1029.775045 108.342218 
L 1030.318353 110.406797 
L 1030.035822 112.210583 
L 1032.795835 116.535308 
L 1033.360863 118.79547 
L 1031.948276 121.990122 
L 1032.491584 124.185073 
L 1030.513936 124.989174 
L 1029.492515 127.423199 
L 1029.992382 129.118316 
L 1029.253458 130.400514 
L 1027.601814 131.856592 
L 1025.406863 133.682098 
L 1023.77694 134.247142 
L 1021.734098 135.203352 
L 1020.669203 136.811555 
L 1019.387005 137.485251 
L 1017.843996 138.028559 
L 1014.910154 138.571867 
L 1012.823838 138.137227 
L 1011.54164 138.267616 
L 1009.716134 138.52841 
L 1004.087441 138.028559 
L 1000.718943 138.571867 
" clip-path="url(#p2157381f8d)" style="fill: none; stroke: #1f77b4; stroke-width: 1.5; stroke-linecap: square"/>
   </g>
  </g>
  <g id="axes_11">
   <g id="line2d_11">
    <path d="M 183.048881 262.630588 
L 181.586838 262.021402 
L 179.759279 260.80303 
L 178.601829 260.193844 
L 176.469678 259.706502 
L 177.261612 258.061692 
L 178.297236 256.416882 
L 178.784578 254.833013 
L 180.00295 252.761765 
L 180.612136 251.116974 
L 180.00295 249.228493 
L 179.576512 246.974497 
L 179.150093 245.329706 
L 178.723655 244.294082 
L 178.175392 242.771116 
L 175.738647 239.786108 
L 174.39843 238.263143 
L 172.814561 237.166615 
L 171.230673 233.755169 
L 169.524941 231.44025 
L 167.819227 229.125351 
L 167.210041 228.089727 
L 165.991669 225.957575 
L 165.382483 224.190939 
L 164.895141 223.155334 
L 165.07789 221.510524 
L 165.504327 218.647341 
L 165.991669 217.063472 
L 165.382483 215.235914 
L 164.773297 211.88539 
L 165.382483 206.585463 
L 165.80892 204.331467 
L 166.23534 203.295843 
L 166.661777 202.260257 
L 167.210041 201.224633 
L 167.819227 199.884416 
L 168.428413 198.544199 
L 168.976677 197.508575 
L 169.403115 189.771941 
L 169.829534 186.299572 
L 170.255972 184.654762 
L 169.646786 181.486987 
L 170.255972 179.293932 
L 170.865158 177.892811 
L 171.352499 176.857187 
L 172.692716 176.126156 
L 174.032933 175.395126 
L 175.068539 174.907784 
L 178.175392 173.689412 
L 180.368465 174.298598 
L 182.439695 175.51697 
L 182.866132 176.552594 
L 183.29257 178.197404 
L 183.718971 180.451363 
L 184.267253 181.974328 
L 184.876439 183.131797 
L 185.485625 184.289265 
L 186.033908 185.812231 
L 186.460308 188.06619 
L 186.886746 189.101814 
L 187.313184 190.746624 
L 187.92237 191.782248 
L 189.749928 194.036244 
L 190.968301 195.681017 
L 191.942984 197.203982 
L 192.491266 198.36145 
L 192.917704 199.397074 
L 193.405045 201.529226 
L 194.014231 203.417688 
L 194.623417 204.940653 
L 195.232604 205.976277 
L 195.659041 210.667018 
L 196.085479 212.311828 
L 196.572821 214.017542 
L 197.669348 215.601411 
L 198.88772 218.464593 
L 198.278534 220.840415 
L 197.730252 222.363381 
L 198.034845 224.008191 
L 198.095786 225.652982 
L 197.669348 227.906978 
L 197.060162 228.942602 
L 196.450976 230.952909 
L 195.232604 234.24251 
L 194.745262 236.922926 
L 194.318824 237.95855 
L 193.52689 240.578043 
L 191.577487 244.172256 
L 192.186673 245.695221 
L 191.577487 246.974497 
L 189.749928 249.228493 
L 190.176366 252.700862 
L 190.846456 253.980138 
L 191.63839 255.381277 
L 192.186673 256.416882 
L 192.795859 257.452506 
L 193.405045 258.731801 
L 192.856763 260.742107 
L 191.21199 261.168545 
L 189.993618 261.777731 
" clip-path="url(#p6353ccbd4d)" style="fill: none; stroke: #ff7f0e; stroke-width: 1.5; stroke-linecap: square"/>
   </g>
  </g>
  <g id="axes_12">
   <g id="line2d_12">
    <path d="M 259.06026 251.8027 
L 257.900654 249.551035 
L 255.615215 248.425203 
L 253.892693 247.862286 
L 252.237717 248.425203 
L 250.841679 247.862286 
L 248.26353 248.425203 
L 246.884378 247.862286 
L 244.852259 247.29937 
L 243.557541 246.736454 
L 242.172771 245.160295 
L 242.735688 241.49007 
L 242.172771 239.013241 
L 241.046939 236.727803 
L 239.921106 232.550956 
L 239.35819 228.469813 
L 238.795274 226.786699 
L 238.232357 225.058542 
L 238.795274 223.61186 
L 238.232357 221.88932 
L 238.795274 220.504551 
L 239.35819 218.652552 
L 239.921106 216.721753 
L 239.35819 214.999231 
L 240.326407 214.087309 
L 241.609855 212.539289 
L 242.172771 210.957496 
L 242.735688 209.690934 
L 244.424437 207.422365 
L 246.113186 205.15383 
L 250.0536 200.633596 
L 250.616516 199.490894 
L 251.179432 198.348157 
L 251.742348 196.648173 
L 252.316517 195.511071 
L 254.022152 194.385239 
L 255.772831 193.259406 
L 258.559256 191.570657 
L 259.701993 191.007741 
L 261.131788 190.444825 
L 265.364929 188.30575 
L 266.507649 188.626616 
L 267.796715 187.900432 
L 269.356004 186.904094 
L 270.498723 186.324273 
L 271.641443 185.744488 
L 272.784162 185.164667 
L 274.489781 185.941494 
L 276.195433 184.815662 
L 277.338136 184.5173 
L 278.480872 184.534204 
L 281.312358 184.551108 
L 282.45506 185.130894 
L 284.594135 186.707052 
L 286.429247 187.979249 
L 287.206075 188.924944 
L 288.331907 190.827604 
L 292.18227 193.259406 
L 293.814706 193.822323 
L 295.953781 194.948155 
L 297.113388 196.411724 
L 299.494547 197.104134 
L 299.106133 198.246836 
L 300.530294 200.954462 
L 301.796855 201.658108 
L 302.376675 202.800844 
L 303.508143 206.746893 
L 304.65648 208.463781 
L 305.219396 209.606483 
L 304.65648 210.749219 
L 306.345228 213.017754 
L 306.834963 214.160491 
L 306.43528 215.303193 
L 307.0151 217.571762 
L 306.851867 221.461516 
L 304.375021 225.064177 
L 303.373014 226.629083 
L 302.793228 228.897635 
L 302.213408 230.411881 
L 301.070706 230.974798 
L 297.338568 234.577458 
L 295.086903 237.893044 
L 294.265032 239.159605 
L 292.283591 239.40729 
L 291.416677 241.400001 
L 289.654747 241.107291 
L 286.879574 242.79604 
L 283.828577 245.953992 
L 281.576912 248.785477 
L 280.259672 249.742425 
L 279.494115 251.070916 
L 278.351412 250.828849 
L 277.208676 250.249046 
L 276.065974 250.55866 
L 273.797404 250.215272 
L 268.714271 249.635469 
L 265.319887 250.046404 
L 263.664911 249.551035 
L 261.942389 250.113951 
L 260.20298 251.239784 
" clip-path="url(#p7af6fbaa34)" style="fill: none; stroke: #ff7f0e; stroke-width: 1.5; stroke-linecap: square"/>
   </g>
  </g>
  <g id="axes_13">
   <g id="line2d_13">
    <path d="M 344.979672 247.237623 
L 344.027569 246.722974 
L 342.921079 244.973174 
L 342.406431 243.866683 
L 340.862486 241.885285 
L 339.704528 240.547196 
L 336.693833 237.973955 
L 335.74173 237.485033 
L 334.789644 237.047595 
L 333.503023 236.275622 
L 332.370791 234.628742 
L 330.904041 233.67664 
L 329.951938 233.239186 
L 329.565952 231.257803 
L 330.054874 229.84252 
L 329.025578 226.394371 
L 329.540226 224.490166 
L 329.025578 223.332208 
L 329.540226 222.380121 
L 330.569522 220.913371 
L 331.084171 219.961269 
L 332.396517 218.134274 
L 332.988375 217.027768 
L 333.425814 216.075681 
L 334.274996 213.167906 
L 335.330018 211.598236 
L 335.81894 210.594665 
L 336.745301 207.223726 
L 338.083389 206.580416 
L 340.347838 203.852787 
L 341.11981 202.977879 
L 342.946805 201.948582 
L 346.008968 199.787053 
L 346.60081 199.298131 
L 348.067561 197.368201 
L 349.611505 195.386818 
L 350.126153 194.434731 
L 350.640802 193.019449 
L 351.15545 191.192422 
L 352.339134 189.082377 
L 354.243339 190.111674 
L 355.555686 191.938669 
L 357.948812 194.846443 
L 359.672871 196.055854 
L 361.036701 196.905036 
L 362.735034 198.088721 
L 364.073107 198.912145 
L 365.025225 199.375341 
L 365.977311 199.889989 
L 366.929429 200.404638 
L 368.910812 201.948582 
L 370.377547 202.977879 
L 371.844313 204.007175 
L 372.7964 204.521823 
L 373.748518 204.985019 
L 375.215253 205.422457 
L 376.167339 205.859896 
L 377.582622 206.76053 
L 379.10084 207.7641 
L 380.207346 208.355958 
L 382.548989 209.668305 
L 383.063637 210.620392 
L 384.967842 212.241546 
L 386.717627 213.270842 
L 387.901343 213.78549 
L 391.941319 217.388028 
L 392.893405 217.902676 
L 393.845523 218.391598 
L 395.826906 218.829036 
L 397.80832 219.266506 
L 397.731111 220.218593 
L 396.779024 220.656047 
L 395.826906 221.093501 
L 394.87482 221.530939 
L 393.459537 222.019861 
L 391.42667 223.563806 
L 386.151527 229.327872 
L 385.636878 230.48583 
L 383.423897 232.827473 
L 381.005045 234.96326 
L 380.490396 235.915362 
L 379.023662 236.352817 
L 377.042247 236.790271 
L 375.575513 237.227709 
L 374.623395 237.665163 
L 373.15666 238.102617 
L 372.204573 238.540071 
L 371.252455 239.003252 
L 369.888656 239.5179 
L 368.4991 240.032548 
L 366.85222 240.547196 
L 365.025225 241.061844 
L 362.065998 242.091141 
L 357.794408 242.605789 
L 356.3534 242.142609 
L 352.828056 242.477127 
L 350.846658 242.914581 
L 349.662973 243.583617 
L 347.449977 244.767318 
L 345.931774 246.800168 
" clip-path="url(#pb9fadc0af0)" style="fill: none; stroke: #ff7f0e; stroke-width: 1.5; stroke-linecap: square"/>
   </g>
  </g>
  <g id="axes_14">
   <g id="line2d_14">
    <path d="M 456.782207 243.022293 
L 455.677701 241.477746 
L 451.932965 237.301765 
L 450.595238 236.861725 
L 449.653544 235.89363 
L 446.617267 233.297393 
L 444.381867 232.461319 
L 441.508402 233.3414 
L 439.110176 232.971768 
L 437.521636 235.440389 
L 436.496334 234.177475 
L 436.368718 232.632941 
L 436.1003 231.475632 
L 434.225723 229.381035 
L 432.078322 228.562566 
L 429.939732 228.368947 
L 429.570099 225.790302 
L 429.350079 223.510895 
L 427.660325 221.460304 
L 426.555818 221.020264 
L 425.451312 218.732047 
L 424.474422 216.875089 
L 423.145504 215.299736 
L 421.376546 214.859696 
L 420.258839 214.31405 
L 419.818798 212.879513 
L 420.373254 211.224956 
L 421.037706 210.12045 
L 422.019001 209.332787 
L 422.459042 207.911464 
L 423.031089 205.486837 
L 422.982691 201.742087 
L 422.459042 200.056724 
L 422.019001 197.557297 
L 420.980512 194.899461 
L 420.192835 193.297707 
L 421.297328 193.896156 
L 422.841875 193.794955 
L 427.466706 193.297707 
L 428.179569 194.521033 
L 427.915542 201.394464 
L 428.980446 203.339436 
L 429.499691 205.548449 
L 429.939732 206.908159 
L 430.186153 208.892746 
L 431.19385 211.713395 
L 432.579975 215.062124 
L 435.620657 217.059899 
L 438.071686 219.031272 
L 439.607424 221.00705 
L 442.480888 221.460304 
L 444.914312 221.033464 
L 449.107898 221.653923 
L 451.101282 221.460304 
L 453.499495 220.580223 
L 455.946119 219.216108 
L 457.715091 217.887177 
L 459.514869 216.619858 
L 462.133089 215.739777 
L 463.862472 215.260121 
L 464.966951 214.595682 
L 467.145158 213.979614 
L 471.998818 213.539574 
L 474.881079 211.722204 
L 474.982279 209.297576 
L 475.263912 207.929056 
L 475.703952 204.747572 
L 475.338711 202.023719 
L 475.105504 197.539705 
L 474.383831 195.854342 
L 474.823871 194.749836 
L 475.703952 194.362598 
L 476.143993 197.715705 
L 476.685234 203.079801 
L 476.584034 204.835558 
L 476.364013 206.718945 
L 477.692944 209.808038 
L 479.224277 210.815722 
L 478.344196 215.748586 
L 479.805134 218.960877 
L 483.536669 221.812331 
L 488.601541 221.596716 
L 488.544333 222.701222 
L 486.713776 223.220467 
L 483.765499 223.660507 
L 482.150558 224.694605 
L 479.470699 226.49437 
L 478.621424 227.8981 
L 477.516917 227.233635 
L 474.920667 228.060913 
L 472.315635 228.940994 
L 471.123142 229.561453 
L 470.018636 230.225919 
L 468.914129 230.701157 
L 467.395984 231.141197 
L 465.869056 232.175295 
L 462.590748 235.013549 
L 461.415847 236.421684 
L 459.422451 240.338043 
L 458.111138 241.253335 
" clip-path="url(#p9229538fad)" style="fill: none; stroke: #ff7f0e; stroke-width: 1.5; stroke-linecap: square"/>
   </g>
  </g>
  <g id="axes_15">
   <g id="line2d_15">
    <path d="M 539.472822 251.512018 
L 537.407894 249.123583 
L 535.466857 246.817743 
L 534.214129 244.876706 
L 531.984014 243.252306 
L 529.354667 241.187378 
L 527.895455 240.62296 
L 526.19533 240.299453 
L 524.660414 239.81076 
L 523.641708 238.805834 
L 522.67808 236.782203 
L 522.031067 235.446881 
L 520.888471 233.42325 
L 519.436149 231.551048 
L 518.424333 231.151838 
L 518.066399 230.105594 
L 516.400702 228.797811 
L 512.663167 225.390671 
L 511.995506 223.346392 
L 510.612018 222.603027 
L 510.839151 214.756284 
L 511.252141 213.74449 
L 511.94045 212.732653 
L 512.497979 211.720859 
L 512.821485 210.709022 
L 513.317069 209.697228 
L 514.693688 207.845674 
L 515.168623 206.296978 
L 515.492129 204.596875 
L 516.070306 203.585038 
L 517.446925 201.747264 
L 517.839266 199.496479 
L 518.107696 197.108066 
L 517.446925 196.09623 
L 518.121475 195.084435 
L 518.444982 193.384289 
L 519.456797 193.005728 
L 523.455872 190.9408 
L 526.986881 190.348864 
L 527.998697 190.479644 
L 529.561173 190.9408 
L 531.268166 190.25249 
L 533.787381 189.743148 
L 535.232834 188.985983 
L 538.343985 186.810944 
L 540.677363 185.434325 
L 544.029426 185.007577 
L 545.729572 184.807982 
L 546.741367 185.434325 
L 548.420843 186.831613 
L 550.141616 189.220027 
L 552.530029 190.9408 
L 554.147581 191.629109 
L 555.930279 192.255452 
L 559.530165 193.102101 
L 561.395456 194.382346 
L 563.728835 195.070655 
L 567.548943 195.614405 
L 569.249089 195.937932 
L 570.763378 196.447274 
L 571.823359 197.273254 
L 571.362203 198.285048 
L 571.424128 200.177899 
L 573.199978 205.73256 
L 573.888287 208.891918 
L 574.64541 210.282274 
L 575.278685 211.603858 
L 575.953215 212.615653 
L 577.935549 214.949031 
L 578.610078 216.31187 
L 579.394761 217.716027 
L 578.018143 219.416152 
L 579.174497 221.006145 
L 578.706452 222.128092 
L 576.55893 224.750549 
L 575.436983 227.249115 
L 573.888287 229.788978 
L 573.199978 231.1243 
L 571.837139 233.602217 
L 570.956083 235.171562 
L 569.758431 237.195193 
L 569.070122 238.530514 
L 568.69845 240.182452 
L 567.686613 240.492179 
L 566.014027 239.81076 
L 564.286364 240.464662 
L 563.274569 240.788168 
L 562.262733 241.187378 
L 561.003157 241.875687 
L 559.550792 242.446975 
L 557.024709 243.596461 
L 554.615627 246.535534 
L 553.927317 247.547349 
L 553.438603 248.070471 
L 550.926299 250.135399 
L 549.350044 249.688002 
L 546.273321 249.529683 
L 545.261485 250.135399 
L 544.1258 250.823708 
L 541.172947 251.188511 
" clip-path="url(#pbdf9dc7420)" style="fill: none; stroke: #ff7f0e; stroke-width: 1.5; stroke-linecap: square"/>
   </g>
  </g>
  <g id="axes_16">
   <g id="line2d_16">
    <path d="M 648.399659 253.234929 
L 644.191533 250.671597 
L 642.845773 247.809204 
L 640.837825 245.972155 
L 637.804559 244.263267 
L 637.719109 246.719794 
L 637.719109 249.26177 
L 637.868626 250.821127 
L 633.617775 250.842483 
L 630.221368 249.154964 
L 628.961058 248.108265 
L 626.889029 247.253821 
L 622.424567 248.108265 
L 619.049502 248.962709 
L 616.229848 248.108265 
L 615.183148 246.506183 
L 613.709227 244.177817 
L 610.740042 244.626408 
L 609.009785 243.921495 
L 607.386347 245.096355 
L 607.813569 242.127157 
L 608.646657 239.585181 
L 607.429072 237.47044 
L 609.522457 235.355686 
L 609.095235 230.250391 
L 608.347596 226.426748 
L 608.368952 224.739216 
L 608.390321 223.051697 
L 605.164787 219.826163 
L 603.071402 218.587235 
L 601.405239 215.639393 
L 603.028677 213.16151 
L 602.174233 209.145613 
L 602.558743 205.941448 
L 602.558743 203.549015 
L 602.900516 199.832179 
L 605.335686 198.635962 
L 609.714712 198.123291 
L 612.513011 194.705515 
L 614.243255 191.266383 
L 616.358009 191.287739 
L 619.348563 188.40399 
L 621.86917 186.118363 
L 623.983924 184.024964 
L 626.098665 183.085071 
L 627.358976 186.161074 
L 629.046508 186.460135 
L 632.015693 185.88337 
L 636.266544 183.768642 
L 638.80852 183.405487 
L 643.486606 184.665797 
L 645.60136 184.259931 
L 648.143337 183.768642 
L 651.112509 183.597742 
L 652.244657 185.00757 
L 650.322158 185.733852 
L 647.117993 187.955412 
L 644.554661 190.070166 
L 642.803061 189.963361 
L 637.270531 190.027428 
L 634.301333 190.860517 
L 632.613801 191.714961 
L 629.601891 196.328953 
L 629.601891 199.340863 
L 632.336109 203.249955 
L 635.048972 203.677177 
L 639.342548 204.531621 
L 643.272995 202.267349 
L 642.845773 199.575856 
L 645.644072 199.212702 
L 649.040492 202.1819 
L 652.629168 203.634465 
L 655.320661 205.044292 
L 659.122921 205.770575 
L 661.088158 200.131239 
L 660.789097 197.696069 
L 663.352429 199.917628 
L 666.770205 202.032382 
L 665.488539 204.574332 
L 663.779651 208.397975 
L 664.634095 210.085507 
L 665.445828 215.212171 
L 668.00916 216.066615 
L 669.333538 219.847532 
L 669.333538 223.073053 
L 670.187982 225.572304 
L 668.051871 227.644334 
L 666.492501 227.879301 
L 664.377773 226.918051 
L 662.263019 227.409354 
L 659.934653 230.592163 
L 658.460732 231.019385 
L 654.807989 234.180825 
L 654.807989 236.017888 
L 653.953545 240.119208 
L 654.060351 241.806741 
L 655.320661 244.775939 
L 656.388716 247.253821 
L 654.295318 246.399377 
L 648.399659 250.308456 
" clip-path="url(#p72c66c694d)" style="fill: none; stroke: #ff7f0e; stroke-width: 1.5; stroke-linecap: square"/>
   </g>
   <g id="text_2">
    <!-- MCF7 -->
    <g transform="translate(608.07161 163.242353) scale(0.2 -0.2)">
     <defs>
      <path id="DejaVuSans-37" d="M 525 4666 
L 3525 4666 
L 3525 4397 
L 1831 0 
L 1172 0 
L 2766 4134 
L 525 4134 
L 525 4666 
z
" transform="scale(0.015625)"/>
     </defs>
     <use xlink:href="#DejaVuSans-4d"/>
     <use xlink:href="#DejaVuSans-43" x="86.279297"/>
     <use xlink:href="#DejaVuSans-46" x="156.103516"/>
     <use xlink:href="#DejaVuSans-37" x="213.623047"/>
    </g>
   </g>
  </g>
  <g id="axes_17">
   <g id="line2d_17">
    <path d="M 714.506376 249.143217 
L 711.333697 247.829532 
L 708.780683 247.135511 
L 707.194344 244.309843 
L 704.913965 241.4098 
L 703.352417 241.583305 
L 702.732753 240.021757 
L 701.592573 239.228588 
L 700.87376 238.014051 
L 697.106209 236.700366 
L 697.155774 235.26274 
L 696.337812 233.651609 
L 695.643791 230.900297 
L 694.677117 228.818234 
L 692.818124 224.753238 
L 694.057452 222.621591 
L 692.768559 220.068558 
L 692.198459 217.515544 
L 693.437788 215.383916 
L 692.818124 212.855675 
L 693.437788 210.847968 
L 694.057452 208.840262 
L 694.677117 207.229112 
L 694.057452 205.915426 
L 695.767732 204.676098 
L 694.677117 203.90772 
L 694.131809 202.668391 
L 695.445494 202.048727 
L 696.75918 201.429063 
L 697.775438 200.214507 
L 697.155774 198.578622 
L 699.014767 196.025608 
L 700.675463 194.811052 
L 702.707961 194.017863 
L 703.401982 190.894769 
L 704.591746 191.638373 
L 705.608005 192.753762 
L 708.582386 190.894769 
L 710.243082 190.275104 
L 711.408054 189.234073 
L 713.514909 188.416111 
L 714.456811 190.225521 
L 715.770496 189.630667 
L 719.562839 188.936646 
L 720.25686 187.622923 
L 722.19021 187.424663 
L 724.743224 188.118684 
L 726.056928 188.812706 
L 727.370614 188.564825 
L 728.684299 187.870804 
L 729.37832 187.176783 
L 731.31167 187.870804 
L 732.774069 188.118684 
L 734.558705 187.399853 
L 737.111719 187.49902 
L 740.036554 187.920387 
L 741.598083 188.862251 
L 744.151135 189.55631 
L 745.46482 190.250331 
L 746.158841 192.134097 
L 747.348586 192.877702 
L 748.786212 194.612755 
L 749.480233 195.505073 
L 749.480233 196.818758 
L 749.628946 198.132444 
L 750.942632 197.835017 
L 753.495646 199.57007 
L 755.428996 200.214507 
L 756.643551 200.908528 
L 757.263216 202.395737 
L 756.891432 204.155601 
L 758.205118 204.205147 
L 759.518803 204.527384 
L 760.361538 205.618 
L 758.576901 206.312021 
L 760.361538 209.484699 
L 760.981202 211.021455 
L 759.122209 215.210392 
L 758.502544 216.970236 
L 757.88288 219.374537 
L 756.519611 220.638657 
L 755.404223 223.935276 
L 754.784558 226.637004 
L 752.950338 228.07463 
L 751.636653 229.983187 
L 750.818691 232.040478 
L 749.628946 234.46957 
L 748.934925 237.369595 
L 747.968251 238.33627 
L 745.68789 240.046549 
L 744.250264 241.583305 
L 737.012589 243.987606 
L 736.169855 245.400439 
L 734.236505 244.904716 
L 731.683453 245.598737 
L 729.130439 246.292758 
L 726.577425 246.986779 
L 724.2475 248.077394 
L 722.388507 247.730383 
L 717.505549 247.903889 
" clip-path="url(#p1059c5e5f9)" style="fill: none; stroke: #ff7f0e; stroke-width: 1.5; stroke-linecap: square"/>
   </g>
  </g>
  <g id="axes_18">
   <g id="line2d_18">
    <path d="M 824.501674 250.299603 
L 822.960576 247.960006 
L 822.505426 246.075546 
L 820.760706 242.965388 
L 819.135757 241.739688 
L 816.137388 240.31836 
L 813.889622 239.687551 
L 812.915452 237.922862 
L 811.725683 237.57152 
L 810.883272 235.483452 
L 809.729434 232.81247 
L 808.348034 230.153465 
L 806.934686 229.075486 
L 804.503257 226.707938 
L 802.511005 225.54612 
L 798.270962 225.14687 
L 796.202852 224.396279 
L 797.352693 222.028731 
L 797.352693 218.080145 
L 798.550442 216.227621 
L 799.189244 212.530589 
L 798.949692 211.149176 
L 797.999475 209.424414 
L 796.554193 207.424169 
L 794.430182 205.455871 
L 792.461884 204.385884 
L 791.148349 203.771049 
L 787.595028 201.191887 
L 784.161478 199.978176 
L 782.99168 199.207627 
L 784.177452 196.480745 
L 786.1737 193.809763 
L 787.579055 191.801525 
L 790.345865 193.785809 
L 792.809229 194.803891 
L 794.637799 196.081495 
L 797.51239 197.359099 
L 800.167398 198.796388 
L 803.077932 198.532894 
L 804.247731 198.397138 
L 806.535436 197.279244 
L 807.142292 199.004006 
L 809.777342 200.792637 
L 812.124933 198.405131 
L 812.891497 199.962191 
L 816.496722 202.389636 
L 818.337257 201.367557 
L 819.878356 200.792637 
L 821.674979 201.15994 
L 823.359826 201.191887 
L 826.098673 201.191887 
L 827.468097 200.565062 
L 831.432644 199.594888 
L 833.065586 198.616721 
L 835.281417 195.913817 
L 837.277666 194.684121 
L 837.708862 193.206892 
L 839.67716 190.008898 
L 840.447709 188.839099 
L 840.870913 187.27005 
L 841.589558 186.020397 
L 842.467912 188.383948 
L 841.805168 190.675638 
L 842.068662 193.84171 
L 845.869527 195.394773 
L 847.837826 194.803891 
L 849.957841 194.101207 
L 851.774422 193.330658 
L 851.55484 195.203141 
L 850.520772 196.868005 
L 849.614492 197.638554 
L 847.634204 198.397138 
L 845.294607 199.195638 
L 840.779093 202.082206 
L 839.018388 203.986635 
L 837.776728 205.483821 
L 837.277666 207.05287 
L 835.43713 211.815916 
L 834.450971 214.798324 
L 833.684418 216.339422 
L 833.125459 218.519322 
L 832.486669 222.084619 
L 832.191228 229.243176 
L 832.885919 230.963942 
L 833.732326 233.179773 
L 834.482917 234.369541 
L 835.680667 237.499658 
L 839.237971 239.883179 
L 840.551518 242.394463 
L 841.976843 243.911607 
L 843.945141 244.031378 
L 845.705821 244.310857 
L 844.240582 244.933686 
L 842.875155 245.508606 
L 841.102485 245.740166 
L 837.656958 245.907856 
L 835.568865 245.620396 
L 833.201317 247.105605 
L 830.721992 247.672545 
L 828.865471 248.303354 
" clip-path="url(#p4ee1a07cf1)" style="fill: none; stroke: #ff7f0e; stroke-width: 1.5; stroke-linecap: square"/>
   </g>
  </g>
  <g id="axes_19">
   <g id="line2d_19">
    <path d="M 929.60064 243.058446 
L 927.450289 241.967057 
L 926.719084 241.279084 
L 925.310733 240.209306 
L 924.918111 239.139528 
L 923.171176 236.989166 
L 922.036555 234.118416 
L 921.107247 232.043703 
L 919.961831 231.532222 
L 917.451286 230.909081 
L 914.400427 230.451638 
L 911.709773 231.053168 
L 909.919606 230.811833 
L 908.630114 231.611465 
L 907.210947 233.275562 
L 906.54819 232.054508 
L 903.839532 230.264341 
L 901.505467 230.988324 
L 900.259197 231.72673 
L 897.899916 230.811833 
L 895.598279 232.036492 
L 894.035036 233.693389 
L 892.976063 232.72807 
L 890.775269 231.892416 
L 887.357027 231.431368 
L 885.026568 231.892416 
L 882.696109 235.573605 
L 881.352579 236.21475 
L 879.115774 235.796923 
L 877.638975 235.134167 
L 874.815051 233.297173 
L 874.130684 231.816778 
L 873.7849 229.371054 
L 875.222072 229.000055 
L 877.711018 226.871304 
L 879.173407 224.742553 
L 881.579504 221.922234 
L 882.054963 220.445424 
L 882.72492 219.33604 
L 883.135547 214.848009 
L 883.783892 211.073177 
L 884.21613 209.282999 
L 885.109416 207.586497 
L 885.912643 210.176296 
L 888.812216 211.721523 
L 889.510994 212.91016 
L 889.619048 214.466203 
L 889.406534 215.323468 
L 889.705491 217.210884 
L 891.992728 218.565219 
L 894.481674 218.745316 
L 896.632036 218.205024 
L 897.701814 217.686343 
L 899.491981 216.404052 
L 902.499608 215.770106 
L 905.953872 217.484635 
L 910.98579 217.960095 
L 913.089313 218.565219 
L 915.646708 219.019067 
L 917.159529 219.645802 
L 920.163539 218.997457 
L 923.545771 216.764246 
L 927.489905 214.192452 
L 929.60064 211.681907 
L 929.989656 210.612118 
L 931.761807 207.381183 
L 932.489407 205.591005 
L 932.485801 203.440654 
L 932.84239 202.010671 
L 933.537563 200.580709 
L 933.922974 199.186758 
L 934.596536 198.080958 
L 935.003558 196.29078 
L 935.655509 195.221013 
L 937.445687 193.351602 
L 938.515454 193.261554 
L 939.325892 194.230478 
L 940.65501 196.121499 
L 941.126864 197.429007 
L 942.074178 199.341639 
L 942.567643 201.059774 
L 941.692372 205.80353 
L 942.207448 208.342897 
L 941.126864 209.744059 
L 940.247989 212.240204 
L 938.605503 214.567068 
L 938.814422 216.555327 
L 938.245308 217.625116 
L 934.384034 222.06631 
L 933.202585 223.726801 
L 932.734336 225.516969 
L 932.122001 227.307136 
L 931.675364 228.737109 
L 931.041418 230.963119 
L 930.746056 233.758221 
L 931.401612 235.71048 
L 930.954975 238.102166 
L 929.960834 239.488917 
L 929.643861 240.580306 
L 931.041418 241.650084 
" clip-path="url(#p71e005ad58)" style="fill: none; stroke: #ff7f0e; stroke-width: 1.5; stroke-linecap: square"/>
   </g>
  </g>
  <g id="axes_20">
   <g id="line2d_20">
    <path d="M 1020.39386 243.058446 
L 1018.243509 241.967057 
L 1017.512304 241.279084 
L 1016.103953 240.209306 
L 1015.711331 239.139528 
L 1013.964397 236.989166 
L 1012.829775 234.118416 
L 1011.900467 232.043703 
L 1010.755051 231.532222 
L 1008.244506 230.909081 
L 1005.193647 230.451638 
L 1002.502993 231.053168 
L 1000.712826 230.811833 
L 999.423335 231.611465 
L 998.004167 233.275562 
L 997.341411 232.054508 
L 994.632752 230.264341 
L 992.298687 230.988324 
L 991.052417 231.72673 
L 988.693137 230.811833 
L 986.3915 232.036492 
L 984.828257 233.693389 
L 983.769284 232.72807 
L 981.56849 231.892416 
L 978.150247 231.431368 
L 975.819788 231.892416 
L 973.489329 235.573605 
L 972.1458 236.21475 
L 969.908995 235.796923 
L 968.432195 235.134167 
L 965.608271 233.297173 
L 964.923904 231.816778 
L 964.57812 229.371054 
L 966.015293 229.000055 
L 968.504238 226.871304 
L 969.966627 224.742553 
L 972.372724 221.922234 
L 972.848183 220.445424 
L 973.51814 219.33604 
L 973.928767 214.848009 
L 974.577113 211.073177 
L 975.00935 209.282999 
L 975.902637 207.586497 
L 976.705864 210.176296 
L 979.605436 211.721523 
L 980.304214 212.91016 
L 980.412268 214.466203 
L 980.199755 215.323468 
L 980.498711 217.210884 
L 982.785949 218.565219 
L 985.274894 218.745316 
L 987.425256 218.205024 
L 988.495034 217.686343 
L 990.285201 216.404052 
L 993.292828 215.770106 
L 996.747092 217.484635 
L 1001.77901 217.960095 
L 1003.882534 218.565219 
L 1006.439928 219.019067 
L 1007.952749 219.645802 
L 1010.956759 218.997457 
L 1014.338991 216.764246 
L 1018.283125 214.192452 
L 1020.39386 211.681907 
L 1020.782876 210.612118 
L 1022.555027 207.381183 
L 1023.282627 205.591005 
L 1023.279022 203.440654 
L 1023.635611 202.010671 
L 1024.330784 200.580709 
L 1024.716194 199.186758 
L 1025.389756 198.080958 
L 1025.796778 196.29078 
L 1026.448729 195.221013 
L 1028.238907 193.351602 
L 1029.308675 193.261554 
L 1030.119112 194.230478 
L 1031.448231 196.121499 
L 1031.920085 197.429007 
L 1032.867398 199.341639 
L 1033.360863 201.059774 
L 1032.485593 205.80353 
L 1033.000668 208.342897 
L 1031.920085 209.744059 
L 1031.041209 212.240204 
L 1029.398723 214.567068 
L 1029.607642 216.555327 
L 1029.038529 217.625116 
L 1025.177254 222.06631 
L 1023.995805 223.726801 
L 1023.527557 225.516969 
L 1022.915222 227.307136 
L 1022.468584 228.737109 
L 1021.834638 230.963119 
L 1021.539276 233.758221 
L 1022.194833 235.71048 
L 1021.748195 238.102166 
L 1020.754055 239.488917 
L 1020.437082 240.580306 
L 1021.834638 241.650084 
" clip-path="url(#pe70aa0cb76)" style="fill: none; stroke: #ff7f0e; stroke-width: 1.5; stroke-linecap: square"/>
   </g>
  </g>
  <g id="axes_21">
   <g id="line2d_21">
    <path d="M 166.698305 367.660966 
L 166.881737 364.726225 
L 167.615408 363.625718 
L 168.165676 362.525182 
L 168.532512 361.424675 
L 169.449615 360.32414 
L 166.514873 357.572831 
L 164.313831 356.10546 
L 161.562521 353.904418 
L 160.462014 353.170746 
L 160.278582 352.070211 
L 156.243334 348.401798 
L 154.409127 348.768634 
L 150.007015 349.318901 
L 147.439137 347.851531 
L 148.35624 346.567592 
L 148.723076 344.36655 
L 150.924118 342.899179 
L 152.574921 342.348911 
L 152.941757 338.313663 
L 155.693066 334.64525 
L 156.059902 331.527076 
L 157.527273 329.326062 
L 158.07754 327.675288 
L 158.444376 326.574752 
L 159.361479 325.474217 
L 161.195686 324.557114 
L 164.864099 319.421358 
L 163.763564 316.119753 
L 162.296221 315.386082 
L 160.278582 313.551875 
L 159.911747 312.267908 
L 158.444376 310.066894 
L 157.894108 308.41612 
L 157.527273 307.315584 
L 158.444376 306.215049 
L 159.544911 306.031618 
L 161.012254 306.031618 
L 162.663056 307.132153 
L 163.763564 306.398481 
L 164.864099 307.132153 
L 167.79884 306.948721 
L 168.899347 306.215049 
L 170.55015 305.114514 
L 172.751192 304.380843 
L 174.035131 303.46374 
L 178.620647 303.830603 
L 178.987483 305.66481 
L 179.53775 306.765289 
L 178.804079 307.132153 
L 176.786441 308.966359 
L 177.153276 310.250326 
L 178.987483 311.717669 
L 180.088018 312.267908 
L 181.922196 312.634772 
L 185.04037 315.386082 
L 186.874576 315.569514 
L 187.975111 317.40372 
L 190.176126 319.054495 
L 191.276661 319.788166 
L 193.294299 319.971598 
L 194.211402 318.320823 
L 194.578266 315.386082 
L 195.678745 315.936321 
L 196.045609 317.770528 
L 196.962712 319.054495 
L 197.146144 322.906339 
L 199.347158 323.640011 
L 202.098468 323.089771 
L 203.199003 322.722908 
L 203.382435 327.308424 
L 203.015571 328.775767 
L 205.216641 331.710508 
L 204.666401 333.361283 
L 206.500608 335.929189 
L 208.885054 336.479456 
L 209.985589 337.396559 
L 211.086124 337.763395 
L 212.186603 338.313663 
L 213.287138 339.047334 
L 213.47057 342.899179 
L 216.22188 346.38416 
L 214.754537 350.786272 
L 211.452932 352.987314 
L 209.985589 353.720986 
L 205.216641 353.904418 
L 203.382435 354.821521 
L 199.347158 355.188357 
L 197.696383 355.738624 
L 196.22904 356.472296 
L 194.211402 356.655727 
L 193.110867 357.572831 
L 192.010332 357.939666 
L 186.507713 358.489934 
L 182.472492 359.223605 
L 176.786441 359.407037 
L 175.502502 360.32414 
L 172.934596 361.424675 
L 171.283821 364.175985 
L 169.082779 367.110699 
" clip-path="url(#p00b47e3f19)" style="fill: none; stroke: #2ca02c; stroke-width: 1.5; stroke-linecap: square"/>
   </g>
  </g>
  <g id="axes_22">
   <g id="line2d_22">
    <path d="M 242.866073 380.032941 
L 242.088708 375.937583 
L 241.444076 372.866079 
L 240.970077 370.590875 
L 240.761516 365.073534 
L 241.444076 359.840582 
L 241.918075 356.238186 
L 241.671601 354.68347 
L 242.866073 352.484122 
L 243.340072 351.232758 
L 244.762069 349.412618 
L 245.292946 347.270134 
L 247.45438 345.582698 
L 249.653742 344.009018 
L 251.379091 343.06102 
L 253.862855 343.155826 
L 256.725799 343.06102 
L 258.451162 342.113022 
L 260.176511 341.392535 
L 262.849872 341.563196 
L 264.48043 341.639023 
L 265.826585 341.904462 
L 268.499932 341.165024 
L 269.751282 340.691025 
L 272.462571 339.060468 
L 276.520001 334.529039 
L 276.994 333.277674 
L 278.074732 331.552311 
L 278.852068 330.300976 
L 280.785992 327.627615 
L 281.449602 325.807446 
L 282.606161 323.702889 
L 283.629986 321.750016 
L 284.21774 320.195314 
L 285.77247 317.692585 
L 286.47398 316.327466 
L 286.966928 315.076131 
L 288.066609 313.028452 
L 288.843975 310.999722 
L 289.317974 308.971021 
L 290.07636 307.226709 
L 290.739971 305.747834 
L 291.21397 302.941739 
L 291.479408 300.135673 
L 293.109966 297.481291 
L 293.583965 296.229926 
L 295.157645 293.291127 
L 297.413884 292.817128 
L 298.797953 291.527865 
L 303.708576 291.091765 
L 304.485941 293.765126 
L 303.537943 298.334483 
L 302.665772 299.851286 
L 300.333705 302.657352 
L 299.745951 304.458542 
L 297.660344 307.700708 
L 295.631644 309.255409 
L 294.531962 311.0566 
L 293.944208 312.364841 
L 292.389478 314.86757 
L 291.687969 316.422272 
L 291.19502 317.958024 
L 290.417655 320.157386 
L 288.843975 322.508431 
L 288.369976 324.082111 
L 287.13759 325.807446 
L 286.47398 328.234318 
L 285.999981 331.874656 
L 284.805494 333.827529 
L 284.103985 335.62872 
L 283.155987 339.648222 
L 283.838547 341.847584 
L 283.629986 343.098948 
L 282.681988 348.237081 
L 282.378622 352.237634 
L 283.155987 354.436996 
L 283.629986 361.205701 
L 283.705813 365.263131 
L 282.245917 369.093051 
L 281.999428 370.344401 
L 282.681988 371.785362 
L 283.155987 373.795113 
L 281.73399 374.572478 
L 281.316868 377.719824 
L 282.094234 379.445187 
L 283.155987 378.70575 
L 283.648935 377.188947 
L 284.577984 377.985262 
L 286.322297 379.710625 
L 276.994 379.577906 
L 275.666809 377.757752 
L 274.263761 378.724699 
L 272.955519 379.558942 
L 247.833588 379.786467 
L 248.781586 376.961423 
L 249.217657 373.586552 
L 247.245819 373.870954 
L 245.198154 376.278863 
L 245.103349 377.530227 
L 245.368787 379.084943 
" clip-path="url(#p54028059a6)" style="fill: none; stroke: #2ca02c; stroke-width: 1.5; stroke-linecap: square"/>
   </g>
  </g>
  <g id="axes_23">
   <g id="line2d_23">
    <path d="M 334.608958 380.032941 
L 332.298722 378.841462 
L 331.107243 378.209362 
L 330.13393 377.577262 
L 328.455795 375.267043 
L 329.015173 372.984769 
L 330.13393 369.773942 
L 331.202345 368.845372 
L 331.834446 366.0261 
L 332.466546 364.834621 
L 333.266453 362.915957 
L 335.090015 361.651773 
L 336.040966 360.454695 
L 337.232444 359.895316 
L 339.54268 358.217181 
L 340.762121 356.567008 
L 342.529759 354.212029 
L 343.676478 352.505932 
L 344.308579 351.314453 
L 344.940679 350.122974 
L 344.901518 348.931495 
L 343.71004 348.299395 
L 344.599449 347.58899 
L 346.355906 343.695721 
L 347.541785 339.690569 
L 348.173886 338.49909 
L 348.380853 336.188854 
L 348.31933 334.437997 
L 348.235409 332.687139 
L 347.603326 330.936282 
L 348.481537 327.563248 
L 349.152798 325.756432 
L 349.712177 324.564987 
L 350.830934 322.81413 
L 351.390312 321.622651 
L 353.068447 319.004764 
L 354.746583 316.442801 
L 355.759057 315.704417 
L 356.950535 315.145039 
L 359.299932 313.388582 
L 361.235377 312.012533 
L 362.762469 310.110633 
L 364.815395 307.917879 
L 365.374774 306.424314 
L 367.052909 304.114112 
L 368.731045 300.852926 
L 369.838603 300.04182 
L 371.58946 297.742783 
L 372.221561 296.685549 
L 373.972418 295.566792 
L 377.121722 292.490211 
L 378.738334 291.651143 
L 380.76888 291.091765 
L 382.094604 291.153288 
L 384.449566 291.651143 
L 388.393211 292.68598 
L 389.428048 292.926542 
L 390.776135 294.448036 
L 392.012374 295.913604 
L 393.159093 298.738459 
L 393.903076 300.713081 
L 394.462454 302.760391 
L 393.936637 305.109788 
L 395.687494 305.741888 
L 396.319595 306.933367 
L 397.511074 307.565467 
L 397.494276 309.316325 
L 398.378103 311.464319 
L 397.818725 315.167402 
L 397.259346 318.976768 
L 395.581211 320.40321 
L 394.462454 323.921688 
L 392.22494 327.652733 
L 389.428048 331.081726 
L 388.868669 332.966829 
L 388.309291 334.583441 
L 387.749913 335.774919 
L 386.619957 336.412602 
L 385.434077 338.157877 
L 384.242599 338.789961 
L 381.372984 339.422061 
L 378.699173 341.536511 
L 376.383338 344.411724 
L 374.235344 347.119114 
L 369.133781 353.3394 
L 365.90619 357.098424 
L 364.614027 357.657802 
L 361.285719 359.895316 
L 359.534861 361.014073 
L 357.784004 362.13283 
L 353.404078 365.489101 
L 352.044792 366.048479 
L 350.293935 367.167236 
L 347.273295 369.606118 
L 345.114085 372.324707 
L 343.72682 373.152593 
L 341.903258 374.416777 
L 340.980287 375.557913 
L 339.083986 377.649983 
L 336.919194 379.473563 
" clip-path="url(#p36cc67ce7c)" style="fill: none; stroke: #2ca02c; stroke-width: 1.5; stroke-linecap: square"/>
   </g>
  </g>
  <g id="axes_24">
   <g id="line2d_24">
    <path d="M 447.104514 368.816819 
L 445.825496 366.969349 
L 445.114931 365.690331 
L 441.41999 361.426938 
L 438.009276 359.721581 
L 436.872371 359.011015 
L 436.303918 357.731997 
L 435.735466 355.600301 
L 436.872371 354.605509 
L 437.29871 351.621134 
L 435.167013 351.763247 
L 432.466864 352.758039 
L 430.619394 354.037057 
L 431.614186 355.173961 
L 432.608978 356.02664 
L 433.17743 358.30045 
L 432.324751 360.858486 
L 430.477281 361.284825 
L 429.198263 360.574259 
L 426.498114 361.569051 
L 424.93487 361.426938 
L 423.513739 361.142712 
L 421.239929 361.142712 
L 419.818798 359.863694 
L 420.387251 358.584676 
L 419.960911 357.447771 
L 421.524155 356.879319 
L 424.650644 355.173961 
L 426.640227 354.605509 
L 429.05615 353.326491 
L 430.90362 352.615926 
L 432.608978 351.479021 
L 434.598561 350.626342 
L 437.582936 348.352532 
L 439.14618 347.78408 
L 440.709425 347.215628 
L 442.556895 347.78408 
L 443.551687 345.93661 
L 445.683383 343.236461 
L 448.667758 340.962651 
L 451.083681 338.120389 
L 453.073265 336.699258 
L 455.062848 334.141222 
L 456.626092 332.009525 
L 459.042015 329.02515 
L 460.605259 327.746132 
L 460.747372 325.045983 
L 461.742164 322.914287 
L 462.45273 321.066816 
L 463.589634 319.219346 
L 463.021182 316.519197 
L 463.589634 313.819048 
L 464.158087 312.54003 
L 463.731748 310.69256 
L 463.873861 309.413542 
L 465.863444 306.429166 
L 465.294992 305.150149 
L 466.14767 302.592113 
L 470.979516 302.307886 
L 472.54276 303.302678 
L 482.348564 304.013244 
L 484.196035 305.150149 
L 486.327731 306.287053 
L 488.033088 309.981994 
L 488.601541 314.245387 
L 487.890975 315.950744 
L 486.327731 317.371876 
L 485.759279 318.650893 
L 484.053921 322.203721 
L 483.343356 324.051191 
L 482.63279 332.720091 
L 481.922225 334.567561 
L 480.643207 336.415032 
L 480.074755 337.836163 
L 479.506302 340.962651 
L 480.074755 345.368157 
L 479.506302 350.05789 
L 478.795737 352.473812 
L 478.653624 359.437355 
L 478.51151 360.716372 
L 476.66404 361.99539 
L 475.385022 361.426938 
L 474.106004 361.142712 
L 471.690081 361.000599 
L 468.705706 362.563843 
L 465.863444 360.716372 
L 464.442313 359.437355 
L 462.168503 360.574259 
L 461.315825 361.99539 
L 460.605259 362.42173 
L 457.620884 362.279617 
L 457.762997 360.432146 
L 457.336658 359.153128 
L 455.489187 359.721581 
L 453.925943 360.290033 
L 452.931152 359.153128 
L 451.652134 359.721581 
L 449.236211 362.705956 
L 449.094098 363.984974 
L 448.099306 366.685123 
" clip-path="url(#pd22157d33d)" style="fill: none; stroke: #2ca02c; stroke-width: 1.5; stroke-linecap: square"/>
   </g>
  </g>
  <g id="axes_25">
   <g id="line2d_25">
    <path d="M 529.871186 367.660966 
L 530.054618 364.726225 
L 530.78829 363.625718 
L 531.338557 362.525182 
L 531.705393 361.424675 
L 532.622496 360.32414 
L 529.687755 357.572831 
L 527.486712 356.10546 
L 524.735403 353.904418 
L 523.634896 353.170746 
L 523.451464 352.070211 
L 519.416215 348.401798 
L 517.582009 348.768634 
L 513.179896 349.318901 
L 510.612018 347.851531 
L 511.529122 346.567592 
L 511.895957 344.36655 
L 514.097 342.899179 
L 515.747802 342.348911 
L 516.114638 338.313663 
L 518.865948 334.64525 
L 519.232783 331.527076 
L 520.700154 329.326062 
L 521.250422 327.675288 
L 521.617257 326.574752 
L 522.534361 325.474217 
L 524.368567 324.557114 
L 528.03698 319.421358 
L 526.936445 316.119753 
L 525.469102 315.386082 
L 523.451464 313.551875 
L 523.084628 312.267908 
L 521.617257 310.066894 
L 521.06699 308.41612 
L 520.700154 307.315584 
L 521.617257 306.215049 
L 522.717792 306.031618 
L 524.185135 306.031618 
L 525.835938 307.132153 
L 526.936445 306.398481 
L 528.03698 307.132153 
L 530.971722 306.948721 
L 532.072229 306.215049 
L 533.723031 305.114514 
L 535.924073 304.380843 
L 537.208012 303.46374 
L 541.793529 303.830603 
L 542.160364 305.66481 
L 542.710632 306.765289 
L 541.97696 307.132153 
L 539.959322 308.966359 
L 540.326158 310.250326 
L 542.160364 311.717669 
L 543.260899 312.267908 
L 545.095078 312.634772 
L 548.213251 315.386082 
L 550.047458 315.569514 
L 551.147993 317.40372 
L 553.349007 319.054495 
L 554.449542 319.788166 
L 556.46718 319.971598 
L 557.384284 318.320823 
L 557.751147 315.386082 
L 558.851626 315.936321 
L 559.21849 317.770528 
L 560.135593 319.054495 
L 560.319025 322.906339 
L 562.520039 323.640011 
L 565.271349 323.089771 
L 566.371884 322.722908 
L 566.555316 327.308424 
L 566.188452 328.775767 
L 568.389522 331.710508 
L 567.839283 333.361283 
L 569.673489 335.929189 
L 572.057935 336.479456 
L 573.15847 337.396559 
L 574.259005 337.763395 
L 575.359485 338.313663 
L 576.46002 339.047334 
L 576.643451 342.899179 
L 579.394761 346.38416 
L 577.927418 350.786272 
L 574.625813 352.987314 
L 573.15847 353.720986 
L 568.389522 353.904418 
L 566.555316 354.821521 
L 562.520039 355.188357 
L 560.869265 355.738624 
L 559.401922 356.472296 
L 557.384284 356.655727 
L 556.283748 357.572831 
L 555.183213 357.939666 
L 549.680594 358.489934 
L 545.645373 359.223605 
L 539.959322 359.407037 
L 538.675383 360.32414 
L 536.107477 361.424675 
L 534.456703 364.175985 
L 532.25566 367.110699 
" clip-path="url(#p8e819f1d70)" style="fill: none; stroke: #2ca02c; stroke-width: 1.5; stroke-linecap: square"/>
   </g>
  </g>
  <g id="axes_26">
   <g id="line2d_26">
    <path d="M 626.426959 380.032941 
L 626.591745 378.298697 
L 627.211688 377.349158 
L 626.222922 375.90526 
L 624.983061 375.324569 
L 624.935979 374.461362 
L 626.426959 372.154258 
L 625.689312 369.093821 
L 624.857502 367.19479 
L 625.555922 365.994133 
L 625.563753 361.120974 
L 624.857502 359.928195 
L 623.225276 357.21304 
L 621.718587 354.560653 
L 619.505646 351.923952 
L 619.246696 350.095545 
L 618.579672 348.581024 
L 618.132371 346.627033 
L 617.794943 343.841256 
L 616.241171 341.596919 
L 616.539372 340.482617 
L 617.794943 338.905305 
L 617.308415 337.95579 
L 617.010214 337.006275 
L 618.579672 334.95812 
L 618.775854 326.475205 
L 619.3644 325.525666 
L 620.415934 324.050372 
L 620.933858 322.151342 
L 621.718587 321.107639 
L 621.953996 320.393557 
L 623.30373 319.593118 
L 624.072773 318.259118 
L 625.532357 316.579787 
L 625.861953 315.465437 
L 627.486348 314.115727 
L 629.754201 312.357942 
L 631.135332 309.768347 
L 632.673393 307.869269 
L 632.555689 301.410967 
L 631.92006 299.833654 
L 631.441387 297.942479 
L 631.135332 296.99294 
L 630.350603 296.019884 
L 630.162276 294.309181 
L 629.565874 292.300278 
L 630.083798 291.091765 
L 630.350603 292.041304 
L 631.135332 293.116378 
L 632.04562 296.192502 
L 634.666611 298.028788 
L 635.616126 298.193598 
L 636.565641 298.421152 
L 637.51518 299.205881 
L 638.19789 299.47271 
L 639.061073 300.853792 
L 641.556552 301.560067 
L 644.405073 303.843607 
L 649.184093 304.33799 
L 649.490148 306.574495 
L 649.968821 307.994852 
L 651.240078 309.893883 
L 651.553989 316.485623 
L 652.323007 317.615634 
L 653.358855 319.859947 
L 654.677194 321.688379 
L 655.352049 322.63787 
L 653.107736 325.156866 
L 653.547182 326.326104 
L 653.523665 328.609644 
L 652.323007 331.458213 
L 651.608925 332.87857 
L 651.349952 333.922273 
L 649.968821 336.080277 
L 649.545085 338.081349 
L 649.184093 340.796504 
L 648.430736 342.334566 
L 648.265973 343.284105 
L 647.614635 344.23362 
L 647.151624 345.183135 
L 646.829906 346.760447 
L 644.47572 349.436375 
L 644.303103 350.38589 
L 643.690991 352.010285 
L 643.188753 353.352164 
L 641.572214 354.686212 
L 641.054314 357.558299 
L 636.628433 362.619809 
L 636.251778 364.715045 
L 635.843704 366.747489 
L 635.137453 368.183532 
L 634.972667 369.133047 
L 634.274246 370.082587 
L 633.858341 371.032102 
L 633.489518 371.981617 
L 632.744016 372.931156 
L 631.668941 373.221501 
L 630.350603 374.830186 
L 628.530026 377.145145 
L 627.211688 379.083426 
" clip-path="url(#pae49e56228)" style="fill: none; stroke: #2ca02c; stroke-width: 1.5; stroke-linecap: square"/>
   </g>
   <g id="text_3">
    <!-- MDA_MB_231 -->
    <g transform="translate(568.226298 280.644706) scale(0.2 -0.2)">
     <defs>
      <path id="DejaVuSans-44" d="M 1259 4147 
L 1259 519 
L 2022 519 
Q 2988 519 3436 956 
Q 3884 1394 3884 2338 
Q 3884 3275 3436 3711 
Q 2988 4147 2022 4147 
L 1259 4147 
z
M 628 4666 
L 1925 4666 
Q 3281 4666 3915 4102 
Q 4550 3538 4550 2338 
Q 4550 1131 3912 565 
Q 3275 0 1925 0 
L 628 0 
L 628 4666 
z
" transform="scale(0.015625)"/>
      <path id="DejaVuSans-5f" d="M 3263 -1063 
L 3263 -1509 
L -63 -1509 
L -63 -1063 
L 3263 -1063 
z
" transform="scale(0.015625)"/>
      <path id="DejaVuSans-42" d="M 1259 2228 
L 1259 519 
L 2272 519 
Q 2781 519 3026 730 
Q 3272 941 3272 1375 
Q 3272 1813 3026 2020 
Q 2781 2228 2272 2228 
L 1259 2228 
z
M 1259 4147 
L 1259 2741 
L 2194 2741 
Q 2656 2741 2882 2914 
Q 3109 3088 3109 3444 
Q 3109 3797 2882 3972 
Q 2656 4147 2194 4147 
L 1259 4147 
z
M 628 4666 
L 2241 4666 
Q 2963 4666 3353 4366 
Q 3744 4066 3744 3513 
Q 3744 3084 3544 2831 
Q 3344 2578 2956 2516 
Q 3422 2416 3680 2098 
Q 3938 1781 3938 1306 
Q 3938 681 3513 340 
Q 3088 0 2303 0 
L 628 0 
L 628 4666 
z
" transform="scale(0.015625)"/>
      <path id="DejaVuSans-32" d="M 1228 531 
L 3431 531 
L 3431 0 
L 469 0 
L 469 531 
Q 828 903 1448 1529 
Q 2069 2156 2228 2338 
Q 2531 2678 2651 2914 
Q 2772 3150 2772 3378 
Q 2772 3750 2511 3984 
Q 2250 4219 1831 4219 
Q 1534 4219 1204 4116 
Q 875 4013 500 3803 
L 500 4441 
Q 881 4594 1212 4672 
Q 1544 4750 1819 4750 
Q 2544 4750 2975 4387 
Q 3406 4025 3406 3419 
Q 3406 3131 3298 2873 
Q 3191 2616 2906 2266 
Q 2828 2175 2409 1742 
Q 1991 1309 1228 531 
z
" transform="scale(0.015625)"/>
      <path id="DejaVuSans-33" d="M 2597 2516 
Q 3050 2419 3304 2112 
Q 3559 1806 3559 1356 
Q 3559 666 3084 287 
Q 2609 -91 1734 -91 
Q 1441 -91 1130 -33 
Q 819 25 488 141 
L 488 750 
Q 750 597 1062 519 
Q 1375 441 1716 441 
Q 2309 441 2620 675 
Q 2931 909 2931 1356 
Q 2931 1769 2642 2001 
Q 2353 2234 1838 2234 
L 1294 2234 
L 1294 2753 
L 1863 2753 
Q 2328 2753 2575 2939 
Q 2822 3125 2822 3475 
Q 2822 3834 2567 4026 
Q 2313 4219 1838 4219 
Q 1578 4219 1281 4162 
Q 984 4106 628 3988 
L 628 4550 
Q 988 4650 1302 4700 
Q 1616 4750 1894 4750 
Q 2613 4750 3031 4423 
Q 3450 4097 3450 3541 
Q 3450 3153 3228 2886 
Q 3006 2619 2597 2516 
z
" transform="scale(0.015625)"/>
     </defs>
     <use xlink:href="#DejaVuSans-4d"/>
     <use xlink:href="#DejaVuSans-44" x="86.279297"/>
     <use xlink:href="#DejaVuSans-41" x="161.53125"/>
     <use xlink:href="#DejaVuSans-5f" x="229.939453"/>
     <use xlink:href="#DejaVuSans-4d" x="279.939453"/>
     <use xlink:href="#DejaVuSans-42" x="366.21875"/>
     <use xlink:href="#DejaVuSans-5f" x="434.822266"/>
     <use xlink:href="#DejaVuSans-32" x="484.822266"/>
     <use xlink:href="#DejaVuSans-33" x="548.445312"/>
     <use xlink:href="#DejaVuSans-31" x="612.068359"/>
    </g>
   </g>
  </g>
  <g id="axes_27">
   <g id="line2d_27">
    <path d="M 734.99661 376.831999 
L 734.094751 375.930186 
L 733.192985 375.303493 
L 732.291126 375.303493 
L 730.83912 374.202967 
L 729.035402 372.399342 
L 718.152498 372.246482 
L 708.614592 371.849056 
L 706.810967 370.045431 
L 705.481175 369.189472 
L 704.579362 369.189472 
L 704.426502 368.440519 
L 704.181936 367.4164 
L 702.378311 365.612775 
L 700.972065 364.603955 
L 700.070253 364.603955 
L 699.16844 363.931409 
L 698.312481 363.029597 
L 698.312481 362.127784 
L 697.670488 360.904952 
L 695.866863 359.101327 
L 695.25547 357.297701 
L 695.25547 355.494076 
L 693.512951 353.690405 
L 692.198459 349.685728 
L 692.198459 339.765743 
L 693.757518 334.003248 
L 696.463002 331.297856 
L 696.783975 328.592372 
L 696.952089 326.223207 
L 697.853948 325.321348 
L 698.312481 322.203231 
L 698.312481 316.792262 
L 699.03088 314.97343 
L 699.840986 313.979864 
L 699.840986 312.176239 
L 700.207812 310.73944 
L 701.109625 309.837581 
L 702.011484 309.577761 
L 702.974404 309.501355 
L 707.483513 304.992245 
L 710.830944 301.935234 
L 711.732756 301.935234 
L 712.634569 301.369695 
L 713.536381 300.467836 
L 714.438194 300.406729 
L 715.55402 299.978703 
L 717.357645 298.175077 
L 719.161317 297.349718 
L 720.964942 297.349718 
L 722.768567 295.821213 
L 724.847312 294.292707 
L 728.454609 294.292707 
L 730.82382 294.705434 
L 731.725586 295.6072 
L 733.315292 295.821213 
L 735.118917 295.943519 
L 736.922542 297.747144 
L 738.389847 298.878224 
L 739.291707 298.878224 
L 740.193566 299.489663 
L 741.095332 300.391429 
L 741.997191 300.406729 
L 743.15887 300.926462 
L 744.962495 302.730087 
L 745.696148 303.998679 
L 745.696148 304.900538 
L 750.556784 309.852881 
L 754.86718 314.346691 
L 754.86718 315.24855 
L 755.784246 316.608849 
L 757.587965 318.412567 
L 757.924191 320.216192 
L 758.031198 321.912811 
L 758.932964 322.814577 
L 759.452696 326.391321 
L 759.452696 333.605821 
L 760.109943 336.219599 
L 760.981202 337.396578 
L 760.981202 346.414751 
L 760.675482 352.681632 
L 759.773716 353.583445 
L 759.452696 355.646936 
L 759.452696 358.352374 
L 757.740778 360.201852 
L 756.395686 361.776211 
L 756.395686 362.678024 
L 754.88248 364.588655 
L 752.176996 367.29414 
L 751.810169 368.440519 
L 751.351637 369.648005 
L 748.646152 372.353489 
L 746.368694 373.774988 
L 744.565069 373.774988 
L 743.464496 374.478087 
L 742.409824 375.303493 
L 739.704433 375.303493 
L 737.702095 375.655066 
L 736.800235 376.556879 
L 735.898469 376.831999 
" clip-path="url(#pd108fab6fb)" style="fill: none; stroke: #2ca02c; stroke-width: 1.5; stroke-linecap: square"/>
   </g>
  </g>
  <g id="axes_28">
   <g id="line2d_28">
    <path d="M 815.4977 373.68305 
L 811.017787 373.092031 
L 809.658434 372.501013 
L 804.634776 371.909994 
L 799.492926 371.318976 
L 796.939721 370.727957 
L 796.372348 369.758678 
L 796.242324 367.430082 
L 796.916075 365.077821 
L 797.49528 362.772852 
L 796.348703 362.690101 
L 793.819144 362.642828 
L 792.873511 361.106176 
L 792.187927 359.829573 
L 791.171374 358.222002 
L 790.615815 357.075425 
L 790.036629 355.90522 
L 788.32266 354.770456 
L 786.537791 352.453655 
L 785.946772 350.290543 
L 785.355754 346.614407 
L 784.173717 344.285793 
L 782.99168 342.548197 
L 784.173717 340.810601 
L 784.764735 336.354334 
L 784.469226 332.311751 
L 786.537791 329.569416 
L 787.128809 326.318814 
L 789.492884 322.666324 
L 788.901865 320.9051 
L 789.492884 317.536287 
L 790.674921 313.907424 
L 791.313213 313.351865 
L 793.086269 312.760847 
L 795.403069 309.876673 
L 797.057914 309.262027 
L 798.263597 308.671009 
L 802.365267 305.124897 
L 804.362913 304.533879 
L 806.041403 302.961785 
L 806.987037 302.169804 
L 809.362925 300.987767 
L 811.62062 301.578786 
L 813.381862 302.169804 
L 815.4977 300.183991 
L 814.315663 298.446395 
L 815.332216 297.441656 
L 817.861774 298.836451 
L 819.705749 301.578786 
L 820.852327 302.169804 
L 822.589923 303.351842 
L 826.691593 303.9074 
L 829.327549 309.498449 
L 830.757804 310.337685 
L 832.4954 310.893244 
L 834.232996 310.621363 
L 835.379573 310.065804 
L 838.299206 312.21712 
L 839.445784 311.626101 
L 842.637262 309.805754 
L 842.448132 311.035083 
L 841.502517 312.228952 
L 842.684554 314.746697 
L 844.45761 317.205318 
L 845.639647 319.40389 
L 846.821684 321.141486 
L 848.003721 322.879082 
L 848.582908 324.025659 
L 848.051012 325.172237 
L 849.020256 327.4181 
L 849.658566 329.829466 
L 850.651472 331.413391 
L 851.76259 333.706546 
L 851.774422 336.815309 
L 851.218863 337.961887 
L 850.663304 339.108464 
L 850.107746 340.84606 
L 849.552187 341.992638 
L 848.996628 343.730234 
L 848.441069 345.46783 
L 847.649124 349.805904 
L 845.982448 352.654618 
L 844.410318 354.81773 
L 843.854759 357.737363 
L 842.140827 358.316567 
L 840.911498 360.562431 
L 840.32048 361.768114 
L 839.268449 362.323673 
L 838.121908 362.879231 
L 836.585238 363.824865 
L 836.537946 366.945442 
L 836.455231 368.092019 
L 834.741263 367.512815 
L 832.731785 367.087281 
L 830.816891 368.411156 
L 828.913829 369.723218 
L 826.585214 370.278777 
L 824.150221 370.940715 
L 821.266047 372.051833 
L 819.59937 373.127491 
" clip-path="url(#pc01137fe00)" style="fill: none; stroke: #2ca02c; stroke-width: 1.5; stroke-linecap: square"/>
   </g>
  </g>
  <g id="axes_29">
   <g id="line2d_29">
    <path d="M 935.540677 348.223461 
L 934.701044 347.776177 
L 933.131647 346.991478 
L 931.927131 346.736453 
L 930.722616 347.15627 
L 930.1851 346.909088 
L 929.945772 345.375001 
L 928.678492 344.884564 
L 927.034547 344.425522 
L 926.022279 343.020905 
L 925.064946 342.455921 
L 924.25278 342.036116 
L 921.478868 341.6163 
L 920.274376 341.910562 
L 913.576959 342.330378 
L 912.392068 341.945872 
L 904.498002 341.553522 
L 903.014923 341.945872 
L 899.240524 342.338221 
L 897.102216 342.73057 
L 893.166953 341.945872 
L 890.859937 342.338221 
L 889.212077 341.945872 
L 887.980095 341.553522 
L 886.481317 341.945872 
L 884.535268 342.338221 
L 883.42884 341.945872 
L 882.616674 341.553522 
L 881.051205 341.161173 
L 879.815307 341.541752 
L 878.218442 341.20041 
L 877.013927 341.620227 
L 875.605394 341.851712 
L 877.202259 341.431895 
L 878.555869 340.862984 
L 878.865816 339.807563 
L 878.241982 338.79138 
L 875.27975 338.183243 
L 874.718693 338.022379 
L 875.511234 337.34361 
L 873.7849 336.452982 
L 873.89083 335.71929 
L 874.702996 336.037092 
L 875.515162 336.452982 
L 876.327316 336.845331 
L 877.531831 337.630029 
L 878.822663 338.414728 
L 880.168419 338.022379 
L 881.537714 338.414728 
L 882.965871 337.068973 
L 885.123792 337.041505 
L 888.682403 337.461322 
L 889.886918 337.37892 
L 890.306723 336.566766 
L 891.81727 335.840918 
L 894.167439 334.667797 
L 895.819238 333.408347 
L 897.078676 332.921838 
L 897.898684 331.328901 
L 900.672597 330.909084 
L 901.484763 330.489267 
L 902.795208 329.963533 
L 903.893781 329.257285 
L 904.705947 328.837492 
L 905.894765 328.041012 
L 908.684363 327.644735 
L 911.458275 328.064552 
L 917.641704 328.75509 
L 920.144894 328.700156 
L 921.675042 327.954706 
L 926.124294 328.605996 
L 928.050718 328.213646 
L 929.671123 327.805612 
L 930.483289 327.385795 
L 931.507315 326.754118 
L 932.892319 324.976765 
L 933.312136 323.772249 
L 933.731953 322.960083 
L 935.933026 322.901245 
L 937.502424 324.890459 
L 938.757946 325.85955 
L 939.989929 326.2519 
L 940.641218 327.515253 
L 941.743719 328.605996 
L 942.210615 329.343614 
L 941.033567 331.313215 
L 942.21847 332.144994 
L 942.567643 333.741858 
L 942.273381 334.94635 
L 942.512732 336.060632 
L 941.033567 337.590792 
L 940.350883 338.705063 
L 938.726552 339.544696 
L 938.487224 340.968926 
L 937.996788 342.236206 
L 937.247387 343.377944 
L 936.827594 344.19011 
L 936.015428 344.609927 
L 935.595612 345.422081 
L 935.905559 346.626596 
" clip-path="url(#p646591bceb)" style="fill: none; stroke: #2ca02c; stroke-width: 1.5; stroke-linecap: square"/>
   </g>
  </g>
  <g id="axes_30">
   <g id="line2d_30">
    <path d="M 978.082586 373.262321 
L 976.597087 372.136949 
L 974.70647 371.056601 
L 974.166279 368.220641 
L 973.581098 366.915206 
L 972.680814 365.609804 
L 972.455726 364.304368 
L 973.581098 362.593781 
L 973.896201 358.31738 
L 974.70647 356.516778 
L 976.05693 353.905906 
L 974.391367 350.439775 
L 970.475059 349.629505 
L 970.385045 348.504133 
L 972.725804 348.234055 
L 974.03124 347.378761 
L 975.336676 346.748555 
L 975.831842 345.443119 
L 970.880211 340.176386 
L 967.909212 339.54618 
L 966.378723 340.626528 
L 964.57812 340.22141 
L 965.163301 339.501156 
L 966.468737 338.735911 
L 967.774173 338.375783 
L 969.079609 337.250411 
L 972.995917 336.710255 
L 975.831842 333.514167 
L 976.91219 331.66854 
L 979.523061 330.498178 
L 983.934536 326.896973 
L 984.83482 323.835994 
L 988.210936 320.234789 
L 988.526039 318.929319 
L 989.336308 317.623918 
L 990.011539 316.318516 
L 990.461681 315.013046 
L 1000.815118 304.38953 
L 1002.07553 302.003746 
L 1008.647665 297.862385 
L 1016.795417 298.312561 
L 1018.100819 298.987757 
L 1019.40622 299.797992 
L 1019.721357 301.103462 
L 1022.017092 303.489246 
L 1023.097474 303.939422 
L 1023.502592 306.145107 
L 1024.222846 309.206156 
L 1025.753336 312.897341 
L 1023.637631 316.453555 
L 1023.097474 324.871317 
L 1027.598963 329.552835 
L 1027.95909 330.858305 
L 1028.724335 332.163707 
L 1029.44459 333.469177 
L 1031.650275 333.874295 
L 1032.100452 334.954677 
L 1028.859374 338.510823 
L 1031.110118 339.501156 
L 1033.360863 339.501156 
L 1030.749991 340.851616 
L 1028.994413 341.7519 
L 1026.65362 343.822581 
L 1028.634286 346.343403 
L 1027.058806 347.378761 
L 1024.898042 347.828903 
L 1023.592641 348.504133 
L 1022.287239 349.314402 
L 1021.972102 351.610171 
L 1024.312895 354.130994 
L 1026.698679 354.356082 
L 1027.598963 355.661484 
L 1026.4286 356.381738 
L 1024.582974 355.616494 
L 1020.441612 355.256366 
L 1018.595985 356.381738 
L 1018.956113 358.99261 
L 1021.206857 360.883227 
L 1021.972102 361.423418 
L 1021.251847 362.008599 
L 1019.946446 361.108315 
L 1016.48028 360.883227 
L 1015.219869 362.143639 
L 1014.904731 363.449074 
L 1013.104163 364.259344 
L 1011.168556 364.934574 
L 1010.71838 366.24001 
L 1007.612342 366.510088 
L 1002.840775 371.101592 
L 1002.570696 372.407027 
L 1000.364942 373.262321 
L 998.339286 372.632116 
L 996.718747 370.51641 
L 994.107875 369.886205 
L 992.487337 368.760833 
L 986.860476 368.985921 
L 985.555074 369.886205 
L 983.664423 371.056601 
L 981.81883 372.136949 
L 980.513394 373.082258 
" clip-path="url(#p8ff23fd8dc)" style="fill: none; stroke: #2ca02c; stroke-width: 1.5; stroke-linecap: square"/>
   </g>
  </g>
 </g>
 <defs>
  <clipPath id="pf361c78f4c">
   <rect x="144" y="51.84" width="75.661017" height="97.835294"/>
  </clipPath>
  <clipPath id="p18d35de429">
   <rect x="234.79322" y="51.84" width="75.661017" height="97.835294"/>
  </clipPath>
  <clipPath id="p0aedae60ef">
   <rect x="325.586441" y="51.84" width="75.661017" height="97.835294"/>
  </clipPath>
  <clipPath id="p3f5bd00c0b">
   <rect x="416.379661" y="51.84" width="75.661017" height="97.835294"/>
  </clipPath>
  <clipPath id="pd1a4b33537">
   <rect x="507.172881" y="51.84" width="75.661017" height="97.835294"/>
  </clipPath>
  <clipPath id="p6703ebaf87">
   <rect x="597.966102" y="51.84" width="75.661017" height="97.835294"/>
  </clipPath>
  <clipPath id="pf29c3ccfab">
   <rect x="688.759322" y="51.84" width="75.661017" height="97.835294"/>
  </clipPath>
  <clipPath id="pb262860703">
   <rect x="779.552542" y="51.84" width="75.661017" height="97.835294"/>
  </clipPath>
  <clipPath id="p81441c3b99">
   <rect x="870.345763" y="51.84" width="75.661017" height="97.835294"/>
  </clipPath>
  <clipPath id="p2157381f8d">
   <rect x="961.138983" y="51.84" width="75.661017" height="97.835294"/>
  </clipPath>
  <clipPath id="p6353ccbd4d">
   <rect x="144" y="169.242353" width="75.661017" height="97.835294"/>
  </clipPath>
  <clipPath id="p7af6fbaa34">
   <rect x="234.79322" y="169.242353" width="75.661017" height="97.835294"/>
  </clipPath>
  <clipPath id="pb9fadc0af0">
   <rect x="325.586441" y="169.242353" width="75.661017" height="97.835294"/>
  </clipPath>
  <clipPath id="p9229538fad">
   <rect x="416.379661" y="169.242353" width="75.661017" height="97.835294"/>
  </clipPath>
  <clipPath id="pbdf9dc7420">
   <rect x="507.172881" y="169.242353" width="75.661017" height="97.835294"/>
  </clipPath>
  <clipPath id="p72c66c694d">
   <rect x="597.966102" y="169.242353" width="75.661017" height="97.835294"/>
  </clipPath>
  <clipPath id="p1059c5e5f9">
   <rect x="688.759322" y="169.242353" width="75.661017" height="97.835294"/>
  </clipPath>
  <clipPath id="p4ee1a07cf1">
   <rect x="779.552542" y="169.242353" width="75.661017" height="97.835294"/>
  </clipPath>
  <clipPath id="p71e005ad58">
   <rect x="870.345763" y="169.242353" width="75.661017" height="97.835294"/>
  </clipPath>
  <clipPath id="pe70aa0cb76">
   <rect x="961.138983" y="169.242353" width="75.661017" height="97.835294"/>
  </clipPath>
  <clipPath id="p00b47e3f19">
   <rect x="144" y="286.644706" width="75.661017" height="97.835294"/>
  </clipPath>
  <clipPath id="p54028059a6">
   <rect x="234.79322" y="286.644706" width="75.661017" height="97.835294"/>
  </clipPath>
  <clipPath id="p36cc67ce7c">
   <rect x="325.586441" y="286.644706" width="75.661017" height="97.835294"/>
  </clipPath>
  <clipPath id="pd22157d33d">
   <rect x="416.379661" y="286.644706" width="75.661017" height="97.835294"/>
  </clipPath>
  <clipPath id="p8e819f1d70">
   <rect x="507.172881" y="286.644706" width="75.661017" height="97.835294"/>
  </clipPath>
  <clipPath id="pae49e56228">
   <rect x="597.966102" y="286.644706" width="75.661017" height="97.835294"/>
  </clipPath>
  <clipPath id="pd108fab6fb">
   <rect x="688.759322" y="286.644706" width="75.661017" height="97.835294"/>
  </clipPath>
  <clipPath id="pc01137fe00">
   <rect x="779.552542" y="286.644706" width="75.661017" height="97.835294"/>
  </clipPath>
  <clipPath id="p646591bceb">
   <rect x="870.345763" y="286.644706" width="75.661017" height="97.835294"/>
  </clipPath>
  <clipPath id="p8ff23fd8dc">
   <rect x="961.138983" y="286.644706" width="75.661017" height="97.835294"/>
  </clipPath>
 </defs>
</svg>
