<?xml version="1.0" encoding="utf-8" standalone="no"?>
<!DOCTYPE svg PUBLIC "-//W3C//DTD SVG 1.1//EN"
  "http://www.w3.org/Graphics/SVG/1.1/DTD/svg11.dtd">
<svg xmlns:xlink="http://www.w3.org/1999/xlink" width="1152pt" height="432pt" viewBox="0 0 1152 432" xmlns="http://www.w3.org/2000/svg" version="1.1">
 <metadata>
  <rdf:RDF xmlns:dc="http://purl.org/dc/elements/1.1/" xmlns:cc="http://creativecommons.org/ns#" xmlns:rdf="http://www.w3.org/1999/02/22-rdf-syntax-ns#">
   <cc:Work>
    <dc:type rdf:resource="http://purl.org/dc/dcmitype/StillImage"/>
    <dc:date>2023-12-18T06:07:28.524347</dc:date>
    <dc:format>image/svg+xml</dc:format>
    <dc:creator>
     <cc:Agent>
      <dc:title>Matplotlib v3.6.2, https://matplotlib.org/</dc:title>
     </cc:Agent>
    </dc:creator>
   </cc:Work>
  </rdf:RDF>
 </metadata>
 <defs>
  <style type="text/css">*{stroke-linejoin: round; stroke-linecap: butt}</style>
 </defs>
 <g id="figure_1">
  <g id="patch_1">
   <path d="M 0 432 
L 1152 432 
L 1152 0 
L 0 0 
z
" style="fill: #ffffff"/>
  </g>
  <g id="axes_1">
   <g id="line2d_1">
    <path d="M 194.3946 132.967238 
L 196.129688 129.821511 
L 197.686091 126.995527 
L 198.151598 124.498697 
L 197.046609 122.453282 
L 195.335026 118.531693 
L 194.827188 116.001959 
L 193.454174 113.364056 
L 191.874266 112.917348 
L 191.117215 111.793547 
L 191.244168 109.597646 
L 189.048281 108.986375 
L 187.341405 108.008338 
L 188.145466 106.63531 
L 189.871154 105.873567 
L 192.983961 104.613399 
L 193.454174 101.124413 
L 191.573322 99.215349 
L 192.071747 94.851773 
L 192.170488 93.596298 
L 191.573322 87.450625 
L 192.010617 84.50238 
L 191.225369 82.306494 
L 190.632896 81.051033 
L 190.125073 79.795543 
L 189.339811 78.540083 
L 187.416641 76.541678 
L 185.888449 76.113796 
L 183.222335 76.899044 
L 180.419869 77.482104 
L 177.372884 78.046365 
L 171.570457 79.61686 
L 170.677056 80.096487 
L 169.266417 80.303382 
L 165.655184 79.833169 
L 163.407567 80.350391 
L 161.89348 80.303382 
L 159.895075 79.659192 
L 155.517393 79.833169 
L 151.544087 78.3614 
L 150.288627 77.576152 
L 148.562939 77.011891 
L 147.439137 73.7204 
L 148.694598 73.250187 
L 149.950073 72.554281 
L 151.205534 71.839548 
L 152.461009 71.369335 
L 153.716469 69.958696 
L 157.793222 70.353687 
L 159.048683 69.568411 
L 161.244584 68.548057 
L 163.440485 68.938341 
L 165.956113 69.733003 
L 169.482711 70.428909 
L 170.968585 70.428909 
L 178.61896 70.899122 
L 184.29442 70.184389 
L 187.049876 70.428909 
L 189.090598 70.899122 
L 191.822535 72.558987 
L 195.617143 72.309761 
L 199.505813 74.660826 
L 202.171913 74.444517 
L 204.367828 75.502497 
L 207.504141 74.717249 
L 209.229815 74.449224 
L 212.262694 78.05575 
L 212.732907 79.311239 
L 213.410015 81.036913 
L 213.673333 83.519651 
L 214.143546 88.155944 
L 214.881784 89.505453 
L 215.554185 93.206027 
L 216.024398 96.248306 
L 216.22188 97.503767 
L 215.554185 101.698073 
L 215.083972 103.738796 
L 214.336321 105.031882 
L 213.673333 106.409602 
L 213.20312 108.01303 
L 212.450791 109.268505 
L 211.322268 111.121146 
L 209.911629 113.660293 
L 207.273741 114.628931 
L 206.018252 114.027058 
L 204.316083 112.795103 
L 201.28791 113.218292 
L 198.353786 113.020796 
L 197.234677 115.080331 
L 197.686091 117.276232 
L 198.908634 119.613191 
L 200.023036 121.197807 
L 200.507369 123.224424 
L 201.123347 125.119381 
L 201.908595 126.374856 
L 202.059067 128.406166 
L 200.676639 130.616173 
L 199.101437 131.086386 
L 197.375763 132.337154 
L 196.120274 132.026812 
" clip-path="url(#p9a2eb3b34e)" style="fill: none; stroke: #1f77b4; stroke-width: 1.5; stroke-linecap: square"/>
   </g>
  </g>
  <g id="axes_2">
   <g id="line2d_2">
    <path d="M 278.228019 124.6448 
L 277.027541 122.831831 
L 275.778054 120.982096 
L 274.2652 119.744871 
L 273.352595 119.156885 
L 268.765024 118.856751 
L 267.852418 118.519889 
L 266.676445 119.13238 
L 265.414697 119.69588 
L 264.502091 119.995995 
L 263.589485 120.357362 
L 262.915741 119.267129 
L 262.376746 117.980894 
L 261.850013 116.841669 
L 261.078268 115.543191 
L 259.210178 114.232451 
L 257.501322 113.717961 
L 254.751243 113.417846 
L 253.336371 113.007469 
L 251.93378 113.61996 
L 250.175934 114.109945 
L 248.650818 114.410079 
L 247.738213 114.844942 
L 246.213116 116.069924 
L 245.300491 116.535424 
L 244.387886 116.835538 
L 243.47528 117.294907 
L 242.562655 117.907398 
L 240.768061 119.230381 
L 238.771334 119.487617 
L 238.232357 118.091138 
L 238.532472 113.503585 
L 239.028588 111.341492 
L 239.64108 109.736769 
L 240.045326 108.315785 
L 240.866062 108.19941 
L 241.65005 109.504019 
L 243.554907 109.706133 
L 245.153499 107.727799 
L 247.058338 105.657576 
L 248.70594 104.555099 
L 249.551181 103.097368 
L 251.376411 101.982629 
L 253.158763 100.757647 
L 254.071368 100.414654 
L 254.371483 97.664574 
L 255.284107 97.413432 
L 256.845952 97.640051 
L 258.628304 95.539211 
L 258.015812 94.626605 
L 258.322058 93.713999 
L 259.234664 94.014114 
L 262.891236 93.43224 
L 263.528232 91.607029 
L 265.549445 90.95779 
L 268.366908 89.794041 
L 269.31015 89.46331 
L 273.640466 89.120316 
L 276.390545 86.413116 
L 277.505284 86.057861 
L 279.085521 84.832879 
L 281.088342 83.197538 
L 284.058946 82.064407 
L 285.577912 80.012577 
L 283.348435 77.262498 
L 284.261041 76.870494 
L 285.173684 77.482985 
L 286.08629 77.991363 
L 287.194897 78.48748 
L 290.012341 79.320459 
L 293.60153 81.157932 
L 297.086606 81.641786 
L 300.277698 81.941939 
L 302.635774 84.74099 
L 305.496134 85.763877 
L 306.402609 87.589088 
L 307.0151 89.830789 
L 305.673743 95.361602 
L 305.042897 96.604939 
L 304.565136 99.257036 
L 303.952645 100.880153 
L 303.530024 101.792759 
L 303.009422 102.925871 
L 301.50268 105.253329 
L 302.115171 106.368068 
L 300.920806 108.076923 
L 298.538207 109.234522 
L 295.377769 113.166723 
L 294.691782 114.232451 
L 293.405566 114.979691 
L 292.805299 118.029903 
L 291.702823 119.493747 
L 290.428831 119.69588 
L 289.516225 119.13238 
L 288.566871 119.744871 
L 287.078522 120.081734 
L 286.141393 120.406353 
L 284.640782 121.582344 
L 281.890703 124.032309 
L 280.978098 124.344685 
" clip-path="url(#p8fedb79315)" style="fill: none; stroke: #1f77b4; stroke-width: 1.5; stroke-linecap: square"/>
   </g>
  </g>
  <g id="axes_3">
   <g id="line2d_3">
    <path d="M 361.028659 139.209111 
L 359.227894 137.886004 
L 359.595686 136.562882 
L 358.014639 135.239775 
L 355.182131 135.387847 
L 352.09645 136.343163 
L 350.701697 134.910189 
L 350.042527 131.719438 
L 349.488442 124.802946 
L 348.642993 122.046865 
L 348.131895 120.389391 
L 347.429737 118.44532 
L 346.698921 117.122213 
L 346.216482 115.321433 
L 344.99846 113.625753 
L 344.310632 112.19756 
L 343.049608 110.243927 
L 341.922342 108.596016 
L 340.967026 106.384457 
L 339.409857 104.215886 
L 338.578737 102.716048 
L 338.01987 101.392926 
L 336.276422 99.171819 
L 335.712789 95.880749 
L 335.00585 92.169367 
L 334.279815 88.816199 
L 333.792609 86.179518 
L 332.947145 84.856425 
L 332.369183 82.788158 
L 331.733905 80.29955 
L 330.93621 78.021141 
L 330.458552 72.399098 
L 329.063784 70.464589 
L 329.025578 68.210028 
L 330.066869 62.783841 
L 331.38999 62.306183 
L 332.713098 62.439941 
L 336.171336 62.783841 
L 342.524196 63.385695 
L 344.845606 64.694473 
L 347.940835 65.172131 
L 349.837138 66.399715 
L 352.440365 67.082763 
L 355.40185 68.620807 
L 357.627737 68.515736 
L 358.162712 70.2592 
L 359.719881 70.302172 
L 361.028659 69.356419 
L 361.96488 71.381684 
L 366.631578 74.596313 
L 368.432357 75.202948 
L 369.755479 75.809582 
L 370.600914 77.113579 
L 372.401694 76.158263 
L 372.014792 77.66765 
L 373.137276 78.713722 
L 374.460398 80.457185 
L 375.358398 82.210181 
L 378.539587 83.638374 
L 378.224345 85.783082 
L 380.230514 88.195249 
L 380.134977 89.518342 
L 380.717706 91.548388 
L 383.02002 92.398633 
L 385.045314 93.010049 
L 386.368407 92.876291 
L 387.299846 93.745632 
L 387.495673 95.264581 
L 386.00063 96.086138 
L 384.433898 98.192626 
L 384.911556 99.515748 
L 386.826969 101.956573 
L 387.242529 103.805107 
L 391.221428 105.295397 
L 393.480741 104.81774 
L 393.389985 106.131299 
L 393.71957 107.473516 
L 392.554083 109.670746 
L 394.493373 112.011267 
L 395.420031 113.25318 
L 396.66193 114.179838 
L 397.80832 115.980603 
L 396.786126 117.714504 
L 395.897689 119.061503 
L 397.005859 121.860571 
L 395.420031 122.706035 
L 394.359644 123.446399 
L 393.036522 123.45118 
L 390.872718 123.694776 
L 384.882898 123.446399 
L 383.191999 124.210655 
L 381.534511 126.790005 
L 379.810173 127.267662 
L 376.767494 129.679829 
L 373.562399 131.566584 
L 371.943132 133.548861 
L 370.620039 133.515422 
L 368.193529 134.762117 
L 367.018479 135.607566 
L 364.740071 137.298479 
" clip-path="url(#paed0d7c132)" style="fill: none; stroke: #1f77b4; stroke-width: 1.5; stroke-linecap: square"/>
   </g>
  </g>
  <g id="axes_4">
   <g id="line2d_4">
    <path d="M 420.558398 136.998017 
L 419.818798 133.507107 
L 420.277346 126.924677 
L 420.558398 125.267981 
L 421.297997 124.069812 
L 421.704768 122.538858 
L 422.037596 120.933917 
L 422.777196 119.484309 
L 423.132212 116.673818 
L 423.516795 114.536387 
L 424.256394 112.517273 
L 423.649918 104.588766 
L 422.777196 103.183532 
L 422.037596 102.148098 
L 421.786135 99.026987 
L 421.297997 97.577379 
L 422.008006 96.349641 
L 422.23728 90.943149 
L 422.777196 89.54534 
L 423.43545 88.265803 
L 423.960559 81.084322 
L 425.735593 78.177656 
L 426.34207 76.48399 
L 426.571344 74.775517 
L 427.214792 73.806644 
L 427.769492 72.83777 
L 427.998766 71.868897 
L 428.693991 70.626375 
L 429.196913 69.191551 
L 430.165786 68.954874 
L 432.096152 67.475675 
L 433.582732 67.02453 
L 435.912488 66.736075 
L 438.020328 65.996476 
L 442.40617 65.597109 
L 452.176271 65.256877 
L 455.290001 64.517277 
L 459.365156 64.864867 
L 464.372258 65.256877 
L 466.679804 65.996476 
L 469.667815 66.292334 
L 471.161775 66.736075 
L 472.345161 67.475675 
L 473.314034 67.719755 
L 474.282908 68.215274 
L 475.251781 68.917903 
L 476.220654 69.147177 
L 477.189528 69.694473 
L 478.158401 70.345324 
L 479.2678 70.715124 
L 480.835747 71.913271 
L 482.403694 73.111418 
L 483.779338 73.747463 
L 486.382743 76.66889 
L 487.477335 78.185059 
L 487.898912 79.346236 
L 488.601541 80.581354 
L 488.106022 82.023582 
L 487.861941 82.992455 
L 485.310315 84.486461 
L 482.241004 84.042719 
L 477.233902 83.746861 
L 475.540236 83.007262 
L 473.417544 82.615253 
L 471.827432 82.267662 
L 470.407414 81.528063 
L 467.552526 81.868295 
L 466.014192 82.267662 
L 461.975963 86.02484 
L 461.687508 86.993713 
L 461.236364 88.480315 
L 458.277966 91.904642 
L 457.804612 94.574607 
L 456.798767 96.046403 
L 456.103542 97.015276 
L 455.874268 97.984149 
L 455.319569 98.953023 
L 454.676121 99.921896 
L 453.648067 101.68955 
L 449.402773 106.297239 
L 448.219433 107.857806 
L 447.760885 109.055953 
L 446.444376 110.683081 
L 443.744843 113.811572 
L 442.716789 116.318824 
L 442.00678 117.287698 
L 441.518641 117.768433 
L 436.962706 122.072907 
L 436.622497 123.152715 
L 436.089985 124.121589 
L 435.42435 125.090462 
L 434.884434 126.369977 
L 433.131587 128.507408 
L 432.517729 129.476281 
L 432.288433 131.924376 
L 431.652388 132.893249 
L 431.090286 133.862123 
L 429.278281 134.194929 
L 426.652689 136.258417 
L 425.225268 136.768743 
" clip-path="url(#p94c25a0d63)" style="fill: none; stroke: #1f77b4; stroke-width: 1.5; stroke-linecap: square"/>
   </g>
  </g>
  <g id="axes_5">
   <g id="line2d_5">
    <path d="M 559.214615 126.190441 
L 558.311496 125.671405 
L 557.408378 125.152368 
L 556.505259 124.633331 
L 555.103854 123.636774 
L 552.103807 123.231926 
L 551.200688 122.847844 
L 549.68511 122.370339 
L 548.356378 121.519112 
L 546.41517 119.962002 
L 543.435905 117.366819 
L 542.605443 116.775109 
L 541.235179 114.958481 
L 540.207497 114.449836 
L 538.59848 113.878892 
L 537.36317 113.162619 
L 536.460052 112.695489 
L 535.556933 112.176453 
L 534.653798 111.657416 
L 533.75068 111.138379 
L 532.017099 109.892695 
L 530.304269 107.660828 
L 528.965162 104.245574 
L 528.581079 102.823418 
L 528.072418 101.920284 
L 526.774826 100.757647 
L 526.390744 100.114047 
L 525.996271 97.684959 
L 524.065455 96.086318 
L 523.442604 95.089776 
L 522.155404 92.76447 
L 519.248795 89.369982 
L 517.338744 87.781732 
L 514.577466 84.968562 
L 511.982283 81.989297 
L 511.048023 80.619033 
L 510.612018 79.663991 
L 510.622409 78.241836 
L 511.068773 77.276436 
L 513.32139 76.362926 
L 515.926964 75.843889 
L 518.750525 76.362926 
L 521.885494 75.324853 
L 522.788629 75.750467 
L 527.325004 76.134549 
L 531.342342 76.518631 
L 533.325066 76.944245 
L 536.034438 78.439073 
L 537.165934 78.189945 
L 537.934114 78.574027 
L 538.45315 79.477146 
L 538.702294 80.764346 
L 541.816513 81.283383 
L 544.276742 81.667465 
L 546.176418 82.072329 
L 547.121068 81.553292 
L 548.024187 81.262633 
L 548.501692 82.259174 
L 551.26297 83.110402 
L 551.948102 83.971989 
L 552.259512 84.875139 
L 554.096922 87.262695 
L 555.00004 87.71945 
L 556.671323 89.909769 
L 558.176542 91.082797 
L 559.318429 92.453061 
L 560.688693 92.889066 
L 562.629885 93.273148 
L 563.180062 94.342362 
L 563.948226 95.629563 
L 565.754464 96.605354 
L 567.041696 97.124391 
L 568.328897 96.605354 
L 570.124775 95.567281 
L 570.633421 97.539614 
L 571.671494 98.681501 
L 573.228604 97.518864 
L 574.754573 97.124391 
L 575.159405 99.574228 
L 576.062555 99.200537 
L 576.446637 100.861461 
L 576.86186 102.252475 
L 576.342823 103.539676 
L 577.380897 105.563931 
L 577.899933 107.23523 
L 578.367079 109.010326 
L 578.751161 110.951534 
L 579.135243 111.854652 
L 579.394761 112.757771 
L 578.938006 114.107269 
L 578.41897 115.083061 
L 577.380897 116.505216 
L 576.342823 117.927371 
L 575.917209 118.830506 
L 575.014091 119.214588 
L 574.110972 119.59867 
L 573.187072 120.003518 
L 572.19053 121.404923 
L 568.993279 123.678306 
L 563.75099 125.806359 
" clip-path="url(#p8b19371971)" style="fill: none; stroke: #1f77b4; stroke-width: 1.5; stroke-linecap: square"/>
   </g>
  </g>
  <g id="axes_6">
   <g id="line2d_6">
    <path d="M 610.420962 145.228235 
L 609.817874 144.015961 
L 611.627157 142.791491 
L 613.466893 140.373021 
L 614.076079 139.160747 
L 615.294451 137.339267 
L 619.449105 135.590906 
L 620.125293 134.305532 
L 620.7284 133.093239 
L 623.603759 130.827066 
L 623.274794 129.450318 
L 622.129521 126.477487 
L 621.386313 125.271291 
L 621.995499 121.865943 
L 622.604685 119.289098 
L 621.995499 116.870628 
L 620.265412 115.378114 
L 618.547503 115.987301 
L 617.341308 114.37904 
L 616.019384 113.666303 
L 616.512824 112.454028 
L 618.084516 111.369678 
L 617.390053 109.554296 
L 616.183858 107.129729 
L 614.222278 106.386521 
L 613.466893 105.783433 
L 611.956105 105.02195 
L 609.97625 105.79561 
L 609.373161 103.974149 
L 608.770073 101.543502 
L 608.166966 99.722023 
L 607.563878 97.291376 
L 608.203516 95.055674 
L 609.409711 90.803529 
L 610.213841 89.39025 
L 610.81693 85.132008 
L 611.809906 76.219611 
L 613.783663 73.636668 
L 615.818343 70.992821 
L 617.999239 68.202738 
L 619.315084 66.277726 
L 622.823983 64.596367 
L 624.176377 62.988106 
L 625.38867 62.37892 
L 626.868988 60.819405 
L 629.914919 57.170386 
L 632.168915 56.287059 
L 635.147825 56.896245 
L 638.151127 58.723803 
L 641.215314 59.942176 
L 643.621607 59.33299 
L 645.741563 60.551362 
L 650.018061 64.498876 
L 650.627247 66.283787 
L 651.84562 68.751021 
L 650.018061 72.278195 
L 650.627247 75.09873 
L 650.018061 77.437984 
L 650.627247 79.947865 
L 651.236434 84.011126 
L 651.84562 89.792297 
L 652.454806 92.704224 
L 653.063992 94.751081 
L 653.673178 96.71874 
L 654.282364 97.931014 
L 657.328295 101.793271 
L 657.937481 103.401513 
L 659.356895 105.02195 
L 660.374226 106.021024 
L 657.328295 110.273132 
L 657.937481 112.271261 
L 658.546667 114.513062 
L 659.155853 116.157872 
L 659.76504 118.521517 
L 660.983412 123.772699 
L 662.201784 127.104948 
L 663.420156 131.046383 
L 664.029343 133.464852 
L 662.542927 136.090443 
L 660.855469 136.699629 
L 658.546667 137.918002 
L 654.312816 139.136374 
L 651.017136 139.74556 
L 648.696138 140.963932 
L 647.483863 141.573118 
L 645.053179 139.74556 
L 643.329209 139.136374 
L 637.596747 140.963932 
L 634.739681 140.354746 
L 628.629545 139.136374 
L 627.417252 139.74556 
L 626.259802 140.409571 
L 625.406945 141.573118 
L 621.952851 142.182305 
L 620.740577 142.791491 
L 618.949568 144.040315 
L 618.316009 145.228235 
L 615.885363 143.418952 
L 614.673088 144.02204 
L 613.460795 144.625147 
" clip-path="url(#p9b3643d9ff)" style="fill: none; stroke: #1f77b4; stroke-width: 1.5; stroke-linecap: square"/>
   </g>
   <g id="text_1">
    <!-- MCF10A -->
    <g transform="translate(594.868485 45.84) scale(0.2 -0.2)">
     <defs>
      <path id="DejaVuSans-4d" d="M 628 4666 
L 1569 4666 
L 2759 1491 
L 3956 4666 
L 4897 4666 
L 4897 0 
L 4281 0 
L 4281 4097 
L 3078 897 
L 2444 897 
L 1241 4097 
L 1241 0 
L 628 0 
L 628 4666 
z
" transform="scale(0.015625)"/>
      <path id="DejaVuSans-43" d="M 4122 4306 
L 4122 3641 
Q 3803 3938 3442 4084 
Q 3081 4231 2675 4231 
Q 1875 4231 1450 3742 
Q 1025 3253 1025 2328 
Q 1025 1406 1450 917 
Q 1875 428 2675 428 
Q 3081 428 3442 575 
Q 3803 722 4122 1019 
L 4122 359 
Q 3791 134 3420 21 
Q 3050 -91 2638 -91 
Q 1578 -91 968 557 
Q 359 1206 359 2328 
Q 359 3453 968 4101 
Q 1578 4750 2638 4750 
Q 3056 4750 3426 4639 
Q 3797 4528 4122 4306 
z
" transform="scale(0.015625)"/>
      <path id="DejaVuSans-46" d="M 628 4666 
L 3309 4666 
L 3309 4134 
L 1259 4134 
L 1259 2759 
L 3109 2759 
L 3109 2228 
L 1259 2228 
L 1259 0 
L 628 0 
L 628 4666 
z
" transform="scale(0.015625)"/>
      <path id="DejaVuSans-31" d="M 794 531 
L 1825 531 
L 1825 4091 
L 703 3866 
L 703 4441 
L 1819 4666 
L 2450 4666 
L 2450 531 
L 3481 531 
L 3481 0 
L 794 0 
L 794 531 
z
" transform="scale(0.015625)"/>
      <path id="DejaVuSans-30" d="M 2034 4250 
Q 1547 4250 1301 3770 
Q 1056 3291 1056 2328 
Q 1056 1369 1301 889 
Q 1547 409 2034 409 
Q 2525 409 2770 889 
Q 3016 1369 3016 2328 
Q 3016 3291 2770 3770 
Q 2525 4250 2034 4250 
z
M 2034 4750 
Q 2819 4750 3233 4129 
Q 3647 3509 3647 2328 
Q 3647 1150 3233 529 
Q 2819 -91 2034 -91 
Q 1250 -91 836 529 
Q 422 1150 422 2328 
Q 422 3509 836 4129 
Q 1250 4750 2034 4750 
z
" transform="scale(0.015625)"/>
      <path id="DejaVuSans-41" d="M 2188 4044 
L 1331 1722 
L 3047 1722 
L 2188 4044 
z
M 1831 4666 
L 2547 4666 
L 4325 0 
L 3669 0 
L 3244 1197 
L 1141 1197 
L 716 0 
L 50 0 
L 1831 4666 
z
" transform="scale(0.015625)"/>
     </defs>
     <use xlink:href="#DejaVuSans-4d"/>
     <use xlink:href="#DejaVuSans-43" x="86.279297"/>
     <use xlink:href="#DejaVuSans-46" x="156.103516"/>
     <use xlink:href="#DejaVuSans-31" x="213.623047"/>
     <use xlink:href="#DejaVuSans-30" x="277.246094"/>
     <use xlink:href="#DejaVuSans-41" x="340.869141"/>
    </g>
   </g>
  </g>
  <g id="axes_7">
   <g id="line2d_7">
    <path d="M 736.776241 147.216479 
L 734.982763 144.722423 
L 730.625145 143.559461 
L 729.651353 142.193325 
L 725.482927 140.827211 
L 723.500279 140.876256 
L 719.948365 141.611855 
L 716.837797 140.911277 
L 715.058323 138.389192 
L 713.643163 134.606075 
L 712.326073 133.274981 
L 711.149107 131.103185 
L 708.500923 131.803763 
L 706.504271 132.651456 
L 703.204534 135.250616 
L 697.964224 138.389192 
L 694.405276 140.911277 
L 692.198459 141.611855 
L 692.639827 140.196695 
L 694.741561 137.121147 
L 695.442139 134.325848 
L 697.676984 132.504341 
L 700.752511 130.402607 
L 702.447919 128.321889 
L 703.400695 126.647519 
L 705.60052 125.148272 
L 706.749478 122.598158 
L 709.166459 120.881754 
L 710.798818 116.447084 
L 709.236521 111.487001 
L 707.56213 112.187579 
L 704.486603 112.951206 
L 702.447919 113.25245 
L 701.747341 110.96858 
L 705.432388 109.385267 
L 708.017522 108.684689 
L 710.070211 105.097733 
L 705.250231 102.778821 
L 708.500923 101.230529 
L 706.798502 95.927148 
L 707.772316 94.252799 
L 707.358977 92.578407 
L 706.651387 90.203438 
L 705.250231 86.749593 
L 703.877104 82.763303 
L 699.260297 82.062725 
L 696.927361 81.362147 
L 695.442139 80.430366 
L 696.647134 79.456595 
L 705.250231 77.081626 
L 705.950809 75.407234 
L 706.651387 73.732842 
L 708.753121 72.058451 
L 710.854855 68.513528 
L 711.597466 66.607976 
L 712.571279 65.248853 
L 715.058323 62.558615 
L 716.620619 61.584844 
L 719.163699 59.74232 
L 720.662947 56.834904 
L 721.363525 54.600059 
L 723.724469 54.298815 
L 727.220346 55.440761 
L 730.267865 56.141339 
L 732.544765 56.841917 
L 735.62027 56.841917 
L 738.695817 58.943651 
L 739.76071 61.92812 
L 743.10945 63.875705 
L 745.120106 65.185782 
L 746.584333 66.369761 
L 747.284911 69.017966 
L 749.554776 76.626233 
L 751.159127 79.589664 
L 751.390287 81.964634 
L 752.188957 84.339603 
L 752.889535 87.807473 
L 752.209994 91.891855 
L 753.77227 94.154708 
L 756.959891 94.80624 
L 757.093003 96.214409 
L 757.219101 98.302118 
L 759.180711 99.56315 
L 760.336682 104.039853 
L 759.362868 106.414823 
L 760.981202 111.802269 
L 759.573033 114.667631 
L 757.289185 118.997198 
L 755.467656 121.070903 
L 753.092687 121.995671 
L 751.418338 124.167467 
L 748.370798 126.514407 
L 745.96782 130.318541 
L 744.482599 133.394067 
L 743.782021 135.068459 
L 743.046422 138.143985 
L 742.072609 141.219533 
L 740.517346 143.475395 
L 739.578553 145.268873 
L 738.450632 146.515901 
" clip-path="url(#p19a0ff79c8)" style="fill: none; stroke: #1f77b4; stroke-width: 1.5; stroke-linecap: square"/>
   </g>
  </g>
  <g id="axes_8">
   <g id="line2d_8">
    <path d="M 787.17596 115.33816 
L 785.59252 114.829449 
L 784.876033 111.963502 
L 783.991171 110.00391 
L 782.99168 108.646175 
L 783.25319 107.79714 
L 783.686673 106.288927 
L 784.120144 105.138968 
L 784.553616 102.197793 
L 785.624771 100.768394 
L 786.10123 99.539632 
L 786.459473 98.747907 
L 787.17596 97.411665 
L 788.057236 96.544701 
L 789.26094 94.982764 
L 790.095642 94.56004 
L 792.119716 93.485309 
L 794.032745 93.127066 
L 794.978502 92.768822 
L 796.49029 90.981191 
L 798.711404 89.831222 
L 799.861362 89.691502 
L 800.653077 89.680766 
L 801.74214 90.139306 
L 802.695069 90.619362 
L 806.252424 89.902875 
L 807.044139 90.261118 
L 810.23609 90.619362 
L 812.210015 90.261118 
L 813.03397 90.554881 
L 814.151688 90.010344 
L 815.659901 90.078411 
L 818.959309 89.64495 
L 820.109278 89.211468 
L 821.151779 88.828144 
L 823.860099 88.469901 
L 826.4681 87.395171 
L 828.95431 87.753414 
L 830.860168 87.395171 
L 831.734283 86.900793 
L 832.816185 86.177134 
L 834.184656 86.399243 
L 836.484594 87.266208 
L 838.415532 88.111658 
L 839.293211 88.469901 
L 840.715449 89.186388 
L 843.656613 91.694092 
L 846.5978 94.201796 
L 847.41817 94.617349 
L 848.643378 95.484314 
L 849.510321 96.172135 
L 849.868564 96.963861 
L 850.585051 99.432142 
L 851.706355 100.338508 
L 851.774422 101.252025 
L 851.104509 104.071399 
L 850.671026 105.937855 
L 850.932537 108.520787 
L 850.585051 110.387233 
L 850.226808 111.178959 
L 850.585051 112.400559 
L 849.936632 113.188699 
L 849.144906 112.823295 
L 845.487254 112.389812 
L 844.695528 111.956341 
L 843.903802 111.522869 
L 842.753855 111.089398 
L 841.937049 110.680995 
L 840.711863 110.322752 
L 839.31114 110.680995 
L 837.186737 109.606265 
L 835.961551 109.248021 
L 834.062865 108.932765 
L 833.152935 109.011579 
L 829.971731 108.724989 
L 829.180005 108.621095 
L 825.880575 108.187624 
L 823.236737 109.011579 
L 822.147684 109.742399 
L 820.42812 110.387233 
L 819.847768 111.039238 
L 816.541177 110.691742 
L 813.965405 111.676911 
L 810.511944 111.705566 
L 809.157773 111.884688 
L 806.933085 111.451216 
L 804.557929 111.039238 
L 800.731891 110.680995 
L 798.109547 111.039238 
L 797.317832 111.397482 
L 796.49029 112.758803 
L 796.171448 112.432811 
L 796.261009 111.526444 
L 794.845954 111.608844 
L 793.717489 112.379065 
L 792.925763 112.812548 
L 791.116638 113.962506 
L 790.758395 114.754221 
L 789.569024 115.33816 
L 788.042914 114.979916 
" clip-path="url(#p8a0a47b378)" style="fill: none; stroke: #1f77b4; stroke-width: 1.5; stroke-linecap: square"/>
   </g>
  </g>
  <g id="axes_9">
   <g id="line2d_9">
    <path d="M 889.435129 139.287643 
L 885.461703 137.114 
L 885.157401 135.009915 
L 880.557965 133.018851 
L 878.514749 131.845092 
L 875.523814 130.723485 
L 873.7849 126.819631 
L 875.532504 124.95029 
L 875.141251 123.254851 
L 878.35824 124.732925 
L 881.349174 125.637168 
L 884.218386 124.272114 
L 885.974693 122.315836 
L 888.052695 121.107291 
L 890.287193 120.176978 
L 887.174535 118.420671 
L 885.192173 117.116486 
L 888.62654 117.985943 
L 893.765022 117.099093 
L 893.634608 115.960106 
L 892.912957 114.595065 
L 887.74838 111.465014 
L 888.600444 110.560784 
L 890.495867 110.786839 
L 894.408425 110.786839 
L 897.260243 111.030285 
L 896.547282 108.143681 
L 895.0866 107.213369 
L 891.278374 104.944085 
L 888.539589 103.613817 
L 886.392029 101.814034 
L 889.148206 100.744619 
L 890.947989 101.674918 
L 895.790858 102.605244 
L 898.02537 102.005316 
L 902.868239 102.379176 
L 904.650629 101.361926 
L 900.938043 97.118971 
L 897.381966 95.814785 
L 897.495 93.641142 
L 896.216897 91.902228 
L 898.66007 92.771685 
L 903.363836 93.641142 
L 906.832961 91.893525 
L 908.702302 90.024197 
L 910.475989 86.424659 
L 910.110819 84.320561 
L 907.876321 82.955507 
L 907.572005 82.025208 
L 908.441463 80.599285 
L 911.171557 79.295099 
L 912.475743 76.191131 
L 913.032195 74.200093 
L 915.266693 73.895778 
L 917.066476 71.278703 
L 918.996672 69.209391 
L 920.735586 64.653444 
L 923.335255 63.653574 
L 925.135037 63.697036 
L 927.369548 62.227651 
L 928.734603 63.644871 
L 929.030215 66.288028 
L 931.029956 67.85304 
L 934.133924 72.695923 
L 936.768378 75.330377 
L 937.690001 78.990784 
L 937.690001 82.546861 
L 938.994186 85.276969 
L 939.428915 88.893914 
L 940.150553 92.336957 
L 940.559199 96.075612 
L 939.046352 98.80572 
L 939.898429 100.5968 
L 942.567643 101.900985 
L 938.994186 104.422406 
L 937.690001 106.900364 
L 937.811737 110.282552 
L 937.255272 113.108288 
L 935.916301 114.90807 
L 935.490275 116.70784 
L 932.734084 119.290128 
L 929.577977 121.176849 
L 931.603801 123.620021 
L 930.030085 123.906944 
L 928.665031 126.576184 
L 925.995791 126.637039 
L 925.030707 130.106178 
L 921.72678 130.593071 
L 918.718439 132.17549 
L 918.761928 134.7056 
L 919.692227 136.505383 
L 920.622552 138.739881 
L 918.561943 135.86198 
L 910.719436 135.357693 
L 903.711613 134.001342 
L 900.607658 134.201313 
L 897.938419 135.566367 
L 896.138649 136.49668 
L 894.338866 137.427005 
L 892.104368 138.044326 
" clip-path="url(#pe4d28d1613)" style="fill: none; stroke: #1f77b4; stroke-width: 1.5; stroke-linecap: square"/>
   </g>
  </g>
  <g id="axes_10">
   <g id="line2d_10">
    <path d="M 1022.705312 119.949585 
L 1021.868274 119.444712 
L 1016.713237 117.956652 
L 1014.986025 117.292342 
L 1013.378384 116.933618 
L 1012.20921 116.428736 
L 1011.252601 115.96372 
L 1009.326084 115.631565 
L 1008.369495 115.246263 
L 1007.200302 114.741391 
L 1005.898258 114.302943 
L 1004.52978 113.970788 
L 1003.360586 113.558918 
L 1002.523548 113.054036 
L 1000.357899 112.642166 
L 999.520871 112.310011 
L 998.683833 111.871563 
L 997.514649 111.366691 
L 995.893729 110.981389 
L 993.674934 110.649234 
L 991.482706 107.991991 
L 989.489774 106.078773 
L 987.350693 104.192133 
L 985.517198 103.68726 
L 984.68016 103.341816 
L 984.839599 102.345349 
L 983.829843 101.66775 
L 982.833377 101.016728 
L 981.664194 100.352417 
L 980.800588 99.967126 
L 979.657973 99.156666 
L 978.820945 98.69164 
L 977.771332 98.359485 
L 976.814723 97.974193 
L 976.083988 96.911292 
L 974.144191 94.705776 
L 972.642853 93.709309 
L 971.473669 92.965285 
L 970.3842 92.207961 
L 969.560451 91.623364 
L 968.89614 90.454191 
L 967.793382 88.288531 
L 967.0095 87.172494 
L 964.57812 84.289388 
L 965.866885 83.784505 
L 967.301798 82.416026 
L 969.480737 81.751716 
L 971.699532 81.565709 
L 972.868716 82.070592 
L 973.865182 82.416026 
L 974.874937 82.748182 
L 976.04412 83.253064 
L 977.213314 83.744648 
L 978.236348 84.076803 
L 979.55168 84.435537 
L 981.053029 84.940399 
L 983.085819 85.405425 
L 986.447229 85.73758 
L 988.214299 85.352289 
L 989.383482 85.299133 
L 990.818396 85.73758 
L 993.767937 86.401891 
L 996.876907 85.485139 
L 997.966376 86.242463 
L 999.401289 86.734046 
L 1001.513803 86.401891 
L 1003.878748 86.840338 
L 1005.380097 86.787182 
L 1006.217114 87.066202 
L 1007.054152 87.398357 
L 1007.89119 87.863383 
L 1008.728208 88.368245 
L 1009.711395 88.726979 
L 1010.73444 89.059134 
L 1011.730906 89.710166 
L 1013.072806 90.387756 
L 1013.909844 90.719911 
L 1014.441285 91.424079 
L 1016.474074 93.124713 
L 1017.74956 94.041465 
L 1018.387292 94.772211 
L 1021.575976 97.894459 
L 1023.250052 99.900691 
L 1025.694711 102.730651 
L 1026.584885 103.673971 
L 1027.687643 104.404717 
L 1028.258941 105.002592 
L 1028.684109 105.826341 
L 1029.016265 106.915811 
L 1030.863048 109.174463 
L 1032.404254 111.047825 
L 1032.337819 113.293188 
L 1032.669974 114.860962 
L 1033.360863 115.990288 
L 1033.002129 119.378277 
L 1030.212016 118.953119 
L 1028.152669 118.620963 
L 1026.877183 119.139125 
L 1025.375834 119.271985 
L 1024.379368 118.953119 
" clip-path="url(#pbf4c4da75f)" style="fill: none; stroke: #1f77b4; stroke-width: 1.5; stroke-linecap: square"/>
   </g>
  </g>
  <g id="axes_11">
   <g id="line2d_11">
    <path d="M 186.396502 250.425636 
L 185.463797 248.950635 
L 184.531059 247.475634 
L 182.828309 247.486474 
L 179.650542 247.475634 
L 178.64191 247.009281 
L 177.546495 246.803213 
L 172.828672 247.725078 
L 171.820023 248.256518 
L 170.670393 246.770677 
L 168.175904 244.460561 
L 167.210647 243.169933 
L 165.616343 242.117909 
L 163.967825 241.55395 
L 161.972224 240.642908 
L 160.475543 240.122324 
L 159.412663 240.664603 
L 158.740242 239.449902 
L 156.853103 237.410926 
L 155.486564 235.588874 
L 154.944285 233.506506 
L 154.402005 232.367732 
L 152.905308 228.322314 
L 151.506234 226.380961 
L 150.801261 225.133708 
L 149.792629 221.955957 
L 148.588767 219.667537 
L 147.775348 218.311838 
L 147.439137 215.632992 
L 148.43693 210.557229 
L 151.039865 208.127827 
L 152.232887 206.685378 
L 152.775166 205.112754 
L 153.317446 202.759246 
L 153.859726 200.405771 
L 154.564682 199.451354 
L 156.549428 198.930753 
L 159.184915 198.464401 
L 163.317083 195.416792 
L 165.290972 192.900607 
L 166.549065 192.184794 
L 167.557714 191.718441 
L 169.650905 191.252089 
L 170.659554 190.77488 
L 174.74833 188.063482 
L 177.015071 186.436643 
L 178.023703 186.978923 
L 179.032352 187.521203 
L 181.125543 185.894364 
L 182.589705 186.436643 
L 186.396502 186.978923 
L 188.413766 187.911628 
L 190.040605 188.453908 
L 192.133829 188.920293 
L 193.684741 189.386646 
L 195.940609 190.015675 
L 197.415627 190.948414 
L 198.890612 191.83776 
L 202.339535 190.77488 
L 204.291729 192.803001 
L 204.834008 193.811633 
L 208.044294 196.739956 
L 210.235125 197.824515 
L 211.883643 198.464401 
L 212.425923 199.473033 
L 212.913987 200.481698 
L 211.731789 202.314606 
L 211.005153 203.583522 
L 211.059367 206.761272 
L 211.525753 207.769937 
L 211.992106 208.77857 
L 212.393387 211.95632 
L 211.883643 213.962761 
L 214.356437 215.719742 
L 215.6796 217.151368 
L 216.22188 218.16 
L 214.052761 220.795471 
L 213.510482 221.923422 
L 214.052761 223.355031 
L 214.562506 224.36368 
L 213.727407 227.975264 
L 212.794669 229.450265 
L 211.319684 230.382987 
L 210.593015 232.194199 
L 210.126662 234.28739 
L 209.66031 235.296039 
L 207.089877 235.784087 
L 205.376288 237.855599 
L 204.291729 242.356513 
L 203.749449 244.753396 
L 202.990244 245.54512 
L 200.897053 247.171959 
L 199.888421 246.629679 
L 198.879789 247.161119 
L 197.871124 247.627472 
L 195.018761 248.853029 
L 193.142461 249.037402 
L 192.133829 249.026562 
L 191.125164 249.189239 
L 188.880152 249.026562 
" clip-path="url(#p6df0d2e3a5)" style="fill: none; stroke: #ff7f0e; stroke-width: 1.5; stroke-linecap: square"/>
   </g>
  </g>
  <g id="axes_12">
   <g id="line2d_12">
    <path d="M 281.581552 250.823473 
L 278.55014 247.989098 
L 279.110944 246.473392 
L 278.929066 243.351041 
L 275.276209 238.076378 
L 269.380113 237.636834 
L 268.152394 238.318897 
L 266.40933 239.470837 
L 265.666637 241.668606 
L 265.287711 244.881908 
L 266.197132 247.185776 
L 265.560538 248.92884 
L 262.771633 246.791689 
L 259.93727 246.230885 
L 259.982739 244.866747 
L 260.134307 243.017584 
L 259.603812 241.789865 
L 258.057797 239.864912 
L 255.208262 241.350309 
L 252.995333 239.622405 
L 255.056694 238.394687 
L 255.829707 237.166957 
L 258.845959 235.939239 
L 260.013048 233.362543 
L 261.119519 229.103401 
L 259.982739 226.951101 
L 259.330985 225.541493 
L 257.70918 224.116726 
L 256.026745 222.61618 
L 251.403836 222.025055 
L 249.145437 223.161835 
L 246.007926 224.253145 
L 243.688897 226.450915 
L 241.824574 226.951101 
L 240.157299 226.951101 
L 238.232357 226.041679 
L 239.247878 224.571442 
L 239.899632 221.54003 
L 242.173191 218.523778 
L 243.097773 216.553355 
L 244.446751 214.143388 
L 244.50738 211.854657 
L 244.098133 208.353379 
L 245.58353 206.00403 
L 246.553581 203.624383 
L 246.341383 199.516809 
L 248.236016 197.697966 
L 249.206067 195.287999 
L 252.040442 194.363417 
L 253.828976 195.030332 
L 256.951327 192.847711 
L 258.557971 192.847711 
L 259.588652 193.969342 
L 261.831902 194.742344 
L 262.286607 192.878032 
L 260.361666 189.285792 
L 262.11989 187.54274 
L 265.803045 187.785258 
L 266.42449 186.436281 
L 267.743159 186.40596 
L 270.365324 185.496527 
L 272.457006 185.648107 
L 275.094332 186.072503 
L 279.732389 186.830356 
L 280.85402 187.951987 
L 283.703532 189.058446 
L 285.18894 191.150128 
L 288.811477 194.772665 
L 290.039195 195.500197 
L 292.661361 198.243622 
L 295.450255 199.289463 
L 297.132689 200.820318 
L 297.117541 207.292389 
L 298.830296 209.338602 
L 300.058014 209.899406 
L 302.422512 211.415112 
L 303.180365 214.249475 
L 302.619561 215.765181 
L 300.906806 216.9929 
L 299.042494 218.205481 
L 301.437312 220.281991 
L 303.134896 221.267202 
L 304.059478 224.177355 
L 304.317145 225.784012 
L 305.074998 228.709325 
L 306.060198 231.346651 
L 306.590704 233.63537 
L 307.0151 235.242015 
L 303.513823 236.090807 
L 302.286104 236.803191 
L 300.603669 237.86418 
L 297.875394 241.107791 
L 297.117541 242.517398 
L 296.617355 244.124054 
L 295.980761 245.730699 
L 295.298698 246.958418 
L 295.616983 248.186147 
L 295.01071 249.474495 
L 290.236245 248.549914 
L 282.900209 250.262658 
" clip-path="url(#p32aec5d542)" style="fill: none; stroke: #ff7f0e; stroke-width: 1.5; stroke-linecap: square"/>
   </g>
  </g>
  <g id="axes_13">
   <g id="line2d_13">
    <path d="M 357.778353 250.371614 
L 355.983263 249.120678 
L 354.513408 242.728392 
L 352.393081 242.622054 
L 349.096851 241.615059 
L 345.050071 243.491464 
L 343.742845 242.865995 
L 342.141647 242.184237 
L 340.94074 240.414151 
L 339.746113 240.989591 
L 338.576471 241.177223 
L 337.675795 239.025611 
L 336.512433 237.937303 
L 334.636029 234.390908 
L 336.512433 230.244051 
L 333.385092 226.541271 
L 332.809653 224.777446 
L 332.265499 223.607823 
L 330.895722 220.361641 
L 329.926254 216.890281 
L 329.382099 215.09519 
L 329.175684 213.925568 
L 329.544708 212.755945 
L 329.025578 210.948333 
L 330.883219 205.237843 
L 330.726852 203.617864 
L 332.90973 204.712433 
L 334.636029 203.155023 
L 335.886965 201.134773 
L 336.512433 199.133267 
L 335.261497 195.893346 
L 336.474907 195.330409 
L 337.663293 195.955878 
L 339.277011 196.581346 
L 340.890711 194.967627 
L 342.141647 193.172536 
L 342.767116 192.002914 
L 344.762361 189.701195 
L 345.931983 189.113254 
L 347.101606 189.701195 
L 348.271229 189.075727 
L 350.278995 188.450259 
L 352.199168 187.824791 
L 354.538433 186.573854 
L 356.252209 185.948386 
L 359.748575 188.356423 
L 361.543665 187.837312 
L 362.713307 188.450259 
L 363.407568 190.026451 
L 365.4466 191.5776 
L 366.534909 189.701195 
L 366.835121 187.824791 
L 369.336994 188.450259 
L 371.119602 187.824791 
L 374.015523 186.598859 
L 375.197628 187.105487 
L 376.992719 187.649641 
L 377.905917 191.69018 
L 380.582939 192.490797 
L 383.003498 193.034952 
L 384.173121 193.579106 
L 384.761062 196.043452 
L 386.512366 197.206814 
L 387.17536 199.858793 
L 387.800829 201.384937 
L 390.021233 203.461496 
L 390.92817 204.612375 
L 390.302702 206.144741 
L 391.753793 207.839774 
L 395.931916 211.042168 
L 396.494852 214.031925 
L 396.075761 215.201547 
L 395.531607 216.996638 
L 397.80832 220.361641 
L 396.557384 222.700906 
L 394.680979 224.101948 
L 392.879628 229.806216 
L 393.430043 232.214272 
L 391.728788 233.308841 
L 391.097059 234.734908 
L 390.302702 233.734155 
L 389.383282 232.858504 
L 388.013505 234.322097 
L 388.820345 237.630829 
L 390.35275 239.788683 
L 390.92817 241.552508 
L 389.789813 242.240527 
L 388.426297 243.923038 
L 386.549892 246.343597 
L 384.135594 247.156698 
L 381.608678 247.306824 
L 378.831597 246.205993 
L 377.142864 247.269297 
L 374.265687 247.869741 
L 370.975718 248.495209 
L 368.849149 249.120678 
L 366.484861 248.495209 
L 364.414562 247.869741 
L 361.968998 249.120678 
L 358.947976 249.746146 
" clip-path="url(#p3972b65a85)" style="fill: none; stroke: #ff7f0e; stroke-width: 1.5; stroke-linecap: square"/>
   </g>
  </g>
  <g id="axes_14">
   <g id="line2d_14">
    <path d="M 449.297108 252.597943 
L 448.319152 251.154295 
L 447.806888 250.176338 
L 446.316681 247.289055 
L 442.497999 243.936066 
L 439.284726 242.585561 
L 434.11554 242.073297 
L 432.206199 241.561033 
L 431.228257 241.048783 
L 430.715993 235.413904 
L 430.203728 234.435948 
L 429.738036 232.945727 
L 430.203728 231.548651 
L 430.669421 230.570708 
L 431.135113 228.847642 
L 431.600805 226.286334 
L 431.135113 224.283864 
L 430.669421 222.281379 
L 430.203728 221.024018 
L 429.738036 220.046062 
L 429.272344 219.068105 
L 428.061541 217.391611 
L 424.89484 214.690587 
L 423.40462 213.666087 
L 421.634995 212.827819 
L 420.657038 212.315569 
L 419.865356 208.729733 
L 419.818798 205.237042 
L 421.728125 204.724792 
L 423.171773 204.212513 
L 424.615422 203.234571 
L 425.686508 202.768879 
L 427.595849 202.303186 
L 428.946354 201.837494 
L 431.973353 199.509033 
L 434.162112 199.043341 
L 436.630275 198.577649 
L 439.05188 195.736938 
L 439.89012 194.852111 
L 443.382812 194.386419 
L 444.640186 193.920727 
L 447.108349 191.918256 
L 448.458868 189.170661 
L 449.902502 188.937815 
L 450.880459 189.077517 
L 452.556954 188.332421 
L 454.699141 188.146132 
L 458.65751 187.354478 
L 459.449192 185.631412 
L 459.961471 184.653441 
L 460.939413 184.141191 
L 463.780124 183.722057 
L 464.664951 184.234335 
L 465.596335 185.677969 
L 467.272816 186.935344 
L 469.321873 188.332421 
L 469.787565 189.822641 
L 470.253257 191.312862 
L 473.419958 194.386419 
L 479.008265 194.852111 
L 480.964177 196.71488 
L 481.849004 199.089899 
L 481.709274 201.651206 
L 482.687244 204.305657 
L 482.174966 205.74932 
L 481.662716 206.727262 
L 481.709274 211.896434 
L 482.221552 214.271482 
L 482.733802 218.509269 
L 483.246081 219.487226 
L 483.758331 220.930874 
L 484.689715 222.374523 
L 485.248551 223.259335 
L 485.94709 223.864729 
L 485.434811 225.308378 
L 484.922561 226.286334 
L 486.366196 230.058444 
L 488.601541 231.828069 
L 487.018176 233.504563 
L 485.667657 233.970256 
L 480.032793 234.435948 
L 478.030322 235.041342 
L 475.655275 236.950683 
L 472.907708 240.163956 
L 472.20917 241.328187 
L 471.417488 242.585561 
L 470.905237 244.960594 
L 470.392959 246.404243 
L 469.880709 247.382185 
L 468.902738 247.894449 
L 466.993412 248.406714 
L 466.062027 247.894449 
L 464.01297 246.078253 
L 459.961471 246.543945 
L 456.655039 247.009637 
L 454.652569 247.941021 
L 453.674612 248.406714 
L 452.696656 248.872406 
L 451.625569 250.548901 
L 451.159877 251.619987 
" clip-path="url(#pbd154903ae)" style="fill: none; stroke: #ff7f0e; stroke-width: 1.5; stroke-linecap: square"/>
   </g>
  </g>
  <g id="axes_15">
   <g id="line2d_15">
    <path d="M 553.961213 250.823473 
L 550.929801 247.989098 
L 551.490605 246.473392 
L 551.308727 243.351041 
L 547.65587 238.076378 
L 541.759774 237.636834 
L 540.532055 238.318897 
L 538.788991 239.470837 
L 538.046298 241.668606 
L 537.667372 244.881908 
L 538.576793 247.185776 
L 537.940199 248.92884 
L 535.151294 246.791689 
L 532.316931 246.230885 
L 532.3624 244.866747 
L 532.513968 243.017584 
L 531.983473 241.789865 
L 530.437458 239.864912 
L 527.587923 241.350309 
L 525.374994 239.622405 
L 527.436355 238.394687 
L 528.209368 237.166957 
L 531.22562 235.939239 
L 532.392709 233.362543 
L 533.49918 229.103401 
L 532.3624 226.951101 
L 531.710646 225.541493 
L 530.088841 224.116726 
L 528.406406 222.61618 
L 523.783497 222.025055 
L 521.525098 223.161835 
L 518.387587 224.253145 
L 516.068558 226.450915 
L 514.204235 226.951101 
L 512.53696 226.951101 
L 510.612018 226.041679 
L 511.627539 224.571442 
L 512.279293 221.54003 
L 514.552852 218.523778 
L 515.477434 216.553355 
L 516.826412 214.143388 
L 516.887041 211.854657 
L 516.477794 208.353379 
L 517.963191 206.00403 
L 518.933242 203.624383 
L 518.721044 199.516809 
L 520.615677 197.697966 
L 521.585728 195.287999 
L 524.420103 194.363417 
L 526.208637 195.030332 
L 529.330988 192.847711 
L 530.937632 192.847711 
L 531.968313 193.969342 
L 534.211563 194.742344 
L 534.666268 192.878032 
L 532.741327 189.285792 
L 534.499551 187.54274 
L 538.182706 187.785258 
L 538.804151 186.436281 
L 540.12282 186.40596 
L 542.744985 185.496527 
L 544.836667 185.648107 
L 547.473993 186.072503 
L 552.11205 186.830356 
L 553.233681 187.951987 
L 556.083193 189.058446 
L 557.568601 191.150128 
L 561.191138 194.772665 
L 562.418856 195.500197 
L 565.041022 198.243622 
L 567.829916 199.289463 
L 569.51235 200.820318 
L 569.497202 207.292389 
L 571.209957 209.338602 
L 572.437675 209.899406 
L 574.802173 211.415112 
L 575.560026 214.249475 
L 574.999222 215.765181 
L 573.286467 216.9929 
L 571.422155 218.205481 
L 573.816973 220.281991 
L 575.514557 221.267202 
L 576.439139 224.177355 
L 576.696806 225.784012 
L 577.454659 228.709325 
L 578.439859 231.346651 
L 578.970365 233.63537 
L 579.394761 235.242015 
L 575.893484 236.090807 
L 574.665765 236.803191 
L 572.98333 237.86418 
L 570.255055 241.107791 
L 569.497202 242.517398 
L 568.997016 244.124054 
L 568.360422 245.730699 
L 567.678359 246.958418 
L 567.996644 248.186147 
L 567.390371 249.474495 
L 562.615906 248.549914 
L 555.27987 250.262658 
" clip-path="url(#p9a1dbb1400)" style="fill: none; stroke: #ff7f0e; stroke-width: 1.5; stroke-linecap: square"/>
   </g>
  </g>
  <g id="axes_16">
   <g id="line2d_16">
    <path d="M 631.425522 241.071087 
L 629.594613 239.652545 
L 628.588438 239.058736 
L 626.757529 239.421621 
L 625.751353 239.833987 
L 622.683345 240.163875 
L 621.561707 238.629871 
L 619.879257 237.73917 
L 619.054524 236.320628 
L 619.879257 234.506205 
L 619.961736 232.0815 
L 618.361751 230.893882 
L 617.289595 229.524822 
L 614.864878 228.287723 
L 613.627778 227.809376 
L 608.08557 228.947512 
L 606.238176 230.349555 
L 604.638191 230.761922 
L 603.417577 231.174289 
L 602.411414 231.735101 
L 601.405239 232.32891 
L 602.147494 230.168113 
L 603.384593 226.770216 
L 604.258809 224.939308 
L 605.083542 223.702208 
L 605.858793 222.51459 
L 606.864968 222.102224 
L 609.157726 219.677506 
L 609.982459 219.083697 
L 611.648423 217.549705 
L 612.456658 214.762103 
L 612.869025 212.502317 
L 611.153579 210.902358 
L 612.522639 209.731226 
L 615.739093 208.494126 
L 617.240113 207.421983 
L 619.33493 206.84466 
L 622.287477 205.673527 
L 623.475094 203.661202 
L 624.002923 202.655026 
L 624.41529 201.154006 
L 625.701871 198.597328 
L 627.714222 197.574667 
L 629.264725 196.947861 
L 630.336868 196.683941 
L 631.343043 197.27775 
L 632.860562 196.947861 
L 634.740953 196.535495 
L 636.060518 196.848897 
L 637.429578 196.354053 
L 638.84812 196.123128 
L 641.800654 195.298395 
L 645.808871 195.248913 
L 646.79856 196.535495 
L 649.27276 196.123128 
L 652.12633 195.79324 
L 653.544872 195.859208 
L 654.237645 196.667455 
L 656.381956 198.3994 
L 657.800498 198.993209 
L 658.394307 199.999384 
L 660.373662 203.215839 
L 662.056124 203.958094 
L 663.062275 204.37046 
L 663.722076 205.327154 
L 665.074626 206.267336 
L 664.827216 208.114756 
L 665.635463 209.318859 
L 666.476682 211.248732 
L 666.212762 212.766238 
L 667.79626 215.586836 
L 667.713782 216.939386 
L 668.686961 217.978558 
L 669.726133 221.739339 
L 669.594173 222.745515 
L 670.187982 223.75169 
L 669.594173 224.98879 
L 668.175631 225.813523 
L 666.757088 227.59495 
L 666.16328 228.601125 
L 665.239582 230.019667 
L 663.590116 229.821727 
L 663.144753 228.287723 
L 660.70355 230.992846 
L 658.641717 234.836106 
L 657.652027 235.462899 
L 655.887111 236.403094 
L 653.165476 237.359788 
L 651.631485 238.893792 
L 649.437692 240.65872 
L 648.085142 240.246354 
L 647.491333 239.421621 
L 646.485158 239.009254 
L 644.720217 238.596887 
L 644.621253 240.3948 
L 643.878998 241.071087 
L 641.338806 239.025752 
L 639.392447 237.491748 
L 635.763614 239.009254 
L 633.25643 239.833987 
" clip-path="url(#p5b4dd5b8a0)" style="fill: none; stroke: #ff7f0e; stroke-width: 1.5; stroke-linecap: square"/>
   </g>
   <g id="text_2">
    <!-- MCF7 -->
    <g transform="translate(608.07161 163.242353) scale(0.2 -0.2)">
     <defs>
      <path id="DejaVuSans-37" d="M 525 4666 
L 3525 4666 
L 3525 4397 
L 1831 0 
L 1172 0 
L 2766 4134 
L 525 4134 
L 525 4666 
z
" transform="scale(0.015625)"/>
     </defs>
     <use xlink:href="#DejaVuSans-4d"/>
     <use xlink:href="#DejaVuSans-43" x="86.279297"/>
     <use xlink:href="#DejaVuSans-46" x="156.103516"/>
     <use xlink:href="#DejaVuSans-37" x="213.623047"/>
    </g>
   </g>
  </g>
  <g id="axes_17">
   <g id="line2d_17">
    <path d="M 734.36047 250.955179 
L 732.460064 249.828455 
L 730.935232 250.158963 
L 729.342799 249.077306 
L 726.383269 247.484873 
L 724.895985 246.823858 
L 722.95803 247.064232 
L 719.442646 247.199433 
L 714.65031 247.394728 
L 713.125478 247.575008 
L 711.600646 247.725235 
L 709.324664 246.072709 
L 707.799832 244.570411 
L 704.562381 245.073679 
L 703.307963 243.939448 
L 702.061053 243.105672 
L 700.603821 239.357433 
L 699.048948 238.553709 
L 696.742914 235.932194 
L 695.72887 235.128459 
L 695.676284 233.152944 
L 695.105415 231.230004 
L 694.173985 229.802813 
L 693.655691 226.775683 
L 693.798411 225.626425 
L 693.986198 223.350444 
L 693.047261 220.774008 
L 692.528967 217.296183 
L 692.296112 213.998627 
L 692.198459 211.617496 
L 692.671687 207.839217 
L 693.37025 205.93881 
L 693.798411 204.038403 
L 695.278176 202.153011 
L 696.457474 200.973701 
L 698.342866 198.374731 
L 699.552217 197.87897 
L 701.016956 196.872433 
L 702.646948 195.159814 
L 704.449702 194.243411 
L 706.492829 192.816232 
L 707.694672 191.81719 
L 708.445821 191.043507 
L 710.008213 190.052008 
L 711.555579 189.841687 
L 713.628746 190.487664 
L 715.11603 188.699925 
L 717.016437 189.052966 
L 718.871777 189.270806 
L 720.441676 189.736515 
L 722.342082 189.736515 
L 723.446273 188.211683 
L 725.016172 187.438 
L 725.789855 186.799519 
L 727.224553 186.641784 
L 727.825463 185.605194 
L 729.613202 185.364821 
L 729.793493 187.047411 
L 730.980299 188.03891 
L 733.060974 189.188168 
L 734.961381 190.487664 
L 739.363127 189.616328 
L 742.472873 188.609791 
L 743.749836 188.527176 
L 746.318777 189.045448 
L 747.806038 189.36094 
L 749.744015 189.345926 
L 750.893273 188.992885 
L 751.666956 190.517717 
L 751.636903 191.824709 
L 753.514776 194.018075 
L 753.041549 195.745709 
L 750.389993 198.494918 
L 749.75903 200.643194 
L 751.051008 204.173605 
L 752.012478 205.698437 
L 752.598373 208.349993 
L 753.890351 211.932966 
L 756.519373 215.155403 
L 757.270523 217.611653 
L 757.946552 218.956216 
L 757.646097 220.105474 
L 759.403784 222.291321 
L 759.899545 224.266847 
L 760.981202 225.085597 
L 760.688243 228.045127 
L 759.088314 230.674149 
L 756.35412 232.341702 
L 753.785179 233.678746 
L 752.508239 234.309709 
L 750.735515 235.556619 
L 749.210683 236.48053 
L 748.061426 237.058918 
L 745.943202 238.62131 
L 746.003284 241.130146 
L 745.101896 244.720638 
L 742.337672 246.072709 
L 740.572467 246.621045 
L 738.116217 249.032239 
L 736.305944 250.512004 
" clip-path="url(#p8295dd0b1d)" style="fill: none; stroke: #ff7f0e; stroke-width: 1.5; stroke-linecap: square"/>
   </g>
  </g>
  <g id="axes_18">
   <g id="line2d_18">
    <path d="M 804.224062 248.832532 
L 803.302294 248.308076 
L 800.680029 247.275061 
L 799.106675 244.907082 
L 798.04188 244.462094 
L 796.992969 242.793377 
L 795.546758 241.744478 
L 795.085874 239.996305 
L 794.688561 239.074537 
L 792.447713 237.707781 
L 791.430594 238.184561 
L 789.714213 238.295808 
L 788.458704 237.437612 
L 787.536936 236.849585 
L 786.742311 235.339802 
L 785.232528 233.734656 
L 783.913447 233.385019 
L 782.99168 233.559837 
L 784.358436 231.144183 
L 783.59559 229.332438 
L 783.8022 228.013358 
L 783.849876 226.694277 
L 784.358436 225.708938 
L 784.755748 222.260268 
L 786.503921 218.87517 
L 787.934248 214.266342 
L 788.728873 212.947262 
L 788.331561 209.482708 
L 786.392674 207.114717 
L 786.344998 206.208832 
L 786.742311 204.810309 
L 789.094406 202.346966 
L 790.413475 199.073115 
L 793.941612 198.326165 
L 795.387835 197.277255 
L 795.880499 195.433719 
L 795.483186 194.194105 
L 796.21424 193.606091 
L 797.199579 193.081635 
L 799.217922 191.460593 
L 800.966094 190.109745 
L 801.72894 189.235653 
L 804.39888 189.632965 
L 805.622598 190.030278 
L 808.785214 190.236888 
L 811.137297 187.487468 
L 812.742443 187.821221 
L 814.585967 188.441028 
L 815.889152 188.83834 
L 816.953947 190.046162 
L 818.527313 190.824903 
L 820.243706 192.016841 
L 821.562786 192.811466 
L 824.39165 193.208778 
L 826.18751 193.208778 
L 827.506566 194.003403 
L 828.428334 194.400716 
L 830.144727 194.893379 
L 830.844001 195.417835 
L 834.181436 197.181903 
L 838.075094 199.645246 
L 838.806135 201.170912 
L 839.855046 203.411761 
L 840.379502 205.986338 
L 840.776814 206.908106 
L 841.174127 207.829874 
L 841.619115 209.148955 
L 842.668026 210.595178 
L 844.654588 211.787116 
L 848.723065 212.375131 
L 849.51769 214.902032 
L 849.915002 217.111089 
L 849.549482 218.271247 
L 850.852654 219.177119 
L 851.774422 219.701575 
L 851.504253 221.417968 
L 850.312315 222.466878 
L 849.915002 224.167376 
L 847.976115 225.74073 
L 847.531127 227.36176 
L 846.895437 229.125828 
L 844.813499 229.697959 
L 843.3673 231.350781 
L 841.476088 230.953468 
L 838.837927 232.542718 
L 837.518847 234.211436 
L 835.961388 236.960832 
L 834.483373 238.836147 
L 833.56163 240.028085 
L 832.242549 239.503629 
L 830.923469 239.614876 
L 829.954025 240.091656 
L 825.424653 242.872844 
L 821.483319 243.667469 
L 818.495521 244.096561 
L 817.414843 244.779939 
L 814.379369 245.82885 
L 812.488158 246.845969 
L 810.040723 247.243282 
L 807.497913 246.845969 
" clip-path="url(#p4470e97fdc)" style="fill: none; stroke: #ff7f0e; stroke-width: 1.5; stroke-linecap: square"/>
   </g>
  </g>
  <g id="axes_19">
   <g id="line2d_19">
    <path d="M 914.775386 262.630588 
L 914.775386 261.114026 
L 915.392992 258.980953 
L 912.879332 257.082169 
L 906.425364 254.616205 
L 902.948241 253.907244 
L 901.570974 253.148953 
L 899.576119 252.390681 
L 895.110824 251.63239 
L 893.11595 250.300767 
L 891.738702 249.684276 
L 889.706774 249.067785 
L 887.748955 248.451294 
L 882.703128 247.834803 
L 881.288805 245.849701 
L 880.529143 244.474919 
L 878.50958 241.842509 
L 876.594998 239.314892 
L 875.162148 237.354455 
L 873.7849 236.737964 
L 874.13694 234.765185 
L 875.656244 232.01564 
L 877.101439 229.919574 
L 877.719045 228.366024 
L 878.336651 226.553539 
L 877.719045 224.716388 
L 880.152413 222.595658 
L 880.807074 220.57972 
L 882.659891 217.158202 
L 883.277496 214.747739 
L 885.130313 211.030279 
L 886.6064 209.988408 
L 888.440671 207.540957 
L 889.929103 204.82221 
L 891.195206 202.94192 
L 891.923976 200.888994 
L 891.30637 198.342883 
L 891.923976 196.96812 
L 892.998604 196.049554 
L 895.012004 193.004087 
L 894.27087 191.610811 
L 894.042359 190.236048 
L 893.986777 188.244794 
L 895.493736 187.41868 
L 897.556537 186.728213 
L 899.14997 185.754146 
L 901.28688 184.237602 
L 902.305926 182.603886 
L 906.128907 179.37965 
L 906.746513 177.671958 
L 907.364118 175.088858 
L 909.050189 173.689412 
L 908.624039 175.064212 
L 909.951888 178.787805 
L 911.588539 178.171314 
L 913.540175 179.80503 
L 915.936488 181.87026 
L 917.381664 182.622361 
L 919.926235 183.929357 
L 921.921089 184.687629 
L 923.174809 187.788559 
L 924.039472 189.286666 
L 928.844462 194.200081 
L 931.438376 194.816572 
L 933.575305 194.200081 
L 935.125502 194.816572 
L 936.50275 194.311045 
L 937.515633 196.555082 
L 941.505379 198.071663 
L 941.412723 199.668354 
L 938.244403 201.043117 
L 938.862008 202.417917 
L 937.626797 207.516273 
L 938.244403 211.332354 
L 937.639161 217.639083 
L 938.398804 223.945775 
L 940.047801 227.441287 
L 940.893918 231.010757 
L 941.875927 232.965042 
L 942.567643 234.481604 
L 941.702979 236.121473 
L 938.862008 239.364222 
L 937.009191 242.200066 
L 936.335985 244.191339 
L 935.576342 246.182611 
L 934.816699 248.790357 
L 935.020519 255.713558 
L 933.921163 259.554304 
L 933.303557 260.016672 
L 932.068346 258.025399 
L 930.400803 256.897229 
L 929.64116 257.69866 
L 928.263911 258.21651 
L 926.64575 258.179522 
L 925.509376 260.546845 
L 923.082191 259.20907 
L 921.51963 258.315151 
L 919.950925 257.69866 
L 918.481021 258.648061 
L 916.628204 261.255806 
" clip-path="url(#p07d4440231)" style="fill: none; stroke: #ff7f0e; stroke-width: 1.5; stroke-linecap: square"/>
   </g>
  </g>
  <g id="axes_20">
   <g id="line2d_20">
    <path d="M 1007.341566 255.586153 
L 1003.533868 254.772541 
L 998.522015 253.275498 
L 996.455433 253.454494 
L 993.217273 253.958929 
L 992.452476 252.901243 
L 991.882938 251.713352 
L 990.076718 249.890869 
L 988.335601 248.784369 
L 985.260124 248.149727 
L 983.584085 247.450033 
L 982.119593 246.587606 
L 981.27343 244.976645 
L 979.695021 244.195585 
L 978.149163 243.381973 
L 975.77343 241.917481 
L 972.291171 240.876059 
L 970.729025 235.310931 
L 971.542637 233.163008 
L 972.144702 231.389339 
L 972.193517 227.760612 
L 971.542637 226.572745 
L 969.101801 223.464741 
L 968.158008 219.657043 
L 967.442026 213.245801 
L 966.660965 211.651104 
L 965.879904 210.056406 
L 966.189081 208.054953 
L 966.660965 206.151079 
L 965.847353 204.865558 
L 965.196473 203.677716 
L 964.610672 202.278277 
L 964.57812 199.902544 
L 969.394689 199.154035 
L 970.729025 196.778252 
L 971.542637 195.297522 
L 971.998258 194.109631 
L 973.999737 193.735351 
L 975.187628 192.938027 
L 977.140292 191.408433 
L 978.539706 190.497191 
L 981.891783 189.097802 
L 982.379955 187.795993 
L 982.933205 185.97351 
L 983.942076 185.42026 
L 989.686175 184.801907 
L 992.826731 185.615519 
L 994.519033 184.606648 
L 998.522015 183.858139 
L 1000.019058 181.921738 
L 1000.83267 180.733847 
L 1001.646282 181.108126 
L 1003.14335 183.044527 
L 1004.396295 183.483859 
L 1005.584186 183.988295 
L 1008.073837 185.615519 
L 1010.400755 184.997166 
L 1016.828261 185.338869 
L 1018.732135 187.795993 
L 1022.914112 192.124415 
L 1024.101954 192.612563 
L 1026.201087 193.084471 
L 1028.918573 195.378863 
L 1030.106415 196.176187 
L 1030.936315 196.550467 
L 1030.204044 197.738358 
L 1030.415591 201.367036 
L 1030.936315 203.222095 
L 1030.122703 205.012052 
L 1031.326833 207.973562 
L 1031.587195 209.210268 
L 1030.399353 209.74723 
L 1030.220332 210.935121 
L 1030.936315 212.594872 
L 1030.122703 214.157043 
L 1030.529509 216.12597 
L 1030.936315 217.313861 
L 1030.122703 218.501728 
L 1029.40672 219.689595 
L 1029.032441 221.691073 
L 1028.495479 224.831629 
L 1027.681867 226.71919 
L 1028.85347 229.094948 
L 1030.936315 229.697013 
L 1031.457039 230.884904 
L 1031.831268 232.886383 
L 1032.563539 234.074249 
L 1033.360863 235.262116 
L 1032.173021 236.059465 
L 1030.220332 237.589059 
L 1029.797238 239.313913 
L 1027.209958 241.413021 
L 1025.794281 241.494387 
L 1024.60639 240.941137 
L 1021.172971 244.781386 
L 1020.603432 247.205959 
L 1019.968841 249.4678 
L 1016.405216 251.518093 
L 1012.158135 254.772541 
L 1010.970294 255.211899 
" clip-path="url(#pe63ee7eabe)" style="fill: none; stroke: #ff7f0e; stroke-width: 1.5; stroke-linecap: square"/>
   </g>
  </g>
  <g id="axes_21">
   <g id="line2d_21">
    <path d="M 211.789309 365.557575 
L 210.49909 363.747087 
L 208.282804 362.051071 
L 207.049806 360.355039 
L 204.256047 358.274024 
L 199.927533 357.753771 
L 198.148274 356.19301 
L 197.222207 355.058861 
L 193.101808 351.510727 
L 188.034542 347.525582 
L 185.776628 345.735909 
L 183.659192 343.670501 
L 182.426193 342.957756 
L 180.152687 342.245011 
L 179.439942 341.012013 
L 178.727198 339.779014 
L 176.973929 339.066253 
L 174.096928 337.984133 
L 171.043041 337.817648 
L 169.081691 337.984133 
L 166.527244 336.735527 
L 165.606401 335.903118 
L 164.446229 335.310022 
L 165.752071 334.597277 
L 163.717877 331.532975 
L 161.714898 330.700582 
L 160.159345 330.180329 
L 158.208393 329.139821 
L 157.495649 327.91203 
L 156.023322 325.91945 
L 154.509382 323.937285 
L 153.276383 323.417032 
L 152.043385 322.896778 
L 152.589645 322.26726 
L 151.793657 319.608771 
L 150.399382 318.240502 
L 148.672136 317.340473 
L 147.439137 317.335265 
L 148.349581 316.684948 
L 149.58258 316.950283 
L 152.272298 317.486128 
L 155.170114 318.214495 
L 157.204292 319.255003 
L 159.670305 320.29551 
L 161.470378 320.96145 
L 162.703376 320.997839 
L 163.94679 320.29551 
L 166.209897 319.255003 
L 166.6521 318.339351 
L 166.074626 316.065845 
L 167.827878 315.3531 
L 167.115133 314.57272 
L 165.237009 313.781924 
L 163.925976 313.620647 
L 164.966483 310.951743 
L 163.22363 308.667854 
L 162.885468 307.663737 
L 164.586692 308.470155 
L 167.526138 310.369062 
L 169.471881 311.794552 
L 170.064962 308.745873 
L 169.055669 307.216326 
L 169.097298 306.248662 
L 171.891057 305.567131 
L 172.936772 306.602431 
L 174.383077 310.410691 
L 177.504598 309.370184 
L 180.574092 306.987413 
L 181.697841 306.768916 
L 182.655106 306.80013 
L 183.17536 310.150564 
L 181.99439 311.971452 
L 180.241122 313.011959 
L 179.538792 314.057674 
L 181.364871 315.363516 
L 184.085803 316.263544 
L 184.860976 314.697576 
L 186.541401 317.938746 
L 188.752463 319.62957 
L 190.417281 321.856271 
L 193.892572 323.417032 
L 195.12557 323.937285 
L 197.055722 324.811307 
L 200.629862 327.34494 
L 202.466373 329.660075 
L 204.115568 331.871153 
L 208.105904 336.381759 
L 209.188041 338.603236 
L 210.228548 340.356488 
L 210.748802 343.524831 
L 213.141956 346.620346 
L 213.521762 348.217529 
L 213.870323 349.471326 
L 213.35007 351.417085 
L 213.870323 352.957031 
L 215.0669 354.788319 
L 216.22188 358.024297 
L 216.008558 359.257311 
L 215.431084 363.611831 
L 214.910831 364.84483 
" clip-path="url(#pe565c8cae3)" style="fill: none; stroke: #2ca02c; stroke-width: 1.5; stroke-linecap: square"/>
   </g>
  </g>
  <g id="axes_22">
   <g id="line2d_22">
    <path d="M 261.553481 370.194225 
L 260.00846 367.920419 
L 258.638341 366.010994 
L 257.647192 364.101581 
L 256.816378 362.002676 
L 256.233348 360.50138 
L 255.7232 357.906907 
L 253.289061 355.006346 
L 251.35049 351.639351 
L 248.770595 348.695064 
L 247.998074 347.893396 
L 245.884601 345.298923 
L 245.199541 344.001686 
L 241.307832 339.949642 
L 239.675349 338.841886 
L 238.669633 337.107385 
L 238.232357 335.270843 
L 238.961143 333.740401 
L 239.383839 332.603498 
L 240.622772 331.728947 
L 241.51189 330.183926 
L 242.809127 329.95071 
L 244.52906 329.64461 
L 245.432758 328.740924 
L 249.761743 328.289081 
L 250.986097 329.017866 
L 253.624296 326.83151 
L 255.810651 327.837237 
L 256.947554 327.195903 
L 258.259369 326.481686 
L 257.909556 323.770604 
L 258.536311 321.832055 
L 259.673214 321.365622 
L 261.509756 320.272444 
L 262.704963 320.272444 
L 264.249984 320.782603 
L 266.771585 321.730015 
L 268.272881 321.205288 
L 269.774176 321.365622 
L 271.523256 321.234446 
L 274.234338 320.636837 
L 275.371241 319.937209 
L 276.887126 318.785716 
L 277.951146 317.007479 
L 279.977168 313.509319 
L 281.740838 312.255808 
L 283.606526 311.337532 
L 285.107821 310.798238 
L 286.609117 309.063726 
L 289.976101 306.10486 
L 291.069278 304.603564 
L 292.614299 304.151721 
L 295.61689 301.688424 
L 298.75068 300.930481 
L 301.811564 300.959639 
L 302.146821 303.000228 
L 302.992192 303.772739 
L 304.376902 305.521841 
L 305.26602 306.425527 
L 307.0151 307.241763 
L 304.18741 309.049158 
L 302.496624 309.70506 
L 300.383151 310.958571 
L 299.246248 311.527023 
L 297.613777 312.634768 
L 296.170774 314.004888 
L 294.071869 316.541068 
L 292.512281 318.829442 
L 291.433671 320.69513 
L 289.509667 321.467663 
L 287.279587 322.094407 
L 286.142684 322.648291 
L 284.772564 322.925233 
L 284.597663 324.193312 
L 283.417035 324.965822 
L 281.230679 325.738333 
L 280.953737 327.647746 
L 282.134366 328.828374 
L 283.417035 330.009003 
L 280.691385 333.92987 
L 279.554482 335.576932 
L 278.417579 336.932473 
L 277.645047 337.763287 
L 276.143751 339.570671 
L 275.735633 341.071967 
L 275.036006 344.24947 
L 274.555005 348.44728 
L 273.942828 350.473301 
L 273.170318 352.018322 
L 272.485258 353.315559 
L 271.464963 354.816854 
L 271.027688 355.953768 
L 270.298903 357.090671 
L 269.511824 358.591967 
L 268.841332 359.72887 
L 268.331185 361.230166 
L 267.748155 362.367069 
L 266.786153 364.59716 
L 266.290584 366.929271 
L 265.605525 369.421714 
" clip-path="url(#p59b0881c25)" style="fill: none; stroke: #2ca02c; stroke-width: 1.5; stroke-linecap: square"/>
   </g>
  </g>
  <g id="axes_23">
   <g id="line2d_23">
    <path d="M 386.470506 375.06709 
L 384.422124 373.555381 
L 383.447089 372.482058 
L 379.569552 368.264401 
L 377.007195 366.359656 
L 371.693563 365.581127 
L 370.401036 365.044454 
L 369.108554 364.485129 
L 368.330002 365.754959 
L 369.085857 367.342258 
L 369.841711 369.171435 
L 370.453951 371.144204 
L 370.204506 372.436708 
L 367.400316 372.625672 
L 366.107789 372.043673 
L 365.571115 370.040663 
L 364.490272 366.692234 
L 362.230252 365.188068 
L 359.758617 364.485129 
L 357.763151 363.729275 
L 355.933996 362.973421 
L 350.597666 358.846463 
L 349.720873 357.213815 
L 349.184223 355.92131 
L 347.166081 355.324179 
L 346.0323 352.013533 
L 344.550832 351.287919 
L 343.885676 349.86691 
L 341.9658 348.612189 
L 336.584121 342.875257 
L 330.310539 336.51852 
L 329.773866 334.999245 
L 329.025578 330.985661 
L 331.293141 326.148221 
L 332.260633 324.213189 
L 333.560704 322.270684 
L 332.804849 320.978157 
L 333.560704 319.48158 
L 332.079236 316.896525 
L 333.613619 314.545829 
L 334.618895 312.784676 
L 336.833543 312.081737 
L 338.851684 309.443813 
L 342.275703 308.907139 
L 342.812353 306.284347 
L 344.104881 305.566276 
L 346.153239 305.029649 
L 348.481261 304.213314 
L 349.373186 301.68874 
L 348.67779 300.396259 
L 350.567426 299.103731 
L 352.018676 299.164212 
L 355.299081 297.96995 
L 356.712525 297.214095 
L 358.005029 296.458241 
L 360.053388 297.96995 
L 362.494806 296.24658 
L 366.417669 296.057616 
L 366.954342 299.617707 
L 368.919591 300.237513 
L 371.958094 298.725804 
L 373.099441 299.715971 
L 373.636114 301.764353 
L 376.03216 302.505076 
L 377.400254 303.926085 
L 379.252106 306.284347 
L 381.829549 305.634323 
L 383.122077 306.284347 
L 384.626219 307.040201 
L 386.46294 306.291913 
L 387.22636 307.342562 
L 388.738069 309.617644 
L 390.340476 311.575327 
L 392.26033 312.830025 
L 393.273195 314.311516 
L 395.16283 316.866308 
L 397.022249 317.591944 
L 397.80832 318.128571 
L 396.009384 319.889725 
L 394.716856 320.645579 
L 393.424375 321.250253 
L 392.116715 324.069621 
L 391.504475 326.435403 
L 393.273195 331.015878 
L 391.761486 334.190499 
L 392.970834 338.332565 
L 391.050981 341.098995 
L 391.761486 342.973522 
L 390.249777 345.558531 
L 389.493923 348.24937 
L 388.813636 353.147315 
L 387.521154 353.903169 
L 386.470506 354.900902 
L 385.714651 356.261431 
L 385.155327 359.753474 
L 385.298941 361.801856 
L 385.835568 363.09436 
L 386.470506 368.332425 
L 385.714651 371.529697 
L 387.22636 374.53044 
" clip-path="url(#p24c8539e46)" style="fill: none; stroke: #2ca02c; stroke-width: 1.5; stroke-linecap: square"/>
   </g>
  </g>
  <g id="axes_24">
   <g id="line2d_24">
    <path d="M 428.635038 377.234599 
L 427.599465 375.573247 
L 426.082094 373.297194 
L 422.820306 370.835629 
L 423.650982 368.794928 
L 421.477379 368.609415 
L 420.328278 366.131228 
L 420.391967 361.515443 
L 419.818798 358.173355 
L 421.98963 355.545652 
L 423.567918 353.228059 
L 424.797319 350.614198 
L 427.09552 348.991615 
L 429.980729 346.261464 
L 431.403958 344.511504 
L 433.06531 342.318516 
L 435.745623 338.281434 
L 436.468315 336.728066 
L 436.664906 334.964274 
L 437.495582 332.646672 
L 438.270877 329.664557 
L 439.156934 327.180827 
L 440.06514 324.824473 
L 441.095178 321.438089 
L 443.587206 318.289829 
L 444.694774 316.526028 
L 446.145686 314.036772 
L 447.186802 312.167751 
L 447.740586 308.620765 
L 446.430884 305.317445 
L 447.546759 304.135111 
L 449.125046 302.897412 
L 450.188311 302.152572 
L 448.848154 300.754254 
L 450.714404 299.981731 
L 452.987693 298.611112 
L 454.186632 297.212811 
L 457.345971 296.467971 
L 461.601799 296.121856 
L 463.761553 296.620258 
L 466.181587 297.212811 
L 465.137715 295.274567 
L 463.650807 295.125051 
L 462.390935 294.191927 
L 465.26232 294.244537 
L 468.687473 293.890107 
L 471.835734 294.166999 
L 473.430634 295.213659 
L 475.640227 296.659027 
L 477.091138 298.356376 
L 479.029382 300.258623 
L 482.352086 301.811983 
L 481.178067 302.6842 
L 478.475598 304.364936 
L 477.362487 307.452272 
L 480.510748 307.914694 
L 481.443872 306.350247 
L 483.232601 306.073355 
L 485.503119 306.627139 
L 487.518884 308.471232 
L 488.44371 311.555813 
L 488.601541 313.984161 
L 488.166818 317.049358 
L 487.613034 320.003791 
L 487.712711 323.340336 
L 487.613034 325.206585 
L 487.014955 327.626636 
L 487.671188 329.27413 
L 487.103546 330.761038 
L 486.081813 332.524856 
L 485.093324 333.457981 
L 483.66178 336.329341 
L 482.075194 337.340003 
L 480.134179 339.023503 
L 478.780173 340.407963 
L 477.644922 343.10766 
L 475.429786 345.281264 
L 474.181001 348.573505 
L 474.084095 350.614198 
L 472.597187 352.101115 
L 472.273211 353.144995 
L 471.024442 353.421887 
L 470.999514 355.731165 
L 470.168838 357.218074 
L 466.458479 359.347374 
L 464.506394 361.880934 
L 461.407971 361.728647 
L 459.040548 363.442609 
L 457.276748 365.051351 
L 457.13553 367.247102 
L 455.964282 368.844775 
L 453.364262 368.565111 
L 450.77532 371.154053 
L 447.62706 371.419867 
L 446.47796 374.066954 
L 444.14099 372.762795 
L 441.205934 374.465679 
L 439.433826 375.326809 
L 435.967142 375.019463 
L 431.506407 376.578366 
" clip-path="url(#paa6c84fd3a)" style="fill: none; stroke: #2ca02c; stroke-width: 1.5; stroke-linecap: square"/>
   </g>
  </g>
  <g id="axes_25">
   <g id="line2d_25">
    <path d="M 522.814912 380.032941 
L 521.691449 378.69548 
L 518.575162 379.136845 
L 517.124007 378.354421 
L 516.127605 377.117285 
L 516.796336 375.452132 
L 516.127605 373.332267 
L 516.796336 371.626992 
L 517.465067 368.851764 
L 519.471259 365.635171 
L 521.544328 363.916528 
L 522.727974 360.726691 
L 524.821104 357.91134 
L 525.489834 354.975603 
L 524.152373 349.685941 
L 524.821104 348.234807 
L 524.152373 345.820679 
L 522.293303 344.590217 
L 520.768598 345.218825 
L 520.293805 343.921486 
L 521.47745 342.45027 
L 522.146181 340.196651 
L 520.982596 339.240372 
L 522.634362 337.90291 
L 523.537132 336.511939 
L 525.991382 335.39517 
L 528.445633 333.609671 
L 531.234228 332.827227 
L 531.000168 330.707362 
L 530.170949 329.924958 
L 528.900365 327.805094 
L 531.86953 329.209412 
L 534.985818 329.878142 
L 538.342838 329.209412 
L 540.870639 326.68159 
L 539.533178 323.926423 
L 542.020857 324.528297 
L 546.220485 323.665649 
L 547.504436 322.575615 
L 551.175761 317.566829 
L 553.977744 314.096115 
L 555.542591 311.862537 
L 556.251444 308.960228 
L 556.920175 306.933995 
L 557.588906 305.482861 
L 558.257636 304.031686 
L 560.812192 301.791455 
L 562.938751 299.123226 
L 566.603382 296.789363 
L 568.509289 294.214725 
L 569.626057 292.429226 
L 573.879174 291.091765 
L 573.397708 294.007421 
L 572.30098 295.779573 
L 570.963519 298.019804 
L 570.294788 300.019303 
L 571.311272 301.122724 
L 573.431136 299.785263 
L 572.969711 301.604191 
L 573.61836 303.148998 
L 572.033471 304.065156 
L 570.221237 306.54612 
L 570.348298 308.478762 
L 570.488705 309.622306 
L 569.117815 310.484954 
L 565.580245 312.524574 
L 564.797842 314.644439 
L 564.015397 316.095614 
L 563.232994 318.215478 
L 562.45059 320.335343 
L 561.668146 322.455249 
L 560.932559 323.953199 
L 560.263828 326.186736 
L 559.595098 328.694476 
L 558.926367 335.589087 
L 557.588906 341.079381 
L 556.251444 343.199266 
L 554.974187 345.319131 
L 555.408837 347.265139 
L 552.907791 350.421549 
L 552.23906 353.016227 
L 551.57033 356.527063 
L 550.901599 358.593438 
L 550.085767 362.645944 
L 547.557946 364.170649 
L 546.588278 365.320867 
L 544.214293 367.741669 
L 543.545562 369.192823 
L 541.592859 370.001981 
L 540.783701 371.426381 
L 539.332567 371.807562 
L 537.881412 371.653747 
L 536.671012 373.532878 
L 535.647855 375.224766 
L 534.183333 373.359002 
L 531.408105 373.345635 
L 529.28822 374.683096 
L 527.837085 375.351827 
L 525.7172 376.689288 
L 524.821104 379.023151 
" clip-path="url(#pf0f12082b9)" style="fill: none; stroke: #2ca02c; stroke-width: 1.5; stroke-linecap: square"/>
   </g>
  </g>
  <g id="axes_26">
   <g id="line2d_26">
    <path d="M 634.118982 368.183839 
L 633.095628 367.345025 
L 631.418 367.160485 
L 630.210106 366.506211 
L 627.978858 365.398971 
L 624.262919 363.989769 
L 620.161106 361.775288 
L 616.436796 360.634514 
L 612.71246 357.681898 
L 612.30982 356.44884 
L 611.471006 355.517744 
L 610.942549 354.234359 
L 608.954564 351.709521 
L 608.59388 350.208063 
L 608.11575 349.276966 
L 607.025302 347.800671 
L 605.800616 347.213491 
L 604.869544 346.483727 
L 604.760495 345.55263 
L 603.921681 344.621559 
L 603.753908 343.690462 
L 603.082867 342.499361 
L 602.730554 340.98948 
L 602.244053 339.613839 
L 601.7072 338.288498 
L 601.405239 337.357427 
L 602.126607 336.426356 
L 602.244053 333.867958 
L 603.921681 331.510918 
L 603.443551 324.087384 
L 601.405239 321.797439 
L 602.436989 320.178534 
L 603.921681 316.94907 
L 604.450138 314.810104 
L 604.760495 313.879033 
L 605.473492 312.947962 
L 605.599309 312.01684 
L 607.394383 310.305678 
L 609.105545 310.154697 
L 610.036641 309.710101 
L 612.30982 310.305678 
L 615.254065 310.733481 
L 616.705197 311.144492 
L 617.955047 310.532174 
L 620.295319 310.305678 
L 622.291701 308.711911 
L 623.365382 308.477069 
L 626.016037 306.111608 
L 627.878205 305.641874 
L 630.721796 304.43398 
L 634.538389 303.175759 
L 636.819964 302.940867 
L 638.078159 303.595166 
L 639.009282 304.291396 
L 641.517327 304.43398 
L 643.178163 305.272794 
L 656.733424 306.078074 
L 661.413969 310.305678 
L 662.957409 310.624431 
L 663.47747 311.555502 
L 664.484057 312.989892 
L 665.155098 314.852035 
L 665.842931 316.026395 
L 665.993912 320.857971 
L 667.705074 322.887887 
L 668.510354 323.013729 
L 668.292254 323.9448 
L 667.67154 325.186229 
L 668.879434 327.451037 
L 670.187982 331.728967 
L 669.600802 334.379648 
L 669.349168 340.746243 
L 668.577473 342.952327 
L 668.485165 343.883398 
L 667.67154 345.166783 
L 667.461836 348.262008 
L 666.832726 349.495066 
L 666.438508 350.96299 
L 665.993912 351.894061 
L 666.572695 352.825158 
L 666.161685 353.756229 
L 663.703966 353.924002 
L 661.799842 355.618397 
L 661.472692 356.767594 
L 659.2834 359.158193 
L 658.69622 359.7957 
L 657.2199 360.181547 
L 655.810698 360.634514 
L 653.948556 361.775288 
L 652.749058 362.312142 
L 651.817936 363.067069 
L 648.370423 363.159352 
L 647.338698 363.989769 
L 645.669467 364.182706 
L 644.738344 364.828583 
L 643.807273 365.20606 
L 640.527533 365.667397 
L 637.751061 366.229414 
L 636.819964 366.506211 
L 635.142336 367.999299 
" clip-path="url(#pd8a84a68fe)" style="fill: none; stroke: #2ca02c; stroke-width: 1.5; stroke-linecap: square"/>
   </g>
   <g id="text_3">
    <!-- MDA_MB_231 -->
    <g transform="translate(568.226298 280.644706) scale(0.2 -0.2)">
     <defs>
      <path id="DejaVuSans-44" d="M 1259 4147 
L 1259 519 
L 2022 519 
Q 2988 519 3436 956 
Q 3884 1394 3884 2338 
Q 3884 3275 3436 3711 
Q 2988 4147 2022 4147 
L 1259 4147 
z
M 628 4666 
L 1925 4666 
Q 3281 4666 3915 4102 
Q 4550 3538 4550 2338 
Q 4550 1131 3912 565 
Q 3275 0 1925 0 
L 628 0 
L 628 4666 
z
" transform="scale(0.015625)"/>
      <path id="DejaVuSans-5f" d="M 3263 -1063 
L 3263 -1509 
L -63 -1509 
L -63 -1063 
L 3263 -1063 
z
" transform="scale(0.015625)"/>
      <path id="DejaVuSans-42" d="M 1259 2228 
L 1259 519 
L 2272 519 
Q 2781 519 3026 730 
Q 3272 941 3272 1375 
Q 3272 1813 3026 2020 
Q 2781 2228 2272 2228 
L 1259 2228 
z
M 1259 4147 
L 1259 2741 
L 2194 2741 
Q 2656 2741 2882 2914 
Q 3109 3088 3109 3444 
Q 3109 3797 2882 3972 
Q 2656 4147 2194 4147 
L 1259 4147 
z
M 628 4666 
L 2241 4666 
Q 2963 4666 3353 4366 
Q 3744 4066 3744 3513 
Q 3744 3084 3544 2831 
Q 3344 2578 2956 2516 
Q 3422 2416 3680 2098 
Q 3938 1781 3938 1306 
Q 3938 681 3513 340 
Q 3088 0 2303 0 
L 628 0 
L 628 4666 
z
" transform="scale(0.015625)"/>
      <path id="DejaVuSans-32" d="M 1228 531 
L 3431 531 
L 3431 0 
L 469 0 
L 469 531 
Q 828 903 1448 1529 
Q 2069 2156 2228 2338 
Q 2531 2678 2651 2914 
Q 2772 3150 2772 3378 
Q 2772 3750 2511 3984 
Q 2250 4219 1831 4219 
Q 1534 4219 1204 4116 
Q 875 4013 500 3803 
L 500 4441 
Q 881 4594 1212 4672 
Q 1544 4750 1819 4750 
Q 2544 4750 2975 4387 
Q 3406 4025 3406 3419 
Q 3406 3131 3298 2873 
Q 3191 2616 2906 2266 
Q 2828 2175 2409 1742 
Q 1991 1309 1228 531 
z
" transform="scale(0.015625)"/>
      <path id="DejaVuSans-33" d="M 2597 2516 
Q 3050 2419 3304 2112 
Q 3559 1806 3559 1356 
Q 3559 666 3084 287 
Q 2609 -91 1734 -91 
Q 1441 -91 1130 -33 
Q 819 25 488 141 
L 488 750 
Q 750 597 1062 519 
Q 1375 441 1716 441 
Q 2309 441 2620 675 
Q 2931 909 2931 1356 
Q 2931 1769 2642 2001 
Q 2353 2234 1838 2234 
L 1294 2234 
L 1294 2753 
L 1863 2753 
Q 2328 2753 2575 2939 
Q 2822 3125 2822 3475 
Q 2822 3834 2567 4026 
Q 2313 4219 1838 4219 
Q 1578 4219 1281 4162 
Q 984 4106 628 3988 
L 628 4550 
Q 988 4650 1302 4700 
Q 1616 4750 1894 4750 
Q 2613 4750 3031 4423 
Q 3450 4097 3450 3541 
Q 3450 3153 3228 2886 
Q 3006 2619 2597 2516 
z
" transform="scale(0.015625)"/>
     </defs>
     <use xlink:href="#DejaVuSans-4d"/>
     <use xlink:href="#DejaVuSans-44" x="86.279297"/>
     <use xlink:href="#DejaVuSans-41" x="161.53125"/>
     <use xlink:href="#DejaVuSans-5f" x="229.939453"/>
     <use xlink:href="#DejaVuSans-4d" x="279.939453"/>
     <use xlink:href="#DejaVuSans-42" x="366.21875"/>
     <use xlink:href="#DejaVuSans-5f" x="434.822266"/>
     <use xlink:href="#DejaVuSans-32" x="484.822266"/>
     <use xlink:href="#DejaVuSans-33" x="548.445312"/>
     <use xlink:href="#DejaVuSans-31" x="612.068359"/>
    </g>
   </g>
  </g>
  <g id="axes_27">
   <g id="line2d_27">
    <path d="M 724.852893 369.953724 
L 725.28365 367.438642 
L 725.380928 366.313109 
L 724.255396 365.785073 
L 723.129842 365.090298 
L 722.00431 364.395523 
L 720.878778 363.895284 
L 718.822249 363.228306 
L 717.238163 362.978176 
L 716.11263 362.603012 
L 712.207976 362.450161 
L 711.082443 363.005972 
L 709.567839 364.701226 
L 708.831379 365.785073 
L 707.233404 366.729957 
L 705.885539 367.383048 
L 704.759985 367.869399 
L 703.634453 367.174624 
L 703.203695 363.589581 
L 702.078163 363.005972 
L 701.230536 361.755386 
L 701.925312 360.115705 
L 699.702023 352.445381 
L 694.769136 350.291595 
L 692.198459 346.498107 
L 692.545847 345.289205 
L 692.448568 343.302159 
L 694.282785 338.383138 
L 694.97756 335.604038 
L 694.296673 333.144528 
L 694.699654 332.019016 
L 694.282785 330.740612 
L 695.450002 328.489547 
L 695.352744 326.558051 
L 695.144299 323.931823 
L 697.061885 321.041535 
L 698.451436 318.79047 
L 699.104526 317.192496 
L 699.535283 313.676935 
L 702.620087 310.77278 
L 704.287543 308.535582 
L 705.691002 307.82694 
L 706.03839 305.978814 
L 705.162967 304.186325 
L 705.593724 303.06075 
L 706.093963 301.309945 
L 707.150013 301.532278 
L 709.164878 302.15755 
L 713.597526 303.950082 
L 715.654076 304.644857 
L 717.210366 303.950082 
L 728.06275 303.519325 
L 729.188283 303.088568 
L 731.508851 302.560532 
L 734.190673 301.170982 
L 736.108259 301.865757 
L 737.859064 302.365975 
L 741.999939 303.032974 
L 743.584047 303.950082 
L 744.014804 305.047839 
L 744.723446 307.146031 
L 746.390923 309.383229 
L 749.170024 312.593087 
L 750.726313 314.37171 
L 754.283559 315.316594 
L 756.256739 316.594999 
L 758.202101 319.818766 
L 758.896876 322.125382 
L 760.286427 325.238004 
L 759.202579 328.656286 
L 759.174803 329.934691 
L 759.577742 333.144528 
L 758.896876 334.270081 
L 756.812551 336.785164 
L 756.201145 337.910696 
L 755.075613 339.731004 
L 755.673109 342.162717 
L 758.021453 342.676844 
L 759.84176 343.107601 
L 760.286427 344.233155 
L 760.981202 346.192405 
L 760.286427 347.87377 
L 759.702797 348.999302 
L 759.27204 349.805244 
L 757.868623 350.500019 
L 752.574439 349.040987 
L 748.725358 348.86036 
L 747.780473 350.458334 
L 747.085698 351.583867 
L 747.780473 352.959529 
L 746.66885 355.780315 
L 744.125949 356.933644 
L 742.083309 358.28151 
L 738.748396 362.074976 
L 735.079963 365.785073 
L 733.95443 366.410367 
L 732.134123 366.118573 
L 731.00859 365.882352 
L 727.770957 366.479848 
L 725.547668 368.661453 
" clip-path="url(#pc12d910838)" style="fill: none; stroke: #2ca02c; stroke-width: 1.5; stroke-linecap: square"/>
   </g>
  </g>
  <g id="axes_28">
   <g id="line2d_28">
    <path d="M 818.700698 380.032941 
L 817.238129 379.374118 
L 815.77552 378.715294 
L 814.200942 378.168479 
L 812.481402 377.766587 
L 811.453639 377.364714 
L 809.279529 374.564714 
L 808.337397 371.29036 
L 808.818345 369.649876 
L 810.471998 367.192477 
L 810.004219 366.065874 
L 807.415048 364.88 
L 806.183051 363.79952 
L 808.021174 361.065406 
L 807.803751 350.030112 
L 807.303059 348.870596 
L 806.183051 344.746355 
L 805.524227 342.895062 
L 804.878573 341.834346 
L 805.254107 336.161885 
L 805.392455 335.101168 
L 804.865404 334.040472 
L 804.20658 332.703041 
L 802.210346 329.962353 
L 801.571286 329.540696 
L 800.912463 328.315294 
L 800.345884 326.76048 
L 801.182583 325.080488 
L 802.177413 321.34493 
L 801.571286 318.920464 
L 798.738353 315.468235 
L 798.277168 314.269172 
L 798.935992 312.464002 
L 798.277168 310.77082 
L 796.814579 308.735078 
L 795.411282 308.88 
L 794.983051 305.717655 
L 796.300698 301.639536 
L 795.641874 298.879064 
L 796.162351 297.818367 
L 796.037173 296.098807 
L 795.648469 295.051301 
L 796.300698 296.111997 
L 797.111058 297.021176 
L 798.725164 295.914358 
L 799.232471 295.044706 
L 800.372222 294.385882 
L 803.112931 293.503041 
L 803.916696 291.091765 
L 805.451766 291.678127 
L 807.171286 292.08 
L 807.64564 293.213157 
L 810.241406 294.385882 
L 811.671042 295.044706 
L 812.112463 296.902593 
L 814.451278 298.997647 
L 814.853171 299.761865 
L 815.40658 302.851749 
L 814.747757 304.518591 
L 815.399986 305.579288 
L 815.801878 307.298807 
L 816.342119 308.497871 
L 819.003771 309.538824 
L 819.642811 311.13976 
L 820.071062 312.226835 
L 822.620706 313.491765 
L 824.142587 314.150588 
L 826.349629 315.870108 
L 830.21692 316.443281 
L 833.372711 314.150588 
L 835.171286 315.072957 
L 835.83011 316.535526 
L 837.648469 319.263065 
L 837.147757 320.429196 
L 836.673423 321.582137 
L 837.80658 323.209412 
L 838.465404 324.507275 
L 839.104443 325.989628 
L 839.783051 326.391541 
L 838.498337 327.327059 
L 833.721866 329.435302 
L 832.924716 331.5501 
L 832.522803 336.563757 
L 831.877168 338.039536 
L 831.218345 339.343994 
L 830.658361 340.40471 
L 829.953415 342.427303 
L 829.195752 355.702593 
L 828.583051 358.55529 
L 827.924227 361.223537 
L 826.738353 364.748227 
L 826.270574 365.87483 
L 825.868701 370.229644 
L 825.288933 371.29036 
L 825.947757 372.351056 
L 826.573647 373.411773 
L 824.63011 375.790116 
L 823.971286 376.850832 
L 822.943523 378.42541 
L 821.480914 379.229176 
" clip-path="url(#pcf662d065f)" style="fill: none; stroke: #2ca02c; stroke-width: 1.5; stroke-linecap: square"/>
   </g>
  </g>
  <g id="axes_29">
   <g id="line2d_29">
    <path d="M 883.769492 365.693636 
L 882.832048 365.138936 
L 881.473027 364.584237 
L 879.886595 363.951871 
L 880.729732 362.077001 
L 880.496768 360.756813 
L 879.254229 360.068974 
L 878.777196 358.671138 
L 877.379359 357.373143 
L 873.7849 353.928463 
L 874.783352 352.491794 
L 875.22157 351.498877 
L 875.604314 350.561433 
L 876.003698 349.08593 
L 876.558398 347.765743 
L 877.307245 347.194403 
L 877.689989 346.279152 
L 879.842226 344.659422 
L 880.674276 343.505654 
L 882.105393 342.335246 
L 882.992916 340.954033 
L 883.758404 339.633846 
L 884.623734 338.213816 
L 885.98829 336.366674 
L 886.542989 335.42923 
L 887.652388 333.937087 
L 889.216645 331.956806 
L 889.66595 330.952801 
L 890.226202 329.83785 
L 890.986138 328.523214 
L 891.535285 327.197474 
L 892.644684 325.322587 
L 893.199384 324.046785 
L 893.626496 323.109342 
L 894.264414 321.362058 
L 894.946684 320.125055 
L 895.418182 319.187612 
L 895.972881 317.956195 
L 896.527581 316.758059 
L 897.03236 315.820615 
L 897.415104 314.883172 
L 897.797848 313.945728 
L 898.19168 312.464656 
L 899.301079 310.589769 
L 900.055462 309.668983 
L 901.020651 309.114283 
L 902.895538 308.293339 
L 903.977192 308.243401 
L 908.242832 308.493022 
L 909.629581 308.004884 
L 910.672419 307.450184 
L 911.609863 306.895485 
L 913.523583 305.43107 
L 915.148848 305.547569 
L 916.374747 306.218768 
L 918.660106 307.450184 
L 920.734677 309.114283 
L 923.508175 310.223682 
L 927.04716 309.668983 
L 928.378419 308.881319 
L 929.254854 309.779929 
L 929.809553 311.383019 
L 931.540213 313.618441 
L 933.398443 314.367271 
L 937.109384 314.750015 
L 938.046828 315.215978 
L 938.684746 316.070203 
L 939.239445 317.645565 
L 939.749759 320.718588 
L 941.147613 322.671141 
L 942.567643 323.869277 
L 941.469348 325.744164 
L 941.081052 326.68716 
L 940.698308 327.624604 
L 940.282283 331.856964 
L 938.823421 332.272989 
L 937.885977 332.655733 
L 937.503233 336.921374 
L 935.656074 337.403959 
L 934.247149 339.079146 
L 933.69245 340.399334 
L 933.198759 341.780547 
L 933.459486 344.382072 
L 932.433271 345.724453 
L 928.300787 349.452034 
L 922.543003 354.655118 
L 918.138687 358.504735 
L 915.354085 360.734621 
L 913.878599 361.810739 
L 912.941155 362.365439 
L 911.781818 362.920138 
L 908.847453 362.481921 
L 905.136512 362.099177 
L 899.761472 361.716433 
L 895.961793 361.25604 
L 893.338059 361.810739 
L 890.869639 362.365439 
L 888.245921 362.881305 
L 886.065956 363.951871 
L 885.261635 365.310892 
" clip-path="url(#pc7fda696a3)" style="fill: none; stroke: #2ca02c; stroke-width: 1.5; stroke-linecap: square"/>
   </g>
  </g>
  <g id="axes_30">
   <g id="line2d_30">
    <path d="M 987.288926 380.032941 
L 984.930294 378.344185 
L 983.416041 377.004435 
L 985.076659 375.208723 
L 988.009461 373.840834 
L 991.538965 373.531227 
L 992.152544 374.887863 
L 993.672423 375.3382 
L 996.655895 376.936888 
L 1000.917186 376.818671 
L 1001.361897 375.079254 
L 1000.95096 373.559375 
L 1002.92681 373.401758 
L 1005.302328 371.606045 
L 1001.845999 370.463321 
L 1000.236059 369.675238 
L 997.657898 367.930186 
L 995.04032 366.956339 
L 992.726724 365.678511 
L 990.199215 363.989754 
L 986.838589 361.850661 
L 985.324336 361.17516 
L 982.965713 359.486404 
L 980.607082 356.463532 
L 979.621974 352.945289 
L 978.563684 347.383649 
L 979.160376 344.884288 
L 978.501762 341.816382 
L 977.437846 337.91535 
L 975.46763 334.385855 
L 975.580212 330.102033 
L 976.874927 327.180483 
L 978.000765 323.75231 
L 978.715674 319.930103 
L 979.667008 318.393328 
L 981.941197 315.21284 
L 983.539884 312.57275 
L 985.335597 309.932659 
L 986.005471 307.855487 
L 987.007466 305.496856 
L 987.51409 303.532274 
L 990.10352 296.276242 
L 991.499556 294.199071 
L 993.013809 291.750387 
L 995.575092 292.217602 
L 998.575441 291.091765 
L 999.538045 291.508319 
L 1001.885407 291.936143 
L 1002.05991 293.759995 
L 1003.332113 297.525923 
L 1003.613572 298.691169 
L 1002.555282 300.593837 
L 1001.361897 302.845513 
L 1001.080437 306.65085 
L 1000.382423 312.629045 
L 1000.517518 315.4943 
L 1001.924815 318.190686 
L 1003.140722 320.453613 
L 1005.043391 322.637741 
L 1006.827834 323.741057 
L 1008.398382 323.684762 
L 1010.137799 325.429814 
L 1012.654047 326.870885 
L 1015.997786 327.946062 
L 1018.632242 332.646437 
L 1018.812381 334.63354 
L 1019.656759 338.118001 
L 1018.119984 341.32101 
L 1016.650774 342.03592 
L 1014.933862 344.850514 
L 1017.742838 345.638597 
L 1017.697795 346.82073 
L 1017.506405 347.766429 
L 1016.070969 347.665108 
L 1014.97327 348.228027 
L 1014.731219 348.228027 
L 1015.333546 350.096921 
L 1016.279246 351.751896 
L 1016.943486 353.755894 
L 1017.410718 355.540346 
L 1019.206431 355.658554 
L 1020.439224 357.797647 
L 1022.471353 359.249979 
L 1020.630615 361.045691 
L 1020.219678 363.404322 
L 1018.587216 364.834133 
L 1017.968002 363.325514 
L 1018.812381 360.876814 
L 1016.628253 358.642025 
L 1015.153408 359.897332 
L 1014.30903 362.357293 
L 1012.738482 364.997375 
L 1012.057355 367.356007 
L 1011.212976 369.151719 
L 1010.447415 370.947431 
L 1008.651702 374.4319 
L 1005.865247 378.479288 
L 1000.838386 378.867695 
L 995.248598 378.546836 
L 991.336313 379.081607 
" clip-path="url(#p54b03fad1d)" style="fill: none; stroke: #2ca02c; stroke-width: 1.5; stroke-linecap: square"/>
   </g>
  </g>
 </g>
 <defs>
  <clipPath id="p9a2eb3b34e">
   <rect x="144" y="51.84" width="75.661017" height="97.835294"/>
  </clipPath>
  <clipPath id="p8fedb79315">
   <rect x="234.79322" y="51.84" width="75.661017" height="97.835294"/>
  </clipPath>
  <clipPath id="paed0d7c132">
   <rect x="325.586441" y="51.84" width="75.661017" height="97.835294"/>
  </clipPath>
  <clipPath id="p94c25a0d63">
   <rect x="416.379661" y="51.84" width="75.661017" height="97.835294"/>
  </clipPath>
  <clipPath id="p8b19371971">
   <rect x="507.172881" y="51.84" width="75.661017" height="97.835294"/>
  </clipPath>
  <clipPath id="p9b3643d9ff">
   <rect x="597.966102" y="51.84" width="75.661017" height="97.835294"/>
  </clipPath>
  <clipPath id="p19a0ff79c8">
   <rect x="688.759322" y="51.84" width="75.661017" height="97.835294"/>
  </clipPath>
  <clipPath id="p8a0a47b378">
   <rect x="779.552542" y="51.84" width="75.661017" height="97.835294"/>
  </clipPath>
  <clipPath id="pe4d28d1613">
   <rect x="870.345763" y="51.84" width="75.661017" height="97.835294"/>
  </clipPath>
  <clipPath id="pbf4c4da75f">
   <rect x="961.138983" y="51.84" width="75.661017" height="97.835294"/>
  </clipPath>
  <clipPath id="p6df0d2e3a5">
   <rect x="144" y="169.242353" width="75.661017" height="97.835294"/>
  </clipPath>
  <clipPath id="p32aec5d542">
   <rect x="234.79322" y="169.242353" width="75.661017" height="97.835294"/>
  </clipPath>
  <clipPath id="p3972b65a85">
   <rect x="325.586441" y="169.242353" width="75.661017" height="97.835294"/>
  </clipPath>
  <clipPath id="pbd154903ae">
   <rect x="416.379661" y="169.242353" width="75.661017" height="97.835294"/>
  </clipPath>
  <clipPath id="p9a1dbb1400">
   <rect x="507.172881" y="169.242353" width="75.661017" height="97.835294"/>
  </clipPath>
  <clipPath id="p5b4dd5b8a0">
   <rect x="597.966102" y="169.242353" width="75.661017" height="97.835294"/>
  </clipPath>
  <clipPath id="p8295dd0b1d">
   <rect x="688.759322" y="169.242353" width="75.661017" height="97.835294"/>
  </clipPath>
  <clipPath id="p4470e97fdc">
   <rect x="779.552542" y="169.242353" width="75.661017" height="97.835294"/>
  </clipPath>
  <clipPath id="p07d4440231">
   <rect x="870.345763" y="169.242353" width="75.661017" height="97.835294"/>
  </clipPath>
  <clipPath id="pe63ee7eabe">
   <rect x="961.138983" y="169.242353" width="75.661017" height="97.835294"/>
  </clipPath>
  <clipPath id="pe565c8cae3">
   <rect x="144" y="286.644706" width="75.661017" height="97.835294"/>
  </clipPath>
  <clipPath id="p59b0881c25">
   <rect x="234.79322" y="286.644706" width="75.661017" height="97.835294"/>
  </clipPath>
  <clipPath id="p24c8539e46">
   <rect x="325.586441" y="286.644706" width="75.661017" height="97.835294"/>
  </clipPath>
  <clipPath id="paa6c84fd3a">
   <rect x="416.379661" y="286.644706" width="75.661017" height="97.835294"/>
  </clipPath>
  <clipPath id="pf0f12082b9">
   <rect x="507.172881" y="286.644706" width="75.661017" height="97.835294"/>
  </clipPath>
  <clipPath id="pd8a84a68fe">
   <rect x="597.966102" y="286.644706" width="75.661017" height="97.835294"/>
  </clipPath>
  <clipPath id="pc12d910838">
   <rect x="688.759322" y="286.644706" width="75.661017" height="97.835294"/>
  </clipPath>
  <clipPath id="pcf662d065f">
   <rect x="779.552542" y="286.644706" width="75.661017" height="97.835294"/>
  </clipPath>
  <clipPath id="pc7fda696a3">
   <rect x="870.345763" y="286.644706" width="75.661017" height="97.835294"/>
  </clipPath>
  <clipPath id="p54b03fad1d">
   <rect x="961.138983" y="286.644706" width="75.661017" height="97.835294"/>
  </clipPath>
 </defs>
</svg>
