<?xml version="1.0" encoding="utf-8" standalone="no"?>
<!DOCTYPE svg PUBLIC "-//W3C//DTD SVG 1.1//EN"
  "http://www.w3.org/Graphics/SVG/1.1/DTD/svg11.dtd">
<svg xmlns:xlink="http://www.w3.org/1999/xlink" width="1152pt" height="432pt" viewBox="0 0 1152 432" xmlns="http://www.w3.org/2000/svg" version="1.1">
 <metadata>
  <rdf:RDF xmlns:dc="http://purl.org/dc/elements/1.1/" xmlns:cc="http://creativecommons.org/ns#" xmlns:rdf="http://www.w3.org/1999/02/22-rdf-syntax-ns#">
   <cc:Work>
    <dc:type rdf:resource="http://purl.org/dc/dcmitype/StillImage"/>
    <dc:date>2023-12-25T07:57:35.563336</dc:date>
    <dc:format>image/svg+xml</dc:format>
    <dc:creator>
     <cc:Agent>
      <dc:title>Matplotlib v3.6.2, https://matplotlib.org/</dc:title>
     </cc:Agent>
    </dc:creator>
   </cc:Work>
  </rdf:RDF>
 </metadata>
 <defs>
  <style type="text/css">*{stroke-linejoin: round; stroke-linecap: butt}</style>
 </defs>
 <g id="figure_1">
  <g id="patch_1">
   <path d="M 0 432 
L 1152 432 
L 1152 0 
L 0 0 
z
" style="fill: #ffffff"/>
  </g>
  <g id="axes_1">
   <g id="line2d_1">
    <path d="M 190.607446 126.58651 
L 189.135679 126.089432 
L 188.151278 125.592339 
L 186.650272 125.066021 
L 183.25841 124.188806 
L 182.27398 124.588426 
L 178.248586 123.974391 
L 176.474672 122.61958 
L 175.422022 121.225803 
L 174.437606 120.738466 
L 173.453176 120.251129 
L 172.468761 119.763792 
L 169.788407 117.814444 
L 167.575892 116.83977 
L 166.591477 116.352432 
L 164.827319 115.377758 
L 163.16062 114.890421 
L 162.010512 114.403084 
L 158.930538 111.790965 
L 157.955864 110.319197 
L 156.98119 108.847445 
L 154.008431 106.605692 
L 152.809586 105.416588 
L 153.53085 103.233313 
L 153.823241 101.498394 
L 152.351488 101.001316 
L 151.85441 100.0169 
L 150.119491 99.256641 
L 147.507357 98.535391 
L 147.439137 97.063624 
L 148.11165 96.371614 
L 149.183797 95.279983 
L 148.384557 94.422265 
L 148.530767 93.934928 
L 149.671134 92.297483 
L 151.133145 90.182427 
L 150.158471 88.71069 
L 152.468444 86.624873 
L 154.914886 84.675525 
L 156.006516 83.320713 
L 157.858391 82.82365 
L 158.842821 82.326556 
L 159.827236 81.829463 
L 160.811652 82.170605 
L 161.796082 81.80998 
L 166.679194 81.312887 
L 168.150962 80.815824 
L 170.597388 80.31873 
L 174.018489 79.821637 
L 175.490256 79.324573 
L 178.42402 78.340143 
L 178.921098 77.365469 
L 179.886031 77.872289 
L 180.519563 78.82748 
L 183.336371 78.340143 
L 184.320801 77.901528 
L 185.792554 78.398621 
L 186.776984 78.759246 
L 189.223396 78.262182 
L 191.1825 77.765089 
L 192.459321 76.975605 
L 194.613342 75.523321 
L 195.597773 76.020414 
L 196.582203 76.264082 
L 198.05397 76.039926 
L 199.184566 76.098405 
L 200.178753 74.928784 
L 201.17291 75.747506 
L 202.478969 75.903458 
L 204.438074 77.365469 
L 206.397178 77.852806 
L 208.84359 78.340143 
L 211.445983 79.802154 
L 212.985955 84.149192 
L 213.746199 88.320796 
L 214.486961 89.548895 
L 215.227723 92.239005 
L 215.724787 93.710743 
L 216.22188 95.669847 
L 216.153645 97.628952 
L 215.364162 99.880446 
L 214.672152 101.059794 
L 214.175058 104.480909 
L 213.034706 107.570624 
L 212.206227 110.348437 
L 213.073672 113.964484 
L 213.863155 115.241305 
L 213.638999 117.200394 
L 213.141906 118.184825 
L 211.182802 118.681903 
L 209.808537 118.009375 
L 204.779216 120.212148 
L 203.843507 121.635164 
L 202.859106 121.294037 
L 200.471143 122.687814 
L 199.428235 123.175151 
L 198.404839 125.046524 
L 196.026632 125.670314 
L 193.570464 126.54753 
L 192.56655 126.108915 
" clip-path="url(#p4338cae17a)" style="fill: none; stroke: #1f77b4; stroke-width: 1.5; stroke-linecap: square"/>
   </g>
  </g>
  <g id="axes_2">
   <g id="line2d_2">
    <path d="M 301.142071 123.446943 
L 299.426341 122.611082 
L 298.106557 121.731226 
L 296.588826 121.247302 
L 294.103222 120.807374 
L 292.123546 120.147482 
L 289.967888 120.191478 
L 287.746256 119.047662 
L 285.392652 118.607734 
L 283.940894 118.607734 
L 279.585596 117.28795 
L 276.52809 116.848022 
L 274.218468 116.760031 
L 272.172805 115.594224 
L 269.687214 114.648381 
L 267.707538 113.878507 
L 264.979979 113.416588 
L 263.616212 113.328597 
L 262.384406 112.008813 
L 261.548545 111.32693 
L 259.788833 110.689029 
L 259.150932 109.369244 
L 257.281237 108.929316 
L 255.675503 108.335411 
L 254.597687 107.697523 
L 254.949624 106.509712 
L 253.453871 104.969964 
L 252.310056 104.398063 
L 251.606168 103.210251 
L 250.06642 100.966629 
L 248.350703 99.690827 
L 246.656977 97.557186 
L 246.151063 96.435348 
L 246.590991 94.983591 
L 246.283036 93.399861 
L 244.941261 91.772122 
L 244.39135 90.804275 
L 245.557157 90.166373 
L 245.183216 88.692625 
L 242.829611 87.372841 
L 241.751782 85.173201 
L 240.915921 83.897398 
L 239.596137 83.017542 
L 238.232357 81.785749 
L 239.024223 80.77392 
L 240.981908 81.543794 
L 241.003899 80.026037 
L 239.552142 78.068352 
L 241.751782 79.014208 
L 244.85327 79.476127 
L 245.931099 80.114028 
L 247.426851 81.169866 
L 248.086744 82.269686 
L 249.098586 84.161371 
L 250.242388 84.733273 
L 251.320217 84.843255 
L 252.398047 85.173201 
L 254.641669 85.921084 
L 255.389552 85.305174 
L 256.511363 87.130886 
L 257.149264 86.053057 
L 258.667022 88.692625 
L 260.536716 89.132553 
L 263.022307 89.858445 
L 263.660194 89.132553 
L 265.507898 89.132553 
L 267.135637 86.361012 
L 268.213453 87.812769 
L 269.027322 86.580976 
L 269.489241 85.195192 
L 270.347106 86.932913 
L 272.040832 89.066553 
L 273.77854 90.012409 
L 276.308126 90.892266 
L 277.517929 89.572481 
L 278.485776 91.992086 
L 279.849542 92.651978 
L 283.676922 94.851618 
L 284.952724 95.203555 
L 286.426472 94.851618 
L 287.504301 96.171402 
L 288.340175 98.766989 
L 289.659959 99.646845 
L 290.297834 100.284719 
L 292.34351 102.770323 
L 293.223366 104.640018 
L 294.851105 106.289748 
L 295.928934 106.795662 
L 297.27071 107.697523 
L 298.942431 110.271092 
L 300.042251 111.568885 
L 300.702143 113.26261 
L 301.318053 114.82435 
L 302.395855 115.462251 
L 304.661496 118.739707 
L 305.871298 119.927518 
L 306.949127 120.455437 
L 307.0151 121.533253 
L 305.937298 122.127158 
L 304.859469 122.567086 
" clip-path="url(#p54be33c511)" style="fill: none; stroke: #1f77b4; stroke-width: 1.5; stroke-linecap: square"/>
   </g>
  </g>
  <g id="axes_3">
   <g id="line2d_3">
    <path d="M 361.961639 123.161829 
L 359.893564 122.242685 
L 358.591442 122.319273 
L 357.672287 122.778851 
L 356.753144 122.395874 
L 355.068045 122.012896 
L 354.30209 121.47673 
L 352.846781 120.098009 
L 351.544648 120.404386 
L 350.472316 119.86822 
L 349.706361 119.332054 
L 346.87233 118.795888 
L 346.259564 118.259722 
L 344.574465 117.646955 
L 343.348933 116.8044 
L 342.429789 116.268234 
L 341.893623 114.966113 
L 341.357457 114.04697 
L 338.600014 110.82995 
L 336.838316 108.991662 
L 335.919172 108.608685 
L 335.000029 108.072519 
L 334.080885 107.536353 
L 331.476631 106.693798 
L 329.944721 106.31082 
L 329.025578 104.77891 
L 330.480887 104.012955 
L 332.395775 102.864023 
L 333.468119 103.017212 
L 334.617051 101.485314 
L 338.217037 101.715091 
L 340.208524 100.106581 
L 341.587234 99.110849 
L 344.804254 97.885316 
L 345.493609 97.042761 
L 344.727654 96.353406 
L 344.651054 95.587451 
L 346.412752 95.970429 
L 347.944662 96.200206 
L 348.787217 93.289587 
L 349.706361 93.672564 
L 351.697848 93.595964 
L 352.69358 92.217254 
L 355.680811 92.293855 
L 357.059533 90.608744 
L 358.514842 90.991722 
L 361.885039 90.302367 
L 362.03824 88.38748 
L 362.880795 88.081102 
L 363.953127 89.91939 
L 366.557369 89.842789 
L 367.246724 89.383212 
L 368.778634 89.536412 
L 370.540344 89.076834 
L 374.982873 88.081102 
L 376.514783 87.544925 
L 377.816916 86.625769 
L 378.736048 86.77897 
L 380.421158 85.936415 
L 381.34029 85.40026 
L 382.259445 84.864082 
L 384.63391 84.098127 
L 386.012619 83.71515 
L 387.008375 83.178972 
L 388.463684 82.10664 
L 389.536017 81.417285 
L 390.838149 81.034308 
L 391.757281 80.65133 
L 393.442391 79.808775 
L 394.591324 79.04282 
L 395.663656 78.353466 
L 396.582811 78.736443 
L 397.80832 78.96622 
L 397.578543 80.344953 
L 396.812588 81.647062 
L 395.280679 82.566218 
L 393.825369 85.24706 
L 391.527504 86.77897 
L 389.30624 88.540657 
L 387.084952 90.378967 
L 386.08922 91.757677 
L 381.876467 95.740652 
L 381.110513 97.349138 
L 379.425402 99.570426 
L 378.582871 100.795935 
L 378.046693 102.098068 
L 377.280738 103.400189 
L 376.89776 104.319333 
L 376.361583 105.315077 
L 375.28925 107.536353 
L 374.599896 108.608685 
L 373.833941 110.217195 
L 373.450963 112.51506 
L 372.991386 113.663992 
L 372.225431 116.268234 
L 370.387144 118.183122 
L 369.850966 119.102265 
L 369.314811 120.787364 
L 368.548856 122.012896 
L 364.259504 122.778851 
" clip-path="url(#p311ead4814)" style="fill: none; stroke: #1f77b4; stroke-width: 1.5; stroke-linecap: square"/>
   </g>
  </g>
  <g id="axes_4">
   <g id="line2d_4">
    <path d="M 444.98664 145.228235 
L 443.919349 144.569412 
L 440.216764 141.275294 
L 439.149473 140.708716 
L 438.082162 140.300228 
L 437.607809 139.167051 
L 436.421934 137.032469 
L 437.080758 135.108716 
L 436.448293 132.736947 
L 437.080758 131.287527 
L 436.421934 129.943521 
L 435.341454 128.33599 
L 433.07512 120.140244 
L 430.452995 113.565178 
L 429.833699 112.049892 
L 428.516052 108.927055 
L 429.122178 105.092697 
L 429.530646 104.025406 
L 430.255356 101.324226 
L 432.468993 98.596707 
L 433.391342 97.792941 
L 434.471822 97.134118 
L 437.871354 95.025874 
L 439.228529 93.181176 
L 440.29582 92.601409 
L 440.704287 91.534118 
L 441.112755 89.808003 
L 441.692522 88.253189 
L 442.351346 85.35435 
L 442.997 81.335542 
L 443.405468 78.950604 
L 443.813935 77.22449 
L 444.327817 76.157159 
L 444.98664 75.089868 
L 445.645464 74.022577 
L 446.567813 72.494102 
L 448.465228 71.25551 
L 450.876524 69.463529 
L 451.943815 68.804706 
L 453.788513 67.487059 
L 455.923095 66.432957 
L 456.463335 65.510588 
L 458.874651 63.534118 
L 461.009233 62.664466 
L 462.484991 61.847531 
L 464.026656 60.898824 
L 465.093947 60.24 
L 468.137709 57.604706 
L 469.705712 56.603281 
L 472.907584 56.537415 
L 473.974875 56.945882 
L 477.084503 56.287059 
L 479.904287 58.07904 
L 479.337709 59.581176 
L 477.927817 61.215046 
L 477.268993 62.677655 
L 476.794659 67.302569 
L 476.386152 70.346371 
L 475.951346 72.046106 
L 475.292522 75.05034 
L 474.633699 77.501185 
L 474.093459 78.568475 
L 473.684991 80.29459 
L 473.276524 82.020704 
L 472.657228 83.53599 
L 471.998405 85.209428 
L 471.392298 87.199048 
L 470.983831 89.583986 
L 471.128753 90.756711 
L 470.021934 92.377431 
L 469.363111 93.708227 
L 468.704287 95.223513 
L 468.28263 98.873421 
L 467.874163 99.940712 
L 467.38664 102.167539 
L 466.727817 104.381176 
L 466.068993 106.515758 
L 465.58147 108.162817 
L 465.173003 109.888932 
L 464.751346 112.893185 
L 464.092522 114.395302 
L 463.433699 116.016002 
L 462.880269 118.111056 
L 462.168769 120.140244 
L 461.404511 121.563285 
L 460.798405 122.630596 
L 459.480758 125.200004 
L 458.861462 128.059296 
L 458.452995 129.78541 
L 457.26712 130.312461 
L 456.18664 131.919992 
L 455.251122 132.328479 
L 454.078397 132.842361 
L 450.916052 136.439532 
L 450.257228 137.506823 
L 449.664291 138.574114 
L 449.255824 139.957647 
L 447.621934 141.367539 
L 446.62053 142.935522 
L 446.053931 144.819768 
" clip-path="url(#p110e9d5553)" style="fill: none; stroke: #1f77b4; stroke-width: 1.5; stroke-linecap: square"/>
   </g>
  </g>
  <g id="axes_5">
   <g id="line2d_5">
    <path d="M 535.196803 133.537359 
L 527.835026 126.708253 
L 525.936536 125.342431 
L 524.270232 123.744423 
L 522.740519 121.927878 
L 520.923974 121.313262 
L 518.779624 119.851824 
L 515.870439 117.625549 
L 513.015857 115.453877 
L 511.950518 113.022717 
L 510.612018 111.137898 
L 511.691008 110.318396 
L 512.906588 109.635486 
L 514.709483 108.174047 
L 515.966036 106.330201 
L 516.55335 105.059976 
L 518.45184 104.527306 
L 518.98451 99.897173 
L 519.435234 93.190985 
L 518.124036 91.319817 
L 519.626448 92.016399 
L 522.057608 92.0437 
L 523.013679 89.721829 
L 523.587321 88.506228 
L 524.270232 87.290669 
L 524.953143 85.050702 
L 525.636053 82.428306 
L 522.904411 78.057703 
L 521.183483 73.769004 
L 520.172768 73.017819 
L 517.441125 69.753486 
L 519.052784 69.097918 
L 520.828356 67.977935 
L 523.232215 69.343756 
L 524.625338 70.026667 
L 526.728714 71.392488 
L 530.471052 74.124131 
L 531.686632 74.711424 
L 533.585143 75.244114 
L 536.453356 74.916289 
L 537.108944 73.30463 
L 536.562624 71.41979 
L 537.245535 71.911507 
L 537.928445 73.127066 
L 540.41425 75.489952 
L 542.70882 74.055857 
L 543.309785 72.840256 
L 546.109723 74.110459 
L 550.52132 75.107524 
L 553.785611 75.339732 
L 555.001212 74.807042 
L 556.216813 74.124131 
L 558.497711 72.75831 
L 560.013795 72.075399 
L 561.3113 71.392488 
L 561.898593 72.007125 
L 562.759067 74.369969 
L 564.193205 74.492888 
L 564.725853 73.277328 
L 565.258544 68.647174 
L 566.474103 67.977935 
L 567.402851 70.818825 
L 568.659425 71.638326 
L 569.246719 72.853927 
L 569.915999 74.697794 
L 570.981338 77.811865 
L 572.756889 76.52799 
L 573.617364 75.667516 
L 574.095409 77.565986 
L 573.4398 79.90157 
L 575.488532 82.728789 
L 574.805621 84.203899 
L 575.707069 85.733612 
L 577.496291 86.37555 
L 578.520657 88.082827 
L 579.244541 90.172532 
L 579.394761 92.753954 
L 578.862113 94.611451 
L 577.07289 95.758736 
L 577.277755 97.766495 
L 578.220175 98.572325 
L 576.171443 101.563477 
L 575.515834 102.779057 
L 574.983185 106.903843 
L 572.756889 109.662808 
L 570.708157 112.571993 
L 567.293604 116.519216 
L 565.531683 118.909403 
L 564.807799 120.316219 
L 563.018577 121.422531 
L 561.420589 123.70345 
L 559.112348 125.342431 
L 557.049944 127.910182 
L 554.577811 129.439895 
L 552.078334 130.122806 
L 549.401336 130.805717 
L 547.571141 131.406681 
L 545.454113 132.840798 
L 541.725427 133.236877 
L 539.144025 133.00469 
" clip-path="url(#p23c61b88e3)" style="fill: none; stroke: #1f77b4; stroke-width: 1.5; stroke-linecap: square"/>
   </g>
  </g>
  <g id="axes_6">
   <g id="line2d_6">
    <path d="M 635.301201 122.138177 
L 630.712216 121.616701 
L 627.531207 121.095225 
L 625.940695 120.599816 
L 623.515833 120.260859 
L 619.005065 119.921903 
L 617.675307 119.530795 
L 616.762724 119.009319 
L 615.589402 118.487843 
L 612.590913 117.158084 
L 611.574028 116.662676 
L 610.192118 116.480156 
L 607.662955 116.923414 
L 606.620002 116.167267 
L 605.524899 114.837508 
L 604.664466 114.446401 
L 604.012621 114.107445 
L 603.491144 113.247012 
L 602.761081 112.021539 
L 601.405239 111.52613 
L 601.926715 111.187174 
L 604.012621 108.762312 
L 606.098526 106.33745 
L 607.089328 104.981609 
L 608.393019 102.634965 
L 610.139968 101.409492 
L 611.313289 99.766829 
L 611.834766 98.906412 
L 612.356242 98.045964 
L 612.7995 97.185547 
L 613.138457 96.585836 
L 614.676818 95.542884 
L 617.258117 94.291328 
L 618.848629 93.743784 
L 620.386975 93.248375 
L 622.264293 90.979966 
L 624.245896 89.285167 
L 626.95758 87.147127 
L 627.32262 85.79127 
L 628.0266 85.113357 
L 630.607914 83.548928 
L 630.946871 82.688479 
L 631.285827 81.463022 
L 631.650867 81.958431 
L 632.798121 82.505975 
L 633.99751 81.984499 
L 635.24905 82.45384 
L 638.195389 82.219169 
L 638.638647 80.732943 
L 639.916254 79.898593 
L 640.776703 79.377117 
L 641.193878 80.05503 
L 642.497568 80.941546 
L 643.30585 82.167003 
L 644.948514 82.505975 
L 647.686264 82.897082 
L 650.632619 82.818848 
L 651.493035 82.532042 
L 653.083532 83.027451 
L 654.804429 82.505975 
L 656.681731 81.984499 
L 657.881121 81.306586 
L 659.967026 80.785109 
L 660.827475 80.42007 
L 661.687892 79.898593 
L 662.809078 79.768224 
L 663.9824 81.410887 
L 663.460924 83.705364 
L 663.9824 86.052008 
L 664.868916 88.607255 
L 666.589782 89.285167 
L 667.189493 90.406354 
L 667.632735 93.352677 
L 668.675687 95.490749 
L 670.187982 97.680924 
L 669.327533 98.150265 
L 668.154211 99.401821 
L 667.450231 99.897198 
L 663.9824 103.730069 
L 662.939448 106.937145 
L 662.417971 111.187174 
L 662.078999 113.612036 
L 659.654153 113.950992 
L 659.289113 114.811441 
L 659.81059 115.671874 
L 659.158744 116.271568 
L 657.828986 115.880461 
L 655.873449 117.44489 
L 654.908699 116.923414 
L 653.631108 117.366672 
L 652.770659 117.705628 
L 650.867257 118.044585 
L 650.006841 118.487843 
L 648.859586 119.765466 
L 648.33811 120.625899 
L 647.164788 121.095225 
L 643.853426 120.052272 
L 640.437731 120.573748 
L 638.221472 121.303812 
L 637.204587 121.799221 
" clip-path="url(#pe1e6f3b9cf)" style="fill: none; stroke: #1f77b4; stroke-width: 1.5; stroke-linecap: square"/>
   </g>
   <g id="text_1">
    <!-- MCF10A -->
    <g transform="translate(594.868485 45.84) scale(0.2 -0.2)">
     <defs>
      <path id="DejaVuSans-4d" d="M 628 4666 
L 1569 4666 
L 2759 1491 
L 3956 4666 
L 4897 4666 
L 4897 0 
L 4281 0 
L 4281 4097 
L 3078 897 
L 2444 897 
L 1241 4097 
L 1241 0 
L 628 0 
L 628 4666 
z
" transform="scale(0.015625)"/>
      <path id="DejaVuSans-43" d="M 4122 4306 
L 4122 3641 
Q 3803 3938 3442 4084 
Q 3081 4231 2675 4231 
Q 1875 4231 1450 3742 
Q 1025 3253 1025 2328 
Q 1025 1406 1450 917 
Q 1875 428 2675 428 
Q 3081 428 3442 575 
Q 3803 722 4122 1019 
L 4122 359 
Q 3791 134 3420 21 
Q 3050 -91 2638 -91 
Q 1578 -91 968 557 
Q 359 1206 359 2328 
Q 359 3453 968 4101 
Q 1578 4750 2638 4750 
Q 3056 4750 3426 4639 
Q 3797 4528 4122 4306 
z
" transform="scale(0.015625)"/>
      <path id="DejaVuSans-46" d="M 628 4666 
L 3309 4666 
L 3309 4134 
L 1259 4134 
L 1259 2759 
L 3109 2759 
L 3109 2228 
L 1259 2228 
L 1259 0 
L 628 0 
L 628 4666 
z
" transform="scale(0.015625)"/>
      <path id="DejaVuSans-31" d="M 794 531 
L 1825 531 
L 1825 4091 
L 703 3866 
L 703 4441 
L 1819 4666 
L 2450 4666 
L 2450 531 
L 3481 531 
L 3481 0 
L 794 0 
L 794 531 
z
" transform="scale(0.015625)"/>
      <path id="DejaVuSans-30" d="M 2034 4250 
Q 1547 4250 1301 3770 
Q 1056 3291 1056 2328 
Q 1056 1369 1301 889 
Q 1547 409 2034 409 
Q 2525 409 2770 889 
Q 3016 1369 3016 2328 
Q 3016 3291 2770 3770 
Q 2525 4250 2034 4250 
z
M 2034 4750 
Q 2819 4750 3233 4129 
Q 3647 3509 3647 2328 
Q 3647 1150 3233 529 
Q 2819 -91 2034 -91 
Q 1250 -91 836 529 
Q 422 1150 422 2328 
Q 422 3509 836 4129 
Q 1250 4750 2034 4750 
z
" transform="scale(0.015625)"/>
      <path id="DejaVuSans-41" d="M 2188 4044 
L 1331 1722 
L 3047 1722 
L 2188 4044 
z
M 1831 4666 
L 2547 4666 
L 4325 0 
L 3669 0 
L 3244 1197 
L 1141 1197 
L 716 0 
L 50 0 
L 1831 4666 
z
" transform="scale(0.015625)"/>
     </defs>
     <use xlink:href="#DejaVuSans-4d"/>
     <use xlink:href="#DejaVuSans-43" x="86.279297"/>
     <use xlink:href="#DejaVuSans-46" x="156.103516"/>
     <use xlink:href="#DejaVuSans-31" x="213.623047"/>
     <use xlink:href="#DejaVuSans-30" x="277.246094"/>
     <use xlink:href="#DejaVuSans-41" x="340.869141"/>
    </g>
   </g>
  </g>
  <g id="axes_7">
   <g id="line2d_7">
    <path d="M 755.108173 123.446943 
L 753.392443 122.611082 
L 752.072658 121.731226 
L 750.554928 121.247302 
L 748.069324 120.807374 
L 746.089647 120.147482 
L 743.933989 120.191478 
L 741.712358 119.047662 
L 739.358753 118.607734 
L 737.906996 118.607734 
L 733.551698 117.28795 
L 730.494192 116.848022 
L 728.18457 116.760031 
L 726.138907 115.594224 
L 723.653316 114.648381 
L 721.67364 113.878507 
L 718.94608 113.416588 
L 717.582314 113.328597 
L 716.350507 112.008813 
L 715.514647 111.32693 
L 713.754934 110.689029 
L 713.117033 109.369244 
L 711.247339 108.929316 
L 709.641604 108.335411 
L 708.563789 107.697523 
L 708.915726 106.509712 
L 707.419973 104.969964 
L 706.276157 104.398063 
L 705.57227 103.210251 
L 704.032522 100.966629 
L 702.316805 99.690827 
L 700.623079 97.557186 
L 700.117164 96.435348 
L 700.557092 94.983591 
L 700.249137 93.399861 
L 698.907362 91.772122 
L 698.357452 90.804275 
L 699.523259 90.166373 
L 699.149317 88.692625 
L 696.795713 87.372841 
L 695.717884 85.173201 
L 694.882023 83.897398 
L 693.562239 83.017542 
L 692.198459 81.785749 
L 692.990324 80.77392 
L 694.94801 81.543794 
L 694.970001 80.026037 
L 693.518243 78.068352 
L 695.717884 79.014208 
L 698.819371 79.476127 
L 699.8972 80.114028 
L 701.392953 81.169866 
L 702.052845 82.269686 
L 703.064688 84.161371 
L 704.20849 84.733273 
L 705.286319 84.843255 
L 706.364148 85.173201 
L 708.607771 85.921084 
L 709.355654 85.305174 
L 710.477465 87.130886 
L 711.115366 86.053057 
L 712.633123 88.692625 
L 714.502818 89.132553 
L 716.988408 89.858445 
L 717.626296 89.132553 
L 719.473999 89.132553 
L 721.101739 86.361012 
L 722.179554 87.812769 
L 722.993424 86.580976 
L 723.455343 85.195192 
L 724.313208 86.932913 
L 726.006934 89.066553 
L 727.744642 90.012409 
L 730.274228 90.892266 
L 731.48403 89.572481 
L 732.451877 91.992086 
L 733.815644 92.651978 
L 737.643023 94.851618 
L 738.918825 95.203555 
L 740.392574 94.851618 
L 741.470403 96.171402 
L 742.306277 98.766989 
L 743.626061 99.646845 
L 744.263935 100.284719 
L 746.309612 102.770323 
L 747.189468 104.640018 
L 748.817207 106.289748 
L 749.895036 106.795662 
L 751.236811 107.697523 
L 752.908533 110.271092 
L 754.008353 111.568885 
L 754.668245 113.26261 
L 755.284155 114.82435 
L 756.361957 115.462251 
L 758.627597 118.739707 
L 759.8374 119.927518 
L 760.915229 120.455437 
L 760.981202 121.533253 
L 759.9034 122.127158 
L 758.82557 122.567086 
" clip-path="url(#p28a483ff6b)" style="fill: none; stroke: #1f77b4; stroke-width: 1.5; stroke-linecap: square"/>
   </g>
  </g>
  <g id="axes_8">
   <g id="line2d_8">
    <path d="M 832.374161 142.203659 
L 829.434728 139.264225 
L 823.555861 137.500565 
L 819.440654 137.206622 
L 815.913334 133.973245 
L 812.679957 131.915642 
L 811.210241 130.445925 
L 806.80109 125.154945 
L 803.567714 123.979171 
L 800.922224 122.215511 
L 797.10096 120.451851 
L 795.043357 119.570021 
L 790.634206 118.688191 
L 788.870546 116.630588 
L 786.519 112.221438 
L 785.63717 108.400174 
L 782.99168 105.754684 
L 784.167453 102.227364 
L 782.99168 99.875817 
L 782.99168 96.936384 
L 782.99168 93.99695 
L 785.931113 91.645403 
L 787.694773 93.99695 
L 790.340263 97.230327 
L 791.80998 98.112157 
L 795.3373 99.28793 
L 794.161527 95.76061 
L 792.397867 92.821177 
L 794.161527 93.99695 
L 795.631243 95.76061 
L 796.513073 91.645403 
L 794.749413 88.118083 
L 792.985753 85.17865 
L 791.222093 82.53316 
L 790.04632 78.711896 
L 789.752376 76.948236 
L 791.222093 74.008803 
L 792.69181 78.417953 
L 793.57364 81.063443 
L 795.925187 84.29682 
L 798.86462 86.94231 
L 800.040394 89.5878 
L 801.804054 92.23329 
L 803.567714 94.290893 
L 804.743487 96.348497 
L 806.213204 91.35146 
L 805.331374 89.293857 
L 806.507147 90.763573 
L 808.270807 91.057517 
L 806.80109 87.82414 
L 808.858694 84.590763 
L 807.976864 81.357386 
L 807.68292 79.299783 
L 810.622354 81.65133 
L 813.561787 82.239216 
L 815.325447 84.884706 
L 817.676994 88.118083 
L 819.734598 90.175687 
L 822.380088 88.118083 
L 823.261918 86.648367 
L 825.319521 86.94231 
L 827.671068 84.884706 
L 830.022615 84.590763 
L 831.198388 82.53316 
L 831.198388 79.299783 
L 829.728671 75.772463 
L 827.671068 74.596689 
L 825.613465 72.833029 
L 822.380088 71.657256 
L 823.555861 69.893596 
L 823.555861 68.129936 
L 826.789238 65.484446 
L 827.671068 62.838956 
L 830.022615 61.957126 
L 830.022615 59.311635 
L 832.080218 60.781352 
L 832.962048 62.838956 
L 834.137822 66.366276 
L 835.313595 68.717822 
L 837.371198 71.069369 
L 838.840915 74.008803 
L 840.604575 78.711896 
L 842.956122 82.827103 
L 845.601612 81.063443 
L 849.422875 86.354423 
L 850.304705 90.763573 
L 851.774422 99.875817 
L 850.010762 110.457777 
L 851.774422 115.160871 
L 850.892592 118.982134 
L 851.186535 121.627625 
L 851.480479 124.273115 
L 851.186535 126.918605 
L 849.128932 128.976208 
L 848.247102 132.797472 
L 845.013725 134.561132 
L 843.544009 138.088452 
L 841.192462 138.676339 
L 838.253028 139.264225 
L 835.607538 140.733942 
" clip-path="url(#p99d68c90d5)" style="fill: none; stroke: #1f77b4; stroke-width: 1.5; stroke-linecap: square"/>
   </g>
  </g>
  <g id="axes_9">
   <g id="line2d_9">
    <path d="M 894.337406 136.055759 
L 891.765127 134.866076 
L 890.260346 130.9112 
L 888.864875 130.268131 
L 887.469425 129.625061 
L 884.980748 128.981991 
L 883.379491 129.599333 
L 880.710755 128.216736 
L 877.977708 126.769829 
L 875.688381 124.101093 
L 875.045311 122.101136 
L 874.961709 120.705686 
L 873.7849 118.667146 
L 874.537281 115.342486 
L 875.77842 112.172136 
L 877.328201 109.689896 
L 879.5468 107.297676 
L 880.18987 104.757562 
L 880.871522 103.220615 
L 881.771816 101.677232 
L 883.276597 99.529401 
L 884.414843 97.748085 
L 885.167224 96.352634 
L 885.919624 93.671044 
L 886.620568 90.732211 
L 887.263638 86.05708 
L 886.620568 82.616672 
L 887.263638 78.591049 
L 888.549777 75.761526 
L 887.906708 73.169975 
L 888.485467 69.112206 
L 887.733086 67.716716 
L 887.54659 66.321266 
L 888.942041 66.604218 
L 889.835917 65.459535 
L 890.478987 66.539927 
L 893.128431 67.890358 
L 894.337406 69.279371 
L 893.694336 72.932043 
L 894.980476 77.632881 
L 897.424133 80.237306 
L 898.819603 80.732443 
L 900.125034 80.018645 
L 900.768104 79.664965 
L 901.719854 80.751754 
L 903.340383 78.629632 
L 904.510775 78.706797 
L 905.263156 80.102248 
L 907.198802 78.410971 
L 908.484942 74.751902 
L 909.128012 72.713382 
L 910.201927 71.105707 
L 911.057221 69.922441 
L 910.407714 68.526991 
L 909.886829 66.48847 
L 911.700291 67.472347 
L 912.67777 68.533428 
L 914.07322 69.176498 
L 914.825601 71.658738 
L 915.597293 73.677986 
L 916.973471 75.092748 
L 918.368922 75.369263 
L 919.417129 75.658652 
L 918.774059 77.349929 
L 918.130989 79.877189 
L 918.870535 82.13437 
L 922.632478 84.81596 
L 924.812494 89.754732 
L 926.568062 90.397802 
L 929.063176 92.79644 
L 931.571164 94.89929 
L 933.609685 97.47157 
L 934.850805 98.26897 
L 936.780014 100.95056 
L 937.423084 103.837977 
L 938.709224 107.921454 
L 939.40375 110.281529 
L 940.696327 118.692874 
L 942.567643 120.480607 
L 941.924573 122.827808 
L 942.567643 124.609124 
L 941.924573 127.747288 
L 942.567643 130.190965 
L 939.712411 131.837223 
L 935.776827 134.486667 
L 933.918346 135.702078 
L 930.285025 134.769619 
L 926.896034 134.12655 
L 923.944326 136.055759 
L 922.548876 135.329087 
L 921.153425 134.576706 
L 919.114905 134.428793 
L 914.504066 134.358045 
L 909.893266 134.647435 
L 907.854726 134.139404 
L 905.71975 133.48348 
L 903.160325 134.12655 
L 900.453006 134.769619 
L 898.414466 136.055759 
L 895.951517 135.412689 
" clip-path="url(#pfa81781f4b)" style="fill: none; stroke: #1f77b4; stroke-width: 1.5; stroke-linecap: square"/>
   </g>
  </g>
  <g id="axes_10">
   <g id="line2d_10">
    <path d="M 1013.998355 145.228235 
L 1011.872771 143.657648 
L 1007.183179 142.453333 
L 1003.736772 141.626417 
L 1001.255991 141.365576 
L 999.013883 139.595187 
L 995.17341 137.458509 
L 994.124506 136.348548 
L 991.288547 134.173017 
L 989.024234 131.092882 
L 988.136262 129.35579 
L 986.660012 127.87954 
L 984.606594 126.381103 
L 984.700931 124.810499 
L 984.02941 122.684931 
L 982.725202 118.949906 
L 981.254507 115.281494 
L 978.973546 109.093465 
L 976.914556 106.479494 
L 974.550351 104.115289 
L 974.594742 101.606767 
L 973.246143 91.711472 
L 973.484781 89.15302 
L 972.879854 85.795361 
L 972.885409 84.224791 
L 972.37482 82.654187 
L 974.361642 81.638563 
L 974.039761 79.840432 
L 976.52608 79.474159 
L 979.034585 76.255246 
L 980.699527 72.026297 
L 983.024896 69.090462 
L 984.650985 67.530969 
L 988.563608 63.551768 
L 991.610445 61.426183 
L 995.711742 60.28848 
L 998.325712 58.784471 
L 1000.517892 57.702252 
L 1002.643443 56.98634 
L 1005.529348 56.287059 
L 1007.671564 56.764334 
L 1010.113492 59.827837 
L 1010.668473 63.490695 
L 1010.457577 66.421008 
L 1007.049989 67.819569 
L 1007.33859 70.167126 
L 1008.803746 74.745715 
L 1006.223073 74.185179 
L 1004.652469 74.101952 
L 1005.118668 78.081153 
L 1006.506119 82.237951 
L 1007.710417 83.99723 
L 1006.228629 84.269165 
L 1008.442995 86.400305 
L 1008.548443 87.610158 
L 1006.783609 88.425997 
L 1005.407268 88.620227 
L 1004.008707 88.792269 
L 1005.274079 89.885599 
L 1007.321924 91.378463 
L 1005.229671 92.949068 
L 1007.42185 95.279992 
L 1010.368795 96.090276 
L 1007.016691 97.266832 
L 1009.203316 99.919621 
L 1015.663297 101.912016 
L 1014.553336 102.927623 
L 1014.769786 104.49821 
L 1015.352509 106.379602 
L 1016.773258 107.084421 
L 1015.607812 108.044543 
L 1013.004953 107.489563 
L 1012.067034 110.553049 
L 1014.325809 110.591902 
L 1016.040679 111.929407 
L 1024.68173 112.345642 
L 1025.564163 113.039368 
L 1023.482987 113.594348 
L 1019.981061 115.381386 
L 1018.044151 116.924231 
L 1015.996272 117.7012 
L 1013.915095 117.479212 
L 1011.290048 119.210748 
L 1010.235571 121.241978 
L 1011.068042 122.474036 
L 1010.36324 123.583997 
L 1008.925826 124.693958 
L 1007.455148 125.92046 
L 1009.625106 128.578821 
L 1013.709755 129.133801 
L 1016.05179 129.300289 
L 1018.177375 128.578821 
L 1020.103141 129.888567 
L 1018.887732 130.904191 
L 1016.218277 131.942001 
L 1014.636596 134.045382 
L 1015.108316 135.615969 
L 1015.119427 137.469602 
L 1015.108316 140.610794 
L 1014.092693 143.657648 
" clip-path="url(#pe23964fe91)" style="fill: none; stroke: #1f77b4; stroke-width: 1.5; stroke-linecap: square"/>
   </g>
  </g>
  <g id="axes_11">
   <g id="line2d_11">
    <path d="M 191.34737 257.15664 
L 187.528385 254.848911 
L 185.772054 254.134113 
L 184.260783 251.540471 
L 181.299536 251.02991 
L 179.400249 251.84681 
L 177.684757 250.641879 
L 175.84675 251.02991 
L 174.498862 252.479901 
L 171.946058 253.439758 
L 170.108036 251.02991 
L 168.229176 250.376393 
L 166.697493 248.334149 
L 164.675676 245.413741 
L 161.510193 243.371497 
L 160.10104 242.963055 
L 158.324298 243.718675 
L 157.813737 243.208114 
L 158.344709 241.513048 
L 157.650354 240.001793 
L 156.629232 236.427867 
L 154.03559 235.161686 
L 154.586989 233.384928 
L 153.525029 230.566638 
L 151.013063 229.055367 
L 152.034185 226.012428 
L 150.767988 224.235671 
L 151.97292 223.459624 
L 152.320098 221.703294 
L 150.502502 220.947658 
L 151.013063 218.966695 
L 150.502502 217.394159 
L 149.808147 215.106856 
L 148.54195 214.351205 
L 147.439137 212.574463 
L 149.379262 212.635728 
L 151.013063 211.573753 
L 150.747577 209.91954 
L 152.034185 205.875907 
L 151.523624 202.301981 
L 151.727845 200.178062 
L 151.196858 197.931582 
L 152.626437 198.523819 
L 153.565867 199.27947 
L 155.669376 201.056212 
L 157.446133 201.811832 
L 159.263728 202.526629 
L 160.999632 202.301981 
L 162.28624 204.058312 
L 164.553131 203.03719 
L 166.840449 200.484386 
L 168.576353 198.237906 
L 167.943263 193.41821 
L 173.293946 191.478085 
L 178.03195 190.232315 
L 179.298131 189.762608 
L 182.933322 188.230925 
L 185.118522 186.801361 
L 187.181207 183.717554 
L 187.773444 181.940812 
L 189.203008 180.572513 
L 190.46922 179.91898 
L 191.735401 179.16336 
L 193.900174 180.307011 
L 195.431857 185.187972 
L 196.044536 188.843605 
L 197.494512 191.314702 
L 201.129702 195.378777 
L 202.069148 196.216105 
L 203.72336 198.564672 
L 205.132513 200.382267 
L 203.600831 202.097744 
L 203.09027 204.405489 
L 203.621242 206.631527 
L 204.642363 208.16321 
L 206.153635 210.185042 
L 206.664196 213.738557 
L 207.685317 216.761068 
L 208.931087 218.578664 
L 210.156446 221.335689 
L 211.259243 222.336384 
L 212.729661 223.970185 
L 215.200758 224.84835 
L 215.425406 227.462419 
L 214.833169 229.239177 
L 215.34373 231.322258 
L 216.22188 235.34548 
L 213.791636 237.265194 
L 212.790926 238.898979 
L 211.769804 242.146154 
L 209.931798 245.413741 
L 207.848701 244.90318 
L 205.990252 246.087685 
L 205.786046 248.620062 
L 204.050127 249.436963 
L 200.435347 249.600346 
L 198.413546 250.519349 
L 196.677627 251.02991 
L 195.370592 251.601736 
L 193.103701 254.889749 
" clip-path="url(#pab0e091522)" style="fill: none; stroke: #ff7f0e; stroke-width: 1.5; stroke-linecap: square"/>
   </g>
  </g>
  <g id="axes_12">
   <g id="line2d_12">
    <path d="M 269.709206 244.973612 
L 268.834849 244.390707 
L 267.377587 243.224898 
L 266.503231 242.933445 
L 264.463064 242.641993 
L 263.297255 242.059089 
L 261.548541 240.893279 
L 260.674185 240.601827 
L 259.799828 240.310375 
L 258.342566 239.144566 
L 256.885305 237.978756 
L 254.845139 237.687304 
L 253.970782 237.395852 
L 252.804972 235.93859 
L 249.307545 232.14971 
L 247.267379 230.692449 
L 245.227213 229.235187 
L 244.061403 228.652283 
L 241.14688 226.320664 
L 240.272524 226.612117 
L 239.398167 226.903569 
L 238.52381 227.195021 
L 238.232357 222.240332 
L 239.398167 220.200166 
L 239.981071 218.742905 
L 242.021237 217.285643 
L 243.478499 214.662572 
L 244.352856 214.079668 
L 246.393022 215.828382 
L 248.141736 215.245477 
L 249.890449 214.662572 
L 251.056259 213.205311 
L 251.639163 212.913859 
L 252.804972 212.330954 
L 253.970782 211.748049 
L 256.010948 211.456597 
L 256.885305 211.165145 
L 258.342566 209.999336 
L 259.799828 208.833526 
L 261.839994 207.376265 
L 263.88016 205.919003 
L 265.920326 204.17029 
L 267.377587 203.00448 
L 268.251944 202.713028 
L 270.875015 202.421576 
L 271.749372 203.00448 
L 272.623729 202.421576 
L 274.08099 202.130124 
L 274.955347 201.838671 
L 278.161323 200.089957 
L 280.201489 199.507053 
L 281.65875 199.215601 
L 284.864725 198.924148 
L 287.487796 197.175434 
L 289.527962 196.009625 
L 290.693771 195.426721 
L 291.276676 193.678007 
L 292.151033 193.095102 
L 293.02539 192.512198 
L 295.64846 192.220745 
L 298.271531 191.929293 
L 299.43734 191.346388 
L 300.60315 191.929293 
L 302.643316 192.80365 
L 303.517673 194.260911 
L 302.934768 195.135268 
L 302.351863 196.009625 
L 302.934768 199.507053 
L 303.517673 202.421576 
L 304.100577 204.461742 
L 304.683482 206.501908 
L 305.266386 209.999336 
L 306.432196 210.58224 
L 307.0151 211.456597 
L 306.432196 212.330954 
L 306.140743 214.37112 
L 305.849291 215.245477 
L 304.100577 217.285643 
L 303.517673 218.16 
L 303.22622 219.617261 
L 302.934768 221.074523 
L 302.351863 221.94888 
L 301.768959 222.823237 
L 301.477506 226.612117 
L 301.186054 227.486474 
L 298.271531 231.275353 
L 297.688627 232.14971 
L 295.357008 234.772781 
L 293.02539 237.395852 
L 292.442485 238.561661 
L 289.527962 239.144566 
L 286.904891 241.476184 
L 286.030535 242.059089 
L 285.156178 242.350541 
L 284.281821 242.641993 
L 282.824559 243.807802 
L 281.950202 244.390707 
L 280.492941 244.682159 
L 279.035679 244.973612 
L 278.161323 244.682159 
" clip-path="url(#p72f6226be7)" style="fill: none; stroke: #ff7f0e; stroke-width: 1.5; stroke-linecap: square"/>
   </g>
  </g>
  <g id="axes_13">
   <g id="line2d_13">
    <path d="M 363.488747 253.484749 
L 362.052782 251.474397 
L 359.468044 250.038432 
L 357.314096 251.043608 
L 353.724183 250.612818 
L 353.149797 248.171677 
L 351.426638 247.740887 
L 350.134269 250.756415 
L 347.980321 248.315273 
L 346.831549 247.310098 
L 344.821197 246.879308 
L 343.959618 247.740887 
L 342.236459 244.868956 
L 342.092863 241.566236 
L 341.662073 238.837902 
L 339.795318 237.25834 
L 338.215756 236.253164 
L 338.07216 234.099216 
L 335.918212 232.232461 
L 332.328298 226.488599 
L 329.599964 227.062985 
L 329.887157 225.052634 
L 331.323122 223.903862 
L 330.60514 222.3243 
L 329.025578 218.447193 
L 329.599964 216.867631 
L 329.312771 213.564911 
L 330.892333 211.985349 
L 333.046281 210.405787 
L 332.471895 205.667101 
L 333.333474 203.800346 
L 334.913036 201.072012 
L 336.492598 200.066836 
L 337.64137 197.338502 
L 338.502949 196.046133 
L 340.656898 197.051309 
L 342.810846 197.769291 
L 348.267514 198.056484 
L 353.149797 195.184554 
L 355.590938 193.604992 
L 359.468044 191.451044 
L 361.621992 188.004727 
L 364.063134 185.132796 
L 367.365854 185.707182 
L 371.530154 182.835251 
L 373.684102 183.840427 
L 374.402084 187.717534 
L 377.274015 190.589464 
L 380.720332 194.322974 
L 383.448666 195.040957 
L 382.156298 192.02543 
L 383.73586 194.466571 
L 385.315422 195.471747 
L 389.192528 193.748588 
L 389.048932 195.75894 
L 386.751387 196.046133 
L 385.315422 199.49245 
L 387.612966 202.364381 
L 392.208055 200.066836 
L 393.500424 200.066836 
L 393.356828 201.215608 
L 391.059283 205.092715 
L 391.059283 208.108242 
L 392.926038 209.257015 
L 393.931214 210.405787 
L 394.5056 212.559735 
L 394.792793 214.713683 
L 394.792793 216.436842 
L 392.782442 221.89351 
L 393.356828 223.473072 
L 394.5056 225.339827 
L 395.654372 227.350179 
L 396.803145 229.934916 
L 397.80832 231.514478 
L 396.803145 231.658075 
L 394.5056 231.801671 
L 394.5056 232.806847 
L 388.905335 233.812023 
L 387.612966 235.104392 
L 388.474545 237.976323 
L 389.910511 236.82755 
L 392.208055 236.109568 
L 392.208055 237.689129 
L 389.192528 239.843078 
L 387.03858 240.848253 
L 384.884632 241.997026 
L 382.156298 244.007377 
L 378.279191 243.720184 
L 374.976471 244.29457 
L 374.258488 246.448518 
L 375.550857 247.453694 
L 377.417612 248.171677 
L 378.422788 247.166501 
L 377.417612 250.038432 
L 373.827698 251.187204 
L 368.658223 252.19238 
L 370.955768 251.187204 
L 368.083837 247.740887 
L 365.499099 249.176853 
L 362.770765 250.756415 
" clip-path="url(#p7793458a0b)" style="fill: none; stroke: #ff7f0e; stroke-width: 1.5; stroke-linecap: square"/>
   </g>
  </g>
  <g id="axes_14">
   <g id="line2d_14">
    <path d="M 454.210169 258.257786 
L 451.764563 256.347154 
L 449.115152 253.366573 
L 443.612523 249.978382 
L 440.835747 249.112238 
L 441.472625 247.813003 
L 440.835747 246.106177 
L 440.275292 244.322909 
L 439.740318 238.692916 
L 438.848693 237.164415 
L 438.033491 235.712335 
L 437.498517 234.540484 
L 436.963542 233.368632 
L 436.377607 231.024909 
L 435.103852 229.114277 
L 434.466975 227.560295 
L 433.830098 225.853469 
L 433.19322 224.146642 
L 432.556343 222.516238 
L 431.33353 220.73297 
L 428.73508 214.950133 
L 427.053714 213.905645 
L 423.996711 212.759274 
L 420.888747 211.561942 
L 419.818798 210.925064 
L 421.092553 208.581361 
L 421.627527 207.40949 
L 423.232451 206.441463 
L 423.971231 205.065786 
L 426.009246 204.301564 
L 427.588708 203.35896 
L 428.786021 202.798504 
L 431.129744 201.575711 
L 435.740729 196.659037 
L 436.734256 195.843816 
L 439.179863 193.933184 
L 440.963131 193.296307 
L 444.860816 194.570061 
L 448.376372 193.39819 
L 449.599184 192.812274 
L 451.535277 191.513058 
L 452.579765 189.831693 
L 453.929942 189.118394 
L 454.61778 187.335145 
L 452.936415 184.430986 
L 453.573292 181.705133 
L 456.06986 179.921885 
L 457.700264 179.590696 
L 458.235238 180.762567 
L 458.974018 182.775082 
L 462.489574 184.380025 
L 464.935199 182.469394 
L 466.310837 180.762567 
L 467.278903 180.253073 
L 469.953756 180.100229 
L 470.896361 178.520747 
L 472.042732 178.062214 
L 473.163643 180.405918 
L 474.870469 179.641657 
L 476.297068 178.64813 
L 478.666271 179.921885 
L 479.532415 180.711606 
L 478.258661 181.348483 
L 476.500873 184.864058 
L 479.685259 190.621415 
L 480.322137 192.786813 
L 480.959014 194.773867 
L 481.595891 196.659037 
L 482.232768 197.83087 
L 482.844185 199.002741 
L 483.37914 203.35896 
L 483.914134 207.07834 
L 484.449089 215.255822 
L 484.984083 219.612079 
L 485.519038 223.33144 
L 486.054032 227.050801 
L 486.690909 231.967494 
L 487.327786 233.852645 
L 487.964664 235.024497 
L 488.601541 236.425635 
L 487.964664 238.132461 
L 487.327786 239.813826 
L 486.767331 240.985678 
L 485.315271 243.074635 
L 483.710328 245.316436 
L 481.978002 246.411865 
L 475.074274 246.94684 
L 473.902403 247.481814 
L 472.144616 248.06775 
L 470.437789 248.704627 
L 469.113113 249.341505 
L 467.941241 249.978382 
L 466.41272 250.615259 
L 464.323783 251.252136 
L 463.151912 251.863533 
L 458.795693 252.398508 
L 457.623822 252.933502 
L 457.088848 255.379108 
L 456.553873 256.55096 
L 456.018899 257.722811 
" clip-path="url(#p4a9ef0dc66)" style="fill: none; stroke: #ff7f0e; stroke-width: 1.5; stroke-linecap: square"/>
   </g>
  </g>
  <g id="axes_15">
   <g id="line2d_15">
    <path d="M 553.681586 253.301339 
L 550.544602 250.730021 
L 548.83039 250.164328 
L 545.993346 249.872916 
L 544.836248 249.01581 
L 544.253422 248.458696 
L 541.733529 245.638811 
L 540.559298 245.321686 
L 536.12805 244.730281 
L 532.305365 243.067493 
L 531.996819 236.759207 
L 531.396835 234.53928 
L 530.574021 232.765091 
L 530.291161 229.910914 
L 529.682623 228.239573 
L 528.868362 226.773903 
L 528.34554 222.822658 
L 527.111306 220.542753 
L 524.694261 217.457167 
L 523.845735 215.751535 
L 520.940133 213.874471 
L 518.660255 212.280267 
L 515.746074 211.937403 
L 514.100445 211.303153 
L 512.609064 212.091676 
L 510.612018 211.945983 
L 510.963435 210.308934 
L 514.803279 209.588942 
L 516.174627 208.731836 
L 518.780236 206.777609 
L 519.483069 204.531996 
L 519.594497 201.677872 
L 520.254459 200.057929 
L 518.728812 197.777998 
L 518.728812 195.68671 
L 519.397353 194.075347 
L 520.151611 193.303931 
L 521.968671 191.409708 
L 522.431515 190.269795 
L 526.554192 189.875508 
L 529.682623 187.132759 
L 531.045418 185.084263 
L 533.728164 183.875767 
L 534.98811 183.018661 
L 537.019447 184.355744 
L 538.982227 185.589979 
L 539.967893 186.75563 
L 540.842132 189.035561 
L 542.402071 189.875508 
L 545.27338 191.589719 
L 550.681716 191.161166 
L 552.533042 190.732614 
L 554.538692 188.881288 
L 554.958666 187.741323 
L 556.801464 187.30419 
L 558.224237 188.161296 
L 559.681327 189.806925 
L 558.987074 192.283973 
L 559.424206 194.761021 
L 563.10975 198.849381 
L 569.280923 205.474844 
L 570.935131 207.986158 
L 571.680809 209.914646 
L 572.357903 211.980248 
L 572.640763 215.691531 
L 573.39502 219.145666 
L 574.063588 223.114071 
L 574.157857 225.968222 
L 573.39502 227.108187 
L 572.735032 228.248126 
L 572.452225 230.245197 
L 571.680809 231.753686 
L 571.0294 233.382208 
L 570.900865 234.522147 
L 571.680809 235.662113 
L 572.323638 236.802052 
L 571.817923 238.010574 
L 573.746411 239.587646 
L 574.886376 240.221896 
L 576.026342 240.504755 
L 577.166307 241.301857 
L 578.30622 241.927554 
L 579.394761 242.210387 
L 578.726194 243.016069 
L 577.063458 242.398952 
L 575.066387 242.116118 
L 573.926422 241.301857 
L 572.177945 242.518959 
L 570.720854 243.118918 
L 568.252385 245.904511 
L 567.652401 246.444492 
L 565.603905 244.730281 
L 562.801205 245.038826 
L 561.069834 245.587386 
L 558.824221 247.33589 
L 559.124187 249.315802 
L 559.681327 251.038567 
L 558.815642 251.595707 
L 557.675676 252.444233 
L 556.535763 253.018506 
" clip-path="url(#pa524278ec2)" style="fill: none; stroke: #ff7f0e; stroke-width: 1.5; stroke-linecap: square"/>
   </g>
  </g>
  <g id="axes_16">
   <g id="line2d_16">
    <path d="M 632.882087 244.973612 
L 632.00773 244.390707 
L 630.550469 243.224898 
L 629.676112 242.933445 
L 627.635946 242.641993 
L 626.470137 242.059089 
L 624.721423 240.893279 
L 623.847066 240.601827 
L 622.972709 240.310375 
L 621.515447 239.144566 
L 620.058186 237.978756 
L 618.01802 237.687304 
L 617.143663 237.395852 
L 615.977854 235.93859 
L 612.480426 232.14971 
L 610.44026 230.692449 
L 608.400094 229.235187 
L 607.234285 228.652283 
L 604.319762 226.320664 
L 603.445405 226.612117 
L 602.571048 226.903569 
L 601.696691 227.195021 
L 601.405239 222.240332 
L 602.571048 220.200166 
L 603.153953 218.742905 
L 605.194119 217.285643 
L 606.65138 214.662572 
L 607.525737 214.079668 
L 609.565903 215.828382 
L 611.314617 215.245477 
L 613.063331 214.662572 
L 614.22914 213.205311 
L 614.812045 212.913859 
L 615.977854 212.330954 
L 617.143663 211.748049 
L 619.183829 211.456597 
L 620.058186 211.165145 
L 621.515447 209.999336 
L 622.972709 208.833526 
L 625.012875 207.376265 
L 627.053041 205.919003 
L 629.093207 204.17029 
L 630.550469 203.00448 
L 631.424826 202.713028 
L 634.047896 202.421576 
L 634.922253 203.00448 
L 635.79661 202.421576 
L 637.253872 202.130124 
L 638.128229 201.838671 
L 641.334204 200.089957 
L 643.37437 199.507053 
L 644.831631 199.215601 
L 648.037607 198.924148 
L 650.660677 197.175434 
L 652.700844 196.009625 
L 653.866653 195.426721 
L 654.449557 193.678007 
L 655.323914 193.095102 
L 656.198271 192.512198 
L 658.821342 192.220745 
L 661.444413 191.929293 
L 662.610222 191.346388 
L 663.776031 191.929293 
L 665.816197 192.80365 
L 666.690554 194.260911 
L 666.107649 195.135268 
L 665.524745 196.009625 
L 666.107649 199.507053 
L 666.690554 202.421576 
L 667.273459 204.461742 
L 667.856363 206.501908 
L 668.439268 209.999336 
L 669.605077 210.58224 
L 670.187982 211.456597 
L 669.605077 212.330954 
L 669.313625 214.37112 
L 669.022172 215.245477 
L 667.273459 217.285643 
L 666.690554 218.16 
L 666.399102 219.617261 
L 666.107649 221.074523 
L 665.524745 221.94888 
L 664.94184 222.823237 
L 664.650388 226.612117 
L 664.358936 227.486474 
L 661.444413 231.275353 
L 660.861508 232.14971 
L 658.52989 234.772781 
L 656.198271 237.395852 
L 655.615367 238.561661 
L 652.700844 239.144566 
L 650.077773 241.476184 
L 649.203416 242.059089 
L 648.329059 242.350541 
L 647.454702 242.641993 
L 645.997441 243.807802 
L 645.123084 244.390707 
L 643.665822 244.682159 
L 642.208561 244.973612 
L 641.334204 244.682159 
" clip-path="url(#p5ff3915901)" style="fill: none; stroke: #ff7f0e; stroke-width: 1.5; stroke-linecap: square"/>
   </g>
   <g id="text_2">
    <!-- MCF7 -->
    <g transform="translate(608.07161 163.242353) scale(0.2 -0.2)">
     <defs>
      <path id="DejaVuSans-37" d="M 525 4666 
L 3525 4666 
L 3525 4397 
L 1831 0 
L 1172 0 
L 2766 4134 
L 525 4134 
L 525 4666 
z
" transform="scale(0.015625)"/>
     </defs>
     <use xlink:href="#DejaVuSans-4d"/>
     <use xlink:href="#DejaVuSans-43" x="86.279297"/>
     <use xlink:href="#DejaVuSans-46" x="156.103516"/>
     <use xlink:href="#DejaVuSans-37" x="213.623047"/>
    </g>
   </g>
  </g>
  <g id="axes_17">
   <g id="line2d_17">
    <path d="M 738.045003 253.997791 
L 736.521099 253.352065 
L 734.583921 252.060613 
L 732.104316 250.123435 
L 728.539916 249.658512 
L 726.809375 249.219423 
L 725.72456 248.780334 
L 722.676733 248.186257 
L 720.687886 248.831983 
L 718.2083 250.123435 
L 714.798868 249.606863 
L 714.153142 248.522028 
L 712.112646 246.24908 
L 711.027831 245.706672 
L 709.943016 245.267583 
L 708.987334 244.699341 
L 707.85085 242.529692 
L 703.175801 242.013119 
L 701.574393 240.437546 
L 700.592897 239.843469 
L 699.947171 237.596356 
L 700.954502 236.201585 
L 701.884349 231.55235 
L 701.238623 228.272071 
L 699.740534 225.585849 
L 698.009993 224.294397 
L 696.279452 223.855308 
L 693.903185 223.416219 
L 692.818351 222.97711 
L 692.198459 221.892295 
L 692.327612 220.290888 
L 694.187286 219.774315 
L 695.762859 218.792819 
L 697.648388 218.198742 
L 698.965674 217.527181 
L 701.238623 213.704475 
L 700.592897 212.361393 
L 698.009993 209.029425 
L 698.5524 206.317368 
L 698.991489 205.232554 
L 700.076324 204.793465 
L 701.161139 204.276892 
L 702.245954 203.631166 
L 703.976495 204.922618 
L 705.061329 205.516675 
L 707.179309 204.793465 
L 707.876685 202.804618 
L 708.341608 201.099931 
L 708.987334 198.336205 
L 709.63306 196.321543 
L 710.278786 195.882454 
L 712.887525 197.173906 
L 716.736046 193.712824 
L 716.09032 192.602155 
L 717.020167 190.432525 
L 717.640058 189.166888 
L 719.422268 188.67617 
L 720.610402 186.997258 
L 722.470096 185.550839 
L 724.484758 184.181903 
L 725.517923 182.580515 
L 727.377617 182.632145 
L 729.108158 182.864636 
L 736.701882 182.322209 
L 739.026519 182.967935 
L 741.402786 184.905113 
L 742.487601 185.473355 
L 745.509593 185.912444 
L 747.395102 186.5065 
L 754.317305 187.488017 
L 754.446458 189.166888 
L 754.911362 192.731308 
L 758.63075 194.591002 
L 758.29496 198.232906 
L 758.269145 200.609173 
L 758.708234 201.693988 
L 760.645412 204.070255 
L 759.999686 205.15507 
L 759.35396 206.239884 
L 757.494266 208.71949 
L 756.51275 210.992458 
L 756.073661 217.888786 
L 755.479604 218.973621 
L 756.12533 220.342557 
L 760.07717 224.940123 
L 760.645412 225.456696 
L 760.981202 226.54153 
L 758.501597 227.083938 
L 757.416782 229.253567 
L 755.427935 230.10593 
L 751.476095 232.688834 
L 749.823038 233.825318 
L 748.94486 235.994948 
L 747.911715 238.319565 
L 746.43944 240.385896 
L 745.793714 243.02045 
L 743.856537 247.153092 
L 742.616754 250.717512 
L 743.210811 252.65469 
L 739.129818 253.558702 
" clip-path="url(#p09538daea7)" style="fill: none; stroke: #ff7f0e; stroke-width: 1.5; stroke-linecap: square"/>
   </g>
  </g>
  <g id="axes_18">
   <g id="line2d_18">
    <path d="M 797.320475 262.630588 
L 797.881901 260.429789 
L 797.320475 257.880925 
L 797.881901 256.628938 
L 797.320475 254.860448 
L 796.674837 253.563554 
L 795.344259 251.110123 
L 794.294377 248.252464 
L 793.57015 245.967454 
L 791.105479 244.66494 
L 789.853509 244.103514 
L 789.162948 243.244532 
L 790.605818 240.712493 
L 792.256414 238.500471 
L 792.829063 237.242881 
L 793.951916 235.429467 
L 794.513342 233.413948 
L 795.074769 230.780857 
L 795.478996 225.419241 
L 792.621337 224.245861 
L 791.930777 222.432447 
L 792.63818 220.714484 
L 794.648079 218.704584 
L 797.247486 215.54375 
L 798.735263 212.371694 
L 799.846894 210.698637 
L 800.677811 207.060604 
L 800.127607 205.247173 
L 799.566181 203.254116 
L 799.004754 200.306627 
L 800.127607 198.12267 
L 800.762022 196.8707 
L 801.452565 195.618729 
L 802.474366 193.474076 
L 803.395113 191.991902 
L 804.057593 190.739932 
L 805.180446 188.926501 
L 807.712485 186.276584 
L 809.525881 185.153731 
L 811.322453 184.592305 
L 813.82641 183.244867 
L 816.088958 182.10519 
L 817.711489 181.044085 
L 819.654037 179.662964 
L 822.584667 177.226392 
L 823.70752 175.01999 
L 824.594583 173.689412 
L 825.285127 174.941382 
L 827.143447 174.486628 
L 828.608762 175.19965 
L 831.567491 178.416613 
L 835.087646 182.195003 
L 835.475032 184.008434 
L 836.62033 184.698977 
L 836.058903 186.65835 
L 838.47303 189.645143 
L 840.415578 190.20657 
L 841.297022 191.514703 
L 843.357448 193.204602 
L 843.918874 194.456573 
L 845.603154 197.729699 
L 845.024868 199.206253 
L 844.042371 200.312247 
L 842.234595 201.698954 
L 843.200232 203.119379 
L 841.757396 203.680806 
L 840.707531 208.576428 
L 836.693318 212.029215 
L 834.733945 218.637216 
L 834.447612 223.819172 
L 833.813197 225.688731 
L 833.06649 227.260719 
L 831.567491 229.012367 
L 830.444638 231.072809 
L 829.871972 232.32478 
L 829.181428 233.576767 
L 828.221377 235.098228 
L 826.278863 236.479349 
L 824.864057 237.332712 
L 823.612087 237.927822 
L 820.338961 240.959522 
L 819.423833 241.857808 
L 816.723373 241.296381 
L 814.112743 239.662628 
L 811.737903 240.353189 
L 810.485933 241.043732 
L 808.796034 240.420557 
L 806.859105 240.734955 
L 805.472381 240.173528 
L 804.057593 241.526568 
L 801.75574 241.240235 
L 798.482632 241.257077 
L 796.848878 241.947638 
L 797.10151 243.761052 
L 797.455211 247.045383 
L 798.359117 249.072142 
L 799.004754 251.581719 
L 799.566181 254.383232 
L 798.443328 257.409329 
L 799.004754 260.991215 
" clip-path="url(#pfcdfa05d54)" style="fill: none; stroke: #ff7f0e; stroke-width: 1.5; stroke-linecap: square"/>
   </g>
  </g>
  <g id="axes_19">
   <g id="line2d_19">
    <path d="M 898.699658 254.435448 
L 896.36566 253.394986 
L 894.819032 253.366873 
L 892.822466 252.4389 
L 891.613288 252.410769 
L 891.810135 251.201591 
L 890.938406 249.486247 
L 891.950738 246.47735 
L 892.513148 244.199579 
L 893.075558 242.793553 
L 892.513148 240.656402 
L 893.075558 237.056981 
L 892.513148 234.413647 
L 891.416441 233.626276 
L 890.769673 230.195572 
L 890.122905 228.986394 
L 888.351317 228.339625 
L 887.395213 225.696291 
L 885.707983 223.446651 
L 884.076997 222.462433 
L 882.389767 220.128435 
L 881.180589 216.6696 
L 880.871253 215.460439 
L 881.518038 213.126423 
L 882.164806 211.354852 
L 880.280729 209.442644 
L 878.565385 208.880234 
L 877.834242 206.574367 
L 876.203256 204.605931 
L 874.516026 198.335046 
L 874.234821 195.663598 
L 873.7849 193.526447 
L 873.841127 192.120421 
L 875.022192 191.445522 
L 878.565385 190.433191 
L 882.530369 191.586125 
L 886.551598 191.782955 
L 888.632522 190.826885 
L 888.351317 186.721264 
L 887.535815 184.218567 
L 888.013867 181.884552 
L 889.391779 182.700053 
L 891.557044 184.302908 
L 893.525479 185.708933 
L 895.662647 186.60881 
L 898.559056 186.80564 
L 899.71199 189.645803 
L 903.255183 190.320702 
L 905.67354 189.195882 
L 907.895049 188.071062 
L 909.666654 187.508652 
L 912.169386 188.071062 
L 914.672118 188.633472 
L 916.640553 188.071062 
L 917.371679 190.433191 
L 918.665215 192.289138 
L 919.283853 195.607371 
L 919.255739 198.503762 
L 919.902524 199.712957 
L 922.939518 204.999591 
L 925.132931 208.880234 
L 928.591766 210.567464 
L 929.575984 211.636057 
L 931.572533 213.070196 
L 933.906514 213.716947 
L 935.678119 214.363732 
L 936.887315 215.010517 
L 938.152737 215.629155 
L 940.54298 216.191565 
L 942.005232 217.344499 
L 942.567643 220.690845 
L 941.442822 223.868459 
L 938.068362 227.889687 
L 936.381132 231.292278 
L 935.143823 232.051535 
L 934.272094 234.329289 
L 934.019003 235.988406 
L 933.569082 237.872466 
L 933.344104 239.475338 
L 932.528637 240.375197 
L 929.069801 244.312067 
L 928.591766 245.521246 
L 928.338675 246.392992 
L 927.438798 244.930722 
L 925.80783 242.737326 
L 924.148713 241.64062 
L 922.939518 242.006183 
L 921.139833 242.624837 
L 919.171398 243.187247 
L 917.06236 243.749657 
L 915.853165 244.312067 
L 914.44714 245.802451 
L 913.659752 247.911488 
L 912.225613 247.714641 
L 910.510269 248.473898 
L 909.807257 251.060988 
L 908.260629 252.635729 
L 905.842273 253.873038 
L 903.367655 253.310628 
L 902.158477 253.873038 
" clip-path="url(#p940ef8e9f7)" style="fill: none; stroke: #ff7f0e; stroke-width: 1.5; stroke-linecap: square"/>
   </g>
  </g>
  <g id="axes_20">
   <g id="line2d_20">
    <path d="M 970.066758 262.630588 
L 969.43597 253.294926 
L 970.066758 241.309945 
L 970.369544 237.071046 
L 970.49569 234.446963 
L 971.832959 232.478906 
L 973.245938 230.435139 
L 973.296392 224.858971 
L 971.959124 223.698322 
L 972.589912 221.906885 
L 975.113066 218.349229 
L 977.005432 215.800857 
L 978.267009 213.378612 
L 979.478131 210.956406 
L 980.083683 209.720047 
L 980.663997 208.508944 
L 980.335994 203.51311 
L 980.790163 201.898254 
L 979.099654 200.813317 
L 978.569794 199.879762 
L 979.780897 199.299409 
L 981.395714 198.31538 
L 982.833911 196.246414 
L 984.246891 195.464243 
L 985.937399 192.512157 
L 987.098048 188.197547 
L 988.889485 187.566758 
L 991.513567 183.454005 
L 992.623761 182.671834 
L 993.834864 182.091519 
L 997.56914 179.618839 
L 999.411032 177.14612 
L 999.991366 176.212566 
L 1003.094834 173.689412 
L 1006.021702 176.389205 
L 1006.652491 177.600308 
L 1009.251336 180.628085 
L 1010.437222 181.284091 
L 1012.859466 184.311907 
L 1014.701358 185.52301 
L 1015.483529 187.692924 
L 1016.568467 188.828335 
L 1018.006683 187.163045 
L 1019.97474 186.22949 
L 1021.463392 185.371627 
L 1022.674534 184.791274 
L 1022.44742 186.279964 
L 1021.009243 188.34893 
L 1020.428928 189.560033 
L 1019.848575 192.032752 
L 1019.26826 194.505432 
L 1021.160626 196.978112 
L 1021.791414 200.308694 
L 1022.422203 201.923511 
L 1023.052991 203.134614 
L 1024.945357 205.98579 
L 1026.86294 207.75199 
L 1028.376848 208.382778 
L 1028.503013 211.133007 
L 1026.837722 211.006842 
L 1025.323814 208.382778 
L 1023.68378 209.089258 
L 1024.314568 210.300362 
L 1024.920139 211.511503 
L 1025.500454 213.353395 
L 1025.071522 214.564498 
L 1025.853694 217.491366 
L 1027.241436 218.24832 
L 1026.408791 220.165903 
L 1024.667808 222.260125 
L 1023.052991 223.395537 
L 1024.087494 224.783279 
L 1025.576145 225.565451 
L 1027.468511 228.03815 
L 1026.736813 229.198798 
L 1023.68378 231.091164 
L 1024.264094 232.302286 
L 1025.374288 234.674038 
L 1026.534956 237.096263 
L 1025.979859 239.518489 
L 1022.926826 243.833099 
L 1019.243043 246.255325 
L 1015.281673 247.693522 
L 1013.994878 249.611105 
L 1011.06801 249.838199 
L 1008.671022 247.491665 
L 1005.946011 246.860876 
L 1004.684434 247.491665 
L 1002.262189 248.097216 
L 998.603623 249.232647 
L 996.938352 250.014819 
L 995.474918 249.38403 
L 993.633007 250.645607 
L 989.54551 253.093069 
L 988.056839 252.840758 
L 986.214948 253.421072 
L 983.338554 254.405101 
L 980.335994 256.146083 
L 977.661457 258.189832 
L 971.858195 261.46994 
" clip-path="url(#p763fc97c57)" style="fill: none; stroke: #ff7f0e; stroke-width: 1.5; stroke-linecap: square"/>
   </g>
  </g>
  <g id="axes_21">
   <g id="line2d_21">
    <path d="M 190.718166 373.817923 
L 188.75517 372.272244 
L 186.606653 370.726564 
L 183.283451 370.247407 
L 181.444089 369.830067 
L 180.362118 368.098913 
L 178.940095 367.449731 
L 177.749915 366.862365 
L 176.559735 366.089525 
L 174.704925 364.76024 
L 173.406559 364.234714 
L 171.489908 363.771006 
L 167.96576 361.452486 
L 164.379796 359.133967 
L 161.350254 358.701179 
L 160.577414 357.510999 
L 158.598946 354.83698 
L 156.929609 352.394803 
L 154.394695 349.303444 
L 152.849016 347.340424 
L 150.994205 344.913719 
L 150.267734 343.414408 
L 149.757657 341.544125 
L 149.30942 340.261209 
L 149.757657 337.587189 
L 148.598397 336.721613 
L 148.242897 335.145013 
L 148.984817 333.954833 
L 149.757657 332.67194 
L 149.247579 330.80168 
L 148.830239 328.065797 
L 148.211977 326.875641 
L 147.439137 325.469067 
L 148.072871 323.722441 
L 147.933766 322.532285 
L 147.439137 321.342082 
L 150.437759 318.946297 
L 152.060728 318.188929 
L 155.198455 317.369721 
L 156.85232 316.488672 
L 159.495443 314.309258 
L 160.793808 313.536418 
L 162.648619 313.010893 
L 164.008824 312.423527 
L 166.976526 311.217899 
L 170.083334 308.89938 
L 172.571879 306.951808 
L 173.530217 305.220655 
L 175.199553 304.262341 
L 176.745233 303.489501 
L 181.444089 299.625302 
L 183.407108 299.207985 
L 186.142968 298.790622 
L 189.249752 298.079622 
L 191.73832 297.306783 
L 193.577683 297.84778 
L 202.496237 298.265096 
L 203.686441 298.852462 
L 204.103757 301.418296 
L 204.629283 303.273083 
L 205.402123 304.571496 
L 206.128594 305.761652 
L 208.029797 309.208534 
L 210.827473 311.233371 
L 211.584841 313.289104 
L 212.357681 315.159363 
L 213.346938 316.844195 
L 214.181571 318.451668 
L 215.44904 320.275559 
L 216.22188 321.465762 
L 213.748783 324.510753 
L 213.393307 326.937481 
L 213.90336 328.807741 
L 213.130521 332.038205 
L 212.388577 335.917853 
L 212.744101 337.880872 
L 213.099624 339.071052 
L 212.357681 342.502463 
L 211.584841 345.501062 
L 212.094894 348.051447 
L 212.512258 349.241627 
L 213.130521 353.2913 
L 212.357681 355.702556 
L 211.723946 356.815448 
L 210.039161 358.639338 
L 211.430264 360.525069 
L 211.924892 361.792538 
L 212.357681 363.740086 
L 211.182949 364.141977 
L 209.992793 363.724637 
L 207.875219 362.998166 
L 205.402123 365.084843 
L 204.876597 368.93357 
L 202.913601 367.635205 
L 201.723398 368.222571 
L 200.842349 370.726564 
L 197.921039 372.024929 
L 197.380042 373.338766 
L 196.189885 373.1069 
L 191.908323 373.400583 
" clip-path="url(#p483d870dc9)" style="fill: none; stroke: #2ca02c; stroke-width: 1.5; stroke-linecap: square"/>
   </g>
  </g>
  <g id="axes_22">
   <g id="line2d_22">
    <path d="M 305.448477 364.142435 
L 301.733056 360.956291 
L 300.64278 360.395276 
L 299.065593 359.347334 
L 297.297848 358.638126 
L 294.281087 356.150594 
L 292.682709 355.610754 
L 288.438027 355.219106 
L 287.368943 355.758946 
L 284.182782 356.298786 
L 283.007807 356.203523 
L 281.631741 356.849222 
L 280.446203 357.135028 
L 278.847825 356.870397 
L 275.132404 357.113853 
L 273.534058 356.574012 
L 268.230855 356.034156 
L 265.573971 355.494316 
L 262.917088 354.954476 
L 261.519832 354.414619 
L 260.249609 353.027959 
L 258.651231 351.969437 
L 256.523609 350.381655 
L 255.211036 349.852394 
L 253.348044 349.323133 
L 251.463877 348.793872 
L 250.130146 348.264612 
L 248.288312 346.391024 
L 245.155081 345.089047 
L 242.68874 344.559786 
L 241.407922 342.548602 
L 241.937183 340.727943 
L 240.878661 338.928444 
L 240.698715 337.859343 
L 241.238555 336.260981 
L 241.037433 334.662603 
L 240.116525 333.212434 
L 239.428492 330.407358 
L 239.693122 328.279719 
L 240.645785 326.268535 
L 242.148884 324.236159 
L 241.598448 321.992099 
L 240.878661 321.356979 
L 240.349401 320.287895 
L 241.810166 319.68453 
L 242.995704 318.14966 
L 244.498803 317.122893 
L 243.588474 315.513952 
L 241.958358 314.942341 
L 240.35998 315.439848 
L 238.232357 314.921182 
L 241.460851 311.216357 
L 246.192444 313.3334 
L 247.759052 312.21137 
L 248.330646 310.687096 
L 250.458285 309.099314 
L 251.654403 308.570053 
L 253.655024 309.099314 
L 254.724125 308.570053 
L 256.608292 307.511532 
L 259.61449 308.570053 
L 261.223447 309.099314 
L 262.705371 309.628575 
L 263.774488 309.099314 
L 266.431387 306.982271 
L 266.971211 308.199564 
L 267.172333 310.327203 
L 266.992403 311.39632 
L 267.532227 312.465405 
L 269.077691 314.54013 
L 272.422591 317.355769 
L 274.444371 318.848288 
L 275.449979 320.383158 
L 277.312988 322.775427 
L 279.239472 324.172651 
L 280.043959 327.623441 
L 281.6529 328.703122 
L 282.976052 329.497013 
L 284.108678 331.158899 
L 285.114286 332.693769 
L 285.65411 334.292114 
L 286.193967 335.890492 
L 286.733823 336.959609 
L 286.395089 340.124578 
L 286.924349 342.993179 
L 287.982871 345.300748 
L 288.512132 346.909705 
L 289.041392 348.126999 
L 289.570653 349.196116 
L 291.042014 350.381655 
L 292.957935 350.910916 
L 294.238737 351.440176 
L 295.752415 351.969437 
L 299.330223 353.557219 
L 301.616634 354.615741 
L 303.27852 355.674263 
L 305.279109 358.151199 
L 306.443489 359.84484 
L 307.0151 360.945695 
L 305.998896 362.533478 
" clip-path="url(#p1f82e50901)" style="fill: none; stroke: #2ca02c; stroke-width: 1.5; stroke-linecap: square"/>
   </g>
  </g>
  <g id="axes_23">
   <g id="line2d_23">
    <path d="M 361.739321 368.183839 
L 360.715967 367.345025 
L 359.038339 367.160485 
L 357.830445 366.506211 
L 355.599197 365.398971 
L 351.883258 363.989769 
L 347.781445 361.775288 
L 344.057135 360.634514 
L 340.332799 357.681898 
L 339.930159 356.44884 
L 339.091345 355.517744 
L 338.562888 354.234359 
L 336.574903 351.709521 
L 336.214219 350.208063 
L 335.736089 349.276966 
L 334.645641 347.800671 
L 333.420955 347.213491 
L 332.489883 346.483727 
L 332.380834 345.55263 
L 331.54202 344.621559 
L 331.374247 343.690462 
L 330.703206 342.499361 
L 330.350893 340.98948 
L 329.864392 339.613839 
L 329.327539 338.288498 
L 329.025578 337.357427 
L 329.746946 336.426356 
L 329.864392 333.867958 
L 331.54202 331.510918 
L 331.06389 324.087384 
L 329.025578 321.797439 
L 330.057328 320.178534 
L 331.54202 316.94907 
L 332.070476 314.810104 
L 332.380834 313.879033 
L 333.093831 312.947962 
L 333.219647 312.01684 
L 335.014722 310.305678 
L 336.725884 310.154697 
L 337.65698 309.710101 
L 339.930159 310.305678 
L 342.874404 310.733481 
L 344.325536 311.144492 
L 345.575386 310.532174 
L 347.915658 310.305678 
L 349.91204 308.711911 
L 350.98572 308.477069 
L 353.636376 306.111608 
L 355.498544 305.641874 
L 358.342135 304.43398 
L 362.158728 303.175759 
L 364.440303 302.940867 
L 365.698498 303.595166 
L 366.629621 304.291396 
L 369.137666 304.43398 
L 370.798502 305.272794 
L 384.353763 306.078074 
L 389.034308 310.305678 
L 390.577748 310.624431 
L 391.097809 311.555502 
L 392.104396 312.989892 
L 392.775437 314.852035 
L 393.46327 316.026395 
L 393.614251 320.857971 
L 395.325413 322.887887 
L 396.130693 323.013729 
L 395.912593 323.9448 
L 395.291879 325.186229 
L 396.499773 327.451037 
L 397.80832 331.728967 
L 397.22114 334.379648 
L 396.969507 340.746243 
L 396.197812 342.952327 
L 396.105504 343.883398 
L 395.291879 345.166783 
L 395.082175 348.262008 
L 394.453065 349.495066 
L 394.058847 350.96299 
L 393.614251 351.894061 
L 394.193034 352.825158 
L 393.782024 353.756229 
L 391.324305 353.924002 
L 389.420181 355.618397 
L 389.093031 356.767594 
L 386.903739 359.158193 
L 386.316559 359.7957 
L 384.840239 360.181547 
L 383.431037 360.634514 
L 381.568895 361.775288 
L 380.369397 362.312142 
L 379.438275 363.067069 
L 375.990762 363.159352 
L 374.959037 363.989769 
L 373.289806 364.182706 
L 372.358683 364.828583 
L 371.427612 365.20606 
L 368.147872 365.667397 
L 365.3714 366.229414 
L 364.440303 366.506211 
L 362.762675 367.999299 
" clip-path="url(#pe853205689)" style="fill: none; stroke: #2ca02c; stroke-width: 1.5; stroke-linecap: square"/>
   </g>
  </g>
  <g id="axes_24">
   <g id="line2d_24">
    <path d="M 419.818798 354.216845 
L 420.880746 353.594629 
L 422.747409 352.677786 
L 424.871311 351.362988 
L 426.555482 350.259265 
L 427.986802 348.907094 
L 429.492882 347.625274 
L 431.649763 346.741417 
L 433.512024 345.202358 
L 435.092858 343.559962 
L 436.374671 342.783837 
L 438.124805 342.067073 
L 438.938304 341.024913 
L 440.613678 339.798066 
L 441.941668 338.606392 
L 443.003622 337.287198 
L 445.068156 336.003184 
L 447.106308 334.648812 
L 449.00815 333.162519 
L 448.808071 332.010425 
L 448.84105 330.955073 
L 447.301991 329.717229 
L 448.678352 330.251501 
L 449.461072 329.992061 
L 449.922791 329.81177 
L 452.303932 331.295862 
L 453.018495 330.123975 
L 454.298114 329.81177 
L 455.709647 328.659677 
L 457.62028 327.173383 
L 458.339244 326.513787 
L 459.5551 325.473827 
L 461.49651 325.414459 
L 462.558464 325.108843 
L 463.400547 324.095266 
L 465.341956 323.644544 
L 466.843642 322.802455 
L 467.905589 321.960367 
L 471.944525 320.120093 
L 473.327475 318.957009 
L 474.65327 318.510676 
L 475.444781 317.725767 
L 477.867703 317.719165 
L 479.554068 316.907861 
L 481.055754 317.279434 
L 483.733714 318.53267 
L 484.898999 319.495682 
L 485.340931 323.43787 
L 485.963154 324.939555 
L 485.998327 326.441227 
L 486.877789 328.492577 
L 487.757251 329.956875 
L 488.601541 331.130963 
L 487.757251 332.00603 
L 488.276131 333.030605 
L 487.097655 334.19809 
L 487.757251 335.194081 
L 487.097655 336.036163 
L 486.468842 337.317983 
L 487.091052 339.039527 
L 487.537386 340.541206 
L 486.079676 339.127472 
L 484.577991 339.824449 
L 482.792683 339.705719 
L 481.354768 340.558799 
L 480.292813 340.13446 
L 477.762159 340.14545 
L 476.018627 338.912008 
L 474.908308 338.289785 
L 471.207967 336.407736 
L 469.486423 336.385748 
L 466.885417 335.763532 
L 463.044365 335.74814 
L 460.364204 335.178689 
L 458.734999 334.996196 
L 457.580705 333.384585 
L 456.096613 334.226667 
L 453.957319 335.249047 
L 450.934168 335.74814 
L 449.155456 334.963218 
L 447.433912 335.308409 
L 446.692966 336.187871 
L 446.629203 336.860659 
L 445.567249 337.482882 
L 443.907267 338.166661 
L 441.761377 340.189426 
L 440.706025 341.768059 
L 438.808584 343.142219 
L 436.959514 344.331692 
L 435.706285 345.145191 
L 435.187398 345.839967 
L 433.773664 346.741417 
L 432.412696 347.339451 
L 430.550435 348.102385 
L 428.828891 349.599669 
L 427.327205 350.479131 
L 425.676019 351.217876 
L 424.543707 351.798324 
L 423.037633 352.537069 
L 421.100611 353.777114 
" clip-path="url(#pcbc62305c2)" style="fill: none; stroke: #2ca02c; stroke-width: 1.5; stroke-linecap: square"/>
   </g>
  </g>
  <g id="axes_25">
   <g id="line2d_25">
    <path d="M 533.697308 380.032941 
L 532.415943 378.751576 
L 529.024118 378.525464 
L 527.667398 375.208995 
L 525.858406 370.686562 
L 523.144965 367.596251 
L 522.994208 366.314886 
L 521.712843 365.033521 
L 521.637488 361.340229 
L 519.677785 358.47603 
L 517.868794 357.420778 
L 516.059802 358.47603 
L 513.798586 360.134219 
L 512.667978 358.8529 
L 513.949343 357.571535 
L 514.1001 354.028953 
L 513.195604 351.993849 
L 512.592622 345.285602 
L 513.497118 336.919074 
L 515.607577 334.356389 
L 515.607577 331.793659 
L 516.888942 330.512294 
L 517.115055 329.230929 
L 517.944149 327.94961 
L 518.622532 326.668198 
L 519.376271 325.01001 
L 521.637488 322.598083 
L 521.637488 321.316672 
L 522.843451 320.035352 
L 523.144965 318.753941 
L 525.406181 315.965145 
L 527.667398 313.176348 
L 529.174875 310.688973 
L 535.204786 304.583707 
L 535.204786 303.302296 
L 537.466002 300.890369 
L 538.219741 295.614197 
L 538.898124 292.599242 
L 540.179443 292.147017 
L 541.913079 291.091765 
L 545.757129 291.091765 
L 547.038448 292.373084 
L 548.319859 292.599242 
L 549.601178 293.428337 
L 551.485525 294.10672 
L 553.671386 294.483589 
L 554.952705 295.614197 
L 556.234116 295.614197 
L 557.515435 296.820161 
L 559.776652 297.121675 
L 561.585643 297.875414 
L 562.866962 298.629153 
L 564.148373 298.930666 
L 565.580495 300.13663 
L 569.424545 300.13663 
L 569.87677 301.267238 
L 572.590211 304.357549 
L 575.077586 305.488157 
L 576.358905 304.659063 
L 577.414158 304.885221 
L 577.414158 306.16654 
L 574.851427 308.729271 
L 572.288697 309.181496 
L 568.896872 311.66887 
L 566.861815 315.51292 
L 566.484945 318.60323 
L 565.354337 319.884549 
L 565.354337 321.165961 
L 564.148373 322.44728 
L 563.846859 323.728691 
L 563.093121 325.01001 
L 562.339382 326.291329 
L 562.037868 327.57274 
L 560.831904 329.080218 
L 560.831904 334.205632 
L 559.701296 335.939222 
L 559.324427 338.125083 
L 558.646043 340.00943 
L 557.816949 341.290749 
L 557.590791 342.572114 
L 556.309472 343.85348 
L 556.309472 345.134845 
L 555.254219 346.41621 
L 554.801994 347.697529 
L 554.198966 348.978894 
L 553.294516 350.260259 
L 552.540778 352.144606 
L 546.133998 358.551386 
L 545.757129 361.340229 
L 544.777231 361.94321 
L 542.742173 363.450688 
L 541.234696 366.540999 
L 540.933182 369.782112 
L 539.727218 371.063431 
L 539.727218 372.344796 
L 537.466002 374.75677 
L 536.712263 376.415004 
L 536.03388 377.696369 
L 535.204786 378.977688 
L 534.978673 380.032941 
" clip-path="url(#p1c39a69c2d)" style="fill: none; stroke: #2ca02c; stroke-width: 1.5; stroke-linecap: square"/>
   </g>
  </g>
  <g id="axes_26">
   <g id="line2d_26">
    <path d="M 610.770806 363.66785 
L 609.1589 363.079561 
L 608.135265 361.620598 
L 605.705647 360.955847 
L 604.911453 359.573365 
L 603.711339 358.755634 
L 603.12305 357.526113 
L 602.534761 355.967151 
L 601.405239 354.302283 
L 601.846455 352.00209 
L 602.358282 348.548819 
L 602.87009 345.683855 
L 602.864202 342.818891 
L 602.717129 341.718794 
L 603.228938 339.442119 
L 603.740746 338.342021 
L 604.840862 337.78314 
L 606.064495 336.141827 
L 607.241072 334.06515 
L 607.829361 332.453244 
L 613.123961 326.370321 
L 614.300539 324.681935 
L 614.888828 323.581838 
L 615.477117 322.481741 
L 615.994814 321.381643 
L 616.506622 319.693257 
L 617.383167 316.463557 
L 618.118528 314.551618 
L 619.806914 314.03981 
L 621.495318 313.528001 
L 622.595415 313.016193 
L 625.407436 312.486718 
L 627.242894 310.227673 
L 629.084241 308.880505 
L 631.455044 307.686297 
L 633.39052 307.456856 
L 636.843773 307.968664 
L 638.532159 308.480473 
L 639.043967 309.58057 
L 639.59696 310.680667 
L 641.126497 311.310141 
L 642.344259 311.89843 
L 642.856068 314.569248 
L 644.197384 315.322275 
L 644.726822 317.357767 
L 644.568008 318.634344 
L 646.691723 320.099178 
L 648.944879 318.369607 
L 648.562477 319.405001 
L 648.050668 320.505099 
L 647.244716 321.89934 
L 646.874091 323.293582 
L 647.385899 325.570257 
L 647.962411 327.323346 
L 649.009582 328.94703 
L 651.186258 330.135385 
L 651.951027 331.147224 
L 653.47471 332.48854 
L 654.257109 335.9712 
L 655.086616 337.977285 
L 655.71609 339.19503 
L 657.245626 340.17748 
L 658.351612 341.83057 
L 659.010493 342.377674 
L 661.763681 344.442574 
L 664.363907 344.901439 
L 665.728742 345.677984 
L 666.828839 346.189793 
L 667.834826 346.701601 
L 667.281833 347.819347 
L 668.952589 348.960628 
L 669.599693 350.907863 
L 670.187982 352.278586 
L 669.29966 352.790395 
L 668.787851 353.890492 
L 667.687754 354.4023 
L 667.317129 355.502398 
L 667.834826 356.602495 
L 666.740617 356.102464 
L 665.052231 356.449552 
L 660.422401 356.255407 
L 658.734014 355.743598 
L 654.104148 355.631822 
L 653.004051 355.896559 
L 651.903953 355.478861 
L 649.686129 356.020095 
L 647.079977 355.431806 
L 642.820772 356.020095 
L 638.796896 356.608384 
L 636.402556 357.196673 
L 633.537592 357.784961 
L 628.219456 358.37325 
L 626.584013 358.961539 
L 624.354393 359.496884 
L 623.254296 360.008693 
L 620.595237 360.902885 
L 618.089121 362.232424 
L 615.835964 363.309003 
L 613.559289 363.514889 
L 611.870903 363.156042 
" clip-path="url(#p65bb63276c)" style="fill: none; stroke: #2ca02c; stroke-width: 1.5; stroke-linecap: square"/>
   </g>
   <g id="text_3">
    <!-- MDA_MB_231 -->
    <g transform="translate(568.226298 280.644706) scale(0.2 -0.2)">
     <defs>
      <path id="DejaVuSans-44" d="M 1259 4147 
L 1259 519 
L 2022 519 
Q 2988 519 3436 956 
Q 3884 1394 3884 2338 
Q 3884 3275 3436 3711 
Q 2988 4147 2022 4147 
L 1259 4147 
z
M 628 4666 
L 1925 4666 
Q 3281 4666 3915 4102 
Q 4550 3538 4550 2338 
Q 4550 1131 3912 565 
Q 3275 0 1925 0 
L 628 0 
L 628 4666 
z
" transform="scale(0.015625)"/>
      <path id="DejaVuSans-5f" d="M 3263 -1063 
L 3263 -1509 
L -63 -1509 
L -63 -1063 
L 3263 -1063 
z
" transform="scale(0.015625)"/>
      <path id="DejaVuSans-42" d="M 1259 2228 
L 1259 519 
L 2272 519 
Q 2781 519 3026 730 
Q 3272 941 3272 1375 
Q 3272 1813 3026 2020 
Q 2781 2228 2272 2228 
L 1259 2228 
z
M 1259 4147 
L 1259 2741 
L 2194 2741 
Q 2656 2741 2882 2914 
Q 3109 3088 3109 3444 
Q 3109 3797 2882 3972 
Q 2656 4147 2194 4147 
L 1259 4147 
z
M 628 4666 
L 2241 4666 
Q 2963 4666 3353 4366 
Q 3744 4066 3744 3513 
Q 3744 3084 3544 2831 
Q 3344 2578 2956 2516 
Q 3422 2416 3680 2098 
Q 3938 1781 3938 1306 
Q 3938 681 3513 340 
Q 3088 0 2303 0 
L 628 0 
L 628 4666 
z
" transform="scale(0.015625)"/>
      <path id="DejaVuSans-32" d="M 1228 531 
L 3431 531 
L 3431 0 
L 469 0 
L 469 531 
Q 828 903 1448 1529 
Q 2069 2156 2228 2338 
Q 2531 2678 2651 2914 
Q 2772 3150 2772 3378 
Q 2772 3750 2511 3984 
Q 2250 4219 1831 4219 
Q 1534 4219 1204 4116 
Q 875 4013 500 3803 
L 500 4441 
Q 881 4594 1212 4672 
Q 1544 4750 1819 4750 
Q 2544 4750 2975 4387 
Q 3406 4025 3406 3419 
Q 3406 3131 3298 2873 
Q 3191 2616 2906 2266 
Q 2828 2175 2409 1742 
Q 1991 1309 1228 531 
z
" transform="scale(0.015625)"/>
      <path id="DejaVuSans-33" d="M 2597 2516 
Q 3050 2419 3304 2112 
Q 3559 1806 3559 1356 
Q 3559 666 3084 287 
Q 2609 -91 1734 -91 
Q 1441 -91 1130 -33 
Q 819 25 488 141 
L 488 750 
Q 750 597 1062 519 
Q 1375 441 1716 441 
Q 2309 441 2620 675 
Q 2931 909 2931 1356 
Q 2931 1769 2642 2001 
Q 2353 2234 1838 2234 
L 1294 2234 
L 1294 2753 
L 1863 2753 
Q 2328 2753 2575 2939 
Q 2822 3125 2822 3475 
Q 2822 3834 2567 4026 
Q 2313 4219 1838 4219 
Q 1578 4219 1281 4162 
Q 984 4106 628 3988 
L 628 4550 
Q 988 4650 1302 4700 
Q 1616 4750 1894 4750 
Q 2613 4750 3031 4423 
Q 3450 4097 3450 3541 
Q 3450 3153 3228 2886 
Q 3006 2619 2597 2516 
z
" transform="scale(0.015625)"/>
     </defs>
     <use xlink:href="#DejaVuSans-4d"/>
     <use xlink:href="#DejaVuSans-44" x="86.279297"/>
     <use xlink:href="#DejaVuSans-41" x="161.53125"/>
     <use xlink:href="#DejaVuSans-5f" x="229.939453"/>
     <use xlink:href="#DejaVuSans-4d" x="279.939453"/>
     <use xlink:href="#DejaVuSans-42" x="366.21875"/>
     <use xlink:href="#DejaVuSans-5f" x="434.822266"/>
     <use xlink:href="#DejaVuSans-32" x="484.822266"/>
     <use xlink:href="#DejaVuSans-33" x="548.445312"/>
     <use xlink:href="#DejaVuSans-31" x="612.068359"/>
    </g>
   </g>
  </g>
  <g id="axes_27">
   <g id="line2d_27">
    <path d="M 738.90385 380.032941 
L 738.504731 378.784553 
L 738.054608 375.939585 
L 737.205365 373.544714 
L 737.952703 370.793176 
L 738.351822 370.139268 
L 741.689391 370.691271 
L 743.506732 368.500236 
L 742.300821 366.648867 
L 740.602336 364.551237 
L 742.385725 362.113914 
L 742.861299 360.211619 
L 740.908051 358.801872 
L 739.566285 359.651115 
L 737.069509 360.63624 
L 736.398574 362.241295 
L 736.763742 363.489683 
L 735.51538 363.897329 
L 734.657637 362.657442 
L 733.078058 360.619264 
L 732.619433 355.914452 
L 732.109908 354.666064 
L 730.411423 352.568434 
L 729.723538 351.320046 
L 729.324393 350.071658 
L 728.712937 348.82327 
L 727.863695 347.574882 
L 726.105756 345.154535 
L 724.330842 344.228864 
L 723.617481 342.980476 
L 719.286338 338.420046 
L 717.553875 337.451897 
L 716.721634 335.770413 
L 714.275811 332.891468 
L 711.779035 329.978572 
L 710.963769 328.314063 
L 710.029597 325.817287 
L 706.81946 323.133677 
L 705.053047 322.403341 
L 704.093398 320.594449 
L 702.386412 314.811108 
L 703.235655 312.713452 
L 703.864086 312.093521 
L 705.783383 309.503341 
L 704.050921 304.416386 
L 703.108274 302.624444 
L 702.386412 301.376082 
L 704.237755 299.35488 
L 706.258957 299.830454 
L 709.20583 300.229625 
L 710.87884 301.053366 
L 712.551849 300.229625 
L 713.800237 299.830454 
L 714.275811 297.809252 
L 716.093203 296.807152 
L 718.394643 296.085316 
L 720.764038 295.414381 
L 723.260788 294.259424 
L 725.315966 292.340127 
L 725.935923 291.091765 
L 728.033554 292.560938 
L 728.712937 293.129916 
L 729.918873 294.259424 
L 733.14596 295.295475 
L 734.657637 296.025863 
L 735.12471 297.274225 
L 735.54083 298.539588 
L 738.037606 300.204123 
L 739.719142 301.019415 
L 743.150064 302.14887 
L 744.678691 305.12972 
L 746.547035 305.613795 
L 748.687143 308.28893 
L 748.304974 312.883311 
L 746.547035 315.303684 
L 747.396278 318.675153 
L 748.007708 326.292861 
L 748.406879 331.787463 
L 749.094763 333.035851 
L 746.547035 336.424321 
L 747.05656 340.628083 
L 747.336825 344.424199 
L 746.547035 345.672587 
L 745.697792 346.920975 
L 745.290172 348.169363 
L 744.84855 351.838072 
L 745.697792 353.213867 
L 746.453631 354.462254 
L 746.85275 355.710616 
L 747.396278 356.959004 
L 748.245521 358.207392 
L 748.899454 359.45578 
L 749.298573 362.402653 
L 749.944006 366.062888 
L 750.793249 368.754999 
L 749.137215 371.540514 
L 746.547035 373.340904 
L 746.045959 374.589292 
L 744.64474 375.141295 
L 741.451579 379.234651 
" clip-path="url(#pf3c0016461)" style="fill: none; stroke: #2ca02c; stroke-width: 1.5; stroke-linecap: square"/>
   </g>
  </g>
  <g id="axes_28">
   <g id="line2d_28">
    <path d="M 811.453504 364.617132 
L 810.457345 363.620973 
L 806.23551 363.431223 
L 803.721388 362.814563 
L 802.298282 362.245313 
L 799.357214 360.822208 
L 793.617417 355.129857 
L 792.621258 355.129857 
L 792.478954 354.276001 
L 789.158423 350.623416 
L 786.549408 347.540045 
L 785.980158 346.259242 
L 784.177589 344.172066 
L 784.177589 341.183552 
L 783.276286 339.997642 
L 782.99168 335.443791 
L 783.513483 332.075777 
L 784.177589 330.747564 
L 784.319892 328.897548 
L 785.316052 327.901352 
L 785.363498 325.007731 
L 786.122498 323.537215 
L 786.549408 321.971806 
L 786.928907 320.358986 
L 787.925067 319.552577 
L 788.921226 319.552577 
L 791.909705 316.564062 
L 793.285364 315.994849 
L 794.281524 315.378153 
L 795.277683 314.808939 
L 796.273879 314.571743 
L 797.317449 313.62303 
L 799.309804 313.62303 
L 800.448267 312.76921 
L 801.444426 312.43712 
L 802.440586 311.962728 
L 805.4291 311.251211 
L 812.73427 311.156318 
L 813.730466 310.160195 
L 815.627892 310.065302 
L 816.908694 309.353785 
L 818.426657 308.879392 
L 820.086959 308.547303 
L 821.225386 307.693483 
L 823.217705 307.693483 
L 824.261311 306.74477 
L 826.016506 306.507574 
L 827.439539 307.076787 
L 828.056235 308.072983 
L 828.435735 309.258892 
L 830.428054 311.251211 
L 830.428054 312.247407 
L 832.847283 314.85635 
L 833.985782 316.611545 
L 835.266584 318.46156 
L 837.54351 320.975682 
L 837.638403 322.019288 
L 839.630722 324.011607 
L 840.769149 324.296214 
L 841.765344 323.632108 
L 843.23586 323.110305 
L 844.658966 323.964125 
L 844.469252 326.857746 
L 842.476861 328.850138 
L 842.287147 330.842457 
L 844.42177 333.546293 
L 846.366678 334.969398 
L 847.030785 335.301488 
L 847.173088 336.297611 
L 848.169284 337.29377 
L 848.216694 339.238679 
L 848.975693 340.472035 
L 849.402603 343.74512 
L 849.782103 347.207992 
L 850.588513 348.204151 
L 850.588513 349.200311 
L 851.584709 350.19647 
L 851.774422 351.999039 
L 851.157726 353.374698 
L 850.588513 354.370858 
L 850.11412 355.604214 
L 848.216694 357.549123 
L 848.216694 358.545282 
L 847.362874 359.541442 
L 847.030785 360.537601 
L 846.556392 361.533761 
L 845.560269 361.960707 
L 844.658966 360.964547 
L 844.658966 359.968352 
L 843.757663 358.972192 
L 842.049951 358.687585 
L 840.579435 359.209388 
L 839.583239 359.873495 
L 838.444813 360.158101 
L 836.452494 362.150457 
L 835.408888 362.245313 
L 834.412692 363.004313 
L 828.293431 363.431223 
L 821.747189 363.810723 
L 819.42278 364.617132 
" clip-path="url(#p795909b1f1)" style="fill: none; stroke: #2ca02c; stroke-width: 1.5; stroke-linecap: square"/>
   </g>
  </g>
  <g id="axes_29">
   <g id="line2d_29">
    <path d="M 912.595274 356.120324 
L 906.927423 354.679344 
L 905.870704 354.006887 
L 903.276942 353.046234 
L 901.835963 352.661973 
L 900.394983 351.989516 
L 899.146135 351.50919 
L 897.513025 351.028864 
L 895.303523 349.972145 
L 893.478283 348.819362 
L 892.421565 348.24297 
L 890.980586 347.282317 
L 889.539606 346.513795 
L 888.482888 345.841338 
L 887.42617 345.361012 
L 885.985191 344.880685 
L 883.775689 344.208228 
L 883.007167 343.535771 
L 881.854384 341.5184 
L 880.50947 339.789225 
L 878.011772 336.907267 
L 877.627511 335.850549 
L 876.666858 334.40957 
L 875.321944 332.392199 
L 875.706206 330.374828 
L 874.265226 328.549587 
L 873.7849 324.803041 
L 874.073096 321.440756 
L 874.169161 319.231255 
L 874.841618 316.637492 
L 876.282597 316.925688 
L 878.492099 318.174537 
L 879.933078 316.925688 
L 880.605535 315.004382 
L 881.085861 317.69421 
L 882.815036 320.191908 
L 884.928473 319.615516 
L 885.60093 319.13519 
L 886.081256 320.768299 
L 888.194692 322.497474 
L 889.155345 323.073866 
L 890.980586 324.514845 
L 893.574348 324.22665 
L 894.34287 325.187302 
L 896.072046 326.532216 
L 897.128764 326.147955 
L 899.530396 325.955825 
L 901.932028 327.204673 
L 902.988746 327.300739 
L 904.33366 327.685 
L 905.486443 329.029914 
L 909.040859 331.14335 
L 912.595274 330.759089 
L 914.51658 329.222044 
L 918.551322 328.069261 
L 921.529346 327.396804 
L 922.970325 327.300739 
L 924.123108 326.24402 
L 923.162455 323.265997 
L 923.930978 322.113213 
L 924.89163 320.384038 
L 925.275892 318.943059 
L 925.083761 318.078471 
L 925.948349 319.519451 
L 928.349981 321.15256 
L 929.022438 321.825017 
L 928.734242 323.650258 
L 927.005067 325.187302 
L 926.044414 326.532216 
L 928.542111 328.453522 
L 929.887025 329.798436 
L 931.135874 330.278762 
L 932.192592 330.374828 
L 934.113898 328.069261 
L 935.650942 327.108608 
L 935.939138 325.667629 
L 937.572248 326.532216 
L 938.917162 326.147955 
L 940.262076 327.685 
L 941.60699 327.108608 
L 942.567643 326.916477 
L 941.510924 327.588934 
L 939.877815 329.222044 
L 938.052574 331.047285 
L 936.419464 333.448917 
L 936.803726 335.658418 
L 937.956509 337.675789 
L 937.956509 339.308899 
L 937.187987 339.597095 
L 936.035203 340.942009 
L 934.690289 342.863314 
L 931.328004 346.513795 
L 930.271286 346.898056 
L 926.140479 351.413125 
L 924.6995 352.277712 
L 923.642782 352.758039 
L 922.586064 353.430496 
L 921.529346 353.814757 
L 920.280497 354.583279 
L 918.070995 355.736062 
" clip-path="url(#p8f869c8830)" style="fill: none; stroke: #2ca02c; stroke-width: 1.5; stroke-linecap: square"/>
   </g>
  </g>
  <g id="axes_30">
   <g id="line2d_30">
    <path d="M 973.943687 363.66785 
L 972.331781 363.079561 
L 971.308146 361.620598 
L 968.878528 360.955847 
L 968.084335 359.573365 
L 966.88422 358.755634 
L 966.295932 357.526113 
L 965.707643 355.967151 
L 964.57812 354.302283 
L 965.019337 352.00209 
L 965.531163 348.548819 
L 966.042972 345.683855 
L 966.037083 342.818891 
L 965.890011 341.718794 
L 966.401819 339.442119 
L 966.913628 338.342021 
L 968.013743 337.78314 
L 969.237376 336.141827 
L 970.413954 334.06515 
L 971.002243 332.453244 
L 976.296842 326.370321 
L 977.47342 324.681935 
L 978.061709 323.581838 
L 978.649998 322.481741 
L 979.167695 321.381643 
L 979.679503 319.693257 
L 980.556048 316.463557 
L 981.291409 314.551618 
L 982.979795 314.03981 
L 984.668199 313.528001 
L 985.768297 313.016193 
L 988.580317 312.486718 
L 990.415775 310.227673 
L 992.257122 308.880505 
L 994.627926 307.686297 
L 996.563401 307.456856 
L 1000.016654 307.968664 
L 1001.70504 308.480473 
L 1002.216849 309.58057 
L 1002.769842 310.680667 
L 1004.299378 311.310141 
L 1005.517141 311.89843 
L 1006.028949 314.569248 
L 1007.370265 315.322275 
L 1007.899703 317.357767 
L 1007.74089 318.634344 
L 1009.864604 320.099178 
L 1012.11776 318.369607 
L 1011.735358 319.405001 
L 1011.22355 320.505099 
L 1010.417597 321.89934 
L 1010.046972 323.293582 
L 1010.55878 325.570257 
L 1011.135292 327.323346 
L 1012.182464 328.94703 
L 1014.35914 330.135385 
L 1015.123908 331.147224 
L 1016.647592 332.48854 
L 1017.42999 335.9712 
L 1018.259498 337.977285 
L 1018.888971 339.19503 
L 1020.418508 340.17748 
L 1021.524494 341.83057 
L 1022.183374 342.377674 
L 1024.936562 344.442574 
L 1027.536789 344.901439 
L 1028.901623 345.677984 
L 1030.00172 346.189793 
L 1031.007707 346.701601 
L 1030.454714 347.819347 
L 1032.125471 348.960628 
L 1032.772574 350.907863 
L 1033.360863 352.278586 
L 1032.472541 352.790395 
L 1031.960732 353.890492 
L 1030.860635 354.4023 
L 1030.49001 355.502398 
L 1031.007707 356.602495 
L 1029.913499 356.102464 
L 1028.225113 356.449552 
L 1023.595282 356.255407 
L 1021.906896 355.743598 
L 1017.277029 355.631822 
L 1016.176932 355.896559 
L 1015.076835 355.478861 
L 1012.85901 356.020095 
L 1010.252859 355.431806 
L 1005.993653 356.020095 
L 1001.969777 356.608384 
L 999.575437 357.196673 
L 996.710473 357.784961 
L 991.392337 358.37325 
L 989.756895 358.961539 
L 987.527275 359.496884 
L 986.427177 360.008693 
L 983.768118 360.902885 
L 981.262002 362.232424 
L 979.008845 363.309003 
L 976.73217 363.514889 
L 975.043784 363.156042 
" clip-path="url(#p8feb063789)" style="fill: none; stroke: #2ca02c; stroke-width: 1.5; stroke-linecap: square"/>
   </g>
  </g>
 </g>
 <defs>
  <clipPath id="p4338cae17a">
   <rect x="144" y="51.84" width="75.661017" height="97.835294"/>
  </clipPath>
  <clipPath id="p54be33c511">
   <rect x="234.79322" y="51.84" width="75.661017" height="97.835294"/>
  </clipPath>
  <clipPath id="p311ead4814">
   <rect x="325.586441" y="51.84" width="75.661017" height="97.835294"/>
  </clipPath>
  <clipPath id="p110e9d5553">
   <rect x="416.379661" y="51.84" width="75.661017" height="97.835294"/>
  </clipPath>
  <clipPath id="p23c61b88e3">
   <rect x="507.172881" y="51.84" width="75.661017" height="97.835294"/>
  </clipPath>
  <clipPath id="pe1e6f3b9cf">
   <rect x="597.966102" y="51.84" width="75.661017" height="97.835294"/>
  </clipPath>
  <clipPath id="p28a483ff6b">
   <rect x="688.759322" y="51.84" width="75.661017" height="97.835294"/>
  </clipPath>
  <clipPath id="p99d68c90d5">
   <rect x="779.552542" y="51.84" width="75.661017" height="97.835294"/>
  </clipPath>
  <clipPath id="pfa81781f4b">
   <rect x="870.345763" y="51.84" width="75.661017" height="97.835294"/>
  </clipPath>
  <clipPath id="pe23964fe91">
   <rect x="961.138983" y="51.84" width="75.661017" height="97.835294"/>
  </clipPath>
  <clipPath id="pab0e091522">
   <rect x="144" y="169.242353" width="75.661017" height="97.835294"/>
  </clipPath>
  <clipPath id="p72f6226be7">
   <rect x="234.79322" y="169.242353" width="75.661017" height="97.835294"/>
  </clipPath>
  <clipPath id="p7793458a0b">
   <rect x="325.586441" y="169.242353" width="75.661017" height="97.835294"/>
  </clipPath>
  <clipPath id="p4a9ef0dc66">
   <rect x="416.379661" y="169.242353" width="75.661017" height="97.835294"/>
  </clipPath>
  <clipPath id="pa524278ec2">
   <rect x="507.172881" y="169.242353" width="75.661017" height="97.835294"/>
  </clipPath>
  <clipPath id="p5ff3915901">
   <rect x="597.966102" y="169.242353" width="75.661017" height="97.835294"/>
  </clipPath>
  <clipPath id="p09538daea7">
   <rect x="688.759322" y="169.242353" width="75.661017" height="97.835294"/>
  </clipPath>
  <clipPath id="pfcdfa05d54">
   <rect x="779.552542" y="169.242353" width="75.661017" height="97.835294"/>
  </clipPath>
  <clipPath id="p940ef8e9f7">
   <rect x="870.345763" y="169.242353" width="75.661017" height="97.835294"/>
  </clipPath>
  <clipPath id="p763fc97c57">
   <rect x="961.138983" y="169.242353" width="75.661017" height="97.835294"/>
  </clipPath>
  <clipPath id="p483d870dc9">
   <rect x="144" y="286.644706" width="75.661017" height="97.835294"/>
  </clipPath>
  <clipPath id="p1f82e50901">
   <rect x="234.79322" y="286.644706" width="75.661017" height="97.835294"/>
  </clipPath>
  <clipPath id="pe853205689">
   <rect x="325.586441" y="286.644706" width="75.661017" height="97.835294"/>
  </clipPath>
  <clipPath id="pcbc62305c2">
   <rect x="416.379661" y="286.644706" width="75.661017" height="97.835294"/>
  </clipPath>
  <clipPath id="p1c39a69c2d">
   <rect x="507.172881" y="286.644706" width="75.661017" height="97.835294"/>
  </clipPath>
  <clipPath id="p65bb63276c">
   <rect x="597.966102" y="286.644706" width="75.661017" height="97.835294"/>
  </clipPath>
  <clipPath id="pf3c0016461">
   <rect x="688.759322" y="286.644706" width="75.661017" height="97.835294"/>
  </clipPath>
  <clipPath id="p795909b1f1">
   <rect x="779.552542" y="286.644706" width="75.661017" height="97.835294"/>
  </clipPath>
  <clipPath id="p8f869c8830">
   <rect x="870.345763" y="286.644706" width="75.661017" height="97.835294"/>
  </clipPath>
  <clipPath id="p8feb063789">
   <rect x="961.138983" y="286.644706" width="75.661017" height="97.835294"/>
  </clipPath>
 </defs>
</svg>
