<?xml version="1.0" encoding="utf-8" standalone="no"?>
<!DOCTYPE svg PUBLIC "-//W3C//DTD SVG 1.1//EN"
  "http://www.w3.org/Graphics/SVG/1.1/DTD/svg11.dtd">
<svg xmlns:xlink="http://www.w3.org/1999/xlink" width="576pt" height="288pt" viewBox="0 0 576 288" xmlns="http://www.w3.org/2000/svg" version="1.1">
 <metadata>
  <rdf:RDF xmlns:dc="http://purl.org/dc/elements/1.1/" xmlns:cc="http://creativecommons.org/ns#" xmlns:rdf="http://www.w3.org/1999/02/22-rdf-syntax-ns#">
   <cc:Work>
    <dc:type rdf:resource="http://purl.org/dc/dcmitype/StillImage"/>
    <dc:date>2023-12-19T18:09:50.087835</dc:date>
    <dc:format>image/svg+xml</dc:format>
    <dc:creator>
     <cc:Agent>
      <dc:title>Matplotlib v3.6.2, https://matplotlib.org/</dc:title>
     </cc:Agent>
    </dc:creator>
   </cc:Work>
  </rdf:RDF>
 </metadata>
 <defs>
  <style type="text/css">*{stroke-linejoin: round; stroke-linecap: butt}</style>
 </defs>
 <g id="figure_1">
  <g id="patch_1">
   <path d="M 0 288 
L 576 288 
L 576 0 
L 0 0 
z
" style="fill: #ffffff"/>
  </g>
  <g id="axes_1">
   <g id="line2d_1">
    <path d="M 130.603236 218.757801 
L 128.016645 217.577742 
L 125.480086 215.621246 
L 122.982114 213.064862 
L 121.227256 209.927883 
L 119.835944 206.668535 
L 118.547097 202.379407 
L 117.201277 197.667056 
L 116.209438 193.460184 
L 114.99416 188.638611 
L 113.602742 184.180047 
L 111.962051 179.952654 
L 109.969403 175.928909 
L 108.380377 171.986915 
L 106.69388 167.097873 
L 104.607961 162.78249 
L 102.012431 158.751728 
L 100.169248 155.521064 
L 98.674491 152.214475 
L 96.884679 148.923291 
L 95.134477 145.28467 
L 94.188343 141.774215 
L 93.39035 138.266884 
L 92.387578 134.606852 
L 91.598305 130.506423 
L 90.845199 126.355497 
L 90.491425 121.757756 
L 90.011882 117.088946 
L 89.097391 112.441647 
L 87.94306 108.426647 
L 87.219783 104.891597 
L 86.702459 101.227362 
L 86.054104 97.217232 
L 85.486808 93.447605 
L 84.772422 90.102718 
L 84.294336 86.788828 
L 83.641158 82.575169 
L 83.113538 78.393354 
L 82.530381 74.526863 
L 82.416854 70.640762 
L 82.023408 66.516731 
L 82.053518 63.186631 
L 82.61152 59.669547 
L 83.626175 56.56053 
L 85.237482 53.775039 
L 87.358097 50.931405 
L 89.726877 48.841003 
L 92.814034 47.156023 
L 96.487985 45.930574 
L 100.489449 45.137826 
L 104.383202 44.64 
L 108.532851 44.887614 
L 113.597647 45.400607 
L 118.2783 46.103697 
L 123.647855 47.614526 
L 128.784509 49.181045 
L 133.501468 51.081664 
L 138.515714 54.133158 
L 143.244091 56.575665 
L 148.207235 59.77251 
L 152.586235 62.85812 
L 157.232738 66.687899 
L 161.545706 70.809684 
L 165.728434 75.031818 
L 169.370176 79.192345 
L 172.570914 84.2065 
L 175.883866 89.53384 
L 179.306966 95.188531 
L 182.475826 101.002932 
L 185.021525 106.800639 
L 187.096934 113.352974 
L 188.949536 120.007644 
L 190.686626 126.627298 
L 192.136221 133.199348 
L 192.880055 139.652755 
L 193.136276 146.039736 
L 193.27071 152.173864 
L 193.19305 157.855245 
L 192.752663 163.59065 
L 192.201087 169.218083 
L 191.287076 175.01981 
L 190.239986 180.411006 
L 188.916575 185.879669 
L 187.434061 191.272586 
L 185.746223 196.818878 
L 183.65207 202.263088 
L 181.419453 206.886271 
L 179.159105 211.505519 
L 176.44842 215.731024 
L 173.459865 219.701434 
L 170.639381 223.646767 
L 167.75828 227.357178 
L 164.900813 230.633166 
L 161.638018 233.68612 
L 157.957548 237.118765 
L 154.801131 239.911152 
L 151.412428 242.291843 
L 147.829693 244.357453 
L 144.227815 245.764469 
L 141.046896 246.24 
" clip-path="url(#p7a33c7f769)" style="fill: none; stroke: #ff7f0e; stroke-width: 1.5; stroke-linecap: square"/>
   </g>
   <g id="text_1">
    <!-- MCF10A -->
    <g transform="translate(96.718934 28.56) scale(0.2 -0.2)">
     <defs>
      <path id="DejaVuSans-4d" d="M 628 4666 
L 1569 4666 
L 2759 1491 
L 3956 4666 
L 4897 4666 
L 4897 0 
L 4281 0 
L 4281 4097 
L 3078 897 
L 2444 897 
L 1241 4097 
L 1241 0 
L 628 0 
L 628 4666 
z
" transform="scale(0.015625)"/>
      <path id="DejaVuSans-43" d="M 4122 4306 
L 4122 3641 
Q 3803 3938 3442 4084 
Q 3081 4231 2675 4231 
Q 1875 4231 1450 3742 
Q 1025 3253 1025 2328 
Q 1025 1406 1450 917 
Q 1875 428 2675 428 
Q 3081 428 3442 575 
Q 3803 722 4122 1019 
L 4122 359 
Q 3791 134 3420 21 
Q 3050 -91 2638 -91 
Q 1578 -91 968 557 
Q 359 1206 359 2328 
Q 359 3453 968 4101 
Q 1578 4750 2638 4750 
Q 3056 4750 3426 4639 
Q 3797 4528 4122 4306 
z
" transform="scale(0.015625)"/>
      <path id="DejaVuSans-46" d="M 628 4666 
L 3309 4666 
L 3309 4134 
L 1259 4134 
L 1259 2759 
L 3109 2759 
L 3109 2228 
L 1259 2228 
L 1259 0 
L 628 0 
L 628 4666 
z
" transform="scale(0.015625)"/>
      <path id="DejaVuSans-31" d="M 794 531 
L 1825 531 
L 1825 4091 
L 703 3866 
L 703 4441 
L 1819 4666 
L 2450 4666 
L 2450 531 
L 3481 531 
L 3481 0 
L 794 0 
L 794 531 
z
" transform="scale(0.015625)"/>
      <path id="DejaVuSans-30" d="M 2034 4250 
Q 1547 4250 1301 3770 
Q 1056 3291 1056 2328 
Q 1056 1369 1301 889 
Q 1547 409 2034 409 
Q 2525 409 2770 889 
Q 3016 1369 3016 2328 
Q 3016 3291 2770 3770 
Q 2525 4250 2034 4250 
z
M 2034 4750 
Q 2819 4750 3233 4129 
Q 3647 3509 3647 2328 
Q 3647 1150 3233 529 
Q 2819 -91 2034 -91 
Q 1250 -91 836 529 
Q 422 1150 422 2328 
Q 422 3509 836 4129 
Q 1250 4750 2034 4750 
z
" transform="scale(0.015625)"/>
      <path id="DejaVuSans-41" d="M 2188 4044 
L 1331 1722 
L 3047 1722 
L 2188 4044 
z
M 1831 4666 
L 2547 4666 
L 4325 0 
L 3669 0 
L 3244 1197 
L 1141 1197 
L 716 0 
L 50 0 
L 1831 4666 
z
" transform="scale(0.015625)"/>
     </defs>
     <use xlink:href="#DejaVuSans-4d"/>
     <use xlink:href="#DejaVuSans-43" x="86.279297"/>
     <use xlink:href="#DejaVuSans-46" x="156.103516"/>
     <use xlink:href="#DejaVuSans-31" x="213.623047"/>
     <use xlink:href="#DejaVuSans-30" x="277.246094"/>
     <use xlink:href="#DejaVuSans-41" x="340.869141"/>
    </g>
   </g>
  </g>
  <g id="axes_2">
   <g id="line2d_2">
    <path d="M 288.964526 211.3089 
L 285.988138 211.216586 
L 283.20722 210.898057 
L 281.050683 210.162942 
L 279.468647 208.979547 
L 278.034396 207.155011 
L 276.347373 204.337961 
L 274.715072 200.955061 
L 272.724931 196.978417 
L 270.363714 193.144691 
L 267.688789 189.406213 
L 264.966077 186.424827 
L 261.676589 183.559121 
L 258.529272 180.354946 
L 255.432706 177.163238 
L 252.612461 173.934136 
L 249.623437 170.513789 
L 246.969346 167.178021 
L 244.434017 163.96753 
L 242.179643 160.729547 
L 240.321932 157.0006 
L 239.013656 153.406352 
L 238.008436 149.385446 
L 237.244225 145.304056 
L 236.541806 141.041951 
L 236.066151 136.924511 
L 235.815103 132.513962 
L 235.695208 127.947237 
L 235.530445 124.03817 
L 235.520856 120.067184 
L 235.779306 116.206662 
L 236.112619 111.830424 
L 236.541001 107.403433 
L 236.806214 103.590958 
L 237.117592 100.108022 
L 237.716887 96.442685 
L 238.592976 93.026243 
L 239.386847 89.695802 
L 240.382316 86.577883 
L 241.432764 83.704708 
L 242.380599 80.903042 
L 243.611968 78.612031 
L 245.431248 75.911658 
L 247.917445 73.210782 
L 250.48742 70.912665 
L 253.397514 69.188153 
L 256.763189 68.370755 
L 261.038067 67.754068 
L 265.041836 67.169573 
L 269.354388 66.563408 
L 273.841382 66.213385 
L 277.963572 66.149866 
L 282.402233 66.365115 
L 286.94552 66.559036 
L 291.499647 66.802214 
L 296.200753 67.335658 
L 300.846173 68.453825 
L 305.021459 69.712907 
L 309.248136 70.984919 
L 313.254814 73.030258 
L 317.474167 75.853491 
L 321.264648 78.666043 
L 324.583105 81.564107 
L 328.07968 84.932081 
L 331.596901 88.18412 
L 334.88476 91.717484 
L 337.810583 95.721212 
L 341.047713 99.478114 
L 344.614992 103.930855 
L 347.521378 108.168441 
L 350.191624 113.167869 
L 351.826698 117.541898 
L 352.908159 122.307627 
L 353.737561 127.65004 
L 354.465494 133.477555 
L 354.693044 138.440888 
L 354.879144 143.588753 
L 354.574574 148.621536 
L 353.90219 154.029492 
L 353.125222 159.100336 
L 351.88726 164.013895 
L 350.728942 168.845897 
L 349.292662 173.90578 
L 347.525099 178.774775 
L 345.600104 183.473911 
L 343.563294 187.626252 
L 341.465425 191.116049 
L 338.867377 194.980262 
L 335.982867 198.506066 
L 332.79875 202.275635 
L 329.26971 205.008972 
L 325.572102 207.581175 
L 322.343241 209.802101 
L 319.006758 212.233538 
L 315.187588 215.279167 
L 311.499431 217.674268 
L 307.807601 219.814626 
L 303.822743 221.855436 
L 300.155083 223.45993 
L 296.541394 224.730134 
" clip-path="url(#pe4a6e5b499)" style="fill: none; stroke: #ff7f0e; stroke-width: 1.5; stroke-linecap: square"/>
   </g>
   <g id="text_2">
    <!-- MCF7 -->
    <g transform="translate(267.475 28.56) scale(0.2 -0.2)">
     <defs>
      <path id="DejaVuSans-37" d="M 525 4666 
L 3525 4666 
L 3525 4397 
L 1831 0 
L 1172 0 
L 2766 4134 
L 525 4134 
L 525 4666 
z
" transform="scale(0.015625)"/>
     </defs>
     <use xlink:href="#DejaVuSans-4d"/>
     <use xlink:href="#DejaVuSans-43" x="86.279297"/>
     <use xlink:href="#DejaVuSans-46" x="156.103516"/>
     <use xlink:href="#DejaVuSans-37" x="213.623047"/>
    </g>
   </g>
  </g>
  <g id="axes_3">
   <g id="line2d_3">
    <path d="M 465.721777 244.71084 
L 463.561823 244.105465 
L 461.446143 242.81301 
L 459.123297 240.627163 
L 456.96221 237.812453 
L 454.89408 234.41755 
L 453.204396 230.37094 
L 451.213427 225.628691 
L 449.248476 220.433867 
L 446.729463 215.346379 
L 443.638796 209.930611 
L 440.747876 204.777648 
L 437.45286 200.03857 
L 434.451868 195.441222 
L 431.456845 190.596712 
L 428.551321 185.30618 
L 425.475031 180.036267 
L 422.423653 175.573945 
L 419.491286 171.246233 
L 417.204069 166.981602 
L 414.767756 162.125127 
L 412.844004 156.885672 
L 411.146754 151.472532 
L 409.886908 146.663253 
L 408.760593 141.711585 
L 407.769289 137.132819 
L 406.887628 131.983719 
L 405.796835 126.309884 
L 404.885802 120.698162 
L 403.982457 115.452998 
L 403.307429 109.962973 
L 402.555738 104.617876 
L 402.077203 100.052338 
L 401.707094 95.164418 
L 401.362347 90.047932 
L 401.1958 85.442666 
L 401.794226 80.808416 
L 402.206065 76.372082 
L 403.021353 71.894215 
L 403.964358 67.94297 
L 404.811835 64.3231 
L 405.643936 60.705949 
L 406.749016 57.247839 
L 408.383488 53.651604 
L 410.959289 50.96017 
L 413.557788 49.026302 
L 416.162143 47.580651 
L 419.17481 46.439477 
L 422.682076 45.530891 
L 426.415503 44.954137 
L 430.293511 44.64 
L 434.805226 45.372315 
L 439.582155 46.548225 
L 443.657542 47.582647 
L 447.951659 48.916891 
L 452.39141 50.095096 
L 456.610693 51.368486 
L 461.174446 53.15909 
L 465.410822 55.540153 
L 469.419932 58.935099 
L 472.923126 62.771039 
L 476.110601 66.272877 
L 479.31877 70.383866 
L 482.429249 75.199121 
L 485.050177 79.735982 
L 488.126317 84.793087 
L 490.813354 89.54699 
L 493.375708 94.391499 
L 495.969535 99.484809 
L 498.094069 105.334852 
L 499.874584 111.567741 
L 501.17382 117.868651 
L 502.138329 125.253658 
L 503.039024 131.954886 
L 503.613512 139.601413 
L 504.090503 146.334612 
L 504.310082 152.569073 
L 504.187533 158.512395 
L 504.076552 164.161393 
L 503.866908 170.031812 
L 503.279369 176.337447 
L 502.510044 182.681096 
L 501.828532 188.718248 
L 501.001247 194.023167 
L 499.958267 199.391987 
L 498.807922 204.144164 
L 497.640504 207.84137 
L 496.254453 212.227891 
L 494.404701 216.809172 
L 492.489288 221.022327 
L 490.280914 224.615823 
L 487.908268 227.975138 
L 485.495217 230.974028 
L 482.838389 233.98269 
L 480.525173 237.107728 
L 478.336066 239.893354 
L 475.874362 242.50848 
L 473.516257 244.507798 
L 470.91591 245.640395 
L 468.174883 246.24 
" clip-path="url(#pd91b863ce5)" style="fill: none; stroke: #ff7f0e; stroke-width: 1.5; stroke-linecap: square"/>
   </g>
   <g id="text_3">
    <!-- MDA_MB_231 -->
    <g transform="translate(385.182629 28.56) scale(0.2 -0.2)">
     <defs>
      <path id="DejaVuSans-44" d="M 1259 4147 
L 1259 519 
L 2022 519 
Q 2988 519 3436 956 
Q 3884 1394 3884 2338 
Q 3884 3275 3436 3711 
Q 2988 4147 2022 4147 
L 1259 4147 
z
M 628 4666 
L 1925 4666 
Q 3281 4666 3915 4102 
Q 4550 3538 4550 2338 
Q 4550 1131 3912 565 
Q 3275 0 1925 0 
L 628 0 
L 628 4666 
z
" transform="scale(0.015625)"/>
      <path id="DejaVuSans-5f" d="M 3263 -1063 
L 3263 -1509 
L -63 -1509 
L -63 -1063 
L 3263 -1063 
z
" transform="scale(0.015625)"/>
      <path id="DejaVuSans-42" d="M 1259 2228 
L 1259 519 
L 2272 519 
Q 2781 519 3026 730 
Q 3272 941 3272 1375 
Q 3272 1813 3026 2020 
Q 2781 2228 2272 2228 
L 1259 2228 
z
M 1259 4147 
L 1259 2741 
L 2194 2741 
Q 2656 2741 2882 2914 
Q 3109 3088 3109 3444 
Q 3109 3797 2882 3972 
Q 2656 4147 2194 4147 
L 1259 4147 
z
M 628 4666 
L 2241 4666 
Q 2963 4666 3353 4366 
Q 3744 4066 3744 3513 
Q 3744 3084 3544 2831 
Q 3344 2578 2956 2516 
Q 3422 2416 3680 2098 
Q 3938 1781 3938 1306 
Q 3938 681 3513 340 
Q 3088 0 2303 0 
L 628 0 
L 628 4666 
z
" transform="scale(0.015625)"/>
      <path id="DejaVuSans-32" d="M 1228 531 
L 3431 531 
L 3431 0 
L 469 0 
L 469 531 
Q 828 903 1448 1529 
Q 2069 2156 2228 2338 
Q 2531 2678 2651 2914 
Q 2772 3150 2772 3378 
Q 2772 3750 2511 3984 
Q 2250 4219 1831 4219 
Q 1534 4219 1204 4116 
Q 875 4013 500 3803 
L 500 4441 
Q 881 4594 1212 4672 
Q 1544 4750 1819 4750 
Q 2544 4750 2975 4387 
Q 3406 4025 3406 3419 
Q 3406 3131 3298 2873 
Q 3191 2616 2906 2266 
Q 2828 2175 2409 1742 
Q 1991 1309 1228 531 
z
" transform="scale(0.015625)"/>
      <path id="DejaVuSans-33" d="M 2597 2516 
Q 3050 2419 3304 2112 
Q 3559 1806 3559 1356 
Q 3559 666 3084 287 
Q 2609 -91 1734 -91 
Q 1441 -91 1130 -33 
Q 819 25 488 141 
L 488 750 
Q 750 597 1062 519 
Q 1375 441 1716 441 
Q 2309 441 2620 675 
Q 2931 909 2931 1356 
Q 2931 1769 2642 2001 
Q 2353 2234 1838 2234 
L 1294 2234 
L 1294 2753 
L 1863 2753 
Q 2328 2753 2575 2939 
Q 2822 3125 2822 3475 
Q 2822 3834 2567 4026 
Q 2313 4219 1838 4219 
Q 1578 4219 1281 4162 
Q 984 4106 628 3988 
L 628 4550 
Q 988 4650 1302 4700 
Q 1616 4750 1894 4750 
Q 2613 4750 3031 4423 
Q 3450 4097 3450 3541 
Q 3450 3153 3228 2886 
Q 3006 2619 2597 2516 
z
" transform="scale(0.015625)"/>
     </defs>
     <use xlink:href="#DejaVuSans-4d"/>
     <use xlink:href="#DejaVuSans-44" x="86.279297"/>
     <use xlink:href="#DejaVuSans-41" x="161.53125"/>
     <use xlink:href="#DejaVuSans-5f" x="229.939453"/>
     <use xlink:href="#DejaVuSans-4d" x="279.939453"/>
     <use xlink:href="#DejaVuSans-42" x="366.21875"/>
     <use xlink:href="#DejaVuSans-5f" x="434.822266"/>
     <use xlink:href="#DejaVuSans-32" x="484.822266"/>
     <use xlink:href="#DejaVuSans-33" x="548.445312"/>
     <use xlink:href="#DejaVuSans-31" x="612.068359"/>
    </g>
   </g>
  </g>
 </g>
 <defs>
  <clipPath id="p7a33c7f769">
   <rect x="72" y="34.56" width="131.294118" height="221.76"/>
  </clipPath>
  <clipPath id="pe4a6e5b499">
   <rect x="229.552941" y="34.56" width="131.294118" height="221.76"/>
  </clipPath>
  <clipPath id="pd91b863ce5">
   <rect x="387.105882" y="34.56" width="131.294118" height="221.76"/>
  </clipPath>
 </defs>
</svg>
