<?xml version="1.0" encoding="utf-8" standalone="no"?>
<!DOCTYPE svg PUBLIC "-//W3C//DTD SVG 1.1//EN"
  "http://www.w3.org/Graphics/SVG/1.1/DTD/svg11.dtd">
<svg xmlns:xlink="http://www.w3.org/1999/xlink" width="864pt" height="288pt" viewBox="0 0 864 288" xmlns="http://www.w3.org/2000/svg" version="1.1">
 <metadata>
  <rdf:RDF xmlns:dc="http://purl.org/dc/elements/1.1/" xmlns:cc="http://creativecommons.org/ns#" xmlns:rdf="http://www.w3.org/1999/02/22-rdf-syntax-ns#">
   <cc:Work>
    <dc:type rdf:resource="http://purl.org/dc/dcmitype/StillImage"/>
    <dc:date>2023-12-12T02:36:55.017666</dc:date>
    <dc:format>image/svg+xml</dc:format>
    <dc:creator>
     <cc:Agent>
      <dc:title>Matplotlib v3.6.2, https://matplotlib.org/</dc:title>
     </cc:Agent>
    </dc:creator>
   </cc:Work>
  </rdf:RDF>
 </metadata>
 <defs>
  <style type="text/css">*{stroke-linejoin: round; stroke-linecap: butt}</style>
 </defs>
 <g id="figure_1">
  <g id="patch_1">
   <path d="M 0 288 
L 864 288 
L 864 0 
L 0 0 
z
" style="fill: #ffffff"/>
  </g>
  <g id="axes_1">
   <g id="patch_2">
    <path d="M 51.2525 260.521875 
L 297.335417 260.521875 
L 297.335417 40.95625 
L 51.2525 40.95625 
z
" style="fill: #ffffff"/>
   </g>
   <g id="patch_3">
    <path d="M 51.2525 260.521875 
L 62.916038 260.521875 
L 62.916038 243.567 
L 51.2525 243.567 
z
" clip-path="url(#p608c493fa7)" style="fill: #1f77b4; opacity: 0.4"/>
   </g>
   <g id="patch_4">
    <path d="M 62.916038 260.521875 
L 74.579575 260.521875 
L 74.579575 232.263751 
L 62.916038 232.263751 
z
" clip-path="url(#p608c493fa7)" style="fill: #1f77b4; opacity: 0.4"/>
   </g>
   <g id="patch_5">
    <path d="M 74.579575 260.521875 
L 86.243113 260.521875 
L 86.243113 181.399127 
L 74.579575 181.399127 
z
" clip-path="url(#p608c493fa7)" style="fill: #1f77b4; opacity: 0.4"/>
   </g>
   <g id="patch_6">
    <path d="M 86.243113 260.521875 
L 97.90665 260.521875 
L 97.90665 130.534504 
L 86.243113 130.534504 
z
" clip-path="url(#p608c493fa7)" style="fill: #1f77b4; opacity: 0.4"/>
   </g>
   <g id="patch_7">
    <path d="M 97.90665 260.521875 
L 109.570188 260.521875 
L 109.570188 74.018255 
L 97.90665 74.018255 
z
" clip-path="url(#p608c493fa7)" style="fill: #1f77b4; opacity: 0.4"/>
   </g>
   <g id="patch_8">
    <path d="M 109.570188 260.521875 
L 121.233726 260.521875 
L 121.233726 102.27638 
L 109.570188 102.27638 
z
" clip-path="url(#p608c493fa7)" style="fill: #1f77b4; opacity: 0.4"/>
   </g>
   <g id="patch_9">
    <path d="M 121.233726 260.521875 
L 132.897263 260.521875 
L 132.897263 51.411756 
L 121.233726 51.411756 
z
" clip-path="url(#p608c493fa7)" style="fill: #1f77b4; opacity: 0.4"/>
   </g>
   <g id="patch_10">
    <path d="M 132.897263 260.521875 
L 144.560801 260.521875 
L 144.560801 113.579629 
L 132.897263 113.579629 
z
" clip-path="url(#p608c493fa7)" style="fill: #1f77b4; opacity: 0.4"/>
   </g>
   <g id="patch_11">
    <path d="M 144.560801 260.521875 
L 156.224338 260.521875 
L 156.224338 119.231254 
L 144.560801 119.231254 
z
" clip-path="url(#p608c493fa7)" style="fill: #1f77b4; opacity: 0.4"/>
   </g>
   <g id="patch_12">
    <path d="M 156.224338 260.521875 
L 167.887876 260.521875 
L 167.887876 181.399127 
L 156.224338 181.399127 
z
" clip-path="url(#p608c493fa7)" style="fill: #1f77b4; opacity: 0.4"/>
   </g>
   <g id="patch_13">
    <path d="M 167.887876 260.521875 
L 179.551414 260.521875 
L 179.551414 237.915376 
L 167.887876 237.915376 
z
" clip-path="url(#p608c493fa7)" style="fill: #1f77b4; opacity: 0.4"/>
   </g>
   <g id="patch_14">
    <path d="M 179.551414 260.521875 
L 191.214951 260.521875 
L 191.214951 226.612126 
L 179.551414 226.612126 
z
" clip-path="url(#p608c493fa7)" style="fill: #1f77b4; opacity: 0.4"/>
   </g>
   <g id="patch_15">
    <path d="M 191.214951 260.521875 
L 202.878489 260.521875 
L 202.878489 260.521875 
L 191.214951 260.521875 
z
" clip-path="url(#p608c493fa7)" style="fill: #1f77b4; opacity: 0.4"/>
   </g>
   <g id="patch_16">
    <path d="M 202.878489 260.521875 
L 214.542027 260.521875 
L 214.542027 243.567 
L 202.878489 243.567 
z
" clip-path="url(#p608c493fa7)" style="fill: #1f77b4; opacity: 0.4"/>
   </g>
   <g id="patch_17">
    <path d="M 214.542027 260.521875 
L 226.205564 260.521875 
L 226.205564 237.915376 
L 214.542027 237.915376 
z
" clip-path="url(#p608c493fa7)" style="fill: #1f77b4; opacity: 0.4"/>
   </g>
   <g id="patch_18">
    <path d="M 226.205564 260.521875 
L 237.869102 260.521875 
L 237.869102 254.87025 
L 226.205564 254.87025 
z
" clip-path="url(#p608c493fa7)" style="fill: #1f77b4; opacity: 0.4"/>
   </g>
   <g id="patch_19">
    <path d="M 237.869102 260.521875 
L 249.532639 260.521875 
L 249.532639 254.87025 
L 237.869102 254.87025 
z
" clip-path="url(#p608c493fa7)" style="fill: #1f77b4; opacity: 0.4"/>
   </g>
   <g id="patch_20">
    <path d="M 249.532639 260.521875 
L 261.196177 260.521875 
L 261.196177 260.521875 
L 249.532639 260.521875 
z
" clip-path="url(#p608c493fa7)" style="fill: #1f77b4; opacity: 0.4"/>
   </g>
   <g id="patch_21">
    <path d="M 261.196177 260.521875 
L 272.859715 260.521875 
L 272.859715 260.521875 
L 261.196177 260.521875 
z
" clip-path="url(#p608c493fa7)" style="fill: #1f77b4; opacity: 0.4"/>
   </g>
   <g id="patch_22">
    <path d="M 272.859715 260.521875 
L 284.523252 260.521875 
L 284.523252 254.87025 
L 272.859715 254.87025 
z
" clip-path="url(#p608c493fa7)" style="fill: #1f77b4; opacity: 0.4"/>
   </g>
   <g id="matplotlib.axis_1">
    <g id="xtick_1">
     <g id="line2d_1">
      <defs>
       <path id="mb202bee9f5" d="M 0 0 
L 0 3.5 
" style="stroke: #000000; stroke-width: 0.8"/>
      </defs>
      <g>
       <use xlink:href="#mb202bee9f5" x="73.475159" y="260.521875" style="stroke: #000000; stroke-width: 0.8"/>
      </g>
     </g>
     <g id="text_1">
      <!-- 0.4 -->
      <g transform="translate(65.523596 275.120313) scale(0.1 -0.1)">
       <defs>
        <path id="DejaVuSans-30" d="M 2034 4250 
Q 1547 4250 1301 3770 
Q 1056 3291 1056 2328 
Q 1056 1369 1301 889 
Q 1547 409 2034 409 
Q 2525 409 2770 889 
Q 3016 1369 3016 2328 
Q 3016 3291 2770 3770 
Q 2525 4250 2034 4250 
z
M 2034 4750 
Q 2819 4750 3233 4129 
Q 3647 3509 3647 2328 
Q 3647 1150 3233 529 
Q 2819 -91 2034 -91 
Q 1250 -91 836 529 
Q 422 1150 422 2328 
Q 422 3509 836 4129 
Q 1250 4750 2034 4750 
z
" transform="scale(0.015625)"/>
        <path id="DejaVuSans-2e" d="M 684 794 
L 1344 794 
L 1344 0 
L 684 0 
L 684 794 
z
" transform="scale(0.015625)"/>
        <path id="DejaVuSans-34" d="M 2419 4116 
L 825 1625 
L 2419 1625 
L 2419 4116 
z
M 2253 4666 
L 3047 4666 
L 3047 1625 
L 3713 1625 
L 3713 1100 
L 3047 1100 
L 3047 0 
L 2419 0 
L 2419 1100 
L 313 1100 
L 313 1709 
L 2253 4666 
z
" transform="scale(0.015625)"/>
       </defs>
       <use xlink:href="#DejaVuSans-30"/>
       <use xlink:href="#DejaVuSans-2e" x="63.623047"/>
       <use xlink:href="#DejaVuSans-34" x="95.410156"/>
      </g>
     </g>
    </g>
    <g id="xtick_2">
     <g id="line2d_2">
      <g>
       <use xlink:href="#mb202bee9f5" x="126.90344" y="260.521875" style="stroke: #000000; stroke-width: 0.8"/>
      </g>
     </g>
     <g id="text_2">
      <!-- 0.6 -->
      <g transform="translate(118.951878 275.120313) scale(0.1 -0.1)">
       <defs>
        <path id="DejaVuSans-36" d="M 2113 2584 
Q 1688 2584 1439 2293 
Q 1191 2003 1191 1497 
Q 1191 994 1439 701 
Q 1688 409 2113 409 
Q 2538 409 2786 701 
Q 3034 994 3034 1497 
Q 3034 2003 2786 2293 
Q 2538 2584 2113 2584 
z
M 3366 4563 
L 3366 3988 
Q 3128 4100 2886 4159 
Q 2644 4219 2406 4219 
Q 1781 4219 1451 3797 
Q 1122 3375 1075 2522 
Q 1259 2794 1537 2939 
Q 1816 3084 2150 3084 
Q 2853 3084 3261 2657 
Q 3669 2231 3669 1497 
Q 3669 778 3244 343 
Q 2819 -91 2113 -91 
Q 1303 -91 875 529 
Q 447 1150 447 2328 
Q 447 3434 972 4092 
Q 1497 4750 2381 4750 
Q 2619 4750 2861 4703 
Q 3103 4656 3366 4563 
z
" transform="scale(0.015625)"/>
       </defs>
       <use xlink:href="#DejaVuSans-30"/>
       <use xlink:href="#DejaVuSans-2e" x="63.623047"/>
       <use xlink:href="#DejaVuSans-36" x="95.410156"/>
      </g>
     </g>
    </g>
    <g id="xtick_3">
     <g id="line2d_3">
      <g>
       <use xlink:href="#mb202bee9f5" x="180.331722" y="260.521875" style="stroke: #000000; stroke-width: 0.8"/>
      </g>
     </g>
     <g id="text_3">
      <!-- 0.8 -->
      <g transform="translate(172.38016 275.120313) scale(0.1 -0.1)">
       <defs>
        <path id="DejaVuSans-38" d="M 2034 2216 
Q 1584 2216 1326 1975 
Q 1069 1734 1069 1313 
Q 1069 891 1326 650 
Q 1584 409 2034 409 
Q 2484 409 2743 651 
Q 3003 894 3003 1313 
Q 3003 1734 2745 1975 
Q 2488 2216 2034 2216 
z
M 1403 2484 
Q 997 2584 770 2862 
Q 544 3141 544 3541 
Q 544 4100 942 4425 
Q 1341 4750 2034 4750 
Q 2731 4750 3128 4425 
Q 3525 4100 3525 3541 
Q 3525 3141 3298 2862 
Q 3072 2584 2669 2484 
Q 3125 2378 3379 2068 
Q 3634 1759 3634 1313 
Q 3634 634 3220 271 
Q 2806 -91 2034 -91 
Q 1263 -91 848 271 
Q 434 634 434 1313 
Q 434 1759 690 2068 
Q 947 2378 1403 2484 
z
M 1172 3481 
Q 1172 3119 1398 2916 
Q 1625 2713 2034 2713 
Q 2441 2713 2670 2916 
Q 2900 3119 2900 3481 
Q 2900 3844 2670 4047 
Q 2441 4250 2034 4250 
Q 1625 4250 1398 4047 
Q 1172 3844 1172 3481 
z
" transform="scale(0.015625)"/>
       </defs>
       <use xlink:href="#DejaVuSans-30"/>
       <use xlink:href="#DejaVuSans-2e" x="63.623047"/>
       <use xlink:href="#DejaVuSans-38" x="95.410156"/>
      </g>
     </g>
    </g>
    <g id="xtick_4">
     <g id="line2d_4">
      <g>
       <use xlink:href="#mb202bee9f5" x="233.760004" y="260.521875" style="stroke: #000000; stroke-width: 0.8"/>
      </g>
     </g>
     <g id="text_4">
      <!-- 1.0 -->
      <g transform="translate(225.808442 275.120313) scale(0.1 -0.1)">
       <defs>
        <path id="DejaVuSans-31" d="M 794 531 
L 1825 531 
L 1825 4091 
L 703 3866 
L 703 4441 
L 1819 4666 
L 2450 4666 
L 2450 531 
L 3481 531 
L 3481 0 
L 794 0 
L 794 531 
z
" transform="scale(0.015625)"/>
       </defs>
       <use xlink:href="#DejaVuSans-31"/>
       <use xlink:href="#DejaVuSans-2e" x="63.623047"/>
       <use xlink:href="#DejaVuSans-30" x="95.410156"/>
      </g>
     </g>
    </g>
    <g id="xtick_5">
     <g id="line2d_5">
      <g>
       <use xlink:href="#mb202bee9f5" x="287.188286" y="260.521875" style="stroke: #000000; stroke-width: 0.8"/>
      </g>
     </g>
     <g id="text_5">
      <!-- 1.2 -->
      <g transform="translate(279.236723 275.120313) scale(0.1 -0.1)">
       <defs>
        <path id="DejaVuSans-32" d="M 1228 531 
L 3431 531 
L 3431 0 
L 469 0 
L 469 531 
Q 828 903 1448 1529 
Q 2069 2156 2228 2338 
Q 2531 2678 2651 2914 
Q 2772 3150 2772 3378 
Q 2772 3750 2511 3984 
Q 2250 4219 1831 4219 
Q 1534 4219 1204 4116 
Q 875 4013 500 3803 
L 500 4441 
Q 881 4594 1212 4672 
Q 1544 4750 1819 4750 
Q 2544 4750 2975 4387 
Q 3406 4025 3406 3419 
Q 3406 3131 3298 2873 
Q 3191 2616 2906 2266 
Q 2828 2175 2409 1742 
Q 1991 1309 1228 531 
z
" transform="scale(0.015625)"/>
       </defs>
       <use xlink:href="#DejaVuSans-31"/>
       <use xlink:href="#DejaVuSans-2e" x="63.623047"/>
       <use xlink:href="#DejaVuSans-32" x="95.410156"/>
      </g>
     </g>
    </g>
   </g>
   <g id="matplotlib.axis_2">
    <g id="ytick_1">
     <g id="line2d_6">
      <defs>
       <path id="mc0e4a1bb0d" d="M 0 0 
L -3.5 0 
" style="stroke: #000000; stroke-width: 0.8"/>
      </defs>
      <g>
       <use xlink:href="#mc0e4a1bb0d" x="51.2525" y="260.521875" style="stroke: #000000; stroke-width: 0.8"/>
      </g>
     </g>
     <g id="text_6">
      <!-- 0.0 -->
      <g transform="translate(28.349375 264.321094) scale(0.1 -0.1)">
       <use xlink:href="#DejaVuSans-30"/>
       <use xlink:href="#DejaVuSans-2e" x="63.623047"/>
       <use xlink:href="#DejaVuSans-30" x="95.410156"/>
      </g>
     </g>
    </g>
    <g id="ytick_2">
     <g id="line2d_7">
      <g>
       <use xlink:href="#mc0e4a1bb0d" x="51.2525" y="232.392035" style="stroke: #000000; stroke-width: 0.8"/>
      </g>
     </g>
     <g id="text_7">
      <!-- 0.5 -->
      <g transform="translate(28.349375 236.191254) scale(0.1 -0.1)">
       <defs>
        <path id="DejaVuSans-35" d="M 691 4666 
L 3169 4666 
L 3169 4134 
L 1269 4134 
L 1269 2991 
Q 1406 3038 1543 3061 
Q 1681 3084 1819 3084 
Q 2600 3084 3056 2656 
Q 3513 2228 3513 1497 
Q 3513 744 3044 326 
Q 2575 -91 1722 -91 
Q 1428 -91 1123 -41 
Q 819 9 494 109 
L 494 744 
Q 775 591 1075 516 
Q 1375 441 1709 441 
Q 2250 441 2565 725 
Q 2881 1009 2881 1497 
Q 2881 1984 2565 2268 
Q 2250 2553 1709 2553 
Q 1456 2553 1204 2497 
Q 953 2441 691 2322 
L 691 4666 
z
" transform="scale(0.015625)"/>
       </defs>
       <use xlink:href="#DejaVuSans-30"/>
       <use xlink:href="#DejaVuSans-2e" x="63.623047"/>
       <use xlink:href="#DejaVuSans-35" x="95.410156"/>
      </g>
     </g>
    </g>
    <g id="ytick_3">
     <g id="line2d_8">
      <g>
       <use xlink:href="#mc0e4a1bb0d" x="51.2525" y="204.262195" style="stroke: #000000; stroke-width: 0.8"/>
      </g>
     </g>
     <g id="text_8">
      <!-- 1.0 -->
      <g transform="translate(28.349375 208.061414) scale(0.1 -0.1)">
       <use xlink:href="#DejaVuSans-31"/>
       <use xlink:href="#DejaVuSans-2e" x="63.623047"/>
       <use xlink:href="#DejaVuSans-30" x="95.410156"/>
      </g>
     </g>
    </g>
    <g id="ytick_4">
     <g id="line2d_9">
      <g>
       <use xlink:href="#mc0e4a1bb0d" x="51.2525" y="176.132356" style="stroke: #000000; stroke-width: 0.8"/>
      </g>
     </g>
     <g id="text_9">
      <!-- 1.5 -->
      <g transform="translate(28.349375 179.931574) scale(0.1 -0.1)">
       <use xlink:href="#DejaVuSans-31"/>
       <use xlink:href="#DejaVuSans-2e" x="63.623047"/>
       <use xlink:href="#DejaVuSans-35" x="95.410156"/>
      </g>
     </g>
    </g>
    <g id="ytick_5">
     <g id="line2d_10">
      <g>
       <use xlink:href="#mc0e4a1bb0d" x="51.2525" y="148.002516" style="stroke: #000000; stroke-width: 0.8"/>
      </g>
     </g>
     <g id="text_10">
      <!-- 2.0 -->
      <g transform="translate(28.349375 151.801735) scale(0.1 -0.1)">
       <use xlink:href="#DejaVuSans-32"/>
       <use xlink:href="#DejaVuSans-2e" x="63.623047"/>
       <use xlink:href="#DejaVuSans-30" x="95.410156"/>
      </g>
     </g>
    </g>
    <g id="ytick_6">
     <g id="line2d_11">
      <g>
       <use xlink:href="#mc0e4a1bb0d" x="51.2525" y="119.872676" style="stroke: #000000; stroke-width: 0.8"/>
      </g>
     </g>
     <g id="text_11">
      <!-- 2.5 -->
      <g transform="translate(28.349375 123.671895) scale(0.1 -0.1)">
       <use xlink:href="#DejaVuSans-32"/>
       <use xlink:href="#DejaVuSans-2e" x="63.623047"/>
       <use xlink:href="#DejaVuSans-35" x="95.410156"/>
      </g>
     </g>
    </g>
    <g id="ytick_7">
     <g id="line2d_12">
      <g>
       <use xlink:href="#mc0e4a1bb0d" x="51.2525" y="91.742836" style="stroke: #000000; stroke-width: 0.8"/>
      </g>
     </g>
     <g id="text_12">
      <!-- 3.0 -->
      <g transform="translate(28.349375 95.542055) scale(0.1 -0.1)">
       <defs>
        <path id="DejaVuSans-33" d="M 2597 2516 
Q 3050 2419 3304 2112 
Q 3559 1806 3559 1356 
Q 3559 666 3084 287 
Q 2609 -91 1734 -91 
Q 1441 -91 1130 -33 
Q 819 25 488 141 
L 488 750 
Q 750 597 1062 519 
Q 1375 441 1716 441 
Q 2309 441 2620 675 
Q 2931 909 2931 1356 
Q 2931 1769 2642 2001 
Q 2353 2234 1838 2234 
L 1294 2234 
L 1294 2753 
L 1863 2753 
Q 2328 2753 2575 2939 
Q 2822 3125 2822 3475 
Q 2822 3834 2567 4026 
Q 2313 4219 1838 4219 
Q 1578 4219 1281 4162 
Q 984 4106 628 3988 
L 628 4550 
Q 988 4650 1302 4700 
Q 1616 4750 1894 4750 
Q 2613 4750 3031 4423 
Q 3450 4097 3450 3541 
Q 3450 3153 3228 2886 
Q 3006 2619 2597 2516 
z
" transform="scale(0.015625)"/>
       </defs>
       <use xlink:href="#DejaVuSans-33"/>
       <use xlink:href="#DejaVuSans-2e" x="63.623047"/>
       <use xlink:href="#DejaVuSans-30" x="95.410156"/>
      </g>
     </g>
    </g>
    <g id="ytick_8">
     <g id="line2d_13">
      <g>
       <use xlink:href="#mc0e4a1bb0d" x="51.2525" y="63.612997" style="stroke: #000000; stroke-width: 0.8"/>
      </g>
     </g>
     <g id="text_13">
      <!-- 3.5 -->
      <g transform="translate(28.349375 67.412215) scale(0.1 -0.1)">
       <use xlink:href="#DejaVuSans-33"/>
       <use xlink:href="#DejaVuSans-2e" x="63.623047"/>
       <use xlink:href="#DejaVuSans-35" x="95.410156"/>
      </g>
     </g>
    </g>
    <g id="text_14">
     <!-- Fraction of cells -->
     <g transform="translate(21.437813 205.570937) rotate(-90) scale(0.14 -0.14)">
      <defs>
       <path id="DejaVuSans-46" d="M 628 4666 
L 3309 4666 
L 3309 4134 
L 1259 4134 
L 1259 2759 
L 3109 2759 
L 3109 2228 
L 1259 2228 
L 1259 0 
L 628 0 
L 628 4666 
z
" transform="scale(0.015625)"/>
       <path id="DejaVuSans-72" d="M 2631 2963 
Q 2534 3019 2420 3045 
Q 2306 3072 2169 3072 
Q 1681 3072 1420 2755 
Q 1159 2438 1159 1844 
L 1159 0 
L 581 0 
L 581 3500 
L 1159 3500 
L 1159 2956 
Q 1341 3275 1631 3429 
Q 1922 3584 2338 3584 
Q 2397 3584 2469 3576 
Q 2541 3569 2628 3553 
L 2631 2963 
z
" transform="scale(0.015625)"/>
       <path id="DejaVuSans-61" d="M 2194 1759 
Q 1497 1759 1228 1600 
Q 959 1441 959 1056 
Q 959 750 1161 570 
Q 1363 391 1709 391 
Q 2188 391 2477 730 
Q 2766 1069 2766 1631 
L 2766 1759 
L 2194 1759 
z
M 3341 1997 
L 3341 0 
L 2766 0 
L 2766 531 
Q 2569 213 2275 61 
Q 1981 -91 1556 -91 
Q 1019 -91 701 211 
Q 384 513 384 1019 
Q 384 1609 779 1909 
Q 1175 2209 1959 2209 
L 2766 2209 
L 2766 2266 
Q 2766 2663 2505 2880 
Q 2244 3097 1772 3097 
Q 1472 3097 1187 3025 
Q 903 2953 641 2809 
L 641 3341 
Q 956 3463 1253 3523 
Q 1550 3584 1831 3584 
Q 2591 3584 2966 3190 
Q 3341 2797 3341 1997 
z
" transform="scale(0.015625)"/>
       <path id="DejaVuSans-63" d="M 3122 3366 
L 3122 2828 
Q 2878 2963 2633 3030 
Q 2388 3097 2138 3097 
Q 1578 3097 1268 2742 
Q 959 2388 959 1747 
Q 959 1106 1268 751 
Q 1578 397 2138 397 
Q 2388 397 2633 464 
Q 2878 531 3122 666 
L 3122 134 
Q 2881 22 2623 -34 
Q 2366 -91 2075 -91 
Q 1284 -91 818 406 
Q 353 903 353 1747 
Q 353 2603 823 3093 
Q 1294 3584 2113 3584 
Q 2378 3584 2631 3529 
Q 2884 3475 3122 3366 
z
" transform="scale(0.015625)"/>
       <path id="DejaVuSans-74" d="M 1172 4494 
L 1172 3500 
L 2356 3500 
L 2356 3053 
L 1172 3053 
L 1172 1153 
Q 1172 725 1289 603 
Q 1406 481 1766 481 
L 2356 481 
L 2356 0 
L 1766 0 
Q 1100 0 847 248 
Q 594 497 594 1153 
L 594 3053 
L 172 3053 
L 172 3500 
L 594 3500 
L 594 4494 
L 1172 4494 
z
" transform="scale(0.015625)"/>
       <path id="DejaVuSans-69" d="M 603 3500 
L 1178 3500 
L 1178 0 
L 603 0 
L 603 3500 
z
M 603 4863 
L 1178 4863 
L 1178 4134 
L 603 4134 
L 603 4863 
z
" transform="scale(0.015625)"/>
       <path id="DejaVuSans-6f" d="M 1959 3097 
Q 1497 3097 1228 2736 
Q 959 2375 959 1747 
Q 959 1119 1226 758 
Q 1494 397 1959 397 
Q 2419 397 2687 759 
Q 2956 1122 2956 1747 
Q 2956 2369 2687 2733 
Q 2419 3097 1959 3097 
z
M 1959 3584 
Q 2709 3584 3137 3096 
Q 3566 2609 3566 1747 
Q 3566 888 3137 398 
Q 2709 -91 1959 -91 
Q 1206 -91 779 398 
Q 353 888 353 1747 
Q 353 2609 779 3096 
Q 1206 3584 1959 3584 
z
" transform="scale(0.015625)"/>
       <path id="DejaVuSans-6e" d="M 3513 2113 
L 3513 0 
L 2938 0 
L 2938 2094 
Q 2938 2591 2744 2837 
Q 2550 3084 2163 3084 
Q 1697 3084 1428 2787 
Q 1159 2491 1159 1978 
L 1159 0 
L 581 0 
L 581 3500 
L 1159 3500 
L 1159 2956 
Q 1366 3272 1645 3428 
Q 1925 3584 2291 3584 
Q 2894 3584 3203 3211 
Q 3513 2838 3513 2113 
z
" transform="scale(0.015625)"/>
       <path id="DejaVuSans-20" transform="scale(0.015625)"/>
       <path id="DejaVuSans-66" d="M 2375 4863 
L 2375 4384 
L 1825 4384 
Q 1516 4384 1395 4259 
Q 1275 4134 1275 3809 
L 1275 3500 
L 2222 3500 
L 2222 3053 
L 1275 3053 
L 1275 0 
L 697 0 
L 697 3053 
L 147 3053 
L 147 3500 
L 697 3500 
L 697 3744 
Q 697 4328 969 4595 
Q 1241 4863 1831 4863 
L 2375 4863 
z
" transform="scale(0.015625)"/>
       <path id="DejaVuSans-65" d="M 3597 1894 
L 3597 1613 
L 953 1613 
Q 991 1019 1311 708 
Q 1631 397 2203 397 
Q 2534 397 2845 478 
Q 3156 559 3463 722 
L 3463 178 
Q 3153 47 2828 -22 
Q 2503 -91 2169 -91 
Q 1331 -91 842 396 
Q 353 884 353 1716 
Q 353 2575 817 3079 
Q 1281 3584 2069 3584 
Q 2775 3584 3186 3129 
Q 3597 2675 3597 1894 
z
M 3022 2063 
Q 3016 2534 2758 2815 
Q 2500 3097 2075 3097 
Q 1594 3097 1305 2825 
Q 1016 2553 972 2059 
L 3022 2063 
z
" transform="scale(0.015625)"/>
       <path id="DejaVuSans-6c" d="M 603 4863 
L 1178 4863 
L 1178 0 
L 603 0 
L 603 4863 
z
" transform="scale(0.015625)"/>
       <path id="DejaVuSans-73" d="M 2834 3397 
L 2834 2853 
Q 2591 2978 2328 3040 
Q 2066 3103 1784 3103 
Q 1356 3103 1142 2972 
Q 928 2841 928 2578 
Q 928 2378 1081 2264 
Q 1234 2150 1697 2047 
L 1894 2003 
Q 2506 1872 2764 1633 
Q 3022 1394 3022 966 
Q 3022 478 2636 193 
Q 2250 -91 1575 -91 
Q 1294 -91 989 -36 
Q 684 19 347 128 
L 347 722 
Q 666 556 975 473 
Q 1284 391 1588 391 
Q 1994 391 2212 530 
Q 2431 669 2431 922 
Q 2431 1156 2273 1281 
Q 2116 1406 1581 1522 
L 1381 1569 
Q 847 1681 609 1914 
Q 372 2147 372 2553 
Q 372 3047 722 3315 
Q 1072 3584 1716 3584 
Q 2034 3584 2315 3537 
Q 2597 3491 2834 3397 
z
" transform="scale(0.015625)"/>
      </defs>
      <use xlink:href="#DejaVuSans-46"/>
      <use xlink:href="#DejaVuSans-72" x="50.269531"/>
      <use xlink:href="#DejaVuSans-61" x="91.382812"/>
      <use xlink:href="#DejaVuSans-63" x="152.662109"/>
      <use xlink:href="#DejaVuSans-74" x="207.642578"/>
      <use xlink:href="#DejaVuSans-69" x="246.851562"/>
      <use xlink:href="#DejaVuSans-6f" x="274.634766"/>
      <use xlink:href="#DejaVuSans-6e" x="335.816406"/>
      <use xlink:href="#DejaVuSans-20" x="399.195312"/>
      <use xlink:href="#DejaVuSans-6f" x="430.982422"/>
      <use xlink:href="#DejaVuSans-66" x="492.164062"/>
      <use xlink:href="#DejaVuSans-20" x="527.369141"/>
      <use xlink:href="#DejaVuSans-63" x="559.15625"/>
      <use xlink:href="#DejaVuSans-65" x="614.136719"/>
      <use xlink:href="#DejaVuSans-6c" x="675.660156"/>
      <use xlink:href="#DejaVuSans-6c" x="703.443359"/>
      <use xlink:href="#DejaVuSans-73" x="731.226562"/>
     </g>
    </g>
   </g>
   <g id="line2d_14">
    <path d="M -1 260.521508 
L 4.396168 260.519441 
L 9.792964 260.508647 
L 15.18976 260.463048 
L 20.586556 260.307359 
L 25.983353 259.87829 
L 31.380149 258.923411 
L 36.776945 257.197815 
L 42.173741 254.615125 
L 47.570537 251.239131 
L 52.967333 246.958228 
L 58.364129 241.079824 
L 63.760926 232.344581 
L 69.157722 219.539531 
L 74.554518 202.314265 
L 79.951314 181.597869 
L 85.34811 159.333 
L 90.744906 137.798163 
L 96.141702 118.996727 
L 101.538499 104.197561 
L 106.935295 93.520636 
L 112.332091 86.026644 
L 117.728887 80.880836 
L 123.125683 78.812686 
L 128.522479 81.999938 
L 133.919275 91.936402 
L 139.316072 107.504643 
L 144.712868 125.600013 
L 150.109664 143.627668 
L 155.50646 160.976222 
L 160.903256 178.081662 
L 166.300052 194.687931 
L 171.696848 209.495677 
L 177.093645 221.31754 
L 182.490441 230.08566 
L 187.887237 236.557279 
L 193.284033 241.308841 
L 198.680829 244.336561 
L 204.077625 245.607045 
L 209.474421 245.678344 
L 214.871218 245.571359 
L 220.268014 246.112136 
L 225.66481 247.517805 
L 231.061606 249.533904 
L 236.458402 251.798228 
L 241.855198 254.045486 
L 247.251994 256.090912 
L 252.648791 257.758379 
L 258.045587 258.885728 
L 263.442383 259.392015 
L 268.839179 259.333309 
L 274.235975 258.919936 
L 279.632771 258.478458 
L 285.029567 258.321935 
L 290.426364 258.575577 
L 295.82316 259.114708 
L 301.219956 259.691397 
L 306.616752 260.121879 
L 312.013548 260.364655 
L 317.410344 260.471446 
L 322.80714 260.508675 
L 328.203937 260.519055 
L 333.600733 260.521384 
L 338.997529 260.521805 
L 344.394325 260.521867 
L 349.791121 260.521874 
L 355.187917 260.521875 
L 360.584713 260.521875 
L 365.98151 260.521875 
L 371.378306 260.521875 
L 376.775102 260.521875 
L 382.171898 260.521875 
L 387.568694 260.521875 
L 392.96549 260.521875 
L 398.362286 260.521875 
L 403.759082 260.521875 
L 409.155879 260.521875 
L 414.552675 260.521875 
L 419.949471 260.521875 
L 425.346267 260.521875 
L 430.743063 260.521875 
L 436.139859 260.521875 
L 441.536655 260.521875 
L 446.933452 260.521875 
L 452.330248 260.521875 
L 457.727044 260.521875 
L 463.12384 260.521875 
L 468.520636 260.521875 
L 473.917432 260.521875 
L 479.314228 260.521875 
L 484.711025 260.521875 
L 490.107821 260.521875 
L 495.504617 260.521875 
L 500.901413 260.521875 
" clip-path="url(#p608c493fa7)" style="fill: none; stroke: #1f77b4; stroke-width: 1.5; stroke-linecap: square"/>
   </g>
   <g id="patch_23">
    <path d="M 51.2525 260.521875 
L 51.2525 40.95625 
" style="fill: none; stroke: #000000; stroke-width: 0.8; stroke-linejoin: miter; stroke-linecap: square"/>
   </g>
   <g id="patch_24">
    <path d="M 297.335417 260.521875 
L 297.335417 40.95625 
" style="fill: none; stroke: #000000; stroke-width: 0.8; stroke-linejoin: miter; stroke-linecap: square"/>
   </g>
   <g id="patch_25">
    <path d="M 51.2525 260.521875 
L 297.335417 260.521875 
" style="fill: none; stroke: #000000; stroke-width: 0.8; stroke-linejoin: miter; stroke-linecap: square"/>
   </g>
   <g id="patch_26">
    <path d="M 51.2525 40.95625 
L 297.335417 40.95625 
" style="fill: none; stroke: #000000; stroke-width: 0.8; stroke-linejoin: miter; stroke-linecap: square"/>
   </g>
   <g id="legend_1">
    <g id="patch_27">
     <path d="M 201.421667 68.17 
L 288.935417 68.17 
Q 291.335417 68.17 291.335417 65.77 
L 291.335417 49.35625 
Q 291.335417 46.95625 288.935417 46.95625 
L 201.421667 46.95625 
Q 199.021667 46.95625 199.021667 49.35625 
L 199.021667 65.77 
Q 199.021667 68.17 201.421667 68.17 
z
" style="fill: #ffffff; opacity: 0.8; stroke: #cccccc; stroke-linejoin: miter"/>
    </g>
    <g id="patch_28">
     <path d="M 203.821667 60.874375 
L 227.821667 60.874375 
L 227.821667 52.474375 
L 203.821667 52.474375 
z
" style="fill: #1f77b4; opacity: 0.4"/>
    </g>
    <g id="text_15">
     <!-- MCF10A -->
     <g transform="translate(237.421667 60.874375) scale(0.12 -0.12)">
      <defs>
       <path id="DejaVuSans-4d" d="M 628 4666 
L 1569 4666 
L 2759 1491 
L 3956 4666 
L 4897 4666 
L 4897 0 
L 4281 0 
L 4281 4097 
L 3078 897 
L 2444 897 
L 1241 4097 
L 1241 0 
L 628 0 
L 628 4666 
z
" transform="scale(0.015625)"/>
       <path id="DejaVuSans-43" d="M 4122 4306 
L 4122 3641 
Q 3803 3938 3442 4084 
Q 3081 4231 2675 4231 
Q 1875 4231 1450 3742 
Q 1025 3253 1025 2328 
Q 1025 1406 1450 917 
Q 1875 428 2675 428 
Q 3081 428 3442 575 
Q 3803 722 4122 1019 
L 4122 359 
Q 3791 134 3420 21 
Q 3050 -91 2638 -91 
Q 1578 -91 968 557 
Q 359 1206 359 2328 
Q 359 3453 968 4101 
Q 1578 4750 2638 4750 
Q 3056 4750 3426 4639 
Q 3797 4528 4122 4306 
z
" transform="scale(0.015625)"/>
       <path id="DejaVuSans-41" d="M 2188 4044 
L 1331 1722 
L 3047 1722 
L 2188 4044 
z
M 1831 4666 
L 2547 4666 
L 4325 0 
L 3669 0 
L 3244 1197 
L 1141 1197 
L 716 0 
L 50 0 
L 1831 4666 
z
" transform="scale(0.015625)"/>
      </defs>
      <use xlink:href="#DejaVuSans-4d"/>
      <use xlink:href="#DejaVuSans-43" x="86.279297"/>
      <use xlink:href="#DejaVuSans-46" x="156.103516"/>
      <use xlink:href="#DejaVuSans-31" x="213.623047"/>
      <use xlink:href="#DejaVuSans-30" x="277.246094"/>
      <use xlink:href="#DejaVuSans-41" x="340.869141"/>
     </g>
    </g>
   </g>
  </g>
  <g id="axes_2">
   <g id="patch_29">
    <path d="M 329.184792 260.521875 
L 575.267708 260.521875 
L 575.267708 40.95625 
L 329.184792 40.95625 
z
" style="fill: #ffffff"/>
   </g>
   <g id="patch_30">
    <path d="M 347.708286 260.521875 
L 359.086257 260.521875 
L 359.086257 160.719692 
L 347.708286 160.719692 
z
" clip-path="url(#p1ce7f88605)" style="fill: #ff7f0e; opacity: 0.4"/>
   </g>
   <g id="patch_31">
    <path d="M 359.086257 260.521875 
L 370.464228 260.521875 
L 370.464228 60.917508 
L 359.086257 60.917508 
z
" clip-path="url(#p1ce7f88605)" style="fill: #ff7f0e; opacity: 0.4"/>
   </g>
   <g id="patch_32">
    <path d="M 370.464228 260.521875 
L 381.842199 260.521875 
L 381.842199 66.788225 
L 370.464228 66.788225 
z
" clip-path="url(#p1ce7f88605)" style="fill: #ff7f0e; opacity: 0.4"/>
   </g>
   <g id="patch_33">
    <path d="M 381.842199 260.521875 
L 393.22017 260.521875 
L 393.22017 96.141808 
L 381.842199 96.141808 
z
" clip-path="url(#p1ce7f88605)" style="fill: #ff7f0e; opacity: 0.4"/>
   </g>
   <g id="patch_34">
    <path d="M 393.22017 260.521875 
L 404.598142 260.521875 
L 404.598142 102.012525 
L 393.22017 102.012525 
z
" clip-path="url(#p1ce7f88605)" style="fill: #ff7f0e; opacity: 0.4"/>
   </g>
   <g id="patch_35">
    <path d="M 404.598142 260.521875 
L 415.976113 260.521875 
L 415.976113 178.331842 
L 404.598142 178.331842 
z
" clip-path="url(#p1ce7f88605)" style="fill: #ff7f0e; opacity: 0.4"/>
   </g>
   <g id="patch_36">
    <path d="M 415.976113 260.521875 
L 427.354084 260.521875 
L 427.354084 195.943992 
L 415.976113 195.943992 
z
" clip-path="url(#p1ce7f88605)" style="fill: #ff7f0e; opacity: 0.4"/>
   </g>
   <g id="patch_37">
    <path d="M 427.354084 260.521875 
L 438.732055 260.521875 
L 438.732055 195.943992 
L 427.354084 195.943992 
z
" clip-path="url(#p1ce7f88605)" style="fill: #ff7f0e; opacity: 0.4"/>
   </g>
   <g id="patch_38">
    <path d="M 438.732055 260.521875 
L 450.110026 260.521875 
L 450.110026 172.461125 
L 438.732055 172.461125 
z
" clip-path="url(#p1ce7f88605)" style="fill: #ff7f0e; opacity: 0.4"/>
   </g>
   <g id="patch_39">
    <path d="M 450.110026 260.521875 
L 461.487997 260.521875 
L 461.487997 207.685425 
L 450.110026 207.685425 
z
" clip-path="url(#p1ce7f88605)" style="fill: #ff7f0e; opacity: 0.4"/>
   </g>
   <g id="patch_40">
    <path d="M 461.487997 260.521875 
L 472.865968 260.521875 
L 472.865968 213.556142 
L 461.487997 213.556142 
z
" clip-path="url(#p1ce7f88605)" style="fill: #ff7f0e; opacity: 0.4"/>
   </g>
   <g id="patch_41">
    <path d="M 472.865968 260.521875 
L 484.243939 260.521875 
L 484.243939 225.297575 
L 472.865968 225.297575 
z
" clip-path="url(#p1ce7f88605)" style="fill: #ff7f0e; opacity: 0.4"/>
   </g>
   <g id="patch_42">
    <path d="M 484.243939 260.521875 
L 495.621911 260.521875 
L 495.621911 248.780442 
L 484.243939 248.780442 
z
" clip-path="url(#p1ce7f88605)" style="fill: #ff7f0e; opacity: 0.4"/>
   </g>
   <g id="patch_43">
    <path d="M 495.621911 260.521875 
L 506.999882 260.521875 
L 506.999882 248.780442 
L 495.621911 248.780442 
z
" clip-path="url(#p1ce7f88605)" style="fill: #ff7f0e; opacity: 0.4"/>
   </g>
   <g id="patch_44">
    <path d="M 506.999882 260.521875 
L 518.377853 260.521875 
L 518.377853 254.651158 
L 506.999882 254.651158 
z
" clip-path="url(#p1ce7f88605)" style="fill: #ff7f0e; opacity: 0.4"/>
   </g>
   <g id="patch_45">
    <path d="M 518.377853 260.521875 
L 529.755824 260.521875 
L 529.755824 237.039008 
L 518.377853 237.039008 
z
" clip-path="url(#p1ce7f88605)" style="fill: #ff7f0e; opacity: 0.4"/>
   </g>
   <g id="patch_46">
    <path d="M 529.755824 260.521875 
L 541.133795 260.521875 
L 541.133795 260.521875 
L 529.755824 260.521875 
z
" clip-path="url(#p1ce7f88605)" style="fill: #ff7f0e; opacity: 0.4"/>
   </g>
   <g id="patch_47">
    <path d="M 541.133795 260.521875 
L 552.511766 260.521875 
L 552.511766 254.651158 
L 541.133795 254.651158 
z
" clip-path="url(#p1ce7f88605)" style="fill: #ff7f0e; opacity: 0.4"/>
   </g>
   <g id="patch_48">
    <path d="M 552.511766 260.521875 
L 563.889737 260.521875 
L 563.889737 254.651158 
L 552.511766 254.651158 
z
" clip-path="url(#p1ce7f88605)" style="fill: #ff7f0e; opacity: 0.4"/>
   </g>
   <g id="patch_49">
    <path d="M 563.889737 260.521875 
L 575.267708 260.521875 
L 575.267708 254.651158 
L 563.889737 254.651158 
z
" clip-path="url(#p1ce7f88605)" style="fill: #ff7f0e; opacity: 0.4"/>
   </g>
   <g id="matplotlib.axis_3">
    <g id="xtick_6">
     <g id="line2d_15">
      <g>
       <use xlink:href="#mb202bee9f5" x="351.40745" y="260.521875" style="stroke: #000000; stroke-width: 0.8"/>
      </g>
     </g>
     <g id="text_16">
      <!-- 0.4 -->
      <g transform="translate(343.455888 275.120313) scale(0.1 -0.1)">
       <use xlink:href="#DejaVuSans-30"/>
       <use xlink:href="#DejaVuSans-2e" x="63.623047"/>
       <use xlink:href="#DejaVuSans-34" x="95.410156"/>
      </g>
     </g>
    </g>
    <g id="xtick_7">
     <g id="line2d_16">
      <g>
       <use xlink:href="#mb202bee9f5" x="404.835732" y="260.521875" style="stroke: #000000; stroke-width: 0.8"/>
      </g>
     </g>
     <g id="text_17">
      <!-- 0.6 -->
      <g transform="translate(396.88417 275.120313) scale(0.1 -0.1)">
       <use xlink:href="#DejaVuSans-30"/>
       <use xlink:href="#DejaVuSans-2e" x="63.623047"/>
       <use xlink:href="#DejaVuSans-36" x="95.410156"/>
      </g>
     </g>
    </g>
    <g id="xtick_8">
     <g id="line2d_17">
      <g>
       <use xlink:href="#mb202bee9f5" x="458.264014" y="260.521875" style="stroke: #000000; stroke-width: 0.8"/>
      </g>
     </g>
     <g id="text_18">
      <!-- 0.8 -->
      <g transform="translate(450.312451 275.120313) scale(0.1 -0.1)">
       <use xlink:href="#DejaVuSans-30"/>
       <use xlink:href="#DejaVuSans-2e" x="63.623047"/>
       <use xlink:href="#DejaVuSans-38" x="95.410156"/>
      </g>
     </g>
    </g>
    <g id="xtick_9">
     <g id="line2d_18">
      <g>
       <use xlink:href="#mb202bee9f5" x="511.692296" y="260.521875" style="stroke: #000000; stroke-width: 0.8"/>
      </g>
     </g>
     <g id="text_19">
      <!-- 1.0 -->
      <g transform="translate(503.740733 275.120313) scale(0.1 -0.1)">
       <use xlink:href="#DejaVuSans-31"/>
       <use xlink:href="#DejaVuSans-2e" x="63.623047"/>
       <use xlink:href="#DejaVuSans-30" x="95.410156"/>
      </g>
     </g>
    </g>
    <g id="xtick_10">
     <g id="line2d_19">
      <g>
       <use xlink:href="#mb202bee9f5" x="565.120578" y="260.521875" style="stroke: #000000; stroke-width: 0.8"/>
      </g>
     </g>
     <g id="text_20">
      <!-- 1.2 -->
      <g transform="translate(557.169015 275.120313) scale(0.1 -0.1)">
       <use xlink:href="#DejaVuSans-31"/>
       <use xlink:href="#DejaVuSans-2e" x="63.623047"/>
       <use xlink:href="#DejaVuSans-32" x="95.410156"/>
      </g>
     </g>
    </g>
   </g>
   <g id="matplotlib.axis_4">
    <g id="ytick_9">
     <g id="line2d_20">
      <g>
       <use xlink:href="#mc0e4a1bb0d" x="329.184792" y="260.521875" style="stroke: #000000; stroke-width: 0.8"/>
      </g>
     </g>
    </g>
    <g id="ytick_10">
     <g id="line2d_21">
      <g>
       <use xlink:href="#mc0e4a1bb0d" x="329.184792" y="232.392035" style="stroke: #000000; stroke-width: 0.8"/>
      </g>
     </g>
    </g>
    <g id="ytick_11">
     <g id="line2d_22">
      <g>
       <use xlink:href="#mc0e4a1bb0d" x="329.184792" y="204.262195" style="stroke: #000000; stroke-width: 0.8"/>
      </g>
     </g>
    </g>
    <g id="ytick_12">
     <g id="line2d_23">
      <g>
       <use xlink:href="#mc0e4a1bb0d" x="329.184792" y="176.132356" style="stroke: #000000; stroke-width: 0.8"/>
      </g>
     </g>
    </g>
    <g id="ytick_13">
     <g id="line2d_24">
      <g>
       <use xlink:href="#mc0e4a1bb0d" x="329.184792" y="148.002516" style="stroke: #000000; stroke-width: 0.8"/>
      </g>
     </g>
    </g>
    <g id="ytick_14">
     <g id="line2d_25">
      <g>
       <use xlink:href="#mc0e4a1bb0d" x="329.184792" y="119.872676" style="stroke: #000000; stroke-width: 0.8"/>
      </g>
     </g>
    </g>
    <g id="ytick_15">
     <g id="line2d_26">
      <g>
       <use xlink:href="#mc0e4a1bb0d" x="329.184792" y="91.742836" style="stroke: #000000; stroke-width: 0.8"/>
      </g>
     </g>
    </g>
    <g id="ytick_16">
     <g id="line2d_27">
      <g>
       <use xlink:href="#mc0e4a1bb0d" x="329.184792" y="63.612997" style="stroke: #000000; stroke-width: 0.8"/>
      </g>
     </g>
    </g>
    <g id="text_21">
     <!-- Fraction of cells -->
     <g transform="translate(318.773229 205.570937) rotate(-90) scale(0.14 -0.14)">
      <use xlink:href="#DejaVuSans-46"/>
      <use xlink:href="#DejaVuSans-72" x="50.269531"/>
      <use xlink:href="#DejaVuSans-61" x="91.382812"/>
      <use xlink:href="#DejaVuSans-63" x="152.662109"/>
      <use xlink:href="#DejaVuSans-74" x="207.642578"/>
      <use xlink:href="#DejaVuSans-69" x="246.851562"/>
      <use xlink:href="#DejaVuSans-6f" x="274.634766"/>
      <use xlink:href="#DejaVuSans-6e" x="335.816406"/>
      <use xlink:href="#DejaVuSans-20" x="399.195312"/>
      <use xlink:href="#DejaVuSans-6f" x="430.982422"/>
      <use xlink:href="#DejaVuSans-66" x="492.164062"/>
      <use xlink:href="#DejaVuSans-20" x="527.369141"/>
      <use xlink:href="#DejaVuSans-63" x="559.15625"/>
      <use xlink:href="#DejaVuSans-65" x="614.136719"/>
      <use xlink:href="#DejaVuSans-6c" x="675.660156"/>
      <use xlink:href="#DejaVuSans-6c" x="703.443359"/>
      <use xlink:href="#DejaVuSans-73" x="731.226562"/>
     </g>
    </g>
   </g>
   <g id="line2d_28">
    <path d="M 244.550887 260.521875 
L 249.947683 260.521875 
L 255.344479 260.521875 
L 260.741275 260.521875 
L 266.138071 260.521873 
L 271.534867 260.521862 
L 276.931664 260.521788 
L 282.32846 260.521376 
L 287.725256 260.519347 
L 293.122052 260.510541 
L 298.518848 260.476888 
L 303.915644 260.363479 
L 309.31244 260.0262 
L 314.709237 259.14016 
L 320.106033 257.082358 
L 325.502829 252.854273 
L 330.899625 245.165056 
L 336.296421 232.785269 
L 341.693217 215.140627 
L 347.090013 192.884691 
L 352.48681 168.057292 
L 357.883606 143.601973 
L 363.280402 122.440434 
L 368.677198 106.638189 
L 374.073994 97.106149 
L 379.47079 93.838091 
L 384.867586 96.317947 
L 390.264383 103.753797 
L 395.661179 115.082552 
L 401.057975 128.911689 
L 406.454771 143.575601 
L 411.851567 157.369957 
L 417.248363 168.906723 
L 422.645159 177.453941 
L 428.041956 183.106412 
L 433.438752 186.688123 
L 438.835548 189.400557 
L 444.232344 192.359302 
L 449.62914 196.236599 
L 455.025936 201.176225 
L 460.422732 206.968476 
L 465.819529 213.298871 
L 471.216325 219.876651 
L 476.613121 226.409778 
L 482.009917 232.545452 
L 487.406713 237.892097 
L 492.803509 242.123895 
L 498.200305 245.090867 
L 503.597102 246.877125 
L 508.993898 247.796235 
L 514.390694 248.317563 
L 519.78749 248.915688 
L 525.184286 249.886056 
L 530.581082 251.235105 
L 535.977878 252.730401 
L 541.374675 254.076947 
L 546.771471 255.089129 
L 552.168267 255.752886 
L 557.565063 256.178356 
L 562.961859 256.514478 
L 568.358655 256.885319 
L 573.755451 257.359945 
L 579.152247 257.943413 
L 584.549044 258.583684 
L 589.94584 259.197371 
L 595.342636 259.707771 
L 600.739432 260.075394 
L 606.136228 260.30465 
L 611.533024 260.428501 
L 616.92982 260.486514 
L 622.326617 260.5101 
L 627.723413 260.518432 
L 633.120209 260.520992 
L 638.517005 260.521676 
L 643.913801 260.521836 
L 649.310597 260.521868 
L 654.707393 260.521874 
L 660.10419 260.521875 
L 665.500986 260.521875 
L 670.897782 260.521875 
L 676.294578 260.521875 
L 681.691374 260.521875 
L 687.08817 260.521875 
L 692.484966 260.521875 
L 697.881763 260.521875 
L 703.278559 260.521875 
L 708.675355 260.521875 
L 714.072151 260.521875 
L 719.468947 260.521875 
L 724.865743 260.521875 
L 730.262539 260.521875 
L 735.659336 260.521875 
L 741.056132 260.521875 
L 746.452928 260.521875 
L 751.849724 260.521875 
L 757.24652 260.521875 
L 762.643316 260.521875 
L 768.040112 260.521875 
L 773.436909 260.521875 
L 778.833705 260.521875 
" clip-path="url(#p1ce7f88605)" style="fill: none; stroke: #ff7f0e; stroke-width: 1.5; stroke-linecap: square"/>
   </g>
   <g id="patch_50">
    <path d="M 329.184792 260.521875 
L 329.184792 40.95625 
" style="fill: none; stroke: #000000; stroke-width: 0.8; stroke-linejoin: miter; stroke-linecap: square"/>
   </g>
   <g id="patch_51">
    <path d="M 575.267708 260.521875 
L 575.267708 40.95625 
" style="fill: none; stroke: #000000; stroke-width: 0.8; stroke-linejoin: miter; stroke-linecap: square"/>
   </g>
   <g id="patch_52">
    <path d="M 329.184792 260.521875 
L 575.267708 260.521875 
" style="fill: none; stroke: #000000; stroke-width: 0.8; stroke-linejoin: miter; stroke-linecap: square"/>
   </g>
   <g id="patch_53">
    <path d="M 329.184792 40.95625 
L 575.267708 40.95625 
" style="fill: none; stroke: #000000; stroke-width: 0.8; stroke-linejoin: miter; stroke-linecap: square"/>
   </g>
   <g id="legend_2">
    <g id="patch_54">
     <path d="M 495.197708 68.17 
L 566.867708 68.17 
Q 569.267708 68.17 569.267708 65.77 
L 569.267708 49.35625 
Q 569.267708 46.95625 566.867708 46.95625 
L 495.197708 46.95625 
Q 492.797708 46.95625 492.797708 49.35625 
L 492.797708 65.77 
Q 492.797708 68.17 495.197708 68.17 
z
" style="fill: #ffffff; opacity: 0.8; stroke: #cccccc; stroke-linejoin: miter"/>
    </g>
    <g id="patch_55">
     <path d="M 497.597708 60.874375 
L 521.597708 60.874375 
L 521.597708 52.474375 
L 497.597708 52.474375 
z
" style="fill: #ff7f0e; opacity: 0.4"/>
    </g>
    <g id="text_22">
     <!-- MCF7 -->
     <g transform="translate(531.197708 60.874375) scale(0.12 -0.12)">
      <defs>
       <path id="DejaVuSans-37" d="M 525 4666 
L 3525 4666 
L 3525 4397 
L 1831 0 
L 1172 0 
L 2766 4134 
L 525 4134 
L 525 4666 
z
" transform="scale(0.015625)"/>
      </defs>
      <use xlink:href="#DejaVuSans-4d"/>
      <use xlink:href="#DejaVuSans-43" x="86.279297"/>
      <use xlink:href="#DejaVuSans-46" x="156.103516"/>
      <use xlink:href="#DejaVuSans-37" x="213.623047"/>
     </g>
    </g>
   </g>
  </g>
  <g id="axes_3">
   <g id="patch_56">
    <path d="M 607.117083 260.521875 
L 853.2 260.521875 
L 853.2 40.95625 
L 607.117083 40.95625 
z
" style="fill: #ffffff"/>
   </g>
   <g id="patch_57">
    <path d="M 624.916044 260.521875 
L 632.853564 260.521875 
L 632.853564 218.257386 
L 624.916044 218.257386 
z
" clip-path="url(#p529679a583)" style="fill: #2ca02c; opacity: 0.4"/>
   </g>
   <g id="patch_58">
    <path d="M 632.853564 260.521875 
L 640.791084 260.521875 
L 640.791084 159.087101 
L 632.853564 159.087101 
z
" clip-path="url(#p529679a583)" style="fill: #2ca02c; opacity: 0.4"/>
   </g>
   <g id="patch_59">
    <path d="M 640.791084 260.521875 
L 648.728604 260.521875 
L 648.728604 159.087101 
L 640.791084 159.087101 
z
" clip-path="url(#p529679a583)" style="fill: #2ca02c; opacity: 0.4"/>
   </g>
   <g id="patch_60">
    <path d="M 648.728604 260.521875 
L 656.666124 260.521875 
L 656.666124 125.275509 
L 648.728604 125.275509 
z
" clip-path="url(#p529679a583)" style="fill: #2ca02c; opacity: 0.4"/>
   </g>
   <g id="patch_61">
    <path d="M 656.666124 260.521875 
L 664.603643 260.521875 
L 664.603643 133.728407 
L 656.666124 133.728407 
z
" clip-path="url(#p529679a583)" style="fill: #2ca02c; opacity: 0.4"/>
   </g>
   <g id="patch_62">
    <path d="M 664.603643 260.521875 
L 672.541163 260.521875 
L 672.541163 116.822611 
L 664.603643 116.822611 
z
" clip-path="url(#p529679a583)" style="fill: #2ca02c; opacity: 0.4"/>
   </g>
   <g id="patch_63">
    <path d="M 672.541163 260.521875 
L 680.478683 260.521875 
L 680.478683 74.558122 
L 672.541163 74.558122 
z
" clip-path="url(#p529679a583)" style="fill: #2ca02c; opacity: 0.4"/>
   </g>
   <g id="patch_64">
    <path d="M 680.478683 260.521875 
L 688.416203 260.521875 
L 688.416203 57.652327 
L 680.478683 57.652327 
z
" clip-path="url(#p529679a583)" style="fill: #2ca02c; opacity: 0.4"/>
   </g>
   <g id="patch_65">
    <path d="M 688.416203 260.521875 
L 696.353723 260.521875 
L 696.353723 91.463918 
L 688.416203 91.463918 
z
" clip-path="url(#p529679a583)" style="fill: #2ca02c; opacity: 0.4"/>
   </g>
   <g id="patch_66">
    <path d="M 696.353723 260.521875 
L 704.291243 260.521875 
L 704.291243 116.822611 
L 696.353723 116.822611 
z
" clip-path="url(#p529679a583)" style="fill: #2ca02c; opacity: 0.4"/>
   </g>
   <g id="patch_67">
    <path d="M 704.291243 260.521875 
L 712.228763 260.521875 
L 712.228763 133.728407 
L 704.291243 133.728407 
z
" clip-path="url(#p529679a583)" style="fill: #2ca02c; opacity: 0.4"/>
   </g>
   <g id="patch_68">
    <path d="M 712.228763 260.521875 
L 720.166283 260.521875 
L 720.166283 175.992896 
L 712.228763 175.992896 
z
" clip-path="url(#p529679a583)" style="fill: #2ca02c; opacity: 0.4"/>
   </g>
   <g id="patch_69">
    <path d="M 720.166283 260.521875 
L 728.103803 260.521875 
L 728.103803 167.539999 
L 720.166283 167.539999 
z
" clip-path="url(#p529679a583)" style="fill: #2ca02c; opacity: 0.4"/>
   </g>
   <g id="patch_70">
    <path d="M 728.103803 260.521875 
L 736.041323 260.521875 
L 736.041323 159.087101 
L 728.103803 159.087101 
z
" clip-path="url(#p529679a583)" style="fill: #2ca02c; opacity: 0.4"/>
   </g>
   <g id="patch_71">
    <path d="M 736.041323 260.521875 
L 743.978842 260.521875 
L 743.978842 235.163181 
L 736.041323 235.163181 
z
" clip-path="url(#p529679a583)" style="fill: #2ca02c; opacity: 0.4"/>
   </g>
   <g id="patch_72">
    <path d="M 743.978842 260.521875 
L 751.916362 260.521875 
L 751.916362 243.616079 
L 743.978842 243.616079 
z
" clip-path="url(#p529679a583)" style="fill: #2ca02c; opacity: 0.4"/>
   </g>
   <g id="patch_73">
    <path d="M 751.916362 260.521875 
L 759.853882 260.521875 
L 759.853882 226.710284 
L 751.916362 226.710284 
z
" clip-path="url(#p529679a583)" style="fill: #2ca02c; opacity: 0.4"/>
   </g>
   <g id="patch_74">
    <path d="M 759.853882 260.521875 
L 767.791402 260.521875 
L 767.791402 243.616079 
L 759.853882 243.616079 
z
" clip-path="url(#p529679a583)" style="fill: #2ca02c; opacity: 0.4"/>
   </g>
   <g id="patch_75">
    <path d="M 767.791402 260.521875 
L 775.728922 260.521875 
L 775.728922 243.616079 
L 767.791402 243.616079 
z
" clip-path="url(#p529679a583)" style="fill: #2ca02c; opacity: 0.4"/>
   </g>
   <g id="patch_76">
    <path d="M 775.728922 260.521875 
L 783.666442 260.521875 
L 783.666442 235.163181 
L 775.728922 235.163181 
z
" clip-path="url(#p529679a583)" style="fill: #2ca02c; opacity: 0.4"/>
   </g>
   <g id="matplotlib.axis_5">
    <g id="xtick_11">
     <g id="line2d_29">
      <g>
       <use xlink:href="#mb202bee9f5" x="629.339742" y="260.521875" style="stroke: #000000; stroke-width: 0.8"/>
      </g>
     </g>
     <g id="text_23">
      <!-- 0.4 -->
      <g transform="translate(621.38818 275.120313) scale(0.1 -0.1)">
       <use xlink:href="#DejaVuSans-30"/>
       <use xlink:href="#DejaVuSans-2e" x="63.623047"/>
       <use xlink:href="#DejaVuSans-34" x="95.410156"/>
      </g>
     </g>
    </g>
    <g id="xtick_12">
     <g id="line2d_30">
      <g>
       <use xlink:href="#mb202bee9f5" x="682.768024" y="260.521875" style="stroke: #000000; stroke-width: 0.8"/>
      </g>
     </g>
     <g id="text_24">
      <!-- 0.6 -->
      <g transform="translate(674.816461 275.120313) scale(0.1 -0.1)">
       <use xlink:href="#DejaVuSans-30"/>
       <use xlink:href="#DejaVuSans-2e" x="63.623047"/>
       <use xlink:href="#DejaVuSans-36" x="95.410156"/>
      </g>
     </g>
    </g>
    <g id="xtick_13">
     <g id="line2d_31">
      <g>
       <use xlink:href="#mb202bee9f5" x="736.196306" y="260.521875" style="stroke: #000000; stroke-width: 0.8"/>
      </g>
     </g>
     <g id="text_25">
      <!-- 0.8 -->
      <g transform="translate(728.244743 275.120313) scale(0.1 -0.1)">
       <use xlink:href="#DejaVuSans-30"/>
       <use xlink:href="#DejaVuSans-2e" x="63.623047"/>
       <use xlink:href="#DejaVuSans-38" x="95.410156"/>
      </g>
     </g>
    </g>
    <g id="xtick_14">
     <g id="line2d_32">
      <g>
       <use xlink:href="#mb202bee9f5" x="789.624587" y="260.521875" style="stroke: #000000; stroke-width: 0.8"/>
      </g>
     </g>
     <g id="text_26">
      <!-- 1.0 -->
      <g transform="translate(781.673025 275.120313) scale(0.1 -0.1)">
       <use xlink:href="#DejaVuSans-31"/>
       <use xlink:href="#DejaVuSans-2e" x="63.623047"/>
       <use xlink:href="#DejaVuSans-30" x="95.410156"/>
      </g>
     </g>
    </g>
    <g id="xtick_15">
     <g id="line2d_33">
      <g>
       <use xlink:href="#mb202bee9f5" x="843.052869" y="260.521875" style="stroke: #000000; stroke-width: 0.8"/>
      </g>
     </g>
     <g id="text_27">
      <!-- 1.2 -->
      <g transform="translate(835.101307 275.120313) scale(0.1 -0.1)">
       <use xlink:href="#DejaVuSans-31"/>
       <use xlink:href="#DejaVuSans-2e" x="63.623047"/>
       <use xlink:href="#DejaVuSans-32" x="95.410156"/>
      </g>
     </g>
    </g>
   </g>
   <g id="matplotlib.axis_6">
    <g id="ytick_17">
     <g id="line2d_34">
      <g>
       <use xlink:href="#mc0e4a1bb0d" x="607.117083" y="260.521875" style="stroke: #000000; stroke-width: 0.8"/>
      </g>
     </g>
    </g>
    <g id="ytick_18">
     <g id="line2d_35">
      <g>
       <use xlink:href="#mc0e4a1bb0d" x="607.117083" y="232.392035" style="stroke: #000000; stroke-width: 0.8"/>
      </g>
     </g>
    </g>
    <g id="ytick_19">
     <g id="line2d_36">
      <g>
       <use xlink:href="#mc0e4a1bb0d" x="607.117083" y="204.262195" style="stroke: #000000; stroke-width: 0.8"/>
      </g>
     </g>
    </g>
    <g id="ytick_20">
     <g id="line2d_37">
      <g>
       <use xlink:href="#mc0e4a1bb0d" x="607.117083" y="176.132356" style="stroke: #000000; stroke-width: 0.8"/>
      </g>
     </g>
    </g>
    <g id="ytick_21">
     <g id="line2d_38">
      <g>
       <use xlink:href="#mc0e4a1bb0d" x="607.117083" y="148.002516" style="stroke: #000000; stroke-width: 0.8"/>
      </g>
     </g>
    </g>
    <g id="ytick_22">
     <g id="line2d_39">
      <g>
       <use xlink:href="#mc0e4a1bb0d" x="607.117083" y="119.872676" style="stroke: #000000; stroke-width: 0.8"/>
      </g>
     </g>
    </g>
    <g id="ytick_23">
     <g id="line2d_40">
      <g>
       <use xlink:href="#mc0e4a1bb0d" x="607.117083" y="91.742836" style="stroke: #000000; stroke-width: 0.8"/>
      </g>
     </g>
    </g>
    <g id="ytick_24">
     <g id="line2d_41">
      <g>
       <use xlink:href="#mc0e4a1bb0d" x="607.117083" y="63.612997" style="stroke: #000000; stroke-width: 0.8"/>
      </g>
     </g>
    </g>
    <g id="text_28">
     <!-- Fraction of cells -->
     <g transform="translate(596.705521 205.570937) rotate(-90) scale(0.14 -0.14)">
      <use xlink:href="#DejaVuSans-46"/>
      <use xlink:href="#DejaVuSans-72" x="50.269531"/>
      <use xlink:href="#DejaVuSans-61" x="91.382812"/>
      <use xlink:href="#DejaVuSans-63" x="152.662109"/>
      <use xlink:href="#DejaVuSans-74" x="207.642578"/>
      <use xlink:href="#DejaVuSans-69" x="246.851562"/>
      <use xlink:href="#DejaVuSans-6f" x="274.634766"/>
      <use xlink:href="#DejaVuSans-6e" x="335.816406"/>
      <use xlink:href="#DejaVuSans-20" x="399.195312"/>
      <use xlink:href="#DejaVuSans-6f" x="430.982422"/>
      <use xlink:href="#DejaVuSans-66" x="492.164062"/>
      <use xlink:href="#DejaVuSans-20" x="527.369141"/>
      <use xlink:href="#DejaVuSans-63" x="559.15625"/>
      <use xlink:href="#DejaVuSans-65" x="614.136719"/>
      <use xlink:href="#DejaVuSans-6c" x="675.660156"/>
      <use xlink:href="#DejaVuSans-6c" x="703.443359"/>
      <use xlink:href="#DejaVuSans-73" x="731.226562"/>
     </g>
    </g>
   </g>
   <g id="line2d_42">
    <path d="M 522.483178 260.521875 
L 527.879975 260.521875 
L 533.276771 260.521875 
L 538.673567 260.521875 
L 544.070363 260.521875 
L 549.467159 260.521875 
L 554.863955 260.521875 
L 560.260751 260.521875 
L 565.657548 260.52187 
L 571.054344 260.521821 
L 576.45114 260.521369 
L 581.847936 260.518072 
L 587.244732 260.498699 
L 592.641528 260.406914 
L 598.038324 260.055055 
L 603.435121 258.958638 
L 608.831917 256.164812 
L 614.228713 250.299009 
L 619.625509 240.057313 
L 625.022305 225.022455 
L 630.419101 206.2297 
L 635.815897 185.962352 
L 641.212694 166.88538 
L 646.60949 151.034123 
L 652.006286 138.959607 
L 657.403082 129.322962 
L 662.799878 119.650425 
L 668.196674 108.359559 
L 673.59347 96.513172 
L 678.990267 87.513027 
L 684.387063 84.844853 
L 689.783859 89.76313 
L 695.180655 100.743129 
L 700.577451 114.882226 
L 705.974247 129.696535 
L 711.371043 143.806839 
L 716.767839 156.725007 
L 722.164636 168.762876 
L 727.561432 180.945909 
L 732.958228 194.122105 
L 738.355024 207.758867 
L 743.75182 219.972105 
L 749.148616 229.048809 
L 754.545412 234.822074 
L 759.942209 238.45216 
L 765.339005 241.15324 
L 770.735801 243.491092 
L 776.132597 245.742715 
L 781.529393 248.295501 
L 786.926189 251.360693 
L 792.322985 254.588015 
L 797.719782 257.303632 
L 803.116578 259.087721 
L 808.513374 260.002348 
L 813.91017 260.369832 
L 819.306966 260.486061 
L 824.703762 260.515101 
L 830.100558 260.520848 
L 835.497355 260.52175 
L 840.894151 260.521863 
L 846.290947 260.521874 
L 851.687743 260.521875 
L 857.084539 260.521875 
L 862.481335 260.521875 
L 865 260.521875 
" clip-path="url(#p529679a583)" style="fill: none; stroke: #2ca02c; stroke-width: 1.5; stroke-linecap: square"/>
   </g>
   <g id="patch_77">
    <path d="M 607.117083 260.521875 
L 607.117083 40.95625 
" style="fill: none; stroke: #000000; stroke-width: 0.8; stroke-linejoin: miter; stroke-linecap: square"/>
   </g>
   <g id="patch_78">
    <path d="M 853.2 260.521875 
L 853.2 40.95625 
" style="fill: none; stroke: #000000; stroke-width: 0.8; stroke-linejoin: miter; stroke-linecap: square"/>
   </g>
   <g id="patch_79">
    <path d="M 607.117083 260.521875 
L 853.2 260.521875 
" style="fill: none; stroke: #000000; stroke-width: 0.8; stroke-linejoin: miter; stroke-linecap: square"/>
   </g>
   <g id="patch_80">
    <path d="M 607.117083 40.95625 
L 853.2 40.95625 
" style="fill: none; stroke: #000000; stroke-width: 0.8; stroke-linejoin: miter; stroke-linecap: square"/>
   </g>
   <g id="legend_3">
    <g id="patch_81">
     <path d="M 725.315625 68.50375 
L 844.8 68.50375 
Q 847.2 68.50375 847.2 66.10375 
L 847.2 49.35625 
Q 847.2 46.95625 844.8 46.95625 
L 725.315625 46.95625 
Q 722.915625 46.95625 722.915625 49.35625 
L 722.915625 66.10375 
Q 722.915625 68.50375 725.315625 68.50375 
z
" style="fill: #ffffff; opacity: 0.8; stroke: #cccccc; stroke-linejoin: miter"/>
    </g>
    <g id="patch_82">
     <path d="M 727.715625 60.874375 
L 751.715625 60.874375 
L 751.715625 52.474375 
L 727.715625 52.474375 
z
" style="fill: #2ca02c; opacity: 0.4"/>
    </g>
    <g id="text_29">
     <!-- MDA_MB_231 -->
     <g transform="translate(761.315625 60.874375) scale(0.12 -0.12)">
      <defs>
       <path id="DejaVuSans-44" d="M 1259 4147 
L 1259 519 
L 2022 519 
Q 2988 519 3436 956 
Q 3884 1394 3884 2338 
Q 3884 3275 3436 3711 
Q 2988 4147 2022 4147 
L 1259 4147 
z
M 628 4666 
L 1925 4666 
Q 3281 4666 3915 4102 
Q 4550 3538 4550 2338 
Q 4550 1131 3912 565 
Q 3275 0 1925 0 
L 628 0 
L 628 4666 
z
" transform="scale(0.015625)"/>
       <path id="DejaVuSans-5f" d="M 3263 -1063 
L 3263 -1509 
L -63 -1509 
L -63 -1063 
L 3263 -1063 
z
" transform="scale(0.015625)"/>
       <path id="DejaVuSans-42" d="M 1259 2228 
L 1259 519 
L 2272 519 
Q 2781 519 3026 730 
Q 3272 941 3272 1375 
Q 3272 1813 3026 2020 
Q 2781 2228 2272 2228 
L 1259 2228 
z
M 1259 4147 
L 1259 2741 
L 2194 2741 
Q 2656 2741 2882 2914 
Q 3109 3088 3109 3444 
Q 3109 3797 2882 3972 
Q 2656 4147 2194 4147 
L 1259 4147 
z
M 628 4666 
L 2241 4666 
Q 2963 4666 3353 4366 
Q 3744 4066 3744 3513 
Q 3744 3084 3544 2831 
Q 3344 2578 2956 2516 
Q 3422 2416 3680 2098 
Q 3938 1781 3938 1306 
Q 3938 681 3513 340 
Q 3088 0 2303 0 
L 628 0 
L 628 4666 
z
" transform="scale(0.015625)"/>
      </defs>
      <use xlink:href="#DejaVuSans-4d"/>
      <use xlink:href="#DejaVuSans-44" x="86.279297"/>
      <use xlink:href="#DejaVuSans-41" x="161.53125"/>
      <use xlink:href="#DejaVuSans-5f" x="229.939453"/>
      <use xlink:href="#DejaVuSans-4d" x="279.939453"/>
      <use xlink:href="#DejaVuSans-42" x="366.21875"/>
      <use xlink:href="#DejaVuSans-5f" x="434.822266"/>
      <use xlink:href="#DejaVuSans-32" x="484.822266"/>
      <use xlink:href="#DejaVuSans-33" x="548.445312"/>
      <use xlink:href="#DejaVuSans-31" x="612.068359"/>
     </g>
    </g>
   </g>
  </g>
  <g id="text_30">
   <!-- Histograms of SRV distances (a=1, b=0.5) to global mean cell -->
   <g transform="translate(120.914062 20.956875) scale(0.2 -0.2)">
    <defs>
     <path id="DejaVuSans-48" d="M 628 4666 
L 1259 4666 
L 1259 2753 
L 3553 2753 
L 3553 4666 
L 4184 4666 
L 4184 0 
L 3553 0 
L 3553 2222 
L 1259 2222 
L 1259 0 
L 628 0 
L 628 4666 
z
" transform="scale(0.015625)"/>
     <path id="DejaVuSans-67" d="M 2906 1791 
Q 2906 2416 2648 2759 
Q 2391 3103 1925 3103 
Q 1463 3103 1205 2759 
Q 947 2416 947 1791 
Q 947 1169 1205 825 
Q 1463 481 1925 481 
Q 2391 481 2648 825 
Q 2906 1169 2906 1791 
z
M 3481 434 
Q 3481 -459 3084 -895 
Q 2688 -1331 1869 -1331 
Q 1566 -1331 1297 -1286 
Q 1028 -1241 775 -1147 
L 775 -588 
Q 1028 -725 1275 -790 
Q 1522 -856 1778 -856 
Q 2344 -856 2625 -561 
Q 2906 -266 2906 331 
L 2906 616 
Q 2728 306 2450 153 
Q 2172 0 1784 0 
Q 1141 0 747 490 
Q 353 981 353 1791 
Q 353 2603 747 3093 
Q 1141 3584 1784 3584 
Q 2172 3584 2450 3431 
Q 2728 3278 2906 2969 
L 2906 3500 
L 3481 3500 
L 3481 434 
z
" transform="scale(0.015625)"/>
     <path id="DejaVuSans-6d" d="M 3328 2828 
Q 3544 3216 3844 3400 
Q 4144 3584 4550 3584 
Q 5097 3584 5394 3201 
Q 5691 2819 5691 2113 
L 5691 0 
L 5113 0 
L 5113 2094 
Q 5113 2597 4934 2840 
Q 4756 3084 4391 3084 
Q 3944 3084 3684 2787 
Q 3425 2491 3425 1978 
L 3425 0 
L 2847 0 
L 2847 2094 
Q 2847 2600 2669 2842 
Q 2491 3084 2119 3084 
Q 1678 3084 1418 2786 
Q 1159 2488 1159 1978 
L 1159 0 
L 581 0 
L 581 3500 
L 1159 3500 
L 1159 2956 
Q 1356 3278 1631 3431 
Q 1906 3584 2284 3584 
Q 2666 3584 2933 3390 
Q 3200 3197 3328 2828 
z
" transform="scale(0.015625)"/>
     <path id="DejaVuSans-53" d="M 3425 4513 
L 3425 3897 
Q 3066 4069 2747 4153 
Q 2428 4238 2131 4238 
Q 1616 4238 1336 4038 
Q 1056 3838 1056 3469 
Q 1056 3159 1242 3001 
Q 1428 2844 1947 2747 
L 2328 2669 
Q 3034 2534 3370 2195 
Q 3706 1856 3706 1288 
Q 3706 609 3251 259 
Q 2797 -91 1919 -91 
Q 1588 -91 1214 -16 
Q 841 59 441 206 
L 441 856 
Q 825 641 1194 531 
Q 1563 422 1919 422 
Q 2459 422 2753 634 
Q 3047 847 3047 1241 
Q 3047 1584 2836 1778 
Q 2625 1972 2144 2069 
L 1759 2144 
Q 1053 2284 737 2584 
Q 422 2884 422 3419 
Q 422 4038 858 4394 
Q 1294 4750 2059 4750 
Q 2388 4750 2728 4690 
Q 3069 4631 3425 4513 
z
" transform="scale(0.015625)"/>
     <path id="DejaVuSans-52" d="M 2841 2188 
Q 3044 2119 3236 1894 
Q 3428 1669 3622 1275 
L 4263 0 
L 3584 0 
L 2988 1197 
Q 2756 1666 2539 1819 
Q 2322 1972 1947 1972 
L 1259 1972 
L 1259 0 
L 628 0 
L 628 4666 
L 2053 4666 
Q 2853 4666 3247 4331 
Q 3641 3997 3641 3322 
Q 3641 2881 3436 2590 
Q 3231 2300 2841 2188 
z
M 1259 4147 
L 1259 2491 
L 2053 2491 
Q 2509 2491 2742 2702 
Q 2975 2913 2975 3322 
Q 2975 3731 2742 3939 
Q 2509 4147 2053 4147 
L 1259 4147 
z
" transform="scale(0.015625)"/>
     <path id="DejaVuSans-56" d="M 1831 0 
L 50 4666 
L 709 4666 
L 2188 738 
L 3669 4666 
L 4325 4666 
L 2547 0 
L 1831 0 
z
" transform="scale(0.015625)"/>
     <path id="DejaVuSans-64" d="M 2906 2969 
L 2906 4863 
L 3481 4863 
L 3481 0 
L 2906 0 
L 2906 525 
Q 2725 213 2448 61 
Q 2172 -91 1784 -91 
Q 1150 -91 751 415 
Q 353 922 353 1747 
Q 353 2572 751 3078 
Q 1150 3584 1784 3584 
Q 2172 3584 2448 3432 
Q 2725 3281 2906 2969 
z
M 947 1747 
Q 947 1113 1208 752 
Q 1469 391 1925 391 
Q 2381 391 2643 752 
Q 2906 1113 2906 1747 
Q 2906 2381 2643 2742 
Q 2381 3103 1925 3103 
Q 1469 3103 1208 2742 
Q 947 2381 947 1747 
z
" transform="scale(0.015625)"/>
     <path id="DejaVuSans-28" d="M 1984 4856 
Q 1566 4138 1362 3434 
Q 1159 2731 1159 2009 
Q 1159 1288 1364 580 
Q 1569 -128 1984 -844 
L 1484 -844 
Q 1016 -109 783 600 
Q 550 1309 550 2009 
Q 550 2706 781 3412 
Q 1013 4119 1484 4856 
L 1984 4856 
z
" transform="scale(0.015625)"/>
     <path id="DejaVuSans-3d" d="M 678 2906 
L 4684 2906 
L 4684 2381 
L 678 2381 
L 678 2906 
z
M 678 1631 
L 4684 1631 
L 4684 1100 
L 678 1100 
L 678 1631 
z
" transform="scale(0.015625)"/>
     <path id="DejaVuSans-2c" d="M 750 794 
L 1409 794 
L 1409 256 
L 897 -744 
L 494 -744 
L 750 256 
L 750 794 
z
" transform="scale(0.015625)"/>
     <path id="DejaVuSans-62" d="M 3116 1747 
Q 3116 2381 2855 2742 
Q 2594 3103 2138 3103 
Q 1681 3103 1420 2742 
Q 1159 2381 1159 1747 
Q 1159 1113 1420 752 
Q 1681 391 2138 391 
Q 2594 391 2855 752 
Q 3116 1113 3116 1747 
z
M 1159 2969 
Q 1341 3281 1617 3432 
Q 1894 3584 2278 3584 
Q 2916 3584 3314 3078 
Q 3713 2572 3713 1747 
Q 3713 922 3314 415 
Q 2916 -91 2278 -91 
Q 1894 -91 1617 61 
Q 1341 213 1159 525 
L 1159 0 
L 581 0 
L 581 4863 
L 1159 4863 
L 1159 2969 
z
" transform="scale(0.015625)"/>
     <path id="DejaVuSans-29" d="M 513 4856 
L 1013 4856 
Q 1481 4119 1714 3412 
Q 1947 2706 1947 2009 
Q 1947 1309 1714 600 
Q 1481 -109 1013 -844 
L 513 -844 
Q 928 -128 1133 580 
Q 1338 1288 1338 2009 
Q 1338 2731 1133 3434 
Q 928 4138 513 4856 
z
" transform="scale(0.015625)"/>
    </defs>
    <use xlink:href="#DejaVuSans-48"/>
    <use xlink:href="#DejaVuSans-69" x="75.195312"/>
    <use xlink:href="#DejaVuSans-73" x="102.978516"/>
    <use xlink:href="#DejaVuSans-74" x="155.078125"/>
    <use xlink:href="#DejaVuSans-6f" x="194.287109"/>
    <use xlink:href="#DejaVuSans-67" x="255.46875"/>
    <use xlink:href="#DejaVuSans-72" x="318.945312"/>
    <use xlink:href="#DejaVuSans-61" x="360.058594"/>
    <use xlink:href="#DejaVuSans-6d" x="421.337891"/>
    <use xlink:href="#DejaVuSans-73" x="518.75"/>
    <use xlink:href="#DejaVuSans-20" x="570.849609"/>
    <use xlink:href="#DejaVuSans-6f" x="602.636719"/>
    <use xlink:href="#DejaVuSans-66" x="663.818359"/>
    <use xlink:href="#DejaVuSans-20" x="699.023438"/>
    <use xlink:href="#DejaVuSans-53" x="730.810547"/>
    <use xlink:href="#DejaVuSans-52" x="794.287109"/>
    <use xlink:href="#DejaVuSans-56" x="858.269531"/>
    <use xlink:href="#DejaVuSans-20" x="926.677734"/>
    <use xlink:href="#DejaVuSans-64" x="958.464844"/>
    <use xlink:href="#DejaVuSans-69" x="1021.941406"/>
    <use xlink:href="#DejaVuSans-73" x="1049.724609"/>
    <use xlink:href="#DejaVuSans-74" x="1101.824219"/>
    <use xlink:href="#DejaVuSans-61" x="1141.033203"/>
    <use xlink:href="#DejaVuSans-6e" x="1202.3125"/>
    <use xlink:href="#DejaVuSans-63" x="1265.691406"/>
    <use xlink:href="#DejaVuSans-65" x="1320.671875"/>
    <use xlink:href="#DejaVuSans-73" x="1382.195312"/>
    <use xlink:href="#DejaVuSans-20" x="1434.294922"/>
    <use xlink:href="#DejaVuSans-28" x="1466.082031"/>
    <use xlink:href="#DejaVuSans-61" x="1505.095703"/>
    <use xlink:href="#DejaVuSans-3d" x="1566.375"/>
    <use xlink:href="#DejaVuSans-31" x="1650.164062"/>
    <use xlink:href="#DejaVuSans-2c" x="1713.787109"/>
    <use xlink:href="#DejaVuSans-20" x="1745.574219"/>
    <use xlink:href="#DejaVuSans-62" x="1777.361328"/>
    <use xlink:href="#DejaVuSans-3d" x="1840.837891"/>
    <use xlink:href="#DejaVuSans-30" x="1924.626953"/>
    <use xlink:href="#DejaVuSans-2e" x="1988.25"/>
    <use xlink:href="#DejaVuSans-35" x="2020.037109"/>
    <use xlink:href="#DejaVuSans-29" x="2083.660156"/>
    <use xlink:href="#DejaVuSans-20" x="2122.673828"/>
    <use xlink:href="#DejaVuSans-74" x="2154.460938"/>
    <use xlink:href="#DejaVuSans-6f" x="2193.669922"/>
    <use xlink:href="#DejaVuSans-20" x="2254.851562"/>
    <use xlink:href="#DejaVuSans-67" x="2286.638672"/>
    <use xlink:href="#DejaVuSans-6c" x="2350.115234"/>
    <use xlink:href="#DejaVuSans-6f" x="2377.898438"/>
    <use xlink:href="#DejaVuSans-62" x="2439.080078"/>
    <use xlink:href="#DejaVuSans-61" x="2502.556641"/>
    <use xlink:href="#DejaVuSans-6c" x="2563.835938"/>
    <use xlink:href="#DejaVuSans-20" x="2591.619141"/>
    <use xlink:href="#DejaVuSans-6d" x="2623.40625"/>
    <use xlink:href="#DejaVuSans-65" x="2720.818359"/>
    <use xlink:href="#DejaVuSans-61" x="2782.341797"/>
    <use xlink:href="#DejaVuSans-6e" x="2843.621094"/>
    <use xlink:href="#DejaVuSans-20" x="2907"/>
    <use xlink:href="#DejaVuSans-63" x="2938.787109"/>
    <use xlink:href="#DejaVuSans-65" x="2993.767578"/>
    <use xlink:href="#DejaVuSans-6c" x="3055.291016"/>
    <use xlink:href="#DejaVuSans-6c" x="3083.074219"/>
   </g>
  </g>
 </g>
 <defs>
  <clipPath id="p608c493fa7">
   <rect x="51.2525" y="40.95625" width="246.082917" height="219.565625"/>
  </clipPath>
  <clipPath id="p1ce7f88605">
   <rect x="329.184792" y="40.95625" width="246.082917" height="219.565625"/>
  </clipPath>
  <clipPath id="p529679a583">
   <rect x="607.117083" y="40.95625" width="246.082917" height="219.565625"/>
  </clipPath>
 </defs>
</svg>
